<?xml version="1.0" encoding="utf-8"?>
<!-- Generator: Adobe Illustrator 25.0.0, SVG Export Plug-In . SVG Version: 6.00 Build 0)  -->
<svg version="1.1" xmlns="http://www.w3.org/2000/svg" xmlns:xlink="http://www.w3.org/1999/xlink" x="0px" y="0px"
	 viewBox="0 0 591 161" style="enable-background:new 0 0 591 161;" xml:space="preserve">
<style type="text/css">
	.st0{display:none;}
	.st1{fill:#A8AFB0;}
	.st2{fill:#0C0B08;}
	.st3{fill:#15130F;}
	.st4{fill:#5C6363;}
	.st5{fill:#9EA29B;}
	.st6{fill:#161410;}
	.st7{fill:#636A6B;}
	.st8{fill:#6C7473;}
	.st9{fill:#5D6463;}
	.st10{fill:#646B6B;}
	.st11{fill:#201D16;}
	.st12{fill:#262928;}
	.st13{fill:#656A61;}
	.st14{fill:#5C625B;}
	.st15{fill:#474D4B;}
	.st16{fill:#484F4C;}
	.st17{fill:#B2B8B4;}
	.st18{fill:#768C8E;}
	.st19{fill:#4B514E;}
	.st20{fill:#26241C;}
	.st21{fill:#333836;}
	.st22{fill:#666B60;}
	.st23{fill:#373C3A;}
	.st24{fill:#E1E9E9;}
	.st25{fill:#282B29;}
	.st26{fill:#6B5B3E;}
	.st27{fill:#7A6646;}
	.st28{fill:#9F855B;}
	.st29{fill:#C6A771;}
	.st30{fill:#818786;}
	.st31{fill:#697172;}
	.st32{fill:#6B7372;}
	.st33{fill:#AAB0AD;}
	.st34{fill:#B0B6B2;}
	.st35{fill:#AEB4B0;}
	.st36{fill:#3F4542;}
	.st37{fill:#BB9C6A;}
	.st38{fill:#4A504E;}
	.st39{fill:#868D8B;}
	.st40{fill:#919794;}
	.st41{fill:#959B97;}
	.st42{fill:#949A97;}
	.st43{fill:#545A54;}
	.st44{fill:#3C3E37;}
	.st45{fill:#EDF3F3;}
	.st46{fill:#363B39;}
	.st47{fill:#424844;}
	.st48{fill:#4D5350;}
	.st49{fill:#3F4543;}
	.st50{fill:#737974;}
	.st51{fill:#717774;}
	.st52{fill:#909592;}
	.st53{fill:#3B413F;}
	.st54{fill:#353A39;}
	.st55{fill:#3E4442;}
	.st56{fill:#A1A7A4;}
	.st57{fill:#6A706E;}
</style>
<g id="Camada_2" class="st0">
</g>
<g id="Camada_1">
	<g>
		<path class="st1" d="M1,96.1c-0.3,0-0.6,0-0.9-0.2c0-10.3,0-20.6,0-31c0.2-0.3,0.4-0.4,0.8-0.2c1.2,0.8,1.5,2.1,1.5,3.5
			c0.2,8.1,0.2,16.2,0,24.3C2.4,94,2.1,95.3,1,96.1z"/>
		<path class="st2" d="M173,105.9c-33,0.1-66,0.2-99,0.3c-5.6,0-11.3-0.1-16.9-0.2c-3.6-2.5-2-6.2-2.1-9.5c0.3-1.4,0.8-2.6,1.8-3.6
			c5.6-0.6,11.3-6.4,12.1-12.4c0.2-1.5,0.1-3.2,1.9-3.8c1.7-0.6,2.8,0.7,3.9,1.7c4.6,4.3,4.5,4.2,9.8,0.5c2.2-1.5,4.3-0.1,4.8,1.8
			c1.2,4.1,3.6,4,7.1,3.5c6.1-0.9,12.2,0.7,18.2,1.6c8.2,1.3,16.2,3,24.5,2.9c3.2,0,6.3,0.1,9.1,1.9c2.1,1.4,4.1,0.7,6.1-0.5
			c1.3-0.8,2.9-2.3,4-1.4c3.9,3.3,7.4,1.1,11-0.4c0.8-0.3,1.8-0.5,2.4,0c4.1,3,7.5,0.8,10.9-1.4c4-2.5,8.9-1.3,13-4.2
			c2.6-1.8,5.3-3.3,7.3-5.8c2.4-2.8,5.5-3.5,9-3c1.8,0.3,3.3,1.1,3.7,2.9c0.7,2.9,2.8,5.3,3.4,8.3c0.4,2.1,1.2,4.3,3.7,3.8
			c3.4-0.7,7.9,1.3,9.6-3.7c0.1-6.1-0.2-12.3,0.1-18.4c0.1-1.8-0.7-4.6,2.8-4.5c1.2,1.6,1,3.4,1.1,5.3c0.1,10.8-0.1,21.5,0.1,32.3
			c0.1,4.9-0.8,5.6-5.8,5.6c-17.4,0-34.8,0-52.3,0C176.6,105.5,174.8,105.1,173,105.9z"/>
		<path class="st3" d="M234,87c-2.3,2.5-11.4,4.4-13.9,3c-0.9-0.5-2-1.2-1.8-2.1c0.9-4.2-3.3-6.6-3.5-10.6c-0.1-2.5-7-3.8-8.9-1.2
			c-3.7,5-9.4,7-13.8,10.8c-0.5,0.5-1.1,1-1.7,0.6c-4.3-3.2-6.8,1.1-10.1,2.4c-2.6,1-4.8,3.7-7.8-0.1c-1.8-2.3-4.3,0.2-6.3,1.2
			c-2.5,1.2-4.7,2.6-6.8-0.7c-1.2-1.9-2.5-0.5-3.7,0.5c-3,2.4-6,3.6-9.3,0.4c-1.5-1.5-3.4-0.9-5.2-1.1c-5.4-0.4-10.9-0.9-16.2-1.2
			c-5.5-0.4-10.6-2.6-16.3-2.2c-3.3,0.2-7.3-1.7-10.9-1c-5.4,1.2-9.3,0.6-10.6-5.6c-0.1-0.7-1.3-1-2.3-0.8c-1,1.6,2,1.6,1.3,3.3
			c-1.8-0.1-3.7-0.4-5.7,0.9c-2.8,1.8-4.4-0.6-5.9-2.9c-0.9-1.4-2-3.4-3.6-3c-2,0.5-1.1,2.9-1,4.4c0.3,3.5-1,5.8-4.2,6.9
			c-1.1,0.4-2.5,0.7-2.6,2c-0.5,5.6-3.4,3.7-6.3,2.1c-0.5-0.4-0.8-0.9-1-1.4C55.6,81,54,70.3,57.5,59.8c0.5-1.6-0.2-3.3,0.4-4.9
			c5.9-0.5,11.7-0.4,17.6,0c9.4-0.8,18.8-0.2,28.2-0.4c2.1,0,3.2,0.7,2.1,3c-0.9,1.3-2.5,1.4-3.8,2.1c-1.5,0.7-2.9,1.6-2.1,3.7
			c1.7,2.1,3.9-0.4,5.7,0.6c4.2,2.1,8.3,3.8,13.1,4.3c4.7,0.4,8.3,4,12.1,6.7c1.1,0.7,2.3,2.5,3.4,1.5c4.5-4.1,9.6-1,14.3-1.6
			c1.1-0.2,2.3,0,3.5,0c2.8,0,4.6-1,3.8-4.2c-0.4-1.6-0.3-3.1,1.3-3.8c1.9-0.9,3.2,0.2,4.2,1.7c1.5,2.2,3.5,4,4.5,6.6
			c1,2.5,2.6,2.8,4.7,1.5c3.7-2.2,7.2-5.2,12.1-4.6c-1.9-1.8-3.7-0.4-5.4-0.8c-1.2-0.2-2.4-0.4-2.7-1.8c-0.3-1.3,0.4-2.5,1.4-2.9
			c4.3-1.5,8.3-4.6,13.3-2.6c2.1,0.8,4.2,0.6,6.4,0.6c4.3,0,8.5-0.1,12.7-1.4c2.5-0.8,5.3-0.5,7.7,1.1c1.3,1.1,2.9,1.7,4.1,2.9
			c0.3,2.7,0.1,5.6,2.7,7.6c0.8,0.6,0.7,1.8,0.7,2.8c0.3,7,1.4,8,8.7,8.8C233,86.2,233.5,86.5,234,87z"/>
		<path class="st4" d="M510.9,98.1c-8.7,2-17.7,2.2-26.6,2.8c-27.4,1.8-54.8,2.1-82.2,2.4c-1.3,0-2.6-0.1-4-0.2
			c-15,0.4-30,0.1-45.1-0.2c-2.9-0.1-5.5,1.2-8.4,0.6c-3.9-0.7-4.3-2.3-2.3-5.7c4.1-7.2,10.3-8.7,17.8-7.4c4.1,0.7,7.2-0.7,10.6-3.6
			c4.9-4.2,10.8-7.7,18.1-4c3.2,1.6,7.1,1.4,10.7,2.3c2.5,0.6,4.4,1.6,4.3,4.6c0.9-4.9,5-8.2,10.2-8.4c4.9-0.2,9.4,1.4,14.1,2.2
			c5.2,0.9,10.2,2.3,15.7,1.4c3.7-0.6,6.6-1.7,9-4.5c1.3-0.6,2.5-0.7,3.7,0.1c-0.1,3.9,2.3,5.1,5.6,6.8c6.3,3.2,12.8,3.1,19.4,3.2
			c0.7,0,1.4-0.2,2,0.1c7.7,4.1,15.5,3.4,23.4,0.8c1.7-0.6,3.9-1,5.1,0.8C513.5,94.3,512.5,96.3,510.9,98.1z"/>
		<path class="st5" d="M334,57c18.6-0.4,37.3,0.4,55.9,0.8c22.8,0.5,45.7,0.2,68.4,1.4c36.3,2,72.7,3.8,108.2,12.8
			c4.5,1.1,8.9,2.8,13.3,4.1c2.8,3.6,0,4.1-2.5,3.6c-5.7-1-11.5-1.1-17.2-2c-2.4-0.4-4.6-0.1-6.8,1.3c-0.5,0.1,0.4,1,0.1,0.4
			c0-0.1,0.1-0.1,0.2-0.2c1.5-1,3.1-1,4.8-1c1.9,0,3.4,0.5,2.5,2.9c-0.4,0.4-0.9,0.6-1.4,0.8c-5.7,0.6-11.1,3.6-17,2.1
			c-0.5-0.1-1-0.3-1.5-0.6c-2.2-2-4.9-1-7.4-1.3c-2.1-0.2-4.7,0.7-6-2c4.3-3.2,8.8-1.2,12.4-0.8c-5-2.2-10.7-3.2-16,1.4
			c-4.7,0.6-9.4,0.6-14.2,0c-7.9-4.3-15.8-5.3-23.7-0.1c-3.4,0.7-6.8,0.6-10.2,0.1c-2.5-0.9-4.6-2.6-6.6-4.2
			c-3.6-2.8-7.5-3.8-11.8-4c-0.4-0.6-0.7-1.2-0.8-1.9c-0.7-3,1.1-6.3-1.3-9c-0.9-0.2-1.9-0.2-2.8-0.4c-4.5-0.1-8.9-0.2-13.4,0
			c-9.1-0.2-18.1,0.5-27.2-0.4c-6.2-1.5-12.5-0.6-18.8-0.6c-5.3,0-10.6,0.2-15.9,0c-2.5,0-5,0.2-7.4-0.4c-7.6-1.4-15.2-0.4-22.8-0.6
			c-4.3-0.2-8.6,0.7-12.8-0.9C333.8,58.2,333.7,57.7,334,57z"/>
		<path class="st6" d="M215.6,65c-2.2-1.7-5.4-1.8-7.1-0.8c-4.6,2.7-9.4,0.3-13.9,1.7c-0.9,0.3-2.3,0.5-2.9,0
			c-4.9-3.9-9.4,0.4-14.1,0.7c-1.2,0.1-2.3,1.1-2,2.4c0.2,1.3,1.5,1,2.5,0.9c2.6-0.3,6.8-2.5,7.2,1.1c0.3,3.4-4,2-6.6,2.3
			c-2.7,0.3-5.1,2.8-7.7,4.3c-3,1.8-5.2,2.8-6.2-2.3c-0.6-2.8-3.3-5.2-5.1-7.8c-0.6-0.8-1.5-0.6-2.3-0.2c-0.8,0.5-0.7,1.3-0.5,2.2
			c1.1,6.2,1,6.4-5.3,6.3c-3.8-0.1-7.7,0.6-11.4-0.7c-1.4-0.5-2.5,0-3.4,1.3c-2.2,3.2-3.7,1.9-6.2-0.2c-4.6-3.8-9.3-7.8-16.2-7.5
			c-3.7,0.2-6.9-2.1-9.3-5c-0.4-1.7,0.2-2.9,1.7-3.7c6.8-0.1,13.5-1.2,20.3,0.8c4.9,1.5,10.4,0.7,15.3,1.6
			c7.4,1.3,14.3-2.7,21.5-0.6c0.3,0.1,0.7,0.2,1,0c5.4-3.6,12-1.2,17.8-3.3c2.9-1,6,0.2,9.5-1c-8.9-0.3-17.3-0.1-25.6-0.1
			c-10.3,0-20.6,0-31,0c-2.2,0-4.7,0.3-6.3-1.7c0.4-1.3,1.3-1.2,2.1-1.2c18.8,0,37.6,0,56.5,0c0.7,0,1.3,0.2,2,0.4
			c15.2-0.6,30.3-0.1,45.5,0.1c1.5,1.7,1.5,3.6,0.9,5.7c-0.2,0.6-0.6,1-1.1,1.3c-1.9,5.8-0.4,11.7-0.8,17.5c-0.2,2.5,0,4.9,0,7.4
			c-3.1-0.2-6.7,2.3-9.3-1.7c-0.9-1.4-2.8-3-2.4-4.1c2.5-5.4-6.1-8.7-2.3-14.1c0.5-2.2,3.5-4.6-0.3-6.6c-3-0.2-2.2,2.5-3,3.9
			C216.4,64.8,216.1,65,215.6,65z"/>
		<path class="st7" d="M453,81c-0.9,3.7-3.4,4.5-6.9,5.1c-9.2,1.5-17.7-1-26.3-3.5c-6.9-2-12.8,1.5-15.1,8.7
			c-0.4,1.1-0.5,2.7-2.3,2.9c-0.9-1.6,0.6-2.8,0.6-4.3c0-1.7-0.7-3.5-2.2-3.3c-3.4,0.4-6.1-2.4-9.5-1.6c-0.8,0.2-2,0.2-2.4-0.3
			c-3.3-3.5-6.6-2.5-10.4-0.8c-3.3,1.5-6.5,2.3-8.8,5.9c-2.5,4-7.3,2.4-11.1,1.8c-6.7-1-9.9,0.2-13.7,6c-0.2,0.3-0.3,0.6-0.5,0.8
			c-0.9,0.9-3.5,0.5-2.5,2.7c1.1,2.2,4,1.7,5.3,1.3c5.7-2,11.5-0.8,17-0.1s10.8-0.7,16.1,0.1c6,0.9,12-1.3,17.8,0.7
			c-10.1,1.3-20.2,0.7-30.3,1c-12.6,0.4-25.2,0.5-37.9,0.7c-0.3-0.4-0.5-0.9-0.5-1.4c-0.1-6,1-12.1-0.3-18.1c-0.2-0.5-0.2-1-0.3-1.5
			c1.5-3.9,2.5-4.3,4.8-2c3.2,3.3,7.5,3.3,10.9,0c1.3-1.3,2.3-2.8,3.9-3.8c1.4-0.9,3.2-2.1,4.6-1.3c6.7,4.3,13.9,1.1,20.8,2
			c1.6,0.2,3.3,0,5-0.1c5.1,0,10.2-0.2,15.3,0c17.6-0.7,35.1,1.4,52.6,0.9C449,79.4,451.3,79.3,453,81z"/>
		<path class="st8" d="M330,104c0,0.3,0,0.5,0,0.8c-9,0-18,0.1-27,0.1c-1.5-1.4-1.3-3.3-1.4-5.1c-0.2-14,0.3-28.1-0.3-42.1
			c0-0.7,0.3-1.3,0.8-1.8c4.8,1.8,9.8,0.7,14.6,0.9C322.5,57,328.2,57,334,57c0,0.3,0,0.6,0.1,1c-2.7,2.1-5.8,1.4-8.8,1.5
			c-2.2-0.3-4.2-0.3-3.3,3c0.5,1.6,1.7,3.1,1.5,5c-0.1,1.3,0.8-0.1,1.1,0.3c0.9,0.4,1.2,1.2,1.5,2c0.3,1.1,1,2.5,0.4,3.3
			c-3.5,5.2-0.3,8.1,3.5,10.9c0,0.4,0,0.7,0,1.1C330.8,91.4,330.8,97.7,330,104z"/>
		<path class="st9" d="M301.9,116.9c0.2,3.9,0.2,7.9,0.6,11.8c0.2,1.9-0.2,3-2.2,2.9c-3.2,0-8.2-5.2-8.2-8.5c-0.1-4,0-7.9-0.1-11.9
			c0-1.6,0.6-3.3-1-4.6c-0.6-0.7-0.8-1.5-0.8-2.4c0.2-13.1,0.7-26.3,0.6-39.4c-0.2-3.1,1.2-6.7-2.5-8.9c-0.8-0.5-1.6-0.9-2.5-1.3
			c-1-0.5-2.3-0.8-2.9-1.9c2.8-1.9,7.4,1.4,8.9-2.3c1.2-2.8,0.3-6.5,0.3-9.8c0-5.6,2.2-8.6,7.2-10.3c2.8-1,3.6-0.2,3.3,2.7
			c-0.4,3.6-0.4,7.2-0.6,10.8c-1.9,4.4-0.3,8.9-0.2,13.3c0.5,16.1,0.5,32.2-0.1,48.3C301.5,109.4,300.8,113.2,301.9,116.9z"/>
		<path class="st10" d="M510.9,98.1c0.1-1,0.1-2,0.5-2.9c1-2.7-0.6-4-2.5-2.8c-6.4,4-13.5,1-20.1,2.5c-0.3,0.1-0.8,0.2-1,0
			c-6.1-5.5-14.2-1.1-20.6-4.1c-3.5-1.7-7.5-2.1-10.6-4.6c-2.7-2.1-2-3.6,0.4-5.1c3.1-2.4,6.6-1.3,10-1.1c5.7,4.2,12.2,6.8,19.1,8.1
			c4.6,0.8,9.4,0.9,14.1-0.5c7.8-2.3,15.4-3,23,0.9c3.3,1.7,7.2,0.8,10.2-0.2c4.1-1.4,8.1-1.5,12.1-2.2c5.6-0.9,10.9-3.3,16.6-3
			c5,0.3,9.4-1.4,14-2.8c4.3-0.2,8.6-1.3,12.9-0.3c1.4,2.7-1.3,2.6-2.4,3.1c-8,3.3-16.1,6-24.5,7.9c-15,3.4-30.2,5.7-45.6,7.1
			C514.6,98.2,512.7,98,510.9,98.1z"/>
		<path class="st11" d="M189.5,54.9c-19.8,0-39.6,0-59.4,0c0,0.4,0,0.7,0,1.1c2.7,0,5.4,0,8.2,0c17.3,0,34.7,0,52,0
			c2.2,0,4.8-0.6,6.1,2.7c-4.1,0-7.7,2.3-11.7,0.7c-1.3-0.5-2.1,0.7-3.1,1.2c-1.5,0.8-3.2,2-4.7,1.1c-3.7-2.3-6.6-0.9-9.5,1.3
			c-0.4,0.3-1,0.8-1.3,0.7c-6.7-3.7-13.4,3.3-20-0.1c-0.5-0.3-1.3-0.3-1.9-0.2c-4.6,0.9-9.2,1-13.8-0.4c-8-2.5-16.3-1.2-24.4-2.1
			c-1-0.1-1.6-0.7-2.2-1.5c-0.2-0.4-0.2-0.9-0.1-1.3c0.9-0.4,2.1-1,1.8-2.1c-0.4-1.5-1.9-1-3-1c-9-0.1-17.9-0.1-26.9-0.2
			c10.2-1,20.5-0.6,30.8-0.6c26.7-0.1,53.5,0.1,80.2,0.2C187.6,54.5,188.6,54.8,189.5,54.9z"/>
		<path class="st12" d="M291,104.9c0,0.6,0,1.2-0.1,1.8c-1.6,2.1-3.8,1.4-5.9,1.1c-6.9-2.5-14.1-1.5-21.1-2.1
			c-7.4-0.5-14.9-1-22.3-1.4c-2-0.1-4-0.2-5.6,1.5c-21,0-42,0-63,0c1.5-1.5,3.5-0.9,5.2-0.9c17.1,0,34.3-0.2,51.4,0.1
			c4.6,0.1,5.6-1.4,5.4-5.7c-0.3-12.5-0.2-24.9-0.2-37.4c0.1-0.4,0.1-0.7,0.2-1.1c1.6,0,2,1.2,2,2.3c0.3,9.7,0.8,19.4-0.3,29.1
			c0,0.2-0.2,0.4-0.2,0.4c0.5,0.6,0.2-0.3,0.5-0.3c11.1,0.3,22.3,0,33.3,1.9c2.7,0.5,5.3,1,6.4,3.9c0.9,2.2,2.8,1.2,4.3,1.2
			c1.5,0.1,1.9,1.3,2.6,2.3c0.8,1.7,2.3,1.7,3.8,1.7c0.9,0.9,1.8-0.2,2.7-0.1C291,103.8,291.5,104.2,291,104.9z"/>
		<path class="st13" d="M15.3,52.9c13.6,0.4,27.3,0.5,40.8,2.1c0.6,0.7,0.7,1.4,0.5,2.3c-3.2,4.4-5.9,5.2-9.7,3.1
			c0.4-2.5-1.5-2-2.8-2.1c-8.1-0.8-16.2-1.4-24.4-0.9c0.6,1.1,3.4,0.7,2.3,3c-4.3,1.8-8.2,0.6-12-1.5c-1.3-1.9-4.3-3.2-2.3-6.3
			C10.2,52.7,12.7,52.2,15.3,52.9z"/>
		<path class="st14" d="M282.7,52.9c1.1,0.2,2.4-0.1,3.3,1.1c-1.4,2.5-2.6,5.2-4.6,7.3c-0.5-0.2-0.8-0.5-1-0.9
			c-0.4-1.1-0.7-2.2-2.3-1.4c-2.4,1-4.8,0.5-7-0.7c-6.3-1.4-12.6-1-18.9-0.2c-4,0.7-8.1,0.1-12.1,0.7c-1.3-0.2-3.2,0.3-3.3-1.8
			c0-2.1,2.5-0.7,3.3-2C254.2,53.6,268.5,53,282.7,52.9z"/>
		<path class="st15" d="M236,105.9c0.3-2.7,2.1-3,4.3-2.9c13.2,0.3,26.4,2.3,39.6,2.1c2.1,0,3.5,1.6,5.1,2.8
			C268.7,107.2,252.3,106.6,236,105.9z"/>
		<path class="st16" d="M301.9,116.9c-1.1-0.2-1.8-0.7-1.7-2c1.8-20.5,0.4-41.1,0.8-61.6c0-1.4-0.7-2.9-0.7-4.4
			c-0.1-1.8-1.4-4.1,1.6-5c0.1,3.9,0.2,7.9,0.2,11.8c1.7,7.5,0.7,15.1,0.9,22.7c0.2,8.8,0,17.5,0,26.3
			C301.2,108.8,302.6,113,301.9,116.9z"/>
		<path class="st17" d="M588.9,80c-4.2,1.6-8.7,0.6-13,1.1c-5,0.4-10,3.3-14.9-0.2c-0.3-1.9-1.5-2-2.9-1.4c-2.1,0.9-4.2,0.5-6.8,0.4
			c1.9-2.9,4.2-4.3,6.9-3.7c6.5,1.5,13.2,0.4,19.6,2.6c2.7,0.9,2.7-0.8,2.1-2.6C583.1,76.8,586.4,77.6,588.9,80z"/>
		<path class="st18" d="M15.3,52.9c-2.7,0-5.5,0.1-8.2,0.1c-0.8,3.5-0.4,7.1-0.5,10.7c-0.1,1.8,0.1,3.6-1.2,5.2
			c-3.3-0.4-1.3-2.6-1.7-4C4.4,78.3,1.9,91.8,5.5,105c0.2,1.2-0.1,2.3-1.3,2.8c-3.3-3.3-2.9-7.6-3.2-11.7c0-10.5-0.1-20.9-0.1-31.4
			c0.1-1,0.2-2,0.3-2.9C3,50.7,3.8,50.2,15.3,52.9z"/>
		<path class="st19" d="M29.4,107.1c-3.3,1.2-6.9,0.3-10.3,1c-1.1,0.5-2.2,0.4-3.3,0.1c-1.8-0.7-4.6-0.8-2.3-3.9
			c10.6-2.8,21.4-2.3,32.2-2.9c2.3,0.6,6.4-0.8,6.3,2.6c0,2.3-4,1.8-6.3,1.8C40.2,106.1,34.8,105.9,29.4,107.1z"/>
		<path class="st20" d="M55.9,57c0.1-0.7,0.1-1.3,0.2-2c0.7,0,1.3-0.1,2-0.1c0.9,1.3,2.6,2.1,1.5,4.2c-4.1,8-2,16.6-2.5,24.9
			c-0.2,2.6-0.1,5.3-0.1,8c-2.1,1.1-2.6-0.3-2.7-1.9c-0.1-1.6-0.4-3.1-1.1-4.6c-0.2-0.5-0.3-1-0.4-1.6c-0.9-6,0.8-11.9,0.8-17.8
			C53.1,62.8,54.9,60,55.9,57z"/>
		<path class="st21" d="M29.4,107.1c-0.7-0.4-2.5-1.2,0.1-1.1c6.5,0.2,12.9-1.7,19.4-1.1c0.9,0.1,1.8-0.3,3.5-0.6
			c-2.4-2-4.4-1.1-6.2-1.4c-0.2-1,0.5-1.6,1.3-1.8c2.9-0.5,5.3-1.4,6.3-4.7c0.3-1,1.4-1.3,2.5-0.6c0.3,3.3-0.7,6.8,1,10
			C47.9,106.7,38.6,107.3,29.4,107.1z"/>
		<path class="st22" d="M240,54.9c1.4,1.6-5.5,0.3-1,3c1.1,0.6,1.6,1.4,1,2.7c-2.9,4.6-1.1,9.8-1.6,14.7c0.1,2,0,4,0,6.1
			c-0.2,3.9,1.1,8-1.4,11.6c-0.1,1.3-0.1,2.5-0.2,3.8c-0.3,0-0.6,0-0.9,0c0-10,0-20.1,0-30.1c0-1.9,0.6-4-0.9-5.7
			c0-2-0.1-3.9-0.1-5.9C236.7,54.6,238.4,54.6,240,54.9z"/>
		<path class="st23" d="M13.1,105c-0.2,2.2,2.2,1.7,3,2.8c-3.7,1.6-7.6-0.1-11.3,1c-0.2-0.3-0.4-0.6-0.6-0.9c0.3-0.7,0.6-1.3,0.9-2
			c-0.5-1.2-1-2.5,0.8-3.1c0.3,0.6,1.2,0.9,1.7,0.6C10.1,101.4,11.6,103.1,13.1,105z"/>
		<path class="st24" d="M4.8,108.8c3.8-0.3,7.5-0.7,11.3-1c1,0.1,2,0.2,3,0.3C14.4,109.8,9.6,108.9,4.8,108.8z"/>
		<path class="st25" d="M13.1,105c-1.9,0.3-3.5-3.4-6-0.1c-0.8,1.1-0.6-1.4-1.2-2.1c-1.3-1.4-1.2-3.2-1.3-4.9
			c0.1-2.2-0.3-4.5,0.8-6.6c1.6-1.6,3.6-1.7,4.8-0.1c4,5.3,9.8,4.5,14.9,4.1c5.8-0.5,11.6-0.2,17.4-0.1c8.4,0.2,8.9,0.1,10.6-8
			c0.2-0.5,0.5-0.9,1-1.2c1.5,0.7,2.1,1.7,1.3,3.4c-0.7,1.5-0.1,2.4,1.6,2.6c0,0.3,0,0.7,0.1,1c-0.3,1-0.6,2-1,3
			c-0.3,0.1-0.9,0.1-0.9,0.3c-0.4,5.8-5.2,5.7-9.1,6.7C35.1,103.6,24.1,104.3,13.1,105z"/>
		<path class="st26" d="M65.4,76.2c2,0.8,3.8,1.6,3.7,3.8c-0.1,2.6-1.7,3.8-4.2,3.9c-1.8,0.1-2.9-1.1-2.7-2.8
			C62.5,79.1,63.3,77.1,65.4,76.2z"/>
		<path class="st27" d="M215.6,65c0-0.3,0.1-0.6,0.3-0.8c0.6-2.4,2.5-3.8,4.2-5.3c4.2,3.3,4.2,5.3-0.1,8.1
			C218.3,66.9,216.6,66.6,215.6,65z"/>
		<path class="st28" d="M104.1,59c0.7,0.7,1.3,1.4,2,2.1c-0.3,1-0.7,1.9-1,2.9c-2,1.2-3.9,4-5.9,0.1C98.9,60.4,101,59.1,104.1,59z"
			/>
		<path class="st29" d="M104.1,59c-2,1.3-4.3,2.4-5,5c-1.9-4.7,0.9-5.7,4.7-5.8C103.8,58.5,103.9,58.7,104.1,59z"/>
		<path class="st30" d="M467.9,81.1c-3.7,0-7.3,0-11,0c-1.3,0-2.6,0-4,0c-19.7,0.6-39.3-1.4-59-1c-1-2.8,1.2-3.1,2.9-3.2
			c14.4-0.7,28.3-5.8,42.8-5.2c3,0.1,5.9-1,8.8-1.5c5.7-0.9,7,0.1,7.9,5.7c0.4,1.9,2.3,0.5,3.1,1.4c2.3,1.6,5,1.5,7.7,1.5
			c2.6,0,5.3-0.3,7.7,1.3c4,0,8.1,0,12.1,0c7.3-2.5,14.6-2,21.9,0c5.4,0,10.7,0,16.1,0c1-0.7,2-0.9,2.9,0.1c3.5,2,7.4,0.5,11,0.9
			c1.3,0.1,2.9-0.3,2,2c-2.1,2.1-4.8,1.8-7.4,2.2c-13,2.3-26.1-0.5-39.1,0.3c-4.6,0.3-9.2,1.4-13.9,0.9c-4-0.4-5.5-1.5-6.3-4.5
			c-0.2-0.6-0.5-0.1-0.7,0C471.6,82.5,469.7,82.3,467.9,81.1z"/>
		<path class="st31" d="M330,84c-4.3,0.4-4.8-3.3-6.3-5.8c-0.4-0.7-1-2.4,0.4-3.1c2.7-1.3,1.1-3.3,1-5.1c1.1-2.4-0.7-4.3-1.2-6.4
			c-0.5-2.1-1.4-4.1,1.1-5.5c3,0,6.1-0.1,9.1-0.1c4.3,0,8.6,0.1,12.9,0.1c0.7,0.7,1.8,0.4,2.5,1.1c3.1,5.3,3,6.2-2.1,8.7
			c-1.7,0.8-2.3,1.8-1.9,3.5c0.5,1.9,2,1.9,3.6,1.8c4.2-0.4,6-2.5,5.4-7.1c-0.4-3.2-0.5-6,3.2-7.3c4.1,0.7,8.3-0.7,12.4,0.4
			c2.3,0,4.6,0,6.9,0c0.7,4,1.8,7.9,3.4,11.7c0.5,1.3,0.7,3-0.7,3.5c-3.2,1.3-1.6,3.7-1.7,5.7c-6.6,0.4-13.2-0.9-19.8,0.8
			c-1.1,0.3-2.1,0-2.7-0.8c-3.9-5.1-6.9-1.5-8.6,1.6c-2.8,4.9-7.9,3-11.6,4.9c-1.4,0.7-1.4-2.2-2.1-3.3c-0.5-0.8-0.5-2.1-1.8-1.9
			C329.7,81.5,330.1,82.9,330,84z"/>
		<path class="st8" d="M378,80c-1.1-2.2-5.4-4.7,0.7-6.2c1.9-0.5,0.9-1.9,0.4-3.2c-1.4-3.7-4.1-7.2-2.1-11.6
			c10.3,0,20.6,0.1,30.8,0.1c1.5,0,3-0.3,4.3,0.8c-3.4,2.5-7.4,1-11.1,1.3c-3.4,0.3-7.7,5.3-7.2,8.7c0.3,1.7,1.6,2,3,2
			c3.3-0.1,6.6-0.4,9.6-2.1c2.7-1.6,5.4-1.9,8.6-0.8c3.5,1.2,7.2,0.9,10.7-0.3c3.6-1.3,7.1-2.6,11-2.9c3.7-0.3,4.7-2.5,3.2-5.7
			c4.7,0.4,9.5-1,14.1,0.9c2,2.8,2.2,6.2,2.8,9.4c0.1,0.8,0.1,1.5,0.1,2.3c0.2,1.9,0.6,3.8-1,5.4c-0.1-0.1-0.3-0.2-0.3-0.4
			c-2.1-7.6-2-7.2-10.5-5.7c-6.5,1.1-13.3,1.4-19.9,1.4c-2.6,0-4.6,1.4-6.9,1.8c-7.1,1.3-14.2,2.3-21.4,2.7c-1.4,0.1-2.7,0.2-2.8,2
			C388.6,80,383.3,80,378,80z"/>
		<path class="st31" d="M440,60.1c0.5,0.7,1.3,0.9,2.2,1c0.9,0.1,2.2-0.3,2.3,1.2c0.1,0.9-0.8,1.3-1.5,1.7
			c-7.3,4.6-15.9,7.5-23.7,6.5c-7.8-1-14.1,2.4-21.2,2.8c-2.1,0.1-4.4,0.4-5.5-1.1c-1.5-1.9,0.6-4,0.9-6c1.1-7.3,6.2-6.3,11.2-6.1
			c2.5,0.1,5,0,7.5,0C421.4,60,430.7,60,440,60.1z"/>
		<path class="st32" d="M467.9,81.1c3.3-0.1,6-0.1,8.8,2.8c2.8,2.8,7.6,1,11.5,0.9c7.8-0.2,15.4-2.1,23.3,0c3.7,1,8,0.8,11.8,0
			c5.8-1.2,11.8-0.6,17.6-1.8c0.3,0,0.6,0,1,0c6.4,2.6,12.1-0.6,18-2c0.4-0.1,0.7-0.1,1.1-0.2c5,0.1,10,0.1,14.9,0.2
			c-3.7,1.5-7.1,4-11.6,3.2c-4-0.7-7.9,0.5-11.6,1.5c-4.3,1.1-8.6,2.2-13.1,2c-0.8,0-1.7-0.1-2.4,0.2c-5.9,2.8-11.1,3.4-17.7,0.1
			c-4.5-2.3-11.4-2-17.1,0c-3.1,1.1-6.3,1.2-9.2,1.6c-4.9,0.7-8.8-0.7-12.8-1.8C475.9,86.6,470.7,85.8,467.9,81.1z"/>
		<path class="st33" d="M474.9,80c-3.8,0-7.7-0.2-11.5,0.1c-2.7,0.2-4.4-0.8-5.4-3.2c-1.2-1.3-1.2-2.6,0.1-3.9
			c0.8-1.2,1.8-1.5,3.3-1.1C466.9,73.1,471.4,75.6,474.9,80z"/>
		<path class="st34" d="M508.9,79.9c-7.3,0-14.6,0-21.9,0c2.9-4.8,8.1-3.7,12.1-3.6C502.2,76.3,506.6,76.1,508.9,79.9z"/>
		<path class="st35" d="M527.9,80c-1,0-2,0-2.9-0.1c3.9-4.5,7.9-5.3,12.7-2.2c1.6,1,3.4,1,5.1,2.3C537.8,80,532.8,80,527.9,80z"/>
		<path class="st30" d="M559.9,81c-5.8,2.6-11.5,6-18,2C548.1,84.4,553.8,80.6,559.9,81z"/>
		<path class="st8" d="M370,59c-4.4-0.1-8.7,0.8-13.1,0c-2.7,1.6-5.3,2-8,0c-0.8,0-1.6-0.2-2-1C354.7,58.5,362.4,57.2,370,59z"/>
		<path class="st36" d="M456,71.9c0-0.6-0.1-1.3-0.1-1.9c-0.3-3.3-1.3-6.5,0.2-9.7c3.7,3.1,1,7.1,1.7,10.7
			C457.4,71.6,457.2,72.7,456,71.9z"/>
		<path class="st31" d="M456.1,60.2c-0.1,3.2-0.2,6.5-0.2,9.7c-1.9-2.4,0.3-6.8-4-8.2c-0.4-0.1,1.4-0.5,2.2-0.8
			C454.7,60.7,455.4,60.5,456.1,60.2z"/>
		<path class="st31" d="M456,71.9c0.6-0.3,1.2-0.6,1.8-1c0.1,0.7,0.2,1.4,0.3,2.1c0,1.3-0.1,2.6-0.1,3.9c-0.3,1.1-0.4,2.6-2.1,1.1
			C456,76,456,73.9,456,71.9z"/>
		<path class="st37" d="M220.1,58.9c0.4,3.2-3.6,2.8-4.2,5.3C215.5,61,216.5,58.9,220.1,58.9z"/>
		<path class="st38" d="M330,104c0-6.3,0-12.6,0-18.9c2.7,2,0.9,4.6,0.8,6.9C330.7,96,332.2,100.1,330,104z"/>
		<path class="st39" d="M323.9,79.6c-0.1,7.2,1.9,13,0.1,18.8C320.8,92.7,319.7,86.9,323.9,79.6z"/>
		<path class="st7" d="M325,58.1c-1.1,1.7-0.9,3.3,0.1,5.1c1.2,2.2,1.8,4.6,0,6.9c-0.3-0.7-0.6-1.4-0.9-2c-1.1-1.6-0.9-4-3.1-4.9
			C318.5,58.4,321.1,57.7,325,58.1z"/>
		<path class="st40" d="M313.1,84c1.3,2.3-1,4.9,0.8,7.2c0.4,0.5-1.1,1.8-1.2,1.6c-0.4-1.7-3.6-2.6-2.3-4.1c1.7-2,0.2-4.2,1.4-5.9
			C312.5,82.9,312.7,83.6,313.1,84z"/>
		<path class="st41" d="M313.1,84c-0.4-0.4-0.8-0.8-1.3-1.2c0.6-2.1-3.4-4.9,1.3-6.3C313.1,79,313.1,81.5,313.1,84z"/>
		<path class="st42" d="M321,63c3.4,0.2,2.9,2.7,3.1,4.9c-0.4,0.3,0,2.3-1,0.8C322,67.2,321.7,65,321,63z"/>
		<path class="st43" d="M280.8,60c0.1,0.4,0.2,0.9,0.3,1.3c1.9,0.9,1.7-0.7,1.9-1.6c0.6-2.9,2.3-4.4,5.3-4.7
			c5.9,1.2,3.1,5.8,3.6,9.1c0.5-0.4-0.8,0.6-0.5,0c0.1-0.3-0.5-0.4-0.5-0.3c0.3,8.2,0.1,16.4-0.1,24.6c-0.2,5.2,0,10.4-0.8,15.6
			c-0.7,0.1-1.3,1.3-2,0.1c-2.1-4.6-2.3-9.5-2.9-13.9c0.1,3,0.5,6.4,1.3,9.8c0.6,2.4,0.2,4.6-3.3,3c-0.3-1-0.7-2-1-3
			c-2.6-2.5-3.4-5.9-4.1-9.2c-0.1-3.4-1.1-6.7-0.8-10.1c0.5-1.7,0-2.4-1.8-2.4c-5.2,0.1-10.2-0.7-15.1-2.2c-2.7-0.8-4.5,2-7,1.7
			c-0.5-0.1-1-0.2-1.4-0.4c-2-1.4-3-3.2-2.2-5.5c0.7-2.2,2.8-3.2,4.8-2.9c4.9,0.7,9.1-1.3,13.4-3c1.2-0.5,2.5-0.8,3.8-1.1L280.8,60z
			"/>
		<path class="st44" d="M290,103.9c0-14.2,0-28.4,0-43.9c1,2,1.4,3,1.9,4.1c-0.1,11.7,0.4,23.5-0.9,35.2c-0.2,1.9,1.7,3.8,0,5.6
			C290.6,104.6,290.3,104.3,290,103.9z"/>
		<path class="st45" d="M288.3,55.1c-4.1,1.8-4.5,5.9-6.2,10.7c-0.5-2.2-0.7-3.3-0.9-4.4c0.5-3.2,1.2-6.2,4.8-7.3
			C286.9,54,288.1,53.4,288.3,55.1z"/>
		<path class="st46" d="M279,91c1,3,2,6,3,9c-2.9,1.5-6.4,5.1-6.8-2.1c-0.1-1.7-2.1-1.6-3.5-2c-9.2-2-18.6-1.2-27.8-1.9
			c-2.3-0.2-4.6-0.5-6.8-1.1c0-4,0-8,0-12c4.9-2.8,9.8-0.5,14.4,0.4c4.8,0.9,9.5,0.3,14.2,0.8c2.8,0.3,5.1,0.3,6.9,2.7
			C274.3,87.4,277,88.8,279,91z"/>
		<path class="st47" d="M283,103c3,0.3,2.8-1.2,2-3.3c-1.7-4.6-1.1-9.3-0.1-14c1,6.2,3.3,12.1,3,18.4C286,105.1,284.2,105.5,283,103
			z"/>
		<path class="st48" d="M55.9,57c-0.3,3-0.6,6-0.9,9c-1.5,10.5-5.1,13.2-15.7,11.7c-4-0.6-7.9-0.7-11.7,1.3c-1.4,0.7-3.1,1.1-4.3,0
			c-2.7-2.4-5.5-1.4-8.4-0.6C6.7,75,4,63.8,10,58c3.8,1.6,7.8,2.3,12,2c7-2.6,14.1-2.3,21,0.2c1.7,0.6,2.7-2,4-0.1
			C50.9,61.7,53.5,59.5,55.9,57z"/>
		<path class="st49" d="M10.1,58c-3.6,8.6-2,15,5,20c0,2.9-1.8,3-4,2.5c-3.5-3.1-3.5-3.1-4.3-6.4c0.8,3.8,0.5,7.6,0.6,11.4
			c0.1,2,0,3.9-1.1,5.6c-0.1,2.4-0.3,4.7-0.4,7.1c-1.6-0.3-2.1-1.7-2.2-3c-0.2-8.1-0.5-16.3,0.2-24.4c0.1-0.7,0.5-1.2,1-1.7
			c0-4.1,0-8.2,0.1-12.4c0-1.5-0.6-3.5,2-3.7C8.1,54.7,9.1,56.4,10.1,58z"/>
		<path class="st50" d="M47,60.1c-2.6,1.9-5.1,0-7.7,0c-5.7,0-11.5,0-17.2,0c-1.6-2-5.3,0.2-6.3-3.7c7.3,0,14.4-0.4,21.6,0.2
			c3.1,0.2,6.3,0.3,9.4,0.6c1.1,0.1,2.7-0.5,2.8,1.2C49.7,59.7,48.2,59.9,47,60.1z"/>
		<path class="st19" d="M280.8,60c-0.2,0.3-0.5,0.5-0.6,0.8c-0.4,3.1,0.7,6.6-5.3,4.7c-3.1-1-7.6,1.7-11.1,3.4
			c-2.5,1.2-4.5,2.2-7.4,1.3c-2-0.7-4.5-0.4-5.9,1.5c-1.5,2.1,0.6,3.6,1.5,5.3c-5.5,3.6-10.3,1-14.9-2c0-3.9,0-7.8-0.1-11.7
			c-0.1-2.2,0.7-3.4,3.1-3.3c0.8-0.9,1.9-1.1,3-1.3c3.3-0.3,6.6,0.4,9.9-0.7c0.6-0.2,1.1-0.3,1.7-0.3c4.1-0.2,8.1-0.1,12.2-0.6
			c1.7-0.2,3.6-0.4,5.1,0.9c2.1,0.1,4.3,1,6.2-0.2C281.9,55.4,280.8,58.4,280.8,60z"/>
		<path class="st51" d="M272,58c-6-0.1-11.9,1.7-18,1c1.4-3.2,4.3-0.2,5.7-1.5c1.2-0.1,0.3-1.2,0.6-0.5c0.1,0.2,0,0.3-0.3,0.3
			c-2.7,0.2-5.4,1-8.1-0.3c6.1-1.9,12.4-0.6,18.7-0.7C271.5,56.2,271.9,57.2,272,58z"/>
		<path class="st52" d="M252,56.9c2.9,0,5.8,0,9.5,0c-2.7,2-5.6,0-7.5,2.1c-0.3,0-0.7,0.1-1,0.1c-3.3,1.1-6.8-0.4-10,0.9
			c-1,0-1.9,0-2.9,0c-0.4-0.7-0.7-1.4-1.1-2.1C243.2,56.3,247.7,57.4,252,56.9z"/>
		<path class="st24" d="M5,69.1c0.9,9.7-0.3,19.4,1,29.1c0,1.5,0,3,0,4.5c-0.3,1.1-0.6,2.1-0.9,3.2c-2.8-2.7-2.4-6.5-2.6-9.8
			C1.7,85.4,1.8,74.7,3.3,63.6C3.9,65.7,4.4,67.4,5,69.1z"/>
		<path class="st53" d="M11.1,80c1.7,0.1,3.2-0.2,4-2c2.6-2.4,5.2-3.5,8.1-0.4c1.3,1.4,2.7,1.5,3.9,0.4c3.3-2.9,7.3-2.2,10.9-1.8
			c12.2,1.2,13.2,0.7,16.9-10.1c-0.2,6.3-1.4,12.6-0.9,19c-2,3.5-5.1,4.8-8.9,4c-7-1.6-13.3-0.9-19.2,3.7c-3,2.4-6.5,1.7-8.7-1.5
			c-1.8-2.7-3.3-5.7-6.1-7.6C10.1,82.8,10,81.2,11.1,80z"/>
		<path class="st54" d="M11.1,80c3.1,4.2,5.9,8.5,9.4,12.4c1.5,1.6,4,0.4,5.4-1c5.6-5.3,12.1-5.9,19.1-3.7c3.7,1.2,6.2-1.5,9.1-2.8
			c0,0.3,0,0.7,0,1s0,0.7,0,1c-1.8,6.5-3.3,7.2-10.2,6.7c-6.1-0.4-12.2-0.2-18.1,1.3c-5.8,1.5-10.5,0.1-13.6-5
			c-1.5-2.4-3.4-3.9-5.8-5c0-4,0-7.9,0-11.9C6.9,76.1,10.7,76.8,11.1,80z"/>
		<path class="st55" d="M237.1,75c5,0.8,9.7,3.6,14.9,2c0.3,0,0.7,0,1,0c6.9-1,13.7,0.7,20.5,0.7c1.9,0,3.7,0.3,4.5,2.3
			c0,3.7,1.6,7.2,1,11c-3.5-0.4-5.5-2.9-7.6-5.2c-0.6-0.7-1.4-2.3-1.8-2.2c-4.4,1.3-8.9-1.4-13.2,0c-1,0.3-1.7,0.8-2.6,0.3
			c-5.3-2.9-11.1-2.5-16.8-2.9C237.1,79,237.1,77,237.1,75z"/>
		<path class="st21" d="M6.2,85c3.7-2,5,0.8,6.4,3.2c3.5,6.1,6.7,7.4,13.2,5.4c5.8-1.8,12.2-2.2,17.9-1.2c5.8,1,8.3-1.1,10.4-5.4
			c-0.5,9.4-2.1,9.9-11.7,9.5c-5.2-0.2-10.7-1.3-16,0.2c-4.8,1.3-9.5-1-14.3-1c-1.2,0-1.8-1.3-1.9-2.6c-0.3-2.5-2.1-2.1-3.8-2
			C6.3,89.1,6.3,87,6.2,85z"/>
		<path class="st56" d="M525.7,82.8c-4.9,0-9.7,0-14.6,0c0-0.2,0-0.4,0-0.5c4.9,0,9.8,0,14.6,0C525.7,82.5,525.7,82.7,525.7,82.8z"
			/>
		<path class="st7" d="M349,59c2.7,0,5.3,0,8,0c-1.1,2.4-2.4,4.4-1,7.4c1.2,2.5-0.4,5.7-2.5,6.9c-2.2,1.2-5.4,2.1-8,0.9
			c-1.9-0.9-1.6-3.4-1.5-5.4c0.1-1.1,0.6-2.4,1.5-2.3C353.9,67.3,349.5,62.3,349,59z"/>
		<path class="st7" d="M341.6,80.4c-1.4-0.4-1.6-1.5-1.5-2.7s0.8-1.8,2-1.5s2,1.2,1.8,2.5C343.6,79.9,342.6,80.2,341.6,80.4z"/>
		<path class="st7" d="M341.2,70.5c0.2,0.7,0.2,1.4-0.7,1.4c-1.6,0-2.4-1-2.3-2.5c0-0.9,0.5-1.8,1.4-1.6
			C341,67.9,340.8,69.4,341.2,70.5z"/>
		<path class="st19" d="M278,80c-4.5-2.4-9.6-1.2-14.3-2c-3.5-0.6-7.3,1.1-10.7-1c3.5-2.6,7-2.6,11.2-1.2c4.1,1.4,8.7,1.4,13.2,1.3
			C280.8,77,280.2,78.5,278,80z"/>
		<path class="st22" d="M243,60c3.2-1.7,6.7-0.7,10-0.9C249.8,60.9,246.3,59.7,243,60z"/>
		<path class="st57" d="M22.5,79.2c-2.4,0-4.1-0.2-5.7,0.6C18,77.5,19.5,75.9,22.5,79.2z"/>
	</g>
</g>
</svg>
