<?xml version="1.0" encoding="utf-8"?>
<!-- Generator: Adobe Illustrator 25.0.0, SVG Export Plug-In . SVG Version: 6.00 Build 0)  -->
<svg version="1.1" id="Camada_1" xmlns="http://www.w3.org/2000/svg" xmlns:xlink="http://www.w3.org/1999/xlink" x="0px" y="0px"
	 viewBox="0 0 446 169" style="enable-background:new 0 0 446 169;" xml:space="preserve">
<style type="text/css">
	.st0{fill:#FDFDFD;}
	.st1{fill:#4F5546;}
	.st2{fill:#3E4336;}
	.st3{fill:#4C5243;}
	.st4{fill:#404639;}
	.st5{fill:#34392E;}
	.st6{fill:#34382D;}
	.st7{fill:#2A2C22;}
	.st8{fill:#1D1F1B;}
	.st9{fill:#1F2019;}
	.st10{fill:#0C0D0A;}
	.st11{fill:#121311;}
	.st12{fill:#3F4231;}
	.st13{fill:#1B1C16;}
	.st14{fill:#393C35;}
	.st15{fill:#1C1E17;}
	.st16{fill:#1B1D18;}
	.st17{fill:#3B3E30;}
	.st18{fill:#1C1F19;}
	.st19{fill:#181914;}
	.st20{fill:#1E211B;}
	.st21{fill:#393D30;}
	.st22{fill:#171813;}
	.st23{fill:#1D201A;}
	.st24{fill:#707674;}
	.st25{fill:#565C56;}
	.st26{fill:#383C30;}
	.st27{fill:#42473D;}
	.st28{fill:#838985;}
	.st29{fill:#CACFCE;}
	.st30{fill:#C8CDCE;}
	.st31{fill:#888E8E;}
	.st32{fill:#8F9590;}
	.st33{fill:#8E9684;}
	.st34{fill:#6F7571;}
	.st35{fill:#1E201B;}
	.st36{fill:#36392C;}
	.st37{fill:#37392D;}
	.st38{fill:#1B1E18;}
	.st39{fill:#CBD0D1;}
	.st40{fill:#CBD0D0;}
	.st41{fill:#737A73;}
	.st42{fill:#AAB0AF;}
	.st43{fill:#6E756B;}
	.st44{fill:#696F6D;}
	.st45{fill:#B2B8B6;}
	.st46{fill:#3E4233;}
	.st47{fill:#171914;}
	.st48{fill:#575C55;}
	.st49{fill:#2E3026;}
	.st50{fill:#3D4234;}
	.st51{fill:#6C726B;}
	.st52{fill:#080805;}
	.st53{fill:#2A2B20;}
	.st54{fill:#BEC3C3;}
	.st55{fill:#858B89;}
	.st56{fill:#8B918F;}
	.st57{fill:#191B16;}
	.st58{fill:#4E544B;}
	.st59{fill:#141510;}
	.st60{fill:#4D524A;}
	.st61{fill:#3D4135;}
	.st62{fill:#7D837A;}
	.st63{fill:#7B827B;}
	.st64{fill:#3E4337;}
	.st65{fill:#747B73;}
	.st66{fill:#899082;}
	.st67{fill:#50554C;}
	.st68{fill:#ADB3B2;}
	.st69{fill:#626767;}
	.st70{fill:#1B1D17;}
	.st71{fill:#090A07;}
	.st72{fill:#717776;}
	.st73{fill:#050503;}
	.st74{fill:#535952;}
	.st75{fill:#626861;}
	.st76{fill:#6A6F6D;}
	.st77{fill:#6C716E;}
	.st78{fill:#9EA4A3;}
	.st79{fill:#2E3126;}
	.st80{fill:#52584F;}
	.st81{fill:#BCC1BE;}
	.st82{fill:#696F69;}
	.st83{fill:#C4C9C9;}
	.st84{fill:#585E55;}
	.st85{fill:#040402;}
	.st86{fill:#565C4D;}
	.st87{fill:#727872;}
	.st88{fill:#404437;}
	.st89{fill:#878D8B;}
	.st90{fill:#2B2E27;}
	.st91{fill:#52584A;}
	.st92{fill:#2D3025;}
	.st93{fill:#5A6057;}
	.st94{fill:#404536;}
	.st95{fill:#43473A;}
	.st96{fill:#595F57;}
	.st97{fill:#828786;}
	.st98{fill:#878D8C;}
	.st99{fill:#A7ADAA;}
	.st100{fill:#565C55;}
	.st101{fill:#7F8583;}
	.st102{fill:#878C8B;}
	.st103{fill:#858B88;}
	.st104{fill:#50564C;}
	.st105{fill:#7B817E;}
	.st106{fill:#707672;}
	.st107{fill:#8F9594;}
	.st108{fill:#797F7A;}
	.st109{fill:#020200;}
	.st110{fill:#4F4E31;}
	.st111{fill:#595E56;}
	.st112{fill:#625729;}
	.st113{fill:#63582B;}
	.st114{fill:#57512D;}
	.st115{fill:#544E2B;}
	.st116{fill:#544F2B;}
	.st117{fill:#5A522A;}
	.st118{fill:#5A532C;}
	.st119{fill:#57522E;}
	.st120{fill:#564D22;}
	.st121{fill:#564D24;}
	.st122{fill:#5D542A;}
	.st123{fill:#585D56;}
	.st124{fill:#777D7B;}
	.st125{fill:#61582D;}
	.st126{fill:#695B26;}
	.st127{fill:#7B817B;}
	.st128{fill:#5F562C;}
	.st129{fill:#35382C;}
	.st130{fill:#383D31;}
	.st131{fill:#525744;}
	.st132{fill:#292C29;}
	.st133{fill:#515749;}
	.st134{fill:#757A78;}
	.st135{fill:#393E31;}
	.st136{fill:#4F5442;}
	.st137{fill:#505648;}
	.st138{fill:#2C2E24;}
	.st139{fill:#808684;}
	.st140{fill:#434839;}
	.st141{fill:#2E3227;}
	.st142{fill:#1F221C;}
	.st143{fill:#191B17;}
	.st144{fill:#383A2E;}
	.st145{fill:#A8AEAC;}
	.st146{fill:#737975;}
	.st147{fill:#070704;}
	.st148{fill:#0B0B07;}
	.st149{fill:#3A3E30;}
	.st150{fill:#5F531E;}
	.st151{fill:#2F3327;}
	.st152{fill:#060603;}
	.st153{fill:#242314;}
	.st154{fill:#292D29;}
	.st155{fill:#29291B;}
	.st156{fill:#191B15;}
	.st157{fill:#3B3F30;}
	.st158{fill:#313328;}
	.st159{fill:#271707;}
	.st160{fill:#2C3027;}
	.st161{fill:#35372B;}
	.st162{fill:#636959;}
	.st163{fill:#7C856F;}
	.st164{fill:#565C53;}
	.st165{fill:#4E5348;}
	.st166{fill:#5C6257;}
	.st167{fill:#303328;}
	.st168{fill:#141512;}
	.st169{fill:#1C1E18;}
	.st170{fill:#ABB1AF;}
	.st171{fill:#646A64;}
	.st172{fill:#333324;}
	.st173{fill:#818785;}
	.st174{fill:#363F3A;}
	.st175{fill:#262A27;}
	.st176{fill:#484D41;}
	.st177{fill:#373C2F;}
	.st178{fill:#9BA689;}
	.st179{fill:#828B71;}
	.st180{fill:#949F82;}
	.st181{fill:#34382C;}
	.st182{fill:#61572D;}
	.st183{fill:#757D65;}
	.st184{fill:#60572E;}
	.st185{fill:#57512E;}
	.st186{fill:#57502B;}
	.st187{fill:#5D552E;}
	.st188{fill:#645829;}
	.st189{fill:#655A2C;}
	.st190{fill:#7E876E;}
	.st191{fill:#63592C;}
	.st192{fill:#9AA588;}
	.st193{fill:#899378;}
	.st194{fill:#6D5C24;}
	.st195{fill:#484D3D;}
	.st196{fill:#494E4F;}
	.st197{fill:#5B6150;}
	.st198{fill:#6A715F;}
	.st199{fill:#5B6153;}
	.st200{fill:#282B22;}
	.st201{fill:#25281E;}
	.st202{fill:#F3F5F4;}
	.st203{fill:#6A7069;}
	.st204{fill:#A6ACA8;}
	.st205{fill:#6E746F;}
	.st206{fill:#3C413F;}
	.st207{fill:#393011;}
	.st208{fill:#989E9B;}
	.st209{fill:#616764;}
	.st210{fill:#884605;}
	.st211{fill:#DE840C;}
	.st212{fill:#4D2703;}
	.st213{fill:#3F4536;}
	.st214{fill:#414738;}
	.st215{fill:#424738;}
	.st216{fill:#18160F;}
	.st217{fill:#504621;}
	.st218{fill:#7F886E;}
	.st219{fill:#585E5A;}
	.st220{fill:#5F655E;}
	.st221{fill:#A95A07;}
</style>
<g>
	<path class="st0" d="M223,0.1c73,0,145.9,0,218.9-0.1c3.4,0,4.1,0.7,4.1,4.1c-0.1,53.6-0.1,107.2,0,160.8c0,3.4-0.7,4.1-4.1,4.1
		C296,168.9,150,168.9,4.1,169c-3.4,0-4.1-0.7-4.1-4.1C0.1,111.3,0.1,57.7,0,4.1C0,0.7,0.7,0,4.1,0C77.1,0.1,150,0.1,223,0.1z"/>
	<path class="st1" d="M109.8,5.9c7.6-1.8,15.4-0.5,23.1-0.6c8-0.2,16.2,0.7,24.1,0.5c30.6-0.9,61.1-0.9,91.7-0.5
		c24.6,0.3,49.3-0.1,73.9,0.2c27,0.3,54.1-0.2,81.1-0.3c9.8,0,19.5-0.3,29.3,0.9c0.2,0,0.5,0,0.7,0.1c1.3,0.5,2,1.4,1.3,2.9
		c-1.2,2.3-3.1,3.3-5.7,3.4c-7.5,0.2-15-0.2-22.5-0.2c-2.1,0.2-4.2,0.3-6.2,0c-3.8-0.5-7.5,1.3-11.3,0.4c-12.9-1.2-25.8-1-38.7-0.2
		c-2.6,0.2-5.3,0-7.9-0.5c-1.6-0.5-1.5-3.7-3.8-2.4c0.7,0.3,2.5-0.3,2.2,1.8c-2.8,1.2-6.6,1.2-7.2,5.4c-1.1,0.8-2.2,1.3-3.6,0.8
		c-1.6-4.5-4.9-5.1-9.3-5c-21,0.5-41.9,0.1-62.9-0.2c-28.9-0.4-57.8,0.6-86.7,0c-16.6-0.3-33.2,0.7-49.8,0.3
		c-3.5-0.1-4.9,1.1-4.2,4.7c0.9,4.9-1,9.9,1.1,14.7c1.4,1.1,3.3,0.8,4.8,1.7c1.7,1.7,1.2,2.8-0.9,3.4c-1.9,0.6-3.8,0.1-5.7,0.7
		c-1.1,0.5-1.5,1.6-2.3,2.4c-1.3,0.6-2-0.5-2.9-1c-3-1-6.3,0.8-9.1-1.4c-1.2-0.8-2.8-1.2-2.6-3.2c1.6-2.4,4.1-1.6,6.3-1.8
		c0.5,0,0.9,0,1.4,0c1.2-0.1,2.9,0.9,3.3-1.2c0.7-2.9,0.9-5.8,0.2-8.6c-0.1-0.5-0.1-0.9-0.1-1.4c-0.8-3,1.8-6.7-2.1-9
		c-0.9-0.2-1.8-0.4-2.6-1c-1.5-4.4,2.8-2.6,4.2-4c0.3-0.3,1-0.2,1.1-0.9c-0.5,0.1-1,0-1.3-0.3C109.9,6.2,109.9,6,109.8,5.9z"/>
	<path class="st2" d="M183,164.9c-1.3,0-2.7,0-4,0c-0.7-0.7,1.7-2.6-1.3-2.5c-3.1,0.1-6,0.3-9.1,0.7c-4.5,0.6-9.3-0.7-13.8-2.1
		c-2.5-1.4-5.4-0.5-7.1-1.5c-0.2,0,0.4,0,0.7,0.6c0.3,3.6-1.4,5-4.7,3.8c-2.3-0.8-5.8,0.6-6.8-3.2c0.6-0.7,1.5-1,1.2-0.9
		c-6.3,0.1-13.7,1.7-21.1-0.7c-0.3-1.1-0.4-2.2-0.7-3.3c-1.7-5.3-0.3-7.1,5.1-8.1c5.1-0.9,10.2-1.2,15.3-1.3
		c5.9-0.1,11.4-3.6,17.5-2.7c1.1,0.2,2.3-0.2,3.5,0c1.5,0.2,3.3,0.2,3.5,2c0.2,2-1.6,2.1-3,2.5c-0.3,0-0.7,0-0.9,0.1
		c-0.5,0.2-0.4,0.2,0.1,0.4c1.9,0.7,6.1-0.7,3.7,4c-4.1-0.1-8.2,0.2-12.3,0c15.9-0.3,31.8-0.2,47.7-0.2c2.1,0,4-0.4,5.3-2.3
		c2.4-3.1,5.4-1.6,8.2-0.9c9.7,2.6,19.3,0.9,29-0.2c0.7-0.1,1.2-0.5,1.6-1.1c1.5-3.2,3.4-4,5.9-1c0.9,1.4,1.8,2.8,1.9,4.6
		c3.4,1.5,7.1,0.7,10.6,0.8c12,0.3,23.9,0.1,35.9,0.1c2.7,0,5.4,0.2,6.3-3.4c0.4-1.8,2.3-2.4,4-2.5c6-0.5,11.9-0.1,17.9,0.2
		c0.7,0-0.2-0.1,0.5,0.1c3.7,1,4.9,3.6,4.7,7.1c-0.2,3.9-3,3.4-5.8,3.4c2.3,0.2,4.3-0.3,6.2,0.2c1.1,0.5,2.3,1,3.3,1.9
		c0.9,2-0.8,2.2-1.9,2.5c-1.7,0.5-3.5,0.6-5.1,1.5c-0.7,0.2-1.5,0.2-2.2,0.1c-1.5-0.7-3.9-0.3-3.7-3c1.7-2,4-0.8,6-1.3
		c-5,0.6-10,0.6-14.8,2.1c-4.3,1.6-8.8,0.8-13.2,1.2c-1,0.1-1.9-0.4-2.3-1.5c0.3-1.6,1.1-1.9,2-1.6c-4.7-0.3-10,0-14.4-0.2
		c2.5,0.2,5.8-0.1,9,0.1c1.2,0.1,2.8-0.7,3.1,1.5c-1.7,1.7-4,1.3-6.1,1.4c-10.7,0.3-21.5,0-32.2,0.6c-3.8,0.2-7.6-0.3-11.1-1.8
		c-2.5-2.7-5.6-1.5-8.5-1.5c-0.7,0.3,0.2,0.9-0.1,0.3c-0.1-0.2,0-0.4,0.3-0.4c2.3,0.1,4.8-1.1,6.8,0.9c-0.3,1.6-1.5,2.3-2.9,2.1
		c-4.3-0.5-8.7-0.1-12.8-1.7c-2.4-2.6-5.7-0.7-7.5-1.4c0.8,0,2.6-0.1,4.4,0c1,0.1,2.1,0.2,1.5,1.7c-1.1,0.9-2.4,1.1-3.8,1.1
		c-7.7-0.3-15.5,0.3-23.2-1c-3.5-1.2-7.1-1.9-10-1.9c0.3,0,1.4,0.1,2.6,0.1c1.5,2.5-0.9,2.2-1.9,2.5
		C187.2,162.6,184.8,163.1,183,164.9z"/>
	<path class="st3" d="M11.1,4c1.4,0.6,2.4,1.6,4.4,1.6C36.4,5,57.3,5.1,78.2,5.4c9,0.1,18,0.3,27.1-0.3c1.1-0.1,2.3-0.6,3.1,0.8
		c-2.4,2-5.1,3.6-7.3,5.8c-4.4,2-8.9,0.1-13.3,0.1c-14.1,0.1-28.3,0.5-42.4,0.5c-0.5,0-1,0-1.5,0c-8.4-0.5-16.8-1-25.2,0
		c-6.3,0.8-9.2,4.8-7.7,11c0.5,1.8,0.4,3.6,0.4,5.4c0,1.7-0.3,3.4-0.7,5.1c-0.2,1.4,0.1,2.8,0,4.2c-1.8,3.2,1.1,6.3,0.3,9.4
		c-0.4,1.8,0.5,3.6,0,5.3c-0.2,0.7-0.6,1.2-1.1,1.7c-2.6,2.3,0,3.9,0.8,5.8c0.8,3.8,1.3,7.5-0.4,11.2C10,72.2,10,73,10.2,73.9
		c1.7,9.2,1.4,18.3,0.2,27.6c-0.5,4.3,0,9.1,0.5,13.7c0.4,3.5,0.3,6.9-0.1,10.4c0.6,1.6-2.6,1.3-1.5,3.6c1.2,2.4,2.8,1,4.2,1.3
		c2.5,0.4,5.5-0.7,7,2.5c-1,2.8-4.3,1.4-5.9,3.2c-3,0.6-3.8,2.5-3.5,5.3c0.3,2.9,0.3,5.8-0.2,8.7c-1.9,2.1-1.8,3.8,0.9,5
		c1.1,0.5,1.9,1.2,2,2.5c0,0.5-0.2,0.9-0.5,1.2c-2.7,0.9-5.6,0.5-8.4,1.2c-0.6-0.3-1.2-0.7-0.7-1.5C1.6,147,3.1,135.3,3,123.7
		C2.7,90.9,2.8,58.1,2.8,25.3c0-4.7,0.8-9.5,1.2-14.2c0.2-2.8,2.2-3.8,4.4-4.8C9.5,5.9,10,4.7,11.1,4z"/>
	<path class="st4" d="M429.8,11.2c2.7,0.6,3.2-2.3,5.1-3.1c1.6,1.8,2.8-0.5,4.2-0.4c1.4,0.3,1.8,1.3,2,2.5c-0.4,0.3-1.2,0.8-1.2,0.8
		c5.2,8.8,2.5,18.2,2.6,27.5c0.2,12.8,0.4,25.6,0.5,38.4c0,20.2-0.1,40.4-0.2,60.6c0,6.5,0.6,13.1-0.9,19.6
		c-0.4,1.5,1.1,2.3,1.9,3.3c1,1.2,0.9,2.1-0.7,2.6c-2,0.7-3.2-0.7-4.5-1.8c-0.2-0.3-0.3-0.6-0.4-0.9c-0.3-1,0.2-1.8,0.4-2.7
		c-0.5,0.6-0.8,1.3-1.4,1.9c-2.8,2.6-9.5,2.5-12.3-0.2c-0.4-0.3-0.3-0.9,0-1.4c0.8-0.9,2-1.1,3.1-1.3c5.6-0.8,6.2-1.6,6.5-7.1
		c0.2-4.1-0.4-8.2,0.4-12.2c1.1-2.3-1.7-4.4-0.5-6.7c0.4-17.4-0.1-34.8,0.1-52.2c0.2-13.2-0.3-26.4,0.8-39.6
		c-0.1-0.7,2.4-1.2,0.1-2.2c-1.3-0.6-1-1.9-0.8-3.1c0.5-3.6,0-7.2,0.3-10.8C435.3,17.9,432.9,14.4,429.8,11.2z"/>
	<path class="st5" d="M5,160c2.5-1.8,5.1-2.1,8-1.1c5.2-0.9,10.4-0.2,15.6-0.4c3.6,0.2,7.1,0.6,10.7,0c7.2,0.1,14.4-0.1,21.7-0.4
		c8.4,1.1,16.8,0.6,25.2,0.7c5.2,2.1,10.6,1.7,15.9,1c11.7-0.9,23.4-1.1,35.1,0.7c2,2.8,5.7,0.9,8.3,2.9c1.3,1,2.1-1.8,2.6-3.3
		c2.3-1.4,4.7-0.9,7-0.3c4,2,8.6,1.1,12.8,2.3c1.9,0.5,6.1-1.4,9.4-1.2c2.8,0.1,3.8,1.4,1.8,3.9c-17.4,0.1-34.9,0.3-52.3,0.3
		c-34.4,0-68.8,0-103.2,0c-3.8,0-7.6-0.3-11.4-0.5C8.7,164.7,5.6,164.2,5,160z"/>
	<path class="st5" d="M294.9,160.7c5,0.4,10,0.9,14.9-0.8c2.2,0.6,4.3,0.5,6.5-0.3c0.9-0.3,2.7-1,2.6,1.3c0.8,1.7,3.2,0.4,4,2
		c0.6,0.7,0.6,1.4,0,2.1c-20.8,0.1-41.7,0.2-62.5,0.2c-4.1,0-8.3-0.2-12.4-0.3c-5.4-1-10.7-1-16.1,0c-0.3,0-0.6,0-0.9,0
		c-3.5-1.2-7.2-0.6-10.8-0.5c-10.7,0.2-21.5-0.7-32.2,0.5c-1.7,0-3.3,0-5,0c-0.2-3.4,2.6-3.4,4.7-3.9c1.4-0.3,3,0.3,4.3-0.8
		c2.4-1.5,4.8-0.2,7.2-0.2c5.4,2,10.9,0,16.4,0.9c3.4,0.6,6.9,0.1,10.4,0c0.5-0.7,1.4-0.4,2-0.9c5,0.6,9.9,1.9,15,1
		c0.5-0.8,1.5-0.5,2.2-1c5.6,2.3,11.4,1.5,17.3,1.3c10.5-0.3,21-0.3,31.6-0.4C294.3,160.5,294.6,160.5,294.9,160.7z"/>
	<path class="st6" d="M424.6,158.8c8.6,3,11.3,2.2,14.6-4c3.6,2.2-1.7,4-0.3,6.1c0.4,2.5-1.7,3.5-3,5c-1.4-0.9-2.8-1.2-4.6-1.1
		c-26.5,1-52.9,0.6-79.4,0.2c-2.1-1.7-4.7-0.9-7.1-1.1c-1.9-0.2-4.1,0.4-4.6-2.4c0-0.9,0.4-1.6,1.1-2c0.7-0.3,1.5-0.4,2.2-0.3
		c2,0.7,4,1.2,6.2,0.8c6.6-1.4,13.4-0.8,20.1-1.2c10,0.9,20,1,30,0.2c6.1-0.2,12.1-0.2,18.2-0.6
		C420.3,158.5,422.5,157.4,424.6,158.8z"/>
	<path class="st7" d="M340.8,160.5c0.3,3,2.7,2.3,4.6,2.5c2.3,0.2,5.1-1,6.6,2.1c-9.7,0-19.3,0-29,0c0-0.7,0-1.4,0-2.1
		c0.7,0,1.3,0,2,0c5-0.2,9.3-3.5,14.5-3.1C339.9,159.9,340.4,160.1,340.8,160.5z"/>
	<path class="st8" d="M441.1,10.2c-0.8-0.7-1.6-1.4-2.4-2c-2.3,0.3-3.8-1.6-5.8-2.2l0,0c0.6-2.5,2.7-4.9,4.3-4.7
		c2.3,0.4,4.6,2.6,6,4.7C444.3,7.5,442.4,9.1,441.1,10.2z"/>
	<path class="st9" d="M188,164.9c0.8-1.1,2-1,3.2-1c12.2,0,24.5,0,36.7,0c1.2,0,2.3,0,3.1,1.1C216.7,165.4,202.3,165.5,188,164.9z"
		/>
	<path class="st10" d="M5,160c1.6,2.7,4.6,3.4,7,4.8c-3.5,3-9.9,1.2-10.6-3c-0.2-1.3,1.1-2.5,2.6-3C4.4,159.2,4.7,159.6,5,160z"/>
	<path class="st11" d="M8.9,7.1C7.3,8.5,5.6,9.9,4,11.3c-6.2-4.5,0.9-5.6,2.1-8.2C8.9,3.1,8.8,5.1,8.9,7.1z"/>
	<path class="st12" d="M101,11c1.5-3.1,3.7-5.2,7.3-5.1c0.5,0,0.9,0,1.4,0c0.8,0.6,2.8-0.5,2.3,1.3c-0.3,1.1-0.9,3-3,2.3
		c-1.6-0.5-2.9-0.7-3.1,1.5C104.4,11.7,102.7,11.8,101,11z"/>
	<path class="st13" d="M435.9,165.9c-0.7-2.7,2.3-3.1,3-5c1.9-0.2,2.7,1.6,4.2,2.1C440.8,164,440.8,171,435.9,165.9z"/>
	<path class="st14" d="M8.9,7.1C8,5.8,7,4.4,6.1,3.1c2.2-2,3.6-0.6,5.1,1C11.2,5.7,11,7.1,8.9,7.1z"/>
	<path class="st15" d="M232,165c5.4-1.8,10.7-1.7,16.1,0C242.7,165.4,237.3,165.4,232,165z"/>
	<path class="st16" d="M117.1,34.1c-1.5-1.1-0.9-2.7-1-4.1c-0.1-3.7-0.1-7.3-0.1-11c-0.2-7.9-0.2-7.7,8-7.9
		c11.7-0.3,23.4,0.1,35.1-0.7c7.7-0.5,15.5,1,23.2,0.8c11.6-0.2,23.1-0.1,34.7-0.3c10.1-0.2,20.1,0.2,30.2,0.2
		c9.8,0,19.6-0.3,29.4-0.3c17.1,0,34.1,0.2,51.2,0.3c1.9,0,2.8,0.3,2.3,2.5c-0.3,1.2-0.5,2.7,1,3.6c0.3,0.4,0.4,0.8,0.4,1.2
		c-0.3,2,0.3,3.8,1.3,5.6c0.5,1.7,0.5,3.3-0.3,4.9c-0.5,0.8-1,1.6-1.2,2.6c-0.9,4.1-1.7,4.4-5.8,2.3c-0.3-1.3-0.1-2.7-0.1-4
		c0-2.6-1.2-4-3.9-4.1c-7.4-0.4-14.8-1.2-22.4-0.5c-11.9,1.1-23.9,0.3-35.8-0.3c-3.5-0.2-7-0.4-10.4,0.3c-3.7,0.8-7.3-0.1-10.9-0.6
		c-6.5,1.6-13,2.2-19.8,1.1c-4.9-0.8-9.9-1.4-14.8,0.5c-1.3,0.5-2.8,0.5-3.8-0.4c-3.1-2.7-6.4-2-9.9-1c-2.6,0.8-5.3,0.8-7.9,0.7
		c-13.6-0.3-27.3,0.2-40.9-0.4c-6.6-0.3-13.3,0-19.9-0.2c-3.8-0.1-6.6,1-6.6,5.5C118.4,31.8,118,33,117.1,34.1z"/>
	<path class="st17" d="M117.1,34.1c0-10.9,0-10.2,11.5-10.4c5.2-0.1,10.6,2.2,16-0.8c1.2-0.7,4.3,1.3,6.8,1.3
		c10.8-0.1,21.6-0.1,32.4-0.1c4.1,0,8.2,0.2,12.3-1.4c2.4-0.9,5.1-1.4,7.2,1.3c0.7,0.8,1.8,2,3.5,1.2c6.9-3.3,13.9-1.3,20.8-0.2
		c5.1,0.8,9.8-1.4,14.7-1.9c3.5,2.3,7.2,1.8,10.9,0.9c4.3-2.3,8.7-0.6,13-0.4c14.3,0.4,28.6,0.7,42.9-0.5c5-0.4,9.8,1.5,14.8,1
		c2.3-0.2,3.2,1.3,3.2,3.5c0,2.1,0.3,4.3-0.9,6.3c0,1-0.3,1.9-1.1,2.5c-6.1-0.5-12.2-0.4-18.4-0.1c-6.1-0.5-12.2-2.6-18.1,0.8
		c-6.4-0.1-12.8,1.1-19.1-0.2c-2-0.4-3.4,0.7-4.8,1.9c-1.5,0.6-3,0.5-4.5-0.1c-1.7-0.8-3.4-1.4-5.3-1.2c-8,0.7-16.1-0.4-24.2,0.7
		c-2.2,0.3-4.3-0.2-6.4-0.7c-5.7-0.6-11.3-0.8-17,0.4c-0.4,0.3-0.8,0.5-1.2,0.7c-0.9,0.4-1.9,0.5-2.9,0.3c-0.5-0.1-0.9-0.3-1.3-0.5
		c-2.2-1.6-4.8-1.1-7.2-0.9c-2.6,0.2-4.9,0.3-7.1-1.2c-1.4-0.9-2.8-0.8-4.1,0.4c-1.6,1.3-3.8,1-5.6,1.7c-0.5,0-0.9-0.1-1.4-0.3
		c-5.1-1.6-10.1-1.8-15.5-1.2c-6.9,0.8-13.9,0.1-20.8,0.5c-6.1,0.3-11.7-0.3-16.9-3.3C121.1,34.1,119.1,34.1,117.1,34.1z"/>
	<path class="st18" d="M10.2,53c0.3-1.7-1-3.3-0.1-5s0.6-3.5,0.2-5.3c-0.7-3.5,1.1-4.8,4.3-5c3.8-0.3,7.6,0.5,11.3-0.7
		c5.7-1.3,11.5,0.1,17.2-0.3c4.7-0.1,9.3-0.2,14,0c2.3-0.1,4.5-0.1,6.7,0.4c4.7,0.9,9.3,1.2,13.9-0.3c8.5-0.3,17-0.6,25.4,0.5
		c2.8,1.9,6-0.8,8.9,0.8c2.1,5.4,0.7,11.1,1.3,16.6c0.3,2.4-0.1,4.9,0.9,7.3c1.7,6.9,0.6,13.8,0.4,20.7c-0.3,9.8-0.4,19.6-0.1,29.4
		c0.1,4.9,0.3,9.7-0.1,14.6c-0.4,1.2-0.9,2.4-1.2,3.7c-1.2,3.9-2,4-5.7,1.4c-0.7-14.6,0.5-29.1-0.1-43.7c-0.4-9.1,0.2-18.2,0.2-27.3
		c-0.1-9.9-0.4-10.5-10.5-10.2c-12.1,0.5-24.2,0.1-36.3-0.2c-7.7-0.2-15.5,0.3-23.2-1.6c-0.7-0.2-1.3-0.2-1.9,0.1
		c-4.6,2.3-9.4,1.5-14.2,1c-3.2-0.4-6.3-0.4-9,1.7c-0.2,0.5-0.5,0.9-0.9,1.3C11.2,53.3,10.7,53.3,10.2,53z"/>
	<path class="st19" d="M101,11c1.7-1.1,3.4-1,5,0c1,0,2,0.1,3,0.1c2,0.4,2.5,1.6,2.5,3.5c0,2.4-0.6,4.9,0.4,7.3c0,0.3,0,0.7,0,1
		c-0.9,3,0.2,6.2-0.9,9.2c0.6,3.4-1.9,1.3-3.1,1.7c1.1-4.9-0.3-9.4-1.9-13.9c-1.2-3.2-3.2-4.9-6.8-4.2c-5.2,1-10.1-1.3-15.3-1.1
		c-2.1,0.1-4.3-0.1-6.9,0.5c1.8,0.6,2.3,2.2,3.5,3.6c1.6-3.1,4.1-4.4,7.4-3.5c1.9,0.5,3,2,3.5,3.8c0.8,3-1.5,4-3.4,5.3
		c-8.3,2-16.8,0.7-25.2,0.9c-3.5,0.1-6.9,0.3-10.4-0.3c-2.1-0.3-4.6,0.3-4.5,2.7c0.4,6.5-4,6.6-8.4,7c-0.8,0.1-1.5,0.1-2.3-0.1
		c-0.3-0.1-0.7-0.2-0.9-0.4c-3.4-4.3-5.5-9.5-10.2-12.8c-1.5-3.3-3.9-3.8-7-2.4c-2.2,1.2-2.2,3.1-1.4,5c0.8,1.7,2.2,2.7,4.3,2.7
		c1.3,0,2.6-0.4,3.8,0.2c1.8,2.7,0.6,5-0.7,7.4c-4.2,2.1-8.4,1.5-12.6,0.4c-2.4-2.8,0.4-5.5,0-8.3c-0.9,0.8-0.4,3-2.5,2.7
		c1.1-4.2-2.6-8.2-0.1-12.7c1.5-2.8,3.4-4.8,6.2-5c6.7-0.4,13.3-1.9,20-0.8c2.5,0.4,5.2,0.4,7.7,0.5c0.6,1.5-0.7,1.7-1.5,1.9
		c-2.4,0.5-3.6,2-3,4.3c0.6,2.5,2.7,0.7,4.2,1c0.5,0.1,1-0.1,1.4-0.3c1.7-2,0.4-3.8-0.3-5.6c-0.1-0.5,0.1-0.9,0.4-1.2
		c15.4-0.3,30.8-0.8,46.2-0.8C94.5,10.3,97.7,11.9,101,11z"/>
	<path class="st20" d="M341.9,10.9c16,0.3,32-1.4,48,0.3c-1,2.5-2.7,1-4,1.2c1.7,0.8,3.9,0.3,5.8,0.1c3.9-0.5,5.4,1.5,6.3,4.7
		c0.2,0.6,0.2,1.3,0.3,2c1.1,5.5,1.7,11.1,7.7,13.9c-1.4,1.7-3.6,1.3-5.4,2.1c-2.2,0.4-4.5,0.7-6.6-0.6c-1.2-9.7-1.2-9.6-11.3-9.2
		c-11.7,0.5-23.5,0-35.2-0.6c-2.2-0.1-4.3,0.2-6.5,0.2c-2.6,0-4.5,0.7-5.3,3.5c-0.3,1-0.7,2.5-2.4,1.3c-1.1-2.4-0.2-5.1-0.8-7.6
		c-0.2-2.1-0.4-4.2,1.1-6c-1.7-7.3,4.1-4.5,7.2-5.3C341.3,10.6,341.6,10.6,341.9,10.9z"/>
	<path class="st21" d="M38.9,33.8c1.1-1,2.5-0.8,3.8-0.8c2.7,0,4.4-0.3,3.6-4c-0.9-3.8,1.8-6.4,5.8-5.9c10.4,1.5,20.8,0.6,31.2,0.9
		c1.6,0,3.4,0.6,4.7-0.9c4.1-1,8.2-0.6,12.2-0.4c8.4,0.5,10.1,3.5,6.8,11.2c-2.3,0.5-4.9-0.9-7,1.1c-5.8,0.9-11.7,0.1-17.5,0.6
		c-4.5,0.4-9.1-0.5-13.4,1c-0.9,0.3-1.9,0.3-2.8,0c-3.1-1.5-6.2-2.1-9.4-0.1c-4.6-0.7-9.2,0.1-13.8-0.2c0.1-0.4-0.9-1-1.9-1
		C40.2,35.2,39.4,34.9,38.9,33.8z"/>
	<path class="st22" d="M405.9,33.1c-6.1-0.2-7.1-4.3-8-9.3c-1.9-9.9-2.2-9.8-13-11c1.5-1.4,3.8,0.2,5-1.5c3.4,1.4,6.7-1,10-0.1
		c0.8,1.2,0.3,2.5,0.3,3.8c0,1.6-0.2,3.6,2.3,3.4c2-0.2,3.9-0.9,3.9-3.5c0-1.3-0.6-2.6,0.5-3.8c7.7,0,15.3,0.1,22.9,0.1
		c4.8,1.2,6.1,4.7,6.2,9.3c0.1,4.5,0.4,9.1-0.1,13.6c-1.1,0.8-2.3,1.2-3.6,0.5c-1.3-3-0.6-6.6-3.2-9.2c-0.4-1.3-0.3-2.6-0.6-3.9
		c-0.4-2.5-2-3.8-4.5-3.5c-2.1,0.3-3.7,1.4-3.7,3.8c-0.1,2.5,1.2,4,3.5,4.7c1.6,0.5,3.3-0.3,4.9,0.3c1.7,3.3,0.2,5.7-2.1,7.9
		c-3.7,1.1-7.3,1.1-11,0c-1.8-1.2-0.9-2.9-0.7-4.4c0.4-2,1.9-4.4-0.7-5.6c-1.5-0.7-4-1.4-4.8,1.6C408.8,28.9,410.2,32.4,405.9,33.1z
		"/>
	<path class="st23" d="M107.1,34c0.1-9.4,0.1-9.5-9.6-9.9c-3.2-0.1-6.3-0.3-9.5-1c0.7-1.4,3.9-1.1,2.5-3.9c-0.9-2-2.1-3.5-4.5-3
		c-1.7,0.3-3.9,0.2-3.5,3c0.2,1.3-0.3,1.9-1.5,1.9c-1.1,0-2.5-0.3-2.3-1.3c0.6-4.1-2.7-3.2-5.4-4.1c3.1-1.9,6-2.4,9-2.4
		c6.4,0.1,12.8,2.6,19.3,1c0.8-0.2,2,0.3,2.7,0.9c4.2,2.8,6.5,14.5,3.7,18.9C107.8,34,107.4,34,107.1,34z"/>
	<path class="st24" d="M123.2,34.1c2.4-0.1,4.7-0.5,6.5,1.8c0.5,0.6,1.9,0.9,2.7,0.7c8.6-1.5,17.4,0.1,26-0.8
		c5.4-0.6,10.7-0.6,16.1,0.1c1.3,0.2,2.8-0.1,2.4,2c-1.2,1.4-2.9,1.4-4.6,1.4c-18.4,0-36.7,0.2-55.1-0.1c-0.6-0.1-1.3-0.3-1.8-0.6
		c-0.6-0.4-0.8-1-0.4-1.6c1.7-1.9,4-0.7,6-1C122.2,35.9,123.9,36.4,123.2,34.1z"/>
	<path class="st25" d="M69,35.8c2.8-3.9,7.1-1.3,10.2-1.3c6.9,0,14.1-1.6,20.9,0.7c1.1,0.7,2.1,1.4,3.2,2.2
		C95.5,39,87.7,37.8,79.9,38c-0.6,0-1.2,0.1-1.8,0.2c-2.9,0.9-5.8,0.2-8.7,0.4C65.7,38.1,69.6,36.6,69,35.8z"/>
	<path class="st26" d="M406.9,11c0,2.6,3.6,5.7-0.8,7.6c-1.9,0.8-4.7,3-6.3,0.9c-1.9-2.3-1.1-5.6,0.2-8.4
		C402.2,11.1,404.5,11.1,406.9,11z"/>
	<path class="st27" d="M113.2,62.2c-1.9-5.5-1.1-11.2-1.2-16.8c0-2.5,0.1-4.9,0.1-7.4c0.6,0.7,1.1,1.3,1.7,2
		c2.5,4.5,1.2,9.4,1.5,14.1c0,0.5,0,1-0.1,1.5C114.3,57.8,116.5,60.8,113.2,62.2z"/>
	<path class="st28" d="M307,10c-3.3,0-5.8,0-8.2,0c-0.7,0-1.5-0.1-1.5-0.9c0-0.6,0.6-1.1,0.9-1.6C300.6,9.8,304,6.4,307,10z"/>
	<path class="st29" d="M114.1,54.9c-0.1-4.9-0.2-9.9-0.3-14.8c0-1.2,0-2.4,1.2-3c0,0.3,0.1,0.7,0.1,1c2.3,5.1,1.3,10.3,0.7,15.5
		C115.8,54.5,115.1,55.1,114.1,54.9z"/>
	<path class="st30" d="M114.9,19.9c0,4.7,0,9.5,0,14.2C113.3,29.4,114.1,24.6,114.9,19.9z"/>
	<path class="st23" d="M112,22.1c-1.7-1.6-0.9-3.8-0.9-5.7c0-2.1-0.1-3.9-2-5.2c2-0.3,3,0.5,2.9,2.7C111.9,16.6,112,19.3,112,22.1z"
		/>
	<path class="st23" d="M111.1,32.2c0.3-3.1-1-6.3,0.9-9.2C112.5,26.2,113.4,29.4,111.1,32.2z"/>
	<path class="st31" d="M322.1,8.9c-1.8,1.5-3.5,1.2-5.9,1.2C318.3,6.8,320.4,9.2,322.1,8.9z"/>
	<path class="st32" d="M333.8,16.2c0,2,0,3.9,0,5.9c-0.4,0.3-0.8,0.3-1.2,0.1c-1.4-1-1.1-2.7-1.6-4.1c0-0.3,0.1-0.7,0.1-1
		C332,16.7,332.6,15.7,333.8,16.2z"/>
	<path class="st33" d="M432.9,6c2.4-0.5,4,1.2,5.8,2.2c-1.3,2.4-2.6,1.1-3.8-0.1C434.2,7.4,433.6,6.7,432.9,6z"/>
	<path class="st34" d="M341.9,10.9l-0.4,0.1l-0.4-0.1c-1.1-1.3-2.8-0.5-4.2-0.9C340.8,7.7,340.9,7.7,341.9,10.9z"/>
	<path class="st35" d="M157.1,147c1.1-0.3,2.7,0.6,3.6-1.9c-5.5,0-10.8-0.6-15.8,1.1c-3.2,1.1-6.3,2.1-9.6,1.7
		c-5.7-0.6-11.1,1.4-16.6,1.5c-2.3,0-1.3,1.8-1.8,2.8c-1,2.2,2,4.4,0,6.5c-3.5,1.4-3.1-1.5-3.2-3.1c-0.4-4.6-0.1-9.2-0.2-13.8
		c0.2-2-0.3-4.3,1.5-5.9c0.6-0.3,1.1-0.1,1.3,0.5c0.2,2.6,0,5.2,0.1,7.8c0,0.7,0.9-0.1,0.2,0.1c-0.2,0.1-0.3-0.1-0.3-0.4
		c0.5-2.9-1.1-6.2,1.3-8.9c5.4-1.2,10.9-0.5,16.3-0.6c9.8-0.1,19.5,0,29.3,0c3.3,0,6.6,0,9.9,0c3.9-0.3,7.7-1.1,11.6,0
		c1.6,0.1,3.3,0.1,4.9,0.1c0.5,0,1.1,0,1.6,0c3.3,0,6.6,0.1,10-0.1c1.4-0.3,2.9-0.6,4.4-0.3c10.7,0.8,21.4,0.1,32.1,0.3
		c4.3,0,8.6,0,12.9,0c3.9,0,7.8,0,11.6,0c0.9-0.1,1.7,0,2.6,0c2.5,0,5,0.1,7.6,0c2.8-0.7,5.6-0.4,8.4,0c5.3,0.1,10.6,0,15.9,0
		c3.3,0.1,6.6-0.2,9.9,0c1.2,0,2.5-0.1,3.7,0c5.3-0.1,10.6-0.1,15.9-0.1c2.3,0,4.7-0.1,6.3,2.2c1.3,6.9,0.8,13.9,0.3,20.8
		c-0.7,1.8-2,2.4-3.8,1.6c-3.2-2-6.8-0.7-10.4-1.4c1.4-1.1,2.8-0.6,4-0.6c2.3,0,4.3-0.1,4.2-3.3c-0.1-3-0.7-5.5-4.2-5.7
		c-5.1-0.3-10.3-0.4-15.4-0.3c-2.6,0-5.7-0.3-5.9,4c-0.1,1.9-2.6,2.2-4.5,2.2c-17.2,0-34.3,0-51.6,0c0-2.6,1.6-1.7,2.5-2.1
		c2.2-2,5-1.5,7.6-1.5c12.9-0.1,25.8,0,38.7-0.4c-9.4-0.5-18.8-0.4-28.2-0.4c-4.7,0-9.3,0-14,0c-2.2,0-4.4,0-6.1-1.5
		c-1.1-0.6-1.4-2.5-3.1-1.8c-1.1,0.5-0.8,1.7-0.9,2.6c-10.7,0-21.4,0.4-32.1,0.2c-3.1-0.1-6.4,0.2-9.1-2c-3.6-1.2-7.1-1.3-10.5,0.7
		c-1.4,0.8-3,1.4-4.7,1.5c-8.2,0.3-16.5,0.6-24.7-0.2C159.5,148.9,157.4,149.5,157.1,147z"/>
	<path class="st36" d="M246,147.9c16.1,0,32.2,0,48.3,0c1.6,0,4.3-1,4.4,1.7c0.2,3.3-2.8,2.2-4.4,2.2c-15.4,0.1-30.9,0-46.3,0
		C247.4,150.5,245.9,149.6,246,147.9z"/>
	<path class="st37" d="M157.1,147c2.5,1.9,5.4,0.8,8.1,0.9c6.1,0.2,12.2,0,18.4,0.1c2.2,0,4.2-0.3,6.2-1.5c3.9-2.4,8-2.1,12.2-0.5
		c-0.4,0.9-0.9,1.5-1.9,1.3c-1.4-0.1-2.8,0.4-4.2,0c0.3,0.5,0.8,0.1,1.2,0.1c2-0.1,3.8,0,3.7,2.7c-0.1,2.5-1.9,2.8-3.9,2.8
		c-8.8,0.1-17.5,0.1-26.3,0c-2.9,0-5.9,1-8.6-1c-1.1-2.3-3.2-1.8-5.2-2c-1.2-0.1-3.3,0.7-3.2-1.2C153.6,146.8,155.6,147,157.1,147z"
		/>
	<path class="st36" d="M201,147c0.3-0.3,0.7-0.7,1-1c1.7,3.1,4.9,2.4,7.1,1.8c5.8-1.6,11.4,1,17.2-0.2c2.3-0.5,5.1-0.1,7.7-0.5
		c2.8-0.4,5.7-0.4,7.9,1.8c-0.1,1.8-1.2,2.1-2.7,2.1c-10.8,0.4-21.6,2.8-32.3-0.8c-0.9-0.3-3.3-2.1-4,0.8
		C200.4,150.6,200.9,148.7,201,147z"/>
	<path class="st38" d="M201,147c0.7,1.3,1.3,2.6,2,4c-1.1,3-3.7,2.9-6.1,2.9c-15,0.1-30.1,0-45.1-0.1c-1.6,0-3.1-0.7-4.7-1.9
		c4.9,0,9.9,0,14.8,0c11.1,0,22.1,0.1,33.2,0c1.7,0,4.7,1.2,4.5-2c-0.1-3.1-3-1.6-4.7-1.9c-0.9-0.2-1.9,0-2.9-0.4
		C195.1,147,198,146.5,201,147z"/>
	<path class="st39" d="M115,140.9c0.1,4.7,0.1,9.4,0.3,14.2c0.1,1.3-1.3,3.6,1.7,3.6c8.9,0,17.8,0,26.7,0c0,0.4,0.1,0.8,0.1,1.3
		c-2.2,0.2-4.5,0.5-6.7,0.7c-7.1-0.1-14.2,0-21.3,0.2c-4.3,0.2-9,0-13.5-0.1c-1.1-2.3-1-2.5,1.4-3.1c2.7-0.6,5.6,0.7,8.1-1.1
		c1.5-3.1,0.5-6.4,0.8-9.6c0.2-1.9-0.2-3.9,0.9-5.7C113.9,140.7,114.4,140.6,115,140.9z"/>
	<path class="st40" d="M319,160.9c-2.7-1.4-5.2,2-8,0.3c-0.6-0.4-0.9-0.7-1.1-1.3c5.4-2.1,11-0.5,16.6-0.3
		C323.9,160,321.5,160.5,319,160.9z"/>
	<path class="st5" d="M340.3,160.7c-5.2,0-9.9,3.6-15.3,2.2c1.5-3.1,5.1-0.8,7-2.7C334.9,158.1,337.7,157.4,340.3,160.7z"/>
	<path class="st41" d="M294.9,160.7c-0.3,0.1-0.6,0.1-0.9,0.1c-4.5-1.9-9.3-0.3-13.9-1.7c6,0,12,0,18.8,0
		C297.1,159.9,296,160.3,294.9,160.7z"/>
	<path class="st42" d="M199.3,159.9c-2.4,0.8-4.8,0.1-7.2,0.2c-1.9-0.1-3.8-0.2-5.8-0.4C190.6,159.3,195,157.5,199.3,159.9z"/>
	<path class="st40" d="M340.3,160.7c-2.7-1-5.5-0.9-8.3-0.5c-1-0.1-2.3,0.2-2.8-1.1c1-0.3,2.1-0.1,2.9-1.1c0.5-0.6,1.2-0.7,2-0.7
		c0.7,0.1,1.5,0.2,2.2,0.3c1.9,0.7,4.8-1.1,5.5,2.3c-0.3,0.2-0.6,0.4-1,0.6C340.6,160.4,340.4,160.5,340.3,160.7z"/>
	<path class="st43" d="M228.1,159.9c-0.5,0.7-1.2,0.9-2,0.9c-2.4-1.9-5.4-0.1-8-1.5C221.5,159.1,224.8,158.2,228.1,159.9z"/>
	<path class="st44" d="M245.3,159.9c-0.5,0.8-1.3,1-2.2,1c-2-2-4.8-0.2-7.5-1.6C239.2,158.8,242.3,158.5,245.3,159.9z"/>
	<path class="st45" d="M155.1,159.9c-2.3,0.1-4.7,0.2-7,0.3c-0.8-0.1-1.5-0.1-2.3-0.2C148.9,158.9,152,158.1,155.1,159.9z"/>
	<path class="st46" d="M20.1,133c-2.6-1.6-5.4-0.7-8.1-1.1c-1.2-0.2-3.1,1.2-3.7-1.1c-0.5-2-0.8-3.9,1.7-4.8
		c1.1-7.1,0.5-14.2,0.3-21.3c-0.1-5.1,0.6-10.2,0.2-15.3c-0.8-10.7,0.8-21.5-0.8-32.1c-0.2-1.5,0.4-2.9,1.3-4.2l0,0
		c1.8-2.2,4.2-2.4,6.8-1.8c5.9,1.4,11.8,2,17.3-1.8c1-0.7,2.2-0.8,3.4-0.5c11.6,3,23.5,0.9,35.2,2.1c1.7,0.2,3.3,0.2,4.9,0.6
		c4.6,1.1,8.9,1.4,13.6-0.4c3.7-1.4,7.9,0,11.7,1.1c2.4,0.7,3.8,2.6,3.9,5.2c0.3,6.4,0.1,12.9-0.4,19.3c-0.3,3.8,0.3,7.5,0.3,11.2
		c0.2,9.3-0.5,18.6-0.8,27.8c-0.1,5.2,1.2,10.5,0.2,15.7c-4,2.8-8.5,1.3-12.8,1.7c-4.2,0.4-8.6-0.3-12.3,2.3c-1,0.3-1.9,0.3-2.9-0.1
		c-2.8-2.5-5-0.3-7.4,0.8c-0.7,0.2-1.4,0.2-2,0c-2.3-1.6-4.6-1.5-6.9-0.1c-0.5,0.1-0.9,0-1.3-0.3c-1.1-1.9-2.4-3.2-4.6-1.5
		c-2,0.6-4,0.2-6,0.1c-5.8,0.2-11.5-2.9-17.3,0.5c-1.9,1.1-3.9-1.5-6-1.5C25.2,134.2,22.6,134.9,20.1,133z"/>
	<path class="st47" d="M70,135.9c0.7,0,1.3,0,2,0.1c2.2-1.4,4.7-1.4,7.1-1c1,0,1.9,0,2.9,0c4-0.4,8-0.6,12-0.5c2.9,0.1,5.7,0,8.6,0
		c10.7,0,10.8,0,10.4,10.5c-0.1,3.9,0.1,7.9-0.3,11.8c-0.9,2.1-2.7,1.5-4.3,1.5c-1-0.5-0.8-1.2-0.5-2c1.8-8.6-6.2-17.6-15.3-17
		c-11.5,0.8-23.2-0.5-34.6,2.3c-0.6,0.2-1.5,0.3-2,0c-4.7-3.2-7.8-0.5-10.7,2.9c-0.6,0.2-1.2,0.5-1.8,0.5c-4.5-0.3-5.6,2.1-4.8,6
		c-0.9,2.7,1.1,5.6-0.8,8.2c-1.4,0.2-2.7,0.4-4.1,0.1c-5.8-0.8-11.6-0.2-17.5-0.4c-1.2,0-2.4-0.1-3.3-1c-0.6-0.7-1.1-1.4-1.7-2.1
		c-2.5-1-2.7-2.7-1.4-4.8c0-3.6,0.3-7.2-0.2-10.7c-0.6-4,1.1-4.8,4.4-4.5c4.1-1.7,8.4-0.7,12.6-1.2c8,0.3,16-0.5,24,0.2
		c2.1,0,4.1,0.1,6.2,0c1.8-0.4,3.6-0.3,5.1,1c0.4,0,0.7,0,1.1,0C65.4,134.5,67.7,134.5,70,135.9z"/>
	<path class="st48" d="M38.9,33.8c1.4,0.4,2.7,1.1,4.2,0.4c0.3-0.1,1.4-0.5,1,0.7c-0.1,0.4-0.7,0.7-1,1c0.6,0.7,0.6,1.3,0,2
		c-5.3,0.1-10.7,0.1-16,0.2c-5.7,0.6-11.3,0.8-17-0.1c-0.8-1.2-1.2-2.6-1-4.1c1-0.6,2-0.8,3,0.1c4.3,0.1,8.6,0.5,12.8-0.2
		c4.1-2.4,8.1,0.8,12.2,0C37.7,33.9,38.3,33.9,38.9,33.8z"/>
	<path class="st49" d="M11.1,53.1c0,22.4,0,44.8,0,67.3c0,1.9,0.8,4-1,5.6c-0.2-6.4-0.2-12.9-0.7-19.3c-0.5-7,1.4-13.8,0.8-20.7
		c-0.4-3.6-0.4-7.2-0.8-10.8c-0.5-5,1.4-10.1,0.6-15.3c-2.2-1.7-1.9-3.7-0.7-5.8c0.3-0.3,0.7-0.7,1-1C10.5,53,10.8,53,11.1,53.1z"/>
	<path class="st50" d="M45.2,11.1c0,0.4,0,0.9,0,1.3c1.4,2,0.9,4.3,0.9,6.5c-1.3,2-3.3-0.3-4.9,0.8c-0.7,0.5-3.6,1.3-3.1-1.1
		c0.4-2.2-1.8-5.6,2.3-6.6c1.2-0.3,2.7,0.4,3.6-1C44.3,11.2,44.7,11.2,45.2,11.1z"/>
	<path class="st51" d="M27,135.8c-4.3,0-8.6,0-12.9,0c0.7-3.7,4.6-0.5,6-2.8c2.2-0.9,4.8,1,6.9-0.9C28.2,133.3,28.1,134.6,27,135.8z
		"/>
	<path class="st52" d="M10.1,38c5.7,0,11.3,0.1,17,0.1C23.7,40,20,39,16.6,38.9c-4.3-0.2-6.1,1.1-5.5,5.5c0.2,1.2,0.3,2.7-1,3.6
		C10.9,44.7,7.4,41.4,10.1,38z"/>
	<path class="st53" d="M12.1,34c-1,0-2,0-3-0.1c1-1.5,1-3.2,1-4.9c2.1-1.1,0-6,3.2-4.9c2.4,0.8,0.3,4.3-0.2,6.6
		C12.9,31.9,12.4,33,12.1,34z"/>
	<path class="st54" d="M13.1,157.9c0.9,0.1,1.9,0.2,2.8,0.2c4.2,0.8,8.5,0,12.7,0.4c0.6,0.3,0.8,0.8,0.4,1.3
		c-5.4-0.2-10.8,1.2-16.1-0.9C13,158.6,13,158.2,13.1,157.9z"/>
	<path class="st55" d="M10,151c0,1.7,0.1,3.4,1.4,4.8c-2.7,1.5-2.9-1-3.2-2.4C8.1,152.8,6.8,149.9,10,151z"/>
	<path class="st56" d="M9.2,54c-0.1,2-0.2,4,0.7,5.8C6.6,57.5,6.5,56.5,9.2,54z"/>
	<path class="st57" d="M424.6,158.8c-1.9-0.2-3.8,1.6-5.7,0.1c-0.9,0.7-1.9,0.5-2.9,0.4c-2.3-1.2-1.2-3.1-0.8-4.8
		c0.8-3.5,0.2-5.9-4.2-5.7c-1.6,0.1-2.9-0.5-3.8-1.9c-1.7-4-6.1-1.8-8.6-3.7c-1-0.9-2-2-3.5-1.7c-8.4,1.6-16.3-3.7-24.7-1.5
		c-1.9,0.5-4-0.4-5.6-1.8c-1.1-0.9-1.8-2.1,0-3.2c9.9-1.4,19.9-0.4,29.8-0.7c2.5,0.2,5.1,0.2,7.6,0c8.8-0.1,17.6,0,26.5,0
		c2.5,0,5,0,7.2,1.6c0,4.3,0.1,8.6,0,12.9c0,7.1-1.3,8.4-8.5,9.1C426.4,158,425.5,158.5,424.6,158.8z"/>
	<path class="st58" d="M435.9,136c-11.4-0.1-22.8-0.2-34.1-0.3c-2.2-1.1-4.4-0.9-6.6,0c-10.4,0.1-20.8,0.2-31.2,0.3
		c-1.1,0.9-2.2,0.8-3.2-0.2c1-4.1,4.4-4.8,7.7-5c3.4-0.2,6.7-0.4,10.3,0.7c2.3,0.7,5.4-1.1,8.2-1.1c14.1,0.1,28.2,0,42.3,0
		c1.2,0.1,2.3,0.1,3.5,0.3c0.9,0.2,1.7,0.5,2.1,1.4C435.4,133.4,436.2,134.5,435.9,136z"/>
	<path class="st59" d="M434.9,132.1c-0.6-0.1-1.3-0.2-1.9-0.2c-1.1-4.6-0.5-9.2-0.5-13.8c0.1-11.3,0.1-22.6-0.1-33.9
		c-0.1-5.8-0.2-11.6,0.1-17.3c-0.3-6.8,0.4-13.5-0.6-20.3c-0.7-4.7-3.1-6-7.4-6c-8.3,0-16.5,0.1-24.8-0.1c-2.2,0-4.8,0.5-6-2.3
		c0.4-0.5,0.9-0.9,1.5-1.2c12.7-1,25.4-0.6,38.1-0.4c1.3,0,2.6,0.5,3.5,1.6c-0.3,9.8-0.8,19.5-0.9,29.3c-0.1,14.7,0,29.4,0,44.2
		c0,5.3,0,10.6,0,15.8C435.9,129.1,436.4,130.9,434.9,132.1z"/>
	<path class="st60" d="M436.8,38.2c-14-0.1-27.9-0.2-41.9-0.3c-1.2-0.5-2.3-1.1-2.8-2.4c-0.6-1.8,0.1-2.3,1.8-1.5c2.3,0,4.6,0,6.9,0
		c1.8,1,3.5-0.2,5.1-0.5c3.1-0.5,6.1-1.5,9,0.5c3.9,0,7.9,0,11.8,0c1.7-1.2,3.4-1.5,5.1,0c1.3,0,2.6,0,3.9,0.1
		C434.2,35.9,438.7,36.3,436.8,38.2z"/>
	<path class="st61" d="M38,158.7c-0.2-2.6-2.2-5.2,0.2-7.8c5.3,0.4,6.6-3.6,8.3-7.3c3,1.6,1.3,4.2,1.1,6.6c-0.1,0.4,1.2-0.2,0.5-0.1
		c-0.4,0-0.4-0.1-0.4-0.3c0.1-1.5,1.1-2.6,2.4-2.6c3.1,0,5.9-1.6,9-1.4c1.5,1.5,1.1,3.8,2.2,5.4c0.6,1.3,1.8,1.1,3,1.2
		c6.5,0.3,12.9,0.4,19.4,0.3c2.2,0,4.3,0,5.8-2.1c4.4-2.4,12.6-1,15.8,2.8c0.5,0.6,1.4,1.7,1,2.1c-2.9,3.3,2.1,0.9,1.7,2.4
		c1.4-0.1,3.1,0.6,4.1-1c0.9-0.1,1.5,0.1,1,1.2c-3.2,1.7-6.7,0.5-10.1,0.7c-1.8,0.1-2,0.7-0.8,1.9c-0.5,0.4-1.2,1.4-1.4,1.2
		c-4.5-1.8-9.7,1.8-13.8-2c-6.9-1-13.9-0.3-20.9-0.6c-1.8-0.1-3.6,0.5-5.3-0.5c-7,1.9-14.2,0.7-21.3,1.1
		C38.9,159.6,38.2,159.6,38,158.7z"/>
	<path class="st62" d="M60.8,158.9c8.9,0,17.7,0,26.6,0.1c0.2,0,0.4-0.1,0.5,0c0.7,1.1-0.5,0.7-0.8,1c-7.2,0-14.4,0.1-21.6,0
		C63.9,159.9,62,160.7,60.8,158.9z"/>
	<path class="st63" d="M38,158.7c0.5,0.4,1,0.8,1.5,1.2c-3.5,0-7-0.1-10.5-0.1c0.1-0.3,0.1-0.6,0-0.9c1.7-1,3.4-0.6,5.2-0.2
		C35.4,158.8,36.7,158.7,38,158.7z"/>
	<path class="st64" d="M341.8,159.9c-2-2.2-4.6-0.3-6.8-1.1c0.3-0.2,0.1-1.7-0.1-2c-1.6-2.4-1.6-4.8,0.7-6.6c2.3-1.9,5-3.4,8.1-3.4
		c3.4-0.1,6.7,0.8,9.8-1.9c1.7-1.5,3.4,1,4.5,2.7c0.6,1.3,1.5,2.4,1.8,3.8c0.4,0.8,1,1.2,2,1.2c7.5,0.1,15,0,22.5,0
		c1.9,0,2.6-0.9,3.1-2.5c1.4-3.9,5.1-4.1,7.9-3.3c3.1,0.9,3.7,4.9,2.4,7.2c-2,3.5,0.6,3.8,2.3,4.9c0.3,0.4,0.3,0.8,0,1.2
		c-5.9,2.2-11.9-0.1-17.9,0.6c-4.2,0.4-8.5,0.7-12.6-0.7c-6.9-1-13.8-0.6-20.7,0.2c-1.7,0.2-3.2,0.6-4.8-0.3
		C343.2,159.9,342.5,159.9,341.8,159.9z"/>
	<path class="st65" d="M344,159.9c7-1.4,14.2-1.1,21.3-0.9c1.5,0,3-0.4,4.2,1c-7.1,0.4-14.2,0.5-21.3,1.3
		C346.1,161.5,345.1,161,344,159.9z"/>
	<path class="st66" d="M399.9,160.1c-0.1-0.4-0.1-0.8-0.2-1.3c0.2-0.2,0.5-0.4,0.7-0.6c5.2-1.2,10.5-1.6,15.6,0.6c1,0,2,0.1,3,0.1
		c-4.5,2.2-9.5,0.6-14.2,1.3C403.2,160.5,401.5,160.2,399.9,160.1z"/>
	<path class="st67" d="M324.9,36c0-0.9,0.3-1.7,1.1-2.1c2.4,0.2,5.1,0.8,4.1-3.3c-0.3-1.3,0.1-2.3,1.8-1.6c1.5,1,1,3,2.1,4.2
		c1,1.4,3.1,2.3,2.4,4.6c-0.4,0.6-1,0.9-1.6,1c-2.2,0.3-0.6,3.5-2.9,3.7c-1.7-0.2-1.7-2.2-2.9-3c-0.7-0.3-1.5-0.6-2.2-1
		C326,37.8,325.3,37.1,324.9,36z"/>
	<path class="st68" d="M332.9,34.3c-1.8-1.5-0.7-3.5-1-5.3c0-2-0.1-3.9-0.1-5.9c-0.2-0.8,0.2-1.1,0.9-1.3c0.4,0.1,0.8,0.2,1.1,0.2
		c0.1,2.6,0.2,5.2,0.3,7.9c1.1,1.2,1,2.6,0.3,3.9C334,34.4,333.5,34.5,332.9,34.3z"/>
	<path class="st69" d="M253,24c-3.4,2.2-8.6,1.7-10.9-0.9C245.7,23.6,249.3,24.3,253,24z"/>
	<path class="st1" d="M332.7,21.9c-0.3,0.4-0.6,0.9-0.9,1.3c-2.3-1.4-1.7-3.2-0.8-5.1C333.4,18.5,331.2,21,332.7,21.9z"/>
	<path class="st70" d="M329.9,38.2c1.7,0.8,0.4,3.1,2.1,3.9c2.5,4.8,1.4,10,1.4,15c0.1,11.8-0.4,23.7-0.5,35.5
		c0,4.8-0.3,9.5,0.1,14.3c-0.1,7.6,0.5,15.2-0.4,22.7c-1.6,3.9-4.3,4.5-7.8,2.5c1.3-12.7,0.4-25.5,0.6-38.3
		c0.1-4.1,1.1-8.2,0.6-12.4c1.6-8.8-0.7-17.5-0.9-26.2c0-2.5-1.8-4.5-4.5-4.5c-15.6,0.2-31.2-1.4-46.7,1.1c-0.5,0.1-1.1,0.1-1.6,0
		c-2.1-0.4-4.1-1.3-6.2-1.8c-9.8,1.1-19.6-0.5-29.4,0.6c-11.7,1.3-23.1-0.2-34.7-1.1c-7.8-0.6-15.5,1.1-23.3,1
		c-18.8-0.1-37.5,0-56.3,0.1c-2,0-4.4,0.7-6-1.4c-1.1-10.8-1.1-10.8,9.3-10.8c15.1,0,30.2,0,45.3,0c4,0,7.9-0.2,11.8-1
		c0.6-0.2,1.1-0.3,1.7-0.4c5.5,1.1,11.1,0.4,16.6,0.6c0.3,0.1,0.5,0.1,0.8,0.2c0.4,0.1,0.8,0.1,1.2,0.2c9.5-1,19.1-0.6,28.6-0.2
		c9.6,0.4,19.1-1.2,28.7,0.5c4.1,0.7,8.1-1.3,12.3-1c6.1-1.1,12.3,0.3,18.4-0.7c0.6,0,1.2,0.1,1.8,0.2c7.5,1.1,15.1,1.1,22.7,0.1
		c1.2-0.4,2.5-0.7,3.8-0.2c3.1,1.6,7,0.4,10,2.6C329.5,39,329.5,38.5,329.9,38.2z"/>
	<path class="st71" d="M184,38.2c-1.5,1.5-3.5,0.9-5.2,0.9c-18.4,0-36.9,0-55.3,0c-6.4,0-6.4,0-6.4,6.5c0,1.5,0,3,0,4.5
		c0.6,0.9,0.5,1.6-0.4,2.2c-0.7,0-1.1-0.4-1.1-1c0.2-4.4-0.7-8.8,0.5-13.1c20.3,0,40.6-0.1,60.8-0.1c0.4,0,0.7,0,1.1,0
		C180,37.2,182,37,184,38.2z"/>
	<path class="st72" d="M224,36c7.5,1.1,15.1-0.1,22.6,0.3c4.4,0.2,9.3-2.3,13.3,1.6c-17.9,1-35.8,1-53.8,0c-0.1-0.3-0.1-0.6,0-0.9
		C212,35.7,218.1,37.4,224,36z"/>
	<path class="st73" d="M206.1,37.9c17.9,0,35.8,0,53.8,0c1.7,0,3.4,0,5.2,0.1c2.7-1.5,5.3-1.6,7.9,0.2c-1,1.2-2.4,0.9-3.7,0.9
		c-20.8,0-41.6,0-62.3,0c-1.3,0-2.7,0.4-3.7-0.8C204.2,38.1,205.1,38,206.1,37.9z"/>
	<path class="st74" d="M293.1,38.2c-0.4-0.1-0.8-0.2-1.3-0.3c-1.2-0.9-2.7-0.2-4-0.9c0.1-1.3,0.1-2.8,2-2.8c5.4,0,10.8,0.1,16.2,0.2
		c0.4,0,0.7,1,1.1,1.5c-0.4,1,0.7,3.1-1.9,2.7C301.2,38.4,297.1,38.9,293.1,38.2z"/>
	<path class="st75" d="M307,37.8c-0.3-0.7-2.8-1.4,0.1-2c1.9-3.2,4.9-1.1,7.2-1.1c3.5,0.1,7.5-1.8,10.7,1.2c1.1,0.1,2,0.5,2,1.8
		c-2.6,1.3-5.3,0.9-7.9,0.3c-0.7-0.9-1.3-0.9-2,0C313.6,38.7,310.3,39.1,307,37.8z"/>
	<path class="st76" d="M287.9,37c1.5-0.6,2.9-0.5,4,0.9c-6.3,0.1-12.6,0.2-18.9,0.3c-2.6-0.1-5.3-0.1-7.9-0.2
		c-0.4-0.9-1-2.5,0.3-2.3C272.8,36.8,280.5,34.6,287.9,37z"/>
	<path class="st77" d="M184,38.2c-2,0-4-0.1-6-0.1c2.6-2.3,7.3-4.5,8.9-3.3c4.3,3.2,8.4,0.7,12.5,1.3c1.5,0.2,2.7,0,2.5,2v0.2
		c-5.7,0.6-11.3,0.7-16.9-0.1C184.7,38.1,184.3,38.1,184,38.2z"/>
	<path class="st78" d="M224,36c-5.9,2.2-12,0.4-18,1C212,34.7,218,36,224,36z"/>
	<path class="st79" d="M107,132c-0.3-6.2-1.5-12.6-0.8-18.7c1.2-9.8,1.1-19.7,0.9-29.4c-0.2-8.4,0.3-16.9-0.1-25.3
		c-0.1-3.3-1.9-5.2-5.2-5.5c-4.8-0.3-9.4-1.5-14.4,1.3c-3.4,2-7.7-2.4-11.9-1.7c-7.4,1.2-14.7-3-22.1,0c-3.8-3.9-9.4,3.2-13.2-2.2
		c-0.8-1.2-3.4-1-4.7,0c-5.9,4.7-12.2,3.7-18.6,1.7c-2.1-0.7-3.9,0.6-5.8,0.9c0.4-3.4,4.9-5.7,9.7-4.9c5.2,0.9,10.4,2.1,15.3-1.1
		c0.4-0.3,1-0.5,1.4-0.3c7.3,3.3,15.1,1.9,22.6,2.1c13.7,0.5,27.3,0.1,41,0.1c6.6,0,8.2,1.3,7.8,7.8c-0.9,16.1,0.3,32.2-0.3,48.3
		c-0.2,7.1-1,14.4,0.3,21.5c0.3,1.8,0,3.6-1,5.3C107.7,132.2,107.4,132.2,107,132z"/>
	<path class="st80" d="M107,132c0.3,0,0.7,0,1,0c2.5,0.8,4.5,1.2,4.2-2.6c-0.1-1.3,0.5-2.5,1.5-3.5c2.2,2.3,1.7,5.3,1.4,7.9
		c-0.3,2.4-0.3,4.9-1,7.2c-1,5.7,1,11.5-1,17.2c-0.3-0.4-0.7-0.8-1-1.2c-0.4-4.7,0-9.4,0.4-14.1c0.6-5.8-0.4-6.7-6.2-6.8
		c-1.2,0-2.3-0.1-3.5-0.2c-2.9-1.7-5.8-0.8-8.7,0c-4.1-0.2-8.2,1.4-12.2-0.8c2.5-4.8,7.1-2.3,10.7-2.8C97.4,131.4,102.3,132,107,132
		z"/>
	<path class="st81" d="M113.2,62.2c1.8-1.8-0.5-4.2,0.9-6.1c2.4,0.2,2.2,2.2,2.2,3.7c0,17.1,0.5,34.2-0.4,51.4
		c-0.3,0.9-1,1.6-1.9,1.9c-1.8-2.7-0.8-5.7-0.8-8.6c-0.1-12.5-0.2-24.9,0.6-37.4C113.9,65.5,113.4,63.9,113.2,62.2z"/>
	<path class="st82" d="M43.1,37.9c0-0.7,0-1.3,0-2c4.6-1.6,9.2-1,13.8,0c0.7-0.1,1.2,0,1.2,0.8c0,0.7-0.6,1-1.1,1.3
		C52.4,37.9,47.8,37.9,43.1,37.9z"/>
	<path class="st83" d="M114,113.1c0.3-0.4,0.6-0.7,0.9-1.1c1.8,1.5,1.4,3.6,1.5,5.5c0.1,5-0.1,10,0.1,14.9c0.1,0.6,0.2,1.1,0.2,1.7
		c-0.1,0.6-0.3,1.1-0.7,1.5c-1.5,1.5-0.6,3.5-1,5.2h-0.4h-0.4c-0.1-5-0.2-10.1-0.4-15.1C113.1,121.6,113.4,117.3,114,113.1z"/>
	<path class="st84" d="M57.1,37.9c0.3-0.7,1-1.4-0.1-2c3.1-3.5,6.2-1.7,9.2,0c-0.2,0.9-0.8,1.5-1.4,2c-0.2,0.1-0.4,0.2-0.5,0.3
		C61.8,38.1,59.4,38,57.1,37.9z"/>
	<path class="st85" d="M68,37.8c3.3,0.1,6.7,0.2,10,0.3c-4.6,1.6-9.2,1.4-13.8,0.1L64,37.8C65.4,37,66.7,36.9,68,37.8z"/>
	<path class="st21" d="M37.1,33.9c-4.1,3.9-8.1-1.2-12.2,0c-0.8-2.3,2.4-4.5,0.1-6.8c-0.2-0.4-0.3-0.8-0.2-1.3
		c0.8-1.6,0.8-3.5,2.2-4.7c1.3,0.5,0.5,3.3,2.9,2.6c2.3-0.7,2.8,0.9,3.3,2.5C34.1,28.9,35.1,31.7,37.1,33.9z"/>
	<path class="st86" d="M25.1,26.1c0,0.3,0,0.7,0,1c-3.8,2.6-6.8,0.9-8.5-2.4c-1.3-2.4-1.5-5.6,2.5-6.6c0.1,0.2,0.2,0.4,0.3,0.6
		c-0.9,5.7-0.5,6.3,5.2,7C24.7,25.8,24.9,25.9,25.1,26.1z"/>
	<path class="st86" d="M27.1,21c-0.1,1.9,0.4,4.1-2,5l0,0c-0.1-4.1-2-6.8-6-8l0,0C22.9,16,25.8,16.4,27.1,21z"/>
	<path class="st87" d="M46.1,19c-1.7-2-0.7-4.3-0.9-6.5C48.4,14.2,47,16.6,46.1,19z"/>
	<path class="st88" d="M333.9,34.1c0.1-1.4,0.1-2.7,0.2-4.1c1.9-6.2,5.7-7.5,13.8-6.9c12.7,1,25.5,1.8,38.3,0.4
		c2.8-0.3,6.4-1.3,8.1,1.9c1.4,2.6,2.5,5.9-0.3,8.6c-0.9,0.7-0.9,0.7,1,3.9c-0.3,0.1-0.6,0.1-1,0.1c-0.4,0.3-0.9,0.4-1.4,0.2
		c-8.9-1.1-17.4-3.9-26.8-2.4c-6.1,1-12.6,0.6-18.8-0.3C342.3,37.9,337.9,37.7,333.9,34.1z"/>
	<path class="st88" d="M415.1,34c-2.4,0-4.9,0-7.3,0.1c-1.2,0.1-2.2-0.5-3.3,1.5c-1.7,2.9-1.9-1.9-3.5-1.6c1.5-1.5,3.4-0.7,5.1-0.9
		c3.5-1.9,1.4-5.3,2.1-7.9c5.8-1.2,8.2,0.2,7.9,4.9C415.6,31.4,415.4,32.7,415.1,34z"/>
	<path class="st89" d="M68,37.8c-1.3,0-2.6,0-4,0c0-1.4,0.9-1.8,2.1-1.9c0.9,0,1.9-0.1,2.8-0.1C70.8,37.4,68.1,37,68,37.8z"/>
	<path class="st90" d="M432,34c-1.7,0-3.4,0-5.1,0c0.2-2.3,2.3-4.3,1.1-6.9c-3,0.6-6,0.8-7.7-2.5c-0.8-1.6-1.4-3.3-0.1-5.1
		c1.3-1.8,3.2-2.4,5.2-2c2.1,0.3,3.6,1.6,4,3.9c0.2,1.3-0.4,2.6,0.6,3.8C432.9,27.5,433.9,30.4,432,34z"/>
	<path class="st91" d="M429.9,25.1c-1.2-0.7-0.9-2-1.1-3.1c-0.5-3-2.4-4.2-5.2-3.9c-2.1,0.3-3.9,1.7-3.4,4c0.6,2.5,1.6,5.2,5.2,4.5
		c1-0.2,1.9-0.8,2.5,0.4c-2.8,1.9-5.2,1.4-7.5-0.9c-1.8-1.7-2-3.8-1.4-5.9c0.8-2.6,3.1-3.4,5.4-3.8C428.1,16,429.9,18.9,429.9,25.1z
		"/>
	<path class="st92" d="M415.9,30.1c-0.3-5.4-5.3-3.3-8-4.9c1.9-4.1,5.7-2.4,7.8-1.4C417.9,24.6,417.4,27.9,415.9,30.1z"/>
	<path class="st93" d="M115.8,134.2c-1.8-7.3-0.1-14.8-0.9-22.2c0.1-14.3,0.3-28.6,0.1-42.9c-0.1-4.3,1.4-8.8-0.9-12.9
		c0-0.4,0-0.8,0-1.2c2-3.5,0.4-7.3,0.8-10.9c0.2-1.9,0.2-3.9,0.2-5.9c0.3,0,0.6,0,0.9,0c0,4.6,0,9.3,0.1,13.9c1.5,1.8,1.2,4,1.3,6.2
		c0.1,6.4,0,12.9,0.1,19.3c0.1,0.6,0.1,1.3,0,1.9c-0.2,15.6,0,31.3-0.1,46.9c0,2.2,0.2,4.3-0.4,6.4
		C116.8,133.4,116.4,133.8,115.8,134.2z"/>
	<path class="st94" d="M185.1,135.8c-3.8-1.1-7.5,0.1-11.3-0.1c-3.6-0.9-7.1-0.9-10.7-0.4c-8.3-1-16.7,0.3-25-1.1
		c-0.6-0.6-0.7-1.3-0.5-2.1c5-3.2,10.4-0.4,15.5-1.1c1.3-0.2,2.8,0.6,3.8,0.2c-3,0.1-6.4-0.2-9.8-0.6c-2.9-0.3-5.7-0.3-8.3,0.6
		c-4.2,1.5-7.2,0.6-8.9-4.1c-1.8,1.5-1.9,4.5-4.7,4.6c-1.4,0.1-2.6-0.4-3.7-1.2c-0.9-0.7-2.3-1.6-1.8-2.7c1.7-3.7,0.8-8.1,3.1-11.4
		c2.1-3.1,4.4-5.9,3.7-9.9c-0.1-0.9,0.4-1.7,1.3-1.9c0.9-0.2,1.6,0.3,2.1,1c1.2,1.5,1.8,3.1,1.9,5c0,1.7,0,3.3,0.4,5
		c1.9,7.6,6.8,9.2,13.2,4.3c0.7-0.5,1.2-1.3,2-1.4c4.4-0.2,6.4-1.9,5-6.7c-0.6-2.1,1.5-3.1,3.2-3.9c2.8-1.4,5.8-2.6,6.9-6
		c0.4-0.6,0.9-1.2,1.5-1.5c0.9-0.4,1.8-0.6,2.8-0.8c8.1-3,10.4-10.3,6.7-20.7c0.5,1.4,0.8,2.8-0.2,4.1c-4-1.1-5.1-5-7.5-7.7
		c-1.3-4.6-5-3.9-8.5-4c-1.9,0-3.6,1.9-5.6,0.4c-0.5-4.7,2.1-8.8,2.8-13.3c0.5-3,7.9-5,11.4-3.1c3.9,2,7.3,1.6,10.7-0.6
		c3.4-2.1,7.3-2.1,11.1-2.5c2.6-0.3,4,1.2,4.2,3.8c0.1,0.7,0.2,1.4,1,1.6c1,0.2,1.3-0.6,1.8-1.3c2.2-3.7,5.3-4.2,8.2-1.2
		c2.6,2.5,2.7,6.3,3.7,9.5c0.6,1.7-1.4,2.3-3,2.5c-6.2,0.5-9.5,5.8-14.2,8.8c-0.9,4.5-2,8.9-3.3,13.3c-1.2,3.9-1.2,7.8-1,11.8
		c0.2,3.5,0.6,7-0.4,10.4c-1.1,4,0.7,6.2,4,8.1c5.3,2.9,6.4,6.6,4,12.4c-1.1,1.2-2.6,1.9-4.1,2.5
		C187.1,133.9,186.1,134.8,185.1,135.8z"/>
	<path class="st95" d="M327,81c1.1,5.6-0.3,11.1-0.1,16.7c0.3,9.3,0,18.5,0.1,27.8c0,2.5-0.5,4.6-2,6.4c1,1.7,0.1,2.7-1.5,2.3
		c-4.1-0.9-8.1,0.1-12.1-0.1c-1.5-0.2-3,0.1-4.5,0.1c-3.4-0.9-6.8,0.4-10.2,0.3c-5.5,1.3-11.2-0.5-16.6,1.4c-2.4-0.8-4.7-0.9-7.1,0
		c-2.6-1.2-5.3-1.9-7.9,0c-0.7,0-1.5-0.1-2.2-0.1c-3-1.5-6.2-0.6-9.3-0.6c-1.3,0-2.7,0.7-3.2-1.2c0-0.6,0-1.1,0.3-1.6
		c1.7-2.1,4.1-1.9,6.3-1.9c5.2-0.1,10.5-0.1,15.7,0c3.7,0.3,7.4-0.1,11,0.1c3.5-0.3,3.1-3.5,3.7-5.5c1.2-4.2,1.8-8.6,2.3-13
		c0.3-2.6,1.4-5,1.5-7.7c-0.5-1.7-2.1-1.9-3.4-2.2c-2-0.5-2.9-1.8-3-3.8c0.7-4.1-1.1-8.5,1.3-12.4c2-1,2.7-5.5,6.3-2.4
		c1.1,2.2,1,4.4,0.4,6.7c-0.4,1.3-1.7,1.2-2.7,1.7c-0.6,0.3-0.9,1.1-0.3,1.6c0.7,0.6,1.1-0.2,1.5-0.6c0.7-0.7,1.1-1.7,2.2-2
		c1.1-2.3-0.5-5,1-7.2c1.7-3.1,2.4-6-0.6-9c-1.6-1.5-1.7-3.9-2.7-5.8c-1.3-2.5-2.5-4.9-5-6.6c-3.8-2.6-3.2-6.9,1.1-8.9
		c1.4-0.6,2.9-1.3,4.3-1c7,1.6,14.2,0.2,21.2,1.8c0.8,0.2,1.7,0.6,2.4,0.4c6.3-2.1,8,2.1,9.5,6.8c1.4,4.5,2.7,8.9,0.7,13.5
		c-0.4,0.6-1.2,1-1.7,0.5c-4.7-4.9-11.8-1.5-17-5.2c-1.9-1.3-3.5,0.8-3.6,3.6c1.2-0.8,1.1-4,3.2-2c1.8,1.8,3.5,4.4,1.3,6.6
		c-3.8,3.6-2.8,7.9-2.9,12.1c0,1.8,0.7,3.3,2.7,3.7c2.7,0.5,4.2,1.9,3.8,4.8c-0.1,0.8,0,1.3,0.9,1.2c2.9-0.3,5.5,1.2,8.3,1.6
		c2.1,0.3,0.2-1.3,0.6-1.9c-1.8-3.1,2.3-4.6,1.9-7.4c0.8-2.2,1.1-4.3,0.8-6.6c-0.2-1.9-0.5-3.9,1.7-5.1
		C326.1,80.5,326.6,80.7,327,81z"/>
	<path class="st96" d="M310.9,132.9c4.4,0.2,8.8-1.3,13.2,0.6c0.6,0.2,0.8-0.9,0.8-1.5c2.7,0,5.9,1,6.8-3.1c1.1,0.5,1.5,1.4,1.7,2.5
		c0.3,1.9,0.6-0.7,1,0c2.4-0.3,4.8-0.4,7.2-0.7c1.3-0.1,2.6-0.1,3.9,0.2c3.4,0.9,3.2,2.3,0.5,4c-3.1,1.2-6.6,0.6-9.7,1.8
		c-0.9,0.3-1.7,0.7-2.6,0.9c-0.7,0.1-1.4-0.1-1.9-0.6c-4-2.3-8.4-0.4-12.6-0.9c-3.1-0.4-6.3-0.2-9.4-0.2
		C309.2,134.4,312.2,134.4,310.9,132.9z"/>
	<path class="st95" d="M205,134.9c-1,0.3-2,0.6-3.1,0.9c-1.4-1.6-4.6,0.8-5.3-2.4c0-0.5,0.2-1,0.6-1.4c1.1-1.1,2.6-1.5,4.1-1.4
		c14,0.5,28.1-0.3,42.1,0.4c2.6,0.1,5.4,0.1,6.9,3c-0.6,2.1-2,1-3.2,0.9c-3.1-0.2-6.2,0-9.3,0.1C226.8,134.7,215.9,134.9,205,134.9z
		"/>
	<path class="st97" d="M138,134c8.7,0,17.4-0.1,26,1c0.2,0.2,0.3,0.3,0.2,0.5s-0.1,0.3-0.2,0.3c-15.7,0.1-31.4,0.2-47,0.4
		c-0.3,0.3-0.6,0.4-1,0.2c-0.1-0.2,0-0.4,0-0.6c-0.1-0.2-0.1-0.5,0-0.8c3.9-2.9,8.5-1,12.7-1.8c0.8-0.2,1.9,0,2.9,0
		c0.4,0,0.9,0,1.3,0C134.6,133.6,136.4,133.2,138,134z"/>
	<path class="st98" d="M205,134.9c3.8-2.3,8.1-1,12.1-1c7,0,14.1-0.8,21,0.7c0.5,0.4,0.5,0.8-0.1,1.1c-10.1,0-20.2,0.1-30.3,0.1
		C206.7,135.8,205.7,135.9,205,134.9z"/>
	<path class="st99" d="M331.9,136.9c0.6,0,1.3,0.1,1.9,0.1c1.6,1.3,1.6,3.2,1.7,5c0.3,5.4-0.9,10.7-1.7,16c-0.6,0-1.1,0-1.7,0
		C332,150.9,332,143.9,331.9,136.9z"/>
	<path class="st100" d="M297,134.1c0-0.6,0-1.2-0.1-1.8c3.1,2.4,6.2-0.3,9.2,0.1c0.3,0,0.6,1,0.8,1.6c0.6,0.6,0.6,1.2,0.1,1.8
		c-3.4,0-6.8,0-10.2,0.1C296.4,135.2,296.4,134.6,297,134.1z"/>
	<path class="st101" d="M297,134.1c0,0.6,0,1.2-0.1,1.8c-5.6,0-11.3,0-16.9,0.1c2.5-3.2,6.2-1.3,9.3-1.8
		C291.6,133.7,294.4,133.7,297,134.1z"/>
	<path class="st102" d="M238,135.7c0-0.4,0.1-0.7,0.1-1.1c3.9-1.4,8-0.1,12-0.6c0.3-0.4,0.6-0.4,0.9,0c0,0.3,0,0.6,0,1
		c0.4,0.2,0.5,0.3,0.3,0.5c-0.1,0.1-0.2,0.2-0.4,0.2C246.6,135.7,242.3,135.7,238,135.7z"/>
	<path class="st103" d="M197.1,133.8c0.8,2.7,4.6-1.7,4.9,2.1c-3.6,0-7.2,0-10.9,0C191.5,132.7,193.3,132.1,197.1,133.8z"/>
	<path class="st104" d="M197.1,133.8c-2.2,0.1-4.7-0.7-6,2c-0.4,0-0.8,0-1.2,0c-0.5-0.8-2.6,0-1.8-1.9c1.1-1.1,2.1-2.3,3.9-2
		c1.9-1.1,3.9-2.1,5,0.9C197.1,133.2,197.1,133.5,197.1,133.8z"/>
	<path class="st105" d="M251,135.7c0-0.2,0-0.5,0-0.7c3.2-1.3,6.6-0.2,9.9-1c1.1-0.3,1.6,0.8,1.9,1.8
		C258.9,135.8,254.9,135.7,251,135.7z"/>
	<path class="st106" d="M265,135.9c2.2-3.3,4.9-3.3,7.9,0C270.3,135.9,267.7,135.9,265,135.9z"/>
	<path class="st107" d="M164.1,135.7c0-0.3,0-0.5,0-0.8c3.3-1,8.4-0.5,9.8,0.9C170.6,135.8,167.3,135.7,164.1,135.7z"/>
	<path class="st108" d="M307.1,135.8c0-0.6-0.1-1.2-0.1-1.8c1.2-1,2.4-1.7,4-1.1c2.4,1.9-0.8,1.9-1,2.9
		C309,135.8,308,135.8,307.1,135.8z"/>
	<path class="st109" d="M116,136.3c0.3-0.1,0.7-0.1,1-0.2c0,3.3,0,6.5,0,9.8c-0.3,0-0.7,0-1,0C116,142.7,116,139.5,116,136.3z"/>
	<path class="st103" d="M188.1,133.9c0.6,0.6,1.2,1.3,1.8,1.9c-1.6,0-3.2,0-4.8,0c-0.5-1.8,0.9-2.6,2-3.2
		C187.8,132.4,187.9,133.4,188.1,133.9z"/>
	<path class="st20" d="M333.8,158c0-7,0-13.9,0-20.9c0.4-1,1.3-1.2,2.3-1.3c3.4-0.7,6.9,0,10.2-1.2c4.9,0.2,10-1.3,14.7,1.3
		c1,0,2,0.1,3,0.1c2.2,2.9,5.5,3.6,8.4,2.7c4.5-1.4,8.5-0.1,12.6,0.8c3.4,0.7,6.6,1.9,10.1,0.4c2.8-1.2,3.9,0.6,3.9,3.2
		c1.8,2.1,1.1,4.8,1.5,7.3c-1.3,2.7,1.9,5.7-0.7,8.3l-0.2,0.2c-2.3,1-3.5-2.6-5.9-1.1c2.2-1.4,3.3-3.1,3.1-5.4
		c-0.2-1.9-0.8-5.3-2.1-4.7c-2.2,1-7.3-1.6-6.4,4.1c0.4,2.2-0.9,2.1-2.3,2.1c-8.9,0-17.9,0-26.8,0c-2.5,0-2.8-0.8-0.4-2
		c2.3-1.8,5.1-1.3,7.7-1.4c5.1-0.2,10.3,0.3,15.4-0.5c-8.3-1.3-16.7,0.3-25-1.2c-1.2-1.8-1.5-6.7-4.6-1.2c-1,1.8-2.8,1.4-4.4,0.8
		c-3.3-1-6.5-0.8-9.4,1.3c-1.8,1.3-4.2,1.8-3.6,5c0.6,3.4,3.5,1.4,5,2.6c-1.5,1.2-3.7-0.3-5,1.4C334.2,159,334,158.5,333.8,158z"/>
	<path class="st110" d="M50.1,114c1.1-2.7,0.3-5.5,0.6-8.2c0.1-0.9-0.1-1.5,0.9-1.8c2.3-0.8,2.4-1.4,0-2.4c-2.1-0.9-1.7-3.1-1.4-4.9
		c0.3-2.4,1.7-3.4,3.7-1.4c1.8,1.8,2.7,3.9,3.1,6.7c0.9,5.9-0.2,10.3-5.9,12.9C50.5,114.9,50.5,114.3,50.1,114z"/>
	<path class="st111" d="M27,135.8c0-1.2,0-2.5,0-3.7c1.2-0.1,2.3-0.2,3.3,0.6c1.8,1.5,3.2,2.5,5.3,0c1.6-1.9,4.4-0.6,6.6-0.2
		c3,0.5,6.2-0.9,8.9,1.3c0.6,0.7,0.6,1.4,0,2.2C43.1,135.9,35.1,135.8,27,135.8z"/>
	<path class="st112" d="M22.2,84.3c4.6,0.3,5.6,2.8,4.9,6.5c-0.2,1-0.3,1.8-1.7,1.8c-1.6-0.1-3.1-3.7-5-0.3c-0.1,0.1-1-0.7-1-1.4
		c-0.1-3,0.9-5.9,0.3-9.1c-0.4-1.9,2.3-1.7,3.9-1.7c1.4,0,3,0.1,3.1,1.8C26.8,84.7,24,83.5,22.2,84.3z"/>
	<path class="st113" d="M22.6,77c-1.2-0.3-4.6-0.2-3.1-1.9c2.1-2.3-3-6.8,2.2-6.7c1.2,0,4.9-1.3,5.1,1.7C27.3,77,27,77.1,22.6,77z"
		/>
	<path class="st114" d="M66.1,88.5c3.5,2.1,6.1,2.1,8.4-0.8c0.5,4.1,0.5,4.1-6.1,6.3c1.7,2,4.3,0.2,5.9,1.6c-3.1,2.1-5.8,2-10.2-0.5
		C67.4,93.8,67.5,91.4,66.1,88.5z"/>
	<path class="st115" d="M75,102.3c-0.6,2.3-1.9,3.6-4.2,3.7c-2.5,0.1-4.5-0.9-4.6-3.4c-0.1-2.2,1.7-3.4,4-3.5
		C72.8,98.8,74.2,100.1,75,102.3z"/>
	<path class="st116" d="M38.1,91c-2.4-1.1-2.3-1-1.4-3.1c0.7-1.5-1.3-2.5-1.8-3.3C31.7,79.3,37,82,38,80.9c1.8,2,1.8-0.9,3-1
		C41.2,84,40.1,87.6,38.1,91L38.1,91z"/>
	<path class="st117" d="M51.5,82.3c0.8-2.2,3-0.5,3.8-2c-0.9-2.1-3-0.8-4.3-1.6c0.2-0.9,1-0.6,1.6-0.8c-4.7-0.7,4.3-5.1-1.5-5.9
		c1.4,0,2.8,0,4.1,0c0.7,0,1.6,0.7,1.2,1c-2.9,2.6,0,4.4,0.8,6.5c0.5,1.2-0.2,1.9-1,2.5C54.8,83.3,53.2,83.3,51.5,82.3z"/>
	<path class="st118" d="M38.1,91c1.7,0.1,3.2,1,2.9,2.7c-0.7,4.5-1,8.9-0.9,13.4c0,1.2-0.8,0.8-1.3,0.8c-1.2-0.1-2-1-1.6-2
		c1.4-3.1,2-6.1-0.1-9.1c-0.1-0.1,0.1-0.6,0.2-0.7c4-1,1.7-2.1,0.1-3.3C37.3,92.6,37.9,91.6,38.1,91L38.1,91z"/>
	<path class="st119" d="M34.4,121.5c3.2-2.8,3.2-2.8-0.1-4.4c1.9-1.7,3.9-1.1,5.8-0.7c-0.5,1.7,1.6,3.5,0.3,4.8
		C38.7,122.8,36.6,122,34.4,121.5z"/>
	<path class="st120" d="M71.1,65c-2,0-4.8-0.4-4.2-2.8c0.8-3,3.9-2.2,6.9-2C72.8,62.1,71.9,63.6,71.1,65L71.1,65z"/>
	<path class="st121" d="M71.1,65c1.4,0.1,2.7,0.5,3.5,1.6c0.9,1.2,0.3,2.7-0.8,2.9c-2.3,0.3-0.1-1.2-0.5-1.6c-1.7-1.6-3.3,1.3-5,0.2
		c0,0.9,0.3,2.4-1.4,1.1c-0.9-0.7-0.8-1.7,0.1-2.5C68.2,65.6,70.2,66.6,71.1,65L71.1,65z"/>
	<path class="st122" d="M73.8,83.6c-2-4.3-4.9-1.5-7.4-1.6c1.7-3.7,4.7-3.6,7.3-2.4C75.9,80.7,75.1,82.5,73.8,83.6z"/>
	<path class="st123" d="M62,135.9c-1.7,0-3.3,0-5,0c-0.6-0.6-0.6-1.3,0-1.9c0.3-2.4,2.1-2.2,3.7-1.8C62.8,132.7,61.9,134.5,62,135.9
		z"/>
	<path class="st124" d="M79.2,135c-2.2,1.7-4.8,0.7-7.1,1c0.8-3.6,4.5-1.9,6.4-3.5C78.8,132.3,79,134.1,79.2,135z"/>
	<path class="st125" d="M40.9,124.2c-0.9,4-3.7,2.5-7,2.2C36.3,124.1,39.1,125.8,40.9,124.2z"/>
	<path class="st126" d="M50.1,114c0.3,0.3,0.7,0.7,1,1c3,3.8,4.3,1.9,5-1.7c1.4,1.1,1.8,2.1,0.7,3.4c-1.1,1.3-2.5,1.4-4,1.3
		C50.4,117.6,50,116,50.1,114z"/>
	<path class="st103" d="M70,135.9c-2.3,0-4.6,0-6.9,0C65.4,133.2,68,133.2,70,135.9z"/>
	<path class="st127" d="M57.1,134c0,0.6,0,1.3,0,1.9c-2,0-4,0-6,0c0-0.7,0-1.4,0-2.2C53.1,133.8,55.1,133.9,57.1,134z"/>
	<path class="st128" d="M51.1,61.2c-1.6-2.2-0.4-3.3,0.5-4.4c0.1-0.1,1.4,0.5,1.5,0.9C53.5,59.5,51.2,59.3,51.1,61.2z"/>
	<path class="st20" d="M59.1,145.9c-2.4,1.5-4.4,3.4-7.7,2.1c-1.9-0.7-3.2,1-3.6,3.5c-1.3-2.9,0.3-5.6-1.6-7.6
		c-0.4,0.4-0.8,0.3-1.1-0.1c0.4-0.3,1-0.6,1.1-1c1.6-6,4.8-5.7,8.9-2.5c1.5,1.2,2.8,0,4.2-0.2c9.1-1.6,18.2-1.9,27.4-1.4
		c1.1,0.1,2.2-0.4,3.4-0.5c8.5-1.4,18.2,5.2,19.8,13.7c0.3,1.7,1,3.6-0.9,5c-0.5-0.2-1.1-0.4-1.2-0.8c-2.3-9-9.6-7.6-15.9-7.3
		c-9,0.5-17.9,0.6-26.9,0.5C62.3,149.3,59.8,149.1,59.1,145.9z"/>
	<path class="st129" d="M59.1,145.9c1.2,1.5,2.7,2.1,4.7,2.1c9.5-0.1,19.1,0.3,28.5-0.7c4.2-0.4,8.1,1.1,12.2,0.9
		c2-0.1,3.8,1.6,3.2,4.1c-0.5,1.9,0.7,3.1,1.2,4.7c-0.3,0.4-0.6,0.7-0.9,1.1c-2,0-4,0-6.1,0c0.8-1.9,3.5-0.1,3.6-2.1
		c0.1-1.9-1.8-2.7-3.3-3.3c-3.9-1.3-7.6-4.5-12.1-1.7c-0.7,1-1.5,1.9-2.8,1.9c-9.1,0-18.1,0.7-27.2-0.7
		C58.9,150.2,59.1,148,59.1,145.9z"/>
	<path class="st130" d="M28.1,147.9c0.5,0,1,0,1.5,0c2.1-0.2,4.8-2.5,6.1,0.4c1.1,2.5,0.2,6.1-1.5,7.9c-1.8,1.9-5.5,1.3-8,0.4
		c-2.4-0.9,1.5-3.1-0.1-4.6C25.4,149.9,26.3,148.7,28.1,147.9z"/>
	<path class="st131" d="M45.1,143.7c0.4,0,0.7,0.1,1.1,0.1c0,7.5-1.8,9.1-7.9,7.1C35.7,144.6,36,144.3,45.1,143.7z"/>
	<path class="st132" d="M24.1,143.9c0.3,0.3,0.7,0.7,1,1c2.7,2.1,2,4.2,0.1,6.3c-1.8,1.9-3.9,2.6-6.2,0.8c-2-1.5-3.2-3.8-2-6.1
		C18.5,143.3,21,142,24.1,143.9z"/>
	<path class="st133" d="M24.1,143.9c-5.4,0-7.6,1.6-6.6,4.7c0.8,2.4,2.3,4.3,5.1,3.4c3.6-1.2,4.4-3.8,2.5-7.1c2.2-0.2,2.2,1.8,3,3
		c-0.7,1.3-1.4,2.7-2,4c-2.2,1.8-4.4,3-7.2,1.2c-2.2-1.5-3.4-3.6-2.9-6.4c0.5-2.6,2.6-3.8,4.8-4.5C22.3,141.8,23.9,141.6,24.1,143.9
		z"/>
	<path class="st3" d="M34.2,158.8c-1.7,0.1-3.4,0.1-5.2,0.2c-4.4-0.5-8.8,0.8-13.1-0.9C22,158.5,28.1,156.9,34.2,158.8z"/>
	<path class="st134" d="M94.2,135.8c2.9-1.9,5.8-3.9,8.7,0C100,135.8,97.1,135.8,94.2,135.8z"/>
	<path class="st135" d="M399.8,158.7c0-2.6-2.1-5.2,0.1-7.7c3.1-0.5,6.4-0.9,8.1-4.1c0.6,0.3,1.1,0.9,1.7,0.9
		c8.2,0.5,8.6,1.2,5.8,9.2c-0.2,0.5,0.2,1.2,0.3,1.9C410.6,158.8,405.2,158.7,399.8,158.7z"/>
	<path class="st136" d="M408.1,146.8c-0.7,4.9-2.7,5.9-8.1,4.1c-2-2.4-0.5-5.2-0.9-7.8c1.8,0,3.6,0.1,5.4-0.1
		C407.4,142.7,408.3,144.2,408.1,146.8z"/>
	<path class="st137" d="M427.9,153c-2.6,1.4-4.9,1.5-7.2-0.8c-1.9-1.9-2.3-4-1.5-6.3c0.8-2.6,3.3-3.3,5.5-3.6
		c4.1-0.6,5.1,2.8,6.3,5.7C432.6,151.2,430.5,152.2,427.9,153z"/>
	<path class="st138" d="M427.9,153c1.4-1.4,3.5-2.5,3.1-5c2,1,2,2.8,1.9,4.7c0,2.1-0.1,4.1-2.9,4.2C426.7,157,429,154,427.9,153z"/>
	<path class="st139" d="M395.2,135.7c2.2-1.6,4.4-3.9,6.6,0C399.5,135.7,397.3,135.7,395.2,135.7z"/>
	<path class="st140" d="M361,135.9c-5-0.3-10.2,1.1-15.1-1c-1,0.2-1.3-0.1-0.8-1c0.8-0.1,1.8-0.1,2-1.1c0.2-0.9-0.6-0.9-1.3-0.9
		c-1.6,0-3.3-0.1-4.9-0.1c-3.3-1.7-5.2-3.9-4.7-8.2c0.4-4.1-3.2-7.5-3.2-11.7c0.3-5.7-0.8-11.3,0-17c0-0.8,0.1-1.6,0.3-2.3
		c2.5-1.6,5-0.4,6.4,1.1c1.7,1.8,0.3,4.1-0.5,5.4c2.9-2.3,8.6,0.4,11.6-4.2c8.3-2.2,16.7-2.2,25.2-2.1c3.1,0,6.1,1,8.1,0.7
		c-10.3-1.7-21.7-0.4-33.1,0.4c-0.7,0-1.3-0.3-1.9-0.6c-4.3-6.4-2.1-12.4,5.7-13.9c-1.7-1.2-3.1-2-4.4-0.5c-1.9,2.1-3.7,1.7-5.7,0.5
		c-3.5-2-7.1-4.8-10.1,0.6c-0.1,0.2-0.8-0.3-1.1-0.8c-0.5-2.7-0.4-5.4-0.3-8.1c0.7-2.7,0.8-5.5,0.9-8.3c0.2-6.1,0.5-6.5,6.8-6.7
		c1.6-0.1,3.2-0.5,4.9-0.3c2.1,0.2,3.2,1.5,3.8,3.3c0.5,3.1,0,6.9,4.4,7.8c5.3,1.1,10.5,1.6,14.9-2.5c1.2-1.1,2-2.6,3.1-3.8
		c2.6-1.8,0.2-4.4,1.1-6.5c2-2.4,4.8-2.5,7.6-2.5c2.4,0,4.5-0.4,5.9-2.7c0.4-0.3,0.9-0.4,1.4-0.4c3.9,3.1,8.6,1.9,12.7,1.6
		c5.8-0.4,11.5,0.4,17.2-0.1c1.8-0.2,3.1-0.6,4.5-1.5c1.9,0.6,4-0.1,5.9,0.5c3.6,1.7,4.8,4.6,4.7,8.5c-0.2,15.4-0.5,30.8-0.4,46.2
		c0,7.7-0.6,15.5,0.7,23.1c0.4,2.6-1.4,3.9-3.3,5c-13.8,0-27.5,0-41.3,0c-6.5,0-13.1,0-19.6,0C365.8,132,363.2,133.6,361,135.9z"/>
	<path class="st141" d="M430,131.9c4.9-4.5,1.4-9.9,1.7-14.9c0.3-5.3-0.2-10.6-0.1-16c0.1-5.6,0-11.1,0.3-16.7
		c0.3-7.5-0.1-15,0.2-22.4c0.2-5.2-0.1-9.8-5.1-12.8c5.1-2.1,6.3-1.4,6.5,3.7c0.2,4.8-0.7,9.6,0.5,14.3c0,16.9,0.2,33.9-0.2,50.8
		c-0.1,4.7,1.1,9.5-0.8,14.1C432,131.9,431,131.9,430,131.9z"/>
	<path class="st142" d="M433.9,67c-2-3.9-1-8.1-0.8-12.1c0.2-4.9-1.4-6.7-6.2-5.9c-1.4,2.7-2.7,2.6-4,0c-10.9,2.2-21.8,0.7-32.8,1
		c-0.8,0-1.5-0.5-2.2-1h-0.5h-0.5c-3.3,2.2-7,1.7-10.6,1.5c-12.1-0.9-24.2,2-36.3,0.7c-3.4-0.4-3.4,4-6.4,3.8c-1-1.6-0.7-3.3-0.6-5
		c0.5-1.8,0.4-3.6,0.5-5.4c0.3-6,1-6.6,6.9-7c1.3-0.1,2.6,0,3.9-0.5c0.8-0.3,1.7-0.5,2.6-0.5c14.5,0.4,29.1-0.5,43.6,0.5
		c0.8,0.1,1.6,0.3,2.3,0.8c0.4,0.1,0.7,0.1,1.1,0.2c1.5,1.6,3.4,0.9,5.2,0.9c9,0.1,17.9,0,26.9,0c4.2,0,6.7,0.8,7.2,6.2
		C434,52.6,433.5,59.8,433.9,67z"/>
	<path class="st143" d="M60.2,152.1c8.1,0,16.1-0.1,24.2-0.1c2,0,4,0,5.7-1c-0.3,2.3-1.7,3-3.8,3c-8.3-0.1-16.5-0.1-24.8-0.2
		C60.5,153.8,60.2,152.9,60.2,152.1z"/>
	<path class="st144" d="M357,148.8c8.8-1.8,17.8-0.5,26.7-0.8c1.4-0.1,2.2,0.7,2.1,2.2c-0.2,1.9-1.7,1.8-3,1.8c-7.9,0-15.9,0-23.8,0
		C359.1,150.3,357.4,150,357,148.8z"/>
	<path class="st145" d="M334.1,50c0,1.7,0,3.3,0,5c0.8,5.3,0.4,10.7,0,16c0,3,0,6,0,9c2,4,2.1,8.1,0,12.1c-0.1,0.7-0.3,1.4-0.4,2
		c-0.6,3.5-0.1,6.9-0.3,10.4c-0.1,1.1,0.6,2.9-1.7,2.6c-0.5-16.8,0.1-33.6,0.5-50.4c0.1-4.9-0.2-9.8-0.1-14.6c1.6-0.8-2.3-4.5,2-3.9
		C334.7,42.1,334.6,46,334.1,50z"/>
	<path class="st146" d="M346.8,37.8c-0.6,0.1-1.3,0.2-1.9,0.3c-3,0.4-5.9,1-8.8-0.3c0-2.1-2-2.4-3.1-3.6c0.3-0.1,0.7-0.2,1-0.2
		c1.9-0.1,3.2,0.8,4.9,1.8c2.7,1.7,5.1-1.8,8-1.7C348,35.4,348,36.6,346.8,37.8z"/>
	<path class="st147" d="M336,37.9c2.9,0.1,5.9,0.2,8.8,0.3c-0.4,0.3-0.8,0.7-1.2,0.8c-2.7,0.6-6.2-1.2-8,1.1
		c-1.8,2.1-0.4,5.4-0.7,8.2c-0.1,0.6-0.5,1.2-0.8,1.8c0-3.9-0.1-7.9-0.1-11.8C334.7,38,335.4,37.9,336,37.9z"/>
	<path class="st148" d="M319,38c2.6-0.1,5.3-0.2,7.9-0.3c1,0.1,2,0.2,3,0.4c-0.3,0.9,1.3,3.9-2,1.3C325.6,37.7,321.7,40.3,319,38z"
		/>
	<path class="st149" d="M325,75c1.9-6.8-1.4-12.8-3.2-19c-0.3-1-1.1-1.9-2.2-1c-2.6,2-5.1,0.5-7.6,0c-6.7-1.3-13.7,0.1-20.4-1.8
		c-1.4-0.4-3.6,0.7-5.1,1.7c-2.3,1.6-2.6,4.9-0.4,5.6c4.5,1.3,4.7,5.2,6.5,8.1c1.6,2.5,1.7,5.7,4.8,7.8c1,0.6,0.4,5.6-2.4,7.6
		c-1.7-1.1-0.6-3.7-2.6-4.8c-1.4-1.5-3.4-1.7-5.1-2.7c-3.2-2.6-6.9-1.2-10.3-1.2c-2-0.2-1.9-2.3-3-3.4c-0.4-0.3-0.8-0.5-1.2-0.6
		c-8.5-0.2-16.9-0.3-25.4,0.1c-0.3,0.3-0.5,0.7-0.8,1c-0.6,1-1.3,1.8-2.5,2.1c-0.4,1.4-3.9-2.1-2.6,1.7c-0.7,5.1-0.7,5.1-8.6,5.7
		c-0.4-0.3-0.7-0.8-0.8-1.2c-0.5-2.4-0.9-4.9-1.4-7.3c-0.1-0.7-0.3-1.4-0.9-1.8c-9.2-0.9-18.3-0.4-27.5-0.2
		c-0.3,0.3-0.6,0.7-0.9,1.1c-1.2,2.2-3.3,2.6-5.5,2.4c-2-0.2-3.9,0.4-5.8,0.7c-0.8,0-1.5-0.3-2-0.8c5.3-2.9,8.5-9.6,15.8-9.1
		c0.9,0.1,1.6-0.1,1.9-1.1c0.6-2.1-4.9-10.5-7.2-10.7c-1.5-0.1-3.6-0.2-2.8,2.1c1.6,5-3,2.8-4.1,3c-2.8,0.5-1.2-1.6-1-2.9
		c0.4-2.8-0.9-3.4-3.6-3c-4.6,0.6-9.2,1.5-13.1,4.1c-2.2,1.5-4.8,1.6-6.5,0.1c-3.5-3.2-6.8-1.1-10.2-0.5c-1.3,0.2-2.6,1.2-2.4,2.2
		c1.2,4.8-2.7,8.3-3,12.6c-0.8,1.5-2.4,2.3-3.4,3.6c-1.2,1.2-2.1,2.7-3,4.1c-1.6,1.9-0.4,5-2.8,6.6c-2.7-0.3-2.7-2.4-2.9-4.4
		c-0.5-6.6-0.5-6.6-7-6.7c-1.4,0-2.1-0.8-2.3-2s1.1-3.2-1.5-3.3c-2.3-0.1-4.3,0.3-5.2,2.8c-0.9,2.6-2.8,4-5.4,4.6
		c-1.6,0.4-2.1-0.4-2-1.9c0.1-7-0.1-14,0.1-21c1.6-2.8,4.4-3.6,7.3-3.4c5.5,0.4,10.9-0.3,16.4,0.1c12.1,1,24.2-1,36.3-0.6
		c7.6,0.2,15.3,0.8,22.9,0.3c1.8-0.1,3.6,0.4,5.2,1.5c0.2,0.2,0.5,0.4,0.6,0.7c2.6,6.8,2.6,6.8,9.9,6.7c14-0.2,27.9,0.6,41.9,0.1
		c1.7-0.1,3.5-0.1,4.9,0.7c7,4.1,12.1-1.6,19-2.6c-3.3-2.8-8.5-1.6-8.1-6.7c4.3-2.4,9-1.9,13.5-2c11.1-0.2,22.2,0.1,33.3-0.1
		c4.1-0.1,6.9,1.8,6.9,5.5c0,8.3,1.8,16.5,1.2,24.8c0,0.6-0.6,1.1-0.9,1.7c-0.4,0-0.7,0-1.1,0C324.5,79.2,324.1,77.2,325,75z"/>
	<path class="st150" d="M273,51c2,4.4,7.7,2.6,10.5,6.5c-3.8,1.9-7.2,4.4-11.7,3.9c-0.4,0-1.3,0.1-1.3,0.3c-1,7.2-4.9,1.3-6.4,0.8
		c-2.2-0.7-4.2-1.6-6.6-1.6c-14.9,0-29.7,0.1-44.6,0c-8.7,0-7.9,1.5-8-8c0.5-2.8,2.9-2.3,4.7-2.4c4.3-0.1,8.6,0.2,12.9,0.4
		c9.8,0.2,19.5,0.1,29.3-0.4c2-0.1,4-0.1,6,0.3c4.7,1.6,9.4,0.5,14.1,0.2C272.3,51,272.6,51,273,51z"/>
	<path class="st151" d="M259,52.1c-5.9,0.3-12,1.2-17.6,0.9c-10.4-0.5-20.8-0.7-31.3-0.9c-1.7,0-3.7-0.7-5.1,0.9
		c-5.9-2.2-12-0.4-18-0.8c-9.5-0.7-19.3-1.2-28.7,0.1c-10,1.3-19.9-0.7-29.9,0.4c-3.7,0.4-7.7-1-11.3,1.4c-0.6-0.7-0.6-1.4-0.1-2.1
		c0-0.6,0-1.3,0.1-1.9c3.2-2.3,6.8-0.7,10.1-0.9c7.4-0.3,14.8,0.7,22.1,0.3c14.1-0.7,28.3,0.7,42.2-0.9c10.2-1.1,19.8,0.9,29.7,1.3
		c5,0.2,9.9-0.7,14.9-0.9c7.8-0.3,15.5-0.3,23.3,0.1c2.6,0.1,5-2.2,7.6-0.1C265.5,53.3,262.3,52.8,259,52.1z"/>
	<path class="st145" d="M331.7,107.1c2.4-2.1,0.9-4.9,1.3-7.4c0.3-1.9-0.6-3.9,0.8-5.7c0.1,6.3,0.2,12.6,0.3,19
		c0.5,4.7,1.9,9.3,1.4,14.2c-0.2,1.7-0.2,3.3-1.3,4.7c-2.8,0.6-1.7-1.9-2.4-3C331.7,121.6,331.7,114.4,331.7,107.1z"/>
	<path class="st149" d="M259,52.1c3.3,0.6,5.6-1.3,8-3c1.8,0.4,3.6,0.6,5,2C267.8,53.4,263.5,53.8,259,52.1z"/>
	<path class="st148" d="M307,37.8c3.3,0.1,6.6,0.1,10,0.2c-7.9,1.7-15.9,1.4-23.8,0.2C297.7,38.1,302.4,38,307,37.8z"/>
	<path class="st152" d="M185.1,38.1c5.6,0,11.3,0,16.9,0.1C196.3,39.5,190.7,39.7,185.1,38.1z"/>
	<path class="st153" d="M117,52c0,0.7,0.1,1.4,0.1,2.1c0,7.6,0,15.3,0,22.9c0.2,0.9-0.1,1.2-1,1c0-8.7,0.1-17.3,0.1-26
		C116.5,52,116.7,52,117,52z"/>
	<path class="st93" d="M132.1,133.8c-3.2,1.1-6.6,0.3-9.8,0.7c-2.1,0.2-4.2,0.3-6.2,0.4c-0.1-0.2-0.2-0.5-0.2-0.8
		c0.2-0.2,0.3-0.4,0.5-0.6c0.4-1.1,0.6-2.3,1.9-2.7c3.7-0.7,7.4,1.1,11.2,0C130.9,130.5,132.9,131.3,132.1,133.8z"/>
	<path class="st154" d="M19.1,18.1c6.9,0.1,7.9,1.4,6,8c-2.3,0.6-4.6,1.7-6.5-1C16.6,22.4,17.3,20.3,19.1,18.1z"/>
	<path class="st60" d="M346.8,37.8c0-1.2,0-2.4,0-3.6c7.3,0.7,14.6,0.9,21.9-0.1c7.9-1.1,15.4,2.4,23.2,2.3c0.3,0,0.6,1,1,1.5
		C377.5,37.9,362.1,37.8,346.8,37.8z"/>
	<path class="st94" d="M116.1,78c0.3-0.3,0.7-0.7,1-1c2.8-1.3,5.5-2.4,6.2-6.2c0.4-2.1,6.7-3.6,8.5-2.3c1.6,1.1,1.5,2.4,0.1,3.7
		c-0.6,0.5-0.6,1.2-0.1,1.7c0.5,0.7,1.1,0.5,1.7,0c1.4-1.1,2.8-3.1,4.6-1.2c1.9,2,3.7,4.3,3.3,7.4c-0.3,2.2-0.9,4.3,1.6,5.7
		c3.1,2.1,3.8,5.1,3,8.6c-1.6,3.9-4.4,5.3-8.7,4.8c-3.9-0.5-4.6-3.3-5.6-6.1c-0.5-1.3-0.6-2.9,0.8-3.5c4.5-1.9,0.6-3.3-0.1-4.9
		c-1.1,3.2-1.7,6.3-3.8,9c-1.5,2,0.3,4.5,0.4,6.7c0.1,1.5,0.3,3.3-1.6,3.7c-1.7,0.4-2.2-1.3-2.5-2.5c-0.7-3.2-2.8-4.7-5.7-5.4
		c-1.1-0.3-2.3-0.7-2.6-2c-0.2-5,0.5-10.1-0.4-15.1C116.1,78.8,116.1,78.4,116.1,78z"/>
	<path class="st155" d="M116.1,79.1c2,5.2,0.3,10.6,0.9,15.8c1.2,1.3,1.5,2.9,1.5,4.6c0.1,9.3,0.2,18.5,0,27.8
		c0,1.7-0.3,3.3-1.4,4.6c-0.1,0.6,0,1.4-0.8,1.6C116.2,115.5,116.2,97.3,116.1,79.1z"/>
	<path class="st156" d="M188,75c0.6,0,1.3,0,1.9,0c1.8,6.6,1.4,13.4,1.2,20.1c0,1.3-0.6,2.6-0.2,3.9c2.1,3,4.6,1.3,7.1,0.6
		c1.3-0.3,2.5-0.6,3.5,0.6c0.4,3.5,2.4,4.9,5.8,4.3c9.6-1.9,19.4-1.8,29.2-2.1c11-0.4,21.7,3.2,32.7,2.3c1.6-0.1,3.4,0.9,4.5-1.1
		c0.5-1.1,0.9-2.2,2-3c3.4-0.1,6.4-1.3,9.2-3.2c0.5,0,0.9,0.2,1.2,0.5c-0.2,2.5,1.1,3.1,3.3,3c2.1-0.1,3.6,0.6,3.6,3
		c-0.5,0.4,0.3,0.2-0.3,0.4c-8.8,2.8-16.1,9.2-25.5,10.6c-0.8,0.1-1.7,0.3-2.5,0.1c-3.9-1.3-6.7,0.4-9.1,3.3c-1.8,0.9-3.1,2.4-4.3,4
		c-2.6,3.4-4.8,3.3-7.5,0.2c-0.2-0.2,0.4-1.6-0.7-0.3c-1.5,1.9-3.1,1.5-4.6,0c-0.3-0.3-0.5-0.5-0.6-0.4c-4.8,4.6-4.4-0.2-5.3-3.2
		c0.7,2.4,0.4,4.3-1.2,5.8c-1.5,1.5-3.3,1.2-5.1,0.8c-2.9-0.6-5.3-3.8-9-1.4c-0.8,0.6-3.4-0.8-3.8-3.2c-0.9,2,0.2,7-4.7,3.6
		c-0.1-1.2-0.4-1.7-1.2-1.5c-2.9,0.9-2.5-1.7-3.4-2.9c-0.1,1.4,0.9,3.1-0.4,4.6c-0.4,0.3-0.9,0.5-1.4,0.6c-1.9,0.2-3.7,0.3-5-1.4
		c-1.5-2,1.5-2.6,1.4-4.6c-3.3-0.6-6.5-1.9-9.8-2.5c-3.2-0.6-4.4-2.6-4.3-5.7c0.2-7.3,0.3-14.5,0.3-21.8C186,84.3,187,79.7,188,75z"
		/>
	<path class="st157" d="M117.1,132c0-12.3,0-24.7,0-37c5.9-0.2,9.4,2.3,9.3,10.1c2.5-3.9,0.6-6.2,0.3-8.3c-0.2-1.7-1-3.4,0.7-4.5
		c2.6-1.6,2.8-3.8,2.6-6.4c-0.1-1.5,0.1-3.2,1.9-3.6c2.3-0.5,2,1.8,2.6,2.9c0.9,1.8,1.5,3.7,2.3,5.6c-1.5,1.3-4.5-2.7-4.4,0.8
		c0.1,2,0.3,5.6,4,6.5c3.6,0.9,6.3-0.2,8.6-3c1.5,0.4,2.3,1.8,3.8,2.2c1.3,0.7,2.6,1.2,2.6,3.1c0,3.9,1.8,5.1,5.5,4.2
		c2.2-0.6,3.5-3.1,6.2-2.5c0.4,4.9-3.9,5.4-6.8,7c-2.4,1.3-4,2-1.9,5c1.5,2.2-1.1,5.7-4,5.8c-0.9,0-2.7-0.4-2.8-0.3
		c-1.5,5.8-7.1,2.4-10.1,4.5c-2,1.4-3.6,0.4-4.3-1.6c-1.2-3.7-3-7.3-2.6-11.3c0.3-2.7-1-4.2-2.9-5.8c1.3,4.6-0.1,8.2-3.6,11.1
		c-2.1,1.7-1.1,4.3-1.7,6.5c-0.3,1,0.9,2.2-0.5,3.1c-2.8,1.8-0.8,2.9,0.7,3.9c1.9,1.3,3.6,1.8,4.6-1.1c0.7-2,1.6-4,4-4.7
		c0.7,7,2.5,8.2,9.1,5.6c2.1-0.8,4.1-0.7,6.3-0.5c3.9,0.3,7.8,2.8,11.9,0.2c1.3-0.8,2.2,0.7,3.2,2.5c-8.3,0-16,0-23.7,0
		c-1.3,1.6-3.5,1-5.1,1.8l-0.4,0.1h-0.4c-0.4-2.3-2.3-1.9-3.8-1.9C124.5,131.9,120.8,132,117.1,132z"/>
	<path class="st158" d="M209,123.9c1.2,0.5,2.5,1.6,2.9-0.8c0.3-1.9,1-3.7,0.8-5.8c1.1,2.9,2.4,5.3,5.7,5.8c1.3-1.1-0.2-3.3,1.9-4.5
		c1.1,1.3,0.7,4.2,3.4,4.4c2.1,0.2,4,2.4,6.1,1.2c2.7-1.5,2.8-3.9,0.5-6.1c3.8-0.7,3.8-0.7,3.7,2.6c0,0.8,0,1.7,1.1,2
		c1,0.3,1.5-0.3,1.8-1.2c0.2-0.6-0.5-2.3,1.4-1c4.1,2.8,4.1,2.7,4.5-2.1c1.5,0,2.2,0.9,2,2.2c-0.1,1.5-0.6,3,1.6,3.3
		c1.9,0.2,3.4-0.7,4-2.3c0.8-2.2,1.7-4,4.5-3.6c0.9,0.3,1.2,1.6,2.8,0.4c2.2-1.6,5.2-1.8,7.6,0.4c0.5,0.5,0.2,1.1,0.8,0.1
		c1.5-2.4,4.6-1.1,6.6-2.8c1-0.9,2.6-0.1,3.5,1.1c2.7,3.3,0.7,12.8-3.2,14.8c-6,0-11.9,0-17.9,0.1c-1.7,0-3.9-0.8-4.2,2.1h-0.4h-0.4
		c-3.8-2-8-2.1-12-2.1c-12.1,0.2-24.1,0.4-36.2-0.1c-1.7-0.1-3.3,0.1-4.8,1c-1.4-1.6-3.3-0.7-5-0.9c1.7-6.5,0.9-8-4.9-11.6
		c-3.2-2-5.5-4.5-3.9-9c2.1-5.9-0.5-12.2,0.7-18.2c0.3-1.4-0.4-3,1-4.2c2.1,3.4,0.8,7.1,0.9,10.6c0.2,3.6-0.4,7.1-0.3,10.7
		c0,2.7,0.6,5.3,4.4,5.1c3.2-0.2,5.8,2.9,9.4,1.7c1-0.3,1.9,0.9,1.9,1.9c0.1,2.3-1.9,2.7-4,3.4c2.2,2.3,4.6,1.3,6.7,1.5
		C205.7,123,207.4,123.6,209,123.9z"/>
	<path class="st159" d="M166.9,101c-0.9,0-1.9,0-2.8,0c-3.6,0.7-7.3,0.4-10.6-1.2c-5.1-2.5-7.5-6.7-6.8-12.6
		c0.2-4.9,2.1-8.7,6.9-10.7c0.8,0,1.5,0.3,1.8,1.1c0.1,0.8-0.1,1.5-0.6,2.1c-0.9,1-1.5,2.1-1.7,3.5c-0.3,2,0.4,4.7,2.3,3.6
		c3.8-2.2,8.8,5,11.4-1.7c0.5-1.4-0.5-3.4,1.5-4.3c2.3,0.8,2.5,2.9,2.8,4.9c0.3,1.6,0,3.4,1.1,4.8C174,95.7,168.9,97.5,166.9,101z"
		/>
	<path class="st160" d="M147.9,86.9c0.3,9.5,2,11.1,12.1,12.5c1.4,0.2,2.7,1.1,4,1.7c-0.3,0.3-0.7,0.7-1,1c-1.7,1.2-3.4,2.6-5.2,3.5
		c-4.1,2.2-6.6-0.5-9-3.4c-0.4-0.5-0.6-0.9,0.1-1.6c1.1-1.2,1-1.4-0.8-2.6C145.3,93.5,145.2,89.8,147.9,86.9z"/>
	<path class="st161" d="M155.1,77.7c-0.4-0.3-0.8-0.6-1.2-0.8c-0.6-0.7-0.7-1.5-0.4-2.4c5.1-3.8,8.8-3.7,12.5,0.4c3,2.1,5,5,6.9,8.1
		c1.8,2.9,2.7,5.6-0.8,8c-2.5-0.2-2.1-2-2.1-3.6c0.1-2.3-0.1-4.5-1.8-6.4c-1,0.1-1.9-0.1-2.8-0.6C162.6,77.5,158.5,79,155.1,77.7z"
		/>
	<path class="st162" d="M172.2,91c1.9-2.5,0.6-5.3,0.8-8c0.5-2.3-0.8-4.4-1.6-7.4c6.1,4.8,5.5,10.5,4.5,16.1c-0.9,4.8-3.8,8.3-9,9.2
		c-0.4-2.4,1.6-3.5,2.8-5C171,94.5,172.3,93.1,172.2,91z"/>
	<path class="st163" d="M166,74.9c-4-3.1-8.1-1.8-12.1,0c-1.3,1.4-2.9,2.1-4.8,1.8c-0.8-0.3-1.3-0.7-1.2-1.7c1-1.5,2.1-2.9,4.1-3.1
		c5.1-3.4,10.1-1.9,15.1,0.4c0.5,0.2,1.3,0.9,1.2,1.3C168.2,74.8,167,74.8,166,74.9z"/>
	<path class="st157" d="M128.9,121.8c-1.3,0.1-1.8-0.6-1.8-1.8s0.3-2.4,1.7-2.6c1.3-0.2,1.5,1.1,1.8,1.9
		C131,120.8,130.1,121.4,128.9,121.8z"/>
	<path class="st164" d="M133,133.8c0.8-3,3.3-1.4,5.1-1.8c0,0.7,0,1.3,0,2C136.3,135.2,134.6,135,133,133.8z"/>
	<path class="st165" d="M325,75c1.2,1.9,1,3.9,1,6c-1.5,1.3-1.4,3.2-0.8,4.6c1.2,2.9,0,5.1-1.2,7.4c-3.1,3.1-4.1-2.3-6.4-1.4
		c1,2.6-0.1,6.7,4.5,7.4c-0.1,1.9,1.6,2.7,3.2,4.3c-6,0.7-10.7-4.8-16.4-1.1c1.6-3.5,4.3-6.8-2.3-7.1c-1.4-0.1-3.7-1.7-2.8-4.8
		c1.2-4.3-1.9-9.7,3.8-13.1c1.5-0.9-0.7-3.5-1.6-5.1c-0.9-0.1-0.7,0.5-0.8,0.9c-0.3,1.2,0.7,3.2-1,3.4c-2.4,0.4-1.3-2.1-1.9-3.2
		c-1.8-3.4,1.8-3.3,3.2-4.7c1.3-1.3,2.3-1.4,3.3,0.5c0.9,1.6,6,2.1,7.6,0.9c1.2-0.9,1.7-0.3,2.5,0.3C320.7,71.8,322.9,73.4,325,75z"
		/>
	<path class="st20" d="M273.1,131.9c4.6-3.7,2.5-8.9,2.7-13.5c0-0.5-0.9-1.5-1.2-1.4c-2.7,0.8-5.3,1.6-7.9,2.7
		c-1.1,0.5,1.1,3.2-1.3,2.8c-2.1-0.4-0.6-2.5-1.1-4.5c-1.6,3.2-7.8-2.7-6.4,5.6c-2.4-2-2.6-3.8-3-5.5c2-4,4.4-5.9,9.4-4.3
		c3.1,1,7-0.2,10-2c5.8-3.5,11.7-6.7,18.5-7.7c-0.7,2.7-1.3,5.3-2,8c-2.2,6.6-3.4,13.5-6,19.9C281,131.9,277,131.9,273.1,131.9z"/>
	<path class="st166" d="M322,99c-4.4,0.6-5.5-0.5-4.4-4.6c0.5-1.9-2.3-2.5-1.3-4.3c2.9,0,4.8,2.8,7.7,2.9c-1.3,0.7,3,4.4-1.9,3.4
		C320.7,96.1,323.7,98.1,322,99z"/>
	<path class="st167" d="M284.9,131.9c-1.8-2.6,0.7-4.6,1.2-6.9c0.9-4.6,2.2-9.1,4.9-13.1c-0.1,6.6-2.5,12.7-3.4,19.1
		C287.3,132.2,285.9,131.9,284.9,131.9z"/>
	<path class="st20" d="M286,98c-0.4,0-0.8,0-1.2-0.1c-2.4-1.3-2.2-3.5-2-5.6c0.6-4.9,0.7-9.8,1.1-14.7c0.1-0.5,0.4-1,0.8-1.5
		c1.3-0.7,2.1,0.2,2.9,1c0.6,1,0.7,2.1,0.8,3.3c-0.1,2-0.1,4-1.5,5.6C285.2,89.9,286.9,94,286,98z"/>
	<path class="st168" d="M292.1,92.8c-0.5,1.3,0.1,3.9-2.6,2.8c-2.1-0.8-1.9-3-1.3-4.7c1.1-2.9,2.5-0.4,3.7,0.1
		C292.6,91.5,292.5,92.1,292.1,92.8z"/>
	<path class="st169" d="M293.1,79c4.3,0.2,0.7,3.6,2,5c0,3,0,6.1,0,9.3c-1.5-0.4-0.7-1.7-1.2-2.4c-1.8-2.4-0.2-5.5-1.6-8
		C291.8,81.4,291.8,80.1,293.1,79z"/>
	<path class="st170" d="M292.9,83c1.8,2.5,0.5,5.3,1,7.9c-0.6,0.6-1.2,1.2-1.8,1.9c-0.1-0.6-0.1-1.2-0.2-1.7c-0.1-2.7-0.3-5.3-0.4-8
		c0.2-0.1,0.4-0.2,0.6-0.4C292.4,82.8,292.6,82.9,292.9,83z"/>
	<path class="st171" d="M286.8,85.9c0.1-2,0.1-4,0.2-6c2.5-0.3,4.7-0.2,5,3.1h-0.2l-0.2,0.1C288.7,81.9,289.3,86.4,286.8,85.9z"/>
	<path class="st172" d="M334.1,131.9c0-6.3-0.1-12.6-0.1-18.8c0.5,4.6,5.5,8,3.2,13.5c-1,2.3,3.5,2.7,3.6,5.3
		C338.6,132,336.4,133.3,334.1,131.9z"/>
	<path class="st173" d="M345.1,133.9c0.3,0.3,0.5,0.7,0.8,1c-3.1,2.1-6.5,0.5-9.7,0.8C338.9,133.9,342.2,135.2,345.1,133.9z"/>
	<path class="st174" d="M24.7,90.5c-1.9-0.9-2.8-2.2-3.2-4.7C23.8,87.1,25.4,87.9,24.7,90.5z"/>
	<path class="st175" d="M428.9,147.7c-0.2,2.6-1.6,4-4.1,4.2c-3,0.3-4.4-1.5-4.5-4.1c0-2,1.2-3.8,3.7-3.9
		C426.8,143.8,428.4,145.1,428.9,147.7z"/>
	<path class="st176" d="M334.1,92c0-4,0-8.1,0-12.1c1.8-6,1.8-6,8-3.3c1.3,0.6,2.5,1.6,3.8,2.3c0.7,0.4,1.7,0.8,2.3,0.5
		c4.7-2.2,4.7-2.3,9.2-0.7c-0.4,1.8-2,2.1-3.3,2.5c-5.9,1.9-7.2,4.5-5.2,10.8c-1.8,1.9,0.2,2.7,1,3.9c-0.2,1.9,1,4-3.2,3
		c-3.3-0.7-7.7,0.6-11.4,3.4c0.2-3,2.2-2.4,3-3.5c1.4-2,0.6-3.9-1.8-4.6C335.5,94.1,334.9,92.9,334.1,92z"/>
	<path class="st177" d="M334.1,71c0-5.3,0-10.7,0-16c1-4.3,3-5.9,8-5.1c6.7,1.1,13.7-0.3,20.5-0.7c8.1-0.5,16.2-0.1,24.4-0.1
		c0.3,2.8-0.6,4.3-3.8,4c-3.6-0.3-7.1-0.2-10.3,2c-1.6,1.5-3.5,0.9-5.3,0.5c-5.9-0.6-11.5,0-16.3,4.1c-0.6,0.5-1.5,0.7-2.3,0.4
		c-1.3-2.4-3-4.1-5.9-2.5c-2.5,1.5-6.2-2.1-7.7,1.4c-1,2.4-0.4,5.5-0.5,8.3C334.9,68.5,335.3,69.9,334.1,71z"/>
	<path class="st178" d="M380.9,98.9c3.3-1.4,6.5-2.3,8.5,1.9c1.4,2.9-0.7,7.3-4.3,8.9c-1.3,0.6-2.9,1.2-4.3,1.2
		c-3.1-0.1-5.1,0.8-7,3.4c-1.7,2.4-4.5,4.1-7.8,3.1s-3.8-4-5.2-6.7c-3.6-6.8,1.2-6.7,5.3-7.6c1.9-0.4,3.9-0.8,5.8-1.2
		c0.8-0.4,1.8-0.6,2,0.3c0.4,1.8-1.2,2.5-2.4,3.3c-1.4,0.8-3.1,1.1-4.4,2.1c-1.7,1.2-2.3,2.9-0.8,4.6c1.5,1.7,3,0.6,4.2-0.6
		c1.8-1.7,2.1-4,2.7-6.2c0.8-1.4,1.8-2.3,3.5-1.9c3.5,4,4.4,4,7.9,0.1c-1.2-1.5-2.7-0.2-4.1-0.5c-1.7-0.2-4.1,0-4-2.4
		C376.8,98.3,379.8,100.5,380.9,98.9z"/>
	<path class="st179" d="M349,60c5.1-5.8,11.9-6.4,19-6c0.5,1,1.9,1.8,0.9,3.2c-3,1.8-6.6,0.3-9.7,1.5c-2.2,0.9-5.8,1.2-5,4.3
		c0.8,3,4.2,2.3,6.9,2c4.1-0.5,5.9-4.8,9.7-5.7c1.1,0,1.9,0.5,2.3,1.6c-4.9,8.9-11.4,8.8-18.7,7.6C349.2,67.8,348,65.2,349,60z"/>
	<path class="st180" d="M349.9,96c-1.4-0.2-3.2,0.1-3.5-1.8c-0.3-1.6,1.1-2.1,2.5-2.2c6.5-0.2,13.1,0,19.6-0.6
		c7-0.6,13.8,1.1,21.6,0.2c-2.6,4-5.6,3.3-8.1,3c-7.8-0.9-15.5-1-23.3,0.1C355.9,95.3,352.9,95.6,349.9,96z"/>
	<path class="st181" d="M387.9,49.1c11.1-0.9,22.3,1,33.3-0.9c0.5-0.1,1.1,0.6,1.7,0.9c-1,2.4-1.5,3.9-5.3,2.5
		c-3.3-1.3-7.9-0.5-11.5,0c-5.2,0.7-10.4-1.1-15.5,0.6C388,53,389.1,49.8,387.9,49.1z"/>
	<path class="st182" d="M410.5,105.6c6.5,0.5,1,5.2,3,7.7c0.8,1.1-2.9,1.6-4.8,1.6c-1.5-0.1-3.1-1.2-2.4-2.4
		c1.6-3.2,0.8,1.1,1.8,0.8c0.5-0.2,0.9-0.3,0.9-0.8c0-0.8,0.9-2.1,0-2.2c-5.3-0.5-0.3-6.4-4.1-7.5c0,0-0.1-0.4,0-0.4
		c0.6-0.3,1.5-0.8,1.6-0.6c2.4,2.9,5.3-5.5,7.2,0.3C414.4,104.2,412.2,104.6,410.5,105.6z"/>
	<path class="st183" d="M374.9,79.1c-5.2,2.9-11.5,3.3-16.1,7.3c-0.7,0.7-1.6,0.3-2.2-0.4c-0.8-1-0.3-1.9,0.4-2.6
		c2-2.3,4.8-2.7,7.5-3.3c2.4-0.5,6.2-0.1,3.7-4.9c-1-1.9,1.1-2.7,2.6-1.4c1.9,1.7,4,1.3,6.1,1.5C377.7,77.2,376.2,78.1,374.9,79.1z"
		/>
	<path class="st184" d="M409.9,70.3c-2.8,1.1-4.2,0-3.9-2.9c0.2-2.3-0.1-4.5,3.9-4.5c4.3,0,3.6,2.9,3.9,5.1
		C414.1,70.7,412.3,71.2,409.9,70.3z"/>
	<path class="st185" d="M420.9,61c0.8,0,1.7-0.1,2.5,0.1c1.7,0.4,3.9,0.7,4.1,2.9c0.2,1.6-0.8,3.3-2.5,3.8c-1.8,0.6-3.5,0.3-5-1.2
		c-1.7-1.8-0.8-3.3,0.4-4.7C420.6,61.6,420.7,61.3,420.9,61L420.9,61z"/>
	<path class="st186" d="M420.3,74.6c2.5,1,4.8-0.6,5.4,1.4c0.3,1,2.5,3.8-1.6,4.5c-1.3,0.2,2.1,1.2,1.9,2.8c-4.9,1.4-6.3,0.3-6.1-4
		c0.1-1.2-0.3-1.4,1-1.7C422.2,77.2,422.1,76.7,420.3,74.6z"/>
	<path class="st187" d="M409.9,62c-2.3,0.1-3.8-0.6-4-3.2c-0.1-2.7,1.6-2.8,3.6-2.8c2.1,0,4.2,0,4.3,2.8
		C414,61.5,412.1,62.1,409.9,62z"/>
	<path class="st188" d="M420.9,61c-3.6-1-0.8-1.7,0.1-2.7c1.2-1.4,1.1-1.6-1.7-3.3c2.3,0,3.8,0,5.4,0c1.5,0,3.2,0,3.1,2.2
		c-0.1,2-1.2,3.2-3.3,2.5C422.8,59.1,421.7,59.3,420.9,61L420.9,61z"/>
	<path class="st189" d="M410.4,83.5c2.3-2.9,1.3-5.5-3.3-6.5c-1.7-0.4-1.2-0.9-1.2-1.5c0.1-1,0.8-1.3,1.8-0.9
		c1.6,0.7,3.1,4.7,4.8,0.2c0,0,0.3,0,0.4,0.1c1.6,2.2-0.2,4.6,0.5,7C414,83.3,412.3,84.4,410.4,83.5z"/>
	<path class="st190" d="M376.9,104c-1.5,0-2.5,0.8-3.1,2.1c-1.3,0.3-2.2-0.1-2.9-1.3c2.6-2.1,2.6-2.1,1-3c2.8-1.5,5.6-3.4,9-3
		c0.1,2.9-2.9,0.1-3.4,2c0.7,1.8,2.4,0.7,3.6,1.2C380.5,104.6,378.6,104,376.9,104z"/>
	<path class="st191" d="M419.7,124.4c-1.1-1.4-1.3-3,0-3.9c1.8-1.2,4.2-0.9,6.3-0.3c2,0.5,2.3,2.2,1.5,4
		C424.5,121.2,421.7,121.2,419.7,124.4z"/>
	<path class="st192" d="M373,61.1c-0.8-0.4-1.5-0.7-2.3-1.1c-1-0.8-1.7-1.7-1.8-3c-0.3-1-0.7-1.9-1-2.9c1.5,1,3.3,0.8,4.9,1
		C375.5,57,375.8,59,373,61.1z"/>
	<path class="st193" d="M374.9,79.1c0.7-1.3,1.4-2.6,2.1-3.9c2.1,0.3,5.8-1.5,6,1c0.4,3.1-3.8,1.5-5.7,2.8
		C376.7,79.3,375.7,79,374.9,79.1z"/>
	<path class="st191" d="M420.5,117.4c2.4-2.8,2.4-2.8-0.5-4.2c1.8-0.1,2.6-0.2,3.4-0.1c1,0,1.9,0.2,3,0.3
		C424.2,116,424.2,116,420.5,117.4z"/>
	<path class="st186" d="M426.5,86.9c-2.8,0-4.9,0.5-7.9-0.7C421.7,85,423.8,85,426.5,86.9z"/>
	<path class="st194" d="M426.2,69.5c-1.8,3.1-3.7,3.1-5.5,0C422.5,70.4,424.3,70.4,426.2,69.5z"/>
	<path class="st195" d="M285,76.3c0,0.3,0,0.5-0.1,0.7c-1.1,1-1.9,2-1.7,3.8c0.8,7.5,0.2,8.2-7.3,8.5c-1.1,0.2-1.1,1-1,1.9
		c0.7,4.3-0.2,8.6,0,12.9c0.4,2.5-2,2.8-3,2.6c-5.8-1.1-11.8,0.7-17.3-0.9c-11.8-3.3-23.6-1.3-35.4-1.4c-4.2,0-8.5,1.9-13,1.8
		c-6.3-0.1-6.3,0.1-5.3-6c-3.3-0.9-4.2-3-3.6-6.3c0.5-3.2,0-6.5-0.6-9.7c-0.6-3.4-0.6-7.1,3.8-8.9c1.3-0.5,1.1-3.1,3.1-3.3
		c8-0.6,16-0.2,23.9-0.2c1.7,0,3.4,0.1,4.4,1.7c0.2,2.6,1.6,5.2,0.7,7.9c0.5-0.4-0.9,0.5-0.5-0.1c0,0-0.2-0.2-0.4-0.3
		c-1,2.1,1,3.9,0.6,6c-0.2,2.1-0.7,4.1,0.2,6.1c1.6-1.6,3.3-3.7,5.8-2.8c3.9,1.4,5-0.8,5.8-3.8c0.4-0.7,1.2-1,1.3-1.9
		c0.1-0.7,0.5-1.5-0.1-2.2c-0.4,0.7-0.6,1.4-1.3,1.9c-0.9,0.4-1.8,0.3-2.6,0.1c-2.2-0.8-4.3-0.2-6.4,0.4c-0.5,0-0.9,0-1.4-0.2
		c-0.8-0.7-2.8-0.8-1.1-2.6c1.1-0.6,2.5-1.8,3.3-1.6c4.5,1.6,4.1-2,4.9-4.4c0.6-1.2,2.3-0.9,3-2c0.7-0.7,1.4-1.4,2.1-2.1
		c1.1-0.6,2.2-0.4,3.3-0.4c7.3,0,14.6,0,21.9,0c1.2,0,2.5-0.1,3.7-0.5c1.7,0.8,0.4,3.1,2,3.9c2.3-0.1,4.6,0.1,6.9-0.1
		C284.8,74.8,285.5,75.1,285,76.3z"/>
	<path class="st196" d="M202,73.1c0.7,1.1,0.4,2.2,0,3.3c-0.2,0.8-0.4,2-1.3,1.8c-0.6-0.1-0.9-1.4-1.2-1.9
		c-4.3,6.4,1.4,13.5-1.3,20.2c-0.8,1.9,2.1,2.3,2.8,3.7c-1,0.3-2.1,0.5-3.1,0.8c-2.7-0.1-5.3-0.6-8-0.8c-1.8-2.8,0.2-5.7,0.2-8.5
		c0-5.5-1.4-11-0.1-16.6c1.9-1.1,3.7-1.7,6-1.1c2,0.5,3.8-0.2,5.1-1.9C201.6,72.2,201.9,72.5,202,73.1z"/>
	<path class="st197" d="M149,76.1c1.6-0.4,3.3-0.8,4.9-1.1c0,0.7,0,1.3,0,2c-3.3,2.6-6.2,5.3-6,10c-1.7,3.7-0.8,7.4,0.1,11.1
		c-2,0-2.3-1.7-3.1-3c1.1-3.4-1.6-6-2.1-9c1-2.3-0.5-5.3,2.1-7C146.4,78.1,147.7,77.1,149,76.1z"/>
	<path class="st94" d="M143.7,60.1c-2.7,0.6-6,0.5-8.4,2.8c-0.9,0.8-1.6,1-2.6,0.4c-1.8-1,0.1-1.5,0.3-2.1c0.1-0.5,0.4-0.9,0.5-1.4
		c0.4-1.6-3.4-2.9-1.2-3.9c2.1-0.9,5,0.1,7.5,0.6c1.7,0.3,3.1,2,5,0.3c1.2-1.1,2.7-1.2,4.1-0.2c0.8,0.5,1.1,1.5,0.3,2
		c-1.3,0.9-2.3,2.6-4.3,1.7C144.6,60.3,144.3,60.3,143.7,60.1z"/>
	<path class="st198" d="M202,73.1c-0.3-0.3-0.6-0.7-1-1c0.1-0.3,0.1-0.5,0.2-0.8c2.8-1.6,5.8-0.7,8.6-0.7c7.4,0.1,14.8-0.7,22.1,0.4
		c0,0.8,0,1.5,0.1,2.3C222,73.3,212,73.2,202,73.1z"/>
	<path class="st199" d="M247.9,73c-0.6-0.4-1.3-0.7-1.9-1.1c0-0.3,0-0.5,0.1-0.8c9.6-1.2,19.2-0.8,28.9-0.2V71c0.1,1.2-0.4,2-1.7,2
		C264.8,72.1,256.4,72.2,247.9,73z"/>
	<path class="st200" d="M232,71c-10.3,0.1-20.5,0.2-30.8,0.2c-0.5-0.7-0.4-1.2,0.5-1.3c9.5,0,19.1,0,28.6,0.1
		C230.9,70.1,231.5,70.7,232,71z"/>
	<path class="st201" d="M275,71c-9.6,0.1-19.2,0.1-28.9,0.2c-0.5-0.9-0.1-1.2,0.7-1.2c8.8,0,17.6,0,26.5,0.1
		C273.9,70.1,274.4,70.7,275,71z"/>
	<path class="st202" d="M292,83c-0.8-2.5-3.8-1.3-5-3.1c0-1-0.1-1.9-0.1-2.9c-0.3-1,0.1-1.4,1.1-1.1c1.6,1.3,4.6,0.2,5.1,3.1
		c-0.1,1.3-0.1,2.6-0.2,3.9l-0.4,0.1H292z"/>
	<path class="st203" d="M288,75.9c-0.4,0.4-0.7,0.7-1.1,1.1c-0.6-0.3-1.3-0.5-1.9-0.8c-2.5-1.4-5.6,1.1-8-1.2
		C280.8,73.5,284.6,72.5,288,75.9z"/>
	<path class="st94" d="M145.7,68.6c0.9,0.3,2.2,0.6,1.9,1.8c-0.3,1.3-1.3,2.4-2.8,2.3c-1.1-0.1-1.7-1.1-1.6-2.2
		C143.4,69,144.5,68.7,145.7,68.6z"/>
	<path class="st204" d="M232.8,82c-0.8,1.3,1.4,0.9,1.1,1.9c0.2,1.1,0.1,2.1-0.6,3c-0.4,0.3-0.7,0.3-1.1,0c-1.9-1.9-1.2-4.2-1.3-6.4
		c0-0.2,0.5-0.5,0.8-0.8c0.3,0.6,0.7,1.1,1,1.7C232.7,81.5,232.7,81.7,232.8,82z"/>
	<path class="st205" d="M243.9,74c0,2.2-1.7,1.8-3,2c-0.8-0.2-1.5-0.4-2.3-0.6c0.3-0.5,0.6-1.1,1.1-1.5
		C241.1,73.1,242.5,74,243.9,74z"/>
	<path class="st94" d="M149,76.1c0.5,3.5-2.6,1.9-4,2.9c0.8-1.4,1.2-3.1,2.8-3.9C148.3,75.4,148.6,75.7,149,76.1z"/>
	<path class="st206" d="M274.9,88c1.3,0,2.6,0.1,3.9-0.1c4-0.5,5.3-2.5,3.3-6c-2-3.7-0.7-4.8,2.8-4.9c0,5.1,0,10.1-0.9,15.1
		c-0.3,2-0.2,3.9,0.7,5.8c-2.3,2.9-4.8,5-8.7,3.1c-1.6-0.6-1.5-1.7-1.4-3.1C274.9,94.6,274,91.3,274.9,88z"/>
	<path class="st207" d="M209,123.9c-1.7,1.4-3.3,0.2-5,0c-1-2.1-1.8-4.2,0.3-6.7c0.8,1.9,1.5,3.5,2.1,5c2.1-0.6,1-2.8,2.5-4
		C210.8,120.2,209.8,122.1,209,123.9z"/>
	<path class="st208" d="M274.9,88c1.2,4.3-0.7,8.8,1.2,13c-0.6,0.9-1.3,1.7-1.1,3c-0.9,0-2.8-0.1-2.3-0.8c2.6-4.6,1-9.3,0.5-14
		C273,87.5,273.8,87.7,274.9,88z"/>
	<path class="st209" d="M189.9,100.1c2.9-2.4,5.4-0.4,8,0.8C195.1,102,192.2,103.7,189.9,100.1z"/>
	<path class="st210" d="M166.1,79.9c0.7,0.4,1.4,0.7,2.1,1.1c-1.1,2.6,2.7,7.3-2.7,7.8c-4.1,0.4-8.3-0.5-12.4-0.7
		c-2.3-0.1-1.7-6.3,0.9-9.1C158.1,78.3,162.2,77.7,166.1,79.9z"/>
	<path class="st211" d="M166.1,79.9c-0.4,0.9-1.2,1.2-2,0.7c-2.6-1.5-5.1-1.9-7.8-0.3c-1.4,0.8-2.1,0.2-2.2-1.3
		c0.3-0.4,0.7-0.8,1-1.3C159,77.2,163.1,75.7,166.1,79.9z"/>
	<path class="st212" d="M157.5,96.8c3.4-1.2,5.4-1.9,7.5-2.6C163.4,96.3,161.4,97,157.5,96.8z"/>
	<path class="st213" d="M370.9,104.9c1,0.4,1.9,0.8,2.9,1.3c0.8,3-1.1,5-2.9,6.9c-1.1,1.2-2.6,2.2-4.4,1.4c-1.4-0.6-2.4-1.8-2.6-3.4
		c-0.2-2,0.5-3.7,2.3-4.5C367.7,105.8,369.3,105.4,370.9,104.9z"/>
	<path class="st214" d="M376.9,104c1-1.6,3.1-0.5,4.2-1.9c1.9,0.5,4.6-2.7,5.4,0.2c0.8,3.1-2,4.8-4.9,5.6
		C378.1,108.9,376.7,107.4,376.9,104z"/>
	<path class="st215" d="M369,57c1.3,0.6,2,1.5,1.8,3c-3.3,2.6-5.6,6.5-10.5,6.7c-1.5,0.1-3,0.3-4.4-0.3c-1.6-0.7-3.7-1.1-3.9-3.3
		c-0.1-2.3,1.5-3.5,3.4-4.4C359.7,56.6,364.4,56.9,369,57z"/>
	<path class="st216" d="M232.8,86.8c0.7-0.9-0.1-2.3,1.1-2.9c0.3,0.1,0.6,0.2,0.9,0.2c1.4,0.8,0.8,3.4,3.6,3.3
		c3.2-0.2,2.4-3,3.7-4.3c0.6,0.3,1.2,0.6,1.9,1c0.9,0.3,1.5,0.9,1.2,1.9c-0.4,6.5-0.6,6.7-6.4,5.2c-2.1-0.6-3.2,0.2-4,2.8
		c-0.2,0.7-0.2,0.7-2.6,0.2C232.2,91.7,231.1,89.2,232.8,86.8z"/>
	<path class="st217" d="M242.1,83.1c-0.2,1.6,2.2,3.7-0.2,4.8c-1.9,0.9-4.5,1.4-6.4,0.9c-2.5-0.6,0.3-3.1-0.6-4.6
		C237,82.4,239.5,82.6,242.1,83.1z"/>
	<path class="st218" d="M247.9,73c4.3-2.2,8.9-0.8,13.4-0.9c4-0.1,8.1-1.3,11.9,0.9C264.8,73.1,256.4,73.1,247.9,73z"/>
	<path class="st219" d="M245.1,86c-0.4-0.6-0.8-1.3-1.2-1.9c1.1-1.4-0.1-3.7,2.5-4.9C246.5,81.7,248.8,84.3,245.1,86z"/>
	<path class="st220" d="M232.8,86.8c-0.7,2.4,1.2,5.1-0.6,7.4c-1.8-2.5-1.9-4.9,0.1-7.4C232.3,86.9,232.8,86.8,232.8,86.8z"/>
	<path class="st221" d="M163.7,83.3c1.5,0.2,1.9,1.4,2,2.4c0.2,1.4-0.7,2.2-2.1,1.6c-1.1-0.5-3.1,0.4-3.1-1.5
		C160.5,84.1,162.4,83.9,163.7,83.3z"/>
</g>
</svg>
