<?xml version="1.0" encoding="utf-8"?>
<!-- Generator: Adobe Illustrator 25.0.0, SVG Export Plug-In . SVG Version: 6.00 Build 0)  -->
<svg version="1.1" xmlns="http://www.w3.org/2000/svg" xmlns:xlink="http://www.w3.org/1999/xlink" x="0px" y="0px"
	 viewBox="0 0 716.1 180" style="enable-background:new 0 0 716.1 180;" xml:space="preserve">
<style type="text/css">
	.st0{display:none;}
	.st1{display:inline;stroke:#FFFFFF;stroke-miterlimit:10;}
	.st2{fill:#A7A7A3;}
	.st3{fill:#D9DAD9;}
	.st4{fill:#D3D7D8;}
	.st5{fill:#3E3E35;}
	.st6{fill:#444643;}
	.st7{fill:#373938;}
	.st8{fill:#303332;}
	.st9{fill:#3B3D3C;}
	.st10{fill:#4D4E4B;}
	.st11{fill:#606056;}
	.st12{fill:#484A47;}
	.st13{fill:#65665E;}
	.st14{fill:#5F5F52;}
	.st15{fill:#2F302D;}
	.st16{fill:#141515;}
	.st17{fill:#2C2E2D;}
	.st18{fill:#1C1E1D;}
	.st19{fill:#4E5759;}
	.st20{fill:#74878E;}
	.st21{fill:#4E5456;}
	.st22{fill:#414646;}
	.st23{fill:#607076;}
	.st24{fill:#697A81;}
	.st25{fill:#64747B;}
	.st26{fill:#6D7E85;}
	.st27{fill:#556268;}
	.st28{fill:#5B696F;}
	.st29{fill:#57656B;}
	.st30{fill:#6C7E85;}
	.st31{fill:#6E8087;}
	.st32{fill:#72858C;}
	.st33{fill:#72848C;}
	.st34{fill:#2D2E2C;}
	.st35{fill:#6D6F66;}
	.st36{fill:#4D4D43;}
	.st37{fill:#515246;}
	.st38{fill:#63655E;}
	.st39{fill:#7C7C6E;}
	.st40{fill:#3F413F;}
	.st41{fill:#333637;}
	.st42{fill:#252827;}
	.st43{fill:#61635B;}
	.st44{fill:#696B63;}
	.st45{fill:#6B6C62;}
	.st46{fill:#696B62;}
	.st47{fill:#63655C;}
	.st48{fill:#7A7B6D;}
	.st49{fill:#676965;}
	.st50{fill:#727469;}
	.st51{fill:#666860;}
	.st52{fill:#848474;}
	.st53{fill:#313332;}
	.st54{fill:#45463F;}
	.st55{fill:#474840;}
	.st56{fill:#282A28;}
	.st57{fill:#262726;}
	.st58{fill:#202222;}
	.st59{fill:#191B1B;}
	.st60{fill:#171818;}
	.st61{fill:#2A2C2C;}
	.st62{fill:#181919;}
	.st63{fill:#303232;}
	.st64{fill:#6F7168;}
	.st65{fill:#2F312F;}
	.st66{fill:#3F4242;}
	.st67{fill:#617178;}
	.st68{fill:#4D595E;}
	.st69{fill:#454F53;}
	.st70{fill:#505D61;}
	.st71{fill:#59676D;}
	.st72{fill:#414B4E;}
	.st73{fill:#6B6C65;}
	.st74{fill:#5E6059;}
	.st75{fill:#6F7270;}
	.st76{fill:#636561;}
	.st77{fill:#7F8280;}
	.st78{fill:#767A78;}
	.st79{fill:#8A9FA8;}
	.st80{fill:#303333;}
	.st81{fill:#52534F;}
	.st82{fill:#717472;}
	.st83{fill:#5D605D;}
	.st84{fill:#656865;}
</style>
<g id="Camada_2" class="st0">
	<rect x="-115" y="-186" class="st1" width="1065" height="471"/>
</g>
<g id="Camada_1">
	<g>
		<path class="st2" d="M166,179.9c0-0.3,0-0.6,0-1c1.1-1.3,2.6-1.4,4.1-1.4c2.1-0.1,4.2-0.1,6.3,0c3.9,0.3,8.1-1.1,11.7,1.7
			c0,0.3-0.1,0.5-0.2,0.8C180.7,179.9,173.4,179.9,166,179.9z"/>
		<path class="st3" d="M0.1,12.1c0.4,0,0.7,0,1.1,0c2.4,3.4,0.8,7.3,1.4,11c-0.2,3.7,1,7.6-1.5,11c-0.3,0-0.7,0-1,0
			C0.1,26.7,0.1,19.4,0.1,12.1z"/>
		<path class="st2" d="M715.1,13.9c0.3-0.2,0.6-0.2,0.8,0.1c0,6,0,12,0,18l-0.3,0.3l-0.4-0.1c-1.2-0.7-1.4-1.9-1.5-3.1
			c-0.1-0.9-0.1-1.8-0.1-2.7C714.1,22.2,711.9,17.8,715.1,13.9z"/>
		<path class="st4" d="M7.1,1.1c0-0.3,0-0.6,0-1c3.7,0,7.3,0,11,0c0,0.4-0.1,0.8-0.1,1.1C14.3,3.2,10.7,3.4,7.1,1.1z"/>
		<path class="st5" d="M697.9,42.2c-1.1,1.7-2.7,0.8-4.1,0.8c-123,0-246.1,0-369.1,0c-42.3,0-84.6,0-126.9-0.2c-4.8,0-6,1.4-5.6,5.8
			c0.3,3.8-0.1,7.6-0.1,11.5c-1.1,0.9-1.9,0.4-2.7-0.5c-0.8-1.4-1.1-2.9-1.3-4.4c-0.1-1.8,0.5-3.4,1-5c0.7-2.6,1.3-5.2-0.2-7.8
			c-1-1.2-2.7-1.7-3.2-3.4c2.5-3.9,6.8-2.3,9.8-2.2c17.7,0.2,35.4,1.2,53.1,1c10-0.1,20.1-0.8,30.2,0.6c3.8,0.5,7.7-1.2,11.2-1
			c4.6,0.2,9.2,0.8,13.8,0.5c10.1-0.7,20.2,0.1,30.3,0.4c11.2,0.3,22.5-0.3,33.7,0.6c6.8,0.5,13.6-0.2,20.4-0.1
			c16.2,0.2,32.5,0,48.7,0.1c13.4,0.1,26.8,0.4,40.2-0.5c6.1-0.4,12.3,0.7,18.4-0.1c0.5,0,0.9,0,1.4,0.1c5,0.8,10.1,0.7,15.1,0
			c58.7,0.8,117.4-0.3,176.1,0.6c2.1-0.1,4.2-0.9,6.3-0.3C696.3,38.9,698.3,39.5,697.9,42.2z"/>
		<path class="st6" d="M697.9,42.2c-2.5-4.8-6.6-1.8-10.1-2.1c-1.3-1.5,0.1-2.8,0.3-4.2c0.6-3.7-1.4-5.4-4.8-4
			c-1.5,0.6-2.9,0.8-4.4,0.6c-5.3-0.8-10.6-1.4-16-0.2c-1.3,0.3-3.3-0.8-4.8-1.3c-3.4-1.1-6.5-1.1-9.7,0.2
			c-4.8,1.9-10.1,1.1-14.9,2.7c-1.1,0.4-2.2,0.3-2.7-0.6c-1.8-3.2-4.5-2.4-6.9-1.4c-2.3,0.9-4.5,0.8-6.8,0.8c-2,0-3.8-1.1-6.1,0
			c-2.4,1.1-3.5-1.6-4.3-3.6c1.1,3.2,0.4,4.2-3.3,4.3c-4.5,0.1-7.5-3.9-11.8-3.6c-0.4,3.7-1.6,4.4-4.6,3.1
			c-4.2-1.8-9.1-2.9-12.9-0.6C570,34.7,567,34,563.6,32c-1.9-1-3.8-0.4-5.7,0c-1.6,0.4-3.7,0.8-4.7-0.4c-2.7-3.3-4.2-0.9-6,0.8
			c-1,0.3-1.8,0-2.7-0.4c-1.4-0.8-2.7-1.8-4.6-1.4c-2.9,0.7-4-0.8-3.8-3.6c0.3-1.8,0.9-3.6,2-5c0.9-1.2,1.4-2.3,3.9-1.1
			c2.1,1,5.4,2.8,8.2,0.5c0.4-0.3,1.1-0.6,1.4-0.3c5,4.2,10.4,1,15.6,0.9c3.5-0.1,1.9,3,3.8,4.5c2.6-3.5,6.2-5.3,10.8-4.6
			c0.6,0.1,1.6-0.5,1.9,0c3,4.9,5,0.2,7.6-0.5c4.5-1.3,9-4.3,13.9-0.9c1.1,0.8,1.8-0.3,2.7-0.5c3.8-0.4,7.6-0.5,11.2-2.1
			c1.9-0.9,3.3-0.9,5.6,0.7c2.5,1.7,6.7,0.6,10.1-0.3c5.9-1.6,11.8-1.2,17.5,0.6c3.8,1.1,7.4-1.3,11.2,0.3c5.5,2.4,10.8-0.1,16-1
			c5.8-1,10.8-0.3,15.1,4c0.3,0.3,0.3,0.3,0.6-0.4c0.4-0.9,0.8-1.8,1.6-2.5c3.8,0.8,1.2,4.5,2.9,6.3c0.3,0.9,0.3,1.9,0.2,2.8
			c-0.1,1-0.4,1.9-0.7,2.9c-1.7,6.7-1.7,6.7,4.7,9.4c0.6,0.3,1.1,0.7,0.9,1.5C702.5,42,700.2,42.1,697.9,42.2z"/>
		<path class="st7" d="M192.1,71c0.5,3,0.5,6,0,9c-3.9-0.2-7.8-1-11.8-0.7c-3,0.3-3.7,1.5-1.5,3.7c2.9,3,3.4,6,0.4,9.2
			c-0.2,3.3,3.5,5.3,7.5,4c1.5-0.5,2.6-2.2,4.5-1.5c0.9,0.4,1,1.2,1,2.1c-0.1,11.7-0.2,23.4-0.3,35.1c-0.4,0.3-0.8,0.4-1.2,0.1
			c-3-3.9-7-4.8-11.1-2.7c-1.9,0.9-0.9,2.6-1.7,3.8c-4.2-0.4-5.3-1.9-4-5.4c0.8-2,2.1-3.7,3.6-5.2c-0.8-1.3-2.4-1.1-3.4-1.9
			c-2-1.3-2.5-3.1-2-5.3c2.1-2.8,2.7-5.6,1.1-9.2c-1.4-3.1-0.4-6.3,4-7.4c-3.9-2.3-6.3-5.1-3.8-9.6c0.4-0.7,0.8-1.9,0.5-2.4
			c-4.1-5.6,0.3-9.4,2.6-13.7c1.7-1.4,3.4-0.3,5.1,0.1c2.4,0.5,4.8,1.4,6.9-0.6c0.3-0.4,0.6-0.7,0.9-1C190.4,71,191.1,70.4,192.1,71
			z"/>
		<path class="st8" d="M175,120c1.8,0.5,3.7,1,6.3,1.7c-3.7,2.3-6.4,4.9-6.9,8.6c-0.2,1.5,1.7,2.6,3.6,2.7c4.2-1.4,8.6,0.1,12.8-1
			c0.4,0,0.8,0,1.1,0c0.5,2.3,0.5,4.7,0,7c-0.4,0.3-0.8,0.5-1.3,0.5c-0.7-0.1-1.4-0.4-2-0.7c-3.3-1.1-6.6-0.4-9.9-0.5
			c-1.1,0-2.4,0-2.8,1.4c-0.4,1.4,0.4,2.3,1.3,3c2.4,2,3.5,4.4,2.4,7.5c0.1,1.9-5.8,1.7-1.7,5c5.4,2.4,5.5,2.7,1,6.3
			c-1.5,1.3-1.6,3.2-2.7,4.5c-4.4,1.6-4-1.3-4.2-4.2c-0.4-6.6-0.4-13.2-0.4-19.7c0-5.4,0-11,0.6-16.4C172.5,123.8,174,121.9,175,120
			z"/>
		<path class="st9" d="M179,150.9c0.4-3.1,0-5.8-3.1-7.7c-1.5-0.9-2.3-2.5-1.6-4.3c0.7-2,2.5-2.1,4.1-1.9c3.9,0.4,7.9-1.2,11.6,1.1
			c-2.3,1.9-5.1,0.7-7.6,1.3c-1.1,0.3-2.5,0.4-2.6,1.8c-0.1,1.7,1.5,1.3,2.5,1.5c3.8,0.9,6.8-0.1,8.6-3.7c0.4,0,0.8,0,1.2-0.1
			c0,1.7,0,3.3,0,5c-2.2,2.2-0.1,5.9-2.9,7.8c-3.2,0.7-6.4,1-9.6-0.3C179.4,151.3,179.2,151.1,179,150.9z"/>
		<path class="st9" d="M176,166c-0.9-4.5,2.8-5.7,5.6-7.2c-0.7-2.6-3.6-1.1-4.5-2.8c0.2-0.2,0.3-0.3,0.5-0.5
			c1.6-0.9,3.2-0.6,4.8-0.2c3.7,1,6.5,0,8.4-3.4c0.5-0.3,0.9-0.2,1.3,0.1c1.1,5-0.6,10.1,0.9,15c0.8,2,0.7,3.9,0.1,5.9
			c-2.3-0.3-2-2.7-3.5-3.3c-1.2-0.3-2.4-0.4-3.5-0.4c-0.7-0.1-1.5-0.2-2.2-0.4c-2.2-0.8-4.5-0.3-6.7-1
			C176.4,167.4,175.8,167,176,166z"/>
		<path class="st10" d="M178,92c2.6-2.8,3.7-5.6-0.5-7.9c-2-1.1-1.5-2.7-1.4-4.3c0.2-1.8,1.8-1.8,3.1-1.7c4.3,0.3,9-1.3,12.9,2
			c0.4,1,0.4,2,0,2.9c-2.3,2.8,0.2,6.5-2,9.3C186,92.4,181.9,94.5,178,92z"/>
		<path class="st11" d="M190,168c3-0.1,1.4,2.9,3,4.3c0-2,0-3.7,0-5.3c2.4,6.4,1.6,8.4-4.8,12.2c-4.1-0.1-8.2-0.2-12.2-0.4
			c-1.3-3.4,0.2-6.5,1.4-9.4c1.2-2.8,4.1-2.1,6.5-1.5c0.7,0,1.4,0.1,2.1,0.1c0.4,1.6-1.2,2.6-1.4,4c-0.2,1.2-1.3,2.4,0.1,3.5
			c0.8,0.7,1.9,0.5,2.8,0.2c1.4-0.5,2-1.6,1.8-3.1C189.2,171.1,188.6,169.4,190,168z"/>
		<path class="st7" d="M190,59.1c0.5,0.8,1.3,0.9,2.1,0.9c0.5,3,0.4,6,0,9c-3.8-2.4-7.6-4.5-12.3-4.2c-1.6-1.9-3.6-3.2-5.9-4.2
			c-0.4-0.3-0.7-0.6-1-1c-1.9-5.5-0.1-10.7,1.7-15.8c0.8,0,1.4,0.4,1.9,0.9c1.6,2,1.1,4.3,0.9,6.6c-0.2,2.2-1.5,4.6,0.5,6.6
			c3.1,1.3,6.1,2.4,9.5,1.3C188.3,58.9,189.1,58.5,190,59.1z"/>
		<path class="st12" d="M179,64c5.1-0.4,10.2-0.5,13.1,5c0,0.7,0,1.3,0,2c-0.7,0.3-1.4,0.7-2.1,1c-3.3-4.8-3.6-4.9-9.8-2.8
			c3.2,1.8,6.1,3.6,9.8,2.8c-0.2,2.6-2,2.9-4.1,3c-3.2,0.2-5.9-1.6-8.9-2c-3.2,0.1-4.1-2-3.4-4.5C174.3,66,174.9,62.7,179,64z"/>
		<path class="st13" d="M178,92c4,0.7,8-2,12,0c0.7,0.1,1.1,0.6,1.3,1.2c0,0.5,0,1,0.1,1.5c-3.7,4.1-8.1,4-12.5,1.5
			C177.3,95.4,174.3,94.1,178,92z"/>
		<path class="st14" d="M704.8,41.9c-1-1.1-2.5-0.6-3.7-0.9c-3.4-0.8-5.8-2.3-4.3-6.5c0.8-2.1,1.4-4.3,2.1-6.5c3,0.6,1.8,3,1.8,4.7
			c0,1.6-0.7,3.6,1.2,4.5c2,0.9,4.3,0.9,6.1-0.7c1.8-1.5,3.6-3.1,3.7-5.7c0.2-0.7,0.4-1.4,0.9-2c0.7-0.4,1.4-0.5,2,0.2
			c0.1,1,0.3,2.1,0.4,3.1C712.8,36.7,710.2,40.8,704.8,41.9z"/>
		<path class="st15" d="M191.3,93.2c-0.4-0.4-0.8-0.8-1.3-1.2c0.6-3-1.6-6.7,2.1-9C192.1,86.4,193.5,90,191.3,93.2z"/>
		<path class="st8" d="M192.1,152c-0.4,0-0.8,0-1.2,0.1c-0.8,0.1-1.1-0.2-1-0.9c-1.1-2.9-0.5-5.3,2.1-7.1
			C192.5,146.6,192.5,149.3,192.1,152z"/>
		<path class="st16" d="M176,166c0.3,0.3,0.7,0.6,1,0.9c-4.5,2.6-2.7,9-7,11.8c-1.3,0.1-2.7,0.1-4,0.2c-6-4.1-6.2-4.9-4-12.3
			c0.3-1.1,0.3-2.3,0.3-3.4c0-39.4,0-78.9,0-118.3c0-0.7-0.2-1.3-0.3-2c-9.4-1.1-18.9-0.1-28.3-0.5c-3-2-1-4.6-0.8-7
			c1.4-4.4,0.5-8.9,0.8-13.4c0.1-1.2,0-2.3-0.1-3.5c-0.2-2.2,0.3-4.4,2.7-4.6c2.6-0.1,2.8,2.4,3,4.4c0.3,4.1,0.4,8.3,1,12.4
			c0.2,1.7,0.4,3.3,1.3,4.8c2.2,3.8,4.3,4,7.3,0.8c4.4-4.9,5-5,9.7-0.1c2.2,2.3,4.5,1.5,6.9,0.9c5.6-1.4,7.8,0.1,7.7,5.9
			c-0.1,4.1,0,8.3-0.8,12.3c-0.4,2.1-0.3,3.6,1.7,4.6l0,0c1.6,0.9,2.1,2.3,1.1,3.7c-2.3,3.3-2.5,6.7-0.4,10.2
			c0.2,0.4,0.4,1.1,0.2,1.4c-3,3.7-1.6,7.7-1.3,11.8c0.2,3.4-1.9,7,1.4,10.1c0.3,0.3,0.5,1,0.2,1.4c-3.5,3.8-1.9,7.9-1,12.1
			c0.3,1.5-0.3,2.9-1.1,4.2c0,1.9-0.4,4,2,5c0.2,0.8,0.9,1.9,0.6,2.3c-3,3.9-4.6,7.6-0.3,11.8c1.3,1.2-0.6,1.8-1.3,2.6
			c-1.9,2.4-3.1,4.8-0.3,7.5c1.1,1.1,1,2,0.4,3.5c-1.4,3.1-2.5,6.4,0.4,9.6c1.3,1.4-0.3,2.7-0.9,4C172.6,163.5,172.2,165.9,176,166z
			"/>
		<path class="st17" d="M1.2,23.1c0-3.7-0.1-7.3-0.1-11c0.4-1.8,0.4-3.7,2-5c1.3-0.4,1.6,0.8,2.2,1.5c3.3,3.9,7.1,3.6,10.3-0.9
			c0.8-1.9-0.9-4.9,2.5-5.6c0.4,0.3,0.7,0.6,1.1,0.9c1.1,2.6-0.8,5.6,1,8.2c2.9,2.2,5.1,4.6,4.7,8.6c-0.2,1-0.6,1.9-0.9,2.9
			c-1.6,3.8-1.4,8-2.3,12c-0.3,1.5,0.3,2.8,1.3,4.1c0.8,1.1,2.2,2.2,0.9,3.8c-1.8,0.2-3.6,0.2-5.4,0C15.9,39,17,35,17,31.1
			c0-2.2,0.3-4.5,0.1-6.7c0.5,6.1-4,12.4,0.9,18.2c0.1,0.2,0.2,0.4,0.3,0.6c-1.3,2.2-3.3,1.4-5.1,1.1c-5.1-4.9-6-15-2.2-23
			c0.8-1.7,3.5-3.6,0.2-5.3c-2.4-1.2-7,1-7.7,3.3C2.9,20.6,3.6,22.7,1.2,23.1z"/>
		<path class="st18" d="M1.2,23.1c0.2-0.4,0.6-0.8,0.7-1.3c0.5-2-1-5,1-6.1c2.2-1.2,5.1-1.5,7.7-1.5c2.3,0,5.3,1.1,3.4,4.1
			c-5.2,8.6-6,17-1,25.9c-5.9,1.6-8.1,0-12-10.1C1.1,30.4,1.2,26.7,1.2,23.1z"/>
		<path class="st19" d="M18.1,42c1.9,0,3.8-0.1,5.7-0.1c1.4-1.2,3.2-1.1,4.8-1.1c2-0.1,4.1,0.2,6.1-0.4c0.6-5.1-0.4-10.1-0.1-15.1
			c0.2-2.8,0.1-5.6,2-8c0.4-0.4,0.9-0.4,1.4-0.1c1.9,1.8,0.9,4,0.7,6.1c-0.4,4.5-0.9,9.1,1.2,13.5c-1.1-6.4,1.2-13-1.6-19.3
			c-2-1.6-0.9-3.9-1.6-5.9c2.1-3.1,4.3-1.8,6.5-0.1c0.2,0.5,0.4,1,0.4,1.6c-0.8,8,1.3,15.8,0.8,23.8c-0.2,2.7,1.2,3.9,3.9,3.9
			c2,0,4,0,6,0.1c0.8,0,1.6-0.1,2.5,0C57.9,41,59,41,60.1,41c1.9-0.1,3.8,0,5.7,0c1.4,0,2.7,0,4.1,0c0.8,0,1.7,0,2.5,0
			c3.7-0.1,7.3-0.1,11,0c1.1,0,2.2-0.1,3.4,0c0.8,0,1.7,0,2.5,0c2.8-0.1,5.5,0,8.3,0c0.8,0,1.7,0,2.5,0c1.4,0,2.8-0.1,4.2,0
			c2.6-0.1,5.1,0,7.7-0.1c2-0.1,4.1,0,6.1,0c3.9-0.1,7.7-0.1,11.6,0.1c1.3,0,2.4,0.4,3.4,1.1c7.9,0.1,15.8,0.1,23.8,0.2
			c1.7,0,3.7-0.8,5.1,0.9c-45.1-0.1-90.2-0.2-135.4-0.3c-2.8,0-5.6,0.2-8.5,0.3l-0.3-0.1C17.6,42.6,17.7,42.2,18.1,42z"/>
		<path class="st20" d="M153,3.2c22.5,0,45-0.1,67.4-0.1c159.7,0,319.5,0.1,479.2,0.1c1.5,0,3-0.4,4.2,0.9c-1.4,1.6-3,0.9-4.7,0.5
			c4.2,3.4,3.6,5.1-2.9,8.8c-0.5,0.2-1,0.3-1.5,0.3c-14.8-2.2-29.6-0.8-44.4-0.9c-12.6,0-25.1,0.2-37.7-0.2
			c-6.9-0.2-13.9,0.7-20.8-0.2c-8.7-1.1-17.3-0.7-26,0.2c-0.4,0.1-0.9,0.2-1.4,0.2c-3.5-0.5-7-1.5-10.6-0.8c-4.4,1.5-9,0.3-13.5,0.7
			c-0.5,0-1,0-1.5-0.1c-11.1-1-22.2-0.1-33.3,0.1c-11.1,0.2-22.2-0.5-33.3-0.4c-16.8,0.2-33.7-1-50.5,1.1c-6,0.1-11.9-1.4-17.9-0.1
			c-14.3,1.2-28.6-0.1-43-0.6c-1-0.2-1.8-0.8-2.8-0.8c-14.9,0.3-29.8-0.6-44.7-0.1c-12.9,0.5-25.8-0.5-38.7,0.4
			c-1.5,0.1-3,0-4.4-0.4c-8.4,0.4-16.8-0.2-25.2-0.2c-7.4,0-14.9-0.3-22.3-0.3c-5.9,0-11.8,0.3-17.7,0.1c-7.6-0.3-15.1-0.4-22.7-0.4
			c-7.9-0.1-15.8-0.5-23.7,0.8c-1.2,0.1-2.3-0.3-3.4-0.6c-1.8-0.5-4.3,0.3-5.1-2.2C149.5,6.4,151.1,4.7,153,3.2z"/>
		<path class="st21" d="M72.4,41.8c-0.9,0-1.8,0-2.7,0c-3.8-1-5.1-3.6-5-7.4c0.1-3.3,0-6.6,0.1-9.8c0.1-1.8-0.2-3.7,1.9-4.7
			c1.6,0.7,1.6,2.2,1.8,3.7c0.1,0.8,0.1,1.6,0.1,2.3c0.1,3.4-0.5,6.9,1,10.2c0.9-5.6,1.8-11.2,1.1-16.9c-0.2-1.6-2.2-1.3-3-2.3
			c-0.8-0.8-1.4-1.9-2.5-2.3c-1.7-0.5-3.5-1.7-5.2-0.8c-1.9,1-0.5,3-0.4,4.5c0.4,5.9,1.5,11.7,1,17.7c-0.2,2.4-0.4,4.6-2.9,5.8
			c-0.9,0-1.9,0-2.8,0c-0.8-0.5-1.9-1-2.2-2c-2.4-7.2-3.1-14.5-0.2-21.8c2.7,0.7,2.1,3.1,2.1,4.9c0.1,4.3,1,8.4,1.7,12.7
			c1.6-5.4,0-10.8-0.5-16.1c-0.1-1.3-1.5-1-2.4-1.4c-2.3-3.7-7.2-3-9.9-5.9c0-0.4,0-0.7-0.1-1.1c0.2-0.2,0.4-0.3,0.5-0.5
			c2.2-1.1,4.3,0.3,6.4,0.2c2.2,0.2,4-0.9,5.9-1.5c4.4-1.9,8.4,1.5,12.6,0.9c5.1-2,10.3,0.7,15.6-0.4c2.9-0.6,5-1,5.1-4.4
			c0-1.1,1-1.6,1.9-2.1c0.3,0,0.7,0,1,0c1.4,0.6,1.7,1.7,1.9,3.1c0.9,5,1.5,5.3,6.3,3.6c0.6-0.2,1.2-0.5,1.8-0.6
			c2.7,0.7,5.9-1.1,8.1,1.7c0.1,0.5-0.1,0.9-0.4,1.3c-2.8,1-6.2,1.2-6.4,5.3c-2,0.7-3.3-1.4-5.2-1.2c-1.3-1.4-3-1.9-4.8-2.2
			c-2.8-0.4-4,0.6-4,3.4c0,5.8,0,11.5,0,17.3c0,2.5,0.1,5-2,6.9c-1.2,0-2.5,0-3.7,0c-2.6-2.8-2.8-6.3-2.9-9.8
			c-0.2-4.3-0.3-8.7,0.1-13c0.3-3.2-1-4.8-4.1-4.7c-3.2,0.1-2.6,2.7-2.2,4.5c1.2,5.5,0.4,10.9,0.7,16.4
			C75.4,37.9,74.6,40.1,72.4,41.8z"/>
		<path class="st22" d="M695.8,13c0.6-0.6,1.1-1.3,1.8-1.6c3.9-1.7,4.3-4,0.6-7.3c2.5,0,4.1,0,5.7,0c5.5,1.3,8.9,5,11.2,9.9
			c-0.1,4.3-0.2,8.7-0.3,13c-2.4,0.4-2.7-1.4-3-2.9c-0.4-2.2-0.6-4.3-3.7-3.9c-2.9,0.3-6.8-2-8,2.9c-0.2,0.8-0.6,1.5-1.3,2
			c-3.2-1.2,0.7-4.6-2-6C697.6,16.9,697.1,14.9,695.8,13z"/>
		<path class="st23" d="M91.1,3.2c-0.3,1.1-0.9,2.2-0.9,3.2c0,3.2-0.5,3.8-4.5,4.5c-6,1-11.8-1.7-17.6,0.2c-0.4,0.4-0.8,0.4-1.2,0.1
			c2.6-2.4,0.5-5.4,1.2-8C75.7,3.2,83.4,3.2,91.1,3.2z"/>
		<path class="st24" d="M110.1,12c0-0.3,0-0.6-0.1-0.9c-1.5-2.6-2.1-5.3,0-7.9c6.3-0.4,12.7-0.4,19,0c2.9,2.7,2.6,5.6,0.7,8.6
			c-1.1,1.2-2.6,1.7-4.1,1.3c-4.9-1.2-9.9-0.5-14.9-0.6C110.5,12.4,110.3,12.2,110.1,12z"/>
		<path class="st25" d="M43.1,11.1c-1.9,0.8-4.4-2-6,1c-0.2,0.1-0.4,0.3-0.6,0.4C30.7,11,24.8,14.1,19,12.1C17.1,9,17.8,6,19.1,3
			c7,0.1,14,0.1,20.9,0.2C45.7,6,46.2,7.3,43.1,11.1L43.1,11.1z"/>
		<path class="st26" d="M18.1,2.1C16.4,4.2,17.5,6.7,17,9c-6.3,3.1-9.8,1.6-11.8-4.9c0.6-1,1.3-2,1.9-3.1c3.6,0.1,7.3,0.1,10.9,0.2
			C18.1,1.5,18.1,1.8,18.1,2.1z"/>
		<path class="st27" d="M153,3.2c0.1,1.4-1.2,2.3-1.6,3.4c-0.6,1.9-0.6,4,2.3,3c2.4-0.9,3.4,1.8,5.4,1.4c0.3,0.4,0.5,0.9,0.4,1.5
			c-0.5,1.1-1.5,1.5-2.6,1.7c-2.1,0.2-4.2,0.2-6-0.9c-1.3-1.4-2.8-0.9-4.5-0.5c-2.5,0.5-5.1,1.2-7.4-0.8c-0.2-0.5-0.1-0.9,0.2-1.3
			c0.5-0.4,1.1-0.7,1.8-0.7c4.2-0.1,5.3-1.8,3-5.5c-0.3-0.4-0.2-0.9,0-1.4C147.1,3.2,150,3.2,153,3.2z"/>
		<path class="st27" d="M129.1,11.1c1.7-2.6,0.7-5.3,0-7.9c3.3,0,6.6,0,10,0c1.9,2.6,1.9,5.2,0.1,7.9l-0.1,0.1
			C135.7,10.8,132.4,13.7,129.1,11.1z"/>
		<path class="st28" d="M67,11.1c0.3,0,0.7,0,1,0c-0.6,0.7-1.7,1.3-2.1,0.9c-2.9-3-6.7-0.9-9.9-1.9c-1.6-2.1-2.6-4.3-1-6.9
			c3,0,6,0,9,0C66.8,5.1,64.4,9,67,11.1z"/>
		<path class="st29" d="M110,3.2c0,2.6,0,5.3,0,7.9c-2.5-1.4-5.5,0.6-8-1c-1.1-1-1.2-2.4-1.9-3.6C99.7,5.4,99,4.3,100,3.2
			C103.4,3.2,106.7,3.2,110,3.2z"/>
		<path class="st30" d="M55.1,3.2c0.3,2.3,0.7,4.6,1,6.9c-1.7,1.4-3.6,2.3-5.9,2c-3.9-2.3-4.3-3.8-2.1-8.9
			C50.4,3.2,52.7,3.2,55.1,3.2z"/>
		<path class="st31" d="M139.1,11c0-2.6,0-5.2-0.1-7.9c1.7,0,3.4,0,5.1,0c0.5,0.6,0.9,1.3,1.5,1.9c1.3,1.2,1.9,2.7,1.2,4.4
			c-0.7,1.6-2.3,1.6-3.8,1.6C141.7,11.1,140.4,11.1,139.1,11z"/>
		<path class="st19" d="M48,3.2c0.5,3-1.2,6.5,2.1,8.9c-2.4-0.3-4.7-0.7-7.1-1c3.3-4.2-1.7-5.4-3-7.9C42.7,3.2,45.4,3.2,48,3.2z"/>
		<path class="st32" d="M100.1,3.2c0.3,1,0.7,2,1,2.9c1.2,3.8-0.9,5.3-4.1,5.4c-3.5,0.1-2.8-2.9-2.8-5.1c0-1.2,0.1-2.3,1-3.2
			C96.7,3.2,98.4,3.2,100.1,3.2z"/>
		<path class="st33" d="M67,11.1c-5.5-0.9-1.4-5.5-3-7.9c1.3,0,2.7,0,4,0c0.1,0.5,0,1.2,0.3,1.4C71.9,7.6,70.7,9.6,67,11.1z"/>
		<path class="st23" d="M95,3.2c0,1-0.1,2,0,2.9c0.3,1.7-1.2,4.5,1.8,4.8c3.1,0.3,4.2-1.9,4.2-4.8c1.5,1,0.9,2.6,1,4
			c-2.1,1.8-4.6,2.8-7.2,1.7c-2.7-1.2-2.2-3.9-2-6.3C92.9,4.8,92.3,4,92,3.3C93,3.2,94,3.2,95,3.2z"/>
		<path class="st34" d="M170,178.8c0.7-1.8,1.9-3.7,1.9-5.5c0-3.7,1.8-5.5,5-6.3c2.3,0.3,4.8-0.8,7,0.9c-3.7,0-7,0.2-6.1,5.6
			c0.3,1.8-2.2,3.2-1.9,5.4C174,178.8,172,178.8,170,178.8z"/>
		<path class="st35" d="M698.8,25.1c-0.3-2.3,0.6-4.1,1.9-5.9c1-1.3,2-0.9,3.4-1.1c7.1-0.8,8.8,3.9,10.7,8.9c0,0.7-0.1,1.4-0.1,2.1
			c-0.6,0-1.2,0-1.8,0c-0.9-0.1-1.5-0.7-2.1-1.3c-1.5-1.2-3.3-2.3-4.8-0.7c-1.6,1.6-1.3,4.1-0.8,6.1c0.4,1.7,2,1.2,3.3,0.6
			c1.6-0.7,2.1-3.1,4.4-2.8c0.2,4-2.9,5.8-5.5,7.5c-2.1,1.4-5.1,0.9-7-0.5c-1.3-1-1.8-3.3-0.9-5.4c0.7-1.5,0.9-3.2-0.6-4.5
			C698.9,27.1,698.8,26.1,698.8,25.1z"/>
		<path class="st36" d="M177,59.1c-3.3-2.6-0.7-5.9-0.7-8.8c0-1.8,0-3.5-0.3-5.3c-0.3-3.8,1.1-7.7-0.7-11.6c-1-2.4,1.2-4,3.8-3.8
			c7,0.6,14.1-1.1,21,0.3c2.2,0.4,3.8,0.4,5.4-1.1c1.3-1.3,2.7-0.7,4.1,0c3.1,1.6,6.4,1.6,9.7,0.4c3.2-1.2,6.5,0.6,9.7-0.8
			c1.3-0.5,2.9,0,3.9-1.5c0.4-0.7,1.6-1.3,2.1-0.5c1.6,2.8,4.6,1.3,6.6,2.4c3.8,2,8.2,0.1,11.9,2.2c1.5,0.8,3.5,0.6,4.8-0.5
			c5.3-4.3,11.1-3.6,17-2c2.2,0.6,3.7-1.6,6.2-1.4c4.4,0.3,9,2.6,13.5,0.1c0.7-0.4,1.6-0.2,2.3,0.4c4.2,3.8,8.7,2,13,0.4
			c2-0.7,3.4-1.2,5.4,0.4c2.6,2.2,6.1,1.5,9.1,0.9c2.4-0.5,4.9-0.7,7.3-1.6c1.5-0.6,2.4-0.8,3.7,0.8c1.3,1.6,4.2,1.4,6,0.8
			c5.4-1.9,11-0.2,16.3-1.7c2.2-0.6,5.3,0.6,6.3-2.8c0.1-0.5,0.9-0.8,1.2-0.6c5.1,3.6,11.1,1.7,16.7,2.9c7.1,1.5,14.4,1.9,21.7,1.7
			c1.6,0,3.3,0,4.9-0.2c3.4-0.4,6.8-1.3,10.2,0.7c1.8,1.1,3.9,0.3,5.8-0.2c3-0.7,6-2.3,8.7,1c1.1,1.4,2.6,0.2,3.5-0.7
			c3.9-3.7,9-0.3,13.1-2.3c0.4-0.2,0.8,0.3,1,0.9c0.2,0.5,0,1.2,0.5,1.6c-0.2-0.5-0.4-1-0.3-1.4c0.7-2.7,1.8-3.1,4.6-1.7
			c4,1.9,8.2,5.5,13.2,1.8c0.3-0.2,0.7-0.4,0.9-0.2c4.6,2.2,8.9-1.5,13.5-0.5c3.7,0.8,7.6,1.3,8.8,5.9c-1.2,2.5-3.2,1.5-5,1.1
			c1.3,1.7,3.3,0.4,4.8,1c1.7,0.7,4.7,0.2,3.5,3.7c-8.6,1.5-17.3-0.5-25.9,0.4c-6.6,0.7-13.3,0.5-19.9,0c-7.3-0.5-14.6,1.3-22-0.3
			c-4.4-1-9.1,0.3-13.6,0.3c-7,0.1-14-0.7-20.9-0.1c-14.3,1.2-28.6-0.2-43,0.3c-9.3,0.4-18.8,0.1-28.1-0.4
			c-8.7-0.5-17.4,0.9-25.9-0.1c-8.7-1.1-17.4,2-26.2-0.7c-3.6-1.1-8.2,1.1-12.8,0.4c-6-0.9-12.3-0.5-18.4,0.2
			c-12.1,1.4-24.1-1.8-36.3-0.9c-5,0.4-10.5,0.8-15.7-0.5c-0.3-0.1-0.9,0.9-1.3,1.3c-3,1.4-4,4.2-3.7,6.9
			C182.9,51.4,179.7,55.1,177,59.1z"/>
		<path class="st37" d="M495.9,39.1c-0.7-2.7-3.3-3.2-5-2.7c-3.1,0.9-4.1-0.8-5.4-2.7c2.1-2,4.5,1.9,6.4-0.7
			c0.4-0.5,0.6-1.2,1.4-1.3c2.3,1,4.2-0.7,6.3-1.2c0.5-0.1,0.9-0.1,1.4-0.1c10,1.4,19.9-0.6,29.8,0c4.7,0.3,9.4,1,14.1,0.6
			c0.7,0.3,1.3,0.7,2,1c4-2.2,8.1,1.1,12.2-0.3c1.4-0.5,3.1-1,4.8-0.7c3.6,1.3,7.3,3.6,10.1-1.3c2.2,2.4,4.7-1.6,7.6,0.7
			c1.6,1.3,5.2,1.4,7.8,1.7c3.3,0.3-0.2-2.6,0.9-4.1c2.5,2.1,7.3-1.3,8.7,3.8c2.4-2.3,4.2,0,6.3,0.7c0.9,0.3,1.7-1,1.3-2.2
			c-0.4-1.3-1-2.5,0.6-3.7c0.8,2,0.3,5,3.6,5.3c2.5,0.2,1.8-2.3,2.9-3.4c1.1,3,5.5,4.3,9.1,2.5c3.2-1.6,6.5-3.8,8.6,1.5
			c0.1,0.3,1,0.7,1.1,0.7c3.6-3.7,8.7-0.5,13.1-3c2.4-1.4,7.5-3.1,12.1-0.7c3.3,1.7,7.9,1.1,12,1.4c1.3,0.1,2.2-0.5,2.4-2
			c0-0.4-0.1-1.4,1-0.5c4.4,3.4,6.1,3.5,10.7,0.9c1.5-0.9,2.8-0.2,4.1,0.8c1.8,1.5,2.7,3.4,2.1,5.7c-0.4,1.4-1.9,2.3-1.8,4
			c-8.8-0.1-17.7-1.2-26.3-0.7c-7.7,0.5-15.2-1.4-23,0.4c-6.3,1.5-13.3,0.3-19.9-0.1c-9.2-0.5-18.3,0.5-27.4,0.1
			c-15-0.6-30,0.2-45-0.5c-11.4-0.6-22.9,0.8-34.3-0.3c-5-1.4-10-1.8-15,0C496.6,39.1,496.3,39.1,495.9,39.1z"/>
		<path class="st38" d="M177,59.1c0.2-1.1,0.1-2.6,0.8-3.3c4.2-4,3.1-9.2,3.6-14c0.4-3.5,2.8-2.4,4.7-2.7c1.3,0.7,2.6,1.4,3.9,2.1
			c1,3,0.5,6,0.1,8.9c-0.3,1.6-0.6,3.3-0.9,4.9c-3.3,1.2-4.2,2.8-1,5.2C184.2,62.2,180.6,60,177,59.1z"/>
		<path class="st36" d="M496.9,39.1c2.3-3.6,6.4-1.6,9.4-3c1.1,2.5,4.8,0.1,5.6,3C506.9,40.4,501.9,40.2,496.9,39.1z"/>
		<path class="st39" d="M188.1,60.1c-2.3-0.1-4.4-0.6-4-3.5c0.5-3.7,3.4-0.9,5-1.6c0.8,1.3,1,2.7,0.9,4.1
			C189.4,59.5,188.8,59.8,188.1,60.1z"/>
		<path class="st36" d="M190,50c0-3-0.1-6-0.1-8.9C191.7,44.1,191.6,47.1,190,50z"/>
		<path class="st40" d="M492.9,32.1c-0.3,0.3-0.7,0.7-1,1c-4.7-6.2-16.1-5.9-17.7-0.9c-0.7-1.2,0.1-3.6-2.1-3.4
			c-1.6,0.1-3.8-0.3-4.4,2.3c-0.3,1.2-1.8,2.5-2.5,1.4c-2.2-3.6-6.1-2.3-9.1-3.5c-1.4-0.6-3.9,1.2-4.9,4.2c-0.3-2.4-0.4-3.8-0.7-5.7
			c-2,1.2-2.7,4.7-5.8,1.2c-1.5-1.7-5.4,0.8-7.9,2.6c-1.1,0.8-2.2,2-3.3,0.4c-2.7-3.6-6.2-2.1-9-1c-2.3,0.9-4.3,0.8-6,0
			c-3.7-1.8-7.1-0.3-10.7-0.2c-4.2,0-8.4,0.2-12.6-0.3c-5-0.5-9.9-1.1-14.8-1.9c-3.3-0.5-8-2.6-9.9-0.9c-4.3,3.7-3.6-0.8-4.9-2
			c-0.9,3-4.9,5.1-8.1,3.8c-1.8-0.7-3.1-1.7-3.3,1.3c0,0.3-1,0.8-1.1,0.7c-5.1-4.8-10.9,1.8-16.2-1.1c-3.8-2-7.8,0.2-11.7,0.6
			c-3.3,0.3-8.1,2.7-10.8-2.2c-0.7-1.3-1.7-0.3-2.5,0.2c-3.8,2.4-8.3,3.4-12.1,1.6c-4-1.9-7.9,0.1-11.2-0.7
			c-2.7-0.7-5.5,0.3-8.2-1.3c-2.3-1.4-3.2,2-4.7,3.3c-1.6-3.1-6.6-4.9-9.2-2.2c-3.5,3.8-2-2.2-3.7-1.2c-3.4,4.9-6.3,5.7-11.9,3
			c-0.3-0.1-0.7-0.5-0.8-0.5c-3.6,3.1-6.6-0.9-9.9-0.9c-2.3,0-5.5,1.8-5.5-3.4c-1.1,3.2-2.5,4.3-5.4,3.1c-2.1-0.9-4,3.7-6.6,0.5
			c-0.9-1-1.7,0.3-2.6,0.6c-2.5,0.9-5.1,1.4-7.6,0.5c-3.2-1.1-5.8-1.8-9.2,0.5c-1.9,1.3-6,0.5-8.5-0.6c-1.9-0.9-3.1-1-4.9-0.2
			c-3.6,1.7-7.3,0.5-11,0.2s-3.3,2.3-2,3.7c3.8,4-0.5,7.1-0.7,10.5c-0.4-0.3-0.7-0.7-1.1-1c-0.2-0.2-0.4-0.5-0.6-0.8
			c-1.6-2.1,0.3-5.7-2.9-6.9c-2.5-0.9-5.2-0.4-7.8-0.5c-5.7-0.2-8.1-2.7-7.5-8.4c0.3-2.8,0-5.6,1.3-8.2c2.2-2.5,4.2-3.7,8.1-2.1
			c3.5,1.5,7.6,1.6,11.1,3.6c3,1.8,5.8-0.7,8.7-1c7.9-0.9,15.6-1.3,23.6-1.3c7.1,0,14.3-0.1,21.5-1c2.4-0.3,4.4,1.5,6.8,0.9
			c8.9,3.7,17.7,0.4,26.6,0c7.7-0.3,15.4-0.3,22.9,1.9c1.3,0.4,2.6,0.2,3.9-0.4c2.4-1.1,4.8-4.5,7.5-0.2c0.3,0.4-0.2,0.1,0.4,0
			c13.1-2,26.3,0.9,39.4-1c5.6-0.8,11.4,0.6,17.1,0.9c4.9,0.2,10.1,0.4,15-0.4c3.6-0.6,6.9-0.5,10.3,0c6.6,1,13.2,1,19.6-1.2
			c3-1,5.5,0.4,8.1,1.4c2.1,0.8,4,1.4,6.2,0.4c5.6-2.6,11.3-1.2,17-0.3c0.6,0.1,0.8,1.2,1.7,0.2c2-2.2,4.7-1.6,7.1-1.2
			c11.4,1.7,22.9,0.8,34.2,0.3c10.3-0.4,20.4,0.3,30.6,0.2c1.9,0,3.6-0.2,5.4-0.7c2.1-0.7,4.3-2.4,6.2,0.4c0.4,0.5,1.3,0.5,1.9,0.3
			c7.8-2.9,15.9,0.7,23.7-1.3c2.1-0.5,4.3,0.3,6.4,0.5c1.5,0.2,3,0.9,4.4,0.5c4.7-1.5,9.4-0.9,14.2-0.5c11.3,0.8,22.4-1.1,33.6-1.6
			c3.2-0.1,6.1-0.2,7.2,3.6c-0.7,1-2.1,3-2.6,2c-2.8-5.3-6.1,0-8.9-0.8c-4-1.1-5.7,1.6-7.9,4c-1.3,1.5-3.7,2.9-4.2-0.5
			c-0.5-3-1.5-1.3-3-1.6c-5.2-1.1-7,3-10.4,4.7c-2.5,1.3-3-2.6-2.3-5.5c-2.9,1.2-5.2,3.5-7.9,0.8c-0.3-0.3-1.5-0.3-1.9,0
			c-2.8,2.1-4.9,3.6-7.3-1c-0.8-1.5-2.4,2.1-4.2,2.8c-0.7-1.4-0.8-4.7-3.6-2.1c-4.3,4.1-2.1-1.3-3.2-2c-2.4,1.3-2.5,4-3.6,6
			c-1.3,1.9-2.8,2.2-5.4,2.3c-9.5,0.2-19-1.1-28.4,0.6c-0.9,0.2-1.5,0.6-2.2,1.1c-0.3,0-0.7,0-1,0c-0.6-0.3-0.9-1.5-0.9-1.4
			C497.7,32.3,494.6,30.5,492.9,32.1z"/>
		<path class="st41" d="M607.9,20.1c-2.3-2.6-5.3-2.4-8.4-2.4c-7.7,0-15.1,2.1-22.9,1.6c-5.5-0.3-11.8-1.5-16.5-0.5
			c-8.7,1.9-17.1-0.7-25.7,0.5c-5.5,0.8-12.2,2-17.3,0.4c-4.8-1.5-8.2,1.3-12.3,0.7c-4.4-0.7-8.8-0.6-13.4-0.2c-3,0.3-6.2-1-9.6-0.6
			c-7.4,0.8-14.9-0.2-22.3,0.3c-6.9,0.4-13.6-0.5-20.4-0.2c-7,0.3-14.6-1.7-20.6,0.1c-6.5,1.9-11.1,0.3-16.6-1.3
			c-2.3-0.7-4.2,1.8-7.1,2c-6.7,0.5-13.2-0.9-19.6-0.4c-6.1,0.5-12.4-1.4-18.3,1.4c-1,0.5-2.1,1.1-2.7-0.7c-0.5-1.3-2.3-1.1-3.1-1
			c-5.8,1.2-11.5-0.9-17.3,0.1c-6.1,1.1-12.4,1-18.6,1.5c-3.2,0.3-6.6-1.9-10.2-2c-1.6,0-3.2-0.2-4.7,0.7c-2.6,1.5-2.7,1.5-4.1-1.2
			c-0.7-1.4-1.5-0.3-1.9,0c-3.6,2.6-7.1,5.2-11.4,1c-0.5-0.5-2.9,0.7-4.7,0.6c-4.7-0.3-9.5-0.5-14.1-0.9c-6.2-0.5-11.6,2.7-17.6,2.5
			c-0.6,0-1.8,0.4-1.9,0.3c-1.5-3.8-5.8-0.8-7.7-3.4c0.3-2.9,2.5-2.3,4.4-2.5c1.8-0.2,3.6,0.4,5.3,0.7c3,0.7,4.8-0.2,4.2-3.7
			c2-2.5,4.9-1.9,7.3-1.8c3.3,0.2,6.5-0.2,9.8-0.3c2.9,1.9,6.3,0.9,9.2,0.6c9.2-1,18.4,0.7,27.6,0.2c12.4-0.7,24.7,0.6,37.1-0.1
			c6.3-0.4,12.8-0.4,19.1-0.1c9.3,0.2,18.7-0.4,28,0.7c4.9,0.6,10-0.4,14.9-0.6c5.4,1.3,10.9,1.8,16.4,1.4c0.9-0.1,1.4-0.7,2.2-0.8
			c15.5-1.3,30.9-0.1,46.4-0.4c11.6-0.3,23.4,0.9,35,0.4c12-0.5,24,0.7,36-0.5c0.3,0,0.7,0,1,0c5.4,1.3,10.8,0.6,16.2,0.1
			c2.6-1.5,5.2,0.9,7.8,0l0,0c9-0.2,18-0.1,27-0.3c4.3,3.4,9.3,1,13.9,1.2c9.2,0.3,18.4-0.1,27.5-0.1c10.8-0.1,21.6-0.3,32.4-0.6
			c7.1-0.2,14.3-0.9,21.4,0.3c2.6,0.4,5.3-0.8,7.8,0.4c0.3,0,0.6,0,0.9,0c1,2.2,3-0.1,4.4,1.1c0,2.4-2.8,3-3.4,5s-1.3,4-2.1,6.5
			c-1.5-4.4-6.6-7.8-11.3-7.4c-3.2,0.3-6.7,0.7-9.6,2c-4.8,2.1-9,0.3-13.4-0.8c-2-0.5-2.8,1.7-5.2,1c-5.1-1.5-10.6-2.2-15.9-2.2
			c-4.8,0-9.4,3.3-14.6,1.3c-0.7-0.3-2.1,1.2-3.3,2c-0.8-2,1.8-2.2,1.5-4.2c-4,2.6-8.8,2.5-13.2,4C609.4,21.5,608.5,20.5,607.9,20.1
			z"/>
		<path class="st36" d="M500.9,31.1c0.9-4.9,5.5-2.6,7.6-2.9c4-0.5,8.3-0.9,12.8,0.6c2.1,0.7,6.2-1.6,9.3-0.7
			c2.5,0.7,4.3,0.1,6.3-0.9c0.1,1.5,0.5,3.9,2.1,2.6c3.1-2.5,4.1,0.3,5.9,1.4c-0.1,1.4-0.9,2.2-2.3,1.7c-2.8-0.9-5.5,0-8.2,0.1
			c-1.3,0.1-2.5,1.7-2-1.1c0.1-0.7-0.4-1.2-1.2-0.9c-7.4,2.8-15.4-0.3-23,1.9C506.1,33.4,503.4,31.7,500.9,31.1z"/>
		<path class="st36" d="M563.9,31.1c-5.5,3.5-11.3,1.6-17,1c1.4-3.2,2.1-6.9,6.4-1.7c2.1,2.6,6-0.6,9.2-0.5
			C563.8,29.9,563.8,30.3,563.9,31.1z"/>
		<path class="st42" d="M173,115c-0.2-2.8,0.1-5.4-1.1-8.3c-0.7-1.7-0.5-4.6,1.3-6.5c0.6-0.6,1.6-1.5,1-2c-5-4.6,0.4-11.1-3-15.9
			c-0.2-0.2-0.3-0.8-0.1-0.9c3.8-4.4,1.4-9.3,0.8-13.9c-0.4-2.9,4.5-4.2,2.1-7.5c1.6,1.4,6-0.6,5,4c-5.3,2.4-6,5.5-2,9
			c0.4,1.8,1.4,3.4-1.6,4.6c-2,0.8-3.6,3.6-1.3,5.8c2.3,2.1,1.6,4.6,0.7,6.3c-2.9,5.1,0.5,6.6,4.1,8.3c0.5,0.2,1.1,0.4,1.6,0.6
			c-0.1,1.2-0.8,1.2-1.4,1.3c-5.3,0.7-6.4,2.6-3.9,7.6C176.8,110.8,176.2,113.2,173,115z"/>
		<path class="st43" d="M190.9,131.9c-4,3.8-8.5,1.5-12.8,1c-2.6-2.9-1.7-4.5,2-5c1.8-0.2,3.5-0.8,5.3-0.9
			C188.8,126.7,191.2,127.9,190.9,131.9z"/>
		<path class="st44" d="M184.6,102c2.4-0.1,4.6-0.2,5.7,2.6c0.6,1.6,0.1,2.5-1,3.4c-1.8,1.5-3.5,2.4-5.7,0.4
			c-0.5-0.5-1.5-0.5-2.4-0.5c-1.8-0.1-4.1,0.1-4.1-2.4s2-3.6,4.4-3.6C182.7,102,183.7,102,184.6,102z"/>
		<path class="st45" d="M186.5,120.8c-2.9-0.4-5.2-0.6-7.5-1.1c-1.5-0.3-2.2-1.5-2.3-2.9c0-1.9,1.6-1.8,2.9-1.8
			c2.1-0.1,4.3-0.1,6.4-0.1c2.1,0.1,4.9-0.4,4.7,2.8C190.6,120.3,187.9,120.5,186.5,120.8z"/>
		<path class="st46" d="M190.9,139c0.4,4.7-2.4,5.6-6.2,5.3c-1.2-0.1-2.3-0.3-3.4-0.4c-1.6-0.1-3.7,0.2-3.8-2.1
			c0-2.1,1.6-3.4,3.6-3.6c3-0.3,6-0.1,9-0.2C190.3,138.4,190.6,138.7,190.9,139z"/>
		<path class="st9" d="M177,156c-1.1-0.7-2.7-1.4-2.3-2.7c0.5-1.9,2.4-2.4,4.3-2.3l0.1,0.1c0.3,2-0.9,3.4-1.9,4.9H177z"/>
		<path class="st47" d="M177.1,155.9c-0.5-2.1,0.3-3.6,1.9-4.9c3.6,0,7.3,0.1,10.9,0.1c0.3,0.3,0.6,0.6,1,0.9
			c0.3,3.7-1.8,5.1-5.1,4.9C182.9,156.7,180,156.2,177.1,155.9z"/>
		<path class="st48" d="M190,168c0.2,1.3,0.2,2.6,0.6,3.9c0.5,1.9,0.9,3.7-1.2,4.7c-2,1-4.1,1.4-6.1,0.1c-2.5-1.5,0-3.1-0.1-4.6
			c-0.1-2.4,1.7-3,2.9-4.2C187.4,168,188.7,168,190,168z"/>
		<path class="st49" d="M184.4,161c3,0,5.3,0.7,5.3,3.2c0,2.8-2.7,1.4-4.2,1.8c-0.3,0.1-0.7,0.1-1,0c-2-0.6-5.6,1.3-5.7-1.5
			C178.8,161.8,182.3,161.1,184.4,161z"/>
		<path class="st50" d="M184.2,79c0.8,0,1.6,0,2.5,0c1.8,0.1,3.6,0.7,3.1,2.8c-0.5,2.2-2.5,3.2-4.5,2.5c-1.5-0.5-2.9-1.4-4.6-1.4
			c-1.2,0-3.1,0.6-3.1-1.3c0-1.5,1.6-2.4,3.2-2.6C181.9,79,183.1,79.1,184.2,79C184.2,79.1,184.2,79.1,184.2,79z"/>
		<path class="st42" d="M158,19.1c-0.3,3.1-0.2,6.2-0.8,9.3c-0.8,4.1,1.8,6.4,5.9,6.2c2.9-0.2,5.8,0.1,8.7,0.4
			c2.1,0.2,3.3,1.2,2.9,3.6c-0.2,1.8,0.1,3.6,0.2,5.4c0,5.4-3.5,10.5-1,16c-2.7-0.6-3.4-1.4-2.6-4.7c1.1-4.6,0.5-9.8,0.2-14.6
			c-0.2-3-1.7-4.1-5.1-2.6c-3.6,1.5-7.7,3.6-10-2.5c-1-2.7-3.6-2.6-5.5-0.1c-0.2,0.3-0.4,0.5-0.6,0.8c-1.5,2.1-2.7,5.6-5.8,4.3
			c-3.2-1.3-5.5-4.2-5.7-8.1c-0.3-4.9-0.6-9.8-1-14.7c-0.1-1.2,0.2-3.1-1.8-2.9c-1.5,0.2-1.5,1.6-1.5,3.1c0,5.7,1.4,11.5-0.7,17.1
			c-1.2-1-1.3-2.5-1.4-3.9c-0.1-4.5,0.1-8.9-0.6-13.4c-0.9-5.3,1.9-7.3,7-5.3c5.8,2.3,5.8,2.3,4.3,8.5c-0.8,3.1-1.4,6.2-0.1,9.3
			c0.5,1.2,0.9,2.7,2.6,2.6c1.7-0.1,2.6-1.4,2.7-3.1c0.4-3.9,0-7.6-1.2-11.3c-0.8-2.4-0.9-5,1.8-6.6c0.7-0.4,1.3-0.1,1.8,0.3
			c1.8,1.6,4,0.5,6,1C161,14.5,161,16.5,158,19.1z"/>
		<path class="st51" d="M190,72c-2.4,1.8-4.7,3.3-7-0.2c-0.3-0.4-1.1-0.5-1.8-0.7c-1.3-0.4-3.6,0.7-3.7-1.3c0-2,2.4-2.4,4.1-2.8
			C188.2,65.7,189.6,66.5,190,72L190,72z"/>
		<path class="st52" d="M712.8,31c-0.7,0.9-1.4,1.8-2.1,2.7c-1.5,1.7-3.1,2.9-5.6,2c-3-1.1-1.3-3.2-1.2-4.9c0.4-5.3,1.8-6.6,5.6-5.6
			c2.1,0.6,2.5,2.5,3.4,4C712.9,29.7,712.8,30.4,712.8,31z"/>
		<path class="st53" d="M134,31c0,1.4,0,2.7,0,4.1c-0.3,2.2-0.6,4.5-0.9,6.7c-1.1,0-2.2,0-3.2,0c-2.3-2-3.5-4.3-2.5-7.4
			C130,34,132,32.5,134,31z"/>
		<path class="st54" d="M29.4,41.8c-1.9,0-3.7,0-5.6,0C17.3,35.5,21.3,28.7,23,22c1.9,1.9,1.2,4.3,1.4,6.6c0.3,3.1-0.8,6.3,1,9.2
			c3.6,0.1,2.1-2.7,2.1-4.2c-0.1-5.9-2-11.7-1.5-17.7c-0.3-3.4,1-4.5,4.6-4.4c2.2,0.1,4.2,1.7,6.5,0.6l0,0c3.7,1,0,3.5,1,5l0,0
			c-0.3,0-0.6,0-1,0c-1.1-0.7-2-1.8-3.5-1.5c-3.4,0.4-3.2,2.9-2.8,5.2c0.9,5.1,0.6,10.2,0.6,15.2C31.4,38.1,31.6,40.4,29.4,41.8z"/>
		<path class="st55" d="M18.1,42c-0.1,0.3-0.2,0.7-0.2,1c-3.2-4.1-6.3-8-2.3-13.6c1.2-1.7,0.5-4.8,1-7.3
			C19.1,28.6,17.6,35.3,18.1,42z"/>
		<path class="st19" d="M37.1,12.1c-1.4,1.9-2.9,0.3-4.4,0.1c-3.8-0.6-6.5,0.1-5.6,4.9c-1,0.9-1,2.7-2.5,3.2
			c-0.2-0.1-0.4-0.2-0.6-0.2c0-3.6-1.6-6.3-5-7.9c4.3,1,8.1-1.7,12.5-1.4C33.5,10.9,35.1,12,37.1,12.1z"/>
		<path class="st19" d="M25.1,40c-3.1-2.7-1.8-6.4-2-9.7c-0.2-2.8,0-5.5-0.1-8.3c0.3-0.7,0.6-1.4,0.9-2l0.1,0.1
			c1.7,1.7,1.6,3.9,1.4,6C25.1,30.7,27,35.4,25.1,40z"/>
		<path class="st56" d="M43.1,12.2c3.1-0.4,5.5,2,8.6,2.2c2,0.1,1.1,2.4,1.3,3.7l0,0c-1.5,8-2.1,16,1.6,23.7
			C43.2,42.4,43.2,42.4,43,31.3c-0.1-4.6-0.6-9.2-0.9-13.8C42,15.6,42,13.8,43.1,12.2z"/>
		<path class="st57" d="M72.4,41.8c2.7-8.1,1.3-16.4,0.6-24.6c-0.1-1.6-1.1-3.7,1-4.3c2.5-0.7,5.2,0,7.6,1.1c2,0.8,0.9,2.4,0.8,3.8
			c-0.7,8.1-0.7,16.1,1.3,24.1C80,41.8,76.2,41.8,72.4,41.8z"/>
		<path class="st58" d="M128.1,34c-0.7,2.9,1.6,5.1,1.9,7.8c-3.9,0-7.9,0-11.8,0c-1.9-2-1.5-4.3-0.7-6.5c1.8-5,1.6-10,0.7-15.1
			c-0.5-2.7-0.6-5.6,3-6.2c3.2-0.5,6.5-0.7,7.1,3.8c0.3,4.6-0.3,9.2,0.5,13.8C128.9,32.5,128.7,33.3,128.1,34z"/>
		<path class="st59" d="M97.9,41.7c-2.9,0-5.9,0-8.8,0.1c-1.3-8.4-0.3-16.8-0.5-25.3c-0.1-1.7,0.9-2.9,2.7-3
			c2.1-0.1,3.5,1.2,3.7,3.3c0.4,4.8,1.4,9.6,1.4,14.4C96.4,34.9,99.5,37.9,97.9,41.7z"/>
		<path class="st60" d="M111.8,41.8c-2.5,0-4.9,0-7.4,0c-1.6-8.8-0.6-17.7-0.4-26.5c0.1-2.4,2.5-2.7,4.6-2.6c0.6,0,1.1,0.1,1.6,0.4
			c0.4,0.4,0.6,0.9,0.8,1.4c0.8,4.6-0.2,9.2,0.7,13.7c0.2,0.5,0.3,1,0.4,1.6C112.2,33.8,113,37.8,111.8,41.8z"/>
		<path class="st18" d="M29.4,41.8c1.2-6.8,1.1-13.7-0.1-20.5c-1.1-6.4-0.5-7.3,5.8-7.1c0.7,0.4,1.5,1,1.4,1.9
			c-1.6,8.6-0.7,17.2-0.4,25.7C33.8,41.8,31.6,41.8,29.4,41.8z"/>
		<path class="st61" d="M97.9,41.7c-3.2-7.5-3.9-15.5-4-23.6c0-1.8,0.1-3.6-2.1-3.8C89.2,14,89,16,89,17.9c0,7.9,0.1,15.9,0.1,23.8
			c-0.6,0-1.2,0-1.7,0c1.1-8.1,0.6-16.2,0.6-24.3c0-2.5,0.2-5.6,3.2-4.8c2.7,0.8,8.3-2.2,7.9,4.4c0.1,0.3,0.1,0.5,0.2,0.8
			c0.5,6.1-0.3,12.3,0.6,18.5c0.2,1.8,0.9,3.6-0.1,5.4C99.2,41.8,98.6,41.8,97.9,41.7z"/>
		<path class="st62" d="M65.8,41.7c-1.9,0-3.7,0-5.6,0c-1.4-2.3-0.5-4.8-0.6-7.2c0-5.3-0.2-10.5-1-15.8c-0.3-2.2-0.7-5.1,2.7-5.3
			c3.2-0.2,4,2.4,4,5.1C65.4,26.3,65.5,34,65.8,41.7z"/>
		<path class="st63" d="M65.8,41.7c-0.9-1.7-0.9-3.5-0.8-5.3c0.5-6.3-0.8-12.5-1-18.8c0-1.8-0.5-3.5-2.7-3.3s-2.6,2.1-2.2,3.7
			c1.7,7.9,0.5,15.8,1.1,23.7c-0.9,0-1.8,0-2.8,0c3-5.1,1.3-10.6,1.4-16c0-3.4-0.8-6.8-1.5-10.2c-0.6-2.7,0.6-4.2,3-3.4
			c2.8,1,8.1-1.4,7.7,4.8c0.1,1.1,0,2.2-1,2.9c-2,5.9-0.7,11.9-0.7,17.9c0,2.1,3,1.9,3.4,3.9C68.4,41.8,67.1,41.8,65.8,41.7z"/>
		<path class="st64" d="M38.1,17.1c2.1-1.2,3-0.6,3,1.8c0,5.5-0.3,10.9,0.9,16.4c0.3,1.6,0.6,4.2-2,4.3c-2.2,0.1-2.7-2.4-2.8-4.1
			c-0.1-4.3,0.1-8.6,0.2-12.9C37.5,20.7,37.9,18.9,38.1,17.1L38.1,17.1z"/>
		<path class="st65" d="M111.8,41.8c-1.5-4.2-0.5-8.5-0.8-12.7c3.8,0.7,1.2,4.7,4.1,6.9c1.9-4.2,2.4-8.4,2.3-12.7
			c0-1.1-0.5-2.2-0.6-3.4c-0.2-2.8-1.2-6.4,2.5-7.1c3.2-0.6,7.3-1.4,9.6,2.7c0.1,0.8,0,1.6-0.5,2.3c-0.4,0.5-0.9,0.6-1.4,0.2
			c-0.1-4.7-3.6-2.7-5.9-2.9c-2.1-0.2-2.4,1.7-2,3.2c1.6,6.4,1.6,12.7-0.9,19c-0.5,1.3-0.1,3-0.1,4.5
			C116,41.8,113.9,41.8,111.8,41.8z"/>
		<path class="st66" d="M99.8,41.8c-0.3-1.6-0.5-3.1-0.8-4.7c2.8-0.5,3.7-2.3,3.8-4.9c0.1-4.5-0.2-8.9,0.1-13.4
			c0-0.2,0.1-0.5,0.1-0.7c-1.2-6.1,2.6-6.5,7.1-6.1l0,0c0.2,0.3,0.3,0.5,0.2,0.7S110.1,13,110,13c-4-0.4-5.4,1-5.1,5.4
			c0.4,7.7,0.8,15.5-0.4,23.3C102.9,41.8,101.3,41.8,99.8,41.8z"/>
		<path class="st56" d="M36,41.8c-1.8-7.9-0.9-15.9-0.6-23.9c0-1.3,0.4-2.5-0.3-3.7c2.1,0,2,1.6,2.1,3c-1.1,7.9-2.3,15.7,0.5,23.5
			C38,41.8,36.8,41.7,36,41.8z"/>
		<path class="st67" d="M267.9,12.1c-5.5,1.6-11.5-0.7-16.9,2c-3.4,0.7-6.8,0.1-10.3,0.3c-15.2,0.5-30.3-1.2-45.5-0.3
			c-11.1,0.6-22.2-0.4-33.3-0.3c-1.2,0-2.2-0.6-2.9-1.6c0-0.4,0-0.7,0-1.1c1.4-1.4,3.4-1.6,5.1-1.4c6.5,0.9,13-1.2,19.4,0.3
			c4.4,1.1,8.7-0.9,13.2-0.4c8,0.9,16.1,1.5,24.3,0.1c4.2-0.7,9.1,1.2,13.6,0.7c11.3-1.2,22.7,2.5,33.9-0.9c1-0.3,1.2,0.8,1.4,1.6
			C270,12.8,269.1,12.7,267.9,12.1z"/>
		<path class="st68" d="M539.9,12c-4.7,1.9-9.5,2-14.6,1.4c-5.7-0.7-11.7-0.4-17.5,0.1c-6.1,0.6-12.2,0.2-18.3,0.2
			c-7.3,0.1-14.5-0.4-21.8,0c-7.4,0.4-14.8-0.6-22.2-0.2c-7.8,0.4-15.6-0.2-23.4-0.4c-0.3-0.2-0.3-0.5-0.3-0.7
			c0.1-0.2,0.1-0.4,0.2-0.4c10.7-1.8,21.5-1.1,32.2-1.3c13.1-0.2,26.2,1,39.3,0.7c10.8-0.2,21.6-0.2,32.5-1
			C530.3,10.3,535.4,10,539.9,12z"/>
		<path class="st69" d="M694.9,13c-9.6,0.8-19.2-0.1-28.8,0.1c-9.3,0.2-18.5-0.2-27.7,0.4c-7,0.4-14-0.9-20.8-0.1
			c-6.7,0.8-13.4,0.1-20,1.2c-2.5,0.4-5.1,1.2-5.7-2.6c-0.3-0.2-0.5-0.5-0.3-0.7c0.1-0.2,0.2-0.3,0.4-0.3c13,1,26,0.2,38.9,0.3
			c9.6,0,19.2-0.1,28.7-0.1c11.2,0,22.5-1.4,33.6,0.9C693.8,12.3,694.4,12.7,694.9,13z"/>
		<path class="st70" d="M267.9,12.1c0.8-0.1,1.6-0.2,2.1-1.1c12.9-0.8,25.8,0.2,38.7,0c11-0.2,22-0.9,32.9-0.5
			c5.9,0.2,11.7,1.1,17.6,0c0.5-0.1,1.2,1,1.8,1.5c-3.6,2.4-7.7,0.8-11.5,1.1c-6.5,0.4-13.1,1.1-19.5,0.6
			c-9.3-0.8-18.5,0.5-27.7-0.1c-10.4-0.6-20.7-1.5-31.1,0.2C269.6,14.1,268.7,13.4,267.9,12.1z"/>
		<path class="st71" d="M591.9,11.1c0,0.3,0,0.7,0,1c-5.2,0.4-10.1,1.6-15.5,0.7c-3.6-0.6-7.6,0.7-11.4-0.7c6-2.4,12.3-1.2,18.4-1.6
			C586.2,10.3,589.1,10.9,591.9,11.1z"/>
		<path class="st72" d="M421.9,12.1c0,0.4,0,0.7,0,1.1c0.1,0.6,0.7,1.6-0.1,1.6c-6.1-0.3-12.4,0.9-17.9-2.7
			C409.9,10.7,415.9,12.1,421.9,12.1z"/>
		<path class="st68" d="M556.9,13.1c-4.3,0.6-8.5,0.8-12.9,0.6c-1.7-0.1-2.1-1.2-3.2-1.7c4.3-1.4,8.7,0.5,13-0.9
			C554.9,11.8,557.1,10.5,556.9,13.1z"/>
		<path class="st71" d="M556.9,13.1c-1-0.6-2-1.3-3-1.9c3.8-1.5,7.4-0.1,11,0.9C562.5,14.3,559.4,11.4,556.9,13.1z"/>
		<path class="st73" d="M53.1,18.1c1.2-0.4,0.7-2.5,2.1-2.4c1.4,0.1,1.7,1.6,1.8,2.7c0.2,5.6,1.6,11.1,1.2,16.8
			c-0.1,1.9-0.8,3.5-2.7,3.4s-1.3-2-1.3-3.2C54,29.6,52.5,23.9,53.1,18.1L53.1,18.1z"/>
		<path class="st74" d="M67,20c0.1-1.1-0.1-2.2,1-2.9c2.4-1.3,3.9-0.6,4,2.1c0.1,5.5,0.1,11.1-0.1,16.6c0,1.4-0.6,3.2-2.6,3
			c-1.9-0.2-2.2-1.8-2.2-3.4c0-3.1,0-6.3,0-9.4c1.9-0.7,3-1.9,2.5-4.2c-1.1,0.4-0.7,2.8-2.5,2.3C67.1,22.7,67,21.4,67,20z"/>
		<path class="st75" d="M99.1,17.1c2.2-3.1,2.7,0.3,3.9,1l0,0c1.1,3.1,0.3,6.2,0.5,9.3c0.1,1.8-1,2.8-2.7,2.8
			c-1.6,0-2.2-1.3-2.2-2.8C98.8,24,98,20.5,99.1,17.1L99.1,17.1z"/>
		<path class="st76" d="M87,27c0,2.5,0,5,0,7.4c0,1,0,2.2-1.3,2.3c-1.3,0.2-1.5-0.9-1.6-2c-0.4-3.9-1.5-7.8-1-11.8
			C85.6,23.2,85.2,26.2,87,27z"/>
		<path class="st77" d="M87,27c-3.5,0.8-2.5-2.8-3.9-4c0.1-2.3-0.7-5,2.5-6.3C88.1,19.9,86.7,23.6,87,27z"/>
		<path class="st78" d="M67.1,24.1c0.3-0.4,0.7-0.8,0.8-1.2c0.5-1.6-0.4-4.6,2.1-4.1c2.2,0.4,1,3.4,1,5.2c0,2.7-1.5,3.5-3.9,2.1
			C67.1,25.4,67.1,24.7,67.1,24.1z"/>
		<path class="st21" d="M110,13.1c0-0.4,0.1-0.7,0.1-1.1c4.8-1.2,9.6-1.5,14.4-0.3c1.6,0.4,3.2,0.8,4.6-0.6c3.3,1.4,6.6-2.9,10,0
			c2.7,1.7,5.6,1.5,8.2,0.1c1.9-1,2.9-1,3.8,0.9c-4.2,0.7-3.3,3.6-2.3,6.1c1.4,3.7,1.5,7.4,1.4,11.2c-0.1,2.8-1.7,5-4.3,5.3
			c-2.6,0.4-3.3-2.1-4-4.2c-1.5-4.5-0.4-8.8,1.2-13c0.8-2,1.3-2.9-1.6-3.6c-8.6-2-8.5-2.2-7.4,6.7c0.4,3.4,0.1,7,0.2,10.4
			c-1.4,2.3-1.3,7.3-6,3c0-0.7,0-1.3,0-2c-1-2.3-0.2-4.7-0.5-7.1c2.8-2.6,2,2.1,3.9,1.8c0.8-4.2-1-7.8-2.9-11.4
			c-3.1-3.1-6.9-2.7-10.5-1.8C115.2,14.3,112.6,14.9,110,13.1L110,13.1z"/>
		<path class="st79" d="M22,11.1c-2.1,0.2-3.1-0.7-3-3.1c0-2,0.9-3,3-2.9c2.2,0.1,4.1,0.4,4,3.1C26,10.6,24.3,11.1,22,11.1z"/>
		<path class="st80" d="M159,12.1c7.1,0.2,14.2,0.2,21.3,0.7c12.9,0.8,25.8-1.5,38.8,0.4c5.9,0.8,12.3-0.6,18.5-0.2
			c4.5,0.3,9.1-1.1,13.4,1.2c0.5,1.2,3.2,1.4,2.1,2.7c-1.5,1.9-4.1,2.6-6.7,1.9c-3.2-1-6.4-2.1-9.5,0.4c-2.9,1.8-5.6-1.3-8.5-0.3
			c-0.2,0.1-0.7-0.4-0.9-0.3c-5.4,2.7-11.2,0-16.7,1.4c-4.5,1.2-9.1-0.9-13.6-0.7c-0.8,0-1.9-0.7-2.3-0.3c-4.1,2.8-8.3,3.7-13,1.7
			c-0.3-0.1-0.9,0.3-1.2,0.6c-1.3,1.1-5.8,1.4-6.7,0.2c-1.5-2.1-3.3-2.2-5.7-2.1c-3.4,0.2-6.7-3.3-10.2-0.2c1.1-2.2,1.5-4.3-1-6
			C157.8,13,158.6,13,159,12.1z"/>
		<path class="st36" d="M492.9,32.1c0.2-1.1,0.1-2.4,1.8-2.4c3.1-0.1,3.1-0.1,5.2-2.4c0,1.4,0,2.6,0,3.8
			C497.7,31.9,495.9,36.1,492.9,32.1z"/>
		<path class="st13" d="M25.1,40c-1.6-6.6-0.9-13.3-1-19.9c1.3-0.8,0.8-3.2,3-3c-0.4,5.7,1.8,11,1.8,16.6
			C28.9,36.4,30.1,40.2,25.1,40z"/>
		<path class="st66" d="M128.1,24c0,2.7,0,5.4-0.1,8c-2-4.5-0.5-9.3-1-14c0.3,0,0.6,0,0.9,0C129.7,20,129.7,22,128.1,24z"/>
		<path class="st66" d="M110,13.1c5.2,0.3,10.4-1.4,15.7-0.1c2,0.5,3.6,0.5,3.3,3.1c-0.2,0.3-0.5,0.4-0.9,0.2c-1.9-4-6-2.4-8.7-2.3
			c-3.2,0.1-1.7,4-1.2,5.8c1.4,5.2,0.2,10.2-1,15.1c-0.4,1.6-0.9,3.7-2.8,3.5c-1.7-0.2-2-2.4-2.3-4c-0.4-1.7,0.6-3.7-1-5.2l0,0
			c-0.8-3-0.7-5.9-0.1-8.9c2.4-0.2,2,1.7,2.3,3c0.4,1.7-0.2,3.7,1.4,5.1c2.3-5.7,1.5-8.5-2.3-8c-2.5-1.4,0.4-4.9-2.3-6.2
			C110,13.7,110,13.4,110,13.1z"/>
		<path class="st65" d="M110.1,14.1c5.9,0.3,0.8,4.2,2,6l0,0c-2,2.8-0.5,6-1,9C108.9,24.2,110.5,19.1,110.1,14.1z"/>
		<path class="st81" d="M99.1,17.1c0,3.3,0,6.6,0,9.9c0,1.1,0.2,2.5,1.8,2.3c1.3-0.1,2.1-1,2.1-2.4c0-3,0-5.9,0-8.9
			c2,6,1.3,12,0.4,18c-0.4,2.6-2.2,3.8-4.4,1C97.5,30.4,97.3,23.8,99.1,17.1z"/>
		<path class="st82" d="M128.1,16.2c0.3-0.1,0.6-0.1,0.9-0.2c2.9,1.6,5.3,9.9,3.6,12.6c-0.3,0.5-1,1-1.5,1c-0.9,0.2-1.5-0.6-1.8-1.4
			c-0.5-1.4,0.2-3.1-1.2-4.2c0-2-0.1-4-0.1-6C128,17.4,128.1,16.8,128.1,16.2z"/>
		<path class="st83" d="M148,25.2c0,0.8,0,1.7,0,2.5c-0.1,1.4-0.2,2.8-1.9,3c-1.4,0.1-1.9-1.2-2.3-2.2c-0.4-0.9-0.7-1.9-0.7-2.8
			c0.1-2.8-1.2-6.3,2.4-7.9C147,16.9,148,19.8,148,25.2z"/>
		<path class="st84" d="M112.1,20.1c1.3-0.8,1.6-3.4,3.7-2.7c2.1,0.7,1.2,2.8,1.3,4.3c0.1,2.3,0,4.6-0.1,6.9
			c-0.1,1.3-0.9,2.2-2.2,2.3c-1.3,0.1-1.4-1-1.8-2C111.6,26,112.3,23,112.1,20.1L112.1,20.1z"/>
	</g>
</g>
</svg>
