<?xml version="1.0" encoding="utf-8"?>
<!-- Generator: Adobe Illustrator 25.0.0, SVG Export Plug-In . SVG Version: 6.00 Build 0)  -->
<svg version="1.1" xmlns="http://www.w3.org/2000/svg" xmlns:xlink="http://www.w3.org/1999/xlink" x="0px" y="0px"
	 viewBox="0 0 673 223" style="enable-background:new 0 0 673 223;" xml:space="preserve">
<style type="text/css">
	.st0{display:none;}
	.st1{display:inline;stroke:#FFFFFF;stroke-miterlimit:10;}
	.st2{fill:#271A10;}
	.st3{fill:#BEC0BA;}
	.st4{fill:#968B84;}
	.st5{fill:#7F8181;}
	.st6{fill:#A49890;}
	.st7{fill:#BCBCBB;}
	.st8{fill:#BBBBB9;}
	.st9{fill:#150D06;}
	.st10{fill:#393C3D;}
	.st11{fill:#494E4F;}
	.st12{fill:#232424;}
	.st13{fill:#120A04;}
	.st14{fill:#2E3131;}
	.st15{fill:#210C07;}
	.st16{fill:#230B08;}
	.st17{fill:#3F4243;}
	.st18{fill:#231E19;}
	.st19{fill:#666C6B;}
	.st20{fill:#362416;}
	.st21{fill:#422412;}
	.st22{fill:#626663;}
	.st23{fill:#4E2B15;}
	.st24{fill:#4E1A12;}
	.st25{fill:#2D170A;}
	.st26{fill:#130803;}
	.st27{fill:#3D2514;}
	.st28{fill:#29180D;}
	.st29{fill:#919691;}
	.st30{fill:#0B0705;}
	.st31{fill:#5B6060;}
	.st32{fill:#482D1A;}
	.st33{fill:#767C79;}
	.st34{fill:#868C88;}
	.st35{fill:#2C1C10;}
	.st36{fill:#4B5051;}
	.st37{fill:#646969;}
	.st38{fill:#707573;}
	.st39{fill:#2B2C2D;}
	.st40{fill:#53595A;}
	.st41{fill:#281B0F;}
	.st42{fill:#211208;}
	.st43{fill:#080503;}
	.st44{fill:#9AA09A;}
	.st45{fill:#3A2211;}
	.st46{fill:#3A100D;}
	.st47{fill:#5E1D14;}
	.st48{fill:#3E120E;}
	.st49{fill:#3F362E;}
	.st50{fill:#27211B;}
	.st51{fill:#0C0C0F;}
	.st52{fill:#3B332B;}
	.st53{fill:#322214;}
	.st54{fill:#771F1A;}
	.st55{fill:#5E1815;}
	.st56{fill:#231107;}
	.st57{fill:#5A1E14;}
	.st58{fill:#51321C;}
	.st59{fill:#71604F;}
	.st60{fill:#150903;}
	.st61{fill:#2D180B;}
	.st62{fill:#454949;}
	.st63{fill:#676B68;}
	.st64{fill:#979D97;}
	.st65{fill:#422311;}
	.st66{fill:#5E3A20;}
	.st67{fill:#605649;}
	.st68{fill:#5D4F41;}
	.st69{fill:#949A94;}
	.st70{fill:#727876;}
</style>
<g id="Camada_2" class="st0">
	<rect x="-173" y="-87" class="st1" width="948" height="396"/>
</g>
<g id="Camada_1">
	<g>
		<path class="st2" d="M667.9,60.1c1.7,0,3.3,0,5,0c0,1.3,0,2.7,0,4c-4.2-0.6-5.6,1-5.3,5.4c0.5,8,0.2,16.1,0.2,24.2
			c0,1.4,0.8,3-0.9,4c-3.3-7.8-7.4-15.5-6.6-24.2c0.4-4.2-1.2-8.1-0.6-12.2c0.3-1.9-0.4-4,1.6-5.4C664,56.3,665.4,59.2,667.9,60.1z"
			/>
		<path class="st3" d="M652.9,0.1c2.6,1.4,7.3,0.8,6,6c-1,0.8-2.1,1.1-3.4,0.9c-6.9-4.1-14.6-3.4-22.2-3.5
			C620.1,3.4,606.8,4,593.6,3c-0.6-0.1-1.1-0.4-1.5-0.8c0.3-0.7,0.6-1.4,0.8-2.1C612.9,0.1,632.9,0.1,652.9,0.1z"/>
		<path class="st4" d="M0.1,43.1c0.3,0,0.7,0,1,0c2.9,2.7,1.1,6,1.3,9.1c0,0.6,0,1.1,0,1.7c0.1,2.9-0.1,5.7,0.1,8.6
			c-0.4,6.4,0.9,12.8-0.9,19.1C1.2,82.2,0.7,82.3,0,82C0.1,69.1,0.1,56.1,0.1,43.1z"/>
		<path class="st5" d="M617.9,222.9c-13,0-26,0-39,0c-0.3-0.6-0.2-1.2,0.4-1.6c0.3-0.2,0.6-0.4,0.9-0.5c12.4-0.6,24.9-1.2,37.3,0.5
			C618.1,221.7,618.2,222.2,617.9,222.9z"/>
		<path class="st6" d="M0.1,82c0.3,0,0.6,0,0.9,0c2.3,2.3,0.8,5.5,2.1,8.1c0.4,2.3,0.4,4.6,0.4,6.9c-0.2,1.5-0.2,3-1.4,4
			c-1.7-1.3-0.4-3.7-2-5C0.1,91.4,0.1,86.7,0.1,82z"/>
		<path class="st7" d="M617.9,222.9c0-0.3,0-0.6,0.1-0.9c5-2.6,10-2.6,15,0c-0.1,0.3-0.1,0.6-0.1,0.9
			C627.9,222.9,622.9,222.9,617.9,222.9z"/>
		<path class="st8" d="M578.8,222c0.1,0.3,0.1,0.6,0.1,0.9c-4.7,0-9.3,0-14,0c0-0.3,0-0.6-0.1-0.9
			C569.5,219.4,574.2,219.5,578.8,222z"/>
		<path class="st9" d="M2.3,97c-0.1-2.3-0.2-4.5-0.2-6.8c-0.6-2.9-0.2-5.9-0.5-8.9c-0.3-3.4,1.3-4,4.2-3.3c1.3,0.3,2.6,0.7,3.7,1.4
			c1.8,1,3.4,2.2,5.1-0.2c0.5-0.7,1.4-0.7,2.3-0.6c14.9,1.2,29.3-1.2,43.7-4.8c2.3-0.6,4.5-1.1,6.9-1c11.1,0.3,22.2-1,33.3,0.7
			c2,0.3,3.9-0.5,5.9-1c4.4-1.3,8.7-2.4,13.2-0.3c0.9,0.4,2.1,0.6,2.9,0.1c4.1-2.7,8.8-0.9,13.1-1.9c1.5-0.3,3,0.1,4.1,1.3
			c2.5,2.8,5.3,2.3,8.1,0.7c6-3.2,11.9-1.5,17.6,0.6c2.3,0.8,3.3,1.8,5.2-0.6c3-3.6,6.3-3.1,9.2,0.8c0.9,1.2,1.8,1.1,2.9,1.4
			c4.4,1,9-0.1,13.4,0.7c1,0.2,1.9-0.3,2.7-0.9c4.6-3.4,9.3-3.7,13.9-0.6c1.8,1.2,3.5,1,5.3,0.5c4.4-1,8.9-1.4,13.4-1.6
			c0.5,0,1-0.3,1.5-0.1c5.1,1.3,10,2.6,14.9-0.9c1.3-0.9,3.5-0.2,4.3,1.5c1.4,2.9,3.9,3.2,6.3,2.7c6.6-1.4,13.2,0,19.7-0.9
			c2.8-0.4,5-0.4,2.9-4.2c-1.1-1.9-1-4.7,1.6-6.1c1.5-0.8,4.5-0.6,4.5,0.4c-0.1,3.3,2.7,3,4.1,4.3c5.6,5.2,12.8,5.8,19.7,6.5
			c6.1,0.6,12.3,0.2,18.5,0.1c10.4-1.1,20.3,2.6,30.5,3.3c10,0.6,20.1,1.4,30-0.6c6.8-1.4,13.4-1.1,20.1,0.6c4.1,1,6.1,3.9,6.6,7.8
			c0.3,2.8-0.3,5.6-0.2,8.4c0,1.6-0.9,2.4-2.6,2.3c-7.8-0.3-15.6,0.5-23.3-0.4c-16-0.3-31.9-0.6-47.9-0.7
			c-34.5-0.3-69-0.5-103.4-0.7c-47-0.3-93.9-1-140.9-0.6c-16.9,0.1-33.8,3.1-50.7,4.3c-10.2,0.7-19.9,3.7-29.8,6.1
			c-2.6,0.6-5.2,1-7.9,0.6C6.3,104.1,3.7,101,2.3,97z"/>
		<path class="st10" d="M657.1,126.7c1.4,6.4,0.7,12.9,1.1,19.3c0.8,12.6,1.2,25.2,1.8,37.8c-1.9,3.9-5.8,3.9-9.1,4.1
			c-4.2,0.2-8.3,0-12,2.3c-1.6,1-3.6,0.8-5.4,0.5c-2.5-0.4-5.3-2.6-7,1.5c-0.2,0.6-1.8,0.7-2.3,0.3c-3.7-3-8.1,2.5-11.6-1.1
			c-2.5,5.5-7.7-2.2-10.8,2.3c-0.8,1.1-3.9,1.1-5.7,0.3c-4.6-2-8.8-1.6-13.1,0.9c-2.5,1.5-3.4-1.1-4.9-2.3c-2.1-1.8-2.2-5.6-4.6-6.2
			c-2.4-0.7-4.7,2.1-7,3.3c-1.9,0.9-3.6,0.3-5-1.1c-1.3-1.3-2.4-2.7-3.5-4.2c-1.7,2.1-4.6,2.5-5.6,5.9c-0.7,2.4-4.3,1.8-6.7,0.7
			c-3.5-1.6-5.9-6.7-5.1-10.7c0.2-1.2-0.4-2.3,0-3.4c0.5-11.7,5.7-20.9,15.3-27.2c9.3-6.1,18.1-12.7,26.7-19.7
			c3.6-1.8,6.9-2.2,9.6,1.5c0.5,0.7,1.5,1.5,2.1,1.2c3.5-2.1,6.4,0.5,9.5,1.2c1.5,0.4,2.2,0.5,2.9-1.3c1.2-3.2,3-3,5-0.4
			c1.9,2.5,4.3,4.2,7.7,3c1-0.4,2.2-0.1,2.8,0.7c2.4,3.2,6,2.6,9.3,3.5c4.4,1.2,9.8,1.2,12.5,6.5c1.6,3,7.7,4.4,8.4,2.5
			c0.8-2.5,2.8-4.4,2.5-7.4c-0.5-4,1-7.9,0.9-11.9C655.9,127.9,656.3,127.1,657.1,126.7z"/>
		<path class="st11" d="M540.8,176.6c0.8,1.5,1.1,2.9,0.7,4.7c-0.9,3.5,3.4,8.8,6.9,8.8c1.3,0,5.4,2.1,3.1-2.6
			c-0.5-1,0.5-1.7,1.2-1.8c3-0.3,4.4-2.8,6.7-4.7c-1.2,3.5,1.9,4.7,3.2,6.7c1,1.6,3.1,1.9,4.2,0.2c1.5-2.3,4.6-1.6,6.1-4
			c0.9-1.5,2-0.3,2.5,0.9c0.7,1.5,1,3.3,2,4.5c2.1,2.7,4.1,7.1,8.2,2.1c0.9-1.1,1.8-1.3,2.8-0.1c0.2,0.2,0.6,0.4,0.8,0.6
			c2.5,2.1,2.2-5.5,4.6-1.5c1.6,2.7,3.4,2.3,5.8,2.4c3.4,0.1,5.1-0.6,4-4.9c1.8,2.9,4.1,4.8,6.7,4.5s-0.4-3.3,1.4-4.8
			c1.7,3.6,3.8,6.3,7.5,1.9c0.3-0.4,1.7-0.4,1.8-0.2c0.9,2,2.5,1.8,4.3,2c3.9,0.5,0.6-2.2,0.8-2.1c2.1,1,4.2-3.1,6.3,0.1
			c0.4,0.6,2.7,0.7,3.6,0.2c7.4-4.4,16.7-0.8,24-5.7c1,5.6,1,11.3,1,16.9c0.8,2.1,0.3,4.2,0,6.4c-0.1,0.8,0.3,1.8-0.7,2.1
			c-1.1,0.4-2.3-0.1-2.6-1c-0.7-2.3-2.4-3.3-4.3-4.5c-4.2-2.7-4.1-3.4,0.4-6.2c0.6-0.3-0.5-0.7,0-0.3c0.1,0.1,0,0.2-0.3,0.4
			c-4.1,2.6-3.6,2.4-1,6.2c1.5,2.2,5.3,5,2.2,8.9c-1.1,1.3-1.6,2.8-3.9,1.8c-2.7-1.3-4.2,0.7-5.6,2.6c-3.9-1-7.6-0.1-11.4,1
			c-3.3,1-3.5-2.1-4.1-4.3c-1,1.3,1.7,7.3-3.8,3c-0.7-0.5-1.2,0.9-1.9,1.2c-4,1.7-7,0.9-9.8-2.6c-1-1.3-2.1-2.5-4-2.6
			c-1.8,1.5,1,5-2,5.4c-3.1,0.5-2.1-3.1-3.5-5.3c-1,3-0.8,6.9-4.7,6.3c-3.6-0.5-8.2,2.1-10.5-2.9c-0.1-0.3,0.1-0.8-0.5-0.8
			c0.2,0.2,0.5,0.6,0.4,0.9c-0.8,3.5-3.3,3-5.1,1.5c-1.4-1.1-2.8-1.3-4.2-1.9c-2.8-1.1-5.2-3.3-6,1.8c-0.1,0.7-1.5,0.7-2.3,0.4
			c-5-1.4-10.1-1-15.2-0.7c-3,0.2-5.8-1.4-9.1-0.1c-3,1.1-4.5-1.4-3.2-4.4c0.4-0.8,1-1.4,0.1-2.1c-1.1-0.9-2.2,0.2-3.3,0.3
			c-2.6-0.9-1.8-2.7-1.1-4.4c0.7-1.8,1.9-3.5,1.9-5.8c-0.5,2-0.3,4.5-2.5,4.8c-1.8,0.3-3.4-1.1-4-3
			C537,194.1,537.9,185.1,540.8,176.6z"/>
		<path class="st12" d="M663.1,100.1c-0.5,0.3-1.1,0.9-1.6,0.8c-4.9-1-5.6,2-5.5,5.7c0.3,0.8,0.5,1.6,0.3,2.4
			c-0.6,3.4,2,8.9-1.8,9.9c-4.3,1.1-9.6,1.8-14.3-1.1c-3.5-2.1-7.1-5.4-11.6-1.4c-1,0.9-2.7,0.5-3.7-0.5c-2.8-2.8-6.3-2.7-9.8-2.6
			c-1.7,0-3.4,0.1-4.9-0.5c-3.2-1.2-5.5-1.1-7.4,2.4c-1.3,2.4-3.7,2.7-5.8,0.4c-2.3-2.5-5.3-4.7-4.3-8.8c0.2-4.3-1.5-6-6.2-5.9
			c-16.7,0.1-33.3,0.6-50-0.8c2-2.1,4.6-1.6,7-1.6c12.8-0.1,25.5,0,38.3-0.1c4.9,0,4.9-0.1,4.1-5.1c0.4-2.8-0.3-5.6-0.7-8.4
			c-0.3-2.4,0.4-4.1,3.2-3.5c2.5,0.6,4.6-0.3,6.6-1.5c0.6-0.3,1.2-1,1.7-0.9c7,1,13.2-3.8,20.1-3c0.3,0,0.7,0,1,0.1
			c6.3,3.6,12.5-0.4,18.7-0.2c7.6,0.1,15.2-3,22.8-0.3c0.1,5.1,0.1,10.3-0.7,15.3C658.2,95.4,658.6,98.5,663.1,100.1z"/>
		<path class="st13" d="M587,92c0,0.2,0,0.3,0.1,0.5c2.7,7.6,2.7,7.5-5.4,7.5c-15,0-29.9,0.1-44.9,0.1c-8.3-0.1-16.5-0.2-24.8-0.3
			c-8.5-0.9-17,0.2-25.4-0.7c-5.2,0.6-10.3,0.1-15.5-0.2c0.2-3.8,2.9-4.3,5.6-3.4c4.7,1.6,8.9-0.5,13.2-1c1.4-0.2,2.6-1,2.3-2.7
			c-0.3-1.5-1.7-1.4-2.9-1.3c-2,0.1-4,0.1-6-0.4c-1-0.2-2.2-0.5-2.2-1.6c-0.1-1.3,1-2,2.2-2.4c1-0.3,2-0.4,3-0.4
			c3.1,0.1,5.7-0.2,7.5-3.5c1.5-2.7,4.5-2.5,7.2-1.8c9.5,2.7,19.1,1.5,28.7,1.1c2.8-0.1,4.7-2.6,6.6-2.6c5.7,0,11.4-2.7,17.2-0.4
			c2,0.8,4.2,1.1,6.3,1.1c8.3,0.2,8.5,0,9-8.5c0.1-1.5-0.4-2.5-2.1-2.7c-1.1-0.1-2.3,0-3.4-0.2c-1.9-0.3-5.2,0.6-5-2.2
			c0.1-2.5,3.1-2.9,5.5-2.9c0.7,0,1.3,0.3,1.9,0.5c1.5,0.5,3.1,1.9,4.3-0.4c0.4-1.1-0.4-2-0.8-2.9c-0.3-4.4,0.3-4.8,5.8-4.7
			c0.6,0.5,0.9,1.2,1,1.9c0.2,1.5-0.4,2.8-0.9,4.1c-0.3,0.8-0.6,1.7-0.3,2.6c3.3,8.4,8.5,15.9,11.7,24.4
			C586.6,89.8,587.4,90.8,587,92z"/>
		<path class="st14" d="M592.9,106.9c0.4,3.5,3.1,5.3,5.1,7.8c2.5,3,4.1,1.8,4.6-1.1c0.7-3.6,3-4,5.3-2.9c3.1,1.4,6.1,1.3,9.2,1.4
			c3.1,0,6.3-0.6,8.3,2.9c0.6,1,2.3,1.7,3,0.7c4.6-7,8.4-0.3,12.1,1c2.6,0.9,4.6,3,7.5,1c0.9-0.6,1.9-0.5,2.8,0.1
			c4.7,3.2,4.9,0,5-3.5c0.1-2.5,0.1-5,0.2-7.5c1.2,6.6,1,13.3,1.1,20c0.5,5.4-1.4,10.7-0.9,16.2c0.2,1.8-1.1,7.6-4,7.5
			c-3.2-0.1-8.1,0-9.7-4.9c-0.6-1.9-1.4-4.7-4.5-2.3c-3.8-3.8-8.6-3-13.3-3.2c-0.8,0-1.5-2-2.4-3c-0.6-0.7-1.3-1.9-2.4-1.3
			c-6.1,3.6-7.6-2.1-10.9-5.1c-2,5.5-5.5,5.9-9.8,2.3c-0.5-0.4-1.4-0.9-1.8-0.3c-2.9,4.2-4.6,0.7-6.4-1c-1.9-1.8-3.6-3.7-6.2-1.2
			c-0.8,0.7-1.5,0.1-2-0.6C588.1,123,591.4,115.3,592.9,106.9z"/>
		<path class="st15" d="M569.9,71.1c0,1.3,0,2.7,0,4c-0.1,4.1-1.4,6.6-6.2,6.1c-4-0.5-8.1,0.3-12.1-1.7c-2.3-1.1-5.5-0.9-8.2,0.5
			c-1.4,0.7-2.7,1.3-4.2,0.4c-1.6-1.1-3-1.2-3.6,1.2c-0.3,1.2-1.6,1.6-2.8,1.6c-5.8,0-11.7,1.6-17.5-0.3c-0.3-0.1-0.8-0.4-0.9-0.3
			c-5.4,4.5-10.1-0.7-15.1-1.1c-2.5-0.2-5-0.1-5.3,2.9s-2.1,2.7-4.2,2.9c-2.7,0.2-5.6-0.8-8.9,1.2c3.5,1.1,6.2,1.3,9.1,0.7
			c1.9-0.4,3.8-0.8,3.8,2.1c0,2.2,0.3,4.9-2.8,4.8c-5.3-0.1-10.4,3.8-15.9,0.5c-1.9-1.1-3.2,1-4.2,2.6c-3,0-6-0.1-9-0.1
			c1.1-6.7-0.1-13.7,1.8-20.3c5.8-3.3,11.9-2.5,17.7-0.6c10.4,3.4,12.2,2.1,10.7-8.7c-0.4-2.5-0.7-4.9-0.6-7.4
			c-0.1-1.2-0.2-2.3-0.4-3.5c-1.1-5.5-4.8-7.4-9.2-3.9c-4.7,3.7-9.1,0.6-13.2-0.2c-2.9-0.5-0.2-2.6,1.3-3.5
			c-1.1-0.8-2.4-0.6-3.6-0.9c-2.3-0.6-2.3-2.6-2.5-4.4c-0.2-2.2,1.6-2.3,3-2.5c3.4-0.5,6.8-1.5,10.1,0.9c2.2,1.6,4.4-0.3,6.6-1
			c4.5-1.6,7.2,0.5,6.5,4.8c-3.4,2.5-7.2,1.2-10.8,1.4c3.5-0.3,7,0.6,10.4-0.7c2.1-0.7,4.2-0.9,6.3-0.2c1.4,0.6,1.5,1.4,0.7,2.7
			c-1.4,2,0.9,0.5,1,1c4.6,0.4,5.8,5.1,9.1,7.1c1,0.6,0.1,1.8-0.8,2.4c-1.2,0.7-2.6,0.3-3.8,0.6c1.3,0.3,2.5-0.1,3.8-0.2
			c1.8-0.1,2.7,1.1,2.8,2.8c0.1,1.6-1,2.5-2.4,2.6c-2.4,0.1-4.7,0.7-6,0.6c3-1.2,5.8,0.3,8.6,3.4c2.2,2.3,1,3.1-0.9,3.9
			c-2,0.8-4.3,0.4-6.5,1.5c3.2,1.4,6,1.6,8.9-0.4c1.6-1.1,3.4-0.9,5.3-0.4c7.2,2,13.9,0.3,20.7-2.2c7.6-2.8,15.9-4.2,23.8-1.7
			C563.8,72.8,566.7,73.2,569.9,71.1z"/>
		<path class="st16" d="M390.7,97.1c7.2,0,14.3-0.1,21.5-0.1c2.3,0,4-0.1,2.9-3.3c-0.4-1.2-0.2-2.6,0.1-3.9c1-6.2-1.5-8.4-7.5-10
			c-9.5-2.4-18.6,0.2-27.8,1.2c-2.8,0.3-5.6-0.1-8.3,0c-14.4,0.3-28.2-4.9-42.6-4c0.7-3,3.3-2.5,5.2-2.4c7.2,0.2,14.3-0.2,21.6,2.1
			c7.5,2.3,15.8,1,23.8,0.4c4.6-0.4,9.4-0.5,13.9-1.7c6.8-1.8,13.5,1.6,20.3-0.3c1.9,0,3.4,1.2,5,1.8c3.4,1.4,6.3,1.5,9.3-1.6
			c4-4.1,10.1-3,16.2,2.3c0.4,0.7,0.7,1.4,0.8,2.2c0.3,3.9,0.1,7.8,1,11.6c0.6,7.1-0.3,7.7-9.5,6.6C421.4,98.1,406,98.4,390.7,97.1z
			"/>
		<path class="st17" d="M541,210.9c1.5-1.7,2.7-3.2,4.9-0.6c3.2,3.7-2.4,2.8-2.2,5.3c2,0.3,3.8,2.5,6.2-0.4c1.4-1.6,2.5,1.8,5,1
			c4.1-1.2,8.7,0.5,13-1c0,0,0.4,0.7,0.5,1.1c0.9,2.7,2.9,0.2,4.4,0.7s0.1-1.4-0.1-2.3c-0.3-1.4,0.7-1.8,1.7-1.9
			c1.3-0.2,2.9-1.8,3.8,0.5c0.7,1.8,1.9,2,3.5,1.4c1.4-0.5,3.3-1.9,2.7,1.7c-0.3,2,1.9,1.4,3,1.2c2.1-0.5,0.9-1.6,0.3-2.5
			c-0.6-0.8-2.2-1.7-0.1-2.5c1.9-0.7,1.6,0.7,1.9,1.9c0.7,2.8,10.4,5.1,12.6,3.1c1.2-1,0.3-2.1,0.2-3.2c-0.2-1.6,0.4-3.2,2.2-3.3
			c1.9-0.1,2.4,1.5,2.4,3.1c0,1.2-1.2,2.7,1.1,3.3c0.2-0.3,0.7-0.7,0.6-1c-0.5-2.1-1.7-5.3,0.2-5.8c2.1-0.5,5.5,1.2,6.3,3.8
			c1.5,5.2,5.4,3,7.9,2.5c2-0.4,3.5-3.7,5.5,0.4c-0.1-1.7-0.3-3.4-0.4-5.1c0-0.8-0.1-1.8,1.1-1.9c1-0.1,1.5,0.7,1.7,1.5
			c0.2,1.1,0.1,2.3,0.3,3.5c0.2,1.2,1.2,2.8,2.2,2c2.1-1.7,3.9-3.1,6.4-1c2.1-3.5,3.5,1.3,5.3,0.4c5-3.3,10.5-2.4,15.9-1.7
			c1.2,0.2,1.8,1.4,1,2.7c-0.2,2.8-2.3,2.6-4.3,2.7c-8.2,0.4-16.4,0.9-24.6,1.4c-5,0-10,0-15,0c-13.1,0-26.1,0-39.2,0
			c-4.7,0-9.3,0-14,0c-8.4-0.5-16.7-1-25.1-1.3c-2.7-0.1-4.3-1.1-4.8-3.8c-0.3-2.8,1.4-4.2,3.7-4.1C540.6,213,540.1,211.4,541,210.9
			z"/>
		<path class="st18" d="M436.7,98.1c0.8-0.1,1.7-0.2,2.5-0.2c6.3-0.1,6.6-0.5,5.8-6.9c1.1-1.1,2.4-1.1,3.7-0.6
			c0.9,0.6,1.3,1.6,1.2,2.5c-0.3,3.3,1.5,3.8,4.3,3.7c3.1-0.1,4-1.9,3.8-4.6c-0.3-4.1-0.1-8.2,0.3-12.4c0.1-0.1,0.2-0.3,0.3-0.4
			c2,1.5,3.1-1.6,5-0.8c0.2,0.2,0.3,0.3,0.5,0.5c-0.8,5.1,1.3,10.2-0.2,15.4c-0.5,1.6-2.1,2.6-1.8,4.4
			C453.5,99,445.1,99.2,436.7,98.1z"/>
		<path class="st19" d="M541,210.9c-0.3,1.5,1.4,2.6,0.4,4.6c-3-3.2-4.9-1.3-6.5,1.5c-2.4-4.7-1-9.4,0.3-14c1.4,0.8,2.8,1.6,4.2,2.4
			c1.5-2.3,1.8-4.5-0.3-6.8c3.2,1.4,4.2,3.1,2.7,6.2C540.9,206.5,538.9,208.5,541,210.9z"/>
		<path class="st20" d="M2.3,97c2.6,3,5.2,6,7.8,9c-4.6,1.5-5.6-2.8-8-5C2.1,99.7,2.2,98.4,2.3,97z"/>
		<path class="st15" d="M486.5,99.1c8.5-0.1,17-0.9,25.4,0.7C503.4,99.9,494.9,100.2,486.5,99.1z"/>
		<path class="st21" d="M195.2,46.9c24.8,0,49.6-0.3,74.3,0.2c44.8,0.8,89.5-0.8,134.1-3.7c15.8-1,31.6-1.5,47.3-2.2
			c-0.3,2.5,1.3,5.5-2,7.1c-1.9-1.1-4.2,0-6.2-1c-0.6-0.3-0.4,1-0.1,0.4c0.1-0.2,0.2-0.2,0.5-0.1c0.9,0.2,1.3,0.8,1.6,1.7
			c0.2,1,0.1,1.9-0.4,2.8c-0.5,0.5-1.3,1-1.8,0.6c-2.9-2.4-6.5-1.9-9.8-2.4c0.8-3.2-0.9-4.1-3.7-4.1c-2.5-0.1-5-0.1-7.4,0.4
			c-3.4,0.6-5.8,2.4-5.5,6.3c-0.1,1.8,0.3,3.6,1,5.3c-0.2,1.8-1.1,3.2-2.5,4.3c-2.5,0.5-5.6-0.9-7.2,2.8c-0.6,1.5-3,0.7-4.6,0.1
			c-3.7-1.4-7.3-1.5-11.1,0.3c-5.2,2.4-11.2,1.1-16.4,3.6c-0.6,0.3-1.5,0.2-1.8-0.4c-2.7-4.3-7-3.3-10.7-2.8
			c-10.5,1.3-21.2,0.2-31.7,1.9c-5.2,0.8-10.7-2.2-15.8-0.7c-7.2,2.2-12.7-0.2-18.3-4.2c-2.7-1.9-6-2.9-9.4-2.6c-3.6,0-7.3,0-10.9,0
			c-1.2,0-2.3,0-3.5-0.2c-1.9-0.3-3.9-0.9-3.7-3.2c0.2-2.4,2.6-1.1,4-1.5c-0.7,0.1-1.5-0.1-2.2-0.1c-0.9-3.4-0.2-4.1,4.4-4
			c-4-2.5-4.2-2.4-6.1,3c0.3,4-4.9,4.6-5.1,8.5c-0.1,1.1-2,0.7-3.1,0.4c-1.5-0.3-2.9-0.9-3.2-2.7c-0.2-1.2,0.4-2.3,0.1-3.5
			c-1.4-1.1-2.8,0.2-4.3-0.1c-1.3-0.3-2.7-0.5-2.4-2.4c0.1-0.5,0.6-0.6,0.9-1c-0.2-0.1-0.4-0.1-0.5,0.1c-0.3,0.7-1.7-0.6-1.4,0.8
			c0.1,0.5,0.5,0.9,0.7,1.3c0.9,1.3,3.6,1.7,2.4,4.2c-1.1,2.2-3.3,1.8-5.2,2.3c-4.3,1.2-7.9-1.8-11.9-1.8c-2.2,0-4.9-1.6-5.8,2.3
			c-0.3,1.2-2.2,1.3-3.6,1.3c-12.8-0.1-25.5,1.6-38.3,0.8c-1.2-0.1-2.5,0-3-1.3c-0.4-1,0.4-1.9,1.1-2.6c0.7-0.9,1.4-1.8,2.1-2.8
			c-0.2-0.4,1.3-0.6,0.3-0.7c-1.3-0.1-2.5-0.4-3.7-1c-1.1-0.7-2.4-1.4-2-3c0.4-1.4,1.8-1.4,2.9-1.2c3.9,0.5,5.3-2.7,7.4-4.8
			C194.4,47.3,194.7,47.1,195.2,46.9z"/>
		<path class="st22" d="M593,2.2c9.2-0.1,18.4-0.3,27.6-0.3c7.4,0,14.9,0.5,22.3,0.1c5-0.2,9,1.6,12.8,4.3c1.2,1.5,1.6,3.5,3.2,4.8
			c0,0.7,0,1.3-0.1,2c-2.1,4.5-0.2,9.2-0.3,13.8c0,1.1,0.3,2.3-0.4,3.3c-5.2,0.7-6.5,0.1-8.8-4.2c-3.4,2.5-6.4,5.6-11.1,5.1
			c-3.5-0.4-4.7-2-3-5.3c0.4-0.6,0.9-1.1,1.6-1.3c3.6,0.6,6.5-0.2,8.5-3.5c1.3-2.1,1.3-4.1-0.1-6c-1.3-1.7-2.9-2.8-5.1-1.7
			c-0.7,0.4-1.6,0.4-2.4,0.5c-4.9,0.4-5.9,1.8-4.6,6.6c0.2,0.8,0.5,1.6,0.8,2.4c0.3,1.1,0.7,2.3,0.6,3.5c-2.1,3.9-5.5,5.2-9.6,4.3
			c-2.5-0.6-5-0.6-7.4,0.2c-1.6,0.5-2.9,0.8-4.6-0.2c-2.5-1.5-5.1,0.1-7.5,1.2c-3,1.3-6,2.2-8.9-0.1c-1.4-1.1-2.4-0.8-3.1,0.8
			c-0.5,1.1-1.1,2.1-2.6,1.7c-1.2-1.2-0.9-3.1-1.8-4.4c-1.2-1.5-2.8-1.3-4.4-1.3c-4.9,0.1-9.8,0.1-14.7,0.1c-2.1-0.3-4.5,0.4-6-1.7
			c7.3-1.6,14.7-0.6,22.1-0.6c3.7,0,4.9-1.4,4.9-4.8c0-3.1,0.2-6.2,0.4-9.3c0.7-6.2,4.9-7.7,10.5-7.5C598.6,3.3,594.8,6.9,593,2.2z"
			/>
		<path class="st23" d="M6.3,35.2c2.7-2,5.9-1.2,8.6-0.5c42,10.9,84.9,11.5,127.9,11.5c16.5,0,33,0.1,49.4,0.3c1,0,1.9,0.3,2.9,0.4
			c-0.1,0.2-0.2,0.4-0.3,0.5c-3.8,1.9-7.7,1.7-11.7,1.1c-20.3,0-40.7-0.4-61.1,0.4c2.9,1.5,6.3,0.8,9.2,2.3c0.3,0.1,0.8,0.1,1-0.1
			c5.5-6.6,11-0.5,16.5,0.1c0.6,0.1,1.4,0.5,1.4,1.2c0,1.2-1.1,1.7-2,1.9c-5.5,1.1-11,2.3-16.6,2.9c0.1,0.5-2.7-1.7-0.7,0.9
			c1.3,1.7-1.5,1.8-2.7,2.2c-1.8,0.1-3.7,0.1-5.5,0.1c-8.7,1-17.4-0.8-26-0.1c-1,0.1-2.1-0.2-2.7-0.9c-2.2-2.2-4.7-2.2-7.3-1.2
			c-2.3,0.9-4.2,0.2-5.6-1.8c-2-3.6-5.9-2.6-8.5-2.5C58,54,44,52.4,30,53c-6,0.3-11.5-3-17.5-2.7c-0.8-0.1-1.5-0.3-2.1-0.7
			c-0.1-0.8-2-3.6-3.1-4.4c-0.6-0.5-1.5-1-0.9-2c0.7-1.1,1.9-1,3.1-1.2c1-0.1,1.8,1,2.8,0.2c-1.9,0.3-1.2-1.4-1.7-2.3
			C9.3,38.2,7,37.3,6.3,35.2z"/>
		<path class="st24" d="M489.9,47c-0.5-4.4-3.4-4.6-6.4-2.9c-3.3,1.9-5.8,3-9.2-0.3c-2.3-2.2-5.9,1.3-9.1,0.1
			c-0.6,7,5.4,4.1,8.3,5.9c-0.6,2.7-3.7,1.5-5.1,3.7c4.1-1.4,8.4,3.4,11,1c2.8-2.6,5.4-1.7,8-2.6c3.2-1.2,3.8,0.6,4.3,2.8
			c0.5,2.1,0.8,4.2,1.2,6.3c-0.7,1-1,2.1-1.5,3.1c-1.3,2.6-2.9,3.5-5.3,1.1c-2.2-2.1-4.3-2.6-5.5,1.1c-0.5,1.6-1.9,2.4-3.5,2
			c-4-1.1-7.8-1.2-11.6,0.5c-0.6,0.2-1.3-0.2-1.8-0.6c-0.4-0.6-0.7-1.3-0.8-2c-0.2-2-0.3-4-0.1-5.9c0.2-2.9-1.1-4.3-3.7-4.8
			c-0.5-0.5-0.7-1.2-0.5-1.9c0.1-1.6,4.1-1.5,1.9-4.2c-2.5-2.4-3.2-5.1-1.4-8.2c8.7-0.9,17.3-1.9,26-2.8c2.9,2,6.2-1.6,9.1,0.6
			c0.5,0.6,0.7,1.3,0.7,2.1c-0.3,2-1.4,3.6-2.3,5.4C491.7,47,491,47.6,489.9,47z"/>
		<path class="st25" d="M494,39.1c-2.9-1.2-6.3,2.6-9-0.9c25.3-3.6,50.6-7.3,75.9-10.9c-0.1,3.2-2.1,4.4-5,5.1
			c-4.1,1-8.3,1.4-11.9,4.2c-2.1,1.7-5.4,0.3-8.1,1.4c0.9,0.3,1.7,0.4,2.2,1.1c-4.2,5.9-14.1,7-20.1,3.2c-3.2-2-7.7-2.2-11.7-1.5
			C502,41.6,497.9,40.7,494,39.1z"/>
		<path class="st26" d="M537.9,39.1c-1.7,0-3.5,0-5.6,0c1.1-1.7,2.9-2.6,4.2-2.6c7.3,0.1,12.9-5.7,20.2-5.4c2.5,0.1,2.3-3,4.1-3.8
			c0.9-0.1,1.9-0.3,2.8-0.4c2,0.1,4,0.3,6,0.4c-1,3.1-5,1.9-6.7,4.7c3.1,0.9,6-0.7,8.9-0.2c1.9,0.3,4.4-0.7,5.2,2.3
			c-0.6,0.9-1.5,1.4-2.5,1.8c-3.2,0.9-6.6,0.8-9.9,0.8c-7.7,0-14.8,3.5-22.5,3.1C540.7,39.7,539.2,40.3,537.9,39.1z"/>
		<path class="st27" d="M6.3,35.2c4.3,0.7,4.6,5.5,8.2,7.9c-2.9,0-5.2,0-7.9,0c1.8,2.7,4.2,1.7,6.5,2.2c-0.6,1.7-3.3,1.6-3.1,3.8
			c-2.7,1.7-5.6,2.7-8.8,3c-0.3-3,0.8-6-0.2-8.9C1.4,39.5,3.6,37.2,6.3,35.2z"/>
		<path class="st28" d="M459,41c0.3,2.7-0.1,5.6,2,8c-0.3,1.2-1.1,2-1.9,2.9c-3.5,1.7-6.9,1.6-10.4,0c-1.2-1.2-3.3-1.4-3.9-3.3
			c1.2-1.6,2.6-1.6,4.1-0.6c2.7-1.6-0.9-5.2,2.1-6.7C453.6,41.2,456.3,41.1,459,41z"/>
		<path class="st29" d="M593,2.2c3.2,3.5,7.7-0.6,11.6,2.1c-2.7,1-5.1,1.8-6.3,4.1c-1.7-1.4,0.5-2-0.3-3c-3.8,0.8-5.1,4.1-7,6.8
			c0-3.3-0.7-6.8,1-9.9C592.4,2.2,592.7,2.2,593,2.2z"/>
		<path class="st30" d="M663.1,100.1c-4.2,0.5-7.4-0.5-6.1-5.6c1.7-6.4,0-13.1,1.8-19.4c-2.6-3.4-0.1-6.9-0.3-10.3
			c0.1-4.1-0.2-8.3,0-12.4c0.1-5.3,0-10.6,0-15.8c0-1.3,0-2.7,0.4-3.9c0.3-1,0.8-1.9,2.1-1.7c1.2,0.2,1.5,1.2,1.5,2.2
			c0,4-0.3,7.9-0.1,11.9c0.2,3,0.6,5.6,2.5,8.3c2.3,3.4-1.1,2.8-3,2.8c-1.2,4.4-2.3,8.8,0.5,12.9c0.4,0.6,1,1,0.3,1.5
			c-2.5,1.9-0.9,4.4-1.1,6.7c-0.4,7.5,5.5,13.2,5.2,20.6C665.6,98.5,664.3,99.3,663.1,100.1z"/>
		<path class="st31" d="M661.9,217.9c-0.2-1.3-0.9-2.1-2.3-2c-4.9,0.2-9.9-0.6-14.7,1c-1.1-3.8,2.9-3.5,4.5-4.9
			c1.4-1.2,1.2,2.4,3.2,2.2c0.1-2.3,3.4-3.6,1.9-6.5c-0.8,0.4-1.5,0.8-2.9,1.6c2.7-4.5,0.5-5.8-3.1-5.8c0.1-4.9,4-6.5,7.3-9.7
			c-0.4,2.8-1.4,4.1-3.1,5.4c-1.8,1.3-3.7,3.2,0.8,2.9c1.8-0.1,0.5,2,1.6,2.4c1.6-0.8-0.1-3,1.7-3.9c2.1,2.3-1.4,6.5,3.2,8.1
			c0.3-2.7,0.6-5.3,1-8C661.9,206.4,664.2,212,661.9,217.9z"/>
		<path class="st32" d="M661.9,56.1c0.7-1.2,2-0.9,3.6-1.3c-3.4-1.4-4.6-3.1-4.4-6.7c0.3-5.3-0.6-10.7-0.2-16.2
			c-1.6,6.7-0.6,13.5-1.2,20.3c-0.7,0.2-1.2,0-1.6-0.7c-1.4-6.5-0.9-13.1-0.3-19.7c0.2-2.1,0.3-6.3,4.9-4.7c3.6,1.5,5,4,4.9,8.1
			c-0.3,8.3,0.1,16.6,0.2,24.9C664.2,61.3,663.5,58,661.9,56.1z"/>
		<path class="st33" d="M662.8,27.1c-3.3-0.3-3.7,1.8-3.8,4.3c0,6.9-0.1,13.7-0.1,20.6c0.5,1,0.7,2-0.9,1.9c-0.5,0-1.1-0.9-1.1-1.5
			c-0.5-7.5-2-15,0.9-22.3c-0.4-5.3-0.6-10.7-1.2-16c-0.4-3.3,1.2-1.2,2.2-1c0.1,2.7,0.7,5.4,0.2,7.9
			C658.3,24.6,660,26.1,662.8,27.1z"/>
		<path class="st34" d="M658.9,11.1c-2.9-0.4-3.9-2-3.2-4.8c1,0,2.1-0.1,3.1-0.1C659.3,7.8,659.3,9.5,658.9,11.1z"/>
		<path class="st35" d="M1.3,52c2.5-2.1,5.5-3,8.8-3c0.7,0,1.3,0,2,0c0.7,0.5,1.6,1.3,0.8,1.9c-2.6,2-2.4,4.8-2.5,7.8
			c4.8-0.3,9.6,0.6,14.3,1.3c1.5,0.2,3,0.7,3.7-1.4c1.1-3.7,3.8-3.1,5.8-1.5c6.8,5.5,15,4.4,22,2.8c5-1.1,9.2-1.4,14.2-1.3
			c4.9,0.2,9.7-0.9,14.3,1.6c1.2,0.6,2.3,0.2,3.2-0.7c0.9-0.8,1.8-1.1,3.1-0.9c10,1.8,20,1.9,30.1,0.7c0.3,0,0.6-0.3,0.8-0.5
			c2,0,4,0,6,0c1.1,0.9,2.5,1.3,3.7,0.5c4.1-2.9,9.5-0.4,13.7-3.5c1.2-0.9,2.7,0.8,3.8,1.7c3.9,3.5,6.7,3.6,10.7,0.4
			c2.7-2.2,5.3,0.8,8,0c5.1,1.6,10-0.1,15-1c2.4-0.5,4.8-0.3,7.1,0.8c0.6,2.7-1.7,3.6-4.2,5.9c8,0,14.9,0.7,21.7-0.2
			c6.3-0.8,12.6-0.6,18.9-0.8c2.4-0.1,2.4,0,2.5-2.6c0-0.8,0.6-1.1,1.2-1.2c4.2-1.1,8.5,0.2,12.7,0.3c4.1,0.2,4.9,1.6,7.1,1.5
			c1.4-0.1,2.8,0,3.3-1.6s-1.2-1.8-1.8-2.6c-1-1.2-1.8-2.7-4.3-3.7c3.3,0,5.6,0,7.9,0c-0.1,1.5-2.5,0.4-2.3,1.8
			c0.3,1.7,2,1.2,2.8,0.9c4-1.4,5.3-1.1,4,3.8c-1,3.8,3.2,1.7,4.8,3.6c-0.1-2.6-2.5-2.8-3.1-5.2c4.2,1.2,7.5,0.9,7.8-4
			c1.2-0.7,1.5,0.4,2,1c1,0,2,0,3,0.2c1.1,0.3,2.1,0.8,3.3,1.3c-1.5,1-2.7,0.1-3.9-0.1c-1-0.2-2.6-0.8-2.8,0.9
			c-0.2,1.5,1.3,1.8,2.5,1.8c5,0.1,10,0,14.9,0.1c3.3,2.9,7.1,5.3,10.4,8.3c4.1,3.7,9.9,3.3,15.2,1.5c2.4-0.8,4.6-1.6,7.2-0.8
			c15.8,4.4,31.9,5.5,48.2,3.4c4.6-0.6,9.3,0,13.9,0c3.2,0,6.5,0.2,7-4.4c0.3-2.5,2.5-1.9,3.9-1.6c2.8,0.5,5.6,0.7,8.4,1.3
			c3.1,0.7,6,1.2,8.8-1.4c1.8-1.7,3.7-0.8,4.8,1.4c0.6,3.2,1.3,6.4-0.9,9.3c-4.1,1.2-7.8,2.3-12.4,0.4c-3-1.2-7.2,0-10.7,0.7
			c-11.5,2.3-23.4,3.4-34.6,1.4c-7.9-1.4-15.6-2.4-23.5-2.4c-1.6,0-3.4-0.6-4.7,1c-5.5,0-11-0.5-16.5,0.1
			c-6.8,0.8-12.2-4.5-18.9-3.2c-0.7,0.1-1.2-0.4-1.3-1.2c-0.6-4.7-5.2-3.6-7.8-5.3c-0.1-2.2,2.7,0.2,2.6-2.3
			c-1.8,0.1-4.1-1.2-4.9,1.4c-0.5,1.8-1.7,4.8,2,5.5c0.8,0.1,1.2,0.6,0.7,1.3c-0.9,1.2-1.9,2.5-3.5,2.5c-3.1,0.1-6.8,1.5-9.3,0.7
			c-5.7-1.8-10.9,1.4-16.4,0.4c-2.1-0.4-4.5,0.4-4.2-3.2c0.1-1.3-1.5-2.2-2.5-1.6c-1.8,1-4.8-0.3-5.5,2.5c-1,4.3-3.1,2.5-4.5,0.7
			c-1.5-1.9-3.7-2.2-5.3-1.9c-5.4,0.7-10.9,0.5-16.2,2c-2.1,0.6-5.2,2.2-6.3-2.2c-0.4-1.7-9.9-0.5-10.5,1.4c-0.7,2.2-2,2.4-3.8,2.1
			c-5.6-0.9-11.1-1.6-16.7-0.2c-1.4,0.3-2.3-0.8-1.9-2.2c0.6-1.9,0.8-3.4-1.8-3.4c-2.2,0-5-0.5-5,3c0,1.3-0.3,2-1.5,1.9
			c-1.6-0.1-3.9,1-4.5-0.9c-1-3.2-3.1-2.7-5.3-2.6c-0.8,0-1.6,0-2.4,0c-3.3-0.1-6.5-1.7-9.9,1.3c-1.8,1.6-6.9,4.1-8.7-1.8
			c-0.1-0.4-0.9-0.9-1.2-0.8c-4.4,1.9-9.5-1.3-13.6,1.9c-1.5,1.1-3.4,1.4-4.7,0.5c-3.5-2.4-7-1.9-10.5-0.6c-8.6,3.2-17.4,0.4-26,0.8
			C71.3,74,59.4,73.7,48,77.9c-5.3,2-11.2,0.4-16.7,1.7c-3,0.7-6.3-0.1-9.3,1.2c-1.6,0.7-2.9,0.2-4.2-0.8c-1.9-1.5-3.3-1.7-3.6,1.3
			c-0.3,2.9-1.3,2.5-2.8,0.6c-0.6-0.7-1.6-1.2-2.4-1.7c-2-1.2-4.6-2.6-6.5-1.5C1,79.6,1.9,82.4,2,84.4c0.1,1.8,0.4,3.6-0.2,5.4
			c-1.6-2.6-0.3-5.5-1-8.1C0.9,75,0.9,68.4,1,61.7c0-3,2.5-6,0.1-9C1.3,52.7,1.3,52.4,1.3,52z"/>
		<path class="st27" d="M1.3,53.1c2.1,1.2,4.7,2.3,1.5,5.1c-1.1,1-0.2,2.9-1.5,3.9C1.2,59,1.3,56,1.3,53.1z"/>
		<path class="st36" d="M598.3,180.4c2.1,1.7,3.9,1.5,6.5,0.5c-0.8,3.7-2.4,7.1-5.3,6.5C596.1,186.8,598.8,183,598.3,180.4z"/>
		<path class="st37" d="M566.6,195.4c5-0.4,3,3.4,2.8,5.1c-0.3,1.8-2.6,3.2-3.2-0.1C565.9,198.9,567,197.1,566.6,195.4z"/>
		<path class="st38" d="M587.5,200.6c2.7,2.2,0.6,4.3,0.1,7C586.3,204.9,588.5,202.8,587.5,200.6z"/>
		<path class="st39" d="M659.7,64.9c-0.3,3.4-0.6,6.7-0.9,10.1c-5.8,1-11.6,2-17.5,2c-5.1,0.1-10.5-0.1-15,3.1
			c-1.2,0.9-2,0.4-3.1-0.3c-5.4-3.1-10.9-4.3-16.1,0.4c-0.7,0.6-1.5,0.5-2.3,0.3c-4.7-1.2-8.8-0.1-12.7,2.7
			c-0.5,0.4-1.4,0.8-1.8,0.6c-7.4-4.4-2.6,2.3-3.2,3.7c-0.5,1.3,1.8,3-0.2,4.5c-4.4-9.5-10-18.4-13.8-28.3c0.4-0.2,1.1-0.6,1.3-0.4
			c1.6,1.8,2.8,0.4,4.1-0.5c3.4-1.1,6.8-0.7,10.4-0.6c17.1,0.2,34.2,1.4,51.3-0.4c4-0.4,7.7,2.1,11.8,1.2c1.3-0.2,2.5-0.2,3.8,0
			C657.3,63.5,658.5,64.3,659.7,64.9z"/>
		<path class="st40" d="M659.7,64.9c-1.4,1.3-2.2,0.5-2.8-0.8c-0.5-2.4-0.9-2.4-4,0c-1.1,0.3-2.4,1.1-3.3,0.8
			c-8.8-2.8-17.7,0-26.5-0.4c-9.1-0.5-18.2-0.2-27.4-0.2c-5.9,0-11.9-1.5-17.8-0.2c-1.1-1.1-3.1-0.6-4.1-2.1
			c0.4-1.3,0.7-2.5,1.1-3.8c0.2-0.4,0.6-0.5,1-0.5c3.7,0.2,1-2.1,1.3-3.3c1.7-7.2,6.4-12.9,9.6-19.4c1.5,0.5,2.4-1.6,4-1
			c1-0.3,1.4-1,1.6-2.1c0.6-2.7,1.7-5,4.6-1.4c1.9,2.4,4.6,2,6.8,0.5c2.6-1.7,5.7-1.5,8.3-3.1c0.3-0.2,0.8-0.4,0.9-0.3
			c3.8,5.5,9.5-1.9,14,2c1.4,1.2,5.2-1.2,7-3.7c0.7-0.6,1.3-0.6,2,0c-0.1,1.1-0.3,2.2-0.4,3.2c2-0.9,3.4,1.5,5.9,0.5
			c3.8-1.5,6.1-4.6,10.1-7.1c-2.9,7.8,3.3,5.9,6.4,7.4c0,7.5,0,15,0.1,22.5c0,0.1,0.2,0.2,0.2,0.3c0.2-0.3,0.5-0.6,0.7-0.9
			c0.3,0,0.6,0.1,0.8,0.1C659.7,56.4,659.7,60.7,659.7,64.9z"/>
		<path class="st41" d="M569.9,71.1c-1.6,4.3-4.2,4.7-8.1,2.5c-4.2-2.3-8.8-2.1-13.4-1.6c-7.1,0.7-13.6,3.8-20.5,5.3
			c-3.7,0.8-8.1,1.7-11.9-0.3c-2.3-1.2-4.2-1.2-6.3,0.7c-3.8,3.4-7.3-0.6-11.3-0.4c2.9-4.3,7.6-2.2,11.4-4.4c-2-1.1-4.3-0.9-4.6-4
			c-0.1-1.6-3.1-1-4.6,0.1c-1.4,1-2.7,1.5-3.9,0c-0.6-0.7-0.3-1.5,0-2.3c1-2.2,2.4-1,3.7-0.5c0.3,0.1,0.6,0.4,0.9,0.4
			c2.1-0.4,4.2-0.6,6.2-1.3c0.6-0.2,0.5-1.6-0.2-2.2c-2-1.8-3.7,0.2-5.5,0.5c-1,0.2-1.9,0.6-3.1,0c1.1-4.1,4.5-3.2,7.7-3.6
			c-4.8-0.5-4-7.7-9.5-7c-0.2-1.7,1.2-1.9,2.2-2c3.1-0.4,6.2-0.9,9.3-1.5c2.7-0.5,5.1-0.1,2.8,3.6c-1.5,2.4,0,2.9,2,2.9
			c1.5,0,2.9-0.8,4.1-1.6c0.6-0.4,1.1-0.9,1.7-1c7.9-1,14.8-6.1,23-5.7c5.4,0.2,7.3,1.6,8.3,7.1c-2.5,3.9-6.9,1.3-10.1,3.1
			c7.1,1.1,14.1,1.3,21.2,0.9c3-0.1,6-0.1,8.4,2.2c1.3,0.2,2.5,0.4,1,2c-1.4,1.3-3.2,1.6-5,2c-2.7-1.8-4.9-0.3-7.2,2c3,0,6,0.1,9,0
			C571.2,66.9,571.3,68.6,569.9,71.1z"/>
		<path class="st42" d="M569.9,61c-6.8-1.2-13.7-0.5-20.5-0.6c-3.7-0.1-7.9-0.1-11.8-1.8c1.4-4,5.1-2.3,7.6-3
			c1.4-0.4,3.2,0.3,4.7-0.7c1.3-0.8,2.9-0.5,4.2-1.2c2.5-1,4.8-0.9,7.6,1c-1.6-1.4-3.6-1.5-3.7-3.6c-0.7-1.8-2-3-3.6-4
			c-3.3-2.1-2.1-3.5,0.7-4.8c5.3-2.4,10.3-5.5,16.7-3.9c3.5,0.9,7.3,0.3,10.5-1.9c2.2,0.6,2.6,2.1,1.6,3.8
			c-2.8,4.8-5.1,9.9-7.7,14.9c-0.2,0.4-0.8,0.5-1.3,0.6C572.4,56.9,568.6,56.3,569.9,61z"/>
		<path class="st43" d="M574.9,56.1c2.8-5.4,5.7-10.8,8.5-16.2c0.6-1.1-0.2-1.9-0.5-2.8c-2.5-1.3-5.7,0.3-8-2c0.4-0.8,1.2-0.9,2-1
			c3.6-1.5,6.8-3.5,9-6.8c1.5,0.2,3.7-1.3,3.9,1.8c0.5,2.4,0.4,4.6-2.1,5.9c-3.4,6.6-6.7,13.3-10.1,19.9c0.1,1.5-0.3,2.6-1.9,3.1
			c-0.3,0-0.6,0.1-0.9,0.1C574.9,57.5,574.9,56.8,574.9,56.1z"/>
		<path class="st42" d="M565.9,65.1c1-2.3,3.1-2,5-2C570.7,67.2,568.4,66.4,565.9,65.1z"/>
		<path class="st44" d="M573.9,62c1.5,0.4,3.8-0.7,4.1,2.1c-1.7,2.4-3.1-0.9-4.7-0.3C573.4,63.2,573.6,62.6,573.9,62z"/>
		<path class="st45" d="M574.9,35.1c2.6,0.9,6.2-2,8,2c-2.7,4.7-7.4,3.3-11.2,2.8c-4.9-0.6-9.3,0.2-13.4,2.7
			c-1.5,0.9-3.2,1.5-6.5,2.3c4.4,1.3,6.8,2.8,7.1,6.2c-1.2,1.9-3.8,2.1-5,4c-1.3,0.9-2.7,0.9-4,0c-1.1-4.9-4.3-7.2-9-5.9
			c-4.2,1.2-9.9-1.3-12.3,4.7c-0.1,0.2-0.7,0.6-0.8,0.5c-5.3-3.3-8.8,1.3-12.9,2.9c-2.8,1.2-5,0.6-6.4-1.8c-1.8-3,2.3-2.8,3.3-5.3
			c-5.3,1-10.1,1.9-14.9,2.8c-1.2,0-2.2-0.4-3.2-1.4c1-1,2.8-0.9,3.2-2.6c0.3-1.1,1.1-1.6,2.2-1.7c0.4-0.1,0.7,0.3,1.1,0
			c-0.5-0.2-0.8-0.6-1-1c-0.5-3-3.2-3.7-5.2-5.2c0-0.7,0-1.4,0-2c6.6,1.3,13.4-1.2,19.9,1.4c0.7,0.3,2-1,3.1-1.2
			c1-0.2,2.6-0.8,2.3,1.3c-0.5,3,2.2,3.1,3.5,3c5.4-0.4,10.9-0.7,15.3-4.5C550.3,38.2,562.4,34.2,574.9,35.1z"/>
		<path class="st46" d="M464,68.1c4.3-1.9,8.6-3,13.2-0.9c1.6,0.7,2.4,0,2.7-1.7c0.7-3.6,3.9-5,6.1-2.2c3.3,4.3,3.9,1.1,5.4-1.1
			c0.3-0.5,1-0.8,1.6-1.2c-0.3,5.3,1.3,10.4,1.2,15.7c0,3.7-1.8,4.8-4.7,4.6c-2.2-0.1-4.6-0.3-6.7-1.4c-6.1-3.2-12.4-2.4-18.7-0.9
			H464C461.9,75.4,461.6,71.7,464,68.1z"/>
		<path class="st47" d="M499.9,46.1c0.8,1.8,2.3-0.3,3.5,0.8c-1.8,2.1-4.7,0.5-6.5,2.2c-6.3-0.3-12.5,2-19.7,0.5
			c4.3-2.7,9-0.6,12.6-2.6c0.7-0.3,1.5-0.7,2.2-1C494.7,44.2,497.3,44.3,499.9,46.1z"/>
		<path class="st48" d="M415,76c0-3.3,0-6.7,0-10c-0.4-0.5-0.3-1,0.1-1.4c2-1.2,4.2-0.3,6.3-0.5c5.4-0.6,10.9-0.3,16-2.8
			c2.4-1.2,4.9-0.9,6.8,1.2c0.4,0.4,0.7,0.8,1,1.2c0.2,0.5,0.3,1,0.2,1.5c-0.4,2.6-0.2,5.2-0.1,7.8c0.1,1.8,0.1,3.6-1.5,4.9
			c-2.4,0.1-3.3-2.6-5.5-3C434,74,430.1,73.4,427,78C425.1,81.2,420.1,80.1,415,76z"/>
		<path class="st49" d="M443.9,78.1c1.3-4.2-1.5-8.8,1-13c0.9,0.2,1.3,1,1.6,1.7c4.7-4.4,3.5,1.3,3.5,2.4c0,3.8,1.5,7.9-1.4,11.4
			c-1.7,0.7-3.2,0.6-4.6-0.6C444,79.4,444,78.7,443.9,78.1z"/>
		<path class="st50" d="M444,80c1.7,0,3.3,0,5,0.1c2.2,3.7,2.2,7.3,0,11c-1.3,0-2.7,0-4,0C443.6,87.4,444.1,83.7,444,80z"/>
		<path class="st51" d="M449,91c0-3.7,0-7.3,0-11c0-4.6,0-9.3,0-14.9c-1.1,2.1-1.8,3.3-2.5,4.8c-1.7-1.6-0.1-3.6-1.5-4.8
			c0-0.4,0-0.8,0-1.2c-0.7-0.8-1-2.4-0.3-2.6c4.6-1.4,2.6-5.1,3-8c0.1-0.9-0.6-2.5,1.4-2.3c3.3,1.1,6.5,1.1,9.8,0
			c0.6,0.6,0.7,1.3,0.1,2c0,0.6,0,1.3,0,1.9c1.5,1.9,1.4,4.1,1.3,6.3c-0.1,4.1,0.3,8.1,0.1,12.2c-0.1,1.9,0.1,3.9-1.5,5.5
			c1.2,4.5-0.9,9,0.4,13.6c0.4,1.5,0.3,4.5-1.9,5.1c-2.8,0.7-6.2,1.2-8.7-0.3C446.8,96.1,449.7,93.2,449,91z"/>
		<path class="st52" d="M459,79c0-6,0-12,0-18c1.9-1,2.7,0.1,3.1,1.7c0.3,1.3,0.8,2.4,1.8,3.3c0,0.7,0.1,1.4,0.1,2.1
			c0,3.6,0,7.3-0.1,10.9C462.3,78.1,460.7,82.3,459,79z"/>
		<path class="st53" d="M415,65.1c0,0.3,0,0.7,0,1c-0.9-0.3-2-1.3-2.8-0.4c-6.1,7.1-12.7,0.9-19,0.6c-0.7,0-1.3-0.1-2-0.2
			c1.9,3.8-1.7,7.2-7.2,7c-6-0.3-12.1-1.1-18,0.1c-12.5,2.5-24.7-1.1-37.1-1.1c-1.2,0-2.2-0.5-3.3-0.9c-4.2-1.8-8.1-3.7-12.9-0.1
			c-3.8,2.9-14.1-1-17.2-5.3c-0.7-1-2.2-1.4-3.4-2.1c-1.9-1-3.9-2-4.1-4.5c6.1-0.4,10.8,3,15.4,6.1c2.5,1.6,4,2.8,7.3,1.2
			c2.8-1.4,6.7-1.2,10-0.8c5.2,0.7,10.4,1.1,15.7,0.5c6.5-0.7,13-0.6,19.5-0.7c5.1-0.1,10.4-0.5,15.7-0.8c2.1-0.1,3.4-0.5,2.2,2.2
			c-0.6,1.4,0.4,2.2,1.4,1.4c4.6-3.5,10.4-1.4,15.2-3.4c3.2-1.4,6.1-3,9.8-1.9c1.4,0.4,2.7,1,4.1,1.5c1.5,0.6,4.2,1.8,2.7-2
			c-0.7-1.8,0.8-1.4,1.6-1.4c2.1-0.1,4.4-0.3,6.3,1C415.8,63.1,415.8,64.1,415,65.1z"/>
		<path class="st54" d="M433,50c4.2-2.3,7.5-0.1,10.9,1.9c1.2,1.1,1.2,2.4,0.7,3.8c-5.5,3.4-11.4,4.7-17.8,3.8
			c-3.3-0.5-6.6-0.6-9.8-1.5c-3.2-0.6-1.6-3.2-2-5c0.7-1.1,3.4-0.4,2.3-3.1c-0.2-0.6,2-1.4,3.3-1.6C424.9,47.6,429,48.2,433,50z"/>
		<path class="st55" d="M417,58c3.4-2.4,6.8,0.3,10.2,0.3c1.1,0,2.8,1.1,4.2,0.4c3.9-2,8.4-1.3,12.4-2.6c2.5,2.5,0.4,5.2,0.2,7.8
			c-1.9-1.8-3.4-2.5-6.3-1.2c-7.2,3.2-15.1,3.1-22.8,2.3c0-1,0-2,0-3C414.6,60.2,415.9,59.2,417,58z"/>
		<path class="st56" d="M183.3,47.3c3.8,1.5,7.7-0.6,11.5,0.1c-1.8,5.3-3.9,6.6-10.2,6.4c-0.3,1.3,1.3,1.3,1.5,2.3
			c-0.2,2.5-2.4,1.6-3.4,1.5c-2.6-0.3-5.2-0.1-7.8-0.6c-1.9-1-2.1-2.9-1.8-4.6c0.2-1.3,2-1.7,2.8-1.2
			C180.4,53.4,181.3,49.5,183.3,47.3z"/>
		<path class="st57" d="M433,50c-5,0.8-10.1-2.5-15,0.6c1.2,1.2,3.3-0.2,4.7,1.7c-2.6,1.4-5.2,0.6-7.7,0.8c0.1-5.3,2.5-7.8,7.7-8
			c2.6-0.1,5.3,0,7.9,0c1.7,0,3.5,0,4.4,1.7C435.9,48.6,432.2,48,433,50z"/>
		<path class="st53" d="M365,56.1c8.3,0,15.8-0.1,23.4,0c1.7,0,2.9,1.2,2.3,3c-0.6,2-1.8,1.6-3.5,0.8c-3.9-2.1-7.7,0.1-11.5,0.8
			C368.7,62,368.1,62,365,56.1z"/>
		<path class="st58" d="M174.1,56c4-1,8,2,12,0.1c1.5,0,3,1.2,4.7,0.3c0.7-0.4,1.7,0.3,1.4,1.2c-0.1,0.4-1.4,0.4-2.2,0.5
			c-3.6-0.8-7.3,0-10.6,0.6c-5.9,1.1-7.2,1.9-11.4,0.4c-0.7-1.4-2.6-2.4-2-4.3c0.5-1.5,1.6-2.6,3.2-2.9c1.4-0.3,2.6,0.3,3,1.9
			C172.5,54.9,173.4,55.4,174.1,56z"/>
		<path class="st59" d="M444.1,63.9c-0.1-2.6-0.2-5.2-0.2-7.8c0-1.4,0-2.8,0-4.2c0-0.9,0-1.9,0.1-2.8c0.3-0.4,0.7-0.5,1.1-0.2
			c1.5,0.5,3.3,0.2,4,2.2c0,3.7,0,7.3,0,11.9c-2.8-2.8-4.2-2.4-4.1,1h-0.4L444.1,63.9z"/>
		<path class="st60" d="M271,55.1c-0.7-0.3-1.3-0.7-2-1c0.3-2.9,0.6-5.9,4.5-5.9c2.5,0,2.4,4.2,5.6,3.4
			C276.2,52.8,272.3,50.6,271,55.1z"/>
		<path class="st54" d="M445.1,48.9c-0.4,0.1-0.7,0.2-1.1,0.2c-0.9-1.8-3.7-0.2-4.4-2.8c2.7,0.4,5.3,1.2,8,0.1
			c0.9-0.4,1.2,0.8,1.3,1.6C447.6,48.2,446.1,47.6,445.1,48.9z"/>
		<path class="st53" d="M394.5,58.6c1.9-0.4,3.8-0.7,6.6-1.3C398.9,60.2,396.9,60.4,394.5,58.6z"/>
		<path class="st61" d="M586,27.3c-1,5-4.1,7.1-9,6.8c-3.6-1.8-7.3-1.1-11-0.5c-1.9,0.4-4.4,1.4-5.3-0.8c-1-2.4,2.3-2,3.3-3.3
			c1.5-2,4.2-0.7,5.8-2.2C575.2,27.3,580.6,27.3,586,27.3z"/>
		<path class="st62" d="M632.9,23c-0.8-2.3-2.5-4.3-1.5-7c1.2-3.1,8.2-5.9,11.7-4.2c3.2,1.5,5.4,4,4.4,7.9
			c-1.3,4.9-5.8,7.1-10.6,5.4c-0.1-2.6,2-3.5,3.8-4.5c1.4-0.8,3.2-1.2,2.3-3.5c-0.6-1.7-1.9-1.6-3.2-1.3c-1.7,0.3-3.9,0.2-3.9,2.8
			c0,1.5,0.4,3-0.2,4.4C634.9,24.7,633.9,24.6,632.9,23z"/>
		<path class="st63" d="M632.9,23c3.9,0.3,1.5-2.5,1.8-3.9c0.3-1.2-1.7-3,0.4-3.7c2.7-0.9,5.6-1.5,8.3-1.4c0.7,0,0.8,3.4,1.8,5.1
			c0.5,0.7-1.2,1.5-2.1,1.6c-2.8,0.6-4.6,2.3-6.4,4.3c-0.3,0.3-0.7,0.7-1,1c-0.7,0-1.3,0-2,0C633.6,25.1,633.3,24.1,632.9,23z"/>
		<path class="st64" d="M587.8,35c0.7-2,1.4-4,2.1-5.9c1.9,1.4,0.8,3.3,0.9,4.9C589.7,34.1,589.5,36.6,587.8,35z"/>
		<path class="st65" d="M174.1,56c-1.1-0.5-4.1,1.7-2.8-2.2c0.3-0.9-1.3-1.6-2.1-1c-1.1,0.8-3.5,1.5-2,3.6c0.6,0.9,1.8,1.4,0.9,2.7
			c-1.8,0-3.7,2-5.4-0.4c-0.5-0.7-1.7-0.7-2.1,0.1c-1.9,4.5-6,2.3-9.1,3.2c-0.3,0.1-0.8,0.1-1-0.1c-5.3-8.2-11.5-1.7-17.3-1.1
			c-2.1,0.2-4,0.5-5.1-1.8c0.5,0,1.1,0.1,1.5-0.2c1.2-0.9,0-0.8-0.5-0.8c-1.8-0.3-3.7,0.5-6.5-1.4c5.3-0.5,9.8-0.1,13.6-1.5
			c4.3-1.6,9,0.1,13.2-2.9c-5.5,0.4-9.7-4.6-15.6-2.3c-0.5,1.1,2.7,1,1.6,2.5c-0.8,1-2.2,0.7-3.3,0.4c-2.8-0.6-5.3-1.8-8.5-1.1
			c-2.2,0.5-3.3-2.4-6-4.5c22.7,0,44.2,0,65.7,0c0.7,2.9-3,4.1-2.7,7c0.1,0.6-1.8,0.9-1.8,0c0-3.2-2.5-2.5-3.8-2.1
			C173.2,52.7,174.9,54.8,174.1,56z"/>
		<path class="st27" d="M122.1,59.1c-3.4,3.5-8,2.3-12,2.3c-5.1,0-10.2-1.2-15.2,0.8c-2.8,1.1-3-1.9-5.2-2.9c-1,4.9-3.3,4-6.7,1.9
			c-3.6-2.3-7.7-3.2-11.7-0.3c-3,2.2-3.9-2.4-6.7-1.9c-1.1,0.2-3.1-1.4-3.8,0.3c-1.3,3.5-4,2.8-6.5,2.9c-3.3,0-6.7-0.1-10,0
			c-3.9,0.1-7.6-0.5-10.4-3.6c-0.9-1.1-2.2-1.7-3.6-1.2c-1.9,0.8-0.1,1.8-0.1,2.8c0.1,2.8-2.2,2.2-3.6,1.9c-6.5-1.5-13-2.1-19.9-1.9
			c3.1-3.3,2-8.2,5.3-11c6.3-0.7,11.9,2.7,18,3c1.4,0.1,3-0.2,4.2,0.9c0.1,1-0.2,2.1,1.7,2c2.4-0.2,4.9-0.6,7.1,1
			c3,5.1,6.4,1.5,9.6,0.5c1.1,0.2,2.3,0.2,2.6,0.2c1.5,0.1,1-0.8,1-0.1c0,0.1-0.1,0.1-0.3,0.1c-4-0.4-4-0.4-2.9-3.3
			c7.9,0.4,15.7,0.2,23.6,1c1.6,0.2,3.3,0.4,4.4,1.8c1.6,1,2.8,2.2,5.2,0.7c2.3-1.4,5.4-1.8,7.4,1.3c0.5,0.8,1.2,1.5,2.5,1.3
			C104.8,57.7,113.5,60.5,122.1,59.1z"/>
		<path class="st66" d="M81.1,56.1c-9.7-0.7-19.3-1.3-29-2c-6.1,2.3-12.1,1.6-18-1c-1.4-0.2-3,0.5-4-1c3.7-1.4,7.6-0.9,11.3-0.6
			c8.2,0.6,16.3,0.8,24.5,0.7c4.8,0,9.6,0.5,14.3,1C82.6,53.4,81.5,54.9,81.1,56.1z"/>
		<path class="st67" d="M463.9,66c-1.5-0.7-5,0.2-2.7-3.6c0.5-0.7-1.2-1.2-2.2-1.4c0-2,0-4,0-6c3.6-1.4,5.5-0.8,4.9,3.6
			C463.7,61.1,463.9,63.5,463.9,66z"/>
		<path class="st15" d="M499.9,46.1c-2.6,0-5.2-0.1-7.9-0.1c-0.6-2.1,1.1-3.3,1.9-4.9C497.6,40.9,500,41.9,499.9,46.1z"/>
		<path class="st68" d="M459,53.1c0-0.7-0.1-1.4-0.1-2c0.1-1.3,0.8-2,2.1-2.1c0.9,0.2,2.6,0,2.5,0.8C463,51.9,461.4,53.2,459,53.1z"
			/>
		<path class="st69" d="M652.9,64.1c-0.8-3.4,2.9-2,4-3.6c0.3-0.5,1.8,0.5,2,1.6c0.4,1.7-0.9,1.8-2,2
			C655.6,64.1,654.2,64.1,652.9,64.1z"/>
		<path class="st70" d="M575.9,58c0.6-1,1.3-2,1.9-3.1c1.3,0.8,3,1.6,1.2,3.3C578.3,58.8,576.7,61.2,575.9,58z"/>
		<path class="st41" d="M553.9,55.1c-0.6-4.1,3.2-2.8,5-4c0.6,3,4.7,2.2,5.7,6C560.9,56.2,557.7,52.4,553.9,55.1z"/>
		<path class="st23" d="M34.1,53.1c5.2-0.4,10.4,2.5,15.7,0.3c0.6-0.2,1.5,0.4,2.3,0.6c1.4,3.2,4.7,1.3,8.2,3c-3.6,0-5.9,0-8.2,0
			c-3,1.5-6,2.2-9,0c-2.4-2-5.3-0.9-7.9-0.9C31.2,56.1,33.5,54.4,34.1,53.1z"/>
		<path class="st35" d="M43.1,57.1c3,0,6,0,9,0C47.9,61.1,45.2,61.1,43.1,57.1z"/>
	</g>
</g>
</svg>
