<?xml version="1.0" encoding="utf-8"?>
<!-- Generator: Adobe Illustrator 25.0.0, SVG Export Plug-In . SVG Version: 6.00 Build 0)  -->
<svg version="1.1" xmlns="http://www.w3.org/2000/svg" xmlns:xlink="http://www.w3.org/1999/xlink" x="0px" y="0px"
	 viewBox="0 0 617.1 214" style="enable-background:new 0 0 617.1 214;" xml:space="preserve">
<style type="text/css">
	.st0{display:none;}
	.st1{display:inline;fill:#040504;stroke:#000000;stroke-miterlimit:10;}
	.st2{fill:#0D0E0E;}
	.st3{fill:#0F1111;}
	.st4{fill:#060606;}
	.st5{fill:#586368;}
	.st6{fill:#52554F;}
	.st7{fill:#90948D;}
	.st8{fill:#465157;}
	.st9{fill:#3D443F;}
	.st10{fill:#0F1010;}
	.st11{fill:#484F4A;}
	.st12{fill:#1A1C1C;}
	.st13{fill:#3B4246;}
	.st14{fill:#2A2E2C;}
	.st15{fill:#30363A;}
	.st16{fill:#343838;}
	.st17{fill:#1B1E1E;}
	.st18{fill:#222729;}
	.st19{fill:#2C3235;}
	.st20{fill:#161818;}
	.st21{fill:#171A1A;}
	.st22{fill:#3F4342;}
	.st23{fill:#1A1D1D;}
	.st24{fill:#2D3030;}
	.st25{fill:#2A2E30;}
	.st26{fill:#141616;}
	.st27{fill:#5D6C75;}
	.st28{fill:#5A6971;}
	.st29{fill:#292D2F;}
	.st30{fill:#4A5256;}
	.st31{fill:#74868E;}
	.st32{fill:#6C706C;}
	.st33{fill:#303233;}
	.st34{fill:#616F75;}
	.st35{fill:#3D413F;}
	.st36{fill:#050606;}
	.st37{fill:#292C2C;}
	.st38{fill:#535753;}
	.st39{fill:#5E6159;}
	.st40{fill:#696E6A;}
	.st41{fill:#3D403E;}
	.st42{fill:#595C54;}
	.st43{fill:#545750;}
	.st44{fill:#474A46;}
	.st45{fill:#080909;}
	.st46{fill:#464945;}
	.st47{fill:#969A90;}
	.st48{fill:#6F7268;}
	.st49{fill:#4A4D4B;}
	.st50{fill:#151817;}
	.st51{fill:#383C3B;}
	.st52{fill:#4A4D4A;}
	.st53{fill:#575B59;}
	.st54{fill:#B1B6AF;}
	.st55{fill:#5F6869;}
	.st56{fill:#4F5350;}
	.st57{fill:#333838;}
	.st58{fill:#7C817C;}
	.st59{fill:#111313;}
	.st60{fill:#212524;}
	.st61{fill:#4F5451;}
	.st62{fill:#929892;}
	.st63{fill:#495257;}
	.st64{fill:#1B1D1C;}
	.st65{fill:#2A2F32;}
	.st66{fill:#656A66;}
	.st67{fill:#131616;}
	.st68{fill:#4B4E4C;}
	.st69{fill:#060706;}
	.st70{fill:#010202;}
	.st71{fill:#7E8074;}
	.st72{fill:#62655E;}
	.st73{fill:#A8AFA9;}
	.st74{fill:#909691;}
	.st75{fill:#181A19;}
	.st76{fill:#333733;}
	.st77{fill:#9AA09B;}
	.st78{fill:#818782;}
	.st79{fill:#353835;}
	.st80{fill:#494C46;}
	.st81{fill:#1C1F1E;}
	.st82{fill:#3B3D39;}
	.st83{fill:#A3A698;}
	.st84{fill:#C7CCC5;}
	.st85{fill:#212423;}
	.st86{fill:#8E938F;}
	.st87{fill:#475258;}
	.st88{fill:#51595C;}
	.st89{fill:#191C1B;}
	.st90{fill:#373D39;}
	.st91{fill:#3A3F3C;}
	.st92{fill:#6A6F6C;}
	.st93{fill:#949B96;}
	.st94{fill:#5A5F5C;}
	.st95{fill:#3D4549;}
	.st96{fill:#B0B7B1;}
	.st97{fill:#070808;}
	.st98{fill:#474B49;}
	.st99{fill:#424645;}
	.st100{fill:#7E837F;}
	.st101{fill:#434645;}
	.st102{fill:#4B4F4D;}
	.st103{fill:#7E847F;}
	.st104{fill:#4D504E;}
	.st105{fill:#030505;}
	.st106{fill:#7D837E;}
	.st107{fill:#090A0A;}
	.st108{fill:#020303;}
	.st109{fill:#1F2120;}
	.st110{fill:#B3BAB3;}
	.st111{fill:#ADB3AE;}
	.st112{fill:#1A1C1B;}
	.st113{fill:#C8CEC8;}
	.st114{fill:#999F99;}
	.st115{fill:#B3BAB4;}
	.st116{fill:#4D4F49;}
	.st117{fill:#040505;}
	.st118{fill:#101212;}
	.st119{fill:#AEB4AD;}
	.st120{fill:#181A1A;}
	.st121{fill:#888E89;}
	.st122{fill:#727773;}
	.st123{fill:#ECEFEC;}
	.st124{fill:#828884;}
	.st125{fill:#F2F5F3;}
	.st126{fill:#707572;}
	.st127{fill:#1E2020;}
	.st128{fill:#171A19;}
	.st129{fill:#898E8A;}
	.st130{fill:#AFB096;}
	.st131{fill:#838780;}
	.st132{fill:#BBC2BC;}
	.st133{fill:#BCC2BC;}
	.st134{fill:#272A2A;}
	.st135{fill:#808581;}
	.st136{fill:#F5F8F6;}
	.st137{fill:#8E948F;}
	.st138{fill:#596365;}
	.st139{fill:#959B95;}
	.st140{fill:#393D3C;}
	.st141{fill:#282B2A;}
	.st142{fill:#949A95;}
	.st143{fill:#262928;}
	.st144{fill:#676C68;}
	.st145{fill:#595D5B;}
	.st146{fill:#ACB1A8;}
	.st147{fill:#C4CBC5;}
	.st148{fill:#9DA9A5;}
	.st149{fill:#696E6B;}
	.st150{fill:#202323;}
	.st151{fill:#3D4345;}
	.st152{fill:#595E5B;}
	.st153{fill:#838884;}
	.st154{fill:#666B68;}
	.st155{fill:#6D726E;}
	.st156{fill:#6B706C;}
	.st157{fill:#F7F8F8;}
	.st158{fill:#898F8A;}
	.st159{fill:#4F5351;}
	.st160{fill:#636864;}
	.st161{fill:#686D6A;}
	.st162{fill:#979C97;}
	.st163{fill:#171919;}
	.st164{fill:#535754;}
	.st165{fill:#8D938E;}
	.st166{fill:#818783;}
</style>
<g id="Camada_2" class="st0">
	<rect x="-124.9" y="-83" class="st1" width="972" height="439"/>
</g>
<g id="Camada_1">
	<g>
		<path class="st2" d="M345.3,125c-1.4,18.4,2.2,36.4,5.2,54.4c0.9,5.4,1.8,10.8,2.7,16.2c1.2,7.6-1.1,10.7-8.7,12.1
			c-9,1.7-18,3.3-26.9,5c-0.9,0.2-2.1-0.2-2.4,1.1c-0.7,0-1.3,0-2,0c-2.1-3.4-1.4-7.4-2.4-11c-2.7-15.1-5.5-30.3-7.5-45.5
			c-0.9-6.8-1.7-13.8-1.5-20.8c0.1-2.6,0.3-5,3-6.3c9.1-3,18.8-2.6,28.1-4.6c2.1-0.4,4.1-1.1,6.3-1.1c1.1,0,2.2-0.3,3.2-0.5
			C343.4,124,344.5,124.1,345.3,125z"/>
		<path class="st3" d="M617,75c-9.4,1.3-18.9,1.8-28.4,1.4c-0.7,0-1.6-0.2-1.9,0.2c-3.7,4-7.2,1.1-9.8-1.1c-2.4-2-3.2-1.8-2.9,1
			c0.8,6.3-2.9,6.6-7.6,6.5c-2.3-0.1-6.1-1.8-5.9,3.3c0,0.4-2.2,0.9-3.4,1.4c-3.4-1.7-7.2-1.1-10.8-1.1c-57.4-0.1-114.8-0.1-172.2,0
			c-6.9,0-13.7-1.7-20.6-1.1c-1-0.6-0.9-1.6-0.6-2.5c1.9-1.8,3.7-3.7,4.4-6.5c0.4-1.4,1.2-2.9,3-2.9c1.5,0,2.1,1.4,2.7,2.6
			c3,6.3,3,5.5,9.9,5.8c13.4,0.5,26.8,0.3,40.3,0.4c13.4,0.1,26.9,0,40.3,0c2.8,0,5.7-0.1,8.1-1.8c0.8-0.4,1.6-0.4,2.5-0.3
			c2.2,1.2,4.4,2.2,7,2.2c9.4,0,18.9,0,28.9-0.1c-2-2.8-2.5-5.5,0.1-7.8c1.5-0.8,2.9-1.8,4-3.2c0.4-0.3,0.8-0.6,1.2-0.9
			c2.1-1.3,1.4-3.5,1.5-5.3c0.3-3.2-0.8-6.5,1.1-9.5c0.9-0.7,1.9-0.7,2.9-0.3c2.1,1.8,1.5,4.2,1.6,6.5c0.2,3-0.3,6,0.4,8.9
			c0.1,0.7-0.2,0,0.3,0.4c0.7,0.5,0.5-0.4,0.6-0.8c0.2-4.1-0.4-8.2,0.5-12.2c0.8-1.7,1.8-3.3,4.1-2.6c1.9,0.6,1.9,2.5,2.1,4.1
			c0.4,3.4-0.5,6.9,0.7,10.3c0.3,0.3,0.7,0.6,1.1,0.9c0.4,0.2,0.8,0.5,1.1,0.8c0.8,1,1.7,1,2.6,0c0.6-0.4,1.2-0.6,1.9-0.7
			c0.5,0,0.9,0,1.4,0.1c0.4,0.1,0.8,0.3,1.2,0.6c0.9,1,1.7,0.8,2.4-0.2c0.9-0.9,1.9-1.3,3.1-1.1c0.9,0.2,1.8,0.6,2.6,1
			c3.4,1.5,3.8-0.8,4.2-3.3c0.7-3.9-0.9-7.6-0.6-11.5c1.1-0.7,2.3-0.7,3.5-0.3c2.8,2.6,4.2,5.7,4.6,9.9c4.6-0.6,9.5,1.7,14.6,0.1
			c1-0.3,1.9,0.3,2.9,0.6c4.7,1.7,4.7,1.7,5.1-3.4c0.3-2.5,1.5-3.6,4-2.6c1.6,1.8,2,4.5,4.3,5.9c2,4.1,4.4,0,6.6,0.4
			c1,0.2,2.1,0.6,3.2,0.2c5.7,0.4,11.4,0.2,17.1,0.2c1.7,0,3.7,0.5,4.7-1.7c0.4-0.3,0.8-0.6,1.3-0.7c1.5-0.2,2.3,0.6,3,1.7
			C617,69.7,617,72.4,617,75z"/>
		<path class="st4" d="M309.1,213.9c-3.4-21.6-8.3-42.9-10.1-64.8c-1-5,0.3-10.2-0.7-15.2c0-0.3-0.1-0.7-0.1-1
			c0.6-2.3,1.9-1.7,3.3-0.9c1.6,4.3-0.1,8.8,1.1,13.1c1.3,17.3,4.9,34.3,7.5,51.5c0.3,2,1.1,3.8,1.1,5.8c0.1,3.9,2.4,7.5,1,11.5
			C311.1,213.9,310.1,213.9,309.1,213.9z"/>
		<path class="st5" d="M0.2,56.1c3.4-0.7,0.6-4.7,3-5.9c2.3,2.9,2.3,6.4,2.3,9.9c0.1,3.1-0.3,6.3,0.7,9.3c0.7,4.9,0.4,9.8,0.4,14.8
			c-0.2,6.5-0.1,13.1,0,19.6c0,6.4,0.5,12.9-1,19.2c0,4.1,0.1,8.3-0.2,12.4c-0.4,2.3-0.5,4.7-2.3,6.5c-3.1-2.6-3-6.6-1.8-9.4
			c2.7-6.3,0.7-12.7,1.3-19c0.4-3.7,1.3-7.5,0.6-11.4c-0.8-4.8-0.5-9.7-0.9-14.6C2,84.2,2.8,80.9,2.6,77.4C2.2,71.2,2.3,65,0,59.1
			C0.2,58.1,0.2,57.1,0.2,56.1z"/>
		<path class="st6" d="M239.2,33c2.5-0.1,3.3-1.4,3.2-3.9c-0.3-4.2-0.2-8.4-1.3-12.6c-1.8-6.7,1.5-11.9,6.1-16.4c1.7,0,3.3,0,5,0
			c0.7,0.4,1.3,0.8,2,1.2c0.3,0.4,0.3,0.8,0,1.1c-1.4,2.8,2.6,2.1,2.6,3.9c0.5,1.2,0.5,2.4,0.2,3.6c-2.2,5.5-4.2,6.3-10.2,4
			c-2.7-1.9-3.2-0.1-3,2c0.4,3.8,0.7,7.6,0.7,11.4c0,1.8,0.1,3.6-0.5,5.4c-0.3,0.8-0.8,1.4-1.5,2C240.5,35.7,238.6,36.6,239.2,33z"
			/>
		<path class="st7" d="M617,67c-1-0.4-2-0.7-3-1.1c-2.7-0.4-5.8,1.7-8.2-1.1c1.6-3.5,5.5-0.8,7.6-2.9c0.8-0.7,1.9-1,2.5-1.9
			c0.3-0.1,0.7-0.1,1,0C617,62.4,617,64.7,617,67z"/>
		<path class="st8" d="M312.1,213.9c-0.6-3.6-1.3-7.3-1.9-10.9c0.6-0.7,1.2-0.7,1.9-0.1c0.8,3.6,1.2,7.3,1,11
			C312.8,213.9,312.4,213.9,312.1,213.9z"/>
		<path class="st9" d="M351.3,83.2c-2.1,0.4-3.4,1-3.4,3.7c0.2,8.8,0,17.6,0,26.4c0,2.2,0.3,4.3,2.2,5.8c-1,3.3-4.3,1.7-6.2,2.9
			c-5.5,1.1-11.1,1.1-16.5,2.2c-1.9,0.2-3.8,0.2-5.7,0c-3.9-1.6-7.4-1.1-11.2,1c-5.5,3.1-11.4,2.5-17.2,0.4c-1.4-2.1-1.3-3.7,1.6-4
			c1.9-0.3,3.6-0.7,3.3-3.2c2.5-8.8,0.4-17.7,0.4-26.6c0-4-0.1-4.7,2.9-5.5c13.8-1.8,27.8,0.5,41.6-1.4c-13.5-0.1-27.1-1.3-40.6,0.3
			c-3.3,0.2-6.7,0.5-10,0.1c-3.6-0.6-7.2-0.8-10.9-1.1c-1.6-0.1-3.7-0.7-3.4-2.7c0.3-1.9,2.4-1.3,3.8-1.3
			c16.2,0.4,32.5,0.1,48.7,0.3c5.8,0.1,10.7-3.2,16.3-3.8c0.7-0.3,1.5-0.5,2.3-0.4c1.9,0.6,2.4,2,1.7,3.7
			C350.6,81.2,350.5,82.2,351.3,83.2z"/>
		<path class="st10" d="M353.4,85c5.7-3.4,11.3,0,17,0c31.3-0.1,62.5,0,93.8,0c28.9,0,57.9,0,86.8,0c2.3,0,5.3-1,6,2.7
			c-0.8,0.4-1.6,0.8-2.4,1.3c-6.4,2.5-13,2.1-19.7,2c-5.9-0.1-11.9,0-17.9,0.1s-12,0-17.9,0.1c-6.6,0.2-13.2-0.8-19.7,0.1
			c-2.9,0.4-5.8-0.2-8.7-0.2c-10,0.1-20,0.4-29.9,0c-11.1-0.4-22.2,0-33.3-0.3c-6-0.2-12.2-0.1-18.3,0.2c-5.9,0.4-11.9-0.1-17.9,0.1
			c-4.2,0.1-8.3-0.8-12.5-0.1c-1.9-1.2-3.9-2.5-5.8-3.7C352.7,86.6,352.3,85.7,353.4,85z"/>
		<path class="st3" d="M358.8,91.2c1.8-1.7,3.4-3.1,5.9-0.7c2.3,2.1,5.3-3.4,7.8,0.4c3.3-2.9,7.2,0.7,10.6-1.1
			c1.2-0.7,2.1-0.7,3.1,0.3c1.3,1.3,2.7,1.2,3.9,0c0.8-0.8,1.7-1,2.7-0.8c1.6,0.3,12.7-0.4,13.4,0.2c3.4,2.6,7.3-1.3,10.6,1.2
			c1,0.8,2.2,0.4,3.2-0.4c0.6-0.5,1.7-1.2,2.1-0.9c2.4,1.5,4.7,2,7.1,0c3.2,3.9,7.7-2.3,10.9,1.5c3.2-3.3,7.2,1.5,10.6-1.2
			c1.7-1.4,3.9,1.3,4.2,1c3.5-3.1,7.6,1.9,11.2-1.1c2-1.7,4.3,2.4,7.7,0.4c1.7-1,6.1-0.4,9.1-0.3c4.3,0.1,8.8-0.1,12.9,0.3
			c3.5,0.3,7.3-1.4,10.7,0.6c1.1,0.7,2.4,0.8,3.2-0.1c1.6-1.7,2.9-1.2,4.3,0c0.8,0.7,1.9,0.9,2.8,0.2c1.8-1.6,3.2-0.5,5.2-0.1
			c3,0.5,7.5,0.8,9.1-0.1c3.8-2.1,7.7,2.9,10.7-1.1c2.5,2.9,4.9,0.6,7.4-0.1c1.7-0.5,3.6-0.1,5.5-0.1c-2.3,2.9-5.5,2.7-8.6,2.7
			c-35.7,0-71.4,0-107.1,0c-25.4,0-50.8,0-76.3,0C361.3,91.6,360,92,358.8,91.2z"/>
		<path class="st11" d="M344.1,120.9c1.6-1.9,4.4,0.1,6-1.8c3.5,2.4,1.2,4.3-0.8,5.7c-0.9,0.6-2.6,0.2-3.9,0.3c-1,0-2.1,0.1-3.1,0.1
			c-0.7-1.6,0.6-2,1.5-2.7c0.4-0.2,1.3-0.2,1.3-0.4C345.3,121.3,344.1,121.5,344.1,120.9z"/>
		<path class="st12" d="M353.4,85c-0.1,0.8-0.3,1.6-0.4,2.4c-1.2-1.2,0.4-3.5-1.7-4.3c-0.5-0.8-3.8,0.7-1.7-2.2
			c0.8-1.2,1.5-2.5,0.4-3.9c1.7-1.3,3.1-1,3.5,1.2c0.3,1.6,0.4,3.2-0.2,4.8C353.3,83.7,353.3,84.4,353.4,85z"/>
		<path class="st13" d="M220.1,173.9c-0.3,3.1,1.2,6.3-0.9,9.2c-4.5,0.1-8.4-1.4-11.9-4.2c-4.2-3.3-9.2-5.1-13.9-7.6
			c-2.5-1.3-1.5,1.3-2.4,1.7c-1.6-0.7-3.3-1.4-4.1-3.1c-0.9-2.6-1.4-5.2-0.5-7.9c4.8-7.3,10-14.1,17.3-19.4
			c5.4-3.9,7.1-10.5,8.4-16.9c1-3.2,2.1-6.3,3.1-9.4c1.2-2.8-0.4-6.2,1.9-8.7c2.2-1.3,4.6-0.9,6.9-0.6c7.3,1.4,14.6,0.4,22,0.6
			c1.8,0.4,2.1,1.9,2.4,3.4c0.1,3.4,0.2,6.7-0.2,10.1c-0.5,2.8-2.1,4.7-4.8,5.9c-3.9,1.7-7,4.5-8.9,8.3c-3.6,7.4-9,13.9-11.2,22
			c-0.7,2.3-2.4,3.9-3.7,5.8C216.2,167.7,216.4,171.1,220.1,173.9z"/>
		<path class="st14" d="M224.2,108.1c-2.4,0-4.8,0-7.1,0c-2.2,1.1-2.5-0.9-2.9-2.1c-1.2-3.5-3.6-5.6-6.9-7c-0.9-0.9-1.7-1.8-2.6-2.7
			c0.5-2,2.9-1.2,4-2.7c-2.3-3.7-6-5.3-9.7-6.7c-4.1-1.5-7.1-3.4-6.2-8.5c-1.9-4.2-4-8.3-2.7-13.1c0.3-0.7,0.7-1.3,1.5-1.7
			c0.5-0.1,1-0.1,1.4,0.1c2.3,2.1,4.8,3,7.8,1.6c0.1-1.2-0.5-2.1-0.7-3.2c-0.3-1.1-0.7-2.2-0.5-3.4c0.3-0.7,0.9-1.1,1.7-1.1
			c2,0.7,1.9,2.6,2.5,4.1c1.7,3.7,3.7,6.7,8.7,5.4c1.5-0.4,2.9,0.2,3.3,2.1c0.1,0.3,0.1,0.7,0.2,1c1,6.4,1,6.4,7.5,6.4
			c10.6,0,21.1,0,31.7,0c2.3,0,4.7-0.3,6.7,1.2c0.8,2.6-1.1,3.6-2.8,4.6c-5.4,3.1-11,5.5-17.4,5.1c-5.1-0.3-10.3,0.5-15.4-0.5
			c-1.3-0.4-1.7-1.3-1.7-2.6c-0.1-1.1,0-2.7-1.7-2.4c-1.6,0.3-1,1.7-0.8,2.8c0.1,0.5,0.3,0.9,0.3,1.4c-4.1,4.9-0.8,10.7-1.6,16
			c-0.3,2.4,1.9,2.9,4.2,2.9c1.9,0,4.7,0.1,1.9,3.1C226.1,108.5,225.1,108.7,224.2,108.1z"/>
		<path class="st15" d="M31.3,124c2.6,1.2,1.6,3.2,0.9,5c-4.1,2-7.4,0-10.4-2.4c-1.5-1.1-2.7-2-4.8-1.6c-5.2,1.1-7-0.4-7.1-5.9
			c-0.2-10-0.2-19.9,0-29.9c0.1-6.3-0.6-12.6-1-18.8c-0.2-2.4-0.5-5,0.9-7.3c4.4-2.1,8.2-0.5,11.9,1.8c2.1,4.3,0.3,9,1.7,13.4
			c0.8,12.1,0.3,24.3,0.4,36.4c-0.2,1.9,0,3.7,1.6,5c1,0.9,2.3,0.5,3.5,0.7C30.7,120.9,30.3,122.9,31.3,124z"/>
		<path class="st16" d="M181,73.3c-18.3-0.1-36.6-0.2-54.8-0.3c-0.9-1.7-1.8-2.6-4.1-2.6c-3.1,0-6.5,1.6-9.5-0.8
			c-0.5-1.3-0.5-2.6,0.3-3.8c3.6-3.1,8.6-1.8,12.5-4c0.6-0.1,1.2-0.2,1.7-0.3c17.3,0.1,34.6-1,51.9,0.7c0.6,0.1,1.1,0.4,1.6,0.8
			C181.8,66.5,182.2,69.9,181,73.3z"/>
		<path class="st11" d="M293.1,125c7.2,1.2,14.3,2.1,20.6-2.8c2.8-2.2,4.9,0.8,7.4,0.8c-1.6,3.9-5.9,1.5-8.3,3.4
			c6.7,0.1,13.2-2.2,19.9-2.4c2.6-0.1,5.6-1.7,7.4,1.7c-11.7,1.7-23.3,3.5-35,5.2c-0.8,0.7-2.1,0.4-2.8,1.4c-0.4,0.1-0.8,0-1.2-0.3
			c-1.1-0.2-2.2-0.1-2.9,0.9c-7.2-0.6-14.3-0.3-21.4,1.5c-9.5,2.4-18.6,0.5-27.7-2.3c-1.4-3.2-1.3-6.4,0.1-9.6
			c0.8-1.7,1.5-3.5,4-2.7c4.8,10.4,11.9,11.7,21.7,9.9c4.1-0.8,8.1-1.6,12.2-2.4C289.7,128.1,291.3,126.4,293.1,125z"/>
		<path class="st17" d="M113.2,70c3.5-1.5,7.3-0.2,11-1.2c2.9-0.8,2.7,2.1,2,4.2c-1.4,3.3-0.7,6.8-0.7,10.2c0,2.5-0.9,3.1-3.2,3
			c-7.4-0.5-14.8-0.8-22.1-1.2c0.4-2.9,2.8-1.9,4.4-2.3c1.5-0.3,3.2,0.4,4.6-0.6c0,0,0-0.3-0.1-0.4c-0.2-0.2-0.5-0.3-0.9-0.3
			c-9.6,0.3-19.1-0.9-28.6,0.7c-3.8,0.6-7.2,2.2-10.8,3.4c-1.1,0.2-2.2,0.2-2.9-0.8c-0.5-2.9,1.9-3.4,3.6-4.7
			c2.6-1.9,6.3-1.6,8.6-4.2c0.4-0.4,0.8-0.6,1.3-0.8c8.1,2,16.3,1.6,24.6,1.6c2.1,0,4.3,0.2,6.3-0.8C112.7,74.5,111.2,71.4,113.2,70
			z"/>
		<path class="st18" d="M10.2,63c1.3,19,0.9,38.1,1,57.1c0,1.6-0.3,3.2,2,4c1.9,0.7,3.1,0.4,4.2-1.2c0.9-1.3,2.8-1.5,3.3-0.2
			c2.1,5.5,7.1,5.2,11.5,6.2c0.6,1.6-1.4,2.5-1.1,4c-4.2,4.1-15.8,5-20.3,1.7c-1.5-1.1-1.8-2.7-1.9-4.4c-0.1-2.6,0.1-5.3-0.8-7.9
			c-1-13.9-0.2-27.8-0.3-41.7c-0.1-6-0.9-11.9-0.8-17.8c0.1-0.6,0.4-1.2,0.7-1.7c0.7-0.7,1.5-0.9,2.4-0.5
			C10.8,61.5,10.8,62.2,10.2,63z"/>
		<path class="st19" d="M220.1,173.9c-3.8,0.2-5.7-0.7-4.2-5.2c1-3.2,1.7-6.3,4.5-8.6c0.7-0.6,1.4-1.5,1.6-2.4
			c1.7-8.9,8-15.5,11.6-23.4c2-4.4,5.7-7.4,10.2-9c1.9-0.7,2.1-2.4,3.3-3.4c1.6,4.3,1,7.1-3,9.6c-4.4,2.7-7.2,6.1-8.3,11.1
			c-0.6,2.7-2.8,4.4-4.5,6.4c-2.5,2.8-4.5,5.8-3.2,9.8c0,1.5,0.1,2.9-0.8,4.2c-6.3,1.7-7,2.7-6.9,9.9
			C220.5,173.4,220.4,173.7,220.1,173.9z"/>
		<path class="st20" d="M9.2,123c1.7,1.6,1.2,3.8,0.9,5.6c-0.8,4.6,1.9,5.8,5.5,6.2c5.3,0.6,10.7,1.6,15.6-1.8
			c-1.4,5.2-5.8,8.7-9.9,9.5c-5.7,1.2-12.1,1.9-18-0.6c0.3-2,0.6-3.9,1-5.9c2.5-3.5,3.9-7.5,4.1-11.8C8.5,123.7,8.8,123.3,9.2,123z"
			/>
		<path class="st21" d="M194,79c-0.7,4.9,2.8,5.8,6.4,7.1c3,1.1,6,2.6,8.3,5.1c0.9,1,2.7,1.8,1.8,3.6c-0.7,1.5-2.1,1.2-3.5,0.9
			c-0.7-0.1-1.5,0.4-2.3,0.6c-3.5-1.2-7.1-2.4-10.6-3.8c-3.1-1.2-5.6-2.9-4.7-7.1c0.3-1.4-0.2-2.9-0.4-4.3c-0.8-1-0.8-2,0-3l0,0
			C191,76.7,192.5,77.7,194,79z"/>
		<path class="st22" d="M31.3,124c-1.4-0.7-1.6-2.7-3.3-3.1c0-2.6,2.1-3.6,3.7-4.9c9.6-7.9,19.3-15.6,28.9-23.5
			c2.4-1.8,4.4-4.2,7.5-4.8c1.1,0.5,1.9,1.3,2.3,2.4c-12.1,10.1-24.2,20.1-36.2,30.2C33,121.3,30.9,121.8,31.3,124z"/>
		<path class="st23" d="M228.1,158.9c-4.4-3.6-0.8-7,1.2-9.2c3.3-3.7,6-7.3,6.9-12.2c0.5-2.7,2.8-4.5,5.3-5.6c4.4-2,6.1-5.3,5.6-9.9
			c0-3.7,0.1-7.3,0.1-11c2.2-2.6,4.5-4,7.3-0.8c0.3,0.8,0.2,1.6-0.3,2.3c-5.9,3.6-4.9,9.8-5.6,15.3c-0.2,1.4,0.5,2.9-0.5,4.2
			c-6.4,4.3-10.9,9.7-13.3,17.3C233.6,152.9,229.4,155,228.1,158.9z"/>
		<path class="st24" d="M70.4,90.1c-1.3-0.1-2.1-0.6-2.2-2.1c-0.5-1.9,0.8-2.6,2.1-3.3c7.5-3.7,15.5-3.9,23.6-3.9
			c5.4,0,10.9,1.2,16.1-0.9c1.1,0.1,2.1,0.4,1.9,1.7c-0.2,1.5-1.4,2-2.8,2.3c-3,0.5-6.2-1-9,1c-5.9,0.9-11.9-0.1-17.8,0.8
			C78,86.5,74.1,87.9,70.4,90.1z"/>
		<path class="st25" d="M191.1,173c-0.5-1.5-1.1-2.9-1.7-4.5c11.1,3,19,11.7,29.8,14.6c-1.3,1.3-2.8,0.8-4.2,0.4
			C206.5,181.2,198.4,178,191.1,173z"/>
		<path class="st26" d="M181,73.3c-1.4-3.2-0.7-6.6-0.8-9.9c1.7-1.4,3.7-0.9,5.6-1c5.7,1.8,4.2,6.5,4.2,10.6c-0.2,0.5-0.5,1-0.9,1.3
			C186.4,73.7,183.5,75.2,181,73.3z"/>
		<path class="st27" d="M187.2,162c-0.1,2.7-0.1,5.3-0.2,8c-2.9-4.1-3.7-8.1-0.8-12.7c3.7-5.7,6.8-11.8,11.9-16.4
			c0.4,0.3,0.6,0.8,0.7,1.2c-0.7,4.6-4.5,7.5-6.5,11.5C190.9,156.5,189,159.2,187.2,162z"/>
		<path class="st28" d="M198.2,142c0-0.4,0-0.8-0.1-1.1c4.9-6.1,10.6-11.6,13.9-18.9c1.2-1.7,1.5-3.8,2.1-5.7
			c0.3-1.2,0.3-2.7,2.3-2.2c0.3,1,0.5,2-0.2,3c-1,3-2,6-3,9c-2.3,5.8-6.7,10.1-11.2,14.3C200.9,141.2,199.9,142.5,198.2,142z"/>
		<path class="st13" d="M248.1,132c0-3.8,0-7.6,0-11.4c0-4.2,1-7.7,5.8-8.6c1.6,2.9,0.9,5.5-0.9,8c-3.6,1.7-3.8,5.1-3.5,8.3
			c0.1,1.4,0.2,2.5-0.4,3.8l-0.5,0.1L248.1,132z"/>
		<path class="st29" d="M220.4,173.1c-2-2.8-2.1-5.6,0.3-8c1.7-1.7,3.5-4.6,6.6-1.9C226.7,167.7,221.8,169.2,220.4,173.1z"/>
		<path class="st30" d="M216.2,117c0-1,0-2-0.1-3c-2.4-2.9-1.8-7.4-5-10c-1.3-1.7-2.5-3.4-3.8-5.1c5.8-0.8,6.8,3.9,8.3,7.6
			c0.4,0.9,0.5,1.4,1.4,1.5C216.8,111.1,218.1,114.2,216.2,117z"/>
		<path class="st31" d="M211.1,104c3.4,2.4,4.9,5.9,5,10c-2.1,2.3-1.3,6-4.1,8C213.6,115.9,214.6,109.8,211.1,104z"/>
		<path class="st32" d="M194,79c-1.6-0.3-3.3-0.6-4.9-1c0-1.2,0-2.5,0-3.7l-0.3-0.2l0.1-0.3c1.4-2.7,0.2-5.6,0.7-8.4
			c0.3-0.5,0.8-0.6,1.3-0.3C190.1,70.1,192.8,74.4,194,79z"/>
		<path class="st11" d="M298.3,133.9c1.3,5,1,10.1,0.7,15.2C297.9,144.1,297.9,139,298.3,133.9z"/>
		<path class="st33" d="M187.2,81.1c-0.5,0.9-0.6,2.9-1.7,2.5c-1.7-0.6-1.4-2.3-0.5-3.7C186.3,79.4,187.2,79.3,187.2,81.1z"/>
		<path class="st34" d="M187.2,81.1c-0.3-1.2-1.2-1.2-2.2-1.2c0.2-3.1,2.5-1.7,4.1-2c0,1,0,2,0,3C188.5,81.1,187.9,81.1,187.2,81.1z
			"/>
		<path class="st35" d="M557,36.2c2.3,2,0.7,4.6,1.1,6.9c-0.1,2.2-1.6,1.8-2.7,1.1c-2.3-1.5-5.1-0.6-7.4-1.9
			c1.7,0.8,4.7,0.1,4.8,2.3c0.1,2.2-3,2.1-4.8,2.7c-3.7,1.4-7.6,1.3-11.4,1.2c-11-0.4-21.9,1.2-32.8,2c-1.6,0-3.2,0-4.9-0.2
			c-10.8-1.5-21.5-1.1-32.3-0.3c-2.4,0.2-4.5,0.3-6.8-0.6c-4.7-1.8-9.4,0.5-14.2-0.1c-8.2-0.9-16.5,0.5-24.8-0.9
			c-3.8-0.9-7.5-0.6-11.3-0.3c-8.9,0.7-17.9,0.6-26.9-0.1c-7.2-0.5-14.5-0.1-21.7,1.5c-2.6-3-2.6-6.5-2.3-10.1
			c0.3-0.5,0.7-0.8,1.3-1c4-0.5,7.8,0.1,11.4,1.6c0.8,2.2,2.7,2.7,4.8,2.7c18.3-0.3,36.5,0.1,54.8,0c2.4,0,4.2-0.8,5.1-3.1
			c5.7-3.4,11.9-1.5,17.8-1.4c1.3,2.3-0.3,4.7-3.7,4.4c-2.8-0.3-5.3,0.3-8,0.4c3.7-0.2,7.5,0.1,11.2-0.1c2.3-0.1,5,0.2,2.7-3.5
			c-0.3-0.5,0.8-0.9,1.3-1.2c10.1-0.7,20.1-0.6,30.2-0.1c2.9,1.3,1.6,2.6-0.1,3.8c-1.2,0.9-2.7,0.4-4.1,0.8
			c4.3,0.3,8.5-0.7,12.7,0.1c3.1,0.5,3.1-3.6,5.8-3.7c1.3,3.8,3.7,5.3,7.8,4.7c2.6-0.4,5.3-0.1,7.9-0.1c3,0.1,5.5-0.4,7.1-3.4
			c1.2-2.4,3.7-2.5,6.1-2.6c6.1,0,12.2,0,18.4,0c2.1,0,4.3,0.1,6.3-0.9C556,36.6,556.5,36.4,557,36.2z"/>
		<path class="st36" d="M279.1,33.1c8.3-0.3,16.6-0.3,24.8-0.1c7.8,0.2,15.7,0.1,23.5,0.3c5.2,0.1,10.8-0.6,15.9-0.1
			c5,0.6,9.8-0.4,14.8,0.1c3,0.3,6.9,1.2,10.1-0.3c2.8-1.3,5.8,0.1,8.4,0.2c6,0.3,12.1-0.4,18.1,0c3.4,0.2,7.3,1.2,11.2-0.2
			c2.4-0.9,6.1-0.4,8.2,0.2c3.7,1.1,7.1-1.6,10.8,0.5c1.4,0.8,5.1,0.3,7.2-0.1c6.1-1.2,12.2-0.3,18.1-0.4s12.1-0.8,18.1,0.3
			c2.7,0.5,6.1,0.3,8.8,0c6.4-0.8,12.6,0.2,18.9-0.4c1.7,1.3,3.3,1,5.1,0c1.4-0.8,3-0.7,3.5,1.3c0.5,1.9-0.3,3.2-2.3,3.7
			c-2.6,0.5-5.3,0.6-7.9,0.5c-33.7-1.2-67.5,0.4-101.2,0c-10.1-0.1-20.3,0.6-30.4-0.4c-1.3-0.1-2.7,0-3.8,0.9l0,0
			c-0.3,0.1-0.6,0.2-0.8,0.4c-0.6-0.1-1.2-0.3-1.7-0.5c-12.3-0.8-24.5-0.3-36.8-0.3c-12.6,0-25.2-0.1-37.8-0.1
			c-2.6,0-5.4,0.1-7.1-2.6C274.8,32.6,276.5,32.1,279.1,33.1z"/>
		<path class="st37" d="M359.1,39.1c0.8-3.3,3.5-1.9,5.4-1.9c44.6-0.1,89.2-0.1,133.8-0.1c1,0,2,0,3,0c1.2,0,2.5,0.1,2.7-1.5
			c0.1-0.6-0.1-1.5-0.4-1.8c-0.9-0.7-1.7-0.1-2.6,0.6c-2,1.5-3.7,1.1-4.7-1.3c2.8-0.2,5.8,0.5,8.1-1.9c0.4-0.9,0.9-1.6,2.1-1.3
			c2.4,1.8,5-0.2,7.4,0.4c1.6,5.4,5.9,4.9,10.1,4.5c1.5-0.1,3-0.4,4.4,0.4c7.3,1.2,14.7,0.2,22.1,0.5c2.3,0.1,4.6,0.1,6.7,1.3
			c-1.4,2.5-3.9,2.2-6.2,2.2c-7,0-14,0.1-20.9,0c-2.3,0-4.2,0.5-4.4,2.9c-0.3,3-2.1,3.2-4.5,3.2c-3.3-0.1-6.6,0-10,0
			c-4.5,0-9.9,1.5-9.8-6c-4,3.5-8,1.5-11.9,0c-11,0-22,0-33,0c-0.3,0.4-0.6,0.4-1,0c-6.3,0.4-12.7-1.1-19,0.9
			c-5,1.7-10.2,0.6-15.2,0.6c-8.6,0-17.2,0-25.8,0.2c-8,0.2-16.1,0.5-24-0.8C367,40.7,363.1,38.9,359.1,39.1z"/>
		<path class="st38" d="M504,49.1c15.9-2.7,32.2-0.3,48.9-4.1c-2.6-1.2-4.3-1.4-6.2-1.1c-1.1,0.2-3.2,0.8-3.2-1.1
			c0-2.1,2.1-1,3.2-1.1c3.2-0.2,6.6-0.8,9.3,2c0.6,0.6,1.5,0,2.1-0.7c3.2,0.2,2.2,4.5,5,5c-0.7,3.4-3.4,2.3-5.4,2.4
			c-3.9,0.1-7.9-0.9-11.1,2.6c-1.3,1.4-3,0-4.6-0.4c-9-2.5-18-3.1-26.9,0.1c-1.5,0.5-1.3,1.7-1,2.9c0.1,0.5,0.2,1,0.2,1.5
			c-0.8,2.1,1.3,5-2,6.3c-1.5-2.2,0.3-4.9-1.1-7c-1-0.1-2-0.1-2.9-0.2c-1.8,1.5-1.2,3.3-1.1,5.3c0.2,3.5,1.5,7.4-1.7,10.4
			c-0.4,0-0.7,0.1-1.1,0.1c-2.7-3.5-0.8-7.6-1.6-11.1c-0.6,3.6,0.9,7.8-1.3,11.5c-1.2,0.8-2.4,0.9-3.7,0.4c-2.7-2.2-1.3-5.2-1.8-7.9
			c-0.4-1.9,1.5-4.3-1.3-5.5c-0.4,0.1-0.7,0.2-1.1,0.2c-0.8,4.3,1.2,9-1.7,13c-0.8,0.2-1.5,0-2-0.6c-1.9-4.3-0.2-8.9-1.2-13.2
			c-0.7-1.1-1.6-0.6-2.5-0.2c-1.1,0.2-2-0.2-3-0.5c-0.6-0.1-1.3-0.2-1.9,0.1c-1.2,3.3-0.3,6.7-0.7,10.1c-0.3,2.8-0.3,2.8-2.7,3.6
			c-0.2-3.9,0-7.8-0.1-11.7c-0.1-0.7-1.1,0-0.4-0.2c0.9,4,0.4,8,0.3,12c-0.6,0.7-1.4,0.8-2.2,0.5c-2.8-3.5-0.9-7.7-1.6-11.4
			c-0.6,3.5,0.8,7.4-1.2,10.9c-0.4,0.3-0.8,0.4-1.3,0.3c-1.1-4-0.1-8.1-0.5-11.5c-0.3,3.3,0.3,7.3-0.3,11.3c-0.6,0.5-1.3,0.6-2,0.4
			c-2.5-2.6-1-5.9-1.5-8.8c-0.3-1.5,1.2-3.6-1.4-4.3c-0.4,0.1-0.7,0.2-1.1,0.1c-0.6,1.7,0.8,3.1,0.8,4.8c0.3,2.7,0.7,5.4-0.6,8
			c-1.5,1.5-2.9,2-4.3-0.1c-1.2-4.7-0.1-9.5-0.7-14.3c0.1-1.8-3.7-1.8-2.1-4.3c3.5-1.4,7.1-0.9,10.7-1c10,1.8,20,0.7,30.1,0.7
			c2.8-0.7,5.7-0.3,8.8-0.7c-0.5-1.6-2.2-1.3-2.9-2.2C503.7,49.9,503.7,49.5,504,49.1z"/>
		<path class="st39" d="M279.1,33.1c-1.6,0.1-3.2,0.3-4.1,2c-2.7,3.8-4.6,1.6-6.5-0.8c-1.3-0.7-2.4,0.4-3.6,0.3
			c-2.1-0.3-1.9-3.4-4.9-3.3c-2.8,0.1-4.2,1.6-5.7,3.3c-1.8,0.1-3.1-1-4.5-1.8c-1.4-1.2-0.6-2.4,0.3-3.2c2.2-1.8,3.1-4.5,4.5-6.8
			c3.3-4.5,8.3-1.2,12.4-2.7c-3.5-1.6-7.4,1.8-10.5-1.3c-1.2-1.2-0.6-2.8-0.2-4.2c0.6-1.5,0.9-3-0.1-4.5c0-1.3,0-2.5,0-3.8
			c-0.8-1.2-2.5-2-2.1-4c0-0.3,0-0.7,0-1c3.5,0.8,7,2,10.6,2.5c4.6,0.7,6.7,3,6.4,7.6c-0.1,2,0.4,4,0,5.9
			C269.4,24.9,274,29.1,279.1,33.1z"/>
		<path class="st40" d="M513,55.1c-3.8-2.2,1.2-2.9,0.7-4.6c3.3,2.2,5.7-1.9,8.5-1.3c7.1,1.4,15-2,21.5,3.1c0.7,0.6,1.8,0.8,2.2,0
			c3-5.2,7.8-3,12-3c1.9,0,3.6,0.1,5-1.3c2.3,2.2,5.7-0.1,8,2c-2.5,2.3-6.4,0.5-8.7,3.2c-0.9,1.3-0.2,3.1-1.2,4.5
			c-5.1,1.9-10.2,3.1-14.9-1c-5.9-1-11.8,0.1-17.7-0.1C523.3,56.3,518.2,56,513,55.1z"/>
		<path class="st41" d="M547.1,57c4.6,1.5,9.2,1.4,13.9,0.1c2.3-1.5,0.7-2.8-0.1-4.2c2.6-3.9,6.6-2.4,10.2-2.8c1.2,0.1,1.8,0.9,2,2
			c0.9,5.9,0.3,6.5-6.5,7.4c-1.5,0.2-3.5-0.2-3.9,2.1c2.1,2.4,5.1,1.1,7.6,1.7c1.2,0.3,2.6-0.2,3.6,0.8c0.2,6.6-0.3,6.5-6.5,4.7
			c-4.5-1.3-9.5-0.7-14.3-1.1c-2-0.2-5.7,2.1-4.2-3.4c0.5-1.9-1.9-4.6-3-7C546.2,56.7,546.7,56.7,547.1,57z"/>
		<path class="st42" d="M527.1,35.2c-3.8,1.9-7.8,0.6-11.8,0.9c-0.8,0.1-2.1-0.2-1.3-1.3c1.7-2.2-1.5-3-1.1-4.8
			c-2.3-1.9-4.5,0.7-6.8,0.2c-0.6,0.3-1.3,0.6-1.9,0.9c-1.2-3.6,2-6.5,1.7-10c6.1-0.2,5.4-5.6,7.2-9.2c1.8,3.1,0.5,6.4,0.7,9.6
			c0.2,2.4,0.5,3.9,3.3,3.5c2.6-0.4,4.4,1,6.1,2.6c0.2,0.2,9.7,5.3,9.9,5.4C531.5,34.7,529.9,36.7,527.1,35.2z"/>
		<path class="st43" d="M605.9,64.2c2.5,1.7,5.7,0.1,8.1,1.8c-0.3,0.1-0.7,0.3-1,0.4c-2.6,1.8-5.4,1-8.2,0.6
			c-5-0.7-9.9-0.8-14.7,1.1c-0.7,1.1-1.5,0.3-2.2,0c-2.5-1.6-5.6,1.7-7.9-1.1c-3.1-0.4-3.1-0.4-3.1-5.2c-0.7-1-0.6-2,0-3
			c3.3-2.1,5.9-3.4,10.4-1.1c3.4,1.8,8.5,0.3,12.8,0.4c2.1,0,4.3-0.5,6.4,0.6c-1.5,2.1-3.8,1.4-5.8,1.7c-3.2,0.3-6.5-0.7-9.6,1
			c-1,0.6-1.9,1.5-2.4,1.2c4.7,0.4,10.2,0,15.8-0.1C605.3,62.8,605.8,63.3,605.9,64.2z"/>
		<path class="st44" d="M513.1,11.9c0,0.8-0.1,1.6-0.1,2.4c-0.1,7.1-0.1,7.1-7.1,6.7c-0.2-3.5-0.4-6.9-0.6-10.4
			c-0.1-1.7-0.8-4.1,1.5-4.7c2-0.5,3.6,1.2,4.8,2.8C512.3,9.7,512.6,10.9,513.1,11.9z"/>
		<path class="st45" d="M527.1,35.2c2.4,0.3,3.6-2.6,6.1-2.2c3.8-0.4,7.7,0,11.5,0c4.1,0,8.9-0.1,12.4,3.2c-0.1,0.2-0.1,0.5-0.2,0.7
			c-8.8,0.1-17.6,0.1-26.4,0.2C529,37.1,527.3,37.4,527.1,35.2z"/>
		<path class="st46" d="M590,61c0.3-2.5,2.3-1.9,3.8-1.9c4.2-0.1,8.5-0.2,12.7-0.3c3.2,0.4,6.4,0.8,9.5,1.2c0.5,1.8-0.8,2.1-2.1,2.3
			c-1.6,1-3.3,0.7-5,0.6c-4-1.3-8.1-0.3-12.1-0.2C594.3,62.8,591.9,63,590,61z"/>
		<path class="st47" d="M561,61.1c0.1-2.7,2.3-2.5,4-2.9c2.7,2.5,6.1-1.4,8.9,0.9c0.1,0.3,0.2,0.7,0.3,1c-0.3,2.4-1.5,3.8-4.1,3.3
			c-2.1-0.3-4.2-0.5-6.3-0.1C561.7,63.5,561.7,62,561,61.1z"/>
		<path class="st48" d="M561,61.1c3.6,1.9,11.2,1.3,13.1-1.1c1.2,0.5,2-0.3,2.8-1.1c0,1,0,2,0,3c-2.5-1.4-3.1-0.2-3,2.1
			c-3.5,1.2-7.1-0.1-10.6,0C561.3,64.1,560.9,62.7,561,61.1z"/>
		<path class="st48" d="M573.8,59c-2.9-0.4-6.2,2.5-8.9-0.9c3.8-0.5,9.1,0.9,8.1-6.1C575,54.2,573.8,56.6,573.8,59z"/>
		<path class="st49" d="M209.1,37c6.3-1.6,12.8,0.3,19.1-0.9c0.4,0.3,0.8,0.5,1.3,0.6c1.9,0.5,3.9,1.8,5.8,1.5c5.3-1,7,2.2,8.5,6.3
			c1.4,4,4.6,4.5,7.5,1.3c4-4.5,5.6-3.9,10.1-0.3c4.1,3.3,6.8,7.2,8.6,11.9c2.1,0.4,4.3,1,6.3-0.3c-0.6-2.3-0.1-5.2-2.9-6.5
			c-1.5-0.2-3,0.4-4.4-0.4c-2.7-4.9,2-11.5,8.6-12c4.1-0.3,8.3-0.2,12.4,0c15.7,0.8,31.4,0,47.1,0c5.3,0,10.6,0.3,15.9,0
			c1.8-0.1,3.7-0.4,5.2,1l0,0c1.1,2.8,0.7,4.9-2.9,5.1c-0.6-0.1,0.2,0.9,0,0.2c4.3-0.7,4.5,2,4.4,5.1c-1.1,1.6-3.4,2-4.2,4.4
			c0.9,1.5,3.6,1,4.4,2.9c0.5,1.2,0.5,2.5,0.6,3.8c-0.1,2.1,0.4,4.4-1.1,6.2c-1.3,1.6-3.3,1.3-5.1,1c-2.3-0.4-3.3-2.2-3.4-4.3
			c-0.3-4.1-0.3-8.2,0.1-12.3c0-0.1-0.2-0.3-0.3-0.3s-0.3,0.1-0.5,0.1c-1.7,0.6-3.5,0.5-5.3,0.4c-6.7-0.6-13.5,0-20.2,0
			c-12.9-0.1-25.8,0.1-38.7,0.1c-0.8,0-1.6-0.2-2.4-0.4c0.3,1.1,1,2.1,0.2,3.3c-0.3,0.6-0.6,1.2-0.8,1.8c-0.6,2.1,0.1,3.4,2.2,4
			c1.2,0.3,2.5,1.1,3.7,0c1.2-1.6,2.5-1.1,3.7-0.1c1,0.5,1.9,0.3,2.7-0.3c1.6-2.2,3-1.8,4.5,0.1c1.3,0.9,3.2,0.1,4.4,1.3
			c0.2,0.5,0.3,1,0.1,1.6c-0.4,0.8-1.1,1.4-1.9,1.4c-7.6,0.3-15.2,1.4-22.7-0.8c-2-1.8-4.3-1.7-7-1.5c-9.8,0.9-19.6,1.1-29-2
			c-3.3-1.1-6.5-2.7-6.6-7.1c0-1.8-1.3-2.1-2.8-2c-2.2-0.4-4.1,0.9-6.3,0.9c-4.6-0.6-9.3,0.7-13.7-1.1c-0.5-0.4-0.6-0.9-0.5-1.5
			c0.5-0.7,1.3-1,2.1-1.2s1.6-0.2,2.5-0.2c2.6-0.1,5.6,0.5,5.2-3.9c-0.3-3.6-1-5.9-5.5-5.5C215.2,38.5,211.8,39.4,209.1,37z"/>
		<path class="st50" d="M78.2,76c0,0.3,0,0.6,0,0.9c-2.6,1.2-5.5,1.6-8.2,1.6c-14.8,0.1-29.6,0.1-44.4,0.1c-1.2,0-2.3-0.2-3.4-0.6
			c-2.1-4.2-0.3-8.7-1-13c-1.3-1.5-1.4-3.3-1.3-5.1c0.1-3.8-0.7-7.9,2.4-11c0.3,0,0.6-0.1,0.9-0.1c0.2,0.2,0.4,0.4,0.7,0.7
			c1.1,2.2,0.7,4.5,0.8,6.8c0.1,6.4,0.9,7.7,7.4,7.9c8.1,0.2,16.2,1.4,24.3,1.3c17.6-0.3,35.1,0.3,52.7,0.9c0.8,0,1.6,0.1,2.4,0.6
			c1.5,6.2-0.1,8.9-6.3,9.3c-7,0.4-14.1,1-21.1-0.5C82.1,75.3,80.1,75.1,78.2,76z"/>
		<path class="st51" d="M23.1,48.8c0.7-1,1.7-0.8,2.7-0.8c15.1,0.1,30.2,0.1,45.3,0.2c2.8,3.1-0.6,2.8-1.9,3.1
			c-6,1.1-12.1,2.1-18.3,2.2c-1.9,0-4-0.5-6.5,1.5c8.3,1.6,15.7,3.4,23.5,1.8c14.3,1.6,28.6,0.5,43,1c1.1,0.9,1.2,2.1,0.7,3.4
			c-1.4,2.3-3.7,2.5-6.1,2.5c-24.1,0.3-48.1-0.9-72.1-2.2c-1.2-0.1-2.3-0.2-3.5-0.4c-5.8-1.1-6.3-1.7-6.3-7.4c0-1.4,0.7-3-0.5-4.3
			C23,49.2,23,49,23.1,48.8z"/>
		<path class="st52" d="M67.2,58.1c-8.3,1.4-16.3,0.2-24.2-2.3c-2.1-0.7-1.2-1.9,0.2-2.7c1.5-0.9,3.1-1.1,4.8-1
			c7.5,0.4,14.7-1.3,22.1-2c1.5-0.1,1.6-0.8,1.1-1.9c9,0,18,0,27,0c3.3,0.9,6.6,0.2,9.9,0.4c0.8,0.1,1.8-0.2,2,0.9
			c0.2,0.9-0.5,1.5-1.2,2c-1.2,0.8-2.5,0.9-3.8,0.9c-12.1,0.4-24.2,1.4-36.3,1.3c-2.8,0-5.4,0.5-8.4,1.1
			C62.6,56.7,66.3,54.3,67.2,58.1z"/>
		<path class="st53" d="M67.2,58.1C65,56.2,62.4,57.6,60,57c-1.4-0.3-3.4-0.4-3.3-2.3c0.1-1.6,1.9-1.5,3.2-1.6
			c6.7-0.9,13.5-0.9,20.3-1c9-0.2,17.9-0.6,26.9-1c0.8,0,1.7-0.1,2.3-1.3c-3.5-1.9-7.8,0.7-11.2-1.6c4.7,0.1,9.5-1.1,14.1,0.7
			c0,0.3,0.1,0.5,0.1,0.8c-0.1,2.8,0.9,5.8-1.2,8.3c-1.8,1.2-3.8,1.1-5.8,1C92.6,58.9,79.9,59.6,67.2,58.1z"/>
		<path class="st54" d="M125.2,50c1,1,2.2,1.3,3.6,1.3c13.8-0.1,27.6,1.4,41.5,0c3.6-0.4,7.2,1.4,10.8-0.2c0.8,2.9,0.8,5.6-0.9,8.2
			c-0.6,0.2-1.2,0-1.6-0.4c-1.8-2.6-4.6-2.3-7.2-2.3c-12.4,0.1-24.8-0.3-37.1-0.1c-2.6,0.1-5.3,0.4-7.8-0.9
			C124.7,54,123.8,52.2,125.2,50z"/>
		<path class="st55" d="M22.2,48.9c-0.4,3.7-0.7,7.4-1.1,11.1c-4.1,1.9-7.6,0.2-11.1-1.6c-1.5-2.6-0.7-5.6-1.7-8.2
			c0.3,2.2,1.2,4.4,0.2,6.7c-4.3-1.3-2.9-4.9-3.3-7.8C10.9,47.9,16.5,47.8,22.2,48.9z"/>
		<path class="st56" d="M179.8,59c0.8-2.6-0.5-5.6,1.3-8c3.9-1.2,8-0.5,12-0.9c1.9,2.2,1.3,4.8,1.3,7.3c0,1.6-0.3,3.2-1,4.7
			c-0.3,0.7-0.8,1.3-1.4,1.9c-0.4,0.4-0.7,0.7-1.1,1.1c-0.3,0-0.6,0-0.9,0c-2-1.7-4.9-3-3.6-6.6c0.6-1.6,2.7-0.9,3.6-2.2
			c-0.9-1.3-2.4-0.2-3.2-1.1c-0.2-0.3-0.2-0.6-0.2-0.9c0-0.1-0.2-0.2-0.3-0.3c1.7,3.3-1.9,5.8-1.4,8.9c-1.5,1.4-3.1,1-4.8,0.5
			c-0.1-0.2-0.2-0.5-0.3-0.7C179,61.6,179,60.3,179.8,59z"/>
		<path class="st57" d="M209.1,37c4.1,0,8.3,0.1,12.4,0.1c2.2,0,4.3,0,3,3.2c-0.1,0.2-0.1,0.3-0.1,0.5c0.2,8.4,0.2,8.4-8.4,8.1
			c-0.3-1.7,1-2.3,2.1-3c3.6-2.2,2.7-4.2-0.2-6.7c0.5,4.7-2.1,4.1-4.8,3.4c-1.1-0.7-1.8-0.5-1.9,0.9c-0.1,1.1-0.3,2.3-1.4,3
			c-0.7,0.2-1.4,0.1-2-0.4C204.9,43.8,205.4,40.2,209.1,37z"/>
		<path class="st58" d="M125.2,50c0.4,1.8,0.8,3.6,1.2,5.3c0.5,0.7,0.8,1.4,0.9,2.2c0.1,1.9,0.2,3.8-1.1,5.4h-0.5l-0.4-0.1
			c-1.9-2.3-4.2-2.5-7-2c-1.9,0.3-4.5,2-5.6-1.4c2.9-3.5,2.9-3.5-0.2-6.8c-0.3-1.3-0.3-2.5,0.7-3.6C117.2,49.5,121.3,48.1,125.2,50z
			"/>
		<path class="st59" d="M207.8,46.1c0.8-0.1,1.7-0.2,2.5-0.3c1.9-0.7-1.6-4.9,2.7-4c1.4,0,2.9,0.5,4.3-0.2c0-1.9-2.3-1.1-2.7-2.5
			c0.3-1.4,1.5-1,2.4-1.1c3.2-0.3,4.5,1.7,5.1,4.3c0.6,2.6-0.8,4.1-3.2,4.6c-1.2,0.3-2.1,0.9-2.8,1.9c-0.6,0.1-1.3,0.1-1.9,0.2
			c-2.6,1.2-4.6,0.3-6-2.1C208.1,46.8,207.9,46.5,207.8,46.1z"/>
		<path class="st60" d="M208.2,47.1c2,0.7,4,1.4,6,2.1c0,0.3,0,0.7,0,1c0,3-1.7,5.3-3.2,7.7c-2,1.5-4.3,3.2-6.5,1
			c-2.5-2.4-3.5-5.5-1.3-8.8C204.9,49.2,208.2,50.9,208.2,47.1z"/>
		<path class="st52" d="M113.4,58.9c2,2.6,4.3,0.8,6.5,0.4c2.9-0.5,5.7-0.8,5.5,3.5c-3.6,2.9-8.2,1.6-12.2,3.1
			c-1.7-1.4-1.8-3.2-1.6-5.3c0.4-3.7-0.3-7.5,0.4-11.3c0.1-0.2,0.2-0.3,0.3-0.5c0.3,0,0.6,0.1,0.9,0.2c0.1,1.3,0.1,2.7,0.2,4
			C114.5,55.1,114.5,57,113.4,58.9z"/>
		<path class="st61" d="M203.1,50.1c0,0.8,0,1.6,0,2.5c0.7,6.6,2,7.3,7.8,4.5c0,2.5,0.5,4.2,3.9,3.9c2.5-0.2,5.4-0.9,7.5,1.4
			c-1,2.5-3.2,1.9-5,2.1c-2.9,0.2-5.8,0-8.7,1.3c-3.1,1.4-3.9-2-5.6-3.6c-1.6-1-0.3-3.4-2.2-4.2c-3-2.4-2.5-5.1-0.8-7.9
			C201.1,50,202.1,50,203.1,50.1z"/>
		<path class="st62" d="M200.1,50c0.3,2.6-0.5,5.4,0.8,7.9c-0.3,0.3-0.7,0.7-1,1c-2.3-0.2-4.4-1.2-6.7-1c0-2.6-0.1-5.2-0.1-7.8
			C195.4,49.6,197.8,49.7,200.1,50z"/>
		<path class="st63" d="M5.2,49.1c2.4,2.1,1.1,5.6,2.9,7.9c1.4,1.3,1.1,2.7,0.1,4l0,0c-3.1,1.9-0.5,5.9-3.1,8
			c-1.6-6.2-0.7-12.7-1.9-18.9C3.6,49.3,4.3,49.1,5.2,49.1z"/>
		<path class="st64" d="M228.2,37c0-0.3-0.1-0.6-0.1-0.9c3.5-1.5,6.6-4.6,11-3.1c0,3.1,1.6,1.6,2.9,0.9c1.7,2.3,1.2,3.8-1.7,4.1
			C236.3,38.3,232.2,38.5,228.2,37z"/>
		<path class="st65" d="M302.1,131.9c0.7-1.1,1.9-1,3-0.9c-4,4.3-1.8,9.5-1.6,14.2c0.7,15.9,4.4,31.4,6.7,47
			c0.5,3.6,1.3,7.2,1.9,10.7c-0.6,0-1.3,0-1.9,0.1c-2.2-13.8-4.6-27.5-6.6-41.3c-0.8-5.5-1.8-11.1-1.5-16.7
			C301.4,140.6,301.3,136.3,302.1,131.9z"/>
		<path class="st66" d="M340.1,125.8c-6.1-1.8-12.3-0.3-18,1.1c-4.7,1.2-9,0-14.8,1.1c4.9-3.9,9.7-3.4,13.8-5c2,0,4,0,6,0
			c3.6,0.9,7-0.2,10.5-0.6c2.2-0.3,4.5-1.1,6.5,0.6c-0.6,0.7-1.3,1.4-1.9,2.2C341.6,125.9,340.9,125.9,340.1,125.8z"/>
		<path class="st67" d="M351.1,50c0-0.2,0-0.4,0.1-0.5c0.2-0.2,0.4-0.3,0.6-0.4c0.1,4.1,0.1,8.2,0.4,12.3c0.2,2.1-1.6,5.2,3.5,5.2
			c5.2,0,2.8-3.1,3.4-5c0.1-0.5,0.1-1,0.1-1.5c2.9,0.6,1.8,3.1,2.3,4.8c1.3,5.4,5.5,3,8.7,3.3c0.5,0,1,0.1,1.5,0.3
			c13.3,0.3,26.6,0.3,39.9-0.3c0.6-0.1,1.1-0.1,1.7,0c10.6,0.7,21.1,0.8,31.7-0.2c2.3-0.2,4.7-0.7,6.9-0.2c2.1,0.5,3.5-0.4,4.7-1.9
			c0.5-0.3,1-0.4,1.5-0.3c2.2,2.8,1.6,6.1,1.1,9c-0.6,3.2,0.3,4.9,3,6.2c-1,3.1-3.8,2.9-6.2,2.9c-25.1,0.1-50.3,0.1-75.4,0
			c-3.7,0-7.4-0.7-11.3-0.1c-3.9,0.6-7.4-0.5-7.2-5.8c0.1-1.4-0.3-3.5-2-3.4c-1.6,0.1-1.8,2.1-1.9,3.6c-0.1,3.2-1.4,5.1-4.9,4.7
			c-0.8-1.3-1.4-2.6-1-4.2c0.7-2.4-1.1-1.7-2.3-1.8c-0.6,0-1.2,0-1.9,0c-1.3-0.7-2.6-1.6-4.2-1.1c-1.7,0.5-2.5-0.4-2.9-1.9
			c-0.8-2.3,0.6-5.1-1.4-7.2c-1.9-0.8-3.9-0.5-5.9-0.5c-17.9,0-35.7,0-53.6,0c-1.4,0-2.8,0-4.2-0.6c-2.4-2.9,0.9-2.5,1.9-3.3
			c0.5-0.2,0.9-0.3,1.4-0.4c7.5,1.5,15.1,0.5,22.7,0.7c1.1,0,1.9-0.3,2.2-1.5c-0.9-1.8,0.5-1.4,1.4-1.4c10.4,0.7,20.8,0.7,31.2,0.7
			c3.1-0.2,5.8,0.8,8.2,2.7c1.7,1.5,0.3,3.8,1.6,5.8c1.9-2.6,1.2-5.6,2-8.2C349.1,57.2,348.9,53.4,351.1,50z"/>
		<path class="st67" d="M468.1,72c0.7,0,1.4-0.1,2.1-0.1c0.2,0,0.4,0,0.6,0c0.4,0,0.7,0.1,1.1,0.1c1.1,0.8,2.1,0.8,3.2,0
			c0.7,0,1.3,0,2,0c0.3-0.4,0.5-0.4,0.8,0c2.4-3.9,0.6-8.2,1.1-12.2c0.2-2-0.2-4.2,3-3.6c2.6,4.2,0.7,9,1.6,13.3
			c2.2-1.3,0.7-3.4,1-5.1c0.4-2.1-0.4-4.3,1.2-6.2c0.2-2.1,1.6-2.2,3.2-2c1.5,5.2-0.5,10.6,1,15.8c0.7,0,1.3,0,2,0
			c1.4-4.2-0.6-8.7,1.2-12.9c0.2-0.1,0.5-0.2,0.7-0.3c2.4,2.8,0.9,6.3,1.5,9.4c0.2,1.3-1.2,3.5,1.7,3.6c1.3,0,2.6,0,3.9,0
			c0.9,1,0.8,2,0.1,3.1c-3.1,4.7-3,5.1,2.6,6.8c-1,1.9-2.8,2.2-4.6,2.2c-9.9,0-19.9,0-29.8,0c-2.4,0-4.1-0.9-5.2-3
			c2.4-1.5,1.3-4.3,2.2-6.3C466.7,73.7,467.1,72.6,468.1,72z"/>
		<path class="st68" d="M547.1,57c-0.4,0.1-0.8,0.1-1.2,0.2c-1.3,0-2.5,0-3.8-0.1c-0.8,0.6-1.7,0.4-2.6,0.3
			c-1.6,0.1-3.8-0.9-4.1,1.9c0.3,3-0.8,6.4,2.1,8.9c0.3,1.4-0.1,2.5-1.5,2.9c-0.9,0.3-1.9,0.6-2.8,0.8c-2.7-3.7-0.8-8-1.5-11.5
			c-0.8,3.5,1.2,7.8-1.6,11.5l-0.5,0.1h-0.5c-1.5-1.9-0.3-4.1-0.4-6.1c0-1.9,0.1-3.8-0.1-5.7c0.1,1.6,0,3.2,0,4.9
			c0.1,2.4-0.5,4.7-0.5,7.1c-0.6,0-1.3-0.1-1.9-0.1c-2.7-3.7-0.8-7.9-1.5-11.5c-0.9,3.5,1.2,7.8-1.6,11.4c-0.4,0-0.7,0-1.1,0
			c-0.7-3.9-0.2-7.8-0.4-11.4c-0.5,3.6,0.7,7.6-0.4,11.5c-2.4,0.2-2.1-1.5-2.1-3c0-3.3,0-6.6-0.1-9.9c0-1.1,0.5-2.5-1.2-2.8
			c-1.6-0.4-1.7,1.2-2.5,2c-1.2-0.2-1.4-1.5-2.2-2c0-0.4,0-0.7,0-1.1c9.7,0,19.4-0.1,29.1,0C544,55.1,546.4,54.1,547.1,57z"/>
		<path class="st10" d="M467,75c-1.2,1.9,3.1,6.5-3,6c-0.7,0-1.4,0-2,0c-3.7,0-7.2,0.6-4.3-5.4c1.3-2.6,0.2-6.4,0.2-9.7
			c-2.2-3-2.5-5.6,1.6-7.2c2,2.4,0.5,5.3,0.9,7.9c0.3,1.8-0.4,3.6,0.4,5.3c1,1.7,2,0.4,3,0c0.3-0.3,0.7-0.4,1.2-0.2
			C466.1,72.6,466.6,73.8,467,75z"/>
		<path class="st69" d="M590.2,68.1c0.6-3.6,3.7-2.5,5.8-2.8c5.7-0.7,11.4,0.8,17.1,1c1.1,0.9,2.3,2.5-0.2,2.5
			C605.3,68.8,597.7,70.1,590.2,68.1z"/>
		<path class="st70" d="M530,71.9c0-4.4,0-8.9,0.1-13.3c0-1.1,0-2.5,1.7-2.3c1.3,0.2,1.2,1.4,1.2,2.3c0,4.4,0,8.9,0,13.3
			c-0.2,1.1,0.3,2.6-1.3,2.8C529.6,74.9,530.2,73.1,530,71.9z"/>
		<path class="st70" d="M522.9,71.9c0-4.4,0-8.9,0.1-13.3c0-1.1,0-2.5,1.8-2.2c1.3,0.2,1.2,1.4,1.2,2.3c0,4.4,0,8.9,0,13.3
			c-0.2,1.1,0.3,2.7-1.3,2.8C522.6,74.9,523.2,73,522.9,71.9z"/>
		<path class="st70" d="M501.1,75c0-1,0-2-0.1-3.1c0-4.3,0-8.7,0.1-13c0-1.1-0.3-2.6,1.5-2.6c1.7,0,1.5,1.5,1.5,2.6
			c0,4.3,0,8.7,0,13C504.2,74,503.4,75.3,501.1,75z"/>
		<path class="st71" d="M535.9,71.1c0.5-0.9,1.2-1.8,0.9-3c-1.7-2.9-1-6.1-1.3-9.2c1.6-2.7,3.3-1.6,5,0c1.8,3.4,3,6.9,1.9,10.7
			c-0.7,2.3-1.9,3.8-4.6,2.6C537.1,72.1,536.3,71.9,535.9,71.1z"/>
		<path class="st72" d="M537.8,72.2c4.8-0.4,3.6-4.2,3.6-7c0-2.1-0.9-4.1-1.5-6.2c-0.7-1-0.8-1.9,0-2.9c0.7,0.3,1.4,0.7,2.2,1
			c3.4,4.3,2.1,9.3,1.5,13.8C543.3,73.1,540.7,75.8,537.8,72.2z"/>
		<path class="st73" d="M513.1,56.1c1.7-0.4,2.1,0.7,2.2,2c-0.1,4.5-0.2,9.1-0.3,13.6c-2,0.8-3.5-0.1-3.2-2.1c0.3-2.2-1-4.5,0.5-6.5
			C513.9,61,512.2,58.4,513.1,56.1z"/>
		<path class="st74" d="M505.2,71.8c0.6-3.9,2.1-7.7,0.1-11.7c-0.9-1.9-0.2-4,2.7-4c0,4.4-0.2,8.8-0.1,13.2
			C508,71.4,507.5,72.4,505.2,71.8z"/>
		<path class="st75" d="M512.1,63.2c0.1,1.8,0.4,3.6,0.2,5.3c-0.2,2.1,0.6,3,2.5,3.3c-0.1,1.1,0.5,2.5-1.1,2.9
			c-1.7,0.4-1.8-1.1-2.1-2.1c-1.6-5.4-0.4-10.9-0.8-16.4C512.9,58.3,511.2,60.9,512.1,63.2z"/>
		<path class="st76" d="M580,67c1.9-0.1,3.9-0.1,5.7-0.5c1.6-0.3,2.1,0.1,2.2,1.5C585.2,68.4,581.8,73.9,580,67z"/>
		<path class="st77" d="M521.1,72c-0.6-4.5,0.4-9.2-0.9-13.6c-0.3-0.9,0-1.8,1.1-1.7c1.2,0.1,0.9,1.1,0.8,1.9
			c-0.1,4.5-0.1,8.9-0.2,13.4l-0.4,0.1L521.1,72z"/>
		<path class="st78" d="M528.9,64.9c0,2.4,0.1,4.7,0.1,7.1l-0.5,0.1H528c-1.7-2.4,0-4.7,0.1-7.1C528.3,64.6,528.6,64.6,528.9,64.9z"
			/>
		<path class="st2" d="M302.1,131.9c0,4.3,0,8.7-0.1,13c-2-4.2-0.4-8.6-0.9-12.9C301.4,132,301.8,132,302.1,131.9z"/>
		<path class="st15" d="M5.1,69.1c0-2,0.2-4,0-6c-0.3-2.8,1.3-2.4,3-2.1c1.9,20.6,0.6,41.3,1,62c0,0.3,0,0.7,0,1
			c-1.9,1.3-3.3,0.3-4.7-0.9c0.9-6.3,0.8-12.6,0.8-19C5.9,97.4,5.8,90.7,5.3,84C5.3,79,5.2,74,5.1,69.1z"/>
		<path class="st18" d="M4.5,123.1c1.6,0.3,3.1,0.6,4.7,0.9c0.2,4.8-0.3,9.3-5,12C4.3,131.7,4.4,127.4,4.5,123.1z"/>
		<path class="st63" d="M5.4,83.9c1.3,6.7,1.4,13.4-0.1,20.1C5.3,97.4,5.4,90.7,5.4,83.9z"/>
		<path class="st37" d="M228.2,37c3.7,0,7.5,0.2,11.2,0c1.6-0.1,4.6,0.4,2.6-3.1c0.4-0.3,0.7-0.6,1.1-0.9c2.4,0.4,4.4,2.1,6.8,2.3
			c4.8,0.5,9.5-1.3,14.3-0.8c2.5,1,3.6-0.7,4.7-2.3c1.3,2.3,2.2,5.6,6,2.8c1.9,2.1,4.3,2.1,6.9,2.1c23.8,0,47.6-0.1,71.4,0
			c1.7,0,4.2-1.2,4.8,2c-10.1,0-20.2-0.3-30.3,0.1c-8,0.3-16,1.5-24,0.7s-15.9-0.5-23.9-0.9c-4.7-0.2-7.7,2.6-10.5,5.6
			c-1.5,1.7-2.1,3.9,0.5,5.5c1.2,0.8,1.2,2,1,3.3c-0.9,1.8-1.2,3.7-1.8,5.6c-1.5-0.1-1.9-0.9-2-2.3c-0.3-3.8-2.2-5.7-5.4-8.4
			c-5-4.2-7-8.2-10.9,0.3c-0.4,0.8-3.7,0.2-5.7,0.4c-3.5,0.4-2-2.3-2.6-3.9c-1.3-3.4-1.9-7.5-7.7-5.7
			C233.1,40.1,230.1,38.8,228.2,37z"/>
		<path class="st79" d="M257.2,14.1c-1.2,4.5,0.5,5.6,4.8,4.6c2.6-0.6,7.2-1.3,7.3,1.2c0.1,3.7-4.2,1.2-6.5,1.7
			c-2.5,0.6-5.5-1.1-7.7,1.5c-1.4,1.8-2.4,3.9-4.5,5c-2.7,1.4-5.3,1.7-7.3-1.1c0.7-5.3-2.3-10.7,0.3-16.1c1.4,0.2,2.6,1.1,3.6,2.2
			c1.2,3.6,3.9,2.8,6.5,2.3C254.9,15.1,255.6,13.4,257.2,14.1z"/>
		<path class="st80" d="M243.3,27c5.4,3,8.3-1.2,11.8-3.9c-0.2,3.8-3.6,5.9-4.9,9.1c0.2,1.2-1.1,2.1-0.8,3.4
			c-0.1,0.2-0.2,0.4-0.3,0.5c-2.3-0.5-5,0.1-6-3C243.2,31,243.2,29,243.3,27z"/>
		<path class="st81" d="M257.2,14.1c-1.9,2.1-4.3,3.5-7.2,2.9c-2-0.4-4.2-1-2.8-4c4,2,7.2,1.5,9-3C257.7,11.1,258.9,12.2,257.2,14.1
			z"/>
		<path class="st82" d="M254,9.7c-0.3,1.6-1.3,2.4-2.8,2.3c-2.5-0.1-1.7-2.7-2.4-4c-0.5-1,1.7-1.3,2.6-1.3
			C253.1,6.8,253.8,8.2,254,9.7z"/>
		<path class="st83" d="M254.1,2.3c0.6,1.4,2.3,2.1,2.1,4c-1-0.5-2.1-0.9-3.1-1.5c-0.7-0.4-2.3,0-1.9-1.5
			C251.6,1.7,253,2.1,254.1,2.3z"/>
		<path class="st84" d="M609.3,61.8c1.5,0.2,3,0.3,4.6,0.5c0.7,1,0.8,1.8-0.8,1.8c-2.4,0-4.8,0-7.2,0c-0.4-0.3-0.7-0.6-1.1-0.9
			C605.5,60,607.8,62.1,609.3,61.8z"/>
		<path class="st12" d="M342,74.9c2.1,0.7,5.7-2.9,6.1,2.2c-0.3,0.6-0.8,1.7-1,1.6c-5.2-1.1-8.9,3.4-13.8,3.4
			c-15.9-0.2-31.8,0-47.7-0.1c-2.2,0-4.4-0.4-6.7-0.2c4.5,2,9.7,0.4,14.2,2.2c1.9,1.1,2.8,2.7,2.6,4.9c-0.3,3.6,0.1,7.3-0.4,10.9
			c-0.3,0.9-1,2.5-1.6,1.9c-2.3-1.9-3.5,0.5-5.1,0.9c-2.1,0.4-3.6-0.2-4.6-2.2c-0.9-2-1.2-4.2-1.1-6.4c0-1.1,0.2-2.1,0.8-3
			c0.4-0.4,0.8-0.5,1.3-0.5c0.4,0.3,0.7,0.7,0.9,1.1c0.8,1.5,0.4,4.1,3,3.7c2-0.3,1.9-2.4,1.9-4.1c-0.1-2.6-1.7-3.3-4-3
			c-0.6,0.1,0.2,0.1-0.5,0.1c-2,0.3-4.2-1.2-6,0.6c-0.4,0.5-0.9,1-1.5,1.2c-3.2,0.2-2.4-3.5-4.4-4.6c-0.9-0.8-1.7-1.6-1.8-2.9
			c0.6-1.8,0.3-2.8-2-3.2c-2.8-0.6-5.9,0.3-8.4-1.7c-15.6,0-31.1,0-47,0c2.2-3.5-2.8-6.7,0-10c1-1.3,2.7-1.1,3.9-1.9
			c2.7-1.6,4.6-3.4,2.2-6.6c-0.3-2.3,0-4.2,2.6-5c2.3,2.6,5.4,3.8,8.5,5c-3.4,6.6-3.1,7.3,4.5,7c11.8-0.4,23.5,1.4,35.3-0.6
			c2.3-0.4,5-0.4,7.3,1c3.4,8.7,3.4,8.7,13,8.7c5.8,0,11.6,0.1,17.5-0.1c0.9-0.1,1.8,0,2.6,0C322.3,75.3,332.2,76.4,342,74.9z"/>
		<path class="st9" d="M294.2,101c-0.6-5.6,1-11.4-1.1-17c3,0,6.1,0,9.2,0c0.4,1.1-0.2,1.6-1.1,2c-1.4,1.9-1.8,3.8-0.9,6.3
			c0.7,2,0.6,4.4,0.3,6.6c-0.4,3.1-1.1,6.2,0.2,9.1c1.8,4-1.1,7.2-1.5,10.8c-3.2,2.2-4.9,0.5-6-2.3c-0.5-1.4-0.5-2.9-0.4-4.4
			c0.1-3.3-1.2-5.1-4.8-4.4c-6.9-0.7-13.8,1.6-20.7,0.6c-1-0.7-1.5-1.6-1.4-2.9c2.1-2.2,4.7-0.8,7-0.8c3.3,0,4.8-1.2,4.8-4.6
			c0.1-3.4-0.9-6.9,1.4-10c0-0.6,0-1.3,0-1.9c2.4-0.2,4,0.9,5,3c0,1,0,2-0.1,3c-2,2.4-1.5,4.4,1,6c0.4,2.5,2.4,1.8,4,2
			c1.3-0.9,2.6-0.7,4,0.1C293.7,102.5,294.6,102.3,294.2,101z"/>
		<path class="st85" d="M301,86c0.4-0.7,0.8-1.3,1.1-2c2.5-0.9,5.1-1.1,7.8-1.1c11.1,0.1,22.3,0,33.4,0.1c1.4,0,3.3-0.5,3.5,1.7
			c0.2,2.6-1.9,2.2-3.5,2.2c-12,0-24,0-36,0c-2.5,0-4.9,0-6.3,2.9C301,88.6,301,87.3,301,86z"/>
		<path class="st81" d="M288,107.1c5.3-2,5.8-1.5,6.1,3.8c0.2,3.3-2.3,8.8,4.9,7.9c0.2,3.2-0.2,4-3.7,3.9c-2.1-0.1-2.6,0.4-2.3,2.2
			c-0.8,2.6-1.6,5.2-5.1,2.8c-0.3-1.3,0.7-2.2,1.2-3.3c1.2-3.3,0.3-6.7,0.6-10C290.4,111.8,287.9,109.8,288,107.1z"/>
		<path class="st86" d="M344.1,123c-4.6-0.5-9,0.8-13.5,1.4c-1.7,0.2-2.8,0.3-3.5-1.4c5.6-1.5,11.3-1.5,16.9-2.2
			c1.4,0.4,3-0.5,4.3,0.6C347.5,123.6,345.5,122.6,344.1,123z"/>
		<path class="st85" d="M346.5,101.1c-2-3.6-1.5-7.3,0-11.1C346.5,93.7,346.5,97.4,346.5,101.1z"/>
		<path class="st87" d="M198.2,142c5.9-4.5,10.2-10.5,15-16c-1.5,8.3-4.4,15.4-12.2,20.3c-4,2.5-7.3,6.4-9.7,10.8
			c-1,1.8-1.9,3.9-4.1,4.8c2.1-6.2,5.7-11.6,9.5-17C197.3,144.1,198.1,143.3,198.2,142z"/>
		<path class="st88" d="M224.2,108.1c1,0,1.9-0.1,2.9-0.1c6.1-3.6,12.3-3.3,18.6-0.7c0.1,0.3,0.3,0.5,0.4,0.8
			C238.8,109.7,231.5,109.6,224.2,108.1z"/>
		<path class="st89" d="M254.2,110c-2.6-1.5-4.7,0.3-7,1c-0.2-1.1,0.1-2.3-1.1-3l0,0c-0.3-1.3,0.3-2.2,1.4-2.8
			c3.1-0.7,6.2-1.4,8.9,1C256.8,108.2,256.5,109.7,254.2,110z"/>
		<path class="st90" d="M247.2,106c-0.3,0.7-0.7,1.3-1,2c-6.3-1.7-12.7-1.3-19-0.1c0.8-1.6,0.1-2-1.5-1.9c-5.4,0.4-7.1-1.5-6-6.9
			c0.3-1.3,0.8-2.6,0.1-3.8c-2.3-4-0.6-6.8,2.4-9.2c1-0.9,1.9-0.9,2.9-0.1c6.3,0,12.6,0.2,19,0c7-0.3,13.1-2.9,18.1-7.9
			c4.5-0.6,8.7,0.8,13.2,1.1c0,1.9-1.9,2.4-2.3,3.8c-2,1.8-4.4,1-6.6,1c-3.7,0-6.6,1-8.8,4.4c-5,7.5-9.1,8.5-17.2,5.3
			c-1.6-1.6-3-4.5-5.1-0.6c-2,0.5-5-3.1-5.8,0.7c-0.6,3.2,3,2.5,5.1,3.1c4.2,1.2,7.6,4.2,12.2,4.8C249.2,102,248.3,104.4,247.2,106z
			"/>
		<path class="st91" d="M222.3,60c1.5,5.8-0.3,7.9-7.2,8.1c-3.6,0.2-7.4,1.8-10.4-2.1c-1-1.2-1.6-2.3-1.6-3.8c1.4-0.1,1.9,1,2.6,1.9
			c0.4,0.5,1,0.9,1.5,1.3c4.1-4.9,10.4,0,14.8-3.3C221.5,61.2,221.6,60.5,222.3,60z"/>
		<path class="st92" d="M193.3,57.9c2.7-2.8,4.7-0.9,6.7,1c0.4,1,0.7,2,1.1,3c-2.9,0.8-5.9,1.4-8.9,0.1
			C192.9,60.8,193.2,59.4,193.3,57.9z"/>
		<path class="st91" d="M202.1,66c0.2,0.3,0.4,0.5,0.6,0.8c-2.4,1.8-8.6,0-9.6-2.7C197.1,61.3,200,61.9,202.1,66z"/>
		<path class="st3" d="M225.1,86c-1,0-2,0-2.9,0.1c-2.1-1.2-2.7-2.9-1.4-4.9c0.9-1.4,2.6-1.6,3.9-0.7C227.1,82,226.1,84.1,225.1,86z
			"/>
		<path class="st61" d="M202.1,66c-2.5-3-5.5-3.5-9-2c-0.3,0-0.7,0-1-0.1c0-0.6,0-1.3,0-1.9c3-0.2,5.9-1.6,8.9-0.1
			C201.8,63.2,202.2,64.5,202.1,66z"/>
		<path class="st93" d="M61.3,93.2c-9.7,7.9-19.3,15.8-29,23.8c-1.5,1.2-2.9,2.6-4.4,3.9c-0.9,0.6-1.8,1.8-2.9,0.2
			c-0.4-2.7,1.8-3.8,3.3-5.1c9.3-7.6,18.5-15.4,27.9-22.9c1.2-0.9,2.5-1.7,4.1-1.5C61.1,91.8,61.6,92.2,61.3,93.2z"/>
		<path class="st94" d="M60.1,91.9c-12.2,9-24.2,18.4-35,29.2c-1.4-1.1-2.9-2-2.8-4.1c2.1,2.2,3.2-0.2,4.4-1.1
			c11.2-9,22.3-18,33.4-27c0.7,0.2,1.1,0.6,1.4,1.2C61.6,91.1,61,91.6,60.1,91.9z"/>
		<path class="st95" d="M10.2,58c3.6,0.7,7.3,1.3,10.9,2c0,1.7,0,3.3,0,5c-3.6-0.7-7.3-1.3-10.9-2c0-0.7,0-1.3,0-2
			C9.4,60,9.3,59,10.2,58z"/>
		<path class="st96" d="M126.2,63c0-2,0.1-4,0.1-6c15.1,0.7,30.2,0.3,45.2,0.7c2.4,0.1,5-0.5,7.2,1.2c0.3,0.1,0.7,0.1,1,0.2
			c0,1.2,0.1,2.5,0.1,3.7c-2.7,2.3-5.8,0.4-8.6,0.5C156.3,63.3,141.3,63.1,126.2,63z"/>
		<path class="st50" d="M112,49.4c0.2,5.5-0.2,11.1,1.2,16.6c0,1.3,0,2.6,0,4c-0.5,2.3,1,4.9-1.1,6.9c-1.2-1.2-0.8-2.6-0.6-4.1
			c0.5-2.9,0.4-5.8-1.1-8.5c-0.3-1.2,0.1-2.3,0.7-3.4c0-1,0-2,0-3C111.8,55.2,110.4,52.2,112,49.4z"/>
		<path class="st97" d="M111.2,64.1c2,4.2,0.6,8.6,0.9,12.9c-4.4,2.2-9.1,0.5-13.6,1.1c-6.9,0.9-13.5-1.3-20.3-2
			c2.2-1.9,4.8-0.9,7.1-0.9c5.9-0.2,11.9,0,17.9-0.1c7.1-0.1,8-1.1,8-8C110.3,66,110.3,65,111.2,64.1z"/>
		<path class="st98" d="M110.1,80.1c-0.6,3.1-3.1,1.8-4.9,1.9c-8.7,0.6-17.6-1-26.2,1c-3,0.7-5.9,2-8.8,3.1
			c-0.5-0.5-1.2-0.3-1.8-0.6c-0.1-0.2-0.3-0.4-0.4-0.5c5.2-3,10.9-4.7,16.9-4.8C93.3,79.9,101.7,80.1,110.1,80.1z"/>
		<path class="st99" d="M61.2,90.1c-0.4-0.4-0.8-0.9-1.2-1.3c1.9-1.8,3.7-3.7,6.1-4.8c0.4,0.8,1,1,1.9,0.9l0.3,0.3
			C66.9,88.1,64.6,89.9,61.2,90.1z"/>
		<path class="st15" d="M10.2,58c0,1,0,2-0.1,3.1c-0.7,0-1.3,0-2,0c0-1.3-0.1-2.7-0.1-4c0-2.3,0-4.5,0-6.8c0.3,0,0.6-0.1,0.9-0.1
			C9.4,52.7,9.8,55.4,10.2,58z"/>
		<path class="st100" d="M61.2,90.1c2.4-1.6,4.7-3.3,7.1-4.9c0.8-0.1,1.5,0.1,1.9,0.9c-0.7,0.7-1.4,1.3-2,2
			c-2.3,1.7-4.6,3.4-6.9,5.1c-0.4-0.4-0.8-0.9-1.2-1.3C60.5,91.3,60.9,90.7,61.2,90.1z"/>
		<path class="st16" d="M185.1,62.9c-0.2-1.1-2.4-2-0.9-3.3c2.5-2.1,1.8-5,2-7.8c1.3,1.1,0.7,2.4,1,3.4c0.7,0.9,0.8,1.8,0,2.7
			c-1.4,3.4,2.8,4.4,2.9,7.2c-0.5,2.9,1.2,6.1-1.2,8.7C189.2,69.6,190.3,65.1,185.1,62.9z"/>
		<path class="st101" d="M413,69.2c-0.3-0.1-0.6-0.1-1-0.2c-5.7-2.8-11.8-0.6-17.7-1.5c-2.9-0.4-6-0.1-9,0c-1.9,0.1-3.7-0.1-4.8-1.9
			c-1.4-1.3-3.2-1.3-5-1.4c-3.1-0.1-4,1.4-3.3,4.2c-0.5,1.2-1.3,1.3-2.3,0.7h-0.1c-1.2-1.2-2.9-0.8-4.3-1.6
			c-3.5-0.6-5.3-2.3-5.3-6.3c0-4.1-3.1-8-0.3-12.2c1.9-1.5,4-1.9,6.4-2.1c13-1,26,0.6,39,0.1c5.2-0.2,10.4-1.9,15.6,0
			c-1.1,3.8-4.6,1.5-6.7,2.7c-0.5,0.1-1.1,0.1-1.6,0c-0.3,0-0.5-0.1-0.8-0.2c-14.8-0.4-29.5-0.1-44.3-0.1c-3.7,0-5.8,1.4-4.3,5.5
			c2.3,1.5,4.5,0.1,6.7-0.4c0.5,0,1,0,1.4,0.2c0.4,0.3,0.8,0.6,1.1,1c1.6,1.7,3.6,1.4,5.6,1.2c3.8-0.4,7.6-0.5,11.4,0.2
			c8.8,1.6,17.5-0.9,26.3-0.9c2.6,0,5.4-0.1,7.9,0.4c5.1,1.1,10.3-0.4,15.2,1.2c0.5,4.2-0.7,6.2-4.2,5.7c-3.3-0.5-5.4,0.7-7.5,2.8
			c-1.6,0.7-2.7-0.4-3.9-1.1c-6.2-1.9-7.6-1.5-8.8,2.9C414.3,68.9,414,69.5,413,69.2z"/>
		<path class="st102" d="M371.1,40.1c5.8-0.8,11.7-1.5,17.6-0.3c1.3,0.3,2.6,0.1,3.9,0c14.5-1,29-1,43.5,0.3
			c1.6,3.1,0.6,4.2-2.7,4.1c-15.4-0.7-30.8,0.7-46.2-0.6c-4.5-0.4-9.2,0.5-13.8,0.6C369.8,44.2,369.7,42.6,371.1,40.1z"/>
		<path class="st38" d="M414,48.9c2-2,5.1,0.3,7-1.9c10.1,1.4,20.3,0.5,30.4,0.8c14.4,0.5,28.9,0.2,43.3,0.1c1.5,0,2.9,0.3,4.3,1.1
			c-0.1,1.9-1.6,2.1-2.8,2.1c-9.4,0-18.6,3.5-28.1,1.2c-3.6-1.4-7.4,0.5-11-1c-0.9-1.6,0.1-1.7,0.3-1.7c-2.1,0.5-4.5,4.1-8.1,2.1
			c-6.7-1.6-13.5-1.5-20.4-1.5c-1.7,0-2.8,0.5-3,2.4c-0.1,1.6-0.8,2.8-2.5,3.3c-2.4,0.7-4.8-0.3-7.2,0.1c-1.1-0.1-2-0.4-2.5-1.5
			c1.2-2.5,3.7-1.5,5.6-1.9c1-0.2,2.7,0,1.2-1.8C418.6,49.8,415.8,51.2,414,48.9z"/>
		<path class="st103" d="M468,52.1c1.3-1.6,3-1.3,4.6-1c9,1.6,17.7-1.3,26.6-2c1.6,0,3.3,0,4.9,0c0,0.3,0,0.7,0,1
			c-1.4,1.6-3.9,1.7-4.9,3.8c-0.8,1.4-2.2,1.2-3.5,1.2c-8,0-16,0-23.9-0.1c-1.6,0-3.4,0.3-3.8-2.1c-0.2-0.2-0.3-0.4-0.2-0.6
			C467.8,52.2,467.9,52.1,468,52.1z"/>
		<path class="st104" d="M489.1,39.1c4-1,8,1.6,11.9,0c0.2,3.8-1.7,5.6-5.4,4.9c-4.1-0.7-8.1,0.3-12.2,0c-1.4-0.1-3.4,0.4-3.1-2
			c0.3-2,1.8-2,3.4-1.2C486.1,42.2,487.8,41.2,489.1,39.1z"/>
		<path class="st102" d="M455.1,39.1c0.3,0,0.7,0,1,0c0.4,1.8,4.3-0.2,3.4,3c-0.7,2.3-2.7,2-4.5,2c-3.8,0-7.6,0-11.4,0
			c-1.3,0-2.7,0.1-3.7-0.9c-0.6-0.5-1.4-1.1-1-2c0.4-0.8,1.2-0.8,2.1-0.6C445.7,41.3,450.6,42.3,455.1,39.1z"/>
		<path class="st37" d="M360.1,49.1c0.1,3.1,0.2,6.3,0.3,9.4c0.2,4.5,1.9,7.7,6.7,8.5c-2.8,3.2-4.9,0.9-7-1c-0.4-2,0.8-4.1-0.9-5.9
			c-0.1-1.4-0.2-2.8-0.2-4.2c-1.4-1.9-1.4-3.8,0-5.7c-0.2-5.4-1-5.9-6.7-4.1c-0.7-4.5,8-1.3,5.8-7c0.3,0,0.6,0,1,0
			C358.8,42.5,361.6,45.5,360.1,49.1z"/>
		<path class="st97" d="M506.1,30.2c1.8-1.6,3.8-2.9,6.4-2c1.3,0.4,0.5,1.2,0.3,1.8C510.7,32.6,508.5,33.4,506.1,30.2z"/>
		<path class="st105" d="M467,75c-2-0.1-2-1.5-2-3c-0.5-4.4-1.2-8.8-0.1-13.2c0.1-1.1-0.2-2.5,1.5-2.6c1.8-0.1,1.5,1.3,1.6,2.4
			c0.1,4.4,0.1,8.9,0.1,13.3C468,73.1,468.2,74.3,467,75z"/>
		<path class="st45" d="M497.1,71.9c-0.2,1.2,0.2,3.1-1.8,2.8c-1.5-0.2-1.2-1.8-1.2-2.9c-0.1-4.3-0.1-8.6-0.1-12.9
			c0.2-1.1-0.2-2.5,1.5-2.6s1.6,1.3,1.6,2.4C497.1,63.1,497.1,67.5,497.1,71.9z"/>
		<path class="st70" d="M475.1,71.9c-0.2,1.1,0.2,2.9-1.6,2.9c-1.8,0-1.4-1.7-1.6-2.9c0-4.5,0.1-9,0.2-13.5c0-1,0.1-2.2,1.5-2.1
			c1.3,0,1.5,1.1,1.5,2.1C475.1,62.9,475.1,67.4,475.1,71.9z"/>
		<path class="st106" d="M450.1,51.1c3.4,1.3,5.7-2.8,9.1-1.8c-0.8,0.6-1.5,1.1-2.2,1.7c0.3,1.1,0.2,2.2,0,3.2
			c0.9,1.6,3.3,0.3,4,2.1c-0.7,0.5-1.4,0.8-2.2,0.9c-2.7,0.4-5.2-0.5-7.8-1.1C447.1,53.5,446.9,52.7,450.1,51.1z"/>
		<path class="st107" d="M499.1,53.9c-0.9-4.6,2.8-3.1,4.9-3.8c2,0.6,5.7-1.1,5.7,2.2c0,3.4-3.6,1.6-5.6,1.9
			C502.5,54.4,500.8,54,499.1,53.9z"/>
		<path class="st74" d="M485.9,58.2c0.1,3.7,0,7.4,0.2,11.1c0.1,2.1-0.6,3-2.7,2.8c-1.3-5-0.7-10-0.3-15
			C484,57.4,484.9,57.8,485.9,58.2z"/>
		<path class="st108" d="M457,54.2c-1.1-1.1-1.4-2.2,0-3.2c3.6,0.5,7.7-2.4,11,1.2c0,0.3,0,0.5,0,0.8
			C464.5,55.4,460.6,53.6,457,54.2z"/>
		<path class="st109" d="M483.1,57.1c0.1,5,0.2,10,0.3,15c-2.6-3.3-0.8-7.1-1.3-10.7c-0.2-1.8-0.1-3.6-0.1-5.3
			C482.4,56.4,482.7,56.8,483.1,57.1z"/>
		<path class="st110" d="M493.3,59.2c-1.1,4.2,1.3,8.8-1.2,12.9c-0.8-4.7,1-9.5-1-14.1c-0.2-0.5,0.1-1.5,0.9-1.4
			C493.8,56.6,492.8,58.2,493.3,59.2z"/>
		<path class="st67" d="M459.2,56.2c0.6,0,1.2,0.1,1.8,0.1c0,5.2-0.1,10.5-0.1,15.7c-1.8-2.3-0.5-5-0.9-7.5c-0.3-1.8,0.7-4-1.1-5.5
			c-0.5-0.5-0.6-1.1-0.5-1.8C458.5,56.7,458.8,56.4,459.2,56.2z"/>
		<path class="st111" d="M470.8,71.8l-0.3,0.1h-0.3c-0.7-4.5,0.6-9.2-1-13.7c-0.1-0.4,0.3-1.5,0.7-1.6c1.1-0.3,1.3,0.6,1.3,1.5
			C471.1,62.6,471,67.2,470.8,71.8z"/>
		<path class="st112" d="M490,72c-2.1-5.2-0.4-10.6-1-15.8C491.2,61.4,489.3,66.8,490,72z"/>
		<path class="st113" d="M498.8,69.3c0-4.3,0-8.5,0-12.8c0.3,0,0.5,0,0.8-0.1c0,4.3,0,8.6,0,12.9C499.4,69.3,499.1,69.3,498.8,69.3z
			"/>
		<path class="st114" d="M477.9,71.9h-0.4l-0.4-0.1c0-4.4,0-8.8,0-13.1c0.3,0,0.5,0,0.8,0C477.9,63.1,477.9,67.5,477.9,71.9z"/>
		<path class="st67" d="M464.9,58.9c0,4.4,0.1,8.8,0.1,13.2c-0.4,0-0.7,0-1.1,0c0-3,0-6.1,0-9.1c-0.4-1.3-0.8-2.6,0.3-3.7
			C464.4,59,464.7,58.9,464.9,58.9z"/>
		<path class="st115" d="M464.2,59.1c-0.1,1.2-0.2,2.5-0.3,3.7c-1.5-0.9-0.8-2.7-1.6-4c-0.6-0.8-0.7-2.3,0.5-2.4
			C464.6,56.4,463.8,58.2,464.2,59.1z"/>
		<path class="st116" d="M265,35c-5.3,0.8-10.5,2.4-15.9,1.1l0,0c1.2-1.5,3.1-1.3,4.7-1.9c0.1-5.6,5.1-3.9,7.9-4.7
			c2.3-0.7,1.7,3.5,3.5,4.6C265.4,34.5,265.4,34.8,265,35z"/>
		<path class="st36" d="M253.8,34.2c-0.9,2.2-2.9,1.9-4.7,1.9c-2-2-0.9-3.1,1.1-4C252,31.9,252.8,33.2,253.8,34.2z"/>
		<path class="st117" d="M265,35c0.1-0.3,0.2-0.6,0.2-0.9c0.9-1.4,1.9-2.5,3.8-1.9C269.4,35.5,268.6,37.2,265,35z"/>
		<path class="st118" d="M553.3,53.3c-1.4-0.4-4,0.8-3.9-1.6c0.1-2,2.6-1.5,4.1-1.5c1.4,0,3.6-0.6,3.7,1.4
			C557.2,54,554.7,52.9,553.3,53.3z"/>
		<path class="st26" d="M560.9,52.9c1.5,0.2,3.2,0.2,3,2.4c-0.1,1.9-1.6,1.8-2.9,1.8C561.2,55.7,559.2,54.3,560.9,52.9z"/>
		<path class="st119" d="M609.3,61.8c-1.5,0.4-3.4-0.3-4.5,1.4c-6.1,1.1-12.1,1.1-19.3,0.1c2.3-1.2,3.4-1.8,4.5-2.4
			c4.8,1.3,9.7,0.2,14.5,0.3C606.2,61.3,607.8,61,609.3,61.8z"/>
		<path class="st45" d="M279.2,67.1c-14.8,1.5-29.7,1-44.5,0.9c-2.3,0-5,1.1-6.5-2.1c-1.7-3.6,1.9-3.9,3.1-5.7
			c0.3-0.4,0.5-0.9,0.7-1.3c-1.4-1.9-3.7-3.3-3.8-6c0.1-0.8,0.3-1.5,1-1.9c1.3-2,2.9-2.4,4.9-1c1.4,1.2,1.5,2.9,1.4,4.5
			c-0.2,3.5,1.3,5.5,4.6,6.4c9.8,1.7,19.4,4,29.5,2.8c2-0.2,4-0.4,5.6,1.2c1.3,0,2.7,0,4,0c0.3,0.2,0.5,0.6,0.6,1
			C279.6,66.4,279.5,66.8,279.2,67.1z"/>
		<path class="st120" d="M282.9,54c1.2-1.3,0.5-2-0.7-2.7c0.4-0.3,0.6-0.8,1.2-0.7c18.9,0.1,37.8-0.5,56.7,0.2
			c1.3,1,1.9,2.4-0.3,2.5c-1.6,0.1-2.1,1.6-3.4,1.8c-16.5,0.6-32.9,0.2-49.4,0.2C285.6,55.4,284,55.3,282.9,54z"/>
		<path class="st121" d="M229.2,51.1c-0.1,0.6-0.2,1.2-0.3,1.8c-0.8,2.8-3.1,1.6-4.9,1.9c-1.9,1.3-1.9,3.1-1.7,5.1
			c-0.1,0.7-0.2,1.3-0.3,2c-4.4,0-8.9,0-13.3,0c-0.6-2.6,2.2-3.1,2.3-5c0.2-2.7,1.5-4.9,3.2-6.8C219.2,50.6,224.3,48.7,229.2,51.1z"
			/>
		<path class="st122" d="M239.1,62c-4.6-0.2-5.3-3.2-5.1-7c0.1-1.6,0.1-3.3,0.1-4.9c3.2-1.8,5.7-2.2,4.6,2.9
			c-0.9,3.9,3.2,5.2,4.6,5.5c10.4,2.5,21,3.5,31.7,1.6c1.6-0.3,3.9-0.8,4.2,2c-0.1,0.2-0.2,0.4-0.2,0.6c-8.9,1.9-17.8,2-26.8,0.5
			C247.9,62.6,243.5,63.1,239.1,62z"/>
		<path class="st123" d="M336.9,61.9c-9.6,0-19.2-0.1-28.8-0.1c-1.3,0-2.6-0.2-3.9-0.4c-0.3-0.2-0.7-0.3-1-0.5
			c-1.1-1.1-1.3-2.4-1.2-3.9c0.1-0.8,0.4-1.6,1.1-2.2c7-0.5,14-0.3,21-0.1c0.6,2.8-2.9,1.8-3.4,4c5.1,2.4,11-0.5,16.2,1.8
			C337.3,61,337.3,61.4,336.9,61.9z"/>
		<path class="st124" d="M341.1,52.1c-1.1-0.3-2.2-1-3.3-1c-18.5,0-37,0.2-55.5,0.3c-0.5,0-1,0.1-1.5,0c-0.7-0.2-0.5-0.9-0.1-1
			c1.3-0.2,2.6-0.4,3.9-0.4c16.9,0,33.8,0,50.7,0.1c3.3,0,6.5-1.6,9.8,0c2.4,3.6,1.4,7.6,1.1,11.5c-0.2,0.6-0.4,1.1-0.8,1.6
			c-2.8,1.1-3-1.2-3.4-2.8C341.4,57.6,341.2,54.8,341.1,52.1z"/>
		<path class="st125" d="M303.1,55.1c0,0.6,0,1.3,0,1.9c-0.5,2.2-2.5,2.8-4.1,3.8c-1.1-2-2-0.8-2.9,0.1c-1.3-2.1-2.7-0.9-4.1-0.1
			c-0.6,0.9-1.4-2-2,0.1c-1.7-1.2-3.3-1.2-5-0.1c-3.9-0.3-4.8-1.9-2.9-5.6C289.1,53.9,296.1,54.4,303.1,55.1z"/>
		<path class="st126" d="M345.2,62.3c-0.1-4.1-0.1-8.1-0.2-12.2c2,0,4,0,6-0.1c-0.3,4-0.7,8-1,12C348.5,63.1,346.9,63.6,345.2,62.3z
			"/>
		<path class="st127" d="M303.1,55.1c-7-0.3-14-0.7-20.9,0.2c0.3-0.4,0.5-0.9,0.8-1.3c18.5,0,37.1-0.1,55.6-0.1
			c1.1,1.2-0.1,1.5-0.8,2c-4.6,0.7-9.3,1.6-13.7-0.9C317.1,55.1,310.1,55.1,303.1,55.1z"/>
		<path class="st128" d="M269.1,59c-1.2-2.1-1.5-3.9,1.2-5.1c1.2-0.9,2.2-0.2,3.2,0.3c1.7,1,3.3,2.3,4.7,3.7
			C275.3,60.1,272.1,58.6,269.1,59z"/>
		<path class="st129" d="M359,50.2c0,1.9,0,3.8,0,5.7c-2,0.1-5.2,1.1-5.4-1.3C353.4,52.1,355.7,49.9,359,50.2z"/>
		<path class="st130" d="M278.1,58c-2.2-0.1-3.4-1.9-5-2.9c-1.2-2.2-0.5-4.1,1.2-5.8C277.4,51.4,276.3,55.4,278.1,58z"/>
		<path class="st131" d="M274.2,49.3c-0.4,1.9-0.8,3.9-1.2,5.8c-0.9-0.4-1.9-0.8-2.8-1.2c-0.1-1.3-0.2-2.6-0.3-3.8
			C271.2,48.6,272.8,49.2,274.2,49.3z"/>
		<path class="st132" d="M285.1,60.9c-1.2-3.4,2.2-2.1,3.2-2.5c1.6-0.6,0.3,2.3,1.8,2.6C288.4,62.3,286.7,61.9,285.1,60.9z"/>
		<path class="st132" d="M292,60.9c0.3-1.2-0.6-3.2,1.8-2.8c1.4,0.2,2.9,0.8,2.3,2.9C294.7,61.6,293.4,62,292,60.9z"/>
		<path class="st133" d="M299,60.9c-0.9-3.6,3.4-1.8,4.1-3.8c0,1.3,0,2.6,0.1,3.8C301.8,61.5,300.4,62.3,299,60.9z"/>
		<path class="st134" d="M111.2,64.1c0,1,0,2,0,3c-4.1,2-8.6,1.3-12.7,0.9c-15.4-1.8-30.8,0.1-46.1-1c-8.4-0.6-16.8-0.2-25.1-1.7
			c-3.4-0.6-4-2.1-4-5c0.1-3.6,0-7.3,0-10.9c3.5,0.3,1,2.5,1,3.6c-0.1,3.4,0,5.8,4.6,6.4c7.8,1,15.7,1,23.6,1.7
			c16.7,1.4,33.4,1,50.2,1c2.9,0,6,1.3,8.6-1C111.1,62,111.2,63.1,111.2,64.1z"/>
		<path class="st135" d="M92,57.1c-4.6-0.2-9.3,0.5-13.9-1c-1.2-0.4-3.6,0.8-3.3-1.6c0.2-1.8,2.4-1.4,3.8-1.4
			c7.7-0.1,15.3-0.1,23-0.1c1.3,0,2.7-0.1,4,0c1.6,0.2,4.2-0.9,4.3,1.9c0.2,2.9-2.4,2.1-4.1,2.1C101.3,57.2,96.7,57.1,92,57.1z"/>
		<path class="st136" d="M178.8,58.9c-13.7,0-27.3,0.5-41-0.5c-2.3-0.2-4.6,0.4-6.8,0.7c-2,0.2-3.6-0.2-4.6-2.1
			c0-0.5,0.1-1.1,0.1-1.6c16.6-0.9,33.2,0.1,49.8-0.4C179.3,54.8,179.5,56.6,178.8,58.9z"/>
		<path class="st137" d="M187.3,57.9c0-0.9,0-1.8,0-2.7c1.5,0.6,2.4-2.7,4.1-0.6c0.6,0.8,0.7,1.7,0.2,2.7
			C190.3,59.7,188.6,57.5,187.3,57.9z"/>
		<path class="st100" d="M183.4,57.8c-1.6,0.2-2.1-0.5-2.2-1.7c0-1.1,0.3-2,1.6-1.9c1.1,0,1.9,0.6,2.1,1.7
			C185,57.2,184,57.5,183.4,57.8z"/>
		<path class="st138" d="M213,41.9c-1.2,0.4-1.9,0.9-1.3,2.4c0.6,1.4-0.4,1.6-1.4,1.6c-0.1-1.3-0.2-2.5-0.2-3.8c0-1-0.4-2.6,1.2-2.6
			C212.7,39.4,212.9,40.7,213,41.9z"/>
		<path class="st139" d="M113.4,58.9c-0.5-1.9-0.4-3.8,0-5.7c0.8,0.3,1.5,0.7,2.3,0.9c1.2,0.3,2.3,0.8,2.3,2.2
			c0.1,2.1-1.6,1.6-2.8,2C114.6,58.4,114,58.7,113.4,58.9z"/>
		<path class="st139" d="M121.5,53.5c1.3,0.4,2.5,0.6,2.5,2.1c0,1.1-0.6,2-1.8,1.7c-1-0.2-2.6,0.1-2.7-1.5
			C119.5,54.6,120.7,54.1,121.5,53.5z"/>
		<path class="st140" d="M459,57c0,0.7-0.1,1.3-0.1,2c-1.3,2.2-1.4,4.5-0.9,6.9c-0.3,0.1-0.6,0.1-0.9,0.2c-0.9,1.3-2.1,2.2-3.7,2.1
			c-7.7-0.5-15.5-0.5-23.2-0.8c-1.2,0-2.3-0.4-3.1-1.3c1.6-2.9,2.9-5.9,7.3-3.5c3.2,1.7,3.6-1.7,4.7-3.5c2.4-3.2,6.3-1.8,9.3-2.9
			c0.5,0.1,0.9,0.2,1.4,0.3C452.8,57.1,455.9,57,459,57z"/>
		<path class="st141" d="M370.1,69.1c0.8-0.1,1.6-0.2,2-1.1c2.7-2.1,6.9-0.9,9.1-4.1c0.9,1.6,1.8,2.3,4,2.2c7.5-0.4,15-0.1,22.6-0.2
			c2.2,0,4,0.3,4.3,3c-0.8,1.1-2,1.1-3.1,1.1c-11.9,0-23.8,0-35.7,0C372.1,70.1,370.9,70.1,370.1,69.1z"/>
		<path class="st141" d="M427,66c8.4,0,16.9-0.1,25.3,1c1.7,0.2,3.3-0.2,4.8-0.9c-0.5,2.8-1.5,3.6-5,3.4c-7-0.5-14.1,0.7-21.1,0.6
			c-6-0.1-12.1,1-18-0.9c0.3-0.4,0.7-0.8,1-1.1c3-2.3,7.5-0.5,10-4C425.1,64.6,425.5,66.3,427,66z"/>
		<path class="st142" d="M342,74.9c-1.6,1.6-3.5,2.2-5.8,2.2c-8-0.1-16.1,0-24.1,0c-0.5-1.5,1.5-2.2,1.2-3.6s0-3.2-1.8-3.8
			c-1.9-0.5-2.1,1.2-2.6,2.3c-0.5,1.2-1.4,1.9-2.8,1.4c-0.4-0.3-0.7-0.7-0.9-1.2c-0.5-2.2-0.9-4.5,1-6.3c3.1-0.4,6.2-0.1,9.4-0.1
			c2.9,1.6,1,5.7,3.8,7.3c5.8,1.6,11.6,0.5,17.4,0.6c3.7-1.4,0.9-5.7,3.3-7.7c0.8-0.3,1.5-0.4,2.1,0.4C342,69.1,342,72,342,74.9z"/>
		<path class="st143" d="M239.1,62c13.3-0.1,26.6,2,39.9,0.9c-0.6,1.9-3.1,0.6-3.9,2.2c-11.4,1.6-22.6-0.6-33.8-2
			C240.4,62.9,239.6,62.7,239.1,62z"/>
		<path class="st12" d="M316.1,66.1c-3.3-0.6-6.6-0.3-10,0c-0.7,0.6-1.5,1-2.5,1.2c-6.7,0.5-13.3,0.3-20,0.2c-1.5-0.1-3.1,0-4.3-1.1
			c-0.1-0.4-0.2-0.9-0.2-1.3c19.3,0,38.6,0,57.9,0c1.7,0,3.7-0.8,5,1.2c-0.6,0-1.3-0.1-1.9-0.1c-0.8,0.6-1.6,1-2.6,1.2
			c-5.6,0.6-11.2,0.2-16.8,0.2C319.1,67.5,317.4,67.3,316.1,66.1z"/>
		<path class="st10" d="M417.4,77c1,0,1.5,0,2,0c1.7,0.2,4.2-0.5,4.1,2.1c-0.1,2.5-2.6,1.7-4.3,1.9c-0.5,0-1,0.1-1.5,0
			c-1.9-0.3-5.1,0.9-5.1-2.1C412.8,75.9,416.1,77.6,417.4,77z"/>
		<path class="st10" d="M376.5,81c-0.7,0-1.2,0-1.7,0c-1.7-0.2-4.2,0.5-4.1-2.1c0.1-2.5,2.6-1.7,4.3-1.9c0.5,0,1-0.1,1.5,0
			c1.9,0.3,5.2-0.9,5.1,2.1C381.4,82.1,378.1,80.6,376.5,81z"/>
		<path class="st144" d="M337.9,55.3c0.5-0.3,1.5-0.4,0.7-1.3c0-0.5-1.9-1.6,0.3-1.5c0.8,0,1.7,1,2.2-0.4c1.9,2.1,1.9,4.7,2,7.3
			c0,1.5-0.5,3.4,2,3.7c0.2,0.2,0.3,0.4,0.2,0.6s-0.1,0.3-0.2,0.3c-2.9,0.1-5.1-2.7-8.1-2c0-0.3,0.1-0.6,0.3-0.8
			C338.4,59.3,338,57.2,337.9,55.3z"/>
		<path class="st14" d="M345.1,63.9c0-0.3,0-0.6,0-0.9c0.1-0.2,0.2-0.5,0.2-0.7c1.6-0.1,3.2-0.2,4.8-0.3c-0.9,1.6-1.1,3.4-1,5.2
			c0.1,2.2-0.1,4.2-3,3.7s-1.8-2.4-1.4-4.2C344.9,65.8,344.9,64.9,345.1,63.9z"/>
		<path class="st141" d="M360.1,66c2.3,0.6,4.4,2.6,7,1c1.4,0.1,2.4,0.8,2.9,2.1C366.1,69.9,362.1,71.4,360.1,66z"/>
		<path class="st145" d="M535.9,58.9c2.1,2.9,0.8,6.1,0.9,9.2c-1.7,0-2.9-0.4-2.8-2.5c0.1-2.3,0.1-4.5,0.1-6.8
			C534.8,58.4,535.4,58.4,535.9,58.9z"/>
		<path class="st146" d="M535.9,58.9c-0.6,0-1.2-0.1-1.8-0.1c0-4.9,3.8-1.8,5.8-2.7c0,1,0,1.9,0,2.9
			C538.6,58.4,537.3,57.6,535.9,58.9z"/>
		<path class="st147" d="M528.9,64.9c-0.3,0-0.5,0.1-0.8,0.1c-0.2-2.8-0.3-5.6-0.5-8.4c0.4,0,0.8,0,1.3,0
			C528.9,59.4,528.9,62.1,528.9,64.9z"/>
		<path class="st9" d="M261.3,110c0.2-4.3-2.4-3.7-5.1-2.9c-2.8-2-6-0.7-9-1c0.2-2.4,0.2-4.6-3.4-4.1c-2.6,0.4-4.8-0.1-6.3-2.7
			c-0.9-1.7-2.9-1.3-4.5-1.2c-2.9,0.3-4.8-0.9-5.6-3.7c-0.4-1.5,0.3-2.5,1.6-3.2c2.7-1.5,4.6-0.7,6.1,1.8c1.7-0.1,3.3-0.8,5,0
			c0.7,0.1,1.3,0.2,2,0.2c2.9,0,6,4.1,8.7-0.4c1.6-2.6,5.5-2.5,6.6-6.2c1.1-3.8,5.4-4,8.7-3.8c2.3,0.1,4.6,0.2,6.9,0.4
			c0.7,0.7,1.4,1.3,2.1,2c0.3,1-0.4,1.6-1.2,1.8c-3.4,1.1-5.2,3.2-5,6.9c0.1,1.9-1,3.1-2.6,3.8c-0.7,0.3-1.4,0.4-2.1,0.4
			c-1.6,0.3-4.7-1.5-4.5,0.8c0.2,2.4-0.6,6.1,3,7.5C263.1,107.9,263.6,109.5,261.3,110z"/>
		<path class="st9" d="M262.2,106c-0.9-0.8-4.6,1.8-2.6-2.3c0.2-0.5,0.1-1.3-0.2-1.8c-0.8-1.4-3.3-2.4-1.6-4.5
			c1.8-2.3,4.2-0.8,6.4-0.4c0.4,0.4,0.3,1.4,0.9,1.4c0.6,0,0.7-0.9,1-1.3c0.6-0.7,1.9-1.6,1.7-2.2c-1.5-6.3,2.6-8.2,7.3-9.8
			c1.8,0,2,1.3,2,2.7c0,1.3,0.5,2.2,2,2.2c0,3.3-0.3,6.7,0.1,10c0.8,5.4-1.6,6.5-6.5,6.2c-2.2-0.1-4.4-1.6-6.6-0.2
			C264.8,107.2,263.5,107,262.2,106z"/>
		<path class="st142" d="M279.3,66.4c1.3-0.5,2.5-0.5,3.8,0c1.9,1.8,0.7,4.7,2.5,6.5c5.4,1.9,11,0.5,16.5,0.8
			c0.5-0.1,0.9-0.2,1.3-0.4c0.9-0.3,1.7-0.8,2.6-0.2l0,0c0.8,1.8,3.8,1.4,3.9,3.9c-6.6,0-13.3,0.1-19.9,0.1c-10.2,0-10.2,0-10.9-10
			C279.4,66.9,279.4,66.6,279.3,66.4z"/>
		<path class="st148" d="M286,87.9c2.2-1.5,4.7-1.8,5.7,0.9c0.9,2.5,1.5,5.7-0.8,7.8c-1.9,1.7-4.1,1.1-5.2-1.3
			c-0.6-1.3-0.4-2.9-0.6-4.3C284.1,89.6,284.8,88.7,286,87.9z"/>
		<path class="st149" d="M310,76.9c-1.1-1.5-4.6-0.6-3.9-3.9c1.4-0.1,2-0.9,2-2.3c-0.1-2.2,0.9-2.8,3-2.8c2.5,0,2.7,1.3,3.1,3.3
			c0.6,2.6,0.6,4.5-2.1,5.7C311.4,77,310.7,77,310,76.9z"/>
		<path class="st49" d="M224,54.9c1.3-1.4,3.7-0.3,4.9-1.9c0.3,2.4,4.2,3,3.2,6C227.5,61.4,225.1,59.5,224,54.9z"/>
		<path class="st9" d="M286,87.9c-0.3,1-0.6,2.1-0.9,3.1h-0.5h-0.5c-1.7-1-3.3-2-5-3C281.4,86.2,283.7,87,286,87.9z"/>
		<path class="st9" d="M294.2,101c1.3,1.5,0.4,1.9-1,1.8c-1.4-0.1-2.7-0.6-4.1-0.9c0.9-1.2,1.8-2.4,2.6-3.5c2,0.2,1,1.9,1.6,2.7
			c0.1,0.1,0.3,0.2,0.4,0.2C293.9,101.3,294,101.1,294.2,101z"/>
		<path class="st9" d="M285.1,100c-4.7-2.2-4.9-3.2-1-6C284.1,96.1,283.9,98.1,285.1,100z"/>
		<path class="st150" d="M262.2,106c1.3,0,2.6,0,3.9-0.1c0.8,0.4,0.9,1.2,1,2c-0.7,1.3-1.4,2.7-2.1,4c-1.3,0.6-2.5,0.6-3.8,0
			c0-0.7,0-1.3,0.1-2C262.5,108.9,262,107.4,262.2,106z"/>
		<path class="st11" d="M290,126c0.5-4.1-0.2-8.2,0.9-12.2C291,117.9,292.3,122,290,126z"/>
		<path class="st89" d="M240.1,93c-1.7,0.8-3.3,1.8-5,0c0.2-1.6-0.6-4,2.3-3.9C239.8,89.2,240.2,91,240.1,93z"/>
		<path class="st151" d="M261.2,112c1.3-1,2.5-0.9,3.8,0c-1.1,4.5-1.1,9,0.7,13.4C260.9,122,260.7,117.1,261.2,112z"/>
		<path class="st152" d="M449.1,57c-3.3,0.7-6.7,1.3-10,2c-12.1-0.7-24.2-2.1-36.4-0.4c-4.5,0.6-9.1,1.3-13.6-0.6
			c0.8-1.4,2-2.2,3.5-2.7c5.2-0.3,10.5,0.1,15.5-1.9c3.2-1.3,4.8,2.6,7.7,1.8c2.8,0,5.6-0.1,8.3-0.1c1,0.6,2.2,0,3.3,0.2
			c0.4,0,0.9,0.1,1.3,0.2c2.1,0.4,3.8-1.2,5.7-1.4c1-0.1,1.9,0,2.8,0.2c2.6,0.8,5.1,1.1,7.7,0.2C446.9,53.9,449,54.1,449.1,57z"/>
		<path class="st153" d="M415.8,55.2c-0.2,0.2-0.5,0.7-0.7,0.6c-6.4-2.2-12.5,0.7-18.7,1c-1.4,0.1-2.9-0.5-4.3-0.8
			c-2,1-3.9,1.4-4.7-1.3c-0.6-2.2,0.6-3.9,2.7-4.6c2-0.7,4.1-0.9,6.3-0.7c5.6,0.4,11.1,0.7,16.7-0.4c0.3-0.1,0.7-0.1,1-0.2
			c2.6,0.7,5.6-0.8,8,1.1c-1.2,1.4-2.9,1.1-4.5,1.2c-1.9,0.2-3.5,0.7-3.6,3C414.5,54.6,415.1,54.9,415.8,55.2z"/>
		<path class="st154" d="M413,49.1c-1,1.8-2.2,2.3-4.4,2.1c-5.6-0.4-11.3-0.2-17-0.2c-1.8,0-3.4,0.6-3.5,2.7
			c-0.1,2.9,2.3,2.2,3.9,2.4c-0.6,1.3-1.6,1.9-3,2c-4.4,0.3-8.9-0.5-13.3,0.8c-2.2,0.7-3.7-0.9-4.7-2.8c1.5-2.7,4.2-2.2,6.6-2.3
			c1.4-0.1,3.5,0.5,3.9-1.2c1.3-4.5,4.6-3.9,7.9-3.9C397.3,48.7,405.1,48.7,413,49.1L413,49.1z"/>
		<path class="st38" d="M413.1,49c-8.3,1.2-16.7-0.4-25.1,0.1c-2.5,0.1-5.3-0.3-4.6,3.8c0.4,2.3-1.6,2.1-3,2.2
			c-3.1,0.3-6.3-0.6-9.3,1c0-0.4-0.1-0.8-0.1-1.2c1.8-3.4,5.4-1.1,8.4-2.8c-2.4-1.1-4.7-0.4-6.7-1c-0.3,0-0.6-0.2-0.9-0.2
			c-6.5-0.4-6.8-0.1-8.6,6.2c-3.7-1.2-2-4.2-1.6-6.2c0.5-2.4,2.8-2.8,5.2-2.8c13.4,0,26.8,0,40.2,0.1
			C408.9,48.1,411.2,47.3,413.1,49z"/>
		<path class="st155" d="M363.1,57c0.4-2.3-2.7-5.5,0.5-6.6c2.4-0.8,5.7-2.1,8.6-0.2c0.1,1.8-1.8,2.8-1.8,4.6
			C368.5,57.2,365.8,57,363.1,57z"/>
		<path class="st117" d="M381.2,64c0.1,2.9-1.2,4.2-4.2,4.1c-1.6-0.1-3.3,0-4.9,0c-1.3-0.7-2.1-1.6-1.7-3.2c0.4-1.5,1.7-2,3.1-1.9
			C376.1,63.2,378.8,62.1,381.2,64z"/>
		<path class="st108" d="M424,64.1c0.2,3-1.3,4.1-4.1,4c-1.9-0.1-3.9,0-5.8,0c-2-2.9-1.2-4.8,2.3-5C418.9,62.9,421.7,62.3,424,64.1z
			"/>
		<path class="st10" d="M370.4,54.8c-1.8-2.4,0.4-3.3,1.8-4.6c2.2,0,4.3-0.1,6.5-0.1c1.6,0,3.2,0.4,3.1,2.4c-0.1,1.8-1.7,1.6-3,1.7
			c-2.6,0.3-5.3-0.6-7.8,0.5h-0.3L370.4,54.8z"/>
		<path class="st156" d="M449.1,57c-0.9-1.7-2.2-2.5-4-1.4c-2.9,1.7-5.5,1-8.1-0.5c1.2-1.5,2.9-1.1,4.7-1.3
			c-6.5-2.7-10.4-2-13.7,2.3c-1.4,0-3.2,1.5-4-1c0.1-0.1,0.3-0.2,0.3-0.3c-0.5-6.6,4-5.6,8.3-5.8c5.4-0.3,10.7,1.6,16,0.3
			c0.9-0.2,1.2,0.9,1.3,1.8c-3.5,2.3,0,2.9,1,4c0.7,0.4,1.5,1.1,0.9,1.8C451.2,57.9,450.1,57.7,449.1,57L449.1,57z"/>
		<path class="st107" d="M413.9,54.3c-2.6-2.3-0.8-3.5,1.3-3.9c2.2-0.4,4.5-0.3,6.8-0.4c1.1,0.7,2.5,1.4,1.8,3
			c-0.5,1.3-1.9,1.1-3,1.1C418.5,54.3,416.2,54.3,413.9,54.3z"/>
		<path class="st152" d="M449.1,57c1.2-0.1,3,0.5,2-1.9c2.7,0.4,5.4,0.7,8.1,1.1c0,0.3-0.1,0.6-0.2,0.9
			C455.7,58.5,452.4,58.9,449.1,57z"/>
		<path class="st157" d="M337.9,55.3c2.2,2.2,3.3,4.3-0.7,5.8c-4.9,0-9.8,0-14.8-0.1c-1.8,0-4.2,0.7-4.3-2.5c-0.1-2.9,2-2.3,3.8-2.5
			c0.7-0.1,1.4-0.6,2.2-0.9C328.7,54.7,333.3,54.6,337.9,55.3z"/>
		<path class="st158" d="M316.1,66.1c7.3-0.6,14.7-0.4,22-0.1c1.4,2.8,1.5,5.5-0.1,8.3c-6.7,0.2-13.5,0.7-20.2-0.3
			C314.8,71.9,316.5,68.8,316.1,66.1z"/>
		<path class="st159" d="M317.8,74c6.8,0.1,13.5,0.1,20.3,0.2c0,0.2-0.1,0.4-0.1,0.7C331.3,74.7,324.5,76.2,317.8,74z"/>
		<path class="st160" d="M338,74.8c0-0.2,0.1-0.4,0.1-0.7c0-2.7,0-5.4,0-8.2c0.7,0,1.4,0.1,2,0.1C339.5,69.1,341.8,72.7,338,74.8z"
			/>
		<path class="st161" d="M306.1,73c-0.7,0.3-1.3,0.7-2,1c-2-2.7-1.9-5.3,0-8c0.7,0,1.4,0,2,0C306.1,68.4,306.1,70.7,306.1,73z"/>
		<path class="st162" d="M304.1,66.1c0,2.7,0,5.3,0,8l0,0c-6.7,0.8-13.4,1-20.1-0.1c-1.5-2.4-0.8-5-0.9-7.6
			C290.1,65.4,297.1,65.8,304.1,66.1z"/>
		<path class="st163" d="M266.1,97.1c0.6,1.2,1.3,2.4-0.1,3.4c-0.7,0.5-1.6,0.7-2.2,0c-1.3-1.3-0.1-2.4,0.4-3.5
			C264.8,97.1,265.4,97.1,266.1,97.1z"/>
		<path class="st164" d="M284.1,73.9c6.7,0,13.4,0.1,20.1,0.1C297.4,75.7,290.7,75.8,284.1,73.9z"/>
		<path class="st165" d="M312.6,72.1c0.1,0.9-0.5,2.1-1,1.1c-0.7-1.3-2.9,1.2-2.5-1.3c0.2-1.1-0.2-2.6,1.4-2.7
			C312.4,69.2,312,71.1,312.6,72.1z"/>
		<path class="st166" d="M428,56.1c-0.3-3,0.8-4.2,4-4.7c3.7-0.6,7.2,0.4,10.8,0.2c0.8,0,1.1,0.5,1.1,1.3c0,1.1-0.3,2-1.5,2.1
			c-1.8,0.1-3.6,0.1-5.4,0.2c-1,0-2-0.1-2.9-0.1C431.8,53.7,430.2,56.8,428,56.1L428,56.1z"/>
		<path class="st156" d="M428.1,56.1c2-0.4,3.3-4.7,6-1C432.1,55.4,430.5,58.3,428.1,56.1z"/>
	</g>
</g>
</svg>
