<?xml version="1.0" encoding="utf-8"?>
<!-- Generator: Adobe Illustrator 25.0.0, SVG Export Plug-In . SVG Version: 6.00 Build 0)  -->
<svg version="1.1" id="Camada_1" xmlns="http://www.w3.org/2000/svg" xmlns:xlink="http://www.w3.org/1999/xlink" x="0px" y="0px"
	 viewBox="0 0 615 184" style="enable-background:new 0 0 615 184;" xml:space="preserve">
<style type="text/css">
	.st0{display:none;}
	.st1{fill:#25292B;}
	.st2{fill:#8B916E;}
	.st3{fill:#B2BCBC;}
	.st4{fill:#E5E18A;}
	.st5{fill:#141718;}
	.st6{fill:#5D666A;}
	.st7{fill:#323739;}
	.st8{fill:#464D51;}
	.st9{fill:#272B2D;}
	.st10{fill:#2D3235;}
	.st11{fill:#1E2224;}
	.st12{fill:#3C4245;}
	.st13{fill:#949F9B;}
	.st14{fill:#151819;}
	.st15{fill:#444F55;}
	.st16{fill:#D5CD3C;}
	.st17{fill:#717C7E;}
	.st18{fill:#494927;}
	.st19{fill:#A59F2E;}
	.st20{fill:#282C2F;}
	.st21{fill:#35330D;}
	.st22{fill:#9C962D;}
	.st23{fill:#C3BB36;}
	.st24{fill:#6A7477;}
	.st25{fill:#282D2F;}
	.st26{fill:#F7F032;}
	.st27{fill:#808D91;}
	.st28{fill:#3E4341;}
	.st29{fill:#7D8889;}
	.st30{fill:#F2EB53;}
	.st31{fill:#7E7B3A;}
	.st32{fill:#C3CCCB;}
	.st33{fill:#F1EB5F;}
	.st34{fill:#41484C;}
	.st35{fill:#615B0B;}
	.st36{fill:#E0D945;}
	.st37{fill:#DED52D;}
	.st38{fill:#2C3133;}
	.st39{fill:#626C6F;}
	.st40{fill:#666F71;}
	.st41{fill:#4F585B;}
	.st42{fill:#474F52;}
	.st43{fill:#474E51;}
	.st44{fill:#464E51;}
	.st45{fill:#47430B;}
	.st46{fill:#363C3F;}
	.st47{fill:#3A4144;}
	.st48{fill:#3B4245;}
	.st49{fill:#697377;}
	.st50{fill:#444B4E;}
	.st51{fill:#394043;}
	.st52{fill:#555E61;}
	.st53{fill:#42494C;}
	.st54{fill:#7F898A;}
	.st55{fill:#EAE352;}
	.st56{fill:#EDE753;}
	.st57{fill:#E9E252;}
	.st58{fill:#C8D1CF;}
	.st59{fill:#EBE451;}
	.st60{fill:#C2CABF;}
	.st61{fill:#EAE453;}
	.st62{fill:#ECE552;}
	.st63{fill:#938E44;}
	.st64{fill:#8F8B45;}
	.st65{fill:#888544;}
	.st66{fill:#807D42;}
	.st67{fill:#D1D9D8;}
	.st68{fill:#303537;}
	.st69{fill:#646D70;}
	.st70{fill:#C8C039;}
	.st71{fill:#32362F;}
	.st72{fill:#17180E;}
	.st73{fill:#938F47;}
	.st74{fill:#DFD735;}
	.st75{fill:#AEA735;}
	.st76{fill:#F6F163;}
	.st77{fill:#CDC64B;}
	.st78{fill:#D0C942;}
	.st79{fill:#474415;}
	.st80{fill:#827E35;}
	.st81{fill:#B2A922;}
	.st82{fill:#857F28;}
	.st83{fill:#262405;}
	.st84{fill:#DBD447;}
	.st85{fill:#A8A231;}
	.st86{fill:#6C6826;}
	.st87{fill:#535124;}
	.st88{fill:#5D580B;}
	.st89{fill:#EFE856;}
	.st90{fill:#EDE869;}
	.st91{fill:#C7C254;}
	.st92{fill:#161919;}
	.st93{fill:#262A2C;}
	.st94{fill:#737D7F;}
	.st95{fill:#434B4F;}
	.st96{fill:#7B8587;}
	.st97{fill:#636C6F;}
	.st98{fill:#1F2325;}
	.st99{fill:#879192;}
	.st100{fill:#2F3435;}
	.st101{fill:#252A2C;}
	.st102{fill:#1C1F21;}
	.st103{fill:#DAD34D;}
	.st104{fill:#858243;}
	.st105{fill:#8C8743;}
	.st106{fill:#888443;}
	.st107{fill:#868342;}
	.st108{fill:#E7E051;}
	.st109{fill:#2A2E29;}
	.st110{fill:#7F7C3F;}
	.st111{fill:#7F7B42;}
	.st112{fill:#77743A;}
	.st113{fill:#F4ED4F;}
	.st114{fill:#F6EF55;}
	.st115{fill:#E3DB3A;}
	.st116{fill:#98922F;}
	.st117{fill:#BEB62C;}
	.st118{fill:#C2BC42;}
	.st119{fill:#0D0F0F;}
	.st120{fill:#928D3D;}
	.st121{fill:#656329;}
	.st122{fill:#434117;}
	.st123{fill:#6D6A31;}
	.st124{fill:#5B5927;}
	.st125{fill:#ECE551;}
	.st126{fill:#F5F27C;}
	.st127{fill:#7F7C36;}
</style>
<g id="Camada_2_1_" class="st0">
</g>
<g id="Camada_1_1_">
	<g>
		<path class="st1" d="M224.1,183.9c-2.9-2.8-6.8-2.1-10.2-2.8c-15.9-3.4-32-6.2-47.8-10.3c-1.6-1.5-2.7-3.2-0.9-5.3
			c2-1.1,3.9-0.2,5.8,0.3c17,3.8,34,7.9,51.2,11.2c3.3,0.6,7.1-0.6,10.1,2c-0.2,2.2-1.8,3.5-3.2,4.9
			C227.4,183.9,225.7,183.9,224.1,183.9z"/>
		<path class="st2" d="M454.4,70c1.5,0.7,3,1.3,4.5,2c0,3,0,6,0,9h-0.5l-0.5,0.1c-0.4-0.2-1-0.5-1.1-0.9c-1.5-6.9-6.5-7.1-12.1-6.7
			c-13,0.9-26.1-0.8-39.1,0.8c-2.4,0.3-5.2,0.5-5.9-2.9c1.1-1.6,2.9-1.6,4.5-2.2c1.4-0.4,2.9-0.4,4.4-0.5c14.7-0.6,29.4,1.2,44.1,1
			C453.2,69.6,453.8,69.8,454.4,70z"/>
		<path class="st3" d="M157.9,166.9c-0.6-0.3-1.2-0.7-1.8-1c0-1.7,0-3.3,0-5l0.3-0.3l0.4,0.1c1.2,1.3,3,1.9,3.7,3.7
			C160.1,165.8,160.2,167.6,157.9,166.9z"/>
		<path class="st4" d="M437.9,0.1c0,0.4-0.1,0.7-0.1,1.1c-4,1.9-8,2.2-12-0.2c0.1-0.3,0.1-0.6,0.1-0.9
			C429.9,0.1,433.9,0.1,437.9,0.1z"/>
		<path class="st5" d="M232.3,179c-13,0.2-25.3-3.8-37.9-6.5c-9.8-2.1-19.6-4.4-29.3-6.6c-2.3,1.3-3.7,0.7-4.2-1.9
			c2.2-4,6.2-3.8,9.7-3.2c11.3,1.8,22.7,3.2,33.9,5.7c4.3,1,8.6,1.5,12.9,1.5c9.4,0.1,14.4-6.4,17.6-13.9
			c6.4-15,12.6-30.1,18.5-45.3c2.3-5.9,5.9-11.1,8.8-16.7c3-1,2.7,1.3,2.6,2.9c0,1.9,0.4,3.1,2.5,3.2c1.9,0.7,4.6,0.5,4.6,3.6
			c-7,0.1-9.7,4.5-12,10.6c-7.9,20.6-15.9,41.2-24.9,61.3C234.2,175.5,233.2,177.2,232.3,179z"/>
		<path class="st6" d="M399.9,71.1c1.1,2.4,3.3,2.1,5.2,1.9c14.3-1.9,28.7,0,43.1-0.9c5.1-0.3,9.1,0.2,9.1,6.7
			c0,0.8,0.4,1.6,0.7,2.4c-0.3,0.4-0.6,0.8-0.9,1.1c-3.2,0.5-6.3-0.6-9.4-0.8c-1.7,0-3.5-0.4-4.9,1c-1.1,1-2.1,2.1-3.1,3.2
			c-0.8,1-1.4,2.2-2.4,3.1c-0.8,0.6-1.6,1-2.5,0.8c-2.6-2.8,1.3-4.1,1.3-6.8c-3.3-0.9-6.6-3.4-10.6-1.1c-0.3,0.3-0.6,0.7-0.9,1
			c-1.7,1.7-3.4,3.5-5,5.3c-0.6,0.5-1.2,0.7-1.9,0.6c-2.9-2,0.8-3.7,0.3-5.9c-4-0.4-7.9-3.3-12.1,0c-1,2.1-2.7,3.6-4.3,5.2
			c-0.9,0.8-1.7,1.7-3,1.7c-1.1-0.5-1.3-1.5-0.8-2.4c2.2-4.3-0.5-5.2-3.8-5.5c-2.4-0.2-4.9-0.7-7.1,1c-0.6,0.3-1.3,0.4-2.1,0.4
			c-4.1,0.2-7.9-1.3-11.9-1.4c-1,0-2,0-2.9,0c-5.8-0.5-11.5-1.4-17.3-1.9c-2.2-1.9-3.3-4-1.3-6.7c2.1-0.8,3.9,0.3,5.4,1.4
			c3.4,2.5,6.9,0.9,10.4,0.6c2.3-0.2,1.8-2.8,2.9-4.1c0.9-0.6,1.8-0.6,2.7-0.2c1.3,0.6,0.8,2.5,2.3,3.2c1.6-0.7,2.3-2.1,2.9-3.7
			c0.4-0.4,0.8-0.6,1.2-0.8c2.6-0.5,5.2-0.8,7.6,0.4c0.4,0.3,0.6,0.7,0.6,1.3c-0.7,0.8-1.4,0.9-1.7,0.7c3-1,6.9-0.1,10.4-1.9
			C397.5,69.5,398.9,69.7,399.9,71.1z"/>
		<path class="st7" d="M359,94.1c-9.6,0.5-18,4.2-25.5,10c-1.9,1.5-4.1,2.3-6.5,2.3c-12.1,0.1-24.3,0.2-36.4,0.3
			c-0.6,0-1.2-0.4-1.8-0.6c1.8-2,4.5-1.2,6.6-2.2c9.4-0.8,18.9,0.2,28.3-0.6c6.3-1.3,11.1-5.5,16.6-8.4c2.9-0.5,4-4.2,7.3-4.1
			c2.5,0,5-0.4,7.4-1.2c0.5-0.1,0.9-0.2,1.4-0.2c1.6,0.3,3.4,0.4,4,2.4C360.5,93,359.6,93.4,359,94.1z"/>
		<path class="st8" d="M405.1,82.1c-0.1-0.7-1.1-1.6,0.3-2c4.8-1.3,9.5,0.6,14.2,1.1c1.9,0.2,0.6,1.6,0.1,2.6
			c-0.7,1.3-3.7,1.8-1.7,4.2c-0.3,2.4,0,3.8,3.2,3.6c6.3-0.3,12.5-0.1,18.8-0.1c2.1,0,4.4-0.4,6,1.4c-1.1,1-2.4,0.9-3.8,0.9
			c-24.4,0-48.9-0.1-73.3-0.1c1-3,3.6-1.8,5.6-2.2c0.8,0,1.5,0,2.3,0c11.2,0,22.5,0.1,33.7-0.2c-5-1.5-5-1.5-0.9-8.4
			c-1-1-2.2-0.4-3.3-0.4C406,82.5,405.5,82.4,405.1,82.1z"/>
		<path class="st9" d="M446,93.1c-10.4,0-20.8,0-32,0c1.6-2.1,2.8-3.6,3.9-5c0.3-0.3,0.7-0.6,1-1c2.5-0.9,6.5-0.3,4.8-5.2
			c0.1-0.3,0.1-0.6,0.2-0.9c0.5-0.5,1.2-0.4,1.8-0.6c1.8-0.5,3.9-0.8,5.1,0.7c1.5,1.8-0.5,3.3-1.4,4.8c-0.3,0.6-0.8,1-1.4,2.1
			c2.5-0.2,3.9,3.6,6.9,1.1c0.6-0.4,1.3-0.8,1.9-1.1c4.3-2,7.8-1.1,10.3,3c0.4,0.6,0.3,1.2-0.2,1.8C446.7,93.1,446.4,93.2,446,93.1z
			"/>
		<path class="st10" d="M446.9,92.7c-1.3-1.9-5.1-3.7-10-4.8c0.7-1,1.4-2,2-3c2.1,0.1,4,0,3-3c0.8-3,3.2-1.7,5-1.9
			c2.6,1.5,3.9,4.7,6.9,5.6C451.5,88,449.2,90.4,446.9,92.7z"/>
		<path class="st11" d="M295,105c-1.8,1.7-4.1,0.4-6.1,1c-5.8-0.8-10.6-5.1-16.8-4.2c-1-2.2-3.4-1.7-5-2.8c1.4-4.2,4.6-3.3,7.7-2.6
			c1.6,0.3,2.7,1.9,4.4,2.2c0.8,0.2,1.5,0.4,2.2,0.7C285.4,102.3,290.4,103.2,295,105z"/>
		<path class="st9" d="M374.9,92.9c-2,0.4-4.2-0.7-6,1c-3.3,0.1-6.6,0.2-10,0.2c0.3-0.7,0.6-1.4,1-2.1c0.6-0.6,0.9-1.4,1.4-2.1
			c0.9-1.3,2-2.4,3.6-2.8c2.1,0.2,4-2.3,6.3-0.6c0.2,0.4,0.2,0.8,0.2,1.2c0.2,2,1.7,1,2.7,1.2c1.1,0.3,2.5,0.2,2.8,1.6
			C377.3,91.9,375.9,92.3,374.9,92.9z"/>
		<path class="st12" d="M453.8,85.7c-5.4,1.9-5.1-3.1-6.9-5.6c3.4,0.5,7,0.3,10.1,2.1C456.1,83.5,455.3,85,453.8,85.7z"/>
		<path class="st11" d="M263,92c-6.9,13.5-12.4,27.7-18.3,41.6c-2.3,5.5-4.8,10.9-6.5,16.6c-1.9,6.5-5.9,11.4-10.3,16.1
			c-3.1,3.3-7.9,3.5-12.1,3.2c-5.5-0.4-11-1.8-16.5-2.7c-9.4-1.6-18.8-3.3-28.2-4.8c-3.5-0.5-7-0.2-10,1.9c-0.8-0.9-1-1.9-0.8-3
			c2.9-6.4,6-8.3,12.7-7.5c8.8,1,17.6,0.1,26.4,0.3c5.2,0.1,10.2,0.6,15.3-0.9c5.9-1.8,10.7-3.9,12.6-11c2.3-8.4,6.4-16.3,11.3-23.6
			c3.7-5.6,5.2-12.2,8.3-18.1c1.5-2.9,1.2-5.8-1.8-8.5c-2.8-2.5-5.1-5.8-3.1-10.2c0.8-1.8-0.7-2.6-2-3.5c-5.9-3.8-12.3-6.7-18.6-9.7
			c-3-1.4-6.2-1.3-9.3-0.2c-6.5,2.3-6.5,2.3-10-3.8c-0.3-0.6-0.9-1-1.4-1.4c-1.6-1.6-2.8-3.4-3.7-5.5c-0.3-4.1-3.5-3.8-6.3-4.2
			c-1.3-1-2.6-2-3.9-3c3.8-2.8,7.1-2.9,10.8-0.3c2.6,1.8,4.7,4.2,6.6,6.8c0.9,1.2,1.8,3.1,3.3,2.7c4.3-1,8.9-1,13-2.8
			c2.8-1.2,2.8-4.3-0.1-5.7c-4-1.9-7.8-4.4-12.5-4.7c-1.4-0.1-4.5,1-3.6-2.7c1-0.6,2.1-0.8,3.2-0.9c11.8-0.5,23.5,1.4,35.3,1.1
			c3.4-0.1,6.5,1.1,9.2,3.3c2.3,2.3,2.9,5.2,3.1,8.2c0.3,6.6,0.9,13.3-0.3,19.9c-1.2,6.6,0.5,11.4,6.8,14.3c0.5,0.3,0.9,0.6,1.3,1.1
			S263.4,91.5,263,92z"/>
		<path class="st13" d="M438.9,15.1c2.7-0.1,5.3,0,7.9,1c-0.7,3.1-3.3,2.3-5.2,2.3c-9.5,0.1-18.9,0.1-28.4,0.1c-6.3,0-12.5,0-18.8,0
			c-0.9,0-1.9,0-2.8,0c-11.1,0.3-22.3-0.7-33.4,0.6c-4.5,0.7-9.1,0.4-13.6,0.4c-1.2,0.1-2.4,0-3.6,0c-1.5,0.1-2.9,0-4.4,0
			c-5.3,0-10.6,0.1-15.9,0c-0.9,0-1.7,0-2.6,0c-1.7,0.1-3.4,0-5,0c-1.1,0-2.2,0-3.3,0c-2.7,0.1-5.4-0.1-8.1,0
			c-1.8,0-3.7-0.1-5.4,0.4c-0.8,0.1-1.6,0.1-2.4,0c-1.6-0.3-3.3-0.6-4.9-1.1c-11.5-0.5-23.1-0.1-34.6-0.2
			c-6.3-0.5-12.6,0.9-18.8-0.9c-0.5-0.4-0.8-0.8-0.9-1.4c0-1.9,1-3.1,2.6-4c1.4,3.1,4.2,2.6,6.8,2.6c49,0,98.1,0.1,147.1,0
			c7.2,0,14.6,1.1,21.8-0.8c7.2-0.9,14.4-0.4,21.6-0.5C436.1,13.6,437.6,14,438.9,15.1z"/>
		<path class="st14" d="M204.1,44.1c5.9,0.7,11.4,2.5,16.6,5.3c1.7,0.9,4.2,1.3,3.6,4.5c-0.6,2.8-2.2,4.5-4.9,4.8
			c-3.8,0.5-7.6,0.4-11,2.5c-1.5,0.9-2.7-0.4-3.6-1.7c-1.5-2-3.1-3.9-4.6-5.8c-3.5-4.5-7.9-5.7-13.2-3.5c-2.1-0.7-4.2-1.4-6-2.8
			c0.8-4.3,4.6-4.1,7.6-4.5c4-0.5,8.1-0.2,12.2-0.1C202,42.8,203.2,43.1,204.1,44.1z"/>
		<path class="st15" d="M198.1,57.1c1,1.6,2.1,3.3,3.1,4.9c2.5,2,0.8,4.7,1.2,7.1c-1,10.7-5.1,20.4-10.7,29.5
			c-9.1,14.8-17.6,30-25.1,45.7c-0.8,1.7-1.1,3.4-1.6,5.2c-0.3,1.2-0.6,2.4-0.9,3.7c-0.6,1.6-0.7,3.7-3,4.2
			c-2.2-0.7-2.7-2.2-1.9-4.3c3.1-13.2,10-24.6,16.3-36.3c5.9-11,13.2-21.1,17.8-32.8c2.6-6.4,4.1-13,3.8-19.9
			c1.1-1.1,1.1-1.1-0.8-2.1c-0.7-1.6-1.4-3.3-2.1-4.9C195.5,55.6,196.8,55.1,198.1,57.1z"/>
		<path class="st16" d="M192.8,4.7c3-3,6.6-0.8,9.9-0.9c6.9-0.4,13.8,0.2,20.7,0c3.8-0.1,6.6,1.1,8.6,4.3c-0.3,3-2.6,3.3-4.8,3
			c-9.8-1.3-19.6-0.1-29.3,0.1C192.3,11.2,191.7,10.4,192.8,4.7z"/>
		<path class="st17" d="M178.1,40.1c2.6-8.7,5.2-17.4,12-24c0.6-0.6,1.2-0.6,2-0.4c2.4,1.6,1.9,3.5,0.6,5.6
			c-1.1,1.7-1.1,3.1,1.3,3.6c1.2,3-2.5,4-2.6,6.6c-1.2,2.8-3.7,4.5-5.8,6.6c-1.8,1.6-4.4,1-6.3,2.4
			C178.9,40.5,178.5,40.4,178.1,40.1z"/>
		<path class="st18" d="M192.2,16.2c-0.7,0-1.4-0.1-2-0.1c0.3-1.5,0.6-3.1,0.9-4.6c5.6-1.6,11.3-1,16.9-1c8.4-0.1,16.9,0.6,25.3,0.5
			c1.3,0.4,2.6,0.5,3.8,1.2l0.1,0.1c-0.4,1.2-0.5,2.6-2,3c-2,1.5-4.4,1.1-6.7,1.2c-10.6,0.1-21.3-0.2-31.9,0.2
			c-0.6,0.2-1.2,0.3-1.8,0.3C193.8,17,193,16.6,192.2,16.2z"/>
		<path class="st19" d="M235,12.2c-13.4,0.6-26.7-1.6-40.1-0.4c-1.3,0.1-2.6-0.2-3.8-0.4c-0.7-2.6-1-5.1,1.8-6.7
			c1,5.7,1.8,6.4,10.5,5.1c8.1-1.2,16-0.9,24,0c2.1,0.2,3.4-0.3,4.7-1.8l0,0C233.1,9.4,235.8,9.6,235,12.2z"/>
		<path class="st20" d="M178.1,40.1c0.3,0,0.6,0,0.9-0.1c3.9-2,7.9-2.1,11.8-0.3c2.1,1,4.4,1.3,6.6,1.9c1.5,0.4,3.5,0,3.7,2.4
			c-4.9,0.1-9.8,0-14.6,0.5c-2,0.2-4.2,0.7-5.5,2.8C176.7,46.2,175.9,43.8,178.1,40.1z"/>
		<path class="st21" d="M438.9,15.1c-7.5,0-15,0.1-22.5,0.1c-1.3,0-2.7,0.1-3.7-1.1c0.3-0.3,0.6-0.6,0.9-0.9c6.7-4,14-2.2,21.1-2.2
			c1.4,0,2.4,1,3,2.2C438.7,13.5,439,14.2,438.9,15.1z"/>
		<path class="st22" d="M437.9,13.1c-6.8-1.6-13.6-1.1-20.4-0.4c-1.2,0.1-2.4,1.3-3.7,0.5c1-1.1,2-2.1,3-3.2
			c6.4-1.6,12.9-1.7,19.4-0.8c0.9,0.4,1.4,1,1.6,1.9C437.8,11.8,437.8,12.5,437.9,13.1z"/>
		<path class="st23" d="M436.8,10.1c-5.8,0.4-11.6-0.7-17.3,0.8c-0.8,0.2-1.8-0.5-2.8-0.8c2.6-3,4.7-6.5,8.2-8.6
			c1.3,2.7-1.6,3.7-2.2,5.6c-0.1,0.2-0.6,0.6-0.5,0.7c0.2,0.6,0.8,0.1,1.2,0.2c2.2-0.1,4.4-0.3,6.5-0.9c1.6-0.3,3.2-0.4,4.8,0
			C436.1,7.4,438,7.7,436.8,10.1z"/>
		<path class="st24" d="M159.2,153.1c0.1,1.5,0.7,2.8,1.9,3.8c0.4,0.4,0.5,0.9,0.2,1.4c-0.8,1.8-0.2,4-1.4,5.8c-1-1.1-4-0.4-3.1-3.3
			C157.7,158.2,157.3,155.3,159.2,153.1z"/>
		<path class="st25" d="M198.1,57.1c-1.3-1-2.6-0.1-3.9-0.1c-1.1-1.3-2.2-2.6-3.3-3.9C196.4,51.2,197.2,51.6,198.1,57.1z"/>
		<path class="st26" d="M421.8,7.1c0-2.4,3-3.2,3.1-5.7c0.2-0.3,0.5-0.4,0.9-0.5c4,0.1,8,0.1,12,0.2c0.1,0.3,0.1,0.6,0,0.9
			c-0.8,0.8-1.9,1.3-3.1,1.3c-4.2-0.3-8,0.6-11.1,3.7C423.2,7.5,422.4,7.4,421.8,7.1z"/>
		<path class="st27" d="M196.3,61.9c5.1-0.2,2.9,3.1,3.7,6c-2.7-1.2-1.6-2.7-2.1-3.8c-0.1-0.1-0.2-0.3-0.4-0.3
			c-0.1,0-0.3,0.1-0.5,0.2C196.3,63.5,196,62.8,196.3,61.9z"/>
		<path class="st16" d="M235,12.2c-1-1.4-1.9-2.7-2.9-4.1c2.3,0.5,4.6,1.1,5,4.1C236.4,12.5,235.7,13,235,12.2z"/>
		<path class="st28" d="M456.8,31.1c0.1,1.4-1,1.7-2,2.1c-0.6,0.2-1.2,0.4-1.8,0.3c-22.4-1.6-44.9-1.4-67.4-0.4
			c-4.2-2-8.8-2.2-13.2-1.4c-4.6,0.9-8.9,0-13.2-1.2c-0.5-0.4-0.6-0.9-0.5-1.5c1.5-1.4,3.4-1.2,5.2-1.3c23.7-2,47.5-1.4,71.2-1.7
			c5.9-0.1,11.6-0.4,17.2,1.8C454.3,28.3,455.9,29.2,456.8,31.1z"/>
		<path class="st29" d="M456.8,31.1c-1.3-0.7-2.6-1.4-3.9-2.1c-7.3-7.2-16.8-5.4-25.4-5.3c-10.4,0.2-20.8-0.2-31.2-0.4
			c-8.3-0.1-16.6-0.9-24.8,0.3c-4.7,0.7-8.8-0.1-13-2c-0.7-0.6-1-1.3-0.2-2c7.4-2.7,15.1-1,22.6-1.5c3.6-0.2,7.3,0.3,10.9-0.2
			c3.7,0.4,7.5,0.2,11.2,0.3c3.2,0,6.5,0,9.7,0c8.3,0,16.5,0.3,24.8-0.1c6.6-0.3,12,1.4,16.3,6.5c0.8,1,2,1.7,2.9,2.7
			C456.8,28.5,456.8,29.8,456.8,31.1z"/>
		<path class="st30" d="M454.4,70l-0.3,0.1h-0.3c-3.4-1.3-7.2-0.1-10.6-1.6c-1-0.9-0.5-1.7,0.1-2.6c0.9-1.1,3.1-0.8,3.2-2.9
			c-1.1-4.7-3.4-8.8-5.6-12.9c-1.2-2.1-2.7-4.1-2.7-6.7c2.1-4.4,5.9-2.6,9.1-2.3c2.4,0.2,4.6,0.9,6.1-1.7c0.2-0.1,0.4-0.3,0.7-0.4
			C455.2,49.4,454.6,59.7,454.4,70z"/>
		<path class="st31" d="M453.8,33.1c0.3,0,0.6,0.1,1,0.1c-0.2,2-0.5,4-0.7,5.9h-0.2c-0.4,0.7-0.7,1.3-1.5,1.6
			c-2.8,0.4-5.4-0.6-8.1-1.1c-3.1-0.6-6.1-0.7-8.6,1.8c-1.9,0.5-3.2-0.8-4.7-1.4c-3.4-2.8-7.3-1-10.9-1.1c-2.4-0.1-4.8,0.3-7.3,0.4
			c-1,0-2,0-3.1,0c-1.1-0.1-2.2-0.3-3.2-0.9c-2.8-3.8-2.3-5.6,2-5.6c10.3,0,20.5-0.8,30.8,0.5c4.6,0.6,9.2,0.1,13.9-0.1
			C453.3,33.2,453.6,33.1,453.8,33.1z"/>
		<path class="st32" d="M456.7,27.2c-2.1,0.2-3.4-1.1-4.6-2.5c-3.8-4.3-8.5-5.8-14.3-5.7c-8.3,0.2-16.6-0.1-25-0.1
			c-0.6-0.5-0.6-1.1,0-1.6c9.8-0.1,19.5-0.1,29.3-0.2c1.6,0,3.3,0.7,4.6-0.9C450.7,19.3,455.1,22.1,456.7,27.2z"/>
		<path class="st33" d="M421.8,7.1c4-5.9,10.1-5.3,16-5c0.4,3,0.4,6-0.1,9c-0.3-0.3-0.6-0.7-0.9-1c-1.8-4.2-5.3-1.1-7.9-2
			c-2.4,0.2-4.9-0.3-7.1,0.9c-0.4-0.1-1.1-0.2-1.2-0.4C420.4,7.8,421.2,7.5,421.8,7.1z"/>
		<path class="st34" d="M159.9,164.1c0.5-2-0.6-4.4,1.1-6.2c0.8,1,0.7,2,0.1,3c0,1,0,2-0.1,3c0.7,1.9,2.3,2,4,2
			c0.3,1.6,0.7,3.3,1,4.9c-3.3-0.1-6.2-1.2-8.3-3.9C159.4,166.6,159.6,165.2,159.9,164.1z"/>
		<path class="st35" d="M399.9,71.1c-1.4-0.3-2.7-0.7-4.1-1c-2.7,2.1-5.7,1.9-8.7,0.8c-0.1-0.2-0.3-0.5-0.4-0.8
			c0.9-2.9-1.1-2.7-2.9-2.9c-3.3-0.4-6.9,0-9-3.6c-1-2.8-1.5-5.6-1.2-8.6c0.2-1.8,0.5-3.6,2.6-4.3c1.3,0,1.7,1,2.1,2
			c0.2,0.6,0.2,1.3,0.1,2c-0.9,8.8,1.6,7.6,8.9,8.3c2.3,0.2,2.1-1.5,2.2-3c-0.1-4.6,0.3-9.3-0.4-13.9c0-0.9,0.2-1.7,0.9-2.3
			c3.1,0.4,3,2.8,2.7,4.9c-0.5,3.9-0.3,7.8-0.4,11.7c0-1.3,0-2.6,0-3.9c-0.1-4.6,0.7-9.2,0.4-13.8c1.4-5.7,3.3-7.5,7.2-6.7
			c1,0.2,1.9,0.7,2.1,1.8c-0.7,1.8-2.1,2.9-3.3,4.2c-0.9,1-2,1.8-2.2,3.2c-0.7,6.5-0.5,13.1-0.1,19.7c0.1,0.7,0.9,0.9,1.6,0.8
			c1.9-0.1,3.8-1.3,5.8-0.1c0.7,0.9,0.8,2.2-0.1,2.5c-3.2,1.2,1.1,1.3,0.2,2.1C402.8,71.3,401.3,70.9,399.9,71.1z"/>
		<path class="st36" d="M442.9,68c3.6,0.9,8-2,11,2.1c-4.5,1.8-9.2,0.9-13.7,0.6C429.5,70,418.7,70.4,408,70
			c-0.9-0.5-1.9-1.4-1.4-2.3c2.4-4.6,1.7-10,3.9-14.6c2.7-0.3,2.6,1.8,2.9,3.4c0.3,1.7,0,3.6,1.2,5.1c0.7,1.1,1.1,2.2,1.6,3.4
			c1.1,2.1,3.1,1.6,4.8,1.6c5.4,0.1,10.8,0,16.2,0.1C439.2,66.7,441.3,66.4,442.9,68z"/>
		<path class="st37" d="M411,53c-0.7,4.8-0.3,9.9-3.2,14.3c-0.6,0.9-0.2,1.9,0.3,2.7c-1.3,0.1-2.6,0.2-4,0.3
			c-1.5-0.4-3.7-0.4-0.9-2.5c0.5-0.4,0.6-1.3,0.9-2c-0.3-1.2,0.6-2,0.9-3c0.2-0.4,0.4-0.8,0.6-1.2c0.4-0.5,0.8-1,1.2-1.5
			c2-3.9,0.9-8.3,1.5-12.4c0.2-0.5,0.6-0.8,1-1c0.5,0,1,0.2,1.3,0.6C411.8,49.1,412.6,51,411,53z"/>
		<path class="st38" d="M263,92c0-0.3,0-0.6,0-1c0.3-3.7,2.8-5,5.9-5.5c3.2-0.5,4.1,2,5.2,4.3c0.4,0.9,0.9,1.8,1.4,2.6
			c1,2.6,4.3,4.1,3.5,7.6c-3.9-1.8-7.6-5.4-12-1c-2.7,1.4-4.2,0.7-3.6-2.5C263.7,94.9,264.7,93.4,263,92z"/>
		<path class="st39" d="M370,71c1.6,3.7-0.2,4.6-3.6,5.4c-5.5,1.3-10-0.7-14.4-3.4c-1.9-0.9-1.7-2.5-1.5-4.2c0.3-2,0.2-3.9-0.4-5.8
			c-0.3-1.3-0.4-2.5-0.3-3.8c1.2-3.3,0-5.8-2.9-7.5c-2.3-1.4-4.1-3.2-5.5-5.6c-1.6-2.9-4.6-3.6-7.7-3.9c-6.9-0.7-12.7-5.3-19.8-5.4
			c-4.3-0.8-8.6-0.2-12.9-0.4c-2.1-0.1-4.3,0.3-6.2-1.2c-0.3-0.7-0.1-1.2,0.4-1.6c2.3-1.3,4.8-0.9,7.2-0.9c9,0.1,18.1-0.4,27.1,0.2
			c5.4,1.4,10.8,0.5,16.3,0.7c7.1,0.2,14.2-0.3,21.3,0.3c2.4,0.8,2.4,2,0.4,3.3c-1.5,1-3.2,0.5-4.8,0.4c-5.9-0.5-11.8-0.5-18.3-0.1
			c1.8,2.9,3.7,4.6,5.9,6.2c0.7-1.3-0.3-2.4,0.1-3.5c0.7-1.8,1.8-3.3,3.6-1.5c2.9,2.9,5.8,2.7,9.1,1.1c1.4-0.7,2.9-1.1,4.3-0.1
			c1.6,1.2,0.6,2.8,0.1,4.1c-0.8,2.6-0.9,5.2-0.9,7.9c-0.1,5-1.7,5.9-6.3,3.6c1.1,1.5,2.7,1.3,4.1,1.7c3.1,1,6.1,1.9,4.2,6.5
			C367.6,66.1,371.4,68.2,370,71z"/>
		<path class="st40" d="M370,71c-1-1.9-1.2-4.1-3-5.6c-0.4-0.3-0.7-1.2-0.6-1.8c0.8-4.8-0.1-6.1-5.1-6.1c-1.2,0-2.3,0.4-2.9-1
			c-0.5-1.2,0.3-2.3,1-3.2c1.3-1.6,2.6-1.8,2.9,0.6c0.2,1.1,0.1,2,1.5,1.9c1.5-0.2,1.5-1.2,1.5-2.6c-0.1-4.3,0.1-8.7,2.5-13.4
			c-5.6,0.7-11.2,6.5-14.9-1.5c-1.7,1.6-2,3-0.5,4.5c0.7,0.6,1.7,1.4,0.6,2.4c-1,1-2.2,0.7-3.1-0.1c-2.3-2.2-4.6-4.4-6.7-6.7
			c-1.4-1.5-0.7-2.5,1.2-2.5c6.5,0.1,12.9,0,19.4,0.5c2.2,0.2,3.8,0.1,5.3-1.5c0.8-0.6,1.6-0.6,2.4,0.1c1.7,3.1,0.8,6.5,1,9.7
			c0.4,6.4-0.8,12.9,0.7,19.2c0.4,0.4,0.7,0.7,1.1,1.1c0.9,1.9,3.9,2.1,3.8,4.8c0,0.3,0,0.6,0.1,0.9c-1.7,0.7-3.4,1.5-5.1,0.1
			C371.9,71,370.9,71,370,71z"/>
		<path class="st41" d="M351,63c2.7,3.1-0.8,6.8,1,10c-1.9,2.4-0.1,4.1,1,6c-0.4,5.4-0.8,10.6-7.8,11.7c-2.6,0.4-1.9,4.2-4.2,5.2
			c-3.8,2.3-7.6,4.4-11.3,6.9c-1.5,1-3,1.1-4.7,1.2c-0.7,0.5-1.4,0.5-2.2,0.1c-1.8-2.9,0.9-3.9,2.3-5.5c4.2-3.3,9-5.8,12.3-10.1
			c3-2.3,6.2-4.4,5.7-8.9c0.3-2.4,1.1-4.4,3.2-5.8c1.6,0.1,2.4-0.9,2.6-2.2c0.1-0.8-1.6-0.1-1.6-1.3C347.4,67.3,349.7,65.4,351,63z"
			/>
		<path class="st42" d="M341,95.9c0.7-3.8,1.7-7.1,6.7-7.3c1.3-0.1,5-1.5,2.8-5.2c-1-1.8,2.1-2.7,2.5-4.4c5.8-1.3,11.3,1,17,1
			c-1.4,2.8-1.7,6.3-5,8c-1.3,0.7-2.3,1.7-3,3c-2.1,0.1-3.8-2-6-1l0,0c-2.7,0.6-5.5,0.5-8,2C344.5,91.3,344.2,96.3,341,95.9z"/>
		<path class="st9" d="M405.8,82c1-1.3,2.4-1,3.7-1c1,0,2.2-0.3,2.8,0.6c0.8,1.4-0.7,2-1.4,2.9c-1.3,1.5-3,2.6-3.3,5
			c1.8,0.4,3.9,0,5.7,1.1c-0.7,2.5-2.8,2.4-4.7,2.4c-10.5,0-21,0-31.4,0c-0.6-1,0.2-1.6,0.6-2.3c1.3-1,2.7-2.1,3.7-3.4
			c0.5-0.5,1.1-0.8,1.8-0.8c5.3-0.2,5.3-0.2,4.4-4.7c1.8-2.2,4.3-1,6.4-1c1.9,0,1.7,1.6,1.1,3c-0.8,1.7-2.4,2.7-3.7,4.9
			c2.9-1,5.1,0.9,7.6,0.4c0.7-0.7,1.3-1.3,2-2C403.5,86.3,407.3,86.8,405.8,82z"/>
		<path class="st43" d="M435,89.1c-1,1.5-1.9,3.2-4,1c-1.4-1.5-3.3-0.9-5.1-0.4c-0.5-1.4,0.9-1.7,1.2-2.5c0.7-2.1,4.3-3.4,3-5.6
			c-0.9-1.6-4-0.4-6.1-0.6c4.7-4.4,9.2,0.2,13.8,0.4c1.7,0,0.3,1.7-0.3,2.6C436.3,85.5,434,86.5,435,89.1z"/>
		<path class="st44" d="M381.8,87.9c-0.7,1.8-1.8,3-3.9,3.1c-0.7-2.4-2.6-2-4.4-1.9c-1.1,0.1-2.6,1.3-2.7-1.1c0-0.3,0.1-0.6,0.1-1
			c0.5-0.8,0.7-1.8,1.2-2.6c0.4-0.9,0.2-1.8,0.1-2.8c0-0.6,0.2-1.2,0.7-1.6c4,0.7,8,1.3,12,2C386.1,85.1,381.7,85.3,381.8,87.9z"/>
		<path class="st44" d="M398.9,89c-0.6,0.6-1.6,1.6-1.6,1.6c-2.5-2.3-5.2-0.7-7.9-0.1c0-2.7,1.8-4,3.1-5.6c0.8-0.9,2.6-1.7,1.8-3.2
			c-0.7-1.3-2.4-0.6-3.7-0.7c-1-0.1-2,0-2.7,0.9c-0.2,0.1-0.3,0.2-0.5,0.4c-0.2-0.1-0.3-0.2-0.5-0.3c2.3-4.2,6-1.5,9-1.7
			c1.9-0.1,4.2,1.2,4.7,3.8C400.9,86,396.9,86.4,398.9,89z"/>
		<path class="st45" d="M377.9,70.1c-1.1-1.5-4.3-0.9-4.1-3.9c-0.5-0.7-0.5-1.5-0.1-2.3c0.8-0.5,1.5-0.5,2.2,0.1
			c3.2,1.9,6.7,2,10.3,2c1.2,0,3-0.6,3.3,1.1c0.2,1.5-0.9,2.7-2.6,2.9C383.8,70.1,380.9,70.1,377.9,70.1z"/>
		<path class="st46" d="M372.9,80.1c0,0.7,0,1.3,0,2c-1.2,1-1.1,2,0,3c-0.4,1-1,1.6-2,2c-2.1-0.4-3.8,1.9-6,1c2.7-2,0.9-6.9,5-8
			C370.9,80,371.9,80.1,372.9,80.1z"/>
		<path class="st47" d="M405.8,82c0.2,1.4,4.1,0.6,2.2,3.2c-1.7,2.3-4.1,3.8-7.2,1.8c1.4-1.6,2.8-3.3,4.2-4.9
			C405.3,82,405.6,82,405.8,82z"/>
		<path class="st48" d="M423.7,81.9c0.2,1.5,4.1,0.6,2.4,3.1c-1.6,2.3-4.1,3.8-7.1,2C420,84.9,422,83.5,423.7,81.9z"/>
		<path class="st39" d="M372.9,71c1.7,0.3,3.4-1,5.1-0.1c0.6,0.8-0.1,1.1-0.5,1.6c-1,1,0.1,3.9-2.7,3.2
			C372.2,75.1,372.4,73.1,372.9,71z"/>
		<path class="st43" d="M441.8,82c0.1,1.5,4.2,0.5,2.2,3.1c-1.5,1.9-3.5,2.2-5.1-0.1C439.5,83.7,440.6,82.7,441.8,82z"/>
		<path class="st2" d="M387.2,70.9c2.9,0.2,5.9,0.2,8.7-0.8c-0.3,2.6-2.2,1.9-3.8,1.9c-2.7,0.1-5.4,0-8.5,0
			C384.9,70.5,386.1,71.3,387.2,70.9z"/>
		<path class="st49" d="M381.8,87.9c-1.5-3.3,2.8-3.5,3.1-5.8c0.7,0,1.3,0,2,0h0.2c0.1,2.9-2,4-4.2,4.9
			C382.5,87.2,382.2,87.5,381.8,87.9z"/>
		<path class="st50" d="M322.9,103.9c0.7,0,1.4,0.1,2.1,0.1c-3.1,1.8-6.5,0.8-9.7,0.9c-6.8,0.2-13.6,0.1-20.4,0.1
			c-5.5,0.6-10-1.4-14-5c-1.6-1.5-2.8-3.2-3.7-5.2c-1.2-2.6-1-4.8,2.4-5.6c3.8,1,4.4,4.8,6.5,7.3c-0.3,2.3,1,3.4,3.1,3.8
			c9.6,1.4,19.2,2.7,28.9,2.2C320,102.5,321.6,102.7,322.9,103.9z"/>
		<path class="st46" d="M347.9,92c2.2-2.8,5-2.9,8-2C353.6,91.9,350.8,92.1,347.9,92z"/>
		<path class="st46" d="M356,90c2.4-2.2,4.2-0.8,6,1c-0.4,0.8-1.2,1-2,1C358.6,91.3,357.3,90.7,356,90z"/>
		<path class="st46" d="M370.8,88c1.5,1.8,2.9-0.2,4.5,0c1.8,0.3,3.9,0.1,2.7,3c-0.3,0.6-0.6,1.3-0.9,1.9c-0.7,0-1.4,0-2.1,0
			c1-1.4,2.7-3.2-1.1-2.9c-1.4,0.1-2.8,0.4-4.1,0.6C369.6,89.4,370,88.6,370.8,88z"/>
		<path class="st51" d="M280.3,89.9c-3,0.5-3.1,2.2-2.1,4.6c0.8,1.9,2.7,3.3,2.8,5.5c-0.7,0-1.3,0-2,0c-0.7-2.7-3.7-4.1-4-7
			c-0.8-1.1-0.9-2.4-1.1-3.7c-0.3-1.7-0.8-3.4,1-4.4c1.8-1,3.1,0.1,4.3,1.3C280,87.3,280.6,88.5,280.3,89.9z"/>
		<path class="st9" d="M161.2,160.9c0-1-0.1-2-0.1-3c0-0.3,0-0.6,0-0.9c0.7-1.3,1.4-2.7,2.1-4c3.2-4.4,7.2-5.2,12.6-4.3
			c9.5,1.5,18.3-0.7,25-8.5c3-3.5,6.3-6.8,9.5-10.1c3.3-3.4,5.1-7.2,5.7-11.8c0.8-5.5,2.5-10.7,7.9-13.6c2.1-1.1,3.3-3.3,4.9-4.9
			c2.7-2.7,2.5-5.7,0.6-8.6c-1.2-2-2.7-3.8-4.3-5.5c-2.1-2.5-3.1-5.1-1.5-8.2c1.1-2.2,0.4-3.5-1.8-4.2c-3.2-1-6.3-2.3-9.7-1.6
			c-3.6,0.8-6.9,0-10.1-1.7c-0.4-0.3-0.8-0.6-1.1-1c0-2.3,0-4.7,0.1-7c2,0.2,2.5,1.5,3,3.3c0.9,3.1,2.8,4.5,5.9,2.3s7-2.4,10-1.2
			c8.2,3.2,15.9,7.5,23.4,11.9c1.1,0.7,1.6,1.6,0.7,2.9c-1,1.3-3,2.4-1.8,4.2c1.5,2.1,1.8,5.5,4.5,6.3c3,0.9,2.8,2.5,2.1,4.9
			c-2.2,7.9-6.1,15.1-9.4,22.6c-2.4,5.4-6.9,9.5-8.2,15.9c-0.9,4.5-3.2,9.5-5.6,14c-1.5,2.8-4.9,3.2-7.1,3.9
			c-4.5,1.4-9.2,3.6-14.4,2.4c-1.9-0.5-4-0.4-5.9-0.4c-9.7,0-19.4,0.9-29.1-0.7C165.5,153.6,163.5,158,161.2,160.9z"/>
		<path class="st52" d="M315,36.1c3.5,0.1,6.8-0.1,10.1,2.7c2.3,2,6.6,1.8,10.1,2.3s6.5,1.6,7.9,5.1c0.8,2,2.4,3,4.1,4.1
			c3.2,2,6,4.4,3.8,8.8c-0.9,0.3-1.4-0.2-1.8-0.8c-1.5-3.1-4.3-4.8-7.2-5.9c-7-2.7-14.4-3.8-21.9-3.7c-0.5,0-1,0-1.5-0.1
			c-7.2-2.5-14.5-1.9-21.9-0.6c-8.3,1.4-16.8,1.3-25.2,1.4c-2.7,0-5.2,0.9-7.8,1c-4.1,0.5-8.3,1-11.7-2.3c-3.4-2.2-7.2-3-11.3-3.1
			c-11.2-0.2-22.4-0.7-33.6-1.1c-5.8-2.4-12-3.3-18.1-5c-1.5-0.4-2.9-0.6-3.9-1.8c2-2,4-4,5.9-6c3.8,0.3,8-0.9,11.1,2.4
			c1.1,1.2,2.1,0,3.2-0.1c1-0.2,2-0.1,2.8,0.5c0.3,0.4,0.6,0.8,0.8,1.3c0.4,1.3,0.6,2.6,2.4,2.6c5.1,0,10.2,0.2,15.3-0.1
			c1.9-0.1,3-2,4.8-2.5c0.6-0.2,1.1-0.3,1.7-0.4c18.8-0.2,37.6-0.6,56.4,0.2C298.1,35.3,306.6,34.8,315,36.1z"/>
		<path class="st51" d="M252,48.1c3.6,1.2,7.2,2.1,11,0.9c5.7,0.4,11.3,0.6,17-0.1c3.3-0.4,6.9-1.2,9.3,2.3c-1.1,2.7-3.6,2-5.6,2.1
			c-4.6,0.1-9.3,0-13.8,1c-3,0.6-4.3,2.1-4,5.2c0.4,4.1,0.4,8.2-0.3,12.4c-0.4,2.1-0.1,4.3,1.1,6.2c2,3.5,2.1,6.7-1.8,8.9
			c-1.6,0.9-1.7,2.8-2.9,3.9c-8.9-4.3-9.6-6.9-8.5-16.4C254.5,65.8,255.4,56.8,252,48.1z"/>
		<path class="st46" d="M262,91c-0.1-2.2,0.1-4,2.7-5.2c2.7-1.2,3.1-3.8,1.2-6.3c-1.9-2.4-2.5-5.2-1.8-8c1.1-4.6,0.7-9.1,0.1-13.6
			c-0.4-3.1,1.4-4.3,4.3-4.9c5.1-1,10.2-0.9,15.4-1c1.7,0,3.7,0.7,5.2-1c-0.1-1,0.5-1.7,1.3-1.8c7.4-1,14.9-3.3,22.4-1.6
			c2.2,0.5,4.3-0.7,6.3,0.4c0.3,0,0.7,0,1,0c3.9,0.2,8-0.3,10.1,4.1c-7.6,2.9-15.6,2-23.5,1.8c-7.1-0.1-14.2,0.1-21.3,0.8
			c-7.4,0.8-14.7,7.7-15.5,13.8c-0.3,2.6-1.9,5-1.5,7.8c0.5,3.1,2.2,3.9,4.8,2.2c5.1-3.3,5.1-3.3,6.9,2.4c0.2,2.1,0.7,4.3-1.1,6
			c-1.3-0.3-2-2.5-3.7-1.4c-1.5,1-0.1,2.4-0.2,3.5c-0.1,1.3,0,2.6,0,3.8c-0.9-0.4-1.5-1.1-1.9-2.1c-2.6-5.8-5-6.1-9.1-0.9
			c-0.3,0.4-0.7,0.7-1,1C262.7,91,262.4,91,262,91z"/>
		<path class="st53" d="M185.1,37.1c6.3,0.4,12,3.1,18.2,4c1.8,0.3,2.8,1.5,3.8,2.8c-1,0.1-2,0.1-3,0.2c-1,0-2-0.1-3-0.1
			c-7.5-0.9-14.1-6.3-22.1-4.1C179.9,36.5,183.7,39.3,185.1,37.1z"/>
		<path class="st54" d="M192.2,16.2c0.7,0,1.4,0,2.1,0c1.5,1,3.1,0.9,4.8,0.9c8,0.1,16-0.3,24,0c-8.3-0.4-16.5,0-24.8-0.1
			c-1.2,0-2.3,0-3.2-1c2.1-1.5,4.5-0.8,6.7-0.8c11.1,0,22.2,0,33.3,0.1c0,0.3,0,0.6,0,0.8c-0.1,0.1-0.2,0.2-0.4,0.3
			c-0.1,0.1-0.3,0.2-0.4,0.3c1.1,1.4,2.7,0.8,4.1,0.8c5.3,0.2,10.6-0.2,15.9,0.2c4.1,0.9,8.4-0.4,12.5,0.8c0.5,0.4,0.7,0.9,0.6,1.5
			c-1.2,2.4-3.3,3.1-5.7,3.1c-13-0.1-26.1,0.1-39.1-0.1c-8.4-0.1-17.2-1.2-25.4,2.1c-0.9,0.4-1.9,0.4-2.9-0.1
			c-1.1-0.5-2.8,1.7-3.2,0c-0.3-1.2-1.6-3.3,0.3-4.4C193.3,19.4,193.2,18,192.2,16.2z"/>
		<path class="st55" d="M319.9,18.1c5.7,0,11.4,0,17.1,0.1c0.2,0.2,0.3,0.5,0.3,0.8s-0.1,0.4-0.1,0.4c-0.8,2.4,1.4,3.4,2.4,5
			c0.9,1.5,2.8,2.3,2.7,4.4c-1.6,2-3.4,1.3-5.3,0.3c-2.8-2.4-5.2-5.2-7.8-7.7c1.4,2.8,4.7,4.3,5.4,7.7c-0.1,0.5-0.3,0.9-0.6,1.3
			c-0.9,0.6-1.9,0.6-2.8,0.3C326.9,26.9,321.8,24,319.9,18.1z"/>
		<path class="st56" d="M358.1,19.9c0.2,0.4,0.4,0.8,0.6,1.2c1.1,0.6,1,1.5,0.8,2.6c-2.6,2.4-3.9-0.8-5.8-1.3
			c0.5,0.8,1.3,1.3,1.9,2.1c1.1,1.4,3.9,2.3,2.3,4.6c-1.4,1.9-3.5,0.9-5.2-0.3c-3-3.6-7.6-5.7-9-10.7c4.8-0.1,9.5-0.1,14.3-0.2
			c0.5-0.2,1,0,1.1,0.5C359.3,19.2,358.7,19.6,358.1,19.9z"/>
		<path class="st57" d="M301,18.2c3.1,0,6.2,0,9.2,0c2.2,2,4.1,4.3,5.8,6.7c1.2,1.7,2.5,3.2,4.9,1.9c1.8,0.3,3.5,0.8,5.2,1.4
			c0.6,1.1,0.5,1.9-0.6,2.6c-4.3,1.2-8.7,0.7-13.1,0.4c-2.2-2.8-3-6.4-6-8.8c-1.5-1.2-2.9-2-4.7-1.9C300.6,19.9,300.2,19.2,301,18.2
			z"/>
		<path class="st58" d="M358.1,19.9c0-0.7,0.7-1.4-0.2-2c6.5-1.7,13.1-0.6,19.6-0.8c4.8-0.2,9.6,0,14.4,0.1c0.6,0.3,0.6,0.7,0.1,1.1
			c-4.6,1.7-9.4,0.2-14.1,0.6C371.3,19.4,364.7,19.6,358.1,19.9z"/>
		<path class="st59" d="M301,18.2c0.1,0.9,0.3,1.6,1.2,1.8c5.2,2,8.6,7,7.2,10.8c-3.3,1-6.5,0.8-9.8,0.2c-2.1-1-3.8-2.2-3.8-4.9
			c0.7-0.9,1.7-1.1,2.8-1c1.3,0.1,2.3,0.9,4,2c-2.6-3.3-5.1-5.4-6.6-8.4C297.5,17.6,299.3,18,301,18.2z"/>
		<path class="st60" d="M266.8,19.1c-4.2-0.4-8.6,1-12.7-1c-0.3-0.2-0.5-0.4-0.4-0.6c0.1-0.2,0.2-0.3,0.3-0.3
			c11.2,0,22.5-0.1,33.7-0.1c0.8,0,1.5,0.5,2.3,0.7c-0.2,0.2-0.4,0.5-0.5,0.7c-5.2,1.9-10.6,0.5-15.9,0.9
			C271.3,19.4,269,19.7,266.8,19.1z"/>
		<path class="st61" d="M325,28.1c-2,2.3-2.8-0.6-4.2-1c-4.2-1.6-7.6-4.1-8.2-9c1.8,0,3.7,0,5.5,0C320.6,21.4,324.6,23.5,325,28.1z"
			/>
		<path class="st62" d="M337,19c0-0.3,0-0.6,0-0.8c1.5,0,3,0,4.5,0c2.6,3.8,7.3,5.9,8.7,10.6c-1.7,2.1-3.5,1.3-5.4,0.2
			C342.2,25.7,337.5,24,337,19z"/>
		<path class="st63" d="M325,28.1c-1.8-3.6-6.1-5.6-6.9-10c0.6,0,1.2,0,1.8,0c3.7,3.9,7.5,7.9,11.2,11.8c-1.7,1.7-3.4,1.7-5.2,0
			C325.9,29.2,325.8,28.5,325,28.1z"/>
		<path class="st64" d="M349.8,28.1c-3.1-3.1-7.1-5.4-8.4-9.9c0.7,0,1.5,0,2.2,0c3.1,3.3,6.2,6.6,9.3,9.9
			C351.9,30.6,350.9,29.5,349.8,28.1z"/>
		<path class="st65" d="M312.6,18.1c2.1,3.6,5.2,6.2,8.2,9c0.1,2.7-1.8,2.4-2.9,1.3c-3.1-3-6.5-5.9-7.7-10.3
			C311,18.2,311.8,18.2,312.6,18.1z"/>
		<path class="st66" d="M296,18.8c3.9,2.4,6.1,6.2,9.4,9.6c-3.6,1.7-4.5-1.3-6.2-2.4c-2.7-1.6-5.4-3.2-4.9-7
			C294.8,18.9,295.4,18.9,296,18.8z"/>
		<path class="st59" d="M294.3,19c1.6,2.3,3.3,4.7,4.9,7c-1.1,0-2.3,0.1-3.4,0.1c-3.8-0.6-5.4-3.4-6.3-6.7c0.1-0.5,0.3-0.9,0.6-1.2
			v-0.3C291.4,18.2,293.1,17.6,294.3,19z"/>
		<path class="st67" d="M254,17.2c0,0.3,0,0.6,0,0.9c-8.1,0-16.2,0.6-24.2-0.4c0-0.4-0.1-0.9-0.1-1.3c1.8-0.1,3.5-0.2,5.3-0.3
			C241.3,18.2,247.7,16.4,254,17.2z"/>
		<path class="st58" d="M412.9,17.3c0,0.5,0,1.1,0,1.6c-3.3,0-6.7,0-10,0c-2.2-0.8-4.4-0.2-6.6-0.4c-1-0.1-2.4,0.5-2.3-1.4
			C400.3,17.2,406.6,17.2,412.9,17.3z"/>
		<path class="st32" d="M394,17.1c2.6,2.4,6.3-0.4,8.9,1.8c-3.6,0-7.3,0.7-10.9-0.7c0-0.4-0.1-0.7-0.1-1.1
			C392.6,17.2,393.3,17.2,394,17.1z"/>
		<path class="st68" d="M201.1,69c0.3,0,0.6,0,0.9,0c0.6,0.6,1.3,1.1,1.6,1.9c1.4,3.4,2.1,6.5,7.5,4.9c3.8-1.1,9.8,9.5,8.2,14.4
			c-2.5,7.7-5.7,15.2-10.2,22c-3.3,4.9-6.3,10.1-9.1,15.4c-2.8,5.2-6.5,9.2-11.6,12.5c-4.6,3-8.5,6-14.4,4.3
			c-2.1-0.6-3.8,1.8-5.6,2.8c-1.5,0.9-2.2,3.1-4.4,2.7c0-7.4,4.8-12.9,7.8-19c6.6-13.6,15.2-26.2,22.4-39.5
			C197.9,84.8,201.5,77.3,201.1,69z"/>
		<path class="st25" d="M164.1,149.9c1.6-2.4,3.8-4.1,6.3-5.5c2-1.3,3.8-3,6.6-0.8c1.8,1.4,4.6,0.4,6.1-0.9
			c6.5-5.3,14.1-9.3,17.3-18.2c2.4-6.5,7.3-12,10.8-18.1c2.6-4.7,4.9-9.7,6.8-14.8c1.9-5.2-0.8-11.3-5.4-14.6
			c-1.8-1.3-2.7,0-3.9,0.8c-2.3,1.5-3.6,0.9-4.4-1.6c-0.7-2.4-1.4-4.7-2.2-7.1c5.3,3.1,11.4-0.1,16.9,2c1.5,0.6,3.2,0.8,4.8,1.4
			c2.4,0.9,4.4,2,1.6,4.9c-2,2.1-1.7,4.5,0.2,6.7c1.8,2,3.4,4,5.1,6.1c2.7,3.3,2.5,7.3-0.6,10.4c-2.4,2.4-4.3,5.2-7.6,6.8
			c-3.8,1.8-4.9,6.5-4.9,9.8c-0.2,10.5-8.5,15.1-13.9,22c-4,5.1-8.7,8.4-14.7,9.9c-4.4,1.1-9,3.1-13.5,0.9c-5.2-2.5-8.3,1.4-12.2,3
			C163.1,151.8,162.9,150.7,164.1,149.9z"/>
		<path class="st69" d="M194.1,25.1c6.7-4,14.2-2.7,21.5-3.2c7.4-0.5,14.8,0.4,22.2,0c7.7-0.4,15.4-0.1,23.1,0c2.5,0,3.9-1,5.8-1.8
			c1.5,0.6,1.8,2,1.8,3.4c-0.4,2.5,0.3,5.1-1.5,7.3c-4.1,2-8.4,0.5-12.5,0.3c-1.2-0.1-2.3-1.1-2.3-2.3c0-4.5-3-4.1-6.1-4.3
			c-11.9-0.5-23.7,1.7-35.6,1c-5.5,0.1-6.1,1-5.3,7.2c0.1,0.5,0.1,0.9-0.2,1.3c-0.5,1.1-2,2.5-2.5,1.6c-2.6-5-8.2-1.8-11.6-4.5
			C190.3,28.2,193.5,27.3,194.1,25.1z"/>
		<path class="st67" d="M195.1,16c10.9,0,21.8,0,32.6,0c0,0.5,0,1,0,1.5c-4.4-0.2-8.3,1.5-13.2,0.3c-4.7-1.2-10.1,0.1-15.1,0.3
			c-1.9,0.1-4.1,0.4-5.2-1.9C194.5,16.1,194.8,16.1,195.1,16z"/>
		<path class="st70" d="M421.8,9c2.1-2,4.5-2.5,7.1-0.9C426.7,10,424.2,8.8,421.8,9z"/>
		<path class="st24" d="M358.8,23.9c0-0.9-0.1-1.8-0.1-2.7c8.8,3.4,17.8,0.6,26.6,0.6c11.5-0.1,22.8,1.3,34.4,0.7
			c7.7-0.4,15.6-0.2,23.4,0.4c4.9,0.4,7.5,2.7,9.9,6.2c-11.3-3.3-22.7-1.3-34.1-1.2c-9.7,0.1-19.5-1.1-29.2-0.5
			c-10.2,0.6-20.3,1.7-30.6,1.8C358.1,27.4,357.7,25.7,358.8,23.9z"/>
		<path class="st71" d="M209.1,24.1c13.1-0.3,26.1-0.6,39.2-0.9c3-0.1,5.8,0,4.8,4.5c-0.3,1.2,0.3,2.5,1.8,2.4
			c4.1-0.4,8.1,1.3,12.2-0.1c0.9-0.7,1.9-1.1,3-1.1c1.3-0.1,2.7,0,4-0.1c1.3,0,2.7,0,4,0c1.3-0.1,2.7,0,4,0c1.3-0.1,2.7,0,4,0
			c1.4,0,2.7,0.1,4.1,0c1.4,0,2.8,0.1,4.1,0c1.7,0,3.3,0.5,4.9,1.3c3.6,0,7.2,0,10.9,0c0.4-0.4,0.8-0.4,1.2,0c4.9,0,9.8,0,14.8,0
			c1.7,0,3.5,0,5.2,0c0.9,0,1.9,0,2.8,0c8.4-1.1,16.7-0.5,25,0.2c6.5,0.8,13.1,0.5,19.6,0c2.4-0.2,4.6,0,6.5,1.8
			c-0.6,0.8-1.5,1.2-2.5,1.3c-4.1-0.9-8.2,0.2-12.3,0.2c-8.7-0.1-17.5-0.9-26.2-0.6c-20.1,0.7-40.2-1.2-60.2,0.9
			c-9.7,1-19.2-1-28.7,0.1c-2,0.2-3.8-1.1-4-3.1c-0.4-4.2-3.1-4.4-6.3-4.4c-10,0.1-19.9,0.1-29.9,0c-1.8,0-3.7,0.2-5.4-0.8
			C208.9,25.2,208.8,24.7,209.1,24.1z"/>
		<path class="st72" d="M382.9,32.1c0.7,0,1.4-0.1,2.1-0.1c17.9-1.8,35.9-0.5,53.8-0.7c5,0,10.2,0,15,1.8l0,0
			c-5.2,1.3-10.5,0.8-15.7,0.7c-11.3-0.3-22.6-0.7-33.9,0.3c-4.8,0.6-9.6,1-14.4,1c-5.9-0.1-11.3,1.8-16.4,4.5
			c-1.2-0.5-1.3-1.6-1.2-2.7c1.2-1.4-1.5-2.4-0.4-3.7C375.4,31.2,379.3,33,382.9,32.1z"/>
		<path class="st73" d="M358.9,30.1c-8.3-0.1-16.7-0.1-25-0.2c0-0.3,0-0.5,0.1-0.8c0.8-1,1.9-1.1,3-1.1c1.6,0.8,3.1,2.4,4.8,0.1
			c1-0.9,2.3,0,3.4-0.3c1.5,1,3,2.5,4.7,0.3c1,0.1,2.1,1.6,3.1,0c1.4,0.8,2.8,1.7,5.3-0.1c-2.3-2-4.4-3.9-6.5-5.9
			c-0.6-0.6-1-1.5-0.4-2.2c0.9-1.1,1.7-0.2,2.5,0.3c1.7,1.2,2.5,3.6,5,3.6c0.1,1.7,0.2,3.5,0.3,5.2C359,29.4,359,29.8,358.9,30.1z"
			/>
		<path class="st74" d="M414.9,65.1c-0.3-1-0.6-2-1-3.1c0.5-3.1,2.1-5.6,4.2-7.8c2.6-2.2,3.4-5.6,5.5-8.1c2.5-2.9,5-4.1,8.3-1.3
			c1.4,1.8-1.5,3.8,0.4,5.6c0.1,0.4,0.1,0.9,0,1.3c-1.2,2.4-3.4,3.8-5.9,4.2c-4,0.6-5.7,2.9-5.9,6.7c1.8,2,4.1,0.8,6.1,1
			c5.1,0.4,10.2-0.7,15.2,0.7c0.4,0.1,0.5,0.2,0.4,0.1c-0.1,0,0-0.3,0.1-0.5c1-2.2,2.7-1.5,4.3-0.9c0.4,0.3,0.8,0.6,1.2,0.9
			c-0.2,2.9-2.4,1.9-4,2.2c-5.3,1.9-10.8,0.6-16.2,0.9c-3,0.2-5.9,0.1-8.9,0C417.3,66.9,415.4,67.4,414.9,65.1z"/>
		<path class="st75" d="M447.8,63.9c-0.3,0-0.6,0-0.9,0.1c-5.2-6.5-8.3-14.3-12.6-21.4c0-0.5,0.1-1,0.4-1.4c2-4.5,5.9-3.2,9.3-2.8
			c2.9,0.3,5.8,1.1,8.7,1.6c-0.4,3.3-2.9,2.1-4.5,1.7c-2.5-0.6-4.9-0.7-7.4-0.6c-2,0-3.4,0.6-2,3c2.6,5.1,5.1,10.2,7.9,15.3
			C447.7,60.8,448.1,62.3,447.8,63.9z"/>
		<path class="st76" d="M414.9,65.1c3.4,2,7.1,0.7,10.6,0.9c6.1,0.2,12.2,0.1,18.3,0.1c-0.3,0.6-0.6,1.3-1,1.9
			c-7.9,0-15.8,0.1-23.7-0.1C417.5,67.9,414.3,69.1,414.9,65.1z"/>
		<path class="st77" d="M438.9,44c-1.5-0.9-0.9-2.7-2.7-4.4c4.7,0.7,8.4,0,12,1.2c1.4,0.5,3.3,0.8,4.5-0.9c0.3-0.3,0.6-0.6,1-0.9
			c0.5,5.2-2.8,3.8-5.7,3.6C445,42.4,441.5,40.2,438.9,44z"/>
		<path class="st78" d="M434.8,41.2c0,0.3,0,0.6,0,1c-0.4,1.5-0.5,3.3-2.8,2.9c-0.3,0.1-0.7,0.4-0.9,0.3c-6-2.6-7.1,2.5-9.3,5.9
			c-0.9,1.3-1.2,3.1-2.9,3.7c-1.4-2.4,0.5-4,1.2-6s2.5-3.6,2.2-5.9c-4.1-1.4-8,2.2-12,0.3c-0.6-2.2-0.9-4.3,2.2-4.8
			c6.2,0,12.4-0.3,18.5,0.5C432.7,38.9,433.6,40.4,434.8,41.2z"/>
		<path class="st79" d="M403,33.1c16.9,0,33.9,0,50.8,0c-0.1,2.7-2.2,1.6-3.3,1.6c-10-0.1-20.1-0.4-30.1-0.5
			c-3.8-0.1-7.6-0.1-11.5,0c-1.1,0-2.6-0.5-3.2,0.6c-0.9,1.5,1.1,2.1,1.5,3.3c0.7,0.6,1.6,1.2,1.2,2.3c-0.4,1.2-1.4,1-2.4,0.7
			c-0.9-0.3-1.6-0.8-2.2-1.6c-0.2-0.4-0.4-0.8-0.5-1.2C403.3,36.5,400,35,403,33.1z"/>
		<path class="st80" d="M430.9,39.1c-1.4,1.3-2.2,4.5-4.7,0.5c-1.2-1.8-4.6-0.5-7-0.6c-2.1-0.1-4.2,0-6.3-0.1
			c-0.3-0.2-0.4-0.4-0.3-0.6s0.2-0.3,0.3-0.3c4,0.6,8-1.5,12.1-0.2c1.9,0.6,2.1-2.4,4.2-2.5C429.9,36.5,428.6,38.8,430.9,39.1z"/>
		<path class="st80" d="M405.8,40.2c3.2,1,1.4-1.1,1.3-2.1c1,0,1.9,0,2.9,0.1c0.4,3.1,0.5,6.1-1.1,8.9l0,0c-2.1,0.3-2-1.7-2.8-2.8
			C405.7,43,404.8,41.6,405.8,40.2z"/>
		<path class="st81" d="M408.9,47.1c-0.5-3.1,0.8-6,1.1-8.9c1,0,1.9,0,2.9,0c0,0.3,0,0.6,0,0.9c-3.1,0.8-1.6,3.3-1.9,5.1
			c0.8,1.4,1.1,2.6-1,3.1C409.6,47.1,409.3,47.1,408.9,47.1z"/>
		<path class="st82" d="M390.9,61c0.1,2.6,0,4.9-3.7,3.3c-0.7-0.3-1.6-0.2-2.4-0.3c-7.7-0.5-9.4-3.2-6.8-11c-1-3.3,1.3-4.7,3.7-5.7
			c1.8-0.7,3.7-1.1,5.6-1.7c0.5,0,1,0.1,1.4,0.4c2.4,2.2,1.6,5.1,1.8,7.8C390.6,56.2,389.9,58.7,390.9,61z"/>
		<path class="st83" d="M403,33.1c-2.3,2.1,2.3,3,0.9,5c-0.7,0.6-1.3,0.5-1.9-0.2c-5.5-1.7-6.6-1.1-8,4.2c-1.9,1.3-3.3,0.2-4.8-0.9
			c-4.2-3.2-7.7-2.4-10.3,2.2c-0.5,0.9-1,1.7-1.7,2.4c-1.1,1.1-2.3,2.1-3.9,1.4c-1.4-0.6-1.3-2.2-1.3-3.5c0.1-1.6-0.5-3.3,1-4.6
			C381.8,31.2,392.8,34.4,403,33.1z"/>
		<path class="st79" d="M373,39.1c0,1.2-0.2,2.3,0,3.5c0.2,1.4-0.8,3.6,1,3.9c1.9,0.3,3.1-1.7,3.8-3.4c2.6-6.2,7.7-7.1,12.6-2.3
			c1.1,1.1,2.3,1.2,3.6,1.3c0.5,6.6-1.9,13-2,19.6c0-4.2,0-8.4,0-12.6c0-2,0.3-4.1-2-5.1c-1.6-0.4-2.4-2.1-4.1-2.5
			c-2.3-0.6-3.9-0.2-3.6,2.7c-1.6,2.1-3.7,3.6-5.4,5.6c-2.2,1-2.9,2.7-3,5.1c-0.1,3.1,0.7,6.1,0.1,9.2c0,0.7-0.1,1.5-0.1,2.2
			c-0.3-0.1-0.6-0.1-0.9-0.2c-0.9-0.5-1.5-1.3-1.5-2.4c0-8.6,0-17.3,0-25.9c0-0.9,0.2-1.7,1.4-1.5C372.9,37.2,373,38.1,373,39.1z"/>
		<path class="st84" d="M405.9,63.1c0.2,1.5-1.2,1.9-1.9,2.8c-2.1,0.5-4.1,0.9-6.2,1.4c-0.1-0.2-0.2-0.5-0.3-0.7
			c0.5-6,1.1-12,0.9-18c-0.1-2.1,0-4.3,1.2-6.2c4-1.1,5.3-0.3,5.6,4c0.3,4.8,0,9.6,0.2,14.4C405.5,61.5,405.3,62.3,405.9,63.1z"/>
		<path class="st85" d="M404.9,62c-2.2-5.1-0.5-10.4-0.9-15.5c-0.3-4-0.4-4.1-4.1-3.4c-3,7.7-2.2,15.8-1.9,23.8l-0.2,0.3
			c-2.4,1.7-2.9,0.4-2.9-1.8c0-6.6-0.3-13.3,0.2-19.9c0.3-3.7,3.5-6,6.8-7.6c0.6,0.1,1.2,0.1,1.9,0.2c0.1,0.3,0.1,0.6,0.1,0.9
			c0.8,1.8,2,3.6,2,5.7C405.9,50.5,407.6,56.4,404.9,62z"/>
		<path class="st86" d="M377,49c0.2-3.1,2.8-3.8,5-5c2.7-1.4,4.9-1.3,6,2c-1.8,1.6-4,1.8-6.2,2.4c-2,0.6-3.6,2.3-3.8,4.6
			c-0.8-0.4-0.9-1.2-1-2C376.3,50.4,376.9,49.7,377,49z"/>
		<path class="st87" d="M387.9,46.1c-1.7-1.5-3.8-1.9-6-2c-0.3-1.3-2.3-3-0.7-3.7c2.1-0.8,4.9-1.1,6.9,0.7c0.8,0.7,1.2,1.9,1.7,2.9
			c0,0.7,0,1.3,0,2C389.3,46.7,388.6,46.6,387.9,46.1L387.9,46.1z"/>
		<path class="st88" d="M377,49c1.1,0.7,0.1,1.3,0,2c-3.5,2.5-1.7,6-1.8,9.1c0,1.3,0.5,2.6,0.7,3.9c-0.7,0-1.3,0-2,0
			c-1.8-3.6-0.9-7.5-0.9-11.2C373.1,50.6,374.7,49.3,377,49z"/>
		<path class="st86" d="M387.9,46.1c0.7,0,1.3,0,2,0c2.3,4.9,0.5,10,1,15c-1.8-2.2-0.7-4.7-0.9-7.1
			C389.8,51.1,389.7,48.4,387.9,46.1z"/>
		<path class="st89" d="M410,47.2c1.1-0.8,0.9-2,1-3.1c3.3-3,7.7-1.9,11.6-2.9c2.2-0.6,2.2,1.1,1.5,2.8c-1.6,3.7-4.1,7.1-5.1,11.1
			c-2.5,1.7-2.2,5.4-4.9,7c-1.5-0.7-2.3-1.9-1.7-3.6c0.8-2.1-0.1-3.8-1.3-5.4C410.6,51.1,410.3,49.1,410,47.2z"/>
		<path class="st81" d="M407,43.9c0.6,1,1.3,2.1,1.9,3.1c0.7,3.6,0.1,7.1,0,10.7c0,1.5,0.2,3.1-2,3.3
			C405.3,55.3,405.3,49.6,407,43.9z"/>
		<path class="st90" d="M407,43.9c0,5.7,0,11.4,0,17.1c-0.3,0.3-0.7,0.6-1,0.9c-1.2-4.5-0.2-9.1-0.6-13.6c-0.1-1.8,0.4-3.6-0.4-5.3
			c0.5-1.6-2.3-2.3-1-4c0.6,0.4,1.2,0.8,1.8,1.2C406.2,41.4,406.6,42.7,407,43.9z"/>
		<path class="st91" d="M405,43c1.9,6.2,0.3,12.7,1,19c0,0.4-0.1,0.7-0.1,1.1c-0.3-0.4-0.6-0.7-1-1.1C405,55.7,405,49.3,405,43z"/>
		<path class="st92" d="M382.9,32.1c-1.8,1.8-4.1,0.7-6.1,1c-1.7,0.2-3.7-0.6-5,1.3c-0.6,0.2-1.2,0.3-1.9,0.2
			c-13.3-0.2-26.6,0.4-39.9-0.3c-11.6,0-23.3,0-34.9,0c-0.9,0.6-1.8,0.8-2.8,0.8c-13,0.1-26,0-39,0c-2,0-3.7-0.6-4.3-2.7
			c-0.9-3.2-3.2-3.8-6.1-3.8c-3.5,0-7,0.3-10.5-0.4c-7.2-0.9-14.3-1.7-21.4,0.3c-1.6,1.6,0.3,5.2-3.2,5.7c-1-0.1-1.9-0.1-2.9-0.2
			c-0.1-0.2-0.2-0.5-0.2-0.7c-1.2-2.2-0.5-4.4,0.1-6.5c0.5-2.1,2-2.7,4.1-1.7c12.6,0,25.3,0.1,37.9,0c3.3,0,5.6,0.2,5.1,4.4
			c-0.2,1.8,0.6,3.9,2.6,3.3c5-1.6,9.9,0.5,14.8,0.2c22.7-1.3,45.5-0.5,68.2-1.1c10.7-0.3,21.3,0.4,32,0.2
			C374.1,32,378.5,30.3,382.9,32.1z"/>
		<path class="st93" d="M232.2,27c4.6,0,9.3,0.2,13.9,0.1c2.5-0.1,4.2,0.4,4,3.4c-0.1,2.9,1.4,3.7,4.3,3.7c13.6-0.1,27.2,0,40.8,0.1
			c-0.2,0.2-0.3,0.5-0.4,0.8c-1.5,1.1-3.2,0.6-4.8,0.6c-17,0-33.9,0-50.8,0c-2.3-0.7-4.9,0-7.2-1.1c-1.7-2.2-1.5-4.5-0.5-6.8
			C231.7,27.4,232,27.2,232.2,27z"/>
		<path class="st94" d="M238.1,35c18.9,0,37.8,0,56.7,0c5.1,0,10.3,0.1,15.5,0.2c1.6,0,3.4-0.6,4.7,0.9c-27.6,0-55.3,0-82.9,0
			c-0.3-0.6-0.2-1,0.4-1.4C234.3,34.7,236.3,34.2,238.1,35z"/>
		<path class="st95" d="M350,58c0.3,0.3,0.7,0.7,1,1c0,1.3,0,2.6,0,4c1.7,3.7-3.3,4.9-3,8.1c0.8,1.3,1.2,2.6-0.9,3
			c-1.3,1.8-2.6,3.7-3.1,6c-0.1,2.3-0.9,2.7-2.6,1.1c0.1-5,2.7-9.8,1.3-14.9c0.5-0.9,1.3-1.4,2.1-1.8c4.4-0.2,2.5-4.3,4-6.4
			C349.2,57.7,349.6,57.7,350,58z"/>
		<path class="st96" d="M330.1,34.2c13.6,0,27.2,0,40.8,0c0.3,0.2,0.4,0.3,0.3,0.5S371,35,370.9,35c-0.7,0-1.3,0.1-2,0.1
			c-11.2,0-22.4,0-33.6-0.1C333.6,35,331.7,35.6,330.1,34.2z"/>
		<path class="st39" d="M370.9,35c0-0.2,0-0.5,0-0.7c0.3-0.1,0.6,0,1,0.1c-0.1,0.9,2.1,0.5,1,1.9c-1.9,3.1-1,6.5-0.8,9.6
			c0.3,6.7-1.1,13.5,0.9,20.2c-2.8-0.5-2-2.7-2-4.3C370.9,52.8,370.9,43.9,370.9,35z"/>
		<path class="st97" d="M291,100c11.7-0.3,23.3-0.5,35-0.8c-0.1,2.2-3.9,2-3.1,4.8c-5.6,0-11.2,0-16.8,0c-6.2,0.1-12.2-1.7-18.2-2.8
			C288.5,99.8,290.1,100.7,291,100z"/>
		<path class="st39" d="M338.2,89c1.3-2.7,2.5-5.4,3.8-8.1c1.4,1.2,1.5-0.3,2-0.9C345.1,85,341.8,87.1,338.2,89z"/>
		<path class="st29" d="M347.1,74.1c1-0.8,0.8-1.9,0.9-3c0.7-0.2,1.4-1.7,1.7-0.9c0.7,1.8,0.4,4-1.4,5.2
			C347.4,76.1,347.2,74.8,347.1,74.1z"/>
		<path class="st51" d="M382.9,86.9c1.4-1.6,2.8-3.3,4.2-4.9c0.3,0,0.5,0,0.8,0c0.2,1.4,3.9,1.2,1.9,3.5
			C388,87.6,385.7,88.8,382.9,86.9z"/>
		<path class="st98" d="M372.9,85c-1.4-0.2-3.5-0.4-3.3-2c0.1-1.6,2.2-0.7,3.3-1C373.6,83,373.6,84,372.9,85z"/>
		<path class="st99" d="M291,100c-0.7,1.2-2,0.9-3.1,1.2c-1.7-0.9-5.9-0.6-2-4.1C287.6,98,289.3,99,291,100z"/>
		<path class="st44" d="M319,48c-7.3,1.3-14.7-0.3-22,1.4c-2.7,0.6-5.6,0-8,1.6c-3.6-1.4-6.9-1.1-10.8-0.6c-4.8,0.7-10.3,1-15.2-1.4
			c12.7-0.8,25.6-0.6,38.1-2.7C307.7,45.3,313.2,45.8,319,48z"/>
		<path class="st44" d="M350,58c-0.3,0-0.7,0-1,0c-6.3-2.1-13.1-2.6-18.9-6c-3-2.2-6.7-2.6-10-4c6.1-2.2,11.8,0.7,17.7,1.5
			c4,0.6,7.5,2.7,10.7,5.2C349.6,55.7,350,56.7,350,58z"/>
		<path class="st53" d="M231.1,36.1c-1.2,2.4-3.2,3.1-5.7,3c-4.3-0.1-8.7-0.6-12.9,0.1c-4.1,0.7-4.7-0.9-4.3-4.2
			c6.6-0.8,13.2-0.3,19.9-0.3C229.2,34.8,230.3,35.1,231.1,36.1z"/>
		<path class="st100" d="M231.1,36.1c-5.9,0-11.8,0-17.7,0c-1.8,0-3.6,0-5.2-1c0-0.3-0.1-0.6-0.1-0.9c2-2.1,0.4-4.8,1.1-7.1
			c0.5-0.4,1-0.3,1.4,0.2c1.2,1.7,0.4,4.1,2,5.7c4.3,1.7,8.7,0.4,13.1,0.8c2.2,0.2,4.6-0.3,6.5,1.4c-0.1,0.3-0.1,0.7-0.1,1h-0.5
			L231.1,36.1z"/>
		<path class="st101" d="M330,52c6.4,1.6,13.3,1.7,18.9,6c0,3.1,2.2,7.4-3.9,7c-1.6-5.7-6.2-6.4-11-6.5c-9.6-0.2-19.3,0-28.9-0.1
			c-5.7,0-11.3,0-16.9,0c-6.5-0.4-11.4,2.5-15.2,7.6c-1,1.4-1.5,3.5-3.9,3c-1.9-2.9,0.1-6,1.6-7.2c5.4-4.1,10.4-8.9,18.2-9
			C302.5,52.7,316.3,53.3,330,52z"/>
		<path class="st102" d="M269,69c3.1-2.8,4.4-7.2,8.6-9.2c3-1.4,5.9-2.9,9.3-2.8c0.2,2.3-1.8,2.5-3.2,3.1c-4,1.6-6.7,4.7-9.3,7.9
			c-2.5,3.2-2,4.5,1.8,5.4c1.7,0.4,3.3,0.5,3.5,2.6c0.3,1.5-0.5,2.7-1,4c-1.3-0.7-0.6-2.4-1.7-3.6c-0.9,0.9-1.7,1.8-2.6,2.4
			c-1.5,1-2.2,3.9-4.7,2.5c-2.1-1.2-3.1-3.1-3-5.8C267,73,268,71.1,269,69z"/>
		<path class="st103" d="M277.9,30c-1.3,0-2.5,0-3.8,0c-2.7-1.4-4.9-3.2-6.1-6.2c0-0.2,0-0.5,0-0.7c-0.4-1-0.9-2-1.3-3
			c0.1-0.3,0.2-0.6,0.1-1c1.9-1.7,4.1-0.8,6.2-0.8c0.3,0.4,0.4,0.8,0.3,1.2c0,2.7,2.2,4.3,3.5,6.3C277.7,27,279.5,28.1,277.9,30z"/>
		<path class="st104" d="M337,28c-0.7,1.2-1.9,1-3,1.1c-2.6-3.1-5.2-6.2-7.8-9.4c0.3-0.3,0.6-0.7,0.9-1
			C331.2,20.8,333.8,24.8,337,28z"/>
		<path class="st105" d="M345.1,27.8c-1,1.9-2.2,0.5-3.4,0.3c-2.7-1.9-4.5-4.6-6.5-7.2c-2.1-2.7,0.7-1.7,1.7-1.9
			C339.7,22,342.4,24.9,345.1,27.8z"/>
		<path class="st106" d="M311.1,30c-0.4,0-0.8,0-1.2,0c-1.7-4-4.7-6.9-7.7-10c1.2-1.5,2.5-1.3,3.7,0c1.9,2,3.7,4.2,5.7,6.1
			C313.6,27.8,312.5,28.8,311.1,30z"/>
		<path class="st107" d="M299.1,30c-1.7,0-3.5,0-5.2-0.1c-3.4-1.6-4.5-5.1-6.8-7.7c-0.7-0.8-1.8-2.1-1-3c1-1.1,2.6-1.2,3.8,0.1
			c1.6,2.6,3.5,4.9,5.9,6.8C296.9,27.4,298,28.7,299.1,30z"/>
		<path class="st108" d="M289.9,19.3c-1.1-0.3-2.2-0.8-3.4,0.1c2.4,3.5,4.9,7,7.3,10.5c-1.2,0-2.5,0-3.7,0c-4-1.8-5.6-6.2-8.9-8.3
			c1,2.8,5.6,4,4.6,8.3c-1.2,0-2.4,0-3.6,0c-3.5-3.1-7.6-5.8-9.3-10.5c0-0.4,0.1-0.7,0.1-1.1c5.7,0,11.3-0.1,17-0.1
			C290,18.6,289.9,19,289.9,19.3z"/>
		<path class="st109" d="M209.1,25.1c-5.7,0.6-3.3,5.2-4.2,8.2c-3.5-2.3-0.5-5-0.3-7.4c0.2-2.2,2.7-1.9,4.5-1.8
			C209.1,24.4,209.1,24.7,209.1,25.1z"/>
		<path class="st103" d="M269.9,30c-1,0-1.9,0-2.9,0c0.2-2.3-0.8-4.8,1-6.9l0,0C267.9,25.6,271.6,27,269.9,30z"/>
		<path class="st110" d="M285.8,29.9c-1.5-4-5.6-6.3-7.6-11.6c5.9,2.9,8.7,7.5,12,11.6C288.7,29.9,287.3,29.9,285.8,29.9z"/>
		<path class="st111" d="M272.9,19.3c3,3.6,7.1,6.2,9.3,10.5c-1.4,0-2.9,0.1-4.3,0.1c-0.6-3.3-3.8-4.8-5-7.6
			C272.6,21.6,270.1,20.2,272.9,19.3z"/>
		<path class="st112" d="M269.9,30c-0.5-2.3-2.4-4.3-1.9-6.9c2,2.3,4.1,4.6,6.1,6.9C272.7,30,271.3,30,269.9,30z"/>
		<path class="st113" d="M431.9,45.1c0.9-1,1.9-1.9,2.8-2.9c5,6.8,8.9,14.1,12.1,21.8c-1.4,0.3-2.6-1.6-4.1-0.3
			c-0.4,1-1.2,0.7-2,0.6c-2.8-0.8-5.7,0.1-8.5-0.7c-0.4-0.2-0.7-0.6-0.9-1.1c1.4-2.9,1.8-6.1,2.6-9.2c0.5-2.1-0.2-3.1-2.2-3.4
			c-0.7,0.2-1.5,1-2.2,0.1c-0.5-0.6-0.1-1.2,0.4-1.7C431,47.5,431.9,46.5,431.9,45.1z"/>
		<path class="st114" d="M431.9,62.1c0,0.3,0,0.6,0,0.9c-3,2.2-6.5,0.4-9.7,1.3c-1.3,0.1-2.8,1-3.5-0.9c1.1-4.3,1.8-8.8,8.1-8.6
			c1.8,0,3.9-1.7,5.1-3.6c3.2,1.2,1.1,3.3,0.8,5.1C432.3,58.1,429.8,59.8,431.9,62.1z"/>
		<path class="st115" d="M431.9,62.1c-2-0.2-4.8,0.5-1.9-3.2c1.4-1.8,4-4.5,1.9-7.7c0-0.4,0-0.7,0-1.1c1.5-1.3,4-1.4,3.7,0.5
			C434.9,54.5,435.8,59.1,431.9,62.1z"/>
		<path class="st116" d="M418.7,63.3c1,0.9,2.1,0.7,3.3,0.5c6.3-0.5,12.5-0.5,18.8,0c0.7,0,1.4-0.1,2.1-0.1c0.5,0.7,0.4,1.3-0.5,1.3
			c-7.5,0-14.9,0-22.4,0C419.1,65,417.8,64.9,418.7,63.3z"/>
		<path class="st117" d="M398,66.9c-0.4-0.1-1.3-0.3-1.3-0.4c0.4-7.9-2.1-16.2,3.2-23.5c0.2,6.2-0.8,12.4-0.3,18.6
			C399.8,63.4,398.6,65.2,398,66.9z"/>
		<path class="st109" d="M209.8,27.1c-0.2,0-0.5,0-0.7,0c7.7-1.7,15.3-1.5,23-0.1l-0.2,0.2c-0.5,0.4-1,0.8-1.6,1
			C223.5,28.4,216.5,30,209.8,27.1z"/>
		<path class="st52" d="M232.1,35.1c-7.3-0.6-14.7,1.1-22-0.8c4.2-3.1,9.1-1.3,13.7-1.7c2.7,0.3,5.7-0.7,8.1,1.5
			c2.1,0.4,4.3-0.6,6.2,0.9C236.1,35,234.1,35,232.1,35.1z"/>
		<path class="st118" d="M231.9,34.1c-2.7,0-5.3-0.1-8-0.1c-0.6-1.1-0.1-2.2,0.9-2.1c3.8,0.5,4.9-2.1,6.1-4.7c0.3-0.1,0.6-0.1,0.9,0
			C232,29.5,231.9,31.8,231.9,34.1z"/>
		<path class="st119" d="M280,76c-1.5-2.4-4.2-0.8-6.2-1.8c-2.6-1.3-3.2-2.3-1.6-4.8c3.5-5.9,9-9.4,14.9-12.3
			c15.7,0,31.5,0.1,47.2,0c3.4,0,6.5,0.9,9.5,2.5c2.5,1.4,3.8,3.1,1.3,5.6c-0.7,0.4-1.5,0.7-2.2,1.1c-2.6-1.5-5.5-2-8.5-2.1
			c-11.9-0.4-23.8-0.5-35.6,0.7c-1.3,0.1-2.7-0.2-3.6,1.1c-1.2,1.3-2.9,1.5-4.4,2c-3,0-3.7,3.7-6.4,4C279.9,70.4,281.6,75,280,76z"
			/>
		<path class="st120" d="M293.8,77c1,2.7,2,5.3,3,8c-0.9,1.3,0.7,3.8-1.5,4.3c-2.2,0.5-3.5-1.4-4.7-3c-1-1.8-2.6-3.3-2.6-5.6
			c0.8-2.5-0.3-6,3.3-7.1C293.3,73.9,292.8,76,293.8,77z"/>
		<path class="st121" d="M293.8,77c-2-0.2-1.8-1.6-1.8-3c-0.8-0.8-1-3.5-3-1c-0.6,0.7-1.4,1.3-2.5,1.2c-2.2-4.1,0.9-5.5,3.6-7.2
			c1.5-1,3.2-1.1,4.9-1.1C294.1,69.6,293.3,73.2,293.8,77z"/>
		<path class="st122" d="M290,67.1c-1.3,2.2-5.1,3.3-3.1,7c1.9,1.8,1.4,4.3,1.5,6.5c-0.1,0.8-0.2,1.5-1.3,1.4
			c-1.6-3.2-2.9-6.4-3.1-10C285.8,70.1,286.6,66.9,290,67.1z"/>
		<path class="st123" d="M291,86.1c2.3,1.7,4.8,4.5,5.8-1.1c0.6,1.9,1.2,4.2-1.2,5c-2.6,0.9-4.2-0.9-5.4-3.1
			C290.3,86.5,290.6,86.2,291,86.1z"/>
		<path class="st124" d="M291,86.1c-0.3,0.3-0.5,0.6-0.8,0.9c-1.6-1.3-2.5-3-3-5c0.3-0.3,0.6-0.7,0.9-1c0.3-0.4,0.6-0.4,0.9,0.1
			C289.6,82.7,290.3,84.4,291,86.1z"/>
		<path class="st125" d="M231,27.1c0.7,4.6-0.6,7.2-5.9,5.6c-0.8-0.2-1.1,0.6-1.2,1.2c-4.6,0.1-9.2,0.2-13.8,0.3
			c-0.1-2.4-0.2-4.8-0.3-7.2C216.9,27.1,224,27.1,231,27.1z"/>
		<path class="st126" d="M440.8,63.9c-6.3,0-12.5,0-18.8,0c3.2-1.7,6.6-0.4,9.9-0.9C434.8,63.5,438,62.2,440.8,63.9z"/>
		<path class="st127" d="M289,81c-0.3,0-0.6,0-0.9-0.1c-0.7-2.3-1.3-4.5-1.1-6.9c1.2-1.8,2.5-3.4,4.5-4.4c1,1.4,0.4,2.9,0.5,4.3
			C288.5,75.3,290.4,78.9,289,81z"/>
	</g>
</g>
</svg>
