<?xml version="1.0" encoding="utf-8"?>
<!-- Generator: Adobe Illustrator 25.0.0, SVG Export Plug-In . SVG Version: 6.00 Build 0)  -->
<svg version="1.1" xmlns="http://www.w3.org/2000/svg" xmlns:xlink="http://www.w3.org/1999/xlink" x="0px" y="0px"
	 viewBox="0 0 690 208.1" style="enable-background:new 0 0 690 208.1;" xml:space="preserve">
<style type="text/css">
	.st0{display:none;}
	.st1{display:inline;stroke:#FFFFFF;stroke-miterlimit:10;}
	.st2{fill:#777469;}
	.st3{fill:#ABABAB;}
	.st4{fill:#363A3B;}
	.st5{fill:#CBCDCD;}
	.st6{fill:#CCCECE;}
	.st7{fill:#1F2223;}
	.st8{fill:#252828;}
	.st9{fill:#0D0E0E;}
	.st10{fill:#1C1D1C;}
	.st11{fill:#5F6463;}
	.st12{fill:#555652;}
	.st13{fill:#1E2121;}
	.st14{fill:#313434;}
	.st15{fill:#141515;}
	.st16{fill:#2C2D2A;}
	.st17{fill:#4B4B45;}
	.st18{fill:#383C3D;}
	.st19{fill:#373734;}
	.st20{fill:#1C1E1E;}
	.st21{fill:#5D6769;}
	.st22{fill:#282A29;}
	.st23{fill:#7A807E;}
	.st24{fill:#181A1A;}
	.st25{fill:#161818;}
	.st26{fill:#67787E;}
	.st27{fill:#242828;}
	.st28{fill:#656B6A;}
	.st29{fill:#596468;}
	.st30{fill:#3C4040;}
	.st31{fill:#272A2B;}
	.st32{fill:#718287;}
	.st33{fill:#36393A;}
	.st34{fill:#949C97;}
	.st35{fill:#1F2222;}
	.st36{fill:#1D1E1E;}
	.st37{fill:#525655;}
	.st38{fill:#858376;}
	.st39{fill:#7D8380;}
	.st40{fill:#848C8A;}
	.st41{fill:#242727;}
	.st42{fill:#97937F;}
	.st43{fill:#66645C;}
	.st44{fill:#3F3F3B;}
	.st45{fill:#83847D;}
	.st46{fill:#959281;}
	.st47{fill:#989E96;}
	.st48{fill:#818074;}
	.st49{fill:#9F9E8B;}
	.st50{fill:#5F5D56;}
	.st51{fill:#727570;}
	.st52{fill:#101010;}
	.st53{fill:#9CA19A;}
	.st54{fill:#262929;}
	.st55{fill:#757165;}
	.st56{fill:#9A9F97;}
	.st57{fill:#A6A28F;}
	.st58{fill:#222525;}
	.st59{fill:#87897D;}
	.st60{fill:#818277;}
	.st61{fill:#8A8B7E;}
	.st62{fill:#87887C;}
	.st63{fill:#85877B;}
	.st64{fill:#898A7D;}
	.st65{fill:#818378;}
	.st66{fill:#888A7D;}
	.st67{fill:#828377;}
	.st68{fill:#5D5B54;}
	.st69{fill:#43433F;}
	.st70{fill:#2F302D;}
	.st71{fill:#474B4B;}
	.st72{fill:#5D5C56;}
	.st73{fill:#181918;}
	.st74{fill:#565B5B;}
	.st75{fill:#71736A;}
	.st76{fill:#797F7A;}
	.st77{fill:#121313;}
	.st78{fill:#111212;}
	.st79{fill:#131414;}
	.st80{fill:#131313;}
	.st81{fill:#121312;}
	.st82{fill:#4A4F4E;}
	.st83{fill:#484D4C;}
	.st84{fill:#111111;}
	.st85{fill:#111211;}
	.st86{fill:#4E5352;}
	.st87{fill:#4D5251;}
	.st88{fill:#4E5252;}
	.st89{fill:#4C5150;}
	.st90{fill:#4B504F;}
	.st91{fill:#4B4F4F;}
	.st92{fill:#4E5251;}
	.st93{fill:#B3BAB2;}
	.st94{fill:#4C504F;}
	.st95{fill:#020202;}
	.st96{fill:#040404;}
	.st97{fill:#030303;}
	.st98{fill:#030304;}
	.st99{fill:#050606;}
	.st100{fill:#050505;}
	.st101{fill:#444848;}
	.st102{fill:#2B2F30;}
	.st103{fill:#1C1F1F;}
	.st104{fill:#333535;}
	.st105{fill:#A8A9A9;}
	.st106{fill:#545959;}
	.st107{fill:#FEFEFE;}
	.st108{fill:#242728;}
	.st109{fill:#373B3B;}
	.st110{fill:#778281;}
	.st111{fill:#F4F4F4;}
	.st112{fill:#9DA39A;}
	.st113{fill:#777D7C;}
	.st114{fill:#515756;}
	.st115{fill:#313535;}
	.st116{fill:#3A3E3F;}
	.st117{fill:#656D6D;}
	.st118{fill:#3E4343;}
	.st119{fill:#56554E;}
	.st120{fill:#6C7270;}
	.st121{fill:#333737;}
	.st122{fill:#BBC4C0;}
	.st123{fill:#636A6A;}
	.st124{fill:#798181;}
	.st125{fill:#474C4D;}
	.st126{fill:#7C8483;}
	.st127{fill:#3E4242;}
	.st128{fill:#323535;}
	.st129{fill:#5A5E5D;}
	.st130{fill:#595E5D;}
	.st131{fill:#8E9593;}
	.st132{fill:#2E3232;}
	.st133{fill:#414647;}
	.st134{fill:#2F3334;}
	.st135{fill:#66757A;}
	.st136{fill:#606767;}
	.st137{fill:#697171;}
	.st138{fill:#4A5050;}
	.st139{fill:#44494A;}
	.st140{fill:#4B5050;}
	.st141{fill:#98A19E;}
	.st142{fill:#7E8685;}
	.st143{fill:#787E7A;}
	.st144{fill:#353939;}
	.st145{fill:#969B93;}
	.st146{fill:#767B78;}
	.st147{fill:#373C3C;}
	.st148{fill:#615F58;}
	.st149{fill:#242523;}
	.st150{fill:#959585;}
	.st151{fill:#262724;}
	.st152{fill:#B5B7A3;}
	.st153{fill:#A6A795;}
	.st154{fill:#A8A997;}
	.st155{fill:#A8A794;}
	.st156{fill:#A0A9A5;}
	.st157{fill:#BBC3BF;}
	.st158{fill:#697070;}
	.st159{fill:#B6BEB9;}
	.st160{fill:#B5BDB9;}
	.st161{fill:#514F49;}
	.st162{fill:#918B79;}
	.st163{fill:#BBBBA4;}
	.st164{fill:#78786F;}
	.st165{fill:#7B8280;}
	.st166{fill:#818784;}
	.st167{fill:#656259;}
	.st168{fill:#1C1D1B;}
	.st169{fill:#090A0A;}
	.st170{fill:#181817;}
	.st171{fill:#BEC3B6;}
	.st172{fill:#B2B4A5;}
	.st173{fill:#383734;}
	.st174{fill:#444745;}
	.st175{fill:#1B1C1A;}
	.st176{fill:#2B2C29;}
	.st177{fill:#7B817B;}
	.st178{fill:#404342;}
	.st179{fill:#E6EBE2;}
	.st180{fill:#454540;}
	.st181{fill:#32322E;}
	.st182{fill:#828988;}
	.st183{fill:#9CA199;}
	.st184{fill:#030404;}
	.st185{fill:#C1C7BD;}
	.st186{fill:#797F7C;}
	.st187{fill:#6D7371;}
	.st188{fill:#626866;}
	.st189{fill:#505454;}
	.st190{fill:#1C1F20;}
	.st191{fill:#ABACAC;}
	.st192{fill:#495152;}
	.st193{fill:#1B1D1D;}
	.st194{fill:#9A9C8E;}
	.st195{fill:#373B3C;}
	.st196{fill:#53595A;}
	.st197{fill:#DADDC5;}
	.st198{fill:#6C7372;}
	.st199{fill:#BAC3BF;}
	.st200{fill:#C4CDC9;}
	.st201{fill:#232627;}
	.st202{fill:#6C7170;}
	.st203{fill:#454A4A;}
	.st204{fill:#6A706F;}
	.st205{fill:#313536;}
	.st206{fill:#1A1C1D;}
	.st207{fill:#585E5F;}
	.st208{fill:#1F2122;}
	.st209{fill:#C1CAC6;}
	.st210{fill:#6F7574;}
	.st211{fill:#8B928F;}
	.st212{fill:#8A8F86;}
	.st213{fill:#74736B;}
	.st214{fill:#010101;}
	.st215{fill:#726F64;}
	.st216{fill:#292927;}
	.st217{fill:#1D1E1C;}
	.st218{fill:#999F96;}
	.st219{fill:#0C0C0B;}
	.st220{fill:#B2B8AF;}
	.st221{fill:#6E7574;}
	.st222{fill:#212425;}
	.st223{fill:#4D5353;}
	.st224{fill:#323637;}
	.st225{fill:#3F4344;}
	.st226{fill:#5D6362;}
	.st227{fill:#161717;}
	.st228{fill:#B0B6AC;}
	.st229{fill:#2E3131;}
	.st230{fill:#6D7372;}
	.st231{fill:#F4F8F6;}
	.st232{fill:#848B89;}
	.st233{fill:#4E5354;}
	.st234{fill:#90968D;}
	.st235{fill:#8D938E;}
	.st236{fill:#2D3132;}
	.st237{fill:#0F1010;}
	.st238{fill:#A6AEA9;}
	.st239{fill:#7D827A;}
	.st240{fill:#B9C1BD;}
	.st241{fill:#9A9F96;}
	.st242{fill:#AAB2AC;}
	.st243{fill:#191A19;}
	.st244{fill:#181818;}
	.st245{fill:#858D8B;}
	.st246{fill:#6A716F;}
	.st247{fill:#D5DEDA;}
	.st248{fill:#E2E9E6;}
	.st249{fill:#878F8D;}
	.st250{fill:#ABB4B0;}
	.st251{fill:#E5EBE8;}
	.st252{fill:#D8E0DD;}
	.st253{fill:#D6DFDB;}
	.st254{fill:#D6DEDB;}
</style>
<g id="Camada_2" class="st0">
	<rect x="-135" y="-121.9" class="st1" width="905" height="380"/>
</g>
<g id="Camada_1">
	<g>
		<path class="st2" d="M489,0.2c-0.1,2.7-0.1,5.3-0.2,8c-1,2.9,2.4,5.5,0.5,8.4c-3.5-0.9-6.4-2.2-5.2-6.7c3.1-2.4,0.3-6.1,1.8-8.8
			c0-0.3,0-0.6,0.1-0.8C487,0.2,488,0.2,489,0.2z"/>
		<path class="st3" d="M689.9,91.1l-0.4,0.1H689c-3.1-4.9-1.1-10.4-1.6-15.6c0-2.4-0.1-4.8,0-7.2c0.1-3.2-0.6-6.5,0.9-9.6
			c0.4-0.5,0.9-0.7,1.5-0.6C689.9,69.1,689.9,80.1,689.9,91.1z"/>
		<path class="st4" d="M221,208c-0.1-0.3-0.2-0.5-0.3-0.8c0.1-0.1,0.2-0.3,0.3-0.4c0.1-0.1,0.2-0.1,0.3-0.2c-2.4-0.7-5.2-1-5.5-4.4
			c1.8-1.9,4.3,0.3,6.2-1.1c0.4-0.2,0.8-0.4,1.2-0.5c1,0,1.7,0.4,2,1.4c0,2-0.1,4-0.1,5.9C223.7,208,222.4,208,221,208z"/>
		<path class="st5" d="M689.9,58.2l-0.4-0.1h-0.4c-0.2-0.2-0.4-0.4-0.7-0.5c-1.3-2.4-0.8-5-0.9-7.5c0.1-1.5,0.2-2.9,1.4-3.9
			c0.3,0,0.6,0,0.9,0C689.9,50.2,689.9,54.2,689.9,58.2z"/>
		<path class="st6" d="M0.1,64.1c0.4,0,0.7,0,1.1,0.1c1.6,2.9,3,5.7,0.9,9c-0.6-1-1.3-2-1.9-3C0.1,68.1,0.1,66.1,0.1,64.1z"/>
		<path class="st7" d="M528,106.9c-2-3.1-0.1-6.6-1.1-9.8c-0.3-0.4-0.7-0.9-0.9-1.4c-0.8-2.6-0.6-5.3-0.5-7.9
			c0.2-3.8-1.3-5.4-5.2-5.3c-3.3,0.1-6.6,0.6-9.8-0.7c-0.6-0.4-1-0.9-0.9-1.6c1.4-6.5,2.5-13.1,5.5-19.1c0.4-0.4,0.8-0.7,1.2-1
			c2.2-1.7,4.2-4.3,7.6-2.2c0.3,0.4,0.4,0.9,0.2,1.4c-2.1,1.4-3,3.3-2.9,5.9c0.1,3.1,0.2,6.3-0.2,9.4c-0.1,1.1-0.7,2.5,0.4,3.3
			c1.4,0.9,2.3-0.7,3.5-1.3c1.2-0.5,2.3-0.6,3.5-0.2c2.3,2.7,4.6,2.2,6.9,0c1.4-0.5,2.8-0.6,4.2,0c1.9,2.2,3.8,2.4,5.8,0
			c1.4-0.6,2.8-0.6,4.2,0c2.1,2.3,3.9,2.4,5.5-0.6c1.7-0.4,3.3,0,4.8,0.7c2.1,2.7,3.7,1.7,5.2-0.7c1.7-0.4,3.3,0,4.8,0.7
			c2.2,3.1,4.3,1.5,6.5-0.1c1.2-0.4,2.3-0.4,3.4,0.2c2.3,3,4.5,1.4,6.6-0.2c1.2-0.4,2.3-0.4,3.4,0.1c2.2,3,4.4,1.8,6.5-0.1
			c1.2-0.5,2.3-0.4,3.4,0.1c2.1,2.5,4.3,2.5,6.5,0c1.1-0.5,2.3-0.5,3.4-0.1c2.1,2.4,4.3,2.8,6.6,0.2c1.1-0.6,2.2-0.6,3.4-0.2
			c2.2,2.1,4.5,2.8,6.8,0c1.4-0.6,2.8-0.6,4.2,0c1.9,2.2,3.8,2.4,5.8,0c1.4-0.6,2.8-0.6,4.2,0c1.9,2.2,3.8,2.4,5.8,0.1
			c1.4-0.6,2.8-0.6,4.2-0.1c1.9,2.1,3.8,2.5,5.8,0.1c1.4-0.6,2.8-0.6,4.2-0.1c1.7,1.5,3.4,3,5.4,0.3c1.1-0.6,2.2-0.7,3.4-0.6
			c1.5,0.2,2.6,1,3.7,2c0.3,0.3,0.7,0.6,1,0.9c1.5,1.1,2.8,0.7,4.1-0.3c1.1-0.8,2-1.2,2.7,0.4c1.4,5.1-0.8,10.1-0.5,15.2
			c-2,2.7-1.2,5.8-1.1,8.6c0.2,4.6-1.8,6.2-6.2,6.2c-25.3-0.1-50.5,0-75.8,0c-21.1,0-42.2,0-63.3-0.1c-1.4,0-3,0.7-4.2-0.7
			c0.7-1.9,2.3-2.3,4.1-2.2c10.6,0.1,21.2,0,31.9,0.1c11.8,0.1,23.6,0,35.4,0.1c12.3,0.1,24.6-0.1,36.9-0.1
			c11.3,0,22.5,0.1,33.8-0.3c-45.4-0.2-90.8-0.2-136.3-0.2C532.7,105.6,530.3,105.7,528,106.9z"/>
		<path class="st4" d="M185.1,197.9c-1.9-0.2-3.5-0.8-5-2c-1.3-1.6-0.1-2.8,0.6-4.1c7.4-11.9,15.2-23.4,22.9-35.1
			c1.4-2.2,3-4.4,5.6-5.6c2.8-0.5,4.9-1.8,6.4-4.2c1.2-1.9,2.8-3.4,4.8-4.2c5.7-2.3,7.2-6.8,7.4-12.3c0-2.1-0.5-4.7,2-5.7
			c2.6-1.1,4.2,1.2,5.9,2.7c5.1,4.5,6.8,10,5,16.6c-1.2,4.2-1.5,8.5-2.2,12.7c-0.4,2.6,0.4,3.3,3,2s4-3.4,5.3-5.7
			c0.5-0.3,1-0.3,1.5,0c1.7,1.8-0.7,4.2,0.8,6c0.2,1.8,0.3,3.5-1,5c-3.1-1.9-4.8,0-6.4,2.3c-7.4,10.5-14.2,21.4-18,33.9
			c-0.1,0.3-0.4,0.5-0.6,0.8H223c-2.2,0.5-3.3-1.3-4.6-2.4c-5.3-4.6-11.5-7-18.3-8.1c-1.7-0.3-3.6-0.7-5.4,1c2.7,3.4,6.8,3.6,10.4,5
			c2.5,1,5.7,1,6,4.7c-7.3,0.5-14.4-0.6-21.3-2.6C188.2,198.1,186.8,197.1,185.1,197.9z"/>
		<path class="st8" d="M363.9,191.1c-14.6-1.7-29.2-3.5-43.8-5.2c-2.2-0.2-3.6-1.6-5.1-2.8c-4.6-6.5-2.8-13.9-2.6-21
			c0-2.1,0.9-4.4-1.9-5.4c-3.7-3.3-7.3-6.6-12-8.5c-1.3-0.6-2.2-1.5-2-3c0.3-1.6,1.5-2.2,2.9-2.2c3.9-0.1,7.9-1,11.7,0.7
			c1.5,1.8,1.4,3.8,0.8,6c1.7-1.7,1.7-4.1,1.8-6.4c0.1-2.6-0.5-5.3,0.8-7.8c2.3-0.8,3.6-2.2,3.3-5c-0.2-2.1-0.4-4.3,0.9-6.2
			c0.5-0.4,1-0.4,1.5,0.1c1.5,2,1.1,4.4,1.1,6.7c0,13.7,0,27.4,0,41.1c0.1,1.7-0.1,3.3-0.6,4.9c-1.4,4.4-1,4.9,3.6,5.6
			c13.8,2,27.6,3.3,41.3,5.5c2.4,0.7,4.9,0.5,7.4,0.5c16.6,0,33.2,0,49.7,0c2.3,0,4.7-0.4,6.8,1c0.5,0.6,0.5,1.1,0,1.7
			c-2.6,1.6-5.5,1.3-8.3,1c-17.6-1.8-35.2-0.4-52.7-0.9C367.1,191.5,365.5,191.8,363.9,191.1z"/>
		<path class="st9" d="M528,106.9c-0.1-4,3-2.8,5-2.8c31.8-0.1,63.6,0,95.3,0c15.8,0,31.6,0,48.2,0c-3.5,2.9-6.1,4.8-10.5,3.3
			c-3.5-1.2-7.6-0.1-11.1,0.2c-4.7,0.3-9.4-0.5-14.1,0.1c-4.2,0.5-8.9,0.7-13.1,0c-5.1-0.8-10,0.4-15.1-0.1
			c-5.7-0.5-11.7-0.4-17.4,0c-4.7,0.3-9.4-0.4-14.1,0.2c-4.3,0.6-8.8,0-13.2,0.1c-6,0.1-12,0.5-17.9-0.1c-5.2-0.5-10.5,1.4-15.6-0.4
			c-1.7-0.6-3.2,0.2-4.7,1C529.1,107.9,528.5,107.4,528,106.9z"/>
		<path class="st10" d="M505.9,111.1c0.4,6.8,0.4,6.8-6.5,6.8c-2,0-4,0.2-5.9-0.1c-2.9-0.5-4.4,0.8-5.2,3.4
			c-2.2-1.7-4.7-3.1-6.9-4.8c-0.8-1.9-0.8-3.7,0.2-5.5c2.3-2,5.5-2.6,7.3-5.6c1.2-2.1,13.8-2.4,15.7-0.7
			C506.6,106.4,504.6,109.1,505.9,111.1z"/>
		<path class="st11" d="M287,148.1c-10.3,0-20.6,0-30.9,0.1c-1.3-1.1-1.4-2.6-1.5-4.1c0-3.3,0.2-6.6-0.1-9.9
			c-0.4-5.6,2.2-8.7,7.3-10.2c2.2,2,1.5,4.6,1.6,7c0.4,7.5,4.4,11.4,12,11.8c4.6,0.2,9.3-0.7,13.9,0.7
			C291.5,146.3,287.9,146.6,287,148.1z"/>
		<path class="st12" d="M485.9,158.1c-0.1,10.5,0.1,21-3.8,31c-0.6,1.7-1,3.1-3.1,3c-0.6-0.3-1.2-0.7-1.4-1.5
			c0.8-3.5,2.3-6.8,1.8-10.5c0.4-2,0.8-4,0.3-6.1c-0.1-1.2,0.1-2.6-0.6-3.4c-4.6-5.6-3.5-12.5-4.5-19c-0.3-2-1-3.4-2.3-4.7
			c-1.1-2.8-1-5.5-0.2-8.3c0.6-1.4,1.7-2.4,2.3-3.7c0.6-1.3,1.4-3.1,3.1-2.7c1.9,0.6,1.5,2.6,1.4,4.2c-1.5,6.6-0.9,13.1,1.2,19.3
			c0-0.9,0.5-1.6,1.6-1.9C483.4,154.9,482.8,158.3,485.9,158.1z"/>
		<path class="st13" d="M223.1,201c-0.6-6.8,4-11.7,6.3-17.5c2.9-7.3,8.3-13.1,12.5-19.6c2.5-3.8,4.2-3.6,6.2,0.2
			c-8.6,12.1-15.9,24.9-22.9,38C224.5,201.7,223.8,201.4,223.1,201z"/>
		<path class="st14" d="M505.9,111.1c-2.1-1.4,0.6-5.4-2.5-5.7c-4.4-0.5-8.8-0.1-13.3,0c-0.3,0-0.7,0.4-0.7,0.6
			c0.2,5.3-4.5,3.9-7.2,5.2c-2.9-4.5-1.8-9.2-1-13.9c0.4-1.1,1.1-2,1.5-3.1c1.6-3.3,3.9-4.2,6.6-1.9c2.6,2.2,5.3,2.3,8.3,2.3
			c7.6,0,15.2,0,22.8,0c2.3,0,4.7-0.2,6.6,1.6c0,0.3,0,0.7,0,1c-2.5,0-5,0-8,0c2.9,3.3,5.9,6.3,3.5,10.9c-0.8-0.2-0.9-0.8-0.9-1.5
			c-0.3-6.7-1.7-7.8-9.1-7.6c-4.9,0.1-6.4,1.9-6.4,7.7C506.1,108.1,505.9,109.6,505.9,111.1z"/>
		<path class="st15" d="M680.2,94.3c-2.1-1.6-1.6-4-1.1-5.9c1-3.4,0.6-6.8,0.7-10.3c-0.9-0.9-1-1.9-0.7-3.1c0.2-0.5,0.5-1,1-1.3
			c3-0.2,6-0.6,8.6,1.4c0.1,5.3,0.2,10.7,0.2,16c0.1,2.4-0.7,3.7-3.4,3.4C683.9,94.4,682,94.4,680.2,94.3z"/>
		<path class="st12" d="M363.9,191.1c22,0,44-0.1,66-0.1c14.3-0.8,28.7-0.3,43-0.3c1.2,0,2.3,0.3,3.2,1.2c-0.4,2.4-2.4,2-3.9,2
			c-17.3,0.1-34.6,0.1-51.8,0c-1.2,0-2.3-0.1-3.3-0.9c-1.2-1.8-3-1-4.6-1c-13.8,0-27.6,0-41.3,0C368.7,192,366.2,192.3,363.9,191.1z
			"/>
		<path class="st16" d="M417.1,193.1c18.3,0,36.6,0.1,54.9,0.1c1.4,0,3.1,0.5,4-1.3c-0.2-0.8,0.2-1.1,0.9-1.4c0.4,0,0.8,0.1,1.1,0.4
			c0.4,0.4,0.7,0.7,1.1,1.1c-1.8,1.8-3.8,2.6-6.5,2.6c-17.2-0.1-34.4,0-51.6-0.1C419.6,194.5,417.4,195.9,417.1,193.1z"/>
		<path class="st17" d="M482.1,117.1c3.3-0.5,5.8,0.2,6.1,4.2c-1.9,4.7-1.1,9.6-1.4,14.5c-0.3,4.6,0.3,9.1-0.7,13.7
			c-1.9-1.4-1.7-3.6-1.4-5.4c0.5-3-1.5-2.9-3.3-3.2c-1-3.9-0.8-8-0.9-12c0.3-3.7-0.7-7.5,0.9-11.1
			C481.7,117.5,481.9,117.3,482.1,117.1z"/>
		<path class="st18" d="M287,148.1c-0.2-2.2,2.1-2.7,3-4.1c3.5-2.1,7.5-2.2,11.4-2.3c8.6-0.3,8.6-0.2,9.5-8.4
			c0.3-0.2,0.6-0.5,0.8-0.5c4,1.3,1.9,4.7,2.1,7.1c0.2,1.8,1,4.8-2.8,4.3c-3.7,0-7.3-0.1-11-0.1c-1.1,0-2.6-0.3-2.8,1.3
			c-0.2,1.3,1.1,1.2,2,1.6c4.5,2.1,8.7,4.7,11.6,8.9c0.7,0.7,0.7,1.4,0.1,2.1l0,0c-2,1.3-2.9-0.6-4.1-1.6c-4.3-3.6-8.8-6.7-14.3-8.3
			C290.8,148.2,288.9,148.2,287,148.1z"/>
		<path class="st19" d="M482.1,141.1c1.1-1.1,2.1-2.2,4.1-4.3c0,5,0,8.8,0,12.6c-0.1,2.9-0.2,5.8-0.3,8.6c-7,4.2-2.5-2.8-4-4
			C479.8,149.7,479.6,145.4,482.1,141.1z"/>
		<path class="st20" d="M255.9,144.1c0.1,1.4,0.1,2.7,0.2,4.1c-0.7,2.1-2.2,3.4-4,4.7c-2,1.4-3.3,3.5-3,6.2c-1.8-1.7-0.6-4-1-6
			c-1.5-4.2,1-9.4,5.2-10.4C254.5,142.3,255.4,142.9,255.9,144.1z"/>
		<path class="st21" d="M292.7,148.3c7-0.4,11.3,4.4,16,8.4c0.8,0.6,1.3,1.4,2.4,1.5c0.4,3.1-0.7,3-2.8,1.4
			C303.2,155.7,297.9,152,292.7,148.3z"/>
		<path class="st21" d="M311.1,158.2c0-0.7-0.1-1.4-0.1-2.1c2.2-1,2.1,0.6,2.1,1.9c0,3.3,0,6.7-0.1,10c-0.2,5.2,0.1,10.3,2,15.1
			c-3.8-1.6-3.7-5.1-3.8-8.3C311,169.2,311.1,163.7,311.1,158.2z"/>
		<path class="st22" d="M188.3,78.3c-3.6,1.5-7.8-0.6-11.3,1.9c-4.8-2.3-10.3-0.3-15.2-2.1c0.4-3.3,3-2.9,5.3-3.3
			c2.4-0.3,5,0.8,7.1-1.2c0.8-2.3-0.1-5,1.8-6.9c5.2-1.4,10.6-1.9,16-2c3.8-0.1,7.5,0.2,11.3-0.5c4.3,1.1,8.6-0.6,13-0.1
			c0.3,0.4,0.6,0.8,0.7,1.2c0.3,0.9,0.4,1.9,0.8,2.8c1.2,1.1,2.8,1.3,4.2,1.2c12.9-0.8,25.8-1.4,38.6-2c10.5-0.4,21-2.2,31.6-1.5
			c3.4,0.2,6.6-0.6,9.3-2.7c2.1-1,4.2-1,6.3,0.3c2.2,4.2,2,4.4-2.3,5.5c-6.9,1.7-14.6,2-20.7,5c-12.6,6.2-26,3.3-38.9,5.6
			c-2.3,0.4-4.6,0.1-6.8,1.2c-1.4,0.6-2.8,1.1-4.2,1.8c-1.9,0.4-4-0.4-5.9,0.5c-7,1.7-13.7-2.1-20.7-1.2c-0.3,0-0.9,0-0.9-0.1
			c-2.5-6.7-8.2-2.5-12.3-3.7c-1.1-1.1-2.4-1-3.8-0.9c-4.4,0.3-8.6-0.1-12.4-3.6c1,2.9,1,2.8,2.9,3.2
			C184,77.3,186.5,76.4,188.3,78.3z"/>
		<path class="st23" d="M229,83c1.8-1.5,4.1-0.3,6-1.2c2.4-0.7,3,1.1,3.1,2.7c0.3,3.6,2.3,3.9,5.2,3.2c6.6-1.7,13.3-2.9,19.9-4.7
			c9.2-2.2,18.4-4.7,27.8-5.9c2.8-0.4,5.6-0.8,8.4,0.2c1.1,5.1,1.9,10.2-0.8,15c-2.3,4-13.3,6-17.1,3.3c-0.4-0.3-0.7-0.7-1.1-1
			c-5.9-4.9-5.9-4.9-10.6-0.6c-0.4-0.3-0.9-0.4-1.4-0.4c-2.2,0-4.4,0-6.6,0.1c2.6-0.3,5.2-0.1,7.8,0.1c0.5,0.2,0.8,0.6,0.9,1.1
			c-0.1,1.2-0.8,1.7-1.9,1.9c-1,0.2-1.9,0-2.9-0.1c-8.4-0.7-8.4-0.7-11.9,6.5c-2.8,3.1-5.7,3.4-9.1,0.9c-1.9-1.4-4.2-3.1-4.5,1.4
			c-0.1,1.1-1.3,1.4-2.2,1.7c-1.1,0.3-2.2,0.7-3.4,0.8c-5.2,0.4-9.5,2-10.5,8c-2-6.4-1.1-13-0.5-19.5c0.3-3.6,5.1-2.7,7.9-3.9
			c2-0.9,3.8-1.3,4.3-4C237.1,82.1,232.5,83.2,229,83z"/>
		<path class="st7" d="M162.1,78.1c1.6,0.1,3.2-0.3,4.8-0.7c3.8-1,7.4-0.2,10.2,2.7c0.9,9.5,0.9,9.5-8.5,10
			c-2.1,0.1-4.3,0.1-6.4,0.1c-1.2-2.8,1-3.3,2.8-4c1.7-0.6,3.6-0.3,5.4-0.6c1.4-0.2,3.6,0.5,3.5-2.2c-1.4-1.4-3.1-1.1-4.7-0.9
			c-13.8,1-27.7,1.7-41.5,2.7c-3.5,0.3-6.9-1.2-10.3,0.1c-0.6,0.1-1.2,0.2-1.8,0.2c-14.7,1-29.4,1.6-44,2.9
			c-5.6,0.5-11.3-0.6-16.8,0.9c-0.9,0.2-1.8,0.3-2.8,0.3c-7.3-0.3-14.7,0.5-22-0.5c-1.3-0.6-2.4-1.5-2-3c0.4-1.7,2.1-1.3,3.3-1.3
			c6.2-0.2,12.4-2.1,18.7-0.1c2.4,0.8,4.9-0.4,7.2-1.4c4.2-0.5,8.4-1.5,12.8-1.5c1.9,0,3.6-0.4,5-1.7c3.2-1.9,6.7-1.1,10.1-1.3
			c2.4-0.1,4.9,0.2,7.3-0.7c7.2-0.2,14.3-0.8,21.4-1.3c4.9,0,9.8,0.2,14.7-0.3c1.5,0.2,2.6,1.3,3.8,1.9c6.9,0.7,13.8,0.7,20.7-0.2
			C155.9,77.7,159,76.8,162.1,78.1z"/>
		<path class="st24" d="M18.1,58.2c0.3,0,0.7,0,1,0c2,1,2.8,2.7,3.2,4.7c3.4,18.2,9.2,35.8,11.8,54.2c1.8,11.8,3.3,23.6,5,35.4
			c0.9,6.1,3.3,11.7,4.2,17.8c0.5,3.5,2.8,5.5,6.6,5.4c1.9,0.4,4.2,0.4,4.2,3.2c-0.4,0.3-0.8,0.8-1.2,0.8c-8.8,0.3-17.2,3.4-26,4.1
			c-1.1,0.1-1.9-0.3-2.8-0.8c-0.4-0.4-0.7-0.9-0.9-1.3c-0.7-5.1-1.9-10.1-1.3-15.2c0.4-3.7,1.7-4.5,4.8-3c2.2,1.1,4.4,3.5,6.7,1.9
			c2.6-1.8,1.2-5.2,1.2-7.9c0-0.6-0.3-1.3-0.5-1.9c-1.5-15.1-4.2-30-6.3-45c-1.1-8.6-3.7-16.9-5.5-25.4c-1.7-7.1-3.5-14.3-4.9-21.5
			C17.1,61.9,15.6,59.7,18.1,58.2z"/>
		<path class="st25" d="M176.1,83.1c0.3,3.9-2.3,3.9-5.2,4.1c-3.1,0.2-7.1-1.6-8.8,3c-4,0.2-6.6,3.1-9.7,5c-2.7,0.6-0.9-3.4-3.7-3.4
			c-3.1,0.1-5.4,0.4-6,4c-3,1.3-6.1,1.7-9.3,1.6c-3.4-0.1-6.6,0.2-9.7,1.8c-2.3,1.2-4.8,1.7-6.7-1c-0.3-0.5-0.4-1-0.4-1.5
			c0.3-1.8,1.3-3.3,1.8-5c1.4-1.7,3.4-3.1,4.2-5.3c2.7-2.2,6.1-2,9-2c13-0.3,25.8-1.7,38.7-2.7C172.3,81.6,174.3,82.1,176.1,83.1z"
			/>
		<path class="st26" d="M24.1,182.1c0,0.3,0.1,0.6,0.1,0.9c-2.3-0.1-2.9-1.8-3.5-3.6c-1.3-3.6-2.2-7.4-2.2-11.2
			c0.4-32.7-8.2-63.8-16.4-95c-0.3-3-0.6-6-0.9-9C2.1,63.8,3,63.4,4,63c0.2,0.1,0.4,0.3,0.7,0.4c2,2.8,1.8,6,1.7,9.2
			c-1.7,5,1,9.3,2.4,13.8c0.2,0.5,0.3,0.9,0.4,1.4c1.6,8.6,4.6,16.8,7.1,25.1c0.9,1.9,1.4,4,2.2,6c1.4,9.2,2.5,18.4,3.2,27.7
			c0.7,8.6,0.2,17.2,1,25.8C22.9,175.6,23.5,178.8,24.1,182.1z"/>
		<path class="st27" d="M143.1,95.1c-1.9-3.8-2.4-5.2,3.4-4.5c3.9,0.5,6,0.4,5.9,4.6c-18,14-36,28.1-54,42.1c-2.6,2-5.3,3.9-8,5.9
			c-2.3,0.2-1.4-1.3-1.3-2.4c1.3-3.3,4.4-4.9,7-6.8c8.2-6.4,15.8-13.4,24.1-19.7c2.1-1.6,4.5-2.9,6.1-5.1c3.9-5,9.9-7.3,14.9-11
			c0.9-0.7,2.2-0.9,2.3-2.3C143.3,95.7,143.2,95.4,143.1,95.1z"/>
		<path class="st28" d="M224.1,116c0-7.9,0-7.8,8.1-8.9c1.8-0.2,3.6-0.7,5.4-1c0.7-0.1,2,0.1,1.6-1.1c-0.4-1.3-2.1-2.8,0.2-3.6
			c1.9-0.7,4.2-0.7,5.5,1.2c2.6,3.6,5.3,2.3,8.2,0.6c1.7,2,0.7,3.9,0,5.9c-1.9,7.4-1.9,7.5-10,7.5c-1.7,0-3.3,0-5,0.1
			c-4.4-0.1-8.9,0.2-13.3-0.3h-0.5L224.1,116z"/>
		<path class="st29" d="M209,152.1c-10.8,13.9-20.1,28.7-28.9,43.9c-3.4-0.7-3.5-2.3-1.7-4.9c9.5-14,18.9-28.1,28.4-42.1
			c1-0.6,1.9-0.8,3-0.3C211.1,150.1,209.8,151.1,209,152.1z"/>
		<path class="st30" d="M54.1,178.9c-0.8-1.7-2.3-1.9-4-1.9c-4.1-2.2-5.2-6.6-7.3-10.3c-0.6-1.1-0.3-3.1,0.8-2.9
			c4.7,0.6,8.3-4.8,13.2-2.3c-0.1,3.7-0.5,4.1-6.2,5.5c-0.2,0.7,0.6,0.9,0.9,1.2c1.2,1.3,1,4.3,3,4.1c2.2-0.3,2.2-3.1,2.4-4.9
			c0.5-4,2.9-6.5,5.8-8.8c1-0.7,2.1-1.1,3.2-1.5c3.1-0.4,5.2-3.1,8.4-3.1c0.3,0.4,0.3,0.8-0.1,1.2c-1.9,3.3-5.1,5.1-8.1,7.1
			c-3.7,2.5-5.7,5.6-6.1,10.1C59.6,175.8,58.1,178.6,54.1,178.9z"/>
		<path class="st31" d="M185.1,197.9c-0.7-1.7-0.1-2.3,1.5-1.6c7.8,3.5,16.4,2.6,24.5,4.7c1.8-0.4,3.6-0.5,5,1
			c1.5,2.9,4.4,3.5,7.7,4.6c-1.4,0.3-2.2,0.4-3,0.6C208.6,205.2,196.7,202.1,185.1,197.9z"/>
		<path class="st32" d="M210,149c-1.1,0-2.2-0.1-3.2-0.1c3.7-5.8,7.4-11.6,11.1-17.4c2.9-4.5,6.1-8.9,7.1-14.4
			c0.2,0.1,0.5,0.2,0.7,0.3c2.1,2.7,0.8,5.5-0.2,8c-3.2,8.4-8.8,15.5-13.8,22.8C211.4,148.7,210.7,148.9,210,149z"/>
		<path class="st9" d="M224.9,116.2c4.2-2.2,8.7-0.4,13-1c5.2,2,10.6,0.1,15.8,1c3.7,2,3.6,4.2,0.2,6.4c-9-0.7-17.6-3.5-26.5-4.5
			c-0.8-0.1-1.5-0.6-2.1-1.3l-0.3-0.1l-0.1,0.3C225.1,116.8,225.1,116.5,224.9,116.2z"/>
		<path class="st7" d="M188.3,78.3c-2-0.1-4-0.2-6-0.2c-5.5,0-5.5,0-4.9-6.9c4.9,3.9,10.2,5.7,16.2,5c0.9-0.1,1.3,0.9,1.4,1.8
			C192.8,78.1,190.6,78.2,188.3,78.3z"/>
		<path class="st33" d="M74.1,155.2c0-0.4,0-0.7,0-1.1c-0.5-1.4,0.7-2,1.5-2.8c3.3-3.4,7.3-6,10.6-9.4c1-1,2.2-2.1,3.9-0.9
			c-0.2,0.8-1,1.7,0.4,2.2C85.2,147.5,80.3,152.2,74.1,155.2z"/>
		<path class="st34" d="M22.2,59.1c7.5-1.6,15.3-1.1,22.9-1.6c28.2-1.8,56.5-3,84.7-4.5c13.8-0.7,27.6-1.7,41.3-2.5
			c1.4-0.1,3.6-1.1,3.8,1.7c-1.6,1.4-3.5,0.7-5.3,1c-6.7,0.9-13.6,0.7-20.1,3.1c-5.6,2-11-1.6-16.7-0.7c-4.3,0.7-8.7,0.5-13.4,2.1
			c2.5,2.5,4.8,2,6.7,1.5c9.8-2.4,19.6,0.1,29.4-0.6c3.6-0.3,7.3,0.3,10.8-0.8c1.4-0.5,2.9-0.6,4.4-0.3c1.5,0.3,2.1,1.4,2.4,2.8
			c0.3,1.7-0.6,2.6-2,2.9c-2.5,0.5-4.6,1.9-7.2,2.2c-1,0.1-2,0.2-3.1,0.2c-7.7,1.5-15.5-0.5-23.3,0.4c-3.5,0.4-6.3,2.7-9.7,3.3
			c-2.6,0.4-5.3,0.5-7.8-0.6c-0.6-0.3-1.2-0.9-1.7-0.8c-7.9,1.2-16-2.6-23.7,1.1c-2.2,0.9-4.5,0.9-6.8,1.2c-4.1,0-8.3,0-12.4-0.1
			c-3.4-0.1-6.6,2-10.4,1.5c-4.7-0.6-9.4-1.4-14.5,0.3c-3,1-7.4,0.5-11.4-0.8c-3.7-1.2-8.1-1.4-12,0.5c-0.9,0.4-1.6,1.3-2.7,0.6
			C22.4,68,21.5,63.7,22.2,59.1z"/>
		<path class="st35" d="M300,78.3c-11.7-0.7-22.7,3.2-34,5.4c-1,0.2-1.9,0.3-2.9,0.5c-1.4,0.7-2.4,0.5-1.7-1.2
			c0.6-1.4,2.5-1.3,3.8-2.3c-7.2-0.9-14.1,1.4-21.1,0.8c-2.1-0.2-4.3,0.4-6-1.4c1-1.2,2.4-1.8,3.9-1.9c10.4-0.7,20.7-1.4,31.1-2
			c2.5-0.2,4.8,0.2,6.9-2.4c1.5-1.8,5.1-2,7.8-2.5c5-0.9,10.1-1.3,14.7-3.8c1.9-1,3.9,0.5,5.9-0.3c-0.5-1.4-1-2.8-1.5-4.1
			c-0.8-0.8-0.8-1.7-0.4-2.7c4.2-0.8,6-3.1,4.8-7.4c0.1-2.5,3.7-5.2-0.6-7.3c-11.5-0.2-22.8,1.1-34.2,1.6c-2.3,0.1-4.8,0.3-5.5-2.7
			c1.1-1.5,2.9-0.3,4.2-1.2c1.7-2.6,0.2-5.5,0.9-8.1c1.4-1.1,2.8-1.2,4.3-0.2c1.6,3,4.2,3.7,7.5,3.7c7.3-0.1,14.6-0.1,21.9,0
			c1.8,0,3.7,0,5.4,0.7c2.7,1.7,2.2,4.3,2,6.8c-1.5,8.5-0.4,17.1-0.7,25.6c-0.1,2,0.2,4-0.7,5.8c-4.5,2.9-9.3,2.8-14.3,1.7
			C300.9,79,300.4,78.7,300,78.3z"/>
		<path class="st36" d="M447.8,4.3c0,1,0,1.9,0,2.9c-0.4,0.9-0.8,1.8-1.6,2.4c-2.1,1.3-4.5,1-6.8,1c-33.2,0-66.5,0-99.7,0
			c-2.7,0-5.8,0.8-7.6-2.4c-0.7-2.8-0.3-5.1,2.7-6.3c5.7,0.9,11.5,0.5,17,0.2c4.7-0.2,9.4,0,14.1-0.1c5.2-0.1,10.4-0.9,15.6,0
			c3.8,0.7,8,0.4,11.6,0c4.8-0.5,9.5,0,14.1-0.1c4.9,0,10-0.4,15.1,0c4.3,0.4,9.1,0.9,13.6-0.1C440.2,1,444,2.9,447.8,4.3z"/>
		<path class="st37" d="M446.9,8.1c0.3-0.3,0.6-0.6,0.9-1c0.1,0.9,0.2,1.9,0.3,2.8c0.9,4.4,0.2,5.5-4.6,5.5
			c-10.8,0.1-21.6,0.4-32.3,0.2c-13.1-0.2-26.2-0.2-39.3,0c-1.9-0.2-3.7-0.2-5.6-0.1c-1.5,0.1-3,0.1-4.4,0c-6.3,0-12.5-0.1-18.8,0.3
			c-1.4,0-2.2,0.5-2.7,2.1c-2.1,7.1-5.6,7.9-11.9,3.1c-0.3-0.5-0.5-1-0.6-1.6c-0.3-7.2,1.9-9.4,9.3-9.5c29.1-0.2,58.2,0.3,87.2-0.2
			c6.3-0.1,12.6,0.4,18.8,0C444.9,9.9,446.2,9.7,446.9,8.1z"/>
		<path class="st38" d="M371,14.2c24.1,0,48.2-0.1,72.2,0c3.2,0,5.2-0.6,4.8-4.3c10.5-0.2,20.9-0.6,31.4-0.5c4.4,0,6.5-1.1,5.7-5.8
			c-0.2-0.9-0.3-2,0.7-2.7c-0.7,3.1,2.3,7-2.1,9.3c-7,4.3-14.4,7.2-22.8,6.2c-0.3-0.4-0.5-0.8-0.5-1.3c0-0.6-0.1-1.3,0-1.5
			c-0.3,1.7,0.6,4.5-2.4,5.4c-8.9,1.2-17.9,0.6-26.8,0.6c-18.6,0.1-37.1,0.1-55.7-0.3c-1.2,0-2.3,0.1-3.5-0.2
			c-1.4-0.3-2.7-0.7-3.1-2.1C368.6,15.6,370,14.9,371,14.2z"/>
		<path class="st39" d="M164,64.2c2-0.7,4.1-1.4,6.1-2c0.9-0.3,2.6,0.5,2.1-1.7c-0.4-1.7-1-2.4-3.1-2c-3.5,0.7-6.9,2.1-10.6,1.7
			c-5.5-0.7-11.1,0.3-16.5,0.3c-3.6,0-7.4-1.1-11.2-0.5c-2.7,0.4-5.4,0.9-8.1,1.1c-2.2,0.1-4.9-0.4-5.1-2.8c-0.2-2.4,2.6-2.8,4.5-3
			c5.4-0.5,11.2-2.1,16.2-0.8c10.6,2.7,20.1-3.1,30.3-2.5c2.1,0.1,4.2,0.3,6.3,0.3c0.1,0.9,0.2,1.8,0.3,2.7c0.9,1.4,1.2,2.8,1.1,4.4
			c-0.3,2.6,1.7,2.4,3.3,2.5c2.4,0.3,5-0.4,7.3,0.9c0.4,0.4,0.5,0.9,0.2,1.4c-3.1,2.3-6.8,1-10.2,1.5c-3.6,1.1-7.5-0.1-11.2,1.4
			C163.3,68,163,66.1,164,64.2z"/>
		<path class="st40" d="M275.1,43.3c-1.2,0.5-2.4,0.9-3.5,1.4c13.8,1,27.5-0.8,41.3-0.3c0.8,1.9,1.6,3.8-0.7,5.3
			c-1,0.2-1.1-1.1-1.5-1.1c-8,0.6-16.2,0.1-24.2,1.7c-0.7,0.3-1.4,0.4-2.1,0.2c-1.2-0.5-2.5-0.9-3.8-0.7c-9.1,1.5-18.3,0.9-27.5,2
			c-3-0.1-5.9-0.6-8.9,0.1c-1.6,0.2-3.1-0.2-4.5-0.9c-3-3.5,0.4-4.3,2.3-5.7C253.1,44.6,264.1,43.9,275.1,43.3z"/>
		<path class="st41" d="M22.2,59.1c1,4.4,1.9,8.7,2.9,13.1c2.8,2.2,1.6,6.1,3.6,8.6c-1-1.9-0.9-3.6,1.1-4.8c0.5,0.1,0.8,0.4,1.1,0.8
			c0.7,1,0,2.4,1.1,3.3c0.2-1.7-0.1-3.5,1.2-4.9c0.8-0.3,1.3,0.1,1.7,0.8c-0.1,5.4,3.3,5.6,7.3,4.9c1.8,0.7,3.2,2.4,5.4,2
			c3.2,0.4,6.7-1,9.6,1.5c-3.1,2.9-6.8,2.4-10.3,1.3c-6.1-2-12,2-18.1,0.5c-0.3-0.1,0.2,1.4,0.4,2.2c0.5,0.5,0.9,1.1,1.2,1.8
			c0.9,2.6,1.1,5.4,2.3,7.8c2.1,1.7,3.8,0.1,5.3-0.9c5.2-3.3,5.2-3.3,8.5,2.2c0.1,1.4-0.7,2.2-1.8,2.9c-3.1,0.3-3.1,0.3-7-1.2
			c-0.3,0.3-0.4,0.3-0.3,0.4c2.9,0.9,2.4,4.3,4.3,5.9c0.3,0.7,0.4,1.4,0.2,2.1c-0.1,0.5-0.3,0.9-0.6,1.3c-1.9,1.2-4,2-4.3,4.9
			c-0.2,2.1-1.6,3.3-3.9,1.8c-2.9-7.6-2.9-15.7-4.8-23.5c-2.5-10.4-6.2-20.5-7.3-31.3c-0.2-1.4-1.2-2.7-1.8-4.1
			C20.4,57.7,21.4,58,22.2,59.1z"/>
		<path class="st42" d="M280.1,10c14.6,0.1,29.3,0.1,43.9,0.2c-2.1,6.3-7.5,6.6-12.8,7.1c-6.1,0.5-12.2,0.8-18.3,0.8
			c-1.9,0-3.6,0.3-5.3,1.2c-2.7,0.5-5.8,2.2-7.9-0.6C277.9,16.1,277.9,12.9,280.1,10z"/>
		<path class="st43" d="M280.1,10c0.2,2.9-1.5,6.6,0.8,8.5c2,1.8,5.3-1,8.1-0.4c12.8-0.5,25.5-2.2,38.3,0c0.9,1.7,1,3.4,0,5.1
			c-3.8,2.4-8.1,1.6-12,1c-5.9-1-11.7,0.3-17.6,0.2c-4.8-0.1-9.6,0.4-14.3-0.1c-3.9-0.4-7.4-1.8-8.5-6.3c1.6-1.6,1-3.6,1-5.5
			C275.9,9,277.1,8.1,280.1,10z"/>
		<path class="st44" d="M327,23.1c0-1.6,0-3.3,0.1-4.9c-2.1-2.7-1.8-5.3,0-8c1.6-0.9,4.3,1,5.1-2c1.8,1.2,3.8,1,5.8,1
			c34.4,0,68.8,0,103.2,0c2,0,4,0.2,5.8-1c0,1.5-0.6,3.1-2.1,2.8c-4.3-0.8-8.4,0.8-12.8-0.1c-5.3-1-10.7,0.2-16.1,0.1
			c-17.8-0.2-35.6,0.1-53.4,0.2c-8.1,0-16.1,0-24.2,0c-8,0-9.2,1.1-9.3,9c-0.9,0.9,0.3,2.7-1.4,3.2C327.4,23.3,327.2,23.2,327,23.1z
			"/>
		<path class="st44" d="M274.8,18c4.3,6.1,10.8,5.5,17,5.1c11.8-0.7,23.5,0.1,35.2,0.1l0.1,0.1c-0.5,3.9-3.7,3.3-6.1,3.3
			c-10.3,0.2-20.6,0.1-30.9,0.1c-1.2,0-2.3-0.1-3.5,0c-1.9,0.2-4.5-0.5-4.6,2.4c-0.1,3,2.6,2.5,4.4,2.6c7.8,0.1,15.6,0.1,23.4,0
			c1.3,0,2.6-0.1,3.9-0.8c5.3-2.7,5.3-2.7,7.2,3c0.3,1.5,0.3,2.9-0.5,4.3c-3.4,2.7-4.9-1.1-7.3-2.1c-8.9-0.9-17.9-0.1-26.8-0.4
			c-2.1-0.1-4.3,0.2-6.4-0.5c-1.3,0-2.6,0-4,0c-0.1-2.3-0.1-4.6-0.2-6.9c-0.1-1.1,0.2-2.1-1.2-2.9C271.1,23.5,271.2,21.1,274.8,18z"
			/>
		<path class="st45" d="M447.8,4.3c-2.6-0.7-5.6,0.5-7.9-1.9c-0.6-0.6-2.5-0.1-3.8,0.2c-0.6,0.1-1.3,1.3-1.5,1.2
			c-4.5-3-9.7,1.5-14.2-1.2c-0.1-0.1-0.3-0.3-0.4-0.2c-4.9,2-10.1-1-14.9,1.1c-1.4,0.6-2.7,1-3.7,0.1c-2.3-1.9-4.3-2-6.6,0
			c-1.1,0.9-2.5,0.8-3.7,0c-0.4-0.3-0.9-1-1.1-1c-5,2.2-10.3-1.2-15.3,1.1c-1.3,0.6-2.7,0.9-3.8,0c-2.3-1.9-4.3-2.1-6.5,0.1
			c-0.1,0.1-0.3,0.3-0.4,0.3c-4.5-3-9.7,1.3-14.3-1.3c-0.7-0.4-1.9-0.7-2.3-0.4c-4.4,3.4-8.5-0.4-12.7-0.3c4.1-2,8.5-0.7,12.6-0.7
			c30.5-0.3,61.1-0.2,91.6-0.1C442.3,1.1,445.8,0.7,447.8,4.3z"/>
		<path class="st46" d="M175.1,60.2c0-1.8,0-3.6,0.1-5.4c8.9,0.6,17.7-1.1,26.6-0.8c0.9-0.4,1.8-0.5,2.7,0.3
			c1.4,3.1,1.6,6.2-0.3,9.2c-5.7,1.5-11.4,2.1-17.1-0.2L187,63C183.7,59.1,179.5,59.3,175.1,60.2z"/>
		<path class="st47" d="M242,45.2c-0.1,1.9-4.2,2.2-2,5c0,2.1-1.7,1.6-2.8,1.6c-1.8,0-3.6,0.1-5.4,0.5c-1.7,0.3-3.4,0.2-5.2,0.5
			c-2.3,0.3-4.4-2.2-6.7-0.2c-1.5,0.6-3,0.7-4.3-0.5c-0.6-1.1-0.4-2.1,0.4-3c0.3-1.9,1.2-2.9,3.2-3C226.9,45.9,234.4,44.8,242,45.2z
			"/>
		<path class="st48" d="M327,10.2c0,2.7,0,5.3,0,8c-3.5,2.3-7.1-0.1-10.6,0c-8.5,0.2-17,0.3-25.5,0.5c-0.6,0-1.3-0.3-1.9-0.5
			c4.3-2.7,9.2-0.9,13.7-1.6c7.4-1.1,15.7,1,21.3-6.4C325,10.2,326,10.2,327,10.2z"/>
		<path class="st49" d="M204.1,54.2c-0.8-0.1-1.6-0.1-2.4-0.2c0.8-0.3,2-0.3,2.2-0.9c2.3-5.4,7-3.8,11.1-3.9
			c1.1,2.9,0.3,5.9,0.2,8.8c-0.1,2.1,0,4.8-3.1,4.7c-3-0.1-6-0.7-7.1-4.3C204.8,57,205.3,55.4,204.1,54.2z"/>
		<path class="st50" d="M204.1,54.2c1.7-0.1,2,1.1,1.8,2.3c-0.7,3.2,1.9,3.7,3.8,4.6c2.8,1.2,4.5,0.8,4.4-3c-0.1-2.9,0.6-5.9,1-8.8
			c0.3-0.1,0.6-0.2,0.9-0.1c0,1,0.1,2.1,0.1,3.1c1.1,1.2,1.3,2.7,1.3,4.2c-0.3,2.6,0.7,5.5-1.4,7.7c-3.5,1.7-7.2,2-11,1.1
			c-0.6-0.7-1.2-1.3-1.2-2.3C203.9,60,204,57.1,204.1,54.2z"/>
		<path class="st51" d="M18.1,58.2c-1.3,1.6,0.4,3.2,0.1,4.8c0.3,1.5,1,4.2-1.6,2.8c-4-2.2-8.3-1.5-12.3-2.5L3.9,63
			C7.8,58.7,13.3,59.4,18.1,58.2z"/>
		<path class="st52" d="M545,29.2c1.7,0,3.3,0,5-0.1c1.7,1.5,3.3,1.3,5.1,0.1c1.6,0,3.3-0.1,4.9-0.1c1.7,1.5,3.4,1.3,5.1,0.1
			c1.6,0,3.3-0.1,4.9-0.1c1.7,1.5,3.4,1.3,5.1,0.1c1.7,0,3.3-0.1,5-0.1c1.6,1.6,3.3,1.3,5,0.1c1.7,0,3.3-0.1,5-0.1
			c1.6,1.6,3.3,1.3,5,0.2c5,0,10,0.6,15-0.2c1.6,1.7,3.3,1.3,5.1,0.2c5.3,0,10.5,0,15.8,0c1.7,1.2,3.4,1.5,5-0.2
			c1.7,0.1,3.3,0.1,5,0.2c1.7,1.2,3.4,1.5,5-0.2c1.3,0,2.7,0.1,4,0.1c1.6,1.7,4.1,1.2,5.9,2.3c0.7,0.4,1.5,0.7,1.4,1.7
			c-0.1,0.9-0.7,1.4-1.5,1.7c-1.9,0.7-3.9,0.5-5.9,0.6c-13.5,0.4-27.1,0.8-40.6,1c-2,0-3.9,0.4-5.7,1.3c-0.5,0.2-1.1,0.3-1.7,0.4
			c-2.6,0.3-5.2,0.3-7.8-0.2c-2.5-0.9-5.2-0.4-7.8-1.1c-3.9-1.1-7.8-1.3-11.8-1.3c-22,0-44.1,0.1-66.1,0c-2.8,0-5.6,0.3-8.4-0.6
			c-0.5-0.2-1-0.6-1.3-1.1c-0.4-2.7,1.9-2.5,3.4-3.1c1.9-0.8,4.2-0.2,5.9-1.6c0.3,0,0.7-0.1,1-0.1c1.6,1.6,3.3,1.3,5,0.1
			c1.7,0,3.3-0.1,5-0.1c2,1.6,4,1.4,6,0.1c1.6,0,3.3,0,4.9,0c1.7,1.4,3.4,1.3,5.1,0.1c1.6,0,3.3,0,4.9,0
			C541.6,30.6,543.3,30.5,545,29.2z"/>
		<path class="st53" d="M657.7,36c1.5,7.3,4,9,13.3,9.3c0,0.5-0.1,0.9-0.5,1.2c-4.7,0-3.4,3.1-3,5.8c-0.8,2.3-2.5,3.2-4.7,2.1
			c-2.9-1.5-6-1.7-9-2.4c-5.2-1.1-6.3-2.3-6.7-7.6c-0.1-1.3,0.9-3.1-1.4-3.6c-2.7,0.2-2.3,2.3-2.5,4.1c-0.2,2.2,0.5,4.7-1.5,6.5
			c-0.6,0.1-1-0.2-1.3-0.7c-0.1-3.3,0-6.6-0.1-9.5c-0.1,3,0.2,6.4-0.2,9.8c-4.5,1.9-5.9,1.2-6.6-3.3c-0.1-1,0-2-0.4-2.9
			c-0.5-0.7-1.1-0.9-1.7-0.2c-0.6,2.3,0,4.6-0.5,6.9c-0.2,1-0.3,2.1-1.4,2.4c-1.3,0.4-2.1-0.6-2.8-1.5c-1.7-2.1-0.9-4.8-1.6-7.1
			c-0.3-0.5-0.6-1.3-1.2-1.2c-0.7,0.1-0.7,0.8-0.8,1.5c-0.4,2.9,1,6.1-1.5,8.6c-1.7,0.3-2.8-1.2-2.8-2.2c0.2-5.5-4.3-8.6-6.2-12.9
			c-0.3-1.1,0.5-1.5,1.2-1.9c8.4-1.2,16.9-0.4,25.3-0.6C645.5,36.5,651.6,36.8,657.7,36z"/>
		<path class="st54" d="M657.7,36c-1,2.3-3,2.1-5,2.1c-13.3,0-26.5,0-39.8,0.1c-1,1-2.2,1.2-3.5,1.2c-1,0-2,0-3-0.2
			s-1.9-0.5-2.7-1.1c-0.4-0.3-0.7-0.7-0.8-1.2c6.1-3.2,12.7-1.9,19.1-2c11.4-0.2,22.8-0.7,35.2-1.1c-2.4-2.8-7.2-0.2-7.3-4.6
			C657.8,30,657.9,30.1,657.7,36z"/>
		<path class="st55" d="M670.9,46.1c0.1-0.2,0.1-0.5,0.1-0.7c0.9-1.5,1.9-2.3,3.9-2.2c3.6,0.2,7.2,0.1,10.8,0
			c2.2-0.1,3.5,0.5,3.4,2.9c-0.1,1.4-0.2,2.7-0.3,4.1c-5.4,3-10.9,4.5-16.7,0.9c-1.1-1.2-1.4-2.7-1.3-4.3
			C670.8,46.6,670.8,46.3,670.9,46.1z"/>
		<path class="st56" d="M498.8,33.4c-0.1,0.3-0.1,0.5,0.1,0.8c0.8,0.6,1.3,1.5,1.7,2.4c1.3,1.8,3.2,1.1,4.9,1.3c1.7,0.2,3.6,0,5,1.3
			c1.7,3.6-0.2,7-0.5,10.5c-0.1,1.4-1.3,2.3-2.8,2.3c-2.8-0.1-5.5,1-8.2,0.4c-2.3-3.3-0.7-7.1-1.5-10.6c0-0.6,0.2-1.1,0.5-1.6
			c0.1-2.4,0.1-4.7,0.2-7.1C498.6,32.8,498.8,32.9,498.8,33.4z"/>
		<path class="st57" d="M497.9,40.2c0,0.4,0.1,0.9,0.1,1.3c0,0.6-0.2,1.1-0.9,1.3c-3.8,0.4-4.4-2.3-4.6-5.1
			c-0.3-4.6-0.1-9.3-0.1-13.9c0-2.5-0.2-5-2.2-6.9c-0.1-0.2-0.2-0.5-0.4-0.8c-1.4-2.5-3.9-4.8-1.2-8c6.5,1.6,5.7,7,6,11.6
			c0.3,5.6,0.1,11.2,0.1,16.9C494.8,38.9,494.9,40.8,497.9,40.2z"/>
		<path class="st58" d="M498.8,33.4c-0.2-0.1-0.4-0.3-0.7-0.4c2.1-4.4,6-3.9,9.9-3.8c-0.6,3-3.5,1.7-5.2,2.7
			C501.6,32.7,499.7,31.9,498.8,33.4z"/>
		<path class="st59" d="M525,29.2c-2.1,3-3.7,3-6-0.1C521,29.2,523,29.2,525,29.2z"/>
		<path class="st60" d="M575,29.3c-1.7,3.4-3.4,3.1-5.1-0.1C571.6,29.2,573.3,29.2,575,29.3z"/>
		<path class="st61" d="M585,29.3c-1.7,2.9-3.1,2.8-5-0.1C581.7,29.2,583.3,29.2,585,29.3z"/>
		<path class="st62" d="M635.9,29.1c-2,3-3.2,3-5,0.2C632.5,29.2,634.2,29.2,635.9,29.1z"/>
		<path class="st61" d="M645.9,29.1c-1.9,3-3.2,3-5,0.2C642.5,29.2,644.2,29.2,645.9,29.1z"/>
		<path class="st63" d="M545,29.2c-1.7,3.3-3.4,3.1-5.1,0C541.6,29.2,543.3,29.2,545,29.2z"/>
		<path class="st64" d="M514,29.3c-1.8,3.4-3.4,3.1-5-0.1C510.7,29.2,512.4,29.2,514,29.3z"/>
		<path class="st65" d="M565,29.3c-1.7,3.4-3.4,3.1-5.1-0.1C561.6,29.2,563.3,29.2,565,29.3z"/>
		<path class="st66" d="M615,29.3c-1.7,2.8-3,2.8-5.1-0.2C611.7,29.2,613.4,29.3,615,29.3z"/>
		<path class="st60" d="M555,29.3c-1.7,3.4-3.4,3.1-5.1-0.1C551.6,29.2,553.3,29.2,555,29.3z"/>
		<path class="st67" d="M535,29.3c-1.7,3.3-3.4,3.1-5.1-0.1C531.6,29.2,533.3,29.2,535,29.3z"/>
		<path class="st61" d="M595,29.3c-1.7,2.8-3.1,2.8-5-0.2C591.7,29.2,593.4,29.2,595,29.3z"/>
		<path class="st68" d="M461.1,16.1c6.8,0.2,12.7-2.9,19-4.8c1.2-0.4,2.3-1.1,3.7-0.9c1.2,2.8,2.9,5.1,6.2,5.8l0,0
			c0.2,7.1,2,14,1.1,21.2c-0.6,4.7,2.1,9.4,0.5,14.2c-0.3,0.8,1,1.2,1.5,1.8c-1,4.6-3.8,5.3-8.4,2.3c-3.7-12.6-3.2-25.5-3.1-38.3
			c-0.1-1.3,0.6-2.6,0.1-3.5c-1.8,4.4-7.1,1.9-9.9,4.8c3,0.9,6.2,1.3,7.8,4.4c0.3,0.7,0.3,1.5,0.2,2.2c-0.6,2.2-2.1,3.4-4.3,3.9
			c-0.3,0.1-0.7,0.2-1,0.1c-4.6-0.8-8.3,0-9.1,5.5c-1.6,0.6-3.2,0.6-4.7-0.4c-0.4-0.5-0.6-1-0.8-1.5c-0.6-2.3-0.4-4.7-0.4-7.1
			C459.6,22.5,459,19.1,461.1,16.1z"/>
		<path class="st69" d="M679.9,74.2c0,0.3,0,0.6,0,1c-1,3.6-4.6,2.9-7,4.2v-0.2c-1.3-1.9-1.5-3.9-0.9-6.1c0.2-0.6,0.5-1.2,1-1.6
			c4.6-3.2,4.6-3.2,1-8c-0.6-0.9-1-1.9-1-2.9c0-0.9,0.3-2.1,0.9-2.1c5-0.2,9.9-2.9,14.9-0.1l0.3-0.1c-0.1,3.4-0.2,6.7-0.3,10.1
			c-0.6,0.6-1.3,1.1-2.1,1.1C682.9,69,681.2,71.2,679.9,74.2z"/>
		<path class="st70" d="M679.9,74.2c0-7-0.7-6,8.8-6c0,2.3,0,4.7,0,7C685.8,74.9,682.7,75.8,679.9,74.2z"/>
		<path class="st71" d="M216,202.1c-1.7-0.3-3.6,0.6-5-1c-3.2-3.6-8.1-3.3-12.1-5.2c-2.4-1.2-6.9-1.9-6.2-4.7
			c0.9-3.6,5.4-2.4,8.3-1.8c8.5,1.5,15.9,5.4,21.9,11.8C221.2,205.4,218.3,201.7,216,202.1z"/>
		<path class="st72" d="M688.8,58.2c-4.6-0.9-9.1,1.8-13.8,0.7c-1.3-0.3-0.9,1.4-1.1,2.3c-2,0-2-1.7-2.3-3c-0.5-2.7-1.9-5.5,0.5-8.1
			c5.6,3.5,11.2,0.4,16.7,0.1C688.8,52.9,688.8,55.5,688.8,58.2z"/>
		<path class="st73" d="M526.9,96.2c-11.1,0-22.2,0-33.4,0c-2.1,0-4.4,0.5-4.9-2.7c-0.2-1.5-1.7-1.3-2.9-1.2
			c-1.2,0.1-1.7,0.8-1.8,1.9c-0.1,1.3-0.1,2.8-1.9,2.9c-3.2-6.1-1.4-12.6-1.2-18.9c1.3-3.5,4.2-2.8,7-2.6c5.1,0.4,6.2-0.4,7.6-5.3
			c-0.1-3.7,0.3-7.5,0-11.2c0.5-2.4-1.2-5.7,2.6-6.9c2.4,3.5,1,7.4,1.3,11.2c0.3,3.8,0.1,7.6,0.1,11.5c0,3.2,1.3,4.9,4.7,4.9
			c2,0,4-0.2,5.6,1.4c4.5,0,8.9,0.1,13.4,0c2.7-0.1,3.9,0.9,3.8,3.7C526.8,88.6,526.9,92.4,526.9,96.2z"/>
		<path class="st74" d="M509.9,81.1c-11.8-0.2-11.8-0.2-11.9-12.2c0-5.5-0.1-10.9-0.1-16.4c-1.4-1.5-1.2-3.4-1.3-5.2
			c-0.1-1.9,0.1-3.7,1.4-5.1c0.1-0.2,0.1-0.5,0.1-0.7c1.7,3.4,0.2,7.2,0.9,10.7c0.9,0.8,1.1,1.8,1.3,2.9c-0.2,3.6,1.6,5,5.1,4.7
			c1.9-0.1,3.9,0,5.9,0c1.7,0.1,3.4-0.1,4.7,1.3C513.5,67.6,513.1,74.8,509.9,81.1z"/>
		<path class="st75" d="M672.9,58.1c0,1.1-0.2,2.3,1,3.1c0.4,0.7,0.7,1.3,1.1,2c-0.2,3.1-0.6,6.2-2,9.1c0,2.3-0.1,4.6-0.1,6.9
			c-1-0.7-1.9-1.4-2.9-2c-2.2-2.5-1.3-5.6-1.4-8.5c-0.1-2.6,0.1-5.3-2.4-7.1c-1.6-1.8-3.3-2.3-4.9,0.1c-2.1,1.9-3.9,0.6-5.6-0.7
			c-1.8-1.8-3.2-1-4.5,0.8c-2.4,1.7-4.1,0.6-5.6-1.3c-0.6-2.1,0.7-3.2,2.1-4.3c0.2,0,0.3-0.1,0.5-0.1c6.7-1.8,13.8-0.2,20.6-2
			c1.4-0.3,1.9,0.7,2.4,1.7C671.6,56.5,672.1,57.4,672.9,58.1z"/>
		<path class="st76" d="M523.9,58.2c-3.2-1.5-4.5,2.1-7,2.5c-0.4-0.4-0.7-0.8-0.9-1.3c-0.4-2.6-0.7-5.2,0.3-7.7
			c3.2-1.7,3.8,2.8,6.4,2.7c1.4,1.2,3.1,1.6,4.9,1.4c1.4,0,2.9-0.8,4.2-0.5c2.3,0.6,0.4-1.7,1.4-1.9c2-1.6,1.3-3.8,1.4-5.8
			c0.2-1.7-0.1-3.5,0.8-5.1c2-1.3,2.2,0.5,2.5,1.6c1.5,5.1,3.5,8.7,6.4,11.1c0.3,0.7,0.4,1.4,0.2,2.1c-1.1,2-3.3,2.6-4.7,4.3
			c-2.6,1.2-4.7,0.3-6.5-1.6c-2.4-1.3-3.4,1-5,1.8C525.2,62.7,524.4,60.7,523.9,58.2z"/>
		<path class="st77" d="M647.7,56.3c0.4,1.7-2.4,2-1.6,3.9c2.1,5.7,2.5,11.3-0.1,17c0,1.8-0.4,3.1-2.6,3.1c-2.3,0-2.4-1.6-2.6-3.2
			c-2.6-5.2-1-10.6-1.2-15.9c0.1-1.4,0.5-2.8,1.6-3.8c1.5-1.2,3.4-1.2,5.1-1.4C646.8,55.7,647.3,55.9,647.7,56.3z"/>
		<path class="st78" d="M539.8,61.1c-0.6-3.6,3.4-2.1,4.4-3.9c1.5-1.3,3-1.3,4.6-0.3c0.9,1.8-1,2.2-1.7,3.2
			c-1.4,3.3-0.4,6.9-0.7,10.3c-0.2,2.3,0.4,4.7-1.3,6.6c-0.1,1.7-0.3,3.2-2.6,3.2c-2.3,0-2.6-1.4-2.6-3.2
			C537.5,71.7,537.7,66.4,539.8,61.1z"/>
		<path class="st79" d="M606,77.1c0.2,2.4-1,3.1-3.2,3.1s-2.9-1-2.8-3c-0.7-6.5-1.5-13,0.8-19.3c3.4-1.6,5.8-0.8,6.5,3.2
			C607.1,66.4,608.8,71.9,606,77.1z"/>
		<path class="st80" d="M529,61.2c0-3.6,2.6-3,4.8-2.9c2.2,6.2,2.1,12.5,1.1,18.9c-0.2,2.3-1.6,3-3.7,3s-2.3-1.4-2.3-3
			C526.6,71.8,526.5,66.5,529,61.2z"/>
		<path class="st81" d="M626,77.1c0,1.6-0.2,3-2.3,3.1c-2.2,0-3.6-0.7-3.7-3c-0.6-6.5-1.6-12.9,0.9-19.3c3.5-1.6,5.8-0.8,6.4,3.2
			C627.1,66.4,628.8,71.9,626,77.1z"/>
		<path class="st77" d="M595.9,77.2c-0.2,2.3-1.6,3-3.7,3s-2.3-1.4-2.3-3c-2.8-5.1-1.2-10.5-1.2-15.8c0.9-3.5,2.9-5,6.5-3.3
			C597.4,64.3,596.6,70.7,595.9,77.2z"/>
		<path class="st79" d="M575.9,77.2c-0.8,1.7-1.5,3.2-3.9,2.9c-2.1-0.2-2.1-1.6-2.2-3.1c-2.7-5.1-1.1-10.6-1.3-15.9
			c0.6-4,2.9-4.8,6.4-3.3C577.6,64.1,576.5,70.7,575.9,77.2z"/>
		<path class="st80" d="M635.9,77.1c0.1,1.8-0.4,3.1-2.6,3c-2.3,0-2.4-1.6-2.6-3.2c-2.6-5.5-1.2-11.3-1-17c0.6-2,1.9-2.9,3.9-2.8
			c2.4,0.1,3.3,1.7,3.5,3.8C637.1,66.4,638.8,71.9,635.9,77.1z"/>
		<path class="st78" d="M650.7,61.1c0.4-1.2,0-2.8,2-2.9c1.5,0,3.1-0.3,3.3,1.9c2,5.6,2.4,11.3,0,16.9c0,1.7-0.3,3.1-2.6,3.1
			c-2.3,0-2.6-1.4-2.6-3.1C648.3,71.7,648.8,66.4,650.7,61.1z"/>
		<path class="st79" d="M565,76.1c-0.2,1.7,0.6,3.9-2.3,4.1c-2.3,0.2-2.8-1.2-2.8-3.1c-2.7-5.2-1.1-10.6-1.3-16
			c0.8-4,3.1-4.8,6.6-3.1C567.1,64,567.6,70,565,76.1z"/>
		<path class="st77" d="M660.8,61.1c0.4-1.2-0.1-2.8,2-2.9c1.5,0,3.1-0.3,3.3,1.9c2,5.6,2.4,11.3,0,16.9c0,1.7-0.3,3.1-2.6,3.1
			c-2.3,0-2.6-1.4-2.6-3.1C658.4,71.7,658.8,66.4,660.8,61.1z"/>
		<path class="st81" d="M555,76.1c-0.2,1.7,0.6,3.9-2.3,4c-2.3,0.1-2.8-1.2-2.8-3.1c-2.7-5.2-1.1-10.6-1.3-16c0.8-4,3.1-4.8,6.6-3.1
			C557.1,64,557.6,70.1,555,76.1z"/>
		<path class="st82" d="M535,77.1c-1.9-6.2-0.2-12.6-1.1-18.9c1.4,2.3,3.3,3.5,6,2.8c0,5.3,0,10.6,0,15.9
			C538.2,77,536.6,77.1,535,77.1z"/>
		<path class="st83" d="M595.9,77.2c-1.9-6.2-0.3-12.7-1-19c2,1.1,4.1,1.2,6.1,0c-0.9,6.3,0.9,12.7-1.1,18.9
			C598.6,77.2,597.3,77.2,595.9,77.2z"/>
		<path class="st73" d="M524.9,77.2c-0.3,3-2.4,3.4-4.6,2.7c-2.3-0.8-0.8-2.6-0.7-4.2c0.3-4.2,0.5-8.5,0.3-12.7
			c-0.1-3.1,1.2-4.1,4.1-3.8C526.3,65.1,525.7,71.1,524.9,77.2z"/>
		<path class="st84" d="M616,77.1c0.2,2.4-1,3.1-3.2,3.1s-2.9-1.1-2.8-3c-0.8-5.9-1.1-11.8,0.4-17.6c4.5-1.4,5.6-0.9,5.8,3.3
			c0.2,4.5,0.3,9,0,13.4C616.1,76.5,616,76.8,616,77.1z"/>
		<path class="st85" d="M585.9,77.3c-0.8,1.6-1.5,3.1-3.8,2.9c-2.1-0.2-2.1-1.5-2.1-3c-0.1-0.3-0.1-0.6-0.2-0.9
			c-0.3-4.6-0.3-9.2-0.1-13.8c0.2-3.5,1.8-5.3,5.5-3.5C587.4,65,586.5,71.1,585.9,77.3z"/>
		<path class="st86" d="M585.9,77.3c-2.2-5.9-0.2-12.1-1-18.1c-0.3-0.4-0.3-0.8,0.1-1.2c2.1,0.4,3.4,2,5,3.2
			c0,5.3-0.1,10.6-0.1,15.9C588.6,77.2,587.2,77.2,585.9,77.3z"/>
		<path class="st87" d="M575.9,77.2c-2-6.3-0.4-12.7-1-19.1c0.2-0.1,0.4-0.2,0.6-0.3c0.5,0.1,0.9,0.3,1.2,0.7
			c0.9,1.6,3.9,1.5,3.6,4.1c-0.3,4.8,0.6,9.7-0.5,14.5l0,0C578.6,77.1,577.3,77.2,575.9,77.2z"/>
		<path class="st87" d="M549.8,61.1c0,5.3,0,10.6,0,16c-1.6,0-3.2,0-4.8-0.1c0.4-6.2-1.3-12.6,0.9-18.7
			C547,59.6,548.7,59.9,549.8,61.1z"/>
		<path class="st88" d="M524.9,77.2c-2.1-5.9-0.1-12.1-1-18c0-0.3,0-0.6-0.1-0.9c1.3,1.7,2.4,3.7,5.1,3c0,5.3-0.1,10.6-0.1,15.9
			C527.6,77.1,526.3,77.2,524.9,77.2z"/>
		<path class="st89" d="M555,76.1c-0.1-5.9-0.1-11.9-0.2-17.8c2.4-0.3,3.4,1.9,5.1,2.8c0,5.3,0,10.6,0,15.9
			C558.1,77.3,556.5,77.2,555,76.1z"/>
		<path class="st90" d="M621.1,58.3c-0.9,6.2,0.9,12.7-1.2,18.8c-1.3,0-2.6,0-3.9,0l0,0c-1.1-5-0.2-10.1-0.5-15.1
			C616.7,59.8,618.5,58.4,621.1,58.3z"/>
		<path class="st91" d="M611.1,59.2c-0.9,5.9,0.8,12-1.1,17.9c-1.3,0-2.7,0-4-0.1c0-5.3,0-10.6,0-15.9c1.3-1.1,2.8-2.1,4.1-3.2
			C610.8,58,611.3,58.4,611.1,59.2z"/>
		<path class="st92" d="M565,76.1c0-6-0.1-11.9-0.1-17.9c2.3-0.1,3.4,2,5,2.9c0,5.3,0,10.6,0,15.9C568.2,77.2,566.5,77.2,565,76.1z"
			/>
		<path class="st93" d="M516.9,60.7L516.9,60.7c-0.4,0.1-0.7,0.3-1,0.4c-1.6,0-3.3,0-4.9,0c-2.5-5-7.2-5.6-12-5.9c0-1,0-2,0-2.9
			c2.4-0.9,4.6-2.6,7.4-1.4c1.7,0.7,2.4-0.3,2.5-1.9c0.3-3.2,0.7-6.5,1-9.7c2.8,0.5,2.2,2.8,2.3,4.6c0.2,4-0.1,8.1,0.2,12.1
			c0.2,0.4,0.4,0.9,0.6,1.2C514.2,58.5,516.3,58.8,516.9,60.7z"/>
		<path class="st94" d="M630.8,60.1c0,5.6,0,11.2,0,16.8c-1.6,0-3.2,0.1-4.8,0.1c0-5.3,0-10.7,0-16C627.4,59.9,629,59.4,630.8,60.1z
			"/>
		<path class="st90" d="M650.7,61.1c0,5.3,0.1,10.6,0.1,15.9c-1.6,0-3.3,0-4.9,0.1c0-5.7,0-11.3,0.1-17
			C647.5,60.8,648.8,62.4,650.7,61.1z"/>
		<path class="st91" d="M635.9,77.1c0-5.3,0.1-10.7,0.1-16c1.5-0.6,3.1-1.1,4.8-1c0,5.6,0,11.2,0,16.8
			C639.1,77,637.5,77.1,635.9,77.1z"/>
		<path class="st87" d="M660.8,61.1c0,5.3,0.1,10.6,0.1,15.9c-1.6,0-3.2,0-4.8,0c0-5.6,0-11.3,0-16.9
			C657.5,60.8,658.8,62.4,660.8,61.1z"/>
		<path class="st95" d="M573.9,90.8c0,1.5,0,3,0,4.5c0,1.8-0.6,2.8-2.6,2.8c-2.1,0-2.4-1.3-2.4-3c0-3,0-6,0-8.9c0-1.6,0.3-2.9,2.4-3
			c2.4-0.1,2.7,1.4,2.6,3.2C573.9,87.9,573.9,89.4,573.9,90.8z"/>
		<path class="st95" d="M671.9,91c-0.8,2.1,1.9,6.8-2.7,6.7c-4.4-0.1-1.5-4.8-2.2-7.3c-0.4-1.6,0-3.3,0-5s0.9-2.4,2.5-2.3
			c1.6,0,2.4,0.8,2.4,2.5C671.9,87.3,671.9,88.9,671.9,91z"/>
		<path class="st95" d="M607.1,90.2c-1.2,2.7,1.9,7.8-3.1,7.5c-4.1-0.2-1.8-4.9-1.9-7.4c-0.1-2.3-2-6.7,2.1-6.9
			C609.4,83.2,605.6,88,607.1,90.2z"/>
		<path class="st95" d="M638.9,90.7c0,1.5,0,3,0,4.4c0,1.6-0.3,3.1-2.3,2.9c-1.8-0.1-2.7-1.3-2.5-3c0.2-3.4,0.6-6.8,1-10.2
			c0.1-1.2,1-1.6,2.1-1.5c1.2,0.1,1.7,0.9,1.7,2C638.9,87.1,638.9,88.9,638.9,90.7L638.9,90.7z"/>
		<path class="st89" d="M666,77c0-5.6,0-11.3,0-16.9c3.1,0.9,4.3,2.8,4,6.1c-0.3,3.6,0,7.2,0,10.8C668.7,77,667.3,77,666,77z"/>
		<path d="M540.9,90.9c0,1.6,0,3.3,0,4.9c0,1.7-0.9,2.4-2.5,2.2c-1.5-0.2-2.6-1.3-2.2-2.7c0.9-3.1,0.6-6.2,0.7-9.3
			c0-1.4,0.1-2.7,2-2.8c1.9,0,2,1.3,2,2.7C541,87.6,541,89.2,540.9,90.9C541,90.9,540.9,90.9,540.9,90.9z"/>
		<path class="st96" d="M585.1,90.4c-0.5,1.7,0.8,4.2-1.5,4.3c-2.5,0.1-1.6-2.4-1.5-3.8c0.1-1.5-1.2-4.3,1.5-4.3
			C585.9,86.6,584.3,89.3,585.1,90.4z"/>
		<path class="st97" d="M561,90.8c-0.4,1.5,0.8,4-1.7,3.8c-2.2-0.2-1.3-2.7-1.3-4.1c0-1.4-0.9-4.1,1.3-4
			C562.1,86.6,560.4,89.4,561,90.8z"/>
		<path class="st95" d="M618.1,90c-0.6,1.8,0.9,4.6-1.7,4.7c-2.3,0.1-1.4-2.5-1.4-4s-1-3.9,1.2-4.2C619,86.2,617.2,89,618.1,90z"/>
		<path class="st95" d="M622.9,90.3c0.5-1.3-0.9-4,1.7-3.7c2.2,0.2,1.2,2.7,1.2,4.2c0,1.4,0.9,4.1-1.4,4
			C621.9,94.6,623.4,91.8,622.9,90.3z"/>
		<path class="st70" d="M672.9,79.3c1.2-0.8,0.9-3.9,3.8-2.4c1.6,0.8,2.1-1.1,3.2-1.7c0,1,0,2,0,3C678,81.1,676,83.3,672.9,79.3z"/>
		<path class="st98" d="M659,90.7c-0.6,1.6,0.8,4.2-1.8,4c-2.2-0.2-1.2-2.7-1.2-4.1c0-1.4-0.9-4.1,1.4-4
			C660.1,86.6,658.2,89.5,659,90.7z"/>
		<path class="st96" d="M553,90.5c-0.4,1.4,0.8,4-1.3,4.1c-2.8,0.1-1.5-2.7-1.6-4.2c-0.1-1.4-0.9-4,1.4-4
			C553.8,86.5,552.6,89.1,553,90.5z"/>
		<path class="st99" d="M593,90.9c-0.5,1.4,0.8,4-1.7,3.8c-2.2-0.2-1.2-2.6-1.3-4.1c-0.1-1.5-0.4-4,1.7-3.8
			C594,86.9,592.5,89.5,593,90.9z"/>
		<path class="st100" d="M647.8,90.5c0.4-1.5-0.8-4,1.5-4s1.4,2.5,1.5,4c0.1,1.6,0.4,4.1-1.6,4C646.9,94.5,648.4,91.9,647.8,90.5z"
			/>
		<path class="st101" d="M225.4,116.9c9.7,0.6,19.2,2.8,28.6,5.3c1.6,1.7,1.8,3.8,1.6,6c-0.6,6.5-2,12.9-6.5,18
			c-1.9,2.2-1,4.7-2.1,6.9c0.7,7-6.3,6-9.7,10.2c-0.7-7.5,0.8-13.7,2.1-19.9c1.6-7-1.2-13.9-7.2-17.5c-2-1.2-3.1-0.7-3.2,1.7
			c-0.1,1.5,0.1,3-0.1,4.5c-0.5,4.7-1.2,9.1-6.7,11c-2.6,0.9-4.9,2.8-6.2,5.4c-1.5,2.8-3.9,3.9-7,3.6c0.3-1,0.7-2,1-3
			c4.4-7.5,9.9-14.4,13.7-22.3C225.2,123.6,226,120.4,225.4,116.9z"/>
		<path class="st102" d="M247,153.1c-0.4-3.1,0.6-5.7,2.1-8.4c3.8-7,6.8-14.2,4.9-22.5c1.4-1.6,2.2-3.2,0-4.8c-1.8-1.7-1-2.8,1-3.3
			c2-0.6,4.1-0.5,6.2-0.4c6.9,0.1,13.8-0.5,20.7,0.5c0.5,0.2,1,0.6,1.3,1c0.5,1.3,0.1,2.6-0.4,3.8c-1.9,4.3-1.6,8.6-0.6,12.9
			c-0.8,1.2-1.9,1.7-3.3,1.6c-2.9-1.4-3.5-4.2-4-6.9c-0.3-1.6-0.4-3.3-0.9-4.8c-0.5-1.7-0.8-3.6-3.1-4c-2.2-0.4-3.8,0.7-5.1,2.3
			c-1.3,1.4-1.7,3.7-3.9,4.2c-0.3,0.4-0.5,1-0.8,1.2c-7.7,3.8-4.4,11-5.1,16.9c-0.1,0.7-0.1,1.3-0.1,2c-4.6-0.8-7.8,2.8-7.9,9
			C247.7,153.1,247.4,153.1,247,153.1z"/>
		<path class="st103" d="M311.1,144.3c2.2-2.3,2.8-8.7,1.1-10.7c0,0-0.7,0.5-1,0.7c0.2,3.6-2.3,3-4.2,2.2c-3.2-1.4-5.1-4.1-5.2-7.7
			c-0.2-3.6-0.3-7.2,0.1-10.8c0.1-0.5,0.3-1,0.5-1.5c0.8-1.1,2.3-0.9,3.2-1.7c3.5-3.7,6.1-4.3,10.2-2.2c1.3,3.5,0.7,7.1,0.8,10.6
			c-0.4,4,1.2,8.2-1.4,11.8c0,3.4-0.1,6.9,0,10.3c0.1,2.8-0.9,4.6-4,6.5C311.1,148.9,311.1,146.6,311.1,144.3z"/>
		<path class="st104" d="M321.1,158.1c-0.5,5.1,0.3,10.3-0.9,15.4c0-14.6-0.1-29.2-0.2-43.8c0-1.9,0.8-4-1-5.7
			c-1.6-1.5-1.5-3.6-1.5-5.5c0-5.8-0.2-11.5,0.1-17.3c0-9.1-0.3-18.1-0.1-27.2c0.2-1.5,0.1-3,0.5-4.5c1.3-2-0.4-5.6,3.2-6.5
			c0.4,0.5,0.7,1,0.9,1.6c0.7,5.6,0.3,11.3,0.3,16.9c0.1,23.1,0,46.2,0,69.3C322.4,153.4,322.9,156,321.1,158.1z"/>
		<path class="st105" d="M364.9,189.2c16.1-0.1,32.3-0.1,48.4-0.2c1.2-1.1,2.8-0.9,4.3-0.9c16.9-0.1,33.9,0.3,50.8-0.6
			c2.5-0.1,5-0.3,7.3,1.1c0.6,0.5,0.6,1.1,0.2,1.7c-1.5,1-3.2,0.7-4.8,0.7c-11.9,0-23.8,0-35.8,0c-1.8,0-3.7,0.3-5.2-1
			c-19.3,0-38.5,0.1-57.8,0.1C369.7,190.1,367.2,190.4,364.9,189.2z"/>
		<path class="st106" d="M318.9,101c0,7.7,0.1,15.4,0.1,23.1c0,0.3,0,0.6,0,0.9c-2.1,0.9-3-0.6-3.9-2c-0.1-3.6-0.1-7.2-0.2-10.9
			c-2.1-3-1-6.5-1.4-9.7c0-3.1-0.3-6.3,0.6-9.3c2-2.4,2.3-0.2,3.1,1.1C318.5,96.3,317,99.1,318.9,101z"/>
		<path class="st107" d="M429.9,190c15.3,0,30.6-0.1,45.9-0.1c0.9-0.4,1.2,0.1,1.1,0.9c-0.3,0.4-0.7,0.7-1,1.1
			c-14.7,0.9-29.4,0-44.1,0.3c-0.9,0-1.6-0.3-1.9-1.2C430.1,190.7,430.1,190.4,429.9,190z"/>
		<path class="st104" d="M315.1,123c1.3,0.7,2.6,1.3,3.9,2c0,2.7-0.1,5.5,0,8.2c0.3,4.4-1.5,3.7-4,1.8
			C315.1,131.1,315.1,127,315.1,123z"/>
		<path class="st61" d="M482.1,77.1c0,6.6,0,13.3,0,19.9c0,4.7,0,9.4,0.1,14.1c0,2,0,4,0,6l-0.4-0.1c-2.5-1.8-0.6-4.5-1.2-6.4
			c-0.4,7,1,14.3-0.2,21.7c-0.3,1.8,0.2,3.7-1.7,4.9c-0.3-0.1-0.5-0.1-0.8-0.2c-0.1-1.4,0.5-2.9-0.5-4.3c-2.3,1.1-1.1,5.1-4.3,5.2
			c-0.7-0.5-1-1.3-1.2-2.1c-0.3-2.7-0.3-5.4,0-8.1c0.1-0.5,0.2-1,0.4-1.5c1.1-2,2.1-4,2.5-6.3c2.4-7.8,1.7-15.9,1.9-23.9
			c0.1-5.6-0.7-11.1-1.2-16.7c-0.3-3.3,0-7,3-9.6c1.2-1,1.1-2.7,1.5-4.1c0.3-1.2,0.4-2.8,2.3-2.7c0.6,0.6,0.9,1.4,1.1,2.2
			c0.3,2.6,0.2,5.2,0.2,7.7C483.4,74.5,482.7,75.8,482.1,77.1z"/>
		<path class="st108" d="M472.9,136.1c0,0.7,0.1,1.3,0.1,2c0,3,0,6,0,9c2.1,5.1,1.5,10.6,2.8,15.9c0.7,2.8,1.5,5.7,1.3,8.7
			c-0.1,2.4,2.7,2.1,3.8,3.4c0.9,1.8,0.3,3.4-1,4.8c0,1-0.2,1.9-0.7,2.8c-1,1.6-3.9,2.8-1,5.4c0.7,0.6-0.8,1.8-2.2,1.1
			c-20.9-0.1-41.8-0.1-62.8-0.2c0.1-3.3,2.6-1.8,4-1.8c12.8-0.1,25.6-0.1,38.4,0c2.7,0,4.2-0.1,4.2-3.6c0-3.3-1.2-4-4.1-3.7
			c-2.5,0.2-5,0-7.5,0c-1.8,0-3.4,0.4-3.9-2.4c-0.4-2.5-3-1.3-4.6-1.3c-31.3-0.1-62.5,0-93.8,0c-1.3,0-2.6-0.1-4-0.2
			c1.5-3.6,4.8-2.3,7.3-2.3c24.8-0.1,49.6-0.1,74.4-0.1c4.8,0,9.7,0,14.5,0c3.6,0,4.9-1.4,4.7-5.1c-0.4-6.4-0.5-12.9-0.4-19.8
			c-1.6,0.5-2,1.6-2.4,2.5c-2.3,5.8-6.7,7.6-12.7,7.5c-20.8-0.2-41.6,0.8-62.3,0.4c-11.6-0.2-23.3-0.3-34.9-0.5
			c-2.6-0.1-5.6,0.1-6.3-3.5c-0.2-1.7,0.3-3.3,1.1-4.7c3.2-5.7,3.1-11.3-0.3-16.9c-1.3-2.2-2.7-4.7-0.9-7.4c2-1,3.1,0.2,4.1,1.7
			c1.4,4,3.7,7.1,7.4,9.5c3.3,2.1,6.2,3,9.6,0.9c2.2-1.4,4.8-1.5,7.3-1.1c11.4,1.8,22.8-0.1,34.2,0.8c11.2,0.9,22.4,0,33.6,0.7
			c5.2,0.3,10.1-1.7,15.2-2.5c2.3-0.4,3.2-2.7,4.1-4.7c1.1-2.5,2.8-3.4,5.6-2.9c6.3,1.2,7.7,0.2,10-5.8c0.2-0.5,0.3-1,0.5-1.4
			c0.6-1.3,0.7-3.2,2.5-3.4c2.3-0.1,2.2,2.1,2.9,3.5c0.2,0.5,0.3,1,0.4,1.5c0.2,1.1,0.2,2.3,0.3,3.4c0.2,6.8,0.2,6.8,7,7.5
			C470.2,133.9,472,134.1,472.9,136.1z"/>
		<path class="st109" d="M480.9,175.1c-4.3,0.7-6.8,0.1-5.2-5.4c0.7-2.5,0.2-5.9-1-8.2c-2.5-4.8-1.5-9.7-1.7-14.5
			c1.6,0,3.1,0.4,2.9,2.4c-0.4,3.5,1.1,6.8,1.1,10.3c0,3.3-0.2,6.4,3.1,8.8C482.1,169.9,480.8,172.8,480.9,175.1z"/>
		<path class="st110" d="M482.1,141.1c-0.1,4.3-0.1,8.6-0.2,12.9c-1.9,1.3,0.2,5.4-2.4,5.2c-2.9-0.3,0.2-3.3-0.6-5
			c-2.7-5.5-2.5-11.3-1-17.1h0.3c0.6-0.2,0.8,1.6,1.2,0.6c0.8-1.8,0.6-3.9,0.7-5.9c0.1-1.2-0.2-2.8,1.9-2.7
			C482,133.1,482,137.1,482.1,141.1z"/>
		<path class="st111" d="M476,189.2c0.8-0.1,2.2-0.1,2-0.8c-0.4-2.3-2.9-0.4-4.2-1.9c2-2.2,4-4.4,6-6.6c2.2,4.2-0.3,7.6-2,11.1
			c-0.3,0-0.6,0-0.9-0.1c-0.4-0.3-0.8-0.6-1.1-0.9C475.9,189.7,476,189.4,476,189.2z"/>
		<path class="st112" d="M481.9,129.1c-2,3.9-0.9,8.5-2.6,12.9c-2.3-1.4,0-3.6-1.2-4.8c1.8-5.5,1.8-11.3,1.5-16.8
			c-0.2-3.6,1.5-6.7,0.6-10.1c1.8,2.1-0.1,4.8,1.6,6.8C481.8,121,481.9,125.1,481.9,129.1z"/>
		<path class="st113" d="M216,64.2c0.1-2.7,0.1-5.4,0.2-8.2c1.1-0.1,1.7,0.7,2.5,1.3c2.8,1.1,5.6,0.3,8.3,0
			c8.5-0.8,17.2,0.2,25.6-1.6c0.5-0.1,0.9-0.2,1.4-0.2c2,0.3,4,0.3,6-0.2c0.7-0.1,1.4,0,2.1,0.2c4.1,2.1,7.9,0.1,11.7-1
			c5.3-0.5,10.6-0.4,15.9,0c2.7,0.9,5.2-0.4,7.9-0.5c2.2-0.1,4.3,0.3,6.2,1.6c1.1,5.4,0,6.7-5.2,7.2c-21.9,2-43.9,1.7-65.7,3.5
			c-4.8,0.4-9.6-0.6-14.4,0.4c-1.1,0.3-1.8-0.6-2.2-1.6C216.1,64.8,216.1,64.5,216,64.2z"/>
		<path class="st114" d="M216.2,65.1c6.9-0.1,13.8,0.2,20.7-0.4c12.1-1.1,24.3-0.3,36.3-2.1c3.8-0.6,7.4,0.9,11.3,0.2
			c5.2-1,10.5-1.7,16-1.1c3.7,0.4,2.1-3.8,3.3-5.6c-0.7-1.2-0.1-2.2,0.6-3.1c0.7-0.9,1.5-1.7,2.4-2.5c1.3-0.9,2.3-2.5,4.2-1.3
			c3.3-0.5,1.7-3,1.9-4.7c2.3,3.2,1.2,6.1-0.8,8.8c-1.7,2.3-3.4,4.6-5,7c0,1,0,2,0,3c-1.6,1.6-3.3,0.1-4.9,0.1
			c-2.8,2.5-6.3,2.9-9.7,2.9c-17-0.2-33.9,1.9-50.8,2.7c-6.7,0.3-13.5,0.1-20.2,0.5c-1.7,0.1-3.7,0.5-5.1-1.2
			C216.2,67,216.2,66.1,216.2,65.1z"/>
		<path class="st115" d="M238.1,80.1c10.4,0.9,20.9-2,31.9-0.5c-2.2,3.3-5.5,2.3-7.8,3.6c-0.1,0.1-0.2,0.2-0.3,0.3
			c0.4,0.2,0.8,0.4,1.1,0.7c-7.6,2.7-15.5,3.9-23.3,5.8c-2.2,0.5-2.8-0.6-3-2.7c-0.1-1.9,1.2-4.5-1.8-5.5
			C235.3,80,236.7,80.2,238.1,80.1z"/>
		<path class="st116" d="M216.2,68c8.6,0.6,17.2-0.7,25.9-0.9c11.9-0.2,23.8-1.1,35.7-2.5c6.7-0.7,13.7,0.8,20.5-0.6
			c1.3-0.3,2.5-0.6,3.8-0.9c-0.4,4.4-4.5,3.6-6.6,3.7c-8.7,0.6-17.5,1.8-26,1.7c-13.7-0.2-27.2,2.6-40.9,1.6
			c-3.4-0.2-6.8,0.1-10.2,0.3C216.3,70.6,216.2,69.5,216.2,68z"/>
		<path class="st117" d="M164,64.2c0.1,0.8,0.4,2.3,0.6,2.2c3.4-3.5,8-0.3,11.6-2c0.8,1,0.6,2,0,2.9c0,2.6-0.1,5.2-0.1,7.8
			c-3.6-0.1-7.2,0-10.7,0.2c-2,0.1-3.1-0.6-3.9-2.2c-1.3-2.2-3.3-2.7-5.7-2.8c-1.2-0.2-2.4-0.4-2.8-1.7c1.6-3.7,5-3.8,8.3-4.4
			C162.1,64.2,163,64.2,164,64.2z"/>
		<path class="st118" d="M162.2,72c1.8,4.6,5.7,1.9,8.4,1.8c2.1,0,3.8,0,5.4,1.2c-2.5,2.3-5.6,0.7-8.4,1.1c-2,0.3-4.4-0.5-5.6,2
			c-10.3,1.8-20.6,3.3-31,1c0.2-1.4-1.3-3.4,1.5-3.7c7.8,0.6,15.6,0.3,23.3-0.7C158.4,74.5,160.2,73.2,162.2,72z"/>
		<path class="st119" d="M176.1,67.2c0-1,0-1.9,0-2.9c3.6-0.7,7.4,0.8,10.9-1c5.6-0.1,11.2-0.2,16.8-0.4c0.9,0.5,1.2,1.3,1.2,2.3
			C195.4,65.9,185.8,66.6,176.1,67.2z"/>
		<path class="st120" d="M300,78.3c0.3-0.1,0.7-0.1,1-0.2c6.5,4.7,6.6,6.1,1.8,16.1c-2.6,3.6-6.6,6.1-8.3,10.4
			c-0.3,0.8-1.2,1.3-2,1.4c-5.3,0.3-9.1,3.6-13.1,6.5c-1.9,1.4-3.9,2-5.7-0.1c-1.7-2-1.3-4.1,0.6-5.7c1.8-1.5,2.3-3.1,1.6-5.2
			c0.4-2.5-1-5.2,0.8-7.8c-2,0.9-1,4.1-3.7,4c-1.7-0.1-2.6-1.2-3.2-2.6c0-0.3,0-0.6,0-0.9l0,0c2-0.9-2.2-3.6,1.5-4.4
			c2.4-0.5,4.3-0.7,6,1c1.4,1.4,3.1,2.3,4.5,3.7c4.6,4.9,9.1-1.1,13.9-0.8c1.9,0.1,4.1-4.1,3.2-6.9C298.1,83.5,298.5,81,300,78.3z"
			/>
		<path class="st121" d="M270,95.1c2.1,1.4,2.1,1.4,5.9-1.8c0.4-0.3-0.2-1.6,1-1.1c0.3,0.1,0.7,0.8,0.7,1.2c-0.1,2.5-0.4,5-0.6,7.5
			c-0.8,3-1.6,6-5.1,6.9c-3.4-0.4-6.5,0-9.1,2.5c-1.6,1.6-3.8,1.9-5.8,2.4c-4.2,1-5.3,0-4.9-4.8c0.9-1.5,1.1-3.2,1-5
			c2.2-8.1,2.2-7.9,10.3-7.9C265.6,95.3,267.9,97,270,95.1z"/>
		<path class="st122" d="M270.1,94.2c-3,0-5.9,0-8.9,0C264.2,93.5,267.2,92,270.1,94.2C270.1,94.1,270.1,94.2,270.1,94.2z"/>
		<path class="st25" d="M31.1,99.1c-0.7-3-1.3-6-2-9c4.3-3,9.2-0.3,13.8-1.4c3-0.7,6.2,0.5,9.2-0.6c0.7,0,1.3,0,2,0
			C64.5,87.5,75,87.6,85.5,87c10.2-0.6,20.5-0.9,30.6-2.9c0.3,0,0.7,0,1,0c1,0.7,3.2-0.3,3.2,2c-0.7,1.1-1.8,1.5-3,1.9
			c-2,0.5-4,1.1-6,1.8c-3.3,0.5-6.6,1.3-9.3,3.5c-0.4,0.3-0.8,0.5-1.2,0.7c-1.8,0.8-3.6,1.7-5.7,1.3c-0.5-0.3-0.8-0.7-1.2-1.1
			c-1.5-1.8-3.5-1.7-5.5-1.7c-15.3-0.5-30.5,1.9-45.8,2.1c-1.8,0-2.9,1.5-4.3,2.2C36,98,34.1,100.5,31.1,99.1z"/>
		<path class="st123" d="M153.1,68.1c0.7,1.2,1.9,1,3,1.1c-0.9,3.2-3.6,2.2-5.7,2.4c-5.5,0.4-11.1-0.6-16.6,1
			c-3.3-0.2-3.3,3.1-4.9,4.8c-4.9,1.4-9.9,0.9-14.9,0.9c0.2-2.7,2.4-2.1,4-2.4c1.7-0.3,3.6,0.4,5.2-0.7c-0.3-2-1.9-1.5-3-1.4
			c-13,1.3-26,0.9-39,2.2c-0.5,0.1-1,0.1-1.4,0.4c-0.8,0.8-0.1,1.2,0.6,1.3c1.9,0.4,3.9,0.2,5.9,0.3c2.1,0.1,4.3-0.5,6,1.4
			c-3.9,1.5-8,0.8-12,1c-1.8,0.1-3.6-0.1-5.1,1c-1,0.3-1.3-0.3-1.5-1.1c0.2-2.2-0.2-4.3-0.6-6.5c-0.2-3.1,1.1-4.2,4.3-4.1
			c3.6,0.1,7.3,2.7,10.7-0.4c2-0.4,4-0.7,6-1.1c5.7-0.9,11.4-2.1,16.9,0.7c1.5,0.8,2.5-0.1,3.7-0.6c1.7-0.8,3.3-2.4,5.5-1
			c2.5,1.9,5.4,0.5,8,1c2.3,0.9,4.4-0.1,6-1.3c1.8-1.3,3.5-1.4,5.6-1.2c3.9,0.4,7.6,2.2,11.6,0.8C151.9,66.2,153.4,66.6,153.1,68.1z
			"/>
		<path class="st24" d="M120.1,86.1c-1-0.7-2-1.3-3-2c4.4-2,8.9-0.1,13.5-0.6c8.1-0.9,16.4-0.8,24.6-1.3c5.4-0.3,10.8-1.7,16.2-1.1
			c1.8,0.2,3.7,0,4.6,2c-10.2-1-20.2,1-30.3,1.8c-6.2,0.5-12.6-0.2-18.8,1.1c-1.5,0.3-3.5-0.5-3.9,2
			C121.3,88.6,120.8,87.2,120.1,86.1z"/>
		<path class="st24" d="M116.1,84.1c-1.1,1.4-2.7,1.9-4.4,2C95.4,87.2,79,88.9,62.6,88c-2.9-0.2-5.7,2.1-8.5,0.1
			c1.3-0.3,2.5-0.9,3.8-1c9.9-0.4,19.8-0.5,29.7-1.1C97.1,85.5,106.5,84.2,116.1,84.1z"/>
		<path class="st124" d="M92.2,79.2c-4.1,0-8.1,0-12.2-0.1c-1.6,0-3-0.9-2.7-2.7c0.2-1.4,1-3.1,2.9-1.2c1.5,1.6,3.4,0.7,5.2,0.7
			c11.1,0.1,22.1-1.6,33.2-1.2c2.3,0.1,4.7-0.4,6.6,1.3c-1.7,2-4,0.8-6,1.1c-1.7,0.3-3.7-0.7-5.1,1.1
			C106.8,78.5,99.5,78.9,92.2,79.2z"/>
		<path class="st125" d="M74.1,80.2c0.3,0.3,0.7,0.7,1,1c-0.7,1.3-1.8,1.9-3.2,2c-4.9,0.3-9.9,0.7-14.8,1c-3.7,0-7.4-0.1-11.1-0.1
			c-1-1.1-3.8-1.9-0.8-3.8c8.9-1.4,17.9,0,26.7-1.1C72.8,79.1,73.5,79.5,74.1,80.2z"/>
		<path class="st24" d="M52.1,88.1c-5.3,2-10.9,0.9-16.4,1.5c-2.1,0.2-4.4,0.1-6.6,0.5c0-0.7,0-1.3,0-2
			C36.8,88.1,44.4,88.1,52.1,88.1z"/>
		<path class="st126" d="M129,77.3c0.4-2.1-0.9-5.2,3-5.2c0.3,1.5,0.2,2.9-0.9,4c-0.7,1,3,2.1-0.1,3C130.4,78.5,129.7,77.9,129,77.3
			z"/>
		<path class="st127" d="M24.1,182.1c-1.8-4.3-2.6-9-2.7-13.5c-0.4-14.9-2.2-29.7-3.3-44.6c-0.1-2-0.7-3.9-1.1-5.9
			c1-3.8,1.9-7.7,3.1-11.5c1.2-3.9,0.6-7.6-1.6-10.9c-1.9-2.9-3.9-5.7-5.1-9c-1.2-3.4-2.9-2.3-4,0.3c-0.4,0.3-0.8,0.3-1.3,0l0,0
			c-0.5-4.4-3.6-8.3-2.5-13c1.4-4,3-4.5,5.5-1.7c1.7,2,2.8,4.5,4.1,6.7c1.8,3,3.9,5.8,7.9,5.9c2.6,8.2,4.5,16.6,5.8,25.1
			c-1.3,1.7-0.7,3.5-0.2,5.2c0.5,2,1,4.3,0.1,5.8c-2.4,4.2-1.6,8.3-0.7,12.5c0.3,1.3,0.6,3-0.1,3.9c-4.7,5.9,0,11.1,1.1,16.6
			c0.5,2.4,2.4,3.1,4.2,3.8c2,0.8,0.6-2.1,2-2.1c1.5,3,0.7,6.1,0.7,9.2c0,2.2-1.4,3.3-3.7,2.5c-2-0.7-4.2-0.6-5.7-2.5
			c-0.6-0.8-1.4-2.2-2.8-1.4c-1.2,0.7-0.7,2.1-0.7,3.2C23.4,172,23.7,177,24.1,182.1z"/>
		<path class="st128" d="M33.1,117.1c1.6,0,3.2-0.2,2.9-2.3c-0.6-4.1,2.2-4.4,5-4.7c-3.8,7-0.5,13.9,0.4,20.7
			c0.6,4.7,1.6,9.4,1.6,14.1c-0.2,0.6-0.5,1.1-0.7,1.7c1.8,2.7,3.7,5.3,4.4,8.5c-0.1,0.7-0.3,1.3-0.5,1.9c-1,3.1-0.3,4.4,3.3,3.5
			c2.9-0.7,5.6-1.8,8.4-2.7c1.2,1.7,2,3.2-0.8,4.1c-2.8,0-5.7-0.5-7.8,2.1c-0.3,0.3-0.9,0.7-1.3,0.6c-9.5-1.3-2.5,3.4-1.8,5.3
			c0.9,2.5,2.5,4.6,3.9,6.9c-6.1-0.1-7.5-1.7-8.9-8.3c-2.2-10.3-4.5-20.5-5.7-31C34.7,130.9,33.9,124,33.1,117.1z"/>
		<path class="st129" d="M35.3,155.9c-0.4,1.6,0.4,3.3-0.8,4.9c-1.1-0.6-0.9-3.1-3-2c-0.2,0.1-0.7,0-0.9-0.1
			c-2.8-1.3-6.8-14.6-5.2-17.2c0.7-1.3,2.1-2.9,1.7-4c-2.7-8.1,1.7-16,0.7-23.9c-0.2-1.4-1.2-3.1,1.4-3.3
			c1.9,12.6,3.8,25.2,5.6,37.8C35,150.6,35.1,153.3,35.3,155.9z"/>
		<path class="st130" d="M23.2,85.1c-1.9,2.7-3.5,0.8-5-0.4c-3.6-2.7-4.8-7-7.1-10.5c-1.2-1.9-2.5-4.6-5-1c-0.3,0.5-0.7,0.4-1,0
			c0.4-3.3-0.6-6.5-0.8-9.8c4.2-1.5,8.4-1.5,12.1,1.2c3.1,2.2,1.1-1.1,1.8-1.4C19.9,70.4,21.5,77.7,23.2,85.1z"/>
		<path class="st131" d="M120.1,86.1c1.4,0,2.1,1.2,3,2c0.7,3.4-2.9,2.4-4,4c-1.6,2.2-4.4,2.2-6.4,3.7c-1.5,0.8-1.4,2.8-2.9,3.5
			c-1.4-1.1-2.6-1-4.3-0.2c-9.4,4.5-18.9,8.9-28.3,13.3c-2.2,1-4.9,3-6.3-1.1c8.8-6,17.6-11.8,27.4-16.2c1.1-0.5,2-1.1,3.1-1.6
			l-0.1-0.2c3.6-3,7.9-2.1,12-2.1c2.4-0.1,3.8-1.5,4-3.9C118.1,86.9,119.1,86.5,120.1,86.1z"/>
		<path class="st132" d="M143.1,95.1c0.3,0,0.7,0,1,0c-0.4,2.8-2.6,3-4.7,3.2c-2.1,0.3-4.3,0.1-6.4,0.3c-3.6,0.5-6.8,1.3-6.6,6.2
			c0.1,2.3-0.8,4.3-3.8,4.1c-0.8-0.2-1.5-0.6-2-1.3c-0.9-2.1-1.6-4.3-3.1-6.1c-1-1.3-1.7-2.9-0.3-4.5c1.2,1.4,2.7,2.9,4.6,1.6
			C128.4,94.3,136.1,97.2,143.1,95.1z"/>
		<path class="st133" d="M117.1,97.1c-0.5,2.3,1.1,3.6,2.3,5.1c1.1,1.4,1.8,3.1,1.5,5c-2.2,0.6-3.3-1-4.5-2.4
			c-1.7-2-4.1,1.1-5.8-0.9c-0.1-0.5-0.1-0.9,0-1.4c1.6-2.4,0.2-5.7,2.6-7.8c1.5-0.2,3.4-1.3,3.8,1.4
			C117.1,96.5,117.1,96.8,117.1,97.1z"/>
		<path class="st132" d="M117.1,96.1c-1-1.5-2.6-0.9-4-1c-0.5,0.4-0.9,0.3-1.3-0.1c2.1-1.8,4.7-2.2,7.2-2.9
			C119.2,93.8,118.9,95.3,117.1,96.1z"/>
		<path class="st134" d="M9.1,87.2c0.4-1.6-1-4.1,1.4-4.7c2.1-0.5,3.3,1.5,3.9,3.2c1.3,4.1,4,7.3,6.1,10.8c1.7,2.8,2.7,6.5,1,10
			c-1.9,3.8-0.7,8.7-4.4,11.7c-0.7-1.7-1.3-3.4-2-5.1c-1.2-7.2-3.4-14.2-5.5-21.2C9,90.3,8.1,88.8,9.1,87.2z"/>
		<path class="st135" d="M9.1,87.2c1.8,6.8,3.5,13.7,5.4,20.5c0.5,1.8,0.7,3.6,0.5,5.4c-2.4-8.6-6.2-16.9-6.9-25.9
			C8.4,87.1,8.8,87.1,9.1,87.2z"/>
		<path class="st135" d="M5.1,73.1c0.3,0,0.7,0,1,0c-0.8,4.9,2.5,9.1,2,14C6,82.7,3.4,78.4,5.1,73.1z"/>
		<path class="st136" d="M57.1,162.1c1.4-1.4,1.5-2.7,0-4.1c-1.3-0.5-2.1-1.5-3.1-2.4c-4.4-3.4-8.8-7-13.8-9.5
			c0.6,0,1.2-0.1,1.8-0.1c3-1.1,3.3-3.3,2.8-6.2c-1.2-6-0.9-12.1-2.7-18.1c-1.2-4-1.3-8.4-0.9-12.6c0-0.7-0.1-1.3-0.1-2
			c-0.7-1-1.1-2.2,0.2-2.8c1.1-0.5,1.4,0.8,2.1,1.4c0.8,0.7-0.8,2.9,1.6,2.4c2,2.7,1.9,5.9,2.3,9c1.2,8.2,2.6,16.3,3.9,24.5
			c1,6.4,4.9,7.8,10.1,3.7c1.4-1.1,2.6-2.6,4.6-2.7c2.9,2.4-0.1,3.6-1.2,4.8c-2,2.4-2.9,4.5-0.1,6.7c2.5,1.4,4.5,0.1,6.3-1.4
			c11.5-9.4,22.5-19.5,34-29c3.7-3,7.8-5.7,10.8-9.4c0.7-1.2,1.1-2.7,2.2-3.7c2.1-0.9,4.2-1.8,6.5-1c0.8,3.2-3.3,3-3.7,5.4
			c-10.3,8.7-20.6,17.3-30.9,26c-6,3.5-10.6,8.8-15.9,13.1c-2.4,1.9-4.9,3.6-8,4c-1.2-0.6-2.4-0.1-3.6-0.2c0.1,0.5,0.5,0.8,0.7,1.3
			c-3.9,3.1-5.4,7.5-6,12.1c-0.2,1.7-0.9,2.8-2.4,3.2c-1.8,0.5-2.4-1.3-2.7-2.3c-0.9-2.8-2.5-4.5-6.5-5.4
			C50.5,165.6,54.9,166.1,57.1,162.1z"/>
		<path class="st137" d="M125.1,110.2c-2.3,0.3-4.6,0.6-7,0.9c-2-0.7-2.2-2.3-2.3-4.1c0.1-1.1,0.3-2.2,1.2-3
			c1.3,1.1,2.6,2.1,3.9,3.2c0.4,0.3,0.7,0.6,1.1,0.9c4,1.6,4.7-1.5,5-4c0.4-4.1,2.6-5.3,6.2-5.4c2.3,0,4.6-0.6,6.8-0.9
			c1-0.1,2.1-0.5,1.9,1.2c-4.9,3.8-11,6-15,11C126.4,110.7,125.8,110.7,125.1,110.2z"/>
		<path class="st138" d="M142,99.1c-4.2-0.6-8,1.6-12.2,1.5c-1.5,0-1.2,1.7-1.1,3.1c0.2,3.9-2.6,5.7-6.6,4.5c2,0,2.9-0.7,3.1-2.9
			c0.6-6.9,1.9-7.8,9.5-8.1c3.2-0.1,6.8,1,9.4-2c0.7-0.1,2.3-1.2,1.5,0.8C145,97.3,143.6,98.5,142,99.1z"/>
		<path class="st139" d="M125.1,110.2c0.6,0,1.3-0.1,1.9-0.1c-1.5,2.3-3.9,3.5-6,4.9C121.2,112.4,123.7,111.7,125.1,110.2z"/>
		<path class="st140" d="M252,108.1c1,4.9,5.3,5.5,10.2,1.2c3-2.6,6-3.6,9.8-2.1c1,1.3,0.2,2.7-0.9,2.5c-4.6-0.4-7,3-10,5.3
			c-1.9,0-3.9,0.1-5.8,0.1c-2.1-0.1-1.3,1.3-1.3,2.3c-3.8-0.1-7.5-0.3-11.3-0.3c-1.9,0-3.6-0.1-4.8-1.8c1,0,2-0.2,3-0.1
			C246.2,115.2,252.1,116.5,252,108.1z"/>
		<path class="st141" d="M63.2,159.2c-1.4-0.4-2.9-0.5-3.7-2.5c2.6-1,4.7-0.3,6.6,1.4C65.1,158.4,64.1,158.8,63.2,159.2z"/>
		<path class="st142" d="M44.2,81.1c0.6,1,1.2,2,1.8,3c-2,0.1-3-1.2-4.1-2.6c-0.1-5.3-4.1-5.1-7.8-5.4c-0.4-0.2-0.7-0.5-1.1-0.7
			c-0.9,0.7-1.9,0.9-3,0.7c-1.9,1.8,0.1,4.5-1.5,6.8c-3.2-3-2.5-7.2-3.6-10.7c2.1-2.4,4.4-4.4,7.9-2.8c0.6,0.2,1.4,0.6,1.8,0.3
			c3.5-2.2,5.9-0.3,8,2.4c1.3-1.3-0.5-1.8-0.2-3.2c1.1-0.2,2.4,0.1,3.2,1c1.5,1.6,4.1,1.9,5,1.1c4.2-3.8,8.5-0.9,12.8-0.8
			c8.2,0.1,16.3-2.1,24.5-1c-1.4,3.4-3.5,3.6-6.7,2c-4.7-2.4-6.9-1.3-7.4,3.2c-2,1.7-4.4,1.1-6.7,1.2c-5.4,0.2-10.9-0.3-16.3,0.7
			C47.9,76.8,45.5,78.1,44.2,81.1z"/>
		<path class="st143" d="M91.7,56.1c2.5,0.5,5.1,1.2,8,0.3c1.2-0.4,4.2-2,4.6,1.4c0.3,3-0.8,5.3-4.3,5.3c-4.4,0-8.9,0.2-13.3-0.4
			c-1.8-0.2-3.2,0.3-4.8,0.4c-2.6,0.2-3.9-1.8-4.2-3.5c-0.4-2.3,2.1-1.3,3.3-1.6C84.4,57.3,87.9,56.8,91.7,56.1z"/>
		<path class="st39" d="M153.1,68.1c-5.4,1.3-10.3-1.1-15.4-1.8c-1.4-0.2-2.2,1.4-3.3,1.9c-2,0.9-4.2,3.4-6.3,0
			c7.8-4.1,15.9-5.2,24.6-2.8c2.4,0.7,5.4-1.9,8.4-1.2C158.4,65.5,155.7,66.8,153.1,68.1z"/>
		<path class="st142" d="M120.1,67.2c-3.5-0.2-5.5,2.5-7.8,4.4c-2-2.3-4.6-3.3-7.5-3.4c-3.6-0.2-7.1-0.1-10.7-0.2
			c5.4-2.1,10.9-3.6,16.4-0.9c1.8,0.9,2.6-0.8,4.1-0.6C116.4,66.7,118.4,65.2,120.1,67.2z"/>
		<path class="st144" d="M302,94.1c0.3-1.1,0.4-2.4,1-3.3c3.5-4.9,1.7-8.9-2-12.7c4.7,1.4,9.3-0.7,14-0.1c2,2.2,1.5,4.6,0.9,7.1
			c-0.1,0.3-0.3,0.6-0.5,0.8c-1.7,1.5-5.1,0.2-5.7,3.2c-0.7,3.2-0.5,6.6-0.1,9.9c0.4,3.4,3.2,2.6,5.4,3c0,3.4,0,6.7,0,10.1
			c-3.6,0.5-7.7,0.2-8.9,4.9c-1.6-4.7-1.3-5.4,4.5-9.3c-3.2,0.9-7.3,0.7-6.5,6.2c0.1,0.8-0.4,1.6-1,2.2l-0.3,0.1
			c-6.6-0.1-13.2-0.2-19.8-0.3c0-0.3,0-0.6,0-0.8c2.2-2.1,4.9-1.3,7.5-1.5c5.2-0.5,6.8-1.8,8.3-6.8C300,102.7,299.2,97.9,302,94.1z"
			/>
		<path class="st145" d="M315.1,40.2c0-2-0.1-4-0.1-6c1.7,1.2,1.3,5.2,5,3.9c4.3,3.4,2.3,7.8,1.9,12c-2.5,5.2-1,10.9-2.3,16.2
			c-0.2,0.9,0.1,2-0.5,2.8c0,1.3,0,2.6,0,3.9c-2.3,0.4-3.5-0.6-3.5-2.9c0.1-8.1-0.4-16.2,0.3-24.3C315.5,44.1,316.6,42,315.1,40.2z"
			/>
		<path class="st146" d="M315.9,46c0.1,7.4,0.2,14.8,0.1,22.2c0,2.4,0.6,4.2,3,4.9c0,9.3-0.1,18.6-0.1,27.9c-1.3-0.1-3,0.4-2.3-1.9
			c0.7-2.6-0.5-4.8-1.4-7.1c-1.8-1.9-1.8-3.9-0.2-5.9c0-2.7,0-5.3,0-8c0.1-8.9,0.1-17.9,0.2-26.8C315.2,49.5,314.8,47.6,315.9,46z"
			/>
		<path class="st147" d="M307,60.1c-0.1-3.6,1.8-5.7,5-7c1.3,2.3,1.5,4.7-0.1,6.9C310.4,62.3,308.6,59.9,307,60.1z"/>
		<path class="st148" d="M371,14.2c-2.4,2.8-1.5,4,1.9,4c28.6,0,57.3-0.1,85.9-0.1c1.2,4.1,0.2,5.8-4,6.2c-3.3,0.3-6.6,0.4-9.9,0.4
			c-12.9-0.1-25.8,0.4-38.7-0.2c-9-1.8-18.2-0.7-27.3-0.7c-11,0-22.1,0.3-33.1-0.3c-5.1-0.3-6.3-2.9-3.8-8.3
			c6.6-2.1,13.4-0.6,20.1-0.9c0.2,1-0.5,1.4-1.1,1.9c3.6,0.9,3.6,0.9,4.9-1.9C367.6,14.3,369.3,14.3,371,14.2z"/>
		<path class="st149" d="M460.9,33.2c0,0.3,0,0.6,0,0.9c-0.4,0.5-1,0.9-1.6,1.1c-2.4,0.8-5,0.6-7.4,0.6c-41,0-82,0-122.9,0
			c-2.9,0-6,0.7-8.6-1.5c-1.5-0.8-0.9-2.4-1.5-3.5c-0.7-1.1-2.1-2-2.4-0.2c-0.7,3.3-2.9,2.6-5,2.6c-9.1,0-18.3-0.1-27.4,0.1
			c-3.7,0.1-4-1.7-3.9-4.6c0.1-2.8,0.5-3.8,4-3.7c13,0.4,25.9,0.2,38.9,0.2c1.8,0,3.3-0.2,4.2-1.9c0.6-1,1.3-2,1.9-3
			c0,0.3,0,0.6,0,1c0.7,1.1,1,2.3,0.5,3.6c-0.9,2.7-2.8,4.7-5.3,6.4c8.5,0.6,16.8,0.5,25.1,0.5c34.5,0,68.9,0,103.4,0
			C455.5,31.6,458.5,31.1,460.9,33.2z"/>
		<path class="st44" d="M329,24.2c0-1,0-2,0-3c1.4,0.4,2.9,0.7,4.2,1.2c4.4,1.9,5.6-0.5,5.8-4.3c0.2-3.4,0.3-3.4,3-2.9
			c0,7,0,7,6.8,7c16.9,0,33.9,0,50.8,0c2.1,0,4.3-0.3,6.3,1c-0.1,2.2-1.8,2.1-3.2,2.3c-2.1,0.3-4.3,0.4-6.5,0.3
			c-15.2-0.4-30.4-0.5-45.7,0.4c-3,0.2-5.9-0.7-8.8-1.5c-2.6,0-4.7,2.1-7.5,1.7C332.4,26.2,330.1,26.7,329,24.2z"/>
		<path class="st150" d="M365.9,14.3c0.4,1.2,3.3,2.6,0.7,3.6c-2.5,1-6.4,1-7.7-1.1c-1.6-2.4,2.7-1,3.3-2.6
			C363.4,14.3,364.6,14.3,365.9,14.3z"/>
		<path class="st151" d="M341,23.2c4.3,0.7,8.4,1.8,13.1,1.2c10.4-1.3,21,0.2,31.6-0.7c5.5-0.5,11.4,0.5,17.2,0.5
			c1.2,0,2.4,0.1,3.2-1c16.2,0,32.4,0,48.6,0c3.3,0,4.9-1.6,4.3-5c1.4-1.8,0.8-4,1.2-6.3c1.3,1.4,0.6,3,1,4.2
			c-0.1,3.4-0.2,6.7-0.3,10.1c-3.4,2.3-7.4,2.9-11.3,3.4c-16.2,1.8-32.6,1.8-48.8,1.8c-16.8-0.1-33.6,0.6-50.4,0.3
			C343.4,31.5,340.5,28.8,341,23.2z"/>
		<path class="st152" d="M425.6,15.6c10.6,0,21.3,0,31.9,0C446.9,18,436.2,16.6,425.6,15.6z"/>
		<path class="st153" d="M376.2,15.8c8.3,0,16.6,0,24.9,0c0,0.2,0,0.5-0.1,0.7c-8.3,0-16.7,0-25,0C376.1,16.2,376.1,16,376.2,15.8z"
			/>
		<path class="st154" d="M409.3,16.3c-2.5,1.2-4.1,1-5.6-0.1C405.3,15,406.9,14.9,409.3,16.3z"/>
		<path class="st155" d="M175.1,60.2c4.3-3.6,10.6-2.1,11.9,2.8c-3,0.1-5.9,0.3-8.9,0.1C176.7,63,173.9,63.4,175.1,60.2z"/>
		<path class="st156" d="M305.2,53.3c-0.5,0.9-0.9,1.8-1.4,2.7c-4.8-2.2-10,1.5-14.8-0.8c0.6-1.5,1.2-3,3.2-3.1
			c-1.9-1.1-5.3,0.9-6.1-2.9c5.9-2,12.2-1,18.3-1.8c1.9-0.3,3.8-0.1,5.8-0.2c1.8-0.1,1.3,0.8,0.9,1.8c-1.7,0-2.6,1.4-3.9,2.2
			c-2.7,0.9-5.5-0.1-8.4,0.2C300.8,53.2,303.7,50.5,305.2,53.3z"/>
		<path class="st156" d="M274,55.2c-3.9,1.8-7.7,4.2-12,1c0.4-1.1,1.6-1.6,1.8-2.9c-3.5-1.3-7.4,1.4-10.5-1.5
			c-0.1-0.2-0.2-0.4-0.2-0.7c7.6-2.2,15.4-1.7,23.1-1.9c3-0.1,6.4-3.3,8.9,0.9c-1.3,3-3.8,1.6-5.8,1.6
			C276.6,51.7,274.2,51.7,274,55.2z"/>
		<path class="st157" d="M274,55.2c-1.9-2.7-2.9-4.2,2-4.5c3-0.2,6.2,1.6,9-0.5c0.4-0.3,0.7-0.6,1.1-0.9c0.9,0.9,1.9,1.2,3.4,1.2
			c2.7-0.1,3.9,1.6,3.9,4.7c-2-3.2-3,0.3-4.4,0.1C284,55.2,279,56.1,274,55.2z"/>
		<path class="st156" d="M231,51.2c3-0.6,6.1,0.2,9-1c1.3,0.3,2.6,0.6,4,0.9c0.1,0.2,0.3,0.3,0.4,0.5c0.2,1.5-0.8,1.9-2,1.9
			c-1.3,0-2.5,0-3.5,1c-2,0.6-3.8-0.9-5.8-0.7c-0.5-0.1-0.9-0.2-1.3-0.4C231.1,52.9,230.6,52.2,231,51.2z"/>
		<path class="st156" d="M244,51.1c3-1.7,6-1.2,9,0l0.1,0.2c0.2,1.5-0.9,2.5-1.5,3.6c-0.3,0.3-0.7,0.5-1.2,0.4
			c-1.3-2.5-5.2-1.2-6.2-4.1L244,51.1z"/>
		<path class="st24" d="M95.1,95.1c-14.8-0.4-29.4,1.2-44.2,1.2c-2.4,0-3.5,1.5-5,2.8c-0.8-0.2-1.5-0.4-1.8-1.4
			c-1-3.4-2.5-2.4-4.5-0.7c-2.4,2.2-5,4.1-8.5,2.1c0.5,0,1.1,0.2,1.5-0.1c10.4-8,22.8-6,34.6-7.1c7.7-0.7,15.4-0.7,23.1-0.9
			C93.2,91,95.3,91.6,95.1,95.1z"/>
		<path class="st138" d="M41.2,109.1c2.3,11.9,4.8,23.8,5.2,36.1c-1.4,0.1-3-0.1-4.4,0.8c-0.7-9.6-2.1-19.3-4.5-28.5
			c-1.2-4.5,2.1-5.1,3.6-7.4C41.1,109.8,41.2,109.4,41.2,109.1z"/>
		<path class="st158" d="M34.1,76.1c0.1-0.1,0.3-0.1,0.4-0.2c7.2-2.2,8-1.5,7.3,5.6c-0.3,0.1-0.6,0.2-1,0.2
			C34,83.1,34,83.1,34.1,76.1z"/>
		<path class="st138" d="M44.2,101.2c-0.7,2.2,0.2,4.4,0.1,6.6c-2.8,1.8-0.5-1.7-1.7-1.6c-0.5,0-0.2-2.2-1.4-0.5
			c-0.2,0.3-0.1,1-0.1,1.5c-3-1.1-2.7-4.2-4.1-6.4C39.6,98.4,41.7,102.5,44.2,101.2z"/>
		<path class="st24" d="M32.1,83.1c-3.6-1-1.3-4-1.9-6c1.4-0.7,2.2-0.3,2.3,1.2C32.6,79.9,33,81.6,32.1,83.1z"/>
		<path class="st24" d="M32.1,83.1c-0.7-2,1.6-4.9-1.9-6c0-0.3-0.1-0.7-0.1-1c0.7-1.3,1.8-1.2,3-0.7C32.7,77.9,34.1,80.7,32.1,83.1z
			"/>
		<path class="st156" d="M254,56.1c-2.5,1.9-5.8,2-8.3,2c-9-0.1-17.9,1.1-26.9,0.9c-0.5,0-1.1-0.6-1.6-0.9c3.1-1.4,4.6-3.5,2.9-6.9
			c2.7-2.5,4.5,1.4,7,1c1.2,1.5,0.8,2.5-0.9,3.3c2.6,0.7,3.4-3.1,6-2.2l0,0c1.4,0.1-0.4,2.8,1.6,2.2c1.6-0.5,3.2-0.2,4.8-0.6
			c4.2-1,8.4-1,12.6,0.3l0,0C252.3,54.5,253.2,55.1,254,56.1z"/>
		<path class="st159" d="M220.1,51.2c3.7,4.3,3.2,5.6-2.9,6.9c-0.3-0.7-0.7-1.4-1-2.1c0-1.3,0-2.5-0.1-3.8
			C217.5,52,219,52.6,220.1,51.2z"/>
		<path class="st160" d="M232,53.2c-2.1,1.2-3,4.7-6.5,3.1c-1-0.5-2.7-0.2-2.2-1.9c0.4-1.6,1.5-0.9,2.7-0.5c1.7,0.6,0.7-1.2,1-1.8
			c1-1.7,2.9,0.3,4-1C231.4,51.8,231.7,52.5,232,53.2z"/>
		<path class="st58" d="M498.9,37.2c0-1-0.1-2-0.1-3c26.4,0,52.8,0,79.2,0c3.1,0,6.2,0.2,9,2.1c1.1,7.6,1.1,7.6,9.4,7.6
			c1.5,0,3,0,4.5,0.1c0.5,0,1,0.1,1.5,0.3c0.5,0.1,1,0.3,1.4,0.6c3.1,3.4,6.7,4.9,11.4,4.1c3-0.5,4.3,0.7,2.2,3.6
			c-0.9,1.3-1.2,3.1-2.8,4c-2.3-0.4-1.6-4.9-5.1-3.5c-0.4,0.1-0.9,0.3-1.3,0.4c-2.5,0.2-4.9,2.2-7.6,0.8c-0.9-1.3-0.7-2.8-1-4.4
			c-0.8,1.7-0.1,3.8-1.8,5c-1.4,0.8-2.9,0.8-4.3,0.2c-2.3-1.2-1.2-3.8-2.3-5.7c-0.4,1.8,0.3,3.7-1,5.2c-2.6,1.7-5.2,1.1-7.6-0.4
			c-0.4-0.2-0.7-0.5-1.1-0.8c-1.8-1.3-3.7-0.8-5.6-0.2c-0.5,0.1-1,0.2-1.5,0.1c-2.9-1.1-5.7-2.2-3.1-6.1c1.2,0.1,2.2,0.8,3.2,1.2
			c2.1,0.9,4.5,1.4,6.1-0.1c1.7-1.8,1.4-4.7,1.4-7.1c-0.1-2-2.3-1.3-3.7-1.3c-7.8-0.1-15.6,0-23.3,0c-2.1,0-4.3,0.1-6.4-0.4
			c-6.8-0.5-13.5,0.6-20.3,0.6c-8.5-0.1-16.8-1.7-25.3-1C501.4,38.8,500.1,38.2,498.9,37.2z"/>
		<path class="st161" d="M602,45c-3.1,0-6.3,0.1-9.4,0.1c-7.5-0.1-8.3-1.4-5.7-8.9c2.3,0.3,4.8-1,7,0.8c-0.1,0.2-0.2,0.4-0.3,0.6
			c-2.1,4.1-2,4.5,2.3,5.2C598.1,43.2,600.8,42,602,45z"/>
		<path class="st162" d="M602,45c-2.2-1.4-4.7-0.5-7.1-0.8c-0.9-2.2-1.7-4.4-0.8-6.7l-0.2-0.4c2.7,0.1,5.4,0.2,8.1,0.3
			c1.5,2.5,2.1,5,1,7.8C602.7,45.1,602.3,45.1,602,45z"/>
		<path class="st163" d="M603,45.1c-0.8-2.5-1.2-5.1-1-7.8c0.3-0.1,0.6-0.2,0.9-0.4c0.3,0.1,0.6,0.2,0.9,0.4
			C605.3,40.2,606.9,43,603,45.1L603,45.1z"/>
		<path class="st164" d="M602.9,45.2c2.2-2.4,0.8-5.2,0.9-7.8c0.7,0.3,1.5,0.7,2.2,1c1,1,1.4,2.6,3.2,2.5c1.8,0.2,3.3-0.5,4.7-1.7
			c4.5,3.9,5.9,9.4,7,14.9c3.7,1.3,7.5,3.6,11.1-0.3c0.7-0.3,1.3-0.3,2,0c2.3,3,5.3,1.4,8,1.3c0.4,0.7,0.5,1.3,0,2
			c-0.5,1-0.9,2-1.4,3c-1.3,1.5-3,1.7-4.8,1c-0.3-1.3,0-3-2.2-2.9c-1.5,0-2.9-0.1-3.1,2c-1.4,1.2-3.1,1.1-4.8,1
			c0.1-3.9-2.8-2.8-4.9-2.8c-1.3,1.7-2.3,3.7-5.1,2.8c-0.5-1.5-1.7-2.4-2.5-3.6c0-0.5,0.2-0.8,0.5-1.1c0.7-2.3,0.8-4.9,3.7-6.2
			C611.9,50.6,606.2,51.5,602.9,45.2z"/>
		<path class="st165" d="M647.7,56.3c-0.2,0-0.5,0-0.7-0.1c-2.5-5.6-2.3-11.2-0.2-16.9c2.4,0.8,1.8,2.4,1.6,4.3
			c-0.2,3.9,0.3,7.1,6,7.3c2.5,0.1,6.3-0.5,8.7,2.6c1.4,1.7,3,0.3,3.9-1.3c1.5-0.2,2.3,0.4,2,2c-0.5,1.8-1.8,3.1-3.5,2.6
			c-4.9-1.5-9.6-1.5-14.2,0.5C649.5,57.9,648.8,56.6,647.7,56.3z"/>
		<path class="st96" d="M646.8,39.3c0.1,5.6,0.1,11.2,0.2,16.9c-1.3,1.6-3.1,0.8-4.8,1c-0.1-0.6-0.3-1.3-0.4-1.9
			c-1.2-1.3-0.9-2.7,0-4c0-2.5,0.4-5,0.1-7.4C641.3,39.6,643.1,38.6,646.8,39.3z"/>
		<path class="st166" d="M631.9,54.4c0.8,3.6-2.2,2.5-3.7,2.7c-2.8,0.3-5.6,0-7.3-2.9c2-3.2,0.3-6.9,1.2-10.2c3,1.2,1.4,4.2,2.4,6.3
			c0.4-2.1-0.4-4.4,1.5-6c2.4,2.5-1.1,7.3,3.6,9c1.3-3.6-0.9-7.6,1.4-11C633.3,46.1,632.4,50.2,631.9,54.4z"/>
		<path class="st166" d="M641.8,51.1c0,1.3,0,2.7,0,4c-3.8,3.2-6,2.8-8-1.2c-2.1-3.9-2.1-7.8,0-11.8c1.6,1,1.2,2.7,1.1,4
			c-0.5,4,1.1,5.5,5,4.9c0.6,0.4,0.5,1,0.5,1.6c0.1-0.6,0-1.2,0.6-1.7C641.2,51.2,641.5,51.2,641.8,51.1z"/>
		<path class="st167" d="M668.9,54.2c-0.7-0.7-1.3-1.3-2-2c-1-1.7-0.8-3.8-3.1-5.6c3-0.2,5-0.4,7.1-0.5l0.1,0.3
			c0.5,3.3,0.9,6.6-0.2,9.8C670.2,55.5,669.6,54.8,668.9,54.2z"/>
		<path class="st168" d="M626,44.2c0,2.3-0.1,4.6-0.1,6.9c0,1.2,0.3,3-1.5,3.1c-1.9,0.1-1.6-1.6-1.7-2.9c-0.2-2.5-0.3-4.9-0.4-7.4
			c0.1-1.4,0.9-2.1,2.3-1.9C625.7,42.1,625.8,43.2,626,44.2z"/>
		<path class="st169" d="M633.8,42.2c0,3.9,0,7.8,0,11.8c-0.6,0.1-1.3,0.3-1.9,0.4c-2.3-3.9-0.6-8.1-1-12.2
			C631.9,42.2,632.9,42.2,633.8,42.2z"/>
		<path class="st170" d="M613.9,39.2c0.6,4.4-2.9,2.3-4.6,2.9c-1.6-1.2-1.3-2.5-0.3-4c1.3,0,2.7,0,4,0
			C613.3,38.5,613.6,38.9,613.9,39.2z"/>
		<path class="st171" d="M641,51.2c-0.1,0.4-0.2,1.1-0.4,1.1c-0.8,0.1-0.5-0.7-0.7-1.1c0-3.6,0-7.2,0-10.9c0.4,0,0.7,0,1.1,0
			C641,44,641,47.6,641,51.2z"/>
		<path class="st172" d="M608.9,38.2c0.1,1.3,0.2,2.6,0.3,4c-3.1,0.5-3.5-1.4-3.2-3.8C607,38.3,607.9,38.2,608.9,38.2z"/>
		<path class="st173" d="M670.8,56.2c0.1-3.3,0.1-6.5,0.2-9.8c1.5,0.9,0.7,2.5,1,3.7c-0.4,2.7,0.1,5.4,0.9,8
			C671.6,58.1,671,57.4,670.8,56.2z"/>
		<path class="st174" d="M498.9,37.2c5.2,1.7,10.6-0.3,15.7,0.2c8.3,0.9,16.6,0.2,24.8,0.7c3.2,0.2,6.4-2.5,9.6,0
			c0.1,0.3,0.2,0.5,0.3,0.8c-0.3,0.5-0.7,0.9-1.2,1.1c-1.6,0.6-3.3,0.5-5,0.6c-6.1,0.1-12.3,0-18.4,0.1c-5.7,0.1-5.7,0.1-6.2,5.8
			c-0.1,1.6,0,3.4-1.4,4.6c0,3.2-0.1,6.4-0.1,9.6c-1.7-0.8-3.4-1.7-5-2.5c3-3.6,3.4-6,2.1-16.7c-1,4.1-0.5,7.1-0.7,10.1
			c-0.1,2.3,0.4,4.7-1.5,6.6c-2.1-2.8-0.5-6-0.9-9c-0.5-3.3,1.1-6.8-1-10c-2.8,0-5.5-0.1-8.3-0.1C500.3,39.1,499,39.1,498.9,37.2z"
			/>
		<path class="st2" d="M498,42.2c0,1.7,0,3.3,0,5c-0.3,3.7-3,5-6.1,5.9c-3.2,1.1-2-1.6-1.8-2.5c0.6-2.4,0.4-4.5,0.2-6.9
			c-0.8-8.2-0.4-16.5-1.3-24.8c-0.1-0.9,0.6-1.9,1-2.8c3.2-0.2,3.9,1.7,3.9,4.4c-0.1,5.7,0.1,11.3,0,17
			C493.8,40.5,494.5,42.5,498,42.2z"/>
		<path class="st175" d="M341,23.2c1.1,4.9,3.8,7.3,9.1,7c10.2-0.6,20.5,0.7,30.7-1c5-0.8,9.8,1.1,14.8,0.9
			c8.2-0.3,16.5-1.6,24.6-0.7c10.3,1,20.3-1.9,30.5-1.3c3.4,0.2,6.5-2.5,10.1-1.9c0,2.3,0,4.6,0.1,6.9c-44.9,0-89.8,0-134.6,0
			c-1.5,0-3,0-4.5-0.1c-0.9-0.1-1.5-0.7-1.6-1.6s0.2-2.1,1-2c4.5,0.9,5.6-3.1,7.9-5.3c3.8,1,7.7,2.9,10.8-1.5
			C339.9,22.6,340.6,23,341,23.2z"/>
		<path class="st68" d="M491.9,53.1c1.3-2.7,5-3,6.1-5.9c0,1.8-0.1,3.5-0.1,5.3c-1.6,2-0.5,4.5-1,6.6c-1,6.9-7.1,9.4-14.7,6.1
			c-0.1-0.7-0.2-1.4-0.3-2.1c-2.1-3.3-1.5-6.7-0.7-10.2c2.9-2.1,3.1,0.4,3.8,2.2c1.6,1.7,3.7,1,5.6,0.8
			C492,55.8,493.7,55.1,491.9,53.1z"/>
		<path class="st176" d="M485,55.2c-1.5-0.5-1.8-2.2-2.8-3.1c-1.8-1.3-1.4-3.3-1.6-5.1c0.1-2.1-1.3-3.8-1.3-5.9
			c1.9-5.3,0.8-10.6-0.2-15.9c0-0.7-0.1-1.3-0.1-2c-0.4-4.8,0.6-6.6,4-7c0.1,10.5-0.1,20.9,0.9,31.4c0.2,2.4,1.5,3.9,2.7,5.7
			C488.4,55.9,485.8,54.8,485,55.2z"/>
		<path class="st176" d="M465.9,34.2c-1.3-4.9-0.2-6.3,4.6-6.1c1.5,0.1,3,0.1,4.5,0.2c1.4,0.9,4.1-0.8,4.6,1.8
			c0.6,3.1-0.5,5.7-3.2,7.6C472.8,36.5,469.3,35.7,465.9,34.2z"/>
		<path class="st17" d="M483,16.2c-3.1,1.3-2.4,4.8-4,7c-2.1-1.3-3.8-3.3-6.6-3c-1,0.1-2.5,1.2-2.7-0.8c-0.1-1.1,0.6-2.3,1.8-2.8
			c3.3-1.5,7.4-0.1,10.3-3.5C482.3,12.5,482.8,15,483,16.2z"/>
		<path class="st177" d="M465.9,34.2c3.6,0.1,7.3-0.2,10,3c2,0.7,3.4,1.9,3.9,4.1c0.9,1.5,2.2,2.9,1.9,4.9c-2.2,0.3-3.3-1.3-4.3-2.8
			c-2.1-3.4-4.9-4.6-9-4.6c-2.8,0-5.9,0.4-8.5-1.6c-0.1-0.9-0.1-1.9-0.2-2.8c0.4-0.1,0.7-0.2,1.1-0.2
			C462.6,34.1,464.2,34.2,465.9,34.2z"/>
		<path class="st178" d="M479.8,41.3c-1.6-1.1-2.9-2.4-3.9-4.1c1.2-0.7,0.9-2.1,1.5-3c2.6-3.5,0.8-5-2.5-6c2-0.2,3.2-1.5,4.1-3.1
			C482.5,30.4,482.7,35.8,479.8,41.3z"/>
		<path class="st179" d="M474.8,26.9c1.2-2-3.2-2.4-1.4-4.4c0.2-0.2,1-0.2,1.3,0C476.2,23.7,475.7,25.3,474.8,26.9z"/>
		<path class="st72" d="M673,72.2c0.3-3.1-1.3-6.6,2-9.1c1.2,0.5,1.6,1.6,2.2,2.6c2.8,4.4,2.6,4.9-2.4,5.7
			C674.2,71.4,673.6,71.9,673,72.2z"/>
		<path class="st180" d="M482.1,65.2c2.1,0,4.3,0.1,6.4-0.1c3.9-0.3,7.7-0.9,8.3-6c0,4,0,8,0,11.9c-4.7,2.2-9.4,4.3-14.8,2.1
			C482.1,70.5,482.1,67.9,482.1,65.2z"/>
		<path class="st181" d="M482.1,73.2c4.9-0.7,9.9-1.4,14.8-2.1c-1.7,5.8-3.6,7.1-9.7,5.9c-1.8-0.3-3.4-1.1-5.1,0.2
			C482.1,75.8,482.1,74.5,482.1,73.2z"/>
		<path class="st182" d="M499,55.1c8.3-1.6,9.3-1.1,12,5.9c-2.1,0-4.3-0.1-6.4,0.1C499.7,61.9,498.1,59.7,499,55.1z"/>
		<path class="st183" d="M517.1,51.1c-0.4-12.1-0.4-12.1,11.5-12c5.1,0,10.3,0.1,15.4,0.1c2.1,5.3,2.6,10.7-0.2,15.9
			c-1.8,0.2-3.3-1.2-5.5-0.4c-1.5,0.6-1.1-1.8-1.3-3c-0.5-3.2,1.1-6.6-1.1-9.5c-1.8,1.4-1.3,3.5-1.5,5.4c-0.2,2.2,0.3,4.6-1.4,6.5
			c-0.2,0.7,2.6,1.6,0,2.1c-2,0.4-4.1,0.5-6.1,0.8c-0.4-0.7-0.5-1.3-0.3-2.1c1.6-3.2,1.5-6.5,0.6-9.8c-1.6,0.5-0.7,1.9-1.1,2.8
			c-0.5,1.1-0.3,2.7-2.3,2.2c-0.4-1.9-0.3-3.8-0.1-5.7c-0.2,3.6,0.2,7.3-0.6,10.8C519.9,55.4,518.1,53.8,517.1,51.1z"/>
		<path class="st184" d="M543.8,55.1c0.1-5.3,0.2-10.6,0.2-15.9c1.5,0,3.1,0,4.6,0c2.7,6,2.6,12,0.1,18c-1.5,0-3,0-4.6,0
			C544.1,56.5,543.9,55.8,543.8,55.1z"/>
		<path class="st169" d="M533,54.1c-0.1-3.2-0.1-6.5-0.2-9.7c-0.1-2.4,1.2-2.7,3.1-2.2c0,3.1-0.1,6.2,0,9.3
			C535.9,53.6,535.1,54.5,533,54.1z"/>
		<path class="st185" d="M522.9,55.2c-1.7-4,1.2-7.9,0.7-11.9c0.2,2.4,0.4,4.8,0.6,7.2c0.8,0.8,0.9,2,1.5,3c0.4,0.7,1.1,1.2,1.2,2
			c0,0.5,0,1,0,1.6C525.5,56.4,523.5,57.4,522.9,55.2z"/>
		<path class="st186" d="M548.8,57.1c0-6-0.1-12-0.1-18l0.5,0.1c0.4-0.3,0.8-0.3,1.2,0.1c1.2,2.2,0.8,4.5,0.8,6.8
			c0.1,5.7,0.5,6.1,6.6,6.5c1.9-3.3-0.4-7.3,1.9-10.5c2.7-0.3,2.2,1.9,2.4,3.3c0.3,2.1,0,4.3,1.2,6.2c0.9,0.3-0.1,2.8,2.1,1.7
			c2.6-0.9,2.2-3.4,2.9-5.3c0.6-1.1,1.1-2.3,2.7-2.1c0.3,0.4,0.3,0.9,0,1.3c-0.1,3.4,1.8,4.7,4.9,4.8c1.7,1.9,1.7,3.9,0.1,5.9
			c-0.4,0-0.7,0-1.1,0c-2.2,0-5-0.9-5,3c-2.7,0.8-3.8-1.3-5-2.9c-2.2,0.1-5.1-1-5,2.9c-2.7,0.9-3.7-1.3-5.1-2.8c-2.2,0.1-5-1-5,2.8
			c-2.1,0.1-4.2,0.4-3.8-2.9C546.9,57.9,548.3,58.6,548.8,57.1z"/>
		<path class="st187" d="M582.2,52.3c2.2,2.2,5,1.8,7.8,1.7c1-0.7,1.9-0.8,2.9,0c1.7,0,3.4,0,5.1,0c1-0.7,1.9-0.7,2.9,0
			c2.7-0.4,5-2.2,7.9-1.7c1.9,1.6,1.5,3.8,1.2,5.9c0.4,3.4-1.9,3-4,3c0.1-3.8-2.7-2.9-4.9-2.9c-2.4,4.8-2.9,4.8-6.1,0
			c-2.3-0.1-4.7-0.3-4.9,3c-2.7,0.7-3.9-1.2-5.1-3C580.4,58.3,579.8,57,582.2,52.3z"/>
		<path class="st58" d="M609.9,58.1c-1.7-1.7-0.4-4-1.2-5.9l0.4-0.2c2.4,0.9,2.5,4.1,4.9,5.1c1.3,1,2.2,2.2,2,3.9c0,5.3,0,10.7,0,16
			c-2.3-4.2-1-8.7-0.9-13c0.1-3.5-1.3-4.4-4.1-4.9C610.7,58.9,610.3,58.5,609.9,58.1z"/>
		<path class="st58" d="M582.2,52.3c0.2,2.3-2.2,5.7,2.7,5.8c0.1,0.3,0.1,0.6,0,1c-3-0.4-4,0.8-4.1,3.9c-0.2,4.7,1.3,9.5-0.9,14.1
			c0-5.3,0-10.6,0-15.9c-1-1.5-2.9-1.7-4-3.1h0.1c0-2-0.1-4-0.1-5.9l0.4-0.2c1.6,0.2,1.4,2.1,2.5,2.7c1.6-0.2,1-2.9,2.9-2.6
			C581.9,52.2,582,52.2,582.2,52.3z"/>
		<path class="st186" d="M575.9,58.1c1.9,0.3,4.7-0.6,4,3.1C577.7,61.3,575.6,61.3,575.9,58.1z"/>
		<path class="st188" d="M302,94.1c-0.8,4.7-1.1,9.4-2.1,14.1c-1.2,5.4-4.6,7-9.5,6.9c-2.5,0-4.9,0-7.4,0.1
			c-7.3-0.1-14.6-0.1-21.9-0.2c2-3.6,3.6-7.7,9.1-6c1.1,0.3,1.7-0.8,1.8-1.9c2.3-1.5,3.2-4.2,4.9-6.1c1.4,2.7,2.5,5.1-1.7,6.6
			c-1.7,0.6-2.2,2.4-0.9,4.1c1.3,1.7,2.3,1.4,4.1,0.2c4.2-2.9,7.7-7.4,13.7-6.8c0.9,0.1,1.6-0.5,1.8-1.4
			C294.9,99.1,298.9,97,302,94.1z"/>
		<path class="st189" d="M282.1,132.1c1.9,3.3,4.9,5.5,7.6,8.1c-4.8-0.5-8.6-2.4-10.5-7.2C280.2,132.7,281.1,132.4,282.1,132.1z"/>
		<path class="st190" d="M325,154.1c-0.2,3,1.7,3,3.9,3c8.8,0,17.7-0.1,26.5,0c9.2,0.1,18.5,1.1,27.7,0.7c16-0.7,32.1-0.6,48.1-0.7
			c4.9,0,6-3.8,8-7.1c1-1.8,1.1-5.6,3.8-4.8c1.9,0.5,1.4,3.9,1.2,6.3c-0.5,6.2,0,12.4,0.8,18.6c0.4,3.8-0.9,5.1-4.7,5.1
			c-10.3-0.1-20.7,0-31,0c-20.7,0-41.3,0-62,0c-1.8,0-3.7-0.6-5.2,0.9c-3.6,0-7.4,0.7-10.9-0.1c-7.1-1.7-9.1-4.8-9.1-12.2
			c0-1.8-0.1-3.6-0.2-5.5c-0.4-0.7-0.3-1.4-0.2-2.1C322.4,154.7,323.1,153.5,325,154.1z"/>
		<path class="st191" d="M322.2,156c-0.1,0.7-0.3,1.4-0.4,2.1h-0.4L321,158c0-14.9-0.1-29.8-0.1-44.8c0-16.7,0-33.5,0.1-50.2
			c0.2-0.1,0.4-0.1,0.7-0.1c0.2,0.2,0.5,0.4,0.7,0.5c0.4,0.5,0.6,1.1,0.7,1.7c0.7,8.9,0.3,17.9,0.2,26.9c0,1.1,0,2.2,0,3.4
			c0,0.8,0,1.6,0,2.4c0,0.5,0,1.1,0,1.6c0,1.3,0,2.7,0,4c0.1,2.2,0.1,4.4,0,6.6c0,0.9,0.1,1.7,0,2.6c-0.2,4.2,0.6,8.5-0.2,12.7
			c0.2,7.6,0.6,15.2,0.4,22.8C323.6,151,323.5,153.6,322.2,156z"/>
		<path class="st192" d="M303.1,116.1c-0.3-2.5,0.6-5.2-2-7.8c2.6,0.4,4.3,1.1,5.6-1c1.1-1.8,3.2-1.2,5-1.1c1,0.1,1.9,0.6,2,1.8
			s-0.8,1.9-1.8,1.9c-5-0.1-6.1,2.9-5.8,7.1C305,116.8,304,116.4,303.1,116.1z"/>
		<path class="st146" d="M320.8,50.2c0,4.3,0.1,8.7,0.1,13c-1.8,1.6,0.1,4.4-1.9,6c0-5.1,0-10.3,0-15.4
			C319.1,52.4,318.6,50.6,320.8,50.2z"/>
		<path class="st193" d="M315,86.1c0.1,2,0.1,3.9,0.2,5.9c-0.1,3.3-0.2,6.7-0.3,10c-4.4,2.4-6.7,1.4-6.8-3.3c-0.1-2.5,0-5,0-7.5
			C308,85.9,309.2,85,315,86.1z"/>
		<path class="st194" d="M460,37.2c4.2,0.2,8.4,0.5,12.6,0.5c2.4,0,3.3,2,4.5,3.4c1.5,1.8,2.7,3.7,4.6,5.1c0.2,2,0.3,3.9,0.5,5.9
			c-0.1,3.7-0.2,7.4-0.3,11.1c-1.5,3.3-0.8,7.1-4.4,10.2c-2.1,1.8-1.5,7.1-0.4,10.8c1.8,5.7,0.9,11.7,0.7,17.4
			c-0.3,6.6,1.1,13.4-1.9,19.7c-2-0.4-2.1-2.1-1.9-3.5c1.8-11.5-0.2-22.9-0.6-34.4c0-0.8,0.2-1.6,0.2-2.5
			c0.1-11.3,0.3-22.6,0.5-33.9c0-0.7-1,0.1-0.4-0.1c0.1,0,0.2,0.1,0.2,0.5c0.6,10.6,0.6,10.6-9.9,9.1c-1.7-0.2-3.3-0.5-4.4-2
			c-0.5-0.7-0.7-1.5-0.8-2.3c-0.2-1.9-0.1-3.9-0.1-5.9c0-5.8,0-5.8-6.1-5.7c-2.6-0.1-5.4,0.4-7.6-1.5c3-1.8,6.4-0.4,9.5-0.9
			C456.3,38,458.4,39,460,37.2z"/>
		<path class="st195" d="M472.9,136.1c-2.6-1.6-5.5-1-8.2-0.9c-3.4,0.1-4.9-1.2-4.7-4.6c0.2-2.8,0-5.6,0-8.4c2.9-3.4,7-2.4,10.7-2.6
			c1.8-0.1,2.2,1.6,2.5,3.2c0.3,1.5-0.9,2.9-0.4,4.4C472.8,130.1,472.8,133.1,472.9,136.1z"/>
		<path class="st196" d="M472.7,127.1c-1.7-1.9,0.5-5.7-1.6-6.3c-2.6-0.8-5.8,0.3-8.7,0.6c-0.8,0.1-1.6,0.4-2.4,0.6l0,0
			c-0.4-2.8-1.9-5.6-0.7-8.5c5.2-3.7,11.3-4,14.5-0.9c0.2,4.4,0.8,8.9-0.7,13.2C473,126.3,472.9,126.7,472.7,127.1z"/>
		<path class="st197" d="M473.2,125.9c-0.2-4.6-0.3-9.2-0.5-13.7c-1.6-3.5-1.2-7.3-1.2-11c0.3-6.1,0-12.2,0-18.3
			c0.3-2-0.1-4.2,0.8-6.1c0.3-0.5,0.7-0.8,1.4-0.8c1.8,1.5,0,3.7,1.2,5.3c0.4,9,0.5,17.9,1.2,26.9c0.3,4.5-2,8.8-0.3,13.2
			C474.8,122.7,475.3,125.1,473.2,125.9z"/>
		<path class="st198" d="M322,125.1c0.1-4.3,0.1-8.6,0.2-13c2.3,1.5,4,2.9,6.9,0c2.6-2.5,7-1.8,10.5-1.7c4.6,0.2,9.3,0.4,13.9,0.2
			c10.6-0.4,21.2,1,31.7,1c1.6,0.2,3.3,0.1,4.9,0c10.4-0.9,20.8-1.3,31.1,0.5c3.5,0.6,6.8,1.4,10.2-0.2c3.2-1.5,5.3-0.2,6.9,2.8
			c1.2,2.5,1.7,4.9,1.6,7.7c-0.1,3.8-1.7,5.8-5.6,6.1c-7.3,0.5-14.5,1.4-21.8,1.3c-6.1-0.1-12.3-0.9-18.4,0
			c-1.8,0.3-3.7-0.2-4.9,1.7c-0.8,1.1-2,0.7-2.5,0c-1.7-2.4-4-1.9-6.3-1.4c-4.6,1-9.2,0.7-13.8,0.8c-12.9,0.3-25.8,0.4-38.5-2
			c-0.4-0.2-0.8-0.4-1.2-0.8c-0.6-1.3-1.5-2.1-3.1-1.8C322.9,126.6,322.6,125.7,322,125.1z"/>
		<path class="st195" d="M327,128.1c0.3,0.1,0.6,0.1,0.9,0.2c6.3,5.7,14,5.8,21.6,4.6c12.3-2,24.5,0.8,36.8,0
			c12.8-0.8,25.5-0.1,38.3-0.5c2.2-0.1,4.2-1,6.3-1.5c9.3-2.1,10.3-4,8.1-14.2c-0.4-1.9-1.3-3.8-0.8-5.8c1-1.7,1.9-0.7,2.6,0.2
			c1.2,1.5,1.2,3.3,1.5,5.3c0.7-1.2,0.5-2.5,1.4-3.3c0.5-0.2,0.9-0.1,1.3,0.2c0.6,0.6,0.8,1.4,1,2.2c0.3,1.7,0,3.9,2.6,4.2
			s4.4-0.9,5.6-3.3c1.1-2.2,1.4-4.8,3-6.8c0.6-0.7,1.3-1,2.2-0.9c1.7,1.3,1.4,2.8,0.6,4.4c0,3,0,6,0,9c-1.3-0.7-0.7-2.5-2.1-4
			c-1.1,2.9-1.8,5.5-2.9,7.9c-2.1,4.5-5.4,5.8-10,3.8c-2.4-1.1-3.7-0.5-4.4,2c-1.4,4.9-5.1,5.6-9.7,6.7c-6.4,1.5-12.8,1.6-19,1.4
			c-11.1-0.5-22.3,0.7-33.3-1.4c-0.6-0.1-1.4-0.5-1.9-0.2c-8.1,3.1-16.2,0.1-24.3,0c-2.8-0.1-5.6-0.6-7.9,1.9
			c-1.8,1.8-4.5,1.7-6.5,0.4C333.1,137.3,327.7,134.7,327,128.1z"/>
		<path class="st79" d="M322,125.1c0.6,0.4,1.3,0.8,1.9,1.1c-0.3,2.8,1,5.2,2.4,7.4c3.8,6,3.3,11.8-0.4,17.6c-0.5,0.8-0.7,1.8-1,2.8
			c-0.9,0.7-1.9,1.3-2.8,2C322.2,145.7,322.1,135.4,322,125.1z"/>
		<path class="st199" d="M254,56.1c-1-0.3-2-0.7-3-1c-0.4-1.9,0.8-2.9,2.1-3.9c2.6,1.6,5.4,0.2,8.1,0.7c1.5,0.3,3.9-1.6,4.5,0.6
			c0.5,2.1-1.5,3.3-3.7,3.6c-0.7,0-1.3,0-2-0.1C258,55.6,256,56.1,254,56.1L254,56.1z"/>
		<path class="st156" d="M254,56.1c2-0.8,4-2.7,6,0C258,57.4,256,57.6,254,56.1z"/>
		<path class="st200" d="M305.2,53.3c-1.9-1-3.9,0.6-5.9-0.3c-0.4-0.2-2,1.6-2.5-0.2c-0.4-1.4,1.1-2.6,2.4-2.5
			c2.7,0.1,5.3,0.6,8,0.9C306.5,52,305.9,52.6,305.2,53.3z"/>
		<path class="st201" d="M131.1,76.1c-0.4-1.5-0.2-2.9,0.9-4c2.3-2.1,5.2-1.7,8-2c5.4-0.4,10.8,0.8,16.1-1c2.5-0.1,4.8,0.3,6,2.9
			c0.1,2.2-1,3.7-3,3.9C149.8,76.5,140.5,78.6,131.1,76.1z"/>
		<path class="st202" d="M71,111.2c-2.8-2.4,0.1-2.8,1.3-3.5c7.5-4.2,15.1-8.3,22.6-12.4c2.1-0.8,4-1.9,6.3-1.8
			c-0.6,2.3-2.9,2.8-4.5,3.5C87.6,100.7,80.5,108.1,71,111.2z"/>
		<path class="st203" d="M113.9,92c-4.2,0.7-8.6-0.5-12.8,1.2c2.4-3.4,6-4.2,9.9-4.1C112.5,89.6,114.2,89.8,113.9,92z"/>
		<path class="st204" d="M113.9,92c-0.9-1-1.9-1.9-2.8-2.9c1.8-1.4,3.8-2,6.1-1.9C120.2,91.7,116.3,91.3,113.9,92z"/>
		<path class="st201" d="M44.2,81.1c-1.8-3.8,0.8-5.6,3.6-5.9c8.7-1.1,17.5-1.7,26.3-0.8c0.9,2,2,3.9,0,5.9
			C64.2,81.7,54.2,81.1,44.2,81.1z"/>
		<path class="st205" d="M125.1,76c-14.1-0.1-28.2,0.9-42.3,1.8c-1.5,0.1-4.9,1.5-2.7-2.6c5.7-2.3,11.7-1.1,17.6-1.9
			c7.3-1,14.9,0.2,22.3-1.1c2-0.4,4.4-0.6,6,1.5C127.1,75.1,126.8,75.8,125.1,76z"/>
		<path class="st206" d="M55,155.2c0.7,1,2.2,1.3,2.1,2.8c-0.9,1.6-9.9,5.6-11.1,4.7c-3.1-2.4-2-5.1,0.1-7.6
			C49.1,152.6,52.1,153.9,55,155.2z"/>
		<path class="st203" d="M55,155.2c-3,0-5.9,0-8.9-0.1c-2.4-2.4-2.3-7-6.6-7.9c0.2-0.4,0.4-0.8,0.6-1.2
			C46.8,146.5,50.2,151.9,55,155.2z"/>
		<path class="st54" d="M111,103.1c-1-1.1-0.7-2.6-1.1-3.9c0.6-1.4-1.1-3.9,2-4.2c0.4,0,0.8,0.1,1.3,0.1
			C112.6,97.8,114.5,101.2,111,103.1z"/>
		<path class="st207" d="M108.8,107.9c0.6-1.4,2.4-2,2.2-3.8c2,1.1,3.9-4.9,6-0.1c-0.2,1.3-0.3,2.5-0.5,3.8
			C114,109.9,111.5,110.1,108.8,107.9z"/>
		<path class="st208" d="M108.8,107.9c2.6,0.2,5.2,0.4,7.7-0.2c0.5,1.1,1.1,2.2,1.6,3.3c0.1,1.4-0.4,2.7-1.1,3.9
			c-9,2.2-14.4,9.6-21.3,14.8c-9.6,7.3-18.2,15.9-27.5,23.6c-1.2,1-2.1,2.8-4.1,1.7c-3.5-2.5-3.7-5.1-0.5-8.1c1.3-1.2,3-2.2,3.3-4.2
			C80.9,131.2,94.9,119.6,108.8,107.9z"/>
		<path class="st139" d="M64.1,155.1c4.7-3.9,9.7-7.4,14-11.7c9.4-9.4,20.6-16.7,30.1-26c2.5-2.5,5.7-2.5,8.8-2.4
			c-7.6,6.5-15.3,13-22.9,19.5c-7.3,6.2-14.5,12.5-21.8,18.7C70,155.3,67.5,157.4,64.1,155.1z"/>
		<path class="st209" d="M270.8,53.3c0,1.2-0.6,1.6-1.5,1.7c-1.4,0.1-2.2-0.6-2.2-2c0-0.7,0.2-1.4,1.1-1.2
			C269.2,52.1,270.6,52,270.8,53.3z"/>
		<path class="st199" d="M251.1,55.2c-4,0.8-8,0.2-12,0.1c-0.5-0.4-0.6-0.7-0.1-1.2c0.5-3.2,4.6,0.3,5.2-2.7c0.7,0.4,1.7,1.4,2,1.2
			C249.5,50.2,249.9,53.3,251.1,55.2z"/>
		<path class="st160" d="M238.9,54c0,0.4,0.1,0.8,0.1,1.2c-2.4-0.4-6.5,5-7-2C234.6,51.4,236.6,53.6,238.9,54z"/>
		<path class="st210" d="M444.9,39.1c2.8,0.1,5.6,0.2,8.4,0.2c5.7,0.7,5.8,0.7,5.6,6.5c-0.2,4.7,0.8,9.5,0,14.2
			c-0.6,1.3-1.5,2-2.4,0.4c-2.5-4.1-7.8-6.4-7.7-12.2c0-0.5-0.8-1-1.9-1c-1.2,4.4-0.3,8.9-0.6,13.4c-0.3,1.5-0.1,3.4-2.3,3.7
			c-0.6-0.7-0.5-1.5-0.5-2.4c-1.3-4.6,0.5-9.2,0-13.8c0-0.7-0.6-0.2-0.5-0.1c1.4,4.7-1,9.5,0.5,14.3c0,2.5,1.8,5.1-0.1,7.6
			c-4.1,0.6-7-1.8-9.4-4.3c-2.3-2.3-4.8-3.1-7.9-3.2c-7.1-0.1-14.2,0.5-21.3-0.4c-4.1-1.1-8.3-0.9-12.4-0.4
			c-11.6,1.5-23.2,0.8-34.8,0.2c-8.7-0.4-17.6,0.8-26.4,0.7c-2.5,0-5,0.3-7.4-0.9c-1.5-3.4-1.2-5.3,3.2-6.1
			c17.4-3,34.7-1.4,52.1-0.6c1.7,0.1,3.5,0.9,4.9,0.2c7.2-3.4,14.3-0.7,21.5-0.3c9.6,0.5,19.2-0.1,28.7-0.7c1.2-0.1,3.2,0,3.2-1.6
			c0-2.1-2.1-1.7-3.5-1.6c-1.5,0.1-3.2-0.1-4.4,0.7c-6.9,4.8-14.2,1.1-21.3,1.4c-0.8,0-1.7-0.3-2.2-0.9c-3.7-4.6-9-2.2-13.5-3.3
			c-1.2-0.3-2.2,0.7-2.9,1.6c-2.4,3-5.2,2.6-7.9,0.8c-2.7-1.8-5.5-2.2-8.5-1.3c-2,0.6-3.9,0.7-5.9,0c-3.6-1.2-7.3-0.7-10.9,0
			c-2.2,0.5-4.1,0.6-6.2-0.6c-4.6-2.7-8.7,0.4-12.8,1.7c-3.2,1.1-6.5,1.2-9.7,2.1c-2.1,0.6-3.8-0.7-5.2-2.2c0.6-3.5,7.1-7.9,12.1-8
			c8.2-0.1,16.3,0,24.5,0c27.1,0,54.3,0,81.4,0.1C443.2,43.3,445.2,42.8,444.9,39.1z"/>
		<path class="st211" d="M322.1,51.1c5.3,1.4,10,0.2,15.2-1.8c4.4-1.6,9.7-4.5,14.8-0.2c2,1.7,4.8-0.7,7.2-0.9
			c5.9-0.5,11.7,2.3,17.5,0c1.4-0.5,2.8,0.3,4.1,1.4c2.8,2.3,5.6,3.7,8-0.8c0.7-1.4,2.4-2,3.9-1.4c2.8,1,5.6,0.7,8.4,0.8
			c1,0,2.4-0.1,2.9,0.5c5.5,6.6,13.2,3.6,19.8,4.1c3,0.2,6.6-2.7,10.3-3.3c2.7-0.4,4.8,1,5.1,2.7c0.5,2.4-1.6,3.1-4.2,3.3
			c-11.9,1.1-23.9,1.9-35.6,0.2c-6-0.9-11.2,1-16.6,1c-6.6,0-13.3-0.7-20-0.9c-12.5-0.4-24.9-1.1-37.4,1.5c-2.7,0.6-0.4,3.1-2.4,2.9
			c-0.3,0.5-0.6,0.5-0.9,0C322.2,57.1,322.2,54.1,322.1,51.1z"/>
		<path class="st212" d="M322.2,60.2c0.3,0,0.6,0,0.9,0c3,2,6.4,1,9.6,0.9c14.3-0.5,28.6-0.6,42.9,0.1c8.3,0.4,16.5-1.5,24.7-1
			c1.6,0.1,3.4-0.5,4.7,1c-0.7,0.9-1.6,1-2.6,1.2c-8.5,1.2-8.5,1.2-10.6,9.5c-0.2,0.8-0.5,1.5-1.2,1.9c-2.9,1.1-5.9,1-8.8,0.2
			c-2.6-1.9,0.8-2.5,0.9-4.2c-7.1-1.1-14.3-1.8-21.5-0.9c-2.5,0.3-5,0.5-7.1-1.3c-0.9-0.2,1.7-2.4-1.7-2c-4.5,0.5-9.1,1-13.7,1.3
			c-0.5,1.9,1.8,1.8,1.8,3.1c0.4,1.7-1.2,3-0.9,4.7c1.2,3,3.7,2.8,6.3,2.8c6.3,0,12.5-1.3,18.8,0c0.7,0.3,1.2,0.8,1.6,1.5
			c0.1,2.1-1,2.5-2.8,2.3c-5-0.7-9.5,0-14.3,2.1c-4.1,1.8-9.5,1.4-14,0.1c-4.5-1.3-2.6-5.2-1.9-8c0.9-3.4,0.3-5.5-3.2-6.5
			c-2.7-1.7-5.1-4-7.8-5.7l-0.4-0.1C321.9,62.1,322,61.1,322.2,60.2z"/>
		<path class="st213" d="M550,39.2h-0.4h-0.4c-0.1-0.4-0.1-0.7-0.2-1.1c10.6,0,21.3,0.1,31.9,0c3,0,4.7,0.4,2.9,3.8
			c-0.3,0.6-0.5,1.2-0.7,1.9c-0.7,2.5,1.9,6.8-4,6.4c-3.1-0.2-5.9-0.3-8.1-2.8c0-0.4-0.1-0.8-0.1-1.2c-0.8-2.1,1.9-3,1.7-5.3
			c-5.1-0.6-10.4-0.1-15.5-0.3C554.7,40.5,552.1,41,550,39.2z"/>
		<path class="st95" d="M581.7,52.1c-0.3,0.6-0.6,1.2-0.7,1.8c-0.2,1.4,0.2,3.2-2,3.2c-2.3,0-1.7-1.9-2-3.2
			c-0.1-0.6-0.4-1.2-0.7-1.8C578.1,50.7,580,50.7,581.7,52.1z"/>
		<path class="st95" d="M592.9,54c-1,0-1.9,0-2.9,0c-0.1-1.6-0.1-3.3-0.5-4.8c-0.4-1.7,0-2.6,1.6-2.9c1.6-0.2,1.8,1.1,1.8,2.3
			C592.9,50.4,592.9,52.2,592.9,54z"/>
		<path class="st214" d="M614,57.2c-4.6,1.1-3.6-3-4.9-5.1c5.4-3,4.5,1.5,5,4.3C614.1,56.6,614.1,56.9,614,57.2z"/>
		<path class="st97" d="M600.9,54c-1,0-1.9,0-2.9,0c0-1.8-0.1-3.6,0-5.5c0-1,0.2-2.1,1.5-2.1s1.5,1.1,1.5,2.1
			C600.9,50.4,600.9,52.2,600.9,54z"/>
		<path class="st215" d="M594.1,37.4c0.7,2.2,1.7,4.4,0.8,6.7c-2.4,0.2-4.2-0.2-4-3.4C591.1,38.6,591.1,36.7,594.1,37.4z"/>
		<path class="st216" d="M614.8,46.3c-0.1,1.7-1.3,2.4-2.6,2.5c-1.4,0.1-3-0.5-3-1.9c0.1-1.7,2-2.4,3.4-2.7
			C613.9,43.9,614.6,45.1,614.8,46.3z"/>
		<path d="M511.9,58.2c0-5,0-9.9,0.1-14.9c0-1.6-1-4.2,2-4c2.9,0.1,1.7,2.7,1.8,4.3c0.2,3.6-0.1,7.3,0.1,10.9
			C516.2,57.7,514.8,58.6,511.9,58.2L511.9,58.2z"/>
		<path class="st217" d="M524.9,54.3c-1-1.2-0.4-2.6-0.7-3.9c0.1-2.1,0.2-4.2,0.4-6.3c0.3-3,1.7-2.7,3.4-0.9
			c0.9,2.9,0.3,5.9,0.4,8.9C528.6,54.8,527,55,524.9,54.3z"/>
		<path class="st76" d="M524.9,54.3c2.4,0.2,3.1-1,3-3.2c-0.1-2.6,0.1-5.3,0.1-7.9c0.8,4.2,2.8,8.5-1.2,12.3
			C526.2,55.1,525.5,54.7,524.9,54.3z"/>
		<path class="st218" d="M550,39.2c7.2,0,14.3-0.1,21.5,0c1.5,0,3.6-1,4.3,1.2c0.6,1.9-1.5,2.3-2.6,3.2c-0.9,0.7-1.5,1.7-2.3,2.6
			c-0.7,0.7-1.4,1.3-2,2c-1.6-1-0.4-4.3-3.4-4.2c-1.9,1.2-2.3,3.1-2,5.2c0.2,1.4,0.8,2.9-0.6,4.1c-3.5-3-0.4-7.8-2.9-11.1
			c-2.3,1.8-1.5,4.5-1.7,6.8c-0.1,1.8,0.1,3.6-0.4,5.3c-6.3-0.2-7.9-1.7-7.9-7.2C550,44.4,550,41.8,550,39.2z"/>
		<path class="st10" d="M565.2,42.2c5.8-0.9,2.6,3.9,3.7,6c-1.3,1.9,2.2,6.8-3.7,5.8C562.8,50,563,46.1,565.2,42.2z"/>
		<path class="st219" d="M557.9,54.3c-1.7-3.4-0.5-7-0.7-10.6c-0.2-1.9,1.5-1.7,2.8-1.6c0.1,2.9,0.1,5.8,0.2,8.7
			C560.2,52.5,560.3,54.3,557.9,54.3z"/>
		<path class="st220" d="M565.2,42.2c0,3.9,0,7.8,0,11.7c-1.3,1.6-1.8,0.1-2.3-0.7C562.5,49.3,560.4,45,565.2,42.2z"/>
		<path class="st221" d="M330,68.1c4.9,1,6.1,3.1,4.1,7.4c-0.9,2-1.1,4.6-0.3,6c0.9,1.5,3.6,2.2,5.9,1.2c2-0.8,3.9-0.7,5.8,0.1
			c1.1,0.4,2.4,0.5,3.3-0.3c4.8-4.1,10.2-3.7,15.7-2.1c0.3,0.1,0.9-0.8,1.4-1.2c6.1-2.6,12.5-1.1,18.8-1c2.8,0,5.9,0.2,8.6,1.6
			c4.7,3.4,10.4,3.5,15.3,2.5c6.5-1.3,12.7-0.2,19.1,0c3,0.1,5.7,0.2,6.9-3.3c0.4-0.3,0.8-0.6,1.3-0.7c3.3-0.4,5.2,1.8,7.3,3.8
			c0.5,1,0.6,2,0.4,3.1c-0.9,2.8-0.2,5.7-1,8.5c-0.2,0.5-0.5,0.9-0.8,1.3c-1.5,1.4-3.3,1.5-5.1,1.4c-8.4-0.8-16.9-0.9-25.4-0.9
			c-16.1,0-32.2-0.7-48.3-0.7c-12.1,0-24.2-1.2-36.2,1.4c-1.6,0.3-3.3,0.8-4.9,0c0-1,0-2-0.1-3.1c0.3-0.3,0.7-0.6,1.1-0.8
			c3.8-1.2,5.5-4.1,6.2-7.7C330.4,79.1,331.9,73.7,330,68.1z"/>
		<path class="st222" d="M444.1,113c-0.4,2,0.6,4.3-1.2,6.5c-3.5-2.2-0.3-7.3-4-9.3c-4.6,1.4-9.4,1.7-14.2,1.4
			c-12.9-0.7-25.8-0.7-38.7-0.1c-9.6,0.2-19.3-0.7-28.9-0.4c-9.9,0.3-19.9-0.8-29.9,0.5c-1.9,0.2-3.7-0.1-5.1-1.6
			c0-2.3,0-4.6-0.1-6.9c1-1,2.3-1.4,3.7-1.3c13.2,1.3,26.5,0.4,39.8,0.7c18,0.4,35.9,0.6,53.9,0.3c4.6-0.1,9.2,1.1,13.9-0.6
			c3.3-1.2,6.8-1.7,8.2-5.6c0.4-1,1.4-2.6,3-0.9C445.6,101.5,446.3,107.3,444.1,113z"/>
		<path class="st223" d="M322.1,96.1c7.8-2.4,15.7-3.1,23.8-3c12.1,0.2,24.2,1.3,36.3,0.6c12.5-0.7,24.9,1.5,37.4,0.1
			c5-0.6,10.8-0.1,16.1,1c2.2,0.5,4.3,0.3,6.3-0.7c1,2.4-0.9,3.3-2.3,4.5c-18.2,0.8-36.4,1.3-54.6,0.3c-9.4-0.5-18.9-0.6-28.3-1.4
			c-7.3-0.6-14.5,1.2-21.8,1.3c-4.3,0.1-8.6-0.4-12.9-0.8C322.1,97.5,322.1,96.8,322.1,96.1z"/>
		<path class="st224" d="M440,98.1c0.6-1.4,2.2-2.2,2-4l0,0c0.4-0.7,1-1.4,1.8-0.9c0.7,0.4,0.7,1.3,0.1,2c-3.9,9.1-11.6,9.5-20,9.1
			c-7.5-0.4-15,0.4-22.5,0.5c-3.3,0-6.6-0.6-9.8-0.6c-16.4-0.1-32.8-0.3-49.2-0.6c-6.7-0.1-13.5-0.6-20.2-0.5c0-1.3,0-2.7,0-4
			c3.9-2.7,7.7,0.5,11.6,0.2c9.7-0.7,19.5-0.9,29.3-0.5c19.6,0.9,39.2,1,58.8,0.9C427.9,99.7,433.9,98.7,440,98.1z"/>
		<path class="st225" d="M440,98.1c-3.7,3.9-8.8,2.6-13,2.7c-16.2,0.7-32.5,0.9-48.7,0c-11.2-0.6-22.4-0.5-33.5-0.7
			c-4.7-0.1-9.4,0.6-14.1,0.8c-3,0.2-5.3-3-8.5-1.9c0-0.3,0-0.7,0-1c4.5-2.7,9.3,0.3,14-0.7c5.3-1,10.9,0.3,16.1-1.8
			c0.3-0.1,0.7-0.3,0.9-0.2c9.7,2.8,19.7,1.2,29.5,2.1c11.4,1,23,0.4,34.4,0.5C424.7,98,432.4,95.5,440,98.1z"/>
		<path class="st226" d="M322.2,110c21.3,0.1,42.5,0.1,63.8,0.2c0.9,1,0.8,1.9,0,2.9c-10.9,0.1-21.7-1.5-32.6-1
			c-6.2,0.3-12.5,0.1-18.7,0.1c-2.8,0-5.1,0.3-6.8,3.3c-1.8,3.1-3.8,1.9-5.7-3.3C322.2,111.4,322.2,110.7,322.2,110z"/>
		<path class="st223" d="M330,68.1c2.6,3.9,2.2,17.1-1.1,21.3c-1.4,1.7-2.4,5.2-6,3.7c-0.8-3.1,1.2-5.5,2.2-8.1
			c2.6-4.6,3.7-9.3,0.2-14c-1.5-2-2.2-4.4-3.2-6.7c0-0.4,0-0.7,0-1.1C326.1,62.7,327.7,66.1,330,68.1z"/>
		<path class="st227" d="M326.1,85.2c-1,2.6-2.1,5.3-3.1,7.9l-0.4,0.1h-0.5c0-9.6,0.1-19.2,0.1-28.8c2.3,1.3,2.6,3.9,3.9,5.8
			C328,75.1,327.7,80.1,326.1,85.2z"/>
		<path class="st140" d="M459.9,109.2c-3.3,0.9-2.8,4.1-3.8,6.4c-1.1,2.5-1.8,5-5,5.5c-5.3,0.9-5.9,0.1-6.1-7.9
			c0.1-0.2,0.2-0.4,0.3-0.7c0.9-1,2.1-0.9,3.2-0.9c4-0.2,6-2.5,6.3-6.3c0.3-3.6,1.1-7.2,0.3-10.9c-0.5-2.3,0.2-4.7,1.5-6.7
			c0.6-1,1.6-1.3,2,0.4c0,3.3,0,6.5,0,9.8c0.4-7.5-0.8-14.9-1.4-22.3c-0.5-2.5-0.5-5-0.2-7.6c0.1-0.6,0.2-1.1,0.4-1.7
			c0.9-3.8,1.5-7.6,1.3-11.6c-0.1-1-0.6-2.4,1.3-2.6c0.1,0.7,0.2,1.4,0.4,2.1c0.8,1.6,1.4,3.3,1.2,5.2c0,5.7,0.1,11.4,0,17.1
			c0,1.2,0,2.4,0.1,3.6c0.1,1.5,0,3.1,0,4.6c0.3,6.3,0.1,12.6,0.1,18.9C461.5,105.6,461.6,107.7,459.9,109.2z"/>
		<path class="st228" d="M460.1,59.2c0-1.7,0-3.3,0-5c3.8,2,8.4-0.3,12.8,3c0-5,0-9.1,0-13.3c0.5,0,0.9,0,1.4,0
			c1.5,12.4,0.5,24.8,0.6,37.2c-1.5-1.5-0.6-3.5-1.1-5.2c-2.5-3.9-0.9-8.5-2.2-12.6c-0.6-3.4-2.6-2.4-4.9-1.8
			C464.2,62.2,460.8,64.4,460.1,59.2z"/>
		<path class="st229" d="M459.8,52.1c-2,4.9,0.2,10.1-1.5,15c-2.2-1.8-1.9-3.9-0.5-6c0-5.2-0.3-10.3,0.2-15.5c0.4-4-1.1-5.8-4.7-6.3
			c6.7-0.2,6.7-0.2,6.6,6.3C459.9,47.9,459.8,50,459.8,52.1z"/>
		<path class="st230" d="M459.9,109.2c0.1-8.4,0.2-16.7,0.2-25.1c2.6-1.4,4.2,1.3,6.2,1.7c6.8,1.4,6.5,6.3,6.1,11.4
			c-0.1,1.3-0.2,2.6,0.3,3.9c0,3.7-0.1,7.3-0.1,11c-4.4-1.9-8.3,1.8-12.6,1C460,111.8,459,110.5,459.9,109.2z"/>
		<path class="st231" d="M472.9,63.2c0.3,4.3,0.6,8.5,0.9,12.8c-0.3,0-0.6,0.1-0.9,0.1c-0.6,0.5-1.3,0.6-2,0.5
			c-2.3-1.3-4.5-2.8-6.6-4.3c-1.7-1.2-3.6-2.6-2.4-5.2c1.5-3.2,5.5-6,7.8-5C470.8,62.6,472.1,62.1,472.9,63.2z"/>
		<path class="st232" d="M472.7,101.1c-1.5-3-0.4-6.2-0.7-9.3c-0.1-1-0.3-1.9-0.5-2.8c-5,1.1-7-4.6-11.4-4.9c0-1.3,0-2.7-0.1-4
			c3.6-2.7,10.8-1.5,12.8,2.1C472.8,88.5,472.8,94.8,472.7,101.1z"/>
		<path class="st228" d="M472.8,82.2c-3.9-2.8-8.3-2.8-12.8-2.1c0-1,0-2,0-3c1-0.7-0.8-4.1,3.1-2.4c2.1,1,5.1,1.8,7.8,1.4
			c0.7,0,1.3,0.1,2,0.1C472.9,78.2,472.9,80.2,472.8,82.2z"/>
		<path class="st233" d="M386,113.1c0-1,0-1.9,0-2.9c17.6,0,35.3,0,52.9,0c0.7,4.1,1.6,8.1,2,12.2c0.5,5-1.6,7.5-6.5,9
			c-10.5,3.2-21.1,2-31.8,2.1c-9.4,0-18.9-0.1-28.2,0.8c-3.2,0.3-5.7-1.4-8.6-1.2c-7.7,0.4-15.3,0.7-22.9,1.6
			c-5.7,0.7-11.8-1.6-14.8-6.5c4-2,7.6,0.9,11.5,0.9c2.5,0,5.1,0.2,7.6,0.3c7,0.3,14.1,0.2,21.1-0.1c5-0.2,10.1-0.4,15.1-0.6
			c0.4,0,0.8-0.6,1.2-0.9c3.3,5.9,7.2,0.2,10.8,0.3c4.5,0.1,9.1,0.4,13.7,0.3c7.6-0.1,15.1-0.2,22.6-0.9c2.5-0.2,5.4,0.1,6.6-2.4
			c2.1-4.5,0.3-8.7-2.4-12.4c-0.3-0.4-1.7-0.6-2.3-0.3c-5.5,3.3-10.8,0.1-16.2,0.1c-9.3-0.1-18.7-1.8-27.9,0.8
			C388.4,113.6,387.1,113.2,386,113.1z"/>
		<path class="st223" d="M443.9,95.2c0.2-1.8-0.8-1.5-1.9-1c0.3-3-0.8-6.2,0.9-9.1c1.6-1.4-0.5-3.7,1.1-5.1c0.5-0.2,1,0,1.4,0.3
			c0.7,0.9,0.8,2,0.9,3.1c0.1,1.2,0,2.4,0.1,3.6c0.2,6.6,0.1,13.3,0.1,19.9c0,2.2-0.3,4.3-1.6,6.2l-0.1,0.1
			c-0.3-0.1-0.5-0.1-0.8-0.2C444,107.1,443.9,101.1,443.9,95.2z"/>
		<path class="st234" d="M391.1,71.2c0.5-3.2,0.4-6.7,1.9-9.4c0.9-1.7,4.3-0.5,6.6-0.6c1.8-0.1,3.6,0,5.5,0c7.8,0,15.6,0,23.4,0
			c2.6,0,4.6,0.4,6,3.2c1.6,3.2,6.1,3.1,8.4,5.8c1.6,1.2,1.4,2.8,0.8,4.4c-2.6,1.9-5.2,0.9-7.4-0.4c-4.4-2.6-9.1-2.7-14-2.2
			c-6.2,0.6-12.4,2-18.6-0.3c-0.3-0.1-0.7-0.1-1-0.3C398.9,68.2,395,68.8,391.1,71.2z"/>
		<path class="st235" d="M457.8,61.2c0.2,2,0.3,4,0.5,6h-0.5c-2-0.6-3.9-0.9-6.1-0.8c-4.9,0.3-6.1-1-6.6-5.9c0-4.3-0.1-8.6-0.1-12.8
			c0-1.1-0.5-2.7,1-2.9c0.9-0.2,2.3,0.6,3,1.3c1,1,2.4,2.5,2.2,3.7c-0.5,4,0.1,6.2,4.9,6.4C458,56.2,455.9,59.8,457.8,61.2z"/>
		<path class="st200" d="M445.2,60.5c1,4.9,4.8,5.4,8.3,4.3c3-0.9,3.3,0.8,4.3,2.4c0.1,2.7,0.2,5.4,0.3,8.1c0.8,1.8-0.2,3.4-0.4,5.1
			c-0.3,0.7-0.9,1.2-1.7,1.5c-1.1,0.2-2-0.2-2.8-1c-0.8-1.1-1.2-2.2-0.8-3.5c3.4-1.6,3.6-2.7,1.1-7.2c-1,1.4,0.4,3-0.6,4.3
			c-0.6,0.4-1.3,0.5-2,0.3c-2-3.2-4-6.4-7.3-8.5c-0.2-0.7-0.3-1.4,0.4-1.9C445.3,63.2,445,61.8,445.2,60.5z"/>
		<path class="st236" d="M444.1,64.3c0,0.6,0,1.3,0.1,1.9c1.8,4.6,2.2,9.2-0.1,13.8c0,2.3,0,4.7,0,7.3c-0.6-0.5-0.9-0.6-0.9-0.8
			c-0.1-0.4-0.1-0.9-0.2-1.4c0-1,0-2-0.1-3c-1.1-1.4-1.2-3-1-4.7c0.1-0.8,0.4-1.6,1-2.2c0-1.6,0-3.3,0-4.9c0-2.7,0.1-5.4,0.1-8
			c0.3-0.5,0.6-0.5,1-0.1C444,62.8,444,63.6,444.1,64.3z"/>
		<path class="st237" d="M443.9,62.1c-0.3,0-0.7,0-1,0.1c-2.6-5.2,0.9-10.2,1-15.3C443.9,52,443.9,57.1,443.9,62.1z"/>
		<path class="st238" d="M442.8,75.1c0.1,0.7,0.1,1.3,0.2,2c-2.2,1-5.5-1.5-7,1.9c-0.3,0-0.6,0.1-0.9,0.1c-7.8,4.3-16.2,2-24.4,1.9
			c-5.6-0.1-11.1,0.6-16.6,0c-4.1-1.5-8.4-1.7-12.7-1.9c-5.1-0.2-10.2,0-15.3,0c-0.3-0.3-0.7-0.7-1-1c1.6-1.7,3.7-1.3,5.6-1.3
			c7.3,0,14.6-0.3,21.9,0.2c0.7,0-0.2,0,0.5-0.1c-0.1-0.3-0.4,0-0.6-0.1c-1.3-0.2-2.3-0.8-2.6-2.1c-0.1-0.9,0.8-1.2,1.3-1.7
			c0-0.6,0.1-1.3,0.1-1.9c3.1-4.7,6.7-5,11-1.4c4.5,3.7,10,1.8,14.9,1.5c7.1-0.3,14.1-2.5,20.6,2.4C439,74.8,441.3,73.9,442.8,75.1z
			"/>
		<path class="st239" d="M354,67.2c8.5,0.8,17.1-1,25.6,0.9c1.3,0.3,3-2.4,4.1,0.9c1,3.1-2,2.6-2.8,4c-0.9,1.3-2.3,1.3-3.7,1.4
			c-0.8,0-1.6,0-2.5-0.1c-6.2,0.2-12.5,0.4-18.5-1.6C354.6,71.2,352.7,69.8,354,67.2z"/>
		<path class="st240" d="M375,73.3c0.6,0,1.3,0,1.9,0c0.3,0.3,0.7,0.7,1,1.1c1.4,2.1,3.6,1.5,5.4,1.5c2.8,0,5.6,0.2,8.4,0.5
			c2.2-1.4,4-0.7,5.8,1.4c-11.1,1-21.9,0.2-32.6,0.5c-6.8,0-13.7,0.1-20.5,0.7c-2.7,0.2-6.7,0.2-6.4-4.7c4.2-2.4,8.5-3.9,12.9-0.3
			c0.8,0.6,1.3,1.6,2.4,1.7c6.6,0.3,13.3,0.5,19.9-0.1c0.5,0,0.7-0.6,0.9-1.1C374.4,73.9,374.7,73.6,375,73.3z"/>
		<path class="st241" d="M354,67.2c0.7,1.7,1.3,3.3,2,5c-4.2-0.4-8.4-0.9-12.6-0.1c-1.3,0.2-2.5-0.6-3.3-1.8c-1-1.8-4.9-0.3-4.4-2.9
			c0.5-2.7,3.7-2,5.9-2.1c3.7-0.2,7.4-2,11.2-0.3c1.4,0.6,1.7-1.6,3-1.7C356.2,65,354.4,65.8,354,67.2z"/>
		<path class="st242" d="M340,70.2c2.7,0.8,5.4,1.3,8.2,0.1c2.9-1.2,5.3,0.8,7.8,1.8c6.3,0.4,12.7,0.7,19,1.1c0,0.3,0,0.6,0,0.9
			c-0.8,0.9-1.9,1.4-3.1,1.3c-7.3-0.4-14.8,1.6-21.9-1.3c-4-2.8-8,0.2-12,0C337.8,72.4,339.4,71.5,340,70.2z"/>
		<path class="st242" d="M377,74.2c0-0.3,0-0.7,0-1c1.3-0.1,2.7-0.2,4-0.2c3.3,0,6.7,0,10,0.1c-0.3,0.4-0.6,0.7-0.9,1.1
			C385.7,76.4,381.4,76.4,377,74.2z"/>
		<path class="st243" d="M578.6,44.5c1.5,0,2.2,0.9,2.3,2.1c0.2,1.6-0.9,2.3-2.3,2.6c-1.5,0.3-2.7-0.1-2.7-1.9
			C575.8,45.4,578.2,45.8,578.6,44.5z"/>
		<path class="st244" d="M577,40.9c0-1.5,0.9-1.8,1.9-1.8c0.9,0,2.2-0.3,2.4,1c0.3,1.6-0.9,1.9-2.2,1.9
			C578.2,42.1,577.2,42.1,577,40.9z"/>
		<path class="st245" d="M394,81.1c8.1-2.6,16.3-0.8,24.5-0.6c2.4,0,4.9,0.5,7.3,0.6c1.2,0.1,2.9,0.3,3.2-0.8c1.4-4.7,3.9-1.3,6-1
			c1.4,4.2-2.1,4.9-4.2,4.4c-4.5-1-9.1,0.7-13.5-1.4c-1.4-0.7-3.2-0.1-4.8,0.6c-5.8,2.4-11.5,0.1-17.3-0.3
			C394.8,82.5,394.4,81.6,394,81.1z"/>
		<path class="st234" d="M436,79.1c0.8-6.2,4.4-2.3,7-1.9c0,1.6-0.1,3.3-0.1,4.9C440.1,82,439,78.4,436,79.1z"/>
		<path class="st33" d="M326.1,85.2c0-5,0-10,0-15C330.4,75.1,329.6,80.1,326.1,85.2z"/>
		<path class="st246" d="M456.1,81.4c0.4-0.4,0.7-0.9,1.1-1.3c2.6,2.1,1.2,4.6,0.7,6.9c-3.5,4.8-0.5,10.2-1.6,15.4
			c-2.1,9.9-1.8,10-11.3,10.7c0-9,0-18,0-27c1.4-1.4,3.3-2.4,4.9-1.6C453.9,86.7,454.7,83.7,456.1,81.4z"/>
		<path class="st247" d="M471,76.1c0.2,0.8,0.5,2.7-0.6,1.8c-2.6-2.2-6-0.4-8.5-2.4c-1.4-1.1-0.6,1.7-1.8,1.5
			c-0.5-5.9-0.4-11.9,0-17.8c1.6,2.8,3.7,2.3,6.2,1.3c2.9-1.1,6-2.3,6.6,2.7c-3.2,0.2-6.1-1.1-8.9,3c-2.4,3.6-0.2,4.1,1.3,5.3
			C467.1,73.2,469.8,73.5,471,76.1z"/>
		<path class="st205" d="M457.9,87c-0.3-2.3,1.1-4.8-0.7-6.9c0.3-1.6,0.7-3.2,1-4.9c2,8.2,0.2,16.4,1,24.6c-0.4,0-0.8,0-1.3,0
			C457.9,95.6,457.9,91.3,457.9,87z"/>
		<path class="st248" d="M444,80c0-4.6,0.1-9.2,0.1-13.8c4.8,0.5,6.2,3.9,6.8,8c1.9,3,3,5.6-2.5,4.9c-1.5-0.2-1.9,2.7-3.7,1.2
			C444.6,80.2,444.3,80.1,444,80z"/>
		<path class="st249" d="M456.1,81.4c-0.7,1.3,3.7,5-2,4.2c-1.1-0.2,0.7,2.1-1,3c-1.5-4.4-4.9-3-8-2.4c0-1,0-2,0.1-3.1
			c0.6-1.2,1.1-3.3,2.9-2.2c2.4,1.5,4.1-0.2,6-0.6C454.7,80.6,455.4,81,456.1,81.4z"/>
		<path class="st250" d="M453.9,80.2c-1.1,2.7-2.3,4.9-5.4,2c-1.7-1.7-2.4,0.1-3.5,0.8c-0.1-0.9-0.1-1.9-0.2-2.8
			c2.1-1.2,3.4-4.9,6.8-1.2c-0.3-2.1-0.5-3.5-0.6-4.9c0.6,0,1.2,0,1.8,0.1c1.1,0.9,0.8,1.8,0.2,2.8
			C453.4,78.1,453.6,79.2,453.9,80.2z"/>
		<path class="st251" d="M453.1,77c-0.1-0.9-0.1-1.9-0.2-2.8c-0.9-2-1.2-4.1-0.5-6.2c5.3,1.6,4.7,5.6,3.5,9.3
			C455.4,78.7,454.2,75.7,453.1,77z"/>
		<path class="st252" d="M399.5,75.4c2.7-3.2,6.2-1.4,9-1.5c6.8-0.4,13.5-0.3,20.3-1c1.5-0.2,2.8,0.1,2.9,1.8
			c0.1,1.7-1.5,1.6-2.6,1.4c-1.7-0.3-3.3-1.3-2.9,1.9c0.2,1.5-1,0.5-1.7,0.6c-6.7,0.2-13.3-0.8-19.9-1.1
			C402.5,77.2,401.2,76.3,399.5,75.4z"/>
		<path class="st253" d="M377,74.2c4.3,0,8.7-0.1,13-0.1c0.6,0.7,1.2,1.4,1.8,2.1c-4.4,1.9-8.9,0.7-13.4,0.7
			C376.9,77,377.1,75.4,377,74.2z"/>
		<path class="st254" d="M350,74.1c8.3,0,16.7,0,25,0c1.4,2.4-0.2,2.9-2,2.9c-6.5,0.1-13,0-19.5,0C351.4,77.2,350.7,75.7,350,74.1z"
			/>
	</g>
</g>
</svg>
