<?xml version="1.0" encoding="utf-8"?>
<!-- Generator: Adobe Illustrator 25.0.0, SVG Export Plug-In . SVG Version: 6.00 Build 0)  -->
<svg version="1.1" id="Camada_1" xmlns="http://www.w3.org/2000/svg" xmlns:xlink="http://www.w3.org/1999/xlink" x="0px" y="0px"
	 viewBox="0 0 617.1 204.1" style="enable-background:new 0 0 617.1 204.1;" xml:space="preserve">
<style type="text/css">
	.st0{display:none;}
	.st1{display:inline;stroke:#FFFFFF;stroke-miterlimit:10;}
	.st2{fill:#5B696F;}
	.st3{fill:#C3C7C8;}
	.st4{fill:#8E9293;}
	.st5{fill:#1D1E1E;}
	.st6{fill:#1C1E1D;}
	.st7{fill:#2D2F2E;}
	.st8{fill:#191B1B;}
	.st9{fill:#111212;}
	.st10{fill:#131414;}
	.st11{fill:#161717;}
	.st12{fill:#434442;}
	.st13{fill:#797E7F;}
	.st14{fill:#151616;}
	.st15{fill:#2A2F32;}
	.st16{fill:#1B1C1C;}
	.st17{fill:#5B5E5C;}
	.st18{fill:#32373A;}
	.st19{fill:#4C565B;}
	.st20{fill:#5A686E;}
	.st21{fill:#454C50;}
	.st22{fill:#A6B1B4;}
	.st23{fill:#778890;}
	.st24{fill:#2E2F2E;}
	.st25{fill:#282A29;}
	.st26{fill:#1F2121;}
	.st27{fill:#2A2C2B;}
	.st28{fill:#1E1D1A;}
	.st29{fill:#303231;}
	.st30{fill:#4D5559;}
	.st31{fill:#2E302F;}
	.st32{fill:#282928;}
	.st33{fill:#D6E6EA;}
	.st34{fill:#181919;}
	.st35{fill:#101010;}
	.st36{fill:#8F9491;}
	.st37{fill:#6D706E;}
	.st38{fill:#848885;}
	.st39{fill:#3B3E3D;}
	.st40{fill:#343636;}
	.st41{fill:#818582;}
	.st42{fill:#585B59;}
	.st43{fill:#0E0E0E;}
	.st44{fill:#3D403F;}
	.st45{fill:#292B2B;}
	.st46{fill:#7B7E7C;}
	.st47{fill:#646765;}
	.st48{fill:#030303;}
	.st49{fill:#777A78;}
	.st50{fill:#474948;}
	.st51{fill:#444746;}
	.st52{fill:#747876;}
	.st53{fill:#494B4A;}
	.st54{fill:#7D807E;}
	.st55{fill:#363838;}
	.st56{fill:#FCFEFE;}
	.st57{fill:#595B5A;}
	.st58{fill:#FAFEFE;}
	.st59{fill:#818482;}
	.st60{fill:#626564;}
	.st61{fill:#9B9F9C;}
	.st62{fill:#9EA29F;}
	.st63{fill:#848886;}
	.st64{fill:#B7D2DC;}
	.st65{fill:#848785;}
	.st66{fill:#717472;}
	.st67{fill:#B2B9B6;}
	.st68{fill:#323433;}
	.st69{fill:#242525;}
	.st70{fill:#434544;}
	.st71{fill:#2F3130;}
	.st72{fill:#424443;}
	.st73{fill:#141515;}
	.st74{fill:#C3D2D7;}
	.st75{fill:#2F312F;}
	.st76{fill:#2A2B2B;}
	.st77{fill:#2A2D2E;}
	.st78{fill:#0C0C0C;}
	.st79{fill:#0A0A0A;}
	.st80{fill:#0B0B0B;}
	.st81{fill:#2F3131;}
	.st82{fill:#3F4140;}
	.st83{fill:#090A0A;}
	.st84{fill:#595B57;}
	.st85{fill:#F3F4F4;}
	.st86{fill:#F4F5F5;}
	.st87{fill:#080809;}
	.st88{fill:#5D605E;}
	.st89{fill:#878A88;}
	.st90{fill:#DFE1E2;}
	.st91{fill:#2E2F2F;}
	.st92{fill:#484A49;}
	.st93{fill:#4B4E4D;}
	.st94{fill:#F0F1F1;}
	.st95{fill:#F5F6F6;}
	.st96{fill:#666967;}
	.st97{fill:#404342;}
	.st98{fill:#5E615F;}
	.st99{fill:#393B3B;}
	.st100{fill:#373938;}
	.st101{fill:#555857;}
	.st102{fill:#AEB3B0;}
	.st103{fill:#8F9391;}
	.st104{fill:#4E504F;}
	.st105{fill:#151717;}
	.st106{fill:#121314;}
	.st107{fill:#B6BBB7;}
	.st108{fill:#808482;}
	.st109{fill:#3C3E3D;}
	.st110{fill:#515452;}
	.st111{fill:#0F0F10;}
	.st112{fill:#707371;}
	.st113{fill:#8C918E;}
	.st114{fill:#8C908E;}
	.st115{fill:#838684;}
	.st116{fill:#1E2020;}
	.st117{fill:#929693;}
	.st118{fill:#8B8F8C;}
	.st119{fill:#727573;}
	.st120{fill:#101011;}
	.st121{fill:#525453;}
	.st122{fill:#FBFBFB;}
	.st123{fill:#202121;}
	.st124{fill:#8A8F8C;}
	.st125{fill:#FCFCFC;}
</style>
<g id="Camada_2_1_" class="st0">
	<rect x="-256" y="-115.9" class="st1" width="665" height="421"/>
</g>
<g id="Camada_1_1_">
	<g>
		<path class="st2" d="M114.2,180c-1.4-0.1-1.4-2.2-3-2c0-1.3,0-2.7,0-4c2.1-0.3,1.7-2.1,2.1-3.5c2.6-9.2,5.3-18.3,7.9-27.5
			c4.8-2.1,5.3-1.6,5.1,5.7c-1.8,9.1-3.9,18-7.1,26.7c-1.4,1.4-5.1,0.8-3.8,4.5C114.9,180.3,114.6,180.4,114.2,180z"/>
		<path class="st3" d="M503.9,23.2c0.7,0,1.3,0,2,0c0,6.7,0,13.3,0,20l-0.5,0.1h-0.5c-2.3-2.7-1.3-6-1.4-9c-0.2-3.1,0-6.2-0.2-9.4
			C503.3,24.2,503.5,23.7,503.9,23.2z"/>
		<path class="st4" d="M170.1,0.2c0.4,0.6,0.8,1.2,1.2,1.8c-3.3,2-6.7,0.8-10.1,0.3c0.3-0.7,0.6-1.4,0.9-2.1
			C164.8,0.2,167.4,0.2,170.1,0.2z"/>
		<path class="st5" d="M274.1,17c2.2-0.6,4.5-1.3,6.7-1.9c3.4-1.1,2.9,1.8,3.7,3.5c0.2,0.4,0.5,0.7,0.8,1c1.9,1.3,3.9,1.6,5.8,0
			c1.2-0.7,3.2-0.3,3.5-2.3c0.2-1.1,0.5-2.2,1.3-3.1c13.3-0.4,26.7-0.4,40,0c1.2,1.4,0.4,2.8,0.2,4.3c-0.1,0.5-0.3,1-0.6,1.4
			c-0.7,0.8-1.3,1.7-2.3,2c-9.9-0.7-19.8-0.3-29.7-0.4c-1.6,0-3.4-0.6-4.5,1.2c-1.2,1.7-1.6,3.6-1.8,5.6c-0.6,7.1-2.8,8.7-9.7,7
			c-3.3-0.8-5.7-2.6-7.2-5.6c-1.6-3-2.8-4.1-6.3-1.3c-4,3.2-9.3,3.5-14.6,3.8c-9.9,0.6-19.7-2.4-29.6-0.9c-4.2,0.6-8.7,0.6-12.7-1.5
			c-1.8-0.9-3.5-0.8-5.2,0.4c-2.9,1.9-6.2,2.5-9.6,2.2c-6-0.6-12.1-0.1-18.1-1.8c-7.5-2.1-15.5-0.2-23.1-2.1
			c-1.7-0.4-3.6-0.5-5.3-1.3c-0.6-0.3-0.1-0.2-0.4,0c-0.5,0.4,0.6,0.2,0.6,0.6c0.3,0.3-0.2,1.1,0.3,1.2c9.5,0.9,18.9,2.3,28.3,3.5
			c1.2,0.1,2.3-0.2,3.4-0.4c0.9-0.1,1.7,0.1,2.5,0.4c6.5,2.2,13.4,2.2,20.1,2.9c9.2,1,18.6,0.8,27.8,2c31.1,0.2,62.2-0.5,93.3,1.2
			c-7.7-0.3-15.4-0.2-23.1-0.3c-1.3,0-3.1,0.8-3.9-1.2c1.5-2.1,3.8-1.7,5.9-1.8c5.6-0.1,11.3,0,17-0.1c5.2-0.1,5.6-0.6,5.8-5.8
			c0.1-2-0.1-4,0.2-6c0.6-4.7,4.7-2.5,7.1-3.5c3.2-1.1,7,0.2,9.9-2.5c0.4-0.2,0.9-0.3,1.4-0.3c1.3,0.2,2.1,1,2.4,2.2
			c-0.6,2.3,1.6,3.4,2.3,5.1c-1.1,4.7-3,9.2-2.6,14.3c0.2,2.8-0.3,5.5,2,7.8c1.1,1.2,0.9,2.7,0.2,4.3c1.9-0.4,2.4-2.3,3.7-3.3
			c3.7,1.3,4.4,4.5,1.4,7c-0.6,0.5-0.8,1.3-1.5,1.6c-0.5-4.8-3.6-4.1-6.8-3.3c-2.3,1.9-5,1.3-7.6,1.2c-2.3-0.1-3.5,0.7-3.2,3.2
			c0.1,0.8,0.2,1.7,0.1,2.5c-0.4,4.2,0.2,7.6,5.7,7c0.8-0.1,1.6,0.4,2.1,1.2c-0.3,0.2-0.5,0.5-0.8,0.5c-8.2,0.8-8.2,0.8-8.2,8.9
			c0,12.4,0,24.9,0.1,37.3c-1.2,1.4-2.9,1.6-4.6,1.5c-13.1-0.1-26.3,0.3-39.3-0.2c14.3,0.6,28.5,1,42.7-0.3c0.4-0.3,0.8-0.7,1.2-1.1
			c2,0.9,2.6,2.5,1.9,4.4c-0.6,1.7-2.3,0.7-3.5,1c-0.3,0.1-0.7,0-1,0c-7.9,0-7.9,0-8.8,7.7c-3.1-0.9-4.5,0.1-4.5,3.5
			c0,2.1,0.6,5.7-2.5,5.5c-2.8-0.1-2.3-3.6-2.3-5.8c0.1-4.3-1.9-6-6-5.8c-3.3,0.2-6.6-0.1-9.9,0.6c-1.9,0.4-3.3,0.1-3.5-2.3
			c-0.1-2.3,0.9-3.3,3.3-3.3c7,0.1,14.1,0,20.6,0c-8.1-0.3-16.7,0.5-25.3-0.4c-2.1,0-4.3,0-6.4,0.2c-4.6,0.3-5-1.8-3-5.5
			c-4.2,0-8.3,0-12.3,0c0-1.1,0.8-1.5,1.7-1.8c2.3-0.9,5.6,0.8,6.9-1.1c1-1.5-0.1-4.4-0.1-6.8c-0.1-11.2,0.2-22.4,0.1-33.7
			c0-1.8,0-3.7,1.1-5.2c2.9-0.6,3.2,1.6,3.6,3.5c0.5,2.4,0.2,4.9,1,7.3c0.3-4,0.2-8.1,0.3-12.1c0-3.1-1.6-4.5-4.5-4.8
			c-2.4-0.3-4.7-0.2-6.9,0.6c-5,1.7-10.1,1.8-15.3,1.8c-19.3-0.1-38.5,0-57.8,0c-5,0-10-0.3-14.7-2.2c-1.1-0.7-1.8-1.8-2.3-3
			c-1-2.9-3.3-1.9-5.3-1.8c-3.7,1.5-7.3-0.9-11-0.2c-2.4,0.1-5-0.4-6.6,2.1c-0.8,0.4-1.5,0.1-2.3-0.1c3.2,1.7,7.2-0.8,10.3,1.8
			c0.1,1-0.4,1.7-1.3,1.8c-8.7,1.5-17.3,2.9-25.5-2c-2.2-1.3-1.8-4.3-4.1-5.2c-0.8-0.1-1.3-0.6-1.9-1.2c-0.9-1-0.2,0.5-0.6,0.5
			c-1,2-1.1,4.4-2.5,6.2c0,2.1-0.1,4.3-0.1,6.4c0,1.1-0.6,1.9-1.8,1.8c-0.9-0.1-1.3-0.9-1.2-1.9c0.1-1.8,0.2-3.6,0.1-5.4
			c-0.1-2.2,0.2-4.1-2.1-6c-2.4-2-1.3-5.6-1-8.5c0.5-4.6,5-1.6,7.1-3.5c0.2-0.4,0.5-0.7,0.8-0.9c0.3-0.3,0.7-0.5,1-0.7
			c1.2-2.8,1-5.7,0.1-8.5c-0.5-0.9-1.7-1.5-1.1-2.9c0.6-0.4,1.2-0.8,1.7-1.2c3.1-1.2,2.2-3.7,2.1-6c2-4.3,5.1-7.4,9.9-7.9
			c2.1-0.2,2.8-1.2,3.4-2.8c5.4-1.1,10.9-0.5,16.3-0.5c3.8,0,7.5-1.3,11.4-0.1c1.4,0.4,2.9,0.6,4,1.7c0.7,2.7,2.9,1.7,4.5,1.6
			c6.5-0.3,12.8,0.4,18.7,3.2c0.3,0.6,0.2,1.1-0.4,1.5c-5.4,0.7-10.9-0.1-16.3-0.2c-5.8-0.2-11.5,1.8-17.3,0.4
			c-7.1-0.4-14.2-0.7-21.3,0.2c9,1.1,18,0.6,27.1,0.7c2.5,0,5-0.2,7.5-0.2c5.5,0.5,10.9,0.1,16.4,0.2c13.1,0.5,26.2,0.1,39.2,0.4
			c7.2,0.2,14.5,1.4,21.7-0.2c0.8-0.2,1.6-0.2,2-1.1C273,18.1,273.4,17.4,274.1,17z"/>
		<path class="st6" d="M279.4,113.9c-0.4,0.3-0.8,0.7-1.2,1c-14.2,3.1-28.6,3.8-43,4.4c-12.1,0.4-24.1,2.8-34.4,9.8
			c-1.1,0.7-2.4,1.5-3,2.5c-10.1,17.1-21.1,33.7-30.6,51.2c-0.3,0.4-0.7,0.8-1,1.2c-1.7,3.3-1.1,6.5-0.3,10c0.7,2.7,2.5,6.3-1.9,8.1
			c-14.6-5.1-29.1-10.1-43.7-15.2c-0.5-3.1-2.2-5.9-2.7-9c-0.1-0.7,0.1-1.4,0.6-1.9c2.4-9.3,4.8-18.7,7.1-28
			c-0.2-8,4.2-13.6,9.5-18.9c7.3-7.2,14.7-14.5,21.8-21.9c3.7-3.8,6.9-8.1,8.2-13.4c0-0.9,0.1-1.9,0.3-2.8c1-3.6-0.4-6.9-1.4-10.2
			c0-0.5,0.2-1,0.6-1.4c1.3-1.4,2.8-1.6,4.5-0.8c0.3,0.2,0.6,0.4,0.9,0.4c13.2,0.8,26.4,1.1,39.6-0.2c-7.8-1.5-15.7-2.4-23.6-2.6
			c-5.9-0.2-11.9-1.2-17.8,0.7c-1.3,0.4-2.5,0.7-3.3,1.9c-3.1,1.1-3.4-2-4.9-3.3c-0.7-1.5-2.1-2.7-1.6-4.6c1.7-1.3,3.6-0.4,5.5-0.4
			c2.4,1,4.9,1.2,7.4,0.5c10.6-0.1,21.1-1.5,31.7-1.1c2,0.1,4,0.4,5.7,1.3c3.4,1.8,6.6,3.3,10.8,2.3c2.9-0.7,5.3,2.1,6.7,4.4
			c1.3,2.1-1,3.7-2.5,4.8c-4.8,3.5-5.5,8.7-5.3,13.8c0.1,4.7,2.4,9.2,3.4,13.9c0.4,1.6,2,2,3.5,2.4c3.9,1.2,7.9,0.7,11.9,0.8
			c0.7,0-0.2,0,0.5,0c17.3,0.3,17.6,0.2,30-12.2c4.9-4.9,5.5-7.8,2.7-14.3c-0.6-1.4-1.5-2.6-1.3-4.2c4.2-4.7,7.6-3.8,12,2.9
			c1.1,4.4,0.9,8.9,3.4,13.1c1.5,2.5-1,4.8-3.1,6.4c-1.6,0.6-2.8-0.7-4.2-1c-1.3-0.3-2.5,0.3-2.4,1.7c0,1.3,1.2,1.4,2.3,1.2
			c1.4-0.2,2.7-1.3,4.3-0.7C284.4,110.8,283.9,112.5,279.4,113.9z"/>
		<path class="st7" d="M299.8,120.2c9.3,0,18.6,0,27.9,0c0,0.3,0,0.6,0,0.9c-7.2,0-14.4,0.1-21.7,0c-2.8,0-4.7,0.4-3.7,4
			c5.4-1.7,11-0.8,16.5-0.9c2.7-0.1,3.2,1.8,3.3,4c0.1,2.7-0.5,5.5,0.7,9.1c1.8-2.7,1.1-5,1.2-7.1c0.1-2.2,0-4.7,2.4-5.5
			s2,2.6,3.6,3.4c0.1,7.7,0.2,15.3,0.2,23c1.1,7-0.7,14,0.9,21c0.6,2.6-1.8,5.9-0.7,9.1c0.7,2.1,0.9,4.8,1.8,6.4
			c1.8,3.5-0.4,4-2.2,5.3c-7.3,0.8-14.6,1.3-21.8,2.4c-3.4,0.5-4-0.6-4.4-3.6c-2.6-22.6-4.3-45.3-3.6-68.1
			C300.4,122.5,299.9,121.3,299.8,120.2z"/>
		<path class="st8" d="M358.6,16c0.6-0.8,0.9-1.6,0.8-2.7c-0.4-3.5,1.2-4.8,4.6-4c1.7,1.8,1.4,4.1,1.3,6.3c-0.4,2.9-1.5,5.7-0.7,8.7
			c-0.2,2.9,3.4,3.2,3.8,5.7c-0.7,5.5,0.2,6.7,5.8,6.9c1,0,2-0.1,2.9,0c4.8,0.9,7.8-1.3,9.8-5.4c1.9-1.1,4-1.7,6.1-1.6
			c8,0.5,16.1-0.4,23.9,1.9c2.8,4.4,11.8,6.8,16.4,4.4c2.7-1.4,1.6-4.1,2.3-6.1c1.1-1.3,2.6-1.8,4-1c3.7,1.9,7.4,1.1,11.1,0.2
			c5.9-1.4,11.4,0.2,17.1,1.4c1.2,3.4,2.5,6.7,7.1,6.1c4.4-0.6,10,2.3,12.3-4.4c2.4-1.8,4-4.3,5.9-6.5c0.5-0.1,0.9,0.1,1.2,0.4
			c0.9,2.1,2.8,2.6,4.7,3c0.9,0.7,1.7,1.2,3,0.5c1.2-0.7,2.2,0,2.2,1.6c-0.2,4,0.3,7.9-0.3,11.9c-0.4,0.2-0.8,0.6-1.3,0.6
			c-8.3,0.7-8.5,0.7-8.1,9.4c0.1,3.6-0.6,5-4.5,4.7c-9.5-0.6-19.1,0.7-28.7-0.7c1.4-1.9,3.5-1.5,5.5-1.6c6.3-0.2,12.5-0.3,18.8,0
			c4.5,0.3,7.4-0.6,7.1-5.8c0-0.2,1.5-2.4-0.6-0.5c-10,0-19.9-0.5-29.9-0.8c-0.8-0.1-1.5-0.5-2.1-1c-5.2-2-10.5-1.9-15.7,0
			c-0.6,0.5-1.3,0.8-2.1,1c-8.7,1.8-17.5-0.9-26.3,0.6c-1.5,0.2-2.9-0.4-4.1-1.4c-0.3-3.2-1.9,0.8-2.5-0.5
			c-5.5-1.2-10.9-1.7-16.3,0.3c-0.5,0.2-1,0.4-1.5,0.6c-9.4,0.8-18.8,0.7-28.1,1.5c-3.3-2.3,0.8-4.2,0.4-6.4c-1.2-1-3.4,0-4-2.1
			c-1.7-5.3-1.9-10.6-1.1-16c0.8-1.8,2-3.5,1.9-5.6c0-0.5,1.6-2.4-0.9-1.2C359.1,17.8,358.8,17,358.6,16z"/>
		<path class="st9" d="M491.9,49.2c1.6-0.9,0.4-2.8,1.5-3.9c0.2,0.3,0.4,0.5,0.4,0.7c0.2,11.2,0.2,11.1-11,11.2
			c-7.1,0-14.2,0.1-21.3,0.2c-15.2,0.2-30.5,0.4-45.7,0.6c-2.3,0-4.6,0-6.9-0.8c-0.1-2.2,1.8-2,3.1-2.2c1.7-0.2,3.2-0.6,4.4-1.8
			c0.9-0.7,2-1.1,3.1-1.3c5.1-0.2,10.2-0.2,15.3,0c11.3,2.8,22.6,2.7,34,0.2c5.2-0.6,10.5-0.3,15.7-0.2
			C487.9,53.5,490.8,53.4,491.9,49.2z"/>
		<path class="st10" d="M416.9,54.1c-0.2,2.2-1.8,1.9-3.3,2c-1.6,0.1-3.4-0.6-4.7,1c-15.3,0.3-30.6,0.6-45.8,0.8
			c-1.3,0-2.7,0.1-3.2-1.6c-0.1-2.3,3.3-3.2,2.2-6c-0.5-1.1-0.7-2.1-2-2.2c-1.3-2.3-0.5-4.2,1-6c1.7,0.1,3.6-2.1,4.9-0.2
			c1.2,1.8-1.3,3-1.9,4.5c-0.3,0.9-0.7,1.8-1.1,2.7c1.1,3.6,3.4,4.1,6.5,2.7c5.2-0.1,10.4-0.4,15.6,0.2c5.7,2.4,11.7,1.3,17.6,1.6
			C407.4,53.9,412.3,53,416.9,54.1z"/>
		<path class="st11" d="M350.1,68.2c-8.6-0.3-8.6-0.3-9.2-9.2c-0.1-1-0.4-1.9-0.5-2.9c-0.1-2.2-0.1-3.9,3.2-3.3
			c3,0.5,6.2,0.3,9.4,0.4c0.3,4.2,0.2,8.3-0.7,12.4C352,66.8,352.1,68.3,350.1,68.2z"/>
		<path class="st12" d="M330,192.9c2.4-2.8,1-5.8,0.2-8.5c-1.2-3.8-1.2-7.3-0.7-11.3c0.5-4.5,0.8-9.5,0.3-14.2
			c-0.2-2.1,1.3-4.5-1.8-6.6c-1.8-1.2,0.9-1.7,2.3-1.3c1.2,13.1,2.4,26.2,3.7,39.2C334.3,193.7,331.9,192.8,330,192.9z"/>
		<path class="st13" d="M504.1,43.4c-0.1-4.4-0.3-8.8-0.4-13.2c-0.4-0.6-0.8-1.3-0.9-2.1c-0.1-1-0.1-2.1,0.3-3
			c0.2-0.5,0.6-0.9,1.1-1.1c1.4,6.3,0.4,12.8,0.8,19.2l-0.4,0.2H504.1z"/>
		<path class="st14" d="M163.1,71.1c-1.7,1.8-3.4-0.7-5,0c-2.2,0.6-3.1-1.4-4.5-2.4c-1.3-2-3.8-1.6-5.6-2.5c-0.9-0.4-1.6-1-1.9-2
			c-0.5-2-1.2-3.9-1.9-5.8c-0.3-1.7-0.6-3.5,0.7-5c0.6-2.8,2.4-1.7,2.8-0.4c2.1,8,8.8,8.2,14.6,7.7c4.5-0.3,9.5,1,13.8-1.6
			c5.6-2.8,11.3-2,17-0.1c4.5,1.2,9,2,13.6,2c18,0,35.9-0.1,53.9,0c7.8,0,15.5,0.2,23-2.4c0.9-0.3,1.9-0.6,2.9-0.6
			c7.3,0.4,7.5,0.6,7.5,8.1c0,4.2,0,8.3,0,12.5c0,1,0.5,2.7-1.2,2.7c-1.4,0.1-2-1.4-2.1-2.4c-0.4-2.8-0.5-5.6-0.6-8.3
			c-0.1-1.9,0.1-3.7-2-4.7c-8.6,1-17.2,0.2-25.8,0.4c-5.6,0.2-5.6,0.1-4.5,5.6c0.5,2.3,1,5-2.2,5.6c-3.2,0.6-3.9-2.1-3.8-4.5
			c0.2-4.2-1.9-5.1-5.5-4.8c-3.3,0.2-6.6-0.1-9.9,0.2c-0.4,0.2-0.8,0.4-1.2,0.7c-3.3,4.6,1.6,6.4,3.2,9.3c-1,3.9-3.5,7-4.7,10.9
			c-2.2,7.3-2.1,14.3,2.1,20.9c0.9,1.4,1.9,2.7,1.7,4.5c-4.6,0.3-9.3,0.5-13.8-0.8c-1.3-0.4-3-0.7-3.3-1.9c-1.6-8.1-5.9-16-2.6-24.8
			c1.5-3.9,5.4-5.3,7.9-8.7c-3.3-1.2-5-6.3-9.7-2.8c-0.4,0.3-1.7-0.2-2.3-0.7c-5.8-4.1-12.6-3.5-19.2-3.9c-2.6-0.2-5.4-0.3-7.9,0.3
			c-5.5,1.2-11,1.1-16.5,0.6C168.1,69.3,165.6,70.2,163.1,71.1z"/>
		<path class="st15" d="M166.1,94c-1.1,5.2-4.1,9.3-7.6,13c-6.3,6.8-13,13.3-19.7,19.8c-6.2,6-12.1,12.2-13.6,21.2
			c-0.1-4.2-0.1-4.2-4.1-5c0-3.8,2.5-6.4,4.8-8.9c7.4-8,14.3-16.5,22.8-23.5c5.8-4.8,9.6-10.8,12.4-17.6
			C162.9,93.2,164.4,94.3,166.1,94z"/>
		<path class="st16" d="M161.3,2.3c3.3-2,6.7-0.2,10.1-0.3c5.6,2.1,11.8,2.7,16.9,6.1c0.7,1.3,0.2,2.7-1,2.6
			c-8.6-0.6-17.3,2.3-25.8-0.7c-0.5-0.2-0.8-0.6-1.2-0.9C160.3,6.8,159.4,4.4,161.3,2.3z"/>
		<path class="st17" d="M160.3,9.1c7.8,2.6,15.8,0.4,23.7,0.9c1.7,0.1,3.8,0.7,4.3-2c1,1.3,2.4,2.4,2.7,4.2
			c-6.1-1.5-12.3-0.2-18.4-0.2c-4.5,0-8.9,0.6-13.3-0.8C159.6,10.5,159.9,9.8,160.3,9.1z"/>
		<path class="st18" d="M154.1,68.1c1.3,1,2.6,2,4,3c0.6,1.4,2.2,2.2,2,3.9c0.3,2.4-0.8,3.4-3.2,3.2c-2.3-3-4.6-6-6.9-9
			C150.9,67,152.6,67.6,154.1,68.1z"/>
		<path class="st19" d="M156.9,78.2c1.4-0.7,2.5-1.7,3.2-3.2c1.3,1.4,2.6,2.8,4,4.2c0.3,0.1,0.4,0.3,0.4,0.5s-0.1,0.4-0.1,0.4
			c0,0.3-0.1,0.6-0.2,0.9c-0.6,1.4-1.9,2.3-2.3,3.8c-0.2,0.4-0.5,0.7-0.9,1C159.8,83.2,158.4,80.7,156.9,78.2z"/>
		<path class="st20" d="M161.1,85.7L161.1,85.7c1.6-1.6,1.7,0.4,2.1,1c0.8,1.6,1.9,3.1,3,4.5c0,0.9-0.1,1.9-0.1,2.8
			c-2.4,3.6-3.6,1.2-4.9-0.9C161.1,90.6,161.1,88.2,161.1,85.7z"/>
		<path class="st21" d="M146.1,22c1,1.3,2.6,2.1,1.9,4.2c-0.7,2-2.3,2.1-4.1,1.8C144.8,26.1,143.9,23.5,146.1,22z"/>
		<path class="st22" d="M140.4,59.3c-1.1-2.8,1.2-4.7,1.8-7.1c3.8,1.5,0.8,5.1,2.3,7.3c-0.5,1.1-1.2,1.5-2.3,0.7
			C141.6,59.8,140.9,59.5,140.4,59.3z"/>
		<path class="st23" d="M142.1,42.1l-0.4,0.2h-0.5c0.2-4.4-1.3-8.9,0.9-13.1c0.7,0.6,1.4,1.3,2.1,1.9c-0.1,0.5-0.3,1-0.5,1.4
			C142.9,35.6,144.4,39.2,142.1,42.1z"/>
		<path class="st5" d="M154.1,68.1c-1.2,0.9-2.9-0.2-4.1,1.1c-1.3-0.6-1.4-2-2.1-3C150.6,65.2,152.9,65,154.1,68.1z"/>
		<path class="st5" d="M142.1,60.1c0.7-0.3,1.3-0.7,2-1l0.4-0.3l0.4,0.2c1.9,1.4,2.5,3,1.2,5.2C144.6,63,143.1,61.9,142.1,60.1z"/>
		<path class="st24" d="M364,16.2c0-2.3,0-4.6-0.1-7c10.3-0.2,20.5-0.3,30.8,0.1c8.4,0.3,16.9-0.3,25.4-0.3
			c16.6,0,33.2,0.1,49.7,0.1c0.4,2-0.8,3.9-0.7,5.8c-0.3,0.4-0.7,0.7-1.1,0.9c-4.1,0.8-8.2,0.9-12.2-0.3c-1.7-0.5-3.2-0.4-4.8,0.2
			c-2.2,0.5-4.5,0.9-6.8,1.1c-3.6,0.2-7.1-0.7-10.6-1.4c-4.6-0.4-9.3,0.5-13.9-0.5c-0.5-0.2-0.9-0.5-1.2-0.9
			c0.6-2.5,2.7-2.1,4.4-2.2c3.1-0.3,6.2,0.2,10.3-0.4c-4.5,0-8.1-0.1-11.7,0c-1.9,0.1-3.8,0.2-3.4,3c-0.7,1.8-2.4,2.5-4,2.3
			c-7.1-1-14.2,0.2-21.2,0c-2.5-0.1-5.3,0-7.4-2c-0.6-1-0.3-2.7-1.6-2.9c-5-0.8-10.1-1.1-15.1,0.3c-0.6,0.2-0.3,1.2-0.3,1.8
			c0.1,0.5,0,1,0,1.5c-0.2,0.5-0.5,0.9-0.9,1.2C366.4,17.3,365.1,17.2,364,16.2z"/>
		<path class="st9" d="M361,42.1c0.3,2.1-0.7,4-1,6c0.6,5.3-3.2,3.7-6.3,3.8c2.5-1.9,3.2-3.5,0.3-5.4c-2-1.2-2.4-3-1.4-5.2
			c0.3-0.6,0.4-1.3,0.2-2c-1-5.6,1.3-10.5,2.8-15.6c-1-1.1-1.3-2.5-1.8-3.8c-0.6-0.6-1.2-1.3-1.8-1.9c-0.4-1.8,0.4-2.4,2.1-2.1
			c1.4,0,2.9,0,4.3,0c1,0.5,1.3,1.4,1.5,2.4c1.2,1.9,1.2,3.7,0,5.6C359.6,30.1,360.3,36.1,361,42.1z"/>
		<path class="st14" d="M469.1,14.3c-2.9-2.2,0.2-3.4,0.8-5.1c0.2-0.3,0.5-0.4,0.8-0.3c0.3,0,0.6,0.1,0.8,0.1
			c4.2,0,8.4-0.7,12.6,0.6c1.6,0.3,3.6-0.1,4.1,2.1c0.5,2.1-0.9,3-2.6,3.6C480.1,15.3,474.5,16.7,469.1,14.3z"/>
		<path class="st25" d="M274.1,17c0,0.8-0.1,1.5-0.1,2.3c-1.9,1-3.8,1.1-5.8,0.6c-1.2-0.6-2.3-1.3-3.5-1.8c-0.4-0.2-0.7-0.5-0.9-0.9
			c0.3-0.9,0.8-1.8,0.9-2.7c0-3,1.6-4.7,4.4-4.8c3,0,4.7,1.9,4.7,5C273.8,15.4,274,16.2,274.1,17z"/>
		<path class="st26" d="M475.9,3.2c5.8-3.6,8-2.1,8.3,5.7c-0.3,0.5-0.8,0.8-1.4,0.7c-3.9-0.2-7.9,0.5-11.8-0.4l-0.3-0.3
			C472.4,7,474.3,5.1,475.9,3.2z"/>
		<path class="st27" d="M354.4,16c-0.9,0.5-1.9,1-2.1,2.1h-0.4h-0.4c-5.3,2.5-10.8,0.3-16.1,0.3c0.3-1.4,0.5-2.8,0.8-4.3
			C342.1,14.4,348.5,12,354.4,16z"/>
		<path class="st7" d="M284.1,20.1c-2.2-1,0.1-4.9-3.3-5c4.9-2.3,10.1-0.9,15.2-0.9c0,1.4,0,2.7,0,4.1C292.1,19.7,288,19,284.1,20.1
			z"/>
		<path class="st28" d="M263.9,17.1c0.3,0.1,0.7,0.1,1,0.2c-0.8,3.4-3.7,2.2-5.6,2.3c-14.1,0.2-28.2,0-42.3,0.1c-0.6,0-1.2,0-1.8,0
			c-0.7-0.2-1-0.6-1.1-1.3c0-0.4,0-0.8,0.1-1.2C230.6,17.1,247.3,17.1,263.9,17.1z"/>
		<path class="st29" d="M163.9,202.2c2.3-2.6,1.8-5.8,0.5-8.3c-1.9-3.9-1.3-6.9,1.7-9.8c0.7,4.4,1.5,8.7,2.1,13.1
			C168.6,201.5,167.1,203.2,163.9,202.2z"/>
		<path class="st30" d="M118.4,178c0.2,3.1,4.1,5.4,1.8,9c-1.8-2.5-5.7-3.2-6-7c0.3,0.1,0.6,0.1,0.9,0
			C116.2,179.3,117.2,178.5,118.4,178z"/>
		<path class="st31" d="M485.8,14.3c1-0.5,2.2-1.1,1.8-2.5c-0.5-1.7-2.2-1.6-3.6-1.7c-0.3-0.2-0.4-0.4-0.4-0.6
			c0.1-0.2,0.2-0.3,0.3-0.3l0.4-0.3c3.4,0.6,7.8-1.5,10,1c2.1,2.4-0.1,6.7,0.3,10.1c0.1,1.1-0.8,2.3,0.4,3.2c1,1.5,0.4,2.4-1.1,3
			c-1.9,2.1-1.7,6.2-5.9,6c-2.1-0.5-3.3-2-3.8-4.1c0-0.5,0.1-0.9,0.2-1.4c0.8-1.4,2.1-1.6,3.4-1.4c1.8,0.2,2.9-0.3,3.3-2.2
			c2.6-5.6-2-6-5.3-7.5C485.6,15.2,485.5,14.7,485.8,14.3z"/>
		<path class="st32" d="M493.8,26.2c0.4-1,0.7-2,1.1-3c3,0,6,0,9,0c0.1,0.3,0.2,0.6,0.3,0.8c-0.1,0.4-0.2,0.7-0.4,1.1
			C500.6,26.4,497.4,28.2,493.8,26.2L493.8,26.2z"/>
		<path class="st33" d="M118.4,178c0.1,2.7-1,3.4-3.4,2.1c-0.7-1.4-2.6-2.7-1.4-4.3c1.3-1.7,3-0.2,4.5,0.3
			C118.3,176.7,118.3,177.3,118.4,178z"/>
		<path class="st34" d="M156.4,28.4c-1.8-0.1-3.6-0.3-5.8-0.4c1.8-2.6,4-1.7,5.9-1.5c5.7,0.8,11.6,3,17,2.3
			c5.8-0.8,10.7,1.9,15.8,1.9c6.5,0,13.4,2.8,19.4-0.5c4.4-2.4,7.6-2.6,12.1-0.5c2.9,1.3,7,1.1,10.3,0.3c4.9-1.1,9.5-0.7,14.1,0.8
			c2.3,0.7,4.6,0.7,6.9-0.1c2.1-0.7,4.4-0.9,6.4-0.1c5.1,2.1,9.2-2,14-1.8c0.5,0,1.2-1.1,1.5-1.8c0.5-1.5,1.2-2.9,3.1-2.5
			c1.8,0.4,3.5,1.1,4,3.2c1.2,4.5,4.2,6.3,8.7,6.7c5.2,0.6,6,0,6.3-5.1c0.2-2.7-1.6-6.4,3.1-7.2c1.1-1,2.5-1.1,3.8-1
			c10.1,0.5,20.3-0.5,30.4,0.6c0.6-0.1,1.2,0.1,1.7,0.5c0,3.3-0.2,6.6,0.1,9.9c0.3,3.8-0.8,5.3-4.9,5.1c-8.4-0.3-16.9,0-25.3,0
			c-0.7,0.7-1.7,0.8-2.6,0.9c-32.6,0.5-65.1-1.7-97.7-3c-4.8,0.1-9.6-0.5-14.2-1.9c-0.7,0-1.5-0.1-2.2-0.1
			c-9.6-0.4-19.1-2.1-28.6-3.3C158.4,29.7,157.4,29.2,156.4,28.4z"/>
		<path class="st35" d="M238.4,78.2c-5.9-2.5-6.6-4.2-4.2-10.1c3,7.1,5.3,8,14.7,5.9c1.6-2.4,1-3.9-1.8-4.5
			c-1.7-0.2-3.4-0.1-5.1-0.1c-0.8,0-1.6,0-2.4,0c-1.9,0-3.9,0.1-5.5-1.3c5.6-2.3,11.4-0.6,17.1-0.9c1.8-0.1,1.8,1.6,1.8,3
			c0,1.7,0,3.3,0.1,5c0.1,1.2,0.8,1.7,2,1.7c1.2,0,1.7-0.7,1.9-1.9c0.2-1.4-0.3-2.6-0.9-3.8c-2.7-6.1-2.7-6.1,4.3-6.1
			c7.7,0,15.3,0,23,0c1.6,0,3.4-0.5,4.7,1c0.2,15.4-0.5,30.8,0.4,46.2c0,0.4,0.9,0.8,2,1.6c-4.1,0-7.6,0-11.1,0
			c3.4-1.9,4.1-4.1,0.8-6.8c-0.6-0.7-0.6-1.3,0-2c2.4-2.2,4.3-4,1.5-7.9c-2.1-3-1.7-7.3-1.5-11.1c-0.8-1-0.5-1.8,0.6-2.3
			c2.5,0.8,4.4,0.7,4.2-2.8c-0.1-1.8,0-3.5-0.1-5.3c-0.1-0.6-0.2-1.4-0.9-1.5c-1-0.1-1.3,0.8-1.4,1.6c-0.2,1.1-0.3,2.3-1,3.2
			c-4.9-1.4-9-4.1-12.9-7.2c-1.5-1.1-2.6-3.8-4.8-2c-2.1,1.6-1,3.9,0.3,5.8c1.4,2,2.3,3.9-1.2,4.7C254.4,80.1,246.3,80.5,238.4,78.2
			z"/>
		<path class="st36" d="M145.4,44.4c63.1,0,126.3,0,189.7,0C332.4,47,150.6,47.4,145.4,44.4z"/>
		<path class="st37" d="M268,19.1c2,0.6,4-1,6,0.1c0.9,1.6,0.6,2.6-1.4,2.6c-20.8-0.2-41.7-0.4-62.5-0.6c-0.3-0.3-0.4-0.7-0.3-1.2
			c0.3-0.6,0.9-1,1.5-1.2c1.3-0.5,2.4,1.1,3.8,0.6v-0.2c7.4-1,14.9-0.3,22.3-0.4c9.4-0.2,18.9,0.2,28.3-0.2
			C266.5,18.4,267.4,18.7,268,19.1z"/>
		<path class="st38" d="M303.3,37.2c0.5,0,1.1,0,1.6,0c8.1,1.3,16.2,0.4,24.3,0.6c2.9,0.1,5.7,0,8.6,0c0,0.5,0,1-0.1,1.4
			c-7.8,0-15.5,0-23.3,0c-25.4-0.1-50.8-0.3-76.3-0.5c-0.6-1-0.5-1.8,0.5-2.3c17.2,0,34.5,1.2,51.7,1.1
			C294.6,37.6,298.9,38.2,303.3,37.2z"/>
		<path class="st39" d="M341,116.2c-0.4,2.5-2.4,1.9-3.9,1.9c-13.7,0-27.5,0-41.2,0c-1.6,0-3.5,0.5-3.9-1.9c2-1.1,4.2-0.5,6.3-0.5
			c12.6-0.1,25.2-0.1,37.8,0C337.8,115.6,339.5,115.1,341,116.2z"/>
		<path class="st40" d="M193.1,59.1c-5.7,0-11.3,0-17,0.1c-2.4,0-4.9,0-7.3-0.1c-1.9,0-3.6-0.3-3.5-2.9c1.1,0.3,2,0.5,3,0.8
			c1.2-3.3,4.8-0.8,6.6-2.8c3.4-1.2,6.9,1.7,10.3,0c1.7,2.5,4.7,0.3,6.7,1.8C192.4,57.1,192.8,58.1,193.1,59.1z"/>
		<path class="st41" d="M238.1,37.3c0,0.5,0,1.1,0,1.6c-14.7-1.1-29.4-1.4-44-3.6c-1.4-0.2-3.6,0.8-3.8-2c4.5,0.3,9,0.6,13.6,1
			c9,0.7,18.1,0.5,27.1,1.5C233.4,36,235.9,35.6,238.1,37.3z"/>
		<path class="st42" d="M215.1,19.3c-1.4,1.6-2.7-0.6-4.1-0.1c-2.7,1.5-5.5-0.1-8.2,0.3c-3.1,0-6.1-0.5-9.2,0.1
			c-0.1,0.3-0.3,0.6-0.7,0.7c-2.2,1.2-4.5,0.6-6.8,0.7c-5.4-0.8-10.8-0.5-16.2-0.5c-1.2,0-3.1,0.5-3.1-1.4c0-2.1,1.9-1.2,3-1.4
			c3.4-0.6,6.9,0.5,10.3-0.6c3.1,2,6.1-0.1,9.2-0.1c8.3,0.2,16.6-0.9,24.7,1.2C214.4,18.7,214.8,19,215.1,19.3z"/>
		<path class="st43" d="M329,107.1c1.3,0.6,2,1.5,1.9,2.9c-1.9,1.6-4.1,1-6.2,1c-7,0.1-13.9,0.1-20.9,0c-5.8,0-6.4-0.9-5.1-6.9
			c2-2.1,5.3-0.1,7.4-2.1c0.3,0,0.6,0,0.9,0c2.3,1.8,5,1,7.5,0.8c2-0.1,3.8-0.2,5.4,1.2c0,0.3,0,0.7,0,1c-2.9,1.6-6.4,1.8-9.3,3.4
			c-2.2-0.5-3.8-2.8-7.3-1.4c3.3,0.3,5.6,1.2,8.1,1.4c4.2-1.2,8.4-1.7,12.5,0.5c1.5-0.2,3.6,0.8,4-1.8
			C328.4,106.8,328.6,106.8,329,107.1z"/>
		<path class="st44" d="M180.1,17.2c-3.9,2.1-8.4,0.1-12.5,2.4c3.8,0.2,7.6,0.3,11.3,0.6c2.4,0.2,5-0.9,7.2,0.9
			c-9.3,0-18.6-0.1-27.8-0.1c-1.4,0-2.9,0.3-3-1.6c-0.2-2.2,1.5-2.3,3-2.3C165.6,17.2,172.9,17.2,180.1,17.2z"/>
		<path class="st45" d="M300.1,104c-2,5.1-1.5,6.1,3.4,6.1c9.2,0,18.3,0,27.5,0c0.7,0.3,1.4,0.6,2.1,0.9c-6.5,1.3-13.2,0.2-19.7,0.6
			c-4.8,0.3-9.6-0.6-14.3,0.5c-1.6-0.7-2-2-2-3.6c0-4.1,0-8.2,0-12.3c0-4.5,1.8-1.9,3.3-0.9c0.3,0.7,0.3,1.4-0.5,1.8
			c-1.2,1.7-1.2,3.3,0.1,4.9C300.6,102.6,300.6,103.3,300.1,104z"/>
		<path class="st46" d="M333.8,22c-11.5,0-23,0-34.6,0.1c-0.6-0.5-1.6-0.9-1.7-1.6c-0.2-0.6,0.8-0.9,1.5-0.8
			c11.7,1.2,23.5-1.1,35.1,1.4c0.3,0.3,0.3,0.5,0.2,0.7C334,22,333.9,22,333.8,22z"/>
		<path class="st41" d="M156.4,28.4c8.9,2,18,2.5,27.1,3.8c1.6,0.2,3.3-0.3,4.7,1c-0.8,1.1-2,1.1-3.2,0.9
			c-9.5-1.2-18.9-2.5-28.4-3.8C153.1,29.9,155.9,29.1,156.4,28.4z"/>
		<path class="st47" d="M320,104.1c-3.1,0-6.2,0.1-9.3-0.1c-1.4-0.1-3.5,0.7-3.7-1.9c8.5-0.5,17-0.3,26.7,0.5c-2.8,2-5.1,1-7.1,1.4
			C324.4,104.5,322.3,102.4,320,104.1z"/>
		<path class="st48" d="M341,116.2c-16.3,0-32.7,0-49,0c1.4-1.8,3.4-1,5.1-1c14.7-0.1,29.4-0.1,44.1-0.2l0,0
			C341.1,115.3,341,115.8,341,116.2z"/>
		<path class="st49" d="M335.3,18.5c3.6-2.8,7.5,0.5,11.3-0.5c1.5-0.4,3.2,0.1,4.9,0.2c-0.4,3.5-3.5,2.1-5.4,2.7
			c-1.5,0.5-3.2,0.1-4.9,0.2c-2.1-0.2-4.7,0.7-5.9-2.1C335.3,18.8,335.3,18.6,335.3,18.5z"/>
		<path class="st40" d="M310.1,108c2.7-3,6.2-3.2,9.9-2.9c0,0.3,0,0.6,0,0.9c0.7,1.8,3.2,0.6,4,2.2c0,0.3,0,0.6-0.1,0.9
			c-4.7-0.1-9.4-0.1-14.1-0.2C309.8,108.5,309.9,108.2,310.1,108z"/>
		<path class="st50" d="M322,84.1c2.1,0.3,1.8,1.2,0.3,1.9c-2.3,1.1-4.2,2.1-4.5,5.2c-0.2,1.9-2.4,2.9-4.2,2.5
			c-1.7-0.3-3.5-1.3-3.5-3.6c0-3,0-5.9,0-8.9c3.9,1.8,1.5,5.4,2.4,8.1c0.3,0.7,0.6,1.3,1.5,1.4c0.4-0.1,0.7-0.2,1-0.4
			c1.3-2.8,2.6-5.7,6.3-6.2C321.5,84.1,321.9,84.1,322,84.1z"/>
		<path class="st51" d="M299,112.1c1.5-1.7,3.4-0.9,5.1-1c9.6-0.1,19.2-0.1,28.9-0.1c-0.5,2.3-2.3,1-3.4,1
			C319.4,112.1,309.3,112.1,299,112.1z"/>
		<path class="st52" d="M299.9,97.1c0.2-0.6,0.3-1.2,0.5-1.8c2.5,1.1,5.2-0.8,7.7,0.7c0.8,0.9,0.9,1.8,0.1,2.7
			C304.8,101.3,302,100.4,299.9,97.1z"/>
		<path class="st53" d="M322.1,75.9c3.7,2.8,0.7,5.5-0.1,8.2l0,0c-1.8,0.5-4.1,2.6-5.3-0.3c-1.5-3.4,2.4-4,3.9-5.8
			C321.1,77.4,320.3,75.6,322.1,75.9z"/>
		<path class="st50" d="M310,79.1c2.8-6,4.3-6.7,7-3c0.5,1.6-1.2,2.3-1.4,3.6c-0.2,0.4-0.5,0.7-0.9,0.9c-0.6,0.2-1.3,0.2-1.9,0
			C311.8,80.4,310.8,80,310,79.1z"/>
		<path class="st54" d="M284.1,20.1c3.5-3.6,7.8-1.9,11.9-1.8c-0.5,3.4-3.2,1.6-4.9,2C288.6,22.3,286.4,20.7,284.1,20.1L284.1,20.1z
			"/>
		<path class="st55" d="M315.1,80.2c-1.7-2.5,1.3-2.7,2-4.1c1.7-0.7,3.3-1.7,5-0.2c-1.4,1.5,1,1.3,0.9,2.2
			C320.4,78.9,318.1,80.9,315.1,80.2z"/>
		<path class="st56" d="M143.3,31.4c0.3-0.1,0.6-0.2,1-0.3c0.2,3.7,2.7,7.7-1.1,11C142.4,38.5,142.3,34.9,143.3,31.4z"/>
		<path class="st57" d="M191.9,56c-2.2-0.7-5.8,3.9-6.7-1.8C187.4,55,190.6,52.1,191.9,56z"/>
		<path class="st58" d="M144.9,59h-0.4l-0.4,0.1c-1.5-0.3-1.6-1-1.3-2.4c0.3-1.5,0.6-3.2-0.7-4.6c0.1-0.4,0.3-1.2,0.4-1.2
			c1.8-0.2,1.5,1.8,2.4,2.5C144.9,55.3,144.9,57.2,144.9,59z"/>
		<path class="st42" d="M210.1,20.3c0,0.3,0,0.6,0,0.8c-5.7-0.3-11.5,0.8-17.2-0.8l0.3-0.4c3.5-1.7,7.2-0.5,10.7-0.8
			C206.1,19.3,208.3,19,210.1,20.3z"/>
		<path class="st55" d="M310,79.1c1.1,0.1,2.3-0.2,3.1,0.9c0,0.3,0.1,0.5,0.1,0.8c-0.2,3.5,1.3,7.2-1.3,10.3c-2.3-3,0.6-7-1.8-10
			C310,80.5,310,79.8,310,79.1z"/>
		<path class="st59" d="M174.9,54.3c-1,3.7-4.9,0.7-6.6,2.8c-0.4-1.5-0.9-3,1.7-2.9C171.6,54.3,173.3,54.3,174.9,54.3z"/>
		<path class="st60" d="M300.1,104c-0.1-0.6-0.1-1.3-0.2-1.9c2.1,0,4.1,0,6.2,0C305.1,105.7,302.1,103.3,300.1,104z"/>
		<path class="st61" d="M319.9,100.5c-3.1-1-3.2-2.7-2.9-4.4c0.1-0.3,1.3-0.9,1.6-0.7C320.6,96.7,318.5,98.4,319.9,100.5z"/>
		<path class="st27" d="M335.1,19c1.4,2.3,4.3,0.3,5.9,2.1c-1.6,2.6-4.3-0.7-6,1.1c-0.4-0.1-0.8-0.1-1.3-0.2
			c0.1-0.3,0.2-0.6,0.3-0.9C334.4,20.4,334.9,19.7,335.1,19z"/>
		<path class="st62" d="M331.9,97.6c-0.5,0.5,0.9,2.1-1.2,1.9c-1.4-0.2-2-0.5-2-2c0-1,0-2.1,1.3-2.1
			C331.4,95.5,332.3,96.1,331.9,97.6z"/>
		<path class="st63" d="M327.3,97.5c-0.6,0.7,1.3,2.5-0.9,2.5c-1.5,0-1.5-1.4-1.7-2.6c-0.3-1.5,0.7-2.2,2-2.2
			C328.4,95.4,326.9,96.8,327.3,97.5z"/>
		<path class="st64" d="M143.3,31.4c0,3.6-0.1,7.2-0.1,10.8c-0.3,0-0.7,0-1,0C142.8,38.6,140.8,34.7,143.3,31.4z"/>
		<path class="st65" d="M354,20c2.7,0.3,1.9,2.2,1.8,3.8C352.5,23.8,352.4,22.3,354,20z"/>
		<path class="st66" d="M324,108.2c-4.4-0.3-4.4-0.3-4-2.2C321.4,106.7,324.3,104.8,324,108.2z"/>
		<path class="st7" d="M284,20.1c2.3,0,4.7,0.1,7,0.1C288.6,24.4,286.4,21.1,284,20.1z"/>
		<path class="st67" d="M308,98.8c0-0.9,0-1.8-0.1-2.7c0.2,2.1,3.3-1.5,3.1,1.6C310.9,100.5,309.1,98.6,308,98.8z"/>
		<path class="st40" d="M329,107.1c-0.4,0.1-0.7,0.1-1.1,0.2C328.3,106.5,328.6,106.4,329,107.1z"/>
		<path class="st68" d="M132.1,146.1c9-10.8,18.8-20.9,30.1-29.4c2-1.5,4.2-2.5,6.8-0.7c2.2,1.6,2.8,4.9,2.2,5.8
			c-2.1,3.1-3.3,6.8-6.7,9.1c-3.8,2.5-6.1,6.4-8.9,9.9c-5,6.4-6.6,14.3-11.3,20.5c-2,2.7-0.8,6.1-2.5,8.9c-1.3,2-1.8,4.5-2.6,6.8
			c-2.6,1.3-4.2,0.1-3.9-2.3c0.6-4.4-1.3-8.9,1.2-13.1c1.3-2.3,0.3-4.5-1.1-6.4C133.4,152.4,131.8,149.6,132.1,146.1z"/>
		<path class="st69" d="M132.1,146.1c1.8,3.1,2.6,6.7,5.1,9.5c1.6,1.9,2.6,4.6,0.2,7.2c-1.3,1.4-1.9,3.5-1,5.1c1.1,2,0.8,3.4,0,5.4
			c-0.8,2-0.2,4,2.8,3.8c-3.9,3.8-8.4,2.7-12.9,1.8c-1.5-0.3-2.4-1.6-1.9-3C127.6,166.1,128.4,155.7,132.1,146.1z"/>
		<path class="st14" d="M269.4,83.1c-1.8-1.3-3.6-2.6-5.3-3.9c1.3-2.1-1.1-2.3-1.8-3.4c-1.5-2.5-2.1-5.1,0.3-7.2s4.5-0.4,5.9,1.5
			c3.2,4.5,9.4,4.6,12.6,9c1.5,1.7,1.5,3.3,0,5c-0.8,0.4-0.9,1.2-0.9,2C276.9,83.4,274.5,78.3,269.4,83.1z"/>
		<path class="st14" d="M164.4,80c-0.2-0.2-0.3-0.5-0.3-0.8c0.1-2.3,0.5-3.1,3.6-3.6c5.7-1,11.3-1.1,16.9-0.4
			c5.9,0.7,11.9-0.6,17.6,1.8c1.8,0.7,4.3,0.3,6.4-0.2c1.8-0.4,2.9-0.2,3.5,1.6c-0.5,0.4-1.1,0.7-1.6,0.9
			c-9.2,0.7-18.4,0.1-27.6,0.3c-2.5,0.1-4.9-0.2-7.4,0.4c-2.4,0-4.9,0.8-7.1-0.8C166.9,79,165.6,79.3,164.4,80z"/>
		<path class="st70" d="M193.1,103c2.2,2.5,0.5,3.4-1.7,4.1c-2.1,0.6-3.4,1.6-3.4,4.1c0,2.7-2.4,3.7-4.5,3.6
			c-2.3-0.1-4.7-1.3-4.3-4.3c0.6-4.6-1.9-9.6,1.8-13.7c3.7,1.4,7.4-1.5,11.2,0.1c0.3,0.7,0.2,1.6-0.4,1.7c-5.8,1.6-5.6,6.3-5.6,10.4
			C186.9,106.1,186.9,106.1,193.1,103z"/>
		<path class="st71" d="M192.1,97.1c-2.2,0.5-4.5,0.8-6.6,1.4c-2.1,0.6-3.4,0-4.5-1.7c-1.1-1.2-3.1-2-0.2-3.6
			c5.2-2.9,10.5-1.9,13.3,2.9c-0.3,0.3-0.5,0.6-0.9,0.8C192.9,97,192.6,97.1,192.1,97.1z"/>
		<path class="st72" d="M211.1,78.2c0.3,0,0.6,0.1,0.8,0.1c-0.2,2.8-2.3,2.8-4.3,2.8c-12.1,0-24.1,0-36.2-0.1
			c-1.4,0-3.1,0.3-3.3-1.9c2.3-0.1,4.6-0.1,6.9-0.2c3.2-0.7,6.4-0.2,9.6-0.3c3.7,0.9,7.4,0.3,11.1,0.4c4.1-0.1,8.2,0.1,12.3-0.1
			C209.1,78.6,210.3,78.8,211.1,78.2z"/>
		<path class="st73" d="M192.1,97.1c0.3-0.3,0.5-0.6,0.8-0.9c2.3,3.9-2.3,4.4-3.5,6.5c1.2,0.5,1.9-0.5,2.9-0.5
			c0.3,0.3,0.5,0.6,0.8,0.9c0,0.2,0,0.4-0.1,0.5c-2.5,3.1-8.1,3.6-7.3,9.6C185.6,106.6,182.6,99.1,192.1,97.1z"/>
		<path class="st74" d="M166.3,91.2c-4.3,0.4-3.5-3.6-5.1-5.6c0.2-2.2-0.7-5,3.1-4.7C167.1,83.9,166.9,87.5,166.3,91.2z"/>
		<path class="st75" d="M280,105.1c0,0.7,0,1.3,0,2c-1.1,0.6-2.2,1.6-3.5,1.8c-1.7,0.4-3.5-0.2-4.2-1.9c-0.8-1.7,0.9-2.6,1.9-3.7
			c1.3-1.5,2.6-1.1,3.8,0.2C278.6,104.2,279.4,104.6,280,105.1z"/>
		<path class="st70" d="M192.4,102.1c-0.5,2.2-2.1,2.8-4,2.7c-1,0-1.2-1-1.2-1.8c0.1-2.1,1.9-2.5,3.4-2.9c2.3-0.5,2.7-2.1,2.4-4.1
			c0.4,0,0.8-0.1,1.2-0.1C194.6,98.4,193.4,100.3,192.4,102.1z"/>
		<path class="st76" d="M163.1,71.1c4.4-3.9,6-3.7,7,1C167.4,74,165.3,72.8,163.1,71.1z"/>
		<path class="st77" d="M416.9,54.1c-7.1,2.2-14.4,0.6-21.6,1c-3.7,0.2-7.6,0.8-10.8-2.2c-5.4-1.3-10.8-1.3-16.3,0
			c-1.5,0.2-2.3,2.8-4.2,1.6c-2-1.3-1-3.5-1.2-5.3c7.5-1.2,15-2.7,22.7-1.4c2,0.3,4.2-0.4,6.3-0.7c6.7,2.2,13.3,2.6,20,0
			c5.3,2.3,10.7-1,16,0.5c5,1.4,10-0.8,15,0.5c3.3-0.9,6.3,1,9.7,0.8c3.1-0.2,6.2-0.6,9.3-0.7c4.7-2.3,9.7-0.2,14.5-0.6
			c4.1-0.3,8.5,1,12.7,0c1.4-0.4,2.1,0.5,2.7,1.6c-0.4,1.9,1.1,4.4-1.2,5.7c-2.1,1.2-3.4-1.3-5.1-1.9c-5.4-1.3-10.8-1.3-16.3,0
			c-2.3,1.9-4.9,2.4-7.8,2.3c-5-0.2-9.9-0.1-14.9,0c-4.1,0.1-8.2,0.2-11.9-2.1c-5.2-1.4-10.4-1.4-15.6,0
			C418.3,53.2,417.4,53.2,416.9,54.1z"/>
		<path class="st78" d="M484.9,28.3c1,1.3,2,2.6,3,3.9c0.3,4.5-1.9,6.3-6.3,6.1c-3-0.2-5.9,0.1-8.9-0.1c-4.1-0.2-5.7-2.6-4.9-7
			c-0.3-2.2,1.2-3.2,2.9-3.9C475.5,26.9,480.4,25.6,484.9,28.3z"/>
		<path class="st79" d="M386.9,32.2c-0.4,4.6-2.8,6.7-7.6,6c-1.9-0.3-4,0-6-0.1c-6.9-0.1-8.6-2.8-5.4-8.9c1.4-2.9,4.1-2.4,6.5-2.5
			c2.8-0.1,5.7-0.3,8.5,0.4C385.3,28,386.9,29.5,386.9,32.2z"/>
		<path class="st80" d="M435.9,30.2c2,6,0.7,7.9-5.4,8c-2.5,0-4.9-0.1-7.4,0c-4.4,0.3-6.5-1.6-6.2-6c-1.1-3.3,1.4-3.9,3.5-4.9
			c4.6-0.6,9.3-0.8,13.9,0.1C435.5,27.9,436,28.9,435.9,30.2z"/>
		<path class="st45" d="M420,28.3c-1.1,1.2-3.2,1.7-3.1,3.9c-1.3,0.7-2.7,1.3-4.2,0.8c-8.5-2.6-17.1-1.5-25.7-0.8
			c-1-1.3-2-2.6-3-3.9c0.3-3,2.8-2.7,4.8-3c4.3-0.7,8.5,1,12.8,0.6c5.2,0.1,10.2,2.4,15.5,1.2C418.1,26.8,419.3,27.2,420,28.3z"/>
		<path class="st81" d="M435.9,30.2c-0.3-0.6-0.7-1.2-1-1.8c-0.4-0.5-0.4-1-0.1-1.6c1.6-2.1,3.9-2.5,6.2-1.9
			c6.7,1.6,13.4,0.9,20.2,0.4c2.8,1.5,6.1,1.4,8.9,3c-0.7,0.9-1.5,1.9-2.2,2.8c-7.5,0.4-15.1-2.4-22.7,0.8
			C442.3,33.2,439.4,28.9,435.9,30.2z"/>
		<path class="st82" d="M402,27.2c-4.4-0.2-8.8-0.4-13.1-0.6c-1.9-0.1-3.5,0.3-4.9,1.7c-5.3,0.3-10.7-1.1-15.9,1
			c-2-0.7-4.6-0.6-4.1-3.9c0.2-1.3,0.6-2.4,2.1-2.6c5.3,1.7,10.6-0.2,15.9,0c1.1,0,2.3-0.4,3.4-0.3c2.7,0.3,5.4,0.8,8.1,1.3
			c2.8,0.7,5.8,0.7,8.4,2C402.3,26.2,402.3,26.7,402,27.2z"/>
		<path class="st83" d="M411.9,47.2c-4.5,4.3-14.4,4.3-20,0c0.4,0,0.8-0.1,1.3-0.1c5.6-1.4,11.1-1.5,16.7,0.1
			C410.5,48.3,411.3,43.8,411.9,47.2z"/>
		<path class="st83" d="M461.9,48.2c-6.3,3.5-12.6,2.5-19,0c0.4-0.3,0.7-0.7,1.1-1c5.6-1.6,11.1-1.5,16.7-0.1
			C461.1,47.4,461.5,47.8,461.9,48.2z"/>
		<path class="st84" d="M493.8,26.2c3.3-0.4,6.6-0.7,9.9-1.1c0,1.1-0.1,2.1-0.1,3.2c-1.4,1.2-3.2,1.4-4.8,1.8
			C495.9,30.4,493,30.6,493.8,26.2z"/>
		<path class="st85" d="M460.8,47c-5.6,0-11.1,0-16.7,0.1c0-0.6-0.1-1.5,0.7-1.5c5.1-0.1,10.2-0.1,15.3,0
			C460.9,45.6,460.8,46.4,460.8,47z"/>
		<path class="st86" d="M409.8,47.1c-5.6,0-11.1,0-16.7-0.1c0-0.9,0.2-1.6,1.3-1.5c4.8,0,9.5,0,14.3,0
			C410,45.5,410.1,46.2,409.8,47.1z"/>
		<path class="st87" d="M393.8,42.7c5.1-1.8,10.1-1.8,15.2,0C404,42.7,398.9,42.7,393.8,42.7z"/>
		<path class="st88" d="M365.9,23.2c-0.7,0.7-1.3,1.4-2,2.1c-1.9-3-0.5-6,0.1-9.1c1.3,0,2.6-0.1,3.9-0.1c1.7-0.4,2,0.9,2.4,2
			c-0.1,1.2-0.9,1.5-1.9,1.7c-1.5,0-2.4,0.5-2,2.2C366.4,22.6,366.3,22.9,365.9,23.2z"/>
		<path class="st89" d="M360.1,24c0-1.9,0-3.7,0-5.6c0.5-0.4,0.9-0.8,1.4-1.3C362,19.6,363.4,22.3,360.1,24z"/>
		<path class="st31" d="M498.9,30.1c1.3-1.5,2.9-2.1,4.8-1.8c0,0.6,0,1.3,0,1.9C502.1,29.7,500.4,34.2,498.9,30.1z"/>
		<path class="st90" d="M469.3,52.9c3.5-2.3,13-2.3,16.3,0C480.1,52.9,474.8,52.9,469.3,52.9z"/>
		<path class="st90" d="M419.1,53c3.2-2.5,12.4-2.5,15.6,0C429.5,53,424.3,53,419.1,53z"/>
		<path class="st90" d="M368.3,52.9c3.4-2.3,12.9-2.3,16.3,0C379.3,52.9,373.8,52.9,368.3,52.9z"/>
		<path class="st5" d="M349.4,67.3c-1.6-3.2,2.5-7.6-3.4-8.9c1.7-1.6,3.9-1.9,4.4-0.4C351.4,60.9,351.9,64.2,349.4,67.3z"/>
		<path class="st91" d="M344.5,67c-0.5-1.9-1.2-3.3,0.4-4.4c0.2-0.1,1,0.2,1.2,0.5C347.3,64.8,346.4,65.8,344.5,67z"/>
		<path class="st6" d="M227.9,100c-2.7,1.7-4.8,1.2-7.3,0.6C223.8,98.2,223.8,98.2,227.9,100z"/>
		<path class="st6" d="M230.9,109.6c-2.4,3-4.6,3.1-7.3,1.5C225.1,110.1,226.6,109.8,230.9,109.6z"/>
		<path class="st82" d="M168.9,8.6c-1.3-0.2-1.8-1.1-1.7-2.1c0.2-1.6,1.3-2.7,2.9-3c0.9-0.2,1.7,0.6,1.7,1.4
			C171.6,6.8,170.3,7.8,168.9,8.6z"/>
		<path class="st92" d="M369.9,18.1c-0.7-0.7-1.3-1.3-2-2c0.1-0.4,0.2-0.9,0.2-1.3c5.3-2.2,10.8-0.4,16.2-1.2c0.6,0,1.1,0.2,1.6,0.6
			c7.2,2.5,14.5,1,21.8,0.7c3.4-0.2,7.1,2.8,10.2-0.7c0.3-0.4,0.7-0.5,1.1-0.5c0.1,0.2,0.1,0.4,0,0.6c5.3,0.7,10.5,0.7,15.8-0.1
			c2.8,1.6,6.2,0.8,9.1,2.1c0.6,0.6,1.8,0.1,2.2,1.1c-0.3,1.7-1.6,2-3,2.3c-1.2,0-2.4,0.1-3.6-0.1c-3.9-1.1-7.9,0-11.9-0.1
			c-6.1-0.1-12.2-0.2-18.4-0.7c-5.7-0.7-11.4-0.6-17,0.5c-1.3,0.1-2.6,0.1-4,0.1C382.3,20.2,376.1,18.3,369.9,18.1z"/>
		<path class="st93" d="M450.9,15.2c1.6-1.6,2.9-2.2,5.4-0.9c4,2.1,8.6,0.6,13,0.7c2.9-0.7,5.9-0.2,8.9-0.3c2,0.6,2.3,1.9,1.3,3.6
			c-6.1,2.1-12.3,1.7-18.5,1c-3.5-1.2-7.3-0.1-10.7-1.5C449,16.5,450,15.9,450.9,15.2z"/>
		<path class="st10" d="M385.9,14.2c-0.4,0-0.8,0.1-1.2,0.1c-5.5,0.5-11,0.6-16.5,0c-1-0.5-2.2-1.1-1.8-2.5c0.4-1.3,1.6-1.6,2.8-1.6
			c4.9,0,9.8-0.1,14.7,0C386.8,10.3,387.3,11.9,385.9,14.2z"/>
		<path class="st10" d="M419,13.7c-0.4,0.2-0.7,0.3-1.1,0.5c-2.2-3.1,0.1-3.8,2.4-3.9c4.3-0.2,8.6-0.1,12.9,0c1.2,0,3-0.2,2.9,1.7
			c-0.1,1.4-1.7,1.2-2.8,1.3C428.6,13.5,423.8,12.5,419,13.7z"/>
		<path class="st94" d="M478.9,15.4c-3.2-0.1-6.4-0.2-9.6-0.3c-0.1-0.2-0.1-0.5-0.2-0.7c5.5-0.7,11-0.3,16.6,0
			c0,0.3-0.1,0.5-0.1,0.8c-0.5,0.7-1.2,1-2.1,1.2C481.9,16.6,480.4,16,478.9,15.4z"/>
		<path class="st94" d="M368.3,14.3c5.5-0.7,11-0.4,16.5,0c-5.5,1.9-11,0.9-16.6,0.5C368.3,14.7,368.3,14.5,368.3,14.3z"/>
		<path class="st95" d="M434.8,14.2c-5.3,1.8-10.5,1.6-15.8,0.1C424.3,14.3,429.5,14.2,434.8,14.2z"/>
		<path class="st96" d="M450.9,15.2c-0.4,0.6-0.7,1.2-1.1,1.7c-1.2,1.3-2.4,1.3-3.8,0.3c-0.7-0.3-1.4-0.7-2.1-1
			C446.3,15.4,448.5,14.9,450.9,15.2z"/>
		<path class="st24" d="M483.8,9.2c0,0.3,0.1,0.6,0.1,0.9c-4.3-0.5-8.8,1.2-13-0.9C475.3,9.2,479.5,9.2,483.8,9.2z"/>
		<path class="st29" d="M268,19.1c-17.7,0-35.3,0-53,0c1.5-1.6,3.4-0.9,5.2-0.9c13.1-0.1,26.3,0,39.4-0.1c1.7,0,3.7,0.8,5.2-0.9
			C266.4,17.1,267.4,17.7,268,19.1z"/>
		<path class="st97" d="M470,28.3c-2.8-0.4-6.1,1.4-8.1-2.1c-0.3-0.3-0.5-0.7-0.6-1.2c0.1-0.5,0.3-0.8,0.7-1.2c3.3-0.4,6.6-0.2,10,0
			c3.9,0.3,7.8,0.1,11.6,1c1.1,0.4,0.8,1.5,1.2,2.2c0,0.4,0,0.8,0.1,1.2C479.9,28.3,475,28.3,470,28.3z"/>
		<path class="st93" d="M483.9,15.3c0.6-0.1,1.2-0.2,1.7-0.2c0.6,0.2,1.2,0.7,1.9,0.7c6,0.1,6.5,0.8,4.6,7.5
			c-0.2-0.1-0.4-0.2-0.6-0.2c-1.9-1.8-3.2-4.3-6.3-4.3c-0.5-0.1-1-0.1-1.4-0.3c-1.1-0.4-3-0.2-2.8-2C481.3,15,483.1,16.1,483.9,15.3
			z"/>
		<path class="st98" d="M484.8,27c-0.8-0.4-0.9-1.1-0.9-1.9c-0.5-1.7,0.9-2.3,1.8-3.2c2.2-0.4,4.3-0.7,6.1,1.2l0.3,0.1
			c0,3-0.8,4.6-4.2,3.1C486.9,25.9,485.8,26,484.8,27z"/>
		<path class="st5" d="M238.1,37.3c-9.8-0.8-19.5-1.5-29.3-2.3c-1.6-0.1-3.4,0.3-4.9-0.7c22.9-1.1,45.6,2.5,68.5,2.3
			c10.2-0.1,20.6,0,30.8,0.7c-9.2,1.6-18.5,0.6-27.8,0.6C262.9,38,250.6,37.5,238.1,37.3z"/>
		<path class="st99" d="M250.2,75c-3.9,2-8.1,1-12,0.8c-4.7-0.3-4.1-4.3-3.9-7.6l0,0c2,0,4,0,6-0.1c0.5,0.5,0.4,1.4,0.9,1.9
			c0.3-0.7,0.5-1.4,1.1-1.9c2,0.1,4,0.1,6.1,0.2C249.4,70.4,249.8,72.7,250.2,75z"/>
		<path class="st100" d="M281,84.1c0-1.7,0-3.3,0-5c0-1.3,0.1-2.6,0.1-3.9c1.6-1.4,3.3-1.4,4.9,0c0,2.4,0,4.9,0,7.3
			c0,1.3-0.2,2.7-1.5,3.3C282.9,86.6,281.8,85.5,281,84.1z"/>
		<path class="st101" d="M250.2,75c-2.8-1.6-2.1-4.2-1.9-6.7C251.9,69.7,251.8,72.1,250.2,75z"/>
		<path class="st14" d="M242.2,68.1c-0.3,1.7,0.4,3.6-1.1,6.2c-1.1-2.4-1.6-4.1-0.9-6.2C240.8,68.1,241.4,68.1,242.2,68.1z"/>
		<path class="st14" d="M286,75.2c-1.6,0-3.3,0-4.9,0c0-1.9,1.3-2.6,2.8-2.7C285.5,72.4,285.9,73.8,286,75.2z"/>
		<path class="st102" d="M210.1,20.3c-2-0.1-4-0.1-5.9-0.2c-0.5-0.8-2.6,0.1-2-1.9c3.1-0.8,5.9,0.7,8.9,1
			C210.6,19.6,210.4,20,210.1,20.3z"/>
		<path class="st103" d="M202.1,18.2c0.7,0.6,1.3,1.2,2,1.9c-3.6,0-7.3-0.1-10.9-0.1c-0.2-0.6-2.9-1.5,0-1.8
			C196.3,18,199.1,18.2,202.1,18.2z"/>
		<path class="st104" d="M310.1,108c-0.1,0.3-0.2,0.6-0.2,0.9c-2.2,0.7-4.4-1.1-6.7-0.1c-0.7,0.3-1.2-0.4-1.3-1.1
			c-0.1-0.8-0.3-1.9,0.8-2C305.5,105.5,308.8,103.8,310.1,108z"/>
		<path class="st105" d="M315.1,80.2c2.5-1.1,5.2-1.8,7.9-2c-0.8,0.6-1.5,1.1-2.3,1.7c-1.4,1-4.5,0.9-3.4,3.7
			c0.9,2.5,3.2-0.2,4.7,0.6c-3.8,1.4-4.8,5.1-6.9,7.9C312.9,88.1,312.9,84.1,315.1,80.2L315.1,80.2z"/>
		<path class="st55" d="M315,80.2c0,4,0,7.9,0.1,11.9c-0.5,0-0.9-0.1-1.4-0.1c-2.4-3.8-1.1-7.8-0.8-11.8l0.1-0.1
			C313.8,80.1,314.4,80.1,315,80.2z"/>
		<path class="st106" d="M313,80.1c0.3,3.9-0.7,7.9,0.8,11.8c-0.8,0.1-1.4,0-1.9-0.7C312.6,87.5,310.8,83.6,313,80.1z"/>
		<path class="st6" d="M185.1,79.2c-3.3-0.1-6.7-0.1-10-0.2c2.1-1.6,4.5-0.8,6.7-0.8c9.8-0.1,19.5,0,29.3,0c-0.8,0.3-1.5,0.7-2.3,1
			c-4.2,0.8-8.5,0.2-12.8,0.4C192.4,79.4,188.8,80.1,185.1,79.2z"/>
		<path class="st9" d="M182.3,112.5c-1.5-4.1-1.2-8.3-0.4-12.5C183.6,104.1,183.1,108.3,182.3,112.5z"/>
		<path class="st107" d="M196.1,79.2c4.3,0,8.5,0,12.8,0.1c-4.1,1.9-8.5,0.7-12.8,0.9c-0.3-0.2-0.5-0.4-0.3-0.6
			C195.9,79.3,196.1,79.2,196.1,79.2z"/>
		<path class="st108" d="M196.1,79.2c-0.1,0.3-0.1,0.6,0,0.9c-3.7-0.2-7.4,0.9-11-0.9C188.9,79.2,192.4,79.2,196.1,79.2z"/>
		<path class="st109" d="M402,27.2c0-0.3,0-0.7,0-1c2.3-3.6,6.7-1.8,9.6-3.8c1.5-0.3,2.9,0.2,4.3,0.8c5.5,2.5,11.7,0.5,17.3,2.5
			c0.8,0.3,2.1-0.1,1.8,1.5c0,0.4,0,0.8-0.1,1.2c-4.9,0-9.9-0.1-14.8-0.1C413.9,29.1,407.9,28.4,402,27.2z"/>
		<path class="st110" d="M434.9,27.2c-6.2-2.2-13-0.1-19-3c5.8-3.2,11.9-1.9,18-1.2c2.6,0.7,4.9-0.5,7.4-0.7c0.8,0,1.5,0.1,2.2,0.4
			c4.1,1.7,8.4,1.3,12.6,1.3c2,0,4-0.4,5.7,1c0,0.4,0,0.8,0,1.2c-7.1,1.4-14.3,1.9-21.4-0.2C438.4,25.4,436.8,26.4,434.9,27.2z"/>
		<path class="st111" d="M411.5,23.2c-2.4,3.4-6.7,1-9.6,3c-3-0.3-6-0.7-8.9-1c-3.1-1.9-4-4.1-1.1-7c6.1-1.1,12.2-1.8,18.3-0.2
			C413.1,19.1,413.9,20.7,411.5,23.2z"/>
		<path class="st112" d="M369.9,18.1c3.8-1.1,7.6-1.7,11.3,0.2c2.4,1.2,4.5-0.8,6.7-0.1c0.8,2.8-2.9,2.8-3.1,5c-6.3,1-12.7,2.5-19,0
			c0-0.3,0-0.7,0-1c-0.1-1.6,3-1,2.1-3.1C368.8,19.1,369.5,19,369.9,18.1z"/>
		<path class="st113" d="M384.9,23.2c-1.8-3.4,3.1-2.7,3.1-5c1.3,0,2.6,0,3.9,0c-0.5,2.5-1.6,5,1.1,7
			C390.3,24.5,387.6,23.9,384.9,23.2z"/>
		<path class="st114" d="M368,19.2c1.2,2.3-1,2.3-2.1,3.1c-0.9-0.6-2.2-1.1-1-2.5C365.8,18.8,366.6,17.6,368,19.2z"/>
		<path class="st115" d="M411.5,23.2c0.5-2,0.5-3.8-1.4-5.1c10.2,0.7,20.5-1,30.7,0.9c0.8,1.6-0.6,2-1.5,2.7
			c-2.1,0.3-4.1,0.7-5.4,2.7c-6-1.6-12-0.6-18-0.1C414.5,23.9,413,23.5,411.5,23.2z"/>
		<path class="st116" d="M446,17.3c1.3-0.1,2.5-0.2,3.8-0.3c4,0.4,8.2-0.4,12.1,1.2c0.8,1,0.9,2,0.1,3.1c-0.5,0.3-1.1,0.2-1.6-0.1
			c-4.7-1.1-9.5,0-13.9-0.6c4.3,0.8,9.1-1,13.6,0.9c-1.1,2.3-3.3,2.1-5.2,2.1c-3.8-0.1-7.7,0.6-11.4-0.6c-2.4-0.9-3.1-2.1-0.7-3.8
			C443.9,18.6,445,17.9,446,17.3z"/>
		<path class="st117" d="M442.9,19.2c-0.5,1-1.3,2-0.2,3.1c0.4,0.2,0.5,0.4,0.3,0.6c-0.1,0.1-0.3,0.2-0.4,0.2
			c-0.6,0.1-1.1,0.1-1.7,0.2c-0.6-0.7-2.4-0.2-2.1-1.9c0.7-0.8,1.3-1.5,2-2.3C441.6,18.3,442.4,17.7,442.9,19.2z"/>
		<path class="st118" d="M461.8,21.2c0-1,0.1-2,0.1-3c5.7,1.1,11.3-0.6,17,0c2.3,1.7,4.7-1.2,7,0c3.3,0.1,5.7,1.3,5.9,5
			c-2-0.3-3.9-0.6-5.9-0.8c-0.8,0.6-1.7,1.5-2.6,1.4c-3.9-0.6-7.6,0.2-11.4,0.5c-3.3,1.2-6.6,0.7-9.9-0.1
			C461,23.2,461.1,22.2,461.8,21.2z"/>
		<path class="st119" d="M485.9,18.1c-1.7,0.1-3,1.1-4.4,1.9c-2.3,1.4-2.3-0.5-2.6-1.9c0.5-0.9,0.8-1.9,0-2.8c1.7,0,3.4,0,5,0
			c-0.7,0.4-1.4,0.8-2.5,1.5C483,17.6,485,16.6,485.9,18.1z"/>
		<path class="st120" d="M461.8,21.2c0.1,1,0.2,1.9,0.2,2.9c-0.1,0.3-0.2,0.6-0.2,1c-4.7,0.5-9.5,0.6-14.2,0.4
			c-2.1-0.1-3.9-0.5-5.1-2.4c0-0.3,0-0.5,0.1-0.8c5.7-0.6,11.6,0.9,17.2-0.9c0.1-0.5,0.4-0.6,0.8-0.3
			C461.1,21.1,461.4,21.1,461.8,21.2z"/>
		<path class="st37" d="M472,24.1c4.3-3.6,9.4-0.9,14-1.8c0,1.5-1.5,1.8-2,2.8c-1.1,0.2-1.9,2.3-2.9,1.3c-2.5-2.5-4.8-1.7-7.4-0.5
			C472.5,26.5,472,25.2,472,24.1z"/>
		<path class="st121" d="M284.9,79.5c-0.9,1.1,0.8,3.1-1.2,3.4s-1.7-1.5-1.7-2.7s-0.3-2.9,1.7-2.8C285.3,77.5,284.8,78.8,284.9,79.5
			z"/>
		<path class="st37" d="M438.8,21.3c0.7,0.6,1.4,1.3,2.1,1.9c-2.2,1.1-4.5,1.3-6.9,1.1C433.8,20.4,436,20.4,438.8,21.3z"/>
		<path class="st122" d="M409.9,20.1c-2,1.1-2,1.1-5.4,1.1c-3.6,0-7.3-0.1-10.9-0.1c-0.1,0-0.2-0.3-0.2-0.4c0.1-0.3,0.3-0.5,0.5-0.7
			C399.3,19.6,404.6,19.3,409.9,20.1z"/>
		<path class="st123" d="M409.9,20.1c-5.3-0.1-10.7-0.1-16-0.2C399.3,18.6,404.6,18.4,409.9,20.1z"/>
		<path class="st124" d="M378.9,21.4c-0.2,0.9-0.5,1.8-1.5,1.2c-0.7-0.3-1.6-1-1.6-1.7c-0.1-1.3,1.2-1.4,2.1-1.4
			C378.9,19.5,378.9,20.6,378.9,21.4z"/>
		<path class="st125" d="M460.8,21.1c-0.3,0-0.5,0.1-0.8,0.3c-5.2,0-10.4,0-15.6,0c0-0.4,0-0.8,0-1.3
			C449.8,20.4,455.3,18.5,460.8,21.1z"/>
	</g>
</g>
</svg>
