<?xml version="1.0" encoding="utf-8"?>
<!-- Generator: Adobe Illustrator 25.0.0, SVG Export Plug-In . SVG Version: 6.00 Build 0)  -->
<svg version="1.1" id="Camada_1" xmlns="http://www.w3.org/2000/svg" xmlns:xlink="http://www.w3.org/1999/xlink" x="0px" y="0px"
	 viewBox="0 0 555.3 172" style="enable-background:new 0 0 555.3 172;" xml:space="preserve">
<style type="text/css">
	.st0{fill:#342E1E;}
	.st1{fill:#777054;}
	.st2{fill:#B4B2A3;}
	.st3{fill:#C3C2C0;}
	.st4{fill:#D8D7D3;}
	.st5{fill:#D3D1C3;}
	.st6{fill:#D3D2C6;}
	.st7{fill:#ECECE7;}
	.st8{fill:#766A46;}
	.st9{fill:#6C6443;}
	.st10{fill:#5E5538;}
	.st11{fill:#32322C;}
	.st12{fill:#8D8B78;}
	.st13{fill:#464740;}
	.st14{fill:#6D6E64;}
	.st15{fill:#B6A949;}
	.st16{fill:#939997;}
	.st17{fill:#A4994D;}
	.st18{fill:#56564D;}
	.st19{fill:#817B64;}
	.st20{display:none;fill:#F6F8F3;}
	.st21{fill:#6C6C62;}
	.st22{fill:#635535;}
	.st23{fill:#242014;}
	.st24{fill:#262115;}
	.st25{fill:#6E6958;}
	.st26{fill:#565346;}
	.st27{fill:#2B2923;}
	.st28{fill:#5E5D52;}
	.st29{fill:#55492F;}
	.st30{fill:#3A321F;}
	.st31{fill:#403F37;}
	.st32{fill:#26231B;}
	.st33{fill:#393427;}
	.st34{fill:#474540;}
	.st35{fill:#87877D;}
	.st36{fill:#C3BEA2;}
	.st37{fill:#D9DBD1;}
	.st38{fill:#62635A;}
	.st39{fill:#737266;}
	.st40{fill:#5F593D;}
	.st41{fill:#7F764E;}
	.st42{fill:#6D6647;}
	.st43{fill:#48412B;}
	.st44{fill:#676042;}
	.st45{fill:#453B24;}
	.st46{fill:#3C3320;}
	.st47{fill:#675A3B;}
	.st48{fill:#504B32;}
	.st49{fill:#423D29;}
	.st50{fill:#2B2619;}
	.st51{fill:#4E4932;}
	.st52{fill:#413B28;}
	.st53{fill:#7F7127;}
	.st54{fill:#746625;}
	.st55{fill:#483D26;}
	.st56{fill:#463E23;}
	.st57{fill:#685B22;}
	.st58{fill:#483D25;}
	.st59{fill:#746624;}
	.st60{fill:#7C6D2C;}
	.st61{fill:#585034;}
	.st62{fill:#6A5D23;}
	.st63{fill:#756628;}
	.st64{fill:#605B47;}
	.st65{fill:#908034;}
	.st66{fill:#564B1F;}
	.st67{fill:#C7CCC3;}
	.st68{fill:#615739;}
	.st69{fill:#BDAC44;}
	.st70{fill:#B9A43A;}
	.st71{fill:#F0E040;}
	.st72{fill:#A18B36;}
	.st73{fill:#C1B651;}
	.st74{fill:#81774C;}
	.st75{fill:#E5DC4C;}
	.st76{fill:#C9BA55;}
	.st77{fill:#F5F04E;}
	.st78{fill:#4A3F27;}
	.st79{fill:#141310;}
	.st80{fill:#535145;}
	.st81{fill:#22211D;}
	.st82{fill:#A6B3AA;}
	.st83{fill:#D9DED8;}
	.st84{fill:#656459;}
	.st85{fill:#170C41;}
	.st86{fill:#F0F3ED;}
	.st87{fill:#DFE4DF;}
	.st88{fill:#746949;}
	.st89{fill:#352E1C;}
	.st90{fill:#5C4E2E;}
	.st91{fill:#55482C;}
	.st92{fill:#907846;}
	.st93{fill:#7B683F;}
	.st94{fill:#8D7646;}
	.st95{fill:#A68A52;}
	.st96{fill:#4D4229;}
	.st97{fill:#CCA960;}
	.st98{fill:#52534B;}
	.st99{fill:#8D7647;}
	.st100{fill:#816C3F;}
	.st101{fill:#736139;}
	.st102{fill:#6C5A34;}
	.st103{fill:#A59768;}
	.st104{fill:#525044;}
	.st105{fill:#31302B;}
	.st106{fill:#706C5B;}
	.st107{fill:#31302A;}
	.st108{fill:#6B5C39;}
	.st109{fill:#474438;}
	.st110{fill:#B6A96F;}
	.st111{fill:#C7BA51;}
	.st112{fill:#615B3D;}
	.st113{fill:#8A8055;}
	.st114{fill:#9F8D30;}
	.st115{fill:#363020;}
	.st116{fill:#8D7E28;}
	.st117{fill:#947B48;}
	.st118{fill:#B59556;}
	.st119{fill:#514B32;}
	.st120{fill:#B8A93D;}
	.st121{fill:#958730;}
	.st122{fill:#E3DA49;}
	.st123{fill:#B09C36;}
	.st124{fill:#393322;}
	.st125{fill:#6B6241;}
	.st126{fill:#584B2F;}
	.st127{fill:#6E603C;}
	.st128{fill:#78663E;}
	.st129{fill:#927C4B;}
	.st130{fill:#AF9836;}
	.st131{fill:#D9C33C;}
	.st132{fill:#C5AE38;}
	.st133{fill:#6F654A;}
	.st134{fill:#D7C13B;}
	.st135{fill:#5E5232;}
	.st136{fill:#C4B037;}
	.st137{fill:#585135;}
	.st138{fill:#B49C36;}
	.st139{fill:#A89333;}
	.st140{fill:#8D7933;}
	.st141{fill:#302F2A;}
	.st142{fill:#3D3C34;}
	.st143{fill:#070607;}
	.st144{fill:#747365;}
	.st145{fill:#64665D;}
	.st146{fill:#2C1C5B;}
	.st147{fill:#4A3F26;}
	.st148{fill:#7A6B44;}
	.st149{fill:#302E26;}
	.st150{fill:#C0A05F;}
	.st151{fill:#C0C5BE;}
	.st152{fill:#685733;}
	.st153{fill:#907848;}
	.st154{fill:#C19F5B;}
	.st155{fill:#D5D8CF;}
	.st156{fill:#ACAFA4;}
	.st157{fill:#EADE43;}
	.st158{fill:#DBC43D;}
	.st159{fill:#F8E63F;}
	.st160{fill:#CBB33B;}
	.st161{fill:#E2CC3D;}
	.st162{fill:#685837;}
	.st163{fill:#B2B6AE;}
	.st164{fill:#55544A;}
	.st165{fill:#7B6840;}
	.st166{fill:#3F3F39;}
	.st167{fill:#4C4A40;}
	.st168{fill:#090808;}
	.st169{fill:#40413C;}
	.st170{fill:#0D0820;}
	.st171{fill:#141210;}
	.st172{fill:#342F23;}
	.st173{fill:#968B5A;}
	.st174{fill:#BFA937;}
	.st175{fill:#BAA137;}
	.st176{fill:#E6D13E;}
	.st177{fill:#947E36;}
	.st178{fill:#C7B039;}
	.st179{fill:#927D36;}
	.st180{fill:#B49D36;}
	.st181{fill:#E0CA3C;}
	.st182{fill:#C3AA3A;}
	.st183{fill:#F0DE3F;}
	.st184{fill:#CAB33D;}
	.st185{fill:#BEA061;}
	.st186{fill:#130B31;}
	.st187{fill:#ACAFA3;}
	.st188{fill:#AEB3AB;}
	.st189{fill:#E7D63F;}
	.st190{fill:#76643C;}
	.st191{fill:#9E8736;}
	.st192{fill:#5E5E53;}
	.st193{fill:#816E36;}
</style>
<g>
	<path class="st0" d="M400.9,61.2c1.2,0.6-0.2,3,1.9,3c0,2.3,0,4.7,0.1,7c-1,8.8,0,17.7-0.2,26.5c-0.1,2,0,3.9,0.1,5.9
		c-0.5,5.5,1.5,11.3-1.2,16.6c-2.1,2-4.1,2-5.6-0.6c-0.3-0.7-0.5-1.5-0.5-2.3c0.3-5.1-0.4-5.8-4.4-3.6c-10.5,5.9-22.1,9.3-33.2,14.2
		c-2.1,0.9-4.1,1.1-6.2,0.2c-0.3-0.2-0.5-0.6-0.7-0.6c-0.3-0.1-0.4,0-0.4,0.5c-0.5,4.9-3.6,6.9-8.2,5.5c-1.5-2.3-3.5-0.9-5.3-0.6
		c-2.1,0.2-4.1,1-6.3,1.2c-2.8,0.3-5.6,0.6-8.5,0.9c-3.5,0.4-6.6,1.9-7.6,5.5c-0.9,2.7-4.1,3.5-4.5,6.3c-0.4,1.2-0.8,2.5-2.3,2.7
		c-1.9-0.4-2.1-2-2.2-3.4c-0.2-4.7-2.1-9-2.9-13.5c-0.4-2,0-4.3-2.3-5.8c-1-0.7-0.9-2.1-0.7-3.3c1.4-12.7-0.1-25.4,0.8-38.1
		c0.2-2.3-0.4-5.1,2.4-6.5c2.6,1,2.6,3.3,2.7,5.4c0.1,7.1,0.6,14.2-0.4,21.4c-1,7.5,0.4,14.9,1.8,22.2c0.2,1.2,0.4,3,1.9,3.2
		c1.8,0.3,2.3-1.6,3-2.8c0.9-1.6,1.2-3.4,0.8-5.3c-2.3-12.4-3.1-25-3.9-37.5c-0.4-5.8-1.5-11.5-1.2-17.4c0.1-1.9-0.4-4.1,2-5.1
		c2.7,4.5,2.2,9.5,2.6,14.4c0.9,10.7,2.2,21.4,4.4,31.9c0.3,1.3,0.3,3,1.6,3.4c1.8,0.5,2.3-1.5,3.2-2.6c2.4-2.7,4.2-6.2,8.9-4.4
		c1.7,2.3,1.3,5,1.5,7.5c-0.1,0.8-0.7,1.4-1.2,2c-4.2,5.1-4.2,5.1,0.2,9.7c1.2,1.3-0.2,4.8,2.9,4.3c2.6-0.4,6.2,0.1,7.3-3.7
		c0.1-0.7,0.4-1.4,0.9-1.6c2.3-1.1,4.1-2.3,3.5-5.5c-0.6-3.5-2.8-4.4-5.7-4.9c-2.9-1.4-4.1-3.6-3.5-6.8c0.3-1.4,1.6-1.9,2.5-3
		c-1,0.5-1.8,1-2.8,1.1c-2-0.1-4,0.3-5.9-0.7c-3.3-6.5-1.7-9.3,5.5-9.5c2,0,4,0,5.9,0c2.6-1.1,1-3.4,1.1-5c0.4-2.4-1-4.7-0.8-7.2
		c0.2-2,1.4-3.9,0-5.9c-1.1-2.1-3.8-2.5-4.9-4.6c-0.6-1.3-1.1-2.6-0.4-4.1c0.8-1.1,4.7-0.9,1.5-3.7c-0.7-2.2-0.7-4.4-0.1-6.6
		c1.4-2.3,6.2-2.7,3.8-6.9c-0.3-0.9-0.6-1.7-0.5-2.7c0.1-0.7,0.4-1.3,0.7-1.9c0.6-1.3,0.6-3.1,1.8-4c4.4-3.2,1.8-5.6-0.9-8.1
		c-0.5-1-0.8-1.9,0.4-2.6c8.2,0.3,13.6,5.7,18.4,11.3c2,2.4,1.5,5.7-2.1,6.7c-2.5,0.8-2.7,2.8-3.9,4.5c-4.2,6.4-4.5,13.2-3.3,20.4
		c0.3,2.2-1.6,4-1.9,6.1c-1.8,10.6-2.4,21.2-0.8,31.9c1,6,2.1,6.8,7.5,4.4c10.1-4.4,21.1-5.9,31-10.7c1-0.5,2.2-0.7,3.4-0.9
		c6.2-1,8.5,1.7,7.5,6.3c-1.1-6,1.6-13.7-0.3-21.6c-2-8.5-1.7-17.2-0.2-25.7C398.8,62.9,398.6,61,400.9,61.2z"/>
	<path class="st1" d="M305.8,169c-0.6,1-1.3,2-1.9,3c-1,0-2,0-3,0c-0.7-0.9-1.4-1.8-2.1-2.7c-2.4-4.1-1.4-8.6-1.2-13
		c0.2-1,0.5-1.9,0.7-2.8c0.8-3,1.4-6.1,4.8-1.6c0.2,0.3,1.2-0.2,1.9,0.1c0.8,1.5,0.7,2.8-0.8,3.8c-1.9,1.9-1.2,4.6-1.8,6.9
		c1.1-2.1-0.6-5.2,2.4-6.6C307.3,160.2,306.3,164.6,305.8,169z"/>
	<path class="st2" d="M131.2,121.1c-0.2-0.1-0.5-0.2-0.7-0.3c-0.2-15-0.3-30-0.4-44.9c0.7-0.3,1.3-0.1,1.6,0.6
		c1,1.7,0.8,3.5,0.9,5.3c0.1,11.1,0.3,22.2,0.2,33.3C132.8,117.2,133.3,119.5,131.2,121.1z"/>
	<path class="st3" d="M402.3,104.2c-0.2-10-0.3-20.1-0.5-30.1c0-1-0.5-2.4,1.1-2.9c0.1,11,0.2,22,0.3,33c-0.2,0.3-0.4,0.4-0.6,0.3
		S402.3,104.3,402.3,104.2z"/>
	<path class="st4" d="M402.3,104.2c0.3,0,0.6,0,0.9,0c0.1,5.7,0.1,11.3,0.2,17c-0.6,1-1.3,2-1.9,3c-1.8-1-2.2-2.3-1.1-4
		C403.7,115.1,401.2,109.4,402.3,104.2z"/>
	<path class="st5" d="M298.3,1.3c0-0.3,0-0.7,0-1c7.3-0.1,14.7-0.1,22-0.2c0.3,0.7,0.1,1.2-0.5,1.6C312.6,2.9,305.4,4,298.3,1.3z"/>
	<path class="st6" d="M131,75.8c-0.3,0-0.6,0.1-0.9,0.1c0-3.3-0.1-6.7-0.1-10c0.3,0,0.7,0,1,0C132.9,69.2,133.3,72.6,131,75.8z"/>
	<path class="st7" d="M320.3,1.1c0-0.3,0-0.6,0-1c3.3,0,6.7-0.1,10-0.1c0,0.3,0,0.7,0,1C326.9,3,323.6,3.1,320.3,1.1z"/>
	<path class="st8" d="M244.8,159.8c-13.6-3.6-25.5-10.8-36.7-19c-4.2-3.1-9.2-5.5-11.5-10.6c1.5-1.4,1.5-1.4,3.8-1
		c-1.2-2-4.6-3-2.8-6.4c1.6-0.9,3.3-0.7,4.8,0.1c5.6,3,12,4.7,16.8,9.4c1.1,1.2,2.6,2.4,4.3,2.4c6.2-0.1,8.1,4.6,10.6,8.9
		c-0.2-1.6-1.3-3.3,0.3-4.7c1.5-1.3,3.1-0.9,4.7-0.3c1.6,0.6,3.2,0.9,4.9,1c0.5,0,1,0.1,1.5,0.2c4.1,1.1,8.5,0.5,12.3,2.5
		c0.5,0.6,0.6,1.4,0.4,2.1c-3.1,2.9-7.3,0.5-10.8,2.1c2,2.1,4.8,2.3,6.9,3.7c0.8,0.5,1.9,1.1,1.4,2.2c-0.4,1-1.5,1.1-2.5,1.1
		c-0.8,0-1.6-0.5-2.4-0.4c-0.7,0-1.4-1.6-1.8-0.1c-0.2,0.8-3.2,1.8,0,2.8c1.4,0.4,1.9,1.8,1.2,3.2c-0.7,1.4-1.9,1.1-3,0.6
		C246.4,159.3,245.6,159.3,244.8,159.8z"/>
	<path class="st9" d="M276.9,166.2c-8.2-0.6-16.5-0.9-24-4.9c-2.7-3.8-0.1-3.6,2.5-3.6c-1-0.6-2.7,0-3.5-1.8
		c0.6-2.2,3.4-1.3,4.6-2.9c0.4-0.3,0.8-0.5,1.1-0.7c1.6-0.7,1.4-2,1.2-3.3c-0.3-2,0.8-3.2,2.4-3.8c1.9-0.7,3.5,0.5,3.8,2.2
		c0.7,3,2,3,4,1.4c2.1-1.7,4.9-1.8,7.2-3.2c3.9-0.3,7.8-0.3,11.5,1.2c0.7,1.3,0.2,2.9,2.4,3.8c5.4,2,5.6,5.7,0.7,9.9
		c-1.8-4.2-4.8-4.7-8.6-2.8c-1.3,0.2-2-0.6-2.6-1.5c-1.8,0.2-3,1-2.8,3.1c0.7,0.8,1.6,1.2,2.5,1.5c1,0.4,2,0.7,2.7,1.6
		c-0.6,3.1-3.4,1.3-5,2.2C277.2,165.2,277.3,165.7,276.9,166.2z"/>
	<path class="st10" d="M291.1,160.2c1.4-1.3,0.3-3.2,1.3-4.6c2.4-3.3,0-4.1-2.4-3.9c-1.9,0.1-2.8-0.6-3.6-1.8
		c-0.9-1.5,1.1-1.7,1.5-2.6c0.7-1.3,1.9-2,3.2-2.5c3.7,1,5.3,4.5,8.2,6.6c0,1.2,0.4,2.5-0.4,3.7c0,4.8,0,9.5,0,14.3
		c-2-0.5-4-1-6-1.4c-2.1-0.7-4.3-1.4-5.4-3.4c-0.1-0.5-0.1-0.9,0.1-1.4C288.1,161.3,289,160.1,291.1,160.2z"/>
	<path class="st11" d="M156.7,127.7c-4,2.6-4.5,8.7-9.9,10c-2.3,0.1-2-1.8-2.3-3.1c-0.4-1.8,0-3.7-0.8-5.4c-2.6-2.4-6.1-2.3-9.1-3.7
		c-0.4-0.3-0.7-0.7-0.8-1.1c-0.4-0.5-0.8-1-1.2-1.6c-0.4-0.5-0.4-0.9,0.1-1.3c5.7-1.6,11.4-2.3,17,0.4c1.9,1.2,4.1,1.1,6.2,1.6
		C158.5,124.3,158.7,125.8,156.7,127.7z"/>
	<path class="st12" d="M132.7,121.8c0,0.4-0.1,0.7-0.1,1.1c-0.9-0.3-1.1-1-1.2-1.8c-0.1-15.1-0.2-30.2-0.3-45.3c0-3.3,0-6.6,0-9.9
		c0.7-2,1.3-4,1.9-6c2.9,0.4,1.4,2.5,1.4,3.9c0,2.8-1,5.6,0.8,8.2c1.2,8.8,0.1,17.7,0.7,26.5c0.1,3.3,0.3,6.7-0.2,10
		C133.5,112.7,134.9,117.7,132.7,121.8z"/>
	<path class="st13" d="M156.7,127.7c0.9-2.1,0.6-2.9-2-3.4c-1.6-0.3-4.4,1.5-5.1-1.7c0-3.2,2.5-2.3,3.7-2.4c1.2,0,0.5-1.1,0.6-0.5
		l-0.1,0c-1.4,0.2-3.3,1.4-2.9-1.6c3.3-2,6.6,0.3,9.9-0.1c4,0.1,8-0.2,12,0c3.9,1.1,8.3,0.9,10.7,5.1c-3.8,0.1-7.6,0.6-11.4,0.4
		C166.4,123.3,161.3,124.6,156.7,127.7z"/>
	<path class="st14" d="M134.7,124.8c3.4,0.5,6.7,1.6,9.9,3c-0.6,3.7-2.2,7.4-0.5,11.2c-5.2,1.8-6.9,1.1-9.5-4.2
		C134.8,131.5,135.9,128,134.7,124.8z"/>
	<path class="st15" d="M256.8,153.5c-0.2,2.8-2.9,1.4-4.3,2.6c2.6,0.9,6,0.9,5.9,5c-2.6,0.2-2.8-4-5.5-2.4c-1.1,0.6,0.1,1.8-0.1,2.7
		c-2.9,0.7-5.5-0.3-7.9-1.7c-0.1-0.9-1.4-1.7-0.5-2.6c0.8-0.8,1.4,0.1,2.1,0.6c0.9,0.7,2,2.7,3,0.9c1-1.8-1.2-1.7-2.3-2.3
		c-1-0.5-2.3-0.5-2.7-2.2c1.2-0.2,2.4-0.5,3.7-0.7c-0.9-1-2.5-0.2-3.1-2.1c2.9-0.5,5.3,0.3,7.7,1.3
		C253.9,153.8,255.7,152.4,256.8,153.5z"/>
	<path class="st16" d="M183.4,123.2c-3.1-1.9-6.4-2.8-9.9-3.8c-0.3-0.3-0.5-0.7-0.6-1.1c0-0.4,0.2-0.8,0.5-1.2
		c0.3-0.3,0.7-0.5,1.1-0.7c0.4-0.2,0.8-0.3,1.3-0.4c1.3-0.4,2.7-0.6,4-0.3c1.4,0.4,2.9,0.5,4.3,0.6c3.8,0.3,6.3,1.9,7.2,5.8
		c0.3,0.3,0.6,0.7,0.8,1.1C189.2,124.9,186.3,124.1,183.4,123.2z"/>
	<path class="st17" d="M287.8,164.1c1.7,1.3,3.3,2.6,5,3.7c-5.3-0.6-10.7-0.3-15.9-1.6c-0.3-0.6-0.7-1.3-1-1.9
		C279.8,163.7,283.8,162.6,287.8,164.1z"/>
	<path class="st18" d="M144,138.9c-2.9-2.9-2.8-7.6,0.5-11.2c2.8,2.9-0.6,7.1,2.2,10C146.1,138.6,145.2,139.1,144,138.9z"/>
	<path class="st19" d="M197.6,123.1c0.2,3.4,3.5,4.3,5.2,6.5c-1.9,2.8-4.2-1.8-6.1,0.5c-1.8-2-2.2-4.4-2-7c0.6-0.6,0.2-1.6,0.9-2.2
		c0.4-0.1,0.8-0.1,1.2,0C197.5,121.4,198,122.1,197.6,123.1z"/>
	<path class="st20" d="M134.7,124.8c3.3,3.4,2.4,6.7-0.1,10c-1.8-3.3-0.7-6.9-0.8-10.3C134.1,124.5,134.4,124.6,134.7,124.8z"/>
	<path class="st21" d="M192.1,123.2L192.1,123.2c-2.7-1.5-1.1-4.4-2-6.5c0.5-1.2,1.5-1.6,2.7-1.6c1.7,0.6,1.7,2,1.8,3.4
		c-0.1,0.9-0.4,1.6-1.2,2.1C191.9,120.9,192.6,122.3,192.1,123.2z"/>
	<path class="st22" d="M193.3,120.5c0.1-0.8,0.2-1.7,0.3-2.5c1.2-1-1.1-3.5,1.7-3.9c2.1,2.3,1.8,4.7,0.3,7.1c-0.1,0.8-0.2,1.5-1,1.9
		C194.2,122.3,193.8,121.4,193.3,120.5z"/>
	<path class="st23" d="M400.9,61.2c-3,9.1-2.8,18.5-0.8,27.8c2,9.3-0.2,18.2-1.5,27.2c0-1.1-0.1-2.2-0.1-3.4
		c-0.2-6.8-2.1-8.6-8.6-5.6c-11.1,4.9-23.1,6.5-34,12c-3.7,1.8-6.2,0.4-7-3.8c-1.1-5.7-2.8-11.3-0.8-17.1c0.2-0.4,0.3-1.1,0.1-1.5
		c-3.1-5.3,1.7-10.4,0.2-15.7c-0.1-0.3,0-0.8,0.1-0.9c5-4.8,1.6-10.4,1.4-15.7c0-2.1,0.4-4.2,1.6-5.6c2.3-2.5,3.7-4.9,3.3-8.4
		c-0.1-1.6,0.9-2.4,2.6-1.9c1.5,0.4,3.1,0.3,3.9-1.3c0.8-1.7,0.3-3.5-0.9-4.6c-5.2-4.6-10.5-9.4-17.7-10.7c-0.2-0.1-0.4-0.2-0.6-0.4
		c-2.3-3.3-6.1-3.5-9.5-4.6c-1.5-0.6-3.4-0.5-4.4-1.9c-1.3-1.9-1-2.8,1.5-2c15.8,3.2,29.4,11,42,20.6c6.3,4.8,12.1,10.3,18.3,15.3
		c2.9,2.4,5.8,6.1,9.8,1.4C400.1,59.6,400.8,60.4,400.9,61.2z"/>
	<path class="st24" d="M309.9,63.1c-2,3.2-0.9,6.8-0.8,10.2c0.5,10.1,0.8,20.3,2.4,30.3c1.1,6.4,0.1,13,2.6,19.3
		c1.5,3.9-1.1,7.4-3.8,10.1c-1.4,1.4-3.1,1.7-3.9-1.3c-2.5-9.4-3.5-18.7-2.6-28.4c0.7-8,1.3-16.2-0.8-24.2c-1.9-1.9-1.4-4.3-1.5-6.6
		c-0.2-15.7-0.3-31.5-0.4-47.2c0-2.1,0-4.2-0.6-6.3c0.1-1.4-0.2-3.2,2.2-3c4,3.2,8.7,4.1,13.7,4.3c-0.4,2.6-2.9,2.5-4.5,3
		c-3.2,1-4.4,2.9-4.1,6.1c0.2,3.5,0.6,6.8,2,10c0.6,1.2,0.8,2.5,0.4,3.9c-0.6,5.1-0.3,10.1,0.3,15.2
		C310.7,60.1,311.3,61.7,309.9,63.1z"/>
	<path class="st25" d="M320.3,1.1c3.3,0,6.6-0.1,10,0c13.6,0.9,27.3,1.7,40.9,2.6c1.8,0.1,3.7-0.2,5.3,0.7c-1,1.4-2.7,1-4.1,1.4
		c-10.6,2-20.9-1.3-31.4-1.2c-7.1,0.1-14.1-1.1-21.1,0.8c-14.2,1-28.4,1.9-42.6,3.2c-8.6,0.8-17.3,2.1-25.7,4.7
		c-7,2.1-14.1,3.5-21.1,5.2c-4.6,1-9,2.1-13.1,4.4c-5.8,3-6.4,2.9-10-1.2c-0.2-0.5-0.2-1,0.2-1.5c19.2-7.6,39.3-12.1,59.5-15.5
		c10.3-1.7,20.8-2.6,31.2-3.4C305.6,1.2,313,1.2,320.3,1.1z"/>
	<path class="st26" d="M216.5,22c4.4-2.8,9.3-3.6,14.2-5c7.7-2.3,15.7-3.1,23.1-6c4-1.5,8.6-1.6,12.9-2.2C281,6.6,295.5,5.5,310,5.1
		c3.1-0.1,6.1-1.7,9.2-0.1c0.7-1.3,1.8-1,3-1c9.8-0.5,19.5,0.6,29.2,0.9c1.9,0.1,5.5-0.4,2.8,3.7c-0.4,0-0.7,0-1.1,0
		c-3.7-0.8-7.6,0.4-11.3-0.5c-13.7,0.5-27.5-0.1-41.2,1c-23.1,1.9-45.5,6.4-67.8,12.5c-0.8,0.2-1.6,0.3-2.4,0.4
		c-3.3-0.5-6.5,0.8-9.8,0.9C219.2,22.9,217.7,23.4,216.5,22z"/>
	<path class="st27" d="M217.5,33.1c2,1.2,0.8,5.1,4.3,5.1c0.7,0.2,1.2,0.5,1.3,1.3c-0.4,1.9-0.8,3.8-0.1,5.7
		c0.1,1.1,0.4,2.2,0.8,3.3c0.2,0.7,0.3,1.4,0.4,2.2c0.1,2.9,0.3,5.7-0.6,8.5c-1.2,6-2.8,12-6.5,17.1c-1.6,1.5-2.4,4.1-5.2,4.3
		c-2.3-1.6-0.7-3.2,0-4.7c2.6-5.4,4.9-10.8,5.3-17c0.7-6.1,1-12.2-1.3-18.2c-0.8-2.1-1.6-4.2-0.9-6.5
		C215.4,33,216.2,32.2,217.5,33.1z"/>
	<path class="st28" d="M354.3,8.5c1.1-2.2-0.3-2.7-2-2.7c-11-0.1-22-1.4-33-0.7c0.2-1.7,1.4-2,2.9-2c14-0.1,27.9-0.4,41.7,2.5
		c2.8,0.6,5.5-1.9,8.5-0.9c0.4,1.8-1.3,2-2.1,2.9C365,9.4,359.6,8.5,354.3,8.5z"/>
	<path class="st29" d="M280.2,20.3c2-1,4.1-0.8,6.3-0.8c2.6,1.4,6.8-1.4,8.2,3.1c-0.8,1.9-2.6,1.8-4.1,2c-8.9,1-17.9,0.7-26.5,3.8
		c-2.6,0.7-5.6,0-8,1.7c-0.5,0.2-1,0.3-1.5,0.4c-0.8,0-1.6-0.2-2.2-0.7c-0.5-1.4-0.1-2.6,0.7-3.8c1.1-1,2.4-1.2,3.8-1.3
		c9.3-2.1,18.6-4,28.1-3.9C283.3,20.8,281.7,21.5,280.2,20.3z"/>
	<path class="st30" d="M308.6,40.1c-2.2-4.4-2.1-9.2-2.1-13.9c0-2.7,2.3-2.9,4-3.6c2-0.8,3.9-1.5,5.9-2.4c4.5,0.3,8.9,1,13.2,2.7
		c-0.9,0.3-2.4,0.6-0.7,1.6c1.3,0.8,3.1,1,4.6,1.5c2.1,2.5,0.3,2.8-1.6,2.5c-3.6-0.6-7.2-1.2-10.6-2.6c-11.6-1.6-11.5-1.6-11.1,8.1
		C310.3,36.1,310.2,38.4,308.6,40.1z"/>
	<path class="st31" d="M217.5,33.1c-0.8,0.1-1.5,0.3-1.9,1c-4-3.2-6.8-7.4-9.1-11.9c-0.4-0.7,0.3-1.1,1.1-1c2.7,2.9,5.7,3.4,9,0.9
		c3-0.4,6.1-0.6,9.1-1.3c2-0.5,3.4,0.1,4.9,1.2c-3,1.8-6.5,2.3-9.7,3.4C214.7,27.5,214.7,27.4,217.5,33.1z"/>
	<path class="st32" d="M256.5,25.6c-1.1,0.1-2.3-0.1-3,1c-1.4,1.5-3.4,2-5.3,2.7c-7,2.6-13.9,5.1-20.5,8.9c-1.5,0.9-3.1,2-5.1,0.9
		c-0.3-0.3-0.7-0.6-1-0.9c10.1-6.4,21-11,32.8-13.5C255.5,24.1,256.6,23.7,256.5,25.6z"/>
	<path class="st33" d="M256.5,25.6c-0.7-0.3-1.4-0.7-2.1-1c8.4-2.7,17-4.1,25.8-4.4c1.4,0.1,2.8,0.3,4.3,0.4
		C275,21.9,265.7,23.5,256.5,25.6z"/>
	<path class="st34" d="M370.2,7.6c0.7-1,1.4-1.9,2.1-2.9c1.4-0.1,2.8-0.2,4.1-0.3c2.2,0.7,4.4,1.4,6.8,1c0.5,0.9,2.7,0.2,2,2.2
		C380.2,7.8,375.3,5.4,370.2,7.6z"/>
	<path class="st28" d="M385.2,7.6c-0.7-0.7-1.3-1.5-2-2.2c4.8-0.2,9.2,1.3,13.8,2.2c-2,2.5-4.6,0.9-6.9,0.9
		C388.5,8.3,386.7,8.6,385.2,7.6z"/>
	<path class="st33" d="M294.5,22.4c-2.1-2.6-5.6-1.1-8-2.8c2.8-1.2,6.1,1,8.9-1.3c1.6-0.9,2.5,0,3.3,1.3c0.1,0.2,0.2,0.4,0.2,0.6
		c0.1,0.5,0,0.9-0.2,1.3c-0.3,0.3-0.7,0.6-1.1,0.9C296.6,22.7,295.5,23.3,294.5,22.4z"/>
	<path class="st29" d="M298.1,20.3c-0.8-0.9-1.3-2.2-2.8-2.1c2.4-0.9,4-4.5,7.4-2.3c-1.2,0.7-1.3,1.9-1.2,3.2
		C300.3,19.6,299.3,20.1,298.1,20.3z"/>
	<path class="st35" d="M390.1,8.5c2.3-0.6,4.8,0.8,6.9-0.9c1.4,0.4,2.9,0.3,4,1.9C397.4,9.2,393.7,10.1,390.1,8.5z"/>
	<path class="st28" d="M341.9,8c3.8,0.1,7.6-1.1,11.3,0.5C349.4,8.4,345.6,9.2,341.9,8z"/>
	<path class="st36" d="M133.9,70.8c-1.9-0.1-1.8-1.3-1.5-2.7c0.5-2.7,1.2-5.4,0.5-8.2c0.3-2.8,2.5-4.6,4.4-5.5
		c10.5-5.3,18.3-12.9,21.3-24.6c1.2-0.4,1.8,0.2,2.3,1.2c-0.4,4.7-4,8.1-4.4,12.8c-0.5,1.4-0.6,2.9-1.5,4.1
		c-4.2,2.4-8.4,4.6-12.4,7.3c-3.9,2.6-6.5,6.1-7.4,10.7C135.2,67.6,135.5,69.5,133.9,70.8z"/>
	<path class="st37" d="M160.6,30.7c-0.7-0.3-1.4-0.7-2-1c7.4-10.4,16.9-16.6,30-16.4c1.3,0,2.7-0.1,3.8,0.9
		c-1.3,1.8-3.1,0.5-4.5,0.6c1.9,0.5,4.2,0.3,6,1.3c2.2,1.3,2,2.4-0.5,3c-12.1-2.1-22.7,0.4-30.7,10.5
		C162.3,30.5,161.6,30.9,160.6,30.7z"/>
	<path class="st38" d="M207.6,21.2c-1.3,1.4,0.4,2.1,0.9,2.7c2.7,3.2,5.1,6.5,7.1,10.2c0.4,2,0.7,3.9,1.2,5.9c0.5,1.1-0.2,1.8-1,2.4
		c-0.5,0.1-0.9,0.1-1.4-0.1c-3.1-3.1-3.8-7.8-7-10.8c-0.3-0.9,0-1.8,0.1-2.7c-1.2-4.2-4.9-6.1-8-8.4c-1-0.7-1.9-1.7-1.1-2.9
		c0.8-1.1,2-0.9,3.1-0.2c2,1,4,2,6,2.9C207.4,20.5,207.4,20.8,207.6,21.2z"/>
	<path class="st39" d="M201.4,17.3c-0.8,0.2-1.9,0.1-2.3,0.6c-0.7,0.9,0.3,1.4,1,1.7c3.2,1.5,5.3,4.2,7.9,6.7
		c0.9,0.9,2.2,1.9,0.2,3.1c-1,0.2-1.8-0.4-2.4-1.1c-2-2.7-4.2-5.2-7.9-5.4c-1.5-0.4-3.2-0.4-3.8-2.3c0.1-0.7,1-0.6,1.2-1.2
		c-0.3,0.3-0.7,0.4-1.1,0.4c-0.7-0.2-1-0.6-0.9-1.3c0.2-0.4,2.3-0.1,0.5-1c-2.1-1.1-4.5-1.6-6.6-2.9c1.7-0.1,3.5-0.2,5.2-0.4
		C195.6,15,198.8,15.2,201.4,17.3z"/>
	<path class="st40" d="M400.3,120.1c0.4,1.3,0.7,2.7,1.1,4c-6.3-3.8-9.8,0.9-13.8,4.4c-7,6.4-13.8,12.9-21.9,17.9
		c-5.7,1.5-7.6,0.7-9.6-4c1.2-2.9,3.6-4.4,6.3-5.3c10.2-3.1,18.8-8.7,26.5-15.9c2-1.9,4.2-4.1,7.4-2.4
		C397.5,120.2,398.6,121.6,400.3,120.1z"/>
	<path class="st41" d="M346.1,157.8c-8.4,4-17,6.8-26.2,8c-2.5-1.7-5.5-1.8-8.2-2.9c-2.1-0.9-4.5-1.8-2.8-4.9
		c1.1-0.8,2.2-0.2,3.3,0.1c4.3,1.2,8.6,0.7,12.6-1.3c1.6-0.8,3.3-1.7,5.2-0.8c3.4,3,7-0.3,10.5,0.2
		C342.2,156.6,344.6,155.9,346.1,157.8z"/>
	<path class="st42" d="M346.1,157.8c-2-0.6-4.4,0.5-6.3-0.9c0-1.6,2.4-2.2,1.6-4.1c-0.4-1.5-0.1-2.6,1.3-3.4
		c1.6-0.4,3.2-0.2,4.9-0.1c6.7,0.3,7.7-0.8,6.7-7.5c0.3-0.7,0.8-1.2,1.5-1.4c1.3,0.3,1.5,1.1,0.9,2.2c1.6,4.4,5.8,3.2,9.1,4.1
		C359.9,151.2,353.3,155.2,346.1,157.8z"/>
	<path class="st43" d="M303.7,156.2c0.8-1.2,1.2-2.5,1-4c-4-3.9-6-13-3.9-17.9c0.6-1.3,1.5-1.6,2.8-1.2c2.6,5,2.3,10.8,4.2,16
		c0.9,0.8,1.2,1.9,1.3,3.1c0,1.9,0.2,3.9-0.5,5.8c-0.6,1.7,0.2,3.2,0.4,4.8c0.3,1.8,1.2,3.9-1.1,5.2c-0.7,0.4-1.4,0.7-2,1.1
		c-1.8-2.5-0.6-5.3-1-7.9C304.6,159.4,305.4,157.5,303.7,156.2L303.7,156.2z"/>
	<path class="st44" d="M307.9,167.9c0-3.3-0.1-6.6-0.1-9.9c0.2-0.1,0.3-0.2,0.5-0.3c0.2,0.1,0.3,0.3,0.5,0.4c-0.2,2.8,1.7,3.4,3.9,4
		c2.6,0.8,6,0.3,7.2,3.8C315.9,166.6,311.9,167.2,307.9,167.9z"/>
	<path class="st45" d="M338.8,56.8c0,2.7,0.1,5.3,0.1,8c-2.1,2.2-5,0.2-7.6,1.5c2,0.8,4.8-2,5.6,1.4c0.3,1.4,0.6,2.8,0.9,4.2
		c-0.6,0.7-1.4,0.8-2.2,1c-5,1.3-5.9,2.8-4.7,7.6c0.2,1,0.6,1.9,0.1,2.9c-2.5,5.8-7.1,10.4-9.8,16.1c-0.8,1.6-2.3,3.2-4.4,2.7
		c-1.9-0.5-2-2.6-2.1-4.1c-0.8-11.5-4-22.6-4.2-34.2c-0.2-6.4-1.5-12.8-1.4-19.2c2.9-0.4,3-0.3,3.5,2.9c1,5.3,1,10.9,4.1,15.8
		c4.3-3.5,7.8-7.8,13.2-9.7c2.6-0.1,5.2-0.6,7.6,1C338.2,55.3,338.7,56,338.8,56.8z"/>
	<path class="st46" d="M309.7,44.1c-0.5,11,1.6,21.9,2.7,32.7c0.4,4.4,1.1,9.5,3.1,14.1c1.3,2.9,0.2,6.9,1.1,10.8
		c5-2.1,4.7-7.9,8.3-10.6c2.8-2.1,2.3-6.5,5.8-8.2c1.9-0.1,3.2,0.8,3.6,2.7c-0.2,2.4-2.2,4.3-2,6.8c2.2,1.6,4.2,2.5,5.1-1.3
		c1.5-0.7,3.1-0.7,4.6,0.1c1.4,1.3,1.9,2.7,0.9,4.5c-2.3,0-4.6,0-7,0.1c-7.4,0.1-8,1.2-4.9,8c0.4,1.1-0.2,1.6-1.1,2
		c-4.5-0.5-6.5,2.7-8.2,6c-0.9,1.6-1.8,3.5-3.9,3.4c-2.4-0.2-2.2-2.8-2.5-4.3c-2.2-11.6-4.3-23.2-4.7-35.1c-0.1-4.3-1.5-8.5-1-12.8
		c-1.8-5.9-0.5-12.1-1.8-18c-0.3-1.4,0.4-1.8,1.5-2C310,43.4,310,43.8,309.7,44.1z"/>
	<path class="st47" d="M303.6,133.1c-0.9,0.7-2,0.9-2.1,2.7c-0.1,5.7-0.5,11.4,3.2,16.4c-0.8,0.6-1.5,1.2-2.5,2.1
		c-0.9-1,0.2-2.9-1.3-3.7c-2.1,0.9-0.3,3.6-2.1,4.6c0-1.4,0-2.7,0-4.1c-1.3-1.5-1.5-3.3-1.6-5.1c-0.4-17.6-0.2-35.2-0.7-52.8
		c0-0.5,0.2-1,0.3-1.5c1.5-3.7,2.1-7.6,2-11.6c-0.4-7.2,0.7-14.5-0.4-21.7c-0.4-2.9,1.5-6,0.2-9.1c-0.1-2.4-0.2-4.7,0.2-7.1
		c1.2-4.1,0.2-8.3,0.5-12.4c0.2-2.3-0.3-5.2,3.3-5.5c0.2,18.3,0.4,36.6,0.4,54.9c-1.9,7.3-2.5,14.9-1.5,22.3
		c0.9,6.9-1.1,13.5-0.1,20.2c0.2,1.6-3.7,5.1,1.8,4.5C303.3,128.5,303.5,130.8,303.6,133.1z"/>
	<path class="st48" d="M356.7,142.4c-0.1-0.8-0.3-1.6-1.1-2.1c-2.7-1.7-4.2-3.9-3.1-7.2c6.6-4.4,14.8-4.6,21.6-8.4
		c4.7-2.5,8.9-5.7,13.6-8.1c3-1.5,5.9-2.6,8.6,0.5c0,0.6,0.1,1.3,0.1,1.9c-6.1,0.2-8.2,6.2-12.8,8.6c-6.6,3.5-12,9.2-19.9,10.3
		C360.9,138.4,359,140.8,356.7,142.4z"/>
	<path class="st49" d="M396.3,117.1c-3.2-1.4-6.1-0.9-8.9,1.1c-5.5,3.8-11,7.4-17.2,9.9c-5.7,2.3-11.8,3.7-17.6,5.5
		c-1.7-1.8-2.6-3.7-1.1-6c5.5,0.9,9.5-3,14.3-4.4c8.9-2.6,17.1-6.7,25.4-10.9c1.5-0.8,3.4-2.9,5.4-1.2
		C398.5,113,396.4,115.1,396.3,117.1z"/>
	<path class="st50" d="M340.4,112.7c5.2-1.2,5.9,2.4,6.7,6.1c0.7,3.5-0.8,5.1-4.2,5.4c-0.4,0-0.8,0.9-1.2,1.4
		c-1.1,3.1-2.5,1.6-3.6,0.2c-3.2-4.3-3.2-4.3-7.4-1.1c-3.1-0.3-4.6-2.8-4.4-5.1c0.4-2.7,2.1-5.2,5.2-6c0.5-0.5,1.1-0.7,1.9-0.6
		c1,0,1.9,2.3,3.1,0.2C337.6,112.5,339,112.8,340.4,112.7z"/>
	<path class="st51" d="M351.5,127.6c0.3,2,0.6,4,1.1,6c0.3,2.6,2,4.6,3,6.9c-0.3,0.4-0.6,0.8-0.9,1.2c-2,2.6-5.3,3.2-7.7,5.1
		c-1.8,1.4-2.9-0.8-4.3-1.5c-1.8-0.5-3.8,0-5.6-0.9c-0.4-0.3-0.7-0.6-0.8-1.1c0.2-3.1,3.1-2.4,4.8-3.4c0.1-0.1,0.2-0.3,0.2-0.4
		s-0.2-0.3-0.3-0.4c0.4-2.3-1.6-3.3-2.5-5c1-2,2.4-2.7,4.3-1.2c5,0.8,5.2,0.4,6.6-10.1C350.8,124.2,351.1,125.9,351.5,127.6z"/>
	<path class="st52" d="M308.7,146c4.6-8.8,11.3-14.4,22-13.1c1,1,1.5,2.5,3.2,2.6c1.4,0.4,3.3,0,3.5,1.9c0.1,1.2-1.4,1.6-2.4,2.1
		c-1.3,0.6-2.7,1.1-4.1,1.2c-5.5,0.9-11.6,0.4-15.1,6.1C313.2,148.4,310.9,147.6,308.7,146z"/>
	<path class="st53" d="M334.1,85.8c-1.1-1-2.2-1.9-3.3-2.9c-1.8-2.6-2.5-5.3-0.8-8.3c1.9-3.3,4.9-2.8,7.8-2.7
		c1.7,1.3,4.1,1.6,5.1,3.8c0.6,1.4,0.9,2.7-0.3,4c-2.2-0.3-3-2.5-4.9-3.1c-1.6-0.5-3.6-1.1-4.1,1c-0.5,1.8,1.4,2.3,2.8,2.7
		c1.9,0.5,4-0.1,5.6,1.2c0.6,1.3,0,2.4-0.7,3.4C339.2,86.5,336.9,88.6,334.1,85.8z"/>
	<path class="st54" d="M333.4,113.8c-0.6,0-1.3,0-1.9,0c-1.7-2.5-0.9-5.3-1.2-8c0.4-0.7,0.7-1.3,1.1-2c1.6-1.3,3.3-0.3,4.9,0
		c0.8,0.5,1.6,0.9,1,2c-0.4,2.9,0.3,5.4,3.1,7c-1.1,1.4-2.6,0.7-4,1C335.4,114.8,334.4,112.9,333.4,113.8z"/>
	<path class="st55" d="M341.7,47.9c0.3,0.6,0.7,1.3,1,1.9c-1,1.9-0.9,4.8-4,5c-2.5-0.8-5.4-0.4-7.3-2.6c-0.9-1.9-0.4-3.6,0.6-5.2
		c1.8-1.7,3.6-3.4,5.7-4.7c2-0.4,3.9-0.2,3.2,2.5C340.6,46.1,341,47,341.7,47.9z"/>
	<path class="st56" d="M342.1,81.8c-1.8,0-3.7,0-5.5,0.1c-2.3,0.1-3.7-1.2-4.6-3.2c-0.5-1-0.4-1.9,0.4-2.7c1.7-1.6,3.7-1.5,5.6-1.1
		c2,0.5,3.2,2.2,4.3,4c1.2-1,0.5-2.2,0.7-3.2c1.8,2,0.9,4,0,6c-0.2,0.3-0.4,0.4-0.6,0.3C342.2,82,342.1,81.9,342.1,81.8z"/>
	<path class="st57" d="M330.5,124.8c0.4-2.7,2.1-4,4.8-4c2.6,0,3.2,1.7,3.4,3.9c0.1,2.2,1.2,2.6,2.9,1.1c0.8,0.2,1.9,0.1,2.2,0.6
		c0.8,1-0.4,1.3-1.1,1.5c-1.8,0.7-3.6,1.4-5.5,2C330.7,131.5,330.7,131.5,330.5,124.8z"/>
	<path class="st58" d="M343.6,33.8c1.3,1,2.7,1.8,3.8,2.9c1,1.1,1.7,2.9-0.2,3.6c-3.1,1.2-3.2,4.2-4.3,6.5c-2-1.2-0.3-5.1-3.7-5.4
		c-0.7-0.4-1.1-1-1.3-1.8c-0.3-1.6,0.1-3,1.2-4.1C340.4,34.7,342,34.3,343.6,33.8z"/>
	<path class="st59" d="M336.9,67.7c-2.8-2.5-4.2,0.5-6,1.8c-1.8-5.3-1.7-5.4,3.1-4.7c1.6,0.2,3.3,0,4.9,0c1.4,0.2,3.9,0.3,3.5,1.7
		C341.6,69.1,338.8,67.3,336.9,67.7z"/>
	<path class="st60" d="M332.6,136.7c-2-0.6-2.1-2.1-1.9-3.8c3.2-0.7,6.4-1.6,9.6-2.1c1.1-0.2,3.8-1.2,2.4,2c-1.7-0.2-3.2,0-4,1.8
		C337.1,136.6,334.3,134.9,332.6,136.7z"/>
	<path class="st61" d="M308.7,146c2.3-0.7,4.7,1.6,7-0.1c0.6-0.5,1.3-0.6,2-0.2c0.3,4.8-4.4,3.6-6.4,5.7c-1.1,0.6-2.1,1.2-3.4,0.7
		c0-1,0-2-0.1-3.1C308.9,148.3,308.7,147.1,308.7,146z"/>
	<path class="st62" d="M338.7,53.8c2.9,0.2,1.2-4.2,4-4.1c1.9,5.7,1.4,6.6-3.9,7c-0.3-0.3-0.7-0.7-1-1
		C338,55.1,338.3,54.5,338.7,53.8z"/>
	<path class="st63" d="M339.6,40.9c4.2,0.3,2.9,3.6,3.4,6c-0.4,0.3-0.7,0.7-1.1,1c-0.8-0.9-6.3,1.9-2-3c2-2.2-0.8-1.9-2.1-2.1
		C337.2,41.1,338.8,41.4,339.6,40.9z"/>
	<path class="st64" d="M342.1,81.8c0.3,0,0.6,0,1,0c0.4,4.6,1.8,9.2,0.9,13.9c0,0.1-0.2,0.2-0.3,0.2c-0.1,0-0.3-0.1-0.5-0.2
		c0.1-1.5-0.3-2.7-1-4c-1.8-2.2-1.4-4.7-1.1-7.2C341.4,83.6,341.7,82.7,342.1,81.8z"/>
	<path class="st65" d="M343.6,33.8c-0.3,2.6-2.4,2-4,2.1c-0.8-1.6-2.2-3.3-0.8-4.9c1.1-1.2,2.7-0.3,3.8,0.8l0.1-0.1
		C343,32.5,343.3,33.2,343.6,33.8z"/>
	<path class="st66" d="M337.3,105.7c-0.3-0.7-0.7-1.3-1-2c1.8-0.8,3.1-3.1,5.8-1.2C340.9,104.5,338.8,104.7,337.3,105.7z"/>
	<path class="st67" d="M303.7,156.2c-0.5,3.4,1.3,7.1-1,10.6C299.2,162.6,301.7,159.4,303.7,156.2L303.7,156.2z"/>
	<path class="st22" d="M197.6,123.1c-0.4-0.7-0.7-1.3-1.1-2c-0.3-3.7,0.6-7.7-3.1-10.4c-1.2-2.3-1.5-4.7-0.9-7.2
		c2.2-2.5,3.1-5.7,4-8.9c4.8-1.2,9.6-2.4,14.3-3.9c2.1,2,0.3,3.1-0.9,4.4c-1,1-2.8,0.9-3.9,2.3c1.9,2.3,3.9,2.9,6.6,1.6
		c3-1.4,6-2.9,9.5-2.6c2.1,0.2,2.4-1.9,3.6-3c1.4-1.2,2.9-2.2,4.6-3c0.5-0.1,0.9,0.1,1.3,0.4c0.3,1.8,0.7,2.5,2.8,1.2
		c2.9-1.8,4.5-1,4.7,2.5c0.2,3.8-0.3,7.6-3.4,10.7c3.2-1.4,5.3-4.5,8.5-5.3c5.6,0.6,6.2,1.2,6,6.2c-1.3,2-3.8,2.2-5.4,3.8
		c-2.1,0.3-1.8-1.3-2.2-2.5c-0.6,1.9-1.8,3.5-3.1,5c-2,2.1-2.5,4.7-1.6,7.4c0.9,2.7,2.3,5.2,5.6,2.1c0.6-0.5,1.2-0.4,1.7,0.3
		c1.9,2.1-1.6,5.7,2,7.1c2.4,0.9,5,1.1,7.7,1.2c1,0,1.9,0.3,2.7,0.9c0.8,2.4-1.4,2.3-2.6,3c-1,0.3-1.9,0.4-2.9,0.3
		c-1.9-0.2-3.8-1.4-5.7,0.2c-2,1.5-0.9,4.2-2.3,5.8c-1,0-2,0.2-3-0.1c-6.3-1.3-6.3-1.3-6.6,4.8c-1.7-2.4-3.2-4.5-4.8-6.6
		c-0.8-1.3-1.8-3-3.3-2.7c-4.7,1.1-6.9-2.5-10-4.6C210.5,127.6,204.5,124.4,197.6,123.1z"/>
	<path class="st68" d="M275.8,146.3c-3.6,2.6-7.2,5.1-11.8,5.2c-1-1.4,0.6-1.9,0.5-2.8c-0.2-1.6-1.2-3-2.8-2.6
		c-1,0.2-2.9,1.2-1.6,3.3c1.5,2.4,0.4,3.7-2.1,4.2c-4.2-4.8-4.3-5.4-0.3-9c0-0.7,0.1-1.3,0.1-2c-0.5-0.6-0.9-1.2-1.1-2
		c-0.1-1,0-2,0.5-2.9c3.1-2.3,5.7-1.9,7.9,1.3c0.6,0.9,1.3,2.4,2.6,1.2c5.1-4.5,6.6-0.2,8.5,3.2
		C276.6,144.5,276.5,145.4,275.8,146.3z"/>
	<path class="st69" d="M257.7,144.6c-3.2,3.1-1.3,6,0.3,9c-0.4,0-0.8,0-1.2,0c-1.4-0.2-3,0.5-4-1c0.6,0,1.3,0,3.5,0
		c-4.3-2-7.2-3.3-10.2-4.7c-0.8-0.4-2-0.9-1.5-2.1c0.3-0.9,1.3-0.9,2.1-1C250.3,144.7,254,144.7,257.7,144.6z"/>
	<path class="st70" d="M257.9,137.5c-0.1,1-0.1,2-0.2,2.9c-0.5,0.6-1.2,0.7-1.9,0.4c-4.2-4.8-4.8-4.9-9-2.1c-3-2.2-0.6,2.1-2,1.7
		c-0.3,0-0.6,0-0.8,0c-0.2-2.5-1.3-5.2,1.6-7c2-0.2,4.1,0.5,6.1-0.1c1,0,2,0,3,0C257.3,133.6,257.8,135.4,257.9,137.5z"/>
	<path class="st71" d="M255.4,140.4c0.8,0.1,1.5,0.1,2.3,0.2c0,0.7,0,1.4,0,2.1c-4.4-0.3-8.8-0.5-12.9-2.1c0-0.9-0.3-2.2,0.2-2.7
		c0.6-0.7,1.1,0.8,1.8,0.8C249.8,138,252.7,139.1,255.4,140.4z"/>
	<path class="st72" d="M275.8,146.3c-0.1-1-0.1-1.9-0.2-2.9c-1.1-4.9-0.2-5.9,6.3-7.1c0.6,0,1.1,0.1,1.6,0.2
		c3.2,0.7,6.5,1.3,7.8,4.9c0.4,1.4,0.5,2.7-0.6,3.9c-0.2,1.9-1.6,2-3.1,2.2C283.8,147,279.8,146.6,275.8,146.3z"/>
	<path class="st73" d="M291.1,160.2c-1,1-2,2-3,3c-2.3,0.6-4.4,0.2-6.5-0.9c-1.1,0-2.1-0.1-2.9-0.9c0.7-1.1,1.9-1.4,3-1.7
		c1.1-0.1,2.3,0.4,3.4-0.2c-1.9,0.5-3.3,0.2-3.3-2.1c1.5-3.1,4.1-2.1,6.5-1.8C291,156,290.9,158.2,291.1,160.2z"/>
	<path class="st74" d="M281.9,157.3c1,0.4,1.3,3,3,0.9c1-1.2,2-1,2.9-0.1c0.3,0.3,0.6,1,0.4,1.3c-0.5,1.1-1.7,0.8-2.6,0.9
		c-1.3,0.1-2.6,0.1-4,0.2c-1.6,0.6-3,0.4-4.2-1c-0.8-2.4,1.2-3,2.5-4.2C280.6,155.9,281.3,156.6,281.9,157.3z"/>
	<path class="st75" d="M281.7,162.3c2.2-0.1,4.5-0.4,6.5,0.9c-0.1,0.3-0.2,0.6-0.3,0.9c-4,1.1-8-0.4-11.9,0.2
		C277,161.2,280.4,164.9,281.7,162.3z"/>
	<path class="st76" d="M279.9,155.2c0.5,1.9-2.4,2.1-2,4c-0.7,0.4-1.8-0.4-2,0.9C274.7,157,276.3,154.8,279.9,155.2z"/>
	<path class="st77" d="M275.9,160.2c0.1-0.6,0.1-1.3,0.2-1.9c0.6,0.3,1.2,0.6,1.9,1c1.2,0.4,2.5,0.8,3.7,1.2
		c-0.7,1.2-1.9,0.6-2.9,0.9C277.9,161,276.8,160.5,275.9,160.2z"/>
	<path class="st78" d="M290.8,145.2c0-1.3-0.1-2.7-0.1-4c-0.2-2.1-0.9-4-1.3-6.1c-0.1-0.7-0.1-1.4-0.1-2c-0.1-1.1,0.1-2.3-0.1-3.5
		c-0.7,1.3-0.3,2.8-1.3,3.9c-2.6,1.4-4.4,0.7-5.3-2.1c-0.3-0.9-0.1-2.1-1.6-2c-1.1,0.2-2-0.1-2.8-0.8c-1.1-1.1-2.9-2.2-2.4-4
		c0.5-1.6,2.4-1.4,3.9-1.5c2.2-0.1,4.3,0,6.5-0.2c5.2-0.2,2.3-4.2,3-6.4c0-1.2,0-2.3-0.2-3.4c-0.5-1.7-2.3-2.6-2.5-4.4
		c-1.2-3.5,2.1-5.3,2.9-8.1c1.3-5.1,2.4-10.3,3.8-15.4c0.6-2.1,0.8-5,4.4-3.8c1.6,3.2,1.1,6.6,0.9,10c-1.6,2.7,0.2,5.5,0.1,8.2
		c0,17.2,0.2,34.5,0.4,51.8C294.3,151.6,294.1,146.3,290.8,145.2z"/>
	<path class="st79" d="M150.4,118.7c1,1.4,2.7,0.6,4.3,1.5c-2.1,0.6-4.4,0.1-5.3,2.5c-5.5-2.2-11.3-0.3-16.9-0.8
		c-0.4-4.5-0.7-8.9,1.7-13c2.2-2.5,3.4-0.7,4.7,1c0.7,3.5,2.3,6.1,6.5,6.1c1.4,0,2.7,1.2,4,1.9C149.9,118,150.2,118.3,150.4,118.7z"
		/>
	<path class="st80" d="M133.9,70.8c0.1-1.9,0.2-3.9,0.2-5.8c1.6-0.2,1.9,1,2.4,2.1c0.3,4.3,1.9-1.1,2.6,0.3c2.1,0.4,3.7,1.4,4.5,3.5
		c0.2,3-1.4,5.3-2.8,7.7c-1.9,3.1-3.1,6.4-3.7,10c-0.7,2.2-0.5,4.4-0.6,6.7c-0.2,1.5,0.1,3.4-2.2,3.6
		C134.2,89.5,134.1,80.2,133.9,70.8z"/>
	<path class="st81" d="M134.3,98.9c2.2-3.4-0.4-7.6,1.9-11c1.9-0.5,2.6,1.8,4.4,1.7c2.6,0.5,5,1.4,5.3,4.3c0.4,3.9-3.5,4.3-5.5,6.3
		c-1.9,2.9,0.6,6.8-2,9.6c-1.3-0.6-2.4-2.2-4.1-1C134.3,105.5,134.4,102.2,134.3,98.9z"/>
	<path class="st82" d="M150.4,118.7c-0.3-0.1-0.5-0.2-0.8-0.3c-0.3-0.7-0.1-1.2,0.6-1.6c6.9-1.5,13.9-0.6,20.8-0.7
		c1,0,1.9,0.5,2.5,1.4c0,0.3-0.1,0.6-0.1,0.9c-4.3,1.1-8.7-0.4-12.9,1C157,120,153.9,117.7,150.4,118.7z"/>
	<path class="st83" d="M160.5,119.5c4.2-2.2,8.6-0.6,12.9-1c0,0.3,0,0.6,0.1,0.9C169.1,119.4,164.8,119.5,160.5,119.5z"/>
	<path class="st84" d="M149.9,117.4c-0.1,0.3-0.2,0.7-0.2,1c-3-0.2-5.6-1.8-8.6-2.4c-2.6-0.5-2.4-3.9-2.6-6.3
		c0.6-3.7-1.2-7.5,0.8-11.1c0.2,0.2,0.4,0.4,0.6,0.5c1.4,2.8,0.8,5.8,1,8.6c0.3,5.4,0.4,5.5,5.1,4.9c7.5-0.2,15.1-0.5,22.6-0.6
		c1.8,0,3.6,0.1,5.3-0.9c0.5-0.2,1-0.2,1.5,0c1.7,1.9,1.6,3.8,0.1,5.7c-0.3,0.1-0.6,0.2-0.9,0.3c-0.4-0.3-0.9-0.6-1.4-0.8
		c-7.1-0.2-14.2,0-21.2,0.1C151.2,116.8,150.5,117,149.9,117.4z"/>
	<path class="st85" d="M175.4,117.1c0-1.9,0.4-3.9-0.9-5.7c-1.8-3.9-0.6-7.7,0.3-11.5c0.3-2,2.1,1.4,2.3-0.7
		c0.2-1.7-0.5-4.4,1.8-4.5c2-0.1,1.8,2.8,2.5,4.4c0.5,5.2,0.8,10.5,0,15.7c-0.2,0.6-0.6,1-1.1,1.4c-0.3,0.1-0.6,0.2-0.9,0.3
		C178.1,116.6,176.7,116.8,175.4,117.1z"/>
	<path class="st86" d="M190.2,116.4c2.1,1.9,0.7,4.7,1.9,6.9c-0.8-0.2-2.2-0.3-2.3-0.5c-0.4-6.5-5.5-4.8-9.3-5.5
		c-0.4-0.1-0.8-0.6-1.1-0.8l0.2-0.3c3-1.3,6.1-1.5,9.3-0.8C189.4,115.5,189.8,115.9,190.2,116.4z"/>
	<path class="st87" d="M174.5,116.4c0.1,0.3,0.1,0.6,0.1,0.9c-0.3,0.1-0.7,0.2-1,0.3c-7.9,0-15.8,0-23.6-0.1
		c0.2-0.3,0.4-0.6,0.6-0.9C158.5,115.8,166.5,115.6,174.5,116.4z"/>
	<path class="st88" d="M194.4,111.3c4.6,2.5,2.7,6.4,2,9.9c-0.3,0-0.7,0-1,0c-0.4-2.3,0.8-4.9-1-7.1
		C193.6,113.2,193.6,112.3,194.4,111.3z"/>
	<path class="st89" d="M194.4,111.3c0,1,0,1.9,0,2.9c-0.4,1.3,0.5,2.8-1,3.8c-0.1-1.1,0.1-2.3-1.1-2.9c-0.3-0.2-0.5-0.3-0.8-0.5
		c-1.5-1.6-1.8-3.5-1.8-5.5c0.2-5.7-0.8-11.5,0.4-17.2c0.7-1.4,2.1-1.8,3.3-2.3c3.4-1,6.6-2.3,10-3.3c4.1-0.3,7.4-2.4,10.6-4.7
		c0.9-0.7,1.7-1.5,2.6-2.2c4.3-3.2,6.8-8.1,11.2-11.2c1.8-0.9,3.6-2.9,5.7-1c2,1.9,0.5,3.9-0.2,5.8c-0.5,1-1.1,2.1-1.7,3.1
		c-0.4,0.6-0.9,1.1-1.4,1.5c-2.4,2-3.9,5-6.9,6.4c-4.3,2-7,6.7-12.1,7.1c-4.6,2.8-9.5,4.4-14.9,4c-0.4,0.8-2.4-1.7-2,1
		c0.4,2.4,0.3,4.8-0.8,7C193.1,105.9,193.6,108.6,194.4,111.3z"/>
	<path class="st84" d="M190.2,116.4c-0.3,0-0.5-0.1-0.7-0.3c-3-1.2-6.3,0.7-9.2-0.9c0-5.6,0.1-11.2,0-16.8c-0.4-2.5-1.3-4.9-0.7-7.4
		c2.9-0.2,3-0.2,3.1,2.7c0,4,0,7.9,0.1,11.9c0,1.6-0.2,3.3,0.5,4.8c2.2,0.5,2.7-1.8,4.2-2.2c3,1.2,1.5,5.8,5,6.6l0,0.3
		C192,116.1,191.1,116.2,190.2,116.4z"/>
	<path class="st90" d="M342.5,31.9c-1.1-0.1-2.2-0.2-3.9-0.4c1.3,1.5,2.2,2.9,0.9,4.4c-0.3,1.3-0.7,2.7-1,4c-0.6,0.6-1.3,1-2,1.5
		c-4.4,4-4.4,4-6.9-0.6c-0.1-0.2-0.6-0.1-1-0.2c-0.8-0.3-1.6-0.7-1.8-1.6c-1.5-5-3-10-6.6-14c0.4-0.5,0.8-0.6,1.2-0.1
		c3.4,1.2,7.2,0.9,10.6,2.6c1.6,0.8,2.1-0.1,1.5-1.6C336.6,27.7,342.2,25.9,342.5,31.9z"/>
	<path class="st91" d="M321.5,25c-0.3,0-0.7,0-1,0c-6.4,1.5-8.7,4.7-5.7,11.2c0.8,1.9-1.3,4.6,0.1,7.2c1,2,2.1,2.8,4.2,1.7
		c3-1.5,6-2.8,9.3-3.5c1.1,2,3.7,2.7,4.3,5.2c-0.3,1.7-0.7,3.4-0.9,5.1c-0.4,1.1-1.4,1.8-1.9,2.9c-4,3.3-9.6,4.8-11.3,10.4
		c-0.5,1.6-1.9,1.5-2.4,0.1c-1.1-3.1-3.6-5.6-3.4-9.2c0.3-3.5-2.4-6.7-1.4-10.4c0.1-0.4-1.1-1.1-1.6-1.7c0-0.3,0-0.7-0.1-1
		c0-1.1,0.2-2.3-1-3c-0.9-3.4,1.6-6.8-0.2-10.6c-0.6-1.2,0.7-6.9,5.9-5.6C316.7,24.6,319.3,23.2,321.5,25z"/>
	<path class="st92" d="M302.5,24.3c-2.3,1-1.9,3.1-1.9,5.1c-0.4,4.3,1.1,8.8-0.7,13c-1.2-2.7-1.2-2.7-0.2-7.6
		c-1.7,0.5,0.9,5.7-3.6,3.2c-1.5-5.8-2.4-11.5,1.3-16.8c0.3-0.1,0.6-0.1,0.9-0.2c0.3,0.1,0.5,0.2,0.8,0.4c0.4-0.7-0.4-0.8-0.6-1.2
		l-0.4,0.1c0.8-1.4,1.8-2,3.3-1.1C303.2,20.6,302.4,22.5,302.5,24.3z"/>
	<path class="st93" d="M228,68.9c-3.7,3.7-6.3,8.3-10.8,11.3c-1.8-0.7-3.9-1.3-0.7-3.1c0.2-0.1-0.2-0.9-0.6-1.2
		c2.9-5.3,5.3-11,6.1-17.1c1.7-0.4,3.4-0.4,5.1-0.8c3.4,0.6,6.3-1.8,9.7-1.6c0.8,1.1,0.3,2.3,0,3.4C235.2,64.3,230.7,65.8,228,68.9z
		"/>
	<path class="st94" d="M222.7,48.1c-1.1-0.8-0.8-1.9-0.9-3c3.9-7.1,11-8.9,18.2-10.6c5.6,0.5,7,2.5,5.9,8c-1,4.8-2.9,8.9-6.4,12.5
		c-3.1-1.2-1.8-3.9-1.9-5.9c-0.2-5.9-0.2-5.7-5.9-4.6C228.4,45,225.6,46.3,222.7,48.1z"/>
	<path class="st95" d="M222.7,48.1c0.7-2.6,2.9-3.4,5.1-4.3c2.3-0.9,5.1,0.3,7.1-2.4c0.5-0.6,3.9,0.1,3.9,3c0,3.5,0.1,6.9,0.1,10.4
		c-0.4,1-1,1.6-2,2c-3.2,1.4-6.2,3.9-10,2.1c0.9-2.8,3.6-4.1,5.3-6.1c0.9-1,1.6-1.9,1.1-2.9c-0.5-1.1-1.8-0.1-2.7-0.2
		c-2.6-0.5-5,3.3-7.7,0.4C222.8,49.4,222.8,48.8,222.7,48.1z"/>
	<path class="st96" d="M239.6,35.8c-6.9,1.4-12.8,4.5-17.8,9.3c-1-2.2-1-4.3,0.9-6c8.2-3.7,16-8.2,24.7-10.7c2-0.6,4.1-1.1,6.1-1.7
		c-0.3,1-0.7,2-1,3c-1.8,3.2-5.5,2.5-8.1,4.1C243,34.8,241.1,34.7,239.6,35.8z"/>
	<path class="st97" d="M222.9,50.1c3.2,1,5.7-2.4,8.9-1.6c0.9,0.2,2.3-2.5,3-0.4c0.6,1.8-0.3,4-0.5,6.1c-4-0.7-4.1,4.7-7.5,4.8
		c-1.6,1-3.2,1.6-4.8,0C223.6,56.1,222.3,53,222.9,50.1z"/>
	<path class="st98" d="M218,59.1c0.2,6.5-2.8,12-5.4,17.8c-0.5,1-2.2,1.9-0.5,3.3c0.3,0.4,0.4,0.9,0.1,1.4c-1.9,2.9-4.4,4.7-8,4.6
		c-2.9,0.5-5.3,2.4-8.2,2.9c-1-0.1-1.9-0.4-2.2-1.5c2.4-3.2,6.5-3.8,9.3-6.3c4.2-2.9,6.7-7.1,9.1-11.5c1.2-2.4,2.5-4.7,2.6-7.4
		c0.2-1.1,0.7-2.2,1.4-3.1c0.3-0.3,0.7-0.5,1.2-0.5C217.6,58.8,217.8,59,218,59.1z"/>
	<path class="st98" d="M215.8,42.1c0.3-0.7,0.7-1.4,1-2.1c2.8,6.2,2.7,12.7,1.3,19.1l-0.3-0.2c-2.5-3.4-0.3-7.6-2.1-11.1
		C215.1,46,215.1,44.1,215.8,42.1z"/>
	<path class="st99" d="M212,81c0-0.3,0-0.6,0.1-0.9c1.3-1.4,2.5-2.8,3.8-4.1c1.2,0,2.5,0,3.5,0c2.2,3-5.6,0.5-2.2,4.3
		c-0.7,0.6-1.4,1.2-2.1,1.9C214.1,82,212.9,82.2,212,81z"/>
	<path class="st100" d="M254.5,29.8c0.3,0,0.6,0,1,0c2.2-2.7,5.7-0.2,8-2.1c6.3-3.5,13.4-2.9,20.2-3.7c2.1-0.2,4.5-0.9,6.8-0.5
		c1.1,0.8,2.5,0.7,3.7,1.1c1.6,0.5,2.1,1.7,1.4,3.1c-3.1,5.8-4.7,12.4-8.2,18.2c-0.6,1-1.5,1.7-2.5,2.4c-1.7,1.1-3.6,1.5-5.6,1.7
		c-1.6,0-3.1,0.2-4.5,1.1c-2.2,1-4.2,3.2-6.7,0.8c-1,2.4-3.9,2.6-5.3,4.6c-3.7,4.9-4.8,4.8-8.4-0.2c0.3-0.3,0.5-0.8,0.9-1
		c-0.6,0-0.5,0.6-0.8,0.8c-0.6,0.7-1.3,1.3-2.2,1.5c-0.7,0.1-1.4,0-2.1-0.4c-2.3-4.1-1.7-8.5,2.4-12.2c2.2-1.9,3.2-3.9,3.2-6.8
		c0.1-1.8,0.5-2.9-1.8-3.8C251,32.9,252.4,31.2,254.5,29.8z"/>
	<path class="st101" d="M254.5,29.8c-1.5,2.3-2.9,4.6,1.9,3.5c0.9-0.2,2.3,0,1.8,0.7c-2.2,3.3,1,8.1-3.6,10.9
		c-4.3,2.6-5.4,7.4-3.9,11.9c-1.4,2.3-4,2.9-6,4.4c-0.2,0-0.5,0-0.7,0c-0.2-0.1-0.4-0.2-0.6-0.2c-1.2-0.7-1.3-2.2-2.2-3.3
		c-2.1,0-2.9,3.3-5.5,2.3c0.3-1,0.7-2,1-3.1c0-1.3,0.7-1.9,2-2c2.8-4.1,4.9-8.5,6.3-13.4c1-3.5-0.9-5.5-5.5-5.6
		c3.3-4.3,8.7-4,12.9-6.1C253.2,29.7,253.9,29.8,254.5,29.8z"/>
	<path class="st102" d="M284.7,47.5c2.3-5,6.5-9.3,6.7-15.2c0-0.6,0.2-1.5,0.7-1.8c5.2-3.8,1.1-5.3-1.7-7.1c1.4-0.2,3,0.4,4-1
		c1-0.3,2-0.7,3-1c-1.5,5.6-0.7,11.3-0.7,17c1.4,1.6,1.3,3.5,1.3,5.5c-0.1,0.8-0.3,1.5-0.7,2.2c-2.2,1.4-4.1,2.7-4.4,5.8
		c-0.6,4.1-1.8,4.3-6.3,2.7c-0.7-1-0.8-2.1-0.6-3.3c0.2-0.8,0.8-1.4,0.8-2.2C286.1,48.3,285.2,48.2,284.7,47.5z"/>
	<path class="st101" d="M263.5,27.6c-1.9,3.7-5.7-0.1-8,2.1C257.5,26.3,260.8,28.1,263.5,27.6z"/>
	<path class="st103" d="M298.5,20.3c1.3,0.1,2.9-0.2,2.7,1.9c-0.1,0.9-0.7,1.7-1.5,1.6c-1.7-0.1-1-1.7-1.3-2.7
		C298.4,20.8,298.4,20.5,298.5,20.3z"/>
	<path class="st104" d="M154.7,47.6c0.4-1.3-0.3-2.9,1-4c0.7,0.5,1.1,1.2,1.2,2c-0.1,3.1,1.4,6.2,0,9.2c-0.4,0.8-3.4-0.3-1.5,2.2
		c-0.4,2.8,0.1,5.5,0.6,8.2c-2.2,5.6-8.8,6.1-13.3,0.9c1.7-4.3-2.5-3.4-4.1-4.7c-0.3-3.2,2.1-3.6,4.3-4.4
		C147.8,55.2,152.8,53.3,154.7,47.6z"/>
	<path class="st105" d="M155.9,45.5c-0.1-0.7-0.2-1.4-0.3-2.1c0.4-4.8,3.1-8.6,5.1-12.9c9.6-11.9,20.3-16,32.8-12.2
		c-0.5,1,2.9,0.2,1,1.9c-0.8,0.8-1.8,0.9-2.8,0.7c-8.5-1.4-15.6,1.6-21.7,7.3c-0.7,0.7-1.6,1.2-2.5,1.6c-5.1,2-6.8,6.5-8.8,11
		C158,42.6,158.5,45.1,155.9,45.5z"/>
	<path class="st106" d="M154.7,47.6c0.3,5-3.6,8.7-10.5,10.3c-2.3,0.5-5.1,0.6-5.3,4c1.1,2.9-1.1,3.9-2.9,5
		c-0.6-0.6-1.2-1.2-1.8-1.8C137.1,54.6,145.9,51,154.7,47.6z"/>
	<path class="st107" d="M155.9,45.5c1.6-5.5,3.6-10.8,7.7-15.2c0.9-0.9,1.4-2.5,3-0.8c-0.3,4.7-3.9,7.9-5,12.3
		c-0.6,1.6-0.7,3.2-0.6,4.9c8.3-4.6,16.4-9.2,25-13.2c3.5-1.6,6.9-3.2,9.6-6c3.1-3,8.1-2.6,10.8,0.5c0.6,0.4,1.2,0.8,1.8,1.1
		c-0.3,0.5-0.5,1.1-0.8,1.6c-4.5,4.2-10.2,6.3-15.5,9.2c-4.8-1.6-7.9,2.7-12,3.7c-2.1-0.3-3.9,0.1-4.9,2.9c2.1-0.4,2.7-2.6,4.4-2.7
		c3.2,0.2,6.1-4.1,9.6-0.7c3.5,5.8,3.3,12.4,4.2,18.7c0.2,2-0.1,4,0.4,5.9c-0.5,4.8,0.1,9.8-1.9,14.3c0.5,0.2,1.1-0.5,1.7,0.1
		c0.6,1,0.6,2,0,3.1c-0.6,0.6-1.4,0.9-2.3,1c-1.4,0.1-2.8,0.1-4-0.8c-1.6-2.3-0.2-4.7-0.3-7.1c0.1-0.8,0.3-1.5,0.5-2.3
		c2-3.2,1.5-6.5,0.6-9.8c-0.6-3.9,0-7.9-1.1-11.8c-1.6-5.5-2.2-5.9-7.5-3.6c-5.3,1.6-8.4,6-12.7,9c-1.3,0.9-2.3,2.3-4,2.7
		c-4.1-1.2-6.2-4-6.8-8.2C155.9,51.6,155.9,48.6,155.9,45.5z"/>
	<path class="st108" d="M214.8,43.1c0-0.3,0.1-0.6,0.2-0.9c0.3,0,0.5,0,0.8,0.1c1.2,1.6,1.1,3.3,0,4.9c2,2.6,0.5,4.6-1.2,6.3
		c-1.7,1.7-3.7,3.1-5.7,4.5c-3.4,1.7-6.3,4.2-8.1,7.4c-2,3.3-3.8,3.3-5.3-0.2c0.8-7.1,5.9-11.3,10.9-15.2
		C209.1,47.5,212.4,45.9,214.8,43.1z"/>
	<path class="st109" d="M160.9,41.6c4.6-0.2,8.2-3.1,11.7-5.3c7.5-4.7,15.4-8.1,23.6-11c1.4-0.5,3.8-0.2,2.4-2.9c4.2,0,6.5,2.4,8,6
		c-3.8-2.3-8.5-1.6-10.9,1.8c-0.8,1.1-1.8,1.3-2.8,1.8c-9.6,4.8-19.1,9.4-28.6,14.3c-1.6,0.8-2.8,2.5-4.9,4.5
		C160.1,47.1,158.8,44.1,160.9,41.6z"/>
	<path class="st110" d="M329.7,156.8c-1.3-0.9-2.5-0.3-3.6,0.4c-5.6,3.7-11.4,3.6-17.2,0.8l0,0c-1.3-3.1-0.3-5.1,2.8-6.1
		c1.2-0.4,2.4-0.7,3.7-0.6c5.5,0,10.8-1.2,16.3-1.8c1.8,0.1,4-0.1,4.6,2.1c0.8,2.9-2.1,3.3-3.6,4.7
		C331.7,156.9,330.8,157.3,329.7,156.8z"/>
	<path class="st111" d="M329.7,156.8c0.7-0.4,1.5-0.7,2.2-1.1c4,0.3,7.4-1.7,10.9-3.1c0.7,2,0.7,2-2.9,4.2
		C336.4,156.9,333.1,161,329.7,156.8z"/>
	<path class="st112" d="M343.7,143.7c1.1,0.7,1.1,4.3,3.9,1c1.5-1.7,4.7-2.1,7.1-3.1c0.6,2.1,3,3.7,1.2,6.3
		c-1.9,2.7-4.6,3.2-7.4,2.7c-1.9-0.4-4,0.4-5.7-0.8c-3.4,0.7-6.8,1.1-9.4-1.9c1.4-2.9,4.1-3.4,6.8-3.5
		C341.4,144.4,342.6,144.9,343.7,143.7z"/>
	<path class="st113" d="M333.6,147.6c3,0.7,6.1,1.3,9.1,2.1c-0.2,1-1.5,2,0,3c-3.1,3-6.2,5.6-10.9,3.1c0.2-0.3,0.4-0.5,0.5-0.8
		c0.7-1.4,3.8-0.7,3.1-3c-0.7-2.3-3.1-0.8-4.7-1.3c-0.4-0.3-0.5-0.6-0.6-1.1c0.1-0.4,0.2-0.8,0.5-1.2
		C331.5,147.8,332.4,147.3,333.6,147.6z"/>
	<path class="st41" d="M312.8,152.8c-3,0.5-4.4,2.1-3.9,5.2c-0.3,0-0.6,0-0.9,0c0-2,0-3.9-0.1-5.9c1-0.3,2-0.7,2.9-1
		C311.9,151.1,313,151.3,312.8,152.8z"/>
	<path class="st114" d="M329.9,54.8c-1.4-2.2,0.1-2.7,1.9-2.9c2.3,0.7,4.6,1.3,7,1.9c0.6,1.1,0.8,2-0.9,1.9
		C335.3,54.7,332.5,55.2,329.9,54.8z"/>
	<path class="st115" d="M341,84.6c1.9,2.2,0.8,4.8,1.1,7.2c-1.7,0-3.4,0-5,0.1c-1.6,2.6-3.7,2.4-5.9,0.9c0-2.7,1.1-5,3-6.9
		C336.7,87,338.8,85.1,341,84.6z"/>
	<path class="st116" d="M331.2,92.7c2,0.1,4.1,0.4,5.9-0.9c0.8,1.4,3,0.2,3.9,2.9c-3.3,0-6.3,0.2-9.3,0
		C330.3,94.7,330.2,93.7,331.2,92.7z"/>
	<path class="st117" d="M296.7,46.2c0-0.7,0.1-1.3,0.1-2c3.4,0.3,1.6,3.5,2.9,5c1.5,5.5,0.3,11.2,0.5,16.6c0.2,7.9,1,16.2-1.2,24.1
		c-0.1,0.4-0.5,0.8-0.8,1.2c-0.4-3.3-0.9-6.6-1.2-9.9c-1.8-2.5-1.4-5.2-1.1-7.9c1-7,0.9-14-0.2-21C295.4,50.3,295,48.1,296.7,46.2z"
		/>
	<path class="st118" d="M299.7,49.2c-1.6-1.3-1.1-3.8-2.9-5c0-2,0-4-0.1-5.9c2.7-0.1,1.3-2.9,3.1-4.6c0,3.3,0.1,6,0.1,8.7
		C299.8,44.6,299.7,46.9,299.7,49.2z"/>
	<path class="st0" d="M333.4,113.8c1-1.4,2-0.3,3,0c-0.2,1.2,0.6,2.6-0.9,3.5C333.7,116.7,334.9,114.4,333.4,113.8z"/>
	<path class="st119" d="M317.7,145.9c-0.7,0-1.3,0-2,0c1.7-3.9,4.5-5.7,8.7-5.2c2.3,0.3,4.2-2.5,6.5-0.8c1.1,2.5,4.2,1.1,5.7,2.7
		l0,0.3l0,0.3c-0.7,1.8-2.4,2.2-4,2.5C327.7,146.2,322.7,147.4,317.7,145.9z"/>
	<path class="st120" d="M336.7,142.7c-1.5-1.7-6.8,4.2-5.7-2.7c1.2-0.4,2.4-0.8,3.6-1.3c2.4-0.9,4.7,0.5,7.1,0
		c0.8,0,1.8-0.5,2.2,0.4c0.4,0.7-0.4,1.1-0.9,1.3C341,141.5,338.5,141.2,336.7,142.7z"/>
	<path class="st121" d="M341.6,138.8c-2.4,2.3-4.7,0.1-7.1,0c0.7-0.4,1.4-0.8,2.6-1.6c-1.8-0.2-3.2-0.3-4.5-0.4c1.1-3.5,4-1.2,6-2
		c1.4,0.1,2.9,0.1,4.2,0.2C344.3,137,340.1,136.8,341.6,138.8z"/>
	<path class="st122" d="M332.8,144.9c1.3-0.5,2.6-0.9,3.9-1.4c2.3,0.1,4.7,0.2,7,0.2c0,0.8-0.3,2.2-1,1.9c-3.6-1.6-6.2,1.2-9.2,2
		c-0.9,0.4-1.9,0.8-2.8,1.2C329.3,146.3,331.4,145.8,332.8,144.9z"/>
	<path class="st123" d="M332.7,46.8c-1.7-1.4-3.8-2.3-4-4.9c-0.1-0.9,0.4-1.5,1.1-1.9c2.6,0,2.6,0,1.8,1.5c-0.4,0.8-1,1.4,0,2
		c1,0.6,1.9,0.3,2.5-0.7c1.1-1.7,2.2-3.3,4.6-2.8c0.3,0.3,0.6,0.6,1,1c-0.6,0.6-1.3,1.3-1.9,1.9C336.5,44.8,335.3,46.8,332.7,46.8z"
		/>
	<path class="st124" d="M335,123c1.3,0.2,1.5,1.1,1.4,2.1c-0.1,1.5-0.9,2.5-2.4,2.5c-1.3,0-1.5-1-1.4-2.1
		C332.7,124.1,333.4,123.2,335,123z"/>
	<path class="st125" d="M332.8,144.9c-0.9,1.2-2.3,2.1-2.1,3.9l-0.1,0c-5.3-0.6-9.9,2.2-14.9,3c-1,0.3-2,0.7-3,1
		c-0.7-0.6-1.3-1.2-2-1.8c0.1-1.8,1.3-2.1,2.8-2.1c2.1,0,3.3-1.3,4.2-3C322.7,144.4,327.8,145.4,332.8,144.9z"/>
	<path class="st126" d="M297,73.2c0,2.7,0,5.3,0,8c-2.3,0.4-2.5,2.3-2.9,4.1c-1.2,5.7-2.3,11.6-4,17.1c-0.7,2.2-3.7,3.6-2.7,6.7
		c-3.6-1-1.5-3.9-2.1-5.9c0.2-1,0.9-1.6,1.5-2.3c-0.7,0.3-1.4,0.7-2.1,1c-0.7,0.3-1.5,0.6-2.2,0.8c-1.1,0.3-2.1,0.6-3.2,1
		c-0.5,0.2-1,0.2-1.4,0.4c-0.6,0.3-1.1,0.7-1,1.5c0,0.1,0.2,0.3,0.3,0.3c0.7-0.2,0.7-1,1.2-1.4c1.2-0.6,2.4-1.2,3.7-1.2
		c1.8,0,3.4,1,2.5,2.6c-2.7,4.7,1,4.6,3.7,5.5c0.6,0.2,1.3,0.2,1.9,0.4c0,1.4,0.1,2.8,0.1,4.2c-2,2.1-2.8,5.6-6.5,5.9
		c-1.2,0.1-2.3,0.1-3.1,0.1c1.7,0.4,3.9-0.6,5.7,0.6c0.3,0.4,0.3,0.8,0,1.3c-3.3,0-6.6,0.1-9.8,0.1c2,0.3,0.6,6.4,4.7,3
		c1.8,4.8,1.3,5.9-3.6,6.8c4.1,0.4,4.1,0.4,5.2,3c-3.7,0.5-7.8,0.6-7.5,6.1c-0.2,0-0.4,0-0.5-0.1c-2.7-5.9-5.8-2.8-8.9-0.1
		c-1.7-3.7-3.6-7-8.3-5.6c-1.1-1.3-2.1-2.7-3.2-4c1-0.7,1.9-1.4,2.9-2.1c-2.2-2.2-5.5-2.5-7.9-2.4c-3.6,0.2-4.5-0.5-4.1-3.8
		c0.2-1.3,0.2-2.7-1-3.6c-1.7,0.6,0,4-2.5,3.5c-2-0.4-4.2-1.3-5-3.6c-1.2-3.6-1.7-7,1.5-10c1.2-1.1,1.8-2.8,3-3.9
		c1-0.9-0.7-3.9,1.8-3.1c2.1,0.6-0.2,2.6,0.2,3.9c0.1,0.4,0.5,0.8,0.7,1.2c0.4,0.3,0.5,0.7,0.1,1.1c-0.5,0.8-1.2,1.5-1.2,2.6
		c0.7-1,0.7-2.3,1.7-3c2.7-1.7,5.9-0.5,8.8-1.3c-0.7-1.1-2.2-1.2-2.7-2.4c-0.9-3.1,0.5-5,3.1-6.5c-3-0.9-6.8,1.3-9.1-2.2
		c0.6-2.6,2.6-3.3,4.8-3.9c1.4-0.1,2.8,0.7,4.6,0c-0.3-1.8-1.5-3.5-1-5.4c0.3-1.4,1-2.6,1.9-3.8c-1.5,0.2-3.1,1.2-4.5-0.4
		c-0.4-1-0.4-2,0.3-2.9c2-1.5,4.5-1.1,6.8-1.6c5.8,0.4,11.6,1.8,17.4,0.4c0.9-0.1,1.9-0.1,2.8-0.2c2.4,0,4.9,0.1,7.3-0.1
		c0.4,0,1.7,0.2,0.4-0.7c-0.3-0.2-0.5-0.4-0.8-0.6c-2.4-3.4,1.1-3.2,2.5-4.2c1.5-0.7,1.7-2.2,2.3-3.4c1.7-2.3,0.7-5.2,1.4-7.7
		c1-3.9,2.9-5,6.5-3.6C297.2,64.3,297.9,68.8,297,73.2z"/>
	<path class="st127" d="M250,94.7c-1.6,1.1-3.2,2.1-4.8,3.2c-0.3,1.1-1,1.9-1.9,2.7c-2.6,3-5.6,5.4-9.8,6.5c3-4.9,6.3-9.6,3.2-15.8
		c-1.9,1.8-3.3,4.1-6.5,3.5c-0.7-1.5,1.5-2.4,1-3.8c1.2-4,2.5-8,3.2-12.1c1.1-1.6,1.8-0.8,2.5,0.3c1,1.5-0.1,3.2,0.4,4.6
		c0.1-3.1,3.6-6.1,0.6-9.7c-2.3,0.4-4.1,3.5-7,2c0.4-1,0.7-1.9,1.1-2.9c2.7-3.2,5.3-6.6,7.8-9.9c1-1.4,1.8-2.7,3.8-2.4l0.3,0.2
		c2.3,1.5-0.4,5.7,3.4,6.4c2.6,0.5,5.2-0.5,7.8-0.8c5-1.4,9.7-3.2,11.3-9c0.8-2.9,2.8-2.9,5-1.4c1.3,0.8,2.3,1.9,3,3.2
		c0.6,1.6,1.6,3.1,1.8,4.8c-0.1,0.5-0.4,0.9-0.9,1.2c-6.7,0.2-12.7,2.3-18.3,5.7c-3,0.4-6.1-0.1-9,0.6c-0.1,0.1-0.3,0.1-0.4,0.2
		c-0.4,0.1-0.7,0.4-0.4,0.6c0.4,0.3,0.9,0.2,1.4,0.3c1.3,0.2,2.9,0,3.3,1.5c0.4,1.5-1.3,2-2.3,2.8c-1.5,1.2-3.6,2-2.3,4.6
		c-0.2,2.3-3.7,3.2-2.5,6.1c0,0.4,0,0.9,0,1.3c-0.1,2.2,1.8,2.4,3.1,3.3C248.9,92.8,250.7,92.8,250,94.7z"/>
	<path class="st128" d="M211.2,91.1c4-2.6,7.9-5.4,11.9-8c0.3,0.4,0.4,0.8,0.4,1.3c-0.8,2.1-3.1,2.9-4.4,4.8c1.8,1.2,3.7,0,5.5,0
		c1.9,0.4,4,0.1,5.5,1.6c-3.5,2.8-5,8.5-11.4,7c-1.6-0.4-3.9,1-5.4,2.2c-2.9,2.2-5.2,1.2-7.6-0.6c-1-0.7-2.1-1.5-1.7-2.7
		c0.2-0.7,1.5-1.3,2.4-1.4C209.1,94.9,210.9,93.9,211.2,91.1z"/>
	<path class="st129" d="M223.2,84c0-0.3,0-0.6,0-0.9c2.8-1.5,3.8-5,6.8-6.3c2,0,4.5-1.4,5,2c-0.3,4.3-0.1,8.8-3.9,12
		c-0.3,0-0.6,0-1,0.1c-2.1-0.1-4.2,0.2-6.1-1c-0.2-2.3,3.7-2.6,2.3-5.2c-0.7,0.5-0.5,2.5-2.1,2.2C223,86.7,223.7,85,223.2,84z"/>
	<path class="st130" d="M244.5,121.7c1.8,0.1,1.9,1.3,2.1,2.7c0.1,1.4-1.6,3.5,1.2,4c2.6,0.5,1.2-2.7,2.9-3.2
		c1.7,0.8,0.5,3.5,2.6,4.2c2.4,0.8,2-2.2,3.6-2.5c1.5,1.4,0.4,3.1,0.7,4.6c-0.8,0-1.6,0.1-2.5,0.1c-3.3,0.2-6.9-0.1-9.6-1.4
		C241.6,128.3,245.6,124.5,244.5,121.7z"/>
	<path class="st131" d="M243.3,100.6c-0.2-1.5,0.5-2.3,1.9-2.7c4,1.5,8.5-0.6,13.4,1.8c-4,1.4-7.9,2.2-7.2,7c-0.7,0.5-1.4,0.5-2.1,0
		C250.6,101.5,246.8,101.1,243.3,100.6z"/>
	<path class="st132" d="M249.3,106.6c0.7,0,1.4,0,2.1,0c1.5,1.9,5.8-0.4,5.4,2.3c-0.4,2.6-4.2,1.2-6.5,1.5c-1.9,0.2-3.9,0.1-5.9,0.2
		l0,0c0-0.3-0.1-0.6-0.3-0.9C244.6,106.6,247.1,106.8,249.3,106.6z"/>
	<path class="st133" d="M193.6,103.1c0-3.2-0.1-6.5-0.1-9.8c1.3-0.1,1.9,1.1,2.9,1.8C198.4,98.8,196.5,101.1,193.6,103.1z"/>
	<path class="st134" d="M251.7,133.6c-2,1.6-4.1,1.6-6.1,0.1C247.6,131.9,249.6,132.5,251.7,133.6z"/>
	<path class="st135" d="M255.4,140.4c-3.2,0.8-5.9-0.5-8.7-1.7c-0.5-3,1.4-3.2,3.5-2.9C252.9,136.1,255.9,136.4,255.4,140.4z"/>
	<path class="st136" d="M283,137.3c-1.3-3.5-5.1-0.7-7.7-3.3c5.2,0.2,6.9-2.3,6.1-6.7c3.1-1.1,2.2,1.3,2.1,2.6
		c-0.2,3,1.2,3.7,3.8,3.2c1.1-0.7,2.2-1.8,3,0.3c0,0.6,0.1,1.2,0.1,1.8c-1.7,3.3-4.8,1.7-7.3,2.1L283,137.3z"/>
	<path class="st137" d="M281.9,140.2c2.2,0.2,3.8-0.3,4.9,1c0.7,0.8,1,1.7,0.1,2.6c-0.8,0.8-8.5,0.9-8.9,0.1
		c-0.8-1.5-0.2-2.7,1.2-3.3C280.2,140.2,281.5,140.3,281.9,140.2z"/>
	<path class="st126" d="M283.2,137.2c2.1-2,5.2-0.3,7.3-2.1c0,2,2.3,4,0.1,6C288.9,138.5,285.8,138.4,283.2,137.2z"/>
	<path class="st138" d="M290.3,112.1c-3.3,1.9-5.9-0.5-8.7-1.5c-0.9-0.3-1.4-1.7,0.1-2.1c1.8-0.5,2.8-1.8,2.2-3.2
		c-0.9-1.9-2.6,0.1-3.9,0c-0.5,0-1,0-1.5,0.1c-0.9-1.2,1.2-1.2,0.8-2.1c1-0.3,2.1-0.7,3.1-1c1.4,0.5,2.8-0.6,4.2,0.1
		c0.1,2.3-1,4.8,1,6.9C288.3,110.1,289.3,111.1,290.3,112.1z"/>
	<path class="st139" d="M284.3,121.2c1.8-0.7,3.6-1.4,3.7-3.9c0.1-1.5,1.2-1.8,2.4-1c0,1.3-0.1,2.6,0,3.8c0.4,3.1-0.8,4.5-4,4.1
		c0-0.3-0.1-0.5-0.1-0.8C287.4,121.2,284.7,122.3,284.3,121.2z"/>
	<path class="st140" d="M290.4,133.3c-0.9-1-2-0.6-3-0.3c1-2.1-1-6.4,1.6-6.2C292.2,127,290,131,290.4,133.3z"/>
	<path class="st84" d="M187.2,85.2c1.4,0.1,2.7,0.2,4.1,0.3c-0.6,2.2-2.4,1.6-3.9,1.8c-5,0.2-10,0.1-13.3-1.7
		c1.7,0.6,4.6,1.9,7.9,1.7c4,0.4,8.1-0.9,12.1,0.1c0.7,0.3,1.4,0.6,2,0.9c0,2.2-2.1,1.1-3,1.8c-4.5,2.4-9.1,1.1-13.6,0.4
		c-3.1,0.4-4.8,1.7-3.7,5.2c0.3,1.2,0.6,2.6-0.6,3.7c-0.3,4-0.5,7.9-0.8,11.9l-0.2,0.1c-7.4-1.6-14.9-1.6-22.5-0.7
		c-4.7,0.5-7.9-1.2-9.8-5.7c-0.8-2.1-0.6-4.7-2.7-6.3l-0.2-0.2c0.2-0.2,0.5-0.5,0.7-0.6c2.4-0.5,5.3-0.8,5-4c-0.3-3.1-3-3.3-5.6-3.2
		c-1.6-3.6-1.2-6.6,1.3-9.9c2.1-2.8,5.1-6,2.4-10.2c-1.3-1-2.5-2-3.8-3c0.1-3,1.7-3.1,3.8-1.9c4.6,3.5,8.9,3.4,12-0.1
		c1.2-0.3,1.6,0.6,2.1,1.4c1.1,2.9,2.8,5.5,4.7,7.9c5.4,0.5,8.8,5.2,13.7,6.8c1.8,0.5,3.7,1,5.5,1.7
		C182.9,84.3,185.4,83.7,187.2,85.2z"/>
	<path class="st141" d="M143,70.7c5.3,3.7,1.1,7.2-0.9,9.8c-2.5,3.2-2.6,6.6-2.8,10.2c-1.7-0.3-1.8-2.2-3.1-2.9
		c0-4.6,2.8-7.9,4.7-11.7C141.8,74.4,142.4,72.5,143,70.7z"/>
	<path class="st142" d="M143,65.8c-1.6,0-3.2-0.1-3.8,1.9c-0.9,1-1.8,2-3.2,3.6c0-1.8,0-3.1,0-4.5c1-1.7,2-3.3,2.9-5
		c1.3-0.4,2.6-2.7,3.9-0.4C143.7,62.7,145.9,64.2,143,65.8z"/>
	<path class="st143" d="M140,91.9c1.3,0.2,2.1,1,2.1,2.3c0,1.6-1,2.4-2.6,2.3c-1.3-0.1-2.1-1-2.1-2.3
		C137.5,92.7,138.4,91.9,140,91.9z"/>
	<path class="st144" d="M139.4,98.8c1.8-0.2,2.5,0.4,3,2.3c2.2,8.9,3.4,8.8,12.8,7.9c5.7-0.6,11.8-0.2,17.6,0c0.5,0,1,1.6,1.5,2.4
		c-0.4,2.9-2.7,1.9-4.3,1.9c-8.2-0.1-16.4,1.1-24.6,0.3c-4.8,1.7-4.4-2.9-6-5C139.5,105.4,139.5,102.1,139.4,98.8z"/>
	<path class="st16" d="M174.5,116.4c-8,0.1-16,0.2-24,0.1C158.5,114.9,166.5,114.7,174.5,116.4z"/>
	<path class="st145" d="M139.5,108.7c2.6,1,2.1,5.7,6,5C141,115.2,139.8,114.2,139.5,108.7z"/>
	<path class="st146" d="M175.3,99.5c-0.3-1.8-0.6-3.6-1-5.4c-0.5-4.1,0.7-5.7,4.9-3.8c0.2-0.2,0.4-0.3,0.6-0.2
		c0.1,0.1,0.2,0.2,0.2,0.3c0,2.7,0.2,5.3,0.2,8c-1.2-0.6-0.7-2-1.3-2.9C176.2,95.4,181.7,102.9,175.3,99.5z"/>
	<path class="st21" d="M180.2,115.2c3,0.6,6.3-1,9.2,0.9c-3.3,0-6.6,0-9.9,0C179.8,115.8,180,115.5,180.2,115.2z"/>
	<path class="st21" d="M180,90.4c-0.3,0-0.6-0.1-0.8-0.2c4.7-0.6,9.5,0.9,14.1-0.9c0.3,0.4,1,0.5,0.9,1.1c-0.8,1.1-2,0.8-3.1,0.9
		c-0.6,0.4-1.1,0.9-1.7,1.2c-2.7,1.6-0.9,3.8-0.6,5.6c0.4,3.2,1.3,6.4,0,9.6c-0.2,0.2-0.3,0.3-0.5,0.5c-2.2,1.3-2.2,5.8-5.5,4.7
		c-3-1.1-1.3-4.7-1.5-7.1c-0.1-4.4-0.7-8.9,0.2-13.3C181.9,91.4,181.1,90.8,180,90.4z"/>
	<path class="st147" d="M243.6,60.7c-2.9,3.3-5.8,6.7-8.5,10.2c-0.9,1.1-1.6,2-3.1,2.1c0.3-0.6,0.6-1.1,0.8-1.7
		c0.4-1.1,1.6-2.2,0.3-3.5c-1.4-1.3-2.3,0-3.3,0.6c-0.5,0.3-1.2,0.4-1.8,0.6c1.2-4.3,6.1-5.3,7.9-9.1c0.6-0.3,1.2-0.5,1.7-1
		C242.1,55.1,242.1,55.1,243.6,60.7z"/>
	<path class="st148" d="M235,78.9c-0.9-2.6-3.7-0.6-5-2c0.3-0.3,0.6-0.6,1-0.9c2.1-1,4.4-1.2,5.7-3.8c1-1.9,2.4-0.8,2.8,0.7
		c0.6,2.7,2.9,5.4-0.2,8.2c-1.5,1.3-1.1,3.3,0.2,5.5c-5.3-1.5-1.3-5.7-3.4-7.7c-0.1-0.1-0.3-0.2-0.4-0.2
		C235.3,78.6,235.2,78.8,235,78.9z"/>
	<path class="st149" d="M189.5,91.4c0.6,0,1.2,0,1.8,0c0.6,7.8-0.9,15.7,1.2,23.5c-5.2,0.3-4-3.6-4.1-6.6l0,0
		c0.9-3.3,0.3-6.5,0.1-9.8C188.3,96.1,187.3,93.5,189.5,91.4z"/>
	<path class="st150" d="M212,81c1.1,0.1,2.4-0.1,3.1,1.1c-3.3,2.5-6.3,5.7-11.1,4.6c-0.3-0.5-0.3-0.9,0.1-1.3
		C208,86.1,209.5,82.6,212,81z"/>
	<path class="st151" d="M204.2,85.4c0,0.4-0.1,0.9-0.1,1.3c-2.9,2.2-6.4,2.9-9.9,3.7c-0.3-0.4-0.6-0.8-0.9-1.1
		c1-0.1,2.1-0.2,2.9-1.1C199.1,88,201.2,85.4,204.2,85.4z"/>
	<path class="st152" d="M329.7,40c-0.1,0.8-0.2,1.5-1.1,1.9c-3.6,2.6-7.9,4.5-11.9,5.2c-3.1,0.5-4.4-4.4-3.8-6.8
		c1-3.7,0.4-6.5-1-9.8c-1.2-2.9-0.4-5.2,3.7-4.9c1.6,0.1,3.2-0.3,4.9-0.5c5.3,2.3,5.8,7.5,7,12.2C327.9,38.6,328,39.8,329.7,40z"/>
	<path class="st153" d="M207.9,57.1c3-3.1,8.6-4.1,7.9-10.1c3,0.6,1.9,2.9,2,4.7c0.1,2.4,0,4.8,0,7.2c-0.3,0.1-0.5,0.1-0.8,0.1
		c-4.2-1.1-6.1,2.1-8.7,4.3c2,1.8,4.5,0,6,1.8c0.5,1.4-0.4,2.3-1.2,3.3c-1.3,1.3-3.1,1.9-4.7,2.8c-2.3,1.4-5,2.1-6.7-0.3
		c-1.8-2.6-2-5.5,0.5-8.2C204.1,60.9,206.7,59.6,207.9,57.1z"/>
	<path class="st154" d="M214,64.9c-0.7,0.1-1.4,0-2,0.3c-1.6,0.7-3.4,1.2-4.3-0.6c-1-1.8,1.3-4.2,1.7-4c2.9,0.8,3.9-8,7.7-1.6
		c-0.4,1-0.9,2-1.3,3C215.2,63.1,215.6,64.5,214,64.9z"/>
	<path class="st155" d="M187.2,86.4c1.4-0.3,2.8-0.6,4.2-0.9c0.6-0.1,1.2-0.3,1.7-0.4c2.9-2.2,6.3-3.5,9.8-4.4
		c0.8,0.2,1.4,0.5,1.2,1.4c-3,2.3-6.3,4.1-9.8,5.4c-4.2,0.9-8.5,1.3-12.8,0.7C182.6,85.1,185.5,88.1,187.2,86.4z"/>
	<path class="st156" d="M204.1,82.1c-0.3-0.3-0.7-0.6-1-0.9c2.8-4,5.3-8.3,9.3-11.2c0.2,0.1,0.4,0.1,0.7,0.2
		C211.6,75.2,208.1,78.8,204.1,82.1z"/>
	<path class="st156" d="M214,64.9c0.6-1,1.2-1.9,1.7-2.9c0.4,3.1-0.5,5.8-2.7,8l0,0c-0.6-0.6-0.6-1.3-0.2-2
		C213.5,67.2,214,66.2,214,64.9z"/>
	<path class="st101" d="M273.9,59.5c-1-0.8-2-1.7-3-2.5c-2.1-1.8-3.2-2.3-3.5,1.5c-0.3,4.2-6,8.2-11.7,9c-0.8-2.6,0.6-5.3-0.7-7.8
		c-0.6-1.1-2.3-1.3-2.2-2.9c0.4-0.8,1.1-1.1,1.9-1.1l0.1,0.1c2.9,2,6.3,6.5,7.3-1.4c0.1-0.4,0.6-1.2,0.8-1.1c5,0.8,3-3.1,3.6-5.8
		c1.6,5.3,4.7,4.4,8.1,3c2.2-0.1,4.4,1.1,6.8-0.9c1.2-1,3.7-1,5.3,0.6c0,1.3,0,2.6,0,4c0.3,0.4,0.4,0.8,0.1,1.2
		c-2.7,1.4-6.5,1.8-5.9,6.4c0.1,1-1.3,1.2-2.3,1.2c-0.4-0.1-0.9-0.3-1.2-0.5c-0.6-0.6-1.2-1.2-1-2C276.8,57.4,274.8,59.6,273.9,59.5
		z"/>
	<path class="st157" d="M252.8,56.9c1,0.6,2.1,1.2,3.1,1.7c0.7,1.1,0.4,2-0.6,2.6c-3.3,0.3-6.5,1.1-9.7,1.1
		c-0.8-0.3-1.3-0.8-0.9-1.8c1.4-2.4,4-2.6,6.2-3.8C251.5,56.8,252.1,56.8,252.8,56.9z"/>
	<path class="st158" d="M286.7,50.3c-1,0-2-0.1-3-0.1c-2.3,0-5.5-0.6-2.9,3.9c-3.4-0.2-3.9-3.4-6.2-3.6c0.2-3.1,2.5-1.8,4.1-2
		c3.1,1.6,6.7-1.6,9.8,0.8C288.2,50.1,287.4,50.1,286.7,50.3z"/>
	<path class="st159" d="M288.5,49.3c-3.3-0.4-6.7,1.1-9.8-0.8c2-0.3,4-0.7,6-1.1C286,47.9,288.3,46.5,288.5,49.3z"/>
	<path class="st160" d="M254.7,55.8c-0.8-1.8-0.1-2.8,1.7-3.1c0.8-0.1,2,0,1.8,1C257.8,55.2,256.2,55.4,254.7,55.8
		C254.8,55.8,254.7,55.8,254.7,55.8z"/>
	<path class="st161" d="M254.5,60.8c1-0.4,1.2-1.3,1.3-2.3c1.6,3.1,1.5,6.1-0.2,9c-0.8,0.1-1.6,0.1-2.4,0.3c-8.2,2.6-10,1.2-9.4-7
		c0.3-0.1,0.5-0.2,0.8-0.3c0.5,0.5,1,0.9,1.5,1.4C249.6,64.9,251,64.7,254.5,60.8z"/>
	<path class="st162" d="M286.7,55.7c0.1-0.5,0.1-0.9,0.2-1.4c3.7,1,5.4-0.1,5.1-4.3c-0.3-3.2,1.5-4.8,4.9-3.8c0,2,0,4,0.2,5.9
		c0.7,2.4,0.8,4.7,0.1,7.1c-3.9,0.5-5.2,3.1-4.9,6.6c0.1,2.5,0.1,4.9-2.1,6.6c-2.1,0.3-4.2-0.3-6.3-0.1c-1.5,0.1-3.4-0.4-3.5-2.2
		c-0.1-2.2,1.9-1.7,3.3-1.9c0.6-0.1,1.3,0,1.9-0.1c-2,0.2-4-0.2-5.9,0.4c-1,0.3-2.7-0.2-2.5,1.5c0.1,1,1.6,1,2.5,1.4
		c1.3,1,4.2,0.4,4,2.9c-0.1,2.2-2.4,2.6-4.1,2.9c-2.5,0.4-2.8,2.5-4.1,3.9c-5.8,1.9-11.4,0.6-17.1-0.7c-1.2-1-2.8-0.7-4.2-0.8
		c-1.4-0.2-3.3,0.2-3.7-1.6c-0.3-1.5,1.4-2,2.3-3c1.3-1.5,3.1-2.5,3.8-4.5c0.2-0.4,0.5-0.7,0.8-1c5.7-4.5,12.2-5.9,19.2-5.4
		c2.9-1,6,0.6,8.9-0.6c2.3-1,4.4-2.1,3-5.3C287.5,57.5,286.6,56.9,286.7,55.7z"/>
	<path class="st105" d="M175.1,82.7c-1.1-0.4-2.4-0.4-3.2-1.1c-3.1-2.8-6.8-4.5-10.8-5.9c-1-3.5-4-6.1-4.7-9.7c-1-3-2.5-5.9-1.6-9.2
		c-0.3-0.6-0.6-1.3-0.9-1.9c0.6-0.1,1.3-0.1,1.9-0.2c2.4,2.5,3.6,6.3,7,7.9c0.1,0.2,0.2,0.4,0.4,0.6c0.1,6,3.5,10.1,7.5,13.9
		c1.3,1.3,2.7,2.5,3.9,3.7C175.2,81.4,175.6,81.9,175.1,82.7z"/>
	<path class="st163" d="M154.8,56.8c0.7,3.3,1.5,6.5,2.2,9.8c0.5,1.1-0.1,1.2-1,1.1c-0.4-0.7-0.7-1.3-1.1-2
		C154.7,62.7,152.2,59.8,154.8,56.8z"/>
	<path class="st164" d="M188.1,76.3c0,0.7,0,1.3-0.1,2c-5.3,2.3-7.9,0.9-8.3-4.7c-0.1-1.2-0.1-2.3-0.1-3.5c-0.4-4.9-1-9.8-1.6-14.7
		c-0.6-1.8-1.3-3.7,0.8-5c6.2-4.3,7.2-3.8,9.1,3.2c1.1,4.2,0.9,8.4,1,12.7C188.2,69.6,189.7,73.1,188.1,76.3z"/>
	<path class="st165" d="M212.8,68.1c0.1,0.7,0.1,1.3,0.2,2c-3.7,3.3-5.8,8.1-10,11c-3.2,1.5-6.3,3.7-10,4c0.1-0.9,0.2-1.8,0.2-2.7
		c-1-5.6-0.2-11.1,1.2-16.6c0.2-0.6,0.6-0.8,1.3-0.6c1.3,0.6,2.3,3.9,3.9-0.4c1.2-3.4,4.5-6,8.2-7.6c0.3,2.4-1.2,3.4-2.9,4.6
		c-2.1,1.5-3.9,3.1-3.1,6.4c0.8,3.6,2.4,3.9,5.1,2.4C208.9,69.7,210.6,68.4,212.8,68.1z"/>
	<path class="st166" d="M178.7,50.4c-0.8,1.3-1,2.6,0,3.9c-3.5,4.3-3.9,9.2-3.6,14.4c0.1,2,0.2,4-0.5,5.9c-4.3,2-5.7-1.7-7.2-4
		c-1.7-2.5-3.2-5.4-4.7-8.1l-0.1,0C167.6,57.8,171.8,52.3,178.7,50.4z"/>
	<path class="st167" d="M180.9,69.3c0,0.8,0,1.6,0,2.4c0.2,6.6,0.2,6.6,7.1,6.5c-0.3,2.3-0.6,4.6-0.8,6.9c-2.4-0.3-5,1-7.1-0.9
		c-2.4-4.2-1.7-8.7-1.1-13.1C179.1,70.2,179.7,69.3,180.9,69.3z"/>
	<path class="st168" d="M195,65.3c-1.2,5.6-0.2,11.5-1.7,17.1c-0.7-0.4-2.4,2.4-2-0.3c0.6-4.5-0.1-9.3,1.8-13.7
		c1.7-0.6,0.4-2.2,1.1-3.1c0.2-0.2,0.4-0.3,0.6-0.2C194.9,65.2,195,65.3,195,65.3z"/>
	<path class="st169" d="M191.5,39.3c-0.9,1.7-3.8,1.6-3.9,4.1c-2.9-2.1-5,3.1-7.9,1.1c-0.3-0.4-0.3-0.7,0.1-1
		C183.4,41.3,186.3,37,191.5,39.3z"/>
	<path class="st170" d="M179.9,43.5c-0.1,0.3-0.1,0.6-0.1,1c-1.7,1.6-2.5,4.4-5.6,4.3C173.8,43.2,175.2,41.9,179.9,43.5z"/>
	<path class="st167" d="M188.1,76.3c0-3.4-1.9-6.9,0.9-10C190,69.8,191.5,73.3,188.1,76.3z"/>
	<path class="st171" d="M195,65.3c-0.3,0-0.6,0-0.9,0c0.3-8,5.7-12.3,11.6-16.1c1-0.2,1.4,0.2,1.2,1.2c-4.7,4.2-9.3,8.5-11.2,14.8
		C195.6,65.2,195.3,65.3,195,65.3z"/>
	<path class="st172" d="M207,50.3c-0.4-0.4-0.8-0.8-1.2-1.2c2.7-2.5,5.2-5.1,8.9-6.2C213.8,47.3,209.9,48.2,207,50.3z"/>
	<path class="st173" d="M315.8,151.8c2.4-0.8,4.9-2,6.9-3.3c3.2-2,5.4-0.8,8.1,0.3c0,0.6,0.1,1.3,0.1,1.9c-4.3,1.6-9.2,0-13.4,2.6
		C316.8,153.6,316.1,152.5,315.8,151.8z"/>
	<path class="st102" d="M296.8,59.2c0-2.4,0-4.7-0.1-7.1c1.7,7,1.6,14,0.2,21.1C296.9,68.6,296.9,63.9,296.8,59.2z"/>
	<path class="st174" d="M289.6,94c-0.3,0.9-1.1,1.3-1.9,1.3c-3.7-0.1-6.8,1.4-9.7,3.5c-1,0.7-2.5,1.1-3.1,0c-0.8-1.3,0.7-2,1.7-2.5
		c3.6-1.7,4.7-3.2,0-4.8c-1.2-0.4-2.8-1.1-1.7-2.8c0.9-1.4,2.1-0.3,3,0.2c3.2,1.7,6.1,3.9,10.1,3.6C288.8,92.3,289.6,92.9,289.6,94z
		"/>
	<path class="st175" d="M278.9,72.5c-2-0.3-5,0.3-4.6-3c0.3-2.8,3-2.1,4.8-2.1c3.4-0.1,6.8-0.6,11.1,0.5c-3.4,2.6-6.7,0.7-9.6,2.3
		c2.8,2.4,6.8-0.3,9.2,2.3c0.3,1.5,0,2.6-1.8,2.9C284.7,75.6,282.5,71.9,278.9,72.5z"/>
	<path class="st176" d="M250,94.7c-1.3-1.7-3.5-1.7-5.2-2.6c-1.7-1-2.3-1.9-0.6-3.3c1.9-1.4,3.6,1,5.5,0.2c1.5,0.2,2.8-3,4.5-0.3
		c0.1,1.3-0.5,2.7,0.5,3.7c0.8,0.8,2.9,1.1,2,2.7c-0.7,1.3-2.4,0.2-3.6,0.4C252,95.6,250.8,95.7,250,94.7z"/>
	<path class="st177" d="M278.9,72.5c3.5-0.4,6.7,0.1,9.1,2.9c-0.1,1.9-4.3-0.7-3,2.8c-1.8,2.4-5.4,0.3-7,3c-1,0-2,0.1-3,0.1
		c-1.4-6.3,5.2-4.4,7.4-6.8C281.9,72.7,279.7,73.9,278.9,72.5z"/>
	<path class="st162" d="M244.4,87.9c-3.2-3.9,0.3-4.8,2.6-6.2c0.4-0.4,0.8-0.6,1.3-0.8c1.1-0.1,2.1,0,2.8,0.9c0,1,0,1.9-0.1,2.9
		c0.4,0.4,0.4,0.9,0.1,1.4C249.3,88.1,247,88.5,244.4,87.9z"/>
	<path class="st178" d="M278.2,81.2c-1.2-2,0-2.6,1.7-2.7c1.8-0.1,3.5-0.1,5.3-0.3c1.5,0.5,3,1.1,5.5,1.9
		C285.9,81.9,282,81.3,278.2,81.2z"/>
	<path class="st179" d="M251.1,85.7c0-0.3,0-0.6,0-1c1.8,0.1,3.2-1.8,5.4-0.7c-0.8,1.5-1.6,3.1-2.4,4.6c-0.9-0.4-1.8-0.8-2.1,0.7
		c-0.3,1.5-1.2,1.2-2.1,0.4C248.7,88,250.5,87,251.1,85.7z"/>
	<path class="st174" d="M284.3,121.2c1.3,0.2,3.4-0.2,2.1,2.3c-3.5-0.4-7.1,0.7-11.5-1.1C278.5,120.5,281.6,121.4,284.3,121.2z"/>
	<path class="st180" d="M279.1,103.2c1.4,1.4-1.1,1.2-0.8,2.1c-0.6,0.9,1.4,2.3-0.5,2.7c-1.2,0.3-2.1-0.6-2.8-1.6
		c-0.7-1.1,0.1-1.9,0.9-2.3C277,103.8,278.1,103.6,279.1,103.2z"/>
	<path class="st127" d="M251.2,81.8c-1.1-0.1-2.2-0.1-3.3-0.2c0.9-3.4,4.5-0.7,6-2.9c1.7,0,3.8-0.9,4.2,1.9
		C256,82,253.5,81.6,251.2,81.8z"/>
	<path class="st22" d="M244.4,110.6c0,0.6,0,1.3,0,1.9c0.1,1.1,1.5,2.6-0.8,3c-1,0.2-2.1,0.1-2.5-0.9c-0.6-1.5,0.4-2.4,1.6-3.1
		C243.4,111.3,243.9,111,244.4,110.6L244.4,110.6z"/>
	<path class="st180" d="M286.4,102.3c-1.4,0.4-2.8,1.9-4.2-0.1c1.9-1.2,3.9-2.3,6.3-1.9C288.3,101.7,287.2,101.7,286.4,102.3z"/>
	<path class="st181" d="M253.8,78.8c-0.5,4.1-4.6,0.6-6,2.9c-0.3-0.1-0.5-0.1-0.8,0c-2-0.7-3.6-1.6-0.9-3.5c1.7-1.2,3.3-2.5,5.2-4
		c-1.5-0.9-2.9-0.4-4.3-0.5c-1-0.1-2.6,0.6-2.8-1.1c-0.3-2,1.6-1.5,2.8-1.9c3.3-0.8,6.7-1,10-0.1c0,4.4-4.9,4.5-6.3,7.7
		C251.5,79.1,252.7,78.7,253.8,78.8z"/>
	<path class="st182" d="M273.9,59.5c0.6-0.8,1.2-1.6,1.9-2.3c0.6-0.6,1.5-1,2.2-0.4c0.9,0.8,0.2,1.5-0.4,2.1
		c-1.3,1.3-0.6,2.4,0.1,3.6c-0.4,0.7-1.1,0.9-1.9,0.9C274.1,62.8,274,61.1,273.9,59.5z"/>
	<path class="st183" d="M276,63.4c0.4-0.8,1.1-0.9,1.9-0.9l0.1,0.2c1.8,0.9,3.5-0.4,5.3-0.5c1.3,0.3,2.8,0.2,2.7,2.2
		c-3.3,1.9-6.5,1.2-9.7-0.1C276.2,63.9,276.1,63.6,276,63.4z"/>
	<path class="st184" d="M251.1,85.7c-0.4,1.4-0.8,2.8-1.2,4.2c-2.4,2.2-3.8-0.9-5.8-1c0-0.3,0.1-0.6,0.2-0.9
		C246.6,87.1,248.9,86.4,251.1,85.7z"/>
	<path class="st101" d="M256.9,70.7c-3.3,0-6.7,0.1-10,0.1c3.2-2.1,6.7-0.7,10-1.1C256.9,70,256.9,70.3,256.9,70.7z"/>
	<path class="st185" d="M223.2,84c0.8-0.2,1.3,4.3,2.4,0.1c0.4-1.2,0.9-2.9,3.3-2.8c-1.2,3.3-0.5,7.1-4.7,8.6
		c-2.2,2.7-4.9,0.1-7.8,1.3C218.3,87.7,220.7,85.8,223.2,84z"/>
	<path class="st186" d="M180.9,69.3c-2,4.9-0.2,10-0.8,15c-1.7-0.6-3.4-1.2-5.1-1.6c-0.3-0.4-0.6-0.8-0.9-1.2c-1.1-2-1.9-4-0.1-6
		c0-4.5-0.1-8.9-0.1-13.4c0-3.6,1.4-6.3,4.9-7.7C180.8,59.1,180,64.4,180.9,69.3z"/>
	<path class="st187" d="M187.2,86.4c-1.6,1.8-4.2,0-5.8,1.8c-3.9-0.6-7.5-1.5-10.5-4.4C176.1,86.2,181.6,86.7,187.2,86.4z"/>
	<path class="st188" d="M156.1,67.6c0.3-0.4,0.6-0.7,1-1.1c1.2,3.1,4.4,5.4,4,9.1C158.7,73.4,157.4,70.4,156.1,67.6z"/>
	<path class="st84" d="M189.5,91.4c-0.8,5.6,1.1,11.4-1,16.9c0.3-4.6-0.3-9.1-1.5-13.5C186.2,92.2,187.2,91.4,189.5,91.4z"/>
	<path class="st189" d="M282.9,63.4c-1.7-0.1-3.5,0.6-5-0.7c0.9-0.3,2.6,0.7,2.3-1.4c-1-5.6,2.5-5.7,6.4-5.6c0.7,0.6,1.3,1.2,2,1.8
		c0.4,0.9-0.2,1.2-0.8,1.6c-1.7,0.7-4.3,0.1-4.4,3.1C283.4,62.7,283.2,63.1,282.9,63.4z"/>
	<path class="st190" d="M254.5,60.8c1.3,6.1-4.2,3.8-6.5,4.6c-3.1,0.9-2-1.9-1.9-3.5C248.8,60,251.6,59.6,254.5,60.8z"/>
	<path class="st191" d="M282.9,63.4c0-0.3,0-0.6-0.1-1c1.6-1.3,3.8-1.9,5-3.9c0.3-0.3,0.6-0.7,0.9-1c2.8,2,1.7,4.8-2.7,6.9
		C285.3,63.2,284.1,63.4,282.9,63.4z"/>
	<path class="st192" d="M174.1,75.5c0,2,0,4,0.1,6c-4.5-3.6-8.7-7.4-11.1-12.9c-0.9-2.1-1.4-4,0-6c2.4,0.5,3.2,2.6,4,4.5
		C168.4,70.6,171,73.2,174.1,75.5z"/>
	<path class="st193" d="M287.8,58.4c0.8,4.4-2.3,3.8-5,3.9C281.3,58.7,282.1,58,287.8,58.4z"/>
</g>
</svg>
