<?xml version="1.0" encoding="utf-8"?>
<!-- Generator: Adobe Illustrator 25.0.0, SVG Export Plug-In . SVG Version: 6.00 Build 0)  -->
<svg version="1.1" id="Camada_1" xmlns="http://www.w3.org/2000/svg" xmlns:xlink="http://www.w3.org/1999/xlink" x="0px" y="0px"
	 viewBox="0 0 615 255" style="enable-background:new 0 0 615 255;" xml:space="preserve">
<style type="text/css">
	.st0{display:none;}
	.st1{display:inline;stroke:#FFFFFF;stroke-miterlimit:10;}
	.st2{fill:#BEA089;}
	.st3{fill:#B29284;}
	.st4{fill:#E2D0C1;}
	.st5{fill:#E2C0AE;}
	.st6{fill:#A08F8B;}
	.st7{fill:#E4C2B0;}
	.st8{fill:#E4BEAC;}
	.st9{fill:#D0B4A7;}
	.st10{fill:#F1ECEA;}
	.st11{fill:#CEBEB5;}
	.st12{fill:#E0AD99;}
	.st13{fill:#AA7E78;}
	.st14{fill:#B3988B;}
	.st15{fill:#E2D1C1;}
	.st16{fill:#ECEAE9;}
	.st17{fill:#DCA38E;}
	.st18{fill:#F5F5F4;}
	.st19{fill:#BDB2AE;}
	.st20{fill:#B5A9A5;}
	.st21{fill:#D7A08D;}
	.st22{fill:#D4B4A8;}
	.st23{fill:#EED1BA;}
	.st24{fill:#E49881;}
	.st25{fill:#DFC6AF;}
	.st26{fill:#EADAC8;}
	.st27{fill:#C7A79C;}
	.st28{fill:#86584F;}
	.st29{fill:#BD6E5A;}
	.st30{fill:#C39080;}
	.st31{fill:#D2AA9D;}
	.st32{fill:#BA836E;}
	.st33{fill:#D8A38B;}
	.st34{fill:#E5B79B;}
	.st35{fill:#B57A65;}
	.st36{fill:#B0725D;}
	.st37{fill:#A26150;}
	.st38{fill:#D9846D;}
	.st39{fill:#E4E8D8;}
	.st40{fill:#C9846E;}
	.st41{fill:#F3DEC7;}
	.st42{fill:#755F5C;}
	.st43{fill:#DC8A73;}
	.st44{fill:#F5C4AD;}
	.st45{fill:#975143;}
	.st46{fill:#BA7F6A;}
	.st47{fill:#F3A187;}
	.st48{fill:#F2D6BD;}
	.st49{fill:#D7725B;}
	.st50{fill:#883E33;}
	.st51{fill:#99675A;}
	.st52{fill:#A77C6F;}
	.st53{fill:#47322D;}
	.st54{fill:#2B1612;}
	.st55{fill:#CD755F;}
	.st56{fill:#F6BAA1;}
	.st57{fill:#F3B69F;}
	.st58{fill:#EBA690;}
	.st59{fill:#F7A68C;}
	.st60{fill:#E69D88;}
	.st61{fill:#D78771;}
	.st62{fill:#E09A85;}
	.st63{fill:#F6CBAF;}
	.st64{fill:#F6BCA0;}
	.st65{fill:#79382E;}
	.st66{fill:#3E1A15;}
	.st67{fill:#A25B4A;}
	.st68{fill:#890C19;}
	.st69{fill:#8D292A;}
	.st70{fill:#623229;}
	.st71{fill:#CA967E;}
	.st72{fill:#3C1A15;}
	.st73{fill:#911822;}
	.st74{fill:#632D25;}
	.st75{fill:#AB6C5A;}
	.st76{fill:#A06555;}
	.st77{fill:#A94A3B;}
	.st78{fill:#B86753;}
	.st79{fill:#AD5B48;}
	.st80{fill:#AD7E6F;}
	.st81{fill:#A44F3F;}
	.st82{fill:#9D4135;}
	.st83{fill:#C36450;}
	.st84{fill:#C6745E;}
	.st85{fill:#B26350;}
	.st86{fill:#341612;}
	.st87{fill:#DE725B;}
	.st88{fill:#D1634D;}
	.st89{fill:#BB5B48;}
	.st90{fill:#C97E69;}
	.st91{fill:#D75F4A;}
	.st92{fill:#813E32;}
	.st93{fill:#CB6E58;}
	.st94{fill:#8D4639;}
	.st95{fill:#783A30;}
	.st96{fill:#EA7D65;}
	.st97{fill:#F7A489;}
	.st98{fill:#F3B69C;}
	.st99{fill:#BF5846;}
	.st100{fill:#DA664F;}
	.st101{fill:#E78E75;}
	.st102{fill:#E56D56;}
	.st103{fill:#DD8069;}
	.st104{fill:#723229;}
	.st105{fill:#90473A;}
	.st106{fill:#5B221C;}
	.st107{fill:#814034;}
	.st108{fill:#6E4038;}
	.st109{fill:#42221D;}
	.st110{fill:#35201B;}
	.st111{fill:#491E18;}
	.st112{fill:#F7B197;}
	.st113{fill:#9E5345;}
	.st114{fill:#EE9177;}
	.st115{fill:#F3A68D;}
	.st116{fill:#C3A8A1;}
	.st117{fill:#F3B49A;}
	.st118{fill:#F3C5AA;}
	.st119{fill:#DE7E66;}
	.st120{fill:#EB9F85;}
	.st121{fill:#C76651;}
	.st122{fill:#AB9D96;}
	.st123{fill:#975B5A;}
	.st124{fill:#965659;}
	.st125{fill:#170907;}
	.st126{fill:#542820;}
	.st127{fill:#772423;}
	.st128{fill:#7E0714;}
	.st129{fill:#9B7473;}
	.st130{fill:#29110E;}
	.st131{fill:#8D4A3C;}
	.st132{fill:#824539;}
	.st133{fill:#AD5D4A;}
	.st134{fill:#9A6962;}
	.st135{fill:#AA493A;}
	.st136{fill:#9C4A3C;}
	.st137{fill:#1D0B09;}
	.st138{fill:#461B15;}
	.st139{fill:#57241D;}
	.st140{fill:#B78270;}
	.st141{fill:#AE5545;}
	.st142{fill:#994E40;}
	.st143{fill:#572B23;}
	.st144{fill:#71362C;}
	.st145{fill:#CB7E69;}
	.st146{fill:#4D1E18;}
	.st147{fill:#855044;}
	.st148{fill:#EC8F76;}
	.st149{fill:#C9624D;}
	.st150{fill:#B25342;}
	.st151{fill:#D6735C;}
	.st152{fill:#863F33;}
	.st153{fill:#9C4D3E;}
	.st154{fill:#682B23;}
	.st155{fill:#C8644E;}
	.st156{fill:#94382D;}
	.st157{fill:#78362C;}
	.st158{fill:#813D32;}
	.st159{fill:#68382F;}
	.st160{fill:#642922;}
	.st161{fill:#F5967B;}
	.st162{fill:#B64738;}
	.st163{fill:#CB5A46;}
	.st164{fill:#DB937C;}
	.st165{fill:#481D17;}
	.st166{fill:#C76C57;}
	.st167{fill:#2D100C;}
	.st168{fill:#511E18;}
	.st169{fill:#51241D;}
	.st170{fill:#774237;}
	.st171{fill:#2B120E;}
	.st172{fill:#80544C;}
	.st173{fill:#67060E;}
	.st174{fill:#692921;}
	.st175{fill:#2E1411;}
	.st176{fill:#F7C0A7;}
	.st177{fill:#F8A186;}
	.st178{fill:#894336;}
	.st179{fill:#F7C5AB;}
	.st180{fill:#E3937D;}
	.st181{fill:#EAA48D;}
	.st182{fill:#E9B8A0;}
	.st183{fill:#E8A18B;}
	.st184{fill:#DC8973;}
	.st185{fill:#F5C9AE;}
	.st186{fill:#F6D3B8;}
	.st187{fill:#9A4336;}
	.st188{fill:#90202A;}
	.st189{fill:#743D33;}
	.st190{fill:#662C24;}
	.st191{fill:#A85A4A;}
	.st192{fill:#D67B64;}
	.st193{fill:#805750;}
	.st194{fill:#BD7E69;}
	.st195{fill:#200C0A;}
	.st196{fill:#C67A64;}
	.st197{fill:#D1816B;}
	.st198{fill:#914E40;}
	.st199{fill:#D6927B;}
	.st200{fill:#BB6B57;}
	.st201{fill:#4B251E;}
	.st202{fill:#AB5E4C;}
	.st203{fill:#9B4336;}
	.st204{fill:#823127;}
	.st205{fill:#B54C3C;}
	.st206{fill:#AB6D5C;}
	.st207{fill:#AF5846;}
	.st208{fill:#AC8D7C;}
	.st209{fill:#E3A791;}
	.st210{fill:#9B4437;}
	.st211{fill:#873B31;}
	.st212{fill:#83342A;}
	.st213{fill:#742D24;}
	.st214{fill:#E69780;}
	.st215{fill:#D38069;}
	.st216{fill:#CA654F;}
	.st217{fill:#CF7861;}
	.st218{fill:#7B362C;}
	.st219{fill:#75342A;}
	.st220{fill:#A44C3D;}
	.st221{fill:#C05947;}
	.st222{fill:#CF7F69;}
	.st223{fill:#D8B4A0;}
	.st224{fill:#66261E;}
	.st225{fill:#C65E4A;}
	.st226{fill:#B75846;}
	.st227{fill:#B68271;}
	.st228{fill:#954F41;}
	.st229{fill:#A67667;}
	.st230{fill:#78514A;}
	.st231{fill:#D97C64;}
	.st232{fill:#E2AF98;}
	.st233{fill:#F0BDA4;}
	.st234{fill:#B56A55;}
	.st235{fill:#D18B75;}
	.st236{fill:#B86552;}
	.st237{fill:#C2907A;}
	.st238{fill:#994235;}
	.st239{fill:#2D130F;}
	.st240{fill:#702C24;}
	.st241{fill:#C07560;}
	.st242{fill:#9F5C4D;}
	.st243{fill:#6C372D;}
	.st244{fill:#E37760;}
	.st245{fill:#E0A892;}
	.st246{fill:#D1624D;}
	.st247{fill:#A64739;}
	.st248{fill:#874034;}
	.st249{fill:#D7705A;}
</style>
<g id="Camada_2_1_" class="st0">
	<rect x="-359.5" y="-125" class="st1" width="1219" height="569"/>
</g>
<g id="Camada_1_1_">
	<g>
		<path class="st2" d="M398.1,64c0.7,0.3,1.3,0.7,2,1c0,14,0,28,0,41.9c-0.6,0.6-1.2,0.6-1.9,0.4c-3.8-0.9-7.4-1.9-8.3-6.8
			c-0.2-1.3-2.3-1.9-3.7-2.1c-4.3-0.8-6.2-3.4-6.2-7.6c0.7-0.8,1.5-1.4,2.5-1.6c3.9-0.8,7.8-1.1,8.2-6.6c0.1-1.6,2.5-1.7,4-0.2
			c0.3,0.3,0.3,1.6,1.1,0.6c0.3-0.4,0.1-1.3,0.1-1.9c-0.1-2.9-0.1-5.7,0-8.6C396.7,69.7,394.6,66,398.1,64z"/>
		<path class="st3" d="M398.1,106.9c0.7,0,1.3,0,2,0c0,35.9,0,71.9,0,107.8c-1,0.6-1.8,0.5-2.6-0.4c-1.2-2.2-0.8-4.5-0.8-6.8
			c-0.2-14.5-0.1-29,0-43.5c0.2-7.6-0.4-15.3,0-22.9c-0.1-3.2-0.1-6.3,0-9.5c-0.3-6.4-0.1-12.8-0.1-19.2
			C396.6,110.5,396.5,108.5,398.1,106.9z"/>
		<path class="st4" d="M214.6,152.9c0-15.3,0-30.6,0-45.9c5.5-0.1,3.4,3.9,3.6,6.7c-0.1,8.1-1,16.2-0.1,22.3
			c-0.4-6.4-0.7-14.7,0.6-23c0.6-0.2,1.1-0.1,1.5,0.5c1.2,2.3,0.8,4.9,0.8,7.3c-0.2,10.4,0.6,20.8-0.4,31.2
			C218.9,155,216.9,155.1,214.6,152.9z"/>
		<path class="st5" d="M214.6,166.8c0-1.7,0-3.3,0-5c1.5-1.2,2.7-3,5.1-2.4c0.7,0.4,1.2,1,1.5,1.7c0.3,2.6-0.5,5.2-0.2,7.8
			c0,2,0.1,4-0.5,6c-2.9,2.3-0.9,4.6,0.1,6.9c0.6,3.6,0.6,7.3,0,10.9c-0.7,1.9-2.9,2.9-3,5.5c-0.1,1.6-1.8,1.6-3,0.6
			c0-9.3,0-18.6,0-28C216.3,169.5,216.3,168.2,214.6,166.8z"/>
		<path class="st6" d="M366.2,254.7c-40.6,0-81.1,0-121.7,0c-0.3-0.7-0.1-1.3,0.6-1.6c2-1,4.2-0.7,6.4-0.7c36,0,71.9,0,107.9,0
			c2.1,0,4.3-0.3,6.4,0.7C366.3,253.4,366.5,254,366.2,254.7z"/>
		<path class="st7" d="M214.6,96.9c0-8.3,0-16.6,0-25c2.3-0.5,2-5.1,5.6-3.6c1.5,4.6,2,9.3,0.3,14c-1.1,2.9,1.1,5.8,0.3,8.8
			C219.2,93.7,218.8,97.4,214.6,96.9z"/>
		<path class="st8" d="M214.6,64c0-8.7,0-17.3,0-26c0.8-0.7,1.8-0.9,2.8-0.5c1.3,1.3,1.6,3.3,3.2,4.5c2.2,6.4,1.8,12.7-0.7,18.9
			c-3.4-0.8-0.9-3.4-1.7-4.6c-0.2,1.4,0.2,3.2-0.2,4.9C217.6,63,217.3,65.1,214.6,64z"/>
		<path class="st9" d="M214.6,198.8c1.1-0.1,2.9,0.4,2.1-1.8c-1-2.8,1.5-2.5,2.8-3.1c2.1,2.3,1.6,5,0.9,7.5
			c-0.7,2.5-0.9,4.8-0.5,7.3c-0.1,2.6,0.6,5.2,0.3,7.8c-1.8,2.2-2.2,5-3.5,7.4c-0.7,0.5-1.4,0.6-2.1,0
			C214.6,215.4,214.6,207.1,214.6,198.8z"/>
		<path class="st10" d="M238.5,1.9c0-0.6,0-1.2,0.1-1.8c31.9,0,63.8,0,95.8,0c0.5,1.4,2.1,2.2,2,3.9c-17.7-3-35.5-0.9-53.3-1.4
			c-13.6-0.4-27.1-0.1-40.7,0C241,2.6,239.6,2.8,238.5,1.9z"/>
		<path class="st11" d="M217.5,38c-1,0-2,0-3,0c0-2.3,0-4.7,0-7c3.1-1.2,3-4.4,4-6.8c3.2-7.8,6-15.9,14.8-19.4
			c0.4,0.3,0.6,0.7,0.7,1.3c0,1-0.6,1.8-1.2,2.6c-7.5,5.2-10.4,13.1-12.6,21.3C218.3,32.3,219.6,35.7,217.5,38z"/>
		<path class="st12" d="M214.6,96.9c2.2-1.6,4.3-3.2,5.1-6.1c1.5-1,3.2-1.2,4.1,0.5c1.4,2.3-1.1,3.3-2.1,4.7
			c-0.9,1.6-0.7,3.4-0.7,5.2c-0.3,4,0,8-1.5,11.8c-0.3,0-0.6-0.1-0.9-0.1l0,0c-0.8-1.1-2.4-1.7-1.7-3.7c0.6-1.8-0.9-2.1-2.3-2.3
			C214.6,103.6,214.6,100.3,214.6,96.9z"/>
		<path class="st13" d="M398.2,214.8c0.7,0,1.3,0,2,0c0,10.3,0,20.6,0,31c-0.9,0.6-1.7,0.5-2.5-0.3c-1.7-5.2-0.9-10.5-0.9-15.8
			C397.4,224.7,395.4,219.5,398.2,214.8z"/>
		<path class="st14" d="M214.6,223.8c0.7,0,1.3,0,2,0c0.2,0.2,0.4,0.4,0.6,0.6c0.5,3.9,2.7,7.5,2.4,11.6c-2.1,3.7-0.8,8.1-2.6,11.8
			c-0.8,0.6-1.5,0.6-2.3,0C214.6,239.7,214.6,231.8,214.6,223.8z"/>
		<path class="st15" d="M214.6,64c3.5-1.6,2.8-5,3.1-8.3c1.6,1.8,0,4.2,1.8,5.4c3.1,2.3,3,4.6,0,7c-1.9,1.1-1.1,5.4-5,4
			C214.6,69.3,214.6,66.7,214.6,64z"/>
		<path class="st16" d="M398.2,245.7c0.7,0,1.3,0,2,0c0,3,0.9,8.1-0.2,8.6c-2.7,1.3-6.5,0.4-9.8,0.4c-0.3-0.3-0.5-0.6-0.4-1
			c0.2-0.6,0.6-1.1,0.9-1.5c0.4-0.5,0.7-1,1.1-1.5c0.5-0.4,1-0.7,1.6-1C395.9,249.5,396.6,247.1,398.2,245.7z"/>
		<path class="st17" d="M219.5,159.9c-1.9,0-2.7,2.6-4.9,1.9c0-3,0-6,0-9c1.6,0.1,3.2,1.5,4.8,0c0.2,0.2,0.4,0.3,0.6,0.5
			c1,1.7,0.9,3.5,0.4,5.4C220.2,159.2,219.9,159.6,219.5,159.9z"/>
		<path class="st18" d="M214.6,247.7c0.6,0,1.3,0.1,1.9,0.1c2,0.3,2.9,1.9,3.9,3.3c0.5,1.1,1.8,2.1,1.1,3.6
			C214.6,254.7,214.6,254.7,214.6,247.7z"/>
		<path class="st19" d="M221.5,254.7c-0.7-1-1.3-2-2-3c1.4-1,2.7-0.3,4,0.2c5.6,1,11.3,0.2,16.9,0.5c1.5,0.1,3,0.1,4.1,1.4
			c0,0.3,0,0.7,0,1C236.8,254.7,229.2,254.7,221.5,254.7z"/>
		<path class="st20" d="M390.2,253.7c0,0.3,0,0.6,0,1c-8,0-16,0-23.9,0c0-0.3,0-0.7,0-1c5-2.7,10.3-1,15.5-1.3
			C384.5,252.2,387.6,251.5,390.2,253.7z"/>
		<path class="st21" d="M214.6,166.8c1.6,0,3.1,0.1,2.9,2.2c-0.1,1.9-1.6,1.7-2.9,1.8C214.6,169.5,214.6,168.2,214.6,166.8z"/>
		<path class="st22" d="M233.5,6.1c0-0.4-0.1-0.9-0.1-1.3c1.7-1,3.4-1.9,5-2.9c2-0.9,4.2-0.8,6.3-0.8c27.7,0,55.3,0.1,83-0.1
			c3.3,0,6.2,0.6,8.6,2.9c9.3,4.9,12.1,14.4,15.6,23.2c1.5,3.7,3.3,5.4,7.2,5c-2.5,4.1-5.4,2-8.4,0.7c-1.6-1.6-0.4-3.8-1.4-5.6
			c-0.8-2.5-2.5-4.5-3.9-6.7c-2.3-8.7-10-16.1-19.8-15.3c-3.5,0.3-6.9,0-10.4,0.1c-7.9,0.1-15.9,0.4-23.8-0.2
			c-4.3-1.4-8.6-0.4-12.9-0.1c-6.6,1.1-13.3-1.1-19.9,0.3c-1.9,0.1-3.8,0-5.8,0c-1.3,0-2.6,0-3.9-0.1c-3.8-0.8-7.6-0.5-11.3,0.8
			C236.3,6.7,234.9,7.4,233.5,6.1z"/>
		<path class="st23" d="M390.1,44c-1.9,3.3-1.8,6.1,2.1,7.9c0.7,2.3,2.3,4.8-0.9,6.6c-2.4-0.2-4.6-1.5-7-1.5c-4-2.4-6.1-7.2-10.7-9
			c-0.4-0.2-0.9-0.5-1.4-0.5c-4,0.1-7-0.8-7.2-5.6c0-0.7-0.8-1.4-1.2-2.1c-0.2-2.3-2.3-4.8,0.4-7c3.2,0.7,2.8,5.7,6.8,5.5
			c3,1.2,5.2,3.8,8.2,5c3.1,1.8,6.1,4.3,9.5,0.6C389.2,43.7,389.7,43.7,390.1,44z"/>
		<path class="st24" d="M367.2,15.2c7,3,12.9,7.8,19.5,11.5c1.8,1,1.9,2.5,1.3,4.2c-2,0.3-3.9,0-5.6-0.9c-5.4-2.6-5.4-2.6-5.8,3
			c-2.5,1.6-3.2-0.7-4.4-2c-0.3-0.4-0.5-0.8-0.6-1.2c-0.6-1.6,0-3.8-2.3-4.5c-1.8-1.5-3.5-3.1-5.2-4.7c-1.9-1.8-1.9-4.5-0.6-6.4
			C364.6,12.6,366,14.5,367.2,15.2z"/>
		<path class="st25" d="M391.2,58c2.3-1.7-0.1-4.2,1-6.1c3.4,3.3,5.6,7.2,5.9,12c-0.3,2.7-0.6,5.3-1,8c-1.1,1-2.3,1.2-3.7,1
			c-0.5-0.1-1-0.3-1.5-0.5C388.5,67.8,391.1,62.9,391.2,58z"/>
		<path class="st26" d="M364.3,33c-1.7,2,1.6,4-0.1,6c-3.4,1.5-7,1.4-10.5,1.2c-5.2-0.2-6.5-2.9-4.3-7.9c0.3-0.1,0.5-0.2,0.8-0.4
			c3,0.6,5.9,2.1,8.9,0.1c3.1,1.4,2.7-2.1,4.2-3C364.4,30.2,364.8,31.5,364.3,33z"/>
		<path class="st27" d="M367.2,15.2c-1.1-0.2-2.1-0.4-3.2-0.5c0.6,1.8-1.1,3.8,0.7,5.4c1.8,1.6,3.6,3.3,5.4,4.9
			c0.7,0.7,0.7,1.6-0.1,2.1c-1.2,0.8-2.1,0.2-2.8-1c-0.1-0.5,0-1.3-0.2-1.4c-5.5-1.7-5.1-8.1-8.8-11.3c-0.7-0.6-0.9-1.4-0.3-2.2
			c0.7-0.9,1.7-1.2,2.6-0.7C363,11.7,365.7,12.6,367.2,15.2z"/>
		<path class="st28" d="M367.3,26.1c1.5,1,2.7,1.5,2.8-1.1c3.8,0.3,1.7,3.2,2.2,5c-5.5,2.4-2.1,5.9-1.1,9.1c-5,1-4.6-4.1-6.8-6.1
			c-0.9-1.1-1-2.5-1-3.8C364.5,28,365.4,26.4,367.3,26.1z"/>
		<path class="st29" d="M376.2,33c-0.1-0.7-0.1-1.3-0.2-2c-0.3-1.5-2.9-2.8-1.2-4.3c1.2-1.1,3.4,1.7,5.2-0.2c1.9,3,5.7,2.3,8.1,4.3
			c0.1,0.3,0.2,0.7,0.3,1c0.6,1,0.5,1.8-0.6,2.4c-3-0.4-5.3-2.9-8.4-2.7C378.1,31.7,377.7,33.5,376.2,33z"/>
		<path class="st30" d="M387.4,34.1c0.3-0.7,0.6-1.5,0.9-2.2c2,1.4,4,2.7,5.9,4.1c1.5,2.5-0.9,3.6-1.9,5.2c-0.7,0.9-1.5,1.9-2.2,2.8
			h-0.4h-0.4C390,40.5,386.9,37.6,387.4,34.1z"/>
		<path class="st31" d="M392.3,41.2c-0.4-2.1,2-3.2,1.9-5.2C397.2,38.9,396.8,39.7,392.3,41.2z"/>
		<path class="st32" d="M398.1,106.9c0,8.3,0,16.6,0,25c-0.9,0.5-1.7,1.1-2.4,1.7c-1.4,1.2-2.9,1.6-4.6,0.6c-1.6-1-2.2-2.6-1.7-4.3
			c0.6-2.2,0.2-3.7-1.4-5.3c-2.6-2.6-2.7-6.1-2.2-9.3c1.4-8.7-3-12.6-11.4-9.6c-4.2,1.5-7.8,2.9-11.8-1c-3-2.9-5.7,0.5-7.4,2.5
			c-1.5,1.8-2,4.6,1.4,6c2.8,1.2,2.6,4,3,6.4c0.9,2.4,3,4,4.3,6.1c1.2,2,2,4.1-1.3,4.9c-1.6-0.1-2.7-1-3.8-2.1c-7-9.3-7-9.3-15-1.1
			c-1.6,1.6-3.2,3.3-5,4.8c-0.4,0.3-0.7,0.6-1.1,0.8c-2.6,1.6-4.3,4.4-7.8,4.8c-2.6,0.3-0.3,2.8-0.9,4.1c-0.4,1.9-1.8,3.1-3,4.5
			c-1.7,2.1-2.7,4.1-0.6,6.6c0.7,0.8,1.7,2,0.3,3c-1.1,0.8-2.2-0.1-3.1-0.8c-1.6-1.4-3.3-2.8-4.7-4.3c-2-2.9-1.3-5.6,0.7-8.2
			c1-1.3,2.1-2.6,2.9-4c4.1-4.2,5.8-10.5,11.1-13.7c1-0.5,2.2-1,3.3-0.6c2.5,1,4.1,0,4.9-2.1c-1.7,0.9-3.9,2.6-4.3-1.4
			c0.2-1.2,0.8-2.2,1.6-3.1c6-6.8,9.9-15.3,16.5-21.7c0.9-0.5,1.8-0.7,2.8-0.5c1.7,0.8,3.5,0.6,5.3,0.3c2.9-0.4,5.7-0.8,8.7-0.1
			c3.6,0.9,4.4-0.2,3.7-4c-0.7-3.5,0.1-4.1,4.5-2.8c0.6,0.5,1,1,0.7,1.9c1.2,4.3,4.1,6.5,8.5,7c0.3,0,0.5,0.5,0.8,0.5
			c4,0.6,1.9,4.4,3.3,6.4C394.2,106.9,398.1,101.7,398.1,106.9z"/>
		<path class="st33" d="M380.2,91c-0.3-0.3-0.7-0.7-1-1c-1-1.3-0.8-2.5,0.3-3.5c0.9-0.9,1.7-1.8,0.2-2.7c-1.2-0.8-2.2-0.2-3,0.8
			c-0.6,0.8-1,1.7-1.5,2.6c-1.7,3.3-4.7,3.6-7.7,2.7c-3.2-1-1.9-3.7-1.7-5.9c0.8-5.2,4.9-8.3,7.9-12.1c1-0.8,2-1.3,3.3-1.2
			c0.5,0.2,0.9,0.4,1.2,0.8c4.7,6.3,4.7,6.3,10.9,1.5c0.9-0.7,1.7-1.6,3-1c0.3,0,0.7,0,1,0c0.8,0.7,1.3,1.7,1,2.6
			c-1.1,3.4,0.8,5.4,3,7.4c-0.1,1.4,0.6,3.6-1,4.1c-2.3,0.7-1.7-1.7-2.2-2.9c-0.3-0.7-0.8-1.1-1.5-0.9c-1.2,0.2-1.7,1.2-1.7,2.2
			c0.1,1.5,0.5,2.9-0.5,4.3c-0.6,0.8-1.4,2.4-2,1.8C385.2,87.3,382.9,91.6,380.2,91z"/>
		<path class="st34" d="M397.1,82c-7.3-0.9-3.7-6.2-4-9.9c1.3,0,2.7,0,4,0C397.1,75.3,397.1,78.6,397.1,82z"/>
		<path class="st35" d="M358.2,119.9c0-2.8,0.5-5.6-3.7-6.2c-3.6-0.5-1.4-3.5-1.2-5.3c0.6-4.6,7.3-8.1,10.1-5
			c4.2,4.8,7.7,1.8,11.5,0.5c1.6-0.5,3.1-1.2,4.8-1c6,0.8,8.5,6.1,7.2,12.1c-0.7,3-1.1,7.4,3,9.6c1.8,1,2.5,2,1,3.9
			c-1.2,1.5-1.3,3.2,0.2,4.5c1.9,1.6,3.1,0.5,4.2-1.2c0.6-0.9,1.8-0.5,2.7,0c0,3,0,6,0,9c-8.5,3.5-14.4-0.6-13.5-9.4
			c0.1-1,0.2-2,0-3c-0.4-2.4-1.2-3.7-3.8-1.9c-2.3,1.6-4.8,2.9-7.2,4.4c-1.3,0.9-2.9,1.1-4.2,0c-1.2-1.1-0.9-2.3,0-3.5
			c0.3-0.5,1.2-1.3,0.4-1.5C365.5,124.7,363.3,119.5,358.2,119.9z"/>
		<path class="st36" d="M358.2,119.9c2.3-1.6,4.2-1.8,6.4,0.7c1.6,2,3.2,4.9,6.8,3.7c0.3-0.1,1.2,0.7,1.4,1.2
			c0.5,1.2-0.4,1.8-1.4,2.2c-1.1,0.5-2.6,0.8-1.7,2.3c0.8,1.4,2.3,1.1,3.4,0.1c2.7-2.8,6.8-3.3,9.4-6.2c1.3-1.4,2.7-0.9,2.7,0.8
			c-0.1,2.8,2.2,5.1,0.6,8.5c-1.2,2.4,0.1,6,4.2,7.1c2.8,0.8,5.6,0.4,8.4,0.6c0,7.7,0,15.3,0,23c-0.4,0.3-0.9,0.3-1.3,0.1
			c-2.2-1.7-1.6-4.2-1.7-6.4c-0.3-5.4-2.8-8.3-8.1-9c-2-0.3-2.7-1.8-3.9-2.8c-0.8-0.7-1.8-2.1-2.4,0.2c-0.2,0.9-0.6,1.7-1.4,2.2
			c-3.5-0.1-5.5-2.6-7.5-5c-2.9-3.6-5.6-7.3-8.9-10.6c-0.6-0.8-1.1-1.6-0.6-2.6c3.2-0.7,2-2.3,0.7-3.8
			C361.2,124.1,359.2,122.4,358.2,119.9z"/>
		<path class="st37" d="M397.1,163.9c0.3,0,0.6,0,0.9,0c0,17,0.1,33.9,0.1,50.9c0,5-0.1,10-0.1,15.1c-2.7,0.8-3.3-0.5-2.8-2.9
			c1.1-3.7,0.7-7.5,0-11.2c-0.7-3.9-0.7-7.9-0.2-11.9c0.5-3.9,0.2-7.9-1.5-11.1c-2.5-4.7-1.4-8.5,0.8-12.5
			C393.5,174.5,395.7,169.3,397.1,163.9z"/>
		<path class="st38" d="M219.5,113c-1.8-4,0.7-8,0.1-12.1c3.3-1.1,6.4,0.5,9.5,1.1c1.6,0.3,2.4,1.6,2.4,3.2
			c-0.1,1.2-0.5,2.4-1.6,2.8c-2.8,1.2-4.6,2.5-3,6.1c0.6,1.5-1.7,2.5-3.1,3.2c-2.7,2.2-1.5,5.2-1.7,7.9c-0.2,1.8,0,3.7,0,5.5
			c-0.3,5.6,0.2,11.2,1,16.8c0.4,2.7,0.5,5.1-3.2,5.3h-0.3C219.4,139.6,219.4,126.3,219.5,113z"/>
		<path class="st39" d="M218.6,112.9c0,8.9,0,17.9,0,26.8C216.9,130.8,215.9,121.8,218.6,112.9C218.5,112.9,218.6,112.9,218.6,112.9
			z"/>
		<path class="st40" d="M219.5,159.9c0-0.4,0.1-0.7,0.1-1.1c1.4-1.2,3-1.4,4.7-1c3.4,1.3,3.8,3.8,2.5,6.7c-1,2.3-2.1,4.5-1.6,7
			c-2.2,4.8-0.7,10.4-3.1,15.3c-0.7,1.5-0.5,3.4,0.3,4.8c2.2,3.9,1.5,7.6-0.6,11.2c-1,1.8-0.8,3.9-1.9,5.6c-0.4,0.4-0.8,0.4-1.3,0.2
			c-1.8-5.1,2.3-9.9,0.9-15.1c0-4.3,0.1-8.6,0.1-13c-1.2-1.7-1.3-3.3,0-5c0-2.3,0-4.6,0-7c1.7-2.5,2-5.1,0.9-8
			C220.1,160.6,219.8,160.2,219.5,159.9z"/>
		<path class="st17" d="M220.5,160.9c2.4,3,3.5,5.8-0.9,8C219.3,166.2,219.8,163.5,220.5,160.9z"/>
		<path class="st41" d="M219.6,175.8c0,1.7,0,3.3,0,5c-2.8-0.3-1.9-2.5-2-4.1C217.5,175,218.6,175.6,219.6,175.8z"/>
		<path class="st42" d="M390.2,253.7c-8,0-16,0-24-0.1c-40.6,0-81.1,0-121.7,0c-1.3,0-2.6-0.1-3.9-0.1c-0.1-0.7,0.2-1.2,0.8-1.6
			c7.8-1.7,15.6-0.5,23.5-0.8c39.6,0.1,79.1,0,118.7,0.1c2.6,0,5.4-0.7,7.6,1.4C390.8,253.1,390.5,253.4,390.2,253.7z"/>
		<path class="st43" d="M219.5,68c1.2-2.3,1.4-4.6,0-7c0.8-6.6,1.5-13.3,0.2-19.9c3.3-1.5,4.5-4.7,6-7.7c3.3-1.8,5.6-6.5,10.6-3.9
			c0.4,0.3,0.5,0.7,0.6,1.2c-0.5,1.9-2.6,2.4-3.5,4c-1.1,2.1,0.3,4.4-0.5,6.5c-0.1,1.3,0.3,2.6,0.4,3.9c-0.4,3.1-2.9,3.4-5.1,3.6
			c-3.3,0.3-2.6,1.7-1.1,3.4c1,1.2,2.2,2.3,3.2,3.6c1.1,2,3,3.7,2.8,6.4c-1.1,2.3-3.3,1.7-5.2,2c-1.4,0.2-3.2,0.6-2.5,2.2
			c1.2,2.7,0,5.6,1.1,8.3c2,3.4,4.9,6.5,2.6,10.9c-0.1,2.2,0.6,4.2,1.6,6.2c1.2,2.3,0.8,4.6-0.9,6.5c-2,2.1-3.6,0.1-5.2-0.9
			c-1.5-1-3.5-1.1-4.9-2.4c0.6-1.8,4.1-0.1,3.7-2.8c-0.3-1.9-2.3-1-3.6-1.3C217.8,83.2,221.5,75.6,219.5,68z"/>
		<path class="st44" d="M226.5,34c-1.7,2.9-1.3,7.9-6.8,7.1c-3.6,1-1.6-1.9-2.2-3.1c0.4-3.1-1.2-6.6,2.1-9c2-0.4,1.8-1.9,2-3.5
			c0.1-1.2-0.2-3.5,2.5-2.2C224.7,26.9,228.5,29.8,226.5,34z"/>
		<path class="st45" d="M218.6,208.9c0.3,0,0.6,0,0.9-0.1c2.2-0.9,3.7-1.7,3-4.8c-1-4,3.5-6.8,3.6-10.2c0.1-3.4-2.2-6.8-0.9-10.5
			c0.4-1.1,0.6-2.3,1.9-2.7c6.1,6.1,7.9,13.4,5,20c-4,4.4-5.8,9.5-4.9,15.5c0.2,1.2,0.2,2.4-0.5,3.4c-2.6,3.4-4.2,7-4.2,11.4
			c0,1.1-0.5,2.9-2.5,1.6c-1.5-3.7-0.4-7.8-1.7-11.5c-0.1-1.5,0.4-2.9,1.2-4.1C218.6,214.2,218.2,211.6,218.6,208.9z"/>
		<path class="st46" d="M219.6,216.8c0,1.3,0,2.7-0.1,4c-0.4,0.4-0.5,1-0.8,1.5c-0.5,0.8-0.7,1.9-2.1,1.4h-0.2
			C216.7,221.1,215.7,217.9,219.6,216.8z"/>
		<path class="st47" d="M226.5,34c0.3-4-4.2-6.7-3-11c-0.4-1.1,0.2-1.9,1.1-2.5c2.5-1,5.1-1.2,8.5-1.2c-3.5-1.7-3.7-4.1-2.8-6.9
			c0.6-1.6,1.3-3.1,2.2-4.5c0.4-0.6,0.7-1.3,1.1-1.9c4.9-1.4,9.7-3.5,15-2c3.5,4.8,2.9,6.4-2.9,7.4c-2.4,0.4-4.6,0.1-7.2-1.5
			c-0.6,6.5,3.1,10.5,6.3,14.7c0.2,0.4,0.2,0.9,0.1,1.3c-1.4,2.7-5.1,0.8-6.7,3.2c-0.5,0.5-1,0.8-1.7,0.9
			C232,28.4,229.7,32.5,226.5,34z"/>
		<path class="st48" d="M224.6,21.1c-0.4,0.6-0.8,1.3-1.1,1.9c-1.5,1.3-0.8,3.1-0.9,4.7c-0.1,2.6-1.4,2.1-3,1.3
			c1.9-8.5,4.5-16.5,12.9-21c0.5,1.8-0.9,3.3-1,5c-0.8,0.6-1.8,1.1-1.8,2.2C229.7,18.7,227.4,20.1,224.6,21.1z"/>
		<path class="st49" d="M219.6,95c2.1,0.1,4.2-0.4,6,1.4c0.8,0.8,1.8,3.1,3.3,1.3c1-1.2,2.1-3.2,0.8-4.9c-1.8-2.4-2.4-4.9-2.2-7.8
			c2.2-2.1,4.3,0,6.8,0.2c-0.1-2.4-3.4-4.9-0.8-7c1.7-1.4,4.2-2.7,6.6-0.7c0.5,0.9,0.7,1.9,0.7,2.9c-0.3,4,1.3,5.2,5.3,4.7
			c3.5-0.4,5.8,1.2,5.1,5.3c-1.4,2.8-5,0.9-7.6,3.9c3.4-1.2,6.3-3.6,8.3,0.3c0.5,2.4,2.3,3.7,4.2,4.9c1.5,2.6,3.3,5.3,0.3,8.1
			c-2.9,1.1-5.9,1.6-8.9,0.4c-3.6-2.2-6.2-5.2-7.6-9.3c-0.5-1.7-1-4-3.1-4c-2.3,0-2.6,2.6-3.4,4.3c-1,2.3-0.2,5-1.6,7.1
			c-0.4,0.3-0.8,0.3-1.3,0c0.1-2-0.7-3-2.9-3c-2.8-0.1-5.5-0.9-8.1-2C219.6,98.9,219.6,97,219.6,95z"/>
		<path class="st50" d="M396.1,227.7c-0.9,2,1,1.7,1.9,2.1c0,5.3,0.1,10.6,0.1,15.9c-0.4,2.9-1.4,5.2-4.9,4.8
			c-0.3-1.4,1-1.9,1.5-2.8c3.1-5.6-1.2-9.2-3.5-13.4c-1.2-3.2-3-5.5-6.4-7c-4.2-1.8-4.6-4.9-1.6-8.6c1.3-1.6,3.3-3.3-0.8-3.7
			c-2.3-0.3-4.9,0.1-5.4-3.2c7-4.7,9.9-4.7,13.9-0.3c0.7,1.3,1.3,2.7,1.3,4.2c0.1,3.4,0.9,6.4,3.6,8.8
			C396.5,225.3,397,226.6,396.1,227.7z"/>
		<path class="st51" d="M218.5,221.8c0.3-0.3,0.7-0.7,1-1c1.5,3.9,0.9,8,1.1,12c1.8,2.1,1.9,4.9,1,7c-1.9,4.4-1.3,7.7,2.6,10.4
			c0.2,0.8,0.2,1.6-0.2,2.4c-0.4,0.5-0.9,0.6-1.4,0.2c-1-0.4-2-0.7-3-1.1c-1-1.3-2-2.6-3.1-3.9c0.6-4-1.2-8.5,2.1-12.1
			c1.6-3-0.9-5.7-0.5-8.6C218.3,225.3,217.7,223.5,218.5,221.8z"/>
		<path class="st52" d="M218.5,221.8c1.1,4.7,1.9,9.3,0,14c-0.6-4-3-7.7-1.9-12C217.3,223.1,217.9,222.4,218.5,221.8z"/>
		<path class="st53" d="M391.2,252.7c-39.4,0-78.8,0-118.3,0c-2.8,0-5.6-0.1-8.4-0.1c1.6-3.7,5-1.6,7.5-2.4
			c16.8,0.1,33.6,0,50.3,0.1c14.6,0,29.2-0.1,43.8,0c6.3,0,12.6-0.1,18.8-0.1c2.4,0,5-0.4,7.1,1.5
			C392.1,252.4,391.7,252.6,391.2,252.7z"/>
		<path class="st54" d="M392,251.7c-8.6,0-17.2,0-25.8,0c-0.9-3.6,2.3-2.9,4-3.9c3.2-0.5,6.5-0.7,9.8-1c5.1,0,10.4-1.5,15.1,1.9
			c-0.6,0.6-1.2,1.2-1.8,1.8C392.8,250.9,392.4,251.3,392,251.7z"/>
		<path class="st55" d="M224.6,158.8c-1.7,0-3.3,0-5,0c0-2,0.1-4,0.1-6c5.3-2.7,0.9-7,1.2-10.3c0.3-3.7-0.1-7.7-0.3-11.6
			c3.9,1.6,2.1,5.7,3.5,8.4c1.1,2.3,2,5.3,2.1,8.3C225.2,151.2,227.2,155.4,224.6,158.8z"/>
		<path class="st6" d="M222.5,252.8c0.4,0,0.7-0.1,1.1-0.1c5.3-2.2,10.8-1.7,16.2-0.6c0.2,0.2,0.5,0.4,0.7,0.6c0,0.3,0,0.6,0.1,0.9
			C234.6,253.4,228.5,254.8,222.5,252.8z"/>
		<path class="st56" d="M244.5,25.1c-5.2-3.6-7.6-8.5-7.3-14.9c0.1-2.8,1.5-2.4,2.5-1.2c2.7,3.2,6.1,1.4,8.6,0.7
			c3.8-1-0.5-3.7,0.2-5.6c1.3,0,2.6,0,3.9,0c1.3,2.1,2,4.9,5.8,3.6c1.8-0.6,3.2,1.3,4.6,2.4c1.7,1.3,3.5,2.5,5.5,3.2
			c10.8-1.2,21.6-0.5,32.4-0.6c8.8-0.1,17.6-0.1,26.4,0.1c5.8,0.1,8.1,1.9,9.5,6.7c-1.7,2.1-3,0.2-4.1-0.6c-2.3-1.6-4.7-2.3-7.5-2.3
			c-15.3,0-30.5,0-45.8,0c-1,0-2-0.1-3,0.8c1.2,2.2,3.9,3.3,4.3,5.9c-4,1.4-5.4,4.4-6.7,8.3c-1.4,4.2-5.2,2.1-8.2,1.4
			c-2.2-1.5-3.8-2.9-0.7-5.2c2.2-1.6,1.2-3.6,0.2-5.3c-1.3-2.2-3-4.2-5.5-4.7c-1.4-0.3-1.3,1.6-1.7,2.6c-1.3,2.7-8.9,6.9-11.8,6.5
			C245.3,26.5,245,25.7,244.5,25.1z"/>
		<path class="st57" d="M290.4,4c8.6,0,17.3,0,25.9,0.1c0.4,0.4,0.5,0.8,0.5,1.4c-1.6,3.4-2.8,5.8-8.1,5c-3.2-0.5-7.6,0.4-11.3,1.7
			c-2.6,1.2-5.3,0.3-7.9,0.4c-6.6-0.1-13.3,0.1-19.9-0.1c-5.3-0.1-10.3-4-11.2-8.3c7-1.5,14,0.4,21,0C283.1,7.2,286.8,5.5,290.4,4z"
			/>
		<path class="st58" d="M316.3,5.1c0-0.3,0-0.7,0-1c5.3,0.3,10.5-0.4,15.8,0.6c7.6,1.5,14,8.5,14.2,16.3c-2.4,1.6-4.9,1.4-5.3-1.2
			c-0.8-4.7-3.9-5.1-7.4-5.6c-0.7-0.2-1.3-0.4-1.9-0.8c-0.4-0.2-0.8-0.4-1.2-0.6c-1.5-0.6-3.1-0.5-4.6-1c-0.6-0.2-1.6-0.4-1.7-0.9
			C323.3,6.6,319.3,6.6,316.3,5.1z"/>
		<path class="st59" d="M258.5,4.1c3.1,3.8,6.5,7.2,12,7c6.6-0.2,13.3,0,19.9,0c-0.4,2.9-2.7,1.9-4.3,2c-6.5,0.3-13-0.6-19.4,0.9
			c-2.3-0.9-4.3-2.3-6.1-4.1c-0.8-0.8-1.6-2-2.9-1.2c-6.3,3.8-5-1.3-5.3-4.5C254.5,4.1,256.5,4.1,258.5,4.1z"/>
		<path class="st60" d="M333.3,13.1c1.3,0.2,2.7,0.8,3.8,0.5c3.4-1,4.2,0.8,4.2,3.6c0,3.5,1.7,4.7,5,3.9c3,0.9,3.1,3.7,4,6
			c0.7,4.3-3,3.1-4.8,3.4c-2,0.3-2.7-1.5-2.1-3.4c0.6-2.2-0.2-3.5-2.2-4.3C338,19.9,334.9,17.1,333.3,13.1z"/>
		<path class="st61" d="M341.3,22.1c2.9-0.1,4.4,1.1,3.8,4.2c-0.2,1-2,1.8-0.8,3c1.3,1.3,2.4-0.2,3.6-0.6c0.9-0.3,2.6,0.2,2.4-1.7
			c1.8,1.7,0.8,3.4,0,5l-0.1,0.1c-1.8,1-3.6,1.8-5.7,1.9c-1.3,0-2.5-0.4-3.4-1.4c-0.8-0.9-1.1-2.1-1.6-3.2c-0.5-1-1-2-0.5-3.2
			C340.4,25.2,340,23.2,341.3,22.1z"/>
		<path class="st62" d="M290.4,4c-3.8,4.4-8.5,4.4-11,0.1C283.1,3.6,286.7,1.8,290.4,4z"/>
		<path class="st63" d="M344.3,33.1c1.9-0.5,3.8-1.3,5.9-0.9c-1.8,5.9-1,6.9,5,6.9c3,0,6-1.6,9,0c1.5,1.4,3.7,2.5,2.8,5.2
			c-0.6,1.9,0.8,1.7,2,1.8c1.7,0.2,3.7-0.7,5.1,1c-0.8,3.2-2.4,4.5-5.5,2.3c-1.2-0.8-2.5-0.4-3.7-0.2c-1.2,0.2-2.4,0.1-3.6-0.2
			c-4-1.8-7.3-1.4-9.5,2.9c-0.9,1.8-2.6,2.5-4.6,1.8c-2.3-1.2-4.9-0.6-7.3-1.5c-2.2-0.8-3.3-2.5-1.2-4c2.7-1.9,2.7-4.7,3.8-7.2
			c0.6-0.9,0.7-1.6,0-2.6C339.8,34.6,339.9,34.3,344.3,33.1z"/>
		<path class="st34" d="M392.1,72c-1.1,0.9-2.3,1.8-3.3,2.9c-5.1,5-8.3,4.3-11-2.6c-0.2-0.5-0.4-0.9-0.6-1.3
			c-0.5-1.5,0.3-2.6,1.2-3.6c1.4-1.1,1.9-2.8,3.1-4.1c0.8-2,4.5-2.8,2.5-6c-0.2-0.4-0.1-0.8,0.2-1.2c2.6-0.3,5,0.2,7,2
			c1.3,2.9,1.1,6,0.4,8.9C391.1,68.8,391.3,70.4,392.1,72z"/>
		<path class="st64" d="M384.2,56c0,0.3,0,0.7,0,1c-0.1,2.4-1.2,4.1-3.3,5.2c-0.5,0.2-0.9,0.2-1.4,0.1c-2.4-0.9-2.7-3.3-3.4-5.4
			c-0.8,0.8-1,1.8-1.8,2.5c-1.8,0.9-3.1,2.4-4.4,3.9c-1.2,1.4-2.5,2.8-4.7,2c-3.5-3.3-2.1-6.8-0.7-10.4c-0.2-2.3-2.1-4.8,0.7-6.9
			c1.2-0.5,2.8-1.7,3.5-0.5c2.4,3.7,3.7,0.6,5.4-0.5C378.7,48.7,381.1,52.7,384.2,56z"/>
		<path class="st65" d="M387.4,34.1c0,0.5-0.2,1.3,0,1.4c4.2,2.1,3.7,5.2,1.8,8.5c-3.3,6.2-6.8,2.3-10.2,0.1
			c1.5-1.8,3.7-3.4,1.8-6.2c0.3-1.8,0.6-3.6-1.5-4.7c-1.1-0.6-2.3-1.5-1.2-3.1C382,29.8,384.9,31.4,387.4,34.1z"/>
		<path class="st66" d="M381.2,38.1c3.3,2.9,2.9,4.2-2.2,6c-3.2-0.7-5.3-3.3-7.9-5c-0.6-0.5-1.2-1-1.7-1.6c-1.2-1.4-3.5-3.8-2.6-4.6
			c1.4-1.2,2.8-3.6,5.4-2.9h0.1C374.2,33.8,377.2,36.5,381.2,38.1z"/>
		<path class="st67" d="M381.2,38.1c-1,2-2.4,1.8-3.4,0.3c-1.8-2.8-5.1-4.7-5.5-8.4c1.8,0.4,1.7,3.2,3.9,3.1c0.7-1,1.3-2,2-3
			c0,1.5,1,1.7,2.1,2.2C383.4,33.7,384,35.7,381.2,38.1z"/>
		<path class="st68" d="M362.2,129.9c0.4,0.6,0.7,1.2,1.1,1.9c1.7,2.6,3.6,5,5.6,7.4c1.2,1.4,2.7,2.5,2.1,4.6
			c-0.8,2.5-3.3,3-5.2,2.8c-4-0.3-7.8,0.4-11.6,1.4c-4.3,0-8.5,0.9-12.8,0.2c-2.7-2-5.8-2.1-8.9-1.6c-5.2,0.9-5.3,0.9-3.5-4.5
			c1.5-4.6,6.3-6.2,8.5-10.2c0.3-0.1,0.6-0.1,0.9-0.1c2-0.9,3.2-2.7,4.8-4.1c0.9-0.8,1.6-2.5,3.1-1.8c1.4,0.6,1.2,2.1,1.1,3.4
			c-0.6,1.8-1.8,3.5-0.6,5.5c0.8,2,0.9,4.5,4,4.7c2.6,0.1,4.3-0.8,5.1-3.3c1.1-1.5,1-3.3,1.3-5.1c0.2-1.4-0.1-3.5,2.4-3.4
			C360.3,128.5,361.2,129.2,362.2,129.9z"/>
		<path class="st69" d="M329.3,141.8c-0.2,1.4-0.4,2.8-0.6,4.8c4.3-1.8,8.6-2.8,12.5,0.4c-2,3.9-4.8,3.9-8.1,1.5
			c2.3,2.1,4.8,2.7,7.7,1.9c2.6-0.6,5.2-1,7.9-0.5c0.5,0.1,0.9,0.2,1.3,0.3c5.9,0.4,11.9,1.1,17.7-0.6c-1.1-0.5-1.8,0.5-2.8,0.7
			c-3.2-0.9-6.3-2.2-9.7-1.8c-0.7-0.3-1.2-0.7-1.1-1.5c3.2-1.1,6.3-2.5,10-1.4c1.8,0.5,4.6,0.1,5.7-1.9c1.1-2.1-1.3-2.9-2.3-4.3
			c-1.6-2.4-3.8-4.5-4.3-7.6c3.3,2.1,5.2,5.5,7.5,8.5c2.4,3.1,5.1,5.6,8.3,7.7c0.9,1.3,1,2.4-0.7,3.2c-2.5-1.7-4.8-2.9-6.9,0.8
			c-1.3,2.3-3.9,2.2-6.2,2.3c-2.1,0-4.3,0-6.5,0.1c-4.4,0.5-9.1-1.3-13.1,1.8c-3.7,1.5-7.8,0.3-11.5,1.8c-5.4,4.4-5.4,4.4-14-0.9
			c-0.6-0.3-1.1-0.8-1.5-1.3c-0.6-1.2-1.1-2.4-1-3.8c0.1-0.4,0.4-0.8,0.8-1c3,0.5,4,3.7,7.4,5c-7.7-6.6,0.1-9.6,2.4-13.9
			C328.6,141.4,328.9,141.4,329.3,141.8z"/>
		<path class="st70" d="M322.3,138.9c0,1.5-1.1,2.3-2,3.3c-2.1,2.5-3.4,5.2-1.9,8.5l-0.3,0.1c-2.5-0.2-2.7-2.4-3.5-4
			c-0.7-3,1.9-6.8-2.3-8.9c-0.2-0.5-0.2-1,0.2-1.4c11.2-11.3,19.1-25.2,29.8-36.9c2.5-2.7,3.2-7.1,7.6-8c1.3,0.5,2.5,1.2,3.5,2.3
			c0.1,2.5-1.1,4.5-2.6,6.3c-10.2,12.5-19.9,25.2-29.8,37.9c-0.1,0.1-1.2,0.3-0.1,0.6C321.3,138.9,321.9,138.6,322.3,138.9z"/>
		<path class="st71" d="M367.1,83.8c0.6,1.6-2.6,4.1,0.7,4.9c2.6,0.6,5.7,1,6.6-3.1c0.4-1.8,1.3-3.7,3.2-4.2s3.4,0.7,4.4,2.4
			c1.1,1.9,0.1,2.7-1.6,3.2c-1.5,0.4-1.2,1.8-1.3,2.9c-1-0.4-2.1-1.5-3.2-0.6c-1.2,1,0.1,2.1,0.5,3c0.5,1.3,2.7,3.1,1.2,3.6
			c-1.8,0.6-3.8,2.6-5.8,1.6c-3.9-2.1-7.6-0.6-11.3,0.1c-1.6,0.3-3,0.4-3.3-1.8C359.1,90.7,361.3,85.8,367.1,83.8z"/>
		<path class="st72" d="M322.3,138.9c-1.8,0.3-3,3.8-4.3,2.3c-2-2.3,1.7-2.9,2.7-4.3c8.5-11.2,17-22.4,25.8-33.3
			c2.5-3.1,4.8-6.2,6.8-9.6c0.6-2.3,1.8-4.1,4.2-4.8c2.8,0.4,2.6,1.9,1.2,3.6c-1.1,1.4-2.5,2.5-3.5,4c-6,8-12,16-18,24
			c-0.7,2.2-2.8,3.3-4,5.1C328.6,129.3,326.7,135.2,322.3,138.9z"/>
		<path class="st73" d="M346.2,129.8c0-1,0-2,0-3.2c-3.6,0.8-4.4,5.3-8.1,5.2c2.9-3.6,6.7-6.4,9.2-10.4c1.7-2.7,3.9-3.3,6.4-0.6
			c2,2.2,4.2,4.2,5.6,6.9c-1.6,1.2-1.1,3-1.1,4.5c0,1.8,0,3.6-2,4.6c-0.4-0.3-0.6-0.7-0.7-1.2c-0.1-1.3,0.4-2.6,0.3-3.9
			c-0.3-2.5-1.7-4.4-3.9-5.3c-2.1-0.8-2.6,1.4-3.7,2.6C347.7,129.6,347.2,130.3,346.2,129.8z"/>
		<path class="st74" d="M355.2,96.9c0.1-2.1,1.8-3,3-4.3c1.2-1.4,1-2.3-0.9-2.6c-0.6-1.6,0.7-2.5,1.5-3.6c3.2-2.8,5.4-6.4,7.9-9.8
			c2.2-1.9,3.5-4.9,6.5-5.9c0.5,0,0.9,0.1,1.3,0.3c0.2,0.4,0.2,0.9-0.1,1.3c-0.4,3.4-4,4.5-5.3,7.3c-0.6,1.4-2,2.5-1.9,4.3
			c-4.3,3.2-6.7,8-9.9,12.1C356.6,96.3,355.9,96.6,355.2,96.9z"/>
		<path class="st75" d="M333.3,125.9c0.4-2.5,2.4-3.6,4-5.1c1.9,3.8,2.8,0.3,3.8-0.6c0.8-0.7,1.4-1.7,2.4-0.9
			c1.2,0.9-0.3,1.6-0.5,2.4C341.4,127.1,337.1,125.9,333.3,125.9z"/>
		<path class="st76" d="M329.3,141.8c-0.3,0-0.6,0-1,0c-1.3-3.3-2.7-6.2,3.4-5.5c1.7,0.2,3.7-2.9,5.6-4.4
			C335.7,136.1,332.2,138.8,329.3,141.8z"/>
		<path class="st77" d="M374.3,72.2c-0.1-0.4-0.1-0.9-0.2-1.3c-1.1-2.9,0.9-4.2,3-5.1c1.3-0.5,3.2-0.4,1.9,2.1c-0.6,1-1.3,2-1.9,3
			C376.2,71.3,375.3,71.8,374.3,72.2z"/>
		<path class="st78" d="M361,107.4c0.5,3.5-0.6,5.1-2.9,5.2c-2.8,0.2-2-2.7-2.4-4c-0.6-2.7,1.9-3.2,3.7-3.4
			C361.8,105,361,107.2,361,107.4z"/>
		<path class="st79" d="M397.1,163.9c-0.4,3.6,1.3,7.6-2.1,10.7c-1.3,1.2-0.1,1.9,0.8,2.7c1.4,1.2,1.4,2.2-0.7,2.5
			c-2.7,1.7-4.4,0.3-4.5-2.2c-0.1-3.2-1.3-4.9-4.2-5.8c-0.4-0.1-1.1-0.6-1.1-1c0.8-7.2-7.4-7.6-9.4-12.6c-0.2-0.4-0.3-0.9-0.2-1.3
			c2-3.5,6.5-6,4.4-11.1c-0.2-1.1-2.1-1.7-1.2-2.9c0.9-1.3,2.2-0.2,3,0.4c2.8,2,5.4,3.7,9.1,4.4c3.8,0.7,4.5,5.6,5,9.4
			C396.4,159.4,395.9,161.8,397.1,163.9z"/>
		<path class="st80" d="M380.2,145.8c2.9,4.5,2.3,6.1-4,11.1c-1.5,0.2-1.6-0.8-1.7-1.8c0.4-2.2,1.5-3.7,3.8-4.1
			c1.1-0.8,0.8-1.9,0.9-3C379.2,147.1,379.3,146.3,380.2,145.8z"/>
		<path class="st81" d="M376.1,157.8c2.4,0.1,2.3,3.4,3.5,3.5c5.4,0.6,7.8,2.7,6.2,8.4c-0.2,0.6,1.3,1.8,2.6,1.8
			c3.4-0.1,3.8,2.5,3.3,4.6c-0.9,3.5,1,3.6,3.4,3.7c0,0.2,0.1,0.4,0,0.5c-3.7,6.5,0.8,12.2,1.4,18.2c0.6,5.5-0.3,11.4-0.4,17.2
			c-3.8-0.1-3.1-5.3-6.5-5.9c-1.6-1.6-3.2-2.3-5.8-1.6c-3.1,0.9-5.9-0.3-7.7-3.2c-1.2-2.1-1.4-4.5,1-5.6c2.7-1.3,3.5-3.9,4.9-6
			c2-3-1.3-5.4-2.5-7.8c-0.9-1.9-3.1-0.2-4.6,1c-3.6,2.8-4.7,2.5-6.7-1.5c-0.4-0.7-0.4-1.8-1.1-2.2c-3.6-2.6-4-6.1-2.9-10.1
			c0.2-0.6-0.4-1.3-0.5-1.9c-0.1-2.1,1.3-3.3,2.7-4.5C369.7,163.6,372.4,160.1,376.1,157.8z"/>
		<path class="st82" d="M390.2,209.8c1.1-0.4,2.6-1.6,2.9,0.7c0.3,2.2,1.7,3.8,3.1,5.3c1.5,4,1.6,8,0,12c-0.1-0.5,0-1.2-0.3-1.4
			c-5.8-3.4-4.5-9.4-5.7-14.6C389.6,211.1,389.5,210.4,390.2,209.8z"/>
		<path class="st83" d="M225.5,146.9c-3-3.4-2.6-7.9-3.9-11.8c-0.5-1.3,0.3-3-1-4.2c0-3.9,0-7.8-0.1-11.7c-0.1-2.2,0.6-3.5,3-3.3
			c3,1,4.3,4.4,7.5,5.1c1.1,2.2,0.7,4.2-0.8,6c-0.9,1.2-1.9,2.3-1.6,4c-0.1,3.8-0.4,7.6,0.1,11.4c0.2,1.7,0.2,3.7-1.7,4.8
			C226.5,147.3,226,147.2,225.5,146.9z"/>
		<path class="st84" d="M230.5,120.9c-5,2.1-4.5-3.5-7-5c1.4-0.3,3.7-1.1,2.2-2.5c-5-4.5-0.4-4.6,2.3-5.5c1.2-0.4,2-0.9,2.5-2
			c0.3,0,0.7,0,1,0c3.1,2.2,4.4,4.5,0.2,7c-1.5,0.9-1.3,2.1-0.9,3.4C231.4,117.9,232,119.5,230.5,120.9z"/>
		<path class="st46" d="M227.5,180.8c-1.8,3.9-3.1,7.7,0.4,11.5c1.4,1.6,0.1,3.6-1.1,4.3c-5.1,3.5-3.5,7.8-1.6,12.5
			c-2-0.1-3.9-0.3-5.7-0.4c-1.8-4.6,3.3-7.4,2.9-11.9c-0.1-1.4,0.2-2.6-0.9-3.7c-0.9-0.9-1.2-2.1-0.9-3.2c1.7-5.9,0.7-12.5,3.9-18
			c0.2-0.1,0.4-0.2,0.6-0.3c2.2,1,3,3.4,4.6,5C230.7,179,230.2,180.5,227.5,180.8z"/>
		<path class="st85" d="M225.5,146.9c0.3,0,0.7,0,1,0c1.6,1.6,1.7,3.7,2.2,5.7c3.3,7.4-0.1,13.3-4.2,19.1v0.2
			c-2.3-2.9-0.1-5.3,1.1-7.6c1.2-2.3,1.3-4-1.1-5.5C225,154.9,223.5,150.7,225.5,146.9z"/>
		<path class="st86" d="M271.4,251.7c-2.3,0.4-4.8-0.8-7,0.9c-8,0-15.9,0-23.9,0.1v-0.1c-2.6-3.1-6.8-1.3-9.8-3.3
			c-2-2.6-0.7-5,0.6-7.4c-1.6-1.6-5.8,1.3-5.4-3.1c1.4-2.4,1.6-5.8,5.2-6.3c4.1,1.6,6.3-1.8,8.1-4.1c10.9-14.3,24.2-26.5,34.3-41.4
			c1.7-2.5,3.2-5.5,6.6-6.5c1.8,0.3,3.8,0.5,4.9-1.3c2.8-4.9,7.8-8,10.6-13c2-3.5,3.4-3.4,5.2-0.4c-0.4,2.4-1.7,4.4-3,6.4
			c-4.3,4.6-7,10.5-11.8,14.7c-3.9,4-7,8.7-10.4,13.1c-3.1,4-6.3,7.9-9.4,12c-0.5,0.8-0.9,1.6-1.4,2.3c-2.2,2.8-4.2,5.7-6.8,8.2
			c-1.3,1.2-1.8,3-3,4.3c-2.8,2.8-4.5,6.6-7.7,9c1,3.1,2.8,6,0.1,9.4c-1.5,1.8,1,2.7,2.2,2.6c4.8-0.5,9.9,0.7,14.2-2.4
			c3.2-2.3,5.2-1.3,5.9,2.5C270,249.1,272.1,249.9,271.4,251.7z"/>
		<path class="st87" d="M236.5,30c0.3-0.3,0.7-0.7,1-1c4.2-2.1,8.2,0.7,7.6,5.5c-0.3,2.5-0.2,4.9,0.2,7.3c0.5,3.9,2.5,5.5,5.9,3.8
			c4.1-1.9,7.7-3.8,11.5,0.4c0.7,0.8,2.6-0.2,3.8,0.4c1.1,0.7,1.6,1.7,1.6,3.1c-0.5,2.7-1.5,4.8-4.8,5.3c-6.3,1-7.1,2.8-4,8.1
			c0.3,0.6,0.5,1.2,0.3,1.9c-0.6,0.6-1.2,0.7-2,0.6c-0.7-0.2-1.3-0.6-1.8-1.1c-2-2-3.4-4.3-3.1-7.4c0.2-2.2-0.6-3.4-2.7-1.6
			c-1.9,1.5-3.8,1.6-5.9,0.5c-3.4-1.9-5.1-5.3-7.4-8.3c-1.3-2.6-2.8-4.9-5.1-6.7c1.9-2.1-1.6-5,0.9-7.1c0.4,0.3,0.7,0.9,1.1,1
			c2,0.2,3.4,3.8,4.8,2.3c1.8-2,0.2-4.6-1.9-6.3C236.5,30.7,236.5,30.4,236.5,30z"/>
		<path class="st88" d="M239.5,77c-1.1,0-1.8,1.3-2.5,1.3c-4.8,0.2-4.2,2.1-1.8,4.9c0.8,0.9,2.7,1.8,1.5,3.2c-1,1.2-2.9,0.9-4.1,0
			c-1.6-1.2-3.3-1.5-5.1-1.4c3.1-4.1-1.3-6.7-2-10c-1.1-2.4,0.8-2.8,2.3-3.4c2.7-1.1,5.5-0.6,8.3,0C239.2,72.1,241.7,73.1,239.5,77z
			"/>
		<path class="st89" d="M231.6,41.1c4,0,4.4,3.5,5.9,6.1c-0.9,2,0.4,3.4,1.5,4.9c1.1,1.4,2.4,2.7,2.5,4.7c-0.4,2.5-0.6,5.1-4.1,5
			c-2.9-1.5-4.1-5.3-7.8-5.7c-1.3-0.7-2.3-1.7-3-3c0.2-2.9,3.2-2.8,4.6-4.5c0.9-1.1,2.7-1.5,1.5-3.5
			C231.8,43.8,231.4,42.5,231.6,41.1z"/>
		<path class="st90" d="M235.6,73c-3.6-0.8-7.4-2-10,2c-1.6-3.2-0.9-6.7-1.6-10.1c-0.3-1.6,1.9-1.8,3.5-1.9c1.7-0.1,3.7,0.7,5.1-1
			c2.7-0.4,3.3,2.1,4.7,3.4c0.8,1.2,2.7,1.8,2.4,3.8C238.1,70.2,236.7,71.5,235.6,73z"/>
		<path class="st91" d="M236.5,31c6.3-1.5,2.6,4.1,4,6.1c1.4,1.9-2.8,2.5-3,2.3c-1.8-1.7-4.7-2.3-5-5.4
			C233.2,32.2,235,31.9,236.5,31z"/>
		<path class="st92" d="M236.5,66c-1.4-1.3-2-3.3-4-4c-1-2-2.1-3.9-3.1-5.9c4.9-1.9,5.5,2.2,7,5c0.6,0.8,2.3,0.3,2.3,1.9
			C238.2,64.1,237.6,65.2,236.5,66z"/>
		<path class="st93" d="M232.5,45c2.4,2.6-0.7,3.5-1.6,5.1c-1,1.7-3.2,1.5-4.4,2.9c-1.3-0.5-1.9-1.7-2.4-2.9c-0.9-2.1-0.7-3,2-2.4
			C228.6,48.2,231.4,48.2,232.5,45z"/>
		<path class="st94" d="M227.5,180.8c0.8-1.2,3.3-2,1-4c-1.1-3.3,1.8-5.2,2.7-7.9c1.6-0.8,1.9,0.7,2.5,1.5c2.8,3.4,3.2,3.3,5.1-0.6
			c0.4-0.9,0.8-1.8,1.6-2.4c0.9-0.5,2.2-0.7,2.8,0c2.3,2.8,5.5,4.4,8.5,6.4c2.3,1.5,0.6,4.3,0.9,6.9c6.7-2.2,8.9,4.1,13,7
			c0.9,0.6,0.8,2.1,0.1,3.2c-2.2,1.7-4.7,1.2-7.2,0.9c-2.3-0.3-4.5-0.5-6.9-0.3c-4.9,0.4-7.2-1.6-7.6-6.6c-0.2-2.2-1.3-3.6-3.2-3.7
			c-2.4-0.2-4.8-1.1-7.3-1.4c-0.9,4.1,1.5,6.8,3.2,9.8c1.3,2.2,3.4,4.4,0.7,7.1c-1.8,1.5-2.9,4.1-6,3.2c1.7-4,2.8-7.6-1.2-11.3
			C228.5,186.9,228.4,183.4,227.5,180.8z"/>
		<path class="st95" d="M231.5,199.8c2.2-0.7,3.6-2.3,5-4c0.3,0.3,0.7,0.7,0.9,1c0.5,3.2,5,4.3,4.3,8.2c-1.7,1.5-1.2,3-0.4,4.9
			c1.4,2.9,0,4.6-2.9,4.6c-4.7,0-7.3,1.6-7.3,6.9c0,3-2.1,5.5-5.9,6.2c1.5,1.7,4.1,2.4,3.9,5c-1.2,2-1.8,4.3-3.3,6.2
			c-0.2,0.4-0.4,0.9-0.6,1.4c-2.9,5.6-2.9,5.6,3.1,7.6c0.8,0.3,1.5,0.7,1.7,1.6c-1.5,3.4-2.8,3.6-6.7,1.2c-0.5-0.9-1.1-1.8-2.2-1.8
			c-3.8-0.2-3.5-3.4-2.5-5c2.2-3.6,1.6-7.3,1.7-11.1c1.3-5.1,1.6-10.4,5.4-14.9c1.3-1.6-0.7-5.6,0.2-9
			C227.2,205,228.7,202.2,231.5,199.8z"/>
		<path class="st96" d="M266.4,47c-2.6,0.3-5.5,2.7-7.1-2.1c-0.7-2.1-3.5,0.1-5.2,0.8c-2.2,1-3.8,2.7-6.8,1.6c-2.8-1-3.9-1.5-3.4-5
			c0.4-2.8-0.1-5.8,0.1-8.8c0.2-3.6-2.9-5.1-6.6-4.4c0.5-5.1,5.1-0.9,7-3c2,0.8,3.9,1.8,5.6-0.7c1.1-1.6,2.6-0.7,3.9,0
			c3.3,2,5.6,4.2,2.4,8.1c-1.1,1.4-1,2.7,0.7,3.7c3.2,2,5.5,5.2,8.6,7.3C266.3,45.2,266.9,45.9,266.4,47z"/>
		<path class="st97" d="M253.5,26c-1-0.3-2.1-1.4-3,0.1c-2.1,3.7-4,1.9-6-0.1c0-0.3,0-0.7,0-1c4.8,1.4,12.1-2.4,12.9-7.1
			c0.6-3.6,1.8-3.5,4-1.5c1.7,1.6,3.7,3,4.8,4.9c1.5,2.5,3.7,5.6-1.1,7.6c-2.4,1,0.5,1.9,0.4,3c2,0.6,4.2,0.9,4.5,3.6
			s-1,4.3-3.2,5.6c-2.1-1.6-5.4-11.5-4.5-13.8c0.2-0.6-0.1,0.1,0.3-0.7C259.4,27.4,256.4,27.5,253.5,26z"/>
		<path class="st98" d="M224.6,21.1c1.8-1.8,4.2-3.1,4.2-6.3c0-1.2,1.4-1.7,2.6-1.8c-1.2,2.4-1.5,4.5,2,5c1,0.2,2,0.5,1.7,1.8
			c-0.3,1.3-1.5,1.4-2.4,1C230,19.8,227.4,21.6,224.6,21.1z"/>
		<path class="st99" d="M230.5,120.9c-0.2-1.3,0.1-2.8-0.6-3.8c-2.1-3.2-1.8-4.4,2.2-5.8c3.3-1.1-0.4-3.6-0.6-5.5
			c-0.2-4.2,0.2-8.1,2.8-11.8c2.1-2.9,3.6-2.6,5,0.2c2.3,4.5,3.9,9.4,8.1,12.6c1.2,0.8,1.8,1.7,1.1,3.3c-1.9,4.2-1.8,4.2,3.1,4.3
			c2.4,0.6,5.7-1.5,6.9,2.5c-2.5,1.9-5.4,1.1-8.1,1.2c-2.6-0.1-5.2,0-7.7-1.3c-3.7-1.8-6.2,0.8-8.7,2.7c-1.3,1-1,2.7-0.2,4.1
			c0.9,1.7,1.6,3.4,0,5c-1.7,1.6-3.8,2.7-6.2,1.1C227,126.4,232.5,124.9,230.5,120.9z"/>
		<path class="st100" d="M250.5,115.9c-1.8-0.2-4.3,0.9-5.3-1.3c-1-2,0.6-3.6,2.3-4.7c1.4-1,0.4-2,0.1-3c3,0,6,0,9,0
			c4.1,1.9,5.9-2.6,9-3.4c4.1,0.6,5,4.7,7.6,6.9c0.7,1,1.2,2.1,0.7,3.3c-1.7,1.8-4.4,1.4-6.2,3c-0.6,0.4-1.3,0.7-2.1,0.8
			C260.5,117.1,255.8,113.8,250.5,115.9z"/>
		<path class="st101" d="M235.6,73c-0.3-2.9,1.2-4.1,4-4c1-0.3,1.7,0.2,2.1,0.8c4.9,7.7,11.3,14.3,16.6,21.7c0.6,0.8,1,1.7,1.2,2.7
			c0,2.7-0.7,4.8-3.9,4.7c-3.7,1.1-3.8-1.5-4-4c1.5-1.8-0.7-2.6-1-4c0.4-3.5-0.8-5.5-4.7-4.9c-6.2,0.9-6.2,0.9-6.2-5.1
			c0-1.3,0-2.7,0-4C240,73.8,238.6,72.6,235.6,73z"/>
		<path class="st102" d="M255.5,99c2-1.1,3.2-2.6,3-5c0.4-0.3,0.9-0.3,1.3,0c2.2,2.8,4.5,5.4,6,8.7c0.1,0.5,0,0.9-0.3,1.3
			c-0.8,2.2-3.2,2.9-4.5,4.9s-2.6-1.9-4.6-1.8C258.4,104,255.2,101.7,255.5,99z"/>
		<path class="st103" d="M250.5,91c1.1,1.1,3.9,0.3,3.7,2.8c-0.1,1.5-1.7,1.1-2.7,1.2c-1.6-2.2-3.3-2.5-5.2-0.3
			c-0.9,1.1-2.1,1.7-3.5,0.8c-0.7-0.5-1.2-1.2-0.8-2.1c0.6-1.2,1.6-2.2,3-2.3C246.8,90.9,248.7,91,250.5,91z"/>
		<path class="st104" d="M320.1,155.9c2.9-0.1,4.4,2.5,6.8,3.5c2.6,1.1,4,2.2,4.2-1.7c0-0.3,1.4-0.6,2.1-0.9c1.4,1.8,0,3.9,0.7,5.7
			c3.1,8.1,9.7,13.4,15.7,19.1c2.2,4,6.1,6.4,9.1,9.6c5,5.5,7.1,12.6,10.6,18.9c3.2,5.8,5.2,7,11.5,4.7c0.8-0.3,1.6-0.5,2.2-1
			c1.3,0.1,3-0.3,3.3,1.4c0.3,1.4-0.4,2.7-1.6,3.8c-4,3.7-3.4,6.1,1.8,7.8c3.5,1.2,4.3,4.1,5.5,7c-2,1.3-4.9,0.8-6.3,3.4
			c-0.8,1.4-2,0.5-2.9-0.4c-1.9-1.9-3.7-3.8-4.8-6.3c-0.9-2.2-2.6-2.8-4.6-3.1c-1.8-0.8-2.5-2.7-4-3.8c-1-1-1.7-2.2-2.1-3.6
			c-0.1-2.4-1.3-4.1-3-5.7c-0.2-0.3-0.5-0.5-0.6-0.8c-1.1-11.7-11.5-17.8-16.4-27.2c-2-3.8-6.7-4.1-9.8-6.5
			C331.3,172.1,324.8,164.8,320.1,155.9z"/>
		<path class="st105" d="M390.2,209.8c0,0.7,0,1.3,0,2c-2.2-2-4.3-3.5-7.4-1.2c-1.4,1-3.7,0.8-5.6,1.2c-3.5-1.4-6.1-4-9.3-5.9
			c-2.4-1.4-0.8-3.7,0.9-5.9c-3.2,0-5.6-0.7-6-3.4c-0.9-5.4-5.2-9.7-5.2-15.4c0-1-0.4-1.9-0.2-2.9c0.1-1,0.6-1.8,1.2-2.6
			c1.9-1.6,2.8-4.6,5.9-4.7c0.6,0.6,1.7,1.5,1.6,1.7c-4,5.9,2.9,8.6,3.8,13c0.5,2.6,2.6,3.1,4.2,0.6c1.5-2.3,3.1-3,5.8-2.5
			c3.2,0.6,2.3,2.5,2.1,4.4c-0.1,1.1,1.1,1.5,1.9,2c0.9,0.6,1.8,2.1,1.2,2.4c-3,1.7-2.5,6.1-5.8,7.2c-1.3,0.5-2.7,0.8-2.7,2.4
			c0,1.7,0.7,3.4,2.2,4.2c1.9,0.9,3.8,1.8,6.1,0.9C387.1,206.3,389.4,206.8,390.2,209.8z"/>
		<path class="st106" d="M373.3,226.7c3-0.9,4.7-0.3,5.9,3.1c0.9,2.6,3.4,4.7,5.5,7.5c1.3-4.3,4.1-4.6,7.5-3.6
			c2.3,2.8,4.4,5.8,4.9,9.4c0.3,2,0.6,4.4-2,5.6c-5-0.3-9.9-0.7-14.9-1c-2.8-1.5-5.4-3.1-5.9-6.5c-0.3-2,0.1-3.9,2.2-4.9
			c1.6-0.6,2.6,0.8,3.6,1.1C378.9,233.2,373.6,231.6,373.3,226.7z"/>
		<path class="st107" d="M358.2,177.9c-0.3,3.3,2.9,6.1,1.4,9.6c4.6,1.8,3.1,6.4,4.4,9.7c0.7,1.8,2.2,1.7,3.8,1.6
			c0.9-0.1,2.1-1,2.7,0.2c0.6,1.2-0.3,2.2-1.3,2.9c-2.7,1.9-1.8,3.7,0.7,4.1c3.7,0.7,5.4,3.4,7.4,5.9c1.3,2.8,3.8,1.8,6,2
			c-4.1,4.1-8.3,4.9-12.6,2.5c-0.5-0.3-1-0.9-1.2-1.5c-2.4-8-6.5-15.2-11.1-22.1c-2.2-3.2-5.9-4.5-7.9-7.7c-0.6-1-1.1-1.9-1.1-3.1
			c-0.2-0.3-0.3-0.5-0.2-0.8c0.1-0.3,0.2-0.4,0.2-0.4c0.5-0.1,0.9-0.1,1.3,0.2c1.6,1.9,2.7,0.6,3.9-0.5
			C355.7,179.4,356.2,177.4,358.2,177.9z"/>
		<path class="st108" d="M223.5,250.7c2.4,0.6,5.4,3.3,6-1.8c0.6-0.8,1.3-0.7,2-0.1c3.1,1,7.7-1.6,9.1,3.8c-5.6,0-11.3,0-16.9,0
			C223.6,252,223.6,251.3,223.5,250.7z"/>
		<path class="st109" d="M271.4,251.7c-1-1-2-2-3-3c1.2-1.1,2.5-1.7,4.1-1.7c12.5,0.4,25,0.3,37.5,0.2c4.5,0.2,8.9-0.4,13.4,0.6
			c2.6,2.1,0.1,2.8-1.1,3.8C305.4,251.7,288.4,251.7,271.4,251.7z"/>
		<path class="st110" d="M322.3,251.7c0.7-1,1.3-2,2-3c1.1-1.2,2.6-1.5,4.1-1.5c12.5,0.1,25-0.6,37.5-0.1c1.5,0.3,3.2,0.2,4.3,1.5
			c-0.8,1.7-4,0.2-4,3C351.6,251.7,337,251.7,322.3,251.7z"/>
		<path class="st111" d="M370.2,248.7c-1.3,0-2.7,0-4,0c-0.4-1.1,0.1-2.1,0.9-2.5c4.2-2.1,2.2-4.3,0.4-6.8c-1.8-2.6-4.8-4.6-4.7-8.2
			c1.3-4.1-2.3-6.1-4-8.8c-2.4-3.8-1.8-5.5,2.4-6.1c4.2,2.5,6.7,6.6,9.6,10.3c1,2.2,3,3.8,4.5,5.6c1.1,1.3,2.5,2.6,1.9,4.7
			c-3.1,2.1-2.5,4.5-0.5,7c1.1,1.4,2.3,2.7,3.5,4C376.9,248.9,373.6,248.8,370.2,248.7z"/>
		<path class="st112" d="M266.5,41c3.6-4.1,3.8-5.7-1-9c1.1,0.1,2.4-0.1,3.4,0.3c2.9,1.1,4.4,0.3,4.6-2.9c0-0.6,0.2-1.3,0.3-1.9
			c0.7-4,2.4-6.2,6.6-3.5v0.1c2.1,2.4,4.5,4,7.9,4.1c1.9,0.1,3.7,1.1,5.2,2.5c1.1,4.3-1.7,4.3-4.5,4c-1.5-0.1-3.2-1.6-4.2,0.7
			c-1.7,5-4.3,8.9-10.4,8.7c-2.6,0-4.7,2.4-7.5,1.4C265,44.2,266,42.6,266.5,41z"/>
		<path class="st113" d="M339.5,26.1c-1.2-2-1.1-4.8-3.4-6.2c-1-3.9-3.9-5.9-7.5-5.9c-18.8-0.2-37.5,0-56.3,0
			c-1.9,0-3.8,1.6-5.6-0.1c0.2-3.1,2.6-1.8,4.1-2c6.5-0.5,13.1,0.9,19.5-0.9c2.3,0.1,4.7,1.6,7,0c9.6,0.2,19.3-3,28.9,0
			c1.6,0.4,3.6-0.6,4.9,1.1c-7.1,0.9-14.3,0.1-21.4,0.5c7.2-0.4,14.3,0.5,21.5-0.5c0.7,0.3,1.4,0.6,2.1,0.9c2.7,3,5.3,6,8,9
			C340.2,23.2,343,26,339.5,26.1z"/>
		<path class="st114" d="M326.3,11c-9.6,0-19.3,0-28.9,0c2.5-2,5.7-0.1,8.1-1.2c2-1,3-1.2,5.3-0.2c2.9,1.2,3.8-2.8,5.6-4.5
			c1.3,0,2.6,0,4,0c2.3,0,4.7-0.1,3.8,3.3C323.5,10.5,325.9,9.8,326.3,11z"/>
		<path class="st115" d="M344.3,33.1c-1.5,1.3-5.8,2.2-0.4,4.4c2.4,1,2.9,2.9-0.6,3.6c-5.3-0.5-10.6,0.3-15.8-0.7
			c-0.7-0.1-1.5-0.2-2.2-0.4c-6.6-1.6-13.1,0.4-19.3-0.1c-0.9,0.7-0.8,1.2-0.5,1.6c2.1,2.2,2.9,4.7,0.6,7.1
			c-2.3,2.4-4.2-0.1-6.1-1.2c-1-0.6-2.1-1-3.1-1.6c-3.2-5.3-2.6-11.9,1.3-15.2c14.3,3.4,28.7,2,43.2,1.5
			C342.4,32.4,343.3,32.7,344.3,33.1z"/>
		<path class="st116" d="M341.4,32.1c-1.5,1.5-3.4,0.9-5.2,0.9c-8.1,0.1-16.2,0-24.3,0.1c-5,0-9.9,0.2-14.5-2c-1.3,1-2.6,1-3.9,0
			c-3.3-1-6.6-2-9.9-3.1c-1.8-0.6-3-1.9-3.2-3.9c14.8,6.5,30.3,8.4,46.2,7.9c3.5-0.1,7-0.1,10.4,0c2.3,0.1,3.5-0.6,3.2-3
			C341.5,29.7,341.3,30.9,341.4,32.1z"/>
		<path class="st117" d="M297.4,45c1.8-0.2,3.1,0.6,4.4,1.8c1.1,1,2.3,3.2,3.9,1c1.4-1.8,1.3-4.1-1-5.5c-1-0.6-3-0.5-2.7-2.2
			c0.3-1.8,2.2-1.1,3.3-1.2c6.7-0.2,13.4-2.2,20.1,0.1c-1.5,2-4.1,0.4-6.2,2.1c3.6,1.8,6.1,0.7,8.1-2.1c3,0.3,6,1.4,9.1,0.1
			c2.6-1.1,4.5,1.6,6.9,2c-0.6,2.9,0.8,6.5-3.9,7.8c-1.9,0.5,0.2,1.4,1.2,2.2c2.1,1.8,5.5-2.2,6.7,1.8c1.9,2.2,0.4,6.8,5,7.1
			c1.7,0.6,3.2,1.5,4.3,2.9c1,2.3-0.1,3.9-1.9,5.3c-1.1,0.6-2.5,0.6-3-0.4c-1.5-2.7-4.7-2.7-6.7-4.4c-3.1-2.4-2,1.2-2.9,2
			c-0.2,0.4-0.4,0.8-0.7,1.2c-3.6,2.6-7.3,0.4-11,0.2c-0.6,0-1.2-0.6-1.4-1.2c-0.1-0.3-0.2-0.9,0-0.9c3.8-0.9-0.9-6.5,3.8-6.9
			c2.2,0.8,4.5,2.1,6.5-1.1c-1.9-0.4-3.5,0-5.1,0.3c-2.6,0.1-3.8,2.2-5.4,3.7c-1.7,1.7-3.3,3.8-6.2,3c-0.4-0.2-0.7-0.6-1-1
			c-0.6-2.6-0.3-5.3-0.1-7.9c-0.8,2.9,0.6,6-1,8.8c-1.3,1.5-3,1.8-4.8,1.7c-3-0.4-4.8-2.9-6.6-4.6c-2.3-2.2-0.5-4.6,2.4-5.7
			c-5.5-3.8-7.1-3.3-7.8,2.4c-0.2,1.6-0.5,3.1-2.3,3.2c-1.8,0.1-2.7-1.2-2.9-2.8c-0.7-4.1-4.7-4.4-7.2-6.3c-0.7-0.5-1.5,0.4-2,1
			c-1.3,1.5-2.9,2-4.7,1c-0.9-0.9-0.7-1.8-0.3-2.8c1.3-1.9,0.1-3.8-0.2-5.7c-0.5-3.2-0.1-5.9,4-6.3c0.1,0.1,0.4,0.1,0.4,0.3
			C290,45.6,290,45.6,297.4,45z"/>
		<path class="st64" d="M352.3,61c-6.9,0.6-4.6-4.5-5-8c1.8,0.1,3-0.3,3.9-2.1c2.8-5.3,4.5-5.7,10-2.8c1.3,2.9,1.2,5.7-0.4,8.5
			C359.1,60.1,354.7,58.6,352.3,61z"/>
		<path class="st118" d="M360.2,56c1.6-2.5-0.3-5.5,1-8c1.3,0,2.7,0,4,0c-1.6,2.6,0.4,4.7,1,7C364.2,55.3,362.3,56.4,360.2,56z"/>
		<path class="st119" d="M379,67.8c-1.9-1.9-2.9-1.3-4.8,3c-0.3,0.1-0.6,0.1-0.9,0.2c-3.9,1.5-4.7-0.7-4.2-3.9
			c0.3-2.2,1.3-4,3.2-5.3c2.6,0.4,5.3,2.2,8,0.1l0,0c2.1-0.7,2.9-0.1,2,2C380.7,65,381.3,67.6,379,67.8z"/>
		<path class="st120" d="M382.2,64c0-1.3-0.7-2-2-2c1.3-1.7,2.7-3.3,4-4.9c2.3,0.5,4.1,1.1,1.2,3.5C384.2,61.5,383.2,62.8,382.2,64z
			"/>
		<path class="st63" d="M360.2,56c1.8-1.3,3.6-2.8,6-1c-2.6,3.2-2.2,6.6-0.9,10.2c0.2,0.4,0.2,0.9-0.1,1.3c-0.7,0.7-1.4,1.1-2.4,0.7
			c-2.1-1.6-4.6-2.5-6.6-4.2c-1.7,0.1-2.6-1.4-4-2c-0.2-2.5,1.1-3.3,3.3-3C357.6,58.3,359,57.4,360.2,56z"/>
		<path class="st121" d="M365.2,66c0.1-0.3,0.1-0.5,0.1-0.8c2.2-0.4,3.4-2.1,4.4-3.7c1.1-1.8,2.4-2.7,4.4-2.5c0.9,1.5,0.4,2.4-1.1,3
			c-1.2,1.6-2.5,3.2-3,5.4c-0.7,3,0.5,3.8,3.1,3.7c-2,2-4,4-6,6c-2.5,0.1-2.5-1.9-2.9-3.5c0-1.5,0.6-3,1.6-4
			c2.8-2.8-1.5-0.5-1.1-1.6C364.6,67.2,364.7,66.5,365.2,66z"/>
		<path class="st120" d="M373.1,61.9c0.4-1,0.7-2,1.1-3c-0.3-2.5,0.9-3.9,3.7-4.9c-0.6,3.3-0.8,6.2,2.3,7.9
			C377.8,65.9,375.5,65.7,373.1,61.9z"/>
		<path class="st122" d="M346.2,129.8c0.1-0.1,0.3-0.2,0.4-0.3c1.8-1.8,2-6.5,6-4.5c4.7,2.3,5.5,5.9,3.4,10.8
			c-2.4,3.1-2.5-0.3-3.4-1.2c-0.2-0.4-0.4-0.7-0.6-1.1c-1.1-1.5-1.8-0.3-2.7,0.3c-1.2,0.9-2.2,2.6-4,1
			C343.9,132.8,344.8,131.3,346.2,129.8z"/>
		<path class="st123" d="M349.2,150.9c-5.3-0.8-10.6,2.7-15.9-0.2c-0.5-0.3-2,1.3-2.7-0.4c-0.4-0.8-0.2-1.6,0.4-2.3
			c0.8-1,2.5-1.6,3.1-0.8c2.6,3.5,4.8,0.6,7.1-0.1c4.3,0,8.7,0,13,0c0.4,0.3,0.7,0.7,1.1,1c-0.2,2.2-1.8,1.5-2.9,1.4
			C350.9,149.2,349.7,149.3,349.2,150.9z"/>
		<path class="st124" d="M353.3,133.8c1.2,0.3,0.2,3.6,2.8,2c0,0.4,0.1,0.7,0.1,1.1c0.3,2.9-0.8,4.5-3.9,4c-2.4-0.4-6.1,1.8-6.2-3.2
			c0-1-0.5-1.9-0.8-2.9c1.8,0.3,2.7-1,3.5-2.1C351.5,128.9,352.6,130.4,353.3,133.8c-0.4,0.4-1,0.5-1.3,1
			C352.6,134.6,352.9,134.1,353.3,133.8z"/>
		<path class="st125" d="M370.2,226.8c-3-3.3-6-6.7-9-10c-5-4.5-9.4-9.7-13.4-15.2c-5.1-7.1-10.8-13.7-15.5-21.1
			c-3.4-5.2-7.3-10.1-11.3-15c-2.6-2.4-4.2-5.4-5.2-8.8c-0.3-1.1-0.4-2.4,0.8-3.1c1.4-0.8,2.1,0.1,2.6,1.3c0.3,0.3,0.6,0.6,0.9,1
			c6,7.6,12.1,15.3,18.1,22.9c10.5,10.2,17.6,23,26.1,34.7c1.1,2.2,3.5,3.6,3.9,6.3c0.7,1,1.3,2.1,2,3.1
			C372.1,225.8,372.1,225.8,370.2,226.8z"/>
		<path class="st126" d="M319.2,155c-2-1.2-3.5-1.2-2.4,1.5c1.2,3.1,2.3,6.5,5.5,8.3c0.5,2.3,1.4,4.3,3.3,5.8
			c1.1,0.9,1.8,2.1,0.7,3.4c-1.3,1.6-2.7,0.7-3.9-0.2c-1.7-1.4-3-3.1-4.3-4.8c-0.8-1-1.5-1.8-2.8-0.9c-0.7,0.1-1.3-0.1-1.9-0.3
			c-2-0.9-11.3-2.4-13-2.1c-0.7-3-2.5-1.4-2.9-0.2c-2.2,6.1-8.5,8.7-11.2,14.4c-1,2.2-3.3,4-5.8,1c-0.5-2.4,1.5-3.6,2.6-5.1
			c3.6-5.4,7.7-10.4,11.7-15.7c-1.6,0.6-2.5,2.7-4.5,1.8c-1.1-2.4,0.8-3.6,2.1-5c1.3-1.5,2.5-3,3.6-4.7c0.6-0.6,1.2-0.9,2.1-1
			c2.9,0.6,2.6,2.9,2.6,5c-0.2,1.6-0.9,3.7,2.2,2.3c1.2-0.6,2.4-1.2,3.7-1.5c2-0.5,4.6,1.1,6.1-1c1.3-1.8,0.4-4.2,0.7-6.3
			c0.1-1,0.2-2,0.9-2.8c0.4-0.3,0.8-0.4,1.3-0.1c1,1.3,2,2.7,2.9,4C318.5,152.2,318.9,153.6,319.2,155z"/>
		<path class="st127" d="M333.3,162.8c-1.7-2-0.3-4,0-6c3.8-1.8,7.9-1.1,11.9-1c3.8,2.6,6.3,6.5,9.9,9.2c1.8,6.1-1.8,10.3-5.2,14.6
			c-2.3,1.3-3.5-0.5-4.5-1.8C341.5,172.8,336.9,168.2,333.3,162.8z"/>
		<path class="st128" d="M354.2,164.8c-4.9-1.1-6.5-5.5-9-9c-0.2-2.4,1.1-3.1,3.3-3c3.6,0.1,7.1,0,10.7,0.1c2.5,1.6,5.5,1,8.2,1.3
			c1.5,0.2,3-0.1,3.9,1.5c1.1,1.8-0.2,3.1-1.2,4.4c-0.7,0.9-1.4,1.8-1.9,2.9c-1.4,2.3-2.8,4.6-5.8,5.1
			C360.2,166,357,166.1,354.2,164.8z"/>
		<path class="st68" d="M367.3,163c0-0.3,0.1-0.6,0.1-1c0.3-2.4,4.7-3.2,3.1-5.9c-1.3-2.3-4.4,0.3-6.7-1c-1.4-0.8-3.6-0.1-4.5-2.2
			c2.6,0,5.3,0,7.9,0c1.7,0,3.6-0.1,3.8-2.2c0.3-2.7,2.1-3.3,4-3.4c2.1-0.1,3,1.7,3.2,3.7c-1,1.3-2.1,2.5-3.1,3.8
			C373.2,158.2,372,162.3,367.3,163z"/>
		<path class="st129" d="M349.2,150.9c-1.5-1.6-1.8-2.6,0.9-3.1c1.8-0.4,3.4,1.8,5.1,0.1c3.3-1,6.6-1.4,9,1.9
			c0.1,1.1-0.5,1.5-1.4,1.4C358.3,151.1,353.7,151.9,349.2,150.9L349.2,150.9z"/>
		<path class="st123" d="M349.2,150.9c5-0.7,10.1,1.2,15-1c0.1-0.1,0.3-0.2,0.4-0.3c1.5-0.8,1.8-3.5,4.3-2.6
			c1.2,0.4,1.3,1.5,1.1,2.4c-0.5,2.8-2.8,2.6-4.7,2.4C360,151.5,354.5,152.8,349.2,150.9z"/>
		<path class="st130" d="M350.2,91.9c-5.5,5.8-10.6,12-14.8,18.9c-1.6,2.5-3.9,4.4-5.7,6.5c-5.9,6.8-9.5,15.5-17.4,20.6
			c-0.2,0.2-0.4,0.4-0.5,0.5c-2.6,1.1-5.4,0.7-8.1,0.5c-0.5-0.1-0.9-0.2-1.4-0.4c-1.1-0.5-2-1.2-2.8-2.1c-1.1-1.6-2.6-3.1-2.5-5.4
			c0.7-1,0.4-2.6,1.5-3.4c2.5,0,3.5,2.2,4.9,3.7c3.9,4,6.2,3.9,9.7-0.2c2.9-3.4,5.8-6.7,8.3-10.4c0.6-1.2,1.1-2.5,2.1-3.5
			c3.4-4.2,6.7-8.4,10.1-12.5c3-3.6,6.1-7.2,8.9-10.9c1.8-2.3,4-4.3,6.1-6.3c0.6-0.5,1.2-0.8,1.9-0.8c0.8,0.2,1.2,0.8,1.4,1.5
			C352.1,89.7,351.6,91,350.2,91.9z"/>
		<path class="st131" d="M315.3,146.8c-0.3,0-0.6,0-0.9,0.1c-1,1.2-0.4,2.6-0.5,3.8c-0.2,1.7,0.8,3.9-1.4,4.9
			c-2.4,1-4.9,0.7-7.1-0.8c-2.3-1.6-3.2-4.2-4.4-6.5c-0.5-2.4-1.2-4.7-1.4-7.1c-0.2-1.8-0.3-4.2,2.9-3.3l0,0
			c1.1,1.2,3.2,0.7,4.1,2.2c0.9,1.7,0,3.2-0.7,4.7c-0.9,1.9-0.1,3.6,0.9,5.1c0.6,0.9,1.4,1.4,2.5,1.3c1.2-0.1,1.7-1.1,1.7-2.1
			c0.1-2.5,1-4.8,2.1-6.9c-2.2-2-5.4,0-7-2.7c1.6-2.4,4.4,0,6.2-1.6l0,0c3.4-0.2,4.3,1.7,3.8,4.6C316,144,315.6,145.4,315.3,146.8z"
			/>
		<path class="st132" d="M350.2,91.9c0.3-1.3,0.7-2.6,1-4c1.8-2.9,3.4-5.9,7.1-6.8c1.3,1.8,0.2,4,0.9,5.9c-0.7,1-1.4,1.9-2.1,2.9
			c-1.4,1.3-2,3.3-3.9,4.1C351.8,94,350.3,93.9,350.2,91.9z"/>
		<path class="st133" d="M359.3,87c-4.2-1.3,0-4.2-1.1-6.1c0-0.2,0.1-0.4,0.1-0.7c0.1-0.4,0.3-0.8,0.5-1.3c1.4-2.8,2.5-6,6.5-6.1
			c0.2,1.6,0.7,3,2,4C365.3,80.9,362.8,84.4,359.3,87z"/>
		<path class="st134" d="M367.3,163c2.6-2.7,5.2-5.5,7.9-8.2c0.1,0.9,0.2,1.7,1.1,2.1c0,0.3,0,0.6,0,0.9c-2.8,5.4-8.7,7.9-11.9,13
			c-1.7,1.7-3.4,3.4-5,5.1c-1.5,0.2-1.6-0.9-1.8-1.9c1-2.5,1.3-5.5,4.8-6.1C364.4,166.8,365.9,164.9,367.3,163z"/>
		<path class="st135" d="M227.6,129.9c1.1-0.2,2.3-0.4,3.4-0.7c2.6-0.8,4.5-1.6,1.5-4.7c-2.2-2.3-0.6-6.5,2.6-7.5
			c1.5-0.4,2.8-0.9,3.9-2c1-1,2.4-1.7,3.4-0.2c1.9,3,4.7,1.8,7.2,2.1c2.4,3.3,1.6,6-2.2,6.7c-2.6,0.5-6-0.8-6.3,3.7
			c-0.3,5.1,2.6,9.8,6.8,11c1.7,0.5,3.7,0.1,5.1,1.7c0.8,2.4-0.3,3.6-2.6,3.9c-1.6,0-3.1-0.6-4.6-0.9c-0.5-0.1-0.9-0.3-1.4-0.6
			c-1.5-1-2.2-2.9-3.8-3.9c-1.9-1.2-3.8-3.1-6.3-1.8c-2.6,1.3-3.7,3.7-3.5,6.6c0.1,1.5,0.3,3,0.8,4.4c0.6,1.6,1.2,3.1,0.1,4.7
			c-1.3,1.3-2.6,1.7-4.2,0.5c-0.3-2-1.4-3.9-1-6c1.4-1.1,1.2-2.8,0.9-4.1C226.4,138.5,227.3,134.2,227.6,129.9z"/>
		<path class="st136" d="M227.5,152.9c1.4,0.1,2.7-0.3,4-1c3.4,1.2,3.1,3.8,2.7,6.5c-0.4,3.1-2.6,5.8-2.1,9.1c0,0.5-0.2,1-0.5,1.4
			c1.1,3.4-2.7,5.1-3,8c-1.3-1.7-2.6-3.4-4-5.1c-0.1-2.9,1.5-5,2.9-7.2C230,160.6,228.4,156.7,227.5,152.9z"/>
		<path class="st137" d="M290.3,161.8c1.4-1.2,2.7-2.4,4.1-3.5c0.7-0.6,1.4-1.8,2.4-0.7c0.8,0.9,0.2,1.8-0.5,2.7
			c-5.3,6.9-10.7,13.7-16,20.6c-7.8,8.1-13.2,18-21,26c-8.5,8.7-15.3,19-24.5,27.1c-2.1,1.8-3.1,1.7-3.4-1.1
			c1.9-5.4,6.4-8.6,10-12.6c1.1-1.2,2.5-2.2,3.3-3.6c3.7-4,7-8.4,10.8-12.3c2.6-4.3,5.7-8.4,9-12.2c0.5-0.5,1.1-0.8,1.3-1.5
			c0.2-0.6,0.5-1.2,0.9-1.8c1.9-2.5,3.9-4.9,5.9-7.3c2.2-3.3,5-6.2,7.7-9c0.5-0.7,1-1.5,1.5-2.2
			C284.5,167.2,286.3,163.4,290.3,161.8z"/>
		<path class="st138" d="M271.4,247.7c-0.7,1.2-1.9,1-3,1c0.1-3.6-0.4-4.9-4.4-2.4c-5.3,3.3-11.4,3.5-17.5,1.6
			c-2.2-0.7-2.6-1.4-0.8-3.4c1.7-2,5.6-4.4-0.2-6.6c-1.5-0.6,0-2.2,0.9-3.1c2.4,0.6,4.1-0.9,6-1.9c2.5-1.3,3.9-0.3,4,2.3
			c0.1,2.1-0.2,4.3,0.1,6.5c0.3,1.8,0.4,3.4,2.9,3c1.9-0.3,3.5-0.7,3.4-3.3c-0.2-3.7,1.4-6.1,5.6-5.8c1.5,0.6,3.2,0.4,4.8,0.7
			C277.7,239.9,277.1,243.8,271.4,247.7z"/>
		<path class="st139" d="M268.5,236.7c-3.9-0.2-5.6,1.3-4.2,5.2c1.2,3.4-1.2,3.8-3.3,3.7c-1.8-0.1-5.3,3.5-5.4-1.7
			c0-2.6-1.4-5.1-0.2-7.8c0.4-0.8,0.4-2.2-0.5-2.8c-1.1-0.7-1.7,0.6-2.5,1c-1.9,0.8-3.7,4-5.8,0.4c3.7-2.1,4.8-6.5,8-8.9
			c2.9,2.6,5.6,4.7,10,2.3c2.5-1.4,5.5,0,7.3,2.6C272.4,233.7,270.3,235.1,268.5,236.7z"/>
		<path class="st140" d="M300.3,165.7c1.3-0.9,2.5-2.2,4-2.7c2.3-0.8,4.9-2.5,6.4,1.7c0.5,1.4,3,2.1,4.6,3.2
			c1.9,0.6,2.8,1.8,2.4,3.9c-1.6,3-4.3,3.1-7.1,2.7c-1,1.8,1,2.3,1.2,3.5c0.3,2.5-1.3,4.3-3.3,3.4c-3.2-1.5-5.2,0.2-7.6,1.2
			c-0.8,0-1.5-0.2-2-0.8c-1.1-1.9-0.9-3.9-0.5-5.9c-0.4-1.1,2.5-2.4-0.2-3.4c-0.4-0.1-0.7-0.3-1-0.6
			C298.2,169.8,299.3,167.7,300.3,165.7z"/>
		<path class="st141" d="M265.3,211.6c6.7-8.6,13.4-17.1,20.1-25.7c1.3,1.5,1.9,3.4,3.2,4.8c-1.6,2.4-4.2,4.2-4.9,7.3
			c-1.9,1.9-2.7,4.4-3.9,6.6c-2.1,3.8-5.4,6.7-6.8,11.3c-0.5,1.7-3.9,1.4-5.9,0.6C264.8,215.6,264.5,213.7,265.3,211.6z"/>
		<path class="st142" d="M265.3,211.6c-0.1,3.7,2.1,4.3,5.2,4.2c3.5-0.1,2.9-2.5,2.9-4.5c0-2.9,0.2-5.5,4.3-4.6
			c0.9,0.2,1.7-0.6,1.3-1.6c-1.9-4.6,2.2-6,4.5-8.3c4.7-1.1,7.5,0.2,9.7,4.4c0,1.2-0.5,2.7-1.5,2.9c-3.9,0.7-6.3,4.4-10.4,4.5
			c-4,0.1-6,2.1-5.7,6.3c-1.5,3.1-0.9,8-6.3,8c-1.4-0.5-2.9-0.8-4.3-1.5c-2.9-2.4-2.1-5-0.5-7.7
			C264.4,212.8,264.6,212.1,265.3,211.6z"/>
		<path class="st143" d="M245.6,216.8c-1,4-5.4,4.9-7.3,8.3c-1.6,2.9-4.5,5.1-6.8,7.6c-3.1,0.8-2.4,4.8-5,6c-0.4,0.3-0.7,0.3-1.1,0
			c1-2,2-4,3-6c-1-5.2,2.9-9.5,2.7-14.6c-0.1-2.7,2.4-3.5,4.7-2.7C239.2,216.5,242.4,216.8,245.6,216.8z"/>
		<path class="st144" d="M265.5,220.8c1.4-0.2,2.7,0.2,3.9,1c0.4,0.5,0.8,1.5,1.3,1.3c4.4-1.4,4.5,1.2,4.3,4.3
			c-0.2,1.8-1.5,2.6-2.9,3.3c-0.2,0-0.4,0.1-0.6,0.1c-3.3-1.9-6.1-2.6-10-0.1c-2.8,1.8-5.8-1.4-6.9-4.9c1.3-1.1,1-3.4,2.9-4.1
			c0.5,0.1,0.9,0.4,1.3,0.7C263.2,225.5,263.2,225.5,265.5,220.8z"/>
		<path class="st145" d="M288.4,190.7c-3.3-0.2-2.9-2.6-2.9-4.8c4.8-4,6.9-10.3,11.8-14.1c0.4,0,0.8,0,1.1,0.1c1.1,0.7,1.5,1.7,1,3
			c0,2.3,0,4.6,0,6.9c-2.8,2.3-6.9,3-8.3,7C290.4,189.8,289.6,190.6,288.4,190.7z"/>
		<path class="st146" d="M225.5,238.7c0.3,0,0.7,0,1.1,0c0.3,2.2,1.5,2.2,3.1,1.2c1-0.6,1.8-1.6,3-0.4c1.3,1.3,0.4,2.6-0.3,3.5
			c-1.4,1.8-2.3,3.6-0.8,5.7c-0.7,0-1.3,0.1-2,0.1c-2.9-0.2-7.3,0.5-8.1-2C220.7,244.4,222.7,240.8,225.5,238.7z"/>
		<path class="st147" d="M265.5,220.8c-0.4,2,1,5.1-1.1,5.9c-2.1,0.8-3.9-1.9-5.8-3c-0.8-0.5-1-1.2-1.2-2.1c2.6-2.4,4-5.9,7-8
			C264.5,216.1,263.1,218.8,265.5,220.8z"/>
		<path class="st148" d="M285.4,51c-0.8,0.4-1,1.2-1,2c-1.9,0.9-2.7,2.8-4,4.3c-1.3,0.6-3.1,0.7-3.1,2.7c0,1.7,1.4,2,2.6,2.6
			c3.6,1.8,4.8,4.3,2.4,8c-2.1,1-4.1,0.9-6-0.5c-4-2.8-5-2.3-5.5,2.5c-0.1,0.8-0.1,1.6-0.2,2.5c-0.5,1.7-1.2,2.9-3.1,1.5
			c-1.9-4-4.5-7.7-5.4-12.2c-0.4-0.5-0.8-1-1.2-1.5c-1.4-1.7-4.2-2.9-2.5-5.6c1.6-2.7,4.3-3.3,7.3-2c1.6,0.9,2.5,2.4,3.9,3.6
			c-2-1.6,1.3-5.1-2.4-6c0-0.9-0.3-1.9,0.4-2.7c-0.3-1-0.6-2-1-3c-0.3-0.7-0.7-1.3-1-2c0.3-0.4,0.7-0.4,1,0c2.9,0.5,4.9-3,8-2
			c1.8,2.3,3.5,3.8,6.9,1.9C283.9,43.5,285.4,45.8,285.4,51z"/>
		<path class="st149" d="M244.4,55.1c2.2,1.2,4.1,1.1,5.6-1.1c0.6-0.9,1.2-2.2,2.6-1.2c1.1,0.8,2.3,1.9,1.7,3.2
			c-1.7,3.4,0.8,5.5,2.2,8c-1.3,1.5-2.9,1.8-4.8,1.5c-3.5-2-5.9-5-7.9-8.4C243.7,56.4,243.8,55.7,244.4,55.1z"/>
		<path class="st150" d="M251.6,65c1.6-0.3,3.3-0.7,4.9-1c0.3,0.3,0.7,0.7,1,1c2.2,2.2,3.8,5,7,6c2.6,0.9,1.7,3.6,2.6,5.5
			c0.6,1.4,0.6,2.9-0.2,4.2c-1.9,1.3-2.7-0.3-3.4-1.6c-1.4-2.6-3.5-4.3-6-5.8c-0.9-3.6-5.6-4-6.3-7.8
			C251.4,65.4,251.5,65.2,251.6,65z"/>
		<path class="st96" d="M265.4,56c-2.7-2-4.8-0.3-6.2,1.5c-1.9,2.3,1.4,2.6,2.2,3.9c0.6,0.9,1.4,1.8,2.1,2.6c-1.1,1.3-2.3,2.1-4,1
			c-1.8-2.8-6-4.8-2-9.1c1.3-1.4,2.8-2.5,4.2-2.2c3.6,1,4.6-1.3,5.8-3.7c0,1,0,2,0,3C267.8,54.7,267.7,56.1,265.4,56z"/>
		<path class="st151" d="M259.5,65c1.3-0.3,2.7-0.7,4-1c-0.4,4.6,4.4,7.4,4,12c-0.3,0.3-0.7,0.4-1,0c-0.3-2.9-1.8-4.5-4.7-5.1
			c-3.1-0.6-3.2-3.6-4.2-5.9C258.2,65,258.8,65,259.5,65z"/>
		<path class="st152" d="M244.4,55.1c0,0.6,0.1,1.3,0.1,1.9c-1.4,0.1-1.2,1.8-2.3,2.2c-2-0.4-0.6-2.4-1.7-3.2c-1.3-1.7-2.6-3.4-4-5
			c-1.6-1.8-0.8-2.9,0.9-3.9C240,49.6,241.3,53.1,244.4,55.1z"/>
		<path class="st153" d="M240.5,56c0.7,1,1.3,2,2,3c4.3,2.1,4.4,6.3,4.8,10.2c0.1,1.3-0.7,2.2-2.1,2.3c-3.7-1.7-6.4-4.2-6.7-8.5
			c-0.7-0.7-1.3-1.3-2-2C240.2,61.2,239.8,58.2,240.5,56z"/>
		<path class="st154" d="M238.5,63c2,2.6,4,5.3,6,7.9c4.9,3,7.1,8.3,10.5,12.6c0.1,2.4,2.1,3.6,3.1,5.4c0.9,1.6,2.9,3,1.2,5.2
			c-0.3-0.1-0.6-0.2-0.8-0.3c-6.3-8.3-12.7-16.6-19-24.9c-1-1-2-2-3-3C236.6,64.6,236.4,63.1,238.5,63z"/>
		<path class="st155" d="M228.5,68.7c-1.4-0.4-2.4-1.4-2.7-3c-0.2-1,0.4-1.6,1.3-1.6c1.6,0.1,2.7,1.1,3.1,2.6
			C230.5,67.8,229.6,68.5,228.5,68.7z"/>
		<path class="st156" d="M267.4,189.7c-0.4,0.4-0.7,0.7-1.1,1.1c-0.3,0.4-0.6,0.4-0.9,0c0-1.4,0.1-2.8-1.4-3.5
			c-2.5-1.2-4.4-2.8-5.9-5.1c-0.9-1.3-2.3-2-3.7-0.2c-0.7,0.9-1.4,2.1-2.8,1.3c-1.6-1-0.7-2.3-0.3-3.5c1.2-3.9,0.1-6.4-4.3-6.8
			c-1.5-0.1-2.5-0.6-2.7-2.3c-0.2-2.4-1.9-2.8-4-2.8c-3-2.4-6-3.5-9,0c-2.8-3.3,0.9-5.8,1.3-8.7c0.5-2.8,0.7-5.1-1.3-7.3
			c0.4-2-1.2-3.3-1.8-5c-1.5-4.4,1-10.8,4.6-12.2c2.3-0.9,7.9,3.1,10.2,7.2c-6.3,1.5-6.3,1.5-8.6,3.9c1.7,1.4,4,1.4,5.7,2.6
			c1.3,0.9,3,2.1,4.4,0.4c1.2-1.4,0.9-3.1-0.1-4.6c-0.4-0.7-0.9-1.4-0.5-2.3c1.5-0.2,2.8,0.3,4,1c2.7,1.4,3.4,3.4,2.1,6.1
			c-1.2,2.4-2.1,4.9-4.2,6.7c-1.3,1.1-1.5,2.6-0.5,4c1,1.5,2.3,0.7,3.5,0.1c2.4-1.3,4.8-1.2,7,0.4c0.7,0.5,1.3,1.2,2.1,1.6
			c1.1,0.5,2.2,0.5,3.4,0.1c5.3-1.9,7-1.5,9.3,3.4c1.9,4.3,4.4,7.1,9.2,7.4c-2.6,3-5.2,6.1-7.8,9.1
			C270.9,183.2,268.1,186.8,267.4,189.7z"/>
		<path class="st157" d="M265.4,190.7c0.3,0,0.6,0,0.9,0c-0.3,0.4-0.5,0.7-0.8,1.1c-3.2,2-7,2.6-10.2,4.5c-1.5,0.9-3.2-0.2-4.6-1.1
			c-3.1-1.8-6.1-2.5-8.9,0.8c-1.4,1.7-3.3,2.3-5.2,0.7c0-0.3,0-0.7,0-1c2.7-1.4,1-3,0.1-4.4c-2.2-3.2-4.4-6.5-4.9-10.5
			c-0.2-1.2-0.3-2.4,0.7-3.2s2.1-0.2,2.7,0.5c2.5,3.1,7.3-0.5,9.6,3.3c0.6,1.1,2.1,1.7,1.2,3.3c-2.8,4.8,2.8,5.8,3.9,5.5
			C255.2,188.8,260.2,191.8,265.4,190.7z"/>
		<path class="st158" d="M231.5,167.9c0.1-1.7-0.1-3.9,2.6-3.6c2.6,0.3,6.1-0.8,6.4,3.6c0,0.2,0,0.4-0.1,0.5c-1.3,2,0.2,6-3.3,6.2
			c-3.4,0.2-4.3-3.2-5.6-5.7C231.5,168.5,231.5,168.2,231.5,167.9z"/>
		<path class="st159" d="M245.6,216.8c-2.4,1.7-4.5,2.4-7.6,0.5c-4.2-2.5-6.2-1.1-6.5,3.8c-0.2,4.1-2.1,7.7-3.1,11.6
			c-0.5-2.5-2.7-3.1-4.6-4c-0.8-0.4-1.4-0.9-1.1-1.9s1.2-1,2-0.9c4.9,0.8,5.3-3,5.5-6.1c0.2-4.2,3-7.2,7.1-6.6
			c1.4,0.2,2.6,0.7,3.5-0.7c0.9-1.3-0.4-2.1-1.1-3c-2.1-2.5-1.7-4.2,1.6-4.8c1.2,0.1,2.4,1.6,3.6,0.3c1-1,0-2.1-0.4-3.2
			c-0.5-1-1.2-2.1-0.1-3.1c1-1,2.1-0.4,3.2,0.1c1.2,0.5,2.3,0.8,3.7,0.4c4.7-1.4,6.1,0.2,5,5.5C252.7,208.7,249.9,213.4,245.6,216.8
			z"/>
		<path class="st160" d="M256.4,204.7c-0.4-4.7-0.3-4.6-5.1-3.2c-2.5,0.7-3.8-2.2-6.6-2.3c0.4,2.8,4.9,5.4,1,8
			c-1.8,1.2-3.8,0-4.3-2.4c-1.1-3-5-4.2-5-8c1.6-0.1,3.2,0.2,4.5-1.3c3.5-4.1,5.9-4.5,10.2-1.2c1.9,1.5,3.8,2,5.3,0.4
			c2.6-2.8,5.7-2.6,9-2.8C263.3,196.7,259.1,200.2,256.4,204.7z"/>
		<path class="st161" d="M266.4,45c-0.3,0-0.7,0-1,0c-4.7-1.3-6.4-6.6-11.1-8c-1.5-0.5-0.4-2.7,0.5-3.4c3.9-3.4,1.7-5.5-1.3-7.6
			c3.2-0.4,6.6,1,9.7-1.1c0.7-0.5,1.3-0.3,1.7,0.3c0.7,1.1,0.1,2-0.9,2.4c-2.5,1.1-2.2,2.4-0.5,4c2.8,2.5,2.1,6.2,2.9,9.3
			C268.2,42.4,266.1,43.7,266.4,45z"/>
		<path class="st162" d="M252.5,139.9c-9.2,1.2-12.1-4.5-12.9-12.3c-0.5-4.3,1.5-5.9,5.9-5.2c4.1,0.6,5.3-1,4-5.5c3,0,6,0,9,0
			c7.2,2.8,7.9,3.7,7.6,8.9c-0.5,1.1-1.3,1.9-2.1,2.8c-4,5.3-4,5.3-0.2,10.4c0,0.5-0.1,1-0.4,1.4c-2.3,1.8-4.9,0.7-7.3,0.8
			C254.7,141.1,253.5,140.8,252.5,139.9z"/>
		<path class="st163" d="M265.4,125.9c0.2-3.2-0.6-5.8-4.2-6.5c-1.4-0.3-2.1-1.4-2.7-2.5c-2.4-2-5.3-0.6-8-1
			c5.5-2.4,10.7-0.5,15.9,1c1.2,1.7,0.8,3.7,1.2,5.6C268,124.1,267.9,126,265.4,125.9z"/>
		<path class="st164" d="M267.4,115.9c1.5-2.6,4.1-1.5,6.3-2.1c4.5,2.7,7.6,6.7,9.2,11.7c-3.1,4.7,1.3,3.3,3.2,3.9
			c3.5,1.7,5.2,5,6.7,8.3c0.3,1.5,1.5,2.5,2.1,3.9c1,2.2,2.4,4.6,0.1,6.8c-2.1,2-4.3,0.7-6.3-0.5c-3.5-1.6-7.3-1.4-10.9-2.3
			c-3.4-4-3.4-4.1,4-7.2c-1.4-2.1-2.8-3.4-5.5-2.4c-3.3,1.2-4.3,0-4-3.6c0.2-3.6-2.1-6.8-4-9.8C266.3,120.5,266.7,118.2,267.4,115.9
			z"/>
		<path class="st165" d="M291.4,137.8c-1.9-2.7-2.9-6.1-5.9-7.9c-2-0.6-2.7-2.1-2.9-4.1c-3-4-6-8-8.9-12c-0.4-1-0.9-1.9-1.3-2.9
			c0.5-0.9,1.3-1.3,2.2-1.4c2.7,0.2,3.7,4.7,7.2,3c4.1,0.9,5.9,4.5,8.3,7.4c2.8,3.4,5.1,7.2,7.3,11c1,1.7,2,3.3,3,5
			c-1.2,0.8-3.2,0.8-2.4,3.4c0.6,1.9-0.2,3.4-2.7,2.5C293.6,140.8,292.4,139.4,291.4,137.8z"/>
		<path class="st166" d="M267.4,115.9c0.4,2.1-0.6,4.7,2.1,6c0.5,0.5,0.6,1.2,0.6,1.8c0.1,4.9-1.1,10.2,3.9,13.8
			c0.8,0.6,1.1,2,0.7,3.3c-0.4,0.6-1.1,0.9-1.7,1.1c-1.5,0.3-2.8,1.4-4.5,1.3c-1.1-0.7-2.2-0.8-3.4-0.1c-1.7-0.5-1.8-1.9-1.6-3.3
			c0-0.3,0-0.6,0-1c1.6-3.7-0.6-7.3,0-11c0.7-0.7,1.3-1.3,2-2c1.3-1,2-2.3,1-3.8c-1.2-1.8-0.3-3.4-0.1-5.2
			C266.7,116.6,267,116.3,267.4,115.9z"/>
		<path class="st167" d="M274.5,109.9c-0.5,0.9-1.3,1-2.1,1c-3-1.7-3.5-5.7-6.9-7.1c0-0.3,0-0.6,0-0.9c-0.6-0.9-0.8-1.9-0.1-2.7
			c0.9-0.9,1.9-0.3,2.6,0.3C270.9,103.2,274,105.6,274.5,109.9z"/>
		<path class="st168" d="M274.5,109.9c-2.3-2.8-4.4-5.7-6.9-8.3c-2.3-2.5-1.9,0-2.1,1.3c-2.3-2.8-4.8-5.4-6.1-8.8
			c-0.2-3-2.4-4.9-4.2-7.1c-0.8-0.9-2.4-1.7-0.7-3.2c1.5-0.3,3.1-0.3,4.4-1.3c4.9,1.6,6.5,6.4,9.3,9.9c4,5.2,8.7,10,12,15.7
			c0.8,1.4,2,2.7,1.3,4.6c-1.2,2.4-2.6,2.2-4.1,0.4C276.3,112.1,276,110.5,274.5,109.9z"/>
		<path class="st169" d="M364.2,213.8c-6.1-6.5-10.9-13.9-15.8-21.3c-2.1-3.1-4.4-6.1-6.9-8.9c-1.3-1.5-3.1-2.5-3.3-4.8
			c10.2,3.2,14.1,12.4,19.3,20.3c0.5,0.8,1.4,1.3,2.2,1.9c3.1,2.3,5.6,4.9,4.2,9.2c-0.5,1.6,0.9,2.3,1.3,3.6
			C364.9,214.3,364.5,214.3,364.2,213.8z"/>
		<path class="st170" d="M333.3,162.8c4.9,3.4,8.2,8.3,11.8,12.9c1.2,1.5,2.4,3.1,4.1,4.2c0.3,0.2,0.4,0.4,0.3,0.6
			c-0.1,0.2-0.1,0.3-0.2,0.3c0,0.3,0,0.7,0,1c-3-0.3-4.3-2.8-6.1-4.6c-3.7-3.8-7.4-7.6-10-12.3C332.7,164,332.5,163.5,333.3,162.8z"
			/>
		<path class="st171" d="M370.2,226.8c1.8-1.3-0.3-2.6,0-3.9c1.9,0.6,2.1,2.5,3.1,3.9c3.3,4.3,7.5,8,9.9,13.7
			c-3.1-0.2-3.9-3-5.9-3.7C375.8,232.7,370.9,231.3,370.2,226.8z"/>
		<path class="st171" d="M364.2,213.8c0.3,0,0.7,0,1,0c2,1.5,3.6,3.2,3,6C366.8,217.8,364.6,216.5,364.2,213.8z"/>
		<path class="st172" d="M358.2,173.8c0,0.8,0.2,1.6,1,2.1c-0.3,0.6-0.7,1.3-1,1.9c-1.5,1.6-2.9,3.5-4.5,4.9c-2.3,2-3.4,1-3.4-1.8
			C352.6,178.2,353.7,174.1,358.2,173.8z"/>
		<path class="st173" d="M358.2,173.8c-3.5,1.4-4.2,6-7.9,7.1c-0.3,0-0.7-0.1-1-0.1c0-0.3,0-0.6-0.1-0.9c1.7-5,6.8-8.9,5-15
			c3.2-0.3,6.5-1.1,8,3C360.9,169.9,359.6,171.9,358.2,173.8z"/>
		<path class="st174" d="M268.5,236.7c-0.2-2.6,3.1-3.4,3-6l0,0c3.2,0.9,5.8,0.3,8.7-1.5c5.5-3.5,16.8,0.9,19,7
			c0.8,2.1,2.2,2.7,4.2,2.6c1.5-0.1,3-0.5,4.4-0.7c4.7-0.7,6.9,0.4,8.2,5c0.9,3,2.1,2.8,4.3,1.8c3-1.4,4.8-3.4,5-6.8
			c0.1-1.3,0-2.7,0.2-4c0.3-2,1.5-3.3,3.3-4c1.9-0.7,3.6-0.1,5,1.3c1.2,1.3,2.1,2.7,4,3.5c4.2,1.9,7.5,2.7,10.6-2
			c1.5-2.2,5-2.7,7-0.1c2.6,3.5,2.7,0.5,3.5-1c1-2.1-1.7-4.3,0.3-6.3c2.9,0.5,3.7,2.7,4,5.2c1.4,4.1,4.7,7,7.2,10.5
			c2,2.7,2.7,4.1-1.4,4.8c-1.3,0.2-2.1,1.5-2.8,2.7c-14,0-27.9,0-41.9,0.1c-4.7,0-9.3,0-14,0c-4.1-2.5-8.3,0-12.5-0.4
			c-3.9-0.4-7.9-0.6-11.9-0.7c-4.2,0-5.3-3.9-7.3-6.7c-1.5-2.2-2.4-5.4-6.3-4.2C271.1,237.6,269.8,237.7,268.5,236.7z"/>
		<path class="st139" d="M272.4,236.7c1.5-2.7,3.3-2.3,5.1-0.3c0.3,0.4,0.7,0.8,0.8,1.2c2.5,9.2,10.1,9.8,17.4,9.9
			c3.5,0,7.4,1.5,11-1.2c1.6-1.2,2.7,1.1,3.6,2.4c-11.1,0-22.1,0-33.2,0c-2,0-4,0.1-5.8-1c0.9-1.4,1.7-2.8,2.6-4.2
			C275.9,240.7,275.7,238.4,272.4,236.7z"/>
		<path class="st175" d="M363.2,230.8c-1.3-1.6-2.7-3.3-4-4.9c-3.6-0.8-4-4.8-6.6-6.6c-7.8-9.9-15.4-19.9-23-29.8
			c-1.1-2.7-2.7-5-4.8-7c-1.1-1.1-2.2-2.2-3.1-3.5c-1.1-2.6-5.1-3.4-4.4-7.1c0.4-1.9-1.3-2.7-1.9-4c0.1-0.9-0.3-2.1,0.9-2.6
			c1-0.3,1.5,0.5,1.8,1.3c1,2.7,3.2,4.5,5.1,6.6c0.6,0.7,1.3,1.8,2.4,0.7c1-0.9,0.4-1.9-0.4-2.6c-1.9-1.7-3.4-3.6-2.9-6.4
			c3.8,5,7.8,10,11.5,15.1c2.5,3.4,4.1,7.5,6.9,10.6c6.7,7.4,11.3,16.5,18.9,23.2c0.8,0.7,1.1,2,1.6,3c-4.7,0.3-3.4,2.8-1.5,4.8
			c2.2,2.5,4,5.2,5.3,8.3c0.2,0.5,1.1,1.1,0,1.4C364.5,231.5,363.8,231,363.2,230.8z"/>
		<path class="st176" d="M297.4,45c-2.4,2.7-5.7,2.3-8,1c-2.3-1.4-2.6-4.4-1-7c-1.2-1.4-3.3-2-4-4c-1.6-4.3,1.1-3.3,3.1-2.2
			c2.8,1.5,4.9,2.2,6-1.7c1.3,0,2.6,0,3.9,0C295.9,35.7,296.2,40.4,297.4,45z"/>
		<path class="st177" d="M284.4,35c1.7,1,4,1.3,4,4c-3.5,0.9-4.1,3-3.1,6.2c0.6,1.8,2.3,3.8,0.1,5.8c-0.4-1.3-0.7-2.6-1.1-3.8
			c-0.6-1.7-1.5-2.4-3.3-1.1c-4.1,2.8-5.4,2.2-6.5-3.1c4.5-0.4,8-1.9,8.4-7.2C282.8,35.6,283.8,35.3,284.4,35z"/>
		<path class="st178" d="M331.2,12.2c-7.6,2-15.2,0.3-22.7,0C316,12.1,323.6,12.1,331.2,12.2C331.2,12.1,331.2,12.2,331.2,12.2z"/>
		<path class="st179" d="M327.3,39c1.3,4.9-3,3.7-5.1,4.4c-2.3,0.8-4.1-0.8-5.2-2.7c-0.7-1.2,0.4-1.7,1.5-1.7c2.3-0.1,4.6,0,6.9-0.1
			C326,39,326.6,39,327.3,39z"/>
		<path class="st180" d="M315.3,64c1.7,0.1,3.4,0,5-1c0.7-0.6,1.3-0.6,2,0l0,0c4.5,1.7,6,6,6.5,9.8c0.4,3.3,1.1,5.1,4.2,6.1
			c2.3,0.8,4.3,2.3,6.3,3.8c0.3,3.2-1.7,3.2-3.8,2.6c-2.8-0.8-5.5-0.7-8.3-0.3c-2,1.4-1.2,4-2.2,5.8c-2.1,3.6-4.9,3.9-8.3,1.9
			c-2.5-1.5-5.2-2.7-7.3-5c-1.4-1.6-2.7-3.2-1.9-5.3c1.4-3.3-1.6-1.5-2.4-2.3c-0.5-0.6-0.6-1.3-0.5-2c0.1-0.7,0.6-1.4,0.4-1.9
			C303.2,67.6,310.4,66.8,315.3,64z"/>
		<path class="st181" d="M315.3,64c-2.8,1.7-4.1,5.6-8.3,5.3c-0.9-0.1-1.9,1.2-1.1,2.2c2.2,2.5,0.6,4.4-0.7,6.5
			c-1.8-2.9-5.5-4.1-6.6-7.7c2.2-3.8-3.3-5-2.7-8.2c0.1-0.5,0-0.6-0.1-0.4c-2.7,5.9-7.2,0.2-10.5,1.5c-0.7-0.8-0.5-1.8-0.4-2.7
			c0.9-5.7,1-5.8,8.3-5.5c-1.4-1.9-3.9-2.1-4.9-4c2.2-3,4.2-1.1,6.1,0.4c0.8,0.6,0.8,2.2,2.5,1.8c3.3-0.8,3.1,0.9,2.5,3.3
			c-0.4,1.3,0,3,1.7,3c2.2,0.1,1.3-1.6,1.3-2.9c-0.1-2.4-0.9-5.3,3-5.7c3.9-0.4,7,1.3,8.6,4.7c0.9,1.8-0.5,2.3-2.1,1.2
			c-0.9-0.6-1.9-1.2-2.3,0.3c-0.4,1.1-0.2,3.3,0.4,3.1C313.3,59.5,313,63.8,315.3,64z"/>
		<path class="st182" d="M365.2,66c-0.1,0.6-0.2,1.2-0.3,1.8c-1.2,3.8-4.2,6.3-6.1,9.6c-1.1,1.2-2.3,2.5-3.8,3.2
			c-0.5,0.2-0.9,0.3-1.4,0.5c-4.2,0-7.6,3.9-12.1,2.8c-0.7-0.2-1.3-0.6-1.8-1.2c-3.6-2.1-2.7-6-3.6-9.1c-0.4-1.4,1.2-2.2,2.3-2.9
			c1.9-1.1,3-2.5,2.7-4.8c0-0.3,0-0.7,0-1c1.1-1.1,2.5-1.7,4-2c4-0.1,6.1,3,8.9,5c1.4,1.4,2.8,1.4,4.4,0.3c1.4-0.9,2.9-1.6,4.6-1.3
			C363.9,66.7,364.6,66.3,365.2,66z"/>
		<path class="st183" d="M341.3,66c3.8,2.4,0.4,3.6-0.8,5.2c-0.9,1.2-4,1.6-3.4,2c2.8,2-1.1,5.6,2.1,7.2c0.5,0.2,0.7,1.1,1.1,1.6
			c-0.2,0.4-0.5,0.8-1,1c-3.9-0.6-6.9-3.3-10.5-4.8c-0.5-0.2-1.4-1.2-1.3-1.3c2.4-4.3-2.8-6.8-2.4-10.6c0.1-1.8-2.1-2-2.8-3.2
			c2.9,0.4,4.2-1.9,6-3.5c1.7-1.6,3.1-3.9,6-3.5c0.4,1-0.1,1.6-1,2c-2.3,2.1-2.3,2,0.3,3.3c0.5,0.3,1.1,0.8,1.2,1.3
			c0.2,1.1-0.8,1.2-1.7,1.3c-1.1,0.1-2.3-0.2-4.2,1.7C333.7,65.4,337.3,67.7,341.3,66z"/>
		<path class="st184" d="M288.4,51.1c3,1,6.2,1.6,7.5,5.3c-3,2-10.3-4.8-9.5,4.6c-3.2,0.5-5.8,0.1-6-4c0.2-2.5,0.2-5.1,4-4
			C286,52.9,288,53.6,288.4,51.1z"/>
		<path class="st118" d="M363.2,67c-2,1.1-3.8,2.5-5.9,3.4c-2.1,0.9-4.2,1.2-3.1-2.4c0.9-1.6,2.4-2.9,2-5
			C359.3,63,361.7,64.3,363.2,67z"/>
		<path class="st185" d="M333.3,58c0.3-0.7,0.7-1.3,1-2c1.3-1.9,3.8,0.1,5.2-1.8c0.3-0.4,1.5,0.1,1.4,0.8c-0.1,1.3-0.2,2.7-0.8,3.8
			C339.1,60.5,334.7,59.9,333.3,58z"/>
		<path class="st183" d="M322.3,63c-0.7,0-1.3,0-2,0c-0.1-2.5,0.4-4.9-0.6-7.3c-0.7-1.6,0.2-2.8,1.5-3.8c0.6-0.4,1.3-0.6,1.7,0
			c0.7,1,0.6,2.3,0.2,3.3C322,57.7,322.4,60.4,322.3,63z"/>
		<path class="st186" d="M345.3,63c-0.4,2.6-2.4,1.8-4,2c0-1.1-0.1-2.3,0.8-3.2c0.8-0.7,1-2.5,2.2-2.2C345.9,60.1,345,61.9,345.3,63
			z"/>
		<path class="st183" d="M333.9,52.5c-0.2,2.1-2,1.2-3,1.7s-2.3,1-2.4-0.9c0-1.3,0.9-2,2.1-2.2C332,50.9,333.2,51.2,333.9,52.5z"/>
		<path class="st187" d="M358,76.9c2-3.3,3.9-6.6,7-9.1c1.2-0.7,2.4-1.4,3.9-2.3c0.4,3.5-3.3,4.7-3.7,7.5c-2.9,1.6-4.5,4.3-6,7
			C358.1,79.3,358.1,78,358,76.9z"/>
		<path class="st188" d="M353.3,133.8c-0.6,1.3,0.6,3.8-2.2,3.3c-1-0.2-2-1.4-1.5-2.7C350.5,132.3,352,133.3,353.3,133.8
			L353.3,133.8z"/>
		<path class="st189" d="M301.4,147.9c1.6,0.6,1.7,2.3,2.4,3.6c1.6,3,4.3,4,7.5,3.4c3.3-0.6,1.7-3.4,2-5.3c0.2-1,0.1-2,1-2.6
			c0,1.8,0,3.6,0,5.4c0,6.1,0,6.2-6.3,5.6c-2.3-0.2-3.5,1.9-5.4,2c-1.4,0.1-2.3,2.6-3.8,1.1c-1.2-1.2-0.1-2.8,0.5-4.1
			C301.5,154.2,298.8,150.4,301.4,147.9z"/>
		<path class="st190" d="M301.4,147.9c-0.3,3.1,0.9,6.5-2,9c-0.3-1.9,1.1-4.6-2.3-5.1c-1.9-3.3-1.1-7.1-2-10.6
			c1.4,0.2,3.1,0.3,2-1.8c-2.9-5.3-0.1-4.5,3.3-3.4c0.7,0.7,1.4,1.3,2,2c-3,0.7-2.5,3.2-1.5,4.5C302.4,144.4,301.7,146,301.4,147.9z
			"/>
		<path class="st191" d="M290.3,161.8c-2.7,3-5.3,6-8,9c-5.1-1.7-1.5-4-0.4-6.1c5.4-3,5.4-3,2.2-9.4c2.6-1.6,5.1-3.4,7.7-5
			c1.7,0.4,3.1,1.1,4.3,2.5C296.2,157,290.8,157.9,290.3,161.8z"/>
		<path class="st192" d="M296.1,152.8c-1.7,0.3-3-0.3-3.8-1.9c-5.7-1.7-5.7-1.7-6.7-4.4c1.3-0.1,2.6-0.5,3.8,0.3
			c1.6,0.9,3,2.8,5.1,0.8c1.8-1.7,0-3.3-0.4-4.9c-0.4-1.9-3-2.7-2.7-5c1.2,1.1,2.4,2.2,3.6,3.3c1.2,3.5,2.4,6.9,2.1,10.6
			C296.8,152.1,296.5,152.4,296.1,152.8z"/>
		<path class="st193" d="M349.7,173.1c0.8-2.3,1.9-3.9,0.1-5.5c-0.8-0.7-0.8-2,0.3-2.5c1.2-0.6,2.5,0.1,2.7,1.3
			C353.4,168.9,354.3,171.7,349.7,173.1z"/>
		<path class="st194" d="M324.3,117.9c-0.6,1-1.3,2-1.9,3.1c-3.2,4-6.3,8.1-12,8.9c-1.7,0.3-3.1,0.9-4.3-0.8
			c-0.1-4.6,4.2-5.8,6.6-8.5c-2.1,1.2-4.1,2.1-6.5,0.9c-1.9-0.9-3.9-1.4-2.3-4.2c0.8-1.5-1.5-0.5-1.6-1.5c0.1-2.6,0.5-5.2-2.7-6.7
			c-1.3-0.6-1.3-2.2-1.1-3.5c0.3-1.7,1.5-1.8,2.9-2c4-0.6,8-1.1,11.8-2.9c1.3,3.1,4.3,0.9,6.2,2.1c0,3.5,1.5,7.8-4.7,7.4
			c-1-0.1-1.5,0.6-1.5,1.6c0,0.9,0.7,1.5,1.5,1.7c2.5,0.7,4.5-0.4,6.5-1.7c1.5-0.1,2.3,0.9,3.1,1.8
			C325.5,115,325.3,116.5,324.3,117.9z"/>
		<path class="st195" d="M281.4,112.9c-6.6-10.8-14.4-20.6-23-29.9c-0.4-0.3-0.7-0.6-1-1.1c-0.5-2.4-3.1-4.7-0.5-7.3
			c0.5-0.1,0.9-0.1,1.4,0c2.5,1.6,2.9,5.2,5.8,6.5c2.5,1.5,3.9,3.8,5.1,6.3c3.4,3.4,5.5,7.7,8.8,11.1c4.9,5.6,9,11.8,13.4,17.9
			c1.6,2.3,3.2,4.5,5.2,6.5c1.4,1.4,2.6,2.9,1.7,5.1c-0.3,1,1.6,2.8-1,3c-5.2-3.2-6.5-9.6-10.8-13.6
			C284.8,115.8,283.4,114.1,281.4,112.9z"/>
		<path class="st196" d="M319.3,102.9c-2.3-0.7-2.8,1.7-4.4,2.9c-0.6-1.9-1.1-3.4-1.5-4.9c-1-0.8-1.6-1.8-1.2-3.2
			c5.3-4.4,11.2-3.9,17.3-2.3c3.9,1.8,7.7,2.4,11.3-0.9c0.7-0.6,1.6-1.2,2.6-0.6c-2.2,4.3-5.5,7.7-8.8,11c-1,0.8-1.8,2.1-3.3,1.7
			c-4.7-1.1-6.5,1.3-6.9,5.6c-0.1,0.7-0.5,1.2-1,1.6c-0.7-0.7-1.4-1.3-2-2c-2.6-0.7-1.5-2.4-0.8-3.6
			C321.8,106.1,321.2,104.4,319.3,102.9z"/>
		<path class="st197" d="M343.3,94c-3.2,3.4-7,5-11.7,4c-1.3-0.3-2.2-0.6-2.3-2c-2.2-3.6,2.7-4.3,3.1-7.2c-3-0.7-5.2,2.6-8.1,1.2
			c1.1-1.9-1-4.8,2-6c7.8,0.5,15.5,1.4,23,4C347.4,90.1,345.8,92.4,343.3,94z"/>
		<path class="st198" d="M298.4,127.9c-1.2-4.6-6.1-6.7-7.7-11.1c0.1-0.8-0.1-1.9,1.1-2.1c2,1.6,3.7,3.6,6.2,4.6
			c3.4,2.7,4.6,7.3,8.4,9.6c1,0.5,1.8,1,3.1,0.4c4.8-2,9.5-4.2,12.9-8.3c-2.6,5.2-6.7,9.4-10.6,13.5c-3.1,3.3-6.5,0.3-9-2
			C301.3,131,300.2,129.1,298.4,127.9z"/>
		<path class="st199" d="M349.3,88c-2.4,0.8-4.1,1-6.8-0.7c-3.1-1.9-7.6-1.7-11.5-2.2c-1.6-0.2-3.3-0.2-4.7-1.1c3-0.9,6.1-1.4,9,0.1
			c1.8,0.9,3.1,0.9,3.9-1.1c0.3-0.3,0.6-0.6,1-1c0.3,0.3,0.7,0.7,1,1c2,1.3,3.8,1.3,5.7-0.2c2.1-1.7,4.6-2.1,7.2-2.1
			c0.5,3.2-1.8,4.7-3.7,6.3C350.1,87.4,349.7,87.7,349.3,88z"/>
		<path class="st200" d="M323.3,113.9c0-1.7-0.2-3.4,0.2-5c0.7-3,2.6-4.8,5.8-3.8c1.9,0.6,3.5,0.6,5.3-0.1
			c-3.1,4.5-6.5,8.9-10.2,12.9C324.2,116.5,324.8,115,323.3,113.9z"/>
		<path class="st201" d="M350.4,87c0.1-2.7,2.8-3.8,3.7-6.1c-0.3-0.5-0.2-0.8,0.4-0.9c0.3,0,0.5,0,0.8,0.1c1.2-0.4,2.6-1.8,2.9,0.8
			l0,0c-2.1,2.5-4,5.3-7,7C350.9,87.6,350.7,87.3,350.4,87z"/>
		<path class="st190" d="M312.3,137.9c-1.5,2.1-4.4,0-6,2l0,0c-1.7,0-3.3-0.1-4-2C305.7,137.9,309,137.9,312.3,137.9z"/>
		<path class="st202" d="M306.3,139.9c0.8,0,1.6,0,2.5,0c6.3,0,6.2,0,4,5.5c-0.5,1.2-0.3,2.6-0.4,3.9c-0.1,1.6,0.2,3.5-2.3,3.5
			c-1.8,0-3.2-0.1-4.6-1.9C302.1,146.7,305.3,143.5,306.3,139.9L306.3,139.9z"/>
		<path class="st132" d="M358.2,80.9c-0.6-1.8-2.2,0.3-2.9-0.8c0.6-1.3,1.4-2.6,2.7-3.3c1.4,0.7,1.2,2,1.2,3.2
			C358.9,80.3,358.5,80.6,358.2,80.9z"/>
		<path class="st203" d="M252.5,139.9c1.3,0,2.7,0,4,0c1.9,2.3,3.1,5.3,3.8,7.9c1,3.9-3.1,5.7-5.5,8.6c1,1,5,1.1,2.7,4.5
			c-2.5-0.7-5-1.8-7.4,0.6c-1.1,1-3.2,2.2-4.1-0.2c-0.7-2-3.1-4.2,0.1-6.5c4.7-3.4,5.9-8,3.4-11.9
			C251.7,143.1,252.7,142.1,252.5,139.9z"/>
		<path class="st204" d="M245.5,141.9c0.5,1.7,3.1,1.8,2.9,3.7c-0.2,1.7-0.6,3.8-1.6,5c-1.2,1.5-3.1,0.1-4.5-0.5
			c-2.2-1-4.1-2.4-6.8-2.5s-2.1-2.1-0.7-3.4c2.8-2.6,5.9-4.1,9.8-2.4C244.8,141.9,245.2,141.9,245.5,141.9z"/>
		<path class="st205" d="M282.4,164.8c0.6,2-4.1,3.9-0.1,6c0,0.8-0.2,1.5-1,2c-3.9,0.9-7.1,1.2-8.7-3.8c-0.6-2-1.5-4.3-3.4-5.8
			c-1.7-1.4-2.9-3.1-5.1-0.3c-1.6,2.1-3.8,0.9-5.8,0c-1.1-2.6-0.5-4.8,2-6.2c2.3-1.3,3.5-3.3,4.6-5.5c3.4-0.9,6.3,1.6,9.6,1.2
			c2,1.9,7.1,1.9,4.2,6.8c-0.8,0.8-2.8,0.8-2.4,2.6c0.4,1.6,1.9,1.4,3.2,1.4C280.9,163.2,282.5,162.8,282.4,164.8z"/>
		<path class="st157" d="M267.4,189.7c0-1.5,0.2-3-0.9-4.3c-0.9-1.1-1.5-2.2-0.4-3.6c1.2-1.5,2.4-0.4,3.6-0.1
			c1.3,0.3,2.5,0.7,3.8,0.1C272,184.9,269.7,187.3,267.4,189.7z"/>
		<path class="st206" d="M301.4,181.8c2.1-1.1,3.2-6,6.9-1.4c1.2,1.4,2.8-0.7,3.1-2.5c3.9-1.8,4.8,0.9,5.6,3.7
			c-3.8,7.4-6.4,15.2-7.3,23.5c-7,3.1-12.1-1.4-11.2-9.9c0.2-0.7,0.6-1.4,1.3-1.8c2.2-1.1,3.6,0.8,5.8,1.5
			C301.2,191.2,304,185.7,301.4,181.8z"/>
		<path class="st207" d="M301.4,181.8c2.9,0.9,5.4,1.9,2.2,5.3c-1.2,1.3-0.3,2,0.5,2.9c0.9,1,2,1.8,2.7,2.9c1.1,1.6,0.2,2.8-1,3.9
			c-1.8,1.5-2.1,0.1-2.6-1.3c-0.4-1.2-1.5-1.7-2.8-1.7c-2.1-4.1-6.9-2.9-10-5c1-5,4.7-6.3,9.1-7C300,181.8,300.7,181.8,301.4,181.8z
			"/>
		<path class="st208" d="M316.3,181.8c-1-2.1-1.8-4.5-4.9-4c-1.6-0.8-3.9-1.6-3.3-3.7c0.6-2,2.8-1.5,4.3-0.7
			c2.3,1.2,3.1-1.6,4.9-1.6c0.9,2.9,4.9,3.4,5.2,6.8c1.1,2.9-1.3,3.2-3,3.9C318.3,182.8,317.2,182.7,316.3,181.8z"/>
		<path class="st206" d="M303.2,176.8c-1-2.3-1.3-4-0.1-5.5c0.3-0.5,1.3-0.5,1.7,0.2C305.9,173.4,305,174.9,303.2,176.8z"/>
		<path class="st209" d="M299.4,174.8c-0.3-1-0.7-2-1-3c0.9-1,2-1.5,2.7-0.1C301.8,173.3,300.6,174.2,299.4,174.8z"/>
		<path class="st210" d="M290.3,188.8c2.3,0.1,4.6-0.2,6.8,0.2c2.4,0.5,3.4,2.3,3.2,4.8c-0.3,0.3-0.7,0.7-1,1
			c-1.7,1.9-0.1,4.5-1.3,6.6c-1.8,0.7-3.6,1.8-5.6,0.4c-1.5-4.3-5.5-4.1-9-5c-0.6-3.9,2.2-4.9,4.9-6.1
			C289,190.1,289.7,189.4,290.3,188.8z"/>
		<path class="st211" d="M292.4,201.8c2-0.3,3.9-1.4,6-1c1.5,2.4,0.5,4.4-0.9,6.3c-0.7,0.9-1.6,2-0.4,3.1c0.9,0.8,2,0.1,2.7-0.5
			c3.7-3.3,7.1-4.2,11.8-1c3.1,2,6.9-1.4,10-2.8c2.9-1.3,4.7-1.4,7.6,0.1c3.1,1.6,6.6,3,9.9,3.9c5.8,1.6,9.2,5.5,12.7,9.7
			c2,2.4,0.5-1.6,1.6-0.8c3,1.5,3.6,5,5.9,7.1c-1,2.2,3,3.5,1.1,5.9c-2.4,1.4-3.6-0.6-4.9-1.9c-5.7-5.7-13.5-8-19.8-12.6
			c-0.9-0.7-2.2-0.4-3.4-0.3c-2.7,0.2-5.3,0-7.8-3c1.4,2.6,0.7,4.4,0.2,6.3c-1.2,4.4-5.1,7.4-5.4,12.3c-0.1,2.2-3,3-5.7,2.8
			c-5.2-0.4-9.5-3.6-14.7-4.2c-2.3-0.2-3.6-2.8-1.5-4.9c2-2,2.2-5.8,5.9-6.2c2.2,0.2,3.1,2.3,4.7,3.3c1,0.7,2.1,1.1,3.2,0.4
			c0.6-0.4,0.8-1,0.7-1.7c-0.1-1.3-0.9-2.1-2.2-2.3c-1.5-0.2-2.9-0.4-4.3-0.9c-0.6-0.1-1.3-0.2-1.9,0.1c-5.1,2-7.8,1-11.8-2.8
			c-3.2-3.1-5.7-7.8-12-5.8c-2.8,0.9-2.3,4.5-5.2,4.5c-0.5-4.3,0.8-6.8,5.8-7.4c1.7-0.2,6.4,1.6,5.7-3.7c-0.1-1,1.6-1,2.4-0.3
			C290.6,205.3,291.4,203.3,292.4,201.8z"/>
		<path class="st212" d="M274.4,214.8c0.6-5.2,5.2-5.3,8.7-6.7c1.5-0.6,2.6,0.3,3.4,1.4c2.1,2.9,5.5,4.4,7.6,7.6
			c1.4,2,5.4,3.3,8.4,0.6c1.1-1,2-1,2.9,0.1c-0.3,1.2-1,2.2-2,3c-3.4,1.2-3.4,5.3-6.2,7.2c-0.9,0.6,1,2.5,1.7,2.3
			c5.4-1.3,9.2,3.6,14.3,3.7c4.4,0.1,6.1-1.1,5.1-5.3c-0.3-1.3-0.4-2.3,0.7-3c4.4-2.9,6.2-6.7,4.1-11.9c-0.6-1.4,0.7-2.3,1.7-2.5
			c1.8-0.3,0.7,1.1,1,1.9c1.1,3.4,4.1,2.4,6.5,2.6c2.3,3.5,1.5,6.7-1.4,9.3c-4.2,3.6-7.1,8.2-10.3,12.6c-2.6,3.5-4.4,4-7.6,1
			c-2.3-2.2-4.4-3.4-7.2-0.7c-2.5,2.4-5.2,1.4-5.8-1.4c-0.8-3.8-3.7-4.9-6.3-6.3c-2.4-1.2-4.8-2.2-6.5-4.3c-1.5-1.9-3.1-1.1-4.9-0.2
			c-2.4,1.3-4.9,2.9-7.9,1.9c-1-1.6,0.6-6.2-4.2-3.5c-0.7,0.4-0.7-1.5-0.8-2.4C273.9,221.5,273,217.3,274.4,214.8z"/>
		<path class="st213" d="M274.4,227.8c3-1.6,6.7-1.8,9.3-4.4c0.9-0.9,2.7-1,3.5,0.4c1.7,3.3,5,4.5,7.9,6.3c2.5,1.6,5.6,2.4,6,6.4
			c0.2,1.8,2.3,3.1,4.2,0.2c2.1-3.1,5.4-2.8,7.7,0.4c2.7,3.8,4.1,3.4,6.5-0.6c2.3-3.7,4.7-7.8,8.1-10.3c3.9-2.9,5.2-6,4.6-10.5
			c2.5-1,4.5,0.1,6.3,1.6c6.1,5.3,15,6.6,19.8,13.8c0.3,0.4,1.2,0.4,1.8,0.6c-0.3,0.6-0.6,1.2-0.8,1.8c-0.4,1.4,0,3.4-1.9,3.7
			c-2.1,0.3-1.9-1.7-2.5-3c-1.2-2.7-4.4-2.6-6.9,0.1c-1.1,1.2-1.9,2.7-3.1,3.9c-1.4,1.4-3,2.5-4-0.5c-0.1-0.3-0.3-0.9-0.4-0.9
			c-4.6,0.3-6.4-3.4-9.3-5.8c-2-1.7-4.9,1-4.8,4.2c0.3,7.2-1.2,9.2-7.9,11.7c-2.7,1-3.6,0.2-3.8-2.4c-0.3-4.9-2.3-6.2-7-5.2
			c-1.6,0.3-3.2,0.8-4.9,0.9c-2.6,0.2-5.5-1.3-5.2-3.4c0.6-4-2-4.9-4.3-5.3c-5.2-1.1-10.7-4.1-15.8,0.5c-2.7,2.5-4.4-0.1-6.4-1.3
			C272.4,229.7,273.4,228.8,274.4,227.8z"/>
		<path class="st214" d="M280.4,57c1.1,2.7,4.1,2.5,6,4c-0.3,0.7-0.7,1.3-1,2c2.4,2,4.1,4.9,7,6.4c1.3,0.9,1.2,2.2,1.2,3.5
			c0.1,1.5,0.9,3,2.4,2.5c5.1-1.7,6.5,2.1,8.5,5.2c-0.5,3.2,1.2,5.6,3.2,7.8c0,0.5-0.2,0.9-0.7,1.1c-2.5,1.4-4.5-1.2-6.7-1.2
			c-1.4,1.9,1.5,3.5-0.1,5.2c-5.8,2.4-8.5,0.8-9-5.1c-0.1-1,0-2-0.1-3c-0.1-1.3,0.1-2.9-1.4-3.4c-1.3-0.4-1.8,1.2-2.8,1.7
			c-2.7,1.2-3.7,4.8-7.1,4.9c-5.8-2.4-6-8.4-8.1-13c-1.1-2.5,1-4,4-4.1c2.2-0.1,5,1.5,6.6-1.4c-0.1-3.1,0.7-6.5-4.4-6.5
			c-1.7,0-3-2.2-2.4-4.3C276.3,56.9,277.7,55.4,280.4,57z"/>
		<path class="st215" d="M282.4,70c1.1,0.8,1.3,2.1,0.7,3.1c-0.8,1.3-1.6,0.1-2.5-0.3c-2.2-0.9-4.3,1.1-6.8-0.2
			c-0.9-0.4-2,2.5-1,3.6c3,3.5,2.6,8.9,6.7,11.7c-0.4,0.4-0.8,0.5-1.3,0.6c-5-2-6.2-6.8-7.8-11.2c-0.3-0.7-0.3-1.6-0.9-2.2
			c0.3-3-1.5-6.8,2.9-8.5c1.3-0.5,3.2-1.1,3.5,0.3C276.8,70.9,279.8,69.8,282.4,70z"/>
		<path class="st216" d="M269.5,75c2.9,1.8,2.8,5.3,4.7,7.8c1.3,1.8,2.3,3.8,4.3,5.1c0.7,0.6,1.7,1,0.9,2.2
			c-0.4,0.2-0.9,0.3-1.4,0.3c-4.6-1.7-9.2-3.4-11.6-8.2c-0.2-0.5-0.2-0.9,0.1-1.3c0-1.7,0-3.3,0-5c0.3,0,0.7,0,1,0
			C268.5,76.5,269.4,76.7,269.5,75z"/>
		<path class="st217" d="M265.4,56c0.7-1,1.4-2,2-3c1.1-0.5,2.3-1.1,4-1.9c-1.1,3.8-3.3,7.3,1,10.3C268.8,60.6,267.2,58.3,265.4,56z
			"/>
		<path class="st218" d="M258.4,82.1c0,0.3,0,0.6,0,0.9c-0.1,5.2-2.4,1.5-4,1c-3.3-4.3-6.6-8.7-10-13c4-2.4,0.2-5.2,0.3-7.8
			c0.1-1.3-1.5-2.7-2.3-4.1c0.1-1.2-0.5-3.2,2-2c2.4,2.7,4.7,5.3,7.1,8h-0.3c-0.3,0.3-0.7,0.5-1.2,0.5c-0.1,0-0.3-0.1-0.4-0.1
			c-0.2-0.1-0.3-0.1-0.4-0.2c0.2,2,1.5,3.6,2.6,5C254.7,73.8,256.6,77.9,258.4,82.1z"/>
		<path class="st219" d="M266.4,81c0.1,0.3,0.1,0.6,0.2,0.9c2.1,1.5,2.8,3.7,3.1,6.1c-0.4,0.4-0.8,0.4-1.2,0c-1.4-2.2-2.3-4.8-4.9-6
			c-2-2.1-3.4-4.7-5.1-7c-0.3-0.1-0.5-0.1-0.8-0.1c-0.8-0.3-0.7-0.9-0.5-1.6c0.2-0.1,0.3-0.3,0.5-0.4c3.5,0.1,5.2,2.5,6.6,5.1
			C264.8,79.1,265.1,80.4,266.4,81z"/>
		<path class="st219" d="M250.4,65c0.3,0,0.6,0,0.9-0.1c1.1,3.5,7,3.1,6.3,7.9l-0.3,0.3C253.5,71.7,250.2,69.9,250.4,65z"/>
		<path class="st220" d="M265.4,150.9c0.3,3-0.7,5.2-3.6,6.2c-2.7,1-3.8,2.9-3.4,5.7c-0.8-0.4-1-1.2-1-2c0.3-2.6-1.2-3-3.3-3.1
			c-1.5,0-2.7-0.9-2.4-2.5c0.3-1.7,1.6-1.1,2.7-0.9c3.3,0.6,1.2-3.4,3.3-4c3.8-1,1.4-2.2,0.3-3.8c-1.2-1.9-1.8-4.3-1.6-6.7
			c2.3-0.2,4.7,0.9,7,0c0.6,1,1.2,2,1.9,3.1c0.5,0.4,0.8,0.8,1,1.4C266.9,146.6,267.2,148.9,265.4,150.9z"/>
		<path class="st221" d="M263.4,127.9c0,0.5-0.1,1.3,0.1,1.4c4.4,3.3,1.7,6.4-0.1,9.5C257.1,134.5,257.1,134.5,263.4,127.9z"/>
		<path class="st222" d="M274.4,140.9c-1.7-2.1-1.2-6.7-6-5.4c-0.1,0-0.7-0.9-0.6-1.1c2.7-3.9-0.4-8.5,1.6-12.5
			c1.9,0.8,2.1,2.4,2,4.1c0,1.4,0.2,2.5,2,2.9c2.7,0.6,2.3,1.9,0.5,3.3c-1,0.8-1.8,1.7-0.6,2.9c1.2,1.2,2,0.2,3-0.5
			c1.5-1,8,1.9,7.9,3.6c-0.2,2.8-2.9,2.5-4.6,2.6c-3.4,0.3-3.6,1.6-2.1,4.1c-0.2,0.1-0.4,0.3-0.6,0.4
			C274,145,274.3,142.9,274.4,140.9z"/>
		<path class="st223" d="M282.6,125.8c1.6,0.9,2,2.7,2.9,4.1c-3.8,2.6-5.2-0.9-5.7-3C279,124,281.5,125.9,282.6,125.8z"/>
		<path class="st222" d="M289.4,146.9c-1.3,0-2.7,0-4,0c-1.9,1.3-4,0.8-6,0.7c-1.5,0-3-0.6-1.9-2.7l0.1-0.1
			C281.6,144.8,285.6,145.1,289.4,146.9z"/>
		<path class="st224" d="M282.7,116.3c0.9,0.6,1.4,0.8,1.7,1.1c1.1,1.5,3.4,2.1,3.2,4.5c0,0.3-1.3,0.8-1.6,0.7
			C284,121.2,281.9,119.8,282.7,116.3z"/>
		<path class="st225" d="M277.4,144.9c0.2,1.4,1,2.4,2.3,1.7c2.1-1.1,3.8,0.1,5.7,0.3c2.3,1.4,5.3,1.5,7,4c-1.9,2.8-4.8,4.2-7.9,5
			c-0.9,3.2-3.1,3.9-6,3c0.8-1.4,1.1-2.6-0.8-3.4c-1.3-0.6-2.6-1.1-3.2-2.6c-2.9-1.2-4.3-3-2.9-6.3c0.7-1.7-0.1-3.9,1-5.6
			c0.7,0,1.3,0,2,0C276.1,141.7,274.6,144.9,277.4,144.9z"/>
		<path class="st226" d="M272.4,140.9c1.6,1.7,0.8,4.2,0.4,5.4c-0.9,2.9-0.2,4.7,1.6,6.6c-3.4,1.3-6.2-0.3-9-2c0-2.3,0-4.6,0-7
			c0.8-1,1.9-1.1,3-1C269.8,142.3,270.7,140.7,272.4,140.9z"/>
		<path class="st227" d="M268.5,142.9c-0.8,1.1-1.9,1-3,1c0-0.3-0.1-0.7-0.1-1c0.2-0.9-0.2-2.3,0.8-2.5
			C267.8,140.1,267.8,142,268.5,142.9z"/>
		<path class="st228" d="M353.2,218.8c0.3,0.8,0.4,1.6,0.8,2.3c0.6,1,0.9,1.8-0.4,2.4c-1,0.4-1.7-0.2-2-1
			c-2.8-8.6-11.4-10.3-18-13.9c-2.1-1.2-5.4-0.7-7.5-3.1c-0.6-0.7-1.7-0.4-2.2,0.3c-2.3,3.3-6.6,2.3-9.4,4.7
			c-1.5,1.2-3.9,0.6-5.3-1.2c-2.2-2.9-4.2-2-6.7-0.2c-2,1.5-4.1,5.2-6.9,2.8c-2.9-2.6,0.6-4.9,2.1-7.1c0.8-1.2,0.5-2.6,0.6-3.9
			c-1.4-2.3-1-4.3,1-6c0,1.6,0,3.3,0,4.9c0,2.4,0.4,4.5,3.5,3.8c2.5-0.6,3.7,3.9,6.4,1.3c0.7-0.6,1.3-1.3,2.3-1.4
			c2.3,0.4,4.6,3.3,6.8-0.1c1.2-2.8,2.3-5.7,4.2-8.2c0.3-0.3,0.7-0.6,1.2-0.6c0.5,0.1,0.8,0.4,1.1,0.8c-0.1,4.3,3.3,4,6,5
			c1-3.5-1.1-4.7-3.3-5.9c-1.2-1.3-0.4-2.6-0.1-3.9c0.2-0.4,0.4-0.8,0.8-1.2c0.6-0.4,1.2-0.7,1.9-0.4
			C338.4,198.4,345.8,208.6,353.2,218.8z"/>
		<path class="st229" d="M319.3,181.8c0.9-1.2,3.2-0.9,3.1-3.1c1,1,2,2.1,3,3.1c0.8,2.8,4.9,4.3,3,8.1h-0.1c-2,1.3-3.4,3.3-5,5l0,0
			c-3.7,0.4-6.4-1.9-8.9-3.8c-2.2-1.7-0.2-3.7,1.9-4.9C318,185.2,321,185.1,319.3,181.8z"/>
		<path class="st230" d="M328.3,189.8c0.8-3.4-3.4-4.8-3-8.1c2.3,1.9,4.2,4,4.7,7.1C329.5,189.2,328.9,189.5,328.3,189.8z"/>
		<path class="st231" d="M307.4,89c-2-2.3-7.1-3.4-3-8c-0.3-0.9,0.1-1.2,1-1c1.4-0.6,2.7-1.4,4.1-1.8c1.2-0.3,2.2,0.9,1.2,1.7
			c-5.1,4-0.9,6.3,1.6,8.5c2.1,1.9,4.8,3.3,7.4,4.4c2.2,0.9,3.6-1,4.7-2.8c2-0.8,4.1-1.5,5.9-2.6c1.6-1,2.9-1.1,3.7,0.5
			c0.8,1.5,0.4,3.2-1.2,3.7c-2.2,0.8-3.2,2.2-3.4,4.4c-5.7,0-11.6-0.9-17,2c-0.9-1.3-1.3-2.9-3-3.8C307.3,93.1,307,91.1,307.4,89z"
			/>
		<path class="st232" d="M305.4,80c-0.3,0.3-0.7,0.7-1,1c-0.7-0.3-2-0.5-2.1-0.9c-0.9-4.2-2.9-4.3-6.7-3c-2.2,0.7-3.9-2.2-3.2-4.8
			c0.2-0.8,0.3-1.5,0-2.2c2.3-3.1,4.7-3.1,7,0c1.4,3.1,6.3,3.6,6,8C305.4,78.6,305.4,79.3,305.4,80z"/>
		<path class="st233" d="M299.4,70c-2.3-1.2-4.7-1.2-7,0c-3.1-0.4-7.2-4.5-7-7c2.5-0.3,4.6-1,7.5,0c4.1,1.4,1.4-2.9,1.9-4.4
			c0.6-0.1,0.9-0.1,1.2-0.1c4.1,0.5-1.3,4.7,2.5,5.9C300.6,65.1,302.3,67.5,299.4,70z"/>
		<path class="st183" d="M354.5,80.1c-0.1,0.3-0.2,0.6-0.4,0.9c-2.7,0.9-5.6,1.1-8,3.3c-1.6,1.5-3.7,0.9-4.9-1.3
			C346.1,83.9,349.6,79,354.5,80.1z"/>
		<path class="st234" d="M278.4,158.9c2.3-0.4,4.3-1.4,6-3c1.6,1.5,4.9,2.2,4.3,4.6c-0.6,2.7-3,4.7-6.3,4.4
			c-0.9-1.2-1.9-0.9-3.1-0.5c-2.7,1-4.2-0.5-4.7-2.7C273.9,158.4,276.5,159,278.4,158.9z"/>
		<path class="st235" d="M307.4,89c1.3,1.8,1,4.6,4.3,5.1c1.9,0.3,0.7,2.5,0.6,3.9c0.3,1,0.7,2,1,3c-3.1,4.4-8.2,2.6-12.3,3.9
			c-1,0.3-1.7,0-1.6,1.3c0.1,0.9-0.2,2,1.1,2.4c5.2,1.3,3.3,4.4,1.8,7.4c-0.2,0.2-0.4,0.3-0.6,0.5c-5.6-1-9.4-4.5-12.2-9.3
			c-0.2-2.1,0.9-3.7,2.8-4c4.4-0.7,6.6-4.7,10.4-6.3c1-0.4-0.7-1-0.8-1.8c-0.1-0.5,0-0.9,0.2-1.3C305.4,93.7,306.2,91.2,307.4,89
			L307.4,89z"/>
		<path class="st236" d="M306.4,128.9c-1.3-0.3-2-2.1-3.4-1.6c-2.2,0.7-2.8-0.4-2.5-2.1c0.4-2.6-1.5-3.8-3-5.2c1.1-2,3.2-2.8,5-4
			l0,0c1.3-0.5,2.7-1.1,4.9-1.9c-1.3,2.1-2.2,3.6-3.3,5.3c3,1.6,5.9,2.6,8.7-0.2c0.6-0.6,1.5-0.9,2.1,0.1c0.8,1.4-0.2,2.3-1.1,2.9
			C310.6,123.7,308.1,125.8,306.4,128.9z"/>
		<path class="st237" d="M319.3,102.9c4.1,0.1,5,1.7,2.5,5.2c-0.7,1-2.3,2.3-0.6,3.8c-0.5,4.1-3.8,2.7-6.2,3c-1.5,0.1-3-0.2-3.6-2
			c-0.6-1.9,0.4-3.2,1.6-4.3c0.2-0.2,0.5-0.5,0.7-0.6C318.2,106.2,318.2,106.2,319.3,102.9z"/>
		<path class="st238" d="M291.4,114.8c-0.2,0.7-0.5,1.3-0.7,1.9c-4.4-5.9-8.9-11.9-13.3-17.8c-0.6-0.9-0.8-1.9-0.3-2.9
			c1.5-1.1,2.9-0.4,4.4,0c3.9,2.8,5.2,7.3,7.6,11.1C287.8,110.3,291.8,111.9,291.4,114.8z"/>
		<path class="st239" d="M250.4,65c1.1,3.7,4.5,5.5,6.9,8.1c0.1,0.6,0.3,1.1,0.4,1.7c-2,2.7,1,4.8,0.8,7.2
			c-3.7-6.5-9.2-11.9-11.7-19.3C248.6,62.7,249,64.6,250.4,65z"/>
		<path class="st240" d="M277.4,96c0,1,0,2,0,3.1c-3.8-3-5.4-7.8-8.9-11c0.4,0,0.7,0,1.1,0C274.3,88.1,275.6,89.4,277.4,96z"/>
		<path class="st239" d="M258.5,74.9c2.6,1.7,3.8,4.4,5.1,7C260.4,80.6,259.5,77.7,258.5,74.9z"/>
		<path class="st241" d="M291.4,114.8c-0.5-2.6-5.7-3-3.1-6.9c0.4-0.4,0.6-1,1.1-1.3c0.4-0.1,0.7,0,1,0.3c3.2,4.1,7,7.3,12,9
			c-1.3,1.8-2.5,3.7-5,4C294.6,119.2,292.4,117.7,291.4,114.8z"/>
		<path class="st242" d="M319.3,181.8c1.1,0.2,2.5-0.3,2.8,1.4c0.3,1.4-0.7,2.1-1.8,2.6c-0.9,0.4-1.8,0.7-2.7,1.1
			c-1.3,0.6-3.2,0.7-3,2.7c0.2,2.1,1.8,2.4,3.7,1.9c2.9-0.8,2,4.2,5,3.4c-0.5,3.4-3.2,5.8-4,9c-1.5-2-3.5-3.5-5.4-5.1
			c-1.9,1.2-0.9,3.9-2.6,5.1c-0.4,0.8-1.2,1-2,1c-0.7-8.6,2-16.1,7-22.9C317.3,181.8,318.3,181.8,319.3,181.8z"/>
		<path class="st243" d="M303.4,220.8c0-1.5,0-2.9,2-3c1.3-0.1,2.4,1.2,3.8,0.6c2.1-0.8,3.2,0.6,3.8,2.2c0.6,1.6,0.7,3.4-0.8,4.6
			c-1.5,1.2-3.1,0.4-4.7-0.2C305.5,224.1,305.4,221.5,303.4,220.8z"/>
		<path class="st244" d="M302.3,94c0,0.3,0,0.7,0,1c-4.5,4.6-10.3,2.3-15.5,3c-3.2-1.9-5.1-5.2-7.4-8c-0.3-0.7-0.7-1.3-1-2
			c0.4,0,0.7,0,1.1-0.1c3.4-1.3,5.1-4.6,7.9-6.7c0.8-0.6,1.1-2.2,2.5-1.8c1.1,0.3,2,1.3,2.2,2.5c0.3,1.3,0.2,2.6,0.3,3.9
			c0.1,8.1,0.4,8.4,8,7.1C301.4,92.5,302,93.1,302.3,94z"/>
		<path class="st245" d="M302.3,94c-0.7-0.4-1.3-0.7-2-1.1c-0.6-0.8-1.2-1.6-1.8-2.3c-1.2-1.2-1.1-2.2,0.1-3.4
			c1.1-1.1,2.3-1.4,3.4-0.1c1.4,1.7,3.3,2,5.3,1.9C307.5,92.4,308.1,96.4,302.3,94z"/>
		<path class="st246" d="M279.4,89.9c3.6,1.1,5.1,4.2,6.9,7c3.6,2.5,4.3,5.9,3,10c-0.4,0.3-0.7,0.7-1.1,1c-2.3-3.7-4.6-7.3-6.9-11
			c-2-1.9-3.3-4.1-3.1-6.9C278.7,90,279.1,90,279.4,89.9z"/>
		<path class="st247" d="M278.4,90c1.7,2,2.5,4.4,3.1,6.9c-1.5,0.2-2.8-0.3-4.1-0.9c-3.1-2.3-2.8-7.8-7.9-8c-1-2-2-4-2.9-6.1
			C269.7,85.7,274.2,87.7,278.4,90z"/>
		<path class="st206" d="M311.3,203.8c0.2-1.6,0.1-3.3,0.5-4.8c0.3-1.2,0.8-2.7,2.4-2.8c1.7-0.1,1,1.7,1.6,2.4
			c1.3,1.7,4.5,2,3.5,5.3C316.7,209,314,205.8,311.3,203.8z"/>
		<path class="st248" d="M327.3,193.8c2.2,0.2,4.7,0.2,4.8,3c0.1,1.7,2,3.7,0.1,5.1c-1.4,1-2.8-1.4-3.9-1.3
			c-5.2,0.6-4.9-2.3-4.1-5.8C325,193.4,325.8,192.8,327.3,193.8z"/>
		<path class="st242" d="M327.3,193.8c-1,0.3-2,0.7-3,1c-0.3,0-0.7,0-1,0c0.6-2.7,1-5.7,5-5C328.5,191.3,328,192.6,327.3,193.8z"/>
		<path class="st249" d="M289.4,106.9c-0.4-3.5-1.2-6.9-3-10c5.3-0.6,10.8-0.3,15.9-2c1.3,1,3.2,0.6,4.6,2.7
			c-3.8-0.2-6.5,1.6-8.7,4.1c-1.2,1.3-2.6,2.4-4.6,2.3c-1.9-0.1-3,1-3.2,2.9h-0.5H289.4z"/>
	</g>
</g>
</svg>
