<?xml version="1.0" encoding="utf-8"?>
<!-- Generator: Adobe Illustrator 25.0.0, SVG Export Plug-In . SVG Version: 6.00 Build 0)  -->
<svg version="1.1" id="Camada_1" xmlns="http://www.w3.org/2000/svg" xmlns:xlink="http://www.w3.org/1999/xlink" x="0px" y="0px"
	 viewBox="0 0 615 163.4" style="enable-background:new 0 0 615 163.4;" xml:space="preserve">
<style type="text/css">
	.st0{fill:#FDFDFD;}
	.st1{fill:#8B928D;}
	.st2{fill:#959C98;}
	.st3{fill:#696D6A;}
	.st4{fill:#C5CAC4;}
	.st5{fill:#DDE2D6;}
	.st6{fill:#BFC4BD;}
	.st7{fill:#8D9290;}
	.st8{fill:#AAB0AD;}
	.st9{fill:#080808;}
	.st10{fill:#9BA3A1;}
	.st11{fill:#F9FBF8;}
	.st12{fill:#434544;}
	.st13{fill:#4E5150;}
	.st14{fill:#828782;}
	.st15{fill:#909B9C;}
	.st16{fill:#414241;}
	.st17{fill:#676967;}
	.st18{fill:#434644;}
	.st19{fill:#261A15;}
	.st20{fill:#392A23;}
	.st21{fill:#9CA19B;}
	.st22{fill:#A9B1AE;}
	.st23{fill:#A1ACAB;}
	.st24{fill:#7E8482;}
	.st25{fill:#7A7C75;}
	.st26{fill:#D4DCD7;}
	.st27{fill:#CBE3EC;}
	.st28{fill:#BDC9C7;}
	.st29{fill:#CAD8D8;}
	.st30{fill:#BEC5C0;}
	.st31{fill:#B9D2DB;}
	.st32{fill:#6E6F68;}
	.st33{fill:#BFC6C2;}
	.st34{fill:#CBD2CD;}
	.st35{fill:#8E938D;}
	.st36{fill:#64655F;}
	.st37{fill:#E0E6DD;}
	.st38{fill:#969C96;}
	.st39{fill:#FCFCFC;}
	.st40{fill:#AAAEA5;}
	.st41{fill:#BEC7C2;}
	.st42{fill:#61635D;}
	.st43{fill:#89908B;}
	.st44{fill:#DAE0D6;}
	.st45{fill:#B7BEB9;}
	.st46{fill:#C7D1CF;}
	.st47{fill:#BECACA;}
	.st48{fill:#7E8077;}
	.st49{fill:#B4C0BF;}
	.st50{fill:#5C605E;}
	.st51{fill:#8B9493;}
	.st52{fill:#B0B6B0;}
	.st53{fill:#EBF1EC;}
	.st54{fill:#E1E8DE;}
	.st55{fill:#7E8078;}
	.st56{fill:#858B86;}
	.st57{fill:#6D706B;}
	.st58{fill:#6F7471;}
	.st59{fill:#838884;}
	.st60{fill:#979B95;}
	.st61{fill:#999D95;}
	.st62{fill:#ACB0A8;}
	.st63{fill:#646866;}
	.st64{fill:#4A332A;}
	.st65{fill:#4A3329;}
	.st66{fill:#727774;}
	.st67{fill:#909690;}
	.st68{fill:#221712;}
	.st69{fill:#0F0C0B;}
	.st70{fill:#ACB0A9;}
	.st71{fill:#5F625E;}
	.st72{fill:#BBC0B8;}
	.st73{fill:#CAD5D2;}
	.st74{fill:#8E9692;}
	.st75{fill:#8E9796;}
	.st76{fill:#404240;}
	.st77{fill:#484946;}
	.st78{fill:#6C7272;}
	.st79{fill:#7A8383;}
	.st80{fill:#8A918D;}
	.st81{fill:#7B807C;}
	.st82{fill:#262827;}
	.st83{fill:#414442;}
	.st84{fill:#D4DEDA;}
	.st85{fill:#666965;}
	.st86{fill:#99A3A3;}
	.st87{fill:#767A76;}
	.st88{fill:#545755;}
	.st89{fill:#525654;}
	.st90{fill:#606361;}
	.st91{fill:#727877;}
	.st92{fill:#363837;}
	.st93{fill:#232424;}
	.st94{fill:#80837B;}
	.st95{fill:#373A39;}
	.st96{fill:#575A58;}
	.st97{fill:#5A5D5A;}
	.st98{fill:#292B2A;}
	.st99{fill:#C9D4D2;}
	.st100{fill:#AAB3B1;}
	.st101{fill:#AAB4B3;}
	.st102{fill:#929C9B;}
	.st103{fill:#969F9E;}
	.st104{fill:#BAC5C5;}
	.st105{fill:#CBD5D0;}
	.st106{fill:#CED8D5;}
	.st107{fill:#A9B3B1;}
	.st108{fill:#6E7471;}
	.st109{fill:#BEC6C2;}
	.st110{fill:#C0C7C1;}
	.st111{fill:#EFF4ED;}
	.st112{fill:#E5EDE8;}
	.st113{fill:#606461;}
	.st114{fill:#383B3A;}
	.st115{fill:#494D4B;}
	.st116{fill:#CDD7D4;}
	.st117{fill:#4D504E;}
	.st118{fill:#6D7371;}
	.st119{fill:#959D9B;}
	.st120{fill:#969E9C;}
	.st121{fill:#929A97;}
	.st122{fill:#545856;}
	.st123{fill:#3D1711;}
	.st124{fill:#ABAFA7;}
	.st125{fill:#6C716F;}
	.st126{fill:#AFB8B4;}
	.st127{fill:#B1BAB8;}
	.st128{fill:#A9B3B2;}
	.st129{fill:#ECF2EC;}
	.st130{fill:#E9EFE7;}
	.st131{fill:#D1DBD7;}
	.st132{fill:#B6C0BD;}
</style>
<g>
	<path class="st0" d="M434.8,11.5c0,4.6,0,9.3,0,13.9c-5.4,1.8-10.1-0.1-14.1-3.3c-2.6-2.1-5.3-3.3-8.6-3.1
		c-15.5,1.1-31.1,0.7-46.6,2.6c-3.8,0.5-7.6,0.4-11.4-0.1c-6.9-1.4-13.8-0.4-20.7-0.6c-3.9-0.1-7.9,0.1-11.8-1
		c-0.9-0.1-1.8-0.3-2.6-0.6c-3.1-2.5-6.7-2.3-10.4-2.4c-3.5,0-7,0.3-10.4-0.4c-5.1-1.3-10.4-0.3-15.6-0.6c-1.5,0-3.1-0.1-4.4-1
		c-1-1.3-2-2.5-0.3-4c4.2-1.4,8.5-0.7,12.8-0.7c8.4,0,16.8-0.3,25.3,0.1c1.8,0.4,3.6,0.4,5.4,0.7c33.4,0.4,66.9-0.2,100.3-0.1
		C426.1,10.8,430.6,8.5,434.8,11.5z"/>
	<path class="st1" d="M434.8,11.5c-26.8,1.8-53.7,0.4-80.5,0.8c-9.6,0.2-19.2,0.1-28.9,0.1c-1.8,0-3.7,0.4-5.3-0.8
		c0.7-0.9,1.6-0.6,2.5-0.6c7.8,0,15.5,0,23.3,0c-7.4,0.1-14.9,0-22.3,0c-1.2,0-2.3-0.1-3.2-1c-0.4-0.5-0.4-1,0-1.5
		c29.2,0,58.4-0.1,87.6-0.1c3.4,0,6.5-1.3,8.9-3.2c2.7-2.1,5.8-1.9,8.6-2.3c2.3-0.3,1.1,2.7,2.4,3.6c-1.7,1.4-1.7,1.4-4.3,1.1
		c3.5,0.4,6.9,0.3,10.2-1c0.4,0,0.7-0.1,1.1-0.1C434.8,8.2,434.8,9.8,434.8,11.5z"/>
	<path class="st2" d="M354.3,20.3c19.9-0.6,39.7-2.5,59.5-2.7c3.1,0,5.5,0.6,7.7,3.3c3.3,4,8.6,3.5,13.2,4.5c0,1,0,2,0,3
		c-0.5,0.3-1,0.5-1.5,0.5c-6.7-1.4-13.8-1.2-20.2-3.9c-2.4-1.8-5-2.1-7.9-2.2c-7.3-0.3-14.5,0.9-21.8,1.1c-8.1,0.2-16.2-1.7-24.3-1
		c-5.2-0.6-10.7,1.3-15.8-1.2c-0.3-1.4,0.6-1.6,1.6-1.6C348,20.1,351.2,19.5,354.3,20.3z"/>
	<path class="st3" d="M416.9,45.5c0.2,0.3,0.1,0.6-0.2,0.8c-6.7,2.8-13.6,1.1-20.5,1.1c-4.3-1.5-8.7-2.4-13.3-1.5
		c-1.6,0.3-3.3,0.1-4.2-1.6c-0.1-0.6,0.1-1.1,0.5-1.5c0.5-0.3,1-0.6,1.6-0.7c6.9-0.6,13.9-0.2,20.9-0.3c1.6,0.1,3.3,0.1,4.9-0.2
		c0.5-0.1,1.1-0.1,1.6,0c7.5,0.2,15,0.9,22.5-0.3c2.4-1.5,3.2,0.4,4.1,2c0,0.7,0,1.3,0,2c-2.7,0-5.3,0-8,0
		C423.5,44.6,420.2,44,416.9,45.5z"/>
	<path class="st4" d="M193.8,163.4c0-0.3,0-0.7,0-1c1.9-1.8,4.3-1.3,6.6-1.4c13-0.2,26,0.4,38.9-0.4c2.9-1.8,2.3-3.1-0.6-4.1
		c-1.6-2.5,0.2-4,1.6-5.7c1.1-0.8,1.8-1.8,2.4-3c0.4-0.9,1-2.3,2.5-1c1.5,3.6,1.8,7.5,2.3,11.3c0.1,2.8-2.4,3.6-3.9,5.3
		C227,163.4,210.4,163.4,193.8,163.4z"/>
	<path class="st5" d="M243.6,163.4c-1-2.9,3.1-2.7,3-5c2.1,0.6,3.2-1.6,4.9-1.9c-0.1,2.3,3.5,4.6,0,6.9
		C248.9,163.4,246.2,163.4,243.6,163.4z"/>
	<path class="st6" d="M434.8,43.2c-1.6,0.4-1.1-2.3-2.7-1.9c-0.9,0.4-1.3,0-1.6-0.7c-0.2-1.3,0.7-2.1,1.2-3.1c1.4-2.2,0.4-4.1-0.7-6
		c-1.2-2.9,0.8-3.1,2.8-3.2c0.3,0,0.6,0,0.9,0C434.8,33.3,434.8,38.3,434.8,43.2z"/>
	<path class="st7" d="M180.8,15.4c2.1-0.6,0.4-5.3,4.3-4.1c-0.5,2.5,0.3,5.5-2.4,7.3c-0.6-0.7-1.3-1.4-1.9-2.2
		C180.8,16.1,180.8,15.8,180.8,15.4z"/>
	<path class="st8" d="M199.6,1.5c0.1-0.3,0.1-0.6,0.1-0.9c1.7,0,3.3,0,5,0c0.6,0.4,1.2,0.7,1.9,1.1C203.7,4.6,202.3,4.6,199.6,1.5z"
		/>
	<path class="st9" d="M394.9,46.2c7.3,0,14.5,0.1,21.8,0.1c1,4.6,0,6.5-5.5,6.5c-26.5-0.3-53-0.2-79.5-0.1c-3.2,0-5.1-0.5-4.7-4.2
		c-0.3-0.6-0.2-1.2,0.2-1.7c3.1-2.8,6.9-1.7,10.4-2c2.5-0.2,5,0.1,7.4,0c1.9-0.1,3.7-0.1,5.6,0c12.7-0.4,25.3,0.5,37.9,0.4
		C390.8,45.2,392.9,45.5,394.9,46.2z"/>
	<path class="st10" d="M257.3,100.8c-1.3,8.3-2.6,16.5-3.9,24.8c-0.8,1.3-0.3,3.9-3.1,3c-1.3-1.7-0.8-3.7-0.8-5.3
		c-1,1.8,0.2,4.9-3.1,5.8c-1.6-2.1-2.1-10.4-0.8-12.3c0.3-0.4,1.2,0.4,1-1.3c-0.8-4.9,2-8.7,5.4-12c2.4,3.1,0.8,6.6,1,9.9
		c0.1,1.7-0.7,3.4-0.8,5.1c0,0.7,1.1-0.3,0.5,0c0.3-5.4,0.8-10.7,0.7-16.1c0.1-0.8,0.4-1.6,0.8-2.3
		C255.5,98.8,256.5,99.3,257.3,100.8z"/>
	<path class="st11" d="M246.6,128.7c1.5-2.6,0.8-6,4-9.3c0,3.8,0,6.4,0,9c1.3,1.8,0.9,3.7,0.4,5.6c-1.3,5.2-1.2,10.6-2.4,15.8
		c-0.2,1,0.3,1.9,0.9,2.7c1.3,1,1.8,2.4,2,4c-1.7,0.8-0.4,2.5-0.8,4c-1.6-0.8-2.9-1.5-4.1-2.1c-1.3-3.8-1.9-7.8-2-11.9
		C243.7,140.4,244.7,134.5,246.6,128.7z"/>
	<path class="st12" d="M287.4,88.8c-7.5,0.3-15,0.8-22.6,1c-2.5,0.1-4.5,0.6-6.2,2.3c-1.2,0.5-2-0.2-2.8-0.9
		c-0.7-0.9-1.1-1.9-0.6-3.1c0.8-1,1.9-1.3,3.1-1.5c9.1,0,18.2-0.5,27.3,0.2C286.6,87.2,287.5,87.6,287.4,88.8z"/>
	<path class="st5" d="M249.6,152.5c-2.4-1.1-1.9-2.9-1.6-5c1-6.3,1.8-12.7,2.7-19c1.6-0.3,1.6-2.1,2.7-2.9
		c-1.1,7.7-2.3,15.4-3.4,23.1C249.8,149.9,249.7,151.2,249.6,152.5z"/>
	<path class="st13" d="M287.4,88.8c-0.4-0.3-0.7-0.6-1.1-0.9c-0.2-0.5-0.1-1,0.3-1.4c4.1-1.3,8.4-1.2,12.5-2.1
		c1.7-0.4,3.5-0.9,5-1.9c1.5-0.9,2.6-2.2,4.1-3c0.7-0.3,1.4-0.3,2.2-0.2c0.7,0.3,1.3,0.7,1,1.6C304.5,87.2,296.3,89,287.4,88.8z"/>
	<path class="st14" d="M315.3,54.2c-3.4,6.4-2.1,13.1-1.1,19.8c-0.5,1.1,0.3,3-1.9,3.2c-2.3-1.3-1.4-3.8-2.1-5.7
		c-1.2-5.1,0.5-10.1,0.7-15.2c0.1-1.8,1-3.1,2.8-3.5C314.6,52.9,315.1,53.4,315.3,54.2z"/>
	<path class="st15" d="M256.6,90.8c0.7,0.4,1.4,0.9,2.1,1.3c-0.5,2.9-0.9,5.8-1.4,8.7c-0.9-0.3-1.8-0.6-2.7-0.9
		C254,96.5,251.7,92.9,256.6,90.8z"/>
	<path class="st16" d="M315.3,54.2c-0.5-0.4-0.9-0.7-1.4-1.1c-0.3-2.6,1.5-3.8,3.5-4.8c3.2-0.7,6.3-3.6,9.8-0.9
		c-0.1,0.4-0.2,0.8-0.3,1.1C323.1,50.4,318.2,50.1,315.3,54.2z"/>
	<path class="st17" d="M312.4,77.1c0.6-1,1.2-2,1.9-3c2.7,3.9,0.5,5.6-2.9,6.9c-0.4-0.4-0.8-0.8-1.1-1.1
		C310,78.2,310.9,77.4,312.4,77.1z"/>
	<path class="st18" d="M416.9,45.5c3.2-2.4,6.6-1.7,9.9-0.3C423.5,45.3,420.2,45.4,416.9,45.5z"/>
	<path class="st19" d="M202.7,82.9c-0.1-0.7-0.2-1.3-0.3-2c0.4-2.2,0.8-4.4,1.5-6.5c0.2-6,4.4-10.5,5.5-16.1c0.4-1.8,2.1-2.9,4-3.3
		c10.6-0.5,21.3-0.4,31.9,0c1.2,0.1,2.3,0.6,3.5,0.7c2.9,0.2,3.8,2.2,4,4.6c0.2,3.6,0.3,7.1-0.3,10.7c-2.6,16-4.9,32.1-8.1,48
		c-0.4,2-0.7,4.1-0.8,6.2c-0.1,0.5-0.2,1-0.3,1.5c-0.4,1.2-0.7,2.4-1.1,3.6c-0.7,1.7-0.2,5-1,5.1c-4.5,0.2-4,5-6.8,6.5
		c-2.4,1.4-4.9,0.2-7.2-0.6c-3-1-5.9-1.9-9-2.4c-6.3-1-12.4,0-18.6,1c-5.6,0.9-7.5-0.7-8.2-6.2c4.5-15.2,9.1-30.3,13.9-45.4
		c0.1-1.2,2.9-3.4-1.3-3C203.2,85.4,202.2,84.4,202.7,82.9z"/>
	<path class="st20" d="M202.7,82.9c3.1,4.7,2.6-1.1,4.3-1.7c0.9,2.4,1.3,4.6-0.3,6.7c-2.9,2.3-2.5,6-3.5,9
		c-3.9,11.4-6.8,23.1-10.7,34.4c-0.6,1.8-0.7,3.5-0.8,5.4c0,0.5-0.1,1-0.2,1.5c-0.7,2.7,0.7,5.2,0.6,7.8c-0.1,2.8-0.5,5.3-3.2,6.8
		c-0.6,0.4-1.3,0.7-2,0.9c-0.7,0.2-1.5,0.3-2-0.4c-0.4-9.4-0.9-18.6,2.5-27.7C192.8,111.5,197.6,97.2,202.7,82.9z"/>
	<path class="st21" d="M188.9,56.9c0-0.6,0-1.2,0-1.8c1.9-2.6,0.5-5.3-0.1-7.9c0-0.3,0-0.7,0-1c8.7,0.5,17.5-1.9,26.2,0.9
		c0.8,1.1,0.8,2.3,0.3,3.6c-1.4,1.7-2.7,0.1-3.9-0.2c-2.4-0.7-4.8-1.4-7.2-0.8c-2.5,0.6-4.6,1.5-1.7,4.5c1.8,1.8,3,4.3,3.6,6.9
		c-0.4,1.5-1.1,2.7-2.6,3.4c-0.3,0-0.8,0-0.9-0.2C198.9,60.1,194.2,58,188.9,56.9z"/>
	<path class="st22" d="M184.9,153.3c0.6,0,1.3,0.1,1.9,0.1c6.4-1.5,12.8-0.2,19.2-0.1c2.1,0.8,4.5,0.5,6.5,1.6
		c1.9,3.1-1,4.2-2.4,5.9c-5.7,0.7-11.4,1.6-17.2,0.5c-1.5,0.1-4.2,0.9-3.7-1.5C189.9,155.8,187.4,154.8,184.9,153.3z"/>
	<path class="st23" d="M188.8,44.3c-1-0.3-2.1-0.6-3.1-1c-0.4-5.4,3.2-9.6,4.2-14.6c1.1-2.8,2.9-5.4,1.3-8.6c-0.6-2.1,0.3-3.6,2-4.8
		c4.1,0.8,4-4,6.8-5.1c1.2,0.2,1.4,1.1,1.5,2.1c0,0.5-0.1,1-0.2,1.5c-5.1,8.8-6.8,19.1-11.5,28.1C188.3,42.1,189.3,43.5,188.8,44.3z
		"/>
	<path class="st24" d="M192.9,161.3c5.6-0.3,11.2-0.6,16.8-0.9c0.6-0.3,1.2-0.7,1.9-0.6c9.6,1,19.1-2.7,28.7-0.1
		c0.5,0.1,0.9,0.3,1.3,0.6c-0.3,3-2.6,2-4.2,2c-14.5,0.1-29.1,0-43.6,0C193.5,162,193.2,161.7,192.9,161.3z"/>
	<path class="st25" d="M188.8,44.3c0.2-0.7-1-1.3,0-2c0.6-0.5,1.3-0.6,2-0.3c0.4,0.3,0.7,0.6,1,1c1.4,1.4,3,0.9,4.6,0.5
		c4.9-1.1,9.8-0.3,14.7-0.3c2.2,0,4.9,0.6,3.5,4.1c-6.8-0.5-13.5-0.2-20.3,0.4c-2.2,0.2-3.5-1.7-5.5-1.5
		C188.8,45.6,188.8,44.9,188.8,44.3z"/>
	<path class="st26" d="M193.8,15.4c-0.9,1.6-2.4,2.9-2,5c-0.3,2.1-1.2-2.8-1.6,0.1c-0.3,1.9-0.6,3.9-3.3,3.8
		c-1.8-1.1-1.9-3.4-3.2-4.9c2.2-3.2,4.9-5.8,7.1-9c1-0.3,2-0.7,3-1c1,0.6,3-0.2,3.1,1.5C196.9,13.1,195.7,14.6,193.8,15.4z"/>
	<path class="st27" d="M188.9,56.9c6.6-1,11,2.6,14.7,7.3c1.9,1.1,2.1,2.8,1.5,4.7c-0.8,1.2-1.9,1.7-3.3,1.2
		c-1.8-5.9-4.5-11-11.6-11.8C189.7,58.2,189.4,57.4,188.9,56.9z"/>
	<path class="st28" d="M186.9,24.4c2.5-1.3,2-4.1,3.3-6.1c0.5,0.7,1.1,1.4,1.6,2.1c2.7,3,0.7,5.5-0.9,7.9c-1,1.2-1.5,3-3,3.7
		c-1.6,0.7-3.1,1-2-1.7C185.6,28.2,186.3,26.3,186.9,24.4z"/>
	<path class="st29" d="M185.8,30.3c0.1,1.3,0.6,1.8,1.7,0.8c1.1-0.9,2.2-1.8,3.3-2.8c-0.8,5.3-3.1,10.1-5.2,14.9
		C182.9,39,185,34.7,185.8,30.3z"/>
	<path class="st30" d="M190.8,10.5c-0.7,4.3-3.4,7-7.1,9c-0.3-0.3-0.7-0.6-1-0.9c0.4-2.6,0.8-5.1,2.4-7.3
		C186.8,10,189.2,12.5,190.8,10.5z"/>
	<path class="st31" d="M201.8,70.1c1-0.3,1.9-0.7,2.9-1c0.8,2,0.7,4,0.1,6c-0.4,2.1-0.8,4.2-2.4,5.8
		C200.7,77.4,202.2,73.7,201.8,70.1z"/>
	<path class="st25" d="M188.8,47.2c1.6,1.8,1.8,4.1,2.2,6.3s-1.2,1.4-2.1,1.6C188.9,52.5,188.8,49.9,188.8,47.2z"/>
	<path class="st32" d="M320.3,8.5c0,0.3,0,0.7,0,1c-0.4,1.6-2.2,0.9-2.9,1.9c-13.3-0.4-26.6-0.4-39.8,0.2c-1.1,1-2.5,1.3-3.7,0.9
		c-6.5-2.7-13.3-1.2-20-1.5c-7.2,0.1-14.4-0.1-21.6,0.1c-1.5,0-3,0.1-4.3-0.7c-1.3-1.2-2.8-2.4-3.8-3.9C228,5.1,232,6,235.9,5.9
		c10.3-0.1,20.5-0.1,30.8,0c1.6,0,3.3-0.5,4.7,0.7c-1.9,1.5-4.1,0.9-6.2,0.9c-7.8,0.1-15.5,0-23.3,0c8.1,0,16.2,0,24.3,0
		c1.8,0,3.7,0.4,5.3-0.8c1.6,1,3.4,1.1,5.3,1.1c12.3,0,24.5,0,36.8-0.1C315.8,7.5,318.1,7.7,320.3,8.5z"/>
	<path class="st33" d="M193.8,15.4c0.3-2,4.4-3.9,0-5.9c1.5-1.9,4.1-1.7,6-3c2.3-2.1,5.1-0.5,7.6-1c1.8-0.4,3.6-0.1,5.3-1
		c2.2-0.1,2.2,2.8,4.1,3.1c0.2,0.4,0.3,0.8,0.1,1.2c-1.5,1.6,1,3.6-0.7,5.2c-5.3-0.8-10-3.4-15.4-3.8c-0.5,0-0.9-0.3-1.1,0.3
		c-0.7,1.7-1.3,3.5-2.2,5.1C196.2,18.5,195,15.6,193.8,15.4z"/>
	<path class="st34" d="M212.7,4.5c0.8,2-0.3,2.1-1.8,2.1c-3.7,0-7.4,0-11.1,0c-0.8-1.7-1.8-3.3-0.1-5c2.3,1.7,4.6,1.6,6.9,0.1
		C208.6,2.6,210.7,3.5,212.7,4.5z"/>
	<path class="st35" d="M216.8,8.3c0-0.2,0-0.5,0-0.7c2.5-0.4,4.9-0.8,7.4-1.2c1.7-0.1,2.9,0.5,3.4,2.3c-1.1,3.4-2.7,5.4-6.2,2.3
		C220,9.8,217.9,10,216.8,8.3z"/>
	<path class="st36" d="M433.7,6.6c-3,4.2-7.2,0.6-10.8,1.8c1.2-1.7,3.7,0,4.8-1.9C429.8,6.6,431.8,6.6,433.7,6.6z"/>
	<path class="st37" d="M319,18.4c0.8,0.1,1.6,0.1,2.4,0.2c3.3,1.9,6.9,1.8,10.6,1.9c2.7,0.1,5.6-0.8,8.2,0.8c0.3,1.1-0.5,1.6-1.3,2
		c-7.6,1.3-15,0.5-22.5-0.8c-5.5-1.4-11.1-0.5-16.7-0.7c-1.7,0.1-3.5,0-5.2,0c-1.7-0.2-3.5-0.1-5.2-0.5c-2.9-1.1-6-1.6-9.1-1.7
		c-2-0.1-4.7,0.1-3.9-3.4c1.9-1.4,4-0.7,6-0.7c4.1,0.9,8.2,0.3,12.3,0.5c6.2,0.8,12.5,0,18.7,0.9C315.3,17.2,317.3,17.4,319,18.4z"
		/>
	<path class="st38" d="M282.4,16.5c-2,0-3.9,0-5.9,0c-0.8,0.5-1.5,0.5-2.3-0.1c-0.4-0.8-0.4-1.6,0.3-2.3c1.4-0.9,2.7-0.7,4,0.2
		c1.3,0.1,2.6,0.2,3.9,0.3c5.3,1,10.8-0.3,16.1,0.7c4.9,0.1,9.8,0.2,14.8,0.4c2.3,0.1,4.6,0.1,5.8,2.7c-8.2-0.4-16.4-0.7-24.6-1.1
		C290.5,16.3,286.4,17.6,282.4,16.5z"/>
	<path class="st39" d="M278.4,14.3c-1.3,0.1-2.7,0.1-4,0.2c-5.5,4-11.5,2.5-17.4,1.6c-1.4-2.6,0.9-2.5,2.2-2.8
		c2.4-0.6,4.9,0.1,8.5-0.8c-4-0.9-6.8-0.4-9.6-0.7c-1.8-0.2-4.1,0.4-4.7-2.3c8.1-0.6,16.1,0.1,23.9,2.1
		C277.8,12.5,278.1,13.4,278.4,14.3z"/>
	<path class="st40" d="M340.1,21.5c-5.5-0.4-11.1,0.4-16.5-1c-1.2-0.3-2.3-0.4-2.2-1.9c9,1.4,18.1,0.6,27.1,1c1.9,0.1,4-0.3,5.8,0.8
		c-3.7,0.8-7.6-0.9-11.1,1C342.2,22.3,341.2,22.3,340.1,21.5z"/>
	<path class="st41" d="M298.5,15.3c-5.4-0.1-10.8,1-16.1-0.7C287.7,14.7,293.2,13.7,298.5,15.3z"/>
	<path class="st42" d="M317.3,11.4c-2.1-5.5,3.7,1.5,2.9-1.9c0.6,0.4,1.2,0.7,1.8,1.1c0.2,0.1,0.5,0.3,0.7,0.4
		c-0.3,0.1-0.5,0.2-0.8,0.3c-0.6,0.1-1.2,0.2-1.9,0.3C319.1,12.6,318.1,13,317.3,11.4z"/>
	<path class="st43" d="M322,11.3c0.1-0.2,0.2-0.5,0.1-0.7c8.3,0,16.7,0,25,0c0,0.2,0,0.5,0,0.7C338.7,11.3,330.3,11.3,322,11.3z"/>
	<path class="st43" d="M366,11.2c-4.2,0-8.5,0-12.7,0c0-0.2,0-0.3,0-0.5c4.2,0,8.5,0,12.7,0C366,10.9,366,11.1,366,11.2z"/>
	<path class="st44" d="M433.9,28.3c-0.2,1.3-3.6,0.5-2,3c-4,2-8.3,1.8-12.5,1.6c-2.8-0.1-5.6-0.2-8.4-0.5c-3.5-0.5-4.9,1.1-4.6,4.6
		c5.4,0,10.8-1.1,16.1,0.9c2.2,0.9,4.2-0.2,6.1-1.3c2.1-1.2,3.8-1.1,4.4,1.7c-0.7,0.7-1.3,1.3-2,2c-0.4,2.4-1.9,2.4-3.9,2.2
		c-6.6-0.7-13.3-1.4-20-0.2l0.1,0.1c-3.3,0.8-4-1.4-4.3-3.8c-0.3-2.8-0.1-5.6-0.1-8.3c0-1.1-0.1-2.2,0-3.4c0-0.8,0-1.6-0.1-2.4
		c-0.2-2,0.9-2.3,2.6-2.5c3.3-0.4,5.9,1.3,8.8,2.5C420.5,26.1,427.5,25.7,433.9,28.3z"/>
	<path class="st45" d="M413.9,24.3c-2.3,0.4-4-1.6-6.1-1.7c-1.3-0.1-4.3-2.2-4,1.9c-4.7,2.4-9.7,0.7-14.5,1.2c-1.5,0-3.1,0-4.6-0.4
		c-6.2-1.3-12.4-0.3-18.6-0.6c-3.4-0.2-6.9,0.5-10.3-0.6c-1.2-0.9-1.4-1.7,0.3-2.2c0.9-0.2,1.9,0.1,2.8-0.5
		c6.5-0.6,12.9,0.7,19.3,0.7c9.4,0.1,18.9-0.4,28.3-0.9C409.6,21.2,412,21.9,413.9,24.3z"/>
	<path class="st46" d="M359,21.5c-1.3,0.6-2.6,1.1-3.9,1.7c-0.7,1.1-1.9,1.3-3,1.4c-0.6,0.1-1.2,0.1-1.7,0.1c-2.3,0-4.6,0.2-6.9,0
		c-1.7-0.2-3.8,0.1-4.4-2.3c0.4-0.3,0.7-0.7,1.1-1c1-0.1,2.1-0.1,3.1-0.2C348.5,21.4,353.7,21.5,359,21.5z"/>
	<path class="st46" d="M380,43.1c-0.3,0.1-0.7,0.2-1,0.4c-1.8,1.5-4.1,1.2-6.2,1.2c-10.2,0-20.5,0.1-30.7,0
		c-4.3-0.2-8.6,1.2-12.9,0.1c-2.4-0.3-4.8,0.2-7.1-0.7c-0.7-0.5-1.5-1-0.6-1.9c3-3,11.1-3.9,15.2-1.9c-0.1,0.7,1.1-0.3,0.5,0
		c-0.3,0.2-0.4,0-0.3-0.4c0.8-3.3,2.4-4.1,5.1-2.6c0.7,0.4,1.3,2.2,1.7,1.4c1.3-2.5,5.5-2.3,5.5-5.8c0-1.2-0.3-2.4-2-1.9
		c-0.7,0.2-1.4,0.1-1.9-0.2c-1.4-0.8-3.7-1.1-3.8-2.8c-0.1-1.9,2.2-2,3.8-2.6c1.9-0.4,3.8-0.3,5.7-0.4c7.9,0.2,15.9-0.4,23.8,0.3
		c2,0.8,2.3,1.8,0.1,2.8c-1.6,0.7-3.4,0-4.9,0c2.8,0.9,5.9-0.1,8.9,0.5c2.8,1.6,2,3.7,0.7,5.7c-1.8,2.8-3.8,5.5,0.9,7.4
		C380.6,41.9,380.4,42.7,380,43.1z"/>
	<path class="st47" d="M380,43.1c-0.8-2.7-6-1-5.1-4.1c0.5-1.7,2.2-4,3.8-5.7c1.2-1.3,1.3-2.5,0.3-3.9c4.9-2.8,10.2-1.2,15.4-1.3
		c2.8,0.9,6.4,0.7,6.4,4.8c0.4-1.2-1.2-2.9,0.8-4.1c0.9,0,1.6,0.3,1.7,1.3c-0.3,4.4,0.7,8.8-0.5,13.1
		C395.2,43.1,387.6,43.1,380,43.1z"/>
	<path class="st48" d="M394.9,46.2c-14.9,0-29.9,0-44.8,0c-0.1-2.1,1.3-2.5,2.9-2.4c8.7,0.2,17.3-0.5,26,0.4
		c1.8,1.3,3.7,0.5,5.6,0.3C388.2,44.1,391.8,43.9,394.9,46.2z"/>
	<path class="st49" d="M406.9,42.2c0.4-2.4,2.3-1.9,3.9-1.9c5.3-0.1,10.6-0.3,15.8,1.1c1.9,0.5,3.1,0.1,4.3-1.1
		c0.4,0.4,0.8,0.8,1.2,1.1c-0.2,0.4-0.5,1.2-0.7,1.2C423.2,43.2,415,44,406.9,42.2z"/>
	<path class="st50" d="M379,44.2c-7.9,0-15.8,0-23.7,0.1c-1.9,0-4.1-0.4-5.1,1.9c-1.7,0-3.3,0-5,0c-0.8-1.7-4-0.1-3.9-2.9
		c12.6,0,25.2,0.1,37.8,0.1C379,43.7,379,43.9,379,44.2z"/>
	<path class="st51" d="M402.8,43.2c0-4.6,0-9.1-0.1-13.7c0.4-0.5,0.8-0.5,1.3-0.1c0,2.9,0,5.9,0,8.8c0,2.1,0.3,4,2.9,4.2
		C405.8,43.8,404.3,43.2,402.8,43.2z"/>
	<path class="st52" d="M242.5,126.5c-0.1-0.3-0.1-0.6,0.1-0.8c2.2-1.8,0-4.2,0.9-6.1c2.2-13.8,4.3-27.6,6.5-41.4
		c0.4-2.4,0.9-4.8,1.4-7.2c1.1-0.6,1.9,0,2.7,0.6c3.8,6.5,9.2,11,16.3,13.5c0.7,0.3,1.5,0.7,1.3,1.7c-4.6,1.7-9.5-0.1-14.2,1
		c-0.6,0.4-1.2,0.8-1.9,1.2c-0.6,1.3-0.9,2.7-1.7,4c-0.8,3.6,0.1,7.6-2.4,10.9c-1.5,2.6-2.6,5.6-3.6,8.2c-1.9,5.2-2.8,11-1.3,16.7
		c0.3,6-0.8,11.9-2,17.8c-1.8,1.3-0.5,5-4,5c-1-1.9-0.6-4,0.4-5.6c2.5-3.8,1.5-8.3,2.9-12.3C244.8,131.1,240.7,129.3,242.5,126.5z"
		/>
	<path class="st10" d="M242.5,126.5c-0.9,2.9,3.5,3,3.1,5.6c-0.6,4-0.7,8.1-2.2,11.8c-1,2.6-1.6,5.2-2.7,7.7
		c-0.4,1.6-2.9,2.8-1.1,4.9c1,0.8,1.8,1.7,1.1,3.1c-1,0.8-2.7,0.8-3.2,0.2c-3.3-4-7.7-2.4-11.7-2.6c-4.4-0.3-8.8,0.2-13-1.5
		c-2-0.5-4.3,0.7-6.1-1.2c2-1.9,4.6-1.4,7-1.5c6.9-0.3,13.8,0.5,20.7-0.6c2.8-0.5,3.6-2.6,4-5c1-5.9,2.8-11.7,3-17.8
		C241.8,128.6,242.1,127.5,242.5,126.5z"/>
	<path class="st53" d="M240.4,159.3c-0.3-1-0.6-1.9-0.9-2.9c1.7-0.9,2.7,0.2,3.5,1.4c0.9,1.5-1.2,1.6-1.5,2.6c-0.3,0-0.7,0-1,0
		c-0.3-0.2-0.4-0.4-0.3-0.7C240.3,159.5,240.4,159.3,240.4,159.3z"/>
	<path class="st54" d="M432.8,38.3c-1.2-1.2-2.3-2.4-4-0.6c-2.7,2.9-5.8,1.7-8.9,1c-4.9-1.2-9.8-1.4-14.6,0.7
		c-0.9-8.5-0.9-8.4,7.5-8.1c6.3,0.2,12.7,0,19.1,0C434.1,33.4,434.3,35.7,432.8,38.3z"/>
	<path class="st55" d="M341.2,43.3c0.8,1.6,4,0.1,3.9,2.9c-5.9,0.6-12-0.9-17.8,1.2c-3.6-0.8-6.6,1.9-10.1,1.8
		c-4.8,0.6-9.5,0.9-14.3,0c-1.6-0.7-2.8-1.7-2.7-3.7c3-3.2,7-2.1,10.6-2c6.1,0.2,12.2,1.5,18.3-0.1
		C333.2,45.4,337.2,42.8,341.2,43.3z"/>
	<path class="st56" d="M251.5,103.8c0.1-4.1,0.6-8.1,2-11.9c1.7,3.1-0.6,6.6,0.9,9.8c-1.5,5.9,0,12.1-2.2,18.2
		c-1.6-3.2,0.5-6.1,0.3-9C252.3,108.5,253.5,105.9,251.5,103.8z"/>
	<path class="st57" d="M254.4,101.7c-2.8-3,0.2-6.6-0.9-9.8c0.2-1.3,0.6-2.5,2-3c0.4,0.6,0.7,1.3,1.1,1.9c-3,2.5-1.2,6.1-2,9.1
		C254.5,100.5,254.4,101.1,254.4,101.7z"/>
	<path class="st58" d="M257.3,87.7c4.4-2.1,9.5,0.6,13.9-1.6c1.9-0.5,2.3-1.1,1.4-2.5c2.3-1.4,4.7-1.1,7.1-0.4
		c0.7,0.3,1.2,0.9,1.2,1.7c1.3,2,4.3-0.1,5.6,2.2c0,0.3-0.1,0.5-0.2,0.8C276.7,87.8,267,87.8,257.3,87.7z"/>
	<path class="st59" d="M280.4,85.9c0-0.6,0-1.2,0-1.8c0.8-1.3,2.2-1.4,3.5-1.5c5.8-0.3,11.4-1.7,17-3.2c2.1,0.2,4.1-0.4,6.1-0.8
		c0.7,0.2,1.2,0.7,1.4,1.4c-1,1-2,2-3.1,2.9C297.2,85.2,289,87.5,280.4,85.9z"/>
	<path class="st60" d="M280.4,85.9c8-0.1,15.9-0.5,23.4-3.8c0.3-0.1,1,0.6,1.6,0.9c-5.8,3.8-12.4,3.6-18.9,4
		C284.5,86.3,282.1,88,280.4,85.9z"/>
	<path class="st61" d="M308.4,80.1c-0.4-0.3-0.7-0.7-1.1-1c0-1.3,0.8-2.5,0.7-3.9c0.1-1.2,0.2-2.4,1.1-3.3c0.7-0.4,1.4-0.4,2.1,0.1
		c1.5,1.4,0.1,3.5,1.1,5.1c-0.7,0.9-1.5,1.8-2.2,2.8C309.6,79.9,309,80,308.4,80.1z"/>
	<path class="st62" d="M311.2,72c-0.6,0-1.2,0-1.8,0c-1.9-0.6-2.1-2.3-2.5-3.9c-0.5-2.2-1.2-4.4-1.7-6.6c-1-4.6-3.6-6.6-8.4-6
		c-2.8,0.3-5.6,0.1-8.4,0.1c-8.5-0.2-16.8,1.2-24.7,4.2c-2.7,1-5.9,1.5-6.4,5.2c-0.6,1.5-1.3,3-1.5,4.6c-0.4,1.1-0.4,2.5-2.1,2.5
		c-0.8-0.4-1.5-0.7-2.3-1.1c0.2-3.7,0.4-7.4,0.6-11.1c0.1-2.1-0.4-4-3.3-3.1c-1.3-0.9-2.1-2-1.8-3.7c0.1-0.5,0.4-0.9,0.7-1.2
		c2.3-0.8,4.1-2.3,5.9-3.9c5-2.5,9.9-1.4,14.8,0.2c2.8,3.9,5.3,1.7,7.9-0.4c6.7-1.5,13.5-1.4,20.3-0.2c1.8,1.2,3.9,1,5.9,0.6
		c4.9,0.5,10-0.9,14.9,1c-1.1,1.3-2.1,2.6-3.2,4c-3.1,4.1-2,9-2.9,13.5C310.7,68.3,311.1,70.2,311.2,72z"/>
	<path class="st20" d="M241.4,129.6c0.8,6.6-0.5,13-1.9,19.4c-0.5,2.2-1.4,4-3.9,4.4c-1.1-0.5-1.6-1.3-1-2.5c1.8-5,1.3-4.5-3.6-6.5
		c-8.1-3.3-16.4-3.8-24.8-3.5c-3.3,0.1-6.5,1.2-9.9,0.9c-2.7-0.3-5.5-0.5-5.5-4.2v-0.1c1.4-1-0.8-3.6,1.9-3.9
		c-0.4,4.6,2,5.9,6.1,5.1c10.3-2.2,20.3-2.5,30.3,1.7c4.9,2.1,6.4,0.7,7.4-4.9c0.2-1.1-0.1-2.4,1.2-3.1c1.6,0.4,1.5,2.2,2.3,3.5
		C241.2,133.7,239.7,131.3,241.4,129.6z"/>
	<path class="st63" d="M247.6,52.3c-0.1,0.3-0.1,0.5-0.2,0.8c-1,1.4-2.6,1-3.9,1.1c1,0.5,3.4-0.7,2.9,2.2
		c-11.3-0.1-22.5-0.2-33.8-0.2c-0.4-0.5-0.5-1-0.3-1.6c0.9-1.7,2.5-2.2,4.3-2.6c7.3-0.7,14.8,0.8,22.1-1
		C241.7,51,244.9,49.9,247.6,52.3z"/>
	<path class="st64" d="M192.8,133.6c-1.6,0.9-0.3,3.1-1.9,3.9c-0.4-6,2.8-11.1,4.2-16.6c2.8-10.6,6.2-21.1,9.5-31.6
		c0.2-0.7-0.3-3.7,2.2-1.4C202.1,103.2,197.4,118.4,192.8,133.6z"/>
	<path class="st65" d="M227.7,68c5.6,0,11.2,0,16.8,0c1.9,0,4.1,0.2,3.8,2.7c-0.9,7.2-2.1,14.4-4.3,21.4c0.7-5.5,1.1-11,2.2-16.4
		c0.9-4.4-0.1-6.6-4.9-6.6c-5.2,0-10.5-0.1-15.7-0.1C225.6,67.2,226.5,67.5,227.7,68z"/>
	<path class="st66" d="M212.7,55.1c0,0.3,0,0.7,0,1c-1.7,0.8-2.5,2.3-2.7,3.9c-0.4,5.5-4.8,9.6-5.2,15.1c0-2-0.1-4-0.1-6
		c0.6-1.8-0.8-3.2-1.1-4.9c0.2-1.4,0.7-2.5,2.1-3.1c1.5-1.1,2-3,3-4.4C209.7,55.5,210.6,53.8,212.7,55.1z"/>
	<path class="st20" d="M227.7,68c-0.8,0-1.6,0.2-2,1c-1.3,0-2.7,0.2-4,0c-5.5-0.7-10,0.6-12.5,6.4C210.5,67.4,217.9,64.6,227.7,68z"
		/>
	<path class="st67" d="M246.5,56.3c-1.8-2.5-4.8-0.2-7.2-1.7c2.4-2.6,5.6-0.8,8.1-1.5c0.4,1.2,0.8,2.5,1.2,3.7
		C247.8,57.1,247.1,57.1,246.5,56.3z"/>
	<path class="st10" d="M243.5,119.6c0.4,2.1,3.5,4.7-0.9,6.1C242.5,123.6,242.4,121.5,243.5,119.6z"/>
	<path class="st68" d="M190.8,137.6c2.4,4.5,6.6,3,10.2,2.7c9.5-0.8,19.1-2.5,28.1,2.5c1.4,0.8,2.8,0.8,4.3,0.8
		c1.5-0.1,3.5-1,3.2,1.9c-0.2,2.1,3.4,5.6-2,6c-10,1-20,0.7-30,0.2c-4.6-0.2-9.1-1.1-13.5,1.1c-1,0.5-2.3,0.5-3.3-0.3
		c4.3-2.6,3.1-6.6,2.6-10.4C190.2,140.5,189.2,139,190.8,137.6z"/>
	<path class="st69" d="M187.8,152.4c3.6,0.4,5.5-3.7,9.6-3.1c11.5,1.9,23.1,0.9,34.6,1.1c1,0,2,0.1,2.7,1c0.3,0.7,0.7,1.3,1,2
		c-7.7,2-15.6,1.1-23.5,1c-1.8,0-3.6,0-5.4,0c-6.6-0.9-13.3,0.6-19.9-1C187.1,153.1,187.4,152.8,187.8,152.4z"/>
	<path class="st70" d="M212.7,55.1c-2.7,0.1-3,2.6-4.2,4.2c-0.6,0.8-0.3,3.7-2.8,1.7c-2.8-2.6-2.9-7.4-7.4-8.7
		c5.4-5.1,10.6-5.5,16.5-1.3c0.4-0.2,0.8-0.1,1.2,0.3c0.3,0.7,0.2,1.3-0.2,1.8C214.8,53.8,213.7,54.5,212.7,55.1z"/>
	<path class="st71" d="M215.6,51.3c-0.3-0.1-0.5-0.1-0.8-0.2c-0.1-1.3-0.2-2.5-0.3-3.8c0-2.8-1.9-3.2-4.1-3
		c-5.2,0.5-10.5-0.8-15.7,0.7c-1.1,0.3-4,1.6-3.9-1.9c2-1.7,4.4-1.1,6.7-1.3c1,0,2-0.3,3-0.3s1.9,0.3,2.9,0.3c1.7,0.2,3.3,0.1,5,0.1
		c0.7,0,1.5,0,2.2,0c0.8,0,1.6,0,2.3,0.1c1.1,0.1,2.2,0.3,3,1.2c0.3,0.5,0.6,1,0.7,1.5C217,47,217.5,49.4,215.6,51.3z"/>
	<path class="st72" d="M240.4,159.3c0,0.4,0.1,0.7,0.1,1.1c-7.9-2.5-15.8,2.6-23.7,0c-2.4-0.8-4.8,1.6-7.2-0.1
		c0-2.3,3.2-2.5,3.1-4.8c7.3-0.4,14.6,0.8,21.9,0c1.5-0.2,2.7,0.5,2.6,2.2C237.2,160.6,239.3,159,240.4,159.3z"/>
	<path class="st73" d="M198.6,43c-2.6,0.1-5.1,0.1-7.7,0.2c-0.1-0.3-0.1-0.6-0.2-0.9c0.5-6.4,3.8-12,5.7-18
		c1.2-3.7,2.9-7.2,4.3-10.8c0-0.3,0.1-0.6,0-0.9c2.8-2.6,5.1-1.6,7.3,0.8C206.3,23.7,202.2,33.3,198.6,43z"/>
	<path class="st74" d="M207.7,13.4c-2.2-1.1-4.5-1.9-7-0.9c0-0.8-0.1-1.6-1-2c-0.2,0-0.3,0-0.5-0.1c-0.5-0.2-0.7-0.8-0.2-0.9
		c5.1-0.6,10,0.5,14.5,2.9c1,0.5,1.8,1.2,3,1.1c3.1-0.7,6.1-0.8,9,0.9c2,1.2,4.2,0.4,6.3,0.4c5.4-0.1,10.9-1.3,15.9,1.8
		c-1.5,3.5-4.7,1.1-6.9,2.1c-1.7,0.3-3.4,0.3-5,0c1.7,0.3,3.5,0.2,5.2,0c1.3-0.1,2.8-0.2,2.5,1.9c-3.5,1.9-7.6,0.6-11.3,2.1
		c-2.2-0.4-4.2-1.2-6.5-1.3c-1.4-0.3-2.7-0.7-4.1-1.1c-1.4-0.5-2.6-1.7-4.1-2.1c-1-0.4-2.1-0.6-3.2-0.6c-0.7,0-1.4-0.1-2-0.3
		C210.5,16.6,208.8,15.4,207.7,13.4z"/>
	<path class="st75" d="M200.7,13.5c-2.1,10-6.5,19.3-10,28.8c-0.6,0-1.3,0-1.9,0c3.8-8.5,5.3-17.8,10.1-25.9
		C199.5,15.4,200.1,14.4,200.7,13.5z"/>
	<path class="st0" d="M247.6,16.3c-6-0.3-12-0.8-17.9,0.1c-4.8,0.7-8.6-2.5-13.1-2.9c-1.6-1.8-3.7-3.6,0.2-5.2
		c1.4,0.4,2.9-0.1,4.2,1c2.4,2.1,4.6,2.2,6.6-0.6c0.6,1.2,1.3,1.3,2.7,1.2c7.7-0.8,15.5-0.9,23.3-0.3c2.9,2,6.1,0.6,9.1,0.9
		c1.5,0.2,3,0,4.5,0.1c1.6,0,3.2,0.5,3.1,2.4c-0.1,1.9-1.9,1.4-3.1,1.5c-3.5,0.5-7.2-1.1-10.6,1C253.7,17.4,250.8,18.7,247.6,16.3z"
		/>
	<path class="st76" d="M271.4,6.6c-0.2,1.1-0.8,1.8-2,1.8c-11.3,0-22.7,0-34,0c0-0.6,0-1.2,0-1.8C247.3,6.6,259.3,6.6,271.4,6.6
		C271.3,6.6,271.4,6.6,271.4,6.6z"/>
	<path class="st77" d="M307,10.3c-10.6,0-21.3,0-31.9,0c0-0.5,0-1.1,0-1.6c9.7,0,19.4,0,29.2,0C304.8,9.8,307.3,7.7,307,10.3z"/>
	<path class="st42" d="M307,10.3c-0.9-0.5-1.9-1.1-2.8-1.6c2.8,0.1,5.6-0.8,9,1.1C310.7,10.8,308.8,10.3,307,10.3z"/>
	<path class="st78" d="M350.2,26c-2,0.2-4,0.3-6.1,0.5c-3.6,1-7.2,1.6-10.9,1.2c-8.1-2.1-16.3-0.5-24.5-0.9
		c-5.7-0.3-11.5,0.4-17.2-0.4c-0.6-0.2-1-0.5-1.5-0.8c-2.9-5.4,1.8-4.2,4.3-4.9c1.6,0,3.3-0.1,4.9-0.1c5.6,1.2,11.4-0.3,17,0.8
		c7.6,1,15.1,1.5,22.8,1.2c3.9,1.6,8.1,0,12.1,0.9C352.1,24.8,348.7,24.5,350.2,26z"/>
	<path class="st79" d="M294.3,20.6c-0.9,1.7-5.6-0.5-4,3.8c-5.7,2-11.3,2.3-16.7-0.8c-0.9-0.8-1.5-1.7-1.7-2.9
		c0-0.3,0.1-0.6,0.1-0.8c0.2-0.5,0.6-0.9,1.1-1.1c5.5-0.2,10.9,0.4,16.3,1.5C291,20.4,292.7,20.5,294.3,20.6z"/>
	<path class="st41" d="M289.4,20.4c-5.7-0.3-11.3-0.6-17-0.9c-0.9-2-1.1-3.6,2-3.1c0.7,0.1,1.4,0.1,2.1,0.2c0.5,2.8,2.8,1.8,4.4,1.8
		C283.9,18.5,286.9,18.4,289.4,20.4z"/>
	<path class="st46" d="M316.3,21.3c-5.7-0.1-11.4,1-17-0.8C304.9,20.8,310.7,19.4,316.3,21.3z"/>
	<path class="st41" d="M282.4,16.5c4,0.1,8.1-0.8,12.1,0.8C290.4,17.2,286.3,18.3,282.4,16.5z"/>
	<path class="st80" d="M274.4,16.3c-2,0.2-2,1.7-2,3.1h0.1c-3,2.2-6.9,0.1-10,1.9c-0.5,0.2-1,0.2-1.5,0.3c-2.1,0.1-4.2,0.3-6.2-0.6
		c-4-2.4-8.7-0.4-12.8-2.1c-0.4-0.2-0.9-0.2-1.3-0.5c1.9-2.2,5.2,0.4,7-2c3-0.3,6-0.6,8.9-0.9c6,0.1,12,0.5,17.9-0.9
		C274.4,15.1,274.4,15.7,274.4,16.3z"/>
	<path class="st81" d="M404,29.4c-0.4,0-0.8,0-1.3,0.1c-0.6,0-1.2,0-1.7,0c-1.7,0.7-3.4,0.5-5.2,0c-5.6,0-11.2-0.1-16.9-0.1
		c-4.4,0.8-8.7-0.4-14.4-0.7c4.5-2.2,8.2-0.2,11.3-2.1c4.1-3.2,8.7-0.5,13-1.2c5,0.5,10.1-1,15,0.9C403.9,27.3,404,28.4,404,29.4z"
		/>
	<path class="st82" d="M403.9,26.3c-4.9-0.1-9.9-0.1-14.8-0.2c-0.7-0.5-0.7-1.1-0.1-1.7c4.9,0,9.9-0.7,14.8,0.1
		C403.8,25.1,403.9,25.7,403.9,26.3z"/>
	<path class="st83" d="M389,24.4c0,0.6,0,1.1,0.1,1.7c-4.4,0.1-8.8,0.2-13.2,0.4c-8.6-0.2-17.1-0.3-25.7-0.5c0-1-2.4,0-1.5-1.5
		c0.3-0.5,1.8-0.1,2.5-1c0.3-0.1,0.6-0.1,1,0.1c8.9,0.8,17.8,0.1,26.6,0.4c2.1,0.1,4.3-0.3,6.4,0.3C386.4,24.3,387.7,24.4,389,24.4z
		"/>
	<path class="st78" d="M385.1,24.2c-10.3,0.1-20.5,0.1-30.8,0.1c-0.7,0-1.5-0.5-2.2-0.8c1-0.1,2-0.2,3-0.3
		c8.2,0.1,16.5,0.2,24.7,0.4C381.6,23.6,383.5,23.2,385.1,24.2z"/>
	<path class="st84" d="M333.2,26.4c3.6,0,7.3,0.1,10.9,0.1c-0.7,0.4-1.3,0.9-2,1.3c1.6,0.8,4.2,2.6,4.7,2.2c2.4-2.3,3-0.8,3.2,1.2
		c0.1,1.8,2.8,4.3-1.5,5.4c-2.3,0.5-4.5,2.2-4.9,6.1c-1.1-2.5-1.2-4.6-3.3-5.1c-1.1-0.3-2.1,0-2.6,0.9c-0.7,1.3,0.5,1.1,1.2,1.2
		c0.9,0.1,1,0.8,0.6,1.5c-0.5,0.8-1.3,1.3-2.1,0.7c-5.9-4.5-10.9,0.4-16.3,1.3c-5.6,2.2-11.4,0.1-17.1,0.7c-0.8,0.1-1.6,0-2.4,0.2
		c-4.3,0.9-8.6,0.4-12.9,0.6c-0.6,0-1.2,0-1.8,0c-5.7-0.4-11.4,0.7-17-0.7c-2.9-3.2-0.8-5.6,1.4-7.9c3.1,2.8,5.9,0.8,8.7-0.5
		c3.1-1.3,6.3-0.4,9.3-0.1c4.6,0.4,8.5-0.8,12.4-2.5c2.6-1.1,4.7-1.5,7.5-0.1c3,1.6,6.9,1.2,9.8,2.1c4.8,1.6,8.8-1.4,13.2-0.3
		c2,0.5,3.9-1.6,5.9-2.6c-1.3-1.8-3.2-2.9-5.2-3.9C332.6,27.6,332.6,27,333.2,26.4z"/>
	<path class="st85" d="M301.3,43.4c6.6-0.1,13.3-0.2,19.9-0.3c2.6,0.1,5.3,0.2,7.9,0.2c-5.3,3.2-11.3,2-16.8,1.5
		c-4.1-0.3-8,0-12,0.4c-0.1-0.1-0.2-0.3-0.3-0.4c0-0.4,0.1-0.7,0.4-0.9C300.7,43.7,301,43.6,301.3,43.4z"/>
	<path class="st86" d="M395.9,29.5c1.7,0,3.4,0,5.2,0c1.1,1.8,0.4,3.4-1.2,6C400.8,30.9,398.1,30.4,395.9,29.5z"/>
	<path class="st87" d="M253.6,72.1c1.1-0.8,0.8-1.9,0.9-3c2.3,0,2.2,2.1,2.9,3.4c0.9,1.6,1.6,3.4,3.9,3.2c0.7,0.2,1.3,0.5,1.8,0.8
		c2.8,2.5,7.3,3.1,8.5,7.4c-0.4,1.1-2.4,0.2-2.2,1.9C262.3,83.4,256.5,79.4,253.6,72.1z"/>
	<path class="st88" d="M269.5,85.8c-0.4-0.5-1.2-1.2-1.1-1.3c0.8-1.3,2.3-0.3,3.3-0.8c0.3-0.2,0.6-0.1,0.7,0.2
		c1,0.5,2.1,1.1,3.4,1.8c-1.8,0.1-3.2,0.3-4.6,0.4C270.7,86,270.1,85.9,269.5,85.8z"/>
	<path class="st89" d="M302.3,48.2c-1.3,2.2-2.9,2.9-5,1c-1.1-2.9-0.8-4.8,3-4l0,0C301,46.2,301.6,47.2,302.3,48.2z"/>
	<path class="st90" d="M302.4,80c1.3-1,2.6-2,3.9-3c0.9-0.7,1-3.9,3-0.9c0.2,1.5-0.8,2.3-1.9,3C305.7,79.4,304.5,82.3,302.4,80z"/>
	<path class="st91" d="M309.2,76c-1.5-1.2-2,0.5-3,0.9c0.4-4.3-0.3-8.5-1-12.7c-0.6-4-3.2-6.2-7.1-7c-1.7-1.1-1.7-1-5.1-1.2
		c-1.7-0.1-4,0.9-4.8-1.7c1.3-0.1,2.6-0.3,3.9-0.3c13.1,0,13.4,0.2,15.9,13.2c0.3,1.6,0.2,3.3,1.2,4.7
		C309.3,73.3,309.3,74.7,309.2,76z"/>
	<path class="st92" d="M215.6,44.2c0-0.3,0-0.6,0.1-0.9c0.4-0.7,1.1-1,1.9-1.1c0.7-0.1,1.5-0.2,2.2-0.2c1,0,2,0,3-0.1
		c0.8,0,1.5,0,2.3,0c1.6,0,3.2-0.1,4.8-0.1c1.9,0,3.8,0,5.7,0c1.9-0.1,3.9,0,5.8,0c1.7,0.1,3.3,0,5,0c1.6,0.1,3.3,0,4.9,0
		c1.4,0.1,2.7,0.1,4,0.8c0.7,0.5,1,1.2,1,2.1c-0.1,2.1-1.7,3-3,4.2c-0.9,2.7-2.9,3.6-5.6,3.3c-3,0-6-0.1-9-0.1
		c-0.3-0.4-0.3-0.8,0-1.3c1.3-1.2,3.2-0.4,4.6-1.3c1.1-0.8,2-1.8,3.6-1.8c0.8-0.3,2,0.4,2.2-0.8c0-0.2-1.3,0.2-2,0.4
		c-1.8-0.1-3.2,0.9-4.5,2c-2.1-0.2-3.5-1.5-5-2.8c-1.6-1.3-3.3-1.1-5-0.7c-5,0.4-10-0.1-14.9-0.7C216.7,45.1,216.1,44.7,215.6,44.2z
		"/>
	<path class="st93" d="M288.3,54.4c4.4,1.5,9,0,13.8,1.4c-1,1.8-2.9,0.6-3.9,1.5c-6.3,0-12.5-0.1-18.8-0.1c-2.5,5.4-6,2.2-9.3,1.1
		c-2.5,0.4-3.6,2.8-5.7,3.8c-1.2,0.9-2.1,0.5-2.8-0.6c-0.7-1.1,0.1-1.8,0.9-2.5C270.7,55.5,279.3,53.8,288.3,54.4z"/>
	<path class="st94" d="M300.3,45.2c-2.6,0.1-3.1,1.8-3,4c-7.3-1.6-14.5-1.7-21.8,0.1c-0.9-0.4-1.6-1.1-2.2-1.9
		c-0.4-0.7-0.4-1.4,0-2.2c4.5-2.1,9.4-0.2,13.9-1.8c0.4,0,0.8,0,1.2,0c3.8,1.9,8-0.6,11.8,0.9C300.3,44.6,300.3,44.9,300.3,45.2z"/>
	<path class="st95" d="M262.5,59c-1.1,2.1,0,2.9,2,3.1c-4.4,4.4-1,9.9-2.1,14.8c-0.3-0.2-0.7-0.5-1-0.7c-3.9-2.8-3.3-7.6-5.1-11.3
		C256,60.5,259.2,59.7,262.5,59z"/>
	<path class="st55" d="M253.3,49c0.8-1.2,1.5-2.5,2.3-3.7c4.9-2.4,9.9-3.3,15.1-0.7c0.1,2-0.8,3.5-2.3,4.8
		C263.4,47.7,258.4,47.1,253.3,49z"/>
	<path class="st96" d="M256.3,64.9c2.9,0.8,1.9,3.6,2.8,5.4c0.9,1.9,1.5,3.9,2.3,5.9c-1.6,2-2.8,0.9-3.6-0.6
		c-1.2-2.1-2.1-4.3-3.2-6.5C254.7,67.5,255.2,66.1,256.3,64.9z"/>
	<path class="st97" d="M268.4,49.3c0-1.7,0.1-3.3,2.1-4.1c0.7,0.2,1.2,0.6,1.3,1.3c0,0.6-0.4,1.4,0.3,1.6c0.8,0.2,1.4-0.5,2-1
		c1.1,0.3,1.3,1.2,1.5,2.1C273.2,53,270.8,53.6,268.4,49.3z"/>
	<path class="st98" d="M215.6,44.2c0.7,0,1.4,0,2.1,0.1c0.3,0.4,0.5,0.7,0.8,1.2c0.4,3.1,1.7,5,5.2,4.4c3-0.1,6-0.1,9-0.1
		c2.1,0,4.2-0.2,5.8,1.4c0,0.3,0,0.6,0,0.9c-5.5,2.2-11.3,0.5-16.9,1c-1.9,0.2-3.9,0-5.9,0c-0.1-0.6-0.1-1.3-0.2-1.9
		C215.6,48.9,215.6,46.6,215.6,44.2z"/>
	<path class="st99" d="M212.7,16.5c0.7,0,1.3,0,2,0c2.3,3.1-1.4,6.2-0.1,9.3c-1.1,6.1-3,11.9-5.9,17.3c-1.9,0-3.9,0.1-5.8,0.1
		c-1.3-1.3-1-2.8-0.5-4.2c2.8-6.9,4.8-14,8-20.7C211,17.5,211.9,17.1,212.7,16.5z"/>
	<path class="st100" d="M212.7,16.5c-0.1,0.8-0.2,1.6-1.1,1.9c-3.1,0.5-2.7,3.3-3.4,5.3c-2.3,6.3-4.2,12.7-7.4,18.6
		c-0.7,0.3-1.4,0.5-2.1,0.8c-0.6-3.1,1.2-5.6,1.8-8.4c1.4-5.6,5.7-10.4,4.5-16.8c-0.4-2,3-2.1,2.8-4.3
		C209.4,14.5,211.1,15.5,212.7,16.5z"/>
	<path class="st101" d="M208.6,43.1c0.3-6.3,4.1-11.6,5.1-17.7c1-5.4,1.6-5.9,5.5-4.4c-2.1,7.7-3.2,15.7-8.5,22.1
		C210,43.1,209.3,43.1,208.6,43.1z"/>
	<path class="st102" d="M200.7,42.2c-0.5-4.4,3.1-7.4,3.8-11.4c0.6-3.3,1.9-6.6,3.2-9.8c0.6-1.6,0.9-4.2,3.9-2.7
		c-3.1,8.2-6.9,16.2-8.8,24.8C202.1,42.8,201.4,42.5,200.7,42.2z"/>
	<path class="st103" d="M210.6,43.1c2.7-7.5,5.4-15.1,8.1-22.6c-0.3-1-1.6-1.7-1-3c2-0.4,2.9,1.2,4.2,2.2
		c-0.1,7.1-4.6,12.8-6.2,19.3c-0.7,1.5-0.9,3.3-2.8,4.1C212.1,43,211.4,43,210.6,43.1z"/>
	<path class="st104" d="M212.9,43c0.6-1.3,1.1-2.5,1.7-3.8c2.8-0.1,3.9,1.1,3.2,3.8c-0.7,0.1-1.3,0.2-2,0.3
		C214.8,43.2,213.8,43.1,212.9,43z"/>
	<path class="st105" d="M229.6,43.1c-1.6,0-3.2,0-4.8,0c-1.2-1.1-0.7-2.5-0.2-3.7c2.1-5.5,3.6-11.3,6.6-16.5
		c0.2-0.1,0.4-0.3,0.6-0.4c3.5-3.4,7.9-1.4,11.9-2.2c3.6-1.4,7.3-1.3,10.9,0c2.4,0.1,4.7,0.2,7.1,0.2c1.3,0.8,3.8-1,4.1,1.9
		c-1.1,1.2-2.1,2.4-2.9,3.9c-1.9,3.1-3.6,3.1-4.8-0.5c-0.2-1.8-0.7-3.4-3.1-2.9c-1.1,0.1-1.7,0.8-2.2,1.7c-1.9,3.1-3.4,2.5-4.6-0.6
		c-1.4-1.6-2.3-1.1-2.2,0.7c0,2.1,0.3,4.1,0.7,6.2c0.1,4-2.1,7.3-3.1,11c-0.4,0.7-1.1,1-1.8,1.3c-1.9,0-3.9,0-5.8,0
		c-1.9-2.1-0.2-4,0.3-6c1-4.2,3.8-7.9,3.8-12.4c-3.3,1.5-3.5,4.9-4.9,7.6c-1.5,3.1-2.1,6.5-3.6,9.6
		C230.9,42.6,230.2,42.8,229.6,43.1z"/>
	<path class="st106" d="M217.7,43.1c-0.2-2-1.5-3-3.2-3.8c1.8-6.8,4.7-13.2,7.3-19.7c1.4-0.3,2.6,0.2,3.8,0.8
		c1.5,0.7,3.3,1.3,2.4,3.5c-2.6,5.7-4.3,11.8-6.5,17.7c-0.3,0.8-1.1,1.2-1.9,1.5C219,43.1,218.3,43.1,217.7,43.1z"/>
	<path class="st107" d="M219.6,43.1c2.7-6.2,3.6-13.2,7.2-19c1.2-1.9-0.4-2.6-1.2-3.6c2.2,0.2,4.7-0.7,6,2v-0.1
		c-3.3,5.3-4.7,11.3-7,17c-0.5,1.3-0.4,3-2.1,3.6C221.6,43,220.6,43,219.6,43.1z"/>
	<path class="st108" d="M254.5,20.3c-3.6,0-7.3,0-10.9,0c-2.7-2.2-6.5,0.5-9.9-2.3c2.8,0.1,4.8,0.2,6.9,0.3c4.1,0,8.2,0.1,12.3,0
		C254.3,18.4,255.3,18.5,254.5,20.3z"/>
	<path class="st109" d="M217.7,17.4c0.2,1.1,3,1.3,1,3c-3.6-0.3-3.5,3.1-5,4.9c-2.3-3.3,1.7-5.8,1-8.9
		C215.8,16.4,216.9,16.4,217.7,17.4z"/>
	<path class="st46" d="M333.2,26.4c0,0.7,0,1.3,0,2c-0.8,1-2,1.3-3.1,1.2c-11.6-1-23.3-0.5-34.9-1c-2.3-0.1-5.2,0-5.9-3.3
		c0.5-0.4,1-0.4,1.5-0.1c12.4,0,24.8,0,37.2,0.1C329.7,25.4,331.4,26,333.2,26.4z"/>
	<path class="st110" d="M290.7,25.2c-0.5,0.1-0.9,0.2-1.4,0.3c-3.4,3.5-7.8,1.9-11.8,2.1c-2.2-0.6-3.2,0.7-4.2,2.4
		c-1.3,2.3-1.9,4.9-3.3,7.1c-1.6,2.6-3.6,3.7-5.1-0.2c0.4-4.6,2.9-8.5,4.7-12.6c0.7-1.7,2.4-2,4.1-2c5.1,3.8,11.1,1.7,16.7,2.2
		C290.4,24.7,290.6,25,290.7,25.2z"/>
	<path class="st111" d="M273.7,22.2c-5.4,3.6-5.6,10-8.2,15c-0.2,0.1-0.5,0.1-0.7,0.2c-3.5-1.4-2.5-4.6-3-7.2
		c0.9-2.8,1.7-5.7,3.7-7.9c-0.9-1.5-3.1-0.3-4-1.9c0.3-0.1,0.6-0.1,0.9-0.2c3.3-0.7,6.6-0.9,9.8,0.2
		C272.7,21.1,273.2,21.7,273.7,22.2z"/>
	<path class="st110" d="M272.3,20.5c-3.3-0.1-6.6-0.1-9.8-0.2c3.2-2.2,6.7-0.9,10-0.9C272.4,19.8,272.4,20.1,272.3,20.5z"/>
	<path class="st112" d="M276.4,26.3c4.3-0.2,8.7,0.5,12.9-0.8c3.2,2.2,6.9,1.6,10.5,1.9c6,0.4,12.3-1.4,18.1,1.3
		c2.2,1,1.7-3.3,4.9-1.8c2.9,1.3,6.8,2.1,10.4,1.5c4.4-2.2,4.4,3.4,7.3,4c-0.5,1.5-1.7,0.2-2.5,0.8c-2.4,1.9-4.6,5-8.2,1.8
		c-0.2-0.2-1.1,0.4-1.7,0.8c-2.4,1.5-4.8,4.2-7.3,0.1c-0.2-0.3-1.4-0.5-1.8-0.3c-4.5,2.8-7.9-0.3-11.3-2.2c-1.9-1.1-3.3-0.4-4.6,0.3
		c-6.3,3.4-12.8,4-19.8,2.5c-1.8-0.4-4.6,0.6-5.9,2c-3.5,3.5-4.9,3.1-5.1-1.8C271.6,32.2,273.1,28.9,276.4,26.3z"/>
	<path class="st52" d="M276.4,26.3c-1.3,3.3-2.6,6.6-4,9.9c-1.6,2-2.9,4.1-2.9,6.8c-2.1,0.6-4.2,1.1-6.3,0.2c-0.4-2.4-0.2-4.6,2.2-6
		l0.1,0.1c2.3,2.5,3.4,0.6,3.9-1.4c0.8-3.2,3-5.8,4-8.8C274,24.9,275.2,25.9,276.4,26.3z"/>
	<path class="st113" d="M263.5,43.1c2,0,4.1,0,6.1,0c5.9,0.1,11.8,0.2,17.7,0.3c-2.8,1.4-5.8,1.9-9,1.9c-1.7,0-3.7-0.8-4.9,1.3
		c-0.7,0.3-1.3,0.3-1.8-0.3c-0.4-0.4-0.8-0.7-1.1-1.1c-5-2.1-9.9,0.2-14.9,0c0-0.7,0-1.4,0-2c0.5-0.6,1.2-0.9,2-1.1
		c1.3-0.2,2.6-0.2,3.9-0.1C262.2,42.2,262.9,42.5,263.5,43.1z"/>
	<path class="st113" d="M300.3,44.3c-3,0.3-6,0.5-9,0.8c-1.4,0.1-2.7,0.2-2.9-1.7c4.3,0,8.6,0,12.9,0C301,43.7,300.6,44,300.3,44.3z
		"/>
	<path class="st112" d="M345.4,35.2c-1.6-0.8-2.8-1.4-2.8-2.9c0-0.8,0.8-1,1.4-0.7C345.4,32.3,346.2,33.3,345.4,35.2z"/>
	<path class="st114" d="M270.2,58.3c3-0.8,6.5,1.7,9.3-1.1c-0.3,5.1-1.1,10.4,3.1,14.6c0.4,1.6-0.8,1.7-1.5,1.2
		c-2-1.2-4.4-0.9-6.4-2C271.5,67.4,271.6,62.5,270.2,58.3z"/>
	<path class="st115" d="M274.7,71c2.9-2.6,5.2,1.5,7.9,0.7c1.8,1.2,3.2,2.7,4.4,4.6C281.8,77.5,278.6,76.1,274.7,71z"/>
	<path class="st116" d="M251.5,43.2c-1.6,0-3.2-0.1-4.8-0.1c0.5-5,2.7-9.6,4.2-14.4c1.7-1.4,0.3-5.2,3.9-5.1c1.9,3.4,0.4,7,0.6,10.5
		c0.1,2.8-0.7,5.4-2.1,7.8C252.8,42.5,252.1,42.8,251.5,43.2z"/>
	<path class="st117" d="M217.8,45.3c0-0.4,0-0.7,0-1.1c4.9,0.3,9.9,0.6,14.8,1c1.7,1.9,1.6,3.9,0.1,5.9c-3.4,0-6.7,0-10.1,0
		C222.5,47.9,220.4,46.4,217.8,45.3z"/>
	<path class="st118" d="M232.7,51.1c0-2-0.1-3.9-0.1-5.9c5.1-3,6.7,2.4,10,4c0.5,0.1,0.9,0.4,1,1c-1.4,1.8-3.3,0.7-5,1.1
		C236.6,51.2,234.7,51.1,232.7,51.1z"/>
	<path class="st119" d="M229.6,43.1c0.3-0.3,0.7-0.6,1-0.9c3.6-3.5,3.7-8.6,5.9-12.7c1.3-2.4,2.4-5,4.1-7.1c3.9,1.3,0.7,3.7,0.3,4.9
		c-1.9,5.2-4.4,10.2-5.2,15.8C233.6,43.1,231.6,43.1,229.6,43.1z"/>
	<path class="st74" d="M222.6,43c1.9-5.4,3.9-10.7,5.7-16.1c0.6-2,1.4-3.6,3.4-4.5c-2.3,6.9-4.6,13.8-6.9,20.7
		C224,43.1,223.3,43,222.6,43z"/>
	<path class="st120" d="M251.6,29.4c-1.2,4.7-2.2,9.5-4.9,13.7c-1.7,0-3.5,0-5.2,0c0.3-0.3,0.6-0.7,0.9-1c2.7-2.8,3.6-6.5,4.9-10
		c0.7-1.9,1.3-4.2,4.2-3.6c0.1,0,0.1,0.2,0.1,0.4C251.7,29.1,251.6,29.2,251.6,29.4z"/>
	<path class="st121" d="M251.5,43.2c0.3-0.3,0.7-0.6,1-0.9c2.7-1.9,3.2-5.1,4.7-7.7c1.1-1.8,1.3-4.6,4.4-4.3c1,1.7,0.3,3.4-0.3,5
		c-1.2,2.6-1.8,5.6-3.8,7.8c-0.7,0.1-1.4,0.1-2.1,0.2C254.2,43.2,252.8,43.2,251.5,43.2z"/>
	<path class="st122" d="M246.5,47.3c0.6-2.7,2.5-2.3,4.2-1.6c1,0.4,1.1,1.9,0.5,2.6c-1.4,1.5-3.2,1.5-4.7-0.1
		c-0.3-0.2-0.3-0.4-0.3-0.6C246.3,47.4,246.4,47.3,246.5,47.3z"/>
	<path class="st123" d="M246.5,47.3c0,0.3,0,0.6,0,0.9c-0.9,0.7-1.4,2.1-2.9,2c-0.3-0.3-0.7-0.7-1-1
		C242.5,45.7,244.2,45.8,246.5,47.3z"/>
	<path class="st124" d="M271.6,46.3c0.6,0.1,1.2,0.2,1.8,0.3c0.1,0.3,0.3,0.5,0.6,0.6c0.5,1.8-0.3,2.8-2,3c-0.9,0.1-2,0.2-2.4-1
		C269.1,47.6,271,47.3,271.6,46.3z"/>
	<path class="st125" d="M217.8,45.3c5.5,0,6.3,0.9,4.8,5.7C217.6,52,217.4,48.9,217.8,45.3z"/>
	<path class="st126" d="M261.6,30.3c-2.7,2-3.4,5.3-4.7,8.2c-0.9,1.9-1.5,4.1-4.3,3.8c0.3-2.8,2.2-5.1,1.9-8
		c0.7-3.2,1.2-6.6,4.1-8.8c0.5,0.8,1.1,1.5,1.6,2.3c2.6-1,1.3-5.9,5.4-5.4c-0.3,2.9-1.4,5.6-3,8C262.2,30.8,261.9,30.8,261.6,30.3z"
		/>
	<path class="st127" d="M251.6,29.4c-4.5,0.5-2.9,4.8-4.4,7.2c-1.3,2.1-1.6,5-4.7,5.5c-0.1-4.2,3.2-7.5,3.1-11.7
		c0.4-2.6,0.5-5.3,3-7c1,0.6,1.9,4.7,3.1,0.1c0.4-1.5,1.5-2,2.9-2.1c0.7,0.7,2.1,1.3,0.1,2.1C252.8,25,253.8,28,251.6,29.4z"/>
	<path class="st128" d="M240.6,22.4c-1.6,5.9-5.2,11-6.3,17c-0.3,1.7-1.8,2.7-3.7,2.8C232.9,35.1,233.2,27,240.6,22.4z"/>
	<path class="st129" d="M254.6,23.5c0.9-0.7,0-1.4-0.1-2.1c2.9-0.2,5.8-0.4,4,4c-1.4,2.9-2.7,5.9-4.1,8.8
		C254.5,30.7,254.6,27.1,254.6,23.5z"/>
	<path class="st130" d="M248.6,23.4c-1,2.3-2,4.6-3,7c-0.5-2.4-1.1-4.8-1.6-7.3c-0.4-1.8,1.1-1.7,2.2-1.7
		C247.4,21.5,249.6,20.7,248.6,23.4z"/>
	<path class="st131" d="M261.6,30.3c0.3,0,0.6,0,0.9,0c1.4,2.1,0,5.4,2.9,6.8c-0.7,1.9-1.3,3.9-2,5.8c-0.6,0-1.3,0-1.9,0
		c-4-2.1-0.1-5.2-0.9-7.8C260.9,33.7,261.3,32,261.6,30.3z"/>
	<path class="st132" d="M260.6,35.3c2.6,2.3-1.6,5.4,0.9,7.8c-1.3,0-2.6,0-3.9,0C257.7,40.1,259,37.7,260.6,35.3z"/>
</g>
</svg>
