<?xml version="1.0" encoding="utf-8"?>
<!-- Generator: Adobe Illustrator 25.0.0, SVG Export Plug-In . SVG Version: 6.00 Build 0)  -->
<svg version="1.1" xmlns="http://www.w3.org/2000/svg" xmlns:xlink="http://www.w3.org/1999/xlink" x="0px" y="0px"
	 viewBox="0 0 735 191" style="enable-background:new 0 0 735 191;" xml:space="preserve">
<style type="text/css">
	.st0{display:none;}
	.st1{display:inline;stroke:#FFFFFF;stroke-miterlimit:10;}
	.st2{fill:#FEFDFD;}
	.st3{fill:#0A0D0F;}
	.st4{fill:#A8803D;}
	.st5{fill:#1B1B19;}
	.st6{fill:#373F40;}
	.st7{fill:#FCFCFC;}
	.st8{fill:#5E6161;}
	.st9{fill:#585956;}
	.st10{fill:#7D8984;}
	.st11{fill:#2B2C29;}
	.st12{fill:#171C1F;}
	.st13{fill:#090808;}
	.st14{fill:#2B2D2E;}
	.st15{fill:#161615;}
	.st16{fill:#2B2B28;}
	.st17{fill:#141413;}
	.st18{fill:#090A0A;}
	.st19{fill:#292B28;}
	.st20{fill:#10100F;}
	.st21{fill:#030304;}
	.st22{fill:#31312D;}
	.st23{fill:#565857;}
	.st24{fill:#3B332F;}
	.st25{fill:#34332F;}
	.st26{fill:#36332F;}
	.st27{fill:#AA823E;}
	.st28{fill:#AC833F;}
	.st29{fill:#1D1D1B;}
	.st30{fill:#070807;}
	.st31{fill:#3E221D;}
	.st32{fill:#31312E;}
	.st33{fill:#30110E;}
	.st34{fill:#212220;}
	.st35{fill:#2C1B17;}
	.st36{fill:#0E0F0F;}
	.st37{fill:#170A08;}
	.st38{fill:#676863;}
	.st39{fill:#504F48;}
	.st40{fill:#640403;}
	.st41{fill:#615552;}
	.st42{fill:#554142;}
	.st43{fill:#111619;}
	.st44{fill:#ADAFB2;}
	.st45{fill:#21272A;}
	.st46{fill:#2F2E2B;}
	.st47{fill:#302F2B;}
	.st48{fill:#A47D3B;}
	.st49{fill:#150D09;}
	.st50{fill:#010101;}
	.st51{fill:#2F3538;}
	.st52{fill:#020202;}
	.st53{fill:#131312;}
	.st54{fill:#283135;}
	.st55{fill:#4E595D;}
	.st56{fill:#1A1A18;}
	.st57{fill:#0A0A09;}
	.st58{fill:#595B57;}
	.st59{fill:#5A5951;}
	.st60{fill:#30302C;}
	.st61{fill:#3B0D0B;}
	.st62{fill:#585851;}
	.st63{fill:#50504B;}
	.st64{fill:#64645E;}
	.st65{fill:#272622;}
	.st66{fill:#334841;}
	.st67{fill:#161614;}
	.st68{fill:#E4E2D5;}
	.st69{fill:#2F2F2B;}
	.st70{fill:#280D0B;}
	.st71{fill:#B58B42;}
	.st72{fill:#070706;}
	.st73{fill:#080807;}
	.st74{fill:#21160E;}
	.st75{fill:#23160D;}
	.st76{fill:#A07939;}
	.st77{fill:#F6F4F5;}
	.st78{fill:#F6F5F5;}
	.st79{fill:#F4F2F3;}
	.st80{fill:#F3F0F1;}
	.st81{fill:#20090A;}
	.st82{fill:#B11B1A;}
	.st83{fill:#4E3334;}
	.st84{fill:#584144;}
	.st85{fill:#670504;}
	.st86{fill:#5C4649;}
	.st87{fill:#5B4547;}
	.st88{fill:#610403;}
	.st89{fill:#5D0403;}
	.st90{fill:#B01211;}
	.st91{fill:#533B3D;}
	.st92{fill:#C91A18;}
	.st93{fill:#B21312;}
	.st94{fill:#871110;}
	.st95{fill:#5B4548;}
	.st96{fill:#891312;}
	.st97{fill:#4E0D0B;}
	.st98{fill:#D11E1C;}
	.st99{fill:#85100F;}
	.st100{fill:#620705;}
	.st101{fill:#594546;}
	.st102{fill:#770504;}
	.st103{fill:#442926;}
	.st104{fill:#482D2B;}
	.st105{fill:#040506;}
	.st106{fill:#23292D;}
	.st107{fill:#F6F6F6;}
	.st108{fill:#474F4F;}
	.st109{fill:#070605;}
	.st110{fill:#060605;}
	.st111{fill:#060504;}
	.st112{fill:#60615C;}
	.st113{fill:#170F0A;}
	.st114{fill:#2F2F2C;}
	.st115{fill:#0B0B0A;}
	.st116{fill:#70716C;}
	.st117{fill:#A35722;}
	.st118{fill:#45443E;}
	.st119{fill:#D57225;}
	.st120{fill:#0D0D0C;}
	.st121{fill:#63645F;}
	.st122{fill:#797A75;}
	.st123{fill:#070606;}
	.st124{fill:#050505;}
	.st125{fill:#060606;}
	.st126{fill:#151513;}
	.st127{fill:#3F3D38;}
	.st128{fill:#565448;}
	.st129{fill:#1D1D1A;}
	.st130{fill:#132322;}
	.st131{fill:#040101;}
	.st132{fill:#6E6F6A;}
	.st133{fill:#111110;}
	.st134{fill:#5A5A55;}
	.st135{fill:#48453F;}
	.st136{fill:#53534F;}
	.st137{fill:#81847F;}
	.st138{fill:#646560;}
	.st139{fill:#42413B;}
	.st140{fill:#5B5C57;}
	.st141{fill:#5E5D57;}
	.st142{fill:#070707;}
	.st143{fill:#82837E;}
	.st144{fill:#7C7E79;}
	.st145{fill:#989A95;}
	.st146{fill:#9A9C98;}
	.st147{fill:#090908;}
	.st148{fill:#72736E;}
	.st149{fill:#0C0C0B;}
	.st150{fill:#0B0B0B;}
	.st151{fill:#190F0C;}
	.st152{fill:#0A0A0A;}
	.st153{fill:#585853;}
	.st154{fill:#62625C;}
	.st155{fill:#838581;}
	.st156{fill:#54544E;}
	.st157{fill:#666762;}
	.st158{fill:#594244;}
	.st159{fill:#594245;}
	.st160{fill:#553E40;}
	.st161{fill:#574144;}
	.st162{fill:#B41412;}
	.st163{fill:#CE1B19;}
	.st164{fill:#F0EFEF;}
	.st165{fill:#574143;}
	.st166{fill:#5F4E4F;}
	.st167{fill:#72726B;}
	.st168{fill:#D7D5C9;}
	.st169{fill:#232321;}
	.st170{fill:#E6E5DE;}
	.st171{fill:#42685C;}
	.st172{fill:#55B8B0;}
	.st173{fill:#58564D;}
	.st174{fill:#C1BEB0;}
	.st175{fill:#48463F;}
	.st176{fill:#A27B3A;}
	.st177{fill:#6F5835;}
	.st178{fill:#0A0000;}
	.st179{fill:#664724;}
	.st180{fill:#6B6C67;}
	.st181{fill:#C6C4B7;}
	.st182{fill:#080808;}
	.st183{fill:#191917;}
	.st184{fill:#3F3D37;}
	.st185{fill:#272724;}
	.st186{fill:#CBCBC4;}
	.st187{fill:#262623;}
	.st188{fill:#424340;}
</style>
<g id="Camada_2" class="st0">
	<rect x="-358" y="-212" class="st1" width="1359" height="555"/>
</g>
<g id="Camada_1">
	<g>
		<path class="st2" d="M734.9,51.1c0,8,0,16,0,24c-0.4,0.3-0.8,0.6-1.3,0.9c-1.7,0.6-3.5,0.4-5.2,0.4c-0.9,0-1.8,0-2.8,0
			c-0.9,0.1-1.7,0.2-2.5,0.6c-1.2,0.7-2.2,1.4-3.3,2.2c-1.8,1.2-3.7,2.2-6,1.9c-4.7-1.9-9.4-3.9-14-6.2c-0.6-0.4-1.1-1-1.5-1.6
			s-0.7-1.3-1.1-1.9c-4-2.1-8.5,0-12.5-1.4c-1.4-0.6-2.2-1.7-2.7-3.1c-0.5-1.6-0.5-3.2-0.4-4.9c0.2-3.9,2.1-6,6.2-6.2
			c3.1-0.2,6.3,0.7,9.2-0.8c0.5-0.6,0.8-1.3,1.2-1.9c0.4-0.6,1-1.1,1.6-1.5c5.1-1.7,9.3-5.2,14.7-6.3c3.3,0.1,5.4,2.6,8.1,3.9
			c0.8,0.4,1.6,0.7,2.5,0.8c0.5,0,0.9,0,1.3,0c0.5,0,0.9,0,1.4,0c1.9,0.1,3.9-0.2,5.8,0.4C734.1,50.5,734.5,50.7,734.9,51.1z"/>
		<path class="st3" d="M0.1,109c0-1.7,0-3.3,0-5c0.9-1.1,0.3-2.6,0.9-3.7c0.5-11.2-0.3-22.4,0.5-33.7c2.8-1.9,5.2-5,9.1-2.4
			c1.7,3.5,0.3,7.3,1.3,10.9c2,5.4,4.8,10.5,7.5,15.6c1.1,2.1,2.1,4.2,0.9,6.9c3.9-2.7,7.6-1.4,11.3-0.7c0,2.8,0,5.5,0,8.3
			c0,1.3-0.2,2.3-1.8,2.1c-1.1-0.2-2.2-0.7-3.4-0.9c-2.2-0.5-4.3-1-4.8,2.3c-0.1,1-1.2,1-2.1,1C13,109.2,6.5,110.1,0.1,109z"/>
		<path class="st4" d="M734.9,107c-80.1,0-160.2,0-240.2-0.1c-32.3,0-64.6,0-96.9,0c-1.5,0-3-0.1-4.5-0.2c0.2-1.7,1.6-1.7,2.9-2.1
			c3.3-0.4,6.7-0.2,10-0.2c77.6,0,155.2,0,232.8,0c9.3,0,9.3,0,9.4-9.3c0-5-0.4-10,0.3-15c2.8-4.3,7.6-4.9,12.8-1.6
			c1.9,5.6,0.8,11.4,0.9,17.2c0.2,8.8,0.1,8.8,8.6,8.9c1.3,0,2.6,0.1,4,0.1c4-0.2,8.1-0.1,12.1,0c11.2-0.1,22.4-0.2,33.6,0
			c1.4,0.1,2.8,0.1,4.2,0c1,0,2-0.2,3.1-0.2c1.9,0.3,3.9,0.2,5.8,0.7c0.4,0.2,0.8,0.5,1.2,0.8C734.9,106.3,734.9,106.7,734.9,107z"
			/>
		<path class="st5" d="M29.1,106c1.6,0.7,2,0,1.9-1.5c-0.1-2.8,0-5.6,0-8.4c2.8-3.4,6.3-3.5,10.8-0.5c1.4,3.5,4.5,2.8,7.2,2.8
			c16.6,0.1,33.2,0,49.7,0.1c2.5,0,5-0.2,7.4,0.7c2.3,1.4,1.4,3.1,0.3,4.6c-2.5,3.3-5.4,5.9-9.9,5.6c-12.7-0.9-25.4,0.2-38.1,0.1
			c-2.9,0-5.9-0.3-8.4,1.6c-1.5-0.6-3-1.5-4.6-1.9c-4.3-1.3-6.1-3.9-5.3-8.5c0.5-3,0.2-5.2-4.2-5c-4,0.1-4.1,1.8-4.1,4.8
			c0,9.6-0.1,9.6-9.8,9.6c-7.3,0-14.7,0-22,0c0-0.3,0-0.7,0-1c7,0,14,0,20.9-0.1c1.8-0.9,3.7-0.1,5.4-0.5c-0.5-0.2-1.1,0.1-1.7,0
			c-1-0.2-2.6,0.5-2.4-1.4c0.1-1.3,1.3-1.7,2.6-1.6C26.3,105.7,27.8,105.1,29.1,106z"/>
		<path class="st6" d="M0.1,33.1c8.8,0,17.6,0.1,26.4,0.2c1.6,0,3.3-0.7,4.7,0.7c0,0.2,0,0.5,0,0.7c-0.7,3.5-2.2,5.8-6.2,6.4
			c-4.7,0.7-4.5-3.2-6.1-5.5c-0.7-0.1-1.3-0.2-2-0.2c-3.1,0-6.2,0.2-9.2,0c-2.9-0.2-5,0.8-6.2,3.5c-0.4,0.4-0.9,0.5-1.4,0.1
			C0.1,37.1,0.1,35.1,0.1,33.1z"/>
		<path class="st7" d="M0.1,39.1c0.3-0.1,0.6,0,0.9,0.2c1.4,1.2,1.4,2.9,1.5,4.5c0.1,19.1-1.2,38.3-1.2,57.4c-0.2,1,0.1,2.3-1.1,2.8
			C0.1,82.4,0.1,60.7,0.1,39.1z"/>
		<path class="st8" d="M734.9,51.1c-0.3,0-0.7-0.1-1-0.1c-0.7-0.7-1.2-1.6-1.3-2.6c-0.5-8.5-0.5-17.1,0-25.6c0.1-1,0.6-1.9,1.3-2.6
			c0.3,0,0.7,0,1-0.1C734.9,30.4,734.9,40.7,734.9,51.1z"/>
		<path class="st9" d="M734.9,106c-0.4,0-0.9,0-1.3-0.1c-1.1-1.4-1.2-3-1.3-4.7c-0.1-6.9-0.1-13.9,0-20.8c0-1.8,0-3.7,1.5-5.1
			c0.4-0.1,0.7-0.2,1.1-0.3C734.9,85.4,734.9,95.7,734.9,106z"/>
		<path class="st10" d="M416,0.1c0.9,6.6-1,13.3,1.1,19.9c-0.6,0.6-1.3,0.7-2,0.4c-0.4-0.4-0.5-0.8-0.5-1.3c0.1-6.3,0.3-12.6,0.4-19
			C415.3,0.1,415.6,0.1,416,0.1z"/>
		<path class="st11" d="M50,111c1.3-1.6-1.4-1-0.9-3.1c10,0,20.4,0.6,30.6-0.3c5.4-0.5,10.5,0.5,15.7,0.5c6.2,0,9.3-3.3,11.7-8.1
			c3-1.8,3.8-4.4,3.7-7.9c-0.4-7.7,0.4-15.5-0.8-23.1c3.9-1.1,5,1.8,5.1,4.3c0.7,10.4,1.3,20.9-0.8,31.2c-0.6,3.1-4,4.5-4.1,7.8
			c-0.9,5.7,1.8,8.9,6.8,11.3c20.9,10.1,42,20.1,62.8,30.3c1.8,0.9,3.8,1.1,5.7,1.9c4.9,4.5,4.9,4.5,2,10.6c-2.1,4.4-1.4,6.4,3,8.1
			c7.7,3,14.6,7.8,22.7,9.9c1.3,0.4,2.4,1.1,3,2.4c-0.1,4.6-2.7,2.1-4.3,1.3c-14.8-6.8-29.6-13.5-44.3-20.5
			c-38.3-18.3-76.6-36.8-114.9-55.2C51.6,112.1,50.8,111.6,50,111z"/>
		<path class="st12" d="M226.8,159.9c-4.7,8.3-9.2,16.7-10.7,26.3c-8-3.6-16.3-6.6-24.1-10.7c-6.1-3.2-6.7-4.3-3.6-10.2
			c1.5-2.9,2.5-5.5-1.1-7.7c-1.2-0.7-1.4-2.2-1.8-3.5c0.9-4,3.1-7.2,5.9-10c8.4-6.8,12.9-15.8,15.2-26.1c0.1-2.4-0.3-4.8,0.9-7.1
			c1.4-1.6,3.3-2.1,5.4-2.2c5.8-0.2,11.6-0.2,17.5,0c5,0.2,6.5,2.2,6.2,7.4c-0.2,2.3-0.3,4.6,0.3,6.9c0.3,1.1,0.8,2.5,0.3,3.4
			c-3.2,7-1.7,15.3-6,22.1C229,152,226.7,155.5,226.8,159.9z"/>
		<path class="st13" d="M372,188.9c-9.6,0.1-19.2,0.3-28.8,0.3c-14.3,0.1-28.5-0.1-42.8,0.1c-2.7,0-3.8-0.7-3.7-3.5
			c0.2-6.6,0.2-13.2,0.3-19.9c4.6-2.5,9.3-1.9,13.9-0.2c2.5,0.9,5,1.9,7.7,1.7c9.9-0.6,19.8,0.7,29.8,0.3c6.6-0.3,12.4-3.6,18.9-3.6
			c1.5,0,2-1.5,2.8-2.6c0.5-0.8,0.8-2.5,2.5-1.2C372.3,169.8,373,179.4,372,188.9z"/>
		<path class="st14" d="M298,150.9c0-6.3,0-12.6,0-18.9c0.2-0.1,0.5-0.1,0.7-0.2c0.6,0.3-0.1-0.1,0.4,0.2c4.6,2.8,22.8,3.2,26.7,0.6
			c0.5-0.2,1-0.3,1.6-0.3c5.2,0.4,10.3,0.4,15.5,0c0.6,0,1.1,0.1,1.6,0.4c2.5,2.1,5.4,1.9,8.4,1.4c6-0.9,12.1-1,18.1-0.2
			c0,5.3,0,10.7,0,16c-1.8,1.7-4,1.4-6.2,1.4c-22,0-43.9,0-65.9,0C298.6,151.2,298.3,151.1,298,150.9z"/>
		<path class="st15" d="M371.7,160c-0.2,5.4-3.2,6.2-8,6.1c-4.9-0.1-9.3,2.9-14.6,3.2c-8.9,0.4-17.8-0.6-26.7-0.4
			c-4.5,0.1-8.8,0.4-13.3-2.3c-3.1-1.9-8.1-0.5-12.2-0.6c-0.5-4-0.4-8-0.1-11.9c1.6-1.5,3.6-1.4,5.6-1.4c21.3,0,42.6-0.1,63.8,0
			C372.7,152.6,373.3,153.7,371.7,160z"/>
		<path class="st16" d="M297.9,132c-17,0-34.1,0-51.1-0.2c-2.4,0-4,1-5.7,2.4c-1.7,0.6-2,2.6-3.3,3.6c-1.1,0.9-2.4,1.3-3.6,0.3
			c-1.1-0.9-0.9-2.2-0.1-3.1c3.8-3.8,2.6-8.6,2.9-13.1c0.7-3.4,1.1-6.9-0.2-10.3c-1.4-2.3-3.5-2.6-6-2.7c-8.9-0.1-17.8,0-26.7,0
			c-1.6-0.3-2.9-1.3-4.5-1.5c-5-0.5-10.1,0.7-15.1-0.8c-2-1.8-0.9-3,1.1-3.5c2.7-0.7,5.5-1,8.4-1.1c24.1-0.6,48.1,0.5,72.2-0.1
			c7.6-0.2,15.3-0.2,22.9,0.2c0.7,0,1.3,0,2,0.1c2.1,0.4,4.2,1.2,4.2,3.5c0,2.5-2.5,2.2-4.2,2.4c-0.8,0.1-1.7,0-2.5,0
			c-9.3,0.5-18.6-0.1-27.9,0.5c-6.7-1-13.5,0.5-20.2-1.4c1.2,0.3,3.3,0.1,3.2,1.6c-0.3,5.7,5.3,8.4,6.3,13.5c1,4.7,3.3,5.3,10.4,4.8
			c4.9,0.4,9.9-0.1,14.8,0.4c7,0.7,11.9-1.2,13.5-8.6c4.3,0,4.4,3.6,4.4,6.2c0,2.9,0.2,4.8,3.6,4.9c0.8,0,1.4,0.7,1.3,1.7L297.9,132
			z"/>
		<path class="st17" d="M370.9,134c-1.6,1.1-3.4,1-5.2,1c-4.9,0.1-9.8-0.3-14.8,0.8c-2.5,0.6-5.8,0.9-6.9-2.8c2.2-1.5,4.7,0.2,7-0.7
			c-1.8,0-3.7,0.9-5.2-0.8c0.3-2.3,2.1-2.8,3.9-3.3c0.5,0,1,0,1.5,0.1c5.6,1.1,11.3-0.2,16.8,1c1,0.2,2-0.5,2.6-1.3
			c5.9-7.9,13.1-14.6,18.8-22.7c0.7-5.9,0.1-11.8,0.3-17.7c0.1-2.1-0.3-4.3,0.8-6.3c1-1.3,2.1-0.6,3.2-0.1c2.5,2.4,1.6,5.5,1.8,8.4
			c0,1.2,0,2.3,0,3.5c-0.3,4.2,0.8,8.5-0.5,12.7c-0.5,0.3-1.1,0.5-1.6,0.8C385.3,115.4,377.6,124.3,370.9,134z"/>
		<path class="st18" d="M203.9,108c9.6-0.9,19.1,0.1,28.7-0.1c2.6-0.1,4.5,0.8,5.6,3.2c0.6,3.6,0.7,7.2-0.1,10.8
			c-0.3,4.8,1.3,9.9-3.1,13.8c-0.7,0.6-0.9,1.5,0.1,2c0.8,0.4,1.5-0.1,2.2-0.6c1.3-1,0.9-4.2,3.9-2.9c-4,9-9.9,17-14.3,25.7
			c-2.1-3.7,0.3-6.7,1.7-9.7c1-2.2,2.7-4.2,3.9-6.3c0.6-1,1.5-2.8,1.2-3.1c-4-3.9-0.4-6.5,1.4-9.3c1.4-2.2,1.2-4.6,0.8-6.7
			c-0.6-3.5-1.2-6.8-0.2-10.3c0.7-2.6-1.1-4.4-3.5-4.3c-8.1,0.2-16.3-1.2-24.3,1c-1.1,0.5-2,1.8-3.4,0.6
			C203.7,110.6,202.9,109.4,203.9,108z"/>
		<path class="st19" d="M371.7,160c1.2-4.8-0.7-6.2-5.6-6.2c-23.1,0.3-46.2,0.1-69.3,0.2c-0.6-1.4,0.4-2.2,1.2-3.1l0.4,0.2
			c21.8-0.4,43.5-0.1,65.3-0.2c2.5,0,5,0.2,7.5-0.3c1.3,1,1.7,2.3,1.7,3.9c0,10.9,0,21.9,0,32.8c0,0.7-0.1,1.3-0.9,1.5
			C371.9,179.3,371.8,169.7,371.7,160z"/>
		<path class="st20" d="M371.1,150.7c-1,1.6-2.6,1.2-4,1.2c-22,0-44,0-66.1,0c-1,0-2,0.2-2.7-0.8c1.4-1.6,3.4-1.2,5.1-1.2
			c22.5,0,44.9,0,67.4,0C371.1,150.2,371.2,150.4,371.1,150.7z"/>
		<path class="st21" d="M186.3,154c0.5,0.9,0.7,2.1,1.4,2.5c4.8,2.9,4,6.7,1.4,10.2c-2.9,3.8-0.9,5.6,2.2,7.3
			c7.1,4,14.8,6.7,22.3,9.8c1.4,0.6,2.4,0.9,2.7,2.4c0.2,0.3,0.1,0.5-0.2,0.7c-9.6-2.7-18-8.1-27.2-11.6c-4.2-1.6-4.3-4.4-3.4-7.9
			c0.3-1.3,0.1-10.4-0.4-11.4C184.6,154.8,185.2,154.2,186.3,154z"/>
		<path class="st22" d="M109.1,20.1c17.1,0,34.1,0,51.2,0c1.9,0,4-0.5,5.7,0.9c0.7,0.7,0.7,1.5,0.3,2.3c-0.8,1-1.8,1.4-3.1,0.9
			c-2-1-4.2-0.7-6.4-0.7c-15.5,0-31-0.5-46.4,0.1c-21.7,0.8-43.3,3-64.6,8c-3.4,0.8-5.4,2.6-6.7,5.9c-1.5,4-1.4,8.7-5,11.7
			c-0.7,0.2-1.2,0-1.6-0.6c-1.4-5.3-1.4-10.6,0.3-15.9c2-3,5.4-2.9,8.4-3.6c21.2-5.1,42.7-7.4,64.4-8.7
			C106.8,20.4,107.9,20.2,109.1,20.1z"/>
		<path class="st23" d="M32.9,32.8c0.1,5.5,0.2,10.9,0.3,16.4c0.7,1.2,0.9,2.2-0.4,3.1c-3.6-4.1-2.5-9.2-2.6-14
			c0-1.2,0.5-2.6,0.6-3.9c0.1-0.2,0.3-0.3,0.5-0.4C31.8,33.6,32.3,33.2,32.9,32.8z"/>
		<path class="st24" d="M393,20.2c7.3-0.1,14.5-0.2,21.8-0.3c0.8,0,1.6,0.1,2.3,0.1c76.2,0,152.4,0,228.6,0c1.3,0,2.6,0.2,4,0.2
			c1,0.7,1.5,1.8,1.5,3c0.2,8.1,0.9,16.1-0.5,24.2c-0.3,0.6-0.7,1-1.2,1.3c-0.8,0.3-1.6,0.6-2.4,0.4c-19.2-4-38.7-2.1-58.1-2.5
			c-3.8-0.2-7.5-0.1-11.3-0.1c-2.9-0.3-5.9,1.6-8.6-0.7c-1.2-2.2,0.5-3,1.9-3.8c1.8-1,3.1-2.5,4.5-4c-0.3-0.5,2.4,0,0.4-1.2
			c-0.2-0.1-0.2-0.6-0.1-0.9c1.2-2,3-3,5.2-3.6c2.2,0.1,2.4,1.2,1.8,3c-1.2,3.2,0.9,4.9,3.4,5.6c7,1.7,13.9,2.6,20.1-2.5
			c2.9-2.4,6.4-1.6,9.6-1.3c2.8,0.2-0.4-1.5,0.7-1.7c1-2.5,3-3.6,5.4-4.4c4.1-0.7,1.7,3,2.8,4.5c2.6-1.3,5-1.1,7.5,0.6
			c2.9,2,6.2,0.3,9.2-0.2c1.9-0.3,4.6,1.2,5.6-0.8c1.3-2.7,0.7-5.9,0.3-8.8c-0.4-2.7-2.8-2.5-4.7-2.5c-5.7,0-11.3,0-17,0
			c-72.9-0.1-145.7,0-218.6,0c-3.8,0-8.5-1-9,5c-0.8,2.3,0.5,4.5,0.3,6.8c-1.4,1.4-2.7,3-4.8,1C392.1,31.1,392.3,25.6,393,20.2z"/>
		<path class="st25" d="M722.7,50.4c-3-0.9-4.8-3.9-7.9-4.5c-9.1,1.6-18.3,1.6-27.4,1.6c-0.6-0.2-1-0.6-1.3-1.2
			c-1.5-7.6-0.5-15.3-0.5-23c0-1.2,0.6-2.2,1.5-3c12.3,0,24.6-0.1,36.8-0.1c0.8,9.4,0.4,18.8,0.1,28.2
			C723.9,49.2,723.4,49.8,722.7,50.4z"/>
		<path class="st26" d="M661,20.3c4.3,0,8.7-0.1,13-0.1c1.2,1.1,1.8,2.4,1.8,4c0.2,7.4,1.7,14.9-1.6,22.1c-4.1,1.6-8.6,1.1-12.8,2.1
			c-0.6,0.1-1.1-0.6-1.4-1.2c-1.4-7.9-0.4-15.8-0.5-23.8C659.5,22.2,660.1,21.1,661,20.3z"/>
		<path class="st27" d="M673.9,46.1c0.9-8.7,1.2-17.3,0.1-26c4.4,0,8.7,0.1,13.1,0.1c0,9,0,17.9,0,26.9c-3,3-10.7,3.5-13.3,0.8
			C673.4,47.5,673.5,46.7,673.9,46.1z"/>
		<path class="st28" d="M661,20.3c-0.1,9.2-0.1,18.5-0.2,27.7c-3.6,2.3-7.3,2.3-10.9,0.1c-0.1-9.3-0.2-18.5-0.3-27.8
			C653.4,20.2,657.2,20.3,661,20.3z"/>
		<path class="st29" d="M733.8,20.2c0,10.3,0,20.5,0,30.8c-2.3,0-4.6,0-6.9,0c-1.3-9.7,0-19.5-0.5-27.7c-0.5,8.1,0.7,17.9-0.5,27.6
			c-0.3,0-0.7,0-1,0c-1-1.1-1-2.4-1-3.7c0.5-9-1.2-18.1,1-27C727.9,20.2,730.8,20.2,733.8,20.2z"/>
		<path class="st30" d="M724.9,20.2c0,10.3,0,20.5,0,30.8c-0.8,0.3-1.6,0.3-2.1-0.6c0.1-7.6,0.2-15.3,0.2-22.9c0-2.5,0.2-5,1-7.3
			C724.2,20.2,724.5,20.2,724.9,20.2z"/>
		<path class="st31" d="M661.2,79.1c-4-1.2-8-2.7-11.6,0.8c-6.1,1.6-12.3,2.7-18.6,2.7c-21.1,0-42.1,0-63.2,0
			c-48.8,0.1-97.7,0-146.5,0.1c-2,0-4-0.1-5.9-0.6c-0.6-0.2-1.1-0.5-1.5-1c0.1-1.8,1.5-1.5,2.5-1.5c5,0,10-0.1,15,0
			c-4.7-0.1-9.5-0.1-14.2-0.1c-1.7,0-3.4-0.2-4.1,1.8c-2.9,1.7-6,1.3-9.1,0.6c-0.5-0.4-1.2-0.5-1.1-1.4c0-0.4,0.6-0.8,0.4-0.8
			c-7.1,2.2-12.1-3.2-18-5.1c-1.5-0.5-3.1-3.6-0.8-6c0.4-0.1,0.9-0.1,1.4-0.1c2.9,1.3,5.7,2.3,8.5-0.2c0.6-0.5,1.2-0.7,1.9-0.4
			c0.8,0.7,1.1,1.6,1.3,2.5c0.2,0.7-0.8,1.8-0.2,1.6c1.7-0.4,3.2,0.2,4.8,0.5c-0.3-0.2-0.7-0.2-0.9-0.4c-1.3-1.7-0.5-3.4,0.3-5
			c1.4-1,2.1,0.4,3,1c3.6,2.2,7.1,1.9,10.6-0.2c0.9-0.7,1.7-1.6,3-0.9c0.6,0,1.1,2.9,1.8,0.1c0.3-1.4-0.3-3.5,2.3-3
			c1.6,2.9,3.9,3.9,7.4,3.8c6.3-0.2,12.6-0.3,18.9,0c2.7,0.1,5.2-0.4,7.8-1.3c1.8,1.9,3.6,1.7,5.4,0.1c1,0.2,1.6,1,2.2,1.8
			c0.5,0.8,1,1.6,1.7,2.4c8.7,1.2,17.3,1.3,25.9-0.1c0.7-0.7,1.2-1.6,1.6-2.4c0.7-1,1.5-2,3-1.5c0.8,0.3,1.8,3.6,2.5,0
			c0.5-2.7-0.6-5.6,1.2-8c0.5-0.2,1-0.1,1.4,0.2c1.8,2.9,0.4,6.5,2.3,9.4c0.3,0.6,0.6,1.3,0.9,2c0.3,0.4,0.6,1,1,1
			c8,0.3,16.1,0.8,24.1-0.3c0.5-0.7,1.1-1.3,1.6-1.9c0.8-0.8,1.6-1.6,2.9-1.4c0.4,0.2,0.8,0.5,1.1,0.8c0.3,0.4,0.4,0.8,0.6,1.3
			c0.4,0.7-1.1,2.4,1.3,2.1c2.1-0.2,4.1-0.5,6.2-0.5c9,0.1,18.1,1.1,27.1-0.6c0.6-0.8,1.2-1.7,1.7-2.5c0.8-0.9,1.6-2,3.1-1.3
			c0.8,0.3,1.8,3.8,2.4-0.1c0.4-2.7-0.7-5.6,1.3-8c0.5-0.2,1-0.1,1.4,0.2c1.8,2.9,0.4,6.6,2.3,9.5c0.4,0.7,0.6,1.4,1,2
			c1.3,1.4,3.1,1.1,4.7,1c7-0.4,14.1,1,21.1-0.8c0.6-0.8,1.1-1.6,1.7-2.4c0.8-0.9,1.5-1.9,3-1.5c0.9,0.4,0.7,2.4,2.1,2
			c0.7-0.2,0.4-1.4,0.5-2.1c0-0.5,0-1,0-1.5c0.1-2.1-0.3-4.2,1-6.1c0.4-0.4,0.9-0.5,1.5-0.2c2.1,2.9,0.5,6.7,2.5,9.6
			c0.4,0.7,0.6,1.4,1,2c1.3,1.4,3.1,1.1,4.6,1c7.3-0.4,14.7,1.1,21.9-0.9c0.4-0.6,0.6-1.3,0.8-1.9c2.3-3.6,2-7.4,0.6-11.2
			c0.5-0.9-0.2-2.3,1-3c1.4-0.3,2.3,0.4,3,1.6c1.7,4.1-0.6,8.8,1.6,12.9c1.1,0,1.8-1,2.7-1.3c1.5,0,2.3,1,3.2,1.9
			c0.2,0.4,0.4,0.8,0.5,1.2c4.2,2.1,8.5,0.6,12.7,0.6c1.1-0.7,2.8,2,3.6-0.7c0.6-0.6,1.4-0.8,2.1-1.3c1-0.6,1-2,2-2.6
			c0.6,0.7,1.3,1.4,1.9,2.2c0.5,0.5,1.1,1.1,1.6,1.6c2.2,1.6,4.7,0.8,7,1c1.9,0.1,3.9-0.1,5.5,1.3c0.3,0.3,0.6,0.6,1,0.9
			c0.5,3.4-2.7,2.8-3.9,4.1c-2.6,2.8-5.2,2.2-8,2.2c-0.5-0.1-1-0.1-1.4-0.3c-4.1-0.7-8.2-1.3-12.1,0.8C669.8,82,665,84.4,661.2,79.1
			z"/>
		<path class="st32" d="M687,79c0.3,0,0.5,0,0.8,0c5,2.3,10.2,0.4,15.2,0.5c3.6,0.1,7.2-0.3,10.8,0.5c2.5,0.9,3.9-1.4,5.9-2.1
			c3.2,0.5,2.4,3.1,2.5,5c0.2,7.1-0.1,14.2,0.2,21.3c0,0.6-0.1,1.2-0.4,1.8c-11.7,0-23.4,0-35.1,0c-1-1-1.4-2.3-1.5-3.6
			c-0.3-6.6-0.1-13.2,0-19.8C685.5,81.2,685.9,79.9,687,79z"/>
		<path class="st33" d="M658.9,68.3c-0.7,0.9-1.4,1.8-2.1,2.8c-2-2.8-1.1-6-1.3-9.1c-0.2-2.1,0.5-4.4-1.6-5.9c-1-0.3-2-0.7-2.9-1
			c-0.3,0-0.5,0-0.8,0c-4.7-1.4-9.9-0.5-14.4-3c2.1-3.8,6-2.5,9.2-3.1c1.6-0.3,3.3,0.2,4.8-0.6l0.1-0.3c3.6,0,7.3,0,10.9-0.1
			c4-2.9,8.6-2.2,13.1-1.9c0.7,3.3,3.4,1.9,5.2,1.9c2.7,0,5.5,1,8-0.9c0.3,0,0.5,0,0.8-0.1c5.1-0.8,9.2,1,12.3,5.2
			c-0.4,0.3-0.8,0.6-1.2,0.9c-2.2,1.6-4.7,0.6-6.8,0.9c2,0.5,4.5-0.8,6.6,1.1c0.5,1.8-0.4,2.3-2,2.2c-2.6-0.1-5.3,0.2-7.9,0
			c-4.4-0.4-6.4,1.2-5.9,5.7c0.2,1.3,0,2.6,0,3.9c-0.3,1.4,0.5,3.1-1.3,4c-1.6-2.4-0.8-5.2-1.1-7.8c-0.2-1.8,0.5-3.7-0.9-5.2
			c-1.1-0.1-2.1,0.7-3.2,0.7c-1.7-0.1-3.4-0.3-4.8-1.4c-0.4-0.7-0.5-1.3-0.2-2.1c0.3-0.4,0.7-0.7,1.2-0.9c0,0,1,0.1,0.3-0.3
			c-4.9-2.5-11.6-0.1-13.1,4.7C658.9,61.9,659.6,65.1,658.9,68.3z"/>
		<path class="st34" d="M733.8,75.3c-0.1,10.2-0.1,20.4-0.2,30.6c-1.9-0.1-4,0.7-5.8-0.6c-2-1.2-2.3-3.1-2.3-5.2
			c-0.1-6.6-0.1-13.2,0-19.9c0-2,0.1-4,2.4-5C729.9,75.2,731.8,75.3,733.8,75.3z"/>
		<path class="st35" d="M713.9,80c-7.6,1.1-15.2,1.1-22.8,1c-1.5,0-2.5-0.6-3.2-2c3.2-0.2,7.3,1.4,7.5-4.3c2,0.1,1.1,1.9,2.1,2.6
			c0.8-1.2,1.6-2.3,2.5-3.5C704.8,75.5,709.4,77.6,713.9,80z"/>
		<path class="st36" d="M722,106c-0.1-0.3-0.1-0.6-0.1-0.9c-0.1-8,0-15.9,0-23.9c0-1.8,0-3.6,0.8-5.4c0.6-0.7,1.3-0.8,2.1-0.7
			c1.3,0.5,1.5,1.6,1.5,2.8c0,8.9,0,17.8,0,26.7c0,0.6-0.4,0.9-0.7,1.3C724.4,106,723.2,106,722,106z"/>
		<path class="st37" d="M700.2,52.2c-4-2-7.5-4.9-12.3-5.2c3.6-2.3,7.8-1.2,11.5-1.1c5.2,0.3,10.3-2.2,15.4-0.1
			C709.9,48,705.4,50.9,700.2,52.2z"/>
		<path class="st38" d="M722.7,75.9c0,8.7,0.1,17.4,0.1,26.1c0,1.1,0.2,2.3-0.9,3.2c-2.2-3.8-0.6-7.9-1.1-11.9
			c-0.6-5.1,1.4-10.3-1.1-15.3C720.4,76.8,721.5,76.3,722.7,75.9z"/>
		<path class="st9" d="M725.7,106c0-8.7,0.1-17.4,0.1-26.1c0-1.6,0.1-3.3-1-4.7c1,0,2.1,0,3.1,0c-1.5,1.8-1.1,4.1-1,6.1
			c0.4,8-1,16,0.9,23.9C727.1,105.5,726.4,105.8,725.7,106z"/>
		<path class="st39" d="M725.8,51c0-9.6,0-19.2,0-28.7c0.4,0,0.7,0,1.1,0c0,9.6,0,19.2,0,28.7C726.5,51,726.2,51,725.8,51z"/>
		<path class="st40" d="M684.9,71c0-0.6,0-1.2-0.1-1.9c4,0,8,0,12-0.1c1.3,0,2.3,0.1,2,1.8C694.2,72.7,689.5,72.6,684.9,71z"/>
		<path class="st41" d="M684.9,71c4.6,0,9.3-0.1,13.9-0.1c0.1,0.7,0.1,1.4,0.2,2.1c-3.4,0-6.8,0-10.2,0.1
			C687,73.2,685.6,72.8,684.9,71z"/>
		<path class="st42" d="M698.8,55.1c-4.1,0-8.2,0-12.3,0c0-0.5,0-1-0.1-1.5c4.1-1.2,8.4-0.4,12.6-0.5
			C698.9,53.8,698.8,54.4,698.8,55.1z"/>
		<path class="st43" d="M41.2,96.1c-3.4-1.8-6.8-1.7-10.1,0c-1,0.7-1.8,2.5-3.2,1.8c-3.5-1.7-6.1-1.2-8.1,3
			c1.5-10.3-6.7-16.4-8.6-24.8c0-2.1,0.7-4.2,0.3-6.4c-0.8-4.9-0.5-5.3,4.3-5.8c1-0.1,2-0.2,2.9-0.4c0.5-0.1,0.9-0.1,1.4-0.1
			c4.2,0.1,8.5,1.3,12.7-0.3c2.4-0.6,4.8-0.5,7.2-0.4c0.8,0,1.6,0.2,2.4,0.4c2.4,0.8,4.9,0.6,7.4,0.6c12,0,23.9,0.1,35.9-0.1
			c4.7-0.1,9.2,1.1,13.8,0.9c1.5-0.3,2.8,0.3,4.1,0.9c5.8,2.6,8.7,6.7,8,13.3c-0.5,4.8-0.2,9.6-0.1,14.5c0.1,2.8-1.2,4.1-3.8,4.2
			c-21.3,0.3-42.6,0.4-64,0C42.8,97.3,41.9,96.8,41.2,96.1z"/>
		<path class="st43" d="M10,64.1c-1.8,0-3.7-0.2-4.8,1.7c-0.8,1.5-1.9,0.8-3,0.3c-1.5-7.2-0.1-14.4-0.6-21.6
			c-0.7-4.4,0.7-6.6,5.6-6.7c3.9-0.1,7.8-2.3,11.6,0.4c-0.5,6.3-0.4,12.7-0.4,19.1c0,1.8-0.1,3.6,0.8,5.3c0.2,0.6,0.1,1.1-0.2,1.6
			l0,0C16.1,64.8,13.1,64.9,10,64.1z"/>
		<path class="st44" d="M2,43.2c0.1,7.6,0.2,15.2,0.2,22.9c0,9.8-0.1,19.6-0.1,29.4c0,2,0.3,4-0.9,5.7c0-19.4,0-38.8,0-58.3
			C1.7,42.7,1.9,42.8,2,43.2z"/>
		<path class="st45" d="M10,64.1c3,0,6,0,9.1,0c-0.6,0.9-1.6,1-2.6,1c-3.3,0.1-6.8-0.4-3.8,4.9c0.8,1.5,0.6,4.5-1.6,6.1
			C9,72.2,10.6,68,10,64.1z"/>
		<path class="st43" d="M29.1,106c-2.1,0.3-4.5-0.8-6.4,1.3c1.7,1.5,3.7,0.1,6,1.7c-3.1,0-5.4,0-7.7,0C20,103.3,21.4,103.5,29.1,106
			z"/>
		<path class="st46" d="M568,81c20.4,0,40.8,0,61.1,0c5.1,0,10.2-0.2,15.2-1.7c1.8-0.6,3.6-0.5,5.3,0.5c0.1,6.8-0.1,13.6,0.4,20.4
			c0.3,4.4-0.8,5.9-5.6,5.9c-40.9-0.2-81.8-0.1-122.7-0.1c-41.1,0-82.2,0-123.2,0c-1.2,0-2.3-0.1-3.5-0.2c-1.7-4.3-0.7-8.7-0.7-13.1
			c1.6-0.5,3.3,0.9,4.8-0.5c0.7-0.8,2.8-1.2,1.9-2.2c-1.6-1.8-3.1,0.1-4.6,1c-1.1,0.5-1.7-0.1-2.2-1c-0.6-2.7,0.9-5.6-1.1-8.2
			c3-3.8,6.5-1.9,10-1c3.4,0,6.8,0,10.1-0.1c0.2-0.4,0.4-0.4,0.7-0.1l0.1,0.2c3.5,1.5,7.1,2.8,8.2,7.1c-0.9,1.2-2.7,1-3.9,2.4
			c1.5,1.3,2.7,0.9,3.6-0.5c0.8-1.2,1-2.8,2.8-3.1c10.2-0.6,20.3-0.6,30.5,0c1.2,0.3,2,0.9,2.4,2.2c0.2,1-0.4,2.7,1.5,2.5
			c1.4-0.1,2.4-0.9,1.9-2.7c-0.4-1.3,0.8-1.6,1.7-2c10.8-0.7,21.6-0.6,32.4-0.1c1,0.4,2.2,0.6,2.1,2.2c0,1-1,2.5,0.9,2.6
			c1.2,0.1,2.2-0.8,2.4-2c0.2-1.4,0.8-2.4,2.3-2.7c10.6-0.5,21.3-0.8,31.9,0.1c2.5,1.1,1.3,2.4,0.2,3.7c-0.4,0.3-0.8,0.4-1.3,0.5
			c-0.8,0.1,0,0.4,0,0.5c1.3,0.9,2.4,2.3,4.1,0.7c2.7-0.9,0.8-5.1,4.1-5.6c10.1-0.6,20.2-0.6,30.3,0c1.7,0.3,2.3,1.6,2.8,3
			c0.4,1,1.2,1.5,2.3,1.4c0.5,0,1.1-0.3,1-0.8c0-1.6-1.6-1.3-2.5-1.9C573.4,85.9,568.8,85.4,568,81z"/>
		<path class="st47" d="M661.2,79.1c4.1,2.9,8.4,2,12.8,0.9c0.7,0.5,1.4,1.1,1.5,1.9c1,8,2.1,16.1-0.8,24c-14,0.9-13.9,0.9-13.7-13
			C661.1,88.3,660.6,83.7,661.2,79.1z"/>
		<path class="st48" d="M674.7,105.9c-0.5-8.6,0.9-17.3-0.7-25.9c4.1-3.7,8.6-2.1,13-1c-0.1,9-0.1,17.9-0.2,26.9
			C682.8,105.9,678.8,105.9,674.7,105.9z"/>
		<path class="st49" d="M655.2,88c2.1,0,4,0.6,3.9,2c-0.1,1.6-1.8,2.9-3.7,2.9c-1.6,0-3.1-1.1-3.2-2.5C652.1,88.4,654,88.1,655.2,88
			z"/>
		<path class="st50" d="M41.2,96.1c21.6,0,43.1-0.2,64.7,0c4.2,0,5.7-1.2,5.3-5.3c-0.3-3.1-0.5-6.4,0-9.4c1.3-7.8-2.1-12.5-9.1-15.3
			c-1-1.7-1-2.9,1.2-3.5c3.3,1.1,5.4,3.4,6.7,6.5c1.6,1.8,2.2,3.9,2.1,6.3c-0.2,6.6-0.3,13.2,0,19.8c0.2,4.1-1.4,5.3-5.1,4.9
			c-20.5,0-41-0.1-61.5,0C42.7,100.1,40.6,99.8,41.2,96.1z"/>
		<path class="st45" d="M19.1,64.1c0-0.3,0-0.7,0-1c-2-7.7-1.1-15.4-0.5-23.1c0.2-1.8-0.2-4.1,1.3-5.7c0.4,0.2,1,0.4,1.2,0.7
			c1,1.6-2,5.1,2.4,5.1c3.4,0,6-1.1,6.6-4.9c0-0.3,0.4-0.5,0.5-0.8c0.9,5.9,0.4,12,2.4,17.7c0.5-0.4,1.1-0.6,1.6-0.1
			c0.9,1-0.1,1.6-0.5,2.4c-1.8,2.9,0.4,6.7-2.1,9.5C27.9,66.6,23.5,65,19.1,64.1z"/>
		<path class="st51" d="M2,43.2c-0.2-0.1-0.5-0.2-0.7-0.3c-0.1-1.2-0.2-2.4-0.3-3.6c-0.4-4,1.1-5.7,5.3-5.3c3.9,0.4,8,0.1,11.9,0.2
			c0.7,1,0.7,2-0.2,2.9c-1,0.3-0.9,2.4-2.6,1.5c-4-2.2-7.6,1.6-11.6,0.8C1.5,38.9,2.5,41.8,2,43.2z"/>
		<path class="st52" d="M18.1,37c0.1-1,0.1-1.9,0.2-2.9c0.6,0,1.1,0,1.7,0c-1.2,9.6-0.8,19.2-0.9,28.8c-2.5-0.3-2-2.3-2-3.8
			C17.3,51.8,16.5,44.4,18.1,37z"/>
		<path class="st53" d="M114.1,106.8c-1.8,2-4.3,3.4-5.2,6.2c-1.3-1.2-0.9-2.6,0.2-3.4c5-3.8,4.6-9.5,4.9-14.8
			c0.3-6.4,0.1-12.9,0-19.3c0-2.9-0.4-5.7-4-6.4c-2.4-1.6-4.4-3.6-6-6c-0.3-0.4-0.6-0.8-0.5-1.4c0.3-6.2,0.3-6-6-6.2
			c-10.1-0.3-20.3,0.7-30.3-0.1c-10.9-0.9-21.8,0.7-32.7,0.2c-1.4-0.2-2-1-1.7-2.3c0.5-0.2,1-0.4,1.5-0.7c-0.4-0.2-0.7-0.3-1.1-0.5
			c0-1,0.1-2,0.1-2.9c0.3,0,0.6,0,0.9-0.1c0.5-0.3,1.1-0.4,1.7-0.2c2.8,0.8,5.6,0.7,8.4,0.7c20.6,0,41.3,0.7,61.9-0.3
			c11.3-0.5,18.6,4.4,25.2,12.1c0.8,2.9,2.2,7.1-0.2,8.6c-2.5,1.6-5-2.1-7.3-3.9c-1-0.8-1.8-2.5-3.2-1.9c-1.5,0.7-1.2,2.6-1.3,4
			c-0.1,1.5,0.6,2.9,0.8,4.4c0.7,9.6-0.1,19.1,0.2,28.7c-0.1,1.4,0.4,2.5,0.9,3.8c0.1,0.6-0.1,1-0.6,1.3
			C118.6,106.8,116.3,106.1,114.1,106.8z"/>
		<path class="st54" d="M192,144.9c2.7-4.5,5.2-9.1,8-13.6c2.6-4.1,4.2-8.6,5.2-13.3c1.2-0.7,1.3,2.3,2.7,0.8
			c-1.7,9-7,16.1-11.9,23.4C195.2,143.5,193.4,144.1,192,144.9z"/>
		<path class="st55" d="M207.9,118.9c-1.4,1.3-1.9-0.1-2.7-0.8c0-2.1,0-4.1,0-6.2c0.7-1,1.3-2,2.6-0.8
			C207.9,113.7,207.9,116.3,207.9,118.9z"/>
		<path class="st56" d="M298,131.9c-0.6-0.3-1.1-0.9-1.7-0.8c-3.8,0.5-5-0.8-4.5-4.8c0.4-2.7-0.2-5.6-2.9-7.3c-2.3-4-2.3-8-0.1-12
			c1.8-0.7,5.3,1.4,5.3-1.4c-0.1-2.5-3.4-1.7-5.7-1.8c-13.3-0.5-26.5,0-39.7,0c-11.7,0-23.4-0.7-35.2-0.6c-9.5,0-19,0.6-28.5,1.1
			c-0.4,0-0.8,0.9-1.2,1.4c-2.3,1.6-4.8,0.5-7.2,0.8c-2-0.8-4.4,0-6.4-1.1c-1.2-2.2,0.7-2.9,2-3.6c3.5-1.6,7.1-3.3,11-3.6
			c2.1,0.6,3.8-0.6,5.7-1.2c13.2,0.9,26.5-0.2,39.7-0.2c11.2,0,22.2,2.3,33.7,0.9c8.8-1.1,18.2-0.7,27.3-0.6
			c7.9,0.1,8.7,1.3,8.7,9.2c0,5.8,0.1,11.6,0,17.4c-0.1,3.4,1.3,4.8,4.7,4.8c6.3-0.1,12.6-0.1,19-0.1c3.2,0,4.1-1.4,3.8-4.3
			c-0.3-2.5-0.6-5,0.9-7.3c1.2-1,2.6-1.1,4.1-0.6c1.4,0.7,2,1.9,1.8,3.5c-1,2.3-2,4.5,0.4,6.7c2.1,1.9,0.7,2.9-1.3,3.8
			c-3.9,2-8,2.6-11.2,2.1c-1.8,0.1-1,0.9-1.2,0.3c-0.1-0.1,0.1-0.3,0.4-0.2c2.1,0.3,4.3-0.6,6.3,0.5c-0.2,2.3-1.7,2.8-3.8,3
			c-7.2,0.6-14.4-2.2-21.7-0.5C298.2,136,299.7,132.6,298,131.9z"/>
		<path class="st57" d="M331.1,117c-1.3,0-2.7,0-4-0.1c-0.8-1.1-0.5-2.2,0.2-3.2c2.7-4.4,7.1-4.4,11.5-4.1c4.1,0.3,7.3,2.4,8.1,6.2
			c1,5,1.6,10.2-0.8,15.1c1.5,2,4,0.4,7.2,2.1c-4,0-6.6,0-9.3,0c-0.4,0-0.7,0-1.1,0.1c-5.3,0.7-10.5,0.7-15.8,0
			c-0.4,0-0.7,0-1.1-0.1c-2.6,0-5.2,0-7.9,0c5.6,0.5,10-3.1,15.3-4.6c-3-2.4-6.1-4.9-1.5-8.4c1.5,1.6,2.1,4.3,5.2,3.6
			c1.8-0.4,2.5-1.4,2.7-3.1c0.2-1.8-0.6-2.8-2.4-3.1C335.4,117,333.2,117.8,331.1,117z"/>
		<path class="st58" d="M327.1,133.1c5.3,0,10.5,0,15.8,0C337.6,134.7,332.4,134.5,327.1,133.1z"/>
		<path class="st32" d="M175.7,105.7c2.7,0,5.4,0,8.2,0c5.9,0.1,11.7,0.3,17.6,0.4c-12.9,0.2-25.8,0.5-38.7,0.6
			c-16.2,0.1-32.5,0.1-48.7,0.1c2.1-1.9,4.7-0.4,7-1.1c0.8-0.9,4.1,0.2,2-3c-0.9-1.4-0.4-3.6,0.2-5.4c0.6-1.4,2-2.3,2.7-3.6
			c1.3-2.6,0.6-6.2,3.9-7.7c9.6-0.8,19.2-0.7,28.8-0.1c1.2,0.4,1.8,1.1,1.4,2.4c-0.3,2-2.7,4.7,1.7,5.2c0.5-0.1,0.9,0,1.3,0.2
			c0.3,0.3,0.6,0.7,0.7,1.1c0.8,2.8-0.2,5.8,0.9,8.6c0.3,0.3,0.6,0.6,1,0.8C169.1,105.2,172.4,105.7,175.7,105.7z"/>
		<path class="st15" d="M260.1,108.1c-3.5,6.6-4.4,13.1,0,19.6c-6.3,2.8-11.1,0.5-12-6c-0.3-2.1,0.1-4.2-3-4.7
			c-1.7-0.3-2.2-2.3-2-4.1c0.4-3.6-0.5-5.9-4.9-5.6C245.6,107.8,252.9,105.5,260.1,108.1z"/>
		<path class="st59" d="M238.1,121.9c0-3.6,0-7.2,0.1-10.8C239.7,114.7,239.7,118.3,238.1,121.9z"/>
		<path class="st60" d="M346,130.9c0-3.5-0.2-7,0-10.5c0.4-4.6-1.2-8-5.6-9.3c-6.9-1.9-10.9,0-13.4,5.8c0,1.2,0,2.3,0,3.5
			c0,9.5,0,9.5-9.5,9.5c-5.5,0-11-0.1-16.5,0c-3.1,0.1-4.1-1-4-4c0.2-7.5,0-15,0.1-22.4c0.1-2.9-0.5-4.2-3.9-4.8
			c-5-0.9-9.8,0.1-14.7,0.2c-9.3,0.3-18.6-0.5-27.9,1c-3.2,0.5-6.3-1.1-9.7-1.2c-11.8-0.3-23.7-1.7-35.3-0.4
			c-6.1,0.7-11.7-0.8-17.6-0.4c-1.8-0.1-2.1-1.5-2.2-2.8c-0.3-7.5-0.3-14.9,0-22.4c0.1-1.8,0.9-3.5,2.7-3.7
			c6.9-0.7,13.8-2.1,20.5,0.9c0,2.8-2.2,1.9-3.6,1.9c-4.1,0.2-8.1,0-12.2,0.1c7.6,0,15.3,0.3,22.9-0.7c1.1-0.2,2.3-0.4,3,0.3
			c-9.4-4.4-18.5-10.1-28.2-14.8c-1.3-0.7-2.6-1.4-3.4-2.8c-0.5-1.2-0.6-2.4,0-3.6c2-0.8,1.2-3.1,2.4-4.3c0.7-0.8,1.3,0.4,2,0
			c0.1,0,0-0.2-0.2-0.4c-0.9-0.5-1.5,0.2-2.2,0.5c-1.1-0.2-1.8-1-2.2-2c-0.9-4.9-0.5-9.7-0.4-14.6c0.2-1.2,0.6-2.4,1.9-3
			c0.6-0.1,1.3-0.1,1.9-0.1c38.8,0.1,77.5,0,116.3,0.1c2.8,0,5.7-0.1,8.5,0.2c2.7,1,5.6,0.6,8.4,0.9c4,0.4,4.4,1.5,2.6,5.6
			c-1.9,1.4-4.1,0.9-6.3,1.2c-8.5,0.2-17.1-0.4-25.5,1.1c20.2,1.2,40.5,1.1,60.7,1c1.7,0.1,2.7-1.4,4.1-2c1.5-0.3,3-0.1,4.5,0.1
			c9.2,1,16.7-1.8,22.2-9.5c0.7-1,1.5-3.5,3.7-1.5c1.5,7,0.2,14.1,0.8,21.1c0.3,3.1-2.3,3.5-4.2,4.7c-3.1,1.7-7.2,1.8-9,5.6
			c-1.3,1.2-3.1,0.3-4.6,0.9c-4.6,2-8.9,4.6-13.4,6.8c-5.5,3-10.7,6.6-15.8,8.7c0,0,0.7,0.1,1.3,0.1c10.1,0.3,20.2-0.4,30.3,0.3
			c3.6,1.3,7.1,2.9,10.5,4.5c1.9,0.9,4,1.8,4.3,4.4c0.1,8.7,0,17.5,0.1,26.2c-6.2,7.3-12.4,14.6-18.4,22c-1.4,1.7-2.9,2.3-4.7,1.8
			c-4.4-1-8.8-1.4-13.2-0.3c-1.4,0.4-2.1-0.5-2.6-1.7c-0.3-0.7,0-1.3,0.6-1.6c0.9-0.6,2.2-1-0.1-1.4c-1.6-0.8,1.4-4.2-2.2-3.8
			c-2.7,2.6,1.6,4.5,0.7,6.9C348.7,129.6,347.4,130.3,346,130.9z"/>
		<path class="st61" d="M373,55.1c1.3-1.8,2.7,0.5,4,0c5.9-3.1,12.1-4.9,18.9-4.8c21.5,0.3,42.9,0.5,64.4,0.1
			c10.3-0.2,20.6,0.2,30.9,0.1c21.9-0.3,43.9,0.2,65.8-0.1c16-0.2,31.9,0.2,47.9,0.3c3.8,0,7.6-1.1,11.4,0.3
			c5.4,2.6,11.1,2.9,16.9,2.7c5.9-0.2,11.9-0.3,17.7,1.4l0,0c0.2,0.7,0.9,1.3,0.3,2.2c-1.5,1.4-3.3,1.3-5.1,1.3
			c-9.1,0.1-18.2-0.2-27.2,0.5h-0.4h-0.4c-1-0.2-1.3-1.4-2.3-1.6c-0.6-0.1-1.2-0.1-1.8,0c-1.2,0.1-2.4,0.6-3.6,0.8
			c-10.2,0.8-20.4-0.2-30.6,0.8h-0.4H579c-0.8-0.3-1.2-1.1-2-1.5c-0.6-0.2-1.2-0.2-1.8-0.1c-0.9,0.2-1.8,0.5-2.7,0.7
			c-7.6,0.6-15.3,0.2-22.9,0.3c-7.8,0.1-8.5,0.8-8,8.7c-0.1,1.6,0,3.2,0.2,4.9c-2.3,2.1-5.1,0.3-8.1,1.4c0.3-1.9,1.6-3,1.2-4.5
			c2.1-0.1,2.8-1.4,2.7-3.3c-0.1-2.1,0.2-4.2-0.2-6.5c-1.1,3.4,1.3,7.4-2.4,9.8c-0.4-0.4-0.8-0.8-1.1-1.2c-1.3-9.4-1.3-9.4-11.3-9.4
			c-7.2,0-14.5-0.2-21.7,0.5h-0.4h-0.4c-0.7-0.2-1.1-0.9-1.6-1.3c-0.5-0.2-1-0.1-1.4,0.3c-0.7,0.9-1.4,1.7-2.7,1.4
			c-10.4-1.3-20.9-1.5-31.3,0.1c-2.4-0.2-4.9-1.9-7.4,0c-10.5-1.5-21.1-1.3-31.6-0.1c-2.3,0.5-4.7-2.4-6.9,0.3
			c-2.5-0.1-4.7-1.2-7.2-1.2c-4,0-6.8,0.9-6.9,5.6c0,1.2-0.3,2.3-1.3,3.1c0.3,1.9-1.2,4.1,1.2,5.9c-3.9,0.1-8.2,1.5-7.2-4.9
			c-0.3-1,0.3-1.2,1.1-1.2c0.7,0.3,1.8,1.5,2.1,0.7c1.1-2.8,1-5.8,0.1-8.6c-0.4-1.1-1.7,0.3-2.6,0.4c-0.5,0-1-0.1-1.5-0.2
			c-8.5-2.1-9.8-1-9.5,7.8c0,0.7-0.1,1.3-0.5,1.9c-1.7,2.5-0.7,3.8,1.7,5.2c2.8,1.7,6.3,1.4,9,3.9c2.4,2.3,6,0.4,9.1,1.2
			c0,1.3-1.7,0.8-1.9,1.8c-3.3,0.5-6.8-1-10,1c-0.6-0.3-1.2-0.6-1.8-1c-0.9,0.1-1.6-0.3-2.2-1c-3.6-3.6-9.3-3.6-13-7
			c-0.5-0.8,0.5-1.9-0.6-2.5c-0.1-0.7,0-1.3,0.2-1.9c3.2-5.3,3-7.3-0.9-10.8C373.9,57.1,372.5,56.6,373,55.1z"/>
		<path class="st62" d="M389,80.1c0.9,0,1.7,0.2,2.2,1c0,7,0,13.9-0.1,20.9c0,1.7,0.7,3.7-1,5.1c-2.1-3.4-0.7-7.1-0.9-10.6
			C388.8,91,389,85.5,389,80.1z"/>
		<path class="st63" d="M352,126c3,2.1-1.5,1.7-1,2.9h-0.5H350c-1.4-2.5-5.7-4.5-1.2-7.9C351.8,121.5,349.6,125.2,352,126z"/>
		<path class="st64" d="M398.9,93c-1.8,4.2-3.2-0.3-4.8-0.2c0-0.9-0.1-1.8-0.1-2.7c0.6,0.3,1.2,0.7,1.8,1
			C397.2,91.2,398.2,91.8,398.9,93z"/>
		<path class="st65" d="M189,27.1c-0.8,0.5-1,1.3-1,2.1c-1.7,0.9-1-2.4-2.7-1.6c-1.8-0.1-3.4-0.9-5-1.7c-3-2.1-7.8-1.1-9.2-5.7
			c28.7-0.1,57.5-0.2,86.2-0.2c19.9,0,39.8,0.1,59.8,0.2c0.9,0.6,1.9,0.3,2.9,0.5c2.1,0.5,2.2,2.3,2.2,3.9c0.1,2-1.4,2.5-2.9,2.7
			c-2.7,0.2-5.3-0.2-8-0.2C270.5,27.1,229.8,27.2,189,27.1z"/>
		<path class="st32" d="M171.1,20.2c2.7,2.9,7,2.6,10,4.9c3.7,2.3,4,5.9,4,9.8c0,4.1,0,8.3,0.9,12.3c0.4,1.6,0.4,3.2,0.2,4.9
			c-0.6,1.7-1.3,3.3-1.9,5c-0.4,0.3-0.9,0.4-1.4,0.4c-5.3-0.9-10.9-0.9-15.7-3.8c-1.3-1.4-3.4-1.3-4.9-2.3c-1.1-2.4,1.2-2.7,2.3-3.8
			c0.6-0.7,0.2-1.4-0.1-2.2c-2.6-2.3-5.6-0.7-8.4-1.1c-2.1-0.4-4.7,0.7-6.2-1.7c0.1-0.6,0.4-0.9,1-1c4.7-0.1,9.5,0,13,0
			c1.9-0.2,1-1.1,1.3-0.5c-4.9,1-9.8,0.3-14.6,0.4c-0.5-0.4-0.7-0.9-0.5-1.5c3.3-2.3,7.1-1.2,10.6-1.3c6.3-0.2,6.8-0.9,7.2-7.3
			c0.2-3.7-1.4-7.5,0.3-11.2C169,20.2,170.1,20.2,171.1,20.2z"/>
		<path class="st66" d="M389,23.1c-8.4,12.7-15.5,14.9-30,12c-8.8-1-17.6-0.3-26.4-0.5c-2.3-0.1-4.7,0.4-6.6-1.5
			c0.9-2.7,0.7-4.3-2.9-4c-2.3,0.2-4.9,0.9-7.1-0.8c5.1-2,10.4-1.5,15.7-1.2c13.5,1.2,27.1,0.6,40.6,0.3c1.9,0,3.4-1.1,4.7-2.4
			c0.1-0.1,0.3-0.1,0.4-0.2c0.3-0.5,0.1-0.4-0.4-0.4c-12.6,0.5-25.2,0.1-37.8,0.2c-1.9,0-4.1,0.3-5.4-1.7c1.3-2.6,3.8-1.6,5.7-1.6
			c14.5-0.1,29.1,0,43.6-0.1c2.3,0,4.6,0.1,6.8-0.9c0.3,0,0.7,0,1,0c0.6,0.5,0.6,1.2,0.4,1.8C390.8,22.8,390,23.1,389,23.1z"/>
		<path class="st60" d="M390,20.2c-1.9,2.2-4.4,2-6.9,2c-14.6,0-29.3-0.1-43.9,0c-1.8,0-3.7-0.6-5.2,0.9c-0.3,1.5-1.6,2-2.8,2.5
			c-2,0.9-3.9,2.2-6.2,2.1c-43.5,0-87,0-130.6,0c-1.8,0-3.7,0.5-5.4-0.5l0,0c1.7-1.6,3.8-0.9,5.7-0.9c40.2,0,80.5,0,120.7,0
			c1.8,0,3.6,0,5.4,0c-0.1-2.9-0.6-5.3-3.8-5.9C341.3,20.2,365.7,20.2,390,20.2z"/>
		<path class="st53" d="M168,20.2c1.3,4.4,1,8.8,1,13.3c0,4.3-1.7,6.9-6.5,6.6c-4.1-0.2-8.3,0-12.4,0c-1.7-3,0.4-3.8,2.7-4.2
			c2.3-0.4,4.6-0.2,6.9-0.3c5.4-0.1,5.8-0.5,5.8-6.1c0-2.1,0-4.3,0.5-6.4c0-0.7,0-1.4-0.1-2.1C166.3,19.9,167.2,19.9,168,20.2z"/>
		<path class="st67" d="M391,22.1c0-0.7,0-1.3,0-2c0.7,0,1.3,0,2,0c2,5.5,0.4,11.3,1,16.9c0.9,1.9,0.1,3.7-0.3,5.5
			c-1,0.9-0.8,4.2-3.4,1.6C390.2,36.8,389,29.4,391,22.1z"/>
		<path class="st68" d="M166,23.1c1.9,4.1,0.6,8.4,0.8,12.5c0.1,2-1.9,1.4-3.1,1.4c-3.6,0-7.3,0-10.9-0.1c-2.4-0.1-3.5,0.6-2.7,3.1
			c-0.1,0.3-0.1,0.6,0,0.9c0.5,0.4,0.5,0.8,0,1.2c-0.2,0.3-0.3,0.6-0.1,0.9c0.8,0.9,0.9,1.9,0.3,2.9c-2.5,0.9-1-2.1-2-2.3
			c0.1,1.5,1.1,3.1-0.4,4.6c-0.6,0.1-1.1-0.2-1.4-0.7c-1.5-4.8-1-9.6-0.4-14.5c4.4-5.1,10.9-6.5,16.5-9.5c0.5-0.1,1,0,1.5,0.2
			C164.7,23.7,165.4,23.4,166,23.1z"/>
		<path class="st45" d="M164,23.9c-0.3,0.2-0.6,0.3-0.9,0.5c-8.7,0.3-17.3,0.3-26,0.2c-13.5-0.7-26.8,0.8-40.2,1.7
			c-8.3,0.5-16.5,1.3-24.8,2.2c-8.6,1-17.1,2.3-25.4,4.6c-3.4,0.9-5.5,2.8-6.4,6.2c-0.6,2.2-1.3,4.5-2.2,6.6c-0.6,1.4-0.7,3.4-3,3.3
			c-0.3,0-0.6,0-1,0c1.3-4.1,2.8-8.1,3.9-12.3c1-3.9,3.5-5.8,7.3-6.6c18.3-3.7,36.8-6.2,55.5-7.3c19.6-1.2,39.2-0.3,58.8-0.7
			C161.1,22.1,163.4,21.2,164,23.9z"/>
		<path class="st69" d="M393,42.1c-0.1-1.8,0-3.5,1-5c1.3-0.7,2.7-1.3,4-2c1.2-0.8,2.2-1.7,3.1-2.7c-1.1-1.7-3.3-0.8-4.1-2.4
			c-1.8-5.5,0-7.9,6.1-7.9c70.4,0,140.8,0,211.1,0c10,0,19.9,0.1,29.9-0.1c3.6-0.1,5.2,0.8,4.9,4.7c-0.3,3.8-0.1,7.6-0.1,11.9
			c-4.7-2-8.9-1.6-13.1,0.3c-0.8,0.3-2.2,0.2-2.8-0.4c-3.1-2.7-5.8-3.1-9.5-0.6c-1.5,1-3.1-0.7-1.8-2.9c0.6-1,1.4-1.8,2.1-2.7
			c-1-1.2-2,0-2.9-0.3c-0.3,0-0.6-0.1-1-0.2c-1.4-0.2-3.1-1.2-4.2,0.1c-1.2,1.5,0.7,2.6,1.1,3.9c-0.6,1,3.4,0.4,0.8,1.9
			c-1,0.6-2.6,0.2-3.9,0.2c-3.1,0-6-0.2-8.4,2.8c-1.5,1.8-4.2,2.8-7.5,1.9c-3.1-0.8-6.4,1.2-10.2-0.2c-5.3-1.9-6.9-3.1-5.4-8.8
			c0.2-0.7-0.8-0.8-1.5-0.9c-0.6-0.3-1.1-0.7-1.7-1c-1-0.6-2.1-1.4-3.2-0.5c-1,0.9,0.1,1.8,0.4,2.6c0.2,0.7,0.1,1.3-0.3,1.8
			c0,0.8,2.7,2-0.3,2.4c-0.5,0.4-1.1,0.7-1.7,0.9c-2.5,0.5-5,0.3-7.5,0.3c-44.8,0-89.6,0-134.4,0c-2.3,0-4.7-0.2-7,0.3
			c-4.4,1.4-7.6,4.8-11.5,6.9c-5.6,1.2-11.2-0.3-16.9,0.1C394.2,46.9,391.4,45.8,393,42.1z"/>
		<path class="st70" d="M393,42.1c-0.3,3.5,2.7,4.1,4.6,3.7c5.6-1.3,11.1,0.6,16.6,0.1c0.3,0,0.6-0.1,1-0.1
			c47.6-0.1,95.2,0,142.8-0.1c2.5,0,5,0.1,7.5-0.1c0.6-0.1,1.1-0.3,1.7-0.6c0.6-0.2,1.1-0.2,1.7,0c2.7,2.2,5.4-0.4,8.1,0.1
			c4,0.8,8,0.8,12,0c15.6,0,31.3-0.2,46.9,0.2c4.7,0.1,9.3,2,13.9,3c-3,3.1-7.2,1.3-10.7,2.7c-1,0.4-2.3-0.1-3.2,1.1
			c-3.9,2.8-8.3,1.5-12.3,1.3c-2.5-0.1-5.1-0.5-7.6-1.3c-3.1-1.4-6.2,0.1-9.3,0c-16.2-0.4-32.5-0.7-48.7-0.4
			c-15.3,0.2-30.7,0-46,0.2c-12,0.1-24.1-0.1-36.1-0.2c-16.4,0-32.8,0.2-49.2,0.3c-12.3,0.1-24.7,0-37,0c-4.4,0-7.9,4-12.6,3
			c-1.6-2.3,0-3.1,1.9-3.8c3.8-1.6,7.5-3.3,11.2-4.9c0-0.8,0.4-1.2,1.2-1.2C391.8,44.1,392.4,43.1,393,42.1z"/>
		<path class="st71" d="M568.8,45c-0.3,0.1-0.5,0.1-0.7,0.3c-1.2,0.8-2.5,0.8-3.9,0.8c-36.3-0.1-72.6,0.2-108.9-0.1
			c-3-1.8-0.8-2.5,0.7-2.8c3.1-0.6,6.2-0.9,9.4-0.7c12.4,0.7,24.8,0.1,37.3,0.3c2,0,3.9-0.7,5.8-1.5c-4.3,0.4-8.6,1-12.9,0.3
			c-2.8-0.4-2.9-0.6-3-3c7.1,0,14.2,0,21.3,0c2.2,4.1,5.9,4.4,9.9,4.1c13.9-0.8,27.7,0.4,41.6-0.3c-2.3-0.9-4.8-0.5-7.1-1.2
			c-1-0.3-3.5-0.1-2-2.5c6.2-0.2,12.4,0.3,18.6-0.3c0.2,0,0.4,0,0.6-0.1C575.5,42.8,570.7,42.4,568.8,45z"/>
		<path class="st72" d="M576,35.9c-0.1-0.3-0.1-0.6-0.2-0.9c-0.5-1.7-4.7-3.3-0.7-5.1c2.1-1,5.3-0.7,5.7,3
			C579.1,34,577.5,35,576,35.9z"/>
		<path class="st73" d="M397,30c0.7,0,1.3,0,2,0c1.7,0.2,4.6-0.5,4.3,1.9c-0.2,1.4-2.2,4.2-5.2,3.2C396.7,33.6,394.7,32.2,397,30z"
			/>
		<path class="st73" d="M616.9,36c-2.3-0.9-4.6-2.8-3.1-4.7c1.8-2.3,5-2.1,7.1,0.8C619.6,33.5,617.5,34,616.9,36z"/>
		<path class="st69" d="M588.9,45.1c-4,1.5-8,1.5-12,0C580.9,45.1,584.9,45.1,588.9,45.1z"/>
		<path class="st74" d="M684.9,32.4c-1.5,1-3,2.6-4.7,3c-0.6,0.2-2.7-2.3-2.7-3.5c0.1-2.1,2.2-2.6,4.1-2.3
			C683,29.9,684.6,30.3,684.9,32.4z"/>
		<path class="st75" d="M659.5,32.4c-2.2,0.3-2.1,3.8-4.7,3.4c-1.5-0.3-3-1.7-2.8-3.6c0.3-2.3,2.1-2.9,4-2.7
			C657.6,29.6,658.9,30.3,659.5,32.4z"/>
		<path class="st76" d="M422.1,88c-2.7-2.3-5.4-4.6-8.1-6.9c37.7,0,75.4-0.1,113.2-0.1c13.6,0,27.2,0.1,40.9,0.1
			c2.3,2.7,6,3.8,7.9,6.9c-0.5,0.6-1.2,0.7-1.9,0.3c-11.4,0-22.7,0-34.1-0.1c-1.3,1-2.6,1-3.9-0.1c-11.7,0-23.4,0.1-35,0.1
			c-1.3,1-2.6,1-3.9-0.1c-12,0-24,0-36,0c-1.3,1.1-2.6,1-3.9,0.1c-11.4,0-22.7,0-34.1,0C422.5,88.4,422.3,88.3,422.1,88z"/>
		<path class="st77" d="M541,68.9c-1.5-2.2-1-4.7-1.1-7.2c-0.1-3.1,1.3-4.4,4.5-4.4c9.8,0.1,19.5,0,29.3,0c2.9,2.8,3.5,5.9,1.1,9.3
			c-0.9,0.5-1.7,1.1-1.8,2.2c-3.8,3.2-8.3,1.5-12.4,1.5c-6.3,0-12.8,1.5-19.1-0.8C541.3,69.3,541.2,69.1,541,68.9z"/>
		<path class="st77" d="M422.4,59.4c1.4-2,3.4-2.2,5.6-2.2c7.7,0.1,15.5,0.2,23.2,0c2.4-0.1,4,0.8,5.7,2.2c1.9,2.4,1.9,4.9,0,7.3
			c-3.3,4.1-8,2-12,2.4c-5.4,0.5-10.9-0.4-16.3,0c-4.6,0.4-6.3-1.4-6.4-5.5C420.5,62.1,421,60.8,422.4,59.4z"/>
		<path class="st78" d="M500.9,59c1.2-1.6,2.8-1.8,4.7-1.8c7.3,0.1,14.5,0.1,21.8,0.1c7.8,0,9.5,2.8,6.6,10.5c-0.7,0.7-1.3,1.3-2,2
			c-9.7,0.8-19.5,1.8-29.1-0.7C499.4,66.3,501.1,62.5,500.9,59z"/>
		<path class="st77" d="M618.9,59.1c1.2-1.6,2.8-1.8,4.7-1.7c9.2,0.1,18.5,0,27.7-0.1c2.5,4,2.6,7.9-0.3,11.8
			c-3.5,2.8-7.7,1.5-11.5,1.4c-6.2-0.1-12.5,1.4-18.5-1.3C617.2,66.4,619.3,62.5,618.9,59.1z"/>
		<path class="st78" d="M579.9,59c1.4-1.7,3.3-1.7,5.3-1.7c8.9,0,17.7-0.2,26.6-0.2c3.8,2,4.4,5,2.1,9.7c-0.9,0.4-1.7,0.9-1.9,2.1
			c-0.2,0.3-0.4,0.6-0.7,0.7c-9.8,1.5-19.6,2.1-29.3-0.3C578.3,66.4,580.2,62.5,579.9,59z"/>
		<path class="st77" d="M461.5,59.4c1.3-1.7,3-2.2,5.2-2.1c7.8,0.2,15.6,0.2,23.3,0c2.4-0.1,4.1,0.7,5.8,2.1c2,2.5,2,5,0,7.5
			c-0.9,0.4-1.6,1-1.8,1.9c-3.1,2.9-7,1.3-10.5,1.7c-5.1,0.5-10.3,0-15.4,0.1c-1.8,0-3.7-0.3-5.1-1.7c-0.5-0.7-1-1.4-1.5-2.2
			C460.3,64.2,460.3,61.8,461.5,59.4z"/>
		<path class="st79" d="M672,57c1.5,0.7,3.3-0.2,4.6,1.2c3.7,3.3,3.6,6.9-0.3,12.1c-0.7,0.5-1.5,0.8-2.4,0.8c-4-1.1-8.1-0.3-12.1-1
			c-1.5,0.2-2.1-1.1-3-1.8c-1.3-3.3-1.2-6.6,0.2-9.9c0.3-1.3,1.2-2.1,2.5-2.4C665.1,55.8,668.7,54.8,672,57z"/>
		<path class="st80" d="M402,67.1c-0.1-9.1,4.5-12.6,13.2-9.7c1,0.3,1.8,1.4,2.6,2.1c2.1,2.4,2,4.8,0,7.2c-0.9,0.5-1.7,1-1.9,2.1
			c-4,1.7-8,1.4-12,0.4C403.3,68.4,402.6,67.7,402,67.1z"/>
		<path class="st79" d="M397,66.8c-0.3,0.4-0.7,0.8-1,1.2c-0.4,0.4-0.7,0.7-1.1,1.1c-3,1.4-6,1.2-9,0.1c-0.2-0.3-0.4-0.4-0.8-0.4
			c-0.4-0.7-1-1.4-1-2.2c0-3-1.7-7.1,1.5-8.6c3.5-1.6,7.9-2.1,11.3,1.2C398.9,61.8,398.8,64.3,397,66.8z"/>
		<path class="st81" d="M436.2,79.2c43.5,0,87,0,130.5,0c0,0.2,0,0.3,0,0.5c-43.5,0-87,0-130.5,0C436.2,79.5,436.2,79.4,436.2,79.2z
			"/>
		<path class="st82" d="M461.5,59.4c0,2.4,0,4.8-0.1,7.3c-1,1.3,0,4.2-2.7,4c-2.2-0.2-1.6-2.4-1.9-3.9c0-2.4,0-4.9,0-7.3
			c0.3-1.3-0.2-3.2,1.9-3.4C461.3,55.8,460.5,58.4,461.5,59.4z"/>
		<path class="st83" d="M541.9,72c-1.3-0.8-2.9-1.5-0.9-3.2h-0.1c5.8,2.8,11.9,0.8,17.9,1.2c4.4,0.3,8.8-0.4,13.1,1
			c-0.1,0.9-0.5,1.9-1.3,1.8C561,72.7,551.4,74.2,541.9,72z"/>
		<path class="st84" d="M650.9,71.1c-0.2,1.7-1.3,2-2.8,2c-8.1,0-16.2,0-24.3,0c-1.5,0-2.6-0.4-2.8-2.1c2.7-1.9,5.8-0.7,8.6-0.7
			c6.2-0.2,12.4,0,18.6-0.1C649.2,70.1,650.1,70.4,650.9,71.1z"/>
		<path class="st85" d="M462.9,68.8c10.3,0.5,20.7,0.3,31-0.1c0.1,1-0.1,1.8-1.1,2.3c-5.6,2.1-11.5,0.7-17.2,0.9
			c-3.9,0.1-7.9,1.1-11.7-0.9C463.6,70.3,463.3,69.6,462.9,68.8z"/>
		<path class="st86" d="M610.9,71c-0.1,1.8-1.3,2.1-2.7,2c-7.8,0-15.6,0-23.4,0c-1.5,0-2.6-0.3-2.9-2c5.7-2.3,11.6-0.5,17.4-0.8
			C603.1,70.1,607.2,68.9,610.9,71z"/>
		<path class="st87" d="M464,71c9.6,0,19.3,0,28.9,0.1c-0.1,1.8-1.4,2-2.8,2c-7.8,0-15.6,0-23.3,0C465.3,73.1,464.1,72.8,464,71z"/>
		<path class="st88" d="M571.9,71c-8.7,0-17.3,0-26,0c-2,0-4.1,0.3-5-2.2c10.7,0.5,21.3,0.3,32-0.1C572.6,69.6,572.3,70.3,571.9,71z
			"/>
		<path class="st89" d="M610.9,71c-9.7,0-19.3,0-29,0c0-0.6,0-1.2,0-1.9c10-0.1,20-0.3,30-0.4C611.6,69.5,611.2,70.3,610.9,71z"/>
		<path class="st90" d="M417.8,66.6c0-2.4,0-4.8,0-7.2c0.4-1.3-0.3-3.2,1.9-3.4c2.5-0.2,1.9,2.2,2.8,3.4c-0.1,1.4-0.2,2.8-0.2,4.2
			c-0.9,0.9-1.1,2-1,3.2c0.2,1.6,1.2,3.8-1.3,3.9C417,70.9,418.3,68.1,417.8,66.6z"/>
		<path class="st89" d="M650.9,71.1c-10,0-20,0-30-0.1c0-0.6,0-1.3,0-1.9c10,0,20-0.1,30-0.1C650.9,69.7,650.9,70.4,650.9,71.1z"/>
		<path class="st91" d="M529.9,71.1c0,0.7,2.6,1.8-0.1,1.9c-8,0.2-16.1,0.1-24.1,0.1c-1.5,0-2.6-0.4-2.7-2.1
			c6-1.9,12.2-0.6,18.2-0.7C524,70.2,527.2,69,529.9,71.1z"/>
		<path class="st88" d="M529.9,71.1c-9,0-18-0.1-26.9-0.1c-0.1-0.6-0.1-1.2-0.2-1.8c9.7,0.3,19.4-0.9,29.1,0.7
			C531.6,70.9,530.7,71,529.9,71.1z"/>
		<path class="st92" d="M678.8,56.1c2.5-0.4,3.2,0.8,3.1,3.1c-0.2,3.9-0.2,7.9-0.4,11.8c-0.9,0-1.7-0.1-2.6-0.1
			C677.5,65.9,678.5,61,678.8,56.1z"/>
		<path class="st93" d="M653.8,56.1c2.3-0.5,3.4,0.4,3.3,2.8c-0.2,4.1-0.2,8.1-0.3,12.2c-2.4,0.1-3-1.1-3-3.3
			C653.9,63.8,653.8,60,653.8,56.1z"/>
		<path class="st94" d="M574.7,66.6c-0.5-3.1,0.4-6.3-1.1-9.3c0.5-1,1.3-1.2,2.3-1.2c2,2.7,0.3,5.8,1,8.1c0.5-2.3-1-5.3,0.9-8
			c1.3,0.6,0.9,1.9,1.2,2.9c0,2.5,0.1,4.9-0.2,7.3c-0.2,1.7,1,4.5-2.1,4.5C574.1,70.8,575.2,68.2,574.7,66.6z"/>
		<path class="st95" d="M673.9,70.2c0.6-0.1,1.2-0.2,1.8-0.3c0.8,0.3,1.4,0.9,1.2,1.8c-0.1,0.6-0.6,0.5-1.1,0.4
			c-4.5,2.1-9.3,0.9-14,0.8c-1.4,0-2.1-1.2,0-1.8C665.7,68.9,669.9,70.8,673.9,70.2z"/>
		<path class="st96" d="M495.8,66.8c0-2.5,0-5,0-7.5c0.2-1.1-0.2-2.5,1.1-3.2c1.9,2.7,0.5,5.8,1,8.2c0.5-2.4-0.9-5.5,1-8.2
			c1.3,0.6,0.9,1.9,1.2,2.9c0,2.5,0,5-0.2,7.5c-0.1,1.6,0.9,4.2-1.9,4.4C495.1,71.1,496.2,68.4,495.8,66.8z"/>
		<path class="st97" d="M675.9,72c1.1-0.8-0.1-1.5-0.2-2.2c1.8-3.7,3.4-7.5,0.9-11.6c0.7-0.7,1.5-1.4,2.2-2.2
			c0.1,4.9,0.1,9.9,0.2,14.8c-0.1,0.7,0.8,1.6-0.3,2C677.7,73.3,676.6,73.1,675.9,72z"/>
		<path class="st98" d="M615,56.1c0.6,0,1.3,0,1.9-0.1c1.4,3.2-0.3,6.7,0.9,9.9c0,0.3,0,0.6,0,1c-0.9,1,0.3,3.5-2,3.3
			c-2.1-0.2-1.4-2.3-1.3-3.6C614.8,63.2,613.5,59.6,615,56.1z"/>
		<path class="st99" d="M615,56.1c0,4.4,0,8.9,0,13.4c2.4,0.1,1.7-2.1,2.8-2.6c0,1.7,0.9,4-2,3.9c-2.7-0.1-1.6-2.6-2-4.2
			c-0.3-3.3,0.3-6.8-2-9.7C612.6,56,613.8,56.1,615,56.1z"/>
		<path class="st81" d="M413.8,80.8c-0.2,0.1-0.5,0.1-0.7,0.1c0.1-1.9,1.5-1.9,2.8-1.9c5.6,0,11.2,0,16.8,0.3
			C426.5,80.9,420,78.9,413.8,80.8z"/>
		<path class="st100" d="M673.9,70.2c-3.9,1.9-8,0.5-12,0.9c0-0.3,0-0.6-0.1-0.9C665.9,68.1,669.9,68.7,673.9,70.2z"/>
		<path class="st101" d="M453.3,72.1c-3.2,1.4-6.4,1-9.6,0.3C446.9,71.7,450.1,70.3,453.3,72.1z"/>
		<path class="st102" d="M403.9,69.1c4-0.1,8-0.2,12-0.4C412,71.9,408,71.6,403.9,69.1z"/>
		<path class="st61" d="M385.9,69.3c3,0,6-0.1,9-0.1C392,72.3,389,72.1,385.9,69.3z"/>
		<path class="st99" d="M617.8,66c-1.9-3.2-0.4-6.6-0.9-9.9c1.3,0.6,0.9,1.9,1.2,3C618,61.4,617.9,63.7,617.8,66z"/>
		<path class="st103" d="M615.9,52.1c6.7,0,13.3,0,20,0c5.1,0.5,10.5-0.3,15,3c-6.8,0-13.6-0.3-20.4,0.1
			C625.2,55.4,620.5,54.5,615.9,52.1z"/>
		<path class="st104" d="M660.8,57.1c-0.6,0.4-1.2,0.8-1.7,1.2c0.7-5.8,3.8-7.5,11.6-6.1c1.5,0.3,3,1,4.9,1.6
			c-1.2,1.6-2.6,1.1-3.7,1.2c-1.8,1.5-4,0.8-6.1,1C664.1,56.2,662.2,55.7,660.8,57.1z"/>
		<path class="st97" d="M660.8,57.1c0.8-3.2,3.4-1.8,5.2-2c1.9-0.2,3.9,0,5.9,0c0,0.6,0.1,1.3,0.1,1.9
			C668.3,57.6,664.5,57.5,660.8,57.1z"/>
		<path class="st57" d="M34.1,55.1c3-2,6.4-0.7,9.6-1c4.6-0.4,9.1,0.5,13.7-1.4c2.2-0.9,5,1.5,7.9,1.4C76.8,53.8,88.4,54,99.9,54
			c7.5,0,7.6,0.1,4.5,7.1c-0.3,0.6-0.3,1.3-0.5,1.9c-2,0.1-2,1.5-2,3c-1-0.3-2-0.7-3-1c-17.2-1.1-34.4-0.2-51.6-0.5
			c-1.8,0-3.6,0.4-5.4-0.4c-0.8,0-1.5-0.1-2.3-0.1C38.5,60.6,34.2,59.2,34.1,55.1z"/>
		<path class="st105" d="M66.2,78.3c-0.6-5.8,3.1-6.2,7.5-6.4c2.8-0.1,5.5,1.1,8.3,0.4c2.3-0.6,1.9,1.6,2.1,3c0.3,3,1.3,5.2,5,4.2
			c0.9-0.3,1.7-0.3,2.2,0.5c0.7,1.1-2.7,7.6-4.4,8.5c-2.4,1.2-5.2,0.1-5.2-2c0.2-5.1-3.4-5.4-6.6-6.5c0.4-0.6,1.1-0.8,1.7-1
			c-0.4,0.1-0.8,0.1-1.2,0C72.4,78.7,69.2,79.5,66.2,78.3z"/>
		<path class="st106" d="M42.1,64.1c17.6,0,35.2,0,52.8,0c1.5,0,3-0.4,4.2,1c0.5,0.8,0.9,1.7,1.4,2.5c-4.1-2.8-8.8-2.5-13.3-2.5
			c-13.3,0-26.6,0-39.9,0C45.5,65,43.6,65.7,42.1,64.1z"/>
		<path class="st107" d="M34.1,55.1c1.6,3.1,6.3,4.3,5.8,8.9c-2.6,0-5.1-0.1-7.7-0.1c0-3.5-0.8-7.1,0.6-10.6
			C32.9,54,32.9,55,34.1,55.1z"/>
		<path class="st108" d="M66.2,78.3c5.2-0.6,10.3-0.3,15.5,0.4c-1.9,1.9-4.4,1-6.6,1.3C72.2,78.8,68.6,81.7,66.2,78.3z"/>
		<path class="st105" d="M92.1,77.8c0.4-1.7-1-4,1.6-4.6c1.2-0.3,2.5,0.8,2.6,1.9C96.4,77.7,93.8,77,92.1,77.8z"/>
		<path class="st73" d="M574,88.3c0.6-0.1,1.2-0.2,1.9-0.3c1.8,0.3,4.6-0.6,4.6,2.3c0,1.8-2,3.1-4.1,2.6
			C574.2,92.2,572.1,91.2,574,88.3z"/>
		<path class="st109" d="M535.9,88.2c1.3,0,2.6,0,3.9,0.1c3,3.2-0.1,3.9-2.1,5c-2.2,1-3.5,0.3-3.9-2.1
			C533.8,89.6,535.1,89,535.9,88.2z"/>
		<path class="st110" d="M613,91.9c0.1-0.8-0.1-1.7,0.3-2.4c0.9-1.8,2.7-1.6,4.3-1.4c1.2,0.1,2.6,1,2.5,1.9c-0.2,1.6-2,2.2-3.3,3.1
			C615,94.2,613.7,93.8,613,91.9z"/>
		<path class="st72" d="M422.1,88c0.3,0.1,0.6,0.2,0.8,0.3c1.9,2.5,0,3.7-1.8,4.5c-1.7,0.7-3.5,0.1-4.2-1.5
			c-0.9-2.2,1.1-2.7,2.7-3.1C420.4,87.9,421.2,88,422.1,88z"/>
		<path class="st110" d="M398.9,93c-1.3-0.1-2.5-0.6-3.1-1.9c0.1-0.5,0.2-1,0.4-1.4c1.2-2.2,3.2-2,5.1-1.4c0.8,0.3,2,1.8,1.9,1.9
			C402.2,91.7,400.9,92.9,398.9,93z"/>
		<path class="st111" d="M457,88.2c1.3,0,2.6-0.1,3.9-0.1c0.4,1.1,3.1,1,1.9,2.7c-1.1,1.6-3.4,3.1-5.1,2.4
			C456.2,92.5,455.5,90.2,457,88.2z"/>
		<path class="st111" d="M497,88.2c1.3,0,2.6,0,3.9,0.1c1.2,1.3,2.1,2.4-0.2,3.6c-1.5,0.8-3.1,2.1-4.5,0.7
			C494.8,91.1,494.9,89.3,497,88.2z"/>
		<path class="st112" d="M613,91.9c1,1.1,2.4,1,3.8,1.3c-0.1,1.9-1.2,2.3-2.6,1.5c-1.1-0.7-2.9-0.9-2.9-2.8
			C611.8,91.9,612.4,91.9,613,91.9z"/>
		<path class="st112" d="M533.9,91.1c0.8,1.6,2.4,1.8,3.9,2.1c-0.1,1.9-1.4,2.4-2.5,1.4s-3.3-1.6-2.8-3.8
			C532.9,90.9,533.4,91,533.9,91.1z"/>
		<path class="st113" d="M681.6,93c-2.5,0-4-1.2-4-2.8s1.8-2.1,3.4-2.2c1.8-0.1,3.9,0.5,3.9,2.1C684.9,91.9,682.5,92.4,681.6,93z"/>
		<path class="st22" d="M35.1,49.1c2.5-3.8,3.1-8.3,4.6-12.5c0.8-2.1,1.7-3.6,3.8-4.2c9-2.7,18.3-4.2,27.6-5.3
			c4.7,2.9,9.6,4,15.2,3.3c10.1-1.3,20.2-1.9,30.3-1.5c9,1,18.1,1.2,27.2,2.5c1.1,0.2,2.3,0,3.3,0.7c0,5.3,0.1,10.6,0.1,16
			c2,3.5,1.3,7.1,0.7,10.8c-1.1,3.2-3.5,4.7-6.7,4.6c-3.4-0.1-6.8,0.8-10.2-0.4c-3.9-3.6-7.7-7.2-11.7-10.7c-1.7-1.5-4-1.2-6.2-1.2
			c-24.4,0-48.9,0-73.3,0C38.1,51,35.6,52.2,35.1,49.1z"/>
		<path class="st114" d="M184.2,99.2c-5.1,1.1-10,2.5-14.2,5.8c-3.4,1.4-4.1-0.8-4.3-3.4c-0.3-3.6-0.2-7.3-0.1-10.9
			c0.1-3.4-1.2-5.3-4.9-5.2c-10.6,0.1-21.3,0-31.9,0c-4,0-5.8,1.8-5.4,5.8c0.3,2.7-0.3,5.3-0.4,7.9c-0.1,1.3-0.1,2.7-1.9,3
			c-1.1-4.6-0.3-9.1-0.6-13.9c0,3.7,0.1,7.2-0.1,10.6c-0.1,1.4,1.1,3.4-1.3,4.2c0-10.7-0.1-21.4-0.1-32.1c-1.2-3.7,1-4.7,3.4-3.2
			c10.7,6.9,21.7,3.3,32.7,1.4c4.5-0.8,8.9-1.4,12.8,1.7c3.7,0.8,7.3-0.4,10.9-0.7c2.8-0.3,3.7-2.2,3.9-4.9c0.1-2.8-0.7-5.7,1.2-8.2
			c0.2-0.1,0.3-0.2,0.5-0.4c1.1,0.3,1.7,1.2,1.7,2.2c0.4,7.4,1.1,14.8-0.4,22.1c-2.1-1.7-1.5-3.8-1.5-5.9c1.5,7.3,1.1,14.8,1.3,22.2
			C185.5,98.3,185.3,99.1,184.2,99.2z"/>
		<path class="st34" d="M167.3,72.9c-3.2-4.6-8-3.5-11.9-2.3c-9.2,3-18.5,2.3-27.8,2.2c-2.3,0-3.3-2.5-5-3.8c-2.6-2-3.5-0.8-3.5,1.9
			c-2.4-2.8-0.5-5.7,0.2-8.4c0.5-2.3,1.9-0.9,2.8,0c2.7,2.6,5.2,5.6,9.5,7.4c-2-2.5-0.5-4.7-0.5-7c3.1-1.7,6.5-1,9.7-0.9
			c2.8,0.1,4.8-0.7,6.2-3.1c4.7,4,10.7,5.1,16.3,7.2c1.8,0.7,2.4-0.3,2.5-1.9c0.2-2.8-0.3-5.7,0.5-8.4c0.2-0.5,0.6-0.9,1.1-1.1
			c1.7,0.5,1.8,1.9,2,3.3c0.1,2,0.2,3.9,0.1,5.9C169.4,67.2,169.6,70.3,167.3,72.9z"/>
		<path class="st115" d="M121.2,102.1c1.7-4.2,0.8-8.5,0.7-12.8c-0.1-3.5,1.6-5.1,4.5-5.1c12.1-0.2,24.3-0.2,36.4-0.1
			c3.1,0,4.2,2.2,4.2,5.1c0,4.2,0.1,8.3,0,12.5c0,2.2,0.5,3.6,3,3.3c1.9,0.3,3.9-0.6,5.7,0.7c-3.9-0.1-7.8,0.9-11.7-0.6
			c-0.1-4.6,0-9.3-0.4-13.9c-0.2-2.9-1.8-4.5-4.3-4.6c-10.3-0.1-20.5-0.5-30.8,0.2c-0.5,0-0.9,0.4-1.3,0.6c-0.4,0.3-0.8,0.6-1.2,0.9
			c-1.6,2.7,0.1,6.1-2,8.6c0,2-0.6,4.2,0.1,5.9c1.6,4.1-1,3-3.1,2.8c0-0.3-0.1-0.6-0.1-0.9C120.3,103.8,120.2,102.9,121.2,102.1z"/>
		<path class="st116" d="M121.2,102.1c-0.1,0.9-0.2,1.8-0.2,2.7c-1.2,0.1-1.7-0.6-1.8-1.7c2-4.9-0.1-10.1,2.1-15.1
			C121.2,92.7,121.2,97.4,121.2,102.1z"/>
		<path class="st52" d="M185.2,81.1c1.7-8.2-0.2-16.2-0.8-24.3c-1-1.5-0.8-2.8,0.8-3.7c2.2-3.3,2,0.5,2.8,1
			c10.8,5.7,21.5,11.4,32.4,17.1c-1.2,1.3-2.4,0.6-3.4,0.9c-2.7,0.3-5.4,0.5-7.9-1.1c-6.6-1.9-13.4-0.5-20.1-0.8
			c-1.1-0.1-1.9,0.7-1.9,1.9c0.4,8.7-1.2,17.4,0.9,26c-0.9,1.5-1.9,2.9-3.8,1.1c0.3-0.4,0.6-0.7,0.8-1.1
			C184.3,92.4,184.1,86.8,185.2,81.1z"/>
		<path class="st22" d="M331.1,117c1.5-1,3.1-1.1,4.8-1.1c2.5,0,5.5-0.4,5.4,3.3c-0.1,2.3,1.2,5.9-3.8,5.9c-3.9,0-6.1-0.7-5.5-5.1
			C331.6,119,331.4,118,331.1,117z"/>
		<path class="st117" d="M153.9,96c0.6,4.4-0.8,6.8-5.8,6c-3.4-0.5-7,0.6-10.3-0.7c1-3.4-0.9-7.1,1.3-10.3c4.3,0.8,8.6,1.1,12.9,0
			C153.6,92.3,151.5,95,153.9,96z"/>
		<path class="st118" d="M125,87c0.9-1.3,2.4-1,3.7-1c10.6,0,21.3,0,31.9,0c1.9,0,4.2,0,4.2,2.4c0,5.6,1.2,11.2-0.7,16.7l-0.2-0.4
			c-1-3.5,0.4-7.2-0.8-10.6l-0.4-0.1c-1.3-2.1-0.7-5-2.6-6.8c-10.4,0-20.8,0.1-31.1,0.1C127.6,88.1,126.3,88.2,125,87z"/>
		<path class="st119" d="M139.1,91c0,2.8-0.1,5.6,0.2,8.3c0.1,1.4-0.5,1.7-1.5,2C137.4,97.7,135.3,94,139.1,91z"/>
		<path class="st20" d="M160.1,87.1c4.8,0.8,2.4,4.3,2.6,6.8c-0.2,0-0.5,0.1-0.7,0.1c-2.9-0.3-2.9-0.3-2.9-5.1
			C159.4,88.3,159.8,87.7,160.1,87.1z"/>
		<path class="st120" d="M125,87c1.3,0,2.6,0.1,3.9,0.1c-0.9,2.5-0.4,5.3-1.9,7.7C123.5,92.9,125.4,89.7,125,87L125,87z"/>
		<path class="st118" d="M125.1,87c1,2.5,0.4,5.4,2,7.8c-0.5,1.4-1.9,1.5-3,2.2C124.4,93.7,122.8,90.1,125.1,87z"/>
		<path class="st121" d="M159.1,88.9c2.1,1.1-0.5,4.8,2.9,5.1c-0.2,1.4-0.7,2.5-2.1,1.3C157.8,93.5,157.2,91.3,159.1,88.9z"/>
		<path class="st119" d="M153.9,96c-1.1-0.2-2.2-0.4-3.5-0.7c0.4-1.5,2.3-2.5,1.6-4.3C155.8,91.5,153.4,94.2,153.9,96z"/>
		<path class="st122" d="M163.1,94c2.1,3.4,0.5,7.1,0.8,10.6C162.2,101.3,163.4,97.6,163.1,94z"/>
		<path class="st52" d="M250,72c-0.5,0-1,0.1-1.5-0.1c-1.3-0.4-0.5-0.8,0.1-1.1c9.3-5,18.6-10.1,27.9-15c3.4-1.8,6.8-1.5,10.3,0.5
			c9,5.1,18.2,9.9,27.5,14.9c-1.1,1.3-2.2,0.5-3.2,0.7C290.7,71.4,270.3,71.2,250,72z"/>
		<path class="st123" d="M312,60.1c-7.1,1.1-12.8-2-19.4-7c24,1.9,46.7,3.2,69.6,0.5c-5.2,2.8-9,8.8-16.5,6.2
			c-2.3-0.8-5.2-0.2-7.8-0.2c-1.4,0-2.8,0-2.8,1.9c0,1.8,1.1,2.1,2.6,2.1c2.1-0.1,4.2,0,6.2,0c-7.1,6.4-17.2,10.2-28.9,2.5
			c2.2-2.8,4.8-3.5,7.7-1.2c3,2.3,4.6,2.5,6.4-1.2c1.8-3.8,2.3,0.1,3.3,1c0.4-1.3,0.4-2.5,0-3.8c-3.4,0.4-6.5,1.4-9.8,2
			c-0.3-0.3-0.5-0.7-0.7-1.1c-1.2-3.6-3.4-1.2-5.2-0.8c-1.2,0.3-2.4,0.4-3.5,0.1C312.8,60.7,312.4,60.4,312,60.1z"/>
		<path class="st124" d="M249,91c-1.4-1.1-3.7-1.9-3.1-3.9c0.7-2.2,3.1-2,5.1-2c18.9,0,37.8,0,56.8,0c0.3,0,0.7,0,1,0
			c2.3,0,4.9,0.3,5.5,2.4c0.6,1.8-2.2,2.4-3.5,3.6c-11.6,0.7-23.2,1.3-34.7,0.7c-6.3-0.4-12.6,0.5-18.9,0.3
			C254.5,91.9,251.6,92,249,91z"/>
		<path class="st124" d="M271.7,35.9c-1.8,2-4.1,2.3-6.7,2.3c-18.5-0.1-36.9,0-55.4,0c-1.2,0-2.3,0-3.5-0.1c-1.6-0.1-3-0.8-2.9-2.7
			c0.1-1.6,1.4-2.1,2.8-2.2c1-0.1,2,0,3,0c18.8,0,37.6,0,56.4,0C268,33.1,270.6,32.9,271.7,35.9z"/>
		<path class="st125" d="M356.9,38c-20.4,0-40.8,0.1-61.2,0.1c-2.2,0-5,0-4.9-2.7c0.1-2.3,2.8-2.3,4.8-2.3c8.1,0,16.3,0,24.4,0.1
			c3.2,1.6,6.7,1.5,10.2,1.5c7.5,0,14.9-0.2,22.4,0.1C354.4,34.8,357.6,34.1,356.9,38z"/>
		<path class="st126" d="M241.1,69.1c-8.9,3.4-16.2-0.6-23.4-5c0.9-2.2,3.5-0.7,4.6-2.7c-4.1-2.8-9.7,2.3-13.3-2.3
			c0.9-2.3,3-2.3,4.9-2.4c4.4,0,8.8-0.3,13.1,0.5c4.2,1.5,8.5,1.8,12.8,0.6c0.4,0.3,0.7,0.7,0.8,1.1c0.2,0.7,0.1,1.4-0.1,2.1
			c-1.1,2-2,4-0.3,6.2C240.7,67.8,241,68.4,241.1,69.1z"/>
		<path class="st70" d="M373,55.1c0.7,0.8,1.4,1.6,2.1,2.3c2.2,3.8,1.2,7.8,0.8,11.7c0,0.6,0,1.3,0,1.9c-8.6,1.8-17.3,0.9-25.9,0.9
			c-2.6-2.2-0.2-2.6,1.2-2.8c3.4-0.6,6.9-0.1,11.1-0.4c-2.7-1.8-4.7-3.5-3.4-6.6C363.4,59.2,367.9,56.5,373,55.1z"/>
		<path class="st127" d="M250,72c2.5-1.5,5.6-1.6,8.2-1.6c17-0.2,34-1.2,51,0.9c0.6,0.1,1.2,0.5,1.9,0.7c-1.1,1.4-2.7,1-4.1,1
			c-17.6,0-35.2,0-52.7,0C252.7,73,251.1,73.5,250,72z"/>
		<path class="st125" d="M228,58.1c-4.4,0-8.8,0-13.3,0c-2,0-4-0.1-5.8,1c-3.1-1.6-6.2-3.2-9.4-4.8c4.3-1.3,8.4-1.5,12.4-0.2
			c14.4,1.5,28.9,1.5,43.3,0.1c2.7,1.3,6.7-1.2,8.6,2.8c-1.6,0.7-3.3,1.4-4.9,2.1c-5.7,0.6-11.3-0.8-17,0l0,0c-0.7,0.6-1.4,0.6-2,0
			c0-0.3,0-0.7,0-1C236,58.3,232,58.7,228,58.1z"/>
		<path class="st128" d="M189,27.1c46,0,92,0,138,0c1.4-0.9,2.7-1.9,4.5-1.7c1.7,0.2,1.8,0.8,0.5,2.8c-5.3,0-10.6,0-16,0
			c-40.4,0-80.9,0-121.3-0.1C192.8,28.1,190.7,28.9,189,27.1z"/>
		<path class="st129" d="M312,60.1c0.3,0,0.7,0,1,0c2.9,2.9,6.9,0.2,10,2c1.4-0.8,1.7-3.9,4.6-1.6c1.5,1.2,3.9-1.1,6.2-1.7
			c0.1,1.4,0.4,2.7,0.2,4c-0.3,1.7,1.3,4.8-1.6,4.8c-2.5,0-0.7-3.1-1.8-4.8c-1.1,1.8-0.1,4.2-3.3,5.1s-3.3-1.2-4.9-2.2
			c-2.1-1.4-4.9-1.9-7.3,0.3C312,65.1,309.9,63.7,312,60.1z"/>
		<path class="st130" d="M356.9,38c-0.4-2.9-2.8-1.9-4.4-1.9c-8-0.1-16-0.2-24,0c-3.3,0.1-6.3-0.4-8.6-3c2,0,4.1-0.1,6.1-0.1
			c8.9,0,17.8,0.1,26.6,0.1c2.3,0,4.6,0,6.3,2C358.9,36.5,358.3,37.6,356.9,38z"/>
		<path class="st126" d="M256,55.1c-8.6,2-17.4,0.7-26.1,0.9c-6,0.1-12.2,0.9-17.9-1.9c6-0.6,12-1.8,17.9,0.4c2,0.8,3.8,0.1,5.8-0.1
			c10.7-1.4,21.5-1.3,32.2-1.3c0.6,0,1.5,0,1.2,1c-0.3,0.9-1.3,0.9-2.1,1C263.3,55.1,259.7,55.1,256,55.1z"/>
		<path class="st131" d="M359,62.1c-0.1,4.2,4,4.8,6.8,7.3c-5.8,1.9-11.6-0.7-16.8,1.6c-1.7,1.5-3.8,1.6-5.9,1.2
			c-0.4-0.3-2.3-0.2-0.6-1.2C347.9,67.9,353.5,65,359,62.1z"/>
		<path class="st122" d="M249,91c20.6,0,41.3,0.1,61.9,0.1c-4.3,2.5-9.1,1.3-13.5,1.5c-14,0.6-28,0.3-42,0.2
			C253.1,92.8,250.7,93,249,91z"/>
		<path class="st132" d="M334.9,94.3c1-0.1,2.1-0.1,3.1-0.2c0.6,0.6,1.3,1,1.9,1.5c1.7,1.3,3.8-0.2,5.6,0.9c0.2,0.2,0.3,0.3,0.5,0.5
			c0.9,2.2,1.6,4.2-2.1,4.3c-0.8,0-1.5,1.1-2.2,1.7c-2.2,1.3-4,0.9-5.6-1c-1.5-0.6-3-0.3-4.3-2.1c-1.8-2.5-0.1-2.8,1.2-3.8
			C333.3,95.2,334.2,94.9,334.9,94.3z"/>
		<path class="st133" d="M188.1,54.1c-0.9-0.4-1.4-2.2-2.8-1c-0.1-2-0.1-4.1-0.2-6.1c-1-5.8-0.3-11.6-0.6-17.5
			c-0.1-1,0.5-1.9,1.5-2.3c2-0.8,0.8,1.9,2.1,1.9c0.1,5.4,0.1,10.7,0.2,16.1c0.8,1.6,1.2,3.2,0,4.8
			C188.1,51.3,188.1,52.7,188.1,54.1z"/>
		<path class="st134" d="M358,99c-3.8-2.7-3.9-7-4.8-10.9c-0.2-0.7,0.3-1.9,0.8-2.2c3-1.5,3.8-8.5,9.9-2.5c3,3,4.7,5,3.9,8.7
			c-0.7,3-1.8,6-4.6,7.9c-0.2-0.2-0.3-0.3-0.5-0.5c-0.3-0.7-0.2-1.4,0-2.1c0.4-1.2,1.1-2.4,1.6-3.6c2.6-6.3,1.3-8-5.6-7.1
			c-0.4,0.2-0.8,0.4-1.2,0.6c-2.5,3.4,0.3,6.1,1,9.1c0.2,0.7,0.3,1.4,0,2C358.3,98.6,358.2,98.8,358,99z"/>
		<path class="st135" d="M343.1,72.1c2-0.4,3.9-0.8,5.9-1.2c7.7-0.2,15.5,0.8,23.2-0.7c1.4-0.3,2.6,0.3,3.8,0.8
			c1.1,0.7,0.1,1.4,0,2.1c-9.4,0-18.8,0-28.2,0C346.1,73,344.4,73.6,343.1,72.1z"/>
		<path class="st136" d="M336,88.1c0.4-0.7,0.7-1.4,1.1-2.1c0.7-1.9,2.4-1.8,3.9-2.1c2.2-0.4-0.6-0.6,0-1c-0.3-3.3,2.5-2.2,3.6-2
			c4.3,0.8,1.8,4.8,2.8,7.1c0.6,1.4-0.2,3-2.4,1.9C342,89.2,338.3,91.6,336,88.1z"/>
		<path class="st137" d="M293.8,39.3c20.4,0,40.8,0,61.1,0c0,0.2,0,0.4,0,0.6c-20.4,0-40.8,0-61.3,0
			C293.7,39.7,293.8,39.5,293.8,39.3z"/>
		<path class="st122" d="M206.9,39.3c20,0,40.1,0,60.1,0c0,0.2,0,0.4,0,0.6c-20.1,0-40.2,0-60.3,0C206.8,39.7,206.9,39.5,206.9,39.3
			z"/>
		<path class="st138" d="M207.8,81.8c-0.2,0.6,1.2,3.2-1.8,2.5c-2.3-0.6-6.4,1.3-6.1-4c0.2-3,1.4-3.4,4-3.5
			C207,76.8,208.5,77.9,207.8,81.8z"/>
		<path class="st139" d="M209.1,71c2.7-0.1,5.3,0.3,7.9,1.1c-5.7,2.3-11.7,0.5-17.5,1c-3.5,0.3-7,0-10.6,0c0-0.7,0-1.4,0-2.1
			C195.7,71,202.4,71,209.1,71z"/>
		<path class="st140" d="M192.2,81.6c-0.5-3.4,0.3-4.8,3.6-4.7c2.7,0.1,3.1,1.2,3.4,3.6c0.5,4.5-3.2,3.6-5.3,4
			C191.1,85,192.5,82.4,192.2,81.6z"/>
		<path class="st141" d="M391.2,45.1c-0.4,0.4-0.8,0.8-1.2,1.2c-2.2-3.8-0.7-8-1-11.9c-0.3-3.7-0.1-7.5-0.1-11.3
			c0.4-0.8,1.1-1,1.9-1C391,29.8,391.1,37.4,391.2,45.1z"/>
		<path class="st142" d="M240,59.1c0.7,0,1.4,0,2,0c0,1.6,0,3.2,0,4.8c2.7-0.2,5.4-0.3,8.8-0.6c-3.2,2.9-6.8,4-9.9,5.8
			c-0.4-0.4-0.7-0.8-1.1-1.1c-1.3-2.3-1.3-4.6,0.1-6.9C240,60.4,240,59.7,240,59.1z"/>
		<path class="st143" d="M340.9,82.9c1.1,0.1,2.1,0.2,4.4,0.4c-3.6,1.1-5.9,1.9-8.3,2.6c-0.8-1.5-2.7-0.7-3.7-1.6
			C335,78.1,338,80.8,340.9,82.9z"/>
		<path class="st142" d="M242,59.1c5.7-1.9,11.3-1.5,17,0c-2.8,2.8-6.3,1.2-9.4,1.2C247.3,60.3,244.5,60.1,242,59.1z"/>
		<path class="st144" d="M336,88.1c2.6,2.4,6.4-0.6,9,1.9c-4.7,1.7-9.4,0.8-14.7,0.2C332.1,87.6,334.6,89.6,336,88.1z"/>
		<path class="st145" d="M373.3,106.9c-5.5,0-9.7,0.5-13.8-1.1C363.6,105.4,367.8,103.8,373.3,106.9z"/>
		<path class="st20" d="M321.1,122.7c0-1.6,0-3.3,2.1-3.3c1.1,0,2,1.1,1.4,2.1c-0.8,1.4,0.4,3.9-1.9,4.1
			C320.6,125.9,321.4,123.8,321.1,122.7z"/>
		<path class="st142" d="M256,55.1c3.7-1.6,7.3-1.6,11,0c-1,0.6-2,1.3-3,1.9C261.7,54.7,258.2,57.4,256,55.1z"/>
		<path class="st146" d="M357.4,106c-3.1,1-6.2,1.2-9.2-0.1C351.4,104.7,354.4,104.4,357.4,106z"/>
		<path class="st147" d="M352,126c-1.9,1-2.9,0.4-2.5-1.7c0.3-1.3-0.1-2.2-0.6-3.2c2.5-1.6,4.3-2.1,3.3,2C351.9,124,352,125,352,126
			z"/>
		<path class="st148" d="M339.1,96c-0.8-0.4-1.1-1.1-1.1-1.9c2.3,0,4.5-0.2,6.8-0.1c2.3,0.1,3,1.1,1.2,3l0,0
			C343.9,95.5,341.2,97.5,339.1,96z"/>
		<path class="st115" d="M281,50.5c-1.1-2.5-2-4.2-1.1-6c0.3-0.7,1.9-0.6,2.2,0C283,46.3,282.1,48,281,50.5z"/>
		<path class="st149" d="M232.1,76c0.6-1,1.2-2.1,2.6-1.4c0.9,0.4,0.9,1.2,0.6,2.1c-0.6,1.5,0.5,3.4-1.3,4.5
			C230.8,80.3,232.5,77.7,232.1,76z"/>
		<path class="st150" d="M328.4,80.7c-0.6-0.4-1-0.6-1-0.7c0.3-1.8-1.7-3.7,0-5.5c0.5-0.5,1.5-0.3,1.7,0.3
			C329.6,76.8,329.2,78.7,328.4,80.7z"/>
		<path class="st151" d="M367.9,45.2c1.2-1.3,3.2-1.8,3.4-0.1c0.2,1.5,0.8,4.5-2.3,5C367.5,48.7,368,46.9,367.9,45.2z"/>
		<path class="st152" d="M190,46.1c0.1-1.8,1.5-2.6,2.7-1.8c2.4,1.8-0.5,3.5,0.1,5.6C190.3,49.1,191.6,46.7,190,46.1L190,46.1z"/>
		<path class="st153" d="M232.1,76c1.8,1.3,0.1,3.9,1.9,5.1c1,2.2-0.2,2.7-1.6,1.5C230.2,80.7,230.4,78.2,232.1,76z"/>
		<path class="st154" d="M367.9,45.2c1.1,1.5,1,3.2,1.1,4.9c0.1,0.9,2.1,0.9,1.2,2.2c-0.7,0.9-1.5,0.2-2-0.5
			C366.5,49.6,366.2,47.4,367.9,45.2z"/>
		<path class="st148" d="M336,102c1.9,0.3,3.8,0.7,5.6,1c-0.3,2.9-2.6,1.6-4,1.7C335.7,105,336.1,103.2,336,102z"/>
		<path class="st155" d="M334.9,94.3c0,1.4-0.9,1.6-2,1.8c-1.2-0.2-2.6,0.3-3.7-1.1C330.9,93.1,333,94.5,334.9,94.3z"/>
		<path class="st156" d="M188.2,50c0-1.6,0-3.2,0-4.8c0.6,0.3,1.2,0.6,1.9,0.9l0,0C189,47.2,192.3,50.3,188.2,50z"/>
		<path class="st157" d="M363.1,100c-0.2,1.4-0.8,2.9-2.3,2.6c-1.7-0.3-2.7-1.8-2.7-3.6l0,0C359.8,98.5,361.4,99.5,363.1,100
			L363.1,100z"/>
		<path class="st158" d="M464.6,53.6c9.2,0,18.5,0,27.7,0c0,0.4,0,0.7,0,1.1c-9.2,0-18.4,0-27.7,0C464.6,54.3,464.6,53.9,464.6,53.6
			z"/>
		<path class="st159" d="M571.4,54.6c-9.2,0-18.5,0-27.7,0c0-0.3,0-0.6,0-0.9c9.2,0,18.5,0,27.7,0C571.3,54,571.4,54.3,571.4,54.6z"
			/>
		<path class="st160" d="M425.6,53.4c9.3,0,18.5,0,27.8,0c0,0.4,0,0.8,0,1.2c-9.2,0.9-18.5,0.3-27.8,0.4
			C425.6,54.5,425.6,53.9,425.6,53.4z"/>
		<path class="st161" d="M582.8,53.3c9.2-0.5,18.4-0.5,27.5,0c0,0.4,0,0.8,0,1.2c-9.2,0-18.4,0-27.6,0
			C582.7,54.2,582.8,53.7,582.8,53.3z"/>
		<path class="st162" d="M397,66.8c0-2.5,0-5,0-7.5c0.4-1.4,0.3-3.3,2.3-3.2c2.3,0.1,1.6,2.1,1.7,3.4c0.1,2.3,0.1,4.6,0,6.9
			c-0.1,1.5,0.6,3.9-1.7,4C397.1,70.7,397.4,68.3,397,66.8z"/>
		<path class="st93" d="M535,69c1.4-3.3,0.7-6.8,0.6-10.2c0-1.2-0.2-2.5,1.3-2.7c1.8-0.2,2,1.2,2,2.6c0,3.1,0.2,6.3-0.1,9.4
			C538.5,71.7,536.9,71.4,535,69L535,69z"/>
		<path class="st163" d="M379.6,63.1c1-2.2-1.4-6.6,1.7-6.6c3.1,0,1.5,4.4,1.4,6.7c-0.1,2.4,1.8,6.8-1.8,6.9
			C378.6,70.2,380.5,65.6,379.6,63.1z"/>
		<path class="st164" d="M376,69.1c-2-3.8-0.7-7.8-0.8-11.7c2.5-0.3,3.7,1.4,3.7,3.4C378.9,63.8,380.3,67.6,376,69.1z"/>
		<path class="st98" d="M498.9,56.1c0,4.4,0,8.9,0,13.3c-0.5,0-0.9,0-1.4,0c-1.2-4.4-0.3-8.9-0.5-13.3
			C497.6,56.1,498.3,56.1,498.9,56.1z"/>
		<path class="st98" d="M577.9,56.1c0,4.5,0,8.9,0,13.4c-0.5,0-0.9,0-1.4,0c-1.1-4.4-0.3-8.9-0.5-13.3
			C576.6,56.1,577.2,56.1,577.9,56.1z"/>
		<path class="st165" d="M414.4,53.9c-3.1,1.7-6.3,1-9.5,0.7C407.9,52,411.2,53.4,414.4,53.9z"/>
		<path class="st166" d="M385.4,54.7c3.6-2.2,5.8-2,9.1-0.6C391.4,55.5,389.1,55.1,385.4,54.7z"/>
		<path class="st167" d="M185.9,27.2c-1.8,6.5-0.3,13.2-0.9,19.8c-2.1-3.8-1.1-8-1.3-12c-0.2-3.7,0.8-7.5-3.8-9.3
			c0.1-0.1,0.1-0.4,0.2-0.4c0.3-0.1,0.6-0.2,1-0.2C182.7,25.8,184.3,26.5,185.9,27.2z"/>
		<path class="st168" d="M167,56.2c0,4.1,0,8.2,0,12.9c-6.3-2.3-12.1-4.5-18-6.5c-1.9-0.6-1.8-2.1-2-3.5c1-3.6-0.2-7.4,0.3-11
			c0.3,0,0.5,0,0.8,0.1c0.8,1.3,2-1.4,2.9,0.2c1.5,1.9,3.6,1.1,5.5,1.3c1.9,0.2,4-0.3,5.6,1.2c1.5,1.1,4.6-1.7,5,2.1
			c-0.2,0.2-0.3,0.4-0.5,0.5c-3.8,1.6-7.9,0.4-11.5,0.9C158.7,55.5,163.3,53.2,167,56.2z"/>
		<path class="st68" d="M167.3,72.9c0.3-2.9,0.6-5.9,0.9-8.8c2.2,0.2,4.4-2.4,6.5,0.2c0.5,0.6,0.3-0.3,0.3-0.4
			c0.2-1.3,0.9-2.4,2.3-3.3c-3.6,0.1-7.3,1.8-9.1-2.6c-0.4-1-0.7-2.1-1.1-3.1c-0.6-0.6-0.7-1.3,0-1.9H167c5.6,1.4,11.3,2.8,16.9,4.2
			c1,3.7-0.2,7.6,0.3,11.3c0.2,1.6-0.5,2.4-2.2,2.6C177.1,71.7,172.2,72.3,167.3,72.9z"/>
		<path class="st169" d="M150.1,46.1c-0.5-1-0.6-2-0.1-3c4.7,0,9.5,0,14.2,0.1c0.9,0,2.2-0.4,2.3,1c0,0.5-0.9,1.2-1.4,1.8
			C160.1,48.4,155.1,48.2,150.1,46.1z"/>
		<path class="st170" d="M150.1,46.1c5-0.1,10-0.1,14.9-0.2c1.3,0.3,3.2,0.4,1,2.3c-5.3,1.2-10.7,2.9-16-0.1c-0.5,0.7-1,1.4-1.5,2.2
			c-0.2-0.7-0.3-1.4-0.5-2.1c0-1.6,0-3.3,0-5.1C149.7,43.6,148.6,45.7,150.1,46.1z"/>
		<path class="st50" d="M150,48.1c5.3,0,10.7,0.1,16,0.1c-1,1.4-3.3,0.9-4,2.8c-3.2,0-6.5,0-9.7,0.2C149.8,51.2,149.7,49.9,150,48.1
			z"/>
		<path class="st170" d="M150.1,42.1c0-0.4,0-0.8,0-1.2c5.6,0,11.1,0,16.7,0c0,0.4,0,0.8,0,1.2C161.2,42.1,155.6,42.1,150.1,42.1z"
			/>
		<path class="st171" d="M332,28.1c1.4-1.7,0.3-2-1.1-1.9c-1.3,0.1-2.6,0.6-3.9,0.9c0.9-1.7,2.5-2.4,4.2-2.8
			c13.8-0.3,27.5-0.1,41.3-0.1c1.9,0,4-0.7,5.6,1.2c-1.3,2.4-3.1,3.7-6,3.7c-12.5,0-24.9,0-37.4,0C333.7,29.1,332.7,29,332,28.1z"/>
		<path class="st172" d="M378.1,25.4c-13.9-0.1-27.8-0.1-41.7-0.2c-1.7,0-3.7,0.8-5.1-0.9c0.9-0.4,1.8-0.9,2.7-1.3
			c15.9,0,31.8,0,47.8,0c0.1,0.3,0.2,0.6,0.3,0.8C380.7,24.3,379.4,24.9,378.1,25.4z"/>
		<path class="st173" d="M147.2,32.1c-3.4,2.3-6.8,0.3-10.1-0.1c-7-0.9-14.1-0.1-21-1.9c1.6-6.1,2.3-6.4,7.8-6.5
			c4.4-0.1,8.8,1,13.2-0.4c7.2,0,14.4-0.1,21.6,0c1.5,0,3.4-0.6,4.4,1.3C157.8,27,152.5,29.5,147.2,32.1z"/>
		<path class="st174" d="M151.2,33.9c3-2.6,5.2-5.8,9.5-4.2C156,27.7,156.8,36.7,151.2,33.9z"/>
		<path class="st175" d="M137.1,23.2c-2.6,2.6-5.6,1.1-8.4,0.9c-5.4-0.4-10.1,0.4-12.6,6C105.4,30.2,94.7,30.8,84,32
			c-4.9,0.6-9.9,0.1-12.9-4.9C93,24.8,115,22.7,137.1,23.2z"/>
		<path class="st176" d="M492,39.2c3.3,1.9,6.9,1.6,10.5,1.3c2.1-0.2,4.3-0.3,6.5-0.3c1.6,0,3.9-0.1,3.5,2.3
			c-0.4,2.3-2.1,0.6-3.4,0.6c-1.9-0.1-3.7,1.3-6,1.2c-13-0.5-25.9,0.4-38.9-0.5c-3.1-0.2-7-0.6-10.1,1.3c-1.6,1.7-3.7,1.1-5.6,1.1
			c-10.6,0.2-21.2-0.2-31.8,0.2c-0.9,0.3-1.8,0.5-2.6-0.3l0.2-0.1c2.1-3.4,5.8-4.7,8.7-7c16.9-0.7,33.9-0.2,50.8-0.2
			C479.8,38.6,485.9,37.9,492,39.2z"/>
		<path class="st177" d="M492,39.2c-23-0.1-46.1-0.2-69.1-0.3c1.1-1,2.5-0.8,3.8-0.8c48.6,0,97.3,0,145.9,0c0.8,0,1.7,0.1,2.5,0.2
			c-6.3,1.7-12.7,0.2-19,0.8c-1.9,1.8-4.3,1.4-6.6,1.5c-7.3,0.1-14.6,0.1-21.9,0c-3.7-0.5-7.4,0.2-11.1-0.5c-0.6-0.2-1.1-0.5-1.5-1
			C507.3,39.2,499.6,39.2,492,39.2z"/>
		<path class="st142" d="M498.1,36c-1.4-1.3-3-2.5-2.8-4c0.2-2,2.3-2.8,4.1-2.4c1.3,0.2,3.6,0.9,2.9,2.6
			C501.7,33.7,499.6,34.7,498.1,36z"/>
		<path class="st72" d="M541.8,32.1c-1.4,1.2-2.7,3-4.3,3.4c-1.8,0.5-2.5-1.8-3-3.1c-0.6-1.6,1-2.2,2.4-2.3
			C538.5,30,540.4,29.7,541.8,32.1z"/>
		<path class="st110" d="M420.3,30c1.3,0.1,3.2,0.1,3.1,1.7c-0.1,1.9-2.2,3.1-3.7,3.4c-1.2,0.2-2.4-1.7-2.5-3.1
			C416.9,29.7,418.9,30.2,420.3,30z"/>
		<path class="st147" d="M459.2,30c1.3,0.1,3-0.1,3.1,1.6c0.1,1.8-1.4,3-3.2,3.1c-1.7,0.1-2.8-1.1-2.8-2.7
			C456.3,30.3,457.9,30.2,459.2,30z"/>
		<path class="st178" d="M414,46c0.6,0,1.3-0.1,1.9-0.1c1.3-0.4,2.6-0.3,4-0.3c47.9,0,95.8,0,143.7,0c1.5,0,3-0.4,4.4,0.5
			c-1.5,1.6-3.4,1-5.2,1c-47.9,0-95.8,0-143.7,0C417.3,47,415.4,47.8,414,46z"/>
		<path class="st179" d="M567.9,46.1c-48.8,0-97.7,0-146.5,0c-1.8,0-3.6-0.1-5.5-0.2c4.2-1.6,8.5-0.6,12.7-0.7
			C437,45,445.5,45,453.9,45c36.4,0.1,72.7,0.1,109.1,0.2c1.7,0,3.3,0.1,5,0.1C568,45.5,568,45.8,567.9,46.1z"/>
		<path class="st176" d="M514.9,39.1c0.3,0,0.7,0,1-0.1c3.6,0.7,7.3,1.1,10.9,0.1c9.7,0,19.4,0,29.1,0c4.1,2.1,9.1,0.1,13.2,2.5
			c-0.9,2.1-2.6,2.4-4.5,2.4c-15.3,0-30.6,0.1-45.9,0C515.9,44,512.7,43.6,514.9,39.1z"/>
		<path class="st180" d="M185.2,81.1c0,5.6-0.1,11.3-0.1,16.9c-1.8-1.2-1-3-1.1-4.5c-0.1-6.6,0-13.1,0.8-19.8
			C184.9,76.2,185.1,78.7,185.2,81.1z"/>
		<path class="st181" d="M168.2,58c3.6,3.5,7.3,1.6,12-0.4c-2.2,3.8-5.1,6-5.4,9.5c-0.6-4.6-4.9-1.1-6.6-3.1
			C168.2,62.1,168.2,60.1,168.2,58z"/>
		<path class="st182" d="M167.1,53c0,0.6,0,1.3,0,1.9c0,0.4-0.1,0.9-0.1,1.3c-4.8,0.1-9.7,0.1-14.5,0.1c-1.1,0-2.5,0.3-2.6-1.5
			c-0.2-2.2,1.5-1.8,2.7-1.8C157.5,53.1,162.3,53,167.1,53z"/>
		<path class="st183" d="M279.9,65.6c-2.7,0-5.5,0.1-8.2,0c-0.9,0-2.2,0.4-2.5-0.8c-0.3-1.2,0.1-2.4,1.4-2.8
			c4.7-1.3,9.3-3.6,14.3-1.5c0.8,0.3,1.5,0.8,2.3,1c1.6,0.5,4.5-1,3.9,2.5c-0.6,3.1-3.2,1.2-4.8,1.5C284.1,65.9,282,65.6,279.9,65.6
			z"/>
		<path class="st60" d="M323,62.1c-2.7,1-5.4,0.3-8.2,0.5c-2.1,0.2-1.9-1.1-1.8-2.5c1.3,0,2.7,0,4,0c2.1-0.2,4.4-1.5,6,1
			C323,61.4,323,61.7,323,62.1z"/>
		<path class="st129" d="M323,61.1c-2-0.3-4-0.7-6-1C319.4,58.1,321.7,56.4,323,61.1z"/>
		<path class="st142" d="M228,58.1c4-1,8-2,12,0C236,61.2,232,60.2,228,58.1z"/>
		<path class="st69" d="M230.3,61.7c3.8,0.7,2.7,3.3,2.5,5.4c-0.1,0.8-0.9,1.8-1.7,1.1C229.1,66.3,230.2,64,230.3,61.7z"/>
		<path class="st184" d="M240,61.1c0,2.3,0,4.6,0,6.9C236.9,65.6,237,63.3,240,61.1z"/>
		<path class="st60" d="M339.1,96c2.4-0.5,4.8-0.8,7,1C343.8,95.8,341,99.5,339.1,96z"/>
		<path class="st185" d="M358,85.8c2.8-1.9,5.4-1,7.7,0.7c2.5,1.8,0.7,4.3,0.1,6.3c-0.6,1.8-0.8,3.9-2.9,4.9
			c-1.5-0.1-2.7-0.5-3.3-2.1C362.1,91.3,361.8,89.3,358,85.8z"/>
		<path class="st186" d="M358,85.8c2,0.7,4,1.4,6.9,2.4c-4.1,1.7-1.1,6.3-4.7,7.8c-0.6,0.5-1.2,0.6-1.9,0.4
			c0.8-3.6-2.5-6.7-0.9-10.4C357.7,86.2,357.9,86.1,358,85.8z"/>
		<path class="st187" d="M357.4,86.1c-0.9,1.7,5.2,2.4,0.7,4.7c-0.1,0.1,0,1.1,0.2,1.2c4.6,1.7-0.5,2.6-0.3,4
			c0.2,0.3,0.3,0.5,0.2,0.8s-0.2,0.4-0.3,0.4c-2.1-2.2-2.6-4.9-3-7.7C354.8,87.8,354.8,85.9,357.4,86.1z"/>
		<path class="st188" d="M358,97.1c0-0.4,0-0.8,0-1.2c0.7,0,1.5,0.1,2.2,0.1c1.3-0.1,2.2,0.5,2.7,1.6c0,0.8,0,1.5,0,2.3
			c-2.1,1.9-3.4,0-5-1C358,98.4,358,97.7,358,97.1z"/>
		<path class="st71" d="M526.9,39.2c-3.7,2.8-7.3,0.8-10.9-0.1C519.6,39.1,523.2,39.1,526.9,39.2z"/>
	</g>
</g>
</svg>
