<?xml version="1.0" encoding="utf-8"?>
<!-- Generator: Adobe Illustrator 25.0.0, SVG Export Plug-In . SVG Version: 6.00 Build 0)  -->
<svg version="1.1" xmlns="http://www.w3.org/2000/svg" xmlns:xlink="http://www.w3.org/1999/xlink" x="0px" y="0px"
	 viewBox="0 0 722 150" style="enable-background:new 0 0 722 150;" xml:space="preserve">
<style type="text/css">
	.st0{display:none;}
	.st1{display:inline;stroke:#FFFFFF;stroke-miterlimit:10;}
	.st2{fill:#171715;}
	.st3{fill:#141718;}
	.st4{fill:#9AA8B0;}
	.st5{fill:#C4C3B9;}
	.st6{fill:#696968;}
	.st7{fill:#B5B4AD;}
	.st8{fill:#1E1E1C;}
	.st9{fill:#373E42;}
	.st10{fill:#22272A;}
	.st11{fill:#151513;}
	.st12{fill:#1D2123;}
	.st13{fill:#181C1E;}
	.st14{fill:#2D3336;}
	.st15{fill:#32312C;}
	.st16{fill:#31383B;}
	.st17{fill:#242114;}
	.st18{fill:#201D12;}
	.st19{fill:#1A180F;}
	.st20{fill:#6C6447;}
	.st21{fill:#53534E;}
	.st22{fill:#4D4730;}
	.st23{fill:#58523D;}
	.st24{fill:#20201D;}
	.st25{fill:#58523A;}
	.st26{fill:#5B5235;}
	.st27{fill:#C7BC97;}
	.st28{fill:#544E37;}
	.st29{fill:#A9A07B;}
	.st30{fill:#211D11;}
	.st31{fill:#6C6037;}
	.st32{fill:#A89E80;}
	.st33{fill:#807445;}
	.st34{fill:#726437;}
	.st35{fill:#989896;}
	.st36{fill:#7E7247;}
	.st37{fill:#695D34;}
	.st38{fill:#A3A3A2;}
	.st39{fill:#706D61;}
	.st40{fill:#E7DDBA;}
	.st41{fill:#CBCCCB;}
	.st42{fill:#E0E0E0;}
	.st43{fill:#5E532C;}
	.st44{fill:#BCB086;}
	.st45{fill:#7A6B3A;}
	.st46{fill:#676045;}
	.st47{fill:#AA985B;}
	.st48{fill:#41494E;}
	.st49{fill:#717E85;}
	.st50{fill:#33332F;}
	.st51{fill:#2E3130;}
	.st52{fill:#343A3D;}
	.st53{fill:#2B3235;}
	.st54{fill:#6F7B7E;}
	.st55{fill:#A6B6B6;}
	.st56{fill:#50504A;}
	.st57{fill:#262522;}
	.st58{fill:#3B3B36;}
	.st59{fill:#7B7566;}
	.st60{fill:#827A69;}
	.st61{fill:#5A5A52;}
	.st62{fill:#5F7482;}
	.st63{fill:#5E594F;}
	.st64{fill:#303635;}
	.st65{fill:#9C927E;}
	.st66{fill:#95A3A3;}
	.st67{fill:#545148;}
	.st68{fill:#40494D;}
	.st69{fill:#4A4A43;}
	.st70{fill:#353531;}
	.st71{fill:#67675F;}
	.st72{fill:#827C6E;}
	.st73{fill:#403F39;}
	.st74{fill:#44443F;}
	.st75{fill:#6E685C;}
	.st76{fill:#171A1C;}
	.st77{fill:#40403B;}
	.st78{fill:#4B565B;}
	.st79{fill:#1E2325;}
	.st80{fill:#52636F;}
	.st81{fill:#48473F;}
	.st82{fill:#5D594F;}
	.st83{fill:#4C4A43;}
	.st84{fill:#555249;}
	.st85{fill:#575349;}
	.st86{fill:#989384;}
	.st87{fill:#040504;}
	.st88{fill:#A69D8C;}
	.st89{fill:#847C6A;}
	.st90{fill:#292926;}
	.st91{fill:#332E1C;}
	.st92{fill:#121210;}
	.st93{fill:#3E464B;}
	.st94{fill:#1D2225;}
	.st95{fill:#5F6B71;}
	.st96{fill:#141719;}
	.st97{fill:#4D575C;}
	.st98{fill:#020302;}
	.st99{fill:#525C61;}
	.st100{fill:#394145;}
	.st101{fill:#3B4347;}
	.st102{fill:#3B4246;}
	.st103{fill:#3A4245;}
	.st104{fill:#384044;}
	.st105{fill:#3E464A;}
	.st106{fill:#434B50;}
	.st107{fill:#869496;}
	.st108{fill:#424A4F;}
	.st109{fill:#596469;}
	.st110{fill:#636F72;}
	.st111{fill:#0C0B07;}
	.st112{fill:#6A685A;}
	.st113{fill:#49442E;}
	.st114{fill:#9C9686;}
	.st115{fill:#CBBE89;}
	.st116{fill:#665D3B;}
	.st117{fill:#C5B889;}
	.st118{fill:#8A7B49;}
	.st119{fill:#B8AE9B;}
	.st120{fill:#867949;}
	.st121{fill:#62572E;}
	.st122{fill:#7C6D3A;}
	.st123{fill:#0F0E09;}
	.st124{fill:#1B180D;}
	.st125{fill:#A89451;}
	.st126{fill:#D7CDB1;}
	.st127{fill:#15130A;}
	.st128{fill:#110F0A;}
	.st129{fill:#453F27;}
	.st130{fill:#434C50;}
	.st131{fill:#475055;}
	.st132{fill:#4E585D;}
	.st133{fill:#1F2426;}
	.st134{fill:#373F42;}
	.st135{fill:#515C61;}
	.st136{fill:#1C1D1B;}
	.st137{fill:#1A1A19;}
	.st138{fill:#606058;}
	.st139{fill:#2A3033;}
	.st140{fill:#16181A;}
	.st141{fill:#151819;}
	.st142{fill:#161819;}
	.st143{fill:#16191A;}
	.st144{fill:#44443E;}
	.st145{fill:#69685F;}
	.st146{fill:#45453F;}
	.st147{fill:#2C3336;}
	.st148{fill:#5D5C54;}
	.st149{fill:#5B666B;}
	.st150{fill:#E5E5E5;}
	.st151{fill:#C0B69F;}
	.st152{fill:#AFA796;}
	.st153{fill:#A79E8B;}
	.st154{fill:#737268;}
	.st155{fill:#898679;}
	.st156{fill:#CBC0A7;}
	.st157{fill:#4F4F49;}
	.st158{fill:#383732;}
	.st159{fill:#A09888;}
	.st160{fill:#5F5E56;}
	.st161{fill:#DBD0B7;}
	.st162{fill:#4D4D47;}
	.st163{fill:#AFA491;}
	.st164{fill:#141412;}
	.st165{fill:#DCD1B7;}
	.st166{fill:#58544A;}
	.st167{fill:#544A27;}
	.st168{fill:#6B6A61;}
	.st169{fill:#D9CA81;}
	.st170{fill:#887944;}
	.st171{fill:#C5B46F;}
	.st172{fill:#8C7C45;}
	.st173{fill:#AB9958;}
	.st174{fill:#0E1010;}
	.st175{fill:#0F1010;}
	.st176{fill:#748183;}
	.st177{fill:#626D70;}
	.st178{fill:#5C676C;}
	.st179{fill:#464029;}
	.st180{fill:#CFBB6E;}
	.st181{fill:#DACA8D;}
	.st182{fill:#CCC1A7;}
	.st183{fill:#453C1F;}
	.st184{fill:#A2A2A1;}
	.st185{fill:#39321A;}
	.st186{fill:#352E19;}
	.st187{fill:#9C8B52;}
	.st188{fill:#AB995A;}
	.st189{fill:#DDCB7B;}
	.st190{fill:#5F6B70;}
	.st191{fill:#222321;}
	.st192{fill:#343430;}
	.st193{fill:#40413C;}
	.st194{fill:#373733;}
	.st195{fill:#363632;}
	.st196{fill:#DCCA7B;}
</style>
<g id="Camada_2" class="st0">
	<rect x="-381" y="-189" class="st1" width="1133" height="480"/>
</g>
<g id="Camada_1">
	<g>
		<path class="st2" d="M721.9,43.1c-1.9,0.7-3.9,0.6-5.9,0.8c-6.4,0.4-12.8-0.8-19.1,1.2c-3.9,1.3-8-0.8-12-1.2
			c-33.2-3.2-66.5-2.7-99.7-1.9c-6.6,0.1-14.8,0-20.3,6.6c-2.2,2.7-2.1,6.3-4.8,8.6c-0.2-0.2-0.4-0.3-0.6-0.5
			c-0.7-1.1-0.7-2.3-0.8-3.5c-0.1-0.7-0.2-1.4-0.7-2c-4.2-1.4-8.5-0.3-12.8-0.7c-2-0.2-4.5,0.5-5.3-2.3c0.6-1.6,4.2-0.9,3.2-3.5
			c-0.7-1.9-2.9-2-4.8-2c-8.5-0.1-17.4-1.8-25.3,0.5c-7.6,2.2-15,1.7-22.5,2.7c-1.3,0.3-2.1,1.7-3.3,2.1c-4.3,0.9-8.6,0.4-12.9,0.4
			c-2.7,0-4.4-1.4-4.6-4.2c-0.1-2-0.3-4-0.1-6c0.3-2.9,1.9-4.7,4.9-4.5c13.9,0.7,27.9-0.5,41.9,0.7c8.5,0.7,17.1,1.1,25.6-0.9
			c2.6-1.3,4.5,0.3,6.7,1.4c0.3-0.8-0.3-2-0.1-3.1c0-1.7,0-3.3,1.2-4.7c2.1-0.1,2,1.6,2.4,2.9c0.2,0.9,0.1,1.7,0.3,2.6
			c1,2.5,3.3,2,5.1,2c33,0.1,66,0.2,99,0.2c2.2,0,4.3-0.2,6.3-1.1c6,1.1,12.1,1.3,18.2,1.1c2.3-0.1,4.7-0.2,6.1-2.4
			c0.4-0.4,0.9-0.5,1.5-0.3c2.7,3.2,6.4,3,10.1,2.9c7.3-0.2,14.5-0.9,21.8,0.4c0.5,0.2,0.9,0.5,1.3,0.9
			C721.9,38.4,721.9,40.7,721.9,43.1z"/>
		<path class="st3" d="M184.1,149.9c-0.3-1.7-2.2-0.9-3-1.9c-2.4-2-1.7-3.4,1.1-4c3.1-0.6,6.3-0.6,9.4-0.6
			c6.9-0.1,13.9,0.3,20.9-0.3c1.3-0.1,2.7-0.2,3.7,0.9c-2.3,4.5-6.6,4.8-10.9,5.1c-5.7,1.2-11.5-0.5-17.1,0.9
			C186.7,149.9,185.4,149.9,184.1,149.9z"/>
		<path class="st4" d="M1.1,118H0.6H0.1c0-27,0-53.9,0-80.9c0.3,0,0.7,0.1,1,0.1c1.6,1.6,1.4,3.6,1.4,5.6c0,6.1,0.1,12.3,0,18.4
			c-0.1,16.7,0,33.5-0.1,50.2C2.5,113.6,3,116.1,1.1,118z"/>
		<path class="st5" d="M701.8,26.2c6.7-0.1,13.4-0.1,20.1-0.2c0,3.3,0,6.7,0,10h-0.5l-0.5-0.1c-1.5-1.3-1.7-3.2-2.1-5
			c-0.2-2.1-1.4-2.6-3.4-2.6c-3.1,0.1-6.2,0.1-9.3-0.1C704.5,28.3,702.4,28.7,701.8,26.2z"/>
		<path class="st6" d="M188,149.9c5.6-2,11.4-0.6,17.1-0.9c-0.1,0.3-0.2,0.6-0.1,0.9C199.4,149.9,193.7,149.9,188,149.9z"/>
		<path class="st7" d="M686.9,0.1c0,0.3,0,0.7,0,1c-4.9,2.3-9.9,2.3-14.8,0.1c0-0.4-0.1-0.8-0.1-1.1C676.9,0.1,681.9,0.1,686.9,0.1z
			"/>
		<path class="st8" d="M181,83c-1.7-5.4-6.5-6.4-11-8c0.6-3.2,3.3-2.1,5.2-2.5c14.6-0.1,29.2,0.1,43.8-0.4
			c13.7-0.5,27.4,0.2,41.2-0.7c7-0.4,13.9,0.2,20.9,1c3,0.3,6,0,9,0.2c4.7,0.3,8.7-0.4,11.9-4.6c2.4-3.1,7-3.8,9.9-6.5
			c0.8-0.3,1.6-0.2,2.4,0.2c4.5,4.5,1.4,9.1,0.3,13.7c-1.3,1.6-3.1,0.9-4.6,0.9c-7.1,0.1-14.2,0.1-21.4,0c-2.6,0-4.8,0-6.3,2.7
			s-5.1,2.1-7.2,3.9c-2.9,0.9-4,3-3.9,6c0,2.9-0.1,5.9-0.2,8.8c-2.6-0.5-1.9-2.6-2.1-4.3c-0.3-2.2,0.4-4.6-0.9-6.7
			c-3.3-2.9-12.5-3.6-15.8-1.1c-2.7,2.1-1.5,5.1-1.3,7.8c0.1,1.9,2.5,4.6-0.6,5.5c-2.5,0.8-4-1.9-5.2-3.8c-1.1-1.8-1.8-3.9-2.2-6
			c-0.7-3.7-3.2-4.2-6.3-3.9c-3.4,0.3-3,2.9-3.1,5.2c-0.1,1.6,0.1,3.3-0.3,4.9c-0.3,1.1-1,1.9-2.1,2.3c-4.1,6.5-8.1,13-10.9,20.1
			c-2.2,0-1.7-1.6-1.6-2.8c0.5-5.3,3.9-9.8,4.6-15.1c0.1-0.7,1.2-1.1,1.9-1.4c2.3-1.1,3.9-2.9,3.4-5.5c-0.5-2.9-2.7-4.5-5.5-5
			c-6.9-1.1-13.9-1.6-20.7,0.4c-2,0.6-4.2,1.6-5.9-0.7c-0.9-3.4-2.9-4.7-6.5-4.4C186.9,83.6,183.9,83.9,181,83z"/>
		<path class="st9" d="M216.1,143.9c-11,2.1-22.2,0.5-33.3,1.2c-3,0.2-2.5,1.1-1.7,2.9c-0.9,0.1-1.6-0.2-2-1.1
			c-0.2-5.4-0.2-10.5,3.7-15.1c2.4-2.8,2.8-7,4.2-10.5c3.7-9.1,10.1-15.3,18.4-20.1c0.9-0.5,1.9-0.8,2.9-0.8
			c2.6,0.2,5.2-0.9,7.9-0.6c2.4,0.3,4,1.2,2.5,3.8c-3.8,6.7-2.4,14.2-3.5,21.2c-0.3,2.1,1.5,2.8,2.2,4.2
			C216.4,133.9,218.4,139.1,216.1,143.9z"/>
		<path class="st10" d="M379,77c-0.3,0.3-0.7,0.7-1,1c-1.5,0.2-3-0.3-4.4-0.5c-1.8-0.2-2.6-0.6-2.3-3.2c0.4-3.2-0.4-6.8-4.7-7.7
			c-2.2-0.8-3.9-2.1-3.4-4.7c0.5-2.7,1.8-5.1,4.3-6.3c1.8-0.9,3,0.5,4.2,1.7c3.7,3.7,4.8,3.4,6.5-1.7c0.3-0.9,0.4-1.9,0.8-2.9
			c1.4-3.4,2.4-1.4,3.5,0.2c0.3,0.3,0.6,0.6,1,0.8c1.1,0.7,2.4,0.4,3.7,0.6c1.9,0.6,3.8,0.1,5.7-0.2c0.4,0,0.9,0,1.3,0.1
			c2.7,0.6,5.3-0.4,8,0.1c1.6,0,3.1-0.2,4.6-0.6c1.6-0.3,2.6-1.3,2.9-2.9c0.3-1.4,0.1-3,1.8-3.9c2.6,1,1.1,4.3,3,5.9
			c2.1-1.5,0.6-4.7,3-5.9c2.6,1.3,1.3,4.1,2.2,6c0.4,0.5,1,0.8,1.6,1c1.3,0.6,2.6,0.1,3.9-0.1c0.6-0.1,1.3-0.2,1.9-0.3
			c3-1.5,0.9-4.8,2.3-6.9c2.4-2.1,2.2,0.5,2.7,1.6c0.7,1.7-0.5,4.1,1.6,5.4c1.3,1,2.7,0.6,4.2,0.4c0.4,0,0.9,0.1,1.3,0.1
			c1.8,0.6,3.4-0.3,5.1-0.4c0.7-0.1,1.3-0.1,2-0.1c2.4-0.7,5,2.5,7.2-0.5c0.5-2.4-0.3-5,1.2-7.2c0.4-0.3,0.9-0.4,1.4-0.2
			c2,1.9,0.4,4.9,2.2,6.9c2.4-1.2,0.6-5.7,3.2-5.4c2.9,0.4,1.2,4.3,2.5,6.3c0.3,0.4,0.5,0.9,0.7,1.3c0.2,1.4,0.3,2.7-1.5,3.3
			c-2-0.5-4,0.3-6,0.1c-8,0.2-16.1,0.2-24.1,0c-6.3,0.2-12.6,0.2-18.9,0c-8.4,0.2-16.7,0.2-25.1,0c-0.9,0.1-2.1-0.4-2.5,1
			c-0.2,0.8,0.2,1.6,0.9,2.2c0.9,0.8,2.1,0.9,3.3,0.9c21.1-0.5,42.1,0,63.2,0c3.9,0,5.9-2.5,8.8-3.9c1.1,4,3.3,7.5,4.1,11.6
			c-2.3,1.7-5.1,1.3-7.7,1.3c-23.9,0-47.8,0-71.7,0.1c-2.2,0-5.3-1.3-6,2.5C381.8,76.1,380.1,76.3,379,77z"/>
		<path class="st11" d="M560,57.1c0,7-4,7.9-10,7.3c-18.9-2.1-37.9-1.7-56.9-1.7c-2.1,0-4.4-0.5-5.2,2.3c-4.7,1.1-9.6,0.2-14.3,0.5
			c-3.3,0.3-3.9-1.8-4-4.4c0-2.7,0.8-5.5,4-5.1c6.6,0.8,13.1-0.5,19.7,0.1c12.5,1.1,25.2,1,37.7-0.1c9.7-1.3,19.3-1.4,28.8,1
			L560,57.1z"/>
		<path class="st12" d="M464,77c0.8,4.3-0.3,5.9-5.3,5.9c-23.9-0.3-47.8-0.1-71.6-0.2c-1.7,0-3.6,0.9-5.1-0.8
			c-0.9-5.5-0.4-6.3,4.9-6.3c24.1-0.1,48.3-0.1,72.4,0C461.1,75.6,462.8,75.6,464,77z"/>
		<path class="st13" d="M381,75c-2.1-0.3-2.2-1.8-1.9-3.3c0.5-2.4,2.6-1.7,4.1-1.7c22.9,0,45.8,0,68.7,0c3.7,0,7.3,0,11,0
			c1.4,0,3.1,0.5,4-1.2c-0.5-1.7-1.4-3.4,0.2-5.1c2.4-0.5,3.4,0.8,3.4,2.9c0,1.8,0.5,3.6-0.5,5.3c-0.8,0.7-1.7,1.2-2.9,1.1
			c-0.9,1.7-1.8,2.9-4.1,2.9c-26.6,0-53.2,0.1-79.8-0.1C382.4,75.9,381.7,75.6,381,75z"/>
		<path class="st14" d="M217.2,129c-3.1-0.3-4.2-1-3.5-5c0.7-4.3,1.3-8.9,0.9-13.6c-0.3-3.1,1.7-6.2,3.9-8.7
			c-3.5-2.5-7.1,1.3-10.4-0.8c2.4-3,6-2.3,9.1-3.1c1.4-0.4,3-0.1,4.3-0.8c1.8-1,3.7-2.5,3.4-4.5c-0.4-2.6-2.9-1.4-4.5-1.4
			c-3.1,0.1-6.3,0.2-9.4,0c-3.5-0.2-6.9,0-10,1.9c-1.5,0.9-3.1,1.2-4.4-0.5c-0.4-1.7-0.7-3.3,0.7-4.6c6.3-0.4,12.4-3,18.9-1.9
			c4.3,0.7,9-0.3,12.3,3.7c2.6,3.2,2.3,7.1-1,9.4c-3.8,2.7-8,13.5-7.2,18.8C219.8,121.8,218.4,125.4,217.2,129z"/>
		<path class="st8" d="M367,66c2.6-0.2,5.6,2.7,5.1,3.2c-2.8,2.3,7.2,5.1-1,6.3c2.3,2.2,5.4,0.2,6.9,2.6c-3.7,3.1-10.2,2.5-14-1.2
			c-3.9-1-8,0.5-11.9-0.9c-1.3-0.5-2.2-1.4-2.8-2.6c-0.5-1.4-0.5-2.9-0.3-4.3c0.2-1,0.7-1.9,1.3-2.8c0.1-0.4,0.2-0.7,0.1-1.1
			c-0.4-0.8-0.9-1.5-0.5-2.5c1.2-1.6,1.1-3.2,0-4.8c0.6-2,2.4-1.8,3.9-2.2c1.4,0,2.7-0.2,4.1,0.1c2.6,1.3,3.2,3.4,2.9,6.2
			c-0.6,4.8-0.4,4.8,4,3.8C365.4,65.4,366.3,65.4,367,66z"/>
		<path class="st15" d="M470,72c-0.9-2.7,2-6.8-2.9-7.9c-3-4.5-1-9.6-1.5-14.4c0.1-2,0-4.1,0.3-6.1c0.1-0.5,0.3-1,0.7-1.4
			c2.2-1.4,2.9-0.1,3.4,1.8c2.7,10.4,3,10.6,13.4,10c1.8-0.1,3.2-0.5,4.3-1.9c0.5-0.3,0.9-0.4,1.5-0.2c0.9,0.6,1.6,1.4,2.4,2.1
			c4,1.4,8.2,0.6,12.3,0.7c8.1,0.3,16.2-0.3,24.3,0.3c1.4,0.4,2.8,0.8,3.8,2.1c-0.6,0.3-1.1,0.9-1.7,0.9
			c-13.2-0.3-26.5,1.2-39.7-0.8c-5.7-0.8-11.4,1.6-17.2,0.1c-2.7-0.7-2.2,2.1-2.4,3.8c-0.1,2.2,0,3.9,3,3.9c4.6-0.1,9.3,0,13.9,0.1
			c-3.9,1.4-7.9,0.6-11.8,0.5c-3.8-0.1-6.2,0.3-5.3,4.9C470.9,71.1,470.7,71.8,470,72z"/>
		<path class="st16" d="M381,75c26.6,0,53.2-0.1,79.8,0c2.4,0,4.6,0,6.3-1.9c-0.1,2-0.2,4.1-3.1,4c-25.5,0-51.1,0.1-76.6-0.1
			c-4,0-6,0.8-5.4,5.1c-2-1.1,1.4-5.4-3-5C379.7,76.4,380.3,75.7,381,75z"/>
		<path class="st17" d="M337.1,109.9c0.3,0.1,0.6,0.2,0.9,0.3c-0.2,1.9-1.9,3.3-1.9,5.4c0,1.6-0.8,2.9-2.7,2.9
			c-2.2-0.1-1.8-1.9-1.9-3.3c0-0.7-0.8,0.3-0.2,0c0.5,1.7,0.4,3.2-1.3,4.3c-3.2,1.1-6.4,0.4-9.6,0.1c-1.7-0.7-2.4-2.3-2.5-4
			c-0.1-2-1.5-2.3-2.9-2.8c0-1,0-2,0-3C322.4,107.7,329.7,107.8,337.1,109.9z"/>
		<path class="st18" d="M331,128.8c-2.4,0-4.7,0.1-7.1,0.1c-0.8-1.2,0-2.7-0.6-3.9c0.1,1.3,0.6,2.6-0.3,3.9c-1.3,0-2.7-0.1-4-0.1
			c-1.8-2-0.7-5.8-4-6.9c0-0.6,0-1.3,0-1.9c2.2-2.2,4.7-0.6,7-0.5c4,0.2,8-0.9,12,0.3c1,0.1,1.9,0.2,2.9,0.3
			c0.5,1.3-0.8,2.3-0.7,3.5c0,0.9,0,1.8-0.1,2.7c-0.1,1-0.4,1.8-1.2,2.5c-1,0-2,0-2.9,0c-1.2-1.7,0.1-3.9-1.2-5.3
			C331.2,125.1,332.2,126.9,331,128.8z"/>
		<path class="st19" d="M315,94c0-1,0-2,0-3c6.3-2.6,12.8-1.4,19.3-0.8c0.9,0.4,1.2,1.3,1.6,2.1c0.3,1.2,0.4,2.3,0.3,3.5
			c0,1.2-0.3,2.3-1,3.2c-0.9,0.7-1.9,0.8-2.9,0.4c-1.3-0.7-0.6-2.1-1-3.2c0,1.2,0.5,2.5-0.9,3.3c-1.9,0.8-3.9,0.8-5.8,0.1
			c-1.5-0.6-1.1-2-1.3-3.2c0.1,1.3-0.4,2.3-1.4,3c-0.9,0.4-1.8,0.4-2.7,0C317.5,98,317.7,94.8,315,94z"/>
		<path class="st20" d="M330,118.7c1-1.3,1.2-2.6,0.5-4.2c-0.4-0.9-1.5-2.5,0.4-2.7c2.4-0.4,1.1,1.7,1.3,2.7c0.1,0.3-0.1,0.7-0.1,1
			c0,1-0.1,2.2,1.3,2.3c1.7,0.1,1.9-1.1,1.6-2.3c-0.7-2.8,0.4-4.4,3-5.3c3.3,0.3,6.6,0.6,9.9,0.9c-2.6,3.7-5.9,1.1-10,1.3
			c4.4,0.2,7.8,1.7,11.1-0.5c1.1,0.9,3.4,1.1,2.9,2.9c-0.4,1.6-2.4,2.4-4.1,2.4c-4.7,0-9.2,1.3-13.7,2
			C332.6,119.4,331.2,120,330,118.7z"/>
		<path class="st21" d="M269.2,86c2.5,3.7-0.3,8.2,1.7,11.9c-1.1,4.5-3.9,6.6-8.6,6.3c-3.6-0.2-7.3-0.4-10.9,0.1
			c-7.9,1-14.5-1.4-20.4-6.4c0.4-0.7,0.8-1.4,1.3-2.1c0.3,0,0.8-0.1,1,0.1c8.9,7.3,19.6,4.2,29.6,4.6c3.3,0.2,4.6-1.9,4.8-5
			C267.8,92.2,266.6,88.8,269.2,86z"/>
		<path class="st22" d="M351.1,85c-0.5,2.8-0.7,3.1-4.2,3.4c-3.7,0.3-7.3,0.5-10.8,1.7c-0.6,0.5-1.3,0.4-2,0.2
			c-0.5-0.6-0.4-1.4-0.6-2.1c-0.2,0.7,0,1.4-0.5,2c-0.9,0.3-1.8,0.2-2.7,0.2c-1.5-1.3-0.6-3.5-1.8-4.9c-2-3.2-0.7-4.5,2.7-4.5
			c1.1,0,2.3,0.2,3.4,0.5c0.4,0.2,0.8,0.5,1.1,0.8c1.7,2.2,4.2,1,6.3,1.3C345.1,84.1,348.2,83.4,351.1,85z"/>
		<path class="st23" d="M352.1,75c3.7,2.4,8.2-0.7,11.8,1.9c-3.3,0-6.6-0.1-9.9-0.1c-1.1,0-2.9,0-3.2,0.6c-2.8,5.3-7.8,2.9-11.8,3.7
			c-1.1,1.2-2.2,2-3.9,1l-0.4-0.2c-0.9-0.8-1.3-2.1,0-2.2c4.1-0.3,7.8-2.8,11-2.2c-1.9,0.3-4.9,0.5-7.8,1.6c-2.7,1-4.2-0.1-3.2-3.2
			c1.5-1.4,3.6-1.1,5.3-1.8C344.2,73.3,348.2,73.5,352.1,75z"/>
		<path class="st24" d="M275,83.1c0.3-0.9-0.7-2.4,1.5-2.4c2.6-0.1,4.8-1.3,6.4-3.3c1.3-1.6,2.9-1.3,4.5-1.3c7.3,0,14.6,0,21.9,0
			c1.6,0,3.4,0.6,4.7-1c3.4-0.3,2.9,3.2,4.7,4.6c0.7,1,1.2,2,0.7,3.3c-1.4,1.3-2.9,0.8-4.4,0.2c-0.2-4.9-2.3-7-7.6-6.6
			c-6.6,0.5-13.2,0.1-19.8,0.1c-1.5,0-3.8-0.6-3.8,1.9C283.5,85.2,278.9,83.4,275,83.1z"/>
		<path class="st25" d="M335,128.8c0.1-1,0.1-1.9,0.2-2.9c1.7-1.7,4-2,6.2-2.8c2.6-0.5,5.2-0.5,7.7,0.6c0.7,0.3,1.5,0.6,1.9,1.4
			c-0.2,1.7-1.6,2.1-2.9,2.3C343.8,127.8,339.4,128.2,335,128.8z"/>
		<path class="st26" d="M334.9,98.8c0.1-1,0.1-2,0.2-3c5.5-2.7,11.1-3.4,16.8-0.8c-1.1,2.8-3.6,2.9-6,3c-3,0-5.9,0.3-8.7,1.1
			C336.3,99.6,335.6,99.6,334.9,98.8z"/>
		<path class="st27" d="M335.2,82.1c1.3-0.3,2.6-0.7,3.9-1c2.4,1.9,5.4,0.5,8,1.5c1.5,0.6,3.3,0.5,4,2.4c-4.8,0.9-9.6-0.6-14.4,0.3
			C334.5,85.8,335.3,83.4,335.2,82.1z"/>
		<path class="st28" d="M351,105.9c-4.2,3.2-9.6,0.8-14,3.1c-1.1,0.7-2.1,0.6-3.2,0c-0.4-1.6,0.2-2.9,1.6-3.8
			c3.7-1.2,7.5-1.9,11.5-1.6C348.5,103.8,350.6,103.4,351,105.9z"/>
		<path class="st29" d="M351.9,95.1c-5.6-0.4-11.2,0.2-16.8,0.8c0-0.9,0-1.8,0-2.7c2-2.1,4.6,0.3,6.8-0.9
			C345.7,91.7,349.3,91.6,351.9,95.1z"/>
		<path class="st30" d="M335.1,105.9c-0.4,0.9-0.8,1.9-1.1,2.8c-1.5,1.2-2.7,0.9-3.7-0.7c-0.8-2.4-0.9-4.8,0.4-7
			c1.2-1.2,2.7-1,4.2-1c1.2,0,2.3,0.3,3.3,0.8c0.3,0,0.6,0.1,0.9,0.3c0.2,0.2,0.3,0.5,0.2,0.7s-0.1,0.4-0.2,0.4
			c-0.6,0.5-1.4,0.8-2.1,1.2C336.1,104.2,335.8,105.2,335.1,105.9z"/>
		<path class="st31" d="M315,83c1.3-1.1,2.7-0.3,4.1-0.2c1.8,2.3,1.6,4.6,0.3,7c-1.4,0.9-2.9,0.8-4.4,0.1
			C314,87.7,314.4,85.3,315,83z"/>
		<path class="st32" d="M351,124.9c-0.7-0.1-1.4-0.2-2.1-0.3c-4-2.5-8.3-1.5-12.6-1.2c-0.5,0-1-0.2-1.3-0.6c-0.5-1.7,1.2-2,2-2.8
			c3.2,0.4,6.5,0.5,9.7,1.2C348.4,121.7,351.6,121.3,351,124.9z"/>
		<path class="st33" d="M315,112.9c1.2-0.3,1.9-2.3,3.4-1.5c1.3,0.7,0.6,2.1,0.5,3.2c-0.1,1.5-0.1,3,1.1,4.1c-1.6,1-3.2,1.1-4.9,0
			C314.9,116.8,314.3,114.9,315,112.9z"/>
		<path class="st34" d="M315,121.9c3-1.1,4.2-0.1,4,3c-0.1,1.3,0,2.5,0,3.8C311.7,130,315.9,124.5,315,121.9z"/>
		<path class="st35" d="M338.1,100.9c-1,0-2,0-3,0c-4.6-0.8-9.2,1.2-13.8,0.6c-2.1-0.3-4.4,0.1-6.2-1.4c-0.1-0.6-0.2-1.2-0.3-1.8
			c1.7-1.6,2.9-0.2,4.3,0.6c1,0,2,0,3,0.1c0.7-0.5,1.3-0.6,2,0c2.3,0,4.6-0.1,6.8-0.1c0.4-0.4,0.8-0.3,1.2,0.1c0.9,0,1.9,0,2.8,0
			c0.7,0.1,1.5,0.2,2.2,0.3C337.5,99.7,337.8,100.3,338.1,100.9z"/>
		<path class="st36" d="M335.1,105.9c-0.1-1.4-0.7-2.9,1.1-3.7c4.9,1.7,10.1-0.4,15,1.5c0.9,0.8,1.5,1.6-0.2,2.1
			c-3.4-1.9-7-1.1-10.5-0.5C338.7,105.7,336.9,105.9,335.1,105.9z"/>
		<path class="st37" d="M315.6,107.8c-1.8-1.9-0.2-3.8,0-5.7c0.6-1,1.4-1.7,2.7-1.2c2.5,1.9,2.1,4.5,1.6,7c-0.2,0.6-0.6,1-1.1,1.3
			C317.5,109.3,315.9,110,315.6,107.8z"/>
		<path class="st38" d="M315.6,107.8c0.9,1.2,2.1,1.3,3.4,1c1.4-1.1,3.1-1.2,4.8-1.2c2.4,0.2,4.9-0.7,7.2,0.4c0.8,1.2,1.9,0.7,3,0.7
			c1,0.1,2,0.1,3.1,0.2c-0.1,0.3-0.1,0.6,0,0.9c-7.3,0-14.7,0.1-22,0.1C315,109.2,314.6,108.3,315.6,107.8z"/>
		<path class="st39" d="M318.1,101c-0.8,0.4-1.6,0.7-2.5,1.1c-1.3-0.4-0.7-1.3-0.6-2.1c6.7,0.4,13.4-1,20,0.8
			c-1.4,0.1-2.7,0.3-4.1,0.4c-2,1.4-4.3,1-6.5,1.1c-0.6,0-1.1,0-1.7,0C321.1,102.4,319.5,102,318.1,101z"/>
		<path class="st40" d="M349,111.8c-0.1,2.3-1.9,1.9-3.3,1.9c-3.1-0.2-6.2-0.5-9.2-1.1c3.7-1.3,7.8,0.8,11.4-1.5
			C348.2,111.3,348.6,111.6,349,111.8z"/>
		<path class="st41" d="M315,90c1.4-0.1,2.7-0.1,4.1-0.2c0.9-0.7,1.9-1,3-1c0.8-0.1,1.6-0.1,2.4-0.1c1.9,0.1,3.9-0.3,5.5,1.1
			c1,0,2,0,3,0c0.3-0.3,0.6-0.3,1,0c0.7,0.1,1.4,0.2,2,0.3c0,0.3,0,0.5,0,0.8c-0.3,0.4-0.6,0.6-1.1,0.4c-6.7-0.1-13.3-0.1-20-0.2
			C315,90.7,315,90.3,315,90z"/>
		<path class="st42" d="M315.1,118.8c1.6,0,3.2,0,4.9,0c3.3,0,6.7,0,10,0c1.4,0.1,2.7,0.3,4.1,0.4c0,0.2,0,0.5,0,0.7
			c-6.3,0.1-12.7,0.1-19,0.2C315.1,119.6,315.1,119.2,315.1,118.8z"/>
		<path class="st43" d="M319.1,98.9c-1.4-0.2-2.9-0.4-4.3-0.6c0.1-1.4,0.2-2.8,0.2-4.2C320.1,92.5,318.4,96.7,319.1,98.9z"/>
		<path class="st44" d="M351.2,103.8c-4,0.1-8,0.2-11.9,0.2c-1.2,0-2.8,0.3-3-1.7c0.9-0.1,1.9-0.3,2.8-0.4c3.3,0.8,6.6,0.9,9.9,0.3
			C350,102.2,350.7,102.8,351.2,103.8z"/>
		<path class="st45" d="M331,128.8c0.1-1.9,0-3.7-1.2-5.2c-0.5-0.7-2-1.2-0.1-1.9c1.1-0.4,2.1,0,2.3,1.2c0.2,2,0.1,4,0.1,6
			C331.7,128.8,331.3,128.8,331,128.8z"/>
		<path class="st46" d="M348.9,102.2c-3.3,1.1-6.6,1.6-9.9-0.3c-0.1-0.2-0.1-0.5-0.1-0.7C342.2,101.5,345.6,101.8,348.9,102.2z"/>
		<path class="st47" d="M323,128.9c1.1-2.5-1.6-5.1-0.7-7.6c0.5,0,1,0,1.6-0.1c0,2.6,0,5.1,0,7.7l-0.5,0.2L323,128.9z"/>
		<path class="st26" d="M335,91.2c0.4-0.1,0.7-0.2,1.1-0.4c1.9,0.5,3.7,1.6,5.8,1.4c-2.1,1.3-4.6,0.1-6.8,0.9
			C335.1,92.5,335,91.8,335,91.2z"/>
		<path class="st48" d="M167.1,42.1c0.2-0.2,0.5-0.4,0.8-0.4c0.7,0.5,1.3,1.5,0.9,2.1c-3.2,5.7-1,12-2.4,17.9
			c-0.3,1.3,0.2,3.6-2.6,2.9c-0.7-0.8-0.9-1.8-1.1-2.8c-0.4-0.9-1.2-1.3-2-0.6c-5.2,4.9-12.1,7.9-15.8,14.7
			c-2.4,4.5-7.2,7.3-9.2,12.3c-0.5,1.2-1.5,2.2-1.7,3.6c-0.5,3.6-3.1,4.9-6.3,5.3c-5.4,0.6-10.9,0.1-15.7,3.6
			c-1,0.8-2.6,0.7-3.9,0.5c-7.3-1.2-14.9-1.4-22-3.3c-3.1-0.8-6.9,0.6-9.3-2.6c-0.2-0.5-0.2-1,0.1-1.4c4-1.7,8.1-0.7,12.2-0.1
			c8.5,1.1,16.9,0.5,25.1-1.5c6.4-1.6,12.9-2.7,14-11.7c0.5-3.7,4.5-7.2,7.4-10.4c1-1.1,2-2.2,2.7-3.6c1.1-2,0.8-3.9-0.9-5.4
			c-1.8-1.7-3.3-0.7-4.8,0.6c-0.6,0.6-1.2,1.2-1.8,1.7c-0.8,0.6-1.7,1.1-2.8,1.1c-2.1-0.4-4.5,0.2-6.1-1.9c0.7-3.6,4.2-1.6,6-3.1
			c1.9-2.4,0.6-4.3-0.8-6.2c-0.5-1.2-2.4-2.3-0.4-3.7c1-0.3,1.9,0.4,3.4-0.1c-2.2-3-5.2-3.4-8.3-3.3c-21.4,0.9-42.8-0.6-64.3,0.2
			c-7.7,0.3-14.5,3.1-21.1,6.7c-3.7,0.9-6.9-0.1-9.3-3c-1.8-2.2-1.4-4.1,1.3-4.9c3.5-1,6.9-2.4,10.6-2.7c7.4-0.6,14.6-2.2,22-3.2
			c0.8-0.1,1.6-0.1,2.4,0c10.6,0,21.2-0.1,31.7,0.5c10.8,0.6,21.5-1,32.2-1.1c6.4,0,12.8,2.2,16.7,6.5c5.6,6.1,10.9,5.8,17.2,2.6
			c1.2-1.6,2.6-3,3.5-4.9C165.4,42.4,166.4,42.8,167.1,42.1z"/>
		<path class="st49" d="M379,28.9c-0.1-0.3-0.1-0.5,0.1-0.8c0.3-4.6,3.6-5.5,7.3-5.6c8.5-0.2,17-0.1,25.4-0.1c15.8,0,31.6,0,47.4,0
			c2.5,0,5-0.3,7.3,1.1c1.3,0.7,1.6,1.9,1.7,3.2c0,3.4,0.8,6.8-0.8,10c-4.3,3.7-6-1.4-8.9-2.6c-2-1-4.2-0.7-6.4-0.7
			c-20.8-0.1-41.6,0.1-62.3-0.1c-1-0.1-1.9-0.4-2.8-0.7c-2.2-0.9-3.5-0.7-3,2.2c0.1,0.8-0.4,1.6-0.9,2.2c-0.9,1.1-1.1,3.2-3,2.7
			c-1.4-0.4-1.3-2.1-1.3-3.4c-0.1-2.3-0.3-4.6,0.1-6.9C378.9,29.4,379,29.1,379,28.9z"/>
		<path class="st50" d="M367,66c-0.8,0.2-1.8,0.1-2.3,0.5c-1.3,1.2-2.4,3.3-4.4,2.1c-2.3-1.3-1.6-4.1-1-5.8c1.1-3.3,0.1-5.3-2.5-7
			c-0.9-1.2-1.1-2.7-1.3-4.2c0-0.5,0-1,0-1.5c1-3-1.1-6.8,2.2-9.3c2.7,3.6,2,8.6,5.1,11.8c0.1-3,0.1-6.3,0.9-9.5
			c0.3-1.3,0.5-2.6-1-3.4c-1.3-2.8-0.6-5.8,0.7-7.9c1.8-3-0.4-1.9-1.5-2.1c-1.7-1-1.9-2.6-1.7-4.3c0.1-1.2,0.5-2.3,1.9-2.6
			c1.3-0.3,2.3,0.2,2.6,1.6c0.5,1.9,2,2.5,3.7,2.9c2,0.8,4.4,0.2,6.1,1.8c0.3-0.1,0.5-0.1,0.7,0.1c0.3,0.2,0.6,0.4,0.7,0.6
			c1.4,2.7-0.7,3.6-2.5,4.7c2.8-0.1,4,0.7,1.8,3.3c-0.2,0.2-1.6,0.5,0.1,0.6c3.5,0.2,3.2,3.7,4.9,5.6c3.5,3.3,4.5,6.9,1.9,11.2
			c-1.1-0.7-0.8-2-1.6-4.2c-0.4,3.7-0.9,6.2-2,8.4c-1.7,3.4-3.9,3.6-6.4,0.7c-1.2-1.4-1.6-4.5-4-3.5c-2,0.8-3,3.4-3.8,5.6
			C363.3,64.7,366,64.8,367,66z"/>
		<path class="st51" d="M216.2,25.1c-1.1-3.5,2.2-4.4,3.8-4.3c2.9,0,6.2-0.8,8.5,0c3.1,1.1,5.9,0,8.7,0.2c5.9,0.5,12.1,0.6,18,0.4
			c6.7-0.3,13.4-0.5,20.1-0.5c7.6,0,15.2,0.2,22.8,0.3c0.6,0.6,0.9,1.3,1,2.1c0,1.6-0.5,3.1-1.3,4.5c-0.9,1.2-2.2,1.5-3.6,1.5
			c-0.5,0-1.1-0.1-1.6-0.2c-5.5-0.9-11.1,0-16.5-1.3c-1.5-0.4-2.8,0.7-4.1,1.3c-1.5,0.5-2.9,0.4-4.4-0.3c-2.1-1.4-4.5-1.1-6.8-1.1
			c-12.6,0-25.3,0-37.9,0C220.3,27.4,217.6,27.9,216.2,25.1z"/>
		<path class="st52" d="M164,64.1c2.1-2.4,2-5.9,1.7-8.3c-0.7-4.4-0.6-8.1,2.1-11.7c0.4-0.5,0.1-1.6,0.1-2.4c-0.9-5.7,2-8.4,7.4-9.2
			c1.6-0.2,3.1-1,4.7-1.6c2-0.3,2.2,1.3,2.3,2.5c0.2,2.7,1.9,4.1,3.9,5.3c0.3,0.5,0.3,0.9,0.1,1.4c-1.4,1.3-3.2,1.1-4.9,1.4
			c-2.2,0.1-4.4-0.7-6.6,0c-1,0.3-2,0.5-2.9,1c-0.3,0.3-0.6,0.6-0.8,0.9c-0.7,4.9-1.5,9.8-1.6,14.8c0.1,2.5,1.4,4.9,0.4,7.4
			c-2.2,4.1-6.3,4.7-10.1,5.3c-4,0.6-6.2,2.8-8.5,5.9c-7.3,10-13,21.1-21.8,30c-4.3,3.2-9,5.4-14.6,5.7c-2.1,0.1-4.1-0.1-5.5-1.5
			c-3.9-4-8.9-5.4-13.9-7.3c-2.4-0.9-5.3-1.2-6.5-4c2.8-2.8,5.8-0.6,8.5,0s5.3,1.7,8.1,2.2c3.5,0.9,7.1,1.5,10.1,3.9
			c3.4,2.7,6.2,0.1,9-1.7c4.4-3.3,7.3-7.6,9.5-12.5c0.8-1.7,1.9-3.1,3.1-4.5c3.3-3.7,6.4-7.6,8.7-12.1s6.1-7.4,10.9-8.9
			C159.2,65.6,161.3,63.7,164,64.1z"/>
		<path class="st53" d="M381,19.1c0.1-3.5,1.9-4.6,5.3-4.6c25,0.1,50,0.2,75,0.1c3.8,0,2.6,2.5,3,4.3c-0.7,2.9-3.2,2.6-5.2,2.6
			c-24.3,0.2-48.5,0.2-72.8,0C384.2,21.6,381.7,22.1,381,19.1z"/>
		<path class="st54" d="M3.9,34.9c1-1.4,2.5-1,3.8-0.9c6.9-3.2,14.1-2.7,21.3-1.9c1.8,1.8,4.2,1.7,6.5,1.7c31.2,0,62.4,0,93.6,0
			c2.3,0,4.6,0.2,6.9,0.2c0.6,1.2,4,1.8,0.9,3.8c-28.4,0.3-56.7,1.1-85.1,0.5c-3.4-0.9-6.7-1.1-10.2-0.4c-7.5,1.5-15.1,1.1-22.6,1
			c-4.2-0.1-8.3-3.2-12.9-1.1c-1.2-0.2-1.9-0.9-2.2-2.1C4,35.5,4,35.2,3.9,34.9z"/>
		<path class="st55" d="M381,19.1c2,1.8,4.5,1.1,6.6,1.1c23.7,0.1,47.3,0.1,71,0c1.9,0,4,0.5,5.6-1.2c2.9-0.1,2.8,1.9,2.8,3.9
			c0.4,0.4,0.4,0.8,0,1.2c-26.8,0-53.6,0-80.3,0c-3.3,0-6.3,0.2-7.5,4C379.6,25.1,377.3,21.5,381,19.1z"/>
		<path class="st56" d="M368,28.1c-2.4-0.2-5.9,0.8-4.7-3.8c0.2-0.6-0.3-0.9-0.8-0.9c-0.8,0-1.3,0.4-1.3,1.1c0,1.6-0.7,3.3,1,4.6
			c0.6,1.6,0.7,3.3,0.4,4.9c-0.5,2.4-5,3.5-6.4,1.1c-2.7-4.4-6.6-3.5-10.4-3.6c-2.6-0.1-5.3,0.3-7.8-0.5c-2.7-3.9-2-4.9,5.2-7
			c-0.9-2.2-2.8-3-4.7-3.9c-1.8-0.9-2.2-1.9,0-2.9c5.3-0.7,10.6-0.5,16-0.5c1.7,0,3.3,0.3,4.6,1.5c2.3,4.9,3.7,5.4,9,3
			c1.6,1.6,1.6,3.8,2.1,5.8C370.5,28.5,369.4,28.8,368,28.1z"/>
		<path class="st57" d="M687.1,11.3c0,3.3-0.1,6.5-0.1,9.8c-2.8,4.8-7.1,6-12.3,5.2c-2-0.3-3.5-1-3.5-3.3c1.9-3.1-0.5-6-0.3-9.1
			c1.2-2.8,0.9-5.8,1.2-8.8c4.4-2.5,9.2-1.3,13.5-0.6C688.9,5.1,687.1,8.9,687.1,11.3z"/>
		<path class="st58" d="M359,18.1c-7.3,0-14.7,0-22,0c-2.8,1.9-5.5,2-8.1-0.2c0.6-2.7,2.8-1.6,4.4-1.7c1.9-0.2,3.9,0,4.6,0
			c-4.4,0.6-10.3-1.3-15.6,1.9c-6.3,0.8-11,5.5-16.9,7.2c-3.2,0.9-5.5,0.5-7.4-2.1c0-0.7,0-1.4-0.1-2c1.2-2.1,2.8-3.6,5.5-3
			c3.2,0.8,5.6-1.6,8.5-2.2c2.5-0.6,0.1-3.2,1.4-5c1.1,2.1,2.7,2.7,4.7,1.2c2.7-2,4.7,1.2,7.4,1c8.9-0.5,17.9,0,26.9-0.4
			C356.6,12.5,358.9,13.6,359,18.1z"/>
		<path class="st59" d="M551.1,30.1c-0.5-0.9,0.1-2.2-1.1-2.8c-0.3-0.2-0.4-0.4-0.3-0.7c0.1-0.3,0.1-0.4,0.2-0.4
			c8.7,0,17.5-0.1,26.2,0c1.4,0,3.5-1,4,1.6c0.3,0.5,0.2,0.9-0.1,1.3c-1.7,2.4-4,1.2-5.7,1.4c2.6,1.1,5-0.9,7.6-1.9
			c23.1,0.1,46.3-0.1,69.4,0.1c0.7,0.2,1,0.7,0.8,1.4c-2,2-4.6,1.3-7,1.4c-2.8,0.1-5.6-0.2-8.3,0.7c-6.4,0.5-12.8,0.5-19.2,0.1
			c-3.9-1.1-7.9-1.1-11.8-0.1c-3.6,0.5-7.3,0.4-10.9,0.2c-1.9-0.3-3.8-0.9-5.7-0.9c-2.5-0.1-5-0.2-6.4,2.5
			c-7.4-0.6-14.9-0.2-22.3-0.3c-1.8,0-3.6,0-5.4-0.6c-2-1.2-1.5-2,0.4-2.4c3.2-0.7,6.5-0.1,9.9-0.3
			C560.5,29.9,555.8,30.9,551.1,30.1z"/>
		<path class="st60" d="M466.9,24.1c0-0.4,0-0.8,0-1.2c12.2,3.4,24.7,2.9,37.2,3.3c2.1,0.1,4.5-0.6,4.8,2.7c0.7,0.9,0.9,1.9,0.4,3
			c-6.3,3.1-13,1.1-19.5,1.2c-1.8,0-3.6-1.9-5.4,0.4c-0.4,0.5-1.8-0.4-2.5-1.1c-1-2.2-2.6-3.2-5.1-2.5c-2.2-0.3-3.8,0.7-5,2.5
			c-3.4-0.1-3-3.8-4.9-5.2C467,26.1,467,25.1,466.9,24.1z"/>
		<path class="st61" d="M190,27.1c8.6,0,17.1-0.1,25.7-0.1c1.2-0.8,2.6-0.3,3.9-0.3c2.7,4.2,3.3,8.5,0.9,13.1
			c-3.5,1.1-7,0.8-10.6,0.3c-1.1-0.4-2.5-1.1-2.6-2.1c-0.4-7-5.3-6.5-10.1-6.5c-0.8,0-1.6-0.1-2.5-0.1c-2-0.2-4,0.6-6-0.2
			C187.8,29.5,188.9,28.3,190,27.1z"/>
		<path class="st62" d="M1.2,61.1c0-8-0.1-16-0.1-24C2,36.4,3,35.6,3.9,34.9C4,35,4.1,35.2,4.2,35.3c1,2.8,1.3,5.8,1.3,8.8
			C5.3,59.7,5.9,75.2,5.2,90.8c-1.5,6.9-0.4,13.9-0.7,20.9c-0.1,2.2,0.3,4.6-1.8,6.5c-1.9-1.6-1.1-3.6-1.1-5.2
			c-0.1-15.6,0-31.2-0.1-46.8C1.6,64.4,1.9,62.7,1.2,61.1z"/>
		<path class="st63" d="M508.9,32.1c0-1.1,0.1-2.1,0.1-3.2c10.9,0,21.8,0,32.7,0.1c3.4-0.7,5.4,2,8.1,3.1c-0.3,4.1-1.7,4.4-6.7,1.2
			c-0.2-0.1-0.5-0.1-0.7-0.2c-4-2.1-8.5-0.6-12.7-1.3c-2.2-0.4-4.6-0.5-7.4-0.7c-0.1,0,0.3,0.8,0.3,0.2c0-0.1,0.2-0.1,0.5,0
			c3.7,0.7,3.7,0.7,2.8,2.9c-4.8,1.2-9.6,0.3-14.3,0C510.3,33.9,509.4,33.3,508.9,32.1z"/>
		<path class="st64" d="M220.1,27.2c-1.4,0-2.9-0.1-4.3-0.1c0.1-0.6,0.3-1.3,0.4-1.9c1.8,1.2,3.8,1,5.8,1c13.7,0,27.5,0,41.2,0
			c1.7,0,4.2-1.1,4.9,1.9c-2,2-4.7,1.5-7.1,1.6c-5.8,0.2-11.6,0.1-17.5-0.1c-3.1,0.1-6.1,0.1-9.2,0c-3.2-0.1-6.5,0-9.7-0.1
			C222.7,29.4,221.1,28.9,220.1,27.2z"/>
		<path class="st65" d="M579.9,29.1c0.1-0.4,0.1-0.9,0.2-1.3c0.8,0.2,1.6,0.5,2.4,0.5c26.7-0.1,53.5-0.2,80.2-0.3
			c0.1,0.3,0.2,0.5,0.2,0.8c-0.4,0.8-1.2,1.1-2,1.4c-3,0.1-6.1,0.9-9-0.8C628,29.3,603.9,29.2,579.9,29.1L579.9,29.1z"/>
		<path class="st66" d="M138.1,37.1c-0.6-1-2.1-1.5-2-3c3.8-0.6,6.9,1.5,9.6,3.4c6.5,4.6,13.8,5.4,21.4,4.7c-0.3,1-1.2,1-1.9,1.2
			c-4.2,3-8.8,3.3-13.6,1.4C146.8,42.8,141.8,40.9,138.1,37.1z"/>
		<path class="st67" d="M671.9,22.1c1.2,3.5,9.5,4.8,11.4,1.5c1-1.8,2.3-1.9,3.6-2.5c0.7,1.5-0.4,3.3,0.7,4.7c3.3,0.6,2.2,3,2.1,5.1
			c-0.2,0.5-0.5,1-1,1.3c-0.3,0-0.5,0-0.8,0.1c-0.9-0.4-1.2-1.2-1.6-2c-0.2-0.4-0.3-0.8-0.4-1.1c-0.2-0.3-0.5-0.6-0.9-0.8
			c-4.7,0-9.5,0.1-14.2,0c-1.8,0-3.6,0.1-5.1-1.1c-0.4-0.5-0.4-1-0.1-1.5c0.4-1.5,0.8-2.9,1.9-4C669.1,21.9,670.6,21.3,671.9,22.1z"
			/>
		<path class="st63" d="M687.1,11.3c0.2-4.8-1-7.4-6.8-5.5c-2.4,0.8-5.5-0.4-8.3-0.7c0-1.3,0-2.6,0-3.9c4.9,0,9.9-0.1,14.8-0.1
			C687.7,4.5,687.8,7.9,687.1,11.3z"/>
		<path class="st68" d="M29.1,32.1c-0.7,1.2-2,1.1-3.1,1c-6.1-0.4-12.1,0.8-18.2,0.9c-0.1-2.9,0.8-4.5,4.2-4.2
			c4.1,0.3,8.3,0.2,12.4,0.1C26.5,29.8,28,30.4,29.1,32.1z"/>
		<path class="st69" d="M379,44.1c-2.3-1.4-1.4-6.5-7.7-4.3c3.7-2.9,6.7-5.2,0.3-4.8c1.5-2,5.1-2.5,3.4-5.9c1.3-0.1,2.7-0.1,4-0.2
			l-0.1,0.4C379.4,34.2,380.3,39.1,379,44.1z"/>
		<path class="st70" d="M368,28.1c1.4-0.2,1.7-0.7,0.7-1.8c-1.3-1.6-0.5-3.5-0.8-5.2c2.1-2.1,4.2-2,6.4-0.1c3,2.7,0.9,5.3-0.1,8
			C372.2,28.8,369.9,29.9,368,28.1z"/>
		<path class="st71" d="M186,39.2c-3.1,0-4.8-1.6-4.9-4.7c0-1.3,0-2.6-1.2-3.5c0.3-0.6,0.7-1.2,1-1.8c2.7-1.9,4.1-0.2,5.4,1.9
			c0,2.4-1.6,5,1,7.1C187.2,38.9,186.9,39.4,186,39.2z"/>
		<path class="st72" d="M549.9,32c-3.5,1-5.6-1.7-8.1-3.1c2.1-2.9,5.1-3.1,8.2-2.7c0,0.4,0.1,0.7,0.1,1.1
			C550,28.9,549.9,30.5,549.9,32z"/>
		<path class="st73" d="M671.9,22.1c-1.5,0.7-3,1.8-4.2-0.3c0.6-2.8,1.6-5.4,3.1-7.9C671.7,16.6,676.2,18.7,671.9,22.1z"/>
		<path class="st74" d="M185.9,32.2c-0.8-2.4-2.5-3.3-5-3.1c-0.6-2.4,1.2-2.3,2.6-2.2c2.2,0,4.3,0.1,6.5,0.2
			c-0.3,1.4-0.6,2.7-0.9,4.1C188.7,33.5,187.9,34.6,185.9,32.2z"/>
		<path class="st75" d="M686.9,28.2c0,0.3,0,0.6,0.1,0.9c-2.7,2.3-5.9,1.2-8.9,1.4c-3.1,0.2-6.2-0.1-9.3,0.2
			c-0.9,0.2-1.8,0.6-2.7,1.1c-0.4,0.3-0.8,0.5-1.2,0.7c-0.5,0-0.9-0.1-1.3-0.4c-1-1.2-0.3-2.6-0.4-3.8l-0.4-0.2c0.1-2,1.8-1.8,3-2.2
			c0,0.4,0.1,0.8,0.1,1.2c4.9,1.4,9.8,0.2,14.7,0.6C682.7,27.8,684.8,27.1,686.9,28.2z"/>
		<path class="st76" d="M3.9,91c0-16.2,0-32.5,0.1-48.7c0-2.3,0.2-4.6,0.3-6.9c1,0.2,0.7,1.1,1,1.7c0.3,0.4,0.6,0.9,0.8,1.4
			c0.4,1.1,0.4,2.2,0.4,3.3c0.1,3.4,0.1,6.8,0,10.2c0,2.6,0.1,5.2,0,7.8c0,1.7,0.1,3.4,0,5.1c0,13.6-0.1,27.2,0.1,40.8
			c0,3-1.7,6.9,2.6,8.7c5.2,2.2,11.3,1.2,14.7-2.5c3.7-4,7.3-8.2,11.7-11.5c4.9-1.1,9.8-1.8,14.7-1.8c11,0,21.9-0.2,32.8,0.9
			c5.1,0.5,9.2,3,13,5.8c5.8,4.3,12.4,7.2,18.2,11.2c3.1,2.2,5.9,1.7,8.1-1.5c1.3-1.9,2.7-3.8,4.4-5.4c1.1-1,2.1-2.1,3.5-2.6
			c0.9-0.3,2-0.7,1.7,1.1c-3.2,5.1-6.4,10.1-9.5,15.2c-1.7,2.7-3.5,3-6.2,1.2c-7.6-5-15.6-9.6-23.1-14.7c-4.6-3.1-9.5-4.7-14.9-4.8
			c-12.1-0.1-24.3-0.2-36.4-0.4c-2,0-3.5,0.7-4.8,2.1c-2.5,2.7-5.4,5.1-7.5,8c-4.3,5.8-10,7.8-16.9,7.1c-2.9-0.3-5.9,0.7-8.7-0.8
			c-1-4.9-0.4-9.8-0.4-14.7C3.6,101.2,3.3,96.1,3.9,91z"/>
		<path class="st77" d="M169,66.1c0.6-2.8-0.9-5.3-1-8c0.6-0.6,2.8,0.4,1.7-1.9c-1-2.2-0.7-4.5,1.7-5.4s3.4,1.3,4.4,3
			c1.2,1.9,3.1,2.8,5.1,3.7c2-2.3-0.5-5.9,2.6-7.6c1.5,0.6,1.7,2,1.7,3.3c0,3.3,1.7,5.9,3.1,8.6c3,3.7,7.2,2,10.5,1.6
			c9.6-1.1,19.2-0.5,28.8-0.6c7.1,1.3,14.2,1.1,21.3,0.3c5.8-0.6,11.5-1,17.3,0.2c0.8,0.5,1.2,1.2,0.4,2s-2,1.3-3.2,1.3
			c-8.4,0-16.7,2.6-25.1,2c-14.9-1.1-29.8-1.9-44.7-0.3c-2.9,0.3-5.6-0.3-8.4-0.9c-5.8-1.2-6.6-0.7-8.9,4.7c-0.3,0.8-0.9,1.4-1.5,2
			c-1.7,0.3-3.6-0.7-5,1.1c-0.3-0.3-0.7-0.6-1-0.9C167,71.5,167.4,68.8,169,66.1z"/>
		<path class="st78" d="M197.1,87.9c0,1.6,0,3.3,0,4.9c1.4,2.1,3.8,2.4,5.8,3.2c2.5,1,4.8,2.5,3,5.8c-11.5,6.6-18.6,16.4-21.1,29.5
			c-5.5,3.8-4.6,10-5.9,15.4c-2-2.2-1.1-4.8-0.6-7.1c2.7-13.9,6.3-27.5,13.9-39.8c1-1.5,1.9-3.2,2.5-4.9c2.5-7.3-0.3-11.1-7.8-11.2
			c-2,0-4.3,0.9-6.1-0.8c3.1,0,6.2,0.1,9.3-0.2C194.2,82.5,196.5,84,197.1,87.9z"/>
		<path class="st79" d="M169,66.1c0,2.7,0,5.4,0,8.1c-9.6-1-16.4,3-21.4,11.1c-4.8,7.8-10.3,15.2-15.5,22.8
			c-2.2-1.2-2.5,1.8-4.1,1.9c-1.3-1.7,0-2.8,1-4c8-9.9,14.8-20.6,21.8-31.2c1.8-2.7,3.9-4.7,7.6-4.9C162.3,69.7,166,68.6,169,66.1z"
			/>
		<path class="st80" d="M3.9,91C4,101,4,110.9,4.1,120.9c-1-1-2-2-3-3C1.2,99,1.2,80,1.3,61.1c1.5,1.5,0.8,3.5,0.8,5.2
			c0.1,15.2,0,30.5,0,45.7c0,1.6,0,3.2,0,4.9c0.3,0,0.7,0,1,0c0-6.7-0.1-13.4,0-20.1C3.1,94.8,2.5,92.8,3.9,91z"/>
		<path class="st81" d="M663.2,28.2c1.2,1.1,0.5,2.5,0.8,3.8c0.5,0.8,0.5,1.5-0.1,2.2c-1.9,1.6-4,2-6.5,2
			c-23.8-0.1-47.5,0.4-71.3-0.3c-10.5-0.3-21,0.1-31.5,0.2c-3.2,0.1-4.2-1.2-3.6-4.1c1-0.7,1.9-0.8,2.9,0c6.6,0,13.2,0.2,19.8,0
			c3.5-0.1,6.8,0.6,10.3,1c4.2-3,8.7-0.5,13.1-0.9c10.8-0.5,21.6,0,32.4,0c9.9-0.3,19.8-0.4,29.7-0.6c0.5-0.2,0.9-0.4,1.3-0.8
			c0.5-0.5,1-1.1,1.6-1.5C662.4,28.9,662.8,28.5,663.2,28.2z"/>
		<path class="st82" d="M508.9,32.1c6,2.1,12.2,0.7,18.3,0.9c5.1-1.7,10.2-1.3,15.4-0.2c0.2,0.2,0.4,0.4,0.5,0.5
			c-0.2,1.1-0.1,2.7-1.7,2.5c-9.2-0.7-18.3,0.7-27.5-0.4c-6.2-0.7-12.6-0.2-18.9-0.3c-6.4,0-12.9,0.3-19.2-0.2
			c-4-0.3-5.2,0.9-4.9,4.5c0.1,1.2,0.1,2.3,0,3.5c-0.3,3.1,0.7,4.6,4.1,4.3c4.3-0.3,8.6-0.4,12.9-0.5c0.3,3.3-2.4,2.4-4,2.6
			c-3.1,0.4-6.4-0.1-10.2,0.5c2.2,1.3,3.9,0.8,5.5,0.9c3,0.1,6.5-2.1,8.9,1.5c-0.1,1.9,0.6,4.3-3,3.1c-1.8-0.6-3.9-0.1-5.9-0.2
			c-8.8-0.7-8.8-0.7-10.1-9.6c-0.2-1.4,0.3-3.2-2-3.4c-1.6-1.7-1.3-3.4-0.2-5.1c0-3.3,0.1-6.6,0.1-9.9c3.6-0.3,2.3,4.3,4.9,5
			c2.3-2,5.2-1,7.8-1.7c0.9-0.1,1.6,0.1,2.3,0.7c0.7,1,2,2.1,2.7,1.5c0.7-0.5,0.4-2.3,0.4-2.3C492.7,33.8,501,31.3,508.9,32.1z"/>
		<path class="st83" d="M533,49.2c2-2.7,4.6-1.1,7-1.1c5.1,2.1,10.5,0.4,15.7,1c1.6,0.2,3.9-0.9,4.3,2c-6.2,2.2-12.5,0.2-17.7,1
			c5.2,0.6,11.6-1.2,17.7,0.9c0,1.3,0,2.7,0,4c-9.3,0-18.6,0-28,0c-1.1-0.1-2.3,0.1-3-1c0.5-0.9,1.5-1.3,2.1-2
			c0.5-0.6,0.7-1.3,0.7-2.1C531.6,50.8,531.7,49.7,533,49.2z"/>
		<path class="st63" d="M533,49.2c-0.6,1-0.6,1.9-0.1,2.9c-2,1.6-4.4,1.3-6.7,1.3c-10.4,0.3-20.9-0.5-31.3,0.4
			c-1.7,0.6-3.4,1.3-5.2,0.2c-0.8-0.5-0.9-1.2-0.8-2.1c-0.3-0.6-0.2-1,0.4-1.4c6-0.2,11.9,0,17.9-0.2c-5.8,0.2-11.7,0-17.5,0.1
			c-2.1,0-4.2,0-6.3-0.3c-1.4-0.2-3.1-0.4-3.4,1.7c-1.8,0-3.6,0.1-5.4,0.1c-1.5-0.1-3.7,0.5-3.5-2.1c0.1-2.2,2-1.8,3.4-1.8
			c3.1-0.1,6.3,0,9.4,0c1.4,0,3.1,0.5,3.9-1.3c0-1-0.4-2.2,1.1-2.7c-0.9,4,0.3,5.5,4.7,5.4C506.8,49.1,519.9,49.2,533,49.2z"/>
		<path class="st84" d="M719.7,31.2c1.6,1.3,1,3.1,1.3,4.8c-9.3,0-18.6,0-27.9,0.1c-2.8,0-4.5-0.9-4.3-3.9c0.1-0.1,0.2-0.3,0.4-0.4
			c0.4-0.3,0.8-0.6,1.3-0.7c1-0.2,2-0.3,3-0.3c2.2,0,4.5-0.2,6.6,0.3c2.4,0.1,3.9,4.2,6.9,1.5c1.2-0.6,2.5-0.5,3.6,0.1
			c1.4,0.8,0.9-0.7,1.3-1c0.8-0.6,1.6-0.6,2.5-0.5C716.2,31.9,718,30.4,719.7,31.2z"/>
		<path class="st85" d="M663.9,34.2c0-0.7,0.1-1.4,0.1-2.2c0.3,0,0.7,0,1,0c4.2-2.4,8.7-1,13.1-1.3c2.1-0.2,4.3,0,6.4-0.1
			c0.5-0.1,1-0.2,1.5-0.4c0.5-0.3,0.9-0.3,1.4-0.2c0.2,0.7,0.4,1.5,0.6,2.2c0.1,1.6-0.1,3.5-1.9,3.4C678.7,35.6,671,37.8,663.9,34.2
			z"/>
		<path class="st86" d="M559.9,53c-8.5,0.1-16.9,0.5-25.4-0.3c0-0.5,0-1.1,0-1.6c8.5,0,16.9,0,25.4,0
			C559.9,51.7,559.9,52.4,559.9,53z"/>
		<path class="st87" d="M711,42.1c-2-0.5-5.4,1-5.4-1.9c0-3.1,3.6-2.8,5.9-3c2.1-0.2,5.1,0.4,4.9,2.9
			C716.1,43.2,712.8,41.6,711,42.1z"/>
		<path class="st88" d="M553.9,32c-1,0-1.9,0-2.9,0c0-0.6,0.1-1.2,0.1-1.9c6.4-1,12.8-0.8,19.3-0.2C565.1,32.4,559.2,29.7,553.9,32z
			"/>
		<path class="st89" d="M711.8,32.2c0.6,0.5,1.1,1,2.4,2.2c-3-0.6-5.1-1-7.3-1.4c-2.1,0.7-4-0.2-6-0.8c-2.7-0.1-5.5-0.2-8.2-0.3
			c-0.4-1.1,1.1-1.4,1.1-2.3c-1.6-0.2-2.5,0.8-3.4,1.7c-0.4,0.2-0.9,0.3-1.3,0.5c-0.5-2,0.7-4.4-1.5-5.9c4.8-2.2,9.5-0.7,14.2,0.4
			c5,1.5,10.2,0.5,15.2,0.6c4,0.1,4,1.6,2.7,4.4c-1.6,0.2-2.8,2.7-4.8,0.9c-0.5-4.7-4.2-1.9-6.5-2.5C709.1,31,711.2,30.8,711.8,32.2
			z"/>
		<path class="st90" d="M175,74c-0.3-2.1,0.4-4.3,0.8-6.2c0.6-3,4.6-2.9,6.9-2.5c15.3,2.7,30.6-0.5,45.8,0.8c2.6,0.2,5.3,0.3,7.8,1
			c6.7,1.9,12.8-2,19.3-1.5c3.8,0.3,7.8,0.5,11.4-1.6c5.7-2.8,11.7-1.2,17.6-1.2c4.4,0,8.9,0.8,13.4,0.8c1.5,0,3.3,0,3.9,1.6
			c0.7,1.8-0.8,3-2,4.2c-2.4,2.4-5.4,3-8.7,3.1c-3.1,0-6.3-0.1-9.2,1.5C246.3,71.9,210.7,74.7,175,74z"/>
		<path class="st24" d="M282,74c2-3.6,5.6-3,8.7-2.9c4.6,0.2,8.1-1.4,10.9-5.6c-11.7-0.9-23.1-1.9-34.6-1.4
			c-10.8-0.7-21.4,1.4-32.2,1.1c-2.7-0.1-5.3-0.3-7.8-1.1c-6.9-1.2-13.8-0.2-20.7-0.6c-1.5-0.1-3.4,0.8-4.5-1.1
			c0.4-1,1.3-1.3,2.2-1.6c4-0.4,8,0,12-0.3c4,0,8-0.2,11.9,0.4c7.8,1.1,15.6,1.1,23.4,0c8.8-0.8,17.7-0.2,26.5-0.3
			c5.7,0.3,11.5-0.1,17.3,0.2c4.4,0.3,7.1-1.7,9-5.2c1.4-4.7-0.1-9.5,0.9-14.2c0.1-0.5,0.4-1,0.7-1.4c0.5-0.3,0.9-0.3,1.4-0.1
			c2,3,0.7,6.3,1.2,9.5c0.2,1.3,0.5,2.7,1.7,3.3c1.5,0.7,1.7-1,2.6-1.6c1-0.7,1.8-0.2,2.5,0.5c0.6,1.3,0.5,2.7,0.4,4.1
			c-1.6,3.2-5,2.6-7.7,3.8c2.1-0.1,4.1-0.2,4.3,2.5c-0.7,2-2,3.4-4,4c-3.3,1-5.9,2.7-7.5,5.8c-1,2-3,2.2-5.1,2.2
			C290.9,74,286.4,74,282,74z"/>
		<path class="st91" d="M318.1,80.1c-2.6-0.7-1.6-4.3-4.1-5.1c0.2-2.2-0.5-4.3,1.3-6.4c2-2.4-2.2-4.1-1.3-6.6c0-2,1.3-1.7,2.5-1.5
			c1.2,2,0.9,4.7,3,6.3c0.9,1.2,1.8,0.6,2.7,0c1-0.1,1.8,0.3,2.6,0.8c1,0.5,2,1.2,3.6,0c-2.5-1.3-5.4-2.6-3.7-5.9
			c1.3-2.5,3.8-2,6.1-1.2c1.2,1.4-0.1,3.1,0.7,4.3c0.2-1.3-0.5-3,0.9-4.2c1-0.5,1.9-0.4,2.9,0.1c0.8,0.8,1,1.7,1.1,2.8
			c0.1,0.9,0.1,1.9,0.1,2.8c0.2,1.7-0.1,3.3-0.5,4.9c0.1,0.4,0.1,0.8,0.2,1.2c0.1,0.6,0.1,1.3,0,1.9c-0.1,0.7-0.5,1.2-0.9,1.7
			c0,2.3,0.8,3.7,3.2,2.3c3.1-1.7,6.3-1.4,9.6-0.7c-3.8,0.8-7.6,1.6-11.4,2.2c-1.5,0.2-2.1,0.5-1.7,2c-1.2,1.1-2.4,0-3.6,0.1
			c-0.9,0-2.2-0.3-2.4,0.8c-0.1,0.7,0.8,1.5,1.3,2.3c-1.3,2.1-2.9,2.1-4.6,0.7c-1.6-1.5-1.3-3.2-0.3-5c0.7-1.3,2.5-1.7,3.2-3.5
			c-2.4-0.5-3.9-2.1-4.9-4.3c-0.5-0.3-1.1-0.6-1.7-0.7c-0.8-0.1-1.6-0.1-2.4,0.1c-3.1,1.9,0.1,3.4,0.4,5.1
			C319.8,78.7,319.9,79.9,318.1,80.1z"/>
		<path class="st92" d="M317,61c-1.1-0.1-2.3-0.2-3,1c-0.7,0-1.3,0-2,0c-1.2-1.8-3.4-1.7-5.2-2.4c1.9-3.1,6.5-1.3,8.2-4.7
			c2.8,0.5,1.5,4.4,4.2,5c0.2,0.5,0.1,0.9-0.2,1.3C318.3,61.6,317.6,61.6,317,61z"/>
		<path class="st93" d="M206,101.9c0.1-3.2-1.5-4.8-4.7-5c-2.4-0.2-4.7-0.8-4.2-4.1c8.3-4.9,17.5-2,26.3-3.2
			c1.2-0.2,2.3-0.7,3.1,0.6c0.7,1.2,0.7,2.6-0.2,3.7c-2.1,2.7-3.7,5.5-8.2,5.2c-3.3-0.3-6.8,1.2-10.1,1.8
			C207.4,101.3,206.7,101.6,206,101.9z"/>
		<path class="st94" d="M215,137.5c-10.2,0.4-20.4,0.6-30.5-0.4C194.6,137.7,204.9,136.4,215,137.5z"/>
		<path class="st95" d="M466.9,37c0.1,1.7,0.1,3.4,0.2,5.1c0,0.3,0,0.6-0.1,0.9c-2.4,3.2-5.3,1-8,0.9c-6.8-4.6-14.3-2-21.6-2.4
			c-0.7,0-1.8,0.3-1.4,1.4c0.3,0.8,1.3,0.9,2.1,1.2c1.4,0.6,3.1,0.6,4.1,1.9c-1.2,3,0.7,7.1-3.2,9.1c-0.3,0-0.7-0.1-1-0.1
			c-1.9-1.6-0.7-4.2-1.9-6.1c-1.5,1.8-0.2,4.5-2.2,6c-2.6,0.4-2.8-1.1-3-3.1c-0.2-1.6,1.6-3.7-1-4.8c-2.6,2.1-0.6,5.9-3,8
			c-0.6,0-1.2,0-1.9,0c-1.9-1.5-0.9-4-1.9-6c-1.6,2-0.3,4.6-2.2,6.1c-0.7,0-1.3,0-2,0c-0.5-0.5-0.6-1.2-0.5-1.8
			c0.7-4.1-0.4-6.9-5-7.3c-1-3.3-3.2-4.7-6.7-4.5c-4,0.2-7.9,0.1-11.9,0.1c-2.7,0-4.8,0.9-6.1,3.5c-0.4,0.6-0.9,1.2-1.5,1.7
			c-3.9,1.6-2.3,6-4.3,8.5c-0.4,0-0.7,0-1.1,0c0-3.9,0.8-8.1-2.9-11c0-4.9-0.1-9.9-0.1-14.8c2.4,2.9,0.2,6.6,1.6,10.5
			c0.5-2.9,3.3-3.8,1.5-7.4c-0.9-1.7,3.7-2.1,6-0.2c0.8,2.1,2.6,1.7,4.2,1.6c21.5-0.2,42.9-0.3,64.4,0.1c1.2,0,2.3,0,3.3-0.7
			C462.5,33.9,462.8,38.8,466.9,37z"/>
		<path class="st96" d="M413.9,57.1c6.4,0,12.7,0,19.1,0c1.2,1.5,2.8,2.4,4.7,2.4c5.1,0.2,10.3,0.2,15.5,0c1.9-0.1,3.5-0.9,4.7-2.4
			c1.7,0.2,3.7-0.7,5.1,1c0.2,0.2,0.3,0.4,0.2,0.6c-0.1,0.2-0.2,0.3-0.2,0.3c-1.6,0.1-1.8,0.9-1.4,2.4c0.5,2.1-1,2.6-2.7,2.6
			c-12.3,0-24.7,0.6-36.9-0.1c-9.7-0.5-19.4,0.7-29.1,0.2c-6.5-0.3-6.5-0.1-9.1-6.5c1.4-0.9,2.9-0.4,4.4-0.5
			c1.1,1.4,2.5,2.2,4.2,2.4c5.8,0.4,11.6,0.4,17.4,0C411.4,59.3,412.8,58.4,413.9,57.1z"/>
		<path class="st97" d="M413.8,46c4-1.1,5.6,0.5,5.2,4.5c-0.1,1.5,0,3,0,4.5c-2.3-1.9-0.1-4.8-1.5-6.9c-2,1.9,1.7,6.8-3,6.8
			c-5.1,0.1-1-5-3.3-6.9c-0.9,2.9,1.3,8.4-5.3,7c-2.1-2.6-1.6-5.5-0.8-8.4c1.2-2,3.3-1.7,5.1-2.1C411.8,44.4,412.9,45,413.8,46z"/>
		<path class="st98" d="M413.9,57.1c0.2,2.7-1,4-3.7,4c-6.1-0.1-12.3-0.1-18.4,0c-2.8,0-3.9-1.3-3.8-4
			C396.7,57.1,405.3,57.1,413.9,57.1z"/>
		<path class="st98" d="M457.9,57.1c0.2,2.7-1,4-3.7,4c-5.8-0.1-11.6-0.1-17.4,0c-2.8,0-4-1.3-3.7-4
			C441.3,57.1,449.6,57.1,457.9,57.1z"/>
		<path class="st99" d="M458.7,43.2c2.8-1,5.6,1.4,8.3-0.1c0,2,0,4,0,6c0.3,3.5-2.4-4.1-1.8,0.5c0.2,1.9,0.5,4-1.1,5.6
			c-4.1-1.2-0.5-5.2-2.6-7.2c-0.9,1.6-0.3,3.2-0.4,4.8c-0.1,1.7-1.1,2.2-2.6,2.2c-1.7,0-2.4-0.8-2.4-2.4c0-2.2,0-4.3-0.1-6.5
			c0.2-1,1.7,0.1,1.8-1.1C457.6,44.2,457.9,43.6,458.7,43.2z"/>
		<path class="st93" d="M464,55.1c0-3,0-6.1,0-9.7c2.6,0.9,1.5,3.2,3,3.6c0,5,0,10,0.1,15c-0.1,1.6-0.1,3.2-0.2,4.7
			c-5.8-1.5-4.1-5.9-3.9-9.8c0-0.3,0.1-0.6,0.1-0.9C464.1,57.3,463.9,56.2,464,55.1z"/>
		<path class="st100" d="M402.1,55.2c-2.7,0.1-5.4,1.6-8.1-0.1c1.5-3.1-0.6-7.4,3.6-9.5c2.5-0.6,3.9,0.5,3.8,3c0,2,0,3.9,0.7,5.8
			C402.1,54.7,402.1,54.9,402.1,55.2z"/>
		<path class="st101" d="M454.9,55c-3,2.6-5.9-0.8-8.9,0c-2-3.5-2.4-6.7,1.3-9.4c0.8-0.3,1.6-0.4,2.4-0.1c2.7,2,0.2,5.9,2.9,7.9
			C453.5,53.8,454.3,54.4,454.9,55z"/>
		<path class="st102" d="M439,55.2c2.5-2.5-0.8-7,3-9.1c0.7-0.6,1.5-0.6,2.2-0.1c1,3,1.6,6.1-0.2,9.1C442.3,54.9,440.7,57,439,55.2z
			"/>
		<path class="st103" d="M406,46.1c0,3,0,6,0,8.9c-1.3,0.8-2.6,0.9-3.9,0.2l-0.2-0.3c-1.1-2-0.9-4.2-0.7-6.3
			C401.6,45.4,403.2,44.5,406,46.1z"/>
		<path class="st104" d="M393.1,54.9c-2,1-4.1,1.9-6.2,0.2c0.1-0.2,0.2-0.4,0.3-0.7c1.5-1.1,1.4-2.8,1.6-4.4c0.2-2.2,1-4.1,3.5-4.6
			c0.8-0.1,1.6,0.1,2.2,0.8C395.3,49.3,395.4,52.3,393.1,54.9z"/>
		<path class="st101" d="M421,55c0-1.8,0.1-3.6,0-5.4c-0.1-1.9,0.9-3,2.5-3c2.1-0.1,1.4,1.8,1.5,3c0.1,1.8,0.1,3.6,0.1,5.4
			C423.7,55.1,422.4,56,421,55z"/>
		<path class="st104" d="M383,55.1c0.8-3.2-2.4-8.1,3.9-9c0.2,0.2,0.4,0.4,0.6,0.6c1.1,2.8,1.3,5.6-0.5,8.2l-0.2,0.2
			C385.6,55,384.3,56,383,55.1z"/>
		<path class="st105" d="M433.9,55c0-2,0-4,0.1-5.9c0-1.4,0.9-2.2,2.1-2.3c1.6-0.1,1.7,1.2,1.8,2.4c0.1,2,0.1,4,0.1,5.9
			C436.6,55.1,435.3,56,433.9,55z"/>
		<path class="st106" d="M454.9,55c-1,0-2.1-0.1-3.1-0.1c-1.3-2.5-1-5.1-0.5-7.7c0.9-1.4,2-2.2,3.7-1.1C455,49.1,455,52.1,454.9,55z
			"/>
		<path class="st107" d="M455,46.1c-1.2-0.3-2.1,0.4-3,1c-1.2,0.5-1.5-0.5-2-1.1c-0.7,0-1.3,0-2,0.1c-1.4,0.6-2.7,1-4.1,0
			c-0.7,0-1.3,0-2,0c-1.4-0.2-3,0.5-4-1c6.6-2.6,13.2-2.2,19.8-0.3c0.7,0.5,2.7-0.2,2.2,1c-0.7,1.7-2.7,0.2-4.1,0.4l-0.4-0.1
			L455,46.1z"/>
		<path class="st108" d="M426.9,55c0-1.7,0.2-3.5,0.1-5.2c-0.1-2.1,1-2.8,2.9-2.8c0,1.8,0,3.6,0.1,5.4
			C430.1,54.6,428.9,55.2,426.9,55z"/>
		<path class="st109" d="M393.1,54.9c0.1-2.9,1.3-5.7,0.7-8.7c1.3-1.4,2.7-1.4,4.2-0.1c-1.8,1.2-2.1,2.9-2,5
			c0.1,1.6,0.6,3.7-2.1,4.1C393.7,55.1,393.4,55,393.1,54.9z"/>
		<path class="st110" d="M443.9,46.1c1.4,0,2.7,0,4.1,0c-3.3,2.4-1.5,5.9-2,9c-0.7,0-1.3-0.1-2-0.1C444,52,444,49.1,443.9,46.1z"/>
		<path class="st111" d="M319,61.1c0-0.4,0-0.7,0-1.1c-0.8-0.8-1-1.7-0.9-2.8c0.1-0.5,0.3-1,0.6-1.4c1-0.9,2-1.4,3.4-1
			c1.2,1,0.8,2.4,1,3.2c-0.6-1.4,1.1-3.9-1.7-5c-0.9-0.1-1.8-0.2-2.5-0.9c-0.5-0.6-0.6-1.3-0.5-2c0.5-1.6,1.3-3,3.1-3.4
			c0.5,0,1.3,0.4,1.2-0.6c0-0.9-0.9-1.1-1.6-1.3c-2.6-1.1-2.6-3.3-1.6-5.3c1-2.1-0.8-2.7-1.6-3.6c-0.9-1-1.1,0.5-1.4,1.1
			c1.2,3.8-0.8,7.6,0,11.4c0.2,0.7-0.6,1-1.3,1.2c-4.6-1.3-6.8-4.3-6.5-9.1c0.2-2-0.5-3.9-0.8-5.8c-0.2-3.6,2.1-4.9,5.1-5.6
			c1.8-0.4,3.6-0.2,5.4-0.5c4.4-0.1,8.8,0,13.2,0c2,0,3.9,0.1,5.5,1.6c4.3,0,8.6-0.1,12.9,0.1c2.7,0.1,6.1-1.1,6.5,3.7
			c0.1,1.7,2.5,1.2,3.9,1.1c1.9-0.1,1.3-1.6,1-2.6c-0.3-1.3,0.4-2.2,0.8-3.3c1.2,0.3,3.9-1.3,2.1,2.4c-1.2,2.5-0.8,5.7-1.2,8.6
			c-0.4,2.7-0.6,2.9-2.4,1.7c-0.9-0.6-1.4-1.9-2.7-0.7c-2.5,3,0.7,7.2-2.1,10.2c-1.8,1.4-3.8,1.3-5.9,0.8c-3.2-1.2,1.3-3.1-0.4-4.4
			c-2.4-1-4.9-1-7.3-1.2c-1.8-0.1-3.8,0.1-4.7-2c1.1-3.7,4.3-2.3,6.7-2.5c3-0.3,6.1-0.1,7.3-4c0.5-0.3-0.3-0.7-0.4-0.4
			c-0.3,1.3-1.5,1.5-2.6,1.8c-2.6,0.2-5.2,0.5-7.8-0.4c-0.3-2.1-0.3-2.1,3-2.8c-2.7,0-5.3,0-7.6,1c-0.4,0.3-0.8,0.5-1.2,0.7
			c-1.1,0.4-2.1,0.8-3.3,0.9c-1,0.1-1.9-0.7-3.2-0.2c2.1,0.5,2.9,2.1,3.2,3.8c0.1,0.7,0,1.4-0.4,2c-0.9,0.9-2.1,0.8-3.3,1.4
			c0.5,1.1,2,0.8,2.6,1.7c0.9,1.5,1.5,3,0.9,4.7c-0.7,1.2-2.4,0.8-3.4,2c1.6,0.4,2.1,2.1,3.7,2.5c0.5-0.8,1.1-1.7,2.3-1.6
			c0.8,0.4,1.2,1.2,1.7,1.9c1.2,2.1,3.1,1.6,5,1.3c2.9-0.2,5.7-0.3,8.6-0.1c0.2,0,0.5,0.1,0.7,0.1c5.1,1.7,2.2,3.4,0,5
			c-5.4,2.7-10.2,1.2-14.8-1.9c-1-0.1-2.1-0.1-3.1-0.2c-0.4,0.6-0.8,0.6-1.1,0c-1.2,0-2.3,0-3.5,0c-1.3,0-2.3,0.3-2.4,1.9
			c-0.1,1.5,0.5,2.7,2,2.9c1.3,0.2,3.2-0.7,2.9,1.9c-0.1,1-0.3,2.1-1.5,2.2c-1.9,0.2-4.1,0.8-4.6-2.1c-0.4-0.8-0.8-1.5-0.7-2.5
			c-0.4,0.5-0.5,1.1-0.9,1.5c-0.4,1.1,0.2,3-1.7,3c-1.8,0-1.2-2-1.7-3C317.7,64.9,317.5,63,319,61.1z"/>
		<path class="st112" d="M335.1,72c-0.1-0.3-0.1-0.7-0.2-1c4.5-3.5,9.4-5.1,15-2.9c0,1.7,0,3.3,0,5C344.9,74.6,339.9,74.7,335.1,72z
			"/>
		<path class="st113" d="M349.9,68.1c-5.2-0.1-10.1,1.2-15,2.9c0.1-1.4,0.1-2.8,0.2-4.1c5.5-2.6,11.1-3.3,16.9-0.8
			C351.3,66.7,350.6,67.4,349.9,68.1z"/>
		<path class="st114" d="M356,51.9c1.7,1.1,0.6,2.6,0.7,3.9c-0.9,0.9-1.8,0.2-2.7,0.2c-4.4,0.9-8.8,2.3-13.4,0.7
			c-1.8-2.2,0.5-2.3,1.6-2.7c2-0.7,4.2,0,6.3-0.7C350.6,51,353.3,51.3,356,51.9z"/>
		<path class="st115" d="M335.2,61.2c4.8,1.2,9.8,1.6,14.8,1.9c0.4,0.9,2.1,0.7,2.1,2c-5.7,0.3-11.5,1.6-17.1-1
			C334.4,63.1,334.8,62.1,335.2,61.2z"/>
		<path class="st116" d="M340.1,56c4.6,0,9.2,0,13.8,0c-0.8,1.7-3.1,0.5-4,2l0,0c-3.2,1.4-6.8-0.4-10,1c-2.3,0.8-4.4,1.3-5.1-1.9
			C336.4,55.5,338.2,55.7,340.1,56z"/>
		<path class="st117" d="M335.1,72c4.9,0.4,9.8,1.4,14.8,1c0.7,0.6,1.5,1.3,2.2,1.9c-4,0.1-8.1,0.2-12.1,0.2
			c-1.7-0.4-3.7,0.3-5.1-1.2C335,73.3,335.1,72.7,335.1,72z"/>
		<path class="st118" d="M334.9,64.1c5.7,0.3,11.4,0.6,17.1,1c0,0.3,0,0.7,0,1c-5.7-0.6-11.3,0.4-16.9,0.8
			C335.1,66,335,65,334.9,64.1z"/>
		<path class="st82" d="M489.8,54.1c1.4-0.4,2.8-0.7,4.2-1.1c10.8,0,21.5,0,32.3,0c1.9,0,4-0.6,5.7,1.1c-0.2,2-1.7,1.9-3,1.9
			c-11.4,0-22.8,0-34.2-0.1C493,56,490.6,56.9,489.8,54.1z"/>
		<path class="st119" d="M488.7,51.2c0.1,0.3,0.2,0.6,0.3,0.8c-0.3,0-0.6,0-1,0.1c-2.6-1.3-5.2-1-7.9-0.2c-1.4-0.9-2.7-1.9,0.1-2.5
			c2.6-0.6,5.3,0,7.8,0.7C488.5,50.3,488.7,50.7,488.7,51.2z"/>
		<path class="st120" d="M334.9,122.9c0.3,0,0.6,0,1,0c2-0.7,3.9-1.2,5.2,1.2c-1.8,1.2-3.8,1.7-5.9,1.7
			C335.1,124.9,335,123.9,334.9,122.9z"/>
		<path class="st121" d="M324,98.9c-0.7,0-1.3,0-2,0c1.9-1.9-1.4-4.6,1.2-6.9C324.7,94.5,323.5,96.8,324,98.9z"/>
		<path class="st122" d="M332.1,98.9c-0.4,0-0.8,0-1.2,0c0.9-1.9-2.2-4.4,0.7-6.3C333.1,94.7,331.4,96.9,332.1,98.9z"/>
		<path class="st123" d="M323.9,71c1.7,1.7,1,5.9,5.5,5c0.6-0.1,1.4,3.4-1.6,4.1c-2.1,0.5-3.1,2.2-2.4,4.2c0.9,2.5,2.8,1.6,4.6,0.8
			c0.2,1.6,1.4,3.1,0.1,4.7c-2,0-3.9,0-5.9,0c-1.1-1.7-1.1-1.7-2.1,0c-1,0-1.9,0-2.9,0c0-2.3,0-4.6,0-6.9c-0.3-0.9-0.6-1.8-0.9-2.7
			c1.2-0.9,1-2.1,0.8-3.3c-1.2-1.9-1.4-3.7-0.2-5.7c1.2,0,2.4,0,3.6,0c0.5,1,0.1,2.2,0.7,3.3C322.8,73.1,323.1,72,323.9,71z"/>
		<path class="st124" d="M334,89.8c-0.3,0-0.7,0-1,0c-1-1.7-1.4-3.5,0-5.8C334.3,86.1,335.6,87.6,334,89.8z"/>
		<path class="st125" d="M334.9,74c1.7,0.5,3.8-0.8,5.1,1.2c-1.5,1.5-3.3,0.8-5,0.8C335,75.4,335,74.7,334.9,74z"/>
		<path class="st126" d="M341.1,124.1c-1.6-1.1-3.4-1-5.2-1.2c4.7-1.9,8.9-1,13,1.7C346.3,123.6,343.7,123.9,341.1,124.1z"/>
		<path class="st127" d="M324.1,101.1c2.3,0.1,4.6,0.1,6.9,0.2c0,2.3,0,4.5,0,6.8c-2.2,1.2-4.5,1-6.9,0.6
			C322.1,106.2,322.2,103.6,324.1,101.1z"/>
		<path class="st128" d="M318.1,101c1.6,0,3.2,0.1,4.8,0.1c0.3,1.5,0.2,3,0.1,4.4c-0.1,2.6-1.4,3.6-3.9,2.4
			C318.8,105.6,319.5,103.2,318.1,101z"/>
		<path class="st129" d="M319,107.9c2,0.3,3.2-0.4,2.9-2.6c-0.2-1.5,0.2-2.9,0.9-4.2c0.4,0,0.8-0.1,1.2-0.1c0,2.5,0,5.1,0,7.6
			c-1.7,0-3.4,0.1-5.1,0.1C319,108.5,319,108.2,319,107.9z"/>
		<path class="st22" d="M322,89.8c0.5-2.1-0.8-4.5,1-6.9c2.1,2.2,0.6,4.7,1.2,6.8C323.4,89.8,322.7,89.8,322,89.8z"/>
		<path class="st130" d="M5.2,52c0-3.7,0-7.3,0-11c3.8-0.6,7.6,1,7.9,4.3c0.6,6.6,3.6,13.1,1.3,19.9c-0.3,4.4,1,8.4,3.2,12.2
			c1.4,2.4,2.4,3.2,4.8,1c3.5-3.2,4.1-2.9,5.7,1.3c2.6,6.5,6.6,8.5,13.7,8.5c8,0,15.9,0.9,23.8,2.3c1.9,0.3,3.9,0.8,5.9,1
			c2.1,0.2,4.5-0.1,5.6,2.4c0,0.3,0,0.7,0,1c-1.2,1.4-2.9,1.4-4.6,1.3c-5.9-0.2-11.8,0.3-17.6,1.5c-10.5-2.3-19.5,0.6-27.2,8.1
			c-1.2,1.2-2.7,2.4-4.4,1.8c-3.2-1.2-5.7-1.1-8.6,1c-1.6,1.2-3.4-0.1-2.5-2.4c2.6-6.5,1.5-13-0.2-19.4c-1.2-4.5-1.8-9.1-3-13.5
			c-0.8-3.1-1.9-5.9-3.9-8.4c0-1.6,0-3.3,0-4.9C8.7,57.4,7.5,54.7,5.2,52z"/>
		<path class="st131" d="M77.1,94c-8.6-2.1-17.3-3.2-26.1-3.9c-4.4-0.3-8.7-1.4-13.2-0.1c-2,0.6-4.3-0.1-5.2-2.1
			c-1.6-3.4-6.8-4.5-5.8-9.6c0.2-1.3-1.5-1.5-2.4-0.3c-2.7,3.6-5,6.9-8.1-0.1c-1.8-4.2-3.5-8.2-3.2-12.9c2.3-1.3,3,0.6,3.6,2
			c1.6,3.9,4.1,4.6,7.9,3.3c3.5-1.2,6.7,0.2,9.2,2.7c1.5-3.3-0.1-7.4,3-10.2c0.2-0.1,0.5-0.1,0.7-0.2c0.5,0.1,0.9,0.3,1.2,0.8
			c0.5,3.4,0.9,6.8-0.6,10c-1.4,2.8,2,5.2,0.7,7.9c-0.2,0.5-0.6,0.8-1.1,1c-1.5,0.8-2.6-1.7-4.1-0.6c-0.5,0.4-0.3,1.2,0,1.9
			c0.9,1.8,2.6,2.8,4.5,2.5c7.5-1,14.9-0.9,22.3,0.4c8.6,1.5,17.4,2.5,26,4.4c5,1.1,9.9,0.7,14.9-0.1c3.3-0.6,6.6-0.9,9.8-1.6
			c7.6-1.5,19.7-18.4,19-26.4c4.9-6.1,7.3-6.3,10.1-0.8c0.8,1.7,0.8,2.9-0.2,4.6c-1.5,2.4-4,4.1-5.4,6.5c-2.6,4.4-6.9,7.9-7.3,13.7
			c-0.2,2.9-2.1,6.3-6.6,4.4c-0.4-0.2-1.1-0.2-1.4,0.1c-7.3,4.9-15.8,2.7-23.7,4.3c-4.7,0.9-9.2-2.2-14-1.5
			C80.1,94.4,78.6,94.1,77.1,94z"/>
		<path class="st132" d="M37.1,63c-0.8,4.3-1.6,8.7-2.5,13.5c-3-5.1-6.6-7-12.4-3.9c-2,1.1-5.2-0.5-6.1-3.6c-0.5-1.8-0.7-3.7-3-4
			c1.1-4,1.5-8-0.1-12.1c-0.5-1.2-1-2.6-0.8-3.8c1.1-5.8-2.7-7.1-6.9-8.1c0-1,0-2,0-3c2.6-1.1,4.7-0.1,6.5,1.7
			c2.1,3.2,5.4,5.5,7,10.1c2.9-8.6,10.4-8.3,16.5-9.5c7.4-1.5,15.1-2.1,22.8-1.5c1.2,0.1,2.3,0.2,3.1,1.2
			c-6.3,2.2-12.9,2.5-19.4,3.3c-4.8,0.6-9.2,2.3-13.8,3c-1.6,0.3-1.2,1.4-0.5,2.6c2,3.3,5.8,2.7,8.6,4.1c0.1,0.2,0.2,0.4,0.4,0.6
			C36.8,56.8,38,59.8,37.1,63z"/>
		<path class="st133" d="M125.9,50.2c-23.6,0-47.2,0-70.8,0c-5.2,0-9.8,2.8-14.8,3.9c-1.5,2.8-0.2,5.8-0.8,8.6
			c-0.4,0.5-0.8,0.6-1.3,0.2l0,0c-1.9-3.1-0.3-6.8-2.1-9.9l0,0c0.1-1,0.3-2.2,1.3-2.5c6.4-2.1,12.3-5.6,19.4-5.5
			c19.5,0.1,38.9,0,58.4,0.1c3.6,0,7.2-1,10.8-0.1c1.5,0.4,3.2,0.6,4,1.7c1.1,1.6,4.1,3.1,2.2,5.3c-1.8,2.2-2.9-1-4.4-1.5
			C127.2,50.3,126.5,50.3,125.9,50.2z"/>
		<path class="st132" d="M130.1,63c2.5,1.2,2.6,2.5,1.5,5.1c-2.9,6.8-8.4,11.8-12.3,17.9c-3.4,5.3-9.5,4.6-14.8,5.8
			c-9.5,2.1-18.7,0.1-28.1-1.4c-12.5-2-25-5.4-37.9-2.9c-2.3,0.5-5,0-6.3-2.8c-1.2-2.6-1.1-3,2-6.5c1.3,1.3,1.4,4,4,3.8
			c1.5,1.7,3.5,1.5,5.5,1.6c13.9,0.6,27.8,0.6,41.7,1.3c3.2,0.2,6.2,0.6,9.1,2c5.1,2.5,18.1-0.8,21.3-5.1c2.8-3.9,5.5-7.8,8.3-11.7
			c-0.6-3.4,1.3-5.1,4.1-6.1C128.8,63.7,129.4,63.4,130.1,63z"/>
		<path class="st134" d="M54.1,97c7.5-2.7,15.3-1.9,23-2c5.7,0.6,11.1,3.4,16.9,2.9c5.1-0.4,9.6,2.8,14.7,2.1
			c1.3-0.2,3.2,0.3,3.8-0.5c3.9-4.4,9.1-3,13.8-3.5c3.4-0.4,5.8-0.5,6.8-5.2c0.8-3.7,3-7.8,6.2-10.5c3.2-2.6,5.1-6,7.6-9.1
			c2.2-2.8,3.8-6.1,8.2-6.5c2.2-0.2,2.4-3.5,4.4-4.5c1.6-0.8,3.9-3.9,4.6,0.8c-1.1,3.3-4.4,4.2-6.9,6c-7.3,2.3-9.8,9-13.8,14.5
			c-4.7,6.3-9.5,12.5-13.4,19.3c-1.1,2-2.7,3.3-4.7,4.1c-4.5,1.8-5,1.5-5-3c0-0.6,0.3-1.3-0.4-1.7c-0.8-0.5-1.8-0.3-2.2,0.4
			c-3,4.8-7.3,3-11.4,2.4c-5,0.7-8.9-2.6-13.5-3.4c-1.3-0.2-2.4-1-3.5,0.4c-3.2,0.8-6.2-0.7-9.3-1c-10.8-1.2-21.5,1.3-32.3,0.5
			c-1.4-1.4-0.1-1.9,0.8-2.4C50.2,96.1,52.2,96.7,54.1,97z"/>
		<path class="st135" d="M61.1,40.1c-8.1-0.5-16.4-0.4-24.3,1.3c-4.5,1-10,0-13.7,4.1c-1.9,2-4.3,3.7-3.9,7.4
			c-1.4-5.4-6.2-8.2-8.1-12.9c0.2-0.1,0.4-0.2,0.5-0.2c7.4,4,14.2-0.6,21.3-1.3c6.1-0.6,12.2-0.8,18.2-1.5c20.8,0,41.5,0.1,62.3-0.1
			c8.2-0.1,16.5-1.8,24.7,0.1c4.5,1.2,8.2,4.1,12.3,6.1c5,2.5,9.9,0.9,14.8,0.1c1.6,2.6-2.6,2.6-2.1,4.7c-5.5,2-11.1,1.2-15.7-1.8
			c-8.4-5.6-17.3-7.8-27.2-6.9c-14.5,1.2-29.1,1.1-43.6,0.1c-4.5-0.3-8.9,1.6-13.3,0.7C62.4,40.1,61.8,40.1,61.1,40.1z"/>
		<path class="st132" d="M63.1,40.1c9.9-2.7,19.8-1.2,29.8-1c4.6,0.1,9.3,0.3,13.8-0.2c8.4-1,16.9,0.1,25.3-0.6
			c4.5-0.3,9.3,2.1,12.8,4.8c5.6,4.4,11.9,4.3,18.2,4.9c-6.5,5.5-12.7,4.8-18.4-0.7c-7-6.7-16-8.5-25.3-7.1
			c-9.2,1.3-18.4,0.8-27.6,0.9c-8.3,0.1-16.7-1.3-25,0C65.5,41.2,64.1,41.3,63.1,40.1z"/>
		<path class="st136" d="M128.1,64c-1.4,2-3.5,3.6-4.1,6.1c-2.8-1.9-5.9-2.4-9.3-2.5c-3.1-0.1-1.3-3-1.6-4.6c2.7-1.3,5.4-3,8.6-1.6
			c0.1,0.2,0.2,0.4,0.3,0.7C123.6,64.1,126.6,61.9,128.1,64z"/>
		<path class="st137" d="M122.1,53.3c2-0.1,3.9-0.2,5.9-0.3c3.2,2.3,2.6,5.1,1.2,8.1c-1.9-2.5-5.1-3.1-7.4-4.9
			C121.4,55.1,121.4,54.2,122.1,53.3z"/>
		<path class="st138" d="M122.1,56.1c3,0.7,6.8,0.3,7.1,4.9c-2.3,0.5-4.9-0.1-7.1,1l0,0c-0.6-1.2-1.5-2.4-1.6-3.9
			C120.6,57.2,121,56.4,122.1,56.1z"/>
		<path class="st9" d="M157.1,67c2.3-2,4.6-4,6.9-6c0,1,0,2,0,3C161.9,65.6,159.6,66.6,157.1,67z"/>
		<path class="st139" d="M459.9,33.1c0.2,2.1-0.4,2.7-2.8,2.6c-22.7-0.8-45.5-1.1-68.2,0.1c-0.8,0-2,0-2.3-0.4
			c-0.9-1.5,1-2.2,1.4-3.4c21.7,0,43.4,0,65.1,0C455.5,32.1,457.8,31.8,459.9,33.1z"/>
		<path class="st140" d="M389.5,25.1c1.5,0.5,4.2-1.1,4.3,1.8c0.1,2.6-2.5,2.2-4.2,2.1s-4.6,1-4.5-2.1
			C385.2,24.1,387.9,25.6,389.5,25.1z"/>
		<path class="st141" d="M405.5,25c1.7,0.6,4.4-0.9,4.5,1.9s-2.5,2.1-4.1,2.1c-1.8,0-4.7,0.8-4.6-2.1C401.3,24,404.2,25.8,405.5,25z
			"/>
		<path class="st141" d="M423,29.1c-2-0.4-4.9,0.7-4.7-2.3c0.1-2.6,2.9-1.5,4.4-1.5c1.6,0,4.2-1.1,4.3,1.8
			C427,29.9,424.3,28.6,423,29.1z"/>
		<path class="st142" d="M455.9,29c-1.6-0.4-4.5,0.8-4.5-2.1c0-2.6,2.7-1.9,4.3-1.7c1.6,0.1,4.5-1.4,4.6,1.8
			C460.2,29.6,457.7,28.8,455.9,29z"/>
		<path class="st143" d="M439.4,25.1c1.5,0.6,4.3-1,4.2,1.9c-0.1,2.9-2.9,2-4.7,2c-1.7,0.1-4.3,0.6-4-2.2
			C435.2,24.1,437.8,25.6,439.4,25.1z"/>
		<path class="st144" d="M358,41c0.3-1.1-0.6-2.9,1-3.3c1.3-0.3,1.5,1.4,1.8,2.4c0.8,2.5,1.5,2.4,2.3,0c2.4-1,2.2,0.8,1.9,2
			c-1.1,4.7-0.8,9.5-1.7,14.4C360.6,51.6,357,47.1,358,41z"/>
		<path class="st116" d="M356,51.9c-2.2,0.5-5.1-1.1-6.2,2.3c-3.3-0.1-6.9,1.6-10-1c1.7-1.5,3.8-0.2,5.5-0.8c0.7,0,0.1-0.8,0.3-0.2
			c0,0.1-0.1,0.2-0.4,0.2c-1.7-0.1-3.5,0.3-5.7-0.8c3.4-2.8,6.4-2.7,9.6-0.8c2.3,0.1,4.5,0.1,6.8,0.2C355.9,51.4,356,51.7,356,51.9z
			"/>
		<path class="st145" d="M318,30c-3.3,1-8.8-1.9-9.1,4.8c-1.1,1.4-2.2,2.8-3.6,3.7c-2.7,1.5-5.6,1.8-8.7,1.8c-23.1,0-46.3,0-69.4,0
			c-2.1,0-4.4,0.4-6.1-1.4c-0.3-4-0.7-7.9-1-11.9c1.3,0.3,2.6,0.7,3.9,1c3.4,1.8,6.7,1.3,10.1,0c3,0,6,0,9,0c0.9,1,3.6-0.3,3.2,2.1
			c-0.3,2.1-2.4,1.2-3.8,1.3c-1.8,0.2-3.6,0-5.7,0.2c8.8,0.1,17.2-1.7,25.8-1.1c1.6,0.1,4-1.7,6.3-2.1c4.9-0.7,9.8-0.7,14.8,0
			c3.4,0.5,6.9,0.6,10.4-0.3c1.1-0.1,2.3,0.2,3.1-0.9c6.4-0.6,12.7,0.5,19.1,0.8C317.2,28.2,318.1,28.8,318,30z"/>
		<path class="st146" d="M318,30c-2.5-1.9-5.5-0.9-8.2-0.9c-4.4,0-8.6-0.5-12.7-1.9c0.3-1.4,0.6-2.8,0.9-4.1
			c5.4,2.2,10.5,1,14.8-3.8c1.2-1.4,2.6-1.1,4-1.3c1.7-0.2,3.7,0.7,5.1-1c2.3-1.3,4.7-1.4,7,0c2.4,2,5.3,0.6,8,1
			c3.6,1.2,6.7,2.9,8.6,6.7c-2.6,2.1-8.6-1-8.6,5.3C330.7,30.1,324.3,30.1,318,30z"/>
		<path class="st61" d="M294,28.2c-3.9,3.7-8.5,1.8-12.7,1.4c-5.1-0.5-10.2-1-15.3,0.3c-7.4,1.9-23.4,3.1-31.1,1.2c3.5,0,7,0,10.6,0
			c-0.3-2.3-2.1-1.8-2.6-2.9c8.3,0,16.7-0.1,25-0.1c1.3,0,2.7,0,4,0c3.1-2,6.4-0.4,9.7-0.4c3.8,0.1,7.6-0.5,11.3,0.4
			C293.3,28.1,293.7,28.1,294,28.2z"/>
		<path class="st64" d="M293,28c-7,0-14,0-21,0c0.2-1.1,0.7-2.1,1.9-1.9C280.2,27.2,286.7,26.4,293,28z"/>
		<path class="st92" d="M306,40c-0.5,5.3,1.1,10.8-0.9,16c-1,1.2-0.5-4.9-2.2-0.4c-0.3,0.8-0.7,1.6-1.8,1.3
			c-0.6-0.2-0.9-0.9-1.1-1.6c-0.1-0.5-0.2-1-0.3-1.5c-1.1-6.4-1.1-6.4-7.7-6.4c-5.3,0-10.6-0.1-15.9,0.2
			c-10.2,0.1-20.3,0.1-30.5-0.1c-3.4,0.2-6.8,0-9.8-1.2c-8-3-16.2-3.4-24.6-2.8c-7.1,0.5-14.3,0-21.4-0.1c-0.8,0-1.6,0-2.5,0
			c-1.3,0-2.6-0.1-3.9-0.5c-1-0.3-1.9-0.9-2.4-1.9c1.4-1.7,3.3-0.6,5-1.1c7.1-2.5,14.4-1.3,21.6-0.9c2,0.1,3.9,0.4,5.9,0.5
			c27.9,0,55.8-0.1,83.7,0.1C300.2,39.7,303.2,38.1,306,40z"/>
		<path class="st147" d="M47.1,99c8,0.2,15.9-1.2,23.8-1.7c6-0.4,12.5-0.6,18.1,2.7c4.3,1.6,8.6,3.2,12.9,4.9
			c1.5,0.6,3.2,1.1,4.4,2.1c7.1,5.4,12.9,5.5,20,0.2c0.8-0.6,1.6-1.1,2.7-1.1c-0.3,1.3-0.7,2.7-1,4c-1.7,2.2-3.8,4.3-5.1,6.7
			c-2.6,4.9-6,3.3-9.2,1.3c-7.8-4.7-15.4-9.8-23-14.6c-6.1-3.9-13.2-2.9-19.8-3.2c-11.6-0.6-23.3-0.5-34.9,0.8
			C39.3,97,41.8,96.5,47.1,99z"/>
		<path class="st148" d="M183,50c0,1,0.2,2,0,3c-0.4,2.2,0.7,6.4-0.9,6.1c-2.8-0.4-6.3-1.7-7.5-5.3c-0.5-1.4-1.5-3-3.2-2.2
			c-1.9,0.8-1.6,2.6-0.9,4.3c0.3,0.8,3,0.9,0.7,2.7c-1.7,1.3-2.2,0.2-3.2-0.6c0.4-5.1,0.9-10.1,1.4-15.2c0-0.3,1.1-0.6,1.6-0.8
			c0.7,0.7,0.3,2,1,2.5c-0.5-0.7-0.3-1.7-1-2.5c0.7-1.1,1.9-0.9,3-1c2.6-0.3,3.4,1.5,3.7,3.5c0.3,2.1,1.5,3.1,3.3,3.8
			C181.8,48.7,182.6,49.2,183,50z"/>
		<path class="st77" d="M306,40c-40,0-80,0-119.9,0c0-0.3,0-0.6,0-0.8c0.4-0.3,0.7-0.7,1.1-1c2.7-2.4,5.8-0.6,8.7-0.8
			c4.4,0.9,9-0.7,13.2,1.7c4,0,8.1,0,12.1,0c25.4,0,50.8,0,76.3,0c3.1,0,5.9-0.5,8.6-2.1C306.9,38,306.8,39,306,40L306,40z"/>
		<path class="st9" d="M106.1,103c3.8-0.3,8.1,1.5,10.5-3.7c1.1-2.4,3.7-0.9,5.3-0.1c2.1,1.1,0.1,2.1-0.5,3
			c-0.6,0.8-1.5,1.5-0.5,2.5c1.3,1.3,2.8,0.3,4.2,0.3c-5.4,4.8-6.5,5-11.4,0.9C111.3,104,108.3,104.7,106.1,103z"/>
		<path class="st77" d="M181,49.1c-2.7-0.3-5.3-0.5-4.3-4.5c0.4-1.9-1.3-2.7-2.6-3.6c2.4-1.9,4.7-0.9,7,0c0.8,0,1.5,0.3,1.9,1
			c0.2,0.5,0.4,0.9,0.8,1.2c1.3,1.2,2.5,2.5,1.6,4.3C184.6,49.5,182.6,48.9,181,49.1z"/>
		<path class="st149" d="M51.1,37.1c-2.2,2.3-5.1,1.8-7.8,1.9c-8.1,0.4-16.1,0.8-23.5,4.6C18.3,44.3,17,44,15.7,43
			c-1.4-1.1-3-2-4.5-3c-1.9-0.8-3.6-2.2-5.9-2c0-0.3,0-0.7,0-1c4.2-2,7.8-1.5,12.3,0.3c4.5,1.7,10.3,0.3,15.5,0.3
			C39,37.7,45,34.5,51.1,37.1z"/>
		<path class="st150" d="M329,17.1c-2.3,0-4.7,0-7,0c-2.1-2.4,0.2-1.9,1.3-1.9c7.1,0,14.2,0,21.3,0.5
			C339.6,17.6,334.2,16.2,329,17.1z"/>
		<path class="st151" d="M661.9,31.1c0.1,0.3,0.1,0.6,0,0.9c-7.5,1.1-15.1,0.2-22.7,0.5c-3.1,0.1-6.2-0.5-9.3,0.4c-11,0-22,0-33,0
			c-0.6-1.2-3.3,0.6-3.1-2c4,0,8-0.1,12-0.1c3.7-0.5,7.4-0.5,11.1,0c6.6,0,13.3,0,19.9,0c6.5-0.8,13.1,0,19.6-0.9
			C658.3,30.2,660.3,29.7,661.9,31.1z"/>
		<path class="st65" d="M593.9,31c0.5,1.5,2.4,0.7,3.1,2c-4.3,0-8.7,0-13,0c-1-1.1-2.5-2.5,0.3-2.8C587.5,30,590.8,29.4,593.9,31z"
			/>
		<path class="st65" d="M657,31c-6.7,0-13.4,0-20.1,0c4.9-1.9,10-0.4,15-0.9C653.7,29.7,655.7,28.4,657,31z"/>
		<path class="st75" d="M657,31c-1.5-1.4-3.4-0.7-5.1-0.9c0-0.3,0-0.5,0.1-0.8c3.3,0,6.7-0.1,10-0.1c0,0.6-0.1,1.3-0.1,1.9
			C660.2,31.1,658.6,31,657,31z"/>
		<path class="st65" d="M617,30.9c-3.7,0-7.4,0-11.1,0C609.6,29.6,613.3,29.5,617,30.9z"/>
		<path class="st152" d="M579.9,29.1c0.2,0.9,0.8,2-0.9,2c-2,0-4.1,0-6.1-0.3C575.1,29.6,577.8,30.6,579.9,29.1L579.9,29.1z"/>
		<path class="st63" d="M480,31.1c-2.5,1.9-5.4,0.6-8.1,0.9c-0.3-4.2,2.5-3.3,4.9-2.9C478,29.5,479.2,30,480,31.1z"/>
		<path class="st153" d="M480,31.1c-1.5,0-3.1,0.4-3.2-1.9c2.4-1.3,4.5-1.7,5.2,1.9C481.3,31.1,480.6,31.1,480,31.1z"/>
		<path class="st154" d="M209,39c-4.6-0.2-9.3,0.9-13.8-0.8c-2.1-2.6-2-5.3-0.2-8c3.2-0.6,6.5,1.9,10-0.7c1.9-1.5,2.7,1.9,2.5,3
			C206.8,35.1,208.1,36.9,209,39z"/>
		<path class="st155" d="M195,30.2c0.1,2.7,0.1,5.3,0.2,8c-2.7,1.1-5.3-0.7-8-0.1c-3.2-1.4-3.5-3.4-1.2-5.9c1.7,1.5,2.5,0.3,3.2-1.1
			C190.9,29.7,192.9,30,195,30.2z"/>
		<path class="st156" d="M542.6,32.7c-5.1,0.1-10.2,0.1-15.4,0.2c-2.6-1.5-5.6,0.3-8.3-1.2c2.5-3.5,5.8-0.7,8.6-1
			c4.4-0.3,8.8,0,13.2,0C542.1,30.8,543.1,31,542.6,32.7z"/>
		<path class="st157" d="M234.1,28.1c-3.8,3.1-7.8,3.1-10.1,0C227.4,28.1,230.7,28.1,234.1,28.1z"/>
		<path class="st158" d="M686.9,28.2c-6.9,0-13.7-0.1-20.6-0.1c-0.1,0-0.4-0.1-0.4-0.2c-0.1-0.3,0-0.6,0-0.8
			c6.9,0,13.7,0.1,20.6,0.1c0.1,0,0.4,0.1,0.4,0.2C686.9,27.6,686.9,27.9,686.9,28.2z"/>
		<path class="st159" d="M666.8,30c6.6-2,13.4-0.4,20.1-0.9c0.2,0.4,0.3,0.7,0.5,1.1H687C680.3,31.6,673.5,31.9,666.8,30z"/>
		<path class="st160" d="M371.3,21.3c1.4-0.1,2.3,0.7,2.6,1.9c0.4,1.8-1.1,2.3-2.3,2.6c-1.5,0.3-1.9-1.2-2.1-2.2
			C369.1,22.1,370.1,21.5,371.3,21.3z"/>
		<path class="st161" d="M666.8,30c6.7,0,13.4,0.1,20.1,0.1c0,0.3,0,0.7,0,1c-7.3,0.6-14.6,1-21.9-0.2C665.3,30,666.2,30.1,666.8,30
			z"/>
		<path class="st159" d="M665.1,30.9c7.3,0.1,14.6,0.1,21.9,0.2c-4.4,2.1-9,0.6-13.5,0.9c-2.8,0.2-5.6,0-8.4,0
			C665,31.7,665,31.3,665.1,30.9z"/>
		<path class="st104" d="M47.1,99c-3.7,0.5-7.8-1.4-11,2c-3.5,4.8-8.4,8.4-12.1,13.2c-2.5,3.2-14.7,3.8-17.9,1.4
			c-1.3-0.9-0.9-2.4-0.9-3.7c0-15.6,0.1-31.3,0.1-46.9c3.3,0.9,4.5,3.1,5,6.5c0.7,5.2,1.9,10.3,3.4,15.3c1.7,5.4,1.4,10.8,1.5,16.2
			c0.1,2.1-1.2,3.5-2.8,4.8c0.9,0.4,1.5,0.7,1.5,0.6c2.6-4.3,5.8-4.4,9.8-1.6c1.2,0.9,2.5-0.6,3.5-1.9c5.1-7,18.7-10.8,27-7.9
			C51.9,98,48.8,96.1,47.1,99z"/>
		<path class="st104" d="M5.2,52c3,0.6,3.7,2.9,3.8,5.3C9,59.6,7.1,60,5.2,60C5.2,57.4,5.2,54.7,5.2,52z"/>
		<path class="st162" d="M181,49.1c2.4-1.3,6.1-2.2,1.5-5.4c-0.5-0.4-0.1-1.2,0.5-1.6c1.3,0,2.7,0.1,4,0.1c3.2,3,4.1,3.3,9.9,2.5
			c-2.7,0.4-6.1,0.2-7.2-0.2c-1.1-0.5-1.5-1.2-0.6-2.3c11.9-0.1,23.9-0.4,35.8,0c6.8,0.2,13.1,4.4,20.2,4c0.6,0.4,1.2,0.4,1.9,0.5
			c4.2,0.4,4.7,1.1,2.7,4.7c-0.8,1.4-1.3,3-2.6,4.2c-4.7,1.6-9.6,1.2-14.3,0.3c-2.7-0.5-5.1-0.7-7.8,0.1c-3.9,1.1-8,0.9-11.9,0
			c-4.1-0.9-8.1-1.4-12.3,0c-2.8,0.9-5.9,0-8.9,0.4c4,0.4,8.1,0.3,12.1,0.4c19,0.4,37.9-0.9,56.9,0.8c0.8,0.1,1.6-0.3,2.5-0.4
			c5.2-0.5,10.3,0.9,15.4,0.8c1.5,0,3.3,0.3,3.5,2.2c0.2,2.3-2.4,1.1-3.3,2.1c-9.3,0.1-18.6,0.1-27.9,0.2c-7.7,0.5-15.3,0.7-23-0.1
			c-4,0-7.9-0.1-11.9-0.1c-4.1-0.8-8.1-0.7-12.2,0c-0.6,0-1.3,0-1.9,0.1c-4.7,2.2-9.3,2.5-14-0.1c-3.5-1.3-3.6-4.5-4-7.4
			c-0.2-1.5,0.5-3.3-1-4.5C182.2,50,181.5,49.9,181,49.1z"/>
		<path class="st90" d="M188.1,61.9c4.7,0,9.3,0.1,14,0.1c5.9,2.2,12,0.4,17.9,1c2.4,0.3,4.9-0.9,7.1,1c-14-1.3-28.2,2.5-43.2-0.5
			C185.6,61.6,187,62.1,188.1,61.9z"/>
		<path class="st65" d="M629.9,33c2.4-1.8,5.1-0.8,7.7-0.9c8.1-0.2,16.2-0.1,24.3-0.1c-0.6,1.4-1.9,1.1-3,1.1
			C649.2,33.1,639.6,33.1,629.9,33z"/>
		<path class="st163" d="M532,54.2c-10.7-0.1-21.5-0.1-32.2-0.2c-2,0-4,0.3-5.7-1c0.5-1.1,1.6-1,2.6-1c12.1,0,24.2,0.1,36.3,0.1
			C533,52.9,532.7,53.6,532,54.2z"/>
		<path class="st83" d="M488.7,51.2c-0.2-0.4-0.4-0.8-0.6-1.1c6.9,0,13.9,0,20.8,0c0,0.4,0,0.8,0,1.1
			C502.1,51.2,495.4,51.2,488.7,51.2z"/>
		<path class="st164" d="M711.8,32.2c-2.6-0.2-6.5-0.2-6.3-2.9c0.2-2.5,4.2-1.1,6.4-1.3c1.5-0.2,3.5-0.8,4.5,0.9
			c0.8,1.5-0.5,2.3-1.5,3.2C713.9,32.1,712.8,32.2,711.8,32.2z"/>
		<path class="st165" d="M690.5,31.3c0.7-3.7,0.8-3.7,5.8-2.1c-0.3,2-3,1-3.5,2.7C691.9,32.1,691.1,32,690.5,31.3z"/>
		<path class="st166" d="M700.9,32.2c2,0.2,4.1-0.8,6,0.8c1,3.3-1.6,2.2-2.7,1.8C703,34.4,702,33.1,700.9,32.2z"/>
		<path class="st90" d="M279,62c0.5-1.1,2.3-0.6,2.6-2.5c-6.2-0.5-12.4-1-18.6-1.4c-1.4-2.2-1.4-2.3,0.9-3.2
			c6.1-2.5,12.5-3.9,19.1-4.1c3.1-0.1,6.2,0.3,9.3-0.4c1.3-0.5,3,0.2,4.5-1.7c-5.2-0.4-10,0-14.7-0.3c-1.9-0.1-4.5,0.9-5.2-2.2
			c6,0,12,0.3,18-0.1c4.8-0.3,6.8,1.2,6.1,6c-0.2,1.3,0,2.6,0,4.9c1.6-2.8,0.1-5.9,3.3-7.4c1.2,2.1,0.5,4.4,0.7,6.6
			c-1.5,3.4-2.9,6.5-7.7,6.1C291.2,61.7,285.1,62,279,62z"/>
		<path class="st167" d="M319.2,50c0.1,0.7,0.1,1.4,0.2,2c-0.1,0.4-0.3,0.8-0.5,1.1c-0.6,1.3-1,2.5,0.1,3.7c0,1,0.1,2.1,0.1,3.1
			c-5.4,1.5-1.9-4-4-5.1c-0.7-1-0.5-1.9-0.1-2.9c-1-1.5-0.1-2.2,1-3c-0.8-2.4-2.3-4.7-0.1-7.3c1.3-1.5-1.7-2.9-0.9-4.7
			c5.3-0.7,4,3.4,4.5,6.1c-0.3,1.8-1.9,3.6-0.3,5.6C319.4,49.2,319.4,49.6,319.2,50z"/>
		<path class="st92" d="M316,49c-0.3,1-0.7,2-1,3c-0.6-0.3-1.3-0.6-1.9-1c-3.1,1.7-4.5,0.6-5-2.7c-0.4-2.7,1.3-5.7-0.9-8.2
			c-0.4,0-0.8,0-1.2-0.1c0-1-0.1-2-0.1-3.1c0.1-2.1,1.6-1.9,3-2.1c0.7,1.3,1.4,2.7,1.1,4.2C308.9,44.3,311.9,47,316,49z"/>
		<path class="st168" d="M307.1,40.1c0.4-0.7,0.8-1.4,1.4-2.5c1.3,3.2,0.4,6.2,0.4,9.1c0,3,0.6,4.8,4,4.4c0.2,2-0.4,4.2-2.4,4.3
			s-2.8-2.3-3.2-3.9C306.5,47.8,307,43.9,307.1,40.1z"/>
		<path class="st90" d="M228,62.1c7.7,0,15.3,0.1,23,0.1C243.3,63.5,235.7,63.7,228,62.1z"/>
		<path class="st90" d="M204,62c4.1-1.4,8.1-1.4,12.2,0C212.1,62,208,62,204,62z"/>
		<path class="st169" d="M319,61.1c0,1.9-0.1,3.7-0.1,5.6c-3.3-1.1-2.6-3.4-1.8-5.7C317.7,61.1,318.3,61.1,319,61.1z"/>
		<path class="st170" d="M323.9,71c-0.1,2.2,0.9,4.5-1.6,6.8c0.3-2.6-2.7-4.5-0.1-6.8C322.8,71.1,323.4,71,323.9,71z"/>
		<path class="st171" d="M318.7,71.1c0.1,1.9,0.1,3.8,0.2,5.7C315.6,74.9,315.5,73.4,318.7,71.1z"/>
		<path class="st172" d="M322.2,66.8c0.2-1.9-1.5-4.1,1.3-6.2c0.9,2.6,0.5,4.9,0.4,7.1C323.3,67.5,322.7,67.2,322.2,66.8z"/>
		<path class="st173" d="M330.9,61c0.4,0,0.8,0,1.1,0c0,2,0,4,0,6C331.1,65,328.3,63.4,330.9,61z"/>
		<path class="st174" d="M413.8,46c-1-0.3-1.9-0.6-2.9-0.9c-7.2,1.3-14.4,0.1-21.5,0.6c-0.5,0-0.8-0.5-1.1-0.9
			c-0.4-3.5,1.5-4.7,4.7-4.7c5.3,0,10.5,0.2,15.8,0C413.3,39.9,414.8,41.8,413.8,46z"/>
		<path class="st175" d="M457.8,44.8c-6.6,0.1-13.2,0.2-19.8,0.3c-1.8-0.6-5.1,0.8-4.9-2.6c0.2-3,3.1-2.3,5.2-2.4
			c5.1-0.1,10.3,0.1,15.4-0.1c2.5-0.1,4.1,0.8,5,3.1C458.4,43.7,458.1,44.3,457.8,44.8z"/>
		<path class="st176" d="M388.3,44.8c7.6,0.1,15.1,0.2,22.7,0.3c-1.4,1.7-3.3,0.9-5,1c-2.9,0-4.5,1.1-4,4.3c0.2,1.4,0,2.9-0.1,4.4
			c-2.7-1.2-1.8-3.6-1.7-5.6c0.2-1.9,0.2-3.3-2.2-3.2c-1.4,0-2.8,0.1-4.2,0.1c-0.6-0.1-1.3-0.1-1.9-0.2c-1.7,0.8-3.3,1.3-5,0.1l0,0
			C387.4,45.7,387.8,45.2,388.3,44.8z"/>
		<path class="st177" d="M450,46c0.7,0.4,1.4,0.7,2,1.1c-0.1,2.6-0.1,5.2-0.2,7.8C448.4,52.6,450.7,49,450,46z"/>
		<path class="st178" d="M386.9,46.1c1.7,0,3.4-0.1,5-0.1c-2.1,1.4-2.2,3.5-2,5.7c0.2,2.1-0.3,3.6-2.9,3.3
			C387,52,387,49.1,386.9,46.1z"/>
		<path class="st179" d="M349.1,51c-2.7,0-5.3,0-9,0c2.9,1.7,5.2,0.2,7.8,2.2c-3.2,0-5.6,0-8,0c-1.8,1.3-4.3,0.1-5.9,1.9
			c-0.6,0.8-1.2,1.5-1.7,2.3c-1.7-1.5-1.6-3.6-1.5-5.6c-0.2-1.6-0.4-3.2-0.6-4.7c-0.3-1.2,0.1-2.2,0.9-3.1c0-0.6,0-1.2,0.1-1.9
			c0.2-1.5-0.3-3,0.9-4.3c1-0.8,2.1-0.7,3.3-0.6c1.2,1.7,2.5,2.9,4.9,2.1c2.8-0.9,6,0.6,8.7-1c1.4-0.3,2.9-2.9,4.2-0.8
			c1.2,2-0.4,3.5-2.5,4.5c-2.4,1.1-4.8,1-7.3,1.1c-1.8,0.1-3.7-0.6-5.1,1.1c-2,2.7-0.7,3.8,2,3.2c4-0.8,7.9-0.2,11.9-0.2
			C353.6,50.3,349.3,49.2,349.1,51z"/>
		<path class="st180" d="M351.9,47.1c-4.7,2.3-10,0.5-14.8,1.9c-1.7,0.5-2-1.4-2.1-2.7c-0.3-2.5,1.8-1.8,3.1-2.2
			c2.8,1.8,5.9,1,8.9,1.3C348.7,45.6,350.4,46.2,351.9,47.1z"/>
		<path class="st92" d="M319.2,50c-0.1-0.4-0.2-0.7-0.3-1.1c-1.1-1.5-1.1-3.1,0-4.6c0.4-3.3,0.4-6.4-3.8-7.2
			c0.4-1.1,0.7-2.2,1.3-3.2c0.3-0.5,0.9-1.2,1.4-1.2c1.1-0.2,1.1,0.9,1.3,1.6c0.9,2.4,3.2,4.3,1.1,7.3c-0.8,1.1,0.4,2.5,2.1,2.6
			c0.7,1.1,0.7,2.1-0.3,2.9C321,48,320.1,49,319.2,50z"/>
		<path class="st181" d="M333.9,55.1c0.4-5.4,3.9-1.5,5.9-1.9c3.2,1.6,6.7,0.2,10,1.1c-2.9,2.3-6.8-0.7-9.7,1.8
			c-1.5,1.4-3.5,0.4-5.1,1.1C334.6,56.4,334.3,55.8,333.9,55.1z"/>
		<path class="st182" d="M348.7,38.3c0.3,2.1-1.2,1.9-2.5,1.9c-2.5,0-4.9,0-7.3,0.7c-3.1,0.9-4.1-0.8-3.8-3.6l0,0
			c1.9-1.4,3.5-0.5,5,0.7C343,38,345.9,38.2,348.7,38.3z"/>
		<path class="st183" d="M330.7,51.8c2.1,1.4,1,3.7,1.5,5.6c-0.1,0.6-0.3,1.2-0.4,1.9c-1.2-3-5.8-3.4-6.2-5.6
			C325.1,50.8,329,52.8,330.7,51.8z"/>
		<path class="st179" d="M340.1,37.9c-1.8,0.7-3.2-1.2-5-0.7c0.1-1.4,0.7-2.2,2.2-2c3.6,0.3,7.4-0.7,11.4,1
			C345.7,38.1,342.5,35.8,340.1,37.9z"/>
		<path class="st184" d="M339.5,31c3.6,0,7.2,0,10.8,0c0.9,0,1.7,0.3,1.6,1.4c0,0.4-0.6,1-0.8,1C347.3,32.7,343.1,33.9,339.5,31z"/>
		<path class="st185" d="M331.9,37.8c0,1.5,0.7,3.1-0.9,4.3c-0.6-0.8-1-2.1-1.7-2.2c-1.5-0.2-4.1,0.6-3.6-1.7c0.4-2,3.1-0.8,4.8-0.9
			C330.9,37.2,331.4,37.6,331.9,37.8z"/>
		<path class="st186" d="M330.9,43.9c0.1,1.1,0.3,2.3-0.9,3.1c-0.8,0.1-1.6,0.4-2.4,0.3c-1-0.2-2.6-0.2-2.4-1.9
			c0.2-1.6,1.6-1.3,2.7-1.4C328.9,44,329.9,44,330.9,43.9z"/>
		<path class="st187" d="M322.1,52.1c3.4,1.5,1.4,4.3,1.7,6.7c-1.8-0.8-1.6-2.4-2-3.7C321.1,54,321.2,53,322.1,52.1z"/>
		<path class="st188" d="M321.9,47.1c0.1-1,0.2-2,0.3-2.9c3.5-0.4,1.4,2.3,1.8,3.5c0.2,0.5,0.2,1.9-1,1.5
			C322.4,48.9,322.2,47.8,321.9,47.1z"/>
		<path class="st92" d="M322.1,52.1c-0.1,1-0.2,2-0.3,3c-0.9,0.3-1.8,0.6-2.7,1c-1.4-1.2-1.1-2.5-0.3-3.9c0.2,0.1,0.4,0.1,0.5-0.1
			C320.3,52.1,321.2,52.1,322.1,52.1z"/>
		<path class="st189" d="M318.8,52.1c0.1,1.3,0.2,2.6,0.3,3.9c-0.2,0.3-0.2,0.6-0.2,0.9C316,55.3,316,53.9,318.8,52.1z"/>
		<path class="st8" d="M340,59c3.2-2,6.7-0.5,10-1C346.9,60.2,343.3,58.6,340,59z"/>
		<path class="st190" d="M115.7,81.9c3.3,3.6-1.9,4.4-2.4,4.4c-4.1,0.5-7.8,2.2-11.8,2.8c-3.2,0.5-6.5,1.1-9.5-1.9
			c-2.4-2.3-6.3-1-9.5-1.1c-14-0.7-28.1-0.8-42.1-1.1c-2.1,0-3.9-0.1-2.3-3l0,0c0-6.4,0.3-12.8,0.7-19.2c0.7-2.9-1.3-6.2,1.5-8.7
			c-1.1,8.4-0.1,16.9-0.6,25.4c-0.1,1.9,0.8,2.6,2.7,2.6C66.8,82,91.3,83,115.7,81.9z"/>
		<path class="st48" d="M121.1,58.1c0.7,1.2,1.2,2.5,1,4c-3.1-0.9-5.8,1.8-8.9,1c0-1.7,0-3.4,0-5C115.8,56.2,118.4,56.1,121.1,58.1z
			"/>
		<path class="st191" d="M121.1,58.1c-2.6,0-5.2,0-7.9,0c-0.8-2.7,0.8-2.9,2.9-2.9c2.1,0,4.6,0.9,6-1.8c0,0.9,0,1.8,0,2.8
			C121.7,56.7,121.4,57.4,121.1,58.1z"/>
		<path class="st130" d="M38.8,62.8c0,6.4,1.2,12.9-0.7,19.2c-3.1-6.3,0.7-12.7,0-19C38.3,63,38.6,62.9,38.8,62.8z"/>
		<path class="st130" d="M36.1,53.1c3.9,2.6,1.4,6.6,2.1,9.9c-0.3,0-0.7,0-1,0C35.8,59.8,35.3,56.5,36.1,53.1z"/>
		<path class="st192" d="M265.2,38c-9.1,0-18.3,0-27.4,0c-1.8,0-4.3,0.3-4.3-2.1c0-2.8,2.7-1.6,4.3-1.8c9.5-1.2,19.1-0.2,28.6-0.5
			c7.6-0.3,15.5-0.1,23.2,0.4c1.5,0.1,3,0,4.5-0.1c1.3-0.1,3.2-1.9,3.5,0.5c0.2,1.7-1.1,3.5-3.4,3.5c-2,0-4,0-6,0
			C280.4,38,272.8,38,265.2,38L265.2,38z"/>
		<path class="st193" d="M277,46.1c5.4,2.1,11.1,0.4,16.7,1.1c1.9,0.2,5.3-1.4,5.3,1.5c0,3.4-3.3,3-5.9,2.4
			c-6,1.2-12.2,0.1-18.3,0.9c-3.2,0.4-6.1,1.1-9,2.3c-6.1,2.4-12.3,3.7-18.7,0.8c0.1-1-0.3-2.4,0.3-2.9c4.5-4,1.1-5-2.2-6
			C255.7,46.1,266.4,46.1,277,46.1z"/>
		<path class="st77" d="M189.1,42.2c0.4,2.5,2.4,1.8,3.9,1.9c2.5,0.2,5.1-0.5,7.4,1.1c-4.5-0.7-10.2,3.7-13.4-3
			C187.7,42.2,188.4,42.2,189.1,42.2z"/>
		<path class="st194" d="M171,42.1c0.1,0.1,0.4,0.2,0.4,0.3c0.1,2,3.8,1,2.9,3.6c-0.1,0.4-1.2,0.8-1.6,0.7
			C170.4,45.8,171.3,43.7,171,42.1C171.1,42,171,42.1,171,42.1z"/>
		<path class="st195" d="M247,55c4.6-0.1,9.2-0.1,13.8-0.2c0.6,0,1.5,0.1,1.9-0.3c7.7-6.4,16.9-2.5,25.3-3.5c1.6-0.2,3.3,0,5,0
			c-2.7,2-5.8,1-8.7,0.9c-7.4-0.2-14.2,2.4-21.2,4.3c-1.2,0.3-0.9,1.1-0.2,1.8c-3.3,2.6-6.7-0.2-10-0.1c-19.8,0.3-39.6,0.2-59.4,0.1
			c-2.1,0-5.6,1.3-5.7-1.8c-0.1-1.6,3.9-2.5,6.3-1.9c3.3,0.9,6.3,0.8,9.5-0.8c1.9-0.9,4.1-0.5,6.3,0.1c5.6,1.7,11.2,2.5,16.9,0.1
			c1-0.4,2.6-1,3.3-0.5C235.5,56.5,241.4,54.2,247,55z"/>
		<path class="st196" d="M318.9,44.3c0,1.5,0,3.1,0,4.6c-2,0.2-1.9-1.3-2.1-2.6C316.7,44.9,317.5,44.2,318.9,44.3z"/>
	</g>
</g>
</svg>
