<?xml version="1.0" encoding="utf-8"?>
<!-- Generator: Adobe Illustrator 25.0.0, SVG Export Plug-In . SVG Version: 6.00 Build 0)  -->
<svg version="1.1" id="Camada_1" xmlns="http://www.w3.org/2000/svg" xmlns:xlink="http://www.w3.org/1999/xlink" x="0px" y="0px"
	 viewBox="0 0 615 171" style="enable-background:new 0 0 615 171;" xml:space="preserve">
<style type="text/css">
	.st0{display:none;}
	.st1{fill:#EFF2EA;}
	.st2{fill:#656767;}
	.st3{fill:#929793;}
	.st4{fill:#8F9DA1;}
	.st5{fill:#686D6D;}
	.st6{fill:#505554;}
	.st7{fill:#636663;}
	.st8{fill:#494C4C;}
	.st9{fill:#3D3F3F;}
	.st10{fill:#4D514F;}
	.st11{fill:#333534;}
	.st12{fill:#575B59;}
	.st13{fill:#555957;}
	.st14{fill:#2F3130;}
	.st15{fill:#4D504F;}
	.st16{fill:#464948;}
	.st17{fill:#454847;}
	.st18{fill:#343736;}
	.st19{fill:#313332;}
	.st20{fill:#4D5050;}
	.st21{fill:#F5F7F1;}
	.st22{fill:#FAFCF2;}
	.st23{fill:#F6F8EF;}
	.st24{fill:#BBBFB6;}
	.st25{fill:#DBDECF;}
	.st26{fill:#ECEFE3;}
	.st27{fill:#D7DACD;}
	.st28{fill:#E2E6DD;}
	.st29{fill:#A0A6A2;}
	.st30{fill:#F2F4F0;}
	.st31{fill:#E9ECDE;}
	.st32{fill:#AEB1A5;}
	.st33{fill:#BEC1B4;}
	.st34{fill:#CED0C1;}
	.st35{fill:#BDC0B5;}
	.st36{fill:#E8EBE3;}
	.st37{fill:#C4C7B7;}
	.st38{fill:#AFB2A7;}
	.st39{fill:#9B9E97;}
	.st40{fill:#E6E9DD;}
	.st41{fill:#BBBDAD;}
	.st42{fill:#A2A69D;}
	.st43{fill:#BBC1BE;}
	.st44{fill:#6D726F;}
	.st45{fill:#9CA3A2;}
	.st46{fill:#585C5A;}
	.st47{fill:#757A77;}
	.st48{fill:#B0C5CC;}
	.st49{fill:#92A4A9;}
	.st50{fill:#CBCFC8;}
	.st51{fill:#9AABAF;}
	.st52{fill:#D3E9F0;}
	.st53{fill:#474C4B;}
	.st54{fill:#7E8380;}
	.st55{fill:#86989D;}
	.st56{fill:#9CADB3;}
	.st57{fill:#A0A6A4;}
	.st58{fill:#8F9592;}
	.st59{fill:#989F9D;}
	.st60{fill:#818684;}
	.st61{fill:#E0E3D6;}
	.st62{fill:#D2D6CE;}
	.st63{fill:#282A29;}
	.st64{fill:#4A4D4A;}
	.st65{fill:#323432;}
	.st66{fill:#565956;}
	.st67{fill:#EAEEE7;}
	.st68{fill:#858B8A;}
	.st69{fill:#181A19;}
	.st70{fill:#949B99;}
	.st71{fill:#767B79;}
	.st72{fill:#7C8280;}
	.st73{fill:#424543;}
	.st74{fill:#515553;}
	.st75{fill:#595D5A;}
	.st76{fill:#828783;}
	.st77{fill:#EFF3ED;}
	.st78{fill:#7D817E;}
	.st79{fill:#6D716F;}
	.st80{fill:#A9B0AE;}
	.st81{fill:#A8AFAD;}
	.st82{fill:#FEFEFE;}
	.st83{fill:#808582;}
	.st84{fill:#888D8B;}
	.st85{fill:#646765;}
	.st86{fill:#848987;}
	.st87{fill:#D6DBD8;}
	.st88{fill:#8B908C;}
	.st89{fill:#AAB0AD;}
	.st90{fill:#666A66;}
	.st91{fill:#BCBFB1;}
	.st92{fill:#BFC2B5;}
	.st93{fill:#C0C6C3;}
	.st94{fill:#B9C0BD;}
	.st95{fill:#7B807E;}
	.st96{fill:#7D8280;}
	.st97{fill:#A8AEAC;}
	.st98{fill:#F9FAF7;}
	.st99{fill:#989D98;}
	.st100{fill:#737775;}
	.st101{fill:#F9FAF8;}
	.st102{fill:#A2A9A6;}
	.st103{fill:#F0F3ED;}
	.st104{fill:#C2C6BA;}
	.st105{fill:#7C817F;}
	.st106{fill:#1A1C1B;}
	.st107{fill:#505452;}
	.st108{fill:#DEE2DF;}
	.st109{fill:#373A38;}
	.st110{fill:#868F8E;}
	.st111{fill:#474B4A;}
	.st112{fill:#252726;}
	.st113{fill:#F7F9F4;}
	.st114{fill:#717673;}
	.st115{fill:#A4AAA8;}
	.st116{fill:#AFB6B4;}
	.st117{fill:#7E8381;}
	.st118{fill:#6F7470;}
	.st119{fill:#ACAFA6;}
	.st120{fill:#B5B9B0;}
	.st121{fill:#DDE1D9;}
	.st122{fill:#CBCFC6;}
	.st123{fill:#7F8481;}
	.st124{fill:#6C706D;}
	.st125{fill:#D2D7D4;}
	.st126{fill:#CFD4D1;}
	.st127{fill:#D0D5D2;}
	.st128{fill:#86897F;}
	.st129{fill:#525654;}
	.st130{fill:#868B88;}
	.st131{fill:#5E6260;}
	.st132{fill:#DEE1DF;}
	.st133{fill:#646966;}
	.st134{fill:#898E8A;}
	.st135{fill:#707573;}
	.st136{fill:#A0A7A5;}
	.st137{fill:#B8BFBC;}
	.st138{fill:#AEB4B0;}
	.st139{fill:#717570;}
	.st140{fill:#ECEFEE;}
	.st141{fill:#666A67;}
	.st142{fill:#747976;}
	.st143{fill:#808481;}
	.st144{fill:#626663;}
	.st145{fill:#9FA6A4;}
	.st146{fill:#8F9593;}
	.st147{fill:#B8BDBB;}
	.st148{fill:#BCC2C0;}
	.st149{fill:#6C716F;}
	.st150{fill:#707472;}
	.st151{fill:#5A5D59;}
	.st152{fill:#E6EAE2;}
	.st153{fill:#313432;}
	.st154{fill:#616562;}
	.st155{fill:#606462;}
	.st156{fill:#BEC2B8;}
	.st157{fill:#3B3E3C;}
	.st158{fill:#919692;}
	.st159{fill:#9DA39F;}
	.st160{fill:#9EA4A2;}
	.st161{fill:#0A0A0A;}
	.st162{fill:#9CA3A1;}
	.st163{fill:#2E302F;}
	.st164{fill:#787D7B;}
	.st165{fill:#A7AEAB;}
	.st166{fill:#ACB2B0;}
	.st167{fill:#868C8A;}
	.st168{fill:#AEB5B2;}
	.st169{fill:#838886;}
	.st170{fill:#737876;}
	.st171{fill:#A2A9A7;}
	.st172{fill:#787D7A;}
	.st173{fill:#6C716E;}
	.st174{fill:#7B807D;}
	.st175{fill:#222423;}
	.st176{fill:#D4D8CF;}
	.st177{fill:#7A7C6F;}
	.st178{fill:#66675C;}
	.st179{fill:#8C918E;}
	.st180{fill:#ABAEA3;}
	.st181{fill:#9A9D92;}
	.st182{fill:#ADB0A6;}
	.st183{fill:#464841;}
	.st184{fill:#42443F;}
	.st185{fill:#474942;}
	.st186{fill:#9C9E8E;}
	.st187{fill:#76776A;}
	.st188{fill:#6B6D61;}
	.st189{fill:#8D8F80;}
	.st190{fill:#65675C;}
	.st191{fill:#5C5D54;}
	.st192{fill:#6A6C61;}
	.st193{fill:#8B908D;}
	.st194{fill:#595C5A;}
	.st195{fill:#181919;}
	.st196{fill:#A5ABA9;}
	.st197{fill:#696D6B;}
	.st198{fill:#9EA5A3;}
	.st199{fill:#9AA19F;}
	.st200{fill:#707165;}
	.st201{fill:#858678;}
	.st202{fill:#5A5B52;}
	.st203{fill:#111212;}
	.st204{fill:#4E5251;}
	.st205{fill:#E4E7DD;}
	.st206{fill:#B3BAB7;}
	.st207{fill:#474A4A;}
	.st208{fill:#6B706D;}
	.st209{fill:#444746;}
	.st210{fill:#848678;}
	.st211{fill:#A0A192;}
	.st212{fill:#929485;}
	.st213{fill:#8F9182;}
	.st214{fill:#727367;}
	.st215{fill:#787A6D;}
	.st216{fill:#939485;}
	.st217{fill:#63655A;}
	.st218{fill:#8D8E80;}
	.st219{fill:#C0C2B3;}
	.st220{fill:#5D5E55;}
	.st221{fill:#A4A695;}
	.st222{fill:#ABAD9E;}
	.st223{fill:#8E9081;}
	.st224{fill:#B9BBAB;}
	.st225{fill:#C7CABD;}
	.st226{fill:#898A7B;}
	.st227{fill:#7F8073;}
	.st228{fill:#7C7D70;}
	.st229{fill:#DFE3D8;}
	.st230{fill:#7C7E71;}
	.st231{fill:#8A8C7D;}
	.st232{fill:#969889;}
	.st233{fill:#8B8C7E;}
	.st234{fill:#ACAE9F;}
	.st235{fill:#B4B7A9;}
	.st236{fill:#A7AA9D;}
	.st237{fill:#9C9E91;}
	.st238{fill:#A0A191;}
	.st239{fill:#2A2C2B;}
	.st240{fill:#A5A798;}
	.st241{fill:#797A6D;}
	.st242{fill:#C7C9BB;}
	.st243{fill:#C9CBBE;}
	.st244{fill:#67685D;}
	.st245{fill:#616258;}
	.st246{fill:#5D5F55;}
	.st247{fill:#929487;}
	.st248{fill:#A8AA9D;}
	.st249{fill:#929486;}
	.st250{fill:#D4D7CA;}
	.st251{fill:#9B9E94;}
	.st252{fill:#D0D3C7;}
	.st253{fill:#88897A;}
	.st254{fill:#CFD2C5;}
	.st255{fill:#D7DACE;}
	.st256{fill:#939586;}
	.st257{fill:#E1E5DB;}
	.st258{fill:#64665B;}
	.st259{fill:#B1B4AB;}
	.st260{fill:#8E9082;}
	.st261{fill:#C1C5BC;}
	.st262{fill:#63645A;}
	.st263{fill:#848577;}
	.st264{fill:#C8CBBD;}
</style>
<g id="Camada_2_1_" class="st0">
</g>
<g id="Camada_1_1_">
	<g>
		<path class="st1" d="M470.3,12.1c2.3,0.2,3,1.7,3,3.7c0,1.5-0.1,3.1,2,3.3c0,2,0,4,0,6c-0.9,0-1.7-0.1-1.6,1.4
			c0.1,2-0.5,3.9-0.7,5.8c0.2,4.3,1.2,8.6-0.5,12.8c-1-0.7-1.3-1.7-1.4-2.8c0.1-3.6-0.7-7.2-1.6-10.7c-0.5-1.4-1.1-2.8-1-4.3
			c0.1-2.1,1.2-4.1,1.1-6.7c-1.9,1.2-0.2,5.8-4.3,4.3c-4-1.1-0.4-4.3-1.7-6.1c-8.2-1-16.4,0.3-24.6,0.2c-1,0-2-0.2-2.8-0.9
			c-1-3-3.3-3.1-5.8-2.8c-3.5-0.4-5.9,2.3-8.9,3.3c-1.6,0.3-2.9-0.2-4.2-1.1c-1.8-1.8-0.9-3,0.8-4.1c1.5-0.9,3-1.9,4.9-1.6
			c3.2,0.4,4.8-2.3,7.1-3.6c2-0.6,3.9-0.5,5.9-0.1c5.5,3.6,11.2,4.8,17.6,2.8c1.4-0.4,2.9-0.2,4.3,0.5c1.5,0.2-0.1,2.9,2,2.6
			c2.7-0.3,3.1-2.6,3.9-4.6c0.2-0.2,0.3-0.3,0.5-0.5c1,0.4,2,0.7,3,1.1C468.8,10.3,467.8,13.9,470.3,12.1z"/>
		<path class="st2" d="M223.3,138.9c-2.9,10.6-5.9,21.3-8.8,31.9c-22.7,0-45.3,0-68,0c-0.3-0.7-0.1-1.2,0.5-1.6
			c2.2-1.1,4.5-0.8,6.8-0.8c17.5,0,35,0,52.5,0c2.1,0,3.9-0.1,3.3-3.1c-0.2-1.1,0.1-2.2,1.1-3c3.6-1.4,3.5-4.5,3.4-7.6
			c2.1-1.8,2.4-3.9,0.7-6.2c-0.3-0.9-0.2-1.9,0.3-2.7c2.1-1.2,4.3-2.3,5.2-4.9C220.8,139.7,221.6,138.6,223.3,138.9z"/>
		<path class="st3" d="M150.8,8.4c3.5-2.1,1-5.5,1.8-8.2c0.7,0,1.3,0,2,0c1.1,1.9,0.7,4,1,6c4.5,1.5,4.6,1.9,2.3,6.1
			c-2.8,0.7-5.4,0.4-7.5-1.7C149.9,9.7,149.9,8.9,150.8,8.4z"/>
		<path class="st4" d="M146.4,169.9c0,0.3,0.1,0.6,0.1,0.9c-1,0-2,0-3,0c-4.9-2.6-2.5-6.4-1.8-9.9c1.9-1.2,2.4,0.5,3.3,1.6
			C146.1,164.8,144.8,167.6,146.4,169.9z"/>
		<path class="st5" d="M473,32.3c-0.9-2.4-0.6-4.9,0-7.3c0.7-2.7,1.5,0.3,2.3,0.1c0,2,0,4,0,6C474.5,31.5,473.8,31.9,473,32.3z"/>
		<path class="st6" d="M467.5,46.2c-2.2,2.1-5,1.6-7.5,1.6c-25.9,0.1-51.7,0.1-77.6,0.1c-1,0-2,0.1-3,0.2c-0.3-0.4-0.4-0.8-0.4-1.2
			c0.3-1.5-0.1-3.1,0-4.6c0.3-0.7,0.7-1.2,1.4-1.5c1.6-0.4,3.2-0.6,4.9-0.8c3.7-0.2,7.4,0.9,11.1,0.3c5,0.1,10,0.3,15-1
			c3.4-0.9,7.2-0.1,10.7,0.5c3.3,0.6,6.5,0.5,9.7,0.6c4,0.8,8.1,0.3,12.1,0.4c0.8,0,1.6,0,2.4,0c6.9,0,13.9-2.4,20.8-0.2
			C469,42.2,468,44.2,467.5,46.2z"/>
		<path class="st7" d="M223.3,138.9c-1.4,0.7-2.2,2.1-2.4,3.5c-0.6,3.1-2.6,3.8-5.3,3.5c-1.4-2,0.5-3.3,1.1-4.9
			c1.1-2.9,1.9-5.9,2.2-9c1.6-2.6,2.6-5.4,2.7-8.5c0.1-0.5,0.3-0.9,0.4-1.4c1.7-3.3,1.1-7.2,2.8-10.4c0.6-1.2,1.4-2.2,2.8-2.5
			c3.4,0.1,2.4,2.7,2.8,4.6C228,122.2,225.6,130.6,223.3,138.9z"/>
		<path class="st8" d="M379.5,46.8c0,0.4-0.1,0.8-0.1,1.2c-2.9,3-6.9,2.5-10.6,3.1c-0.5,0.3-1,0.3-1.5,0.1c0.5-2.7-0.3-5.7,2-8
			c2.4-0.8,4.9-0.6,7.4-0.3C378.8,43.1,380.5,44,379.5,46.8z"/>
		<path class="st9" d="M303.8,93.1c-3.3,1.9-6,4.9-10.2,4.9c-9.9,0.8-19.8,0.2-29.6,0.3c-0.7-0.3-0.9-0.8-0.6-1.5
			c1.8-1.6,4-1.2,6.1-1.3c6.9-0.2,13.8,0.3,20.8-0.3c4.3-0.4,7.7-3.5,12-3.8C303,91.7,303.5,92.3,303.8,93.1z"/>
		<path class="st10" d="M263.4,97.7c10.1,0.1,20.2,0.2,30.3,0.3c-2.1,1.4-4.5,0.9-6.8,0.9c-14.1,0-28.2-0.1-42.4-0.1
			c0-0.9,0.6-1.6,1.5-1.7C251.8,96.6,257.6,95.6,263.4,97.7z"/>
		<path class="st11" d="M325.3,72.8c-5.3,5-10.7,10.1-16,15.1c-1.1,0.9-1.8,0.4-2.3-0.6c-0.2-0.9,0-1.8,0.6-2.3
			c5.2-4.8,9.7-10.4,16.4-13.5C324.8,71.6,325.5,71.8,325.3,72.8z"/>
		<path class="st12" d="M469.3,27.2c0.4,1.3,0.8,2.5,1.3,3.8c0.5,3.7,0.9,7.4,2,11.1c0,1,0,2.1,0,3.1c-0.6,0.5-1.2,1.1-2.2,0.9
			c-1.2-2.1-0.8-5.1-3.6-6.3c-0.6-0.5-0.9-1.1-0.9-1.9c0.2-2.1,0.2-4.3,0.4-6.4c0.1-0.5,0.2-0.9,0.3-1.4
			C467.3,28.9,467.2,27,469.3,27.2z"/>
		<path class="st13" d="M230.4,113.9c-1.6-0.9-0.2-4-2.9-4c-1.2-5.4,0.2-8.4,4.5-9.6c0.7,0.2,1.3,0.6,1.7,1.2c1,2.7-3.1,4.5-1.3,7.3
			C231.6,110.6,231,112.2,230.4,113.9z"/>
		<path class="st14" d="M263.4,97.7c-6.3,0.8-12.7-1-18.9,1.1c-1.3,0.1-2.6,0.1-3.9,0.2c-1.3,0.3-1.4-0.5-1.4-1.5
			c4-3.3,8.8-2.1,13.3-2.5c3.5,1.5,7.7-0.7,11,2C263.5,97.2,263.5,97.5,263.4,97.7z"/>
		<path class="st15" d="M325.3,72.8c-0.3-0.2-0.6-0.5-0.9-0.7c0.1-3.5,3.5-4.1,5.3-6.1c2.6-1.7,4.8-4.4,8.5-3.7
			c0.5,0.2,0.9,0.4,1.2,0.9C334.1,65.4,330.8,70.7,325.3,72.8z"/>
		<path class="st16" d="M239.4,97.9c0.4,0.4,0.7,0.7,1.1,1.1c-3.8,2.4-6.8,5.5-8.2,9.9c-3.8-3,0.4-4.6,1.2-6.8
			C234.5,99.2,236.1,97.4,239.4,97.9z"/>
		<path class="st17" d="M339.5,63.1l-0.4-0.1h-0.4c-0.5-2.7,1.8-3.2,3.4-3.8c3.1-1.2,6-2.7,9.1-3.7c0.5,0,1,0.2,1.4,0.5
			c0.3,0.5,0.3,1-0.1,1.4C348.3,59.8,344,61.7,339.5,63.1z"/>
		<path class="st18" d="M467.3,39.1c3.5,1.2,3.8,3.8,3,6.9c-0.9,0.1-1.9,0.1-2.8,0.2c-2-1.6,0.6-3.5-0.2-5.2
			C466.8,40.3,466.7,39.7,467.3,39.1z"/>
		<path class="st19" d="M352.5,57.4c0-0.4-0.1-0.9-0.1-1.3c3.7-4.6,10-6.7,15-5.1c0.5,0.1,1,0.1,1.4,0.2
			C363.3,53,357.8,54.7,352.5,57.4z"/>
		<path class="st20" d="M307.3,86.9c0.4,0.8,1.1,1,2,1c-1.3,2.3-3.3,3.8-5.5,5.2c-0.5-0.4-0.9-0.9-1.4-1.3
			C302.8,88.8,304.3,87.1,307.3,86.9z"/>
		<path class="st21" d="M248.3,8.2c3.1,0,6.2,0,9.3,0c2.4,1.6,0.3,3.2,0.1,4.8c-0.6,1.8-1.5,3-3.5,1.6c-1.5-1-3-1.2-4.7-0.8
			c-1.3,0.2-2.5-0.4-4-0.5c0.9,1.3,3.4,1.7,2.1,3.9c-1.4,1.1-3.1,0.4-4.6,0.9c-1.4,0.3-2.8,0.3-4.3,0.3c-0.9,0-1.9-0.2-2.8-0.4
			c-1.6-0.5-3.1-2.4-4.9-0.3c-2-1.7-3.5,0.6-5.2,0.7c-1.8,0.2-3.5,0.8-5.3,0.9c-2,0-3.9-0.3-5.9-0.7c-1.8,2.6-0.4,5.6-0.7,8.4
			c-0.4,4.1,0.6,8.3-0.7,12.4c-2.6,2-2.8-0.5-2.8-1.8c0.2-6.1-2.2-12.1-0.6-18.3c0.2-0.7,0-1.3-0.3-1.9c-0.9-0.2-1.5,0.3-2.2,0.6
			c-1,5.7-0.1,11.5-0.5,17.2c-0.1,1.7,0.2,4.6-1.7,4.6c-2.4,0-1.9-2.9-2-4.7c-0.3-5.7,0.5-11.5-0.5-17.3c-0.3-1.1-0.3-2.2-0.1-3.3
			c0.1-0.5,0.4-1,0.7-1.4c1.7-1.4,3.9-0.9,5.9-1.6c3.4-0.7,6.9-0.4,10.4-0.4c0.1,0,0.3-0.1,0.4-0.2c0.1-0.1,0-0.3-0.1-0.5
			c-0.4-0.7-0.7-1.4-0.3-2.1c1,0,2.1,0,3.1,0c1.2,1.9,3,2.7,5,1.8c1.6-0.8,2.9-0.3,4.2,0.4c2.5,1.4,3-0.4,3.6-2.1
			c1.8,0,3.6,0,5.4,0.1C243.3,10.4,245.8,9.1,248.3,8.2z"/>
		<path class="st22" d="M273.3,11.2c14,0,28.1,0,42.1,0c1.4,3.3,1.4,6.2-2.3,8.1c-12.1,1-24.3,0.4-36.4,0.3c-1.2,0-2.3-0.3-3.3-1
			C271.6,16.1,271.6,13.7,273.3,11.2z"/>
		<path class="st23" d="M392.3,10.1c8.3-3,16.8-2.1,25.3-1.6c1.7,0.1,3.2,0.5,4.7-0.4c0.5,0.7,1.8,0.3,2,1.2c0.2,1.3-1,1.6-2,1.7
			c-2.9,0.5-5.9,0.3-8.8,1.2c0.4,0.9,1.3,1,1.8,1.6c0.5,0.7,0.1,1.3-0.4,1.9c-1.7,1.6-3.3,3.5-6,2.7c-2.1-0.1-4.2-0.7-6.3-0.9
			c-1.1-0.1-2.3,0.3-3.4-0.2c-0.7-3.9-4.3-4.4-7-5.9C392,10.9,392,10.5,392.3,10.1z"/>
		<path class="st24" d="M157.4,11.9c1.5-2.6,0.9-4.5-1.9-5.8c8.9,0,17.8,0,26.8,0.1c1.7,0,3.7-0.8,5.1,0.9c-0.9,0.7-2,0.7-3.1,0.8
			c0.9,0.4,2.3-0.4,2.9,0.9c0.8,1.3,0.7,2.3-0.7,3.2c-2.5,1.7-5.2,0.1-7.8,0.3c-4.8,0.2-9.6,0-14.3,0.9
			C162.1,13.7,159.3,14.2,157.4,11.9z"/>
		<path class="st25" d="M186.5,11.2c1.2-0.7,0.1-1.3,0-2c0.3-0.5,0.5-1.1,1.3-1.1c9.7,1.4,19.6,0.4,29.4,0.9c0.8,0,1.5-0.5,2.3-0.8
			c0.4,0.6,0.7,1.3,1.1,1.9c-1,2.2-3,1.5-4.7,1.4c-2.2-0.2-4.3-0.4-6.2,0.8c-1.9,1.5-4.1,0.6-6.1,0.8
			C196.4,15,190.6,14.2,186.5,11.2z"/>
		<path class="st26" d="M458.3,12.1c-1.8,0-3.8-0.4-5.4,0.1c-6.1,2-11.7,1.5-16.6-3c1.5-1.8,3.6-1.4,5.5-1.5
			c2.7-0.1,5.3-0.4,7.6-1.7c2.3,2.5,4.9,3.5,8.3,2.5c2.1-0.7,4.5-1.2,6.5,0.6h-0.1C463,11.5,460.5,11.4,458.3,12.1z"/>
		<path class="st27" d="M325.3,12c0.6-2.8,1.5-4.3,5-3.2c2.9,1,6-1.6,9.1-0.3c0.8,0.3,2.1-0.1,2,1.4c0.6,2.4-1.2,3.2-2.7,2.9
			c-2.2-0.4-0.7,1.7-1.8,1.9c-3.7,0.7-7.4,1.9-11.2,0.8C324.5,14.5,325.5,13.2,325.3,12z"/>
		<path class="st28" d="M363.3,9.2c3.3-2.3,6,0.5,9,0.9c1,1.1,0.5,2.1-0.3,3c-0.9,1.1-1.6,2.9-1.2,3.8c-0.2,0.7-0.7,1.2-1.3,1.5
			c-1.8,0.8-3.8-1.1-5.5,0.6c-2.1,1-4.4,0.2-6.6,0.4c-2.3-0.3-5,0.9-6.4-2.2c2.6-2.6,6-1,8.9-1.7C363.3,14.5,363.5,12,363.3,9.2z"/>
		<path class="st29" d="M449.5,6.1c0.1,2.3-0.9,3.2-3.2,3.1c-3.3-0.1-6.6,0-9.9,0c-2.3,0-4.6,0.1-7,0.1c-1.6,0.6-3.3,1.6-3.9-1.1
			c3.3-1,6.5-1.9,9.8-2.9c1.7,0.5,3.4,2.6,5.1-0.1C443.5,5.4,446.7,4.2,449.5,6.1z"/>
		<path class="st26" d="M425.5,8.2c0.9,1.6,2.6,0.7,3.9,1.1c-1.2,3-3.4,4.6-6.5,3.6c-2.1-0.7-2.8,1.6-4.5,1.1c-1,0.6-2.1-0.1-3.1,0
			c-2.4,0.1-4.5-0.1-4.1-3.4c3.7-0.2,7.6-0.1,11.4-0.7c2.1-0.3-0.5-1.2-0.3-1.9C423.3,8.2,424.5,8.2,425.5,8.2z"/>
		<path class="st30" d="M361.5,15.9c-3.1,2.4-6.8,0.6-10.1,1.2c-2.3-0.1-3-2.1-4.2-3.5c0.6-1.7-0.2-3.2-0.9-4.7
			c1.5-1.2,2.9-1.3,4.1,0.4c1.4,1.6,3,2.4,5.2,1.8C359.6,10.2,359.6,14.2,361.5,15.9z"/>
		<path class="st31" d="M376.3,8.2c4.6-0.8,8.8,0.8,13.1,1.9c0.1,3.7-1.4,5.6-5.4,4.6c-1.2-0.3-2.3-0.2-3.3,0.3
			c-1.1,0.5-2.2,0.9-3.4,0.3c-1.4-1.4-2.4-3.3-0.8-4.7C378.1,9.4,375.6,9.1,376.3,8.2z"/>
		<path class="st32" d="M361.5,15.9c-2.5-0.6-3.2-4.9-7.1-3.2c-1.6,0.7-3.2-1.5-3.9-3.4c4.3,1.1,8.6-1.2,12.9-0.2
			c-0.2,1.1,4.7-0.3,1.2,2.5C363.3,12.8,363.5,15.2,361.5,15.9z"/>
		<path class="st33" d="M376.3,8.2c-0.4,1.2,4,0.1,1.1,2.4c-1.9,1.5,0.3,3,0,4.5c-1.8,0.8-3.4,2-5.3,2.6c-0.7,0.1-1.4-0.1-1.8-0.7
			c0-0.9-0.4-1.5-1.1-2s-2.3-0.7-2-1.7c0.6-1.8,1.6-0.1,2.5,0c2,0.2,2.5-1.4,2.7-3.2C373.6,9.5,375,8.9,376.3,8.2z"/>
		<path class="st34" d="M235.4,8.2c-0.7,1.1,2.4,2.1-0.1,3.6c-1.9,1.2-2.7,0.9-4-0.4c-1.1-1.1-1.8-1.8-3.7,0.1c-1.7,1.7-4.1-1-5-3.4
			C226.9,9.1,231,8,235.4,8.2z"/>
		<path class="st35" d="M346.3,9c3.2,2,3.4,2.8,1,4.2c-0.2-0.1-0.4-0.1-0.6-0.2c-4.5-1.7-3.7,1.6-3.9,4.1c-0.5,0.9-1.2,1.4-2.2,1.3
			c-1.5-1.1-2.7-2.4-3.1-4.4c0.1-0.6-2.8-1.5,0-1.9c1.7-0.2,3.2-0.4,3.9-2.2C343.1,9.9,344.5,8.2,346.3,9z"/>
		<path class="st36" d="M392.3,10.1c0,0.4,0,0.8,0.1,1.2c0.9,1.5,2.4,2,4,2.5c1.5,0.5,2.7,1.2,2.3,3.1c-0.3,0.4-0.6,0.7-1.1,0.8
			c-2.7,0-5.5,2.3-8-0.4c-1.7-2.9-1.2-5.2,1.6-7.1C391.5,10.2,392,10.2,392.3,10.1z"/>
		<path class="st37" d="M256.5,12.5c0.1-1.5,2.3-2.5,1.1-4.3c2.2,0,4.5,0,6.7,0.1c1.7,3.1-1,4-2.7,5.3
			C259.6,14.2,258,13.5,256.5,12.5z"/>
		<path class="st21" d="M261.5,13.2c0.8-1.7,3.1-2.6,2.8-4.9c3.3-1,5.6,1.2,8.2,2.6c0,1-0.1,1.9-1,2.6c-1.2,0.6-2.3,0.1-3.3-0.6
			c-2.3-1.8-4,1.4-6.2,0.7C261.9,13.4,261.6,13.3,261.5,13.2z"/>
		<path class="st38" d="M391.1,10.2c-1.8,2.1-2.7,4.3-0.9,6.9c-0.2,0.7-0.6,1.2-1.4,1.4c-0.5,0-0.9-0.2-1.2-0.5
			c-1.7-2.6-5.5-1.3-7.3-3.9c0.5-0.8,1.4-1.2,2-0.9c3.6,1.7,5.5,0.1,7-3C390,10.2,390.6,10.2,391.1,10.2z"/>
		<path class="st33" d="M325.3,12c1.1,0.7,1.2,1.4,0,2.2c-1.7,2.4-3.2,1.6-4.6-0.3c-0.7-1.7-0.3-3.3,0.6-4.8
			c2.2-0.8,2.6,0.6,2.4,2.1C323.5,13.5,324.5,12.4,325.3,12z"/>
		<path class="st39" d="M271.3,13.1c0.2-0.8,0.2-1.8,1.2-2.3c0.3,0.2,0.5,0.3,0.8,0.3c0.1,2.3,0.1,4.5,0.2,6.8
			c0.5,1,0.4,2.1-0.7,2.3c-2,0.3-2.2-1.4-2.6-2.8C270,15.9,270.3,14.4,271.3,13.1z"/>
		<path class="st40" d="M321.3,9.1c0,1.6,0.1,3.2,0.1,4.8c0.5,1.9-1,2.2-2.2,2.6c-0.6,0-1-0.3-1.4-0.8c-0.9-1.9-0.9-3.7,0.3-5.5
			C319.3,9.9,320.3,9.5,321.3,9.1z"/>
		<path class="st41" d="M248.3,8.2c-1.4,2-3.9,2.4-5.8,3.2c-3.9,1.5,1-3.2-1.8-3.1C243.3,8.3,245.8,8.2,248.3,8.2z"/>
		<path class="st40" d="M314.3,18c0.4-2.3,0.7-4.6,1.1-6.9c0.7-0.3,1.5-0.5,2.2-0.8c0.1,2.6,0.8,5.2-0.5,7.7
			c-0.4,0.4-0.9,0.6-1.4,0.7C315.3,18.6,314.8,18.4,314.3,18z"/>
		<path class="st42" d="M187.8,8c-0.4,0.4-0.8,0.8-1.3,1.1c-2-0.9-4.5,0.9-6.9-1.1c2.7-1.6,5.4-0.6,7.8-0.9
			C187.5,7.5,187.6,7.7,187.8,8z"/>
		<path class="st43" d="M440.3,5.2c1,2,0.8,3.2-1.8,2.8c-1.6-0.2-2.5-1.5-3.3-2.7C437,5.3,438.8,5.3,440.3,5.2z"/>
		<path class="st44" d="M316.3,18c1.8-2.3,0.4-5.2,1.4-7.7h0.5c0.1,1.9,0.2,3.8,0.4,5.7c1,1.7,1.4,3.6-1,4.2
			C316,20.7,315.8,19.3,316.3,18z"/>
		<path class="st25" d="M470.3,12.1c-0.2,0.8,0.4,2.4-1,2.3c-2.6-0.3-2-2.5-2-4.2C468.8,10.1,469.8,10.9,470.3,12.1z"/>
		<path class="st45" d="M145.3,43.2c-0.8-0.2-2.2,0.4-2.1-1.2c0.5-7.6-2.2-15.2-0.5-22.8c1.6-4.2,5-1.1,7.4-1.6
			c2.4-0.5,2.6,2.2,2.5,4.3c0.4,6-0.8,12,0.6,17.9c0,0.5,0,0.9-0.1,1.4c-1.5,2.4-4,2-6.3,2.1C146.1,43.2,145.8,43.2,145.3,43.2z"/>
		<path class="st46" d="M154.3,113c0.1-0.9,0.2-1.9,0.3-2.8c2.6-0.6,3.9-2.4,4.1-4.9c1.2-6.8,2.7-13.5,4.6-20.1
			c1.5-3.2,0.9-7.1,3.6-9.8c4.5,0.2,5.2,1.2,3.9,5.9c-2.9,10-5.9,19.9-8.9,29.9c-1.5,5.1-3,10.1-5.6,14.8c-0.7,1.3-0.9,2.9-2.8,3.2
			c-2.6-3.1-0.1-5.9,0.5-8.8C154.3,117.8,158.3,115.5,154.3,113z"/>
		<path class="st47" d="M146.6,57c1.3-1.9,1.8-4.4,0.7-6c-1.7-2.5-1.2-5.3-2-7.8c0.2-0.1,0.4-0.1,0.6-0.2c1-0.1,1.8,0.4,2.3,1.2
			c2.5,7.1,2.9-1.4,4.6-0.6c0.7-0.2,1.4-0.2,2,0.3c1,2.9,2.7,5.5,3.4,8.5c0,1.1-1.2,2.1-0.4,3c0.5,0.6,1.3-0.5,2-0.7
			c0.5,0,0.9,0.1,1.4,0.3c4.4,4.4,4.2,5-2.6,7.4C154.4,60.9,150.8,58.5,146.6,57z"/>
		<path class="st48" d="M164.6,85c-1.7,7-3.3,14-5,21c-2-2.8-1.8-5.9-1-9c0.5-9,5.6-17.8,1-27c0.7-0.7,1.5-0.8,2.3-0.6
			c0.8,0.3,1.4,0.9,1.9,1.6C166.8,75.6,165.1,80.3,164.6,85z"/>
		<path class="st49" d="M155.4,119.9c0,3.1-2.2,5.8-1.7,9c1.4,3.2-1.2,6-1.2,9c-1.6,4.3-1.6,9.1-4.1,13.1c-2.1,0-2.3-1.6-2.8-3.1
			c0.9-8.8,4.5-16.9,6.3-25.5c0.4-1.8,0.1-4,1.6-5.6C155.1,117.1,155.1,118.7,155.4,119.9z"/>
		<path class="st50" d="M151.4,22.1c0.1-2.9-0.5-5.5-4-3.1c-2,1.4-3.5-3.1-4.9,0.2c-0.7-6.2,3.5-8.6,8.2-10.8c0,0.5-0.1,1.1-0.1,1.6
			c-0.2,1.9-2.5,2.8-2.2,4.9c0.7,1.7,2.5,0.9,3.7,1.6c0.4,0.2,0.8,0.6,1.1,1c0.6,1.5,0.7,3-0.3,4.5
			C152.4,22.4,151.9,22.4,151.4,22.1z"/>
		<path class="st51" d="M145.6,147.8c1.4,0.5,2,1.6,2,3c1.4,4.6,0.4,8.6-3.1,11.9c-0.9-0.6-1.2-2.1-2.7-1.9
			C143.1,156.5,143.4,151.9,145.6,147.8z"/>
		<path class="st52" d="M158.6,97c0.3,3,0.7,6,1,9c0.1,3.4-1.2,5.2-4.9,4.2C155.9,105.8,157.3,101.4,158.6,97z"/>
		<path class="st53" d="M146.6,57c4.9-0.6,8.4,2.2,11.9,5c2,1,3.9,2,1.3,4.4c-0.8,0.1-1.4-0.2-2-0.7c-2.4-3.8-7.1-4.1-10.4-6.6
			C146.6,58.6,146.3,58,146.6,57z"/>
		<path class="st54" d="M147.4,59.1c4.1,1.1,8.8,1.3,11,5.9c-1.7,1.3-2.7-0.6-4-1C151.9,62.6,148.6,62.3,147.4,59.1z"/>
		<path class="st55" d="M155.4,119.9c-0.7-1-1.3-2.1-2-3.1c0.3-1.3,0.6-2.5,1-3.8C160.3,114.5,155.6,117.5,155.4,119.9z"/>
		<path class="st56" d="M154.4,64.1c1.3,0.3,2.7,0.6,4,1c0.4,0.3,0.7,0.7,1.1,1c1.7,0.8,3.3,1.6,2.1,3.9c-0.7,0-1.4,0-2,0
			C157.8,68,156.1,66.1,154.4,64.1z"/>
		<path class="st57" d="M389.3,18.2c0.3-0.4,0.7-0.7,1-1.1c2.3,2.1,4.8-1.7,7.1,0.1c-0.1,4.3,0.9,8.1,5.2,10.3
			c1.7,0.1,3.3,0.3,4.9,0.5c4.5-1.9,8.3-4.3,8.2-10c0.3-0.7,0.7-1.3,1.6-0.9c1.3,0.3,2.6,0.6,3.9,0.9c0.2,0.1,0.4,0.2,0.6,0.4
			c1.7,3.2-1,6-0.7,9c-0.2,0.4-0.4,0.8-0.7,1.2c-2.2,4.2-6.6,3.1-10.1,4.1c-5.9,0.9-11.9-1.4-17.7,0.3c-2.6,0.7-5,2.5-8,1.6
			c-1.8-1.3-2-4.3-4.7-4.6c-4.8-2.7-4.9-3-1.3-7c1.4-1.6,2.6-3.4,4.6-4.3c3-0.2,4.5,2,3.2,3.9c-3.1,4.7,0,3.9,2.8,3.7
			c0.6,0,1.2,0.4,1.8,0.1C390.5,23.7,388,21.4,389.3,18.2z"/>
		<path class="st58" d="M465.3,18.1c0.9,1.1,1.9,2.8,0,3.3c-4.4,1.2,0.7,1.9,0,2.8c0.5,0.5,0.7,1.2,0.8,1.9
			c-0.1,1.4-0.5,2.8-0.6,4.2c-0.1,0.7-0.2,1.4-0.4,2.1c-1,1.8-2.4,2.2-4.5,1.5c-3.5-1.1-7.2-1.7-11-1.4c-0.2-0.1-0.4-0.3-0.6-0.4
			c-0.2-0.4-0.3-0.9-0.2-1.4c0.9-3,3.7-5.4,0.9-9.2c-1.4-1.8,1.2-3.6,3.3-3.7C457.2,17.7,461.3,17.1,465.3,18.1z"/>
		<path class="st57" d="M421.3,18c2.8-1.7,5.2-4.6,9-3.9c1.2,1.6,3.6,1.4,4.7,3.2c0.5,2.8,1.8,5.6-0.3,8.2c-0.2,0.2-0.7,0.5-0.6,0.7
			c0.3,0.5,0.8,0.3,1.2,0.2c1.4,0,2.5,0.4,2.9,2c0.1,0.8,0,1.6-0.4,2.3c-5.5,3.2-11.3,2-17,1.1c-2.5-0.4-1.5-2.3-0.4-3.7l0.1-0.1
			c0.6-1.7,2.4-1.4,3.9-2.4c-4.8-1.1-0.2-5.4-2.8-7.3L421.3,18z"/>
		<path class="st59" d="M465.3,18.1c-3.8,0-7.6-0.1-11.4,0.1c-1.6,0.1-3.4,0.6-3.5,2.8c-0.1,2.3,1.4,1.5,2.7,1.5
			c1.2,0,1.4,1.4,0.9,1.7c-2.4,1.8-2,5.4-4.8,6.9c-2.7,0.3-3.6-0.9-2.8-3.5c0.2-0.6-0.2-1.1-0.2-0.4c0,0.2-0.5,0.4-0.7,0.6
			c-4.3,2.5-4.4,2.4-5.8-2.4c-2.2-2.1,0.3-5.1-1.4-7.3C447.3,17.2,456.3,16.3,465.3,18.1z"/>
		<path class="st60" d="M438.3,18.3c0.8,1.5,2.2-0.2,3.4,1c-2.8,1.4-2.1,3.7-1.4,6c0,1.9-1,2.8-2.9,2.9c-1.3-1.8-2.6,0.1-4-0.1
			c-0.8-0.1-1.7-0.1-1.9-1.1c-0.1-0.6,0-1.8,0.1-1.8c5.6-0.1,1.4-4.2,2.6-6.2c0.3-0.5,0-1.3,0-1.9c0.7-0.5,1.4-0.5,2,0.2
			C436.7,18.2,437.7,17.9,438.3,18.3z"/>
		<path class="st58" d="M465.3,26.2c0-0.7,0-1.4,0-2.1c3.5,0.9,1.8-1.7,1.9-2.9c0.1-1.8,0-3.6,2.5-3.2c2.2,0.4,1.8,2,1.4,3.5
			c-0.5,1.9-1.2,3.7-1.8,5.6c-1.1,0.7-0.5,2.4-1.9,2.9C465.3,29.5,465.8,27.6,465.3,26.2z"/>
		<path class="st61" d="M458.3,12.1c0.7-3.5,4.4-1.1,6-3c0.1,3,0.5,5.7-4.1,6.1C456.2,15.6,457.5,14,458.3,12.1z"/>
		<path class="st26" d="M436.3,17.2c-0.7-0.1-1.3-0.1-2-0.2c-1.3-1-4.2,0.2-4-2.9C432.8,14.3,436,12.8,436.3,17.2z"/>
		<path class="st62" d="M417.3,17.1c-0.3,0.3-0.7,0.5-1,0.8c-2.2,0.8-2.7,0.3-2.3-2.5c0.4-0.4,0.8-0.8,1.2-1.3c1-1.6,2.1-0.4,3.1,0
			C417.8,15,416,15.6,417.3,17.1z"/>
		<path class="st58" d="M472.5,42c-2-3.4-2.2-7.2-2-11.1C471.8,34.5,472.7,38.2,472.5,42z"/>
		<path class="st63" d="M144.4,162.8c1.7-3.8,2.4-7.9,3.1-11.9c1.2-4.4,2.4-8.7,3.7-13.1c1.3-1.2,2.4-4.6,4.1-0.3
			c-1.4,7.3-3,14.6-5.3,21.7c-0.6,1.9-1.7,3.7-1.2,5.7c0.4,0.6,0.9,1.1,1.6,1.3c6.1,0.6,12.2-0.3,18.2,0.6
			c11.1,1.3,22.2,0.4,33.3,0.5c2,0,3-1.2,3.1-3.1c0.8-3.5,0.7-7.4,4.1-9.8c2.1,0.1,3,1.5,2.6,3.3c-0.9,4-1.5,8.1-3.4,11.9
			c-18.7,0.1-37.4,0.1-56,0.2c-2,0-4,0.1-5.9,0.1C141.3,168.8,145.3,165.1,144.4,162.8z"/>
		<path class="st64" d="M219.5,131.9c1,5.3-1.9,9.5-4,13.9c0,1,0,2-0.1,3c-0.4,0.2-0.8,0.3-1.2,0c-0.8-1.9-2.9-1.2-4.1-2.1
			c-0.5-0.8-0.5-1.7-0.3-2.6c1.1-2.2,2.2-4.5,2.8-6.9c0.1-0.5,0.3-0.9,0.4-1.3c1.2-3.4,1.9-6.9,2.8-10.3c1.1-2.5,1.1-5.8,4.1-7.2
			c3.1,0.2,3.8,1.8,2.6,4.5l0,0C221.3,125.8,220.4,128.9,219.5,131.9z"/>
		<path class="st65" d="M210.9,146.9c2.5-1.8,3.9-1.4,3.7,2c0.7,0.9,0.9,1.9,0.8,3c-1.8,3.4-1.2,7.8-3.8,10.9
			c-1.4,1-0.7,2.2-0.3,3.4c0.6,2.2-0.3,3.4-2.7,3.3c0.7-3.8,1.3-7.6,2.2-11.4c0.4-1.7,0.4-2.9-1.5-3.5c-1.4-2.4-0.2-4.6,0.5-6.8
			C209.9,147.4,210.3,147.1,210.9,146.9z"/>
		<path class="st66" d="M211.4,162.8c-0.2-4,1.9-7.4,3-11c0.9,1,0.8,2,0,3C216,158.5,216.1,161.5,211.4,162.8z"/>
		<path class="st7" d="M214.5,154.8c0-1,0-2,0-3s0-2,0.1-2.9c0.3,0,0.6,0,1,0C219.3,151.5,218.3,153.4,214.5,154.8z"/>
		<path class="st67" d="M152.3,17.1c-0.3,0-0.6,0-0.9-0.1c-0.9-1.6-2.9-0.7-3.9-1.9c-1.4-3.2,1.6-3.7,3.1-5.1
			c1.8,2.2,4.7,0.4,6.8,1.9c4.1,0.4,8.1,0,12.3-0.7c4.1-0.7,8.5-0.4,12.6,0.3c1.6,0.3,2.8-0.7,4.2-0.3c5.6,1.3,11.3,1.7,17,1.9
			c0,0.4-0.1,0.9-0.1,1.3c-1.3,1.1,0.6,3.1-1.1,4.1c-0.6,0.2-1.2,0.2-1.8-0.1c-1.8,2.1-0.2,4.5-0.6,6.7c0,3.6,0.1,7.3-0.1,10.9
			c-0.1,1.5,0.1,3.9-2.1,3.7c-1.6-0.2-2.2-2.4-2-4.1c0.4-3.5,0.1-6.9,0.2-10.4c0.1-2.6,0-5.2,0-7.3c-0.1-1.1-1.1-0.3-0.5-0.5
			c0.1,0,0.2,0.1,0.2,0.3c0.4,7.5,0.6,15.1-0.5,22.6c-0.3,0.6-0.7,0.8-1.4,0.8c-2-1.4-1.3-3.6-1.3-5.4c-0.1-6.5,0.1-12.9-0.4-19.4
			c0.8,2.6,0.2,5.3,0.4,8c-0.2,5,0.4,10-0.3,15c-3.3,1.7-3.5-0.8-3.6-2.8c-0.1-3.9-0.4-7.9,0.2-11.8c0.3-1.9,0-3.6,0-5.4
			c-0.6,7,0.1,14-0.5,20.9c-0.2,0.5-0.6,0.8-1.1,1c-2.5-1.2-1.9-3.6-1.9-5.6c-0.1-5.7-0.1-11.4,0-17.1c0-0.1-0.1-0.3-0.2-0.4
			s-0.3,0.1-0.5,0.1c-0.5,0.3-1.1,0.4-1.7,0.4c-0.9-0.1-1.7-0.4-2.5-0.7c-0.8-0.3-1.6-0.8-2.1-1.5c-0.3-0.5-0.3-1,0-1.5
			c-0.3,0.1-0.5,0.4-0.6,0.7c-0.4,1-1.1,1.7-2.2,1.8c-1.4,4.7-0.2,9.4-0.6,14.1c-0.2,2.9,0.5,5.9-0.7,8.8c-0.3,0.5-0.7,0.7-1.3,0.7
			c-2.9-3.3-1.3-7.6-2.3-11.3c1.1-4.2-0.4-8.5,0.4-12.8c0.1-0.6,0,0.2,0-0.5c-0.2,0.2-0.2,0.5-0.4,0.7c-0.6,0.3-1.2,0.4-1.8,0.3
			c-2.6,2.2-0.3,5.1-1,7.6c-0.2,3.7,0.6,7.5-0.7,11.1c-3.5,2.5-3.4-0.7-3.7-2.5c-0.7-5.3-0.2-10.8-0.3-16.1
			c-0.4,0.1-0.7,0.1-1.1,0.1c-0.4,0-0.8-0.1-1.2-0.3c-0.5-0.3-0.7-0.6-0.7-1.2c-0.4,0.4-0.1,0.9-0.3,1.4c-0.2,0.4-0.6,0.6-1,0.7
			c-0.7,0-1.3-0.1-1.9-0.2c-0.6-0.1-1.2-0.3-1.8-0.5c-0.7-0.3-1.2-0.9-1.9-1.1C153.1,16.9,152.8,17,152.3,17.1z"/>
		<path class="st68" d="M420.3,28.1c0.2,1.1-1.4,3,1.1,3c5.4-0.2,10.8,1.3,16-1c2.2-0.5,4,2.6,6.4,0.7c2-0.2,3.8,0.1,5.5,1.3
			l0.1,0.2c3.3,4.9-1.7,5.6-4.1,7.6c-0.4,0.4,0.7,0.5,0.2,0c-0.2-0.2-0.1-0.3,0.2-0.4c1.5-0.8,3.2-1,3.5,0.9c0.3,2-2.1,0.7-2.9,1.6
			c-0.7,0-1.3,0-2,0.1c-4.3-1.2-8.7,0.4-13-0.9c-4.9,2.7-9.8-0.4-14.7-0.3c-5.1,0.1-10,1.3-15.1,1.1c-1.8,0-3.6,0.8-5.2-0.8
			c-1.2-1.2-2.6-0.8-4.1-0.7c-4.9,0.4-5.2-0.1-3.5-5.2c0.3-0.4,0.7-0.6,1.2-0.8c7.1-1.4,14.3-0.6,21.4-2.4c0.2-0.2,0.4-0.7,0.7-0.7
			C415.3,31.4,418,30.1,420.3,28.1z"/>
		<path class="st69" d="M379.5,46.8c0.1-2.3-1.1-2.8-3.1-2.7c-2.6,0.1-5.3,0.1-8,0.1c-2.9,2.2-6.4,1.3-9.6,1.4
			c-4.1,0.2-8.3,0-12.4,0c-11.9,0.2-23.9,0.1-35.8,0c-8.1,0.2-16.1,0.2-24.2,0c-23,0-46.1,0.1-69.1-0.1c-0.9,0-1.9,0-2.8,0
			c-4.2,0-8.4,0-12.7,0c-6.8-0.1-13.6,0-20.3,0c-2.9,0-5.6,0.3-7.7,2.7c-1.2,1.1-2.4,2.4-4.3,2.1c-0.9-0.8-1.1-1.9-1.2-3
			c-0.1-1.3,0-2.6,0.3-3.9c0.1-0.5,0.4-0.9,0.7-1.3c1.2-1.3,2.9-0.4,4.2-0.9V41c1.1-0.6,2.4-0.6,3.5-1.2c0.2-0.1,0.4-0.1,0.6-0.2
			c0.4,0,0.8,0.1,1.2,0.2c1.1,0.5,2.2,0.8,3.4,0.7c0.8,0,1.5-0.2,2.3-0.2c0.4,0,0.8,0.1,1.1,0.2c0.6,0.4,1.1,1.1,1.9,0.4V41
			c1.2-0.8,2.5-0.1,3.7-0.4c0.4-0.1,0.8-0.2,1.2-0.1c0.7,0.4,1.2,1.1,2.1,0.6l0,0c1.8-1,4.1,0.4,5.7-1.2c0.6-0.6,1.2-1.3,2.2-1.4
			c0.5,0,0.9,0.1,1.2,0.4c1.1,2.7,3.4,1,5.2,1.4c0.5,0,1,0,1.5,0.1c1.8,0.9,3.6,0.2,5.4,0.2c2.5,0,4.9-0.1,7.2-1.3
			c1.5-0.8,3.3-0.9,4.9-0.4c11.2,3.5,22.6,1.2,34,1.8c3,0.1,6,0,8.9,0c18.2-0.2,36.4,0.1,54.6,0c16.3-0.1,32.6,0,48.9,0
			c1.8,0,3.7-0.1,5.1,1.5C380,43.7,381.3,45.2,379.5,46.8z"/>
		<path class="st70" d="M379.3,42.2c-18-0.1-36-0.2-53.9-0.2c-1-0.5-1.6-1.1-0.9-2.2c2.5-1,4.3-5.2,7.8-1.8c0.6,1,1.3,1.8,2.9,1.9
			c-1.6-0.3-2.5-1-3.1-2.2c-1.1-3.2,1.1-4,3.5-4.7c2.7-0.7,5.3-0.4,7.8,0.6c1.7,0.6,3.2,1.7,2.4,3.6c-0.9,2.3-2.5,0.3-3.7,0
			c-0.6-0.1-1.2-0.5-1.9-0.4c8.1,0.8,16.1,4.5,24.2-0.1c-1,0.5-1.9,1.2-3.2,0.6c-0.9-1.6,0.1-2.7,1.1-3.8c2.4-2.7,3.2-6.1,4.2-9.4
			c-0.9-1.1-2.7-1.3-2.7-3.2c0.1-0.4,0.3-0.8,0.6-1.1c1.5-1,3.5-0.3,4.9-1.5c0.3-0.4,0.6-0.8,0.9-1.2c0.7,0,1.5,0,2.2,0
			c1.4-0.5,2.8-1.1,4.4-0.5c1.5,1.1,0.5,2-0.3,2.8c-2.5,2.2-4.1,5.1-5.6,7.9c-1.8,3.4,0.3,7.1-0.3,10.6c-0.1,0.6,0.8,1,1.5,0.8
			c1-0.2,2.3-0.7,2.1-1.7c-0.8-4.9,3.2-5.8,5.9-7.9c3.8-0.2,3.9,2.6,4.1,5.2c-0.2,2.9-2.6,4.5-3.9,6.7
			C380.1,41.5,379.8,41.8,379.3,42.2z"/>
		<path class="st71" d="M446.3,41.9c0.8-0.5,1.6-1,2.4-1.5c-1.3-1.9-3.1,0.6-4.7-1c1.7-2.4,7.1-2.4,5.3-7.3
			c4.2-1.9,8.2-1.1,12.1,0.9c1.5,0.8,2.1-0.2,2.9-1c3.6,1,1.2,4,2,6c0.3,0.3,0.6,0.6,0.9,1c0,0.6,0,1.3,0,1.9
			C460.3,41.3,453.3,41.6,446.3,41.9z"/>
		<path class="st46" d="M380.5,41.1c-0.8-3.5,2.8-4.4,3.9-6.8c2.6-0.8,5.3-1.6,7.9-2.4c3-0.5,6-0.6,9.1,0.6c-3.6,1.4-7.4,1.5-11,2.5
			c-0.3,0-0.6,0-1,0.1c-1.7,1.9-3.9,3.4-5,5.9C383.1,41.1,381.8,42.1,380.5,41.1z"/>
		<path class="st72" d="M384.5,41c-1.2-4.4,2.5-4.6,5-5.9c-0.2,1.4-0.4,2.8-0.6,4.4c2.7,0.2,5.8-2.1,7.5,1.6
			C392.3,42.3,388.5,40.9,384.5,41z"/>
		<path class="st71" d="M431.3,41.1c4.3,0.4,8.8-1,13,0.9C440,41.7,435.5,43,431.3,41.1z"/>
		<path class="st73" d="M232.3,100.9c-5.3,1.1-3,6.1-4.8,9c-0.7,0.7-1.3,1.3-2,2c-2,1.3-3.2,0.5-4-1.5c-0.4-3.7,1.2-7.1,2.1-10.6
			c3.1-11.4,7.3-22.6,9.8-34.2c0.3-1.2,0.8-2.4,1.1-3.7c0.5-1.4,0.7-3,1.4-4.3c0.8-1.3,1.8-2.4,3.2-2.9c2.2-0.7,3.7,0.1,3.4,2.5
			c-0.3,1.9-0.8,3.8-0.8,5.8c-1.1,4.7-3,9.3-2.5,14.3c0.4,2-0.2,4.1,0.9,6c0.3,2.3-0.8,4.1-2.2,5.8c-2,2.5-2.5,5.7-3.4,8.7
			C234,99.2,233.5,100.4,232.3,100.9z"/>
		<path class="st74" d="M222.4,109.7c0.2,1.9,1.5,2.4,3.2,2.3c-1.3,3.6,0.1,7.9-3,11c0.1-2.1-0.4-3.8-2.9-4
			C217.9,115,219.1,112.1,222.4,109.7z"/>
		<path class="st74" d="M219.5,131.9c-1.6-3.8,1-6.3,3-9C222.4,126.2,223,129.7,219.5,131.9z"/>
		<path class="st75" d="M346.5,44.2c7.3,0,14.6,0,22,0c1.5,2.5,1.6,4.8-1,6.8c-5.5,0.1-10.3,2.5-15,5.1c-0.4,0-0.7,0-1.1-0.1
			c-8.5,1.6-17.2,2.2-25.8,3c-2.6,0.2-5.3,0.3-7.3-2.1c1.1-3,3.8-2.1,5.9-2.3c8.4-0.7,16.9-0.4,25-3.1c1.7-0.6,1.5-1.3,0.2-2.3
			C347.6,48.1,345.8,46.8,346.5,44.2z"/>
		<path class="st76" d="M307.3,86.9c-1.9,1.4-3.6,2.9-5,4.9c-3.6,1.7-7,3.8-11.1,4.4c-0.1-0.2-0.1-0.4-0.2-0.6
			c0.3-1.3,1.2-2.4,1.9-3.5c2.5-2.4,5.9-3.5,8.3-6.2c5.9-6.8,6-14.4,3.6-22.4c0.4-1.9,1.6-2.8,3.5-2.6c2,0.2,3.4-0.4,4.7-2
			c1.4-1.6,3.3-2.2,3.6,0.9c0.1,1.3,0.5,2.2,1.7,2.7c2.4,0.9,3.5,2.8,3.5,5.6c4.3-4.1,5.4-4.2,8.2-1c-1.9,1.7-3.8,3.5-5.7,5.2
			C318.3,76.5,312.5,81.2,307.3,86.9z"/>
		<path class="st10" d="M263.5,97c-3.7-0.4-7.5,0.9-11.1-0.8c0.5-0.9,1.4-1.2,2.3-1.4c4.6-0.5,9.2-0.2,13.8-0.3
			c4.6,0.1,9.3-0.1,13.9,0c3.1,0.3,6.3-0.9,9.2,1.2c0,0-0.2,0.4-0.3,0.4c-6.1,1.8-12.3,0.3-18.5,0.8C269.6,97.1,266.5,97,263.5,97z"
			/>
		<path class="st58" d="M466.3,38.1c-2.1-1.5,0.1-4.5-2-6c0-0.7,0.1-1.5,0.1-2.2c1.2-0.4,2,0.4,2.8,1.1
			C467.2,33.4,468.2,35.9,466.3,38.1z"/>
		<path class="st77" d="M467.3,31c-1.2,0.3-1.9-0.5-2.8-1.1c0.3-1.2,0.6-2.5,0.9-3.7c1.8,0.7,1,2.7,2,3.9
			C467.3,30.4,467.2,30.7,467.3,31z"/>
		<path class="st78" d="M254.4,95.9c-0.7,0.1-1.4,0.2-2.1,0.2c-4.3,0.7-8.8,0-12.9,1.8c-2,1.4-4,2.7-6,4.1c-0.4-0.4-0.8-0.8-1.3-1.2
			c0.4-1,0.8-2,1.2-3c6-5.1,6.9-12,6.9-19.3c0.6-2.7,2-5.1,2.1-8c0.2-0.6-0.2,0.1,0.1-0.5c0.9-1.9,0.9-5.5,3.7-4.8
			c2.3,0.6,0.7,3.7,0.6,5.8c-0.1,2,0,4-0.5,6c2.3,1.7,5.5,2.7,5.6,6.4c0.1,0.5,0.1,0.9,0.1,1.4c-0.9,2.4-0.5,4.4,1.4,6.3
			C254.6,92.5,256,93.9,254.4,95.9z"/>
		<path class="st79" d="M330.3,66.9c-2.5-1.3-5.2-2.9-6.2,1.6c-0.3,1.4-1.1,1.5-2.1,1.4c-1.3-0.1-1.8-1.2-1.5-2.1
			c1.1-3-0.8-4-2.9-4.6c-2.8-0.8-3.9-1.9-1.2-5.4c-2.7,5.3-7.5,3.4-10.7,5.2c-2.1-0.7-4.4-1.2-4.2-4.2c2.5-1.3,5.2-2.2,7.9-0.9
			c2.4,1.2,2.8-1.8,4.6-1.8c1.6-0.3,3.2-0.4,4.5,0.9c10.1,2.4,19.9-1.7,29.9-1.5c1.1,0,2.2-0.7,3.1,0.5c-3.6,3.5-9.4,3-12.7,7
			C335,62.4,333.1,65.7,330.3,66.9z"/>
		<path class="st80" d="M214.6,17.9c2-1.2,3.9,0.2,5.9,0.3c4,3.9,4,4.1,0.1,7.3c-0.3,0.3-1.3,0.2-1.2,0.4c2.9,5,2.2,7.7-3.1,11.9
			c-1.2,0.1-2.2-0.3-2.7-1.5C213.9,30.1,212.3,23.9,214.6,17.9z"/>
		<path class="st81" d="M231.4,17c-0.2-0.5-0.9-1.4,0-1.6c1.7-0.4,3.3,0,4.2,1.7c0.1,0.7,0.2,1.3,0,2c-1.6,5.2-1.6,5.2,3.9,5.1
			c0.3,0,0.6,0.1,1,0.2c0.7,0.2,1.3,0.7,1.8,1.3c0.8,1.4,1.4,2.8-0.3,4c-0.5,0.2-0.9,0.2-1.4,0.2c-3.2-0.8-7.2,0.5-9.4-3.4
			c-0.6-0.2-1,1-0.5,0.5c0.2-0.2,0.3-0.2,0.5-0.1c1.9,1,1.6,2.6,1,4.2c-0.3,0.4-0.7,0.7-1.1,0.9c-0.7,0.2-1.4,0.3-2.2,0.2
			c-0.5-0.1-0.9-0.3-1.3-0.6c0.2-2.2-2.7-3-2.4-5.3C224.3,21,229.5,20.2,231.4,17z"/>
		<path class="st82" d="M271.3,13.1c0,1.3,0.1,2.6,0.1,3.9c-2.4,1.9-5.2,1.6-8,1.9c-4.1-0.9-8.4,0.1-12.6-1
			c-0.8-0.4-1.5-0.9-1.9-1.7c-0.5-1.2-0.3-2.3,0.6-3.3c2.1-1.3,3.6-1,5.4,0.8c1.5,1.6,1.4-0.3,1.5-1.3c1.8-1,3.4,0.5,5.1,0.6h-0.1
			c2.6,1.6,4.7-1,7.1-1C269.5,12.5,270.3,12.8,271.3,13.1z"/>
		<path class="st83" d="M208.6,41.2c-2.2,0.6-4.2,0.5-5.3-1.9c-1.9-7.4-2.1-14.8,0.2-22.2c1.6,5.3,0.3,10.8,0.7,16.1
			c0.1,1.9,0,3.9,0,5.8c0.4,0,0.9,0,1.3,0c0-7.4,0-14.8,0-22.2c0-0.8-0.5-2.3,1.2-1.9c0.4,0.1,0.5,1.4,0.8,2.1
			c1.5,1.4,1.4,3.3,1.4,5C208.8,28.5,209.3,34.9,208.6,41.2z"/>
		<path class="st84" d="M231.4,17c2.1,2.9-1.5,3.2-2.4,3.9c-2,1.5-3.2,2.7-2.5,5.2c-1,0.4-1.3,1.5-2,2.2c-0.9,0.2-1.7-0.2-2.4-0.6
			c-0.7-0.7-2.1-1.1-1.5-2.5c2.1-2.3,1.2-4.6,0.1-7c2.1-1.9,5.8,0.5,7.6-2.9C228.5,14.7,229.8,17.3,231.4,17z"/>
		<path class="st85" d="M214.6,41.9c-1.8,0.1-3.7,0.5-5.3-1c-1.4-8.6-1.3-17.2,0-25.8c1.8,2.3,1.6,2.3,1.6,5.5
			c0.1,6.2,0.3,12.4,0.5,18.6c0,0.1,0.3,0.3,0.4,0.2c0.3-0.1,0.5-0.2,0.8-0.4c0.5-1,1.1-1.9,2.3-0.8
			C215.5,39.6,215.5,40.8,214.6,41.9z"/>
		<path class="st86" d="M240.6,25.2c-1.3,0.1-2.7,0-3.9,0.5c-1.6,0.5-3.1,0.7-3.8-1c-0.6-1.3-2-3,0.7-3.9c1.6-0.5,0.2-3,1.9-3.7
			c0.9,0.1,1.8,0.2,2.7,0.4c1.6,0.2,2,1.3,2.3,2.6C240.8,21.8,241.8,23.5,240.6,25.2z"/>
		<path class="st87" d="M209.4,15.1c0,8.6,0,17.2,0,25.8c-0.3,0.1-0.5,0.2-0.7,0.3c-2.3-8-0.6-16.1-1.1-24.1
			C208.1,16.5,208.8,15.8,209.4,15.1z"/>
		<path class="st88" d="M214.4,38.2c-0.6,0.3-1.2,0.6-1.7,0.9c0-8.1,0-16.2,0-24.8c2.3,1,1.6,2.6,2,3.6c0,6.4-0.1,12.8-0.1,19.1
			C214.9,37.5,214.8,37.9,214.4,38.2z"/>
		<path class="st89" d="M240.6,25.2c-0.4-1.7-0.7-3.4-1.1-5.1c1-1.4,2.9-1.6,3.9-3.1c1.3-1.5,2.7,0.5,4-0.1c0.2,0.2,0.3,0.3,0.5,0.5
			c0.3,3.8-3,5.5-4.8,8c-0.4,0.5-0.8,1-1.6,0.6C241.1,25.8,240.9,25.5,240.6,25.2z"/>
		<path class="st90" d="M203.5,17.1c-0.1,7.4-0.1,14.8-0.2,22.2c-0.3-0.1-0.6-0.3-1-0.4c-2-6.9-1.9-13.9-0.1-20.9
			c0.7-1.1-1.4-3,1.1-3.6C203.4,15.3,203.4,16.2,203.5,17.1z"/>
		<path class="st91" d="M209.5,12.3c-0.4-0.3-2.2-0.3-0.4-1.1c3.6-1.6,7.7,0.8,11.3-1.1c0.9,0.6,2.2,0.8,2.5,2.5
			C218.5,12,214,12,209.5,12.3z"/>
		<path class="st92" d="M249.5,12.9c0,1,0,2.1,0,3.1c-0.3,1-0.9,1.5-2,1.3l-0.2-0.4c-0.1-3.3-3.2-1.8-4.8-2.8
			C244.4,10.1,247.3,13,249.5,12.9z"/>
		<path class="st93" d="M243.4,17.1c0,2.7-1.8,3.1-3.9,3.1c-0.4-0.9-0.8-1.8-1.2-2.7C239.9,17.3,241.8,17.2,243.4,17.1z"/>
		<path class="st94" d="M263.5,18c2.6-0.3,5.3-0.6,7.9-0.9c0.2,0.9-0.3,2.2,0.9,2.6c1.2,0.4,1-0.9,1.3-1.6c13.6,0,27.2,0,40.8,0
			c0.4,0.1,0.7,0.1,1.1,0.2c0.7,4.1-2.6,4.4-5.1,5.1c-2.9,0.7-5.9,0-8.9,0.5c-0.5,0.2-1,0.2-1.5,0.3c-3,0.5-5.8-0.6-8.8-0.6
			c-1.1,0.2-2,0.9-3.1,1.2c-2.5,0.1-5-2.3-7.6-0.1c-2.1-0.1-4.1,1.4-6.3,0.8c-2.2-1.5-3.5-5-7.3-3c-0.7,0.3-1.8-1.2-2.9-1.6
			c-0.4-0.2-0.8-0.5-1-0.9C262.9,19.2,263,18.5,263.5,18z"/>
		<path class="st95" d="M402.3,28.1c-4.7-0.9-7.2-6.4-4.9-10.8c0.3-0.1,0.6-0.1,0.9-0.2c0.4-0.5,0.8-0.5,1.2-0.1
			c0.9-0.4,1.7-1.1,2.8-0.8c-0.6,4.3,4.2,4.2,5.6,6.9c0,0.5-0.1,0.9-0.3,1.3C406.7,26.9,403.5,26.1,402.3,28.1z"/>
		<path class="st96" d="M414,15.4c0.1,1.4,0.2,2.8,2.3,2.5c1.5,2.5,1,4.7-1.3,6.4c-2.4,1.8-3.8,5.2-7.6,4.8c-1.5-1.7-1.1-3.3-0.1-5
			l0,0c1.2-1.7,3.1-0.2,5.1-1.2c-4.1-0.6-5-2.6-3-5.6C411.8,18.6,412.2,15.3,414,15.4z"/>
		<path class="st97" d="M409.5,17.3c0,1.4,1.1,2.7,0.1,4c2.2,1.3,2.2-1.7,3.7-1.5c0,4.8,0,4.8-6,4.3c0-1.1-0.6-2.2-1.6-2.2
			c-4.5,0-3.6-3-3.5-5.7C404.8,15.6,407,17.9,409.5,17.3z"/>
		<path class="st57" d="M399.5,17c-0.4,0-0.8,0-1.2,0.1c-0.4-2.6-2.8-2.8-4.4-2.9c-3-0.1-1.4-1.7-1.4-2.9
			C396.5,11.2,400,11.5,399.5,17z"/>
		<path class="st98" d="M319.3,16.4c0.7-0.8,1.5-1.6,2.2-2.4c1.2,1.1,2.5,1,3.9,0.3c4.1,1.7,8.1-1,12.1-0.2c1.4,1,3,1.8,2.8,4
			c-0.3,0.4-0.7,0.7-1.1,0.9c-4.5,0.7-8.9-1.6-13.5-0.6C323.3,18.1,320.6,19.4,319.3,16.4z"/>
		<path class="st99" d="M347.3,13.1c1.8,0.9,3.3,2.1,4,4c2.1,1.8,4.7,0.5,7,0.9c0.6,0.9,0.2,1.7-0.2,2.6c-0.4,0.8-1,1.5-1.9,2
			c-0.4,0.1-0.9,0.2-1.4,0.1c-2.6-1.6-0.3,1.9-1.7,1.6c-0.7,0.7-1.7,0.9-2.6,1.2c-3.9,1.3-4,1.1-3.5-3.4c0.1-0.4,0.2-0.9,0.3-1.3
			c0.4-1.5-1.3-2.1-1.6-3.3c-0.1-1.7-3.8-1.5-2.2-4C344.6,12.2,346,11.9,347.3,13.1L347.3,13.1z"/>
		<path class="st70" d="M357.5,20.2c0.3-0.7,0.7-1.5,1-2.2c2-0.9,4,1.4,6,0.1c0.5,0.6,0.6,1.3,0.1,1.9l-0.1,0.1
			C362,21.1,359.8,24.9,357.5,20.2z"/>
		<path class="st100" d="M364.5,20.1c0-0.6,0-1.3-0.1-1.9c1.7-4.5,3.3,1.3,5,0.1C368.3,20.4,366.3,20.2,364.5,20.1z"/>
		<path class="st101" d="M377.5,17.3c-1.6-0.1-3.3-0.2-4.9-0.3c1.4-1.3,2.6-3,4.9-1.9c1-0.4,2-0.7,3-1.1c2.5,1.4,7-1,7.8,3.9
			c-1.3,1.8-3.1,0.4-4.7,0.7C381.3,19.4,379.3,19,377.5,17.3z"/>
		<path class="st102" d="M339.3,18.2c0.3-0.1,0.5-0.2,0.8-0.2c0.8-0.3,1.5-0.6,2.3-1c0.6-0.5,1.3-0.5,2-0.3c0.7,2,4.1,1.6,3.9,4.4
			V21c-1.7,1.8-2.3,4.9-5.5,5.3C338.8,24.9,338.8,21.7,339.3,18.2z"/>
		<path class="st103" d="M344.5,17.4c-0.7-0.1-1.3-0.2-2-0.3c-1.1-1.9-2.1-4,0.4-5.4c1.7-0.9,3.8-1.3,4.5,1.6
			c-1.2,0.2-2.6-0.3-3.6,1.2c0.9,1.4,2.9,0.2,3.7,1.6c0.7,1.4-0.7,1-1.2,1.4C345.8,17.8,345.1,17.8,344.5,17.4z"/>
		<path class="st104" d="M268.5,12.1c-1.5,3.5-4.9,1.8-7.4,2.8c0.1-0.6,0.2-1.2,0.3-1.8c1.8,0.2,2.7-1.4,4.1-2.1
			C267,10.2,268.3,9.8,268.5,12.1z"/>
		<path class="st105" d="M383.3,18.2c1.6-0.1,3.3-0.2,4.9-0.2c0.4,0.1,0.7,0.1,1.1,0.2c1.5,3,1.2,6.8,4.4,9c0.2,0.2,0.2,1,0,1.3
			c-0.2,0.3-1.1,0.5-1.2,0.4c-1.9-2.3-4-1.2-6.3-0.9c-1.8,0.3-2.5-1.2-3.1-2.6c-1-2,0.4-1.9,1.7-2.5c2-1,1.8-1.5-1.3-3.6
			c-0.3-0.2-0.4-0.4-0.3-0.7C383.3,18.4,383.3,18.2,383.3,18.2z"/>
		<path class="st59" d="M319.3,16.4c2.2,1.7,4.8,0.6,7.2,0.9c0.2,0.5,0.1,0.9-0.2,1.3c-3.6,2-3.7,6.8-7.2,8.9
			c3.1,2.9,0.8,5.1-0.9,7.3c-1.2,1.3-2.9,1.4-4.3,2.3c-1.4,0.8-2.6,2.1-4.5,1.3c-1.1-1.7-2.1-3.6-4.6-2.9c-1.7,0.5-2.7-1.1-4.1-1.4
			c-0.5-0.1-0.6-1.9-1.5,0c-0.9,2.1-3.4,1.8-3.4-0.3c0.1-5-2.4-8.3-5.5-11.6c3,0.3,6.1,0.6,9.1,0.9c1.2,1.5,3.6,1.2,4.6,3
			c-0.6-1.7-2.8-1.6-3.6-3.1c2.6-2,5.7-0.7,8.5-0.9c3-0.2,5.4-1,6.5-4c0.3-0.1,0.6-0.1,0.9-0.2c0.2,0.7,0.1,2,1.2,1.5
			c1.4-0.6,0.6-2.3,1-3.5C318.8,16.2,319,16.3,319.3,16.4z"/>
		<path class="st106" d="M169.4,42.3c0,0.3,0,0.5,0,0.8c-2.9,2.2-6.3,0.8-9.4,1.4c-2,1-4.1,3.6-5.7-0.4c-0.6,0-1.2,0-1.8,0
			c-1.7,1.3-3.4,1.3-5.2,0c-0.5-0.4-1.1-0.8-1.6-1.1c1.7-2.5,5,0.5,6.6-2c0.3-0.3,0.7-0.5,1.1-0.5c1.1,0,2.2-0.2,3.2-0.5
			c3.1-0.4,6.2-0.4,9.4,0c1,0.2,1.8,0.5,2.6,1.1C169.1,41.5,169.3,41.9,169.4,42.3z"/>
		<path class="st107" d="M153.4,41.3c-0.3-0.1-0.6-0.2-1-0.3c0-0.3,0-0.7,0-1c-0.9-5.9-0.7-11.9,0-17.8c0-1.7,0-3.4,0-5
			c0.1-0.6,0.1-1.3,0.2-1.9c3.7,3.1,2.1,7.3,2.4,11.2C154.3,31.3,156.4,36.6,153.4,41.3z"/>
		<path class="st108" d="M152.4,22.1c0,5.9,0,11.9,0,17.8c-2.3-1.9-1.1-4.6-1.3-6.9c-0.3-3.6,0.2-7.3,0.3-11
			C151.8,22.1,152.1,22.1,152.4,22.1z"/>
		<path class="st109" d="M154.6,137.9c-0.9-4.1-2.3,0.4-3.4-0.2c0.8-3,1.6-5.9,2.5-8.9c5.7-11,8.6-23,11.9-34.9
			c1.3-4.6,2.6-9.2,4.3-13.6c1.3-3.5,0.1-4.6-3.2-4.5c-1.6-2.2-0.6-3.4,1.4-4.4c2.5,1.3,2.3,1.3,3.3-1.8c1.6-4.8,2-9.9,5.2-14.1
			c0.8-0.3,1.6-0.2,2.2,0.4c0.9,1.4,0.5,2.9,0.1,4.3c-7.1,24.5-14.2,49-21.5,73.5C157.1,135.4,157.1,137.7,154.6,137.9z"/>
		<path class="st110" d="M168.4,71.8c-1.8,0.9-2,2.4-1.7,4.1c0.4,3.3-1,6.2-2.1,9.1c-0.5-4.7,0.9-9.7-2.1-14c0.6-2.4,2-4.1,4.5-4.4
			c2-0.3,2.7,1.3,3.1,3C170.1,70.7,169.6,71.5,168.4,71.8z"/>
		<path class="st54" d="M169.6,70c-3.3-6.2-4.8,0.1-7,1c-0.3-0.4-0.6-0.7-0.9-1.1c0-1.7-1.5-2.5-2.1-3.9c2-1.9-0.8-2.7-1-4.1
			c0.2-0.3,0.3-0.8,0.5-0.8c4.4-1.1,3.9-3.4,1.5-6.2c1.6-3.5,4.9-2.3,7.6-2.6c2.1,1.1,4.4,1.9,6,3.8C174.3,61.4,174,66.4,169.6,70z"
			/>
		<path class="st17" d="M168.3,52.8c-2.3,1.7-5.5,0.4-7.8,2.2c-0.3,0-0.6,0.1-0.9,0.1c-1.1-0.4-1.8-1.2-2.2-2.2c-0.7-3-4-5.2-3-8.8
			c2.2,2.7,3.1,0.3,4.3-1c0.3,0.4,0.6,1.1,1,1c4.1-1.9,6.7,1.2,9.7,2.7c0,1.2,0.1,2.3,0.1,3.5C169.8,51.5,169.4,52.4,168.3,52.8z"/>
		<path class="st111" d="M147.4,44.1c1.7,0,3.4,0,5.2,0c0,0.2,0,0.3-0.1,0.5c-0.1,2.4-2.1,4.7-3.6,4.5
			C146.6,48.9,147.8,45.9,147.4,44.1z"/>
		<path class="st112" d="M157.4,53c1.4,0.1,2.1,0.9,2.2,2.2c-0.1,1.8-1.7,2.9-2.8,2.1C155.3,56.1,155.1,54.1,157.4,53z"/>
		<path class="st113" d="M147.6,15.1c1.6-0.1,4.3-2.2,3.9,1.9C150.3,16,147.1,19.4,147.6,15.1z"/>
		<path class="st100" d="M383.3,18.2c0,0.4,0.1,0.7,0.1,1.1c-1.4,1.6-2.6,3.4-4.2,4.8c-3.1,2.5-2.2,3.9,1,5c-0.3,0.8-0.3,2-0.8,2.2
			c-3.3,1.3-3.9,3.6-3.8,7c0,2.4-3.2,1.7-4.5,1.8c-1.8,0.2-2.7-1.8-2.2-4c0.5-1.9,2.6-4.2-1-5.6c-1-0.4-0.5-1.8,0.3-2.5
			c2.5-2.2,4.5-4.4,4.9-8.1c0.1-1.4,3.5-0.4,4.3-2.5C379.5,16.4,381.3,18.6,383.3,18.2z"/>
		<path class="st72" d="M390.3,35.1c3-1.9,6.5-1.9,9.9-3.1c-2.6,0-5.3,0-7.9,0c1.5-1.4,3.5-0.9,5.2-0.8c4.6,0.2,9.2,0.6,13.9,0.9
			c-2.3,3.9-6.5,1.1-9.7,2.7C398.5,36.2,394.1,35,390.3,35.1z"/>
		<path class="st114" d="M421.5,18.3c1.3-0.1,2,0.8,1.7,1.8c-1.4,3.5,0.3,4.7,3.8,4.7c-1.4,3.7-4.6,2.2-6.6,3.2
			C419.7,24.6,421.3,21.6,421.5,18.3z"/>
		<path class="st115" d="M407.3,24.1c0,1.7,0,3.3,0.1,5c-1.7-0.3-3.4-0.7-5.1-1C402,24.2,406.5,26.5,407.3,24.1z"/>
		<path class="st116" d="M449.3,32c-1.6-0.9-3.7,0.8-5.2-0.9c-1-1.7,0.3-2.7,1.1-3.9c0.5-0.9,1.4-1.3,2.7-1.5
			c0.2,1.9-2.7,4.8,1.3,5.5C449.3,31.4,449.3,31.7,449.3,32z"/>
		<path class="st114" d="M445.3,27.2c-0.4,1.3-0.8,2.6-1.1,3.9c-2.8,3.5-4.7,1-6.7-1c0-0.6,0-1.3,0.1-1.9c1-1,1.9-2,2.9-2.9
			c0.8,0.1,2.2,0.1,2.2,0.4C443,28.2,443,28.3,445.3,27.2z"/>
		<path class="st117" d="M424.3,18.9c2.2-2.1,3.8-2,5.4-1c0.3,0.2,0.2,1.5-0.1,1.7C427.8,20.9,426.7,18.8,424.3,18.9z"/>
		<path class="st118" d="M154.6,137.9c5.6-15.1,8.9-30.8,13.9-46.1c3.2-9.9,5.8-20,8.7-30.1c0.5-1.9,1.6-3.7,1.4-5.8
			c0.2-4.2,3.2-5.5,6.6-6.3c3.4-0.2,6.9,0,10.3-0.2c0.6,0,1.2,0,1.8,0c9.9,0.1,19.8,0,29.7,0.1c2.4,0,5.1-0.4,6.5,2.4
			c0.3,1-0.5,1.8-1.2,1.7c-5.6-0.9-11.1,3.2-16.9,0.1c-2.1-1.1-5-1-7.3-0.3c-6.8,1.9-14,0.1-20.8,2.2c-4.6,0.6-5.9,4.2-7.1,7.9
			c-2.3,9.5-6,18.6-7.1,28.4c-0.1,0.5-0.2,1-0.5,1.5c-2,2.2-2.2,5-2.9,7.7c-1.9,7.6-3.8,15.3-6.3,22.8c-2.4,7.6-4.1,15.4-6.1,23.1
			c-0.5,2.1-0.4,3.9,1.3,5.4c1.7,4-3.2,4.9-3.6,8c-0.8,1.2-2,1.9-3.1,2.7c-1.6,0.8-2.8,2.2-4.6,2.6c-1.4-2.1,0.4-3.7,0.8-5.5
			C150.3,152.8,152.4,145.4,154.6,137.9z"/>
		<path class="st119" d="M168.6,167.8c-6.6-0.8-13.4,1-20-1.1c1-2.7,3.4-0.7,5-1.4c5.9,0,11.8-0.1,17.7,0
			c11.2-0.2,22.5,1.4,33.5-1.8c0.7,0.1,1,0.6,1.1,1.3c-0.3,2.5-2.2,3.4-4.2,3.4C190.6,168.2,179.5,168.8,168.6,167.8z"/>
		<path class="st65" d="M168.6,167.8c10,0,19.9,0,29.9,0c3.1,0,6.1-0.3,7.2-3.9c0.1-0.4,0.4-0.5,0.8-0.3c0.3,2.7,0.3,5.2-3.4,5.2
			c-10.9,0-21.8,0-32.7-0.1C169.6,168.7,169.1,168.1,168.6,167.8z"/>
		<path class="st119" d="M206.4,163.6c-0.2,0.1-0.5,0.2-0.8,0.3l-0.3-0.2c-2.2-5.4,0.3-12.9,5.1-15.9c-0.4,2.3-0.9,4.6-1.3,6.8
			C207.9,157.5,206.6,160.4,206.4,163.6z"/>
		<path class="st120" d="M152.6,166.7c-1.4,0-2.7,0-4.1,0.1c-0.3-0.3-0.7-0.6-1-0.9c1-1.4,1.9-3,3.9-3.1
			C152.8,163.8,153.1,165.1,152.6,166.7z"/>
		<path class="st120" d="M210.4,147.8c-2.4,5.1-6.1,9.7-5.1,15.9c-3.4,2.4-7,3.3-11.2,3.1c-7.6-0.3-15.2-0.2-22.8-0.3
			c0.7-2.6,2.9-1.8,4.5-1.8c4.4-0.2,8.8,0.4,13.3-0.4c-8.2,1.3-16.3-0.3-24.4-1.3c-1.6-0.2-3.4,0.1-4.5-1.5c0.6-3.1,3.3-3.2,5.6-4
			c5.5-1.4,11.2-1.3,16.8-1c3.8,0.7,7.2,2.5,10.8,3.8c4.8,1.7,7,0.7,8.7-4.2c1-3.1,0.9-6.6,3.7-9c2.2-0.3,2.2-3.9,5-3.3
			c0,1,0,2,0.1,3C210.8,147.2,210.5,147.5,210.4,147.8z"/>
		<path class="st121" d="M222.4,109.7c-1.5,2.9-2.5,6-2.8,9.3c-1,2.3-2,4.7-3.1,7c-1.5,3.5-2.5,7.2-3,11l0,0
			c-3.3,1.1-3.8-1.2-4.2-3.5c0.2-2.9,1.1-5.6,1.9-8.3c0.4-1.2,0.8-2.3,1-3.5c0.4-1.6,0.8-3.2,1.4-4.7c0.3-0.6,0.8-1.1,1.5-1.2
			c0.5,0,1-0.2,1.3-0.6c4.9-8.1,6.7-17.1,8.6-26.2c0.3-1.5-0.3-2.9-1-4.3c-0.2-0.4-0.2-0.9-0.2-1.4c0.1-0.7,0.5-1.3,1.2-1.6
			c2.9-3,4.5-6.7,5.6-10.7c0.6-2.2,0.3-5.5,4-5.7c-1.8,11.4-6.5,22-9.2,33.2C224.5,102.1,223.4,105.9,222.4,109.7z"/>
		<path class="st122" d="M210.4,132.8c-0.1,2.2,0.5,3.9,3.1,4.1c-0.6,2.5-0.3,5.3-2.8,7c-1.8,1-1.5,4.5-4.7,3.8
			c-0.5-0.7-0.6-1.4-0.6-2.2c0.6-3.7,2-7.3,2.9-11C208.8,133.7,209,132.6,210.4,132.8z"/>
		<path class="st122" d="M213.5,136.9c-1.4-4.3,0.5-7.8,3-11C216,129.7,215.5,133.5,213.5,136.9z"/>
		<path class="st79" d="M201.4,41c-2.3,0.9-4.5,1.5-6.8,0.2c0-8.7,0-17.4,0-26c0.5,0,1,0,1.5,0c1.7,8-0.5,16.4,2.7,24.3
			c0-5.1,0-10.1,0-15.2c2.6,0.6,2,2.7,2.1,4.4c0.2,3.1,0,6.3,0.2,9.4C201.1,39,200.6,40.1,201.4,41z"/>
		<path class="st123" d="M177.4,40c-0.7,2.9-2.5,1.5-4,1c0.1-8,0.1-16,0.2-24.1c0-0.7-0.6-2.3,1.1-2c0.4,0.1,0.6,1.4,0.8,2.1
			c1.8,1.9,1.2,4.4,1.3,6.6C177.1,29.1,176.4,34.6,177.4,40z"/>
		<path class="st124" d="M191.5,41.2c-1.4,1.8-2.7,0.4-4-0.1c0-8.8,0-17.5,0-26.3c0.5,0,1.1,0,1.6,0c1.1,6.8,0.3,13.7,0.7,20.6
			c0.1,1.6-1,3.8,1.6,4.5c0.3,0.3,0.4,0.5,0.3,0.8C191.8,41.1,191.6,41.2,191.5,41.2z"/>
		<path class="st50" d="M153.6,25.9c-0.3-3.6,1.4-7.3-1.1-10.7c3-2.3,1.3,2.5,3.2,2.1c2.9,2.6,2.1,6.1,2.2,9.3c0.1,3,0.3,6-0.3,8.9
			c-0.2,1.3-0.9,2.7-2.5,2.6c-1.7-0.2-1-1.8-1.1-2.8C153.8,32.1,154.6,28.9,153.6,25.9z"/>
		<path class="st125" d="M177.4,40c-2.6-0.3-1.8-2.4-1.8-3.8c-0.1-6.4,0-12.8,0-19.1c0.6-0.7,1.2-1.3,1.8-2
			C179.8,23.4,179.9,31.8,177.4,40L177.4,40z"/>
		<path class="st126" d="M168.4,17.1c0.6,0,1.1-0.1,1.7-0.1c2.6,2.3-0.2,5.5,1.2,8c-0.1,3.5-0.2,7.1,0.1,10.6c0.2,2,0.6,4.3-1.9,5.6
			c-2.2-0.4-2.3-2.1-2.2-3.7c0.1-2.1,0.1-4.3,0.1-6.4C167.9,26.4,166.6,21.7,168.4,17.1z"/>
		<path class="st46" d="M153.6,25.9c1.5,3.7-0.2,7.7,1.5,11.5c1.3-6.7,1.7-13.4,0.6-20.1c0.5,0,1.1,0,1.6,0
			c2.6,3.1,1.4,6.9,1.6,10.3c0.1,3.1,0.3,6.2-0.2,9.3c-0.3,1.9-1.8,3-2.9,4.3c-0.7,1-1.5,1.2-2.3,0.2
			C153.4,36.2,153.6,31,153.6,25.9z"/>
		<path class="st127" d="M201.4,41c-1-0.3-0.9-1.2-1.1-1.9c-0.8-6.1,0.2-12.2-0.8-18.3c-0.2-1,0.2-2,1-2.7c0.6,0,1.1,0,1.7,0
			c0,7,0,13.9,0.1,20.9C202,39.6,201.8,40.3,201.4,41z"/>
		<path class="st79" d="M194.5,41.2c-0.7,1.5-1.4,1.1-2.1,0.1c-1.1-5.7,0.3-11.4-0.7-17.1c0-2.9,0-5.9,0-9.7
			c2.3,4.1,1.3,7.8,1.6,11.3C193.9,30.9,192.1,36.2,194.5,41.2z"/>
		<path class="st123" d="M200.5,18.1c-0.1,7-0.1,14-0.2,21c-1.7-3.1-0.5-6.4-0.9-9.6c-0.2-1.7,0.5-3.6-0.7-5.2c0-3,0-6.1,0-9.7
			C200.4,15.6,200.1,17,200.5,18.1z"/>
		<path class="st124" d="M182.6,41.9c-1.1-1.5-4.1,2-4.3-1.6c0.1-0.2,0.2-0.4,0.3-0.6c0.3-0.3,0.6-0.6,0.9-0.9
			c0.3-0.3,0.5-0.7,0.6-1.1c0.2-5.8,0.3-11.7-0.1-17.5c-0.1-0.5-0.2-1-0.1-1.5c0.1-0.5,0.4-0.9,0.8-1.2c0.8-0.2,1.5-0.1,1.9,0.7
			c1.9,2.5,1.1,5.4,1.3,8.1C183.4,31.4,185,36.8,182.6,41.9z"/>
		<path class="st128" d="M187.4,41c-0.6,1.5-1.3,1.1-2.1,0.2c-2.1-3.4-1-7.1-1.2-10.7c-0.1-3.8-0.1-7.6,0-11.5
			c0-0.3,0.1-0.6,0.1-0.9c0.2-1.1,0.3-2.2,0.6-4.2c2.5,5.8,1.1,11.1,1.6,16.1C186.9,33.7,185.4,37.5,187.4,41z"/>
		<path class="st129" d="M169.3,40.6c2.7-4.9,0.4-10.3,1.4-15.4c2.5,0.8,1.1,2.6,1,4.1c1.1,3.9-0.5,8.2,1.9,11.8
			c-0.9,1.9-2.9,0.3-4.1,1.2c0-0.2,0-0.3,0-0.5C168.9,41.5,168.8,41.1,169.3,40.6z"/>
		<path class="st130" d="M159.3,18.1c0.2-1.1,0.3-3,0.7-3.1c1.2-0.3,0.6,1.6,1.5,2.1c2.2,2.5,1.3,5.6,1.4,8.5
			c0.2,3.4-0.1,6.9,0.2,10.3c0,0.3,0,0.6,0.1,0.9c0,0.6-0.3,1.1-0.8,1.5c-1.4,0.4-2.2-0.4-2.7-1.6c-1.1-5.1,0.2-10.3-0.8-15.4
			C158.6,20.3,158.6,19.2,159.3,18.1z"/>
		<path class="st131" d="M162.4,37.9c0-0.2,0.1-0.5,0.1-0.7c0.4-6.7-0.9-13.5,0.8-20.2c-0.1-0.5-0.4-1.1-0.2-1.3
			c0.9-0.8,1.1,0.2,1.1,0.7c0.2,5.4,0.2,10.9,0.6,16.3c0.1,1.4-1.4,3.7,1.5,4.3c0.1,0.3,0.1,0.5,0.2,0.8
			C165.3,39.4,163.8,39.4,162.4,37.9z"/>
		<path class="st132" d="M182.8,26.1c0-2.7-0.1-5.3-0.1-8c0.6,0,1.1,0,1.7,0h0.4c0.6,6.5,0.2,13,0.2,19.6c-1.8,1.1-1.8-0.3-1.8-1.4
			C182.9,32.9,183.4,29.5,182.8,26.1z"/>
		<path class="st133" d="M177.5,40.1c0-8.3-0.1-16.7-0.1-25c1.5-1,0.8,0.6,1.1,1c2,7.9,2.1,15.8,0.3,23.8c-0.2,0.1-0.3,0.2-0.5,0.4
			C178,40.2,177.9,40.1,177.5,40.1z"/>
		<path class="st134" d="M168.4,17.1c-0.1,4.6-0.1,9.3-0.2,13.9c-2.8-1.8-0.3-4.8-1.6-6.9c0-2.6-0.1-5.1-0.1-7.7
			c0-0.7-0.3-1.9,1-1.4C168.1,15.3,168.3,16.4,168.4,17.1z"/>
		<path class="st135" d="M166.8,24.2c1.9,2-0.2,4.9,1.6,6.9c0.6,3.1-0.7,6.5,0.9,9.5c0.1,0.4,0.2,0.8,0.3,1.2c-0.9,0.4-1.5,0-2-0.8
			c-1.3-0.9-0.8-2.3-1-3.5c-0.1-0.2-0.1-0.4-0.1-0.6C166.6,32.7,166.6,28.5,166.8,24.2z"/>
		<path class="st136" d="M178.9,39.8c-0.1-7.9-0.2-15.9-0.3-23.8c0.7,0.4,1.4,0.9,2.1,1.3c0,0.3-0.1,0.6-0.2,0.8
			c0,5.5,0.1,11.1,0,16.6c0,1.8,0.3,3.6-0.9,5.2C179.4,40,179,40,178.9,39.8z"/>
		<path class="st137" d="M157.8,37.9c-0.1-6.9-0.3-13.7-0.4-20.6c0.4,0.3,0.9,0.6,1.3,0.8c1.5,6.1,0.6,12.3,1,18.4
			C159.6,37.9,159.6,39,157.8,37.9z"/>
		<path class="st138" d="M163.3,17c0,6.7,1,13.5-0.8,20.2l-0.1-0.5c-0.6-6.5-0.8-13.1,0.1-19.6C162.8,17.1,163.1,17,163.3,17z"/>
		<path class="st108" d="M162.6,17.1c0,6.5-0.1,13.1-0.1,19.6c-1.9-6.5-0.6-13.1-1-19.6C161.8,17.1,162.3,17.1,162.6,17.1z"/>
		<path class="st139" d="M171.6,29.3c-0.5-1.3,0.2-2.9-1-4.1c-0.2-2.7-0.3-5.4-0.5-8.1c0.2-0.6,0.3-1.2,0.8-2.9
			C172.4,19.8,172.4,24.5,171.6,29.3z"/>
		<path class="st140" d="M159.3,37c-1.6-6.2-0.5-12.6-0.7-18.8c0.2,0,0.4,0,0.6,0c0.1,1,0.3,2.1,0.4,3.1c0.7,4.8,0.1,9.6,0.3,14.3
			C160.1,36.2,159.8,36.7,159.3,37z"/>
		<path class="st141" d="M191.8,24.2c1.7,5.6,0.5,11.4,0.7,17.1l-0.4-0.1l-0.4,0.1c0-0.4-0.1-0.8-0.1-1.2
			C191.5,34.7,191.6,29.4,191.8,24.2z"/>
		<path class="st142" d="M286.3,44.2c8,0,16,0,24,0c1.6,2.4,4,1.9,6.3,1.8c1.7-0.1,3.6-0.1,4.2,1.8c0.6,2.1,0.9,4.4-2,5.3
			c-16.2,0.6-32.3,0.7-48.4,0.1c-3.1-0.5-3.5-3.1-4.1-5.5c-0.6-2.3-0.1-3.1,2.7-3C274.8,45.1,280.6,45.5,286.3,44.2z"/>
		<path class="st143" d="M286.3,44.2c-0.6,0.8-1.4,2.4-1.6,2.3c-5.8-2.4-11.9,1-18.7-1.4c2,2.5,2,4.7,2.3,6.9
			c-0.9,1.1-2.3,1.5-3.6,1.4c-6.5-0.2-12.8,1.5-19.3,1.1c-2-0.2-5.2,2.2-5.2-2.4c0.8-1.1,2.4-1.2,3.2-2.3c0.5-0.7,0.7-1.6,0-2.2
			c-1.1-1-1.7,0-2.3,0.8c-1,2.3-2.1,3.8-4.5,1.2c-3.4-3.7-8.3-1.4-12.3-2.6c-2.4-1.5-6.2,1-7.7-2.7
			C239.9,44.2,263.1,44.2,286.3,44.2z"/>
		<path class="st144" d="M320.3,52c0.2-5-2.2-5.7-6.6-4.3c-2.3,0.7-4.3-0.3-3.5-3.4c12,0,24.1,0,36.1,0c0.8,2.5,3,3.8,5,5.2
			c0.7,0.5,2.2,0.8,1.2,2.1c-0.4,0.5-1.5,0.4-2.3,0.5c-8.6,2.1-17.3,1.4-25.9,1.4C323,53.5,321.5,53.2,320.3,52z"/>
		<path class="st145" d="M214.4,38.2c0-0.4,0.1-0.8,0.1-1.1c1,0,2,0,2.9,0c2,0.1,3.9-0.3,5.8-1c3.9-1.6,7.7-2.3,10.9,1.5
			c1.2,1.4,3,1.1,4.7,1.1c5.7,0.1,11.3,0,17,0c0.9,0,1.8,0,2.7,0c2.6-0.3-0.6-2.6,1.1-3.2c1.1-0.6,2.2-0.6,3.4-0.2
			c1.9,1.2,3.6,2.9,6,0.5c3.7-3.8,3.8-3.8,7.5,0.8c0.2,0.4,0.3,0.9,0.3,1.4c-0.7,3.7-4.1,2.9-6.4,3.9c-12.2,0.1-24.4,0.2-36.6,0.3
			c-1.3,0-2.4-0.1-3.5-1.2c-1.9-2-5.2-1.9-6.8-0.6c-2.9,2.3-5.8,1.6-8.9,1.5C214.5,40.7,214.4,39.4,214.4,38.2z"/>
		<path class="st146" d="M270.5,41.9c-0.2-0.7-0.5-2.1,0.5-1.7c2.9,1.3,3.9-1.1,5.6-2.2c2.1-0.2,4.1-1,6.2-1.1
			c1.6,2.5,3.6,1.3,5.6,0.5c0.4-0.1,0.9-0.2,1.3-0.2c0.5,0,0.9,0.1,1.4,0.2c1.2,0.4,2.1,0,3-1c0.9-1.2,2.2-1.5,3.4-0.5
			c3.6,2.8,7.8,2.8,12,3c0.6,0,1.3-0.1,1.9,0c2.8,0.7,2.4-1,2-2.6c0.8-1.9,3.3-0.7,4.2-2.4c2.6-1,3.6,0.6,4.2,2.6
			c0.4,0.3-1.8,2,0.8,1.3c1.9-0.6,3,0.1,1.8,2.2c0.3,0.6,0.7,1.2,1,1.7C307,41.9,288.8,41.9,270.5,41.9z"/>
		<path class="st54" d="M216.5,44.2c2.3,2.1,5.7-0.5,7.9,1.8c-1.9,1.9-4.3,1.5-6.5,1.5c-10.6,0-21.1,0.2-31.7-0.1
			c-3.9-0.1-7.1,0.8-9.5,4c-0.4,0.4-0.9,0.7-1.4,0.9c-2.3-0.5-2.4-2.5-2.9-4.2c1-3.1,3.1-4.2,6.4-4c7.6,0.3,15.2,0.2,22.7,0.2
			c4.3,0.6,8.6,0.6,12.9,0C215.1,44.2,215.9,44.2,216.5,44.2z"/>
		<path class="st3" d="M172.4,48c2,0.7,2.1,2.4,2.1,4.1c1.2,1.7,0.7,3-1.1,3.9c-2-0.7-4.6-0.3-5.1-3.2c0.4-0.8,0.8-1.6,1.2-2.5
			C170.6,49.6,171.4,48.8,172.4,48z"/>
		<path class="st147" d="M169.3,46.9c-1.9,0-3.6-0.1-5-1.9c-0.8-1.1-2.4-1-3.7-0.1c-1.6,1.1-1.7,1-2-1.7c3.6,0,7.2,0,10.8,0
			C169.4,44.4,169.4,45.6,169.3,46.9z"/>
		<path class="st12" d="M184.3,37.9c0.1-6.6,0.3-13.2,0.4-19.8c1.5,7.7,0.6,15.4,0.7,23.1c-0.3-0.1-0.6-0.1-1-0.2
			C183.6,40,183.6,39,184.3,37.9z"/>
		<path class="st148" d="M184.3,37.9c0,1,0.1,2,0.1,3c-0.6,0.3-1.2,0.6-1.7,0.9c0-5.3,0-10.5,0.1-15.8
			C184.8,29.8,182.3,34.2,184.3,37.9z"/>
		<path class="st143" d="M214.4,44.2c-4.3,1.4-8.6,1.4-12.9,0C205.9,44.2,210.1,44.2,214.4,44.2z"/>
		<path class="st149" d="M324.5,40.2c-0.2-1-0.3-2.7-1.8-0.9c-0.6,0.7-0.7,2-2,1.3c-0.8-0.4-1.8-1-1.6-2.2c0.3-1.2,1.4-1.2,2.3-1.3
			c-0.6-2.5-1.8-5.2,2-6.3c2-0.6,1.7,3.3,3.7,2.1c1.8-1.1,4.8-1.8,3.6-5.1c0.2-0.4,0.5-0.8,0.9-1c1.6-0.3,3.3,0.2,4.9,0.1
			c0.5,0,0.9,0,1.4,0.1c1.1,0.3,2.6,0.3,2.5,1.8c-0.1,1.3-1.5,1.5-1.5,1.5c1.9-0.7,4.6-0.3,7,2.1c3.4,3.5,7.5,5.3,12.4,3.8
			c1.1,0,2.1,0.6,3.1,0.9c1.8-1.1,3.6-2.2,5.4-3.2c-2.5,5.6-10.7,8.8-16.9,6.2c-3.6-1.5-7.5-1.2-11.1-2.8c-0.9-0.4-2-0.2-2.6-1.6
			c3.3-1.1,5.8,1.5,9.3,1.9c-0.7-4.2-4.8-3.6-6.4-3.7c-2.4-0.1-7-0.9-6.6,4.3l0,0C329,35.6,327.5,40.7,324.5,40.2z"/>
		<path class="st96" d="M361.5,37c-0.7,1.2-1.4,0.1-2.1,0c-2.6-1.5-5.3,1.6-8.3-0.9c-3.3-2.7-5.7-5.7-7.5-9.5
			c-0.1-0.2-0.1-0.4-0.2-0.7c1.9-1.4,2.1-4.6,5.1-4.9c-0.2,1.4-0.4,2.8-0.6,4.7c1.9-1.5,3.7-1.8,5.6-1.7c0.1,0.2,0.2,0.4,0.3,0.6
			c0.2,2.3,1.5,4,3.2,5.4c1.8,1.5,2.6,0.4,3-1.4c3.9-0.9,4.8,0.5,3.5,5.4C362.1,34.6,361.5,35.6,361.5,37z"/>
		<path class="st149" d="M363.5,34.1c0-1.6,0.1-3.3-0.9-4.7c-1.2-1.6-1.8-0.9-2.1,0.6c-3.3,0.2-3.8-0.7-2.1-4.3
			c2.3-2.7,6-0.4,8.4-2.4c0.2,0,0.5-0.1,0.7-0.1c0.5,0.6,1.1,1.1,1.6,1.7C365,26.6,366.8,31.8,363.5,34.1z"/>
		<path class="st150" d="M357.5,20.2c2.3,2.8,4.6-0.9,6.9,0c0,2.1,2.4,1.6,3.1,2.9l0,0c-3,2.3-6.6,0.7-9.9,1.3
			c-0.8,0.1-1.6-1.1-1.2-2.2C356.8,21.5,357,20.8,357.5,20.2z"/>
		<path class="st149" d="M332.5,38.1c1.7,1.2,3.5,0.3,5.7-0.2C334.8,41.4,334.8,41.4,332.5,38.1L332.5,38.1z"/>
		<path class="st151" d="M175.4,51.9c1.6-4.2,4.5-6,9.2-6c13.3,0.2,26.6,0.1,39.9,0c2.3,0,4.6,0.1,7,0c3.3-0.2,5.8,0.9,7.3,4.5
			c0.6-1.4,1-2.5,1.5-3.6c1.8,1.3,2,3.1,1.3,5.1c-0.6,0.4-1,1-0.5,1.5c1.2,1.2,2.3-0.3,3.5-0.4c1.7,2.3,5.4,3.1,5.2,6.9
			c-1.1,1.4-2.4,2.3-4.2,2.3c-2-2.4-3.3,0.9-5.1,0.7c0-1,0.2-2-0.1-2.9c-0.6-1.7,3.1-3.2,0.5-4.5c-2-1.1-2.7,1.9-4.3,2.5
			c-0.5-0.2-0.9-0.5-1.1-1c-0.6-1.2-0.9-2.4-1-3.8c-0.4-2-1.9-2.7-3.6-2.7c-11.5,0.2-22.9-0.6-34.4,0.4c-0.4,0-0.8,0-1.2,0
			c-3.9-1.6-8.4,0.2-12-2.5c-3.3-0.4-4.4,3.5-7.4,3.8C175.8,52.2,175.5,52.1,175.4,51.9z"/>
		<path class="st152" d="M234.6,65.1c-3.9,4.5-3.3,10.9-6.7,15.7c-1,1.4-0.7,3-2.6,1c-0.8-0.8-0.8-1.7-0.6-2.7
			c0.3-1.2,0.6-2.3,0.8-3.5c0.6-1.8,0.6-3.8,1-5.6c2.5-4.3,3.2-9.1,2.9-14c5.3-1.4,6.7,0.1,6.1,6.1C235.1,63.1,236,64.4,234.6,65.1z
			"/>
		<path class="st153" d="M245.4,62c1.3-0.6,2.2-2.1,3.9-2.1c0.4-0.3,0.8-0.3,1.2,0c-0.4,2.4-1.4,4.9,1.2,6.9c-0.8,2-2.8,2.9-4.1,4.5
			c-0.7,0.3-1.4,0.3-2-0.2c-0.3-1.8,1.3-3.4,0.4-5.3c-1.8,1.3-1.5,3.5-2.5,5.2c-1,2.6-2.1,5.2-2.7,8c-0.6,1.3,0,3-1.4,4
			c-3.6-1,0.2-3.5-1-5c0.3-4.3,1.6-8.4,3.2-12.3C242.4,63.9,243.4,62.4,245.4,62z"/>
		<path class="st154" d="M239.4,83c0.3-1.4-0.5-3,1-4.1c0.4-0.4,0.7-0.4,1,0.1c0.7,4.1-2.1,8.1-0.3,12.3c-3.5,1.1-2.8,7-7.6,6.7
			c0.8-3.7,1.3-7.6,4.4-10.5C238.9,86.5,238.9,84.5,239.4,83z"/>
		<path class="st155" d="M245.4,62c-4.2,4.5-4.5,10.7-7,15.9c-1.6-3.9,0.2-7.5,1-11.2c0.3-1.2,1-2.4,1-3.7c1.7-0.7,0-4,2.8-3.8
			C244.9,59.4,245.4,60.7,245.4,62z"/>
		<path class="st156" d="M235.5,62.1c-0.5-5.6-1.5-6.5-6-5.2c-1,1-2.1,0.9-3.2,0.2c-0.5-0.8-0.5-1.7,0.1-2.5c3.8-1.1,7.4-1.8,10,2.3
			c0.1,0.4,0.2,0.7,0.2,1.1C236.1,59.4,237.4,61.2,235.5,62.1z"/>
		<path class="st157" d="M250.4,60c-0.3,0-0.7,0-1,0c-0.9-2.8-4.9-3.4-4.8-6.8c8-0.4,15.9-0.8,23.9-1.2c17.3,0,34.6,0,51.9,0
			c10,0,20,0.1,29.9,0.1c-8,4.2-16.8,2.9-25.3,4c-2.2,0.3-4.6-0.8-6.6,0.9c-1.7,0-3.3,0-5,0c-2.6-1.7-5.3-2.2-8.3-0.7
			c-2.5,1.2-5.4,1.1-8.2,1.5c-8.6-0.7-17.1-0.4-25.7-0.1C264,55.4,257.1,57.3,250.4,60z"/>
		<path class="st158" d="M284.3,93.1c3-0.1,6-0.3,9-0.4c0.4,1.6-1,2.1-1.8,3c-3,0.1-6.1,0.1-9.1,0.2
			C281.8,94.1,283.3,93.8,284.3,93.1z"/>
		<path class="st159" d="M316,66.1c-1.5,0.3-2.9,1.1-4.3,0c-0.1-0.1,0.1-1,0.4-1.2C314,63.4,315,65.1,316,66.1z"/>
		<path class="st160" d="M269.5,90c0.7,1,1.4,1.9,2.1,2.9c-0.6,1.5-1.8,2.2-3.1,2.9c-4.6,0-9.3,0.1-13.9,0.1
			c0.4-2.3-1.5-3.6-2.7-4.9c-2-2-2.2-3.8-0.5-5.9c0.4,0.2,0.7,0.5,0.9,0.8c0.4,0.9,0.6,2,1.5,2.7c2.4,1.5,4.8,3,7.8,3.2
			c1.6,0.2,2.9-0.5,4.1-1.4C266.8,89.7,268,88.8,269.5,90z"/>
		<path class="st76" d="M268.5,95.8c0.8-1.2,1.2-2.9,3.1-2.9c4.3,0.1,8.6,0.2,12.8,0.2c-0.6,0.9-1.3,1.8-1.9,2.7
			C277.8,95.9,273.1,95.9,268.5,95.8z"/>
		<path class="st161" d="M245.6,71.1c0.6,0,1.2,0,1.8-0.1c0.7-0.6,1.4-1,2.3-1.2c2.7-0.2,5.4-0.5,7.3,2.1c0.7,1.4,0.7,2.9,0.2,4.4
			c-3.3,4.6-7.5,2.4-11.6,1.5C245.6,75.6,245.6,73.4,245.6,71.1z"/>
		<path class="st162" d="M245.6,77.9c3.6-0.5,7.6,1.1,10.8-1.8c0.6-0.3,1.1-0.2,1.5,0.3c1.5,3.4,1.8,7,2.1,10.7
			c0.3,3.8-1.3,4.6-4.5,2.7c-1.8-1.5-0.7-4-2-5.6c-0.7-0.4-1.5-0.3-2.3-0.2c-1.1-2.7-2-5.5-5.8-5.2c0,0-0.1-0.3-0.1-0.4
			C245.4,78.1,245.5,78,245.6,77.9z"/>
		<path class="st163" d="M251.3,83.9c0.3-1.7,1.5-1.9,3-1.8c1.3,1.6,1.2,3.6,0,4.9c-0.9,1-2.1,0-2.7-1.1c-0.1-0.3-0.1-0.6-0.3-0.8
			C251.3,84.7,251.3,84.3,251.3,83.9z"/>
		<path class="st73" d="M241.4,78.9c-0.3,0-0.7,0-1-0.1c0.4-2.9,0.9-5.7,3.1-7.9C243.9,73.9,241.9,76.2,241.4,78.9z"/>
		<path class="st63" d="M301.5,59c-1-0.6-2-1.3-3-1.9c4.7-0.5,8.8-5,14.2-2.1c1.3,0.7,1.1,1.2,0.8,2.1c-1.6,0.6-0.7,8.4-5,1.6
			C307.8,57.7,303.8,58.8,301.5,59z"/>
		<path class="st164" d="M256.5,40.1c-5.9,0-11.9,0.1-17.8,0c-2.6,0-4.7,0.4-6.8-2.9c-2.3-3.4-7.3-1-10,1.1
			c-2.9,2.2-3.2,0.3-4.3-1.2c1.2-2-0.8-5.2,3-6.4c1.1-0.4-0.5-2.8-1.4-4.1c-2-3,1.2-0.8,1.4-1.5c0.7,0.7,1.4,1.3,2,2
			c0.6,0.9,1.4,1.8,1.6,2.9c0.8,3.3,2.5,2.2,4.3,1.1c0.8,0,1.5,0,2.3,0c2.7,2.1,5.4,2.7,8.4,0.7c1.7,0.6,6.3-1.8,3.5,3.4
			c-0.3,1.1-0.3,2,1.2,1.8c3.1-0.3,6.1,0.5,9.1,0.2C254.9,37.4,256.8,37.5,256.5,40.1z"/>
		<path class="st165" d="M241.5,35.1c0.5-0.8,1-1.6,1.4-2.3c-0.8-2.2-2.9,3-3.4-0.8c-0.2-1.5,0.8-2.2,1.9-2.9c1.6-1,0.3-2,0-3
			c0.3-0.3,0.7-0.7,1-1c0.5-0.6,1.2-0.6,1.8-0.2c0.7,0.4,0.9,1.3,1.5,2c2.2,2.4,4.2,5.1,5.7,8C248.1,36.3,244.9,35.1,241.5,35.1z"/>
		<path class="st166" d="M241.4,29.1c-0.6,1-1.3,1.9-1.9,2.9c-3.4,4-6.3,3.4-8.8-1c0.2,0,0.3,0.1,0.5,0.1c2.8-2.3,6-2.1,9.3-2
			C240.9,29.1,241.1,29.1,241.4,29.1z"/>
		<path class="st117" d="M240.5,29.1c-3,1.1-6,2.1-9.3,2c0.4-1.9,0.6-3.9-1.2-5.8C232.9,29,237.4,27.3,240.5,29.1z"/>
		<path class="st136" d="M228.5,31.1c-0.9,1.5-2.2,2.8-4.2,4.1c0.6-3.3-2.1-5.2-1.7-8.1c0.7,0.3,1.3,0.6,2,0.9
			c1.1,0.9,2.2,1.8,2.9,3C227.9,31.1,228.1,31.1,228.5,31.1z"/>
		<path class="st71" d="M227.4,31.1c-2,0-2.9-1.1-2.9-3c0-1.3,0.6-2,2-2c-0.1,0.5-0.2,0.9-0.3,1.4C231.6,26.9,228.3,29.5,227.4,31.1
			z"/>
		<path class="st167" d="M241.5,35.1c3-0.9,6-3.1,9.5,0c-4.9-2-4.4-7.9-8.5-9.9c1.4-1.8,2.5-3.7,4.1-5.2c0.9-0.9,0.7-1.7,1-2.6
			c0.7-0.4,1.3-0.9,2-1.3c0.3,0.4,0.5,0.8,0.8,1.1c0.7,1.9,2.5,2.1,4.1,2.7c0.3,0.3,0.6,0.7,0.7,1.1c-1.8,3.7-1.8,6.9,2.1,9.3
			c0.9,0.6,1.6,2.3,0.9,3.1c-2,2.2,0,2.2,1.2,2.7c0.7,1.2,3.1,1.2,2.6,3.1c-0.3,1.1-1.6,0.7-2.5,0.8c-2.2-1.2-4-3.4-6.9-1.9
			c-3.4,0-6.7,0.2-10.1-0.1C240.4,37.9,242,36,241.5,35.1z"/>
		<path class="st168" d="M254.4,20.1c-3.6,0.4-4.5-0.2-4.1-3c4.4,0.4,8.8-0.7,13.1,0.9c0,0.7,0,1.4,0,2.1c-0.1,2.6-2.1,1.9-3.5,1.8
			C258,21.7,256.3,20.9,254.4,20.1z"/>
		<path class="st169" d="M254.4,20.1c3-2,6,2.7,9,0c0.3,0.1,0.7,0.1,1,0.1c1.4,2.6,1.3,2.7-2.6,3.4c1.1,0.6,2.5,0.3,3.6,1
			c1.9,2,0.5,3.9-0.3,5.9c-0.6,0.3,0.8,0.6,0.3,0.2c-0.1-0.1-0.1-0.2,0.1-0.3c1.2-0.7,4-0.7,1.4-3.2c-0.6-0.6-0.2-1.5,0.3-2.3
			c1.1-0.8,2.2-0.7,3.3-0.1c1.1,0.6,1.3,1.7,1.6,2.8c-0.2-1.8,0.8-2.3,2.3-2.5c1.9-0.7,3.7-2.2,6-1.1c4.8,0,7,2.1,7.5,7.5
			c-3.7,1.5-7.4,0.5-11.1,0.5c1,1.7,2.4,3.5-0.3,5.1c-2.6,0.3-2.8-2.2-3.7-3.9c-5,6.5-6.4,6.9-9.3,2.9
			C258.3,32,256.5,25.9,254.4,20.1L254.4,20.1z"/>
		<path class="st170" d="M309.5,40c-4.6,0-9.4,0.8-12.8-3.6c-0.7-0.9-1.9-0.2-2.1,1c-0.8,4.4-2.6,1.7-4.1,0.6
			c0.5-1.7-0.4-3.9,1.8-5.2c1.4-0.8-0.4-1.5-0.5-2.2c-0.5-2.5-2.4-4.2-3.3-6.5c0.5-0.8,1-1.6,2-1.9c1.3,2.5,5.7,0.9,6,4.7
			c0.2,2.5-0.5,5.2,0.5,7.7c2.6-0.4,1.8-3,3.1-4.1c0.8,2.1,2.1,3.4,4.6,3.5c2.6,0.1,6.2-0.7,4.7,4.2C310,38.8,310,39.4,309.5,40z"/>
		<path class="st171" d="M288.3,24.1c4,1.4,3.4,6.3,6.3,8.6c0.1,0.1-0.1,0.9-0.1,0.9c-3.4-0.4-1.8,3.9-4.2,4.4c-0.3,0-0.6,0-0.8,0
			c-1.6-1.4-1.2-3.6-2-5.3c0-0.2,0-0.4,0-0.6c-0.6-4.2-2.9-7-7-8.1C283.1,19.8,285.8,23.9,288.3,24.1z"/>
		<path class="st168" d="M274.5,25.1c-3,0.9,0.7,4.8-1.9,4.9c-2.4,0.2,0-4.1-2.7-4.6c-0.8-0.2-1.6-0.2-2.4-0.2
			c-0.7,0.1-1.4,0.1-2.1,0c-2-0.4-4-0.8-6.2-1.3c1.6-1.8,6.1,1.2,5.2-3.7c0.4-0.6,1.2-1.1,1.5-0.4c2.6,5.1,2-0.2,3.2-1.1
			C270.1,21.5,274,21.7,274.5,25.1z"/>
		<path class="st150" d="M300.5,23.1c2.5,0.8,5.5,1,4.8,5.5c-1.7-1.8-2.9-3.7-5.5-3.6c-1.3,0-0.5-1.2-0.3-1.9
			C299.8,23.1,300.1,23.1,300.5,23.1z"/>
		<path class="st96" d="M337.5,28.1c-0.3,0-0.7,0-1,0c-1.6-0.5-3.1-2.1-5-1l0,0c-0.7,0.6-1.2,1.4-2,1.9c-1,0.6-3,0.9-2.9,0
			c0.3-3.7-2.9-7.3-0.1-10.9c0-0.3,0-0.5,0.1-0.8c2.9-2,5.8,0.2,8.7,0.4c1.3,0.1,2.9,0.2,4.3,0.5c1.7,2.4,0,6.6,4,7.9l0.1,0.1
			c0.6,0.5,1.5,1,0.9,1.9c-0.6,1-1.7,1-2.6,0.5C340.3,27.7,339,26.6,337.5,28.1z"/>
		<path class="st70" d="M356.3,22.1c3.4,3.1,7.4,0.5,11.1,1c-1.1,2-2.4,3.5-5.1,2.2c-1-0.5-2.3-0.4-3,0.8c-2,0.3-4.5,1.6-4.8-2.1
			c0-0.8,0.3-1.4,0.8-1.9C355.6,22.1,356,22.1,356.3,22.1z"/>
		<path class="st172" d="M344.5,17.4c0.6,0,1.3,0,1.9,0c0.8,1.2,4.9,0.6,2,3.7C347.5,19.4,344.6,19.8,344.5,17.4z"/>
		<path class="st173" d="M355.3,22.1c0,0.6,0,1.3,0,1.9c-0.6,0.7-1.3,0.7-2,0.1l0,0c0.5-1.9-2.3-1.4-2.3-3
			C353.1,19.3,354,21.8,355.3,22.1z"/>
		<path class="st174" d="M326.5,18.1c-1,3.4,1.3,6.6,0.7,10.1c-0.2,1.4,1.4-0.1,2.2-0.1c1.5,1.7,0.7,2.9-0.8,4.1
			c-2.3,1.8-3.3-1.1-5.1-1.2c-1.7,1.7-1.9,3.9-2.1,6.1c-0.9-1.6-1.9-2.9-3.9-3.1c0.7-1.1,1.4-2.2,2-3.3c0.2-0.4,0.4-1,0.2-1.4
			c-0.5-1.4-0.1-5.6,1.3-6.7C323,21.2,322.3,16.9,326.5,18.1z"/>
		<path class="st71" d="M312.3,34.5c-1.5-0.8-0.1-4-3.1-3c-2,0.7-2.3-1-2.2-2.3c0.1-2,0.6-4.2,2.9-4.6c1.4-0.3,3.3-1.1,4.2,1.1
			C315.5,29,315.3,31.9,312.3,34.5z"/>
		<path class="st79" d="M309.5,40c0-0.6,0-1.3,0-1.9c1.6,0.2,2.5-1.5,3.9-1.7c-0.2,1.7,2.4,1.6,2.3,3.6C313.5,40,311.5,40,309.5,40z
			"/>
		<path class="st163" d="M157.8,37.9c0.7,0,1.4,0,1.6-0.9l0.2,0.1c0.3-0.4,0.7-0.5,1,0c0.4,0.7,1,1,1.9,0.8c1.4,0,2.9,0.7,4.2-0.3
			c1.7,0.8,0.7,2.3,1,3.5c-3.9,0-7.9,0.1-11.8,0.1C155.6,39.6,156.3,38.5,157.8,37.9z"/>
		<path class="st151" d="M173.4,56c0.8-1.2,1.2-2.5,1.1-3.9c0.3,0,0.5-0.1,0.8-0.2l0.3,0.2c1,1.1,1.5,2.3,0.9,3.8
			c-1.7,6-3.4,12-5.1,18.3c-1.2-1-2.1-1.7-3-2.5c0.4-0.6,0.8-1.2,1.1-1.8C171.9,65.7,173.3,61,173.4,56z"/>
		<path class="st175" d="M176.5,56c-0.9-1.1-1.1-2.4-0.9-3.8c2.5-1.9,3.8-5.4,7.7-5.1c0.9,1.1,2.4,2.1,1,3.8c-2.9,0.6-4.3,3-5.9,5.1
			C177.9,56,177.3,56,176.5,56z"/>
		<path class="st176" d="M160.3,161.6c10.9,0.5,21.6,3.3,32.6,2.4c-7,3.2-14.5,0.3-21.5,2.5c-6.2,0-12.5,0-18.7,0.1
			c-1-1.1-1.2-2.5-1.2-4c0.7-1,1.4-2,2.9-1.6c1.4,0.1,2.7-0.4,4.1-0.3C159.1,160.9,159.8,161.1,160.3,161.6z"/>
		<path class="st177" d="M172.5,93c0-0.4,0-0.7,0-1.1c0-1.6,0.6-3.1,0.8-4.6s0.2-3.9,2.8-3.8c2.4,0.9,3.2,2.7,2.1,5
			c-0.9,1.9-0.4,3.8-0.2,5.7c-3,2.7-2.1,6.1-2.4,9.6c-0.3,4.5-1.1,9-0.2,13.5c0,1.3-0.2,2.4-1.5,3.1c-1.6,0.3-2.6-0.9-3.9-1.5
			c-0.6-0.4-1.1-0.8-1.6-1.3c-3.3-1.9-2-4.5-1.1-7.2C169.3,104.6,169.3,98.3,172.5,93z"/>
		<path class="st178" d="M158.6,161.7c-1.4-0.6-3.2,2.3-4.2-0.6c0.2-2.3,0-4.7,3.1-5.5c1.4-0.4,1-1.9,0.9-3
			c-1.9-1.6-2.5-3.4-1.1-5.6c1.7-2.6,0.6-6.2,3.2-8.5c4.6-0.6,5.1-0.1,4.2,4.1c-0.4,1.9-0.6,3.7,0.7,5.2c2,2.4,2.2,5.1,1.9,8
			c-0.2,1-0.7,1.8-1.6,2.2C162.4,157.5,160.3,159.2,158.6,161.7z"/>
		<path class="st179" d="M236.5,57c-3-2.7-6.6-2.1-10.1-1.8c-0.5,0.4-1.1,0.7-1.7,0.9c-11.4,0.6-22.8,0.2-34.2,0.2
			c-1.5,0-3-0.1-4-1.5c4.7-0.2,9.1-3.9,14.1-1.1c1.6,0.9,3.1-1.1,4.6-1.3c4-0.5,8.2-1.4,12.1,0.7c1.6,0.9,3.5,1.3,4.8,0.6
			c3.8-2.2,7.7-0.6,11.6-0.8c1.1-0.4,1.6,0.2,1.9,1.1C235.8,55.1,236.1,56.1,236.5,57z"/>
		<path class="st180" d="M172.5,93c-0.2,4.1-2.9,7.7-1.9,12.2c0.2,0.8-1.4,4.9-2.6,6.6c-2.2,3.2,1.3,3.4,1.5,5
			c-1.8,1-3.2,2.3-2.6,4.7c0.5,2.2-0.4,3.8-2.4,4.9c-0.5,0.1-1,0.1-1.4-0.1c-1-0.7-1.2-1.5-0.6-2.5c2.4-9.1,4.9-18.2,7-27.4
			C169.9,94.4,171.1,93.8,172.5,93z"/>
		<path class="st156" d="M186.4,54.9c13,0.1,26.1,0.2,39.1,0.4c-1.5,3.2-4.4,2.1-6.9,2.3c-10.7,0.6-21.3-0.3-32,0
			c-2.1,1.7-3.5,4.3-5.9,5.7c-0.5,0.1-0.9,0-1.3-0.2C180.4,59.1,181.4,55.3,186.4,54.9z"/>
		<path class="st181" d="M162.4,123.8c0.1,0.8,0.2,1.7,1.1,2.1c0.8,1.6,0.8,3.3,0.5,5c-0.5,1.3,0.3,2.6-0.1,3.9
			c-0.8,1.6-2.4,2.6-3.4,4.1c-0.8,3,0,6.4-2.9,8.8c-1.9,1.6,1,3.2,0.6,4.9c-2.8,0.2-3.1-1.7-2.6-3.6
			C157.8,140.6,160.1,132.2,162.4,123.8z"/>
		<path class="st182" d="M179.5,63c0.3,0,0.6,0,0.9,0c2,1.4,2,3.2,1.1,5.1c-1.3,2.8-2.5,5.6-0.5,8.6c0,0.5-0.1,0.9-0.4,1.3
			c-3.6,0.2-3.2,2.6-2.7,5.1c-0.3,0.7-0.6,1.3-1.5,0.9c-2.6,0.7-2.9,2.9-2.3,4.8c0.5,1.9-1.2,2-1.6,3c-1-4.7,1.1-8.9,2.3-13.3
			C176.3,73.4,177.9,68.2,179.5,63z"/>
		<path class="st183" d="M235.4,54.2c-0.6-0.4-1.2-0.8-1.9-1.1c-1.1-2.3-3.2-1.9-5.2-1.9c-10.6,0-21.1-0.1-31.7-0.1
			c1-1.2,2.4-0.9,3.7-0.9c10.3,0,20.5-0.1,30.8,0C233.6,50.1,236.6,50,235.4,54.2z"/>
		<path class="st183" d="M184.4,51c-0.3-1.3-0.7-2.6-1-3.9c3.2,1.3,6.1,3.4,9.9,2.1c0.9-0.3,1.7,0.8,2.1,1.7
			C191.8,51,188.1,51,184.4,51z"/>
		<path class="st184" d="M165.6,157.8c0.3-0.7,0.6-1.5,0.9-2.2c3.8-1.6,6.3-6.4,11.4-4.6c5.7,3.9,12.5,4.5,18.8,6.7
			c0.6,0.2,1.9,0.6,1.6-1.3c-0.5-3,1.2-5.5,2.1-8.2c0.7-2.1,2.5-3,4.6-3.1c0.5,0.1,0.9,0.3,1.2,0.7c-0.1,0.6-0.1,1.2-0.2,1.9
			c-1.8,2.6-2,5.7-2.8,8.7c-1.5,5.5-4.9,7.3-10.2,5.2c-3.2-1.2-6.4-2.5-9.6-3.8c-5.8-1.2-11.5-0.8-17.2,0.3
			C166.1,158.1,165.8,158,165.6,157.8z"/>
		<path class="st185" d="M158.6,161.7c1.7-5.9,2.1-6.2,7-3.9l0,0c0.3,0.2,0.4,0.4,0.3,0.6c-0.1,0.2-0.2,0.3-0.3,0.3
			c-1.7,0.9-3.9,1.2-5.2,2.9C159.8,161.7,159.1,161.7,158.6,161.7z"/>
		<path class="st178" d="M165.6,158.8c0-0.3,0-0.6,0-1c6-0.9,12-2.3,18,0.1C177.4,158,171.4,157.4,165.6,158.8z"/>
		<path class="st186" d="M224.4,82.9c0.1,0.4,0.1,0.7,0.2,1.1c0.6,1,0.4,1.7-0.6,2.2c-4.4,1.5-2.3,4.5-1.7,7.1
			c0.3,1.4,0.4,2.8-1.1,3.7s-2.1-3.4-3.9-0.7c-0.3,0.1-0.8,0.4-0.9,0.2c-2.8-2.9-7.2-1.9-10.2-4.3c-2.5-1.5,0.3-2.7,0.3-4.1
			c-1.3-2.4,0.8-3.6,1.9-5.1c0.7-0.7,1.5-0.9,2.2-0.4c3.6,2.3,5,0.3,5.8-2.9c0.5-0.4,1.2-0.3,1.8-0.5c-0.6-0.4-1.4-0.3-2.1-0.6
			c-1.6-1-3.1-2.1-4-3.8c-1-3.3,3.9-4.5,3-7.8c0-1.5,1.1-2.5,2-3.5c1.2-1.2,2.6-2.1,4.4-2c2.3,1.3,3.5,3.4,4.6,5.7
			c0.1,1.1,0.1,2.2,0.2,3.3c-0.3,2.7-4.2,4.5-2.1,7.8C224.4,79.9,223.6,81.5,224.4,82.9z"/>
		<path class="st187" d="M215.4,115.7c-0.3,0.4-0.7,0.9-1,1.3c-1.2,1.3-1.1,3.7-3.5,3.9c-0.7,0.1-1.3,0-2-0.1
			c-0.8-0.2-1.6-0.6-2.4-0.7c-1.5,0.3-2.5,1.5-3.8,2.2c-1.4,0.5-2.9,0.6-3.9,1.8c-0.7,0.9-2.6-1.1-2.8,2.1c-0.3,4.2-3.1,1-4.8,0.2
			c-2.8-3.3-4.3-7.3-5.3-11.4c0.3-1.3,1.1-2.1,2.3-2.5c2-0.3,4.6,0.7,5.3-2.4c4.2,1.7,9.6-2.3,13.1,3.9c1.1-3.2,0.4-6.4,3.5-7.4
			c2.8-0.3,4.8,1.3,6.9,2.7C218.1,111.6,217.1,113.7,215.4,115.7z"/>
		<path class="st152" d="M215.4,115.7c-0.1-2.3,1.8-4.3,1-6.6c-0.4-0.7-0.6-1.4-0.4-2.2c2.3-2.9,1-7.5,4.6-9.7
			c1.1-1.2,0.7-2.8,0.9-4.2c0.2-2.4-1-5.3,2.2-6.8c0.3-0.7,0.6-1.4,1-2.1c3.1,2,2.1,5,1.4,7.6c-1.1,4.6-2.7,9.2-3.8,13.8
			s-4.1,8.4-5.3,13C215,118.1,215.8,116.6,215.4,115.7z"/>
		<path class="st188" d="M210.4,132.8c-0.7,0.5-1.2,1.1-1.3,2c-0.5,0.6-1.1,0.9-1.9,1c-1.8-0.1-3.5-0.3-2.8-2.8
			c0.7-1.4,0.3-3,0.7-4.4c0.7-1.1,1.1-2.3,1.7-3.5c0.9-1,2.3-1.1,3.5-1.6c1-0.1,1.6,0.5,2,1.4C211.9,127.5,211.1,130.2,210.4,132.8z
			"/>
		<path class="st189" d="M212.4,124.9c-0.6-0.4-1.3-0.7-1.9-1.1c-1.4-0.9-2.6-2-2-3.9c0.6,0,1.2,0,1.8,0c1,0.7,2.5,0.4,3,1.9
			C213.6,123,212.9,123.9,212.4,124.9z"/>
		<path class="st190" d="M224.4,82.9c-2-0.9-2.1-2.3-0.8-3.9c0.3-0.8,0.1-2.1,1.4-2c1.3,0.2,0.8,1.3,0.6,2.2
			c-0.1,0.9-0.2,1.7-0.3,2.6C225,82.2,224.8,82.5,224.4,82.9z"/>
		<path class="st191" d="M213.4,121.8c-1.1-0.5-2.4-0.7-3-1.9c2.4,0.5,1.8-3.2,4-3C214.9,118.7,213.4,120.1,213.4,121.8z"/>
		<path class="st192" d="M207.4,134.9c0.6,0,1.2,0,1.8,0c-0.1,3.9-1.7,7.4-2.9,11.1c-0.3,0-0.5,0-0.8-0.1c-1.6-1-3.3-1.8-4.9-2.7
			c-0.6-1.7-0.7-3.3,0.7-4.7c1-0.7,2.1-1.2,3-2C205.3,135.8,206.6,136,207.4,134.9z"/>
		<path class="st140" d="M179.5,40c0-5.6-0.1-11.2-0.1-16.7c0-1.7-0.6-3.6,0.9-5.1c0,0.3,0.1,0.6,0.2,0.9c0.3,7,0.8,14-0.3,20.9
			l-0.4,0.2L179.5,40z"/>
		<path class="st193" d="M180.4,40.1c0.1-7,0.2-14,0.3-20.9C182,26.1,182.1,33.1,180.4,40.1z"/>
		<path class="st194" d="M160.6,37.1c-0.3,0-0.7,0-1,0c0.1-5.3,0.1-10.6,0.2-15.8C161.3,26.4,160.1,31.8,160.6,37.1z"/>
		<path class="st195" d="M241.5,52c-1.2-1.5-1.2-3.3-1.3-5.1c1-1.6,2.3-2.2,4.1-1.2c1.6,0.9,1.4,2.4,1.2,3.9
			C245.1,52,243.4,52.2,241.5,52z"/>
		<path class="st168" d="M254.4,20.1c0.4,0.3,1.1,0.4,1.2,0.8c1.8,5.5,5.1,10.2,7.8,15.2c-1.4,0-2.7,0.1-4.1,0.1
			c-1.7-0.1-3.4-0.2-5.9-0.3c3.3-1.6,6.2-2.8,2.2-5.6c-3.6-2.5-5.5-5.1-1.4-8.7C254.5,21.3,254.4,20.6,254.4,20.1z"/>
		<path class="st196" d="M276.5,37.1c2.2-2.6-1.4-4.5-0.8-6.9c3.8,1.4,8.2-0.3,11.8,2l0,0c0.4,0.8-0.1,1.2-0.7,1.6
			c-1.3,0.6-3.1,0.4-3.6,2.3c-0.2,0.4-0.4,0.7-0.8,1c-1.7,1.7-3.6,2.8-5.9,1.1C276.5,37.8,276.5,37.4,276.5,37.1z"/>
		<path class="st135" d="M252.4,38.1c3-1.7,5.4-1.5,6.9,1.9c-1,0-2,0-2.9,0C255.8,38.3,254.1,38,252.4,38.1z"/>
		<path class="st197" d="M282.3,37c0.1-0.3,0.2-0.5,0.2-0.8c1.4-0.9,2.9-0.4,4.4-0.6c1.1,0.4,2.1,1,1.6,2.4
			C286.1,39.4,283.5,42.6,282.3,37z"/>
		<path class="st169" d="M288.5,38.1c-0.7-0.7-1.4-1.3-2.1-2c-2.3-1-0.7-1.9,0-2.8c0.3-0.4,0.6-0.8,0.9-1.2c2.8,1.3,1.8,3.9,2.1,6
			C289.1,38.1,288.8,38.1,288.5,38.1z"/>
		<path class="st198" d="M337.5,28.1c1.1-2.4,2.5-1.9,4.2-0.6c1.6,1.2,2.5,0.7,1.8-1.4c2.7-0.2,3.4,3.1,3.7,3.9
			c2.3,5.1,5.7,6.9,11,6.2c0.3,0,0.8,0.5,1.2,0.8c-5.9,2.1-10.7,0.4-14.6-4.2c-2.5-2.9-5.7-1-8.7-1.5c0.6-1.9,3.3-0.9,3.2-3
			C339.3,28.2,338,28.2,337.5,28.1z"/>
		<path class="st199" d="M323.5,30.9c0.4-0.5,1-1.5,1.4-1c3.5,4.1,4.2,1.7,4.4-1.8c0.4-0.9,1.2-1.1,2.1-1c-0.4,2,1,3.4,1.4,5.8
			c-4.1-1.9-5.4,1.3-7,5C324.8,34.7,325.5,32.3,323.5,30.9z"/>
		<path class="st198" d="M331.5,27.1c0.3-1.2-0.7-4.1,2.2-1.6c1,0.8,1.8,1.7,2.8,2.6C334.6,28.3,333,28,331.5,27.1z"/>
		<path class="st145" d="M353.5,24.1c0.7,0,1.3,0,2-0.1c0,3.2,2.9,0.8,3.9,2.1c-1.2,1.7-2.2,3.4,1.1,3.8c0.5,1.2,1,2.2-1.1,2.2
			C355.6,32.2,352.6,28.1,353.5,24.1z"/>
		<path class="st200" d="M225.5,70c-1.1-0.6-1.1-1.3,0-2c2.5-3.1-2.2-4.3-1.8-6.9c0.1-1.2,0.5-2.3,1-3.3c0.4-0.6,0.9-1.1,1.7-0.9
			c1,0,2.1,0.1,3.1,0.1c2.7,4.9,0.5,9-2.1,13.1c-0.2,0.3-0.6,0.5-0.9,0.5C226,70.5,225.8,70.3,225.5,70z"/>
		<path class="st201" d="M225.5,70c0.3,0,0.7,0,1,0c1.5,2-1.1,3.9-0.1,5.9c0.2,1.2,0.2,2.3-0.7,3.3c-0.2-0.5-0.5-1-0.7-1.5
			c-0.4,0.4-0.9,0.9-1.3,1.3c-2.5-1.6-2.5-3.3-0.5-5.5C224,72.5,225.6,71.8,225.5,70z"/>
		<path class="st202" d="M226.4,75.9c-3.7-2.1,1.5-3.9,0.1-5.9c0.3,0,0.6,0,0.9,0C227.9,72.1,227.4,74.1,226.4,75.9z"/>
		<path class="st203" d="M270.6,57.3c-1.4,2.9-2.7,5.8-4.1,8.8c-1.1,1-2.6,1.3-3.7,2.4c-0.5,0.4-1.1,0.8-1.8,0.8
			c-1.4-0.2-2.2-1.4-3.2-2.3c-1.4-1.3-1.9-0.2-2.6,0.7c-1.6,1-3.1,1.8-4.1-0.6c-5.3-1.8-3.5-4.4-0.9-7.1
			C256,54.8,264.8,53.6,270.6,57.3z"/>
		<path class="st204" d="M251.4,67.2c1.4,1.4,2.8,0.6,4.1-0.2c2.3-1.1,3.2,0.5,4.1,2.2c0.8,1.6,1.4,3.3,2.5,4.8
			c1,2.1,0.5,4.5,1.2,6.7c0.1,0.8,0.1,1.5,0,2.3c-0.3,1-0.8,1.8-1.6,2.4c-3.8-2-2.3-6.3-4-9.2h-0.5h-0.5c-0.1-1.3-0.1-2.6-0.2-3.8
			c-1.6-3.9-4.3-2-6.8-1.2c-0.7,0-1.4,0.1-2.1,0.1C247.4,68.5,249.5,68,251.4,67.2z"/>
		<path class="st205" d="M226.4,56.9c-0.3,0.3-0.7,0.7-1,1c-1.9,2.2-5,1.6-7.1,3.2c-0.4,0.3-0.9,0.4-1.4,0.6
			c-9.8,2.8-18.7-2.5-28.2-2.8c-1.2-0.3-2.4-0.9-3.2-1.9c5-2,10-0.3,15-0.6c8.3-0.4,16.7,0.7,25-1.2c0.3-0.1,0.5-0.1,0.8,0
			C226.4,55.8,226.4,56.3,226.4,56.9z"/>
		<path class="st206" d="M262.5,83c-0.1-0.6-0.1-1.3-0.2-1.9c-0.5-1.6-0.2-3.2-0.3-4.7c-0.1-3.3,1.4-3,3.4-1.4c0.4,5.3,2,10.2,4,15
			c-1.2,0.3-2.4,0.6-3.7,0.9C262.1,89.3,262.5,86.1,262.5,83z"/>
		<path class="st68" d="M265.5,75c-1.5-0.1-3.3-1-3,1.9c0.1,1.4-0.1,2.8-0.1,4.3c-1.5-2.2-0.4-4.8-0.9-7.2c-1-1.7-1.3-3.3,0.1-4.9
			c0.3-0.3,0.7-0.7,1-1c1.3-0.7,2.6-0.6,3.9,0C266,70.3,265.8,72.6,265.5,75z"/>
		<path class="st207" d="M266.4,68c-1.3,1.2-2.6,1-3.9,0c0.5-2.7,2.6-1.7,4.2-1.9C266.5,66.7,266.5,67.4,266.4,68z"/>
		<path class="st208" d="M257.5,76c0-0.2,0-0.3,0.1-0.5c0.2-0.5,0.8-0.9,0.8-0.3c0.3,3.5,1.4,6.7,3.1,9.7c2.7,2.5,2.3,5.1,0.1,7.7
			c-3.7,0.3-6.4-1.8-9.2-3.7c0.9-2,1-2,3.2-0.1c2.6,1.3,4.3,2,3.2-2.3C257.8,83.2,257.9,79.6,257.5,76z"/>
		<path class="st209" d="M261.5,92.7c0.1-2.6,1.5-5.2-0.1-7.7c0.1-0.8,0.2-1.6,1-2c1.1,2.6,2.2,5.3,3.3,7.9
			C265.4,93.9,263.1,92.7,261.5,92.7z"/>
		<path class="st78" d="M255.5,88.9c-1.1-0.2-2.2-1.5-3.2,0.1c-1.1-0.8-0.9-2-0.8-3.1c5.3,1.9,2.6-2,2.7-3.8
			C256.9,84,254.9,86.7,255.5,88.9z"/>
		<path class="st170" d="M249.5,71c1.7-2.8,4.2-2.3,6.6-1.5c1.2,0.4,1.6,1.7,0.2,2.7C254.3,70.4,251.8,71.5,249.5,71z"/>
		<path class="st206" d="M265.5,25.1c0.7-1.1,1.4-1,2.1,0c0.2,0.8-0.6,2.2,1,2.3c3.1,0.2-0.2,3.2,1.7,3.8c-1.7,2.1-2.3-0.7-3.7-0.9
			c-1.2,1,1.2,2.2-0.3,3.5C262.5,31.3,265.9,28,265.5,25.1z"/>
		<path class="st210" d="M188.5,112.9c-0.7,0.7-1.3,1.4-2,2.1c-3.4,1.6-7.3,1.3-10.6,3.2c-0.4,0.2-0.9-0.8-1.3-1.3
			c-0.2-3.6-2.7-7.3,0.3-10.9c1.5-1.8-1.6-2.7-0.9-4.4l3.6-7.7c2.7-1.4,3.7,0.2,4.5,2.4c-0.7,2.9,2.2,4.2,2.9,6.5
			c0,1.9-1.4,2.7-2.8,3.6c-1.2,0.7-1,1.4-0.2,2.3c1.4,1.8,3.6,1.4,5.5,1.9C188.4,111.1,188.9,111.8,188.5,112.9z"/>
		<path class="st211" d="M181.6,96.7c-1-1.5-1.9-3.1-4.1-2.8c-1.3-1.5-2.2-2.8-0.7-4.9c1.1-1.5,1.6-3.5-0.4-5c0.3-0.3,0.7-0.7,1-1
			c1.5-0.8,1.6-3.1,3.7-3.4c1.6,0.5,3.2,1.1,4.9,1.1c2.3,2,0.9,6.1,4.2,7.6c2.8,2.5,0.1,6.2,1.9,8.9c0.1,2.1,0.5,4.2-0.7,6.1
			C187.1,102.6,184.3,99.9,181.6,96.7z"/>
		<path class="st212" d="M174.5,116.9c0.6,0.2,1.6,0.8,1.8,0.7c2.8-3.4,6.4-3.5,10.2-2.7c2.7,3.2,3.1,7.4,5,11
			c-2.3,1.1-4.7,1.1-7.1,0.3c-1.6-0.6-3.1-0.9-4.7,0c-2.1,0.1-3.2-1.7-4.8-2.5c-1.1-1-2-2.1-1.4-3.7
			C174.9,119.2,174.4,118,174.5,116.9z"/>
		<path class="st213" d="M173.5,120c0.7,1,1.4,2,2.1,3c0.8,1.4,1.2,2.8-0.3,4.1c-2.1-0.8-1.9,1.3-2.8,2.1c-1.7,0.8-3.3,0.1-5-0.3
			c-0.4-0.2-0.9-0.4-1.2-0.7c-0.7-4.3,2.3-7,4.1-10.2C172.1,117.7,172.4,119.4,173.5,120z"/>
		<path class="st214" d="M170.6,117.9c1.8,2.9-1.7,3.9-2.2,6c-0.3,1.2-1.7,2.3-1.6,3.9c-1.9,0.6-2-0.9-2.4-2.1
			c0.7-1.4,2.5-2,1.3-4.5c-1-2.3-0.5-5.7,3.9-4.4C169.8,117.2,170.1,117.6,170.6,117.9z"/>
		<path class="st215" d="M164.3,125.8c0.8,0.7,1.6,1.4,2.4,2.1c0.3,0,0.6,0.1,0.9,0.1c1.3,2.9,3.3,5.4,4.5,8.3
			c-1.5,1.2,0.7,1.1,0.7,1.8c0,0.5-0.1,0.9-0.4,1.2c-1.6,3.7-0.5,7,2.9,8.4c0.9,0.6,1.9,1,2.9,1.5c0.4,0.2,0.7,0.6,0.8,1
			s0.1,0.9-0.1,1.3c-0.1,0.2-0.3,0.3-0.4,0.5c-2.4,0.1-4.9-0.8-6.7,2.2c-0.7,1.2-3.2,2.1-5.3,1.4c-0.6-3.1-0.6-6.2-3.2-8.7
			c-0.8-0.8-0.8-3.5-0.1-4.6c3.1-4.5-0.9-3-2.7-3.5c-0.4-2.4,0.9-3.5,3.1-4c2.4-1.5-1.3-2.7-0.1-4.1c-0.1-1.6-1.3-3.2,0.1-4.8
			C163.8,125.8,164.1,125.8,164.3,125.8z"/>
		<path class="st216" d="M185.5,57c1.1-0.1,2.3-0.4,3.1,0.8c3.5,5,1,12.8-5,15.8c-0.7-0.1-1.3-0.5-1.8-1.1c-0.8-1.4-2.3-2.6-1.2-4.5
			c1.5-1.7,0.1-3.4-0.1-5.1C182.1,61,183.9,59,185.5,57z"/>
		<path class="st217" d="M163.4,130.8c0.7,0.8,1.5,1.6,2.2,2.5c0.5,0.6,1,1.6,0.2,2.1c-0.5,0.3-1.5-0.3-2.2-0.5
			C165.1,133.5,159.3,132.3,163.4,130.8z"/>
		<path class="st218" d="M180.5,68.1c-0.2,1.8,1.7,2.6,1.9,4.2c-0.2,2.5,2.1,3,3.5,4.1c1.9,1.4,2.8,2.8-0.2,3.9
			c-2.3-0.2-3.8-1.8-5.2-3.3C176.4,74,179.1,71.1,180.5,68.1z"/>
		<path class="st218" d="M181.5,80c-0.9,0.5-1.8,1.1-1.7,2.2c0.3,3.4-1.5,0.6-2.3,0.8c-2.7-1.8-0.9-4.5-0.4-6.1
			c0.5-1.7,2.1,0.9,3.4,1.1C181.4,78.4,181.9,78.9,181.5,80z"/>
		<path class="st219" d="M181.5,80c-0.3-0.7-0.7-1.3-1-2c0-0.3,0-0.6,0-1c2.4-0.2,3.3,2.1,5,3c-0.1,0.4,0,0.7,0.1,1.1
			C183.9,82.6,182.5,81.7,181.5,80z"/>
		<path class="st220" d="M200.5,142.9c2.5-0.4,4.2,0.5,4.9,3c-3.1,1.2-5.6,2.7-4.2,6.7c0.5,1.3-0.2,1.7-1.5,1.6
			c-1.1-0.1-1.5,1.4-0.9,1.6c6,2.1-2.8,2.4-0.5,3.9c-2,2-2.2-0.5-3.2-1.2c-0.9-0.6-2.3-1.7-3-1.4c-5.6,2.1-8.7-3.4-13.4-4.2
			c-0.1,0-0.2-0.6-0.3-0.9v-0.3c1-0.8,1.9-1.7,3.1-2.3c0.6-0.2,1.2-0.3,2.1,0.5c-1.3-1.5-3-0.6-4.2-1.5c-1.1-0.9-2.1-1.8-2.4-3.3
			c0.1-1,0.5-1.8,1.3-2.5c0.4-0.2,0.9-0.3,1.4-0.3c1.9,0.2,3.3,1.5,4.9,2.3c2.1,1,4.6,4,5.9,3C193.6,145.1,198.1,146.2,200.5,142.9z
			"/>
		<path class="st221" d="M185.8,81.1c-0.6-0.3-0.9-0.6-0.1-1.1c2.5-0.9,0.9-1.8,0-2.8c-0.5-1.5-3.5-1.8-2-4.2
			c5.9-3.7,4.9-9.6,5.1-15.2c5.6,0.6,11.2,0.5,16.6,3c2,0.9,4.8,1.9,7.2-0.5c1.6-1.6,3.3,0.8,5.1,0.6c0.3,1-0.1,2,0.1,3
			c0.2,1.6-1.4,2.1-2.1,3.2c-2,1.5-4,3.2-6.3,4.5c0.5,1.6,2.8,1.6,3.1,3.3c1.5,1.1,3,2.2,4.4,3.3c0.3,0.5,0.3,1-0.2,1.5
			c1.5,2.5-0.1,4.1-1.9,5.4c-1.8,1.4-3.1,0-4.2-1.2c-0.7-0.7-1.3-0.9-2,0c-2.3-0.2-4.6-0.3-5.1,2.8c0.9,2.1,1.2,4.3,0,6.4
			c-0.2,0.4-0.5,0.7-0.8,1c-1.5-0.3-3-0.8-4.6-0.4c-2.1-0.8-4.7-1.1-5-4.2c0.5-1.4,1.9-1.8,2.7-2.7c0.5-0.6,1-1.2,1.2-2.1
			c-0.1-1-0.9-1.9-1-2.9c-0.4-1,0.4-1.9-0.1-3c-1.7,1.1-0.6,2.2,0,3.3c0.2,0.9,0.6,1.7,0,2.6c-1,1.7-4.2-0.1-4.5,2.8
			c-0.3,0.9-0.6,1.7-1.7,1.6C185.9,87.6,186.6,83.9,185.8,81.1z"/>
		<path class="st222" d="M202.5,93.9c0-0.4,0-0.7,0-1.1c1.1-1.2,2.8,0.2,3.9-0.9c4,0.4,7.7,1.8,11,4c0.8,3.8-1.9,4.6-4.7,5.3
			c-2.3-1.9-4.2-0.7-6.1,0.8c-1.1,0.8-1.9,2.6-3.7,1.5c-1.5-0.9-1.2-2.5-1.3-4C201.6,97.7,201.9,95.8,202.5,93.9z"/>
		<path class="st223" d="M212.5,100.8c2.2-1,4.2-2.3,4.9-4.9c0.3-0.9-0.9-2.5,0-2.5c2,0,2.9,1.7,3.1,3.7c-1.8,3.1-0.7,7.4-3.9,10
			c-4.1,0.6-3.8-2.8-4.6-5.1C212,101.5,212.3,101.1,212.5,100.8z"/>
		<path class="st224" d="M212.4,74.9c-1.4-1.6-5.2-0.4-5.1-2.6c0.1-2.5,3.5-3.2,5.4-4.8c0.6-0.5,1.9-0.4,2.8-0.6
			c0.9,0.6,1.8,1.3,3.4,2.4C214.9,69.8,213.6,72.4,212.4,74.9z"/>
		<path class="st225" d="M202.5,86.9c-1.9-3.1,2.9-3.1,2.6-5.4c1.8-0.1,1.8,2.3,3.4,2.5c0.6,0.3,0.9,1.4,0.6,1.4
			c-3.4-0.1-1.6,2.2-1.7,3.5C204.9,90.5,204.1,87.7,202.5,86.9z"/>
		<path class="st201" d="M224.4,61c0,1.4,1.1,1.9,2,2.6c2.5,2,2.1,3.5-1,4.4c-1.3-2-2.7-4-4-5.9c-0.3-0.5-0.3-0.9,0.1-1.4
			C222.6,60.2,223.5,60.2,224.4,61z"/>
		<path class="st226" d="M202.5,86.9c2-0.2,2.7,2.6,4.8,2c1.4,1.6-3.6,1.2-1,3.1c-0.5,3.8-2.7,0.4-3.9,0.9
			C203.5,90.9,203.1,88.9,202.5,86.9z"/>
		<path class="st227" d="M223.6,86.2c-0.7,2.3-1.5,4.5-2.2,6.8c-2.8-2.9-1.1-5.8,0.6-8.2C222.9,83.5,223.3,85.4,223.6,86.2z"/>
		<path class="st228" d="M221.4,61.1c0,0.3,0,0.7,0,1c-1.3,0.6-2.6,1.2-3.9,1.8c-1.8-0.9-1.2-1.9-0.1-3c0.1-0.3,0.2-0.5,0.3-0.8
			C219.4,59,220.5,59.4,221.4,61.1z"/>
		<path class="st229" d="M216.6,79.7c0.1-0.5,0.1-1,0.2-1.5c1.6,0.7,5,0.8,4,2.9C219.9,83.1,218.4,79.4,216.6,79.7z"/>
		<path class="st230" d="M200.5,142.9c0,2.8-1.2,4.4-4.3,3.7c-0.9-0.2-2-1.1-2.5,0.3c-1.7,4.7-3.7,2.5-6.2,0.7s-5.4-3.2-8.1-4.7
			c-0.4-1.2,0.7-2.5-0.2-3.8c-3-4.4-1.4-8.8,0.3-13.2c0.8-1.4,1-4,3.6-1.5c2.4,2.3,5.7,0.1,8.4,1.4c1.2,0.4,2.4,0.8,3.9,1.4
			c-0.6-2.8-0.6-5.2,3.2-4.6c2.5,0,4.1,2,6.2,3c0.7,1,1.4,2,0.7,3.3c0.5,1.3,1.8,2.5,0.1,3.9c-1.5,0.5-2.1,1.8-2.8,3
			c-1.3,0.6-0.9,2-1.4,2.9C201.1,140.2,200.9,141.5,200.5,142.9z"/>
		<path class="st231" d="M212.5,100.8c0,0.4,0,0.8,0,1.3c1.8,3.4-1.7,3.3-3,4.6c-0.6,2.8-1.2,5.6-1.9,8.5c-1.7-1.2-3.6-2.5-5.3-3.9
			c-0.9-0.7-1.8-1.2-2.6-0.4c-2.7,2.9-4.3-0.1-6.3-1c-0.7-0.1-1.2-0.5-1.6-1.2c-0.4-0.8-0.5-1.7-0.5-2.6c-0.1-1.1-0.1-2.1,0.1-3.2
			c-0.9-2,0-4,0-5.9c0.1-0.2,0.2-0.4,0.3-0.6c1.4-1.4,2.7-0.3,4,0.2c1.9,0.7,1.7-0.8,1.9-1.8c0.1-0.7,0.3-1.3,0.9-1.8
			c1.5-0.5,2.9-0.3,4,1c1.8,2.9-0.3,6.1,0.9,9.5c2.1-1.8,4-3.6,6.4-4.7C212.6,97.4,212.4,99.1,212.5,100.8z"/>
		<path class="st232" d="M205.5,129c-0.4-1.1-0.7-2.3-1.1-3.4c-0.9-1.1-2.3-1.9-1.9-3.6c1-1.5,1.3-4.1,4.2-3c0.5,2,2.6,3.6,1,5.9
			C207.3,126.4,208.4,128.7,205.5,129z"/>
		<path class="st233" d="M192.4,108.9c0.3,0.3,0.7,0.7,1,1c0.9,4.7,0.9,4.7-5,3c-0.3-0.7-0.7-1.4-1-2.1
			C187.8,106.9,188.8,106.5,192.4,108.9z"/>
		<path class="st234" d="M209.5,106.7c-1-2.8,4.3-1.6,3-4.6c2.4,0.8,0.5,5.2,4.1,5c-0.1,0.6-0.2,1.3-0.3,1.9
			C213.5,109.7,212.1,106.5,209.5,106.7z"/>
		<path class="st178" d="M207.6,124.9c1.1-2.2-3.1-3.6-1-5.9c0.8,0,1.4,0.2,1.8,0.9c0.4,1.4,2.2,2.2,2,3.9
			C209.9,125.3,209,125.8,207.6,124.9z"/>
		<path class="st235" d="M202.5,122c0.9,1.1,2.4,1.8,1.9,3.6c-2.8,0.7-4-1.6-5.8-2.9C199.5,120.3,201.3,122.4,202.5,122z"/>
		<path class="st236" d="M202.6,135.9c-0.7-2.6,0.8-3.2,3-3.1c-1.3,2.3,0.5,1.9,1.8,2.1c0,2.1-1.4,2-2.9,2
			C203.4,137.5,203,136.8,202.6,135.9z"/>
		<path class="st237" d="M202.6,135.9c0.6,0.3,1.2,0.6,1.9,1c0.1,2.4-1.5,2-3,1.9c-0.2-1.2-2.4-1.8-1.5-3.2
			C200.8,134.5,201.8,135.8,202.6,135.9z"/>
		<path class="st146" d="M286.5,33.2c0.2,1-1.2,1.9,0,2.8c-1.2,1.7-2.6,0.6-3.9,0.2C280.3,30.6,285,34,286.5,33.2z"/>
		<path class="st238" d="M221.4,61.1c-1.1-0.8-2.3-1.4-3.7-0.9c2.2-1.8,4.9-2.1,7.7-2.2c0.2,1.2-0.4,2.1-0.9,3.1
			C223.4,61,222.4,61.1,221.4,61.1z"/>
		<path class="st239" d="M261.5,69c0,1.6-0.1,3.3-0.1,4.9c-2.4,0-2-2.2-2.5-3.5c-0.7-1.7-1.2-3.3-3.4-3.5c0.3-0.8-0.6-2.7,1.6-1.8
			C258.9,65.9,260.1,67.5,261.5,69z"/>
		<path class="st228" d="M191.5,102.9c1.2,0.8,1,2,1,3.2c-2.3,1.1-4.1-0.3-6.1-1.1c-0.9-0.5-1.4-1.2-1.9-2.1
			c-0.8-2.2-6.1-2.3-2.9-6.3C185.4,97.9,187.9,101.4,191.5,102.9z"/>
		<path class="st240" d="M186.5,104c2,0.7,3.9,1.4,5.9,2.1c0,0.9,0,1.9,0,2.8c-2-0.4-4.5-1.8-5,1.9c-2.3,0.4-4.9,1.5-6-1.9
			C181.9,105.9,184.9,105.7,186.5,104z"/>
		<path class="st241" d="M186.5,104c-0.1,3.3-3.6,3-5.1,4.9c-1.4-0.8-4.1-1.3-0.6-3.1c1.4-0.7,3-1.2,3.7-2.9
			C185.1,103.3,185.9,103.6,186.5,104z"/>
		<path class="st242" d="M198.5,93c0,0.6,0,1.3-0.1,1.9c-1.1,1.4-2.4,0.4-3.5,0.1c-1.9-0.5-2.7,0.5-3.2,2h-0.2
			c-1.3-1.2-2.9-2.6-1.2-4.3c1.7-1.8-0.5-2.4-0.7-3.6c0.4-0.7,0.8-1.4,1.1-2.1c1.6-0.3,2.4,0.6,2.8,2C193.9,92,196.9,91.7,198.5,93z
			"/>
		<path class="st243" d="M185.4,92.9c-4,2.1-4-2.7-6.5-3.2C182,89.2,183.3,92,185.4,92.9L185.4,92.9z"/>
		<path class="st242" d="M185.5,93c-0.3-1.2-0.5-2.4-1-4.4c2,1.4,4.4,1.4,4.2,3.6C188.5,94.4,186.6,92.8,185.5,93
			C185.4,92.9,185.5,93,185.5,93z"/>
		<path class="st244" d="M179.5,125.9c1.7,1.6,0.1,3.2-0.2,4.5c-1,3.5-1,6.3,1.9,8.9c2.9,2.7-1.6,2.2-1.8,3.6c-0.3,0-0.6,0-0.9,0
			c-2,0.4-2.1-1.6-3.2-2.4c-0.8-0.9-1.3-2-2.3-2.7c-0.4-0.4-1.2-0.3-1.4-1c-1.9-2.7-4.9-4.8-4.1-8.8c1.6,0.3,3.2,0.6,4.8,0.9
			c0.7-0.6,1.1-1.5,2-1.8c1.6-1,1-2.7,1.2-4.1C176.9,124,178.3,124.9,179.5,125.9z"/>
		<path class="st245" d="M174.4,127.1c-0.4,0.9-1.1,1.5-2,1.8C172.9,128,171.9,125.6,174.4,127.1z"/>
		<path class="st246" d="M177.5,145.1c0.8,0.8,2.2,1.3,2,2.8c0.6,0.6,0.6,1.3,0.2,1.9c-0.4,0.3-0.8,0.3-1.2,0l0,0
			c-0.9-0.8-2-1-3.1-1.1c-0.8-0.5-1.6-1.1-2.7-0.8c-0.6,0.1-1.3,0.3-1.9,0.2c-0.6-0.1-1.2-1.3-0.8-1.4c4.9-1.4-5.1-7.6,2.6-7.9
			c0.2,0.2,0.3,0.3,0.5,0.5C173.4,142.1,176.8,142.6,177.5,145.1z"/>
		<path class="st247" d="M178.5,149.8c0.3,0,0.6,0,0.9,0c0.7-0.6,1.4-0.5,2.1,0c0,2.1-1.2,2.4-2.9,1.9
			C178.5,151.1,178.5,150.4,178.5,149.8z"/>
		<path class="st248" d="M173.6,137c1.4,0.5,2,1.4,1.6,2.8c-1.4,1.1-2,0-2.6-1l0,0c0-0.3,0-0.6,0-0.9
			C172.6,137.3,173.3,137.2,173.6,137z"/>
		<path class="st249" d="M175.4,148.8c1.8-1.8,2.4-0.2,3.1,1.1C177.4,149.9,176.1,150,175.4,148.8z"/>
		<path class="st230" d="M173.6,137c-0.4,0.3-0.7,0.6-1.1,0.9c-0.5-0.2-2.1,0.4-0.9-1.2C172.4,136.8,172.9,136.9,173.6,137z"/>
		<path class="st250" d="M183.4,73c-0.2,1.8,2.7,2.2,2,4.2c-1.8-0.3-2.8-1.7-4-2.7c-1.5-1.3-0.4-1.9,0.9-2.2
			C182.8,72.5,183.1,72.8,183.4,73z"/>
		<path class="st230" d="M172.5,138.8c0.9,0.3,1.8,0.6,2.6,1c2.3-0.2,2,2.2,3.3,3.1c0,0.9-0.2,1.7-1,2.2
			C174.9,143.7,171.4,143.1,172.5,138.8z"/>
		<path class="st251" d="M181.4,149.8c-0.7,0-1.4,0-2.1,0c0-0.6,0.1-1.3,0.1-1.9c3.2-0.5,5.4,1.1,7.5,4
			C184.3,152.5,183.5,149.3,181.4,149.8z"/>
		<path class="st252" d="M193.5,89c-0.9-0.7-1.9-1.4-2.8-2c-0.5-3.3-0.5-3.3,4.8-2.1c0.2,0.1,0.4,0.2,0.6,0.3
			c0.5,0.5,0.8,1.1,0.4,1.8C196.4,89.1,194.9,88.9,193.5,89z"/>
		<path class="st253" d="M195.5,82c-0.9-0.2-2.7,0.2-2.5-0.7c0.4-1.5,0.7-3.4,2.3-4.4c0.9-0.6,1.5,0,2.1,0.6
			c1.5,1.4,0.4,2.2-0.5,3.2c-0.3,0.3-0.3,0.9-0.4,1.4C196.1,82.5,195.9,82.5,195.5,82z"/>
		<path class="st254" d="M197.4,72.6c-0.9-0.1-1.5,0-1.7-0.2c-1-1.3-3.2-1.2-3.4-3.2c0-0.3,0.7-1,0.9-0.9
			C195.3,68.9,196.8,70.1,197.4,72.6z"/>
		<path class="st255" d="M214.4,82.1c-1.3-1.6-2.6-3.3-4.1-5.2c2.5,0.8,3.9,2.4,5.3,4C215.3,81.3,214.8,81.7,214.4,82.1z"/>
		<path class="st256" d="M195.5,82c0.3,0,0.6,0,0.9,0c0.7,1,2.3,1.6,1.9,3.3c-0.9,0-1.9,0-2.8,0V85C195.5,83.9,195.5,82.9,195.5,82z
			"/>
		<path class="st257" d="M195.5,85.2c0.9-0.9,1.9-0.9,2.8,0c-0.5,0.7-0.8,1.6-1.9,1.8C196.1,86.4,195.9,85.8,195.5,85.2z"/>
		<path class="st258" d="M190.6,137c-0.9-0.1-1.6,0-2.1,0.8c-0.3,0.3-0.6,0.4-1,0c-0.2-1.5,0.5-3.4-1.7-4.1
			c-1.2-0.4-1.5-1.3-0.7-2.3c0.7-0.8,2.3-0.9,2.6-0.2c1,2.4,4.5,2.8,4.8,5.8C191.9,137.5,191.3,137.5,190.6,137z"/>
		<path class="st259" d="M190.6,137c0.6,0,1.2,0.1,1.8,0.1c0.4,0.5,0.8,1,1.3,1.5c0.7,0.7,2.6,0.9,1.1,2.4c-1.2,1.2-1.3-0.9-2.1-1.1
			C191.4,139.4,190.4,138.7,190.6,137z"/>
		<path class="st260" d="M187.5,139.9c-0.4-0.1-1.1-0.2-1.1-0.4c-0.1-0.8,0.7-0.5,1.2-0.7c0.7-0.5,1.3-0.5,1.9,0.2
			c0,0.3,0,0.6-0.1,1C188.9,140.4,188.1,140.4,187.5,139.9z"/>
		<path class="st261" d="M187.5,139.9c0.6,0,1.3,0,1.9,0.1C188.8,141.2,188.1,141,187.5,139.9z"/>
		<path class="st262" d="M189.5,139c-0.6-0.1-1.3-0.1-1.9-0.2c0-0.3,0-0.6,0-0.9c0.3,0,0.7,0,1,0C188.9,138.2,189.3,138.6,189.5,139
			z"/>
		<path class="st263" d="M191.8,97c0-7.9,4.4-1.7,6.7-2.1c0.7,1.3,0.7,2.6-0.4,3.5c-1.5,1.2-2.3-0.3-3.2-1.1
			C193.9,96.5,192.9,96.1,191.8,97z"/>
		<path class="st264" d="M202.4,106.5c1.8,0.5,3.5,1.1,4.3,4.5c-2.2-1.5-3.6-2.4-5-3.4C201.9,107.2,202.3,106.9,202.4,106.5z"/>
	</g>
</g>
</svg>
