<?xml version="1.0" encoding="utf-8"?>
<!-- Generator: Adobe Illustrator 25.0.0, SVG Export Plug-In . SVG Version: 6.00 Build 0)  -->
<svg version="1.1" id="Camada_1" xmlns="http://www.w3.org/2000/svg" xmlns:xlink="http://www.w3.org/1999/xlink" x="0px" y="0px"
	 viewBox="0 0 615 170" style="enable-background:new 0 0 615 170;" xml:space="preserve">
<style type="text/css">
	.st0{display:none;}
	.st1{fill:#30302C;}
	.st2{fill:#797979;}
	.st3{fill:#191918;}
	.st4{fill:#6A6A6A;}
	.st5{fill:#6B6B68;}
	.st6{fill:#F5F5F5;}
	.st7{fill:#999D98;}
	.st8{fill:#C7C9C9;}
	.st9{fill:#2F2F2B;}
	.st10{fill:#10100F;}
	.st11{fill:#21201E;}
	.st12{fill:#292825;}
	.st13{fill:#1B1B19;}
	.st14{fill:#282725;}
	.st15{fill:#918D7A;}
	.st16{fill:#211B18;}
	.st17{fill:#34332F;}
	.st18{fill:#131210;}
	.st19{fill:#505757;}
	.st20{fill:#2C2421;}
	.st21{fill:#4F5453;}
	.st22{fill:#1A1A18;}
	.st23{fill:#2B2D2B;}
	.st24{fill:#474740;}
	.st25{fill:#555247;}
	.st26{fill:#2C2C29;}
	.st27{fill:#262523;}
	.st28{fill:#120F0E;}
	.st29{fill:#454745;}
	.st30{fill:#0E0D0D;}
	.st31{fill:#2D2D29;}
	.st32{fill:#443530;}
	.st33{fill:#363938;}
	.st34{fill:#414342;}
	.st35{fill:#33332F;}
	.st36{fill:#070606;}
	.st37{fill:#0A0A09;}
	.st38{fill:#372E2A;}
	.st39{fill:#242422;}
	.st40{fill:#8B9290;}
	.st41{fill:#2F2623;}
	.st42{fill:#1F1917;}
	.st43{fill:#63655D;}
	.st44{fill:#7F8381;}
	.st45{fill:#999689;}
	.st46{fill:#1E1D1B;}
	.st47{fill:#757469;}
	.st48{fill:#463731;}
	.st49{fill:#2B221E;}
	.st50{fill:#5A5E5C;}
	.st51{fill:#181816;}
	.st52{fill:#100F0E;}
	.st53{fill:#2E2420;}
	.st54{fill:#55423B;}
	.st55{fill:#654F46;}
	.st56{fill:#45453F;}
	.st57{fill:#362A26;}
	.st58{fill:#332824;}
	.st59{fill:#261E1B;}
	.st60{fill:#0A0908;}
	.st61{fill:#322925;}
	.st62{fill:#352A25;}
	.st63{fill:#614C44;}
	.st64{fill:#191513;}
	.st65{fill:#3A2E2A;}
</style>
<g id="Camada_2_1_" class="st0">
</g>
<g id="Camada_1_1_">
	<g>
		<path class="st1" d="M278.4,167.8c0,0.7,0,1.3-0.1,2c-0.7,0-1.3,0-2,0c-1.7-1-3.6-0.5-5.3-0.5c-18.5,0-37.1,0-55.6,0
			c-2.2,0-4.3,0.1-6.4-0.6c-1.4-0.3-2.1-1.2-2.1-2.6c1.3-2.8,2.5-5.6,2.5-8.8c0-1.1,0.3-2.3,1.7-2.7c2.2,1.4,1.9,3.8,1.9,5.8
			c0,3.8,1.9,5.4,5.4,5.6c3.2,0.2,6.3,0.2,9.5,0.2c14.6-0.3,29.2,0.7,43.8-0.6C274.1,165.8,276.5,166.1,278.4,167.8z"/>
		<path class="st2" d="M208.6,167.8c2.7,0.9,5.5,1,8.3,1c18.5,0,37,0,55.5,0c1.3,0,3-0.9,3.9,1c-22.3,0-44.5,0-66.8,0
			C209,169.2,208,168.9,208.6,167.8z"/>
		<path class="st3" d="M408.9,28.4c-0.2,0.2-0.5,0.3-0.9,0.3c-3,0.7-5.3,0.3-5.4-3.5c-0.1-1.4,0-2.8,0.5-4.2c1-1.9,2.5-2.7,4.5-1.4
			c0.5,0.5,0.8,1.3,1.3,1.9C408.9,23.7,408.9,26,408.9,28.4z"/>
		<path class="st4" d="M399,0.5c0,0.3,0,0.7-0.1,1c-6.6,2.4-13.1,2.4-19.7,0c-0.1-0.4-0.1-0.7-0.2-1.1C385.7,0.5,392.3,0.5,399,0.5z
			"/>
		<path class="st5" d="M245.5,0.5c0.1,0.3,0.1,0.6,0,1c-2,2-4.6,1.4-6.9,1.4c-3.1-0.1-5.4,0.7-6.8,3.6c-0.5,0.4-1,0.3-1.4-0.1
			c0.1-1.9,0.1-3.9,0.2-5.8C235.5,0.5,240.5,0.5,245.5,0.5z"/>
		<path class="st6" d="M208.6,167.8c0.3,0.7,0.7,1.3,1,2c-3.4,0.8-4.6-0.6-4-4c0.3-1.9,0.1-4,0.1-6c0.5-0.3,1-0.3,1.4,0.1
			c1.5,1.9,0.2,4,0.5,6C207.8,166.6,208.2,167.2,208.6,167.8z"/>
		<path class="st7" d="M408.9,21.4c-0.4-0.3-0.7-0.6-1.1-1c-0.4-0.8-0.8-1.6-1-2.4c-0.3-2.6-0.8-5.2,1.1-7.5c0.4,0,0.7-0.1,1.1-0.1
			C408.9,14.1,408.9,17.7,408.9,21.4z"/>
		<path class="st8" d="M206.6,159.8c-0.3,0-0.7,0-1,0c0-3.3,0-6.6,0-10c0.4,0,0.7,0,1.1,0.1C208.7,153.2,208.7,156.5,206.6,159.8z"
			/>
		<path class="st9" d="M383.8,58.2c-1.9,8.2-3.9,16.4-5.8,24.6c-1.5,6.4-6.3,10.3-12.9,10.3c-16.6,0-33.1,0-49.7,0
			c-1.6,0-3.3,0.2-4.9,0.3c-0.2-0.2-0.3-0.3-0.5-0.5c0.4-2.9,3.8-5.5,0.5-8.6c-0.9-1.2-1.8-2.4-2.3-3.9c-0.1-2.6-1.6-5.6,1.9-7.2
			c4.2,11.4,13.6,13.7,24.2,13.7c9.4,0.1,18.8-0.3,28.2,0.3c4.8,0.3,8.6-3.1,9.7-8.7c1.2-6.3,2.4-12.6,3.7-19
			C378.2,55.9,380.8,55.6,383.8,58.2z"/>
		<path class="st10" d="M383.8,58.2c-2.4,0.1-5.2-2-7,1.4c-9.4-4.5-19.4-2.5-29.2-3c-3.6-0.2-5.3,1.3-5.3,4.8
			c-0.3,1.1-0.5,2.8-1.7,2.5c-2.1-0.5-1.3-2.6-1.5-4c-0.2,1.3,0.2,2.7-0.4,4c-2.4,2.6-3.7,1-4.5-1.3c-0.8-2.1-1.1-4.5-3.2-5.8
			c-6-1.2-11.5-0.5-16.1,3.9c-7.2,3.7-14,7.7-15.6,16.6c-0.2,1-0.8,1.8-1.9,2.1c-1.1,0.1-1.9-0.5-2.5-1.4c0.4-5.1,2-9.8,4.5-14.3
			c2-4.1,4.9-7.5,8.5-10.4c3.8-2.8,8.4-3.4,12.8-3.5c21.2-0.4,42.5-0.8,63.7,0c1.9,0.6,3.9,0.7,5.8,1.1c1.1,0.3,2.3,0.8,2,2.3
			c-0.2,1.3-1.4,1.1-2.3,1.2c-1.3,0.1-2.6-0.2-3.9,0.4C385.3,56.2,384.6,57.2,383.8,58.2z"/>
		<path class="st11" d="M295.3,78.1c0.7,0.3,1.3,0.7,2,1c1.9,2-0.1,4,0.1,6.5c3.5-3.2,6.8-6.4,11.9-4.5c1.3,0.6,2,1.6,2,3
			c1.7,2.4,1.2,4.6-0.7,6.6c-1.8,1.8-3.9,2.2-6.2,1.2c-1-0.4-2.1-0.9-3.2-1.2c-1.4-0.4-2.8-0.9-4.3-0.1c-0.9,0.5-2,1.7-0.8,2.1
			c5,1.9,1.9,6.3,3.2,9.2c-2.4,6.7-6,12.9-7.1,20c-2.8-0.8-3-1.1-2.7-4.1c0.2-2.4,1.4-4.6,0.7-7.2c-3.1,5.9-4.3,12.3-6.4,18.5
			c-0.7,2.1-1.1,4.2-2.7,5.8c-2.4,2.1-2.8,5.6-5.4,7.5c-1.9,1.4-3.5,4.6-6.1,2.5c-2.6-2.2-1.1-5,0.9-7.2c3.1-0.3,5.1-2,6.4-4.8
			c2-4,3.7-8.1,4.2-12.7c3.5-13.3,8.5-26.1,12.1-39.4C293.6,79.7,294.2,78.7,295.3,78.1z"/>
		<path class="st1" d="M287.2,138.9c-2.1,9.1-4.6,18.1-7.7,26.9c-2.4,2-5,0.5-7.5,0.3c-3.1-2.2-1-4.8-0.6-7.3
			c1.7-4.9,3.5-9.8,4.8-14.8c0.5-1.7,1-3.4,2.5-4.7C281.5,138.3,284.4,139,287.2,138.9z"/>
		<path class="st12" d="M287.2,138.9c-2.3,3.1-5.3,0.1-7.9,1c-1.7-2.3,0.3-4,1-6c3.2-5.6,3.9-12,6-17.9c0.7-2,1.2-4.1,2.1-6
			c0.5-1.1,1.2-2.7,2.8-2.1c1.5,0.6,1.2,2.3,1,3.5c-0.4,2.1-1.2,4.1-1.6,6.2c-0.3,1.7-1.2,3.7,1.5,4.4
			C290.5,127.6,288.9,133.3,287.2,138.9z"/>
		<path class="st13" d="M386,55.1c1.4-1.8,3.9-0.1,5.6-1.7c-1.8-2.3-5,0.1-6.6-2.1c0.3-0.4,0.7-0.9,1.1-0.8c5.7,0.1,8-3.1,8.1-8.4
			c2.2-2.3,4.9-4.4,3.8-8.2c1.1-0.7,2.4-0.8,3.7-0.7c1.4,0.2,2.5,0.8,3,2.2c2.2,2.2,2.8,9.2,1.2,11.5C401,53.9,393.5,54.4,386,55.1z
			"/>
		<path class="st14" d="M299.2,102c-1.3-1.1-2.4-2.3-1.9-4.2c0.6-2.3,1.2-4.5-2.6-3.1c-0.6,0.2-1.4-0.4-1.2-1.1
			c0.3-1.6,0.3-3.7,2-4.1c1.8-0.5,4.1-1.6,5.8,0.7c2.2,3.2,6,1.4,8.8,2.8c0.1,0.1,0.3,0.3,0.5,0.4C306.7,96.2,303,99.1,299.2,102z"
			/>
		<path class="st15" d="M404.8,35.4c-1-0.2-1.5-1.5-2.7-1.2c-0.4-0.3-0.7-0.7-1-1.1c-0.7-3.4-1.6-6.9,2.8-8.7
			c-0.6,3.3,1.1,4.4,4.2,4.2C403.8,29.4,404.8,32.6,404.8,35.4z"/>
		<path class="st16" d="M272.4,165.8c2.4,0,4.8,0,7.2,0c0.1,0.9,0,1.7-1.1,2c-2-0.3-4-0.7-6.1-1c-0.3-0.2-0.4-0.4-0.3-0.6
			C272.1,165.9,272.2,165.8,272.4,165.8z"/>
		<path class="st17" d="M221.5,11.3c2.2-2.4,4.6-4.4,8.1-4.7c1.8,1.6,4,1.4,6.1,1.4c5.9,0.1,11.9,0,17.8,0c6.7-0.2,13.2,1.2,19.8,2
			c10.2,1.1,20.5-0.5,30.7,0.8c3.1,0.4,7.7-0.8,7,5c-0.2,0.6-0.6,1-1.2,1.3c-8.9,1.6-17.9,0.3-26.8,0.8c-3.3,0.1-4.7,2.4-6.1,5
			c-2.1,3.7-4.9,6.6-9.8,5.5c-1.4-3.8,1.7-6.8,1.6-9.7c-0.7,3.1-2.3,6.7-2.5,10.7c-0.1,1.6-0.6,3.3-1.8,4.5c-1.2,1.2-2.6,1.6-4.1,1
			c-1.7-0.7-1.3-2.1-0.9-3.4c1.3-4.9,2-10,3.8-14.7c-1.8,4.3-2.2,8.9-3.6,13.3c-0.3,0.9-0.4,1.9-0.8,2.9c-0.8,1.8-2.2,2.5-4,2
			c-1.9-0.5-1.8-1.8-1.6-3.5c0.5-4.8,2.7-9.1,3.5-13.8c-0.8,4.7-2.9,9.1-3.7,13.8c-0.3,2.2-1.6,4.3-4.4,3.4
			c-2.5-0.8-1.6-2.7-1.2-4.6c0.9-4.2,2.2-8.2,3.2-12.3c-1.5,4.5-2.5,9.2-3.8,13.7c-0.6,2.1-1.5,3.9-4,3.2c-2.6-0.7-2.2-2.8-1.6-4.9
			c1.2-4.1,2.6-8.2,3.4-12.1c-1.1,4.5-2.8,9.1-3.9,13.9c-0.5,2.1-1.5,3.4-3.6,3.4c-5.6,0.1-11.2,1.2-16.6-1.2c0-2.6,0-5.1,0.1-7.7
			c-0.4-3.7-1.3-7.3-1.4-11.1C219,13.3,219.7,12.1,221.5,11.3z"/>
		<path class="st18" d="M220.4,34.3c3.2,0,6.3,0,9.5,0.1c9,0,8.9,0,11.8-8.8c1.3-3.8,1-8.2,4.6-11.3c-1.3,5.1-2.7,10.3-4,15.4
			c-0.4,1.6-1.9,3.8,0.9,4.4c2.7,0.6,2.7-2.2,3-3.7c1.4-5.5,2.3-11.2,5.8-17.4c-0.3,6.9-2.7,12.1-3.7,17.6c-0.3,1.4-1.6,3,0.8,3.6
			c2.1,0.5,2.4-1.3,2.8-2.7c1.7-5.8,3.4-11.6,5.6-17.3c0.7,3.6-0.6,6.8-1.6,10c-0.7,2.2-1.6,4.3-1.5,6.7c0,1.1-1.7,2.7,0.6,3.2
			c2,0.5,3-0.6,3.5-2.6c1.2-5.1,2.6-10.2,3.9-15.3c0.2-0.8,0.3-1.7,2-2.3c-1.5,6.2-2.8,11.9-4.1,17.6c-0.3,1.1-1.1,2.3,0.8,2.7
			c1.2,0.2,2.4-0.1,2.9-1.4c0.4-0.9,0.4-1.9,0.7-2.9c1.5-5.3,3-10.6,4.9-15.8c0.8,5-2.2,9.4-2.2,14.2c0.3,3.9,2.9,4.5,6.3,4.5
			c16.6-0.1,33.1-0.1,49.7,0c2.5,0,5-0.2,7.4,0.5c0.9,0.4,1.6,0.8,1.7,2c-0.4,0.5-0.9,0.8-1.5,1c-4.8,0.8-9.6-0.1-14.3,0.4
			c-20.8,2.3-41.7,0.6-62.5,0.9c-4.7,0.1-5.9,2.6-6.4,6.3c-0.6,2.1-2.1,3.6-3.7,5.1c-1.7,1.6-2.2,3.5-2.2,5.7
			c-0.1,1.2-0.2,2.4-1.1,3.4c-0.4,0.3-0.9,0.3-1.3,0.1c-0.9-0.9-1.4-1.9-1.5-3.2c0-0.5,0-0.9,0.1-1.4c0.7-3.6,1.3-6.2-4.5-5.1
			c-5.7,1-9.7-4.1-10.7-11.3C223.4,35.2,219.6,36.4,220.4,34.3z"/>
		<path class="st19" d="M238.5,54.3c-0.1,0.4-0.2,0.7-0.3,1.1c-1.2,1.6,0.7,1.9,1.1,2.9l0.3-0.2c2.6,6.3,0.7,12.5-0.6,18.7
			c-2.6,7.3-5.4,14.6-8.4,21.9c-3.7,9.2-7.1,18.4-10.1,27.8c-3.7,9.3-6.2,19.1-10,28.4c0,1.8-0.2,3.6,0,5.4c0.4,2.8-0.7,4.6-3.2,5.8
			c-0.3-2-0.6-4.1-0.9-6.1c0-3.3,0.1-6.6,0.1-9.9c7-17.1,12.3-34.9,19.9-51.8c3.5-7.8,7.1-15.6,9.5-23.9c2-6.7,1.3-12.6-1.8-18.6
			c-1.1-2-1.9-4.2-2.9-6.3C234.7,49.6,237.2,51.1,238.5,54.3z"/>
		<path class="st20" d="M238.5,54.3c-2.4-1.6-4.8-3.3-7.2-4.9c-1.2-0.6-2.4-1.1-3.6-1.7c-6.4-3.2-6.9-4.1-5.1-10.3
			c0.7,1.5,1.4,2.9,2,4.4c1.8,4.7,6.6,6.8,11.4,4.7c2-0.9,3.3-0.6,3.3,1.7C239.4,50.2,240.3,52.5,238.5,54.3z"/>
		<path class="st21" d="M221.5,11.3c-2.2,3-0.4,6.3-0.8,9.4c-0.3,1.9-0.1,3.9-0.2,5.9c-1.1-1.2-0.6-2.7-0.9-4.1
			c-0.5-0.9-0.8-1.8-1-2.8c0-0.2,0.5-1.1-0.5-0.6c-0.2,0.1-0.4,0.5-0.7,0.6c-1.3-1.9-2.6-3.8-3.8-5.7c-1-1.5-2.3-3.2-0.5-4.8
			c1.5-1.4,3.1-0.3,4.5,0.5C218.7,10.4,219.8,11.6,221.5,11.3z"/>
		<path class="st22" d="M253.4,9.4c-6.4,0-12.7,0-19.1,0c-2.1,0-4.4,0.2-4.8-2.8c0.3-0.1,0.5-0.2,0.8-0.3c0.4,0,0.7-0.1,1.1-0.1
			c6.7-0.6,13.4-0.6,20,0.7C253.1,7,254.4,7.3,253.4,9.4z"/>
		<path class="st23" d="M217.3,19.7c0.4-1.5-0.4-3.3,2.2-5c0,2.9,0,5.4,0,7.8C218.1,22.1,217.8,20.9,217.3,19.7z"/>
		<path class="st24" d="M253.4,9.4c0.1-1.3-0.7-1.9-1.9-2c-0.4-0.2-0.5-0.3-0.4-0.5c0.1-0.2,0.2-0.3,0.3-0.3c34.9,0,69.8,0,104.7,0
			c0.3,0.6,0.1,1.1-0.4,1.4c-3,1.4-6.2,0.6-9.3,0.8c-2.2,0.1-4.3,0-6.2,1.4c-7.4,1.5-15,0.3-22.5,0.8c-1.6,0.1-4.2-1.2-4.3,2.1
			c1.6,1.4,3.5,0.9,5.3,0.9c9.3,0.1,18.5,0,27.8,0c2.1,0,4.3-0.3,6.3,0.8c2.5,3.9-0.4,4.5-3.1,4.9c-5.3,0.8-10.7,0.7-16,1.8
			c-6.1,0.7-12.2,0.4-18.3,0.3c-3.5-0.1-5.8-1.4-5-5.5c0.1-2.5-0.4-3.9-3.5-4C289,12,271.1,11.9,253.4,9.4z"/>
		<path class="st25" d="M356.1,7.5c0-0.3,0-0.6,0-0.9c5.8-0.1,11.5-0.1,17.3-0.2c1.6,0,3.3,0.4,4.6-1.1c7.1-0.3,14.3-1.7,21.3,1
			c1.2-0.1,2.5,0.3,2.8,1.4c1,3.1,3.4,2.8,5.7,2.7c0,2.6,0,5.2,0,7.9c-1.9-0.3-3.5-0.2-3.8,2.2c-0.1,1.3-0.1,2.6-0.2,3.9
			c-2.7,2.5-2.1,5.8-2.2,8.9c-2.4-0.3-2.5-2.3-2.9-4.1c-0.3-1.8-0.2-3.6-0.2-5.4c0.2-6.7,0.2-6.7-6.4-7.5c-1.8-0.2-3.6-0.7-5.3-1.3
			c-1.5-0.6-2.1-1.6-0.9-3.1c2.5-1,5.1-0.3,7.6-0.5c0.5,0,1,0.1,1.5,0.1c0.4,0,0.8,0.4,1.2,0.1c-0.5,0-1-0.1-1.5-0.1
			c-8-0.5-15.8,1-23.8,0.8c-1,0-1.8,0.8-2.8,1.1c-4.1,0.8-8.1,1.1-12.1-0.3c-1.1-0.8-1.4-1.9-1.4-3.2C355.1,8.9,355.5,8.2,356.1,7.5
			z"/>
		<path class="st26" d="M251.4,6.6c0,0.3,0,0.5,0,0.8c-6.7-0.3-13.5,1-20.1-1.2c-0.6-3.9,1.1-5.1,4.9-4.8c3.1,0.3,6.2,0,9.2,0
			C247.4,3.2,249,5.4,251.4,6.6z"/>
		<path class="st27" d="M399.3,6.4c-5.8,0-11.5,0.1-17.3,0.1c-1.4,0-3,0.4-4.1-1.1c0.4-1.3,0.8-2.5,1.2-3.8c6.6,0,13.1,0,19.7,0
			C399,3.1,399.2,4.8,399.3,6.4z"/>
		<path class="st28" d="M210.7,154.8c0.1-8.2,4.8-15.2,6.5-23c0.5-2,1.6-3.9,2.4-5.9c2-0.1,1.8,1.5,2.1,2.7c0.1,1-0.1,2-0.4,3
			c-3.6,6.4-4.6,13.7-6.9,20.6c-1.3,3.9,2.9,8.4,6.7,7.7c8.8-1.7,17.7-0.7,26.6-0.9c4.5,0.1,9.1,1.8,13.4-1.1
			c1.4-3.6,1.4-7.8,4.1-11c3.4-1.1,3.1,1.3,2.9,3.2c-0.3,3-1.4,5.7-2.8,8.3c-0.5,0.9-1.5,2.1-0.1,3c1.1,0.7,2.2,0.2,3.2-0.5
			c1.2-0.9,1.8-2.9,3.9-2.3c0.5,2.3-2.5,4.7-0.1,7c0,0.3,0,0.6,0,0.9c-2.5,0.8-5.1,1.1-7.8,1.1c-14.6-0.1-29.1,0-43.7-0.1
			c-1.3,0-2.7,0.1-4-0.1c-3.6-0.5-6.2-1.5-5.5-6.2C211.8,159.4,212.3,156.9,210.7,154.8z"/>
		<path class="st29" d="M404.1,20.6c0-1.4,0-2.9,0-4.2c2.2-0.6,2.7,1.3,3.8,2c0,0.7,0,1.4,0,2.1C406.5,19.5,405.3,19.4,404.1,20.6z"
			/>
		<path class="st14" d="M314.1,60.2c-3.5,3.7-3,8.6-4,13c-1.8,2.5-0.5,5.3-0.9,7.9c-4.4,0.7-8.8,1.6-11.2,6.1
			c-0.3,0.6-1,0.9-1.7,0.6c-1-0.3-1.1-1.2-0.8-2c0.6-2.2,1.8-4.3,1.7-6.7c0.3-0.7,0.9-1.4,1-2.1C299.8,67.8,306.5,63.6,314.1,60.2z"
			/>
		<path class="st30" d="M310,92.9c-1.8,0.1-3.7-0.1-5.4,0.3c-3,0.8-3.4-0.9-3.4-3.1c0.5-0.7,1.1-0.4,1.8-0.1
			c6.2,2.5,8.1,1.1,8.2-5.9C315.7,87.7,312.4,90.3,310,92.9z"/>
		<path class="st31" d="M395,41.3c0,1,0,2,0,2.9c0,6.3-0.7,7-7,7c-1,0-2,0-2.9,0c-20.2,0-40.4-0.1-60.6,0
			c-5.9,0.1-11.9,0.5-17.1,3.9c-1.1,0.1-1.8-0.8-1.4-1.4c2.6-4.9,1.3-11.1,4.8-15.7c0.3-0.4,0.4-1,0.8-1.2c4.9-2.3,10-0.9,15-0.9
			c3,0,3.6,3,4.4,5.3c0.3,0.6,0.5,1.6,0.9,1.7c5.4,1.2,9.7,5.9,16,4.2c3.4-0.9,5.1-2,3.9-5.7c-1.5-2.5-4.2-1.5-6.2-2.2
			c-1.7-0.6-3.9-1-3.5-3.3c0.3-2,2.4-1.9,4.1-2c2.5-0.1,4.9-0.2,7.4,0.2c0.6,0.1,1.1,0.2,1.7,0.4c11.1,0.8,22.2,0.1,33.3,0.4
			c3.7,0.1,6.7,0.9,6.7,5.4C395.1,40.7,395,41,395,41.3z"/>
		<path class="st32" d="M295.3,78.1c-4.3,14.3-8.7,28.6-13,42.8c-1.1,2.2-1.7,4.6-3.4,6.4c-1.4,1.5-3,3.5-5.2,0.8
			c-0.9-3.4,1.3-6.2,1.6-9.4c0.1-0.5,0.3-1,0.4-1.4c1.2-4.2,2.8-8.3,3.9-12.6c4.6-13.2,8.2-26.7,12.7-40c0.5-1.6,0.9-3.2,1.9-4.5
			c4.9-6.6,9-13.4,7.8-22.1c-0.1-0.8,0.4-1.1,1.2-1.3c4.8-0.4,4.5,2.7,3.9,5.8c-1.5,7.4-3.7,14.6-6.8,21.5
			C298.6,68.9,297,73.5,295.3,78.1z"/>
		<path class="st20" d="M300.3,64.2c0.8-7.7,4-14.7,5.6-22.2c0.7-3.3,0.2-5.2-3.7-4.7c-1.2,1.4-3,1-4.5,1.3
			c-0.4-0.5-0.4,0.9-0.2,0.3c3.3,2.2,2.1,5.2,1.2,8c-1.4,1.1-1.8-0.1-2.5-0.9c-0.8-1.4-1.1-3-2.1-4.3c-0.8-0.7-1.7-1-2.7-1
			c-12.1,0.1-24.2-0.4-36.3,0.3c-4-2.6-4-2.6-6.3,2.2c-0.4,0.9-0.8,1.8-1.7,2.2c-0.2-0.1-0.4-0.1-0.7-0.2c0.3-8.6,0.7-8.9,9.2-8.9
			c15.4,0,30.9-0.1,46.3,0c9.8,0.1,19.5-2,29.3-0.9c1,2,2.1,3.9,1.7,6.2c-0.6,1.4-1.7,0.9-2.7,0.7c-1.5-1.8-0.9-5.4-3.9-5.7
			c-4.2-0.4-8.8-1-12.7,0.2c-2.8,0.9-4.7,6-4.2,8.2c0.7,3,0.2,4.4-1.4,6.4c-0.8,1-2.3,2.3-0.6,3.8C304.9,58.2,302.6,61.2,300.3,64.2
			z"/>
		<path class="st33" d="M343.3,81.5c-1.1,1-1.7,0.3-2.3-0.6c-5.1-7.8-9.3-15.9-9.1-25.5c1.7,1.9,3,4,3.2,6.7c0.1,1.9,0.6,3.3,3,2.2
			c2.1,2.6,2.1,6,3,9C341.8,76,344,78.4,343.3,81.5z"/>
		<path class="st34" d="M340,73.2c-1-2.9-2-5.9-1.9-9c0.2-2.7-0.6-5.5,2-9.2c0,3.4,0,5.5,0,7.7c0,0.1,0.1,0.2,0.2,0.3
			c0.3-0.3,0.6-0.6,0.9-0.9c1.1,2.9,0.8,5.9,1,8.9C343.5,73.7,341.3,73,340,73.2z"/>
		<path class="st16" d="M276.4,118c0.5,3.6-2.1,6.5-2,10c-0.5,3.5-0.3,7.1-3,10c-0.4,0.9-0.9,1.7-1.3,2.6c-0.6,1.4-1.4,3,0.2,4
			c1.7,1,2.3-1.3,3.4-1.8c3.7-1.9,3.4-6.6,6.7-8.7c-0.3,2-0.7,4-1,6c-3.1,6-3.5,13-6.9,18.9c-2.5,0.6-2.1,4.9-5.4,4.3
			c-1.4-0.2-3,1.4-4-0.5c-0.8-1.4,0.3-2.6,0.9-3.6c1.7-2.9,2.6-6,3.4-9.2c0.3-1.4,0.4-2.9-1.8-1.9c-2-1.1-1.2-2.5-0.4-3.7
			c2.4-3.6,3.2-7.9,4.6-11.8c0.9-3.7,2-7.3,3.4-10.8C273.6,120,273.9,117.9,276.4,118z"/>
		<path class="st12" d="M271.4,137.9c0.6-3.4,0.9-7,3-10c2.2,2,2.9-0.5,3.8-1.5c1.6-1.7,2.8-3.7,4.1-5.5c-0.6,5.3-2.7,10.1-5.4,14.5
			C275.9,137.1,274.6,140.3,271.4,137.9z"/>
		<path class="st35" d="M385.9,12.6c2.8,2.6,6.5,2.7,9.9,2.7c4.2,0.1,4.9,2,4.5,5.6c-0.5,4.2-1.5,8.6,1.4,12.5
			c0.1,0.3,0.3,0.6,0.4,0.9c-1.4,0-2.8,0.1-4.2,0.1c-3,2.3-6.4,0.5-9.7,0.8c-0.8-0.3-2-1-1.3-1.5c3.2-2.5,0-3.3-1.1-4.4
			c-1.9-1.8-4.3-3-7.1-3.2c-2-0.1-4,0.5-5.6,1.6c-2.7,1.9,0.3,3.3,0.7,5c0.3,1.1,0.5,1.9-0.8,2.4c-2.9,0.4-5.8,0.2-8.7,0.1
			c-4.2-0.7-6.7-4.7-10.9-5.5c-1.1-0.2-1.4-1.7-1.7-2.9c-0.9-4.2-3.7-5.3-7.7-5.3c-3.4,0.1-6.9,1.1-10-1.2
			c4.9-1.8,10.2-1.3,15.3-1.9c2.2-0.3,4-0.2,3.7-3.1c-0.5-0.6-0.7-1.2-0.6-2c0.1-0.5,0.4-0.8,0.8-1.1c0.3,0,0.8,0,0.9,0.3
			c0.9,3.4,1.4-0.1,2-0.1c4.4,0,8.7,0,13.1-0.1C374.8,12,380.4,10.3,385.9,12.6z"/>
		<path class="st36" d="M387,34.2c3.6,0.1,7.3,0.1,10.9,0.2c0.2,3,3.5,1,4.8,3.4c-4-1.3-4.1,4.4-7.8,3.5l0,0c-0.2-4.6-2.5-5.8-7-5.6
			c-9.7,0.4-19.4,0.1-29.1,0.1c-1.6,0-3.3,0.4-4.8-0.5l0,0c0-2.1,1.8-2,3.2-2.3c2.4,0,4.6,0.8,6.8,1.2c3.3,0,6.7,0,10,0
			C378.3,32.1,382.7,32.1,387,34.2z"/>
		<path class="st26" d="M364,34.3c-2.3,0-4.6,0-7,0c-6.2-0.3-12.4,0.2-18.6,0.2c-2.4,0-4.9-0.2-7.3-0.2c-20.1,0-40.1,0-60.2,0
			c-6,0-6,0-3.6-5.9c4.1-1.5,8.2-2.9,9.2-8.1c0.5-2.2,2.8-2.9,4.7-3.8c3.9,2.2,24.9,2.2,28.9,0l0.1-0.1c0.9,3.4,3,4.3,6.4,4.1
			c5.8-0.3,11.6-0.1,17.4-0.1c4,0,7.9,0,11.9-0.1s6.7,1.6,7,5.7c0.2,2.6,1.1,3.5,3.6,3.4C360.2,29.2,360.9,33.7,364,34.3z"/>
		<path class="st37" d="M310.2,16.5c0.3,2.6-1.2,3-3.3,3c-7.4-0.1-14.8-0.1-22.2,0c-2.2,0-3.6-0.5-3.3-3
			C291,16.4,300.6,16.5,310.2,16.5z"/>
		<path class="st38" d="M237.6,77.2c1.9-6.3,2-12.7,2.1-19.2c1.1-0.7,0.7-1.8,0.8-2.8c1.1-1.3,1.4-3.8,4.1-3
			c3.6,3.8,2.5,8.5,1.9,12.8c-1.2,8.9-4.6,17.3-7.4,25.8c-0.4,1.2-0.9,2.6-2.7,2.5c-2.4-3.5-0.8-6.9-0.1-10.5
			C236.6,80.9,238.6,79.4,237.6,77.2z"/>
		<path class="st39" d="M331.2,34.3c8.6-1.9,17.3-1.2,25.9,0c-1.1,0.1-2.3-0.1-3,1.1c-3.7,0-7.5,0-11.9,0c2,3.6,4.7,3,7.1,2.9
			c3.1-0.2,4.2,1.2,3.8,4c-2.8,2.4-6.2,1.3-9.4,1.4c-3.1,0.1-6.1,0.4-9.2-0.1c-1.4-1.1-1.3-2.6-0.8-4c0.6-1.9-0.3-3.1-1.5-4.3
			C331.8,35,331.5,34.6,331.2,34.3z"/>
		<path class="st31" d="M332.2,35.3c3-0.4,4.4,0.5,2.9,3.7c-0.5,1-0.6,2.2-1,3.2c-0.7,0.6-1.3,0.5-2,0c0.7-2.4-2.5-4.3-1-6.9
			C331.5,35.4,331.8,35.4,332.2,35.3z"/>
		<path class="st20" d="M243.5,52.3c-0.7,1.3-1.6,2.3-3,3c-0.9-5,2.7-7.4,5.9-10h0.1C247.7,48.6,244.9,50.1,243.5,52.3z"/>
		<path class="st40" d="M239.4,58.2c-1.3,0.1-2-0.7-2.8-1.5c-0.5-0.6-1.3-1.3-0.5-1.9c0.4-0.3,1.4,0.4,2.1,0.6
			C239,56.2,239.8,57,239.4,58.2z"/>
		<path class="st41" d="M237.6,77.2c1.6,1.3,0.5,2.7,0,3.9c-1.6,3.9-1,8-1.1,12c0.4,4.4-2.4,7.7-4,11.4c-1.9,4.6-3.5,9.3-5.1,14
			c-0.5,1.5-0.5,3.9-3.2,3.4c-0.9-1.1-0.9-2.4-0.7-3.7c1.8-6.7,5.2-13,6.1-20C232.3,91.2,234.9,84.2,237.6,77.2z"/>
		<path class="st42" d="M229.6,98.2c1.6,3.9-1,7.2-1.7,10.7c-0.6,3.2-2.2,6.1-3.4,9.2c-1.3,3.5-0.8,7.4-2.6,10.8
			c-0.4,0.4-0.9,0.5-1.4,0.2c-0.1-1.1,0.2-2.3-1-3C222.2,116.5,225.9,107.3,229.6,98.2z"/>
		<path class="st43" d="M353.1,12.4c-0.1,0.4-0.1,0.7-0.2,1.1c-0.3,0.2-0.5,0.5-0.8,0.5c-13.2,0.6-26.4,0.5-39.5,0.1
			c-0.5,0-0.9-0.4-1.3-0.7c-1.5-3.4,0.1-4.1,3.3-4.1c8.6,0.1,17.1,0,25.7,0c3.8-1.7,7.8-0.8,11.7-0.6c1.1,0,1.7,0.9,1.8,2
			C353.7,11.4,353.5,11.9,353.1,12.4z"/>
		<path class="st44" d="M311.2,13.4c13.9,0,27.8,0.1,41.7,0.1c0,0.6,0.1,1.2,0.1,1.8c-12.7,0-25.4,0.1-38.1,0.1
			C313.4,15.4,311.4,16.1,311.2,13.4z"/>
		<path class="st35" d="M353.1,11.4c-0.4-2.3-2.2-2-3.7-2c-3.1-0.1-6.1-0.1-9.2-0.1c0.4-2.5,2.4-1.8,3.9-1.8c4-0.1,8,0,12,0
			c0,0.7,0,1.4,0,2C355.2,10.4,355,12.1,353.1,11.4z"/>
		<path class="st45" d="M385.9,12.6c-5.6-0.1-11.2-0.2-16.8-0.3c-0.1-0.9,0-1.8,1.1-1.8c8.5,0,17,0,25.6,0c0.6,1.1-0.2,1.4-0.9,1.8
			C391.9,12.4,388.9,12.5,385.9,12.6z"/>
		<path class="st46" d="M353.1,11.4c1-0.7,2-1.3,2.9-2c0,1,0,1.9,0.1,2.9c0,1.7,0,3.5,0,5.4c-3.2-1-1-4.2-3-5.4
			C353.1,12.1,353.1,11.8,353.1,11.4z"/>
		<path class="st47" d="M394.9,12.4c0.3-0.6,0.6-1.2,0.9-1.8c1.5-0.1,3.1-0.4,5,0.6C398.9,13.1,397.1,13.7,394.9,12.4z"/>
		<path class="st48" d="M220.6,129c0.3,0,0.6,0,1-0.1c1.3-2.2,0.7-5.2,3-6.9c4.1-9.6,7-19.7,12-28.9c4.1-11.4,9.1-22.5,9-35
			c0-2.2-0.2-4.3-2-5.8c-0.8-3.1,2.9-4.2,3-6.9c1-2.2,1.8-4.4,3.1-6.4c1-1.7,3.2-2.2,4.7-1.2c1.3,0.8-0.8,1.7-0.9,2.7
			c0.6,0.6,0.3,1.4,0.5,2c0.3,0.9,1,1.7,0.9,2.7c0.1,3.6-2.4,5-5.1,6.1c-2.5,1.1-2.1,3-1.4,4.9c0.6,1.7,1.6,3.2,2.2,4.9
			c1.3,2.7,0.7,6,2.5,8.6c1.9,3.5-0.3,7-1.2,10c-1.6,5.5-1.9,11.8-6.6,16.2c-1.4,1.4-1.7,3.8-2.2,5.7c-1.1,4-2.9,7.6-4.2,11.5
			c-1.4,4.4-2.7,9,0.6,13.4c2.1,2.8,3.5,2.9,5.1-0.3c0.9-1.9,2.1-3.4,4.2-3.8c2.8-0.5,5.7-0.3,8-2.9c1.1-1.2,3-0.1,2.7,1.9
			c-0.3,2.1,0.6,3.4,2.4,4.4c3.1,1.8,4.9,0.9,5.3-2.7c0.6-5.6,3.9-8.9,9.2-8.9c0.5,1.2,0.2,2.3,0,3.5l0,0c-3.5,4.4-3.4,10.2-6,15
			c-0.6,0.8-1.2,1.6-1.7,2.5c-3.6,6.1-6.7,7.5-13.7,6.2c-0.8-0.2-1.6-0.4-2.2-1c-5.7-4.7-10.7-4.5-16.3,0.8c-2.3,4.4-1.9,9.2,1,11.9
			c1,1,2.7,1.9,1.9,3.6c-0.7,1.5-2.3,1.8-3.8,1.7c-1.6-0.1-3.3,0.1-4.9,0c-5.4-0.3-6.2-1-7.6-6.7c-0.5,3.4-2.5,4.3-5.2,3.6
			c-2.6-0.7-3.1-2.7-2.6-5c1.5-6.2,3.3-12.4,5.4-18.4C220.5,131,220.6,130,220.6,129z"/>
		<path class="st49" d="M220.5,131.9c0.5,4.3-1.5,8-2.6,11.9c-0.6,2.2-1.1,4.4-1.6,6.6c-0.4,2.2-0.4,3.7,1.9,4.1
			c2.2,0.4,3.9-0.2,3.6-3.1c-0.1-0.6,0.7-1.4,1.3-2.5c1.4,3,0.2,6.6,3.5,7.9c3.4,1.3,7.2,1,10.4,0.3c3.9-0.8-0.4-2.1-0.6-3.3
			c0.1-2.6,3.2-1.5,4-3.3c0.4-0.1,0.9-0.1,1.3-0.1c4.4,1.4,7.2,0.5,8.1-2.7c1-3.3-0.8-5.6-5.2-6.8c-0.8-0.2-1.6-0.4-2.3-0.9
			c-0.5-1.5,0.3-1.7,1.5-1.7c-3.3-0.1-4.8,4.3-8.5,3.3c-0.1,0-0.2-0.2-0.1-0.4c0-0.2,0.1-0.3,0.1-0.5c3.4-3.9,11.4-6.2,15.8-4.5
			c0.3,0.1,0.8,0.3,0.8,0.5c1.1,6.5,6.2,2.7,9.5,3.5c2.5,0.6,4.8-0.7,5.3-3.7c0.3-2.2,1.9-2.9,3.5-3.7c-0.9,4.4-1.8,8.8-4.8,12.3
			c-0.9,1-0.5,1.8-0.2,2.7c-1,3.3-2,6.6-3,10c-1.3,2.2-3.4,2.1-5.6,2.1c-3.1,0-6.2,0-9.4-0.1c-6.5,1.2-13.1,0.2-19.7,0.4
			c-1.6,0.1-3.8-0.2-4.7,0.4c-3.1,2.1-5.2,1.1-7.4-1.2c-2.2-2.4-3.6-4.9-2.4-8.5c1.7-5,3.1-10.1,4.7-15.1
			C218.5,134.5,218.6,132.6,220.5,131.9z"/>
		<path class="st16" d="M247.4,159.9c3.1-1.9,6.6-0.5,9.9-0.7c1.9-0.1,3.4-0.6,5.1-1.3c-0.1,1.4-0.7,2.8-2.2,2.8
			C256,160.6,251.6,161.9,247.4,159.9z"/>
		<path class="st50" d="M340,73.2c-0.7-2.1,2.8-0.1,2.2-2.2c0.8,2.5,1.6,5,2.5,7.5c0.6,1.6,0.2,2.6-1.4,3
			C342.2,78.7,341.1,76,340,73.2z"/>
		<path class="st51" d="M332.2,42.3c0.7,0,1.3,0,2,0c6.3,0,12.6,0,18.9,0c0.7,3.5-0.2,5-4.1,6.2c-6.9,2-11.6-3.2-17.5-3.8
			c-1-0.1-1.2-1.4-1.3-2.4C330.8,41.2,331.5,42.2,332.2,42.3z"/>
		<path class="st13" d="M354.1,35.3c11.7,0,23.4,0.2,35.1-0.1c4.9-0.1,6.6,1.4,5.8,6.1c-1.1-4.1-3.6-5.3-7.9-5.1
			c-9.3,0.4-18.6,0.2-27.8,0.1C357.5,36.3,355.6,37,354.1,35.3z"/>
		<path class="st52" d="M317.1,39.7c-1.9,1-3.4,2.1-2.7,4.6c0.4,1.3,1.3,1.8,2.6,1.9c3.1,0.1,1.6-3,3-4.6c1.8,3,1.5,5.3-1.2,6.4
			c-2.4,1-4.8-0.2-5.4-2.9S312.7,39.3,317.1,39.7z"/>
		<path class="st53" d="M297.2,45.2c0.1,0.8,0.2,1.6,1,2.1c1,4.8-1,8.8-2.9,12.9c-4.3,13.5-8.6,26.9-13,40.4c-0.5,1.5-0.6,3.3-2,4.4
			c-0.4,0.3-0.8,0.3-1.2-0.1c-1.7-4.4,0.8-8.3,2.2-11.8c4.7-11.3,7.1-23.3,11.1-34.8c1.1-3.1,1.3-6.4,2.3-9.6
			C295.2,47.4,294.8,45.3,297.2,45.2z"/>
		<path class="st54" d="M295.3,60.2c0.2-4.5,1.7-8.7,2.9-12.9c0-3.2,0.7-6.4-1.3-9.4c1.8-1,3.6-0.4,5.3-0.5c0.5,1.3,2.3,2.2,1.9,3.8
			C302.2,48,301,55.2,295.3,60.2z"/>
		<path class="st16" d="M279.4,105.1c0.3,0,0.6,0,0.9,0c-0.3,4.6-2,8.8-4,13c-0.6-1-0.6-2,0-3C275.1,111,276.4,107.8,279.4,105.1z"
			/>
		<path class="st55" d="M297.2,45.2c-2.5,4-1.8,9-3.8,13.1c-2.6,4.4-5.8,4.7-11.5,1.2c-0.1-0.8,0.2-1.4,0.7-2c1-1,2.3-1.5,1.1-3.6
			c-3.5-6-9.7-9.2-16.6-8.2c-1.1,0.2-1.9,0.6-2.2,1.7c-0.5,1.9-2.1,2.8-3.6,3.8c-3.6,2.3-5.9,1.2-6.3-3c-0.1-1.3,0.7-2.8-0.6-4
			c-0.7-0.7-1.3-1.3-2-2c6.1-4.1,12.9-1.7,19.4-2c6.6-0.3,13.3-0.5,19.9-0.2c1.8,0.1,3.1,0.4,4.5,1.2
			C296.2,42.7,296.4,44,297.2,45.2z"/>
		<path class="st54" d="M296.3,41.3c-6.9,0.7-13.7-1.5-20.7,0.1c-5,1.1-10.6,0.4-15.7-0.6c-3.2-0.7-4.5,3.7-7.5,1.6
			c0.3-0.7,0.6-1.3,1-2c5.3-1.8,10.8-0.9,16.3-1c7.1-0.1,14.3,0,21.4,0C293.1,39.4,295.2,39,296.3,41.3z"/>
		<path class="st56" d="M387,34.2c-4.3,0-8.6,0-12.9,0c-2-1.8-4.5-4.5-2.8-6.6c1.9-2.3,5.3-3.6,9-2.8c5,1,7.7,5.4,12.1,7.5
			C391,34.6,387.9,31.4,387,34.2z"/>
		<path class="st49" d="M224.5,122c-0.7,2.4-0.9,5.1-3,6.9c-0.2-4,1-7.6,3-10.9C224.5,119.3,224.5,120.7,224.5,122z"/>
		<path class="st54" d="M254.4,44.3c0.7,0.7,2.3,0.3,1.9,2.1c-0.5,2.1-0.2,5.1,1.9,5.1c2,0,5.2-1.6,5.7-3.9c0.8-3.8,3-3.6,5.4-2.7
			c2.9,1,5.9,0,8.8,1.2c4,1.8,4.9,6.2,8.2,8.7c1.5,1.1-1.5,2.6-3,3.4c-1.5-0.5-2.3,0.6-2.7,1.5c-2,3.9-5.5,5.6-9.4,4.8
			c-4.6-0.9-7.9-3.8-8.9-9.6c0.7,6,4.3,8.5,8.7,9.6c4,1,7.4-0.5,9.4-4.4c0.4-0.8,1-1.3,2-0.9c3.7,0.2,7.8,3.7,11.1-0.9
			c-3.5,11.5-5.9,23.3-10.9,34.4c-1.7,3.8-2.1,8.2-3.1,12.4c-1,3.3-2,6.6-3,9.9c-3.8,2-8.3,3.3-8,9c0.1,2.9-1.7,4.8-4.1,4.5
			c-2.6-0.3-5.2-1.6-5.6-5.1c-0.1-1.1-0.6-2.2-0.5-3.3c-1.7,0-2.1,0.7-2.2,2.4c-0.1,1.6-2.5,1.1-3.2,1c-6.6-1.5-7.3,3.6-9,7.6
			c-4.3-1.3-6-5.1-8.1-8.5c-0.1-0.2,0-0.7,0.2-0.9c1.7-2.9-0.2-6.2,2-9.5c2.9-4.3,3.9-9.9,5.7-15c0.1-0.2-0.3-0.8-0.3-0.9
			c5.2-2.9,3.8-9.2,6.8-13.5c2.2-3.2,1.7-8.4,2.4-12.7c-0.9-3.4-0.3-7.2-2.6-10.2c-0.5-2.1-1.3-4.2-2-6.1c-0.9-2.6,1.1-2.5,1.7-3.6
			C252.1,49,254,47.2,254.4,44.3z"/>
		<path class="st57" d="M240.5,150.8c1,4-3.1,1.5-4,3c-2.9-2.3-3.4-8.4-1-13c2,0.6,3.1-1.1,4.4-2c1.5-1,3-1.1,4.8-0.8
			c-0.8,0.6-1.6,1.2-2.3,1.7c-1.4,3.1-4.2,6-1.6,9.7C240.9,150.1,240.8,150.5,240.5,150.8z"/>
		<path class="st58" d="M250.5,60.2c3.2,2.8,3.1,6.3,2,10c-3.6-2.1-1.1-6.3-3-9C249.7,60.9,249.8,60.3,250.5,60.2z"/>
		<path class="st59" d="M250.5,60.2c-0.3,0.3-0.7,0.7-1,1c-0.9-1.9-2.1-3.7-2.7-5.6c-0.7-2.4-0.9-5,2.8-5.3
			C246.8,53.9,250.4,56.9,250.5,60.2z"/>
		<path class="st60" d="M240.5,150c-3.4-4-3-6.1,2-10.1c7,0.1,9,1.8,9,6.9c0,2.7-1.2,4.4-3.5,5.4c-2.4,1-4.8,1.6-6.5-1.2
			c0.5-0.7,1.3-0.9,2.1-1.8C242.1,148.5,241.4,149.6,240.5,150z"/>
		<path class="st61" d="M240.5,150c0.1-1.2-0.3-2.9,1.6-2.9c1.2,0,2.4,0.7,3.6,1.3c0.2,0.1,0.3,0.9,0.1,1.2
			c-1.1,1.7-2.8,1.2-4.4,1.3c-0.3,0-0.6,0-1,0C240.5,150.6,240.5,150.3,240.5,150z"/>
		<path class="st62" d="M282.3,59.2c-2.7,3.4-4.8,7.3-10.4,6.8c-6.5-0.6-11.7-7.6-9.1-13.6c1.2,2.4,0.4,5,1.8,7.2
			c3.3,5,10.8,5.4,14.8,0.6c1-1.2,1.4-3.7,3.9-2C282.9,58.5,282.6,58.9,282.3,59.2z"/>
		<path class="st63" d="M275.1,103.5c-1.8,0.2-3.6-0.6-3.2,2c0.6,3.9-1.8,4.4-4.8,3.8c-2-0.4-3.7-3-6.2-0.8
			c-0.2,0.2-3.4-1.6-3.4-3.3c0-2.1-1.3-4.7,1.2-6.4c1.7-1.2,3.3-2.9,5.7-2.2c1.3,0.4,0.9,1,0.7,2.1c-0.2,1.7,1.1,2.9,3.2,2.3
			C271.7,100.1,271.6,100.1,275.1,103.5z"/>
		<path class="st64" d="M278.4,52.2c2.2,3.6-0.2,5.9-2.5,7.9c-2.8,2.4-6,1.1-8.2-0.6c-2.7-2-3.4-5.1-1.3-8.3
			C270.3,52.4,274.3,52.8,278.4,52.2z"/>
		<path class="st36" d="M278.4,52.2c-4.7,2.5-9.3,2.1-12.1-1C271,45.9,275.1,46.2,278.4,52.2z"/>
		<path class="st65" d="M274.2,57.6c-0.1,1.7-1.4,1.7-2.5,1.7c-1.4,0-3-0.3-2.7-2c0.3-1.6,2.2-0.9,3.4-1.3
			C273.6,55.5,274,56.5,274.2,57.6z"/>
	</g>
</g>
</svg>
