<?xml version="1.0" encoding="utf-8"?>
<!-- Generator: Adobe Illustrator 25.0.0, SVG Export Plug-In . SVG Version: 6.00 Build 0)  -->
<svg version="1.1" id="Camada_1" xmlns="http://www.w3.org/2000/svg" xmlns:xlink="http://www.w3.org/1999/xlink" x="0px" y="0px"
	 viewBox="0 0 522.9 168.9" style="enable-background:new 0 0 522.9 168.9;" xml:space="preserve">
<style type="text/css">
	.st0{display:none;}
	.st1{display:inline;fill:#F70606;}
	.st2{fill:#6A6B68;}
	.st3{fill:#B0B3B3;}
	.st4{fill:#DBDCDC;}
	.st5{fill:#80837D;}
	.st6{fill:#ADAFAF;}
	.st7{fill:#848681;}
	.st8{fill:#1C1E1D;}
	.st9{fill:#313535;}
	.st10{fill:#070808;}
	.st11{fill:#292C2A;}
	.st12{fill:#191B1B;}
	.st13{fill:#1E2020;}
	.st14{fill:#4A4E4B;}
	.st15{fill:#515656;}
	.st16{fill:#3A3E3D;}
	.st17{fill:#525652;}
	.st18{fill:#454848;}
	.st19{fill:#333737;}
	.st20{fill:#191B1A;}
	.st21{fill:#171918;}
	.st22{fill:#484D4D;}
	.st23{fill:#828B80;}
	.st24{fill:#707E82;}
	.st25{fill:#414743;}
	.st26{fill:#2F3131;}
	.st27{fill:#919B8E;}
	.st28{fill:#434849;}
	.st29{fill:#2B2E2D;}
	.st30{fill:#99A09E;}
	.st31{fill:#4A4E4E;}
	.st32{fill:#373B38;}
	.st33{fill:#9AABB2;}
	.st34{fill:#819299;}
	.st35{fill:#1F2220;}
	.st36{fill:#7A8278;}
	.st37{fill:#858C89;}
	.st38{fill:#232625;}
	.st39{fill:#261B17;}
	.st40{fill:#292D2A;}
	.st41{fill:#D1DCD0;}
	.st42{fill:#3E4440;}
	.st43{fill:#474E49;}
	.st44{fill:#101111;}
	.st45{fill:#393F3B;}
	.st46{fill:#2B2F2D;}
	.st47{fill:#454B46;}
	.st48{fill:#3A3E3E;}
	.st49{fill:#080808;}
	.st50{fill:#080909;}
	.st51{fill:#0A0B0B;}
	.st52{fill:#130E0D;}
	.st53{fill:#404444;}
	.st54{fill:#313434;}
	.st55{fill:#7E8583;}
	.st56{fill:#6C7270;}
	.st57{fill:#919896;}
	.st58{fill:#949B99;}
	.st59{fill:#565C5A;}
	.st60{fill:#D9DFC3;}
	.st61{fill:#393F3A;}
	.st62{fill:#333834;}
	.st63{fill:#2A2E2B;}
	.st64{fill:#3D4241;}
	.st65{fill:#060706;}
	.st66{fill:#0A0B0A;}
	.st67{fill:#0C0D0C;}
	.st68{fill:#3B403C;}
	.st69{fill:#303532;}
	.st70{fill:#424843;}
	.st71{fill:#868A81;}
	.st72{fill:#616764;}
	.st73{fill:#4F5453;}
	.st74{fill:#0C0D0D;}
	.st75{fill:#8C9689;}
	.st76{fill:#0C0E0D;}
	.st77{fill:#333734;}
	.st78{fill:#363B37;}
	.st79{fill:#1F2120;}
	.st80{fill:#E8EDEE;}
	.st81{fill:#0D0E0E;}
	.st82{fill:#9EA99C;}
	.st83{fill:#6F776E;}
	.st84{fill:#484F4A;}
	.st85{fill:#5B635C;}
	.st86{fill:#A9B5A7;}
	.st87{fill:#B9C5B8;}
	.st88{fill:#CAD6C9;}
	.st89{fill:#CAD7CA;}
	.st90{fill:#161816;}
	.st91{fill:#9FA5A3;}
	.st92{fill:#FEFEFE;}
	.st93{fill:#C3C8C5;}
	.st94{fill:#212423;}
	.st95{fill:#353A36;}
	.st96{fill:#2D312E;}
	.st97{fill:#373C38;}
	.st98{fill:#090A0A;}
	.st99{fill:#292D2B;}
	.st100{fill:#535A56;}
	.st101{fill:#4C534E;}
	.st102{fill:#4B524D;}
	.st103{fill:#636B65;}
	.st104{fill:#535B55;}
	.st105{fill:#757C77;}
	.st106{fill:#757C76;}
	.st107{fill:#4A514C;}
	.st108{fill:#2B2E2C;}
	.st109{fill:#2A2E2C;}
	.st110{fill:#848B89;}
	.st111{fill:#49504B;}
	.st112{fill:#5C645E;}
	.st113{fill:#161817;}
	.st114{fill:#3A2D2A;}
	.st115{fill:#D1D7D3;}
	.st116{fill:#392D2A;}
	.st117{fill:#585D5C;}
	.st118{fill:#E4E9E6;}
	.st119{fill:#292B2B;}
	.st120{fill:#2E3231;}
	.st121{fill:#ADB4B1;}
	.st122{fill:#484D4C;}
	.st123{fill:#868E86;}
	.st124{fill:#1D201E;}
	.st125{fill:#222523;}
	.st126{fill:#121413;}
	.st127{fill:#030303;}
	.st128{fill:#3A3F3B;}
	.st129{fill:#383D39;}
	.st130{fill:#1C1E1C;}
	.st131{fill:#5D655E;}
	.st132{fill:#868E8A;}
	.st133{fill:#2F3330;}
	.st134{fill:#4F5651;}
	.st135{fill:#808784;}
	.st136{fill:#585F5A;}
	.st137{fill:#111211;}
</style>
<g id="Camada_1_2_">
	<g id="Camada_2_2_" class="st0">
		<rect x="72.7" y="-37.2" class="st1" width="506" height="248"/>
	</g>
	<g id="Camada_1_1_">
		<g>
			<path class="st2" d="M180.7,16.5c69.5,0,139,0,208.5,0c0.3,0.6,0.2,1.1-0.3,1.5c-1.3,0.8-2.8,0.9-4.3,0.9
				c-12.8,0-25.5-0.1-38.3,0.2c-11.5,0.3-23.1,0-34.6,0.2c-7.7,0.1-15.5-0.4-23.3,0.1c-10.1-1-20.2-0.4-30.3-0.4
				c-25.2,0-50.4,0.1-75.5-0.3c-0.6-0.1-1.1-0.4-1.6-0.7C180.5,17.6,180.4,17.1,180.7,16.5z"/>
			<path class="st3" d="M126.9,155.5c-0.1-0.2-0.2-0.5-0.1-0.8c1.1-1.5,2.7-1.4,4.3-1.6c13.1,0.1,26.2,0.1,39.2,0
				c2.2-0.3,4.3,0,6.4,0.7c0.5,0.2,0.9,0.6,1.1,1.1c-0.3,0.6-0.7,1.1-1,1.7c-3.7,0-7.3,0-11,0c-10.3-1.1-20.7-0.2-31.1-0.5
				C132.1,155.9,129.4,156.6,126.9,155.5z"/>
			<path class="st4" d="M126.9,155.5c11.2,0.1,22.5,0.1,33.7,0.2c1.7,0,3.7-0.6,5.2,0.9c-13,0-25.9,0-38.9,0
				C126.8,156.2,126.9,155.9,126.9,155.5z"/>
			<path class="st5" d="M401.2,16.5c1.8,3.5,0.5,7.3,0.9,10.9c-0.5,0.3-1,0.2-1.3-0.3c-0.9-1.6-0.7-3.4-0.9-5.2
				c-0.1-0.5-0.1-1-0.2-1.4c-0.9-2.3-3-1.4-4.6-1.7c-2-0.3-4.3,0.5-5.8-1.6c0-0.3,0-0.5-0.1-0.8C393.2,16.5,397.2,16.5,401.2,16.5z"
				/>
			<path class="st6" d="M405.2,36.4c3.4-0.1,6.8-0.2,10,0.9c0,3,0,6,0,8.9c-0.4-0.1-0.8-0.2-1.2-0.2c-1.1-1.1-0.9-2.6-1.2-4
				c-0.4-2.8-2.3-3.5-4.7-3.5c-1-0.1-1.9-0.2-2.7-0.8c-0.2-0.3-0.4-0.5-0.3-0.8C405,36.6,405.1,36.4,405.2,36.4z"/>
			<path class="st7" d="M180.7,16.5c0,0.2,0,0.5,0,0.7c-3.5,2.6-7.1,2.1-10.8,0.4c-0.1-0.4-0.1-0.7-0.2-1.1
				C173.4,16.5,177.1,16.5,180.7,16.5z"/>
			<path class="st8" d="M401.3,55.3c-0.3,0.3-0.7,0.6-1,0.9c-1.8,0.7-3.8,0.6-5.4,1.8c-1.4,0.5-2.8,0.9-4.3,0.4
				c-3.2-1.3-6.6-0.7-10-0.8c-20.1,0-40.3,0-60.4,0.1c-2,0-4.4-0.8-5.7,1.8c-2.2,1.4-4.5,1.2-6.9,0.7c-2.4-2.1-4.7-1.6-7.1,0
				c-4.3,0.7-8.6,0.2-12.8,0.6c-2-1.1-4-1.4-6.1,0c-3.6-0.4-7.2,0.3-10.8-0.8c-1-0.6-1.6-1.3-1.5-2.5c1.8-2.1,4.8-1,6.8-2.6
				c1.3-0.6,2.8-0.7,4.2-1.1c0.5-0.1,0.9-0.2,1.4-0.2s0.9,0.1,1.4,0.2c2.5,0.6,5.3,0.2,7.7,1.3c0.6,0.3-0.1-1.1-0.1-0.4
				c0,0.3-0.1,0.3-0.5,0.1c-1.8-0.7-2.5-2-1.2-3.4c1.7-1.7,3-4.9,6.4-2.7c8.2,3.1,16.5,4.4,25.1,2.5c1.5-0.3,2.9-1,4.4-0.7
				c12.3,2.3,24.8,0.9,37.2,1.4c3.5,0.1,6.9-0.6,10.3-1.1c5.5-0.7,11.1-0.2,16.7-0.8c2.2-0.2,4.3-0.1,6.2-1.4
				c2.4-1.2,3.3,0.9,4.6,2.1C400.9,52,402.2,53.3,401.3,55.3z"/>
			<path class="st9" d="M381.3,56.2c3.2,1.1,7.4-2.3,10,2c1.5,0.6,3,0.9,3.9-1c1.3-2.6,3.1-2.1,5.1-1c-2,2.3,0.3,4.6-0.2,7
				c-2,1.3-4.3,1.6-6.7,1.6c-32.7,0-65.4,0-98,0c-2.5,0-4.9-0.4-7.2-1.6c-1.3-0.6-1.8,0.6-2.5,1.2c-1.4-0.1-2.7-0.2-3.4-1.7
				c0.1-0.5,0.3-0.8,0.6-1.1c1.2-0.6,2.3-1.3,3.7-1.3c4.8-2.1,10-0.5,14.9-1.1c1.7-0.4,3.3,0.4,5,0c2.7,0,5.3,0,8,0
				c1.9-1.9,4.3-1.4,6.6-1.4c17.7,0,35.4,0,53.1,0C376.7,57.7,379.1,57.8,381.3,56.2z"/>
			<path class="st10" d="M288.2,63.2c37.3,0,74.6,0,111.9,0c-1,3.5-3.9,4.2-7,4.2c-33.2,0-66.4,0-99.6,0.1
				C290.2,67.5,289.4,65.4,288.2,63.2z"/>
			<path class="st11" d="M204.6,101.9c-4.3,10.2-10.2,19.6-15.2,29.5c-0.4,0.7-0.7,1.4-1,2.2c-1.7,0.3-2.2,1.8-3.1,2.9
				c-1.1,1.3-2.2,2.6-4,0.9c-0.7-3.4,1.4-6,2.6-8.9c6.4-12.3,12.7-24.7,19.5-36.8c1-1.9,1.9-3.9,4.4-4.4c3.2,0.3,6.4-1.3,9.6,0.2
				c1.1,2.5-1.1,2.6-2.4,3.1c-3.1,1.1-5.8,2.5-6.3,6.1C208.2,99.3,203.4,98.3,204.6,101.9z"/>
			<path class="st12" d="M282.3,62.3c0.9,1.1,2.7,0.6,3.3,2.1c-0.7,2.9-1.5,5.8-2.2,8.7c-2.1-0.8-4.3-1.2-6.5-0.3
				c-0.5,0-1-0.2-1.4-0.4c-4.2-6.6-10.3-8.8-17.9-7.9c-2.8,0.3-5.6,0.1-8.4,0c-0.7,0-1.5,0-2.2,0c-5.4-0.4-9.3,1.9-12.2,6.3
				c-1.2,2.1-1.5,4.5-2.5,6.7c-0.3,0.5-0.7,0.7-1.3,0.7c-4.1-3.5-3.7-8.7-2.9-12.6c0.9-4.4,6-5.5,10.5-5.8c8.6-0.3,17.2-0.1,25.8,0
				c4.7,0.5,9.4,1.2,14.1,1C279.9,60.7,281.3,61,282.3,62.3z"/>
			<path class="st13" d="M204.6,101.9c-1.6-0.7-2-1.9-0.8-3c4.4-3.8,7-10,13.7-10.9c0.9-1.4,2.6-2.1,3.4-3.6c0.5-0.5,1-0.8,1.7-0.5
				c1.2,2.1,2.9,2.8,5.3,2c2.5,0.1,5.2-1.3,7.6,0.7c1,4.6,5.1,3.8,8.3,4.6c1.8,1,4.7-0.5,5.5,2.6c-8.9,0.1-17.9,0.2-26.8,0.3
				C215.6,94.2,209.9,97.5,204.6,101.9z"/>
			<path class="st14" d="M181.7,137.6c2.5,0.1,3.1-2,3.9-3.6c0.9-1.9,1.7-2.1,3-0.4c-1.9,4.7-3.1,9.6-4.1,14.6
				c-0.7,3.7-2.6,6.3-6.7,6.7c0-0.2,0-0.3,0-0.5c-1.9-0.7-3-1.9-2.8-4.1c0.6-3.4,2.2-6.4,3.5-9.6C179,139.3,179.5,137.5,181.7,137.6
				z"/>
			<path class="st15" d="M276.3,72.2c0.4,0,0.8,0,1.2,0c3.2,0.1,5.4,1.2,5,4.9c-1.9,10-8.7,15.7-18.9,15.9c-2.5,1-4.7,0.3-7-0.7
				c-0.3-0.5-0.4-1-0.1-1.5c2.1-1.6,4.8-1.2,7.2-1.7c7.3-1.5,10.5-4.8,11.4-12.2C275.3,75.3,275,73.6,276.3,72.2z"/>
			<path class="st16" d="M414.1,41.4c-0.1,1.6-0.1,3.1-0.2,4.7c-3.1,1.2-7.4-2.2-9.7,2.3c-1.5-1.4-1.7-3.5-2.7-5.2
				c-0.9-3.7,3.3-2,4.2-3.9C408.8,38.9,411.9,38.5,414.1,41.4z"/>
			<path class="st17" d="M405.4,40.2c-0.5,1.6-4,0.2-3.1,3.2c1.5,1.7,0.3,4.1,1.7,5.8c-2.7,1.3-1.4,4.3-2.7,6.2
				c-0.2-1.6-1.3-2.7-2.3-3.9c-0.2-0.4-0.3-0.9-0.1-1.4c2.2-4.2,0.1-8.9,1.4-13.3c0.8-1.5,1.3-3.5,3.8-2.1c0.8,0.7,0.3,1.9,1.1,2.6
				c1,0,1.9,0,2.9,0.1C408.6,39.7,406,39,405.4,40.2z"/>
			<path class="st18" d="M256.4,91.9c2.4-0.1,4.6,1.7,7.1,1.1c-4.6,1.6-9.4,0.9-14.1,0.8c-1.7-1.7-4.4,0.2-6-1.7
				C247.8,89.7,252.1,90,256.4,91.9z"/>
			<path class="st19" d="M282.5,77.1c-1.4-0.7-0.3-5.3-4.1-2.6c-0.6,0.4-0.7-1.4-0.9-2.3c2.3-1.9,4.4-2.6,5.9,0.9
				C283.7,74.6,283.1,75.8,282.5,77.1z"/>
			<path class="st20" d="M404,49.2c-3.6-1-1.1-3.9-1.7-5.8c2.6,0.9,1.5,3.3,2,5C404.4,48.7,404.3,49,404,49.2z"/>
			<path class="st21" d="M276.5,55.2c-1.6,3.1-4.6,1.6-7,2c-0.6,0.7-1.4,1-2.3,1.2c-3.8,0.3-7.6,0-11.3,0.2
				c-5.9,1.4-11.9-0.5-17.8,0.9c-6.6,0.2-13.3-0.1-19.9,0.1c-4,0.2-8-0.3-11.9,0.3c-1.9,0.4-3.7-0.5-5.6-0.3
				c-4.7,1.1-9.2-0.8-13.9-1c-4.5,0.8-8.9-0.4-13.4-0.2c-2.4,0.1-3.9,0.5-4.5,3.4c-0.9,4-2.5,4.5-5.5,2.1c-2.1-1.7-4.4-2.1-6.8-2.7
				c-2,0-4-0.2-6,0.1c-4.1,0.5-6.7-1.1-8-4.9c0.8-5,0.5-10,0.8-15c2.5-1.4,3.1,0.5,3.4,2.2c0.5,2.2,0.2,4.4-0.4,6.5
				c0.6-0.6,0.5-1.7,1.4-2.1c2.5,0.4,1.7,2.9,2.7,4.2c0.7,1.3,1.9,1.7,3.3,1.6c4.2-0.1,8.3,0.2,12.5-0.3c0.9-0.3,1.7-0.8,2.7-0.8
				c2.1,0.7,0.3-1.8,1.5-1.8c0.4-0.2,0.9-0.3,1.3-0.2c0.6,0.2,1.2,0.6,1.3,1.3c0.1,1,0.4,1.5,1.4,0.8c5,1.6,9.9-0.5,14.8-0.8
				c9.8,2.5,19.7,1,29.6,1.7c8.2-0.7,16.5,1,24.7-0.7c10.1-1.4,20.1,1.1,30.2,0.9C274.9,53.9,275.8,54.4,276.5,55.2z"/>
			<path class="st22" d="M162.7,79c0.7-5,2.4-10.1-1.1-14.8c2.4-1.7,3.2,0.8,4.4,1.8c1.3,1.2,1.9,3.1,3.8,3.8
				c0.7,0.8,1.3,2.2,2.3,0.3c2.3-3.9,4-8,5.4-12.4c4.5-0.5,4.8,2.2,4.3,5.5c-1.4,3.9-4.6,6.4-6.8,9.7
				c-12.7,18.9-24.8,38.2-37.2,57.3c-1.9,2.9-2.7,6.9-7.1,7.5c-1.2-2,0.1-3.5,1-5c8.7-15,18-29.7,27.2-44.3
				C160.8,85.5,162.5,82.6,162.7,79z"/>
			<path class="st23" d="M155.7,20.6c3.3,0,6.6-0.2,9.9-0.1c1.9,0.1,3.2-0.4,4-2.1c0.6,0.2,1.1,0.3,1.7,0.5
				c8.3,0.5,16.6-0.1,24.9,0.1c2.3,0.1,4.7-0.4,6.5,1.6c0.2,1.4-0.9,1.8-1.8,1.8c-3.8,0-6.2,2.4-8.7,4.8c-6,1.3-12.2,0.4-18.2,0.6
				c-0.8,0-1.6,0-2.4-0.1c-0.7,0-1.5-0.1-2.2-0.2c-0.4-0.1-0.9-0.2-1.3-0.3c-0.8-0.2-1.7-0.3-2.6-0.2c-0.4,0-0.9,0-1.3,0
				c-3.1-0.2-6.3,0-9.4,0c-1,0.2-1.9,0.4-2.9,0.4c-3.1-0.4-3.8-2.5-3.6-5.2C150.3,19.6,153.4,21.9,155.7,20.6z"/>
			<path class="st24" d="M162.7,79c0.9,2.4,0.8,4.4-0.7,6.8c-9.9,15.7-19.4,31.6-29.2,47.4c-0.9,1.4-1.8,2.8-2.1,4.4
				c0.1,1-0.2,1.8-1,2.4c-0.4,0.2-0.9,0.2-1.4,0.2c-1.1-0.5-2.1-1-1.6-2.5c7.9-15.8,18.3-30.2,27.4-45.3
				C157,87.9,159.9,83.5,162.7,79z"/>
			<path class="st25" d="M143.8,41.3c0.9,5.1,2.5,10.3-1.2,15.1c-7.1-0.8-7.1-0.8-6.7-9.1c0.5-2.7-0.7-5.5,0.2-8.3
				c0.8-1.5,1.3-3,1.3-4.7c0.1-2.4-0.4-5.4,3.2-5.8c3.2-0.3,4.2,2.1,4.9,4.6C145.6,36,145.6,38.8,143.8,41.3z"/>
			<path class="st26" d="M180.7,64.1c-0.2-2.7,1.3-6.6-4-5.9c-1.5,1.8-5.5,0.5-5.5,4.3c-0.4,2.5,0.6,5.4-1.6,7.6
				c-1.5,1-2.5,1-3.2-1.1c-0.7-2.3-1.8-4.7-4.9-4.7c-1.7-1-3.4-2-5-3c3-0.3,5.8-0.4,8.1,2.3c1.9,2.2,3.1,0.6,2.9-1.4
				c-0.3-4.5,2.2-4.9,5.8-5.1c4.4-0.1,8.8,1.2,13.2,0.1c0.8,1,2.6-0.2,2.9,1.2c0.3,1.5-1.3,1.8-2.3,1.9
				C184.6,60.8,183.6,64.2,180.7,64.1z"/>
			<path class="st27" d="M155.7,20.6c-1.9,2-5.3-0.6-7,2.1c-1.1,1.4-3,1.4-4.1,2.7c-0.3,0.3-0.6,0.6-1,0.9c-2.1,1.5-4.8,1.2-7,2.4
				c-0.5,0-0.9-0.2-1.3-0.5c-1-1.5-0.9-3.2-0.7-5c0.7-2.1,2-3,4.4-2.9C144.6,20.6,150.2,20.6,155.7,20.6z"/>
			<path class="st28" d="M128.9,139.7c0.3,0,0.6,0,0.9,0c1.8,0.7,1.2,2.5,2,3.7c0.4,0.8,0.8,1.5,1.1,2.3c0.7,2,1.1,4-1.1,5.2
				c-1.7,0.9-0.5,2.4-0.9,3.5c-1.4,0.1-2.7,0.2-4.1,0.3c-0.7-0.4-1.3-0.7-2-1.1c-0.6-1.4,0.9-2.4,0.8-3.7c0.1-1.2,0.2-2.3,0.5-3.5
				C127.1,144.2,127,141.5,128.9,139.7z"/>
			<path class="st29" d="M134.7,23.3c2,1.3,1.1,3.4,1.3,5.1c1.2,2.6,2.5,5.2-1.2,7c-1.3-0.4-3,0.6-4.1-0.9
				c-0.7-4.4-1.2-8.8,4.1-11.1L134.7,23.3z"/>
			<path class="st30" d="M134.8,35.4c2-2-0.3-4.8,1.2-7c0.2,0,0.4,0,0.5,0c2.2,3.5,1.3,7.1,0.5,10.8c-0.7,2.7,0.6,5.6-1.1,8.1
				C133.9,43.5,135.5,39.3,134.8,35.4z"/>
			<path class="st31" d="M134.8,23.4c-3,3.1-4.1,6.9-4.1,11.1c-1.6-2.7-0.7-5.7-0.6-8.5C130.1,22.7,132.8,23.5,134.8,23.4z"/>
			<path class="st32" d="M170,19.5c-0.1-0.4-0.3-0.8-0.4-1.2c0-0.3,0.1-0.6,0.3-0.8c3.6-0.1,7.2-0.2,10.8-0.4v0.4
				c0.9,2-0.4,2.3-1.8,2.3C175.9,19.8,172.9,20.4,170,19.5z"/>
			<path class="st33" d="M126.8,150.6c0.4,1.7-1.3,2.1-2,3.1c-3.9-3.7-1.4-7.4,0-11.1c0.7,0.1,1.2,0.6,1.6,1.2
				C127,146,124.5,148.4,126.8,150.6z"/>
			<path class="st34" d="M125.9,143.7c-0.4-0.4-0.7-0.7-1.1-1.1c0.4-1.7,0.6-3.6,2.1-4.9c0.4,0.9,1.1,1.6,2.1,2
				c-0.3,2.4-0.5,4.9-2,7C125.7,146,126.8,144.5,125.9,143.7z"/>
			<path class="st35" d="M170,19.5c2.6,0,5.2-0.1,7.8-0.1c1.3,0,2.7,0,2.9-1.8c14.4,0,28.8,0.1,43.2,0.1c15.4,0,30.8-0.4,46.1-0.1
				c6.2,0.1,12.4-1.1,18.5,0.8c-0.4,3-2.9,2.1-4.7,2.5c-3.9,1.1-7.8,1-11.8,0.9c-2.7-0.1-5.2,0.5-7.5,1.9c-0.6,0.1-1.1,0-1.7-0.2
				c-1.1-0.7-2.3-1.4-3.7-1.4c-13.2,0.1-26.5-1.1-39.7,0.7c-4.6-0.8-9.1-2.3-13.4,1.9c-2,1.9-4.4,0.2-3.6-3.2
				c-7.7-1.8-15.5-0.1-23.1-0.8C176.3,20.4,172.9,22,170,19.5z"/>
			<path class="st8" d="M283.1,19.6c1.8-0.5,3.9,0.6,5.4-1.2c11.7-1.6,23.5-0.4,35.3-0.5c16.2-0.1,32.4-0.3,48.7-0.4
				c5.6,0,11.2-0.2,16.8-0.2c2.7,0.1,5.5,0.3,8.2,0.4c1.8,0.1,3.8-0.1,3.4,2.7c-2.5,2.3-5.7,1.5-8.6,1.5c-27.5-0.1-55,0-82.5,0
				c-6.6,0-13.2,0.1-19.9,0c-2,0-4,0.2-5.9-0.6C283.5,20.9,283.2,20.3,283.1,19.6z"/>
			<path class="st36" d="M404,35.6c-1.5-1.6-1.9,0.2-2.6,0.9c-2-1.1-0.5-2.9-0.9-4.5c0-0.5-1,0.3-0.3,0.1c0.3-0.1,0.5,0,0.4,0.3
				c-1,3.8,1.4,8.4-2.8,11.4c-2.1,0.2-2.4-1.1-2.2-2.7c0.3-1.1,1.2-1.9,1.1-3.1c0-4.5-2-6.5-6.7-5.5c-3.6,0.7-7.2-0.4-10.8-0.7
				c-2.1-0.3-4.2-0.9-6.3-1c-1.5-0.1-3.4,0-3.8-2.2c2.6-2.3,5.8-1.2,8.8-1.3c1.7,0,3.5,0.7,5.2-0.4c6.1-1.4,12.1-1.2,18.1,0.6
				c0.3,0,0.6,0,0.9,0c0.7,1,1.4,2,2.1,3C403.9,32.1,405.7,33.9,404,35.6z"/>
			<path class="st37" d="M404,35.6c0.2-1.7-1.3-3.5,0.2-5.1c1,4.4,5.1,2.4,8,3.7c-2.1,2.2-5.5-0.5-7,2.3c0,0.3,0,0.6,0.1,0.9
				C404.4,37,404.1,36.3,404,35.6z"/>
			<path class="st38" d="M130.8,154.5c-1.1-1.5-5-3,0.3-4.2c2.9-0.7,0.5-3,0.6-4.6c2.4-0.3,3.3,1.5,3.9,3c1.2,2.9,3.3,3.6,6.3,3.6
				c7.7-0.1,15.5-0.1,23.2,0c2,0,4-0.2,5.8,0.7c0.2,0.2,0.4,0.4,0.7,0.6c-0.8,1.5-2.2,1.3-3.4,1.3
				C155.8,154.7,143.3,154.6,130.8,154.5z"/>
			<path class="st39" d="M175.7,150.6c-0.1,1.6,1.3,2.5,2,3.8c-2.2,0.9-4.1,0.1-6-0.9v-0.2C172.3,151.3,173.5,150.2,175.7,150.6z"/>
			<path class="st40" d="M283.5,20.4c39.1,0,78.3,0,117.4,0c0.1,0.3,0.1,0.5,0.3,0.8c-4.2,1.6-7.9,5.9-13.2,2
				c-1.7-1.3-4.5-0.1-6.7,0.3c-10.6-1.4-21.3-0.1-31.9-0.6c-5.5-0.2-11,0-16.5-0.1c-8.3,0.1-16.5,0.1-24.8,0c-2,0-4-0.2-5.3,1.8
				c-3.6,2.4-6.1-1-9.2-1.7c-2.1-0.2-4.3,0-6.4-0.2C285.6,22.6,283.7,22.8,283.5,20.4z"/>
			<path class="st41" d="M381.3,22.7c3.6-1.1,7.4-3.8,10.3,1.2c0.6,1.1,2.4,0.7,2.5,0.3c1-4.6,4.7-2.1,7.1-2.9c0,2.1,0,4.1-0.1,6.2
				c-5.9,0.1-11.8,0.1-17.7,0.2c-1.1,0.7-2.2,0.9-3.2-0.1c-0.6-1.3,0.7-2.4,0.6-3.7C380.8,23.3,381,22.9,381.3,22.7z"/>
			<path class="st37" d="M405.4,40.2c-0.3-2.2,2.4-1.4,2.8-2.8c3.1-0.3,5.3,0.8,6,4C411.4,39.6,408.3,40.6,405.4,40.2z"/>
			<path class="st42" d="M263.6,23.5c0.2-0.1,0.5-0.1,0.7-0.1c4.8,2.8,10.3,0.9,15.3,2.1c2.9,1.8,3.6,3.6-0.2,5
				c-1.7,0.6-2.7,1.8-3.5,3.3s-1.7,3-3.5,3.3c-3,0.5-2.6,2.2-2,4.4c0.9,3.1,4.3,5.8,1.7,9.6c-0.4,0.6,0.3,0,0.5,0
				c3.2-0.2,5.4,2,8,3.2c-1.1,1.5-2.7,0.8-4,1c-11-0.3-22-0.7-32.9-1c-0.4,0.3-0.8,0.5-1.4,0.5c-7.6,0.4-8.1,0.5-9.3-6.8
				c-0.7-3.8-3.4-5.1-5.4-7.3c1.7-2.2,4.2-1.7,6.4-1.7c7.1-0.1,14.3,0.1,21.4-0.1c1.7,0,3.8,0.6,4.7-1.7c0.1-0.5,0.1-1,0.2-1.6
				c0.1-2,0.5-4,1-6c0.1-0.7,0.3-1.5,0.5-2.2C262.2,26,262.3,24.5,263.6,23.5z"/>
			<path class="st43" d="M280.5,54.3c-1.8,0.1-3.9,0.2-5.1-1.3c-1.5-1.7-3-1.2-5-0.5c3.6-4,0-6.7-0.8-10c-0.5-2.1-5.4-7,2.4-6.3
				c1.1,0.1,1.6-1.1,2.1-1.9c1.4-2.6,2.2-5.7,6.4-5.3c1.2,0.1,0.3-1.5,0-2.4c0.4-0.7,1-0.9,1.8-1c1.2,0,2.3,0.5,3.2,1.2
				c0.4,0.3,0.7,0.6,1,0.9c0.7,1.5,3.3,1.5,3.2,3.7c-1.3,0.7-1.7,1.7-1.1,3.1c0,7.3-1.4,14.2-7.1,19.5
				C281.1,54.2,280.8,54.2,280.5,54.3z"/>
			<path class="st44" d="M396.2,48.3c-0.5,2.6-2.5,2.8-4.5,2.9c-3.5,0.1-7,0.8-10.3,0.8c-12.7,0.1-25.4,2.1-38.2,1
				c-6.3-0.5-12.7,0.1-19.1-1.5c-2.2-0.5-4.2,1.6-6.6,1.8c-7.2,0.7-14.1-1.5-21.1-2.1c-1.9-0.2-1.8-1.6-1.9-2.9
				c0.4-0.4,0.8-0.7,1.3-0.9c1.6-0.4,3.2-0.3,4.7,0.3c5.2,3.8,11,2.1,16.6,1.7c1.3-0.7,2.9-0.9,4.2-1.7c0.4-0.2,0.8-0.3,1.3-0.4
				c0.7-0.1,1.3-0.1,2,0.1c0.4,0.1,0.9,0.2,1.3,0.4c2.3,0.6,4.4-1.1,6.6-0.7c0.4,0,0.9-0.1,1.3-0.1c0.6-0.1,1.3-0.2,1.9-0.3
				c0.4,0,0.8,0,1.3,0.1c1.8,0.5,3.7,0.8,5.5-0.2c0.8-0.3,1.7-0.4,2.5-0.3c0.4,0,0.8,0.1,1.2,0.3c0.5,0.2,1,0.6,1.5,0.8
				c0.8,0.2,1.3-0.3,1.9-0.7c0.6-0.3,1.2-0.4,1.8-0.5c0.7,0,1.3,0.1,1.9,0.3c0.6,0.3,1.1,0.6,1.7,0.9c1.4,0.5,2.6-0.4,3.8-0.7
				c0.4-0.1,0.8-0.2,1.3-0.1c0.6,0.1,1.2,0.3,1.7,0.5c0.8,0,1.5-0.5,2.3-0.7c1.1-0.3,2.2-0.3,3.3,0.2c1.6,1.9,2.9,0.1,4.3-0.3
				c1-0.2,1.9-0.2,2.9,0c1,0.3,1.8,0.8,2.6,1.4c5,3.6,10.1,1.1,15.1,0c1.2-0.5,2.4-0.6,3.6,0C395.8,47.9,396,48.1,396.2,48.3z"/>
			<path d="M381.3,56.2c-1.1,2.4-3.1,3.1-5.7,3.1c-20.4-0.1-40.8-0.1-61.2-0.1c-0.8-0.7-1.6-1.5-3.2-2.9
				C335.3,56.2,358.3,56.2,381.3,56.2z"/>
			<path class="st38" d="M267.5,57.2c0.7,0,1.3,0,2,0c0.3,0.6,0.7,1.3,1,1.9c-1.5,2.1-4.4-0.1-6,2c-9,0-18,0-27,0
				c-0.7-1.3,0.2-2.1,1-2.9c5.5-2.2,11.4,0.9,17-1C259.5,58.1,263.5,58.1,267.5,57.2z"/>
			<path class="st45" d="M281.4,54.1c0.1-2.2-0.5-4.5,2.7-5.5c1.5-0.5,2.3-2.5,2.2-4.1c-0.3-3.8,1-7.4,1.1-11.2
				c3.9-0.8,5.4,3.2,8.4,4.2c0.3,0.6,0.2,1.3-0.1,1.9c-1.5,1-2.1,2.5-2.6,4.2c-0.2,0.4-0.6,0.7-1,0.9c-1.8-0.6-3.7-1.7-3.5,1.8
				c0.1,1.9-0.5,3.9-1.2,5.7c-0.9,2.3-2.5,3.3-5,2.2C282.1,54.2,281.8,54.2,281.4,54.1z"/>
			<path class="st46" d="M282.5,54.3c5,0.3,3.8-4.1,4.9-6.6c0.4-0.8,0-2,0.2-2.9c0.2-1.4-0.8-3.4,1.1-3.9c1.5-0.4,1.7,1.7,2.6,2.6
				c0.4,0.3,0.8,0.6,1.2,0.9c1.9,0,2.8,1.2,3.4,2.7c0.1,0.5-0.1,0.9-0.4,1.2c-0.3,0-0.7,0-1,0c-0.8,0.1-1.7,0.3-2,1.1
				c-0.5,1.8-3.8,1.5-3.2,3.8c0.5,2,3.3-0.6,4.3,1.8C289.8,55,286.1,56.1,282.5,54.3z"/>
			<path class="st47" d="M396.4,40.5c-0.3,1.5-0.2,2.7,1.7,2.8c3,2,2.4,4.5,1,7.1c0,0.3-0.1,0.7-0.1,1c-0.9-1.1-1.9-2.1-2.8-3.2l0,0
				c-0.4-0.4-0.8-0.7-1.3-0.9c-2.7-1.1-5.5-0.6-8.3-0.8c-1.8-0.2-4.1,0.5-4.4-2.4c3-2.2,6-0.6,8.7-0.1c-1.1-0.5-3.6-0.7-2.8-3.1
				c0.6-1.9,2.6-1.8,4.2-1.8c1-0.1,2,0,2.9,0.4C395.7,39.7,396.1,40,396.4,40.5z"/>
			<path class="st48" d="M264.5,61.2c-0.4-1-0.7-2,1-2s3.3,0,5,0c4,0.5,8.1-0.9,12,1c0.9,0.4,1.4,0.9,1.1,2
				c-0.4,0.1-0.8,0.1-1.3,0.2C276.4,62,270.4,62.6,264.5,61.2z"/>
			<path class="st49" d="M306.4,59.2c-1.7,3.2-3.3,1-5,0C303.1,56.8,304.8,54.2,306.4,59.2z"/>
			<path class="st50" d="M283.6,62.1c-0.4-0.7-0.7-1.3-1.1-2c0.1-1.2,0.4-2.5,1.8-2.6c1.7-0.1,2,1.3,2.3,2.7
				C285.9,61.4,285,62.2,283.6,62.1z"/>
			<path class="st51" d="M395.1,57.3c0.6,1.1,0.9,2.1-0.5,2.7c-1.7,0.6-2.7-0.2-3.3-1.7C392.5,57.5,393.7,57,395.1,57.3z"/>
			<path class="st39" d="M130.8,143.7c-1.7-1,0.4-2.9-1-4c0-0.8,0.1-1.6,0.9-2c6.6-7.2,11.1-15.9,16.4-24
				c6.8-10.3,13.4-20.6,20.3-30.8c4.3-6.4,8.3-12.8,13.3-18.7c2.4-2.2,3.7-6.1,9.1-4.5c-1.7-1.3-2.4-1.9-3.1-2.4
				c4.8,0.3,9.4,2.3,14.3,1.1c2.5,1.3,5.3,1.9,8,2.9c3.5,2.2,8.4,2.9,9.2,8.1c0.2,2.5-1.1,4.4-2.5,6.2c-0.9,1-1.7,2-2.3,3.2
				c-1.6,3.2-3.3,6.4-5.7,9.2c-3.4,3.2-5,7.6-7.2,11.6c-5.3,9.6-10.5,19.4-15.7,29.1c-3.2,5-6.4,10-8.3,15.7
				c-2.1,6.7-5.1,8.6-12.1,8.6s-13.9-0.1-20.9,0.1c-3.5,0.1-5.6-1.2-6.8-4.5C135.7,146,134.5,143.3,130.8,143.7z"/>
			<path class="st52" d="M130.8,143.7c0.8-1.2,1.1-3.8,3.3-1.3c1.2,1.4,3.2,2.7,3.4,4.1c0.6,6.1,4.5,6.3,9.2,6.1
				c5.5-0.2,11,0,16.5-0.1c7.1,0,10.7-2.6,12.5-9.5c1.5-5.7,4.6-10.5,9.1-14.4c-1,3-2,5.9-3.1,8.9c-3,3.9-3.8,8.7-5.9,13
				c-1.4,0.9-2.7,1.8-4.1,2.7c-10.7,0.1-21.5,0.2-32.2,0.3c-2.5,0-3.9-1.3-4.7-3.6c-0.5-1.7-1.1-3.5-3-4.3
				C131.5,145,131.1,144.3,130.8,143.7z"/>
			<path class="st53" d="M207.6,88c0.2-4.1,3.7-6.4,5-9.9c0.8,0.6,1,1.5,1.1,2.3c0.5,1-0.6,2.6,1.2,3.1c2.2,0.5,4.7-0.4,6.6,1.4
				c-0.2,2.5-2.2,2.6-4,3C214.3,87.1,211,90,207.6,88z"/>
			<path class="st54" d="M238.6,58.2c-0.3,1-0.7,2-1,2.9c-10,1.9-12.1,7.9-5.9,16.9c1.4-0.1,1.5,0.8,1.6,1.8
				c-1.6,3.6-4.1,0.2-6.1,0.9c-0.5-0.1-1-0.2-1.4-0.5c-1.8-2-2.1-4.4-1.9-7c1.1-4.3,0.8-9.2,6.4-12.4c-3.4-0.8-6-0.3-8.4-0.6
				c-1.6-0.2-3.7,0.4-4.1-2.2C224.6,58.2,231.6,58.2,238.6,58.2z"/>
			<path class="st55" d="M248.7,63.3c-0.7,3.3-3.7,5.9-3.3,9.6c-0.3,2.2-0.2,4.8-3.7,4.5c-1.4-0.8-2.8-0.8-4.2,0
				c-1.8-2-3.9,1.4-5.7-0.3c-0.5-2.6,1.1-4.7,2-6.9c1.6-0.5,3.1-1.5,4.9-1.4c1.6,0.6,3.2,1,4-1.1c0.9-1.8,2.3-3.2,3.9-4.5
				C247.3,63.3,248,63.3,248.7,63.3z"/>
			<path class="st56" d="M246.6,63.2c0,2.3-2.4,3.2-3.2,5.1c-1.6,0.3-3.3,0.4-4.9,0.8c-1.5,0.8-2.8,2.6-4.8,1.1
				C236.5,65.1,240.9,63,246.6,63.2z"/>
			<path class="st57" d="M231.8,77.1c1.8,0.3,3.7-3.2,5.5,0c1.5-0.3,3-0.3,4.4,0.7c1.1,1.2,1.5,2.6,1.2,4.1c-1,1.3-2.4,1.5-3.9,1.6
				c-2-0.5-3.2-2.4-5.3-2.7c-0.4-0.2-0.7-0.5-1-0.8c-0.1-0.7-0.1-1.5-1-1.9C231.6,77.7,231.7,77.4,231.8,77.1z"/>
			<path class="st58" d="M250.5,90.7c2,0.1,4.1,0.3,6.1,0.4c0,0.3-0.1,0.5-0.2,0.8c-4.3,0.1-8.6,0.1-13,0.2c-2.1-0.1-4.1-0.9-6.1-1
				c-3.7-0.3-2.8-2-2-4c-0.4-1.2-2-2.1-1.2-3.8c1.7-1.3,2.9,0.5,4.3,0.8c1.4,0.5,3,0.3,4.4,0.6C246.4,85.6,246.7,90.4,250.5,90.7z"
				/>
			<path class="st18" d="M234.5,83.1c0.3,1.3,0.7,2.6,1,4c-2.6,0-5.2,0-7.9,0c-1-1-1.1-2.1-0.7-3.4c2.9-0.8-0.8-2.7,0.6-3.8
				c1.8-2.3,3.4,2.8,5.1,0.1c0.3,0.1,0.6,0.1,0.8,0.1C234.6,80.9,234.7,81.9,234.5,83.1z"/>
			<path class="st50" d="M227.6,83c0,1.3,0,2.6,0,4c-3.5,2-5,0.5-5.1-3.1c-0.3-0.5-0.3-1.1-0.1-1.6C224.4,80.8,226.3,79.9,227.6,83z
				"/>
			<path class="st59" d="M222.5,83c0,0.3,0,0.6,0,0.9c-0.3,0.4-0.6,0.7-0.9,1.1c-2.7-0.4-5.6,0.9-8.1-0.9
				C216.2,81.4,219.1,80,222.5,83z"/>
			<path class="st60" d="M399.2,50.4c-1-2.3,0.8-4.9-1-7.1c2-3.8,0-8.4,2.8-12.7c0.2,2.4,0.3,4.1,0.4,5.8c-0.1,4.3-0.2,8.5-0.2,12.8
				C401.3,51.1,400.8,51.6,399.2,50.4z"/>
			<path class="st61" d="M227.3,41.1c7.9-1.6,6.8,5.6,7.2,8.8c0.6,4.9,3,4.3,6.1,4.3c1,0,2,0,3,0c-4.4,2-9,0.7-13.6,0.9
				c-3.8,0.2-7.6,0-11.4,0c-0.3-0.2-0.8-0.5-0.7-0.6c2.8-5.7-2-8.7-4.4-12.6c-1-7.3-1-7.3-8.4-7.3c-8.4,0-16.8,0.1-25.2,0
				c-3.1-0.3-5.4-1.4-4.9-5.2c0.5-1.4,1.6-1.6,2.9-1.6c4,0,8.1,0,10.6,0c-2.4-0.3-6.3,0.1-10.2,0c-1.7-0.3-3.4,0.9-5.1,0
				c-0.6-0.4-0.7-0.9-0.4-1.5c6.7,0,13.3,0,20,0c1.3-1.2,2.9-1.6,4.6-1.5c4.6,0.2,9.2,0.3,13.7,0.3c0.7,0.3,1.8,0.5,1.6,1.4
				c-0.2,1.8-2,0.8-3,1.4c1,0.1,1.9-0.5,2.8-0.3c2.4,0.7,1.3-0.9,1.3-1.8c1.9-1.1,4.1-1.2,6.1-2c2.9,1.8,2.5,5,3.6,7.7
				c0.1,2.5-1.9,5.4,1.3,7.4C225.6,39.7,226.7,40.1,227.3,41.1z"/>
			<path class="st62" d="M214.7,43.3c0.7,0.6,1.4,1.6,2.2,1.8c5.1,1,4.6,3.8,2.2,7c-0.8,1.1-1.2,1.9-0.5,3c-10-0.7-20.1,1-29.9-1.9
				c-0.4-0.5-1-0.9-1.4-1.4c-1.1-1.6-2.9-3.1-1.7-5.3c1-1.8,3.2-1.4,4.9-1.6c4.9-0.4,9.9,0.7,14.8-0.3
				C208.4,43.8,211.6,44,214.7,43.3z"/>
			<path class="st63" d="M205.7,45.3c-0.5,0.9-1.1,1.5-2.3,1.4c-2.6-0.2-5.3-0.3-7.9-0.4c-2.8,0-6.4-0.9-8.3,0.4
				c-2.9,2,3.1,3.7,1.6,6.5c-5,0.6-9.9,3.6-14.9,0c-2.7-7.4-1.2-15-1.2-22.5c0-1.5,0.7-3.7,3-1.4c-0.1,2.8,1.1,4.3,4.1,4.1
				c0.3,0.5,0.5,1,0.5,1.5c0,0.7,0,1.3,0,2c-0.1,6.2,0.6,6.7,6.7,7s12.2-0.9,18.2,0.8C205.3,44.9,205.5,45.1,205.7,45.3z"/>
			<path class="st64" d="M217.6,58.2c4.5,2.4,9.6-0.1,14.2,1.4c0.5,1.3-0.5,1.5-1,2c-2.7,2.3-5.5,4.5-4.9,8.7
				c0.1,0.9-0.2,2.3-1.5,2.9c-2.9-0.2-4.7-2.3-6.7-4c-2.1-3.7-6.1-4.9-9.2-7.1c-0.8-1-2.6-0.9-2.8-2.5
				C209.4,56.7,213.7,58.9,217.6,58.2z"/>
			<path class="st65" d="M143.9,25.4c-0.1-0.3,0-0.7,0.2-0.9c3.9-0.2,6,1.9,7,5.4c0.2,6.1,0.1,12.2,0.1,18.3c0,1.8,0.2,3.7-1.5,5
				c-1.7-1.3,0-3.7-1.7-5c-1.1-1.5-0.5-3.2-0.4-5c-0.6,3.5,0.5,6.9-0.7,10.1c-2-2.4-0.5-5.2-1-7.8c-0.3-1.6,0.7-3.7-2-4.2
				c-0.3-2.7,0.2-5.3,0.8-7.8C144.3,30.8,143,28.2,143.9,25.4z"/>
			<path class="st66" d="M175.7,29.3c-3-0.9-1.9,1.4-1.9,2.6c-0.1,7.1,0,14.2,0,21.3c-1.9,0.6-0.7-2-2-1.9c-2.1-2.6-1.3-5.6-1.4-8.5
				c-0.1-3.7-0.2-7.5,0.1-11.3c0.1-1.6-0.3-3.8,2.3-4.1c1.6,0,3.3,0.1,4.9,0.1c0.4,0.2,0.5,0.4,0.4,0.6s-0.2,0.3-0.3,0.3
				C176.9,28.4,176.1,28.6,175.7,29.3z"/>
			<path class="st67" d="M168.8,26.7c0.6,0,1.2,0,1.8,0c1.1,8.2,0.8,16.3,0.2,24.5c-0.5,0.6,1,2.3-1.1,2c-0.5-0.4-1.3-0.8-1.3-1.4
				C167.1,43.4,166.1,35,168.8,26.7z"/>
			<path class="st68" d="M149.6,53.2c0.1-8.2,0.2-16.5,0.3-24.7c0.7-0.7,1.4-0.6,2.2,0c0.4,0.7,0.5,1.5,0.4,2.4
				c-0.7,6.9-0.4,13.8-0.2,20.7c0.2,0.5,0.3,1,0.5,1.5c0.2,0.8,0.3,1.5-0.1,2.2C151.2,55.2,150.3,54.4,149.6,53.2z"/>
			<path class="st69" d="M168.8,26.7c0.3,8.8-1.1,17.7,0.8,26.5c-0.6,0.3-1.3,0.7-1.9,1c-0.2-0.2-0.4-0.5-0.7-0.7
				c-0.9-9-1.9-18.1,0.6-27.1C168.1,26.5,168.5,26.6,168.8,26.7z"/>
			<path class="st38" d="M152.7,55.2c-0.3-0.6-0.7-1.2-1-1.9c0.2-0.3,0.5-0.6,0.9-0.7c0.4-0.1,0.8-0.1,1.1-0.1
				c0.7,0.1,1.4,0.3,2.1,0.2c0.4-0.1,0.8-0.1,1.2-0.1c0.6,0.1,1.2,0.1,1.8,0c0.4-0.1,0.7-0.1,1.1-0.1c0.5,0,1,0.1,1.6,0
				c0.5-0.2,1-0.5,1.5-0.6c0.6,0.2,1.2,0.6,1.6-0.3c0.5-0.4,1-0.7,1.6-0.7c1.6,0.6,0.4,2.4,1.5,3.3l0,0
				C162.9,56.4,157.7,54.7,152.7,55.2z"/>
			<path class="st69" d="M170.8,51.2c-0.1-8.2-0.1-16.3-0.2-24.5c0.7-0.1,1.4-0.2,2.1-0.3c0,0.3,0,0.6,0,0.9c-2.1,4.4-0.7,9-1,13.5
				c-0.2,3.4,0,6.9,0,10.4C171.4,51.2,171.1,51.2,170.8,51.2z"/>
			<path class="st8" d="M267.5,57.2c-4,1.6-8,1.6-12,0C259.5,57.2,263.5,57.2,267.5,57.2z"/>
			<path class="st70" d="M146.8,53.3c0-3.6,0-7.2,0-10.9c0.3,0,0.5,0,0.8,0c0.1,2,0.2,3.9,0.4,5.9C147.4,49.9,148.7,51.9,146.8,53.3
				z"/>
			<path class="st71" d="M205.7,59.6c0.8,1,2.5,1,2.8,2.5c-3-0.3-5.3-1.8-7.5-3.7C202.8,57.9,204.2,58.8,205.7,59.6z"/>
			<path class="st72" d="M169.7,70.1c0-3,0.1-5.9,0.1-8.9c1.8-1.5,3.5-1.7,5.3,0c1.7,1.7,0.5,3-0.5,4.3c-1.3,1.7-1,3.8-1.8,5.6
				c-0.5,1-1.2,2.4-2.2,2.1C169,72.9,170.1,71.1,169.7,70.1z"/>
			<path class="st73" d="M172.7,71.1c0-1.9-0.1-3.8,0.8-5.7c1.8-3.8,0.9-4.7-3.8-4.3c1.1-3.9,4.2-2.9,7-3
				C179.6,63.8,174,66.8,172.7,71.1z"/>
			<path class="st74" d="M161.8,54.2c-0.7-0.3-1.3-0.7-2-1c-1.2-7.9-0.2-15.9-0.5-22.1c-0.6,6.2,0.6,14.2-0.5,22.1
				c-0.7,1.2-1.3,0.1-2,0c-1.1-7.9-0.2-15.8-0.4-21.9c-0.8,6,0.7,14-0.5,21.8c-0.6,1.1-1.3,0.2-2,0c-1.1-1.1-1.4-2.5-1.5-4.1
				c-0.1-5.6-0.1-11.2,0-16.8c0.1-2.5,0.6-4.9,2.4-6.8c3.3,0.3,6.6,0.5,10,0.8c1.3,1.5,1.4,3.3,1.3,5.1c-0.5,6.9,1.4,14-1.3,20.8
				c-0.7,3.4-1.3-0.4-2,0c-1.2-5.7-0.3-11.4-0.6-17.1c-0.1-1.7,0.1-3.5-0.3-5.2c-0.3-0.6-1.2,0.1-0.6-0.1c0.2-0.1,0.4,0,0.4,0.2
				C162.5,38,162.5,46.1,161.8,54.2z"/>
			<path class="st75" d="M212.6,26.5c-6.7,0-13.3-0.1-20-0.1c1.1-6,5.7-5,9.8-5c1,0.8-0.4,2.9,1.6,3.1c1.6,0.2,2-1,2.6-2.3
				c1.1-2.4,9.3-2.1,12.1,0.2c0.8,0.5,1.4,1,0.9,2c-0.9,3.8-4.1,1.3-6,2.1C213.3,26.9,213,26.9,212.6,26.5z"/>
			<path class="st76" d="M167.8,54.2c-0.7-1-1.3-2-2-3c-0.9-8.3-0.8-16.5,0-24.8c0.7-0.9,1.3-1.5,1.9,0
				C167.7,35.7,167.7,45,167.8,54.2z"/>
			<path class="st77" d="M154.9,25.6c-2,9.2-0.8,18.4-1,27.7c-0.4,0-0.7,0-1.1,0c-2-7.5-0.8-15-0.6-22.5c0-0.8,0.1-1.6,0.1-2.5
				c0-0.6,0.1-1.2,0.5-1.7C153.5,26.2,154.2,25.9,154.9,25.6z"/>
			<path class="st78" d="M165.8,26.4c0,8.3,0,16.5,0,24.8c-0.3,0.3-0.7,0.7-1,1c0-8.6,0-17.2,0-25.9
				C165.1,26.4,165.4,26.4,165.8,26.4z"/>
			<path class="st79" d="M152.8,26.5c0,0.3,0,0.6,0,1c-0.4,0.3-0.5,1-1.1,1s-1.2,0-1.8,0c-1.9-1.3-3.9-2.7-5.8-4
				c1.2-1.5,2.9-1.8,4.7-1.8C150,24.1,149.9,26.8,152.8,26.5z"/>
			<path class="st79" d="M143.9,25.4c1.9,2.5,0.6,5.3,0.8,8c-0.3-0.7-0.7-1.4-1-2.2c-0.6-1.5-1.6-2-3.1-1.8c-1.9,0.3-1.5,1.8-1.7,3
				c-0.4,2.3,1,5-1.8,6.6c-0.2-3.6-0.3-7.2-0.5-10.8C137.7,24.4,142.2,28.2,143.9,25.4z"/>
			<path class="st80" d="M125.9,143.7c1.7,0.5,0.7,2,1.1,3c-0.1,1.3-0.1,2.6-0.2,3.9c-0.9,0.4-1.8,1.2-2.1-0.6
				C124.4,147.7,125.5,145.8,125.9,143.7z"/>
			<path class="st81" d="M219.6,24.4c-0.3-0.7-0.6-1.3-0.9-2c1.1-1.4,2.3-2,4.2-2c12.4,0.1,24.9,0.1,37.3,0c2.3,0,3.4,0.8,3.3,3.1
				c-0.3,1.4,0.3,3.1-1.3,4c-1.8,1.6-4,1.2-6.2,1.2c-9.8,0.1-19.5-0.1-29.3,0.1c-2.5-0.2-1.6,3.7-4.2,3.4
				C221.7,29.6,220.7,27,219.6,24.4z"/>
			<path class="st82" d="M282.5,26.4c-0.7,0.1-1.4,0.2-2,0.2c-4.3-0.1-8.6-0.3-12.9-0.1c-2.4,0.1-3.3-0.9-3.2-3.1
				c0.4-3.1,2.8-2.5,4.9-2.6c4.6-0.2,9.4,0.8,13.9-1.2c0,0.3,0.2,0.6,0.4,0.8c3.5,1.9,7.3,0.2,10.9,1.1c-0.5,2.5-2.7,2.4-4.3,2.2
				C287.1,23.5,284.8,24.6,282.5,26.4z"/>
			<path class="st83" d="M289.5,31.4c-0.9-1.5-3.6-0.9-3.8-3.2c2.1-1.3,4.5-1.1,6.8-1c6.8,0.1,13.5-0.4,20.3-0.8
				c1.6,0.4,3.2,0.9,4.9,0.7c16-2.1,32,1.2,48,0.1c1.3-0.1,3.1-0.8,3.7,1.3c3.4,2,7.4,0.8,11,2.1c-1.3,3.5-4.4,2.5-6.6,2.1
				c-5.7-1-11.5-0.2-17.1-1.3c-1-0.2-1.9,0.2-2.8,0.7c-0.8,0.3-1.6,0.5-2.5,0.5c-12-1.2-24.1-1.1-36.1-0.6c-8,0.4-16,0.3-24,1.3
				C290.3,32.9,289.7,32.3,289.5,31.4z"/>
			<path class="st84" d="M382.2,44.4c2.4,1.7,5.1,0.6,7.7,0.8c2.3,0.2,4.7,0,6.3,2.1c-5.7,1.2-11.4,2.1-17.2,0.8
				c-2.9-3.9-2.3-8.3-1-12.5c0.3-1-0.6-2,0.4-2.7c5-0.9,10.1-0.3,15.2-0.4c3.7-0.1,2.5,4.2,4.4,5.8c0.2,1.3-0.6,1.8-1.7,2.1
				l-0.4-0.3c-3.2-0.7-6.3-0.4-9.6,0.3C384.1,41,382.7,42.1,382.2,44.4z"/>
			<path class="st85" d="M398.1,38.4c-0.8-0.2-1.7-0.4-1.8-1.4c-0.1-3.5-2.6-4.3-5.1-3.5c-4.5,1.4-8.7-0.2-13-0.1
				c-0.5,1-0.5,2.4-2.1,2.5c-1.4-0.1-2.8-1.7-4.1-0.5c-2.1,1.9-3.5,2.6-5.9,0.1c-1.7-1.8-2.6,2.5-4.7,2.2c-1.2-0.8-1.4-2.3-2.3-3.2
				c-1.7-1.5-4.4-1-5.8-3c0.5-2.4,2.2-1.7,3.8-1.6c6.7,0.6,13.3,1.1,20,1.6c1.1,0.1,2.3,0.1,3.2-1c4.8,1.1,9.6,1.3,14.4,0.3
				c1.5-0.3,2,0.1,2.2,1.6C397.1,34.3,397.7,36.3,398.1,38.4z"/>
			<path class="st86" d="M369.3,28.3c-12.6-0.2-25.1,0.6-37.7-0.8c-4.4-0.5-8.9,0-13.4,0.8c-1.9,0.3-4,0.2-5.8-0.8
				c-0.3-0.7-0.2-1.3,0.5-1.7c1.8-1.1,3.8-0.9,5.8-0.9c18.4,0,36.7,0,55.1,0c2.3,0,4.7-0.4,6.5,1.6c0.8,1.1,2,0.9,3.1,1
				c-0.4,1.3-1.1,2-2.5,1.5C377.1,27.8,373.2,28.7,369.3,28.3z"/>
			<path class="st87" d="M312.4,26.5c0,0.3,0,0.7,0,1c-8.9,1.1-17.8,1.3-26.8,0.7c-0.1-0.2-0.2-0.5-0.2-0.8c1.5-1.7,3.5-1.5,5.5-1.4
				c3.3,0.3,6.6,0,9.9-0.1c1,0,2.1,0,1.5-1.5c0.1-1.6-0.5-3.2,2.5-3.1c9.2,0.3,18.4,0.2,27.6,0.3c6,0.6,11.9,0.8,17.9-0.1
				c3.4,2.6,7.2,0.2,10.6,0.3c6.7,0.3,13.6-0.2,20.3,0.8c0,0.2,0,0.4,0,0.6c-1.9,2.2-4.6,1.6-7,1.6c-18.9,0.1-37.7,0-56.6,0.1
				C315.9,25,313.6,24.1,312.4,26.5z"/>
			<path class="st88" d="M302.3,24.4c1-0.1,2.5-1.3,2.5,0.8c0,1.4-1.2,2.2-2.8,2.1c-3.9-0.1-7.8-0.1-11.7-0.1
				c-1.6,0-3.2,0.1-4.9,0.2c-1-0.4-1.9-0.7-2.9-1.1c0.7-3.2,2.6-4.6,6-3.8c2.1,0.5,4.2,0.4,6-1C297.4,21.6,298.6,26.4,302.3,24.4z"
				/>
			<path class="st89" d="M350.3,21.5c-6,1.5-11.9,1.3-17.9,0.1C338.4,21.5,344.3,21.5,350.3,21.5z"/>
			<path class="st90" d="M312.4,26.5c-1.3-0.8-3-1.7-0.4-3c1-0.5,2.3-0.4,3.4-0.4c22,0,43.9,0.1,65.9,0.1c2.3,1.9,0.8,2.6-1,3.3
				C357.7,26.5,335,26.5,312.4,26.5z"/>
			<path class="st91" d="M227.3,41.1c-0.9-0.3-1.8-0.6-2.7-0.9c-3-3.6-0.6-7.3-0.2-11c1.4-1.2,3.2-0.8,4.8-0.8
				c9.6-0.2,19.3-0.1,28.9-0.1c1.5,0,3-0.1,4.3,0.9c-0.3,2-0.6,4-0.9,6c-4.3,1.5-8.7,0.8-12.4,1c3.6,0.3,8-0.4,12.3,0
				c0.6,3.3-0.9,4.3-4.1,4.2c-8.6-0.2-17.1-0.1-25.7-0.1C230.1,40.4,228.6,40.2,227.3,41.1z"/>
			<path class="st92" d="M262.4,29.3c-12.6,0-25.2,0-37.8,0c-0.6-0.6-0.8-1.1,0.1-1.6c12.5,0,25-0.1,37.5-0.1
				C262.3,28.1,262.4,28.7,262.4,29.3z"/>
			<path class="st93" d="M261.4,36.3c-5.6,1.3-11.2,1.3-16.9,0.7c0-0.6,0-1.1-0.1-1.7c5.7,0,11.3,0,17,0
				C261.5,35.7,261.5,36,261.4,36.3z"/>
			<path class="st94" d="M289.5,31.4c0.4,0.3,0.7,0.6,1.1,1c1,0.9,2.6,0.7,3.6,1.6c1,0.9,2.4,1.7,1.2,3.4c-4,1.3-4.7-3.8-7.9-3.9
				C286.3,30.8,288.2,31.5,289.5,31.4z"/>
			<path class="st95" d="M361.3,37.3c3.8-5.3,4.8-5.4,7.8-0.4c1.8-3.5,4-5.1,7.2-1.6c0.5,1.7-0.1,2.8-1.8,3.2
				c-1.7-0.8-1.8,0.2-2,1.5c-0.4,2.4,0.5,5-1.1,7.2c-1.3,0.5-2.7,3-4,0c-2.1-2.3-0.8-5.3-1.6-8c-1.6,2.5-0.3,5.7-2.4,7.9
				c-0.4,0.8-0.5,2.2-2,1.1C359.6,44.6,359,41,361.3,37.3z"/>
			<path class="st96" d="M335.4,47.4c-0.3,0.3-0.7,0.6-1,0.9c-2.4-4-1.6-8.2-0.8-12.3c0.8-3.9,3.6-4.3,7.2-1.4
				c0.3,0.5,0.4,1.1,0.5,1.7c-0.6,2.8-0.1,5.7-0.3,7.1c0.1-1.7-0.2-4.8,0.5-7.9c0.3-1.4,0.8-2.6,2.3-2.8c1.9-0.3,3.2,0.3,3.4,2.5
				c0,0.5-0.2,1-0.5,1.5c-2,1.6-2.9,3.7-2.9,6.3c0,1.6-0.1,3.2-1.3,4.5c-2,2.8-4,0.5-6.1,0c0.3-0.6,0.7-1.1,1.1-1.6
				c1.2-2.1,0.9-4.4,0.4-6.5C335.3,41.5,337.8,45.2,335.4,47.4z"/>
			<path class="st46" d="M325.4,48.3c-0.4,0-0.8-0.1-1.1-0.1c-0.8-2.3,0.1-4.6-0.3-7.1c-0.8,2.5,0.3,5.1-1.4,7.1
				c-0.4,0.1-0.8,0.1-1.2,0.2c-0.7,0.3-1.2,0.1-1.6-0.5c-1.4-3.3-0.8-6.8-0.7-10.2c0.2-5.5,2.8-6.6,7.7-3.6
				c1.6,4.6,1.3,9.2,0.2,13.8C326.6,48.4,326.1,48.6,325.4,48.3z"/>
			<path class="st97" d="M374.3,38.3c0.6-1,1.3-2,1.9-2.9c0.7-0.7,1.3-1.3,2-2c0.5,4.6,0.6,9.3,0,13.9c-0.1,0.6-0.4,1-0.9,1.4
				c-0.4,0.1-0.7,0-1-0.3c-0.7-0.4-1.4-0.7-2-1.1C372.3,44.3,372.1,41.3,374.3,38.3z"/>
			<path class="st98" d="M318.4,49.2c-0.3,0.5-0.5,1.5-0.9,1.6c-5,0.6-10,0.8-15-0.1c-1.2-0.2-2-1.1-2.1-2.4
				c5.6-2.5,11.4-1.6,17.1-0.6C318.2,47.8,318.4,48.5,318.4,49.2z"/>
			<path class="st99" d="M361.3,37.3c0,3.7,0,7.3,0,11c-0.3-0.4-0.7-0.8-1-1.2c-2.1-2.4-1-5.3-1.4-8c-0.3-0.8-0.9-1.1-1.1,0
				c-0.3,2.4-0.9,4.9,0.8,7.1c0.3,0.3,0.5,0.7,0.7,1.1c-1.7,0.1-2.8,3.5-5.1,1c0-0.3,0-0.6,0-0.9c-0.5-3.4-0.6-6.8,0-10.2
				c0.6-3.3,2.1-5.6,6-4C360.6,34.7,361,36,361.3,37.3z"/>
			<path class="st100" d="M363.3,47.2c-0.1-3.2,0.2-6.3,1-9.3c0.2-0.8-0.1-1.8,1-1.9c1.3-0.1,1.8,0.9,1.8,1.9
				c0.1,3.1,0.1,6.3,0.1,9.4C366,47.2,364.6,47.2,363.3,47.2z"/>
			<path class="st8" d="M318.4,49.2c-5.9-2.2-12-0.4-18-1c-1.7,0-3.3,0-5,0c0-0.3,0-0.6,0-0.9c2.2-2.1,4.9-1.4,7.5-1.4
				c4.1-0.1,8.2,0,12.3-0.3c3.6-1.7,1.1-5.2,2.2-7.6c0.1-0.5,0.4-1,0.7-1.4c0.5-0.4,0.9-0.4,1.4-0.1c1.1,3.9-0.4,7.9,0.9,11.8
				c0.4,0,0.7,0.1,1.1,0.1C320.8,49.9,319.8,50.1,318.4,49.2z"/>
			<path class="st101" d="M374.3,38.3c0,3,0,6-0.1,8.9c-1,0-2,0-3,0c0-3.1,0-6.2,0-9.2c0-1.1-0.1-2.6,1.6-2.4
				C374.6,35.8,374.1,37.3,374.3,38.3z"/>
			<path class="st50" d="M376.3,48.3c0.3,0,0.6-0.1,0.9-0.1c5-0.7,10-0.8,15,0.1c-0.1,0.9-0.4,1.7-1.4,1.8c-3.6,0.3-7.2,0.1-10.8,1
				C378.3,51.5,377.1,49.8,376.3,48.3z"/>
			<path class="st46" d="M349.3,47.3c-0.1,0.9-0.1,2-1.2,2.2c-0.7,0.2-0.8-0.6-0.9-1.2c0-0.3,0-0.5,0-0.8c0.1-5.2-1.8-10.6,2.3-15.2
				c0.5-0.3,1-0.4,1.5-0.4c1.9,0.5,3.3,1.5,2.9,3.8c-0.3,1-1,1.6-1.6,2.3s-1,1.5-1.4,2.4C350.2,42.7,351.2,45.4,349.3,47.3z"/>
			<path class="st102" d="M335.4,47.4c0-2.6-0.1-5.2,0.1-7.8c0.2-2.3,0.9-4.5,3.9-2.2c-1.2,3.2,0.2,6.5-0.8,9.7
				c-0.7,0.1-1.5,0.2-2.2,0.3h-0.5H335.4z"/>
			<path class="st103" d="M322.6,48.1c-0.1-2.8-0.2-5.6-0.2-8.4c0-1,0.2-2.1,1.4-2.2c1.4-0.1,1.6,1,1.5,2c-0.2,2.9,0.8,5.9-1.1,8.6
				C323.7,48.1,323.1,48.1,322.6,48.1z"/>
			<path class="st104" d="M342.3,47.3c0.2-2.6,0.2-5.2,0.5-7.8c0.2-1.9,1-3.5,3.5-3.2c0.3,0.4,0.5,0.9,0.5,1.5
				c-0.6,3.1,0.7,6.5-1.4,9.3C344.4,47.2,343.4,47.3,342.3,47.3z"/>
			<path class="st102" d="M340.2,35.5c-0.9-1.1-1.7-2.6-3.5-1.9c-1.6,0.5-2.1,2-2.2,3.5c-0.2,3.7-0.1,7.5-0.1,11.2h-0.5h-0.5
				c-0.6-0.7-1-1.4-1.2-2.3c-0.1-4.3-0.4-8.6-0.5-12.9c0.2-0.6,0.6-1.1,1.2-1.4c1.9-0.6,3.9-0.6,5.9-0.2
				C341,32.1,341.7,33.4,340.2,35.5z"/>
			<path class="st105" d="M350.3,39.3c0.3-0.6,0.7-1.3,1-1.9c1.7-1.2,2.6,0,2.7,1.3c0.2,2.8,1.1,5.8-0.8,8.4c-0.6,0-1.3,0-1.9,0
				C349.6,44.8,350.5,42,350.3,39.3z"/>
			<path class="st106" d="M360.3,37.4c0,3.3,0,6.5,0,9.8c-0.3,0.1-0.6,0.1-0.9,0.2c-0.3-0.1-0.6-0.2-0.9-0.3
				C354.9,43.1,357.2,40.1,360.3,37.4z"/>
			<path class="st8" d="M392.2,48.3c-5,0-10-0.1-15-0.1c0.3-0.3,0.7-0.6,1-0.9c6,0,12,0,17.9,0c0,0.3,0,0.7,0,1
				C394.9,48.3,393.5,48.3,392.2,48.3z"/>
			<path class="st107" d="M350.3,39.3c1.4,2.5,0.8,5.2,1,7.9c-0.7,0-1.4,0.1-2.1,0.1C349.8,44.7,348.4,41.8,350.3,39.3z"/>
			<path class="st108" d="M353.3,47.2c0-2.6,0-5.2,0-7.7c0-1.4-0.5-2.1-2-2c0.4-0.9,1.2-1.1,2-1.1c3,1.2,1.1,3.7,1.4,5.5
				c0.2,2.1,0.5,4.2-0.3,6.3l-0.1,0.2C353.9,47.9,353.6,47.6,353.3,47.2z"/>
			<path class="st109" d="M346.3,37.4c0-0.4,0-0.7,0.1-1.1l0,0c2.4,0.3,1.4,2.2,1.4,3.4c0,2.8,0.5,5.6-0.3,8.4l-0.2,0.2
				c-0.3-0.4-0.6-0.8-0.9-1.2C345.6,43.9,345.6,40.7,346.3,37.4z"/>
			<path class="st8" d="M333.3,46.3c0,0.7,0,1.3,0.1,2c-2,0.1-4.1-0.3-5.9,1.2c-1.3,1.1-1.9,0.1-2.1-1.2c0.3,0,0.7,0,1,0
				c0.6-0.7,1-1.5,1.9-1.8c1.3-0.3,2.6-0.5,3.9-0.7C332.6,45.8,333,46,333.3,46.3z"/>
			<path class="st110" d="M346.3,37.4c0,3.2,0,6.5,0.1,9.7H346l-0.4-0.1C345.7,43.9,344.3,40.5,346.3,37.4z"/>
			<path class="st111" d="M332.4,32.4c0,0.4,0,0.7-0.1,1.1c-1.8,1.3-3.8,1.7-5.9,1c-5.4-2-5.9-1.8-6,3.9c-0.1,3.3,0,6.5-0.1,9.8
				c-1.8-2.1-0.6-4.6-0.9-6.9c-0.3-1.7,0.6-3.6-1-4.9c-1.2-1.8-3-0.9-4.6-0.8c-4.1,0.3-8.3,0.1-12.1,0.2c5.3,0.9,11.1-0.6,16.7,0.6
				c0,0.4,0,0.7-0.1,1.1c-1.2,3.2,0.2,6.6-0.8,9.7c-7.4,0.1-14.7,0.1-22.1,0.2c-1-1-2-2-3-3c0-0.3,0-0.7,0.1-1
				c2.4-0.3,2.5-2.3,3-3.9c0-0.7,0-1.4-0.1-2.1c0.3-1.6-1.3-1.9-2-2.9c1.4-1.7,3.6-1.7,5.4-1.8c10.3-0.5,20.5-1.8,30.8-1.1
				C330.7,31.5,331.7,31.6,332.4,32.4z"/>
			<path class="st112" d="M295.4,39.4c-0.6,1.4,2.3,1.9,0.8,3.6c-1.2,1.4-2.4,1.1-3.8,0.3C292.3,41.1,292.3,39,295.4,39.4z"/>
			<path class="st113" d="M382.2,44.4c-2-3.2-1-5.2,2.7-5.1s7.5-1,11.1,0.9c-1,0-2-0.1-3,0.1c-1.5,0.3-3.8-0.9-4.3,1.2
				c-0.4,2,2.6,1.2,3.6,2.9C388.8,44.4,385.5,44.4,382.2,44.4z"/>
			<path class="st114" d="M190.2,71.6c0.3-2.8,1-3.1,3-2.1c1.5,0.7,2.5-0.4,3.5-1.2c2.6-1.9,5.1-1.1,5.5,2.1c0.3,2.3-0.4,4.6-2.6,6
				c-2.1,1.3-4.4,0.8-6.6-0.1C190.6,75.2,190.6,73.1,190.2,71.6z"/>
			<path class="st115" d="M217.7,69.2c2.9,0.2,4.6,2.4,6.7,4c0.6,2.4,0.3,5,2.1,7c-2.1,1.7-2.6,1.9-3.3,0.4
				c-1.4-3.4-4.1-2.7-6.7-2.9c-1.1-0.4-2.4-0.6-1.7-2.3C216.1,73.3,217.4,71.5,217.7,69.2z"/>
			<path class="st116" d="M152.1,144.6c2.2-1.2,3.5-4.9,6.4-2.7c1.2,1,1.5,3.3,0,4.9C155,150.6,154.5,145,152.1,144.6z"/>
			<path class="st59" d="M214.9,75.3c0.1,0.7,1.6,0.5,1.2,1.7c1.3-0.3,2.7-0.6,3.1,1.3c0.3,1.5-0.4,2.6-1.8,3.1
				c-1.6,0.7-3.2,0.8-4.7-0.3c0-1,0-2,0-3C213.2,77,213.4,75.6,214.9,75.3z"/>
			<path class="st117" d="M212.7,81.1c1.1-0.2,2.3-0.5,3.4-0.5c1.3,0,2.3-0.3,2.4-1.8c0.1-1.6-1.2-1.7-2.4-1.9
				c2.9,0.3,7.3-3.4,7.9,3.1c0.1,1.4,1.6,1.2,2.5,0.1c0.3-0.1,0.7-0.2,1-0.3c0.7,1.9,3.2,3.2,2.5,5.8c-2,0.1-1.1-2.2-2.4-2.6
				c-1.7-1.5-3.4-1.3-5.1,0c-3.2-1.2-6.1,0-9,1.1C213.2,83.1,213,82.1,212.7,81.1z"/>
			<path class="st118" d="M250.5,90.7c-4.6,0.8-5.2-3.9-7.9-5.7c-0.7-0.9-0.4-1.9-0.2-2.9c-0.4-1.4-0.7-2.8-1.1-4.3l-0.1-0.5
				l0.4-0.3c1.1-1.5,3.1-2.3,3.8-4.3C245.6,79.3,245.2,85.8,250.5,90.7z"/>
			<path class="st119" d="M238.5,69.2c1.3-2.1,2.9-2.4,4.9-0.8C242.4,72.4,240.7,72.1,238.5,69.2z"/>
			<path class="st120" d="M241.6,77.1c-0.1,0.3-0.2,0.5-0.3,0.8c-1.4,0.2-2.9,0.6-4-0.8C238.8,73.8,240.2,74.1,241.6,77.1z"/>
			<path class="st121" d="M234.5,83.1c-1.2-0.7-0.7-2-0.9-3c3.1-1.3,3.7,1.5,5.1,3.1c0.5,0.6,0.5,1.2,0,1.9
				C236.9,85.3,236,83.5,234.5,83.1z"/>
			<path class="st122" d="M238.7,85c0-0.6,0-1.3,0-1.9c1-1.1,2.4-1.2,3.8-1c0.6,0.9,0.9,1.9,0.2,2.9C241.3,85.8,240,85.8,238.7,85z"
				/>
			<path class="st79" d="M179.7,34.4c0-0.3,0-0.6,0-1c9.2,0,18.5,0,27.7,0c7.2,0,7.2,0,7.2,7c0,1,0,2,0.1,3c-2.3,4-6.1,1.1-9,2v-0.1
				c-1.7-1-3.3-2.2-4.7-3.6c-1.6-1.6-2.9-3.4-1.7-5.7c1.1-2,3.3-0.9,5-1.1c1.4-0.2,2.3,1.2,4.5,1.2c-3.7-1.4-6.6-1.2-9.7-0.9
				C192.6,35.7,186.1,37,179.7,34.4z"/>
			<path class="st123" d="M224.8,27.7c0,0.5-0.1,1.1-0.1,1.6c0,3.7,0,7.3-0.1,11c-5.1-1.6-3-4.9-2-8
				C225.1,31.5,222.3,28.4,224.8,27.7z"/>
			<path class="st124" d="M177.7,28.4c0-0.3,0-0.6,0-0.9c4.3,0,8.5,0,12.8,0c0,0.3,0,0.6,0,0.9C186.2,28.4,182,28.4,177.7,28.4z"/>
			<path class="st125" d="M212.6,26.5c0.3,0,0.7,0,1,0c0.7,0.4,1.3,0.9,2.9,1.9c-3.6-0.4-6.3,1.1-9.3-0.5
				C209.2,26.9,211.3,28.1,212.6,26.5z"/>
			<path class="st126" d="M179.7,34.4c10.6,0,21.1,0,31.9,0c-0.2,1.9-2.3,1.7-2.8,3c-0.8,2.3-2.1,2.2-2.8,0.2
				c-0.9-2.4-2.5-2.3-4.3-2.2c-1.2,0.1-1.8,0.7-1.9,1.8c-0.1,1.9,1.1,3.1,2.6,3.9c1.8,0.9,2.5,2.6,3.3,4.2c-6.3,0-12.5,0.1-18.8,0.1
				C178.6,45.3,176.8,42.5,179.7,34.4z"/>
			<path class="st127" d="M151.7,28.5c0.4-0.3,0.7-0.7,1.1-1c0,8.6,0,17.2,0,25.8c-0.3,0-0.7,0-1,0.1v-0.1
				c-0.7-7.6-0.6-15.3-0.1-22.9C151.7,29.7,151.7,29.1,151.7,28.5z"/>
			<path class="st38" d="M151.7,30.4c0,7.6,0,15.3,0.1,22.9C150.2,45.6,150.2,38,151.7,30.4z"/>
			<path class="st128" d="M161.8,54.2c0-8.2,0-16.5,0-24.7c0.4,0,0.7,0,1.1,0c0,7.6,0,15.1,0,22.7C162.7,53,162.6,53.8,161.8,54.2z"
				/>
			<path class="st68" d="M155.8,53.2c0-8,0-16,0-23.9c0.3,0,0.6,0,1,0c0,8,0,16,0,24C156.5,53.2,156.1,53.2,155.8,53.2z"/>
			<path class="st129" d="M158.8,53.2c0-7.9,0-15.8,0-23.7c0.3,0,0.7,0,1,0c0,7.9,0,15.8,0,23.7C159.5,53.2,159.1,53.2,158.8,53.2z"
				/>
			<path class="st130" d="M276.3,25c-0.9-0.1-2-0.1-2.1-1.1c-0.1-1.3,0.9-1.6,1.9-1.6c0.8,0,1.8,0.1,2,1
				C278.3,24.7,276.8,24.4,276.3,25z"/>
			<path class="st131" d="M332.4,32.4c-13.1-0.7-26,0.7-38.9,2c-1-0.7-1.9-1.4-2.9-2c20.2-2.3,40.5-3,60.8-1
				c0.3,0.2,0.3,0.4,0.3,0.7c-0.1,0.2-0.2,0.3-0.3,0.3c-0.3,0-0.6,0-1,0c-0.7,0.4-1.6,1.1-2.2,0.8c-3.7-1.4-5.9,0.4-7.8,3.1
				c0-0.3-0.1-0.6-0.1-0.9c0.3-1.9-0.2-3.2-2.5-3.1C335.9,32.4,334.1,32.4,332.4,32.4z"/>
			<path class="st107" d="M351.3,32.4c0-0.3,0-0.7,0-1c0.7,0,1.3,0,2,0c2.4,0.3,4.9,0.6,7,2c-4.4-0.6-4.5,2.7-5,5.6
				c-0.5,3,1,6.2-0.9,9.1c-0.7-3.9,1-8-1-11.8C353.8,34.5,352.4,33.5,351.3,32.4z"/>
			<path class="st102" d="M340.3,36.4c1.6-5.8,6.3-3.7,10.1-4c-2.3,3.1-2.1,6.7-2.1,10.2c0,1.8,0.8,3.9-0.8,5.5
				c-0.6-3.9,1.1-8-1.1-11.8c0-1.3,0.1-2.8-1.8-2.9c-1.8-0.1-1.8,1.2-2.4,2.5c-1.3,3.3-0.5,6.8-1.9,10.2
				C340.3,42.9,340.3,39.6,340.3,36.4z"/>
			<path class="st132" d="M338.5,47.1c0.1-3.2-1.2-6.6,0.8-9.7C339.1,40.6,340.2,44,338.5,47.1z"/>
			<path class="st133" d="M326.4,34.5c1.8-1.3,3.9-1.2,5.9-1c1.7,4.2,1,8.5,1,12.8c-0.3,0-0.6,0-0.9,0c-2-1.5-0.9-4-2.1-6.4
				c-1.3,2.6-0.1,5.4-1.9,7.3c-0.7,0.4-1.4,0.7-2.1,1.1C326.4,43.7,326.4,39.1,326.4,34.5z"/>
			<path class="st134" d="M360.3,37.4c-2.1,3-4.2,5.9-1.8,9.7c-2.4-1.7-3-9.6-0.8-11.1C359.1,35.1,359.7,36.3,360.3,37.4z"/>
			<path class="st135" d="M317.5,47.1c0.2-3.3-1.2-6.6,0.8-9.7C318.1,40.6,319.3,44,317.5,47.1z"/>
			<path class="st136" d="M328.5,47.2c0-2.6,0-5.2,0-7.8c0-1.1,0.5-1.9,1.7-2c1.5-0.1,2,0.7,2.1,2.1c0.1,2.3,0.1,4.5,0.2,6.8
				C331.4,47.8,329.9,47.1,328.5,47.2z"/>
			<path class="st11" d="M318.4,36.3c-6.7,1.5-13.4,1.6-20.3-0.2c1.8-2.3,4.1-1.7,6.1-1.8c4-0.3,7.9,0.5,11.9-0.7
				C318.4,33,318.3,34.9,318.4,36.3C318.4,36.4,318.4,36.3,318.4,36.3z"/>
			<path class="st137" d="M299.6,39.3c2.8,1.2,6.8-2.5,8.6,2.1c0.7,1.8-0.1,3.6-2.6,3.8C301.4,45.6,299.7,43.4,299.6,39.3z"/>
		</g>
	</g>
</g>
</svg>
