<?xml version="1.0" encoding="utf-8"?>
<!-- Generator: Adobe Illustrator 25.0.0, SVG Export Plug-In . SVG Version: 6.00 Build 0)  -->
<svg version="1.1" xmlns="http://www.w3.org/2000/svg" xmlns:xlink="http://www.w3.org/1999/xlink" x="0px" y="0px"
	 viewBox="0 0 738 127.1" style="enable-background:new 0 0 738 127.1;" xml:space="preserve">
<style type="text/css">
	.st0{display:none;}
	.st1{display:inline;stroke:#FFFFFF;stroke-miterlimit:10;}
	.st2{fill:#DDDEDD;}
	.st3{fill:#5C6668;}
	.st4{fill:#7D8484;}
	.st5{fill:#D4D7D8;}
	.st6{fill:#252625;}
	.st7{fill:#2E2F2D;}
	.st8{fill:#8B8D87;}
	.st9{fill:#242525;}
	.st10{fill:#626462;}
	.st11{fill:#1E201F;}
	.st12{fill:#61635D;}
	.st13{fill:#292929;}
	.st14{fill:#B7BAB9;}
	.st15{fill:#060606;}
	.st16{fill:#1A1A1A;}
	.st17{fill:#3C4040;}
	.st18{fill:#999C99;}
	.st19{fill:#151615;}
	.st20{fill:#475052;}
	.st21{fill:#202120;}
	.st22{fill:#BFC2C1;}
	.st23{fill:#CBCDCB;}
	.st24{fill:#222323;}
	.st25{fill:#101110;}
	.st26{fill:#3E403F;}
	.st27{fill:#121312;}
	.st28{fill:#616461;}
	.st29{fill:#626562;}
	.st30{fill:#636562;}
	.st31{fill:#353634;}
	.st32{fill:#424441;}
	.st33{fill:#4D4F4A;}
	.st34{fill:#484A48;}
	.st35{fill:#434441;}
	.st36{fill:#6A6C67;}
	.st37{fill:#292A29;}
	.st38{fill:#767973;}
	.st39{fill:#AAADAB;}
	.st40{fill:#3A3C3B;}
	.st41{fill:#848680;}
	.st42{fill:#2F3130;}
	.st43{fill:#FBFBFB;}
	.st44{fill:#252726;}
	.st45{fill:#1F201F;}
	.st46{fill:#282A29;}
	.st47{fill:#424443;}
	.st48{fill:#C7CAC8;}
	.st49{fill:#424543;}
	.st50{fill:#535553;}
	.st51{fill:#656865;}
	.st52{fill:#3F4240;}
	.st53{fill:#656866;}
	.st54{fill:#646764;}
	.st55{fill:#747774;}
	.st56{fill:#747773;}
	.st57{fill:#757874;}
	.st58{fill:#353736;}
	.st59{fill:#5F6260;}
	.st60{fill:#464947;}
	.st61{fill:#5A5D5B;}
	.st62{fill:#454746;}
	.st63{fill:#606360;}
	.st64{fill:#4E504E;}
	.st65{fill:#363837;}
	.st66{fill:#6D706D;}
	.st67{fill:#5E615E;}
	.st68{fill:#5D605D;}
	.st69{fill:#7D807D;}
</style>
<g id="Camada_2" class="st0">
	<rect x="-326" y="-168.9" class="st1" width="1209" height="494"/>
</g>
<g id="Camada_1">
	<g>
		<path class="st2" d="M715.9,26.4c1.6-2.2,2.9-0.1,4.2,0.4c6.1,2.5,11.5,6.3,17.9,8.3c0,0.7,0,1.3,0,2c-2.7,0.3-2.5,2.9-3.2,4.6
			c-6.6,15.1-16.2,28-27.2,40.1c-2.2,2.4-3.6,5.6-6.7,7.3c-1.4-1.7-0.8-3.4,0.5-4.4c7.2-5.6,8.9-14.2,12.2-21.8
			c3.8-8.6,8.3-17,11.5-25.9c0.8-2.4,1.2-4.1-1.5-5.3c-1.1-0.4-2.1-0.9-3.2-1.4C718.8,29,716.3,29,715.9,26.4z"/>
		<path class="st3" d="M3.1,100.1c-2.2-2.2-0.7-5.8-3-8c0-0.7,0-1.3,0-2c3.1-2.5,7.1-2.8,10.4-4.6c0.6,2.2-0.3,4.3-0.1,6.5
			c-1.4,4.7,0.4,8.8,2.3,13c2.1,4.4,1.3,5.4-3.8,6.3c-1.5-1-2.7-2.2-3-4.1C6.1,104.3,6.3,101.5,3.1,100.1z"/>
		<path class="st4" d="M9.9,85c-1.1,0.6-1.6,1.5-1.8,2.8c-0.3,2.1-0.8,4-3.2,1.6c-2-2-3.1,1.3-4.8,0.7c0-1.3,0-2.7,0-4
			c2.9-2.4,1.7-7.3,5.7-9c0.9-0.4,1.8-0.8,2.7-1.3c2.2-1.1,4.5-0.7,6,0.9c1.9,2.1-0.6,3.5-1.7,5c-0.6,0.8-1.2,1.6-1.7,2.4
			C10.8,84.5,10.4,84.8,9.9,85z"/>
		<path class="st5" d="M620.1,126.1c0,0.3-0.1,0.6-0.1,0.9c-7.7,0-15.3,0-23,0c0-0.3-0.1-0.6-0.1-0.9c0.9-1.1,2.2-1.6,3.5-1.6
			C606.9,124.9,613.7,122.7,620.1,126.1z"/>
		<path class="st6" d="M24,66.8c11.4-5.1,23.4-8,35.4-11.1c21.5-5.6,43.2-10,65.2-12.8c0.5-0.1,1,0,1.5,0c0.3,0.4,0.4,0.8,0.3,1.3
			c-0.9,1.6-2.5,1.9-4.1,2c-1.6,0.2-2.8,0.6-2.9,2.5c-1,3.4-2.8,4-5.5,1.7c-2-2.6-4-2.9-6.1,0c-1.2,3.4-2.9,5.1-6.6,2.6
			c-2-1.3-3.9-1.3-5.3,1.3c-1,2-3,3-4.8,1.1c-3-3.3-4.9-1.2-6.6,1.1c-1.2,1.6-2.2,2.8-4.4,2.3c-4.4-3.6-4.4-3.6-7.7,0.9
			c-1.4,1.9-3.1,2.6-5,0.9c-2.8-2.6-4.7-1.4-6.3,1.4c-1.7,2.9-3.7,3.2-5.7,0.2c-1.5-1.8-2.9-1.2-4.3,0.3c-0.3,0.3-0.6,0.6-1,0.8
			c-2.5,0.2,0.4,2.7-1.4,3.2c-2.8,0.7-3.7-0.9-4-3.1c-1.5,1.3-3.4,2.5-4.6,4.7c-1.7,3.3-3.8,3.4-5.7,0.1c-1.5-1.8-2.4-1.2-3,0.8
			c-1.8,5.4-2.9,5.6-7.2,1.7C23.6,69.4,23.4,68.1,24,66.8z"/>
		<path class="st7" d="M131.1,42.2c11.2-2.1,22.4-3.3,33.7-4.2c1.2-0.2,2.5-0.9,3.4,0.6c-0.2,1.1-1,1.9-1.9,2.1
			c-4.5,1.4-8.7,3.3-12.4,6.3c-4-3-7.7-3.4-10.9,1.2c-0.3,0.4-1,0.7-1.3,0.5c-3.4-2.2-7.9-0.1-11.2-2.8
			C129.9,44.5,130.1,43.3,131.1,42.2z"/>
		<path class="st8" d="M179.1,36.1c4.2,0,8.4-0.1,12.7,0c1.5,0,3.3-0.9,4.5,0.9c-3.3,2.9-7.3,0.9-10.9,1.6c-1.7,0.3-4-1.2-5.1,1.4
			c1.3,4.1,3,8.1,3.7,12.4c0.7,4.8,0.8,9.6,0.4,14.3c-0.1,1.1-0.3,2.5-1.8,2.4c-1.1-0.1-1.3-1.4-1.5-2.3c-0.5-2.8,0.1-5.6-0.5-8.4
			c-0.9-3.3-2.6-6.4-3.7-9.6c1-4.3-2.6-6.4-4.6-9.2c-0.9-2.1,1.6-1.3,2-2.4C175.5,36,177.4,36.6,179.1,36.1z"/>
		<path class="st9" d="M24,66.8c0.5,1,0.9,2.1,0.1,3.1c-0.5,1.8-1.8,3-3,4.3c-1.3,0.2-3.4-2.1-3.8,1.1c-2.2-0.2-4.4-0.3-6.7,0
			c-1,0.1-2,0-1.6-1.5C13.8,71.2,18.8,68.8,24,66.8z"/>
		<path class="st10" d="M9,74c1.2,2,2.6,0,3.9,0.1c1.5,0.1,3.2-1.2,4.2,1c1,0.5,2.1,0.7,2.9,1.6c0.3,0.4,0.4,0.8,0.3,1.3
			c-3.1,2.4-6.2,5.1-10.1,6.3c-0.1-3.1,3.3-3.9,4.2-6.3c-2.6-3-5.7-0.6-8.5-0.8C6.7,75.8,7.5,74.5,9,74z"/>
		<path class="st11" d="M131.1,42.2c0,1.3,0,2.5,0,3.8c-0.2,2-0.5,4.3-3,4.2c-2.3,0-2.3-2.3-2.7-4c0.1-0.7,0.3-1.4,0.7-2
			c0-0.4,0-0.8,0-1.3C127.6,42,129.3,42,131.1,42.2z"/>
		<path class="st12" d="M174,37.1c0.6,1.9-1.9,0.8-2,2c-0.3,0.6-0.9,0.8-1.5,0.9c-0.6,0.1-1.2,0-1.8-0.2c-0.4-0.2-0.6-0.5-0.8-0.9
			c-1-0.3-2.1-0.7-3.1-1C167.8,36.6,170.9,37.2,174,37.1z"/>
		<path class="st13" d="M715.9,26.4c1.7,1,3.3,1.9,5,2.9c0.1,1.4-0.9,1.4-1.9,1.4c-5.2-1.7-6.2-1-6.5,4.2c-0.2,3.4-3.3,5.2-4.9,7.9
			c-2,3.3-4.8,3.5-8.1,1.6c-1.4-0.8-3-0.5-4.1,0.6c-1.2,1.2-0.2,2.4,0.3,3.7c2.2,6,1,11.5-3.7,15.7c-3.5,3.1-6.5,6.7-9,10.6
			c-2.7,4.2-6.1,6.6-10.6,7.4c-4.3,0.8-8.7,1.2-13.1,0.5c-2.9-0.4-5.7,0.9-8.6,1.1c-3.4,0.3-5.1,0-4.9-3.8c0.1-1.3-0.6-2.6-2.7-2.5
			c-0.1,3.7,3.6,6.4,2.6,10.2c-0.2,0.4-0.6,0.8-1,1.1c-2.3,1.5-4.6,1.4-7.2,0.8c-5.1-1.2-10-1.4-14.8,1.6c-2.9,1.8-4.9,3.3-4.7,7.3
			c0.2,4-2.4,5.9-6.2,4.6c-4.3-1.5-10.5-0.6-11-5.7c0.8,3.4,0.5,3.9-4.5,3.2c-9.7-1.3-19.2,0.8-28.8,0.5c-2-0.1-4.1,0.2-5.9-0.6
			c-5.9-2.5-11.9-2.4-18.2-1.8c-4.5,0.4-8.5-1.8-10.7-5.9c-1.9-3.6-4.2-5.3-8.4-3.6c-3.6,1.5-7.6-0.1-11.4,0.4
			c-1.7,0.2-2.3-1.5-3.2-2.8c-2.6-3.6-5.8-3.3-7.8,0.5c-1.4,2.6-2.9,4.3-5.7,1.7c-1.6-1.5-3.2-1.1-5.1-0.7
			c-15.5,3.4-30.7,1.7-45.6-3.6c-3.1-1.1-4-5.2-6.8-5.2c-2.5,0.1-4,3.9-7,4.3c-5.5,0.6-11.1,0.6-16.4-0.3
			c-7.7-1.3-15.3-3.1-23.2-2.4c-1.2,0.1-2.7,0.3-3.4-0.4c-5.5-5.3-11.6-1.3-17.4-1.1c-2.5,0.1-5,0.8-7.4,0.2
			c-8.1-2.1-16.2-1.1-24.3-0.7c-6.7,0.3-13.2-0.4-19.8-1.7c-11.1-2.2-22.4-3.1-33.7-1.6c-4.1,0.5-8.1-0.3-11.8-1.3
			c-7.2-2-14.2-0.2-21.2,0.6c-2.6,0.3-5.2,0.9-7.9,0.8c-6.4-0.3-10.2,2.8-12.2,9c-1.2,3.7-3.4,6.8-6.3,9.5c-2.9,1.1-6,0.1-9,0.7
			c-0.5,0.2-0.9,0.4-1.3,0.8c-11.9,0.4-17.3,8.8-22.3,17.8c-1.2,2.2-1,6.1-4.3,5.8c-3.1-0.3-3.5-3.9-4.3-6.5c0.2-3.4-3-6.1-1.8-9.7
			c2.3-1.9,4.8-3.5,7.4-5.1c2.7-1.8,4.9-4.1,5.9-7.2c1.4-4.2,1.7-8.8,5.3-12.1c0.2-0.2,0.4-0.6,0.4-0.9c-1.5-9.3,4.2-18.8-0.9-28.1
			c-1.4-2.5-1-5.8-1.4-8.8c-0.4-3.2,2.2-4.6,5.2-4.6c14.1-0.2,28.1-2.9,42.2-2c-2.6-0.4-5.3,0.7-7.7-0.8c3.8-0.9,7.6-0.9,11.4-0.7
			c4.8,1,9.5,0.1,14.3,0.5c-2.9-0.3-5.8,0.7-8.6-0.7c12.2-1.6,24.6-1.5,36.9-1.7c79.4-1.5,158.8-2.7,238.3-4.3
			c39.1-0.8,77.1-8,114-20.7c10.9-3.8,20.3-3.8,30.7,1.9C689.2,15.1,702.7,20.4,715.9,26.4z"/>
		<path class="st14" d="M620.1,126.1c-7.7,0-15.5,0-23.2,0c-17.6-0.6-35-3.5-52.4-5.8c-14.5-1.9-28.9-3.7-43.4-5.3
			c-18.1-2-36.3-4-54.4-5.8c-12.5-1.2-25.1-2.2-37.7-3.2c-17.5-1.4-35.1-2.7-52.6-3.8c-13.3-0.9-26.5-1.5-39.8-2.2
			c-23.7-1.1-47.5-2.1-71.2-3.2c-0.8,0-1.5-0.5-2.3-0.8c0.5-2.6-1.5-3.2-3.2-4.2c-1.9-1.2-3.6-2.7-0.9-4.8c1.4-0.6,2.9-1.2,4.4-0.6
			c4.3,1.8,8.9,1.1,13.3,1.5c12.2,1,24.5,1.7,36.5,3.2c13.2,1.6,26.4,2,39.6,3.3c9.6,0.9,19.2,1.5,28.8,2.1
			c17.4,1,34.8,2.7,52.2,3.1c13.8,0.3,27.5,2.8,41.3,1.9c12.6-0.8,24.6,2.8,36.8,4.7c15.2,2.4,30.5,4.5,45.8,6.6
			c12.5,1.7,25,3.1,37.6,4.4c4.6,0.5,9.4,1.1,13.9,0.6c9.6-1.2,18.8,1.1,28.2,2.2c6.5,0.8,12.9,0.8,19.4,0.1c2.3-0.2,4.7-0.3,7-0.1
			c1.7,0.2,3.4,0.5,3.3,2.9C638,124.3,629.1,126.1,620.1,126.1z"/>
		<path class="st15" d="M168.1,88.1c-9.9-2.1-19.5-5.3-30.1-4.5c-11.5,0.8-22.1,4.1-32.7,8.1c-13,4.9-25.4,11.4-37.8,17.8
			c-9,4.6-17.8,9.4-27.4,12.6c-1.6,0.4-1.6-0.7-1.8-1.7c0-1.3,0.5-2.4,1.4-3.3c1.8-0.7,2.9-2.5,5.6-1.6c1.8,0.6,3.7-1,1.9-3.6
			c-0.6-0.9,0.5-1.3,1.1-1.8c1-0.6,1.9-0.3,2.8,0.2c1.2,0.7,1.8,3.2,4,1.1c1.5-1.4,1.8-2.8,0.7-4.5c-0.1-0.2,0.2-0.6,0.4-0.8
			c1.6-1.3,3.1-0.4,4.6,0.3c0.8,0.4,1.6,0.5,2.3-0.3c0.2-0.3,0.3-0.6,0.2-0.9c-0.5-0.9-1.3-1-2.1-0.7c-1.7,0.7-3.7,0.3-5.1,1.7
			c-2.1,2.5-5.3,3-8.1,4c-2.8,2.5-6.6,3.1-9.7,5.1c-7.6,3.7-15.4,1.6-19.5-5.3c1.3-2.7,3.1-1.2,4.5-0.2c4.8,3.2,9.3,3,14.6,0.6
			C58.4,101.1,78,89.6,99,81.1c20.2-8.1,40.8-12.1,62.5-7.3c1.6,0.4,3.3,0.5,4.7,1.6c1.4,1,1,1.9-0.3,2.6c-5.5,0-10.9-1.1-16.4-1.9
			c-2.9-1.7-5.8-0.4-8.6,0c-6.3,0.5-12.6,0-18.9,1.9c-5.9,1.8-11.7,4.6-18,4.9c-4.6,4-10.7,5-16,7.6c-5.6,2.8-11.3,5.3-16.7,8.4
			c-1.1,0.6-2.7,1-2.3,2.8c0.2,0.9,1.1,1.2,2,1.1c1.6-0.2,2.2-1.3,2.3-2.8c0.2-3.5,1.9-4.4,5-2.9c2.3,1.1,4,0.6,4.4-2
			c0.5-3.3,2-4.3,5.1-2.8c2.6,1.3,4.2,0.1,4.7-2.5c0.3-1.5,1.4-2.9,2.6-2.3c5.3,2.5,6.9-1.6,9.2-4.7c0.8-0.2,1.8-0.6,2.4-0.1
			c3.2,2.4,5.5,2.4,7.1-1.9c0.7-2,2.7-1.7,4.3-0.8c2.4,1.3,4.1,0.5,5.6-1.4c0.5-0.6,1.1-1.9,1.7-1.7c4.7,1.3,9.3-0.3,13.9-0.2
			c1.7,0,3.4,0.8,5.2-0.1c1.3-0.6,2.4-1.6,4-1c2.3,1.9,4.6,2.8,7.6,1.3c3-1.4,4.2,0.3,4.5,3.1c0,3,2.5,3.1,4.5,3.7
			c2,0.5,4.1,1.1,4.9,3C170.6,88.6,169.5,88.8,168.1,88.1z"/>
		<path class="st15" d="M179,40.2c-1.1-1.4-3.4-3,0.8-3c5.5,0,10.9-0.2,16.4-0.3l-0.1,0.2c0.3,1.5-0.9,1.7-1.8,2.1
			c-4.9,0.7-4.8,0.7-3.2,5.3c3.9,10.8,5.2,21.8,2.7,33.1c-1,4.3-2.7,8.2-5.7,11.4c-2.9,3.1-5.1,6.8-8.9,9c-1.5-2.2-2.6-4.8-5.1-6.2
			c0-0.9,0.6-1.2,1.3-1.4c5.4-2.1,6.3-7,7.6-11.8c0.1-0.7,0.3-1.4,0.6-2.1c1.1-1.6,1.1-3.4,1.2-5.2c0.2-4.9,0.7-9.7,1.3-14.6
			C186.7,50.7,184,44.6,179,40.2z"/>
		<path class="st16" d="M179.2,98c1-3.1,3.4-5.2,5.7-7.3c8.5-7.9,9.3-18.4,8.7-28.9c-0.4-7.1-1.9-14.4-5.6-20.9
			c-1-1.8-0.7-2.8,1.6-2.8c1.5,0,3,0,4.5,0c5.3,6.9,5.9,15.2,6.4,23.4c0.2,3.1-0.1,6.3-0.1,9.4c-0.1,11-4.9,19.8-13.1,26.8
			c-2.2,1.8-3.6,3.6-4.2,6.3c0.7,3,3.2,5.6,1.9,9C183.1,108,181.2,103,179.2,98z"/>
		<path class="st17" d="M19.1,110c5.6,4.8,11.5,8.4,19,4c2.4-0.1,2.4,1.3,2,3c-0.3,1-0.7,2-1,3c-1.9,2.8-5.4,2.4-8,3.9
			c-7.8,0.6-13.3-4-18.7-8.6c-1.4-1.1-2.3-2.8-3.5-4.1c5.6-2.3,3.1-5.9,1.1-8.9C7.7,98.9,8.8,95.5,9.1,92c0.7-0.1,1.4,0.2,1.6,0.9
			C11.9,99.4,15.8,104.6,19.1,110z"/>
		<path class="st18" d="M238.1,88.1c0,3,2.7,2.7,4.3,3.7c1.8,1.1,4.9,2.3,0.6,4.3c-9,0-18-0.1-27-0.1c0-0.2,0.1-0.5,0.1-0.7
			c4.5-1.6,9.4,0,13.8-1.6c1.5-0.1,2.9,0.1,4.3,0.5c-0.5-3.4,0.1-6.4,2.4-9.1c0.9-0.5,1.5-0.1,1.9,0.7
			C238.8,86.7,238.6,87.4,238.1,88.1z"/>
		<path class="st19" d="M175.1,91c-0.3,0.2-0.6,0.5-1,0.7c-2-1.2-4-2.5-6.1-3.7c0.5-2.8-1.7-2.7-3.4-3c-2.9-0.5-6.2-0.6-5.5-5
			C166.2,79.4,171.7,83.1,175.1,91z"/>
		<path class="st20" d="M3.1,100.1c4.1-0.2,5,1.9,2.9,7C4.5,105,3.7,102.6,3.1,100.1z"/>
		<path class="st21" d="M31.1,123.9c1.7-3.2,5.4-2.5,8-3.9c0.1,0.8,0.3,1.6,1,2C37.4,123.9,34.3,124.2,31.1,123.9z"/>
		<path class="st22" d="M238.1,88.1c0-0.7,0-1.3,0-2c0.8-1.9,2.4-2.2,4.2-1.9c25.3,4.1,50.8,4.7,76.3,6.9c26,2.3,52.1,3.8,78.2,4.9
			c17.7,0.8,35.5,2.5,53.2,2.9c6.5,0.1,12.9-0.4,19.4,0.5c7.2,1.1,14.3,2.8,21.4,4c29.6,4.8,59.3,8.6,89.1,11.6
			c6.2,0.6,12.5,0.8,18.9,0c5.4-0.7,10.8,1.3,16.2,2c10.8,1.5,21.2-0.1,31.7-2.1c6-1.1,9.2-5.6,12.7-9.8c1.1-2,2.7-3.7,4.8-4.5
			c2.8-1.1,4.9-3,6.9-5.1c3.8-1,6-4,8.1-7c1.2-1.4,2.3-3.1,4.4-3.3c3.1-0.2,4.2-2.9,5.9-4.8c1.1-1.2,2.2-2.9,4.1-2.4
			c2.3,0.6,2,2.7,2,4.6c0.1,6.3-2,11.6-6.2,16.2c-1.6,1.7-3.4,3.2-4.7,5.1c-11,9.7-23.2,16.8-38,18.9c-2.5-3.3-6.3-1.8-9-1.4
			c-8.9,1.3-17.8,1.2-26.2-0.8c-9.2-2.1-18.3-1.1-27.4-1.6c-14.9-0.8-29.6-2.3-44.4-4.7c-11.6-1.9-23.3-2.5-34.9-4.4
			c-6-1-12-2.1-18-3.2c-8.1-1.5-16.3-2.5-24.4-4.2c-2.8-0.6-6.1,0.2-9.3,0.3c-20.7,0.2-41.3-2.4-61.9-2.8
			c-14.2-0.3-28.4-1.7-42.6-2.9c-15.3-1.3-30.8-1.7-46.1-3.2c-11.5-1.1-23.2-1.3-34.4-3.2c-8.5-1.4-17.4,0.5-25.6-3
			C241.6,87.1,239.7,87.9,238.1,88.1z"/>
		<path class="st23" d="M684.9,104c2.1-4.8,7.2-7.7,8.3-13.3c0.5-2.7,2.2-5.1,1.4-8.1c-0.3-1.3,1.1-3.3-1-3.8
			c-1.5-0.3-2.3,1.6-3.3,2.6c-1.8,2-2.5,5.5-6.3,4.8c-0.7-2.6,3-3,2.6-5.5c0.5-1.6,1.5-2.8,3-3.6c6.8-2.5,10.4-8.3,14.3-13.7
			c0.2-0.4,0.4-0.8,0.7-1.2c1.3-1.7,2.6-3.3,3.1-5.5c0.7-3.3,2.3-6,5.6-7.5c2.3-1.1,3.4-3.4,3.9-5.9c1.9-2.8,2.6-5.6-0.5-8.1
			c0.5-1.4,1.8-2,3-2.7c1.4-0.7,3-1.1,4.1-2.3c2.9,1.5,4.9,2,2.8,6.8c-4.4,10-9.6,19.8-13.4,30c-2.6,7.1-5.2,13.8-11.3,18.7
			c-1,0.8-0.9,2.1-0.9,3.2C696.3,94.8,690.4,99.1,684.9,104z"/>
		<path class="st24" d="M183.1,104.1c-1.4-2.9-1-4.3,2.2-6.5c8.2-5.6,12.8-14,13.7-24.1c1-12.1-0.3-23.9-4.9-35.2
			c0.8-0.1,1.6-0.3,2-1.1c14.5-1.4,28.9-3.4,43.5-3.2c2.8,0.1,5.6,0.3,8.3,0.4c-6,1.2-12.1,0.8-18.1,1.6c-7.7,1-15.5,0.8-23.3,1.2
			c-5,0.2-5.7,1.9-4.7,6.8c1.2,6.1,2.6,12.1,4.1,18.1c0.3,1.1-0.3,1.9-0.9,2.7c-2.1,2.7-2.2,5.6-1.2,8.9c0.9,3.3,1,6.6-2.9,8.5
			c-2.9,1.4-2,5.1-2.1,6.9c-0.3,4.1-2.9,6.6-5.1,8.5C190.6,100.2,187.3,103.2,183.1,104.1z"/>
		<path class="st25" d="M256.7,33c3.1,0.1,6.2,0.3,9.3,0.4c-5,0.2-10,1.8-14.9-0.2C253,33.1,254.9,33.1,256.7,33z"/>
		<path class="st26" d="M723.7,30.3c0.2,2.7-1.8,2.8-3.7,3.1c-1.4-0.7-2.1-1.7-1.1-3.2c0.8,0,1.5-0.1,1.9-0.9
			C721.8,29.6,722.8,29.9,723.7,30.3z"/>
		<path class="st27" d="M19.1,110c-6.3-4.4-7.9-11.3-9.9-18c-0.5-2.4,0.5-4.7,0.7-7c0.1-0.3,0.2-0.5,0.3-0.8
			c2.8-3.1,6.6-4.8,9.9-7.2c3.6-4,9.1-4.7,13.7-6.1c5.4-1.6,10.5-4.3,16.2-4.9c4.7-2.5,10.2-2.5,15.2-4c3.7-1.1,7.5-2.2,11.4-3
			c3-0.1,5.8-0.3,8.6-1.8c3.8-2.1,8.4-1.7,12.5-2.2c6.1-0.7,11.8-2.7,17.8-3.4c5.4-0.6,11.2-0.4,16.5-2.5c0.6-0.2,1.3-0.4,2-0.3
			c6.9,0.4,13.5-2.7,20.4-2c5.5-2.3,11.3-2.1,17.1-1.9c2.3,0.4,4.7,0.7,5.5,3.4c2.1,2.6,3.5,5.6,4.3,8.9c0.9,4.9,0.1,9.9,1,14.8
			c0.4,2.3-0.6,5-3.2,6.3c-3.4-2-1.1-4.6-0.5-6.8c1.9-7,0-17.3-4.4-21.7c-0.5-0.4-0.7,0.9-0.3,0.3c0.1-0.1,0.2-0.1,0.3,0
			c4.5,2.3,4.2,6.9,4.7,10.7c0.9,6.2,1.3,12.7-6,16.2c-1.5,0.7,1.7,1.5,0.1,2.4c-2.8,0.7-5.5,1.1-6.9-2.3c-1.7-2.6-4.4-1.6-6.7-2.1
			c-20.6-4.7-40.1-0.3-59.2,7.2c-21.5,8.5-41.5,20.3-62.5,29.9c-6,2.7-10.8,2.3-15.6-1.6C21.1,109.7,20.2,108.5,19.1,110z"/>
		<path class="st28" d="M154.1,47.2c-8.4,1.3-16.8,2.7-25.3,3.9c-16,2.2-32,4.8-47.8,8.6c-1.6,0.4-3.3,0.4-4.9,0.6
			c-0.8-5,2.6-1.2,3.9-1.8c1.5-0.2,3.1-0.2,3-2.4c-0.1-3,2.9-2.1,4.2-3.2c2.4-2.1,3.1,0.3,4.2,1.8c1.5,2,2.9,1.1,3.4-0.8
			c1.2-4.7,5.5-3.3,6.8-1.9c3.9,4.2,3.9-0.2,5.2-1.7c2.3-0.8,4.5-2,7.1-0.8c0.6,1.1,1.2,2.3,2.9,1.8c1.5-0.4,1-1.8,1.2-2.8
			c2.2-2.5,5.1-1.7,7.8-1.9c2.1,6,3.5,2,5.1-0.3c3.2,1.1,7.1-2,9.8,1.8c0.1,0.2,1.3,0,1.7-0.4c5.5-4.6,6.5-4.7,11.5-1.2
			c0.3,0.2,0.4,0.4,0.3,0.6C154.3,47.1,154.2,47.2,154.1,47.2z"/>
		<path class="st29" d="M80,58.3c-0.8,1.7-3.9-1.6-3.9,1.8c-8.7,2.2-17.3,4.5-26,6.7c-0.3-0.3-0.5-0.8-0.5-1.2
			c-0.2-0.9-0.4-1.9,0.4-2.6c0.1-0.3,0.1-0.5,0.2-0.8c1.8-1.4,3.8-1.3,5.9-1c1.3,2.4,2.5,3.8,4,0.1c1.7-4,5-4.7,7.9-1.7
			c1.7,1.9,3.3,1.2,3.4-0.6c0-4.2,3-3.6,5.4-4.2C79.6,54.2,78.7,57.3,80,58.3z"/>
		<path class="st30" d="M50.1,66.1c0,0.2,0,0.5,0,0.7c-10,3.4-20,6.8-30,10.2h0.1c-0.7-1.3,0-2.2,0.9-3.1c-0.4-2.4,1.5-3.2,3.1-4
			c0.5,0.1,0.9,0.2,1.4,0.4c1.3,0.3,1.3,3,3.4,1.7c1.7-1,0.8-2.6,1.2-4c1.5-1.1,3.1-1.6,5-1c1,1.3,1.6,4.7,3.9,1.1
			c3.4-5.5,3.3-5.5,8.5-2.2c0.3,0.2,1-0.1,1.5-0.1C49.4,65.5,49.8,65.6,50.1,66.1z"/>
		<path class="st31" d="M126,46.3c-2.3,1.9-5.2,1.1-7.8,1.9c-0.2-1.9,0.4-3.2,2.6-3.1c1.8,0.1,3.6,0,5.2-0.9
			C126,44.9,126,45.6,126,46.3z"/>
		<path class="st32" d="M114,49.2c-2.3,0.4-4.6,1.4-7.1,0.8c-0.1-4,3.9-0.9,5.3-3C112.7,46.3,113.5,48.3,114,49.2z"/>
		<path class="st33" d="M56,61.2c-1.8,1.1-3.9,0.9-5.9,1C51.7,59.2,53.6,58.9,56,61.2z"/>
		<path class="st34" d="M35.1,67.1c-1.5,0.9-3.2,1-5,1C31.4,65.7,32.8,64.2,35.1,67.1z"/>
		<path class="st35" d="M50.1,66.1c-0.4-0.1-0.8-0.1-1.2-0.2c-0.9-1.1-2.6-2-1.7-3.6c1-1.6,1.7,0.7,2.7,0.6
			C50,64,50.1,65.1,50.1,66.1z"/>
		<path class="st36" d="M154.1,47.2c0-0.3,0-0.6,0-0.8c2.6-6.2,9.4-4.6,13.9-7.4l0.1,0.3c0.8,2.4-1.1,3.2-2.6,4.3
			c1.6,0.8,3.3,0.1,4.8,0.6c0.9,0.3,1.9,0.6,1.8,1.9C166.1,46.4,160.1,46.8,154.1,47.2z"/>
		<path class="st37" d="M179,40.2c4.1,0.7,5.7,4.1,6.5,7.3c1.2,4.2,3.5,8.2,0.9,13.2c-1.5,3.1-0.4,7.5-0.4,11.3c0,2,0.2,4-1.9,5.2
			c-1.7-2.3-0.4-4.8-0.3-7.2c0.2-5.5,0.4-10.9-0.1-16.4c-0.3-0.8-0.4-1.6-0.8-2.3C181.6,47.6,180.3,43.9,179,40.2z"/>
		<path class="st38" d="M183,51.3c0.4,0.3,0.8,0.5,1.1,0.8c0.6,8.5,1.3,17-1.1,25.4c-1.1,3.9-2.4,4.5-5.5,2.5c0-0.6,0.1-1.2,0.6-1.7
			c3.2-2.6,2.9-6.4,3-9.9c0.2-3.8,0-7.5,0-11.3c2.1,3.4,0.2,7.2,1.8,10.7C183,62.3,183,56.8,183,51.3z"/>
		<path class="st39" d="M172.1,46c-0.7-0.3-1.3-0.7-2-1c-2.8-1.9-2.3-3.8,0-5.8c0.6-0.1,1.2-0.1,1.8-0.2c4.6,2.1,6.8,6.2,4.9,9.2
			C175.3,47.5,173.7,46.8,172.1,46z"/>
		<path class="st40" d="M21,74c0.4,1.2-0.4,2.1-0.9,3.1c-1.6,0.2-2.5-0.6-3-2C18,73.3,19.1,71.9,21,74z"/>
		<path class="st41" d="M170.1,39.3c-0.8,1.9-1.4,3.8,0,5.8c-2.5-0.2-5.2,0.9-7.6-1.1c1.8-1.9,5-1.8,5.6-4.6
			C168.8,39.2,169.5,39.2,170.1,39.3z"/>
		<path class="st42" d="M718.9,30.2c0.4,1.1,0.7,2.1,1.1,3.2c-0.9,0.6-1.8,1.3-2.6,1.9c-1.1,1.9-0.5,4.4-2,6.2
			c-0.5,0.6-0.7,1.9-1.4,2c-7.3,0.5-6.8,10.1-13.4,11.5c-1.5,0.3-0.7,1.9-0.3,2.9c1.4,4.2-0.8,9.5-5.1,10.4
			c-3.6,0.7-4.1,2.7-4.3,5.5c-0.1,0.5-0.2,0.9-0.4,1.3c-1.9,3-5.4,4.5-7.1,7.6c-3.9,4.4-9.5,6.8-13.1,11.5
			c-3.9,2.5-8.2,4.4-11.7,7.6c-2.3,2-5.7,1.7-8.5,2.7c-2.9,0.9-5.7,1.8-8.3,3.3c-0.5,0.2-1.1,0.2-1.6,0.2
			c-12.5,0.5-24.9,3.1-37.6,2.5c-4.2-0.2-8.2-1-12.3-1.3c-1.5-0.3-2.5-1.4-3.5-2.5c-1.6-1.7-2.8-0.9-3.9,0.7
			c-3.3-0.9-6.8-0.2-10.1-1.1c-0.8-2.7-2.2-3.4-4.6-1.6c-1.2,0.9-2.5,1.5-4,1.6c-5.2,0.6-10.2-1-15.3-1.7c-3.5-0.5-6.9-1.2-10.3-1.6
			c-1-0.3-1.9-0.7-2.7-1.3c-1.4-2.1-4.1-2.8-5.8-5.1c0.7,3.3-0.2,5-3.6,4.2c-0.4-0.2-0.8-0.4-1.1-0.8c-0.5-2.3-1.3-3.6-3.6-1.4
			c-0.4,0.1-0.9,0.1-1.3,0.1c-3.2-1.5-2.6-3.6-0.3-6.5c-3.7,0.9-6.8,1.5-9.9,0.9c-1.9-1-3.1,0.7-4.7,1.1c-3,0.5-5.5,2.4-8.5,3.1
			c-7.7,0.9-15.2-0.9-22.8-1.2c-9.1-0.4-18-2.7-27.2-2.6c-1.7,0-3.6,0.4-4.9-0.5c-7-4.6-14.3-0.8-21.4-1.1c-0.8,0.2-1.6,0.3-2.5,0.2
			c-0.5,0-1.1-0.2-1.6-0.4c-5.8-2.4-11.9-2.7-18.1-2.6c-0.6,0-1.1-0.1-1.7-0.3c-7.9-0.8-15.9-0.6-23.8-1.3
			c-13.7-1.2-27.5-1.7-41.2-2.9c-6.8-0.6-13.6-0.8-20.4-1c-18.9-0.6-37.8-2.7-56.7-2.5c-5,0-9.9,0.3-14.8,1.3
			c-3.6,0.8-5,3.6-6.2,6.5c-0.9,2-1.2,4.2-3.5,5.2c-1.5,0.5-2.9,0.7-4.3-0.2c1.9-4.4,6.2-7.6,5.8-13.2c-0.1-2.3,9.1-7.1,12.1-6.4
			c6.6,1.5,12.6-1.8,19.1-1.8c3,0,5.9-0.5,8.9,0.5c7.2,2.4,14.6,1.1,21.9,1c11-0.1,21.8,0.8,32.5,3.5c3.2,0.8,6.6,0.6,9.9,0.5
			c9.8-0.4,19.5-1,29.4,0.8c4.8,0.9,10.2-0.4,15.1-2.1c2.3-0.8,4.2-1.4,5.7,1.7c1.5,3,5.1,2.1,7.2,1.5c5.6-1.7,10.9,0.6,16,1.4
			c4.9,0.8,10,1,14.9,1.8c5,0.8,9.5-0.2,12.7-4.7c1.3-1.8,3.4-3.9,3.7,0.8c0.1,1.9,1.3,3.3,2.8,3.8c4.7,1.4,9.1,4,14.2,4.2
			c4.9,0.2,9.5,2.1,14.6,1.9c6.7-0.2,13.2-0.4,19.5-2.5c1.9-0.6,3.6-0.7,4.6,1.4c0.4,0.9,0.5,2.2,1.9,1.5c1.1-0.5,2-1.3,1.9-2.6
			c-0.1-1.5-1.5-3.9,1.3-3.6c3,0.4,7.5-2.5,8.7,2.7c0.7,3.1,1.9,2.8,4.4,2.4c4.1-0.6,8.3,0.6,12.5-1.5c1.8-0.9,4.3,1.7,5.5,4.2
			c2.7,5.6,7.4,7.6,13.1,5.8c2-0.6,3.8-1.6,5.2,0.8c0.1,0.3,0.7,0.5,0.8,0.5c3.9-4.9,6.3,1.4,9.6,1.3c1.5-0.1,3.1,0.8,4.4,0.5
			c4.5-1.2,8.8-0.7,13.3,0c2.2,0.4,4.6,0.5,6.4-1.7c0.7-0.8,2.4-1.8,3.1-0.9c3.1,3.9,7.7,0.1,11.3,2.3c-0.7-1.4-1.4-2.8-2-4.2
			c-0.4-1.1-0.7-2.5,0.7-3c1.6-0.6,2.5,0.5,2.9,1.9c0.5,1.8-0.6,4.4,1.8,5.3c3.4,1.3,6.9,2.6,10.4,2.9c2.4,0.2,3.6-2.6,2.6-4.9
			c-1.6-3.5,0.5-4.9,2.9-6.3c2.4-1.4,4.9-3.3,7.2-4c2.4-0.7,6.1-0.6,8.7,0.3c3.4,1.2,6.4,1,9.6,0.4c1.4,1.8,3.2,1.1,4.9,0.5
			c-1.6-0.4-3.5,1.1-4.9-0.5c-0.6-3.1-1.9-6-3.4-8.7c-0.5-1-2.4-2.2-0.2-3c1.3-0.5,3.3-1.7,4.4,0.4c1,2,2.9,3.9,0.5,6.7
			c3.6-3,8.5,1.6,11.2-3c0.1-0.2,1-0.2,1.4-0.1c6.3,2.1,13,1.7,18.3-0.9c1.4-0.7,2.3-1.8,3.1-3.1c3-4.7,6.4-9,10.5-12.7
			c4.5-4,5.8-10,3.3-15c-0.7-1.4-3.2-3-0.5-4.5c2-1.2,4.4-3.1,6.7-0.8c3,2.9,5,1.3,6.1-1.3c1.3-3.2,6.3-4.4,4.1-9.9
			C709.5,29.1,715.1,27.5,718.9,30.2z"/>
		<path class="st43" d="M663.5,16.4c-1,3.3-2.3,6.5-6.3,6.6c-4.1,0-5.3-3.2-5.3-6.4c0-3.4,2.3-5.7,5.7-5.7
			C661,10.8,663,12.9,663.5,16.4z"/>
		<path class="st25" d="M226.1,94c1.3,0,2.7,0,4,0c0.9-0.2,1.2,0.2,0.9,1c-5,0.1-10,0.2-15,0.3C219.1,92.7,222.8,94.7,226.1,94z"/>
		<path class="st44" d="M104.1,83.1c-0.6,5.6-3.1,7.1-8.6,5.3c-1.3-0.4-1.9-0.4-2.1,1.5c-0.5,4.5-2.9,5.6-6.7,3.3
			c-2.5-1.5-3-1.1-2.8,1.9c0.2,3.8-3.2,5.2-6.4,3c-0.9-0.6-1.7-1.3-2.7-0.6c-0.9,0.7-0.8,1.9-0.4,2.7c1.2,2.7-1,3-2.4,3.9
			c-1.9,1.2-3,0.2-4.3-1c-1.9-1.8-1.5-3,0.7-4.1c11.4-5.8,22.8-11.5,34.8-15.9C103.4,82.7,103.8,82.7,104.1,83.1z"/>
		<path class="st6" d="M166.1,77.1c2.2,1.4,4.6,1.8,7.1,2c1.2-1,2.2-0.8,3.2,0.4c0.7,2-3.2,4.1-0.6,5.6c2.4,1.4,2.8-2.3,4.6-3.2
			c1.4-0.7,1.6-2.9,3.7-2.8c0.1,4.8-3.3,8-5.4,11.8c-0.8,1.5-2.3,0.8-3.5,0.1c-1-0.9-2.2-1.6-2.8-2.7c-3-5.1-7.7-7.3-13.2-8.3
			c-0.1-2.5-0.1-4-3.4-1.7c-2.5,1.8-6.2,2.2-7.6-2.3c-0.2-0.9-0.1-1.4,1-1C154.8,75,160.3,77.4,166.1,77.1z"/>
		<path class="st45" d="M104.1,83.1c-0.3,0-0.7,0-1,0c12.2-5,24.5-9.1,38-8c2.4-0.4,5.5-1.7,4,3c-2.5,0.4-5.1,2.4-7.1-1
			c-0.5-0.9-1.3-0.7-1.9,0.2c-2.4,3.5-5.3,2.5-8.1,0.6c-1.6-1.1-2-0.5-3,0.9c-1.9,2.9-4.1,5.4-7.8,2c-0.9-0.8-2-1.2-2.7,0.5
			c-2.6,5.7-3.4,5.9-7.9,2.3C105.9,83.1,104.9,83.2,104.1,83.1z"/>
		<path class="st21" d="M40.1,117c-0.7-1-1.3-2-2-3c3.1-1.9,6.4-3.2,10-4l0,0c0,0.6-0.3,1.5,0,1.7c1,0.7,2.7,0.5,2.6,2.4
			c-3.1-1.7-2.7,6.3-6.7,2.3c-1.7-1.7-1.1-0.7-1.4,0.9C42.2,119.5,41,116.8,40.1,117z"/>
		<path class="st21" d="M48.1,110c2.3-2,5-3.3,8-4l0,0c5.2,4.5-1.4,5.6-2.3,8.6C51.5,113.2,51,110,48.1,110L48.1,110z"/>
		<path class="st46" d="M56.1,106c0.9-2.2,3.2-2,4.9-2.9c1.1-0.6,2.3-1.5,3.3,0.3c0.7,1.4,1.5,2.9,0.2,4.1c-1,0.8-2.6,1.7-4,0.4
			C59.2,106.6,57.9,105.8,56.1,106L56.1,106z"/>
		<path class="st27" d="M145.1,78.1c0.3-3.2-1.9-3-4-3c2.7-1.5,5.3-1.5,8,0c-0.3,0.3-0.7,0.7-1,1C146.5,75.9,146.1,77.5,145.1,78.1z
			"/>
		<path class="st47" d="M184,79c-1.5,1.8-3.1,3.5-4.4,5.3c-1.1,1.4-1.6,3.6-3.9,3.3c-1.8-0.3-1.5-2.4-2.1-3.7
			c-1.5-2.8,1.7-2.6,2.5-3.9c0.5-0.8,0.9-1.6,2-1c2,3.6,3.2,0.4,3.7-0.8c1.3-3.3,2.3-6.8,2.3-10.5c0-5.2,0-10.5,0-15.7
			c1.9,8.3,1.3,16.7,0.1,25.1C184.1,77.8,184,78.4,184,79z"/>
		<path class="st48" d="M417.1,91.3c0.2,0,0.5,0,0.7-0.1c9.2,2.4,18.6,3,28,3.5c12.7,0.7,25.3,3.2,38,3.6c2.7,0.1,5.2-0.5,7.9-0.5
			c5.2,1,10.5,0.5,15.7,1.4c4.1,2.9,9.2,1,13.7,2.6c2,0.7,4.5,0.6,6.8,1.1c9.7,1.7,19.2,4.5,29.2,3.2c3,0.2,6,0.7,8.8,1.9
			c4.4,2.3,9.4,1.6,14,2.4c9.2,1.5,18.4,1.3,27.7,1.5c5.4,0.9,10.6-0.6,15.9-0.7c0.8-0.1,1.5-0.1,2.3-0.1c5-0.2,10.3,1.3,14.3-3.1
			c0.3-0.4,0.7-0.7,1-1c0.3,0,0.6-0.1,0.9-0.2c1.3-0.7,2.7-0.7,4.1-0.2c2.1,1.1,3.6-0.2,5.2-1.3c2.5-0.5,4.8-1.8,7.3-2.1
			c1,0.1,1.9,0.5,2.4,1.5c-3.3,6.9-8.7,11-16.3,12.3c-13.2,2.4-26.3,3.1-39.4-0.2c-6.2-1.6-12.2,0.2-18.4-0.1
			c-7.5-0.4-15-1.2-22.5-1.9c-12.1-1.2-24.3-2.6-36.3-4.5c-12.6-2-25.2-3.6-37.7-5.8c-14.7-2.6-29.4-5.2-44.6-4.7
			c-16.1,0.6-32.2-1.9-48.3-2.5c-19.6-0.7-39-2.3-58.6-3.4c-14.3-0.8-28.5-2.5-42.9-3.3c-6.9-0.4-13.7-1.9-20.7-1.7
			c-7.4,0.2-14.9-2.6-21.9-1.6c-5.7,0.8-10.2-4.3-15.4-1.3c-0.3-0.4-0.6-0.7-0.9-1.1c-0.4-0.6-0.3-1.1,0.3-1.5
			c7.8-1.6,15.8-1.1,23.6-0.4c5.9,0.5,11.8,0.6,17.7,0.2c2.2-0.1,4.5-0.2,6.7,0.3c1.5,0.9,3.1,1.1,4.8,1c9.9-0.5,19.8,1.9,29.6,0.1
			c1.2,0,2.3,0.1,3.4,0.4c7,1.6,14,2.2,21.2,2.5c13.7,0.6,27.5,1.7,41.2,2.6c9.6,0.7,19.2,1.6,28.8,1.3
			C415.4,91.3,416.2,91.2,417.1,91.3z"/>
		<path class="st49" d="M284.9,84.4c-1.6,0-3.4,1.3-4.9-0.4c-14.3-0.5-28.6-1.9-43,0.2c0,0.3,0,0.6,0.1,0.8
			c-0.6,2.8-2.2,5.3-2.1,8.4c0,2.8-2.5,1.4-4,1.6c-0.3-0.3-0.6-0.7-0.9-1c2.5-2,1.6-5.2,3.1-7.7c3.2-5.3,8.2-6.1,13.6-6.2
			c17.2-0.4,34.4,0,51.5,1.8c6.9,0.7,13.9,0.3,20.9,0.9c14,1.2,28.1,1.1,42.2,2.3c11.5,0.9,23,1.7,34.5,1.9c0.7,0,1.5,0.6,2.2,0.9
			c-0.9,2.1-2.9,1.9-4.7,2.1c-7.9,1-15.7-0.1-23.3-1.3c-7.5-1.2-14.9-1.3-22.4-1.2c-8.3,0-16.5-1.1-24.8-1.4
			c-0.9-0.1-1.9-0.3-2.8-0.4C308.3,85.6,296.6,84.5,284.9,84.4z"/>
		<path class="st50" d="M660.9,104.7c-0.6-0.3-1.3-0.7-1.9-1c-0.5-2.3,1.2-3,2.7-4.1c2.9-2,6.2-3.5,8.3-6.6c3.5-4.6,8.7-7.3,13-11
			c1.3-0.6,2.5-1.8,4.1-0.9c0.3,2.5-2.3,3.3-3.1,5.1c-2.3-0.3-2.4,2.1-3.8,3c-3.8,0.9-4.4,5.8-8.2,6.7c-1.7,2.9-3.8,5.1-7.2,6
			C663.1,102.3,661.7,103.1,660.9,104.7z"/>
		<path class="st51" d="M671.9,95.9c2.8-2.2,3-7.5,8.2-6.7C678.2,92.3,676.4,95.8,671.9,95.9z"/>
		<path class="st52" d="M690,74.2c-0.1-2.8,0-7.6,2.3-7c4,1.1,4.3-1.9,6.1-3.1c2.4-1.6,2.4-3.3,0.7-5.8c-1.3-1.9-3.6-4.7,2.1-4.9
			c3-0.1,4.9-3.6,5.6-6.9c0.3-1.2-0.1-3.5,1.5-3.1c6.6,1.5,6.3-3.8,7.8-7.3c0.2-0.4,0.8-0.5,1.2-0.8c0.6,0.5,1.3,1.6,1.7,1.5
			c3.1-0.7,2.8,0.6,1.5,2.4c-0.9,1.3-1.8,2.6-2.7,3.9c-1.8,3.6-4.1,6.4-8,8.3c-4.7,2.3-5.3,7-4.9,11.7l0,0c-2.2,2.2-4.6,4.2-6.3,6.8
			C696.7,73.1,693.8,74.6,690,74.2z"/>
		<path class="st53" d="M705,63.2c-2.6-6-1-10.5,5.5-13c3.6-1.4,4.2-5.6,7.5-7c0.4,3.6-1.8,6.5-4.4,7.5c-3,1.2-4,3.1-4.4,5.6
			C708.6,59.2,706.6,61,705,63.2z"/>
		<path class="st54" d="M690,74.2c5.6-0.7,7.9-5.5,11.3-8.9c1-1,2-2.3,3.7-2.1c-3.6,6.4-7.6,12.4-15.1,14.9c-0.3-1-0.4-2,0-3
			C689.9,74.8,690,74.5,690,74.2z"/>
		<path class="st52" d="M689.9,75.1c0.7,1,0.7,2,0,3c-1,1-1.9,2-2.9,3.1c-1.3,0.6-2.6,1.1-4.1,0.9C684,78.5,687.4,77.2,689.9,75.1z"
			/>
		<path class="st55" d="M159.2,62.1c0-3.6,2.8-7,5.9-6.9c3.4,0.1,5.1,2.1,5.2,5.4c0.1,3.2-3.1,7.1-5.8,7.1
			C161.9,67.9,159.3,65,159.2,62.1z"/>
		<path class="st56" d="M33.1,91.8c0.5-3.9,2.2-6.5,6-6.5c3.4,0.1,4.8,3,4.8,5.9c0,3.2-1.8,5.9-5.5,5.7C35,96.9,33.4,94.6,33.1,91.8
			z"/>
		<path class="st57" d="M93.9,71.5c0.2-4.6,1.9-6.8,5.1-6.8c3.3,0,5,2.2,5,5.5s-1.8,5.5-5.1,5.4C95.9,75.5,93.7,73.6,93.9,71.5z"/>
		<path class="st58" d="M178.1,79.1c-0.7,0.3-1.3,0.7-2,1c-0.7-1.1-1.8-1-2.9-1c0.2-1.1-2.7-1.2-0.2-3.3c7.6-6.7,6.8-20.2-1-27
			c3.6,0.4,6.1,3.1,7.1,7.1c1.9,7.6,1,15.1-0.9,22.6C178.2,78.6,178.1,78.9,178.1,79.1z"/>
		<path class="st59" d="M322.8,86.2c9-1.6,18.1,0.6,27.1,0c15-1,29.7,4.4,44.8,2.7c1.2-0.1,2.2-0.5,3.3-0.9c0.3,0,0.6,0.1,1,0
			c4.6,1.1,9.4,0.9,14,2c1.4,0.3,3.6-0.4,3.2,2.4c-2.7,2-5.7,0.7-8.4,0.6c-22.4-1.6-44.8-3.3-67.3-4.3
			C334.5,88.5,328.4,88.6,322.8,86.2z"/>
		<path class="st60" d="M564.9,108.8c-2.9,0.6-5-2.5-8-1.8c-5.1,0.6-10-0.4-14.9-1.6c-1.7-0.4-4.1-0.7-4-3.4
			c7,0.2,13.8,1.8,20.7,3.1c2,0.4,4.2,0,6.3,0c2.6,1.1,5.6-1.8,8,1c3.4-0.2,6.9-1.6,10,1c2.3-1.5,4.1,0,6,1
			c6.4,0.1,12.7,1.1,19.2,1.2c9.8,0,19.4-2.1,29.2-2.5c1.4-0.1,2.5-0.2,3.7,0.4c-0.1,0.3-0.2,0.6-0.3,0.9c-0.8,2.1-2.7,1.5-4.2,1.8
			c-3.6,0.5-7.2,0.9-10.6,2.5c-0.6,0-1.3,0-1.9,0c-5.6-1-11.2,0.5-16.8,0.2C593,112.1,579,110.4,564.9,108.8z"/>
		<path class="st49" d="M506.8,100.2c-4.6-0.5-9.3,0.2-13.8-1.3c-17.1,0-34-3.1-51.1-4.6c-6.1-0.5-12.1-1.5-18.2-1.3
			c-1.6,0.1-2.9-0.4-3.7-2c2.5-1.9,5.4-0.7,8.2-0.9c1.9-0.2,4,0.4,5.3-1.8c1-1.5,2.2-1,3.2,0.2c2.6,3.1,6.2,3.2,9.9,3.5
			c13.1,1.2,26.2,2.6,39.4,3.7c4,0.3,8,0.2,11.9,0.2c3.4,0.9,5.3-2,8-3c1.3-0.5,2.2-2.3,4-1c1.1,2.5-2.7,4.5-0.8,7.2
			C508.6,100.1,507.9,100.6,506.8,100.2z"/>
		<path class="st61" d="M420,91c2.6,2.1,5.4,0.3,8.1,0.6c19.6,2.1,39.2,3.9,58.7,6.8c2,0.3,4.2-1.4,6.1,0.5
			c-13.5,1.9-26.8-0.7-40.1-2.3c-9.7-1.1-19.5-0.5-29.1-2.4c-2.5-0.5-4.1-1.8-6-2.9C418.5,91.2,419.2,91.1,420,91z"/>
		<path class="st58" d="M509,99c-6.1-3.2,1-4.5,0.9-6.9c3-0.4,6.2,0.9,9-1.3c1.2-1,2.2-0.1,2.9,0.8c1.2,1.4,0,1.9-1.1,2.4
			c-3.4,1.5-1.5,2.8,0.2,4.1c0.3,1.7-1,2.8-2.2,2.4C515.6,99.4,512.1,100.6,509,99z"/>
		<path class="st62" d="M669.9,93.1c-0.8,4.4-5,5.4-7.9,7.7c-1.2,0.9-2.3,1.7-3.1,3c-2.5,1.3-5.1,2.5-8,2.3c-1.4,1.4-3.6,0.8-5,2
			c-1.3-0.4-2.7-0.8-4-1.2c1.8-3,5.1-3.2,7.8-3.5c6.7-0.8,11.2-5.6,16.8-8.4C667.7,94.4,668.8,93.7,669.9,93.1z"/>
		<path class="st63" d="M538,102c3.6,3.4,8.4,3.2,12.7,3.9c2.1,0.3,4.1,0.7,6.2,1.1c-2.9,1.8-6.2,1.3-9.2,0.7
			c-6.9-1.2-14.1-1.3-20.8-3.7c-0.5-1.9,0.8-2.3,2.1-2.4c1.6-0.1,2.8-0.8,4.1-1.3c1-0.3,1.9,0,2.7,0.5
			C536.7,101.3,537.3,101.6,538,102z"/>
		<path class="st64" d="M533,101.1c-0.7,3.6-5-0.1-6,3c-4.9-0.3-9.5-2.3-14.6-1.7c-1.6,0.2-4.4,0.2-5.6-2.2c0.8-0.4,1.5-0.8,2.3-1.2
			c3.1-0.3,6.3-1.6,9.4,0.6c1.1,0.8,2-0.5,2.6-1.5c0.3,0,0.6,0,1-0.1c1.5,0.4,2.9,0.9,4,2l0,0c1.7,1,3.4,0.4,5.1-0.1
			C531.9,99.7,533.1,99.4,533,101.1z"/>
		<path class="st49" d="M416.1,92.5c-3.1-2.3-6.7-2-10.2-2.4c-2.5-0.3-4.9-0.5-6.9-2.1c6.3-0.3,12.6-0.7,18.1,3.2
			C416.8,91.7,416.4,92.1,416.1,92.5z"/>
		<path class="st58" d="M533,101.1c-2.2-1-5,1.3-7-1c1.2-0.7,4.9,1.5,2.9-2.6c-0.8-1.5,0.2-2.3,1.1-2.7c2.4-1,0.9,1.2,1.3,1.9
			c1.1,1.9,4.8,1.1,4.7,4.3C535,101,534,101,533,101.1z"/>
		<path class="st65" d="M573,106c-2.7-0.4-5.5,1-8-1c1.7,0,2.4-1.5,3.5-2.4c1.4-1.1,3.3-1.1,4.7-0.2
			C574.7,103.5,573.3,104.9,573,106z"/>
		<path class="st13" d="M644.9,88.1c1.6,0.1,2.8-0.6,4.1-1.3c1.6-0.9,3.1,0,3.6,1.4c0.6,2-1.3,1.8-2.5,1.9
			C648,90.3,645.3,92.1,644.9,88.1L644.9,88.1z"/>
		<path class="st65" d="M589,108c-2.1,0.4-4-0.6-6-1c-0.2-0.9-1.3-1.8-0.2-2.6c1.1-0.8,2.5-0.6,3.7,0
			C587.9,105.2,588.2,106.8,589,108z"/>
		<path class="st58" d="M526,100c-1.6-0.2-3.7,0.8-4-2c0.9-1.3,1.5-2.8,3.2-3.5C526.6,96.2,525.7,98.2,526,100z"/>
		<path class="st58" d="M506,93.1c-2.1,2.4-3.8,6.1-8,3C500.4,94.3,502.9,93.1,506,93.1z"/>
		<path class="st66" d="M564.9,108.8c2.1-1.5,4.5-0.8,6.7-0.6c12.1,1.2,24.2,2.5,36.3,3.7c0.2,0.3,0.2,0.7,0,1
			c-13,1.1-25.8-1.1-38.6-2.1C567.5,110.7,566.3,109.7,564.9,108.8z"/>
		<path class="st67" d="M237.1,84.2c0.4-0.8,1.2-1,2-1.1c12-1.6,24-0.8,36-1c1.9,0,3.6,0.5,4.9,1.9c-5.8,2.5-11.7,0.8-17.6,0.6
			C254,84.3,245.5,83.5,237.1,84.2z"/>
		<path class="st68" d="M284.9,84.4c1.9-2.4,4.7-1.6,6.9-1.2c9.4,1.4,19-0.3,28.2,2.6c-10.2,1.9-20.4,0.1-30.7,0.1
			C287.8,85.9,285.9,86.4,284.9,84.4z"/>
		<path class="st59" d="M625.9,112.3c2.2-4.3,6.6-2.6,10.1-3.5c1.5-0.4,3.2,0,4.7-0.7c0.5,1.7-0.2,3.2-1.9,3.4
			C634.6,111.9,630.3,113.5,625.9,112.3z"/>
		<path class="st59" d="M608,113c0-0.3,0-0.7,0-1c4.9-1.5,10-0.1,14.9-1.6c0.8-0.2,1,1.1,1.1,1.9C618.7,113.2,613.4,114.2,608,113z"
			/>
		<path class="st69" d="M645.9,108.1c1.1-2.2,3-2.1,5-2C650.1,108.7,648.3,109.1,645.9,108.1z"/>
	</g>
</g>
</svg>
