<?xml version="1.0" encoding="utf-8"?>
<!-- Generator: Adobe Illustrator 25.0.0, SVG Export Plug-In . SVG Version: 6.00 Build 0)  -->
<svg version="1.1" xmlns="http://www.w3.org/2000/svg" xmlns:xlink="http://www.w3.org/1999/xlink" x="0px" y="0px"
	 viewBox="0 0 598 171.1" style="enable-background:new 0 0 598 171.1;" xml:space="preserve">
<style type="text/css">
	.st0{display:none;}
	.st1{display:inline;fill:#00F700;stroke:#000000;stroke-miterlimit:10;}
	.st2{fill:#4E5254;}
	.st3{fill:#646767;}
	.st4{fill:#EAEAEA;}
	.st5{fill:#8F9496;}
	.st6{fill:#141617;}
	.st7{fill:#181A1C;}
	.st8{fill:#494E51;}
	.st9{fill:#0C0C0D;}
	.st10{fill:#2C2F31;}
	.st11{fill:#131415;}
	.st12{fill:#17191A;}
	.st13{fill:#1B1D1F;}
	.st14{fill:#0C0D0D;}
	.st15{fill:#3F4244;}
	.st16{fill:#26292B;}
	.st17{fill:#37393B;}
	.st18{fill:#333638;}
	.st19{fill:#303335;}
	.st20{fill:#2A2D2F;}
	.st21{fill:#515456;}
	.st22{fill:#C5C5C5;}
	.st23{fill:#323537;}
	.st24{fill:#72787B;}
	.st25{fill:#2D3032;}
	.st26{fill:#040505;}
	.st27{fill:#4C4F50;}
	.st28{fill:#3C3F41;}
	.st29{fill:#7A7F81;}
	.st30{fill:#2F3131;}
	.st31{fill:#545759;}
	.st32{fill:#232628;}
	.st33{fill:#4E5357;}
	.st34{fill:#393B3C;}
	.st35{fill:#626567;}
	.st36{fill:#161718;}
	.st37{fill:#858A8A;}
	.st38{fill:#474A4C;}
	.st39{fill:#606569;}
	.st40{fill:#0E0F10;}
	.st41{fill:#303234;}
	.st42{fill:#404344;}
	.st43{fill:#737778;}
	.st44{fill:#434648;}
	.st45{fill:#4C4F51;}
	.st46{fill:#404447;}
	.st47{fill:#383C3F;}
	.st48{fill:#373A3C;}
	.st49{fill:#656A6E;}
	.st50{fill:#51565A;}
	.st51{fill:#373B3F;}
	.st52{fill:#141517;}
	.st53{fill:#2F3133;}
	.st54{fill:#2A2D2E;}
	.st55{fill:#36393A;}
	.st56{fill:#212325;}
	.st57{fill:#494D4F;}
	.st58{fill:#0F1011;}
	.st59{fill:#080809;}
	.st60{fill:#050506;}
	.st61{fill:#2B2D2F;}
	.st62{fill:#313436;}
	.st63{fill:#3A3D40;}
	.st64{fill:#030303;}
	.st65{fill:#1E2022;}
	.st66{fill:#070708;}
	.st67{fill:#050606;}
	.st68{fill:#1C1E20;}
	.st69{fill:#252729;}
	.st70{fill:#787D80;}
	.st71{fill:#82888B;}
	.st72{fill:#040404;}
	.st73{fill:#5B6064;}
	.st74{fill:#9B9D9D;}
	.st75{fill:#424547;}
	.st76{fill:#55595B;}
	.st77{fill:#333537;}
	.st78{fill:#7C8182;}
	.st79{fill:#898E90;}
	.st80{fill:#B4BABD;}
	.st81{fill:#7C8184;}
	.st82{fill:#909595;}
	.st83{fill:#0F1010;}
	.st84{fill:#585D61;}
	.st85{fill:#AAB0B2;}
	.st86{fill:#ABB1B3;}
	.st87{fill:#60666A;}
	.st88{fill:#595E62;}
	.st89{fill:#17181A;}
	.st90{fill:#83888A;}
	.st91{fill:#46494B;}
	.st92{fill:#929797;}
	.st93{fill:#6C7275;}
	.st94{fill:#43474B;}
	.st95{fill:#666C6F;}
	.st96{fill:#232527;}
	.st97{fill:#292B2E;}
	.st98{fill:#1A1C1E;}
	.st99{fill:#090A0A;}
	.st100{fill:#494D50;}
	.st101{fill:#ADB3B6;}
	.st102{fill:#686D6F;}
	.st103{fill:#909596;}
	.st104{fill:#919697;}
	.st105{fill:#383B3C;}
	.st106{fill:#383A3C;}
	.st107{fill:#484D50;}
	.st108{fill:#656C70;}
	.st109{fill:#1F2123;}
	.st110{fill:#404448;}
</style>
<g id="Camada_2" class="st0">
	<rect x="-9" y="-17" class="st1" width="629" height="213"/>
</g>
<g id="Camada_1">
	<g>
		<path class="st2" d="M586.5,0.5c0,10.3,0,20.5,0,30.8c0.2,3.3-2.9,3.5-4.6,4.9c-4.3,0.8-8.5,0.8-12.8,0c-0.9-0.4-1.5-1-1.7-1.9
			c4.2-10.9,8.9-21.7,8.1-33.8c0.7,0,1.3,0,2,0c2.3,1.4,4.7,1.4,7,0C585.1,0.5,585.8,0.5,586.5,0.5z"/>
		<path class="st3" d="M2.9,46.6c-1.6-3.2-0.1-7.3-2.8-10.2c0-0.3,0-0.7,0-1c1.9-0.5,2.6-2.9,4.7-3.1c1-0.4,1.9-0.3,2.9-0.3
			c2.3,1.6,3.8,3.8,4.7,6.3c-0.5,2.3-1,4.6-1.9,6.8c-1.1,1.3-2.7,1.3-3.8,0.5C4.8,44.1,4.1,46.2,2.9,46.6z"/>
		<path class="st4" d="M584.5,0.5c-2.3,2.6-4.7,2.6-7,0C579.8,0.5,582.2,0.5,584.5,0.5z"/>
		<path class="st5" d="M596.4,34.4c0.3,0,0.7,0,1,0c0,3.3,0,6.6,0,10c-0.3,0-0.7,0-1,0c-1-1-1.2-2.2-1.3-3.5
			C595.2,38.6,594.3,36.2,596.4,34.4z"/>
		<path class="st6" d="M290.4,134.2c-5.2-6.4-9.4-13.3-12.7-20.9c-0.5-0.7,0-1.3,0.3-1.9c1.8-2.4-0.3-4.4-1-6.5
			c-1.7-5.1-1.6-5.6,3.2-8.1c2-1.1,4.2-1.9,6.3-2.9c-2.7,1.2-5.4,2.4-8,3.7c-3.9,2-6,1-7-3.1c-0.7-3.1-1.7-5.9-2.9-8.8
			c-2.2-4.9-0.5-8,4.8-9.2c3.7-0.9,7.6-0.7,11.4-0.2c3.2,0.4,5.7,2,6.1,5.6c0.4,3.5-0.9,6.1-4.3,7.5c-2.3,0.9-4.7,1.6-6.9,2.7
			c1.9-1,4-1.4,6-2.3c5.3-2.3,5.9-3.2,5.4-8.9c-0.2-2,0-3.8,2.4-4.2c3.1-0.5,6.5-2.6,9.2,0.9c0.9,1.2,1.4,2.6,1.5,4.2
			c2.4-1.3,3.6-4.8,7.2-3.6c5.7,15.9,14.2,30.1,25.5,42.8c3.9,4.4,8.1,8.3,12.7,11.9c3,2.3,3.2,4,0.7,6.5c-1.1,1.2-2.1,2.5-3.1,3.8
			c-3.2,2.3-4.8,5.8-7.3,8.7c-1,1.2-2.2,3.1-4,1.8c-1.4-1.1,0.2-2.7,0.8-4c1.4-2.9,5.5-4.8,4.4-8.4c-0.9-3.1-4.8-3.9-6.9-6.2
			c-3.4-3.7-7.9-6-11.2-9.7c-2.3-2.5-4.6-4.2-8.3-3.3c-1.4,0.3-3,0.1-3.9-1.4c1-2.1,3.6-1.9,4.7-3.3c0.7-0.5-0.4-0.9,0.1-0.5
			c0.1,0.1,0,0.2-0.3,0.4c-1.2,0.9-2.5,1.5-4,1.9c-1.9,0.5-2.8-0.8-3.6-2s-0.1-2.2,0.9-3c1.3-1.1,2.9-2.1,3.9-3.6
			c-5.6,3.4-10,8.2-14.9,10.8c1.3-0.9,3.6-2.1,5.7-3.8c1.6-1.4,3.3-1.4,4.8,0.3c1.5,1.8,1.1,3-0.6,4.6c-2.7,2.6-5.9,4.2-8.9,6.2
			c-0.5,0.4,0.5,0.7,0,0.3c-0.1-0.1,0-0.2,0.3-0.4c1.5-0.8,3.5-3.1,4.6-1.4c1.4,2.1-1.5,3.2-2.9,4.3
			C297.5,133.8,294.4,135.8,290.4,134.2z"/>
		<path class="st7" d="M585.6,45.4c0.1,4.9-3.8,5.3-6.8,4.7c-4-0.8-7.9-0.6-11.8-0.6c-21.6,0.2-43.1,0.1-64.7,0.2
			c-17.9,0.1-35.8,0-53.7-0.2c-2.4,0-5-0.8-4.9,3.3c0,2.6-4,1.1-4.8,3.3c1.7,1.5,4,1.8,5.7,3.3c-0.9,2.6-3.1,1.4-4.6,1.4
			c-25.4,0.1-50.8,0.2-76.2-0.1c-6.7-0.1-12.8,3.5-19.5,2.1c-1.1-0.2-2.3-0.2-3.4-0.3c-1.5-1.1-2.9-2.6-2.1-4.6c0.8-2.1,3-2,4.7-1.9
			c9.2,0.7,18-1.3,26.8-3.9c2.2-0.7,4.5-1.1,6.4-2.6c0.4-0.3,0.8-0.6,1.2-0.8c1.9-0.7,3.8-0.7,5.7,0.3c-2.3-3.9-6.2-1.8-9.4-2.2
			c-10.1-0.1-20.1,0.5-30.1,0c-2-0.1-4.5,0.6-5.3-2.4c3.2-2.5,6.9-1.3,10.4-1.5c2.8-0.1,5.6-0.1,8.4,0c4.7,0.2,9.5-0.2,14.2,0.1
			c1.9,0,3.9,0,5.9,0.1c3.8,0.3,6.7-0.5,7.7-4.9c0.3-1.3,0.9-4.6,3.5-1.3c0.3-0.8,0.1-1.8,0.6-2.6c3.8-3.3,4.2-0.4,4.6,2
			c0.1-1.2,0.4-3,2.5-3c1.8,0,2.3,1.6,2.4,3.1c0.1-0.5,0-1,0.2-1.6c0.2-0.8,0.6-1.5,1.5-1.8s1.5,0.3,2,1c0.8,1.4,0.3,3.1,1,4.6
			c0.3-1.9-0.2-3.9,1.2-5.5c3.8-0.8,2.8,2.1,3.1,3.7c0.1-1.7,0.4-3.8,2.8-3.8c2.3-0.1,2.1,2,2.2,3.5c0.3-1.6-0.2-4.1,3-3.5
			c1.7,1.4,1,3.6,1.6,5.5c0.3-1.6,0.1-3.1,0.7-4.4c3.1-1.2,3.1-1.2,3.7,3.3c0.1-2.1,0.3-4.4,2.9-4.4c2.6,0,1.9,2.5,2.2,4
			c0.2-1.5-0.5-4.1,2.2-4c2.5,0.1,2.9,2.3,2.7,4.3c0.6-1.7-0.8-5.4,3.5-3.7c1.3,2.8,0.2,6.5,3.9,8.4c1.1,0.6,0.1,2.7,0,3.7
			c-0.3,1,0.9,0,0.3,0.3c-0.2,0.1-0.3-0.1-0.2-0.5c0.4-2.1,1.5-3.9,2.4-5.9c0.6-1.3,1.6-2.2,3-0.8c0.3,0.4,0.5,0.8,0.5,1.3
			c-0.2,2.2,0.2,4,3.1,3.7c1.3-0.1,2.6-0.1,3.9,0.6c15.6,0.6,31.1,1.1,46.7-0.3c7.3-0.6,14.5-0.7,21.8,0c1.6,0.6,3.2,0.7,4.9,0.7
			c15,0,30.1,0,45.1,0c1.7,0,3.3-0.2,4.9-0.7C578.9,44,582.4,42.9,585.6,45.4z"/>
		<path class="st8" d="M191.2,100.3c-1.8,5.8-3.7,11.6-4.3,17.8c-7.6-0.8-15.4-1.2-22.7-4c-2.3-0.9-2.3,1.2-3.3,2
			c-1.8-0.5-2.1-1.2-2.2-3.4c-0.5-10.5,4.3-19.2,8.2-28.3c2-4.6,3.8-9.2,6.2-13.6c2.5-4.6,1.6-8.5-1.1-12.4c0.2-0.2,0.4-0.3,0.7-0.5
			c6.2,1.9,12.4-0.6,18.6-0.1c3.6,0.3,7.3,0.1,10.8,0.9c5.4,1.3,6.4,2.2,7.5,7c0.1-2.3-2.7-5.5,1.3-7.7c2.4,3,1.5,6.6,1.3,9.9
			c-0.3,5.5,0.9,10,5.7,13.1c0.4,1-0.1,1.5-1,1.9c-3.7-0.5-5.9-3.2-8.2-5.7c-0.7-0.8,1.3-3-1.3-2.6c-2.4,0.3-6.3-2.4-7,1
			c-1.9,8.3-7,15.2-9.4,23.2C190.9,99.4,191.1,99.9,191.2,100.3z"/>
		<path class="st9" d="M290.4,134.2c5.4,0,9-3.2,13.3-6.6c-3.6-0.3-5,3.2-8.5,3.1c3.6-3.6,8.3-5.1,11.1-9c0.8-1.1,2.5-1.4,1.2-3.2
			s-2.6-1-3.9-0.2c-2.9,1.8-5.7,3.8-8.8,5.4c0.5-1.8,1.7-2.9,3.3-3.7c4.9-2.3,7.8-7,11.9-10.3c2.2-1.9,3.5-0.6,5.3-0.1
			c-0.9,2.5-3.4,3.2-5.1,4.7c-0.9,0.8-2.8,1-1.5,2.9c1.1,1.7,2.4,1.4,3.8,0.6c0.3-0.2,0.6-0.5,0.9-0.4c1.9,0.2,2.7-4.5,4.5-1.7
			c0.9,1.4-2.3,3-4.2,4c-0.6,0.3-1.2,0.5-2.2,1c0.8,0.2,1.2,0.5,1.5,0.4c5.6-2.3,8.6,1.4,12.2,4.7c4.9,4.5,10.3,8.5,15.5,12.7
			c2.5,2,3.7,3.9,0.7,6.7c-2.2,2.1-3.7,5-6.1,8.4c4.2-1.6,5.2-5,7.2-7.2c1.3-1.5,2.1-3.4,4.6-3.3c-5.8,8.5-11.6,16.9-17.4,25.4
			c-1,1.5-1.9,1.9-3.5,0.6C312.6,159.1,299.8,148.3,290.4,134.2z"/>
		<path class="st10" d="M159.9,31.6c2.2-0.7,2-3,2.7-4.5c2.7-6,9.1-7.6,13.1-12c0.8,2.5-0.4,3.5-2.3,3.8c7.7,0.6,15.8-0.8,23.9,0.7
			c2.4,3,0.2,4.1-2.2,4.7c-2.4,0.7-4.9,0.3-7.4-0.2c-2.3-0.4-4.6-0.8-6.9,0.8c3.2,0.9,6.5,0.8,9.7,1.2c2.3,0.3,5.2,0,5.4,3.6
			c-1.4,1.9-3.4,1.6-5.4,1.5c-8.2-0.3-16.4-0.3-24.5,1c-0.3,0.1-0.6,0.1-0.9,0.1c-0.1,0-0.2,0.1-0.3,0.1c0.7,0.6,1.7,0.2,2.3,1.1
			c2.6,3.6,2.6,3.6,4.8-0.6c7.6-2.2,15.3-1.1,23-0.7c2.4,0.1,3.1,2.2,2.8,4.4c-0.2,1.8-1.1,3.5-0.1,5.3c1.7,7.9,2.5,8.4,11,8.1
			c8.7-0.3,17.5-0.3,26.2-0.5c1.4,0,3.2-0.3,2.8,2.2c-1.5,4.6-4.7,6-9.5,6c-16.7-0.1-33.4-0.1-50.2,0c-4,0-7.8-1.8-11.4-1
			c1.3,0.5,3.5-1.1,5,0.9c-0.1,0.2,0,0.5,0.1,0.7c-3.9-1.1-8.1,0.8-12-1.1c-1.1-0.5-1.6-2.8-3.7-0.8c-0.9,0.8-3-0.5-4-2
			c0.1-4.1-1.1-8-0.6-12.1c0.2-1.8-0.2-4.1,2.6-4.4c4.5,2.2,0.7,6.5,2.9,9.3c0.1-2.9,1.8-5.9-1.4-8.4c-0.4-0.2-0.8-0.5-1.1-0.8
			c0-0.5,0.2-0.9,0.5-1.2C157.9,36.2,157.4,32.5,159.9,31.6z"/>
		<path class="st11" d="M317.7,58.2c-6.3,0.6-6.8,4.7-6.3,9.8c0.1,1.3,1.6,3.7-1.3,4.4c-1.7,1.1-3.6,1.3-5.5,0.9
			c-6.4-1.3-12.9-0.4-19.3-0.7c-6.4-0.3-12.9,0.6-19.3-0.5c-5.6-4.2-5.2-13.4,0.6-16.7c6.4-1.3,12.9-0.3,19.4-0.5
			c3.2-0.1,5.6-0.5,7.1-4c1.5-3.4,5.2-3.4,6.8,0.1s4,3.8,7.2,3.8c7.5-0.1,15-0.1,22.4,0c2.1,0,4.4-0.2,6.2,1.3
			c-0.1,2.5-2.1,1.5-3.3,1.6C327.6,58.1,322.6,57.3,317.7,58.2z"/>
		<path class="st12" d="M520.4,45.3c-7.4,0-14.7,0.1-22.1,0.1c-13.9-0.2-27.8,0-41.6-0.1c-1.9,0-4,0.5-5.8-0.8
			c-2.2,0.6-4.6,1.8-6.6,0.2c-1.3-1.1-1.1-3,0.3-4.3c2.3-2,5.1-1.4,7.6-1.4c25.1,0,50.2,0,75.4,0c18.1,0.1,36.2-0.6,54.3,0
			c2.7,0.1,5.3-0.3,7.9-0.7c2.4-0.3,5.1-0.6,6.6,2.1c0,1.3,0,2.7,0,4c-3.6,0.9-7.4-0.7-10.9,1c-3.5,0.1-7,0.1-10.5,0.2
			c-11.3-0.2-22.5-0.2-33.8-0.2C534.3,45.4,527.4,45.4,520.4,45.3z"/>
		<path class="st13" d="M266.8,56.4c-3.8,2.6-4.4,10.7-1,14.9c0.1,0.7,0.4,1.4,0.6,2.1c2.1,4.9,2,10.3,3.6,15.4
			c2.2,6.6,5.3,12.8,7.9,19.2c0.5,1.3,1.6,2.6,0.9,4.2c-0.4,0.4-0.7,0.8-1.1,1.1c-6.1-10.9-9.7-22.7-12.6-34.7
			c-0.4-1.8-1-3.5-1.5-5.2c-2.9-0.6-4.3-2.3-4.2-5.4c0.1-1.9,0.6-3.9-0.9-5.6c-0.6-0.4-1.2-0.6-1.8-0.7c-1.4-0.3-3.7,0-3.7-1.7
			c-0.1-2.1,2.4-1.5,3.8-2.1c-0.8-0.6-1.9-0.4-2.7-0.9c-1.9-4.5-5.5-5.4-10-5.1c-1.9,0.1-3.9,0.7-5.9,0c-0.2-0.2-0.3-0.3-0.5-0.5
			c-2.7-2.2-5.8-0.3-8.4-0.3c-7.2,0.2-14.5-0.3-21.7,0.4c-8,0.7-10.7-1.3-10.8-9.1c-0.6-1.3-0.6-2.2,1.3-1.9
			c0.7,0.8,0.9,1.7,1.1,2.7c0.6,3.7,3,5.2,6.7,5.2c4.3,0.1,8.6-0.4,12.9-0.5c4.3-0.1,8.5-0.1,12.1,0c1.4-0.1,0.6-1.2,0.8-0.6
			c0,0.1,0,0.2-0.3,0.2c-8.8,0.2-17.5,0.6-26.3,0.7c-2.3,0-4.3-0.7-5.2-3.1c-0.7-1.9,0.2-2.4,1.9-2.3c0.5,0.1,1,0.2,1.5,0.4
			c8.4,2.3,17,1.8,25.6,1.5c1.5-0.1,3.1-0.6,4.4,0.1c5,2.7,10.2,2,15.5,1.2c3.6-0.6,7.4-2.1,10.7,1.2c0.7,0.7,1.9-0.1,2.8-0.5
			c2.2-0.6,4.4-1.7,6.5,0.3c1.4,2-0.5,4.1,0.5,6.4c0.9,2-2,1.6-3.4,1.9c-0.1,0-0.7-0.2-0.4,0.2C266,55.8,266.5,56,266.8,56.4z"/>
		<path class="st14" d="M278.8,112.1c-4.8-8.5-8-17.6-10.5-27c-1.1-4.3-2.3-8.6-3.5-12.8c6.9-1.2,13.8-0.4,20.7-0.4
			c6.4,0,12.8-0.6,19.2,0.4c1.8,0,3.6,0.1,5.4,0.1c-0.5,2.1,1,3.7,1,5.7c-2.9,1.5-5.8,2.9-6.7,7c-0.6-1.4-1-2.3-1.3-3.1
			c-2-5.6-4.3-6.4-10-4.2c-2.1,0.8-1.6,2.2-1,3.1c2.5,4.1,0.1,6.3-3,8.2c-0.7,0.4-1.5,0.8-2.3,1.1c-3.3,1.2-6.7,2.4-10.4,2.6
			c3-1.3,5.9-2.6,9-3.8c3.7-1.4,5.2-4.2,4.2-7.8c-0.9-3.1-3.6-3.9-6.7-3.8c-2.5,0.1-5-0.1-7.5,0c-6.2,0.4-8.3,4-5.3,9.3
			c1.2,2.1,2.2,4,2.2,6.6c0.1,4.1,2.7,5.2,6.4,3.5c3.7-1.8,7.3-3.6,11.4-4.8c-1.8,2.3-4.3,3.3-6.9,4.3c-6.5,2.5-6.6,3.1-4.6,9.5
			C279.2,107.6,283.4,110,278.8,112.1z"/>
		<path class="st15" d="M74.3,60.5C58.4,72.3,42.5,84.1,26.6,95.9c-0.7,0.6-1.4,1.5-2.5,1.2c-1.4-1.3-1.3-3.1-1.5-4.8
			c0.2-2.3,2-3.3,3.6-4.5c12.4-8.9,24.6-17.9,36.9-26.9c1.7-1.3,3.2-2.9,5.6-2.8c0.9,1.8,2.4,0.5,3.6,0.6
			C73.3,58.9,74,59.4,74.3,60.5z"/>
		<path class="st16" d="M317.7,58.2c3.1-2.1,6.6-0.5,9.9-1c2.7-0.4,5.5,0.9,8.1-0.9c-1.7-2.1-1.5-4.7-1.9-7.2
			c0.2-1.9,0.3-3.8,0.6-5.7c0.5-0.9,1.3-1.5,2.4-1.2c0.4,0.3,0.6,0.8,0.8,1.2c0.2,0.9,0.2,1.9,0.3,2.8c0.2,1.3-0.1,2.7,1.4,3.4
			c5.5,0.7,11,0.1,16.5,0.4c1.6,0.1,3.2,0.6,4.7,1.1c1.3,0.4-2.4,2.8,0.6,1.2c1.8-0.9,3.7-1,5.6-1.4c-1.3-0.2-3.2,0.9-4.2-1.7
			c5.2-1.6,10.1-2.2,15.2,0.1c-0.3,2.4-2.2,2.6-3.9,3.1c-9.8,2.7-19.4,6.2-29.8,4.9c-5.1-0.7-5,1.7-3.2,5.1c-0.8-0.1-2.1,0-2.3-0.4
			c-3.3-6-9-3.5-13.8-3.9C322.4,57.9,320,58.2,317.7,58.2z"/>
		<path class="st17" d="M216.9,83c0.4-0.3,0.8-0.7,1.3-1c5.6-2.4,11.4-1.3,17.1-0.8c8.5,0.8,10-0.4,10.1-8.8
			c0.1-3.8-0.6-7.6,0.7-11.3c1.5-2,2.5-0.5,2.6,0.7c0.3,3.5,0.8,6.5,5.1,7.1c0.3,0,0.5,0.8,0.7,1.3c0.3,0.8,0.1,1.6,0.5,2.4
			c0.7-0.7,0.1-1.5,0.3-2.2c1.8-4,2.2-4.2,5.1-3.4c-0.2,2.5,0.6,4.9-0.3,7.4c-0.7,4.2-1.4,8.5-2.1,12.7c-0.1,0.9,0.1,2.3-1.4,2
			c-1.3-0.2-1-1.4-1-2.4c0-2.8,1.4-5.9-2.2-7.9c-2.3-1.3-4-1.6-4.9,1.4c-0.7,2.3-2.3,4-4.5,4C234.9,84.3,225.8,85.7,216.9,83z"/>
		<path class="st18" d="M22.8,92.1c2,1.3,1,3.3,1.3,5c-4.7,5.8-17.5,7.6-22.6,2c-0.9-4.1,0.8-8,1.4-11.9c4.2-0.8,6,1.4,6.5,5.2
			c0.3,2.6,2.1,2.3,4,2.3C16.8,94.5,19.3,91.4,22.8,92.1z"/>
		<path class="st19" d="M191.2,100.3c-2.5-1.7-0.6-3.7,0-5.3c2.4-6.7,7.3-12.3,7.3-20c0-2.2,3.9-3.4,6.1-2.1
			c2.3,1.4,3.5,0.8,5.1-1.3c0,2.4,0.8,4.3-1,5.7c-4.1,0.1-6.5,2.9-8.6,5.9C196.3,88.6,194.1,94.6,191.2,100.3z"/>
		<path class="st20" d="M160.9,116.1c0.1-1.4,0.1-2.8,0.2-4.5c7.2,2.9,14.1,4.4,21.4,4.5c1.7,0,3.2,0.6,4.3,2
			C177.9,121.9,169.3,120,160.9,116.1z"/>
		<path class="st21" d="M152.9,55.2c1-1.1,5,2.7,3.8-2.3c-0.1-0.5,1.5-0.6,1.9,0.3c0.6,1.3,0.9,2.8,1.4,4.1
			c-10.9-1.4-21.8,1.2-32.7,0.8c-15.4-0.6-30.8,0-46.2,0c-0.1-0.7,0.2-1.2,0.8-1.5c2.2-1,4.6-0.8,6.9-0.8c13.4,0,26.9-0.1,40.3,0
			c7.4,0,14.9,0.1,22.2-1.5C151.8,54.5,152.4,54.8,152.9,55.2z"/>
		<path class="st22" d="M260,74.3c-0.1-2.7-0.2-5.4-0.3-8c-1.6-2-1.3-4,0.2-6c2,2.4,0.9,5.3,0.9,7.9c0,2.6,0.9,4.1,2.9,5.2
			C262.3,73.3,261,73.4,260,74.3z"/>
		<path class="st23" d="M81,57.3c0,0.3,0,0.5,0,0.8c-2.2,0.8-4.5,1.6-6.7,2.4c-0.8-0.4-1.5-0.8-2.3-1.2C74.3,55.7,77.5,55.8,81,57.3
			z"/>
		<path class="st24" d="M444.5,59.4c-2.4-0.2-4.7-0.7-5.7-3.3C440.6,57.4,444.2,55.5,444.5,59.4z"/>
		<path class="st25" d="M334.7,48.3c0.8,2.6,1.3,5.3,1,8c-10.8,0-21.6,0-32.5,0c-2.3,0-4.9,0.7-3.7-3.5c0.5-1.6-1.2-3.1-3-3.3
			c-2.2-0.2-2.8,1.5-2.7,3.3c0.2,3.1-1.4,3.5-4,3.5c-7.7-0.1-15.3,0-23,0c-1.4-0.1-2.8-0.2-4.5-0.3c1.7-3.1,4.8-0.7,7.1-2.6
			c-6-1.7,0.3-4-0.7-6.1c-0.3-1.7,0.8-3.5-0.3-5.2c-1-2.1-2.7-3.5-4.7-4.7c-1.7-1.1-3.8-2.4-1.5-4.8c1.4-0.7,2.9-0.6,4.4-0.6
			c14.8,0,29.6-0.1,44.4,0c6.3,0,6.9,0.9,5.7,7c-0.5,2.4-1.1,4.8-1.3,7.3c0,0.5-0.1,1,0.6,1.5c1-2.8,1.4-5.9,4.1-7.7
			c2.4-1.5,2.1-3.8,2-6.1c0.2-1.1,1.1-1.5,1.8-2c1.9-1.3,4.2-0.4,6.2-0.8c0.6-0.1,2.4,0.6,1.4-1.3c-0.1-0.3,0.6-1.3-0.5-0.9
			c-0.3,0.1-0.2,0.9-0.5,1.3c-1.9,1.9-5-0.2-6.9,1.9c-1.7,0.6-3.3,0.3-4.7-0.7c-0.8-1-0.3-2.1,0.5-2.6c3.4-2.1,3-4.6,1-7.4
			c-2-2-4.6-1.7-7.1-1.8c-10.1-0.1-20.3,0-30.4,0c-2.3,0-4.7,0.3-6.8-0.9c-0.6-3.6,2.3-2.7,4-2.8c5.6-0.3,11.2-0.2,16.8-0.1
			c7.7,0.1,15.5-0.4,23.2,0.3c0.7,0.1-0.1,0.1,0.5,0c0.4-0.1,0.4-0.5-0.2-0.7c-0.5-0.4-1-0.8-1.4-1.3c-2.2-1.7-6.1,1-7.4-2.9
			c4-0.9,8.4,1,12-1.9c3.1,1,5.8,0.1,8.3-1.8c1.7-0.4,3.5-0.3,5.2-0.9c-2.6,0.4-5.2,1.2-7.9,0.4c-0.6-1.3-0.7-2.5,0.4-3.6
			c5.9,2.7,12,0.7,18,1.2c1.6,0.1,3.3-0.2,5-0.3c0.5,0.5,0.7,1.1,0.9,1.7c0.1,0.3-0.5,1.1,0.4,0.8c0.2,0,0.3-0.5,0.5-0.8
			c1.7-0.3,3.6-2.5,4.8-0.7c1.6,2.3-0.6,4.5-1.8,6.6c-0.3,0.4-0.6,0.7-1,1c-2.2,1.1-4.1,2.3-5.1,4.7c-0.7,0.4-1.6,0.3-2.3,0.7
			c-1.6,1-2.3,2.5-1.7,4.2c0.7,2.1,2.6,1.5,4.2,1.1c1.4-0.4,2.6-1.3,3.9-2c1.5-0.9,2.8-2.3,4.9-1.6c1.8,1-1.2,4.5,1.5,4
			s0.8-3.1,0.4-4.8c0.9-2.4,2.9-4,4.5-5.8c3.8,2.4,1.7,5.9,1.8,9.1c-1.7,6.1-1.8,6.1-8.2,6.2c-2.6,0-5.4-0.4-7.7,1.3
			c-4.3,1.4-8.8,0.2-13.1,0.9c-2.6,1.6-1.3,4.2-1.6,6.3c0,1,0,2-0.2,3c-0.2,0.8-0.5,1.5-1.1,2c-0.6,0.3-1.3,0.7-1.9,1
			c-1.3,0.2-2.9-0.2-3.2,1.6C331.3,47.2,333.8,47,334.7,48.3z"/>
		<path class="st26" d="M320.8,15.5c0.6-0.5,1.4-1.6,1.8-1.5c2.2,0.9,0.7,2.8,1.1,4.8c-4.7-2.4-9.4-1.4-14.1-1.5
			c-9.6-0.1-19.2-0.1-28.7,0c-1.7,0-3.7-0.6-5.1,1c-1.3,2.3-3.6,3-6,3.4c-10.7,0.5-21.4,0.2-32,0.2c-11.2,0-22.5,0.1-33.7,0
			c-2.1,0-4.3,0.2-6.1-1.4c-8.4,0-16.7,0-25.2,0c0.2-2.7,3-3.2,3-5.3c0.3-0.3,0.6-0.5,0.9-0.8c2.3-1.5,4.8-1.9,7.5-1.9
			c24,0.1,48.1,0,72.1,0.1c1.9,0,4.5-1.1,5.6,1.7c-7.3,1.5-14.7,0.3-22,0.7c-8.4,0-16.8,0-25.3,0c8.4,0,16.8,0,25.2,0
			c12.6,0.7,25.2-1.1,37.9-0.9c12.1,0,24.2,0,36.3,0C316.5,14.1,318.9,13.8,320.8,15.5z"/>
		<path class="st27" d="M596.5,40.4c-1.3-0.7-2.8-1-4.3-0.9c-21.2,1.6-42.4,0.2-63.6,0.9c-1.7-0.8-3.6-0.4-5.4-0.4
			c-21.6,0-43.1,0-64.7,0c-2.2,0-4.3,0.2-6.3-0.9c-2.5-0.4-5.1-0.5-7.3-2.1c-1.7-3.7,1.4-3,3.1-3.5c0.6,0.2,0-0.9,0.1-0.3
			c0,0.3-0.1,0.3-0.5,0.2c-1.7-0.5-3.6-0.9-2.7-3.4c3.1-1.4,5.6-1,7,2.5c0.5,1.8,2.3,1.7,3.5,2.5c0.7,1.4,1.9,1.3,3.1,1.1
			c11.9-0.1,23.9,0,35.8-0.1c0.8,0,1.7,0,2.5-0.1c8.2-1.8,16.6-0.4,24.9-1.6c15.2,0,30.4,0.1,45.6,0.1c0.4,0.4,0.8,0.8,1.2,1.2
			c5.8,1.8,11.6,1.1,17.4,0.3c0.5-0.1,0.9-0.1,1.4,0s0.9,0.2,1.4,0.4c0.5,0.2,1.3,0.3,1.4,0.2c0.2-0.7-0.9-0.4-1-1.1
			c-0.2-0.7-0.1-1.4,0.4-1.9c2.1,1.6,4.7,0.2,6.9,1.1C595.5,36.4,596.6,38.4,596.5,40.4z"/>
		<path class="st28" d="M367.6,22.5c0-2.7-0.1-5.3-0.2-8c0-0.1-0.2-0.2-0.3-0.2s-0.3,0.1-0.4,0.1c-3.8,4.4-4.9,4.7-7.5,1.7
			c0.2-1.1,1.1-1.6,1.9-2.2c0.7-0.5,1.5-0.8,1.9-1.5c-1,0.1-1.8,0.7-2.7,0.9c-1.4,0.4-2.8,0.9-3.6-0.9c0-2.4,3-4,2.1-6.7
			c-1.5-0.9-2.4,2.1-4,0.6c-0.6-0.6-0.7-1.2-0.1-1.9c1.7,0,3.3,0.2,5,0.1c3.3-0.1,6.4,0.2,7.8,3.8c0.8,1.9,3.3,1.9,3.5,0.8
			c1.2-6.3,6.4-4.2,9.7-4.2c20-0.3,39.9-0.1,59.9-0.1c3.3,0,3.7,0.5,3,3.5c-1.4-1.1-3.2-0.9-4.8-0.9c-19.6,0-39.2,0-58.8,0
			c18,0,35.9,0,53.9,0c1.6,0,3.4-0.4,4.8,0.9c-1,3.4-4,2.4-6.2,2.4c-17,0.1-34,0.1-50.9,0.1c-2.2,0-4.3-0.1-6.5,0.1
			c-1,0.3-1.8,0.8-2,2c-0.1,1.2-0.1,2.4-0.1,3.6c0,1,0,2,0,3.1c0,1.6,0,3.3-0.8,4.8C369.6,26.6,367.8,26.6,367.6,22.5z"/>
		<path class="st29" d="M8.2,32.7c-1.1-0.1-2.3-0.3-3.4-0.4c9.4-1.3,18.9-0.6,28.4-0.6c36.8-0.2,73.5-0.2,110.3-0.3
			c1.2,0,2.3,0.1,3.5,0.2c0.5,0.9,0.5,1.6-0.3,2.3c-4.3,1.7-8.8,0.6-13.2,0.9c-3.7,0.3-7.6-0.6-11.2,0.7c-1.6,0.9-2.7,2.3-4,3.6
			c-2.4,1.9-4.8,1.6-7.2,0c-0.4-0.3-0.8-0.7-1.1-1.1c-0.6-1.1-1.8-2.1-0.8-3.6c1.5-0.6,3.1-0.3,4.7-0.4c-9.2,1-18.4,1.5-27.6,0.4
			c-3.8-0.8-7.6-0.3-11.4-0.3c-20.3,0.1-40.5,0-60.8,0C12,34,9.9,34,8.2,32.7z"/>
		<path class="st30" d="M261.7,14.4c-1.6-1.4-3.5-0.8-5.3-0.8c-24.3-0.1-48.6,0-72.9-0.1c-2.4,0-4.6,0.7-6.9,0.9
			c1.3-2.2,3.4-3,5.8-3c22.8,0.1,45.5,0.1,68.3,0.2c8.7,1,17.4,0.2,26.1,0.5c5.1,0.1,10.2-0.2,15.3,0.1c0.6,0.4,0.7,0.9,0.5,1.5
			c-3.6,1.8-7.5,0.1-11.1,1.2c-1.5,0.2-3,0.1-4.4,0.1C272,14.6,266.8,15.7,261.7,14.4z"/>
		<path class="st31" d="M465.6,15.6c12.1,0,24.1,0,36.2-0.2c3,0,4.2,1.1,4,4c-0.3,4.2,0.6,8.2,2.8,11.8c1.6,1.4,1.2,2.7-0.7,3.1
			c-3.7,0.7-7.4,1.5-10.6-1.5c-0.4-0.7-0.4-1.4-0.2-2.2c0.6-1.1,1.7-1.8,2.8-1.9c3.9-0.3,3.9-2.8,3.3-5.6c-0.1-0.4-0.1-0.9-0.3-1.3
			c-3.7-2.1-7.3-1.3-11,0c-1.8,0.2-3.7,0.7-5.5-0.1c-1-0.1,0.2-3.3-2.1-1.5c-5.3-1-10.6-2.4-15.9-0.1c-0.8,0.1-1.5,0-2.1-0.4
			C465.3,18.4,464.4,17.2,465.6,15.6z"/>
		<path class="st32" d="M438.6,8.5c-21.7,0-43.5,0-66,0c1.9-2.4,3.4-1.8,4.8-1.8c20.6,0,41.2,0,61.7,0c1.6,0,3.8-1,4.5,1.7
			c-1.3,0.1-2.6,0.1-3.8,0.2C439.3,9,439,8.9,438.6,8.5z"/>
		<path class="st33" d="M465.6,15.6c0.3,1.3,0.7,2.5,1,3.8c-4.3,2.9-9,1.2-13.5,1.2c-0.7,1.5-0.9-3.1-2-0.1
			c-1.3,3.6-5.6,1.9-8.1,3.6c-4.2-0.2-3.6-3-3.3-5.7c0.2-0.5,0.4-0.9,0.8-1.2c1.7-1.1,3.2,0.1,4.8,0.6c-0.6-0.7-1.7-0.8-1.7-1.7
			c0-1,1-1.1,1.8-1.1c2.1,0.1,4.2-0.3,6.3,0.3C456.4,15.4,461,15.5,465.6,15.6z"/>
		<path class="st34" d="M292.8,13.5c-1.4-1.7-3.4-1-5.1-1c-10.6-0.1-21.1,0-31.7-0.1c-1.7,0-3.7,0.6-5.2-0.9c20.3,0,40.6,0,60.9,0
			c2.6,2.4,6.4-0.6,9,2c-6.2,2-12.5,0.7-18.8,0.8C299,14.4,295.7,15.8,292.8,13.5z"/>
		<path class="st33" d="M438.6,8.5c0.4,0,0.8,0.1,1.2,0.1c1.2,1.4,5.3-0.1,3.9,3.9c-1.8,1.2-1.5,3.5-2.9,4.9l-0.2,0.2
			c-0.5,0.1-0.9,0-1.3-0.3c-0.4-0.6-0.6-1.3-0.7-2c-0.2-1.5-0.8-2.7-2.4-3.2c-18.8-0.4-37.6,0-56.4-0.2c-2.4,0-5.1,0.6-7.1-1.5
			c1.5-1.5,3.5-0.9,5.2-0.9c18.5,0,37.1,0,55.6-0.1C435.2,9.5,437.2,10.2,438.6,8.5z"/>
		<path class="st35" d="M497.7,32.4c3.2,1.8,6.6,1.2,10,1c1.8-0.1,0.9-1.3,0.8-2.2c4.4,1,8.8,2,13.2,3c-5.1,2.2-10.5,2.4-16,2
			c-2.8-0.2-5.6-0.2-8.2,1.2c-0.6-0.4-0.7-1-0.6-1.6c0.8-2-2-0.1-1.7-1.6C495.5,32.8,496.5,32.4,497.7,32.4z"/>
		<path class="st36" d="M331.7,8.7c-2.4,2.8-4.9,4.3-7.9,0.9c0.3-0.8,1.8-0.6,1.6-2c-0.2-1.1-3.3-0.6-1.6-1.8
			c1.5-1.1,2.8-4.9,5.9-2.1c0.1,1.4,0.2,2.7,0.2,4.1C330.6,8,331.5,7.7,331.7,8.7z"/>
		<path class="st37" d="M440.7,17.4c-0.1-2.3-1-5,2.9-4.9c0.2,1.9,1.6,2,3.1,2.1c1.7,0.1,3.5-0.3,5.1,0.7c-2.4,0.1-4.8,0.3-7.4,0.4
			c1.4,1.6,3.1,0.2,4.8,1.3c-1.4,2.3-3,3.2-5.3,1.5C442.8,17.7,441.9,17.5,440.7,17.4z"/>
		<path class="st10" d="M149.9,32.4c2-2.5,4.5-1.3,6.9-0.9c0.4,2.3-0.7,4-1.9,5.8l-0.1,0.1c-1.3,0.9-2.3,0.3-2.5-1s-0.5-1.7-1.7-0.9
			C149.9,34.6,149.3,33.7,149.9,32.4z"/>
		<path class="st38" d="M155,37.3c-0.5-2.3,0.5-4.1,1.9-5.8c1,0,2,0.1,3,0.1C158.2,33.4,160.3,38.5,155,37.3z"/>
		<path class="st39" d="M149.9,32.4c0.4,1,0.8,2,1.3,3c0.6,0.9,0.6,1.8,0.1,2.8c-1.6-0.8-2.1,1.8-3.6,1.2c-0.9-1-0.9-2.2-1-3.4
			c-0.1-1,0.2-1.9,0.3-2.8c0-0.5,0-1.1-0.1-1.6C148,31.9,149,32.2,149.9,32.4z"/>
		<path class="st40" d="M354.7,4.5c0,0.6,0.1,1.3,0.1,1.9c-0.4,1.3,1.6,3.8-1.3,3.6c-2.4-0.2-0.6-2.3-0.8-3.5c-0.1-0.6,0-1.3,0-1.9
			C353.4,4,354,4.1,354.7,4.5z"/>
		<path class="st41" d="M587.4,36.4c-0.3,0-0.5-0.1-0.8,0c-1.4-0.1-3,0.4-4.1-1c-0.1-2.8,3.8-1.6,4-4c1.4,0,3.2-0.3,3,2
			c0,0.7,0,1.4,0,2.1C589,36.3,588.5,37.1,587.4,36.4z"/>
		<path class="st42" d="M581,8.6c-1.8-0.3-4.4,0.8-4.4-2.5c0-3.2,2.4-2.5,4.3-2.5s4.7-0.9,4.6,2.7C585.2,9.5,582.6,8.2,581,8.6z"/>
		<path class="st43" d="M582.5,35.4c1.4,0.2,3-0.4,4.1,1c-5.6,2.7-11.5,1-17.2,0.7c-0.3,0-0.6-1-0.9-1.6
			C573.2,35.5,577.9,35.4,582.5,35.4z"/>
		<path class="st44" d="M8.2,93.5c0.6-4.1-2.3-5.4-5.4-6.4c1.1-13.5,1.5-27,0-40.5c1.2-1,0.1-2.5,0.8-3.6c2.4,0.1,3.7,2.9,6.3,2.4
			c1.2,0.9,1.4,2.2,1.6,3.5c1.9,13.2,0.9,26.4-0.7,39.6C10.5,90.4,10.7,92.6,8.2,93.5z"/>
		<path class="st45" d="M47,38.2c-11.6,0.1-23.3,0.1-34.9,0.2c-1.5-1.8-3.6-3.1-3.8-5.7c25-0.1,49.9-0.2,74.9-0.3
			c1.3,0,2.7-0.3,3.7,0.9c-2.8,2.5-7,1.4-9.9,3.6c-1.6,1-3.4,1.1-5.2,1.1C63.5,38,55.2,37.5,47,38.2z"/>
		<path class="st33" d="M371.6,24.5c0-1.7,0.1-3.4,0.1-5.1c2-2.1,4.7-2.3,7.4-2.3c17.4,0,34.9,0,52.3,0c2.7,0,5.3,0.5,7.7,1.6
			c1.7,2.1,1.1,4.7,1.5,7.1c0.3,1.5-0.4,3-2.4,3.1c-0.2,0-0.4,0-0.6,0.1c4.2,3.1,4.6,6.3,1.6,11.5c-2.2-1.5-1.7-5.1-4.5-6.1
			c-1.7-1.3-1.9-0.1-2.1,1.2c-0.3,2,0.6,4.2-0.9,6.5c-1.7-1.6-0.9-3.5-1.1-5.1c-0.2-1.3-0.1-3-1.8-2.9c-1.6,0.1-1,1.8-1.2,2.8
			c-0.2,1.6,0.4,3.3-0.7,5.2c-2.1-1.9-0.8-4.3-1.2-6.3c-0.2-0.8-0.1-1.8-1.2-1.8c-0.9,0-1.4,0.8-1.6,1.6c-0.6,2,0.5,4.3-1.1,6.6
			c-1.8-2-0.7-4.2-1-6.1c-0.2-1.2,0.2-3.1-2.1-1.6c-1.5,1.3-2.2-0.1-3.1-0.9c-4.1,1.7-0.4,5.9-2.8,8.4c-2-1.6-0.7-3.9-1.1-5.8
			c-0.2-0.9,0-2.3-1.3-2.2c-1.1,0-1.5,1.1-1.6,2.2c-0.2,1.9,0.4,3.9-0.7,5.9c-3.3-2.2,1.2-6.9-3.2-8.4c-0.9,0.7-1.6,2.1-3.1,0.8
			c-1.6-1.3-2-0.2-2.1,1.1c-0.1,2.1,0,4.1,0,6.9c-2.6-1.6-1.8-3.4-2-4.8s0.4-3.5-1.6-3.5c-1.6,0-1.3,2-1.4,3.2
			c-0.1,1.4-0.2,2.9-0.3,5c-2.6-2.1-1.5-4.3-1.6-6.2c-0.2-2.3-0.8-3.1-3-1.7c-1.7,0.5-3.7-0.2-5.2,1c-6.5,5.3-14.3,4.8-21.9,4.1
			c-6.8-0.7-13.5-0.6-20.3-0.7c-2,0-4,0-5.6-1.5c0.4-2.6-1.1-5.5,1-7.9c5.4,0.8,10.7,0.7,16.1-0.1c5.4-0.8,10.9-0.7,16.3,0
			c2.5,0.3,4.9,0.5,7.3,0.6c5.4,0.8,10.7,2,15.9-1c4.6-1.3,9.1-1.2,13.7,0c6.3,2.3,16.5,2.9,22.2,0.8c-7.1-1.7-14.4-0.4-21.5-0.8
			c-0.8-0.1-1.6,0-2.3-0.5c-1.3-3.8,1.5-4.2,4-4.3c5.7-0.3,11.5,0,17.2-0.2c1.7,0,3.6,0.6,5.1-0.8c-0.7-0.9,2.6-0.3,0.6-1.7
			c-0.7-0.2-1.3-0.5-2-0.5c-16.8-0.1-33.6-0.1-50.4,0c-0.7,0.1-1.4,0.3-2,0.5c-2.4,1.1,1.3,0.8,0.4,1.6c3.7,2.1,7.7,0.6,11.5,1.1
			c2.7,0.4,5.5,0.6,5,4.4c-0.7,0.4-1.5,0.3-2.3,0.4c-4.8,0.1-9.6-0.7-14.2,0.9c-2.4-0.3-5.1,1.1-7.2-1.1
			C370.4,27.2,370.8,25.9,371.6,24.5z"/>
		<path class="st46" d="M336.8,37.4c11.6-0.7,23.2,1,34.8,1c4.2,0,8.1-0.7,11.3-3.9c2.1-2.1,4.6-1,6.9,0c-0.4,2.4,0.5,4.9-0.7,7.5
			c-2.5-1.4-0.5-4.1-2.4-6.3c0.3,10.7-6.9,8.8-13,8.7c-0.3,0-0.7,0-1-0.1c-4.1-3.7-9.2-2.2-13.9-2.5c-5.4,0.3-10.9,0.1-16.3,0.1
			c-2,0-4,0.1-5.6-1.4C336.8,39.5,336.8,38.4,336.8,37.4z"/>
		<path class="st47" d="M336.8,46.3c0-1,0.1-2.1,0.1-3.1c1.1-0.4,1.9-0.4,1.9,1.1c1.5,1.7,3.4,0.9,5.1,1c10.6,0.1,21.2,0.1,31.8,0.1
			c-0.1,2.3-1.9,1.9-3.2,1.9c-2.8,0.1-5.6,0.1-7.1,0c2,0.2,5.4-0.1,8.7,0.1c1.5,0.1,3.5-0.7,3.7,1.9l0,0c-4.6,0-9.2,0-14.5,0
			c2.4,1.8,4.7,0.3,7.1,1.7c-4.9,0.3-8.8,3.1-13.8,2.4c0.7-1.9,2.6-0.5,3.5-2.2c-6.1,0-11.8,0-17.5,0c-1.6,0-3.3,0.6-4.7-0.9
			c0.5-0.4,1-0.5,1.6-0.5c6.4,0,12.8-0.1,19.2,0c-6.3,0-12.6-0.1-18.9,0c-0.6-2-0.6-2,2.9-2.5C340.7,47,338.5,48.1,336.8,46.3z"/>
		<path class="st48" d="M434.7,34.4c5.1-1.7,3.7,2.6,4.4,6.1c1.4-10.3,1.2-10.7-4.7-11.7c8.2,0.2,4.5-5.8,5.2-9.4
			c-0.6-0.7-0.4-1.3,0.2-1.9c0.2,0,0.5,0,0.7,0.1c0.8,2.1-1.6,5.9,3.1,5.8c1.3,1.1,1.2,2.7,1.3,4.2c0.1,1-0.2,2-0.3,2.9
			c1.4,1.1,2.8,2.1,4.3,3.2c-1.4,1.3-4.2-0.3-4.3,2.6c0.7,0.7,0.8,1.6,0.5,2.5c-0.2,0.2-0.3,0.3-0.5,0.5c-2.2,0.7-4.9,5.6-4.1,7.8
			c0.2,0.7,1.3,1.3,0.2,1.9c-1.1,0.5-1.8-0.2-2-1.4c-0.4-2.5,1-5.6-3.5-6.3C433.9,41.1,434.8,36.8,434.7,34.4z"/>
		<path class="st48" d="M451.6,37.4c2.7,1.9,5.7,2,8.9,2c20.9-0.1,41.9,0,62.8,0c1.8,0,3.7-0.6,5.2,0.9c-28,0-55.9,0-83.9,0
			c0-0.3,0-0.6-0.1-1l0,0C446.6,37.3,449.6,39.3,451.6,37.4z"/>
		<path class="st49" d="M338.7,44.3c-0.6-0.4-1.2-0.8-1.9-1.1c0-0.3-0.1-0.6-0.1-0.8c0-0.6,0.1-1.2,0.1-1.9c7.6,0,15.2-0.1,22.8-0.1
			c1.5,2.4-0.6,2.9-2,3.8C351.4,44.3,345.1,44.3,338.7,44.3z"/>
		<path class="st16" d="M377.7,49.4c-3.5-2.1-7.4-0.5-11.1-1c-2.4-0.3-4.9,0.5-7.9-1c5.9-2.5,11.8,0.6,17-2c0.8,0,1.6,0,2.5,0
			c3.1-0.2,6.2-0.4,6.4,4C382.3,49.4,380,49.4,377.7,49.4z"/>
		<path class="st50" d="M357.7,44.3c0.6-1.3,2.1-2.1,2-3.8c2.6,0,5.2,0,7.8-0.1c2.8-0.1,4.8,0.9,5.2,3.9
			C367.7,44.3,362.7,44.3,357.7,44.3z"/>
		<path class="st51" d="M415.5,33.5c1,0.3,2,0.6,3.1,0.9c-0.7,2.5,1.8,7.1-1.6,7.3c-2.6,0.1-0.6-4.7-1.3-7.2
			C415.5,34.2,415.6,33.8,415.5,33.5z"/>
		<path class="st51" d="M401.7,34.4c1-0.3,2.1-0.5,3.1-0.8c-0.1,2.1-0.1,4.2-0.2,6.3c0,1-0.1,2.1-1.3,2.2c-1.7,0.1-1.6-1.3-1.6-2.4
			C401.6,37.9,401.7,36.1,401.7,34.4z"/>
		<path class="st52" d="M247.1,60.3c-0.2-2.2-1.8-2.3-3.6-2.3c-4,0.1-8,0-11.9,0c-7.1,0-10.6,4.3-9.2,11.3c0.2,0.9,0.8,1.8,0,3
			c-2.6-1.4-3.1-4-3.6-6.5c-0.9-4.1-3-7.2-7.7-7.4c-2.3,2.6-0.2,6-1.8,9.8c-0.5-6.1-3.9-7.7-8.7-8.3c-6.3-0.8-12.6-1.1-18.7-0.1
			c-4,0.7-7.1,1-10-2.1c-3.2-1.3-6.6,0.1-9.8-1.4c6.8,0,13.5,0,20.3,0c15.1,0,30.3,0,45.4,0c3.3,0,7.2,1.2,8-4
			c0.1-0.4,1.4-0.6,2.1-0.9l0,0c2.7,3,6,4,10,3.6c2.1-0.2,4.2-0.2,6,1.3c2.1,0.5,6-1.1,6.2,1c0.2,3.5-4,1-6.9,3c2.9,0,4.8,0,6.8,0
			c-0.1,2-0.1,4-0.2,6c-1.6,1.4-3.7,2.5-3.8,5c-0.7,0.5-1.3,0.6-2,0c-0.9-3.4-3.2-3.1-5.4-1.4C247.3,66.4,249,63.1,247.1,60.3z"/>
		<path class="st6" d="M317.4,137c-2.6-3.1-5.2-6.3-7.8-9.4c-0.4-0.5-1.7-0.7-0.9-1.7s1.8-0.4,2.5,0.3c3.1,2.7,5.6,5.8,7.9,9.2
			C318.6,135.9,318,136.5,317.4,137z"/>
		<path class="st53" d="M334.4,142.9c-2,1.9-4,3.7-5.9,5.6C329.2,145.6,331.4,143.9,334.4,142.9z"/>
		<path class="st54" d="M321.7,150.2c-2,1.4-4.1,2.8-5.3,3.7c0.5-1.4,2.9-2.5,4.3-4.5C321,149.7,321.4,150,321.7,150.2z"/>
		<path class="st55" d="M197.9,20.5c13.3,0,26.6,0,40,0c1,3.9-1.9,4-4.3,4.2c-4.6,0.3-9.3,0.3-13.9,0.1c-4.9-0.2-9.8,0.9-14.7,0.1
			c2.7,0.7,5.7-0.2,7.9,2.3c0.7,2.4-1,3.4-2.7,3.8c-4.8,1.1-9.7,1.5-14.1-1.6c-3.4-3.4-7.9-1.4-11.8-2.4c-0.9-0.2-2.1,0.3-2.9,0
			c-1.3-0.5-3.5-0.3-3.7-2.1c-0.2-2.4,2.2-1.4,3.4-1.9c2.5-1.1,5.2-0.2,7.8,0C191.8,23.2,196.1,25.8,197.9,20.5z"/>
		<path class="st56" d="M195.9,29.4c4.2,0.1,8.3,1.7,12.7,0.7c1.9-0.4,3.5-0.8,4.3-2.7c0.2-0.2,0.3-0.3,0.5-0.5
			c1.8-0.5,3.6-0.8,3.6,1.9c0,1.6,1,1.7,2,2.2c0.6,0.4,1,0.9,1.2,1.6c-1.7,4.5-6.3,5.9-9.6,5.2c-5-1-8.9-0.5-12.8,2.6
			c-0.8,0.4-0.9,1.2-1,2c-2.4-1.1-1.7-2.7-0.8-4.5c1.5-3,0.9-4.8-2.8-4.5c-7.1,0.6-14.3-1.2-21.4,1c-2.6,0.3-4.6-1.5-7-2
			c4.1-3.3,9.1-2.2,13.8-2.6C184.4,29.3,190.2,30.5,195.9,29.4z"/>
		<path class="st57" d="M154.9,38.4c5.2-0.7,4.1,3.1,3.9,5.8c-0.1,2,1.5,5.7-1.7,5.7c-3.9,0.1-1.6-3.8-2.1-5.9
			C154.5,42.3,156.4,40.3,154.9,38.4L154.9,38.4z"/>
		<path class="st58" d="M150.8,38.4c0.1-1,0.3-1.9,0.4-2.9c0.6-0.3,1.5-2.7,1.7,0.2c0.1,1.2,0.9,1.6,1.9,1.8c0,0.3,0.1,0.6,0.1,1
			l0,0c-4.3,2.9-1.6,7.2-1.7,10.6c0,2.1-0.2,4.1-0.4,6.2l-0.5,0.1l-0.5-0.1c-1.2-0.5-1.9-1.3-2.1-2.5c-0.5-4-0.3-8-0.1-12
			C149.9,39.8,150.2,39,150.8,38.4z"/>
		<path class="st59" d="M164.9,32.4c2.5,0.1,5.2-0.7,7,2c-0.1,2,0.6,4.8-2.6,4.8c-2.4,0-3.8-1.4-2.8-4.3c0.5-1.7-1.3-1.4-2.3-1.6
			c-0.1,0-0.2-0.1-0.3-0.2C164.2,32.9,164.6,32.6,164.9,32.4z"/>
		<path class="st60" d="M188.8,43.5c2.2,0.1,3,1.1,3.1,2.8c0,1.5-0.5,2.7-2.1,2.9c-1.9,0.2-3.3-1-3.4-2.8
			C186.2,44.7,187.8,44.1,188.8,43.5z"/>
		<path class="st61" d="M304.7,72.3c-13.3,0-26.6,0-39.9,0c0.3-0.3,0.7-0.7,1-1c11.3,0,22.5,0,33.8,0.1
			C301.3,71.3,303.3,70.6,304.7,72.3z"/>
		<path class="st62" d="M197.8,40.4c2.6-4.5,6-5.8,11.3-4c4.1,1.4,7.9-0.7,10.8-4c4.1-2.6,8.4-1.4,12.7-1.1c2.7,2,5.2,3.9,8.8,1.5
			c1.4-1,3.2,0.2,4.5,1.3c1.7,1.4,3.3,2.7,5.1,4c1.4,3.9,5.3,3.3,8.3,4.3c-2.2-1.8-5.6-1.1-7.5-3.6c-0.8-2.4,0.9-3.2,2.6-3.8
			c1.7-0.6,3.1-1.6,4.8-2.3c1-0.2,2-0.2,2.7,0.7c0,1.7,1.1,2.9,2.6,3.2c3.3,0.6,4.2,3.3,5.4,5.7c-1.6,2.7-4.5,3.7-7,5.1
			c-1.8,2.9-3.6,3.3-5.3-0.1c-0.6-1.2-1.6-1.9-2.8-1.1c-3.4,2.2-7.4,1-11.1,1.9c-2.8,0.7-6.2,0.9-8.9-1.5c-1.1-1-3-0.6-4.7-0.6
			c-9.1,0.3-18.3,1.5-27.1-1.7c0.6-0.6,1.2-1.1,2-1.9c-1,0.5-1.3,1.4-1.9,1.9c-0.6-0.2-1.3-0.7-1.8-0.6c-1.1,0.3-0.4,1-0.1,1.5
			c1,2.4,3.2,2,5.1,2c9.3,0,18.5,0,27.8,0.6c-9.4-0.3-18.8,1.5-28.2,1.4C200.7,49.2,198.3,46.4,197.8,40.4z"/>
		<path class="st20" d="M253.8,56.3c-2.8,0-5.6-0.3-8.4,0.1c-4.1,0.5-7-0.4-7.6-5.1c3.6-1.4,7.4-0.3,11.1-0.7
			C252.5,50.2,254.2,52.6,253.8,56.3z"/>
		<path class="st63" d="M262.8,47.4c1.8-2.5,4-4.3,7-5.1c1.6,2.1-0.1,3.5-1.1,5.1C266.8,46.3,264.8,47.8,262.8,47.4z"/>
		<path class="st64" d="M256.6,50.5c1.2,0.2,2,1,2,2.2s-0.6,2.3-2,2.2c-1.4-0.1-1.8-1.3-1.8-2.5C254.9,51.3,255.2,50.5,256.6,50.5z"
			/>
		<path class="st65" d="M150.8,53.2c0.4,0.7,0.7,1.3,1.1,2c-17.7,4-35.7,1-53.5,1.9c-5.8,0.3-11.6,0.2-17.5,0.2
			c-3.1,0.1-6.1,0.7-9,2c-1.1-0.2-2.9,1.5-3.1-1.1c0.2-0.9,0.9-1,1.6-1c1.7-1.8,4.4-2,5.8-4c1.1-1,2.3-1.6,3.8-1.3
			c2.6,1.5,5.2,0.2,7.8,0.2c19.8-0.2,39.5,0.1,59.3-0.2C148.7,51.8,149.8,52.2,150.8,53.2z"/>
		<path class="st66" d="M334.7,48.3c-1.8,0-3.8,0.5-4.7-1.6c-0.6-1.3-0.4-2.5,0.6-3.7c1.5-1.8,2.9-1.9,4.2,0.3
			C335.8,45,335.9,46.7,334.7,48.3z"/>
		<path class="st25" d="M336.8,46.3c3.4,0.3,6.8-0.6,10.7,0.9c-3.1,2.3-6.5-0.2-8.8,2.1c0.3,0.2,0.5,0.4,0.4,0.7
			c-0.1,0.2-0.2,0.3-0.3,0.3c-0.3,0-0.7,0-1,0C336.3,49.3,336.9,47.7,336.8,46.3z"/>
		<path class="st67" d="M253.9,71.3c0.7,0,1.3,0,2,0c1.4,1.1,1.2,2.3-0.1,3.3c-0.4,0.3-1.4,0.4-1.8,0.1
			C252.4,73.7,253.1,72.5,253.9,71.3z"/>
		<path class="st68" d="M261.8,33.4c-1,0-2,0-3,0c-0.1-0.3-0.1-0.6-0.2-0.9c0.4-0.5,0.9-0.8,1.5-1.1c11.3-0.9,22.5-0.3,33.8-0.4
			c8-0.1,15.9-0.2,23.9,0.1c0.3,0.1,0.6,0.1,0.9,0.2c1.8-0.1,3.5,0.1,5.1,1l0,0c-0.4,0.7-0.7,1.4-1.1,2.1c-3.1,1.6-4.2,3.5-0.9,6
			c-3,1.8-3.9,4.7-4.1,8c-0.1,1.6-0.9,3.3-2.5,3.2c-1.9-0.2-1.6-2.3-1.4-3.7c0.4-3.3,0.5-6.8,1.8-9.7c2.2-5-0.5-4.7-3.9-4.7
			C295.1,33.4,278.4,33.4,261.8,33.4z"/>
		<path class="st69" d="M356.7,12.5c1,0.6,2,0.6,3,0c0.8,0.9,0.8,1.9,0,2.8c0.1,2.1,1.3,2.4,2.9,1.6c1.4-0.7,2.7-1.6,4.1-2.5
			c0.1,2.8-2.6,3.4-4,5c0,1.6-0.9,1.6-2,1c-3.7,0.6-5.8,4.4-9.5,4.8c-1.7,0.2-3.9,0.9-5.1-0.8c-1.3-2-0.1-4.2,0.9-6.1
			c1-1.8,2.8-2.2,4.6-0.9c2.2,1.1,2,2.3,0.5,3.4C357,20.2,355.2,15.4,356.7,12.5L356.7,12.5z"/>
		<path class="st70" d="M292.8,13.5c9.3,0,18.6,0,27.9,0c0,0.7,0,1.3,0.1,2c-14.3,0-28.7,0-43,0c-0.3-0.2-0.4-0.4-0.3-0.6
			c0.1-0.2,0.3-0.3,0.4-0.3c1.3-0.1,2.6-0.1,3.9-0.2C285.4,13.2,289.2,14.8,292.8,13.5L292.8,13.5z"/>
		<path class="st64" d="M281.6,55.3c-1.6-0.1-4.6,0.7-4.6-2.9c-0.1-3.5,2.8-3,5-3.1c0.2,0,0.3,0,0.5,0c2.2,0.4,5.9-1.2,6,2.4
			C288.6,55.6,285,55.4,281.6,55.3z"/>
		<path class="st69" d="M371.6,24.5c0,1.4,0.1,2.7,0.1,4.1c-6.3,2.3-12.6,1.4-19,0.7c1.8-3.5,5-1.8,7.4-1.7c4.1,0.2,6.9-0.6,7.5-5.1
			C368.1,24.9,369.6,25.3,371.6,24.5z"/>
		<path class="st28" d="M356.7,12.5c0,0.8,0.1,1.7,0,2.5c-0.2,1.4,2.5,2.6,0.8,3.9c-2,1.4-4.3,2.5-6.6,3.3c-1.3,0.4-2.3-0.9-2-2.1
			c0.5-1.9,1.4,0.1,2.1,0.1c3-0.1,0.7-1.6,0.7-2.6C350.7,13.2,354.2,13.3,356.7,12.5z"/>
		<path class="st71" d="M352.7,29.3c6.3,0.1,12.7,0.7,19-0.7c2.1,1.8,4.6,0.6,7,0.8c0.2,0.2,0.3,0.4,0.3,0.6s-0.1,0.3-0.2,0.3
			c-12.4,0-24.9,0-37.3,0c-1.3,0-2.7,0.4-3.6-0.9C342.8,29.4,347.8,29.3,352.7,29.3z"/>
		<path class="st40" d="M323.8,32.4c0.1-1.8,1.4-2,2.8-2c2,0,4.2,0.4,3.2-2.9c-0.3-1,0.4-2,1.7-1.8s2.6,1.2,1.7,2.3
			c-2.1,3,1.6,2.2,2.2,3.8C331.5,33.1,327.6,32.1,323.8,32.4L323.8,32.4z"/>
		<path class="st72" d="M321.8,40.5c-2.2,0-4.2-0.5-4-3.3c0.2-3.2,2.7-2.8,4.9-2.7C324,36.7,324.5,38.8,321.8,40.5z"/>
		<path class="st28" d="M360.7,20.5c0.8,0,1.5-0.2,2-1c3.1,0.6,1.9,3,1.8,4.7c-0.1,2.3-2.2,1.5-3.5,1.5
			C358.1,25.9,358.1,25.8,360.7,20.5z"/>
		<path class="st73" d="M317.8,27.4c2-1.4,4.8-2,4.8-5.3c0.1,0.5,0.1,1,0.3,1.4c2,3,0.9,4.7-2.1,5.9c-0.8,0.3-1.4,1.3-2.1,1.9l0,0
			c-0.5,0.4-1,0.4-1.4-0.1C316.6,29.9,316.8,28.6,317.8,27.4z"/>
		<path class="st74" d="M331.7,8.7c-0.6-0.3-1.2-0.6-1.7-1c2.7-2.5,5.8-1,8.9-0.5C336.5,7.7,334.1,8.2,331.7,8.7z"/>
		<path class="st75" d="M271,20.6c-0.7,1-1.4,1.9-2.2,2.9c-6.2,3-12.8,1.2-19.1,1.3c-8.1,0.1-16.2,1.4-24.3,1.1
			c-0.7,0-1.2,0.5-1.7,0.9c-0.5,0.5-1,1-1.8,1.1c-3,0-5.9-2.8-9.1-0.5l0,0c-2.9-1-5.8-1.1-8.8-1c-1.5,0-3.6,0.2-3.6-1.6
			c0-2.2,2.3-1.3,3.6-1.3c9.7-0.1,19.4-0.1,29-0.1c2.2,0,4.5,0.1,4.7-3C248.9,20.5,260,20.6,271,20.6z"/>
		<path class="st76" d="M277.9,14.6c0,0.3-0.1,0.6-0.1,0.9c-12.7,0-25.3,0-38,0c-0.3-0.2-0.4-0.4-0.3-0.6c0.1-0.2,0.3-0.3,0.4-0.3
			c7.3-0.1,14.5-0.2,21.8-0.3C267.1,14.4,272.5,14.5,277.9,14.6z"/>
		<path class="st77" d="M239.9,14.6c0,0.3-0.1,0.6-0.1,0.9c-8.3,0-16.5,0-24.8,0c0-0.3,0-0.6,0-0.9
			C223.3,14.6,231.6,14.6,239.9,14.6z"/>
		<path class="st78" d="M521.8,36.1c14,0,28,0,42,0c0,0.3,0,0.6,0,0.8c-14,0-28,0-41.9,0C521.9,36.6,521.9,36.3,521.8,36.1z"/>
		<path class="st28" d="M450.7,34.1c14.9,0.1,29.8,0.1,44.6,0.2c0.4,0.9,2.8-1.1,2.1,1.4c-1.3,0.9-2.8,0.7-4.3,0.7
			c-11.1,0-22.1,0-33.2,0c-1.5,0-3,0.2-4.2-0.9C454,35,451.9,36.3,450.7,34.1z"/>
		<path class="st79" d="M455.7,35.5c13.9,0.1,27.8,0.1,41.7,0.2c0.1,0.6,0.2,1.2,0.2,1.8c-0.7,0-1.4,0-2,0
			c-5.6-1.3-11.2-0.5-16.8-0.5c-7.4,0-14.9-0.7-22.3,0.5C454.7,37.5,455.2,36.5,455.7,35.5z"/>
		<path class="st80" d="M456.6,37.4c0.4-0.3,0.8-0.8,1.2-0.8c12.2-0.1,24.5-0.1,36.7-0.1c0.4,0,0.7,0.6,1.1,0.9
			C482.6,37.4,469.6,37.4,456.6,37.4z"/>
		<path class="st28" d="M451.6,37.4c-1.7,3-4.5,1.6-7,1.9c0-1,0-2,0-3C447,36.7,449.3,37.1,451.6,37.4z"/>
		<path class="st5" d="M587.4,36.4c0.7-0.3,1.4-0.6,2.1-0.9c1.5,0.3,3.2-0.7,5.3,1.7C591.8,37.3,589.6,38.4,587.4,36.4z"/>
		<path class="st81" d="M439.8,17.5c-0.1,0.6-0.1,1.2-0.2,1.9c-20.3-2-40.7-0.5-61-0.9c-2.3,0-4.5,0.6-6.8,0.9c0-1,0.1-2,0.1-3
			c1.9-1.8,4.3-1.3,6.6-1.3c18.9-0.2,37.8,0.1,56.7,0c1.5,0,3.1-0.4,4.5,0.4C439.7,16.2,439.7,16.8,439.8,17.5z"/>
		<path class="st82" d="M436.6,16.4c-21.6,0-43.2,0-64.8,0c0-1.3,0-2.6,0-3.9c1.1-1,2.2-1.9,3.7-0.5c2.8,3.2,5.4,2.1,7.9-0.4
			c3-1.4,6.2,0.2,9.2-0.4c2,3.4,5.3,2.5,8.3,2.6c2.8,0.7,5.6,0.5,8.5,0.2c2.6,0.3,5.2-0.6,7.8-0.3c0.5,0.1,1,0.2,1.4,0.3
			c3.2,0.5,6.4,0.5,9.5-0.3c2.4-0.4,4.8-0.6,7.2,0.2C436.3,14.3,437,15.1,436.6,16.4z"/>
		<path class="st81" d="M374.9,12.7c-0.9-1.4-2.1,0-3.1-0.2c-0.1-0.9,0.1-1.6,0.9-2.1c20.1,0,40.2,0,60.3,0.1c1.9,0,4-0.7,5.7,0.9
			c-0.8,1.1-2,1.4-3.3,1.6c-2.9-0.3-5.8-0.3-8.6,0.1c-3.2-0.9-6.2,0-9,1.5l-0.1-0.3c-2.4-2.7-5.5-1-8.3-1.2c-3-0.4-5.9-0.3-8.9,0.1
			c-2.6-0.4-5.3,0.2-7.6-1.6c-2.9,1.8-6.4-1.6-9.2,1C380.7,13.1,377.8,12.9,374.9,12.7z"/>
		<path class="st83" d="M359.7,15.3c0-0.9,0-1.9,0-2.8c1.6-0.5,4.2-2.3,4.6-0.8C365,14.5,362,15,359.7,15.3z"/>
		<path class="st84" d="M111,38.4c2.3,0.5,4.7,1.7,7,0c0.3,0,0.6-0.1,0.9-0.1c7.7-0.6,15.5-0.2,23.3-0.2c2.4,0,4.9,0.3,4.3,3.8
			c-1.1,1.9-3,1.8-4.7,2c-2.6-1.1-5.1-2.1-7.9,0c-1.5,1.1-3.5,0.8-5.3,0.8c-8,0-16-0.3-23.9,0.1c-4.4,0.3-7.6-3.5-11.9-2.8
			c-2.2-0.8-6.5,0.5-6.3-2.2c0.2-3,4.3-1.8,6.8-1.9c5.6-0.1,11.2-0.3,16.9,0.1C110.4,38.3,110.7,38.3,111,38.4z"/>
		<path class="st85" d="M76.9,35.3c3.1-1.8,6.6-1.9,10-2.1c10.3,0,20.7,0,31,0c-2.9,2.2-6.3-0.1-9,2.1c-1.5,1.7-3.6,1.4-5.5,1.4
			c-5.6,0.1-11.2,0-16.8,0c-2.1,0.1-4.3,0.3-6.4,0.4C78.8,37.3,77.1,37.6,76.9,35.3z"/>
		<path class="st39" d="M118,38.4c0.7-1.4,1.2-3,3.2-3.1c8.2-1.4,16.5-1.3,24.7-0.1c0.4,1-0.1,1.6-1.1,1.6c-7.4,0.2-14.8,0-21.5,0.1
			c6.9,0.1,14.7-0.1,22.5,1C136.5,38.7,127.2,39.4,118,38.4L118,38.4z"/>
		<path class="st86" d="M145.8,35.5c-8.2-0.1-16.5-0.2-24.7-0.2c0.2-3.1,2.6-1.9,4.2-1.9c7.2-0.2,14.5-0.2,21.8-0.2
			c0.3,0.7,0.6,1.5,0.8,2.2C147.2,36,146.6,36,145.8,35.5z"/>
		<path class="st87" d="M86,35.4c7.6,0,15.3,0,22.9-0.1c0.9,0.4,1.7,1.1,2,2.1c-0.8,0.6-1.6,0.8-2.6,0.6c-5.7-0.6-11.5,0-17.2-0.3
			C89.2,37.6,86.7,38.4,86,35.4z"/>
		<path class="st88" d="M109,37.4c0.6,0,1.3,0,1.9,0c0,0.3,0.1,0.7,0,1l0,0c-8.3,1.1-16.6,0.3-24.9-0.3
			C93.7,36.7,101.3,36.5,109,37.4z"/>
		<path class="st34" d="M292.8,13.5c-3.5,1.8-7.3,0.7-11,0.9C285.4,12.5,289.2,13.9,292.8,13.5z"/>
		<path class="st89" d="M497.6,30.4c-1.1-2.3-2.8-3.2-5.5-3.1c-13.2,0.2-26.4,0.1-39.6,0.3c-2.9,0-5.8,0.8-8.7,1.2
			c0-1.8-0.1-3.6-0.1-5.4c0.2-1.8,1.3-1.9,2.8-1.7c2.4,0.3,4.4-0.3,4.5-3.3c0.1,0,0.4,0.1,0.4,0.1c0.1,0.3,0.2,0.6,0.3,0.9
			c5.4,2,11,0.8,16.6,0.8c3.4,0,6.9-0.2,10.3-0.2c2.1-0.3,4.3,0.8,6.4-0.3c2.4-1.3,1.2,1,1.7,1.7c4.1,1.2,8.1-0.9,12.2-0.4
			c1.9,0.3,4.1-0.2,5.5,1.7C506.9,29.5,501.9,29.7,497.6,30.4z"/>
		<path class="st90" d="M479.5,21.3c-7.9,0-15.9,0.2-23.8,0.1c-1.4,0-4,1.4-4-1.9c5-0.1,10-0.1,14.9-0.2c0.7,0,1.4,0,2.1,0
			c3.7-1.7,7.5,0.3,11.2-0.4c0.8-0.1,1.7,0.2,1.5,1.3C481.3,21.1,480.2,20.9,479.5,21.3z"/>
		<path class="st91" d="M479.5,21.3c0-0.6,3.2-1.4,0.1-1.7c-3.6-0.4-7.2-0.2-10.8-0.3c2.2-1.6,4-2.7,7.4-1.3c2.4,1,6.1-0.6,8.8,1.8
			C483.7,22.4,481.5,21.3,479.5,21.3z"/>
		<path class="st91" d="M504.3,22.8c-4.2-0.1-8.4-0.1-12.7-0.3c-1.7-0.1-3.6,0.6-5-1c1.6-0.2,3.3-1.3,4.9,0
			c4.3-1.1,8.6-2.5,12.9,0.1C504.4,21.9,504.4,22.3,504.3,22.8z"/>
		<path class="st33" d="M504.5,21.5c-4.3-1.6-8.6,0.4-12.9-0.1C495.1,18.6,501.9,18.6,504.5,21.5z"/>
		<path class="st92" d="M435.6,12.6c0.7-1.2,2-1,3.1-1.1c1.3,1.1,0.9,2.6,0.9,4c-1,0.3-2,0.7-3,1c-0.4-0.8-0.8-1.6-1.2-2.3
			C435.1,13.6,435,13,435.6,12.6z"/>
		<path class="st81" d="M145.8,35.5c0.7-0.1,1.4-0.1,2.1-0.2c0,1.4,0.1,2.7,0.1,4.1c0.8,0.9,0.9,2,0.2,3c-0.8,0.5-1.5,0.5-2.3,0
			c0.3-3-1.7-3-3.9-3c-6.5,0-13,0-19.4,0c-1.6,0-3.4,0.6-4.7-1c8.9,0,17.9,0,26.8,0c0-0.3,0-0.6,0-0.9c-7.9,0-15.8,0-23.8,0
			c0-0.4,0-0.7,0-1.1c6.5,0,13.1,0.1,19.6,0C142.4,36.3,144.3,37,145.8,35.5z"/>
		<path class="st84" d="M147.9,42.3c0-1,0-2,0.1-2.9c0.9-0.5,1.4-2.1,2.9-1c0,0.7,0,1.3,0,2c-1.3,1.7-0.7,3.7-1,5.5
			c-0.2,1.2,0,3.2-2.3,2.2C146.3,46.1,146.5,44.2,147.9,42.3z"/>
		<path class="st29" d="M109,37.4c-7.3,0-14.6,0-21.8,0c0,0.3,0,0.6,0,1c7.9,0,15.9,0,23.8,0c-3.2,2.1-6.7,0.8-10,1
			c-4.6,0.2-9.3,0.1-14.7,0.1c2.5,1.8,5.1,0,6.7,2c-2,1.2-4.2,0.1-5.8,0.5c1.2,0.4,3.2-0.5,5,0.6c-1,2.5-3.2,2-5,2.3
			c-1,0-2.1,0.3-3.1-0.1c-1.2-1.2-1-2.5-0.3-3.7c-1.2,0.5-0.6,2.6-2.1,3.1c-3.9,0.9-7.7-0.2-11.6-0.7c-0.1-1.8,1.4-2.9,2.6-5.2
			c-8.9,0-17.2,0-25.6,0c7.3-1.7,14.7-0.5,22-0.8c2.9-0.1,5.5-0.4,7.9-2.1c3,2,6.1-0.9,9.1,0.1c5.5,2.1,11.3,0.4,16.9,1
			C105,36.6,107.2,35.6,109,37.4z"/>
		<path class="st93" d="M70,43.4c4-2.5,8,0.6,11.9,0c1.9,3,0.2,4.9-2,6.6c-4.1,1-8.1,1.6-11-2.6C68.8,45.9,68.8,44.5,70,43.4z"/>
		<path class="st88" d="M69,47.4c3.3,2.3,7.1,2.1,10.9,1.9c1.1,1.4,0.5,2.3-0.9,3c-0.7,0.7-1.3,1.4-2,2.1c-2.3,1.7-4.7,0.9-7.1,0.2
			C68.3,52.3,68.4,49.9,69,47.4z"/>
		<path class="st23" d="M69.9,54.5c2.3-1.1,4.8,0.2,7.1-0.2c-1.3,2.9-4.3,1.8-6.4,2.8C70.3,56.3,70.1,55.4,69.9,54.5z"/>
		<path class="st94" d="M432.6,22.5c2.9,3.2,0,2.9-1.9,2.9c-7.1,0.1-14.2,0.1-21.2,0c-2.1,0-4.1,0-3.8,3c-3.7,0.8-7.4,0.9-11,0
			c-0.8-2.1-2.1-3.1-4.5-3c-4,0.2-8,0.2-12,0s-1.1-1.8-0.5-2.9c1.5-1.7,3.6-1.4,5.6-1.4c14.6,0,29.2,0,43.8,0
			C429,21.1,431.1,20.8,432.6,22.5z"/>
		<path class="st56" d="M432.6,22.5c-18.3,0-36.6,0-55,0c-0.4-0.3-1.8,0.4-1-1.1c1.6-1,3.5-1,5.3-1c15.4,0,30.9,0,46.3,0
			c1.8,0,3.7,0,5.3,1C434.3,22.9,433,22.1,432.6,22.5z"/>
		<path class="st95" d="M433.7,21.5c-19,0-38,0-57,0c0.4-0.3,0.7-0.7,1.1-1c4.9-1,9.9-0.4,14.9-0.4c13.3,0.1,26.6-0.6,39.9,0.4
			C432.9,20.8,433.3,21.1,433.7,21.5z"/>
		<path class="st96" d="M432.5,20.4c-18.3,0-36.5,0-54.8,0c0.9-1.3,2.4-1,3.7-1c15.8,0,31.6,0,47.4,0
			C430.1,19.5,431.6,19.1,432.5,20.4z"/>
		<path class="st97" d="M392.8,29.4c-0.2-0.3-0.3-0.6-0.4-0.9c0.7,0,1.5-0.1,2.2-0.1c3.7,0,7.4,0,11,0c0.9,0,1.7,0.1,2.6,0.1
			c-0.2,0.3-0.4,0.6-0.6,0.9C402.7,29.4,397.8,29.4,392.8,29.4z"/>
		<path class="st98" d="M338.7,50.3c0-0.3,0-0.7,0-1c6.9,0,13.9,0,20.8,0c0,0.3,0,0.7,0,1C352.6,50.3,345.7,50.3,338.7,50.3z"/>
		<path class="st99" d="M222,27.5c0.3-0.3,0.7-0.7,1-1c0.7-0.9,1.7-1.1,2.7-1c13.8,0.1,27.6-1.1,41.5-0.8c2.5,2.4,0.5,3.2-1.5,3.8
			c-2.1,0.6-4.7,0.1-5.8,2.7c-0.3,0.4-0.7,0.8-1,1.2l0,0c-0.6,0.5-1.3,1.1-2.1,1.2c-7.7,1-15.2,0-22.8-1.1c-4.7,0-9.3,0-14,0
			c-0.3-0.3-0.7-0.7-1-1C218.3,28.9,220.2,28.2,222,27.5z"/>
		<path class="st55" d="M222,27.5c-1,1.3-2.1,2.6-3.1,3.9c-1.5-0.3-5.7,2.8-3.1-2.5c0.5-1,0.2-1.1-2.9-1.5
			C215.9,24,218.9,25.9,222,27.5z"/>
		<path class="st100" d="M79,52.2c0.3-1,0.6-2,0.9-3c0.9-1.9,2.4-3.6,2-5.9C82,42,82.6,41,84,39.4c0,2.2,0,3.6,0,4.9
			c0.5,5.7,0.5,5.6,6.5,5.6c16.7,0,33.4,0,50.1,0c1.8,0,3.6,0.2,5.4-0.3c0.6-0.4,1.2-1,1.9-1.3c1.5-1.3,0.9-3,1-4.6
			c0.1-1.5-0.2-3.1,1.9-3.4c0,4.3,0,8.6,0,12.8c-21.2,0.1-42.4,0-63.6,0.3C84.3,53.5,81.4,54.9,79,52.2z"/>
		<path class="st25" d="M233.8,32.4c8.3,0,16.6,0,24.9-0.1c0,0.3,0,0.7,0,1c-1.1,3.4-6,1.5-7,5c-0.3,0.4-0.6,0.4-1,0
			c-1.5,0.1-2.8-0.3-3.9-1.6c-2.2-2.8-4.5-4.3-8.1-1.5C235.9,37.5,234.5,35.2,233.8,32.4z"/>
		<path class="st13" d="M250.8,38.4c0.3,0,0.7,0,1,0c3.4,1.1,6.9,2.2,10.5,3.4c-3,4.8-6.2,0.2-9.2,0.5
			C250.3,42.6,251,40.1,250.8,38.4z"/>
		<path class="st13" d="M202.9,44.4c0-0.7,0-1.3,0-2c0-1.4,0.9-2,2.2-2c0.9,0,1.8,0.3,2,1.1c0.3,1.4-0.9,2.1-1.9,2.5
			C204.6,44.4,203.7,44.3,202.9,44.4L202.9,44.4z"/>
		<path class="st101" d="M259,31.1c-0.4-2.9,0.8-3.9,3.8-3.8c1.6,0.1,4.4,1.8,4.8-1.8c0.3-0.3,0.6-0.4,1-0.2c0.3,1.6,1.4,2,2.9,2
			c15.4,0,30.9,0.1,46.3,0.2c0,1.3,0,2.6-0.1,3.9c-1.5,0.9-3.2,0.5-4.9,0.5c-16.4,0-32.8,0-49.2,0C262.1,31.9,260.4,32.6,259,31.1z"
			/>
		<path class="st102" d="M268.6,25.3c-0.3,0.1-0.7,0.1-1,0.2c-12.9,0.2-25.8,0.4-38.7,0.7c-2,0-4,0.2-5.9,0.4c-1.8-2.3,0.5-2,1.5-2
			c12,0.3,23.9-2,35.9-0.6c3,0.3,5.7-2,8.6-0.4C268.8,24.1,268.7,24.7,268.6,25.3z"/>
		<path class="st25" d="M259,31.1c2.9,1.1,5.9,0.5,8.9,0.5c16.6,0,33.2-0.2,49.8-0.3c0.3,0,0.7,0,1,0c-1.1,1.5-2.7,1.1-4.1,1.1
			c-18.6,0-37.2-0.1-55.8-0.1C258.9,32,258.9,31.5,259,31.1z"/>
		<path class="st103" d="M400.7,12.4c3-1.4,6-1.6,9,0.1c0.6,0.5,0.5,1.1,0.1,1.7c-3.1,2-6.2,2-9.3,0C400.1,13.5,400.1,13,400.7,12.4
			z"/>
		<path class="st104" d="M417.7,14.6c2.2-4.5,5.5-3.7,9.1-1.9c0.6,0.4,0.8,1,0.8,1.8C424.4,16.1,421.1,15.9,417.7,14.6z"/>
		<path class="st105" d="M374.9,12.7c2.9-1.9,5.8-1.7,8.7-0.1C380.1,16.4,377.9,16.4,374.9,12.7z"/>
		<path class="st48" d="M400.7,12.4c-0.1,0.6-0.1,1.2-0.2,1.8c-2.8-0.2-7.4,4.8-7.7-2.7C395.5,11.7,398.2,10.9,400.7,12.4z"/>
		<path class="st48" d="M409.8,14.2c0-0.6-0.1-1.1-0.1-1.7c2.8-0.3,6.4-3.8,7.9,1.8C415,13.7,412.3,17,409.8,14.2z"/>
		<path class="st106" d="M427.6,14.4c-0.3-0.6-0.6-1.2-0.8-1.8c2.9-1.8,5.8-1.7,8.8-0.1c0,0.5-0.1,1-0.1,1.6
			C432.9,14.2,430.2,14.3,427.6,14.4z"/>
		<path class="st107" d="M86,43.4c1.6,0,3.3,0,5.3,0c-1.4-1.8-3.1-0.4-4.9-2.1c2.6,0,4.6,0,6.5,0c1.2-0.5,2.6-1.6,3.7-0.5
			c4.2,4,9.4,2.4,14.2,2.5c6.3,0.2,12.6,0.1,19,0c1.3,0,3.1,0.2,3.8-0.6c3.2-3.6,5.7-1.8,8.3,0.6c1.4-0.7,2.8-0.9,4,0.2
			c-0.2,1.2-1,1.2-1.8,1.3c-0.2,0-0.8-0.7-0.7,0.2c1.1-0.2,2.8-0.5,2.3,1.1c-0.6,1.7-2.7,1.4-4.4,1.2c-0.5-0.1-0.9-0.3-1.3-0.5
			c-1.8-2.1-3.5-2.6-5.2,0.1c-0.5,0.3-1,0.5-1.5,0.6c-11.1,0.4-22.1,0.3-33.2,0.1c-0.5-0.1-1-0.2-1.5-0.4c-1.9-1.5-3.8-3.5-5.9-0.2
			C86.8,48.1,85.9,47.6,86,43.4z"/>
		<path class="st39" d="M140.1,46.5c1.6-0.1,3.3-0.2,5-0.3c-0.8-1.5-2.3-0.3-3.2-1.2c0.6-1.4,2.4,0.1,3.1-1.6c-1.2,0-2.1,0-3.1,0
			c1-1.5,2.6-0.9,4-1c0.7,0,1.3,0,2-0.1c0,2,0,4,0,6.1c0,0.7,0,1.3,0,2c-0.6,0.3-1.3,0.2-1.9-0.1c-0.4-0.2-0.7-0.5-1.1-0.7
			C143.8,47.8,140.5,49.5,140.1,46.5z"/>
		<path class="st84" d="M140.1,46.5c1.4,2.1,5.3-0.9,5.8,2.8c-3.3,1-6.6,0.4-9.9,0.4c-15.8,0.1-31.6,0-47.4,0c17.3,0,34.6,0,51.9,0
			c1.8,0,3.7,0.5,5.4-0.5c0.7,0.3,1.3,0.6,2,1c-0.5,1-1.1,1.4-2.3,1.4c-18.9-0.2-37.9-0.3-56.8-0.4c-0.2,0-0.3,0-0.5,0
			c-7.3,0.3-7.4,0.3-4.3-7c0.7-0.3,1.4-0.6,2-0.9c0.8,4.8,4.5,2.3,7,2.9c1.6-0.5,3.3-0.6,4.9,0l0.1,0.2c12.3,0.6,24.5,0.6,36.8,0
			l0.1-0.2c1.7-0.5,3.3-0.6,5,0.1L140.1,46.5z"/>
		<path class="st87" d="M134.9,46.5c-1.9,1.6-4.1,0.8-6.2,0.8c-8.6,0.1-17.2,0.1-25.8,0c-1.6,0-3.3,0.6-4.7-0.8
			C110.3,46.5,122.6,46.5,134.9,46.5z"/>
		<path class="st108" d="M132.8,45.2c-10.9,0-21.7,0-32.6,0c0-0.2,0-0.3,0-0.5c10.9,0,21.7,0,32.6,0C132.8,44.9,132.8,45,132.8,45.2
			z"/>
		<path class="st109" d="M98,46.3c-1.6,1.3-3.3,1.3-4.9,0c-0.1-1.4-0.2-3.4,1.6-3.4C96.3,42.9,97.7,44.4,98,46.3z"/>
		<path class="st65" d="M139.9,46.4c-1.7,1.3-3.3,1.3-5-0.1c0-1.4-0.1-3.4,1.7-3.3C138.3,43,139.7,44.4,139.9,46.4z"/>
		<path class="st110" d="M145.9,49.4c-0.6,0.3-1.1,0.9-1.7,0.9c-19,0-38.1,0-57.1-0.9C106.7,49.4,126.3,49.4,145.9,49.4L145.9,49.4z
			"/>
	</g>
</g>
</svg>
