<?xml version="1.0" encoding="utf-8"?>
<!-- Generator: Adobe Illustrator 25.0.0, SVG Export Plug-In . SVG Version: 6.00 Build 0)  -->
<svg version="1.1" id="Camada_1" xmlns="http://www.w3.org/2000/svg" xmlns:xlink="http://www.w3.org/1999/xlink" x="0px" y="0px"
	 viewBox="0 0 597 212" style="enable-background:new 0 0 597 212;" xml:space="preserve">
<style type="text/css">
	.st0{fill:#FDFDFD;}
	.st1{fill:#4F5553;}
	.st2{fill:#0D0F10;}
	.st3{fill:#394142;}
	.st4{fill:#191D1E;}
	.st5{fill:#0E100F;}
	.st6{fill:#292F31;}
	.st7{fill:#403E3A;}
	.st8{fill:#3D4648;}
	.st9{fill:#252623;}
	.st10{fill:#242A2C;}
	.st11{fill:#171A1B;}
	.st12{fill:#121415;}
	.st13{fill:#3F3E3B;}
	.st14{fill:#1F201F;}
	.st15{fill:#5C6563;}
	.st16{fill:#2D2F2D;}
	.st17{fill:#424A4B;}
	.st18{fill:#2E3435;}
	.st19{fill:#3B3A36;}
	.st20{fill:#686456;}
	.st21{fill:#484742;}
	.st22{fill:#656053;}
	.st23{fill:#1C1D1A;}
	.st24{fill:#5A574B;}
	.st25{fill:#596465;}
	.st26{fill:#58574F;}
	.st27{fill:#2E3336;}
	.st28{fill:#191A18;}
	.st29{fill:#5A5951;}
	.st30{fill:#42525B;}
	.st31{fill:#979486;}
	.st32{fill:#4D4B43;}
	.st33{fill:#5D6F78;}
	.st34{fill:#767366;}
	.st35{fill:#8B887B;}
	.st36{fill:#31302D;}
	.st37{fill:#E7E3D3;}
	.st38{fill:#363B3C;}
	.st39{fill:#3A3A36;}
	.st40{fill:#303739;}
	.st41{fill:#DEDCD2;}
	.st42{fill:#101313;}
	.st43{fill:#9A9788;}
	.st44{fill:#99A8A8;}
	.st45{fill:#111314;}
	.st46{fill:#4D5759;}
	.st47{fill:#32393A;}
	.st48{fill:#5D696B;}
	.st49{fill:#5D686A;}
	.st50{fill:#373633;}
	.st51{fill:#3D4546;}
	.st52{fill:#262B2D;}
	.st53{fill:#343330;}
	.st54{fill:#42413D;}
	.st55{fill:#394042;}
	.st56{fill:#4F636E;}
	.st57{fill:#85A6B7;}
	.st58{fill:#627A87;}
	.st59{fill:#7997A7;}
	.st60{fill:#20211E;}
	.st61{fill:#181918;}
	.st62{fill:#0A0C0B;}
	.st63{fill:#A1B1AE;}
	.st64{fill:#6D7A7B;}
	.st65{fill:#262623;}
	.st66{fill:#545F61;}
	.st67{fill:#252A2C;}
	.st68{fill:#535E60;}
	.st69{fill:#707E80;}
	.st70{fill:#515B5D;}
	.st71{fill:#677476;}
	.st72{fill:#758486;}
	.st73{fill:#E0EBEA;}
	.st74{fill:#A09D8E;}
	.st75{fill:#F9F8F0;}
	.st76{fill:#9B9889;}
	.st77{fill:#C3D2D0;}
	.st78{fill:#56544D;}
	.st79{fill:#595750;}
	.st80{fill:#605E56;}
	.st81{fill:#373632;}
	.st82{fill:#080908;}
	.st83{fill:#454541;}
	.st84{fill:#848175;}
	.st85{fill:#838073;}
	.st86{fill:#25292A;}
	.st87{fill:#030303;}
	.st88{fill:#FEFEFE;}
	.st89{fill:#040504;}
	.st90{fill:#F7F6ED;}
	.st91{fill:#181917;}
	.st92{fill:#C9C6B5;}
	.st93{fill:#0B0C0C;}
	.st94{fill:#6E7971;}
	.st95{fill:#4A5456;}
	.st96{fill:#FBFAF4;}
	.st97{fill:#F5F4EA;}
	.st98{fill:#626E70;}
	.st99{fill:#657274;}
	.st100{fill:#677475;}
	.st101{fill:#080909;}
	.st102{fill:#687577;}
	.st103{fill:#4F595A;}
	.st104{fill:#6D7A7C;}
	.st105{fill:#758385;}
	.st106{fill:#4E5757;}
	.st107{fill:#4A5354;}
	.st108{fill:#7F8E90;}
	.st109{fill:#8F9FA1;}
	.st110{fill:#8B9B9D;}
	.st111{fill:#050606;}
	.st112{fill:#8FA0A2;}
	.st113{fill:#829295;}
	.st114{fill:#F8F7F2;}
	.st115{fill:#6B787A;}
	.st116{fill:#6B797A;}
	.st117{fill:#748284;}
	.st118{fill:#AFBFBC;}
	.st119{fill:#AEBEBC;}
	.st120{fill:#B8C8C5;}
	.st121{fill:#939182;}
	.st122{fill:#888578;}
	.st123{fill:#3E3D38;}
	.st124{fill:#F2F0E6;}
	.st125{fill:#242523;}
	.st126{fill:#B4C4C1;}
	.st127{fill:#EEF1F1;}
	.st128{fill:#CDDBDA;}
	.st129{fill:#B8C9C6;}
	.st130{fill:#232829;}
	.st131{fill:#BCCCCA;}
	.st132{fill:#BACAC8;}
	.st133{fill:#B7C8C5;}
	.st134{fill:#7C796D;}
	.st135{fill:#AFAC9C;}
	.st136{fill:#ECEAE1;}
	.st137{fill:#A8A595;}
	.st138{fill:#8F8D7F;}
	.st139{fill:#C2BFAE;}
	.st140{fill:#2E3434;}
	.st141{fill:#99AAAB;}
	.st142{fill:#A9BABB;}
</style>
<g>
	<path class="st0" d="M0.2,189.9c0.3,0,0.6,0,0.9,0c1.4,0.8,0.9,2.6,1.7,3.7c-0.1,0.6,1,0.1,0.4,0.1c-0.3,0-0.3-0.1-0.4-0.3
		c-0.3-1.2,0.3-1.7,1.3-2c2.3,0.4,2.7,3.3,5.1,3.5c16.3,4.8,32.6,9.8,49,14.3c1.4,0.4,3,0.4,3.9,1.8c0,0.3,0,0.5,0,0.8
		c-19.2,0-38.4-0.1-57.6,0.1c-3.3,0-4.8-0.2-4.5-4.2C0.5,201.9,0.2,195.9,0.2,189.9z"/>
	<path class="st1" d="M594.3,49c1.6,2.8,0.7,6.4,2.6,9.1c0,2,0,4,0,6c-1.8,0.8-0.5,3-1.9,4c-1,0.8-1.3,2.9-3.4,2
		c-0.3-0.4-0.5-0.8-0.7-1.3c-0.6-2.2,0.1-4.6-0.8-6.8c-0.3-0.6-0.7-1.1-1.1-1.6c-2.4-1.7-4.6-1.5-6.7,0.5c-0.7,0.4-1.4,0.6-1.9-0.2
		c-0.9-1.7-0.8-3.5-0.6-5.3c0.1-0.5,0.3-0.9,0.5-1.4c1.9-2.6,4.7-1.7,7-1.9c-2.3-0.3-5.4,1-7-2.4c-0.1-0.8,0-1.6,0.5-2.3
		C586,44.5,589.2,44.9,594.3,49z"/>
	<path class="st2" d="M559,80.3c0.5,3.1-1.1,4.5-3.8,5.9c-8.9,4.6-18.1,6.2-28.3,6.1c-38.6-0.4-77.3-0.2-115.9-0.2
		c-1.7,0-3.3-0.2-5-0.3c-2.8-6.3-1.6-12.7-0.9-19.2c2.3-3.3,5.9-3.8,9.3-3.4c9.6,1.2,19.2-0.4,28.9-0.2c8.6,0.2,17.3,0.4,25.8-0.2
		c8.9-0.7,17.8,0.4,26.7,0c7.7-0.3,15.5-0.2,23.3,0.2c3.4,0.2,6.5-0.8,9.9-0.3c5.2,0.7,10.5-0.2,15.4,3c2.1,1.4,5.2-0.1,7.8-0.3
		C559,70.8,561.4,73.9,559,80.3z"/>
	<path class="st3" d="M102.2,127.2c-1.2,2.1-3.1,0.8-4.7,0.9c-6.5,0.6-7.1,6.5-9.3,10.7c-1.9,3.8-3.7,7.7-5.7,11.4
		c-0.6,1.2-1.2,2.4-2.9,2.2c-1.6-4-0.6-8.1-0.9-12.2c0.3-3.3,2-5.9,3.4-8.8c3.9-7.7,2.6-11.3-5.4-14.2c-12.1-4.5-10.4-7.3-19.1,6.1
		c-9,13.9-18.1,27.9-26.9,42c-3.3,5.4-7.2,10.4-10.1,16c-0.4,0.9-1,1.8-2.2,1.7c-2.5-2.4-0.9-4.6,0.4-6.7
		c7.6-12.3,14.4-25,22.8-36.8c4-5.6,6.5-12.2,9.8-18.2c2.1-3.9,3.9-8,6.6-11.5c2.8-3.6,4-7.4,4.1-11.9c0.3-11.8,0.9-12.2,12.6-12.2
		c7.6,0,15.3,0,22.9,0c4,0,5.7,1.7,5.6,5.7c-0.4,7.6,0.2,15.1-0.6,22.8C102.3,118.3,103.8,122.9,102.2,127.2z"/>
	<path class="st4" d="M559,80.3c-0.1-1.5,0.1-3-0.2-4.5c-0.5-2.6-1.8-4-4.9-3.4c-5,1-9.8,2.1-14.9-1.5c-3.5-2.4-8.9-0.8-13.3-0.9
		c-5.8,0-11.7-0.5-17.3,0.2c-5.2,0.7-10.3-0.2-15.4,0.1c-4.7,0.2-9.9,1.3-15-0.6c-3.3-1.2-7.5,0.4-11.2,0.6c-4.5,0.3-9-0.8-13.7,0.2
		c-3.4,0.8-7.5,0.2-11.1,0c-9.4-0.7-18.8,1.8-28.2-0.3c-2.3-0.5-5.1,1.1-7.7,1.7c-1.9-3.7-2.5-7.2,0.7-10.6c1.1-0.3,2.1-0.2,3.2,0.1
		c7.7-1.5,15.6,2.5,23.2-0.7c1.8-0.8,3.6,0.2,5.1,1.4c2.4,1.9,4.5,1.4,6.6-0.6c1.8-0.8,3.8-0.5,5.2,0.6c2.1,1.6,3.6,0.6,5.2-0.7
		c5.8,1.9,11.8,0.1,17.7,0.6c0.6-0.4,1.1-0.7,1.8-1c1.8-0.9,3.4-0.1,5,0.7c1.6,0.8,3.2,1.5,4.8,0c0.4-0.2,0.8-0.4,1.3-0.5
		c4.9,2.7,10.6-0.7,15.6,1.9c1,0.5,1.8-0.5,2.6-1.1c0.4-0.3,0.8-0.5,1.2-0.7c1.8-0.4,3.5,0.4,5.2,0.7c0.4,0.1,0.9,0.2,1.3,0.3
		c2.9-0.2,5.7-1.4,8.6-0.4c0.4,0.1,0.9,0.2,1.3,0.3c2.8-0.8,5.7-1.5,8.5,0.2c0.7,0.4,1.7,0.9,2.3,0.4c4-3,6.7-0.5,9.5,1.9
		c3.4,3.3,7.3,1,10.9,0.7c7.2-0.6,14.9,3.5,18.2,10.1c-2.1,2.5-6.9-1.8-8,3.2C561.9,80.1,560.4,80,559,80.3z"/>
	<path class="st5" d="M312,81c1,3.7-0.4,5-4.2,4.8c-5-0.3-10,0-15-0.1c-2.6,0-5.6,1-7.3-2.5c-0.6-1.2-2.4-0.7-3.7-0.7
		c-26.1,0-52.3,0-78.4,0c-1.7,0-3.6-0.5-4.2,2.2c-0.4,1.8-2.7,1.2-4,1c-9.4-1.6-14.1,3.6-17.3,11.3c-3.8-0.8-4.6-5.6-8.5-6.4
		c-1.3-0.3-2.6-1.3-3.9-1.9c-4.6-2-9.4-1-14.1-1.2c-4.4-0.1-8.9,0-13.3,0c-1.8-0.1-3.6,0.1-5.3-0.3c-3.9-0.8-5.9,0.7-6.3,4.6
		c-1.6,3.3,0.5,7.5-2.7,10.4c-2.7-1.5-2.2-4.1-2.2-6.6s0.7-4.9,0.2-7.4c-2.2-0.5-4,2.1-6.2,0.8c-4.1-3-9-0.6-13.3-2.2
		c-11.8-0.6-23.5-0.1-35.3-0.3c-2.7,0-4.8,2.5-7.6,1.8c-6.9-4.7-14.9-2-22.3-3.1l0.1-0.2c0.5-2.8,2.9-2.2,4.7-2.4
		c8.9-1.1,17.9-0.8,26.7-2.9c5.3-0.6,10.5,0.1,15.8-0.2c10.3,0,20.5-0.2,30.7,0c9.7-0.1,19.4-0.1,29.1,0c19.4-0.1,38.9,0,58.3-0.1
		c21.4,0,42.9,0.3,64.3,0c13.9,0.4,27.8,0,41.6,0.2C309.8,79.6,311,80.1,312,81z"/>
	<path class="st6" d="M58.9,87.2c14.7-2.3,29.4-0.7,44.1-1.1c1.3,2.7,3,4.3,6.4,3.8c1.8-0.2,4.8-0.2,3.1,3.4
		c-0.4,0.4-0.7,0.7-1.2,0.9c-6.1,2.6-7.3,4.4-5.8,11c0.9,4,1,7.8-0.5,11.7c-0.8,2.8,0.1,5.9-1.8,8.5c0.4,1-0.1,1.6-1,1.9
		c-0.1-12.2-0.2-24.4-0.1-36.6c0-2.5-0.6-3.7-3.3-3.6c-10.1,0.1-20.3,0.1-30.4,0c-3.3,0-4,1.6-4.4,4.6c-0.7,4.9,1.1,10.5-2.1,14.6
		c-3.3,4.4-5.4,9.4-8.3,14c-2.2,3.3-4.8,7-5.8,10.6c-2.2,7.7-7.9,12.9-11.6,19.5c-5.5,9.7-11.6,19.1-17.4,28.7
		c-0.8,1.4-1.1,2.8,0.3,4c1.4,1.4,1.3,3,0.5,4.6c-2,1-2,0-1.9-0.8c0.8,2.6,0.6,5.7-2.1,8.2c-2.3,1.6-5.2-0.6-7.6,1
		c-3.1,0.5-2.8-2.5-4-4c2.3-5.4,5.6-10.3,8.6-15.4c2.4-4.1,5.1-8.1,6.7-12.6c5.7-9.4,11.3-18.9,16.6-28.5c3.9-5.9,7.3-12,11-18
		c1.6-3.1,3.5-6,5.3-9c1.4-3.3,3.9-6.1,5.1-9.5C58.6,95.1,56.6,90.9,58.9,87.2z"/>
	<path class="st7" d="M312,81c-1,0-2,0-3-0.1c-11-1-21.9-0.2-32.9-0.4c-2,0-4,0-6,0c-1.8-0.2-1.4-1.3-0.8-2.3
		c2.9-1.6,6.3-1.4,9.3-2.7c1.8-0.8,3.2-1.6,3.7-3.6c0.9-2,1.8-3.9,4-4.8c0.9-0.4,1.9-0.8,1.9-2c0.2-5.9,5-7,9.1-8.8
		c2.8-1.3,5.9-2.4,6-6.3c0-0.7,0-1.5,0.6-1.8c4.1-2,4.7-5.1,4.1-9.4c-0.4-2.6,2.7-3.3,5-3.8c4.2-0.1,8.5-1,12.5,0.7
		c1.2,1.9-0.5,2.2-1.6,2.5c-1.9,0.6-3.9,0.4-5.9,0.4c-3,0-4.7,1.3-4.6,4.4c-0.1,1.4-0.1,2.8-0.1,4.1c0.1,1.1,0,2.3,0,3.4
		c0,3.5,0,7.1,0,10.6c-0.2,4.2,0.6,8.4-0.4,12.6c-0.3,0.6-0.6,1.1-0.9,1.6C312.1,77.2,312.1,79.1,312,81z"/>
	<path class="st8" d="M312.1,75.3c0-0.4-0.1-0.9-0.1-1.3c2.1-1.8,4.7-1.5,7.2-1.5c25.3,0.3,50.6,0.2,75.9,0c2.2,0,4.3,0.1,6.3-0.9
		c1.2-0.7,2.2-1.5,2-3.1c-0.9-6.4,1.8-12.4,1.8-18.7c4.1-0.6,7.9-3.9,12.3-1.3c1.2,0.7,2.2,0.2,3.3-0.3c2.8-1.1,5.6,0.1,8.4,0.1
		c2.3,0.1,4.4,0.3,6.8-0.2c5.1-1,7.3,2,7.2,9.4c-0.4,1.8,0.3,2.9,2,3.5c0.3,0.4,0.2,0.8-0.1,1.2c-1.7,3.6-4.2,3.9-7.1,1.4
		c-1.3-1.1-2.7-2.6-4.4-1.6c-5.4,3.2-10.7,1.3-16.1,0.3c-2.6-0.5-4.9,2.4-7.6,0.8c-0.7-0.5-0.3-1.7-1.3-2c-0.1,0.4-0.3,0.9-0.7,1.2
		c-4.1,2.6-0.9,6.7-1.9,9.9c0,6.6,0,13.2,0,19.8c-4.7-1.9-3.2-6-3.2-9.4c-0.1-7.6,0-7.6-7.6-7.6c-25.7,0-51.4,0-77.1,0
		C316.1,74.8,314.1,75.1,312.1,75.3z"/>
	<path class="st9" d="M562.9,78.9c0.1-1.4,0.1-2.9,0.2-4.9c2.4,1.7,4.4,2.6,7.1,1.6c-6.1-6.5-12.5-10.9-22-7.9
		c-2.7,0.8-6,1.3-7.4-2.6c1.3-1.5,3.2-1.9,5-1.8c11.2,0.8,22.4-0.7,33.5,0.3c0.7,0.1,1.3,0.2,1.8,0.6c1.6,3.7,1.2,7.6,1.1,11.4
		c-0.2,0.2-0.4,0.4-0.5,0.6c-4.8,1.7-9.8,0.6-14.7,0.7C565.2,76.9,563.9,77.4,562.9,78.9z"/>
	<path class="st10" d="M78.8,165.9c-4.8,9.7-9.6,19.5-14.4,29.2c-2.4,0.8-2.2,3.5-3.6,5.1c-2.2,2.5-3.4,2.3-4.9-1
		c-0.1-1,0.1-2,0.3-3c1.9-5.1,4.7-9.7,7-14.6c0.8-1.7,1.5-3.3,1.4-5.1c0.1-0.4,0.3-0.8,0.6-1.2c1.6-1.3,2.5-3,3.4-4.8
		c1.1-1.9,2.2-3.8,2.8-5.9c0.5-1.8,1.3-3,3.3-3.1C77,162.2,78.1,163.8,78.8,165.9z"/>
	<path class="st11" d="M78.8,165.9c-1.5-1.1-2.9-2.3-3.7-4c-1.1-4,2.4-6.8,2.9-10.4c0-0.1,0.9,0,1.2,0.5c3.8-3.3,5.5-8,7-12.4
		c1.3-3.9,4.3-6.7,5.3-10.8c0.5-2.3,4-0.2,6-0.7C91.3,140.7,85,153.3,78.8,165.9z"/>
	<path class="st12" d="M8.2,195.9c1.7-4.4,4.7-0.6,7-1.1c2.2-0.9,4.2,0,6.2,0.6c8.2,2.5,16.5,4.7,24.6,7.3c2.5,0.7,4.9,1.6,7.4,2.3
		c4.2,1.3,8.9-0.3,13,1.9c-1.5,1.4-2.9,2.8-4.4,4.2c-9.3-1-18-4.5-26.9-7C26.2,201.5,17.2,198.6,8.2,195.9z"/>
	<path class="st13" d="M175,104c-4.7,13.9-12,19.4-26.6,19.8c-8.8,0.2-17.5,0.1-26.3,0.1c-0.6-0.9-0.5-1.7,0.3-2.4
		c6.2-1.9,12.5-0.5,18.7-0.9c5.4-0.4,11,0.9,16.2-1.4c3-1.5,5.8-3.3,8.1-5.8c4.2-4.6,6.2-9.6,4.5-15.9c-0.6-2.1-2.3-4.2-0.8-6.6
		c3.4,0.4,4.3,3.1,5,5.9C174.6,99.1,174.3,101.6,175,104z"/>
	<path class="st14" d="M122,122c0,0.6,0,1.2,0.1,1.9c-4.5,1.2-9.1,0.5-13.6,0.7c-1.8,0.1-3.6-0.2-5.3,0.7c0.3-3.1-1.1-6.4,0.9-9.3
		c2.8-2.1,5.9-1.5,8.5-0.2C115.9,117.5,119.3,119.4,122,122z"/>
	<path class="st15" d="M66.5,206.9c-4.5,0.3-9.1,0.6-13.4-1c0.6-1.4,1.2-2.9,2.9-3.4c3.8,1.6,4.6-2.7,7.1-3.6c1.2,1.6,2,3.5,4.1,4.6
		C69.5,204.8,68,206,66.5,206.9z"/>
	<path class="st16" d="M175,104c-2.1-0.9-1.8-2.8-1.9-4.6c-0.3-3.3-0.5-6.6-4.1-8.3c-2.1,0.1-2.6-1-2.3-2.9c5,1.3,8.6,4.4,11.2,8.7
		C177.4,99.5,176.3,101.8,175,104z"/>
	<path class="st17" d="M63.1,198.9c-1.1,4.6-2.8,5.5-7,4c-0.9-0.7-2-1.1-2.2-2.3c0.6-1.5,1.6-2.1,3.2-1.7c0.1,0.7-0.1,1.6,0.3,1.9
		c1.5,1.1,1.9-0.7,2.6-1.3c1.6-1.3,1-5,4.5-4.4C64,196.4,63.5,197.6,63.1,198.9z"/>
	<path class="st18" d="M591.9,70c1-0.6,2.1-1.3,3.1-1.9c0.4,3.2-1.1,5.7-3.1,8c-0.2-0.2-0.4-0.4-0.6-0.6
		C590.5,73.5,590.3,71.6,591.9,70z"/>
	<path class="st9" d="M591.9,76c-3.3,1.6-6.7,1.4-10.1,0.1c0.1-0.1,0.3-0.3,0.4-0.4c3.1-1.6,6.2-1.6,9.3,0.1L591.9,76z"/>
	<path class="st19" d="M270,78c-0.3,0.7-0.7,1.3-1,2c-0.5,0.7-1.5,0.3-2,0.9c-41,0-82,0-122.9,0c2.1-3,4.8-5.6,5.9-9.3
		c0.4-1.3,1.6-2.2,3.2-2c1.5,0.2,1.6,1.5,1.7,2.6c0.1,0.8,0.1,1.7,0.6,2.4c0.9,1.2,1.8,2.7,3.4,2.6c1.8-0.2,1.3-2,1.6-3.2
		c0.5-2.4,0.5-5.4,4-5.4c3.4-0.1,4.8,2.3,5.7,5.3c1.4,4.8,2.2,5.2,7.1,3.4c3-1.1,3-1.1,7,0.3c-1-2.1-2.5-1.4-3.8-1.2
		c-3,0.3-3.8-1.2-2.5-3.6c1.7-3.1,4.1-5.7,2.7-9.6c-0.2-0.6,0.3-1.4,1-1.6c3.3-1,5.2,1.5,7.4,3.1c2.1,1.6,1.9,3.3-0.2,4.8
		c3.4-1.5,7.2-1.1,10.8-1.8c2.5-0.5,3.7-1.1,4.8-3.2s2.8-3.2,4.4-0.3c0.7,1.2,1.8,1.9,2.9,2.7c1.5,1.2,2.7,2.7,1,4.6
		c-1.4,1.5-0.4,2.8,0.2,4.1c0.4,0.9,0.9,1.9,2,2c1.4,0.1,2-1,2.4-2.1c0.7-1.9,0.6-4,1.8-5.7c1.1-1.6,2.1-3.9,4.5-3
		c2.1,0.8,2.7,2.8,1.8,5c-4.9,2-4.9,2-1.7,5.6c5.1,2.4,10.5,1.4,15.7,0.9c2-0.2,1.7-0.8-0.3-1.7c-2.3-1.1-1.4-7.3,1.2-8.6
		c3.2-1.5,6.2-3,8.9-5.4c2.1-1.9,3.3-0.1,3.4,2.1c0.1,2.3,0.9,3.8,3.5,3.9c-2.9-2-5.2-9.9-3.1-12.6c2.3-3.1,2.6-5.9,1.5-9.3
		c-0.4-1.3-0.3-2.6,1.3-3.2c-1.9,0.5-3.8,0.7-4.7-1.4c-0.6-1.6,0.9-1.8,2-2.2c9.5-0.9,19,0.3,28.4-0.8c0.5,0,1,0,1.6,0.1
		c1.3,0.4,2.4,0.6,3.6-0.5c1.6-1.5,3.7-2.2,4.9,0.4c1.2,2.4,2,5.2-1.4,6.8c-1.3,0.6-3,0.7-3.8,2.2c-1.1,1.8-1.5,3.8-0.4,5.7
		c1,1.8,2.4,3.1,5.3,2.5c-2.9-3.4-3.7-6.5,0.6-9c0.5-0.3,0.1,0.2,0.2-0.4c0.9-6.4,4.9-8.8,11.4-8c-1-2-1.5-3.5-2.4-4.9
		c-0.6-0.9-0.7-2.7-0.3-2.7c4.9,0.8,0.9-6.1,4.5-5.4c3.4,0.6,5.2-1.4,7.4-3c0.5,0.1,0.9,0.3,1.2,0.7c3.5,4,7.6,2.1,11.7,1.1
		c0.5,0,1.1,0.2,1.5,0.4c5.9,1.7,11.8-0.1,17.8,0.5c8.3,0.7,16.6,0.1,24.9,0.2c2.4,0,4.6-0.3,6.8-1.3c1.2-0.3,2.3-0.3,3.5,0
		c1.6,0.9,3.3,1.5,5.2,1.1c9-1.6,18.1,0.2,27.1-0.8c5.5-0.6,11.1,1.9,16.6-0.7c6.8-1.7,13.9-1,20.7-0.8c8.9,0.2,17.8,0,26.7,0.7
		c2.9,1.3,5.9,1.5,9.2,1.5c5.3,0,10.6-0.2,15.9,0.5c5.7,0.8,11.1-1.3,16.7-2.1c3.3-0.5,6.6-1,9.9,0.3c1.7,0.7,2.9,0,3.9-1.3
		c0.5-0.6,1.1-1.1,1.8-1.4c2.5-1.2,5.1-1.3,7.7-0.7c3.3,1.3,6.6,1.9,10.2,1.4c3.8-0.6,7.6-0.3,11.3,0.7c7.5,2,15.2,0.8,22.8,1
		c3.9,0.1,6.5,1,6.2,5.5c0.8,10.1,0.8,10.1-10.9,11c-0.6,0.8-0.1,2.3-1.6,2.5c-4.8-0.2-9.6,2.2-14.4-0.3c-0.5-0.7-0.5-1.5-0.1-2.3
		c3.5-1.9,7.3-2,11.1-2.2c2.7-0.2,5.3,0.1,8-0.1c2.2-0.1,5.1,0.8,5.6-2.6c0.5-3.3-2.2-4-4.5-4.9c-3.3-1.2-6.6-0.4-9.9-0.3
		c-6.8,0.2-13.6-1.3-20.3,0.3c-1.5,0.4-3,0-4.4-0.7c-2.8-1.5-5.9-1.6-8.8-0.8c-6.2,1.8-12.5,0.6-18.7,1.3c-16.3,1.7-32.7,0-49.1,0.7
		c-2.3-1.4-4.5-1-6.7,0.4c-5.8,0.3-11.6-0.7-17.4-0.6c-24.4,0.7-48.7,0.3-73.1,0.1c-17.9-0.2-35.9,0.6-53.8-0.4
		c-2-0.1-4,0.8-5.9,0.5c-2.4-0.4-3.4,0.5-3.5,2.8c0,1-0.6,1.9-1.2,2.7c-1.9,1-4.8,1.5-2.3,4.8c0.8,1.2,0.8,3.6-0.3,4.2
		c-5.4,3.1-4.8,12.2-13.3,12.7c-1.9,0.1-8.7,2.2-6.2,8.4c0.3,0.8-0.4,1.8-1.3,1.7c-3.3-0.5-3.9,2.6-5.5,4.2
		c-6.1,0.9-12.6-0.5-18.4,2.7c-0.9,0.5-1.9,0-2.9-0.1c-2.8,3.3-2.9,3.3-5.8-1.3c0.5,6-3.4,4.7-6.6,4.9c1.9,0.4,3.8,1.3,5.6,0
		c1.4-1,2.5-1.6,4.3-0.4c2,1.3,1.7-1.9,3-2.3C265.4,74.7,267.8,76.1,270,78z"/>
	<path class="st20" d="M160.1,6.1c0.5-1,1.1-2.1,1.5-3.1c0.5-1.4,1.3-2.2,2.9-2.2c1.5,0,2.7,0.3,3,1.9c0.6,3.8,3.4,3.3,6.1,3.3
		c43.9-0.1,87.9-0.6,131.8,0c58.4,0.7,116.8,0.1,175.2,0.4c13.8,0.1,27.6,0,41.4,0.1c1.6,0,3.3,0.3,4.9,0.5
		c5.1,0.2,10.1-0.1,15.2,0.2c1.4,0.1,3.9-0.9,3.6,2.2c-0.6,0.2,0.2,0.2-0.4,0.3c-12.7,1.3-25.3,1.4-38-0.1c-0.6-0.4-0.7-1-0.4-1.6
		c4-0.8,7.9-0.1,11.5-0.4c-0.6-0.1-1.7-0.1-2.8,0c-26.3,1.7-52.6,0.6-78.9,0.9c-39.3,0-78.5-0.1-117.8,0c-2.7,0-5.4-0.2-6.3,3.3
		c-1.7,2.1-4.1,1.8-6.4,1.8c-7.3-0.1-14.5-0.2-21.8,0.1c-3.7-0.8-7.5-1.2-11.4-1.2c-20.9,0-41.8-0.5-62.7,0.3
		c-1.3,0.4-2.7,0.8-4,0.8c-8.8-0.1-17.7-0.6-26.4,1.7c-2,0.5-3.3,2.2-5.2,2.7c-9.5,0.1-19,1.9-28.6,1c-2.1-0.9-2.1-2.2-0.8-3.8
		c1-1.1,2.2-2.3,3.6-2.5C153.9,12.4,157,9.2,160.1,6.1z"/>
	<path class="st21" d="M55.2,31.9c4.7-1.9,9.4-3.8,14-5.6c3-0.2,5.7-1.2,8.3-2.7c2.3-1.2,4.7-2.3,7.4-2.1c5.1,1.9,9.7,1,14-2.2
		c1.1-0.6,2.1-1,3.4-0.6c1.1,0.5,2.2,1.2,3.3,0.7c4.3-1.9,6.4,0.5,8,4c-0.7,1.9-2.5,2.1-4.1,2.4c-7.1,1.4-14.1,3.9-21.4,4.3
		c-1.5,0.1-3.1,0.3-4.1,1.5c-1.4,1.6-2.9,2.6-5.2,2.3c-1.9-0.3-2.4,1.5-3.5,2.4c-0.6,0.6-1.2,1.3-0.8,2.2c0.5,1.1,1.7,1.2,2.6,0.8
		c2.5-0.9,4.9-0.2,7.3,0.2c8.9,1.3,13.2,6.7,12.9,15.7c-0.1,3.4-1.5,4.9-4.7,5.1c-1.2,0.1-2.3,0.3-3.4,0.5c-1.5,0.2-3,0.4-3.2,2.4
		c-0.2,1.6-0.1,3,1.7,3.7c0.6,0.3,0.9,0.9,1.2,1.5c0.1,0.5,0.1,0.9,0.1,1.4c-0.7,4.2-4.6,6.4-6.4,9.9c-0.8,1.4-2.7,0.8-4.1,0
		c-1.5-0.9-2.7-2.1-2.1-4c0.3-1,1.1-1.7,1.2-2.7c0.2-2.1,1.4-4.5-0.3-6.2s-3.3,0.5-4.9,1c-3.3,1.1-4.4-0.5-6.5-3.1
		c-6-7.5-6.1-16.8-9.6-25c-0.5-0.8-1-1.7-1.3-2.7C54.2,35.3,53.6,33.5,55.2,31.9z"/>
	<path class="st22" d="M545.9,9.1c-4.2-2.3-8.7-0.4-13-1c-2-0.3-4.3,0.8-6-1.1c7.1-1,14.2-0.6,21.3-0.2c2,0.1,4.2-1.1,5.9,0.8
		c-0.3,1.2-1.6,1.3-2.4,1.8c10.6,0.8,21.3,0,32-0.6c2.1-0.1,4.3-0.4,6.1,1.3c0.9,0.4,2.1,0.4,1.9,1.9c-1.1,2.5-3.4,2.3-5.5,2.4
		c-3,0.1-6,0.1-8.9,0.9c-0.6,0.1-1.1,0.1-1.7,0.1c-9.6-1.8-19.2-0.6-28.8-0.3c-7.9,0.2-15.8-0.7-23.7-0.6c-10.4,0-20.8,0.7-31.2,0.6
		c-8.1-0.1-16.2-0.8-24.2,0.4c-6.2-0.1-12.5-1-18.7,0.5c-13.3-0.7-26.6,0.2-39.8,0.2c-12.7-0.1-25.5-0.5-38.3,0.1
		c-8.3,0.4-16.6,0.3-24.9-1.1c-6.3,0.3-12.5-0.6-18.7-0.9c-1.4-1.7-2.6-3.4,0.2-4.9c0.6-0.1,1.2-0.1,1.8,0.1
		c21.1,0.4,42.2,0.1,63.3,0.1c1.2,0,2.3-0.3,3.4-0.6c13.5-0.8,27.1,0,40.7-0.4c0.6-0.1,1.2-0.1,1.8-0.1c0.6,0.1,1.1,0.3,1.6,0.5
		c4.4,1.2,8.7,0.8,13-0.2c12.9-0.3,25.8-0.3,38.7,0c4,1.1,8.1,1.2,12.2,0.6c0.4-0.3,0.8-0.5,1.1-0.9c0.6-0.4,1.1-0.8,1.9-0.5
		c0,0.3,0,0.7,0,1C519.9,9.9,532.9,9.9,545.9,9.1z"/>
	<path class="st7" d="M56.9,39.1C60,44.7,60,51.2,62.3,57c0.5,1.4,0.1,3.7,3.2,3.3c2.6-0.3,1.3,2.4,1.3,3.4c0.2,4.1,2.5,4.3,5.3,3
		c2.1-1,4.2-3.8,6.3-0.8c1.8,2.7,1.4,6.6-0.4,8.8c-2.5,2.9,0,3.6,1.2,4.5c2.2,1.7,2.8-0.2,3.3-1.9c0.9-3.1,4.9-4,5.4-7.4
		c1.5,0.8,1.8,2.7,3.1,3.6c1.8,1.6,2.4,3.8,1.4,5.8c-1,2-3.3,0.7-4.9,1c-1.1,0.2-2.3-0.3-3.4,0.4c-5.3,0-10.6,0-15.9,0
		c-3.9-3.8-3.5-9-5-13.6c-0.9,1-2.4,1.6-4.1,2c-4.5,1-9.1,1.8-13.4,3.7c-1.8,0.8-3.6,0.8-5.3,0c-3.5-1.6-4.4-0.1-4.1,3.2
		c0.1,1.6,0.2,3.4-1.2,4.6c-0.9-13-1.2-26-0.1-39c3.3-3.8,7.2-1.4,10.5-0.5c3.2,0.8,2.7,4.1,2.5,6.7c-0.2,2.5,1.2,5.3-1,7.6
		c-0.7,0.8-1.6,1.1-2.5,1.5c-1.6,0.6-3.2,1.4-2.5,3.5s2.4,1.8,4.1,1.3c0.6-0.2,1.3-0.3,1.9-0.3c2.6,0.6,5.1-0.3,7.2-1.3
		c2.7-1.2,5.3-2.8,3.6-7c-1.5-3.6-2.3-7.6-2.8-11.5C56,40.8,56.2,39.9,56.9,39.1z"/>
	<path class="st23" d="M35.2,81c0.1-2.7,0.3-5.3,0.1-7.9c-0.1-2.3,1.1-2.8,2.6-1.9c5.9,3.4,10.6-1.4,15.9-1.9c1.6-0.1,3.2-1,4.8-1.1
		c2.4-0.2,5,0.2,4.9-3.6c1.6,5.5,3.1,11,4.7,16.5c-6.3,2.3-13,1.6-19.5,2.5c-3.8,0.5-7.9-0.4-11.5,1.6C34.9,84.5,35.5,82.5,35.2,81z
		"/>
	<path class="st24" d="M102.1,19.1c-1,0.3-2,0.7-3,1c-2.3-1.5-1-2.6,0.4-3.6c1.1-0.8,2.7-1.1,3.6-2.3c2-0.3,4-0.4,5.9-0.8
		c16.8-3.9,33.9-6.1,51.1-7.4c-1.6,4-3.9,7.1-8.7,7.4c-3,0.2-5.1,1.8-6.3,4.6c-0.4,1.2-1.4,2-2.6,2c-5.8,0.2-11.4,2.3-17.3,1.9
		c-1.9-0.7-1.9-2.1-1.1-3.6c0.6-1.3,1.8-2.4,1.8-4.3c-2.4-0.4-4,1.4-6,1.8c-2,0.5-3.8,2-6.1,0.5c-1.1-0.7-2.3-0.1-3.2,0.6
		C108.1,18.9,105.1,19.1,102.1,19.1z"/>
	<path class="st25" d="M579.7,42c0.1-0.8,0.2-1.6,1.1-2c0.2,1.5-0.8,3.2,1.2,4.2c1,1.5-0.1,2.3-1.1,3.1c-5.9-0.2-11.8,0.8-17.7,0.5
		c-4.9-1.6-2.1,3-3.4,4.3c-0.5,1.6-0.5,3.3-1.1,4.8c-0.7,1.8-2.2,3.8-3.9,3.1c-4.6-1.9-8.6,0.1-12.7,1.3c-0.3,0.1-0.6-0.1-0.9-0.3
		c-2.4-4.7-3.2-9.5-1-14.5c0.8-1.3,2.1-1.6,3.5-1.1c3.4,1.3,6.9,0.3,10.3,0.5c-1.6-5-8.1-8.7-14.2-8.2c0.4-4.4,1.6-5.5,5.3-4.1
		c3.2,1.3,6.5,2.4,9.5,4.2c2.8,1.7,5.8,2.4,9,1.6c0.5,0,1,0.1,1.4,0.5c0.1,0.7,0.1,1.3,0.2,2C569.9,44.9,574.8,44.6,579.7,42z"/>
	<path class="st26" d="M57,41.9c0.4,1.4,0.8,2.8,1.2,4.3c1.1,4.4,2.3,8.8,3.3,13c-3.8,0.6-6.4,4-10.2,3.7c-1-0.1-2.6,1.8-3-0.7
		c-0.1-2.3-1.6-4.1-2-6.3c1.6-3.6-0.5-7.4,0.8-11.1c0.3-0.9-0.5-2.3-1.5-2.3c-3.5-0.1-6.9-2.5-10.5-0.5c0.4-1,0.9-1.9,1.3-2.9
		C43.4,38.8,50.4,39.1,57,41.9z"/>
	<path class="st27" d="M8.2,179c13.7-23.3,27.4-46.6,41.1-69.9c1.4-0.2,1.5,0.8,1.6,1.8c-1,2.7-2.9,4.9-4,7.6
		c-3.7,5.5-6.7,11.3-10.3,16.8c-5.6,9.7-11.1,19.4-17,28.9c-2.2,5-5.4,9.4-8.2,14.1c-0.7,1.1-1.5,2.3-3.2,1.5
		c-0.1,0-0.1-0.2-0.2-0.4C8.1,179.3,8.1,179.1,8.2,179z"/>
	<path class="st28" d="M589.8,10.1c-12.7,0.3-25.4,0.6-38.1,0.8c-1.5,0-4.4,1.2-4.4-1.5c0-2.2,2.7-0.9,4.1-1.3
		c1-0.2,1.9-0.5,2.8-0.8c4.6-1.8,9.3-0.1,14-0.5c6.5-0.5,13.2-0.6,19.8,0.3c0.7,0.1,1.2,0.5,1.7,0.9C589.8,8.8,589.8,9.4,589.8,10.1
		z"/>
	<path class="st29" d="M591.7,29.1c-0.8-3.1-2.5-4.4-5.9-4.1c-11,1-21.8-1.3-32.7-1.7c-4.6-0.2-9.2,1.1-13.3-2.2
		c-0.2-1,0.4-1.6,1.1-2.1c1.7-1,3.3-0.9,4.9,0.4c1.5,1.8,3.6,1.3,5.6,1.3c9.4,0,18.8,0,28.3,0.1c4.1,0,8.1,0.5,12.1,1.5
		C591.7,24.5,591.7,26.8,591.7,29.1z"/>
	<path class="st30" d="M8.2,179c2.5,0.6,2.6-1.7,3.4-3c2.6-4,5-8,7.5-12c0.4-0.4,0.7-0.4,1.1,0c0.8,4-2.5,6.3-4.2,9.1
		c-3.8,6.4-6.4,13.6-11.8,18.9c-0.5,0.8-1,1.5-1.6,2.3c-1.2-1.2-1.8-2.7-1.5-4.4C3.5,186.3,5.8,182.6,8.2,179z"/>
	<path class="st31" d="M591.7,22.2c-14.1,0-28.2-0.1-42.3-0.1c-2,0-4.6,0.7-4.7-2.7c0.2-0.5,0.4-0.8,0.9-1c3.1-0.4,6.3,0.6,9.3-0.8
		c3.8,2.1,8.1,0.4,12.1,1.6c4.9,0.9,9.7-1,14.6-0.5c0.8,0.1,1.6-0.1,2.3,0.5c1.4,1,2.2,3,4.6,0.7C590.2,18.2,591.2,20.5,591.7,22.2z
		"/>
	<path class="st32" d="M103.1,14.2c1.2,2.2-0.9,2.4-2,2.7c-1.7,0.5-3.1,0.9-2,3.1c-5.9,4.1-10.3,4.8-14,2c0.5-1.7,2-2.1,3.3-2.5
		c2.8-0.9,1.3-2.3,0.5-3.6C93.5,14.1,98.3,13.6,103.1,14.2z"/>
	<path class="st33" d="M50.1,111c0-0.8,0-1.6-0.9-1.9c1.4-3.8,4.9-6.6,4.8-11.1c-0.1-3.9,0-7.8,0-11.8c-5.2-1-11.2,0.9-17-0.9
		c7.4,0,14.9-1.8,21.9,2c0.1,4.3,1,8.7-0.7,12.9c-2.9-2.1,0-5.2-1.4-7.6c1.5,6-1.3,10.8-4,15.6C51.6,108.8,52.4,111.3,50.1,111z"/>
	<path class="st34" d="M55.2,31.9c-0.2,1.8,0.2,3.5,0.8,5.2c-3.4,1.6-13,1.6-18-0.1c1.1-2.4,2-4.9,5.3-4.7c2.9,0.7,5.9-0.1,8.8,0.5
		c0.7,0-0.2-1.1,0-0.5c0,0.1-0.1,0.1-0.3,0.1c-2.3,0.1-4.6,0.7-6.7-0.4C48.4,30.7,51.8,30.8,55.2,31.9z"/>
	<path class="st35" d="M38,37c6,0,12,0.1,18,0.1c0.3,0.7,0.6,1.3,0.9,2c0,0.9,0,1.9,0,2.8C50,41.2,43,41.1,36.3,39.2
		C36.6,38.2,37.1,37.5,38,37z"/>
	<path class="st36" d="M89,16c1.6,0.4,3.5,0.8,3.4,2.7c-0.1,1.5-2.1,1.2-3.2,1.8c-1.3,0.6-2.7,1.1-4.1,1.6c-2.7,0.7-5.3,1.3-8,2
		c-0.4-0.4-0.5-0.9-0.1-1.4C80,18.7,84.4,17.3,89,16z"/>
	<path class="st20" d="M589.9,8.1c-11.8-1.4-23.7,0.6-35.5-0.7c-2.1-0.2-4.1-0.4-6.2-0.6c13.2-0.1,26.3-0.2,39.5-0.3
		C588.7,6.4,590.2,6.2,589.9,8.1z"/>
	<path class="st37" d="M583.9,19.1c-6,0.6-11.9,2.8-18,0.9c-0.1-2.8,1.7-2.5,3.6-2.3c2.4,0.4,4.9,0.7,5.8-2.6
		c0.2-0.4,0.4-0.8,0.8-1.1c0.3,0,0.6,0,0.9,0c2.4,0.7,4.8-0.4,7.2,0c1.5,0.2,3.4-0.5,3.9,1.9c-2.5,0.1-5.1,0.3-7.7,0.4
		C581,18.7,583.4,17.4,583.9,19.1z"/>
	<path class="st38" d="M580.7,47.3c0.6-0.9,1.4-1.8,1.2-3c2.3-0.1,4.6,0,6.8-0.3c4.1-0.6,3.8,3.2,5.5,5c-4.3-2.1-8.7-3-13.3-0.9
		l-0.4-0.3L580.7,47.3z"/>
	<path class="st31" d="M588,16c-3.4-2.6-7.7,0.5-11.2-1.8c4.7-2.3,10.1,0.2,14.8-2.1C592.4,15.1,589.3,14.7,588,16z"/>
	<path class="st7" d="M77,22.8c0,0.5,0.1,0.9,0.1,1.4c-2.4,1.8-4.8,3.4-7.9,2.2C71.8,25.1,74.4,23.9,77,22.8z"/>
	<path class="st39" d="M45,32c2.8,0.1,5.5,0.3,8.3,0.4c-3.4,0.7-6.7,1.5-10-0.1C43.8,32.2,44.4,32.1,45,32z"/>
	<path class="st40" d="M540.9,46.1c-1.4,5.1-0.9,10.1,1,15c5.6-0.6,11.2,0.5,16.7-0.8c0.5,0,0.9,0,1.4,0.1c1.4,0.3,2.8,0.4,4.2,0.3
		c5.7-0.7,11.3-2.4,16.9,0.5c0.3-0.4,0.6-0.7,0.9-1.1c2.6-1.5,5.3-1.4,7.9,0c0.3,0.3,0.6,0.7,0.9,1c-1,1.2-2.5,1.2-3.8,1.8
		c-2,0.8-4,1.6-6.2,1.2c-3.8,1.8-7.8,0.8-11.6,0.7c-4.1-0.1-8-0.5-12.2,0c-5.3,0.7-10.8,0.2-16.2,0.2c-2.8-1.3-5.4-4.5-8.5-0.4
		c-0.5,0.6-1.5-0.5-2.2-0.6c-2.5-0.4-5.2-3.6-7.6,0.4c-0.3,0.5-1.3-0.6-1.7-1.4c1.4-2.3,2.2-4.7,1.7-7.5c-0.7-4.2,1-8.1,1.9-12
		c0.1-1.8,0.3-3.6-0.2-5.4c-0.3-1-0.2-2.7-1.7-2.5c-1.2,0.2-1.3,1.7-1.3,2.9c0,0.7,0,1.5-0.1,2.2c0,2.1,0,4.2,0,6.3
		c0.4,5.3,1.8,10.7-0.4,16c-2.8,0.3-6-1.3-8.5,1.4c-0.3,0.4-1.2-0.8-1.4-1.6c0.8-1.8,1.8-3.5,1.6-5.5c0-3.4,0.1-6.8,1.3-10.2
		c1.3-3.7,1.3-7.7-0.8-11.5c-1.8,1-1.7,2.5-1.8,4c0.1,3.5-0.3,7,0.5,10.4c0.3,1.9-0.1,3.6-1.1,5.2c-1.5,2.2-1.1,4.3,0.5,6.3
		c0.1,0.5,0.1,0.9,0,1.4c-2.2,0.7-4.2-0.5-6.2-0.9c-3.7-4.7-2.4-9.9-1.2-15c0.6-2.5,1.1-4.8,0.2-7.2c-0.3-0.7-0.5-1.8-1.5-1.6
		c-1.2,0.2-1,1.5-1.1,2.4c-0.1,1.7,0,3.4,0,5.1c-0.4,4.1,0.8,8.1,0.2,12.2c-0.4,2.7,1.8,3.1,3.4,4.1c-0.8,3-2.5,3.2-5.2,2.3
		c-1.9-0.6-4.2-3-6.2,0.3c-0.6,1-2,0-3.1-0.5c-1.8-0.8-3.7-1.4-5.5-2.1c-3.3-4.5-2.5-9.4-1.1-14.3c0.9-3.2,1.2-6.1-1.7-9.4
		c-1.3,7.5,0.5,14.1,0.2,20.8c-0.1,1.5,1.6,2,2.6,2.8c-0.7,1.8-1.1,3.6-4,1.9c-1.7-1-3.6-2.9-6.1-1.9c-3.9-5.1-1.9-10.6-1.2-16
		c0.4-2.4,1-4.9-1.4-7.2c-2,3.9-0.6,7.6-0.1,11.2c0.4,4.3-0.5,8.8,1.8,12.9c-5.5,0-11.1,2.2-16.6,0c-0.7-0.3-1.5-0.5-2.3-0.8
		c-0.4-0.3-0.7-0.7-0.9-1.2c-3.1-6.8,0.2-13.3,1-19.9c0.2-1.7,0.5-3.2,0.1-4.9c0-0.6,0.1-1.1,0.3-1.7c0.4-0.8,1.1-1.4,1.8-1.9
		c6.7-2.9,13.8-1.8,20.6-1.8c19.7-0.2,39.4-0.4,59.2,0c9.6,0.2,18.7,3.4,26.8,9c-2.3,2.5-5.4,2.1-7.6,0.7c-3.4-2.1-7.2-3.1-10.6-5.1
		c-3.3-2-5.2-1.2-5.6,2.7C541.8,40.6,542.8,43.2,540.9,46.1z"/>
	<path class="st41" d="M580.7,47.3c0,0.3,0,0.6,0.2,0.8c0,0.7,0,1.3,0.1,2c0.8,1.4,0.8,2.8,0.1,4.2c0,0.3-0.1,0.6-0.2,0.9
		c-5.1,3.2-10.6,0.7-15.9,0.8c-1,0-3.4,0.7-4.3-1.2c0.4-2.3,1.1-4.5,1.5-6.8c0.2-0.4,0.5-0.8,1-1C569,47,574.9,45.1,580.7,47.3z"/>
	<path class="st42" d="M580.9,64.1c1.7-1.5,4-1.3,6-2c3.1-1.2,4.8-0.5,4.5,3.2c-0.1,1.3-0.3,2.7,0.4,3.9c0,0.3,0.1,0.6,0.1,0.9
		c-0.2,1.9-0.3,3.9-0.5,5.8c-3.1,0-6.2,0-9.3-0.1C580.1,72,581.2,68,580.9,64.1z"/>
	<path class="st43" d="M560.8,54.2c6.7,1,13.4,1.1,20.1,0.9c0,2,0.1,4,0.1,6.1c-5.6,0.4-11.4-0.7-16.9,0.9c-1.1-1.5-2.6-1.2-4.1-0.8
		c-0.4-0.1-0.7-0.1-1.1-0.2c-2-2.1-0.2-4.5-0.4-6.7C559.2,53.5,560,53.5,560.8,54.2z"/>
	<path class="st44" d="M581.1,54.1c0-1.4-0.1-2.8-0.1-4.2c2.7,1.7,5.8,0.3,8.7,1c0.9,0.2,2.2,0,2,1.5c-0.2,1.6-1.2,0.7-2.1,0.7
		C586.7,53.1,583.7,52,581.1,54.1z"/>
	<path class="st18" d="M589.9,60c-2.7,0-5.3,0-7.9,0C584.6,56.6,587.3,56.9,589.9,60z"/>
	<path class="st18" d="M591.8,69.1c-1-0.9-1-2.1-0.9-3.2c0.4-3.1-1.1-4.2-4-3.8c1-1.4,2.6-0.8,4-1C592.8,63.5,591.5,66.4,591.8,69.1
		z"/>
	<path class="st45" d="M19.1,187.9c0-1.7,0-3.4,0-5c2.2-7.5,7.6-13.2,11.6-19.6c9.8-15.7,20.2-31.1,30-46.8c2.6-4.2,5.5-5.3,9.9-3.2
		c2.5,1.2,5.2,2.2,7.8,3.1c7.4,2.7,9,8.5,4.7,16c-1.5,2.6-3.3,5-3,8.3c-2.9,5.5-5.6,11.2-8.6,16.7c-1.1,2.8-2.6,5.4-4,8
		c-0.5,1.3-1,2.5-1.7,3.7c-1.1,1.6-2.2,3.3-2.8,5.2c-1.3,2.5-2.5,5.1-4,7.5c-0.3,0.6-0.6,1.1-0.8,1.7c-0.6,1.8-1.5,3.6-2.4,5.4
		c-0.2,0.4-0.5,0.8-0.7,1.2c-2.8,3.2-2.8,8.5-7.8,9.9c-9.1,0.2-17.3-3.2-25.5-6.7C20,192.5,17.8,190.9,19.1,187.9z"/>
	<path class="st46" d="M70.3,157.1c2.2-4.3,4.4-8.6,6.7-12.9c0.7-1.4,1.1-3.1,3.1-3.4c-1.2,3.7,1.5,7.7-0.9,11.3
		c-0.3,3.7-3.4,6.3-4,9.9c-2.8,0.4-1.9,3.3-3.1,4.7c-1.1,1.3-0.9,3.5-2.8,4.4c-0.2-0.1-0.4-0.1-0.6-0.2c-2-1.6-0.9-3.6-0.8-5.5
		C68.3,162.5,71.4,160.4,70.3,157.1z"/>
	<path class="st47" d="M455,61.1c0,0.3,0,0.7,0,1c-1.2,2-1.7,5.3-4.9,1.4c-0.9-1.2-3.2-1.7-5.1-1.4c0-0.4,0-0.7-0.1-1.1
		c-1.9-1.2-2-3.2-2-5.1c-0.2-3.3,0.4-6.4,1-9.6c0.4-1.1,0.5-2.3,0.7-3.4c0.2-1.7,0-4.1,2.6-4.1c2.1,0,3.2,1.9,3.5,3.7
		c0.8,4.7,2,9.5,1.4,14.3C451.8,59.2,452.4,60.8,455,61.1z"/>
	<path class="st48" d="M473.9,62.9c-2-0.1-2.8-1-2.7-3.1c0.2-3.2-0.1-6.5-0.3-9.7c1-0.9,0.7-2.1,1-3.2c0.4-1.5,0.9-3,3-1.8
		c-1.1,5.6-1.4,11.2-0.1,16.9C474.5,62.3,474.2,62.6,473.9,62.9z"/>
	<path class="st49" d="M407.9,62.1c-0.8-1.8-0.4-3.3,1.1-4.8c1.6,1.8,0.8,3.8,0.9,5.6C409.3,62.7,408.6,62.4,407.9,62.1z"/>
	<path class="st7" d="M124.1,21c7-1,14-2,21-3c10.3,0.2,20.6-1.6,31-1c2.3-1.7,5-1.5,7.6-1.5c6.4,0.1,12.9-0.7,19.3,0.5
		c2,1.2,3.9,2.7,6,3.7c-2.2,3.2-5.1,6.3-3.3,10.7c2.4,1.7,4.5,3.4,2,6.5c1.8,2.9,4.8,2.6,7.6,2.6c10.6,0,21.2,0.3,31.8-0.2
		c1.8-0.1,4.1-1.1,5.2,1.5c-1.4,1.7,0.2,1.9,1.2,2.1c1.5,0.2,3.1,0.2,5,0.7c-2.3,0.8-4.5,0.8-2.3,4.3c1.1,1.8,2.1,6.2-1.9,8.3
		c-1.7,0.9-0.2,10,1.5,10.6c1.4,0.4,3.7,0.1,3.5,1.9c-0.1,2.1-2.4,1.1-3.7,1.2c-1.9,0.2-3.7,0.1-3.7-2.7c0-1.4,0.4-3-1.1-4.7
		c-2.7,3.1-6.1,5-9.9,6.4c-2.8,1.1-1.8,4.4-2,7c1.7-0.4,0.5-2.9,2.4-2.6c0.4,0.1,1,0.7,0.9,1c-0.4,1.7,0.3,3.8-1.3,5.1
		c-1.7,1.5-16,0.1-18.1-1.6c0.6-2,1.3-4,2-6c-0.1-1.8,0-4.1-2.2-4.4c-1.8-0.2-2.2,2.2-3.1,3.5c-0.6,0.8-0.7,2.2-0.7,3.3
		c0,2.7-1.7,4.6-3.9,5.2c-2.7,0.7-3.1-2.3-3.5-3.9c-0.4-1.5-4.7-3.8,0.5-5.4c1.5-0.4-0.4-2.5-1.4-2.8c-2.3-0.6-4.1-1.3-3.4-4.3
		c-2.5,0.5-2,2.4-2.6,3.6c-0.8,1.8-2.2,2-4.3,2.4c-3.8,0.8-8-0.9-11.3,1.6c-1.3,0.9-2.5,1.6-3.3,0s1-1.6,2-2.1
		c2.3-0.9,2.4-2.1,0.3-3.4c-1.5-1-3-2.2-4.5-3c-1.1-0.6-3-0.2-1.9,1.2c3,4-1,6-2.1,8.7c-0.4,1-2,1.6-1,2.9c1,1.2,2.1,0.3,3.2-0.2
		c1.3-0.6,2.8-1.7,3.9,0.3c0.8,1.4,0.7,3-0.8,4c-1.8,1.1-2.6,0.6-3.4-1.6c-0.7-1.8-2.6-0.1-3.8,0.6c-4.6,2.8-7.9,1.5-8.6-3.8
		c-0.4-2.8-1.5-4.8-4.4-5c-3.9-0.2-2.5,3.3-2.9,5.1c-0.4,1.9,0.1,4.1-2.2,4.8c-1.3,0.5-6.3-4.6-6.2-6c0.1-1.1,1.6-2.8-0.6-3.1
		c-1.2-0.1-2.1,1.3-2.5,2.7c-0.9,3.5-2.7,6.3-6.2,7.7c-9.7,0-19.4,0-29,0c-5.7-0.8-8.4-3.4-6.2-6.4c1.6-2.1,0.9-3.7,0.4-5
		c-1.1-3.1-4.7-4.6-5.9-7.9c-0.2-0.5-1.3-0.6-1.7,0.1c-1.1,1.7-2.2,3.5-1.8,5.5c0.9,5.2,0.5,5.8-5.7,6.3c-1.6-2.1-3.2-4.2-6.2-4.4
		c-0.7-2.6-3-1.2-4.8-1.6c0.5-0.8,1.3-1.4,1.2-1.7c-1.4-5.4,1.8-6.1,6.1-6.4c1.7-0.1,5,0.9,5.2-1.5c0.3-2.8,1.2-5.9-0.2-8.7
		c-3.7-7.3-9.4-9.8-17.9-8.1c-1.7,0.3-3.8,0.7-4.9-1.3c-1.2-2.1,0.4-3,1.8-4.4c1.7-1.6,2.4-4.5,5.5-2.3c0.3,0.2,1.3,0,1.4-0.3
		c2.1-5.1,6.8-2.9,10.4-4c7.1-2.2,14.7-2.3,21.4-5.6C116.5,21,120.2,20.2,124.1,21z"/>
	<path class="st50" d="M93.9,73c2.3-0.8,4.5-1.6,6.6-2.3c0.1-2.4-3.8-0.7-2.8-3.4c1-2.7,1.7-6.2,3.7-7.7c2.2-1.5,4.7,1.2,4.8,3.7
		c0.1,2,0.3,2.4,2.3,2.5c1.2,0.1,3.5,1.3,2.4,3.3c-2.4,4.2,1.7,1.8,2.6,2.4c0.1,3.1-5.3,1.3-4.1,5.7c1,3.5,4.1,2.2,5.6,3.8
		c-10.3,0-20.6,0-30.9,0c1-1.2,2.4-0.8,3.7-0.9c4.6-0.2,5.1-1.3,2.3-5.8C91,72.8,92.4,72.5,93.9,73z"/>
	<path class="st51" d="M129,94c-1.3,6.1-1.2,12,2,17.6c0.4,0.7,1.3,1.8,0,2.5c-1,0.6-1.9-0.2-2.6-0.9c-3.2-3.1-5-6.8-5.2-11.3
		c1.8-3.4,0.2-7.5,1.9-10.9C128.1,89.8,128.1,92.5,129,94z"/>
	<path class="st14" d="M116.2,89.2c-1.1,2.3-2.1,4.5-3.2,6.8c-2.1-0.5-1.6-1.7-0.8-2.9c0.2-3.8-3-2.1-4-1.8c-5,1.3-5.5-1.3-5.1-5.1
		c3.3,0,6.6,0,9.9-0.1C115.3,85.9,116.3,86.9,116.2,89.2z"/>
	<path class="st52" d="M129,94c-2.3,0.3-1.6-3.3-3.9-3c0.5-4.5,2.2-7,7.3-5.1c1.5,0.5,3.2,0.2,4.9,0.2C134.5,88.7,131.8,91.4,129,94
		z"/>
	<path class="st53" d="M267.1,81c0.5-0.8,1.2-0.9,2-0.9c11.6,0,23.2,0,34.8,0c1.7,0,3.7-0.6,5.2,0.9C295,80.9,281,80.9,267.1,81z"/>
	<path class="st54" d="M112.1,93c0.1,1-0.2,2.2,0.8,2.9c-2.8,11.1-0.6,17.7,7.7,23.5c1.4,1,2.7,1.6,4.5,1.6
		c11.3-0.1,22.6,0.5,33.9-1.3c-2.6,2.1-5.7,2.2-8.8,2.2c-9.4,0-18.8,0-28.2,0c-3-0.9-5.7-1.8-8.1-4.2c-2.6-2.5-6.4-1.9-9.8-1.9
		c1-3.7,1.3-7.2-0.2-11.2c-1.1-2.7-0.6-6.7,0.6-9.5C105.7,92.7,109.7,94.3,112.1,93z"/>
	<path class="st55" d="M19.1,187.9c0.8,4.3,4.4,4.9,7.6,6c7,2.4,13.9,5.1,21.5,5.1c0.2,1.2-0.6,2.1-1.5,2.3
		c-2.8,0.4-0.2,1.8-0.6,2.5c-10.3-3-20.7-6-31-9c1-2.9,3-5.5,1.7-8.9C18.6,186,18.1,187.7,19.1,187.9z"/>
	<path class="st56" d="M20.2,164c-0.4,0-0.7,0-1.1,0c5.6-9.7,11.2-19.4,16.9-29.1c0.7,0.1,0.9,0.8,1.3,1.3c-5,8.6-10,17.2-15.1,25.8
		C21.7,162.7,20.9,163.3,20.2,164z"/>
	<path class="st57" d="M52,107.9c4.3-5.7,4.2-12.7,5.1-19.4c2.2,3.8,0.2,7.8,1.2,11.6c-1.7,3-3.4,6-5.1,8.9
		C52.2,109.3,51.7,108.9,52,107.9z"/>
	<path class="st58" d="M37.3,136.1c-0.4-0.4-0.9-0.8-1.3-1.3c3.4-5.6,6.8-11.3,10.3-16.9c0.6-0.5,1.3-0.6,1.9,0
		C44.5,124,40.9,130.1,37.3,136.1z"/>
	<path class="st59" d="M48.1,118c-0.6,0-1.2,0-1.9,0c1.3-2.3,2.6-4.6,3.9-7c0.6-1,1.2-2.1,1.9-3.1c0.4,0.4,0.8,0.8,1.2,1.1
		C51.5,112,49.8,115,48.1,118z"/>
	<path class="st60" d="M455.8,35c0,0.3,0.1,0.7,0.1,1c-1.5,1.6-3.6,1.7-5.5,1.6c-6.8-0.1-13.6,0.2-20.4-0.1c-0.6,0-1.2,0-1.8,0
		c-1.2,0-2.4,0-3.7,0c-4.3,0.2-8.6,0.2-12.9,0c-11.2-0.1-22.4,0.3-33.5,0.1c-8.3-0.2-16.6,0.2-24.9-0.1c-8.5-0.1-17,0.5-25.5-0.4
		c-0.6-0.2-1.2-0.5-1.6-1c-4.7,0-9.4-0.1-14.1-0.1c0-1.7,0-3.3,0-5c0-2.5-0.4-5.2,3.5-2.2c2.5,1.9,5.5-0.7,8.7-0.3
		c7.1,0.9,14.4,0.4,21.6,0.4c15,0,30,0,45,0c13.6,0,27.2-0.4,40.8,0.1c12.2,0.4,24.4-1.1,36.5,0.8c1.6-1.1,3.2-1.1,4.7,0
		c6.3-1.9,12.8,0.1,19.1-0.9c6.5-1,13,0.5,19.4,0.8c3.5,0.2,6-2.6,9.9-1.4c4.1,1.2,8.7-0.6,13.4,0.1c3.2,0.4,7.1-1.6,10.9-1.7
		c1.8-0.1,3-0.1,4.4,1.1c1.3,1.2,3.3,1.6,4.7,1c6-2.7,12.2-0.1,18.2-0.6c5-0.4,10.3-1,15.5,1.4c3.8,1.8,2.1,4.3,2.4,6.6
		c0.4,2.8-1.8,2.6-3.7,2.6c-7.5-0.1-14.9,0.2-22.3,1.1c-0.4-0.1-0.7-0.3-1.1-0.4c-2.6-0.9-5.2-1.7-7.8-2.7
		c-8.6-3.3-17.2-5.3-26.6-5.1c-20.4,0.5-40.9,0.2-61.4,0.1c-3.9,0-7.6,0.4-11.2,1.9c-3.4,1-6.9,0.1-10.4,0
		c-11.3-0.4-22.5,1.1-33.8,0.1C427,35.4,441.5,32.5,455.8,35z"/>
	<path class="st61" d="M403,72.1c-0.7,3.1-3.2,1.8-4.9,1.8C369.4,74,340.7,74,312,74c0-4.3,0-8.6,0-12.9c0.5-0.3,1-0.3,1.4,0.1
		s0.7,0.8,0.9,1.3c3.8,8.5,11.9,7.7,18.9,8c14.8,0.6,29.6,0.8,44.4,0.1c5.3-0.3,10.4-1.9,15.4-4c4.1-1.8,6.5-4.5,6-9.2
		c-0.2-0.5-0.3-1-0.4-1.6c0.1-0.6,0.5-1,1-1.3c0.6-0.2,1.2-0.3,1.8-0.2c1.7,0.3,2.9,1.6,2.7,3C403.4,62.2,404.4,67.2,403,72.1z"/>
	<path class="st62" d="M312.1,50c0-1,0-2,0-3c7.7-2.4,15.5-1.7,23.2-0.3c8.3,1.9,16.7,0.4,25.1,0.9c2.4,0.1,5-0.4,6.7,2.1
		c0.4,1.2-0.4,1.7-1.3,2.2c-10.5,1.2-21,0.8-31.5,0.2c-5.2-1.4-10.4-0.5-15.6-0.8C316.3,51.3,314,51.8,312.1,50z"/>
	<path class="st53" d="M270,78c-2.9,0.4-5.1-2.4-8-2c-1.3-0.7-1.9-1.6-1-3c2,0.8,4.1,2.3,5.2-1c2.8,1.7,5.2-4.6,8.4-0.4
		c0.9,1.1,2.5-0.5,3.7-0.4c1.6,0,3.6-1.8,4.7,0.9c0.3,2.5-0.4,3.9-3.3,4.3C276.5,76.7,273.7,79.7,270,78z"/>
	<path class="st63" d="M326.1,36.2c0.3,0,0.6,0,0.9,0.1c1.4,0.7,2.8,1.4,2.4,3.3c-0.7,2.8-3.2,2.3-5.4,2.7c-0.4-0.1,0.5,0.6,0.3,0
		c2.4,0,4.1,0.5,2.3,3.4c-4,1.1-8.1,0-12.1,0.8c-2.8,0.5-1.5-2.3-2.4-3.4c-0.9-4.8,1.1-6.4,5.9-6.1
		C320.7,37.1,323.6,37.7,326.1,36.2z"/>
	<path class="st64" d="M312.2,43c0.9,1.5,1.3,3,4,2.4c3.5-0.7,7.3-0.3,10.9-0.4c1.9-1.7,4.3-1.5,6.5-1.5c7,0,14.1-0.1,21.1,0.1
		c4.4,0.2,8.8-0.9,13,1.1c1.9,3.1,0.5,3.6-2.5,3.5c-10.1-0.3-20.2-0.1-30.3-0.1c-7.6-2.3-15.3-0.7-23-1.1
		C312.1,45.7,312.1,44.3,312.2,43z"/>
	<path class="st65" d="M312.1,50c5.8,0,11.5-0.1,17.3,0c1.6,0,3.3-0.4,4.7,1c-2.1,2.1-4.9,1.4-7.5,1.5c-3.1,0.1-6.2,0-9.3,0.4
		c-1.9,0-2.9,0.7-2.9,2.8c0,1.8,0.4,3.9-1.4,5.3h-0.4h-0.4C312.1,57.4,312.1,53.7,312.1,50z"/>
	<path class="st66" d="M445.1,46.1c-0.4,3.3-0.8,6.7-1.2,10c-0.8,0.5,0,2.4-1.8,1.9c0-1.5-0.1-3-0.1-4.4c0.3-4.3-3.4-5.4-5.7-4.5
		c-4.5,1.6-8.3,0.1-12.5-0.4c-0.9-0.1-1.9,0.2-2.9,0.3c-1.3-0.6-1.8-1.5-1.3-2.9c4.2-2,8.5-2.7,13-1c2.9,1.1,5.8-1,8.7,0.1
		c1,0.3,2.1,0.4,3.2,0.6C444.7,45.9,444.9,46,445.1,46.1z"/>
	<path class="st67" d="M403,72.1c0-4.5-0.1-8.9,0-13.4c0.1-2.5-0.7-3.8-3.3-3.8c-0.4-1.4,0.2-2.6,0.6-3.8c0.4-1,0.7-2.1,1-3.1
		c0.4-1.1,0.7-2.2,1.3-3.2c0.7-0.8,1.5-1.3,2.6-1.1c1.1,0.4,1.5,1.3,1.7,2.4c0.1,1.1-0.2,2.1-0.9,3c-0.3,4.9,0.5,9.9-1.7,14.5
		c-0.7,1.4,0,2.8,0.4,4.3S405.7,71.5,403,72.1z"/>
	<path class="st68" d="M406.1,49c0-1,0-2,0.1-3c3.4,1.4,6.8,0.7,9-1.8c4.2-4.8,4-0.5,4.8,1.9c0.3,1,0.7,1.9,1,2.9
		c-1.1,0.1-1.6,2-3,1c-2.7-2-5.1-2.4-7.7,0.2C408.6,52,407.7,48.8,406.1,49z"/>
	<path class="st69" d="M442,58.1c0.6-0.7,1.2-1.3,1.8-2c0.4,1.6,0.7,3.2,1.1,4.9C441,63,441.4,60.7,442,58.1z"/>
	<path class="st70" d="M57.3,183c0.3-0.4,0.6-0.7,0.9-1.1c1.6-2,3.8-3.3,4.4-6.1c0.4-1.6,1.7-2.1,2.4,0.1c0.5,1.2,1.3,2.3,0.5,3.7
		c-3.1,5.3-4.9,11.3-8.7,16.2c-0.9,0.8-1.6,0.4-2.2-0.5c-0.4-2.2-0.7-4.4,0.3-6.6l0,0C56.1,187,58.9,185.9,57.3,183z"/>
	<path class="st46" d="M62.1,173.9c0.5-1.9,1.1-3.8,2.9-5c2.4-1.7,2.5,1.6,3.9,1.9l0.3,0.2c-0.6,1.9-0.9,4-3.1,4.9
		C65.5,173.9,63.3,175,62.1,173.9z"/>
	<path class="st71" d="M62.1,173.9c1.6,0.1,3.7-0.7,4,2h-0.5h-0.5c-0.4-0.6-1.5-0.8-1.4-0.4c0.6,4.3-2.4,5.3-5.4,6.4
		C58.8,178.9,60.7,176.5,62.1,173.9z"/>
	<path class="st15" d="M55.1,194.9c0.4,0.8,1.1,1,1.9,1c0,1,0,2,0,3c-1,0.7-2,1.4-2.9,2.1c-2.3,0.5-3.7-0.5-2.9-2.5
		C51.9,196.8,52.7,194.9,55.1,194.9z"/>
	<path class="st72" d="M55.1,194.9c-0.1,2.1-6.6,3-1,6c1.3,0,2,0.5,1.9,1.9c-1.2,0.8-0.7,3.3-3,3.1c-2.3-0.7-4.6-1.4-6.9-2.1
		c-3.4-3.3,1.2-3.3,2-4.8c3.6-2.5,3.4-7.6,6.9-10.2C55.6,190.9,55.9,192.9,55.1,194.9z"/>
	<path class="st73" d="M252.3,40.9c-12.8,0-25.6,0-38.4,0.1c-2.4,0-4.7-0.1-6.7-1.3c-1.3-0.8-2.9-1.8-1.2-3.7
		c3.3-0.7,6.2-3.2,8.3-2.8c-2.4,0-6.3,0.1-10.1-1.3c0-1.6,0.3-3.3,0-4.9c-0.7-4.1,0.6-6.5,5-6.8c2.6-1.9,6.1-1.8,8.7-3.7
		c3.8-0.6,7.6-1.5,11.3,0.4c1.1,2.7,4.1,3.2,6.1,4.7c-0.6-2.2-5.3-0.6-4.3-4.4c3.5-2.2,7-1.6,10.5,0c1.7,2,3.3,4.3,5.8,0.8
		c3.3,0.6,6.2-1.1,9.3-1.5c7.6-1,15.2-0.6,22.8,0.2c0.9,0.1,1.4,0.8,1.9,1.5c0.4,1.4,2.8,1.8,1.9,3.7c-0.8,1.7-2.6,1.2-4,1.1
		c-1.5-0.1-3,0.2-4.5,0.2c-2.2,0-3.5-0.7-2.8-3.5c-3.2,4.4-3.6,4.4-7.7,0c-0.5-0.5-0.9,0.5-0.5,0c0.1-0.1,0.2,0,0.5,0.1
		c1.4,0.5,1.7,1.5,1.3,2.8c-0.3,1-1.2,1.2-2,0.9c-1.7-0.5-3.2,0.9-4.9,0.3c-3.3-2.5-5.2,0.8-7.7,1.9c-1.8,2.8-4.2,0-6.6,0.6
		c3.6,1.6,7.5,0.3,10.7,2.4c-1.2-1.4-4.4-0.2-4-3.3c2.1-1,4-2.4,6.4-2.4c2.5,2.6,5.5-0.2,8.2,0.8c0.5,0.1,0.8,0.4,1.2,0.7
		c0.8,1,0.4,2.3,0.8,3.3c1.4,3.9-0.1,4.9-3.9,4.1c1.9,0.9,3.3,2.7,5-0.7c1.2-2.4,12.9-3.5,15.1-2c1.3,0.9,1.8,2.7,0.9,3.5
		c-2.3,2.2-0.9,5-1.8,7.3c-6.9,2.3-14.1,0.5-21.1,1C258.7,41.1,255.5,40.9,252.3,40.9z"/>
	<path class="st7" d="M313,23.1c-1.7,2.6-2.8,6.6-7.3,3.5c-0.2-0.2-1.1,0-1.2,0.3c-0.5,0.8-0.2,1.7,0.7,2c1.5,0.6,2.4,1.5,1.3,2.9
		c-1.3,1.8-2.2,0.5-3-0.6c-0.5-0.6-1.1-0.7-1.7-0.2c-0.5,0.5-0.8,1.4-0.2,1.7c2.6,1.4,0.8,5.4,4.4,6.1c-2.9,0.4-5.2,2-8,1.4
		c-1.7-0.4-3.2,0.4-3.2,3.1c0,2.4-0.9,5.2-3.9,6.5c-2.9,1.2-0.7,2.3,0.4,3.5c0.9,1.1,3.2,2.3,1.6,4c-1.4,1.4-3.8,1.2-5.5-0.1
		c-2.2-1.7-3.9-3.8-3.1-6.8c0.7-2.7,1.1-5.8,5.1-5.4c1.2,0.1,2.6-0.6,2.3-2c-0.3-1.5,0-3.6-1.5-4.5s-2.3,0.5-3.1,1.7
		c-1.2,1.8-2.4,2.8-3-0.3c-0.5-1.9,0.3-3.6,0.7-5.3c1.4-5.9-0.9-8.7-7-9c-3.9-0.2-8,1.2-11.6-1.5v0.1c0.5-2.8,3-1.6,4.3-1.5
		c2.9,0,5.9-0.2,8.8-0.1c5.1,0.2,5.4-0.1,4.3-5.2c0-1.5,0.3-2.8,1.8-3.4c6.9,3,14.2,1.8,21.3,2.3c1.9,0.1,3.9-0.5,5.8,0.4
		C314.7,18.6,314.8,20.8,313,23.1z"/>
	<path class="st19" d="M396,10c-0.9,1.3-2.3,1.1-3.6,1.1c-20.4,0-40.8,0-61.2,0c-1.2,0-2.3,0.1-3.2-0.9c0.8-0.7,1.9-0.6,2.9-0.6
		c19.9,0,39.8,0,59.8,0c0.6,0,1.2,0.1,0.8,0c-20.1,0-41.3,0-62.4,0c-0.7,0-1.3,0.1-1.9,0.5c-0.9,1.4,0.4,2.7,0.1,4.1
		c0,0.3,0.1,0.5,0.1,0.8c-0.2,3.4,1.1,7-1.2,10.1c-0.3,0-0.6,0-1,0c-0.8-0.2-1.3-0.7-1.6-1.5c-0.3-2.2,0.5-4.4,0.3-6.6
		c-0.1-2.2,0.1-4.5-2.6-5.3c-2.3-0.7-4.6-0.6-6.3,1.6c-0.7,1-1.7,1.6-3,0.9c-0.4-0.7-0.4-1.4,0.1-2.1c0-2.7-0.3-5,4-5
		c40.3,0.2,80.7,0.2,121,0.2c0.1,0.7-0.2,1.1-0.8,1.4c-12.8,0.7-25.7,0-38.5,0.4C397,9.4,396.5,9.6,396,10z"/>
	<path class="st74" d="M327.1,14.2c6.3-2,12.6,0.1,18.9-0.1c-2.7,4.5-6.9,2.9-10.7,2.5c-1.8-0.2-3.4-0.7-4.9,1
		c10.4,1.8,20.8,0.2,31.1,1.3c6.3,0.6,12.5-0.4,18.7,0c2.6,0.2,5.5,0.1,6.2,3.6c-1.3,3.1-3.6,3.6-6.5,2.7c-1,0-2,0-3,0
		c-1.9,0.9-3.9,0.4-5.9,0.4c-12.3-0.1-24.6,0-37,0.2C326.9,25.9,325.4,23.5,327.1,14.2L327.1,14.2z"/>
	<path class="st75" d="M540.7,20c-0.3,0.4-0.6,0.7-0.9,1.1c-1.9,0.3-3.9,0.6-5.8,0.8c-6.5,0-13-2.5-19.5-0.2
		c-1.6,0.6-3.2-0.4-4.8-0.8c-4.7-2.3-9.3,0.2-14,0.3c-2.4,0.1-4.5,0.1-6.6-1c-3.1-1.3-6.2,0.4-9.3-0.3c-1.5-0.3-3.8,0.5-4.1-1.6
		c-0.4-2.2,2-2.2,3.4-2.9c0.6-0.3,1.2-0.4,1.9-0.6c7.1-1.1,14.2-0.1,21.3-0.5c7.8-0.4,15.6-0.1,23.3,0c4,1.3,8,1.1,12.1,0.4
		C540.3,15.5,541.1,17.4,540.7,20z"/>
	<path class="st76" d="M476.9,25c-12.7,0.8-25.4-1-38.2,0c-3.2,0.3-6.5-1-9.7,0.1c-3.5-0.1-7,0.4-10.1-1.9c-0.4-1.9,1.1-2.3,2.3-3
		c9.2-0.8,18.4-0.5,27.6-0.1c5.2,0.2,10.7,0.7,15.9-1c1.6-0.4,3.1-0.5,4.6,0.1c1.8,2.8,6.3,0.9,7.7,4.5
		C477.2,24.2,477.2,24.6,476.9,25z"/>
	<path class="st77" d="M266.1,23.9c4.6,0,9.2,0.3,13.8,0c3.7-0.2,5.5,1.2,5.8,4.9c0.4,3.8,0.4,7.6-1.8,10.9c-0.3,0-0.7,0-1,0
		c-1.8-2.5-1.6-5,0.5-6.6c0.9-0.7,0.5-1.4,0.5-2.2c0-1-0.5-1.5-1.6-1.2c-1.4,0.4-2.4-0.1-3.7-0.8c-2.5-1.5-3,3.1-5.9,2.2
		c-1.6-0.5-4.7-1.4-3.6,2.7c0.3,1.2-0.8,1.3-1.6,1.2c-0.8-0.1-1.8-0.4-2.2-1c-1.1-1.5-5.5,0.7-4.1-3.1c1.2-3.2,3.6,0.2,6.1-0.2
		C264.8,28.7,267.2,26.1,266.1,23.9z"/>
	<path class="st78" d="M327.1,14.1c0,0.3,0,0.7,0,1c-0.2,10-0.7,8.6,9.7,9.2c13.4,0.8,26.9-1.5,40.3,0.8c-1.7,2-4.1,2-6.4,1.9
		c-10.8-0.4-21.6,0.8-32.3-0.8c-2.6-0.4-5.5,1-8.3,0.8c-1.6-0.1-3.5,0.5-3.9-2C326.4,21.4,324.9,17.6,327.1,14.1z"/>
	<path class="st79" d="M476.9,25c0.1-0.3,0.1-0.6,0.2-0.8c4.1-3.4,8.8-1.2,13.2-1.5c4,0,8.1,0,12.1,0c0.9,0,1.7,0,2.6,0
		c7.8,0.1,15.5-2,23.4-1c1.6,0.2,3.2-0.1,4.5,1.3c-0.7,2.1-1.8,3.8-4.3,2.8c-5.8-2.3-11.2-0.6-16.8,0.7c-4.3,1-8.9,0.6-13.4,0.3
		c-4.8-0.2-9.7-0.9-14.5,0C481,27.3,478.9,26.6,476.9,25z"/>
	<path class="st80" d="M419,23c3.4,0.4,6.8,0.8,10,2.2c-3.6,2.5-7.5,1-11.4,1c-10.7-0.1-21.3-0.5-31.9,0.8c-2,0.2-4.4,0.7-5.7-1.8
		c2.1-0.7,4.1-1.5,6.2-2.2c0.4-0.3,0.9-0.5,1.4-0.6c9.6-0.2,19.2,0.5,28.8-0.2C417.2,22,418.2,22.2,419,23z"/>
	<path class="st76" d="M532.8,22.9c-9.4-0.9-18.6,0.8-27.9,1c-1.3-5.2,2.8-3.3,5.1-3.8c6.4-0.2,12.9-0.4,19.3-0.5
		c1.8,0,4.1-0.4,4.8,2.3C533.7,22.2,533.2,22.6,532.8,22.9z"/>
	<path class="st53" d="M286.4,64.7c-3.1,2.7-6,2.6-8.7,3.3c-1.1,0.3-2.7,0-3-1.1c-1.1-3.6-2.6-5.3-6.2-2.5c-0.6,0.4-1.2-0.1-1.3-0.9
		c-0.1-0.9,0-1.9,0.9-2.1c2-0.5,4.5-2,6.1-0.3C277.5,64.2,281.8,63.3,286.4,64.7z"/>
	<path class="st7" d="M261,73c0.3,1,0.7,2,1,3c-0.5,4.2-0.6,4.3-4,2.3c-0.7-0.4-1-0.7-1.6,0c-2.8,3.2-6.3,1.2-9.6,1.2
		c1.5-1.6,1.7-5.4,5.4-2.5c1.5,1.2,2.3,0,2.7-1.6c0.3-1.2-1.6-3.5,1.7-3.5c3.7,0-0.3,2.7,1.3,3.4c0.4,0.2,0.7,0.6,1.3,1.1
		c1.4-0.9,0.5-2.4,1-3.5c0.1-0.1,0.3-0.2,0.4-0.2C260.8,72.8,260.9,72.9,261,73z"/>
	<path class="st20" d="M312.2,13.9c2.4-0.5,1.9-4.4,5.7-4.1c6.2,0.6,6.8,0.5,6.9,7.3c-0.5,0.2-0.9,0.1-1.3-0.2
		c-4.5-2.7-6.1-2.3-8.1,1.9c-0.2,1.7,0,3.5-1,5.1c-0.4,0.4-0.9,0.5-1.3,0.1c0-0.3,0-0.6-0.1-1c-0.2-2,0.8-4.2-0.9-6
		C311.2,16,311.1,14.9,312.2,13.9z"/>
	<path class="st81" d="M579.7,42c0.7,3.3-1.7,3.4-3.6,2.9c-3.8-0.9-8.4,2.6-11.5-2c-0.1-0.1,0.3-0.6,0.4-0.9
		C569.9,43.2,574.8,39.8,579.7,42z"/>
	<path class="st7" d="M196.4,80.6c0.6-3.6-3.5-5.4-1.1-7.8c2-2,4.1,0.7,6.2,1.7C200,76.3,198.6,78,196.4,80.6z"/>
	<path class="st82" d="M225.1,72c1.4,2.7,0.3,4.5-2,6c-3.3-0.4-3.5-2.7-2.8-5.1C221.1,70.3,223.2,71,225.1,72z"/>
	<path class="st7" d="M313,24c0.3,0,0.7,0,1,0c3.4-0.8,6.7-0.3,10.1,0c0.3,0.3,0.6,0.7,0.9,1C321.2,28.4,316.3,27.9,313,24z"/>
	<path class="st7" d="M280,49.7c-0.6-2.2-1.4-4.4,1-5.9c0.3-0.2,1.1,0,1.2,0.3C283.6,46.8,280.2,47.5,280,49.7z"/>
	<path class="st53" d="M258.6,62.4c1.8-0.3,3.5-1.2,4.3,1.1c0.1,0.4-0.4,1.5-0.7,1.6C260,65.6,259.5,63.9,258.6,62.4z"/>
	<path class="st7" d="M302.9,49.9c-0.1,0.9-0.7,1.7-1.5,1.7c-1.4,0-1.3-1.2-1.3-2.1c0-0.8-0.1-1.8,1.1-1.6
		C302.2,48,303,48.6,302.9,49.9z"/>
	<path class="st80" d="M472.8,29.9c-1.6,0-3.2,0-4.7,0C469.7,27,471.3,26.9,472.8,29.9z"/>
	<path class="st83" d="M436.9,7.8V7.4c29,0,57.9,0,86.9,0c0,0.2,0,0.5,0,0.7c-5.6,0-11.2,0-16.9,0c-0.3,0.4-0.7,0.7-1,1.1
		c-3.8,0.9-7.6,0.2-10.8,0.4c3.2,0.5,7.1-0.5,10.8,0.5c-4.3,1.8-8.7,1.8-13,0c-13.6-0.7-27.3-0.7-40.9,0c-4.3,1.8-8.7,1.7-13,0.1
		c3.4-1,7-0.4,10.5-0.8c0.7-0.2-0.3-0.7,0-0.1c0.1,0.2,0,0.4-0.4,0.3c-3.4-0.7-6.8,0.9-10.1-0.4c-0.3,0-0.6,0-1,0
		c-0.2-0.1-0.4-0.1-0.6-0.2C437.1,8.6,436.9,8.2,436.9,7.8z"/>
	<path class="st84" d="M312.2,13.9c-0.1,1-0.1,2.1-0.2,3.1c-7.4,1.5-14.7-0.7-22.1,0.1c-2.7,0.3-3.8-1.3-4.8-3.2
		c-0.3-0.2-0.4-0.3-0.3-0.5c0.1-0.2,0.1-0.3,0.2-0.3c7.6-2.2,15.4-0.7,23.1-0.8c1.3,0,2.6-0.1,3.9-0.2
		C312,12.7,312.1,13.3,312.2,13.9z"/>
	<path class="st85" d="M204.1,17.1c-9.3,0-18.7-0.1-28-0.1c1.3-4.5,6.1-4.4,8.6-4.3c6.3,0.1,12.5-0.9,18.8-0.6c1,0,2,0.1,2.6,1
		C206.7,15.1,205.8,16.3,204.1,17.1z"/>
	<path class="st86" d="M285,13.1c0.1,0.3,0.1,0.5,0.1,0.8c-0.4,1-0.7,1.9-1.1,2.9c-0.4,0.4-0.8,0.6-1.4,0.5
		c-3.3-2.2-7.4-0.3-10.8-1.9c-0.5-0.3-0.9-0.7-1.3-1.1c-1.1-0.8-2.5-0.9-3.8-0.9c-15.1,0-30.1,0-45.2,0c-1.3,0-2.6,0.1-3.9,0.7
		c-3-0.2-6.2-0.2-8.7-2.3c1.6-1.4,3.5-0.9,5.2-0.9c20.8,0,41.6,0,62.3-0.1C279.6,11,282.4,11.4,285,13.1z"/>
	<path class="st87" d="M208.9,11.9c2.7,0.7,6.1-1.2,8,2.3c0.2,0.1,0.4,0.1,0.5,0.2c0.4,0.4,0.7,0.9,0.9,1.4c0.1,0.4-0.1,0.7-0.4,1
		c-1.8,3.9-5.5,3.1-8.7,3.3c-1.8-0.8-5.4,1.4-5.1-3c0.7-1.3,1.3-2.7,2-4C207,12.7,208,12.3,208.9,11.9z"/>
	<path class="st88" d="M545.9,9.1c-0.3,1.3-1.4,1.1-2.4,1.2c-11.4,0-22.8,0-34.2,0c-0.9,0-2,0.2-2.4-1.1
		C519.9,8.6,532.9,8.6,545.9,9.1z"/>
	<path class="st32" d="M124.1,21c-3.6,1.3-7.2,2.1-11,2c-2.5-1.4-4.3-5.4-8.2-2.1c-0.9,0.8-2.6-0.1-2.7-1.9
		c4.6-0.2,7.9-5.8,13.6-3.1c1.7,0.8,5.1-1.6,7.6-2.8c1.2-0.5,1.9-2.6,3.7-0.8c1.7,1.7,0.4,3.1-0.4,4.4
		C125.8,18.3,124.1,19.1,124.1,21z"/>
	<path class="st89" d="M93.9,73c-1.1,0.8-2.4,1.2-3.8,1.2c-2.4-0.5-2-2.5-2.2-4.2c0.1-0.3,0.2-0.6,0.2-1C92.3,67,94,68.7,93.9,73z"
		/>
	<path class="st7" d="M84.6,57c-0.7-0.1-2-0.3-1.7-1.5c0.3-1.4,1.4-2.7,3-2.7c1,0,1.8,1,1.7,2.1C87.3,56.2,86.5,57.2,84.6,57z"/>
	<path class="st90" d="M386.9,22.9l-0.4,0.1h-0.4c-0.6-2.5-2.7-3-4.6-2.8c-4.1,0.3-8.3-1.4-12.3,1.1c-1.3,0.8-2.4-1.4-4.2-1.3
		c-11.5,0.1-23-0.1-34.6-0.1c-1.3,0-2.4,0.1-2.5-1.5c-0.1-1.4,0.3-1.9,1.9-2.6c3.1-1.4,6-0.2,8.7,0.1c2.9,0.3,5.1-0.4,7.4-1.6
		c9.2,0.8,18.3,0.8,27.5,0.6c6.5-0.1,13,0.2,19.6,0.2c6.9,0,13.9-0.6,20.8-0.2c11.7,0.7,23.4-1.2,35,0.3c1.3-0.7,2.1-0.3,2.7,1
		c0.2,1.2-0.2,2.2-1.3,2.8c-6.4,2.1-13.1,0.7-19.7,1.4c-8.9,0.9-17.8-0.9-26.6,0.7C398.3,21.7,392.4,20.5,386.9,22.9z"/>
	<path class="st31" d="M540.7,20c-0.9-1.6-1.9-3.3-2.8-4.9c-3.7,0.4-7.3,1.6-11,0c-4.8,2.3-9.7-0.2-14.6,0
		c-10.8,0.3-21.6-0.8-32.4,1c-3.1,0.4-6.4-0.8-9.4,0.9c-1.3,0.3-2.5,0.2-3.7-0.6c-0.5-0.7-0.5-1.5,0-2.2c10.9-2.5,21.9-0.2,32.9-0.9
		c12.8-0.8,25.7-0.2,38.6-0.1c2.8,0,5.5,1.2,8.4,0.7c0.2,0.2,0.3,0.3,0.5,0.5c0.4,1.4-0.4,2.4-1.7,2.4c-3.8-0.1,0.7,1.8-0.6,2.2
		c-0.1,0.2-0.3,0.3-0.4,0.5C543.2,18.8,542,19.6,540.7,20z"/>
	<path class="st91" d="M327,10.1c1-1.3,2.4-1,3.7-1c20.6,0,41.2,0,61.9,0c0.5,0,0.9,0.2,1.4,1.1c-22,0-44,0-66,0
		C327.6,10.1,327.3,10.1,327,10.1z"/>
	<path class="st31" d="M576,14.1c0,0.3-0.1,0.5-0.1,0.8c-2.1,2.2-4.7,1.1-7.1,1.2c-2.8,0.1-5.6,0.5-8.4,0.8
		c-4.3-1.6-9.4,0.9-13.2-2.7c-0.1-0.1-0.2-0.3-0.4-0.4c7.8-0.5,15.5-1.2,23.3-0.6C572.1,13.5,574,13.9,576,14.1z"/>
	<path class="st88" d="M396,10c0-0.2,0-0.5,0-0.7c1.8-1.2,3.9-0.6,5.8-0.6c12,0.2,24.1-0.6,36.1,0.4l0,0c-0.3,1.3-1.4,1.2-2.4,1.2
		C422.4,10.2,409.2,10.1,396,10z"/>
	<path class="st88" d="M452,10c0.3-1.4,1.4-1.2,2.3-1.2c12.1,0,24.2,0,36.3-0.1c1,0,2.1-0.1,2.3,1.3C479.3,10.5,465.6,10.5,452,10z"
		/>
	<path class="st92" d="M466.9,14.1c0.1,0.6,0.1,1.2,0.2,1.8c-4.6,1.4-9.4,0-14,0.8c-0.8,0-1.5-0.2-2-0.8c-0.7-0.3-1.4-0.6-2.1-1
		C454.8,12.1,460.9,14.7,466.9,14.1z"/>
	<path class="st28" d="M438.9,9.1c3.6,0.4,7.4-1.4,10.9,1c-3.6,0-7.3,0-10.9,0C438.9,9.7,438.9,9.4,438.9,9.1z"/>
	<path class="st91" d="M505.9,10c-3.6,0-7.2,0-10.8,0c3.6-1.4,7.2-0.9,10.8-0.9C505.9,9.4,505.9,9.7,505.9,10z"/>
	<path class="st93" d="M46.2,55.9c2,1.6,4.1,3.3,2,6.3c-1.8,1-3.5,2.8-5.8,1.3c-1.5-1-2.5-2.3-2-4.2C41.1,56.1,43.6,56,46.2,55.9z"
		/>
	<path class="st94" d="M540.9,46.1c0.3-2.7-1.6-5.2-0.9-8c2.2-3.5,4.4-0.7,6.8-0.1c3.8,1,6.5,3.3,8.6,6.5c0.6,0.9,1.1,1.6,0.4,2.6
		c-0.5,0.8-1.3,0.9-2.2,0.7C549.4,46.9,544.9,48.1,540.9,46.1z"/>
	<path class="st95" d="M559,53.9c0,2.4,0,4.7,0,7.1c-5.7,1.9-11.4,1.6-17,0.1c3.6-2.7,7.5-4.2,11.8-2.3c2.6,1.2,3-0.7,3.9-2.2
		c0.8-1.4-0.3-3.3,1.3-4.6c0.3,0.2,0.5,0.5,0.6,0.9C559.4,53.3,559.3,53.7,559,53.9z"/>
	<path class="st41" d="M559.1,53c-0.1-0.3-0.2-0.7-0.3-1c0.1-1.5-0.2-3.1,0.3-4.4c0.7-2,2-3.7,4-0.8c-0.1,0.1-0.3,0.3-0.4,0.4
		C560.4,48.5,562.2,52.3,559.1,53z"/>
	<path class="st96" d="M559.9,16.1c5.2-2.3,10.6-0.8,16-1.2c0.7,3-2.5,5.5-6,4.2c-1.9-0.7-2.9-1-3.9,0.9c-3.7-0.7-7.8,1.5-11-1.9
		C555.4,14.4,558.5,17.6,559.9,16.1z"/>
	<path class="st97" d="M559.9,16.1c-1.2,1.8-3.8,0-5,2c-3,3.2-6.5,1-9.9,0.8c-0.9-1.2-3.8-0.3-3.3-2.6c0.5-2,2.4-0.4,3.7-0.5
		c1-0.1,1.3-0.7,1.6-1.5C551.1,16.6,555.9,13.4,559.9,16.1z"/>
	<path class="st66" d="M428.9,36.2c9-0.1,18-0.2,27.1-0.3c2.6,3.4,0.6,7.5-0.4,10.1c-2.1,5.3-1,10-0.6,15.1
		c-3.2,1.6-5.4,0.6-4.6-2.6c1.3-4.9-0.4-9.5-0.6-14.2c-0.1-1.9-0.4-4.7-2.7-4.6c-2.1,0.1-0.7,2.7-1.1,4.2c-0.2,0.8-0.6,1.5-0.9,2.2
		l-0.2-0.2c-1.2-1.2-1-2.8-1.2-4.2c-0.1-0.9-0.6-1.3-1.5-1.2c-3.3,1.5-6.8,1-10.2,0.6C429.3,40.9,426.9,39.7,428.9,36.2z"/>
	<path class="st98" d="M500.1,40.1c-0.3-2.2,0.2-4.3,2.6-4.4c2.1-0.1,2,2.1,2.5,3.6c0.7,2.1,1.2,4.3,0.3,6.2
		c-2.6,5.4-1.8,10.8-0.7,16.3l0,0c-2.5,0.8-5.5,1.4-4.8-2.7c0.7-4.5-0.6-8.9,0.1-13.3C501.5,44,501.4,42.1,500.1,40.1z"/>
	<path class="st99" d="M484.9,62c-2.9,1.2-4.8,0.1-4.3-3c1-6.2-0.8-12.3-0.6-18.5c0.1-1.6-0.3-3.7,1.9-4c1.7-0.3,2.5,1.3,3,2.8
		c0.8,2,1.8,4.4,0.8,6.3C483,51,483.9,56.4,484.9,62L484.9,62z"/>
	<path class="st100" d="M460.6,59.2c0.7-5.2,0.4-9.7-0.5-14.3c-0.4-1.9-0.1-4,0.1-5.9c0.1-1.2,1.1-2.2,2.2-2.5
		c1.8-0.5,1.5,1.3,2,2.2c1.2,2,1.7,3.9,0.9,6.5c-1.2,4.2-2.2,8.7-0.9,13.2c0.7,2.4-0.8,3.9-2.4,3.9
		C460.1,62.4,461.2,59.9,460.6,59.2z"/>
	<path class="st99" d="M490.1,41.1c-0.2-2.2-0.3-5,2.3-5.2c2.3-0.2,2.3,2.6,2.9,4.5c0.4,1.5,1.1,2.9,0.3,4.3
		c-2.5,4.5-1.7,9.3-1.4,14.1c0.1,1.7,0.2,3.3-1.5,3.5c-2,0.2-1.3-1.8-1.4-3c-0.4-4.7-0.8-9.5-1.2-14.2c0.4-0.6,1.2,0.7,1.1,0
		C491,43.7,491.4,42.1,490.1,41.1z"/>
	<path class="st100" d="M525.9,43.1c-1.1,5.5-3,10.9-1.7,16.7c0.4,1.7-1.9,2.4-3.2,3.2l0,0c-0.3-5.3-0.6-10.7-0.9-16
		c1.6-2.3,1.2-4.6,0-6.9c0-0.7,0-1.4-0.1-2.1c2.1-2.7,3.6-1.6,4.7,0.8C525.3,40.2,525.1,41.8,525.9,43.1z"/>
	<path class="st101" d="M455.8,35c-16.3,0-32.6,0-48.9,0c0-0.6,0-1.2,0-1.8c16.6,1.8,33.3-1.7,49.9,0.9
		C456.5,34.3,456.1,34.6,455.8,35z"/>
	<path class="st102" d="M533.8,57.1c0.1,0.7,0,1.4,0.2,2c0.8,2.3-1,2.7-2.3,2.9c-2,0.3-2.2-1.6-1.8-2.7c1.5-4.1,0.1-8.2,0.1-12.2
		c1.6-2.3,0.8-4.6,0-6.9c0-0.7-0.1-1.4-0.1-2.1c3-3.4,4.5-0.6,5.2,1.7c0.7,2.3,1,5.1-0.2,7.3C533.1,50.3,533.2,53.6,533.8,57.1z"/>
	<path class="st103" d="M510.9,62.1c-3.4-1.7-3.1-4.3-1.6-7.1c0.7-1.3,1.9-2.3,1.7-3.9c0.5-0.9,0.5-1.9,1.1-2.8
		c2.6-3.8,1.6-6.8-2-9.2c-0.1-2.7,1-4.7,3.6-5.8c0.8,2,2.1,3.7,2.4,6c0.9,6.5-3.1,12.4-2.2,18.9c-1.6,0-1.3-1.3-1.6-2.5
		C511.6,58,512.9,60.4,510.9,62.1z"/>
	<path class="st104" d="M474.9,45.1c-1.4,0.1-2,0.9-2,2.2c0,1.4-0.2,2.6-2,2.8c-1.2-3.5-1.3-7.1-0.8-10.8c0.2-1.4,1.1-2.6,2.5-2.8
		c1.6-0.2,1.5,1.6,1.8,2.5C475.1,41,476.6,42.9,474.9,45.1z"/>
	<path class="st105" d="M510,39.1c6.3,2,6.7,6.1,1,12C509.2,47.2,509.9,43.1,510,39.1z"/>
	<path class="st106" d="M533.8,57.1c-1.4-3.6-1.5-7.1,0.5-10.7c1.3-2.3,1.2-5.1-0.2-7.5c-1-1.7-2.5-1.9-4.2-0.8
		c-0.2-2.2,0.7-3.9,2.8-4.7c1.1-0.4,2.4-0.8,2.5,1.6c0.3,5.5,1.8,10.9-1,16.4C533.4,52.8,533.9,55.1,533.8,57.1z"/>
	<path class="st107" d="M525.9,43.1c-1.1-1-1.6-2.3-2-3.7c-0.7-2.4-2.1-2.4-4-1.3c0.5-1.2,0.7-2.6,1.5-3.6c1.5-1.9,2.9-2.1,3.6,0.8
		C525.7,37.9,526.1,40.4,525.9,43.1z"/>
	<path class="st108" d="M510.9,62.1c0.1-2.4-0.4-4.9,1.4-7.3c0.6,1.2,1,2.3,1.5,3.4c0.7,2.5-0.9,3.7-2.7,4.7l0,0
		C511.1,62.6,511,62.3,510.9,62.1z"/>
	<path class="st109" d="M500.1,40.1c3.5-0.9,1.8,2,1.8,2.9s1.8,3.9-1.8,2.9C500.1,44,500.1,42.1,500.1,40.1z"/>
	<path class="st110" d="M520,40.1c2.7,3.2,2.7,5.9,0,6.9C520,44.7,520,42.4,520,40.1z"/>
	<path class="st111" d="M560,61.2c1.5-0.5,0.3-3.8,2.9-3c1.8,0.6,0.5,2.6,1.2,3.8C562.7,61.9,561.2,62.4,560,61.2z"/>
	<path class="st112" d="M530,40.1c1.4,2.3,3.8,4.6,0,6.9C530,44.7,530,42.4,530,40.1z"/>
	<path class="st113" d="M490.1,41.1c2,0.8,2,0.8,1.8,5.9c-1.4,0-0.8-1.7-1.8-2C490.1,43.7,490.1,42.4,490.1,41.1z"/>
	<path class="st114" d="M559.1,53c2.2-1.3-1.5-6.2,3.6-5.8c0.1,2.5,1.2,5.3-1.9,6.9c-0.6-0.1-1.2-0.1-1.8-0.2
		C558.9,53.6,559,53.3,559.1,53z"/>
	<path class="st115" d="M70.3,157.1c3.4,4-1.5,5.9-2.2,8.9c-1.1,0.5-1.4-0.2-1.8-1C67.6,162.3,69,159.7,70.3,157.1z"/>
	<path class="st116" d="M66.3,165c0.6,0.3,1.2,0.6,1.8,1c0.7,1.5-0.5,3.4,0.8,4.9c-1.7,0.2-2.2-2.2-3.9-1.9
		C65.5,167.6,65.9,166.3,66.3,165z"/>
	<path class="st72" d="M57.3,183c2.3,2.7,2.3,2.7-2.3,5.9C54.9,186.6,56.8,185.1,57.3,183z"/>
	<path class="st101" d="M108.1,37.1c0.1-3.9,2.1-5.3,5.5-5.1c3,0.1,4.7,1.7,4.5,4.7c-0.2,3.2-2.1,5.2-5.4,5.3
		C109.4,42.1,108,40,108.1,37.1z"/>
	<path class="st100" d="M204.2,31.9c4.3,0.6,8.9-1,13.4,1.6c-4.1,0.9-7.5,3-11.5,2.5c0.7-0.7,1.3-1.5,2.1-2.3
		C207.2,32.3,204.8,33.8,204.2,31.9z"/>
	<path class="st117" d="M428.9,36.2c-0.6,3.1,1.6,4.3,3.8,4.1c3.4-0.2,7,0.5,10.2-1.3c0.8,2.3,0.4,4.5-0.5,6.7
		c-0.2,0.2-0.4,0.3-0.6,0.5c-4.3-0.9-8.6,1.4-13.2-1c-1.2-0.6-5.7,0.6-8.7,1c-1.3,0.6-1.7-5.2-3.9-0.4c-1,2.3-7.9,2-9.9,0.2
		c-0.2-0.8-0.2-1.7-1.2-2c0.1-2.9,2.8-3.6,4.3-5.4c0.9-1,1.9-1.7,2.8-2.6c4.3,0,8.6,0.1,12.9,0.1c1,3.5,2.1-0.7,3.1,0
		C428.3,36.1,428.6,36.1,428.9,36.2z"/>
	<path class="st118" d="M355,44.9c-9.3,0-18.6,0-27.9,0.1c0.1-2.2-2.7-1.5-3.4-3.5c2.5-0.8,7.7-0.3,3.4-5.3
		c8.6-0.7,17.3-0.4,25.9-0.2c2.6,0.8,4.2,2,2.5,5C354.7,42.2,355.3,43.6,355,44.9z"/>
	<path class="st119" d="M412,36c0,1.5-0.8,2.5-2,3.2c-0.4-0.1-0.9-0.3-1.3-0.4c-3.2-0.9-5.4-0.4-5.6,3.7c-0.1,1.9-0.6,3.8-1,5.7
		c-0.1,1.1,0.1,2.3-0.9,3.1c-0.5-0.1-0.9-0.2-1.3-0.4c-3.8-0.4-4.6-2.6-3.5-5.9c0.4-1.2,1.6-2.7-0.3-3.4c-1.9-0.7-0.9,1.5-1.6,2.2
		c-1.9,1.8-3.9,3.3-6.6,2c-3.8-1.8-7.4-2.5-11.3,0c-1.7,1.1-3.3,0.5-3.7-1.6c-0.3-1.6-1.3-2.6-2.2-3.7c0.1-5.5,4.9-2.9,7.4-4.4
		C389.3,36,400.7,36,412,36z"/>
	<path class="st120" d="M378,36c-2.2,1.8-6.8,0.4-7,5c-0.1,0.2-0.2,0.3-0.4,0.5c-1,0.7-1.8,1.6-2.1,2.8c-0.2,0.4-0.4,0.7-0.8,0.9
		c-4.3-0.1-8.5-0.2-12.8-0.4c-1.5-1.1-2.3-2.5-0.9-4c2.3-2.4,0.5-3.6-1.1-4.9C361.3,36,369.7,36,378,36z"/>
	<path class="st66" d="M428,36.2c-1.6,1.3-3.2,2.5-4.7,3.7c-0.4-1.2,1.3-2.2,1.6-3.7C425.9,36.1,427,36.2,428,36.2z"/>
	<path class="st65" d="M399.6,56.2c1.7,3.7,0.6,8-2.8,9.8c-6.6,3.7-13.7,5.9-21.3,5.9c-13.3,0.1-26.7,0.1-40,0
		c-4.6,0-9.3-0.4-13.8-1.1c-5-0.7-7.1-4.7-8.6-9.1c0.9-1,2-1.7,3.4-1.9c13.9,0.5,27.8-0.3,41.6,0.1c11.2,0.4,22.5-0.4,33.8,0
		C395.2,60.2,397.6,58.6,399.6,56.2z"/>
	<path class="st121" d="M399.6,56.2c-1,5.1-2.5,5.8-9.8,5.5c-14.4-0.5-28.8,0.2-43.2-0.2c-10.2-0.3-20.4,0.9-30.5-0.6
		c-1.6-1.7-1.4-3.5-0.7-5.5c5.8-2.2,12.1-1.8,18-1.5c8.1,0.5,16.2-0.4,24.3,0.1c11.2,0.7,22.5-0.1,33.7,0.3c2.5,0.5,5.3-0.3,7.6,1.6
		C399.2,56.1,399.4,56.2,399.6,56.2z"/>
	<path class="st122" d="M316.2,54.8c0,2-0.1,4.1-0.1,6.1c-1,0.3-1.9,0.6-2.9,0.9c0-0.3-0.1-0.5-0.2-0.8c0-2.5,0.2-5,0.1-7.5
		c-0.1-3,1.5-2.2,3.1-1.5C316.9,53,316.9,53.9,316.2,54.8z"/>
	<path class="st123" d="M399,56c-2.8-0.1-5.6,0.4-8.3-0.7c-0.1-0.3-0.1-0.5-0.2-0.8c0.1-0.5,0.4-0.9,0.9-1.2c2-0.7,4.1-0.7,6.2-0.2
		c0.8,0.3,1.4,0.8,1.3,1.7C399,55.3,399,55.6,399,56z"/>
	<path class="st119" d="M399,54.9c-0.3-0.3-0.7-0.5-1-0.8c-1-0.8-1.7-1.6-0.7-2.8c1-1.1,2.2-1.3,3.5-0.4c0.1,0.1,0.3,0.2,0.4,0.3
		c0.3,1.5-0.3,2.7-1.5,3.6l-0.4-0.1L399,54.9z"/>
	<path class="st120" d="M400.8,50.9c-1.8,0.3-4.2,0.1-2.8,3.2c-2.3,0.3-4.6,0.6-6.9-0.3c-5.7-2.5-11.7-0.9-17.6-1.4
		c-2.4-0.2-5.1,0.5-6.6-2.3c-1.5-1.9-3.6-1.2-5.5-1.3c-8.8-0.4-17.7,0.7-26.5-0.8c0.6-1.4,1.9-1,3-1c9.4,0.1,18.7-0.7,28.1,0.2
		c2.3,0.2,2.2-0.5,1.7-2.1l0.2-0.2c0.9-1.4,1.3-3.2,3-4l0,0c1.5-0.4,4-2.4,2.9,1.6c-0.3,1.2-0.3,2.1,0.6,2.5
		c0.5,0.3,1.8-0.1,2.2-0.6c3.2-3.8,7.3-1.9,10.2-0.6c2.4,1.1,3.7,0.9,5.6,0c2.7-1.3,0.7-3.4,0.8-5.8c2,1.6,3.6,3.1,5.9,2.6
		c0.3,1.9-1.2,2.6-1.5,3.9c-0.7,2.3-2.3,5,2.3,4.7C400.3,49.3,400.6,50.4,400.8,50.9z"/>
	<path class="st124" d="M316.2,54.8c0-0.9,0-1.8,0-2.6c5.8-2.6,11.9-0.7,17.9-1.2c10.6,0.1,21.1,0.2,31.7,0.2
		c6.6,1.7,13.3,0.5,19.9,0.8c2.4,0.1,4.8,0,5.3,3.1l-0.2,0.2c-9-0.1-18,0.5-27,0.2c-7-0.3-14.1,0.2-21.1,0
		C333.8,55.2,324.9,56.8,316.2,54.8z"/>
	<path class="st125" d="M390.9,55.1c-1.1-2-2.7-2.3-4.9-2.3c-5,0.1-10,0.1-15,0.1c-2,0-4.1,0.3-5.4-1.7c0.4-0.4,0.8-0.7,1.3-1.1
		c6.3,2,12.8,0.4,19.2,0.8c2.2,0.1,4.4-0.1,5,2.8C391.1,54.2,391,54.7,390.9,55.1z"/>
	<path class="st117" d="M444.8,40c0,2,0,4,0,6c-1,0.5-1.9,1.7-3,0.2l0.2-0.3C443.7,44.2,441.6,40.9,444.8,40z"/>
	<path class="st126" d="M410,38.2c0,0.3,0,0.7,0,1c-1.7,1.6-3.4,3.2-5.1,4.8c-0.7,0.3-1.3,0.6-2,0.9C401.9,37.8,402.6,37.1,410,38.2
		z"/>
	<path class="st117" d="M410,38.2c-7.1,0.6-7.1,0.6-7,6.8c-0.1,1.1,0.1,2.3-0.9,3.2c0-1.6-0.1-3.3-0.1-4.9
		C402,36.7,403.7,35.7,410,38.2z"/>
	<path class="st127" d="M217.9,16.8l-0.2-0.3l0.1-0.3c0-2.4,1.9-2.5,3.5-2.5c15.9-0.2,31.8-0.2,47.7,0c1.2,0,2.2,0.6,3.2,1.2
		c3.7,0.2,7.7-1.6,10.9,1.9c0.4,1.8-0.4,2.4-2.1,2.2c-2.5-3.1-6-1.6-9-1.8c-7.2-0.7-14.5,0-22.2,1.5c-0.1,0.6,2.2,1.4,1.3,1.9
		c-2.5,1.4-2.6-1.8-4.1-2.5c-1.7,0.9-3.4,0.1-5.1,0c-3.6-0.8-7.3-2.1-10.9,0c-0.7,0.6-1.3,0.6-2,0C225.6,15.7,221.6,18.1,217.9,16.8
		z"/>
	<path class="st128" d="M281,19.1c1.1-0.4,1.7-1.1,2.1-2.2c0.3,0.1,0.6,0.1,0.9,0c2.9,3.7,2.3,5.7-2,6.1c-3.7,0.4-7.5,0.1-11.3,0.2
		c-1.5,0.1-3.3-0.7-4.6,0.8c-2.5,0.8-5.1,0-7.7,0.9c-1.1,0.4-0.5-1.1-0.4-1.8l0,0c0.8-0.1,1.9,0.1,2.4-0.3c1.3-1.2,4.2,0.6,4.2-1.1
		c0.1-3.1-3.2,0.9-4.2-1.8c2.3-0.5,4.5-3.6,6.3,1c0.5,1.2,3,1.7,2.8,0.1c-0.6-5.8,3.7-0.7,4.9-2.3c-0.6,0.8-1.9,1.9-1.7,2.5
		c0.4,1.4,1.9,1,2.9,0.5c1.5-0.7,2.9,0,4.4,0c0.9,0,2,0.8,2.6-0.4C283.3,19.8,280.1,20.8,281,19.1z"/>
	<path class="st129" d="M251,25.1c1.1,2.7,4.5,1.6,6.5,4.1c-4.3-1-8.2-1.3-12.1-1.1c-1.1,0-2.4,0-2.7-1.5c-0.1-0.6-0.2-1.5,0.1-1.9
		c0.9-1.1,2.1-0.5,3.1,0C247.6,25.3,249.2,26.4,251,25.1L251,25.1z"/>
	<path class="st130" d="M242,18.1c1.7-1.8,3.4-1.3,5.1,0c0.1,1.8,0.1,3.8-2.3,4C241.9,22.3,242,20,242,18.1z"/>
	<path class="st131" d="M229.1,18.1c0.7,0,1.3,0,2,0c2.5,1.3,5,2.5,7.5,3.8C234,23.6,231.8,20.2,229.1,18.1z"/>
	<path class="st77" d="M247.2,36.5c-3.2,2.3-5.7,1.9-7-2.1C243.3,32.2,244.4,37.3,247.2,36.5z"/>
	<path class="st132" d="M226.9,36.9c-2.1,1.7-2.1,1.7-8.5,0.4C221.4,35.8,224,35.9,226.9,36.9z"/>
	<path class="st128" d="M258.1,23.1c-2.4,0.4-4.3,2.7-7,2l0,0C252.9,22.9,254.5,19.7,258.1,23.1C258,23.1,258.1,23.1,258.1,23.1z"/>
	<path class="st133" d="M262.8,37.7c-1.3-0.8-3.1,1.2-4.6-0.6C260.1,35.6,261.5,35.5,262.8,37.7z"/>
	<path class="st134" d="M324.1,24.1c-3.4,1.7-6.7,1.5-10.1,0c0-2,0-4,0-6c3.4,0,6.9,1.4,10.1-1c0.2,0,0.4,0.1,0.6,0.1
		C325.4,19.5,324.5,21.8,324.1,24.1z"/>
	<path class="st22" d="M438,9.1c-14-0.2-27.9-0.5-41.9,0.2c1.2-2.1,3.3-1.2,5-1.2C413.1,8,425,7.9,437,7.9
		C437.3,8.2,437.6,8.6,438,9.1z"/>
	<path class="st135" d="M509.9,20.1c-1.2,2-5.5-0.3-5.1,3.8c-0.6,0-1.2,0-1.9,0c-4.4-1.8-8.7-1.1-13,0.2c-4.3-0.2-8.6-0.9-12.9,0
		c-1.1-0.3-2.4,0.2-3-1.2c-0.7-1.5-1-3.1-2.1,0c-0.3,0.9-1.6-1.6-2-2.9c1.8-1.8,3.8-1.2,6-0.8c4.6,0.8,9.3-0.5,13.9-0.1
		c3.7,2.1,7.5,0.3,11.2-0.1C504.2,18.9,507.1,18.2,509.9,20.1z"/>
	<path class="st136" d="M489.9,19.3c-6.6,1.5-13.3,0.6-19.9,0.8c-1.7,0-3.4,0.1-5,0.1c-0.1-0.2-0.1-0.4-0.2-0.7
		c1.1-1.9,3-1.6,4.6-1.6c1.8,0,1.7-0.8,1.4-2c3.1-2.8,6.1-0.9,9.2,0.1c-0.7,1.5-2.8,0.6-4,2.4c3.7,0,6.9,0.1,10-0.1
		C487.5,18.3,488.9,17.5,489.9,19.3z"/>
	<path class="st97" d="M526.9,15.1c3.7,0,7.3,0,11,0C534.3,16,530.6,18.6,526.9,15.1z"/>
	<path class="st137" d="M386.9,22.9c0.8-1.2,1.1-2.8,3-2.9c4.7,0,9.4,0,14.1-0.1c4.9-0.6,9.8-0.2,14.7-0.3c1.1,0,1.9,0.5,2.4,1.4
		c-0.7,0.7-1.3,1.3-2,2c-10.3,1.1-20.6,0.5-30.8,0.6C387.7,23.6,387.3,23.1,386.9,22.9z"/>
	<path class="st92" d="M421,21c-5.6-2.5-11.5,0.8-17.1-1.1c4.8-2.8,9.9-0.7,14.8-0.6c10.4,0.1,20.8,0,31.1-1.1
		c2.3,0.9,4.7,0.1,7-0.2c2.8,0.4,5.7,0.2,8.3,1.7l-0.2,0.4c-2.8,1.7-6.6,0.1-8.5,0.9c-6.2,2.7-11.8-0.9-17.6-0.2
		C432.9,21.7,426.9,21.1,421,21z"/>
	<path class="st138" d="M490,24.2c2.9-3.5,10.9-3.6,13-0.2C498.7,24,494.3,24.1,490,24.2z"/>
	<path class="st139" d="M324.2,17c-2.6,3.7-5.4,4-10.1,1c0.3-3.6,2.8-4,5.7-3.8C321.8,14.3,324.3,13.6,324.2,17z"/>
	<path class="st140" d="M216.9,14.2c0.5-2.6,2.5-2.2,4.3-2.2c15.6,0,31.1,0,46.7,0c1.7,0,3.9-0.7,4.1,2.2
		c-18.2,0.4-36.5,0.6-54.7-0.1L216.9,14.2z"/>
	<path class="st73" d="M217.3,14.2c18.2,0,36.5,0.1,54.7,0.1c0.1,0.2,0.2,0.5,0.3,0.7c-16.3,0-32.5,0.1-48.8,0.2
		c-1.9,0-4-0.8-5.6,1.2C217.7,15.6,217.5,14.9,217.3,14.2z"/>
	<path class="st136" d="M456,19c-2.2,1.2-4.4,1.7-6.1-0.8c0.9-0.5,1.1-1.3,1.2-2.2c0.6,0,1.3,0.1,1.9,0.1
		C453.8,17.2,456.1,16.9,456,19z"/>
	<path class="st90" d="M456,19c-0.2-1.8-4.3,0.4-3-3c4.7-1.6,9.4-1.1,14.1-0.1c1.2,0,2.5,0,3.7,0c1,0.7,2.4,1.1,2.4,2.8
		c-2.6,1.1-5.5-0.6-8,1.1C462,20.9,459,19.2,456,19z"/>
	<path class="st141" d="M451.7,47.4c-1.4-4-1.4-6.6,1.4-8.6c0.6-0.4,1.4-0.4,1.6,0.3C455.8,42.4,453,44,451.7,47.4z"/>
	<path class="st142" d="M444.8,40c-1.6,1.7-0.6,4.5-2.8,5.9c-0.2-2.3-0.6-4.7,0.9-6.8C443.7,39.1,444.5,39.1,444.8,40z"/>
	<path class="st119" d="M371,41.1c-1.1,1.3-0.4,3.8-3,4C366.9,42.2,368.2,41,371,41.1z"/>
</g>
</svg>
