<?xml version="1.0" encoding="utf-8"?>
<!-- Generator: Adobe Illustrator 25.0.0, SVG Export Plug-In . SVG Version: 6.00 Build 0)  -->
<svg version="1.1" id="Camada_1" xmlns="http://www.w3.org/2000/svg" xmlns:xlink="http://www.w3.org/1999/xlink" x="0px" y="0px"
	 viewBox="0 0 733.1 38" style="enable-background:new 0 0 733.1 38;" xml:space="preserve">
<style type="text/css">
	.st0{fill:#FEFEFE;}
	.st1{fill:#FEFEFD;}
	.st2{fill:#FCFAF7;}
	.st3{fill:#C2B6A7;}
	.st4{fill:#D7D9D7;}
	.st5{fill:#F0F1F0;}
	.st6{fill:#8D9191;}
	.st7{fill:#FAFBFB;}
	.st8{fill:#F8F9F9;}
	.st9{fill:#E5E7E6;}
	.st10{fill:#3C3329;}
	.st11{fill:#C2A26A;}
	.st12{fill:#D9D7C8;}
	.st13{fill:#FEF7A9;}
	.st14{fill:#FEFCB2;}
	.st15{fill:#84674D;}
	.st16{fill:#927A65;}
	.st17{fill:#F3C87D;}
	.st18{fill:#C5B19E;}
	.st19{fill:#805E40;}
	.st20{fill:#D3C0AC;}
	.st21{fill:#414241;}
	.st22{fill:#FEF895;}
	.st23{fill:#876F5A;}
	.st24{fill:#C7BDAE;}
	.st25{fill:#706557;}
	.st26{fill:#DCCAB7;}
	.st27{fill:#D5C5B4;}
	.st28{fill:#0D0D0D;}
	.st29{fill:#A79A8A;}
	.st30{fill:#666865;}
	.st31{fill:#2F241C;}
	.st32{fill:#30271F;}
	.st33{fill:#161919;}
	.st34{fill:#2B2017;}
	.st35{fill:#9E7944;}
	.st36{fill:#AC8A55;}
	.st37{fill:#0F0F0E;}
	.st38{fill:#422D18;}
	.st39{fill:#FEF992;}
	.st40{fill:#FEFA99;}
	.st41{fill:#73563B;}
	.st42{fill:#5C452E;}
	.st43{fill:#3F2B18;}
	.st44{fill:#6A543F;}
	.st45{fill:#6F5B46;}
	.st46{fill:#9C8874;}
	.st47{fill:#6D5843;}
	.st48{fill:#858783;}
	.st49{fill:#AA937D;}
	.st50{fill:#A69888;}
	.st51{fill:#B6A08C;}
	.st52{fill:#BEAD9C;}
	.st53{fill:#282826;}
	.st54{fill:#B9B7AE;}
	.st55{fill:#DBD8C8;}
	.st56{fill:#494947;}
	.st57{fill:#C9BAA9;}
	.st58{fill:#432E1A;}
	.st59{fill:#554D44;}
	.st60{fill:#52493F;}
	.st61{fill:#AC9F8F;}
	.st62{fill:#433E38;}
	.st63{fill:#1E1C18;}
	.st64{fill:#17110B;}
	.st65{fill:#433A30;}
	.st66{fill:#312920;}
	.st67{fill:#4D3620;}
	.st68{fill:#5D4731;}
	.st69{fill:#5F4933;}
	.st70{fill:#6D5844;}
	.st71{fill:#887867;}
	.st72{fill:#685C4D;}
	.st73{fill:#402B17;}
	.st74{fill:#47392B;}
	.st75{fill:#0A0908;}
	.st76{fill:#606260;}
	.st77{fill:#9F988E;}
	.st78{fill:#0D0B0A;}
	.st79{fill:#716E67;}
	.st80{fill:#695F53;}
	.st81{fill:#9B8C7D;}
	.st82{fill:#B4A899;}
	.st83{fill:#18120C;}
	.st84{fill:#040404;}
	.st85{fill:#3B2714;}
	.st86{fill:#120D09;}
	.st87{fill:#352516;}
</style>
<g>
	<path class="st0" d="M651.1,37.9c-215.5,0-430.9,0-646.4,0.1c-3.7,0-5-0.8-4.6-4.6c0.3-2.8,0.1-5.6,0.1-8.4c1.3-0.7,2.7-0.3,4-0.4
		c3.6,0,7.2,0,10.8,0c3.4,0,6.7-0.3,9,3.5c1.4,2.4,5,0.7,7.4,1.9c12.5,1,24.9,0.3,37.4,0.4c23.3,0.2,46.6-0.8,69.9,0.3
		c18.1,0.9,36.2,0.6,54.4,0.7c26.3-0.2,52.6-0.8,78.9,0.1c46.3,1.5,92.5-0.2,138.8,1c57.2,1.4,114.5,0.3,171.7,1.1
		c10.4,0.2,21,0.2,31.4,1.4c4.6,0.5,9.3-1.1,13.9-0.2c6,1.5,12.1,0.4,18.2,0.8C647.9,35.7,650.5,34.8,651.1,37.9z"/>
	<path class="st1" d="M3.2,26c-1-0.3-2-0.7-3-1c0-7.5,0.1-14.9-0.1-22.4c0-2.1,0.4-2.9,2.6-2.5c0.6,0.1,1.3,0,2,0
		c202.5,0,404.9,0,607.4,0c-1.4,3.5-4.7,3.2-7.5,3.3c-5.8,0.3-11.6,0.1-17.4,0.1c-2,0-4,0-5.9,0.7c-1.6,0.4-3.2,0.3-4.8,0.4
		c-12.5,0.3-24.9,0-37.4,0c-40.7-0.1-81.4,0-122.2,0c-2.3,0-4.7-0.2-6.9,0.5c-1.5,0.4-3.1,0.5-4.6,0.5c-4.4-0.2-8.9-0.4-13.3,0
		c-44.6,0.2-89.3-0.2-133.9,0c-2.7,0-5.3-0.2-7.9,0.7c-9,1.1-18.1-0.1-27.1,0.3c-44.4,0.3-88.8-0.2-133.1,0.1
		C79.2,6.8,68.2,7.4,57.3,7.9C56.7,8,56.1,8,55.5,8c-7.6-0.5-15.3-1.2-22.9,0.4c-1.3,1.4-1,3.1-1,4.7c0,1,0,2,0,3
		c-0.1,1.5,0,3.1-0.6,4.6c-1.9,2.5-4.7,2.7-7.6,2.6c-3-2.6-0.1-6.8-2.6-9.4c-5.7,0-11.6-1.9-17,1.3c-1.1,3.1,1,6,0.3,9.1
		C4.1,24.9,3.8,25.5,3.2,26z"/>
	<path class="st2" d="M581.1,3c7.1-1.8,14.4-0.4,21.6-0.8c3.3-0.2,6.5-0.3,9.4-2c31,0,62,0,93,0c3.7,1.6,7.3,1.6,11,0c1,0,2,0,3,0
		c1.1,1.4,1.2,2.8,0,4.2c-0.6,0.3-1.2,0.4-1.9,0.3c-34.7-0.4-69.4,0-104.1-0.1c-9.4,0.5-18.7,0-28.1-0.1
		C583.6,4.5,582.1,4.3,581.1,3z"/>
	<path class="st3" d="M719,4c0-1.3,0-2.6,0.1-3.9c1.3,0,2.7,0,4,0c0.6,0.8,2.6,0.2,2.1,2.1C724,3.5,721,3,721.5,6
		c0,2.2,0.1,4.5-0.1,6.7c-0.1,0.7-0.3,1.5-0.7,2.1c-0.1,0.1-0.2,0.3-0.3,0.3c-6-0.8-12.2,0.3-18.2-0.9c-2.8-0.6-4.1-3.3-6.4-4.5
		c-1-1.3-3-2.4-0.8-4.2c0.7-0.3,1.4-0.4,2.2-0.4c5,2,10,4.2,15.6,1.7c1.6-0.7,3.3-0.2,4.6,1.8C718.2,7,717.8,5.1,719,4z"/>
	<path class="st4" d="M722.1,37.9c-12.3,0-24.7,0-37,0c-9.1-1.2-18.2-0.1-27.3-0.6c-1.2-0.1-3.6,1.5-3.6-1.6
		c1.5-1.3,3.4-1.3,5.2-1.3c19.9,0,39.8-0.2,59.8,0.1c1.8,0.1,3.7-0.1,5.4,0.8C726.5,38.7,722.5,36.6,722.1,37.9z"/>
	<path class="st5" d="M654.1,36c5.3,1.9,10.7,0.3,16,0.9c5,0.5,10.1-1.2,15,1c-11.3,0-22.7,0-34,0c-5.4-2.1-11-0.4-16.4-1
		c-2.2-0.2-4.6,0.8-6.6-0.9c1.1-1.2,2.6-1.5,4.1-1.5c6-0.2,11.9-0.2,17.9,0C651.6,34.5,653.1,34.7,654.1,36z"/>
	<path class="st6" d="M733.1,7.1c0,8,0,15.9,0,23.9c-0.8,1-1.5,2-2.7,0.4c-0.2-0.6-0.2,0.2-0.2-0.4c-0.1-8.1-0.4-16.2,0.2-24.3
		C731.6,5.1,732.3,6.1,733.1,7.1z"/>
	<path class="st7" d="M731.2,32c0.6-0.4,1.3-0.7,1.9-1.1c0,7,0,7-7,7c-1.3,0-2.7,0-4,0c1-0.6,2-1.3,3-1.9
		C726.4,33.5,728.9,32.9,731.2,32z"/>
	<path class="st8" d="M733.1,7.1c-0.6-0.4-1.3-0.7-1.9-1.1c-2.3-0.9-4.8-1.5-6.1-4c-0.7-0.6-1.3-1.3-2-1.9c1,0,2,0,3,0
		C733.1,0.1,733.1,0.1,733.1,7.1z"/>
	<path class="st9" d="M716.1,0.1c-2.7,2.9-8.3,2.9-11,0C708.8,0.1,712.4,0.1,716.1,0.1z"/>
	<path class="st10" d="M654.1,36c-8.7,0-17.3,0-26-0.1c-3.7-0.3-7.2,0-10.9,0.6c-4.7,0.8-9.4-1-14.2-1
		c-64.2-0.3-128.5-0.9-192.7-1.4c-72.4-0.5-144.8-0.9-217.2-1.4c-7.6-0.8-15.2-0.1-22.7-0.4c-1.5-0.1-3.4,0.9-4.5-1
		c3.4-4.4,8.3-4.3,13.1-4.5c9.3-0.2,18.6,0,27.8,0.2c11.3,0.3,22.6-0.3,33.9,0.1c11.3,0.5,22.7-0.1,34,0.5c26.6,1.2,53.3,0.1,79.9,1
		c24.3,0.8,48.5-1.3,72.8-0.2c13.9,0.6,27.9,0,41.8,0.2c15.2,0.2,30.5,0.5,45.8-0.3c4-0.2,7.4,1.4,11.3,1.7c13.5,1,27,0.3,40.5,0.5
		c13.3,0.2,26.7,0.1,40,0c2.6,0,5.2-0.3,7.8-0.8c6.8-1.1,13.6,0.5,20.4,0.5c26.8,0.2,53.6,0,80.4,0.3c1.7,0,3.3,0.1,4.8,1.1
		c1.2,1.5,1,2.9-0.1,4.3c-18.9-0.1-37.7-0.1-56.6-0.1C660.4,35.8,657.2,35.9,654.1,36z"/>
	<path class="st11" d="M166,31.1c6.9,1.5,14,0.7,21,1.1c2.1,0.1,4.3-0.4,6.3,0.6c-16.6,0.3-33.3-0.1-49.9-0.5
		c-16.8-0.4-33.6-0.3-50.5-0.3c-19.2-0.1-38.3-0.1-57.5-0.2c-1.8,0-3.7,0.6-5.3-0.9c-0.4-0.6-0.6-1.3-0.3-2.1
		c0.2-0.4,0.5-0.8,0.9-1.1c4.4-1.3,8.9-0.3,13.3-0.5c9.4-0.4,18.8,0.5,28.3-0.4c3.3-0.3,6.8,0.6,10.3,0.7c3.8,0.2,7.6,0,11.1-1.2
		c3.8-1.2,7,1.7,10.7,1.1c6.8-1.5,13.9,1,20.7-1.1c3.1,0,6.2-0.2,9.3,0.4c8.5,1.6,17.1,1.7,25.6,2.5C162.1,29.7,164.3,29.2,166,31.1
		z"/>
	<path class="st12" d="M30,28.9c0.1,0.7,0.1,1.4,0.2,2c-1.6-1.1-3.2,0.2-4.8,0c-1.1-0.2-2.8,0.2-2.8-1.3c-0.1-4.6-3.3-3.5-5.9-3.6
		c-4.5-0.1-8.9-0.1-13.4-0.1c0-0.6,0-1.3,0-1.9c4.1-1.3,8.4-0.1,12.6-0.5c1.7-0.2,3.7,0.6,4.8-1.4c0.7-2.8-0.1-5.8,0.6-8.6
		c0.2-0.5,0.5-1,0.8-1.4c2.4,1.4,0.9,3.8,1.2,5.6c0.3,1.7-0.5,3.5,0.9,5C25.5,25.5,29.2,25.9,30,28.9z"/>
	<path class="st13" d="M30.5,7.1c3.1-2.1,6.7-1,9.9-0.9c5,0.1,10.1-1.1,15,0.8c-2.4,2.2-5.3,1-8,1.3c-1.7,0.2-3.5-0.4-6.1,0.8
		C47.2,10.8,52.2,13,57.2,9C58,8.4,59,7.4,59.8,7.7c4,2.1,8.1-0.3,12.1,0.5c4-0.5,8.1,1.6,11.9,0c2.4-1,3.3,3.7,5.6,0.7
		c1.9-2.5,4.6-0.1,6.9-0.4c7-1.1,14,0.5,21-0.5c2.2-0.3,4,1.3,5.2,3.3c1.2,2.2,2.7,2,4.2,0.4c1.1-1.2,1.3-3,2.9-3.8
		c1.1,0.1,1.6,1,2,1.8c0.5,1.7,1.9,1.9,3.4,2.2c3,0.7,5.8,1.9,7.6,4.7c-1.7,2.7-4.9,1.2-7.2,2.5c-3.3,1.1-6.7,1.6-10.2,1.1
		c-1.5-0.2-2.8-1-4-1.9c-1.5-1-3-1.8-3.7,0.9c-0.4,1.6-1.7,1.4-2.8,0.8c-4-2.1-8.5-2.1-12.6-1.6c-5.8,0.7-11.5-0.4-17.2-0.1
		c-11.5,0.7-23-0.8-34.5-0.2c-5.2,0.3-10.6-0.2-15.9,0c-1.7,0.1-3.3-0.4-4.2-2.1c0-1,0-2.1,0.1-3.1c0.2-0.3,0.4-0.5,0.5-0.8
		c0.9-1.7,4.2-0.2,4.1-2.6C34.9,6.9,31.4,9,30.5,7.1z"/>
	<path class="st14" d="M129.2,8.1c-0.3,1.1-0.5,2.2-1,3.2c-1.9,3.9-4.1,4.1-7,0.7c1.6-1.8,1.9-3.1-1.1-3.7c-4.9-1-9.9-0.1-14.8-0.2
		C93.8,7.9,82.2,8.1,70.7,8C65.8,8.2,60.8,8.5,56,6.9c1.2-1.3,2.8-0.8,4.2-0.9c45.2-1.5,90.4-0.8,135.7-1c9.2,0,18.3,0.1,27.5,0.1
		c0.1,0.6-0.1,1.1-0.7,1.5c-8.3,1.6-16.8,1.8-25.1,2.8c-3.8,0.4-7.6,0.7-11.3,1.6c-13,1.5-25.9,4-38.9,5.9c-1.8,0.3-3.5,0.5-5-0.9
		c-3.8-2.4-9.4-1.5-12.2-6c3.1,0.2,5.3-4.4,7.4-2.6C135.9,6.9,132.5,8.7,129.2,8.1z"/>
	<path class="st15" d="M249.9,5c6.6-1.4,13.2-0.6,19.8-0.6C309.3,4.2,349,4.1,388.6,4c1.5,0,3,0.1,4.5,0.2c1.9,1.1,3.9,0,5.8,0.4
		c1.1,0.3,2.6-0.6,3.1,0.8c0.5,1.6-0.9,2.2-2.1,2.8c-0.6,0.3-1.2,0.5-1.8,0.7c-2.2,0.6-5-1.1-6.1-0.3c-4.6,3.2-8.5,0.7-12.7-0.3
		c-1.5-0.4-3.3-0.1-5.3,0.8c2.7,1.7,3.1,3.6,0.2,5.3c-2.8,0.3-5.6,0-8.5,0c-2.6,0.1-4.8,0.6-6.6,2.5c-4.2,0.8-8.4,0.7-12.6,0.1
		c-5.1-3.5-11-2.8-16.7-2.8c-2.4,0-4.8,0.8-7.3,0.5c-2.8-0.6-5.6,0.1-8.4-0.1c-2.2-0.2-4.2-0.5-4.3-3c-0.1-2.9,2.5-2.8,4.4-2.8
		c4.8-0.1,9.6-0.4,14.4,0c2.7,0.3,5.5,0.4,7.9-0.7c4.5-2,9.4,0.1,13.2-1.9c-4.1,0-9,0.4-13.8,0.3c-18.9-0.2-37.8-0.2-56.8-0.2
		c-2.1,0-4.4-0.5-5.7,1.9c-0.4,0.3-0.9,0.5-1.4,0.6c-5.3-3.4-11.3-2.3-17-2.5C253.1,6.4,251.2,6.6,249.9,5z"/>
	<path class="st16" d="M397.2,8.1c1.4-0.6,2.9-1.3,4.7-2.1c-3-1.9-6.3,0.4-8.7-1.8c4-0.8,8-0.5,12-0.1c0.4,2.1,1.4,3,3.7,2.8
		c4.2-0.3,8.4-0.5,12.8-1.2c-2.1,0.1-4,1-5.6,0c-1.9-1.1-1.6-2,0.7-2c16.8,0,33.5,0,50.2,0c1,0.2,3-0.2,1.9,1.6s-2.3,5-5.5,3.4
		c-2.6-1.2-5.1-1.4-7.7-0.8c-1,0.2-1.9,0.6-2.7,1.3c-2.1,1.4-4.2-2-6.2,0.5c2.4-0.7,5,0.4,7.4-1c2.1-0.2,4.3,0,6.4,0.2
		c1.5,0.1,3.2,0.2,3.7,1.8c0.6,2-1.2,2.7-2.6,3.6c-0.6,0.3-1.2,0.6-1.8,0.8c-14.1,0.6-28.2,0.5-42.3,0.3c-5.6-0.1-11.3,0.7-16.8-0.5
		c-0.4-3.3-0.4-3.3,4.8-3.8C402.7,10.3,399,12,397.2,8.1z"/>
	<path class="st17" d="M30.3,16.1c4.6,2.6,9.4-0.1,14.1,0.6c8.1,1.1,16.3-0.8,24.5,0.6c2.9,0.5,6.5-3.8,8.7,1.3
		c5.1-4.9,11.2-0.2,16.8-1.4c3-0.6,6.6-0.2,10-1.2c0.6-0.2,1.6,0.9,2.4,1.3c0.8,0.4,1.7,1.9,2.5,1c3.1-3.4,4.7-0.5,6.3,1.7
		c1.9-1.1-1.5-2.7,0.9-3.6c3.6-1.3,5.6,1.4,8.2,2.8c-4.8,4.3-10.8,3.7-16.6,3.8c-3.2-0.9-6.6-0.4-9.8-0.3c-21.5,0.8-43,0.2-64.6,0.4
		c-1.2,0-2.3-0.1-3.3-0.8c-0.4-0.4-0.5-0.9-0.2-1.4C30.1,19.3,30.2,17.7,30.3,16.1z"/>
	<path class="st18" d="M469,4.3c-17.9,0-35.9,0-53.8,0c-2.2,1.4-4.3,1.6-6.2-0.4c0.8-0.7,1.8-0.6,2.8-0.6c55.1,0,110.2,0,165.3,0
		c4,2.7,8.4,0.5,12.6,0.9c2.5,0.2,5,0.3,3.6,4c-1.9,1.7-4.3,1.4-6.6,1.5c-6.8,0.1-13.6-0.1-20.4,0c-2.6,0.2-5.3-0.8-7.6,1
		c-0.2,0.2-0.7,0.4-0.9,0.2c-5.7-2.6-12-0.9-17.7-2.7c-0.4-0.7,0.4-2-1.3-2.1c-9.9-0.7-19.8-0.8-29.7-0.5c-7,0.2-14,0.2-21,0
		c-4.5,0-8.9-0.1-13.4,0.1C472.7,5.7,470.7,5.8,469,4.3z"/>
	<path class="st19" d="M249.9,5c3.3,0.1,6.6,0.1,9.9,0.2c4.3,0.1,9-1.1,12.4,3c1,3.2-1.5,4.9-3.4,4.4c-3.2-0.7-5.8,0.7-8.6,0.8
		c-3.6,0.1-7.2,1.4-10.6-1c-0.7-0.5-1.8-0.7-2.4-0.2c-3.8,3.1-7.7,0.9-11.4-0.1c-3.9-1.1-7.7-1.8-11.7-1.7c-1.4,0-3.3-0.3-3.1-2.3
		c0.2-1.9,2.1-1.2,3.3-1.3c2.9-0.1,5.8,0,8.7-0.1c-3.3-0.2-6.7,0.7-10-0.6c0.2-0.2,0.4-0.5,0.5-0.8C232.3,5.1,241.1,5,249.9,5z"/>
	<path class="st20" d="M593.1,7.3c-1.9-4.2-5.2-1.6-8-1.7c-2.9-0.1-6.5,2.2-8.1-2.3c1.3-0.1,2.7-0.2,4-0.3c10.7,0.1,21.3,0.2,32,0.3
		c0.8,0.7,1.7,0.5,2.7,0.5c2.1,0.1,2.3,1.2,1.2,2.8c-2.1,0.9-4.2,1.5-6.1,2.7C604.9,9.3,598.7,11.1,593.1,7.3z"/>
	<path class="st21" d="M22.2,23c0.2,0.8,0.5,2-0.6,2c-6.1-0.1-12.4,1.3-18.4-0.8c0.3-3.1-2.2-5.9-0.9-9c0.3-0.3,0.7-0.5,1.2-0.4
		c2.5,0.8,5-0.1,7.4,0c2.2,0.1,4.5-0.4,6.4,1.1c2.4,3.3,0.4,4.6-2.5,5.5c2.2-0.7,4.2,0,6.2,0.7C21.5,22.4,21.9,22.7,22.2,23z"/>
	<path class="st22" d="M56.1,7c5.1,0.1,10.1,0.1,15.2,0.2c0.6,0.5,1.6,0.9,1,2c-3.3-0.3-7,0.1-9.6,1c-2.7,1-1.9-3.3-3.7-1.3
		c-1.1,1.2-2.3,3.2-3.6,3.3c-4.5,0.4-9.1,0.7-13.4-1.4c-1.2-0.6-2.2-1.7-3.8-3.1C44.3,6.5,49.9,7.5,55.4,7C55.6,7,55.9,7,56.1,7z"/>
	<path class="st23" d="M409,3.9c2.1,0.1,4.1,0.3,6.2,0.4c2.8,1.7,6,0.2,9.6,1.2c-6.3,1.8-12,2.4-17.8,2.6c-4.7,0.1-3.5-1.7-1.8-4.1
		C406.5,4,407.7,3.9,409,3.9z"/>
	<path class="st24" d="M30,20.9c0.1,0.3,0.1,0.7,0.2,1c1.9,2.3,1.4,4.6,0.2,7H30c-1.6-2.3-6.9-1.1-5.8-6
		C25.8,21.2,28.4,22.3,30,20.9z"/>
	<path class="st22" d="M30.5,7.1c1.7,1.3,6-3,5.9,2.6c0,2-0.4,3-2.7,2.4c-1-0.2-2.1,0.5-3.2,0.8C30.4,11,30.4,9.1,30.5,7.1z"/>
	<path class="st25" d="M3,15l-0.3,0.1H2.4c1-2.4,2.9-2.8,5.2-2.7c4.8,0.1,9.6-0.1,14.4-0.1c0.1,0.3,0.1,0.6,0.1,0.9
		c-0.6,0.5-1.3,0.9-2,1c-1.8,0.2-3.6,0.3-5.3,0.8c-1.8,0.1-3.7,0.1-5.5,0.1C7.2,14.6,5.1,15.9,3,15z"/>
	<path class="st26" d="M617.1,6.1c-0.1-1.4-0.7-2-2.2-1.4c-1.3,0.5-1.6-0.4-1.8-1.4c34.1,0,68.2-0.1,102.3-0.1c1,0,2,0,2.7,0.9
		c-1.1,2-3,2.9-5,2.3c-4.9-1.5-9.9,0.6-14.7-1.1c-0.4-0.1-0.9,0.4-1.2,0.7c-0.7,0-1.3,0-2,0c-1.8-1.5-3.1,0.2-4.5,0.8
		c-3.6,1.2-7.2,1.3-10.7-0.2c-1.8-0.8-3.6-0.7-5.4-0.6c-2.4-0.7-4.6-0.4-6.8,0.8c-11.1-2.6-22.1,1.2-33.1,0.6
		C628.7,7.1,622.8,8.6,617.1,6.1z"/>
	<path class="st27" d="M697.1,6.1c0.1-0.8,0.6-2,1.3-1.8c4.7,1.7,9.8-1.5,14.3,1c2.5,1.4,3.4-1.6,5.4-1.2c0.3,0,0.7,0,1-0.1
		c0,1.1,0.1,2.3,0,3.4c-0.1,1.1,0.6,2.6-0.8,3c-1.3,0.4-1.9-0.5-2.6-2c-1.2-2.5-4.5-0.8-5.4-0.1c-4.2,3.2-7.1-0.7-10.5-1.2
		C698.8,7.1,698,6.5,697.1,6.1z"/>
	<path class="st28" d="M720.1,36c0-1.3,0-2.7,0-4c-1.6-1.9-1.4-4.3-1.3-6.5c0-1.1-0.1-2.2,0-3.3c0-1.9-0.1-3.8,0.4-5.7
		c0.2-0.5,0.5-1,0.8-1.4c0.1-0.6,0.2-1.3,0.3-1.9c1-2.4,2.8-4.2,4.5-5.9c-1.3-1.8-3.5-0.6-4.5-2.1c-0.9-5.1,3.2-2.1,4.9-3
		c2.4,0.8,4.7,1.7,6.1,4c0.5,8.7,0.8,17.3,0,26c-1.4,2.3-3.8,3.1-6.1,4C723.4,36,721.8,36,720.1,36z"/>
	<path class="st29" d="M719.9,15c0.1,0.3,0.2,0.5,0.1,0.8c-1.2,1.4-2.8,1.7-4.5,1.6c-13.6-0.1-27.2,0.1-40.8,0c-1,0-2-0.2-2.9-0.7
		c-2.1-3.6,1.5-3.4,3.1-4.5c2.7-0.8,5.3-0.4,7.8,0.4c1.2,0.3,2.5,0.6,3.6,1.3c0.1,0,0.6,0.9,0.5-0.1c0-0.3-0.3-0.6-0.3-0.9
		c0.1-2.5,1.4-2.6,3.4-1.9c2.2,0.8,4.3,1,5.1-1.9c0.3-0.3,0.7-0.4,1.1-0.1c3.7,3.1,7.9,4.6,12.6,5.3c0.4,0.1,0.8,0.4,1.2,0.1
		C713.4,11.1,716.6,13.9,719.9,15z"/>
	<path class="st30" d="M720.2,5c1.1-0.2,2.3-0.5,3.4-0.6c1.5-0.1,2.4,1.3,3,2.2c0.8,1.3-0.8,1.5-1.8,2.1c-1.8,1.1-3.1,2.8-4.7,4.3
		C720.2,10.4,720.2,7.7,720.2,5z"/>
	<path class="st27" d="M696,9c-0.3,0-0.6,0.1-0.9,0.1c-1.2,1.6-2.7,3.4-4.7,2.1c-2.3-1.6,1-3.3,0.6-5.1c0.1-1.4,0.9-2,2.3-1.9
		c1.2,0.1,1.6,0.9,1.8,1.9C693.9,7.5,696.1,7.9,696,9z"/>
	<path class="st31" d="M166,31.1c-10.7-0.3-21.5-0.8-32.1-3c4.8-3.7,10.6-4.3,16.1-3.9c8.8,0.6,17.5-1,26.3-0.4
		c9.8,0.6,19.8-0.1,29.6,0.4c8.6,0.4,17.2-0.6,24.1-0.2c-2.1,0.3-5.5,0-7-4.2c0.9-2.2,2.8-1.9,4.5-1.5c1.9,0.4,3.9,0.2,5.8,0.5
		c7.9,1.7,15.9,1.2,23.8,1.5c16.3,0.7,32.6,0.4,48.9,0.5c12.5,0.1,24.9,0.3,37.4,0.2c8.4-0.1,16.9,0.4,25.4,0.1
		c16.9-0.7,33.8,0.7,50.8,0.1c5.6-0.2,11.3-0.4,16.9,0.3c7.8,1,15.6-1.3,23.4-0.5c6.1,0.6,12.3,0.6,18.4,1.1
		c8.4-1,16.8,0.2,25.2-0.4c0.5,0,1.1,0,1.6,0.1c8.2,0.2,16.4,0.6,24.6-0.2c0.7-0.2,1.4-0.3,2.1-0.1c1.4,1.1,3.4,0.8,4.8,1.8
		c0.5,0.6,0.7,1.7,1.5,1.8c6.4,0.6,12.9,2.4,19-1.4c3.3-1.6,6.5-2,9,1.4c0.6,3.7,3.1,4.5,6.5,4.5c9.6-0.1,19.2-0.1,28.8,0.1
		c2.1,0,4.8-0.8,5.7,2.4c-25.1,0-50.3,0.2-75.4-0.1c-4,0-8.4,1-12.2-2.1c-0.9-0.7-3.1,0.3-4.8,0.2c-12.3-0.7-24.9-1.1-37-0.2
		c-9.7,0.7-19.1-1.1-28.8-0.2c-10.4,1-21.1,0.6-31.7,0.2c-11.5-0.5-23,0.5-34.5,0.5c-20.8-0.1-41.6-0.6-62.5-0.5
		c-5.6,0-11.1,0.1-16.7,0c-20.8-0.3-41.6-0.9-62.5-1.2c-7.4-0.1-14.8,0.8-22.2,0.3c-10.2-0.6-20.3,0-30.5-0.4
		C181.1,28.2,173.1,27.3,166,31.1z"/>
	<path class="st32" d="M720,24.9c0,2.4,0,4.7,0.1,7.1c-35.3-0.4-70.7,0.8-106-1.1c-1.7-1.9-1.3-3.9-0.5-6c0.5-0.8,1.2-1.4,2.1-1.8
		c10.7-0.8,21.5-0.9,32.2,0.1c7,0.6,14.1,0,21.2,0.2c14.8,0.4,29.5,0.1,44.3,0.1C715.6,23.5,718,23.2,720,24.9z"/>
	<path class="st33" d="M614.2,24.9c0,2,0,4-0.1,6c-2.2,1.4-4.6,0.9-6.9,1c-1.5-1.6-3.4-0.9-5.2-0.9c-10-0.1-19.9,0-29.9,0
		c-6.9,0-6.9,0-6.9-7c6.7-2.9,13.6-1.7,20.5-1c4.4,1.7,9.1,1.4,13.6,2.5c2.5,0.6,3.6-2,5.7-2.5C608.1,23.1,611.8,20.9,614.2,24.9z"
		/>
	<path class="st34" d="M223.2,20c3.3,5.2,9.6,0.3,14.7,4.4c-5.6,0.9-10.3,1.5-14.5,1.3c-9.8-0.5-19.6-0.3-29.3-0.3
		c-11.7,0-23.5-1.8-35.3,0.5c-4.5,0.9-9.1-0.6-13.7-0.2c-3.9,0.4-7.2,2.7-11.1,2.4c-3.2,0-6.5-0.1-9.7-0.1c-5,0.5-9.8-1.8-14.8-0.8
		c-1.8,0.4-3.6-0.1-5.4-0.7c-0.6-0.2,0.2,0.1-0.5-0.1c-1.7-0.5-4.3-1-4.1-2.8c0.3-2.4,2.9-1,4.4-1.2c1.1-0.1,2.2-0.6,3.4-0.4
		c5.8-0.5,11.6-1.3,17.3-3c3.5-0.4,7-0.8,10.5-1.2c0.9-0.5,1.9-0.4,2.8-0.4c2,2.6,5.3,2.4,7.9,2.7c7.3,0.8,14.8-1,22.1,1
		c2.1,0.6,2.7-2.3,4.5-2.7c0.5-0.1,1-0.1,1.5,0.1c5,2.6,10,3.7,15.7,2.3c3.2-0.8,6.5-0.2,9.8,0.3c3,0.5,6.3,1.2,8.7-1.7
		c1.9-1.9,3.7-1,5.4,0.3c2.9,2.1,5.8,1.9,8.6-0.1C222.4,19.6,222.8,19.7,223.2,20z"/>
	<path class="st35" d="M107.3,22.1c-2.1,1.5-4.7,0.7-7.1,1.3c1.1,1.7,2.7,1.3,4.1,1.7c0.9,1.3,1.1,2.6-0.1,3.8
		c-7.3-2.7-14.7,0.5-22.1,0c-7.5-0.5-15.1-0.3-22.6-0.3c-9.7,0-19.4,0.2-29.1,0.2c-0.1-2.3-0.1-4.6-0.2-7
		c14.6-1.2,29.3-0.1,43.9-0.4c9.5-0.2,19.2-1.6,28.6,0.4C104.4,22.2,106,19,107.3,22.1z"/>
	<path class="st36" d="M104.2,28.9c0-1.3,0-2.5,0.1-3.8c4.8,1.5,10,0.6,14.9,1.7c1.7,0.4,3.6-0.3,5.1,1.1
		C117.6,29.8,110.8,27.7,104.2,28.9z"/>
	<path class="st37" d="M20.7,13.4c0.5-0.1,1-0.2,1.5-0.2c0,3.3,0.1,6.6,0.1,9.9h-0.5h-0.5c-2.2-1.3-1.1-3.5-1.6-5.3
		c-0.1-0.8,0.1-1.6,0.3-2.4C20.1,14.6,19.8,13.8,20.7,13.4z"/>
	<path class="st38" d="M223.2,20c-0.3,0-0.7,0-1,0c-2.8,1.7-5.9,1.1-9,1c-1.4-0.1-2.1-3.1-4-1c-1.5,1.1-3.1,0.9-4.8,0.9
		c-6,0.1-12-0.5-17.9,0.8c-4.9,1-9.1-0.7-13.3-2.6c-0.3,0-0.7,0-1,0c-3.2,3.8-7.5,1.5-11.2,1.5c-6.9,0.1-14,1.3-20.9-1.1
		c-0.8-0.3-1.5-0.7-2-1.4c-1.1-0.1-2.1-0.1-3.2-0.2c2.5-0.6,5-1.2,7.4-1.8c1.5-0.1,3-0.2,4.4-0.3c13.6-0.9,27.2-0.3,40.7-0.3
		c18.3,0.1,36.5-0.4,54.8,0.3c1.7,0.4,3.5,0.7,4.9,1.9c0,2.9-2.3,2.1-3.9,2.2c-3.4,0.1-6.7-0.4-10.1,0.1
		C229.9,21.2,226.6,17.7,223.2,20z"/>
	<path class="st39" d="M72.2,9.1c-0.3-0.7-0.7-1.3-1-2c18,0,35.9,0,54.4,0c-1.1,2.3-1.5,4.7-4.5,4.9c-0.9-2.4-2.4-3.3-5.2-2.8
		c-5.7,0.9-11.5,0.4-17.2-0.2c-1.1-0.1-1.8-0.3-2.4,0.7c-1.1,1.5-1.6,2-2.9-0.3c-1-1.7-3.2-0.6-4.2,1.1c-0.6,1-0.8,2.4-2.3,2.1
		c-2.2-0.4,0-2-0.3-2.4c-1.1-1.6-3.1-0.3-4.8-1c-2.6-1.1-2.3,1.9-3.8,3.8C78.1,7.9,74.8,9.2,72.2,9.1z"/>
	<path class="st40" d="M129.2,8.1c2.6-2.4,6-0.2,8.9-1.6c0.8-0.4,2.6,0.1,3.3,1.4c0.1,0.3-0.2,1-0.5,1.3c-1.2,1.2-3.1,1.5-3.9,0.3
		c-1.1-1.8-2.2-1.2-2.5-0.2c-1,3.5-2.9,0.9-4.4,0.8C130.2,9.3,130.1,8.5,129.2,8.1z"/>
	<path class="st41" d="M222.9,5.9c3.8,0,7.5,0,11.3,0c0,0.5,0,0.9,0,1.4c-4.1,0-8.2,0-12.4,0c0,0.5-0.1,1-0.1,1.5
		c5.7-0.3,11.1,0.8,16.5,2.2c2.8,0.8,6,3.5,8.4-0.9c0.2-0.3,2-0.3,2.3,0.1c3.2,3.6,7.3,1.7,11,1.8c2.9,0.1,5.6-3.3,8.9-0.3
		c0.5,0.5,2.9-1.7,3.3-3.7c0.3,0,0.6,0,1,0c1.7-1.5,3.7-1.4,5.6-0.5c1.2,0.6,1.7,1.2,3.4,0.2c2.1-1.2,3,1.1,3.3,3
		c0.2,1.6-0.9,2.7-1.8,3.9c-0.9,1-1.9,1.9-3.3,2.3c-12.1-0.6-24.2-0.5-36.2-0.8c-11.2-0.5-22.5,0.1-33.7-0.4
		c-8.2-0.3-16.4-0.7-24.4-2.2c-1.2-0.2-3.1,0.1-3-1.7c0.1-2,2-1.2,3.2-1.3c1-0.1,2,0,2.9-0.1c-1.1,0-2.2,0.4-3.1-0.6
		C198.2,7.4,210.5,6.5,222.9,5.9z"/>
	<path class="st42" d="M186,9.9c1.1,0.2,2.2,0.3,3.6,0.5c-1.9,1.4-4.3-0.3-6,1.6c20,2.6,39.8,3.2,59.8,3.1c0.6,0.7,0.5,1.3,0,1.9
		c-25.7,0-51.5,0.1-77.2-0.1c-6.4-0.1-12.8,0.8-19.1-1.1C159.8,13.4,172.8,11,186,9.9z"/>
	<path class="st43" d="M233.2,20c2.8-1.3,5.8-1.8,8.9-1.2c1.7,0.3,3.6,0.8,5.1-0.8c0.8-1,1.9-1.4,3.1-1.4c8.3,0.2,16.6-0.5,24.9,0.1
		c3.3,0.2,6.5,0.1,9.7-0.9c2-0.5,4-1.1,6.2-1.1c0.8-0.1,1.6,0,2.4,0c3.6,0,7.2,1.5,10.8,0.1c6.3,0.6,12.6-0.1,18.8,0.2
		c7.4,0,14.8-0.5,22.2,1c5,0,9.9,0,14.9,0c3.1-2.1,6.7-1.2,10.1-1.3c2.8,0,5.6,0.1,8.4-0.1c6.9-0.8,13.7,0.3,20.6,0.2
		c3,0.5,6,0.2,8.9,0.2c3.9,0.2,7.7-0.1,11.6,0.1c0.9,0,1.8,0,2.6,0c4,0,8.1,0,12.1,0c10-0.1,19.9,0.3,29.9-0.3
		c12.4-0.3,24.8-0.3,37.1-0.2c0.9,0,1.8,0,2.7,0c8,0,16,0.2,24.1-0.3c5.1,4.4,5.1,5.1-0.1,8.4c-7.7-0.2-15.4-0.5-23.1,0.2
		c-0.3,0-0.7,0-1,0c-8-0.9-16.1-0.4-24.1-0.4c-0.9,0-1.5,0.7-1.9,1.4c-5.8-1.8-11.8-0.8-17.6-1.6c-9-1.2-17.9,1.4-27.1,0.2
		c-7.1-1-14.6-0.5-21.8,0.1c-7.6,0.6-15.1-0.8-22.6-0.5c-8.8,0.3-17.7,1-26.5,0.7c-4.7-0.2-9.4,0.5-14.2-0.4
		c-4.5-0.9-9.4,0.1-14.1,0.1c-10.6-0.1-21.1-0.4-31.7-0.5c-11-0.1-21.9,0.1-32.9-0.1c-10.5-0.2-21.1-0.6-31.6-1
		C236.4,20.9,234.8,20.3,233.2,20z"/>
	<path class="st19" d="M293.2,16c-0.7,0-1.3,0-2,0c-2.5-1.4-5.8,0.4-8-1.9c-0.1-1.6,2.3-2.6,1-4.4c-0.4-0.5-0.8-1.3-1.2-1.3
		c-1.5-0.2-0.7,0.7-0.7,1.5c0.1,2.4-1.7,1.1-2,0.6c-1.7-2.9-4.5-2.2-7.1-2.3c-0.7-2.4,0.1-3.1,2.6-3c17.9,0.5,35.9-0.4,53.8,0.5
		c7,0.4,14.1-0.3,21.1-0.1c3.1,0.1,2.3,1.8,3.1,4.1c-3.6-1.9-6.5-3.5-8.9,0c-0.2,0.2-0.7,0.4-0.9,0.3c-5-3.5-9.5,2.1-14.2,0.9
		c-5.3-1.3-10.4-0.3-15.6-0.6c-1.2-0.1-3.5-0.9-3.5,1.3c0,2.3,2.6,1,3.1,1.3c3.1,1.9,6.6-1.1,9.4,1.2c0.6,0.7,0.6,1.3,0,2
		c-6.3,0.2-12.6,0.8-18.9,0.1C300.5,16.1,296.9,13.3,293.2,16z"/>
	<path class="st23" d="M399.1,16c-6.6,0-13.2,0-19.9,0c-1.3-1.5-3.8-0.2-5-1.9c-0.8-0.8,3.3-3.1-0.9-3c-1,0-2.1-0.3-1.6-1.7
		c0.3-0.9,0.8-2.3,1.8-2c3.7,1.2,8.8-3.7,11.5,2.4c0.1,0.3,1.7,0.4,1.8,0.2c2.6-5.7,6.9-1.5,10.4-1.8c2.8,1.5,6,1.5,9.2,2.3
		c-1.5,2.5-5.2,0.8-6.2,3.6c-2.2,0.7-4.4,0.6-6.3,0.4C395.1,15.8,398.1,12.7,399.1,16z"/>
	<path class="st44" d="M323.2,15.9c0-0.7,0-1.3,0-2c6.7-2,13.4-0.6,20.1-0.2c1,0.1,3,0,1.9,2.2C337.9,17.1,330.5,16.1,323.2,15.9z"
		/>
	<path class="st45" d="M374.2,14c1.7,0.5,4.3-1.1,5,1.9c-6.4,0-12.7,0-19.1,0c-0.8-1.5-0.3-3,1.4-2.8
		C365.7,13.8,370.1,11.9,374.2,14z"/>
	<path class="st46" d="M502.2,16c-13,0-26,0.1-39,0.1c-2.3-2.3,0.7-1.5,1.1-1.5c5.3-0.1,10.6,0,15.9-0.1c0.2-0.5,0.2-0.6,0-0.5
		c-6.7,0.8-13.3,0.9-20,0c0.7-1.5,3.1-1.2,3.5-3.4c-3.4-1.5-7.3,0.5-10.5-1.6l0,0c1-5.3,7.5-3.3,7.8-3c4,3.8,5.8,0.6,8-1.8
		c6.4,0,12.7-0.1,19.1-0.1c0.9,1,3.1,1.4,2.2,3.3c-0.8,1.7-2.4,0.2-3.6,0.3c-2.5,0.3-5-1.5-8-0.3c1.3,1.2,2.8,1.1,4.2,1
		c2.5-0.2,4.8-0.3,7.4,1.1c3.2,1.7,6.6-1.1,10-1.6c2.7-0.4,4.9-0.6,7,0.8c2.9,2,6.1,1,9.2,1.1c0.7,0,0.9-0.8,0.9-1.5
		c0.2-1.1,0.8-2,1.9-1.9c5.8,0.6,12.2-1.3,17.1,3.7c0.5,0.1,1,0.3,1.4,0.3c1.4,0,3.3-0.4,3.5,1.6c0.2,1.9-1.7,2.1-3.2,2.2
		c-1.8,0.2-3.5,0.4-4.8,1.9c-1.7,0.7-3,0.1-4.3-0.9c-8.3,1.7-16.7,0.8-25.1,0.8c2.5-3.4,5.9-0.5,8.2-1.5c-5.3-0.3-11.1,0.4-16.8-0.2
		C497.6,15.6,500.6,12.8,502.2,16z"/>
	<path class="st47" d="M460.2,14c6.9,0,13.9,0,20.8,0c0,0.4,0,0.8,0,1.3c-5.9,0-11.9,0-17.8,0c-0.1,0-0.2,0.2-0.2,0.4
		s0.1,0.3,0.1,0.5c-9.4-0.1-18.7-0.1-28.1-0.2c-4.3-0.8-8.6-0.7-12.9,0c-0.7,0-1.4,0-2.2,0c-4-0.7-7.9-0.8-11.9,0c-3,0-6.1,0-9.1,0
		c-1.6-1.9-4.1-0.2-6.7-1.8c3.1,0.2,5.3-1,7.8-0.2C420.2,14,440.2,14,460.2,14z"/>
	<path class="st46" d="M453.2,9.1c-2.6,0.9-5.2,1.9-7.9,2.8C445.6,5.9,445.6,5.9,453.2,9.1L453.2,9.1z"/>
	<path class="st46" d="M443,9.6c-2.6-1-6,3.4-8.5-1.3C437.6,9.2,440.4,9.1,443,9.6z"/>
	<path class="st48" d="M593.1,7.3c6,1.2,12,0.9,18,0.8c1.2,0.5,2.7,0.7,3.3,2.2c0.2,0.4,0.4,0.8,0.5,1.2c0.3,1.3,0.7,2.7,0.5,4
		c-0.5,1-1.3,1.2-2.3,1.3c-1.4-0.1-2.7-0.6-4-1c-3.6-0.9-7-3-10.8-1.6c-0.7,0,0.2,0.8,0,0.2c0-0.1,0.1-0.1,0.5-0.2
		c1-0.1,1.9,0,2.6,0.9c-0.2,2.5-1.9,2.6-3.8,2.4c-2.1-0.2-4.1-0.7-6.2-0.7c-0.5,0.1-0.9,0.1-1.4,0.1c-3.3,0.1-6.6-1.1-9.9-0.7
		c-2-1.5-3.7-3.8-6.7-2.7c-0.4,0.1-0.9,0-1.3,0c-2.3-1.3-5-1-7.4-1.9c-0.4-1-0.3-1.9,0.5-2.6c4.4-1.9,9-0.5,13.5-0.9
		C583.5,7.7,588.4,9.1,593.1,7.3z"/>
	<path class="st49" d="M518.2,9.1c2.1,0.6,2.5,1.9,0.1,1.9c-3.9,0-8,1.9-11.8-1.3c-1.2-1-3.7-3.3-5.7,0.3c-1,1.7-11.4,1-12.9-0.7
		c-0.9-1-1.4-0.3-2.1-0.2c-1.3,0.2-2.6,0.9-3.8,0.9c-2.2-0.1-5.5,0-5.4-2.7c0.1-3.3,3.2-0.6,4.6-1.3c3.2-1.3,5.5,2.4,8.5,1.1
		c-0.5-1-1.1-1.9-1.6-2.9c7.3,0,14.6,0,22,0.1c1.4,1.1,3.9,2.2,0.3,3.7C513,7.9,515.8,7,518.2,9.1z"/>
	<path class="st50" d="M565.1,9c0,1,0,2,0,3c-0.5,0.5-1.1,0.5-1.8,0.4c0.3,0.4,0.7,0.1,1,0.1c2.6-0.5,5.1-0.5,7.7,0.4
		c0.4,0,0.9,0,1.3,0c0.9-0.4,2.1-0.8,2.6,0.2c0.6,1.2-0.7,1.6-1.6,1.8c-2.7,0.9-5.7-0.3-8.3,1.1c-0.5,0.3-0.9,0.4-1.5,0.4
		c-4.7-1.6-9.5-2.2-14.4-1.4c-4.7,0.7-9.5-0.5-14.2,1.1c-1,0.1-2,0.3-2.9-0.3c-0.2-2.1,0.7-3,2.9-2.9c1.6,0,3.2,0.3,5-0.7
		c-1.5-1.8-3.8,0.9-4.8-1.3c-0.8-0.6-1.7-1.3-0.7-2.3c1.3-1.3,2.9-2,4.7-0.8c3.9-0.1,7.8,0,11.7-0.4c1.5-0.2,2,0.4,2.8,1.3
		c1.3,1.4,2.9,1.8,4.3,0.2C561.1,6.6,563.1,8,565.1,9z"/>
	<path class="st51" d="M540.2,8c-1.4,1-4.6-0.5-4.1,3c-0.9-0.7-3.8,1.5-2.9-1.9c0.3-1-0.5-1-1.1-1c-4.4-0.2-8.8-0.5-13.2-0.6
		c-0.3,0-0.5,1-0.8,1.6c-1.6-0.1-3.3-0.2-4.9-0.4c-1-0.1-2.1-1.6-2.1-2.4c-0.1-0.7-0.7-1.4-1.1-2.1c7.5,0,15-0.1,22.4-0.2
		c2.4,0,4.7,1.5,7.2,0.1c0.9-0.5,2.5,0,2.9,1.3C543.2,7.5,540.6,6.7,540.2,8z"/>
	<path class="st52" d="M614.1,11.1c-1-1-2-2-3-3c1.4-2.3,3.8-2,6-2c6,0,12,0,18,0.1c2.7,3.3,0.2,4-2.3,4.2
		c-4.8,0.3-9.6,0.5-14.3-0.2C616.7,9.8,615.3,9.5,614.1,11.1z"/>
	<path class="st53" d="M20.1,16.8c1.8,1.8,0.1,4.2,1.1,6.2c-2.7-0.4-5.3-0.8-8.1-1.3c1-1.9,5.6-0.7,4.1-4.7
		C18.2,16.2,19.1,16.1,20.1,16.8z"/>
	<path class="st54" d="M20.1,16.8c-1,0.1-1.9,0.1-2.9,0.2c-2.2-1.6-4.7,0-7-0.9c-0.5-0.6-1.6-0.8-1-2c1.9,0,3.9,0.1,5.8,0.1
		c2.1-0.1,4.3-0.8,6,1C20.8,15.8,20.4,16.3,20.1,16.8z"/>
	<path class="st55" d="M9.2,14.1c0.3,0.7,0.7,1.3,1,2c-2.4-0.3-5.3,1.9-7.3-1C4.9,13.6,7.1,14.3,9.2,14.1z"/>
	<path class="st56" d="M21.1,15.3c-1.9-0.8-4.2,0.5-6-1c1.6-1.8,3.7-0.9,5.6-0.9C20.8,14,20.9,14.6,21.1,15.3z"/>
	<path class="st57" d="M614.1,11.1c0.1-2-1.9-5.1,3.3-2.8c5.2,2.3,11.4,0.8,17.1,0.7c1.8,0,0.3-1.9,0.6-2.8
		c8.2-0.1,16.3-0.7,24.4-1.9c3.2-0.5,5.5,2.3,8.6,1.9c1.8-1.8,4.1,0.1,6-1c2.2-0.6,4.1-1.1,6.4,0.5c3.2,2.1,7,0.4,10.5,0.5
		c4.8,1.9-1.7,2.8-0.2,4.5c1.6,0.5,2.7-1.1,4.2-1.5c-0.2,0.8,2.1,1,0.5,2c-1.8,1.1-3.6,3.2-6,1.3c-1.4-1.1-2.1-1.5-2.5,0.6
		c-1.1,1.4-3-0.7-4.1,1c-2.5-1-5.2-1.1-7.9-0.9c-3.7,0.4-7.3-1.5-11-1.1c-1.8,0.7-3.6,0.6-5.4,0.4c-6.5,0.7-12.9-0.5-19.4,0.2
		c-3.2,0.5-6.5,2.4-9.5-0.5c-2.2-1.2-4.4-0.4-6.5-0.1c-0.5,0-0.9,0-1.4-0.1C619.3,10.8,616.6,12.1,614.1,11.1L614.1,11.1z"/>
	<path class="st27" d="M674.1,5.1c-1.5,3.7-4.2-0.3-6,1C669.7,3.2,671.9,4,674.1,5.1z"/>
	<path class="st58" d="M613.1,16.2c0.7-0.3,1.4-0.6,2.2-0.9c0.6-0.9,1.6-1,2.5-0.9c16.1,0.5,32.1,0.1,48.2,0.3c1.2,0,2.3,0,3.5,0.3
		c0.6,0.2,1.2,0.5,1.6,0.9c16.3,0,32.5,0,48.8,0c0,2.1,0,4.1,0.1,6.2c-1.9,1.8-4.3,1.5-6.6,1.4c-17.3-0.2-34.6,0-51.9-0.3
		c-14.4-0.2-28.9-0.7-43.3-0.2c-1.2,0-2.5,0.1-3.7-0.4C612.5,20.8,612.4,18.6,613.1,16.2z"/>
	<path class="st59" d="M617.1,22c34.3,0,68.6,0,102.9,0c0,1,0,1.9,0,2.9c-17.8,0-35.7,0.3-53.5,0c-17.1-0.3-34.3-1.1-51.4-0.9
		C614.6,22.1,616.6,22.9,617.1,22z"/>
	<path class="st60" d="M730.1,8.9c0,1.1-0.2,2.2-1.3,2.5c-0.9,0.3-1.7-0.5-1.5-1.4s0.7-2,1.4-2.4C729.7,7,730,8.1,730.1,8.9z"/>
	<path class="st61" d="M671.1,15.8c-0.3,0-0.7,0.1-1,0.1c-1.1-1.1-2.4-0.5-3.6-0.6c-2.3-0.3-3.1-1.9-2.4-4.1c4-1.2,7.5,0.3,11,1.8
		C674.2,14.5,671.8,13.9,671.1,15.8z"/>
	<path class="st61" d="M683,14c0.5-4,2.7-0.8,4.1-1c0.4,0.5,1.1,1,1.1,1.5c0,1-1,0.6-1.5,0.5C685.4,14.7,684.2,14.3,683,14z"/>
	<path class="st62" d="M617.1,22c-0.7,0.7-1.3,1.3-2,2c-0.3,0.3-0.6,0.6-1,0.9c-3.2-1.9-6.7-0.6-10-0.9c-6,2.3-12,0.7-18,0
		c-7-0.6-14-0.4-21-0.1c-2.7,0-5.3,0-8,0c-1.8,1.2-3.7,1.1-5.7,0.8c-2.1-0.4-4.4-0.8-6.3,0.1c-3.6,1.7-6.4,0.7-9-1.8
		c-1.5,0.4-3.3,2.4-3.9-0.9c1.6-1.7,3.7-1.4,5.7-1.5c2,0,3.9,0,5.9,0c1.1-0.1,2.2,0,3.3,0c3.5-0.2,7-0.1,10.6-0.1c2.8,0,5.7,0,8.5,0
		c2-0.1,4.1,0,6.1,0c2.7,0,5.4,0,8,0.1c3.6,0,7.3,0.1,10.9-0.1c4.6-0.1,9.2-0.1,13.8,0c3,0.3,6.3-0.8,9,1.4
		C615,22,616.1,22,617.1,22z"/>
	<path class="st63" d="M536.1,23c6.9,2.5,14.1-1.4,21,1c-0.4,2.5-2.5,3.1-4.5,2.9c-4.8-0.4-9.5,0-14.3-0.2
		C534.6,26.6,536,24.8,536.1,23z"/>
	<path class="st64" d="M538.1,22c-2,0-3.9,0.1-5.9,0.1c-0.7,0-1.4,0-2.2,0c-0.3,0.4-0.6,0.4-0.9-0.1c3.8-2.2-0.8-4.5,0-6.7
		c1.4-0.4,2.7,0.3,4,0.7c0.6-0.2,1.2-0.5,1.9-0.7c1.5,0.7,3.6-0.3,4.5,1.9C539.8,18.9,539.4,20.6,538.1,22z"/>
	<path class="st65" d="M529.2,22c0.3,0,0.6,0.1,0.9,0.1c-0.4,1-1.2,2-2.2,1.8c-7.6-1.7-15.2,0.5-22.8-0.8c4.1-2.1,8.4-0.7,12.6-0.9
		C521.6,21.8,525.4,22,529.2,22z"/>
	<path class="st65" d="M478.2,24c0.3-0.5,0.6-1.6,0.9-1.6c8.4-0.2,16.7-1.5,25,0.6c-6.7,0-13.5,0-20.2,0C482,23,480,22.9,478.2,24z"
		/>
	<path class="st66" d="M586.1,24.1c6,0,12,0,18,0c-1.6,2.6-3.2,3.7-6.7,2.4C593.9,25.1,589.6,26.3,586.1,24.1z"/>
	<path class="st31" d="M173.2,19c10,3.4,20.1,0.5,30.2,0.2c1.9-0.1,3.9,0.5,5.8,0.8c-2.4,4.5-6.6,3.2-10.1,2.6
		c-4-0.6-7.7-0.7-11.7,0C182.2,23.7,177.2,22.9,173.2,19z"/>
	<path class="st31" d="M138.2,18.1c11.3,3.1,22.6,2.1,34,0.9c-1.4,3.4-3.1,5.1-7.1,2.7c-3.2-2-6.9,0.9-10.6,0.1
		c-4.8-1-9.9,0.7-14.7-1.7c-0.9-0.5-2.5,0.3-3.8,0.5C135.9,19,137.8,19.2,138.2,18.1z"/>
	<path class="st31" d="M213.2,21c2.8-1.7,6-0.8,9-1C220.6,23,216.4,23.5,213.2,21z"/>
	<path class="st67" d="M285.2,17c-2.3,1.9-5.1,0.6-7.6,0.7c-10.1,0.5-20.3,0.3-30.4,0.3c-1.4-0.1-3,0.5-4-1c0-0.6,0-1.3,0-1.9
		c12.7-0.2,25.3-0.2,37.9,0.9C282.8,15.4,284.5,14.3,285.2,17z"/>
	<path class="st68" d="M285.2,17c-1.1-1.5-2.7-0.8-4-1.1c0.7-0.6,1.4-1.3,2-1.9c2.9-0.1,5.6,0.1,8,1.9
		C289.2,16.3,287.2,16.7,285.2,17z"/>
	<path class="st69" d="M293.2,16c3.7-5.6,7.4-1,11,0C300.5,18,296.9,15.7,293.2,16z"/>
	<path class="st70" d="M502.2,16c-2.3-2.2-5.4-0.3-9.1-1.7c7.8,0,14.4,0,21.8,0c-3.8,1.8-7.7-0.7-10.7,1.7
		C503.5,16,502.8,16,502.2,16z"/>
	<path class="st71" d="M422.2,16c4.3-1.4,8.6-1.6,12.9,0C430.8,16,426.5,16,422.2,16z"/>
	<path class="st71" d="M408.2,16c4-1.6,7.9-1.4,11.9,0C416.1,16,412.2,16,408.2,16z"/>
	<path class="st51" d="M530.6,9.7c-2.7,2-5.3,2.5-8.5,0.2C525.3,8.6,528,11.4,530.6,9.7z"/>
	<path class="st72" d="M525.3,14.2c-2.6,1.3-5.4,0.7-8.3,0.7C519.8,12.3,522.6,13.6,525.3,14.2z"/>
	<path class="st73" d="M605.2,21.9c-4.7,0-9.5,0-14.2-0.1c-4.1-1.4-4.1-1.7,0.2-6c3.3-1.3,7,2.3,10.2-0.7c2.3-2.3,4.4,0.1,6.6,0.4
		C609.2,18.6,607.4,20.3,605.2,21.9z"/>
	<path class="st74" d="M580.3,21.9c-2.7,0-5.5,0.1-8.2,0.1c-0.6-2.7,1.8-3.3,3.3-4.5c-3.3,1.2-6.7,1.4-10-0.1
		c-0.4-0.4-0.5-0.9-0.3-1.4l0,0c5-1.1,10-2.2,15,0c3.4-2,6.7,0,10.1,0c-0.7,3.4-2.8,4.9-6.2,5C582.7,21,581.3,20.4,580.3,21.9z"/>
	<path class="st75" d="M605.2,21.9c1-2,1.9-4,2.9-6c-0.1-0.5-0.1-0.9,0.4-1.1c0.2-0.1,0.5,0.1,0.7,0.4c1.3,0.3,2.6,0.6,3.9,1
		c1.2,1.8,1,3.8,0.9,5.8C611.1,21.9,608.1,21.9,605.2,21.9z"/>
	<path class="st76" d="M580.1,16c-5,0-10,0-15,0c0.5-2.7,2.6-1.8,4.2-1.9c1.9-0.1,3.8,0,5.8,0c-0.2-0.4-0.3-0.8-0.4-0.9
		c-0.5-0.2-1-0.2-1.4-0.2C577.1,10.7,578.7,13,580.1,16z"/>
	<path class="st77" d="M609.2,15.2c-0.4,0.2-0.7,0.5-1.1,0.7c-2.3-0.3-4.5-0.5-6.8-0.8c-1.9-0.1-3.8-0.3-6.2-0.5
		C600.4,11.5,604.9,12.4,609.2,15.2z"/>
	<path class="st78" d="M580.3,21.9c-2.1-1.5-1.6-2.1,0.7-1.9c3.8,0.4,7.1-0.2,9.1-3.9c0.3-0.1,0.6-0.2,1-0.1c-0.3,0.9-0.4,2-1,2.5
		c-2.6,2-0.2,2.5,0.9,3.5C587.4,21.9,583.9,21.9,580.3,21.9z"/>
	<path class="st52" d="M617.1,15.3c-0.6,0-1.2,0-1.8,0c-1.6-1.1-1-2.7-1.2-4.2c2.7-1.2,5.3-1.9,8,0
		C621.9,14.2,619.2,14.4,617.1,15.3z"/>
	<path class="st79" d="M572,13c-3.6,0-7.1,0-11,0c1.3-1.5,2.9-0.5,4.1-0.9C567.8,9.3,569.9,11.3,572,13z"/>
	<path class="st80" d="M565.1,16c0,0.3,0,0.6,0,0.9c-0.2,0.2-0.3,0.4-0.5,0.6c-1.9,1.1-4,0.8-6,0.6c-3.7-0.8-7.4-0.1-11.1-0.3
		c-1.4-0.1-2.8-0.1-4.2,0.2c-1.5,0.2-3,0.3-4.2-0.9c-1.4-0.6-2.7-1.3-4.1-1.9c8.8-1.6,17.7-1.8,26.6-1.2
		C563.4,14.2,563.5,16.2,565.1,16z"/>
	<path class="st81" d="M617.1,15.3c0.7-2.6,3.9-2.1,5-4.2c0.3,0,0.6,0,0.9,0c2.4,1.1,4.7-1.1,7-0.1c2.7,2.9,6.1-0.3,9,1.1
		c6.7,0.3,13.5,2.6,20-1c1.7,0,3.3,0.1,5,0.1c0.8,2.2,1.6,4.2,4.7,3.1c0.8-0.3,1.1,0.9,1.3,1.7c-16.6,0.1-33.2,0.1-49.8,0.2
		C619.2,16.1,618,16.4,617.1,15.3z"/>
	<path class="st82" d="M659.1,11.1c-1.2,1.5-10.4,4.6-11.7,3.9c-3.1-1.7-3.1-1.7-5.8-0.8c-1.1,0.4-1.1,0.4-2.4-2.1
		c0.1-1.7,1.4-2.5,2.7-1.9C647.5,13.1,653.4,10.6,659.1,11.1z"/>
	<path class="st52" d="M630.1,11c-0.1,0.8,0,1.9-0.5,2.3c-1,0.8-1.2-0.3-1.6-1c-1-1.8-1-0.1-1.7,0.3c-1.5,0.9-2.9,0.6-3.3-1.5
		C625.4,10,627.7,9.2,630.1,11z"/>
	<path class="st83" d="M547.1,17.2c3.6-1.1,7.3-1.2,10.9-0.1c-0.1,1.7-0.9,3.2-0.9,4.9c-3.3,0-6.7-0.1-10-0.1
		C545.9,20.3,545.7,18.7,547.1,17.2z"/>
	<path class="st84" d="M565.1,16.9c3.7,0,7.4,0,11.7,0c-1.9,2-3.2,3.6-4.6,5.1c-2,0-4,0-6,0C563.9,20.7,563.7,19,565.1,16.9
		L565.1,16.9z"/>
	<path class="st85" d="M565.1,17c0.1,1.7,0,3.5,1,5c-3,0-6,0-9,0c-2.1-2.1-1.1-3.6,0.9-4.9C560.4,17.1,562.8,17,565.1,17z"/>
	<path class="st86" d="M547.1,17.2c0,1.6,0,3.1,0,4.7c-1,0-2,0.1-3,0.1c-0.5-0.4-1.2-0.5-1.8-0.5c-1.1,0-2.5,0.2-2.5-1.4
		c-0.1-1.4,1.1-1.8,2.2-2c0.8-0.2,1.5-0.5,2-1.2C545.2,15.6,546.1,16.6,547.1,17.2z"/>
	<path class="st87" d="M544,16.9c0.4,2.6-2.6,1.7-3.5,2.9c0.8,1.9,2.9,0.7,3.6,2.2c-2,0-4,0-6,0c-0.1-1.7,0-3.4,0.9-4.9
		C540.7,17,542.4,16.9,544,16.9z"/>
</g>
</svg>
