<?xml version="1.0" encoding="utf-8"?>
<!-- Generator: Adobe Illustrator 25.0.0, SVG Export Plug-In . SVG Version: 6.00 Build 0)  -->
<svg version="1.1" id="Camada_1" xmlns="http://www.w3.org/2000/svg" xmlns:xlink="http://www.w3.org/1999/xlink" x="0px" y="0px"
	 viewBox="0 0 709 229" style="enable-background:new 0 0 709 229;" xml:space="preserve">
<style type="text/css">
	.st0{display:none;}
	.st1{display:inline;stroke:#FFFFFF;stroke-miterlimit:10;}
	.st2{display:none;fill:#FFFFFF;}
	.st3{fill:#D9563B;}
	.st4{fill:#E1362A;}
	.st5{fill:#E5372A;}
	.st6{fill:#DF3529;}
	.st7{fill:#DB3C30;}
	.st8{fill:#EB5E54;}
	.st9{fill:#986E65;}
	.st10{fill:#E55D40;}
	.st11{fill:#C19086;}
	.st12{fill:#E45F55;}
	.st13{fill:#D2A7A1;}
	.st14{fill:#B6ADAA;}
	.st15{fill:#886D67;}
	.st16{fill:#A49F9B;}
	.st17{fill:#FCFAFA;}
	.st18{fill:#C3867E;}
	.st19{fill:#EA5F55;}
	.st20{fill:#E2C3BA;}
	.st21{fill:#D6B4AD;}
	.st22{fill:#F1ECE7;}
	.st23{fill:#BDA4A0;}
	.st24{fill:#B69B95;}
	.st25{fill:#9D5045;}
	.st26{fill:#9B827C;}
	.st27{fill:#54130D;}
	.st28{fill:#5D140E;}
	.st29{fill:#CC4F36;}
	.st30{fill:#6A1C15;}
	.st31{fill:#B5452F;}
	.st32{fill:#722B1E;}
	.st33{fill:#883828;}
	.st34{fill:#D9543A;}
	.st35{fill:#A84531;}
	.st36{fill:#FA704E;}
	.st37{fill:#C95038;}
	.st38{fill:#4B1F18;}
	.st39{fill:#5D251C;}
	.st40{fill:#B8776B;}
	.st41{fill:#110D0C;}
	.st42{fill:#FD9B74;}
	.st43{fill:#4B4B4A;}
	.st44{fill:#EB5D40;}
	.st45{fill:#BC4C35;}
	.st46{fill:#D05037;}
	.st47{fill:#FA795B;}
	.st48{fill:#EC6245;}
	.st49{fill:#FEAB84;}
	.st50{fill:#FE462E;}
	.st51{fill:#B1432E;}
	.st52{fill:#36130D;}
	.st53{fill:#080404;}
	.st54{fill:#F05E41;}
	.st55{fill:#FAA67C;}
	.st56{fill:#61251B;}
	.st57{fill:#8D2F21;}
	.st58{fill:#FE412C;}
	.st59{fill:#CE3024;}
	.st60{fill:#BC291F;}
	.st61{fill:#5A140E;}
	.st62{fill:#BC271E;}
	.st63{fill:#B1251C;}
	.st64{fill:#E0513B;}
	.st65{fill:#A62F27;}
	.st66{fill:#211917;}
	.st67{fill:#FA4334;}
	.st68{fill:#F7D3BD;}
	.st69{fill:#781A13;}
	.st70{fill:#982219;}
	.st71{fill:#C2A69D;}
	.st72{fill:#DF3629;}
	.st73{fill:#6A271B;}
	.st74{fill:#782C1E;}
	.st75{fill:#7B1C14;}
	.st76{fill:#802F20;}
	.st77{fill:#612318;}
	.st78{fill:#6F1A13;}
	.st79{fill:#871912;}
	.st80{fill:#721913;}
	.st81{fill:#654A44;}
	.st82{fill:#110A08;}
	.st83{fill:#4C413D;}
	.st84{fill:#A4261C;}
	.st85{fill:#F14732;}
	.st86{fill:#FC7A57;}
	.st87{fill:#070303;}
	.st88{fill:#E96043;}
	.st89{fill:#CC7566;}
	.st90{fill:#AE412C;}
	.st91{fill:#FEA37B;}
	.st92{fill:#933624;}
	.st93{fill:#050202;}
	.st94{fill:#5D2218;}
	.st95{fill:#9D3C29;}
	.st96{fill:#BC4731;}
	.st97{fill:#853121;}
	.st98{fill:#F3EBE1;}
	.st99{fill:#EFCCAE;}
	.st100{fill:#F9BA96;}
	.st101{fill:#E95B3F;}
	.st102{fill:#CC3125;}
	.st103{fill:#FB4F3F;}
	.st104{fill:#FE705F;}
	.st105{fill:#DF3A2C;}
	.st106{fill:#FD4F3E;}
	.st107{fill:#D43226;}
	.st108{fill:#FD7160;}
	.st109{fill:#FE7060;}
	.st110{fill:#FA6C5B;}
	.st111{fill:#FE6B5B;}
	.st112{fill:#F9452F;}
	.st113{fill:#FE705E;}
	.st114{fill:#D9D8D0;}
	.st115{fill:#FE7161;}
	.st116{fill:#E7E1DB;}
	.st117{fill:#F2C3B2;}
	.st118{fill:#E3998B;}
	.st119{fill:#E28876;}
	.st120{fill:#B6978A;}
	.st121{fill:#E28370;}
	.st122{fill:#5F2318;}
	.st123{fill:#C74E35;}
	.st124{fill:#D43327;}
	.st125{fill:#FE7867;}
	.st126{fill:#FC4C3C;}
	.st127{fill:#FE6353;}
	.st128{fill:#342723;}
	.st129{fill:#2F2320;}
	.st130{fill:#973825;}
	.st131{fill:#4B3732;}
	.st132{fill:#372925;}
	.st133{fill:#3A2B27;}
	.st134{fill:#41302B;}
	.st135{fill:#41302C;}
	.st136{fill:#4E3A34;}
	.st137{fill:#3B2C28;}
	.st138{fill:#1A1412;}
	.st139{fill:#4D3934;}
	.st140{fill:#130F0D;}
	.st141{fill:#4A3732;}
	.st142{fill:#3B2B27;}
	.st143{fill:#644A43;}
	.st144{fill:#E13428;}
	.st145{fill:#FE7C6C;}
	.st146{fill:#FD9B8A;}
	.st147{fill:#BA281F;}
	.st148{fill:#C23023;}
	.st149{fill:#030101;}
	.st150{fill:#B1291F;}
	.st151{fill:#97231A;}
	.st152{fill:#99251B;}
	.st153{fill:#99231A;}
	.st154{fill:#905B51;}
	.st155{fill:#C2AAA2;}
	.st156{fill:#F59D78;}
	.st157{fill:#DAAA9A;}
	.st158{fill:#885D55;}
	.st159{fill:#B54630;}
	.st160{fill:#C74F38;}
	.st161{fill:#F4815E;}
	.st162{fill:#F6825F;}
	.st163{fill:#A73F2A;}
	.st164{fill:#6C2219;}
	.st165{fill:#FA7855;}
	.st166{fill:#C22D22;}
	.st167{fill:#B42C21;}
	.st168{fill:#130F0E;}
	.st169{fill:#201816;}
	.st170{fill:#893525;}
</style>
<g id="Camada_2_1_" class="st0">
	<rect x="-148.8" y="-103.9" class="st1" width="944" height="427"/>
</g>
<rect class="st2" width="709" height="229"/>
<g id="Camada_1_1_">
	<g>
		<path class="st3" d="M265.5,25.6c1-2.2,1.9-4.5,2.9-6.7c0.7-1.6,1.4-3.4,3.1-4.3c3.7-2,8.1-2.9,8.9-8.4c0.2-1.2,3.8-1.9,5.8-2.9
			c0.3,0,0.7,0,1,0c0.9,0.9,1.7,1.8,2.3,3c0.1,1.6-1.2,2.7-1.4,4.2c-0.1,0.4-0.3,0.8-0.5,1.2c-1.6,4.3-6.4,7.1-6.5,12.2
			c0.1,1.4,0.2,2.8-1.3,3.6c-0.9,0-1.3-0.7-1.9-1.2c-1.3,4.6-1.8,9.3-2.9,13.9c-0.4,1.6,0.2,2.9,0.8,4.2c0.2,0.8,0.1,1.5-0.2,2.2
			c-0.3,0.6-0.9,1.2-0.8,1.8c1.7,6-3.1,11.3-1.8,17.3c0.2,1,0,2.2-1,2.6c-3.3,1.4-6.8-0.1-10.2,0.4c-1.7,0.3-2.6-1.1-2.9-2.7
			c0-0.9,0.4-1.7,1.2-2c6.8-2.7,9.2-8.1,9.5-14.9c-0.8-6-1.8-6.4-7.8-3.4c-2.3,3.1-5.4,5-8.8,6.8c-4.2,2.2-4.1,3.5-0.8,7.2
			c1.7,2,3.9,3.6,5.4,5.8c-1.2,2.5-3.2,2.8-5.6,2.3c-0.4-0.2-0.8-0.5-1-1c-0.7-2.1-2.4-3-4.2-2.1c-1.9,0.9,0,2.6-0.1,3.9
			c-0.9,1.8-2.5,2.1-4.3,1.8c-4.1-4.1,0.8-7.5,1.1-11.6c-2.5,0.1-2.8,2.3-4.1,3.3c-5.3,4-11.5,2-17.2,2.1c-2,0.1-1.8-2.6,0.3-3.8
			c9.7-3.4,18.7-8.3,27.6-13.3c4.2-2.3,6.5-7.3,8.7-11.8C259.8,31.4,262.4,28.3,265.5,25.6z"/>
		<path class="st4" d="M419.1,3.3c3.3,0,6.7,0,10,0C438,4.5,447,3.5,456,3.8c2.1,3.5,0.1,6.3-1.5,9.3c-8.7,1.4-17.4,2.6-26.3,1.1
			c-1.3-0.7-1.8-1.5-0.2-2.4c1.5-0.9,3-0.1,4.5-0.1c-5.5,0.3-10.7-3.9-16.3-0.9c-4,1.3-8.2,0.9-12.3,0.9c-17.2,0.1-34.5,0.1-51.7,0
			c-2.4,0-5,0.5-7-1.7c-0.1-0.7,0.1-1.2,0.7-1.5c6.5-2.1,12.9,0.8,20.1,0.2c-2.5-0.1-4.4,0-6.2-0.1c-1.4-0.1-2.9-0.3-3.4-1.6
			c-0.6-1.7,0.9-2.6,2.2-3.3c15.8,0.1,31.6-0.4,47.3,0.3c2.7-0.4,5.4-0.5,8.2,0.1C415.8,4.7,417.6,4.5,419.1,3.3z"/>
		<path class="st5" d="M487.1,3.3c2,0,4,0,6,0c2,0.7,4.1,1.3,6.2,0.7c3.3,0,6.6,0.6,9.7-0.7c5,0,10,0,15,0c3.7,0.8,7.3,0.8,11,0
			c2,0,4,0,6,0c2.4,1.1,3.8,2.8,3.2,5.6c-1.6,0.9-3.7,0.2-5,1.9c-7.5,1.8-15.3,1.1-22.9,2.5c-16.3,1.3-32.5,1.2-48.8,0.1
			c-2.9-1.3-4.9-2.9-1.1-5.3c1.8-1.1-0.1-3.8,2.3-4.3c0.5,0,1,0,1.6,0C476,3.5,481.6,4.5,487.1,3.3z"/>
		<path class="st6" d="M346.3,9.3c-0.4,0-0.7,0-1.1,0.1c-0.7,1-1.7,1.7-2.8,1.8c-6,0.6-12,1.2-17.9-0.4c-0.6-2.1,0.3-2.1,1.9-1.3
			c0-0.1-0.1-0.2-0.1-0.6c-5.9,0.5-12.1,2.6-17.3-2.2c0.2-3.1,2.8-2.1,4.5-2.5c3.9-0.9,8,0.5,11.9-0.9c5,0,10,0,15,0
			c3.3,0.4,6.7,1.9,10,0c0.7,0,1.3,0,2,0c0.3,0.4,0.5,0.8,0.5,1.3C352,8.2,349,8.5,346.3,9.3z"/>
		<path class="st7" d="M287.2,10.3c-0.5-1.9,1.1-2.9,1.8-4.3c-1-3.3,2.5-1.4,3.2-2.8c4,0,8,0,12,0c1.6,2.8,0.4,4.5-2.2,5.7
			C297.2,10.2,292.3,11.7,287.2,10.3z"/>
		<path class="st8" d="M407.2,4.4c-16.3,0-32.7-0.1-49-0.1c-0.9,0.8-1.8,0.9-2.9,0.4c-0.5-0.4-0.5-0.9-0.2-1.4c17,0,34,0,51,0
			C406.5,3.7,407.1,3.8,407.2,4.4z"/>
		<path class="st9" d="M301.1,8.3c3.1-0.4,3-2.8,3.1-5c0.7,0,1.3,0,2,0c1,1.6,0.9,3.7,2.5,5c0.2,0.4,0.3,0.9,0.4,1.3
			c0.2,2.4,1,4.9-0.6,7.3c-1.1,1.6-2.5,2.2-3.6,0.6C303.1,14.7,300.5,12.1,301.1,8.3z"/>
		<path class="st10" d="M229.3,226c-0.3-0.4-0.5-0.8-0.8-1.2c1.2-2.8,6.3-2.7,5.4-7.1c0-3.2-0.1-6.3,0.1-9.4c0.1-2,0.2-4,2.1-5.3
			c1.5-0.4,2.3,0.4,3,1.5c1.1,4,1.5,7.9-1.1,12.4c-1.8-3.2-0.5-6-1.6-9c0,0-0.9,0.6-0.3,0.4c0.2-0.1,0.4,0,0.4,0.3
			c-0.5,5.1,3.1,10.2-0.1,15.3c-0.9,0.5-1.7,1.1-2,2.1C232.6,226,230.9,226,229.3,226z"/>
		<path class="st11" d="M548,17.3c0,2.3,0,4.7,0,7c-2.2,1.1-0.7,3.1-1.1,4.6c-0.2,1-0.8,1.8-1.9,1.9c-0.5,0-1-0.2-1.4-0.6
			c-1.1-2-1.6-4.2-1.6-6.5c0.2-2.4,1.8-4.3,0.9-7.1c-0.7-2.3,2-2.3,3.9-1.7C547.7,15.4,547.3,16.6,548,17.3z"/>
		<path class="st12" d="M469.1,4.3c-0.3,0-0.7,0.1-1,0.1c-3.7,2-7.3,2-11-0.1c-7.8,0-15.6,0-23.4-0.1c-1.6,0-3.4,0.7-4.6-1
			c13.3,0,26.6,0,40,0c0.3,0.2,0.4,0.5,0.3,0.7C469.3,4.2,469.2,4.3,469.1,4.3z"/>
		<path class="st13" d="M307.8,8c-3.2-0.7-1.6-2.9-1.6-4.7c6.3,0,12.7,0,19,0c-0.2,0.6,0,1.9-0.6,1.6c-5.2-1.8-10.2,0.8-15.2,0.4
			C308.1,5.8,309.6,7.8,307.8,8z"/>
		<path class="st14" d="M548,69.2c-0.3,0-0.6,0-0.9,0c-1.9-1.9-1.4-4.3-1.4-6.6c0-3.8,0-7.6-1.2-11.3c-0.2-1.1,0.1-2.1,0.5-3.1
			c1.8-1.6-1.2-5.7,3.1-6C548,51.2,548,60.2,548,69.2z"/>
		<path class="st15" d="M548,42.3c-3.6,1.1,0.9,4.6-1.8,6c-0.7,0.5-1.4,0.6-2.2,0.5c-3.2-1.2-2.9-3.1-1.1-5.3
			c1.9-1.8,1.5-4.6,3.1-6.5c0.7-0.3,1.4-0.3,2.1,0.3C548,38.9,548,40.6,548,42.3z"/>
		<path class="st11" d="M544.1,8.3c-0.3-2.1-2-3.3-3-5c1,0,2,0,3,0c5.2,2.3,3.1,6.8,3.4,10.7c-1,1.2-2.2,0.9-3.4,0.4
			C542.9,12.3,545,10.3,544.1,8.3z"/>
		<path class="st16" d="M548,37.3c-0.7,0-1.4,0-2.1,0c-0.4,0.3-0.8,0.3-1.2,0c-1.2-1.3-1.2-2.9-0.9-4.5c0.1-0.9,0.5-1.7,1.1-2.4
			c0.8-0.4,1.1-1.1,1.1-2c0.6-0.7,1.3-0.7,2-0.1C548,31.3,548,34.3,548,37.3z"/>
		<path class="st17" d="M546.9,14.5c0.4-4.1,0.5-8-2.9-11.2c3.4-0.8,4.5,0.5,4.1,4c-0.4,3.3-0.1,6.6-0.1,10
			c-0.4-0.7-0.8-1.4-1.2-2.1l-0.3-0.4L546.9,14.5z"/>
		<path class="st18" d="M407.2,4.4c-0.4-0.4-0.7-0.7-1.1-1.1c4.3,0,8.7,0,13,0c-1.7,2.1-3.5,3.1-6.2,1.5
			C411.2,3.7,409.1,4.5,407.2,4.4z"/>
		<path class="st19" d="M469.1,4.3c0-0.3,0-0.7,0-1c6,0,12,0,18,0C481.2,5.6,475.1,3.7,469.1,4.3z"/>
		<path class="st20" d="M350.2,3.3c-3.3,4-6.7,0.9-10,0C343.5,3.3,346.8,3.3,350.2,3.3z"/>
		<path class="st21" d="M509.1,3.3c-3.1,2.1-6.4,1.9-9.8,1c-0.3-0.1-0.5-0.3-0.4-0.6c0.1-0.3,0.1-0.4,0.2-0.4
			C502.4,3.3,505.7,3.3,509.1,3.3z"/>
		<path class="st22" d="M548,28.3c-0.7,0-1.3,0.1-2,0.1c-1.3-4.3-1.2-4.5,2-4.1C548,25.6,548,26.9,548,28.3z"/>
		<path class="st23" d="M535,3.3c-3.7,1.7-7.3,1.4-11,0C527.7,3.3,531.4,3.3,535,3.3z"/>
		<path class="st24" d="M292.2,3.3c0.5,2.7-3.8-0.1-3.2,2.8c-2,0-1.7-1.5-1.8-2.8C288.9,3.3,290.6,3.3,292.2,3.3z"/>
		<path class="st25" d="M499.1,3.3c0,0.3,0.1,0.7,0.2,1c-2.4,2.1-4.3,0.2-6.2-1C495.1,3.3,497.1,3.3,499.1,3.3z"/>
		<path class="st26" d="M355.2,3.3c0.1,0.2,0.2,0.5,0.3,0.8c-0.7,2.5-1.9,2-3.3,0.6c0-0.5,0-0.9,0-1.4
			C353.2,3.3,354.2,3.3,355.2,3.3z"/>
		<path class="st27" d="M426.2,74c-1.6,0.8-3.2,1.6-4.8,2.4c-1.5,0.9-2.9,0.3-4.4,0c-11.7-1.2-23.3-0.4-35-0.5
			c-17.1,0.1-34.2,0.2-51.3,0c-11.6-0.1-23.2,0.4-34.8,1c-0.5,0.1-1.1,0.2-1.7,0.2c-1.5-0.2-2.7-1.3-4.2-1.7c-2.4-1-4.2-3.1-3.4-5.4
			c1.1-3.2-0.2-5.2-1.9-7.4c-0.1-1.5,0.5-2.7,1.7-3.5c1.9-0.8,1.4-3.3,3.1-4.2c4.6-0.8,9.3,0,13.8-1c1.5,0.2,1.6,1.8,2.5,2.7
			c0.5-1.2-1.1-3.1,1.3-3.6c6.3-0.5,12.7-1.4,19.1-1.3c0.5,0,0.9,0.1,1.3,0.3c3.1,1.7,6.2,1.9,9.3-0.3c0.8-0.5,1.7-0.9,2.7-0.9
			c3.2,1.7,6.6,0.9,9.9,1.1c4.8,2.2,9.5,0.3,14.2-0.3c3.8-0.5,7.5-0.8,11.3,0.2c4.3,1.1,8.7,1.4,13.3,0.5c6.4-1.3,12.8,0.8,19.3,0.7
			c2.8-0.1,5.3,0.7,7.9-1.2c2.1-1.6,3.9,0.8,5.8,1.6c2.4,3.4,1,7.3,1.3,10.4c1-2-0.8-5,0.7-7.5c0.2-0.6,0,0.2,0.2-0.5
			c1.8-7.8,2.3-7.9,8.4-2.5c0.9,0.8,1.6,1.7,2.3,2.6c1.6,2.1,4.7,3,5.4,5.7c0.8,3.3-3.5,3.6-4.3,6.1c-0.1,0.5-0.4,0.9-0.2,1.8
			c2.2,1,4.7-1.3,6.9,0.3c3.4,1,7-0.2,10.4,0.5c1.4,0.3,3.3,0.5,3.2,2.4c-0.2,1.9-2,1.3-3.2,1.3C443.5,73.9,434.8,73.4,426.2,74z"/>
		<path class="st28" d="M440.1,70.2c-0.3-0.1-0.7-0.3-0.9-0.3c-2.2,0.7-5,3-6.4,0.2c-0.9-1.9,1.1-5.1,3.3-6.1c4.4-2,2.2-3.2-0.1-4.8
			c-3.7-2.7-6-6.9-10.5-9c-1.4,1.6,0.7,4.5-1.4,6.1c-2.3-2.8-1.1-6.1-1.3-9.2c0.1-1.5,0.5-2.8,1.7-3.8c0.5-0.3,1-0.4,1.6-0.2
			c0.4,0.3,0.7,0.7,1,1.2c2.4,5.8,6.5,8.5,12.4,7.4c7.5-1.5,14.9-0.4,22.3,0.2c5.2,0.4,10.3,0.6,15.3-0.9c3.9-1.2,7.4,1.2,11.3,0.7
			c3.5-0.4,7.1-0.1,10.4-1.9c0.5,0.2,0.9,0.4,1.3,0.8c5.2,3.6,11.1,2.6,16.7,2.1c6.6-0.7,12.9-2.8,19.7-1.5c2.7,0.5,5.4-2.9,8.5-0.8
			c3.2,4,1.9,8.7,2.1,13.1c0.1,2,0.1,3.9,0.2,5.9c0.2,3.3-0.7,5-4.7,4.9C527.2,74,511.7,74,496.3,74c-1-2.9,1.5-3.1,3.1-4.5
			C479.5,69.1,459.8,67.9,440.1,70.2z"/>
		<path class="st29" d="M366.3,143.3c-6,5.2-13.4,7.5-21,7.9c-9.1,0.5-18.2,0.3-27.2-0.9c-9.1-1.2-16.9-5.6-24.2-10.9
			c-3.1-2.2-6-3.1-9.5-1.6c-0.3-0.1-0.7-0.1-1-0.2c-1.7-0.4-4.1,1.5-4.9-0.7c-0.8-2.1,1.3-3.8,3-5.1c2.2-0.4,4.2,2.8,6.5,0.4
			c1-1.5,2.5-2.4,4-3.3c5.3-2.8,5.3-2.8,11.3,2.9c8.2,8.6,19,9.2,29.9,10c5.5,0.4,10.9-0.8,16.4-0.8c2.4,0,4.3-1.7,6.3-2.9
			c2.6-1.5,4.7-3.7,7.8-4.3C365.4,136.7,364.3,140.5,366.3,143.3z"/>
		<path class="st30" d="M440.1,70.2c6.4-3.2,13.6-1.7,20.3-3.9c1.2-0.4,2.6,0.6,3.5,1.6c0.7,0.8,1.5,1.3,2.6,0.9
			c10-3.4,20.4-0.6,30.6-1.6c2.2-0.2,4,1.2,5.6,3.3c-2.3,1.3-6-0.7-6.6,3.2c-23.3,0-46.6,0.1-69.9,0.1c7.3-1.7,14.7-0.3,22.1-0.8
			c2-0.1,4.1,0,6.1-0.6C450,69.5,444.5,73.3,440.1,70.2z"/>
		<path class="st29" d="M389.9,104.1c-1,1.5-2,3-3.2,4.3c-3.5,3.9-6.1,7.9-5.9,13.5c0.1,2.6-1.3,5-2.8,7.2c-3.6,0-7.4,2.3-10.6-1.1
			c1.5-6,2.7-12.1,3.1-18.4c0.6-1.4,1.7-2.2,3.1-1.6c1.3,0.5,0.7,0.4,0.6-0.6c-0.4-3.4,1.7-4.4,4.6-3.7c2.9,0.7,5.6,0.5,8.1-1.1
			C388.4,102.4,389.5,102.7,389.9,104.1z"/>
		<path class="st31" d="M389.9,104.1c-0.9-0.3-1.9-0.7-2.8-1c-1.2-2.2,0.3-3.3,1.8-4.4c4.5,0.2,8.9,2.2,13.6,0.7
			c-2.3-1-4.8-1.1-7-2.2c-0.9-0.5-1.8-1-1.7-2.2c0.1-1.2,1-1.8,2-1.8c2.7,0,4.5-1.8,6.8-2.7c4.1,0.4,6-2.1,7.3-5.5
			c2.1,0.1,4.2,0.2,6-1.5c0.8-0.8,2.1-1.3,2.9,0.3c0.5,1.3-0.1,2.5-0.6,3.6c-0.2,2.7,1,5.7-0.8,8.2c-2.6,3.8-5.1,7.5-11,6.5
			c-3.7-0.7-7.6,0-11.3-0.1C393,102,391.2,102.4,389.9,104.1z"/>
		<path class="st32" d="M282.2,132.1c-1.1,1.6-2.1,3.1-3.2,4.7c1.8,0.8,3.8-0.4,5.4,1c-1.4,0.3-2.8,0.7-4.1,1
			c-6.3,0.8-9.7,5.5-8.3,11.3c-3,5-6,10-8.9,14.9c-4.4-1-4.9-1.8-3.1-5.4c0.8-1.6,1.8-3.2,1.8-5.1c2.6-6.4,7-11.6,10.5-17.4
			c2.1-3.5,2.8-8,7-10c1.2-0.3,2.3-2.1,3.6-0.3c0.3,0.7,0.3,1.3,0.2,2C282.7,129.9,282.8,131.1,282.2,132.1z"/>
		<path class="st33" d="M262.3,155.1c1.7,1.8,0,3.2-0.9,4.2c-2.5,2.9-1.5,4.6,1.6,5.8c-2.3,4-4.7,8-7,12c-2.6,3.2-5.2,6.4-10.1,4.6
			c1.3-8.2,7.2-13.9,11.1-20.7C258.3,158.8,258.8,155.6,262.3,155.1z"/>
		<path class="st34" d="M368.1,128c3.2,1.4,6.8-0.7,10,1.2c-2.5,5.9-6.1,10.9-11.8,14.2c-3.8-2.3-3.8-5.6-2.1-9.2
			c-0.5-2.6,1.8-4,2.6-6C367.2,127.9,367.6,127.8,368.1,128z"/>
		<path class="st35" d="M246.3,182.1c3.3-1.6,6.8-2.7,9.7-5c-2.9,6-5.8,12.1-8.7,18.1c-0.7-0.4-1.3-1.2-2.1-1.1
			c-4,0.6-3.6-2-3.4-4.5C242.6,186.8,243.3,183.7,246.3,182.1z"/>
		<path class="st36" d="M236.3,223.9c0-5.3,0-10.6,0-15.8c0.3,0,0.5,0,0.8,0c0.1,2.2,0.3,4.5,0.4,6.7c0.3,0,0.5,0,0.8,0
			c0-3.6,0-7.2,0-10.7c0.2-0.1,0.5-0.1,0.7-0.2c4.2,1.1,2.9,4.9,3.8,7.7c-0.2,2.9,0.5,5.9-0.4,8.7
			C241.5,223.5,239.3,224.3,236.3,223.9z"/>
		<path class="st37" d="M242.3,190.1c0.1,0.8,2,2.6,2.9,3.1c0.8,0.4,2.4,0.4,2,2.1c-0.4,2.3-1.6,4.3-2.9,6.2c-3-1.4-4.2,1.5-6.1,2.6
			l0,0c-0.7-0.3-1.3-0.7-2-1C235.8,197.6,238.5,193.6,242.3,190.1z"/>
		<path class="st38" d="M271.9,150.1c-1-0.2-2.1-0.5-2.3-1.6c-1-4.8,5.7-11,10.6-9.7C276,141.6,274.7,146.4,271.9,150.1z"/>
		<path class="st39" d="M418.2,87.5c0-1.4-0.1-2.8-0.1-4.2c-1.9-2.7-1.9-5.4,0.1-8.1c1.1,0.4,2.2,0.8,3.2,1.1
			C420,80,423.3,84.9,418.2,87.5z"/>
		<path class="st10" d="M238.2,204c2.1-4.1,3.7-4.8,6.1-2.6c-0.7,1.8-1.4,3.6-2.1,5.4c0.5,1.1,0.8,2.2-0.2,3.1
			C241.1,207.8,240.8,205.2,238.2,204z"/>
		<path class="st40" d="M242.1,210c0.1-1,0.2-2.1,0.2-3.1c1.1,4.5,1.8,8.9,0,13.4C242.3,216.8,242.2,213.4,242.1,210z"/>
		<path class="st41" d="M235.1,219c-0.3,4.2-3.6,4.9-6.7,5.7c-17.7-3.3-35.5-6.5-53.2-9.8c-1.4-0.8-3.4-0.9-3.6-3.1
			c0.4-6.1,0.9-12.2,2.5-18.2c0.3-1.2,0.3-3,2.3-2.6c1.4,0.3,2.4,1.4,2.2,2.9c-0.8,5.4,3.5,5,6.5,5c3.3,0.1,5.4,1.2,7.7,3.5
			c3,2.9,6.9,5.1,11.3,5c3.1-0.1,6.1,1.3,9.3,0.3c1.1-0.3,2.2,0.6,3.2,1.2c1,0.7,1.8,1.9,2.8,1.9C225.8,211.3,229.3,217.5,235.1,219
			z"/>
		<path class="st42" d="M172.3,212c0.3,1.6,2.1,1.9,2.9,3c-8.5-1.3-9.7-2.5-10.7-10.7c-1.4-12.1-0.7-23.6,3.3-35.6
			c6.6-19.7,15.9-37.9,27.4-54.9c5.5-8.1,7.8-16.1,7-25.5c-0.4-1.2,0.4-1.4,1.3-1.5c1.6,0.5,1.8,1.9,2.1,3.3
			c0.4,3.8,1.6,7.5,0.7,11.3c-0.2,1-0.6,2-0.8,3c-4.3,8.8-10.4,16.5-14.9,25.2c-5.3,10.3-11.8,20-14.6,31.4c-0.3,1.4-0.7,3-2.6,3.2
			c-1.1-1-0.6-1.9-0.5-2.6c-0.9,1.6-0.4,4.1-1.4,6.1c-0.7,2.1-1.5,4.2-2.1,6.4c-5.5,11-1.5,22.5-1.9,33.7c0.4,0.7,0.8-0.3,0.3,0
			c-0.1,0.1-0.3,0-0.3-0.4c0-4.6-1.3-9.2,0.8-13.6c2.7,0.7,2.3,3,2.3,4.8C170.5,203.2,171.3,207.6,172.3,212z"/>
		<path class="st43" d="M265.5,25.6c-1.6,3.8-4.1,6.9-6.9,9.8c-4.8-4-9.6-8.1-14.5-12c-2.3-1.8-4-4.8-8-3.5
			c-1.3,0.4-2.8-1.3-2.9-3.3c-0.2-2.7,1-4.3,3.2-5.6c1.9-1.1,3.9-0.3,4.2,1.1c1,4.3,4.7,4.7,7.7,6C253.9,20.7,259.7,23.1,265.5,25.6
			z"/>
		<path class="st44" d="M222.2,60.5c-0.4,0.9-1.3,1.7-0.7,2.8c0.8,1.4,1.7,0.4,2.4-0.1c2-1.4,3.8,0.3,5.7,0.3
			c4.5-0.1,9,0.2,10.7-5.5c0.8-2.6,2.6-0.9,3.6-0.4c2.1,1,1.5,2.8,0.3,4.1c-2.4,2.5-3.2,5.3-2.1,8.6c-0.3,1.1-1,1.6-2,1.9
			c-3.9-0.5-7.6-0.7-9.8,3.5c-7.6-1.3-11.2-6.6-13.2-13.4C218.6,61,220.4,60.8,222.2,60.5z"/>
		<path class="st45" d="M195.5,77.2c-0.3-9.9-0.3-9.9,8.8-12.3c1.6-0.4,3.2-0.6,4.8-1c2.7,1.3,4.3,3.1,3.4,6.4
			c-0.6,0.6-1.4,0.8-2.2,1.1c-4.3,1.5-8.4,3.1-8.2,8.8c0,0.8-0.6,1.5-1.3,2C197.2,82.6,195.9,80.4,195.5,77.2z"/>
		<path class="st46" d="M217.1,62.1c3.4,4.1,5.3,9.4,10.5,12c0.9,0.4,1.6,1.1,2.7,1.1c0.1,0.2,0.2,0.4,0.2,0.6c-1,3.3-5,2.9-6.7,5.3
			c-0.8,0.6-1.7,0.8-2.6,0.3c-0.4-0.5-0.5-1.2-0.5-1.8c0.6-5.6,0.4-5.7-5.3-4c-0.5,0-0.9-0.1-1.4-0.3c-0.9-1.2-1.3-2.5-1.3-4
			c1.5-2.8,0.3-6.3,2.6-8.9C215.9,62.3,216.5,62.2,217.1,62.1z"/>
		<path class="st47" d="M195.5,77.2c1.6,1.7,2.4,4,4.7,5c1.6,1.2,3,2.5,3.2,4.7c-0.4,0.5-0.9,1-1.3,1.5c-4-3.1-6.6-7.4-10-11.1
			c-0.6-1.1-0.8-2,1-2C194,75.9,194.8,76.6,195.5,77.2z"/>
		<path class="st48" d="M215.3,62.4c-0.7,2.9,0.4,6.3-2,8.8c-0.9,0.2-1.2-0.1-1.1-1c0.1-2.6-2-4.2-3.1-6.3
			C211.2,63.5,213.2,63,215.3,62.4z"/>
		<path class="st49" d="M193.2,75.3c-0.9,0.4-0.9,1.2-1,2c-2.5-3.5,0.1-6.5,0.8-9.7C195.1,70.2,193.8,72.7,193.2,75.3z"/>
		<path class="st50" d="M301.1,8.3c1.6,3.2,3.3,6.4,4.8,9.5c4-2.1,0.7-5.6,2.3-8c0.4-0.8,1.1-1.4,1.9-1.3c4.6,1,9.5,0.1,14,1.8
			c7-0.3,14,0.5,21-0.9c1.5,1.6,3.4,0.9,5.2,0.9c20.7,0,41.4,0,62.1,0c1.6,0,3.2-0.6,4.8-1c1.6,0,3.2-0.2,4.4,1.2c1,2,0.9,4,0.4,6.1
			c-0.2,0.5-0.4,0.9-0.8,1.2c-1.3,1-2.7,1.8-3.9,2.9c-5.1,3.8-11.1,2.4-16.7,2.4c-3.8,0-7.5-1.2-11.4-0.9
			c-6.7-0.1-13.3-2.3-20.1-1.5c-0.7,0.1-1.4,0.2-1.9-0.3c-3.6-3.2-1.1,1.8-2.3,1.7c-0.7,1.4-2.1,3-3.3,2.3c-4-2.3-7.1,0.2-10.4,1.5
			c-0.5-0.1-0.9-0.3-1.1-0.7c0.1-2.2,1.6-3.3,3.3-4.2c1-0.2,1.7-0.9,2.4-1.6c-1,0.8-1.9,1.8-3.4,1.3c-4-1.8-2.3,2.2-3.4,3.4
			c-0.3,0.7-0.8,1.2-1.4,1.5c-0.5,0.1-0.9,0.1-1.4,0c-0.4-0.3-0.7-0.6-1-1c-1.1-4.2-4.8-3-7.6-3.5c-1.5-1.6-1.6,2.1-3,0.8
			c-2.3-1-4.2,1-6.3,0.9c-0.7,0-1.3-0.3-1.9-0.7c-5.8-0.2-11.6-1-17.2,1.1c-2.2,0.7-4.4,1.3-2.5,4.6c0.6,1,0,2.6-0.2,3.9
			c-0.1,0.7-0.4,1.4-0.9,2c-0.7,0.4-1.4,0.5-2.1,0.5c-4.5-1.2-8.8-3.3-13.5-3.7c-1.2-0.1-2.1-0.7-2.8-1.8c-0.1-0.5-0.1-0.9,0.1-1.4
			c1.1-1.3,3.3-0.4,4.2-2.2c-0.9-1.7-2.8-0.4-3.9-1.2c-1.5-1.4-0.8-3-0.4-4.6c0.1-0.4,0.3-0.9,0.4-1.3c0.4-1.7,0.6-3.4,0.1-5.2
			c-0.2-0.4-0.4-0.7-0.5-1.1c0.1-0.4,0.1-0.8,0.2-1.2C291.8,9.6,296.5,9,301.1,8.3z"/>
		<path class="st44" d="M257.3,65.3c-4.7-1.2-6.7-5.4-9.4-8.8c-0.8-1-0.3-1.9,0.8-2.4c2.4-1.1,3.9-3.5,6.7-4.1c1.8-0.4,3.7-1,3.5-4
			c-0.1-1.8,1.4-2,2.5-0.4c0.8,0.9,0.9,2.1,1.1,3.2c0.7,2.2,1.8,3.6,4.4,2.6c0.9-1.2,1.9-2.1,3.5-2.2c0,8.9-3.8,14.3-11.3,16
			C258.6,65.8,257.9,65.8,257.3,65.3z"/>
		<path class="st51" d="M257.3,65.3c0.6,0,1.3,0,1.9,0c0.9,1.6,1.6,3.4,4.1,2.1c0.4-0.2,1-0.3,1.5-0.2c5.2,1.2,7.4,0.7,7-6.1
			c-0.2-4.2,1.8-9.1,1.8-13.9c0-0.3,1-0.7,1.5-1c2.9,3.8,2.2,8.4,2.9,12.7c-0.6,2.2-1.5,4.3-1.2,6.7c0.6,4.4-1.3,6.9-5.7,7.6
			c-9.1-1.8-18.2-2.3-27.2,0.6c-1.5-0.4-3.5-0.2-3.5-2.6c0.6-0.4,1.3-0.7,1.9-1.1c1.4-0.6,2.7-1.3,4.1-1.9c1.2-2.3,2.9-2.5,5-1
			C253.5,67.4,255.7,67.1,257.3,65.3z"/>
		<path class="st52" d="M277.2,59.2c-1.6-4.2-1.4-8.7-2.1-13c0-0.6,0.1-1.3,0.1-1.9c-1.5-4.3,0.6-8.1,1.8-12
			c1.7-0.6,1.9,0.7,2.3,1.8c0.3,1.4,0.3,2.8,0.3,4.2c-0.1,2.2,0,4.3,0,6.5c-0.2,4.6-0.3,9.2,0.9,13.7c0.7,2.4,1.7,4.3,4.7,3.8
			c2.8,1.5,6,2.6,2.6,6.9c-1.2,1.5,0,4.2,2.4,5.1c0.7,0.8,0.9,1.8,0.4,2.8c-2.1,0.8-4.3,0.2-5.3-1.3C282,70.6,277.6,65.8,277.2,59.2
			z"/>
		<path class="st53" d="M261.3,48.7c0.1-1,0.1-2.1,0.2-3.1c1.6-2,3.2-4,6.1-2.9c3,1.2,3.5,3.7,2.9,6.5c-1.1,1-2.2,1.9-3.4,2.9
			C264,52.9,262.4,51.3,261.3,48.7z"/>
		<path class="st54" d="M279.4,27.3c1.2-1.1,0.7-2.6,0.8-3.9c1.1-2.6,2.4-4.9,5.8-4.3c0.9,4.2,0.3,8.4-0.1,12.6
			c-1.2,1.6-3.3,1.7-4.7,3.3c-2.7,3-2.4,0.1-2.5-1.6C278.5,31.4,277.1,29.1,279.4,27.3z"/>
		<path class="st55" d="M277.4,32.4c-0.7,4-1.5,7.9-2.2,11.9c-2.6-0.5-1.7-2.2-1.5-3.9c0.7-5.2,2.5-10.2,2.6-15.5
			c0-0.9-0.1-2.4,1.3-2.1c1.2,0.2,0.7,1.7,0.8,2.6C279.1,27.9,278.6,30.2,277.4,32.4z"/>
		<path class="st56" d="M285.2,19.2c-1.7,1.4-3.3,2.8-5,4.2c-0.8-0.5-1.1-1.3-0.5-2.1c2.4-3.3,4.8-6.5,7.3-9.8l0.1-0.1
			c2.8,1.7-0.2,4.9,1.7,6.8l-0.4,0.2C287.5,19.4,286.2,18.7,285.2,19.2z"/>
		<path class="st44" d="M251.2,67.2c-1.7,0-3.4,0-5,1c-3-0.7-2.4-2.9-1.6-4.6c1.5-3.1,3.5,0.3,5.5,0C252.6,63.4,252,65.7,251.2,67.2
			z"/>
		<path class="st57" d="M277.4,32.4c0.3-2.3,0.7-4.7,1-7c0.3,0.6,0.7,1.3,1,1.9c-0.1,2.3-0.1,4.6-0.2,6.9c-0.2,0.4-0.5,0.5-0.8,0.1
			C278,33.7,277.7,33.1,277.4,32.4z"/>
		<path class="st58" d="M546.9,14.5c0,0.3,0,0.5-0.1,0.7c-2.3,0.5-2,0.4-1.6,2.5c0.4,2-1.2,3.6-2.2,5.2c-0.3,1.2-1.3,1.4-2.3,1.6
			c-14.8,0.1-29.7-0.2-44.5,0.7c-11.3-1.6-22.7-1.5-34.1-1.6c-6.4-0.1-12.8,0.8-19.2-0.2c-5.3-3.7-10,0.1-14.9,1.2
			c-2.9-1.8-1.6-5.2-2.6-7.7c-0.3-1.2-0.9-2.4-0.3-3.7c0.7-0.4,1.4-0.5,2.1,0.1c9.4,0.7,18.7-1,28-1c3.7-2.3,7.3-2,11,0
			c17,0.3,34,1,51,0c8.8-0.4,17.7-1.8,26.5-0.6c0.6,0.4,0.8,0.9,0.6,1.6C544.8,14.5,545.9,14.2,546.9,14.5z"/>
		<path class="st59" d="M466.1,12.3c-3.7,0-7.3,0-11,0c-0.8-3-0.3-5.6,2-7.9c3.7,0,7.3,0,11,0.1c-0.5,1.7,3.6,5.4-2.2,4.9
			C464.8,9.3,465.8,11.3,466.1,12.3z"/>
		<path class="st60" d="M352.1,4.7c1.2,0.1,2.5,1,3.3-0.6c0.9,0.1,1.8,0.1,2.8,0.2c-1.1,2.1-1.5,3.9,1.8,4c2,0,3.9,0,5.9,1
			c-6.6,0-13.1,0-19.7,0C348.4,8,350.7,6.9,352.1,4.7z"/>
		<path class="st61" d="M427.1,13.3c-0.6,0.1-1.3,0.2-1.9,0.2c-2.5,0.4-2.9-1.8-4-3.1c-1.3-0.2-2.8-0.1-3.9-1.2
			c4.8-3.1,8.9,0.9,13.4,1.2c1.2,0.1,2.3,0.8,3.6,1.4C431.9,12.9,429.2,11.5,427.1,13.3z"/>
		<path class="st62" d="M377.4,8.5c5.9,0,11.8,0,17.7,0c0,0.2,0,0.3,0,0.5c-5.9,0-11.8,0-17.7,0C377.4,8.9,377.4,8.7,377.4,8.5z"/>
		<path class="st63" d="M544,12.3c-9,0-18,0-27,0c7.6-1.5,15.2-2.2,22.9-1.9C541.7,10.4,543.7,9.6,544,12.3z"/>
		<path class="st64" d="M544,12.3c-0.9-1.6-3.1-0.4-4-1.9c-0.4-4.1,3.2-0.4,4.1-2.1c2.5,1.6,1.3,3.4,0.1,5.1
			C544.2,13,544.1,12.6,544,12.3z"/>
		<path class="st65" d="M324.1,10.2c-5.3,0.7-10.6-1.4-15.9-0.5c-0.2-0.6-0.3-1.2-0.5-1.7c0.5-0.9-0.1-2.4,1.6-2.7
			c1.4,3.2,4.5,2.6,6.9,2.8c3.6,0.4,7.2,0.1,10.9,0.1C326.7,10,324.6,8.9,324.1,10.2z"/>
		<path class="st66" d="M243.2,73c9.3-4.1,18.6-3.2,28.1-0.8c7.5,1.5,15.6,10.4,16.2,18c0.1,1.3,0.2,2.6,0.6,3.9c0.2,1,0.4,2,0.4,3
			c1.9,9.8-2.9,18-6.7,26.3c-0.7,1.5-1.5,2.9-1.6,4.6c-1.8,0-2.6,1.2-3.2,2.6c-4.2,8.5-10,16.1-14.7,24.4c-5.6,8.8-12.1,17.1-16,27
			c-1.3,2.7-2.6,5.3-4,8c-2,4.3-4.1,8.6-6.1,13c-2.5,5.2-0.3,10.7-1.1,16c-4.5,1.9-6.3-3.5-10.1-3.5c0.4-0.8,0.9-1.5,1.6-2.9
			c-4.6,2.2-7.7,0.4-10.6-2.3c-1.4-1.3-3.1-0.7-4.6-0.9c-4.2-0.6-8.8,1-12.8-1.7c-1.6-1.1-3-2.7-5.3-1.8c-0.3,0.1-0.9,0-0.9,0
			c-1.3-8.8-9-4.1-13.4-6.1c-2.5-1.1-2.7-2.9-2-4.5c0.8-1.8,0.8-2.7-1.2-3.4c-2.3,6.6-1.8,13.6-3.5,20.2c-3.4-2.8-2.8-6.6-3-10.3
			c-0.1-2.4-0.5-4.8-0.7-7.2c-1.7-1.1-1.6-2.9-1.7-4.7c0-3.8,0-7.6,1.3-11.2c0.1-0.5,0.2-1,0.3-1.5c0.8-2.3,1.4-4.6,2.1-6.9
			c1.1-1.8,1-4.2,2.8-5.7c4.8-16.3,13.6-30.7,21.9-45.4c2.8-5,6.8-9.3,9.2-14.6c7.2-8.5,15-16.4,23.3-23.8c3.1-3.5,6.9-5.7,11.3-7.1
			C240.4,73.2,241.7,72.5,243.2,73z"/>
		<path class="st67" d="M545,30.4c-0.1,0.9-0.1,1.9-0.2,2.8c-5.7,0.8-11.5-0.3-17.2,0.4c-3-0.4-5.8-0.7-8.6,1.1
			c-2.3,1.4-4.8-0.6-7.5-0.5c1.4,2.8,0.2,4.5-2.4,5.3c-2.6,0.8-3.4-1.1-4.2-3.1c-1.5-3.7-4.6-3.7-7.9-3.3
			c-8.5,0.8-17.1,0.7-25.6,0.8c-0.9,0-1.5-0.6-1.8-1.5c-0.2-1.4,0.3-2.6,1.4-3.5c0.5-0.2,1-0.3,1.6-0.3c4.7,0.8,9.4-1.6,14.1-0.6
			c2.7,0.5,5.3,1.6,8,0c0.5-0.1,1.1-0.1,1.6-0.1c4.9-0.7,9.9,2.2,14.8-0.4c7.5,0.9,15.2-1.3,22.7,1.2c2.4,0.8,4.8-1.1,7.4-0.5
			c1.7-0.2,2,1.8,3.4,2.2C544.6,30.4,544.8,30.4,545,30.4z"/>
		<path class="st68" d="M544.4,30.3c-2,2.2-1.4-1.1-2.3-1.1c-0.3-0.3-0.6-0.6-0.9-0.8c-1.3-0.7-2.5-1.5-2.6-3.2c0-1,0.9-1.4,1.4-2
			c1-0.1,2-0.2,3-0.4C543.4,25.3,543.9,27.8,544.4,30.3z"/>
		<path class="st69" d="M544.9,50.3c-2.4,0.5-4.9,0.5-6.9,2.3c-2.2,2-3.6-1.3-5.9-1c-4.7,0.6-9.5,0.9-14.1,2.2
			c-5.4,1.5-10.8-0.6-16.2,0c-1.3,0.2-2.2-1.4-2.7-2.6c2-1.7,4.5-2.4,7-2.1c5.3,0.5,10.5-1,15.8-0.7c0.3,0,0.7,0.1,1,0
			c7.1-3.4,14.2,0.3,21.3-0.1c0.7,0,1.4,0,2.1,0C545.8,48.9,545.3,49.6,544.9,50.3z"/>
		<path class="st70" d="M544.1,48.3c-4.3,1.3-8.6,1.9-12.9-0.3c-0.9-0.5-1.8-0.9-2.8-0.3c-6.3,3.7-13.3,2.1-20.1,2.6
			c-3.1,0.2-6.2,0.6-9.3,1c0-0.3,0-0.6-0.1-0.9c-1.4-0.9-2.2-2-1.4-3.8c3.3-3.2,7.4-1.7,11.2-1.9c1.5-0.1,3.1,0.5,4.3-0.6
			c2.6-2.5,5.6-2.3,8.8-1.4c1.8,0.5,3.7,1,3.9-1.9c0.1-1.2,0-2.5,0.2-3.7c0.2-0.8,0.5-1.5,1.1-2c2.1-0.7,2.7,0.7,3.1,2.3
			c-0.2,3.2,0.5,5.5,4.6,4.7c1.3-0.3,2.9,0.6,4.4,0.2c1.2-0.1,2.4-0.1,3.5,0.3c0.7,0.3,1.1,0.9,1.5,1.5
			C542.6,45.5,541.5,46.9,544.1,48.3z"/>
		<path class="st71" d="M544.1,44.1c-0.4-0.2-0.8-0.4-1.1-0.5c-3.3-2.7-3.1-3.4,1.9-6.4c0.4,0,0.8,0.1,1.1,0.1
			C546.5,39.9,546,42.2,544.1,44.1z"/>
		<path class="st72" d="M544.8,37.2c-0.5,0.9-0.9,2.5-1.6,2.7c-4,1.1-0.5,2.5-0.3,3.7c-1.3-0.1-2.6-0.2-3.9-0.3c-2.7-2.9-7.3-2-10-5
			c-0.1-1.4,0.1-2.9-2-3c-0.9-1-0.8-2,0-3c5.9,0,11.9-1.4,17.8,1C543.8,34.5,545.1,35.8,544.8,37.2z"/>
		<path class="st73" d="M294.2,76.2c5.4-1.8,11.1-1.7,16.6-1.8c23.8-0.4,47.6-0.1,71.4-0.1c3.5,2.2,6.7,4.7,11.1,1.4
			c1.4-1.1,4.1-1.1,5.3,1.1c1.4,2.6,0.7,5.2-1.3,7.3c-1.2,1.3-2.9,2.7-4.3,2c-5.3-2.6-10.5,3.4-15.7-0.3c-1.9-1.3-2.2-3.2-2.2-5.6
			c-1.3,8.2-8.3,6.6-13.3,7.6c-2.8,0.6-5.7,0.9-8.5,1.9c-5.8-1.3-11.4-2.7-17.6-1.4c-3.1,0.6-6.2-0.2-9.5,1.7
			c-2.8,1.6-5.7-0.9-6.6-4.1c-0.4-1.4-0.7-0.4-1.1-0.5c-2.4-3.3-5.9-2.5-9.1-2.4C306.1,77,299.3,78.3,294.2,76.2z"/>
		<path class="st74" d="M353.2,89.2c3.2-4.3,8.1-1.8,12.2-3.1c3.9-1.2,8.5-0.3,8-6.5c-0.1-1.2,0.8-2.3,2.3-1.8
			c1.3,0.4,1.7,1.6,1.2,2.8c-0.8,1.9-1.1,3.8,1.2,4.5c2,0.6,4.1,2.6,6.3-0.3c1.4-1.9,3.7-0.8,5.5-0.1c3.4,1.4,5.9,0.2,7.6-2.7
			c0.9-1.6,1.2-3.7-0.2-5.1c-1.3-1.3-3.4-1-4.6,0.1c-5.2,4.9-7.8,0.8-10.6-2.7c10.4,0,20.9,0,31.3,0c1.6,0,3.4-0.6,4.7,1
			c0,2.7-0.1,5.4-0.1,8.1c-2.5,1.2-4.3,5.4-8,1.9c-2.9-0.8-5.8-2.4-8.5,0.4c-4,6.3-10.3,3.7-15.8,3.8c-6.4,0.2-12.9-2.4-19,1
			c-3.1,1.7-6.3,1.7-9.6,1.8C355.2,92.3,353.1,92.1,353.2,89.2z"/>
		<path class="st75" d="M421,53.4c-0.8,0.1-2.1,0.6-2.3,0.3c-2-3.1-3.3-1.6-4.7,0.5c-0.8,1.2-2.3,1.5-3.1,0.9
			c-4.3-3-9.2-0.3-13.8-1.6c-3.6-1-7.8-1.1-11.7,0.4c-3.5,1.3-7.1,0.1-10.2-0.9c-6.4-2-12.3,0.2-18.4,0.9c-2.8,0.3-5.5,0.6-7.7-1.7
			c-3.4,0.1-6.5-1.7-10-1c-0.7,0.3-1.3,0.7-2,1c-3.3,0.1-6.7,1.1-10,0l0,0c-0.2-0.3-0.3-0.6-0.3-0.9s0.1-0.5,0.1-0.5
			c2.9-3,6.2-4.1,10.5-4.4c4.7-0.3,8.9-0.6,13.1,2c2.6,1.6,4.6-2.1,7.3-2.1c0.5-0.1,0.9-0.2,1.4-0.2c12,0.5,24,1.5,35.8,0.2
			c0.8,0.5,0.6-0.1,0.3-0.1c-2,0.2-2.1-0.9-1.5-2.4c0.6-0.5,1.3-0.7,2-0.7c0.3,0,0.8,0,1,0.2c5.4,5.5,11.8,5.6,18.6,3.7
			c1.6-0.4,3.1,0.7,4.6,1.6c1.1,1.1,1.8,2.4,1.4,4.1C421.3,53,421.2,53.2,421,53.4z"/>
		<path class="st76" d="M294.2,76.2c2.1,0,4.2,0,6.3,0c3.7,0,7.3,0.2,8,5c0.1,0.5,1.3,0.7,2,1.1c0.4,0.9,0,1.6-0.7,2.2
			c-2.9,5.8-3.2,6.1-8.1,1.7c-3-2.7-5.8-0.6-8.7-0.9c-0.4-0.4-0.6-0.8-0.8-1.3c-0.4-2.7-1.1-5.4,1-7.8
			C293.6,76.2,293.9,76.2,294.2,76.2z"/>
		<path class="st77" d="M285.2,62.2c-4,2.9-5.1,0-6-3.1c-1.2-4.5-1.2-9.2-1-13.8c0.2,0,0.5-0.1,0.5,0c1.5,4.4,5.7,5.9,9.1,8.3
			c0.4,2,0.9,4-0.7,5.7C286.5,60.2,285.9,61.2,285.2,62.2z"/>
		<path class="st78" d="M304,54.3c-4.8,2-9.8,1-14.7,0.9c-1.3-1.4-1.5-3.1-1.3-5c1.3-1.7,3.1-1.8,4.9-1.3c3.8,0.9,7.6,1,11.5,1
			C305.5,51.5,306.5,53,304,54.3z"/>
		<path class="st79" d="M364.9,69.1c-18.8,0-37.7,0-56.5,0C327.2,66.8,346.1,68.7,364.9,69.1z"/>
		<path class="st80" d="M327.2,51.2c0,0.3,0,0.7,0,1c-6.7,0.5-13.3,1.8-20,1c-1-1.3-0.8-2.5,0.5-3.5c4.6-1.2,9.4-1.1,14.1-1.6
			C324.1,47.9,326.4,48.5,327.2,51.2z"/>
		<path class="st81" d="M308.2,50.2c-1.1,0.8-0.9,1.9-1,3c-0.9,1.7,1.3,4.3-2,5.4c-0.4-1.5-0.8-2.9-1.3-4.4c1.1-1.3,0.5-2.6,0.2-3.9
			c-0.4-0.6-0.6-1.2-0.6-1.9c0.6-2.1,0.9-4.2,0.1-6.4c0-0.5,0.1-0.9,0.3-1.4c0.6-1.1,1.3-2.1,2.8-1.8c1.9,0.7,2.6,2,2.5,4
			c-0.1,1.4-0.7,2.6-0.6,4C308.5,48.1,308.9,49.2,308.2,50.2z"/>
		<path class="st75" d="M424.1,46.2c0,3.4,0,6.7,0,10.1c-2.2,3.9-0.1,8.3-2,12.3c-1-5,0.5-10.3-1.1-15.2l0.1-0.1
			c1.2-1.3-0.3-2.8,0.3-4.1C422,47.9,422,46.1,424.1,46.2z"/>
		<path class="st82" d="M293.3,76.2c-0.1,3-0.2,5.9-0.2,8.9c-3.6,2-4.7,0-4.9-3.1c-0.1-1.8,0.5-3.5,2-4.8c0-1,0.1-2,0.1-3
			C291.8,74.1,293.1,74.3,293.3,76.2z"/>
		<path class="st80" d="M327.2,52.2c3.3-0.2,6.7-3,10,0C333.9,55.3,330.5,55.4,327.2,52.2z"/>
		<path class="st80" d="M339.2,51.2c3.7-3.5,6.7,0.5,10,1C345.7,53.3,342.2,54.2,339.2,51.2z"/>
		<path class="st83" d="M288.2,50.2c1,1.5,1.1,3.3,1.1,5c-1.2,1.1,2.2,4.5-2.1,4c0-2,0-4,0-6C286.5,51.9,286,50.6,288.2,50.2z"/>
		<path class="st75" d="M498.1,46.2c-0.2,1.5,0.3,2.8,0.9,4.1c-3.8,4.5-9.4,3.1-13.5,2.6c-10-1.3-19.9,2.4-29.7,0.1
			c-6.2-1.5-12-0.3-18.1,0.2c-6.2,0.5-10.6-3.2-11.5-8.9c2.5-1,4.4,0.6,6.2,1.8c3.2,2.1,6.5,2.9,10.1,1.2c6.8-0.3,13.5-0.7,20.2,1
			c2.2,0.6,4.4,0.2,6.3-0.7c3.6-1.7,7-1.5,10.6-0.3c4.6,1.6,9.5,1.1,14.3,1.1c1.1,0,1.3-0.9,1.3-1.7c0-0.5,0-1,0-1.4
			c0.2-1.3,0.6-2.4,2.1-2.5c0.5,0.1,0.9,0.3,1.2,0.7C498.9,44.5,498.9,45.4,498.1,46.2z"/>
		<path class="st84" d="M442.1,48.3c-3.6,2.8-7,1-10-0.8c-2-1.2-4-2.2-6-3.2c0-0.3,0-0.6,0-1c-1.3-1.8-0.7-3.4,0.4-5
			c1.3-1.1,2.7-1.1,4.1-0.2c5.3,3.6,11.2,4.1,17.4,3.5c2.7,1.4,5.2,1.8,8.3,0.6c2.3-0.9,5.9-1.9,7.3,2.3c-3.7,3.2-8.2,3.6-12.8,3.2
			C447.8,47.4,444.9,47.2,442.1,48.3z"/>
		<path class="st27" d="M441.4,62.4c-0.1-4.5,4.9-8,8.7-6c2.6,1.4,6.4,1.3,7.5,5c0.5,1.7,1,3.7-1.5,3.7c-3.3,0.1-6.6,0.8-9.8,1
			C443.8,66.3,441.9,64.9,441.4,62.4z"/>
		<path class="st85" d="M424.1,46.2c-1.2,0.5-0.6,2.5-2.2,2.8c-2.2,0.1-1.3-1.6-1.4-2.6c-0.2-1.8,0.2-3.6-0.2-5.3
			c-0.1-2.2-0.9-4.3-1.3-6.4c1.1-1.8,1.6-3.7,1.1-5.8c0.1-1.3,0.3-2.5,1.9-2.8c1.5,0.6,2.9,1.3,3.9,2.6c0.3,0.5,0.4,1,0.5,1.6
			c0.5,4.4-0.2,8.7-1,13.1C424.9,44.3,424.5,45.2,424.1,46.2z"/>
		<path class="st75" d="M425.3,43.3c0-4.6-0.1-9.3-0.1-13.9c3.7,1.7,4.2,3.7,2.1,8.8c-0.4,1.7-0.8,3.4-1.2,5.1
			C425.8,43.3,425.6,43.3,425.3,43.3z"/>
		<path class="st86" d="M367.2,128.2c0.5,2.8-2.1,4-3.1,6c-9.4,8.8-21,9.7-33,8.9c-8.7-0.6-17.5-1.1-24.9-6.8
			c-1.6-1.2-3.1-2.4-4.2-4.1c0.6-1.5,1.8-1.9,3.3-1.7c2.1,0.6,3.7,2.1,5.6,3.2c3,1.8,6.2,3.3,9.7,3.7c7.2,0.8,14.5,0.8,21.8,0.8
			c7.7,0.1,13.9-3.9,19.6-8.6C363.7,128.6,365.2,127.3,367.2,128.2z"/>
		<path class="st87" d="M282.2,129.3c0.1-0.7,0.1-1.4,0.2-2.1c0.2-2.6,1.7-4.2,4.2-4.9c3.7-0.4,5.2,1.9,6.4,4.8
			c0.1,1.1,0.2,2.2-1,2.8c-1.2,1-2.4,2-3.6,3C284.9,134,283,132.6,282.2,129.3z"/>
		<path class="st88" d="M291.9,130c0.1-0.9,0.2-1.9,0.2-2.8c0.7-2.1,0.7-4.2,0.1-6.3c0-0.7,0.2-1.4,0.6-2c1.8-1.8,2.8-0.8,3.5,1
			c0.8,2.1,2.3,3.5,4.3,4.3c2.6,1.6,4.9,3.4,5,6.8c-1.2,0.4-2.4,0.7-3.5,1.1c-0.3-0.2-0.7-0.3-0.8-0.5
			C298.7,127.9,295.6,127.4,291.9,130z"/>
		<path class="st89" d="M282.2,129.3c1.5,2.1,3.4,3.5,6.1,3.7c-2.4,2.4-4.4,2-6-1C282.1,131.2,280.8,130.3,282.2,129.3z"/>
		<path class="st90" d="M389.2,99.2c-0.6,1.4-2.1,2.2-2,4c-1.3,3.5-4.3,1.9-6.6,2.2c-1.8,0.2-3.8-2-5.3,0.4c-1.7,2.6,2.4,2.7,2,5.1
			c-2,0.1-3.6-3.4-6.1-1.6c-3.2,0.2-4.2-2.5-5.9-4.4c-0.9-1.6-2.7-2.8-2.4-4.9c3.6-6.7,8.5-8.3,17.8-5.9c0.8,0.2,1.5,1.7,2.4,0.2
			c1.3-2,3.2-3.5,5.3-1.7C390.5,94.1,390.5,96.7,389.2,99.2z"/>
		<path class="st91" d="M366,104.2c1.7,1.6,3.4,3.3,5.1,4.9c1.3,6.6-0.3,12.8-3,18.8c-0.3,0.1-0.6,0.1-0.9,0.2
			c-1.4,0.6-2.8,1.3-4.2,1.9c-1.3-2.6,0.5-4.4,1.5-6.4c2.7-5.6,3.8-10.9-1.6-15.8c-1.3-1.1-2.5-2.8-1.9-4.8
			C363.1,101.9,364.5,103.3,366,104.2z"/>
		<path class="st92" d="M389.2,99.2c-0.1-1-0.4-1.9-0.4-2.9c0-1.9,0.2-3.9-2.5-3.5c-2.1,0.3-3.5,1.7-1.3,4.5
			c-10.1-4.5-16-3.5-21.5,2.9c-3.3,1.1-6.4-0.6-9.6-0.6c-2.1,0-4.2,0.5-6.2,0.9c-7.4,0.2-14.8,0.7-22.2-0.3
			c-1.3-0.2-1.3-2.9-3.6-1.5c-1.6,1-3-0.3-4-1.7c-0.5-0.6-0.7-1.6-1.5-1.9c-4.8-1.6-2.6-3.5-0.3-5.4c1.1-1.3,1.5-3.2,3-4.3
			c0.3-0.8,0.3-2.4,1.3-0.2c2.4,5,4.6,5.4,8.2,1.5c0.5-0.5,0.8-1.1,1.6-0.9c7.2,2.2,14.7-0.4,21.9,1.9c0.5,0.2,0.8,1,1.3,1.5
			c3.6,3.9,8.1,2,11.5,0.6c4.4-1.7,8.8-3.5,13.2-2.3c5.8,1.5,11.6-0.1,17.3,1.1c2.4,0.5,4.1-2.9,6.2-4.4c1.1,2.2,2.1,4.4,1.7,6.9
			c-2.3,2.3-4.8,4.2-9.8,2.9c4.4,3.8,9,3,13.2,5.6C400,101.9,394.6,101.9,389.2,99.2z"/>
		<path class="st93" d="M403,91.2c-2-2-2.3-4.3-1.7-6.9c3.2-2.7,6.2-2.3,8.7,1C409.9,90.8,408.3,92.2,403,91.2z"/>
		<path class="st94" d="M286.3,123.3c-1.5,1.1-3,2.3-3.9,4c-1.4-1.4-1.2,1.1-2.2,0.9c-1.1-1.7-0.6-3.1,0.3-5
			c2.6-5.1,5.3-10.4,6.9-15.8c0.9-3.1,0-6.8-0.1-10.2c0.5-0.2,0.9-0.1,1.3,0.2c0.9,2,1.5,4,2.5,6c0.2,0.7,0.2,1.5,0.1,2.2
			c-0.8,3.9-1.3,7.8-2,11.7C288.5,119.4,286.8,121,286.3,123.3z"/>
		<path class="st95" d="M212.2,70.3c0.4,0.3,0.7,0.6,1.1,1c0.7,1.2,1.1,2.5,1,4c1.8,2.9,0.7,6.1,0.9,9.1c0.1,1-0.5,2.1-1.5,2.4
			c-3,0.9-5.7,2.1-7.9,4.5c-0.5,0.5-1.1-0.3-1.4-0.9c-0.2-1.1,0.1-2.5-1-3.3c-0.9-1.7-3.4-2.2-3.2-4.7c0.3-0.9,0.8-1.8,1-2.8
			c0.4-1.9-0.8-4.9,0.8-5.5C205.4,72.7,208,69.1,212.2,70.3z"/>
		<path class="st96" d="M204.5,90.2c1.2,0.7,1.6,0.1,1.9-1.1c0.5-1.9,1.6-3.2,3.8-2.9c3.8,0.4,4.3-1.5,3.7-4.8
			c-0.4-2,0.2-4.1,0.3-6.2c0.3,0,0.6,0,1,0c2.6,3.4,0.9,7.8,2.5,11.5c-3.6,5.6-6.7,11.7-12.7,15.4C206,98.1,204.2,94.2,204.5,90.2z"
			/>
		<path class="st97" d="M205.1,102.1c4-5.3,8.1-10.6,12.1-15.9c0-2.8,1.8-4,4.1-4.9c0.8,0,1.6-0.2,2-1c2-1.3,3.7-0.9,5.1,1.1
			c-7.5,7.1-14.9,14.3-21.8,22c-0.5,0.5-1.4,0.7-2.1,1C204.2,103.5,204.1,102.6,205.1,102.1z"/>
		<path class="st98" d="M168.1,189c0.2,1.8,0.3,3.6,0.5,5.4c0,5,0,10.1,0,15.1c-0.5,0-1,0-1.6,0c-0.7-12.1-4.5-24.2,1.4-36.2
			c2.4,0.8,1.3,2.4,0.9,3.9l0,0C167.8,180.9,167.3,184.9,168.1,189z"/>
		<path class="st99" d="M169.4,177.1c-0.5-1.3,0.5-2.9-0.9-3.9c0.6-2,1.3-4.1,1.9-6.1c2.4,0.5,1.2,2.1,1,3.3
			C171.1,172.8,170.8,175.2,169.4,177.1z"/>
		<path class="st100" d="M171.4,170.5c-0.2-1.2,0.2-2.5-1-3.3c0.8-2.1,1.5-4.2,2.7-7.3c0.2,2.2,0.2,3.3,0.3,4.5
			C173.1,166.5,172.4,168.6,171.4,170.5z"/>
		<path class="st46" d="M243.2,73c-1.2,0.4-2.5,0.9-3.7,1.3c-3.2-0.8-5.8,3.6-9.2,0.9v-0.1c1-7.2,5.9-4.6,10-4
			C241.2,71.8,242.2,72.4,243.2,73z"/>
		<path class="st101" d="M221.3,81.2c-1.4,1.6-2.7,3.3-4.1,4.9c-0.7,0.2-2.1,0.7-1.7-0.4c1.4-3.6-0.9-7-0.2-10.5
			c1.6-2.7,4.2-2.6,6.3-1.4c2.4,1.4,1.1,3.6,0.1,5.6C221.5,79.9,221.4,80.6,221.3,81.2z"/>
		<path class="st51" d="M230.3,75.3c3.2,1.3,5.9-3.1,9.2-0.9c-4,1.8-8.1,3.5-11.1,6.9c-1.7-0.4-3.4-0.7-5.1-1.1
			C224.6,77.2,229,78.4,230.3,75.3z"/>
		<path class="st102" d="M308.3,43.2c0.1-1.9-1.3-3-2.3-4.4c-2.3-1.6-2.3-3.6-1-5.9c0-0.6,0.1-1.2,0.1-1.8c0.5-0.5,0.7-1.2,1.5-1.2
			c5.8-1.9,11.8-2,17.8-2c2.1,0,4.3-0.2,6.2,1.1c4,3.6,8.5,3.2,12.8,1.1c2.1-1,3.5-1.5,3.6,1.4c0.1,2.7,1.5,3.6,4,3.9
			c2.3,0.2,4.4,1.3,5.8,3.4c0.4,0.9,0.7,1.8,0.7,2.8c-2.8,3-6,2.8-9.4,1.3c-5.2-2.3-10.4-3.7-16.2-1.4c-3.1,1.2-6.9,1.2-9.7,0
			C317,39.1,312.6,39.7,308.3,43.2z"/>
		<path class="st103" d="M346.3,25.3c0.3,0,0.6,0,0.9,0c1,0.4,2-0.7,3,0l0,0c4.4,3,9.2,1.3,13.7,0.6c4.2-0.7,8.2-1.4,12.5-0.7
			c9.1,1.7,18.2,0.4,27.3,0c4.4-0.2,8.8,1.6,13.1-0.3c1.1-0.2,1.9,0.3,2.5,1.2c0.6,1.7,1.1,3.4-0.3,4.9c-5.3,4.1-10.5,1.8-15.7-0.3
			c-3.8-0.1-7.6,0.3-11.4,0.6c-5.5,0.5-11.1-1.3-16.7-0.4c-1.8,0.3-3.6,0.5-5.3,1c-0.5,0.2-1,0.3-1.5,0.3
			c-5.5,1.7-11.1-0.1-16.6,0.9C347.5,33.9,345.3,30.2,346.3,25.3z"/>
		<path class="st57" d="M288.2,50.2c-1.3,0.7-0.9,2-1.1,3c-0.9-0.3-1.9-0.9-2.8-0.8c-4.1,0.3-5.6-1.6-5.2-5.5
			c0.1-0.5-0.6-1.1-0.9-1.7c0.1-2.3,0.1-4.7,0.2-7c4.7,3,4.7,3,5.6-2.8c0.2-1.2,0.3-2.3,1.2-3.2c-0.2-4.3,0.9-8.7,0-13
			c0.8-1.1,2-0.9,3.1-0.8c-0.3,1.6-0.6,3.2-0.9,4.9c0.9,1.3,1,2.6,0,3.9c0,0.3-0.1,0.7-0.1,1c2.2,3.7,1.2,7.7,1.4,11.7
			c-0.5,2.7,0.9,3.9,3.4,5c3.8,1.6,7.7,0.7,11.5,0.9c1.1,0.6,1.3,1.4,0.7,2.5c-0.1,0.7-0.1,1.4-0.2,2.1c-3.4,1.7-6.8,0.8-10.2-0.1
			C292.1,49.8,290.1,49.6,288.2,50.2z"/>
		<path class="st104" d="M417.3,25.2c-1.1,3.4-5.1,2.3-6.2,2.1c-10.9-2-21.8,0.9-32.6-0.1c-0.8-0.1-1.5-0.6-2.3-0.9
			c-0.2-2.2,1.7-2.4,2.9-3.3c0.8-0.5,1.1,1.7,2.8,0.1c1.5-1.5,4.9-0.8,7.3-1.8c1.5,0.1,2.7-1,4.3-0.4c5.9,1.9,12,0.3,18,1.2
			c2.5,0.4,3.2-2.8,5.5-2c0.8,0.1,1.3,0.6,1.6,1.3C419,23,418.5,24.3,417.3,25.2z"/>
		<path class="st105" d="M346.3,25.3c0.9,6.9,1.7,7.4,8.7,5.3c0.3-0.1,0.8-0.3,0.9-0.1c4.2,3.4,8.9-0.3,13.3,0.8
			c-0.5,3.9-3.1,6.5-5.9,8.8c-2.5,2-5,1.4-7.1-0.8c-1.2-1.5-3.1-2.7-4.6-2.6c-4.9,0.3-6.1-2.3-5.4-6.7c-5.1,4-10.6,4-16,0.3
			c3.5-2.4,7.8-0.6,11.4-2.2c2.4-0.2,1.9-3.9,4.5-3.8C346.2,24.6,346.2,25,346.3,25.3z"/>
		<path class="st106" d="M342.2,29.3c-3.9,1.2-8,0.7-12,1c-7.3-1.2-14.6-2.4-21.7,1.3c-0.4,0.2-1.4-0.9-2.1-1.3
			c-1.3-2.3-0.1-3.5,1.9-4.1c1.3-0.4,2.9-0.3,4-1.5c-1-1.5-3.2-0.8-4.1-2.2c0.9-2.2,2.8-2.3,4.6-1.9c3.6,0.8,7.1,0.9,10.5-0.6
			c1.6-0.7,2.8,0.3,3.8,1.5c-2,2.1-4.8,1.9-7.2,2.9c3.8,1.8,6.9,1,8.2-2c1.9-1.4,4.6-1.8,6-1c-0.7,4.9,3.3,4.6,6.2,5.4
			C341.3,27.3,342.6,27.7,342.2,29.3z"/>
		<path class="st107" d="M287.3,41.2c0-4.3,0-8.6,0-13c5.4,1.7,11.4,1.8,16.3,5.1c0.9,2.6,2.1,5.2,0.5,7.9l0,0
			c-1.3,0.7-0.8,2.6-2.1,3.3c-3-3.3-6.5-3.7-10.5-2C289.9,43.2,288.2,43.2,287.3,41.2z"/>
		<path class="st108" d="M379.2,23.2c0.2,2.2-2.3,1.8-3,3.1c-4.3,0.1-8.4-0.1-12.8,1.4c-3.1,1.1-7.3,0.5-11,0.4
			c-1.5,0-2.2-1.3-2.2-2.8c1.5,0,2.4-0.9,3.3-1.8c2-1.9,4.2-2.7,6.4-0.7c1.8,1.7,2.9,0.1,4.2-0.5c3.8-1.6,7.9-1.5,11.9-1.8
			C377.8,20.4,379.3,21,379.2,23.2z"/>
		<path class="st103" d="M379.2,23.2c-2.9-4.2-6.8-1.3-9.9-1c-1.8,0.2-3.4,0.2-5.1,0c0-1.9,0-3.8,0-6.4c4,4.4,8.8,2.5,13.1,3.2
			c3.8,0.6,8.1,0.6,11.9,2.2C386.3,24.4,382.9,24.7,379.2,23.2z"/>
		<path class="st109" d="M340.2,27.3c-0.8-0.2-1.6-0.6-2.4-0.5c-4.7,0.5-5.4-0.6-3.6-5.6c1.3,0.7,1.7-1.6,3-0.9
			c0.8,1.1,1.9,1.3,3.1,0.9c3.6-1.3,4.1,1.5,4.2,3.6C344.6,27.8,342.7,28.4,340.2,27.3z"/>
		<path class="st110" d="M308.2,22.3c1.5,0.1,3,0,4.4,0.3c1.1,0.2,2.4,0.7,2.4,2.1c-0.1,1.6-1.8,1-2.6,1.6c-1.9,1.4-6.2-0.9-6,3.8
			c-0.4,0.3-0.8,0.7-1.3,1c0.1-1.2,0.2-2.3,0.2-3.5C305.3,25.9,307,22.6,308.2,22.3z"/>
		<path class="st111" d="M328.2,22.3c0.4,1.1,2.6,1.3,1.3,3.1c-1,1.5-2.2,0.3-3.1,0.4c-2,0.3-4,1.1-6.1,0.8c-1.4-0.2-3.1-0.9-3-2.8
			c0.1-2.1,1.7-1.1,2.9-1.2c2.3-0.2,4.6-0.9,6.9-1.4C327.5,21.6,327.9,21.9,328.2,22.3z"/>
		<path class="st103" d="M340.2,27.3c1.7-0.1,4,0.2,3.3-2.7c-0.5-2.1-1.2-3.8-4.1-2.1c-2.4,1.5-2.1-0.8-2.3-2.2c0.6,0,1.4,0.2,1.9,0
			c4.2-1.9,5.9,0.7,7.1,4c-1.4,1.6-1,4.7-4,5C341.5,28.6,340.9,27.9,340.2,27.3z"/>
		<path class="st112" d="M421.1,10.4c2.1,0.1,2.4,2.5,4,3.1c0.3,0.9,0.6,1.8,1,2.7c0.5,1.5,0,2.8-0.7,4c-2,0.9-3.1-0.6-4.4-1.6
			c-0.3-0.5-0.2-0.9,0.1-1.3C421.1,15,421.1,12.7,421.1,10.4z"/>
		<path class="st113" d="M287.4,27.2c0-1.3,0-2.6,0-3.9c1.1-0.3,2.2-0.7,3.3-0.9c1.5-0.2,2.5,0.3,2.6,2c0,1.4-0.1,2.7-1.9,2.8
			C290,27.3,288.7,27.2,287.4,27.2z"/>
		<path class="st103" d="M348.2,24.1c0.1-1.4,0-2.9,0.2-4.3c0.2-1.5,1.5-1.4,2.6-1.5c1.9-0.1,1.5,1.1,1.3,2.2
			c0.2,0.4,0.2,0.8-0.1,1.2C350.8,22.5,350.4,24.9,348.2,24.1z"/>
		<path class="st114" d="M421.1,17.3c0,0.3,0.1,0.6,0.2,0.9c0.2,0.4,0.5,0.8,0.6,1.2c-0.2,2.4,0.7,5.2-2.2,6.8c-0.2,0-0.5,0-0.7,0
			c-0.6-0.3-1.2-0.7-1.9-1c0.4-1.3,0.7-2.6,1.1-3.9c0.3-1.5,0.8-2.9,1.9-4C420.5,17.4,420.8,17.3,421.1,17.3z"/>
		<path class="st115" d="M299.8,25.3c-1.8-0.5-4.2,1-5.3-1.3c-0.3-0.6,0.1-1.3,0.8-1.5C297.7,21.8,298.8,23.4,299.8,25.3z"/>
		<path class="st116" d="M304.2,41.3c-0.2-2.6-0.4-5.3-0.5-7.9c0.5-0.1,1-0.2,1.4-0.4c-0.3,2.1,0.3,4,1,5.9
			C305.4,39.6,305.8,41.2,304.2,41.3z"/>
		<path class="st117" d="M348.2,24.1c1.3-1,2.7-1.9,4-2.9c0.5-0.4,0.9-0.4,1.3,0.2c-1.1,1.3-2.2,2.6-3.3,3.9c-1-1.3-2,4.6-3,0
			C347.5,24.9,347.8,24.5,348.2,24.1z"/>
		<path class="st3" d="M288.8,18.2c-2.4-1.8-0.3-4.7-1.7-6.8C291.7,12.7,287.5,16.1,288.8,18.2z"/>
		<path class="st118" d="M353.5,21.4c-0.4-0.1-0.9-0.1-1.3-0.2c0.1-0.2,0.1-0.4,0.1-0.7c2-1.3,4-2.7,6-4
			C357.1,18.6,355.9,20.7,353.5,21.4z"/>
		<path class="st119" d="M420.3,17.4c-0.4,1.4,0.4,3.5-1.9,4c-0.5-0.4-0.9-0.8-1.4-1.2C417.3,18.4,418.9,18,420.3,17.4z"/>
		<path class="st120" d="M300.2,22.4c-2.3-1.7-2.9-3.6-3.9-5.4C298.8,18.1,298.8,18.1,300.2,22.4z"/>
		<path class="st121" d="M261.3,48.7c1.5,1.9,3.3,3.3,5.8,3.4C264.2,53.8,262.6,52.9,261.3,48.7z"/>
		<path class="st122" d="M290.1,77.3c-0.2,1.2-0.4,2.5-0.7,3.7c-0.7,3.1,0.3,4.6,3.6,4.2h0.4c-0.5,1.6-2.6,2.5-1.8,4.7
			c0.2,0.8-0.9,2.5-1.4,2.2c-2.9-1.6-1.8,1.8-3,2.2c-2.2-2.7-0.2-6.3-2.3-9.4c-3.6-5.3-8.2-9.3-13.6-12.6c3.5-1,5.3-2.8,4.1-6.8
			c-0.7-2.1-0.5-4.7,1.9-6.2c2.3,4.6,5.2,9,7.4,13.6C286,75.8,288.8,75.3,290.1,77.3z"/>
		<path class="st123" d="M285.2,32.3c0,1.7,0.1,3.3,0,5c-0.1,2.2-0.1,4.4-3,5c-3.5,0.7-2.6-2.6-3.8-4c0-1.3,0-2.6,0-3.9
			c0.3,0,0.6-0.1,0.8-0.1c0,0.2,0,0.4,0.1,0.5c0.2,0.2,0.4,0.5,0.6,0.7C280.7,32.7,282.1,31.1,285.2,32.3z"/>
		<path class="st124" d="M425.1,20.3c-0.1-1.5,0.3-2.8,1-4c2.2,2.3,0,5.7,2,8.1c1.2,4.8,4.1,7.2,9,7.2c2.6,0,5.2-0.2,7.8-0.4
			c4.2,0.8,8.4,1.6,12.6,2.1c3.5,0.4,5.7,3.7,7.8,6.4c-1.1,2.5-3.1,1.7-5,1.3c-4.2-0.9-8.3-0.4-12.2,1.4c-3.3,0.9-6.7,2.9-9.8-0.6
			c-0.3-0.3-1.4-0.3-1.8,0c-2.7,1.9-4.1,0.4-5.4-1.8c-0.8-1.4-2.3-1.7-3.9-1.7c-0.9-2.9,1.5-6.5-2.1-8.8c-0.1-0.5-0.2-0.9-0.3-1.4
			C423.3,25.4,423.2,22.8,425.1,20.3z"/>
		<path class="st125" d="M542,28.3c0.1,0.3,0.1,0.6,0.1,0.9c-10.4,0.8-20.7-0.5-31-1c-4.9,1.6-10.1-0.8-15,0.9c-0.3,0-0.6,0-1,0
			c-0.5-0.4-1.1-0.6-1.4-1.2c-0.1-1.1,0.3-2.1,1.1-2.9c0.7-0.5,1.7-0.1,2.3-0.8c1.8-1.7,4.1-0.9,6.2-0.9c12.2-0.1,24.5-0.1,36.7-0.1
			c-0.4,0.6-0.7,1.3-1.1,1.9c-1.6,1-3.6,0-5.7,1C536.2,27.6,539.5,26.6,542,28.3z"/>
		<path class="st126" d="M445.1,32.3c-5.3-0.1-10.9,2.1-15.8-2.3c-2.2-1.9-2.9-3.4-1.2-5.7c4.2-3.8,9.7-4.6,14-2
			c0.2,0.3,0.3,0.5,0.3,0.8s-0.1,0.5-0.1,0.5c-1.1,1.6-2.7,1.8-4.4,1.7c-1.6-0.1-3.3-0.5-5.4,0.6c3.7,1.6,7.2,1.4,10.4,1.4
			c6.6,0,13.1,1.6,19.7,0.1c2.8-0.6,5.9,0,8.4,2c-0.3,1-0.7,2-1,3c-3.3,2.2-7,1.6-10.6,1.1C454.7,32.6,449.9,32.7,445.1,32.3z"/>
		<path class="st127" d="M442.1,23.2c0-0.3,0-0.6,0-1c13,0,26-0.2,39,0.1c5.3,0.1,10.8,0.1,15.9,1.9c-0.4,0.8-1.2,1-2,1
			c-5.5,0.5-11,0.5-16.6,0c-8.3-0.8-16.8-0.2-25.2,0.5C449.4,26.1,445,27.6,442.1,23.2z"/>
		<path class="st128" d="M258.2,103.1c-0.1-0.8-0.6-2.3-0.4-2.4c4.1-1.8,0.4-6.8,3.7-9c0.9-0.6-0.1-1.7-0.9-1.8
			c-2.5-0.3-3.3-2.4-4.7-3.9c0.7-1.4,1.7-0.8,2.6-0.5c1.1,0.4,0.5,3.3,2.6,1.9c1.8-1.2-1.2-2.2-0.1-3.8c2.2,1.6,4.7,3.2,7.5,4.2
			c0.8-3-3.2-2.5-2.8-5.7c3.7,2.3,7.1,4.4,8.2,8.3c0.5,1.9,4.5,4.1,0.2,6.5c-1.2,0.7,0.1,1.5,1.3,1.5c2.8,0.1,0.9,1.6,0.8,2.6
			c-1.1,0.8-2.4,1.1-3.5,1.7c1.2-0.6,2.5-0.9,3.5-1.7c0,2.4-0.6,3.4-3.8,4.8c-2.3,1-4.5,1.9-5.6,4.5c1.9,1.1,2.7-2,5.3-0.5
			c-4.4,1.9-7,5.9-11.8,6.3c-3.8-2.2,0-5.3-1-8.1C258.7,106.7,259.4,104.7,258.2,103.1z"/>
		<path class="st129" d="M243.3,125.2c3.2-1-0.2-3,0.6-4.5c2-0.2,2.6,3.9,5.3,1.7c2.4-2,2.4-4.5,2-7.2c-0.6-4.7,1.5-6.4,6.1-5.1
			c1.1,2.6,3.2,5.3-0.6,7.6c-0.1,0,1.1,0,1.6,0.4c2.8,0.4,4.1,3.6,7.7,3.5c-4.6,4-9.1,6.7-15.6,3.3c1,3.6,3,3.4,4.2,4.4
			c1.1,0.9,4.9,0.7,1.2,3.4c-0.6,0.4,0,1.2,0.7,1.4c0.7,0.2,1.2,0.6,0.6,1.3c-0.5,0.6-1.2,0.7-1.8,0.2
			C251.5,131.9,246.3,129.8,243.3,125.2L243.3,125.2z"/>
		<path class="st130" d="M287.1,94.3c0.7-1-1.5-4.2,2.4-2.9c0.9,0.3,1.4-2,1.3-2.7c-0.5-2.4,1.6-2.4,2.6-3.5
			c3.1-2.7,6.3-3.3,9.2,0.2c3.1,3.9,5.1,3.7,6.2-1.4c0.2,0,0.3,0.1,0.5,0.1c0.1,0.1,0.2,0.2,0.3,0.4c0.9,2,2.4,3.6,3.2,5.7
			c-0.1,3.8-2.5,4.2-5.5,3.7c-4.8-0.9-8.3-4.5-12.2-5.3c-0.5,3.2,0.2,7.1-2.7,10.2c-1.7,0.4-3-0.4-4-1.6c-0.3,0-0.6,0-1-0.1
			C287.3,96.2,287.2,95.2,287.1,94.3z"/>
		<path class="st128" d="M219.3,196.2c-0.3-0.7-0.7-1.4-1-2.1c-0.3-0.3-0.4-0.5-0.3-0.7c0.1-0.2,0.2-0.3,0.4-0.3
			c3-1.8,2.5-5.9,5.1-8c2.6-0.5,3.7,0.4,2.8,3.1c0.4,2.1,2.6,1.3,3.9,2.1c-4.3,3.4-4.3,3.4,0.8,5.5c-3.4,0.1-4.3,4.1-7.6,2.4
			c-1,0.8-2,1.8-3.4,0.9C219,198.2,218.3,197.4,219.3,196.2z"/>
		<path class="st129" d="M243.3,125.1c-1.2,1.1-2.6-0.3-3.7-0.3c-0.6,2.7,3,1.8,2.6,4.1c-1.1,1.5-2.2-1.5-3.2-0.2
			c-0.5,0.6-0.1,1.2,0.4,1.7c0.9,0.9,2.6,1,2.6,2.7c-4.4-0.6-4.6-0.8-4.9-6.7c-0.1-2.2,0.1-4.4,0.2-6.5c2.3,0.7,4,2.3,5.8,3.8
			C243.2,124,243.1,124.7,243.3,125.1C243.3,125.2,243.3,125.1,243.3,125.1z"/>
		<path class="st131" d="M258.3,118.1c-1.6,0.4-3,1.4-4.6,2.5c2.9-3.1,5.1-6.2,3.6-10.5c2.3-2.1-2.1-5.1,1-7c1.5,0.1,3.2,0,2.7,2.4
			c-0.4,2.1-3.1,4.6,0.9,6.1c0.3,0.1,0,0.9-0.6,0.9c-3.8,0.3-1.3,2.3-1,3.7C259.2,116.5,258.6,117.2,258.3,118.1z"/>
		<path class="st132" d="M249.3,140.1c-1.2,2.6-3,2.2-5,1c-1.5,0.2-2.2-2.9-4.1-0.9c0,0.6,1.3,1.7-0.4,1.6c-1.1,0-2.7,0.1-2.8-1.9
			s-0.3-4.1-0.5-6.2C241.6,134.5,243.8,140.5,249.3,140.1L249.3,140.1z"/>
		<path class="st133" d="M228.4,204.3c1.3-6.2,4.6-11.6,6.9-17.4c0.4,0.1,0.8,0.3,1.2,0.4c-2.3,5.8-4.6,11.5-6.8,17.3
			C229.3,204.5,228.9,204.4,228.4,204.3z"/>
		<path class="st134" d="M218.4,193c0,0.4-0.1,0.7-0.1,1.1c-1.6-1-4,3.3-5.4-0.6c0-0.1-2.3,0.2-2.2-1.5c0.1-1.6,1.7-1.9,2.8-2.4
			c1.2-0.6,2.3-0.6,2.7,0.9C216.5,191.8,217.7,192.1,218.4,193z"/>
		<path class="st135" d="M226.3,169.1c-0.7-2.4-1.5-4.8,1.6-6.3c1.4-0.7,2.1-0.4,2.5,1.1c0.4,1.4,0.7,2-1.4,1.6
			c-2-0.4-1.7,1.1-0.5,1.9c1.4,0.9,2.1,2,1.9,3.6C227.9,172.4,226.7,171.6,226.3,169.1z"/>
		<path class="st136" d="M226.3,188.1c0-1.9-1-2.9-2.8-3.1c-0.7-1.3-2.5-2-2.2-3.9c2.4-1.3,3.5,0.9,5,2c-0.1,2.4,1.4,3,3.7,2.8
			C229.1,187.6,227.7,187.8,226.3,188.1z"/>
		<path class="st136" d="M222.2,179.1c2.5-1.3,5-2.3,8.4-2.4c-1.2,2.2-3.9,2.3-4.3,4.4C224,182.3,223.2,180.6,222.2,179.1z"/>
		<path class="st137" d="M226.3,169.1c1.1,1.1,2.1,2.4,4,2c-0.1,1.7-0.9,3.2-2.6,2.7c-1.4-0.4-2.4-2-3.6-3
			C224.8,170.2,225.5,169.7,226.3,169.1z"/>
		<path class="st138" d="M222.2,179.1c1.4,0.5,2.3,2.1,4.1,2c1.1,0.6,0.1,1.3,0,1.9c-2.3,0.9-3-2.3-5-2c-0.8-0.5-1.2-1.2-0.7-2
			C221,178.3,221.6,179,222.2,179.1z"/>
		<path class="st139" d="M219.3,196.2c0.1,3.3,2.3,2.1,4.1,1.9c-0.1,1.1,0.3,2.7-1.3,2.6c-1.8-0.1-3.4-1.2-4.3-2.9
			C217.1,196.4,218.2,196.2,219.3,196.2z"/>
		<path class="st99" d="M168.1,189c-1.6-4.2-1.5-8.2,1.2-11.9C169.1,181.1,167.7,185,168.1,189z"/>
		<path class="st135" d="M279.4,106.4c1.2,4.1-1.3,5.2-3,6.8C277.2,111.2,278.1,109.3,279.4,106.4z"/>
		<path class="st140" d="M240.2,140.2c-0.7-0.3-1.6-0.8-1.4-1.7c0.2-1.1,1.1-1,1.8-0.4c1.2,1.1,3,1.3,3.6,3
			C242.4,143.3,241.9,139.2,240.2,140.2z"/>
		<path class="st129" d="M250.4,135.7c-1.4-0.9-2.8-1.9-4.8-3.3C248.7,131.8,250,133,250.4,135.7z"/>
		<path class="st141" d="M249.3,140.1c-0.6-3.6,3.2-1.9,4.3-3.5C252.7,138.6,251.5,139.9,249.3,140.1L249.3,140.1z"/>
		<path class="st142" d="M241.5,149.9c-1.4,0.9-2.7,1.4-4,0.3c-0.2-0.2-0.1-1.2,0.1-1.3C239,148.3,240.3,148.2,241.5,149.9z"/>
		<path class="st143" d="M280.1,103c-1.4-1.9-0.6-3.5-0.4-5C281.7,99.4,281.4,100.9,280.1,103z"/>
		<path class="st134" d="M212.2,197.7c-1.9-0.4-3.8-0.8-3.9-3.3C209.5,195.5,210.9,196.6,212.2,197.7z"/>
		<path class="st144" d="M445.1,32.3c3.9-0.7,7.8-1,11.8-0.2c4.4,0.8,8.8,0.3,13.2,0.3c3.8,0.2,7.8,1.4,11.3,0.5
			c3.9-1,7.4-0.6,11.1-0.2c3.6,0.3,7.1-2.6,10.8-0.1c1.6,1,3.9,1.2,3,4.1c-0.3,1,0.4,2,1.4,2.3c1.3,0.4,2-0.9,3-1.4
			c1.4-0.7,0.9-1.9,0.1-2.4c-3.7-2.1,0.5-1.6,0.7-2.4c5.3,3.5,10.3-2.5,15.6-0.4c0,1,0,2,0,3c0,0.7,0,1.3-0.1,2
			c-2.3,1.6-6-1.9-7.5,2.2c-1.9,2-4.4,1.5-6.7,1.8c-3.1-0.3-6.2,0.6-9.4,0.3c-2.4-1.5-2.9,3.1-5.3,1.7l0,0
			c-4.8-0.7-9.2-4.3-14.5-1.4c-2.2,1.2-4.8-0.2-7.2-0.9c-3.7-1.2-7.3-2.6-11.3-1.7c-0.9-0.4-2.1-0.5-2.6-1.2
			c-3-4.5-7.7-4.3-12.1-4.3C448.3,33.8,447.2,31.5,445.1,32.3z"/>
		<path class="st145" d="M442.1,23.2c2.7,2.1,5.8,2.1,8.8,1.6c8.6-1.6,17.5-1.5,26-0.9c5.9,0.4,12.3-1.2,18.1,1.4c-0.3,1-0.7,2-1,3
			c-7.3,0.6-14.7,0.6-22,1h-0.5H471c-11.8-0.3-23.6-0.7-35.4-1c-2.1,0-3.5-1.5-5.5-2.1C433.4,21.4,438.6,26,442.1,23.2z"/>
		<path class="st127" d="M472.1,29.3c7.3-1.7,14.6-1.7,22-1c0.3,0.3,0.7,0.6,1,1C487.4,29.4,479.8,30.3,472.1,29.3z"/>
		<path class="st127" d="M496.1,29.2c4.9-2.1,9.9-1.9,15-0.9c-1.9,2-4.2,2.4-6.7,1.5C501.6,28.9,498.8,29.5,496.1,29.2z"/>
		<path class="st146" d="M542,28.3c-3.8-0.4-8,1-11.7-2.3c3-2.3,5.7-2,8.6-0.8C539.9,26.2,541,27.3,542,28.3z"/>
		<path class="st147" d="M513.1,40.3c2-0.3,4-0.7,6-1c3.6-3.4,5.7-0.2,8,2c0,2.8-0.5,4.4-4.1,3.1c-3.1-1.2-6.7-2.9-9.4,1.3
			c-0.8,1.2-2.7,0.3-4.2,0.3c-3.7-0.1-7.5,0.2-11.2,0.3c0-1,0-2,0-3c2.3,0,1.7-4.8,5-3C506.4,43.5,509.7,40.6,513.1,40.3z"/>
		<path class="st148" d="M529.1,38.3c3.2,1.9,8.5-0.3,10,5c-2.6,1.4-5.4-0.3-8.3,0.3C528.4,44,529.3,40.2,529.1,38.3z"/>
		<path class="st72" d="M527,41.2c-2.8-0.2-4.7-3.8-8-2c1.1-6.7,5.2-1.9,8-2C527,38.6,527,39.9,527,41.2z"/>
		<path class="st149" d="M312.3,90.1c-2-1.3-3.3-3-2.8-5.6c0.4-0.7,0.7-1.5,1.1-2.2c3.9-1.9,7-1.7,8.4,3.1c-0.1,1.7-1.1,3-1.9,4.4
			C315.6,91.6,314,91.5,312.3,90.1z"/>
		<path class="st150" d="M419.7,34.3c2,2,1.3,4.5,1.6,6.9c-0.3,0.3-0.8,0.5-1.2,0.5c-3-0.8-5.3-0.3-5.4,3.4c-0.1,4-2.4,3.1-4.1,1.6
			c-3.1-2.7-7.2-2.1-10.7-3.4c-1.3-0.5-2.6,0.2-3.7,1c-0.7,0-1.3,0-2,0c-10.6,0.4-21.1,0.8-31.7-0.6c-1.2-2.8,1.1-3.5,2.8-4
			c5.8-2,11.5-5.8,17.9-1.3c0.9,0.6,2.5,0.8,3.4,0.1c5.7-4,11.2-1.1,16.7,0.3c2.4,0.6,4.6,0.4,6.8-0.2c0.6-0.2,1.5-0.1,1.4-1
			c-0.5-6.4,4.1-3.7,7.1-4C419,33.6,419.4,33.9,419.7,34.3z"/>
		<path class="st150" d="M308.3,43.2c2.7-5.2,7.8-6.3,12.9-3.6c3.4,1.8,7.6,1.9,11,0.4c5.6-2.5,11-1.1,15.5,1.2c3.8,2,6.3,1.1,9.5,0
			c2.1-1.1,3,0.2,3.8,1.8c0.4,1.8-0.1,3.3-1.8,4.2c-0.3,0-0.7,0-1,0c-3.7,0.8-7.1-0.4-10.5-1.7c-2.3-0.9-4.3-1.4-6.5,0.1
			c-2.6,1.7-5.5,0.2-8.2,0.3c-5.6,0.3-11.2,1-16.7-0.9c-2-0.7-4.1,1.1-6.1,1.8c-0.9,0.3-1.8,0.8-2.9,0.4
			C307.1,45.8,307.6,44.5,308.3,43.2z"/>
		<path class="st151" d="M307.3,47.3c4.1-2.3,7.9-5.8,13.1-2.2c0.7,0.5,2,0.1,2.9,0.2c4.6,0.3,9.3-1.5,13.7-0.2
			c2.8,0.9,3.8-1.6,5.9-1.8c3.9-0.5,6.9,2.3,10.5,2.7c1.5,0.2,3,1.4,4.7,1.3c-4.1,3.5-8.1,4.1-12.5,0.3c-1.3-1.1-2.9-1.5-4.5-0.1
			c-0.5,0.5-1.7,0.9-2.3,0.7c-4.7-1.9-8,1.5-11.8,3.1c-4.4-4.2-9.5-0.4-14.2-0.9c-1.5-0.2-3.2,0.3-4.8-0.1
			C307.9,49.2,307.6,48.2,307.3,47.3z"/>
		<path class="st152" d="M359.2,47.2c0.7-1.2,1.2-2.5,1-4c0.7-0.6,1.3-0.6,2,0c8.5,0,17-0.1,25.5,0.1c2.1,0.1,4.8-2.7,6.5,0.9
			c-0.4,1.7,1.7,1.6,2.2,3C383.9,49.4,371.5,48.2,359.2,47.2z"/>
		<path class="st153" d="M396.1,44.2c0.9-2.2,2-3.4,4.8-2.2c4,1.8,9.1,0.7,11.7,5.1c2.8-1.8-2.7-4.8,1.3-5.4
			c1.9-0.3,3.9-5.6,6.2-0.5c0.7,2.7,0.8,5.3-0.5,7.9c-3.4-2.3-6.8,0.6-10.6,0.1C404,48.7,399.4,48.8,396.1,44.2z"/>
		<path class="st154" d="M419.7,49.3c0.2-2.6,0.3-5.3,0.5-7.9c0.4-0.1,0.7-0.1,1.1-0.2c1.9,2.5-1,5.3,0.6,7.8c0,1.5,1,3.1-0.8,4.3
			C420.6,51.9,420.2,50.6,419.7,49.3z"/>
		<path class="st155" d="M302.4,44.3c0.4-1.1-2.1-3.9,1.8-3.1c1.4,2.3,1.9,4.7,0.1,7.1c-0.3-0.7-0.6-1.4-0.9-2
			C302.5,45.9,302.2,45.2,302.4,44.3z"/>
		<path class="st147" d="M465.1,39.3c3.7-3.4,7.3-0.9,10.9,0.3c3.5,1.2,6.7,2.3,10.4,0.3c2.1-1.1,5.3-2.8,6.9,1.4
			c0.3,0.9,1.3,0.7,2.1,0.1c3.5-3.2,2.4,0.5,2.8,1.9c-1.3,0-2,0.7-2,2c-4.5,2.5-9.7,0.3-14.3,2.1c-0.5,0-1-0.1-1.4-0.3
			c-4.9-4.3-10.4-3.3-16-2.1c-0.5-0.1-0.9-0.3-1.2-0.7c-2.3-2.5-5.7-1.9-7.5-0.7c-3.5,2.5-5.3,0.6-7.6-1.4c0.2-0.9-0.5-2.8,0.1-2.6
			c4.1,1.3,8.1-2.1,12.1-0.2C462,40.3,463.5,40.8,465.1,39.3z"/>
		<path class="st70" d="M480.1,46.2c0.3,0,0.7,0,1,0c5,1.1,10-0.4,15-0.1c1.7,2.1,0.7,4-1.4,3.8c-5.2-0.5-10.5,0.8-15.6-1.4
			c-2.7-1.2-5.8-1.8-9,0.1c-3,1.8-6.3,1.2-9.9,0.5c-5.8-1.2-12-0.7-18-0.8c1.5-2.5,5-2.5,6.1-1.9c5.6,2.7,10-1.4,14.9-2.1
			c0.3,0,0.7,0,1,0C469.2,46.5,475,43.6,480.1,46.2z"/>
		<path class="st84" d="M496.1,46.2c-0.7,1.1-2,2-2.8,1.7c-3-1.3-5.7-0.7-8.6,0.2c-1.6,0.5-2.9-0.3-3.6-1.8c4.9-1.6,10-0.9,15-1
			C496.1,45.6,496.1,45.9,496.1,46.2z"/>
		<path class="st156" d="M425.1,20.3c-0.1,2.6-0.1,5.2-0.2,7.7c-1.6,0.4-2.7-0.1-2.8-1.9c-1.8-2.1,0.4-4.6-0.6-6.8
			c0-0.4-0.1-0.7-0.1-1.1C423.1,17.9,423.8,19.6,425.1,20.3z"/>
		<path class="st157" d="M419.2,30.4c0.2-1.4-1.3-2.8-0.1-4.2l0,0c2.7-0.1,0.8,2.6,2,3.4c0.7,1.9,0.8,3.6-1.4,4.6l-0.4-0.2
			C418,32.9,418.1,31.7,419.2,30.4z"/>
		<path class="st158" d="M421.1,29.6c-0.7-1.1-1.3-2.3-2-3.4c1.9-1.9,1.6-4.6,2.4-6.9c2.6,2-0.4,4.6,0.6,6.8
			C421,27,421,28.3,421.1,29.6z"/>
		<path class="st159" d="M286.3,123.3c-1.8-2.5,0.4-3.7,1.6-5.3c2.4,0,3.8,1.6,5.3,3.2c-0.3,2,3.9,4.9-1.1,6.1
			C290.8,125,289.4,122.8,286.3,123.3z"/>
		<path class="st160" d="M297.9,119.2c-0.3,2.4,1,4.2,2.4,5.9c-2.8-0.4-4.5-2.1-5-4.6c-0.3-1.6-0.8-2-2.2-1.3c-3-1-2.5-3.6-2.6-5.8
			c1-2.2,1.8-4.8,5-2.5c1.4,2.1,1.8,4.6,1.5,7.1C297.1,118.7,296.6,119.5,297.9,119.2z"/>
		<path class="st161" d="M291.3,113.1c0.5,2.1,0.6,4.3,1.9,6.1c0,0.6,0,1.3,0,1.9c-2.1-0.4-3.8-1.7-5.3-3.2
			c1.4-4.1,0.3-8.7,2.3-12.7C292.4,107.5,292.5,108,291.3,113.1z"/>
		<path class="st162" d="M361,103.3c-3.9-2.7-8.9-1.8-13-4.1c5.3-1.9,10.4-1,15.4,0.9c0.9,1.4,1.8,2.8,2.7,4.1
			C364.3,103.9,362.7,103.6,361,103.3z"/>
		<path class="st163" d="M291.3,113.1c-0.4-2.6,0.2-5.3-1-7.8c0-0.7,0-1.5,0-2.2c0.9-1.5,0.5-3.5,1.7-4.8c0.8-3.7,1.6-7.4,2.4-11
			c4.8,0.5,8.3,4.2,12.8,5.6c2.9,0.8,4.3-0.1,5-2.7c1.6,0.3,3.2,0.3,4.8-0.3c-0.1,1.8-1.7,2.1-3.4,3c2.3,0.5,4.5,0.7,4.5,3.4
			c-0.7,0.9-1.7,1.2-2.7,1.1c-8.2-1-13.1,4.3-18.2,9.4c-1.1,1.3-0.7,3.4-2.2,4.5C292.8,109.5,292.6,112.4,291.3,113.1z"/>
		<path class="st164" d="M296.2,106.2c5.8-6.8,12.4-11.7,22-10c1.3,1.3,2.3,2.5,4.6,1.1c1.9-1.2,1.1,1,1.4,1.8
			c-0.9,0.1-1.9,0.1-2.8,0.2c-2.4,1.3-5,1.4-7.6,1.3c-3-0.1-4.7,0.8-4.3,4.2c0.2,1.9,0.4,4-1.5,5.4c-0.3-2.5-0.7-5-1.1-7.9
			c-2.8,2-5.3,3.9-7.9,5.8C296.9,109.1,296.1,108.3,296.2,106.2z"/>
		<path class="st165" d="M292,98.3c-0.2,1.7,1.7,4.2-1.7,4.8c-2.6-1.3-1.7-3.8-2-5.9C289.5,97.6,290.8,97.9,292,98.3z"/>
		<path class="st166" d="M419.2,30.4c0,1.2,0.1,2.4,0.1,3.6c-1.5,0.1-3,0.1-4.5,0.2c-2,0.2-4.8,0.2-1.6,3.1c0.5,0.5,0.9,1,0.7,1.7
			c-0.4,1.2-1.3,0.4-2,0.6c-6.2,1.8-11.8-0.4-17.5-2.2c-1.8-0.6-3.6-0.5-5.1,1c-2.7,2.9-5.6,1.3-8.4,0.2c-3.1-1.2-5.9-2.7-9.2,0
			c-2.7,2.2-7.3,0.8-9.6,4.5c-0.7,0-1.3,0-2,0c-0.6-1.3-1.6-2-3-2c-0.8-0.4-1-1.2-1-2c4.6,2.1,7.8,0.2,9.7-3.8
			c0.8-1.8,2.7-2.4,3.3-4.2l0,0c4.7-0.6,9.5,0.2,14.1-0.9c2.2-0.5,3.7,0.9,5.3,2c2.7,1.8,5.3,2.6,7.9-0.3c1.7-2,4.4-2,6.6-2.8
			c0.5,0,1.1-0.2,1.4,0C409.2,33.2,414.2,32.2,419.2,30.4z"/>
		<path class="st105" d="M403.1,29.3c-2.4,1.6-5,2.6-7,5c-2.5,2.9-5.9,1.1-8.3-1c-2.1-1.9-4-1.5-6.6-1.3c-3.9,0.3-8.1,1.1-12-0.7
			c5.7-2.6,11.7-2.4,17.5-1.4c1.8,0.3,3.6,0.8,5.1,0.3C395.6,28.9,399.4,29.7,403.1,29.3z"/>
		<path class="st167" d="M302.4,44.3c0.3,0.7,0.7,1.3,1,2c-4.9,2.3-9.5,0.7-14.1-1c-1.9-0.7-2.2-2.2-2-4c1.7,1.4,3.5,0.4,5.1-0.2
			C296.6,39.4,300.3,39.2,302.4,44.3z"/>
		<path class="st66" d="M276.2,101.2c-1.5,2.2-3.5,3.3-6.6,2.7C271.9,102.2,273.8,101,276.2,101.2L276.2,101.2z"/>
		<path class="st72" d="M513.1,40.3c-5.8,3.9-8,3.9-10,0C506.4,41,509.7,38.9,513.1,40.3z"/>
		<path class="st84" d="M480.1,46.2c-5.3-1-11.1,2.4-16-2C469.7,42.8,475.4,40.1,480.1,46.2z"/>
		<path class="st168" d="M308,110.2c0.1-1.6,0.2-3.3,0.2-4.9c-0.1-6.2-0.1-6.2,6.3-6.2c2.3,0,4.6,0.1,6.9,0.2
			c-1.7,2.8-3,5.7-3.4,8.9c-0.4,0.9-0.3,1.9-0.3,2.9c-0.1,2.2,0.6,4.8-2.3,5.8c-3,1-5.4,0.1-7-2.7
			C308.3,112.9,308.1,111.5,308,110.2z"/>
		<path class="st169" d="M308.4,114.2c1,0.5,2,1.2,3.1,1.5c3.4,1,5.9,0.6,5.7-3.8c-0.1-1.3-0.3-2.6,0.8-3.7
			c-0.4,7.6,1.2,14.7,4.9,21.4c0.6,1,2.2,2.2-0.1,3.6c-1.8,1-2.6,0.4-3.8-0.7C313.7,127.4,308.6,122.2,308.4,114.2z"/>
		<path class="st170" d="M296.2,106.2c0.5,1.3,1.5,1.9,2.8,2c-0.4,3.7-0.7,7.4-1.1,11.1c-0.6-0.1-1.2,2.3-1.7,0
			c-0.5-2.7-0.7-5.4-1.1-8C295.5,109.5,294.5,107.6,296.2,106.2z"/>
	</g>
</g>
</svg>
