<?xml version="1.0" encoding="utf-8"?>
<!-- Generator: Adobe Illustrator 25.0.0, SVG Export Plug-In . SVG Version: 6.00 Build 0)  -->
<svg version="1.1" xmlns="http://www.w3.org/2000/svg" xmlns:xlink="http://www.w3.org/1999/xlink" x="0px" y="0px"
	 viewBox="0 0 640 150" style="enable-background:new 0 0 640 150;" xml:space="preserve">
<style type="text/css">
	.st0{display:none;}
	.st1{display:inline;stroke:#FFFFFF;stroke-miterlimit:10;}
	.st2{fill:#5A5D5D;}
	.st3{fill:#202223;}
	.st4{fill:#5B6062;}
	.st5{fill:#646564;}
	.st6{fill:#93958A;}
	.st7{fill:#272928;}
	.st8{fill:#212220;}
	.st9{fill:#20221F;}
	.st10{fill:#0D0E0D;}
	.st11{fill:#373B3E;}
	.st12{fill:#1A1B1A;}
	.st13{fill:#141514;}
	.st14{fill:#131413;}
	.st15{fill:#2C3034;}
	.st16{fill:#1C1D1C;}
	.st17{fill:#040404;}
	.st18{fill:#262825;}
	.st19{fill:#2F302C;}
	.st20{fill:#3C3F41;}
	.st21{fill:#2D2E2B;}
	.st22{fill:#232528;}
	.st23{fill:#25282B;}
	.st24{fill:#232527;}
	.st25{fill:#151617;}
	.st26{fill:#81919E;}
	.st27{fill:#45494B;}
	.st28{fill:#26282B;}
	.st29{fill:#0E0F0F;}
	.st30{fill:#242524;}
	.st31{fill:#2B2E31;}
	.st32{fill:#ADB8BF;}
	.st33{fill:#5D605D;}
	.st34{fill:#2D3134;}
	.st35{fill:#101112;}
	.st36{fill:#282A28;}
	.st37{fill:#282825;}
	.st38{fill:#494940;}
	.st39{fill:#0F100E;}
	.st40{fill:#5C5F61;}
	.st41{fill:#73756C;}
	.st42{fill:#5C5C4E;}
	.st43{fill:#080808;}
	.st44{fill:#4D4D43;}
	.st45{fill:#2A2C29;}
	.st46{fill:#2F302B;}
	.st47{fill:#3E3F38;}
	.st48{fill:#474840;}
	.st49{fill:#3B3E42;}
	.st50{fill:#363837;}
	.st51{fill:#3A3C3B;}
	.st52{fill:#434645;}
	.st53{fill:#393C3A;}
	.st54{fill:#2E2F2B;}
	.st55{fill:#030302;}
	.st56{fill:#181A1C;}
	.st57{fill:#2B2D2D;}
	.st58{fill:#5E625F;}
	.st59{fill:#141413;}
	.st60{fill:#454846;}
	.st61{fill:#737777;}
	.st62{fill:#070707;}
	.st63{fill:#090A09;}
	.st64{fill:#595A52;}
	.st65{fill:#030303;}
	.st66{fill:#050505;}
	.st67{fill:#4C4D46;}
	.st68{fill:#454741;}
	.st69{fill:#2A2D30;}
	.st70{fill:#787A70;}
	.st71{fill:#010101;}
	.st72{fill:#3B3E40;}
	.st73{fill:#020303;}
	.st74{fill:#020202;}
	.st75{fill:#383B3C;}
	.st76{fill:#5D6267;}
	.st77{fill:#585D62;}
	.st78{fill:#272A2D;}
	.st79{fill:#565A5F;}
	.st80{fill:#585C61;}
	.st81{fill:#565B5F;}
	.st82{fill:#595E63;}
	.st83{fill:#585C62;}
	.st84{fill:#595E64;}
	.st85{fill:#5C6267;}
	.st86{fill:#5A5F65;}
	.st87{fill:#575D62;}
	.st88{fill:#5B6064;}
	.st89{fill:#5F6469;}
	.st90{fill:#5F646A;}
	.st91{fill:#60656B;}
	.st92{fill:#696E74;}
	.st93{fill:#666B70;}
	.st94{fill:#666A6F;}
	.st95{fill:#595E61;}
	.st96{fill:#353631;}
	.st97{fill:#363732;}
	.st98{fill:#3B3D3A;}
	.st99{fill:#454641;}
	.st100{fill:#3B3D39;}
	.st101{fill:#3C3E3A;}
	.st102{fill:#464843;}
	.st103{fill:#41423E;}
	.st104{fill:#3D3E3A;}
	.st105{fill:#41433E;}
	.st106{fill:#444540;}
	.st107{fill:#3A3B36;}
	.st108{fill:#2A2B27;}
	.st109{fill:#292A27;}
	.st110{fill:#020201;}
	.st111{fill:#464743;}
	.st112{fill:#42433E;}
	.st113{fill:#090909;}
	.st114{fill:#454640;}
	.st115{fill:#4D4E46;}
	.st116{fill:#787D7E;}
	.st117{fill:#7A8081;}
	.st118{fill:#ABAD9E;}
	.st119{fill:#A2A495;}
	.st120{fill:#A9AB9D;}
	.st121{fill:#979A8B;}
	.st122{fill:#53554D;}
	.st123{fill:#898F8E;}
	.st124{fill:#D0D7D4;}
	.st125{fill:#5E6262;}
	.st126{fill:#62676C;}
	.st127{fill:#6C7172;}
	.st128{fill:#797F80;}
	.st129{fill:#3B3E3E;}
</style>
<g id="Camada_2" class="st0">
	<rect x="-327" y="-109" class="st1" width="1200" height="366"/>
</g>
<g id="Camada_1">
	<g>
		<path class="st2" d="M342,0.1c42,0,84,0,126,0c-0.6,3.4-3.3,3.3-5.8,3.3c-5.8,0-11.6,0.1-17.5,0.1c-31.4,0-62.9,0-94.3,0
			c-2,0-4,0.2-6-0.2C342.8,3,341,2.5,342,0.1z"/>
		<path class="st3" d="M342,0.1c0.4,3.4,3.1,1.9,4.7,1.9c30.9,0.1,61.8,0.1,92.7,0.1c7.6,0,15.2,0,22.8,0c2.2,0,4.3,0.1,5.8-2
			c4.7,0,9.3,0,14,0c1.9,2.2,5.2-0.4,7,2c0,0.3,0,0.7,0,1c-1.6,1.5-3.7,1.4-5.7,1.4c-48.6,0-97.2,0-145.9,0c-1.5,0-3,0-4.4-0.5
			c-2.4-1.7-0.7-2.2,0.8-2.7c2-0.6,4.3,0.4,6.1-1.2C340.7,0.1,341.3,0.1,342,0.1z"/>
		<path class="st4" d="M0.1,31.1c7.2-3.2,14.6-2,22-1c-2.2,2-5.1,1-7.6,1.6c-0.6,0.1-1.2,0.2-1.7,0.7C11.3,39,9.9,39.6,3,36.3
			c-0.9-0.8-1-2.6-2.8-2.2C0.1,33,0.1,32,0.1,31.1z"/>
		<path class="st5" d="M639.9,45c-12.7-0.1-25.4-0.1-38-0.2c1.1-3,3.8-2.2,5.9-2.2c7.8-0.1,15.6-0.1,23.4-0.1c4.4,0,6.7-1.4,6.3-6
			c0-1.8-0.1-3.6,0.9-5.2c0.4-0.6,0.9-0.7,1.5-0.4C639.9,35.7,639.9,40.4,639.9,45z"/>
		<path class="st6" d="M639.9,31.1c-0.4,0.1-0.8,0.1-1.2,0.2c-3.7,1.4-7.4,2.9-10.2-1.5c0.8-2.2,2.9-1.9,4.6-2
			c2.2-0.1,4.2-0.6,5.7-2.4c0.4-0.1,0.8-0.2,1.1-0.3C639.9,27.1,639.9,29.1,639.9,31.1z"/>
		<path class="st2" d="M340,0.1c-0.1,2.3-1.7,1.9-3.2,2s-3.4-0.8-4.5,1.1c0.3,0.4,0.4,0.8,0.5,1.2c0.1,0.9,0,1.8-0.8,2.5
			c-1.3-2.5-1.2-4.8,0.9-6.8C335.3,0.1,337.7,0.1,340,0.1z"/>
		<path class="st2" d="M489,2.1c-2-1.9-5.7,2.4-7-2c2.3,0,4.7,0,7,0C489,0.7,489,1.4,489,2.1z"/>
		<path class="st7" d="M333.2,77.6c4.9,17.3,10.5,34.5,17.6,51.1c1.1,2.6-0.7,3.1-2.4,3.8c-14.7,5.3-29.5,10.4-44.1,15.9
			c-2.8,1-3.7-1-4-2.1c-3.1-11-8.1-21.3-11.4-32.2c-3.3-11.3-6.8-22.5-10.7-33.6c-0.3-0.7-0.1-1.6-0.2-2.5c0.8-2.1,0.3-4.2-0.1-6.3
			c-0.7-3.1-1-6.2,0.8-9c1.7-1.3,3.8-1.2,5.7-1.2c12.6,0,25.2-0.1,37.8,0c7.1,0.1,7.8,0.9,8.1,7.9C330.7,72.4,330.7,75.4,333.2,77.6
			z"/>
		<path class="st8" d="M333.2,77.6c-3.4-1.2-2.9-4.3-3.1-6.8c-0.6-7.8-0.5-7.8-8.3-7.8c-14.3,0-28.5,0-42.8,0
			c0.2-3.3-1.5-7.3,3.4-8.7c0.3-0.1,0.6,0.1,0.4,0c-4.9-3.7,2.7-3.9,1.8-6.4c0.3-2,1.6-4.4-1.9-4.9c-4.2,0.2-7.5,2.8-11.2,4.3
			c-0.7,0.6-1.4,1.2-2.5,0.9c-0.8-2.1-0.9-4.7-3.5-5.8c-0.9-1.1-1.9-2.1-2.9-3c-4.6-2-9.6-2.8-14.3-4.6c-1.3-0.5-4.6-0.3-2.7-3.5
			c9.5-0.6,18.5-5.9,28.4-3.3c1.6,0.4,2.6,1.9,4.2,2.5c2.4,0.4,4.9,0.1,7.3,0.1c8.9-0.1,17.8-0.6,26.7,0c7.5,0.1,15.1-0.6,22.5,0.4
			c3.1,1.4,2,3.8,1.4,6c-1.2,4.1-2.9,8.2-3.5,12.5c-0.2,1.3-0.5,3.1,1.1,3.5c1.7,0.4,1.9-1.5,2.4-2.6c1.2-3.1,1-6.6,3.3-9.3
			c3.6-1.7,3.8-4,1-6.7c-1.2-1.5-3-2.7-3.2-4.9c1.6-3.7,2.9-4.1,5.3-1.5c0.9,0.9,1.2,2.4,2.8,2.6c4.5,0.3,9.1-0.1,13.6,0.2
			c0.9,0.1,1.7,0.4,2.4,1c1.6,4.2-0.4,8.2-0.7,12.3c0,1,0,2-0.1,3c-0.3,4,1.4,5.7,5.6,5.6c6.8-0.2,13.6,0,20.4,0
			c26.9,0,53.9,0,80.8,0c2.3,0,4.7-0.1,7,0.2c1.7,0.4,2.6,1.5,2.1,3.3c-0.5,1.9-1.9,1.2-3.2,1.2c-17.4,0.5-34.9,0.3-52.3,0
			c-14.7-0.2-29.4,0.6-44.1-0.1c-4.7-0.2-9.6,0.1-14.3,0.3c-1.4,0.1-2.7,0.1-3.2,1.7c-7.9,1.4-15.8,0.5-23.7,0.5
			c-3.4,0-4.6,0.7-4.3,4.3C331.6,68.6,331.2,73.3,333.2,77.6z"/>
		<path class="st9" d="M171.1,29c0.1-1.9,1.5-2.9,2.9-4c0.7-0.6,1.5-0.8,2.3-0.6c17,2.4,34,1.2,51-0.1c3.2-0.2,5.5,0.6,6.9,3.5
			c0.5,4.2-2.5,4.9-5.3,5.8c0.3,0.2,0.9,0,1.5-0.1c0.9-0.1,1.3-0.9,2-1.4c1.6-1.2,3.3-1.7,4.9-0.1c-2,4.3-5.8,6.4-10.6,6
			c-1.6-0.1-3.3-0.4-4.8-0.9c-4.8-1.3-8.3,0.2-10.9,4.2c-2.3,4.9,0.5,9.9,5.9,10c8.6,0.2,17.2,0.4,25.8-0.2c3.4-0.2,7.3-1.3,8.6,4.4
			c0.9-4.2,3.4-5.2,6.6-5.1c2.8,0.1,5.6-0.2,8.4,0.3c2.4,0.5,3.9,2,4,4.4c0.1,2.5-1.5,3.9-4,4.2c-1.5,0.1-2.9,0.7-4.3,1.2
			c-5.1,1.1-10.2,0.4-15.4,0.6c-8,0.2-10.3,3-9,10.9c0.3,1.9,2.5,4.7-0.3,5.6c-2.3,0.7-3.7-2.2-4.9-4.2c-2-3.1-1.3-7.3-4.2-9.9
			c-0.7-0.7-1.4-1.4-2.4-1.7c-1.4,0.1-1.4,1.1-1.5,2.1c-0.1,2,0.1,4-0.1,6c-0.1,1.7,0.3,4.4-1.8,4.6c-2.6,0.3-2.5-2.5-2.9-4.4
			c-1.3-6.2-3-7.4-9.3-6.5c-2.5,0.4-5,0.5-7.4,0.5c-5.4-0.3-10.8,0-16.1,1.4c-3.5-0.3-2.5-5.1-5.7-5.8c-4.3-1-8.6,0.3-13-0.1
			c-1.1-1-2-2.2-1.4-3.8c1.4-0.8,1.5-1.5-0.1-2.2c-1-2.6-1.5-5.3-2.5-7.9c-1.4-3.7-1.2-7.4,1.9-10.4c1.2-0.7,2.4-0.7,3.6-0.2
			c1.8,1.3,0.2,3,0.5,4.6c0.2-1.3,0.5-2.4,0.6-3.7c0.1-0.9,0.1-1.8,0.2-2.7C170.6,32.1,171.6,30.6,171.1,29z"/>
		<path class="st10" d="M359,43c0.7-3.7,1.3-7.3,2-11c-0.4-1.6,0.5-2.1,1.8-2.3c0.9,0.3,0.8,1.4,1.4,1.8c-0.3-2.2-0.8-4.5,2.3-5.2
			c3.1,0.5,1.5,3.5,2.7,5c-0.4-2.4-0.6-4.7,2.7-4.9c2.7,1.1,2.1,3.3,1.7,5.3c1.1-1.5-0.8-4.3,2.3-4.9c2.2,2.2,0.8,5.1,1.5,7.5
			c0.2,0.6,0-0.2,0.3,0.4c0.1,0.2,0.6-0.1,0.7-0.5c0.9-2.7-1.2-6.5,3-7.9c4,1,1.9,4.4,2.6,6.7c0.3-2.2-1.3-6.1,1.8-6.1
			c3.4,0,1.7,4.2,2.5,6.4c0.3-0.6,0.2-1.1,0.2-1.6c0.2-2.1-0.4-4.5,2.5-5.3c3.9,0.6,1.7,4,2.7,5.9c0.1-2.4-1.1-5.6,3.1-5.8
			c1,0.3,1.5,1,1.6,2.1c-0.1,1.6-0.6,3.2-0.2,4.9c0.4-1.4,0.2-3,0.6-4.4c0.1-0.5,0.2-0.9,0.4-1.4c0.6-0.9,1.5-1.2,2.5-1.1
			c3.5,1.5,1.4,4.7,2.1,6.8c0.3-1.9-0.5-4.1,0.7-6.2c0.5-0.5,1.2-0.7,1.9-0.6c3.6,1.3-0.5,5.2,2.2,6.1c-0.5-1.8-1.5-4.3,1.4-6
			c0.7-0.2,1.4-0.3,2.1-0.1c2.9,1.6,1.3,4.4,1.8,6.2c0.4-1.6-0.7-3.9,0.9-5.8c0.6-0.4,1.3-0.4,2-0.3c1.9,1,2.1,2.7,2.1,4.5
			c0.2-1.5-0.4-3.1,1.1-4.3c3.9-0.2,2.8,2.9,3.4,4.9c1-1.6-0.1-3.9,1.9-5c3.6,0.1,2.5,3.1,3.2,5c0.7-0.6,0.1-1.5,0.4-2.1
			c0.2-1.3,0.4-2.7,2.1-2.8c1.7,0,1.8,1.5,2.2,2.7c0.4,1.2-0.4,2.6,0.6,3.6c0.1-2.2-0.3-4.3,1.1-6.2c0.6-0.4,1.3-0.5,2-0.4
			c3.5,1.4,1.5,4.5,2.2,6.6c0.1-1.9-0.6-4.1,0.7-6c2.2-1,2.8,0.4,3.3,2.1c0.4,1.3-0.3,2.8,0.7,4c0.1-2.2-0.4-4.4,1.2-6.2
			c0.6-0.4,1.3-0.5,2-0.4c2.6,0.9,1.9,3,2,4.6c0.3-1-0.3-2.6,0.7-3.9c2.2-1.2,2.8,0.3,3.4,2c0.4,1.4-0.2,2.9,0.6,4.2
			c0.3-2.1-0.2-4.2,0.9-6.1c0.3-0.3,0.7-0.6,1.2-0.7s0.9-0.1,1.4,0c2.3,1,1.6,3.1,1.6,4.8c0.5-1.4-0.2-3.2,1.2-4.4
			c5.2-0.3,2,4.5,3.8,6.3c0.1-2.1-0.3-4.2,1-6c5.5-0.6,2.6,3.8,3.6,6c0.1,0.3,0.1,0.6,0.2,0.9c0.1-0.1,0.1-0.2,0.2-0.3
			c0.1-2.2-0.3-4.3,0.8-6.3c2.3-1.6,3,0,3.6,1.8c0.4,1.3-0.2,2.9,0.7,4.1c0.2-2-0.2-4.1,0.8-6c0.5-0.6,1.1-0.8,1.9-0.7
			c0.5,0.1,0.8,0.4,1.1,0.8c0.9,1.8,0.6,3.7,0.7,5.6c0.1,0.7,0.2,1.1,0.1,0.5c0,0,0.2,0,0.3-0.1c0.7-2.1-1.5-5.5,2.7-6.1
			c1.6,2.4,1.1,5.2,1.3,7.7c0.2,3.1,0.9,5.1,4.6,4.9c1.5-0.1,3.5-0.3,3.8,2.1c-0.3,0.1-0.6,0.2-0.9,0.4c-1.9,3.2,0.8,7.2-1.6,10.3
			c-3.5,1.7-7.2,0.4-10.8,0.4c-36.6-0.3-73.2,0.1-109.7-0.1c-8.1,0-8.1,0-8.5-8.1C359.5,44.2,359.4,43.6,359,43z"/>
		<path class="st11" d="M203,63c2.3-0.2,4.7-0.1,6.9-0.5c7.6-1.5,10.5,0.5,11.1,8.2c0.1,1.2-0.4,2.7,1.9,3.6c0-4.3,0-8.4,0-12.4
			c0-2.1,0.4-3.9,3.1-2.1c-1.3,6.4-0.1,13-1.4,19.4c-0.2,0.9-0.7,1.4-1.5,1.6c-0.7-0.3-1.4-0.6-2-0.8c-5.6-5.4-9-4.6-11,2.5
			c-0.8,2.7-2.5,5-3.7,7.5c-1.6,3.5-3,6.9-2.4,10.9c-1,2.7-2,5.3-3,8c-1.8,2-3.3,4.1-4.3,6.6c-0.3,0.4-0.7,0.6-1.2,0.6
			c-0.7-0.3-1.1-0.9-1.3-1.6c-0.2-3.3-0.5-6.6-0.6-10c-1.1,4.4,0.7,9.2-2.6,13.1c-2.9,2.2-1.3,5.9-2.9,8.5c-6.8,1.6-12.9-1-18.4-4.2
			c-4.4-2.6-2.7-7.8-1.8-11.8c1.7-7.1,4.6-13.7,7.9-20.2c3.8-6.2,6.4-13,9.6-19.6C191,67,196.5,63.7,203,63z"/>
		<path class="st12" d="M362.8,30.1c-0.6,0.7-1.2,1.3-1.9,2c-0.7,0-1.3,0-2,0c-1.5-1-3.1-0.3-4.7-0.5c-1.8-0.3-2.2-1.1-1.2-2.6
			c3.6,0,6.4-0.9,6.1-5.4c-0.1-1.2,0.9-2,2.1-2.4c3.3-0.8,6.8-0.1,10.1-0.7c0.5-0.1,1-0.1,1.6,0c3.6,0.6,7.1,0.6,10.7-0.1
			c0.8-0.1,1.5-0.1,2.3,0c3.5,0.7,7.1,0.6,10.6,0.1c0.5-0.1,1-0.1,1.5,0c3.8,0.5,7.6,0.5,11.4,0c0.5-0.1,1-0.1,1.5,0
			c3.5,0.6,7,0.5,10.5,0c0.5-0.1,1-0.1,1.5,0c3.5,0.5,7,0.5,10.6-0.1c0.8-0.1,1.5-0.1,2.3,0c3.5,0.7,7,0.6,10.6,0.1
			c0.5-0.1,1-0.1,1.5,0c3.5,0.5,7,0.5,10.5,0c0.5-0.1,1-0.1,1.5,0c3.6,0.5,7.1,0.5,10.6-0.1c0.8-0.1,1.6-0.1,2.3,0
			c6.6,0.5,13.3,1.5,19.6-1.6c3.2,1.5,6.6-0.4,9.9,0.4c0.6,0.1,0.7-1,1-1.5c0.7-1,1.2-2.4,2.8-1.1c1.8,3.2,1.7,6.8,1.9,10.4
			c0.1,2.3-1,3.2-2.9,3.8c-1.2,0.2-2.2,0-3-1.2c-2.3-3.7-6.1-2.3-8.9-1.6c-1.6,0.4-3.5,3.2-2.6,6c1.6,1.3,3.5,0.8,5.3,0.8
			c27.2-0.1,54.4,0.1,81.7-0.1c2.5,0,5.8,1.3,7.4-2.3c0.1-1.5,0.4-2.9,1.5-4c0.3-0.2,0.5-0.2,0.8-0.1c3,0.1,3.2,3.8,6.2,4.4
			c0.6-1.6,0.4-3.8,2-5.3c0.3,0,0.7,0,1,0c0.7,1.3,1.3,1.3,1.7-0.2l0,0c2.2,1,4.1,0.5,5.8-1c2.2,1.5,1.3,4.9,3.8,6.3
			c1.5,2.6,0.2,5.8,1.7,8.9c2.6-3.3,0.4-7.2,2.5-10.1c0.6-0.5,1.3-0.7,2-0.6c2.6,0.8,2.3,2.8,2.2,4.8c-0.1,1.1-0.4,2.3-0.4,3.4
			c0.1,1,0.2,2.1,1.4,2.3c1.3,0.2,1.5-1.1,1.7-2c0.3-1.1,0.4-2.3,1.3-3.1c0.7-0.3,1.4-0.3,2.1,0c1.7,1.3,0.5,3.9,2.7,5.3
			c1.9-2.4,0.3-5.6,1.9-7.9c3.7,1.3,7.8,0.9,11.3,2.9c0,0.3,0.1,0.7,0.1,1c0.1,7.1,0.1,7.1-6.8,7.1c-8.3,0-16.6,0-24.9,0
			c-1.8,0-3.7-0.5-5.3,0.7c-5.8-2.8-12.1-1.8-18.2-2.6c-7.2-0.9-14.5-0.3-21.8-0.4c0.4-2.5,2.4-1.8,3.9-1.8c4.3-0.1,8.6,0,12.9-0.1
			c-21.6,0.6-43.1,0.6-64.7,0.6c-1.4,0-3.5-1-4.2,1.4c-6.3,0-12.7,0-19,0c-0.3-0.2-0.5-0.5-0.8-0.6c-2.9-1.3-7.6,1.7-8.7-1.9
			c-0.8-2.7-1-6.3-0.6-9.6c0.1-1,0-2-0.1-2.9c-1.6,0-3.2-0.7-4.8-0.8c-6.8,0.2-13.7,0.1-20.5,0c-20.9,0.2-41.9-0.1-62.8,0.1
			c-9.3,0.1-18.6-0.3-27.9,0.1C363.2,26.9,364.2,29.2,362.8,30.1z"/>
		<path class="st13" d="M161,59.1c-1.1,0-2.2,0.3-3.1-0.8c-1.3-3.4-1.2-7.1-2.3-10.6c-0.6-1.8-1.2-3.2-3.2-3.2
			c-16.6,0.1-33.2-0.8-49.8,0.7c-22.4,0.3-44.8,0.1-67.2,0.2c-2.3,0-4.7-0.3-6.9,0.7c-1.7,0.7-3.5,1.2-5.4,0.7
			c-1.9-0.7-2.5-2.4-3.1-4.1c-0.6-2.6-0.5-5.3-0.4-8c0.4-2,0-4.7,3.5-3.9H23c2.8,2,8,0.5,8.8,5.7c1.4,1.5,3.1,0.9,4.7,0.9
			c37.8,0,75.6,0,113.4,0c1.9,0,4.1,0.4,5.2-1.9c1.2-3,3.1-4.5,6.4-3C162.8,41.5,164,50.3,161,59.1z"/>
		<path class="st14" d="M262,60.1c0.8-1.8,2.3-2.4,4.1-1.9c2.4,0.8,3.1-0.8,3.3-2.5c0.2-1.8-0.9-3.4-2.7-3.6
			c-3.8-0.2-7.6-0.1-11.5-0.1c-2.1,0-1.7,1.3-1.4,2.8c0.4,1.5-0.3,2.7-1.9,3c-1.6,0.3-2.9-0.7-2.7-2.1c0.4-4.9-3.6-3.4-5.3-3.2
			c-9.1,1.1-18.2-0.1-27.3,0.6c-5.6,0.4-8.9-7-8.3-11.3c0.1-0.7,0.7-1.6,1.7-0.8c0.6,0.6,0.9,1.3,1,2.2c0.4,4.3,3,5.9,7.1,5.8
			c8.8-0.1,17.6,0,26.4,0c-8.9,0-17.8-0.1-26.7,0c-2.6,0-4.8-0.6-5.9-2.9c-1.4-2.7-0.4-3.8,2.6-2.8c0.5,0.2,1,0.4,1.5,0.6
			c5.5,1.4,11,1.5,16.7,0.9c6.7-0.7,13.5-1.4,20,1.9c3.3,1.6,7.2,0.7,10.8,0.5c1.8-0.1,3.6-0.7,5.3,0.6c0.7-0.3,1.3-0.7,2-1
			c3.2,2.4,6.5,2.3,9.9,0.6c1.2-0.6,2.5-0.8,3.8-0.4c0.4,0.2,0.9,0.5,1.2,0.8c-0.1,2.6-1.9,3.7-4.1,4.3c0.7,2.3,3.9,0.9,4.4,3.3
			c-1.4,1-2.5-0.5-3.8-0.5c-1,0-2.7,0.5-2.2,1.2c2.4,3-2.1,4.3-1.3,6.7c-0.5,5,1.1,10.1-0.9,14.9c-0.5-1.9,0.2-4.1-1.1-5.9
			c-3.5-0.4-6.9,0-10.2,0.8c-4,1-5.1-0.7-5.1-4.2c0-2.1,0.1-4.3-0.4-6.4C261.2,61.5,261.4,60.7,262,60.1z"/>
		<path class="st15" d="M21.1,43c1.2,0.8,0.7,2.7,2.3,3.2c0.2,14.7,0.9,29.5-0.4,44.2c-4.3,5.2-7.9,5.2-11.6-0.2
			c-0.9-3.1-0.6-6.2-0.4-9.3c0-3.9,0.5-7.8,0-11.6c-0.3-5.3-0.7-10.6,0.3-15.9c0.3-1.5-0.1-0.4-0.6-0.2c-2,0.6-3.9,0.5-5.5-1.1
			c0-0.3,0.1-0.7,0.1-1c3-2.2,4.6-5.5,6.7-8.4C15,41.1,18,42.2,21.1,43z"/>
		<path class="st16" d="M156.1,57.9c-10.3,0.1-20.6,0.2-30.9,0.2c-7.3,0-14.1,1.5-20.7,4.6C77.1,75.5,49.7,88.2,22.3,101
			c-3.1,1.6-7.3,1.2-9.1,5l0,0c-0.6,0.4-1.1,0.3-1.5-0.2c-1.2-2.4-1.1-4.9-0.2-7.4c3.3-1.5,7.7-0.7,10.1-4.7c0.4-0.8,1.7,0.3,2.4,1
			c4.6,0.5,8.1-2.5,11.8-4.2c22.6-10.4,45.3-20.8,67.8-31.4c5.5-2.6,11.3-4.1,17.3-4.3c10.3-0.3,20.6-0.1,30.9-0.1c1.5,0,3,0,4.3,1
			C156.6,56.5,156.7,57.2,156.1,57.9z"/>
		<path class="st17" d="M156.1,57.9c0-0.6,0-1.3,0-1.9c-0.5-0.5-0.9-1.1-1-1.8c-0.1-2.3-1.1-4.3-2.5-6c-1.8-2.8-4.6-1.8-7.1-1.9
			c-2.7-0.1-5.5-0.1-8.2,0.3c-0.5,0-0.9,0-1.4,0c-2.4-0.7-4.5-0.2-6.1,1.9c-6,2.9-11.9,3.1-17.9,0c-2-2.2-3.9-3.9-6.3-0.5
			c-0.3,1.2-0.4,2.5-1.6,3.3c-0.6,0-1.1-0.2-1.4-0.7c-0.9-2.3-1.1-4.5,0.7-6.5c1.8-1.2,3.8-1,5.8-1c13,0,26,0,39,0
			c8.3,0,11.8,4.3,10.3,12.8c-0.1,0.8-0.2,1.6-0.3,2.5C157.3,58.2,156.7,58.1,156.1,57.9z"/>
		<path class="st18" d="M509.9,41.9c-1.1-0.5-2.3-1.1-3.4-1.6c0-0.2,0-0.5,0-0.7c26.2,0,52.4,0,79.1,0c-1.5,2.1-3.4,1.3-5,1.4
			c-6.2,0.5-12.5-1-18.7,0.9C544.6,41.9,527.3,41.9,509.9,41.9z"/>
		<path class="st19" d="M262.3,62c2,3.2,0.1,6.8,1.3,10.4c3.4-2,7.3-0.8,10.9-1.9c1.4-0.4,2.1,0.5,2.5,1.7c-2.2,2,0,5.1-1.8,7.2
			c-2.1,0.5-3.8,2.1-6.2,1.7c-1.3-0.7-3.3-1.6-4.1-0.5c-2.6,3.7-6.3,2.5-9.6,2.5c-8.5,0.1-17,0.1-25.5,0c-2.5,0-5,0.2-6.8-2.1
			c0.4-0.3,0.8-0.6,1.2-0.9c7.6-1.1,15.2-0.2,22.9-0.4c2.8-0.1,5.7-0.1,8.5,0c3.7,0.2,4.8-1.5,5-5.1C260.8,70.3,259.1,65.8,262.3,62
			z"/>
		<path class="st20" d="M359.1,59.2c0-1.1,0.4-1.9,1.6-2.2c5.3-1.1,11,1.8,16-1.8c3.1,2.7,6.9,1,10.3,1.5c4.7,0.7,9.6,0.6,14.1-1.5
			c1.6,3.4,4.8-0.5,6.8,1.5c0.3,0.3,1.6,0.4,1.9,0.1c2.8-3.5,5.5,0.2,8.2,0c5.7-0.2,11.6,0.6,17.1-0.5c2.1-0.4,2.9,1,4.4,0.7
			c8.9-1.7,18,1.5,27-1c1.5-0.4,4.7-0.7,6.2,0.2c3.5,2.2,2.4-1.2,3.3-2.1c0.5-0.6,1.2-0.7,1.9-0.6c1.1,0.3,2,0.9,2.4,2.1
			c2.7,1.2,6.1-1,8.6,1.5c-7,1.7-14.1,0.6-21.1,0.7c-34.4,0.2-68.8,0.1-103.2,0.1C362.6,57.7,360.5,57.3,359.1,59.2z"/>
		<path class="st21" d="M161,59.1c0-9.1,0-18.1,0-27.2c-0.3-0.2-0.5-0.4-0.3-0.5c0.1-0.2,0.2-0.3,0.4-0.3c2.4-2.1,5.1-2,8-1
			c1.1,1.1,1.7,2.3,1.3,3.9c-1,1.5-3.2,0.6-4.3,2c-1.6,4.1-2.6,8.1,0.4,12.2c1.2,1.6,0.4,3.8,0.6,5.7c0.1,0.7,0.2,1.3,0.1,2
			c0.3,1.4,0.6,2.7,0.9,4.1C165.8,59.2,163.2,60.5,161,59.1z"/>
		<path class="st22" d="M203.9,101c-3.3-3-0.7-6.1,0.2-8.9c1.3-4.5,4.9-8.1,5.4-13.2c0.2-2.4,3-5,6-3.3c2,1.1,6.9-0.8,5.5,4.5
			c-5.4-0.1-7.9,3.5-10,7.8C208.8,92.3,206.3,96.6,203.9,101z"/>
		<path class="st23" d="M12.1,70c1.2,3.3-0.2,6.7,0,10c-1,2.9-0.5,5.8-0.5,8.7c0,5.2-0.6,5.6-5.5,3.2c-0.9-7.3-0.5-14.7,0.2-22
			C8.2,68.4,10.2,67.2,12.1,70z"/>
		<path class="st24" d="M12.1,43c-1.4,3.5-1.9,7.7-7,8C2.9,46.3,2,41.4,2.8,36.2C3.2,36,3.7,35.5,4,35.6c6.2,1.5,6.2,1.5,7.1-4.5
			c0.1-0.4,0.6-0.7,0.9-1.1C14,34.4,14.5,38.7,12.1,43z"/>
		<path class="st25" d="M12.1,70c-1.9-1.6-3.9,0.3-5.8,0c0.6-2-2.5-3.9-0.2-6c0.6-1,2.1-0.5,2.8-1.6c-1-0.6-2.2-0.6-3.1-1.3
			c-3.7-1.8,0.3-3.2,0.2-4.9c1-3.6,2.1,0.5,3.2-0.1c-1-2.1-3.5-1-4.9-2.2c-0.5-1,0.1-1.5,0.8-2c7,0.1,7,0.1,7,7
			C12.1,62.7,12.1,66.3,12.1,70z"/>
		<path class="st26" d="M185.9,71c-2,6.2-5.6,11.7-8.1,17.8c-0.4,0.9-1,1.2-1.9,1.2c0.6-3.8,2.5-7.2,4.4-10.4
			c3.6-6.4,4-12.8,0.7-19.4c4.2-0.7,3.5,3,4.7,5.1C187.8,67,187.5,69,185.9,71z"/>
		<path class="st27" d="M188.1,126.1c-0.1-3.2-1.7-6.7,2-9.2c1.2,1,2,0.6,2.8-0.6c0.5-0.8,0.9-1.8,2.2-1.4c0.3,0.3,0.7,0.7,1,1
			c0.4,3.3,1.8,6.6,0,9.9C193.4,125.9,190.7,126,188.1,126.1z"/>
		<path class="st28" d="M12,105.7c0.4,0.1,0.8,0.2,1.2,0.3c-2.4,1.4-5,1.5-7.2,0c-1.3-0.9-1.6-2.8,0.1-4.2c1.4-1.5,0.5-3.4,0.6-5.1
			c0.1-2,0.2-3.8,2.8-3.5c2.3,0.3,2.9,1.9,2.6,3.9C11.5,100,10.7,102.9,12,105.7z"/>
		<path class="st29" d="M12,105.7c-1.1-1.7-3.5-3-1.1-5.6c0.6-0.6,0.1-2.2,0.1-3.4c0-1.4-0.3-2.7-2.2-2.6c-1.6,0.1-1.7,1.2-1.8,2.5
			c-0.1,1.8-0.2,3.6-0.3,5.3c0,0-0.3,0.1-0.4,0.1c-0.2,0-0.3-0.2-0.4-0.2C6.4,98.5,4.1,95.2,6,92c4.6,1.3,5.4-0.9,5.1-4.9
			c-0.2-2.3-1-4.9,0.9-7c0,3.3,0,6.7,0.1,10c0.8,2.7,2.3,5.3,0,8C12.1,100.6,12,103.1,12,105.7z"/>
		<path class="st30" d="M269,81c2-0.8,3.6-3,6.2-1.7c-0.5,3.6-0.9,7.1-1.5,10.7c-0.1,0.9-0.2,2.2-1.5,2.1c-1.3-0.1-1.2-1.3-1.1-2.3
			C271.2,86.6,272.7,83.2,269,81z"/>
		<path class="st31" d="M13.1,106c0.4-4,3.3-5.6,9.1-5C21.3,106.6,16.4,104.8,13.1,106z"/>
		<path class="st32" d="M480.1,55.9c-0.7-0.6-1.3-1.2-2-1.8c1.4-1.5,3.2-1.3,5-1.2c2,0.2,4,0.5,5.7-0.9c1-3.1-1-6.7,1.2-9.7
			c-0.2,4.6,0.6,9.2-1.1,13.6C486,56.8,483,56.8,480.1,55.9z"/>
		<path class="st33" d="M196,125.9c0.4-3.3-2.3-6.6,0-9.9l0,0c1.1-0.6,1.5,0.2,1.9,1C197.2,119.9,201.8,124,196,125.9z"/>
		<path class="st27" d="M197.9,116.9c-0.6-0.3-1.3-0.7-1.9-1c-0.1-3.5,1.7-5.7,4.9-7C200.4,111.8,199.3,114.4,197.9,116.9z"/>
		<path class="st34" d="M4.3,54c1.3,0.1,2.7-0.1,3.9,0.3c1,0.3,3-0.4,2.9,1.8c0,0.8,0.2,2.1-0.6,2.1c-1.2,0.1-2.8,0.1-3.3-1.5
			c-0.2-0.8-0.6-1.2-1.3-0.4C5,55.8,4.2,55.2,4.3,54z"/>
		<path class="st15" d="M5.7,61.2c0.3,0,0.7-0.1,1-0.1c1.4,0.3,2.9-1.1,4.1,0.1c0.6,0.6,0.4,1.9-0.3,2.7c-1.4,1.8-3,0-4.5,0.1
			C6,63.1,5.9,62.1,5.7,61.2z"/>
		<path class="st35" d="M480.1,55.9c3,0,5.9,0,8.9,0c-0.1,0.3-0.1,0.7-0.2,1c-3.2,0-6.3-0.1-9.5-0.1c-0.1,0-0.2-0.2-0.3-0.3
			C479.4,56.4,479.7,56.2,480.1,55.9z"/>
		<path class="st36" d="M372,21.1c-3.5,2.1-7.3,0.5-11,0.9c-1.7-0.6-3.9-0.3-4.3-2.9c0.2-0.7,0.7-1.2,1.4-1.4c1-0.2,1.8,0.7,3,0.2
			c-3.4-2.5-7-4.3-10.5-6.5c-0.9-0.5-2.1-1.5-2.7,0.4c1.1,2.3,3.7,2.7,5.4,4.1c1.2,1,3.2,1.4,3,3.5c-1.2,2.1-2.8,1.1-4.3,0.4
			c-1.6-0.8-3.1-1.9-4.7-2.6c-4-2.3-8.4-4-11.8-7.3c-0.6-1.7-2.6-1.7-3.6-2.9c0.1-1,0.2-2,0.3-3c1.3-0.6,2.6-0.3,3.9-0.3
			c49.5,0,98.9,0,148.4,0c1.5,0,3-0.4,4.4,0.5c0.6,2.8,0.3,5.6,0.1,8.4c0.9,1.7,1.3,3.5-0.1,5.1c-1.9,1.6-3.4,0.1-4.9-0.8
			c-2.9-1.9-6.1-3.4-9-5.2c-1-0.6-2.3-1.8-3.3,0.1c0.1,1.8,2.5,2.1,2.5,4c-0.1,0.5-0.4,0.7-0.9,0.9c-4.2-0.2-6.9-3.5-10.5-4.9
			c-1.3-0.5-2.5-2.6-4.1-0.6c0.4,2.1,3.4,2.2,3.6,4.5c-0.1,0.5-0.4,0.8-0.8,1c-3,0.2-5-2-7.5-3c-2.3-1-4.1-3.9-7.2-2.5
			c-0.1,1.5,1.7,2.2,1.6,3.7c-0.2,0.4-0.5,0.7-0.9,0.8c-3.7,0-5.9-3.1-9.2-4.2c-1-0.3-2.5-2.5-3.3,0.2c2.5,3,6.5,3.7,9.3,6.1
			c1.1,0.9,3.3,1.1,2.8,3.4c-3.7,1.5-7.3,1.5-11,0c-0.2-0.2-0.4-0.5-0.4-0.8s0-0.4,0.1-0.4c1.1-1.5,0.3-2.4-1-3.2
			c-3.5-2.1-6.9-4.4-11-6.4c1.6,2.5,4.4,2.8,5.6,4.9c0.6,2.7,5.1,2.2,4.7,5.8c-3.7,1.7-7.3,1.5-11,0.1c0.1-0.7,0.4-1.2,0.8-1.8
			c0.3-0.6,0.5-1.4-0.2-1.8c-4.2-2.6-8.2-5.4-12.8-7.1c-0.5-0.2-0.8,0.3-0.9,0.8c2.3,3,6,3.9,8.8,6.1c1.3,1,3.6,1.1,3.4,3.6
			c-3.7,1.6-7.3,1.6-11,0c-0.2-0.2-0.4-0.5-0.3-0.8c0-0.3,0.1-0.4,0.1-0.4c0.6-0.8,1.4-1.8,0.2-2.5c-4.2-2.5-8.1-5.7-12.9-6.9
			c-0.3-0.1-0.5,0.3-0.6,0.7c1.8,3.6,5.9,3.8,8.6,6c1.5,1.2,3.6,1.7,4.1,3.9c-4,1.5-8,1.5-12.1,0c0.1-0.7,0.4-1.2,0.8-1.8
			c0.5-0.9,0.3-1.7-0.5-2.2c-3.9-2.2-7.6-4.7-11.6-6.8c-0.8-0.4-1.6-0.3-1.9,0.8c1.6,2.9,4.8,3.4,7.2,5c1.9,1.3,4.8,1.6,5,4.8
			c-3.7,1.6-7.3,1.6-11,0c-0.2-0.2-0.4-0.5-0.3-0.8c0-0.3,0.1-0.4,0.1-0.4c1.5-2.3-0.6-2.9-1.9-3.7c-3.1-2.1-6.6-3.6-10-5.5
			c0.6,1.8,2.6,2.1,3.4,3.6c0.8,1.8,2.6,2.3,4.1,3.2c1.3,0.8,3.1,1.3,2.6,3.5c-3.6,1.8-7.3,1.6-11,0.1c-0.3-0.2-0.4-0.5-0.4-0.7
			c0-0.3,0.1-0.4,0.1-0.4c0.8-0.9,1.4-1.9,0-2.8c-3.9-2.4-7.6-5.1-12-6.6c-0.5-0.2-0.8,0.3-0.9,0.8c2.1,3.4,6.1,3.8,8.8,6.1
			C369.9,18.5,372.3,18.5,372,21.1z"/>
		<path class="st37" d="M234,29c-2-2.9-4.1-3.3-8.1-3c-14.9,1.1-29.8,0.8-44.7,0.9c-2.4,0-4.8-1.2-7.2-1.9c-1.6-2,0.3-3.8,1.2-4
			c5.5-0.8,8-5.6,11.8-8.5c2.2-1.7,4.3-2.7,7.2-2.7c45.6,0,91.2-0.1,136.8-0.1c0.7,0,1.3,0.2,2,0.3c0.9,3.4-1.7,2.9-3.5,2.9
			c-20,0.3-40.1,0.5-60.1,0.7c-2.3,0-4.8,0.2-5.4,3.2c0.7,2.6,2.9,1.5,4.5,1.8c2.5,0.3,5.3-0.6,7.6,1.2c-0.6,3.5-3.4,2.4-5.4,2.5
			c-3.3,0.1-6.5,0.2-9,2.9c-7.9,0.2-15.9-0.7-23.8,1.2C236.9,27.6,235.8,28.9,234,29z"/>
		<path class="st38" d="M161.1,31.1c0,0.3,0,0.5,0,0.8c-1.5,1.2-4.6,0.8-4,4.1c-2,1.5-4.3,1.5-6.6,1.5c-37.9,0-75.8,0-113.7,0
			c-2.3,0-4.7,0.3-6.6-1.5c-0.2-1,0-3-1.3-2.6c-3,1-3.9-1.5-5.7-2.5c18,2.8,36.1,1,54.2,1.2c23,0.3,45.9,0.1,68.9,0.1
			C151.2,32.2,156.2,32.5,161.1,31.1z"/>
		<path class="st39" d="M262,18.2c-0.4-4.5,1.7-6.2,6.1-6.2c9.6,0.1,19.3-0.5,28.8,0.2c11.2,0.7,22.4-2.7,33.6-0.2
			c1.4,0.3,2.2-0.4,2.3-1.9c0.9-0.1,1.7-0.1,2.6-0.2c4.7,1,8,4.6,12.4,6.2c0.2,1.9-1.3,1.7-2.2,1.4c-2.1-0.6-4.1-0.5-6.2-0.4
			c-1.4-0.1-2.7-0.7-4-1.1c-5.8-1-11.6-0.4-17.4-0.4c-10.2-0.1-20.3,0-30.5,0c-2,0-4-0.3-5.8,0.8c-1.2,0.8-2.1,2-3.6,2.6
			C272.9,18.8,267.4,20,262,18.2z"/>
		<path class="st40" d="M23.2,30.9c-2.6,0.4-1.7,2.6-2.1,4.2c-2.4,1.8-5,2-7.4,0.4c-1.6-1-1.3-2.8-0.5-4.5c2.8-1.7,5.9-0.8,8.9-1
			C22.5,30.3,22.8,30.6,23.2,30.9z"/>
		<path class="st41" d="M170.2,33.9c-1-1.1-1-2.5-1.2-3.8c0.7-0.4,1.4-0.7,2.1-1.1c1.5,1.3,0.5,3.1,0.9,4.7
			C171.5,34.8,170.9,34.4,170.2,33.9z"/>
		<path class="st42" d="M504.9,30c3.9-1.3,3.3-4.4,2.8-7.2c-0.4-2.2-1.3-4.4-1.9-6.6c-0.8-1.1-0.6-2.1,0.2-3
			c2.3-0.6,2.9,0.4,2.8,2.6c-0.1,2.6,0.4,5.3,0.1,7.9c-0.4,3.7,1.2,4.3,4.5,4.3c22.7-0.1,45.4-0.1,68.1-0.1c1.8,0,3.6,0.1,5.5,0.2
			c0,1.3,0,2.6-0.1,3.9c-0.5,0.4-1.1,0.6-1.8,0.5c-17.3-0.2-34.5,0-51.8-0.1c-8.3-0.2-16.6,0.3-24.8-0.3c-0.9-0.1-1.6,0.2-2.3,0.7
			c-5.2,2.5-10.5,2-15.8,0.7c-0.5-0.3-0.8-0.8-0.7-1.5c4.1-2.7,8.7-1,13-1.4C503.5,30.7,504.3,30.6,504.9,30z"/>
		<path class="st43" d="M489,4.1c-50.1,0-100.1,0-150.2,0c-2.2,0-4.3-0.1-6.5-0.1c-0.1-0.3-0.1-0.5,0-0.8
			c52.2,0,104.4-0.1,156.7-0.1C489,3.4,489,3.8,489,4.1z"/>
		<path class="st44" d="M614.8,31c-0.6,0-1.2-0.1-1.8-0.1c-2.5-3.5-3.8-1.2-5.2,1c-1.8,0.3-2.9-0.2-2.9-2.2c0-1.3,0.4-2.7-0.9-3.6
			c-1.4,1-2.8,1.1-4.2-0.1c0.7-0.9,1.7-0.9,2.7-0.9c12.1,0.1,24.2,0.2,36.3,0.3c0.6,2.8-0.4,4-3.3,3.8c-2.1-0.1-4.3,0-6.4,0
			c-0.8-0.2-1.4-0.7-2.2-0.8c-1.7-0.2-2.6,1-3.7,1.9c-0.4,0.2-0.8,0.3-1.3,0.3C619.4,29.2,616.9,27.5,614.8,31z"/>
		<path class="st45" d="M505.9,13.1c-0.1,1-0.1,2-0.2,3c-0.5,0.7-1.1,1.3-1.6,2c-0.2-0.1-0.4-0.2-0.5-0.3c-3-1.8-6.2,0.1-9.3-0.6
			c-0.1,0-0.3,0.2-0.3,0.3c0,0.1,0.1,0.3,0.2,0.5c0.1,0.4,0.1,0.7-0.2,0.9c-1.7,2.5-4.5,2.9-7,2.9c-4.7,0-9.5,1.3-14-0.9
			c-0.2-0.2-0.3-0.5-0.3-0.8s0.1-0.4,0.1-0.4c1.1-1,0.7-2.5,1.1-3.7l0.1-0.2c2.1-1.3,3.7,0.5,5.4,1.1c1.8,0.7,3.3,2.3,5.4,2.1
			c1-0.3,2.1-0.3,3-1c1.1-1.7,1-3.6,1.2-5.5C494.7,13.8,500.3,12.7,505.9,13.1z"/>
		<path class="st46" d="M595.9,27c0.2,2.9-1.5,5.6-0.7,8.7c-2.1-3.1-6.2-4-7.4-7.8C590.3,25.8,593.2,27.1,595.9,27z"/>
		<path class="st47" d="M599.8,26c1.4,0,2.8,0.1,4.2,0.1c0.5,2.2-1.4,2.9-2.6,3.3c-2.1,0.7-1.1-2.4-2.7-2.7
			C599.1,26.5,599.4,26.3,599.8,26z"/>
		<path class="st48" d="M598.7,26.8c0.1,1.6,0.7,3.2-0.4,5c-2-1.3-1-3.3-1.3-4.8C597.5,26.9,598.1,26.9,598.7,26.8z"/>
		<path class="st49" d="M13.1,31c-0.2,7.1,5.3,2.8,8,4c0,2.6,0,5.3,0,7.9c-0.6,2.8-1.8,0.4-2.7,0.3c-2.1-0.2-4.2-0.2-6.3-0.3
			c0-4.3-0.1-8.6-0.1-12.9C12.4,30.4,12.8,30.7,13.1,31z"/>
		<path class="st46" d="M627.8,27.2c1,0.3,1.1,1.2,1.2,2c0.2,2.9,2.4,1.8,4,1.9c1.9,0.1,3.8,0.1,5.7,0.2c0,1.6,0.1,3.2,0.1,4.8
			c-2.2-0.1-4.5-0.6-6.7-0.3c-2.6,0.4-3.2-1.2-4.2-2.8C626.3,31.1,626.4,29.2,627.8,27.2z"/>
		<path class="st50" d="M292,111c7.9-0.3,15-3.9,22.5-5.8c5.8-1.4,11.4-3.2,17.1-5.1c1.9-0.7,2.9,0.2,4.8,1.2
			c-4.7,3-9.7,3.9-14.5,5.3c-9.2,2.7-18.4,5.2-27.6,7.9c-1.2,0.3-2.2,0.8-3.1-0.5C292.2,113.2,291.5,111.9,292,111z"/>
		<path class="st51" d="M292.3,117.2c13.6-4,27.2-8,40.8-12.1c0.1,0.5,0.3,1,0.4,1.4c-13.6,4-27.2,8.1-40.8,12.1
			C292.6,118.2,292.5,117.7,292.3,117.2z"/>
		<path class="st52" d="M292,111c0.5,1.2,1.8,2.7-0.9,2.9c-1.7-9.5-6.1-18.4-6.5-28.2C287,94.1,289.5,102.5,292,111z"/>
		<path class="st53" d="M335.6,129.4c-8.4,1.8-15.9,6.4-24.7,6.8c8.1-2.8,16.1-5.6,24.2-8.4C335.3,128.4,335.5,128.9,335.6,129.4z"
			/>
		<path class="st54" d="M269,48c-4.4,1.2-8.9,1-13.3,1c-2,0-3.6-0.7-5.5-1.6c-6.1-2.8-12.7-1.7-19-0.8c-5.6,0.8-10.9,0.1-16.1-1.6
			c0.5-0.5,1.1-1,1.6-1.6c-0.6,0.5-1.1,1.1-1.6,1.6c-0.8-0.5-1.7-0.9-2.9-1.6c0.3,4.2,2.8,4.6,5.8,4.6c9,0,17.9,0,26.9,0
			c1.5,0,3.2-0.4,5,1c-1.8,1.5-3.4,1-5,1c-8.6,0.1-17.3,0.1-25.9,0.1c-6.5,0-8.8-2.4-8.9-9c3.3-5.9,5.1-6.9,13.9-4.7
			c5.7,1.5,9.5-0.5,13.1-4.3c2.6-2,5.3-2,7.9,0c4.9,2.6,10.3,3.6,15.5,4.9c1.5,0.4,2.9,0.5,3.4,2.2c-2.5,1.2-4.8,0.1-7.2-0.5
			c-4.6-1.1-9.1-2.3-13.7-3.1c5.9,1,11.6,3,17.5,4c1.9,0.3,4,0.4,5.2,2.4C269.2,42.8,270.9,44.5,269,48z"/>
		<path class="st55" d="M245,32.1c-2.6,0-5.3,0-7.9,0c-1.9-0.1-3.7-0.2-5,1.4c-1.6,1.8-3.3,0.5-5,0c3.1-0.3,5.4-1.9,7-4.5
			c1-1,2-2,3-3c0.3-0.4,0.5-1,1-1c7.7-0.5,15.4-1,23.1,0.1c0.9-3.2,2.9-4.4,6.4-4.2c2.8,0.2,5.9,1,8.7-0.8c1.6-0.2,1.5,1,1.7,2
			c-0.5,2.5-0.9,5-2.8,6.9c-4,0-8-0.1-11.9,0c-2.1,0-4-0.4-5.6,2.1c-1.3,2.1-4.3,0.7-6.6,0.9C249,32.2,247,32.1,245,32.1z"/>
		<path class="st56" d="M488.8,52c-0.8,2.8-3.2,1.4-4.9,1.7c-1.9,0.3-3.9,0.3-5.8,0.4c-0.7,0-1.4,0-2.1-0.1c-36.2,0-72.5,0-108.7,0
			c-8.3,0-8.3,0-8.3-8.5c0-0.8,0-1.7,0-2.5c0.3,0.6,0.8,1.1,0.9,1.7c0.9,7.3,0.9,7.3,8.2,7.3c32.7,0,65.3-0.1,98,0
			C473.6,52.1,481.2,51.1,488.8,52z"/>
		<path class="st57" d="M285,32c-2.7,0-5.5-0.1-8.2-0.1c-0.3-1.7-1.4-3.4,0.2-4.9c2.6,1.5,4.5,0.5,5.9-1.9c1.9-0.6,3.9-0.4,5.8-0.5
			c10.4,0,20.7,0,31,0c4.7,0.4,9.5-0.9,14.2,0.9c2.5,3.8-1,3.7-2.9,3.8c-6.2,0.4-12.5,0.3-18.7,0.1c-6.7,0.1-13.5,0-20.2,0.1
			C289.5,29.6,286.9,29.7,285,32z"/>
		<path class="st58" d="M312,28.1c6.6,0,13.3,0,19.9-0.1c1,0,3.2,0.8,2-1.8c2.7-2.6,6.4-0.8,9.3-2.3c2.7,1.4,1.9,3.8,1.8,6
			c-0.2,0.9-0.7,1.6-1.4,2.1c-1.5,0-1.8-1-1.9-2.3c-0.1-1.4-0.6-2.7-2.3-2.6c-1.9,0.2-1.4,1.8-1.5,3.1c-0.7,0.6-0.2,2.5-2,1.9
			c-8,0-15.9-0.1-23.9-0.1C310.9,30.6,311,29.4,312,28.1z"/>
		<path class="st59" d="M336,32c0.7-0.6,1.4-1.3,2-1.9c0.4,1.7,3.1,1.7,3,3.9c-2.2,2.1-2.2,4.5-1,7.1c-1,3.7-2,7.3-3.2,10.9
			c-0.6,1.7-1.4,3.8-3.7,3.2c-2-0.5-2.4-2.6-2.2-4.5c0.5-4.3,2.1-8.3,3.4-12.4C335,36.2,336.1,34.3,336,32z"/>
		<path class="st60" d="M312,28.1c0,1.3,0,2.5,0.1,3.8c-9,0.1-18.1,0.1-27.1,0.2c-0.3-3.5,1.8-4.1,4.7-4
			C297.2,28.1,304.6,28.1,312,28.1z"/>
		<path class="st54" d="M285.1,47.9c-1.9-0.1-3.3,1-5,1.6c-3.3,1.3-6.9,1.3-9.1-2.5c0-0.5,0.1-1,0.1-1.5c4.4,0.4,6.9-5.9,11.9-3.5
			C285.5,43.4,285.3,45.6,285.1,47.9z"/>
		<path class="st61" d="M277.9,26.9c-1.4,1.5-0.6,3.4-1.1,5c-0.6-1-1.2-1.9-1.8-2.9c0.1-2.5,1-4.7,2.1-6.9c0.4-0.3,0.8-0.5,1.3-0.5
			c3.4,0.6,7.2-0.3,10.2,2.3c0.2,0.8,0,1.4-0.5,2c-2,0.1-4,0.2-6.1,0.3C280.8,27.2,279.4,27.2,277.9,26.9z"/>
		<path class="st62" d="M357,46.3c-0.7,2.1-1.7,3.8-3.8,3.5c-2-0.3-3.2-1.8-3.1-3.9c0.1-2.1,1.3-3.6,3.4-3.6
			C356,42.2,356.1,44.8,357,46.3z"/>
		<path class="st63" d="M343.7,32c0.1-0.6,0.2-1.3,0.4-1.9c1.7-1.5,4.2-1.9,5.5-4.1c0.7-1.2,2-1.9,3.4-1.1c1.7,1,2.2,2.4,0.9,4.1
			c-1.4,1.6-0.2,1.8,1,2c1.4,0.2,2.9-0.4,4,1C353.9,32,348.8,32,343.7,32z"/>
		<path class="st64" d="M265.8,42c-8.2-3-17.1-3.8-25.3-6.9c8.1,0,15.4,3.8,23.4,4.1C264.6,40,266.3,40.3,265.8,42z"/>
		<path class="st65" d="M340,41.1c-3.6-3.8-3.5-4.7,1-7.1c1.9,1.1,3.4,2.5,2.8,5C343.3,41,341.7,41,340,41.1z"/>
		<path class="st66" d="M314.5,57.9c-2.2-0.4-2.5-1.9-2.5-3.7c0.1-2,1-3.1,3-3.1c2.1,0,3,1.3,2.8,3.2
			C317.7,56.4,316.4,57.6,314.5,57.9z"/>
		<path class="st67" d="M260.6,31c4.3-1,8.5-1.4,12.8,0C269.1,32.4,264.9,32.1,260.6,31z"/>
		<path class="st68" d="M285.1,47.9c-0.7-2-1.3-3.9-2-5.9c5.6-0.3,2.8,3.5,3,5.9h-0.5H285.1z"/>
		<path class="st69" d="M185.9,71c-0.1-1.9-0.1-3.9-0.2-5.8c5.5-2.8,11.5-2.2,17.4-2.2C197.3,65.7,191.6,68.3,185.9,71z"/>
		<path class="st17" d="M182.8,35.9c-0.7,2-1.2,3.9-3.4,4c-1.9,0.1-3.3-0.7-3.2-2.8c0.1-2,0.5-4.1,3.2-4
			C181.3,33.2,182.1,34.6,182.8,35.9z"/>
		<path class="st17" d="M201.1,44.1c2.2,0.3,3,1.5,2.8,3.4c-0.2,2.1-1.7,2.6-3.6,2.6c-2.1,0-2.4-1.3-2.3-3
			C198.2,45,199.3,44.1,201.1,44.1z"/>
		<path class="st70" d="M170.9,36.2c0.7,2.6,1.2,5.2-0.8,8.1c-1.4-3.1-1.6-5.6,0.1-8.2l0.4-0.3L170.9,36.2z"/>
		<path class="st65" d="M167.1,55.9c-1.2-0.6-1.1-1.3-0.1-2c1.5,0.4,3.3-0.6,4.7,1.2C170.3,56.4,168.6,55.9,167.1,55.9z"/>
		<path class="st71" d="M170.9,36.2h-0.4h-0.4c-1.4,0-2.8-0.1-4.1-0.1c0.3-2.9,2.6-1.7,4.1-2.1c0.6-0.1,1.2-0.1,1.8-0.2
			C172,34.7,171.9,35.6,170.9,36.2z"/>
		<path class="st72" d="M362.1,26.2c1-1.7,2.6-1.1,4-1.1c29.9,0,59.9,0,89.8,0c0.6,0.6,0.6,1.2,0,1.8c-0.3,0-0.7,0.1-1,0.1
			c-2,2.9-0.6,6.1-0.9,9.1c-2-0.6-1.8-0.6-2.1-3.1c-0.3-2.1,1.8-5-1.9-6c-1,0.3-2-0.7-3-0.1c-0.7,0-1.4,0-2.1,0
			c-1.9,2.9-0.6,6.1-0.9,9.1c-2.1-0.6-1.8-0.6-2.2-3.1c-0.3-2.1,1.8-5.1-2-6c-1,0.9-1.9-0.8-2.9,0c-0.7,0-1.4,0-2.1,0.1
			c-1.9,2.9-0.6,6.1-0.9,9.1c-1.5,1.2-2,0.3-2-1.1c-0.1-1.8,0-3.5-0.1-5.3c0-0.9,0.1-2.3-1.2-2.1c-1.1,0.1-0.7,1.6-0.9,2.5
			c-1.8-0.1-1.5-1.2-1.1-2.3c-1,1.6,1.2,4-0.9,5.4c-2.1-1.5,1-5.5-2.9-6.1c-2.3,1.9,0.5,5.4-2.2,7.2c-2.2-1.9,1.3-6-2.8-7.2
			c-1,0.8-1.9,0-2.9,0c-0.7,0-1.4,0-2.1,0c-1,0.9-2-1-2.9,0c-0.7,0-1.4,0-2.1,0c-1,0.8-1.9-0.9-2.9,0c-0.7,0-1.4,0-2.1,0
			c-1,0.9-1.9-0.9-2.9,0c-0.9,0-1.8,0.1-2.2,1.1c-1.3,0.7-1.3-2.2-2.7-1.1c-2.4,0.2-2,2-2.1,3.6c-0.2,1.8,0.8,3.9-0.9,5.5
			c-0.7-2.4-0.6-4.8-0.6-7.3c0-0.9,0.3-2.1-1.4-1.7c-3.8,0.9-1.2,4.2-2.3,6.1c-2.1-1.2-1.2-2.9-0.9-4.6c-1,2.5,0.2,4.9,0,7.4
			c-1.6,1.6-1.7,0.3-1.9-0.9c-0.4-2.4,0.6-5-0.9-7.9c-2.4,3,0.3,6.6-2.1,9c-1-2.3-0.2-4.8-0.5-7.2c-0.1-0.9,0.2-2.1-1.4-1.8
			c-2.4,0.2-2,2-2.1,3.6c-0.1,1.9,0.6,3.9-0.9,5.6c-0.2-0.2-0.4-0.3-0.5-0.5c-1.5-2.4,0.2-5.5-1.6-7.9c-0.3-0.3-0.6-0.5-0.9-0.9
			c-2.7,2.5,0.6,6.4-2.1,9c-1-2.4-0.2-4.9-0.5-7.3c-0.1-0.9,0.2-2.2-1.5-1.6c-2.5,0.2-1.9,2-2.1,3.5c-0.2,1.8,0.8,3.9-1,5.4
			c-0.9-2.5-0.3-5.1-0.7-7.7c-0.1-0.8,0.1-1.7-1.2-1.3c-2.5,0.2-1.9,2-2.1,3.5c-0.2,1.8,0.8,3.9-1,5.4
			C362.5,32.9,364.8,29.1,362.1,26.2z"/>
		<path class="st65" d="M423.9,44.1c3.3,0,6.6,0,10,0c1.7,0,3,0.7,2.9,2.6c-0.1,1.6-1.3,2.3-2.8,2.3c-7,0-13.9,0.1-20.9,0
			c-1.7,0-3-0.7-2.9-2.6s1.6-2.3,3.3-2.3C416.9,44,420.4,44,423.9,44.1z"/>
		<path class="st73" d="M470.2,49c-3.3,0-6.6,0-10,0c-1.6,0-3.1-0.6-3.1-2.4c0-1.9,1.4-2.5,3.1-2.5c6.8,0,13.6,0,20.4,0
			c1.7,0,3.1,0.6,3.1,2.4c0,1.9-1.4,2.5-3.1,2.5C477.2,49,473.7,49,470.2,49z"/>
		<path class="st74" d="M378.6,49c-3.3,0-6.6,0-10,0c-1.8,0-3.5-0.4-3.5-2.6c0-1.9,1.5-2.4,3.2-2.4c6.8,0,13.6,0,20.4,0
			c1.7,0,3.1,0.7,3,2.5c-0.1,1.9-1.5,2.4-3.2,2.4C385.3,49,382,49,378.6,49z"/>
		<path class="st75" d="M455.9,26.9c0-0.6,0-1.2,0-1.8c7.4,0,14.7,0.1,22.1,0.1c0.3,1-0.2,1.5-1,1.8c-0.6,0-1.3,0.1-1.9,0.1
			c-2.3,2.8-0.6,6-1,9.1c-2-0.6-1.8-0.7-2.1-2.7c-0.4-2.1,1.8-5.1-1.8-6.3c-2,2.9-1.4,5.8-0.3,8.8c-0.9,2.2-2.1,2.2-2.6-0.1
			c-0.4-1.7-0.1-3.6-0.2-5.4c-0.1-1.4,0.4-3.1-1.9-3.3c-2.3,2.8-0.7,6-1,9.1c-2-0.5-1.7-0.6-2.1-2.6c-0.5-2.2,1.8-5.3-1.9-6.5
			c-1,0.3-2-0.8-3-0.1C456.7,27,456.3,27,455.9,26.9z"/>
		<path class="st76" d="M437,27c1-1.5,1.9-0.2,2.9,0c-0.6,3.2,1.4,6.9-2.2,10.3C436.9,33.3,439,30,437,27z"/>
		<path class="st77" d="M477,27c0.3-0.6,0.7-1.2,1-1.8c0.9,0.6,1.9,1.1,2.8,1.7c-2.4,2.7,0.6,6.6-1.9,9.3c-2.4-0.3-1.3-2.2-1.5-3.4
			C477.2,30.9,477.9,28.9,477,27L477,27z"/>
		<path class="st78" d="M376,27c0.4,0,0.8-0.1,1.2-0.1c3.1,2.4,0,6.1,1.7,8.8l0.1,0.4c-2.2,1.5-2.7,1.4-2.9-1
			C375.9,32.5,376,29.8,376,27z"/>
		<path class="st79" d="M402,27c1-1.6,2-0.3,2.9,0c-0.6,3.2,1.1,6.8-1.8,10.2C402,33.5,403.9,30,402,27z"/>
		<path class="st80" d="M407,27c1-1.6,1.9-0.3,2.9,0c-1,1.6-1.3,3.3-0.5,5.1c0.8,1.8,0.8,3.4-1.5,4.9C407.6,33.4,407.3,30.2,407,27z
			"/>
		<path class="st81" d="M412,27.1c1-1.6,2-0.3,2.9,0c-0.7,3.1,1.4,6.8-1.8,9.9C412,33.5,413.8,30,412,27.1z"/>
		<path class="st82" d="M457,27c1-1.3,2-1.2,3,0.1c0,2.9,0,5.7,0,8.6C456.4,33.3,458.8,29.6,457,27z"/>
		<path class="st83" d="M417,27c1-1.6,1.9-0.3,2.9,0c-0.4,2.9,0.7,5.9-1.1,9.5C416.9,33,418.7,29.7,417,27z"/>
		<path class="st84" d="M447,27c1-1.3,2-1.1,3,0.1c0,2.9,0,5.7,0,9.8C446.3,33.3,449.1,29.5,447,27z"/>
		<path class="st85" d="M474,36.2c-2-2.9-0.9-6-0.8-9.1c0.1-1.2,1.2-0.5,1.8,0C474.4,30.1,476,33.4,474,36.2z"/>
		<path class="st86" d="M469.8,35.9c-3.5-2.9-1.8-6.2-0.9-9.5c0.4,0.2,0.8,0.5,1.2,0.7C470,30.1,469.9,33,469.8,35.9z"/>
		<path class="st87" d="M464,36.2c-2-2.9-1.1-6.1-0.8-9.1c0.1-1.2,1.2-0.6,1.8,0C464.4,30.1,466,33.4,464,36.2z"/>
		<path class="st82" d="M422.7,34.2c0.1-2.1,0.2-4.2,0.2-6.2c0-1.6,1-1.3,1.9-1c0,2.5,0.3,5-0.1,7.4
			C424.3,36.5,423.3,36.4,422.7,34.2z"/>
		<path class="st88" d="M454,36.2c-2-2.9-0.7-6-0.9-9.1c0.6,0,1.2,0,1.8,0C454.5,30.1,455.9,33.3,454,36.2z"/>
		<path class="st89" d="M444.1,36.2c-2.2-2.8-0.7-6-1-9.1c0.6,0,1.2,0,1.8-0.1C444.4,30.1,445.9,33.3,444.1,36.2z"/>
		<path class="st90" d="M434,36.2c-2-2.8-0.7-6-0.9-9.1c0.6,0,1.2,0,1.8,0C434.4,30.1,435.9,33.3,434,36.2z"/>
		<path class="st72" d="M399.8,29c0,0.2,0.1,0.3,0.1,0.5c-0.1,2.3,1.1,4.9-1.1,6.9c-0.2,0.2-1.2,0.1-1.3,0c-0.8-2.5-1.1-5,0.3-7.5
			c1.2,1.5,0.5,3.1,0.5,4.4C399.6,32.5,397,29.6,399.8,29z"/>
		<path class="st91" d="M427.8,33.2c0.1-2,0.2-3.9,0.3-6.6c0.7,1.6,1.2,2.6,1.7,3.6c0,1.3,0.1,2.6,0,3.9c0,0.8-0.3,1.9-1.2,1.7
			C427.4,35.4,427.9,34.1,427.8,33.2z"/>
		<path class="st76" d="M392,27c1.7-1.4,1.9-0.1,2,1.1c0.1,2.6,0,5.2,0,7.9C391.3,33.5,393.4,29.9,392,27z"/>
		<path class="st91" d="M367,27c1.7-1.4,1.9-0.1,1.9,1.2c0.1,2.6,0,5.2,0,7.8C366.7,33.4,368.2,29.9,367,27z"/>
		<path class="st92" d="M362.1,26.2c3.9,2.7,1,6.6,1.8,9.8c-1.9-1.7-0.5-4-1.1-5.9C362.6,28.8,362.4,27.5,362.1,26.2z"/>
		<path class="st89" d="M372,27.1c1.7-1.4,1.9-0.2,2,1.1c0.1,2.6,0,5.2,0,7.8C371.1,33.5,374.3,29.7,372,27.1z"/>
		<path class="st93" d="M382.1,27c1.8-1.3,1.9,0.1,1.9,1.2c0.1,2.6,0,5.2,0,7.8C381,33.5,384.4,29.6,382.1,27z"/>
		<path class="st89" d="M399.8,29c-1.5,1.4-0.1,3.6-1.5,5.5c-0.2-2.1-0.3-3.9-0.4-5.6c0-0.8,0-1.5-0.8-1.9c1.8-1.8,1.8,0.7,2.7,1.1
			C399.8,28.4,399.8,28.7,399.8,29z"/>
		<path class="st94" d="M388.8,35.9c-1.9-2.4-0.1-5.1-0.7-7.7c1.5,1.4,0,3.6,1.5,4.9C390,34.2,389.4,35,388.8,35.9z"/>
		<path class="st75" d="M477,27c2.4,2.7-0.5,6.5,2,9.2c-1.7,1.2-2,0-2-1.3C476.9,32.3,477,29.7,477,27z"/>
		<path class="st95" d="M195,115c-0.4,0.9-0.8,1.7-1.3,2.6c-0.5,0.8-0.6,2.1-1.9,2c-1.4-0.1-1.7-1.3-1.8-2.5c2.6-3.7,1.7-8.1,2-12.2
			c0.1-1.2-0.7-3.2,1.2-3.2s1.8,2,1.8,3.4C195.1,108.3,195,111.6,195,115z"/>
		<path class="st96" d="M490,33c5.3-0.5,10.8,1.1,16-1c9-1,18-0.2,27.1-0.5c16.1,0,32.1,0,48.2,0c1.6,0,3.3-0.5,4.8,0.5
			c0.3,0,0.5,0,0.8-0.1c0.4,3-0.7,4.1-3.8,4.1c-25.6-0.2-51.3-0.3-76.9-0.4c-4.3,0-8.6,0.2-12.9,0.3c-2.2,0.1-4.1-0.2-4.3-3
			C489.3,32.6,489.6,32.6,490,33z"/>
		<path class="st8" d="M354,29.1c0-1.5,0.1-3.3-1.8-3.6c-1.7-0.3-1.9,1.3-2.3,2.6c-1,3.4-3.9,1.4-5.8,2c-0.7-1.9,0.8-4.3-1.1-6
			c-0.2-0.2-0.3-0.3-0.5-0.5c-0.4-0.6-0.5-1.3-0.6-1.9c0.2-2.2-2.1-3.4-1.9-5.6c2.7-2,5.3,1.4,8,0c2.9,0.3,4.3,4.7,8,3
			c0.4-0.3,0.7-0.3,1,0.1c1.3,0.9,2.7,1.9,4,2.8c-1.2,0.8-0.7,1.9-0.7,3.1C360.4,30.2,359.2,30.9,354,29.1z"/>
		<path class="st74" d="M614.8,31c0.4-1.5-0.3-3.4,2-4c2.8-0.7,3.7,1.3,4.9,3.2c1,2.1,0.6,4-0.7,5.8c-0.5,2.3,1,5.1-1.7,6.7
			c-1,0.6-2.4,0.6-3.2-0.3c-1.9-2.1-1.2-4.5-0.4-6.9C616.1,34,616.4,32.3,614.8,31z"/>
		<path class="st71" d="M627.8,27.2c0.1,1.9,0.1,3.9,0.2,5.8c0,2.1,0,4.3,0,6.4c0,1.9,0,3.7-2.7,3.6c-2.5-0.1-2.2-1.9-2.3-3.6
			c0-1.1,0-2.3-0.1-3.4c-1.4-2-1-4,0-6C622.7,26.1,625.5,27,627.8,27.2z"/>
		<path class="st66" d="M607.8,31.9c0.5-1.8-1.3-4.6,2.3-5c3.1-0.3,2.9,1.9,2.9,3.9c0,2.9-0.1,5.9-0.1,8.8c0,1.9-0.8,3.2-2.9,3.2
			c-2.2,0-2.1-1.6-2.1-3.1C607.9,37.2,607.9,34.6,607.8,31.9z"/>
		<path class="st97" d="M490,33c-0.3,0-0.7,0-1,0c0.8-2.3,1.1-6.2,2.4-6.6c3.5-0.9,7.4-0.4,11.2-0.3c2.6,0.1-0.4,3.7,2.4,3.8
			c-0.2,0.3-0.5,0.6-0.7,0.9c-4.7,1.6-9.7-0.5-14.3,1.2C489.9,32.4,489.9,32.7,490,33z"/>
		<path class="st45" d="M459,21.1c-3.7,1.6-7.4,1.4-11.1,0.1c0.1-0.6,0.3-1.2,0.7-1.7c1-1.6-1.3-2.7-0.7-4.3L448,15
			C453.1,14.5,456.5,17,459,21.1z"/>
		<path class="st45" d="M470.9,21c-3.7,1.8-7.3,1.5-11.1,0.2c0.1-0.7,0.4-1.2,0.8-1.7c1.1-0.9,0.7-2.3,1.2-3.4l0.2-0.2
			C466.3,15.4,469.3,17,470.9,21z"/>
		<path class="st36" d="M493.9,19c0-0.3,0-0.7,0-1c3.3-1.2,6.6-2.7,9.9,0l0.3,0.2c0.3,1.1,1.2,2.2-0.2,3.1c-1.2,0.9-1.7,0.1-2.1-1
			c-0.5-1.4-1.6-1.2-2.3-0.4C496.9,23.7,495.7,19.9,493.9,19z"/>
		<path class="st98" d="M410,21.1c-3.7-2.2-7.4-4.3-11.1-6.6c-1.3-0.8-3.7-0.9-2.8-3.5c5.9,1.5,11,4.3,14.9,9c0,0.4,0,0.7,0,1.1
			h-0.5H410z"/>
		<path class="st99" d="M460.9,20.1c-0.3,0.4-0.7,0.7-1,1.1c-0.3-0.1-0.6-0.1-0.9-0.1c-3.4-2.5-6.8-5-10.9-6.1
			c-0.5-1.7-3.2-1.8-3.1-4C451.4,12.2,456.6,15.4,460.9,20.1z"/>
		<path class="st100" d="M398.9,20.2c-0.3,0.3-0.7,0.7-1,1c-0.3,0-0.6-0.1-1-0.1c-2.7-2.8-6.4-4-9.6-5.9c-1.7-1-4.1-1.6-4.4-4.2
			C389.3,12.3,394.7,15.3,398.9,20.2z"/>
		<path class="st101" d="M422,21.1c-3.9-2.4-7.7-4.9-11.6-7.3c-1.1-0.7-2.4-1.1-2.4-2.8c6.4,1.2,11.6,4.3,15.9,9.1
			c-0.3,0.3-0.7,0.6-1,1C422.6,21.1,422.3,21.1,422,21.1z"/>
		<path class="st102" d="M470.9,21c-2.6-2.3-5.5-4.1-8.9-5c-1-2.4-4.8-1.9-5.1-5c6.3,1.3,11.7,4.3,15.9,9.2c0,0.3,0,0.5,0.1,0.8
			C472.3,21,471.6,21,470.9,21z"/>
		<path class="st103" d="M448.9,20.2c-0.3,0.3-0.7,0.7-1,1c-0.3-0.1-0.6-0.1-0.9-0.1c-2.9-2.4-6.3-4.1-9.6-5.9
			c-1.4-0.7-3.2-1.1-3.3-3.2C440.2,12.5,444.8,15.9,448.9,20.2z"/>
		<path class="st104" d="M372,21.1c-3.3-2-6.7-3.9-10-6c-1.6-1-3.7-1.6-4-4c6,1.4,11.3,3.9,15,9c0,0.4,0,0.7,0,1.1
			C372.6,21.1,372.3,21.1,372,21.1z"/>
		<path class="st105" d="M384,21c-1.2-2.2-3.7-2.5-5.6-3.8c-0.8-0.5-2.6-0.5-1.3-2.3c3.9,0.2,7.1,1.5,8.9,5.1c0,0.3,0,0.7,0,1
			C385.3,21.1,384.6,21,384,21z"/>
		<path class="st106" d="M434,21.1c-0.5-2.8-5.2-1.5-5-5c3.3-0.3,5.6,1.1,6.9,4.1c0,0.3,0,0.7,0,1C435.3,21.1,434.6,21.1,434,21.1z"
			/>
		<path class="st107" d="M622.9,30c0,2,0,4,0,6c-0.6,0-1.3,0-1.9,0c-0.1-2-0.3-4,0.7-5.8C622.1,30.1,622.5,30.1,622.9,30z"/>
		<path class="st108" d="M22.3,90.9c25.6-12,51.1-24.1,76.7-36c3.9-1.8,3.5-4.7,3.1-7.9c-0.5-3.7-3.3-2-5.1-2.1
			c-23.3,0-46.6,0.1-69.9,0.2c1-1.6,2.6-1.2,4.1-1.2c24,0,48,0,72,0.1c0.1,2.3,0.1,4.6,0.2,6.9c3,2.6,3.8,0.4,4.5-2
			c0.6-2.4,1.2-5,4.2-1.8c3.5,2.8,13.6,2.8,18,0c1.8-1.4,3.9-1,6-0.9l0,0c5.4,2.8,11.4,0.9,17,2.1c2.6,1.1,3.3,3.3,3,5.9
			c-1.5,1.5-3.4,1-5.2,1c-6.3,0.1-12.7,0.4-19-0.1c-13.5-1-25.7,3-37.7,8.8C71.7,74.9,48.8,85.1,26,95.6c-0.9,0.4-1.8,0.9-2.8,0.5
			c-0.3-0.8-0.9-2.6-1.6-0.9c-2.1,5-5.5,4.3-9.3,2.9c0-2.7,0-5.3,0-8C15.1,94.8,18.7,92.9,22.3,90.9z"/>
		<path class="st109" d="M30.1,36c42.3,0,84.6,0,126.9,0c-0.7,2.5-2.4,3.1-4.9,3.1c-39.4-0.1-78.8-0.1-118.2,0
			C31.8,39.1,29.8,39,30.1,36z"/>
		<path class="st13" d="M23.1,96c26.6-12.4,53.1-25,79.8-37.2c7.1-3.2,14.7-5,22.7-4.8c10.1,0.3,20.3,0,30.5,0c0,0.7,0,1.4,0,2
			c-8,0-16,0.4-23.9-0.1c-13.2-0.9-25,2.6-36.7,8.3C72.4,75.4,49,85.9,25.6,96.7C25,97,22.8,99.6,23.1,96z"/>
		<path class="st17" d="M153.1,48.1c-5.8,0.6-11.9,3.6-17-2.1c5.1-2,10.5-0.8,15.7-0.8C153.6,45.2,153.7,46.6,153.1,48.1z"/>
		<path class="st13" d="M112,47.1c-2.1-1.2-3.1-0.6-2.9,1.8c0.2,2.3-0.8,3.8-2.9,4.6c-2.7,1.1-3.3-0.1-2.8-2.5
			c0.2,0.1,0.4,0.1,0.7,0.1c3.5-1.3,1.9-2.6,0-4C106.7,43.8,109.4,43.7,112,47.1z"/>
		<path class="st108" d="M104.1,47c1-0.3,2.2-1.6,2.8,0.3c0.4,1.2,1.6,2.4,0.5,3.7c-1,1.2-2.2,1.4-3.3,0
			C104.1,49.7,104.1,48.4,104.1,47z"/>
		<path class="st13" d="M136,46.1c-1.9,1.1-3.9,1-6,0.9C131.6,43.8,133.8,44.6,136,46.1z"/>
		<path class="st17" d="M272.7,74.9c-0.1,1.1-0.7,1.8-1.8,1.9c-0.9,0.2-1.7-0.2-1.7-1.2c-0.1-1.3,0.5-2.3,1.9-2.3
			C272,73.3,272.5,74,272.7,74.9z"/>
		<path class="st74" d="M472.9,20.2c-5.3-3.1-10.6-6.2-15.9-9.2c0.5-3.4,2.4-2.8,4.6-1.6c4.1,2.4,7.9,5.1,12.4,6.7
			C475,17.9,477.6,20,472.9,20.2z"/>
		<path class="st74" d="M398.9,20.2c-5.3-3.1-10.6-6.1-15.9-9.2c0.4-3,2.1-3,4.2-1.7c4,2.3,8.1,4.6,12,7
			C401.5,17.6,403.1,19.2,398.9,20.2z"/>
		<path class="st74" d="M460.9,20.1c-5.3-3-10.6-6.1-15.9-9.1c0.4-2.7,1.4-3.1,4-1.7c4.3,2.3,8.1,5.5,12.9,6.8
			C463.1,17.9,464.9,19.7,460.9,20.1z"/>
		<path class="st71" d="M448.9,20.2c-5-2.7-9.9-5.5-14.9-8.2c-0.5-1-1.5-1.9-0.2-3.1c1.2-1.1,2.1-0.1,3.1,0.5c3.6,2,7.3,3.9,11,5.8
			C451.3,18.5,451.3,18.5,448.9,20.2z"/>
		<path class="st71" d="M411,20c-5-3-9.9-6-14.9-9c0.2-2,0.9-3.4,3.1-2.1c4.3,2.5,8.6,5.1,12.8,7.6c1,0.6,2.2,1.2,1.6,2.7
			C413.2,20.3,412,20,411,20z"/>
		<path class="st71" d="M373,20c-5-3-10-6-15-9c0.3-1.8,0.8-3.5,3.1-2.2c4.4,2.5,8.7,5.1,13.1,7.8c0.8,0.5,1.9,1,1.6,2.2
			C375.5,20.4,374.1,19.9,373,20z"/>
		<path class="st71" d="M423.9,20.2c-5.3-3-10.6-6.1-15.9-9.1c0.4-2.1,1.1-3.4,3.6-1.9c4.2,2.5,8.6,4.7,12.8,7.2
			C426.6,17.7,427.9,19.3,423.9,20.2z"/>
		<path class="st71" d="M386,20.1c-3-1.7-5.9-3.4-8.9-5.1c-1.6-2.2-7-2.6-5.3-5.2c1.9-2.9,4.9,1.2,7.3,2.4c3,1.5,5.7,3.3,8.5,5.1
			c0.8,0.5,1.6,1.4,1,2.5C387.9,21,386.9,20.3,386,20.1z"/>
		<path class="st74" d="M487.9,18.1c-0.1,2.1-1.6,1.9-3,2c-4.9-2.2-10-4.1-13.9-8.1c-0.4-0.9-1.4-1.6-0.6-2.7c1-1.4,2.1-0.5,3.1,0.1
			C478.3,12.2,483.1,15.2,487.9,18.1z"/>
		<path class="st71" d="M347,12c-0.4-1-1.5-2-0.3-3.1c1-0.8,1.9-0.1,2.7,0.3c3.9,2.2,7.7,4.5,11.5,6.7c1.2,0.7,3.2,1.7,2.5,3.1
			c-1.1,2-2.8,0.5-4.2-0.4c-0.4-0.3-0.9-0.4-1.3-0.7C353.7,17.2,350.3,14.7,347,12z"/>
		<path class="st110" d="M435.9,20.1c-2.3-1.4-4.6-2.7-6.9-4.1c-2.2-1.4-4.4-2.8-6.6-4.3c-0.9-0.6-1.6-1.3-1-2.4
			c0.7-1.1,1.7-0.7,2.6-0.2c4.5,2.7,9.2,5.1,13.4,8.1C440.3,19.3,438.1,20,435.9,20.1z"/>
		<path class="st111" d="M471,12c4.6,2.7,9.3,5.4,13.9,8.1c-2.6,1.8-3.5-1.4-5.4-1.8s-3.6-1.5-5.5-2.3C474,13.9,470,14.9,471,12z"/>
		<path class="st112" d="M347,12c3.6,2,7.3,4.1,10.9,6.1c-0.3,0.3-0.6,0.7-0.9,1c-0.3-0.1-0.6-0.1-1-0.1c-2.6-1.7-5.3-3.3-7.9-5
			C347.4,13.6,345.9,13.5,347,12z"/>
		<path class="st113" d="M487.6,10.1c-0.1,1-0.6,1.6-1.5,1.7c-1.1,0.1-1.8-0.6-1.9-1.7c0-0.9,0.6-1.5,1.4-1.6
			C486.9,8.3,487.5,9,487.6,10.1z"/>
		<path class="st114" d="M278,22.1c-0.3,0-0.6,0-0.9,0.1c-0.2-0.7-0.1-1.6-1-2c-3.4,0-6.8-0.1-10.2-0.1c-1.5,0-3.4,0.6-3.8-1.9
			c5.6-0.1,11.2-0.1,16.9-0.2c1.1,1,0.7,2.1,0.1,3.2C278.8,21.5,278.4,21.8,278,22.1z"/>
		<path class="st115" d="M261.1,25.1c-8,0.7-16.1-0.9-24.1,0.9c-1.5-2.5,0.8-1.9,1.7-1.9c4-0.1,8,0,12-0.1c2.8-0.1,5.6,0.4,8.3-0.9
			C261.4,21.9,260.9,23.9,261.1,25.1z"/>
		<path class="st116" d="M340,16.1c2,1.5,4.1,2.9,2.8,5.9c-6.1,0.4-12.2,2.1-18.1-0.7c-0.9-2.2-2.3-4.3-0.4-6.6
			c4.2,0,8.5-0.6,12.7,0.4C338,15.4,339,15.7,340,16.1z"/>
		<path class="st8" d="M337,15c-4.3,0-8.6,0.1-13,0.1c-4.3,2.5-9,1-13.6,1.3c-0.9,0-1.8,0-2.7,0c-6.9,0.1-13.9,0.2-20.8,0
			c-0.6,0-1.2,0-1.8,0c-1.8,0-3.6,0.1-5.1-1.3c0.7-1.2,1.9-1.1,3.1-1.1c16.9,0,33.8,0,50.7,0C335,14.1,336.2,14,337,15z"/>
		<path class="st117" d="M280.1,15.2c1.6,0,3.3-0.1,4.9-0.1c1.1,2.1,4.7,3.4,2.3,6.7c-3.1,0.2-6.2,1-9.1-0.9c0.2-1,0.5-2,0.7-3
			C279.3,17,279.7,16.1,280.1,15.2z"/>
		<path class="st118" d="M586.1,32.1c-17.7,0-35.4-0.1-53.1-0.1c-0.3-0.2-0.4-0.4-0.3-0.6s0.2-0.3,0.3-0.3
			c16.6-0.1,33.1-0.1,49.7-0.2C583.9,30.9,585.4,30.4,586.1,32.1z"/>
		<path class="st119" d="M532.9,31.1c0,0.3,0,0.6,0,0.9c-9,0-18,0-27,0c0.1-0.7,0.3-1.3,1.1-1.3C515.7,30.8,524.3,31,532.9,31.1z"/>
		<path class="st120" d="M489.9,32.2c4.6-2.6,9.6-0.8,14.3-1.2C499.6,33.5,494.6,31.1,489.9,32.2z"/>
		<path class="st121" d="M503.9,18c-3.3-1.4-6.6,0-9.9,0c-1.2-0.4-2.9,0.3-4.7-2.3c5.3,0,9.6-0.1,13.8,0.1
			C504.5,15.7,504.1,17,503.9,18z"/>
		<path class="st122" d="M217.5,39.3c4.2-2.4,7.8,0.7,11.7,0.7C225.2,41.1,221.4,39.1,217.5,39.3z"/>
		<path class="st14" d="M215,45c0-0.6,0-1.3,0.1-1.9c0.3-1.2,1.2-1.9,2.5-1.9c0.7,0,1.2,0.5,1.2,1.3c0.1,1.3-0.7,2.2-1.9,2.5
			C216.3,45.1,215.7,45,215,45L215,45z"/>
		<path class="st123" d="M288.1,25.9c0-0.6,0-1.2,0-1.8c1-1.2,2.4-1.9,3.9-1.8c9.7,0.8,19.4,0.3,29.1,0.5c0.8,0,1.6,0.3,2.4,0.6
			c1.6,4.3-2.7,1-3.2,2.5C309.5,25.9,298.8,25.9,288.1,25.9z"/>
		<path class="st124" d="M320.2,25.9c1.3-0.6,2.7-1.1,4-1.7c6.3-1.8,12.6-2.8,18.9-0.1l0,0c0.2,2.2-1.4,2-2.8,2
			c-2.1,0-4.1,0.1-6.2,0.1C329.3,26.1,324.7,26,320.2,25.9z"/>
		<path class="st8" d="M277.9,26.9c1.2-1.4,2.7-0.7,4.1-0.7c-0.5,1.4,1.8,3.6-0.4,4.3C278.9,31.3,279,28.2,277.9,26.9z"/>
		<path class="st125" d="M343,24.1c-6.3,0-12.6,0.1-18.9,0.1c-12,0-24.1-0.1-36.1-0.1c-3.2-1.4-6.9-0.1-10-2
			c0.1-0.4,0.1-0.7,0.2-1.1c3.2,0,6.5,0.1,9.7,0.1c3.7-0.9,7.4,0,11.1-0.3c1.7-0.2,3.6,0.5,5.1-1c1.1-1.7,2.3-3.3,3.9-4.5
			c0.7,0,1.4-0.1,2.1-0.1c0.9,4.5,3.9,6.2,9.4,3.9c3.2-1.3,4.4-0.6,5.6,2c5.9,1.3,12-1.3,17.8,1C342.9,22.7,342.9,23.4,343,24.1z"/>
		<path class="st126" d="M378.9,35.8c-2.4-2.6,0.3-6.2-1.7-8.8c1.4-1.2,1.7-0.2,1.7,0.9C379,30.5,378.9,33.2,378.9,35.8z"/>
		<path class="st127" d="M325,21c-3.2-3.4-6.8-0.1-10.1-0.1c-6.9-0.1-6.9,0.6-4.9-5.8c4.7,0,9.3,0.1,14,0.1
			C324.4,17.1,324.7,19.1,325,21z"/>
		<path class="st128" d="M307.9,15.2c0.2,2.3-2.2,3.1-3,4.7c-4.8,2.2-9.9,1.3-14.8,0.7c-2.1-0.3-5-2-4-5.5
			C293.4,15.2,300.7,15.2,307.9,15.2z"/>
		<path class="st129" d="M286.1,15.2c0.6,3.5,2.9,4.9,6.3,4.9c4.2,0,8.3-0.1,12.5-0.1c1,1.3-0.1,2-1,1.9c-5.4-0.2-10.8,1.3-16.1-0.8
			c-0.8-2-3.2-3.3-2.9-5.9C285.4,15.1,285.7,15.1,286.1,15.2z"/>
	</g>
</g>
</svg>
