<?xml version="1.0" encoding="utf-8"?>
<!-- Generator: Adobe Illustrator 25.0.0, SVG Export Plug-In . SVG Version: 6.00 Build 0)  -->
<svg version="1.1" xmlns="http://www.w3.org/2000/svg" xmlns:xlink="http://www.w3.org/1999/xlink" x="0px" y="0px"
	 viewBox="0 0 662 281" style="enable-background:new 0 0 662 281;" xml:space="preserve">
<style type="text/css">
	.st0{display:none;}
	.st1{display:inline;fill:#F40C34;stroke:#000000;stroke-miterlimit:10;}
	.st2{display:none;fill:#FFFFFF;}
	.st3{fill:#F2F1F2;}
	.st4{fill:#E1E0E1;}
	.st5{fill:#3C3B3B;}
	.st6{fill:#DAD8D8;}
	.st7{fill:#C8C6C5;}
	.st8{fill:#C1BFBD;}
	.st9{fill:#3B211D;}
	.st10{fill:#512016;}
	.st11{fill:#F3F2F4;}
	.st12{fill:#C1812F;}
	.st13{fill:#D4D2D3;}
	.st14{fill:#E7E6E8;}
	.st15{fill:#E2DFE0;}
	.st16{fill:#E8E4E4;}
	.st17{fill:#E2E0E1;}
	.st18{fill:#C0BAB9;}
	.st19{fill:#474443;}
	.st20{fill:#8F3F33;}
	.st21{fill:#4B4949;}
	.st22{fill:#9F2D1D;}
	.st23{fill:#E6E4E5;}
	.st24{fill:#993426;}
	.st25{fill:#914034;}
	.st26{fill:#A52C1C;}
	.st27{fill:#464545;}
	.st28{fill:#9F392B;}
	.st29{fill:#835C55;}
	.st30{fill:#CAB8AE;}
	.st31{fill:#D7C6BD;}
	.st32{fill:#8B3D31;}
	.st33{fill:#D8D3D3;}
	.st34{fill:#383838;}
	.st35{fill:#AF8C85;}
	.st36{fill:#848383;}
	.st37{fill:#C5C2C3;}
	.st38{fill:#E2DEDD;}
	.st39{fill:#838283;}
	.st40{fill:#AFA7A6;}
	.st41{fill:#515051;}
	.st42{fill:#3F2F2A;}
	.st43{fill:#050505;}
	.st44{fill:#C5C4C5;}
	.st45{fill:#D3D2D3;}
	.st46{fill:#333333;}
	.st47{fill:#A09FA0;}
	.st48{fill:#B6B5B6;}
	.st49{fill:#19110C;}
	.st50{fill:#AEADAE;}
	.st51{fill:#151514;}
	.st52{fill:#4F4A49;}
	.st53{fill:#929293;}
	.st54{fill:#302E2D;}
	.st55{fill:#22180D;}
	.st56{fill:#281B18;}
	.st57{fill:#1F0C08;}
	.st58{fill:#747374;}
	.st59{fill:#656565;}
	.st60{fill:#717071;}
	.st61{fill:#888788;}
	.st62{fill:#331D19;}
	.st63{fill:#7F7E7F;}
	.st64{fill:#999899;}
	.st65{fill:#5D5C5D;}
	.st66{fill:#605755;}
	.st67{fill:#5C5C5C;}
	.st68{fill:#756E6B;}
	.st69{fill:#181717;}
	.st70{fill:#1A100E;}
	.st71{fill:#343334;}
	.st72{fill:#474647;}
	.st73{fill:#252425;}
	.st74{fill:#898787;}
	.st75{fill:#9B6623;}
	.st76{fill:#696869;}
	.st77{fill:#3F3C3C;}
	.st78{fill:#CCC6C2;}
	.st79{fill:#825722;}
	.st80{fill:#585758;}
	.st81{fill:#302F2F;}
	.st82{fill:#2B2321;}
	.st83{fill:#464241;}
	.st84{fill:#E5E4E6;}
	.st85{fill:#DCDBDC;}
	.st86{fill:#E8E6E8;}
	.st87{fill:#141313;}
	.st88{fill:#262626;}
	.st89{fill:#4A494A;}
	.st90{fill:#545454;}
	.st91{fill:#C4C2C3;}
	.st92{fill:#8C382C;}
	.st93{fill:#2D2220;}
	.st94{fill:#92281A;}
	.st95{fill:#7F7E7E;}
	.st96{fill:#A09E9F;}
	.st97{fill:#BDBBBC;}
	.st98{fill:#8D8988;}
	.st99{fill:#A8A6A7;}
	.st100{fill:#989090;}
	.st101{fill:#982B1C;}
	.st102{fill:#C4C2C2;}
	.st103{fill:#791B0E;}
	.st104{fill:#73261B;}
	.st105{fill:#7D271B;}
	.st106{fill:#A9A6A6;}
	.st107{fill:#9C9898;}
	.st108{fill:#70241A;}
	.st109{fill:#803328;}
	.st110{fill:#0D0A09;}
	.st111{fill:#090909;}
	.st112{fill:#E3E2E3;}
	.st113{fill:#B3B1B2;}
	.st114{fill:#CBCACB;}
	.st115{fill:#BFBEBF;}
	.st116{fill:#843226;}
	.st117{fill:#E8E7E9;}
	.st118{fill:#431E18;}
	.st119{fill:#D5D3D5;}
	.st120{fill:#F9F8F9;}
	.st121{fill:#884238;}
	.st122{fill:#453B3A;}
	.st123{fill:#CCCBCC;}
	.st124{fill:#5B3933;}
	.st125{fill:#F6F6F6;}
	.st126{fill:#9F2F1F;}
	.st127{fill:#683F39;}
	.st128{fill:#171616;}
	.st129{fill:#150A07;}
	.st130{fill:#110B09;}
	.st131{fill:#1A1A1A;}
	.st132{fill:#282828;}
	.st133{fill:#160906;}
	.st134{fill:#161515;}
	.st135{fill:#212121;}
	.st136{fill:#191919;}
	.st137{fill:#BFBDBF;}
	.st138{fill:#8B8B8B;}
	.st139{fill:#807F80;}
	.st140{fill:#706F6F;}
	.st141{fill:#989798;}
	.st142{fill:#474242;}
	.st143{fill:#441711;}
	.st144{fill:#41150F;}
	.st145{fill:#6D6C6D;}
	.st146{fill:#5A5959;}
	.st147{fill:#431D17;}
	.st148{fill:#6E6D6D;}
	.st149{fill:#666465;}
	.st150{fill:#401913;}
	.st151{fill:#3D3D3D;}
	.st152{fill:#250F0B;}
	.st153{fill:#3F3E3E;}
	.st154{fill:#250D09;}
	.st155{fill:#484748;}
	.st156{fill:#454444;}
	.st157{fill:#A4A3A5;}
	.st158{fill:#ABAAAB;}
	.st159{fill:#B4B3B5;}
	.st160{fill:#1C1B1B;}
	.st161{fill:#343434;}
	.st162{fill:#3F3D3D;}
	.st163{fill:#645A58;}
	.st164{fill:#4F4C4C;}
	.st165{fill:#6A6868;}
	.st166{fill:#38211D;}
	.st167{fill:#282727;}
	.st168{fill:#363536;}
	.st169{fill:#3E3D3D;}
	.st170{fill:#212021;}
	.st171{fill:#2F2E2E;}
	.st172{fill:#5D1E15;}
	.st173{fill:#561D15;}
	.st174{fill:#6E2419;}
	.st175{fill:#561F17;}
	.st176{fill:#888686;}
	.st177{fill:#6A6969;}
	.st178{fill:#7A7776;}
	.st179{fill:#42140C;}
	.st180{fill:#481A13;}
	.st181{fill:#6D6B6B;}
	.st182{fill:#3E1812;}
	.st183{fill:#242424;}
	.st184{fill:#2D120E;}
	.st185{fill:#5D5B5C;}
	.st186{fill:#35231F;}
	.st187{fill:#555353;}
	.st188{fill:#565556;}
	.st189{fill:#521E16;}
	.st190{fill:#747272;}
	.st191{fill:#424040;}
	.st192{fill:#A5A4A5;}
	.st193{fill:#747474;}
	.st194{fill:#353535;}
	.st195{fill:#29120F;}
	.st196{fill:#A52716;}
	.st197{fill:#7B3E35;}
	.st198{fill:#969393;}
	.st199{fill:#601F16;}
	.st200{fill:#B6B6B7;}
	.st201{fill:#999797;}
	.st202{fill:#C8C6C6;}
	.st203{fill:#C3C1C3;}
	.st204{fill:#37221E;}
	.st205{fill:#E6E5E6;}
	.st206{fill:#393736;}
	.st207{fill:#2E2D2D;}
	.st208{fill:#393838;}
	.st209{fill:#453633;}
	.st210{fill:#732317;}
	.st211{fill:#341D19;}
	.st212{fill:#423533;}
	.st213{fill:#363535;}
	.st214{fill:#2A2929;}
	.st215{fill:#270F0B;}
	.st216{fill:#33120D;}
	.st217{fill:#403D3D;}
	.st218{fill:#514E4E;}
	.st219{fill:#2D2C2C;}
	.st220{fill:#464444;}
	.st221{fill:#282728;}
	.st222{fill:#818081;}
	.st223{fill:#8C8C8C;}
	.st224{fill:#757475;}
	.st225{fill:#787777;}
	.st226{fill:#606060;}
	.st227{fill:#3E1009;}
	.st228{fill:#686768;}
	.st229{fill:#6B6A6B;}
	.st230{fill:#1F1918;}
	.st231{fill:#4C4A4A;}
	.st232{fill:#464546;}
	.st233{fill:#373434;}
	.st234{fill:#AAA9AA;}
	.st235{fill:#464646;}
	.st236{fill:#4C4C4C;}
	.st237{fill:#3F3F3F;}
	.st238{fill:#222222;}
	.st239{fill:#9E9D9E;}
	.st240{fill:#8C8B8C;}
	.st241{fill:#737273;}
	.st242{fill:#898989;}
	.st243{fill:#9B9A9B;}
	.st244{fill:#413634;}
	.st245{fill:#8A8A8A;}
	.st246{fill:#5A5A5A;}
	.st247{fill:#696969;}
	.st248{fill:#1C1411;}
	.st249{fill:#CECECF;}
	.st250{fill:#434242;}
	.st251{fill:#5E5D5E;}
	.st252{fill:#6A696A;}
	.st253{fill:#B8B7B8;}
</style>
<g id="Camada_1">
	<g id="Camada_2_1_" class="st0">
		<rect x="76" y="-23.6" class="st1" width="531" height="354"/>
	</g>
	<rect class="st2" width="662" height="281"/>
	<g id="Camada_1_1_">
		<g>
			<path class="st3" d="M316,262.3c-1.7-2-4.1-0.3-6.4-1.5c5.2-2.1,8.7-5.9,12.4-9.7s2.8-8.4,1.8-11.7c-1-3.4-0.8-6.1-0.1-9.1
				c0.7-3.1-0.1-4.4-2.7-6.8c-3.5-3.3-5-8.8-7-13.5c-0.3-0.8,2.4-2,1-4.1c-2.2-3.3-4.2-6.8-6.9-9.6c-0.7-0.7-1.5-0.6-2.1,0.2
				c-0.8,1.1-1.6,2.4-3.2,1c-1.4-1.2-0.1-2.4,0.3-3.6c1-2.8,2-5.2-2.9-3.4c-3,1.2-2.7-2.6-4.3-3.7c-2.5,0.9,0.7,3.1-1.1,4.1
				c-1.5-0.2-1.7-1-1.6-2.4c0.3-3.3-1-5.9-3.4-8.3c-1.7-1.7-1.4-5.3-5.2-4.7c-0.4,0.1-1.1-1.1-1.5-1.9c-0.5-0.9-0.5-2.5-2.2-2
				c-1.2,0.3-1.5,1.7-1.4,2.4c0.6,3.2-1.7,4.1-3.7,5.3c-1.5-1-1.9-2.4-1.7-4.1c0.5-3.3,2-6.3,3-9.5c1.4-4.2,6.1-6,10.3-4.2
				c1.5,0.6,2.8,1.8,4.3,2.5c0.4,0.2,0.9,0.4,1.3,0.7c3.1,4.1,6.1,8.2,10.8,10.7c1.2,0.6,1.9,1.8,2.2,3.2c0.1,0.5-0.8,1.3,0.5,1.4
				c7,0.6,8.6,5.7,9.4,11.4c0.2,1.2,0.5,2.3,1.5,3c2.5,2.1,4.3,4.5,4.4,8c0,0.7,0.3,1.4,0.9,1.7c4.4,2.5,5.5,7.3,8,11.2
				c3.6,7.3,4.8,15.3,6.8,23c2.6,10.2-2.3,18.4-11.9,23c-1.9,0.9-4-0.2-5.7,1C318.7,262.3,317.3,262.3,316,262.3z"/>
			<path class="st4" d="M320,262.3c6.3-0.5,9-6.6,14.1-9.1c3.3-1.6,3.9-14.2,1.3-18.2c-0.9-1.5-1-3.1-1.6-4.5
				c-0.6-1.2,2.9-5.2-2.2-3.9c0,0-0.4-0.7-0.3-0.8c3.2-4-1.6-6.9-1.4-10.5c1.2-3,1.9-6,0.7-9.2c-0.7-1.8-0.6-3.6,0.9-5.9
				c-2.2,1.7-3.4,4.1-5.7,2.9c-2.2-1.2-0.7-3.2-0.4-4.9c0.2-1.8,3.3-2.1,2.4-4.5c-3.1-0.7-4.2-2.9-4.3-5.8c0.8-3.6,2.9-3.6,5.3-1.7
				c1.9,1.5,3.8,3.1,5.5,4.9c0.4,0.6,0.6,1.3,0.6,2.1c-0.9,3.4-1.3,7.3,2.1,8.9c4.4,2,5.6,5.2,6.1,9.3c0.1,0.6-0.6,0.3-0.1,0.4
				c7.8,1.7,4,6.6,3.1,10.8c-0.2,1.1-0.3,2,0.9,3.3c3.2,3.5,4.5,7.8,3.2,12.9c-2.3,8.6-4.3,17.2-12.4,22.4c-1.4,0.2-2.9-0.4-4,1
				C329.3,262.3,324.7,262.3,320,262.3z"/>
			<path class="st5" d="M447,123.3c1.1,3.3,0.6,6.7,1,10.1c1.2,5.3-0.4,10.7,0.9,16c0,2.3,0,4.7,0,7c-2.9,2.9-0.8,7.2-2.8,10.3
				c-2.7-5.2-3.7-10.9-4.3-16.6c1.8-7.9-1.7-14.6-4.5-21.5c-0.6-0.8-1.4-1.4-1.9-2.2c0.1-4.9-3.9-7.4-6.5-10.7
				c-2.9-7.3-8.1-13.5-10.1-21.3c-0.6-2.6-1-4.9,2-6.2c1.9,0,2.4,1.5,3,2.9c2.8,7.2,7.6,13.5,10.5,20.7c1,2.3,2.6,4.1,4.3,6
				c3.1,7.7,5.5,15.5,6.6,21.9C444.7,135.2,444.7,129.2,447,123.3z"/>
			<path class="st6" d="M207.1,136.4c1.9-2.8,0.6-6,1-9c0.3-2-0.7-4.3,1-6.1c1.3,2.3,2.4,2.6,4,0.1c1.2-1.9,2.5-4.4,5.7-2.6
				c2.4,7.3-1.5,12.5-5.6,17.7c-1.3,1.4-1.7,3.1-1.6,5c-0.1,5.1,0.3,10.2-2.4,14.9c-1.6-0.9-0.3-3.1-1.9-4
				C207.1,147.1,207.1,141.7,207.1,136.4z"/>
			<path class="st7" d="M317,21.4c0-0.3,0-0.6,0-0.9c7,0,14,0,21,0c0,0.3,0,0.6,0,0.9c-1.4,1.6-3.3,1.3-5.1,1.5
				c-2.4,0.1-4.8-0.2-7.2,0.1C322.8,22.7,319.6,23.8,317,21.4z"/>
			<path class="st8" d="M448.9,149.4c-2.3-5.2-0.8-10.7-0.9-16c0.3,0,0.6,0,0.9,0C448.9,138.7,448.9,144.1,448.9,149.4z"/>
			<path class="st9" d="M253.2,206.6c0.2,2-0.2,4,1.3,5.7c-0.7,1.3-1.3,2.7-1.1,4.2c-0.1,1.8,0.3,3.6,0.3,5.4
				c-0.1,1.2-0.4,2.3-0.7,3.4c-0.7,1.8,0.3,3.6-0.3,5.4c-0.5,1-1.3,1.3-2.4,1c-1.4-0.7-2.1-2-2.8-3.3c-0.9-2-1.1-4.1-0.5-6.3
				c0.9-2.6,3-5,1.1-7.9c-0.3-0.4-0.4-0.8-0.6-1.2c-0.5-1.8,0.7-3.1,1.2-4.6c0.3-1.8,0.1-3.6,0.4-5.4c0.7-2.2-0.7-4.4-0.1-6.6
				c0.7-2.8,1-5.6,1.1-8.4c0.6-1.8,0.2-3.7,0.5-5.5c0.4-1.2,1.1-2.1,2.2-2.7c2.5-0.8,1.8-2.9,1.9-4.6c-0.7,0.9,1.2,3.7-2,3
				c-1.1-1.9-0.8-4-1-6c-0.4-2.3-1.4-4.6-0.9-7c3-3.9,1.3-8.7,2.7-12.9c0.5-0.6,0.9-1.3,1.8-0.7c0.7,2.9,0.2,5.9,0.4,8.8
				c-0.3-2.9,0.4-5.9-0.4-8.8c-1.8-2.6-5.9-0.9-7.4-4c2.5-2.2,5.2-4.3,6.6-7.5c1.3,0.2,1.9,3.3,3.8,0.9c2.2,0.1,4.2,0.6,5,3
				c-0.8,2.1-4.7,1.4-4.1,4.7c0.1,0.5,0.1,0.9,0.1,1.4c0.3,4.2-1.9,8.5,0.3,12.7c-0.8,2.3-2.1,4.4-1.4,7c-1.5,4.7-0.4,9.2,1,13.6
				c-0.2,0.2-0.6,0.6-0.8,0.5c-3.3-0.7-2.9,1.1-2.3,3.2c-0.7,3.3-0.9,6.7-0.3,10.1c0.1,1.8-1.1,3.3-1.2,5.1
				C253.9,203.7,253.6,205.2,253.2,206.6z"/>
			<path class="st10" d="M209,156.4c0.4-5.3,0.8-10.5,1.2-15.8c2.6-0.6,2.8,1.6,3.5,3.1c1.4,3.4,2.2,7.1,2.3,10.8c1,3.2,2,6.5,3,9.7
				c-1.2,6.5,0.7,13,0,19.6c-0.2,1.6,1.1,3.7-1.7,4.3C213.2,177.9,208.5,167.8,209,156.4z"/>
			<path class="st11" d="M238.1,158.4c-4-1.3-1.8-5-2.8-7.5c-0.5-1.1,1.7-3.3-0.5-3.7c-1.4-0.2-3.7,1.1-4.6,2.4
				c-1.2,1.6-1.6,2.6-2.9,0.4c1.4-2.7,0.6-5.4,0.1-8.1c-0.2-0.4-0.4-0.8-0.7-1.1c-0.9-1.4-3.5-1.8-2.6-4.3c0.8-2.2,2.4-3.1,4.7-2.8
				c0.3,0.1,0.8,0.2,1,0c6.1-5.1,5.7,0.6,6.7,4c0.3,1,0.9,1.8,1.3,2.7c3.3,4.5,1.3,9.9,2.5,14.8
				C240.5,156.5,239.4,157.7,238.1,158.4z"/>
			<path class="st12" d="M212.2,136.4c0.1-1.2,0.4-2.3,1.3-3.1c4.5-4,5.4-9.2,4.6-14.8c-0.6-0.8-0.6-1.6,0.3-2.2
				c2.2,0.8,1.9,2.7,2,4.4c0.1,1.9,0,3.9,0.7,5.7c0.5,2.3,0.4,4.6,0.3,6.9c0,0.9-0.2,1.8-0.4,2.6c-0.9,5.2-0.3,10.5-1.4,15.6
				c-0.2,1.1,0.7,2.8-1.5,2.9c-0.3-0.7-0.7-1.3-1-2C214,147.5,211.9,142.3,212.2,136.4z"/>
			<path class="st13" d="M238.1,158.4c1.2-4.8,0.7-9.5-0.2-14.2c-0.2-1.2-0.9-2.4-0.8-3.8c0-1.3,0.6-2.3,2-2.4
				c2.4,2.2,3-0.5,4.3-1.5c0.6-0.5,1.3-0.7,2-0.8c1.8,0.1,2.1,1.3,2,2.8c-0.3,2.5,0.8,4.9,0.4,7.3c-0.2,0.7-0.6,1.3-1.1,1.9
				c-1.1,1.2-2.7,1.6-4.1,2.4c-0.8,0.6-1.4,1.3-0.9,2.3c0.6,0.8,1.6,1.1,2.3,1.7c0.2,0.4,0.3,0.8,0.2,1.2c-2.6,2.8-0.1,6.4-1.5,9.4
				c-0.9,0.5-1.9,0.5-2.8-0.1c-0.9-1-1.4-2.1-1-3.4C238.7,160.4,238.4,159.4,238.1,158.4z"/>
			<path class="st14" d="M275.1,175.4c0.3,1.3,0.7,2.7,1,4c1.3,3.9-0.5,7.3-1.9,10.6c-0.8,2-1.8,3.8-2.1,5.9c-0.3,3.1-2,3-4.1,1.7
				c0.1-0.2,0.1-0.4,0.2-0.6c1.2-1,1.8-2.1,0.9-3.6c-0.5-1.4-1.8-2.6-1.3-4.3c2.6-2.8,0.1-6.5,1.7-9.5c1.6-1.5,3.2-3,5-4.4
				C274.6,175.3,274.8,175.3,275.1,175.4z"/>
			<path class="st15" d="M239,161.3c0.3,1,0.7,2,1,2.9c0.1,0.6,0.2,1.2,0.2,1.9c0,1.1,0.2,2,1,2.9c1.6,1.6,3.8,0.9,5.6,1.8
				c0.5,0.3,0.8,0.7,1,1.1c0.8,3,1.1,5.9-1.1,8.5c-0.7,0.5-1.4,0.7-2.3,0.6c-2.3-0.5-4.5-1.1-6.3-2.7
				C240.3,172.8,236.1,166.9,239,161.3z"/>
			<path class="st16" d="M247.9,222.5c-0.8,2-0.1,3.8,0.2,5.8c-0.6,2.8-1.7,0.6-2.5,0.1c-2-1.2-2.7-4.1-5.5-4.1
				c-3-2.7-4.4-5.7-1-9.1C243.5,215.9,246.1,218.7,247.9,222.5z"/>
			<path class="st17" d="M265.1,194.6c-1.2,3.5-1.5,7.1-2,10.7c-2.5,0.8-3.4-1.4-4.8-2.6c-0.7-0.8-1.1-1.8-1.3-2.9
				c-0.2-3.6-0.8-7.2,2.7-9.8C262.6,190,265.2,190.7,265.1,194.6z"/>
			<path class="st18" d="M217.3,188.1c2-5.1,0.6-10.4,0.9-15.6c0.2-2.8-0.7-5.6,0.8-8.2c0.6,3.7-1.1,7.9,2.1,11.1
				c-0.8,1.3,0.6,3.1-1.1,4.1c-1.4,1.7-0.9,3.3,0.4,4.8c1.6,1.8,2.2,4,1.7,6.4c0.8,0.9,0.8,1.8,0.2,2.8c-0.5,0.4-0.9,0.4-1.3,0
				C219,192.1,217.2,190.8,217.3,188.1z"/>
			<path class="st19" d="M228.1,140.3c0.1,0.2,0.1,0.5,0.1,0.7c-0.2,2.5,2,5.4-1.3,7.4c-2.3,0.3-3.2-1.1-3.3-3
				c-2.3,0.7-0.9,2.5-1.9,3.3c-0.1,0.1-0.3,0.1-0.4,0.1c-0.1-0.1-0.2-0.2-0.3-0.3c-0.8-3.2-2.5-6.3-0.1-9.5
				C223.6,137.8,225.8,139.1,228.1,140.3z"/>
			<path class="st20" d="M249.9,197.3c-0.8,1.7,1.9,3.3,0.1,5c-0.8,0.6-1.6,0.2-2.4-0.1c-1-0.4-1.9-1-2.5-1.9
				c-2.6-2.7-8.1-1.6-8.9-6.7c0.9-1.1,2.1-1.3,3.4-1.2c1.9,0.4,3.5,1.6,5.4,2.2C246.8,195.2,248.7,195.7,249.9,197.3z"/>
			<path class="st21" d="M220,179.4c0.6-1.3-0.9-3.2,1.1-4.1c2,2.8,4.2,5.5,6,8.4c1,1.6,0.2,3.5-0.4,5.9
				C223.2,186.7,221.1,183.4,220,179.4z"/>
			<path class="st22" d="M259.4,202.3c1.2,1,2.5,1.9,3.7,2.9c1,1.3,2,2.5,2.9,3.8c0.9,2.4-0.1,3.1-2.3,2.4c-1.9-1.8-3.9-3.5-5.6-5.5
				c-2.1-2.3-3.5-1.7-4.9,0.6c-0.2-1.6-0.4-3.1,0.8-4.5C255.8,200.6,257.6,201.5,259.4,202.3z"/>
			<path class="st23" d="M240.1,193.3c-1.3-0.2-2.6-0.3-3.9,0.3c0.6-3.4,1.3-6.8,1.9-10.2c0.3-0.3,0.7-0.5,1.2-0.6
				c1.8,0.3,3.4,1.5,5.2,1.5c1.2,0.3,2.3,0.8,3.2,1.7c1.6,2.3,1.3,4.2-1.2,5.7c-2.6,0.2-2.1-2.5-3.3-3.7
				C240.4,188.8,241,191.5,240.1,193.3z"/>
			<path class="st24" d="M252.3,216.1c-0.1-1.8-0.6-3.7,2.2-3.8c3.4,2.3,5.2,6.2,8.3,8.8c0.8,0.7,2.2,1.6,1.2,2.7
				c-1.4,1.6-2.1-0.3-3-1.1c-0.6-0.5-1.2-1-1.9-1.6c-1.4-0.5-2.6-1.4-3.6-2.4C254.5,217.9,253.4,217,252.3,216.1z"/>
			<path class="st25" d="M252.1,225.2c0.1-1.1-0.2-2.3,1.1-2.9c0.4-0.3,0.8-0.3,1.3-0.1c0.9,0.5,1.2,1.4,1.6,2.2
				c2.7,3.9,7.2,6.6,9.5,12.3c-5.1-2.5-6.9-6.9-10.5-9.4C253.9,226.8,252.6,226.6,252.1,225.2z"/>
			<path class="st26" d="M265.1,194.6c-1.1-2-2.9-3.3-4.8-4.4c-1.6-0.4-2.8-1.2-2.6-3.2c3.6-3.1,5.8,0.4,8.6,1.6
				c1.3,1.4,2.1,3.2,3.2,4.8c0.7,1.7-0.2,2.8-1.5,3.8v0.4C266.5,197.1,266,195.6,265.1,194.6z"/>
			<path class="st27" d="M220.9,156.3c2.1-6.1,2.7,1.7,4.2,0.5c1.1,1,1.2,2.3,1,3.6c-0.2,1.5,0.6,3.9-1.5,4c-2,0.1-3.2-1.9-3.7-3.9
				C220.6,159,220.3,157.6,220.9,156.3z"/>
			<path class="st28" d="M249.7,209.5c-0.9,1-2,2-1.6,3.6c-1,1.1-1.5-0.2-2.1-0.6c-2.2-3.4-7.1-4.3-8.5-8.8c2.2-0.7,2.9,1.5,4.4,1.7
				c1.7,0.8,3.6,1.2,5.3,2.1C248.1,208.1,249.2,208.5,249.7,209.5z"/>
			<path class="st29" d="M250.1,231.3c0.9,0,1.7-0.2,2.1-1.1c0.9-0.4,1.3,0.8,2.1,0.7c2.5,2,4.3,4.4,3.9,8.3
				c-3.2-1.8-6.5-3.4-8.3-6.9C249.7,232,249.7,231.6,250.1,231.3z"/>
			<path class="st30" d="M220.9,156.3c0,1.4,0,2.8,0,4.2c-0.9-2-1.9-4-2.8-6c2.3-2.9,0.8-6.3,1-9.5c0.2-3.3-0.6-6.6,1-9.7
				c1.4,1.1,1.3,2.6,1.1,4.1c-1.3,3,0.5,6.1-0.1,9.1C219.6,151.1,219.8,153.6,220.9,156.3z"/>
			<path class="st31" d="M212.2,136.4c1.6,5.4,3.2,10.7,4.8,16.1c-0.4,0.7-0.7,1.4-1.1,2.1c-1.1-3.3-2.1-6.7-3.3-10
				c-0.5-1.5-0.6-3.3-2.4-3.9C209.9,138.8,210.1,137.2,212.2,136.4z"/>
			<path class="st32" d="M247.9,222.5c-2.8-2.6-5.2-5.6-8.8-7.3c-1-1.2-1.5-2.5,0.8-1.8c1.6,0.5,2.9,1.9,4.3,3
				c3.5,2.3,3.4-1.1,4.5-2.8C251.8,216.8,249.1,219.6,247.9,222.5z"/>
			<path class="st33" d="M246.9,208.4c-2-0.4-3.5-1.6-5-2.9c4.7,0.5,1.4-3.9,3.2-5.2c1.2-0.3,2,0.5,3,1.1
				C248.7,203.9,250.9,206.7,246.9,208.4z"/>
			<path class="st34" d="M226.1,160.4c-1.4-0.9-0.8-2.4-1-3.6c5.9,1.3,3.5,5.7,3.8,9.2C224.6,165.6,229.2,161.2,226.1,160.4z"/>
			<path class="st35" d="M250.1,231.3c0,0.4-0.1,0.7-0.1,1.1c-4.6-1-6.1-5.9-9.9-8.1c0-1.9,0.7-1.2,1.7-0.6c2.2,1.4,3.1,4.7,6.4,4.5
				C249.6,228.8,249.9,230,250.1,231.3z"/>
			<path class="st36" d="M221,193.4c0.4,0.1,0.8,0.1,1.2,0.2c1.3,0.4,1.9,1.4,1.8,2.8c0.6,2.8,3.7,4.5,2.9,7.9
				C225.4,200.3,220.6,198.3,221,193.4z"/>
			<path class="st37" d="M248.7,213.5c0.4,1.8,0.5,3.6-0.1,5.4c-2-0.1-3.2-1.4-4.4-2.7c2.5-0.4,1.6-2.3,1.7-3.8
				c0.7,0.2,1.4,0.4,2.1,0.6C248.3,213.3,248.5,213.5,248.7,213.5z"/>
			<path class="st38" d="M256,224.4c-0.7-0.7-1.3-1.3-2-2c-1-2.2-0.5-3.6,2-4.2c1.3,0.8,2.5,1.6,3.1,3.1
				C258.1,222.3,257.1,223.3,256,224.4z"/>
			<path class="st39" d="M223.9,196.3c-0.6-0.9-1.2-1.8-1.8-2.8c0-1,0-1.9-0.1-2.9c3.4,1,3.7,4.2,4.9,6.8
				C225.4,198.1,225.1,196.2,223.9,196.3z"/>
			<path class="st40" d="M254.4,230.9c-0.9,0.3-1.5-0.4-2.1-0.7c0.2-1.7-2.7-3.2-0.1-5c1.3,0.3,2.5,0.6,2.9,2.1
				C253.7,228.3,254.4,229.7,254.4,230.9z"/>
			<path class="st13" d="M239,183.4c-0.3,0-0.6,0-1,0c0-1.7,0-3.3,0-5c2.2,0,4.2,0.6,6,1.9c-0.3,0.4-0.6,0.7-1,0.9
				C241.5,181.6,240.1,182.2,239,183.4z"/>
			<path class="st41" d="M226.9,148.5c2.2-2.2,0.6-5,1.3-7.4c1.2,2.4,0.6,5.1,0.9,7.6c0.1,1.3-0.7,1.6-1.9,1.4
				C227.1,149.6,227,149,226.9,148.5z"/>
			<path class="st42" d="M263.7,211.5c1.5-0.1,2.4-0.8,2.3-2.4c1.4,1.3,2.3,2.7,1.6,4.8C265.7,214.1,264.6,212.9,263.7,211.5z"/>
			<path class="st43" d="M266,37.3c4.6-2.9,9.6-5.1,14.8-6.9c1.2-0.5,2.5-0.6,3.8-0.9c12.9-1.4,25.1,1.7,37.2,5.5
				c22.2,7.1,41.4,19.3,58.7,34.7c4.8,4.3,9.7,8.6,14.4,13.1c3.9,3.7,4.7,3.3,6.3-1.6c0.7-2,1.3-4.1,2.9-5.7c2.8-0.1,3,2,2.9,3.9
				c-0.2,2.3,0.3,4.5,0.4,6.7c0.1,7.7,0.6,8.2,8.8,10.8c1.5,1,2.8,2.2,2.3,4.4c-5.1,3-5,3-1.5,8.1c2.9,4.3,4.6,9.2,7.2,13.6
				c3.2,5.5,6.3,11.2,12.5,14c0.7,1.5,0.6,3.1,0.3,4.7c-1.4,3-0.8,5.9,0.1,9.1c2.6,9.2,5,18.5,3.5,28.2c-0.3,2.1-0.4,4.3-0.5,6.4
				c-1.8,7.2-7.2,12.4-10.1,19c-1.8,0.1-2-1.6-1.5-2.3c2.9-3.8,1.8-7.7,0.4-11.6c0-0.7,0.2-1.4,0.4-2c0.5-1.4,1.9-2.4,1.7-4.1
				c-2-1.4-3.5,3-5.6,0.6c-0.7-1.4-0.6-2.8,0-4.2c0.1-0.1,0.2-0.3,0.3-0.4c5.7-4.2,5.7-4.2-0.3-7.3c-0.8-1.7-0.7-3.4-0.2-5.2
				c1.8-3.2,2.8-6.2,0.3-9.7c-1.2-1.6-0.4-3.9-0.8-5.8c-1.4-7.1-2.3-14.6-10.4-17.9c-3.3-1.7-3.4-4-1.6-6.9c1.7-2.7-0.1-4.8-1.8-6.6
				c-1.5-1.6-3.5-3.3-5.9-1c-1.6,3.1-1.1,6.8-2.4,10c-2.3,2-3.1,0.4-3.7-1.6c-0.6-2.1,0.2-4.3-0.9-6.3c-0.5-0.9-1.1-1.7-1.6-2.6
				c-0.5-1.3-0.4-2.7,0.3-3.8c3.4-5.6,1.1-10.3-2.6-14.7c-10.7-13.9-22.7-26.7-37-36.8c-21.4-15.1-44.4-27-71.6-26.9
				c-5.9,0-11.9,1.3-17.6,2.9C265.9,40.1,263.7,40.2,266,37.3z"/>
			<path class="st44" d="M334,193.4c0-0.7,0-1.3,0-2c4.7-5.8,4.7-6-0.3-12c-2-2.3-3.4-4.8-3.2-8c0.3-1.1,0.5-2.3,0.9-3.4
				c0.4-1.2,1.1-2.1,2.4-2.2c1.5-0.1,3.1,0.7,3.1,1.9c0.2,5.3,5.3,7.3,7.4,11.4c2,3.9,2.3,6.9,0.9,10.5c2.4-2.3,3.3-2.6,4.8-0.3
				c2.1,3.2,4,6.4,7.1,8.8c0.4,0.3,0.8,0.9,0.7,1.3c-1.2,6.8,5.6,11,5.6,17.1c0,6.4,2.4,12.3,2.7,18.5c-1,7.8-2.4,15.4-8.8,20.9
				c-0.7,0.6-0.8,1.4-0.4,2.2c-3.6,1.2-7.2,2.2-11,2c-1.5-3,1.1-4.2,2.8-5.4c2.1-1.5,4-2.9,3.5-5.9c-0.2-1.4,0.6-2.5,1.4-3.6
				c0.9-1.2,2-2.6,1.8-4c-0.9-7.8,2.6-15.5,0-23.4c-0.9-2.8-2-5.4-4-7.3c-2.5-2.3-4.9-4.4-4.5-8.3c0.2-1.9-1.7-2.2-3-2.8
				c-2.8-1.5-5-3.3-3.9-7.2C338.2,194.8,336.4,196.1,334,193.4z"/>
			<path class="st45" d="M334,193.4c3.8,2.9,3.9-3.7,7.4-2.6c-1.7,5,1.1,7.2,5.6,8.2c0.7,0.2,1.9,0.6,1.6,1.6
				c-1.3,4.3,1,6.4,4.1,9.1c5.6,5,6.9,13.5,5.3,19.3c-1.7,6.1,2.5,13.7-4.3,18.4c-0.7,0.5-0.4,1.5-0.1,2.3c1.1,2.9-0.5,4.2-2.9,5.4
				c-2.3,1.1-4.4,2.5-4.7,5.3c-2.5,1.6-5.3,0.9-8,1c0.3-0.8,0.3-1.9,0.9-2.2c7.6-5.1,8-13.6,10.5-21.1c1.5-4.6-1-7.7-2.6-11.1
				c-1.1-2.4-1.7,1.9-3.5,0.6c2.6-2.3,0.4-6.3,3.3-9c1.2-1.1,0.6-3.5-0.9-5c-2-1.9-2.6,1.2-4.5,1c2.2-3.8-1.1-6.9-0.5-10.5
				c-2.4,0.2-2.2,2.5-3.8,2.9C336.7,202.2,330.4,198.8,334,193.4z"/>
			<path class="st39" d="M390,244.3c-2.2,2.3-5.4,2.5-8,3.9c-1.3-2.1,0-4,0.8-5.6c2.3-5.5,2.6-10.9,0.3-16.5c0.5-4-1.2-7.8-1.8-11.6
				c-1-6.5-4.1-12.5-4.1-19.2c0.1-6.3-1.2-12.5-0.5-18.8c3-0.9,3.1,1.4,3.5,3.2c0.4,2.4-0.1,4.9,0.8,7.4c1-1.3,0.6-2.9,1-4.3
				c0.6-1.9,1.5-3.4,3.9-2.8c3,3.7,4.7,7.6,1.4,12.1c-0.4,0.6-0.9,1.1-1.4,1.6c-0.9,1.2-2,2.4-0.4,3.8c1.6,0.9,3.6,0.3,5,1.7
				c0.4,3.6,1.8,7.3-1.1,10.5c-3.1,3.5-3.1,3.5,1.5,4.6c4,3.1,4.2,4.4,1.4,8.9c-0.7,1-2.5,1.3-2.4,2.7c0,0.6,1.4,0.3,2.2,0.5
				c2.4,0.9,2.3,2.9,2,4.9c-0.4,1.4-1.6,2.3-2.3,3.4c-0.8,1.2,0.5,0.4,0.8,0.6c3.1,0,3.5,1.3,1.6,3.5
				C392.5,240.8,389.7,241.4,390,244.3z"/>
			<path class="st46" d="M425,212.4c-6,7.9-11.8,16-20.1,21.7c-0.8-0.2-1.2-0.7-1.5-1.4c-0.1-0.5-0.1-0.9,0.1-1.4
				c1.7-3.5,4.6-6.1,7.2-8.8c1.2-1.3,2.9-2.3,3.3-4.2c0-1.1-0.4-2.1-0.5-3.1c0.2-1.5,0.9-2.9,1.1-4.5c0.2-0.4,0.6-0.7,1-0.8
				c2.1,0.1,3.3-0.7,3.9-2.9c1.8-7.2,3-14.5,0.9-21.9c-0.6-2.3-1.1-5-4.3-5.4c-1.1-1-2.6-1.5-3.7-2.6c-0.9-2.2-0.7-4.9-2.7-6.7
				c0.5-3.7,4.2-4.7,6.3-7.1c3.2-1.5,4.6,0.6,5.7,2.9c2,4,3,8.5,3.3,12.9c0.3,4.5,1.3,8.7,2.7,12.9c0,2.6-0.3,5.3,0.2,7.9
				C429,204.6,426,208.3,425,212.4z"/>
			<path class="st47" d="M378.2,250.5c-2.5,1.8-5.3,3-8.2,3.8c-0.8,0.6-1.8,0.6-2.1-0.3c-0.5-1.4,0.6-2.5,1.4-3.5
				c2-2,3.6-4.3,5.2-6.7c1.1-1.7,1.9-3.5,1.3-5.6c-1.1-3.8-0.6-7.7,0.5-11.3c1.9-5.8,0.3-11.2-1.3-16.6c-1.2-4-2.1-8-2.3-12.2
				c0.1-0.8,0.5-1.5,1.1-2.1c2.4,0.2,3.2,2.2,3.8,4.1c2.3,6.2,3.7,12.8,5,19.1c1.3,6.4,0.6,13.5,0.3,20.3
				C382.4,243.7,379.2,246.6,378.2,250.5z"/>
			<path class="st48" d="M357,258.3c-0.6-0.5-3.7,1-1.6-1.8c1.2-1.6,2.8-2.8,4.1-4.3c4.2-4.8,4.3-11,5.5-16.8
				c0.8-2.3,1.1-4.6,0.6-7.1c-0.4-2.2,0.2-3.8,2.6-4.4c4.1,0.6,5.4,3.1,4.8,6.9c-0.3,9.4-5,17.4-8.8,25.6
				C362,257.9,359.3,257.2,357,258.3z"/>
			<path class="st49" d="M439.9,185.4c-1.4-2.3-1.5-5-0.9-7.3c2.2-8.1-1.6-15.6-2.1-23.4c-0.1-1.6-0.9-3.2-1.7-4.6
				c-1.8-3.1-1.7-6,0.7-8.7c2.8-1.7,4.1,0.2,5.2,2.3c1.2,2.3,0.8,4.7,0.7,7.1c0,1.4-0.5,2.7-1,4.1c-1.4,3.5-0.7,7.4,1,10.1
				c2.6,4.2,2,8.1,1.1,12.4C442.2,180.2,441.6,183,439.9,185.4z"/>
			<path class="st50" d="M364.1,256.4c-1.1-0.2-2.1-0.6-1.2-1.9c5.2-6.9,7.5-14.9,9-23.2c0.9-2.1,0.7-4.2-0.2-6.2
				c-0.8-1.9-1.3-3.8-0.2-5.7c4.8-1,5.2,3.3,4.8,5.4c-1.9,8.9,0,18.7-6.4,26.5c0.4,1-3.2,2,0,3C368.3,255.6,366.3,256.3,364.1,256.4
				z"/>
			<path class="st51" d="M425,212.4c-1.7-1.3-0.9-2.8,0-3.9c2.4-3.2,2.6-6.7,1.3-10.3c-0.8-2.1,0.5-3.9,0.7-5.8
				c0.6-1.2,1.1-2.6,2.9-2c0,0.3-0.1,0.8,0,1c4.8,4.2,0.8,7.7-0.8,11.4c-0.2,0.4,0.5,1.1,0.7,1.7C429,207.5,427.2,210,425,212.4z"/>
			<path class="st52" d="M390,244.3c-1.7-1-2.7-2-0.3-3.5c1.4-0.8,3-1.6,3.9-2.8c2.2-2.8-0.9-1.2-1.5-1.6c1.1-4,4.8-4.3,7.8-5.6
				c2.3,0.7,2.1,2.2,1.2,3.8c-0.5,0.9-1.8,1.6-0.8,2.9C397.3,240.6,393.7,242.5,390,244.3z"/>
			<path class="st53" d="M378.2,250.5c-1.6-4.4,3-6.6,3.7-10.2c2.6-3.2,0.1-6.6,0.5-9.9c0.2-1.5-1.1-3.5,1.5-4.1
				c4.3,7,1.1,13.5-1.4,20c-0.2,0.6-0.4,1.2-0.6,1.9C380.7,249,379.5,249.8,378.2,250.5z"/>
			<path class="st54" d="M439.9,154.4c0.3-1,0.7-2,1-3c0.9-0.5,0-2.6,2-2c0.3,5.9,3.2,11.3,3.2,17.3c0,1.4,0,2.8-1,3.9
				C442.9,165.3,438.4,160.8,439.9,154.4z"/>
			<path class="st55" d="M439.9,154.4c1.2,1.8,1,3.8,1,5.8c0,1.8,0.1,3.2,2.6,4c3.1,1,0.6,4.3,1.5,6.4c-0.4,2.4-0.8,4.7-2.1,6.8
				c1.5-5.9-2.6-10.6-3.5-15.9C439,159,438.2,156.6,439.9,154.4z"/>
			<path class="st56" d="M400.3,237.6c-0.9-0.5-4.5,0.4-1.2-2.3c1.4-1.1,2.7-2.1,0.8-3.9c-0.2-0.3-0.3-0.5-0.3-0.8s0.1-0.4,0.1-0.4
				c1.1-1.2,2.2-1.4,2.9,0.4c0.3,0.8-0.1,1.9,1.3,1.8c0.3,0.6,0.6,1.2,1,1.8C403.4,235.3,401.8,236.4,400.3,237.6z"/>
			<path class="st57" d="M447,123.3c-0.4,6.3-0.8,12.7-1.2,19c-0.2,0-0.4,0-0.6,0.1c-2.5-8.3-5-16.7-7.4-25
				c-2.6-4.7-0.7-9.9-1.2-14.8c0.6-2.5-1.5-5.9,2.5-7.2C443.1,104.3,446.7,113.3,447,123.3z"/>
			<path class="st58" d="M346,22.6c5.1,0.1,10.1,1.2,15,2.7c10.5,3.6,19.5,10.6,30.1,14c1.6,1.6,3.1,3.4,4.6,5.1
				c0.3,0.4,0.4,0.8,0.5,1.2c-0.1,0.7-0.5,1.2-1.2,1.4c-0.4,0-0.9,0-1.3-0.2c-0.6-0.3-1.1-0.7-1.6-1.1c-0.6-0.4-1.1-0.7-1.8-1
				c-6.9-2.1-13-5.8-19-9.7c-6.6-4.3-14.2-6.3-21.3-9.4C348.6,25,346.3,25.1,346,22.6z"/>
			<path class="st59" d="M346,22.6c12.8,4.7,25.2,10,36.6,17.5c2.8,1.9,6.2,2.9,9.3,4.3c-3,2.9-6.2,1.9-9.1,0
				c-5.7-3.7-11.8-6.7-17.4-10.5c-3.9-2.6-8.1-4.6-12.7-5.2c-3-0.7-6.2-0.7-8.9-2.5c-1.1-1.1-2.5-2.1-1.7-4.1
				C343.4,22,344.7,22,346,22.6z"/>
			<path class="st60" d="M430.9,80.6c3.8,4,5.6,9,8,13.9c-1.8,1.2-2.6-0.3-3.6-1.3c-1.1-1.7-2.1-3.5-3.5-5.3
				c1.2,2.3,2.9,4.2,2.6,6.8c-0.3,0.8-0.8,1.2-1.6,1.3c-1.7-0.3-2.3-1.7-3.1-3c-2.5-5.9-8.1-10-9.8-16.4c-0.5-1.9-1.6-3.7-0.6-5.7
				c3.1-1.3,2.9,1.7,3.8,3.1C425.2,76.8,426.4,80.5,430.9,80.6z"/>
			<path class="st61" d="M391,40.4c-10.7-2.1-18.4-10.7-28.8-13.5c-0.5-0.1-0.7-1-1.1-1.6c12.6,3.2,24.2,8.9,35,16.1
				C393.6,44.6,392.6,40.8,391,40.4z"/>
			<path class="st62" d="M405.2,48.3c0.9,0.7,1.8,1.5,2.7,2.2c0.5,2.4,2.8,3.9,3.3,6.4c-0.4,1.6-3.8-0.2-3.1,2.7
				c-1.7-0.8-3.4-2.6-5,0.1c-2.3,0.3-3.4-1.6-4.9-2.8c-2.3-2.3-4.8-4.5-6.2-7.5c-1-2.1-0.7-2.4,2-2.9v-0.1c2.5,1.3,4.5,3.1,6,5.4
				c0.6,0.6,0.9,1.7,1.9,1.5c0.3-0.1-0.4-0.9-0.6-1.4c-1.1-1.4-2.7-2.5-2.8-4.5c0.5-1.7,1.6-1.3,2.6-0.7
				C402.4,47.6,403.7,48.1,405.2,48.3z"/>
			<path class="st63" d="M430.9,80.6c-2.2,2.9-3.6,0.4-5.1-0.8c-3-2.5-3.6-6.5-5.9-9.4c-0.8-0.3-1.3-0.9-1.9-1.5
				c-0.4-0.5-0.7-1-0.7-1.7c0-1.2,0.4-2.4-0.4-3.5c-1.1-1.6-3-2.7-3.3-4.8c0.1-0.8,0.6-1.2,1.3-1.4c2.3,3,4.7,5.9,7,8.9
				c2.1,3.5,2.6,8.1,6.9,10C429.5,77.9,430.2,79.2,430.9,80.6z"/>
			<path class="st64" d="M428.9,76.5c-4.2-0.4-6.5-3.7-6.9-10C425.2,69.1,427.1,72.7,428.9,76.5z"/>
			<path class="st65" d="M436,92.4c1,0.6,1.4,2.2,2.9,2c0.3,0.3,0.3,0.6,0.2,0.9c-2,2.1-0.5,4.8-1.1,7.1c-0.3,0.3-0.7,0.4-1.2,0.3
				c-1.2-0.7-1.8-2-2.5-3.1c-0.5-1.4-2-2.4-1.4-4.2c0.4-0.3,0.7-0.7,1.1-1C435.8,94.9,435,92.8,436,92.4z"/>
			<path class="st66" d="M405.2,48.3c-2.5,3-4.1-1.7-6.4-0.8c-1.8,0.5-2.3-0.8-2.9-2l0,0c-0.4-1.7,0.9-1.9,2.1-2.1
				C401,44.2,403.1,46.1,405.2,48.3z"/>
			<path class="st67" d="M342,22.3c0.7,1.1,1.3,2.1,2,3.2c-4.5,1.2-8.6-0.2-11-3.8c1.7-0.1,3.3-0.2,5-0.2
				C339.4,21.7,340.7,22,342,22.3z"/>
			<path class="st68" d="M414.9,57.6c-0.4,0.3-0.7,0.6-1.1,0.9c-1.8,0.6-2.3-0.9-3-1.9c-1.7-1.7-4.3-2.9-2.9-6
				C410.8,52.3,412.9,54.9,414.9,57.6z"/>
			<path class="st59" d="M398,43.4c-0.7,0.7-1.4,1.4-2.1,2.1c-2.1-1.3-3.8-2.9-5-5.1c1.8-0.2,3,2.6,5.1,1
				C397,41.8,397.8,42.3,398,43.4z"/>
			<path class="st69" d="M285,30.5c-1.4,0-2.8-0.1-4.2-0.1c2.9-1.7,5.9-3.2,9.3-3.8c25.1-2,47.3,6.3,68.4,19
				c8.2,4.9,15.8,10.4,23.2,16.3c2.8,2.2,6.2,3.3,9.1,5.1c0.4,0.4,0.5,0.9,0.5,1.4c-1.7,7.5-2.9,8.1-9,2.5
				c-11.1-10.2-23.7-18-36.6-25.6c-12.9-7.5-27-11.6-41.6-14.4C297.8,29.7,291.4,29.4,285,30.5z"/>
			<path class="st70" d="M266,37.3c-0.8,2.2,0.4,2.4,2.1,2.2c0.3,0.4,0.3,0.8,0.2,1.3c-0.7,1.2-2,1.8-3.1,2.7
				c-2.1,1.5-4.6,2.5-6.5,4.2c3.3-0.5,5.5-5.5,9.8-2.6c0.1,0.5,0.1,0.9,0.1,1.4c-0.4,1.2-1.3,2-2.2,2.8c-2.2,1.6-5,2.3-7.2,4
				c-2.3,1.7-3.2,3.6-1.7,6.3c0.2,1.2-0.1,2.3-0.4,3.5c-1.1,2.8-0.4,5.5,0,8.3c-0.1,1.8-0.5,3.7,0.1,5.5c0.5,2.4-0.3,5,1,7.3
				c2.2,2.1,0,4.7,0.7,7c-0.5,3.6-0.7,7.1-0.1,10.7c0.3,2.4-1.4,4.8,0.1,7.1c0.5,4.6-1.2,9.8,3.4,13.4c0.1,2.4-2.3,2.2-3.3,3.4
				c-1.4,1.4-2.8,3.7-4.7,0.5c-0.9-3.9,0-7.9-1.1-11.8c0.4-2.9-0.6-5.8-0.3-8.7c0.1-2.2,0-4.4,0-6.6c0.5-2.8,0.1-5.4-1.3-7.9
				c0.1-2.9,0.5-5.8,0.3-8.8c0.1-1.5-1.1-2.6-1.2-4c0.5-2.6,1.8-5.1,1.1-7.9c-0.3-1.3-1.4-2.3-1.4-3.7c0-0.5,0-0.9,0.1-1.4
				c0.7-2,0.5-3.9-0.6-5.7c0.4-2.3-2.9-3.9-1.3-6.5c1.4-1.4,1.8-3.3,2.5-5C255.5,43.9,260.5,40.3,266,37.3z"/>
			<path class="st71" d="M304.7,24.3c1.3-3,4.1-1.4,6.2-1.9c9.7-0.1,19.2,1.6,28.1,4.8c13.5,5,26.8,10.7,37.9,20.3
				c4.3,3.7,9.1,6,14.6,6.9c0.7,0.3,1.3,0.7,1.6,1.4c-0.4,1.8,0.5,3.1,1.6,4.4c1.2,1.3,2.7,2.7,0.9,4.7c-1.7,0.8-3.2,0.4-4.6-0.6
				c-13.8-9.9-27.1-20.6-42.9-27.5c-9.5-4.1-19-8.6-29.7-9.3c-0.5-0.1-1-0.2-1.5-0.3C312.9,26.1,308.2,28,304.7,24.3z"/>
			<path class="st72" d="M392,55.4c-7.1,0.4-12.1-3.8-17.2-7.7c-16.6-12.6-34.9-21-55.8-23.3c-2.8-0.3-5.2-2.3-8.1-2
				c1.9-1.1,4.1-0.5,6.1-1c3,0.1,6,0.1,9,0.2c6.1,1.6,12.2,3.2,18.2,4.8c13.9,3.6,25.6,11.6,37.4,19.3c2.4,1.5,4.6,3.2,7.3,4.1
				C391.3,50.7,393.8,52,392,55.4z"/>
			<path class="st73" d="M390.9,67.5c-8-1-13-7.1-18.8-11.5c-19.3-14.5-40.7-24.1-64.4-28.3c-4-0.7-8.3-0.1-12.5-0.2
				c-1.8-0.1-3.7,0.7-5.2-0.9c1.3-1.3,3-1.2,4.6-1.2c7.8-0.6,15.6,0.7,23.4,1.1l0,0c6.6,1.1,13.1,2.6,19.1,5.7
				c2,1.9,4.7,2.5,7.2,3.4c0.4,0.1,0.8,0.3,1.2,0.6c2,1.4,4.4,1.9,6.6,2.8c0.6,0.3,1.2,0.7,1.7,1.1C362,45,370.1,50.3,378,55.7
				c0.6,0.4,1.1,0.8,1.6,1.3c2.7,3.1,6.8,4,9.9,6.5c0.4,0.3,0.7,0.6,1,0.9C391,65.3,391.6,66.3,390.9,67.5z"/>
			<path class="st74" d="M220.9,87.4c0.7-1.9,1.6-3.6,3.1-5.1c3.1-1.4,2.8-6,6.5-6.9c3.3-0.3,6.6-0.8,8.8,2.5
				c0.2,0.4,0.4,0.9,0.5,1.4c1.1,2.7,1.9,5.4,1.4,8.3c-0.3,1.7-0.7,3.3-1.9,4.6c-2.3,0.6-2.2-1.4-2.6-2.5c-1-2.5-2.6-4-5.2-4.3
				c-1.5-0.3-2.8,0.2-3.3,1.4c-1.7,3.5-4.3,6.7-4.5,10.9c-0.5,1.4-0.5,3.2-2.8,2.6c-0.3-0.4-0.6-0.9-0.7-1.4
				C219.1,95.1,220.1,91.2,220.9,87.4z"/>
			<path class="st75" d="M220.9,99.5c0.1,0.3,0.1,0.6,0.3,1c2.4,2.7-0.3,5.9,1,8.7c-0.9,5.7,0.4,11.6-2,17.2c-2.6-3,0.4-6.9-1.8-9.9
				c-3-1-3.9,1.5-5.3,3.2c-0.6,0.8-1.4,1.5-2.5,0.9c-0.9-0.5-0.4-1.5-0.3-2.2c0.5-3.3,0.6-6.8,1.9-9.9c0.6-1.3,1.2-2.7,1.8-4
				C216.1,102.5,218.1,100.5,220.9,99.5z"/>
			<path class="st76" d="M231.1,70.5c0.9-2,2.2-3.7,3.8-5.2c3-0.1,3.8,2.9,5.9,4.1c1.3-0.7,2.1-2.3,3.8-2.3c1.7,0.5,2.3,1.7,2.2,3.3
				c-1.4,3.1-2.9,6.2-6.4,7.4c-1.5-0.3-2.2-1.5-2.7-2.7c-1.1-2.4-3-2.8-5.4-2.4C231.3,72.3,231.1,71.4,231.1,70.5z"/>
			<path class="st77" d="M249.1,53.5c-1.1,2.2,4.1,3.5,0.9,6c-0.3,1.6-1.5,2.3-2.9,2.7c-1.4,0.1-2.4,1-3.4,1.8
				c-1.1,0.8-2.3,1.6-3.6,0.7c-1.4-1-2.1-2.4-1.1-4.2c1.1-1.8,2.2-3.7,4.1-4.9C245.3,55.5,246.2,51.6,249.1,53.5z"/>
			<path class="st78" d="M212.1,108.4c-0.4,3.8-0.8,7.6-1.3,11.7c2.1-0.9,2.1-3,3.1-4.3c1.8-2.4,3.4-2.6,4.4,0.6
				c-0.1,0.7-0.2,1.3-0.2,2c-2.3,0.7-3.4,2.6-4.6,4.3c-0.9,1.3-1.6,3.6-3.4,3c-1.9-0.6-0.6-2.9-1-4.4
				C209.8,117,209.4,112.3,212.1,108.4z"/>
			<path class="st79" d="M220.9,99.5c-1.1,3.3-3.7,4.6-7,4.9c1.2-6.1,4.1-11.6,7-17C221.7,91.4,221,95.5,220.9,99.5z"/>
			<path class="st80" d="M239,60.3c0.6,3.5,1.8,5.3,5,1.8c0.8-0.8,1.7-2.3,3.1-0.6c0.6,2.5-1.5,3.4-2.8,4.8
				c-1.4,1.5-3.3,2.7-3.2,5.2c-0.6,0.8-1.7,1-1.7,0c-0.1-3.2-2.7-4.2-4.4-6.1C236.1,63.5,237.2,61.6,239,60.3z"/>
			<path class="st81" d="M318,26.5c-7.8,0-15.6,0.3-23.4-1.1c3.3-1,6.6-2.1,10.1-1C309,26.1,313.8,24.4,318,26.5z"/>
			<path class="st82" d="M249.1,53.5c-2,0-3,1.6-4.3,2.8c-1.2,1.1-1.6,0.4-1.7-0.8c2.2-2.9,4.7-5.5,7.8-7.3
				C252.6,50.7,251.4,52.3,249.1,53.5z"/>
			<path class="st83" d="M231.1,70.5c0.8,0.4,0.9,1.2,1,2c0.7,2.1-1,2.8-2.1,3.9c-1.8,1-2.1,3.1-3.3,4.6c-0.6,0.8-0.9,2.7-2.7,1.4
				C225.8,78.1,228.1,74.1,231.1,70.5z"/>
			<path class="st84" d="M326,198.3c1.5,1.5-0.8,2.7-0.2,4.4c3-0.4,4.3-2,4-5.2c1.5,1.7,3.1,2.5,1.8,5.4c-1.2,2.9,1.7,6.2,0.8,9.8
				c-0.4,1.7-1.4,1.9-2.4,2.6c-2.4-1-1.8-3.8-3.2-5.3c-1.4-1.4-1.4-4.1-4.3-4.3c-1.4-0.1-2.3-2.1-2-3.1c0.9-3.7-1.5-5.3-3.8-7.3
				c-1.1-1-3.2-2-2.1-4c2.6-4.3-2.7-5-3.3-7.7c-1.2-5.3-4.1-2.4-6.7-1.5c-0.2,0.1-0.6-0.2-1.3-0.4c3.4-3,1.7-5-1.3-6.4
				c-4.5-2.1-7-5.7-9-10c0.3-3.5,1.2-6.3,5.6-5.8c2.7,0.3,4.7,1.1,2.9,4.4c-0.2,0.3-0.1,0.4,0.4,0.2c1.3-0.5,2.1,0.1,3.1,0.8
				c2.9,2.1,2.4,6.6,7.3,7.8c3,0.7,4.9,5.9,8.1,8.3c0.5,0.4,1,1.2,0.8,1.7c-2.1,4.2,1.9,0.3,2,1.5c1,1.2,1.1,2.6,0.8,4.1
				c1.2,2.2,2.1,4.6,5,5C329.3,195.8,326.6,196.5,326,198.3z"/>
			<path class="st85" d="M323,184.4c-2.4,0.7-2.6,4.1-5.2,4.8c-1.2-3.3,5.3-6.1,1.3-7.6c-4.8-1.8-4.1-11.8-12.7-7.4
				c1.7-3.9-0.1-6.8-2.7-8.9c-2.4-1.9-3,2.4-5.3,2.3c-0.8-1.1,0.1-1.6,0.7-2.4c0.9-1.1,2.5-2.1,2-3.7c-0.5-1.5-2.1-0.3-3.1-0.7
				c-2.3-0.8-2.9,0.4-3.5,2.2c-0.3,0.9-1.1,1.6-1.6,2.4c-0.3,0-0.6,0-1,0c-1.6-2.1,0.3-4.1,0-6.3c-3-0.2-5.3-1.1-4.3-5
				c0.6-2.1-0.6-2.6-2.5-2.1c-1.1,0.3-2.3,0.4-3.3-0.4c1.1-4.6,5.3-6.1,8.7-8.3c1.1-0.7,2.2,0.2,2.8,1.3c0.2,0.4,0.4,0.9,0.5,1.3
				c1.1,1.6,2.1,3.3,2.2,5.8c2.7-2.5,5-4,5.5,0.9c0.2,1.7,0.8,2.4,2.4,2.4c0.7,0,1.7,0.5,1.6,0.9c-0.3,2.8,2,3.5,3.5,5.2
				c1.4,1.5,1.7,4.2,2.4,6.9c1.4-1.1,2.8-2.9,4.7-1.5c2.7,1.9,0.4,4.2,0.2,6.7c1.2-1.6,1.9-3.6,4.1-3.3c2.2,0.2,2.4,2,2.6,3.7
				c0.1,1.5,0.7,1.8,2.2,1.5c3.8-0.7,4.8,2.1,5.4,5c0.2,1.2-0.4,3-1.5,2.6C326.6,181.6,325.2,184.2,323,184.4z"/>
			<path class="st86" d="M282,151.4c1.1-0.2,2.2-0.4,3.3-0.7c1.2-0.4,2.3-1.2,3.5,0.1c1.2,1.2,0.9,2.3,0.2,3.5
				c-0.8,1.4-1.1,3.6,0.8,3.4c7.5-0.7,1.9,3.8,2.5,5.8c0.2,0.5-0.3,1.3-0.4,1.9c-0.9-0.4-1.9-0.6-2.6-1.2c-5.7-4.1-10-2.3-11.5,4.7
				c-0.5,2.3-1.9,4.3-2.9,6.5l0,0c-2.1-3.3-2.6-6.6-0.3-10.1c1.5-2.2,1.2-5.1,2.4-7.5C278.3,155.3,279.1,152.6,282,151.4z"/>
			<path class="st45" d="M323,184.4c-0.1-0.8-0.8-2.7-0.1-2.4c4.3,2.4,1.7-2.1,2.8-2.7c1.8-0.7,1.1,1.1,1.7,1.6
				c0.6,0.6,1.2,1.3,2,0.7c0.4-0.3,0.5-1.2,0.5-1.8c-0.2-2.9-3.3-4.7-5.5-3c-2.4,1.8-1.9-0.3-2.3-1.3c-0.6-1.7,1.2-4.7-1.7-4.9
				c-3.1-0.2-1.7,3.4-3.1,5.4c-1.4-1.5-3.7-2.2-1.7-5c0.9-1.2,2.5-3.1,0.2-4.2c-2-0.9-2.8,1.1-3.6,2.5c-0.2,0.4-0.4,0.8-0.9,1.6
				c-1.7-2.5-2.6-5.8-2.6-7.6c0.2-6.3-3-1.4-4.5-1.8c-1.2-0.8-0.4-1.8,0-2.6c1.1-2.4,1.1-2.4-1.7-2.3c-2,0.1-1.9-1.5-2.3-2.6
				c-0.5-1.3,1.8-3.3-0.3-3.9c-2.4-0.7-1.3,2.6-3.2,3.5c-2.3-1.8-2.5-4.8-3.6-7.3c2.8-2.9,8.5-1.9,10.6,2.3c0.9,1.7,0.9,2.5,2.9,1
				c2.1-1.6,3.1,0.9,4.5,1.9c3.1,5.6,7.9,9.2,13.6,11.8c2.3,1,3.7,3.1,5.7,4.6c0.7,1,0.8,2.2,0.7,3.4c0.8,4.1,3.4,7.2,6.3,10.1
				c3.3,3.3,1.5,8.4-3.3,9.8c-2.6-0.1-3.7-2.4-5.3-3.9c-2.1-2-3.5-1.5-4.6,0.9C323.3,187.1,322.9,185.8,323,184.4z"/>
			<path class="st45" d="M326,198.3c-0.1-2.3,2.3-3.1,3-5c2.3-0.6,2,0.8,1.1,1.8C328.9,196.4,327.4,197.3,326,198.3z"/>
			<path class="st87" d="M435.9,136.4c-1.3,0.6-2,1.9-3.8-0.2c-5.2-5.9-9.2-12.3-12.5-19.4c-1.5-3.1-3.1-6.2-5.3-8.9
				c-1.1-1.3-3.3-2.9-1.9-5.1c1.3-2.1,3.6-1.1,5.5-1.3c2.7,2.4,3.2,6.1,5,9c1.7,2.9,3.6,4.9,7.1,5c3.3,2.9,7.4,5.5,6,11
				c-0.1,1.1-0.5,2.2-1.6,2c-1.7-0.2-2.2-1.5-1.8-3.1c-0.8,2.7-0.2,5,2.3,6.7c1.2,0.8,2,1.7,1.9,3.2
				C436.5,135.7,436.3,136.1,435.9,136.4z"/>
			<path class="st88" d="M429.9,115.4c-3.7,2.4-5.3,0.6-7-2.7c-1.9-3.7-4.2-7.1-5-11.3c0.2-1.7-1.4-2.6-2-4
				c-5.3-2.4-7.2-6.4-5.2-11.2c3.2-1.3,6,1.4,9.1,0.8c0.8,0.2,1.3,0.5,1.1,1.4c-3.5,4.3,0.3,7.9,1.4,11.6
				C424.1,105.5,428.5,109.7,429.9,115.4z"/>
			<path class="st89" d="M421,88.4c-0.3-0.3-0.6-0.7-0.9-1c-0.4-0.3-0.7-0.6-0.9-1.1c-0.3-2.8-3.3-4.8-2.4-8
				c0.7-0.8,1.5-1.2,2.6-1.2c2.5,1.8,3.1,4.8,4.4,7.3c1.7,3.3,3.4,6.7,5.8,9.6c1,4,3.1,7.3,5.8,10.3c0.1,0.1,0.3,0,0.5-0.1
				c0.1-0.1,0.2-0.3,0.3-0.4c0.2-0.6,0.5-1.1,1-1.4c0.3,0,0.7,0,1,0c-0.1,5-0.1,9.9-0.2,14.9c-3.9-1.2-4.4-5-5.9-7.9
				C428.1,102.5,424.6,95.4,421,88.4z"/>
			<path class="st55" d="M435.9,136.4c0-0.4,0-0.7,0-1.1c1-1.4-0.3-2.7-0.2-4.1c0.2-1.6-0.4-3.7,2.2-3.9c3.2,7,7.3,13.8,5,22
				c-0.7,0.7-1.3,1.3-2,2c-0.6-3.9,1.4-9.1-5-10C435.9,139.7,435.9,138.1,435.9,136.4z"/>
			<path class="st88" d="M437.9,127.4c-2.4,2.2,0.4,5.8-2,8c-0.1-0.5-0.1-1.3-0.3-1.4c-6.3-2.7-5-7.2-2.8-12.4
				c1.5,1.4,1.1,2.7,0.5,4c-0.3,0.8-0.2,1.9,0.7,2c0.6,0.1,1.3-0.8,1.9-1.2C436.7,126.4,437.5,126.6,437.9,127.4z"/>
			<path class="st90" d="M392,55.4c0.1-1.8-0.4-3.3-2.3-4c-9.4-3.5-16.8-10.3-25.5-15c-10.2-5.5-20.6-10.3-32.2-12
				c-2.2-0.3-4.7-0.5-6.1-2.8c2.3,0,4.7,0,7,0c3.3,2.2,7.1,3.2,11,3.8c3,0.7,6,1.3,9,2c9.3,3.8,17.8,9.2,26.3,14.5
				c4.3,2.7,8.4,5.4,13.7,3.4c0.3,0.4,0.6,0.7,0.9,1.1c-2.1,0.1-2.1,1.1-1,2.4c2,2.5,4.1,5,6.1,7.5c-0.2,2.6-2.3,2.3-4,2.7
				c-1.4-0.3-2.5-0.9-2.1-2.6C392.6,56.1,392.3,55.7,392,55.4z"/>
			<path class="st91" d="M259.5,183.3c-5.2-3.9-2.9-9.1-2.3-13.9c1.1-1,2.2-0.4,3.3,0c2.4,1.5,4.8,2.8,6.8,4.8
				c0.3,0.6,0.4,1.3,0.1,2c-0.4,3.4-3.2,5.8-4.1,9.1C261.3,186.2,260.3,184.8,259.5,183.3z"/>
			<path class="st92" d="M246.1,171c-2.1,0-4.6,1.3-6-1.6c0.5-1.8,1.2-3.6,3.1-4.5c1.5-0.9,3.2-1.1,4.9-1.5c1.2,0.1,2.7-0.1,2.8,1.8
				c0.6,2,1.2,4.1,1.9,6.1C250.5,173,248.4,170.8,246.1,171z"/>
			<path class="st93" d="M254.9,126.2c2.8,2.6,1.7-1.8,3.1-1.7c2,1.2,2.2,3.2,2.4,5.3c-0.4,3.9-0.3,8-2.3,11.6
				c-0.1,1.5-0.7,2.8-2.7,3.5c-0.1-1.6-0.3-3.1-0.4-4.5c-1.6-1.7-1.2-3.8-0.9-5.8c1.1-2.5,0.6-4.8-1.2-6.8c-0.1-0.5-0.1-0.9,0.1-1.4
				C253.5,125.8,254.2,125.8,254.9,126.2z"/>
			<path class="st94" d="M242.1,149.1c1.3-0.5,2.6-1.1,3.9-1.6c0.7-0.7,1.4-0.7,2,0.1c1.2,1.1,2.8,0.8,4.2,0.8
				c2.1,0,2.9,0.9,2.8,2.9l0,0c-0.4,0.3-0.7,0.6-1.1,1c-2.2,2.2-5.2,0.9-7.7,1.7c-0.7,0.3-1.4,0.4-2.2,0.2c-1-0.1-2.1,0.5-2.9-0.5
				C241.7,152.2,240.8,150.4,242.1,149.1z"/>
			<path class="st95" d="M258.1,141.3c0.3-4,0.7-8.1,1-12.1c1.6-2,3.3-2.5,5.2-0.4c-0.6,3.4-2.5,6.6-1,10.2
				c-0.2,2.4,2.9,3.6,2.1,6.2c-1.1,0.8-1.7,0.1-2.1-0.8C261.5,143.3,259.8,142.3,258.1,141.3z"/>
			<path class="st96" d="M245,153.3c2.8-1.4,5.9-0.9,8.9-1c0,2.8-0.1,5.6,0,8.3c0.1,2.2-0.8,3.8-2.9,4.6c-1-0.2-1.9-0.5-2.9-0.7
				c-0.5-0.6-0.3-1.2-0.1-1.8C250.1,156.5,250.1,156.5,245,153.3z"/>
			<path class="st97" d="M257.9,187.6c0.8,0.9,1.5,1.7,2.3,2.6c-2.7,3-2.1,6.6-2.2,10.2c-1.8,0.7-2.3-0.7-3-1.9
				c-1.8-3.7-1.1-7.4,0.2-11C256.2,186.6,257.1,186.5,257.9,187.6z"/>
			<path class="st98" d="M248,147.6c-0.7,0-1.4-0.1-2-0.1c0.3-0.4,0.7-0.8,1-1.2c3.9-4.2,4.4-7.6,1.8-12.1c0.4-1.9,2-2.1,3.4-2.6
				c1.3,0,2.8-0.3,2.9,1.7c-0.1,2.3-0.1,4.6-0.2,6.9C254.9,144.8,252,146.8,248,147.6z"/>
			<path class="st99" d="M259.3,163.2c-3-2-1.9-4.9-1.7-7.6c0.2-2.1,0.5-4.2,0.8-6.4c2.8-1.4,5.1-0.8,6.9,1.8
				c-3.9,3.3-2.9,8.2-4.1,12.5C260.5,163.9,259.8,163.9,259.3,163.2z"/>
			<path class="st100" d="M246.1,171c2.3-1.8,4.5,0.1,6.7,0.4c0.1,2.3,0.2,4.6,0.2,7c0.6,0.7,0.6,1.4-0.1,2c-0.7,0.7-1.4,1.4-2,2.1
				c-0.6,0.5-1.3,0.9-2,1c-2.1,0.2-4.2,0.3-5.8-1.5c-0.3-0.5-0.4-0.9-0.1-1.5c0.4-0.1,0.8-0.2,1.1-0.3c0.7,0,1.3,0,2,0.1
				c3.6-2.5,3.8-4.4,1-8.9C246.8,171.3,246.4,171.1,246.1,171z"/>
			<path class="st101" d="M264.7,151.5c-1.7-1.9-4.1-1.9-6.3-2.2c-0.1-0.3-0.1-0.5,0-0.8c3.6-2.6,7.5-1.3,11.3-1
				c0.9,0.3,1.6,0.8,2,1.7c0.8,2,0.8,3.9-0.1,5.9C268.1,156.2,266.4,153.9,264.7,151.5z"/>
			<path class="st102" d="M246.1,191.4c1.7-1.4,2.1-3.1,1-5.1c0.5-0.5,1.2-0.6,1.9-0.5c0.9,0.2,1.5,0.9,2,1.7
				c0.8,3.4-0.9,6.5-1.1,9.8c-1.6-0.6-3.2-1.3-4.9-1.9C245.4,194.1,244.9,192.5,246.1,191.4z"/>
			<path class="st103" d="M270.4,148.3c-4,0-8,0.1-12,0.1c-1.9-5.6,3.2-2.8,4.9-4.1c0.6,0.3,1.3,0.6,1.9,0.9c2.2-1,3.5,0.6,4.9,1.7
				C270.4,147.4,270.5,147.8,270.4,148.3z"/>
			<path class="st104" d="M259.3,163.2c0.6,0.1,1.1,0.3,1.7,0.4c1.8,0,3.1,1,4.3,2.3c0.2,0.4,0.4,0.9,0.4,1.4
				c-0.1,0.5-0.2,0.9-0.5,1.3c-1.6,0.9-3.5,0.8-5.1,1.7c-1-0.3-1.9-0.6-2.9-0.9C256.4,166.8,256,164.4,259.3,163.2z"/>
			<path class="st105" d="M257.9,187.6c-0.9,0-1.8-0.1-2.6-0.1c-2-4.7,1.3-4.2,4.2-4.2c1.2,0.7,2.3,1.5,3.5,2.2
				c1.7,0.1,2.6,1.2,3.3,2.5c0.1,0.5,0,0.9-0.4,1.3C263.1,189.3,261.3,185.1,257.9,187.6z"/>
			<path class="st106" d="M256,218.2c-1.4,1-1.7,2.6-2,4.2c-0.3,0-0.6-0.1-0.9-0.1c-1.5-1.9-0.9-4.1-0.9-6.2
				C254.5,215,255.1,216.9,256,218.2z"/>
			<path class="st107" d="M246.9,208.4c2.1-2.1,0.9-4.7,1.2-7c0.7,0.3,1.3,0.6,2,1c-0.1,2.4-0.2,4.7-0.3,7.1
				C248.7,209.4,247.5,209.6,246.9,208.4z"/>
			<path class="st108" d="M255.1,198.5c1,0.6,2,1.2,3,1.9c0.5,0.7,0.9,1.3,1.4,2c-1.8-0.1-3.6-0.1-5.5-0.2
				C252.6,200.4,253.8,199.4,255.1,198.5z"/>
			<path class="st109" d="M251,187.5c-0.7-0.3-1.3-0.6-2-1c-1-1.4-1.1-2.8,0-4.3c0.7,0.1,1.3,0.1,2,0.2
				C251.4,184.1,252.4,185.8,251,187.5z"/>
			<path class="st110" d="M252.9,180.4c0-0.7,0.1-1.3,0.1-2c1.9-1.6,0.3-4.1,1.9-7.1c0,3.6,0,5.9,0,8.2
				C255,181.2,253.9,180.6,252.9,180.4z"/>
			<path class="st111" d="M255,151.3c2.1,3.2,0.6,6.6,0,10C255,158,255,154.7,255,151.3C255,151.4,255,151.3,255,151.3z"/>
			<path class="st112" d="M221.1,139.4c-1.5-1.1-0.8-2.7-1.1-4.1c0-0.6,0.1-1.3,0.1-1.9c0.7-1.3,1.6-2.2,2.9-2.8
				c1.7-2.1,4.7,0.7,6.3-1.7c1.4-8.7,1-8.4,9.6-4.4c0.3,0.4,0.6,0.8,0.8,1.3c-0.2,2.7,0,5.4,0.6,8.1c0.1,1.6,0.1,3.2-1.2,4.5
				c-0.7,0.7-1.3,1.3-2,2c-3.9-1.5-1.5-5.6-3.6-8.1c-1.6,1-2.3,4.9-5.7,2.4c-1.1-0.8-2.3,0.8-2.8,2.1c-0.9,2,1.3,1.4,1.9,2.1
				c0.4,0.5,0.8,1,1.3,1.5C225.8,139.9,223.5,139,221.1,139.4z"/>
			<path class="st97" d="M223.1,131.5c-1,0.6-2,1.3-2.9,1.9c0-2.4,0-4.7,0-7.1c0.3-5.9,0.5-11.9,0.8-17.8c-0.5-1.5,0.8-2,1.5-2.8
				c2.3-3.1,6.8-4,8.3-8.1c3.4-2.8,5.5-2.3,7.4,1.7c2.4,5.1,2.7,10.8,3.8,16.2c-0.2,1.5-0.6,2.9-1.2,4.3c-0.3,0.4-0.6,0.7-1.1,0.8
				c-2.8-0.7-2.5-3.5-3.5-5.4c-1.1-2.2-1.5-5.2-5-5s-7.4-0.1-5.7,5.6c0.4,1.3-1.6,2.9-0.1,4.5c-1.4,2.4-4.5,4.2-2.5,7.7
				C223.1,129.2,223.3,130.3,223.1,131.5z"/>
			<path class="st113" d="M239.1,138.4c0-1.7,0-3.3,0-5c0.6-2.7,0.2-5.3,0-8l0,0c-1.1-1.8-0.5-3.4,0.7-4.9l0.4-0.1
				c1-1,2.4-1.2,3.6-1.9c0.8-0.5,1.7-0.9,2.6-1.2c4.4-0.8,4.2,2.6,4.7,5.2c0.4,2.2-0.3,4.2-1.6,6c-0.2,0.4-0.5,0.8-0.9,1.1
				c-1.6,1.6-3.9,2.3-5.6,3.8c-0.4,0.9-2,1.6-0.4,2.8c0.5,0.3,1,0.6,1.4,1.1c-1.5,1.2-1.9,3.1-2.7,4.7
				C239.4,141.3,240.6,139,239.1,138.4z"/>
			<path class="st114" d="M245,153.3c7,0.5,7.9,3.7,3,11.2c-1.6,0.3-3.3,0.7-4.9,1c-1.3,0.6-2.6,1.1-4,0c0.3-0.4,0.6-0.9,0.8-1.3
				c1.1,0,2.1,0,3.2,0c2.5-3,1.1-6.3,1-9.5c-0.1-0.2-0.1-0.3-0.1-0.5C244.3,153.9,244.7,153.6,245,153.3z"/>
			<path class="st115" d="M249.2,134.4c0.9,0.2,2.2-0.1,2.6,1.1c1,3-1.5,6-0.2,9.1c-1.5,0.6-3,1.2-4.5,1.7c-1.3-3.2,0.1-6.9-1.9-9.9
				C245.5,133.8,247.2,133.8,249.2,134.4z"/>
			<path class="st116" d="M249.2,134.4c-1.3,0.9-3.3,0.3-4.2,2c-0.4,0.3-0.7,0.6-1.1,0.9c-0.6,0-1.2,0-1.8-0.1
				c-1.1-1.6,0.5-3.2,0.2-4.8c1.8-1.1,3.6-2.1,5.4-3.2c2.2,0.2,4.6,0,4.4,3.4C251.2,133.2,250.2,133.8,249.2,134.4z"/>
			<path class="st117" d="M244.1,154.7c1.6,3.4,4.8,6.9-1,9.5C241.2,160.8,240.2,157.5,244.1,154.7z"/>
			<path class="st118" d="M242.1,149.1c-0.3,1.6,2.2,3.7-1,4.7C238.7,151.6,239.5,150.1,242.1,149.1z"/>
			<path class="st119" d="M282,151.4c-4.5,4.7-3.8,11.6-7.5,16.8c-1.1,1.5,0.3,4.7,0.5,7.2c-1.2,1.9-2.2,4-5,4
				c-1.6,0.3-2.2-0.6-2.2-2c0.5-0.6,1.1-0.8,1.8-1c3-0.7,1.2-2.3,0.6-3.6c-0.5-0.8-0.8-1.7-0.6-2.7c1.5-3.4,2.6-6.7,0.7-10.3
				c-0.5-1-0.3-2.3,0.4-3.3c1.1-0.9,2.6-1.2,3.5-2.3c2.4-5.1,1.5-11.6,6.3-15.7c1.9-1.6,3.4-3.6,5.7-4.6c3.9,0.7,8.7,5.9,8.6,9.4
				c0,1,0.1,2.5-1.8,2.3c-0.8-2-2.3-1.7-3.5-0.7C287,146.9,284.5,149.2,282,151.4z"/>
			<path class="st120" d="M268,177.5c0.7,0.6,1.4,1.2,2,1.9c0.1,1.8-0.2,3.8,0.4,5.3c1.2,3-0.5,3.8-2.6,4.7
				c-0.9,0.4-1.2-0.5-1.9-0.8c-1-1-2-2.1-3-3.1c-1.2-3.8,4.1-5.7,2.7-9.5c0.5,0.1,1,0.2,1.4,0.3C267.6,176.5,268,176.9,268,177.5z"
				/>
			<path class="st121" d="M266,188.7c0.6,0.3,1.2,0.5,1.9,0.8c0.8,1.3,2.3,2.1,2.5,3.7c-0.4,0.5-0.9,0.6-1.4,0.2
				c-2.5-0.2-1.7-2.9-3-4C265.9,189.1,265.9,188.9,266,188.7z"/>
			<path class="st122" d="M268.9,193.4c0.5-0.1,0.9-0.1,1.4-0.2c1.1,2.4,2.3,5-2.3,4.1C268.3,195.9,268.6,194.6,268.9,193.4z"/>
			<path class="st123" d="M247.1,171.4c5.8,0.4,2.6,5.1,3.2,7.6c0.5,2.1-2.7,1.1-4.3,1.3C247.8,177.5,246.8,174.4,247.1,171.4z"/>
			<path class="st124" d="M239.2,165.6c1.3,0,2.7,0,4,0c-1.2,1.1-0.5,3.7-3,3.9C238.5,168.5,239.5,166.8,239.2,165.6z"/>
			<path class="st125" d="M246.1,191.4c-0.4,1.3,2.1,3.5-1.1,4c-2.1,0.3-3.6-0.6-5-2.1c-0.9-1.5-1.4-3,0.1-4.5
				c0.9-0.9,1.2-2.4,2.9-2.3c2.1,0.1,1.3,2,1.8,3C245.3,190.1,245.3,191,246.1,191.4z"/>
			<path class="st126" d="M248.9,182.3c0,1.4,0,2.9,0,4.3c-0.6-0.1-1.3-0.2-1.9-0.3c-1.2-0.6-2.4-1.1-3.5-1.7
				c-1.5,0.3-2.6-0.3-2.6-1.8c-0.1-1.2,0.8-2,2.2-1.6C244.9,182.7,246.9,182.4,248.9,182.3z"/>
			<path class="st127" d="M243.1,181.2c-2.7,1.5-1.6,2.5,0.5,3.4c-2,1.3-3.1-0.4-4.5-1.2c-0.8-3.9,1.3-3.7,3.9-2.9
				C243,180.8,243,181,243.1,181.2z"/>
			<path class="st128" d="M268,40.5c0-0.3,0-0.7,0-1c5.9-2.9,12.4-3.5,18.7-3.5c22.5-0.1,42.2,9,60.9,20.4c14.5,8.8,27.4,19.6,38,33
				c3,3.8,6.6,7,9.3,11c1.6,2.6,3,5.4,3.9,8.4c1.1,3.4-0.8,3.8-3.2,3.3c-2.3-0.5-4.2-1.8-5.2-4.1c-0.8-4.2-3-7.4-6.1-10.5
				c-4.5-4.5-8-10-12.8-14.5c-18-17-38.5-29.9-61.7-38.3c-11.8-4.2-24.1-5.6-36.7-3.9C271.4,41.2,269.6,42,268,40.5z"/>
			<path class="st129" d="M398.9,120.4c2,2.2,0.6,4.9,1,7.4c0.2,1-0.3,3.1,2,1.6c1.8-0.9,3.9-0.6,5.8-1.2c1.5-0.4,3-0.7,3.4-2.5
				c0.3-1.7-0.7-2.8-1.8-3.9c-1.5-1.6-4-1.7-5.4-3.4c3.4-2.4,6.2-0.6,8.1,1.9c1.8,2.4,4.7,5.2,1.1,8.6c-1.9,1.7-0.5,3.2,0.9,4.6
				c-0.3,2.8-3,1.9-4.4,2.9c-4.3,1.1-6.9,3.4-6.7,8.3c0.1,2.9,1.3,3.4,3.8,2.7c2.4-0.7,4.3-2.5,6.8-2.9c3.5,0.3,3.8,2.3,2.6,5
				c-1.2,1.9-3.2,2.5-4.8,3.8c-0.8,0.6-1.7,1.1-2.6,1.4c-4.4,1.1-5.7,4-5.4,8.2c0.1,1.6,0,3.3,0,5c-0.2,2,0.5,3.8,1.1,5.6
				c0.1,1-0.3,2-0.6,2.9c-1,5.1-0.7,10.2,0.7,15.2c-0.2,6.6-0.3,13.1-0.2,19.7c0,1.8,0.6,4.8-3.1,3.8c-1.4-1.2-1.4-2.9-1.9-4.4
				c-0.3-1-0.4-2.1-0.4-3.2c0-0.8,0.1-1.5,0.3-2.3c0.8-2.4,0.5-4.9,0.4-7.4c0.1-8.2-1.3-16.2-1.7-24.4c-0.8-4.3,1.3-9.5-3.8-12.5
				c-1-2.9,2.1-4.9,1.8-7.6c1-5,1.9-10.1-2.3-14.3c0.3-2.4,2-4.2,2.8-6.3c1.4-2.2,1.1-4.7,1.2-7.1
				C397.7,123.7,397.5,121.8,398.9,120.4z"/>
			<path class="st130" d="M285,30.5c3.8-2.2,8.4-2,12-1.5c16.2,2.3,32.3,5.9,46.7,13.9c13.7,7.6,27.3,15.6,38.8,26.5
				c1.9,1.8,4.1,3.3,6.7,4.5c1.2-1.7-2.1-4.9,1.8-5.5c2.8-0.5,3.5,1.9,4.8,3.5c2,2.5,4.3,4,7.6,3.2c0.2,0.1,0.4,0.2,0.6,0.3
				c0.4,3.7-2.6,6.6-2.3,10.5c0.2,1.9-2.2,1.7-3.5,0.9c-1.8-1.1-3.6-2.4-5.1-3.9c-15.8-16.1-33.4-29.7-53.6-39.6
				C322.4,34.9,304.3,29.9,285,30.5z"/>
			<path class="st131" d="M408.9,135.4c1.2-1.9,3.8-0.1,5-2c2.8-0.3,4.6,0.8,6.2,3.2c3.6,5.6,6.1,11.4,5.8,18.2
				c0,1.3-0.3,2.8,0.8,3.8c3.7,3.4,1.8,6.1-0.8,8.8c-3.3-1-3.5-4.2-4.4-6.7c-1.5-4.2-2.4-8.7-6.6-11.3c1.2-2.3,1.5-4.2-2-4.1
				C413.3,141.3,409.9,138.9,408.9,135.4z"/>
			<path class="st132" d="M415,149.4c3.8-0.3,4.9,2.5,6,5.4c1.6,4.2,2.2,8.9,5,12.6c0,2,0,4,0,6c2.9,2.4,2.9,4.7,0,7.1
				c0,1.6,0,3.3,0,4.9c1.3,1.1,3.4,1,4,3c0,0.7,0,1.3,0,2c-1,0.7-2,1.4-3,2c-3-7.2-2.4-15.2-5.2-22.4c-0.9-2.5-0.3-7.5-5.8-5.6
				c-1.2-0.9-2.2-2-3.3-3c-0.5-3.1-1.9-6-1.7-9.1C411.5,150.3,413.9,150.9,415,149.4z"/>
			<path class="st130" d="M392.9,56.5c0.7,0.7,1.3,1.3,2,2c3.1,0.8,4.4,4.1,7.2,5.3c1.1-1.4-0.1-3,0.8-4.3c0.9-1.5,1.8-2.9,2.6-4.4
				c2.1,1,0.7,3.4,2.4,4.3c0.8,0.1,1.3,0.5,1.6,1.2c0.2,0.7,0.1,1.4-0.2,2c-1.6,2.1-0.9,4.3,0,6.4c0,1.3,0,2.5-0.2,3.8
				c-1.6,5.8-1.3,6.5,5.1,9.7c2.3,0.7,4.7,1.3,5.7,3.9c0,0.3,0,0.6,0.1,0.9c-3.3,2.7-6-1-9.1-0.9c-1.7,0.1-3.3,0.8-5,0
				c-1.8-3.5,2-7.9-2-11l0,0c-1.5-2-2.2-4.7-4.4-6.3c-1.2-1.5-3.1-2.6-3.5-4.7c-0.1-2.5-2.3-3.5-3.6-5.1
				C391.4,58.2,390,56.9,392.9,56.5z"/>
			<path class="st133" d="M390.9,107.4c1.8,2.1,4.4,5.1,6.7,3.5c2.2-1.5-0.5-4.5-1.4-6.8c-0.5-1.2-0.9-2.4-1.3-3.7
				c4.7,4.8,5.6,9.3,3.1,14.7c-0.6,1.3-1.2,2.7-1.1,4.2c-2.4,0.6-3.7-1.4-5.5-2.4c-2.3-2.3-5.3-3.8-7.3-6.4c-0.8-1-1.2-2.2-1.3-3.5
				c0-1.4,0.4-2.6,1.7-3.3C387.7,103.4,389.8,104.5,390.9,107.4z"/>
			<path class="st134" d="M404,118.4c3.6,0.1,6.3,1.7,8.2,4.8c1.4,2.3,1,4.6-1.2,5.4c-2.8,1-5.8,2.6-8.9,0.8
				C401.9,125.6,402.2,121.9,404,118.4z"/>
			<path class="st135" d="M392,116.4c1.7,1,3.3,2,5,3c0.7,0.3,1.3,0.7,2,1c0,3,0,5.9,0,8.9c0,1.7-0.2,3.3-2,4.1
				c-1.9,0.6-3.5,0.3-4.3-1.8c1.6-2.5,0.9-4.9,0.1-7.4C392.1,121.7,390,119.2,392,116.4z"/>
			<path class="st128" d="M406,86.4c1.7-0.7,3.3-1.9,5,0c-1,4.9,1.8,8,5,11C407.8,96.9,406,94.8,406,86.4z"/>
			<path class="st136" d="M426,180.4c1.3-2.4,1.3-4.7,0-7.1c2.1,0.2,5.3-2.1,5.5,2.2C431.5,179,429.1,180.3,426,180.4z"/>
			<path class="st69" d="M429.9,188.4c-1.2-1.1-3.9-0.4-4-3c0.4-0.3,0.8-0.5,1.2-0.8c1.6-0.8,2.6-4.6,4.9-2.2
				C434.2,184.7,431.9,186.8,429.9,188.4z"/>
			<path class="st137" d="M331,171.4c-1.2-0.7-1-1.9-1-3c-3-3-3.6-6.7-3.4-10.7c-0.9-1.7-2-3.4-1.1-5.4c4.4-2.8,7.1-1.7,8.3,3
				c1.1,4.4,3,8.1,7.8,9.9c3,1.1,4.2,4.9,6.4,7.3c2.9,3.2,6.4,6.2,6.2,11.7c-0.1,3.3,3.3,6.4,3.8,10.3c-0.2,0.3,0.9-0.4,0.3-0.3
				c-0.3,0-0.2-0.1-0.1-0.5c0.5-1.7,1.5-2.1,3-1.2c0.4,0.3,0.8,0.7,0.9,1.1c1.3,5.2,3.2,10.2,4.3,15.4c-0.1,4.1,1.6,7.9,2.5,11.8
				c0.1,1.3,0,2.6-1.1,3.5c-1.8,1.4-1.7,3.1-1.2,5.2c0.5,2.1-0.4,4.1-1.8,5.8c-1.4-8.1-2.1-16.4-4.5-24.1c-1.2-3.6-5.1-6.3-3.3-11
				c0.2-0.6-0.9-2.3-1.5-2.4c-4.1-0.5-3.8-4.6-5.8-6.8c-0.7-0.8-0.8-2.5-2.3-2.1c-1.3,0.3-1.5,1.6-1.5,2.8c0,0.8,0.1,1.7-1.2,2.2
				c-2-2.9,0.3-5.6,0.5-8.3c0.1-2,0.2-3.2-1.5-4.6c-2.7-2.1-2.2-7.1-6.9-7.6c-0.8-0.1-0.9-1.7-0.5-2.6c0.9-2.1-0.2-3.5-1.8-3.9
				c-2.7-0.6-2,1.7-2.2,3.2C332.3,170.6,331.5,171,331,171.4z"/>
			<path class="st138" d="M377,176.4c1,6.3,1.8,12.6,1,19c-1.8,0.4-2.6-1-3.5-2.1c-0.3-0.7-0.4-1.4-0.3-2.1c1.4-6.9,1-13.5-2.5-19.8
				c-0.2-0.4-0.4-1.1-0.8-1.2c-5.7-1-4.9-6.9-7.6-9.9c-4.7-5.1-6.1-12.7-11.2-16.7c-6.4-5.1-9.6-13-17.1-17.2
				c-3.2-1.8-6.2-5.1-9.6-7.4c-2-1.3-2.6-3.8-2.7-6.2c0-1.8-2-3.4-0.7-5.4c1.3-1.1,2.8-1.1,4.2-0.4c6.9,3.7,12.5,8.8,17.5,15
				c3.6,4.4,7.9,8.2,11.7,12.5c1.3,1.5,2.8,2.8,4.2,4.2c3.1,4.5,5.8,9.2,10,12.9c2.6,2.2,2.2,5.8,3.4,8.7c0.4,2.5,2,4.3,3.3,6.4
				C377.3,169.8,379.4,172.9,377,176.4z"/>
			<path class="st139" d="M377,176.4c0.2-3.5-0.7-6.8-2-10c-0.5-2.2-1.1-4.4-3-6c-0.9-9.1-10.5-12.9-13-21c-1.1-6-7.2-8.1-10.1-12.8
				c-2.1-3.3-5.1-6.4-8.5-8.8c-1.9-1.4-3.4-3.6-2.6-6.4c3.1-1.1,5,0.7,6.6,2.9c4.4,5.8,9.5,10.9,15.1,15.6
				c5.2,5.5,10.3,11,13.8,17.8c3.3,6.6,4.1,14.1,6.9,20.9c2,4.8,0.7,10.1,2.7,14.7c0.3,2.7-0.9,5-1.7,8.6c-2.1-4-2.4-7.1-2.3-10.4
				C379,179.6,379.3,177.4,377,176.4z"/>
			<path class="st140" d="M383,183.4c-2.1-0.2-3-1.9-2.8-3.5c1.2-10.9-5.6-19.9-6.8-30.2c-0.1-0.5-0.9-0.8-1.4-1.3
				c-0.5-3.5-2-6.8-1.3-10.4c1.6-2.1,2.7-0.5,3.8,0.6c0.9,1.2,1.6,2.5,2.2,3.8c1.2,3,2.2,6,1.7,9.5c-0.3,1.8,0,5,3.8,3.9
				c0.7,0.2,1.4,0.6,2,1c4.7,3,6.5,7.5,6.5,12.9c0,1.6,0,2.9-1.7,3.6c-1.1,0.4-2.3,0.4-3.4,0.9c-1.2,0.7-2.5,1.2-1.2,2.9
				c0.6,0.6,1.2,1.1,1.7,1.7c0.2,0.4,0.3,0.7,0.3,1.2c-0.1,0.2-0.3,0.3-0.4,0.5C384,180.5,383,181.5,383,183.4z"/>
			<path class="st141" d="M375,193.4c1.6-0.2,2,1.4,3,2c-0.2,6,5.1,10.7,3.6,17.2c-0.5,2,2.2,4.7,2.7,7.6c0.4,2.2,0.2,4.1-0.3,6.2
				c-1.8,2.6-1.3,5.7-0.2,7.8c1.6,3.1,0.4,4.5-1.7,6.2c0.5-6.6-1.3-13.3,0.6-19.9c0.7-2.4-2.2-4.4-2.8-7.1
				c-1.2-5.8-1.3-12.1-5.8-16.9C373.2,195,372.7,193.7,375,193.4z"/>
			<path class="st140" d="M386,192.4c3.6-4,0.6-8-0.1-11.9l0.2-0.2c3.3-2,6.3-1.7,8.7,1.3c1.8,2.3,1.7,8.2-0.4,10.3
				C391.9,194.5,388.9,194.3,386,192.4z"/>
			<path class="st142" d="M386,192.4c0.5,0,1-0.1,1.5-0.1c6.5,0,7.2-0.5,7.4-6.5c0.2-5.1-3.3-5.7-7.3-5.5c-0.5,0-1,0-1.5,0
				c-0.1-0.3-0.1-0.5-0.2-0.8c2.7-2.3,5.9-1.5,9-1.3c3.5,0.6,5.1,2.6,4.5,6.2c-0.5,2.8,1.2,5.9-1.2,8.5c-4.4,2.2-8.8,3.1-13.3,0.5
				C385.3,193,385.6,192.7,386,192.4z"/>
			<path class="st143" d="M399.8,207.2c0,1.1,0.1,2.2,0.1,3.2c-1.1,4.6-5.2,3.2-8.2,4.1c-0.7,0.1-1.4,0.4-2,0.6
				c-1.7-0.1-3.8,0.6-4.5-1.7s1.7-2.8,2.8-4.1c2.1-0.9,4.3-1.8,6.6-2.3C396.3,207,398.1,205.9,399.8,207.2z"/>
			<path class="st144" d="M384.9,193.4c4.4,0.1,8.7,0.1,13-1.1c1.7,2,1.1,3.8-0.6,5.5c-2.1,1.2-4.5,1-6.7,1.3
				c-2.2-0.7-4.5,0.5-6.6-0.7C382.4,196.3,382.9,194.7,384.9,193.4z"/>
			<path class="st145" d="M395,208.3c-2.3,0.8-4.6,1.4-7,1.1c3.7-2.7,0.4-6.8,1.9-9.9c2.1-1.5,4.3-1.4,5.5,0.9
				C396.8,203,398.3,205.9,395,208.3z"/>
			<path class="st146" d="M395,208.3c1.7-5.8,0.1-8.7-5.1-8.9c-2-0.4-4.3,0.8-5.9-1.2c2.3,0,4.7,0,7,0c8.5-1.3,10-0.1,9,7
				c0,0.6-0.1,1.2-0.1,1.8C398.2,207.6,396.6,207.9,395,208.3z"/>
			<path class="st147" d="M390.9,227.3c-1.2,0.4-2.9,1.4-3.4-0.2c-0.8-2.6,2-2.8,3.4-3.9c2.2-0.9,3.5-3.3,6-3.7
				c0.8-0.1,1.5,0.1,2.1,0.5c0.5,0.6,0.6,1.3,0.5,2.1c-0.2,1-0.7,1.8-1.4,2.6C396.1,226.7,393.4,226.7,390.9,227.3z"/>
			<path class="st148" d="M397,220.4c-1.9,1.1-3.6,2.8-6.1,2.9c2.3-3.1,3.5-6-1.2-8.1c0.4-0.3,0.8-0.6,1.2-0.9
				c0.7-0.5,1.5-0.5,2.3-0.4c1.7,0.2,3.9-1.9,5.2,0.7C399.4,216.8,398.4,218.7,397,220.4z"/>
			<path class="st149" d="M390.9,227.3c2.3-1,4.7-2.1,7-3.1c1.4,1.4,1.3,3.1,1,4.9c-1.3,2.4-2.7,4.5-6,3.2
				C392.6,230.5,394.1,228,390.9,227.3z"/>
			<path class="st150" d="M393,232.3c2.2-0.1,3.5-1.8,5.1-2.9c0.6-0.7,1.2-0.7,2-0.3c0.3,0.3,0.3,0.6,0.2,0.8
				c-0.1,0.3-0.2,0.4-0.3,0.4c0,0.3,0,0.7,0,1c-2.6,1.7-5.3,3.4-7.9,5c-1,0.8-2.1,1.4-3.5,0.5C389.1,234.5,391.2,233.6,393,232.3z"
				/>
			<path class="st151" d="M415.9,179.4c1.9-2.3,3-1,3.9,0.8c2.7,5.3,3.2,11.1,2.9,16.8c-0.2,3.6-1.4,7.1-2,10.7
				c-0.7,3.7-2.3,5.1-5.7,2.7c-1-0.7-1.3-1.8-1.5-3c-0.6-1.8,2.6-3,0.8-5c-1.2-1.3-2-2.7-2.7-4.2c0-1.7,1.3-2.4,2.4-3.4
				c1.4-1.3,1.2-2.4-0.4-3.4c-1.5-1.8-1.9-4.1-2.9-6.1C411.4,182.4,412.8,180.1,415.9,179.4z"/>
			<path class="st152" d="M414.9,202.2c0.7,0.1,2.3-1,1.6,0.9c-0.5,1.5-1.7,2.8-2.5,4.2c-1.4,4-4.7,6.6-7.3,9.6
				c-1.7,1.8-1.6,3.2,0.6,4.4c1,2.6-1.6,3.9-2.3,5.9c-0.8,1.3-0.3,2.8-0.9,4.1c0,0.3,0,0.6-0.1,1c-0.6-0.2-1.5,2.8-1.9-0.1
				c-0.2-1.3,0.2-2.9-2-1.9c0-0.4,0-0.7-0.1-1.1c-0.7-2.2,0.2-4.7-0.9-6.9c0-0.7,0-1.4,0-2c-0.1-2.3,0.7-4.2,2.1-5.9
				c2.4,1,1.9-0.9,1.9-2.1c0-5.4,0-10.8,0-16.2c0-1.6-0.5-3.4,0.9-4.7c0.2,0.1,0.4,0.3,0.5,0.4c1.2,1.7,0.3,3.9,1.2,5.8
				c3.7-0.9,4.8-5.2,8.3-6.3c0.9-0.1,1.9-1.2,2.7-0.1c0.7,1,0.5,2.3-0.4,3.2c-1.3,1.4-2.8,2.7-4.3,4c-0.5,2.3-2.4,3.5-3.9,5
				c-2,2-3.3,4.1-2.9,7.2C408.9,208.3,410.7,203.8,414.9,202.2z"/>
			<path class="st153" d="M402.9,175.4c0.4-0.7,0.8-1.3,1.2-2c1.5-1.8,3.2-3.4,5.9-3.1c5.4,0.5,2,4.6,3,7c0.1,0.3,0.3,0.7,0.1,1
				c-1.5,3.9-7.1,8.7-8.9,7.4C400.6,183,402.8,178.9,402.9,175.4z"/>
			<path class="st152" d="M402.9,175.4c0,2.3,0.1,4.6,0,6.9c-0.1,3.3,1.5,3.3,3.5,1.7c2.4-1.9,4.8-4,6.5-6.6c2.3-1.3,3.2-0.5,3,2
				c-1.7,2-3.4,4-5.1,5.9c-1.4,3-3,5.8-6.9,6.1l-0.1-0.1C400.4,186.2,401.8,180.8,402.9,175.4z"/>
			<path class="st154" d="M409.9,170.4c-2,1-3.5,2.9-5.9,3.1c-2.4-1-2.2-3.1-2.1-5.2c3.6-2.3,6.9-5.2,10.9-6.9c2.3-0.3,3.2,0.8,3,3
				C414.8,167.2,411.5,167.9,409.9,170.4z"/>
			<path class="st155" d="M405.9,216.3c2.7-3,5.4-5.9,8.1-8.9c1.2,0.7,1,1.9,1,3c0,0.3,0,0.7,0,1c-1.4,4-3.2,7.7-7.6,9.3
				c-0.5,0.1-1,0-1.4-0.2C404.6,219,405.1,217.6,405.9,216.3z"/>
			<path class="st156" d="M403.9,227.3c0-2.6,3.2-3.5,3.1-6.1c-0.3-0.2-0.4-0.4-0.3-0.6c0.1-0.2,0.2-0.3,0.3-0.3l0,0
				c3.2-0.5,4.4-3.7,7.1-5c1.2,0.7,0.9,1.8,0.9,2.9c-2.8,3.9-6.3,7.2-10.1,10.2c-0.3,0.2-0.6,0.1-0.9-0.2
				C403.7,228,403.7,227.7,403.9,227.3z"/>
			<path class="st56" d="M403.9,227.3c3.5,0.2,4.2-3.3,6.4-4.9c1.7-1.2,3.1-2.8,4.6-4.2c1.2,2.1-1,2.4-1.8,3.4
				c-2.9,3.3-6,6.5-9.1,9.7C403.5,230,402.1,228.7,403.9,227.3z"/>
			<path class="st152" d="M414,215.4c-2,2.2-3.4,5.2-7.1,5c3.4-2.4,5.7-5.7,8-9C417.1,213.3,414,213.9,414,215.4z"/>
			<path class="st157" d="M375,193.4c-1.2,0.7-1,1.9-1,3c0,0.7,0,1.3,0,2c-3.2,1.8-4.2-0.6-4.8-2.8c-0.8-3-2.3-5.7-3.3-8.6
				c-0.9-2.6-2.6-4.1-5.2-4.7c-0.4-0.2-0.8-0.5-1.1-0.9c-0.6-1.1-0.5-2.3-0.2-3.4c0.7-2,0.3-2.7-1.6-4.1c-3-2.2-3.1-6.6-5.3-9.8
				c-1.7-2.5-3.4-5.2-5.9-6.5c-5.6-3-8.4-8-11.4-13.1c-0.9-1.6-1.7-3.8-4.5-2.2c-2.1,1.2-3.5-0.4-3.4-2.1c0.1-4.5-2.9-6.4-6.1-8.3
				c-9-5.4-16.2-12.9-24.1-19.7c-1.1-1-2.1-2.2-2.6-3.6c1.3-3.9,3.1-4.8,7.4-2.8c5.8,2.7,10.8,6.6,14.2,12c1.5,2.3,3.1,4.2,5.7,5.2
				c4.5,1.7,8.5,5,11.7,8c4.4,4.1,10.2,7.2,12.9,13.1c3.5,7.5,10.7,12.5,13.5,20.6c1,3,4.1,5.2,6.5,7.4c4.2,3.8,6.7,8.1,7,13.8
				c0.1,2,0.9,3.9,1.5,5.8C375,192,375,192.7,375,193.4z"/>
			<path class="st158" d="M360,181.4c3.9-0.6,6,1.2,7,5c0.9,3.2,3.3,5.9,3.4,9.5c0,1.8,1.6,2.7,3.6,2.5c0.9,4.3,1.8,8.5,3,12.7
				c1.2,4.4,3.2,9.6,1.1,14.8c-1.6,4-2.3,8.3-0.4,12.8c1,2.4-1,4.9-2.5,6.7c-1.7,2-2.5,4.8-5.2,5.9c4.5-7.3,2.3-16.1,5.5-23.8
				c0.9-2.1,0.7-6.7-3.5-8.2c-2.4-3.5-2.8-7.8-3.7-11.7c-0.7-3.4-3.3-6.5-2.1-10.4c0.1-0.4-0.2-1.2-0.6-1.3c-4.9-1-3.4-6.6-6.6-9
				C357.1,185.6,358.3,183.1,360,181.4z"/>
			<path class="st159" d="M360,181.4c0.2,2.2-2.6,5.5,2.2,5.9c-0.9,4.7,3.1,6.3,5.5,9c0.7,0.8,0,2.2-0.3,3.3
				c-0.4,1.3-1.4,3.1,1.4,3.1c0.3,0,1,0.7,0.9,0.9c-2.1,5.7,3.5,10.2,2.2,15.7c-0.3,4,2.8,8,0,12c0.8-3.5-0.8-5.7-4-7
				c0-1.3,0-2.7,0-4c0.7-4.1,1.1-8.2-3-11c-0.1-1.5,1.5-2.9-1.1-4.5c-3.3-2-0.1-6.6-2.1-9.6c-0.6-0.9-0.6-2.6-2.1-2.3
				c-0.6,0.1-0.8,1.6-1.8,3.8c-0.8-6.6-7-10.2-5.1-16.8c0.1-0.5-0.3-1.7-0.6-1.7c-4.3-0.5-3.8-5.9-7.4-7c-1.2-0.4-1.7-1.5-1.9-2.7
				c-0.1-0.6-0.5-1.8-0.5-1.8c-5.3,1.2-5.5-4.2-8.3-6.3c-1.3-1-2.2-1.7-2-3.5c0.5-5.2-1-6.2-6.2-4.5c-3.6-1.8-6.7-4.3-8.2-8.2
				c-1-2.6-2.4-3.4-4.9-1.9c-1.2,0.7-2.6,1.2-3.6,0c-1-1.1,0.2-2.2,0.7-3.1c1-1.9,0.3-2.8-1.6-3c-1.3-0.2-2.8-0.3-3.5-1.6
				c-1.6-3.3-2.9-3.6-5.7-0.7c-1.6,1.7-3-0.5-3.3-2.5c-0.4-3.3-5.2-8.4-8.4-8.2c-3.6,0.2-4.3,3.2-4.6,6.1c-0.3,3.4-1.5,5.1-5.1,3.4
				c-1-5.9-0.4-11.8,1-17.6c0.7-2.9,2.2-5.9,5.8-6.1c3.1-0.1,4.6,2.2,5.2,5c0.1,0.3,0.1,0.9,0.2,0.9c5.8-1.6,8.2,7.1,14.2,4.8
				c0.8-0.3,1.7,0.2,2.2,0.9c2.9,4.1,7.7,6.7,9.5,11.7c0.8,2.2,2.1,4.2,5.2,3.3c0.8-0.2,1.9,0.1,2.3,0.8c3.2,6,10.6,8.1,13.4,15.1
				c1.3,3.4,5.2,6.9,8.5,9.6C351.9,166.7,357.5,172.8,360,181.4L360,181.4z"/>
			<path class="st67" d="M393,45.4c-4,3.4-7.1,1.9-11.2-0.8c-9.3-6.2-19.2-11.5-28.8-17.1c4.5,0.8,8.5,2.6,12.4,4.9
				c5.5,3.3,11.1,6.5,16.4,10.1c3.3,2.2,6.5,3,10.2,2C392.3,44.8,392.7,45.1,393,45.4z"/>
			<path class="st59" d="M395.9,45.5c1,0.7,1.9,1.3,2.9,2c1.1,1.3,2.1,2.7,3.2,4c-0.7,1.3-1.5,2.1-3,0.9c-1.7-2-3.4-4-5.1-5.9
				C394.8,46.4,395.5,46.3,395.9,45.5z"/>
			<path class="st65" d="M428.9,94.4c-5-4.1-6.3-10.4-9-15.8c-0.2-0.4-0.6-0.8-0.8-1.2c-3-1.1-5-3.4-7-5.8c-0.4-2.1-3-4-0.7-6.4
				c3.3-0.6,4.3,3.7,7.4,3.4c0.9,0.3,1.1,1,1.2,1.9c0.2,5.7,2.8,10.5,6.3,14.7c1.9,2.3,3.6,4.7,4.6,7.5
				C430.5,93.5,430,94.3,428.9,94.4z"/>
			<path class="st160" d="M428.9,94.4c0.4-0.9,0.9-1.6,2-1.8c0.7,1,1.4,1.9,2.1,2.9c0.7,1.3,1.4,2.6,2.1,3.9
				c-0.1,1.9,0.7,3.6,1.8,5.1c-0.5,0.6,0.8,4-1.6,1.5C432.2,102.8,428.4,99.7,428.9,94.4z"/>
			<path class="st161" d="M436,92.4c-0.3,1,0.5,2.3-0.6,3c-0.2,0.1-0.9-0.7-1.4-1.1c-0.7-3.3-3.7-5.6-4-9.8
				C433.1,86.8,434.5,89.7,436,92.4z"/>
			<path class="st162" d="M402.9,59.5c0.3,0.6,0.8,1.2,0.8,1.8c0.2,1.6,1,3.7-0.6,4.5c-1.5,0.8-2.4-1.3-3.4-2.3
				c-1.7-1.6-3.2-3.4-4.7-5.1c1.4-0.7,2.7-1.4,4.1-2.1C400.3,57.5,401.6,58.5,402.9,59.5z"/>
			<path class="st163" d="M408.9,60.5c-0.3-0.4-0.7-0.7-1-1.1c-1-2.9,2.1-1.8,2.9-3c1,0.6,2,1.3,3,1.9c1.4,1.7,2.8,3.3,4.1,5
				c-0.2,2.4-1.5,0.9-2.2,0.6c-1.6-0.8-2.6-2.6-4.8-2.2C410,61.9,409.5,61.1,408.9,60.5z"/>
			<path class="st164" d="M399.1,52.4c1-0.3,2-0.6,3-0.9c1.7,0.9,2.2,2.2,1.6,4.4C401.4,55.6,400,54.3,399.1,52.4z"/>
			<path class="st165" d="M410.9,61.5c0.6-3,2-0.7,3-0.4c1.5,0.5,1.8,3.1,4,2.3c1.8,1.3,0.5,2.7,0,4
				C414.4,66.9,411.6,65.4,410.9,61.5z"/>
			<path class="st166" d="M410.9,61.5c1.8,2.7,4.5,4.1,7,5.9c0.3,0.4,0.6,0.7,0.9,1.1c-0.1,1.6-0.8,2.1-2.1,1
				c-1.6-1.3-3.2-2.6-4.9-3.9c-1.1-0.9-3.3-0.7-2.9-3c0-0.7,0-1.4,0-2.1C409.6,60.9,410.2,61.2,410.9,61.5z"/>
			<path class="st161" d="M436.8,104.5c-2.4-1.1-3.9-2.5-1.8-5.1c0.6,1,1.3,2,1.9,3.1C436.9,103.1,436.9,103.8,436.8,104.5z"/>
			<path class="st167" d="M400,68.4c2.6,1.6,4.4,3.7,3.9,7c-3,2.3-5.3,1.3-7.7-1.2c-1.9-1.9-2.6-4.7-5.2-5.8c0-0.3,0-0.6,0-1
				c-0.3-1-0.7-2-1-3C393.6,65.1,396.9,66.6,400,68.4z"/>
			<path class="st168" d="M392,116.4c0.1,3.9,2,7.3,3.1,10.9c0.7,2.3,0.7,3.9-2.1,4.2c-2.7,0.6-4.6,0-5.4-2.9
				c0.9-4.6,0.1-8.6-3.9-11.5c-0.9-0.7-1.7-1.6-2.3-2.6c-8.9-16-22.3-27.4-37-37.7c-15.4-10.7-31.7-19.4-49.8-24.6
				c-7.8-2.2-15.7-4.1-24-1.9c-1.7,0.4-4,1.2-4.6-1.8c0.7-0.7,1.3-1.3,2-2c5.5-5.2,12.2-2.9,18.1-1.8c18.4,3.4,35.5,10.6,51.5,20.5
				c12.9,8,24.6,17.5,35.4,28c4.2,4.1,8.1,8.3,9.8,14.1c0.4,1.3,1,2.5,2.3,3.1C387.2,112.5,390.3,113.7,392,116.4z"/>
			<path class="st169" d="M266,48.4c1,1.3,2.4,1.2,3.6,0.9c12.9-3.5,24.5,1.1,36.4,5.4c9.7,3.5,18.9,7.9,27.5,13.4
				c10.6,6.9,21.7,13.2,30.5,22.7c6.8,7.4,14.5,13.9,19,23.4c1.7,3.5,5.8,5.9,6.4,10.6c0.2,1.8,0.2,2.9-1.4,3.6
				c-1.6,0.3-2.2-0.6-2.3-2.1c1.1-2.5,0.6-4.5-2.1-5.7c-2-0.9-3.1-2.4-3.7-4.4c-2.2-8-7.4-14.2-13.7-19c-5-3.8-8.8-8.9-14-12.5
				c-1.9-1.3-3.7-2.7-5.9-3.5c-10.3-4.7-19.1-11.9-29.2-16.9c-12.6-6.3-25.5-10.9-39.6-12.4c-3.1-0.3-5.1,1-6.4,3.6
				c-0.4,0.6-1,1.1-1.7,1.2c-2.4-1.2-4.3,0.2-6.4,1c-1.9,0.7-3.6,2.4-5.9,1.7c-3.9-2-2.1-4.3-0.1-6.1C259.5,51,262.7,49.6,266,48.4z
				"/>
			<path class="st170" d="M390.9,107.4c-1.9-1.1-3.6-2.9-6-3c-0.3-0.3-0.5-0.7-0.5-1.2c-1.7-4.9-5.8-8.3-8.6-12.5
				c-0.3-0.3-0.6-0.7-0.9-1c-2.6-2.6-4.8-5.6-8.2-7.3c-0.6-0.3-1.1-0.8-1.6-1.3c-2.3-2.6-4.4-5.5-7.8-6.8
				c-7.1-4.9-14.2-9.6-21.6-14.1c-4.4-3.8-9.7-6-15.2-7.7c-0.4-0.2-0.8-0.4-1.2-0.6c-4.4-2.3-9-4.3-13.9-5.5
				c-0.5-0.1-0.9-0.2-1.4-0.4c-3.8-1.4-7.6-2.6-11.7-2.1c-6.8-0.7-13.6-1.8-20.4-0.3c-2.4,0.7-4.8,1.1-6.9-1c1-0.7,2-1.3,3-2
				c9.1-1.7,18.2-1.6,27.5-0.4c10.2,1.3,19.3,5.5,28.6,9.5c15.7,6.7,29.4,16.3,42.3,27.5c7.8,6.8,14.2,14.5,21.2,21.9
				C389.7,101,392.2,103.7,390.9,107.4z"/>
			<path class="st171" d="M385,110.4c-2.3,0.1-3.1-1.7-3.7-3.4c-2.3-6.3-6.7-10.8-11.8-14.9c-2.7-2.1-4.9-4.9-7.5-7.2
				c-20.2-18.3-43.6-30.8-69.8-37.8c-7.9-2.1-16-3.6-24.2-0.7c0-0.3,0.1-0.7,0.1-1c0.7-1.4,1.7-2.4,3.4-2.5c9.4-2,18.7-0.5,27.5,2.2
				c16.1,4.9,31.3,11.3,45.3,21.2c10.4,7.3,20.2,15.1,29.4,23.7c5,4.7,8.9,10.3,10.2,17.3C384.3,108.4,384.6,109.4,385,110.4z"/>
			<path class="st172" d="M258.2,108.5c-4.2-2,0.4-4,0-6c2.6-2.4,5.8-1.1,8.8-1.5c3.6,0,7,0.4,7.3,5.1c0,1.9-0.5,3.5-2.6,4.2
				C267.1,109.8,262.6,109.7,258.2,108.5z"/>
			<path class="st173" d="M258.1,90.5c-2.3-1.3,1-3.8-1.1-5.2c1.5-3.9,5.3-1.3,7.7-2.8c0.5-0.2,1.1-0.3,1.6-0.3
				c2.2-0.1,4.5-0.4,6.5,0.8c1.6,1.9,0.5,3.7,0,5.6c-0.4,0.8-1,1.4-1.8,1.7c-1.6,0.5-3.3,0.5-5,0.5
				C263.4,90.2,260.7,92.3,258.1,90.5z"/>
			<path class="st174" d="M264.1,129.3c-1.6-1.6-3.3-0.7-5-0.1c-0.4-1.6-0.7-3.2-1.1-4.8c1-1.6,3.2-0.5,4.2-2c0.5-0.7,1.3-1,2.1-1.1
				c2.9-0.1,5.2,1.1,7.4,2.9c3.2,5,3,5.7-1.5,7.2C268,131.2,265.7,131.1,264.1,129.3z"/>
			<path class="st175" d="M252.1,91.6c4.2,1.3,1.7,4.4,1.8,6.8c-3.7-0.1-5.3,2.9-7.6,5c-2.2,1.3-4.2,5.6-6.8,0.5
				c1.3-5,5.9-7.4,8.9-11C249.5,92.2,250.3,90.6,252.1,91.6z"/>
			<path class="st176" d="M245.9,102.3c1.5-1.4,3-2.9,4.5-4.3c1.3-1.2,2.5-1.1,3.5,0.4c0,2.7,0.1,5.4,0.1,8
				c-1.6,1.9-2.2,5.2-5.9,4.2C247.5,107.9,246.5,105.1,245.9,102.3z"/>
			<path class="st177" d="M258.1,90.5c2.6-0.3,5.2-1.5,7.9-1.1c0.6,1.3-0.6,1.7-1.1,2.4c-3.8,4.8-3.4,6.8,2,9.3
				c0.2,0.3,0.3,0.5,0.3,0.8s0,0.5-0.1,0.5c-3,0-5.9,0-8.9,0.1C256.5,98.5,256.6,94.5,258.1,90.5z"/>
			<path class="st178" d="M264.1,122.3c-0.6,0-1.3,0.1-1.9,0.1c-6.9-0.8-3.4-6.7-4.8-10.2c-0.4-1,0.4-2.5,0.7-3.8
				c4.4-0.8,8.7-0.4,12.9,1.1c-0.5,2.6-2.5,1.5-4,1.5c-4.4-0.1-5.1,0.8-4.7,5.1C262.6,118.4,264.5,120,264.1,122.3z"/>
			<path class="st179" d="M256.1,76.5c-1.4-1.6-0.2-3.3-0.1-5c0.8-1.3,1.8-2.4,3.2-3c2.1-1.1,4.4-1.4,6.8-1.3c2,0.2,3.7,0.8,3.9,3.2
				c0,0.5-0.1,1-0.2,1.5c-0.2,0.5-0.5,0.8-1,1.1c-2.9,0.9-5.9,1.4-8.8,2.5C258.7,75.9,257.6,77,256.1,76.5z"/>
			<path class="st180" d="M239.2,92.3c-0.2-1.7,0.4-3.2,0.9-4.7c1.9-3.7,5.8-5.6,8.4-8.6c0.8-0.5,1.5-1.1,2.5-0.4
				c0.7,1,2.2,1.4,1.8,3c-1.7,2-3.6,3.8-5.6,5.5c-2.9,1.4-3.5,5.9-7.6,5.7C239.5,92.6,239.4,92.4,239.2,92.3z"/>
			<path class="st181" d="M247,86.1c1.7-1.9,3.2-3.9,5.9-4.5c-0.3,3.3,0.7,6.8-0.8,10c-1,0.7-2,1.3-2.9,2
				C247.4,91.3,245.8,89.1,247,86.1z"/>
			<path class="st182" d="M240.2,77.6c2-2.4,4-4.7,6-7.1c1-2,1.8-4.4,4.8-4.3c-0.1,1.6,1.5,2.1,2,3.3c-1.5,1.7-3.1,3.2-4.6,4.8
				c-1.9,1.9-3.6,3.9-5.8,5.5c-1.1,0.8-2.6,2.4-3.4-0.4l0,0C239.6,78.9,239.3,77.9,240.2,77.6z"/>
			<path class="st183" d="M271,43.5c-1,0.7-2,1.3-3,2c-3.8-1.4-5.7,2.1-8.5,3.2c-1,0.4-2,2.6-3.2,0.7c-0.8-1.3,0.6-2.3,1.8-3
				c2.3-1.3,4.6-2.6,6.9-3.9c2,0.7,4,0.7,6,0c0.3,0.2,0.5,0.4,0.3,0.7C271.3,43.4,271.2,43.5,271,43.5z"/>
			<path class="st184" d="M257.1,59.4c2.9-1.5,5.9-3,8.8-4.4c1.6-0.8,2.9-0.8,3.2,1.4c-0.2,1.2-1,1.9-1.9,2.6
				c-0.7,0.5-1.5,0.9-2.3,1.2c-1.7,0.5-3.3,1.2-4.8,2.1c-1.3,0.5-2.5,1.3-3.9,0.3C256.4,61.6,256.7,60.5,257.1,59.4z"/>
			<path class="st185" d="M256.1,76.5c1-0.6,2-1.2,3-1.8c1.5,1.1,1.8,2.6,1.5,4.4c-0.2,1.3-0.5,2.7,1.4,3.1c1.1,0.3,2.3,0.4,3.1,1.4
				c-2.4,2.1-5.7-0.2-8.1,1.8C254.9,82.6,256.5,79.4,256.1,76.5z"/>
			<path class="st186" d="M241,71.4c-1.8-2.6,0.8-3.7,1.9-5.2c1.2-1.7,2.8-3.2,4.2-4.7c1-0.7,2-1.3,2.9-2c3.4,1.5,2.4,3.7,1.1,6
				c-3.2-2.1-4.6,1.4-6.8,2.1C243.2,68.9,242.1,70.1,241,71.4z"/>
			<path class="st187" d="M248,73.4c1.3-1.7,2.5-3.6,4.9-3.8c0,3.1,0.7,6.4-1.8,9c-0.7,0.3-1.3,0.7-2,1
				C247.2,77.8,247.8,75.6,248,73.4z"/>
			<path class="st188" d="M244.2,67.6c0.5-1.8,1.9-2.9,3.4-3.9c2.1-1.4,3.2-0.7,3.5,1.8c-0.1,0.3-0.1,0.6-0.1,0.8
				c-1.6,1.4-3.2,2.9-4.8,4.3C246,69.3,245.6,68.1,244.2,67.6z"/>
			<path class="st189" d="M248,110.3c2.7-0.2,3.8-2.7,5.9-3.8c-0.7,2.4,1.5,4.7,0,7.1c-0.6,0.5-1.3,0.7-2.1,0.7
				c-1.9-0.5-4.2-0.3-5.2-2.6C246.7,110.8,247.1,110.2,248,110.3z"/>
			<path class="st190" d="M252.2,113.5c0.6,0,1.2,0,1.8,0c1.4,4.1,1,8.4,0.9,12.6c-0.6,0.1-1.2,0.2-1.8,0.3c-0.2-3.7-2.3-7-2.5-10.8
				C250.6,114.6,251.1,113.9,252.2,113.5z"/>
			<path class="st191" d="M256.1,62.6c1.3-0.4,2.6-0.8,3.9-1.2c1.2,2.9-1.7,5.3-0.9,8.1c-1,0.7-2,1.3-3.1,2
				C255.4,68.5,254.2,65.6,256.1,62.6z"/>
			<path class="st81" d="M400,68.4c-3.8-0.1-7-1.8-10-4l0,0c-3-3.4-7.7-4.1-11-7c-0.3-0.3-0.7-0.7-1-1c-8-5.9-16-11.7-25-16
				c-0.3-0.3-0.7-0.7-1-1c-2.2-1.2-4.8-1.7-7-3l0,0c-2.4-1.6-5.4-1.9-8-3c-5-3.2-10.7-4.7-16.4-6c-1-0.2-2-0.1-2.6-1
				c12.6,0.3,23.3,6.2,34.5,11c11.4,4.9,20.3,13.6,30.9,19.5c4.3,2.4,6.8,7.8,12.6,7.5C397.7,65.4,399,66.8,400,68.4z"/>
			<path class="st167" d="M353,40.5c7.6,1.9,13.4,6.8,19.5,11.2c1.9,1.4,4.5,2.3,5.5,4.8C369.3,51.7,361.2,46,353,40.5z"/>
			<path class="st167" d="M379,57.5c3.8,2.1,8.9,2.2,11,7C386.1,62.4,381.6,61.4,379,57.5z"/>
			<path class="st167" d="M337,33.5c3,0.1,6,0.2,8,3C342.1,36.2,339.2,35.6,337,33.5z"/>
			<path class="st167" d="M345,36.5c2.8,0,5,1.2,7,3C349.4,39.1,346.6,39.1,345,36.5z"/>
			<path class="st192" d="M248,110.3c-0.3,0.4-0.7,0.7-1,1.1c-0.5,1.5-1.5,2.6-2.6,3.7c-1,0.7-1.8,2.2-3.4,1.1
				c-2.1-5.2-1.4-11.1-3.9-16.2c-1.4-3-2.9-5.1-5.9-1.5c-3.8,1.5-6,4.7-8.1,8c-0.7,0.7-1.4,1.4-2.1,2.1c-1.4-2.7,0.6-5.4,0.2-8.1
				c1-0.9,1.5-2.1,1.7-3.4c2.4-4.4,4.7-8.9,8.2-12.7c6.1-0.9,6.1,4.6,8.2,7.8l0,0c2.2,3.6,2.4,7.4,0.9,11.3c0.2,2.2,1.3,2.5,2.9,1.4
				c1.1-0.7,1.9-1.8,2.8-2.7C247.8,104.7,250.1,106.9,248,110.3z"/>
			<path class="st193" d="M248,73.4c1.8,1.8,0.7,4.1,1.1,6.1c-2.5,3.2-5.7,5.7-9,8c0.6-2.8-1.1-5.4-1-8.1c2.1,1.9,2.8-0.5,3.9-1.4
				C244.8,76.7,246.4,75,248,73.4z"/>
			<path class="st193" d="M240.2,77.6c-0.4,0.6-0.7,1.2-1.1,1.8c-2-4.2-5.9-2.7-9.1-3.1c0.7-1.3,1.4-2.6,2.1-3.9
				c2.6-2.4,4.6-2.1,6.1,1.2C238.8,75,239.5,76.3,240.2,77.6z"/>
			<path class="st194" d="M231,84.4c-1.7,4.9-4.4,9.1-8.2,12.7C222,91.6,226.7,84.4,231,84.4z"/>
			<path class="st123" d="M293,145.4c1.3-4.1-2-9.3-7-11c-0.7-2,0.4-3.1,2-3.9c1.8-0.8,2.4,0.8,3.6,1.6c4.2,2.7,8.1,6.1,13.5,6.5
				c2.1,0.2,2.8,1.4,2.7,3.4c-0.1,1.6-0.5,3.4,1.4,4.4c1.3,0.1,3.3-0.9,3.8,1c0.7,2.4-1.6,3.6-2.9,5.1c-2-2.2-2-2.2-3.5-0.2
				c-0.6,0.7-1.2,1.3-2,0.8c-0.8-0.5-1.6-1.3-1.9-2.1c-1.3-4.1-5.9-6.3-9.6-4.4C293,146.1,293,145.7,293,145.4z"/>
			<path class="st44" d="M310,152.4c0.1-1-0.1-2,0.8-2.8c0.7-0.7,2.6-1.1,1.2-2.5c-1.1-1-1.8,1.1-2.9,1.2c-1.2-1.8-0.4-3.2,1.2-4.2
				c1.7-1.1,3.2-0.2,4.4,1.1c1.1,1.1,1.9,2.3,2.7,3.5c2.7,3.9,5.6,7.6,10.7,8.6c0.2,0.8,0.9,1.7,0.6,2.3c-0.8,2.2-2.4,4.3,1.4,5.6
				c1.2,0.4-0.2,2.1,0,3.2C323,163.5,314.2,160.9,310,152.4z"/>
			<path class="st5" d="M419.9,86.5c-1.6-1.8-4.1-1.7-6-3.1c-4.6-4.3-4.9-6.1-1.3-8.7c2.2,0.4,4.4,0.7,4.3,3.7
				C417.3,81.3,420.5,83.2,419.9,86.5z"/>
			<path class="st195" d="M416.9,78.4c-0.7-1.8-2.6-2.1-4-3c-1.2-1.1-4.1,0-4-2.9c-0.6-1-0.7-2,0-3c2.1-0.8,3,0.6,4,2
				c2.1,1.9,4.6,3.4,6.1,5.9C418.6,78.3,417.8,78.4,416.9,78.4z"/>
			<path class="st196" d="M260,170.3c0.9-2.8,2.8-2.6,4.9-1.8c2.5,0.5,4.1,2.1,4.6,4.4c0.6,2.8-0.8,3.1-2.9,1.7
				C264.4,173.1,262.2,171.7,260,170.3z"/>
			<path class="st197" d="M266.6,174.5c1.8,0.3,3.2,0.2,1.8-2c-0.9-1.5-2.3-2.7-3.5-4c0-0.4,0-0.8,0.1-1.1c2.6-0.6,4.1,0.8,4.9,3
				c0.4,0.6,0.8,1.3,1.2,1.9c-0.3,1.7,0.5,3.7-1.2,5.1c-0.7,0-1.3,0.1-2,0.1c-0.3-0.4-0.6-0.8-0.9-1.1
				C266.9,175.8,266.8,175.2,266.6,174.5z"/>
			<path class="st198" d="M250.9,115.2c1.2,3.7,4.6,6.9,2.2,11.3c-0.1,0.2-0.2,0.5-0.3,0.8c-1.3,1.6-2.7,2.4-4.7,1.2
				c2.1-2.6,2.4-5.4,1.3-8.7c-0.7-2.3-2.1-1.4-3.3-1.4C246.2,115.2,248.2,114.6,250.9,115.2z"/>
			<path class="st199" d="M248.1,128.4c1.6-0.4,3.1-0.8,4.7-1.2c2.9,1.2,4.6,2.9,2.4,6.1c-0.8-1-1.9-0.8-3-0.7
				c-0.6-2.3-3.3-1.8-4.4-3.4C247.8,129,247.9,128.7,248.1,128.4z"/>
			<path class="st200" d="M270.1,147.2c-2.1,0.5-3-2.2-5-1.9c0.1-2.6-4-2.9-3.1-5.8c0.7-0.8,0.7-1.8,0.9-2.8c1.7-6.7,1.7-6.8,8-5.2
				c1,0.1,2-0.1,3,0.1c1.6,0.7,3.1,1.6,4.3,2.9c-0.3,2.4-2.1,2.3-3.9,2.4c-2.5-1.9-3.4-0.3-4.1,1.8c-0.8,2.5,0.6,4.8,0.4,7.3
				C270.6,146.4,270.4,146.8,270.1,147.2z"/>
			<path class="st201" d="M271.2,132.3c-1.1-0.3-2.2-0.5-3.3-1c-1.8-0.8-3-0.7-2.8,1.6c0.2,2.8-1.3,4.7-3,6.5
				c-0.8-3.7-1.6-7.3,2.1-10.1c1.9,0.4,3.9,0.8,5.8,1.2C270.6,130.9,271.5,131.2,271.2,132.3z"/>
			<path class="st202" d="M275.1,155.5c-1.2,1.3-2.8,0.8-4.2,1c-3.1,2.7-2.4,7.7-6,10.1c-1.3-1-2.7-2-4-2.9
				c-1.6-3.4,0.4-6.7,0.3-10.1c0-1.8,1.8-2,3.4-2c2.1,1.2,4.1,2.3,6.2,3.5c1.2-0.6,2.5-0.7,3.7,0C274.8,155.1,275,155.3,275.1,155.5
				z"/>
			<path class="st203" d="M274,136.4c1.2-0.9,3-0.6,4-2c-0.6-0.7-0.5-1.3,0-2c1.9-0.1,4.4,0.6,3.3-3c-0.2-0.8,0.4-1.9,0.6-2.9
				c1.2-4.5,4.5-6.2,7.9-3.5c2.8,2.3,10.3,1.6,6.7,8.9c-0.1,0.2,0.6,1.1,1.2,1.4c0.9,0.5,0.9-0.3,1.2-0.8c2.8-3.9,4-3.8,6.1,0.6
				c0.4,0.8,0.8,1.8,1.6,1.7c2.2-0.3,4.6-0.5,5.7,1.7c1.3,2.5-2.7,3-2.6,5.3c2.9,1.4,3.7-4,6.9-2c2.5,1.5,1.5,4.7,3.4,6.3
				c2.1,1.9,4.3,3.6,5.9,6.1c-0.4,2.1,1.1,3.4,2,5c-1.6,0.1-3.3,0.2-4.9,0.5c-0.9,0.1-1.7,0.2-1.9-0.8c-0.8-4.2-5-6-6.6-9.6
				c-0.6-1.3-1.2-3.1-3.1-2.8c-2,0.3-2.2,2.2-2.5,3.8c-2.3-1.3-3.5-2.9-2.6-5.7c1.1-3.5-0.4-4-3.2-2.4c-1.1,0.7-1.6,0.8-2.2-0.4
				c-2-3.6-4.5-5.4-8-1.7c-1.8-1.7,1.5-4.5,0.1-4c-4.3,1.6-1.9-2.3-2.9-2.7c-2.7-1.2-3.1,1.4-4.1,3c-0.6,2.6-3.4,3.2-5,4.9
				c-4.3,4.6-3.5,11-5.9,16.2l-0.3-0.3c-1.1-2.1-2-4.3-3.7-6.1c-0.2-0.3-0.5-0.5-0.7-0.8c-0.1-0.4-0.2-0.8-0.3-1.1
				c0-0.3,0.1-0.6,0.1-0.9c2.7-0.8,4.1-2.2,3.1-5.3C272.8,139.5,273,137.8,274,136.4z"/>
			<path class="st204" d="M271.2,149.1c4.4,0.1,4.6,2.8,3.7,6.1c-1.3,0.4-2.7,0.6-3.9-0.3C271,153,271.1,151,271.2,149.1z"/>
			<path class="st205" d="M264.9,166.5c1-2.7,2.3-5.3,3-8c0.5-1.9,1.4-2.3,3.1-2.1c0.1,1.1-0.1,2.5,0.5,3.4c3,4.1,1.2,7.4-1.5,10.6
				c-1.6-1-3.3-2-4.9-3C265,167.1,265,166.8,264.9,166.5z"/>
			<path class="st13" d="M239.8,120.5c0.7,1.8-0.7,3.3-0.7,4.9c-0.1-0.1-0.3-0.1-0.4-0.2c-4.9-2.8-8.1-2.3-8.4,4.2
				c-1.5-1.4-1.5-2.8-0.3-4.3c-2,2.4-4.2,4.6-7.8,3.3c-3-4.1-0.1-6.2,2.9-8.3c2.2-3.5,4.4-6.9,6-10.7c2.5-1,3.7-0.5,5,2.3
				C237.3,114.6,237.3,118.1,239.8,120.5z"/>
			<path class="st206" d="M222.1,128.4c2.5-1.5,6.6-0.4,8.1-4.6c0,1.9,0,3.7,0,5.6c-0.5,2.5-0.5,2.4-2.9,1.4
				c-1.5-0.6-2.8,0.3-4.2,0.7C221.7,130.8,221.9,129.6,222.1,128.4z"/>
			<path class="st13" d="M239.1,125.4c1.1,2.7,2.5,5.3,0,8C238,130.8,238,128.1,239.1,125.4z"/>
			<path class="st207" d="M230.9,109.4c-0.2,4.6-1.6,8.5-6,10.7c-0.8,0.1-1.8,0.5-2.3,0.1c-0.9-0.8-0.4-1.7,0.4-2.5
				c1.4-1.3,3.8-2.8-0.5-3.2c-0.1,0-0.4-1.5-0.2-1.7C225,111.2,226.8,107.5,230.9,109.4z"/>
			<path class="st208" d="M223.1,106.4c-2.2-2.3,0.5-3.1,1.5-4.1c2.1-2.2,4.7-4,4.8-7.6c2.5,0.7,1.1,2.6,1.8,3.7
				c-0.3,1.7,0.6,3.7-2.8,3.9C226.5,102.4,224.8,105,223.1,106.4z"/>
			<path class="st209" d="M241,116.2c1-0.6,2.1-1.2,3.1-1.8c1.4,1.7-0.2,3.4,0.1,5.2c-1.1,1.4-2.7,0.8-4.1,0.8
				C240.1,118.9,239.6,117.3,241,116.2z"/>
			<path class="st210" d="M244.2,119.6c-2.5-1.7,0-3.4-0.1-5.2c1-1,1.9-2,2.9-3c1.4,1.6,3.7,0.7,5.2,2.1c-0.4,0.6-0.9,1.1-1.3,1.7
				c-1.8,0.7-3.8,1.3-4.8,3.2C245.5,118.8,244.8,119.2,244.2,119.6z"/>
			<path class="st211" d="M242.3,132.4c1.4,1.7,0.5,3.2-0.2,4.8C237.8,135.4,241.4,134,242.3,132.4z"/>
			<path class="st212" d="M270,177.4c0.2-1.7-0.7-3.7,1.2-5.1C273.8,176.3,273.6,177.1,270,177.4z"/>
			<path class="st213" d="M412.9,161.4c-3,3.4-6.3,6.2-10.9,6.9c0-0.7,0-1.3,0-2c-0.1-10.1-0.1-10.1,8.9-14
				C413,155,413.8,158,412.9,161.4z"/>
			<path class="st214" d="M408.9,135.4c2.4,2.9,6.8,5,4,9.9c-2.1,1.6-4.4,2.8-7,3.6c-3.7,1.1-4.4-0.4-4.4-4
				C401.6,139.6,403.3,136.1,408.9,135.4z"/>
			<path class="st215" d="M385.8,126.5c0.7,0.7,1.4,1.3,2.1,2c0.9,2.3,3.5,1.8,5,3c1.3,0.7,2.7,1.3,4,2c-0.4,2.1-1,4-3.1,5
				c-1.4,0.8-2.7,0-4-0.3c-1.1-0.4-2.2-0.7-3.3-1.1c-2.6-1.4-5.2-2.8-6.4-5.8c-0.3-1.1-0.2-2.1,0.2-3.1
				C381.9,126.4,383.3,124.7,385.8,126.5z"/>
			<path class="st216" d="M383,157.3c-0.3-0.3-0.7-0.6-1-0.9c-0.9-0.6-1.7-1.3-1.9-2.4c-0.2-1.7-0.1-3.2,1.6-4.2
				c3-1.3,5.4,0.8,8,1.6c2.3,1.2,5.1,0.8,7.4,2.1c0.7,3-1.4,4.8-3,6.8c-1.7,1.1-3.4,0.2-5.1,0C386.8,159.5,385.1,158,383,157.3z"/>
			<path class="st217" d="M389,159.3c1.7-0.1,3.4,0.2,5,0.9c3.2-0.4,4.5,1.6,4.7,4.3c0.3,2.9,0.1,5.9,0.2,8.8
				c-0.3,0.9-0.7,1.5-1.6,1.9c-3.2,0.5-6.6,1.5-9.5-1.1c-0.1-1.2,0.9-1.1,1.6-1.3c5.4-1.9,6.2-5.4,2.3-9.8
				C390.7,161.8,388.6,161.5,389,159.3z"/>
			<path class="st207" d="M397,153.4c-2.6,1.2-4.8,0.2-7-1c3.8-3.4,4.3-8.6,1.1-12.5c-0.6-0.7-1.5-1.3-1.1-2.5
				c1.4-0.1,2.7,0.4,3.9,1C398.4,141.6,399.4,146.2,397,153.4z"/>
			<path class="st152" d="M397.9,174.3c0.3-0.3,0.6-0.7,1-1c2.1,2.3,0.8,5.2,0.7,7.5c0,5.6,2.3,11,1.3,16.6c-1.3,1-2.7,1-3.9-0.1
				c1-1.5,1.1-3.2,0.9-5c2-3.2,1-6.7,1-10c0-2.5-2.7-1.9-4-2.9C394.3,176.7,396.8,175.9,397.9,174.3z"/>
			<path class="st218" d="M401,214.4c-0.1,2.2,0.2,4.5-2.1,5.9c-0.6,0-1.3,0.1-1.9,0.1c0-0.5-0.1-1,0-1.5c1.5-3.8,0.9-5.7-3.7-4.6
				c-0.8,0.2-1.6,0-2.5,0c2.7-2.1,6.9-0.6,9-3.8C401.5,211.4,400.6,213.1,401,214.4z"/>
			<path class="st217" d="M397,197.3c1.3,0,2.6,0.1,3.9,0.1c-0.4,2.6,1,5.5-1,8c-0.5-6.7-0.9-7-9-7C392.7,196.6,395,197.7,397,197.3
				z"/>
			<path class="st219" d="M408.9,72.5c1.3,1,2.7,2,4,2.9c-2.2,0.3-2.2,1.6-1.4,3.1c0.8,1.6,1.6,3.2,2.4,4.8c-6.3-2-7.9-4.2-6.9-9.1
				C407.2,73.1,407.8,72.6,408.9,72.5z"/>
			<path class="st220" d="M412.9,71.5c-1.3-0.7-2.6-1.3-4-2c-2.4-2.3-3.8-4.6,0-6.9c1,1,1.9,2,2.9,3
				C410.2,67.9,413.4,69.4,412.9,71.5z"/>
			<path class="st221" d="M271,43.5c0-0.3,0-0.7,0-1c5.5-1.8,11.1-1.1,16.6-0.5c1.8,0.2,3.6,0.5,5.4,0.5c4.1,0.8,8.1,1.8,12,3
				c5.1,1.7,10.2,3.6,15,6c5.6,2.2,11.2,4.2,16,8c8,3.6,14.9,8.9,22,14c3,1.9,4.9,5.1,8,7c0.3,0.3,0.7,0.7,1,1c3.4,2.2,5.6,5.8,9,8
				l0,0c2.6,4.9,6.8,8.8,9,14c0,0.3,0,0.6,0,1c-1.2,0.7-0.9,1.9-1,3c-3-3.9-4.2-8.9-7.7-12.6c-8.3-8.7-16.8-17.3-27.2-23.6
				c-4.8-2.9-9.2-6.5-14-9.4c-14.6-8.9-30.4-14.4-46.9-18.1C282.8,42.5,276.8,42,271,43.5z"/>
			<path class="st48" d="M365,209.4c1.1,0.2,2.6-1.4,3.1,1c0.8,3.4,3.6,6.7-0.1,10C366.1,216.9,365.8,213.1,365,209.4z"/>
			<path class="st141" d="M375,191.4c-2.7-1.8-2.9-4.7-3-7.5c-0.1-3.9-1.5-7.6-4.7-9.4c-3.4-1.8-5.5-5.3-7.5-7.6
				c-2.7-3.2-4.9-7.9-6.8-12.2c-0.3-0.6-0.3-1.8-0.5-1.8c-5.2-0.8-5.7-5-7.4-8.7c-0.3-0.8-1.8-2.4-2.7-3.7c-1-1.3-1.4-3.4-3.1-3.7
				c-3-0.5-6.3,0.1-5.5-5c0.3-2.2-2.7,1.7-4.3-1.4c-1.7-3.2-5.4-6.2-9.8-7c-2.6-0.5-3.1-3.2-4.4-5c-4.1-5.6-9.1-10.1-15.9-12.3
				c-2.5-0.8-3.9-0.2-4.2,2.5c-4.3,0.9-3.7-3.2-5.3-5.1c-0.4-1.1-1.1-2-1.8-2.9c-2.6-3.5-5.3-3.4-7.7,0.3c-0.8,1.3-1.2,2.7-2.1,3.9
				c-1.1,1.5-2.1,3.1-4.4,1.9c-0.7-2.1,0.3-3.7,1.4-5.5c2.4-3.8,3.9-8,6.4-11.7c0.8-0.7,2.2-1.2,2.7-0.5c2.5,3.2,7.4,2.3,9.6,6.3
				c1.4,2.7,5,2.3,7.6,3.1c3.9,1.2,7.3,2.9,10.5,5.4c1.1,0.8,2.3,1.6,3.4,2.3c1.9,3.4,5.3,4.9,8.6,6.5c0.1,4.1,1.2,7.4,6.3,7.1
				c1.1-0.1,2.3,0.5,2.4,1.4c0.4,4.1,4.3,4.3,6.4,6.5c2.9,3.1,6.7,5.6,8,10c0.1,0.5,0.3,1.2,0.6,1.3c8.2,1.1,7.2,10.5,12.7,14
				c-1.7,3.8,2.4,2.3,3.1,3.4c1.2,2,0.7,4.9,3.5,6.2c0.8,0.4,0.9,1.1,1,2.1c0,1.5-3.5-0.5-2,2c0.8,1.4,2.5,0.2,3.6,0.6
				c3.5,1.2,3.9,4.8,5.1,7.7C376.8,180.1,376.8,185.8,375,191.4z"/>
			<path class="st222" d="M338,111.4c0.7,5.3,6.1,6.8,8.6,10.8c1.7,2.7,5.2,4,5.8,7.7c0.1,0.6,1.1,1.3,1.8,1.4
				c4.7,1,5.1,4.3,4.7,8.2c-3.2-2.8-6.6-5.3-8.9-9.1c-1.3-2.1-3.1-4.4-6-4.9c-0.9-0.1-1.6-0.3-1.9-1.3c-2.8-8.8-10.7-12.2-17.7-16.6
				c-0.6-0.4-1.6-0.1-2.5-0.1c-0.2,0-0.5-0.1-0.7-0.1c-3.5-2.9-6.7-6.2-11.9-5.8c-2-5.5-7.2-6.6-11.8-8.7
				c-1.4-2.7-10.7-8.1-13.5-7.8c-2.5,0.3-3.4,2.4-4.5,4.2c-1,1.6-2.1,3.5-4.1,3.1c-2.1-0.4-2.2-2.6-2.5-4.4c0.1-3.8,2.4-6.9,4-10
				s5.2-3,8-1.5c6.6,3.4,14.6,3.8,20.2,9.4c1.8,1.8,5.5,0.6,6.5,3.9c0.2,1.2-0.5,2.7,1.3,3.3c4.3,1.5,7.9,4,11.4,6.8
				c1.3,1.1,3.3,0.4,4.7,1.3c2.9,1.9,4.5,5.2,7.7,6.9C338,108.6,338.7,109.9,338,111.4z"/>
			<path class="st223" d="M324,112.4c-0.3-0.1-0.6-0.5-0.9-0.4c-5,1.4-6.3-2.5-8.1-5.6c2.6-1.5,4.8-0.1,7,1l0,0
				C322.7,109.1,323.3,110.8,324,112.4z"/>
			<path class="st39" d="M372,160.4c3.9,0.5,4,3,3,6C373.4,164.7,371.7,163,372,160.4z"/>
			<path class="st224" d="M371,137.4c1.8,3.5,0.7,7.3,1,11c-2.6-5.8-6.5-10.5-11-14.8c-1-0.9-2-1.7-2-3.1
				c-3.5-5.3-7.9-9.8-12.6-14.1c-1.1-1-2.3-1.9-1.6-3.7c3.9-1.9,6.1,1,8.5,3.2c5.2,4.7,8.3,11.1,13.1,16.2c1.5,1.6,2.8,3.2,4.3,4.8
				C370.8,137,370.9,137.2,371,137.4z"/>
			<path class="st225" d="M345,112.4c0,1.5,0.8,2.4,2.1,3.1c4.9,2.2,6.5,7.8,10.7,10.8c1.1,0.8,1.3,2.6,1.2,4.2
				c-6.2-3.4-10.3-8.8-14.5-14.1c-1.8-2.3-3.6-4.1-6.5-4.8c-2.1-4.1-7.6-5.2-9-10c0.2-0.1,0.4-0.2,0.6-0.3c3.9,0.1,6.5,2.9,9.5,4.8
				c0.3,0.3,0.5,0.7,0.8,1.1c0.7,2.6,4,2.5,5,4.7C344.9,112,344.9,112.2,345,112.4z"/>
			<path class="st226" d="M380.9,154.4c0.4,0.7,0.7,1.4,1.1,2c-1.9-0.2-1.8,2-2.9,2.8c-3-5.5-1-11.5-3.1-16.8
				c-1.1-4.9-3.4-9.3-5.4-13.9c-1.7-3.7-5.6-5.5-8.5-8.2c-0.3-0.3-0.6-0.7-0.9-1.1c-2.9-6.7-8.5-10.8-14.3-14.6
				c-2-1.3-3.8-2.6-5.3-4.4c-5-5.9-12-9.2-18.2-13.4c-1.6-1.1-3.5-0.7-5.3-1.1c-1.4-0.6-2-1.9-2.9-3c-10.4-7.9-22.3-12.8-34.7-16.5
				c-1.8-0.5-2.7,0.7-3.5,2c-0.4,0.6-0.8,1.2-1.3,1.7c-1.4,1.3-2.6,2.8-4.6,3.2c-0.8,0-1.4-0.1-2-0.7c0-0.2,0-0.5,0-0.7
				c0.4-0.8,0.9-1.5,1.3-2.3c0.8-2.6,0.5-5.6,2.2-8c0.3-0.4,0.7-0.7,1.2-0.9c8-1.8,14.9,2.5,22.1,4.6c4.2,1.3,8.4,3.2,12.4,5.2
				c0.5,0.2,0.9,0.5,1.3,0.8c4.6,3.5,9,7.4,15.1,8.5c3.6,0.7,6.3,3.7,8.9,6c6.5,5.8,14.2,9.7,20.5,15.7c7.2,6.9,14.5,13.8,19.4,22.6
				c2.7,4.8,4.5,10,5.7,15.3C380.9,144.3,380.1,149.4,380.9,154.4z"/>
			<path class="st80" d="M389,159.3c1.3,1.5,3.3,1.7,4.5,3.6c1.8,2.8,2.9,6,1.9,8.7c-1.2,3.3-4.9,1.3-7.5,1.8
				c-0.2-0.1-0.3-0.3-0.3-0.5s0-0.3,0.1-0.3c2.2-2.1,1.8-8.5-0.8-11.6c-1.2-1.3-2.6-2.4-4-3.6C385.2,157.5,387.2,158,389,159.3z"/>
			<path class="st227" d="M387.7,172.5c0.1,0.3,0.1,0.6,0.2,0.9c3.2,2,6.6,0.5,10,0.9c0.2,2.4-2.3,3.2-3,5.1c-3,0-6,0-9,0
				c-0.6-0.3-1.3-0.7-1.9-1c-0.9-1.9,0.3-3.5,1-5.1C385.7,172.3,386.8,172.6,387.7,172.5z"/>
			<path class="st228" d="M362,119.4c9.2,4.9,13.4,12.8,14,23c-0.7-1-1.3-2-2-3c-3.2-5.6-7-10.8-11.2-15.7
				C361.6,122.4,360.6,121.1,362,119.4z"/>
			<path class="st229" d="M362,119.4c0,3.2,2.5,6.1,4.3,7.1c5.3,3,5.4,8.5,7.7,12.8c-1-0.6-1.4-2.2-3-2l0,0
				c-2.7-5.5-8.1-9-10.9-14.4c-0.8-1.7-2-3-3.6-3.9c-1.7-1-2.9-2.3-1.7-4.4C358.4,114.4,360.6,116.3,362,119.4L362,119.4z"/>
			<path class="st230" d="M385,173.3c0.9,1.9-0.5,3.4-1,5.1C380.9,176,381,174.3,385,173.3z"/>
			<path class="st231" d="M399,222.3c3.5,1.9,1.9,4.4,0.9,6.9c-0.6,0.1-1.2,0.1-1.9,0.2c0-1.7-0.1-3.5-0.1-5.2
				C397.9,223.4,398.1,222.7,399,222.3z"/>
			<path class="st232" d="M403.9,191.4c2.3-2,4.6-4,6.9-6.1c3.3,0.8,1.9,4,3.1,5.9c-1.7,3.1-4.4,5.3-7,7.5c-0.6,0.5-1.5,1.2-2.1,1
				c-1.3-0.3-0.9-1.6-0.9-2.5C403.9,195.3,403.9,193.4,403.9,191.4z"/>
			<path class="st232" d="M414.9,202.2c-2.9,4-6.6,7.2-10.3,10.8c-2.6-8,3.1-11,7.4-14.7C414.5,198.5,413.8,201,414.9,202.2z"/>
			<path class="st233" d="M406.9,220.3c0,0.3,0,0.6,0.1,0.9c-0.9,0.3-2.2,1.6-2.8,0c-0.7-1.9-0.4-3.8,1.6-5
				C406.1,217.7,405.5,219.3,406.9,220.3z"/>
			<path class="st234" d="M291,102.4c0.8,2.3,0.9,5.2,4,6c4,4.1,8.7,7.3,12.6,11.7c3.8,4.3,9.7,6.8,14.3,10.5c2.8,2.3,8.3,3.2,6.2,9
				c-0.3,0.7,0.2,1.7,1.1,2c1.1,0.3,1.5-0.5,1.7-1.3c0.8-2.6,2-1.7,3-0.2c2.9,4.5,5.6,9.3,8.8,13.6c1.5,2,4.5,2.5,6.6,4.2
				c3.8,2.9,4.6,7.4,7.4,10.7c1.3,1.5-0.1,5,3.8,4.9c1.4,0,0.6,1.6,0.5,2.4c-0.2,1.8-0.6,3.6-1,5.3c-0.5-0.4-1.4-0.8-1.5-1.3
				c-1.3-6.2-6.5-10-9.9-14.7c-2.6-3.5-7.5-5.3-9.2-10.1c-0.4-1.1-5.1,0.1-4.5-1.9c1-3.2-1.1-5.2-2.3-6.1c-4.1-3-7.2-6.8-10.4-10.5
				c-0.1-0.1-0.3-0.2-0.5-0.1c-6,2.8-7.4-3-8.1-5.8c-1.3-4.9-7.7-4.9-8.2-9.8c0-0.2-1.1-0.5-1.3-0.4c-3.3,3.7-5.5-2.8-8.6-0.9
				c-0.5,0.3-1.3-0.8-1.4-1.7c-0.2-1.1-0.1-2.5-1.3-3c-2.2-0.9-0.8,1.8-1.7,2c-1.2,0.2-2.8-0.5-2.6-1.6c0.6-3.6-1-5.9-4.3-5.3
				c-3.4,0.6-3.8,4.3-4.6,7.3c-1.3,4.9,0.2,10.1-1.5,15c0,0.7,0,1.3,0,2c-1.9,0.4-2.9-1-4.1-2c0.4-2.4,0.5-4.7-0.3-7
				c-0.1-3.7-3.4-7.1-0.9-11c3.3-1.8,4.7-5,6-8.3C281.5,99.5,285.1,98.4,291,102.4z"/>
			<path class="st235" d="M270.1,55.5c0.7-3.2,2.6-5.2,5.8-4.9c11.6,0.9,22.7,3.9,33.4,8.7c7.9,3.6,15.7,7.6,23,12.2
				c4.9,3.1,9.4,6.6,14.7,9c9.9,7.9,19.7,16,28.1,25.6c2.5,2.8,4.1,5.9,4.9,9.6c0.5,2.3,1.2,4.4,2.6,6.4c1.4,2.2,1.3,4.1-1.8,4.7
				c-1.7-0.7-2.8-2.1-2.9-3.8c-0.3-7.8-5.9-12.4-10.8-17.3c-12.2-12.2-25.7-22.9-40.5-32c-13.3-8.2-27.2-15.3-42.7-18.4
				c-3.5-0.7-6.9-1.1-10.3,0.4C272.5,56.3,271.2,56.6,270.1,55.5z"/>
			<path class="st236" d="M270.1,55.5c12.6-5.2,23.7,0.8,34.7,5.1c12.8,5,24.4,12.8,35.7,20.7c12.4,8.7,23.4,19.1,34.1,29.8
				c2.7,2.7,3.7,6.3,4.2,9.9c0.3,2.1,1.1,3.8,2.2,5.4c0.6,0.7,0.6,1.4,0,2c0,1,0,2,0,2.9c-3-0.6-3.6-3.3-4-5.5
				c-1.4-7.6-6-13-11.5-18.1c-4.7-4.4-9.4-9-14.2-13.2c-10.1-8.8-21.6-15.4-33.1-21.9c-10.5-5.9-21.1-11.3-32.9-14
				c-4.4-1-8.8-1.8-13,0.8c-1.9,1.2-3.8,1.2-5.3-0.9c0.7-0.7,1.4-1.3,2.1-2C269.4,56.1,269.7,55.8,270.1,55.5z"/>
			<path class="st237" d="M381,128.5c0-0.7,0-1.4,0-2c1.3-0.7,2.6-1.8,1.2-3c-2.3-2-2.3-4.7-2.8-7.2c-1.9-9.7-10.2-14.2-16.2-20.7
				c-5.1-5.4-11.9-8.9-16.2-15c3.7,0.2,6,3,8.2,5.3c7.9,8.1,18.1,14,23.7,24.4c2,3.8,1.6,9.2,7.5,10.7c1.3,0.3,3.6,4.1-0.5,5.7
				C383.8,126.1,382.4,127.3,381,128.5z"/>
			<path class="st238" d="M385,103.4c-3.5-4.3-7-8.7-9-14c3.9,3.2,5.7,8.2,9.6,11.5C386.3,101.6,385.9,102.8,385,103.4z"/>
			<path class="st183" d="M336,59.5c-5.3-2.7-10.7-5.3-16-8C326.1,52.6,331.7,54.7,336,59.5z"/>
			<path class="st183" d="M320,51.5c-5.2-1.4-10.2-3.4-15-6C310.6,46.1,315.5,48.2,320,51.5z"/>
			<path class="st238" d="M376,89.4c-4.2-1.3-6.3-5-9-8C371.2,82.8,373.3,86.4,376,89.4z"/>
			<path class="st183" d="M305,45.5c-4.2-0.2-8.2-1.2-12-3C297.3,42.2,301.3,43.2,305,45.5z"/>
			<path class="st238" d="M366,80.4c-3.8-1.1-5.7-4.3-8-7C361.8,74.5,363.6,77.7,366,80.4z"/>
			<path class="st239" d="M291,102.4c-7.2-2.4-7.7-1.7-11.6,5.4c-1.3,2.4-1.2,7.6-6.4,6.6c-1.3,0.8-2.8-2.2-3.8,0.1
				c-1,2.3-0.6,4.5,0.9,6.6c0.9,1.2,3.4,1.2,2.9,3.5c-0.7,0.4-1.3,0.4-2,0.1c-2.3-0.8-4.6-1.6-6.9-2.4c-0.8-1.6-2.6-2.5-3-4.5
				c-1.5-7.4,0.1-9,7.8-7.6c0.9,0.2,1.6,0,2.2-0.7c1.8-0.2,2.1-1.7,2.5-3c0.2,0,0.4-0.1,0.6-0.1c2.8-0.2,3.2-2.6,4.1-4.5
				c3.5-7.3,6.6-7.7,11.3-1.5C290.1,101.1,290.5,101.8,291,102.4z"/>
			<path class="st240" d="M274.1,106.4c-0.2,0-0.4,0.1-0.6,0.1c-0.3-4.3-3.6-3.8-6.5-4.1c0-0.3,0-0.6-0.1-1c0.2-0.2,0.3-0.4,0.5-0.5
				c3.8-0.6,5.3-2.7,4.4-6.6c-0.4-2,0-4,0.9-5.8c0.4-0.4,0.8-0.4,1.3-0.1c0.5,1.1,1,2.3,1.7,3.7c1.1-1.2,2.2-2,2.9-3.1
				c4-6.6,6.9-7.3,12.9-2.6c0.9,0.7,1.5,2,2.8,1.7c4.4-1.2,3.5,2,3.7,4.3c-4.4,1.4-7.8-1.7-11.6-2.8c-1.5-0.5-2.9-1.8-4.4-0.1
				c-1.3,4.8-3.8,9-6.4,13C274.8,103.8,274,104.9,274.1,106.4z"/>
			<path class="st241" d="M274,88.4c-0.3,0-0.7,0.1-1,0.1c-0.4,0.4-0.7,0.4-1,0c0.3-1.6,0.6-3.1,1-4.7c-1.2-1.6-1.4-3.7-3.2-5.6
				c-0.6,2.3-1.9,3.9-3.6,5.2c-0.3,0.1-0.6,0.2-0.9,0.2c-1.4,0-2.7-0.1-4.1-0.1c-1.8-2.5-0.4-4.5,1.4-5.9c2.1-1.7,4.1-3.8,6.6-4.9
				l0.1-0.1c0.6,0,1.3,0,1.9,0c0.4,0.3,0.8,0.6,1,1c1.4,3.1,2,1.3,2.5-0.4c3.5-4.9,4.2-5,9.8-2.7c5.5,2.3,11,4.3,16.6,6.3
				c3.4,1.2,5.5,3.9,8.6,5.5c3.2,1.7,6.5,3.5,9.6,5.5c0.8,0.9,1.6,1.7,2.4,2.6c0.6,0.8,1,1.6,0.5,2.6c-1,1.3-2.6,2.1-3.9,1.3
				c-2.3-1.5-5.2-1.7-7.2-3.7c-0.1-1.4-1-2-2.3-2c-2.7,0-4.6-1.5-6.4-3.3c-4.3-4.3-10.9-3.6-15.7-6.7c-2-1.3-4-1.8-6.4-1.4
				c-0.9,0.1-2,0.4-2,1C277.9,82,274.3,84.6,274,88.4z"/>
			<path class="st242" d="M267,101.5c-2.1-0.3-5.1,0.9-5.7-2.3c-0.9-4.3,1-7.6,4.8-9.8c1.7,0.1,3.4,0.1,5,0.2
				C270.8,93.9,270.3,98.1,267,101.5L267,101.5z"/>
			<path class="st243" d="M267.1,101.4c1.5-3.9,1.4-8.3,4-11.9c0.3-0.4,0.6-0.7,0.9-1.1c0.3,0,0.7,0,1,0c0,2.1-0.1,4.3,0.1,6.4
				C273.5,101.5,273.6,101.5,267.1,101.4z"/>
			<path class="st222" d="M266.1,83.3c-0.1-1.7,1.3-2.6,2.2-3.8c0.8-1.1-0.9-2.6,0.8-3.9c2.8,1.9,4.4,4.4,3.9,8
				C270.7,83.6,268.4,83.5,266.1,83.3z"/>
			<path class="st244" d="M271,124.7c0.6,0,1.3,0,1.9,0.1c0.5,0,0.9,0.2,1.1,0.7c1.9,2.3,3,4.7-0.1,6.9c-0.9,0-1.9,0-2.8-0.1
				c-0.4-0.6-0.9-1.2-1.3-1.8C276.5,129.8,270.6,126.6,271,124.7z"/>
			<path class="st245" d="M240.2,103.6c-0.3-3.8-0.6-7.6-0.9-11.3c4.2,0,4.2-5.4,7.8-6.2c0.2,2.6,2.9,4.6,2.1,7.5
				C246.4,97.2,242.5,99.7,240.2,103.6z"/>
			<path class="st246" d="M273,61.5c-0.6,3-1.2,6-1.8,9c-1.5-1.5-2.7-3.6-5.3-2.1c-2.4-0.3-4.6,0.5-6.8,1.1
				c-1.3-0.2-2.2-0.6-1.5-2.2c0.8-1.9,1.6-3.9,2.4-5.9c1.4-1.4,3-2.1,5-2C268,58.6,270.1,61.9,273,61.5z"/>
			<path class="st247" d="M269,72.6c-1.6,1.9-2.5,4.4-5.4,5.4c-2.1,0.7-2.6,3.2-2.5,5.5c-2.5-0.2-2.3-2.2-1.8-3.6
				c0.6-1.8,0.3-3.4-0.1-5.1C262.3,73.4,265.5,72.2,269,72.6z"/>
			<path class="st248" d="M265.9,68.4c2.6-1.5,5-2.3,5.3,2.1c-0.7,0.4-1.4,0.9-2.1,1.3C269.3,69.5,268.4,68.1,265.9,68.4z"/>
			<path class="st90" d="M273,61.5c-3.6,2.9-5.5-1-8.1-2c0.7-0.3,1.3-0.7,2-1c1.4-0.1,2.9,1.6,4.2,0.2c3.8-3.8,8.7-2.8,12.7-1.8
				c13.4,3.1,25.6,9.2,37.4,16.2c8.2,4.8,16.5,9.4,24.1,15.2c6.9,5.3,13.6,11,19.5,17.5c2.3,2.5,4.9,4.8,7.3,7.3
				c3.3,3.3,4.5,7.3,5.5,11.4c0.7,2.6,1.9,4.8,3.2,7.1c2,1.6,4,3.3,6,4.9c2.4,2.7,2.5,6.4,4,9.5c0.9,1.9,1.1,4-0.8,5.4
				c-2.1,1.6-3.2-0.7-4.6-1.7c-1-1.4-0.8-2.9-0.8-4.4c0-1.2-0.3-2.5-1.4-3.1c-4.7-2.6-6.2-7.3-7.4-11.9c-1.8-7.4-6.1-13.1-11.2-18.4
				c-7.6-7.9-15.5-15.3-25.1-21c-3.4-2-5.8-5.4-9.1-7.6c-6.9-4.6-14.7-7.4-21.7-11.8c-8.6-6-18.6-8.3-28.4-11.1
				C277.9,59.6,275.4,59.7,273,61.5L273,61.5z"/>
			<path class="st249" d="M274,136.4c0.2,1.7,0.3,3.5,0.6,5.2c1,5.4,0.8,5.6-4.4,4.7c-1.8-3.8-2.4-7.5,0.4-11.1
				c0.6-0.8,0.9-1.8,2.2-1.6C274.4,134,273.9,135.3,274,136.4z"/>
			<path class="st250" d="M385.9,149.4c1.3,0.2,2.1,2.7,3.7,1.2c1.4-1.3,1-2.9,0.1-4.5c-1.7-3-2.5-6.3-2.8-9.8c1.1,0.1,2.2,0,3,1
				c5.2,2.5,4.2,7.5,4.4,11.8c0.1,2.6-1.9,3.6-4.4,3.2c-2.9,0.2-4.9-2.9-8-2.1C382.7,147.8,384.3,148.5,385.9,149.4z"/>
			<path class="st251" d="M385.9,149.4c-1.4,0.2-2.9-0.4-4,1c-1.4,1.1-1,2.6-1.1,4c-3-4.6-1-10.1-2.9-15c3,1.1,5.7,2.8,8,5
				C386,146.1,386,147.7,385.9,149.4z"/>
			<path class="st223" d="M282,89.4c0.4-2.7,2-1.8,3.6-1.3c4.1,1.4,8.2,2.8,12.4,4.2c0.6,0.3,1.2,0.8,1.8,0.7
				c6.3-0.8,8.6,3.2,10.2,8.3c1.2,0.6,2.6,1.2,2,3c-4-1.6-7.2-4.6-11.6-5.3c-1.3-0.2-2.4-1.4-4.1-1c-1.9,0.5-3.2-0.8-3.9-2.3
				c-1-2.2-1.4-4.7-4.7-2.3c-1.3,1-1.5-0.6-1.6-1.5C285.7,89.8,284,89.4,282,89.4z"/>
			<path class="st138" d="M312,104.4c-0.7-1-1.3-2-2-3c6.4-2.8,8.7,2.6,12,6c-2.4,0.3-4.7-0.4-7-1
				C313.6,106.4,312.6,105.8,312,104.4z"/>
			<path class="st225" d="M311,90.4c2.3,0.9,5.5-1.2,7,2.6c0.4,1.1,2.7,0,4-0.6c1.7-0.6,2.5,0.7,3.5,1.7c1.1,2,3,3.4,4,5.4
				c0.2,0.7,0.1,1.4-0.5,1.9l0,0c-2.6,0.6-4.7,0.6-6.8-1.8c-2.6-3-6.4-4.9-10-5.7C308.5,93.2,310.7,91.8,311,90.4z"/>
			<path class="st140" d="M329,99.4c-1.9-1.2-3.8-2.5-4-5c0.5-2.8,2.6-2,4.4-1.9c0.7,0.2,1.4,0.7,1.9,1.3c1.1,2.8,2.4,5.4,6.1,4.9
				c0.4,0.2,0.8,0.4,1.1,0.8c1,2.4,3.1,3.7,5.2,5.1c1.8,0.8,3.9,1.4,4.9,3.3c2.1,2,5.5,2.5,6.3,5.8c0,0.2,0,0.5,0.1,0.7
				c0.2,0.9,0.1,2.6,0.6,2.7c6.5,2.2,6.5,10.3,12.5,13.2c2.4,1.2,1.6,4.8,2.9,7.1c-6.2-3.3-9.2-9.5-13.4-14.7
				c-3.4-4.4-6.6-9-12.6-10.2l0,0c-1-2.9-4.7-2.5-6-5c0-0.3,0-0.7,0-1C336,103.5,331.9,102.4,329,99.4z"/>
			<path class="st224" d="M329,99.4c3.6,1.9,7.6,3.4,10,7c-3.3-1.7-6.7-3.3-10-5C329,100.8,329,100.1,329,99.4z"/>
			<path class="st224" d="M339,107.4c2.1,1.6,5.6,1.4,6,5C343.4,110.2,339.2,111.2,339,107.4z"/>
			<path class="st246" d="M386,144.4c-3.1-0.9-6.3-1.8-8-5c-2.4-11-7.9-20.3-15.7-28.2c-7.2-7.2-14.7-14-23.5-19.5
				c-4.1-2.6-8.7-5.5-12-9.6c-0.4-0.5-1.2-1.4-1.4-1.3c-5.9,2.4-7.9-4.6-12.7-5.2c-1.9-0.2-3.5-1.8-3.7-4.2c1.3,0.2,2.9-0.1,3.9,0.6
				c8.7,5.8,18.9,8.8,26.4,16.8c3.3,3.5,8.2,5.8,12.2,8.8c6.1,4.6,10.8,10.6,16.4,15.7c6.3,5.7,8,13.1,10.4,20.4
				c0.8,2.5,1.5,4.9,4.5,6C384.3,140.3,386.3,141.8,386,144.4z"/>
			<path class="st252" d="M348,108.4c-1-2.1-3.6-1.6-5-3c-0.9-2.7-4-3.5-5-6c-2.8-1-5.4-2.3-7-5c-0.3-0.3-0.7-0.7-1-1
				c-3-0.9-5.5-3.6-9-3c-1.3,0-2-0.7-2-2c-0.5-1-1.6-1.7-1-3c5.5-2.7,8.2,2.5,12,4.4c9.2,4.6,15.3,13.4,24.1,18.7
				c3.8,2.2,7.1,6,7.8,11c-1.7-2.6-5.2-2.6-7-5l0,0C354,110.9,350.9,109.7,348,108.4z"/>
			<path class="st229" d="M318,85.4c0.3,1,0.7,2,1,3c-6.4-1.9-11.2-6.7-16.9-9.8c-4.3-2.3-9-4.8-14.2-5.5c-1-0.1-1.9-0.2-2.7-0.9
				c-3.8-2.8-7.3-3.5-10.2,1.2c-1.2-1.3-0.8-2.7,0-4c0.3-0.3,0.7-0.7,1-1c1.7-2.7,4.1-2.4,6.6-1.6c9.7,2.9,18.7,7.4,27.2,12.6
				c2,1.2,4.3,1.7,6.2,3C316.7,83.4,317.3,84.4,318,85.4z"/>
			<path class="st247" d="M316,82.4c-2.5,0.4-4.3-0.3-6.6-1.8c-8.4-5.5-17.7-9.5-27.1-12.9c-2.1-0.7-4.3-0.4-6.2,0.7
				c0-3.1,1.8-4.4,4.5-3.6c8.8,2.6,17.2,6.1,25.3,10.6C309.4,77.5,313.6,78.6,316,82.4z"/>
			<path class="st246" d="M273,61.5c1.3-2.6,3.5-3.6,6.2-2.8c8.4,2.7,17.3,4.1,25.1,8.6c1.9,1.1,3.6,2.3,4.7,4.2
				c-7-1.2-12.8-5.5-19.7-7.1C283.9,63,278.8,60.6,273,61.5z"/>
			<path class="st247" d="M275,69.4c0,1.3,0,2.7,0,4c-0.1,1.3,0.2,3.4-1.4,3.2c-2.1-0.2-2.2-2.5-2.6-4.2
				C272.4,71.5,273.7,70.5,275,69.4z"/>
			<path class="st253" d="M274,125.4c-0.4-0.2-0.7-0.4-1.1-0.7c-3.3-2.1-6.6-4.4-5.4-9.1c0.4-1.4-0.2-3.6,2.1-4.1
				c2.5-0.6,2.2,2.1,3.4,2.9c0.1,3.3-0.5,6.6,2.4,9.2C276.5,124.7,275,125.2,274,125.4z"/>
			<path class="st229" d="M321,90.4c4.7-4.2,6.1,1.8,9,3c-1.7,0.2-3.6-0.7-5,1c-1-0.7-2-1.3-3-2C321.7,91.8,321.3,91.1,321,90.4z"/>
			<path class="st229" d="M331,94.4c2.7,1.1,4.8,3.2,7,5C333.5,100.7,330.9,99.5,331,94.4z"/>
			<path class="st229" d="M338,99.4c2,1.7,5.5,2.2,5,6C341,103.7,337.5,103.2,338,99.4z"/>
			<path class="st229" d="M348,108.4c4,0.1,6.5,1.8,7,6C352.6,112.4,350.3,110.4,348,108.4z"/>
		</g>
	</g>
</g>
<g id="Camada_2" class="st0">
</g>
</svg>
