<?xml version="1.0" encoding="utf-8"?>
<!-- Generator: Adobe Illustrator 25.0.0, SVG Export Plug-In . SVG Version: 6.00 Build 0)  -->
<svg version="1.1" id="Camada_1" xmlns="http://www.w3.org/2000/svg" xmlns:xlink="http://www.w3.org/1999/xlink" x="0px" y="0px"
	 viewBox="0 0 615 221" style="enable-background:new 0 0 615 221;" xml:space="preserve">
<style type="text/css">
	.st0{display:none;}
	.st1{display:inline;stroke:#FFFFFF;stroke-miterlimit:10;}
	.st2{fill:#DFE3EF;}
	.st3{fill:#D3D6E1;}
	.st4{fill:#E3E4E6;}
	.st5{fill:#C0C1C4;}
	.st6{fill:#E2E3E4;}
	.st7{fill:#050506;}
	.st8{fill:#A7A9B1;}
	.st9{fill:#232325;}
	.st10{fill:#141516;}
	.st11{fill:#67696E;}
	.st12{fill:#CACCD7;}
	.st13{fill:#86888F;}
	.st14{fill:#3C3D40;}
	.st15{fill:#36373A;}
	.st16{fill:#57595D;}
	.st17{fill:#787A80;}
	.st18{fill:#1B1B1C;}
	.st19{fill:#989AA3;}
	.st20{fill:#28292B;}
	.st21{fill:#0B0B0C;}
	.st22{fill:#B0B3BC;}
	.st23{fill:#4B4D51;}
	.st24{fill:#4B4D50;}
	.st25{fill:#75777D;}
	.st26{fill:#63656B;}
	.st27{fill:#84878E;}
	.st28{fill:#6F7178;}
	.st29{fill:#898B92;}
	.st30{fill:#7D7F87;}
	.st31{fill:#92949C;}
	.st32{fill:#F3F5FD;}
	.st33{fill:#ECF0FB;}
	.st34{fill:#E7E9F4;}
	.st35{fill:#CBCDD7;}
	.st36{fill:#DADDE9;}
	.st37{fill:#BDC1CD;}
	.st38{fill:#EFF1FB;}
	.st39{fill:#D2D4D9;}
	.st40{fill:#797B81;}
	.st41{fill:#2B2B2E;}
	.st42{fill:#3B3D40;}
	.st43{fill:#161617;}
	.st44{fill:#82848B;}
	.st45{fill:#A7A9B2;}
	.st46{fill:#9A9CA4;}
	.st47{fill:#212123;}
	.st48{fill:#1A1A1C;}
	.st49{fill:#424447;}
	.st50{fill:#424346;}
	.st51{fill:#2F3032;}
	.st52{fill:#5D5E63;}
	.st53{fill:#D5D8E2;}
	.st54{fill:#B4B7C0;}
	.st55{fill:#595B60;}
	.st56{fill:#222224;}
	.st57{fill:#131314;}
	.st58{fill:#151516;}
	.st59{fill:#ADAFB8;}
	.st60{fill:#9D9FA7;}
	.st61{fill:#A2A4AC;}
	.st62{fill:#AFB1BA;}
	.st63{fill:#ABAEB7;}
	.st64{fill:#2D2E30;}
	.st65{fill:#6B6D72;}
	.st66{fill:#72747A;}
	.st67{fill:#606166;}
	.st68{fill:#C1C4CF;}
	.st69{fill:#CED1DB;}
	.st70{fill:#BABDC7;}
	.st71{fill:#878990;}
	.st72{fill:#7C7E84;}
	.st73{fill:#91939A;}
	.st74{fill:#44464A;}
	.st75{fill:#38393C;}
	.st76{fill:#5B5D61;}
	.st77{fill:#434448;}
	.st78{fill:#323336;}
	.st79{fill:#616267;}
	.st80{fill:#585A5E;}
	.st81{fill:#525458;}
	.st82{fill:#4D4F53;}
	.st83{fill:#FEFEFE;}
	.st84{fill:#F0F3FC;}
	.st85{fill:#D0D5E3;}
	.st86{fill:#7E7F86;}
	.st87{fill:#494B4F;}
	.st88{fill:#404245;}
	.st89{fill:#8D8F97;}
	.st90{fill:#9598A0;}
	.st91{fill:#A1A2AB;}
	.st92{fill:#54565A;}
	.st93{fill:#B7BAC4;}
	.st94{fill:#B4B6BF;}
	.st95{fill:#B4B7BF;}
	.st96{fill:#94959D;}
	.st97{fill:#9C9DA5;}
	.st98{fill:#BABDC6;}
	.st99{fill:#4E5054;}
</style>
<g id="Camada_2_1_" class="st0">
	<rect x="-365.5" y="-129" class="st1" width="1253" height="512"/>
</g>
<g id="Camada_1_1_">
	<g>
		<path class="st2" d="M197.6,133c-0.3-0.3-0.7-0.7-1-1c0-0.3,0-0.7,0-1c4-5.3,5.8-10.7,3.4-17.6c-1.9-5.4,2.9-9.7,8.4-8.1
			c3.5,1,5.2-1.1,7.1-3.2c0.3-0.4,0.6-0.7,0.9-1.1c3.2-1.9,13.2-1.5,15.8,0.7c1.3,1.1,2.5,2.4,1.9,4.2c-0.6,1.8-2.1,1.2-3.4,1.1
			c-1.4-0.1-2.7,0.2-3.3,1.6c-0.8,1.5,0.5,2.4,1.2,3.4c2.3,3.2,4,7.2,8.8,7.3c1.2,2.3-0.6,2.9-2,3.4c-2,0.6-2.8,1.9-3.3,3.7
			c-0.6,0.9-1.4,1.2-2.4,1.1c-2.8-1.8-8.6-3.1-12.4-3c-2.2,0.1-4.3,0.3-6.5,0c-3.6-0.4-6.4,0.2-7.4,4.5
			C202.7,131.6,200.6,133.4,197.6,133z"/>
		<path class="st3" d="M216.6,102c-2.6,5-5,6.1-9.6,3.8c-1.8-0.9-3.1-0.4-3.9,0.8c-1.7,2.4-3.1,4.8-1.7,8.2
			c2.8,6.4,0.8,12.4-4.8,16.2c0-5.3,0-10.7,0-16c2.7-5,1.1-11.1,3.9-16.1c1.3-1.2,2.7-2.1,4.2-0.7
			C208.1,101.3,212.3,101.7,216.6,102z"/>
		<path class="st4" d="M298.6,220.1c0,0.3,0,0.6-0.1,0.9c-4.3,0-8.7,0-13,0c0-0.3,0-0.6-0.1-0.9c0.5-0.8,1.3-1.1,2.2-1.3
			c2.6-0.3,5.2-0.3,7.8-0.2C296.7,218.7,297.8,219,298.6,220.1z"/>
		<path class="st5" d="M315.5,0.1c0,0.3-0.1,0.6,0,0.9c-0.2,0.2-0.4,0.4-0.6,0.6c-1.8,1-3.9,0.7-5.8,0.9c-2-0.1-4.1,0.3-5.6-1.5
			c0.1-0.3,0.1-0.6,0-0.9C307.5,0.1,311.5,0.1,315.5,0.1z"/>
		<path class="st6" d="M418.4,134h-0.5h-0.5c-2.3-4-2.1-8-0.2-12c0.4,0,0.7,0,1.1,0C418.4,126,418.4,130,418.4,134z"/>
		<path class="st7" d="M411.4,154.9c-1.9,6.8-4.7,13.3-8.7,19.1c-1.3,1.1-2.6,2.1-4.3,0.7c-1.4-1.2-2.3-2.8-1.7-4.4
			c4-10.1,3.7-20.5,3.9-31.1c0.1-3.1,0.7-6.2-0.3-9.3c0-5.4-4-8.9-6.2-13.3c-2.9-5.9-6.5-11.2-10.8-16.1
			c-8.6-9.9-17.6-19.5-25.5-29.9c-12.3-16.1-27.5-29.3-43.6-41.4c-1.6-1.2-3.1-2.5-4.6-3.8c-1.6-2-3.9-2.3-6.1-2.9
			c-5.1-1.3-10.4-2.1-15-5c-1.8-1.1-3.3-0.9-4.9,0.7c-1.6,1.7-3.3,3.2-5,4.8c-5.8,5.7-12.9,7.6-20.7,8c-3.9,0.8-7.9-0.3-11.8,0.9
			c-1.8,0.5-3.5,1.5-5.4,0.5c-1.4-1.6-0.5-2.8,0.7-3.9c1-0.6,2.2-1,3.2-1.9c-0.8,0.2-1.3,0.7-2,1.1c-1.5,0.4-2.6,2.3-4.6,1.3
			c-2.1-1.6-0.6-3,0.3-4.5c3.3-1.5,6.1-4,9.7-4.7c9.4-3.4,19.4-5.1,28.3-10.1c1.1-1.1,2.4-1.8,4-1.8c1.4-0.8,3-0.9,4.4-0.5
			c9.1,2.5,18.5,4.2,26.7,9.4c8.5,5.5,16.1,12.2,24.8,17.6c4.3,2.7,8,6.9,11.7,10.7c3.1,3.2,6.3,6.4,10.2,8.8
			c2.5,1.6,3.9,3.8,4.7,6.8c1.3,5.4,6.3,8.4,9.2,12.8c6.8,9.6,14,19.1,21.9,27.8c5.6,6.2,9.5,13,11.6,21.1c2,5.3,3.8,10.4,3,16.3
			c-0.5,3.5,1.1,7.2,2.6,10.5C411.8,151.2,412.4,153,411.4,154.9z"/>
		<path class="st8" d="M203.6,83c0-1.7,0.1-3.3,0.1-5c1.4-1.9,1.3-5.7,5.7-3.7c1.3,0.6,2.6-2.3,4.4-2.9c7.2-1.3,13.9-3.4,18.9-9.4
			c2.4-2.9,6.7-2.9,9.9-0.1c5,4.4,11,8.2,12.1,15.7c0.2,1.6,1.7,2.1,2.6,1.3c5.1-4.6,9.5-0.8,14.2,0.7c3.5,1.2,6.5,3.4,9.9,4.6
			c1.2,0.5,2.5,0.7,3.8,1.2c2.8,1.1,4.5,2.8,3.4,6.1c-1.3,3.8,0.2,6.1,3.8,7.2c4.3,1.4,5.7,5.8,9.1,8.2c0.8,0.6,0.9,1.9,0.5,2.8
			c-1.1,2.2,0,3.7,1.2,5.4c1.1,1.5,1.4,3.2-0.1,4.5c-1.8,1.7-1.5,3.3,0.4,4.4c3.6,2.1,4.9,5.6,6.1,9.2c3.7,1.3,7.6,2.4,8.7,7.1
			c0.3,1.4,2.1,2,3.6,2.4c1.6,0.5,3.2,1,4.1,2.6c1.2,3.4-1.4,5.9-2.2,8.8c-1,0.8-1.9,0.6-2.8-0.1c-2.3-5.2-7.6-8.6-9.1-14.4
			c-0.5-2-3.1-1.6-4.6-2.4c-1.4-0.6-2.7-1.2-3.4-2.6c-1.3-2.9-1.2-6.4-4.2-8.4c-5.1-3.4-5.1-3.4-2.6-8.8c0.6-1.3,0.4-2-0.4-3.1
			c-3.9-5.8-9.2-9.8-15.3-13c-1-0.5-2.1-0.9-3-1.7c-2.3-1.9-2.8-3.7,0.3-5.4c1.4-0.8,3.3-1.3,3.1-3.4c-0.2-2.3-2.2-3.1-4.1-3.8
			c-3-1.1-6-2-8.9-3.1c-2.5-1-5-3.2-5.6,2.2c-0.3,3-3.9,3-6.2,2.2c-7.3-2.6-13.1-7-14.9-15.1c-1.4-6.2-3.3-7-8.7-3.4
			c-0.3,0.2-0.6,0.3-0.8,0.6c-3.6,5.3-8.9,6.3-14.7,5.9c-2.6-0.2-3.3,1.8-4.5,3.3C210.3,81.6,206.5,81,203.6,83z"/>
		<path class="st9" d="M285.4,6c0.7-1,1.8-1,2.9-1c1.6-0.7,3.5-1,4.8-0.2c5.1,3,11.2,2.8,16.4,5.6c3.4,1.8,6.7,3.7,9.9,5.7
			c3.9,3.1,8.4,5.2,12.2,8.3c3.5,2.2,7.5,1.2,11.2,1.3c4.3,0,7,1.7,7.9,6c1.4,7,6,11.5,12.1,14.3c5.3,2.4,7.5,6.1,7.1,11.7
			c-0.2,2.7-0.6,5.7,1.4,8.1c0.8,0.9,1.2,2.1,2.2,2.7c12.2,8.8,17.2,23.6,28.1,33.6c3.4,3.1,4.7,7.9,3.2,12.8
			c-0.9,0.5-1.8,0.3-2.1-0.6c-3-8.8-11-14-15.6-21.6c-4.5-7.6-10.5-13.9-16.4-20.3c-3.5-4.6-7.5-8.9-6.7-15.5
			c0.3-2.2-1.8-3.4-3.3-4.7c-2.9-2.5-6.7-3.7-9.5-6.3c-3.2-3-6-6.2-7.4-10.5c-0.6-1.9-1.4-4.3-3.8-3.9c-8.1,1.1-13.6-4.3-19.1-8.4
			c-8.1-6.1-16.5-11-26.5-13C291.2,9.5,287.9,8.5,285.4,6z"/>
		<path class="st10" d="M285.4,6c11.8,4.2,24.8,5.5,34.5,14.9c3.3,3.2,7.5,5.4,11.2,8c2.2,1.5,4.8,1.4,7.2,1.1
			c3.6-0.4,5.4,0.9,6.4,4.5c1.8,6.2,5.9,10.6,11.6,13.5c5.5,2.8,10.2,5.9,9.1,13.5c-0.6,4.5,4.5,6.7,5.9,10.5c0.5,0.7,0.6,1.3,0,2
			c-3.9-4.6-9.8-7.8-10.2-15c-0.1-1.8-2-2.9-3.6-3.9c-7.8-5.1-13.6-12.5-20.5-18.6c-3.7-3.2-8.4-4.9-12.2-8.3
			c-11.9-10.5-25.9-16.9-41.5-20c-1-0.2-2-0.1-3-0.2C281.9,6.7,283.6,6.3,285.4,6z"/>
		<path class="st11" d="M211.5,57c-0.1-2.3,2-3.3,3-5c8.7-4,17.9-6.9,26.6-10.9c13.8,2.5,28.1-1.7,41.8,2.6c6.3,2,12.6,3.9,19.3,4.5
			c7.2,0.7,11.5,5.5,14.7,11.3c2.2,3.9,4.9,7.4,7.3,11.2c2.4,4,4.5,8.1,5.8,12.6c0.1,0.5,0,1-0.2,1.5c-4,1-5.1-2.3-6.4-4.7
			c-4.2-7.5-8.4-15-12.7-22.5c-1.6-2.8-3.6-4.2-6.9-3.6c-3.1-1.4-6.3-1.8-9.7-1.7c-4.1,0.2-7.9-0.8-11.6-2.3
			c-4.2-1.7-8.8-2.6-13.2-2c-6.3,0.9-12.2,0-18.2-1.3c-6.3-1.4-11.8,0-16.8,3.8c-6.1,3.7-12.7,6.3-19.7,7.6
			C213.6,58.4,211.6,59.8,211.5,57z"/>
		<path class="st12" d="M216.6,102c-4.3,2.3-8.1,0.7-11.3-2c-1.7-1.4-3-1.5-4.8-1.1c0.2-1.4-0.3-2.9,1-4c1.8-1.8,1.4-4.6,2.7-6.6
			c1-1.8,2.9-2,4.6-2.6c2.3-0.8,4.7-1.4,6.8-2.8c6.5-4.6,9.4-4.2,15.3,1.8c0.2,0.5,0.1,0.9,0,1.4c-3,1.5-6.1,1.1-9.3,0.9
			c-4.6-0.4-5.9,1.1-5,5.7c0.4,2.4,1.4,4.8,1.1,7.4C217.3,100.7,217,101.4,216.6,102L216.6,102z"/>
		<path class="st13" d="M207.6,65.1c0-1.6,0.6-3,1.8-4.1c1-0.8,2.1-1,3.3-0.7c3.7,0.8,6.8-0.5,9.7-2.7c3.2-2.4,6.8-4,10.4-5.7
			c4.9-1.8,10.1-1.8,15.1-1.8s9.9,1.6,15.1,0.8c2.7-0.4,5.6,0.6,7.6,2.8c0.2,0.6,0.1,1.1-0.3,1.5c-5.9,0.2-11.8,1.4-17.5-0.2
			c-2.5-0.7-4.9-0.6-7.4-0.7c-7.8-1.7-12.1,3.9-17.1,8.2c-2.2,1.6-4.4,3.3-5.9,5.7c-0.8,1.4-1.9,2.7-3.9,2.3
			c-1.9-0.7-3.7-0.5-5.7-0.1C208.6,71.4,207.1,69.6,207.6,65.1z"/>
		<path class="st14" d="M291.4,4c2.8-1.3,5.7-2.1,8.8-2.1c0.5-0.3,1-0.3,1.5-0.1c8.3,2.8,15.7,7.3,22.8,12.2
			c4.5,3.1,9.2,5.5,14.8,4.7c10.6-1.6,19.5,2.7,28.4,7.4c2.6,1.4,4.7,3.2,4.1,6.6c-0.3,0.5-0.7,0.7-1.3,0.7
			c-2.1-0.6-3.8-2.1-5.5-3.2c-7.7-5.2-16.2-7.2-25.3-6.6c-6.9,0.5-12.6-2.2-18-5.9c-1.1-0.7-2.2-1.6-3.4-1.9
			C310.3,9.6,300.4,7.8,291.4,4z"/>
		<path class="st15" d="M219.4,44.8c3.5-6,7.2-11.8,13.1-15.9c1.3,2.9,0.1,6.5,2.5,9.2c-0.3,4-3.6,5.2-6.4,6.8
			c-2.1,0.2-4.2-0.2-6.2,1.1C221.4,46.7,219.4,47.6,219.4,44.8z"/>
		<path class="st16" d="M228.6,44c2.1-1.9,4.9-3.1,6-6c0.3-0.4,0.8-0.7,1.3-0.9c3.6,0.2,7,1.5,10.5,2.6c0.4,0.4,0.5,0.9,0.2,1.4
			c-1.9,0.9-4.1-0.4-6,0.8c-4.1,3.5-9.4,4.5-14.2,6.4c-3.3,1.4-6.8,2.2-9.6,4.7c-1.4,1.3-1.9,0.1-2.2-1.2c0.3-1.3,1-2.2,2-3
			C220.6,47.4,224.7,46.1,228.6,44z"/>
		<path class="st17" d="M232.6,53c-3.2,1.9-6.8,3.3-9.7,5.8c-4,3.4-8.6,3.6-13.5,2.1c0.2-1.6,0.9-2.9,2.1-4
			c6.8,0.6,12.4-3.1,18.5-5.2c1.2-0.4,2.4-1.2,3.5-1.8c0.6-0.6,1.2-0.6,1.9-0.2C236,52.3,233.3,51.8,232.6,53z"/>
		<path class="st18" d="M235.5,38c-0.3,0-0.6,0-0.9,0.1c-4.3-2.2-2.7-5.8-2.1-9.1c0.6-1.2,1.6-1.9,2.9-2.2c1.2,0.5,1.2,2.7,3.1,2.3
			c1.4-0.6,2.3-2.1,4-2c0.6,0.7,0.6,1.3,0,2c-1.3,0.6-2,1.6-2,3c0.3,0.3,0.5,0.7,0.4,1.1c-0.4,1.3-1.1,2.3-2.1,3.2
			C237.9,37.2,236.5,37.2,235.5,38z"/>
		<path class="st19" d="M207.6,65.1c0.3,3.8,1.7,6.1,5.9,4c2.1-1.1,3.7-0.7,5.1,1c-1.3,1.6-3.6,0.8-5,2c-2.2,0.9-2,7-6.8,2.7
			c-1.3-1.2-0.4,3.5-3,3.2C204.8,73.6,204.9,69,207.6,65.1z"/>
		<path class="st20" d="M291.4,4c10,1.2,18.9,5.4,27.1,11c0.6,0.6,1.6,0.9,1,2c-3.9-2-7.6-4.5-11.7-6c-6.4-2.4-13-4.1-19.5-6.1
			C289.1,4.1,290.3,4.1,291.4,4z"/>
		<path class="st21" d="M276.5,9.9c-1.4,2.3-3.8,3-6.1,3.9c-7.2,2.8-14.6,4.8-22.2,6.1C257.2,15.4,266.9,13,276.5,9.9z"/>
		<path class="st22" d="M204.6,89c-1.6,1.6,0.8,5.5-3.2,5.9c0.7-4,1.5-7.9,2.2-11.9c1.8-4,6-2.5,8.9-4c0.5-0.1,0.9,0,1.1,0.5
			c-0.5,3.1-2.8,4.7-5.5,5.6C206,85.7,205.1,87.1,204.6,89z"/>
		<path class="st23" d="M301.5,2.2c-0.4-0.1-0.9-0.2-1.3-0.3c1.1-0.3,2.2-0.6,3.3-0.9c2,0.1,4,0.2,6.1,0.2c3.2,1.4,5.7,4,8.6,6
			c1,0.7,2.3,1.6,1.2,3.2c-3.2,0.4-4.9-2.4-7.4-3.5C308.4,5.4,305.1,3.5,301.5,2.2z"/>
		<path class="st24" d="M228.6,44c-3.2,3.6-7.2,5.4-12,4.9c0.7-1.6,1.5-3.1,2.9-4.1c0.6,1,1.5,1.3,2.4,0.4
			C223.8,43.1,226.2,44,228.6,44z"/>
		<path class="st21" d="M238.6,29.1c-0.4,0.7-0.8,1.6-1.7,1.3c-1.7-0.6-1.2-2.3-1.5-3.6c1-0.7,2-1.4,3-2.1
			C238,26.1,237.4,27.6,238.6,29.1z"/>
		<path class="st25" d="M410.7,82.9c1.5,2.1,2.4,4.5,2.7,7.1c-3.4,0.7-4.8-2.2-7-3.7c-7.3-5.1-11.9-12.3-15-20.4
			c-0.9-2.3-2.1-4.5-3.5-6.5c-1.9-3-1.2-7.1-4-9.8c-0.7-1-1.2-2.1-1.6-3.4c-1.4-8.1-4.5-15.5-9.2-22.3c-1.5-2.1-3.1-3.8-5.5-4.8
			c-2.3-1-4.5-2.1-6.4-3.7c-4.7-3.1-9.8-4.3-15.5-4c-4.4,0.3-8.9,0.4-13.4-0.1c-2.4-0.2-5.8-0.2-4.7-4.4c8.3,1.8,16.8-0.1,25.2,1.1
			c7.5,2.1,14.8,4.8,20.8,10.1c3.6,4.5,8,8.5,10.5,13.8c1,2.1,2.4,4.1,2.6,6.4c0.2,2.9,1.4,5,4.4,6c2.6,0.9,2.8,4,4.7,5.6
			c0.6,1.4,1.2,2.8,1.8,4.1c0.8,0.8,0.8,2.1,0.5,2.8c-3.3,7.3,1.7,11.9,5.5,16.7C405.9,76.7,408.8,79.4,410.7,82.9z"/>
		<path class="st26" d="M388.4,59c2.5,1.5,3.1,4.2,4,6.6c3.9,10.8,11.4,18.4,20.9,24.3c3.3,10.4,2.7,21.3,4,32c0.1,4,0.1,8,0.2,12
			c-0.3,0.8-0.6,1.5-0.9,2.3c-1.8-1.4-1.4-3.5-1.6-5.4c0.5-4.5-0.8-8.9-3-12.2c-3.8-5.8-4.8-12.2-6.7-18.4c0-4.1-1.3-7.8-3.7-11.2
			c-4.3-6.1-7.5-12.9-11.5-19.3C388.1,66.7,386.2,63,388.4,59z"/>
		<path class="st27" d="M410.7,82.9c-4.8-5.6-11.2-9.9-13.9-17.2c-1.1-3-3.4-5.9,0.4-8.7c0.5-0.4,0.2-1.9,0.3-2.9
			C402.1,63.6,406.7,73.1,410.7,82.9z"/>
		<path class="st28" d="M327.5,7.1c0.7,3,3.2,3,5.5,3c5.8,0.1,11.5,0.1,17.3,0c4.9-0.1,8.6,2.2,12.2,5c-0.9,0.9-2.2,1.4-3.2,0.9
			c-9.3-4.5-19.1-2.7-28.8-2.6c-6.5-2.1-12.2-5.2-14.9-11.9L315.5,1c1.7,0.4,3.5,0,5.1,1C322.7,3.8,326.5,3.5,327.5,7.1z"/>
		<path class="st29" d="M395.6,50c-2.6-2.1-4.3-5.3-8.1-5.7c-0.6-0.1-1.4-1.5-1.5-2.4c-1.3-8.8-6.1-15.7-12-22
			c-0.4-0.4-0.4-1.2-0.5-1.9C383.9,26.6,389.7,38.3,395.6,50z"/>
		<path class="st30" d="M327.5,7.1c-2.1-2.1-5.5-2.2-7-5.1c1,0.1,2,0.2,3,0.3c6.7,3.2,13.9,2.9,21,3.8c2.8,0.1,5.6,0.7,8.2,1.9
			c-4.6-0.2-9.1,1.4-13.8,1.2C335,8.9,331,9.4,327.5,7.1z"/>
		<path class="st31" d="M344.5,6.1c-7.3,0.5-14.7,1.6-21-3.8C330.6,3.2,337.7,3.8,344.5,6.1z"/>
		<path class="st32" d="M229.6,127c0.8,0,1.6-0.2,2-1c0.8-2,2-3.5,4.4-3c2.5,0.6,2.8,2.7,2.8,4.7c0,3.4,0.6,6.4,3.3,9
			c2.1,1.9,1.2,4.1-0.4,6.2c-4.6,5.8-3.9,7.4,3.4,8.7c4.2,0.7,8.5,1.5,12.8,0.6c2.7-0.5,4.5,0.6,4.9,3.5c0.2,1.1,0.1,2.3,0.7,3.4
			c2.8,5.2,2.6,5.7-2.8,8.9c-2.7,0.7-5.5,0.1-8.2,0.9c-1.6,0.4-2.5,1.5-3.6,2.6c-1,1-2.5,1.9-3.6,1c-3.9-3.3-5.9-0.5-8.1,2.2
			c-4.1,3.5-4.1,3.8,0.9,5.6c7,2.6,7.6,5,2,10.2c-1.2,1.2-2,6.3-5.5,2c-2.4-2.1-4.3-4.7-7-6.4c-12.4-9.2-18.6-22.6-25-36
			c1.4-2.1-1.3-3.6-0.9-5.6c0.2-1.3,0.8-3.5,2.1-2c2.7,3,6.7,1.4,9.6,3.5c2.1,1.5,4.1,0.4,5.1-2.1c1.4-3.7,3.9-4.2,7.1-2.1
			c1,0.6,2,1.2,3.2,1.4c1.9,0.2,4-0.1,4.9-1.8c1-1.9-1-2.9-2.1-4c-0.8-0.9-1.9-1.4-2.7-2.1C225.7,132.1,225.9,129.9,229.6,127z"/>
		<path class="st33" d="M229.6,127c-2.6,3.3-3.1,6,1.6,8.2c1.8,0.8,3,2.9,4.5,4.5c1,1.1,0.8,2.3-0.5,2.9c-3.4,1.5-6.9,3.5-10.5,0.1
			c-2.7-2.5-4.2-1.5-5.2,1.7c-1.1,3.7-4.1,4.7-7.5,2.4c-1.4-1-2.3-1.9-4.3-0.7c-3,1.7-2.6-2.6-4.7-3.1c-2.1,2.1,2,4.8-0.5,7
			c-1.6-5.7-4.8-10.9-5-17c2.8-1.6,5-3.3,5.6-6.9c0.8-5.2,5.2-2.3,7.9-2.6c3.9-0.5,8,1.2,11.5-1.8c1.3-1.1,2.3-0.5,3.3,0.8
			C227.1,124,227.6,126.1,229.6,127z"/>
		<path class="st34" d="M234.6,191.9c1.7,0.9,1.6,0.8,2.4-0.6c1.2-2,3.8-2.2,5-4.7c1.4-2.9,0.6-3.8-1.9-4.6
			c-0.8-0.2-1.8-0.1-2.4-0.6c-1.9-1.4-5.7-0.7-5.8-3.8c-0.1-2.4,3.3-2.1,4.7-3.7c3.2-2,5.3,0,7.3,2c3,2.9,6.3,3.9,10.2,1.9
			c0.4-0.2,0.9-0.3,1.3-0.2c0.8,0.3,1.8,0.8,1.8,1.5c0.2,5.3,3.9,7.5,8,9.5c0.9,0.4,1.6,1.1,1.5,2.3c-2.1,4-6.3,1.6-10,3
			c2.1,1.9,4.6,2.9,4.1,5.9c-0.2,1.3,1.2,1.3,2,1.8c3.2,1.9,4.9,4.7,4.8,8.5c-2.1,2.8-4.2,3-6.4,0.1c1.3-2.5-0.6-3.7-2.3-3.6
			c-8.2,0.6-13.6-4.5-19.4-8.8c-2.1-1.3-3.7-2.9-5-5c-0.3-0.2-0.4-0.5-0.3-0.7C234.4,192,234.5,191.9,234.6,191.9z"/>
		<path class="st35" d="M283.5,219.8c-5.3-0.8-10.3-2.3-15.1-4.8c-2.1-4.3-1.6-5.1,3-5c2,0.1,3.9,0,5.7-0.9
			c4.3-3.4,8.8-6.5,13.2-9.8c1.3-0.5,2.6-0.9,3.9-1.4c1.3-0.6,3.2-0.7,3.4-2.5c0.2-2-1.9-1.9-3.1-2.6c-1.2-0.7-2.1-1.5-2.4-2.9
			c0-0.5,0.2-0.9,0.6-1.3c4.5,0.4,9.1-0.4,13.5,1.5c5.7,2.6,6.3,5.5,1.3,9.1c-2.9,2.1-5.6,3.7-4.9,8.1c0.3,2.2-2,3.6-4.1,4.4
			c-1,0.3-1.9,0.4-2.9,0.3c-6.4-0.8-12.4,1.7-18.6,2.4c-0.8-0.1-0.1,1.1-0.2,0.5C280.5,214.5,282.8,216.1,283.5,219.8z"/>
		<path class="st36" d="M277.5,209.9c-1.4,1.3-3.1,2-4.8,1.5c-3.6-1.2-5.1-0.3-4.3,3.6c-5-1.2-9.4-3.8-13.9-6.1c2.6-1.8,5-1.9,7,1
			c2,3,4,0.7,6,0c3.6-1.5,4.3-3.7,2.5-7.3c-1.6-3.2-0.4-7.2-1.8-10.6c-0.5-2.4-0.7-4.7,0.8-6.9c4.6-0.2,5.9,1,5.1,5.3
			c-0.2,1-0.2,1.9,0,2.9c0.1,0.7-0.2,1.9,0.8,2c1.1,0.2,1.5-1.1,2.1-1.8c4-3.7,8.6-5.5,14.1-4.2c1.8,4.4-3.5,14.7-7.9,15.5
			c-1.6,0.3-2.9-0.2-4.4-1.2C281.4,206.5,279.9,208.3,277.5,209.9z"/>
		<path class="st37" d="M283.5,219.8c-2-3-5.3-4.1-8.4-5.9c6.8-1.2,13.2-4.4,20.3-3c-0.4,5-5.1,6.1-8,8.9c-0.7,0.1-1.4,0.1-2.1,0.2
			C284.8,219.9,284.2,219.9,283.5,219.8z"/>
		<path class="st38" d="M261.5,209.9c-2.2-1.4-4.6-1-7-1c-5.9-2.4-11.2-5.7-15-11c0.1-1.4,0.7-1.7,1.8-0.7c4.7,4.3,9.2,8.9,16.5,7.9
			c1.5-0.2,3.3,1.2,5,2c0.7,0.3,1.6,0.9,1.2,1.9C263.7,210.2,262.5,209.8,261.5,209.9z"/>
		<path class="st39" d="M234.6,191.9c0,0.4,0,0.7,0,1.1c-2.7-1.9-5.1-4.2-7-7C231,186.7,232.6,189.6,234.6,191.9z"/>
		<path class="st40" d="M373.5,200.8c-2.6,1.4-5.2,2.8-7.8,4.2c-2.4,0.4-3.3-1.1-3.8-3c-0.4-1.7,0.5-2.8,1.9-3.7
			c1.1-0.7,3-0.9,1.9-3.2c-1.7-3.2,0.3-4,3-4.4c5.7-0.9,6.2-2.1,3.8-7.4c-1.9-4-6.3-5.4-8.5-9c-1.6-4.7-4.6-8.4-8.1-11.7
			c-2.1-2-4.2-4.1-1.4-7.2c1-1.1,0.4-2.1-0.4-3.1c-2.1-2.4-2.7-5.6-5-7.9c-1.9-1.8-1.7-4.2-0.5-6.5c1.3-2.4,1.1-4.4-1-6.2
			c-0.9-0.8-1.7-1.7-1.8-2.9c-0.5-4.3-2.5-7.4-6.4-9.4c-1.3-0.7-2.7-2.2-2-3.6c1.9-4-1.2-4.4-3.5-5.4c-2-0.9-4-1.5-6.1-2
			c-6.8-1.7-10.8-7.7-9.2-14.5c1.1-4.5,0.5-8.5-2-12.3c-3.4-5.3-6.4-10.6-8.8-16.6c-1.9-4.7-7.7-5.7-11.9-8.3
			c-1.2-0.8-3.6-0.3-3.1-2.9c7.4-2.4,14.2,0.3,17.9,7.3c2.2,4.2,3.2,9.1,6.4,12.8c0.5,0.6,0.9,1.2,1.3,1.8c1.4,3.6,3.9,6.5,6.1,9.6
			c0.8,2.5,0.6,5-0.5,7.3c-1.4,3-0.4,5.1,2.3,5.9c6.8,1.9,10.6,7.6,15.5,11.8c3.7,3.2,6.9,7.5,8.4,12.2c1.4,4.6,6.2,8.3,4,13.9
			c4.2,2.5,1.9,8.8,6.5,11.3c2.5,1.4,2.5,4,1.3,6.2c-3.1,5.5-0.2,8.8,3.3,12.6c4.2,4.5,9.6,8.1,11.5,14.4c1.6,3,1,6.5,1.9,9.6
			c0,0.7-0.1,1.5-0.4,2.2C376,195,374.8,198,373.5,200.8z"/>
		<path class="st41" d="M392.4,186.9c-1.2,2.5-2.9,4.5-5.8,5.1c-2.3,0.4-2.8-1.3-3.2-2.9c-0.4-1.6-0.6-3.4,0.1-4.9
			c3.5-8.2,4.4-17.3,8.7-25.3c2.8-7.1,1.5-14.8,2.7-22.1c0.2-1.4-0.9-2.4-1.8-3.4c-5-4.8-8.5-10.3-10-17.4c-1.2-5.6-6.2-8.9-10-12.7
			c-9.6-9.6-20-18.4-27.3-30.2c-3.5-5.7-9.4-9.7-13.6-15.2c-1.7-2.2-3.6-4.4-5.4-6.5c-7-8.5-15.2-15.1-26.2-17.4
			c-2.8-0.6-5.6-1.2-8.1-2.4c-4.5-2.2-8.6-2.5-12.8,1.2c-2.5,2.1-5.9,2-8.9,0.5c-0.4-0.7-0.3-1.5,0.4-1.7c4.5-1.1,8-3.8,11.7-6.4
			c2.2-1.5,4.5-1,6.7,0c4.5,1.9,9.1,3.1,13.9,4c2.6,0.5,5.2,1.2,7.4,2.8c8.5,5.8,16.7,12,22.9,20.4c4.8,6.4,11.6,11,16.2,17.6
			c7.9,11.2,17,21.2,27.2,30.3c5.7,5.1,10,11.1,12.1,18.5c1.1,4,3.3,7.1,6.5,9.7c3.2,2.7,5.8,6.1,4.7,10.8c-0.1,0.5-0.2,1-0.3,1.5
			c-2,11.5-3.8,23.1-7.8,34.1C390.7,179.1,390.6,183,392.4,186.9z"/>
		<path class="st42" d="M393.4,159c-4.3,7.9-5,17-8.7,25.1c-1,2.2-1.7,6,1.8,7.9c-0.6,0.7-1.2,1.4-1.8,2.1c-4.3-1.7-5.3-4.9-3.7-9.8
			c2.1-6.6,5.5-12.8,6.3-19.8c0.2-1,0.6-2,1.2-2.9c1.5-2,1.4-4.1,0.9-6.6c-1-5-1.8-10-1.3-15.1c0.4-3.7-0.2-6.8-3.3-9.3
			c-2.6-2.2-4-5.1-4.8-8.5c-1-4.1-3.5-7.8-6.5-10.4c-9.6-8.6-17.2-19.4-27.9-26.8c-0.4-0.3-0.7-0.7-1-1.1c-0.8-1.2-1.6-2.4-2.1-3.7
			c-1.1-5.6-5-9.2-9.3-12.5c-3.1-3.3-5.6-7-8.3-10.5c-7.1-9.3-15.4-16.5-27.8-19.3c-8.8-2-17.3-1.3-25.9-1.5c-2.3,0-4.7,0.5-6.7-1
			c0-2.9,2.3-2.6,3.8-2.3c5.4,1.2,10.4,0.7,15.2-2.2c2.1-1.3,4.6-0.8,6.7,0.2c3.7,1.7,7.6,2.5,11.4,3.4c9.3,2.3,16.8,7.3,22.7,14.9
			c4,5.1,8.7,9.6,12.6,14.8c12.8,17,27.3,32.4,42.9,46.7c2.6,2.3,3.7,5.6,4.2,8.9c0.6,3.4,1.9,6.2,4.3,8.7c3.6,3.7,5.5,7.8,4.5,13.5
			c-0.7,4.3,0.6,8.9,0.6,13.3C393.8,156.4,394.3,157.7,393.4,159z"/>
		<path class="st43" d="M401.4,129c1.4,3.7,1.6,7.3,0.3,11.1c-0.6,1.8-0.7,4.1-0.2,5.9c2.2,8.2-1.1,15.6-3.2,23.1
			c-1.2,4.4-0.1,5.6,4.5,4.9c-0.9,3.3-3.7,5.2-5.5,7.8c-5.1-0.2-6.4-1.7-5.3-6.3c0.1-0.5,0.3-1,0.5-1.4c4.5-11,5.3-22.7,7-34.2l0,0
			c1.9-4.6,0.2-8.4-3-11.6c-4.3-4.5-7.4-9.6-9.4-15.6c-1.6-4.9-5.2-8.9-9-12.4c-9.4-8.5-17.9-17.8-25.3-28.1
			c-4.5-6.2-9.9-11.6-15.3-17.1c-7.9-8.1-15.6-16.3-25.3-22.3c-8.2-5.1-17.7-6.5-26.8-8.7c-1-0.2-2-0.1-2.8-0.8
			c0-3.7,2.5-3.9,5.1-3.5c11.7,2,22.7,5.3,32.2,13.3C336,46.6,350.8,61.2,363.5,78c4.6,6.1,10,11.5,15.4,16.9
			c5.8,5.7,11.4,12.1,14,20.3c0.6,2,1.8,3.5,3.1,5.1C398.1,122.9,400.1,125.7,401.4,129z"/>
		<path class="st44" d="M364.5,174c3.5,3.3,8.2,5.2,9.9,10.5c1.8,5.7,1.2,7.2-4.7,7.4c-2.9,0.1-5.6-0.1-2.1,3.7
			c1.5,1.6,0.3,2.5-1.3,3.2c-4.8,2.1-4.9,2.6-0.5,6.2c-8.9,4.7-18.3,8-28.2,9.9c-0.7-2.6,1-3.5,2.9-4.2c2.3-0.8,4.7-1.3,7.1-1.9
			c1.9-0.3,3.8-0.9,5.6-1.7c1.9-0.8,3.5-1.7,2.9-4.4c-0.6-2.5,1.2-3.9,2.9-5.2c0.4-0.2,0.8-0.4,1.2-0.6c3.4-0.4,2.9-2.3,1.6-4.4
			c-0.4-1.5-0.5-3.4,1-3.9c4.1-1.4,2.4-3.1,1.6-6.1c-1.2-4.7-4.1-8.3-6-12.5c-0.6-1.4-1.2-2.7-0.2-4.2
			C362.7,166.8,362.4,171.2,364.5,174z"/>
		<path class="st45" d="M298.6,220.1c-1-0.1-2-0.1-3-0.2c-0.2-1.9,1.5-2,2.6-2.3c1.8-0.5,3-0.8,2.9-3.4c-0.1-2.6,4.7-4.5,8.5-3.8
			c1.9,0.4,3.8,1.1,5.7,1.4c1.3,0.3,2.4,0.9,3.7,1.4c-0.4-5.5,0.7-6.4,8.8-6.6c1.2,0,2.4,0,3.6,0c3.2,0.4,5.7-2.6,9-2
			c-0.7,4.7-3,8.4-6.8,11.2c-5.5,1.9-11.4,2.1-17.1,2.8C310.5,219.5,304.5,219.6,298.6,220.1z"/>
		<path class="st46" d="M333.5,215.8c2.6-3.5,3.6-7.9,7-10.9c0.5-2.2,2.3-2.8,4.3-3.2c0.4-0.1,0.9-0.2,1.3-0.2
			c1.1-0.2,2.2-0.5,3.2-0.8c3.3-1.6,4.9-5.1,7.8-7.2c4,0.8,3.5,2.6,1,4.8c-3.9,3.3-5.4,8.7-9.7,11.6c-3.6,1.8-8.8,0.1-11,5
			C336.3,215.9,334.9,216,333.5,215.8z"/>
		<path class="st47" d="M399.4,140c-0.1,11.6-1,23.2-5.9,33.9c-1.9,4.3-1,6.9,3.7,8c-0.9,2.4-2.7,3.8-4.8,5c-3.8-2-3.6-5.4-2.5-8.6
			c2.1-6.4,3.8-12.9,5.8-19.3c1.6-5.4,1.4-11.3,2.8-16.9C398.6,141.4,399.1,140.7,399.4,140z"/>
		<path class="st48" d="M411.4,154.9c0.5-3.5-2.3-5.9-3.2-9.1c-2-7.9-0.1-16.3-3.8-23.8c-0.7-1.2-0.9-2.5-0.3-3.9
			c2.4-0.8,2.5,1.3,3.2,2.6c0.6,3.6,1.5,7,3.3,10.2c2.5,6.9,4.6,13.8,1.8,21.1C412.5,153.1,412.3,154.2,411.4,154.9z"/>
		<path class="st49" d="M388.4,164c0.4,7.2-3.6,13.3-5.8,19.7c-1.6,4.6-1.2,7.5,2.1,10.5c-1.4,1-2.8,1.9-4.2,2.9
			c-2.9,0.1-3.6-1.6-3.1-4.1c0-0.6,0-1.3,0.1-1.9c0.4-0.6,0.6-1.3,1-1.9c1.6-7.9,2.3-16.2,7.1-23.2C386.3,165,386.8,163.6,388.4,164
			z"/>
		<path class="st50" d="M416.3,130c0.1,2.1,0.2,4.2,0.3,6.3c-0.2,1.7,0.1,3.5-1.1,4.9c-2.6-7.2-6.1-14.1-8.6-21.3
			c-1.1-4.8-2.7-9.5-3.3-14.3c0.1-0.5,0.3-1,0.6-1.5c1.2-0.6,2,0,2.6,0.9C408.2,114,413.9,121.4,416.3,130z"/>
		<path class="st51" d="M407.4,120c3.5,6.8,7.9,13.2,8.1,21.2c-0.5,3.8-1.3,7.4-3.1,10.9c1.4-7.4-0.8-14.2-3-21
			c-0.5-3.3-2.5-6.2-2.5-9.6C406.9,120.8,407.1,120.4,407.4,120z"/>
		<path class="st52" d="M377.4,192.9c0.8,1.5,1.3,3.3,3.1,4.1c-2.1,1.8-4.3,3.4-7.1,3.8C372.9,197.3,374.3,194.6,377.4,192.9z"/>
		<path class="st33" d="M260.5,167c2.1-2,7.1-3.4,1.6-7.2c-0.1-0.1-0.3-0.3-0.3-0.4c1.1-8.1-4.5-5.4-8.7-5.5
			c-3.6-0.1-7.2-0.9-10.8-1.5c-2.2-0.4-5.1-0.5-5.6-3.3c-0.5-2.6,1-5.2,2.9-6.5c4-2.7,3-4.6-0.3-6.6c-2.9-1.7-1.7-4.4-2-6.7
			c-0.3-1.9,0.9-4.2-1.4-5.4c-2.3-1.2-2.9,1.8-4.6,2.1c-1.2-2.6,0.6-3.5,2.6-3.9c1.5-0.3,2.8-0.6,3.4-2.1c-0.2-0.9,0.3-1.3,1.1-1.5
			c0.5,0,0.9,0.2,1.3,0.5c0.1,0.1,0.3,0.3,0.3,0.4c-0.4,7.3,4.8,10,10.3,12.5c2.8,1.3,5.4,2.8,4.5,6.6c-0.2,0.8,0.2,2,0.9,2.1
			c5.8,1.4,5.9,7.5,9.4,11c3,2.9,2,8,2.7,12c0.5,2.7-3,3.5-5.2,4.7c-0.5,0.2-0.9,0.2-1.4,0.2C260.8,168.3,260.3,167.9,260.5,167z"/>
		<path class="st53" d="M238.6,119c-0.3,0.3-0.7,0.7-1,1c-3.6,0.1-7.1-0.2-8.2-4.6c-0.2-0.9-0.9-1.9-1.7-2.4
			c-2.1-1.3-3.2-2.5-1.6-5.1c1.5-2.4,3.2-2.4,5.5-1.7c0.5,0.1,1,0.2,1.7,0.3c0.5-2.6-1.3-4.3-3-4.3c-4.6-0.2-9.2-2.4-13.7,0
			c0-0.7,0-1.3,0-2c2.8-4.1,7.9-5.6,13.1-3.7c5,1.9,10.8,1.5,15.1,5.5c1.1,1,2.5,0.2,3.8-0.3c1.8-0.6,3.6-0.6,5.3,0.4
			c2.3,1.5,5.8,2.2,5.3,5.8c-0.5,3.8-4.1,3.8-7,4.3c-1.3,0.2-2.6,0.1-4,0.1c-0.9,0-1.9,0-2.8,0.2C243.3,114.9,240.5,116.5,238.6,119
			z"/>
		<path class="st54" d="M331.5,207.9c-1.3,0-2.7,0-4,0c-7.4-1.7-7.9-1.5-12,5c-3.3,0.9-5.9-2.5-9.6-1.2c-4.8,1.7-5.2,1.9-2,5.6
			c-2.8,1-5.9,0.7-8.4,2.5c-2.7,0-5.4,0-8,0c1.5-4,6.3-5.1,8-8.9c1,0,2,0,3,0c1.5-0.6,3.1-1.1,4.2-2.5c3.5-4.5,7.8-6.6,14.3-4.1
			c-0.8-2.2-3.6-2.9-2.2-4.8c1.3-1.9,3.2-1.2,5-1.1c4.3,0.2,8.5,1.7,12.8,2.1c1.6,0.2,3.3-0.8,4.9,0.2c0.7,2-0.7,2.9-2.1,3
			C332.7,204.1,332.4,206.2,331.5,207.9z"/>
		<path class="st55" d="M315.6,1.4c3.9,4.5,8.3,8.3,13.9,10.6c6.8,2.3,13.9-0.6,20.6,1.1c10,2.5,20.7,4.1,25.5,15.4
			c1,2.3,2,4.6,1.3,7.2c-0.3,0.5-0.8,0.7-1.4,0.6c-1.9-0.8-2.4-2.5-3-4.3c-0.8-2.3-1.6-5.6-3.6-6.2c-8.2-2.4-14.6-10.1-24.4-7.7
			c-9.3,2.3-17-2.2-24.5-6.8c-0.5-0.3-0.5-0.8-0.4-1.3c-2.8-3.5-7.7-4.7-10-8.9C311.5,1.3,313.6,1.4,315.6,1.4z"/>
		<path class="st56" d="M282.5,23.1c11.6,1.2,22.6,3.5,32.5,10.5c16.8,12,30,27.3,42.6,43.4c6.3,8,13.2,15.7,21.2,22.4
			c4.2,3.5,8,8.1,9.6,13.6c1.7,5.6,4.6,10.2,8.7,14.2c3.7,3.7,5.5,7.8,2.3,12.8c0.8-5.1-1.6-8.7-5.6-11.3c-4.7-3.1-5.5-8.2-7.1-12.7
			c-1.7-4.7-4.3-8.5-7.8-11.9c-8.5-8.3-17.9-16-24.5-25.8c-8.6-12.8-20-23-30.2-34.2c-5.9-6.5-13.4-12.8-23.4-14
			c-3.9-0.5-7.8-1.6-11.4-3.4c-2.9-1.5-5.6-1.6-8.1,1.1c-2.9,3.1-6.9,4.2-10.9,5.4c-8.4,1.1-16.8,2.9-25.4,1.5
			c-1.6-0.3-3.3-0.1-4.6-1.5c0-0.3,0-0.7,0-1c1.7-0.3,3.3-0.7,5-1c6.2-0.9,12.4-0.6,18.6-0.9c4.9-0.2,9.4-0.8,13.2-4.3
			C278.8,24.6,280.4,23.3,282.5,23.1z"/>
		<path class="st57" d="M282.5,23.1c-4.6,4.6-9.2,8.7-16.6,8.1c-6.8-0.5-13.6-0.1-20.4-0.1c4.2-2.2,8.7-0.4,13-1
			c0.4-0.3,0.9-0.6,1.4-0.5c7.9,1.5,13.7-2.6,19-7.5c4.3-4,7.8-6,13.8-2.6c3.6,2.1,8.5,2.2,12.8,3.4c1.8,0.5,3.4,1.3,5,2.2
			c14.3,9.5,26.4,21.5,38.7,33.3c6.7,6.4,11.7,14.3,17.5,21.5c7.5,9.4,17.2,17.1,23.3,27.5c4.1,7,10.3,13,11.4,21.6
			c-7.1-6.1-9.6-15.2-14.7-22.6c-3.4-4.9-6.9-9.5-11.6-13.5c-7.3-6.2-13.2-14-18.8-21.8c-4.5-6.3-9.6-12-15.3-16.9
			c-7.2-6.3-13.3-13.7-21-19.6c-8.7-6.7-17.8-11.2-28.6-12.6C288.3,21.6,285,18.7,282.5,23.1z"/>
		<path class="st58" d="M404.4,118c0,1.3,0,2.7,0,4c-6-18.5-22-30-32.1-45.7c-0.4-0.7-0.6-1.5-0.9-2.3c0-0.7,0-1.3,0-2
			c4.4,5.6,10.4,9.6,14,16.2c3.6,6.7,8.8,12.7,14.4,18c2.9,2.7,1.1,7,4.6,8.7C405.3,116,405.3,117,404.4,118z"/>
		<path class="st21" d="M250.1,25.9c5.7-3.6,11.3-7.5,18.6-7.8c1.2,0,2.5-0.1,3,1.2c0.5,1.2-0.4,2.2-1.1,3.1
			c-3.3,4.6-8.5,3.7-13.1,4.6c-2.2,0.4-4.6,0.1-6.9,0.1C250.5,26.7,250.3,26.3,250.1,25.9z"/>
		<path class="st21" d="M310.5,25.1c-7.4-2.3-15.1-3.2-22.3-6.2c-2-0.8-3.3-0.7-4.9,0.8c-1.7,1.6-3.8,2.7-5.4,4.3
			c-5.5,5.2-11.9,7.4-19.4,6.1c0.4-0.3,0.8-0.8,1.2-0.8c9.7,1,16.2-4.8,22.1-11.2c2.9-3,5.3-3.4,8.5-1.1c4.6,3.3,10.3,3.3,15.4,4.9
			C307.9,22.5,309.5,23.1,310.5,25.1z"/>
		<path class="st21" d="M242.5,29.1c0-0.7,0-1.3,0-2c1.2-0.9,2.5-1.8,4.4-3.2C246.8,27.7,244.2,28,242.5,29.1z"/>
		<path class="st59" d="M213.6,79c-0.3,0-0.7,0-1,0c1.1-7.2,7-3.8,10.7-4.4c2.2-0.3,3.6-0.3,4.7-2.3c1.1-1.9,3-3,4.9-4.2
			c6.1-4,8.4-3,10,4.1c1.7,7.6,7.2,12.1,14,14.7c2.2,0.8,6.5,1.9,5-3.9c-0.6-2.4,1-3.4,3.3-2.2c4.4,2.3,9.3,3.4,14,5.2
			c2.3,0.9,4.2,2.3,4.3,5c0,2.6-1.7,3.8-4.2,4c-0.9,0.1-1.8,0.3-2,1.2c-0.2,1.2,0.8,1.7,1.6,2.3c1.7,1.4,3.9,1.9,5.8,2.8
			c6.2,2.9,9.5,8.8,14.5,12.9c1.4,1.2,0.6,1.9-0.2,2.8c-3.8,4.9-3.8,4.9,1.6,7.9c1.5,2.9,1.9,6.4,4,9c1,0.7,2,1.3,3,2
			c3.2,1.2,5.6,3.1,5.6,6.9c0,4.1,4.2,5.6,5.7,8.8c-0.9,1.6-2.5,1.3-3.9,1.2c-1.9-0.2-3.5,0.2-4.6,2c-1.5,1.7-3.1,3.3-5.7,2.5
			c-1.9-2.2-0.2-4,0.8-5.8c1.2-2,2.6-3.9,3-6.2c0.2-1.3,0.7-2.6-1.1-3.3c-5.3-2-7.3-7.3-9.9-11.6c-1.4-2.5-2.6-5.1-4.5-7.4
			c-1.4-4.1-6.4-4.9-8.4-8.5c-0.4-0.8-1.8,0.2-2.6,0.8c-2.2,1.7-4.1,0.8-5.7-0.9c-1.8-1.8-1.3-3.6,0.3-5.3c2.9-3,2.5-5.9,0-8.9
			c-1.7-2-2.5-4.3-1.7-6.9c0.5-1.6,1.3-3.2-0.6-4.5c-2-1.3-4.1-2.5-6.5-1.1c-6.4,3.7-13.5,2.2-20.3,2.5c-4.3,0.2-6.8-2-7.8-6.2
			c-0.7-2.7,0.3-5.3,0.7-7.9c0.3-2.4-0.6-4.5-2.6-5.5c-2.1-1-5-0.1-5.7,1.7c-2.2,5.7-6.8,5.3-11.4,5.4c-2.2,0-4.3,0-6.3,1
			C214,79,213.8,79,213.6,79z"/>
		<path class="st60" d="M213.6,72c1.3-1.6,3.1-2.1,5-2c1.2,0,2.4-0.5,2.7-1.7c0.8-3.4,3.4-4.9,6.3-6.3c3.2-1.8,6-4.2,9.3-5.8
			c2.2-0.7,4.4-0.4,6.1,1.1c3.3,3,7,3.5,11.1,2.2c3.9-1.2,6.6-0.1,8.8,3.5c2,3.3,4.1,6.1,9.4,4.3c4-1.4,8.8,1,12.8,2.9
			c2.5,1.2,2.9,3.7,1.3,5.9c-2.3,3.1-1.6,5.3,1.5,7.2c0.1,0.5,0.1,1-0.1,1.4c-2,1.1-4.1,0.5-6.2,0.2c-5.2-2.1-10.5-3.9-15.4-6.4
			c-2.4-1.2-3.9-1.9-6,0.3c-1.5,1.5-3.3,2.7-5.8,1.5c-2.6-1.3-1.4-2.9-0.4-4.5c0.1-0.2,0.1-0.7-0.1-0.9c-4.5-4.4-7.6-10.3-13.6-13.2
			c-2.9-1.4-5.5-0.9-7.5,1.7C227.8,69.7,221.1,71.9,213.6,72z"/>
		<path class="st61" d="M281.5,85c2-0.7,4-0.7,6,0c0.2,0,0.5,0,0.7,0c4,1,6.7,3.4,7.6,7.6c0.6,2.8,2.7,4.6,4.9,6
			c4.7,3,6.5,6.8,3.9,12.1c-0.5,1-0.3,1.9,0.6,2.6c2.5,1.7,4.4,3.9,6.4,6c1.6,1.6,1.5,3.2-0.6,4.4c-1.2,0.7-3.2,1.1-1.6,3.1
			c2.1,2.5,0.9,4.6-0.5,6.7c-0.2,0.1-0.4,0.3-0.6,0.4c-0.6-4.9-3.7-8.1-7.5-10.7c-1.9-1.3-1.9-3,0-3.8c3.2-1.3,2.8-2.8,0.8-4.7
			c-1.6-1.5-2.9-2.9-0.8-5c0.6-0.6,0.7-2.1,0.2-2.3c-4.4-1.3-4.6-6.9-9.3-8.1c-5.2-1.3-6.2-3.6-4.2-8.4c1.1-2.6,0.1-3.6-2-4.6
			C284.3,85.9,282.5,86.5,281.5,85z"/>
		<path class="st61" d="M349.5,201.9c-1,0.3-2,0.7-3,1c-0.1-3.4-0.7-6.6-4-8.7c-2.1-1.3-1.8-3.3-0.4-5.2c1.7-2.3,1.7-4.2-0.3-6.6
			c-2.3-2.8-1.6-6.9-4-10c-1.6-2-2.9-3.9-5.3-4.9c-3.3-1.4-5.8-3.4-4.2-7.6c0.8-2.2-0.9-2.5-2.3-2.9c-1.3-0.6-2.9-1.1-2.5-3.1
			c-1.2-3.4,2.6-5.7,2-9c0.2-0.1,0.4-0.3,0.6-0.4c2.6,0.1,2.3,1.9,2.2,3.6c-0.1,0.5-0.2,0.9-0.4,1.3c-0.7,1.1-0.6,2,0.7,2.7
			c1.8,1,3.6,2,5.2,3.4c0.6,0.7,1,1.6,1.1,2.5c0,0.2,0,0.3-0.1,0.5c-2.3,4.7-2.3,4.7,2.8,6.7c0.6,0.2,1.2,0.5,1.8,0.8
			c0.4,0.2,0.8,0.5,1.2,0.9c2.1,1.9,2.1,4.8,3.3,7.1c0.7,1.3,0.8,3.3,2.2,3.7c5.3,1.7,4.3,4.7,2.3,8.5c-1.2,2.3,0.3,4.4,1.8,6.3
			C353.5,196.8,353.3,198.3,349.5,201.9z"/>
		<path class="st62" d="M323.5,154c0.6,1.3,1.6,2,3,2c1.9,1.3,3.4,2.4,1.6,5.1c-1.9,2.8,1,4.3,2.8,5.3c4.5,2.4,7.2,6.3,9.2,10.7
			c0.8,1.8,2.3,4.7-1.8,5.2c-2.5-0.8-4.7-1.7-4.6-5c0.1-2.2-1.6-2.7-3.5-2.5c-3.8,0.3-6.5-0.5-5-5.3c0.2-0.7,0.4-1.6-0.3-1.8
			c-4-0.9-2.8-6.9-7.2-7.3c-0.5-0.1-0.4,0.2-0.3-0.3c0.5-6.3-5-4.5-8-6c2.1-4.9,6-1.3,9-2c1.1,0,2.1,0.3,3,1
			C321.9,153.8,322.7,153.9,323.5,154z"/>
		<path class="st63" d="M321.5,153c-1.1,0-2.3,0.2-3-1c-3.9-2.3-6.9-5.3-6.5-10.2c0.3-3.5-3.4-3.5-4.4-5.7c3.1,0.8,6.9,0.7,6.1,5.7
			c-0.1,0.5,0.4,1.5,0.9,1.7C318.7,145.2,319.4,149.6,321.5,153z"/>
		<path class="st61" d="M325.5,145c-4.1-1.4-8.6-1.8-9.7-7.7c-0.6-2.9-5.1-1.5-7.3-3.3l0,0c1.2-1.1,2.9-1.7,2.6-3.8
			c-0.3-2.1,0.8-3.1,2.8-3c2.2,0.1,4.1,1.3,4,3.6c-0.2,5.4,2,9.1,6.7,11.5C325.7,142.8,326.5,143.6,325.5,145L325.5,145z"/>
		<path class="st63" d="M304.5,134c-3.6-2-4.2-5.3-4-9C303.6,127.2,304,130.6,304.5,134z"/>
		<path class="st64" d="M404.4,118c0-1,0-2,0-3c-0.4-5.9-2-11-6.6-15.4c-4.8-4.6-9.5-9.5-11.9-16.2c-1.1-3.2-4.1-5.4-6.9-7.6
			c-3.2-2.5-5.8-5.9-8.6-8.9c-1.4-4.1-1.5-8.4-1.4-12.7c0.1-3.3-1.2-5.9-3.7-7.6c-6.6-4.5-13.1-8.9-15.5-17.3
			c-0.8-2.7-3.2-3.3-6-3.4c-4.4-0.1-8.9,0.9-13.3-0.9c-3.2-3.2-8.1-4.3-11-8c-0.3-0.7-0.7-1.3-1-2c1.2,0.5,2.7,0.6,3.6,1.5
			c7.4,6.9,17,6.1,25.7,6.2c9.5,0.1,15.7,5.5,22.6,10.3c2.6,1.4,2.3,3.9,2.3,6.1c0,7.3,1.1,14.6,0.9,21.9c-0.1,4.6,2,7.7,5.6,9.9
			c4.5,2.7,7.4,6.4,9.5,11.2c2.7,6.1,6.8,11.4,11.9,15.8c2.2,1.9,3.6,4.2,3.8,7.1c-0.5,5.3,3.9,9.6,3,15c0,0.3,0,0.7,0,1
			c-0.3,0.4-0.7,0.4-1,0C405.8,120,405.1,119,404.4,118z"/>
		<path class="st20" d="M330.5,25.1c4.1,0,8.3,0.3,12.4-0.1c4.6-0.4,7.5,1.8,8.8,5.7c2.2,6.9,7.9,10.2,13.2,14
			c2.3,1.6,4.2,3.3,4.5,6.1c0.5,5.4,0.7,10.8,1.1,16.2c-3.2-3-2-6.9-1.9-10.4c0.1-4.5-1.3-7.2-5.7-9.2c-6.7-2.9-12.1-7.6-13.4-15.5
			c-0.6-3.9-2.8-5-6.6-5C338.7,26.9,334.1,28.6,330.5,25.1z"/>
		<path class="st65" d="M304.5,53c3-1.4,4.8-0.3,6.3,2.5c4.4,7.8,9.1,15.4,13.3,23.2c1.4,2.6,3,4.6,5.3,6.2c0.7,0.1,1.2,0.6,1.5,1.2
			c-0.3,4.6,4.6,4.1,6.4,6.6c7.1,7,12,15.8,18.4,23.4c4.2,4.9,6.2,10.9,9.5,16c3.5,5.4,3.4,11.7,6.9,16.7c1.2,1.7,0.5,3.6-0.3,5.2
			c-1.8,3.7-0.5,6.2,2.8,8.3c5.5,3.6,6.4,8.7,2.9,14.6c-0.5,0.2-1,0.2-1.4,0c-1.1-6.5-6.4-10.6-9.7-15.8c-1.4-2.2-2.2-4-0.8-6.4
			c2.4-4.1,0.5-7-2.6-9.4c-2.3-1.7-2.5-3.8-3.3-6.4c-1.9-6.1-0.4-13.6-6.7-18.3c-5.8-4.3-8.6-11.2-12.8-16.9
			c-3.1-4.2-6.2-7.7-11.9-7.7c-2.9,0-4.2-1.8-3.5-4.7c0.9-4.1-0.6-7.1-2.9-10.5c-4.2-5.9-8.6-11.8-10.9-18.9c-1-3-2.5-5.9-5.7-7.2
			C304.7,54.4,304.2,53.9,304.5,53z"/>
		<path class="st11" d="M330.5,86c-0.3-0.3-0.7-0.7-1-1c0-0.3,0-0.7,0-1c0.6-0.6,1.3-0.7,2-0.5c0.5,0.2,0.9,0.4,1.3,0.7
			c9.5,7.1,15.2,17.4,22.2,26.5c6.1,7.9,12.6,15.7,17.5,24.5c2.8,4.9,4,10.7,3.9,16.1c-0.1,6.1,1.8,10.9,4.7,15.8
			c2,2.8,0.3,5.3-0.5,7.9c-0.2,0.4-0.4,0.8-0.7,1.2c-0.7,0.7-1.4,1.2-2.4,0.7c2.2-8.3,1.9-8.6-5.5-14.5c-2.3-1.8-3.5-4.9-1.4-8
			c1.5-2.3,1.9-4.4-0.4-6.6c-0.9-0.8-1.6-2.4-1.5-3.6c0.6-4.5-1.6-7.4-4.6-10.4c-2.2-2.3-0.9-6.2-3.1-8.9
			c-4.8-5.8-9.6-11.6-13.7-17.9c-3.3-5-7.3-9.3-10.7-14.1C334.9,90.3,329.9,90.6,330.5,86z"/>
		<path class="st66" d="M304.5,53c0.3,0.3,0.7,0.7,1,1c6.7,5.4,8.6,13.3,11,21c-2.6-1.8-3.8-4.7-4.8-7.3
			c-4.3-11.9-6.6-13.6-19.2-13.7c-2.3,1.5-4.8,0.8-6.7-0.2c-6.6-3.4-13.7-1.9-20.5-2.4c-4.6-0.3-9.2,0.2-13.6-1.3
			c-5.4-1.8-10.8,0.9-16.2-0.1c-0.7,0-1.3,0-2,0c3.6-3.1,7.4-5.9,12.6-5c9.5,1.6,19,2.2,28.6,2.1c3.3,0,6.5,0.9,9.6,2.2
			c2.9,1.2,6,1.9,9.2,1.7C297.4,50.8,301.1,51,304.5,53z"/>
		<path class="st67" d="M331.5,84c-0.7,0-1.3,0-2,0c-2.4-3.2-2.8-7.3-5.2-10.6c-4.6-6.5-8.8-13.4-13.2-20.1
			c-2.3-3.5-6.7-3.5-9.8-3.9c-7-0.7-13.5-2.8-20.1-4.8c-7.6-2.3-15.1-1.3-22.6-1.3c-6,0-12-0.9-18-1.4c1.8-1.8,4-0.7,6-1
			c0.6-0.6,1.3-1.1,2.2-1.1c10.4,0,20.9-1.1,31.3,0.8c8,1.5,15.5,4.7,23.7,5.5c8,0.8,11.7,7.4,15.5,13c2.6,3.8,5,7.8,7.8,11.4
			C330.2,74.7,331.3,79.2,331.5,84z"/>
		<path class="st68" d="M230.6,86c0-0.3,0-0.7,0-1c0.8-1.2,2-1.7,3.1-2.2c1.6-0.7,3.1-1,4.5,0.4c1.3,1.2,0.9,2.7,0.3,4.1
			c-0.4,0.9-0.6,1.8-0.6,2.8c0.3,3.2,3.1,1.6,4.6,2.5c5,1.5,9.8,3.8,15.2,1.4c2.3-1,5.2-0.4,7.9-0.3c2.8,0.2,4.6,1.5,5,4.5
			c0.6,5.1-1.2,9.5-4,13.6c-2.1,3.2-3.7,6.6-5,10.4c2.2,0.7,3.3-0.5,4.4-1.7c3.7-3.7,7.7-3.8,11.7,0c2.1,2,4.3,3,7.1,2.8
			c1.3-0.1,2.9-0.6,3.5,1c0.5,1.5-1,2.3-2,3.1c-0.6,0.5-1.4,0.9-1.9,1.9c1,1.2,2.6,0.9,3.9,1.3c3.9,1.3,7.1,3.6,7.9,7.6
			c0.6,3.6,1.9,6.6,4.1,9.4c0.6,0.8,0.9,1.8,0.7,2.8c-0.3,1.3-1.2,2.2-2.2,2.9c-0.4,0.2-0.9,0.4-1.3,0.6c-1.5,0.5-3.3,0.4-3.4,2.8
			c-0.1,4-3,6.1-6,7.8c-2.2,1.2-4,2.8-5.7,4.6c-3.3-2.1-3.9-4-0.9-6.8c3.3-3.2,2.5-5-0.7-7.4c-4.6-3.6-4.2-6.4,0.9-9.5
			c1.7-1,3.6-1.7,4.9-3.4c1.2-1.7,1.1-3.4,0-5.1c-1.1-1.7-2.5-0.7-3.9-0.5c-5.1,0.9-10,0.8-14.4-2.6c-2.2-1.7-4.8-2.3-7.4-2.6
			c-3.2-0.4-5.3-1.6-5.7-5.1c-0.2-1.9-1.4-2.9-3-3.6c-2.1-1.2-3.9-2.9-3.3-5.6c0.6-2.8,3.2-2.9,5.5-3.4c5.4-1.2,9.8-6.3,10.2-11.4
			c0.2-2.5-0.6-3.7-3.1-2.8c-4.4,1.6-8.9,0-13.3,1c-1.4,0.3-2.6-0.4-3.5-1.5c-1-1.3-2.4-1.9-3.8-2c-4.9-0.4-7.4-3-8-7.8
			C232.3,88.1,230.9,87.4,230.6,86z"/>
		<path class="st69" d="M230.6,86c1,0.7,2,1.3,3,2c0.5,0.5,0.6,1.2,0.5,1.9c-0.5,4,0.2,6.9,5.2,6.2c0.5-0.1,1.1,0.1,1.4,0.4
			c5.1,5.4,12,2.8,18,4.1c4.6,1,6.1,3.7,3.7,7.7c-2.1,3.6-7.9,6.4-11.9,5.7c-1.7-0.3-3.3-0.7-3-3c3,0,6,0.2,8.8-1.1
			c2.8-1.3,3.1-3.2,0.5-4.7c-2.8-1.6-5.5-4.8-9.3-1.8c-1,0.8-2.3,0.6-3.3-0.2c-3.7-3-7.9-4-12.5-4.8c-3.3-0.6-6.2-1.2-9.7-1.1
			c-2.7,0.1-3.5,2.1-5.4,2.6c-0.6-2.9-1.1-5.7-1.8-8.6c-0.6-2.5,1.9-6.8,4.2-6.1C222.9,86.5,226.7,85.2,230.6,86z"/>
		<path class="st70" d="M236.6,91c0-0.2,0.1-0.4,0-0.5c-1.4-2.5,3.6-4.7,0.7-6.9c-2.3-1.8-4.1,2.3-6.7,1.4c-1.4-0.9-2.9-1.6-4.1-2.7
			c-1.7-1.6-4.1-2.1-5.5-1.1c-5,3.6-11,4.9-16.3,7.8c-0.2-2.7,0.1-4.7,3.6-5.2c2.5-0.4,4-2.7,5.4-4.8l0,0c3.1-1.6,7.1-1.9,9.9-1.4
			c4.7,0.8,6.6-1.1,8.9-4.2c1.3-1.8,3.3-2.9,5.6-1.6c2.3,1.3,3,3.4,2.3,5.9c-0.2,0.6,0.2-0.1-0.2,0.4c-1.4,1.9-0.7,3.8,0,5.6
			C241.6,88.9,241.2,89.7,236.6,91z"/>
		<path class="st71" d="M270.5,55c0-0.3,0-0.7,0-1c1.1-3.4,4.1-2.4,6.2-2.1c10.2,1.1,19.5,4.7,26.7,12.4c0.9,8.3,10.2,9.9,13.3,16.5
			c2.4,5.3,2.6,10.8,0.9,16.4c-0.3,1-0.8,2.4,0,3.4c3.9,4.8,5.9,11.2,11.6,14.7c2.7,1.7,4.9,3.9,7,6.2c1.3,1.4,2.2,2.9,2.1,4.9
			c-0.2,3.6-0.1,6.9,3.8,8.9c1.4,0.7,1.2,2.4,0.1,3.4c-1.6,1.5-2.2,3.7-3.5,5.4c-2,0.2-2.5-1.5-3-2.7c-1.9-4.7-7.1-8.1-5.1-14.3
			c0.6-1.9-1.9-3.2-3.6-4.3c-3.8-2.5-8.6-4-9.3-9.5c-0.1-0.6-0.8-1-1.3-1.4c-5.3-4-5.6-4.4-3.7-10.6c2.1-6.7-1.1-13-0.9-19.6
			c0.1-1.9-3-3.2-5.1-4.2c-0.5-0.1-0.9-0.3-1.4-0.4c-8.7,1.3-12.7-5.1-15.5-11.1c-2.9-6.3-7.2-8.6-13.3-9.4
			c-1.8-0.2-3.7,0.1-5.3-0.8C270.9,55.4,270.7,55.2,270.5,55z"/>
		<path class="st72" d="M316.5,81c-3.6-3.2-6.5-7.6-11.9-8.3c-1-0.1-1.3-1.3-1-2c1.9-5.4-3.2-6.2-5.6-8.9
			c-6.6-7.5-15.6-7.4-24.3-8.7c-1.1-0.2-2.4-0.1-3.2,1c-12.6-2.4-25.2-3.4-38-1c1-1,2-2,3-3c7-2.7,14-2.2,20.9,0
			c1.8,0.6,3.5,1.3,5.3,0.9c10.6-2.2,20.7,0.2,30.8,3c5,1.3,8.8,4.8,13.5,6.8c1.3,0.5,2.4,1.4,2.7,2.7c1.3,6.6,5.2,12,8.8,17.5
			C317.2,81.5,316.8,81.5,316.5,81z"/>
		<path class="st73" d="M236.6,57c-2.5,2.5-5.3,4.7-9,5c4.7-4.9,9-10.4,17-9c5.5,0.8,10.6,4,16.6,2.1c3.1-1,6.4,1.3,9.7,0.4
			c3.4,0.2,7.1-0.9,9.9,2.2c-0.3,0.4-0.6,1-1.1,0.9c-6.3-0.9-12.4,2.4-18.7,0.7c-2.1-0.6-4.2-0.4-6.3,0.4c-4.1,1.5-8,0.4-11.3-2.1
			C241.1,55.9,239,55.5,236.6,57z"/>
		<path class="st71" d="M270.5,56c-8.3,0.5-16.6,1.4-24.7-1.5c-0.5-0.2-0.9-1-1.3-1.4c8.7,0.7,17.3,1.3,26,2l0,0
			c0.3,0.2,0.4,0.4,0.3,0.7C270.7,55.9,270.6,56,270.5,56z"/>
		<path class="st74" d="M319.5,10.1c8.8,4.9,17.6,9.6,28.3,6.2c1.7-0.6,3.6-0.2,5.3,0.6c5.3,2.5,10.3,5.7,16.1,7.3
			c3.2,0.9,2,4.9,4,7c1.2,1.3,1.5,3.3,2.2,4.9c2,7.7,8.2,13,11.3,20c0.2,0.9,0.6,1.9,0.5,2.9c-1.8,4.9-0.1,9.4,2,13.7
			c1,2.1,2.5,4,3.2,6.1c2.4,6.9,7.6,11.9,12.4,17.1c0.5,1.4,0.6,2.9,0.9,4.3c-0.5,1.7,1.8,3.1,0.5,4.9c-0.7-0.3-1.3-0.7-2-1
			c-0.9-2.3-1.8-4.5-3.9-6.1c-6.1-4.5-9.6-10.9-12.2-17.8c-1.2-3.3-3.1-5.6-6.1-7.4c-5.5-3.3-6-4.4-4.5-10.4c1-4.1-0.4-7.8-2.1-11
			c-2.4-4.6-3.6-9.1-3.3-14.2c0.1-1.3-0.4-2.6-0.8-3.9c-0.5-3.5-2.9-4.9-5.8-6.6c-9.4-5.5-19.2-7.5-29.9-6.3
			c-3.6,0.4-6.6-1.2-9.2-3.1c-7.6-5.4-15.5-10-24.1-13.6c-0.4-0.2-0.6-0.7-1-1.1c5.1,0.2,8.8,3.5,13.1,5.6
			C316.2,8.6,317.6,9.9,319.5,10.1z"/>
		<path class="st75" d="M371.5,33.1c1.3,1,1.9,2.8,1.7,4c-0.8,6.9,3.7,12.2,5.5,18.2c0.8,2.8,1.4,5.6,0,8.2c-1.4,2.8-1,5.4,1.6,6.3
			c8.2,2.7,9.6,10.6,12.5,16.9c1.9,4.2,4.7,7.2,7.9,9.8c2.7,2.1,3.8,4.4,3.7,7.6c0,0.3,0,0.7,0,1c-1.7-3.9-5-6.5-7.9-9.4
			c-4.6-4.5-7.9-9.8-10.2-15.7c-1.2-2.9-3.1-5.1-5.9-6.5c-8.2-4.1-8.3-11.3-8.4-19.2c-0.1-7,0.3-14.2-1.6-21.1
			C370.8,33.1,371.1,33.1,371.5,33.1z"/>
		<path class="st76" d="M331.5,84c-2.6-4.6-2.7-10.5-6.9-14.4c-4.6-4.3-6.4-10.6-10.7-15.3c-3.1-3.3-6-5.7-10.5-6.9
			c-18.7-4.8-37.5-7.9-56.8-6.4c0-0.3,0-0.7,0-1c0.2-0.2,0.4-0.4,0.6-0.6c2.8-1.2,5.8-0.6,8.7-0.8c9.9,0.3,19.9-1.2,29.6,2
			c7,0.6,13.7,2.7,20.4,4.6c4.1,1.1,7.7,3.3,10.1,6.9c6.1,9.3,12.8,18.1,18.3,27.9c2,3.6,6.2,5.8,9.5,8.6c4.4,3.8,7.9,8.5,12.1,12.5
			c6.4,6,8.2,14.7,13.8,20.9c0.9,1,1.6,2.1,2.6,3c5.5,4.3,10,8.8,9.3,16.9c-0.8,8.4,2.5,16.7,2.2,25.2c-0.1,3.4-0.1,7.3-4.3,8.9
			c-0.7-2.8,3.1-5,1-8c-1.6-3.3-2.4-6.8-2.5-10.5c-0.2-7.3-2.8-14.3-2.3-21.7c0.1-1.5-0.8-2.5-2-3.2c-7.6-4.9-11-13.2-16-20.1
			c-6-8.4-10.9-17.7-20-23.4C335.4,87.6,333.7,85.5,331.5,84L331.5,84z"/>
		<path class="st77" d="M264.5,35.1c6.9-0.6,13.9,1.6,20.6-1.7c11.6,4.5,25.1,4,34.3,15c5.1,6.2,9.1,13.2,15.1,18.7
			c3.6,3.9,7.1,7.9,9,13c0.7,1,1.3,2,2,3c-1.3,1-2.3,0.4-3.4-0.3c-2.8-2.2-5.1-4.7-7.1-7.6c-5.2-7.8-10.5-15.6-16.5-22.9
			c-2.9-3.5-6.4-5.7-10.9-6.4c-19.7-8.9-40.1-9.5-61-5.7l0,0c-4,0.8-7.4-1.2-11.1-2.1c0.6-1.2,1.6-1.9,3-2c0.6-0.3,1.2-1,1.7-1
			C248.3,35.5,256.4,33.4,264.5,35.1z"/>
		<path class="st78" d="M264.5,35.1c-8.7,0.6-17.3,1.6-26,1c0.7-1,1.4-2,2-2.9c10,0.8,20-0.1,30,0c4.2,0.4,8.3,0.1,11.5-3.2
			c2.9-3,5.9-0.9,8.7,0c2.7,0.8,5.3,1.9,8,2.5c13.2,2.7,23.3,10.1,30.9,21.1c1.8,2.6,4.1,4.9,6.2,7.1c13.4,13.7,23.3,30.5,38.6,42.6
			c5.2,4.1,10.7,9.4,11.1,17.6c0.3,5.3,5.2,8.2,8.3,12c0.8,1,2.6,1.5,2.3,2.9c-1.6,7.7,0.1,15.8-2.9,23.4c-0.6-4.7-2.4-9.7-1.6-14.2
			c1.5-8.2-1.6-13.9-7-19.4c-1.1-1.1-1-3.4-1.5-5.2c-1.1-3.9-2.8-7-5.9-10c-10.5-9.9-21.9-19.3-30.2-30.8
			c-5.1-7-10.6-13.7-16.1-20.4c-5.8-7-10.8-15-19.3-19.6c-3.9-2.1-7.9-3.2-12-4.4c-3-0.9-6.1-1.4-9-2.8c-2.8-1.4-5.7-1.7-8.5,0.3
			c-2.1,1.5-4.7,1.3-7.2,1.5C271.6,34.4,267.9,32.9,264.5,35.1z"/>
		<path class="st79" d="M376.4,36.1c-0.8-14.8-17.2-21.3-29.1-22c-6-0.4-12.2,1.8-17.9-1.9c7,0.5,14-1.4,21.2-0.2
			c4.2,0.6,7.4,4,11.8,3.2c0.4,0.3,0.8,0.6,1.3,0.8c11.8,4.4,15.5,14.7,18.6,25.4c0.5,1.6,0.7,3.2,1.1,4.8
			C378.4,44.7,376.8,42.4,376.4,36.1z"/>
		<path class="st80" d="M405.4,100c-0.7-1.2-1.2-2.5-1-4c-6.9-6.1-9.9-14.7-14.3-22.4c-2.6-4.6-3.8-9.4-3.7-14.6c0-1,0-2,0-3
			c-0.7-2.3-3.2-4.2-2-7c3.9,2.3,2.6,6.7,4,10c-0.1,9.1,6.6,15.2,10.2,22.7c2.8,6,8.5,10.8,7.8,18.3
			C406.1,100.5,405.8,100.4,405.4,100z"/>
		<path class="st81" d="M384.4,49c0.1,2.5,2.4,4.4,2,7c-4.3-6.3-11-11.3-11-20c0.3,0,0.7,0,1,0c0.9,4.3,3.2,7.7,7,10
			C383.8,47.1,384.1,48,384.4,49z"/>
		<path class="st82" d="M405.4,100c0.3,0,0.7,0,1,0c2.3,6.2,3,12.7,7.1,18.4c1.9,2.7,3.5,7.3,2.8,11.5c-4.4-7.9-9.2-15.6-9.9-25
			C406.1,103.3,405.8,101.7,405.4,100z"/>
		<path class="st83" d="M222.8,177.8c-2.8-0.1-4.5-4.3-2.6-5.4c3.3-1.9,2.4-4.5,2.4-7.1c0-3-0.2-5.8,4.4-4.8c1.2,0.3,3.2-0.6,4-1.6
			c4.6-5.9,10.3-5.6,16.6-3.8c4.3,1.2,7.6,3,8.6,7.8c0.2,0.9,1.4,1.6,0.2,2.5c-1,0.8-2,0.1-2.7-0.5c-1.9-1.5-3-4.4-6-3.4
			c-4.4,1.5-9.3,3.2-11.2,7.6c-1.4,3.2-3.5,3.9-6,4.8C227.6,175.1,224.4,175.5,222.8,177.8z"/>
		<path class="st84" d="M254.5,177.9c-0.3,2.5-1.7,3.6-4.1,2.4c-2.9-1.5-7.2,0-8.7-4.7c-0.6-1.8-3.2-1.9-5.3-1.8
			c1.2-1.7,2.1-3.7,4.2-4.6c1.1-0.4,2.6-0.9,3.2,0.2c2.1,3.8,3.5,2.1,5-0.4c0.6-0.9,1.5-1.2,2.5-1.3
			C253.3,171.1,257.4,173.5,254.5,177.9z"/>
		<path class="st83" d="M223.8,145c4.1,0.4,8.7,3.7,8,6c-0.4,1.5-0.5,3.8-3.2,3.5c-4.9-0.7-8-4-7.6-7.9
			C221.2,144.4,222.8,145.2,223.8,145z"/>
		<path class="st2" d="M254.5,177.9c1.5-4.1-4.1-6-3-10c2.8-2,6-0.6,9-1c0.3,0.3,0.7,0.7,1,1c2,5.4-2.7,6.9-5.4,9.6
			c-0.2,0.1-0.4,0.2-0.6,0.4C255.2,177.9,254.9,177.9,254.5,177.9z"/>
		<path class="st34" d="M235.4,186.4c-0.4,1.8-1.7,1.8-2.8,0.8c-2.1-1.8-4.1-3.8-6-5.9c-1-1.1-0.9-2.1,0.8-2.3
			C228.5,178.9,235.4,185.1,235.4,186.4z"/>
		<path class="st84" d="M246.2,167.9c-1.3-0.2-2.2-0.7-2.3-1.8c-0.1-1.4,1-2,2.2-2c1.1,0,1.9,0.6,2,1.7
			C248.3,167.3,247.1,167.6,246.2,167.9z"/>
		<path class="st38" d="M269.5,191.9c1.6,4.5,0.7,9.3,3,13.9c1.9,3.9-2.1,4-5,4.1c-2.4-3.1-2.3-8.8-9-7.1c1.2-3.5,2.9-6.9-2.8-6.6
			c-0.9,0-1.2-1.1-0.8-2c0.9-1.5,2.2-2.7,4.1-2.3c2.7,0.6,5.2,0.7,7.5-1.1C268,189.7,268.7,190.9,269.5,191.9z"/>
		<path class="st2" d="M269.5,191.9c-1-0.3-2-0.7-3-1c-1.4-2.1-4-2.3-5.9-3.2c-4.3-2.2-3.5-6.5-5.1-9.8l0,0c5-2.9,5.4-2.7,7,3
			c0.8,3,3.3,3.2,5.9,3.2c0.5,0.2,0.8,0.4,1.1,0.8C269.4,187.3,268.3,189.6,269.5,191.9z"/>
		<path class="st68" d="M332.5,201.9c-4.8-0.9-9.6-1.8-14.5-2.7c-1.2-0.2-2.6-0.3-2.8,1.1c-0.2,1.2,1.1,1.4,2.1,1.6
			c1.1,0.2,2.7,0.1,2.5,1.7c-0.2,1.5-1.4,2.1-3,1.6c-5.3-1.6-9.8-0.8-13.3,4c-1,1.4-3.1,1.9-5,1.7c2-1.8,4.9-3.2,2.3-6.7
			c-0.9-1.3,0.3-2.4,1.5-3.2c1.5-0.9,3.2-1.8,4.5-3c1.1-1,3.8-1.2,3-3.3c-0.6-1.8-2.5-2.8-4.4-3.7c-4.2-1.9-8.9,0.4-13-2.1
			c-3.3,0-6.5,0.6-9.7,1c-2.4,0.3-4.5-0.4-4.9-3.1c-0.4-2.4,1.4-3.5,3.4-4.2c2.3-0.8,4.9-1.1,7.4-3.2c-6.5-1-5.1-5.4-4.7-9.5
			c2.9-4.8,8-6.2,12.7-8c1.8-0.7,3.8-1,5.4-2.4c3.3-2.7,7.1-2.8,10.4-0.4c0.3,0.2,0.6,0.4,0.8,0.6c0.7,0.7,0.9,1.7,0.3,2.3
			c-2.9,3.2,3.9,8.7-2.8,11.2c-2.8,1.1-5.3,3.2-8.5,5.2c3.9,1.3,6.9-0.2,9.1-1.5c6.1-3.6,11.4,0,17,1c0.8,0.1,1.5,0.8,2.2,1.1
			c2.1,1,5.4,0.5,5.6,3.9c0.2,3.6-0.6,6.9-3.6,9.4c-0.8,0.7-2.2,0.9-2.3,2.5c1.6,1.9,5.5,0.1,6,3.4
			C336.8,200.8,334.1,201,332.5,201.9z"/>
		<path class="st69" d="M284.5,170c0.4,1,1.3,2,0.8,3.3c-1.5,3.7-0.1,5.1,3.6,4.4c1.2-0.2,2.1-0.1,2.3,1.1c0.2,1.1-0.7,2-1.5,2.3
			c-2.6,1-5.2,2-7.9,2.7c-1.6,0.4-3.1,0.8-3,2.6c0.1,2.2,1.9,2.3,3.6,2.5c3.4,0.4,6.8-1.7,10.2,0c0,0.3,0,0.7,0,1
			c-0.3,0.4-0.7,0.4-1,0c-5.2,0-10.3,0.5-14,5c-2.2,1.3-3.6-0.4-3.5-1.9c0.4-4-1.6-8.5,2.2-12c3.5-3.2,3.1-7.4,2.6-11.6
			c-0.4-3.4-3.4-6.6-0.6-10.4c1.2-1.7-0.8-2.9-2.1-4c-1.9-1.7-3.4-3.6-1.4-5.9c2.2-2.4,0.7-3.2-1.2-4.3c-1.6-0.9-3.3-1.6-5.1-1.9
			c-1.8-0.3-3.5-1.6-3-3.3c1.7-5.4-2.5-3.9-4.9-4.4c-0.5-0.1-0.9-0.2-1.4-0.3c-8.9-2.4-14.9-8.3-19.6-15.9c-0.3,0-0.6,0-1,0
			c-0.7-1.7-2.6-3.8,1.6-3.3c3.1,0.3,1.8-4.1,4.4-4.6c1.1,1.1,1.7,2.5,1.8,4c0.2,4.1,2.5,6.2,6.2,7c2.6-0.2,4.2,0.9,4,3.7
			c-0.2,3.3,1.5,4,4.5,4.4c3.4,0.5,7.4,0.6,9.4,4.5c0.1,0.1,0.2,0.3,0.3,0.4c4-2.9,7.7,3.4,11.7,0.4c1.5-1.1,3.4-2.6,4.7-0.6
			c1.2,2,3.5,4.1,1.5,7.2c-1.7,2.6-4.4,3.4-6.8,4.8c-4,2.4-4.2,4.2-0.5,7c0.7,0.5,1.4,0.9,2,1.4c2.9,2.3,4.3,4.4-0.1,7
			c-2.3,1.4-4.5,4-0.7,6.7C283.4,168.9,284,169.2,284.5,170z"/>
		<path class="st85" d="M291.5,189.9c0.3,0,0.7,0,1,0c1,0.5,1.4,1.8,2.7,2c1.9,0.3,4.1,0.9,4.2,3.1c0,2.9-2.6,3.3-4.9,3.9
			c-2.2-3-2.8,0.2-4,1c-3.6,4.3-8.5,6.8-13,10c3.6-3.3,0.9-5.6-1.6-7.5c1.3-1.5,2.1-0.5,2.8,0.1c3.8,2.8,7.5,1.3,8.5-2.1
			C288.3,196.7,291.1,193.8,291.5,189.9z"/>
		<path class="st36" d="M290.5,199.9c-1.1-4.2,2.6-4.1,4.3-3.7c2.5,0.5-0.5,1.7-0.4,2.7C293.3,199.6,292,200.1,290.5,199.9z"/>
		<path class="st85" d="M260.5,134c1.3,0,2.5,0.5,3.9,0.2c3.3-0.6,4.6,0.7,2.5,3.7c-1.3,1.9-0.8,3.8,1,3.7c3.4-0.1,5.4,2.3,8.1,3.1
			c3.1,0.9,3.3,2.3,0.9,3.8c-3.4,2.3-2.7,3.8,0.3,5.8c2.3,1.6,4.8,3.1,1.4,7c-2,2.2,1,6.2,2.3,9.1c0.7,1.5,1.7,2.4-0.4,3.4
			c-0.7,0.3-1.9,1.1-1.2,1.8c4,3.7-0.6,4.5-2.1,6c-3.8,3.9-3.7,11,0.4,13.1c-0.9,1.7-3.1,3.4-4.1,2.4c-1.5-1.4-1.4-5.5-0.8-6.3
			c3.5-4.7-1.2-4.5-3-6c-0.3,0-0.7,0-1,0c-2-1.1-6.1,0.1-5.5-4.1c1.3-8.9,2.3-9.6,9.7-8.4c0.9-7.2-3-13.7-2.6-20.9
			c0.2-3-1.8-5.7-5-6.8c-2.3-0.8-3.8-2.2-2.7-4.9C263.3,137.4,259.8,136.4,260.5,134z"/>
		<path class="st66" d="M316.5,75c-3.4-7.2-5.3-15.1-11-21c5.3,0.7,6,5.5,7.3,9.1c2.4,6.9,6.8,12.5,10.9,18.2
			c2.4,3.4,3.5,6.4,2.4,10c-1,3.4,0.4,3.9,3.1,3.7c6-0.5,9,3.5,11.9,7.6c4.4,6.2,7.9,13,13.6,18.2c3.4,3.1,6.2,6.4,4.1,11.6
			c-0.6,1.6,0.9,2.3,1.9,3.2c0.8,0.6,2.1,1.4,1.4,2.3c-3.5,4.3,0.5,5.2,2.7,7.4c2.9,2.8,5.4,6.1,1.8,10.4c-1.1,1.3-1.3,2.7,0.3,4.3
			c3.2,3.2,4.8,7.6,8.7,10.4c1.8,1.3,0.5,4.4,0.7,6.7c1.2,1.4,0.4,2.5-0.5,3.6c-0.2,0.1-0.4,0.2-0.6,0.4c-2.3-2.6-1.1-9-8.2-6.4
			c1.4-3.3,0.4-4.8-2-6.6c-6.9-5.2-7.2-6.9-4.4-15c0.8-2.4,0.9-4.3-2.1-5c-0.5-0.1-1.1-0.1-1.4-0.4c-2.8-2.2-0.2-7.3-1.4-7.4
			c-4.2-0.6-3.9-2.9-3.2-5.5c0.7-2.3,0.9-4-1.4-5.6c-1.2-0.9-1.5-2.5-1.9-3.9c-1.9-6.5-5.8-11.6-11-15.7c-0.5-0.4-1.5-0.5-1.7-1
			c-2.3-6.5-9.3-6.6-13.7-10.1c-1.6-1.3-2.9-1.9-1.3-4.2c1.9-2.7,2-5.9,1.8-9.1c-2.6-2.6-3.8-6.1-6-9
			C317.2,75.7,316.8,75.4,316.5,75z"/>
		<path class="st86" d="M316.5,81c0.3,0,0.7,0,1,0c3.4,4.5,3,9.5,1.7,14.6c-1,3.8,3.3,10.8,7.2,11.3s7.2,2.3,10.8,3.6
			c2.2,0.8,4.7,1.7,1.4,4.7c-2,1.8,0.4,3.1,1.7,3.6c4.3,1.7,6,4.9,6.3,9.2c0.1,0.8,0.4,1.9,0.9,2.2c4.3,2.4,4.1,5.4,1.6,9
			c-1.2,1.8-0.4,3.5,1.1,4.9c1.5,1.5,2.5,3.1,3.3,5.2c1.1,3,6.2,5,0.6,8.7c-0.9,0.6,1.4,2.3,2.4,3.3c3.5,3.7,7.6,7,8.1,12.6
			c-3-1.9-2.7-6.3-6-8c-5.8-0.8-10.8-6.1-11.3-11.8c-0.5-7.2-0.5-7.2-7.6-8.4c-0.8-0.4-1.4-0.9-1.1-1.8c-0.2-2.3,0.2-4.3,2.3-5.6
			c1.1-0.7,1.9-2.5,0.6-2.4c-5.5,0.3-4.8-4.8-4.4-6.5c1.4-6-2.6-9.1-6.1-11.1c-6.9-3.9-9.5-11.1-14.4-16.5c-0.5-0.5-0.9-1.7-0.6-2.3
			C318.6,93.4,317.3,87.2,316.5,81z"/>
		<path class="st11" d="M378.5,190c-0.3,0.3-0.7,0.7-1,1c-1.5-3.2-0.3-6.9-2.1-10h0.1c2.4-1.1,3,0.8,3.8,2.3
			C379.4,185.5,380,187.9,378.5,190z"/>
		<path class="st66" d="M317.5,76c3.2,2.2,4.3,5.8,6,9C320.1,83,318.4,79.7,317.5,76z"/>
		<path class="st87" d="M342.5,82c1,0.3,2,0.7,3,1c0,0.3,0,0.7,0,1c9.7,6.8,16.7,16.4,24.9,24.9c2.9,3,4.3,6.9,6.8,10.2
			c3.4,4.6,6.2,9.7,10.3,13.8c0.7,0.7,1.1,1.7,1,2.7c-1.4,8.1,0.3,16,1.7,24c0.1,0.8,0,1.7-0.6,2.3c-0.3,0.7-0.7,1.3-1,2
			c-0.7,0.7-1.3,1.3-2,2c-3.8-7.9-5.7-16.3-4.3-24.9c0.9-5.4-1.6-8.4-4.8-11.6c-6.1-6.2-11.9-12.5-14.8-20.8
			c-6-6.9-10.4-15.3-18.4-20.5C342,86.7,340.4,84.8,342.5,82z"/>
		<path class="st88" d="M389.4,162c-0.9-5.2-1.8-10.4-2.7-15.6c-0.2-1.3-0.7-2.8-0.2-3.9c2.7-7.3-2.4-11.1-5.9-16.4
			c-3.2-4.8-7.7-8.7-9.7-14.5c-1.2-3.7-5.3-6-7.9-9.2c-4.5-5.8-9.3-11.7-15.8-15.5c-1.1-0.6-1.7-1.6-1.7-2.8
			c6.8,3.3,12.1,8.7,16.6,14.5c2.7,3.4,6.1,6.1,9.1,9c5.1,5,9.4,10,10.7,17.2c0.4,2.2,2.2,3.8,3.9,5c3.6,2.6,4,6.2,3.6,10.2
			c-0.5,5.3,0.2,10.6,1.5,15.8C391.5,158.2,391.4,160.2,389.4,162z"/>
		<path class="st88" d="M343.5,80c-3-4.3-6-8.7-9-13C338.8,70.5,343,73.9,343.5,80z"/>
		<path class="st89" d="M338.5,144c0.3,0.3,0.7,0.7,1,1c4.3,2.4,7.5,5.5,6.8,11c-0.2,2.1,0.9,3.4,2.4,4.6c4.3,3.3,9.5,5.5,10,12.4
			c0.2,2.8,4,4.8,4.6,8.4c0.4,2.4,0.7,4.2-0.9,5.9c-1.9,2-1.5,3.8,0.1,5.7c1.1,0.6,2.7,1.4,2.3,2.7c-0.5,1.9-2.4,2.4-4.3,2.3
			c-0.2-1.8-0.4-3.3-2.3-4.5c-4.9-3.2-5.1-4.9-2.1-9.6c1.9-3,2.7-5.4-1.7-6.9c-2.8-1-3.2-3.7-3.7-6.1c-0.7-3.3-2.1-5.8-5.5-7.1
			c-2.9-1.1-4.7-3.5-4.4-6.6c0.2-3.6-1.6-5.6-4.2-7.3c-1.6-1-2.9-2.2-3.1-4.3c-0.5-5.4-3.7-9.5-7.2-13.3c-0.4-0.6-0.6-1.3-0.8-2
			c-0.1-1.9-0.6-3.7-2.4-4.5c-4.1-1.6-5.7-5.1-7-8.8c-0.6-1-1.4-1.8-2.3-2.5c-1-0.8-1.9-1.5-2.6-2.5c-3.5-4.5-0.3-9.3-0.5-13.9
			c-0.2-6.5,0.9-13.3-3.5-19c-0.6-0.9-1.1-1.8-0.6-3c4.7,1.7,7.6,4.4,7.1,10.2c-0.5,6.4,2.6,12.9-0.9,19.2c-0.4,0.7,0.3,2.9,0.9,3.1
			c6.8,2.4,6.8,11.7,14.4,13.5c3.5,0.8,5.9,3.9,3.4,8.1c-0.8,1.4-0.4,2.9,0.6,3.6C335.6,136.3,335.9,140.8,338.5,144z"/>
		<path class="st90" d="M326.5,132c4.9,2.4,6.7,7.1,7.8,11.8c0.6,2.5,1,4,3.3,5.4c2.6,1.6,5.6,3.3,4.2,7.8c-0.8,2.5,1.2,5.2,4.2,5.8
			c2.2,0.4,3.7,1.5,4.5,3.4c1.7,4.3,1.5,9.5,7.6,11.3c2.6,0.8,0.9,3.9-0.5,5.9c-3.5,5.2-3.3,6.5,1.9,9.9c2.2,1.5,1.8,2.8,0.9,4.5
			c-0.3,0-0.7,0-1,0c-0.7,0.5-1.3,0.6-2,0c2.1-1.9,2.6-3.5-1-4c-0.2-0.1-0.5-0.1-0.7-0.2c-3.9-3.1-5.1-6.7-2.7-11.3
			c1.2-2.3,0.7-3.8-2.2-4.7c-3.8-1.2-6.9-3.6-6.7-8.2c0.1-2.4-1.7-2.5-3.1-3.2c-2.7-1.4-4.4-3-3.6-6.7c0.8-3.9-0.9-7.2-4.6-9
			c-2.2-1-3.5-2.5-3.6-4.9c-0.1-1-0.3-2-1-2.7C324.7,139.8,325.2,135.9,326.5,132z"/>
		<path class="st71" d="M362.5,192.9c-3.2-1.3-4-3.1-1.5-6c2.3-2.7,2-7.7-0.7-10c-2.6-2.3-4.7-4.6-3.9-8.4c0.3-1.6-0.8-2.1-2.1-2.8
			c-2.6-1.4-5-3.1-7.4-4.9c-1-0.8-2.7-1.9-2.2-3.1c2.6-6.2-2.6-8.9-5.2-12.8c1.5,0,3,0.1,4.5,0c3.5-0.3,5,1.5,4.5,4.8
			c-1.5,8.5,3.9,12.6,10,16.2c-0.5,2.2,0.9,4.1,2.1,5.3c3.6,3.9,3.5,9.3,6.4,13.4c1.8,2.5,1.6,4.1-1.6,4.2
			C362.2,189,362.4,190.9,362.5,192.9z"/>
		<path class="st89" d="M357.5,197.9c0.7,0,1.3,0,2,0c-1,2.1-4.4,3.5-1.5,6.6c0.8,0.9-0.8,1.9-1.8,2.4c-2.5,1.3-5,2.4-7.8,2.9
			C351.2,205.7,353.4,201.1,357.5,197.9z"/>
		<path class="st62" d="M331.5,207.9c-0.7-3.2-0.4-5.6,3.8-5.1c1,0.1,1.7-0.9,2.2-1.8c1.5-1.8,3.5-2.9,5.1-4.4
			c4.9,0.4,3.3,3.6,2.9,6.4c-2.1-0.4-3.4,1.1-5,2C337.4,205.7,334.9,208.2,331.5,207.9z"/>
		<path class="st62" d="M315.5,212.9c0.6-7,4.7-8.7,12-5c-0.3,0-0.7,0-1,0c-7.5,0.1-8.1,1-4.4,8.2
			C319.5,214.8,317.5,213.9,315.5,212.9z"/>
		<path class="st63" d="M345.5,202.9c-1-2,0.9-5.4-3-6c-1,0.8-1.8,0.4-2.6-0.2c-2.4-2.5-3-5.2-0.3-7.8c1.5-1.5,1.2-2.4-0.5-3.4
			c-1.1-0.6-1.4-1.8-1-3c0.2-0.2,0.3-0.3,0.5-0.5c2.5-1.1,1.7-2.7,0.8-4.4c-2.3-4.2-5.1-7.9-9.1-10.8c-2.1-1.5-6.4-2.9-2.3-6.9
			c1.4-1.4-1.1-2.4-1.4-3.8c3,0.6,5.1,1.3,2.6,5.2c-1.8,2.8,1,4.3,3.1,5.1c6,2.2,8.2,7,9.3,12.7c0.1,0.5,0,1.1,0.3,1.4
			c3.7,3.5,3.9,6.9,0.3,10.9c-1.4,1.5,1.4,2.3,2.3,3.1c3.2,2.4,4.4,5,2,8.6C346.1,202.9,345.8,202.9,345.5,202.9z"/>
		<path class="st91" d="M349.5,201.9c2.4-3.1,3-5.8-0.5-9c-2.2-2-3.4-5.1-1-8.3c1.7-2.2,2.5-4.1-1.7-5.1c-3.4-0.8-3.5-5-4.5-7.8
			c-0.6-1.7-1.4-3.3-2.3-4.8c2.8-1.1,4.1,0.6,4.5,2.9c0.6,4,2.5,6.6,6.7,7.6c3.2,0.8,3.5,3,2.3,5.8c-2.9,6.8-2.9,6.8,3.5,10.7l0,0
			C355.9,198.1,352.4,199.8,349.5,201.9z"/>
		<path class="st9" d="M406.4,121c0.3,0,0.7,0,1,0c-0.1,3.5,2.5,6.4,2,10C407.6,127.9,406.4,124.6,406.4,121z"/>
		<path class="st92" d="M363.5,108c2.2,6.5,7,11.4,11,16.8c2.2,3,5.1,5.5,7.8,8.1c1.5,1.5,2.3,2.9,1.7,5.2c-1.9,7.3-1,14.5,1.5,21.5
			c0.7,2.1,1.1,4.1,1,6.3c-3.4,7-5.9,14.2-6,22.1c0,1.2-0.8,1.7-1.9,1.9c0-2.3-0.1-4.7-0.1-7c-1.3-2.6-0.4-4.8,1-7l0,0
			c5.4-5.2,3.4-11.8,2.4-17.7c-1.2-7-1.4-13.8-1.5-20.8c-0.1-5.4-4.8-7.6-8-10.9c-4.8-4.9-9.2-10.1-11-17c-0.2-0.6-0.3-1.4-0.8-1.8
			c-8.5-8.4-15.5-18.4-25.9-24.9c-0.7-0.4-1.6-0.8-1.9-1.5C329,70.7,321,62.8,315.4,53.4c-2.3-3.8-5.9-6.1-9.8-7.1
			c-6.4-1.6-12.6-3.8-19.2-4.4c-10.1-4-20.6-2.6-31-2c-3,0-6,0-9,0c3.5-3,8-2.4,11.9-2.7c5.6-0.5,11.2-1.3,16.8-1.3
			c3.9,0,7.6,0.1,11,2.3c2.5,1.7,5.4,0.7,8.1,1.2c5.1,0.9,9.9,2.7,14.2,5.5c6.5,2.4,10.9,7.2,14.3,13c4.6,7.7,9.9,14.8,15.4,21.9
			C345.9,90,356.1,97.7,363.5,108z"/>
		<path class="st36" d="M260.5,134c1.4,2.3,6.1,3.3,2.6,7.5c-0.9,1,0.9,1.3,1.7,1.7c6,3.1,7.5,5.9,6.8,12.4
			c-0.2,1.7-0.4,3.6,0.7,4.8c3.2,3.7,0.3,8.5,2.8,12.5c1.2,1.9-1.1,1.9-2.7,1.3c-5.5-2.2-5.7-2.1-5.9,3.3c0,0.3,0.1,0.8-0.1,1
			c-6.1,4.5,0.3,4.7,2.2,6.4c-5.6,0.5-6.2,0-6.6-6.3c-0.1-1.4-1-1.7-2-1.6c-1.5,0.1-2.9,0.5-4.3,0.8c0.1-0.6,0-1.8,0.2-1.9
			c4-1.3,4.8-4.8,5.8-8.1c0.3,0,0.7,0,1,0c0.3,0,0.7-0.1,1,0c6.3,1.9,7.4,1.3,5.4-5.4c-2.1-7.1-3.1-15-9.4-20.4
			c-3.2-2.7-3.3-5.5,0-8.2C259.9,134,260.2,134,260.5,134z"/>
		<path class="st2" d="M259.5,134c-2.4,5.2,0.1,8.4,4.5,10.7c1.1,0.6,2.3,1.7,1.9,2.6c-1.4,3.5,0.9,6.4,2.1,8.8
			c2.1,4,2.4,8.1,2.9,12.3c0.1,1.2,0.6,2.3-0.7,3c-1.2,0.7-2.2,0.2-3.2-0.5c-1.5-1-3-2-4.5-3c0.5-1.1,1.4-1.8,2.6-2
			c1.2-0.3,2.7-1.6,2.2-2.2c-3.5-4,1.1-11.2-5.5-13.8c-1.4-0.6-1.2-1.8-1.4-2.9c-0.4-2.5-1.3-4.4-4.3-4.5c-1.7-0.1-3.3-1.3-2.6-2.8
			c2.3-5.3-2.5-6.6-5-7.4c-6.5-2.4-10.4-5.8-9.1-13.1c2.4,3.5,7.4,4.3,8.6,9.6c0.4,1.6,5.8,2.5,8.7,4.3
			C257.6,133.4,258.6,133.6,259.5,134z"/>
		<path class="st12" d="M252.5,122c-8.1-0.1-5.9,1-8-11c1,0,2,0,3,0c2.4,3.3,5.5,2.2,8.5,1.2c3.3-1.1,5.9-3.1,6.4-6.9
			c0.1-1,0.2-2.6-0.6-2.7c-4.2-0.1-8.3-3.2-12.2-1.7c-2.9,1.1-4.3,0.5-5.9-1.3c-2.1-2.4-4.6-3.7-7.9-2.5c-2.6,0.9-3.6-0.3-2.8-2.7
			c0.7-2.1,0.5-4.3,0.6-6.4c0.9,0.6,1.6,1.5,1.4,2.5c-0.5,3.2,0.9,4.3,4,4.7c2.6,0.4,5.6,0.4,7.2,3.6c1.3,2.5,3.1-0.5,4.8-0.2
			c3.9,0.7,7.8,0.8,11.6-1c2.1-0.9,3.9,0.2,3.8,2.9c-0.1,7.1-5.7,13.3-12.9,14.5c-1.5,0.2-3.2,0.5-3.7,2.1
			C249.2,119.4,251.3,120.5,252.5,122z"/>
		<path class="st93" d="M340.5,195.9c0.4,0.8,1.2,1,2,1c-0.3,3-2.7,3.5-5,4c-1.7,0.3-3.3,0.7-5,1c0.6-0.5,1.3-1,1.9-1.5
			c0.7-0.6,1.8-1.2,1.3-2.4c-0.5-1.1-1.7-1.3-2.6-1c-2.4,0.8-4.2-0.1-4.8-2.1c-0.7-2.2,2-2.2,3.2-3c3.6-2.2,3.4-5.8,3.8-9.2
			c0.1-1.2-0.9-1.8-2-1.7c-2.3,0.1-4.3-2.1-5.8-2c-4.9,0.1-9.5-5.1-14.7-0.9c-2,1.6-5,0.9-7.4,2.5c-1.5,1-3.9,0.2-4.6-1.7
			c-0.8-2.2,1.3-2.4,2.8-3.1c3-1.3,5.7-3.2,8.6-4.9c1.6-0.9,1.4-2.3,0.3-3.3c-2.9-2.5-1.9-4.5,1.5-6.7c-4.6-1-8.2-5.7-11.9,0.5
			c-0.9,1.5-3.3,1.2-5,1.7c-4.6,1.4-8.8,3.7-12.6,6.9c-0.8,0-1.6-0.2-2-1c-0.4-2.8,1.9-3.7,3.6-4.7c3.5-2,7.3-3.3,6.7-8.8
			c-0.3-2.2,2.7-2.4,4.7-2.5c0.5,4.6,0.5,4.6,7,4c2.1-0.3,3.9-1,5-3c1.9-0.5,3.8-0.6,5.8-0.1c2.1,0.5,5.5-0.4,2.6,3.6
			c-0.2,0.3-0.1,0.9-0.2,1.4c5.4-0.7,4.1,6.3,8.2,7.2c2,0.4,3.2,1.4,1,3.2c-1.2,0.9-1.8,2-0.9,3.4c0.7,1.1,1.8,1.2,3.1,0.9
			c4.1-1.1,7.1-1,5.8,4.8c-0.5,2.1,3.3,1.4,3.5,3.5l0,0c-1,1.5-0.6,2.7,0.6,3.9c1.3,1.3,1.3,2.7-0.1,3.9
			C335.3,192.9,338,194.4,340.5,195.9z"/>
		<path class="st94" d="M236.6,91c2.8-1.6,4.6-3.6,3-7c0.3-0.5,0.7-0.5,1,0c2.2,4.3,7.2,7,11.5,5.5c2.5-0.9,4.7-0.7,7.2-0.5
			c2.3,0.2,4.7,0.4,6.6-1.5c2.5-2.5,5.1-2.1,8-0.4c2.7,1.6,5,2.6,2.3,6.3c-1.5,2.1-0.4,4.4,1.4,6.2c3.5,3.6,3.7,7.2-0.3,10.5
			c-1.9,1.5-1.5,2.7,0.1,4c1.5,1.1,2.9,2.3,4.4-0.2c1.9-3.1,3.6-2,5.1,0.6c1.2,2,1.7,4.4,5.3,4.1c2.5-0.2,0.9,2.9,1.4,4.4
			c-0.4,0.3-0.9,0.5-1.4,0.4c-2.9-1.8-6-2.2-9.5-1.9c-5.1,0.4-9-2.9-12.7-5.6c-2.3-1.7-2-4.9,0.5-7c2.2-1.8,2.4-3.7,1.2-6.1
			c-1.1-2.2-0.7-4.3,0.2-6.7c1.6-3.8,0.2-5.3-3.9-4.4c-7.1,1.5-14.3,3-21.6,2.2c-1.6-0.1-3.2-0.2-4.6-1
			C239.5,93.3,236.9,95.1,236.6,91z"/>
		<path class="st95" d="M292.5,123c0.3,0,0.7,0,1,0c2.6,1.4,4.5,2.9,4.5,6.6c0,3,3.5,4.5,5.3,6.9c1.5,1.9,1.3,5.6,5.5,4.1
			c1.1-0.4,1.7,1.6,1.3,3.1c-0.8,2.8-1.5,5.7-3.4,8.1c-1.2,1.5-2.7,3-2.2,5.3c-0.8,0.5-1.6,1.3-2.4,1.6c-1.9,0.7-3.8,0.6-5.4-1
			c-2.1-2,0.3-3.1,0.9-4.6c0.3,0,0.7,0,1,0c6.4-2,7.3-5.2,3-10.1c-5.4-2.4-6.2-9-10.9-12.3C288.8,129.3,291.1,125.4,292.5,123z"/>
		<path class="st22" d="M240.6,84c-0.3,0-0.7,0-1,0c-1.3-1.9-2.8-3.6-0.7-6.1c1.5-1.8,0.6-3.8-1.2-5.1c-2.4-1.7-3.8,0.1-4.8,1.8
			c-2,3.3-4.1,4.7-8.5,3.9c-3.3-0.6-7.1,1.6-10.8,0.5c2.7-4.5,7.2-2,10.7-2.3c2.7-0.2,4.3-0.1,5.2-2.8c1.3-4.4,5.4-5.5,8.7-4.4
			c3,1,4.5,4.6,3.3,8.2C240.8,79.8,240.4,81.9,240.6,84z"/>
		<path class="st96" d="M307.5,78c3.1,2.2,3.9,5.3,4.1,9c0.3,6.6,0.9,13.1-1,19.5c-0.7,2.2,0.9,3.8,1.9,5.4
			c-4.1,1.2-4.5-1.8-5.1-4.5c0-0.8,0.1-1.6,0.2-2.3c-0.5-3.9-1-7.7,0.9-11.5c0.8-1.7,0.1-3.9-0.5-5.8c-1.7-5.2-4.5-6.4-9.5-4.1
			c-3.6,1.7-7.2,2.5-10.9,0.3c-6-2.3-6.1-2.5-2.2-8.3c2.1-3,0.5-4.8-1.9-5.1c-5.1-0.5-10.2-5.3-15.5-0.4c-0.6,0.6-2.1,0.6-2-0.2
			c0.4-3.8-4.6-3.8-4.9-7.4c-0.2-2.2-2.8-3-5.2-2.2c-5.1,1.7-9.9,2.2-14-2.5c-1.3-1.5-3.5-0.8-5.2-0.9c1.7-2.8,4.1-2.6,6.4-1
			c4.1,2.7,8.3,4.6,13.3,2.3c0.6-0.3,1.4-0.4,1.9-0.3c7.5,1.8,14.9-2.2,22.3,0c1.7-0.1,2.8,0.8,3.7,2.1c2.9,5.2,5.5,10.5,7.3,16.2
			c0.9,3,2.4,3.7,5.1,2.2C300.2,76.6,303.8,76.3,307.5,78z"/>
		<path class="st97" d="M287.5,84c4.1-0.1,8,0.2,11.9-2.2c3.7-2.4,7.5-0.5,9.1,3.7c1.5,4.1,3.2,8.4-0.3,12.5c-1,1.2-0.5,2.5,0.4,3.6
			s1.4,2.3-0.1,3.4c-0.2-0.1-0.4-0.2-0.7-0.3c-3.6-2.4-6.3-5.6-7.8-9.5c-2.3-5.9-7-8.4-12.5-10.2l0,0
			C287.5,84.7,287.5,84.4,287.5,84z"/>
		<path class="st97" d="M308.5,105c0,0.7,0,1.3,0,2c-1.6,2.9-0.7,4.6,2.3,5.6c1.2,0.4,2.5,0.8,3.7,1.4c0.7,0.7,1.3,1.3,2,2
			c0.6,0.8,0.5,1.8,0.6,2.8c-2.6,4.7-2.6,4.6,2.6,6.8c1.5,0.6,3,1.2,4.5,1.7c1.2,0.5,1.5,1.8,2.2,2.7c0,0.7,0,1.3,0,2
			c0.7,1.4,1.2,2.7,0.4,4.2c-0.9,1.9-0.3,3.6,1.2,4.9c1.6,1.4,2.6,3,2.4,5.2c-0.2,1.9,1.2,2.4,2.6,3c4.9,2.4,6.4,6.1,5.4,11.7
			c-0.7,4,2.8,4,5.3,4.8c1.2,0.4,2.9,0,2.1,2.2c-2,5.4,2,7.3,5.7,8.5c2.8,1,5.1,1.7,3.1,4.9c-3,4.8-1.1,8.6,1.8,12.4
			c-8-1.3-9.2-3.8-4.9-10.5c2.1-3.2,1.4-5.1-2.3-5.4c-4.1-0.3-5.4-3-5.8-6.3c-0.3-2.7-1.3-4.4-4.1-4.8c-0.6-0.3,0.2-0.1-0.4-0.3
			c-4.8-1.2-6.2-4.2-4.6-8.7c-0.8-0.4-1-1.2-1-2c-0.8-1.9-1.3-3.9-4-4.2c-1.2-0.1-2.5-1-2-2.8c1.6-3.7-0.4-5.7-3.5-6.8
			c-2.6-1-3.7-2.6-3.3-5.3c0.2-1.9,2-4,0-5.6c-2.4-1.9-4.7-4.4-8.3-3.7c-1.6,0.3-3.1,0.2-3.8-1.5c-0.6-1.7,1.1-2.2,2-3
			c1.6-0.7,2-1.7,0.5-3c-2.2-2-4.3-4-6.5-6C303.5,109.5,304.9,106.3,308.5,105L308.5,105z"/>
		<path class="st91" d="M310.5,123c-1.4,2-2.5,4.1,1.4,3.9c3-0.2,5.4,1.1,8,2.1c3,1.1,4.4,2.9,2.5,6c-1.8,3.1-1.1,5.2,2.2,6.7
			c3.2,1.4,5.2,3.6,2.8,7.3c-0.2-1.6,0.7-3.7-2-4c-0.1-1.1-0.6-1.9-1.8-2c-2.6-0.2-4.2-1.4-4.5-4.3c-0.2-1.5-1.4-2.5-2.7-3.4
			c-1.3-0.9-2.4-2-0.3-3.4c1.5-0.9,0.8-1.9-0.1-2.8c-1-1-2.2-1.6-3.6-1c-1.3,0.6-0.6,1.6-0.2,2.5c2.1,5.2-2.3,2.5-3.9,3.2
			c0.5-2.8,1.8-5.3-1.2-8.2C305.6,124.1,309,123.5,310.5,123z"/>
		<path class="st60" d="M308.5,105c-3.6,2-3.9,5.5-4,9c-3.3-0.7-1.6-2.7-0.9-4.1c2.2-4.3,1.1-7.3-3-9.9c-3.2-2-6-4.3-6.4-8.8
			c-0.3-3.4-4.5-4-6.7-6.1c5.7,0.5,10.5,2.2,12.7,8.2C301.9,97.8,305.7,101.1,308.5,105z"/>
		<path class="st91" d="M327.5,149c0.4,0.9,1.1,1.9,2.2,1.8c4.3-0.4,4.6,1.9,3.8,5.2c-2.2-1-4.5-1.9-6.6-3.1
			C324.3,151.3,325.9,150.1,327.5,149z"/>
		<path class="st91" d="M334.5,158c0.1,0.1,0.3,0.2,0.4,0.3c0.3,2,3.2,7.4,4.6,8.7c-0.8-0.2-1.6-0.4-2.4-0.7
			C329.8,163.9,329.8,163.9,334.5,158z"/>
		<path class="st76" d="M379.4,175.9c-0.3,2.3-0.7,4.7-1,7c-1-0.6-1.4-2.2-2.9-2c0.3-1.3,0.6-2.7,1-4c0.3,0,0.7,0,1,0
			C378.1,176.6,378.8,176.3,379.4,175.9z"/>
		<path class="st11" d="M330.5,86c0.5,3.6,5,3.8,6,7c-1.2-0.6-2.3-1.5-3.5-1.7C329.3,90.8,329.6,88.6,330.5,86z"/>
		<path class="st67" d="M331.5,84c7.5,3.7,14.9,8.4,19.2,15.3c5.4,8.7,11.9,16.6,16.8,25.6c0.2,0.4,0.4,1,0.8,1.2
			c13.3,7.6,8.5,21.4,11.1,32.6c0.7,2.9,0.9,6.2,1.2,9.3c-2.9-4.7-5.3-9.1-5.4-15.2c-0.1-6.9-1.1-14.2-6.2-20.4
			c-4.2-5.2-8.3-10.7-11.8-16.1c-3.3-5.2-8.7-8.9-10.8-15.1c-1.8-5.2-6.6-8.6-10.7-12.3C334,87.4,332.6,85.8,331.5,84z"/>
		<path class="st98" d="M292.5,123c0,2.4,0.5,5-2.3,6.7c6.8,2.1,5.9,10.7,12.3,12.3c0.8,3.3,1.8,6.7-2,9c-0.3-2.3-1.7-4-3.2-5.4
			c-1.2-1.2-1.7-2.2-1.8-3.8c-0.4-6.3-4.5-10.3-10.6-10.6c-1,0-2.3,1.5-3-0.2c-0.6-1.6,0.8-2.2,1.9-3c1.4-1.1,3.3-1.5,4.4-3.9
			c-5,1.7-8.7,0.7-12-3.4c-2.3-2.9-6.4-1.8-8.8,1.3c-1.4,1.8-3.7,2.7-5.6,2.7c-2.6,0-2.5-2.1-1.2-3.9c2.4-3.4,3.4-7.5,6-10.8
			c2.4-3,3.6-6.7,3-10.8c1.6-3.5,0.2-5.2-3.3-4.9c-3.7,0.3-7.5,0-11.2,1.3c-3.1,1.1-6.3,0.8-8.4-2.4c7.4,0,14.8-0.8,21.9-2.8
			c1.6-0.5,3.4-1.3,4.5,0.5c1.1,1.6,2,3.7,0.4,5.5c-2.2,2.4-1.9,4.7-0.3,7.1c1.7,2.6,1.8,4.7-1.6,6.3c-3.4,1.7-2.8,4.7-0.3,6.3
			c3.7,2.4,7.3,5.5,12.6,4.2C286.9,119.4,290.5,119.4,292.5,123z"/>
		<path class="st70" d="M246.5,93c5.1,3.5,10.4,0.9,15.7,0.6c1.5-0.1,2.9-0.5,4.4-0.6c1.6-0.1,3.3-0.3,4.2,1.7
			c0.9,1.9-0.1,3.1-1.3,4.3c0.2-3-1.3-4.1-4.2-4c-3.7,0.2-7.3,0.2-11.1,1.3c-4.4,1.2-8.8-0.8-12.7-3.3C243.2,93,244.9,93,246.5,93z"
			/>
		<path class="st93" d="M300.5,151c1.5-2.8,1.3-6,2-9c2.2,2.4,4.6,4.4,2.2,8.6c-1.8,3-3.4,3.4-6.2,2.4
			C298.9,152,299.6,151.4,300.5,151z"/>
		<path class="st53" d="M222.5,91.3c0.1,2.1-0.7,3.6-3.1,3.6c-1.5,0-2.9-0.7-2.5-2.3c0.4-1.7,0.3-4.4,3.1-4.4
			C222,88.2,222.5,89.7,222.5,91.3z"/>
		<path class="st89" d="M283.5,60c-1-0.7-2-1.3-3-2c-3-2.5-6.5-2-10-2c0-0.3,0-0.7,0-1c4-0.3,7.9,0.3,11.8,1.4
			c3.8,1.1,6.5,3.2,7.5,7.2c0.6,2.3,2.2,4,3.5,5.9c3,4.6,6.9,6.6,12.2,6.5c-6.5,3.5-12.2,2.1-15.8-4.3
			C287.5,67.9,285.6,63.9,283.5,60z"/>
		<path class="st73" d="M283.5,60c3,2.7,4.1,6.7,6.3,9.9c4.9,7.1,7.5,8.2,15.7,6.1c0.3,0,0.7,0,1,0c0.3,0.7,0.7,1.3,1,2
			c-3.9,0.5-8-0.7-11.6,2.5c-1.5,1.3-4.5,1.1-5.2-1.8c-1.3-5.9-3.8-11.2-6.8-16.3C283.5,61.8,283.6,60.9,283.5,60z"/>
		<path class="st82" d="M386.4,59c1.2,9.9,7.6,17.7,11.1,26.7c0.8,2,2.1,3.6,3.9,5c1.8,1.3,3.3,2.8,3,5.3
			c-4.9-3.8-9.2-7.9-11.5-13.9c-2.1-5.5-6-10.1-7.3-16.1C385,63.2,385.3,61.2,386.4,59z"/>
		<path class="st16" d="M255.5,40.1c10.4-1.1,20.9-3.1,31,2C276.3,39.2,265.9,40.2,255.5,40.1z"/>
		<path class="st99" d="M363.5,108c-3.2-2.4-5.9-5.2-8.3-8.4c-2.4-3.3-5-6.4-8.4-8.9c-9.4-6.9-15.3-16.9-21.5-26.5
			c-4.7-7.3-9.1-14.5-16.8-19.1c7.3,0.2,11.1,5.9,14.7,10.8c6.5,8.7,11.9,18.2,19.3,26.2c0,2-0.2,4,2.1,5.1c4.3,2,7.4,5.5,9.8,9.4
			C357,100.7,361.7,103.2,363.5,108z"/>
		<path class="st85" d="M281.2,138.1c2.1,0.4,3.6,2.3,3.8,4.4c0.2,2.2-2.4,2.1-3.7,2.2c-2.5,0.3-2.7-1.8-2.7-3.8
			C278.5,139.3,278.8,137.9,281.2,138.1z"/>
		<path class="st96" d="M316.5,119c0-1,0-2,0-3c1.9,4.3,4.3,8.1,8.8,10c1.7,0.7,1,2.5,1.2,3.9c-1-0.4-1.6-1-2-2
			c-2.2-0.8-4.1-1.8-6.1-3C315.8,123.5,314.8,121.7,316.5,119z"/>
		<path class="st90" d="M314.5,114c-1.3-0.3-2.6-0.5-3.8-0.8c-5.1-1.2-5.2-1.5-2.2-6.2c-0.1,2.8,1.1,4.6,4,5
			C313.2,112.7,313.8,113.3,314.5,114z"/>
		<path class="st62" d="M340.5,195.9c-1.5-0.6-3.1-1.2-4.5-1.8c-1.1-0.5-1.7-1.7-0.5-2.2c4.3-2,3.7-4.9,2.2-8.3
			c-0.2-0.3,0.6-1.1,0.9-1.6c2.9,3.3,5.1,6.5,0.3,10.2C337.7,193,340,194.6,340.5,195.9z"/>
		<path class="st90" d="M316.5,119c-0.6,3.1,1.1,4.8,3.6,6.1c1.5,0.8,2.9,1.9,4.4,2.9c-3.5,0.5-6.6-1.3-9.3-2.7
			C311.4,123.5,313.9,120.8,316.5,119z"/>
	</g>
</g>
</svg>
