<?xml version="1.0" encoding="utf-8"?>
<!-- Generator: Adobe Illustrator 25.0.0, SVG Export Plug-In . SVG Version: 6.00 Build 0)  -->
<svg version="1.1" id="Camada_1" xmlns="http://www.w3.org/2000/svg" xmlns:xlink="http://www.w3.org/1999/xlink" x="0px" y="0px"
	 viewBox="0 0 522.9 168.9" style="enable-background:new 0 0 522.9 168.9;" xml:space="preserve">
<style type="text/css">
	.st0{display:none;}
	.st1{display:inline;fill:#FF0000;stroke:#000000;stroke-miterlimit:10;}
	.st2{fill:#2E3232;}
	.st3{fill:#51524D;}
	.st4{fill:#646466;}
	.st5{fill:#838B8E;}
	.st6{fill:#737676;}
	.st7{fill:#9F9F9B;}
	.st8{fill:#1C1F20;}
	.st9{fill:#0F1111;}
	.st10{fill:#222424;}
	.st11{fill:#171819;}
	.st12{fill:#202324;}
	.st13{fill:#313434;}
	.st14{fill:#161818;}
	.st15{fill:#1A1D1E;}
	.st16{fill:#474D4D;}
	.st17{fill:#2B2F30;}
	.st18{fill:#282C2D;}
	.st19{fill:#8DA2A9;}
	.st20{fill:#232627;}
	.st21{fill:#2E3132;}
	.st22{fill:#BDD2D8;}
	.st23{fill:#515555;}
	.st24{fill:#9FB5BD;}
	.st25{fill:#434A4E;}
	.st26{fill:#B3CBD4;}
	.st27{fill:#2D3131;}
	.st28{fill:#2D3233;}
	.st29{fill:#3F4546;}
	.st30{fill:#6D7473;}
	.st31{fill:#3D4344;}
	.st32{fill:#454743;}
	.st33{fill:#52524D;}
	.st34{fill:#5B6160;}
	.st35{fill:#111213;}
	.st36{fill:#4B4B45;}
	.st37{fill:#98A098;}
	.st38{fill:#1F2324;}
	.st39{fill:#7A8280;}
	.st40{fill:#AFB6B1;}
	.st41{fill:#0D0E0E;}
	.st42{fill:#323A3E;}
	.st43{fill:#A8AFAA;}
	.st44{fill:#202222;}
	.st45{fill:#363937;}
	.st46{fill:#121313;}
	.st47{fill:#666E6D;}
	.st48{fill:#2A2D2E;}
	.st49{fill:#D7DDD8;}
	.st50{fill:#DDE3DE;}
	.st51{fill:#3D4A52;}
	.st52{fill:#606867;}
	.st53{fill:#6C7473;}
	.st54{fill:#4B504F;}
	.st55{fill:#393E3E;}
	.st56{fill:#2A2E2F;}
	.st57{fill:#3C4141;}
	.st58{fill:#313637;}
	.st59{fill:#717877;}
	.st60{fill:#777F7D;}
	.st61{fill:#828A88;}
	.st62{fill:#252727;}
	.st63{fill:#343737;}
	.st64{fill:#0C0E0E;}
	.st65{fill:#121414;}
	.st66{fill:#A3AAA6;}
	.st67{fill:#616868;}
	.st68{fill:#5F6666;}
	.st69{fill:#5A6161;}
	.st70{fill:#697170;}
	.st71{fill:#323738;}
	.st72{fill:#545A5A;}
	.st73{fill:#424848;}
	.st74{fill:#585E5E;}
	.st75{fill:#373C3C;}
	.st76{fill:#9AA29F;}
	.st77{fill:#636A6A;}
	.st78{fill:#636A69;}
	.st79{fill:#DCE1DD;}
	.st80{fill:#4B5253;}
	.st81{fill:#626969;}
	.st82{fill:#17191A;}
	.st83{fill:#747B7A;}
	.st84{fill:#596060;}
	.st85{fill:#4D5353;}
	.st86{fill:#3C403F;}
	.st87{fill:#181B1C;}
	.st88{fill:#151819;}
	.st89{fill:#141617;}
	.st90{fill:#090A0A;}
	.st91{fill:#0A0B0B;}
	.st92{fill:#2C3031;}
	.st93{fill:#242828;}
	.st94{fill:#2A2E2E;}
	.st95{fill:#494E4E;}
	.st96{fill:#484E4E;}
	.st97{fill:#5A6060;}
	.st98{fill:#676E6D;}
	.st99{fill:#4E5454;}
	.st100{fill:#535A59;}
	.st101{fill:#505554;}
	.st102{fill:#515757;}
	.st103{fill:#5B6161;}
	.st104{fill:#525857;}
	.st105{fill:#111314;}
	.st106{fill:#171A1A;}
	.st107{fill:#6B7271;}
	.st108{fill:#545B5B;}
	.st109{fill:#4F5656;}
	.st110{fill:#7C8382;}
	.st111{fill:#8D9592;}
	.st112{fill:#373C3D;}
	.st113{fill:#A2A9A1;}
	.st114{fill:#7D8583;}
	.st115{fill:#828A89;}
	.st116{fill:#7B8281;}
	.st117{fill:#A6ADA9;}
	.st118{fill:#B3BBB6;}
	.st119{fill:#2B3236;}
	.st120{fill:#5F6766;}
	.st121{fill:#242727;}
	.st122{fill:#3C3F40;}
	.st123{fill:#363A3B;}
	.st124{fill:#3C4040;}
	.st125{fill:#7D8584;}
	.st126{fill:#757D7C;}
	.st127{fill:#747C7A;}
	.st128{fill:#7C8483;}
	.st129{fill:#88908E;}
	.st130{fill:#636B6A;}
	.st131{fill:#9AA19D;}
	.st132{fill:#292C2C;}
	.st133{fill:#3C4242;}
	.st134{fill:#323637;}
	.st135{fill:#3F4444;}
	.st136{fill:#4D5252;}
	.st137{fill:#79817F;}
	.st138{fill:#8D9492;}
	.st139{fill:#727A78;}
	.st140{fill:#5E6565;}
	.st141{fill:#2F3334;}
	.st142{fill:#707776;}
	.st143{fill:#272A2B;}
	.st144{fill:#6E7675;}
	.st145{fill:#151717;}
	.st146{fill:#292D2D;}
	.st147{fill:#575D5D;}
	.st148{fill:#505656;}
	.st149{fill:#444A4A;}
	.st150{fill:#3D4549;}
	.st151{fill:#21201D;}
	.st152{fill:#1E2122;}
	.st153{fill:#191B1C;}
	.st154{fill:#282B2B;}
	.st155{fill:#ACB3AE;}
	.st156{fill:#DBE1DE;}
</style>
<g id="Camada_2_1_" class="st0">
	<rect x="-126.1" y="-93.1" class="st1" width="807" height="373"/>
</g>
<g id="Camada_1_1_">
	<g>
		<path class="st2" d="M260.9,168.8c-4-3.7-10-3.3-14.1-6.7c-2-3.3-6.9-3.5-8.4-7.4c-0.1-0.8,0-1.5,0.5-2c5.9,2.2,11.5,5,17.2,7.6
			c4.8,2.2,6,2.1,8.3-2.5c5.2-10.1,9.1-20.9,15.1-30.7c2.2-3.7,4.2-7.6,6.2-11.4c3.4-6.2,10.4-7.9,15.3-4c-0.3,0.6-0.8,1.2-1.5,1.1
			c-5.2-0.2-8.1,3.1-10.5,6.9c-3.2,5.2-7.3,9.9-8.3,16.2c-5.4,11.3-10.9,22.5-17.9,33C262.2,168.8,261.6,168.8,260.9,168.8z"/>
		<path class="st3" d="M488.8,57.8c-0.3-4.7,3.4-3.5,5.5-3.1c6.6,1.4,13.2,0.5,19.8,0.9c3,0.2,5.8-1.9,8.8-0.7c0,1,0,2,0,3
			c-2.5,2,0.9,5.4-1.6,7.4c-9.9-1.1-19.8,0.2-29.7,0.1c-2.5,0-5,0-7.4-0.6c-2.3-1.1-5.7-0.1-6.5-3.7c1.5-2.3,3.9-2.1,6.2-2.3
			C485.4,58.8,487.4,59.7,488.8,57.8z"/>
		<path class="st4" d="M1,114.9c-0.3,0-0.6-0.1-1-0.1c0-14.3,0-28.6,0-42.9c0.7-0.1,1.3,0.2,1.6,0.8c1,1.8,0.9,3.8,0.9,5.8
			c0,9.9,0.1,19.9,0,29.8C2.6,110.7,2.9,113.1,1,114.9z"/>
		<path class="st5" d="M1,71.9c-0.3,0-0.6,0-1,0c0-12,0-24,0-36c0.3-0.2,0.6-0.3,0.9-0.1c1.7,1.4,1.4,3.4,1.5,5.3
			c0,7.9,0.2,15.8,0.1,23.8c0,2.1,0.2,4.3-0.9,6.3C1.4,71.4,1.2,71.7,1,71.9z"/>
		<path class="st6" d="M521.6,65c0.3-2.4-2.8-5.3,1.2-7.1c0,4.7,0,9.3,0,14c-0.4,0-0.7-0.1-1.1-0.1C520.1,69.5,520,67.3,521.6,65z"
			/>
		<path class="st7" d="M241,1.1c0-0.4-0.1-0.7-0.1-1.1c3.7,0,7.3,0,11,0c0,0.4-0.1,0.7-0.1,1.1C248.2,2.9,244.6,3.3,241,1.1z"/>
		<path class="st8" d="M262.7,77c-7.3-0.4-14.6-0.8-21.8-1.2c-8.1-0.9-16.2-0.4-24.3-0.3c-4,0-7.5-0.3-10-3.8
			c-0.2-0.5-0.3-1.1-0.3-1.6c0.3-1.5,1.2-2.5,2.5-3.3c6.1-5.2,13.5-5.6,21-5.3c2.8,0.1,5.6,0,8.4,0.1c2.7,0.3,5.3-0.3,7.7-1.5
			c1.6-0.4,3.2-0.5,4.7,0.1c4.3,2.1,8.6,2,12.9,0.1c1-0.4,1.9-0.4,2.9-0.2c2.4,1.6,4.9,1.6,7.2-0.2c2.2-0.5,4.4-0.5,6.5,0.3
			c3.2,2,6.7,1.2,10.1,1.2c4.4,0.1,8.9,0,13.3,0c1.8-0.1,3.5-0.1,5.3,0c3.8,0,7.6,0,11.4,0c3.7-0.2,7.2,0.5,10.8,1
			c1,0,2,0.3,2.9,0.1c6.6-1.4,10.6,1.8,13.4,7.3c1.8,3.3,3.8,6.6,5.9,9.7c1.5,2.4,2.9,4.8,4.2,7.2c1.5,3.1,3.7,5.9,4.3,9.5
			c0.2,0.9,0.4,1.8,0.7,2.6c0.8,2.1,2,1.7,3.4,0.6c1.4-1.2,2.4-2.7,2.3-4.7c0-0.5,0.2-0.9,0.5-1.4c0.5-0.6,1.1-0.9,2-0.7
			c2.3,2.7,1.2,6.3,2.5,9.3c-4.2,3.8-8.1,8-14,9.1c-0.4-0.2-0.8-0.4-1-0.9c-0.3-0.9-0.4-1.8-0.4-2.7c-0.1-0.7-0.2-1.4-0.3-2
			c-2.2-5.2-5.6-9.7-8.3-14.6c-2-3.6-4.1-7.2-5.8-11c-4.1-7.7-11.7-7.9-19-8.6c-4.3-0.4-8.6-0.2-13,0c-23-0.2-46-1.3-67.5-1.8
			c4.2,0.9,10.1,0.2,16,0.3c2,0.1,4.1-0.2,5.6,1.4c1.3,1.4,3.4,3,2.5,5C267,78.8,264.6,77.4,262.7,77z"/>
		<path class="st9" d="M373.2,102c-2.1-0.8-2.3-2.5-2.3-4.5c0-1.6,0.6-3.4-1-4.7c-1.5-1-2-2.6-2.9-4.1c-0.6-1.4-1.2-2.8-0.3-4.2
			c1.2-1.3,2.9-2.1,4.5-1.7c5.6,1.3,11.3,1.2,17,2.1c3.8,0.6,7.6,0.1,11.2-1.4c1.4-0.6,2.7-1.6,4.1-0.4c4.3,3.6,8.8,1.8,13.1,0.2
			c1.7-0.6,3.1-1.3,4.5,0.1c2,1.9,4.2,1.4,6.6,1.3c3-0.2,4.5-1.1,4.3-4.6c-0.2-2.4,0.2-5.3,3.9-2.4c1.4,1.1,2.7-2.3,4.3-0.4
			c4.1,5.7,9.1,4.6,14.3,1.8c4.6,1.2,7.4,4.8,10.3,8.1c1.8,2.1,1.9,4.9,0.4,7.4c-1.8,2.8-4.5,4-7.7,3.2c-2.9-0.7-5.7-1.4-8.6-1.9
			c-9-1.3-17.8,0.7-26.7,1.2c-14.9,1-29.7,2.5-44.6,3.7C375.8,101,374.5,101.2,373.2,102z"/>
		<path class="st10" d="M448.7,96c2.8-0.4,5.5-1,8.4,0.6c2.4,1.4,5.1,0,6.8-2.4c1.6-2.2,1.3-4.9-0.4-6.4c-3.1-2.8-5.5-6.5-9.8-7.9
			c-0.6-0.5-0.6-1.1-0.4-1.7c0.1-0.5,0.6-0.8,0.6-1.3c-0.4,0.3-0.8,0.4-1.3,0.2c-0.9-0.6-1.7-1.4-2.2-2.5c-1.2-3.6-0.4-5,3.9-5.7
			c4.2-0.6,8.3-1.8,12.6-0.6c1.9,1.8,4.6,2.1,6.9,3.3c-3.9,6.2-1.1,13.8-4.4,20.1c-0.5,3-3.1,4.5-4.9,6.5c-1.2,1.3-2.8,2.5-1.5,4.6
			c-3.3,1.9-6.1,1.3-7.9-1.9C453.6,98.4,451.2,97.1,448.7,96z"/>
		<path class="st11" d="M521.6,65c0,2.2,0,4.5,0.1,6.7c-6.3-1.3-12.7-0.9-19.1-0.9c-2.2,0-4.5,0.3-6.7,0.7c-2.3,0.4-6.1,2.7-7.5-2.4
			c-0.5-1.9-10.1-0.4-11.7,1.7c-0.5,0.9-1,1.6-2.2,1.1c-0.4-0.5-1.1-0.9-1.3-1.6c0.6-2.7-0.9-6.1,0.7-8.1c2.1-2.7,4.3,2.2,7.1,1.2
			c0.8-0.3,2-0.3,2.9,0.4c9.7-0.2,19.5,0.6,29.2-0.8C516,62.7,519,63.6,521.6,65z"/>
		<path class="st12" d="M280.8,135.8c-1,0.4-2.2,0.7-1.3-1c3.7-7.4,7.5-14.7,12.9-21.1c2.6-3.2,5.9-1.1,8.7-2c1.7-1.6,3.9-1.9,6-1.7
			c11.2,1,22.4,0.2,33.6,0.4c3.9,0,7.8,0.1,11.6-0.7c2.2-0.5,4.6-0.6,6.5,1.1l0.3,0.3c-7.2,3.8-15.1,3-22.7,3.4
			c-11.9,0.6-23.9,0.7-35.9,0.9c-6,0.1-10.1,2.9-12.8,8.2C285.6,127.8,283.1,131.8,280.8,135.8z"/>
		<path class="st13" d="M474.8,71.9c0.6-0.3,1.3-0.6,1.9-1c0,5.7-1.3,11.1-3.8,16.2c-2.2,0.9-1.5,4.3-4.1,4.8
			c-1.4-1.1-0.7-2.2,0-3.4c1.5-2.9,2.6-5.6,1.3-9.2c-0.9-2.6,0.6-5.8,3.9-7.2C474.1,71.5,474.4,71.5,474.8,71.9z"/>
		<path class="st14" d="M468.8,91.9c1-1.9,1.7-4,3-5.6c1.1-1.4,0.7,0.6,1.2,0.8c-0.8,6.8-5.5,11.2-10,15.8c-2.8-0.1-3.8-0.8-1.5-3.3
			C464,97.1,466.4,94.5,468.8,91.9z"/>
		<path class="st15" d="M1,114.9c0-14.3,0-28.7,0-43L1.1,72c0.4-0.3,0.8-0.5,1.4-0.4c4.6,2.1,10.2,2,13.9,6c1.6,0-0.9,4,2.4,2.5
			c3.4-2.7,7.4-3.5,11.7-3.5c15.1,0,30.2,0,45.3-0.1c1.5,0,3.7,1.3,4.4-1.4c-5.5-3.2-11.5-1.3-17.1-1.4c-12.6-0.4-25.2-0.2-37.8-0.2
			c-2.3,0-4.7,0.2-6.9-0.5c-1.6-2.9-5.5-2.5-7.4-5.1c1.9-5.1,1.6-10.5,1.8-15.8c0.2-7.3,0-14.6,0.1-21.9c0-2.2-0.4-4.7,1.9-6.3
			c2.2,1.2,1.6,3.6,2.3,5.3c0.1,0.5,0.2,1.1,0.3,1.6c-0.7,6.8-1,13.6-0.4,20.5c-0.1,4.4-1.4,9,2,12.9c7,0.6,14.1,0.1,21.1,0.3
			c2,0.1,4-0.1,5.9,0.6c4.9,1.6,10.1,0.6,15,1.4c8.6,1.4,17.5-1.9,25.8,2c4.1,1,6.5,4.4,9.8,6.6c2.7,1.5,4.9,3.9,7.9,5
			c4.3,0.7,8.6,0.3,12.9,0.3c26.1,0.1,52.2,0,78.3,0.1c5.9,0,6.7,0.7,7.5,5.5c-0.4,0.6-0.8,1.3-1.2,1.9c-2.8,2.1-6.1,1.5-9.1,1.4
			c-18.4-0.3-36.7,0.3-55.1,0.1c-2.3,0-4.7-0.5-6.6,1.3c-1.4,4.9-2.3,9.9-1,15c0.2,1,0.5,2,0,3.1c-1.3,0.3-2.6,0.4-3.8-0.2
			c-0.9-3.4-0.3-6.9-0.3-10.4c-1.3-1.2-0.5,1.2-1.3,0.8c-5.1,0.8-6.9-0.8-7.7-6c-0.4,2.4,1.8,6.1,0.3,9.9c-4.1,0.9-8.2,0.6-12.3,0.2
			c-11.2,0-22.3,0.1-33.5,0c-2.8,0-5.3,0.4-7,2.7c-8.5,11.5-19.7,15.5-33.8,13.5c-5.1-0.7-10.6-0.7-16,0.7
			C9.6,121.3,4.8,118.4,1,114.9z"/>
		<path class="st16" d="M262.7,77c1.5-0.1,2.9-0.2,4.5-0.3c-1.4-5-4.8-6.1-9.5-5.9c-5.6,0.3-11.2,0.6-17.4-1.6
			c24.4-0.9,48,0.6,71.6,0.7c5.6,2.2,11.8,0.3,17.5,2.3c2.6,0.9,6.2,0.4,6.8,4.5c-0.1,0.3-0.3,0.7-0.6,0.8
			c-4.3,0.7-8.2,1.6-11.3,5.3c-1.5,1.9-4.5-0.2-4.1-3.3c0.5-3.5-0.7-4.2-3.7-3.4c-1.2,0.3-2.3,0-3.4-0.4c-7.3-2-14.8-1.9-22.2-2.3
			c-4.9-0.3-10.1,0.1-15.2,0.7c-2.6,0.3-2.9,1.7-3.2,3.6c-0.2,0.4-0.5,0.8-0.9,1.1c-1.4,1-2.7,2.2-4.6,1.2
			C265.5,79,264.1,78,262.7,77z"/>
		<path class="st17" d="M203,86c-1-3.6-3.5-4.1-6.9-4.1c-29.5,0.1-58.9,0.1-88.4,0c-1.9,0-4,0.8-5.7-0.9c4.4-0.1,4.1-4,5.3-6.6
			c3.4-1.4,6.9-0.6,10.4-0.9c1.8,0.1,3.7-0.7,5.3,0.7c1,0.9,1.4,2.1,1.4,3.4c-0.2,0.5-0.4,0.9-0.8,1.1c-2,1.2-4.5,0.7-7.6,1.9
			c3.1-1.1,5.2-0.7,7.3-1c2.8,0,5.5-0.3,8.3-0.1c20.2-0.2,40.5-0.1,60.7-0.1c3.4,0,6.6-0.4,9-3.3c2.3-1.4,2.3-5.3,5.9-5.2
			c0.7,1.7,5.4-1,3.8,3.5c-0.2,0.5,2,0.5,3.1,0.5c7.4,0,14.9,0,22.3,0.1c1.6,0,3.3-0.5,4.7,0.8c-8.4,0-16.9,0.3-25.3,0
			c-4.4-0.2-7.2,0.9-9,5C205.7,82.6,204.2,84.3,203,86z"/>
		<path class="st18" d="M129,90c0.4-2.9,2.6-2.1,4.3-2c9.3,0.2,18.7,0.5,27.9,0.2c13.6-0.5,27.1,0.1,40.6-0.2
			c-0.5,1.4-1,2.8-2.7,3.2c-0.2,0-0.5,0-0.7,0.1c-4,2.2-8.4,1.2-12.7,1.5c-3,1.6-6.2,1-9.3,0.8c-7.1-0.4-14.1-0.2-21.2-0.2
			c-8.4-0.1-16.8,0.2-25.2,0C129,92.4,129.9,90.9,129,90z"/>
		<path class="st19" d="M239,152.9c0,0.6,0,1.3,0,1.9c0.5,1,0,1.5-0.9,1.8c-0.5-0.6-1-1.2-1.4-1.8c0.4-1.7,0.4-3.3,0.1-5
			c8.6-14,17.3-27.9,25.9-41.9c1.8-3,3.6-6,5.3-9c1.2-0.4,1.9,0.2,2.3,1.2c0.1,2.5-1.5,4.3-2.6,6.3c-7.8,13.8-16.9,26.9-25.1,40.5
			C241.3,148.9,240.6,151.2,239,152.9z"/>
		<path class="st20" d="M129.9,108.8c-0.3-0.6-0.6-1.3-1-1.9c1.7-1.7,3.9-1.5,6-1.5c6.2,0,12.5-0.1,18.7,0c6.3,0.3,12.6,0,19,0.2
			c2.2,0.1,4.9-0.2,5.2,3.2C161.9,108.8,145.9,108.8,129.9,108.8z"/>
		<path class="st21" d="M177.9,108.8c-1.2-2.3-3.3-1.8-5.2-1.9c-6.3,0-12.6-0.1-18.8-0.1c0.8-2.9,3.3-2.3,5.3-2.3
			c6.4-0.2,12.9-0.4,19.3,0c5.7,0.3,10-1,12.7-6.3c0.6-1.1,1.6-2.1,2.3-3.2c1.6-1.7,2.3-4.4,5.4-4.2l0.2,0.2
			c-2.1,6.1-6.3,10.9-9.5,16.4c-1.3,2.2-3.4,1.5-5.3,1.5C182.2,109,180,108.8,177.9,108.8z"/>
		<path class="st22" d="M266.9,80c1.7,0.2,2.6-1.1,3.8-2c4.7,2.9,6.3,7.8,4.4,13.4c-1.2,1.2-2.6,1.2-4,0.5
			C272.7,86.9,271.2,83,266.9,80z"/>
		<path class="st23" d="M104.7,103c4-1.2,8.2,0.7,12.2-1.1c3.2-1.6,5.1,1.1,7.4,2.1c0.9-2.3-0.1-5,1.6-7.1c1.9,3.9,1.5,7.8,0.2,11.7
			C119.7,103.8,112.3,103.1,104.7,103z"/>
		<path class="st24" d="M271,91.9c0.9-0.7,1.9-0.6,2.8-0.1c0.3,0.4,0.5,0.8,0.5,1.3c-0.7,2.8-1.6,5.4-4.5,6.7
			c-0.6-0.3-1.3-0.6-1.9-1C269,96.6,270,94.3,271,91.9z"/>
		<path class="st25" d="M238.1,156.6c0.3-0.6,0.6-1.2,0.9-1.8c2.1,3,7.2,2.7,7.8,7.3C243.5,160.8,240.5,159.1,238.1,156.6z"/>
		<path class="st26" d="M236.7,149.8c1.8,1.7,1.9,3.4-0.1,5C235.4,153.1,235.4,151.5,236.7,149.8z"/>
		<path class="st27" d="M233.8,29c0.1-0.3,0.2-0.7,0.3-1c2.4-3.9,5.5-5.2,10.1-4c5.5,1.5,6.6,0.4,6.7-5.2c1-1.3,2-2.6,3-4
			c3.2,1.4,6.5,0.7,9.7,0.7c13.1-0.1,26.2,0,39.3-0.1c12.9,0,25.7,0,38.6,0c4.7,0,9.4,0,14.2-0.1c0.7-0.2,0-1.1,0.2-0.5
			c-4.8,1.3-9.7,0.2-14.5,0.6c-12.8,0-25.6,0-38.3,0c-14.7,0-29.5,0.1-44.2,0c-1.6,0-3.3,0.5-4.8-0.6c3.1-4.7,8.3-3,11.9-2.4
			c5,0.8,9.8-0.2,14.7,0.2c8.3,0.8,16.9-1,25.2,0c5.2,0.6,10.2-1.6,15.5,0.7c2.9,1.3,7-0.1,10.3-0.3c5.1-0.3,10.3,1.4,15.4-0.4
			c3.5-1.2,6.9,1.1,10.6,0.5c2-0.3,1.5,2.2,1.7,3.5c0.3,1.4-0.5,2.2-1.9,2.2c-0.8,0-1.7,0.2-2.5,0c-8.1-1.6-13.7,1.4-16.9,9
			c-3.3,3.2-8.2,3.5-13.2,0.9c-1.7-3.3,2.1-5.3,2.2-8.6c-11.8-0.6-23.5,1.2-35.1-0.8c-9.9-0.1-19.9-0.1-29.8,0
			c-3.4,0.1-6.5,0-5.1,4.9c0.2,0.6-0.4,1.2-0.9,1.7c-1.6,3.9-4.8,4.8-8.6,4.4C242.7,29.9,238,31.7,233.8,29z"/>
		<path class="st28" d="M476.7,37c0.3,5.3,0.7,10.6,1,15.9c-0.3,0.3-0.7,0.4-1.1,0.3c-1.4-1-3.1-1.1-4.7-1.6c-2.6-0.8-1.7,3.1-4,2.9
			c-1.9,0.1-3.8-0.1-5.7-0.4c-1.7-0.3-3.2-0.8-2.9-3c0.5-1.8,1.8-1.2,2.9-1c-0.8-0.3-1.7-0.7-2.5,0.1c-0.8,1.4-2,1.8-3.5,1.2
			c-0.5-0.3-1-1.2-1.5-1c-1,0.3-0.1,1,0,1.5c0.2,1.2,0.2,2.2-0.6,3.2c-3.1,0.2-4.1-3.8-7.2-3.7c-0.9-3.7-3-0.1-4.4-0.7
			c-1.1,0.5-2.2,0.7-3.3,0.1c-2.1-1.1-4.2-0.6-6.3-0.2c-0.7,0.1-1.3,0.1-2,0c-0.8-0.1-1.6-0.4-3-0.5c0.7,1.6,1.7,3.5,0.1,4.6
			c-1.6,1-2-1.1-3-1.8c-1.2-1.2-3.1-0.4-4.2-1.7c-0.3-0.1-0.2-1.1-0.9-0.5c0.4,0.5,0.5,1.1,0.1,1.6c-2.9,2.4-5.4,1-7.8-0.9
			c-0.9-0.2,0.2-1.5-0.8-1.6c-0.5,0-1.9,0-0.3,0.9c0.5,0.3,0.9,0.9,1.1,1.5c-3,2.8-5.9,2.3-8.5-0.6c-0.3-0.6-0.4-1.6-1.4-1.5
			c-0.7,0-0.9,0.7-1,1.3c-2,1.2-3.9,3.3-6.3,0.6c-0.2-0.4-0.5-0.7-0.7-1.1c-1.1-1.3-2.1-0.8-3.1,0.3c-0.7,0.8-1.4,1.6-2.5,2
			c-1.3,0-2-0.8-2.6-1.7c-1.4-1.6-2.7-2-4,0.1c-1.8,2.1-3.7,2.9-5.4-0.1c-0.5-2.1-3.2-1.2-4-2.9c0-1.1,0.6-1.8,1.5-2.3
			c4.7-1.5,9.6-0.1,14.4-1.1c3.3-0.8,5.3-2.1,3.7-5.9c-0.1-0.5-0.1-1,0.1-1.5c3.4-3.4,9.8-3.3,14.9,0.4c-0.1,2.2-4.4,2.4-2.8,5.1
			c1.3,2,3.9,1.3,6,1.3c5.3,0.1,10.6,0.1,15.9,0c1.6,0,3.7,0,3.6-2.3c0-2.1-1.8-2.5-3.5-2.8c-2.5-0.4-5.4,0.5-7.6-1.5
			c0.1-1.7,1.3-2.3,2.6-2.4c8.5-0.3,17-1.5,25.2,1.9c0.8,3-1.8,2.3-3.2,2.8c-1.2,0.5-2.9,0.5-2.9,2.1c0,1.7,1.7,1.9,3,2
			c6.8,0.3,13.6,0.2,20.4,0c1.1,0,2.4-0.2,2.9-1.5c0.5-1.4-0.6-2.1-1.5-2.8c-0.8-0.7-2.2-1.2-1-2.7C468.3,35.7,472.4,34.4,476.7,37z
			"/>
		<path class="st29" d="M345.8,33.3c0.9-2.5,2.5-3.2,5.3-3.2c39.7,0.2,79.5,0.2,119.2,0.1c3.6,0,6.3,0.4,6.3,4.8
			c-6.1,0.7-12.1,3-18.5,1.6c-8.8-2-17.9-1.3-26.8-1.3c-11.8,0-23.5,0.2-35.3,0.2c-15.8-0.1-31.6,0.6-47.3-0.3
			C347.5,34.9,346.2,34.8,345.8,33.3z"/>
		<path class="st30" d="M233.8,29c4.8,0,9.6-0.2,14.4,0c3.8,0.1,6.9,0,5.8-5.4c1.4,0.8,0.8,1.7,1.1,2.4c2.4,2.5,5.5,1.1,8.4,1.4
			c18.6,0.3,37.3,0.1,55.9,0.1c1.8,0,3.7-0.3,5.4,0.4c4.3,1.8,8.7,1.4,13.1,0.2c0.9,2.4,6-0.8,5.2,3.9c-0.1,0.9,0.7,2.1-0.6,2.8
			c-0.6,0.3-1.3,0.4-1.9,0.4c-6.4-1.4-12.6-0.8-18.8,1.2c-1.3-1.6-1.7-5.3-4.9-1.3c-1.6,2-4,0.4-5.3-1.5c-1.4-2-2.1-2.9-3.5,0.3
			c-0.7,1.6-3,1-4.4-0.1c-2.6-2-5.2-2.2-8.4-1.1c-2.9,1-6.6-1-9.1,2c-1.1,0-2.3,0-3.2,0.8c-2,1.8-2.9,0.9-4.1-1.1
			c-1.8-3.2-5.4-4.3-8.2-2c-3.3,2.6-6.5,2.3-10.1,1.6c-1.4-0.3-3.8-1.8-4.6,1.2c-0.4,0.3-0.8,0.4-1.2,0.5c-3.2,1.3-2,5.7-4.9,7.3
			c-10.1,1.3-20.1,0.5-30.2,0.4c-1.3,0-2.6-0.6-3.5-1.6c-0.3-4.1,1.5-5.5,6-4.7c3.2,0.6,6,2.8,9.5,2.6c1.3,0,2.6,0,3.9,0
			c1-0.1,2.1,0.2,2.8-0.6c1.9-2.2,4-3.2,7-2.7c1.3,0.2,3-0.2,2.9-1.8c-0.1-1.6-1.8-1-2.9-1.1c-4.6-0.4-9.2,0.2-13.8,0.1
			c-5-0.5-9.9-0.1-14.8,0.1c-2.2,0.1-4.3,0.4-5.9-1.5c-0.2-0.6-0.2-1.1,0-1.7c2.9-3,6.6-1.3,9.9-1.7c1.8-0.3,3.6,0.6,5.4,0.5
			C228.5,29,231.1,29,233.8,29z"/>
		<path class="st31" d="M347.6,34.1c3.4-1.9,6.8-0.1,10.2-0.1c30.2-0.1,60.4,0,90.6-0.1c3.7,0,7.3,0.2,10.8,1.3c3,1,5.9,1.1,8.7-0.2
			c3-1.4,5.9,0.4,8.8-0.1c0,0.7,0,1.3,0,2c-4.4-0.4-8.6,0.5-12.9,1c-5.6,2.4-11.3,2.4-16.9,0c-3.6-0.4-7.4-0.3-10.8-1.3
			c-5.3-1.4-10.4,1.3-15.7,0.1c-0.4-0.1-1,0.7-1.5,1.1c-4,2.2-8,2.3-12,0c-3.9-0.9-7.8-1.3-11.8-1.4c-1.2,0-1.7,0.5-2.2,1.4
			c-1.8,1.6-4,1.4-6.1,1.4c-6.4,0-12.9-0.1-19.3,0.1c-3.7,0.1-7,0.8-9.1,4.7c-1.8,3.4-4.7,2-7.3,0.8
			C348.1,41.8,346.5,38.4,347.6,34.1z"/>
		<path class="st32" d="M250.8,18.8c0,1.3,1.3,1.9,1.6,2.9c0.6,2,1.5,3.8-2.5,3.9c-5.3,0.1-11.4-3.4-15.9,2.3
			c1.4-5.3,2.7-10.6,4.1-16c0.7-0.6,1.5-0.9,2.3-1.2c2.9-0.1,5.8-0.8,8.5,0.9c0.4,0.5,0.4,1.1,0.1,1.7c-0.1,1.4-0.1,2.9-0.3,4.3
			C248.6,19.9,249.7,19.3,250.8,18.8z"/>
		<path class="st33" d="M240.1,11.9c-0.6,0-1.3,0.1-1.9,0.1c1-3.6,1.9-7.3,2.9-10.9c3.6,0,7.2,0,10.8,0c-0.2,4.3-1.4,8.3-2.7,12.3
			c-0.1-0.5-0.1-1-0.2-1.5C245.9,11.1,243,10.8,240.1,11.9z"/>
		<path class="st34" d="M468.9,53.8c0.2-1.5,0.2-3.2,0.9-4.4c0.3-0.6,1.5,0.7,2,1.6c1.3,1.6,3.7,0.3,5,2c0.3,0,0.6,0,0.9-0.1
			c0,1.7,0.1,3.3,0.1,5c0.3,0.5,0.3,1-0.2,1.4c-1.7,1.1-3.8,1.1-5.7,1.3c-2,0.3-3.6-0.1-3.9-2.5C468,56.6,468.6,55.3,468.9,53.8z"/>
		<path class="st35" d="M347.6,34.1c1.1,3.3,2.2,6.6,3.2,9.9c1,1.3,2.7,2.6,0.4,4.3c-2.5-0.6-2.8-3.1-4.2-4.7
			c-1.6-3.1-4-5.8-4.1-9.5c0-0.7-1.5-1.4,0-2.1c1,0.5,1.9,1,2.9,1.5C346.2,34.1,347,34,347.6,34.1z"/>
		<path class="st36" d="M477.8,59.1c0-0.4,0-0.8,0-1.2c3.6,0,7.3-0.1,10.9-0.1c-0.2,0.9,0.6,2.8-1.3,2.3c-3.3-0.8-6.4,0.5-9.6,0.8
			C477.3,60.4,477.2,59.7,477.8,59.1z"/>
		<path class="st37" d="M16,20c38.1-0.1,76.3-0.1,114.4-0.1c14.8,0,29.6,0.1,44.5,0.2c0.3,1.1-0.5,1.8-1.2,1.7
			c-4.1-0.5-5,4.7-8.8,4.9c-0.7,0-0.3,1.5-0.4,2.3c-0.2,1.2-1,1.9-2,1.5c-3.6-1.5-7.4-0.4-11.1-1.1c-5-1.9-9.8-4.5-15.4-3.4
			c-4.8-0.7-9.5-0.9-14.2,0.7c-3.5-0.4-7.1,0.7-10.5-0.9c-0.8-0.8-0.2-2.9-2.8-2.3c1.4,0.5,2.2,1.3,2.1,2.6
			c-2.7,3.4-6.1,0.9-9.2,1.1c-0.7-0.2-1.3-0.6-1.6-1.4c-0.1-0.9,1.3-1.8,1.2-1.8c-1.3-0.6-2.1,0.6-3.1,0.9c-1.8,0.6-3.6,1-5.4,1.3
			c-0.5,0.1-0.9,0.1-1.4,0.1c-2.2-0.1-4.4-0.9-6.7,0.1c-1.1,0.3-2.3,0.6-3.4,0.5c-7.2-0.7-14.3-1.6-21.5-0.2
			c-0.5,0.1-0.9,0.1-1.4,0.1C53.9,27,49.8,26,45.7,26c-3.2,0-6.6-1.2-9.3,1.7c-1.2,1.2-2.1-0.2-3-0.8c-2-1.4-3.9-1.7-5.8,0.2
			c-3.6-0.9-7.3,0.4-10.8-0.9C15.8,24.1,15.1,22.1,16,20z"/>
		<path class="st38" d="M16,20c1.3,1.8,0.6,4,1.1,5.9c1.1,1.7,0.9,3.1-1,4c-1.9-1.2-0.3-3.5-2-5.4c0,8.1-0.3,15.7,0.1,23.2
			c0.2,5.4-1.1,10.8-0.2,16.2c0.4,2.3-2.2,3.2-2.9,5c-0.7,0.6-1.4,0.6-2.2,0.2c-2.6-2.9-1.6-6.6-2-9.9c-0.6-4-0.8-8.1-2-12
			C3,41.1,5.8,35.3,6.3,29.3c0.7-4.7,5.6-5.8,7.9-9.1C14.7,20.1,15.3,20.1,16,20z"/>
		<path class="st39" d="M151,29c4.3-1.8,8.6,0,13,0c1.1-4.1,4.7-2.9,6.7-2.2c4.4,1.5,7.3-0.2,10.2-2.9c0-0.6,0-1.2,0-1.8
			c3,0.2,6,0.3,8.8,1.7c0.8,1.5-0.2,1.7-1.3,1.7c-1.6,0.1-3.3-0.1-4.8,0.8c-0.6,0.2,0.4,0.9,0.1,0.4c-0.1-0.2,0-0.2,0.1-0.3
			c3.2-1.4,6.5-1,9.7-0.7c2.6,0.2,5.1,0.1,7.6-0.8c1.1,2,2.7,3.2,5.1,2.8c3.5-0.6,7.5,1.5,10.7-1.6c0.9-1,2-1,3.2-0.9
			c0.9,2.1,2.8,2.4,4.7,2.7c0.4,0.4,0.8,0.8,1.1,1.2c-2.8,1.8-6,0.5-9,0.9c-2,0.3-4.2-0.8-6,1c-5.2-0.1-10.1,2.9-15.7,0.3
			c-3.9-1.8-8.6-0.1-12.4,1.6c-2.6,1.1-4.4,2.4-7.2,1c-1.5-0.8-2.7,0.9-4.2,0.9c-0.5,0-0.9,0-1.4-0.1c-4.1-0.3-7.8-2.6-12.4-0.8
			c-2.1,0.8-4.8-2.3-6.8-4.2C150.9,29.4,150.9,29.2,151,29z"/>
		<path class="st40" d="M180.8,23.9c-0.7,3-5.1,5.6-7.9,4.6c-3.1-1.1-6.1-1-9,0.5c-1.2-2-3.2-4,1.5-4.1c1.1,0,3.3,0.4,3-2.8
			c-0.1-1.7,4.5-0.1,6.5-1.9C177.8,19.8,177.3,25,180.8,23.9z"/>
		<path class="st41" d="M216.9,26c0.2,1,2.2,2.6-0.6,2.7c-4.5,0.1-8.9,0.1-13.4,0c-2.6-0.1-2.2-1.9-1.7-3.6c2-1.1,3.9,0.2,5.8,0.1
			C210.4,24.1,213.6,25.3,216.9,26z"/>
		<path class="st42" d="M14,20.2c0.2,2.2-0.9,3.5-2.8,4.1C9,25.1,7.8,26.9,7,28.9C6,33.3,5.3,37.8,3.4,42c-1.2,0.5-1.8-0.1-2.2-1.1
			c-0.1-1.7-0.2-3.4-0.3-5.1c1.8-3,3.6-5.8,5.2-8.9C7.9,23.6,10.3,21.2,14,20.2z"/>
		<path class="st43" d="M207,25.2c-2,2.5-3.9,0-5.8-0.1c-2.8,3.6-6.5,1.9-9.7,1.4c-3.4-0.5-6.4-0.9-9.1,1.9
			c-0.7-2.7,0.4-3.3,2.5-3.4c1.7,0,3.7,0.7,5.1-1.1c0.2-0.2,0.3-0.3,0.5-0.5c2.3-1.1,4.5-1.2,6.6,0.6C200.3,24.6,203.9,23,207,25.2z
			"/>
		<path class="st44" d="M189.9,23.9c-3.1-0.3-6.6,1.6-9-1.9c-1.3-6.3,3.4-1.8,5-2.9c0.8,1.7,3.3-0.2,3.9,1.9l0.1,0.1
			c0.9,0.9,0.9,1.7-0.1,2.6L189.9,23.9z"/>
		<path class="st45" d="M189.8,23.7c0-0.9,0-1.7,0.1-2.6c1.5,0.3,1.3-3.2,2.6-1.8c1.5,1.6,5.4,0.9,4.5,4.6
			C194.6,23.9,192.2,23.8,189.8,23.7z"/>
		<path class="st46" d="M224.8,27.9c-2.8,1.2-5.5,2.3-4.7-2.7C222,25.4,224.3,25,224.8,27.9z"/>
		<path class="st45" d="M189.8,21c-1.4-0.3-4.7,3.1-3.9-1.9C187.8,18.6,189.7,17.9,189.8,21z"/>
		<path class="st47" d="M269.8,99.9c1.4-2.3,2.7-4.6,4.1-6.9c3.4-5.6,1.3-10.4-2.2-15.1c0.1-2.5-2.8-5,3.8-5.2
			c12.2-0.4,24.2,0,36.3,1.3c2.1,0.2,3.9,1.6,6.4,0.3c0.9-0.5,5.7-0.2,3.2,4.1c-0.8,1.4-0.8,3,0.7,3.9c1.3,0.8,2.6-0.2,2.9-1.1
			c1.6-4.6,4.6-5.4,8.9-3.8c0.5,0.2,1.3-0.2,1.9-0.4c0.4,0.2,0.8,0.5,1.1,0.9c0.8,1.9,2.2,3.1,3.8,4.4c6,4.6,10.3,10.7,13.4,17.4
			c1.2,2.6,3.3,4,4.7,6.2c0,0.6,0,1.2-0.1,1.8c-4,3.3-9,2.4-13.6,3.6c-1.4,0.4-3-0.4-4.3,0.5c-13.3,0-26.5-0.1-39.8-0.1
			c-7.9-2.3-11.6-0.5-15.2,6.6c-4.2,8.2-8.8,16.3-13.3,24.4c-3,5.3-3.8,11.4-7.3,16.5c-3.2,4.6-4,5.2-9.1,2.4
			c-5.6-3.1-12.2-4.2-17.2-8.7c0.7-6.4,5.2-10.9,8.4-15.9C255.1,124.7,263,112.6,269.8,99.9z"/>
		<path class="st48" d="M477.8,59.1c0,0.6,0.1,1.2,0.1,1.8c0.9,3.2,4.4,1.1,6,2.9c-3.1,0.1-6.2,0.7-9.3-2.3
			c-0.1,3.5,1.7,6.7-0.8,9.2c-4.1,0.4-5.7-1-4.7-4.6c0.6-2.3,1.1-4-1.7-4.9c-1.1-0.4-2.1-1.3-1.8-2.6c0.4-1.7,1.6-2.4,3.4-1.8
			c0,1.8,0.2,3.5,2.7,2.5C473.6,58.7,475.7,59,477.8,59.1z"/>
		<path class="st49" d="M499.5,59.6c6-2,12.1-0.1,18.2-0.6C511.7,60.6,505.6,59.9,499.5,59.6z"/>
		<path class="st50" d="M496.7,59.4c-2.2,0-4.4,0-6.5,0c0-0.4,0-0.9,0-1.3C492.3,58.2,494.4,57.3,496.7,59.4z"/>
		<path class="st51" d="M1.2,40.9c0.6,0.3,1.2,0.7,1.8,1c1.3,0.8,1.8,2,1.9,3.4c0,2.9,0.2,5.8,1,8.6c0.8,5.2,2.1,10.4,1,15.8
			c-1.2,1.7-2.7,2.5-4.8,2.2H1.6H1.1C1.1,61.6,1.1,51.3,1.2,40.9z"/>
		<path class="st52" d="M347.9,42.9c1,1.6,2.1,3.3,3.1,4.9c2.5,2.5,0.3,4.8-0.3,7.2c-0.9,4.1-3.5,8-0.7,12.3c2.1,4-0.4,3.9-3.2,3.6
			c-2.9-6.8-8.3-8.3-14.9-7c-0.4-0.5-0.6-1.1-0.2-1.7c0.4-0.6,0.9-0.9,1.5-0.1c-0.2-0.8-0.8-0.4-1.3-0.5c-7-0.5-14,0.2-21-0.7
			c-4.1-4-9.2-3.3-14.2-2.8c3.4-0.4,8.1-0.3,9.8,0.3c3.1,1.2,1.3,1.9-0.3,2.6c-9.1,0.2-18.1,0.5-27.3-0.4
			c-5.6-0.6-11.4-0.3-17.1,0.5c-2.1,0.3-4.4,0.6-6.4,0.1c-4.9-1.1-9.8-0.6-14.7-0.1c-4-1.2-7.4-4.3-12.8-3.7c0.2,0,0.9,0.9,0.7,0.2
			c0-0.2,0.1-0.2,0.4-0.2c3.9,0.2,4.8,0.6,5.5,3c-2.8,1.3-5.8,0.7-8.8,0.8c-5,0.1-9.8,1.1-14,3.9c-1.5,0.2-2.2-1-3.2-1.7
			c-0.2-0.2-0.5-0.5-0.7-0.7c-5.8-4.8-5.6-6.5,1.2-9.5c1.5-0.7,1.2-1.8,1.5-2.7c0.7-1.8,1.1-3.9,3.3-4.6c9.3-1.6,18.5,1.1,27.8,0.6
			c4.1-0.2,7.5-1,9.9-4.5c1.4-2.2,1.5-5,3.2-7.1c0.6-4,1.4-4.5,2-3.3c1.7,3.4,3.1-1.2,4.9,0.2c2,1.6,5.8,0.9,7.4-0.8
			c3.1-3.2,9.8-0.6,11.8,4.8c1.4-1.6,2-5.7,4.9-1.8c1.7,0.8,2.6-1,4-1.3c2.6-0.6,4.3-0.1,4.2,3.2c0.2-2.7,0.7-4.3,3.9-2.6
			c7.6,4,15.7,3.4,23.9,2.7c5.9-4.7,12.5-2.8,19-2c2.8,1.6,3.5,4.7,4.8,7.3C346.1,42.3,346.2,43.7,347.9,42.9z"/>
		<path class="st53" d="M213,46.9c-1,2.6-1.9,5.3-1.2,8.1c-1.9,1.2-2.5-1.6-4.1-0.9c-1.7,0.8-2.3,2.4-3,3.8
			c-0.8,1.8,1.2,1.9,2.2,2.5s2,1.2,2,2.5c1.9,3.1-3.2,4.1-2,7c0,0.3,0,0.6,0,1c-2.1,1-2.3,3.6-3.9,5.1c-1.4,0.4-1.6-0.7-2-1.6
			c0.8-8-0.4-16.1,0.7-24.4c-1,2.8-2.1,5-5.1,2c-1.3-1.3-3.1-1.8-5-1.4c-3.1,0.8-6.2,0.5-9.4,0.7c-2,0-4.1,0.3-6-0.9
			c-1.1-2.9,1.5-1.5,2.7-2.3c-6,1.4-11.6,1.8-17.4,0.6c-2-3.6,0.7-4.9,3.2-5.5s5.2-1.3,7.8-0.3c0.7,0.3,1.6,0.9,2.2,0
			c0.8-1.1-0.2-1.7-0.8-2.5c-1.4-1.9-5.1-2.8-3-6.3c2.3-0.9,4.4-3.6,7-0.3c0.3,0.3,1.8,0.2,2.3-0.2c5.9-4.7,12.3-5.1,18.9-2.2
			c1.9,0.8,2-0.3,3.1-0.9c2.7-1.5,5.7,0.5,8.7,0.6c0,0.3,0,0.6,0,1c0.3,1.4,0.7,2.9,1,4.3c0.2,1.5,0.6,3,0.5,4.6
			c-0.2,1.9-3.5,3.8,0.1,5.6C212.7,46.6,212.8,46.7,213,46.9z"/>
		<path class="st16" d="M346.9,70.9c0.3-1.2,4.6,0.2,2-3c4.3-0.1,8.5-1.9,12.8-0.2c0.3,0.4,0.4,0.8,0.4,1.3c-2.2,2.1-2,4.1,0.4,5.9
			c1.2,3.4,3.6,6.3,4.2,10c0.4,1.3,0.8,2.6,1.1,4c0.1,1.7,0.5,3.4,0.9,5c0,0.3,0,0.7,0,1c-1.8,2.3-2.8,5.9-7,4.1
			c-0.8-0.5-0.9-1.3-0.7-2.2c1.2-4.4-3-6.9-3.7-10.6c-1.2-2.4-2.4-4.7-4.7-6.3C350,77.4,348.7,74,346.9,70.9z"/>
		<path class="st17" d="M210.9,64.8c7.2-5.5,15.7-5.1,24.1-4.9c1.3-1.2,2.7-1.1,4,0c23,0,46,0,69-0.1c0.7-0.6,1.3-0.6,2,0.1
			c7.9,0.5,15.9-1,23.8,1.3c-0.2,1.1-2.4,1-1.8,2.7c-3.7,0.1-7.3-1.6-11-1c-0.4-0.5-0.3-0.9,0.2-1.3c1.9-0.1,3.9-0.5,4.7-0.2
			c-2.2-0.6-5.4,0.6-8.7,0.5c-2.7,0.4-5.6-0.9-8.2,1c-1.7,0-3.3,0-5,0c-2.7-1.8-5.8-0.7-8.7-1c-5.1-0.5-10.3,1-15.3-1
			c-2.3,0-4.6,0-7,0c-2,1.4-4.1,1.1-6.1,0c-1,0-2,0-2.9,0c-4.4,1.4-8.7,1.6-13.1,0c-1.6,0-3.3,0-4.9,0c-2.2,1.3-5,0.2-7,1.9
			c-7.2,0.5-14.3-0.6-21.6,0.8c-3.5,0.7-5.2,4.1-8.7,4.1C208.1,65.9,208.8,64.9,210.9,64.8z"/>
		<path class="st54" d="M358.8,105.9c-5.2-0.8-5.9-5.7-7.6-9.1c-3.2-6.2-7.4-11.2-13.4-14.6c-1.6-0.9-0.7-3.1-1.8-4.3
			c3.3-0.6,6.1,0.7,8.9,2.1c3.1,7.5,7.7,14.1,11.8,21.1C357.5,102.6,358.8,104,358.8,105.9z"/>
		<path class="st55" d="M344.8,80c-3.2,0.2-6.2-0.1-8.9-2.1c0-0.3-0.1-0.6-0.1-0.9c-4-5.2-10.1-3.7-15.4-4.8c-2.9-0.6-6.3,1-8.5-2.3
			c6.9-0.1,13.9,0.1,20.8,1C338.6,71.7,342.1,75.2,344.8,80z"/>
		<path class="st56" d="M279.9,60.9c6.6,0,13.1,0,19.7,0c1.6,0,3.8-0.8,4.3,2c-6.3,0-12.6,0-18.9,0C283.1,62.9,281,63.3,279.9,60.9z
			"/>
		<path class="st57" d="M340.8,111.8c6-1.4,11.9-2.7,17.9-4.1c0,1,0.1,2.1,0.1,3.1C352.8,110.4,346.9,112.6,340.8,111.8z"/>
		<path class="st58" d="M361.8,99c3.7,1,3.9-4.1,7-4.1c2.1,4.5-2,5.6-4.3,7C361.7,103.5,362.1,100.6,361.8,99z"/>
		<path class="st56" d="M250.9,61c4.4,0,8.7,0,13.1,0C260.4,63.8,253.7,63.8,250.9,61z"/>
		<path class="st59" d="M357.9,85.9c1.6,2.8,3.5,5.4,4.4,8.6c0.3,1.3,0.6,2.2-1.2,2.3c-1.4-3.3-2.8-6.5-4.2-9.8
			C356.9,86.3,357.3,86,357.9,85.9z"/>
		<path class="st56" d="M308.9,62.9c1.9-4,5.4-1.2,8.1-1.9c1.1,1.1,2.8-0.1,3.9,1c0,0.3,0,0.6,0,1C316.9,62.9,312.9,62.9,308.9,62.9
			z"/>
		<path class="st60" d="M357.9,85.9c-0.4,0.4-0.7,0.7-1.1,1.1c-2-2-3-4.5-4.1-7C356.6,80,356.9,83.3,357.9,85.9z"/>
		<path class="st61" d="M210.9,64.8c-1.1,0.7-1.8,1.7-2.2,3c-0.6,0.7-1.2,1.4-1.7,2.1c-1.2-1-2.3-2-0.3-3.4c1.2-0.8,2.3-1.9,2.3-3.6
			C210.2,62.9,210.9,63.5,210.9,64.8z"/>
		<path class="st56" d="M238.9,62.9c1.5-3.6,4.7-1.4,7-1.9C244,63.2,241.5,63,238.9,62.9z"/>
		<path class="st58" d="M368.8,93.9c-2.6-1.3-2.1-3.1-0.9-5c1.2,1.1,1.8,2.5,1.9,4C369.5,93.2,369.2,93.6,368.8,93.9z"/>
		<path class="st56" d="M266.9,61c2,0,4,0,6.1,0C270.9,64.6,268.9,63.2,266.9,61z"/>
		<path class="st62" d="M366.8,84.9c-2.8-2.8-4.1-6.4-5.1-10.1c-1.2-2-1.2-3.9,0.1-5.9h0.1c0.3-0.5,0.8-0.9,1.2-1.2
			c10.3-0.7,20.5,0,30.8-0.2c8.5-0.1,16.9,0.3,25.4,0c7.5-0.3,14.9,1.2,22.4,1.4c1.5,0,3,0.3,3.5,2.1c0.4,1.8-0.5,3.1-1.6,4.3
			c-0.7,0.7-1.7,2-2.3,1.5c-2.4-1.9-0.2,2.1-1.6,1.1c-0.5-0.1-1.1-0.4-1.4-0.3c-1.5,0.7,0.6,3.8-2,3.7c-2-0.1-0.9-3-2.6-4
			c-0.3,0.4-0.6,0.7-0.8,1.1c-1.2,2.2,3,6.1-1.2,6.7c-3.6,0.5-8.2,4.4-11.5-1c-0.4-0.7-1.5-1.2-2.1-0.3c-2.1,3.3-5.5,1.5-8.2,2.4
			c-2.8,0.9-5.2,1.1-6.9-1.7c-0.4-0.6-1.2-1.3-1.5-0.8c-2.5,3.9-7,1.2-10,3c-3.2,2-5.5-3.2-7.6-1.3c-3.2,2.9-5.1,0.7-7.4-0.6
			C373.2,83,370,84.1,366.8,84.9z"/>
		<path class="st63" d="M439.8,78c0-1.3,0-2.6,0-3.9c1.4-0.7,0.8,4,2.8,0.8c1.1,0.3,1.8,1,2.4,2c0.3,0.6-0.7,2,1,1.6
			c2.4,0.8,4.1-1.6,6.3-1.6c4.5-0.8,0.4,2.3,1.4,3C447.9,84.6,443.1,83.9,439.8,78z"/>
		<path class="st64" d="M468.9,57c-1,0.5-2.5,0.7-2.5,2s1.5,1.6,2.6,1.8c3,0.5,4.2,1.2,1.7,4.2c-2.3,2.8-0.8,5,3.1,5.8
			c0.3,0.3,0.7,0.7,1,1c-0.3,0-0.6,0.1-0.9,0.1c-2.8,0-5.6,0.1-7.1-3.1c-1.7-3.4-4.1-3.9-7.7-2.5c-3.3,1.3-7,1.6-10.6,2.3
			c-2.5,0.5-4.9-0.3-6.9-1.9c-1.1-0.8-1.5-1.8,0.1-2.6c3.1-0.5,6.3-0.1,10-0.3c-23.8,0.7-47.1,0.6-70.4,0.3c-4.9-0.8-9.8-1-14.6,0.1
			c-3.4,0.2-6.8,0.3-10.3,0.1c-1.9-0.1-4,0.1-4.9-2.3c1.4-3.6,4.5-2.3,7.1-2.6c3.2,0.1,6.4-0.1,9.5,0c1.3,0,2.7,0,4,0.1
			c1,0,1.9,0.1,2.9,0.1c0.5,0,0.9-0.1,1.4-0.1c0.7-0.1,1.3-0.3,2-0.3c2.6,0.1,5.3,0.9,7.9,0.2c0.5-0.1,0.9-0.1,1.4-0.1
			c2.6,0.2,5.9,1.5,4.6-3.6c-0.5-2,0.8-3.7,2.8-4.6c2,2.4,4,0.5,6,0c1-0.7,2,0.2,3,0c2.4,2.1,5.1,2.4,7.9,1
			c-0.6-0.4-0.5-0.7,0.2-0.9c2.6,0.5,5,2.5,7.8,0.9c0.3-0.5,0.5-1.1,1.2-0.9c1.3,0.3,2.5,0.6,3.8,0.9c1.6,2.2,2.9,4.3,0.1,6.5
			c-6.7,2.1-13.4,1.3-20.1,0.5c-1.8,0.2-3.7-1.2-5.4,0.2c1.9,1.3,3.7,0,5.6-0.1c7.6,1.5,15.3,0.6,22.9,0.3c2.6-0.1,5.2,0.2,7.8,0.2
			c0.5,0,1,0,1.5-0.1c2.5-1.5,5.8,1.4,8.2-1.3c0.5-2.4-0.6-5.1,1.5-7.1c3.1,0,4.8,2.2,6.7,4.1c0.4,0.3,0.5,0.7,0.4,1.2
			c0,1.1-1.9,1.8-0.7,2.9c0.5,0.5,1-0.5,1.1-1.1c0.9-2.3-0.5-5,1.5-7c1.4,0.1,2.6-0.2,3.8-1h0.1c-0.2,2.6,1.4,3,3.4,2.9
			s3.9,0,5.8,0.9C470,54.9,469.9,55.9,468.9,57z"/>
		<path class="st65" d="M440.8,65c6.4,5.3,13,1.3,19.2-0.3c5.3-1.4,6.4-1.3,6.8,4.3c-5.4-1.1-10.6,1.3-16.4,2.1
			c0,0.7,3.4,2.2,0.4,3.7c-0.8,2.5-2,4.6-5.1,4.1c-0.9,0-0.9,2.2-2.1,1.1c-1.7-1.7,1-1.8,1.3-2.8c-0.4-1.7,3.7-3.3,0.1-5.1
			c-2.2-3.4-5.7-1.7-8.5-1.9c-21.6-2-43.3-0.8-64.9-1c-2.9,0-5.8-1.6-8.7-0.1c-1.2-4.4,2.5-4.7,5-5.9c4-1.6,8.1-0.4,12.1,0
			c1.3,1,2.9,0.5,4.3,0.5c17.3,0,34.6-0.1,51.9,0.5C437.7,64,439.5,63.6,440.8,65z"/>
		<path class="st66" d="M445.7,78.9c1.7-1.4,3.4-2.8,5.1-4.1c1.3,0.1,1.9,0.8,1.6,2.1C450.7,79.3,448.8,81.3,445.7,78.9z"/>
		<path class="st67" d="M63,101c-3.5,4.4-7.8,8.1-12.2,11.7c-2.6,2.1-5.5,1.4-8.1,1c-7-1-13.9-0.9-20.9-0.6
			c-4.1,0.1-5.5-1.2-4.8-5.1c1-1.9,0.2-3.9,0.5-5.8c0.2-1.1-0.6-2.6,0.8-3.1c1.6-0.5,2.2,1,2.7,2.2c0.2,0.6,0.3,1.3,0.4,1.9
			c2.1,3.2,5.4,4.1,10.1,2.5c0.8-4.1,5.3-5.1,7-8.7c1.3-2.8,2-5,0.3-7.8c-1.2-2-1.7-4.3-1-6.6c1.9-2.4,3.5-1.2,5.1,0.5
			c1.4-2,3.9-3,5.6-1.9c2.8,1.8,4.9,0.1,7.4,0c6.6-0.3,13.3-0.7,19.9,0.3c2.2,2,6.3,1.4,7.4,5.2c0.7,2.8,2.2,5.7-2.7,5.8
			c-2.6,0.1-3.1,2.5-3.4,4.3c-0.7,3.8-2.8,4.4-6.3,4.3C68.1,100.9,65.5,99.4,63,101z"/>
		<path class="st68" d="M195,94.9c-2,3-4.2,5.9-6,9c-1.3,2.2-3.2,2-5.1,2c-8.3,0-16.5,0-24.8,0c-1.8,0-3.7-0.5-5.2,0.9
			c-8.3,0-16.6,0-24.9,0c-2.2-5.6,0.1-11.2,0-16.8c1.2,0.6,0.9,1.8,1,2.8c3.9,3.1,8.3,3.1,12.6,1.3c4.9-2,9.4,0.6,14.2,0.6
			c1.5,0,1.9,2,2.4,3.7c2.7-3.2,4.6-6.8,9.5-5.4c3.4,1,7.4,0.1,10.1,3.3c0.8,1,1.4,1.6,2.4-0.1c0.8-1.5,2.8-0.5,4.2-0.7
			c2.6-1.7,5.5-1.9,8.5-1.9C194.7,93.4,195.4,93.8,195,94.9z"/>
		<path class="st69" d="M63,101c2.6-2.2,5.8-1.1,8.6-0.9c2.4,0.1,3.5-0.2,4-2.7c0.3-1.9,1.2-3.7,2-5.5c0.3-0.7,0.6-1.6,1.7-1.6
			c1.3,0,3.7,3.4,3.5-0.7c-0.1-2.4-0.7-6.2-4.9-5.4c-2.4,0.4-2.8-0.1-1.9-2.2c0.6-0.6,1.4-0.5,2.2-0.6c-14.7,0.5-29.4-0.7-44,1
			c-4.2-0.7,1.2,2.5-1,2.6c-2.8,0.9-5.8-0.2-8.6,0.7c-1.9-0.3-3.3,0.6-4.7,1.8c-0.8,0.7-2.1,1.3-2-0.8c2-5.2,6.4-6.6,11.2-6.6
			c17.1-0.2,34.3-0.1,51.4,0c2.8,0,5.6,0.6,8.4,1c4.4,4.3,8.8,8.5,15,10.1c2.8,0.7,5.5,1.3,7.9-1.2c0.6-0.6,1.4-0.8,2.1,0
			c-0.2,3.6,2.2,8.1,0.1,10.5c-2.2,2.5-6.8,0.2-10.3,0.4c-8.1,0.5-16.2,0.7-24.3,0.9C73.8,102,68.4,101.8,63,101z"/>
		<path class="st70" d="M16,30c0.3-1.3,0.7-2.7,1-4c3.4-1.8,6.7,0.7,10.1,0.1c1.2-1.2,2.4-0.4,3.6,0.1c2.3,1.1,4.5,3.7,7-0.4
			c0.6-1,4.5-1.3,5.1,2.1c1.6,1.6,3.7,1.1,5.6,1.2c1.4,0.1,2.6,0.8,3,2.2c0.4,1.8-0.8,2.7-2.2,3.5c-1.9,1-3.8,0.8-5.8,0.3
			c-5.1-1.2-9.5-0.1-13.1,3.9c-3.8,1.1-7.7,1.6-11.6,1.9c-1,0.1-1.9,0.4-2.4-0.8c-0.7-3.1,0.8-6.2-0.2-9.3
			C16.1,30.5,16.1,30.3,16,30z"/>
		<path class="st71" d="M17,72c17.2,0.3,34.4-0.6,51.6,0.6c2.4,0.2,4.9-0.5,7.4-0.5c2.4-0.1,4.6,0.6,5.9,2.9c-1.2,2.6-3.6,2-5.6,1.9
			c-17.7-0.1-35.3-0.5-53,0.3c-2.9,0.1-5.2-1-6.4-3.7C16.7,73,16.7,72.5,17,72z"/>
		<path class="st72" d="M46,65.9c-2,0-3.9,0-5.9,0c-0.4-0.6-0.2-1.1,0.4-1.5c6.1-1.7,12.3-0.4,18.5-0.8c4.6,0.1,9.2,0.2,13.8,0.1
			c2.6-0.1,5.5,1.1,6.8-2.8c0.5-1.4,2.9-0.9,4.6-1c3.2-0.1,6.6,0.6,9.6-1.3c0.7-0.2,1.4-0.2,2.1,0.1c2.8,2.3-0.1,6,2.2,8.4
			c1,0.3,2.1,0.6,2.4,1.9c0,0.5-0.1,1.2-0.5,1.3c-3.1,0.8-2.9,2.6-1.7,4.8c-0.5,0.9-1.5,1.1-2.4,1.3c-3.5-1.3-5-5.3-8.8-6.2
			c-4.4-4.3-9.9-2.9-15.1-2.9c-8.2-0.1-16.4-0.5-24.6-0.4C46.8,66.6,46.4,66.2,46,65.9z"/>
		<path class="st73" d="M17.1,72.9c2.6,3.1,6,3.3,9.6,3c12.5-1,25.1,0,37.6-0.6c5.8-0.3,11.8,1.4,17.7-0.4c3,3.3,0,2.9-1.9,3
			c-7.4,0.1-14.9,0-22.3,0c-8.9,0-17.9,0.1-26.8-0.1c-4.9-0.1-9.1,1.1-12.9,4.1c-2.8-2-1.5-5-2-7.6C16.2,73.8,16.6,73.3,17.1,72.9z"
			/>
		<path class="st74" d="M17.8,86.7c1.5,1.5,1.8-0.1,2.3-1c1-2,2.4-1.6,4-0.8c0.6,2.2-1.6,3.1-2.2,4.8c-0.9,2.9-1.2,5.8,0.8,8.4
			c2.6,3.4,6.9,4.4,10.1,2.5c4.1-2.5,5.6-6.8,3.8-11.2c-1.6-1.1-3-2.5-3.5-4.6c1-1-2.9-2,0.1-2.9c1.9-0.9,3.5-0.4,4.9,1
			c1.2,3,2.2,6.1,3.2,9.1c1.1,3.3-1.4,6.7-3.8,8.7c-2.2,1.9-4.1,3.6-5.4,6.2c-4-0.5-8.1-0.8-12-2c-0.3-1.7,0.7-3.8-1.4-5.4
			c-1.7,2.8,0.6,6-1.7,8.4C17.2,100.8,16.2,93.7,17.8,86.7z"/>
		<path class="st75" d="M113.9,90c-5.2,4.1-11.7,3.8-18-0.9c-2.2-1.6-4.1-3.7-6.4-5.1c-1.7-1-0.3-2.1-0.7-3c1.8-0.4,3.2,0.4,4.4,1.6
			c5,4.9,11.1,6.4,17.9,4.9C113.7,87.1,114,87.9,113.9,90z"/>
		<path class="st64" d="M17.1,72.9c-0.1,0.3-0.1,0.6-0.1,1c-1.1,1.1,0.1,2.9-1,4C11.7,75,6.2,75.2,2.1,72c1.3-0.7,2.6-1.4,3.9-2.1
			c0.8-0.9,1.8-1.2,3-1c0.7,0,1.3,0,2,0c2.4,0.2,6.9-3.6,6,3.1C17,72.3,17,72.6,17.1,72.9z"/>
		<path class="st38" d="M46,65.9c10.9,0,21.8,0.1,32.7-0.1c3.7-0.1,6.4,0.9,8.3,4.1c-5.5-2.3-11.1-1.6-16.9-1.6
			c-4.9,0-10.1,0.2-15.1-0.6c-2-0.3-3.8-0.9-5.8,0C47.8,68.2,46.2,68.1,46,65.9z"/>
		<path class="st76" d="M125,105.9c-2.6-1.4-4.9-3.5-8-3.9c-1.5-3.9-0.6-7.9-0.6-12.7c3,3.3,0.5,11.6,8.5,8.5
			C125.9,100.4,125.7,103.1,125,105.9z"/>
		<path class="st77" d="M95.8,76.1c0.5-0.9,1.3-1.2,2.3-1.3c2.4-2,5-0.7,7.6-0.5c0.5,0.1,0.9,0.3,1.2,0.7c0.5,1.8,1,3.7,1.7,5.9
			c-2.3,0-4.4,0-6.5,0C99.9,79.3,97.8,77.7,95.8,76.1z"/>
		<path class="st38" d="M16.1,30.8c1.7,3.3,0.2,6.8,0.9,10.2c2.1,3.7,2.3,7.3-0.1,10.9c-0.3,0-0.6,0-0.9,0
			C14.1,44.9,14.9,37.9,16.1,30.8z"/>
		<path class="st78" d="M122.1,87.9c2.1,0.2,3.7,1.2,3.7,3.6c0.1,2.3-1.6,3.3-3.5,3.2c-2.3,0-3.4-1.6-3.5-3.9
			C118.8,88.8,120.3,88.2,122.1,87.9z"/>
		<path class="st38" d="M39.8,65.1c0.1,0.3,0.2,0.5,0.2,0.8c-6.3,0-12.6,0.1-18.9,0c-1.5,0-3,0.4-4.2-1c0.2-0.2,0.5-0.4,0.7-0.7
			C25.1,63.4,32.5,62.2,39.8,65.1z"/>
		<path class="st38" d="M16.9,65c-2.5-4.2-2.5-8.6-1-13l0.1,0.1c2.7,2.8,2.2,6.3,2.2,9.7C18.1,63,17.8,64,16.9,65L16.9,65z"/>
		<path class="st71" d="M16,77.9c0.2-1.4-0.4-2.9,1-4c0.5,2.7-1.1,5.6,1.1,8.1c-0.6,0.8-1.4,2.3-2,0.1C15.7,80.8,16,79.3,16,77.9z"
			/>
		<path class="st79" d="M125,105.9c0-2.7-0.1-5.4-0.1-8.1c0.2-0.5,0.1-1.4,1.1-0.8c0,3,0.6,6-0.2,9c0,0.1-0.2,0.2-0.3,0.2
			C125.2,106.1,125.1,106,125,105.9z"/>
		<path class="st80" d="M271.8,77.9c4.4,3.5,6.2,11.1,3.6,15.7c-0.7,1.3-1.2,0.1-1.4-0.7c0-0.4-0.1-0.7-0.1-1.1
			c2.9-5.5-0.4-9.6-3.2-13.9C271,78,271.4,78,271.8,77.9z"/>
		<path class="st81" d="M201.9,73.9c0,0.9,0.2,1.6,1.1,2.1c-2.1,4.2-5.5,5.1-10.1,5.1c-20.6-0.3-41.3-0.2-61.9-0.2
			c1.3-1.9,3.7-2.4,4.9-3.9c-3.1,2.2-9.5,2.8-12.1,0.8c-0.2-0.9-0.5-1.8-0.7-2.7c0.6-0.8,1.5-1.2,2.4-1.4c7-0.6,13.9-0.3,20.9-0.3
			c17.9-0.1,35.9,0.1,53.8-0.3C200.8,73.2,201.4,73.5,201.9,73.9z"/>
		<path class="st82" d="M106.8,75.1c-0.2,0-0.4,0-0.7,0c-2.1-0.3-4.6-0.9-4.4-3.4c0.2-2.9,3.1-2.8,5.4-3c2-0.1,3.9,0.4,5.8,0.8
			c1,0,2,0.1,3,0c1.7-0.3,3.4-0.3,4.4,1.5c0.9,1.7-0.5,2.7-1.2,4C114.9,74.9,110.8,75,106.8,75.1z"/>
		<path class="st15" d="M118.9,74.9c2.5-8.1-3.9-2.8-6-3.9c-0.3-1.4,0.4-2.2,1.6-2.8c4.1-0.8,8.2-1.2,12.2,0.3c2.3,3,1,4.9-1.8,6.4
			c-0.6,0.1-1.2,0.1-1.9,0.2C121.8,74,120.4,74,118.9,74.9z"/>
		<path class="st83" d="M123.8,77.7c0.8,0.3,1.7,1,2.3,0.8c2.1-0.7,4-4.4,6.4-0.4c0.5-0.4,1.1-0.7,1.4-1.1c1.3-1.6,2.8-1.3,4.9-0.5
			c-2.8,1.5-5.3,2.9-7.8,4.2c-3,0-6,0.1-9,0.1C121.3,79.1,123.5,79,123.8,77.7L123.8,77.7z"/>
		<path class="st81" d="M123.8,77.8c0.4,1.6-1.2,2.1-1.9,3.1c-2.8-0.4-5.8,0.8-9.7-0.9C116.8,79.1,120.3,78.4,123.8,77.8z"/>
		<path class="st84" d="M186,96.9c-1,1.1-5.1-3.1-3.7,2.4c0.2,0.9-2.4,0.3-3.1-0.8c-3.4-5.7-9.3-3.7-14.1-4.7
			c-1.9-0.4-1.7,2.1-2.7,3c-1.3,1.2-2.6,2.5-4.5,4.2c0.3-4,0-6.6-5-5.4c-2.6,0.7-5.9-3.1-8.8-1c-3.7,2.6-7.6,1.2-11.4,1.8
			c-2.6,0.4-0.9-3.1-2.7-3.7c4.5-0.4,8.9-2.9,13.5-0.1c1.8,1.1,3.8-2.5,5.4-1.6c3.9,2.1,8,1,11.6,0.7c8.5-0.6,17,1.6,25.5,0.2
			C187.5,93.6,186.9,95.2,186,96.9z"/>
		<path class="st85" d="M186,96.9c0-1.6,0-3.3,0-4.9c0-0.2,0-0.3,0.1-0.5c4.3,0.8,8.6-1.1,12.9-0.6c-1.9,0.8-2.5,2.8-3.9,4.1
			C191.8,94.8,188.5,94.1,186,96.9z"/>
		<path class="st86" d="M292.2,18.1c-5.3,1.8-10.8,1.1-16.1,0.7c-7.4-0.5-12.6,1.3-14.5,9.1c-2.5,0.4-5.9,3.6-6.6-2
			c1.7-1.8,0.9-3.3-0.4-4.8c-2.4-2.7-0.3-3.1,1.8-3.1C268.3,18,280.2,18.1,292.2,18.1z"/>
		<path class="st87" d="M253.8,14.9c16.4,0.1,32.8,0.1,49.1,0.2c0.3,0.2,0.4,0.4,0.3,0.6c-0.1,0.2-0.2,0.3-0.3,0.3
			c-14.8,0-29.7,0-44.5,0C256.8,16,255,16.5,253.8,14.9L253.8,14.9z"/>
		<path class="st88" d="M302.9,16c0-0.3,0-0.6,0-0.9c13,0,26,0,39,0c0.3,0.2,0.4,0.4,0.3,0.6c-0.1,0.2-0.2,0.3-0.3,0.3
			C328.9,16,315.9,16,302.9,16z"/>
		<path class="st89" d="M341.9,16c0-0.3,0-0.6,0-0.9c5.1,0,10.2,0,15.3,0c0,0.3,0,0.6,0,0.9C352,16,347,16,341.9,16z"/>
		<path class="st90" d="M406.9,38c4,0,8,0,12,0c2.8,0,5.6,0,8.4,0.1c3,0.1,4.6,1.7,4.5,4.7c0,3.1-2.2,3.2-4.5,3.2
			c-6.8,0-13.6,0-20.4,0c-2.1,0-4.5,0.4-5-2.7c-0.6-3.3,1.4-4.4,4.2-4.7C406.4,38.6,406.6,38.2,406.9,38z"/>
		<path class="st91" d="M392.8,39c2.8,4.5,2.3,5.8-2.7,7.2c-5.4,1.5-10.9,0.3-16.3,0.8c-1.6,1.1-3.4,1.5-5.4,1.2
			c-1.7-0.3-3.1-1.2-4.2-2.5c-2.4-3-1.1-6.9,2.7-6.9C375.6,38.5,384.2,37.9,392.8,39z"/>
		<path class="st90" d="M446.9,38c5.6,0,11.3,0,16.9,0c0.7,0.9,1.8,0.8,2.7,1c2,0.5,2.4,2.1,2.3,3.9c-0.1,2-1.2,3-3.2,3
			c-7.8,0-15.6,0-23.5,0c-2.3,0-4.1-1.2-4.1-3.5s1.7-3.4,4-3.5C443.7,38.8,445.5,39.4,446.9,38z"/>
		<path class="st92" d="M392.8,39c-7.5,0-14.9,0-22.4-0.1c-2.7,0-5.9-0.2-6.3,3.2c-0.3,2.8,2,4.3,4.7,4.8c0.6,0.6,0.6,1.3,0.3,2
			c-1.3,1.2-2.8,1.2-4.3,0.4c-0.2,2.2,3,1.2,3,3.5c0,1.8-0.6,3.5-0.8,5.2c0.9-0.3-0.3-2.5,1.6-2.2c1.7,1.6,1.5,3.3,0.2,5.1
			c-3.3,0-6.6,0-10,0c-1.1-1.3-1-2.7,0.4-3.3c4.9-1.8,2.9-3.7,0.3-5.7c-0.2-0.6-0.3-1.2-0.8-1.7c-0.3,0.6,0.4,0.9,0.5,1.4
			c0.1,0.7,0,1.3-0.5,1.8c-2.6,1.1-5.6,0.8-7.9,2.8c-0.9,0-1.5-0.3-1.1-1.3c0.3-2.4,2.2-4.5,1.3-7.1c1.5-1.3-0.7-2.5-0.2-3.8
			c2.8,0.2,6.6,3.7,7.2-3c0.2-1.6,5.4-3.1,8.9-3c8.6,0.1,17.2,0,25.9,0C392.8,38.3,392.8,38.6,392.8,39z"/>
		<path class="st93" d="M446.8,59.9c-2.7,2.9-6.2-1.4-9,1c-0.6-0.9-0.8-1.8-0.4-2.8c0.7-1.2,2.4-1.1,3.1-2.8c-2-1.9-4.5-1.4-6.6-0.8
			c-2.9,0.8-0.7,1.9,0.2,2.9c0.9,1.2,3,1.4,2.8,3.5c-11-0.8-22,1.2-33-0.8c-0.2-0.1-0.3-0.3-0.5-0.4c-0.2-0.6-0.2-1.2,0.4-1.7
			c7,0.1,14,1,20.9-0.1c2.8-0.1,3.7-1.7,3.6-4.3c-0.1-1.6-0.6-3.9,2.4-3.6c0.7,0,1.4,0,2.2,0c2.3,0,4.6,0.5,6.9,0
			c0.6,1.2,1.3,0.1,2,0.1c3.1-0.4,3.9,1.3,4,3.9C445.9,55.9,445.2,58.1,446.8,59.9z"/>
		<path class="st65" d="M377.8,60c-0.3,0.3-0.7,0.6-1,0.9c-1.9-3.3-2.1-6.6,0.1-9.9c1.6,2.8,3.2,0.9,4.9,0c1.7-1.5,3.3,1.1,5,0.1
			c0.4,0.9,1,1.5,2,1.9c2.9,3.6,2.6,4.5-2,7l0,0C383.9,60.7,380.8,57.7,377.8,60z"/>
		<path class="st94" d="M386.8,60c1.1-2.2,4.7-3.7,2-7c0-1.3,0.8-1.9,2.1-2c1.3-1.1,2.6-1.1,3.9,0l0.1,0.2c-0.7,2.4-3.3,4.5-0.5,7.4
			c1.2,1.2-0.3,2.3-1.9,2.4C390.6,61,388.6,61,386.8,60z"/>
		<path class="st95" d="M430.8,49.9c-3.3,1.8-1.4,5-2,7.5c-0.1,0.5,0.1,2.3-0.7,1.2c-1.2-1.8-3.4,3.4-3.4-0.8c1.7-2,0.4-4,0.1-6
			c1.3,0,2.1,0.8,2.2,2.6c2-2.9-0.9-3.4-1.5-5.2C427.4,48.8,429.1,48.4,430.8,49.9z"/>
		<path class="st96" d="M446.8,59.9c-3.1-0.5-2-3-1.9-4.7c0.1-2.6-0.5-4.4-3.1-5.3c1.6-1.8,3.7-1.3,5.4-0.9c1.8,0.4-0.6,1.2-0.4,1.9
			C446.9,54,446.8,56.9,446.8,59.9z"/>
		<path class="st97" d="M453.6,55.8c0-0.3,0-0.5,0-0.8c0.8-2.3,0-4-2.1-5.6c1.5,0.7,4.2-3.2,4.4,1.5c-0.1,2.9-0.1,5.9-0.2,8.8
			C451.4,60.4,453.4,57.6,453.6,55.8z"/>
		<path class="st98" d="M377,51c0,3.3-0.1,6.6-0.1,9.9h-0.5h-0.5c-1.6-1.5-1.4-3.6-1.5-5.5c0-1.7-0.1-3.2-1.4-4.5
			c-0.1-0.2-0.2-0.4-0.3-0.6c-0.1-0.5-0.1-0.9,0.2-1.3C374.1,49.9,377.3,46.9,377,51z"/>
		<path class="st31" d="M372.9,49c0,0.3-0.1,0.7-0.1,1c-0.8,1.6-1.9,1.8-3.3,0.7c-0.4-0.6-0.7-1.2-0.7-1.9c0-0.6,0-1.3,0-1.9
			c1.7,0,3.3,0,5,0C373.5,47.6,373.2,48.3,372.9,49z"/>
		<path class="st99" d="M386.9,51.1c-1.7,2.4-3.3-0.3-5-0.1c-0.2-0.9-0.8-2.1,0.9-2C384.4,49.1,386.6,48.1,386.9,51.1z"/>
		<path class="st100" d="M403.9,51c-1,4-2,0.4-3,0c-0.4-0.4-1.3-1-1.3-1.3c0.5-1.6,1.9-0.6,2.9-0.8C404.4,48.6,404.3,49.8,403.9,51z
			"/>
		<path class="st101" d="M439.8,49.9c-2.3,1.6-4.6,1.6-6.9,0C435.2,48.5,437.5,48.4,439.8,49.9z"/>
		<path class="st100" d="M412.1,51.1c-0.1,0.3-0.1,0.6-0.2,0.9c-1.4-0.6-2.9-1.3-5.1-2.2c2.6-1,4.3-1.3,6.2-0.3
			C412.6,50,412.3,50.5,412.1,51.1z"/>
		<path class="st102" d="M459.7,50c1.6-1.8,3.5-0.8,5.6-1C463.6,53.3,461.6,50.4,459.7,50L459.7,50z"/>
		<path class="st103" d="M421.1,51.1c-0.4,0.3-0.8,0.6-1.2,0.9c-1.1-0.7-2.1-1.3-3.2-2C420.1,48.7,420.1,48.7,421.1,51.1z"/>
		<path class="st104" d="M394.8,50.9c-1.3,0-2.6,0-3.9,0c-1.1-2.1,0.3-2.1,1.7-1.9C393.6,49.1,396,48,394.8,50.9z"/>
		<path class="st105" d="M476.8,53c-1.8-0.4-4.5,1.6-5-2C473.6,51.3,476.2,49.7,476.8,53z"/>
		<path class="st106" d="M211.8,41c-0.8-1.6-0.9-3.2-0.8-4.9c4.4-1.3,3.2,3.3,5,4.7c0.9,0.4,1.8,1.1,2.6,1.2
			c10.2,0.1,20.4,0.1,30.7,0c0.5,0,1.1-0.6,1.6-0.9c0.4-0.3,0.8-0.5,1.3-0.5c0.7,0.2,1.2,0.6,0.8,1.5c-1.9,4.5-5.2,6.3-10.2,5.9
			c-9.9-0.6-19.9-0.7-29.8-1l0,0C211.2,45.2,211.7,43,211.8,41z"/>
		<path class="st107" d="M321.9,36c-1.7,2.1-3.2,2.5-6.2,1.8c-2.7-0.7-6.5,0.3-9.3-0.2c-3.6-0.7-7.7-1.2-10.5-4.3
			c-1.4,1.3-0.6,2.3,0,3.2c0.9,1.5-0.5,1.6-1.2,2c-1,0.5-1.8-0.2-1.7-1.1c1.2-7.3-3.1-2.8-5.4-2.6c-0.5,0-1.1-0.5-1.7-0.8
			c1.6-2.7,3.4-4.9,6.8-2.3c0.5,0.4,1.8,0.3,2.4-0.1c3.5-2.6,6.5-1.5,9.2,1.2c1.2,1.2,2.3,1,3.7-0.1c-0.2-1.5-2.7-0.1-2.6-2.4
			c2.6,1,6.6-2.5,7.4,3.3c0.1,0.9,2.6,2.2,3.6,0.4c0.9-1.7,1.2-3.6,3.6-3C322.9,31.8,320.7,34.5,321.9,36z"/>
		<path class="st108" d="M216,40.8c-2.7-0.5-1.9-4.7-5-4.7c-0.6-1.4-2-2.7-0.1-4.1c6.1,0.7,12.1-0.1,18.1-0.2c1.3,0,2.6-0.9,2.9,1.3
			c0.4,0.7,0.1,1.3-0.3,1.8c-2.1,2.2,1,4,0.4,6.1c-3.1,0.6-5.7-0.9-8.4-2C220.8,37.8,217.5,36.2,216,40.8z"/>
		<path class="st109" d="M230.9,34c0.3-0.3,0.7-0.7,1-1c4.7-2.1,9.7-0.4,14.5-0.9c1.6-0.2,3.8-0.5,4,1.8c0.2,2-2,4-3.3,3.7
			c-4.1-0.8-7,0.9-9.8,3.3c-0.3,0.2-1,0-1.5,0c-0.4-1.2,0.6-2.2,0.3-3.6c-1.4,0.5-2.2,2.9-3.8,1.8C230.6,38,231.6,35.7,230.9,34z"/>
		<path class="st2" d="M230.9,34c2.4,0.8,2.2,2.6,1.2,4.8c2.7-0.8,2.8-3.3,4.5-4.1c1.8,2.4,1.7,4.5-0.7,6.3c-1.3,0-2.6,0-3.9,0
			C230.6,38.7,227.1,36.9,230.9,34z"/>
		<path class="st110" d="M347.9,42.9c-0.2,0.9,0.3,2.2-0.9,2.6c-1.1,0.4-1.9-0.6-2-1.6c-0.5-3.7-2.8-6.6-4.2-9.9c0.7,0,1.4,0,2.1,0
			C344.6,36.9,346.3,39.9,347.9,42.9z"/>
		<path class="st111" d="M251.6,40.7c-0.2,0.1-0.5,0.2-0.7,0.3c-1-3,0.8-4.6,3.1-5.9C254.6,37.6,253.5,39.3,251.6,40.7z"/>
		<path class="st112" d="M251.6,40.7c0.8-1.9,1.6-3.7,2.4-5.6c0.3-0.1,0.6-0.1,0.8-0.1c0.2,2.5-0.4,4.9-1.8,7
			C252.6,41.6,252.1,41.1,251.6,40.7z"/>
		<path class="st113" d="M240.1,11.9c2.9-2.6,5.9-1.5,8.8,0C245.9,11.9,243,11.9,240.1,11.9z"/>
		<path class="st70" d="M111,25c3.6,0.7,7.4-0.7,11,0.9c4.6,0,9.2,0.1,13.9-0.4c2.9,1.6,1.5,3.3,0.1,4.9c-1.7,1.1-4.6,0.8-4.8,3.7
			c-0.2,3.4-3.1-0.6-4.3,1.8c-1.1,2.2-3,2-5-0.4c-1.2-1.4-4.3-1-6.7-0.4c-4.3,1-8.7,0.4-13.1,1.1c-2.8,0.4-4.5-2.4-6.4-4.2
			c-0.5-0.9-0.6-1.9-0.2-2.8c1.2-2.3,3.5-2.4,5.6-3.2c3-0.5,6.2,1.1,9-1C110.3,24.6,110.6,24.6,111,25z"/>
		<path class="st70" d="M96,29c0,1,0,2,0,3c-0.1,0.2-0.2,0.4-0.3,0.6c-3.4,2.6-5.1-1.6-7.7-2c-0.9,0.7-0.8,1.8-1.2,2.6
			c-0.6,1.4-1.5,2.8-3.1,2.7c-1.7-0.1-1.4-1.9-1.6-3.1c-0.3-1.4-0.9-2-2.4-1.6c-0.4,0.1-0.9,0.2-1.3,0.1c-3.7-0.4-5.9,2.4-8.6,4.1
			c-1.9,0.5-3.2-0.4-4.4-1.7c-1.1-1.6,0.2-5.6-4-4.3c-1.7,0.1-3.4,0.3-4.7,1.6c-0.9,0.5-2.2,1.2-2.7,0.7c-3.2-2.9-7.8-1.2-11.1-3.6
			c0.6-4.3,4.2-2.6,6.2-2.5c3,0.1,5.9,0.6,8.9,0.3c0.3,0,0.7,0,1,0c5.4-0.3,10.8-1.1,16.2,0c1.9,0.4,3.9,0.3,5.8,0
			c1-0.3,1.9-0.5,2.9-0.8c2.4,0.9,4.7,0.6,7.1-0.1c0.3,0,0.6,0,0.9,0C93.9,25.7,94.1,28.2,96,29z"/>
		<path class="st114" d="M58,26c-3.7,2.8-7.7-0.5-11.6,0.6c-1.3,0.3-2.5,0.3-3.4,1.4c0,1.8-0.9,1.7-2,1c1.4-4.2-3-2.7-3.2-2.4
			c-3.1,4.9-5.9,1.8-8.8,0c-0.5-0.3-1.2-0.3-1.9-0.5c0.5-1.5,1.8-2.6,2.9-1.8c4.2,2.9,8.2,0.2,12.3,0.2c5,0,9.9,0.6,14.9,0.9
			C57.5,25.4,57.7,25.8,58,26z"/>
		<path class="st39" d="M135.9,30c0.5-1.3,0.9-2.7,0-4c-0.3-0.2-0.4-0.4-0.3-0.7c0.1-0.2,0.2-0.3,0.3-0.3c4.1-0.9,8.1-0.8,11.6,1.7
			c1.1,0.8,1.8,0.5,3,0.4c2.6-0.3,0.1,1.3,0.4,1.9l-0.1,0.1c-1.4,2.7-3.2,4.1-6.3,2.2c-2.5-1.6-5.3-1.3-8.1-0.9
			C136.3,30.2,136.1,30.1,135.9,30z"/>
		<path class="st115" d="M136,25c0,0.3,0,0.7,0,1c-4.7,1.4-9.3,2.5-14,0c0.3-0.7,0.6-1.4,0.9-2.2C127.1,26,131.8,22.3,136,25z"/>
		<path class="st114" d="M81,25.9c-0.8,0.3-1.6,1-2.3,0.9c-6.5-1.3-13.2,0.1-19.7-0.9c3.9-3.1,8.5-0.7,12.7-1.2
			C74.5,24.4,78,24.4,81,25.9z"/>
		<path class="st116" d="M96,29c-4.5,1.9-2-3.3-4-3.9c2-0.5,3.8-1.5,6-1c0.8,0,1.6,0.2,2.1,0.9c0.3,0.3,0.7,0.7,1,1
			C100.1,28.3,97.5,27.8,96,29z"/>
		<path class="st117" d="M111,25c-0.3,0-0.7,0-1,0c-1.3-1-3.7,0.5-4.5-2.2c2.1-1.3,4.5-1.3,6.5,0C113.1,23.6,111.1,24.1,111,25z"/>
		<path class="st117" d="M100,25c-0.8,0-1.6-0.2-2.1-0.9c0.5-0.6,1-1.4,1.6-1.7c1.4-0.6,3.4-0.8,3.6,0.9
			C103.5,25.4,101.3,24.8,100,25z"/>
		<path class="st114" d="M91,25.1c-2.4,1-4.7,3.5-7.1,0.1C86.3,23.7,88.7,24.8,91,25.1z"/>
		<path class="st118" d="M153.3,21.4c-1.8,2.7-3.1,3-5.1,1.7C149.5,21.6,151.1,22,153.3,21.4z"/>
		<path class="st119" d="M9,68.9c-0.7,1.1-1.9,1-3,1C7.3,64.5,5.3,59.3,5,54c-1.1-2.9,0.2-6.1-1-9c-0.3-1-0.7-2-1-3
			c1.3-4.4,1.5-9,4-13c0.2,3.1,0.6,6.1-1.3,8.9c-1.8,2.7,0,5.6,0.5,8.1C7.8,53.6,7.8,61.3,9,68.9z"/>
		<path class="st120" d="M96,32c4,2.5,8,5.2,12.7,1.2c3.2,3.9,6.9-1.5,10.3,0.5c1.5,0.9,0.9-0.8,1.4-1.1c1.5-1.1,2.6-0.7,3,0.9
			c0.3,1-1.3,2.9,1,3c2.5,0.1,2.1-2.3,2.5-3.7c1.1-0.6,2.5,5.3,3.1-0.5c0.2-1.8,3.5-2.7,6-2.3l0,0c4.4,3.6,8.9,6.9,15.1,4.6
			c0.6-0.2,1.4-0.1,2,0.2c4.7,2.8,9.5,0,14.3,0.7c1.6,0.2,0.9-2.6,2.7-1.6c0.3,0,0.6,0,1,0c-0.6,3.2,2.5,4.4,4.1,5.6
			c2.3,1.8,1.6,4.1,1,5.2c-1.4,2.4-2.5-0.3-3.8-0.9c-2.8-1.5-8.7,0.6-11.4,3.9c-1.6,2-3.9,1.6-6,1.5c-8.2-0.4-16.5-0.5-24.7,0.2
			c-2.4-0.1-4.9-0.8-6.8,1.3c-1.6,0.5-3.3,0.6-4.9-0.1c-2.8-2.5-6.3-1.4-9.5-1.6c-3.6-0.3-7.9,1.3-9.5-3.8c-4,0.1-6.9-2.6-10.4-3.7
			c-0.4-0.1-0.5,1.1-0.6,1.7c-2.5,5.3-2.8,5.5-6.2,3.2c-0.7-1-1.2-2-0.7-3.3c-0.6-0.4,3-0.6,0.1-1.2c-0.5-0.1-1-0.2-1.4-0.4
			c-1.2-1.1-0.9-2.4-0.6-3.8c0.4-0.6,0.9-1,1.6-1.2C86.5,35.8,91.4,34.5,96,32L96,32z"/>
		<path class="st70" d="M170,33.9c-1,1.2-1,2.3-3.8,2.8c-5.4,0.9-10,1-14.9-1.1c-0.8-0.3-2.2,0.6-3.3,0.9c-5.2,1-9.7-1.4-12-6.5
			c2.4-1.8,5.2-2,7.6-0.5c2.8,1.8,5,1.8,7.4-0.4c1.5,1.5,4.2,1.1,5.3,3.4c0.3,0.5,0.9,1.3,1.5,0.6c3.9-4.2,7.8,1.1,11.7,0.1
			C169.5,33.1,169.8,33.7,170,33.9z"/>
		<path class="st121" d="M343,93.9c-4.5-6.2-10-8-18.2-6c-3.3,2.1-6.6,2-9.9,0c-5.8,0.4-9.7,3.1-11.1,9c-1.7,1.6-0.7,3.8-1.3,5.6
			c-3.1-9.6,4.2-18.8,14.8-17.6c6.1,0.7,12.3-0.6,18.4,0.9c4,1,6.9,3,8.4,7C344.4,93.8,343.9,94.1,343,93.9z"/>
		<path class="st122" d="M343,93.9c0.4-0.4,0.7-0.7,1.1-1.1c2.4,4.4,6.2,8.6,2.4,14.1C347.7,101.9,344.3,98.1,343,93.9z"/>
		<path class="st123" d="M245.8,148.8c1.1,0,2,0.4,1.9,1.6c-0.1,1.6-1.7,1.8-2.8,2c-1.1,0.1-1.8-0.8-1.6-1.9
			C243.5,149.2,244.6,148.9,245.8,148.8z"/>
		<path class="st42" d="M4,45c1.8,2.8,0.9,6,1,9C3,51.1,4.4,47.9,4,45z"/>
		<path class="st124" d="M349.8,54.8c0.3,0.4,0.7,0.8,1,1.1c2.2,1.7,0.6,4,1,6c5.2,2,10.7,0.5,16,1c-1.7,1.9-4.7,2.8-5,5.9
			c-0.3,0-0.6,0-0.8,0c-1.1-1.4-2.8-1.4-4-0.9c-3.2,1.5-6.1,0.6-9.1-0.1C345.8,63.3,348.4,59.1,349.8,54.8z"/>
		<path class="st125" d="M309.9,59.9c-0.7,0-1.3,0-2-0.1c-2.9-1.8-6.1-0.5-9.2-0.9c-1.7-0.2-3.7,0.6-5.1-1.1
			c5.3-3.3,10.9-0.2,16.4-0.5C312.8,57.3,310,59,309.9,59.9z"/>
		<path class="st126" d="M265.5,58.6c-5.4,0-10.2,0-15,0c2.9-1.1,5-5.1,8.8-2.8c-0.4,2.1-2.2-0.6-2.7,1.3
			C259.1,59,262.3,57.2,265.5,58.6z"/>
		<path class="st127" d="M238.9,59.9c-1.3,0-2.7,0-4,0c-2.1-2.9-6.3,0.5-8.3-2.8C230.2,55.5,236.1,56.9,238.9,59.9z"/>
		<path class="st107" d="M295.8,41.7c1.9-2.5,1.9-2.5,5.1-3.4C299.7,41.3,299.2,41.6,295.8,41.7z"/>
		<path class="st107" d="M313.9,44.5c-2,0.1-3.7-0.6-5.7,2.1C310.3,41.5,310.3,41.5,313.9,44.5z"/>
		<path class="st128" d="M293.7,55.3c1.4-2.1,2.5-3,4.1-2.6c0.2,0,0.5,0.9,0.4,1.2C297.2,55.3,295.7,55.1,293.7,55.3z"/>
		<path class="st41" d="M118,49.9c2,0,4,0,6,0.1c1.6-1.6,3.5-0.6,5.3-0.8c5.6-0.5,11.3-0.1,16.9-0.3c8,0.2,16,0,24,0.1
			c2,0,4-0.4,5.8,0.9c2.3,0,4.6,0.1,6.9,0.1c3.1,0.8,6.2,0.4,9.4,0c2.9-0.3,4.8,0.6,6,3.7c1.6,3.9,1.4,7.8,0.9,11.7
			c-0.3,2.3-1.8,3.5-4,3.7c-2.3,0.2-4.7,0.1-7,0.2c-19.8,0.1-39.6-0.1-59.3,0.1c-0.7,0-1.3-0.1-1.8-0.5c-4.4,0-8.7,0-13.1,0
			c-4.6,0.8-9.3,0.9-13.9-0.1c-1-0.4-1.9-0.8-2.9-1.2c-1.4-2.7-0.3-5.7-0.7-8.5c-0.9-2-1-4-0.8-6.1c0-0.9,0.2-1.8,0.6-2.7
			c0.3-0.6,0.8-1,1.3-1.3C104.4,48.9,111.2,48.1,118,49.9z"/>
		<path class="st99" d="M127.9,68.9c1.5-1.5,3.4-0.9,5.2-0.9c20.1,0,40.2-0.1,60.4,0.1c3.5,0,4.6-0.9,4.6-4.5
			c-0.1-12.4,0-12.4-11.9-12.8c-1.2,0-2.3,0.1-3.3-0.8c3.1-0.4,6.2,0,9.3-0.8c1.4-0.4,3.2,0.7,4.8,0.8c1.4,0.1,0.5,3.8,2.9,1.8
			c1.5-1.3,0.9-2.9-1.5-5.3c4.9,3.1,5.8,14.3,3.5,27.3c-0.4,0-0.7,0-1.1-0.1c-2.4-2.8-5.7-2.3-8.8-2.3c-19-0.1-37.9,0-56.9-0.1
			C132.6,71.4,129.2,72.6,127.9,68.9z"/>
		<path class="st129" d="M175.9,49.9c-10,0-20,0-30,0c-5.4-1.1-10.8-0.2-16.2-0.6c-0.2-0.2-0.5-0.3-0.7-0.5c3.9-1,7.8-1.5,11.9-1.3
			c6.6,0.4,13.3,0.1,20,0.1c6.4,0,12.8,0,19.2,0C178.8,49.4,176.9,48.3,175.9,49.9z"/>
		<path class="st52" d="M211.8,41c1.1,1.8,1.3,3.9,1.1,5.9c-1.1-0.3-2.9,0.9-3.3-1C209.1,43.9,210.3,42.3,211.8,41z"/>
		<path class="st130" d="M361.8,68.9c0,2-0.1,3.9-0.1,5.9c-1.5-0.6-2.4-2.2-4.4-2.7C358.8,71,360.3,70,361.8,68.9z"/>
		<path class="st8" d="M320.9,62c-1.3-0.2-2.9,0.5-3.9-1c3.6,0,7.2,0,10.7,0c0,0.3,0,0.7,0,1C325.4,62,323.2,62,320.9,62z"/>
		<path class="st131" d="M445,72c1.5-0.1,3-0.5,4.5,0.2c-0.6,2.6-3.2,3.2-4.6,4.8c-1.6,0.2-2.2-0.8-2.2-2.2
			C443.4,73.9,444.2,73,445,72z"/>
		<path class="st132" d="M440.8,65c-20-0.4-39.9-1.6-59.9-1.1c-0.3,0-0.7,0-0.9-0.2c-0.2-0.1-0.1-0.5-0.1-0.8c26,0,52.1,0,78.1,0
			c0,0.6,0.1,1.2,0.1,1.8C452.3,64.8,446.6,64.9,440.8,65z"/>
		<path class="st65" d="M351.8,62c-1.8-1.8-0.5-4-1-6c1.1-5.2,5.5-2.2,8.3-3.3c0.2-0.4,0.5-0.6,1-0.7c2.8-0.9,3.4,1.2,3.8,3
			c0.4,2.2-0.8,3.5-3.1,3.2c-2.3-0.2-1.7,1.4-1.8,2.6C356.5,61.3,353.9,60,351.8,62z"/>
		<path class="st65" d="M369.9,50c1,1.5,1.9,0.3,2.9,0l0,0c2.7,3.6,1.7,7.2,0.1,10.9c-1.4,0-2.7,0-4.1,0c-0.1-1.7,0.6-3.6-0.9-5
			C367.5,53.6,365.8,50.9,369.9,50z"/>
		<path class="st133" d="M372.9,60.9c-0.6-3.6,1.2-7.3-0.1-10.9c2.4,0.7,3.4,1.9,2.8,4.6c-0.4,2,0.2,4.1,0.3,6.2
			C374.9,60.9,373.9,60.9,372.9,60.9z"/>
		<path class="st94" d="M377.8,60c3-4.2,6-1.5,9-0.1C383.9,62.2,380.9,60.4,377.8,60z"/>
		<path class="st93" d="M403.9,60c-1.9,1.6-4,0.9-6.1,0.6c-0.9-0.1-2.1-0.8-1.5-2c0.7-1.2,1.7,0.1,2.5,0.2c2-1.6,3.5-0.4,4.9,1
			L403.9,60z"/>
		<path class="st134" d="M453.6,55.8c0.5,1.4-0.7,3.8,2.1,4c-1.5,1.6-3.5,1.8-4.5,0.1C450,57.9,452.5,57,453.6,55.8z"/>
		<path class="st135" d="M436.9,60.8c-0.8-1.2-3.3-0.7-3.1-2.9c1.4-3.1,2.7-1.7,4,0c0,1,0,2-0.1,2.9h-0.4H436.9z"/>
		<path class="st136" d="M403.8,59.9c-1.6-0.3-3.3-0.7-4.9-1c1-3.7,3.1-1.5,4.9-1C403.8,58.6,403.8,59.3,403.8,59.9z"/>
		<path class="st137" d="M38,82.9c-1.6-0.3-3.3-0.7-4.9-1c0.7-0.9,1.7-0.9,2.7-0.9c15.3,0,30.6,0,46,1c-1.9,0-3.8,0-5.7,0
			c-3,0-6-0.1-9,0c-6.1,0.3-12.9-2.3-16.9,5.2c-1.6-2.2,0.8-3.3-0.1-4.9c-4-2.1-5.8,3.1-9.6,3.1C41.3,82.8,41.6,80.7,38,82.9z"/>
		<path class="st69" d="M20,104.9c4.3-1,8.1,0.3,12,2c0.1,0.3,0.3,0.5,0.4,0.8C28.1,107.6,23.5,108.6,20,104.9z"/>
		<path class="st138" d="M20.9,89c1.1-1.4,2.1-2.7,3.2-4.1c3-1.6,5.9-1.6,8.9-0.1c1.3,1.4,2.7,2.7,4,4.1c0.7,0.9,0.9,1.8,0.3,2.8
			c-1.6,0.9-2.2-0.5-3-1.3c-4.9-5.2-8.2-4.5-10.3,2.1c-0.2,0.6-0.5,1.2-1,1.7c-0.5,0.2-1,0.2-1.5,0C19.9,92.6,20.5,90.8,20.9,89z"/>
		<path class="st139" d="M88.6,95.4c1.5-1.1-0.6-4.2,2.2-4c0.8,0,2.1,0.7,2,1.8C92.6,95.8,90,94.5,88.6,95.4z"/>
		<path class="st140" d="M97.2,50.1c-0.1,0.2-0.2,0.5-0.3,0.7c-2,2-4.6,1.5-7.1,1.4c-16.8-0.4-33.6,0.2-50.4,0.1
			c-2,0-4.9-1.2-5.5,2.4c0.8,2.7,3.1,2.6,5.2,2.7c3.3,0.2,6.6-0.2,9.9,0.4c8.7,2,17.4,1.5,26.2,0.7c6.2-1.2,12.5-2.5,18.7,0.3
			c-2.1,4.5-6.2,1.1-9.2,2.2c-1.4,0.5-3.2-0.2-4.7-0.3c-1,1.8,1.6,2.2,0.8,3.9c-6.9,0-14,0-21,0c-3.4-2.3-7.4-1.1-11-1.1
			c-9.9,0.1-19.7-0.1-29.6-0.3c-1.2,0-1.8-0.7-2.4-1.5c-0.3-3.3-0.6-6.6-0.9-9.9c1.7-3.6,0.3-7.4,0.9-11c1.1-0.8,1.9-2.1,3.6-2.1
			c2.1,0,4.6,2.2,6.2-1.4c0.4-0.9,2,1.2,3.2,1.5c4.5-2,9.1-3.3,14-3.1c1.6,0.1,3-0.3,4.3-1c4.1-2.2,8-3.8,12.4-0.2
			c1.8,1.5,3.7-0.5,5.3-1.7c1.1,1.1,2.1,2.4,4,2c3.7,0.3,7.6,1,9-4l0,0c4.1,0.2,4.2,0.5,2,6c-0.3,0.3-0.7,0.7-1,1
			c-1.8,6.1-1.8,6.1,3,8c4.3,3.4,3-2.5,5-3c0.6-0.4,1.6-0.7,1.8-0.4C91.4,45.9,96.2,46.2,97.2,50.1z"/>
		<path class="st70" d="M66,33c-1.3,3.9-4.3,5.2-6.7,2.6c-2.8-3.1-5.8-2.3-8.4-0.9c-6.2,3.4-13.6,1.7-19.7,5.1
			C31,39.9,30.4,39.3,30,39c2.3-4.9,7.1-6.8,13.8-5c1.5,0.4,2.7,0.7,4.2,0.1c1.2-0.5,2.8-0.7,2.5-2.4c-0.3-1.5-1.7-1.7-3.2-1.4
			c-2.3,0.6-4.5,0-6.4-1.4c0.8,0,1.6-0.2,2-1c4.8-0.3,8.9,4.2,14,2c1.4-0.1,3,0.5,4-1c1.5-1.5,3.2-1.3,4.8-0.4
			C68.4,29.9,64.7,31.5,66,33z"/>
		<path class="st141" d="M50.2,59.1c-4.4-0.1-8.8-0.2-13.2-0.2c-2.4,0-4.1-0.6-4.9-3.1c0.7-2.5,2-3.9,4.9-3.9
			c18.9,0.1,37.8-0.1,56.7,0c1.2,0,2.3,0.2,3.3,1c0,2,0,4,0,6c-0.3,0.4-0.6,0.4-0.9,0c-0.7,0-1.4,0-2,0C87.4,58.6,80.6,58.4,74,60
			C66,58.8,58,60.3,50.2,59.1z"/>
		<path class="st142" d="M17,61.9c10.5,0.9,21.1,1.3,31.6,0.5c3.2-0.3,6.4,1.1,9.8,0c0.9-0.3,2.8,0.5,1.6,2.5
			C53.3,65,46.6,65,39.9,65.1c-7.6-0.1-15.2-0.2-22.7-0.2C17.1,63.8,17,62.9,17,61.9z"/>
		<path class="st143" d="M100,68.9c4.6,0,9.3,0,13.9,0.1c-0.3,0.6-0.7,1.3-1,1.9c-1.8-0.3-3.5-0.9-5.3-0.9s-4.5-0.9-5.1,1.5
			c-0.4,1.9,2.2,2.4,3.5,3.5c-2.7,1-5.4-0.9-8.1-0.2c-0.5-0.4-1-0.7-1.5-1.2c-1-0.8-2.5-1.4-2-2.9c0.4-1.4,1.9-0.8,3-0.9
			C98.4,69.8,99.4,69.9,100,68.9z"/>
		<path class="st144" d="M96,59c0.3-0.1,0.6-0.1,0.9,0c0.1,2.9,0.2,5.8,0.2,8.7c-0.8,0.7-2.1,1.4-1.7-0.3C96.2,64.6,95.7,61.8,96,59
			z"/>
		<path class="st14" d="M37,91.9c0-1,0-2,0-3c4,3.6,1.4,7.1-0.7,10c-3.1,4.4-7.1,5.2-11.2,3.1c-5.1-2.6-6.4-6.5-4.2-12.9
			c0.3,1.7-0.6,3.6,0.9,5.1c0.8,0.3,1.5,0.7,2.1,1.2c4.2,3.3,7.2,3.1,10.7-0.8C35.5,93.6,36.1,92.6,37,91.9z"/>
		<path class="st145" d="M122.4,90c1,0.1,1.4,0.7,1.4,1.7c0,0.9-0.5,1.8-1.4,1.7c-0.8,0-1.4-0.8-1.5-1.8
			C120.9,90.6,121.4,90.1,122.4,90z"/>
		<path class="st146" d="M127.9,68.9c1.4,1.7,3.4,1,5.1,1c21.1,0.1,42.3,0.1,63.4,0c2.8,0,5.1,0.1,4.4,3.9c-8,2.3-16.1,0.7-24.2,0.9
			c-17.2,0.4-34.5,0.1-51.7,0.1c1.4-1.7,2.4-3.6,2-5.9C127.3,68.9,127.6,68.9,127.9,68.9z"/>
		<path class="st147" d="M369.9,50c-2.6,1.3-1.8,3.8-1.9,5.9c-0.1,1.1-0.2,2.1-0.3,3.2c-1.3-3.4,0.6-7.8-5.6-10.2c3.4,0,5.1,0,6.7,0
			C369.2,49.2,369.5,49.6,369.9,50z"/>
		<path class="st148" d="M360,52c-0.3,0.2-0.6,0.4-1,0.7c-0.2-2.1-2.7-1.5-3.5-2.9C359.8,48.6,359.8,48.6,360,52z"/>
		<path class="st9" d="M437.8,57.9c-1.3-0.5-2.7-1.7-4,0c-1.6-0.3-3.8-0.5-3.7-2.5c0.2-2.2,2.4-2.3,4.3-2.4c1.2-0.1,2.3-0.1,3.5,0
			c1.7,0.1,4.2-0.6,4.5,1.9C442.6,57.8,440.1,58.1,437.8,57.9z"/>
		<path class="st70" d="M81,37c-1.1-0.8-0.7-1.6-0.1-2.5C82.7,32,81,31.4,79,31c0.6-1,1.2-2.3,2.6-1.5c2.3,1.2,1.8,3.6,1.4,5.8
			c4.1-0.9,2.1-5.1,4.5-6.6c3,0.7,4.4,5.3,8.5,3.3c0.2,0.6,0.4,1.2,0.6,1.8c-2.7-1.3-3.8,4-6.8,1.7c-1-0.7-1.9,0-2.6,0.8
			C85.3,38.4,83.2,38.3,81,37z"/>
		<path class="st70" d="M79,31c-0.4,6.4-3.2,7.7-9,4C72.3,32.2,74,27.9,79,31z"/>
		<path class="st140" d="M61,29c0.4,1,0.7,1.7-0.8,2.1c-1.4,0.3-2.6,0.6-3.2-1.1C57.8,27.6,59.6,29,61,29z"/>
		<path class="st70" d="M97.2,50.1c-1.7-0.6-2.3-3.2-4.9-2.4c-1.1,0.3-2-1.3-1.7-2.4c0.8-2.8-1.9-1.4-2.6-2.3
			c-1.6-1.4-1-2.7,0.5-3.6s2,1.3,2.1,1.3c3.3,0,4.9,4.7,8.7,3c0.4-0.2,1.7,0.3,1.7,0.5c0.1,6.1,4.8,3.2,7.6,3.7
			c2.7,0.4,5.6,0.1,8.4,0.1c1.7,0,1.4,1,1,2C111,50,104.1,50,97.2,50.1z"/>
		<path class="st70" d="M83,46c-2.3,1.6-3.8,0.6-5-1.5c-1.8-3,0.2-4.7,2-6.5c0.6,1,0.6,2,0,3c-0.9,2.2,1.7,1,2,2
			C82.3,44,82.6,45,83,46z"/>
		<path class="st140" d="M82,43c-1-0.2-2.3,0.6-3-0.5c-0.1-0.2,0.7-1,1.1-1.5c1,0,2,0,3,0c1.8,0.1,2.5,1.5,1.8,2.7
			C83.8,45.2,83,43,82,43z"/>
		<path class="st149" d="M128.9,50c-1.7,0-3.3,0-5,0c0.9-4,3.1-2.1,5.1-1.1l0,0c0.3,0.3,0.4,0.5,0.2,0.7
			C129.2,49.8,129.1,50,128.9,50z"/>
		<path class="st150" d="M314.9,87.9c3.3,0,6.6,0,9.9,0c-2.6,4.6-2.1,9.6-1,14.9c-5.1-1.7-6.9-5.6-7.8-10
			C315.6,91.1,315.9,89.3,314.9,87.9z"/>
		<path class="st151" d="M161.9,65.9c-9.3,0-18.6,0-28,0c-1.8,0-3.8,0.4-4-2.4c-0.2-2.5,0.8-3.4,3.3-3.7c2.6-0.4,5.2-0.8,7.9-0.8
			c12.3-0.3,24.7,0.4,37-1c4.7-0.5,9.2,1.2,13.9,1.1c2.5,0,3.7,2,3.5,4c-0.2,2.3-2.4,2.9-4.6,2.9C181.2,65.9,171.6,65.9,161.9,65.9z
			"/>
		<path class="st152" d="M113,52c3.8,0,7.6,0,11.4,0c2.8,0,3.9,1.5,3.3,4.2c-0.1,0.3-0.3,0.6-0.3,0.9c-1.6,7.8-1.6,7.8-9.9,7.8
			c-3.8,0-7.6-0.2-11.4,0c-3.8,0.2-4.9-1.7-5.1-5c-0.1-1.8,1.5-4.1-1.7-5.5c-1-0.4,0.4-2.5,2.3-2.5C105.3,52,109.1,52,113,52z"/>
		<path class="st153" d="M96.9,53c-19.4,0-38.7,0-58.1-0.1c-2.8,0-5.2,0.3-6.8,2.9c-0.8-4.3,1.6-5.1,5.2-5c12.4,0.1,24.9,0,37.3,0
			c7.4,0,14.9,0,22.3,0C96.9,51.6,96.9,52.3,96.9,53z"/>
		<path class="st120" d="M128.9,50c0-0.4,0.1-0.7,0.1-1.1c5.6,0.4,11.4-0.7,16.9,1.1C140.3,49.9,134.6,49.9,128.9,50z"/>
		<path class="st154" d="M23.1,93.9c-0.1-3.2-0.5-6.6,3.4-7.9c3.7-1.2,6.9-0.1,8.6,3.8c0.7,4.2-0.8,7.3-4.8,8.1
			C27,98.7,24.1,97.7,23.1,93.9z"/>
		<path class="st74" d="M23.1,93.9c1.8,2.2,3.8,4.3,6.9,3.4c3.5-1.1,5.3-3.7,5.1-7.5c0.6,0.7,1.3,1.4,1.9,2c-0.7,4.2-3.4,6.3-7.3,7
			c-3.9,0.7-6.2-1.5-7.8-4.8C22.3,94,22.7,94,23.1,93.9z"/>
		<path class="st155" d="M50.2,59.1c6.1,0,12.3-0.1,18.4-0.1c1.8,0,3.7-0.1,5.2,1.1c-3.4,2.3-7.1,0.3-10.5,0.2
			C59,60.1,54.2,62.5,50.2,59.1z"/>
		<path class="st9" d="M117,58.8c0.1-2.6,1-4.8,3.9-4.6c2.2,0.2,4.2,1.4,4.1,4.2c-0.1,2.8-1.5,4.3-4.3,4.5
			C117.8,63.1,116.8,61.5,117,58.8z"/>
		<path class="st156" d="M32,89.5c1.4,1.9,1.7,3.4,0,4.6c-0.7,0.5-1.5,0.1-1.7-0.4C29.4,91.8,31,91,32,89.5z"/>
	</g>
</g>
</svg>
