<?xml version="1.0" encoding="utf-8"?>
<!-- Generator: Adobe Illustrator 25.0.0, SVG Export Plug-In . SVG Version: 6.00 Build 0)  -->
<svg version="1.1" id="Camada_1" xmlns="http://www.w3.org/2000/svg" xmlns:xlink="http://www.w3.org/1999/xlink" x="0px" y="0px"
	 viewBox="0 0 548.8 175.9" style="enable-background:new 0 0 548.8 175.9;" xml:space="preserve">
<style type="text/css">
	.st0{display:none;}
	.st1{display:inline;fill:#F40B0B;}
	.st2{fill:#3A4247;}
	.st3{fill:#2A2F32;}
	.st4{fill:#43464A;}
	.st5{fill:#7E8081;}
	.st6{fill:#323437;}
	.st7{fill:#1A1D20;}
	.st8{fill:#0B0C0D;}
	.st9{fill:#67706E;}
	.st10{fill:#1C1E1F;}
	.st11{fill:#0C0D0E;}
	.st12{fill:#3C4448;}
	.st13{fill:#383D40;}
	.st14{fill:#202427;}
	.st15{fill:#232526;}
	.st16{fill:#212325;}
	.st17{fill:#495256;}
	.st18{fill:#1B1C1D;}
	.st19{fill:#32393C;}
	.st20{fill:#52636E;}
	.st21{fill:#5D717E;}
	.st22{fill:#677D8C;}
	.st23{fill:#384043;}
	.st24{fill:#36383C;}
	.st25{fill:#3E4548;}
	.st26{fill:#292B2A;}
	.st27{fill:#17191B;}
	.st28{fill:#42464A;}
	.st29{fill:#323438;}
	.st30{fill:#1B1E20;}
	.st31{fill:#0C0E0F;}
	.st32{fill:#202223;}
	.st33{fill:#585852;}
	.st34{fill:#697273;}
	.st35{fill:#131515;}
	.st36{fill:#575954;}
	.st37{fill:#4D4F50;}
	.st38{fill:#191A1C;}
	.st39{fill:#242527;}
	.st40{fill:#121415;}
	.st41{fill:#131516;}
	.st42{fill:#4E5256;}
	.st43{fill:#474B4F;}
	.st44{fill:#565B5F;}
	.st45{fill:#282A2C;}
	.st46{fill:#3F464A;}
	.st47{fill:#4F575B;}
	.st48{fill:#333538;}
	.st49{fill:#505559;}
	.st50{fill:#474F53;}
	.st51{fill:#747F81;}
	.st52{fill:#3D3F40;}
	.st53{fill:#555B5E;}
	.st54{fill:#798281;}
	.st55{fill:#2F3539;}
	.st56{fill:#30373A;}
	.st57{fill:#545D63;}
	.st58{fill:#4D565A;}
	.st59{fill:#101112;}
	.st60{fill:#191B1C;}
	.st61{fill:#202224;}
	.st62{fill:#181A1B;}
	.st63{fill:#141617;}
	.st64{fill:#7A7A6F;}
	.st65{fill:#595851;}
	.st66{fill:#010102;}
	.st67{fill:#101113;}
	.st68{fill:#272C2F;}
	.st69{fill:#111313;}
	.st70{fill:#4A4F52;}
	.st71{fill:#0F1112;}
	.st72{fill:#3A3D40;}
	.st73{fill:#35373B;}
	.st74{fill:#576064;}
	.st75{fill:#4F585D;}
	.st76{fill:#404347;}
	.st77{fill:#111314;}
	.st78{fill:#030405;}
	.st79{fill:#030304;}
	.st80{fill:#020304;}
	.st81{fill:#555E62;}
	.st82{fill:#4D555A;}
	.st83{fill:#525A5F;}
	.st84{fill:#1E2123;}
	.st85{fill:#2F3538;}
	.st86{fill:#2E3336;}
	.st87{fill:#303639;}
	.st88{fill:#333A3D;}
	.st89{fill:#333635;}
	.st90{fill:#1F2325;}
	.st91{fill:#3A4145;}
	.st92{fill:#2C3235;}
	.st93{fill:#32383B;}
	.st94{fill:#2D3336;}
	.st95{fill:#31373A;}
	.st96{fill:#32383C;}
	.st97{fill:#2E3438;}
	.st98{fill:#3B4246;}
	.st99{fill:#1E2224;}
	.st100{fill:#1C1F21;}
	.st101{fill:#555D61;}
	.st102{fill:#16191B;}
	.st103{fill:#4E5559;}
	.st104{fill:#3F4447;}
	.st105{fill:#131416;}
	.st106{fill:#282A2D;}
	.st107{fill:#383A3E;}
	.st108{fill:#6C777A;}
	.st109{fill:#E7E8E9;}
</style>
<g id="Camada_2_1_" class="st0">
	<rect x="-63.2" y="-94.7" class="st1" width="699" height="343"/>
</g>
<g id="Camada_1_1_">
	<g>
		<path class="st2" d="M0,46.9c2.4,0.2,2.1-2.7,3.8-3.3c1,0.7,1.4,1.8,1.5,3c0.8,14.8,4.6,29.3,4.2,44.2c-1.3,17.8-2,35.6-3.9,53.3
			c-0.2,1.6-0.2,3.3-1.6,4.6c-1.9-2.5-2.2-5.4-1.9-8.4c1.2-15.9,2.1-31.9,3.6-47.8C6.8,81,3.7,70,2.4,58.9c-0.4-3.4-0.1-7-2.4-10
			C0,48.3,0,47.6,0,46.9z"/>
		<path class="st3" d="M187.9,175.8c-4.9-2.9-10.6-2.3-15.9-3.5c-3.5-0.8-6.5-1.9-9.2-4.2c-0.5-1.9,0-3.8,0.1-5.7s0.5-4,3.4-3.4
			c0.8,6.4,4.9,8,10.8,8.9c5.4,0.9,11,2.1,15.9,5c0.4,2.4-2.6,1.4-3,3C189.2,175.8,188.6,175.8,187.9,175.8z"/>
		<path class="st4" d="M198.9,0c2.4,2.7,6.1,3.8,8.2,6.9c-2.7,1.7-4.2-0.7-6-1.8c-1.7-1-2.7-1.1-3,1.2c-0.5,3.5-2.3,4-5.1,2
			c-0.4-0.3-0.7-0.5-1.1-0.8c-1.4-1.1-2.8-0.6-4.1,0.2c-1,0.6-2.1,1.3-3,0c-0.8-1.2,0-2.2,0.7-3.1s1.9-1.1,2.8-2
			c-2.4-0.2-5.1,1-6.7-1.7c0-0.3,0.1-0.6,0.3-0.9C187.6,0,193.2,0,198.9,0z"/>
		<path class="st5" d="M547.7,53.1c0.4,0,0.7-0.1,1.1-0.1c0,5.7,0,11.3,0,17c-7.5,0-15,0.1-22.5,0.1c-1.3,0-2.7,0.5-3.7-0.8
			c1.7-2.2,4.1-1.7,6.4-1.7c3.9-0.1,7.9-0.2,11.8,0c4,0.2,5.8-1.5,5.5-5.5C546.4,58.9,545.6,55.8,547.7,53.1z"/>
		<path class="st6" d="M297.1,110c-5.4,1-10.8,0.4-16.1,0.7c-1.3,0.1-3.5-0.5-3.1,1.8c0.7,3.9-2.2,5.9-3.9,8.5c-3.6-1-4.8,0.6-4.8,4
			c0,2.6,0.7,5.4-1.3,7.7c-1.5-3.4-0.3-7.1-0.7-10.6c-0.1-1.1,0.4-2.6-1-3c-1.5-0.4-4.1-0.9-4.7,0.3c-2.3,5.4-7,2.6-10.6,3.6
			c-0.3-0.5-0.3-1,0.1-1.5c1.9-1.6,5.8-0.7,6.1-4.2c0.4-4.4,0.8-8.9-0.3-13.3c-0.4-1.7-2.4-1.5-3.8-1.6c-3-0.1-6,0-9-0.1
			c-1.8-0.1-3.7,0.1-5.1-1.5c0.4-2.6,2.6-2.1,4.2-2.3c3.4-0.3,6.9-0.3,10.3-0.1c4.1,0.2,6.3-1.1,5.9-5.6c-0.1-1.5,0-3,0.6-4.3
			c1.1-1.9,3-1.9,4.8-1.9c3-0.1,5.9-0.2,8.8-1.2c2.3-0.8,4.2,0.2,6.1,2.1c-1.6-2.5-3.6-3.4-6.2-3.3c-2.1,0.1-4.3,0.1-6.4-0.1
			c-1.6-0.1-3.8,0.2-4.1-1.8c-0.2-1.6,1.7-2.2,3.2-2.6c20.8-0.5,41.6-0.2,62.3-0.2c0.8,0,1.7,0.2,2.4,0.5c3.3,3.4,0.3,7-1.6,7.7
			c-2.7,0.9-1.4,1.9-1.4,3.2c0,4.4,0.8,8.9-0.7,13.2c-1.7,2.6-4.1,2.8-7,2.7c-16.8-0.9-33.7-0.5-50.5,0.1c6,0.5,12.1,0.5,18.1,0.9
			C291.2,108.1,294.4,107.8,297.1,110z"/>
		<path class="st7" d="M517.8,74.9c0.4,6.1,0.4,6.1-8,8c-17.1-0.9-34.3-0.3-51.4-0.4c-31-0.1-61.9,0-92.9-0.1
			c-6.4,0-12.9-0.1-19.3-1.1c-0.5-0.4-0.9-0.8-1.2-1.4c-1.4-8.1-0.3-16,1.5-23.9c0.8-0.7,1.7-0.7,2.6-0.2c1.7,2.2,1.2,4.7,1.2,7.2
			c0,7.3,0.4,7.8,7.8,8.2c9.1,0.5,18.2,0.2,27.3,0.2c1.7,0,3.3,0,5,0.1c31.7,0,63.4,0.1,95.1,0c5.5,0,10.9,0.5,16.4-0.5
			c1.2-0.3,2.4-0.4,3.6-0.4c2.4,0.3,4.8,1.1,7.3,1C515.1,71.6,516.7,72.8,517.8,74.9z"/>
		<path class="st8" d="M345.8,80.9c5.8-1.2,11.7-0.1,17.5,0c47,0.1,94,0,141,0.1c1.9,0,4.5-1.3,5.4,1.9c0.8,5-1.8,6.4-6.3,6.4
			c-46.9,0-93.7,0-140.6,0c-2.7,0-5.1-0.2-5.2-3.7c0-2.7-1.5-1.3-2.6-0.9c-4.8,1.7-8.7,4.7-12.3,8.2c-1.9,1.1-2.8,0.1-3.6-1.5
			c-0.1-0.5-0.1-1,0.1-1.4C342.6,87.7,345.2,85,345.8,80.9z"/>
		<path class="st9" d="M447.1,31.7c13.1,1,26.1,0.3,39.2,0.4c6.9,0.1,14.1-1,18.5,6.3c0.8,1.3,2.5,0.5,3.7,0.7
			c2,0.3,4.3-0.8,6.1,0.8c-1.3,1.3-2.9,1.1-4.5,1.2c-2.7,0.2-2.2,1.7-1.4,3.3c0.8,3.1,4,2.9,6,4.4c-1,2.3-3.4,0.2-4.7,1.6
			c1.2,7.2,6.8,3.6,10.7,4.3c0.5,0.8,0,1.3-0.6,1.7c-1.4,0.7-2.9,0.5-4.4,0.6c-1.8,0.2-1.6,1.3-1.2,2.5c0.3,1,0.6,2.1,1,3.1
			c0.5,1.4,1.4,2.7,1.4,4.3c-0.9,2.1,1.2,3.8,0.7,5.9c-1.2,0.3-1.9-0.6-2.7-1.2c-2.8-4.4-3.9-9.4-5.9-14.2
			c-2.4-5.7-9.4-10.4-15.5-10.3c-4,0.1-7.9,0.1-11.9,0c-0.7,0-1.4,0-2-0.3c-7.3-4.3-15.4-4.6-23.5-4.7c-3-0.1-5.7-1.5-8.5-2.1
			c-3.4-0.8-2.1-4.5-1.7-7.2C446.2,32.3,446.6,32,447.1,31.7z"/>
		<path class="st3" d="M211.1,125.9c-0.6,6.1-1.5,12.1-7.4,15.7c-1.3,0.8-1.2,2.4-1.1,3.6c0.4,5.3-1.4,9.6-5.9,12.7
			c-2.1,1.4-2.8,3.5-2.9,5.9c-0.3,0.7-0.6,1.4-1.5,1.6c-4.1-0.7-5.2-3.6-3.9-6.9c1.6-3.8,1.9-8.1,4.7-11.3c1.2-1.4,1.2-3,0.6-4.6
			c-0.8-2-0.2-3.5,1.4-4.8c0.4-0.3,0.8-0.5,1.3-0.6c3.6-1.5,4-5.1,4.4-8c0.4-2.7-2.7-1.8-4.5-2c-2.8,0-5.6,0.2-8.4-0.1
			c-1.1-0.1-2.5-0.2-2.9-1.5c-0.4-1.5,0.7-2.5,1.7-3.3c1.4-1.3,3.2-1.6,5.1-1.6c4-0.1,7.9-0.1,11.9,0.4c-1.6-5.7-3.8-7.8-9.4-8.2
			c-3-0.3-5.2-0.9-5.5-4.3c-0.1-0.8-0.1-1.5,0-2.3c0.1-1.3,0.5-2.5,0.9-3.7c0.3-0.7,0.7-1.3,1.3-1.8c2,0,2.6,1.8,3.7,3
			c3.8,4.3,9.1,5.3,14.2,6.7c1.4,0.4,2-0.8,2.7-1.7c0.8-1,1.7-2.3,3.3-1.8c1.7,0.6,2,2,1.7,3.7c-1.4,2.3,2.4,4.1,0.6,6.4
			C211.9,118.4,210.9,120,211.1,125.9z"/>
		<path class="st10" d="M297.1,110c-8.4-0.8-16.8-1.2-25.2-1.1c-2.9,0.1-5.2-0.6-6.1-4c17.1,0,33.9,0.1,50.8-0.1
			c3.4,0,7.2,2.6,10.3-1c2.4,0.3,1.8,1.9,1.4,3.4c-1.4,2.1-3.5,2-5.7,2.1c-5.2,0.2-10.5-0.6-15.7,0.5
			C303.6,109.9,300.3,109.9,297.1,110z"/>
		<path class="st11" d="M516.9,67.1c-1.5-0.9-1.9-2.5-2.2-4.1c-0.1-2.3,1.9-1.7,3-2.4c6-3.4,12.2-0.8,18.2-0.5
			c3.9,0.2,7.9,0.7,11.7,1.9c0.4,7.1,0.4,7.1-6.8,7.1c-6.1,0-12.2,0.1-18.2,0.1C520.9,68,519.3,66.3,516.9,67.1z"/>
		<path class="st12" d="M192.9,164.8c0.3-0.3,0.6-0.6,0.9-1c0.1,3,0,6-0.8,9c-4.7-0.6-9.3-1.3-13.7-3.4c-1.2-0.6-2.9-0.5-4.3-0.6
			c-8-0.6-9.1-1.7-9-10c0.4-0.8,1.1-1.5,1.9-1.3c5.9,1.6,12.5,1.9,16.6,7.5C187.9,169.6,189.6,169.5,192.9,164.8z"/>
		<path class="st6" d="M306.9,109.9c4.6-2,9.4-0.7,14.1-0.9c2.6-0.1,4.9-0.3,6.9-2.1c0.4-4-0.8-8-0.6-12.1c0.2-4,2.9-6.6,4.4-9.9
			c1.3-2.8,3.7-2.1,5.7,1.1c-0.3,1.4-1.9,0.8-2.6,1.7c0.8-0.2,1.4-0.6,2.1-0.8c1.6-0.4,1.9,0.8,2.4,1.8c0.1,0.9-0.8,1.9,0.1,2.8
			c1.2,3.7-1.3,6.3-2.9,9.1c-1.5,2.6-3.4,5-1.8,8.2c-1.9,2.1-4.3,0.9-6.5,1C321.1,110,314,109.9,306.9,109.9z"/>
		<path class="st13" d="M217,116.8c0.1-1.6-0.6-2.6-1.9-3.5c-1.5-1.2-1-2.1,0.8-2.4c2.2,0.5,3.3,3,5.7,3c0.8,0.4,1.5,0.8,2,1.5
			c5,6.8,11.9,6.9,19.3,5.7c2.7-0.5,5.6-1.4,8,1c0,0.3,0,0.7,0,1c-6.8,0.9-13.6,2-20.5,2.6c-3,0.3-5.4-2-7.8-3.7
			C221.6,119.4,217.8,119.7,217,116.8z"/>
		<path class="st14" d="M217,116.8c1.7,2,6.3,0.8,5.7,5.2c-5-2.2-8.6,0-11.6,3.9c-3.6-3.4,0-5.9,1.2-8.6
			C213.3,115.1,215.3,116.1,217,116.8z"/>
		<path class="st15" d="M267.9,132.7c0-3.4,0-6.9,0-10.3c0-1.4-0.4-3.2,1.8-3.4c1.7-0.2,3.8-0.6,4.2,2.1c-1.1,3.4-2,6.8-3.3,10.2
			C270.3,132.2,270.2,134.7,267.9,132.7z"/>
		<path class="st16" d="M334.7,108.9c-4.1-1.9-1.6-4.6-0.5-6.7c1.8-3.6,5-6.6,4.8-11c0.2-0.5,0.5-0.6,0.9-0.2c0.6,1.3,1.6,2,3,2
			C340.1,98.2,337.4,103.5,334.7,108.9z"/>
		<path class="st17" d="M515.8,71.9c0.6,0.3,1.2,0.7,1.8,1c0,0.7,0.1,1.3,0.1,2c-3.4-3.4-8.2-1.1-12-3c-0.5-1.3-0.9-2.6,0.5-3.6
			c0.4-0.1,0.9-0.2,1.4-0.1C510,70.2,513.3,70.3,515.8,71.9z"/>
		<path class="st18" d="M8,90.9c0.1-12.4-2.2-24.6-3.8-36.8c-0.4-3.4-0.3-6.9-0.4-10.4c1.6-1.9,2.8-4.7,6.2-3.6
			c7,2.1,12.9,5.2,13.9,13.5c0.4,2.9,2.1,4.8,5.7,5c4,0.2,4.6,4.3,6.3,7c1,6.5,0.4,13,0.4,19.4c0,9.2-0.1,18.3,0,27.5
			c0.1,4.6,0.4,4.8,4.4,2.5c16.1-9.4,32.2-18.8,48.2-28.4c3.7-2.2,7.5-3.4,11.8-3.2c15.2,0.8,30.2-1.2,45.3-2.1
			c4.6-0.3,6.1-1.7,5.6-6.3c-1.1-11,1-21.9,0.9-32.9c0.5-1.1,0.5-3,2.6-1.7c1.2,2.2,0.4,4.4,0,6.5c-0.1,0.7,1.1,0.1,0.5,0.1
			c-0.1,0-0.1-0.1-0.1-0.3c0.1-1.6-0.1-3.6,1.8-4c1.6-0.3,2.6,1.1,2.8,2.7c-1,3.6,0.5,7.6-1.6,11.1c-0.8,1.4,0.2,2,1.7,2.1
			c2,0.1,4,0.4,5.5,1.8c0.6,2.9-1.4,5-2.2,7.5c-0.4,0.7-1,1.2-1.9,1.5c-2,0.6-5-0.3-4.6,3.5c0.4,3.4,2,5.4,5.6,5.5
			c0.5,0,1,0.1,1.5,0.2c0.8,0.1,1.5,0.4,2.2,0.8c2.8,2.2,6,2.5,9.3,2.1c3.8-0.4,7.6-0.3,11.1,1.2c2.3,1,3.6,2.8,3.8,5.3
			c0.1,1.9-0.6,3.2-2.7,3.4c-2.9-0.8-5.6-2-8.6-2.6c-1.4-0.3-2.8-0.8-4.3-0.9c-25.6-1.4-51.1-1-76.7-1.1c-1.3,0-2.6,0-3.8,0.7
			c-19.9,11.7-39.8,23.3-59.7,35c-7.4-4.9-15.9-8.5-18.7-18.1c-1.1-3.7-1.7-7.4-3-11C12.2,90.9,10.6,90.3,8,90.9z"/>
		<path class="st11" d="M8,90.9c3.1-3.6,4-3.4,5.8,0.8c2.8,6.6,2.7,14.3,7.7,20.1c1.5,1.8,2.8,3.7,5.2,4.3c3.7,1,6.1,3.7,8.3,6.7
			c-0.4,3.9-3.4,6.3-5.3,9.4c-3.1,5.1-6.7,9.9-10,14.9c-4,5.9-10,6.6-15.7,1.7c1.3-17.5,2.6-35,3.8-52.4C8,94.6,8,92.7,8,90.9z"/>
		<path class="st19" d="M192.9,164.8c-0.4,1.7,1.1,4.3-1.8,4.9c-2.6,0.5-5.4,0.4-6.9-2.5c-3.9-7.4-11.4-7.3-18.2-8.4
			c-2.3,1-2.2,3.1-1.9,5c0.3,1.7,0,3.1-1.2,4.3c-2.5-1.1-5-2-7-4c-3.8-4.1-3.4-7.2,1.5-12.9c0.7-0.5,1.7-0.6,2.1-1.3
			c3.3-6.3,10.4-8.3,15.1-13.2c3.7-3.9,8.7-3,13.5-1.8c1.7,0.4,3.3,0.8,5,1.2c1.2,0.4,2.4,0.7,3.1,1.8c-1,1.6-2.7,3-0.6,5.1
			c1,1,1.1,2.9,0,3.6c-4.2,3-3.5,8.2-5.9,12.1C187.7,161.5,189.3,164.1,192.9,164.8z"/>
		<path class="st20" d="M189.8,105.9c0,0.7,0.1,1.3,0.1,2c-0.8,3.5-2.8,6.1-5.6,8.4c-8.5,7-16,14.9-20.6,25.3c-0.5,1.2-1,3-3.2,2.3
			c-1.4-1.5-1.6-3.2-0.6-4.9c4.1-9.5,11-16.9,18.8-23.5c2.9-2.4,6.1-4.6,7.3-8.5C187.1,105.8,188.2,105.2,189.8,105.9z"/>
		<path class="st21" d="M159.9,138.9c0.3,1.7,0.7,3.3,1,5c1.3,3.6-1.1,5.7-3.1,7.9c-2.4,3.8-5.2,7.5-2.1,12.3
			c-4.8-1.7-5.8-4.7-3.7-9.3C154.6,149.4,156.5,143.8,159.9,138.9z"/>
		<path class="st22" d="M189.8,105.9c-1.1,0.8-2.4,1.2-3.8,1.1c1-5.7-0.6-10.9-3.3-15.8c4.9-0.5,8.5,3,8.3,8.1
			c-0.1,1.3-1,2.5-0.1,3.8C190.5,103.9,190.1,104.9,189.8,105.9z"/>
		<path class="st23" d="M190.8,103c-0.3-0.9-0.8-1.8-0.8-2.7c0-5-2.5-8.1-7.4-9.2c-1-0.7-2.1-1.3-3.1-2c3-0.5,5.9-0.5,8.4,1.8
			c4.6,3,5.2,4.9,3.1,10C190.9,101.6,190.9,102.3,190.8,103z"/>
		<path class="st24" d="M192.9,7c2.5,1.9,4.3,2.6,4.1-1.9c-0.2-3.4,1.3-3.7,3.8-1.7c1.9,1.5,3.6,3.4,6.3,3.5c3.3,0.8,5.4,3.4,8,5.2
			c1.6,1.2,2.6,1,3.8-0.3c0.4,0.3,0.6,0.7,0.8,1.2c0.1,0.5,0.1,1,0,1.5c-0.4,1.2-0.7,2.4-2.1,2.7c-1.4-0.2-2-1.7-3.6-2.1
			c0.2,4.2-1.3,7.5-5.3,9.2c-1.6,0.7-3.3,1-4.7-0.3c-1.4-1.4-1-3-0.2-4.6c0.4-0.7,0.9-1.4,1.3-2.1c0.5-0.9,0.9-1.9-0.1-2.7
			c-1.1-0.8-2.3-0.4-3.2,0.5c-1.8,1.8-1.2,4-1,6.1c0.3,2.8,1.5,6.1-2.2,7.8c-9.6,1-19.3,0.4-28.9,0.3c-1.4,0-2.6-0.5-3.6-1.4
			c-0.7-1.8,0.8-2.3,1.8-3.1c1.9-1.4,3.6-3,5.6-4.1c5.4-2.8,7.2-6.9,6.6-12.9c-0.3-2.3-1.6-5.4,1.7-7.1c3,1.9,6.5-1.1,9.7,1.1
			c-1.2,2.7-5.8,1.5-6,5.7C187.9,6.4,190.3,2.5,192.9,7c-1,1.1,0.2,3.5-2.3,3.7C193.2,10.6,191.9,8.1,192.9,7z"/>
		<path class="st25" d="M155,40.9c-1.5-0.9-0.8,0.6-1.1,1c-1.1,0.9-2.2,0.5-3.3,0.2c-3.5-0.9-6.5-0.2-9.3,2.2
			c-2.8,2.4-6.1,3.3-9.7,3.3c-30.7,0-61.4,0-92.2,0c-1.3,0-2.7-0.1-3.9-0.5c-1.2-0.8-3.3-1.5-0.5-3c32.6,0,65.2,0.1,97.9,0.2
			c1.2,0,2.5,0,3.3-0.9c6-7.2,14.6-4.8,22.2-6c2.4-0.4,5-0.3,7.5-0.4c0.1,0.2,0.3,0.4,0.4,0.6c-0.3,1.4-1.6,1.7-2.5,2.4
			C161,42.2,158.4,44.7,155,40.9z"/>
		<path class="st26" d="M34.9,44c-1.3,0.7-1,1.4,0,2.1c2.9,3,5.2,6,2,10.4c-1.7,2.4,0.4,6-2,8.5c-2.6-2.5-3.9-6.5-9.2-5.5
			c-2.1,0.4-3-3.7-3.1-5.6c-0.4-6.9-5.2-9.5-10.2-12.2c-0.9-0.5-1.6-1.1-2.5-1.6c7.6,0.6,15.1,2.1,22.8,1.5
			C34.4,41.5,35.3,42.2,34.9,44z"/>
		<path class="st27" d="M166,28c11.3,0,22.6,0,33.9,0c5.1-2.7,10.8-1.8,16-1.5c3.5,0.3,3.7,3.7,1.7,6.5c-1.3,1.2-3,1.3-4.7,1.3
			c-9.9-0.1-19.9,0.5-29.8,0c-3.9-0.2-7.4,1.8-11.2,1.1c-1.9-0.6-4-0.2-5.9-0.4C166,32.6,166,30.3,166,28z"/>
		<path class="st28" d="M166,34.9c1.7-0.5,3.3-4,5-0.1c0.9,3.3-1.5,3-3.5,3.1c-0.6-0.1-1.1-0.4-1.5-0.8c-0.1-0.1-0.2-0.3-0.3-0.4
			C165.8,36.1,165.9,35.5,166,34.9z"/>
		<path class="st29" d="M216.9,32.9c1.8-5.2,1.2-5.7-4.3-5.1c-4.2,0.4-8.5,0.1-12.7,0.1c-0.1-2.6,0.3-5.2-0.8-7.8
			c-0.8-2-0.2-4.1,0.9-5.7c1.4-2.2,3.8-2.3,6.1-1.3c2.6,1.2,1.3,3,0.4,4.5c-1.1,1.7-3.6,3-2.1,5.5c0.8,1.3,2.3,0.8,3.6,0.3
			c2.8-1.2,4.7-3.2,4.7-6.3c0-1.4-1.2-2.7-0.4-4.3c3.1-0.2,3.9,2.7,5.7,4.2c2.3-2,5-1.5,7.6-1.5c58.8,0,117.5,0,176.3,0
			c13.6,0,27.3,0,40.9-0.4c1.3,0.7,2.5,1.5,3.2,2.8c-1.9,1.6-1.7,2.6,0.8,3.1c0,3,0,6,0.1,9c-3.6,2.5-7.6,0.9-11.4,1.4
			c-2.4,0.3-4.9,0-7.3,0.1c-0.6,0.1-1.1,0.2-1.7,0.2c-2.3-0.3-4.7-0.2-6.5-2.1c-4.4-6.7-10.3-9.4-18.5-9.3
			c-36.6,0.4-73.2,0.3-109.7,0c-7.1,0-13.5,1.1-19.1,5.5c-2.2,1.7-4.9,2.8-7.2,4.4c-2.9,1.6-5.8,3.2-8.7,4.8
			c-5.9,3.3-5.9,3.3-10.2-2c-1.5,3.3-3.8,5.1-7.5,4.9c-1.8-0.1-3.8,0.3-4.6-1.9c-0.8-2.1,0.1-3.5,1.9-4.5c0.6-0.5,1.6-0.8,1.4-1.7
			c-0.2-0.9-1-1.2-1.9-1.1c-1.4,0.2-2.1,1.3-2.8,2.4c0.6,6.8,0.6,6.8-6.8,7.1c-1.9,0.1-3.5,0.6-5.1,1.3c-0.8,0.2-1.6,0.1-2.4-0.2
			C216.2,37.7,215.1,35.7,216.9,32.9z"/>
		<path class="st30" d="M442.8,15.1c-1.6,2.9-4.4,1.9-6.7,1.9c-68,0-136.1,0-204.1,0c-4.7,0-9.3,0-14,0c0.3-1,0.7-2,1-3
			c2.9-2.2,6.4-1.5,9.7-1.5c61.2-0.1,122.4-0.1,183.6-0.1c1.3,0,4.8,1.6,3.3-2.5c0.1-0.3,0.1-0.5,0-0.8c0.7-0.9,1.7-1.1,2.7-1.2
			c0.8,0,1.5,0.1,2.2,0.4c0.4,0.2,0.8,0.5,1.2,0.8c1.7,2.2,3.5,3,5.5,0.4c0.5-0.1,0.9-0.1,1.4,0.1c1.2,2.1,2.9,2.8,5.3,1.9
			c1.7-0.6,3.5-0.5,5.1,0.5C440.6,12.5,441.7,13.7,442.8,15.1z"/>
		<path class="st31" d="M415.5,9.9c2.3-0.1,3.7,1.2,5.4,4.1c-67.7,0-134.9,0-202,0c0-0.3,0-0.6,0-0.9c1.8-2.3,5.4-0.1,7-2.9
			c6.4,0.9,12.9,0.1,19.3,0.3c5.7,0.2,11.6-0.3,17.4-0.3c3.5,0,7.3-1.1,11.1,0.4c2.3,0.9,5.7,0.2,8.2-0.1c8.5-1,16.9-0.2,25.3-0.3
			c6-0.1,12.4,0.3,18.3,0.1c5.9-0.2,11.9,0.3,17.9-0.1c5.9-0.4,12.3,0,18.4,0.2c5.7,0.2,11.7-0.2,17.4-0.2c3.6,0,7.4-1.2,11.1,0.4
			c2.4,1,4.8-0.6,7.5-0.5C403.7,10.1,409.7,11.1,415.5,9.9z"/>
		<path class="st32" d="M547.6,62c-3.2,1.7-6.5,0.4-9.6-0.3c-3-0.6-5.8-1.2-8.7-0.1c-0.6,0.2-1.3,0.3-1.9,0.2
			c-4.1-1.1-7.5-0.8-12.6,1.2c-1-0.8-0.9-1.9-1.1-3c0.6-3.6,4.9-1.4,6.2-4c0.3-0.4,0.6-0.8,0.9-1.2c0.9-1.7,2.4-2,4.2-2
			c7.6,0.1,15.2,0.2,22.8,0.3C547.7,56,547.7,59,547.6,62z"/>
		<path class="st33" d="M438.9,11.9c-1.1,0.1-2.4,0-3.4,0.4c-3.3,1.3-6.1,1.2-7.8-2.4c-1-0.5-2.2-0.9-2.2-2.3
			c0.4-1.7,2.6-0.3,3.2-1.8C434.1,4.5,435.7,9.5,438.9,11.9z"/>
		<path class="st34" d="M427,30.9c6.5-2.2,13.2-0.4,19.8-1c0.1,0.6,0.1,1.2,0.2,1.7c-0.2,0.2-0.3,0.3-0.5,0.5
			c-4.9,1.6-10.1,1.8-15,3.9C428.4,37.5,428.5,32.8,427,30.9z"/>
		<path class="st35" d="M514.7,48.9c-3.4,0.6-6.3,0.3-7-4c0.8-3.8,2.2-4.1,6.9-2C514.7,45,514.7,46.9,514.7,48.9z"/>
		<path class="st36" d="M428.7,5.7c-0.3,1.6-2.3,1-2.9,2.2c-1.4,1.6-3.4,0.7-5.1,1.2c-0.6-0.1-1.2-0.1-1.9-0.2c-0.2-1.8-4.7,0.7-3-3
			C420.1,4.1,424.4,5.1,428.7,5.7z"/>
		<path class="st37" d="M514.7,43c-2.3,0.6-5.5-1.8-6.9,2c-2.5-4.9-2.5-4.9,2.9-5c1.3,0,2.6,0,4,0C514.6,41,514.7,42,514.7,43z"/>
		<path class="st30" d="M225.9,10.1c-0.8,4.5-4.5,2.3-7,2.9c0-0.4-0.1-0.8-0.1-1.1C220.6,8.9,223.6,10.8,225.9,10.1z"/>
		<path class="st38" d="M446.8,21c-1.6,0.8-3.8,2-4.5-0.5c-0.7-2.7,2.1-2.2,3.7-2.5C447.4,18.6,447,19.8,446.8,21z"/>
		<path class="st33" d="M415.8,5.9c-0.4,2.4,3.6,0.4,3,3c-1.1,0-2.2,0.1-3.3,0.1c-1.6-0.7-3.2-1.4-5.6-2.4
			C412.5,5.3,414.1,5.5,415.8,5.9z"/>
		<path class="st39" d="M264.9,80.9c0,0.7-2.6,1.7,0.2,1.9c2.6,0.2,5.4,0.3,8,0c5.7-0.8,7.6,3,9.4,7.5c-4.4-6.2-10-2.6-15.1-2.5
			c-2.2,0.1-4.3,0-6.5,0c-0.5-1.8,0.5-2.6,2-2.9c-2.6-0.4-4.5,0.7-5.8,2.9c-1.9,3.3-4.8,3.5-7.7,1.8c-3.3-1.9-6.6-2.4-10.5-1.9
			c-4.3,0.5-7.2-2-8.8-5.9c-0.5-1.6-0.5-3.2-0.6-4.8c-0.3-2.3-2.1-2.9-3.9-3.5c-1.5-1.7-5.5,1.1-5.7-3.1c1.5-1.7,3.2-3.3,4-5.6
			c2-5.5,6.3-7.7,11.9-7.9c3-0.1,4.8,1.3,5.7,3.9c1.1,3.1,2.7,3.3,5.2,1.5c1.9-1.3,4.1-2.1,6.1-3.3c1.9-1.2,3.7-1.3,5.4,0.4
			c1.5,2.5,0.7,5.1,0.3,7.8c-0.2,1.2-0.4,2.4,0.7,3.2c0.8,0.6,1.6,0.1,2.3-0.4c1.1-0.9,1.9-1.9,1.4-3.4c-0.4-1.3-1.4-2.3-1.4-3.7
			c0.1-2.5,0.5-4.9,1.5-7.1c-0.1-0.5-0.4-0.7-0.7-0.7c-2.4,0.3-5.5,1.4-5.7-2.4c-0.2-3.4,3.1-3,5.2-3.1c2.9-0.1,5.4-0.3,7.8-2.3
			c1.9-1.6,4.5-0.7,6.8-0.5c1.7,0.2,3.6,0.5,3.7,2.6c0.1,1.8-1.6,2.3-3,2.8c-3,1.3-6.6,1.6-8,5.2c-1.4,3.4,0.4,6.6,0.5,9.9
			c1.3,1.9,3.3,1.1,5,1.2c5.6,0.3,11.1-0.5,16.7,0.6c2.1,5,0.2,8.8-4.6,7.9c-3.7-0.7-4.8,2.3-7.2,3.4
			C274.5,80.8,269.6,79.6,264.9,80.9z"/>
		<path class="st40" d="M225.9,101.8c-3.3,0.7-3.9,3.7-5.2,6c-3.7-1.5-4.6-3.5-2.7-6.5c1.1-1.7,2.8-3,4.7-3.5
			c8.5-2.4,6.7-4.8,6.7-10.4c0.2-1.9-0.3-4,1.4-5.6c2.8,3.7,5.8,6.2,11,4.2c2.5-1,4.7,0.7,6.9,1.9c2.8,1.5,5.9,3.6,7.7-1.8
			c0.9-2.7,3.8-3.4,6.7-2.2c0,1.9-2,2.4-2.2,3.9c-0.1,11.8-0.1,11.7-11.9,11.9c-3.3,0.1-6.9-1.7-9.9,1.3l0,0
			C234.7,102,230.3,101.3,225.9,101.8z"/>
		<path class="st16" d="M338.7,88.8c-0.6-0.6-1.2-1.3-1.8-1.9l0,0c-0.3-2.2-1.2-3.4-3.6-2.2c-3.5,1.7-2.5,4-0.5,7.4
			c-3-2-4.8-1.7-4.8,1.3c-0.1,3.1-0.6,6.3,0.4,9.4c0.5,1.5,1,2.9-0.5,4.1c0-1.1,0.2-2.3-1-3c0-0.7,0-1.3,0-2c-0.2-7.4-1-15,5-21
			c1.8-2,4.5-1,6.6-1.7c2.5-0.3,5-0.1,7.4,0.7c0,0.3,0,0.7,0,1c1.6,5.3-1.3,7.7-5.8,9.1c-0.4-0.2-0.6-0.6-0.7-1
			c0-0.4,0.2-0.8-0.1-1.2C339.3,88.3,339.1,88.6,338.7,88.8z"/>
		<path class="st41" d="M338.8,79.9c-2.1,1.9-4.7,0.6-7,1c-22.3,0-44.6,0-66.9,0c2.8-2.4,6-0.5,9-1c2-0.3,4-0.1,6-0.1
			c1.6-1.4,3.6-1.6,5.6-1.5c9.4,0,18.7-0.2,28.1,0.1c8.2,0.3,16.4-1.1,24.6,0.8C338.4,79.5,338.6,79.7,338.8,79.9z"/>
		<path class="st42" d="M324.8,96.5c-1,1.4,1.8,4.9-0.8,4.9c-3.3,0.1-1.9-3.8-2.2-6c-0.2-1.6,0-3.3,0.1-4.9c0.1-1,0.5-2.1,1.7-2.1
			c1.4,0,1.2,1.3,1.2,2.3C324.9,92.5,324.8,94.3,324.8,96.5z"/>
		<path class="st43" d="M282.4,93.6c-3.7,5.7-8.1,6.7-16.3,4.1C271.8,95.6,278.3,99.3,282.4,93.6z"/>
		<path class="st38" d="M272.5,92.4c2.5-0.4,4.1-0.7,6.3-1C277.4,94.6,275.8,95.6,272.5,92.4z"/>
		<path class="st44" d="M285.3,92.8c-0.2-2.1-1.1-4.4,0.4-6.9C287.8,88.7,285.4,90.6,285.3,92.8z"/>
		<path class="st45" d="M313.9,79.9c-11.3,0-22.7,0-34,0c0.5-2.5,1.3-5.1,4.6-4.1c3.6,1,6.2,1,6.1-3.9c0-0.7,0.8-1.3,1.3-2
			c0-1.3,0.5-2.3,1.7-2.8c6.8-1.1,13.6-0.3,20.4-0.5c4.3,0.3,2.6-2.2,2-4.2c-0.3-1.4-0.4-2.9,0.5-4.2c0.7-1.6,2.4,1.8,2.9-0.5
			c0.4-1.6-0.7-2.3-2.2-2.7c-5.2-1.5-9.7,0.1-13.9,3.1c-10.4,0.7-20.9,0.2-31.3,0.3c-1.5,0-3-0.2-4.1-1.5c1-4.9,5.7-4.3,8.9-5.9
			c1-0.5,2.6-0.2,2.3-1.8c-0.2-1.1-1.5-1.2-2.5-1.2c-3.3,0-6.8-1.5-9.1,2.7c-1.5,2.7-4.1-1.2-6.3,0.2c-1.1,0.7-3.1-0.6-4,1.2
			c-0.2,0.4,0,1.4,0.3,1.8c1.3,1.7,2.7,0.4,4-0.2s2.6-1,3.6,0.3c1.1,1.5-0.4,2-1.2,2.7c-2,1.7,0.1,4.7-2,6.4c-3.3,1.6-2.2-2.5-4-3
			c-5.2-1.6-8.3,2.6-12.1,4.7c-2.8,1.6-4.2,1.5-4.9-1.7c-0.5-2.1-1-5-3.5-4.7c-3.1,0.4-6.9-0.6-9.2,2.4c-1.3,1.8-3.1,3.3-3.5,5.9
			c-0.3,2.4-2.2,4-4.8,4.4c-1.6,0.1-1.7-1-1.8-2.1c0.8-2.3-0.8-4.6,0.1-6.9c2.5-2.4,5.6-4.1,7.8-6.8c2.2-2.8,4.6,0.1,6.9-0.9
			c-2.3-0.6-4.7-0.8-7.1-1.3c-1.2-0.2-1.8,0.7-1.9,1.8c-0.3,3.3-3,4.5-5.1,6.3c-1.2,1.4-1,3-0.7,4.5c0.4,1.7,0.1,3.1-1.5,4.1
			c-1.7,0.7-3.5,0.6-5.2,0.1c-1.1-0.5-1.9-1.3-2.3-2.4c-0.6-1.4-0.2-3.4-2.8-3.2c-2.3,0.2-3.8,0.9-4.3,3.2c-0.2,0.8-0.5,1.5-1.2,2.1
			c-1.4,0.7-2.8,0.7-4.2,0.2c-2.8-1.1,0.1-4.9-2.9-5.9c-1.1-0.3-2.6-1.6-2.6,1.1c0,1.8,0.3,3.6,0.3,5.5c-0.1,0.5-0.4,0.9-0.8,1.2
			c-3.9,1.1-7.8,2.4-11.9,0.7c-0.8-1.2-0.8-2.3,0.2-3.4c0.7-0.4,1.6-0.4,2.4-0.6c1.6-0.4,4.4-0.3,3.6-2.8c-0.8-2.8-3.1-2.3-5.1-0.7
			c-0.9,0.9-1.2,2.5-2.9,2.6c-1.9-1.8-3.3-4.4-6.4-4.4c-0.4-0.2-0.8-0.4-1.2-0.7c-1-1.3-2.6-2.1-3.3-3.7c-0.5-1.5-0.5-3,0.5-4.3
			c7.4,0.2,14.8-0.1,22.1,1.1c1.1,0.2,2.5,0.3,3.3,0.9c6,4.5,12.6,2.7,19.1,2c0.8-0.1,1.7,0,2.4-0.4c1.7-0.9,4.4-1.3,4.5-3.5
			c0.1-2.7-2.8-2.1-4.4-3c-6-3.3-12-2.9-18.2-0.6c-0.5,0.2-1.1,0.4-1.5,0.2c-7.1-3.9-13.3,1.9-20,2c-2.5,0-4.9,0.9-7.3-0.6
			c-1.4-1.9-1-4.4-2.3-6.4c-0.1-1.7,0.2-3.3,1.6-4.4c1.9-0.9,3.8-0.9,5.8-0.1c5.4,3.9,11.4,1.8,17.3,1.9c20.7,0,41.3,0.4,62,0.3
			c13.5-0.1,27.1-0.9,40.6-0.5c7.5,0.2,14.9-0.1,22.3-0.4c1.6-0.1,3.4,0.4,4.7-0.9c1.2-2.2,2.7-4.3,5.5-3.9c2.5,0.3,2.1-2.6,3.9-2.9
			c14.7-0.8,29.5-0.3,44.2-0.3c6.8,0,13.6-0.2,20.4-0.1c2,0,4-0.2,5.8,1c1.3,3.6-0.9,3.9-3.6,3.9c-8.6,0-17.1,0-24.6,0
			c-1.8,0.3-0.9,1.1-1.2,0.6c-0.1-0.2,0-0.3,0.4-0.3c9.1-0.1,18.2-0.9,27.2,0.4c0.3,0.7,0.1,1.2-0.6,1.5c-2.4,1.1-4.9,0.7-7.3,0.7
			c-12.4,0.3-24.8-0.4-37.1,0.4c-3.3,0.5-6.6,0.3-9.8,0.2c1.5,0,2.9,0.4,4.4,0.2c2-0.2,3.3,0.9,3.4,2.8c0.3,3.4,1.3,6.9-1,10
			c-0.6,0-1.3,0-1.9,0c-5.7-1.3-11.5-0.8-17.3-0.6c-4.2,0.1-5.3,2.7-3.2,6.4c1.4,2.4,3.9,4.1,4.7,6.9c-2.5,1.7-5.3,2.9-7,5.7
			c-1.3,2.1-3.9,1.2-6,1.1s-4.2-0.3-2.9,3C315.4,79,314.4,79.5,313.9,79.9z"/>
		<path class="st46" d="M348.8,55.9c0-1.3,0-2.7,0-4c0-8.8,0-8.8-8.7-7.6c-1.2,0.2-2.9,1.2-3-0.9c-0.1-1.9,1.9-1.4,3.1-1.4
			c3.5-0.1,7-0.1,10.5-0.1c13.7,0.1,27.5,0,41.2,0c1.6,0,3.3,0.2,4.8-0.8v-0.3c0.4-0.2,0.9-0.2,1.3,0.1c1.2,1.3,0.5,3.2,1.6,4.9
			c1.5-1.4,1-4.6,3.9-4.3c7.1,1.1,14.2-0.6,21.3,0.6c1.4,0.5,1.8,1.8,2.3,2.9c0.6,1.1,0.4,3.5,2.7,2.3c1.8-0.9,2.3-2.6,1.4-4.6
			c-0.6-1.3-2.7-2.3-1.2-4.2c5,0.9,10.1,1.5,14.8,2.6s9.2,3.3,14.2,3.5c1.2,0,2.3,0.5,2.8,1.7c0.1,0.8-0.5,1.3-1.1,1.7
			c-1.1,0.6-2.1,1.7-3.6,1.5c-1-0.2-1.6-1.1-2.6-1.2s-1.9,0.2-2.8,0.3c-0.8,0.2-1.5,0.6-2.3,0.8c-1.1,0.3-2-0.3-3-0.7
			c-0.9-0.1-1.5,0.6-2.3,0.8c-0.7,0.1-1.3,0.1-2-0.1c-3.5-1.4-3.9,0.9-4.3,3.4c-0.5,3.4,0.8,7-1.2,10.2c-0.5,0.2-1,0.2-1.4,0.1
			c-4.1-2-8.1-1.1-10.7,2.3c-3.2,4.1-7.1,5-11.7,4.8c-2.4,0.1-4.9,0.2-7.3,0c-1.7-0.2-3.7-0.1-4.3-2.3c0.6-2.5,2.6-1.4,4-1.4
			c2.9,0,5.8,0.1,8.8,0c1.8-0.1,3.8-0.2,3.2-3c-4.7-2.6-9.4-1.6-14.2-0.5c-0.3,0.3-0.7,0.6-1,0.9c-1.2,3.8-3.1,6.4-7.7,6
			c-1.8-0.2-3.1,1.6-4.5,2.7c-11.6,0-23.2,0.2-34.8,0c-4.2,0-7.3-1.4-6.3-6.8C349.3,62.7,348.8,59.3,348.8,55.9z"/>
		<path class="st47" d="M413.8,69c4,0,7.5,0.1,9.7-4.7c1.9-4.1,9.1-4.4,12.2-1.4c-1.5,2.1-4.4,0.7-6.2,2.3c3.2,2,9.7,2.1,14.7,0.3
			c3.1-1.8,6.2-1.4,9.2,0c4.9,1.9,9.9,1.4,15,0.7c0.9-0.4,1.6-1,2.4-1.5c3.2-1.1,6.2-1,8.9,1.3c3.7,1.4,7.5,0.6,11.3,0.7
			c2.2,0,3.3-1.3,3-3.6c-0.1-1.4,0.3-2.8,0.4-4.2c0.2-2.3,0.1-4.6,0.1-6.9s-1-3.4-3.3-3.4c-0.6-0.1-1.3-0.1-1.9,0
			c-1.2,0.6-2.4,0.9-3.7,0.2c-0.9,0-1.6,0.7-2.5,0.8c-1.5,0-2.1-0.9-2.1-2.3c0.1-0.5,0.3-0.9,0.7-1.2c5.4-0.3,10.9,0.7,16.3-0.6
			c0.6-0.1,1.5-0.1,1.9,0.3c3.2,3,7.3,5.5,9.4,9.2c2.9,5.3,4.4,11.3,6.5,17.1c-3.6,0.7-6.5-0.5-9-3c-0.3-1.6,1.1-3.4-0.5-4.9
			c-1.6-4.6-3.5-1.3-5.8,0c-0.1,0,1.1,0.9,0.8,0.3c-0.2-0.3,0-0.3,0.3-0.4c3.4-1.1,2.9,1.4,3,3.3c0.1,0.9,0.7,1.4,1.3,1.9
			c0.7,1,0.5,1.9,0,2.9c-1,0-1.9,0-2.9,0c-1.4,0.8-2.9,0.4-4.4,0.4c-27.3,0-54.6,0-81.9,0c-0.7,0-1.3,0.1-2,0
			c-0.9-0.1-2.2,0.4-2.5-0.8C411.5,70.1,412.9,69.6,413.8,69z"/>
		<path class="st48" d="M330.8,68.9c-2.7-2.4-5.1-5.1-6.7-8.4c-1.5-3.2,0.2-6,3-6.3C333,53.6,339,54,345,54.1c1.2,0,1.7,0.9,1.9,2
			c0.2,8-1.7,15.9-1,23.9c-2.3,2-4.7-0.3-7,0l0,0c-2.3-1.8-3.5-4.7-6.2-6.2C331.2,72.9,330.2,71,330.8,68.9z"/>
		<path class="st17" d="M413.8,69c-1.2,1.7-2.2,3,1.3,3c9.8-0.2,19.6-0.1,29.4,0c19.4,0,38.9,0,58.3,0c-0.9,1-2.1,1-3.2,1
			c-36.6-0.1-73.2-0.2-109.7-0.2c0.1-4,3.6-4.6,5.9-4.4c3.4,0.3,4.3-0.6,4.1-3.7c-0.1-1.2,1-1.6,2.1-1.5c0.9,1.3,0.9,2.6-0.2,3.8
			c0.3,2.4,2.1,2,3.7,2C408.3,69,411.1,69,413.8,69z"/>
		<path class="st49" d="M338.7,88.8c0-1.4,0-2.8,0-4.2c0.2-0.1,0.4-0.1,0.7-0.2c0.2,1.9,0.5,3.7,0.7,5.6c-0.1,0.3-0.1,0.6-0.2,0.9
			c-0.3,0-0.6,0.1-0.9,0.2C337.8,90.5,338.7,89.6,338.7,88.8z"/>
		<path class="st50" d="M481.8,45.9c0,0.3,0,0.7,0,1c-0.3,0.3-0.6,0.6-0.9,0.8c-0.8,0.6-1.5,1.3-2.5,1.7c-0.6,0.2-1.2,0.1-1.8-0.1
			c-1-0.5-1.9-0.4-2.9,0.1c-0.6,0.2-1.3,0.2-1.9,0c-1-0.5-2-0.6-3,0c-0.6,0.2-1.2,0.2-1.8,0c-0.7-0.3-1.3-0.9-2.1-0.8
			c-1.2,0.5-2.4,0.8-3.3-0.6c-0.2-0.4-0.1-0.8,0.3-1.2c-1.4-1.4-3.1-1.1-4.9-1.3c-3.8-0.3-7.9-0.2-11-3.2c-0.7-0.7-1.4-1.3-2.6-1.2
			c-3.9,0.5-8.2,2.9-11.1-2.2c-0.2-0.4-1.6-0.1-2.4-0.1c-3.5-1.7-4.8-4.3-3.1-8h0.3c3.6,2.3,3.6,2.2,11.1,1.1
			c2.8-0.4,5.6,0.1,8.4,0.1c0.1,1.8,0.2,3.6,0.2,5.4c0,0.8,0.1,2,1.1,1.8c6.8-0.8,13.1,2.9,20,1.9c2.9-0.4,6.1,0.9,8.7,2.9
			C478.1,45.4,479.9,46.1,481.8,45.9z"/>
		<path class="st51" d="M454.3,36c12.6,0,25,0,37.4,0c1.4,0,3.1,0.6,2.7,2.2s-1.5,3.1-3.5,3.8c-3.5,1.2-6.8-0.5-10.1-0.9
			c-8.3-1-16.7-1.1-24.8-3.1C455.3,37.8,454.6,37.8,454.3,36z"/>
		<path class="st52" d="M519.8,56c0.3,5-4.8,1.6-6.2,4c-2.1-2.9-1.7-4.4,2.2-4.1C517.2,56,518.5,56,519.8,56z"/>
		<path class="st14" d="M230.9,87.9c0,8.1,0,8.1-7.4,11c-5.7,2.2-6.6,5.3-2.7,9c-0.2,1.9-0.4,3.8-0.6,5.7c-2.7,1.2-3.1-1.4-4.2-2.6
			c-0.1-1.3,0.3-3-1.4-3.3c-1.4-0.2-2.3,1.2-2.5,2.6c-0.2,2.4-1.2,2.6-3.2,1.7c-2.2-1-4.7-1.4-7-2.2c-4.8-1.5-8.3-4.6-10.8-8.8
			c0.1-3.7,0.1-7.3-3.1-10c2.6-2.4,2.1-5.8-1.3-6.8C182.9,83,179,83,175,83.4c-3.1,0.3-7.5,1.6-9-3.4c-1.2-2-0.6-3.4,1.3-4.4
			c9.1,3.8,18.6,0.1,27.8,1c4.3,0.4,8.6,0.1,12.4,2.5c1.7,3.2-0.7,4.1-2.9,4.9c-1.7,0.7-3.6,0.1-5.5,0.9c0.7,1.5,2,1,3,1.4
			c3.8,1,7.7,1.5,11.6,2.4c1.1,0.3,2.3,0.4,3.2,1.2c1.9,1.6,2.7,5,6.7,3c2.5-1.3,5.1-2,6.5-4.7C230.1,87.7,230.5,87.8,230.9,87.9z"
			/>
		<path class="st23" d="M157.8,151.8c1-2.6,2.1-5.3,3.1-7.9c2.9-5.1,5.4-10.3,9.2-15c4.4-5.5,9.2-10.3,14.7-14.4
			c2.4-1.8,3.2-4.5,5.1-6.6c0.2,2.3,0.2,4,3.7,3.5c4.8-0.6,8.6,1.9,10.7,6.4c0.8,1.6,1.1,3.4,3.1,4.5c-7.4,0.8-15.2-2.9-21.7,2.2
			c0,0.5,0.1,1,0.1,1.5c3.7,0,7.4,0,11.1,0c1.8,4,1.1,8,0,12c-0.3,0-0.7,0-1,0c-1.1,0-2.3,0.2-3-0.9c-1.4-1.5-5.3-1.7-2.5-5.3
			c-1.5,1.2-1.2,3.2-2.5,4.3c-2.5,0.5-4.7-1.2-7.1-0.8c-3.6,0.6-6,3.6-8.9,5.3C166.6,143.5,163,148.6,157.8,151.8z"/>
		<path class="st19" d="M196.9,137.9c-1.5-4,0-8,0-12c6.6,0.1,7.1,1,4.2,6.7c-0.7,1.3-0.8,2.9-1.3,4.2
			C199.2,138.1,198.6,139.5,196.9,137.9z"/>
		<path class="st53" d="M331.4,93.3c0.6,3.7,0.9,6.8-0.2,10.4C329.3,99.6,329.4,97.2,331.4,93.3z"/>
		<path class="st41" d="M336.8,86.9c-0.3,0.6-0.6,1.2-0.9,1.7c-0.6,1.2-1.6,1.5-2.8,0.8c-0.7-0.4-1.2-1.2-0.8-2
			c0.5-1.2,1.5-1.7,2.8-1.3C335.7,86.3,336.3,86.7,336.8,86.9L336.8,86.9z"/>
		<path class="st54" d="M505.8,69c-0.8-0.2-2.8,1.7-2-1.2c0.6-0.8,0.8-1.8,0.9-2.8c0-1.6,0.7-2.1,2.1-1.2c4.4,1.7,1.2,3.3,0,5
			C506.4,68.9,506.1,69,505.8,69z"/>
		<path class="st19" d="M35,64.9c0.8-4-2.1-8.9,2.7-12.2c0.7-0.5-0.1-1.9-1-2.4c-1.8-1-1.6-2.7-1.7-4.3c32.4,0,64.7-0.1,97.1-0.1
			c2.9,0,5.5-0.3,7.8-2.4c5.2-4.6,8.2-4.9,14-1.7c0.9,9.3-1.2,18.5-1,27.8c0.3,12.6,0.1,12-12.7,13.4c-14.4,1.5-28.8,1.6-43.2,1.9
			c-6.1,0.1-10.3,5-15.3,7.8c-14.6,8.3-28.9,16.9-43.4,25.4c-0.8,0.5-1.8,0.7-3.3,1.4C35,101,35,83,35,64.9z"/>
		<path class="st55" d="M164,79.9c-2.9,0.2-5.6,0.1-7.2-3.1c-1-2.1-1.1-4.2-0.8-6.3c0.6-3.8,3.6-0.7,5.2-1.6
			c0.6-0.3,1.1-0.6,1.7-0.9c1.9-3.4,4.1-4,6.4-0.4c1,0.8,1.9,1.6,2.1,2.8c0.1,0.8-0.1,1.5-0.8,2c-1.1,0.7-2.3,0.7-3.5,0.3
			c-1.3-0.6-2-0.4-2.1,1.2C165.1,75.9,165.4,78.1,164,79.9z"/>
		<path class="st56" d="M166.9,58.9c1.9,0.1,2.9,1,3,3c-1.7,1.3-3,0.8-4-1c-2.5,0.1-4.7-1.4-7.3-0.9c-2.8,0.5-1.9-2.3-1.5-2.9
			c2-3.2,2.2-6.3,1.1-9.8c-0.3-0.9,0.9-1.2,1.7-1.4c1.2-1.1,2.5-1.1,3.9-0.5c2.1,2.3,1.2,5.2,1.5,7.8
			C165.6,55.2,164.4,57.6,166.9,58.9z"/>
		<path class="st39" d="M163.9,45.9c-1.3,0-2.7,0-4,0c-4.6-6.6-2.2,3.1-4.9,0.9c0-1.3,0-3.6,0-5.9c3.9,2.4,6.1,0.3,8-2.9
			c1.1,1.2,1.9,2.6,3,3.9c0.1,1.4-0.2,2.7-1,3.9C164.6,46.2,164.3,46.3,163.9,45.9z"/>
		<path class="st57" d="M164,79.9c0-2.5-0.1-5-0.1-7.4c0-1.1-0.5-2.7,0.9-3c1.3-0.2,1.5,1.5,2,2.4c0.4,0.4,0.6,0.8,0.8,1.2
			c0.2,1.1,0,2-0.8,2.8c-0.8,1.2-1.1,2.5-1,3.9C165.3,79.8,164.6,79.9,164,79.9z"/>
		<path class="st39" d="M165.9,60.9c1.3,0.6,2.5,1.2,4,1V62c0.5,2.1-0.4,4-1.1,6c-0.3,0.1-0.9,0.3-0.9,0.3c-1.4-4.3-3.3-0.5-5-0.3
			C163.3,65.4,164.3,63,165.9,60.9z"/>
		<path class="st55" d="M157.3,62.7c-0.5,3,4.2,0,3.3,3.3c-0.3,1-1.3,1-2,0.8C156.2,66.3,157.1,64.4,157.3,62.7z"/>
		<path class="st23" d="M188.1,157c-5.5-1.8-10-3.2-14.4-4.9c-2-0.8-4.4-2.1-3.4-4.6c1.4-3.3,2.1-7.7,7.2-7.6c3.1,0,6.2,0.9,9.3,1.2
			c2.2,0.2,3.3,3.5,1.9,5.2C186,149.5,186.5,152.6,188.1,157z"/>
		<path class="st58" d="M187.9,135.9c-0.2-2.3,1-4.1,2.1-6c0.5-0.8,1.3-1.1,2.1-0.6s1,1.8,0.3,2.1c-4.1,2.3,0.1,3.7,0.4,5.5
			C191.2,136.9,189.4,136.8,187.9,135.9z"/>
		<path class="st59" d="M186.3,25.2c-4-3-4.2-5.8-1.2-8.7c2.3-2.2,4.8-1.8,6.7,0.8c1.9,2.7,1.5,5.1-1.3,8.5
			c-0.5-3.2,2.6-5.2-0.2-6.9c-1.1-0.7-2-1.1-3.2-0.3C184.7,20.2,186.7,22.4,186.3,25.2z"/>
		<path class="st60" d="M192.9,7c0,1.8,0.5,3.8-1.7,4.7c-1.6,0.6-3.3,0.5-4.1-2.1C190.1,10.7,191.8,9.4,192.9,7L192.9,7z"/>
		<path class="st18" d="M165.9,41.9c-3.1,0.3-3.1-1.8-3-3.9c1-0.3,2.1-0.6,3.1-0.9c0.3-0.1,0.6-0.2,0.9-0.2c1.5,0.9,3.3,0.3,4.7,1.1
			c2,1.1,3.1,2.4,0.3,3.9C169.9,42,167.9,41.9,165.9,41.9z"/>
		<path class="st39" d="M171.9,42c1.5-1.5,1.1-2.3-0.7-3.1c-1.4-0.6-3.1-0.6-4.3-1.9c1.6-0.2,3.8,0.6,4.1-2.1c2.5-2,5.7-1.7,8.5-1.8
			c12.5-0.3,24.9-0.1,37.4-0.1c-0.4,2.4,0.7,4.2,2,6c-1.7,1.8-4,1.4-6.1,1.4c-5.6,0.1-11.2,0-16.8,0.1c-1.5,0-3.4-0.6-4.5,1.2
			c-0.6,1-1.4,1.9-2.6,2.3c-4.6,2-9.4,0.7-14.1,0.9C173,45,172.6,43.2,171.9,42z"/>
		<path class="st61" d="M264.2,29.8c43.9,0,87.7,0.1,131.6,0.1c2.7,0,5.3,0.1,8,0.2c-0.3,2.2-2.1,2-3.5,2.3c-28,0.4-56,0.1-84.1,0.2
			c-2,0-4.3-0.9-5.8,1.2c3.3,1.7,6.7,0.5,10,0.8c2.2,0.2,4.6-0.5,6.4,1.4c0.9,1.5,2.6,3.4-1.2,3c-2.7-0.3-4.8,0.4-5.9,3.1
			c-7.1,1.7-14.4,1.4-21.6,1.3c-8.2-0.1-16.5-0.4-24.7,0.1c-6.3,0.4-12.5,0-18.8-0.7c-0.9-2.1-2.6-2.4-4.7-2.3
			c-7.7,0.1-15.3,0.1-23,0c-2.1,0-4.4,0.3-6.1-1.5c1.5-2.9,4.3-1.8,6.6-2c1.8-0.1,3.6,0,5.6,0c-0.1-2.5-4.1-4.3-1.2-7
			c1.3,1.6,3.7,0.5,5,2c-1.1,1.2-2.9,2.2-1.6,4.1c0.8,1.3,2.4,0.9,3.6,0.7c2.4-0.5,5.8,0.3,5.3-4.1c-0.1-0.9,1.1-1.7,2.2-1.6
			c1.6,0.1,3.1,1.2,3.1,2.7c0,4.8,2.5,2.6,4.3,1.5C257.2,33.3,260.5,31.3,264.2,29.8z"/>
		<path class="st61" d="M404.8,30.1c5.3,0,10.6-0.1,15.9-0.1c2,0.1,4.1-0.3,6,1c0,3.1,1.5,5.6,3.1,8c1.9,2.6,6.2,4.8,1.8,8.7
			c-1.1,0.9-1.9,2.5-3.6,2c-1.6-0.5-1-2.2-1.4-3.4c-0.4-1-0.5-2.2-0.7-3.3c-3.4-2-7.1-0.9-10.6-0.9c-3.4-0.1-6.9-0.1-10.3-0.2
			c-0.3-0.1-0.6-0.3-0.8-0.4c2.8-1.9-1-3.9,0-5.9c2.8-1.7,6.2-0.1,9-1.4c0.9-1.6-0.5-1.6-1.3-1.7c-2-0.3-4,0.1-5.9-0.6
			C405.2,31.4,404.6,30.9,404.8,30.1z"/>
		<path class="st62" d="M220.9,38.9c10.6,0,21.2,0,31.8,0c1.2,0,2.9-0.4,3.3,1.3c0.1,0.4-1.4,1.1-2.1,1.7c-1.2,1.4-2.9,1.5-4.6,1.5
			c-18.2,0-36.5,0.1-54.7-0.5c-1.3,0-2.7,0.2-3.7-1c-2.5-2.3-1.6-3,1.3-3c8.9,0,17.8,0,26.6,0C219.6,38.9,220.2,38.9,220.9,38.9z"/>
		<path class="st63" d="M236.9,32c-1.5-1.1-5.2,3.1-5-2c1.8-2,3.5-4.6,6.5-1.9C240.6,30.2,240.6,31.9,236.9,32z"/>
		<path class="st64" d="M420.7,9.1c1.1-3.1,3.6-0.2,5.1-1.2c0.6,0.6,1.3,1.3,1.9,1.9c-0.3,0.1-0.5,0.2-0.8,0.2c-2,1.2-4,1-5.9-0.2
			C420.8,9.6,420.7,9.4,420.7,9.1z"/>
		<path class="st65" d="M420.9,9.9c2,0.1,4,0.1,5.9,0.2C424.7,16.2,422.9,11.8,420.9,9.9z"/>
		<path class="st66" d="M545.5,54.9c-3.6,2.7-14.1,3.9-16.2,2.5c-0.5-0.3-1-1-0.9-1.5c0.1-1.1,1.2-1,1.9-1
			C534.9,54.9,539.5,54.9,545.5,54.9z"/>
		<path class="st55" d="M166.9,75.9c0-1,0-2,0-3c5.6-2.2,11.4-0.2,17-0.7c9.1-0.8,18.1-0.9,27.2-1c5,0,9.8,1.1,14.7,1.6
			c2.4-0.2,4,1,5,3c-1,2-0.4,4.2-0.5,6.3c-0.2,4.7-2.8,6.2-7,4c-2.3-1.2-3.9-3.6-6.5-4.4c-2.8-1.3-6.1-0.4-8.9-1.9
			c-8.5-3.1-17.4-2.5-26.1-1.6C176.4,78.9,171.5,79.4,166.9,75.9z"/>
		<path class="st67" d="M267.9,56.9c12.3,0,24.7,0,37,0c1.4-1.2,3.1-1.3,4.8-1.3c2,0.1,4-0.1,5.9,0.5c0.8,0.4,1.5,0.8,1.3,1.9
			c0,1.7,0,3.3-0.1,5c0,1.7,0.6,3.6-1,5c-7.7,0-15.4,0.1-23.1,0.1c-8.3,1.4-16.6,1.6-24.9-0.1C268.8,64.2,265.1,60.6,267.9,56.9z"/>
		<path class="st68" d="M216.9,80.9c2.6-0.9,3.8,1.3,5.2,2.7c1.8,1.9,3.8,2.8,6.2,2.1c2.7-0.8,1.3-3.4,1.6-5.1
			c0.3-1.6-0.5-3.4,1-4.7c0,2,0,4,0,6s0,4,0,6c-0.6,6.4-7.2,4.7-10.4,7.5c-0.7,0.6-1.9,0-2-0.8c-1.1-5.9-6.1-4.8-10-5.9
			c-2.2-0.6-4.7-0.2-6.6-1.8c3.5-2,7.1-1.6,10.8-0.8c1,0.2,2.1,1.3,3-0.1c0.8-1.1,0.4-2.3,0.4-3.5C216.1,81.9,216.4,81.3,216.9,80.9
			z"/>
		<path class="st60" d="M225.9,72.9c-19.7,0-39.3,0-59,0c0-0.3,0-0.7,0-1c1.3,0,2.7,0,4,0c2.7-1.9,5.4-1.9,8,0c4-0.3,8-0.7,12-1
			c0.9-2.7,2.4-3.8,5-2c1.7,0,3.3,0,5,0c3.3-2.2,6.7-1.8,10,0c2,0,4,0,6,0c0.7-0.6,1.3-0.6,2,0c0,0.8,0.2,1.6,1,2
			C221.4,73.1,224.6,70,225.9,72.9z"/>
		<path class="st69" d="M257.9,59.9c0.9-1,1.7-0.9,1.9,0.5c0.2,1.3,0.4,2.5,2.1,2.6c2.7,2.8,4.4,5.5,0.1,8.4c-1.1,0.8-2,1.9-3.5,1.2
			c-1.6-0.8-1.7-2.3-1.6-3.8C257.2,65.8,258.3,62.9,257.9,59.9z"/>
		<path class="st70" d="M267.9,67.9c8.3,0,16.6,0.1,24.9,0.1c0.1,0.8-0.2,1.5-0.9,1.9c-7.1,0-14.2,0.1-21.4-0.1
			C269.6,69.8,266.6,71.3,267.9,67.9z"/>
		<path class="st14" d="M225.9,101.8c4.4-1,8.6-3.2,13.2-0.7c-1.7,4-1.5,8.4-2.1,12.6c-0.1,0.9,0.2,2.1-1.2,2.3
			c-1.2,0.2-1.8-0.5-2.2-1.5c-1.5-3.5-3.8-6.7-4.4-10.5C228.9,101.7,227.7,101.6,225.9,101.8z"/>
		<path class="st39" d="M330.8,68.9c1.7,1.9,2,4.9,5.5,5.5c2.3,0.4,1.2,3.8,2.5,5.5c-8.3,0-16.7,0-25,0c0.2-0.9,1.3-1.8,0.2-2.7
			c-0.9-0.7-3.2-0.4-2.3-2.4c0.6-1.4,2.1-0.1,3.1-0.3c2-0.5,3.8-0.8,5.8,0.1c1.7,0.7,3.4-0.6,3.6-1.9
			C324.8,68.3,327.9,68.9,330.8,68.9z"/>
		<path class="st71" d="M403.8,36.1c1.8,1.6,5.1,3.1,0,4.8c-0.4,0.4-0.8,0.7-1.4,0.6c-1.6,0.6-3.2,0.7-4.6-0.5
			c-0.3-0.1-0.7-0.1-1-0.2c-4.7-1.8-9.5-0.6-14.2-0.8c-4.8-0.2-9.6,0-14.4-1c8.4,0,16.8-0.1,25.2,0c2.5,0,4.6-0.3,5.5-3
			c-9.6-1.3-19.2-0.4-28.7-0.5c-19-0.2-37.9,0-56.9-0.1c-1.8,0-3.7,0.5-5.4-0.5c-2.4-4,0.3-4,3.1-4c13,0,26,0,38.9,0
			c17,0,33.9,0,50.9,0C402.1,32.5,402.6,34.5,403.8,36.1z"/>
		<path class="st39" d="M166.9,51.9c6.6-0.4,13.3,0,19-4.3c0.5-0.4,1.5-0.7,1.8-0.5c6,5.1,11.9-0.7,17.6,0.1
			c4.9,0.6,9.6,2.8,14.2,4.7c1.7,0.7,0.6,3.4,0,3.9c-2.4,1.6-4.8,4-7.7,3.7c-2.1-0.2-4-0.4-5.7,0.4c-6.3,3-11-3.1-16.4-3
			s-10.5-4.6-16.2-0.6c-2.4,1.7-4.2-2-6.5-2.5C166.4,53.3,166.4,52.6,166.9,51.9z"/>
		<path class="st72" d="M190.9,41.9c21,0,42,0,62.9,0c22,0,44,0.1,65.9,0.1c1,2.4-0.8,2-2,1.9c-8.2-0.7-16.3,1.6-24.8,0.3
			c-7.5-1.1-15.3,0.6-23,0.6c-14.1,0.2-28.2,0.5-42.2-0.1c-11-0.5-22,1.2-32.9-0.8c-2-0.3-4,2.1-6-0.1
			C188.9,42.6,189.6,42,190.9,41.9z"/>
		<path class="st73" d="M307.9,35c29.8,0,59.7,0,89.5,0c0.5,0,1,0.1,1.4,0.2c0.1,0,0.1,0.5,0.1,0.8c-24,0-48,0-72,0
			C320.5,35.4,314.1,37.1,307.9,35z"/>
		<path class="st74" d="M396.8,41.1c-0.2,1.5-1.2,1.8-2.5,1.8c-13.9,0-27.9,0-41.8-0.1c-0.6,0-1.1-0.6-1.7-0.9c0.7-0.9,1.7-1,2.7-1
			C367.9,41,382.3,41.1,396.8,41.1z"/>
		<path class="st39" d="M225.9,50.9c2.1,2.7,4.9,1.3,7.6,1.1c1.3-0.1,2.2,0.7,1.7,2.3c-0.6,1.5-2,3.3-3.1,2.3
			c-5.1-4.8-6.2,1.9-9.1,3.1c-1.1,0.4-1.8,3-3.4,1.3c-1.4-1.4,0.4-2.5,1.6-3.2c1.5-0.9,1.9-2,1.6-3.7
			C222.2,52,223.9,51.4,225.9,50.9z"/>
		<path class="st48" d="M316.9,57.9c-0.3-0.3-0.7-0.7-1-1c-2-1.5-4-1.2-6,0c-1.7,0-3.3,0-5,0c1.6-5.5,6.5-2.6,9.8-3.7
			c0.8-0.3,1.9,0.5,2.8,0.7c1.2,0.3,3.8-0.1,3.5,0.7c-0.8,2.1,0.9,4.8-0.8,6.1C316.5,63.4,318.8,57.9,316.9,57.9z"/>
		<path class="st39" d="M210.9,68.9c-3.3,0-6.7,0-10,0c0.2-6.3,0.2-6.3,9.5-5.8C208.6,65.3,210,67.1,210.9,68.9z"/>
		<path class="st8" d="M178.9,63.9c1.7-2.7,4-2.6,6.3-1.1c1.5,1,2.4,2.8,1.4,4.3c-1.5,2.3-4,2.8-6.7,1.8
			C177.6,67.7,178.3,65.8,178.9,63.9z"/>
		<path class="st39" d="M242.9,50.9c0.7-0.1,1.6,0.1,2.3-0.2c2.2-1,4.4-0.8,4.8,1.5c0.4,2-2.3,2.8-3.7,3.3c-2.8,0.9-5.3-1-7.9-2.1
			c-0.6-0.3-0.6-1.2-0.1-1.7C239.6,50.2,241.1,49.9,242.9,50.9z"/>
		<path class="st8" d="M168.9,68c-1.6-2.3,0.2-4.1,1.1-6c4-0.7,6.5,0.7,7,4.9c0.4,1.7-1.1,2.9-1.9,2.3c-1.9-1.3-2.6,1.2-4.1,0.8
			C170.2,69.3,169.5,68.6,168.9,68z"/>
		<path class="st75" d="M166.9,51.9c0,0.7,0,1.3,0,2c0,1.7,0,3.3,0,5c-2.8,1.9-3,0-3-2c0-3.6,0-7.3,0-10.9c0.3,0,0.7-0.1,1-0.1
			C168.4,46.9,166.2,49.9,166.9,51.9z"/>
		<path class="st39" d="M170.9,70c1.6,0.4,0.4-6.6,4-1.5c0.4,0.6,1.6-0.7,2-1.6c0.7-1,1.3-2,2-3c-0.1,1.8,0.1,3.5,1,5
			c-1.2,0.7-0.9,1.9-1,3c-2.7,0-5.4,0-8,0C170.9,71.2,170.9,70.6,170.9,70z"/>
		<path class="st39" d="M195.9,68.9c-2.1-0.3-3.7,0.4-5,2c0-0.3,0-0.7,0-1c-0.8-3.1,0.6-5.3,3-7C199.8,63.2,194.8,67.1,195.9,68.9z"
			/>
		<path class="st76" d="M193.9,62.9c-0.3,2.6-3,4.2-3,7c-2.4-2.5,0.1-5.7-1.9-8.6C191.3,61.4,192.8,61.7,193.9,62.9z"/>
		<path class="st39" d="M218.9,68.9c-0.7,0-1.3,0-2,0c1-1.4,0.5-2.7,0.2-4.2c-0.3-1.5-0.7-3.4,1.8-3.8
			C218.9,63.6,218.9,66.3,218.9,68.9z"/>
		<path class="st39" d="M315.8,67.9c0.3-1.7-0.6-3.6,1-5C318.8,65,320,67,315.8,67.9z"/>
		<path class="st77" d="M461.8,46.9c0,0.3,0,0.6,0.1,1c1,1.5,1.3,3.2,1.4,5.1c0.2-2.1,0.7-4.1,1.5-6c1.4-0.1,2,0.7,2.1,1.9
			c0.8,1,1,2.1,0.9,2.7c0-0.6,0-1.8,1-2.7c0.2-1,0.4-2,1.8-1.9c1.1,0.1,1.1,1,1.3,1.8c1,1,0.9,2.3,0.9,3.5c0-1.3-0.1-2.5,0.9-3.5
			c0.2-0.8,0.2-1.7,1.3-1.8c1.4-0.2,1.6,0.8,1.8,1.8c1,0.9,1,2.1,1,2.2c0-0.1,0.1-1.3,0.9-2.2c0.1-1.3,0.8-2,2.1-1.9
			c0.4,1.6,1.8,2.9,1.9,4.6c0.2-0.9,0.2-2,0.9-2.8c0.1-1.3,0.7-2,2.1-1.8c1,1.9,1.2,3.9,1.5,6.5c0.3-2.5,0.5-4.6,1.6-6.4
			c0.6,0,1.3,0,1.9,0c2,3.9,1,9,4.9,12c-0.3,1.3-0.5,2.6-0.8,3.9c-4.8,3-10.1,0.9-15.1,1.7c-0.8,0-1.7,0-2.3-0.7
			c-3-3.6-5.1-2.5-6.7,1.2c-0.1,0.8-0.2,1.5-1,1.9c-2-2.2-4.6-2.8-7.5-2.7s-5.9,0.4-8.8-0.5c-3.2-3-6.4-2.8-9.5,0
			c-2.5,0.5-5.1,1-7.2-1c0.5-4.3-0.8-8.8,0.7-13.1c1.2-3.3,3-3.9,5.3-0.8c1,0.8,1.1,2,1,3.1c0.1-1.1,0.1-2.3,1-3.2
			c0.1-1.3,0.7-2.1,2.1-2c1,1.9,1.2,4,1.5,6.3c0.5-1.7,0.3-3.3,1.4-4.4c0.3-1.3,0.6-2.6,2.2-1c1.4,1.4,1,3.3,1.4,5.4
			c0.5-2.3-0.2-4.6,1.6-6.2c1.4-0.1,2,0.6,2.1,1.9c1,1.2,1.1,2.7,1.3,4.1c0.4-2.1,0.6-4.2,1.6-6.1C460.5,47,461.1,47,461.8,46.9z"/>
		<path class="st78" d="M436.7,62.9c2.7,0,5.4,0,8.1,0.1c0.9,1,0.8,2.1,0.2,3.1c-0.3,1.3-1.2,1.9-2.5,1.9c-4,0-8,0-12,0
			c-1.8,0-3.4-0.5-3.3-2.7c0.1-1.9,1.5-2.3,3.2-2.3c1.8,0,3.7-0.1,5.5-0.1C436.1,62.9,436.4,62.9,436.7,62.9z"/>
		<path class="st79" d="M401.8,66.9c0.1-1.3,0.1-2.6,0.2-3.8l-0.2-0.1c5.3-1.8,10.6-1.5,16-0.2c2.6,1.9,2.9,4.5-0.4,4.8
			C412.3,68.1,406.9,69,401.8,66.9z"/>
		<path class="st80" d="M366.8,62.8c1.7,0.2,2.2,1.3,2,2.8c-0.2,1.3-1,2.3-2.2,2.3c-5.2-0.2-10.5,1.2-15.6-0.9
			c-1.6-3,0.2-4.6,2.7-4.8C358.1,61.9,362.5,61.1,366.8,62.8z"/>
		<path class="st80" d="M385.6,63c1.8,0,3.6,0,5.5,0c1.4,0,2.7,0.1,2.7,2c0,1.5-0.7,2.7-2.2,2.8c-4.3,0.1-8.6,0.1-12.9,0
			c-1.4,0-1.9-1.1-1.9-2.4c0-1.6,0.7-2.4,2.4-2.4C381.3,63,383.5,63,385.6,63L385.6,63z"/>
		<path class="st81" d="M403,41.1c0.3,0,0.5-0.1,0.8-0.2c5.9,0,11.8,0,17.7,0.1c1.7,0,3.8-0.7,4.3,2c-6.5,0-12.9,0-19.4,0
			c-1.3,0-2.7,0.3-3.6-1C402.2,41.5,402.3,41.2,403,41.1z"/>
		<path class="st82" d="M366.8,62.8c-3.9,0.1-7.9,0.2-11.8,0.1c-3-0.1-4.3,1.1-4,4c-2.4-2.8-0.7-5.2,1.8-5.6
			c4.5-0.7,9.3-0.4,13.9-0.3C367.3,61.1,367.1,62.1,366.8,62.8z"/>
		<path class="st83" d="M417.8,62.8c-5.3,0.1-10.6,0.1-16,0.2c0.8-2.2,2.7-2.1,4.5-2.1c3.3,0,6.6,0,9.9,0
			C417.7,60.9,418.6,61.1,417.8,62.8z"/>
		<path class="st84" d="M403,41.1c-0.1,0.3-0.2,0.6-0.2,0.9c-1.9,1.7-0.1,6.7-3.5,6.1c-3-0.5-0.9-4.6-1.5-7
			C399.5,41,401.3,41,403,41.1z"/>
		<path class="st85" d="M454.8,47c0,2.6,0,5.2-0.1,7.9c0,0.8-0.2,1.7-1.2,1.8c-1.3,0.1-1.6-0.9-1.6-1.9c0-2.3,0-4.6,0-6.9
			C452.9,47.6,453.9,47.3,454.8,47z"/>
		<path class="st86" d="M459.8,47c0,2.5,0,4.9-0.1,7.4c0,1,0,2.2-1.3,2.3c-1.7,0.2-1.6-1.3-1.6-2.4c0-1.8,0-3.6,0.1-5.4
			C458.5,49.1,458.8,47.5,459.8,47z"/>
		<path class="st87" d="M449.7,48.9c-0.4,2.6,1.3,7.4-1.1,7.3c-3.6-0.2-1-4.7-1.8-7.3c-0.2-0.6-0.1-1.3-0.1-2
			C447.8,47.5,448.2,49.1,449.7,48.9z"/>
		<path class="st88" d="M444.7,48.9c-0.1,2.5,0.5,5.1-0.9,8.5c-1.6-3.4-0.8-6-1.1-8.5C443.4,48.9,444.1,48.9,444.7,48.9z"/>
		<path class="st79" d="M452.8,63c4.3,0,8.5,0.1,12.8-0.1c3.1-0.2,4.7,0.8,4.2,4.1c-5.8,1.1-11.6,2.6-17.2-0.9
			C452,65,451.9,63.9,452.8,63z"/>
		<path class="st79" d="M478.8,63.9c5.3-2.2,10.8-0.4,16.2-1.1c1.6,2.2,1.5,4.7-1.3,4.8c-4.9,0.2-10,1.4-14.9-0.7
			C478.2,66,478,65,478.8,63.9z"/>
		<path class="st89" d="M495.7,59c-6.8-1.9-4.5-7.5-4.9-12c4.3-0.5,5.7,1.5,5.1,5.6C495.5,54.7,495.7,56.9,495.7,59z"/>
		<path class="st90" d="M452.8,63c-0.1,1-0.1,2.1-0.2,3.1c-2.6-0.8-5.2-1.2-7.7,0c-0.1-1-0.1-2.1-0.2-3.1c0.2-2.5,1.9-3,4-3
			C451,59.9,452.6,60.4,452.8,63z"/>
		<path class="st14" d="M478.8,63.9c0,1,0,2,0,3c-1.9-3.5-5.3-1.1-7.8-1.9c0.3-1.8-1.3-4.4,2.1-5.1
			C476.4,59.3,477.6,61.6,478.8,63.9z"/>
		<path class="st91" d="M506.8,63.9c-2.5,0.2,0.4,4.5-3,4c-0.8-1.5,0.4-7-3.9-1.2c-0.2-4.2,1.7-6.3,5-6.6
			C508,59.8,507,62.2,506.8,63.9z"/>
		<path class="st92" d="M488.9,47c0,2.7-0.1,5.3-0.1,8c0,0.9-0.4,1.7-1.4,1.7S486,55.9,486,55c-0.1-2.7-0.1-5.3-0.1-8
			C486.8,48.2,487.8,48.3,488.9,47z"/>
		<path class="st93" d="M483.6,48.8c0.1,2.5,0.5,5.1-1.3,7.6c-0.5-3.2-1-6.3-1.6-9.5c0.3,0,0.7,0,1,0
			C481.9,48,482.3,48.9,483.6,48.8z"/>
		<path class="st94" d="M464.8,46.9c0,2.6,0,5.2-0.1,7.8c0,1-0.4,2-1.7,1.8c-1-0.1-1.2-1.1-1.2-1.9c0-2.3,0-4.6,0-6.9
			C463.4,49.2,463.9,47.4,464.8,46.9z"/>
		<path class="st95" d="M473.7,48.9c0,2.5,0.4,5.1-0.8,8.9c-1.7-3.8-1-6.4-1.1-8.9C472.5,48.9,473.1,48.9,473.7,48.9z"/>
		<path class="st96" d="M468.8,48.9c-0.1,2.5,0.4,5.1-0.8,8.9c-1.6-3.8-1-6.4-1-8.9C467.5,48.9,468.2,48.9,468.8,48.9z"/>
		<path class="st97" d="M478.7,48.9c0,2.5,0.6,5.1-0.9,8.6c-1.6-3.4-0.9-6-1-8.5C477.4,48.9,478.1,48.9,478.7,48.9z"/>
		<path class="st98" d="M216.9,80.9c0,0.7,0,1.3,0,2C215.5,84,216,85,217,86c-0.3,1.5-1.1,3.6-2.7,2.3c-4-3.2-8.3-0.5-12.3-1.4
			c-0.5,0-1,0-1.5,0c-1.7-0.2-4.2,0.5-4-2.2c0.1-2.1,2.4-1.8,4-1.8c2.9,0,6,0.4,7.6-3C211,79.1,214.1,79.2,216.9,80.9z"/>
		<path class="st99" d="M73.8,77C66.4,70.4,59,63.8,51.6,57.3c-1.1-1-2.2-2-3.6-2.6c-3.2-1.4-4.9-0.5-4.7,3.4
			c0.2,4.3-0.1,8.6-0.2,12.9c-1.8-0.8-2.1-2.4-2.1-4.1c0-2.7-0.2-5.3,0.1-8c0.2-2-1.3-5,1.5-5.6c2.9-0.7,6.4-1.5,9.1,0.9
			c7.4,6.9,14.7,13.9,22,20.9C74.1,75.6,74.9,76.2,73.8,77z"/>
		<path class="st100" d="M148,65.9c-0.1-2.5-0.5-5-0.1-7.5c0.6-4.8-2.2-4.7-5.4-4.1c-2,0.4-3.6,1.6-5.1,3c-5.7,5-11.5,9.9-17.3,14.9
			c-0.2-2.4,1.7-3.5,3.1-4.9c4.3-4.1,8.8-8.1,13.1-12.2c3.5-3.3,7.8-2.1,11.9-2.1c0.4,0,1,0.3,1.3,0.6
			C150.8,55.2,149.8,64.1,148,65.9z"/>
		<path class="st101" d="M51,101.8c2.2-1.1,4.5-2.2,6.7-3.2c-0.2,0.8-0.1,2-0.6,2.3c-5.1,3.2-10,7-16.2,9.7c0-6.8,0-13.1,0-19.3
			c0-1.4,0.6-2.2,2-2.3c0.1,1.9,0.4,3.8,0.3,5.8c-0.1,2,0.9,2.5,2.6,2.3c0.3,1.7-1.9,2.7-1.4,4.5c0.3,5.1,2.5,0.8,3.8,0.7
			C49.2,101.8,50.1,101.7,51,101.8z"/>
		<path class="st102" d="M125.9,54c-19.8,0.1-39.5,0.1-59.3,0.2c-1.4,0-3.8-1.5-4.1,1.6c-1.3-0.5-2.9-0.6-3.8-2.6
			c23.9,0,47.5,0,71.2,0C128.7,54.7,127.1,53.5,125.9,54z"/>
		<path class="st103" d="M76.9,69c3.8,1.7,6.2,5.2,9.4,7.7c1.4,1.1,2.6,2.5,4.7,2.4c0,2-0.8,3.8-2.9,2.1c-4-3.2-7.7-6.8-11.4-10.4
			C76.4,70.6,76.8,69.7,76.9,69z"/>
		<path class="st104" d="M403.8,36.1c-4,0-2.7-3-3-5.1c1.1-0.1,2.2,0.2,3-0.9c0.4,0,0.7,0,1.1,0c0.3,0.3,0.6,0.6,0.9,0.9
			c2,3.7,6.5,1.6,9,4C411.3,37.2,407.4,35.2,403.8,36.1z"/>
		<path class="st105" d="M414.8,35c-1.6,0-3.3-0.1-4.9,0c-3.1,0.3-4.6-0.8-4.2-4c2.3,0,4.7,0,7,0C416,31,416.6,32.4,414.8,35z"/>
		<path class="st106" d="M313.9,63c0.4,3-0.9,4.2-4,4c-10.1-0.6-20.2,0.9-30.3-0.9c-2.1-0.4-4.4-0.2-6.4,0.4
			c-3.6,1.1-4.6-0.2-4.3-3.5c1.6-1.5,3.6-1.4,5.6-1.4c11.3,0,22.5,0,33.8,0C310.3,61.4,312.3,61.5,313.9,63z"/>
		<path class="st107" d="M313.9,63c-15,0-30-0.1-45-0.1c-0.3-2.6,1.3-3,3.4-2.9c12.8,0,25.5,0,38.3,0
			C312.7,59.9,314.2,60.4,313.9,63z"/>
		<path class="st45" d="M309.9,56.9c2-2.1,4-3.6,6,0C313.9,56.9,311.9,56.9,309.9,56.9z"/>
		<path class="st108" d="M216.9,86c-1.2-0.3-3.4,0.7-3.5-1.4c0-1.7,1.9-1.8,3.4-1.7C217.2,83.9,218.3,85,216.9,86z"/>
		<path class="st19" d="M43.7,100.8C42,98.1,45.5,98.4,46,97c3.4-0.2,4.5,2,5.1,4.8c-0.5,0.9-1.3,1.1-2.2,1.1
			C47.6,101,45.9,100.4,43.7,100.8z"/>
		<path class="st109" d="M43.7,100.8c3.6-3,4.3-2.7,5.2,2c-0.1,0.1-0.3,0.2-0.4,0.3c-1.2,1.5-2.9,3.4-4.6,2.5
			C42.3,104.9,43.5,102.5,43.7,100.8z"/>
	</g>
</g>
</svg>
