<?xml version="1.0" encoding="utf-8"?>
<!-- Generator: Adobe Illustrator 25.0.0, SVG Export Plug-In . SVG Version: 6.00 Build 0)  -->
<svg version="1.1" xmlns="http://www.w3.org/2000/svg" xmlns:xlink="http://www.w3.org/1999/xlink" x="0px" y="0px"
	 viewBox="0 0 591 161" style="enable-background:new 0 0 591 161;" xml:space="preserve">
<style type="text/css">
	.st0{display:none;}
	.st1{display:inline;stroke:#FFFFFF;stroke-miterlimit:10;}
	.st2{fill:#C3BEA2;}
	.st3{fill:#BBB89E;}
	.st4{fill:#CECABF;}
	.st5{fill:#C5C4BD;}
	.st6{fill:#E4E0DA;}
	.st7{fill:#95A0A2;}
	.st8{fill:#8C9596;}
	.st9{fill:#818B8E;}
	.st10{fill:#BEC3BE;}
	.st11{fill:#707574;}
	.st12{fill:#616563;}
	.st13{fill:#515453;}
	.st14{fill:#767C7D;}
	.st15{fill:#736743;}
	.st16{fill:#848884;}
	.st17{fill:#7E8688;}
	.st18{fill:#676B69;}
	.st19{fill:#5C5236;}
	.st20{fill:#7E837F;}
	.st21{fill:#959E9C;}
	.st22{fill:#371007;}
	.st23{fill:#6C674D;}
	.st24{fill:#2D2A1F;}
	.st25{fill:#622F15;}
	.st26{fill:#160904;}
	.st27{fill:#5E5436;}
	.st28{fill:#541D0D;}
	.st29{fill:#8F855F;}
	.st30{fill:#272116;}
	.st31{fill:#5D220E;}
	.st32{fill:#DEDAC6;}
	.st33{fill:#B17C43;}
	.st34{fill:#4F4B37;}
	.st35{fill:#655E44;}
	.st36{fill:#AEA581;}
	.st37{fill:#958C6C;}
	.st38{fill:#F7F7F1;}
	.st39{fill:#A9A28A;}
	.st40{fill:#777C7A;}
	.st41{fill:#555958;}
	.st42{fill:#655A39;}
	.st43{fill:#F2F1E9;}
	.st44{fill:#95895F;}
	.st45{fill:#D9DDDB;}
	.st46{fill:#F7F5E4;}
	.st47{fill:#EFEFEF;}
	.st48{fill:#D7DCDA;}
	.st49{fill:#969B96;}
	.st50{fill:#6A6E6C;}
	.st51{fill:#A4ABA8;}
	.st52{fill:#595C5A;}
	.st53{fill:#9A9F9C;}
	.st54{fill:#ABB1AD;}
	.st55{fill:#949995;}
	.st56{fill:#C9C39B;}
	.st57{fill:#E2DDC2;}
	.st58{fill:#D5D1BA;}
	.st59{fill:#D1C89B;}
	.st60{fill:#D5CEA8;}
	.st61{fill:#DADEDC;}
	.st62{fill:#6C706D;}
	.st63{fill:#837851;}
	.st64{fill:#46190B;}
	.st65{fill:#190702;}
	.st66{fill:#5C1F0D;}
	.st67{fill:#88805D;}
	.st68{fill:#6D6342;}
	.st69{fill:#686347;}
	.st70{fill:#867D59;}
	.st71{fill:#D2C796;}
	.st72{fill:#BAB086;}
	.st73{fill:#310E06;}
	.st74{fill:#501D0D;}
	.st75{fill:#3C1308;}
	.st76{fill:#1F0903;}
	.st77{fill:#200A03;}
	.st78{fill:#1A0702;}
	.st79{fill:#43160A;}
	.st80{fill:#140905;}
	.st81{fill:#250D05;}
	.st82{fill:#724720;}
	.st83{fill:#464130;}
	.st84{fill:#170601;}
	.st85{fill:#6D674B;}
	.st86{fill:#110F0B;}
	.st87{fill:#EDE8C5;}
	.st88{fill:#B1AC8E;}
	.st89{fill:#736A4A;}
	.st90{fill:#383323;}
	.st91{fill:#959071;}
	.st92{fill:#1D1911;}
	.st93{fill:#5E6260;}
	.st94{fill:#A7ABA3;}
	.st95{fill:#989F9C;}
	.st96{fill:#898F8C;}
	.st97{fill:#B7BEBC;}
	.st98{fill:#989E9B;}
	.st99{fill:#5C605F;}
	.st100{fill:#616562;}
	.st101{fill:#948F72;}
	.st102{fill:#777B78;}
	.st103{fill:#9C9065;}
	.st104{fill:#CBB679;}
	.st105{fill:#6F7471;}
	.st106{fill:#5D6160;}
	.st107{fill:#838884;}
	.st108{fill:#828784;}
	.st109{fill:#BFC5C3;}
	.st110{fill:#C5CBC8;}
	.st111{fill:#A6ABA8;}
	.st112{fill:#ADB4B1;}
	.st113{fill:#B1B7B4;}
	.st114{fill:#C2C8C5;}
	.st115{fill:#C1C7C4;}
	.st116{fill:#727673;}
	.st117{fill:#969C9A;}
	.st118{fill:#A1A6A2;}
	.st119{fill:#7B7F7B;}
	.st120{fill:#727774;}
	.st121{fill:#828683;}
	.st122{fill:#A8ABA3;}
	.st123{fill:#6C716E;}
	.st124{fill:#817B5D;}
	.st125{fill:#A9A17E;}
	.st126{fill:#191610;}
	.st127{fill:#726A4A;}
	.st128{fill:#AEA274;}
	.st129{fill:#8E886D;}
	.st130{fill:#F9F9F6;}
	.st131{fill:#8E938E;}
	.st132{fill:#909590;}
	.st133{fill:#B0B5B1;}
	.st134{fill:#591E0C;}
	.st135{fill:#5F2410;}
	.st136{fill:#793216;}
	.st137{fill:#5E2611;}
	.st138{fill:#773317;}
	.st139{fill:#D8CF9D;}
	.st140{fill:#454336;}
	.st141{fill:#706A51;}
	.st142{fill:#43180B;}
	.st143{fill:#712F15;}
	.st144{fill:#260C05;}
	.st145{fill:#331409;}
	.st146{fill:#5F3015;}
	.st147{fill:#434033;}
	.st148{fill:#1C0D07;}
	.st149{fill:#3C1208;}
	.st150{fill:#663919;}
	.st151{fill:#2F1409;}
	.st152{fill:#383223;}
	.st153{fill:#462210;}
	.st154{fill:#B3A97D;}
	.st155{fill:#693E1C;}
	.st156{fill:#59543E;}
	.st157{fill:#958F6E;}
	.st158{fill:#E4E6E5;}
	.st159{fill:#7C817E;}
	.st160{fill:#C5CAC6;}
	.st161{fill:#D3D9D6;}
	.st162{fill:#F2F3F2;}
	.st163{fill:#CCD2CF;}
	.st164{fill:#BBC2C0;}
	.st165{fill:#606461;}
	.st166{fill:#554B2F;}
	.st167{fill:#98461F;}
	.st168{fill:#92431D;}
	.st169{fill:#BD6431;}
	.st170{fill:#E5E8E6;}
	.st171{fill:#615A41;}
</style>
<g id="Camada_2" class="st0">
	<rect x="-74" y="-118" class="st1" width="754" height="342"/>
</g>
<g id="Camada_1">
	<g>
		<path class="st2" d="M85.1,159.9c-7.3-1.8-14.9,0.4-22.2-1.8c0.3-1,1-1.7,2-2c4.5-0.6,8.9,0.3,13.4,0.3c34.8-0.1,69.6-0.1,104.4,0
			c2.8,0,5.7-0.2,8.4,0.8c0.6,0.3,1,0.8,1.1,1.5c-1.7,2.1-4,1.3-6.1,1.3c-28.2,0.1-56.3,0-84.5,0.1c-0.9,0.1-1.8,0.4-2.6,0.9
			c-1.3,0-2.7,0-4,0C91.8,159.5,88.3,161.3,85.1,159.9z"/>
		<path class="st3" d="M186.2,3.2c-0.4-1.2,0.6-2,0.8-3.1c2.3,0,4.7,0,7,0c1.9,7.7,0.9,15.5,0.8,23.2c0,4.3,0.8,6.1,5.6,5.9
			c9.3-0.4,18.6-0.2,27.8-0.1c1.9,0,4-0.6,5.8,0.7c-0.6,1-1.6,1.2-2.5,1.3c-1,0.2-2,0.3-3,0.4c-1.1,0-2.1-0.2-3.2-0.1
			c-6.4,0-12.9,0.1-19.3-0.1c-3.9-0.1-7.8,0.7-11.6-0.8c-1.7-1.1-1.6-2.9-1.8-4.6c-0.1-1.6-0.9-3-1.5-4.5c-0.6-2.1-0.6-4.2,0-6.2
			c1.7-3.3,1.9-6.8,1.1-10.3c-1-2.5-3-1.6-4.8-1.5C187,3.6,186.5,3.4,186.2,3.2z"/>
		<path class="st4" d="M99.1,160.9c0.4-0.3,0.7-0.7,1.1-1c1.7-0.9,3.6-0.4,5.4-0.4c28.6,0,57.3,0,85.9,0c0.7-0.1,1.3,0.2,1.7,0.7
			c0,0.3,0,0.5-0.1,0.8C161.7,160.9,130.4,160.9,99.1,160.9z"/>
		<path class="st5" d="M0.9,91l-0.4,0.1L0.1,91c0-5.3,0-10.7,0-16c0.3,0,0.6,0,1,0C3.5,80.4,3.7,85.7,0.9,91z"/>
		<path class="st6" d="M85.1,159.9c3.3,0.3,6.8-0.9,10,1c-3.3,0-6.7,0-10,0C85.1,160.6,85.1,160.2,85.1,159.9z"/>
		<path class="st7" d="M427.1,87.1c-9.6,1.7-19.2,0.6-28.8,0.7c-26.9,0.2-53.8,0.1-80.7,0.3c-27.4,0.2-54.8,0.6-82.2,0.8
			c-2.1,0-4.8,1-6.1-2c1.2-1.2,2.8-1.1,4.3-1.2c5.9-2.7,12.1-3.3,18.5-3.3c40.4,0.1,80.9-0.2,121.3,0.1c20.6,0.2,41.2-0.8,61.8-1.3
			c20.6-0.6,41.2-0.5,61.7-3.7c5.6-0.9,11.1-2.1,16.7-2.8c8.1,0.1,15.9-1.9,23.6-3.7c5.3,0.2,9.9-2.7,15-3.3c0.9-0.1,1.4-0.8,2-1.4
			c5-5,8.9-4.1,11.6,2.7c-17.6,6.3-35.9,9-54.3,11.9c-22.3,3.5-44.8,4.5-67.3,6c-1.8,0.1-3.6,0-5.5,0c-7.3-0.6-14.6-0.2-21.9,0
			c-0.6,0.5,0.6,0.6,0.2,0.2C420.4,86.3,423.8,86.1,427.1,87.1z"/>
		<path class="st8" d="M465.9,33.2c1.7,0.1,3.3,0.2,5,0.3c6.3,1.6,12.6,2.6,19,1.6c9.8,1.3,19.6,2.4,29.4,3.8
			c7.6,1.1,15.1,2.8,22.7,4.2c2.9,2.4,6.6,2.8,10.1,3.6c4.8,1.1,9.6,2.1,14,4.4c2.9,1.4,6.1,2.4,8.9,4.1c0.9,0.6,2.2,1.1,2,2.5
			c-0.3,1.4-1.7,1.4-2.8,1.6c-1.3,0.2-2.6,0.5-3.8,0.8c-2.9,0.4-5.8,0.5-8.6,0c-9.2-1.3-18.6-0.8-27.8-1.8c-1.5-0.2-3.3,0.1-3.8-1.7
			s0.6-3.5,1.6-5.1c0.7-1,1.8-0.7,2.7-0.6c1.6,0.2,3.3,0.4,4.8-0.8c-5.1-4.3-11.4-4.9-14.8-1.5c-1.5,1.6-2.5,3.1-1.1,5.3
			c1.6,2.6,0.9,4.1-2.1,4.3c-7.8,0.5-15.6-0.2-23.4-1.3c-1.6-0.2-2.4-1.2-0.9-2.7c0.2-0.2,0.5-0.4,0.7-0.7c1.5-1.8,5.2-1.6,4.9-4.9
			c-0.2-2.7-6.2-7.9-9.3-8.4c-5.6-0.9-11.2-0.4-16.7,0.4c-1.7,0.2-3.5,0.7-4.8-0.5c-2.6-2.4-6.6-1.1-9-3.7
			C462.2,33.9,464.4,33.9,465.9,33.2z"/>
		<path class="st9" d="M465.9,33.2c-0.8,1.2-2.5,1.3-3,2.9c-1.8,1.7-4,1.5-6.1,1.4c-9.8-0.8-19.6-1.3-29.3-1.3
			c-10.3,0-20.5-1-30.8-0.8c-13.1,0.2-26.2,1.8-39.3,0.3c-6.5-0.8-13-0.1-19.4,0.4c-8.8,0.6-17.5-0.3-26.3-0.3
			c-20.9,0-41.9-0.2-62.8,0.1c-2.5,0-4.4,1.5-6.6,1.9c-1.9-0.2-2.4-2.2-3.9-2.9c-1.2-1.4-1-2.9-0.2-4.4c29.3-0.1,58.6-0.1,87.8-0.2
			c17,0,34-0.3,50.9,0.2C406.4,31,436.2,30.7,465.9,33.2z"/>
		<path class="st10" d="M565.8,68.9c-1.5-1.3-3.1-2.5-4.4-3.9c-2.5-2.8-3.8,1.5-5.9,0.9c0.9,4.8-2.8,2.8-4.8,3.1
			c-4.3,0.9-8.2,3.7-12.9,2.9c-0.2-1.7,2.5-2.5,1.4-4.4c-0.5-0.8,0-2.6-1.9-2.2c-1.6,0.4-3.3,0.1-3.4-1.7c-0.2-2.1,1.5-3.1,3.3-3.7
			c3.3-0.5,6.7-0.2,10-0.3c7.3-0.2,14.6,0.5,21.9,0.5c2.7,2,2.7,2-0.4,4.1c1-0.5,2.2-0.6,2.9-1.6c0.7-0.9,1.8-1.4,2.4-2.4
			c0.4-0.9,0.8-1.8,2-1.7c4.1-2,8.4,0.2,12.5-0.2c1.1,0.4,1.3,1.2,0.2,1.6C581.1,62.6,573.8,66.7,565.8,68.9z"/>
		<path class="st11" d="M228,80.9c-1.9,1.2-1,3.2-1.1,4.8c-0.3,2.3-1.1,2.9-3,1.5c-3.4-1.1-6.6-2.6-8.8-5.6
			c-0.3-0.4-0.5-0.8-0.6-1.2c0.7-1.9,2.8-3.4,1.6-5.8c0.3-2.2,2-3.2,3.6-4.2c2-0.9,4.3-1.1,5.9-3.2c1-1.3,2.8-2.2,4.8-1.3
			c0.5,0.5,1,1.1,0.7,1.8C229.6,72,228.6,76.4,228,80.9z"/>
		<path class="st12" d="M211,87.8c-3.4,0-6.7,0-10.1,0c-3.3-3.5-3.5-12.9-0.3-16.2c2.1,0.2,3.1-2.4,5.2-2c1.6,0.5,2.6,1.8,3.8,2.9
			c0.8,0.9,2.1,2.3,1.5,2.9c-2.6,2.7,0.9,3.8,1.2,5.7c-0.3,1.4-1,2.6-0.1,4.1C213,86.4,212.3,87.3,211,87.8z"/>
		<path class="st13" d="M200.9,72c-0.3,0.2-0.8,0.4-0.8,0.6c0.3,5.1-1.7,10.3,0.9,15.3c-2.3,0.2-4.5,0.3-6.8,0.5
			c-2.3-1.9-1-4.9-2.1-7.1c-0.4-2.5-0.7-4.9,0.1-7.4c1.1-0.8,1.7-1.9,1.8-3.3c2.1-2,4.4-3.2,7.4-1.5C201.9,70.1,201.9,71.1,200.9,72
			z"/>
		<path class="st14" d="M588.6,58.3c-4.5,1.7-9.2-0.1-13.7,0.9c-0.6,0.6-1.3,0.8-2,0.7c-0.8-0.1-1.4-0.3-1.9-1
			c1.3-1.7,3.5-0.3,5.2-1.4c-3-2.8-7.1-3.2-10.2-5.5c-0.7-0.5-1.4-1.2-0.9-2s1.4-0.6,2.2-0.2C574.7,51.8,581.3,55.9,588.6,58.3z"/>
		<path class="st13" d="M238,30.3c1.1,1.2-0.1,2.5,0.1,3.7c2.5,2.7,1.2,5.6,0.2,8.4c-0.5,1.4-1.3,2.9-3.1,2.7c-1.7-0.2-2.6-1.5-3-3
			c-0.9-2.9-0.1-6-0.8-8.9c-0.3-1-0.7-2-0.2-3c1-0.1,1.9-0.2,2.9-0.3C235.4,30,236.7,30.1,238,30.3z"/>
		<path class="st15" d="M193.3,81c1.5,2.3,0.3,4.9,0.9,7.3c0.3,17.2-0.5,34.5,0.7,51.7c-0.7,0.6,0.1,3-2.1,1.7
			c-2.2-6.2-0.8-12.6-1.1-19c-0.1-9.1,0.1-18.2,0-27.3c0-2.8,0-5.6,0-8.4C191.8,84.9,191.1,82.6,193.3,81z"/>
		<path class="st16" d="M228,80.9c-2.8-5.4,1.8-9.9,2-14.9c0.1-1.3-1.2-1.8-1.5-2.8c0.2-1.6,1.3-1.9,2.7-1.8
			c2.2,1.1,2.8,3.1,3.4,5.3c-0.5,4.4,0.8,9-1.3,13.2c-2.8-1.6-2.8-1.6-1.4-5.9c-1.6,1.9-1.3,4.1-1.5,6.2c-0.1,1.8,0.1,3.7-1.5,5
			C227.8,83.9,228.3,82.3,228,80.9z"/>
		<path class="st17" d="M567.1,49.9c-1.6,0-1.9,0.8-1.3,2.1c-5.8-2.8-12.1-3.8-18.3-5c-2.5-0.5-4.5-1.6-5.6-3.9
			C550.5,44.8,559,46.5,567.1,49.9z"/>
		<path class="st18" d="M228.9,85.2c0.8-4-1.4-8.7,2.7-12.1c1.2,2.2-0.6,4.9,1.4,6.9c1.9,2.3,1.9,4.6,0,7c-1.2,0-2.5-0.1-3.7-0.1
			C229.1,86.3,229,85.7,228.9,85.2z"/>
		<path class="st11" d="M211,87.8c0.3-0.9,1.3-1.8,0.1-2.6c-3.4-2.2-1-3.1,0.8-4.1c1-0.5,2-0.5,3.1-0.1l0,0c1.6,1.8,2.7,4,5.5,4.8
			c1.4,0.4,0.5,1.5-0.5,2C217,87.8,214,87.8,211,87.8z"/>
		<path class="st19" d="M194,142c0.3-0.7,0.6-1.4,0.9-2c-0.3,4.7,2.5,8.6,3.3,13.1c-0.7,0.4-1.4,0.5-2.2,0.3c-3-1.8-4.1-4.5-3.3-7.9
			C192.8,144.2,193,143,194,142z"/>
		<path class="st9" d="M489.9,35.1c-6.4,2.5-12.7-0.2-19.1-0.3c0-0.5,0-0.9,0.1-1.4C477.2,34,483.6,34.6,489.9,35.1z"/>
		<path class="st20" d="M427.1,87.1c-3.3,0-6.6,0-9.9,0c7.2-0.7,14.4-2.1,21.6-0.3C434.9,86.9,431,87,427.1,87.1z"/>
		<path class="st21" d="M220,87.8c1.1-1.9-0.6-1.7-1.5-2.1c-2.2-0.8-3.7-2.2-3.4-4.7c2.8,2.3,6.4,3.5,8.9,6.3
			C222.6,87.4,221.3,87.6,220,87.8z"/>
		<path class="st2" d="M196.1,153.3c0.7-0.1,1.3-0.2,2-0.2c0.5,3.9-2.2,5.5-5,7.1l-0.1-0.4c-0.5-0.4-0.6-1.1-0.9-1.6l-0.1-0.3
			c-0.3-1.7,1.3-2.1,2.1-3.1C194.7,154.2,195.3,153.6,196.1,153.3z"/>
		<path class="st22" d="M30.4,32.1c1.9-1.8,4.3-0.9,6.5-1.1c5.5,0.3,11.1,0.1,16.6,0.7c2,0.2,4,0.5,4.9,2.7c0.2,0.6,0.4,1.3,0.1,1.9
			c-3.9,8.1-7.7,16.3-12.6,24c-3.5,0.8-7,3.1-9.9-1.8c-1.5-2.5-4.9-1.2-5.7,2c-0.3,1.3-1,2.3-2.1,2.5c-4.4,0.9-3.7,4.2-3,7
			c0.8,3,0.3,5.5-1.2,8c-0.4,0.8-0.8,1.7-1.3,2.5c-2.4,3-3.1,6.7-4.3,10.2c-0.3,1-0.5,2-1.6,2.5c-2.6-1.2-1.8-3.6-2-5.6
			c0-1.6,0-3.2,0.4-4.7c0.1-0.5,0.3-1,0.5-1.4c1.9-5.5,3.9-10.9,4.8-16.7c1.4-8.8,6.1-16.1,10.9-23.2C33.9,37.8,33.9,34.9,30.4,32.1
			z"/>
		<path class="st23" d="M14.1,41.1c4.8-0.9,9.5-1.9,13.9-4.1c1.8,3.2-0.5,5.8-1.4,8.4c-4.2,12-7.5,24.2-10.4,36.6
			c-0.2,0-0.4-0.1-0.6-0.2c-3.2-1.8-1.3-4.9-1.8-7.3c-0.1-0.3,0.6-0.9-0.2-0.9c-0.3,0-0.6,0.7-0.9,1.1c-2.3,1.3-3.8-0.3-5.5-1.3
			c-2.2-2.9-1.6-6.3-1.6-9.5c0-3.6,0.1-7.2,0.1-10.8c0.1-2.2-0.7-3.8-2.5-5c0-2.2,1.6-3.5,2.9-5C9,43.2,11.4,41.5,14.1,41.1z"/>
		<path class="st24" d="M3.2,48.1c2.9-1.2,4.1-0.4,3.9,2.9c-0.3,5.9-0.2,11.9-0.2,17.8c0,1.5-0.2,3,1,4.2c1.9,3.5-0.5,7-0.4,10.6
			c0.1,2.4,0.2,4.8,0.6,7.2c0.5,3.9-0.3,7.9,0.7,11.7c0.4,1.6,0.6,3.2,1.1,4.7c0.3,3,1.8,5.8,0.7,8.9c-3.2,2.1-3.2-1.1-3.7-2.5
			c-1.6-5.4-3.3-10.8-3-16.5c0.1-1.9,0.2-3.9-0.6-5.4c0.1,2.6,2.5,5.8-1.2,8.2c-0.4-3-0.8-5.9-1.3-8.9c0-5.4,0.1-10.7,0.1-16.1
			C1.9,66,1.1,56.9,3.2,48.1z"/>
		<path class="st25" d="M96.1,29.2c23.3,0,46.6,0,69.9,0c1.3,0.6,2.5,1.2,3.1,2.6c1,3,1.1,6.5,4.3,8.5c0.1,0.5-0.1,0.9-0.4,1.2
			c-2.3,1.3-4.8,0.8-7.3,0.6c-1.1-0.1-2.2-0.4-2.7-1.8c-2.2-6.3-2.3-6.3-8.7-5.7c-3.3-2.7-6.1,0.5-9.2,0.7c-1.2-3.9-4-3-6.7-2.2
			c-0.4,0.1-0.9,0.2-1.3,0.2c-2.6-0.3-4.7,1.2-7,2.2c-1.9-5.5-6.1-3.7-9.9-3c-1.9,0.5-3.7,1-5.7,0.7c-1.4-0.2-2.7-0.7-4.1-1
			c-2.2-0.5-4.4-1.5-6.6,0.1c-0.4,0.3-0.8,0.5-1.2,0.6c-2.2,0.3-4.4,0.8-6.6,1.5c-0.8-0.1-1.3-0.6-1.5-1.3
			C94,31.4,94.9,30.2,96.1,29.2z"/>
		<path class="st26" d="M16.3,82c-0.9-7.8,2.8-14.7,4.6-22c1.9-7.8,4.8-15.3,7.2-23c1.3-1.4,0.4-3.9,2.3-4.9
			c4.9,1.4,5.9,3.6,3.4,7.8c-4.6,7.7-10.4,14.8-12,24.1c-0.9,5.2-2.6,10.2-3.8,15.3C17.8,80.4,17.3,81.4,16.3,82z"/>
		<path class="st27" d="M175,29.4c3.8,1.2,7.4,1,11-0.6c0.1,0.2,0.3,0.4,0.4,0.5c0.6,2.9-1.9,5.4-1.3,8.3c0.1,1.4,0.2,2.8-0.6,4.1
			c-2.1,2-2.6-1.5-4.3-1.3c0.2,3.1,4.8,1.7,4.8,4.9c0.4,3.2-1,4.2-4.3,4.2c-7.1,0.1-7.6,0-6.9-7.2C174.2,38.1,172.2,33.5,175,29.4z"
			/>
		<path class="st28" d="M58,35c-2.5-3.3-6.7-2.8-9.6-2.5c-4.2,0.4-7.8-0.8-11.6-1.6c13.6-2.8,27.4-1.8,41.2-1.8
			c0.8,0.8,1,1.8,0.8,2.8s-0.8,1.8-1.7,2.3c-4.5-0.7-8.8-3.7-13.7-1.6C61.5,33.1,60,34.6,58,35z"/>
		<path class="st29" d="M192.9,3.9c1.6,3.8,2.3,7.6-0.7,11.1c-1.6-0.4-4,0.7-4.6-2c0-0.3,0-0.5,0-0.8c0.9,4.2,1.1,8.4,0.8,12.6
			c-0.1,1.8,0.3,4.1-2.4,4.7c-0.1-0.2-0.1-0.5,0.1-0.7c0.1-8.5,0.1-17.1,0.2-25.6c0.2,0,0.5,0,0.7,0C188.9,3.2,191,2.6,192.9,3.9z"
			/>
		<path class="st30" d="M175,29.4c0,6.7,0,13.3,0,21.3c2.8-2.7,4.3-3.7,7.4-2.5c2.9,1.1,1-2.7,1.7-4.2c-0.6-0.7-0.6-1.3,0-2
			c0-1.7,0.1-3.3,0.1-5c0.6-1,0.3-3.3,2.5-1.6c1.2,2.7,0.5,5.6,0.7,8.5c-0.3,7.3-3.4,9.9-11.6,9.5c-3.5-2.1-3.5-5.6-3-8.8
			c0.7-4.2-0.2-8.2-0.5-12.2c-0.2-1.2-0.1-2.4,0.9-3.3C173.8,29.2,174.4,29.3,175,29.4z"/>
		<path class="st31" d="M78.1,32.2c0-1,0-2,0-3c6,0,12,0,18,0c-0.3,1.3-0.7,2.6-1,3.9c-0.4,0.3-0.8,0.4-1.3,0.3
			c-4.2-1.3-8.6-1.3-12.9-0.6C79.8,33,78.9,33,78.1,32.2z"/>
		<path class="st32" d="M14.1,41.1c-1.6,1-3.4,1.9-4.8,3.1C7.2,46.1,7,43.7,6,43C8.4,40.8,10.5,37.8,14.1,41.1z"/>
		<path class="st33" d="M173.2,29.1c0,1,0,2,0,3c-0.2,0.2-0.4,0.3-0.6,0.5c-1.6,0.7-3.1,0.3-4.5-0.6c-0.7-1-1.4-1.9-2.1-2.9
			C168.3,29.2,170.7,29.2,173.2,29.1z"/>
		<path class="st34" d="M2.2,99.9c2-2.7,0.3-5.8,1.2-9.1c2.8,4.2,1,9,2.5,13.1c1.2,3.2,1.5,6.7,2.4,10.1c0.2,0.7,0,2.7,1.9,1.6
			c0.5-0.1,0.9,0,1.3,0.3c1.5,1.8,2.2,4,3.4,6c1.5,3.5,3.8,6.6,5.8,9.9c1,1.5,1.9,3.1,1.8,5.1c-0.5,1.1-0.8,2.5-2.5,2
			C11,127.4,4.1,114.8,2.2,99.9z"/>
		<path class="st35" d="M20,139c0.8-0.7,1.6-1.4,2.4-2.2c0.7-0.1,1.4,0,1.9,0.5c5.3,5.3,11.2,9.7,17.5,13.7c0.4,0.3,0.5,0.8,0.6,1.3
			c-0.5,1.2-1.4,1.2-2.4,0.7C31.5,150.9,25.6,145.1,20,139z"/>
		<path class="st36" d="M64,157c-0.4,0.4-0.8,0.8-1.2,1.1c-5.5,0-10.9-0.7-16-3c0.2-0.9,0.7-1.5,1.6-1.8
			C53.7,154.3,59.3,153.8,64,157z"/>
		<path class="st37" d="M48,154c-0.4,0.4-0.8,0.8-1.2,1.1c-2.4-0.4-4.8-0.7-6.9-2.1c0.8-0.2,1.8-0.2,2.2-1.2
			C44.7,150.8,46.7,151.5,48,154z"/>
		<path class="st38" d="M48,154c-2-0.7-4-1.4-6-2.1c-8-3.2-13.7-9.3-19.7-15c-3-4.8-6.3-9.4-8.5-14.7c-0.2-2.3,0.7-3.8,3-4.5
			c3.5,2.4,4.6,6.4,6.5,9.8c4.1,7.1,9.7,12.5,16.6,16.8c7.4,3.6,15.1,5.8,23.3,6.9c40.1,1.7,80.2,1.4,120.3,1.1
			c0.8-0.3,1.7-0.4,2.5-0.3c1.3,0.1,2.3,0.9,3.2,1.7c1.1,0.9,2.2,1,3.5,0.4c0.9-0.1,2.1-1.3,2.3,0.7c-0.4,1.7-2.3,1.8-3.1,3
			c-42.6-0.3-85.3,1.3-127.9-0.9C58.6,156.4,53.3,155.5,48,154z"/>
		<path class="st39" d="M192.1,158.1c0.8,0.3,0.9,0.9,0.9,1.6c-31,0.1-61.9,0.1-92.9,0.2c1.7-1.7,3.8-0.9,5.7-0.9
			c27-0.1,54,0,81.1-0.1C188.6,158.9,190.5,159.4,192.1,158.1z"/>
		<path class="st40" d="M231.2,30.2c0.3,0.6,0.6,1.2,0.8,1.8c0.2,5-1.5,9.9-0.7,14.5c1.7-2.3,4.8,0.2,7.2-0.9
			c3.2,2.1,1.5,3.6-0.5,5.1c1.1,0.1,1.6-1,2.5-1.4c5.9-3,10.9,1.2,16.2,2.3c1.2,0.3,2.3,1.1,3.7,1.1c1,0,2,0,3.1,0
			c4.7,0.4,9.6-2.6,14.2,0.5c1.7,1.9,1.6,3.5-0.8,4.6c-1.4,0.6-2.4,1.5-3.2,2.9c-2.9,3.2-6,0.1-8.9,0.3c-1.4,0-2.4-2.8-4.2-0.4
			c-0.4,0.5-1.8-0.3-2.6-1c-3.6-3.7-3.6-3.7-14.8-5c1.1,1.9,3.3,3.7,1.1,5.8c-3.6,2.6-7.4-0.4-11,0.3c-2.7-1.8-5.7-3.3-7.7-6
			c-1.1-3.1-4-3.3-6.5-4.2c-0.3-0.4-0.5-0.8-0.5-1.3c0.5-1.7,1.3-2.8,3.4-2.4c0.6,0.1,0.1,0.5,0.4,0.1c0.4-0.6-0.7-0.1-0.8-0.5
			c-2.1-4.5-6.3-6.1-10.4-7.9c-2.4-2.2-4.8-4.4-5.2-7.9c6.9-0.1,13.8-0.2,20.7-0.3c2,1.8,1.2,4.3,1.3,6.5c0.1,2.3-0.1,4.6,0.7,7.3
			c-0.7-4.6-1.4-8.7,0.2-12.7C229.4,30.2,230.3,30.1,231.2,30.2z"/>
		<path class="st41" d="M205.9,30.3c2.1,2.2,3.2,5.2,6.1,6.7c1.1,2.5-0.9,2.8-2.4,3.4c-0.4,0.1-0.9,0.1-1.3,0
			c-2.8-0.4-4.3-1.6-3.2-4.7c-0.6,2.2-0.8,4.5-2.6,6.2c-2.3,1.3-1.4,3.2-1.2,5.1c0.2,1.6,1.2,3.5-1.2,4.5c-2.9-0.1-5.7-0.4-7-3.6
			c-0.7-4.9-0.3-9.9-0.3-14.8c0-1.3,0.3-2.6,1.5-3.5C198.1,29.9,202,30.1,205.9,30.3z"/>
		<path class="st42" d="M194.2,29.7c0,6.5-0.1,12.9-0.1,19.4c-0.5,0.3-1,0.4-1.6,0.3c-0.5-0.2-0.9-0.6-1.2-1.2
			c-1-3.3-0.5-6.8-0.6-10.2c0-2.8-0.1-5.6,0.1-8.5c0.4-1.9,0.4-4.1,3.1-4.4C193.9,26.8,194.1,28.3,194.2,29.7z"/>
		<path class="st43" d="M188.1,14.2c1.6-1.2,3-1.2,4,0.8c-0.1,2.3-0.1,4.6-0.2,6.9c-0.6,1.1-1.5,1.7-2.8,1.7
			C186.2,20.8,187.7,17.4,188.1,14.2z"/>
		<path class="st44" d="M190,23.1c0.2-1,1.1-1,1.9-1.2c1.3,0.7,2.3,1.6,1.9,3.3c-1.3,1-1.6,2.3-1.8,3.8c-1.3,1-2.6,1.2-4,0.3
			C187.4,26.8,186.5,24.3,190,23.1z"/>
		<path class="st45" d="M228.9,31.1c0,4.3,0,8.6,0,14.3c-2.7-5.7-1.6-10.6-2.2-15.3C227.4,30.4,228.1,30.7,228.9,31.1z"/>
		<path class="st46" d="M192.9,3.9c-2-0.1-4.2,1-6-0.7C189.1,1.7,191.2,0.7,192.9,3.9z"/>
		<path class="st47" d="M233,87c0-2.3,0-4.6,0-7c0.6-4.6-1.1-9.4,0.9-14c1.1-2,2.7-1.4,4.2-0.8c1.8,0.7,3.6,1.5,5.6,1.5
			c1.5,0,3,0.3,4.3-0.7c1.6-2-0.2-3.1-1-4.5c-0.1-0.2-0.2-0.4-0.3-0.6c0-0.5,0.1-0.9,0.4-1.3c0.6-0.4,1.3-0.5,2-0.5
			c0.5,0,0.9,0.1,1.4,0.2c1.1,0.3,2.5,0.4,3.2,1.2c2.6,3.4,5.8,2.4,9,1.3c4.7-1,9.4,0.5,14.2-0.2c5.7-0.8,11.5,0,17.3-0.3
			c6.4,0.7,12.9-0.3,19.3,0.2c4.2-0.3,8.4,0.6,12.6-0.4c2.6,0,5.2,0.7,7.9,0.5c4.6,0.4,9.2,1.2,13.8-0.4c2.8,0.3,5.6,0.7,8.4,0.2
			c4.3,0.7,8.7-0.4,13,0.5c2.5,1.1,5,0,7.5-0.2c7.9-1,15.7,0.9,23.5,0.9c7.3,0.3,14.7-1.1,21.9,1c1,0.4,1.9,0.9,2.8,1.6
			c3.5,3.1,4.5,7.2,4.1,11.7c0.3-1.4,0-3.3,2.2-2.9c2.5,0.4,2.2,2.4,2,4.3c2.9-1.5,2.5-4.6,3.5-6.9c1.8-4.7,4.3-9,8.5-12.1
			c0.7-0.3,1.5-0.5,2.3-0.6c24.6-1.8,49.3-0.4,73.9-0.6c8.4-0.1,16.8-0.3,25.1,1.4c0.5,0.4,0.7,0.8,0.3,1.4
			c-3.6,0.1-7.2,0.2-10.8,0.2c-2.1,1.2-4.5,1-6.8,1.2c-5.7,0.3-11.7-1.1-17.1,1.9c-0.8,0.4-1.6,0.3-2.3-0.3
			c-2.9-2.6-5.2-0.7-7.4,1.2c-0.7,0.2,0.6,0.6,0.1,0.2c-0.2-0.2,0-0.2,0.3-0.3c2.5-1.1,4.5,0.4,6.6,1.4c1.6,0.8,2.7,2.1,2.2,4
			s-1.9,2.6-3.9,2.2c1.1,0.8,2.3,0.8,3.1-0.3c1.1-1.5,2.5-2.6,4.1-1.2c1.5,1.4,1.5,3.2,0,4.9c-9.7,1.9-19.5,3.5-29.4,4.4
			c-6.4,0.6-12.9,1.3-19.3,1.5c-18.3,0.6-36.6,0.8-54.9,1.4c-55.1,1.7-110.1,0.5-165.2,1.1c-3.7,0-7.5-0.1-10.5,3
			C234.9,87.9,233.8,88,233,87z"/>
		<path class="st48" d="M514.9,75.9c-0.2-1.5,0.9-3.6-1-4.5s-1.5,1.8-2.5,2.3c-2.8,1.5-4.7-0.5-7.2-1.6c0.7-0.6,0.9-0.8,1.2-0.9
			c1.7-0.6,3.9,2.1,5.2-0.8c0.5-1.2,0-2.7-1.2-2.8c-2.5-0.3-4.7-4-7.6-0.9c-0.6,0.7-0.8,1.9-2.1,1.9c1.8-6.9,4.8-8.3,10.7-5.3
			c0.4,0.2,0.9,0.4,1.2,0.2c7.7-4.6,16.2-1.6,24.3-2.3c-0.3,1.1-2.3,1.7-1.2,2.9c1.9,2.2,3.4-1.2,5.5-0.6c-2.2,2.5,4.5,7.2-2.3,8.5
			C530.4,74.3,522.8,75.7,514.9,75.9z"/>
		<path class="st49" d="M546.9,60.1c-12.8-0.3-25.7-1.3-38.5-0.8c-10.8,0.4-21.5,0-32.3,0.2c-9.7,0.2-19.5,0.4-29.3,0.4
			c-2.5-0.8-4.5-1.8-5.1-5.1c-0.5-3.2-3.4-5.6-4.6-8.7c-0.1-5.8-5.4-3.8-8.4-5c-0.7,2.8-1.5,5.9-3.1,8.8c-0.8,1.1-1.8,1.9-3,2.5
			c-5.5,2.6-11.1,3.1-16.8,0.6c-0.1-0.7-0.3-1.3,0.8-1.2c-0.1-0.9-0.7-0.2-0.9-0.1c-5.7,1.1-11.5,0.4-17.3,0.7
			c-3.9,0.2-8,0.1-11.5,2.5c-4.2,1.1-8.4,0.3-12.5,0.5c-1.1,0-2.2,0-3.3-0.1c-3.1,0.1-6.2-1.4-9.3-0.4c-0.8,0.2-1.6,0.3-2.4,0.3
			c-6.5-0.7-13.1-0.7-19.6-0.3c-4,0.6-8-0.8-11.9-0.1c-5.4-1-11.1,1.5-16.4-0.9c-2.2-1.4-4.2-2.6-7.1-1.4c-1.5,0.6-4.5,1.6-4.9-2.1
			c-0.1-0.5-0.4-0.7-1.5-0.2c-7.6,3.6-15.4,1.7-23.1,1.1c-3-0.3-0.6,2.4-2,2.6c-1,0-2,0-3.1-0.1c-2.7-1.5-5.2-3.3-8.3-4.2
			c-3.5-1-5.4-4.2-7.1-7.6c0.3,3.9,0,7.3-4.6,8c-1.2,2.3-2.6,2.1-4.4,0.4c1.5-1.3,5.3-0.8,3.4-4.4c-1.7-3.5,0.2-6.2,2-9
			c4.3-4,9.7-2.8,14.7-2.9c16.7-0.2,33.5-0.3,50.2,0c5.3,0.1,10.6-0.5,15.8,0c11.9,1.2,23.9-0.9,35.7,0.1
			c13.1,1.1,26.1-0.3,39.2-0.2c14.5,0.1,29,1,43.6,1.3c7.6,0.2,15.1,1.7,22.7,0.8c3.2,1.7,7.7-0.2,10.2,3.7c0.2,0.3,1.3,0.2,1.9,0
			c6.5-2.3,13.2-1.7,19.8-0.6c2.4,0.4,6.7-0.2,5.5,4.8c0,0.1,0.1,0.3,0.2,0.4c1.5,2,5.9,2.9,3.6,6.4c-1.3,1.9-4.4,2.7-6.7,4
			c-0.3,0.1-0.4,0.5-0.6,0.7c8.7,1.1,17.4,1.9,26.3,1.2c-3.5-6.1-3.7-7.6,2.2-11.2c2.5-1.5,6.9-1.2,10.4,0.3
			c1.5,0.7,2.6,2.1,4.4,2.1c0.9,0,1.6,0.5,1.6,1.5c0,1.1-0.7,1.9-1.7,2.2c-1.3,0.4-2.8,1.2-3.8,0.8c-4.2-1.9-4.7,1.1-5.6,4.3
			c8.3,0.4,16.4,0.7,24.5,1.1c1.9,0.1,4-0.7,5.7,0.9c-0.3,0.5-0.8,0.8-1.4,0.9C555.3,60.2,551.1,60,546.9,60.1z"/>
		<path class="st10" d="M559.9,59.1c0.3-0.1,0.7-0.1,1-0.2c3.3,0,6.7,0,10,0c0.6,0.1,1.3,0.2,1.9,0.3
			C569.9,61.1,562.7,61.1,559.9,59.1z"/>
		<path class="st50" d="M241,37.1c-0.7,3-1.4,6-2,9c-1.6,0.5-2.8,1.9-5,0.8c-3.4-1.6-0.8,3.9-4.1,3.5c0.6-6-0.8-12.4,2.1-18.3
			c2,2.7,0.6,5.7,0.9,8.6c0.2,1.6,0.6,3.2,2.1,3.6c2.2,0.4,1.8-1.8,2.3-3c0.9-2.3,1.2-4.7,0.7-7.2C240.3,33.8,241.2,34.9,241,37.1z"
			/>
		<path class="st48" d="M559.9,59.1c4.3,1.5,8.7,1.4,13,0.1c0.7,0,1.3,0,2,0c0.3,0.6,0.7,1.2,1,1.8c-1.6,0.8-3.3,1-5,0.1
			c-8-0.1-16.1-0.1-24.1-0.2c0-0.3,0.1-0.6,0.1-0.8C551.1,58,555.6,59.5,559.9,59.1z"/>
		<path class="st51" d="M571,61.1c1.7,0,3.3-0.1,5-0.1c-3.3,2-6.7,3.9-10.3,6.1C565.2,62.6,570.7,64.3,571,61.1z"/>
		<path class="st52" d="M209,73c-1.5-0.7-2.5-1.8-3.3-3.2c-1.3-0.2-3.3,0.3-2.8-2.2c3.9-2.7,8.2-3.9,12.9-2.7
			c1.1,0.5,2.1,1.2,2.6,2.3c0.2,1.4,0.8,2.7,1.6,3.9c-0.5,1.7-3.1,1.9-3,4.1c-0.8,1.3-0.7,3.5-3,3.4c-1.9-0.1-2.1-1.6-2.4-3.2
			C211.3,74.1,210,73.7,209,73z"/>
		<path class="st53" d="M209,73c1.4,0,3.3,0.7,3.4,1.5c0.8,7,3,1.1,4.6,0.6c0.6,1.3,1.2,2.6,1.8,4c-0.8,1.6-4-1.5-3.8,1.9
			c-1,0.6-2,0.5-3.1,0.1c-1.2-1.6-5.3-2.2-1.6-5.4C211.3,75,209,74.2,209,73z"/>
		<path class="st54" d="M220,71.1c-1.8-0.2-3.1-0.8-1.9-3c0.4-0.9,1-1.5,1.9-1.7c3-1,6.1-1.5,9.1-2.3c1.8-0.1,1.5,0.9,1,1.9
			C226.2,66.8,224.6,71.8,220,71.1z"/>
		<path class="st55" d="M203.1,68.2c0.9,0.5,1.8,1.1,2.6,1.6c-1,1-2.1,1.6-2.9,3c-1.3,2.4-1.7,0.4-2-0.8c0.1-1,0.1-2,0.2-3.1
			C201.3,67.2,202.1,67.4,203.1,68.2z"/>
		<path class="st56" d="M203.1,68.2c-0.8-0.1-1.6-0.1-2.1,0.7c-2.5,0.3-4.8,1.1-7,2.2c-0.3-0.4-0.5-0.8-0.5-1.3
			c2.3-4.2,7.2-3.5,10.7-5.6c0.4-0.2,0.9-0.3,1.4-0.5c3.3-1.3,6.8-1.6,10.4-1.8c1.3,1.4,1.3,2.7,0.1,4.1
			C211.3,64.3,207.4,67.3,203.1,68.2z"/>
		<path class="st57" d="M194,70.1c0,0.3,0,0.6,0,0.9c0.3,1,0.7,2-1,2c-0.5,0.4-0.7,1.1-1.3,1.5c-0.4,0.2-0.9,0.3-1.3,0.3
			c-1.5-0.1-2.8-0.7-3.9-1.6c-0.8-0.7-1.2-1.6-1.2-2.7c1.4-3.8,4.4-1.3,6.7-1.7C192.8,69.1,193.5,69.5,194,70.1z"/>
		<path class="st58" d="M191.9,74.3c0.4-0.4,0.8-0.8,1.1-1.2c0.1,2.6,0.1,5.3,0.2,7.9c-0.1,2-0.3,4-0.4,6c-0.6,0.3-1.1,0.2-1.4-0.4
			c-0.9-1.5-0.7-3.3-0.8-4.9C190.8,79.1,190.1,76.5,191.9,74.3z"/>
		<path class="st59" d="M192.1,87c0.3,0,0.5,0,0.8,0c0,2.7,0,5.4,0,8.1c-1,5.9,0.5,12-0.8,18c-2.3-0.9-2.1-2.7-2.5-4.2
			c-0.4-1.9-3.2,0.3-3.4-1.9c-0.6-4.2-1-8.4,2.9-11.5c1.2-0.9,0.5-2.1,0.6-3.1C189.9,90.3,189.6,88,192.1,87z"/>
		<path class="st58" d="M190,107c1.8,1.2,0.2,3.5,1.7,5.2c1.1-5.9-0.8-11.6,1.1-17.1c0,9.3,0,18.6,0,27.9c-0.6,0.3-1.1,0.2-1.7-0.2
			C187.2,117.7,187.9,112.4,190,107z"/>
		<path class="st60" d="M192,122.9c0.3,0,0.6,0,0.8,0c0.3,6.4-0.5,12.8,1.2,19.1c0,1.3,0,2.5,0,3.8c-3.3,1.2-3.1-1.5-3.2-3.2
			c-0.2-3.1-0.7-6.1-1.6-9c-0.4-2-1.1-4-0.9-6.1C189,125.6,190.3,124.1,192,122.9z"/>
		<path class="st61" d="M244.1,67.9c-3.8,1.4-6.4-3.4-10.2-1.9c-2.2-0.5-1.5-3-2.7-4.1c-0.5-1.8,0.8-1.8,2-1.9
			c3.7-2.1,7.3,1.2,10.9,0.1c1.3-0.7,2.3-0.5,3.1,0.8l0,0c0.4,0.9-0.2,1.8,0.2,2.7C246.5,65.3,244.9,66.3,244.1,67.9z"/>
		<path class="st62" d="M233.1,60.1c-0.7,0.6-1.3,1.3-2,1.9c-1.3,0.1-2.1,0.7-2.1,2.1c-2.5,2.6-5.8,2.8-9,3c-0.5-1,0-1.8,0.5-2.6
			c0.7-1.1,1.7-1.8,3.1-1.8c2.1,0,2.5-1.5,2.8-3.1c-0.6-2.2-3.7,0.3-4.1-2.2c-0.4-1.3-0.3-2.6,0.7-3.6c1.1-0.5,2.1-0.5,3,0.5
			C228.2,56.4,231.6,57.1,233.1,60.1z"/>
		<path class="st63" d="M190.1,132.8c1.6,3,1.6,6.3,1.7,9.6c0,1.5-0.7,3.6,2.1,3.4c-2,3.3,1.3,5,2.2,7.5c-0.1,0.7-0.3,1.3-1.1,1.5
			c-0.8-1-1.3,0.2-2,0.3c-1.3-1-2.7-1.1-4.1-0.1c-0.7-0.8-1.4-1.5-2.1-2.3c2.2-4.6,1.6-9.5,1.7-14.4
			C188.7,136.4,188.4,134.3,190.1,132.8z"/>
		<path class="st64" d="M23.1,78c2.4-3.8,0.6-7.7,0.3-11.6c-0.2-2.1-0.5-4,2.6-4c4.4,0,3.9-2,1.3-4.8c2.2-0.6,4.1-1.2,5.9-1.5
			c1.3-0.2,3.4-0.5,3.7,0.7c1.2,5.5,5.4,2.6,8.2,3.3c1.2,2.1-2.4,5.3,0.6,6.5c2.5,1,2.8-3,4.8-4c0.1-0.1,0.3-0.1,0.4-0.2
			c0.3-0.1,0.8-0.2,0.9,0c2.5,3.2,5.1,5.3,9.2,2.2c0.4-0.3,1.1,0.5,1.3,1.1c-0.2,1.5-1.2,2.7-1.9,3.9c-1.5,2.7-1.1,4.7,2.2,5.5
			c4.5,1.4,9.1,2.6,13.9,1.4c2.5-0.1,4.4-2,6.7-2.6c2.7-0.4,5.5-1.7,7.9,0.8c1.1,4.2-2.1,6.1-5,6.2c-4.7,0.2-8.6,1.9-12.4,4.1
			c-6-0.6-11.9-1.7-17.5-3.9c-0.9-0.5-1.7-1-2.5-1.5c-4.8-3.1-8.8-7.3-14.7-8.8c-5.6-1.4-7.9-0.9-11.6,3.7
			C26.3,76.1,25.7,78.4,23.1,78z"/>
		<path class="st65" d="M51.1,63c-0.4,0.9-0.7,1.8-1.4,2.5c-1.3,1.5-2.4,4.3-4.9,2.9c-2-1.1-2.2-3.5-1-5.7c0.5-0.9,0.9-1.8,1.3-2.7
			c4.3-8.3,8.6-16.7,13-25c1.1-2,2.6-3.2,5-3c3.2,0.6,6,5.5,3.9,7.3c-6.7,5.9-8.3,14.9-13.8,21.5C52.5,61.6,51.7,62.3,51.1,63z"/>
		<path class="st66" d="M23.1,78c3.1-2.2,3.9-6.5,7.7-8.2c2.3-1,4.3-1.5,7-0.7c6.4,1.9,11.7,5.1,16.4,9.7c-1.8,1.6-3.8,0.2-5.6,0.2
			c-0.5-0.1-0.9-0.3-1.3-0.6c-1.4-1.3-1.5-4.1-4.3-3.7c-2-0.3-4,0.5-5.9-0.4c-3.8-2.3-5.5-1.7-9.2,2.8c-1.6,2-2.2,5.4-5.9,4.8
			c-0.3-0.7-0.3-1.4,0.3-2C22.1,79.2,22.3,78.4,23.1,78z"/>
		<path class="st67" d="M12.1,74c0.8-1,1.5-2.1,2.5-3.4c1.3,3.9-0.5,7.7,1.1,11.2c0.7,1.7,0.3,3.4,0.2,5.2c-0.3,0.4-0.8,0.5-1.2,0.6
			c-0.5-0.1-0.8-0.4-1.1-0.8C12.6,82.6,10,78.6,12.1,74z"/>
		<path class="st66" d="M17,92.7c0-0.9,0.1-1.8,0.1-2.7c2.4-1.4,1.3-5.8,5.1-6.1c0.4,0.4,0.6,0.8,0.8,1.3c0.3,2.8,0.4,5.6-0.9,8.2
			c-0.9,0.6-2,0.8-3.1,0.7C18.2,93.9,17.4,93.5,17,92.7z"/>
		<path class="st68" d="M17,92.7c0.7,0.1,1.4,0.2,2.1,0.4c-1.7,2.8-1,6.6-3.5,9.2c-0.6-0.1-1.1-0.4-1.3-1c-0.7-4.8-1.7-9.7,0.8-14.3
			c0.3,0,0.5,0,0.8-0.1C16.5,88.8,15.1,91.1,17,92.7z"/>
		<path class="st64" d="M22.1,84c-2.7,1.2-1.9,5.1-4.9,6c1.7-3.3,1.5-7.6,4.9-10c0,0.7,0,1.3,0,2C22.7,82.7,22.6,83.3,22.1,84z"/>
		<path class="st69" d="M12.1,74c0.8,0.5,1.2,1.2,0.8,2.1c-0.9,2.3-1.6,4.3,1.1,6.2c1.4,1-0.5,3.1,0.1,4.7c0.6,1.1,0.3,2.3,0.3,3.5
			c-2.8,3.4-4.9-0.9-7.4-0.6c-1.8-5.8-0.5-11.4,0.9-17C9.6,72.4,10.4,75.1,12.1,74z"/>
		<path class="st70" d="M7.1,90c1.2,0.1,2.8-4.1,3.7,0.4c0.2,1,2.1,0.4,3.2,0.5c1.3,3.1,0.4,6.4,0.5,9.6c-3.2,1.9-1.7-2.9-3.6-2.3
			c0.9,1.2,1.3,2.8-0.8,3.9c-0.9-0.4-1.6,0.1-2,0.8C6,98.8,7.4,94.3,7.1,90z"/>
		<path class="st71" d="M11.1,116c-0.3-0.1-0.5-0.2-0.8-0.3c-0.1-2.9-1.7-5.6-1.3-8.5c0.4-2.8,2.7-0.2,3.7-1.4
			c1.6,3.1,3,6.2,2.4,9.8C13.9,116.8,12.6,117.1,11.1,116z"/>
		<path class="st72" d="M12.1,106c0,3.2-2.7-0.8-3.1,1.2c-1-1.2-0.6-2.8-0.9-4.1c0.4-0.4-0.5-1.8,1-1.2c1,1.2,2.4,2,2.9,3.5
			C12.1,105.5,12.1,105.7,12.1,106z"/>
		<path class="st73" d="M51.1,63c4.7-7.8,7.3-16.8,14-23.4c1.6-1.6,0.6-5.2-2.1-7.6c3.5-2.1,10-1.1,14,2c0.6,2.8-1.8,4.5-2.5,6.8
			c-0.5,1.8-2.3,4.1,0.4,5.1c2,0.8,3.1-1.4,3.8-3.1c1.4-3.2,2.9-6.4,4.2-9.6c0.3-0.8,0.8-1.4,1.8-1.5c3,1.2,6.4-0.5,9.3,1.3
			c0.3,0,0.7,0,1,0.1c0.3,0.3,0.7,0.6,1,0.9c0.9,2.2-0.6,3.8-1.4,5.5c-3.9,8.4-8.4,16.4-12.5,24.7c-2.2,4.4-4.6,8.7-5.1,13.7
			c-5.2,1-10.3,0.6-15-2c-0.7-1.9,1-2.9,1.8-4.2c1.6-2.6,1.7-4.8-1.8-5.8c-1.5-1.7-2.4-0.1-3.1,0.7c-2.9,3.2-4.8,2.3-5.8-1.4
			C52.8,64,52.5,63.1,51.1,63z"/>
		<path class="st74" d="M137,32.1c0.4,0,0.7,0,1.1,0c2.7,1.3,7.3-0.1,7,5.2c-0.2,2.1-1.1,4-1.9,6c-0.4,0.9-0.7,1.9,0.2,2.7
			c1,0.9,2.1,0.5,3.1-0.1c1.3-0.9,2.3-2.4,4-2.8c5.7-1.1,9.3,3.2,13.8,5.2c0.1,2.9-1.3,4.8-3.8,6c-3.3-1.5-5.7-0.6-7.1,2.8
			c-1.4,3.4-3.7,6.3-4.6,9.9c-2.1,3.4-0.9,5.9,2.1,8c2.3,1.6,4.9,2.9,4,6.4c-2.2,1.2-4.4,0.5-6.5-0.3c-4.7-1.9-9.8-3.2-12.6-8
			c-0.7-1.3-0.4-2.5,0.1-3.8c1.3-3.2-0.2-4.2-3.2-3.9c-2.5,0.9-4.2,3.4-7.5,2.9c-2.3-0.3-2.3,2.2-1.9,4.1c0.3,1.2,1.8,2.5,0.5,3.6
			c-1.5,1.2-3.1,0.2-4.6-0.5c-0.8-0.4-1.3-1-1.7-1.7c-0.6-2,0.3-3.6,1.2-5.2C125.4,56.7,131.2,44.4,137,32.1z"/>
		<path class="st75" d="M91.1,75c-2.7-1.3-5.3,0.2-8,0c-1.5-2.1,0-3.8,0.9-5.5c5.2-9.6,9.7-19.5,15.1-29c1.5-2.7,1.7-6.1,4-8.4V32
			c2.2-1.8,4.7-0.4,7.1-0.9c1.5-0.2,2.8,0.3,4,1.1c1,1.2,0.6,2.6,0,3.7c-6,11.3-11,23.2-17.9,34.1c-2.5,0.6-2.4,3.7-4.5,4.8
			C91.5,74.8,91.3,74.9,91.1,75z"/>
		<path class="st76" d="M95.1,70.1c6.7-12.4,13.5-24.8,19-37.9c1.9-0.3,3.9-0.7,5.8-1c1,0.4,1.8,1,1.9,2.2c0.1,2.6-1.3,4.8-2.4,7
			c-6.8,12.7-12.5,25.9-19.9,38.3c-1.7,1.8-3.5,3.8-6.2,2.6c-2.3-1-2-3.4-1.7-5.6C92.6,73.7,93.8,71.8,95.1,70.1z"/>
		<path class="st77" d="M137,32.1c0.1,7.6-5.6,12.8-8,19.4c-2.8,7.9-8.7,14.3-11,22.4c0,3.1-1.7,5.4-4.1,6.9
			c-2.3,1.5-4.7,1.8-5.9-1.5c-0.2-1.1-0.1-2.1,0.2-3.1c6.6-13.1,12.3-26.6,19.6-39.3c0.5-0.9,1.3-1.5,2.2-1.9
			C131.5,32,134.1,31.9,137,32.1z"/>
		<path class="st78" d="M103,32.1c-0.6,6.7-4.8,12-7.5,17.9c-3.9,8.4-9.2,16.2-12.5,25c-1.9,1.1-3.5,2.9-6,3
			c-2.7-4.7,1-8.2,2.7-11.8C84.8,55.4,90.5,44.8,96,34.1C97.7,30.9,100.6,32.4,103,32.1z"/>
		<path class="st79" d="M164,49c-5-0.6-8.3-6.2-14-5c-1.5-4.5,1.5-7.2,4-10c2.5-0.9,4.8-2.3,7.7-0.2c2.8,2,3.4,4,2,7.2
			c3.2,0,6.2,0,9.2,0c1.1,1,0.4,2.3,0.6,3.4c-0.3,2-2.8,2.2-3.5,3.9c0.7,1.7,3-0.9,3.5,1.3c-0.7,4.4-4.1,3.9-7.1,3.9
			C164.7,52.5,163.7,51.1,164,49z"/>
		<path class="st80" d="M166.1,53.1c2.2-1.4,6.4,0.3,6.9-4.1c-1.2-1.3-0.9-2.6,0-3.9c0-1.4,0-2.8,0-4.1c0-0.3,0-0.7-0.1-1
			c-1-2.7-2.5-5.3,0.2-7.9l0.1,0.1c1.8,4.7,0.5,9.6,0.8,14.4c0.1,2.4,0.4,4.5,2,6.3c-0.6,1.3-1.8,1.9-3,2.2c-3.9,1-5.3,3.4-4.5,7.3
			c1.5,3.1,5.7,2.1,7.4,4.9c1.1,3.9,0.3,7.8,0.4,11.7c0,4.1,0.5,8.2,0.4,12.2c-0.2,0.6-0.6,1-1.2,1.2c-4.1-1.1-2.4-4.6-2.9-7.1
			c0-3-0.2-5.9-0.8-8.8c-0.3-1.9,0.1-3.9-0.5-5.8c-0.2-0.3-0.4-0.8-0.6-0.7c-7.3,2.3-7.8-3.8-10-7.9c-0.5-2.3-0.3-4.7,0.7-6.8
			C162.3,53.4,163.6,51.8,166.1,53.1z"/>
		<path class="st81" d="M154.1,34c-0.6,3.6-3.8,6.2-4,10c-1,1.1-1.8,2.4-2.9,3.2c-1.5,1.2-3.4,1.3-5,0c-1.5-1.2-1.4-2.9-0.4-4.4
			c1.2-1.8,1.8-3.8,2.2-5.9c0.6-0.5,0.3-1.5,1-1.9C147.9,33.5,150.4,29.1,154.1,34z"/>
		<path class="st31" d="M130,35c-0.3,0.7-0.6,1.3-1,2c-3-0.6-6-1.2-7.9-4c-0.4-0.6-0.8-1.2-1.2-1.9c3.6-1.3,7.3-0.3,10.9-1.1
			C132.3,32.1,127.6,32.9,130,35z"/>
		<path class="st82" d="M173.1,32.1c-0.1,2.6-0.1,5.3-0.2,7.9c-4.9-0.6-3.6-5.1-4.8-7.9C169.7,32.1,171.4,32.1,173.1,32.1z"/>
		<path class="st31" d="M145.1,35.2c0,0.8-0.2,1.5-1,1.9c-0.9-3.1-0.8-2.8-3.3-2.1c-2.1,0.6-2.4-1.3-2.7-2.9c1.3-0.3,2.5-0.8,3.8-1
			C145.3,30.5,146.3,32,145.1,35.2z"/>
		<path class="st31" d="M110.1,31.1c-2.2,1.8-4.7,0.6-7.1,0.9C105,28.5,107.6,30.3,110.1,31.1z"/>
		<path class="st83" d="M190,23.1c-2.3,1.5-2.1,3.8-1.8,6.1c1.8,2.3,1.2,5.1,1.3,7.7c-0.2,2.2,0.2,4.6-0.8,6.7
			c-0.2,0.5-0.6,0.8-1.2,0.8c-2.2-2.8-0.4-6-1-9c-0.1-0.6-0.1-1.1-0.1-0.4c0,0-0.3,0-0.5,0.1c-0.6,0.7-1.2,1.4-1.9,2.1
			c-0.9-2.9,1.4-5.1,1.8-7.7c2.2-4.2,0.6-8.7,1-13.1c0.2-2.8,0-5.6,0-9.2c1.6,2.8,0.8,5.1,1.2,7.1c0,2.3,0,4.6,0,6.8
			C188,22.5,188.5,23.3,190,23.1z"/>
		<path class="st83" d="M184,42.1c0,0.7,0,1.3,0,2c-6-0.6-6-0.6-4-6.5C182.1,38.6,181.9,41.5,184,42.1z"/>
		<path class="st84" d="M84.1,32.1c-0.4,4.9-3.3,8.8-5,13.1c-0.7,2-3.1,3.9-5.6,2.3c-2.2-1.4-1.7-3.8-0.7-5.7
			c1.3-2.6,2.8-5.2,4.3-7.7c0.3-0.6,0.7-1.2,1-1.8c1-0.1,2-0.1,3-0.2C82.1,31.4,83.1,31.4,84.1,32.1z"/>
		<path class="st85" d="M186.9,43.9c0.3,0,0.7,0,1,0.1c1.8,1.8,0.5,3.5,0.1,5.3c1.2-0.1,2.6-0.6,4.1-0.2c0.4,0,0.8,0.1,1.1,0.1
			c1.4,1.4,4.7,1.1,3.9,4.5c3.9,3.5,3.8,5.4-0.6,9.1c-1.8,0.6-3.2-1.1-5-0.9c-3,0.2-4.9-0.9-4.8-4.2c0.2-1.3,3.4-0.5,2-3.1
			c-0.8-1.5,0.7-2.3,1.6-2.7c-0.8,0.7-3.4,0.4-2,3.3c0.5,1-1,1.6-2,1.8c-3.2,0.6-3.7,2.9-3.8,5.5c0.1,1.7,0.9,3.5-0.7,4.9
			c-5.1-0.7-10.3-1.4-14.8-4.2c-0.5-6.9-0.5-6.9,8.9-10.2c1.4-0.4,2.9-0.8,4.3-1c4.6-0.7,6.7-3.2,5.7-7.9
			C186.3,43.6,186.6,43.6,186.9,43.9z"/>
		<path class="st86" d="M186.9,43.9l-0.4,0.1H186c0-3,0-6,0-9c0.1-0.6,0.2-1.3,0.2-1.9c0.2,0,0.5,0,0.7,0
			C186.9,36.7,186.9,40.3,186.9,43.9z"/>
		<path class="st28" d="M84.1,32.1c-1,0-2,0-3-0.1c4.5-1.2,8.9-2,13,1.1C90.7,32.8,87.3,33.8,84.1,32.1z"/>
		<path class="st87" d="M11.1,116c1.4,0.2,2.7-0.2,3.9-0.9c0.3-0.4,0.8-0.5,1.2-0.2c0.8,0.9,1.5,1.9,0.8,3.2c-1,1.4-2.1,2.8-3.1,4.2
			C12.4,120.4,11.6,118.2,11.1,116z"/>
		<path class="st88" d="M185.1,153c-1.3,1.5-3.1,0.9-4.7,0.9c-28.1,0-56.2,0-84.3-0.2c-10-0.1-19.9-0.5-29.9-0.8
			c-1.5,0-3,0.1-4.3-0.9c0.6-1.2,1.7-1.8,3-2.1c7.1-1.2,14.3-0.1,21.3,0.1c29.9,0.8,59.7,0,89.6,0.4c2.5,0,5-0.2,7.4,0.6
			C184.2,151.3,184.8,152,185.1,153z"/>
		<path class="st89" d="M17,118c-0.4-1-0.7-1.9-1.1-2.9c-0.7-2.8-1.1-5.7-1.6-8.6c-0.3-1.7-0.6-3.2,0.8-4.5c0.4,0,0.8,0,1.1,0
			c2.1,0.4,1.8,2.1,2,3.5c2.1,14.3,8.2,26.3,19.6,35.5c1,0.8,2.1,1.6,2.5,3c-0.1,0.9-0.3,1.5-1.4,1.1c-7.5-4.3-13-10.4-17.1-17.9
			C20.2,124.1,18.6,121,17,118z"/>
		<path class="st90" d="M185.1,153c-0.4-0.4-0.9-0.8-1.3-1.3c-0.3-1.8,0.7-3,1.7-4.3c1-1.5,0.9-3,0.6-4.8c-0.8-4.9-0.4-9.9-0.4-14.9
			c0-1.5,0.1-3,1.6-4c2,0.3,1.6,1.8,1.6,3.2c0.4,1.9,0.8,3.9,1.3,5.8c-0.1,3.7-0.4,7.5-0.1,11.2c0.4,3.6-0.5,6.3-3.1,8.6
			C186.3,152.8,185.7,152.9,185.1,153z"/>
		<path class="st91" d="M39,145c0.4-0.4,0.7-0.7,1.1-1.1c0.5-0.4,1.2-0.8,1.8-0.5c7.2,3.2,15,4.3,22.1,7.6c-0.7,0.3-1.4,0.7-2.1,1
			C53.7,151.5,46.1,149,39,145z"/>
		<path class="st92" d="M189,155c0-1.3,0.2-2.8,1.8-2.9c2-0.1,2,1.7,2.3,3C191.7,156.5,190.4,156.3,189,155z"/>
		<path class="st93" d="M221.2,64.8c-0.4,0.8-0.8,1.5-1.2,2.3c-0.6,0.3-1.3,0.7-1.9,1c-0.4-1-1.1-1.7-2.1-2.1
			c-0.1-1.4,0.4-2.9-0.8-4.1c-1.2-1.6-1-3.8-2.5-5.2c-3.2-2-6.2-4.5-10.4-4c-0.8,0.1-1.6-0.5-1.2-1.6c-1.3-2.7-1.2-5.7-1.2-8.5
			c0-2.5,1.5-0.3,2.3-0.5c2-0.8,4.2-0.1,6.2-0.7c2.8,0.7,4.7,3.1,7.9,3.3c2,0.1,3.3,1.9,2.8,4.4c0,0.2-0.1,0.5-0.1,0.7
			c0.8,1.7,4.1,1.5,3.5,4.4c0,1.6-2.3,3.6,0.9,4.6c0.2,0.4,0.4,0.8,0.4,1.3C223.5,62,221.2,62.8,221.2,64.8z"/>
		<path class="st94" d="M263,54c-0.3-0.8-0.4-1.6-0.9-2.3c-0.7-1-1.4-2-0.1-3c1.2-0.9,1.7,0.1,2.3,0.9c0.9,1.2,2.2,1.5,3.5,1.3
			c7.5-0.7,15.3,1.3,22.4-2.6c0.4-0.2,0.9-0.2,1.6-0.3c0.9,1.7-1.7,1.7-1.4,3.3c3.1,2.2,7.9-4.3,10.4,1.6c-1.2,2.5-3.5,1.9-5.6,2
			c-5.3,0.2-10.5-0.8-15.8-0.4c-0.6,0-1.1-0.2-1.5-0.5C273.1,51.6,268,54.6,263,54z"/>
		<path class="st95" d="M294.2,62.3c-5.8,1-11.7,0.3-17.5,0.7c-4.9,0.3-9.7-0.7-14.6,0.2c-1.9,0.1-1.2-0.9-0.6-1.6
			c0.8-1.1,2.4-0.7,3.4-1.4c1.2-0.5,2.1-1.1,3.5,0.1c1.4,1.2,3.3,1.3,4.7-0.4c2-1.5,5.1-0.8,6.8-3.1c2.6,1.6,6.2,0,8.5,2.5
			c1.1,2,3.5,1.1,5,2.1C293.7,61.5,294,61.8,294.2,62.3z"/>
		<path class="st94" d="M240,50.1c2.5-1.8,4-3.9,2.8-7.1c-0.6-1.5-0.1-2.8,1.4-3.2c1.6-0.5,1.7,1.2,2,2.2c1.7,5.8,6.9,7.4,11.5,9.4
			c1.4,0.6,2.3,1,2.3,2.5c-3.7-2.1-8.3-1.5-11.8-4.1C245.4,47.7,242.8,50.8,240,50.1z"/>
		<path class="st96" d="M247,61c-1-0.3-2-0.6-3.1-0.8c1.9-3.7-3.5-3.6-3.3-7.1c5.9,0.5,11.8,0.2,16.9,3.9c0.4,0.3,0.2,1.5,0.2,2.3
			c-2.4,3-5.3,0.8-7.9,0.9c-0.3,0-0.6-0.1-0.9-0.2c0-2,1.3-1.7,2.8-1.6c-2.5-1.4-3.6,0.3-4.7,1.9C247.1,60.5,247.1,60.8,247,61z"/>
		<path class="st97" d="M249.9,60.2c2.6-0.4,5.4,0.4,7.9-0.9c2.3,0.7,4.8-0.7,7,0.8c-0.3,1.6-3.4,0.6-2.8,3c-3,0.3-6.6,4.2-8.7-1.5
			C253.1,60.8,251.1,60.6,249.9,60.2z"/>
		<path class="st98" d="M219,49c-1.1-2.6-2.8-4.8-5.9-3.8c-3.3,1.1-2.4-3.8-5.1-3.2c-0.5-0.7-0.6-1.4,0-2.1c0.3,0,0.7-0.1,1-0.1
			c5.8-1.1,9,3.3,12.9,6.1c0.7,0.1,1.5,0.2,2.5,0.3C222.9,48.4,219.9,46.5,219,49z"/>
		<path class="st99" d="M221.9,46c-5-0.6-7.8-5.7-12.9-6.1c0.8-1.1,3.1-0.7,3-2.8c0.6,0.6,1.2,1.7,1.6,1.6
			C219.2,38,220.3,42.3,221.9,46z"/>
		<path class="st98" d="M222,54.1c-1.3,0.1-0.3-3.6-2.8-1.8c-1.2,0.8-2.5,0.6-2.7-0.7c-0.2-1.3,1.4-1.5,2.4-1.9
			c3.8-0.8,6.1,0.7,7.1,4.4c-1,0-2,0-2.9,0C222.7,54,222.3,54,222,54.1z"/>
		<path class="st100" d="M280,57c-0.8,4.7-4.2,2.9-7,2.8c0.4-1.7,1-3.3,3.1-3.1c2.3,0.2,1.8-1.4,1.9-2.6c0.3-0.1,0.6-0.1,0.9-0.1
			C280.4,54.7,280.9,55.6,280,57z"/>
		<path class="st101" d="M201,51c5-0.1,9.1,2.1,12.9,5c-3.8,2.7-7.8,3.3-12.2,1.9c-1.8-1.4-2.9-3.8-5.7-3.9c1.3-3-2.4-2.9-2.9-4.8
			c0.3,0,0.6,0,0.8,0C196.4,49.7,198.7,50.4,201,51z"/>
		<path class="st102" d="M208,40c0,0.7,0,1.4,0,2.1c-2,1.9-3.9,1-5.9,0c0.9-3.1,2.2-6.1,2.1-10.2c2.3,1.8,1.7,3.2,1.7,4.3
			c0,0.4,1.5,1.6,1.8,1.9C208.1,38.5,207.9,39.3,208,40z"/>
		<path class="st103" d="M192.1,49c-5,2-5,2-4.1-5c0.1-2.3,0.2-4.6,0.3-7c1.5-0.6,2.6,0,3.7,1C192,41.7,192,45.3,192.1,49z"/>
		<path class="st104" d="M191.9,38c-1.4,0.2-2.6-0.1-3.7-1c0-2.6,0-5.2,0-7.9c1.3,0,2.6,0,3.8-0.1C192,32,192,35,191.9,38z"/>
		<path class="st105" d="M399.7,63.8c-7.8-0.4-15.5-0.9-23.3-1.3c-2.9-2.8-6.7-1.1-9.9-2c-1.8-0.7-2.8-2-2-3.9
			c0.9-2,3.3-2.4,4.7-1.9c4.9,2,9.8-0.2,14.6,0.3c1.7,0.2,3.6,0.2,4.7-1.8c2.4-0.8,4.8-1.6,7.4-1.3c6,0.8,11.9,2.2,18,2.3
			c3.7,0.1,2.5,3.3,1.7,5.7c-0.6,0.5-1.2,0.8-2,0.7c-2.1,0.1-3.7-4.6-6.2-0.7c-2,1.1-3.8,2.6-6.3,2.5c-1.9-0.9-3.9-1.4-6.6-1.4
			c2,1.1,3.9,0.4,5.3,1.5c0.3,0.3,0.3,0.5,0.2,0.8C399.9,63.7,399.8,63.8,399.7,63.8z"/>
		<path class="st106" d="M438.1,45.9c1.6,3.7,5.5,6.3,5.4,11c0,1.6,3.1,1,3.4,3c-0.6,0.1-1.2,0.2-1.8,0.2c-2.1,1.6-4.4,1.5-6.8,0.6
			c-3.9-1.7-8.1-1.6-12.2-1.3c-0.5,0-0.9-0.2-1.3-0.4c-0.9-1-0.9-2.5-1.8-3.6c-1.2-1.5-2.5-3,0.2-4.4c0.6-0.7,1.3-1.4,1.9-2.1
			c2.6-0.9,4.4,1.9,7.2,1.5c2.1-0.3,4,0.2,3.6-2.9C435.6,46,436.2,45.1,438.1,45.9z"/>
		<path class="st107" d="M388,54.1c-0.2,0.7,2.1,2.2-0.6,2.2c-4.3-0.1-8.5-0.4-12.6,1.3c-1.8,0.7-2.7-1.5-4.3-1.9
			c-2-0.4-3.8-0.1-5,1.2c-1.1,1.2,0.2,2.4,1.3,3.2c2.3-0.2,3,0.9,2.2,3c-4.3-1-8.8,1.1-13-1c-0.1-0.2-0.3-0.4-0.4-0.5
			c-0.2-0.7-0.1-1.4,0.4-2c3.8-0.1,4.4-4.9,8-5.4c4.7,0,9.4-0.1,14.1-0.1C381.3,53.7,384.7,50.5,388,54.1z"/>
		<path class="st108" d="M329.9,54c6.7-1.3,13.4-0.7,20.1,0.1c0.6,1.8-0.6,3.9,1.1,5.5c1.1,1.8,3.7,0.8,4.9,2.5l0,0
			c-2.7,1.8-5.3,1.1-8-0.2c-2.6-0.7-5.6,0.1-7.7-2.3c-1.5-1.3-3-2.4-5.2-2C332.1,58.2,330.5,56.8,329.9,54z"/>
		<path class="st109" d="M400.7,62.1c2.1-1,4.2-2,6.3-3c2.3-1.6,4,0.6,6,0.9c0.7-0.1,1.3-0.2,2-0.3c1.6-0.5,2.8-2,4.7-1.4
			c1.6,0.4,3.2,0.9,4.6,1.8c0.6,0.4,1,1,1.1,1.7c-0.4,1.4-1.1,2.5-2.4,3.2c-7.6-2.3-15.5-0.4-23.2-1.3c0.1-0.4,0.2-0.8,0.3-1.2
			C400.1,62.2,400.3,62,400.7,62.1z"/>
		<path class="st110" d="M437.8,71.9c-0.6,1.9-1.1,3.8-1.7,5.7c-0.5,1.5-1.2,1.9-3,1.6c-2.2-0.4-0.7-1.5-0.8-2.3
			c-0.1-0.9,0.3-2.1-1.2-2.2c-1.7-0.1-1,1.3-1.1,2.1c-0.1,0.7-0.1,1.5-0.6,2.4c-1.8-4.3-1.3-9.4-4.6-13.1c2.3-1.6,5.2-1.6,7.6-1.6
			c3.6,0,0.3,3.4,1.3,5c0.4,2.5,1.2-0.1,1.8,0.1C436.9,69.8,437.2,71,437.8,71.9z"/>
		<path class="st111" d="M432.8,70c-4.1-1.8,2.4-2.9-0.2-4.7c-2.1,1.7-4.9,1.8-7.8,1c-0.6-0.4-1.3-0.8-1.9-1.1
			c0-1.5,0.7-2.5,2.1-3.1c1.2,0.1,2.2,1.1,3.5,1.1c3.5,0.1,6.8-0.5,9.5-2.9c2.3,0,4.7,0,7-0.1c-2.7,3.8-5.9,7.2-7.2,11.8
			c-1-0.3-1.6-1-2-1.9C434.9,67.8,433.9,70.1,432.8,70z"/>
		<path class="st112" d="M340.9,58.9c1.7,2.6,5.7-0.2,7.2,3c-4.5,3.3-9.3,1.3-14.1,1.1c-0.3-0.3-0.5-0.7-0.7-1.2
			c-0.1-0.7,0-1.4,0.4-2C335.9,57.8,338.4,58.5,340.9,58.9z"/>
		<path class="st95" d="M314,63c-6.6-1-13.3,1.3-19.8-0.7l-0.1-0.2c-0.6-0.6-0.7-1.3-0.4-2c1.1-1.6,2.4-1.4,3.8-0.5
			c2.8,2.2,5.5,1.2,8.1-0.2c3.1-1.3,5.9,0.3,8.7,1C314.8,61.3,314.7,62.1,314,63z"/>
		<path class="st113" d="M314,63c0-0.9,0.1-1.8,0.1-2.8c0.1-0.2,0.3-0.4,0.4-0.6c1-0.7,2.2-0.6,3.3-0.6c2.7,0.2,5.6-2.8,8.1,0.4
			c0.7,0.8,0.3,1.7,0.1,2.6C322.2,64.5,318,62.2,314,63z"/>
		<path class="st114" d="M369,63.1c0.2-1.7-0.7-2.6-2.2-3c3.1-1.3,6.2,0.1,9.3-0.1c2.2-0.1-0.7,1.8,0.4,2.6
			C374,63.5,371.6,65.2,369,63.1z"/>
		<path class="st115" d="M244.1,67.9c-1.7-3.3,2.2-3.2,3-4.9c2.9,0.2,2.7,2,2,4C247.6,68.6,245.8,67.9,244.1,67.9z"/>
		<path class="st116" d="M247.1,60.2c1-4.6,1.4-4.7,7.1-1.8c-1.6,1.2-3.9-0.2-5.1,1.5C248.4,60.1,247.7,60.1,247.1,60.2z"/>
		<path class="st117" d="M326,62.1c-1.1-0.7-0.1-1.5,0-2.2c0.6-2.4,2-1.5,3.4-0.9c1.2,1.5,3.3,1.7,4.6,3c0,0.3,0,0.6,0,0.9
			C331.2,63.5,328.6,62.9,326,62.1z"/>
		<path class="st118" d="M249,67c0.1-1.7-0.2-3.2-2-4c-1.2-0.7-0.2-1.3,0-2C250.1,62.2,251.5,63.9,249,67z"/>
		<path class="st40" d="M314.1,60.2c-2.8,2.2-5.5-1.8-8.3,0c-0.3,0.1-0.6,0.3-0.9,0.3c-2.6,0.3-5.2-1.1-7.9-0.4
			c-1-0.5-2.1-0.6-3.1,0c-2,1-4,0.9-5.9-0.2c-1.7-1.9-4.1-0.2-6.1-1.2c-0.9-0.5-1.5-0.9-2-1.7c-0.3-1-0.7-2-1-3
			c2.4-1.8,5-0.6,7.6-0.6c4.8-0.1,9.6,1.4,14.4-0.3c5.6,1.8,11.4-1.2,17,1c0.8,0.5,1.6,1,1,2.2c-2.5,0.1-3.4,2.4-5,3.7L314.1,60.2z"
			/>
		<path class="st119" d="M438.1,45.9c-1.1,0.2-1.9,0.6-1.2,2c2.1,4.4-1,4.5-3.8,4s-6.4,1-8.1-2.8c1.1-3.3,2.3-6.5,3.4-9.9
			C430.7,42.5,438.9,37.5,438.1,45.9z"/>
		<path class="st120" d="M319,56c-0.3-0.7-0.7-1.3-1-2c4-2.1,8,0.5,11.9-0.1c1.9,1.1,3,4.6,6.4,1.9c0.8-0.6,3.5,1.2,4.5,3
			c-2.1,1.8-4.8,0.1-7,1.4c-1.7,0.9-3.3,0.2-4.9-0.2c-0.9-1.2-1.9-1.5-3-0.1c-2.7-1.8-5.3,0.6-8,0.1C317.8,58.6,318.6,57.3,319,56z"
			/>
		<path class="st121" d="M419.9,59c-1.7,0.2-3.3,0.4-5,0.6c0.8-3.5,0-5.4-4.1-4.7c-5.1,0.9-9.9-0.9-14.8-2c3.1-3.1,6.6-1.2,9.9-0.9
			c5.8,1.9,11.5,1.4,17.1-1c-1.7,1.8,0,2.8,0.9,3.9C424.2,58,422.2,58.7,419.9,59z"/>
		<path class="st122" d="M405.9,52.1c-3.3,0.4-6.8-1-9.9,0.9c-2.8-0.5-5.3,0.9-8,1c-3.3-2.4-6.7,0.8-10,0c0.2-0.9-0.9-2.6,0.1-2.6
			c9.9,0.1,19.8-1.1,29.7-0.2c-0.2,0.2-0.3,0.6-0.5,0.6C406.9,52,406.4,52,405.9,52.1z"/>
		<path class="st107" d="M352,54c3.1-2.6,6,0.7,9.1,0.2c0.1,4.3-4.8,3.5-6.3,6.2c-0.5,0-0.9-0.1-1.4-0.4C352,58.2,350.2,56.6,352,54
			z"/>
		<path class="st123" d="M355,59.9c0.2-3.8,5.3-2.5,6-5.7c0.9,0,1.9-0.1,2.8-0.1c-0.8,0.8-2.4,1.5-2.4,2.3c-0.1,4.3-2.7,4.2-5.7,3.7
			l-0.5,0.2L355,59.9z"/>
		<path class="st123" d="M352,54c-0.7,2.4,2,3.6,2,5.8c-1.3,1.4-2.6,1.2-4,0c-2.1-2-1.3-3.9,0-5.8C350.7,54.1,351.3,54,352,54z"/>
		<path class="st124" d="M202,57c2.7-0.6,5.9,3,8.2-1.2c0.3-0.5,2.4,0.1,3.7,0.1c0.8,1.9,2.1,3.7,1.2,5.9c-2.4,2.9-6.3,1.2-9,3
			c-1.7-1.4,1-2.6,0.2-4c-0.2,1.5-1.1,2.7-1.3,4.1c-3.4,2.3-8.2,1.6-11,5.2c-0.6-0.1-1.2-0.2-1.8-0.3c-0.9-2.9-0.8-5.8-0.1-8.7
			c1.9-2.6,2.4,1.9,4,0.8c2.5,1.7,4.5,2.1,4.8-1.9C200.9,59,201,57.8,202,57z"/>
		<path class="st101" d="M205,64.9c-1.2-1.4,1.6-3.7-1.1-5c-0.5-0.3,0.5-0.9,1.1-0.9c1.5,0,2.8,0.6,2.6,2.2c-0.2,1.2-1,2.4-1.5,3.6
			C205.7,64.9,205.3,64.9,205,64.9z"/>
		<path class="st125" d="M192,61.2c1.2,2.9,1,5.8,0.1,8.7c-2,0.9-4.5-1.3-6.2,1.2c-0.4,0.3-0.8,0.4-1.2,0.3
			c-1.3-0.4-2.5-1.1-3.2-2.3c-0.2-0.7-0.2-1.3,0.5-1.8c-0.4-1.8-0.7-3.6-1.1-5.3c1.4-0.2,1.8-1.2,2.2-2.4c0.7-1.9,2-2.5,3.9-1.4
			C188,60.3,189.9,60.9,192,61.2z"/>
		<path class="st126" d="M185.3,70.8c0.2,0.1,0.5,0.2,0.7,0.2c0.3,0.6,0.7,1.3,1,1.9c0.6,1.6,1.2,3.3,1.3,5c0.2,2.4,0,4.9,0.2,7.3
			c-0.4,2.8,1,6-2.2,8c-1.1,0.1-1.7-0.5-2.1-1.4c-1.1-3.5-0.5-7-0.6-10.6c0.1-3.4-0.4-6.9,0.1-10.3
			C184.2,70.6,184.7,70.5,185.3,70.8z"/>
		<path class="st127" d="M187.2,85c0-2.7,0-5.4,0-8.1c1.3-0.8,2.5-1.9,3.8-2.8c0.3-0.1,0.6,0,0.8,0.1c0,2.6-0.1,5.2-0.1,7.7
			C191.3,84.6,189.6,85.3,187.2,85z"/>
		<path class="st128" d="M191.1,74.1c-1.5,0.7-0.1,5.2-3.8,2.8c0.3-1.3-2.3-2.5-0.3-3.9C188.4,73.4,189.7,73.7,191.1,74.1z"/>
		<path class="st129" d="M187.2,85c1.3-1.4,3.6-1.3,4.6-3c0.1,1.7,0.2,3.3,0.2,5c-2.1,3.6,0.4,8.5-4,11.9c-2.2,1.7-1.3,5.9-0.9,9.1
			c1.6,5.3,2.4,10.6,0.7,16.1c-1.5,6.2-1,12.4-0.4,18.6c0.2,2.4,0.5,4.5-1.5,6.2c-1.4-1.4-1.5-3.3-1.5-5.1
			c-0.1-15.3-0.1-30.5,0-45.8c0-1.8,0.1-3.7,1.6-5.1C188.2,90.6,186.4,87.6,187.2,85z"/>
		<path class="st130" d="M187.9,124c0.2-5.4-1.4-10.7-0.7-16.1c1.1-0.6,0.2-2.7,2-2.5c0.3,0,0.5,1,0.8,1.5c0.4,5.3-1.3,11,1.9,16
			c-0.1,2-1.4,3.2-3.1,4.1C187.5,126.4,188.2,125,187.9,124z"/>
		<path class="st131" d="M221.2,64.8c-0.7-2.2,1.1-3.3,2-4.9c1.1-1.5,2.3-2.2,4-0.7c0.5,3.1,0.5,5.8-4,4.5
			C222.6,63.5,221.8,64.4,221.2,64.8z"/>
		<path class="st132" d="M222,54.1c0.4-0.8,0.8-0.7,1.1,0.1c0,1.3,0,2.5-0.1,3.8c0.3,0.3,0.4,0.5,0.3,0.8c-0.1,0.2-0.2,0.4-0.3,0.4
			C217.6,58.4,220.4,56.2,222,54.1z"/>
		<path class="st133" d="M223,59.1c0-0.4,0-0.7,0.1-1.1c1.4-0.2,2.9-0.9,4.2-0.6c1.6,0.3,1.8,1.3-0.1,1.8c-1.4-0.3-2.7,0.1-4,0.7
			C223.1,59.6,223,59.4,223,59.1z"/>
		<path class="st134" d="M100,85c-8.7-0.2-17.5,1.4-26.1-0.9c1.8,0,2.3-1.7,3.3-2.7c1.4-1.4,2.4-2.1,4.9-1.3
			c3.9,1.2,7.7-0.3,8.9-5.1l0,0c0.3-0.3,0.7-0.4,1,0c-0.1,2-0.3,4.4,1.5,5.3c2.2,1.1,3.6-1.4,5.4-2.3c2.6-4.3,6.3-3.3,10-2
			c0,1,0,2-0.1,3c-0.4,2.4-1.2,4.3-4.2,3.9C102.9,82.8,101.5,84.1,100,85z"/>
		<path class="st78" d="M62.1,66c1.4,0.5,3.5-1.4,4,0.1c0.6,1.8,0.4,4.2-0.9,6.1c-0.9,1.3-2.1,2.5-3.2,3.8c-4.6,0-4.7-2.7-3.3-5.9
			C59.5,68.6,60.2,66.8,62.1,66z"/>
		<path class="st135" d="M56.1,80c-1.9,0.1-3.8,0.1-5.8,0.2c-1.8,0.4-2.4-0.5-2.3-2.1c2,0.3,4.1,0.6,6.1,0.9
			C54.8,79.2,55.4,79.6,56.1,80z"/>
		<path class="st136" d="M48.1,78c0.4,1.1,1.3,1.7,2.3,2.1c-1.3,1-2.8,0.9-4.3,0.9c-2.8-0.2-5.5-0.6-8.2-1.3
			c-5.9-1.5-6.7-1.1-9.7,4.5c-0.9,1.7-1.4,3.8-3.9,4c-3-2.3,0-4.5,0.1-6.7c1.6-3.2,4.1-5.6,7.2-7.4c1.8-1,3.6-1.8,5.5-0.2
			c2,0.4,4-1.6,6,0c2,0.7,1.9,3.4,4,4C47.4,78,47.7,78,48.1,78z"/>
		<path class="st137" d="M37.1,74c-5.4,0.6-9.5,3.1-12,8c-1,1-0.4,3.6-3,3c0-0.3,0-0.7,0-1c0-0.7,0-1.3,0-2c3.9-2.3,4.8-7.3,8.9-9.6
			C34.1,70.6,35.8,70.8,37.1,74z"/>
		<path class="st135" d="M47.1,78c-2.3,0.3-2.3,0.3-4-4C47.1,72.6,47.1,75.3,47.1,78z"/>
		<path class="st72" d="M15.2,102c-0.2,4.4,1.5,8.7,0.8,13.1c-0.3,0-0.6,0-0.9-0.1c-0.1-0.8-0.1-2.2-0.4-2.3
			c-3.4-0.8-2.8-2.5-1.3-4.6c0.8-1.2-0.3-1.7-1.2-2.1l0,0c-0.9-1.9-0.5-3.6,1-5c2-3.2,0.5-6.7,0.8-10c0.1-1.3,0.2-2.5,0.3-3.8
			c0.3-0.1,0.6-0.1,0.9-0.1C15.1,92,15.1,97,15.2,102z"/>
		<path class="st138" d="M22.1,85c1-1,2-2,3-3c0.9,2.2-2.4,3.7-1,6c0.8,1.3,0.4,2.6-0.1,3.8c-0.4,0.8-1,1.3-1.9,1.1
			C21.2,90.3,22.4,87.6,22.1,85z"/>
		<path class="st139" d="M13.1,101c-0.3,1.7-0.7,3.3-1,5c-1-1.4-3.7-1.6-3-4.2c1.8-0.8,2.9-2,0.7-3.5c-1-0.7-1.6-1.4-0.7-2.2
			c1.5-1.4,1.2,1,2.1,1.3C12.9,97.9,13,99.5,13.1,101z"/>
		<path class="st140" d="M63.3,54.2c1.2-2.7,3.5-3.5,6-2.9c1.9,0.5,3.6,2,3.7,4.1c0.2,2.8-1.6,4.4-4.1,5.3c-1.9-0.3-2.5-1.5-1.9-3.2
			c-0.3-2.5-1.3,0-2-0.3C62.8,57.1,64,55.1,63.3,54.2z"/>
		<path class="st141" d="M63.3,54.2c0.6,0.9,1.2,1.9,1.8,2.8c1.3-0.8,2.1,0.2,2.9,0.9c-0.8,1.3,0,2.1,0.9,2.9
			C64.6,60.7,62.3,58.9,63.3,54.2z"/>
		<path class="st142" d="M158,82c-1.1,0-2.2,0-3-0.8c-1.8-2.1-3-4.4-5.9-5.6c-3.3-1.3-3.5-5.6-1.1-8.6c2.2,1.7,4.1,1.3,5.9-0.7
			c0.8-1,1.4-2.2,2.7-2.6c2-0.1,3.9-0.4,5.5-1.6c0.3,0.7,0.5,1.5,1,2.1c1.8,2.1,1.5,7.8,6.9,4c0.8-0.5,2.3-0.3,3,1
			c-1.4,1.3-3,2.3-4.7,2.4c1.9,0.4,3.1,1.8,3.1,4.2c-0.2,0.4-0.5,0.8-1,1c-2.6,0.7-4.8-1.2-7.3-1.3c-3.1-0.1-6-0.2-4.4,4.4
			C159,80.5,158.7,81.4,158,82z"/>
		<path class="st143" d="M100,85c1.1-2.1,1.7-4.7,5.2-3.1c2.4,1.1,2.5-1.8,3.7-2.8c1.1,3.3,3.1,2.2,4.7,0.6c1.7-1.7,2.9-3.8,4.3-5.7
			c1.7,0.6,3.3,1.2,5,1.8c-1.9-2.5-2.3-5-0.9-7.7c0.5-0.9,1.4-2.2,2-1.7c3.9,3.1,5.2-1.7,7.9-2.4c0.8,2.8-1,4.9-2.2,6.8
			c-2.2,3.4-2.1,6.1,1.5,8.3c-1.1,2.9-3.6,1.8-5.5,1.8c-4.8-0.2-9.1,0.6-12.7,4.1C108.7,85,104.4,85,100,85z"/>
		<path class="st144" d="M157,64c-1.9,1.9-2.3,4.9-5.7,5.6c-2.7,0.5-3.3-0.3-3.3-2.6c0.3-5.4,3.8-9.4,6.3-13.7
			c1.1-1.9,4.2-2.7,5.7,0.8C162.5,58.4,158.6,60.8,157,64z"/>
		<path class="st145" d="M131.1,79.1c-4.4-0.3-5.4-2.4-3.4-6.3c1.5-2.9,3-5.9,4.4-8.8c6.5,0.1,6.9,0.7,4.3,6.6
			c-0.3,0.7-0.2,1.6-0.4,2.4c-0.1,2.7-1.5,4.7-3.6,6.3C131.9,79.4,131.5,79.4,131.1,79.1z"/>
		<path class="st143" d="M132,79c1.3-2,2.7-4,4-6c3.8,2.7,7.5,5.5,12,6.9c-4.3,0.7-8.6,1.5-12.9,2.2C132.8,82.4,132.7,80.3,132,79z"
			/>
		<path class="st146" d="M157,64c-0.9-3.9,4.2-6,3.1-10c1.3-1.7,2.7-3.3,4-5c0.6,1.4,2.2,2.3,2,4c-5.6,1.1-3.8,5.5-4,8.9
			C161.1,64.5,159.7,65.9,157,64z"/>
		<path class="st147" d="M142.1,51.1c3.3,2.6,4,5.5,1,8.8c-1.6,1.2-3.2,2.5-5.3,0.9c2.4-3.5-1.1-6.6-0.6-9.9
			C138.8,50.5,140.5,50.1,142.1,51.1z"/>
		<path class="st148" d="M138,60.2c1.8,1.9,3.4-0.3,5.1-0.3c-2.5,4-5.4,2.1-8.1,0.3c-2.7-1.8-2.6-4.7-1.2-7.1c1.9-3.1,4.8-4.6,8.3-2
			c-1.7,0.1-3.6-0.7-5,0.9C135,55,136,57.7,138,60.2z"/>
		<path class="st64" d="M92.1,75c-0.3,0-0.7,0-1,0c1.4-1.6,1.1-4.6,4.1-4.9C94.6,72,94.1,74,92.1,75z"/>
		<path class="st149" d="M109.1,76c-3.2,1.5-7.3-1.5-10,2c3.3-6.6,6.8-13.1,9.9-19.8c3.9-8.5,9.1-16.3,12.2-25.2
			c2.6,1.5,5.9,1.4,7.9,4c-5.7,11.5-11.4,22.9-17.2,34.4C111.1,73,110,74.5,109.1,76z"/>
		<path class="st150" d="M173,45.1c0,1.3,0,2.6,0,3.9c-1.3,0.3-2.9,2.8-3.8,0.3C167.9,46.1,170.8,45.8,173,45.1z"/>
		<path class="st151" d="M158,82c0-0.2,0-0.3,0-0.5c0.7-2.4-4-4.5-0.9-6.6c2.8-1.9,6.4-1.3,9.6,0c1.4,0.6,2.7,1.3,4.3,1.1
			c0.8,0.4,1.7,1.1,1,1.8c-3.6,3.6-0.9,5.4,2,7.1c0.8,2.3-1.7,5.6,2.1,7.1c-3.2,1.7-4.9-0.6-6.5-2.6C166.5,85.6,163.1,82.5,158,82z"
			/>
		<path class="st152" d="M185,92.1c-3,0-5.9,0-8.9-0.1c-2-8.2-0.5-16.6-1.1-24.9c2.8-1.8,4.8,0.6,7,1.5c1.1,0.7,2.2,1.4,3.3,2.2
			c-0.4,0.1-0.8,0.1-1.2,0.2c-0.6,1.4-1,2.8-3.1,1.6c-2.8-1.6-3.4,0.4-3.7,2.6c-0.3,2.9,0.9,5.9-0.7,8.3c1.7-3.5,5.1-2.7,8.3-2.6
			C185,84.7,185,88.4,185,92.1z"/>
		<path class="st153" d="M174,85c-3.6,1.6-4-1.5-5.2-3.5s-0.1-3,1.8-3.5c1.2-0.3,0.6-1.2,0.3-1.9h0.1c0.7-0.6,1.3-0.6,2,0
			C174,78.9,174.2,81.9,174,85z"/>
		<path class="st154" d="M182,68.7c-2.8,1.4-4.4-2.1-7-1.5c-2.4-1.8-6.6-0.1-7.9-4.1c4.8,2.2,10.5,1,15,4.1
			C182.1,67.7,182,68.2,182,68.7z"/>
		<path class="st155" d="M173.1,76c-0.7,0-1.3,0-2,0c-0.9-3.2-3-4.3-6.5-3.4c2.9-1.4,5.2-3.4,8.3-3.5C173,71.4,173,73.7,173.1,76z"
			/>
		<path class="st156" d="M202,57c0,1.3,0.1,2.6-0.1,3.9c-0.3,1.7-0.4,4.1-2.3,4.3c-1.5,0.1-3.1-1.3-3.6-3.2c2.8-2.6,5.1-5.1-0.4-7.3
			c0,0,0-0.3,0.1-0.5c0.1-0.1,0.2-0.2,0.4-0.3C199.3,52.5,200.3,55.6,202,57z"/>
		<path class="st157" d="M187,58.1c-1.8,0.1-3.2,1.1-3.4,2.7c-0.3,2.6-1.4,1.5-2.6,1.1c0.6-3.7,2-6.7,6.5-6.2c0-2.3-2.4-0.9-2.8-2.6
			c2.3-1.2,4.8-1.7,8-2.2c-1.2,1.8-4.3,1.6-3.1,4C191.1,57.9,189.1,58,187,58.1z"/>
		<path class="st109" d="M288.1,59.9c2,0.1,3.9,0.1,5.9,0.2c0,0.7,0,1.3,0.1,2C291.8,61.9,289.3,62.5,288.1,59.9z"/>
		<path class="st158" d="M400.7,62.1c-0.3,0-0.6,0.2-0.6,0.5c-1.3,0.2-2.6,0.5-3.8,0.5c-1.5-0.1-4.3,1.1-4-1.8
			c0.2-2,3.2-2.1,4.4-1.5C398,60.4,400.5,59.5,400.7,62.1z"/>
		<path class="st121" d="M413,60c-2.1,0.6-3.9-1-6-0.9C409.7,54.5,411.3,57.4,413,60z"/>
		<path class="st47" d="M378.4,61.1c2-0.3,4.1-3.2,6.3,0.6C382.4,61.3,380.4,62.5,378.4,61.1z"/>
		<path class="st159" d="M438,60.2c-1.7,5.6-6.3,3.7-10.1,3.8c-2.6-0.9-1.3-3.4-2-5.1C430.1,57.8,434.2,57.1,438,60.2z"/>
		<path class="st159" d="M419.9,59c1.2-1.5,3.3-2,4-4c1.4,1.1,0.9,2.7,1,4.1c0.4,1-0.3,1.5-1,1.9C422.6,60.4,421.3,59.7,419.9,59z"
			/>
		<path class="st160" d="M424,61c0.3-0.6,0.7-1.3,1-1.9c0.3,0,0.7,0,0.9-0.2c0.7,0.3,1.8,0.4,2.1,0.9c0.8,1.4-0.8,0.7-1.2,1.1
			c-1.4,1.6,1.1,1.9,1,3c-1.5,0.1-2.3-0.8-2.9-2C424.6,61.7,424.3,61.3,424,61z"/>
		<path class="st161" d="M350,59.9c1.3,0,2.6,0,4,0c0.4,0,0.7,0.1,1.1,0.1c0.2,0.1,0.5,0.2,0.8,0.2c0.1,0.6,0.2,1.3,0.2,1.9
			C353.9,61.5,350.7,64.2,350,59.9z"/>
		<path class="st162" d="M432.8,70c1.1-1.2,1.1-3.5,3.5-3.7c1.1,1.4-0.6,2.4-0.4,3.7C434.9,72.1,433.9,72.8,432.8,70z"/>
		<path class="st163" d="M329,60c1.7-1.1,3.3-0.2,4.9,0.2c0,0.6,0.1,1.2,0.1,1.8C332,62.1,330,62.4,329,60z"/>
		<path class="st164" d="M297,60.1c2.9-1.3,5.8-0.4,8.8,0.1C302.9,62.3,299.9,63.7,297,60.1z"/>
		<path class="st165" d="M319,56c1.6,1.8,0.2,2.9-1,4c-1.3,0-2.7,0-4-0.1C314.6,57.3,315.3,54.7,319,56z"/>
		<path class="st166" d="M185,80.9c-1.4-0.2-1.9,1.8-3.5,1.3c-3.3-1-4.3,1.2-5.4,3.8c0-3.8-0.1-7.5,0-11.3c0.2-4.5,1.9-5.5,5.8-3.1
			c1.5,1,1.4-0.8,2.3-0.7C185.8,74.2,184.8,77.6,185,80.9z"/>
		<path class="st167" d="M132,79c2.2-0.1,1.8,2.4,3.1,3.1C128,85,120.6,85.9,113,85c2.8-7.1,9.1-4.9,14.4-5.2
			c1.3-0.1,2.6,0.5,3.6-0.7C131.4,79.1,131.7,79,132,79z"/>
		<path class="st168" d="M24,91.8c-1-1.3-0.7-2.6,0.1-3.8c3.2-1.5,2.8-5.4,5-7.8c2.1-2.2,3.7-3.4,6.7-2.3c3.4,1.2,7.1,1.1,10.3,3.1
			c-1.5,1.2-3.2,1-5,1.1c-6.6-1.6-10.7,1.8-14,6.8C26,89.9,25,90.9,24,91.8z"/>
		<path class="st169" d="M27.1,89c1.8-4.6,4.5-7.8,9.8-8.5c1.9-0.2,3.2,0.2,4.2,1.6C36,83.5,30.7,84.5,27.1,89z"/>
		<path class="st170" d="M68,58c-1.2,0.5-2.1-0.2-2.9-0.9c0.1-1.6,1.3-2.5,2.6-2.1C68.9,55.4,67.5,57,68,58z"/>
		<path class="st171" d="M138,60.2c-4.8-2.8-5-4.6-1-8.2c0.2,0.6,0.4,1.6,0.7,1.6c5.7,0.8,3.5,3,1,5.3
			C138.4,59.3,138.3,59.8,138,60.2z"/>
	</g>
</g>
</svg>
