<?xml version="1.0" encoding="utf-8"?>
<!-- Generator: Adobe Illustrator 25.0.0, SVG Export Plug-In . SVG Version: 6.00 Build 0)  -->
<svg version="1.1" xmlns="http://www.w3.org/2000/svg" xmlns:xlink="http://www.w3.org/1999/xlink" x="0px" y="0px"
	 viewBox="0 0 734 138" style="enable-background:new 0 0 734 138;" xml:space="preserve">
<style type="text/css">
	.st0{fill:#585B58;}
	.st1{fill:#B2B0B1;}
	.st2{fill:#311716;}
	.st3{fill:#29110F;}
	.st4{fill:#333533;}
	.st5{fill:#311817;}
	.st6{fill:#371B19;}
	.st7{fill:#646965;}
	.st8{fill:#462F2D;}
	.st9{fill:#110908;}
	.st10{fill:#3C2826;}
	.st11{fill:#281110;}
	.st12{fill:#312D2B;}
	.st13{fill:#513E3C;}
	.st14{fill:#5A5F5B;}
	.st15{fill:#535653;}
	.st16{fill:#542725;}
	.st17{fill:#373938;}
	.st18{fill:#484846;}
	.st19{fill:#3A1E1C;}
	.st20{fill:#D9DBD8;}
	.st21{fill:#72736F;}
	.st22{fill:#424443;}
	.st23{fill:#4D4E4E;}
	.st24{fill:#373936;}
	.st25{fill:#912B24;}
	.st26{fill:#626662;}
	.st27{fill:#7B807A;}
	.st28{fill:#331412;}
	.st29{fill:#251211;}
	.st30{fill:#81221C;}
	.st31{fill:#8D332C;}
	.st32{fill:#222321;}
	.st33{fill:#6B706B;}
	.st34{fill:#88221B;}
	.st35{fill:#60635E;}
	.st36{fill:#5F1F1B;}
	.st37{fill:#6C716C;}
	.st38{fill:#9A3932;}
	.st39{fill:#464846;}
	.st40{fill:#D4DAD5;}
	.st41{fill:#481F1D;}
	.st42{fill:#606460;}
	.st43{fill:#3E1F1D;}
	.st44{fill:#525554;}
	.st45{fill:#393C39;}
	.st46{fill:#7C776B;}
	.st47{fill:#424543;}
	.st48{fill:#4F5351;}
	.st49{fill:#562926;}
	.st50{fill:#61302C;}
	.st51{fill:#602E2B;}
	.st52{fill:#451E1C;}
	.st53{fill:#252625;}
	.st54{fill:#6E736F;}
	.st55{fill:#110D0C;}
	.st56{fill:#555753;}
	.st57{fill:#313230;}
	.st58{fill:#FBFBFB;}
	.st59{fill:#3F3F3C;}
	.st60{fill:#464844;}
	.st61{fill:#747771;}
	.st62{fill:#262524;}
	.st63{fill:#222221;}
	.st64{fill:#100F0E;}
	.st65{fill:#4B221F;}
	.st66{fill:#552725;}
	.st67{fill:#40423F;}
	.st68{fill:#4C2321;}
	.st69{fill:#5D2D2A;}
	.st70{fill:#ABADA6;}
	.st71{fill:#6F6C66;}
	.st72{fill:#49413E;}
	.st73{fill:#21211F;}
	.st74{fill:#565855;}
	.st75{fill:#444745;}
	.st76{fill:#242523;}
	.st77{fill:#4F4F4B;}
	.st78{fill:#484B49;}
	.st79{fill:#DDDFDB;}
	.st80{fill:#4C211E;}
	.st81{fill:#421C1A;}
	.st82{fill:#4E2321;}
	.st83{fill:#A36D68;}
	.st84{fill:#875551;}
	.st85{fill:#895450;}
	.st86{fill:#875652;}
	.st87{fill:#885954;}
	.st88{fill:#AB7975;}
	.st89{fill:#925854;}
	.st90{fill:#DFE2DC;}
	.st91{fill:#1C0C0B;}
	.st92{fill:#48211F;}
	.st93{fill:#4F514D;}
	.st94{fill:#4B4744;}
	.st95{fill:#2B2C2B;}
	.st96{fill:#60302D;}
	.st97{fill:#0A0807;}
	.st98{fill:#6E625B;}
	.st99{fill:#8C5955;}
	.st100{fill:#9C7470;}
	.st101{fill:#7D4B47;}
	.st102{fill:#CAC3BC;}
	.st103{fill:#C5B4AD;}
	.st104{fill:#976863;}
	.st105{fill:#90524D;}
	.st106{fill:#562826;}
	.st107{fill:#796862;}
	.st108{fill:#A2726D;}
	.st109{fill:#824540;}
	.st110{fill:#6E6E68;}
	.st111{fill:#26100F;}
	.st112{fill:#391816;}
	.st113{fill:#5B2A27;}
	.st114{fill:#552E2B;}
	.st115{fill:#502A27;}
	.st116{fill:#5B1410;}
	.st117{fill:#997571;}
	.st118{fill:#A2807C;}
	.st119{fill:#764E4A;}
	.st120{fill:#704643;}
	.st121{fill:#784D4A;}
	.st122{fill:#875F5B;}
	.st123{fill:#94726E;}
	.st124{fill:#916864;}
	.st125{fill:#8D625E;}
	.st126{fill:#AA837F;}
	.st127{fill:#916B67;}
	.st128{fill:#9C7874;}
	.st129{fill:#805450;}
	.st130{fill:#A67E79;}
	.st131{fill:#BE9E9A;}
	.st132{fill:#B99995;}
	.st133{fill:#601612;}
	.st134{fill:#8D605C;}
	.st135{fill:#A17A76;}
	.st136{fill:#AD8480;}
	.st137{fill:#7E504C;}
	.st138{fill:#3C3F3D;}
	.st139{fill:#3F4240;}
	.st140{fill:#262725;}
	.st141{fill:#2A2C2A;}
	.st142{fill:#3B3E3C;}
	.st143{fill:#7D817C;}
	.st144{fill:#060403;}
	.st145{fill:#DBDCDD;}
	.st146{fill:#865F5B;}
	.st147{fill:#734A46;}
	.st148{fill:#7C4A46;}
	.st149{fill:#50514D;}
	.st150{fill:#585B57;}
	.st151{fill:#525450;}
	.st152{fill:#6D6E67;}
	.st153{fill:#6C6056;}
	.st154{fill:#1F0C0B;}
	.st155{fill:#4D4B45;}
	.st156{fill:#55534F;}
	.st157{fill:#6B5F58;}
	.st158{fill:#4A201E;}
	.st159{fill:#3E1E1C;}
	.st160{fill:#552623;}
	.st161{fill:#3B1B19;}
	.st162{fill:#492825;}
	.st163{fill:#381E1C;}
	.st164{fill:#502826;}
	.st165{fill:#A07874;}
	.st166{fill:#A9827E;}
	.st167{fill:#926864;}
	.st168{fill:#9E7470;}
	.st169{fill:#B28D89;}
	.st170{fill:#956F6B;}
	.st171{fill:#87635F;}
	.st172{fill:#9A7974;}
	.st173{fill:#A27974;}
	.st174{fill:#8B605C;}
	.st175{fill:#916662;}
	.st176{fill:#774C48;}
	.st177{fill:#946864;}
	.st178{fill:#BB9995;}
	.st179{fill:#B4918D;}
	.st180{fill:#BA9A96;}
	.st181{fill:#AC8A86;}
	.st182{fill:#9B736F;}
	.st183{fill:#BD9E99;}
	.st184{fill:#515451;}
	.st185{fill:#502724;}
	.st186{fill:#572A27;}
	.st187{display:none;}
</style>
<g id="Camada_1">
	<g>
		<path class="st0" d="M732,53c0.7,0.3,1.3,0.7,2,1c0,1.3,0,2.7,0,4c-1.4,6-1.3,12.2-2.1,18.3c-0.9,6.9-3.4,13-8.9,17.6
			c-1-0.4-2.5-0.4-2.2-2.1c2.2-3.3,4.8-6.4,6.3-10.2c2-4.8,1.4-9.9,1.8-14.9c0.2-1.2,0.6-2.3,0.8-3.5c0.2-1.4-0.1-2.8-0.1-4.2
			c0.6-2-1-4.3,0.5-6.2C730.7,52.4,731.3,52.4,732,53z"/>
		<path class="st1" d="M611.9,137c-0.1,0.3-0.1,0.6,0,0.9c-4.7,0-9.3,0-14,0c0-0.3,0-0.6-0.1-0.9c0.4-0.5,0.8-0.8,1.4-1.1
			c4.1-0.5,8.1-1,12.1,0.4C611.6,136.6,611.7,136.8,611.9,137z"/>
		<path class="st2" d="M230.1,65.1c-21.9,0-43.9,0-65.8,0c-15.6,0-31.2,0-46.9,0c-8.9,0.4-17.7,0.9-26.6-0.4
			c-4.3-0.6-8.8,0.6-13.2,0.4c-6.6-0.3-13.2,0-19.8-0.1c-1.9,0-4.3,0.3-3.8-2.9c1.7-1.7,4-1.5,6.1-1.5c26,0.5,51.9-2,77.9-1
			c4.3-0.3,8.7,0.8,12.7-1.6c0.4-0.2,1-0.5,1.4-0.3c9.4,4,19.3,1.4,28.9,1.7c11.3,0.4,22.6,0.1,33.9,0.4c10.8-0.1,21.6,0.9,32.5,0.7
			c1.8,0,3.7,0.1,5,1.5c-0.5,2.5-2.6,2.3-4.3,2.3c-5.7,0.1-11.5,0.5-17.2-0.5c-0.6-0.1-1.2-0.4-1.9-0.2
			C229.8,63.6,230.3,64,230.1,65.1z"/>
		<path class="st3" d="M503.8,82.6c1.4-1,2.7-1.2,4.4-0.2c2.4,1.4,4.5-0.9,5.4-2.1c1.3-1.7-1.5-2.4-2.6-3.3c-3.6-2.8-7.4-5.4-11.2-8
			c-0.9-2.5-4.2-2.7-5.1-5.2c0-0.5,0.2-0.9,0.5-1.3c0.9-0.5,1.8-0.6,2.8-0.5c5.9,1.2,12,0,17.9,0.8c6.3,0.8,10.4,4.8,11.9,11.5
			c0.4,1.8,1.2,3,2.8,3.9c3.5,2.1,4.6,1.7,5.8-2.3c0.1-0.5,0.2-1,0.4-1.4c0.5-1,0.5-2.6,2-2.3c1.4,0.3,1.3,1.7,1.3,2.9
			c0,0.6,0.2,1.3-0.3,1.9c0.6-0.5,0.5-1.4,1-1.9c5.2,0.1,2.6,3.8,2.8,6.1c0.3,1.4,2.1,2.2,1.7,3.9c-1.5,1.3-0.9,3.4-1.8,5
			c-0.1,0.6-0.1,1.2,0,1.8c0.5,2.1,2.7,3.3,3,5.6c-0.1,0.5-0.3,0.8-0.7,1c-2.1,0.2-1.9,3.6-4.5,3.2c-4.6-1.6-3.8-5.4-2.7-8.4
			c1.2-3.6-1.2-1.6-2.2-1.9c-4.3,0.6-7.4-2.2-10.9-3.9c-0.5-0.1-0.9-0.2-1.4-0.4c-0.9-0.3-1.7-0.8-2.6-1.2c-3.6-1-7.2-1.9-10.8,0
			c-2.5,0.4-4.8,0-6.7-1.7C503.5,83.6,503.5,83.1,503.8,82.6z"/>
		<path class="st4" d="M568.9,118.1c-0.3,0.2-0.7,0.3-0.8,0.5c-1.2,7.2-1.2,7.4-8.5,7.1c-5.9-0.2-11.9,0.9-17.7-0.6
			c-0.5-1.6-0.4-3.2-0.1-4.8c0.6-3.4,0.6-6.2-4.2-6c-2.5,0.1-3.3-1.7-3-4.1c1.1-2.2,4.7-0.7,5.5-3.6c1.8-2.5,3.3-2.8,4,0.7
			c0.2,1,0.1,2,0.5,2.9c1.2,3.2,3.9,3.8,6.4,1.5c1.2-1.1,2.4-2.3,3.8-3.2c1.6-1,3.5-1.8,5.1-0.3c2.7,2.6,6.6,3.8,8.8,7
			C569.1,116.3,569.6,117.1,568.9,118.1z"/>
		<path class="st5" d="M366.7,66.2c-13.2-0.1-26.5-0.2-39.7-0.3c-8.6-0.8-17.2-0.1-25.8-0.4c-2.5-0.1-5.2,0.1-5.2-3.6
			c5.1-2.5,10.9-2.5,16-2.1c13.3,1.1,26.5,0.6,39.7,0.5c14.1,0,28.1,2.2,42.2,1.2c1.9,0,3.8,0,5.3,1.4c-2.2,4.2-6,2.3-9.2,2.2
			c-1.9,0-3.8-0.9-5.7-0.7c1.2,0.3,2.8-0.5,4.6,2C380.9,66.4,373.8,66.8,366.7,66.2z"/>
		<path class="st6" d="M495,63.1c0,0.3,0,0.6,0,0.8c-0.7,1.7-2.2,1.6-3.7,1.6c1.9,0.3,4-1.1,6.5,2c-9.9-0.2-19,0.3-28-0.4
			c-12.6-0.1-25.2-0.2-37.7-0.3c0.9-2.4,2.9-1.3,4.5-1.3c1.7,0,3.5-0.1,5.2,0c-9-0.6-18.1,0.4-27.1,0.4c-2.6,0-6.7,0.9-7.6-3.7
			c0.5-0.7,1.3-1.1,2.2-1.3c26.4,0.9,52.8,0.2,79.2,0.4C490.7,61.5,493.2,61.2,495,63.1z"/>
		<path class="st7" d="M504,116.9c-1,0.3-2.1,0.5-3.1,0.8c-1.6,0.1-3.2-0.1-4.7-0.9c-1.4-0.7-2.5-0.4-3.1,1.2
			c-2.5,2.9-5.7-1.9-8.2,0.7c-4.5-2.8-9.4,1.1-14-1c-0.5-0.2-1.4,0.8-1.8,1.5l0.1-0.1c-2.9,1.3-4.7-1.1-6.9-2.1
			c-1.5-2.3-0.6-3.6,1.9-4.2c1.6-0.4,3.2-0.2,4.8-0.4c15.9-1.8,31.9-2.3,47.8-2.7c0.5,0,1,0.2,1.5,0.3c1.4,0.7,2.8,2,1.8,3.4
			c-1.2,1.6-4.1,3.6-5.2,2.8c-3.2-2.2-5.5-0.1-8.1,0.6C505.9,117.1,504.9,116.3,504,116.9z"/>
		<path class="st8" d="M296,62c1.2,2.4,3.2,3,5.8,3c6.8-0.1,13.7,0,20.5,0c1.6,0,3.4-0.5,4.8,0.8c-32.3,0-64.6,0.5-96.9-0.7
			c-1.2-1.9-3.4-0.5-5.7-2.1c8.1,0,15.3,0,22.5,0c1.7,0,3.7,0.7,5.1-1c1.2-1.4,2.9-1.6,4.6-1.5c4.3,0.2,8.7,0.3,12.9-0.7
			c1.3-0.3,2.2,0.4,3.1,1.2c2.1,2.9,4.9,1.8,7.8,2.1C285.8,63.6,290.6,58.3,296,62z"/>
		<path class="st9" d="M568.9,118.1c-0.3-0.7-0.7-1.4-1-2.2c-0.6-2-1.5-4-1.3-6.1c-0.3-7.7,0.3-15.4-0.4-23.1
			c-0.4-1.7-0.2-3.4,0.3-5c0.4-3.4,2.5-6.9-0.1-10.3c-2.9-1.8-6.2-0.9-9.3-1c-5.8-0.2-11.6,0-17.4,0.1c-2.6-2.7-1.2-4.3,1.7-4.6
			c8.6-0.8,17.3-0.1,25.9-0.2c1.8,0,2.9,1.5,3.8,2.9c0.3,0.5,0.5,1,0.7,1.5c0.3,1.8,1.1,3.5,1.6,5.3c-0.8,4.7-1.3,9.3-0.3,14
			c-0.1,4.9-2.6,10,0.7,14.7c0.6,0.9,0.3,1.9-0.2,2.8c-2.8,4.7-1.9,9.1,0.8,13.4c0.3,1.6-0.2,3-1.6,3.9
			C570.4,123,569.5,120.6,568.9,118.1z"/>
		<path class="st10" d="M54.1,62c0.2,1.8,1.4,1.9,2.9,2c9,0.4,18,0.6,26.8,0.3c11.3-0.5,22.4,1.9,33.6,0.8
			c-11,1.3-22.1,0.6-33.2,0.9c-17.7,0.4-35.4,0.6-53.1,0.9c-2.2-1.2-4.9,0.5-7.3-1.3c3.1-3.2,7-1.4,10.3-2.1
			c2.6,0.3,5.2,0.9,7.7-0.6C45.9,62,49.8,59.2,54.1,62z"/>
		<path class="st11" d="M35.1,64c-3.1,2.2-6.8,0.1-10.1,1.4c1.8,1.5,4.4-0.4,6,1.5c-7.4,0.6-14.4-0.4-21-4.3c-3.9-2.3-5.6-5.3-6-9.5
			c0.7-4.6-2-8.9-1.1-13.5c0.2-1.3,0.7-2.4,1.6-3.4c2.8-0.7,2.6,1.5,2.8,3c0.2,1.4-0.4,2.8,0.6,4.1c1.5,3.1,2.5,6.3,3.2,9.7
			c0.9,4.2,5,6.5,9.2,7.8c4.8,1.4,9.9,0.5,14.7,1.9c0.3,0.3,0.4,0.5,0.3,0.8C35.3,63.8,35.2,64,35.1,64z"/>
		<path class="st12" d="M503.8,82.6c0.1,0.4,0.1,0.8,0.2,1.2c-0.5,1.6-1.7,1.8-3.1,1.9c-9.8,1.3-19.8,1.5-29.7,2.4
			c-4.1,0.4-8.4,0.8-12.7,0.6c-6.9-0.3-12.5,2.6-15.8,9c-1,1.3-2.3,2.3-3.4,3.5c-0.9,0.3-2.1,1.9-2.5-0.5c2.7-9.8,7.8-13,18.5-15.1
			c6.4-1.3,12.9-0.8,19.4-1.9c3.1-0.5,7.8-0.4,11.3-0.6c3.5-0.2,7.8,1.4,11.3-1.2C499.4,80.5,501.5,84.2,503.8,82.6z"/>
		<path class="st13" d="M407,63c5,1.2,9.8,3.6,15.4,1.3c2.5-1,5.9-0.5,8.8,0c4.6,0.8,9.3,0.7,14,0.7c-4.2,2-9-0.2-13.1,1.9
			c-21.8,0.2-43.5,0.2-65.3-0.7c6.7,0,13.4,0,20.1,0c0-0.3,0-0.5,0.1-0.8c-1.3-0.2-2.6-0.4-5-0.8c6.4-1.4,11.9,0.7,17.1-1.5
			C401.7,62.1,404.3,62.1,407,63z"/>
		<path class="st14" d="M439,100.9c0.1-1.9,1.9-2.1,3-3c0.6,0.4,1,1,1,1.6c-0.2,2.7,1.3,3.1,3.5,2.6c0.6,0.8,0.8,1.8,1,2.8
			c1.8,6.3,4.3,8.1,10.7,7.6c2.3-0.2,4.5-1,6.8-0.8c1.6,0.1,3.8-0.4,4.2,2.2c-1.6,0-3.2,0-4.8,0.1c-2.5,0.1-1.9,1.5-1.2,2.9
			c-0.6,2.6-2.5,3-4.8,2.5c-6.3-1.4-12.8-2.4-17.8-7.1c-0.3-0.3-0.9-0.3-1.4-0.4c-1.4-1.3-1.9-3.1-2.2-5
			C440.8,106.1,439,103.2,439,100.9z"/>
		<path class="st15" d="M504,116.9c1.8-1.8,5.4-0.3,6.6-3.5c0.1-0.2,1.6-0.3,1.7-0.1c2.5,5,4.8-1.4,7.2-0.1c0.4-0.9-0.3-1.5-0.6-2.2
			c4.5-3,9.5-2.7,14.6-2.1c0.6,0.2,1.1,0.6,1.4,1c0.4,1.8,0.7,3.7,3.1,3.8c5.3,0.3,5.7,3.2,4.1,7.4c-0.4,1.2-0.3,2.6-0.4,3.9
			c-1.5-1.5-1-3.6-0.7-5.2c0.8-4.8-1.3-5.7-5.5-5.1c-6.7,0.9-13.4,0.7-20.2,2.1C512.3,117.6,507.7,119.4,504,116.9z"/>
		<path class="st16" d="M599,136.7c-0.4,0.1-0.8,0.2-1.1,0.3c-9.3-1.2-17.8-4.2-24.1-11.6c1.6-2.3,1.8-2.5,4-0.6
			c2.6,2.3,5.1,4.8,8.9,4.7c2.3,0.3,5-1.1,6.8,1.6c1.1,1.7,2.4,2.5,4.8,2.5c6.2,0,12.3-0.4,18.4-1.4c1.8-0.3,4.7-0.7,2.3,2.8
			c-2.1,1.5-4.7,1.2-7.1,1.9v-0.4C607.6,136.4,603.3,136.1,599,136.7z"/>
		<path class="st17" d="M439,111.9c1.3-1.3,2.6-1.4,3.9-0.1c3.4,3.5,7.3,5.3,12.2,5.3c2.6,0,5.3,3.2,7.9-0.2
			c2.3,0.1,3.8,2.5,6.2,2.2c-0.2,0.3-0.4,0.8-0.5,0.7c-7.6-0.9-15.5,2.3-22.7-2C443.3,116.2,440.1,115.4,439,111.9z"/>
		<path class="st18" d="M469.8,67.1c8.8,0,17.5,0,26.3,0c0-0.4,0-0.7,0-1.1c-3.1,0-6.1,0-10,0c3-3.6,6.7,0.7,9-2.2
			c1.7,1.6,5.5,1.3,4.7,5.2c-7.7-2.7-15.7-0.5-23.6-1.5C474,67.3,471.9,67.3,469.8,67.1z"/>
		<path class="st19" d="M587,130.9c-4.1,0.2-7-2.1-9.6-4.8c-1-1-1.9-3.3-3.7-0.7c-0.3-0.4-0.6-0.7-1-1.1c0.3-1.4,0.7-2.8,1-4.3
			c0.2-0.2,0.4-0.3,0.5-0.5C579.8,122,584,125.8,587,130.9z"/>
		<path class="st20" d="M439,100.9c2.7,1.7,1.5,4.7,2.1,7c0.2,0.8-0.6,1.7-1.4,1.7c-1.7,0-1.6-1.7-2.1-2.8c0-0.1-0.3-0.2-0.4-0.1
			c-0.1,0-0.3,0.2-0.4,0.3c-1.5-2-1.5-4,0-6C437.6,102.8,438.2,100.8,439,100.9z"/>
		<path class="st21" d="M4.1,39.1c-0.3,3,0.2,5.9,1,8.8c0.5,1.8,0,3.6-1,5.2c-0.2,0-0.4-0.1-0.6-0.2C2.7,49.3,2,45.6,1.2,42
			C2.1,40.9,1.6,38.5,4.1,39.1z"/>
		<path class="st22" d="M469.1,119.2c0.4-1.9,0.5-4.1,3.3-2.1c1.1,0.8,2.6,1.4,3.7,0.6c3.3-2.5,6-0.6,8.8,1
			C479.6,118.8,474.3,119,469.1,119.2z"/>
		<path class="st23" d="M493.1,118c1.1-2.2,1.1-2.3,2.9-1.9c1.7,0.4,3.3,1.1,5,1.6C498.4,120.1,495.6,115.6,493.1,118z"/>
		<path class="st24" d="M720.9,92c0.6,0.6,1.3,1.3,1.9,1.9c-7.6,8.3-17.2,12.2-28.3,12.8c-5.5,0.3-11,0.3-16.5,0.4
			c-3.6,0.5-7.3,0.3-10.9,0.3c-0.9,0-2.2,0.4-2.3-1.1c-0.1-1.1,0.9-1.7,1.9-2c6.5-2.1,12.9,1.6,18.6,0.6c-2.6-1.7-7-1.5-9.5-5
			c-1-1.4-1.8-0.9-2.7,0.2c-0.9,1.1-1.7,2.6-3.6,2c-2.6-2.8-1.9-5.5,0.4-7.9c1.4-1.4,2.5-3.1,4-4.4c1.2-0.7,2.1,0.5,3.3,0.5
			c0.9-1.8-0.8-3.3-0.1-5c-1.6-0.2-2.2,1.3-3.4,1.2c-2.5-0.7-2.7-3.6-4.6-4.8c-0.9-1.8-4.9-0.8-4-4.2c0.6-0.6,1.3-1,2.2-1.1
			c3.3-0.5,0.6-1.4,0.2-2.2c-0.2-0.5-0.1-0.8,0.3-1.2c7-1,14-2,21-2.9c4.5-1.2,8.1,0,11,3.7c1.7,2.1,3.6,2.1,5-0.6
			c1.3-2.5,3-4.4,6.2-3.1c1.2,1.1,1,2.7,1.4,4.1c1.1,3.6,1.3,7.5,5.7,9.5C721.3,85,720.3,89,720.9,92z"/>
		<path class="st25" d="M237.1,21.9c22.1,0,44.2,0.1,66.3,0.1c51.7-0.1,103.4-0.2,155.1-0.4c1.8,0,3.6,0.2,5.4,0.3
			c0.9,1.7,5.3-1,4.2,3.3c-1.4,1.2-3,1.1-4.6,0.8c-4.1-1.5-8.2-0.5-12.4-0.2c-0.5,0.1-1,0.1-1.5,0c-5.3-0.7-10.5-0.4-15.7,0.4
			c-1,0.1-2.1,0-3.1-0.2c-3.3-0.8-6.6-0.8-9.9,0c-6.8-0.2-13.6,1.4-20.4,0.2c-10.7-1.3-21.5-0.7-32.2-0.3c-0.6,0.1-1.2,0.1-1.8,0
			c-11.2-0.5-22.4-0.9-33.6,0.3c-2.5,1.1-5,1.4-7.5,0.1c-3.7-1.4-7.5-0.5-11.3-0.7c-4.1,0.1-8.1-0.3-12.2,0.3c-0.5,0.1-1.1,0-1.6,0
			c-4.3-0.6-8.5-0.3-12.8-0.2c-5.9,1.3-11.9,0.4-17.9,0.4c-4.3-0.7-8.5-0.8-12.8,0.1c-3,0.6-6,0.3-8.9,0.3c-3-0.5-6.1-0.7-9-1.6
			C237.9,24.1,236.5,23.6,237.1,21.9z"/>
		<path class="st26" d="M696.1,39.1c-1.9-8.2-3.4-16.5-3.2-25c3.8,2.1,7,4.6,7.9,9.2c0.3,1.6,0.3,2.7,2.8,2.9c2.8,0.3,3,3.4,3,6
			c0,0.8-2.3,1.2-0.3,2.3c1.3,0.7,2.5,0.6,3.5-0.5c2.2,2.6,2.1,5.9,2.4,8.9c0.3,3,0.7,5.9,1.7,8.7c0.3,2.6,0.8,5.3,0.6,7.9
			c-0.7,1.5-2.1,2.3-3.4,3.1c-4.1,1.8-8.2,2.3-12.1-0.6c-0.3-1-0.5-2.1-0.8-3.1c1.6-5-0.3-9.9-0.7-14.8
			C697.4,42.5,697.5,40.5,696.1,39.1z"/>
		<path class="st27" d="M709,34c-0.2,1.8-0.2,1.7-2.3,1.4c-1.2-0.1-2.4,1.1-4.2,0.1c2.6-2.2,4.5-4.9,2-8c-1.8-2.3-1.7,2-4,0.5
			c1-5.8-4.1-9.4-7.5-13.9c-2.1-3.8-0.4-7.9-0.9-11.8c1.8-0.2,3.7-0.1,5.4-0.6c4.4-1.3,7.7-1,8.2,4.5c2.2,8,3,16.3,4,24.6
			C709.8,31.9,709.9,33.1,709,34z"/>
		<path class="st28" d="M7.1,43c-1.4-0.2-2.3-0.7-1.2-2.2C7.2,39,6.3,37.5,5.2,36c-0.5-1.3-2.1-2.4-1.1-4.1c1.6-8.9,7.3-14.2,16-15
			c3.2,1.8,6.9,1.5,10.2,2.6c2.2,2,1.7,3.9,0.1,5.4c8,0.5,16.4,0.6,24.7,1c1.1,0.1,2.4,0.3,2.2,2.1c-1.1,2.1-3.1,2.3-5.1,2.3
			c-9.1,0-18.3,0.3-27.4-0.2c-3-3.1-6.3-4-10.2-1.7c-4.3,0.2-4.3,0.2-3,6.4c0.1,1-0.3,1.8-0.8,2.6C9.5,39.3,9.1,41.7,7.1,43z"/>
		<path class="st29" d="M667.9,72.9c0,0.3,0,0.6,0,0.9c-0.2,0.4-0.5,0.8-0.9,1.1c-4.5,3.5-9.9,1.8-15.1,2.8c2.6,0.2,5.3-0.8,7.2,1.5
			c-3,3.7-7,1.6-10.5,1.8c-0.7,0,0.2-0.1-0.5-0.1c-0.1,0-0.1,0.3,0.2,0.7c0.2,4.1,0.4,8.3-0.2,12.4c-0.6,4,0.7,5.6,4.6,5.5
			c1.2-0.1,2.3,0,3.5,0.4c1.6,0.5,2.8,1.3,1.9,3.2c-4.7,1.4-9.4,2.8-14.4,1.7c-1.1-5.3,0-10.5,0.2-15.7c1.2-5,0.3-10.2,0.9-15.2
			c0.8-3.2,3.7-4.2,6.1-5.6c2.2-1.4,1.8-3.4,1.5-5.5c-0.8-2.7-0.6-5.5-1.4-8.2c-0.6-2.6-0.1-5.4-1.1-8c-1.4-9.5-3.2-19-3.7-28.6
			c0.1-1.2,0.4-2.3,2-2.4c2.2,0.8,2,2.8,2.3,4.6c1.4,8.1,2.4,16.3,3.8,24.5c0.3,4.5,0.9,8.9,1.7,13.4c0.1,3.4,2,6.7,0.1,10.1
			c-1.5,2.8-5.1,2.7-7.6,5.7C655.4,73.5,661.7,73.2,667.9,72.9z"/>
		<path class="st30" d="M43.1,17c28.5,2,57,2.6,85.5,3.6c6.8,0.2,13.6,0.4,20.4,0.6c0.3,1.4-0.4,2.1-1.5,2.7c-3,0.9-6.1,0.4-9.1,0.5
			c-2.5,0.2-4.8-1-7.3-0.8c-11,0-22-0.6-33.1,0.1c-1.8,0.2-3.6,0.1-5.4-0.5c-2.6-1.5-5.5-0.7-8.3-0.8c-8.2,0.2-16.5-0.1-24.7-0.5
			c-6.5-0.2-12.8-1.5-19.2-2.4C39.1,16.3,42.7,18.4,43.1,17z"/>
		<path class="st31" d="M148,22.8c0.3-0.5,0.7-1.1,1-1.6c29.4-0.2,58.7-0.1,88,0.7c0.7,0.7,1.3,1.5,2,2.2c-0.2,2.3-2.2,2.1-3.7,2.2
			c-3.1,0.2-6.2,0.5-9.2,0c-1.8-0.8-3.7-1.5-5.7-1.3c-5.9,0.7-11.8-0.2-17.7-0.6c-1.8-0.1-3.6-0.2-5.3,0.8c-0.5,0.2-0.9,0.2-1.4,0.2
			c-2.5-1.3-5-1.3-7.7-0.7c-0.5,0-1.1,0-1.6-0.2c-11.6-0.4-23.1,0.2-34.7-0.2C150.6,24.3,149,24.3,148,22.8z"/>
		<path class="st32" d="M699,62c4,0.8,7.9,1.6,11.8-0.2c1.3-0.3,1.5,0.7,1.1,1.4c-1.2,2-0.5,4.1-0.6,6.2c-0.1,0.2-0.3,0.4-0.4,0.6
			c-2.5,0.5-4.5,1.3-5.2,4.4c-0.5,2.4-2.7,3.4-5,1.8c-3.5-2.5-5.7-7.6-11.4-5.3c0,0-0.3-0.5-0.5-0.8C693.2,68.5,696.6,65.8,699,62z"
			/>
		<path class="st33" d="M653,45c-1.4-8.7-2.8-17.4-4.1-26.2c-0.2-1.1,0.1-2.3-1.1-3.1c0.1-1.6,1.6-1,2.4-1.5
			c3.9-0.3,5.6,0.5,5.7,5.4c0,4.7,1.6,9.6,1.9,14.5c0.3,3.7-2.2,6.6-2.8,10.1C654.9,45,653.9,45.4,653,45z"/>
		<path class="st34" d="M556,21.2c19.1-0.2,38.1-2.6,57.1-3.3c1.2-0.3,2.2-0.3,1.9,1.4c-1.4,1.3-3.5,1-5,2.1
			c-17.1,2.4-34.1,4.6-51.4,3.6C557.1,24,555.8,23.1,556,21.2z"/>
		<path class="st35" d="M653,45c1.6-3.6,3.2-7.3,4.8-10.9c2.7,1.8,0.2,4.3,1,6.7c1.6,4.8,1.5,10.1,2.1,15.3c-0.7,3-2.5,2.5-4.1,1.1
			c-2.3-2.1-0.6,1.9-1.9,1.1C653.6,53.9,653.1,49.5,653,45z"/>
		<path class="st25" d="M556,21.2c0.7,0.9,2.2,1.4,2,2.9c-1.8,1.7-3.9,1.3-6,1c-3.2-1.1-6.6-0.2-9.8-1.1c-2.4-0.7-4.9-0.5-7.4-0.5
			c-18.1,0-36.1,0-54.2,0c-2.4,0-5,0.7-7-1.6c11.8-0.2,23.6-0.5,35.4-0.6C524.7,21.2,540.3,21.2,556,21.2z"/>
		<path class="st34" d="M473.6,21.9c21.2,0.1,42.4,0.1,63.5,0.2c1.9,0,4-0.6,5.8,0.7c-2.1,2.4-5,1.3-7.6,1.6
			c-11.9,0.1-23.8,0.4-35.7,0.2c-7.4-0.1-14.8,1.7-22.2,0c-2-0.5-4.2,0.4-6.3,1.1c-1.2,0.2-2.3,0.2-3.2-0.7c0-2.8-3.3-1.3-4.1-3.1
			C467.2,21.4,470.4,21.5,473.6,21.9z"/>
		<path class="st36" d="M43.1,17c-1,0.7-2,1.3-3,2c-1.2,1-2.9,0.8-4.2,1.7c-2,0.7-3.9-0.5-5.8-0.6c-3.5-0.5-7.8,1.6-10-3.2
			C27.8,14,35.4,16.3,43.1,17z"/>
		<path class="st37" d="M654.8,58.2c0.1-1.7,0.3-3.5,2.6-1.8c1.4,1.1,2.4,1.2,3.4-0.3c0.1,0.7,0,1.3,0.2,2c2.4,7.3,2,8-4.9,10.2
			C655.7,64.8,655.3,61.5,654.8,58.2z"/>
		<path class="st38" d="M614.8,18.9c-0.6-0.4-1.1-0.7-1.7-1.1c6.6-0.7,13.2-1.3,19.8-2c2.5,0.2,5.6-1.7,7.2,1.9
			c-4.2,2.6-8.8,2.6-13.5,2.3c-2.4-0.9-4.9-0.5-7.3-0.4C617.8,19.8,616.1,20.5,614.8,18.9z"/>
		<path class="st39" d="M696.1,39.1c0.6-0.2,1.5-0.6,1.7,0.2c0.8,5.6,1.4,11.3,2.1,16.9c0.1,1.3-0.6,2.2-1.7,2.8
			c-0.5-5.7-1-11.5-2.4-17C695.5,40.8,695.8,40,696.1,39.1z"/>
		<path class="st40" d="M639.9,17.1c-2.3-0.4-4.7-0.8-7-1.3c5.7-1.4,11.5-1.1,17.2-1.6c-0.8,0.5-1.6,1-2.4,1.5
			c-0.9,0.6-0.8,1.5-0.7,2.4C644.5,18.9,642.1,18.8,639.9,17.1z"/>
		<path class="st41" d="M4,31.9c-0.1,1.5,3,2.2,1.1,4.1c-0.4,1-0.7,2-1.1,3c-1.7,0.2-1.8,2.1-2.9,2.9C1.3,38.4,2.7,35.2,4,31.9z"/>
		<path class="st42" d="M644,105.2c4.4-2.1,9.2-2.1,13.9-2.3c1.2-1.2,3.1-1.1,4.5-2c6.6-4.4,5.6-10.6,4-17c0.7-1.7,1.4-3.3,3.7-3
			c2.5,0.8,2.4,3.6,3.9,5.1c1.8,0.9,2.3,2.1,1,3.8c-1.2,1.8-1.5,3.8-3.9,5c-2.8,1.4-1.9,4.5-1,7.1c0.5,1.9-0.6,2.5-2.1,2.9
			c-0.8,0.2-1.9,0.2-2,1.1c-0.2,1.3,1,0.9,1.7,0.9c3.5,0.2,7.1-0.8,10.6,0.2c-5.7,1.5-11.5,0.6-17.3,0.8c-3.2-1.5-6.6-0.7-10.6-1.2
			c2.5,0.6,4.6-0.4,6,1.5c-4.4,0.3-8.8,0.7-13.2,1c-0.4-0.3-0.5-0.6-0.6-1.1C642.7,106.9,643,105.9,644,105.2z"/>
		<path class="st43" d="M642.9,107.9c0.1,0.4,0.1,0.8,0.2,1.2c0.3,0.4,0.8,0.9,0.8,1.2c-2.7,8.3-14.2,23.8-24.8,24.8
			c0.2-1.1,0.8-2.7-1.3-2c-6.8,2.1-13.9,1.7-20.8,1.7c-1.1,0-4.4,0.3-3.9-3c3.5-1.5,6.7,0.4,10.1,0.6c0.7,0,1.4-0.2,2.1-0.3
			c10.9-0.3,19.9-5,28.1-11.8c4.4-3.1,5.7-8.2,8.3-12.4C642,107.7,642.4,107.7,642.9,107.9z"/>
		<path class="st44" d="M656.3,108.1c-3.2-0.1-6.5-0.3-9.7-0.4c0-0.4,0-0.9,0.1-1.3c4.8-0.7,9.6-2,14.2,1.5
			C659.4,108,657.8,108.1,656.3,108.1z"/>
		<path class="st45" d="M709,34c-1.4-9-2.9-18-4.3-27c0-0.2,0.6-0.5,1-0.8c1.7,1.7,3.4,3.4,5.1,5.1c3.8,6.9,8.9,13,13.1,19.8
			c3.3,5.4,4.5,10.8,4.5,16.7c-2.8,0.7-4.6,2.4-5.3,5.2c-0.4,0.2-0.8,0.3-1.3,0.2c-2.6-2.3-6.1,1.4-8.7-1.3c-3.1-4.5-1.5-10-3-14.8
			C709.6,36.1,710,34.8,709,34z"/>
		<path class="st46" d="M727.8,48c-0.4-2.9-0.4-6-1.3-8.8c-2.9-7.9-7.8-14.6-12.9-21.2c-1.5-1.9-4.5-3.4-2.8-6.7
			c5,2.8,7.2,8,10.1,12.4c6,8.9,9.5,18.8,11,29.4c-0.7,0-1.4,0-2,0c-0.7-0.1-1.2-0.5-1.6-1.1C727.8,50.6,727.2,49.4,727.8,48z"/>
		<path class="st47" d="M720.9,92c-1.3-0.9-2-2.3-1.9-3.8c0.1-2.7-1.1-3.3-3.5-4.6c-3.1-1.6-4-6-4.3-9.8c-0.1-1.3-0.3-2.6-0.3-3.8
			l0,0c1.1-2.1,2.9-1.6,4.7-1.1c0.8,0.2,1.7,0.3,2.2-0.5c0.6-0.9-0.2-1.5-0.6-2.1c-1.5-2.1-3.2-4.2-1.5-7.1c3-0.2,5.9,0.9,9.1,0.3
			c2.2-0.4,4.7,1.1,6,3.6c-0.3,1-0.6,1.9-1,2.9c-4.8,0.6-4.1,5.2-5.6,8.1c-2.3,4.3,1.4,6.4,3.5,9.1C725.5,86,724.6,90.1,720.9,92z"
			/>
		<path class="st48" d="M727.8,83.1c-3.2,0-3.8-2.2-5-4.7c-1.4-2.8-2-4.2,1.2-5.5c0.3-0.1,0.4-0.9,0.3-1.2c-1.7-5.4,1.5-5.9,5.6-5.6
			C729.9,71.7,730.5,77.6,727.8,83.1z"/>
		<path class="st48" d="M730.8,63.1c-3.2-0.8-5.8-4.3-9.9-1.5c-1.4,0.9-3.3-1.7-5-2.5c-0.2-0.1-0.4-0.2-0.6-0.3
			c-1.5-1.7-0.9-4,0.8-3.6c2.9,0.7,3.7-2,5.8-2.2l0,0c3.2,0.9,5.4,3.2,7.7,5.4c0.1,0.2,0.2,0.4,0.3,0.6
			C730.6,60.3,731.1,61.6,730.8,63.1z"/>
		<path class="st48" d="M728.9,52.1c0.3,0.3,0.7,0.6,1,0.9c-0.1,2,2.3,4,0,6l0,0C727.4,57,725.5,54.9,728.9,52.1z"/>
		<path class="st43" d="M599,136.7c4.3-1.3,8.6-1.2,12.9-0.1C607.6,137.4,603.3,136.8,599,136.7z"/>
		<path class="st41" d="M11.1,35.1c-1.3-1.8-2.3-3.6-1.5-5.9c0.9-2.5,2.3-3.7,4.5-1.1c1.2,0.8,2.1,1.8,2.6,3.2
			c0.6,3.6-1.1,7.6,1.6,10.9c0.4,1.1,0.6,2.2,0.9,3.4c1.4,5.3,3.3,7,8.7,7c8.6-0.1,17.2-0.9,25.8-1.4c2.5-0.2,4.9-0.7,7.4-0.1
			c6.8,2.5,6.1,4.3,10.9-3c1.5-2.2,3.8-3.9,6.6-4.2c4.7-0.4,9.4-2.4,14.3-0.7c2,0.7,3.9-0.2,5.6-1.4c4-2.6,8.3-2.2,12.4-0.6
			c6.6,2.6,13.1,2.6,19.8,0.4c1.3-0.4,2.5-0.8,3.9-0.8c6.3,2.1,12.4-0.8,18.6-0.5c15.2,0.8,30.3,0,45.5,0.3c2.7,0.1,5.3,0.1,7.9-0.8
			c2.7-1,5.2-0.6,7.3,1.4c-0.4,4.3-3.5,4.5-6.5,3.8c-2.8-0.6-5.4-0.9-7.9,0.7c-1.4,0.9-2.3,2.5-4,3.1c-8.9,0.7-17.8,0.9-26.7,0
			c-3.1-0.5-6.1-1.8-9.3-1.1c-2.7-0.3-5.4-0.5-8,0.6c-4,0-8,1.3-11.9-0.2c-3.7-0.1-7.3-0.6-11-0.1c-7.6,1.1-15.1-0.1-22.7,0.1
			c-5.4,0.2-5.4,0.1-6.3,5.1c3.6,0,7.2-0.2,11.3,0.1c-0.6-0.2-0.7-0.2-0.8-0.2c-1.8-0.3-4.7,0.8-4.7-2c0-2.7,2.6-2.8,5-2.6
			c2.2,0.2,4.6-1.5,6.5,0.9c0.3,0.6,0.5,1.2,0.7,1.9c1,2.2,2.9,1.1,4.4,1.1c3,0,6-0.3,8.8,1c1.7,3.3,5.5,4.5,7.5,7.6
			c-28-0.8-56,1.7-84,1c-4.6-0.7-8.7,1.7-13.1,2c-2,0-3.9-1-6-1c-7.8-0.3-15.7,1.4-22.4-5.4c-2.2-2.3-3.4-3.1-2.8-6.4
			c0.5-2.9-2.8-5.1-2.7-8.2c0.4-2.3,1.3-4.3,3-6C11.6,37,12,36.3,11.1,35.1z"/>
		<path class="st49" d="M138.1,61c-3.7-1.1-6.6-3.2-8-7c-0.5-0.6-0.7-1.4-0.5-2.2c0.9-1.8,2.3-1.8,3.8-0.8c2.7,3.9,6.1,0.2,9.1,0.8
			c2.6-0.4,5.3,0.8,7.7-1.1c1.8-0.6,3.5-0.3,5.2,0.1c2.8,2.8,5.2,0.4,7.7-0.7c2.5-0.5,5.1-0.7,7.5,0.3c2.2,2.9-2,1.6-1.7,2.9
			c3.7-1.9,8.1,0.4,12.3-1c0.8-0.1,1.5-0.1,2.3,0c4.9,0.9,9.9-0.2,14.8,0.7c6.2-0.5,12.4,1.3,18.6,0.7c1.3,0,2.6,0.1,3.8,0.7
			c1.4,1.3,0.3,1.9-0.8,2.4c-1.6,0.7-3.5,0.2-5.2,0.7c-0.5,1.3,1.3,2.3,0.5,3.6c-5.1,0-10.2,0-15.2,0c-13.6,0-27.2,0.1-40.8-0.1
			c-2.1,0-5.4,2.1-6.5-2c0-0.1-0.7-0.3-0.8-0.2C147.7,63,142.6,60.2,138.1,61z"/>
		<path class="st50" d="M215.1,61c-1.1-1.4-2.2-2.8-3.4-4.4c3.1-1.7,6.7,0.7,9.4-1.6c0.1-0.7,0.5-1.2,1.1-1.6c1-0.6,2.1-1,3.3-0.8
			c3.5,1.3,7.1,0.2,10.7,0.7c4.2,0.1,8.5,1.4,12.6-0.6c0.4-0.1,0.9-0.1,1.3,0c2.1,1.4,4.2,0.9,6.3-0.1c1-0.2,1.9,0.1,2.7,0.5
			c4.7,1,9.5,1.3,14.4,1c0.5,0,1,0.1,1.5,0.3c3.4,0.9,7.1-0.3,10.5,1.1c2.6,2.9,2.4,4.6-1,6.2c-4,1.9-8.2,2.6-12.4,0.4
			c-1.4-2.4-3.1-0.2-4.6-0.2c-5.1,0-10.2,0.2-15.3,0.3C239.7,61.7,227.4,61.3,215.1,61z"/>
		<path class="st51" d="M495,63.1c-22.6,0-45.1,0-67.7-0.1c-6.4,0-12.9,0.3-19.3-1c-1,0-2,0-2.9,0.4c-1.5,0.6-3,0.8-4.1-0.4
			c-0.9-0.9-0.8-2.1-0.1-3.2c0.9-1.4,2.3-2.1,3.8-1.7c6.9,1.8,13.8-0.5,20.7,0.7c0.7,0.1,1.5-0.2,2.2-0.2c0.8-0.1,0-1.1,0.2-0.5
			c0,0.1-0.1,0.2-0.3,0.2c-6.2,0.6-12.5-0.1-18.7,0.4c-0.7,0.1-3.6,0.7-2.5-2.1c4-1.8,8.2-0.6,12.3-1c4-0.1,8,0.5,11.9-0.5
			c3.7-1,7.4,0.8,11.2,0c11.8,2,23.8,1.4,35.7,1.3c2.8,0,5.7,1,8.3-0.8c0.7-0.3,1.4-0.3,2.2-0.1c4.7,2,9.5,1.7,14.2-0.1
			c1.1-0.1,2,0.1,2.3,1.3c-1.3,3.1-2.6,6.3-6.3,7.3C497,63.1,496,63.1,495,63.1z"/>
		<path class="st52" d="M498,63.1c2-2.3,4-4.7,6.1-7c1.3-1.3,2.9-1.3,4.6-1.3c5.4,1.1,10.8,1.2,16.3,0.4c0.7-0.3,1.4-0.5,2.1-0.4
			c1.6,1,3.6,1,5.2,2c2.3,6.8,10.7,8.6,16.1,3.9c1.6-1.4,3.5-3.5,4.5,0.6c0.2,0.7,0.9,0.9,1.6,1.1c6.9,2.2,13.8,2.7,20.4-0.9
			c1.9-0.1,2.8,0.6,2.1,2.6c-0.4,0.9-0.9,1.6-1.5,2.3c-1.7,1.1-2.7,2.9-4.5,3.8c-1.4-2.4-2.9-3.6-6.3-3.3
			c-7.2,0.6-14.6,0.2-21.9,0.3c-1.7,0-4.8-0.8-2.7,2.9c2.4,3.6,0,7.3,0.1,10.9c-2.5-2.3-0.2-5.4-1.6-8.1c-0.5,1.5-0.7,3-1.4,4.2
			c-0.7,1.4,1.4,5-2.1,4.2c-3.5-0.7-8.6-1.5-8.6-6c0-3.1-1.2-4.4-2.9-6.2c-0.9-1-2.8-1.2-2.1-3.4c0.5-1.6-0.9-0.9-1.8-1.1
			C512.5,63,505.1,65.1,498,63.1z"/>
		<path class="st53" d="M567.9,109.9c0,2,0,4.1,0,6.1c-2.9-2.3-5.7-4.8-8.9-6.8c-3.6-2.2-4.9,2.2-7.3,3.4c-1.3,0.6-1.6,3.7-3.8,2.6
			c-2.4-1.3-5.9-2.2-5-6.3c0.2-0.8,0.3-1.8-0.1-2.4c-1.1-1.6-1.4,0.1-1.9,0.6c-1.9,2.4-4.5,1.9-7,1.8c-0.5-0.1-0.9-0.2-1.4-0.4
			c-2.2-1.3-4-3.6-7-2.9c-0.4,0.1-1-0.2-1.3-0.6c-2.7-3.1-1.1-11,2.6-13.3c0.7,0.2,1.2,0.7,1.5,1.4c-0.2,1.7-1.3,3.3-0.8,4.7
			c-0.8-4.6,4.1-4.1,6.3-6.1c1.5,0,2.2,0.7,2.4,2c0.6-1.1-1.8-2.4-0.2-3.6c1.4,0,2.9,0,4.4,0c0.1,3.6-5,8.1,1.5,11
			c2.2,0.2,2.9-1.7,4-3l0,0c1.6-0.8,2.7,0.3,3.8,1.1c2.2,1.5,3.6,4.1,6.3,4.9c1.5,0.4,3,0.3,4.4,0.1
			C565,103.4,567.5,105.2,567.9,109.9z"/>
		<path class="st54" d="M445.9,101.9c-0.9,0.7-0.8,1.7-1,2.6c-0.1,0.6-0.5,1.2-1.3,1.2c-1,0-1.4-0.7-1.5-1.5
			c-0.1-2.1-0.1-4.2-0.2-6.3c2.8-7.2,10.8-11.2,19.1-10.5c4.2,0.4,8.6-1.1,12.8-0.8c4.1,0.3,7.8-1.5,12-0.7c2.9,0.6,6.3-0.6,9.4-0.8
			c2.6-0.2,6.2,0.9,8.8-1.2c2.3,0.3,4.5,1.7,6.9,1.1c3.7-1.6,7.3-0.3,11,0c0.6,0.4,1.2,0.8,1.7,1.1c-0.2,2.8-2.5,2-4.1,2.2
			c-2.6,0.3-5.2-0.2-7.8,0.7c-12.8,0.7-25.5,2.3-38.3,2.5c-5.5,0.1-10.9,1.1-16.4,1c-3.3-0.1-5.5,1.9-7.5,4.4
			C448.4,98.5,447.7,100.6,445.9,101.9z"/>
		<path class="st55" d="M445.9,101.9c1.4-7,6.2-10.6,13-11c17.7-0.9,35.3-2.1,53-3.1c2.9-0.8,5.9-0.2,8.8-0.4
			c1.6-0.1,3.4,0.3,4.4-1.5c3.8,0.9,6.4,5.2,11,4c0.3,1.3,0.6,2.7,1,4.4c-1.3-1-2.2-1.7-3.2-2.4c-1.9,0.6-3.8,1.5-5.9,1
			c-0.3-0.4-0.7-0.7-1-1.1c0-1.4-1-1.6-2-1.5c-11,1-22.1,1.5-33.2,2.5c-1.9,0.4-3.8,0.4-5.6,0.4c-1.4,0.1-2.8,0-4.1,0
			c-1.4,0-2.8,0.1-4.1,0.1c-3.5,0.1-7.1-0.5-10.6,0.5c-2.1,0.5-4.2,0.4-6.4,0.4c-6.9,0.1-9.2,1.8-11.5,8.5c-1,3-1,3-3.3,2.1
			C446,103.9,446,102.9,445.9,101.9z"/>
		<path class="st56" d="M568.2,70.9c2.3,3.8-0.4,7.5-0.4,11.2c-0.4,0.2-0.9,0.2-1.3,0c-2.4-1.7-5-1.1-7.6-1c-2.3,0.1-5-0.2-6.3,2.1
			s2.7,2.4,2.7,4.6c-0.2,0.7-0.6,1.3-1.2,1.7c-2.8-0.3-5.9,2.9-8.3-0.9c-0.4-1.3-1.9-2.4-0.8-4c-0.9-0.8-1.9-1.6-2.8-2.4
			c3.5-3.5,7.5-6.2,11.8-8.7c4.1-1,8.3,0,12.3-1C566.8,71.9,567.3,71.1,568.2,70.9z"/>
		<path class="st57" d="M547,87.9c0.1,0.8,0.6,2.2,1.1,1.6c1.9-2,3.9-0.4,5.9-0.6c4.4,2.3,7.3,5.5,6.8,10.8c0,0.6,0.4,1.3,0.1,1.9
			c-0.8,1.5-2.1,0.7-3.3,0.6c1,1.8,0.5,2.8-1.6,2.7c-3.6,0.1-4.4-3.7-7-5c-1.4-3.4-4.4-5.4-6.9-7.9c0-0.7,0-1.5,0-2.2
			c0.7-0.9,3,0.9,2.9-1.8C544.9,87.3,546.2,87.4,547,87.9z"/>
		<path class="st58" d="M568.2,70.9c-0.3,0.6-0.7,1.3-1,1.9c-0.5-0.1-1-0.2-1.5-0.3c-7.1-0.4-14.2-0.2-21.4-0.1
			c-0.4,0.1-0.8,0.2-1.2,0.4c-0.8,0.6-1.3,1.5-2,2.2c-0.7,1.9,0.8,4.2-1,5.9c0-3.6-0.1-7.3-0.1-10.9c8.8-1.2,17.7-0.1,26.5-0.6
			C567.2,69.4,567.9,70.1,568.2,70.9z"/>
		<path class="st59" d="M541.1,75c-0.2-1.1-0.5-2.3,1-2.8c3.9,0.8,8.3-1.1,11.9,1.9c-3.9,2.8-7.1,6.6-11.9,8
			C541.2,79.8,544.5,76.9,541.1,75z"/>
		<path class="st60" d="M542.1,92c3.9,1,5.7,4.4,8.1,7c0.5,0.5-0.6,0.8-1.2,0.9c-1-0.7-2-1.3-3.1-2C545,95.8,542.4,94.6,542.1,92z"
			/>
		<path class="st61" d="M547,87.9c-2.8,0.2-1.9,1.8-0.1,4c-2.4-1.1-3.6-1.6-4.8-2.1c1.6-1.4-1.2-5.2,2.8-5.3
			C545.6,85.6,546.3,86.8,547,87.9z"/>
		<path class="st60" d="M546,97.9c0.1,2.8-1,4.2-4,3c2.5-1.2-0.7-2.8,0.3-4.3C543.8,96.1,544.5,98.3,546,97.9z"/>
		<path class="st62" d="M525,86c-0.3,2.5-2.3,1.9-3.8,2c-3.1,0-6.2,0-9.4-0.1c3.7-2.3,8.2,0.4,11.9-1.8C524.1,86,524.6,86,525,86z"
			/>
		<path class="st62" d="M522,84.9c-3.7,0-7.3,0-11,0C514.6,81.5,518.3,84.1,522,84.9z"/>
		<path class="st63" d="M544.4,124.6c3-3.1,5.7-4.7,9-1.3c3.9-3.5,6.8,3,8.9,1.3C557.6,124.6,551.3,124.6,544.4,124.6z"/>
		<path class="st64" d="M533,108c2.7,0.2,5.3-0.3,7.9-1c0,5-3.9,2.1-6,3c-0.3,0-0.6-0.1-0.9-0.1C533.3,109.4,532.5,109,533,108z"/>
		<path class="st65" d="M272,62c4.5-0.6,9.4,1.5,13.5-2.5c2-1.9,0.3-2.3-0.4-3.3c2.8-2.8,7.1-0.2,10-2.8c1.1-0.4,2.3-0.3,3.4,0
			c1.8,1.1,3.7,1.4,5.8,1.2c7.1-0.5,14.2,1.2,20.8,1c-1.7-0.4-3.9,0.1-6.1-0.1c-1.1-0.1-2.6,0-1.5-1.9c8.2-1.3,16.4-2.1,24.6,0.4
			c0.2,2.4-1.6,1.4-2.6,1.5c-1.9,0.2-3.8,0-6.3,0.1c3.8-0.2,7.1,0.1,10.4-0.3c0.4,0,1,0.1,1.4,0.3c-0.2-0.5-1-0.4-1-1.1
			c3-3.1,6.6-1.7,10-1.5c1,1.5,2,2.8,4.3,2.2c1.9-0.6,3.9,0,5.9,0.4c3.4,0.2,6.1,2.3,9.3,3.1c5.4,1.4,10.7,1.5,16.1,1.3
			c2-0.1,4.5-0.4,4.6,2.9c-26-0.3-51.9-1.5-77.9-1c-6.7,0.1-13.4,0-20.1,0c-3,0.8-7.1-2.1-8.9,2.7c-0.1,0.2-0.8,0.4-0.9,0.3
			c-3.2-3.9-6.3,0.2-9.4,0.2C274.1,65.1,273.3,63.5,272,62z"/>
		<path class="st66" d="M394,63c-2.6-3.4-6.6-1.9-9.4-1.4c-6.1,1-11.2-1.7-16.5-3.3c-1.7-0.5-3.3-1.3-5.2-1.3
			c-0.4-0.7-0.5-1.4,0-2.1c0.5-0.2,1-0.4,1.5-0.3c3.7,0.3,7.5,0.6,11.2-0.2c3.7-0.5,7.5,0.3,11.2,0.1c4.7,0.5,9.5,0.3,14.3,0.5
			c1.8,0.1,3.7-0.4,4.9,1.5c6,1.6,12.2,0.3,18.3,0.7c1.8,0.1,3.6,0,5.5,0.4c-2.4,0.3-4.4,1.3-7.1,0.8c-6.2-1.2-12.4,1.1-18.7-0.1
			c-1.5-0.3-3.1,0.8-2.6,2.7c0.5,1.8,2.1,1,3.4,0.9c1.1-0.1,2.6-2.8,3.3,0.4c-0.3,0.3-0.7,0.6-1,1c-2.7,1-5.3,1.1-8,0
			C397.4,63,395.7,63,394,63z"/>
		<path class="st24" d="M446.1,104.9c0.6,0.3,1.4,0.7,1.7,0C452,93.1,452,93.1,464.4,93c0.8,0,1.7,0,2.5,0c7.4-1.1,8.8,0.6,7.8,9.4
			c-0.4,1-1.4,1.8-2.2,1.6c-3.5-0.6-4.3,1.5-4.6,4.3c3.2,1.4,4.6-1.3,6.4-2.9c0.8-0.5,1.7-0.8,2.7-0.8c2.1,0.2,2.5,2.5,4.3,3.1
			c0.2,0.6,1-0.5,0.5-0.1c-0.1,0.1-0.2-0.1-0.4-0.3c-1.1-1-0.7-2.1-0.5-3.2c1.1-2.6,0.9-6,4.6-6.9c0.5,0,0.9,0.1,1.4,0.3
			c2,2.1-1,5.4,1.8,7.4c0.3,0.3,0.6,0.6,0.9,0.9c0.5,0.7,1.1,1.3,1.8,1.8c7.2-0.6,14.4,0.2,21.7,0.4c1.6,0.9,4.3,0,4.9,2.7
			c-14.5,0.7-29,1.5-43.6,2.3c-1.8,0.1-3.6,0.6-5.4,0.9c-3-1.7-6-0.8-9.1-0.2C451.5,115.3,447,112.3,446.1,104.9z"/>
		<path class="st53" d="M518,110.8c-1.3-1.7-3.8,0.1-5-1.8c0.4-0.5,0.9-0.8,1.5-1c6.2,0.3,12.3-3.3,18.5,0l0.1,0.1
			c0.3,0.6,0.7,1.3,1,1.9c-5.1-0.3-10.1,0.7-15.1,1.2C518.6,111,518.3,110.9,518,110.8z"/>
		<path class="st67" d="M556,104.9c4-3.1-1.8-3.1-1.5-5c2.6-2,3.1,2.1,5,1.9c1.4-5.7-2.5-9.1-5.5-12.9c0.4-0.4,0.7-0.7,1.1-1.1
			c0.6-0.5,1.3-0.6,2-0.4c6,3.8,6.4,3.8,9.1-0.6c0.2-0.4,0.5-0.7,1-0.9c1.9,7.9,0.3,16,0.8,23.9C566,103.2,560.1,106.1,556,104.9z"
			/>
		<path class="st68" d="M572,90c-0.9-5.1-1.5-10.1,0.9-14.9c3.6-1.3,7-5.1,10.8-0.4c1.6,2.1,1.3,4.2,0.3,6.4
			c-5.4,1.3-5.3,7.3-8.8,10.3C573.7,91.7,572.8,90.8,572,90z"/>
		<path class="st19" d="M572,90c1,0.3,2,0.7,3,1c0.6,0.6,1.1,1.4,1,2.2c-0.5,5.5-0.1,10.5,4.8,14.4c1.6,1.3,1.3,3.9-2.1,3.3
			c-1.9-0.3-3,0.7-2.6,2.5c0.6,2.6-1,4.4-2,6.4l-0.1,0.1c-4.2-3.5-3.8-7.7-2.1-12.2c0.4-1.1,2.3-1.9,1.1-3.4
			C569,99.8,571.4,94.9,572,90z"/>
		<path class="st69" d="M583,75c-2-1.2-3.9-3.5-6.1,0c-1.1,1.8-2.7-0.3-4,0.1c-1.7-0.9-2.1-2.4-1.7-4.2c1.1-0.2,2.8,0.3,2.5-1.8
			c-0.2-1.2,0.4-2.1,1.2-2.9c0-0.9,0.2-1.7,1-2.2c0.2-0.1,0.4-0.2,0.5-0.1c3.1,4,5.7,1.3,8.2-0.8c1.1-0.9,2.2-2.4,3.7-0.7
			c1.2,1.4,2.2,3.7,0.4,4.8C585.5,69.1,585.2,72.7,583,75z"/>
		<path class="st70" d="M567.1,85.9c-0.2,0.3-0.3,0.6-0.3,0.9c-2.1,3.1-5.3,0.5-7.8,1.5c-1.2-1.1-2.9-2-1.7-4c1-1.6,3-3.6,4.2-2.7
			c2.1,1.6,3.8-0.9,5.5,0.2c0.3,0.1,0.5,0.1,0.8,0.2C567.1,83.3,566.7,84.5,567.1,85.9z"/>
		<path class="st71" d="M574.9,66.2c-0.1,0.9-0.5,2-0.2,2.8c0.3,1.1,1.8,1.9-0.1,3.2s-2.6-0.1-3.4-1.2c-0.1-0.3-0.2-0.6-0.4-0.8
			C571.2,67.7,572.4,66.3,574.9,66.2z"/>
		<path class="st72" d="M35,63c2.4-2.1,4.3-1,6,1c-2,1.6-3.9,2.6-5.9,0C35.1,63.7,35.1,63.4,35,63z"/>
		<path class="st69" d="M574,119.9c-1.2-2.8,1.2-5.2,0.6-8.4c-0.4-2.4,3.3-3.4,6.2-0.8c-0.4-2.7-1.3-4.5-2.9-5.1
			c-3.5-1.3-4.2-3.8-3.3-6.8c0.8-2.7,0-5.2,0.4-7.8c0.8-2,1.7-3.9,2.5-5.9c1-2.5,3.4-3.2,5.5-4.1c1.6-0.7,3.1-1.5,2.9-3.6
			c-0.3-3.1,1.3-5.7,2.4-8.5c1.4-3.7,2.7-6.7,7.4-7c2.1-0.1,3.6-2.4,2.3-5c-0.5-1.1-1-2.3,0.4-3.1c1.2-0.7,2.2,0.1,3.2,0.7
			c1.6,1,2.8,3,5.1,2.5c-2.3-1.5-4.2-3.5-6.4-5.2c-1.2-0.9-1.2-2.8,0-3.6c3.3-2.1,5.2-6,9.2-7.3c2.4-0.8,4.2-1.4,1.5-4.3
			c-1.5-1.7-0.1-3.6,1.8-4.3c3.6-1.2,7-3.2,11.1-2.4c2.6,0.5,4.5-0.6,6.2-3.8c-4,2.9-7.3,2-10.5,0.2c-1.5-0.8-2.3-1.9-1.7-3.6
			c2.5-2.1,5.1-3.8,8.6-3.6c4.7,0.1,9.2-0.7,13.7-2c2.4,0.3,4.9-0.6,7.1,1c0.9,6.1,2,12.1,2.8,18.2c0.5,3.6,0.7,7.2,1.1,10.7
			c0.4,0.4,0.4,0.9,0.5,1.4c0.1,2.2-1.6,2.9-2.9,2.3c-3.8-1.8-6.7,6.6-10.7,0.8c-1.3-1.9-2.3-4.6-5.5-1.5c-1,1-3.4-1-5.6,0.3
			c0.9,2.8,4.4,5.6,0.9,8.7c-2.3,2.1-4.3,4.3-7.5,5.5c-4,1.5-4.1,6.4-6.6,9.5c-0.9,1.1-0.9,2.8-2.1,3.8c-1.3,1-1.4,2.1,0,3.2
			c1,0.8,1.3,1.8,0.8,3.1c-0.4,0.9-1.5,0.7-1.8,1.5c1.1-0.9,1.8,1,3.2,0.4c3.3-1.5,5.2-0.7,5.5,3.4c0,0.7,2.3,1.7,3,3.2
			c1.1,2.4,2.3,4.8-0.9,6.4c-2.9,1.4-6,4.5-9.3,0.8c-1.3-1.5-2.4-2.7-4.6-1.9c-1.8,0.6-3.7,1-2.8,3.6c0.7,2.2-1.2,3.2-2.4,5.1
			c3.6-0.3,5,3.3,8.2,3.8c1.5,0.2,0.8,1.9,0,2.8c-1.2,1.5-3,2-4.8,2.5c-1.9,0.6-4.2,0.2-3.5,3.7c0.4,1.8-2.1,2.2-3.7,2.4
			c-1.1,0.1-2.6-0.1-2.4,1.7c0.1,1.3,0.5,2.1,1.7,3.1c2.4,2,6.1,3.1,6.5,7c-3.7-0.7-7.3-1.3-11-2c-1.5-2.9-4-0.1-5.9-1
			C582.5,127.4,578.9,122.9,574,119.9z"/>
		<path class="st73" d="M667.8,104.9c0.7-1,1.4-1.9,2.1-2.9c0.7-0.7,1.6-1.3,2-2.1c1.8-3.3,2.8-6.5,5.5-0.2c1.2,2.9,6,2.6,9,4.2
			c0.9,0.5,2.1,0.6,4.5,1.2C682.2,107.2,675,104.7,667.8,104.9z"/>
		<path class="st74" d="M670,80.9c-1,1-2.1,2.1-3.1,3.1c-3.5-0.3-5.4-3.2-8-5c-3.8-0.5-7.7,0.8-12.5-0.9c7.2-3.3,14.5-0.9,20.7-4
			c0.9,1.6-0.9,2.4-1.1,3.7C666.4,80.1,669.8,78.5,670,80.9z"/>
		<path class="st75" d="M682.6,74.5c2.2-1.6,3.8-1.2,5.5-0.7c0.9,0.2,2.3,0.3,2.8-0.3c3.1-3.2,5.1-1.2,5.4,1.7
			c0.3,3.3-3.5,4.2-5.5,6.1c-1,0.9-1.9-0.2-2-1.2C688.6,76.5,686.1,75.3,682.6,74.5z"/>
		<path class="st76" d="M690.9,94c1.7,2.6,0.2,5.5-2.9,6c-2,0.3-3.7-1.2-5.8-0.4c-0.9,0.3-1.3-0.8-1.2-1.7c0.1-1.2,0.8-1.9,1.9-1.8
			C685.9,96.4,688.2,94.4,690.9,94L690.9,94z"/>
		<path class="st77" d="M674.9,89.9c0.2-1.4-0.3-2.7-1-3.8c0.8-1,1.6-2,2.5-3c0.5-0.5,1.5-0.9,1.6-0.2c0.5,3,1.9,6.7,0.7,8.9
			C677.1,94.7,676.1,90.8,674.9,89.9z"/>
		<path class="st78" d="M690.9,94c-0.1-1.9,1.8-2.7,2.4-4.2s0.6-3.2,0.9-5c3,0.6,4.2,2.7,5.3,5.8C695.6,89.4,693.9,93.1,690.9,94
			L690.9,94z"/>
		<path class="st79" d="M666.1,77.9c-1.7-1.8,1.2-2.3,1.1-3.7c0.3,0,0.5-0.1,0.8-0.3c2.1-0.4,3.8,0.4,3.7,2.5
			c-0.2,2.7-2.2-0.1-3.3,0.6C667.6,77.4,666.8,77.6,666.1,77.9z"/>
		<path class="st80" d="M468,25.1c1,0,1.9,0,2.9-0.1c7.2-1.6,14.5-0.7,21.7-0.8c13.7-0.2,27.4-0.4,41.1-0.2c2.7-0.1,5.4-0.2,8.1,0.1
			c2.6,2.4,5.8,2,8.9,1.3c5.9-1.2,11.4-0.9,17.3,1.3c3.8,1.4,8.4,1.3,12.7,1.6c2,0.1,4,0.5,5.8,1.3s3.1,2.1,1,4.1
			c-5.4,0.1-10.9-0.3-16.2-0.6c-10.1-0.6-20.3,1.2-30.3-0.6c-1.6-0.3-3.1-0.3-4.5,1.7c-1.5,2.2-9.3,1-12.5-1.1
			c0.1-2.2,1.5-2.6,2.7-2.6c-7.2,3.4-15.5,1.7-23.6,1.8c-32.7,0.4-65.5,0.2-98.2,0.1c-6.2,0-12.4,1.3-18.3,0.9
			c-7.1-0.5-14.3-0.2-21.3-1c-6.3-0.7-12.6,0.3-18.9-0.1c-1.8-0.1-3.7,0.2-5.4-0.6c-1.3-1.5-2.3-4.2-4.7-1.1
			c-6.3,3.4-11.2,1.9-12.5-4c0.4-1.3,1.5-1.5,2.6-1.5c2,1.3,4,1.2,6-0.1c11.7-0.2,23.4-0.9,35,0.1c0.3,0,0.6,0,0.9,0
			c11.4-0.6,22.7-0.9,34.1,0.1c4.3,0.9,8.6-0.9,12.9,0c1.9,0.4,3.9,0,5.9,0c3.4-0.8,6.8-0.7,10.2,0c0.8,0,1.6,0.1,2.4,0.1
			c5.5,0.3,11-1.5,16.5,0c0.3,0,0.7,0,1-0.1c4-0.6,8-0.7,12,0C464.7,25,466.4,25,468,25.1z"/>
		<path class="st81" d="M196.1,25c0.3,0,0.7,0,1,0c2.5-1.5,5.2-0.8,7.8-0.6c7.1,0.6,14.2-0.5,21.2,0.7c4.3-0.4,8.8,0.9,13-1
			c2.7,0.3,5.3,0.7,8,1c7.3,2.2,14.2,5.8,22.4,3.3c2.9-0.9,6.7-0.6,8.1,3.5c-0.9,2.8-3.4,2.4-5.4,2.4c-7.8-0.2-15.5,0.6-23.2-1.9
			c-5.4-1.7-11.5-1.4-17.1,0.9c-2.8,1.2-6,1.3-8.9,0.9c-5.5-0.8-10.9,0.2-16.3,0.2c-4,0-7.9-0.4-11.7-2c-4.3-1.8-8.9-1.2-13.3-1.3
			c-4.6-0.1-9.3-0.1-14,0.1c-10.6,0.4-21.3,0.1-31.9-0.3c-9.8-0.4-19.5,0-29.2-0.6c-6.5-0.9-13-2.5-19.4,1.1c-2.5,1.4-5.7,1-8.6-0.7
			c-3.6-2.3-7.7-1.4-11.6-0.8c-1.4,0.2-3.1,1.3-3.3-1.3c0-0.2,0-0.4,0.1-0.5c2.3-1.8,5.1-3.2,5.7-6.5c5.5,0.1,11,0.5,16.5,0.4
			c2.4,0.3,5-0.7,7.2,1c1.3-0.9,2.6,0,3.9,0c11-0.6,22,0.2,33,0.3c2.6-0.8,5.1,1.1,7.8,0.3c5.4-0.1,10.7,0.7,16.1,0.4
			c11.5,0.1,23-0.3,34.4,0.1c0.2,0,0.5,0,0.7,0C191.4,24.1,193.8,23.6,196.1,25z"/>
		<path class="st82" d="M277,31.1c-5-3.4-10.2-0.6-15.3-0.7c-3-0.1-6.2,2.1-8.1-2.4c-1-2.4-5.5,0.8-6.6-2.8c3.3,0,6.7-0.1,10-0.1
			c4.3-0.7,8.6-0.7,12.9,0c5.7-0.9,11.5,1.2,17.1-0.9c4.6,1.8,9.4,0.3,14,1h-0.1c4.2-0.1,8.4,0.3,12.6-0.4c3.1,0.5,6.7-1.1,9.2,2
			c1,2.9-0.4,4.4-3,5.1c-2.2,0.6-4.6,0.7-6.9,0.7c-9.9,0-19.8,0-29.8,0C281,32.5,278.8,32.6,277,31.1z"/>
		<path class="st83" d="M367.1,25c-9,0.1-17.9,0.6-26.9,0c-2.7-0.2-5.4,1.5-8.2-0.1c1.8-1.7,4.1-0.8,6.1-0.9
			c7.7-0.1,15.5-0.1,23.2-0.1C363.3,24.1,365.4,23.4,367.1,25z"/>
		<path class="st83" d="M402,25.1c-11.4,0-22.7,0-34.1-0.1c6.8-2.3,13.7-0.7,20.5-0.8C393,24.1,397.7,22.9,402,25.1z"/>
		<path class="st84" d="M314,25.1c-4.3,1.4-8.7,1.5-13,0c4.2-1.9,8.7-0.8,13-0.9c0.3,0.2,0.5,0.4,0.3,0.6
			C314.3,25,314.1,25.1,314,25.1z"/>
		<path class="st85" d="M301,25.1c-4.8,0.8-9.5,1.9-14-1C291.7,24.6,296.5,22.8,301,25.1z"/>
		<path class="st86" d="M314,25.1c0-0.3,0-0.6,0-0.9c4,0.3,8.2-1.3,12.1,0.9c-0.7,0.4-1.4,0.8-2.1,1.2c-0.7,0.4-1.3,0.4-1.9-0.1
			C319.4,25.8,316.7,25.4,314,25.1z"/>
		<path class="st87" d="M450,25c-5.5-0.7-11,1.3-16.5,0C439,23.7,444.5,23.4,450,25z"/>
		<path class="st88" d="M463.1,25c-4,0-8,0-12,0C455.1,23.7,459.1,23.3,463.1,25z"/>
		<path class="st89" d="M270,25c-4.3,0-8.6,0-12.9,0C261.3,23.5,265.7,23.5,270,25z"/>
		<path class="st90" d="M431.1,25c-3.4,0.2-6.8,0.6-10.2,0C424.2,22.5,427.7,24,431.1,25z"/>
		<path class="st24" d="M715.9,59c-0.2,2.8,0.7,5.1,2.7,7.1c0.7,0.7,2.7,1,1.5,2.4c-0.9,1.1-2.1,2.8-4.1,1.9c-1.6-0.7-3.2-1.8-5-0.5
			c-2-2.7-0.8-5.4-0.1-8.1c0.7-1.2,1.7-1.9,3.1-1.9C714.5,59.4,714.8,58.4,715.9,59L715.9,59z"/>
		<path class="st47" d="M715.9,59c-0.7,0.3-1.3,0.7-2,1c-0.8-2.6-1.2-5.3-1-8c1.6-0.1,3.4,0.5,4.8-0.6c2.4-1.8,3.1,0.1,4.1,1.6
			c-2,0.5-0.2,7.4-5.5,3C715.1,55,715.6,57.8,715.9,59z"/>
		<path class="st91" d="M64.1,28.2c3,1.5,5.8-1,8.9-0.2c2.5,0.6,4.9-0.2,7.2,2.2c2,2,5.8,1.1,7.9-0.3c6-3.9,12-1.6,18-0.8
			c4,3.5,9.2,3.2,13.8,3.3c8.5,0.2,17.1,3.2,25.7,0.4c1.7-0.5,3.6-0.1,5.5,0.2c1.4,0.2,3.3,0.1,3.4,2.1c0.1,1.7-1.1,3.2-2.5,3.3
			c-5.8,0.6-10.6,5.9-17.8,1.9c-4.4-2.5-11-1.5-16.4,0.7c-0.9,0.4-1.9,1-2.9,0.8c-11.5-3-23,1.1-34.5-0.2c-4.5-0.5-8.1,0.8-9.9,5.6
			c-0.7,2-2.5,3.5-4.5,4.5c-1.3,0.6-2.3,0.4-2.5-1.3c0.8-3.7,1.5-7.5,1-11.4c-0.6-4.8-2.3-6.5-7-6.6c-9.1-0.2-18.3,0.2-27.4-0.9
			c-5.5-0.7-9.9,1.1-11.4,7.2c-0.2,1-0.8,1.8-1.8,2.3c-3.6-3-1.2-6.5-0.7-9.8c1.9-2,3.8-3.8,6.8-2.3c9.8,0,19.6,0.1,29.4,0.1
			c1.9,0,3.7,0.1,4.7-2c1-1.2,2.4-1.2,3.8-1.2C62.4,26.1,63.7,26.6,64.1,28.2z"/>
		<path class="st92" d="M61.1,27.1c-1.3,0-2.7,0-4,0c-7.9-0.2-15.9,0.4-23.7-1c-2.4-0.4-4.4,0.6-6.7,2.1c0.3-3.5,6.3-3.9,3.4-8
			c2-2.3,4.1,0.8,6.1-0.1c4.7-0.3,9.4-0.3,14.1,0.6c2.9,0.6,5.8,1.3,8.8,0.8c2.4-0.8,4.9-0.3,7.3,0.1c1.5,0.7,0.8,1.5,0,2.1
			C64.8,25,62.7,25.7,61.1,27.1z"/>
		<path class="st93" d="M23,28.9c-2.3,0.8-4.5,1.5-6.8,2.3c-1.3-0.6-2.1-1.6-2.1-3.2c1.1-0.6,2.2-1.3,3.3-1.9
			C20.7,24.2,23,24.4,23,28.9z"/>
		<path class="st94" d="M11.1,35.1c2.1,0.1,2.5,1.8,1.7,3c-1.2,1.7-2-0.1-2.7-1C10.4,36.4,10.8,35.7,11.1,35.1z"/>
		<path class="st16" d="M603.9,133.9c-0.3-3-3.6-1.3-4.6-2.9c-1-1.7-1.2-3.9-4.2-2.7c-0.6,0.3-1.2-1.5-0.6-2.4c1-1.7-0.8-2.7-1-4.1
			c1.2-1.4,2.8-0.7,4.2-0.8c2.6-0.2,5.2,0,2.2-3.8c-1.8-2.4,0.6-2.3,2-2.1c3.4,0.4,5.9-1.1,9.6-4c-5.7,1.3-7.5-3.5-12-3.9
			c2.7-2.6,5.5-4.6,2.7-8.1c-0.2-0.2-0.1-0.7,0-1c0.6-1.6,9.1-2.3,9.5-0.7c1.3,4.7,3.9,2.8,6.6,1.9c3.3-1.2,5.1-2.9,2.5-6.3
			c-0.6-0.7-0.2-3.9-2.6-1c-0.4,0.6-1.4-1.4-0.7-2.8c1.3-2.3-0.7-2.5-2.1-3.2c-1.7-0.8-2.1,3.2-3.6,1.1c-1.4-2-3-0.1-4.3-0.6
			c0.1-1.5,0.6-2.1,1.9-1.9c1.1,0.2,2-0.5,2-1.7c0-0.9-0.5-1.5-1.6-1.5c-2.7-0.1-1.9-2.8-1.4-3.2c4.4-4,6.2-9.4,8.5-14.5
			c0.3-0.6,0.6-1.4,1.4-1.1c5,1.7,6.6-3.1,8.8-5.3c2.3-2.5-1.5-5-2.8-7.8c2.6-1.1,5-2.6,7.5-0.1c1.4-1.2-1-2.6,0.7-3.9
			c1.7,2.6,6.3,1.9,6.5,6.4c0,1.1,2.1,1.3,2.3,0.5c1.3-4.3,5-2.5,7.5-2.8c2.3-0.3,1.6-1.5,1.9-2.7c1.9,2.5,0.5,5.3,1,8
			c-0.8,0.5-2.1-0.4-2.1-0.4c-0.9,4.6-2.7,2-4.7,0.8c-2.7-1.5-4.6,0.9-6.6,2.1c-2,1.2-3.2,3.3-3.9,5.6c-0.1,0.2,0.1,0.4,0.1,0.4
			c6.3,0.4,4.5,7.3,8.1,9.9c0.3,0.3,0.6,1.2,0.7,1.2c0.8-0.2,0.6-1.3,1.2-1.7c0.4-0.3,0.8-0.3,1.2,0c-0.4,5.3,1.1,10.8-0.9,16
			c-3.7,2.5-10.4,3-14.6,1.2c-1.2-0.5-2.4,0.3-3.5,0.5c1.4,1.4,0.7,4.9,2.2,5c6.4,0.3,4.1,5,4.1,7.9c0,2.4-0.4,4.3,1.7,6.2
			c2.6,2.3-0.5,5.4,0.5,8c0,1.1-0.7,1.7-1.3,2.4c-4.7,0.2-9,2.3-13.6,2.7c-2.8,0.3-3.3-1.5-2.5-4.7c-2.6,2.4-1,4.1-0.9,5.7
			c0.2,4.4-1.7,6.6-6.2,6.6c-2.3,0-4,1.2-5.8,2.2C604.6,133.2,604.3,133.5,603.9,133.9z"/>
		<path class="st95" d="M662.9,101.9c-1.4,1.6-3.3,0.9-5,1c-1.2-3.6-4.2-1.7-6.3-1.8c-5.7-0.3-6-0.5-4.9-5.9c0.9-4.6-1-9.5,1.3-14
			c4.5-1,9.3-1.6,13.5,0c6.5,2.4,8.2,12,3.8,17.8C664.5,99.9,663.1,100.5,662.9,101.9z"/>
		<path class="st96" d="M635.1,118c-0.6-0.3-1.2-0.5-1.8-0.8c2.1-3.5,0.1-6.2-1.5-9.3c-1.8-3.4,1.6-7.4-0.3-10.7
			c-1.3-1.6-7.2,4.3-4.5-3.4c0.4-1.2-1.8-3.2-3.1-5.3c2.1-0.1,4.5,2.7,5.5-0.8c0.6,0.2,1.3,0.2,1.8,0.6c2.1,1.8,4.1,0.8,6.9,1
			c2.4,0.1,4.6-0.5,6.9-0.4c0,5.4,0.4,10.9-1,16.2c0,1.1,0.1,2.2-1.1,2.7h-0.5h-0.5c-1.9,1.5-2.5,3.8-3.1,6
			C638.3,115.9,637.6,117.8,635.1,118z"/>
		<path class="st69" d="M643,74c-2.9,0.1-4.5-1-3.9-4.1c0.6-3.3-1-4.6-4.1-4.4c-3.4,0.3-3.1-0.7-1.9-3.4c2.2-4.8,6.5-6.6,10.4-9.2
			c1-0.7,1.9-0.8,2.2,0.6c0.3,1.4,0.7,3,2.3,2.6c1.8-0.4,0.1-2.5,0.8-3.8c1.2,1,2.1,1.8,3.1,2.7c2,2.3,0.1,5.6,1.9,8
			c-0.6,2-1.1,4.1-2,6c-2,1.3-4,2.6-6,4h-0.5h-0.5C644.4,73.5,644.1,74.6,643,74z"/>
		<path class="st97" d="M662.9,101.9c-1.7-1.7,0.1-2.2,1-3c2.8-2.8,4.2-6.6,2.5-10c-2-4-3.9-9.2-10.4-8c-2.6,0.5-5.3,0.1-8,0.2
			c1.1-2.5,3.2-0.6,4.8-1c2-0.5,4.3,0.7,6.1-1c3.7,0.1,5.5,3.1,8,5C670.4,92.4,669.3,97.5,662.9,101.9z"/>
		<path class="st98" d="M651.9,69c-0.9-0.4-3-1.4-2.4-1.4c3.5,0,2.3-3.9,4.4-4.6C654,65.3,654.8,67.8,651.9,69z"/>
		<path class="st99" d="M131.1,24c-11.4,0.5-22.8-0.4-34.1-1c1.2-1.7,3-1,4.6-1c9.9,0,19.7,0,29.6,0.1
			C131.7,22.8,131.7,23.4,131.1,24z"/>
		<path class="st100" d="M67,22.2c-2.6-0.1-5.2-0.2-7.8-0.3c-0.4-0.1-0.6-0.3-0.5-0.5s0.2-0.3,0.4-0.3c3-2.1,6.1-0.1,9.1-0.1
			c5.6,0,11.2,0.1,16.8,0.2c0.7,0.6,0.7,1.1,0,1.7c-5.3-0.3-10.7-0.6-16-0.9C68.4,22.6,67.7,22.7,67,22.2z"/>
		<path class="st101" d="M59.1,21.1c0,0.3,0,0.6,0.1,0.8c-7.8,0.5-15.4-1.2-23-1.9c0.7-2.5,2.6-0.8,3.9-1
			C46.6,18.5,52.8,20,59.1,21.1z"/>
		<path class="st102" d="M152.9,24.8c-5,0.2-9.9,0-14.8-0.9c-0.4-0.2-0.5-0.4-0.4-0.5c0.1-0.2,0.2-0.3,0.4-0.3
			c3.3-0.1,6.7-0.2,10-0.3c1.3,0.1,2.7,0.1,4,0.2C152.5,23.6,153.6,23.8,152.9,24.8z"/>
		<path class="st99" d="M85,22.9c0-0.6,0-1.1,0-1.7c2.7,0.7,6.2-2.2,8.1,1.8C90.4,23,87.7,23,85,22.9z"/>
		<path class="st103" d="M138.1,23.1c0,0.3,0,0.6,0,0.8c-2.3,0.7-4.7,0.3-7,0.1c0-0.6,0-1.2,0.1-1.9
			C133.5,22.5,135.8,22.8,138.1,23.1z"/>
		<path class="st104" d="M152.9,24.8c-0.3-0.6-0.5-1.2-0.8-1.8c10.3,0,20.7,0.1,31,0.1c1.7,0,3.7-0.6,5.1,1
			c-3.4,2.3-7.1,0.5-10.6,0.7C169.4,25.3,161.1,24.9,152.9,24.8z"/>
		<path class="st105" d="M226.1,25.1c-9.7,0-19.3-0.1-29-0.1c0.2-1.8,1.6-1.9,2.9-1.8c8.2,0.3,16.3,0.6,24.5,1
			C225,24.2,225.5,24.8,226.1,25.1z"/>
		<path class="st105" d="M196.1,25c-2.4-0.1-4.9,0.9-7.1-0.8C191.6,22.4,194,22.2,196.1,25z"/>
		<path class="st106" d="M587.9,33.1c0.2-3.3-2.7-2.3-4.2-2.7c-3.8-0.9-7.7-1.6-11.6-1.9c-2.8-0.2-6,1.6-7.5-2.5
			c-0.4-1-1.3-0.6-2.1-0.1c-0.5,0.4-1.5,1-1.7,0.9c-5.2-4-9.9,0.4-14.8,0.9c-2.6,0.2-2.8-1.9-4.2-2.6c0.9-3.2,3.1-0.3,4.7-1.1
			c1.7-0.8,3.8,0.1,5.7,0.1c1.9,0,3.8,0,5.7,0c8.8-0.1,17.8-1.6,26.4-1.4c8,0.2,15.5-3.3,23.5-1.8c0.5,0.1,1.2-0.5,1.8-0.8
			c2-0.6,4.2-0.4,6.2-0.6c3.4-0.3,3.6,1,2.1,3.5c1.8,3.2,6,4.9,8.5,3c1.6-1.2,3.6,0,5-1.4c-1.5,4.2-2.7,8.4-8.7,6.5
			c-3.7-1.1-6.7,2.3-10.4,2.4c-0.7,0-1.3,1-1.2,1.9c0.2,2.6,2.7-0.1,3.6,1.8c-1.8,1.8-1.2,5.2-6,5.4c-2.2,0.1-5.4,4.4-8.2,6.6
			c-0.7,0.6-0.1,2.1,0.4,2.1c4.1,0,4.6,6.2,10.4,4.5c-5.9,4.7-9.1,1.1-12.9-1.9c2.5,4.1,2.2,8.7-1.9,9.1c-5.9,0.5-6.3,4.3-8.1,8
			c-1.1,2.4-1.7,4.6-1.3,7.2c0.5,3.5-1.3,4.1-4.2,2.8c0.3-2,1.6-4,0-6c0.9-3.2,0.7-6.7,4.7-8.3c2.1-0.8,0-2.7-0.5-5.5
			c-1.3,4.7-6.1,4.2-7.1,8c-0.2,0.6-1.1,0.7-1.7,0.4c-0.8-0.4-1.4-1.1-1.1-2c0.7-1.7,0.3-2.9-1.4-3.6c0.5-1.1,0.8-2-1-2
			c-1.2-1.6-2.7-3.1-1.8-5.3c1.4-0.9,2.8-0.9,4.3-0.4c2,0.9,1.6,3.5,3.5,4.8c1.6-1.5-1.6-5.9,3.2-5.5c1.5,0.6,2.3,1.9,3.1,3.2
			c-1.5-5.2-0.9-6.1,4.3-6.2c0.6,0.2,0.8,2,1.8,0.4c0.2-0.3,0.5-0.4,0.8-0.6c-0.5-0.2-0.8,0.5-1.4,0.3c-1.2-0.2-2.4-0.5-1.7-2.2
			c2.6-6,1-11.3-3-16.1C587.7,34.1,587.7,33.5,587.9,33.1z"/>
		<path class="st107" d="M617.9,23c-1.3-5.3-5.8-1.3-8.3-2.9c1.4-1.7,3.4-0.8,5.1-1.2c3.8,0.4,7.7-2.2,11.4,0.2
			C623.6,20.7,620.9,22.2,617.9,23z"/>
		<path class="st108" d="M552.3,24.1c-3.4,1.3-7-0.2-10.4,1c-2.3,0-4.6-0.1-6.8-0.1c-0.7-0.6-0.7-1.2-0.1-1.8
			c2.6-0.1,5.3-0.2,7.9-0.3C546,23.6,549.4,22.1,552.3,24.1z"/>
		<path class="st109" d="M535,23.1c0,0.6,0,1.2,0.1,1.8c-21.4,0-42.7,0.1-64.1,0.1c1.4-2.8,4.3-1.7,6.2-1.7
			C496.4,23,515.7,23.1,535,23.1z"/>
		<path class="st96" d="M604.9,132.9c2.5-3.1,3.7-3.5,7-2.8c2.4,0.6,4.7-3.7,3.9-7.2c-1.1-4.5-1.1-4.5,3.6-5.4
			c0.8,1.6-2.6,3.9-0.7,4c2.1,0.2,5.4,1.4,7.1-0.9c2-2.8,3.4-3.7,5.7-0.4c0.5,0.8,1.5-0.1,2.2-0.5c0.7,0.3,0.7,0.8,0.2,1.3
			c-3.5,3.9-8.4,5.5-12.8,7.9c-4.1,2.3-8,3.4-12.3,4.1C607.4,133.4,606.2,132.9,604.9,132.9z"/>
		<path class="st110" d="M633.9,121.2c-0.1-0.4-0.1-0.8-0.2-1.3c0.5-0.6,0.9-1.3,1.4-1.9c1.8-1.1,2.6-2.6,2.8-4.8
			c0.2-2.5,0.9-4.9,4-5.3C640.9,113.3,638.6,118,633.9,121.2z"/>
		<path class="st47" d="M728.9,52.1c-1.3,2.6-0.3,4.8,1,6.9c-3.4-1.1-5.5-3.7-8-6c0.3-0.6,1-1.1,0.9-1.7c-0.5-4.4,1.7-4.7,5-3.4
			C728.6,49.2,729,50.6,728.9,52.1z"/>
		<path class="st111" d="M117.1,40c5.5-3.2,11.5-1.1,17.3-1.9c4.2,5.9,8.4,1.2,12.7,0.1c2.4-0.6,5.4,0.3,6.9-3.5
			c-4.6-0.4-8.7-1.3-13.4,0.6c-3.2,1.3-7.6,0.4-11.1-0.5c-5.6-1.5-11.4-0.8-17-1.6c-3.2-0.4-5.4-1-6.4-4.2c5,0.5,10.5,1,15.1,0.4
			c10.2-1.4,20.1,1.2,30.2,0.4c6.3-0.5,13-0.3,19.5,0.1c4.2,0.3,8.5,0.1,12.8-0.2c8.9-0.8,16.9,4.9,25.8,3.3
			c6.8-1.2,13.8,1.3,20.2-0.5c3.2-0.9,6.3-1.4,9.6-1.9c4.8-0.7,9.2,0,13.8,1.4c7.7,2.3,15.6,1.3,23.5,0.5c0.2,0,0.4-0.9,0.5-1.3
			c11.6,0,23.1,0,34.7,0c2.5,0,4.9-0.6,7.3-0.6c3.9,0,3.5-1.9,3-4.3c0.6,0,1.3,0.1,1.9,0.1c2.3,5.5,7.1,6.7,12,2.9
			c1.4,0,2.9-0.4,4,1c4.3,2.4,9.1,0.7,13.5,0.7c9.4-0.1,18.9-0.3,28.1,0.7c5.9,0.7,11.2-1.4,17-0.7c5.9,0.8,12,0.2,17.9,0.2
			c11.1,0,22.2,0.2,33.3,0c8-0.1,16.1-0.5,24.1-0.4c9.9,0.2,19.8,0,29.7,0.3c5.9,0.2,11.8,0.1,17.7,0c1.3,0,2.6-0.4,3.8-1
			c2.8-1.4,5-0.9,7.1,1.2c-2.3,3-6.3-2.3-8.2,1.8c-2.8,3.4-6.7,1.9-10.2,2.1c-13.7,0.9-27.5-0.8-42.1,0.5c2.1,1.6,3.7,1.3,5,0.7
			c5.8-2.4,11.9-0.8,17.8-1.2c1-0.1,2.1,0.2,2.8,0.8c5.6,4.2,11.9,4.6,18.5,4.1c5.8-0.4,11.6-0.9,17.4,0.3c1,0.2,2.1,0.3,3-0.2
			c6.1-3.1,12.3-1.7,18.6-0.9c3.5,0.5,6.9-0.8,10.4-1c3.7-0.2,7,0.4,8.9,4c-0.3,1.9-1.7,2.4-3.3,2.2c-5.6-0.8-11.2,0.5-16.8-0.3
			c-4.3-0.7-8.2,0.4-12.2,1.5c-0.8,0.1-1.5,0.1-2.3-0.1c-4.1-0.9-8.1-0.5-12.2-0.5c-5.4,0-10.8,1.2-16.4,0.1
			c-5.5-1.1-11.4-1.4-17.2-1c-5.1,0.3-10.2-0.8-15.3,0.1c-13.7-1.9-27.4-2-41.1-0.6c-1.9-0.1-2.4,1.4-3.2,2.6
			c-0.8,1.2-1.6,2.6-3.5,1.8c-0.5-0.5-0.8-1-1.1-1.6c-3.6-1-7.1-1.8-10.7,0.1c-3.2,3.7-6.5,2.5-9.8,0.1c-0.7-0.7-1.2-1.6-2.3-1.6
			c-3.9,0.1-7.7-0.1-11.5-1.5c-1.7-0.6-3.8,0.2-5.5,1.5c-3.9,1.7-8.4,0.9-12.3,2.8c-2.2-4.3-5.4,1.3-8.5-1c-2.2-1.6-6.3,0.8-9.4-0.7
			c-1-1-2.1-1.5-3.5-0.6c-1.2,0.8-2.5,0.6-3.8,0c-3.5-1.5-6.9-3.4-10.4,0.7c-0.4,0.5-2.8,1.1-4.2,2.3c-1.3,1.2-2.3-0.9-2.5-2
			c-1.1-4.4-2.9-3.8-5.1-0.9c-1.1,1.5-2.1,1.6-3.7,0.5c-3.4-2.4-7.9-1.7-10.9,1.2c-0.9,0.9-2.2,1.4-3,0.2c-1.8-2.5-4.2-2.2-6.7-1.9
			c-1.8,0.2-3.3,0-3.6-2.4c-0.1-0.8-4.6-1.8-5-1c-1.3,2.8-2.4,2.1-3.7,0c-1.2-1.8-2.1,1.1-3.3,0.4c-1.4-0.2-2.9-1.1-4.3-0.3
			c-2.7,1.5-4.8,0.5-6.6-1.6c-1.6,2.1,0.2,3.8-0.2,5.5c-1,1.4-2.2,2-3.7,0.6c-2.4-2.2-5.4-2.8-8.4-1.9c-1.4,0.4-2.5,0.3-3.7-0.5
			c-1.3-0.8-2.7-1.5-4.2-0.6c-2.2,1.3-3.8,0.6-5.2-1.1c-1.8-2-3.3-2.7-4.6,0.5c-2,4.8-6.4,1.8-9.6,2.4c-1.1,0.2-2.5,1-3.9,0.7
			c-0.6-0.4-1-1-1.4-1.6c-2.5-2-5.4-2.1-8.4-1.9c-4,0.3-8.2,1.8-12.1-0.7c-3.1-1.9-6.1-0.7-9.4-0.4c-7.7,0.8-15.6,0.7-23.3,0.1
			c-4.5-0.3-8.9,0.5-13.4,0.2c-6.4-0.4-13.1-1.3-19.3-0.3c-5,0.8-9.7,1.2-14.5,0.3c-3.7-1-7.3,1.2-11.1,0.5
			C120.8,42.1,118.3,42.6,117.1,40z"/>
		<path class="st112" d="M62.1,52.2c0.6-0.4,1.3-0.9,1.9-1.3c3.3,0.2,5.3-2.6,5.7-4.7c1-5.9,5.5-5.6,9.3-6c4.3-0.4,8.7,0.3,13.1,0
			c6-0.4,12,0,18-0.4c2.4-0.2,4.5,2.7,6.9,0.3c3.5,1.8,7.2,0.6,10.8,1c2.1,0.2,4.4-0.8,6.2,1c-6,3.3-12.6,1.7-18.9,2.6
			c-1.6,0.2-2.4-0.6-3.4-1.4c-3.1-2.4-9.1-2.4-12.3-0.2c-1.8,1.3-4.1,2.6-5.9,1.8c-5.1-2.3-9.9-0.2-14.7,0.4
			c-2.7,0.3-5.7,1.5-6.3,5.5C71.8,54.4,66.4,55.1,62.1,52.2z"/>
		<path class="st113" d="M116.1,50c-3.1-1-8.7-0.2-10.2,1.6c1.2,0.9,2.5,0.3,3.8,0.4c1.1,0.1,2.2,0,3.4,0.5
			c-5.3,3.2-11.1,1.6-16.8,1.7c-0.4-2.6,2-1.8,3.1-2.7c-1.1-0.8-2-1.5-3.9-2.8c11.6-3.8,22.7-0.4,33.5-1.7c0.6,0.6,0.8,1.3,0.6,2.1
			c-0.9,2-2.6,1.8-4.2,1.5C122.3,50,119.1,51.3,116.1,50z"/>
		<path class="st114" d="M236,44c0,0.6,0,1.3,0.1,1.9c1.3,0.8,3.5,0.8,3,3.2c-2.9,1.3-6.3,0.2-9,2.2c-0.5,0.1-0.9,0-1.3-0.2
			c-0.7-0.4-1.2-1.4-2-1.4c-6.8,0-13.7-2.2-20.3,0.8c-2.2,0.2-4.4-0.3-6.6-0.4c-1.6-0.3-3.1-0.7-3.8-2.4c0.9-1.1,1.2-2.8,3-2.7
			c5.2,0,10.6,1.9,15.4-1.8c1.2-1,2.5-0.4,3.8-0.2c3.8,0.5,7.3,2.6,11.4-0.1C230.9,42.1,233.8,43.5,236,44z"/>
		<path class="st115" d="M236,44c-1.7,0.3-3.4,2.4-5.1-0.1c-0.2-0.3-1.2-0.4-1.2-0.3c-2.1,4.5-5.5,1.5-8.1,1.2
			c-3.2-0.4-5.6-1.1-9.2,0.7c-3.2,1.6-9,3-13.2-0.6c1.6-3.1,5.3-2.4,6.8-1.6c3.5,1.8,5.6-0.3,8.2-1.4c6.3,0.9,12.6-2,18.9-0.1
			C234.3,42.4,235.4,42.7,236,44z"/>
		<path class="st116" d="M116.1,50c3.3-1.3,6.6-1,10-0.4c1.2,0.2,2.2,0.6,3-0.6c3.3-2.2,7-0.3,10.4-0.9c4.4,0.8,8.8,0,13.2,0
			c1.1,0,2.1,0.4,3,1.1c0.4,0.3,0.7,0.8,0.8,1.3c-0.1,0.6-0.5,0.8-1.1,0.7c-1.8,1-3.5,0-5.3-0.1c-2.6,1.6-5.5,1.6-8.4,1
			c-2.8-0.6-5.7,1.3-8.5,0c-0.9-1.3-1.9-1.4-3-0.2c-4.6,1-9.3,1.3-14,0.2C116.1,51.4,116.1,50.7,116.1,50z"/>
		<path class="st117" d="M196,47.8c1.5,0.4,2.9,0.8,4.4,1.2c-0.2,1.7-1.5,2.2-2.9,2.2c-8.9,0.1-17.9,0.9-26.7-0.7
			c-1.4-0.5-3.1-0.5-3-2.7c5.9,0,11.7,0.1,17.6,0.1C189,47.9,192.5,47.8,196,47.8z"/>
		<path class="st118" d="M20.6,56c7.4,0,14.8,0,22.2,0c-7.3,2-14.7,2.5-22.2,1.7C20.7,57.1,20.7,56.5,20.6,56z"/>
		<path class="st119" d="M116.1,52.1c4.7-0.1,9.3-1.1,14-0.2c0,0.7,0,1.4,0,2.1c-3.4-0.6-6.7-0.6-10.1-0.3
			C118.3,53.9,116.5,54.6,116.1,52.1z"/>
		<path class="st120" d="M167.8,47.8c0.8,0.7,1.6,1.3,2.3,2c-3.2,1.4-6.6,0.1-9.9,1c-0.5-0.1-0.9-0.3-1.3-0.6
			c-0.8-1.4,1.6-1.8,1.1-3.2C162.8,45.7,165.4,46.4,167.8,47.8z"/>
		<path class="st121" d="M139.1,48.9c-3.3,1-6.7-0.3-10.1,0.1c0-0.6,0-1.3,0-1.9c3.3-1.2,6.7,0.1,10,0
			C139.7,47.7,139.7,48.3,139.1,48.9z"/>
		<path class="st122" d="M160.1,47.1c0.4,0.6,0.7,1.2,1.1,1.8c-0.8,0.1-1.5,0.3-2.3,0.4c-0.8,0.7-1.8,1-2.9,0.8c-0.8,0-1.6,0-2-0.9
			c-0.5-1.4-3.2,0.5-3-2C154.1,45.8,157.1,45.8,160.1,47.1z"/>
		<path class="st123" d="M151.1,47.2c0.7,1.1,2.5,0.5,3,2c-5-0.1-9.9-0.1-14.9-0.2c0-0.6,0-1.2-0.1-1.9
			C143.1,47.9,147.1,47.2,151.1,47.2z"/>
		<path class="st116" d="M159.1,49.9c3.7,0,7.4,0,11.1-0.1c8.5,0.1,17.1,0.2,25.6,0.3c1.6,0,3.3,0.3,4.6-1.1c2.2,0.3,4.4,0.7,6.6,1
			c7.4-1.4,14.7-0.9,22,0.9c0.4,0,0.8,0,1.3-0.1c6.9-1.9,14-1,20.9-1.1c1.6,0,3.3,0.3,4.9,0.1c8,0.2,16,0.7,24,0.6
			c12.3,0.1,24.6,0.2,36.9,0.2c3.3,0,6.6,0,9.9,0c2.9-0.2,5.9-0.4,8.8-0.2c5.5,1.1,11,0.5,16.5,0.9c5.9-1,11.8,0.4,17.7-0.4
			c1-0.1,1.9,0,2.9,0.3c1.4,0.4,2.7,0.6,4.2,0.5c1.2-0.1,2.4-0.6,3.7-0.5c3.1,0.6,6.2,0.6,9.4,0.1c2.1-0.3,4.3,0.2,6.1,1.6
			c0.5,1.4-0.3,2.1-1.4,2.6c-2.8-0.1-5.7,0.5-8.4-0.3c-3.4,1.2-6.7-0.2-10-0.1c-4,0.5-8.1,0.8-12.1,0c-0.4,0-0.7,0-1.1,0
			c-2.7,0.2-5.5,2-7.8-0.9c-3.7,0.1-7.5-0.9-11.1,0.6c-0.6,1-1.3,0.9-2,0.1c-8.4-1.8-16.8-0.5-25.2-0.7c-6.3,1.7-12.5,1.2-18.8-0.1
			c-1.1,0-2.2,0.1-3.2,0.1C288,56,281,54.6,274,55l0.1,0.1c-5.3-1.2-10.8,0.2-16.1-1.1c-0.4-0.8-1.1-1-1.9-1c-2,1-3.9,1.2-5.9,0.1
			c-0.4,0-0.7-0.1-1.1-0.1c-4.2,2-8.6,0.6-13,0.6c-3.7-0.4-7.5,0.8-11.2-0.6c-0.9,0.3-1.7,0.7-2.6,1c-3.9-0.3-7.8,0-11.8-0.3
			c-4.2-0.5-8.5-0.8-12.7-0.7c-5-0.3-9.9,0.2-14.9,0c-0.8,0.1-1.5,0.1-2.3,0.2c-3.1-0.8-6.9,1-9.5-2c-3.1,0-6.2,0-9.3,0
			c-0.4,0.3-0.9,0.6-1.4,0.7c-1,0-2,0-2.4-1.1C157.8,49.9,158.4,49.8,159.1,49.9z"/>
		<path class="st50" d="M198,52.1c4.4-0.1,8.8-0.3,13.1,0.6c1.5,2.3,5.1-1.3,6.2,2.2c-6.4,0.7-12.8-0.7-19.2-0.9
			C197.5,53.4,197.5,52.8,198,52.1z"/>
		<path class="st124" d="M198,52.1c0,0.6,0.1,1.3,0.1,1.9c-5-0.8-10.1,1.1-15-1C187.9,51.1,193,52.4,198,52.1z"/>
		<path class="st125" d="M171.2,51.2c3,1.4,6.7-0.4,9.5,2c-4.2,2.3-8.5-0.6-14.1,1.1C169,52.7,170.1,51.9,171.2,51.2z"/>
		<path class="st119" d="M133.1,52.1c2.9-1.2,6-1.3,9.1-0.8c0.4,0.6,0.5,1.2-0.1,1.8c-2.1,0.4-4.2,0.5-6.2,1.2
			C133.7,54.9,133.3,53.8,133.1,52.1z"/>
		<path class="st126" d="M217.3,54.9c-1.5-2.3-5.1,1.4-6.2-2.2c3.8,0.2,7.8-1.3,11.3,1.3c-0.4,0.3-0.9,0.7-1.4,1
			C219.8,55,218.5,54.9,217.3,54.9z"/>
		<path class="st127" d="M142.1,53c0-0.6,0-1.2,0.1-1.8c2.6,1.4,5.2-0.6,7.8-0.2c0.8,1.4,0.6,2.1-1.1,2C146.6,53,144.4,53,142.1,53z
			"/>
		<path class="st128" d="M161.2,51.1c0.2,0,0.4,0,0.6,0c-2,3.2-4.7,3.2-6.6,0.1c0.2,0.1,0.5,0.1,0.7,0.2
			C157.7,50.7,159.6,52.3,161.2,51.1z"/>
		<path class="st129" d="M274,55c6.8-2.4,13.9-0.5,20.8-0.9c-0.3,3.1-2.7,1.6-4.3,1.8c-1.8,0.3-3.6,0.1-5.5,0.2
			C281.5,55.3,277.5,57.3,274,55z"/>
		<path class="st130" d="M236,53.1c4.4,0,8.7-0.1,13.1-0.1c-0.9,2.7-3.1,2-5,2c-2.7,0-5.5,0.2-8.1-0.9c-0.3-0.2-0.5-0.4-0.3-0.6
			C235.8,53.2,235.9,53.1,236,53.1z"/>
		<path class="st131" d="M258,54c5.4-0.1,10.8-1.2,16.1,1.1C268.7,55.5,263.3,56,258,54z"/>
		<path class="st132" d="M236,53.1c0,0.3,0,0.7,0,1c-3.7-0.1-7.6,1.8-11.1-1.1C228.7,53,232.3,53.1,236,53.1z"/>
		<path class="st130" d="M250.2,53.1c2,0,3.9-0.1,5.9-0.1C253.9,55.4,251.7,55.5,250.2,53.1z"/>
		<path class="st133" d="M395,54.9c0.3-0.6,0.7-1.2,1-1.8c1.6-1.7,3.8-1.1,5.7-1.7c3,0,5.9,0.2,8.9,0.4c2,0.1,4,0.1,6,0
			c2.5-0.6,5.1-0.6,7.6,0c3.3,0.4,6.7-0.9,10,0c2,0.1,4,0.1,6,0.1c3.6,0.2,7.3-0.6,10.9-0.1c1.5,0.1,3-0.3,4.5-0.2
			c3.5,0.4,7,0.2,10.5,0.2c0.6,0,1.2,0,1.7,0c15,0,30.1,0,45.1,0c5.8,0.1,11.7-0.1,17.5,0c7-0.1,14.1,0,21.1,0
			c10.4,0.2,20.8,0.3,31.2-0.5c1.8,0.2,3.5,0.5,3.1,3c-2,1.1-4.3,1.5-6.5,2c-5-0.7-9.9,0.5-14.9,0.2c-0.6,0-1.2,0-1.8,0
			c-2.6-0.1-5.3,0-7.9,0c-3.3,0-6.5,0-9.8,0c-4.9,0-9.8,0-14.7-0.3c-1.4-0.1-2.6-0.3-3.6-1.2c-0.3,0.3-0.5,0.6-0.8,0.9
			c-5.7,0.5-11.4-0.5-17.1,0.1c-1.6,0-3.2,0-4.9,0c-0.5-0.8-1.2-1-2.1-1c-4.7,1.5-9.3,1.5-14,0c-0.6,0-1.3,0-1.9,0
			c-4.5,2.1-9.2,0.3-13.8,0.9c-3.4,0.2-6.8,0.2-10.1,0c-6.8-0.6-13.8,0.3-20.6-0.9c-3.5,1.4-7-0.2-10.5,0c-4,1.1-8.1,0.2-12.2,0.5
			C410.9,55.1,402.9,56.4,395,54.9z"/>
		<path class="st134" d="M441.5,55c6.8,0,13.7,0.1,20.5,0.1c3.3,0.7,6.5,0.6,9.8,0.1c4.8-0.1,9.5-0.1,14.3-0.2c-0.2,2.2-1.9,2-3.3,2
			c-12.7-0.3-25.4,0.2-38.1-0.9C443.5,56,442.3,56.1,441.5,55z"/>
		<path class="st135" d="M395,54.9c8,0.1,16,0.3,24,0.4c0,0.2,0,0.4,0,0.7c-4.3,0.1-8.7,0.3-13,0.4c-5.6-0.1-11.1-0.2-16.7-0.3
			c-1.1,0-2.3,0.5-3.1-0.9C389.1,55,392.1,54.9,395,54.9z"/>
		<path class="st134" d="M488,55c4.7,0,9.3,0,14,0C497.5,57.8,491.2,57.8,488,55z"/>
		<path class="st136" d="M419,55.9c0-0.2,0-0.4,0-0.7c4-0.1,8-0.1,12-0.2C427.1,57.2,423,56,419,55.9z"/>
		<path class="st69" d="M562.9,55.1c0.4,0,0.8,0,1.1,0c2.6,2.5,6.4-0.9,8.9,1.9c1.6,1.3,2.3,2.9,2,5c-2,1.8-3,5.1-7.2,2.5
			c-1.4-0.9-4.9,0.4-7.4,0.7c-3.2,0.4-5.3-2.3-8.5-2c-1.8,0.2,0.3-2.1-0.7-4.1c-2.2,4.6-6.6,4.5-10.3,6c-1.4,0.6-1.7-0.6-2.4-1.1
			c-2.8-1.7-7.8-1.4-6.5-7c2.1-2.7,4.9-0.7,7.4-1.1c1.9-0.3,3.9,0.2,5.8-0.3c2.6,0.6,5.4-0.5,8,0.4
			C556.5,55.8,559.8,56.4,562.9,55.1z"/>
		<path class="st137" d="M545,56.2c-4.3,1.4-8.7-0.4-13,0.8c-1.8-0.4-4.4,1.1-5.2-2c6.1,0,12.2,0.1,18.2,0.1
			c0.3,0.3,0.4,0.5,0.3,0.7C545.2,56.1,545.1,56.2,545,56.2z"/>
		<path class="st137" d="M508.9,56c5.7-1.9,11.4-1.3,17.1-0.1C520.3,58,514.6,56.9,508.9,56z"/>
		<path class="st4" d="M532.9,107.9c-6.3,0.3-12.6,0.7-19,1c-0.6-0.6-0.6-1.3-0.3-2c1.9-2,5-0.5,7.1-2.6c-2.9-1.2-5.5,2.1-8.3,0.5
			c-2.6-1.6-3.6-4.2-4.5-7.3c-1.2,2.4-2.1,4.7-3.4,6.8c-0.7,1.1-1.5,2.5-3.1,1.8c-1.5-0.7-1.4-2.2-0.7-3.4c1.9-3.3,1.7-4.5-2.7-4.1
			c-4,0.4-4.8-1.1-4.3-5.4c0.1-1.1-1.6-0.3-1.8-1.3c4-2.5,8.4-0.3,12.8-1.4c6.9-1.6,14.4-0.5,21.7-1.5c1.1-0.1,2.6-0.3,2.8,1.2
			c0.1,1-1.4,1.2-2.1,1.7c-5.6,3.3-1.4,8.4-1.8,12.8C528.7,102.8,530.8,105.4,532.9,107.9z"/>
		<path class="st138" d="M528,93c1.8-1.3,3.8-1.2,5.9-1c-1.7,0.6-1.5,3.6-4.7,2.9c-1.9-0.4-0.4,3.4-1.7,5.2
			C526.7,97.5,526.7,95.2,528,93z"/>
		<path class="st139" d="M491.9,91.9c2.9,0.3,3.1,0.4,2.4,1.7c-2.1,4.1,2.2,4,3.4,4c6.5,0.3,6.5,0.1,3.7,5.7c-0.3,0.5-0.2,1.2-0.3,2
			c2.9-1.9,3.2-2.3,6.8-11c1.7,3.4,1.6,7.4,5,9.5c0.7,2.2-1.4,2.1-2.4,2.8c-0.7,0.1,0,0.3,0.1,0.3c1.1-1,2.3-1,3.4,0.1
			c0,0.6,0,1.3-0.1,1.9c-0.3,0-0.7,0-1,0c-6.9,1.4-13.9-2-20.8,0.7c-1,0.4-1.7-0.7-2.2-1.6c0.6-1.1,3.4-1.2,1.9-3.1
			c-0.8-1-1.3,2-2.8,1.1h-0.2c-2.6-1.8-2.2-4.1-1.1-6.5c0.3-0.6,0.6-1.2,1-1.7c-0.6,0.1-1.1,0.7-1.8,0.2c-0.3,0-0.7,0-1,0
			c-1.2-2-0.6-4,0.1-5.9C488,92,489.9,91.9,491.9,91.9z"/>
		<path class="st140" d="M486.1,92c1.5,2,0.2,4-0.1,5.9c-3.6,1-2.9,4.5-4,6.9c-1.9,1.4-2.6-0.3-3.5-1.4c-1.2-4.5,1.3-8,3.4-11.5
			C483.3,92,484.7,92,486.1,92z"/>
		<path class="st141" d="M473.9,103c-0.2-2.6,0-5.2-0.5-7.6c-0.8-3.9-4.2-1.9-6.5-2.4c3.6-2,7.4-0.5,11.1-0.8
			c-0.2,3.5-1.6,7.1,0.2,10.6c0.4,1.1-0.2,1.7-1.1,2.2c-0.4,0.9-1.2,1-2.1,1C474.1,105.2,473.4,104.3,473.9,103z"/>
		<path class="st142" d="M477.8,103c-3.9-3.7-1.2-7.3,0.2-10.9c1.3,0,2.6-0.1,4-0.1c0,3.9-3.3,6.9-2.9,10.9
			C478.7,103.3,478.3,103.3,477.8,103z"/>
		<path class="st143" d="M567,81.9c-1.7,0.3-3.2,4.2-5.1,0.2c-1.3,0.9-2.9,1.6-3.9,2.8c-1.2,1.3,1.8,1.5,1.1,3
			c-0.7,0.7-1.4,0.6-2.2,0.1c-0.6,0-1.2-0.1-1.9-0.1c-1.9-1.2-3.8-2.4-5.6-3.5c3-5.8,8.8-3.8,13.4-4.9C564,79.1,566.6,79.4,567,81.9
			z"/>
		<path class="st144" d="M554,74.1c-3.2-0.1-6.4-0.3-9.6-0.2c-1.3,0-2.3,0-2.3-1.6l-0.1-0.2c8.3-0.7,16.7-0.9,25,0.1
			c0.1,0.2,0.2,0.5,0.2,0.8c-0.4,0.8-0.5,1.6-2,1.5C561.5,74.1,557.7,74.1,554,74.1z"/>
		<path class="st145" d="M566.9,72c-8.3,0-16.7,0-25-0.1C550.3,70.4,558.6,70.3,566.9,72z"/>
		<path class="st129" d="M298.1,54c6.3,0,12.5,0.1,18.8,0.1c2.8,1.8,6.2,0.1,9.1,1.8c-8.4,0-16.9,0-25.3,0
			C299.4,56,298.5,55.3,298.1,54z"/>
		<path class="st146" d="M342,54.9c0.7,0,1.3-0.1,2-0.1c1,0.4,2.3-0.3,3.5,1.1c-5.7,0-11.2,0-16.6,0c0-0.3,0-0.7,0-1
			C334.6,54.9,338.3,54.9,342,54.9z"/>
		<path class="st147" d="M355.1,54.1c2.5,1.5,5.2,0.5,7.8,0.9c0,0.6,0,1.2,0,1.9c-2.3-2.1-5,0.1-7.5-0.6
			C352.9,55.6,354.2,55,355.1,54.1z"/>
		<path class="st148" d="M364.1,55c4-0.3,8.1-0.6,12.1,0C372.1,56.9,368.1,56.5,364.1,55z"/>
		<path class="st149" d="M473.9,103c0.3,1,0.7,2,1,2.9c-1.6,4.8-5.3,4.3-9.3,3.8c1.1-2.7,3.2-4.9,2.4-8.3
			C469.9,103.5,471.9,103.1,473.9,103z"/>
		<path class="st150" d="M489.1,106c0.6-0.4,1.7-0.8,1.1-1.7c-1.3-2.4,0-2.1,1.4-1.3c1.5,0.9,3.2,2.5,2.7,4.1
			c-0.5,1.8-2.9,0.6-4.4,0.9C489.2,107.5,489,106.8,489.1,106z"/>
		<path class="st140" d="M487,98c1.3-1,2.6-1.9,3.9-2.9c-2,3.5-4.3,6.7-1.9,10.8C483.6,104.4,486.8,100.8,487,98z"/>
		<path class="st151" d="M477.8,103c0.4,0,0.8-0.1,1.3-0.1c0.9,0.7,1.3,2.2,2.9,2c-2.7,1.6,3.9,1.4,0.6,3.2c-3.6,2-3.8-2-5.6-3.2
			C477.3,104.3,477.5,103.6,477.8,103z"/>
		<path class="st152" d="M556.9,88c0.7,0,1.4-0.1,2.2-0.1c2.2-3,5.4,0.8,7.7-1.1c0.3,1.7,0.4,3.6-1.8,3.9c-1.6,0.2-3.4,2.7-5.2-0.2
			C559.2,89.6,557.3,89.5,556.9,88z"/>
		<path class="st16" d="M592.6,119c-1.6,1.5-1.7,4.7-4.6,4.3c-2.1-0.3-2.5-2.8-0.5-3.2C589.1,119.8,590.8,119.5,592.6,119z"/>
		<path class="st153" d="M586,99.4c-2.4,2.2-2.4,2.2-5.8,2.1C581.9,99.6,584,99.5,586,99.4z"/>
		<path class="st154" d="M574,43c-3.2-4.3-8-3.9-12.1-2.7c-5.6,1.6-10.8-0.6-16.2-0.5c-1,0-2.1-0.8-2.9-0.4
			c-11.1,5.3-23,0.2-34.4,2.4c-2.8,0.5-6.7-1.3-10.1-3.4c-5.3-3.3-11.9-2.9-18-1.6c-2,0.4-4.1,0.9-6.1,1.5c-2.8,0.9-4.5-0.1-4.7-2.5
			c-0.2-2.7,2.8-2.1,4.1-2c10.3,0.8,20.6,0.5,30.9,0.2c6.5-0.2,13.1,1.2,19.4-0.9c3.8,1.6,7.8,0.1,11.6,0.9c1-5.7,5.7-3.1,8-2.6
			c9.2,2,18.3-0.6,27.6,0.4c5.5,0.6,11.2,0.2,16.7,1.3c6,5.2,7,9.6,4.1,17.9c-6.2,0.3-10.9-3.5-16.1-5.9
			C575.1,44.5,574.4,43.9,574,43z"/>
		<path class="st155" d="M340,30.1c-1.3-0.3-3,0.5-4-1c1.1-1.1,2.3-2.4,4.1-1.3C341.1,28.5,341,29.4,340,30.1z"/>
		<path class="st156" d="M67,22.2c0.7-0.1,1.4-0.1,2-0.2c0.4,3.1-0.7,4.5-4.9,6.2c-1-0.4-2-0.8-3-1.1C61.5,23.6,64.8,23.6,67,22.2z"
			/>
		<path class="st67" d="M68.3,41.1c-1.7-2-1.2-3.5-0.9-5.2C68.9,37.8,68.9,37.8,68.3,41.1z"/>
		<path class="st157" d="M643,74c0.7-0.3,1.3-0.7,2-1c0,0.6,0,1.3,0,1.9c-0.1,1.3-0.5,3.1-2,2.6C640.8,76.7,642.6,75.2,643,74z"/>
		<path class="st158" d="M576,44c5.3,2.3,10.7,4.6,16,6.9c-1,1.5,0.5,0.8,1,1.1c0.3,0.9-0.1,1.3-1,1c-4.2,0.7-4.2,0.7-4.5,6.3
			c-1.7-0.6-2.6-1.9-3.5-3.3c0.3-1,1.4-1.3,2-2c-0.5-1.2-1.3-1.9-2.6-2c-5.3-1.5-10.6,0.2-15.9-0.1c-5.7-0.2-11.4-0.3-17.1,0
			c-5.7,0.1-11.4-0.3-17.1,0c-4,0-8-0.1-11.9-1.1c-1.6-0.7-4,0.2-4.6-2.4c0.8-1.7,2.4-1.8,3.8-1.6c6.6,0.7,12.9-2.4,19.4-1.9
			c0.7,0,1.3,0,2,0c10-2,20.1-1,30.1-0.3C573.4,44.8,574.6,43.8,576,44z"/>
		<path class="st69" d="M585.9,54.1c0,1.3-0.7,1.9-2,2c-3,0.2-1.5,2.5-1.3,3.7c0.1,1.2,1.5,2.4-0.6,3.1c-1.7,0.5-2.9-0.1-3.2-2
			c-0.2-1.3-0.6-2.6-0.8-3.8c0.2-1,1.2-1.4,1.9-1.9C581.9,54.8,583.9,54.4,585.9,54.1z"/>
		<path class="st137" d="M579.8,55.1c-0.3,0.9-1,1.5-1.9,1.9c-1.7,0-3.3,0-5,0c-1.7-0.6-3.5-0.2-5.2-0.1c-1.5,0.1-3.4,0.6-3.7-1.9
			C569.3,55.1,574.6,55.1,579.8,55.1z"/>
		<path class="st69" d="M592,53c0.3-0.3,0.7-0.7,1-1c1.3-0.6,1.2-2.8,3.5-2.5c-0.2,2.8-2.3,4.2-4.2,5.1C591.1,55.1,592,53.6,592,53z
			"/>
		<path class="st159" d="M336,51c-2.6,0.4-5.1,0.7-7.7,1.1c-4-1.8-8.4,0-12.5-1c-5.7,0-11.4-0.2-17-0.2c-2.8-0.6-5-2.6-7.5-3.8
			c-1.9-0.9-2.6-2.5-1.8-4.5c0.2-0.2,0.4-0.4,0.6-0.6c2.4,0.1,1.7-2.5,2.7-3.6c2.1,1.1,1.4,3.7,2.9,4.9c1.7-0.9,0.1-2.1,0.4-3.1
			c0.2-0.6,0.5-1.2,0.7-1.8c0.6,0.2,1.5,0.3,1.7,0.7c2,5.2,2.8,0.3,4-0.5c1.9,1.7,1.6,3.6,0.4,6.1c2.2-0.3,3.7-0.6,5.2-0.8
			c2.1-0.4,4-0.1,4.9,2.1c0.3,0.9,0.5,1.6,1.6,1.1c0.9-0.4,0.5-0.9,0.1-1.5c-0.9-1-1-2.3,0.1-3.1c0.9-0.7,1.9,0.2,2.7,0.7
			c1.6,0.8,2.5,0.9,4.4-0.4c2.1-1.4,5.3,0.3,6.5,5.3c0.8-5,3.4-6.8,6.1-6.5c3.2,0.4,0.1,5,3.1,6.4c1.2-1.7-0.6-4.9,2-5.4
			c2.3-0.5,0.8,2.4,1.7,3.4c3-4.4,4.8-4.9,10.5-1.9c1.9,1,3.1,1.6,5.1-0.2c2.3-2,3.1-0.1,3.1,2.1c2.3,2.1,0.9,3.4-1.2,3.2
			c-1.6-0.1-2.4-0.1-3,1.3c-1.4,2-3.5,0.2-5.1,1C345.8,50.4,340.8,52.1,336,51z"/>
		<path class="st115" d="M239,48.9c-0.8-1.1-2.6-1.3-3-2.9c1.5,0.2,0.9-8.3,4.2-1c2-3.3,4.8,0.1,7.1-0.9c0.2-0.1,0.4-0.1,0.5-0.1
			c2-7.4,5-5.4,8.3-0.9c0.9,1.3,1.7,0.2,2.4-0.5c1.1-1,2.4-1.2,3.7-0.3c2.2,1.4,4.3,3,6.6,0.2c0.2-0.2,1.6-0.1,1.8,0.3
			c1.7,3,3.2,1.9,4.1-0.3c2.4,0.8-0.3,6.1,4.3,3.6c0.4,0.4,0.7,0.8,0.7,1.3c0.1,1.5-0.6,2.5-1.8,3.2c-6.7,0.4-13.4,0-20.1-0.4
			c-4.8,0-9.5-0.1-14.3-0.1C242.1,50,240.3,50.4,239,48.9z"/>
		<path class="st160" d="M355.1,50.1c1.4,0-0.8-5.9,3.5-1.9c1.8,1.7,2.2-0.6,1.5-2.2c2.7-1.3,5.7,0.6,8.5-1.5c1.9-1.4,2,1.9,3.1,2.7
			c2.3-0.3,0.1-4.1,3-3.8c2.1,0.2,2.3,2.1,2.7,4c0.7-1.5,1.3-2.6,2-4.2c1.4,2.4,2.7,5.1,5.1,1.2c0.9-1.4,2-0.9,3.2,0.4
			c1,1.2,1.1-0.2,1.3-0.9c4.2,3.3,11.1-0.4,14.2,5.6c-0.3,3.1-3,1.5-4.4,2.3c-6.3-1.4-12.6,0.2-18.9,0.1c-1,0.3-2,0.6-2.9,0.9
			c-0.9-2.2-2.6-1.1-4.1-0.9c-1-0.1-2.1-0.1-3.1-0.2c-3.5-0.4-7.1-0.6-10.6-0.5C357.5,51.4,356.2,51.2,355.1,50.1z"/>
		<path class="st161" d="M540,45c-0.4,0.9-1.3,2.1-2.1,1.8c-5.8-2-10.9,3.1-16.7,1.3c-1.3-0.4-3-0.5-4.2,0.9
			c-1.6,2.8-4.6,2.3-5.9,0.9c-4.1-4.4-9.1-3.2-13.9-3.4c-5.6-0.2-11.2-1.1-16.8-0.5c-1,0.1-2-0.3-2.5-1.3c0-0.2,0.1-0.5,0.1-0.7
			c2.2-2.6,4.9-1,7.4-1c8.2,0.1,16.5,0,24.7,0.7c6.8,0.6,13.4,0.5,20.2-0.3C533.2,43.1,537.2,41.9,540,45z"/>
		<path class="st161" d="M437,43c6-0.6,12.1-2.1,17.9-1.9c7.6,0.3,15.6,0.2,23.1,2.8l0,0c-1.6,2.8-4.5,3.1-7,2.5
			c-9.7-2.4-19.4-0.6-29.2-0.3c-0.3,0.1-0.6,0.1-0.9,0.3c-1.3,0.5-2.3,3-4,1.2C435.5,46.4,435.6,44.6,437,43z"/>
		<path class="st160" d="M417.2,52.9c-2.5,0-5-0.1-7.5-0.1c-0.3-2.1-1.9-1.1-3-1c-1.6,0.1-2.9,0.1-3.2-1.9c1.2-2.8,2.1-6.2,6.4-3.8
			c3,2.3,6,1.9,9,0c3.7,1,7.3,1.9,10.6-1.1c0.4-0.3,1,0.6,1.4,1.1c0,0.6,0,1.2,0,1.9c0.5,0.7,0.6,1.5,0.3,2.3
			c-2,2.5-4.8,1.6-7.4,1.7c-3.1-1.2-6.4,0-8.8-0.5C415.6,51.4,417,50.8,417.2,52.9z"/>
		<path class="st162" d="M409.9,46c-3.7-0.9-4.6,2.1-6,4.3c-0.2,0-0.4-0.1-0.6-0.1c-2.7-2.1-5.4-4.3-9.3-2.7c-3.3,1.4-2.3-3.8-5-3.5
			c5.2-4,10.3,0,15.5,0.1C406.3,44.2,409.4,41.9,409.9,46z"/>
		<path class="st163" d="M279.1,47.1c0-0.4,0-0.8,0-1.1c-0.5-1.3-2.3-2.2-1.8-3.9c0.4-1.2,0.7-2.9,1.6-3.4c1.4-0.8,2.6,0.8,2.9,2
			c0.7,2.7,1.8,1.2,3.1,0.7c1.8-0.7,3.8-1.4,5.3,0.7l-0.1,0.1c-1.7,2.3-3.9,4.4-3.2,7.7C283.5,52.4,281.1,51.6,279.1,47.1z"/>
		<path class="st164" d="M431,50c0-0.7,0-1.4,0.1-2.1c2.5,0.2,1.9-2.5,3.2-3.6c0.9-0.8,1.2-2.1,2.7-1.3c0.1,1.4,0.1,2.9,0.2,4.3
			c2.6,0.9,1.1-3.8,3.8-2.3c1.1,1.1,1.6,2.4,1.5,4c-0.2,1.5-0.4,2.9-1.5,4c-2.4,0-4.8,0-7.2,0c-0.2-1.1,0.6-1.3,1.4-1.3
			c-0.6-0.2-1.2,0.1-1.8,0.1C432.3,51.7,431.4,51.2,431,50z"/>
		<path class="st161" d="M576,44c-0.7,1-1.8,1.8-2.9,1.7c-9.9-1-19.8-1.7-29.7-0.1c-0.4,0.1-0.9-0.4-1.4-0.6
			c3.4-1.6,6.7-2.5,10.7-2.2c7.1,0.6,14.2,0.1,21.4,0.1C574.8,43.1,575.5,43.2,576,44z"/>
		<path class="st164" d="M431,46c-1.3-0.8-1.9,0.2-2.9,0.8c-3.2,2.1-6.4,2.9-9.1-0.8c1.8-3.6,5.3-0.3,7.6-1.8
			C427.4,46.4,431.3,41,431,46z"/>
		<path class="st165" d="M229,50.9c-7.3-0.3-14.7-0.6-22-0.9c-0.1-0.6-0.8-1.5,0-1.7c6.4-1.2,12.9-0.1,19.4-0.2
			C227.9,48.1,229.2,49,229,50.9z"/>
		<path class="st166" d="M239,48.9c6.7,0.7,13.5-1,20.1,1c-0.5,0.9-1.6,0.4-2.1,1c-8.9,0-17.9-0.1-26.8-0.1
			C232.6,47.7,236,49.1,239,48.9z"/>
		<path class="st49" d="M161.2,51.1c-1.7,0.9-3.4,1.3-5.2,0.2c0-0.5,0-0.9,0-1.4c0.7-1,1.8-1,2.9-0.8c0.1,0.2,0.2,0.5,0.2,0.7
			C158.8,52.1,160.6,50.5,161.2,51.1z"/>
		<path class="st167" d="M279.1,47.1c2,1.8,3.5,5.5,7.1,2.1c4.1-2.2,7.9,0.1,11.9,0.7c6.3,0.6,12.8-0.8,19,0.9
			c0.5,0.4,0.5,0.8,0,1.1c-11.7,0-23.5,0-35.2,0c-1,0-2,0.2-2.8-0.6c-0.3-0.5-0.9-0.8-1-1.5C278.7,49.1,279.1,48.2,279.1,47.1z"/>
		<path class="st168" d="M379.9,52c0.3-0.8,0.9-1.6,1.7-1.4c5.8,1.4,11.6-1.4,17.3,0.4c1,0.8,2.5-0.1,3.3,1.3
			c-2,1.2-4.2,0.3-6.2,0.8C390.7,51.9,385.2,54.1,379.9,52z"/>
		<path class="st169" d="M278,50c0.3,0.5,0.7,1,1,1.5c-7.3,0.6-14.6,0-21.9-0.5c0.7-0.3,1.4-0.7,2.1-1c1.4-2.8,3.3-0.2,5-0.3
			C268.7,49.3,273.4,49.8,278,50z"/>
		<path class="st170" d="M355.1,50.1c4.2,0.1,8.3,0.4,12.5,0.3c1.3,0,2.3-0.4,2.2,1.4c-5.8,1.1-11.7,0-17.6,0.3
			c-1.1,0.3-1.5-0.2-1.2-1.2C352,49.2,354,51.8,355.1,50.1z"/>
		<path class="st171" d="M351,50.9c0.4,0.4,0.8,0.8,1.2,1.2c-4.9,0.9-9.9-0.8-14.9,0.4c-1,0.3-1.3-0.7-1.4-1.6
			C341,50.4,346,49.3,351,50.9z"/>
		<path class="st172" d="M317,52c0-0.4,0-0.8,0-1.1c3.7,0.3,7.8-2,11.2,1.2C324.5,52,320.8,52,317,52z"/>
		<path class="st173" d="M372.9,52c0.9-1.6,2.2-2.6,4-1.8c1.7,0.8,0.8,1.8,0,2.7C375.6,52.7,374,53.2,372.9,52z"/>
		<path class="st174" d="M512.9,52.9c-15.3,0-30.7-0.1-46-0.1c-0.2-1,0.2-1.8,0.8-2.6c0.9-1.3,2.3-2,3.9-1.8c6.6,1,13.2,0,19.8,0.9
			c6.8,0.9,13.8-1.2,20.5,1.2c0.5,0.2,1,0.2,1.3,0.6C513.5,51.7,513.5,52.3,512.9,52.9z"/>
		<path class="st175" d="M551,51c5.8-0.1,11.5,0,17.3-0.3c3.5-0.2,7.1,1.1,10.6-0.5c2.1-1,3.3,0.4,4.5,1.8
			c-10.4,1.8-21,1.1-31.5,0.7C551.1,52.4,550.2,52.1,551,51z"/>
		<path class="st176" d="M512.9,52.9c0-0.6,0.1-1.3,0.1-1.9c2.5-1.4,5.4-0.1,8-0.9c3.7,0.3,7.3,0.6,11,0.9c0.6,1.2-0.5,1.4-1,2
			C525,53,518.9,52.9,512.9,52.9z"/>
		<path class="st100" d="M531,53c0.3-0.7,0.7-1.3,1-2c6.3,0,12.7,0,19,0c0.3,0.6,0.6,1.2,0.9,1.8C544.9,52.8,537.9,52.9,531,53z"/>
		<path class="st177" d="M441,53c0-1.4-0.8-3,1-4c3.5,0.4,7.2-1.3,10.3,1.5c0.1,1-0.6,1.7-1.2,2.3C447.7,52.9,444.4,52.9,441,53z"/>
		<path class="st178" d="M451.1,52.8c0-0.9,0.2-1.6,1.1-2c3.5-1.9,13.1-1.9,16,0c-0.4,0.6-0.8,1.3-1.2,1.9l-0.4,0.1l-0.4-0.1
			c-3.7-0.7-7.5,0.2-11.2-0.5C453.6,52.5,452.3,52.6,451.1,52.8z"/>
		<path class="st179" d="M431,50c1.5,1.1,3.5,0.8,5.6,1.3c-1.2,0.7-1.9,1.1-2.7,1.6c-3.3-1.4-6.7,0.9-9.9-0.3
			c-0.8-0.3-1.3-0.7-1-1.7C425.7,50.6,428.5,51.6,431,50z"/>
		<path class="st180" d="M402.2,52.3c-1.1-0.4-2.5,0.1-3.3-1.3c1.4-0.3,2.9-0.5,4.3-0.8c0.2,0.1,0.4,0.1,0.6,0.1
			c1.9,1.1,3.7-0.1,5.6,0c0.7,0,2.2,0.1,1.8,1.5c-0.1,0.4-1,0.7-1.6,1C407.2,52.6,404.7,52.4,402.2,52.3z"/>
		<path class="st181" d="M423,51c0.3,0.6,0.6,1.1,1,1.7c-2.3-0.2-4.6-0.9-6.8,0.2c-1.2-0.4-2.4-0.8-4.3-1.5
			C416.6,49.8,419.8,50.6,423,51z"/>
		<path class="st137" d="M562.9,55.1c-3,2.4-6.6,1.7-10,1.7c-0.2-1.5,1.3-0.9,1.9-1.5C557.5,55.2,560.2,55.1,562.9,55.1z"/>
		<path class="st182" d="M554.8,55.2c-0.6,0.5-1.3,1-1.9,1.5c-2.6-0.2-5.3-0.4-7.9-0.6c0-0.4,0-0.7,0-1.1
			C548.3,55.1,551.5,55.2,554.8,55.2z"/>
		<path class="st174" d="M454.9,52.3c3.7-0.2,7.5-0.8,11.2,0.5C462.3,52.8,458.5,53.8,454.9,52.3z"/>
		<path class="st183" d="M471.8,55.2c-3.3,1.2-6.5,1.6-9.8-0.1C465.3,55.1,468.6,55.1,471.8,55.2z"/>
		<path class="st184" d="M514,107c-1.4-0.1-2.7-0.1-4.4-0.2c1.2-1.3,3-1.3,3.3-2.9c2.4,1.6,3.9-1.6,6.3-1.2c1.2,0.2,2.8-0.5,3,1.3
			c0.1,1.3-0.8,2.6-2.3,2.8C518,107,516,106.9,514,107z"/>
		<path class="st185" d="M468.1,50.9c-5.3-0.3-10.7-0.5-16,0c-2.5-2.2-5.4,0-8.1-0.6c-1.1-0.2-1.6-0.4-2-1.2c-0.7-1.2-1.2-2.5-1-4
			c8.8,0,17.7-2.2,26.5-0.3c3.7,0.8,7,1.1,10.5-0.6c1,1.3,2.4,1.1,3.7,0.9c7.9-1.2,15.7,0.9,23.6,0.5c1.8-0.1,4.4,0,5.9,2.7
			c1.1,2.1,3.7,1.8,5.9,0.8c1.1,1.3,3.1-0.7,4,1.1c-2.4,2.6-5.4,0-8,0.9c-3.5-0.3-7.7-1.6-10.4-0.9c-7.7,1.9-15.2-1-22.8,0.2
			c-2.2,0.3-4.6-0.2-6.9-0.6C471,49.2,469.5,49.4,468.1,50.9z"/>
		<path class="st186" d="M298,49.9c-4,0.7-7.9-0.5-11.9-0.7c-2.6-4.5,1.5-5.3,3.8-7.1c-0.2,2.1,0.3,3.6,2.7,4.4
			C294.7,47.2,296.3,48.8,298,49.9z"/>
	</g>
</g>
<g id="Camada_2" class="st187">
</g>
</svg>
