<?xml version="1.0" encoding="utf-8"?>
<!-- Generator: Adobe Illustrator 25.0.0, SVG Export Plug-In . SVG Version: 6.00 Build 0)  -->
<svg version="1.1" id="Camada_1" xmlns="http://www.w3.org/2000/svg" xmlns:xlink="http://www.w3.org/1999/xlink" x="0px" y="0px"
	 viewBox="0 0 615 173" style="enable-background:new 0 0 615 173;" xml:space="preserve">
<style type="text/css">
	.st0{display:none;}
	.st1{display:inline;stroke:#FFFFFF;stroke-miterlimit:10;}
	.st2{fill:#111313;}
	.st3{fill:#454748;}
	.st4{fill:#4A4E4D;}
	.st5{fill:#262A2B;}
	.st6{fill:#44494B;}
	.st7{fill:#7D7F7F;}
	.st8{fill:#3A3E3F;}
	.st9{fill:#181B1B;}
	.st10{fill:#1B1D1E;}
	.st11{fill:#4D5151;}
	.st12{fill:#535758;}
	.st13{fill:#5B5F60;}
	.st14{fill:#666B6C;}
	.st15{fill:#252829;}
	.st16{fill:#35393A;}
	.st17{fill:#525759;}
	.st18{fill:#404444;}
	.st19{fill:#3B3F40;}
	.st20{fill:#353839;}
	.st21{fill:#858B8C;}
	.st22{fill:#1C1F20;}
	.st23{fill:#0B0C0C;}
	.st24{fill:#0B0C0D;}
	.st25{fill:#0A0B0B;}
	.st26{fill:#08090A;}
	.st27{fill:#1E2021;}
	.st28{fill:#242728;}
	.st29{fill:#212425;}
	.st30{fill:#080909;}
	.st31{fill:#060707;}
	.st32{fill:#5C615D;}
	.st33{fill:#676C6D;}
	.st34{fill:#35393C;}
	.st35{fill:#CDD4D3;}
	.st36{fill:#2B2E2F;}
	.st37{fill:#1E2122;}
	.st38{fill:#E8EFEE;}
	.st39{fill:#636F75;}
	.st40{fill:#787F81;}
	.st41{fill:#545958;}
	.st42{fill:#292E2F;}
	.st43{fill:#5E625F;}
	.st44{fill:#292C2C;}
	.st45{fill:#101212;}
	.st46{fill:#7B8182;}
	.st47{fill:#0C0E0E;}
	.st48{fill:#545859;}
	.st49{fill:#424647;}
	.st50{fill:#55595A;}
	.st51{fill:#0E1010;}
	.st52{fill:#414546;}
	.st53{fill:#363B3D;}
	.st54{fill:#42474A;}
	.st55{fill:#848A8C;}
	.st56{fill:#252828;}
	.st57{fill:#828889;}
	.st58{fill:#707576;}
	.st59{fill:#282B2B;}
	.st60{fill:#3D4244;}
	.st61{fill:#D5DDDB;}
	.st62{fill:#333738;}
	.st63{fill:#565B5C;}
	.st64{fill:#797E7F;}
	.st65{fill:#4A4E4F;}
	.st66{fill:#1C2020;}
	.st67{fill:#151717;}
	.st68{fill:#222727;}
	.st69{fill:#323739;}
	.st70{fill:#525656;}
	.st71{fill:#222526;}
	.st72{fill:#232828;}
	.st73{fill:#494D4B;}
	.st74{fill:#373B3E;}
	.st75{fill:#373C3F;}
	.st76{fill:#303435;}
	.st77{fill:#3A3E40;}
	.st78{fill:#A7B0B2;}
	.st79{fill:#232627;}
	.st80{fill:#4A545A;}
	.st81{fill:#595D5E;}
	.st82{fill:#262929;}
	.st83{fill:#383B3B;}
	.st84{fill:#DCE1E0;}
	.st85{fill:#CAD5DB;}
	.st86{fill:#212324;}
	.st87{fill:#525657;}
	.st88{fill:#2A2D2E;}
	.st89{fill:#717779;}
	.st90{fill:#9CA2A3;}
	.st91{fill:#232626;}
	.st92{fill:#050505;}
	.st93{fill:#010101;}
	.st94{fill:#494D4D;}
</style>
<g id="Camada_2_1_" class="st0">
	<rect x="-258" y="-134" class="st1" width="716" height="406"/>
</g>
<g id="Camada_1_1_">
	<g>
		<path class="st2" d="M163.1,148.8c2.1-0.8,1.4-2.8,1.7-4.2c2.6-14.9,7.8-28.7,15.9-41.4c5.5-8.6,11.5-17,13.2-27.5
			c3.2,0,4.3,1.9,4.5,4.8c0.2,3.5-1.3,6.4-2.9,9.4c-5.6,10.6-12.2,20.6-16.9,31.6c-5.6,13-7.5,26.8-9.1,40.7
			c-0.4,3.1-0.8,6.6-5.4,5.9c-0.5-0.8-0.4-1.6-0.4-2.4c-0.3-3.6,0.6-7.2-0.5-10.7C163.1,152.8,163.1,150.8,163.1,148.8z"/>
		<path class="st3" d="M231.1,171.8c0.1,0.3,0,0.7-0.1,1c-21.3,0-42.6,0-64-0.1c-1.3,0-3.1,1.1-4-0.9c0.5-0.4,1-0.7,1.6-1
			c9.7-1.1,19.5-0.3,29.2-0.5c7.6-0.1,15.2,0,22.8,0c1.8,0,3.7,0.3,5.2-1c2.6-2.3,1.4-6.7,4.6-8.7c2.1,0.6,2.5,2.8,3.9,4.1
			C231.5,166.9,228.1,169.7,231.1,171.8z"/>
		<path class="st4" d="M450.8,10.1c0.3,0,0.6,0,0.9,0c0,1.7,0,3.3,0,5c-1.4,1.3-3,1.5-4.7,1.3c-0.5-0.2-0.8-0.6-1-1.1
			c-0.5-1.6-0.4-3.1,0.4-4.5C447.7,9.6,449.2,9.2,450.8,10.1z"/>
		<path class="st5" d="M446.8,16.2c1.5-1.1,3.2-1.1,4.9-1c0,0.3,0,0.7,0,1c-0.9,0.9-0.2,2.2-0.8,3.2c-1.5,1.6-3.1,1.9-4.9,0.3
			C445.7,18.3,445.7,17.1,446.8,16.2z"/>
		<path class="st6" d="M164.5,171.5c-0.5,0.1-0.9,0.1-1.4,0.2c0-2,0-4,0-6c0.3-0.5,0.6-0.4,0.9,0c0.1,0.7,0.1,1.3,0.2,2
			c0.9,1,2.4-0.1,3.2,1C168.3,171.6,165.8,170.9,164.5,171.5z"/>
		<path class="st7" d="M450.5,19.2c0.4-1-0.3-2.5,1.2-3.1c0,3.7,0,7.3,0,11c-0.4-0.1-0.7-0.1-1.1-0.2c-0.4-0.4-0.7-0.9-0.9-1.4
			C449.2,23.3,449.5,21.2,450.5,19.2z"/>
		<path class="st8" d="M164,165.8c-0.3,0-0.6,0-0.9,0c0-3.7,0-7.3,0-11C165.2,158.3,163.6,162.1,164,165.8z"/>
		<path class="st9" d="M445.9,36.1c0.9,4.7,1.8,9.4,1.1,14.3c-0.4,2.9-1.7,3-3.8,2.9c-4.7-0.1-9.3-0.1-14,0c-1.4,0-3.2-0.7-3.5,1.6
			c-2.6,4-6.7,1.8-10.2,2.5c-10.4,0.1-20.7-0.3-31.1,0.3c-3.5-0.2-7-0.2-10.5-0.7c-2.6-1.1-6.1-0.1-7.9-3.1
			c-0.9-2.9,1.4-3.1,3.1-3.1c6.1-0.3,12.1-1.2,18.4-0.7c11.9,0.9,23.9,0.9,35.8,0c1.5-1,1.1-2.6,1.2-4.1c0-0.7,0-1.5-0.2-2.2
			c-0.4-2.1-2-1.8-3.5-1.7c-13.6,0.8-27.2-0.2-40.7,1.3c-3.5,0.4-7.1,0.7-10.4-0.2c-4.8-1.2-7.6,0.3-8.8,5c-0.5,0.7-1.2,1.2-1.9,1.6
			c-2.6,0.8-5,0.9-7.2-1c-0.4-0.4-0.7-0.8-0.9-1.3c-1-3.7-3.6-4.6-7.1-4.8c-10.3-0.6-20.6,0.8-30.8,0c-10.1-0.8-20,0.8-30,1.2
			c-2.3,0.1-2.6,1.6-2.7,3.4c-0.2,1.4-0.8,2.6-1.8,3.6c-5.4,2.6-7.7,1.9-10.3-3c0.8-2.9,0.3-4.7-3.3-4.3c-1.4,0.1-3,0.7-4.1-0.8
			c0.8-5.4,2.1-6.5,8.7-6.9c3.1-0.1,6.2-0.2,9.3,0.3c3.9,1.4,7.7,0,11.5-0.6c41.5,0.1,83,0,124.5,0c3.2,0,6.3,0,9.4,0.2
			c2.9-0.1,5.9-0.1,8.8,0.3c3.2,0.9,6.4,1.2,9.7,0.3c0.6-0.4,1.3-0.7,2.1-0.7C445.1,35.6,445.5,35.7,445.9,36.1z"/>
		<path class="st10" d="M371.8,62.1c-9.2,0.1-18.5,0.2-27.7,0.2c-2.2,0-4.2,0.3-5.9,1.9c-5.2,2.3-10.7,1.1-16.1,1
			c-7.7-2.8-15.8-1.4-23.7-1.7c-3.8-0.1-7.6,0-11.4,0c-0.6,0-1.1,0-1.7,0c-3.5,0.8-7.1,1-10.7,0.9c-2.5,0.1-4.7,1.5-7.2,1.6
			c-3.3-0.3-4.9-1.9-4.1-5.3c2.4-3,6-2.6,9.2-3.1c22,0.2,44-0.1,66-0.1c8.5-0.2,17,0.3,25.5-0.4c2.8,0.8,5.9,0,8.6,1.4
			C374,60.1,373.1,61.1,371.8,62.1z"/>
		<path class="st11" d="M230,164.8c-2.7-0.1-3-2.1-3.1-4.1c-1.4-1.6-1-3.4-0.5-5.2c3.6-12.6,7.5-25.1,11.1-37.6
			c0.5-1.9,1-3.9,2.6-5.2c3-0.9,4.4,0.3,4.3,3.3c-0.1,4.5,0.1,9.1-2.2,13.4c-0.8,1.6-1.8,3.6-0.5,5.6c-2.3,8.4-4.7,16.9-7,25.3
			c-0.2,0.8-0.6,1.5-1.6,1.7C232.1,162.8,231.6,164.3,230,164.8z"/>
		<path class="st12" d="M260.2,102c-2.1,1.3-4.1,2.6-6.2,3.9c-3-2.6,0.1-4.9,0.3-7.3c2.5-6.7,2.1-8.3-3.3-12.6
			c-1.1-0.8-1.9-1.7-2.2-3.1c-0.4-3.2,0.9-6,2.1-8.9c0.5-0.9,1-1.8,1.6-2.6c4.9-1.6,9.1-5,14.4-5.7c1.2,2-0.3,3.4-1.2,4.8
			c-1.2,1.8-1.5,3.9-2,6c-1.1,3.9-2.6,7.8-2.4,12c1.9,2.9,4.7,5.3,4.8,9.1C265.4,100.8,261.1,99,260.2,102z"/>
		<path class="st13" d="M266,97.9c-2-3-4-6-6-9c1.9-1.5,3.6-0.8,5.4,0.2c2.4,1.4,5,2.3,7.8,2.6c2.4,0.5,4.8,1.1,7,2.2
			c3.7,1.3,7.6,1,11.3,0.8c8.4-0.6,16.8,1,25.2,0.1c4.3-0.5,5.3,1,4.6,4.6c-15.2-0.2-30.5,0.6-45.7-0.4c0,0,0,0.1,0,0.5
			C291.4,99,307.2,100,323,99c1.2-0.1,2.3,0.1,3.1,1.1c-2.2,1-4.6,0.6-6.9,0.6c-18.4,0.1-36.9,0.1-55.3,0.1
			C263.6,99.1,266.2,99.5,266,97.9z"/>
		<path class="st14" d="M321.9,98.9c-1.7-4.4-5.3-2.6-8.4-2.7c-11.3-0.2-22.5-0.5-33.8-0.7c-0.2,0-0.4-0.5-0.7-0.7
			c1.8-1.6,4-1.3,6.1-1.3c7.4-0.1,14.8-0.1,22.2,0c4.8,0.1,9.5-0.3,14-2.1c0.5,0,1,0.1,1.4,0.3c1.3,0.7,0.9,3.8,2.7,2.8
			c1.7-0.9,3.6-2.4,3.9-5.1c0.4-4.8,0.1-9.6,0.3-14.4c0-1.3,0.1-2.7,0.6-3.9c0.9-1.3,1.7-2.6,3.6-2c-1.1,8.8-1.4,17.7,0.3,26.5
			c0.3,1.5,1,3-1.3,3.3C329.2,98.4,325.6,100.4,321.9,98.9z"/>
		<path class="st15" d="M255,98.9c0.6,2.5-2.5,4.4-1,7c-3.7,3.2-5.8,7.3-7.1,11.9c-1.2,0.3-2.3-0.4-2.3-1.3c0.1-3.1-1.9-5.2-3.2-7.6
			c-0.7-4.3,0.9-7.7,4.1-10.3c2.9-0.5,5.9,0.1,8.8-0.1C254.6,98.6,254.8,98.8,255,98.9z"/>
		<path class="st16" d="M333.9,69c-1,0.7-2,1.3-3,2c-1.3,1.1-3,0.4-3.2-0.6c-0.9-4-2,0.5-2.8-0.2c-2.1-1.5-3.9-3.1-3.2-6.1
			c5.5,0,11.1,0,16.6,0.1C336.8,65.8,335.3,67.4,333.9,69z"/>
		<path class="st17" d="M445.9,36.1c-0.4,0-0.8-0.1-1.2-0.1c-2.2-1.5-2.6-3.8-2.7-6c-0.3-3.8,0.4-7.5,0.7-11.3
			c0.2-2.2,1.1-3.9,3.9-2.7l0.4,0.2c0,1.3,0,2.6,0,4c1.4,1.9,1.4,4.7,3.8,5.9c0,0.3,0,0.6,0,0.9c-2.6-0.1-4.2,0.7-3.8,3.9
			C447,32.5,447.8,34.6,445.9,36.1z"/>
		<path class="st18" d="M321.9,98.9c3.6,1.3,7.2-2.5,10.9-0.1c-2,1.7-4.4,1.4-6.7,1.3c-17.3,0-34.6,0-51.8,0c0-0.4,0-0.8,0-1.2
			C290.2,98.9,306,98.9,321.9,98.9z"/>
		<path class="st19" d="M242,108.9c2.7,0.6,2.5,3,2.9,4.9c0.3,1.6,0.2,3.2,2,4c-0.9,5.9-4.4,11-5.1,17c-1.2,0.5-2,0.4-1.6-1.1
			c0.6-2.1,0.9-4.3,2-6.1c2.7-4.2-0.9-8.9,1.3-13.1c0.4-0.8-1.4-1.6-2.7-1.7C239.9,111.2,239.4,109.6,242,108.9z"/>
		<path class="st20" d="M230,164.8c0.1-2,1.8-2.3,3.2-2.9c0,3.5-0.3,6.9-2.1,10C225.8,170.3,230.1,167.2,230,164.8z"/>
		<path class="st21" d="M415.8,55.9c3.3-0.5,6.7,0.5,9.9-1c0,1.4,0,2.8,0,4.1c-1.4,1.2-3,1.1-4.7,0.8c-1.8-0.5-3.8-0.5-5.4-1.7
			C415.2,57.4,415.2,56.7,415.8,55.9z"/>
		<path class="st22" d="M415.8,62.1c-2,0.4-4,0.4-6,0c-1.1-1.9-3.6-1.6-5.1-3c-0.2-0.5-0.1-1,0.3-1.4c3.9-1.4,7.5-0.6,11,1.2
			C416.7,60,416.5,61.1,415.8,62.1z"/>
		<path class="st23" d="M399.8,62.1c-2,0.5-4,0.4-6,0c-0.8-1-1.1-2.2-0.6-3.4c2.4-2.3,4.8-2.3,7.2,0C400.9,59.9,400.6,61,399.8,62.1
			z"/>
		<path class="st24" d="M388.8,62.1c-2,0.4-4,0.4-6,0c-0.8-0.9-0.9-2-0.5-3.1c0.4-0.8,1.1-1.2,1.9-1.5c2-0.5,4-0.9,5.2,1.4
			C389.9,60.1,389.6,61.1,388.8,62.1z"/>
		<path class="st25" d="M371.8,62.1c0.3-1.1,0.6-2.2,0.9-3.3c1.9-2.7,3.8-2.2,5.7-0.1c0.5,1.2,0.2,2.3-0.6,3.3
			C375.8,62.5,373.8,62.6,371.8,62.1z"/>
		<path class="st26" d="M415.8,62.1c0-1.1-0.1-2.2-0.1-3.3l-0.2-0.4l0.3-0.3c1.7,0.2,3.5-0.5,5,0.8c0.7,1.1,0.8,2.1,0,3.2
			C419.1,62.5,417.4,62.5,415.8,62.1z"/>
		<path class="st16" d="M266,97.9c3.4,3.8-2.8,0.9-2,2.9c-1.3,0.4-2.5,0.9-3.8,1.3C260.6,99.8,260.6,99.8,266,97.9z"/>
		<path class="st27" d="M399.8,62.1c0-1.1,0.1-2.2,0.1-3.3c1.6-1.2,3.2-1.2,4.8,0.1l0.2,0.3c0.8,1,0.6,2-0.2,2.9
			C403.1,62.5,401.5,62.5,399.8,62.1z"/>
		<path class="st28" d="M377.8,62c0-1,0-2,0-3.1c1.7-1.4,3.4-1.4,5,0.1c0,1,0,2,0,3C381.1,62.5,379.5,62.6,377.8,62z"/>
		<path class="st29" d="M388.8,62.1c0-1.1,0-2.1,0-3.2c1.7-1.4,3.4-1.2,5,0.2c0,1,0,2,0,3C392.1,62.5,390.5,62.5,388.8,62.1z"/>
		<path class="st29" d="M420.8,62.1c0-1.1,0-2.1,0-3.2c1.6,0.1,3.2,0.1,4.8,0.2C426.5,64.2,423,62,420.8,62.1z"/>
		<path class="st30" d="M404.8,62.1c0.1-1,0.1-1.9,0.2-2.9c2.3-0.1,5.1-1.1,4.8,2.9C408.1,62.5,406.4,62.5,404.8,62.1z"/>
		<path class="st31" d="M242,108.9c-1.3,1-0.9,2.6-1.1,3.9c-4.7,12.7-8,25.8-11.9,38.7c-0.9,3-2.6,5.8-2.1,9.1
			c-1.9,2.8-1.8,6.1-3,9.1c-0.7,1.4-2,1.7-3.4,1.4c-13.7-2.1-27.5-0.4-41.2-1c-2.4-0.1-5.1,0.5-6.7-2.1c2.1-22.5,8.5-43.8,18.2-64.2
			c3.8-7.9,7.2-16,11-24c0.4-0.6-1-0.2-0.3-0.2c0.2,0,0.2,0.2,0,0.5c-7.2,16.9-15.9,33.2-21.5,50.8c-3.4,10.7-5.1,21.6-7,32.5
			c-0.2,1.2-0.4,2.3-0.8,3.4c-1.1,2.8-3,3.2-5.4,1.8c-1-0.2-2.2,0.3-2.7-1.1c2.8-0.5,3.8-2.2,3.9-4.9c1.4-22.9,7.7-44.2,20.6-63.4
			c2.9-4.3,5.1-8.9,7.3-13.6c1.8-3.8,2.3-7.6-2.1-10.2c-0.2-0.3-0.1-0.5,0.2-0.7c1.4-1.4,3.2-1.1,4.9-1.2c1.5-0.1,2.9-0.1,3.2-2
			c0.6-2.2,1.9-4.1,2.6-6.2c0.9-2.6,2.2-5,3.4-7.5c0.4-0.8,0.8-1.6,1.1-2.5c0.9-2.9,1.5-5.9,4.2-7.9c1.9-1.2,4-2,5.6-3.6
			c0.7-0.7,1.3-1.6,0.7-2.6c-2.4-4.3,0.5-4.5,3.5-4.6c3.6-0.2,5.7,1,5.4,5c-0.7,4.2-3,7.3-6.6,9.4c-1.7,1-3.5,2.1-4.3,4
			c-5.2,11.8-11.7,23-16.6,35.9c4.5-1.7,7.4-4.1,10.3-6.9c4.7-4.7,8.8-9.9,12.9-15.1c1.2-1.5,2.2-3.6,4.8-2.4c0.9,1.6,0.1,2.9-0.9,4
			c-6.3,6.8-9.6,16.3-18.4,20.9c-2.8,1.4-0.9,5.1-3.2,6.9c-0.7,0.1,0.2,0.2-0.5,0.2c-8.3-0.9-11.4,4.4-14.1,11
			c-6.6,16.4-11.8,33.1-14.4,50.6c-0.5,3.3,0.4,5.1,4.1,5.1c10,0.1,19.9-0.2,29.9-0.1c3.3,0,4.7-2.1,5.6-4.7
			c1.6-4.7,2.9-9.5,4.2-14.3c3.5-13,8.5-25.5,11.7-38.6c1.2-4.8,0.7-5.7-4-7.2c-5.6-1.7-11.4-2.1-17.2-2.7c-2.5-2.2-0.2-2.7,1.3-2.9
			c3.8-0.5,7.6-0.5,11.4,0.2c2.9,0.6,5.9,1.2,8.7,2.1c5.8,1.9,6.8,3.4,5.1,9.1c-5.2,17-10.1,34.1-15.5,51
			c5.8-17.2,11-34.7,16.3-52.1c0.6-1.9,0.9-3.9-0.1-5.8c0-2.3,0.7-4,3.1-4.8c2.1,0.7,3,2.4,3.5,4.3
			C243.8,101.9,242.2,105.1,242,108.9z"/>
		<path class="st32" d="M195,13.8c0.3-0.3,0.7-0.6,1-1c3.4,0.7,6.9,0.7,10.4,0.7c25.3,0,50.5,0,75.8,0c2.5,0,5-0.1,7.5,0.3
			c13.1,3.5,26.3,1.9,39.5,1.1c13-0.6,25.9-0.2,38.9-0.3c3,0,6,0,8.9-0.6c16.5-0.3,32.9-0.4,49.4,0.1c8.8,2.4,8.9,2.4,8.8,11.4
			c0,3.4,0.7,7-0.8,10.3c-2.4,1.3-2.3-0.9-2.6-2.1c-0.6-2.2-0.3-4.6-0.3-6.9c-0.1-7.1-0.1-7.1-7.3-6.2c-9.8,0.5-19.6,0.2-29.4,0.2
			c-33.4,0-66.7,0.1-100.1,0c-3.4-0.3-6.9,0.2-10.3-0.1c-3.3,0-6.7,0.2-10,0c-2.7,0.1-5.4,0.1-8.1,0c-3-0.1-6,0.1-9,0
			c-3.3-0.1-6.6,0.2-9.9,0c-3,0.1-6.1,0.1-9.1,0c-3.4,0.1-6.8,0.1-10.2,0c-9.5,0.2-19.1,0.3-28.6,0C193.8,20.4,192.9,18.6,195,13.8z
			"/>
		<path class="st33" d="M290,15.1c-29.6,0-59.2,0-88.9,0c-1.9,0-4.6,1.1-5.2-2.2c1-1.7,2.5-2.6,4.2-3.4c3.8-0.7,7.7-0.7,11.6-0.8
			c2.2,1.1,4.7,1.1,7.1,1.7c2.3,0.6,3.2-0.2,2.3-2.5V7.5c0.8-1.3,2.1-0.8,3.1-0.8c21.3,0,42.5,0,63.8,0c1,0,2-0.2,2.9,0.5l0,0
			c1.5,2.3,3.9,1.5,5.9,1.5c41.7,0,83.4,0,125,0c1.8,0,3.7-0.1,5.5,0.1c1.2,1.2,0.1,1.6-0.7,2.2c-2.7,1.1-5.6,0.8-8.4,0.8
			c-39.4,0-78.8,0-118.1,0c-2.5,0-5-0.2-7.4,0.5C291.4,12.8,290.9,14.1,290,15.1z"/>
		<path class="st34" d="M195,13.8c-1.5,4.2,0.2,5.5,4.4,5.4c9.6-0.2,19.2,0,28.8,0.1c1.2,5.5-2.2,15.8-6,18.3
			c-9.7,1.6-19.5,0.7-29.2,0.9c-1.7,0-3.3,0.1-4.9-0.5c-2.5-1.4-1.3-3.3-0.6-5.1c1.2-3,3-5.7,4.4-9c-1.7,1.4-2.1,3.2-3.4,4.4
			c-1.1,1-2.2,1.7-3-0.3c0.1-3.2,1.2-5.8,3.9-7.7C190.9,17.8,192.4,15.4,195,13.8z"/>
		<path class="st35" d="M189.3,20.3c-1.1,2.6-2.2,5.1-3.4,7.7c-0.9,3.1-1,6.4-1.8,9.5c-0.2,0.4-0.4,0.8-0.6,1.2
			c-1,1.7-1.7,3.6-3.1,5.1c-1.2,1-2.3,2.4-4.2,1.6c5.5-8.9,5.5-9-2.7-15.9c-2.3-1.9-4.3-4-6.2-6.4c-2.1-2.7-3.4-5.7-0.7-8.5
			c2.7-2.7,5.7-1.3,8.3,0.8c-1.1,1.2-2.6,1-4.1,1.2c-3.2,0.5-3.8,1.8-1.2,4.1c1.8,0.8,3.2,2.2,4.9,3.1c2.6,1.2,4.7,4.6,8.1,1.7
			c1-3.3-1.6-4.3-3.6-5.8c-1.6-1.2-4.3-1.5-4.2-4.4c1.2-0.2,2.2,0.1,3.3,0.7c4.4,2.4,4.4,2.4,8.3-0.2
			C187.5,17.2,188.4,18.8,189.3,20.3z"/>
		<path class="st36" d="M182.9,58.2c-1.7-0.7-3.4-1.4-5-2c1.8-2.1,4.4-2,7-2.2c0.3-1.4-1.7-2.4-0.9-4c0.6-0.5,1.3-0.6,2-0.5
			c5.1,2.4,9,6.1,12.7,10.2c0.8,0.9,1.4,1.9,1.6,3c0.4,2-0.3,3.7-1.8,4.9c-1.8,1.5-3-0.2-4.3-1.2c-0.9-0.7-1.7-1.6-2.7-2.2
			C188.6,62.4,186.9,58.6,182.9,58.2z"/>
		<path class="st37" d="M184,50.1c0.8,1.9,3.3,2.7,3.7,5.5c-3.5-1-6.7-0.1-9.9,0.5c-2.6-0.4-5.1-0.8-7.7-1.3
			c-2.5-1.6-0.9-2.7,0.5-3.5c1.4-0.8,3.1-1.1,4.7-1.5C178.3,49.7,181.2,47.7,184,50.1z"/>
		<path class="st38" d="M221.1,7.9c0.7,0.8,0.9,2.5,0.3,2.5c-3.3,0.1-6.9,2.2-9.6-1.3C209,7.7,205.5,9.6,203,7
			c1-1.1,2.4-1.1,3.6-0.9c4.3,0.7,7.1-0.9,8.4-5c4,1,5.1,3.8,4.7,7.5c-0.1,0.9,0.1,1.3,0.9,0.6C221,9,221,8.3,221.1,7.9z"/>
		<path class="st39" d="M182.9,58.2c1.9-1.4,3.3-0.6,4.7,0.8c1.4,1.4,2.9,2.7,4.4,4c0.8,2.1,3.2,3.5,2.7,6.1
			c-0.1,0.6-0.9,0.8-0.8,1.5c-3-0.7-3-3.9-4.7-5.7C187.1,62.8,185,60.4,182.9,58.2z"/>
		<path class="st40" d="M175.1,51.1c-1.3,0.3-2.5,0.7-3.8,0.9c-1.9,0.3-2,1.4-1.1,2.8c-1.6,0-3.1-0.5-3.1-2.4c0-1.6,1.2-2.8,2.8-3
			c2.9-0.3,4.6-2.2,6.4-4.2c1.3-0.7,2.5-1.5,3.8-2.2C181.3,47.5,176.9,48.5,175.1,51.1z"/>
		<path class="st41" d="M203,7c2.2,0,4.5,0,6.7,0c1.5,0,2.6,0.2,2.1,2.1c-3.9,1.6-7.8,1.4-11.7,0.3C201.1,8.6,202.1,7.8,203,7z"/>
		<path class="st42" d="M194,70.6l0.1,0.4l0.4,0.1c2.9-0.5,5.7,0.5,8.5,0.8c1.2,2.3-0.2,2.9-2.1,2.9c-2.3,0.1-4.6,0-6.8,0.1
			C193.6,73.5,193,72.1,194,70.6z"/>
		<path class="st38" d="M427.8,9.3C394,9.2,360.3,9.2,326.5,9.1c-10.5,0-21,0-31.4-0.1c-1.5,0-3.9,1.2-4.2-1.9c2.1,1.3,4.5,1,6.8,1
			c44.8,0,89.5,0,134.3,0.1c0.1,0.6,0,1-0.5,1.4C430.2,10.2,428.9,10.3,427.8,9.3z"/>
		<path class="st38" d="M290.9,7.2C268.3,7.1,245.6,7.1,223,7c-0.6,0-1.3,0.3-1.9,0.5c0.8-1.9,2.5-1.3,3.9-1.3c20.8,0,41.5,0,62.3,0
			C288.6,6.1,290,5.8,290.9,7.2z"/>
		<path class="st43" d="M431.8,9.1c0.2-0.3,0.2-0.6,0.2-0.9c0.9-0.7,0.4-2.9,2.5-2.1c3.5-2.5,7.8-0.6,11.4-2.2
			c0.6,2.8,1.3,5.7,4.9,6.2c-1.4-0.1-2.8,0.3-4,1.1c-4.9,0.5-9.8,1.1-14.7-0.5C431.6,10.2,431.4,9.7,431.8,9.1z"/>
		<path class="st44" d="M445.9,3.9c-0.7,3.1-3.2,2.1-5.1,2.2c-2.1,0.1-4.2,0-6.3,0C436-0.1,438.2-0.5,445.9,3.9z"/>
		<path class="st45" d="M173.1,166.8c0.5,2.8,2.7,2,4.3,2c11.1,0,22.2,0,33.3,0c3.2,0,6.6-0.8,9.5,1.7c1.1,0.9,2.5-0.1,3.7-0.7
			c-0.2,2.6-2.3,2-3.8,2c-18.6,0-37.1-0.1-55.7-0.2c0.4-1.2,2.9-0.6,2.4-2.7c2,0,3.9-0.3,5.2-2.1
			C172.4,166.3,172.7,166.3,173.1,166.8z"/>
		<path class="st46" d="M431.9,10.2c5,0.4,10.1-1.2,14.9,0.9c-0.1,1.6-0.2,3.2-0.3,4.8c-1.7,0.1-2.8,0.8-2.8,2.7
			c0.1,5.8-1.5,11.7,1,17.3c-0.3,0.3-0.7,0.6-1,0.9c-0.7,0.8-1.4,0.7-2.2,0.1c-2.1-4.5-0.6-9.3-1.1-13.9c-0.2-1.8,0.7-4-1.4-5.3
			c-0.7-0.2-1.5-0.3-2.2-0.4c-3-0.4-5.3-1.8-6.3-4.9C430.3,11.4,430.7,10.5,431.9,10.2z"/>
		<path class="st47" d="M450.6,26c-5.7,0.9-3.5-3.3-3.8-5.9c1.2-0.3,2.5-0.6,3.7-0.9C450.6,21.5,450.6,23.7,450.6,26z"/>
		<path class="st34" d="M293.8,19.3c43.7,0,87.3-0.1,131-0.1c1.9,2.1,1.6,4.8,1,7.1c-1,3.6-1.1,7.1-1,10.8c-43.7,0-87.5,0-131.2,0
			c-1.6,0-3.4,0.5-4.7-1C287.9,29.7,290.4,24.3,293.8,19.3z"/>
		<path class="st23" d="M223,37.1c2.3-5.8,3.7-11.8,5.1-17.8c3.3,0,6.5-0.1,9.8-0.1c1.8,2.1,0.4,4.1-0.1,6.1
			c-0.5,2.1-1.2,4.1-1.7,6.2c-0.4,1.4-1.8,3.4,0.8,4.1c2,0.5,3.6-0.3,4.3-2.4c0.9-2.7,1.7-5.4,2.4-8.1c0.6-2.3,1.4-4.5,3.4-5.9
			c3.2,0,6.5,0.1,9.7,0.1c1,4.2-1.4,7.7-2.1,11.5c-0.3,1.6-1.9,3.8,0.7,4.7c2.4,0.8,3.6-1.1,4.3-3.2c1-2.8,1.9-5.7,2.9-8.5
			c0.7-1.9,1.4-3.7,3.4-4.7c2.6,0,5.2,0.1,7.8,0.1c0.8,0.7,1.1,1.7,0.8,2.7c-1.6,5.2-2.6,10.5-5.6,15.1c-4.6-0.5-7.4,1.3-8,6
			c1.6,2,0.3,4,0.1,6c-2,5.5-3.2,11.3-5.2,16.8c-0.4,0.9-1,1.8-1.9,2.3c-3.5-2.2-7.1-2-10.8-0.4c-2.6,1.1-5.4,1.5-8.2,2
			c-1.3,0.2-2.9,0.4-3.7-0.8c-1-1.5,0.5-2.3,1.4-3.2c0.6-0.5,0.1-1.2,0-1.8c1.3-4,5-6.1,8.2-6.3c8.2-0.6,11-5.5,12-12.5
			c0.1-0.8,0.6-1.5,0.6-2.5c-1.2-1.1-2.4,0-3.6,0.2c-2.1,0.4-4.7,1.2-6.4,0.2c-5.1-3.2-10.3-1.9-15.6-1c-0.4-2.9-1.5-4.9-5-4
			c-0.3-0.2-0.5-0.4-0.3-0.7C222.8,37.2,222.9,37.1,223,37.1z"/>
		<path class="st48" d="M364.7,58.1c-8.6,1.5-17.2,0.6-25.8,0.8c-10-1.4-20.1-0.8-30.1-0.9c-7.9,0-15.9-0.1-23.8,0.1
			c-2.1,0.1-4.7,0.6-4.1-3c2.1-1.5,4.4-0.1,6.6-0.4c2.2-0.3,4.6,0.5,6.4-1.5c3-6.7,9.1-4.6,14.3-5c11.8-0.8,23.6,0.6,35.5,0.6
			c2.8,0,5.3-1.8,8.2-0.8c2.2,1.6,4.6,1,7,1c3.3-1.1,4.9,0.9,6.3,3.3c-0.3,1.6-1.1,3.1,0,4.7C365.2,57.5,365,57.9,364.7,58.1z"/>
		<path class="st15" d="M279,47.1c-1.1-4.2,0.2-6,4.7-4.6c0.5,0.1,1.1,0.5,1.4,0.4c6.3-2.7,13.4,0.2,19.3-2.2c3.8-1.6,5.9,1,9,0.9
			c7.4-0.2,14.8-1,22.2-0.5c3.3,0.2,6.6,0.1,9.9,0.1c3.9,0.1,6.1,2,6.3,6c-6.4,2.7-13.2,1.4-19.7,1.2c-15.7-0.3-31.3,0.1-46.9,0.1
			C283,48.4,280.8,48.7,279,47.1z"/>
		<path class="st28" d="M359.8,48c2.4-6.9,2.4-6.1,10.1-6.1c14.8,0,29.7-1,44.5-1.6c3.4-0.1,6.6,0.9,10.1-0.6
			c1.6-0.7,0.8,2.8,1.1,4.5c-1.7,4.3-5.4,4.4-9.2,4.4c-15.6,0-31.3,0.1-46.9,0C366.4,48.5,363,49.9,359.8,48z"/>
		<path class="st49" d="M359.8,48c18.9-2.1,37.8-0.5,56.8-0.9c3.5-0.1,6.5-0.4,9.1-2.9c0,0.6,0,1.3,0,1.9c0.4,1.6-4.2,3.2,0,4.9
			c-0.4,0.3-0.8,0.8-1.2,0.8c-13.1-0.1-26.2,1.1-39.3-0.5c-6-0.7-11.8,1.2-17.8,0.8c-1.3-0.1-0.6,1.2-0.6,1.9
			c-1.1,0.6-1.9,0.6-2.1-0.9c-1.3-2.3-3.5-3.4-5.9-4.1C359.2,48.7,359.5,48.3,359.8,48z"/>
		<path class="st50" d="M254.9,66c1.7-5.7,3.4-11.3,5-17c2.5-3.1,5.7-2.7,8.9-1.8c1.7,5.1,5.1,4.6,9,2.7c1-0.6,2.1-0.9,3.2-0.2
			c1,1.2,1,2.5,0.5,3.9c-2.7,2.7-5.9,4.5-9.6,5.3c-2.7,0.6-5.5,0.5-8,2c-2,1.7-3.9,3.4-5.7,5.3C257.3,67.4,255.7,68.7,254.9,66z"/>
		<path class="st51" d="M293.8,19.3c-1.6,5.6-3.3,11.2-4.9,16.8c-3.1,3.1-6.5,2.5-9.9,0.9c-0.9-6.7,0.9-12.6,5.1-17.8
			C287.3,19.2,290.5,19.2,293.8,19.3z"/>
		<path class="st52" d="M280.9,50c-1,0-2,0-3-0.1c0.4-1,0.8-1.9,1.1-2.9c21.7,0,43.3-0.1,65,0c2.6,0,5.2-1.1,7.8,0
			c0,0.3,0,0.6,0.1,0.9c-2.6,1.6-5.3,2.2-8.4,2.1c-8-0.2-16.2,0.8-23.9-0.5c-6.3-1.1-12.3,1.6-18.4-0.1c-3.8-1.1-4.1,3-6.1,4.6
			c-0.7-0.1-1.1-0.5-1.4-1.1c-0.2-0.8-0.1-1.6-0.4-2.4c-2.6-2.5-6-0.6-8.9-1.5c-0.1,0-0.2,0-0.3,0.1c0.1,0.2,0.1,0.3,0.2,0.5
			c-0.3,1-1.1,1.3-2.1,1.2C281.6,50.6,281.2,50.4,280.9,50z"/>
		<path class="st53" d="M284,19.2c-2.2,5.8-4,11.7-5.1,17.8c-3.3,0-6.6,0-9.8,0.1c0.5-6.2,4.3-11.6,4.8-17.8
			C277.2,19.2,280.6,19.2,284,19.2z"/>
		<path class="st54" d="M424.8,37c-2.5-2-2.1-5.1-1.3-7.2c1.5-3.6,1.1-7.1,1.2-10.7c1.1-0.3,2.2-0.7,3.3-0.9
			c3.1-0.6,4.8,0.1,4.8,3.9c0,4.6-1.1,9.4,0.8,14c0.1,0.2,0.2,0.4,0.4,0.6c-0.1,0.2-0.2,0.4-0.4,0.6C430.7,37.2,427.7,37.1,424.8,37
			z"/>
		<path class="st55" d="M393.8,59.1c-1.7-0.1-3.3-0.1-5-0.2c-1.4-1.6-3.5-0.4-5.1-1.1c-0.3-0.2-0.4-0.4-0.3-0.7
			c0.1-0.2,0.2-0.3,0.2-0.3c0.6-1.1,1.6-1,2.6-1c9.8,0,19.6,0.1,29.4,0.1c0,0.7,0,1.4,0,2.1c0,0.3,0,0.5-0.1,0.8
			c-3.6,1.2-7.3-2.5-11,0.1c-1.6,0-3.2-0.1-4.8-0.1C397.8,57.7,395.8,57.6,393.8,59.1z"/>
		<path class="st56" d="M268.9,47.2c-2.8,1.5-6.2,0-8.9,1.8c0.4-2,0.7-4,1.1-5.9C267.4,40.8,269.4,41.8,268.9,47.2z"/>
		<path class="st57" d="M383.7,56.8c0,0.3,0,0.7,0,1c-0.3,0.4-0.6,0.8-0.9,1.3c-1.7,0-3.3-0.1-5-0.1c-1.7-1.3-3.4-1.2-5.1-0.2
			c-2.7,0.2-5.5,1-8-0.6c0-0.4,0-0.7-0.1-1.1c2.9-2,6.2-1.6,9.4-1.2C377.3,56.1,380.7,54.9,383.7,56.8z"/>
		<path class="st58" d="M374,55.9c-3.1,0.4-6.3,0.8-9.4,1.2c-1.5-0.1-1.9-0.9-1.8-2.3c0.1-1.2,0.8-1.6,1.9-1.7
			c0.5,0.7,1.2,1,2.1,0.9C369,55.6,371.8,54.7,374,55.9z"/>
		<path class="st59" d="M276.6,45.8c-0.1,1.5-1.1,2.6-2.4,2.8c-1.5,0.3-2.6-0.9-2.9-2.2c-0.4-1.7,0.9-2.8,2.5-3
			C275.3,43.3,276.1,44.6,276.6,45.8z"/>
		<path class="st48" d="M425.6,51c-1.7-0.1-3.5,0.4-5.6-0.7c1.7-1.8,4.4-2.1,5.6-4.1C425.7,47.7,425.6,49.4,425.6,51z"/>
		<path class="st60" d="M441.7,36.9c0.7,0,1.3,0,2,0c-3.3,2-6.6,1.5-10,0.4l0.3-0.4c0.4-0.3,0.8-0.6,1.3-0.7c1.5-0.4,3-0.3,4.5-0.2
			C440.4,36.1,441.1,36.5,441.7,36.9z"/>
		<path class="st16" d="M271.9,59c3.4-1,4.9-5.6,9.2-4.9c0.8-0.2,1,0.1,0.8,0.9c-1.3,2.6,0.8,2,2,2.1c5,0.1,10,0,15,0
			c12.4,0.2,24.8-0.5,37.2,1c1,0.1,2,0.1,2.7,0.9C316.6,58.9,294.3,59,271.9,59z"/>
		<path class="st61" d="M279.7,83c-2-3.2-4.2-6.4-4.6-10.3c0.5-0.9,1.2-1.7,2.2-1.7c5.6,0.3,6.5-3.4,6.8-7.8c0.2-0.5,0.6-0.8,1-1.1
			c0.3-0.1,0.6,0,0.8,0.2c-0.1,5.2,0.5,10.5-2,15.4c-0.5,1-1.8,2.4,1,3.2c2,0.6,0.7,3.4,0.8,5.2c-1.1,1.5-2.1,2.1-3.4,0.2
			C281.6,85.1,281.6,83.3,279.7,83z"/>
		<path class="st62" d="M268,65c-0.3,0.4-0.6,0.7-0.9,1.1c-4.6,2.2-8.9,5.1-14.1,6c-1.4-1.7-0.5-3,0.8-4.2c0.1-0.8,0.2-1.5,1-1.9
			c1.9,1.9,2.4-0.2,3.2-1.2c1.5-2,2.9-4,5.8-3.7C263.7,64,265.2,65.2,268,65z"/>
		<path class="st63" d="M285.2,62.2c0,0.3,0,0.6-0.1,0.8c-3.3,4.6-6.4,5.1-11,2c-0.1-0.6-0.2-1.2-0.4-1.8
			C277.5,62.9,281.3,62.5,285.2,62.2z"/>
		<path class="st9" d="M253.9,67.9c-0.3,1.4-0.5,2.8-0.8,4.2c-0.3,0.7-0.7,1.3-1,2c-1.8,1.1-1.6,3.1-2.2,4.7
			c-2.7,8-8,11.5-16.4,10.7c-2.8-0.3-5.2,0.5-7.7,1.6c-2.1,0.9-4.1,2.2-6.6,1.8c7.2,1.2,14.7,1.1,20.8,6.1c1.2,1.6,1.9,3.1,1.2,5.4
			c-5.6,17.6-11,35.3-16.5,53c-0.5,1.5-1.1,3.2-3.6,3.9c0.5-6,3.1-11.2,4.6-16.6c3.6-12.9,7.6-25.7,11.7-38.4c1.5-4.5,1-6.7-4.2-8
			c-7-1.8-13.9-2.8-21-2.2c-0.1,0-0.2,0.2-0.2,0.3c0,0.2,0.1,0.3,0.1,0.5c0.2,1.8-0.5,3.3-2.4,3.4c-1.3,0.1-2.9-0.3-2.6-2.4
			c-1.2-3.8,0.1-6.3,3.6-8.4c4.3-2.5,7.9-6,10-10.6c2-4.6,6.6-7.3,8.4-11.9c-0.1-2.8,1.9-3,4-2.9c0.7,1.4,0.5,2.3-1.3,4.9
			c5.2-0.3,9.7-1.9,14.4-3.4C249.1,64.5,252.2,64.1,253.9,67.9z"/>
		<path class="st51" d="M240,98.9c-7.1-2.6-14.5-4.3-23.5-5.5c7.5-2.1,12.5-7.3,19.9-4.7c3.3,1.2,11-4.8,12.5-9
			c0.8-2.3,1.7-4.6,2.5-6.8c0.1,0.1,0.3,0.1,0.4,0.2c0.1,0.3,0.2,0.6,0.3,1c-0.8,3-1.5,5.9-2.3,8.9c-0.6,1.5-0.3,3.2-1.5,4.5
			c-2.9,1.7-3.6,5-5.4,7.5C241.2,95.7,240.8,97.5,240,98.9z"/>
		<path class="st64" d="M262.8,77c-1.9,8.7,3.6,12.7,10.2,16c-4.9,0.6-8.2-4.3-13-4C260.5,84.8,260.8,80.7,262.8,77z"/>
		<path class="st9" d="M248,86.8c0.2-1.4,0.8-2.7,1.8-3.8c0.2,1.3,1.1,1.7,2.2,2.2c5.4,2.2,7.1,9.4,2.9,13.7l0,0
			c-0.9-0.6-1.3-1.3-1.2-2.5c0.8-6.4,0.8-6.4-5.2-9C248.3,87.4,248.1,87.1,248,86.8z"/>
		<path class="st13" d="M322.7,91.6c4.5-6.8,2.9-14.3,2.3-21.6c1.5-1.1,0.3-3.2,2-5.1c-0.3,3.6,0.5,5.9,3.9,6.2c0,7.5,0,15,0,22.8
			c-0.4,0.9-3-3.5-2.7,0.8c0.1,1.5-2.4,2.5-4,2.1C321.3,95.9,323,93.3,322.7,91.6z"/>
		<path class="st65" d="M248,86.8c7.4,0.6,9,3.2,6.7,10.3c-0.2,0.5,0.2,1.2,0.4,1.9c-3,0.9-6,1.3-9,0c-1.5-1-2.8-2.1-3.1-4
			C242.7,91,244.3,88.3,248,86.8z"/>
		<path class="st22" d="M207,97.9c2.3,3.2,3.6,0.8,5-1c6.4-0.8,12.5,0.9,18.6,2.4c5.4,1.3,5.8,2.8,4.2,8.1
			c-5.1,16.5-9.9,33.1-14.8,49.6c-0.6,2.1-1.4,4.1-2.1,6.1c-0.9,2.7-2.7,3.7-5.7,3.7c-10.1-0.2-20.2-0.1-30.3-0.1
			c-6,0-6.8-1-5.6-7.1c1.9-9.6,3.9-19.2,6.7-28.7c3.2-10.7,7.4-20.8,12.1-30.8c0.9-1.9,2.2-2.2,4-2.2
			C201.7,97.9,204.4,97.9,207,97.9z"/>
		<path class="st66" d="M233,64c-1,1.4-3.4,0.9-4,2.9c-3.8,1.3-5.1,4.9-7.3,7.6c-5.1,6.5-10.4,12.8-17.9,16.9
			c-1.2,0.7-2.7,2.2-4,0.9s0.5-2.7,1-3.9c4.7-10.2,9.5-20.4,14.3-30.7c1.6-3.4,3.3-6.4,7-7.9c3.3-1.4,4.4-4.8,5.8-7.8
			c4.6-2.1,8.8-4.9,14-0.5c2.2,1.8,6.4,0.7,9.6-0.5c1.1-0.4,2.3-0.8,3.3,0.2c0.9,0.9-0.1,1.8-0.3,2.7c-0.6,2.2-1.5,4.4-1.8,6.6
			c-1,6.4-5.7,7.2-10.9,8C238.3,59.1,235.5,61.5,233,64z"/>
		<path class="st67" d="M223,37.1c0,0.3,0,0.7,0,1c-1.1,0.1-2.2,0.2-3.7,0.3c1.7,2.4,3.9,4.5,0.6,6.7c-2.3-3.7-5.5-5.4-9.9-4.7
			c-1.7,0.3-2.7,1-2.9,2.7c-0.1,1.7,0.9,2.3,2.3,2.6c1.7,0.4,3.7,0.2,4.5,2.4c-2.2,2.2-2.6,5.4-4,8c-0.9-0.4-1.3-1.2-1.7-2.1
			c-0.7-2.9-2.2-1.6-3.6-0.6c-2.6,0.2-4.9-0.9-7.2-1.7c-2.5-1.7-2.9-4.1-2.5-6.9c0.7-3.1,3-3.8,6.5-3.3c-2.1-1.8-3.8-0.6-5.3-1
			c-1.5-0.5-3-1.2-4.3-2.2c-0.3-0.4-0.2-0.8,0.1-1.2C202.4,37.1,212.7,37.1,223,37.1z"/>
		<path class="st68" d="M173.1,166.8c-0.3,0-0.7,0-1,0c1.2-18.2,6.4-35.4,13.2-52.1c5.1-12.5,11.1-24.7,16.7-37
			c0.4,0.2,0.7,0.3,1.1,0.5c-1.5,3.6-3.1,7.3-4.6,10.9c-5.1,12.1-11.6,23.5-15.6,36c-4.2,12.9-7.6,25.9-8.9,39.5
			C173.9,165.2,173.4,166,173.1,166.8z"/>
		<path class="st52" d="M203,72c-3.1,2-5.8,0.4-8.5-0.8c0.4-3.1-2.7-5.1-2.4-8.1c1.8,1.5,3.5,2.9,5.3,4.4c3-2.9,2.3-5.3-0.4-8.1
			c-3.4-3.5-7.4-6.1-10.9-9.3c2.8-2.1,5.2,1.1,7.9,0.4c1.9,0.2,2.9,1.3,3.6,3c2.1,4.6,6.8,7.6,8.4,12.5C205,68,204,70,203,72z"/>
		<path class="st69" d="M214,48.1c-1.3-0.8-2.8-0.9-4.3-1.1c-1.9-0.2-4.6,0.3-4.1-3.3c0.4-2.7,0.7-4.8,4.6-4.7
			c7.3,0.2,8.7,0.7,9.8,6C218.1,46.3,216.4,47.8,214,48.1z"/>
		<path class="st70" d="M206,66c-3.1-3.9-7.3-7-8.8-12c0.6-0.6,1.4-0.7,2.2-0.6c2.6,0.9,4.9,2.3,7.7,2.7c1,0.1,2.3,0.4,2.1,2.1
			C208.1,60.7,207,63.3,206,66z"/>
		<path class="st71" d="M209.2,58c-3.2-1.6-7.4-0.9-10.1-4c-0.8-0.9-1.8-1.7-1-3c2.5,0,4.7,1,6.9,2c1.5-0.3,2.9-0.2,4,0.9
			c0.8,0.4,1,1.2,1.1,2.1C209.8,56.7,209.5,57.4,209.2,58z"/>
		<path class="st72" d="M215.9,52.2c-3.2,6.4-6.4,12.9-9.6,19.3c-0.4-0.2-0.7-0.4-1.1-0.5c3.1-6.5,6.3-13.1,9.4-19.6
			C215,51.6,215.5,51.9,215.9,52.2z"/>
		<path class="st73" d="M290,11.2c1.2-1.8,3-1.1,4.6-1.1c44.1,0,88.1,0,132.2,0c1.8,4.8-1.6,4.4-4.5,4.4c-13.5,0-27.1,0-40.6,0
			c-1.6,0-3.3-0.5-4.8,0.5c-1.5,1.6-3.4,0.9-5.2,1c-14.3,0.1-28.5,0-42.8,0c-0.2-2.1,1.5-1,1.8-1.3c-11,1.8-22.6,0.4-34.2,0.7
			C293.5,15.6,290.4,15.3,290,11.2z"/>
		<path class="st74" d="M247.1,19.2c-1.5,4.9-2.9,9.7-4.4,14.6c-0.9,2.9-5.9,4.7-8.4,3.1c-1.7-1.1-0.4-2.4-0.1-3.5
			c1.3-4.7,3.2-9.3,3.9-14.2C241,19.2,244,19.2,247.1,19.2z"/>
		<path class="st75" d="M266,19.1c-2.7,4.7-3.9,9.9-5.4,14.9c-1.3,4.1-4.3,3.3-6.8,2.8c-3.4-0.6-1.1-3.3-0.7-4.8
			c1-4.3,2.4-8.6,3.7-12.9C259.8,19.2,262.9,19.2,266,19.1z"/>
		<path class="st76" d="M290,11.2c2.9,5,7.8,2.8,11.9,2.9c10.6,0.3,21.2,0.1,32.3,0.1c-1.8,1.6-4.1,0-5.3,1.8
			c-1.8,1.2-3.7,1.1-5.7,1.1c-7.3,0-14.5,0-21.8,0c-3.9,0-7.9,0.3-11.4-2.1C290,13.8,290,12.5,290,11.2z"/>
		<path class="st77" d="M376.8,15.1c5.7-2.3,11.7-0.9,17.5-1.1c9.4-0.4,18.8,0,28.2,0.2c2.8,0,4.4-0.9,4.3-4c0.3-0.3,0.7-0.6,1-0.9
			c1.3,0,2.6-0.1,4-0.1c0,0.4,0.1,0.7,0.1,1.1c-0.4,0.6-0.8,1.3-1.1,1.9c-0.5,2-2,2.9-4,3C410.1,15.1,393.5,15.1,376.8,15.1z"/>
		<path class="st78" d="M426.8,15.1c1.3-1,2.6-2,4-3c1.7,1.8,2.9,4.4,6.1,4.1c-0.6,5.2-0.6,10.4-0.6,15.6c0,1.8,0,3.6-1.4,5.1
			l-0.5,0.1l-0.5-0.1c0-0.3-0.1-0.5-0.3-0.8c0-3.6-0.4-7.3,0.2-10.8C434.6,19.4,432.7,16,426.8,15.1z"/>
		<path class="st79" d="M192.1,37.1c0,0.3,0,0.6,0,1c3.2,3.4,3.4,7.4,2.5,11.6c-0.5,0.6-1.3,0.8-1.6,0.2c-1.9-3.2-4.4-5-8.4-4.3
			c-1.4,0.3-1.9-1-2-2.3c-0.1-1.8-0.3-3.6,0.4-5.3l0,0c1.1-1.3,2.3-2.3,4-1C188.7,37,190.4,37.1,192.1,37.1z"/>
		<path class="st80" d="M187,37c-1.3,0.3-2.7,0.7-4,1c1.3-3.3-0.2-7.4,3-10.1c2.1,1.3,1.9-0.9,2.5-1.7c0.7-0.9,1.2-2,1.9-2.9
			c0.7-1,1.3-2.9,2.9-1.7c1.5,1.1,0.1,2.3-0.5,3.4C190.7,28.9,188.4,32.7,187,37z"/>
		<path class="st81" d="M182.9,38c-0.2,2.2,1.7,4.1,0.3,7c6.1-2.6,9.1,0.1,10.8,5l0.3,0.4l-0.2,0.5c-3,2.9-5.3-1.9-8.1-0.8
			c-0.7,0-1.4,0.1-2,0.1c-3.1-0.7-5.9,1.2-8.9,1c0-3.7,4.8-4.4,5-8C181.2,41.5,181.3,39.3,182.9,38z"/>
		<path class="st82" d="M174,24.4c-1.6-1.1-3.3-2.2-4.9-3.3c-1.4-2.5-1.6-4.6,1.5-5.9c1.4,0,2.9,0,4.3,0l0,0
			c2.2,1.4,4.4,2.9,6.5,4.4c2.2,1.6,4.1,3.4,2.5,6.5C180.8,24.8,177.7,22.4,174,24.4z"/>
		<path class="st83" d="M174,24.4c4.2-3.4,6-3.1,10,1.6C179.7,31.1,177.1,26,174,24.4z"/>
		<path class="st84" d="M170.6,15.2c-1.6,1.7-2.4,3.6-1.5,5.9c-1.5-0.9-2.5-2.1-2.4-3.1C167,15.7,168.6,15.2,170.6,15.2z"/>
		<path class="st85" d="M434.8,36.9c0-5.2,0-10.4-0.2-15.6c-0.1-2.1,0.1-3.9,2.1-5c0.6,0,1.3,0,1.9,0c0.4,0.2,1.2,0.4,1.2,0.8
			c0.6,6.7,2.9,13.3-0.2,20C438.1,37,436.4,36.9,434.8,36.9z"/>
		<path class="st78" d="M439.7,37c1.8-7,0.2-13.9-1-20.8c2.5-0.5,3.1,0.8,3.1,3.1c-0.1,5.9-0.1,11.8-0.1,17.6
			C441,37,440.4,37,439.7,37z"/>
		<path class="st86" d="M282,54.9c-0.3-0.3-0.6-0.6-0.8-0.9c-0.1-1.3-0.1-2.7-0.2-4c0.4,0,0.8,0,1.2,0c3.1,4.3,7.9,1.8,11.8,3
			c0.3,0.3,0.7,0.7,1,1C290.9,57.6,286.4,56.2,282,54.9z"/>
		<path class="st87" d="M293.9,53.1c-3.2,2.1-6.6,0.7-9.9,0.7c-2,0-2.2-2-1.9-3.7c0.6-0.3,1.2-0.6,1.9-0.9c3.8-0.5,7.9-2.2,10.9,1.8
			C294.6,51.7,294.3,52.4,293.9,53.1z"/>
		<path class="st88" d="M294.9,51c-3.3-2.9-7.2-1.7-10.9-1.8C287.9,46.8,293,47.7,294.9,51z"/>
		<path class="st89" d="M274,65c4,1.4,7.8,1.1,11-2c0,1.2-0.2,2.3-0.1,3.5c0.4,4.1-1.5,5.7-5.5,5.6c-1.4-0.1-2.9,0.4-4.4,0.7
			C274.7,70.2,273.5,67.7,274,65z"/>
		<path class="st90" d="M279.7,83c1.9-1.4,2,0.6,2.4,1.5c0.8,1.6,1.7,2.7,3.6,1.6c-0.4,2.8-1.7,3.7-3.7,1.2
			C281.1,86.1,280.5,84.5,279.7,83z"/>
		<path class="st91" d="M254,93.2c-0.1,3-1.5,4.7-4.6,4.7c-2.8,0-4.3-1.5-4.4-4.3c-0.1-3,1.5-4.6,4.5-4.6
			C252.3,89,253.8,90.6,254,93.2z"/>
		<path class="st92" d="M194.2,50.9c-0.1-0.3-0.1-0.5-0.2-0.8c0.4-4.2-1.1-8-2-12c1.7-0.1,3.2,0.2,4,2c1.1,1.3,0.6,2.6,0.1,3.9
			c-0.1,2.6-0.4,5.2,1.9,7.1c0.3,1,0.7,2,1,3c-0.6,0-1.3-0.1-1.9-0.1C196.2,52.9,195.2,51.9,194.2,50.9z"/>
		<path class="st69" d="M196.1,43.9c0-1.3,0-2.6-0.1-3.9c1.4-0.9,3-1.2,4.7-1c1.2,0.1,3.1,0,2.4,1.9c-0.4,1-1.4,3.3-3.1,1.9
			C197.9,41.1,197.3,43.2,196.1,43.9z"/>
		<path class="st93" d="M209,54c-1.4,0-2.9,0.5-4-0.9c0.1-1.5,0.1-3.2,2.3-2.9C209.7,50.5,208.8,52.5,209,54z"/>
		<path class="st67" d="M215.6,46c-2.3,0-3.4-0.9-3.4-3c0-1.5,0.6-2.7,2.2-2.8c1.9-0.1,3.1,1.2,3.5,2.9
			C218.2,45,216.9,45.8,215.6,46z"/>
		<path class="st94" d="M248.7,95.9c-1.3-0.1-2.8-0.8-2.5-2.9c0.3-1.7,1.6-3,3.4-2.9c1.8,0.2,3.1,1.5,3.1,3.3
			C252.7,95.6,251.1,96,248.7,95.9z"/>
	</g>
</g>
</svg>
