<?xml version="1.0" encoding="utf-8"?>
<!-- Generator: Adobe Illustrator 25.0.0, SVG Export Plug-In . SVG Version: 6.00 Build 0)  -->
<svg version="1.1" id="Camada_1" xmlns="http://www.w3.org/2000/svg" xmlns:xlink="http://www.w3.org/1999/xlink" x="0px" y="0px"
	 viewBox="0 0 615 222" style="enable-background:new 0 0 615 222;" xml:space="preserve">
<style type="text/css">
	.st0{display:none;}
	.st1{display:inline;stroke:#FFFFFF;stroke-miterlimit:10;}
	.st2{fill:#0D0E0E;}
	.st3{fill:#727676;}
	.st4{fill:#C4C8C9;}
	.st5{fill:#090A0A;}
	.st6{fill:#623E26;}
	.st7{fill:#181919;}
	.st8{fill:#563420;}
	.st9{fill:#080909;}
	.st10{fill:#3C2517;}
	.st11{fill:#161717;}
	.st12{fill:#794E31;}
	.st13{fill:#050606;}
	.st14{fill:#1A1A1A;}
	.st15{fill:#30312D;}
	.st16{fill:#0D0E0D;}
	.st17{fill:#161817;}
	.st18{fill:#4C5254;}
	.st19{fill:#1B1C1A;}
	.st20{fill:#0C0D0D;}
	.st21{fill:#242523;}
	.st22{fill:#0D0D0D;}
	.st23{fill:#895B3C;}
	.st24{fill:#9D6E4C;}
	.st25{fill:#141514;}
	.st26{fill:#A88565;}
	.st27{fill:#0B0B0B;}
	.st28{fill:#9C6640;}
	.st29{fill:#1A1B1A;}
	.st30{fill:#111211;}
	.st31{fill:#6B706F;}
	.st32{fill:#757A79;}
	.st33{fill:#656A68;}
	.st34{fill:#323430;}
	.st35{fill:#616564;}
	.st36{fill:#5B5F5E;}
	.st37{fill:#545857;}
	.st38{fill:#2A3135;}
	.st39{fill:#4D2E1C;}
	.st40{fill:#222422;}
	.st41{fill:#5F3D27;}
	.st42{fill:#754A2F;}
	.st43{fill:#070808;}
	.st44{fill:#6A513A;}
	.st45{fill:#674E38;}
	.st46{fill:#2D2218;}
	.st47{fill:#565A59;}
	.st48{fill:#3D403F;}
	.st49{fill:#262B2D;}
	.st50{fill:#21211F;}
	.st51{fill:#272927;}
	.st52{fill:#262624;}
	.st53{fill:#191B1A;}
	.st54{fill:#4D5150;}
	.st55{fill:#414342;}
	.st56{fill:#747978;}
	.st57{fill:#4D504F;}
	.st58{fill:#55311B;}
	.st59{fill:#885F40;}
	.st60{fill:#845334;}
	.st61{fill:#AA7952;}
	.st62{fill:#9C653F;}
	.st63{fill:#474A49;}
	.st64{fill:#696D6C;}
	.st65{fill:#5F6463;}
	.st66{fill:#969C9A;}
	.st67{fill:#101110;}
</style>
<g id="Camada_2_1_" class="st0">
	<rect x="-48.5" y="-70" class="st1" width="773" height="405"/>
</g>
<g id="Camada_1_1_">
	<g>
		<path class="st2" d="M143.6,221.9c-2.7-2.2-6.1-3.8-4.2-8.5c0.7-1.7-1.6-1.6-2.7-2.1c-2-0.9-2.5,0.5-3.2,1.9c-2.1,4-5.4,4.7-9.1,2
			c-0.5-0.4-1.4-0.9-1.4-1.3c0.3-3.2,1-6.5-2.1-8.9c0,0,0.3-0.5,0.5-0.8c0.3-2.7,2.4-2.3,4.1-2c2.9,0.6,5.8,1.5,8.5,2.9
			c3.7,1.9,7.7,3.2,12,2.9c0.5,0,1,0.1,1.5,0.2c2.1,0.6,4.2,1.4,6.3,2c1.2,0.5,2.4,0.8,3.2,1.9c-0.1,0.9-0.4,1.4-1.4,1.1
			c-4.1,2-6.4,6-9.8,8.8C144.9,221.9,144.3,221.9,143.6,221.9z"/>
		<path class="st3" d="M511.6,38.9c0.3-0.2,0.6-0.1,0.8,0.2c0,5,0,10,0,15l-0.4,0.2l-0.4-0.1c-1.9-1.6-1.5-3.8-1.6-5.9
			c0-1.8-0.1-3.6,0-5.4C510.1,41.4,510.2,39.9,511.6,38.9z"/>
		<path class="st4" d="M387.5,0.1c-0.1,0.4-0.1,0.8-0.2,1.2c-4.2,1.8-8.5,1.8-12.7-0.1c0-0.4-0.1-0.8-0.1-1.2
			C378.8,0.1,383.1,0.1,387.5,0.1z"/>
		<path class="st5" d="M442.6,63.4c-1.4,2.6-3.8,2.7-6.4,2.9c-18,1.6-36.1,3.1-54.1,5.1c-7.2,0.8-13.8,3.9-19,9.1
			c-3.4,3.4-7.2,4.3-11.6,3.8c-0.3-2.7,1.9-2.7,3.5-3.3c2-0.7,4.2-1.2,5.9-2.6c2-1.6,5.9-2.6,1.5-6.1c-1.6-1.3-0.9-3.4,1.6-4
			c1.1-0.1,2.4,0.5,3.3-0.4c1.2-1.3,1.2-3.3,0.6-4.6c-0.8-1.5-2.3-0.4-3.4,0.2c-1,0.5-1.9,1.2-3.2,1.1c-11.4,0.2-22.7-1.2-34.1,0.6
			c-20.2,0.6-40.5,1.4-60.7-1c-4.4-0.5-6.5,2.8-9.6,4.4c-2.8-1.7-6.5-0.6-9.3-2.8c-2-0.9-4.2-1.4-6.3-1.1
			c-8.8,1.3-17.6-0.1-26.3,0.6c-3.1,0.2-6.3-0.3-8.9,2.3c-0.5,0.5-1.3,0.8-1.8,0.4c-3.8-3.1-7.4-1.1-11.2,0.1
			c-2.4,0.7-5.7,1.3-7.1-1.8c-1.4-3.3,0.8-5.6,3.3-7.5c2.7-2,5.9-2,9.1-2c20.3,0,40.6,0,60.8,0c8,0,15.9-0.3,23.9-0.6
			c3.1-0.1,5.9-0.7,8.6-2.1c1.9,0.9,3.1,3.3,5.8,2.4c1.3,0.1,2.6,0.5,3.9,0.3c1.5-0.6,4.7-0.6,0.9-2.8c-0.9-0.5-1.7-1.1-0.6-2.2
			c1.6-0.9,3.4-0.8,5.1-0.8c2.5,0.2,5.1-0.7,7.5,0.5c2,1.4,0.7,2.5-0.3,3.6c-1.1,1-2.5,0.4-4.5,0.9c4.1,0.5,7.1,0.6,9.1-2.6
			c3.2,2.5,6.8,2.8,10.7,2.7c9.8-0.3,19.5,1.1,29.4,0.8c2.3-0.1,4.4,0.1,5.1-2.7c0.4-1.6,2-2.1,3.2-3c2.2-1.6,3.4-4,2.6-6.5
			c-0.7-2.5-3.3-1.7-5.2-1.7c-27.3-0.1-54.6,0-81.9,0c-2,0-4,0-6-0.1c-3.1-0.3-4.4-2-4.3-5c0.1-2.8,1.5-4.3,4.2-4.6
			c1.2-0.1,2.3-0.2,3.5-0.2c31.9,0,63.9,0,95.8,0c4.5,0,8.6,0.8,11.8,4.3c2,2.2,2.6,4.2,0.1,6.4c-1.5,1.3-2.8,2.9-3.8,4.6
			c-2,3.6,0.7,8.9,4.3,7.6c7.8-2.7,15.5,1.2,23.2-1c3-0.8,6.1-1.2,8.9-3c3.5-2.3,7.2-3.3,11.4-2c6.9,2.1,12.1-0.6,16-6.4
			c1.3-2,3-3.5,4.4-5.4c1.7-3.2,1.1-6.5,0.5-9.8c-0.2-0.8-0.2-1.7,0-2.5c0.8-2,1.8-2,2.9-0.3c0.7,1.1,1.1,2.3,1.2,3.5
			c0.4,7,0.3,14,0.1,21c-0.2,5-1,5.7-6,5.7C443.4,55.6,443.4,55.6,442.6,63.4z"/>
		<path class="st2" d="M364.5,69c-2.5,2.3-2.5,2.3,2.5,5.7c-3,3.3-6.4,6.1-10.8,7.1c-1.8,0.4-3.6,0.5-4.7,2.3
			c-6.5,1-13.1,2.1-19.6,2.9c-3.7,0.4-5.5,1.2-5.5,5.9c0.2,16.7,4.2,32.9,6.5,49.3c0.6,3.9,1.3,7.9,1.9,11.8c0.8,5.2-1.9,9.2-7,10.2
			c-9.8,1.9-19.6,3.7-29.4,5.6c-1.3,0.2-2.6,0.1-3.9,0.1c-2-3-1.5-6.7-2.4-10c-2.7-15.2-5.3-30.4-7.6-45.6
			c-0.7-4.9-0.4-9.9-1.2-14.9c-0.3-1.6,0-3.3,1.3-4.6c8.3-1.1,16.6-2.7,24.9-4.1c-7.6,1.1-15.1,2.7-22.7,3.7c-0.9-0.4-2-0.6-2.5-1.6
			c0.2-1.9,1.5-2.5,3.2-2.4c6.1,0.1,11.8-1.6,17.4-3.8c2.2-0.9,4.6-0.9,6.9-0.7c1,0.1,2.1,0.4,3,0c8-3.5,17.1-1.6,25.2-5
			c1.9-0.8,3.9-0.6,5.9-0.6c5.1,0,9.6-1.3,12.4-6c2.4-3.9,1.3-6.1-3.3-6.9c-7.1-1.3-14.3-1.1-21.4-1.1c-2.3,0-4.8,0.5-6.1-2.2
			c2.3-1.4,4.8-1.5,7.5-1.4c7,0.2,14,0.6,20.9,0.1c2.5-0.2,4.5,0.2,6.5,1.2C363.8,65.4,365,66.9,364.5,69z"/>
		<path class="st6" d="M146.6,208.9c-5,1.3-9.3-1.2-13.8-2.8c-3.7-1.3-7.1-4.5-11.4-2c-4.7-1.2-9.5-2.3-14.2-3.6
			c-2.2-0.6-4.8-1.3-2.7-4.6c0.2-1.2,0.8-2.2,1.7-3c5.6-6.1,7.9-13.9,10.7-21.4c0.2-0.4,0.4-0.8,0.7-1.2c1.2-6.1,6.3-10.7,6.4-17.3
			c0-2.5,2.3-4.5,4-6.1c6.1-5.6,11.2-12.2,16.8-18.2c1.2-1.3,2.3-2.4,4.2-2c4.6,3.8,4.7,7.5,0.5,11.5c-1.5,1.4-3.4,2-4.9,3.3
			c-1.1,3.2-2.5,6.2-4.5,9c-2.9,4.4,0.7,10.2,6,10.5c4.2,0.2,7.8,1.6,10.1,5.4c0.7,1.2,1.7,1.9,2.8,2.6c6.9,4.6,11.8,10.2,9.4,19.4
			c-0.4,1.4-0.2,3,0.1,4.4c0.1,1.7-1.3,2.7-2,4c-0.6,4-3.8,6.8-5.4,10.3c-1.3,2.7-3.9,1.7-5.7-0.3c-1.8-2-1.8-4.5-2.1-7
			c-0.7-4.9-5.4-7.8-9.3-6c-1.9,0.9-2.5,1.8-1.9,4.2C142.8,202.2,145.6,205.2,146.6,208.9z"/>
		<path class="st7" d="M490.5,35.1c0-3-0.1-5.9-0.1-8.9c0.1-2,0.2-4.1,2.9-4.3c2.2,6.8,3.9,13.7,3.2,20.8c-0.6,5.6-1.6,11.1-2,16.7
			c-1.1,13-2.8,26-1.4,39.1c0.9,8.2,2.5,16.4,3.7,24.5c0.4,3,0.2,5.2-2.5,6.8c-2.8,0-5.6,0-8-1.6c-0.4-1.8,1.1-2.9,1.6-4.3
			c1.2-2.4,0.6-4.9,0.1-7.3c-2-10.3-3.5-20.7-3.5-31.1c0.1-9.3,0.3-18.6,2.4-27.7C487.7,50,491.1,42.9,490.5,35.1z"/>
		<path class="st8" d="M168.4,192.9c-1.5-1.6-2.1-3.2-1.3-5.4c2.9-8.1-4.1-15.2-10.2-18c-0.7-0.3-1.6,0-1.9-1.1
			c-1.5-5.6-5.8-6.4-10.5-5.8c-2.3,0.3-3-0.3-4.2-2.2c-3.1-5.3-4.6-10.1,1.7-14.1c1.9-1.2-2.4-4.4,1.4-5.2c3.1,2.6,4.2,7.6,2.2,10.5
			c-1.2,1.7-2.4,3.2-1.1,5.4c3-3.6,3-3.6,7-0.5c3.5,2.7,7.6,3,11.8,3c2.1,0,4.3-0.2,6.5-0.4c2.5-0.2,4.6,0.5,5.8,2.9
			c1.1,2.3,0.2,4.2-1.1,6c-2,2.7-5.3,4.9-3.5,9c1.2,1.8,3.4,2.8,4.2,5C173.5,185.9,170.9,189.3,168.4,192.9z"/>
		<path class="st9" d="M284.5,93c0.8,0,1.6,0.2,2,1c-0.4,0.3-0.8,0.5-1.3,0.5c-0.7,0.2-1.4,0.5-2,0.9c-5.2,1-10.4-1.1-15.5,0.6
			c3.8,3,5.2,6.8,5.1,11.7c-0.1,6.6,0.3,13.3,0.3,19.9c0,2.3,0.5,5.3-3.3,5.5c-1.2,0.5-1.4-0.2-1.5-1.2c1.3-2.4,1.8-4.9,1.9-7.6
			c0.3-6.5-0.9-12.9-1.3-19.4c-0.2-4-2.7-6.3-6.8-6.5c-9.3-0.3-18.6,0.4-27.9-0.4c-2.9-0.3-3.1,1.9-3.2,4
			c-0.4,6.1,0.3,11.9,3.3,17.4c1.3,2.5,2.8,4.9,3.9,7.5c0.5,1,1.1,2.4-0.1,3.2c-1.1,0.8-2.2,0-3.2-0.7c-0.4-0.3-0.8-0.6-1.2-0.9
			c-6.5-7.7-12.3-15.7-12.6-26.4c0.3-6.4,0.3-6.4,7-7.8c1.1-0.2,2.1-1,3.2-1.2c16.4,1.2,32.7-0.5,49-1.2
			C281.9,91.8,283.4,91.8,284.5,93z"/>
		<path class="st10" d="M175.3,181.9c-2-0.9-3.5-2.3-4.7-4c-1.6-3.4,0.5-5.8,2.5-7.8c3.2-3.3,5.4-7,6.6-11.4
			c0.7-2.7,2.7-4.5,4.4-6.5c3-3.4,3.8-8,7.1-11.1c3-1,6.1-0.4,9.2-0.6c2.4,0.2,5-0.5,7.1,1.2c1.3,2.6-0.9,3.1-2.3,3.1
			c-7.8,0.4-9.8,6.6-12.4,12.2c-2,0.7-3.4,1.9-4.6,3.8C184,168,179.6,174.9,175.3,181.9z"/>
		<path class="st11" d="M486.4,128c2.8-0.2,5.5,0.2,8,1.8c-2.1,1.6-4.6,2.1-7,2.1c-8.2,0-16.5-0.1-24.7-0.5
			c-2.7-0.1-5.7-0.4-7.3-3.3c-0.9-2.2-0.4-4.6-0.4-6.9c-0.1-16.4,0-32.9-0.1-49.3c0-1.6,0.6-3.3-0.6-4.8l0.1,0.1
			c-0.8-2.7-0.4-5.5-0.3-8.2c0-2.8,1.6-2.8,3.5-1.4c0.6,0.7,0.8,1.6,0.8,2.5c-0.1,9.4-0.5,18.8,0.3,28.3c0.8,10.2,0.4,20.5,0.2,30.8
			c0,2.1-0.5,4.4,1.7,5.8c5.6,2.9,11.6,1,17.4,1.5C480.8,126.8,483.9,125.8,486.4,128z"/>
		<path class="st12" d="M146.6,208.9c-5-2.6-3.9-8.7-7.2-12.4c-0.8-0.8,1.2-2.6,2.2-2.8c2.4-0.5,4.3-3.7,7.1-1.6
			c3.4,2.5,6.8,4.9,5.9,10c-0.4,2,1,3.5,2.2,4.8s3.2,1.6,3.5-0.3c0.8-4.1,3.9-6.6,6.2-9.7c0.1,5.4,0.2,10.8,0.3,16.1
			c0,1.1,0.4,2.4-1.1,2.9c-3.3-0.8-6.6-1.8-9.3-4c-1.1,0-2.3,0.2-3-1c0.4-1,0.5-1.9-0.4-2.7c-2.1-1.6-4.1-3.2-1.2-5.9
			c0.5-0.4,0.3-1.4-0.2-1.8c-1.1-0.8-1.5,0.2-1.8,0.9c-0.7,1.3-1.2,2.7-0.7,4.3c0.4,1.4,0.1,2.6-1.5,3.2
			C147.1,209.1,146.9,209,146.6,208.9z"/>
		<path class="st13" d="M293.5,170c-2.1,0.6-3.5,0.1-3.8-2.4c-2.8-20.8-7.9-41.3-9.5-62.2c-0.1-1,0.1-2,0.1-3c-0.4-1-0.4-2-0.3-3
			c0.1-1.4-0.8-3.4,1.3-3.7c2-0.3,1.9,1.8,2.4,3.2c1.1,20.4,5.4,40.3,8.7,60.4C292.5,162.9,294.7,166.3,293.5,170z"/>
		<path class="st14" d="M192.8,157.1c-1-0.2-2.1-0.3-1.1-1.8c3.3-4.7,5.4-10.9,12.8-10.9c1,0,2-0.9,3.1-1.4c0.8-1.1,1.7-2.2,2.2-3.5
			c0.8-2.5,0.9-5.4,3.4-7.1c5.2-3.2,11-1.9,16.6-1.9c10.6,0,21.2-0.3,31.8,0c2.4,0,5-0.4,7,1.7c0.4,0.3,0.8,0.7,1.2,1
			c-1.6,1.3-3.5,0.7-5.3,0.7c-14.7,0.1-29.3,0.1-44,0c-4.2,0-7.8,0.1-7,6c0.3,2.3-1.4,3.4-3.3,4.4c-3.6,1.8-7.7,2.1-11.4,3.2
			C200.1,153.9,198.3,156.6,192.8,157.1z"/>
		<path class="st15" d="M494.6,59.3c-2.4-4.7-0.5-9.5,0.2-14.1c0.7-4.4,0.9-8.5-0.4-12.7c-1.2-3.6-0.7-7.2-1-10.8
			c2.9-0.6,3.6,1.5,4,3.5c0.3,1.3,0.2,2.7,0,4c-0.6,4.4,0.2,7.3,5.8,6.3c3.1-0.5,5.9,1.2,8.3,3.2c-0.1,1.4-0.2,2.8-0.3,4.2
			c-2.1,1.9-4.4,1.3-6.9,0.7c-5.7-1.5-6.3-1.1-6.7,5.1c-0.6,2.8-0.4,5.9-2.2,8.4C495.2,58,494.9,58.7,494.6,59.3z"/>
		<path class="st16" d="M495.5,57.3c-0.6-3.2,0.7-6.1,1-9.2c0.6-1.1,1.4-2.1,2.7-1.9c4,0.6,8.2,0.3,12.1,1.9c0.1,2,0.2,4.1,0.3,6.1
			C506.8,58.3,501,57.1,495.5,57.3z"/>
		<path class="st7" d="M457.4,58c-2-1.1-3-0.7-3,1.8c0.1,2.5-0.1,4.9-0.1,7.4c-0.2-1.6-0.4-3.2-0.4-4.9c-0.1-6.4-2.5-8.1-9-6.6
			c-1.6,0.4-1.5,1.3-1.6,2.5c-0.2,1.7,0.8,3.6-0.7,5.2c-0.1-1.3,0-2.6-0.2-4c-0.5-3.5,1-4.9,4.5-4.5c1,0.1,2-0.1,3,0
			c4.3,0.6,5.9-1.3,5.7-5.6c-0.3-7.1-0.1-14.2-0.1-21.3c0.4-0.9,1-1.5,2-1c1.7,1.2,1.8,2.9,1.9,4.8c0.8,7.3,0,14.7,0.1,22
			C459.5,55.5,459,57.1,457.4,58z"/>
		<path class="st7" d="M454.3,67.1c1.7,1.2,1.1,3,1.1,4.6c0,18.8,0,37.6,0,56.4c-1.2-0.9-1.3-2.3-1.3-3.6
			C454.1,105.3,454.2,86.2,454.3,67.1z"/>
		<path class="st17" d="M283.4,99.1c-0.6-0.9-1.2-1.8-1.9-2.8c-1.8,2-0.4,4.3-1.2,6.2c-1.4-6.7-1.4-6.7-8.8-6.7
			c-1.3,0-2.6,0.2-3.9,0.3c0.7-2.2,2.5-0.9,3.8-1c4-0.5,8.2,0.7,12.2-0.9C284.2,95.8,284.4,97.4,283.4,99.1z"/>
		<path class="st6" d="M156.4,212c3.3,0.9,6.6,1.6,9.3,4c-4,1.3-7-1.5-10.3-2.9C155.7,212.8,156.1,212.4,156.4,212z"/>
		<path class="st18" d="M293.5,170c-0.6-3.3-1.3-6.6-1.9-10c0.6-0.7,1.2-0.7,1.9-0.1c0.5,3.3,1.3,6.6,1,10
			C294.2,170,293.9,170,293.5,170z"/>
		<path class="st19" d="M143.9,35c0-4.8,0-9.6,0.1-14.4c0.4-10.4,6.4-16.7,16.8-16c7,0.5,13.4-1.9,20.2-1.9c4.6,0,9.3-0.9,13.5,2.1
			c1,0.7,2.9,0.3,4.4,0.3c50.3,0.9,100.7,1.8,151,2.8c0.8,0,1.6,0.2,2.5,0.2c0.6,0.8,0.6,1.5,0.1,2.3c-3.3,2.9-7.1,1.9-10.9,1.6
			c-5.2-0.5-10.5-1.3-15.7,0.3c-8.4,0.4-16.9-0.4-25.3-0.3c-26.9,0.2-53.8-1-80.7-0.7c-11.5,0.1-23.1-1-34.6-1.5
			c-8.1-0.4-16.2,0.8-24.3,0.1c-6.2-0.5-8.8,3-8.4,9.5c0.4,3.6,0.6,7.2-0.1,10.8c-0.9,2.1-2,5-4.5,4.6c-2.6-0.4-1.2-3.7-1.9-5.6
			c-0.4-1-0.3-2.2-0.1-2.8c-0.1,1.2,0.1,2.9,0.3,4.6C146.7,32.9,146.5,34.8,143.9,35z"/>
		<path class="st20" d="M230.5,94c-0.4,0.9-1.3,2.1-2.1,1.8c-6.8-2.2-5.7,2.8-6,6.5c-2.6-5.1-6.9-5.8-11.9-4.4
			c-5,0.2-9.5-2.7-14.6-2.7c-2.7-0.2-4.6-2.2-7.1-2.9c-11.4-2.8-22.2-7.5-33.9-9.3c-1.1-0.3-1.8-0.9-2.2-2c-0.7-1.7-1.1-3.4,1.7-3.1
			c2.6,0.3,3.9-1.3,5.2-3c0.7-5.9,0.1-11.8,0.3-17.6c-0.1-0.5,0.1-1,0.5-1.5c2.1,0.1,2.3,1.9,2.1,3.3c-0.6,5.1,2.6,7.4,6.4,9.4
			c2,1.1,4.4,1.7,5.7,3.8c0.2,1.3-1.6,1.4-1.7,2.6c1,0.7,2.1,0.8,3.1,1.2c2.3,0.8,4.7,0.2,7,0.9c2.7,1.3,2.3,3.8,2.5,6.1
			c-1,1.2-2.8,0.7-4.2,1.7c3,1,5.7,1.1,8.6,0.3c3.7,0.3,7.1,1.3,10.1,3.5c6.2,4.7,13.5,4.6,20.8,4.3C224.2,92.8,227.6,91.8,230.5,94
			z"/>
		<path class="st21" d="M352.5,10.1c0-0.7,0-1.3,0-2c4.2,0,8.4-0.1,12.6-0.1c6.1-1.9,12.6-0.5,19.8-2c-3.9-2.4-7.2-1.5-10.3-1.9
			c0-0.9,0-1.9,0-2.8c4.2,0,8.5,0,12.7,0.1c0,1,0.2,2,0,3c-0.6,3.3,0.9,4.1,4.1,4.2c15.1,0.1,30.3,0.5,45.4,0.7
			c8.6,0.1,15.9,2.7,20.8,10.3c2.7,4.3,3.2,9,3.1,13.8c0,2.5-0.8,5.5,3.8,2.8c3.7-2.1,7.9,0.4,11.9,0.8c1,1.4,0.4,2.9,0.1,4.3
			c-0.5,1.8-1.1,2.3-3.1,1c-6.3-4.3-8.7-3.4-11.4,4c-0.3,0.8-0.2,1.6-0.3,2.4c0.1,2.1-0.8,4.6,2.2,5.6c0.4,0.2,0.7,0.6,1,0.9
			c0.2,0.7,0.2,1.3-0.2,2c-1.5,0.5-3.1,0.7-3.8,2.4c-1,0.8-1.8,2.9-3.3,0.5c0-0.7,0-1.3,0-2c1.2-9.2,1.1-18.4,0.9-27.6
			c0-1.3-0.7-2.6-1.9-3.4c-1.9-2.1-1.8-5.3-4-7.4c-4-3.8-8.4-6.2-14.2-6.3c-20.1-0.2-40.2-1-60.3-1.4c-3.3-0.1-6.6,0.7-9.9,0.1
			c-3.8-1.5-7.6-2.3-11.6-0.9C354.9,11.3,353.5,11.3,352.5,10.1z"/>
		<path class="st22" d="M143.9,35c2.5-1.6,1.4-4.2,1.7-6.4c0.2-2.3-0.5-4.8,1.2-7c-0.3,4.3-0.3,8.5,1.2,12.6
			c1.9-0.3,1.7-2.8,3.4-3.2c2.6,2.5,6.3,0,9,1.9c0.9,7.7,1,15.4,0.1,23.1l0,0c-0.4,0.5-0.8,0.6-1.2,0.1c-3.2-1.7-6.7-1.1-10.2-1.3
			c-6-0.3-9.6-3-10.9-7.7C137.2,42.2,138.9,38.3,143.9,35z"/>
		<path class="st23" d="M148.6,127c-6.2,4-9.4,11-14.8,15.9c-1.3,1.2-2.6,2.4-4,3.7c-2.7,2.5-5.9,5-4.9,9.6c0.2,0.9,0,2.2-0.6,2.9
			c-2.7,3.2-4.7,6.6-4.7,11c0,0.3-1.4,0.7-2.1,1c-1.7-1.8-1.2-3.8-0.4-5.6c2.4-4.8,3.6-10,6.2-14.7c8.3-9.3,16.4-18.8,25-27.8
			c4.4-4.6,7.6-9.5,8.3-15.9c0.7-0.6,1.4-0.6,2.1,0c0.2,4.6-0.6,9.1-3.1,13.1C153,122,151.9,125.6,148.6,127z"/>
		<path class="st24" d="M123.5,150.7c-1.3,3.7-2.3,7.6-4,11.2c-1.4,3-2.2,5.8-1.9,9.1l0,0c-3.8,7.6-6.3,15.8-11,22.9
			c-0.7,0.7-1.4,1.4-2.2,2.1c-0.3-0.3-0.7-0.7-1-1c6.5-12.9,11.8-26.3,17.3-39.7C121.4,153.6,121.7,151.7,123.5,150.7z"/>
		<path class="st25" d="M374.6,4.1c3.4-3.7,7.3-0.1,11-0.5c0.8-0.1,0.8,1.6,0.8,2.6c-0.1,1.8-1.5,1.9-2.9,1.9
			c-6.1,0-12.2-0.1-18.4-0.1c1.3-2.1,3.3-1.7,5.3-1.7C372.1,6.2,374.1,6.6,374.6,4.1z"/>
		<path class="st26" d="M158.5,106.9c-0.6,0.1-1.1,0.1-1.7,0.2c-0.1-7.1-1.9-13.9-3.5-20.8c-0.4-1.8-1.3-3.4-0.4-5.2
			c0.5,0.4,1.1,0.8,1.6,1.1c3.3,1.4,3.3,4.5,4,7.3c0.2,3.8,1.6,7.5,1.5,11.4C159.9,102.9,160.4,105.2,158.5,106.9z"/>
		<path class="st17" d="M159.4,56.1c0.4,0,0.8,0,1.2-0.1c-0.4,6.3,1.1,12.7-0.8,18.9C159.8,68.7,160.3,62.4,159.4,56.1z"/>
		<path class="st7" d="M460.5,49.1c-1.5-4.3,3.1-6.6,3.4-10.6c0.1-1.8,9.1,0.7,11.2,3.6c0.4-1.7,0.9-3.5,1.3-5.2c3.8-2.5,8-1.1,12-1
			c0.3,0.3,0.3,0.6,0.3,0.8c-0.1,0.3-0.1,0.5-0.2,0.5c-2.7,2.1-6.5,0-9.6,2.4c3.3,2.6,7.1-0.5,10,1.6c0.9,6.9-3.7,9.6-12.2,6.9
			c-3.8,8.7-5.6,9.7-12.2,6.8l0,0C461.8,54,463,50.3,460.5,49.1z"/>
		<path class="st27" d="M488.4,37.1c0-0.4,0-0.7,0-1.1c0.7-0.3,1.4-0.6,2.1-0.9c1-0.3,1.7-0.7,1.5,1.1c-0.8,5.8-0.7,11.8-3.4,17.4
			c-0.5,1.1-0.2,2.6-0.3,3.9c-1.1,0.8-2.4,1-3.7,1c-5.4,0.1-10.7-0.6-16.1-0.1c-1.4,0.1-3-0.2-3.9-1.5c0-0.6,0-1.2,0-1.8
			c8.3,0,8.3,0,12.2-11.1c1,5.2,4.5,4.5,7.6,4c3.7-0.7,4.4-3.6,4.2-6.8C487.2,39.7,487.4,38.4,488.4,37.1z"/>
		<path class="st28" d="M147.4,209.1c2.4-2.1-2.6-5,0.9-7.3c1-0.6-0.1-3.6,2.6-3.2c1.3,0.2,2.6,0.6,2.6,2.4c0,1.9,0.6,4.1-2.7,3.7
			c1.5,2.6,5,2.5,5.1,5.4c0,1-1.6,0.7-2.6,0.9C151.2,211,149.2,210.4,147.4,209.1z"/>
		<path class="st29" d="M511.2,48.1c-3.6,0.4-7.1,0.7-10.6-0.8c-1.5-0.6-2.9,0-4.2,0.8c0.1-6.5,1.1-7.6,7.2-5.8
			c2.6,0.8,5.1,0.8,7.6,0.9C511.2,44.8,511.2,46.4,511.2,48.1z"/>
		<path class="st17" d="M160.6,56c-1.9-6.9-0.8-14-0.8-21c0-0.8,0.3-1.6-0.5-2.2c0.7-4.2,0.9-8.4,1-12.7c0.1-4.4,2.4-6.5,6.3-5
			c3.9,1.5,4.8,0.1,5.2-3.2c0.1-0.5,0.5-0.8,1-1.1c0.5,0.1,1.2,0.3,1.2,0.7c0.9,6.4,5.4,6.3,10.3,6c3.3-0.2,6.6-0.1,9.9,0
			c18.1-0.3,36.3-0.1,54.4-0.1c33,0,65.9-0.1,98.9,0c4.8,0,9.6-1.3,14.4,0c5.3,0.1,10.6,0,15.9,0.1c3.4,0.1,6.6-0.4,9.2-2.8
			c2.8,2.6,6.3,2.6,9.7,2.8c5,0.2,10-0.5,14.9,0.5c1.8-0.8,0.6,3.5,3,1.7c1.4,0,2,1.1,2.5,2.1c0.2,0.6,0.5,1.5,0.1,1.9
			c-4.4,4.7-1,9,0.5,13.5c0.8,2.2,2.1,2.9,4.1,2.1c5.3-1.9,10.4-1.4,15.3,1.1c4,2,4.7-2.6,7.3-3.5c3.1-0.3,6.3-1.4,9,1.2
			c-3.6,2.8-4.3,8.2-9,10.1c-1.1,0.5-1,1.6-1.1,2.6c-0.1,1.1-0.8,2.5-1.6,1.9c-3.1-2.7-6.9,0.1-9.9-1.5c-4.5-2.4-8.2-0.4-11.6,2
			c-5.5,3.8-11.9,4.3-17.6,3.4c-4.9-0.7-9.3-0.7-13.6,0.8c-4.7,1.7-5.1-2.5-7.2-4.4c-2.4-2.1-0.5-3.8,0.6-5.6c1.6-2.8,3.8-5,6.4-6.9
			c-3-5-7.5-6.5-13.1-6.5c-32.5,0.1-64.9,0.1-97.4,0.1c-2.2,0-4.9-0.9-4.9,3c0,2.6,0.4,4.1,3.5,4c6.3-0.2,12.7,0,19,0
			c23.1,0,46.3-0.1,69.4,0.1c2.3,0,6.6-1.6,6.4,2.2c-0.2,3.3,0.5,8.6-5.2,9.3c-1.2,0.2-2.2,0.7-1.8,1.7c2.2,5.5-2.3,3.5-4.2,3.6
			c-12.5,0.5-25-1.8-37.5-0.5c-2.2,0.2-3.8-0.9-3.8-3.4c0,0-0.3-0.1-0.4-0.1c-0.1,0-0.3,0.2-0.4,0.3c-1.7,1.6-3.4,1.7-4.9-0.3
			c-0.1-0.9,2.2-0.5,0.9-1.9c-2-3.6-4.6-1.4-7.1-0.8c-2.2-2.2-4.1-1.8-5.8,0.6c0.2,0.3,0.3,0.6,0.6,0.8c1.2,1.2,4.3-0.5,4.2,2.4
			c-0.1,2.9-3,2.4-4.9,3c-1.6-1-2.7-2.8-4.8-3.1c-1.5-3.2-2.7,1.1-4.1,0.2c-3.9,3.8-9.1,2.5-13.5,2.6c-28,0.5-56,0.3-84.1,0.3
			c-1.7,0-3.2,0.5-4.6,1.4c-2.5,1.6-5,4.1-3.4,6.3c1.4,1.9,5.4,2.3,7.9,0.3c4-3.2,7.2-2.8,10.2,1.6c0.4-2.3,1-3.7,3.5-3.6
			c7.6,0.1,15.2-1.3,22.8-0.1c2.1,0.3,4.2,0.2,6.4-0.3c4-1,7.9-0.9,11.5,1.5c0.7,3.9,4.2,2.1,6.4,3c1.2-0.1,1.5-1,2.2-1.7
			c2.9-3,5.6-5.4,10.6-3.2c3.2,1.4,7.3,0.9,11,0.9c16,0.1,32,0,48,0c4.4,2.4,9.1,0.1,13.6,0.8c4.5,0.7,9.2,0,13.8,1
			c2.2,0.5,5.1-0.2,6,2.5c0.8,2.7-0.3,5.4-2,7.8c-3.2,4.4-8,5.8-12.7,5.5c-3-0.2-5.4,0.4-8,1.2c-3.7,1.1-7.4,2.8-11.5,1.2
			c-2.1-0.8-3.6,1.5-5.5,1.8c-10.2,1.2-20.3,2.9-30.1,6.1c-2.2,0.7-4.9-2.5-6.6,1c-12,0.7-24.1,1.5-36.1,2
			c-5.9,0.2-11.9,0.3-17.8-0.9c-7.5,0.2-15,0.4-22.4,0.7c-1.6,0.1-2.2-1.2-3.3-1.8c-4.8-2.9-9.6-5.9-15.3-6.8c-1-1.4-5.8,2.5-4-2.8
			c-2.3-1.1-0.6-3.8-2-5.2c-2.1-1.4-4.3-2.1-6.8-2c-1.6-0.3-3.2-0.6-2.1-2.9c-1.1-1.5-2.9-1.4-4.3-2.2c-5.2-2.9-10.5-5.7-8.8-13.2
			C161.6,57.2,160.9,56.6,160.6,56z"/>
		<path class="st30" d="M453.3,26.3c-1.7-4-4.5-6.9-8.1-9.1c-2.5-2-5.5-2.1-8.5-2.1c-34.3-0.1-68.6-2.2-102.9-1.6
			c-3,0-6,0.2-8.3-2.4c5-2.3,10.3-0.8,15.4-0.5c4,0.2,7.8,0.6,11.6-0.5c1.3,0,2.7,0,4,0c3.7,0.2,7.4-0.4,11,1
			c17.3,0.1,34.7-0.1,52,0.5c6,0.2,11.9,0.4,17.9,0.5c11,0.2,16.8,4.6,19.1,15c-0.3,0.3-0.7,0.7-1,1c-0.6-1-1.1-2-1.7-3.1
			C453.6,25.5,453.5,25.9,453.3,26.3z"/>
		<path class="st17" d="M364.5,69c-0.9-1.6-2.4-2.9-2-5c0.4-0.5,0.7-1.1,1.2-1.6c1.5-1.7,4-2.2,5.3-0.9c1.8,1.8,0.7,4.8,0.1,7
			C368.3,70.9,366.1,69.8,364.5,69z"/>
		<path class="st31" d="M313.5,53.9c1.6,0.1,3.3,0.2,4.9,0.3c0,1.8-0.2,3.2-2.7,3c-1.8-0.2-3.6-0.3-5.3,0.2
			c-2.4,0.6-2.6-1.1-2.6-2.4c0-1.6,1.2-1.3,2.5-1.1C311.3,54,312.4,54.9,313.5,53.9z"/>
		<path class="st32" d="M301.6,51.8c-0.4-1.1-3.4-3.2,0.7-2.6c1.7,0.2,5-2.6,5.3,1.9c0.3,0.2,0.4,0.4,0.3,0.6
			c-0.1,0.2-0.2,0.3-0.4,0.3C305.5,51.8,303.5,51.8,301.6,51.8z"/>
		<path class="st33" d="M307.5,51.9c0-0.3,0-0.6,0.1-0.9c0.9-2.7,3.4-2.4,5.4-2.4c1.9,0,1.9,1.9,1.5,3.4
			C312.1,52,309.8,51.9,307.5,51.9z"/>
		<path class="st34" d="M443.4,37.1c0.5,0,1,0.1,1.5,0.1c9.2,0.1,9.2,0.1,8.6-9.2c1.6,3.4,1.7,6.8,0,10.2c-3.3,0-6.7-0.1-10-0.1
			C443.2,37.8,443.2,37.5,443.4,37.1z"/>
		<path class="st35" d="M255.7,68c-2.6,0.1-6.8,3.3-6.3-3c1.1-1.5,0.7,3.4,3,0.5C254,63.4,255.6,65.6,255.7,68z"/>
		<path class="st36" d="M292.6,55.1c1.2-0.7,1.7-4.7,3.9-0.9c0.8,0.8,1.7,1.5,1,2.9C295.1,58.4,293.1,58.5,292.6,55.1z"/>
		<path class="st37" d="M297.5,57.1c-0.3-1-0.7-1.9-1-2.9c3.4-1,4.2,1.3,4.9,3.8C300,58.3,298.7,57.7,297.5,57.1z"/>
		<path class="st38" d="M293.5,160c-0.6,0-1.3,0-1.9,0.1c-2.1-13.5-4.1-26.9-6.4-40.4c-1.1-6.8-1.9-13.7-1.8-20.6
			c0.1-1.7,0.1-3.3,0.2-5c0.6,0,1.2,0,1.8,0c0.4,0.2,0.5,0.4,0.4,0.6c-0.1,0.2-0.2,0.3-0.4,0.3c-2.1,6.6-0.2,13.1,0.6,19.5
			C288,129.7,291,144.8,293.5,160z"/>
		<path class="st17" d="M285.5,95c0-0.3,0-0.6,0-0.9c0.4,0,0.7-0.1,1.1-0.1c8.6-1.4,17.1-2.9,25.7-4.3c-3.8,2.6-8.2,2.2-12.3,3.1
			c-2.5,0.5-3.5,1.1-2.9,4.5C293.5,92.2,289.3,95.2,285.5,95z"/>
		<path class="st39" d="M148.6,127c1.8-2.5,3.1-5.4,5.9-7c3.8-1.2,5.4,1.9,7.1,4c1.7,2.1,0,4.3-1.3,6.3c-1.1,1.7-3.4,3.1-2.4,5.8
			c1.5-0.1,1.5-1,1.5-1.8c0-2.8,0.9-5.1,4.1-5c3.3,0.1,5.3,2.7,5.3,5.6c0.1,3.3,0.3,7.2-2.2,9.9c-3.1,3.4-0.6,5,1.7,6.6
			c2.9,2,6.1,1.3,7.7-1.5c1-1.8,1-3.9,1.7-5.7c2.1-5.7,8.8-6.9,12.7-2.2c-0.6,3.5-1.9,6.4-4.4,9.2c-6,6.7-7.3,16.5-14.4,22.6
			c-1.1,0.9-1.3,2.6-1.2,4.2c-3.4-2.7-0.8-5.3,0.3-7.7c0.6-1.3,2.1-2.1,3-3.3c1.1-1.5,1.9-3,0.7-5c-1.2-2-2.8-2.2-4.7-1.9
			c-4.5,0.8-9.1,1-13.6-0.2c-2.5-0.6-5.3-1-6.7-3.8c-0.4-0.7-0.8-1.7-1.7-1.5c-1.2,0.2-1.5,1.3-1.2,2.4c0.3,1.2,0.6,2.5-1.1,2.6
			c-1.3,0.1-2.1-1-2.6-2.1c-0.7-1.7-1.2-4.3,0.1-5.2c5.5-3.8,0.7-7.6,0.4-11.4c0.4-0.9,1.2-1.5,2.1-1.9
			C152.1,135.9,152.9,132.6,148.6,127z"/>
		<path class="st23" d="M106.6,193.9c3.2-7.9,5.7-16.1,11-22.9C115.7,179.5,112.8,187.5,106.6,193.9z"/>
		<path class="st8" d="M152.4,173.4c2,0.9,4.3,0,6.2,1.1c0.9,0.5,3.2,0,2.4,2.1c-0.7,1.7-2.2,0.7-3.4,0.4
			C155.5,176.5,153.9,175.2,152.4,173.4z"/>
		<path class="st40" d="M460.4,118c0.5,7,0.5,7,7.7,6.9c6.8,0,13.5,0,20.3,0c0.2,1.6-1.4,2-2,3c-6.6,0-13.1,0-19.7,0
			c-2.7,0-5.2-0.2-7.4-2C458.6,123.2,456.7,120.2,460.4,118z"/>
		<path class="st41" d="M190.6,142c-8.5-3.2-10.3-2.3-12.1,5.7c-0.6,2.6-1.3,5.2-4.5,6c-3,0.8-5.2-0.2-7.6-2.3
			c-3.1-2.6-4.3-4.4-0.5-7.4c2.3-1.8,2.2-9.8,0.7-12.1c-1.1-1.6-2.5-2.3-4.2-1.6c-1.7,0.6-1.9,2.1-1.6,3.7c0.3,1.5,1.8,3.4-1,3.8
			c-1.2,0.2-3.2,0.8-3.5-0.7c-0.4-1.5-1.2-3.6,0.9-4.9c0.1-0.1,0.3-0.2,0.4-0.3c5.6-6.1,5.1-8.3-3-12c3-3.9,2.3-8.8,4-13
			c1.2-6-1.4-11.8-0.9-17.8c-0.6-1.7-1.2-3.8,0.3-5c1.5-1.4,2.9,0.7,4.5,1c8.6,1.8,16.8,5,25.2,7.6c0.6,0.2,1.2,0.4,1.8,0.7
			c1.5,0.9,0.8,2.7,1.5,3.9c2.3,0.7,2.8-4.2,5.5-1.7c0.8,3.6-0.8,7-0.3,10.5c0,1,0,2-0.2,3c-0.2,1.4,0.1,3.3-1.7,3.7
			c-1.5,0.4-2.3-1.1-3-2.2c-0.6-0.9-1.2-1.6-2.4-1.4c-1.7,0.3-6.6,7.9-5.5,9.1c3.6,4.2,1,8.7,0.5,12.8c-0.8,6.5-1.3,6.4,5.4,7
			c1.5,0.1,3-0.2,4.5,0c2.4,0.6,5.1,0.4,7,2.3c0.3,0.5,0.3,0.9,0,1.4C197.2,142,193.9,142,190.6,142z"/>
		<path class="st39" d="M200.5,142c0-0.3,0-0.6,0-0.9c0.6-0.8,1.4-1.1,2.2-1.2c2.6,0,5.3-0.8,7.6,1.1c-0.3,1.5-1.4,2-2.8,2.2
			C205.5,141,202.9,142.4,200.5,142z"/>
		<path class="st7" d="M460.4,118c-2,2.5-0.5,5.3-1,8c-1.7-0.8-2.5-2.2-2.4-4c1.3-16.7-0.5-33.3-0.5-49.9c0-4-1.2-8.1,0.9-12
			c1.5,1.2,1.9-1,3-1C460.4,78.7,460.4,98.3,460.4,118z"/>
		<path class="st42" d="M210.4,140.8c-2.6,0-5.2,0-7.8,0.1c1.1-3,3.4-0.8,5-1.6c-4.6,0.7-9.3-0.5-14-0.3c-3.6,1.7-7.2,0.1-10.7-0.3
			c-3.4-0.4-1.6-4.5-0.9-5.3c2.5-3.2-0.7-7.4,2.4-10.2c0.1-0.1,0.1-0.8-0.1-0.9c-5.7-3.8-0.4-7.1,0.5-10.7c0.7-2.8,2.8-3.6,5.1-4.1
			c3.1-0.6,1.8,2.4,2.7,3.6c0.4,0.5,0.9,0.8,1.6,1.3c1.1-1.9,0.4-3.8,0.6-5.5c3.1-1.5,4.2,1.5,6.2,2.6c1.5,0.9,3.1,1.8,4.2,3.3
			c0.4,0.7,0.6,1.4,1,2.5c0.8-3.9-0.3-7.6,1.2-11.1c1.1-1.2,2.1-2.9,3.8-0.7c0.1,8.5,0,17.1,0.1,25.6c0,1.6-0.7,3.3,0.7,4.7
			c0.2-0.1,0.5,0,0.7,0.1C210.8,136,212.3,138.9,210.4,140.8z"/>
		<path class="st43" d="M325.5,11.1c13.5,2.1,27.2,0.7,40.8,0.9c12.9,0.2,25.7,1.1,38.6,1.9c10,0.6,20.1,0.3,30.2,0.1
			c3.2-0.1,6.2,1,9.3,1.2c0.9,0.1,2.1,0.6,0.9,1.9c-2.6-0.4-5.2-0.8-7.8-1.2c-8.6-0.9-17.2-0.1-25.9-0.4c-2.1-0.1-4.3,0.4-6.4-0.4
			c-5.8,0-11.7,0-17.5,0c-1.2,3.5-3.6,4.2-7.1,4c-6.1-0.4-12.2-0.2-18.4-0.2c-1.1-1.6-2.6-2.4-4.6-2.4c-11.5-0.1-22.9-1.1-34.4-1
			c-28.1,0.3-56.1-1.1-84.2-1.2c-12.1,0-24.2-0.5-36.4-0.8c-4.3-0.1-7.5,0.8-8.7,5.3c-5.1,0.1-10.3-0.1-15.4,0.2
			c-3.5,0.2-5.5-0.5-4.9-4.5c0.2-1.2,0.3-2.7-1.4-3.3c-0.9,0.9-2.1,1.2-3.2,1c-7-0.7-12.9,1.2-17.5,6.8c-1.6-6.7,3.7-11.6,11-10.5
			c5.9,0.8,11.8,0.6,17.7-0.1c4.2-0.4,8.5-0.3,12.8,0.2c6,0.6,12,2.2,18.2,0.9c2.8-0.6,5.9,0.5,8.8,0.6c17.1,0.1,34.2-0.2,51.3,0.2
			c7.6,0.2,15.1,1.2,22.7,0.6C304.6,10.1,315,11.2,325.5,11.1z"/>
		<path class="st44" d="M210.5,103c-1.5-0.1-1.9,1.2-2.7,2c-1.3-0.7-1.9-0.5-2,1.2c-0.1,2.3,0.7,4.9-1.3,6.8c-4.2-0.6-5.9-5.1-9.9-6
			c-0.6-4.1,0.8-8,1-12c-0.4-0.2-0.5-0.5-0.3-0.7c0.1-0.2,0.3-0.3,0.4-0.3c5.3-0.7,9.8,2.5,14.8,2.9c1.1,1.1,1.7,2.4,1,4
			C210.9,101.5,211.3,102.6,210.5,103z"/>
		<path class="st45" d="M189.5,94c-3.8,0.6-7.2-1.5-10.3-2.9c-6.7-3-14.5-2.3-20.8-6.6c-1.5,1.3-0.5,3.1-0.9,4.5
			c-1.3-2.2-1.2-5-3.1-6.9c4.3-0.7,8.1,1.1,12,2.1c7.7,2.1,15.2,4.6,22.8,6.9C190.4,92.1,190.4,93,189.5,94z"/>
		<path class="st46" d="M189.5,94c0-0.9-0.1-1.9-0.1-2.8c2.1,1,4.2,1.9,6.3,2.9c0,0.3-0.1,0.6-0.1,1c-0.2,0.2-0.5,0.4-0.7,0.6
			c-1.4,1.8-2.6,4.8-5,3.9C186.9,98.6,190.5,95.9,189.5,94z"/>
		<path class="st47" d="M185.5,83.2c0.2,0.7,0.6,2,0.6,1.9c2.5-4.6,2.2,0.9,3.4,0.9c-2.9,1.6-5.9,0.7-8.8,0c-1-0.3-2.1-0.3-2-1.7
			c0.2-1.4,1.3-1.2,2.3-1.2C182.5,83.1,184,83.2,185.5,83.2z"/>
		<path class="st48" d="M177.6,75.1c0.8-0.1,1.8-1.9,2.4,0.1c0.3,0.9,0.7,1.9,1.4,0.5c0.6-1.2,1.1-2.3,2.4-1.3
			c1.4,1.1,0.2,2.3-0.3,3.5c-2.6-0.4-5.4,0.9-7.8-1C175.9,75.9,176.8,75.6,177.6,75.1z"/>
		<path class="st49" d="M177.6,75.1c-0.6,0.6-1.3,1.3-1.9,1.9c-1.9-0.5-3.7-1-6.2-1.6c1.6-1.8,3.4-2,5-2.4
			C174.6,75.2,176.2,75,177.6,75.1z"/>
		<path class="st27" d="M460.5,49.1c1.5-0.7,2.9-1.3,2.9,1.3c0,1.7,0.2,3.3,1,4.7C459.4,55.5,460.5,51.9,460.5,49.1z"/>
		<path class="st19" d="M367.5,11.1c-3.7-0.5-7.5,1.1-11-1C360.3,8.3,364,8.8,367.5,11.1z"/>
		<path class="st50" d="M144.5,43.8c0.1-2.9,1.6-5.5,4.8-5.4c2.9,0.1,6,2.1,6,5.5c-0.1,2.8-2.1,5.7-5.1,5.9
			C147.1,49.9,144.6,47.9,144.5,43.8z"/>
		<path class="st51" d="M488.4,37.1c0,1.3,0,2.7,0,4c-2.6,1.6-5.4,0.7-8.2,1.1c-1.5,0.2-3,0.6-2.9-1.8c0.1-1.8,0.4-3.2,2.7-3.2
			C482.8,37.1,485.6,37.1,488.4,37.1z"/>
		<path class="st52" d="M443.4,37.1c0,0.4,0,0.7,0,1.1c-0.4,4.2-2.6,5.5-6.4,3.7c-5.3-2.6-10.6-3.3-16.1-0.6c-2.3,1.2-3.9-0.3-4.1-2
			c-0.3-2.8-1.7-4.9-2.8-7.3c-1.1-2.4-2.4-4.9,1.3-6.5c1.2-0.5,1.1-1.9,1.1-3.1c4.7,4.6,10.7,4.1,16.6,4.1c3.4,0,7-0.7,9.4,2.7
			c0.6,1.4,1,3.7-1.2,2.9c-6.5-2.6-13.4,0.1-20.4-2.6c1.6,2.1,3.6,3.2,4.6,5c1.5,2.1,3.8,1.6,5.9,1.6c2-0.1,3.9-0.3,5.8,0.4
			c0.6-0.2,0.8,1.5,1.4,0.6C441,33.4,441.2,33.4,443.4,37.1L443.4,37.1z"/>
		<path class="st53" d="M175.5,50.1c-0.6-0.7-1.3-1.3-1.9-2c-1.1-4.1-2.4-8.2,0-12.2c0.7-0.5,1.3-1.1,2-1.6c0.6-0.8,1.4-0.7,2.1-0.2
			c1.5,1.8,1.1,4,1.2,6c0.6,2.7-2.2,7.3,3.8,7c1.2,0.1,2.3,0.5,3.2,1.4c2.6,3.1-1.4,3.1-2.2,4.5c-0.7,0-1.5,0-2.2,0
			C180,51,177.8,50.3,175.5,50.1z"/>
		<path class="st54" d="M177.6,34.1c-0.7,0.1-1.4,0.1-2,0.2c3.4-4.9,9-5.4,14.3-1.4c5.6,4.3,6.3,10.2,1.8,15.3
			c-0.2-0.2-0.3-0.3-0.5-0.5c-0.4-1-0.1-1.9,0-2.9c1.3-8.2-3.2-12.5-11.4-10.9c-0.5,0.1-1,0.2-1.5,0.3
			C178.1,34.1,177.8,34.1,177.6,34.1z"/>
		<path class="st32" d="M332.4,50.5c-4.8,1.5-9.2,1.8-13.7,0.6c-0.4-0.1-1.3,0.9-1.4-0.5c0-0.6,0.1-1.4,0.5-1.9
			C318.6,48,330.9,49.3,332.4,50.5z"/>
		<path class="st55" d="M183.7,53c-1.1-2.1,3.7-1.4,1.9-3.9c0.9-1.2,2.4-1.5,3.3-2.6c1.9-1.4,2,0.4,2.5,1.4l0.2,0.3
			C189.9,51.3,186.9,52.4,183.7,53z"/>
		<path class="st56" d="M218.3,86.6c1.9-2.6,4.8-2.2,7.5-2.5c1.2-0.1,1.3,0.4,1.1,1.4c-0.1,0.8,0.1,1.9-1.2,1.3
			C223.3,85.8,220.8,88.2,218.3,86.6z"/>
		<path class="st57" d="M173.6,35.8c-0.9,4.1,0,8.2,0,12.2C171,44,169.9,39.9,173.6,35.8z"/>
		<path class="st52" d="M412.4,19.2c0.8-0.3,1.6-0.4,2.1,0.6c-0.3,1.6,0.3,3.4-1.1,5.3C411.9,22.9,412.7,20.9,412.4,19.2z"/>
		<path class="st55" d="M175.5,50.1c2.7-0.5,5.2-0.6,6,2.9C179.5,52,177.5,51,175.5,50.1z"/>
		<path class="st34" d="M443.4,37.1c-4.7-4.9-3.4,0.9-4.5,2.6c-1.3-0.5-0.7-2-1.4-2.6c-2.6-2.7-6-1.9-9.1-2c-1.3,0-2.5,0.8-3.8,0
			c-0.9-2.2-3.2-2.8-4.7-4.2c-0.8-0.8-1.8-1.8-0.9-3c0.8-1.1,1.9-0.3,2.7,0.1c6.3,3.6,13.9-0.7,20.3,3.2c0.5,0.3,0.5-1.3,0.6-2.1
			C444.4,31.6,442.7,34.5,443.4,37.1z"/>
		<path class="st30" d="M405.1,15.2c9.9,0,19.7-0.1,29.6-0.1c1,0,2,0.1,2.7,0.9C426.7,15.9,415.9,16.3,405.1,15.2z"/>
		<path class="st58" d="M210.5,103c0.1-0.8,0.2-1.6,1-2c0.1,11,0.1,21.9,0.2,32.9c-1.9-1.3-1.1-3.3-1.1-5
			C210.5,120.3,210.5,111.6,210.5,103z"/>
		<path class="st59" d="M193.5,139c5.1-2.8,10,1.1,15.1,0.2c-1.9,1.4-4.3-0.1-6,1.7c-0.7,0-1.3,0.1-2,0.1
			C198.4,139.9,195.6,140.6,193.5,139z"/>
		<path class="st60" d="M164.4,120.1c-1.5-3.5-0.4-5.8,0.3-8.1c0.2-0.8,0.7-1.7,1.8-1.2c0.9,0.4,1,1.2,0.6,2.1
			C166.3,115,165.5,117.1,164.4,120.1z"/>
		<path class="st61" d="M204.5,113c0.4-3.7-0.6-7.5,0.9-11.4c1.9,0.6,2,2.1,2.4,3.4c-0.7,4.4,0.8,9.1-1.6,13.5
			C203.6,117,204.9,114.8,204.5,113z"/>
		<path class="st62" d="M206.1,123.6c1.6,3.8,1.5,6.7,1.4,9.6c0,1-0.3,2.1-1.6,2c-1-0.1-1.2-1-1.1-1.9
			C205.1,130.4,203.6,127.3,206.1,123.6z"/>
		<path class="st63" d="M424.5,35.1c3.6-2.4,7.5-1.2,11.2-0.7c0.8,0.1,3.6,0.2,1.7,2.7c-2.8,0.1-5.5,0-8.3,0.2
			C427.7,37.4,424.9,38.1,424.5,35.1z"/>
		<path class="st64" d="M177.5,41.1c0-2.3,0.1-4.7,0.1-7h-0.1c0.8-0.7,1.8-0.6,2.8-0.7c8.6-0.4,10.4,1.9,7.6,10.4
			c-2.3,0.4-3.8,3-6.5,2.4C179.7,44.8,181,41.1,177.5,41.1z"/>
		<path class="st65" d="M177.5,41.1c4.7-1.1,4,2.3,4.1,5c0.7,0.4,1.3,0.8,1.1,1.7C177.7,48.6,177.6,48.4,177.5,41.1z"/>
		<path class="st66" d="M182.7,47.8c-0.4-0.6-0.7-1.2-1.1-1.7c2,0,2.6-3.6,5.2-2c1,0.8,2,1.7,2.9,2.7c-0.2,2.7-2.4,2.2-4.1,2.3
			C184.6,48.6,183.6,48.2,182.7,47.8z"/>
		<path class="st67" d="M189.6,46.7c-2.1,0.4-3.5,0-2.9-2.7c1.8-2.6,0.4-5.4,0.7-8.1c0.2-1.5-1.3-2.5-2.1-1.8
			c-2.8,2.3-5.3-0.4-7.9,0c3.7-3.4,7.6-2.6,11.2-0.2s5.1,5.9,3.8,10.3c-0.4,1.3-0.8,2.5-1.2,3.7C190.5,47.9,191.1,45.8,189.6,46.7z"
			/>
	</g>
</g>
</svg>
