<?xml version="1.0" encoding="utf-8"?>
<!-- Generator: Adobe Illustrator 25.0.0, SVG Export Plug-In . SVG Version: 6.00 Build 0)  -->
<svg version="1.1" id="Camada_1" xmlns="http://www.w3.org/2000/svg" xmlns:xlink="http://www.w3.org/1999/xlink" x="0px" y="0px"
	 viewBox="0 0 581 188.5" style="enable-background:new 0 0 581 188.5;" xml:space="preserve">
<style type="text/css">
	.st0{display:none;fill:#FFFFFF;}
	.st1{display:none;}
	.st2{display:inline;stroke:#FFFFFF;stroke-miterlimit:10;}
	.st3{fill:#4E4D46;}
	.st4{fill:#302F2C;}
	.st5{fill:#F0F5F3;}
	.st6{fill:#959591;}
	.st7{fill:#0C0C0B;}
	.st8{fill:#0E0E0D;}
	.st9{fill:#444138;}
	.st10{fill:#373531;}
	.st11{fill:#111110;}
	.st12{fill:#232320;}
	.st13{fill:#282825;}
	.st14{fill:#3C3B38;}
	.st15{fill:#161614;}
	.st16{fill:#20201E;}
	.st17{fill:#20201F;}
	.st18{fill:#3A3834;}
	.st19{fill:#242321;}
	.st20{fill:#2F2E2B;}
	.st21{fill:#0D0D0C;}
	.st22{fill:#1A1D1C;}
	.st23{fill:#1B1B1A;}
	.st24{fill:#53524B;}
	.st25{fill:#484F4E;}
	.st26{fill:#67655C;}
	.st27{fill:#504E48;}
	.st28{fill:#302F2B;}
	.st29{fill:#1D1817;}
	.st30{fill:#646055;}
	.st31{fill:#746F60;}
	.st32{fill:#E52501;}
	.st33{fill:#1A1E21;}
	.st34{fill:#373D40;}
	.st35{fill:#141413;}
	.st36{fill:#31312E;}
	.st37{fill:#343634;}
	.st38{fill:#201F1D;}
	.st39{fill:#2E2D29;}
	.st40{fill:#31302D;}
	.st41{fill:#31302C;}
	.st42{fill:#0D0D0D;}
	.st43{fill:#54534C;}
	.st44{fill:#0F0F0E;}
	.st45{fill:#556060;}
	.st46{fill:#11100F;}
	.st47{fill:#22221F;}
	.st48{fill:#0A0B0A;}
	.st49{fill:#393F3D;}
	.st50{fill:#525F5E;}
	.st51{fill:#252727;}
	.st52{fill:#313534;}
	.st53{fill:#0C0C0C;}
	.st54{fill:#687472;}
	.st55{fill:#23292C;}
	.st56{fill:#2D3337;}
	.st57{fill:#080908;}
	.st58{fill:#070808;}
	.st59{fill:#3D3B37;}
	.st60{fill:#262B2E;}
	.st61{fill:#525B58;}
</style>
<rect class="st0" width="581" height="187.7"/>
<g id="Camada_2_1_" class="st1">
	<rect x="7.1" y="-7" class="st2" width="668" height="270"/>
</g>
<g id="Camada_1_1_">
	<g>
		<path class="st3" d="M407.1,32.7c1,0.8,2,1.6,3,2.3c1.7,1.6,1.5,3.6,1,5.5c-0.8,2.7-0.3,5.2,0.9,7.6c0,1.3,0,2.7,0,4
			c-2.9-0.3-2.7,1.7-2.7,3.6c-0.1,4.8-0.2,9.6-0.2,14.4c-3.7-1.7-2.5-5.2-2.9-8c-0.2-1.6,0.6-3.2,0.4-4.9c0-1.1,0-2.3,0-3.4
			c-0.2-4,0.5-8.1-0.7-12.1C405.8,38.5,404.7,35.4,407.1,32.7z"/>
		<path class="st4" d="M168,168c-1.3-0.7-0.7-3.1-2.8-3.1c0-1.7,0-3.3,0-5l0.3-0.3l0.4,0.2c0.6-0.4,1.3-0.7,2-0.6
			c1.4,0.3,1.9,1.5,1.5,2.5c-0.8,1.8,1,1.9,1.4,2.9C170.9,166.7,170.6,168.4,168,168z"/>
		<path class="st5" d="M412,48.1c-2.2-2-3.5-4.3-1.8-7.4c1-1.8,0.7-3.8-0.1-5.7c0.6,0,1.3,0,1.9,0C412,39.4,412,43.7,412,48.1z"/>
		<path class="st6" d="M250.1,6.1c0.3,1,0.6,2,1,3c-0.4,0.3-0.9,0.4-1.5,0.3c-2.9-1.6-6.6-0.1-9.4-2.2c0-0.4-0.1-0.7-0.1-1.1
			C243.4,6.1,246.8,6.1,250.1,6.1z"/>
		<path class="st7" d="M396,76.9c-3.7,1.7-7.6,2.3-11.7,2.2c-6.4-0.1-12.8-0.1-19.3-0.2c-2-3.5-4-1.4-6,0c-18,0.1-35.9,0.2-53.9,0.3
			c-4.3,0-8.2,0.6-9.2,5.8c-2.7,1.4-3.5-1.1-4.9-2.4c-4.4-6.9-11.2-6.8-18.1-6.2c-2.2,0.2-3.5,1.7-4.4,3.6c-0.9,1.7-1.4,3.8-2.8,5.2
			c-1.7,1.1-2.6,2.8-3.5,4.5c-4,5.4-4.9,5.4-7.6-0.6c-2.3-5-4.5-10.1-3.5-15.9c4.6-3.9,9.8-6,16-5.7c7,0.4,13.8-1.2,20.9-0.3
			c5.2,0.6,9.3,2,12.6,6.5c-1.3-4.3,0.5-6.2,4.2-6.1c10.3,0.4,20.5-2.4,30.9-0.3c3.5,0.7,7-0.7,10.4-0.5c17.8,0.7,35.5-1,53.3,0.2
			c1.9,0.7,3.9,1.6,3.8,3.9c-0.2,2.7-3.2,0.7-4.3,2.2c-0.2,0.3-0.5,0.7-0.7,1c-2.2,1.3-4.4,1.5-6.6,1.3
			C392.4,76.8,395.5,73.9,396,76.9z"/>
		<path class="st8" d="M399,73.1c2.3-1.3,5.6-2.4,1-5c-0.9-8.5-0.9-8.4-10.1-8.5c-40.6-0.1-81.1,0-121.7-0.1
			c-20.8-0.1-41.6,0-62.4,0.1c-2.6,0-5.4,0.4-7.6-1.5c0.1-3.1,2.7-2.3,4.3-2.4c10.1-0.8,10.1-0.7,12.7-10.3c1-3.5,1.4-7.1,3.2-10.4
			c1.1-1.4,2.5-2.1,4.4-1.5c1.9,1.6,1,3.6,0.7,5.5c-0.4,2.4-1.1,4.8-1.6,7.2c-0.6,2.4-1.3,4.8-1.5,7.3c2.3-6.1,2.6-12.9,5.4-18.9
			c1.5-1.5,3.1-2,4.8-0.2c1.4,4-0.9,7.5-1.5,11.2c-0.5,2.7-1.5,5.3-1.9,9.1c2.4-6.9,3-13.3,5.4-19.1c1.3-2,2.9-3.2,5.1-1.1
			c1.2,4.5-1.2,8.4-1.9,12.5c-0.3,2.1-1.1,4.2-1.2,6.4c1.3-5,3.1-9.8,4.1-14.8c0.4-1.9,0.6-4,2.6-5.1c1.3-0.5,2.5-0.5,3.7,0.2
			c1.6,2.1,0.4,4.2-0.2,6.1c-1.3,4.6-2.5,9.2-3.3,14c1.5-4.9,2.9-9.9,4.2-14.9c0.6-2.1,0.8-4.3,3-5.5c1.1-0.4,2.2-0.3,3.3,0.3
			c1.8,2,0.8,4.1,0.4,6.2c-0.8,3.8-2,7.4-3,11.1c-0.8,3,0,4.5,3.2,4.5c1.3,0,2.7,0,4,0c45.9,0,91.9,0,137.8,0c2.8,0,5.7,0,8.4-0.5
			c1.3-0.2,2.6-0.7,3.8-1.2c0.5-0.2,1-0.1,1.5,0.3c0,1,0,2-0.1,3c-3.7,4.6-2.9,9.8-1.9,15C403.7,72.4,401.3,72.8,399,73.1z"/>
		<path class="st9" d="M218,182.5c-3.9,1.7-7.3-0.7-11-1.4c2.9-2.3,4-5.5,5.1-8.9c1.7-5.2,2.2-10.8,5.4-15.5c3-2,4-5.5,6.1-8.2
			c1.4-1.8,2.6-4,5.5-2.5C225.6,158.2,222.4,170.5,218,182.5z"/>
		<path class="st10" d="M229,146c-4.5,0.5-5,4.8-7.1,7.6c-1.1,1.4-1.5,3.4-3.8,3.5c-1.5-2.1-0.4-4.2,0.2-6.2
			c3.6-11.8,7.2-23.5,10.8-35.3c0.5-1.6,1-3.2,2.6-4.1c1.3-0.5,2.6-0.5,3.9,0.1c2,3.6-1.5,5.3-2.6,7.9c-1.7,2.3-2,5.1-3,7.6
			c-1.3,3,1.2,4.3,2.9,6C231.6,137.3,230.3,141.6,229,146z"/>
		<path class="st11" d="M232.1,119c1.3-2.3,2.6-4.7,3.9-7c-0.5-3.8,2.4-5.5,4.9-7.1c2.2-1.4,4.6-2.5,6.5-4.3c0.8-0.6,1.7-1,2.7-1
			c2.1,0.6,3.9,2,6.1,2.5c2.4,1.4,5,2.4,7.4,4.6c-3.7,1.7-7.3,0.1-10.5,1.2c-9,0.7-12.8,7.7-17,14.1
			C233.3,123,232.2,121.7,232.1,119z"/>
		<path class="st12" d="M253.1,107.9c2.8-2,6-0.1,9.1-1.4c-3.1,0.3-4.2-3.3-7.1-3.5c-0.5-2.3-0.3-4.3,2.7-4.4c0.5,0.2,0.8,0.5,1.1,1
			c2,4.4,5.9,4.2,9.7,4.1c2.8,0,5.6-0.2,8.4,0c3.7,0.3,6.7-1.3,9.5-3.2c1.1-0.1,2.3-0.4,2.4,1.3c-1.3,4.5-4.6,6.3-9,6.2
			C271,108,262.1,107.9,253.1,107.9z"/>
		<path class="st13" d="M232.1,119c0.9,1.6,2,2.9,4,3c-1.1,3.7-2.1,7.3-3.2,11c-4.3-0.4-5.9-2.6-3.9-6.5
			C230.2,124,229.6,120.8,232.1,119z"/>
		<path class="st14" d="M289,101.7c-0.7-0.3-1.5-0.6-2.2-0.9c-0.1-0.3-0.4-0.7-0.3-0.9c2.3-5.9,3.8-12,5.7-17.9
			c1.4,0.9,1.5,3.3,3.8,3C295.3,91.3,292.7,96.7,289,101.7z"/>
		<path class="st15" d="M406,72c0.2-2.8-4.1-3.9-2.4-7.5c1.2-2.7,1.4-5.8,4.4-7.4c-0.4,4.4-1.1,8.8,1.1,13
			C409.2,72.5,407.5,72.2,406,72z"/>
		<path class="st16" d="M359,78.9c1.1-1.6,0.8-4.5,4.1-3.9c2.5,0.5,1.7,2.4,1.9,3.9C363,78.9,361,78.9,359,78.9z"/>
		<path class="st17" d="M396,76.9c-1.3-1.6-3.5-0.2-5.4-1.6c2.8-0.4,5.3-0.8,7.7-1.1C397.8,75.3,397.5,76.6,396,76.9z"/>
		<path class="st18" d="M198.4,57.3c2.3,1.5,4.9,0.7,7.3,0.7c62.7,0.1,125.4,0,188.2,0c9.2,0,9.9,1.2,6.2,10.1
			c-11.5,1-23.1-1.1-34.7,0.7c-4,0.6-8.2-0.7-12.4-0.7c-15.6,0.2-31.1,0.5-46.6,0.9c-1.7,0-4-1-4.9,1.2c-1.1,2.6,1.3,3.8,3.3,5.6
			c-4.7,0.8-6.2-3.2-8.7-4.9c-1.8-1.2-3.3-1.7-5.3-2c-8.9-1.3-17.8,0.4-26.8,0.1c-4.9-0.2-8.3,3.6-12.7,5c-4,3.7-2.7,8.6-2.9,13.2
			c-0.2,2.6,2.1,5.3-0.3,7.8c-3.5-0.9-7-2.4-10.4,0.1c-2.4-1.8-0.9-3.9-0.4-5.8c1.4-5.6,3.9-10.8,4.3-16.7c-0.7-5.6-3.6-7.8-7.9-6.1
			c-5.5-0.5-11.2,0.9-16.7-1.5c-3.1-1.3-5.2,0.6-6.2,3.4c-2,5.4-4.2,10.8-5.8,16.4c-1.1,3.7-4.1,6.2-6,9.4c-2.1,2.7-3.3,5.9-4.3,9.1
			c-0.7,2.2-1.4,4.3-3.3,5.8c-0.7,0.3-1.4,0.2-2.1-0.3c1.1-3.4,2-6.8,3.3-10.1c1.6-4.2,2.8-8.4,2.7-12.9c2-4.1,1.3-7.6-2.2-10.2
			c-3.6-2.6-7.4-4.9-10.8-7.7c0.4-2.9,3-2.9,4.9-3.3c5-1,7.9-4.1,9.9-8.5c-0.4-1.4-1.4-3,1.3-3.2C199.4,54.4,199.2,55.9,198.4,57.3z
			"/>
		<path class="st19" d="M240.2,7.2c3.3,0.9,7.2-1.7,10,1.8c1.9,7.1,4.1,14.2,2.6,21.7c-1.3,0.8-2.8,0.8-4.3,0.8
			c-11.7-0.2-23.4,0.5-35-0.3c-1.9-2.6-0.4-6,2.9-6c2.9,0,5.8-0.3,8.7-0.9C231.8,20,237,14.5,240.2,7.2z"/>
		<path class="st20" d="M225.1,24.2c-1.8,1.4-4.1,2-5.9,1.7c-4-0.8-5.6,1.4-7.1,4.2c0,0.4,0,0.8,0.1,1.2c1.2,1.4,2.9,1.4,4.4,1.8
			c1.1,0.3,2.8,0.1,2.5,2.1c-0.7,6.4-3.7,12.3-4.2,18.8c-0.2,2.3-1.8,3.3-4.2,3.2c-4.1-0.1-8.3,0.1-12.4,0.2
			c-0.1-1.4-0.2-2.8-0.2-4.3c-2.1-2.4-0.6-4.9-0.4-7.4c0.2-2.4,1.2-4.7,0.8-7.2c0-0.5,0.2-1,0.6-1.5c1.7-4.6,4.7-7.4,9.7-7.8
			c0.8-0.1,2-0.1,2.3-0.6C214.3,22,220.2,24.8,225.1,24.2z"/>
		<path class="st21" d="M189.2,109c0.7-0.1,1.4-0.2,2.1-0.2c0.6-0.1,1,0.1,1.4,0.6c1.2,2.8-0.1,5.2-1.1,7.6
			c-2.7,6.6-5.8,13-8.7,19.5c-4.8,10.9-9.5,21.9-10.5,34c-0.1,1-0.4,2-1.2,2.6c-2.1-1-2.5-3.1-3.2-5c1.9-0.8,2.3-2.3,2.1-4.1
			c-1.4-3.2,0.7-6.1,1-9.2c0.1-0.5,0.3-0.9,0.4-1.4c2.7-7.2,5.4-14.4,8.7-21.4c2.8-5.5,5.2-11.1,7.7-16.8c0.7-1.7,1.7-3.3,0.9-5.2
			C189,109.6,189.1,109.3,189.2,109z"/>
		<path class="st22" d="M199.1,36.9c0,0.4,0,0.8,0,1.1c1.2,2.5-0.6,4.5-1.5,6.3c-1.1,2.4-3.6,2.1-5.4,0.5c-2.3-2-4.9-3.9-6.2-6.8
			c-0.9-2.2,0.6-3.7,2-4.5c1.4-0.7,4-0.1,4.5,1C194,38.2,196.6,37,199.1,36.9z"/>
		<path class="st23" d="M182.2,68c6.9,1.4,14.8,8.8,15.7,14.7c0.3,1.9,1,4.5-2.7,3.3c-0.7-5.8-4.2-9.7-8.8-13
			C184.7,71.8,182.4,70.7,182.2,68z"/>
		<path class="st24" d="M188.8,110c3.3,1.1,1.4,3.2,0.7,4.7c-2.6,5.8-5.3,11.6-8,17.3c-1.1,0.3-2.4,3.3-3.4-0.2
			C181.2,124.3,185,117.1,188.8,110z"/>
		<path class="st25" d="M186,38.1c2.1,0.8,3.3,2.6,4.8,4.1c4.2,4.2,5.2,4,7.4-1.4c0.4-0.9,0.6-1.9,0.9-2.8c2.2,3.3-0.7,6.4-0.4,9.7
			c0.1,1.7-0.4,3.5-0.6,5.3c-1.2,0.8-0.9,2.1-1.1,3.2c-1.3-7-6.4-11.3-11.1-15.9C185.3,39.8,185.5,38.9,186,38.1z"/>
		<path class="st26" d="M178.1,131.9c1.1,1.8,2.3,0.1,3.4,0.2c-3.1,7.4-6.1,14.7-9.2,22.1c-2.8-0.4-2.3-1.8-1.6-3.8
			c1-3,3.6-5.6,2.7-9.2C174.8,137.9,176,134.7,178.1,131.9z"/>
		<path class="st27" d="M173.4,141c2.3,2.2,1,4.2-0.1,6.5c-1,1.9-3.9,3.9-1,6.5v-0.1c-1.6,1.8-1.3,4.9-4,5.9c-0.8,0-1.5-0.1-2.3-0.1
			C168.8,153.7,170,146.9,173.4,141z"/>
		<path class="st28" d="M253.1,30.1c-1-7.1-1.9-14.1-2.9-21.2c0.3,0,0.6,0.1,0.9,0.2c1.6,4.3,2.3,8.8,2.8,13.4
			c0.7,7.3,0.7,7.3,8.2,7.7c1.5,3.8,1.8,7.9,3.4,11.7c1.3,2.7,3.8,1.8,5.7,1.6c7.9-0.8,15.8-0.6,23.6-1.2c1.3-0.4,2.1-1.2,2.2-2.6
			c0.1-0.6,0.3-1.3,0.5-1.9c1.6-2.2,1.4-4.7,1.4-7.2c0-0.2,0-0.5,0-0.7c1.6-1.8,3.7-0.9,5.6-0.9c25.2-0.1,50.5,0,75.7-0.1
			c1.9,0,4,0.6,5.7-0.9c6.7-0.4,13.4-1.7,20,1c0.2,0.2,0.3,0.5,0.3,0.8c0.3,5.7,0.2,11.4,0.7,17.1c0.3,3.2-0.3,6.2-1.9,9
			c-2.2,0.6-4.4,1.1-6.8,1.1c-49-0.1-97.9,0-146.9,0c-5.6,0-5.4,0-4.1-5.5c1.4-5.8,4.6-11.2,3.8-17.5c-1.1-1.1-0.5-2,0.2-2.9
			C251.9,30.8,252.5,30.6,253.1,30.1z"/>
		<path class="st29" d="M406,29.1c-6.6-0.6-13.4,1.3-20-1c1-1.8,0.8-5.4,4.6-3c4.2,0.9,8.5,0.9,12.7,0
			C406.3,24.3,406.4,24.4,406,29.1z"/>
		<path class="st30" d="M264.1,42c-0.6-3.9-3.9-7.3-2.1-11.7c12.3-0.1,24.6-0.2,36.9-0.3c0.2,0,0.4,0,0.5,0.2
			c-0.8,2.2-2.7,2-4.5,2.2c-9.1,0.2-18.2-0.3-27.2,0.3c-0.4,0.3-0.7,0.6-1,1.1c-0.1,0.5-0.2,1-0.2,1.5
			C265.9,37.6,267.7,40.8,264.1,42z"/>
		<path class="st31" d="M405.1,56c1.8-8.6,0.2-17.4,1.1-26.1c1,0.7,0.7,1.9,0.9,2.8c0,3.2,0.1,6.5,0.1,9.7c0.4,3.9,0.4,7.8,0,11.7
			C406.5,54.7,405.8,55.3,405.1,56z"/>
		<path class="st32" d="M403.4,25c-4.2,1.9-8.5,1.8-12.7,0C394.9,24.5,399.1,24.5,403.4,25z"/>
		<path class="st33" d="M204.1,85c-1.6-1.3-0.1-2.4,0.3-3.5c1.1-3.1,2.5-6.1,3.5-9.3c2.7-8.4,4-10.9,13.2-7.2
			c4.1,1.6,8.7-0.8,13,0.9c4.2,0,7,1.8,8,6c1.1,1.7,0.7,3.4,0.1,5.2c-1.6,4.7-2.9,9.5-4.4,14.2c-0.4,1.2-1.3,2.4,0.2,3.6
			c0.7,0.1,1.3,0.5,1.7,1.1c0.8,2.8,4.1,2.3,5.6,4.2c-2.9,4-6.2,3.4-8.6-1.6c-1,4.6-1.8,9.4-4.7,13.4c-4.1,10-6.5,20.5-9.9,30.7
			c-1.6,4.7-2.7,9.5-4,14.3c-2,6.4-4,12.8-5.9,19.3c-0.8,2.7-1.9,5-5.2,4.8c-2-0.4-3.9-0.8-5.9-1.2c-4.8-1.8-9.8-2.4-14.8-3.5
			c-1.9-0.4-4-0.4-5.4-2.1c0-4.3,3.2-4.6,6.4-4.9c0.6-0.2-0.5-0.8-0.1-0.3c0.2,0.2,0,0.3-0.3,0.4c-6.5,0.8-6.8,0.6-7.4-5.1
			c-1.8-3-1.3-6.1-0.2-9.1c6-15.8,11.6-31.7,17.5-47.6c0.6-1.6,0.8-3.7,3.4-3.6c2.2,3.7,0.1,7.1-1.1,10.4
			c-5.1,14.2-10.1,28.4-15.8,42.4c-0.7,1.7-0.5,3.2,0,4.8c0.6,2.1,1.5,3.3,3.1,0.8c1.9-3,3.2-6.3,4.2-9.6
			c5.6-18.6,12.3-36.9,17.6-55.6c1.1-4,3-7.8,3-12c0.4-2.4,1.4-4.7,1.6-6.7c-3.9,6.9-5.6,15-8.9,22.6c-0.6,1.5-1.3,3.2-3.5,3
			c-1.8-1.8-0.6-3.8,0-5.6c1.4-4.4,3.1-8.7,4.9-13c0.3-0.6,0.2,0.1,0-0.5C205,84.1,204.5,85.3,204.1,85z"/>
		<path class="st34" d="M181.2,173.9c5.2,1.3,10.4,2.7,15.6,3.9c1.6,0.4,3.2,0.6,4.4,1.9c-7.8-1.1-15.6-2.6-23.2-4.7
			c-1.5-2.4-1.9-5.1-2.1-7.8c0,2.5,1,5,0.3,7.5c-1.9,0-3.6-0.4-5-1.8c-0.3-12.6,4.7-23.8,9.6-35.1c3.1-7.3,6.5-14.5,9.7-21.8
			c1-2.2,2.2-4.5,1.6-7.1c2.8-5.1,3.7-10.8,6.1-16.1c2-2.7,4-5.3,6-8c0.7-0.8,1.4-1.7,2.8-3.2c-1.4,8.4-5.8,14.8-6.8,22.2l0,0
			c-3.6,5.8-5.1,12.5-7.6,18.7c-4.2,10.4-7.7,21.1-11.5,31.6c-1.1,3.2-3,6.4,0.1,9.6C177.9,167.3,180.7,170.6,181.2,173.9z"/>
		<path class="st35" d="M176.2,174.8c-1.4-3.6-1.5-7.3-1.6-11.1c3.2,3.2,3.1,7.3,3.4,11.4C177.4,175,176.8,174.9,176.2,174.8z"/>
		<path class="st15" d="M407.2,54.1c0-3.9,0-7.8,0-11.7c1.7,3.8,0.4,7.8,0.8,11.7C407.7,54.1,407.5,54.1,407.2,54.1z"/>
		<path class="st26" d="M168.2,159.9c1.3-2,1.4-4.8,4-5.9c0.4,3.5-2,6.5-2.2,9.9C166,164.2,169.7,160.8,168.2,159.9z"/>
		<path class="st36" d="M247.1,87c0.1-3-0.1-6.1,0.3-9.1c0.3-1.9,0.7-4.4,3.8-3.9c1.7,5.5,3.4,11.1,5,16.6c0.3,0.9,0.6,1.6,1.4,1.9
			c1.2,0.4,1.9-0.4,2.3-1.3c0.4-1.1,0.8-2.2,2.2-2.3c1.6,2.4,2.4,4.8,0.4,7.3c-1.4,1-2.8,2-4.3,2.8c-2.7,0-1.9,2.7-3.1,3.9
			c-2.1-0.2-3.5-1.7-5-3c-2.2-2.2-0.5-5-1.2-7.5C248.4,90.7,248.3,88.7,247.1,87z"/>
		<path class="st37" d="M262,96.2c1.8-2.4-0.7-4.9,0.1-7.3c-0.2-2.2,0.4-3.9,3-3.9c-0.6,6.9,0.4,13.5,3.4,19.8
			c-4.5,0.3-8.9,0.7-10.3-5.1C260.5,99.7,261.7,98.5,262,96.2z"/>
		<path class="st38" d="M252.1,31.1c-0.3,1-0.7,2-1,3c-1,0-2,0-3,0c-1,0.8-2,0.9-3,0c-1.3,0-2.7,0-4,0c-1.2,0.7-2.3,1.7-3.9,1
			c-2-2.4-2.8,0.2-4,1c-1-0.2-2.1-0.4-3-1c-1.3-1.8-2.7-0.6-4,0c-1.2,0.2-2.2-0.1-3-1c-1.5-0.2-2.8,0.3-4,1c-1.4-1.7-3.5-0.5-5-1.2
			c-1.4-0.7-4.7-0.4-3-3.8c11.3,1.1,22.7,0.1,34.1,0.5C247.6,30.7,249.9,30.1,252.1,31.1z"/>
		<path class="st39" d="M245.1,34.1c1,0,2,0,3,0c-1.7,6.7-3.4,13.5-5,20.2c-0.3,1.4-0.9,2.8-2.5,2.5c-2.1-0.3-1.2-1.9-0.8-3.1
			C241.6,47.2,243.3,40.6,245.1,34.1z"/>
		<path class="st40" d="M237.2,35.1c1.2-0.7,2.5-1.2,3.9-1c-1.7,6.5-3.3,13-5,19.5c-0.4,1.5-0.7,3.8-2.9,3.1
			c-2.1-0.7-0.4-2.6-0.1-3.8C234.4,46.9,235.8,41,237.2,35.1z"/>
		<path class="st28" d="M223.2,34.1c1.1,0,2.3-0.1,3,1c-1.4,6.6-2.8,13.1-4.2,19.7c-0.3,1.2-1,2.3-2.4,2c-2.1-0.4-1.2-1.8-0.9-3.1
			C220.2,47.2,221.7,40.6,223.2,34.1z"/>
		<path class="st41" d="M230.2,35.1c1.3-0.7,2.7-1.6,3,1c-1.4,5.9-2.7,11.9-4.2,17.8c-0.3,1.3-0.7,3.4-2.7,2.8
			c-1.9-0.6-0.7-2.1-0.4-3.3C227.3,47.3,228.7,41.2,230.2,35.1z"/>
		<path class="st18" d="M232.1,112c1.4-5.1,2.7-10.1,4.2-15.4c3.7,6,5.1,6.6,8.9,3.4c0.1-0.7,0.5-1.1,1.2-1.4c0.4,0,0.8,0,1.2,0.3
			c0.6,0.6,1.2,1.2,0.6,2.2c-0.9,1.9-2.6,3-4.5,3.7c-3.6,1.3-6.1,3.8-7.6,7.3C234.7,112,233.4,112,232.1,112z"/>
		<path class="st10" d="M248.2,101.1c-0.4-0.7-0.7-1.4-1.1-2.1c-1-1.3-1.2-2.7,0.1-4c2.5-2.7-1-5.3-0.1-8c3.8,3.7,2.8,8.5,3,13
			C249.5,100.4,248.8,100.7,248.2,101.1z"/>
		<path class="st42" d="M262,96.2c0.9,1.3,1.6,2.7,0.2,4c-1.5,1.4-2.7,0.3-4-0.5c0-0.2,0-0.4,0-0.6C258.4,96.8,260,96.3,262,96.2z"
			/>
		<path class="st43" d="M198.2,93c-1.6,5.5-1.1,11.8-6.1,16.1c-0.3-0.1-0.5-0.2-0.8-0.3C193.9,103.7,194.1,97.5,198.2,93z"/>
		<path class="st44" d="M272.1,63.5c-0.1,3-1.9,4.2-3.8,4.2c-2.3,0-3.2-1.9-3.2-4.2c0-2.1,1-3.5,3.3-3.4
			C270.6,60.3,271.6,61.9,272.1,63.5z"/>
		<path class="st45" d="M242.1,72c-1.9-3.1-4.9-4.6-8-6c-0.2-0.6-0.8-1.5,0-1.7C238.1,63.5,242.4,67.7,242.1,72z"/>
		<path class="st46" d="M247.2,95c0,1.3,0,2.7-0.1,4c-0.3,0.1-0.7,0.1-1,0.2c-1.9-2.1-3-5.7-7-3.2c-0.3-0.3-0.7-0.7-1-1
			C241.7,91,243,91,247.2,95z"/>
		<path class="st47" d="M189.9,70.6c0.1,0-0.6-0.8-0.6-2c0-0.9,0.6-1.5,1.6-1.3c1.3,0.2,2.1,1,2.1,2.3C193,70.4,192.4,71,189.9,70.6
			z"/>
		<path class="st48" d="M252.1,31.1c-11.9,0-23.8,0-35.8,0c-1.7,0-3.7,0.7-5.2-0.9c0.3,0,0.6,0,0.9-0.1c13.6,0,27.3,0.1,40.9,0.1
			C252.7,30.5,252.4,30.8,252.1,31.1z"/>
		<path class="st49" d="M264.1,42c2-2.4,0.5-5.2,1-7.8c3.2-2.5,6.9-1.2,10.4-1.4c2.4-0.2,4.9,0,7.4,0c5,0.4,10.1-0.9,15,1
			c1.4,1.4,1,2.9,0.1,4.4c0,0.7,0,1.3,0,2c-6.1,1.2-12.3,1.2-18.5,0.9c-2.5-0.1-4.9-0.5-7.4,0.5c6,0.2,11.9,0.1,17.9,0.2
			c2.1,0,4.4-0.4,6.1,1.5c-3.9,2-8.1,0.5-12.2,1c-5.2,0.6-10.4,0.6-15.7,0.9C266.1,45.2,264.2,44.7,264.1,42z"/>
		<path class="st50" d="M296.1,43.2c-8.4,0-16.9,0-25.3-0.1c-1.2,0-3.1,0.6-3.2-1.3c0-1.6,1.8-1.5,3.1-1.8c3.2-0.7,6.3-1,9.7-0.2
			c2.7,0.6,5.7,0.5,8.6-0.9c2.8-1.3,5.7,2,8.9,1.2C298.2,41.6,298.1,43,296.1,43.2z"/>
		<path class="st51" d="M298.1,38.1c0-1.3,0-2.7-0.1-4c-0.8-0.8-2-0.2-2.9-0.7c-0.3-0.3-0.5-0.7-0.6-1.1c0-0.4,0.2-0.8,0.5-1.1
			c1.5-0.2,3.1,0.4,4.4-0.9C300.2,33.1,301.2,35.9,298.1,38.1z"/>
		<path class="st52" d="M295.1,32.1c0,0.3,0,0.6,0,0.9c-4,1.1-8.1,0.2-12.1,0.5c-6-0.3-11.9,0.7-17.9-0.6c0-0.3,0.1-0.7,0.1-1
			C275.2,31.4,285.1,31.2,295.1,32.1z"/>
		<path class="st53" d="M295.1,32.1c-9.9,0-19.9-0.1-29.8-0.2c2.3-1.9,5-0.9,7.6-0.9c7.4-0.1,14.8,0.1,22.3,0.1
			C295.1,31.5,295.1,31.8,295.1,32.1z"/>
		<path class="st54" d="M265.1,33c6,0.1,11.9,0.1,17.9,0.2c0.4,0.2,0.5,0.3,0.4,0.5c-0.1,0.2-0.2,0.3-0.4,0.3
			c-6,0-11.9,0.1-17.9,0.1C265.1,33.7,265.1,33.4,265.1,33z"/>
		<path class="st55" d="M212.1,85c-0.1,8.3-3.4,15.7-5.9,23.4c-3.8,12.1-8.2,24-11.4,36.3c-1.7,6.3-4.2,12.6-7.3,18.4
			c-0.8,1.4-1.5,3.6-3.3,3.3c-2.1-0.3-2.1-2.6-2.2-4.4c1-4.7,3.1-9.1,4.9-13.5c2.6-6.4,4.5-13.1,7-19.5
			c5.3-13.2,10.3-26.5,14.3-40.2C209,87.1,209.3,84.8,212.1,85z"/>
		<path class="st56" d="M212.1,85c-2.3,1.1-2.2,3.5-2.9,5.5c-3.7,10.7-6.7,21.6-11.4,32c-2.3,5.2-3.5,11.4-5.6,16.6
			c-3.2,7.7-4.8,16.1-10,22.9c-0.9-1.7-1.2-3.3-0.4-5.2c5.5-14.4,11-28.8,16.3-43.2c1.1-3.1,2.2-6.2,2.1-9.6l0,0
			c4.3-4.4,5.1-10.4,6.9-15.9c1.5-4.7,5-8.3,5.1-14.3C215.5,78.4,212.9,81.7,212.1,85z"/>
		<path class="st57" d="M203.1,157.2c0.3,2.9-0.6,4.8-2.7,5.5c-2,0.7-4.2,0.8-6-1c-1.7-1.8-1.5-4-0.9-6c0.4-1.1,1.3-2.8,2.2,0.2
			c0.3,1.1,2.8,0.4,3.9-0.4C203.2,152.9,202.7,155.9,203.1,157.2z"/>
		<path class="st58" d="M229.1,77.1c0.2,2-0.5,3.8-2.7,4.6c-2,0.7-4.2,0.9-6-0.9c-1.7-1.6-1.6-3.6-0.8-5.5c0.6-1.5,1.3-3.3,2.2,0
			c0.1,0.2,2.8,0,4.2-0.4C228.9,73.9,229,73.9,229.1,77.1z"/>
		<path class="st59" d="M239.1,96c1.1-1.6,1.9-3.2,4.6-2.3c3,1.1,1.9,3.5,2.5,5.5c-0.3,0.3-0.6,0.6-0.9,0.9
			C242.2,100,238.9,100.6,239.1,96z"/>
		<path class="st60" d="M181.2,173.9c-3.8-4.4-3.8-7.3-0.1-10c-1.9,7.2,4.2,4.2,8.3,5.8C185,169.7,182.6,171,181.2,173.9z"/>
		<path class="st18" d="M268.3,61.4c0.8,0.3,1.5,0.7,1.5,1.7c0,1.1-0.8,1.8-1.9,1.7c-0.8-0.1-1.5-0.7-1.5-1.6
			C266.4,61.9,267.2,61.4,268.3,61.4z"/>
		<path class="st61" d="M283,34c0-0.3,0-0.5,0-0.8c4,0,8.1-0.1,12.1-0.1c1,0.2,2.3-0.4,2.9,1C293,34,288,34,283,34z"/>
	</g>
</g>
</svg>
