<?xml version="1.0" encoding="utf-8"?>
<!-- Generator: Adobe Illustrator 25.0.0, SVG Export Plug-In . SVG Version: 6.00 Build 0)  -->
<svg version="1.1" id="Camada_1" xmlns="http://www.w3.org/2000/svg" xmlns:xlink="http://www.w3.org/1999/xlink" x="0px" y="0px"
	 viewBox="0 0 591 227" style="enable-background:new 0 0 591 227;" xml:space="preserve">
<style type="text/css">
	.st0{display:none;}
	.st1{display:inline;stroke:#FFFFFF;stroke-miterlimit:10;}
	.st2{fill:#998F69;}
	.st3{fill:#C0B58B;}
	.st4{fill:#CECCC0;}
	.st5{fill:#F6F4DA;}
	.st6{fill:#A08A4D;}
	.st7{fill:#A28A4A;}
	.st8{fill:#9A8247;}
	.st9{fill:#A28B4A;}
	.st10{fill:#998146;}
	.st11{fill:#987F44;}
	.st12{fill:#9A8245;}
	.st13{fill:#86774C;}
	.st14{fill:#F6F5E2;}
	.st15{fill:#C0AF74;}
	.st16{fill:#705E32;}
	.st17{fill:#F4F1D0;}
	.st18{fill:#F2F0D6;}
	.st19{fill:#E6D698;}
	.st20{fill:#F3EEBB;}
	.st21{fill:#5E512D;}
	.st22{fill:#F6F4D7;}
	.st23{fill:#F2F0C8;}
	.st24{fill:#3E351F;}
	.st25{fill:#504324;}
	.st26{fill:#6A5D37;}
	.st27{fill:#5B4F2E;}
	.st28{fill:#584D2E;}
	.st29{fill:#4D442D;}
	.st30{fill:#534729;}
	.st31{fill:#4E462C;}
	.st32{fill:#3F351C;}
	.st33{fill:#3C331D;}
	.st34{fill:#AD9858;}
	.st35{fill:#6A5A32;}
	.st36{fill:#6E613A;}
	.st37{fill:#BDB285;}
	.st38{fill:#846F39;}
	.st39{fill:#D4D1B5;}
	.st40{fill:#9A8346;}
	.st41{fill:#9E8647;}
	.st42{fill:#3B321E;}
	.st43{fill:#40371E;}
	.st44{fill:#947E44;}
	.st45{fill:#7F6F42;}
	.st46{fill:#7D6C3C;}
	.st47{fill:#937C44;}
	.st48{fill:#1A1409;}
	.st49{fill:#AB914D;}
	.st50{fill:#A88F4C;}
	.st51{fill:#7C6B3E;}
	.st52{fill:#7E6F42;}
	.st53{fill:#66562E;}
	.st54{fill:#C9B474;}
	.st55{fill:#AA975C;}
	.st56{fill:#6F6139;}
	.st57{fill:#574928;}
	.st58{fill:#6C6038;}
	.st59{fill:#5F4E22;}
	.st60{fill:#927B40;}
	.st61{fill:#746337;}
	.st62{fill:#7D6B3A;}
	.st63{fill:#221B0E;}
	.st64{fill:#68582F;}
	.st65{fill:#7A6A3C;}
	.st66{fill:#68572D;}
	.st67{fill:#BDA258;}
	.st68{fill:#6C5D35;}
	.st69{fill:#C2AD6D;}
	.st70{fill:#806E39;}
	.st71{fill:#6F6138;}
	.st72{fill:#1D170C;}
	.st73{fill:#A58C4B;}
	.st74{fill:#706036;}
	.st75{fill:#65582E;}
	.st76{fill:#7C6938;}
	.st77{fill:#211A0D;}
	.st78{fill:#584B28;}
	.st79{fill:#B9A364;}
	.st80{fill:#7E6B3A;}
	.st81{fill:#A48C4B;}
	.st82{fill:#66562D;}
	.st83{fill:#B39E5E;}
	.st84{fill:#554827;}
	.st85{fill:#BCA259;}
	.st86{fill:#C8B067;}
	.st87{fill:#6B592E;}
	.st88{fill:#5D4D28;}
	.st89{fill:#8D773D;}
	.st90{fill:#5D4E29;}
	.st91{fill:#796534;}
	.st92{fill:#786535;}
	.st93{fill:#C2B376;}
	.st94{fill:#6B6241;}
	.st95{fill:#786636;}
	.st96{fill:#8B7740;}
	.st97{fill:#736843;}
	.st98{fill:#78704D;}
	.st99{fill:#72694A;}
	.st100{fill:#857E5C;}
	.st101{fill:#504223;}
	.st102{fill:#736234;}
	.st103{fill:#705E31;}
	.st104{fill:#756335;}
	.st105{fill:#594B29;}
	.st106{fill:#85723F;}
	.st107{fill:#766438;}
	.st108{fill:#897745;}
	.st109{fill:#5A4D2B;}
	.st110{fill:#2B2413;}
	.st111{fill:#87753C;}
	.st112{fill:#BDA868;}
	.st113{fill:#5F502A;}
	.st114{fill:#4E4325;}
	.st115{fill:#7D6A38;}
	.st116{fill:#605029;}
	.st117{fill:#9C8445;}
	.st118{fill:#584926;}
	.st119{fill:#AA924E;}
	.st120{fill:#D6BE76;}
	.st121{fill:#B79D57;}
	.st122{fill:#473E25;}
	.st123{fill:#B49A52;}
	.st124{fill:#BBA25B;}
	.st125{fill:#B1A066;}
	.st126{fill:#7C6937;}
	.st127{fill:#9B8547;}
	.st128{fill:#9B854C;}
	.st129{fill:#AD9553;}
	.st130{fill:#63532A;}
	.st131{fill:#6F5E32;}
	.st132{fill:#EBE2AB;}
	.st133{fill:#EEE4A7;}
	.st134{fill:#715F31;}
	.st135{fill:#86723C;}
	.st136{fill:#4B3E21;}
	.st137{fill:#85713D;}
	.st138{fill:#937E43;}
	.st139{fill:#6A5A30;}
	.st140{fill:#6A5A2F;}
	.st141{fill:#4A3D20;}
	.st142{fill:#816C38;}
	.st143{fill:#463A1E;}
	.st144{fill:#88743E;}
	.st145{fill:#927C42;}
	.st146{fill:#E7E0B0;}
	.st147{fill:#A79560;}
	.st148{fill:#A18E5B;}
	.st149{fill:#736032;}
	.st150{fill:#8A753E;}
	.st151{fill:#4E4224;}
	.st152{fill:#584A28;}
	.st153{fill:#5A4B27;}
	.st154{fill:#534625;}
	.st155{fill:#493D20;}
	.st156{fill:#564927;}
	.st157{fill:#978247;}
	.st158{fill:#807040;}
	.st159{fill:#806C3A;}
	.st160{fill:#483B1E;}
</style>
<g id="Camada_2_1_" class="st0">
	<rect x="-400" y="-147" class="st1" width="1043" height="474"/>
</g>
<g id="Camada_1_1_">
	<g>
		<path class="st2" d="M118.4,113c-2.1-3.7-0.8-8.3-3-12c0-2,0-4,0-6c2-2.5,1-5.7,2-8.5c1-2.4,1.3-5.2,3.8-6.7
			c0.5,0.3,0.8,0.7,0.9,1.2c0.2,5.5-1.7,10.7-1.6,16.2c0.1,6.9,1,13.5,3.5,19.9c0.7,1.8,1.6,3.6,0.2,6
			C120.3,120.9,121.4,115.7,118.4,113z"/>
		<path class="st3" d="M475.3,101c-2,2.7-0.9,6.3-2.8,9c-1.1-0.2-0.4-2.6-2.3-1.9c-0.4-0.3-0.6-0.7-0.8-1.2
			c-0.1-5.9,1.3-11.9,0.1-17.8c0.1-0.5,0.4-1,0.9-1.3c1.4-0.1,1.7,1,2.3,1.9c0.3,2.8-0.2,5.7,0.1,7.5c-0.7-2.1,1-5.4-0.6-8.4
			c-1.6-2.7-2-5.8-2.6-8.9c-0.3-1.5-0.8-3.4,1.6-3.9c1.9,4.5,1.4,9.7,4.2,13.9C475.3,93.7,475.3,97.4,475.3,101z"/>
		<path class="st4" d="M313.5,225.1c-1.3,1.6-3.7,0.2-5.1,1.8c-5.3,0-10.7,0-16,0c-1.3-1.7-3.8-0.2-5-2c2.1-2,4.6-1.3,7-1.1
			c4.4,0.9,8.8,0.8,13.2,0.1C309.6,223.6,311.8,223.1,313.5,225.1z"/>
		<path class="st5" d="M261.5,0.1c0.9,1.6,3.2,0.4,4,2l0,0c-6-0.2-12.1-0.6-18-2C252.1,0.1,256.8,0.1,261.5,0.1z"/>
		<path class="st6" d="M271.5,6.2c6.4,1.2,12,4.8,18,7.1c2.6,0.3,4.8,1.2,6.5,3.3c0.3,1,1.3,2-0.1,3.1c-0.9,0.7-3.3-0.4-2.7,1.4
			c1.3,4-1.8,8.3,1.3,12c0.8,1,1.8,1.4,3,1.2c1.8-0.4,2.8-1.7,3.2-3.4c0.7-2.6-0.1-5.2-0.2-7.9c-0.1-2-0.2-3.9-0.3-5.9
			c0.1-1.6,1.5-1.5,2.6-1.8c4.4-1.5,8.2-4.3,12.8-5.1c2,0.2,3.7,0.5,3.1,3.2c-0.1,0.5-0.1,1,0,1.5c0.8,2.3-0.7,6.3,1.2,6.9
			c3.1,0.9,6.8,1.5,10.2,0c1.7-0.7,3.3-1.6,4.8-2.6c1-0.6,2.2-1.9,3.1-1.4c4.5,2.1,8.3-0.7,12.3-1.5c3.1-0.7,5.2,0.7,5.9,3.8
			c0.7,2.9,1.8,5.7,3.5,8.2c0.7,1.1,1.6,2.5,0.6,3.7c-1.2,1.5-2.8,0.5-4-0.2c-7.3-4-15.1-6-23.4-5.3c-1,0.1-2,0.1-2.9,0.4
			c-2.9,0.6-5.9,1.1-8.4,2.9c-2.3,1-4.3,2.5-6.4,3.9c-0.7,0.5-1.5,1-2.3,1.4c-3.3,1.6-5.6,4.3-7.5,7.3c-0.2,0.4-0.5,0.8-0.8,1.2
			c-5.4,8-6.2,16.9-5.5,26.1c5.8,29.6,37.2,41.7,61.4,23.7c2-1.5,3.5-3.6,6.2-4.1c3.9,0,4.3,3.4,5.7,5.8c0.1,5.6-5.1,6.1-8.4,7.6
			c-7.4,3.4-9.4,6.1-7.8,14.6c0.4,2.1,0.8,3.5-1.8,4c-8.7,0.5-17.4,2.1-26.2,0.5c-10.8-1.9-20.2-7.1-29.9-11.7
			c-1.8-2.5,0.4-2.8,1.9-3c2.6-0.4,2.8-1.5,1.9-3.8c-1.3-3.3-0.9-7.2-4.2-9.8c-3.9-3-8.2-1.9-9.7,2.7c-0.2,0.6-0.2-0.1,0,0.5
			c0.6,2.9-2.6,4.8-2.1,7.5c0.8,3.5,4.5,0.8,6.3,2.6c0.6,0.5,0.7,1.1,0.3,1.7c-3.8,2.7-8.7,2.7-12.7,5c-6.7,2.4-13.4,5.2-20.7,5
			c-4,0-8.1,0-12.1,0c-2.5,0-5,0.1-7.4-0.3c-1.1-0.4-2.4-0.7-1.7-2.4c1.9-4.4-0.4-8.4-1.4-12.4c-0.4-1.5-1.3-3.2-2.6-3.4
			c-5.8-0.8-7.5-7.2-12.7-8.7c-0.5-0.9-0.6-1.9-0.4-3c0.5-1.9,1.6-3.3,3.6-3.7c4.1,0.5,5.6,4.7,9,6.2c12.8,10.3,35.1,11,47.9-2.4
			c10.3-7.3,15.8-25.4,11.9-38.8c-0.5-1.5-1.2-3-1.5-4.6c1.1,5.3,4.4,10.3,2.3,16c-1.7,0.8-2.2-0.7-2.2-1.7
			c-0.4-6.3-3.8-11.5-6.4-17c-0.1-3.3-2.5-5-4.9-6.6c-1.1-0.8-2-1.9-2.9-2.9c-2.8-3.2-7.4-3.6-10.1-6.8c0-0.8,0.5-1.2,1.2-1.4
			c-0.2-0.7-0.8-0.3-1.2-0.3c-1.7,0-3.2-0.7-4.9-0.8c-6.9,0.1-14-1.1-20.5,2.2c-1.7,1-3.3,2.2-4.8,3.4c-1.1,0.8-2.2,1-3.5,0.5
			c-1.9-3.5,3.5-16.5,7.2-17.3c0.5-0.1,1.1-0.3,1.5-0.1c6.1,3.4,13.8,1.3,19.6,5.6c2.8,2,5.5,2.1,8.8,1.7c4.5-0.5,3-4.2,4.1-6.3
			c1.2-2.2-1.2-2.4-2.6-3.2C270.8,9.1,266.8,8.5,271.5,6.2z"/>
		<path class="st7" d="M402.2,38.9c17.3-3.6,32.7,0.7,46.8,10.9c1.5,1.1,2.9,2.2,4.3,3.3c4.6,1.7,7.2,5.6,9.6,9.5
			c2.9,4.6,5.6,9.3,6.5,14.8c-0.1,3.6,3.1,6.8,1.3,10.7h-0.4c-0.5,4.6,0.1,9.1,0,13.7c-0.3,8.2-3.6,15.3-6.5,22.6
			c-3,6.9-9.1,11.1-14.1,16.4c-0.9,1-2.1,1.6-3.1,2.5c-10.9,7.2-22.6,11.4-35.9,9.4c-2.4-5.9-6.8-8.7-12.9-10.5
			c-4.4-1.3-6.1-7.1-4.2-10.7c4.6,0.5,8.9,2.4,13.4,3.5c17.9,4.3,39.4-10.2,44.4-26.7c2.2-7.1,3.4-13.9,2.1-19.9
			c0.9,2.9,0.5,7.2,0.5,11.4c0,1,0.4,2.5-1.6,2.4c-2-3.1-1.8-6.7-2.4-10c-0.7-4.1-2.4-7.9-3.3-12c0.3-2.5-1.3-4.5-1.4-6.9
			c-1-4.7-4.2-7.3-8.7-8.4c-5.8-1.9-11.2-4.7-17.4-5.7c-6.7-1.1-12.8,0.1-19,2.1c-1.3,0.4-2.5,0.9-3.9,0.5c-1.7-1-0.6-1.8,0.2-2.7
			c1.3-1.3,3.4-1.2,4.7-2.6c0.8-1.2,2.2-1.9,2.4-3.5c-0.2-5.3-0.2-5.4,4.8-3.9c0.9,0.4,1.2,0.2,1.1-0.8c-2.1-2.7-4.2-3.5-6.6-0.4
			c0,0.4-0.1,0.8-0.2,1.2c-1,1.2-2.2,2.1-3.8,2.3c-0.5-0.1-0.8-0.4-0.9-0.9c-0.3-2.5,1.2-5.5-2.1-7c-1.1,1.5-0.6,3.1-0.3,4.6
			c0.5,2.4-0.4,3.7-2.9,3.7c-2.2-0.7-2.2-2.5-2.2-4.3c0-0.8,0.3-1.6,0.3-2.4c0.3-6.2,0.3-6.3,6.3-5.3c2.6,0.4,5.2-0.6,7.9,0.1
			C403.8,39.3,402.8,39.9,402.2,38.9z"/>
		<path class="st8" d="M329.5,26c9.5-2.7,18.2,0,26.6,4.2c1.1,0.6,2,1.7,4,1.4c-2.4-4.1-5-7.8-5.6-12.5c-0.3-2.3-2.3-2.2-3.9-1.8
			c-2.2,0.6-4.5,1.1-6.4,2.6c-0.8,0.6-2.1,1.6-2.6,0.9c-3.2-4.6-5.5-0.6-8,0.7c-3.3,1.7-7.1,1.3-10.2,2.2c-8.6,2.4-5.1-3.4-6-6.7
			c-0.6-2.3,1.5-5.4-2-6.9c18-7.2,46.7-5.6,63.8,14.9c3.5,4.2,6.9,8.5,11.2,12c-2,3.1-3.7,1-5.5-0.2c-1.9-1.7-3.9-3.8-4.3,1
			c-0.3,3.2-1,6.1-5.4,5.2c-1.1-0.2-1.8,0.6-2.1,1.7c-0.1,3.1,1.8,5.8,1.5,8.8c0,1.7,0.2,3.5-0.8,5.1c-1.5,1.2-2.2-0.1-2.5-1
			c-1.7-4.8-4.6-9.1-6.5-13.8c-0.6-4.4-4.2-6.3-7.3-8.5c-7.1-4.7-14.8-7.1-23.4-6.2c-1,0.1-2,0-2.9-0.3c-0.5-0.2-0.9-0.5-1.2-0.8
			C329.5,27.5,329.3,26.8,329.5,26z"/>
		<path class="st9" d="M145.3,49c9.8-6.7,20.8-9.3,32.6-9.1c3.8,0.1,7.7,0.2,11.5,0.3c-1.3,2.9-4.1,0.2-5.6,1.4
			c2.4,0.4,5.2-1.1,7.8,0.6c-0.7,2.7-2.4,4.6-4.7,6.1c-1.8-1.4-3.7-2.8-6.4-2.5c-0.4,0,0.2,0.9,0.1,0.2c0-0.3,0.1-0.3,0.4-0.3
			c2,0.2,3.8,1,5.4,2.3c0.4,0.8-0.4,1.7,1.1,2.5c4.9,2.5,9.2,5.9,12.8,10c0.5,0.5,0.5,1.2-0.1,1.8c-3,1-5.1-1.6-7.7-2
			c-14.1-5.7-27.2-2.6-39.8,4.7c-4.1,1.1-6.5,4-8.3,7.7c-2.7,4.8-4.6,10-7.8,14.5c-0.8-0.4-1.6-0.4-1.7,0.1c-0.2,1.5-0.3,3-1.9,3.7
			c-0.4-0.1-0.7-0.2-0.9-0.5c-3.2-5.9-3.2-5.9-9.2-3.4c-0.3,0.1-0.6-0.1-0.9-0.3c-0.8-5.3,1.1-9.9,3.3-14.4
			c4.6-8.7,10.7-16.1,18.9-21.8C144.8,50.2,145.3,49.7,145.3,49z"/>
		<path class="st10" d="M271.5,6.2c-2.6,2.4,0.3,2.6,1.4,2.7c4.2,0.5,5.3,2.2,2.8,5.8c-0.1,0.1-0.2,0.3-0.2,0.5
			c-0.7,2.7,0.8,6.4-5.2,5.5c-3-0.4-5.8,0-8.9-1.8c-2.4-1.4-5.2-6.1-9.2-1.5c-1.1,1.3-2.4-0.5-3.2-1.5c-1.9-2.3-4.8-2.1-7.2-2.8
			c-0.6-0.2-2.2,0.3-2.2,0.6c-0.5,5.7-6.7,9.2-6,15.4c0.2,0.4,0.1,0.9-0.2,1.2c-3.3,1.9-6.2,4.3-7.9,7.8c-0.2,0.4-0.5,0.8-0.8,1.1
			c-0.4,0.3-0.8,0.5-1.2,0.6c-1.1,0.3-2.1,0.7-3.3,0.4c-0.4-0.2-0.8-0.4-1.2-0.6c-3.5,0-5.9-1-6.2-5.1c-0.2-2.8-3.4-2.7-5.2-4
			c-0.4-0.3-0.6-0.7-0.7-1.2c-0.1-1.8,1.1-3.1,1.9-4.5c2.7-3.7,6.7-6.2,9.3-9.9c11.5-9.6,25.1-12.4,39.6-11.5
			C262.5,3.7,267.1,4.2,271.5,6.2z"/>
		<path class="st11" d="M207.4,29.1c0,0.3,0,0.7,0,1c1.1,2,2.3,4,3.7,5.8c0.8,1.1,1.5,2.2,1.7,3.5c0.2,1.7,0.2,3.7-1.4,4.4
			c-1.9,0.9-1.4-2.2-3.2-2.5c-0.6,3,0.8,5.8,0.6,8.7c0.1,2,0.5,4-1.4,5.5c-1.5,0.4-2.3-0.3-2.9-1.6c-1.2-2.2-0.3-4.6-0.5-6.9
			c-0.4-0.6-0.4-1.3-0.5-1.9c-0.3,0.4-0.3,0.8-0.5,1.2c-0.7,1.4-1.6,2.6-2.8,3.5c-1.6,1.1-3.4,2.4-5.5,1.6c-2.3-0.9-1.6-3-1.6-4.7
			c0-0.7-0.4-1.3-0.9-1.7c-0.4-0.2-0.7-0.5-1-0.8c-0.2-0.4-0.1-0.8,0.2-1.1c-2.4-2.2-5.5-0.1-8.1-1.4c1.8-1.5,4.4,0.4,6-1.4
			c0.4,0,0.8,0,1.1-0.1c5.2-0.1,8.4-3.5,11.4-7.1C203.5,31.4,204.4,28.6,207.4,29.1z"/>
		<path class="st12" d="M385.5,36.1c1.5,1,2.9,2.6,5,1c3.7,1.6,7.6,2.4,11.7,1.9c0.8,0.1,1.5,0.2,2.3,0.3c-4,1.2-7.9,1.9-11.8,0
			c-1.6,2.5,0.2,5.5-1.3,7.9c-2.4,0.4-1.8-3.8-3.7-2.8c-2.4,1.3-0.3,3.8-0.2,5.8c0,2.7,0.4,5.8-3.5,6.4c-0.5-0.1-0.8-0.4-1.1-0.8
			c-1.1-3.2-1.1-6.6-0.4-9.7c0.7-2.9-1.4-1.1-2-1.7c-1.8-3-0.1-5.6,1.1-8.1C382.5,33.7,384.2,36,385.5,36.1z"/>
		<path class="st13" d="M145.3,49c1.3,1.2-0.1,1.7-0.7,2.2C137.3,57,131.4,64,126.8,72c-3.2,2.1-1.8,6.9-5.1,9
			c-0.1-0.4-0.2-0.9-0.3-1.3C124.5,65.8,132.3,55.4,145.3,49z"/>
		<path class="st14" d="M468.5,76.9c-3.1-9.2-8.3-17-15.2-23.8c1.8-0.8-1-1.9,0.6-3.1c6.8,6.9,13.8,13.5,15.5,23.7
			C469.8,75,471,76.5,468.5,76.9z"/>
		<path class="st15" d="M200.3,34c2.8-7.9,8.5-13.4,14.9-18.3c0.2-0.2,0.9,0.2,1.4,0.3c-0.8,4.1-4.8,5.4-6.9,8.4
			c-2.3,3.1-5.1,5.9-7.4,9C201.8,34.1,201.1,34.6,200.3,34z"/>
		<path class="st16" d="M200.3,34c3.8-2.7,5.4-7.4,9.2-10.1c0.6,0.4,0.6,0.9,0.1,1.4c0.1,1.7-1.5,2.4-2.1,3.8c-3,3-5.8,6.3-9,9.1
			c-2.1,1.8-4.5,4.1-7.9,2.1c0.9-0.4,1.9-0.9,2.8-1.3c0.6-1.5,2.1-1.3,3.2-1.8C197.9,36.1,199,35,200.3,34z"/>
		<path class="st17" d="M196.6,37.1c-0.8,1.1-1.9,1.7-3.2,1.8c-5.6-0.3-11.3,0.2-16.9-0.8c-1.3-0.2-2.6,0-3.9-1.1
			c2.2,0,4.5-0.4,6.6,0.1C185,38.6,190.9,35.9,196.6,37.1z"/>
		<path class="st18" d="M295.5,17c-1.8-1.7-4.6-1.7-6.1-3.7c4.5-0.2,8.9,0.7,13.2,1.9c-0.8,0.6-1.6,1.1-2.4,1.7
			C298.6,18.6,297.1,18.2,295.5,17z"/>
		<path class="st19" d="M468.5,76.9c1.2-0.8,0.7-2.1,1-3.2c0.9,0.6,1.6,1.3,1.8,2.3c-2.1,2.5,0.2,4.8,0.5,7.1c0.3,2,0.7,3.9,0.7,5.9
			l0,0c-0.6-0.3-1.1-0.6-1.7-0.9C469.8,84.4,469.2,80.7,468.5,76.9z"/>
		<path class="st20" d="M390.2,33.5c4.3,3.3,9.5,2.3,14.2,3.1C399.3,36.6,394,38.9,390.2,33.5z"/>
		<path class="st21" d="M209.5,25.3c0-0.5-0.1-0.9-0.1-1.4c2.4-2.6,4.8-5.3,7.2-7.9c0.6-0.3,1.1-0.7,1.6-1c1.9,2-0.7,2.4-1.4,3.2
			C214.5,20.7,212,22.9,209.5,25.3z"/>
		<path class="st22" d="M265.5,2.1c4.5-0.8,8.2,1.7,11.9,4.1C273.3,4.8,269.5,3.5,265.5,2.1L265.5,2.1z"/>
		<path class="st23" d="M418,35.8c-3.2,0-6.4,0-9.6,0c0-0.2,0-0.3,0-0.5c3.3,0,6.6,0,10,0C418.3,35.5,418,35.7,418,35.8z"/>
		<path class="st24" d="M189.5,160c-24.1,3.8-43.2-5.3-58.9-23c-0.4-3.2-2.3-5.8-3.6-8.6c-0.6-1.4-2.8-3.7,0.9-4.4
			c1.4,0.8,2,2.1,2.8,3.4c13.9,21.6,33.5,27.9,56.6,24.9c2.4-0.3,4.9-1.5,7.2,0.2c0.5,0.6,0.7,1.3,0.8,2
			C196.4,159.4,192.6,159.4,189.5,160z"/>
		<path class="st25" d="M191.3,207.1c-1.4-1.2-0.8-2.7-0.7-4.1c1.4-1.3,0.7-3.1,1.3-4.6c1.3-3,1.3-6.3,1.4-9.5
			c0.2-1.3,0.4-2.5,1.8-3.1c2.6,1.5,1.4,4.1,1.7,6.2c0.3,2-0.1,4,0,5.9c0.2,3.6,1.8,4.4,4.7,2.4c-0.4-0.5-1.1-0.6-1.7-1
			c-1.4-0.9-2.9-1.8-2.4-3.9c0.4-1.6,1.3-2.7,2.9-3.1c1.9-0.4,3.5,0.4,4.1,2.1c0.8,2.2,2.2,2.6,4.1,2.4c2.7,3,4.4,7.1,9.6,7.1
			c3.3,0,6.5,1,10.4,1.2c-0.9-2.2-1.3-4.5-4.4-4.1c-0.5,0.1-1.1-0.1-1.3-0.5c-2.5-4.4-6.1-2.7-9.6-1.7c-1.6,0.5-3.6,1.8-4.2-1.3
			c0-0.2,0-0.3,0-0.5c-0.5-1.8-4.8,0-3.3-3.3c1-2.3,3.6-2,5.6-1.8c2.9,0.3,5.6,1.8,8.6,1.7c5.9,0.7,9.9,3.6,11.7,10
			c-0.1-2.1-1.6-4.7,2-4c1.1,0.7,1.6,1.8,1.8,3.1c-0.9,3.1,0.4,4.4,3.5,4.6c3.6,0.3,7.1,1.6,10.5,2.8c1.4,0.7,3,1,3.3,2.9
			c-0.2,0.9-0.8,1.3-1.7,1.4c-8.9-3.1-18.1-5-27.4-6.5c-1.7-0.3-3.5-0.4-4.8-0.6c-1.1,0-0.1,1.1-0.4,0.5c-0.1-0.1,0.1-0.2,0.4-0.2
			c8.1,0.6,16,2,23.7,4.3c0.1,1.1-0.6,1.5-1.5,1.8c-12.8-2.1-25.7-4.3-38.7-5.1C198.6,208.4,194.9,208.7,191.3,207.1z"/>
		<path class="st26" d="M195.4,186c-1.1,0.8-0.8,2-1,3.1c-2.4-0.5-1.8-2.4-1.9-3.9c-0.3-3.8,0.6-7.5,0.6-11.3c0-0.1,0.2-0.3,0.3-0.4
			c-0.1,0-0.2,0-0.2,0c-1.3,6.7,0.1,13.5-1.2,20.2c-0.4,0.5-0.9,0.6-1.5,0.3c-0.3-11.3-0.6-22.7-1-34c0.8-0.7,0.6-3,1.3-2.4
			c5.2,4.7,2.1-2.4,3.7-2.5c2.6,1.3,2.4,3.8,2.5,6c0.2,5.3,0,10.6,0,15.8C196.9,180,197.8,183.3,195.4,186z"/>
		<path class="st27" d="M127.3,124.1c-0.9,2.8,1.1,4.5,2.3,6.5s2.6,3.9,1,6.3c-6.2-6.9-9.8-15.1-12.1-23.9c0.1-0.5,0-1.1,0.2-1.5
			c0.8-1.3,0.7,0.1,0.9,0.4c1.5,3.4,2,7.2,4.8,10.2c-5.9-13.4-6.3-27.1-2.7-41c1.9-2.9,1.9-6.6,4.2-9.3c0.1-0.1,0.5,0.2,0.8,0.3
			c-1.8,4.9-4.4,9.5-4.3,15c0.8,1.2,0.7,2.6,0.4,3.9c-2.3,10,0.4,19.3,3.9,28.5C127.3,120.9,128.4,122.4,127.3,124.1z"/>
		<path class="st28" d="M191.3,207.1c15,1.1,30.1,2.2,44.9,5.2c1.8,0.4,3.6,0.5,5.4,0.7c5.3-0.3,10.4,1.6,15.4,2.7
			c6.3,1.4,12.6,2.8,18.8,4.3c4.9,1.2,9.8,1.9,14.7,2.6c1.6,0.2,3.9-0.4,4,2.4c-2.3,0-4.7-0.1-7-0.1c-21.6-3.8-42.7-10.4-64.5-13.6
			c-8.7-1.3-17.5-1.9-26.3-2.4C194.6,208.8,192.5,209,191.3,207.1z"/>
		<path class="st29" d="M190.4,193.9c0.4,0,0.7,0,1.1,0c1.5,1.4,0.7,3.3,0.9,5c-0.2,1.6,0.7,3.7-1.9,4
			C190.5,199.9,190.5,196.9,190.4,193.9z"/>
		<path class="st30" d="M294.5,225.1c-5.4-2-11.3-1.6-16.8-3.2c-0.8-0.2-1.5-0.6-2.2-0.9c0.3-0.4,0.7-0.7,1.1-0.9
			c5-1,10.1-2.6,15.1,0c0.2,0.6,0,1.1-0.1,1.6c10.7-0.4,21.4,1.2,31.9-1.8c8.9-2,17.7-4.4,26.5-6.4c7.3-1.4,14.3-4.3,21.9-4.3
			c0.5,0.3,1.2,1.1,0.6,1.4c-1.9,1,0.8,0.8,0.3,1.4c-19.7,4.3-39.2,9.6-59.2,13C307.1,224.8,300.8,227.1,294.5,225.1z"/>
		<path class="st31" d="M446.3,142c6-5,11.4-10.6,16-16.9c1.1-1.2,1.5-2.8,2.6-3.9c3.1-3.9,3.3-9.2,6.4-13.1
			c2.2-0.4,0.4,1.6,1.2,2.1c-1.1,5.7-2.9,11.1-6,16c-5.3,6.8-9.7,14.3-17.5,18.8c-1.2,0.7,0.8,1.2,0.3,1.9c-5.8,4.1-11.7,8-18.9,9.2
			c-0.8-1.6-2.2-1-3.5-0.9c-1.9,0.1-4,0.5-5.6-1.3c0.3-1.8,1.8-1.6,3-1.7c7.2-1,13.4-4.3,19.7-7.6C445,143.9,446,143.1,446.3,142z"
			/>
		<path class="st32" d="M446.3,142c-0.5,4.3-4.7,4.4-7.3,5.8c-5.1,2.9-10.8,4.8-17.7,5.5c2.9,0.9,4.8,0.8,6.7,0.2
			c2.4-0.7,3.2,0,2.3,2.4c-4.8,1.9-9.9,2.9-15,2.7c-2.5-0.1-3.2,0.5-3,3c0.2,3.8,0.1,7.6,0.1,11.4c-2.8-0.3-3-2.5-3.2-4.6
			c-0.3-2.2-0.1-4.5-0.5-6.7c0-3,1.6-6.2-1.8-8.5c0.5-2.3,1.8-2.3,3.4-1.2C423.5,152.7,435.5,149.5,446.3,142z"/>
		<path class="st33" d="M372.7,212.1c-0.8-0.1-1.6-0.3-2.3-0.4c0.7-0.6,1.4-1.1,2.1-1.7c6.4-3.2,13.4-2.9,20.2-3.9
			c2.9-0.4,5.9-0.5,8.8-1.2c-17.4,2.2-34.8,4.4-51.7,9.3c-1,0.3-2.1,0.7-3.2,0.7c-1.2-0.1-2.2-0.4-2.3-1.8c1.8-1.9,4.4-2.1,6.6-3.1
			c9.8-2.7,19.7-4.4,29.7-6c4.7-0.8,9.4-1.2,14.1-2c4.4,0,8.6-1.4,13-0.9c2.1,0.9,3.9,2.3,3.3,4.9c-0.7,2.6-3.1,1.9-5,2
			c-3.6,0.3-7.3,0.7-10.9,0.5c-3.4,1.7-7.2,0.2-10.6,1.6C380.7,211.4,376.7,211.9,372.7,212.1z"/>
		<path class="st34" d="M409.3,161c1.5,2.2,1,4.8,1.2,7.2c0.2,1.8,0.4,3.6,1.9,4.9c1,11.3,1.6,22.5-0.1,33.8c-0.2,0-0.5,0-0.5,0
			c-0.9-6.9-5.8-12.7-5-20.2c0.7-6.7,0.1-13.6,0.2-20.4C407.2,164.3,406.3,161.7,409.3,161z"/>
		<path class="st35" d="M409.3,161c-1.1,0.8-0.9,2-0.9,3.2c0.2,10.2-0.6,20.5,0.7,30.6c0.2,1.7-0.6,3.7,2.7,4.5
			c2.1,0.5-0.6,4.9,0.5,7.5c-0.3,1.8-1.8,1.8-3.1,1.8c-5,0.2-9.9,0.3-14.9,0.4c-0.6-0.4-0.5-0.7,0-1.1c3.9,0.3,7.8-0.6,11.6-1.1
			c1.4-0.2,3.3,0.7,4-1c0.8-2.2-1.2-3.1-2.6-4.1c-1.5-1.6-1.4-3.6-1.4-5.6c0-8.1-0.3-16.2,0-24.3c-0.2-4.4-0.2-8.8,0-13.2
			c0.1-1.8-0.1-3.7,1.6-4.9C411,154.1,411.5,155.9,409.3,161z"/>
		<path class="st36" d="M449.3,146.7c-1-1.3-2.1,0.2-4.7-0.4c10.1-4.9,14.9-13.8,22-20.3C462.8,134.6,457,141.4,449.3,146.7z"/>
		<path class="st30" d="M394.5,208c0,0.4,0,0.7,0,1.1c-3.3,1-6.6,1.1-10,1C387.5,207.9,391.3,209.5,394.5,208z"/>
		<path class="st37" d="M118.3,95.5c0,2.5,0,4.9,0,7.4C117.3,100.3,117.5,97.7,118.3,95.5z"/>
		<path class="st38" d="M465.3,122.2c-0.8,1.1-1.1,2.8-3,2.8c0.3-5.1,3.7-9,5.1-13.7c1.8-5.8,1.8-11.6,1.9-17.5c0-1.9-0.7-4,0.8-5.7
			c2,6.6,0.6,13.3,0,19.9C469.8,113.2,467.8,117.7,465.3,122.2z"/>
		<path class="st7" d="M465.3,122.2c1.6-4.7,3.3-9.5,4.9-14.2c0.4,0,0.7,0,1.1,0C470.5,113.2,469,118.2,465.3,122.2z"/>
		<path class="st39" d="M472.3,89c2.2,3.2,0.3,6.6,0,9.8C472.3,95.6,472.3,92.3,472.3,89L472.3,89z"/>
		<path class="st40" d="M127.3,124.1c-3.7-8.2-6.7-16.7-6.6-25.8c0-3.8,0.5-7.6,1.8-11.2c1.8-2.2,3.5-4.1,6.9-3.1
			c3.5,1,2.7,3.9,3.5,6.7c0.7-2.3,1.2-4,1.7-5.7c1.3,0.1,0.7,1.7,1.6,2.1c0.8,0.5,1.1,1.3,1.3,2.1c0.7,6.5-1.2,13-0.2,19.6
			c0.1,1.1-1.5,1-1.5,2.2c0.3,6.1,10.7,19.2,17.1,21.5c4,1.8,8.4,2.9,11.7,6c9.9,3.6,20.2,4.2,29.6-0.5c17.5-8.6,26.3-23.1,26-42.8
			c0-1.5-0.3-3,1.1-4.1c1.2,0.7,2.4,1.1,3.7,1c0.6,0,1.3,0.1,2,0.2c-0.9,6.6,6.1,4.3,8.4,7.5c2.8,3.8,2.6,8.4,4.1,12.4
			c1,2.5-1.1,3.4-1.1,5.1c-1.1,3-4.7,2.6-6.5,4.7c-2.8,4.1-5.4,8.3-8.7,12.1c-1.2,1.4-2.3,2.9-4.1,3.4c-2.1-0.3-2.8-2.2-4.2-3.3
			c-1.2-0.9-1.8-3.3-3.9-2.1c-1.7,0.9-3.9,1.9-3.6,4.3c0.4,4-1.9,5.9-4.8,7.9c-3.4,2.4-6.1,5.5-8.5,8.9c-6.4-0.4-12.7,1.5-19.2,1.3
			c-20.7-0.7-35.8-10.3-46.5-27.6C128.3,125.8,127.8,124.9,127.3,124.1z"/>
		<path class="st41" d="M354.1,120.1c3.4-1.4-0.8-1.6-0.4-2.7c1.2-4.1-0.1-8.5,1.8-12.5c1-2,2.9-2.9,4.9-2.8
			c4.5,0.3,6.7-3.9,10.5-4.9c0.3-0.1,0.3-1.5,0.5-2.3c0-1.1,0.5-1.4,1.4-0.7c1.3,1.9,0.9,4.2,0.9,6.3c0.2,5.7,2.6,10.5,5.2,15.4
			c2.5,5.3,7.9,8.1,10.8,13c-2,5.4-6.4,9.4-9.3,14.2c-1.1,0.3-1.8-0.3-2.6-0.9c-4.4-5.3-9.5-10-13.8-15.3c-1.7-2.1-4-3.4-6.5-4.3
			C356.1,122.1,354.5,122.1,354.1,120.1z"/>
		<path class="st42" d="M354.1,120.1c11.8,3.2,17.1,13.7,24.4,21.9c3,3.7,2.2,8.1,2,12.3c-0.1,1.1-0.3,2.6-1.8,2.4
			c-1.3-0.1-1.4-1.6-1.6-2.7c-0.2-1.6-0.1-3.3-0.2-4.9c0.1-1.9-0.1-3.8-1.8-4.9c-6.1-4-10-10.1-15-15.2c-2.5-2.5-5.2-3.7-8.8-3.8
			c-6.5-0.1-12.9,0.4-19.4,0.1c-8.8-0.4-17-2.8-24.7-6.8c-3.8-2-7.5-3.3-11.8-2.3c-4.9,0.1-9.5,2.2-14.4,2.4
			c-2.9-0.9-1.7-2.3-0.3-3.5c1.7-1.4,4-1.5,6-2.7c-1.5,0-2.6,0.8-3.9,0.9c-1.3,0.1-3.1,1-3.4-1.4c4-2.3,8.6-2.8,12.9-4.2
			c2-1.5,3.7-1,5.2,0.9c10.3,3.8,19.7,9.9,30.9,11.6C337.1,121.7,345.6,119.9,354.1,120.1z"/>
		<path class="st43" d="M279.5,112.1c1.8,1.9,3.4,0,5-0.3c1.7-0.3,3.3-1.4,5.5-0.2c-1.9,1.8-3.8,3-6.3,3.6c-1.1,0.2-4.2-0.2-2.9,2.9
			c-0.6,2.5-3,2.9-4.9,3.7c-11.5,4.6-23.4,4.1-35.3,3.1c-1.2-0.6-2.1-1.5-0.2-2.3c1.3-0.5,2.8-0.1,4.2-0.2c0.7-0.1-0.2-0.9,0.1-0.3
			c-2.9,0.6-6.1-0.5-8.9,1.4c-1.7-0.5-5,1.7-4.3-2.7c2-2.2,4.9-2.4,7.3-3.8c2.5,0,5,0,7.5,0c4.5,0.7,9,0.6,13.6,0
			C266.8,117.1,273,114.2,279.5,112.1z"/>
		<path class="st44" d="M297.5,108.8c-1.7-0.3-3.5-0.6-5.2-0.9c-1.2-1.4-2.8-1.2-4.2-0.7c-3.4,1.3-4.7-1.6-4-3
			c1.8-3.6,0.8-8.3,4.4-11.2c1.8-1.5,3-4.6,5.9-3.1c3.6,1.9,7.1,4.4,7.8,9.1c0.1,0.8-0.6,2-0.3,2.4
			C308,108.4,301.3,107.7,297.5,108.8z"/>
		<path class="st45" d="M366.3,90c-6.4,5.6-13.2,10.2-21.8,12.2c-19.7,4.6-41-8.2-46.1-27.9c-0.4-1.4-0.6-2.9-0.9-4.3
			c1.2-4.9-0.4-10.1,1.4-15c0.4-1.1,0.3-2.3,1.9-2.3c2.8,1.5,1.9,4,1.6,6.1c-2.4,16.9,3.9,30.3,17.7,37.5c13.2,6.9,30.5,4.2,42-6.6
			c1.2-1.1,2.1-2.7,3.9-2.9c0.5,0.2,0.9,0.5,1.1,1.1C367.1,88.7,367,89.4,366.3,90z"/>
		<path class="st46" d="M221.5,91c1.4,12.5-1.4,24.1-9.2,34c-13.2,16.8-28,20.2-47.7,15.1c-0.4-0.1-0.8-0.4-1.2-0.6
			c0.4-0.2,0.8-0.4,1.2-0.7c1.6-1.1,3.2-0.4,4.8-0.1c21.7,4.2,43.5-10,48-31.6c1.4-6.9,1-13.8-0.3-20.7c0.1-2.7-1.4-4.9-2.2-7.4
			c-0.5-1.7-1.7-3.2-0.7-5.1c2.2-0.6,3,1,3.6,2.4c1.7,3.7,3.5,7.4,3.5,11.6C221.5,89,221.5,90,221.5,91z"/>
		<path class="st47" d="M295.5,17c1.6,0,3.1-0.1,4.7-0.1c1.8,2.7,2.3,14.5,0.8,16.8c-2.3,3.3-6.8,3.1-8.4-0.6
			c-0.9-2.1-1.9-4.3-0.8-6.7c1.3-3,0.5-5.4-1.9-7.5C291.6,17.3,295.1,21.8,295.5,17z"/>
		<path class="st48" d="M278.3,32.2c-0.6,0.6-0.9,1.1-2,0.5c-23-13-47.1-3.9-56,21.3c-1,0.1-1.3-0.6-1.5-1.3c0.4-5.2,3-9.4,5.8-13.6
			l0.2,0.1c1.8-4.1,5.1-6.7,8.5-9.2c0.1-0.2,0.2-0.4,0.3-0.7c1.1-0.1,2.3,0.2,3-0.9c6.9-4.1,14.4-5.9,22.3-5.2c3,0.3,6.4,0,8.6,2.8
			C271.3,27.6,275.3,29,278.3,32.2z"/>
		<path class="st49" d="M366.3,90c0.1-0.6,0.1-1.2,0.2-1.8c2.5-5.8,5.9-11.1,7.7-17.2c1-3.6,4.6-3.9,7.7-1.3c0.1,0.5,0.1,1,0,1.4
			c-1.7,2.6-3.5,5.2-4.8,8c-2.9,4.6-2,10.3-4.8,14.9c-0.3,0.3-0.6,0.7-0.8,1C368.8,94.3,370,89.7,366.3,90z"/>
		<path class="st50" d="M221.4,88.1c-1.3-3.3-2.7-6.5-4-9.8c-0.7-1.6-1-3.5-3-4.2c-1.3-0.2-2.1-1.1-2.7-2.1
			c-0.5-2.3-3.2-3.7-2.4-6.4c5-3.7,7.9-2.7,9,3c0.7,3.8,1,7.8,4.4,10.4c1,0.8,1.7,1.7,1.7,3.1c-1,1,0.9,2,0,3
			C223.1,85.7,222.1,86.7,221.4,88.1z"/>
		<path class="st51" d="M281.3,87.8c7.5-7.3,11.2-16.2,11.9-26.5c1-6.1-1.2-11.6-2.5-17.4c3.6,5.2,5,10.9,4.7,17.1
			c-0.4,9.2-3.5,17.4-9.3,24.6c-1.2,1.5-2.4,3.2-4.7,3.5C281,88.8,281,88.3,281.3,87.8z"/>
		<path class="st52" d="M281.3,87.8c0,0.4,0.1,0.9,0.1,1.3c-7.6,8.7-17.5,10.9-28.5,10.2c-5.9-0.4-11.3-2.1-16.5-4.8
			c-1.6-0.9-3.2-1.7-4-3.5c0.3-0.4,0.7-0.4,1,0C250.8,101.4,266.3,100.4,281.3,87.8z"/>
		<path class="st10" d="M267.5,25.9c-9.3-2.9-18.3-2.4-27.2,1.6c-1.2,0.6-2.4,1.1-3.8,0.8c1-1.6,2.6-2.3,4.1-3.3
			c7.3-3.4,15.2-1.8,22.7-2.9c2,1.2,4.5,0.6,6.4,2.3C269,24.9,268.3,25.4,267.5,25.9z"/>
		<path class="st53" d="M301.3,53c-3.3,2.1-2.2,5.7-2.9,8.7c-0.6,2.7,0.9,5.6-0.9,8.2c-0.5-8.7-0.2-17.2,4.5-24.9
			c0.7-1.1,1.1-2.5,2.5-2.9c1.5,3.8-2.3,6.4-2.2,9.8C302,52.4,301.8,52.8,301.3,53z"/>
		<path class="st54" d="M301.8,52.2c-1.7-4.1,2.5-6.6,2.7-10.1h-0.1c2.4-3.1,4.9-6,8.2-8c0.6-0.5,1.2-1,1.8-1.4
			c0.3,0.4,0.5,0.8,0.6,1.3c-0.3,2.8-2.6,4.1-4.3,5.9c-2.6,2.8-5.2,5.6-6.2,9.5C304.1,50.7,303.6,52.1,301.8,52.2z"/>
		<path class="st55" d="M314.8,34.5c-0.1-0.6-0.1-1.2-0.2-1.8c1.6-1.8,3.9-2.3,5.9-3.3c3.2-1.3,6.2-3.5,10-2.2c0,0.3,0,0.5,0,0.8
			C325.5,30.8,320.5,33.6,314.8,34.5z"/>
		<path class="st56" d="M263.3,22.1c-0.6,0.3-1.1,0.9-1.7,0.9c-7.1-0.5-14.1,0.8-21.1,2C247.8,20.4,255.8,22.6,263.3,22.1z"/>
		<path class="st40" d="M233.5,91c-0.3,0-0.7,0-1,0c-3.8-0.5-4.9-4.6-8-6c-0.3-1-1.6-2,0-3C227.4,85,230.5,88,233.5,91z"/>
		<path class="st57" d="M312.6,34.1c-2.7,2.7-5.5,5.4-8.2,8C306,38.3,308.8,35.5,312.6,34.1z"/>
		<path class="st40" d="M259.8,117.2c-4.5,1.1-9,1.3-13.6,0C250.8,117.1,255.3,117.1,259.8,117.2z"/>
		<path class="st58" d="M330.5,27.1c-3.6-0.3-6.6,1.9-10,2.2c2.4-2.7,5.7-3,9-3.3C329.8,26.4,330,26.7,330.5,27.1z"/>
		<path class="st59" d="M285.5,41c-1.7-2-3.4-4-5.1-5.9C283.5,35.9,286,37.2,285.5,41z"/>
		<path class="st60" d="M380.3,142.8c1.4-5.6,5.8-9.3,9.1-13.7c2.3-0.3,3.7,0.5,4.1,2.9c0.6,4.5,1.3,9.2,6.7,9.9
			c6.3,0.8,9.9,3.6,10.3,10.1c-1.3,0.1-2.9-0.3-2.9,1.8c-0.1,6-0.1,12-0.2,18c-5.2,3.6-6.4,3.3-6.9-2.1c-0.2-1.5,0.9-2.8,0.9-4.3
			c0-1.3,0.4-3.4-2.2-2.4c-1.2-0.2-1.2-1.1-1.1-2.1c0.3-1.8,1.3-2.9,3.1-3.4c1.1-0.3,3.2,0.2,2.2-2c-0.7-1.5-2.2-1-3.4-0.5
			c-0.8,0.3-1.4,0.8-1.9,1.5c-0.6,1.4-0.2,2.9-0.2,4.4c-1.1,3.6,2.1,1.3,3,2.2c0.9,3.8-0.6,7.5-0.6,11.2c-0.1,2.4-2.3,1.9-3.7,0.7
			c-1.5-1.3-1.6-3.2-1.7-5c0.4-1.4-0.1-2.8-0.4-4.1c-0.1-0.8-0.1-1.6-0.1-2.5c0-2-0.7-3.6-3-3.9c-2.6-0.3-3,1.4-3.1,3.4
			c0,0.5-0.3,1-0.5,1.4c-1.2,1.7-1.9,4.2-4.5,3.9c-2.4-0.3-2.8-2.4-2.7-4.5c1.2-6.5,0.7-13.1,0.4-19.6
			C380.5,143.8,380.5,143.3,380.3,142.8z"/>
		<path class="st61" d="M393.5,132c-1.4-1-2.7-1.9-4.1-2.9c-4.1-3.6-8.5-7-11-12.1c-0.3-1.1,0.2-1.4,1.2-1.1
			c6.5,9.3,14.8,15.9,26.3,18.3c19,3.8,38.2-6.9,44.5-25.2c0.8-2.3,1.1-4.8,1.7-7.1c2.8-3.5,1.2-7.5,1-11.3
			c-0.1-1.4-0.8-2.8-0.4-4.4c4.9,9.5,0.1,28.3-8.8,37.1C429.3,137.7,411.2,141,393.5,132z"/>
		<path class="st62" d="M381.5,70.1c-3.1-2.1-5.7-1.2-6.8,2.6c-1.6,5.8-3.8,11.2-8.2,15.5c0-0.4-0.1-0.9-0.1-1.3
			c1.4-5.9,5-11,6.2-17c1-3.1,0.6-6.2,0.4-9.3c0-0.5,0.1-1,0.4-1.4c0-2,0.1-4.1,0.1-6.1c3,0.4,2.5,3,3.1,4.9c0.5,1.7-0.5,3.7,1,5.3
			c3.7-1.3,1.7-5.5,3.8-7.5c0.7-0.3,1.4-0.3,2.1,0.3l0,0c0.7,0.9,1.6,1.1,2.6,0.8c0.8-0.2,1.6-0.3,2.4-0.4c2.2,0.1,3.2-4.4,6.2-1.6
			c0.2,0.4,0.3,0.8,0.4,1.3c0,0.5-0.2,0.9-0.4,1.3c-0.3,0.4-0.8,0.5-1.1,0.8c0.5,0,0.9-0.1,1.3-0.3c2.1-0.6,4.1-2.6,6.5-0.9
			c-1.1,2.7-5.2,1.5-6,4.6c-0.9,2.1-3.2,2.3-4.8,3.5C387.3,66.3,384.8,69.2,381.5,70.1z"/>
		<path class="st63" d="M390.8,64.1c1.1-1.7,2.9-2,4.6-2.5c14.5-6.9,28.3-4.8,41.9,2.6c0.4,0.3,0.6,0.7,0.5,1.3
			c-0.6,1-1.3,1.4-2.3,0.5c-14-7.7-28-8.7-42.2-0.6c-3.4,1.9-6.2,4.5-8.8,7.3c-1.1,1.2-1.9,2.8-4,2.4c-0.8-0.9-0.6-1.7,0.2-2.5
			C384,69.8,386.8,66.2,390.8,64.1z"/>
		<path class="st64" d="M386.3,58.1c-1.4,0-2.9,0-2.9-2.1c3.9-1.4,3.4-4.5,2.4-7.3c-0.4-1.1-0.6-2-0.5-3.2c0.2-1.5,0.3-3.1,2.2-3.3
			c1.9-0.2,2.5,1.1,2.8,2.7c0.1,0.8,0.6,1.4,1,2.2c0.3,1.5-0.7,3.7,2,4c1,0.5,2.4,0.3,2.6,1.9c0,1-0.5,1.8-1.5,2.1
			c-1.4-0.9-2.2-0.4-3,1c-0.6,1.1-1.3,2.9-3,1c-0.4-1.1,0.5-1.7,1-2.5C388,55.4,387.3,56.9,386.3,58.1z"/>
		<path class="st12" d="M395.5,53.1c-0.7-0.7-1.4-1.3-2.1-2c3.5-1.9-0.7-4.3,0.5-6.7c0.5-1-0.1-2.7,1.8-3.1c3.2,2.6,2.2,6.5,2.8,9.8
			l0,0c0.2,0.2,0.3,0.5,0.3,0.8s-0.1,0.4-0.1,0.4C397.7,53.1,396.8,53.7,395.5,53.1z"/>
		<path class="st65" d="M398.3,52c0-0.3,0-0.7,0-1c1.3-1,2.7-2,4-3c4.5-1.8,5.2-1.6,6,2c-4.1-2.6-3.9,0.5-4.1,3.1
			c-0.5,0.4-1.1,0.5-1.8,0.2C401.7,51.4,399.5,53.5,398.3,52z"/>
		<path class="st66" d="M437.8,65c-0.2-0.3-0.3-0.5-0.5-0.8c5.1,0.7,7.9,4,9,8.8c-1.8,0.7-2.5-0.8-3.5-1.7
			C441.2,69.2,438.5,67.9,437.8,65z"/>
		<path class="st67" d="M402.3,53.2c0.7,0,1.3,0,2,0c0.7,2.6-1.9,2.6-3,3.8c-2.5,0.7-5,1.4-7.4,2.1c0.8-3,3.3-4.2,5.8-5.4
			C400.5,53.3,401.3,53,402.3,53.2z"/>
		<path class="st68" d="M398.5,51.1c-0.4-0.2-1.2-0.3-1.2-0.5c0.1-3.2-0.3-6.4-1.6-9.4C399.5,43.6,400,47.1,398.5,51.1z"/>
		<path class="st69" d="M408.3,50c-1-3.7-4-1.4-6-2l0,0c2.7-3.7,3.6-3.7,7.9,0.1c-0.1,1,1.2,2.2,0,3.1
			C409.3,52.1,408.8,50.8,408.3,50z"/>
		<path class="st70" d="M443.7,71.2c0.9,0.6,1.8,1.2,2.7,1.8c-1.3,2.3,3.5,3.9,0.7,6.3c-1.6-2.4-3.2-4.8-4.8-7.3
			C442.5,71.4,442.8,71.1,443.7,71.2z"/>
		<path class="st65" d="M410.3,48.1c-2.6-1.5-5.2-3.4-7.9-0.1c-3-0.7-0.8-1.8,0-2.3C405.7,43.4,408.7,44.4,410.3,48.1z"/>
		<ellipse class="st71" cx="413.3" cy="55.6" rx="7.1" ry="0.3"/>
		<path class="st72" d="M356.3,35.1c-21-9.6-37.1-5.5-51.2,13.1c-0.4,0.5-1,0.7-1.6,1c1.6-6.5,6.6-10.5,11.2-14.7
			c4.9-3,10-5.4,15.7-6.6c10.4-1,20.2,0.5,28.7,7.2C358.1,35.8,357.1,35.6,356.3,35.1z"/>
		<path class="st73" d="M381.3,56.1c0,1.8,0.1,3.6-0.1,5.4c-0.3,2.5-2.2,3.8-4.5,3.7c-2.8-0.1-1.2-2.5-1.3-3.8
			c-0.2-2.9-0.1-5.9-2.1-8.3c1.1-3.1-3-5.7-1-9c2.2-0.2,3.2,2,5.1,2.4C380.5,49,382.5,51.9,381.3,56.1z"/>
		<path class="st74" d="M377.3,47.1c-2.5,0.5-3.6-1.6-5-3c-1.5-3.5,2.6-2.6,2.8-2.6c5,2.3,4.1-2.2,4.4-4.2c0.2-1.6-0.6-3.2,1.8-3.8
			c2.5-0.7,3.1,1.1,4.1,2.5c-5.5,0.3-5,4.4-5.1,8.1C381.5,47.3,379.8,47.5,377.3,47.1z"/>
		<path class="st75" d="M356.3,35.1c0.9,0,1.9,0,2.8,0c2.6,2.3,6.8,3.3,6.2,8C362.3,40.4,359.3,37.8,356.3,35.1z"/>
		<path class="st76" d="M192.4,44.2c3.7-2.3,0.6,2.7,2.5,2.3c0.1,1.4-2.5,3,0.1,4c2,0.7,3.6-1,5.2-2.1c0.9-0.6,1.6-1.6,2.3-2.4
			c0.7,0.2,1.2,0.6,1.4,1.4c-0.5,2.1-0.6,4.1,1.6,5.4c0.1,1.3,0.6,2.2,2,2.2c3.3,0.8,2,3.3,2,5.4c-0.3,1.1-0.8,2-1.5,2.8
			c-0.8,0.7-1.8,0.9-2.9,0.9c-1.5,0-2.9-0.4-4.1-1.4c-0.1-0.2-0.3-0.4-0.4-0.6c-3.2-2.4-5.2-6.1-9.4-7.5c-1.9-0.6-3-3.3-5.3-4.4
			c-1.6-0.8,0.8-1.3,0.7-2.1l0,0c2-1.3,1.7-5,5-5c0,0.3,0,0.5-0.1,0.8c0,0.9-0.6,1.7-0.5,2.7C191.3,45.7,191.4,44.7,192.4,44.2z"/>
		<path class="st77" d="M136.6,89.2c-0.1-0.7-0.1-1.4-0.2-2.2c1.7-5.3,4.6-10.1,7.2-14.9c2.3-3.1,4.9-5.9,8.1-8
			c8.3-4.8,16.9-8.4,26.7-8.1c5.2,0.1,10.2,1.4,15,3.2c0.2,1.5-0.9,1.7-1.9,2c-6.4-0.1-12.6-2.1-19.3-0.9
			c-15.2,2.7-25.6,11.2-32.1,24.8C139.3,86.6,139.1,89,136.6,89.2z"/>
		<path class="st78" d="M191.3,60.2c0.8-0.3,1.8-0.1,2.2-1.1c2.3,1,4.7,2,7,3V62c2,1.8,5.6,1.9,6.3,5.2c-0.2,0.8-0.7,1.2-1.5,1.3
			C200.4,66,195.1,64.2,191.3,60.2z"/>
		<path class="st79" d="M151.6,64.1c-2.7,2.7-5.4,5.3-8.1,8C145.1,68.3,147.6,65.4,151.6,64.1z"/>
		<path class="st76" d="M186.5,48c-2.2-0.6-4.5-0.8-6.4-2.6C183.1,44.5,185.1,45.5,186.5,48C186.4,48.1,186.5,48,186.5,48z"/>
		<path class="st80" d="M207.4,62.8c0.3-0.6,0.6-1.2,0.9-1.8c0.9-0.6,0.4-1.9,1.4-2.4c4.4,1,5.6-0.8,5.8-5.2
			c0.3-4.7,2.6-9.2,4.9-13.4c0.9-0.3,1.8-0.7,2.7-1c1,2.9-1.3,4.8-2.2,7.2c-0.8,2.2-2.3,4.2-1.6,6.8c0.3,0.3,0.6,0.7,0.8,1
			c-1.8,8.6-1.9,17,2.4,24.9c-4.4-1.5-4.3-5.8-5.3-9.2c-1.7-5.7-2.7-6.3-8.2-3.7C207.3,65.8,206.8,64.7,207.4,62.8z"/>
		<path class="st81" d="M220.5,40.1c1.3,2.4-1,4-1.5,6c-0.8,3-2.4,5.8-2.5,9.1c-0.3,6.2-0.5,6.3-6.9,3.9c-2.3-6.1,0.7-10.8,4.4-15.2
			c0.8-3.4,2.1-6.2,6.5-4.7C220.4,39.4,220.5,39.7,220.5,40.1z"/>
		<path class="st16" d="M220.4,39c-3.9-0.5-4.8,2.1-5.2,5.1c-3.1,1.3-3.8,5.7-7.7,5.9c-0.1-2-0.2-3.9-0.8-5.8
			c-0.6-2.1-0.7-5.1,1.6-5.5c2.9-0.6,1.6,2.8,2.5,4.5c2.3-3.7-0.3-6-2.1-8.6c-1-1.3-3.1-2.4-1.2-4.5c3.9,0.3,7.4,1.3,7,6.3
			c-0.1,1.9,0.6,2.2,2.3,1.8C218,37.9,219.4,37.7,220.4,39z"/>
		<path class="st82" d="M233.3,29.9c-1.9,3.9-5.5,6.3-8.5,9.2C225.1,33.8,228.9,31.6,233.3,29.9z"/>
		<path class="st83" d="M219.4,53c-2.2-2.1,0.1-3.9,0.6-5.8c0.7-2.8,2.1-5.5,3.2-8.2c0.4,0,0.9,0,1.3,0
			C223.8,44.1,220.1,48,219.4,53z"/>
		<path class="st84" d="M207.5,50.1c2.9-1.5,4.1-5.3,7.7-5.9c-3.5,4.3-6.8,8.7-5.7,14.8c-0.1,0.9-0.2,1.8-1.2,2.1
			c-0.2-2,0.9-4.3-0.9-6C207.9,53.4,207.9,51.7,207.5,50.1z"/>
		<path class="st85" d="M205.4,52.8c-4-0.8-3.5-3.1-1.9-5.7c0.3-0.4,0.6-0.4,0.9-0.1C206,48.8,203.9,51.1,205.4,52.8z"/>
		<path class="st86" d="M192.4,44.2c-1.2,1.3,0.8,3.8-1.7,4.6c-0.4,0.1-1.2-0.2-1.2-0.4c-0.4-2,1-3.1,2.1-4.5
			C191.8,44,192,44.1,192.4,44.2z"/>
		<path class="st87" d="M204.4,47.1c-0.3,0-0.6,0.1-0.9,0.1c-0.4-0.4-0.8-0.7-1.1-1.1c0-1.1,0-2.2,0-3.6
			C204.9,43.2,204.4,45.2,204.4,47.1z"/>
		<path class="st88" d="M377.3,47.1c1.3-0.7,3.3-0.6,3-2.9c2.9,0,0.7-2.6,3-4.7c0,6.2,0,11.4,0,16.6c-0.7,0-1.4,0-2.1,0
			C380.7,52.8,379.8,49.6,377.3,47.1z"/>
		<path class="st89" d="M194.4,153c0.2-6,5.8-7.6,9.2-11c1.1-1.1,3.5-1.6,2.8-3.5c-1.9-4.7,2.4-6,4.4-8.6c1-1.3,1.9-0.8,2.8,0.3
			c1.9,2.3,3.9,4.5,5.8,6.7c0.5,0.3,0.8,0.8,1,1.3c0.9,5.1,0.4,10.3,0.5,15.4c0,2.2,0,4.3,1.7,6c2.2,4,5.4,7.1,8.5,10.3
			c1.5,1.9,3.1,3.8,5.2,5c0.4,0.2,0.8,0.5,1.1,0.8c1.5,1.4,3,2.9,4.2,4.7c1.7,2.7,1.7,4.7-2.2,4.8c-6.7-1.4-12.3-5.5-18.4-8.3
			c-4.5-2-7.2-6.3-6.9-11.4c0-0.6,0.5-1.4-0.7-1.3c-1.4,0.5-2.7,1.5-4.3,1.1c-1.8-0.8-1.7-2.6-2.1-4.1c-0.5-1.9-1-3.8-3.4-4.3
			c-0.4,0.2-0.9-0.8-1.3,0.1c0.6,0.2,1.1,0.6,1.4,1.2c0.6,2.2,0.6,4.3-1.4,5.9c-0.1,0.4-0.3,0.8-0.4,1.2c0.8,7.8-0.1,9.5-6.5,11.5
			c-0.6-7.3,1.1-14.7-1-21.9C194.4,154.3,194.4,153.7,194.4,153z"/>
		<path class="st90" d="M213.5,163c0.5-0.8,1.2-1.2,2.1-0.7c1.2,0.6,1.1,1.8,0.4,2.5c-1.9,2.1-1.8,3.7,0.7,5.1
			c0.1,0.1,0.3,0.3,0.3,0.4c-1,6.4,5.2,5,7.9,7.4c4.3,3.7,10.2,4,14.7,7.3c-1.9,4.6-4.6,5.9-7.8,3c-1.8-1.6-1,0.5-1,0.5
			c-2.1,3.3-4.8,4.3-8.4,2.4c-1.3-0.8-2.6-1.6-2.3-3.4c1-1.4,2.3-0.6,3.5-0.4c1.2,0.2,2.3,0.6,2.5-1.2c0.2-3.7-2.6-4-5.2-4.6
			c-3-0.8-4.5-4-8.3-3.8c-2.6,0.1,0.5-3.4-1.9-4.5c-2.2,2.1-2.2,5-2.2,7.8c0.5,7.5,0.5,7.5,7.9,9c2.1,0.4,4.1,1.1,6.2,1.7
			c2.2,0.8,4.6,0,6.7,1.2c1.1,0.6,2.1,0.2,2.3-0.9c0.8-3.5,4.1-2.4,6-2.8c2.4-0.5,3.7,1.6,3.1,4.2c-0.3,1.6-1.5,2.9-1.4,5
			c2.7-0.3,5.3-3.6,8.1-0.6c0.7,2.5-0.9,3.3-2.8,3.6c-1.5,0.2-2.8,0.8-4.1,1.5c0.9,1.3,2.2,0.9,3.2,1.4c1.3,0.5,2.8,1,3,2.8
			c-0.5,1-1.4,1.4-2.4,1.6c-3.8-0.9-7.4-2.1-9.9-5.4c-0.3-0.9-0.7-1.8-1-2.7c-4.5-2.2-8.2-6.1-13.7-5.9c-4.3-0.7-8.2-3-12.9-2.1
			c-2.7,0.5-2.5-2.3-3.3-4.1c0.1,2.1-0.6,3.4-2.7,2.7c-2-0.7-5.1-2.9-3.6-4.3c4.5-4.1,2.5-10,5.1-14.5c0.4-0.3,0.8-0.4,1.2-0.3
			c0.5,0.4,0.7,1.3,1.3,1.2c0.8-0.2,0.3-1,0.3-1.6c0.5-2,2.2-2.8,3.9-3.6C211.3,166.9,212.9,165.4,213.5,163z"/>
		<path class="st91" d="M203.5,171.9c-1.6,2.1-1.6,4.6-1.4,7c0.2,2.9-0.1,4.9-2.9,6.5c-2.6,1.4-1.8,2.6,3.4,4.9
			c1.2-1.8-1-3.8,0.4-5.6c1.8,8.3,9.5,6.3,14.9,8.3c0.6,0.2,1.1,0.6,1.7,0.9c0.3,0.2,0.4,0.4,0.4,0.6c-0.1,0.2-0.2,0.3-0.3,0.3
			c-3.8,0.2-7.1-2.4-10.9-1.9c-1.1,0.1-2.7,0.1-2.4,1.7c0.2,1.5,1.5,0.5,2.4,0.5s2.2-0.4,2.4,1c0.1,0.7-0.8,0.9-1.4,1
			c-0.4,0.5-0.8,0.5-1.2,0c-2,1.1-4.2,3.3-4.4-1.5c-0.1-1.6-1.5-2.5-3.2-2.4c-1.3,0.1-1.9,1.1-2.4,2.3c-0.9,2.4,1.3,2.1,2.3,2.9
			c1,0.8,2.1,1.3,3.4,1c-0.1,2.5-2.6,1-3.2,2.8c-0.6,1.8-2.6,0.9-3.9,0.6c-1.8-0.3-1.3-2-1.4-3.3c-0.1-4.5,0-8.9-0.1-13.4
			c0-3,0.1-6.1,0.1-9.1c3.7-2.9,7.7-5.6,5.1-11.4c-0.1-0.3,0.6-1,0.9-1.6C203.6,166.3,205,168.7,203.5,171.9z"/>
		<path class="st92" d="M208.4,197c0.4,0,0.8,0,1.2,0c0.2,3.1,2.2,1.6,3,0.8c2.2-2.2,4.9-1.1,7.4-1.4c0.7-0.1,2.8-0.3,2.8,1.9
			c0,2.1,0.2,3.2,2,0.6c0.7-1.1,1.7,0.5,2.2,1.1c1.5,1.9,2.8,4,4.7,6.9c-5.6-0.8-10.3-1.9-14.9-1.9
			C211.3,204.9,210.8,200.1,208.4,197z"/>
		<path class="st29" d="M276.5,220.9c-0.3,0-0.7,0-1,0c-11.5-2-22.8-4.7-34-8c0.3-0.3,0.7-0.7,1-1c3.2-0.3,5.9,1.4,8.9,1.9
			c0.4-0.3,0.8-0.6,1.1-1c0.4-0.4,0.8-0.6,1.3-0.8c2.8-0.2,5.4,0.3,7.6,2.1c1.6,2.9,4.4,2.1,6.9,2.1c0.5,0,0.9,0.2,1.3,0.4
			C271.1,219.2,275.5,217.2,276.5,220.9z"/>
		<path class="st28" d="M253.4,212.9c-0.3,0-0.7,0-1,0c-1-0.6-2-1.3-3-1.9c-1.3-1.6-3.8-1.2-5-3.1c0.4-0.8,1.2-1,2-1
			c2.4-2.6,5.4-1.1,8.1-0.9c2,0.7,4,1.5,6,2c1.3,0.4,3.4,1.1,2.5,2.7c-0.6,1.2-1.7,3.2-4,2.6C257.3,212.9,255.4,211.6,253.4,212.9z"
			/>
		<path class="st93" d="M192.4,198.9c-1.7-1.4-0.5-3.4-0.9-5c0.2-7.3-0.1-14.5,1.4-21.9c1.2,5.8-0.2,11.6,1.4,17.1
			C194.3,192.4,194.9,196,192.4,198.9z"/>
		<path class="st94" d="M251.3,213.9c-3.1,0.1-6-0.9-8.9-1.9c-8.3-1.5-16.5-3-24.8-4.4C229,208.6,240.6,208.8,251.3,213.9z"/>
		<path class="st95" d="M244.4,207.9c3.7,1.1,3.7,1.1,5,3.1c-5.4-1.1-10.6-3.1-16.2-3.3c0.3-1.8,1.6-3.1,1.2-4.8
			C237.9,204.6,241.1,206.3,244.4,207.9z"/>
		<path class="st96" d="M219.5,194.8c0-0.3,0-0.6,0-0.9c5.6,0.1,10.4,1.9,14,6.4c-3.5,0.2,0.5,3.1-1.7,3.9
			C228.9,199.8,226.1,194.7,219.5,194.8z"/>
		<path class="st97" d="M197.1,204.1c3.6,0.4,7.1,0.8,10.7,1.2c-3.8,2.7-7.2,0.1-10.8,0.2C197.1,205.1,197.1,204.6,197.1,204.1z"/>
		<path class="st98" d="M349.3,213.8c11.9-4.3,24.4-5.9,36.8-7.7c6.4-0.9,12.9-2.3,19.5-2.1c0.1,0.4,0.1,0.8,0.2,1.2
			c-11.1,1.6-22.1,3.2-33.2,4.8c-7.5,0.9-14.7,3.1-22.1,4.9C350,214.5,349.3,214.4,349.3,213.8z"/>
		<path class="st99" d="M323.5,221c-6.5,1.8-13,2.7-19.8,2.1c-4.6-0.4-9.2-0.2-13.9-0.2c-0.1,0-0.2-0.2-0.3-0.3
			c0.3-0.2,0.6-0.5,0.9-0.7c2.9-2.2,6.1,0.4,9.3-0.7c0.3,0-0.6-0.9-0.3-0.3c0.1,0.2,0,0.4-0.3,0.4c-1.3,0.2-2.6,0.3-3.9-0.2
			c-0.3-0.5-0.2-1,0.1-1.5c2.9-1.6,6.1-1.2,9.1-0.6c0.8,0.1,1.7,0.5,1.6,1.5s-1.4,0.5-1.8,1.2c5.3-1.9,10.8-2.5,16.4-2.6
			C322,219.4,323,219.9,323.5,221z"/>
		<path class="st28" d="M295.5,220c0,0.3,0,0.6,0,0.9c-1.3,0.9-2.7,0.8-4.1,0.1c-3.5,0-6.9-2.5-10.6-0.1c-1.1,0.7-2.9,0.1-4.4,0.1
			c-1.7-1.5-4-1.5-6-1.9c-1.6-0.3-1.4-1-1-2c2.7-2,5.8,0.4,8.5-0.9c4.5,0.1,8.9,1.4,13.3,1.6C293,217.8,294.5,218.4,295.5,220z"/>
		<path class="st100" d="M323.5,221c-0.8-0.1-1.6-0.2-2-1c3.4-2.9,7.8-3.4,11.8-4.3c4.3-1,8.6-2.7,13.2-1.7c0.9-0.1,1.8-0.2,2.7-0.2
			c0.4,0.4,0.8,0.8,1.2,1.1C341.5,216.9,332.5,219,323.5,221z"/>
		<path class="st101" d="M291.5,220.9c1.4,0,2.7,0,4.1-0.1c1.6,0,3.2,0,4.8,0c0,0.3,0,0.7,0,1c-3.3,0-6.6,0-9.8,0
			C290.8,221.5,291.1,221.2,291.5,220.9z"/>
		<path class="st101" d="M346.5,214c-8.3,2-16.7,4-25,6c-5.9,0.9-11.8,2-17.7,1.9c-0.5-1.6,1.8-0.5,1.5-2c-3.2,0-6.5,0-9.7,0
			c-6-1-12-2-18-3.1c-0.9,0.7-1.9,0.7-2.8,0.3c-1.4-0.6-3.7,0-4.2-1.8c-0.6-1.7,0.7-3.4,2.2-4.1c3.3-1.5,0.5-5.4,3.1-7.1
			c2.1-0.4,3.9,0.5,5.8,1.2c12.4,4.2,24.7,4.7,37.1,0c5.9-2.2,6.2-2.1,8.7,3.8c1.4,3.3,3.1,3.9,6.5,3c3.5-0.9,6.9-2.7,10.7-2
			c2.2,0.9,0.3,1.8,0.1,2.8C344.8,213.8,345.6,213.9,346.5,214z"/>
		<path class="st92" d="M401.3,169c0.1,1.4,0.2,2.8,0.2,4.3c2.1-0.5,3.9-0.9,5.7-1.3c0,10,0,20,0,30c-4.3,0.4-8.6,1.5-13,1
			c0-0.2-0.1-0.4-0.1-0.7c1-1.9,2.8-1.8,4.6-1.9c3.1-0.3,3.2-3.1,3.7-5.4c0-0.2-1.1-0.6-1.6-1c-2-3.5,1.7-5.2,2.6-7.7
			c-1.4-1.7-3.5,0-4.7-1.6c-0.3-0.7-0.2-1.5,0-2.2c1.3-3.5,0.5-7.1,0.9-10.7C400,170.7,399.2,169,401.3,169z"/>
		<path class="st102" d="M380.3,204.9c-10,2-20,4-30,6c-0.1-0.2-0.1-0.4-0.2-0.7c3-3.4,7.6-3.8,11.2-6c2.5-1.5,5.6-2.2,7.4-4.8
			c0.2-0.4,0.4-0.8,0.8-1.1c1.8-1.1,3.5-2.6,5.8-1.5c0,2.9-2.7,4.6-3.2,6.8c2.2-2.1,2.1-7,7.1-7c2.8,1.9,1.5,3.9,0.2,5.9
			c-1,1,0.1,1.5,0.6,2.1C380.3,204.6,380.3,204.8,380.3,204.9z"/>
		<path class="st103" d="M394.3,202.9c-4.6,1.5-9.3,1.9-14,2l0,0c-0.4-0.6-0.3-1.5,0.2-1.8c3.6-1.7,5.6-5.4,8.9-7.5
			c0.5-0.1,0.9,0,1.3,0.2C394.3,197,392.3,201,394.3,202.9L394.3,202.9z"/>
		<path class="st104" d="M344.5,213c-0.5-0.2-0.1-1.1,1-2c0.2-0.2,0.4-0.4,0.6-0.6c1.6-0.7,3.1-0.7,4.4,0.5l0,0
			C348.6,212.4,346.5,212.8,344.5,213z"/>
		<path class="st105" d="M219.4,138.2c0-0.4-0.1-0.8-0.1-1.2c4.6-4.9,8.2-10.5,12.1-16c-0.1,3.4,3.3,0.1,4,2
			c-0.3,2.6-3.5,3.6-3.4,6.3c-0.3,1.9-1.1,3.4-3,4.2c-2.5,1-3.1,4.5-6.2,4.7C221.8,136.5,220.6,138.7,219.4,138.2z"/>
		<path class="st106" d="M136.4,110c2.7,9.5,8.5,16.9,16.1,23c-1.2,1.5-2,0.3-2.8-0.4c-6.4-5.6-11.8-12-14.4-20.3
			C134.8,111.2,133.3,109.4,136.4,110z"/>
		<path class="st107" d="M379.5,115.9c-0.4,0.4-0.8,0.7-1.2,1.1c-5.1-6.9-6.4-14.8-6.1-23.1c0.3-5.6,1.1-11.1,4.1-16
			c0.8,0,1.4,0.3,1.9,1c0.5,2.4-1.1,4.3-1.8,6.4C372.7,96.1,374.5,106.2,379.5,115.9z"/>
		<path class="st108" d="M378.3,148c0,2.6,0,5.2,0,7.7c1-4.6,1.4-9.2,0.2-13.8c0.6,0.3,1.1,0.5,1.7,0.8l0.1,0.2
			c0.5,0.4,1.3,0.8,1.3,1.4c0.1,6.3,1.1,12.6-0.6,18.9c-0.8,3.5-3.2,5-6.6,5c-0.8-0.6-1.6-1.7-0.8-2.4c3.7-3.4,2.4-7.8,2.5-11.9
			c0.1-1.9-0.2-3.9,0.9-5.7C377.5,147.7,377.8,147.7,378.3,148z"/>
		<path class="st109" d="M377.5,148c-5-5.5-10.1-10.9-15.1-16.5c-3.5-4-8-5.1-13.1-4.6c-12.6,1.1-24.9,0.6-36.6-4.7
			c-5.7-2.6-11.4-5.3-17.5-7c6.7-2.4,11.7,2.3,17.1,4.5c9.2,3.7,18.7,5.2,28.6,4.5c4.1-0.3,8.3-0.1,12.5-0.1
			c5.4,0.1,8.1,4.3,11.1,7.7c3.6,4.1,7,8.4,11.6,11.6c1.6,1.1,2.6,2.6,2.2,4.7C378,148,377.8,148,377.5,148z"/>
		<path class="st110" d="M239.4,123.9c-3.3,0.8-5.9,2.7-8.1,5.1c-0.9-3.5,2.4-4.2,4.1-6c3.6-3.4,7.4-0.2,12.1-1
			C244.3,123.8,241.5,121.9,239.4,123.9z"/>
		<path class="st111" d="M218.4,86.4c-3.2-6.9-7.6-13-13-18.3c0.4-0.3,0.7-0.7,1.1-1s0.8-0.4,1.3-0.3c2.1,1.3,3.6,3,4.6,5.2
			c0.7,0.7,1.5,1.4,2.2,2.1C215.3,78.3,218.5,81.8,218.4,86.4z"/>
		<path class="st112" d="M390.8,64.1c-3.2,3-6.4,6.1-9.6,9.1c-0.4-0.8-0.4-1.6,0.2-2.3c0-0.3,0-0.5,0-0.8
			C383.5,66.5,387.2,65.4,390.8,64.1z"/>
		<path class="st66" d="M381.5,71c-0.1,0.8-0.1,1.5-0.2,2.3c-0.6,0.5-1,1.1-0.8,1.9c0.6,2.1-1.6,2.5-2.2,3.9c-0.8,0-1.5-0.3-1.9-1
			C377.8,75.5,378.5,72.4,381.5,71z"/>
		<path class="st113" d="M212.4,72c-2-1.2-3.6-2.9-4.8-4.9c-1.3-1.2-3.1-1.9-3.5-3.9c1.1-0.1,2.3-0.2,3.4-0.3
			c0.6,1.1,1.2,2.1,1.8,3.2C210.4,68,213.1,69.1,212.4,72z"/>
		<path class="st114" d="M443.7,71.2c-0.5,0.3-0.9,0.6-1.4,0.9c-2.3-2-4.5-4-6.8-6c0.8-0.3,1.6-0.7,2.3-1
			C440,66.7,442.2,68.7,443.7,71.2z"/>
		<path class="st115" d="M324.3,202.9c14.8-7,27.7-16.8,40.5-26.9c3.3-2.6,6.2-5.7,9.7-8.1c2.2-0.9,4.1-2.3,5.9-3.9
			c0.3-0.5,0.7-0.5,1,0c0,1.5-0.1,3.2,1.7,3.6c1.6,0.4,2-1.1,2.4-2.4c0.3-0.9,1.1-1.1,1.9-1.2c0.2,0.1,0.4,0.1,0.6,0.2
			c1.5,0.8,3,1.7,3.4,3.5c0.1,0.3,0.3,0.6,0.6,0.8c1.5,1.3,4.3,2.4,2.7,4.9c-1.4,2.1-3.1-0.6-4.6-1c-0.6-0.2-1.3-0.3-1.9-0.1
			c-0.4,0.5-0.6,1-0.8,1.6c-0.6,1.8-2,2.6-3.8,2.8c-3,0.3-5.2,2-7.3,3.9c-1.4,2.2-4.3,2.3-5.9,4.6c1.8-1.9,3.4-1.7,5,0.1
			c0.8,1.1,0.5,2.4,1.2,3.5c0.3,0.8,0.6,1.7,0,2.5c-3,3.2-6-1.1-9-0.1c-0.3,0.1-1.2-0.2-0.6,0.5c2.8,3.4,1.3,6-1.6,8.3
			c-3.3,1.5-5.1-0.9-7.1-2.7c2,1.8,3.8,4.4,7.2,2.7c1.4-0.6,2.1-2.7,4.1-2.2c0.3,0.4,0.3,0.8-0.1,1.2c0,0.3,0,0.6,0,0.9
			c-2.4,2.3-5.1,4-8.5,4.5c-6.5-0.5-12-2.9-16.4-7.8c-2-1.3-3,0.7-4.2,1.4c-3.5,2.1-7.2,4-10.9,5.7
			C327.5,204.6,325.5,205.5,324.3,202.9z"/>
		<path class="st116" d="M386.3,171c3.2-1.6,5.1,1.3,7.8,2.6c0.2-2.4-0.8-3.3-2.7-3.5c-1.3-0.1-2.5-0.4-1.1-2c2-1.4,3.6-0.6,5,1
			c1.1,2,0,6.1,3,5.9c2.3-0.2,0.6-3.9,1-6c0.4-1.9,2.4-3.9,0-5.8l0,0c2.2-1.4,2.9-0.1,2.9,1.8c0,1.4-0.6,2.8-0.9,4.2
			c-1.8,2.7-0.9,5.5-0.4,8.4c0.3,2,1.8,4.6-1.6,5.6c-0.4,8.3-0.4,8.2-9.1,9.5c-1.9,0.3-3.8,0.9-5.7,1.4c-2.9,0.1-5.7,1.8-8.7,0.5
			c-1.2-2.6,1.2-2.7,2.4-3c3.4-0.9,6.7-2,10.1-2.5c6.4-0.9,6.6-1.1,6.8-7.5c0-0.8-0.2-1.6-0.6-2.4C393,175.1,388.3,174.5,386.3,171z
			"/>
		<path class="st115" d="M387.5,164c0.2-1.7-2.1-3.4,0.1-5c1.8-1.3,3.6-0.9,5.7-0.3c2.5,0.8,2.2,2.5,2.2,4.3c0,1,0,2,0,3
			C392.3,167.2,390,164.8,387.5,164L387.5,164z"/>
		<path class="st66" d="M396.3,156.2c1-1.7,2.8-2.2,4.4-2.8c2.4-0.9,3.9,0.7,4.3,2.7c0.4,1.9-1.1,3.3-3,2.6
			c-2.5-0.8-2.4,1.6-3.8,2.3c-0.6-0.3-1.2-0.7-1.3-1.5c0.3-0.6-0.1,0.1,0.1-0.5C397.5,157.9,400,156.2,396.3,156.2z"/>
		<path class="st117" d="M387.3,164c3-0.8,5.4,1.2,8,2.1c-0.3,1,1.1,1.9,0,2.9c-1.7-0.2-3.2-1.4-5-1
			C390.8,165.6,387,166.3,387.3,164z"/>
		<path class="st118" d="M381.3,164c-0.3,0-0.7,0-1,0c1.5-7,1.7-14,0-21c0.9,0.1,1.9,0.4,1.8,1.3C382,150.8,383.5,157.5,381.3,164z"
			/>
		<path class="st119" d="M396.3,156.2c2.2,0.2,4.2-2.3,6.9-0.4c-1.9,1.6-5.2,1.4-5.9,4.2c0.3,0.3,0.3,0.5,0.2,0.7
			c-0.1,0.1-0.3,0.2-0.4,0.2C395.8,159.5,396.7,157.7,396.3,156.2z"/>
		<path class="st116" d="M397.3,160.9c0.1-0.3,0.1-0.6,0.2-0.9c0.3,0.3,0.6,0.7,0.9,1c0,0.9,0.2,1.6,1,2l0,0c-0.7,0.8-1,2.1-2.4,2.4
			C395.7,163.8,397,162.4,397.3,160.9z"/>
		<path class="st120" d="M402.3,53.2c-0.7,0.3-1.4,0.7-2.2,1c-2,0.2-3.6,2-5.8,1.8c0.1-0.3,0-0.6-0.1-0.9c0.4-0.6,0.7-1.3,1.1-1.9
			c1-0.4,2-0.7,3-1.1C399.3,53.7,402.3,48.3,402.3,53.2z"/>
		<path class="st121" d="M386.3,58.1c0.9-2.7,1.9-5.2,5.6-5.9c-0.7,2.2-2.1,3.5-3.6,4.8C387.7,57.3,387,57.7,386.3,58.1z"/>
		<path class="st122" d="M394.5,56c1.7-1.2,3.4-2.6,5.8-1.8c-2.1,1.6-4.2,3.2-6.2,4.8C391.5,57.6,395,57.1,394.5,56z"/>
		<path class="st8" d="M373.5,70c0-3.3-0.1-6.6-0.1-10C375,63.4,374.8,66.7,373.5,70z"/>
		<path class="st123" d="M387.8,43.8c0.1,2.2,2.2,3.9,1.6,6.2C387.8,48.2,385.3,46.8,387.8,43.8z"/>
		<path class="st124" d="M203,54.9c-2.1,0.2-3.6-0.1-4.3-2c-0.1-0.2,0.5-1.1,0.8-1.1C201.5,51.7,202,53.3,203,54.9z"/>
		<path class="st125" d="M204,63.2c1,1.5,2.9,2.1,3.5,3.9c-0.4,0-0.7,0-1.1,0c-2-1.7-4-3.4-6-5.1C201.6,62.4,202.9,62.8,204,63.2z"
			/>
		<path class="st126" d="M243.6,180.9c0.9,0.7,1.8,1.5,2.6,2.2c2.5,2.6,5.3,4.6,8.6,6c1.8,0.9,3.4,2.3,5,3.5
			c1.8,1.3,5.7,1.6,2.9,5.4c-3,0.6-4.6-2.3-7.2-3c1.5,3.7-1.5,4.8-3.5,6.5c-0.8,0.5-1.6,0.9-2.6,0.6c-1.3-1.1-0.9-2.9-1.9-4.2
			c-1.9-0.4-3.7-1.3-5.3,0.8c-1.3,1.7-3.2,1.4-5.1,0.9c0.6-1.5,1.3-2.8,1.5-4.1c0.2-1.7,2.7-2.6,1.2-4.9c-1.8-2.7-3.5,1.1-5.2-0.1
			c-0.1-0.1-0.3-0.1-0.5-0.2c-2,8.8-8,0.4-11.5,2.7c-0.7-1-0.9-2,0-3c0.8,0.2,1.6,0.4,2.3,0.7c3.8,1.7,4.4-5.1,7.3-3.2
			c4.3,2.8,5.3-1,7.5-2.5c3.5-0.8,1.3-2.8,1-4.5c0.6-0.3,1.2-0.3,1.9-0.2C242.9,180.4,243.3,180.6,243.6,180.9z"/>
		<path class="st127" d="M203.5,171.9c-0.7-2.7-1.3-5.3-2-8l0,0c1.5-1.2,2.2,0,2.9,1c0.5-2.1-1-3.9-0.9-6c-0.4-0.3-0.7-0.7-1.1-0.9
			c-1.1-0.6-3.7,0.7-3.3-1.5c0.5-2.5,2.7-1.4,4.4-0.6c4.2,1.4,4.2,4.9,4,8.3c-0.1,3.3,1.3,0.8,2.1,0.7c1.3-0.7,2.7-1.3,4-2
			c0.9,1.5-0.8,5.3-2.7,5.5c-2.5,0.3-4,1.7-5.3,3.5c0.2,0.5,0.1,1-0.4,1.1C204.3,173.1,203.9,172.5,203.5,171.9L203.5,171.9z"/>
		<path class="st128" d="M243.6,180.9c-0.4,0-0.7,0-1.1,0c-2.2-1.4-3.7-3.7-6-5l0,0c-2.2-1.5-3.9-3.7-6.1-5.3
			c-3-2.9-6.6-5.4-7.9-9.7c-0.3-0.3-0.4-0.7-0.4-1.1c0.3-0.6,0.8-0.9,1.4-1c4.4,7.4,10.9,12.9,17.4,18.3
			C242.1,178.1,244.3,178.6,243.6,180.9z"/>
		<path class="st129" d="M222.4,159.9c0,0.3,0,0.7,0,1c-2.5-1.3-3.2-3.4-3.1-6.1c0.1-5.6,0.1-11.1,0.1-16.7c1,0.4,1.7-3.2,2.9-0.2
			c0,0.3,0.1,0.5,0.1,0.8C222.4,145.8,223.4,152.9,222.4,159.9z"/>
		<path class="st130" d="M209.5,165c-0.9,1.3-1.8,2.5-3.1,4.3c-0.4-5.1,1.8-10.1-2.9-13.3c2.6-0.3,3.6,1.2,4.5,3.5
			C208.5,161.3,207.8,163.5,209.5,165z"/>
		<path class="st131" d="M203.4,159c1.1,2.2,2.6,4.2,1.8,7.1c-1.8,0.4-1.9-2.7-3.8-2.1C202.9,162.6,202.8,160.7,203.4,159z"/>
		<path class="st132" d="M236.4,176c2.8,0.6,4.6,2.6,6,5c-0.6-0.2-1.2-0.3-1.8-0.5C239.4,178.8,237,178.2,236.4,176z"/>
		<path class="st133" d="M230.4,170.7c2.6,1.1,4.7,2.7,6.1,5.3C233.8,175.1,231.8,173.3,230.4,170.7z"/>
		<path class="st134" d="M222.4,190c0,1,0,2,0,3c-3.6-1.8-7.6-2.5-11.5-2.8c-3.4-0.2-4.3-1.2-3.6-4.5c0.4-1.7,0-3.6,0-5.4
			c0.3-2.2,1.4-3.4,3.7-2.9c2,0.5,3.9,1,4.3,3.5c0.2,1.3-0.1,2.7,0.5,3.9c1.4-1.7,3.4-2.4,5.4-3.1c0.1-0.2,0.1-0.4,0.2-0.6
			c3-1.9,4.4,1.3,6.3,2.2c1.5,0.7-0.1,2.2-1.4,2.8c-1.8,0.9-3.8,0.7-5.7,0.8C220.1,188.4,221.9,188.9,222.4,190z"/>
		<path class="st135" d="M215.4,186.9c-1.1-1.1-1.5-2.6-1.2-4c0.4-2,0.3-3.5-1.8-4.5c-2.4-1.2-3.7,0.3-5,1.8
			c-1.4-2.3,0.9-4.1,0.8-6.2c-0.1-1.3,1.1-3.2,2.6-3.3c1.6-0.1,1.5,2.2,3.1,3.1c1.5,0.8-1.4,1.6-1.7,3.4c5.1-3.2,6.1,2.6,9.3,3.8
			l0,0c0.8,1.3,0.7,2.4-1.1,1.9c-1.4-0.4-3.1-1-3.7-2.8C217.4,182.5,217.6,185,215.4,186.9z"/>
		<path class="st136" d="M249.4,201.9c0.7-0.3,1.3-0.7,2-1c0.7,0.2,1.2,0.6,1.5,1.1c1.1,1.4,1.9,0.6,2.7-0.4
			c1.1-1.4,1.2-3.6,3.4-3.9c2.1,4.3,0.6,7.2-4.7,9.2c-2.7,0.3-5.3-0.9-8,0c-1-0.7-2.1-1.3-3.1-2c-0.5-0.7-1.7-0.3-1.9-1.2
			c-0.3-1.1,0.7-1.5,1.4-1.5C245.1,202.1,247.3,201,249.4,201.9z"/>
		<path class="st137" d="M249.4,201.9c-2.1,0.7-4.2,1.1-6.4,1.2c-1.8,0.2,0.7,1,0.3,1.7c-2.1,0.1-3.8-0.6-5.2-2.1
			c2.4-3.2,7.3-1.2,9.3-4.9C250.1,198.3,249.3,200.4,249.4,201.9z"/>
		<path class="st138" d="M220.6,186.7c1.8-1.1,3.6-2.1,5.7-0.8c0.5,0.6,1.5,1.1,1.5,1.7c0,0.8-1,1.3-1.8,1.2
			C224.1,188.5,222.3,188,220.6,186.7z"/>
		<path class="st91" d="M203.5,171.9c0.6,0.1,1.3,1.1,1.9,0c2.1,0.2,1.3,1.2,0.5,2.1c-0.5,0.5-0.7,1.8-1.7,1.3
			C202.9,174.6,203.6,173.1,203.5,171.9z"/>
		<path class="st139" d="M254.4,206.9c2.1-2.6,6.7-4.2,3.9-9c-1.5,1.9-2.6,4.6-5.9,4c-0.3-0.3-0.7-0.7-1-1c0.6-2.1,6.3-2.7,1.7-6.5
			c-0.6-0.5,1.3-1.5,2.4-0.9c2.4,1.3,4.8,2.7,7.1,4.1c0.5-0.1,0.9-0.1,1.4,0c3.6,2.7,8.3,3.6,11.3,7.3c3.2,5.3-2.4,6.9-5.2,10.4
			c2.9,0.6,5,1.1,7.2,1.5c-2.7,2.6-5.4-0.4-8,0c-0.3,0-0.6,0-1,0c-2.5-0.1-5-0.3-7-1.9c-2.5-1.1-5.2-1.7-8-2
			c0.9-1.3,2.5-1.3,3.6-0.8c2.4,1.1,4.2,0.6,5.3-2.2C260.3,208.4,256.5,209.4,254.4,206.9z"/>
		<path class="st28" d="M261.5,215c2.5,0.2,4.9,0.6,7,1.9C265.6,218.1,263,218.3,261.5,215z"/>
		<path class="st140" d="M275.5,205c-4.1-2.3-8.5-4-12-7.2c0.1-1.6,0.9-1.6,2-0.8c7.7,5.1,16.1,8.2,25.2,10
			c11.7,2.4,22.8-0.2,33.7-4.1c1.8,1.3,3.4,0.5,5-0.4c4.6-2.6,9.2-5.1,13.8-7.7c2.1-1.2,1.8-0.1,1.3,1.2c2,0.8,2.7,3,4.8,4
			c2.4,1.1,1.9,4-0.7,6.8c1.8-0.2,3.2-1.8,5.1-0.9c0.2,0.4,0.3,0.9,0.3,1.4c-2.2,2.8-5.5,2.8-8.5,3.7l0,0c-6,1.3-11.9,2.5-18.2,3.9
			c2.2-4-3.9-5.4-2.6-9.4c0.2-0.5-2.4,0.2-3.5,0.6c-8,3.1-16.2,4.6-24.9,4C289,209.5,282.3,206.8,275.5,205z"/>
		<path class="st141" d="M394.5,203c-1.7-0.4-5.8,0.9-2-3.2c1.3-1.5-2.6-1.8-2-3.8c2.4-1.6,4.9,1.1,7.3,0c1.4-0.3,2.4-1.5,3.7-2
			c1.2-0.5,2.3-1.3,3.3,0.6c0.9,1.7,0.1,2.4-1.3,3c-0.6,0.3-1.8,0.4-1.3,1.6c1.5,3.7-1.3,3.1-2.9,2.6
			C397.2,201.1,395.8,201.3,394.5,203z"/>
		<path class="st142" d="M398.3,196.9c-2.9,2-5.2-1.1-7.9-1l0,0c-0.4-2.1,1.6-1.6,2.3-2.4c-2.8-0.4-5.4,3.4-8.5,0.7
			c-0.2-0.5-0.1-0.9,0.2-1.3c1.9-1.5,4.3-2.1,6.3-1.9c6.2,0.8,8.8-1.4,7.7-7.7c0-0.1,0.1-0.4,0.2-0.4c0.3-0.1,0.5-0.1,0.8-0.1
			c0,0.7,0,1.3,0,2C402,189.2,400.8,193.1,398.3,196.9z"/>
		<path class="st116" d="M398.3,196.9c1.1-3.9,1.6-7.9,1.1-11.9c0.9-0.3,1.8-0.8,2.8-0.9c1.3-0.1,2.8-0.4,3.5,1.1
			c0.5,1.3-0.7,2.3-1.4,2.9c-1.9,1.6-3.3,3.2-2.8,5.8C401.3,195.9,399.8,196.3,398.3,196.9z"/>
		<path class="st143" d="M384.3,193.7c2.5,1.7,4.3-0.7,6.4-1.1c2.1-0.4,4.1-1.4,5.5,1.5c-2,1-4.5-0.1-5.9,1.9c-3,3.4-6.4,6.3-10,9
			c-1-0.3-2.8,0.1-2-2c1.9-1.9,3.5-4.1,7.1-4.9c-2.6-1.2-4.5-0.3-6.1-1.1c-2.6,0.3-4.2,2-4.9,4.2c-0.7,2.2-2.3,3.3-4.6,4
			c1.9-2.7,3.7-5.5,5.6-8.2C377.7,193.9,380.8,193.2,384.3,193.7z"/>
		<path class="st32" d="M345.3,211c2.5-1.7,5.8-1.5,8.1-3.8c1.5-2.3,4-2.6,6.3-3.2c0.2,0,0.4,0,0.7,0c3.4-0.5,6-2.7,9-4.1
			c-0.7,3.7-4.4,3.6-6.7,5c-3.9,2.4-8.5,3.3-12.3,6C348.8,210.9,347,210.9,345.3,211z"/>
		<path class="st144" d="M379.5,197c2.3-2.2,5,0.2,7.7-1.1c-1.7,4.6-5.7,5.2-8.7,7C378.2,200.8,381.5,199.4,379.5,197z"/>
		<path class="st145" d="M384.3,193.7c-3.3,0.2-6.1,1.6-8.8,3.3c-2,0.7-4.1,1.3-6.1,2c0-0.3,0-0.7,0-1c0.9-2.4,3.3-2.9,5.3-4
			c0.2,0,0.5,0,0.7-0.1c3-0.3,6-0.7,9-1C384.3,193.2,384.3,193.4,384.3,193.7z"/>
		<path class="st77" d="M228.6,133.2c-1.7,2.6-3.5,5.2-5.2,7.8c-2.4-0.3-1.2-1.8-1-3l0,0C225.3,137.4,225.3,133.1,228.6,133.2z"/>
		<path class="st105" d="M222.4,137.9c0.2,1.1-0.3,2.3,1,3c0.1,6,0.1,12,0.2,17.9c-0.4,0.3-0.7,0.7-1.1,1
			C221.8,157.7,221.8,139.8,222.4,137.9z"/>
		<path class="st146" d="M254.6,190c-3.6-1.3-6.8-3-8.4-6.8c2.6,0.4,3.9,2.8,6.2,3.7C253.3,187.9,255.1,188.1,254.6,190z"/>
		<path class="st147" d="M265.5,197c-0.7,0.3-1.3,0.5-2,0.8c-0.2,0-0.4-0.1-0.7-0.1c0.9-2.9-2.5-3-3.3-4.8c-0.4-0.5-0.4-1,0.2-1.4
			C262.3,192.6,264.5,194,265.5,197z"/>
		<path class="st148" d="M259.6,191.5c-0.1,0.5-0.1,0.9-0.2,1.4c-1.6-1-3.3-1.9-4.9-2.9c-0.7-1-1.4-2.1-2.1-3.1
			C255.4,187.5,257.3,189.8,259.6,191.5z"/>
		<path class="st149" d="M395.3,178c3.4,3.5-0.2,7.3,0.5,11c0.2,1.4-2.5,0.9-3.9,1c-5.8,0.3-11.3,1.6-16.6,4.1l0,0
			c-0.5,0.5-1.2,0.6-1.8,0.6c-2.1-0.7-4.1-1.6-5.8-3c-0.1-0.2-0.2-0.4-0.3-0.6c0.8-1.9,2.2-1.9,3.4-0.7c1.8,1.8,3.7,1.2,5.7,0.7
			c0.6-1.7,2.2-2.4,3.7-3.1c0.3-0.1,0.7-0.6,0.7-0.6c-0.6-0.4-1,0.5-1.6,0.4c-1.7,0.2-2.6-1-3.6-2c-2.4-0.9-2.1-2.3-0.7-3.9
			c1.8-1.8,3.1-4.4,6.3-4.1c0.9,0.7,0.8,2.2,2.2,2.4c3.3,0.4,3.9,3.1,4.5,5.6c1.7,0.4,1.1-1.1,1.5-1.8c0.4-0.7,0.1-1.6,0.1-2.4
			c0-2.8,1.4-3.7,4-3.2C394.3,178.9,394.8,178.7,395.3,178z"/>
		<path class="st150" d="M395.3,178c-0.1,0.4-0.2,0.9-0.3,1.3c-0.3-0.1-0.5-0.3-0.8-0.4c-2.7-1.3-4.5-1.1-4.4,2.6
			c0.1,2.1,0.5,4.6-2.5,5.4c-1.5-2.1-0.1-6.8-5.6-5.7c-1.9,0.4,0-2.1-0.4-3.2c2.5-1.8,5.1-3.3,7.8-2.8c-1.7,0.6-2-1.3-2.9-2.4
			c0-0.6,0-1.3,0-1.9C389.7,173,393.5,174.2,395.3,178z"/>
		<path class="st151" d="M353.5,205.9c-1.5,0.6-3,1.4-4.6,1.9c-0.3,0.1-2.2,0.6-1.1-0.9c0.8-1.1-1.9-1.8,0.2-2.7
			c2.2-0.9,2.5-2.9,0.5-4c-2-1-2.7-2.8-4-4.3c5.2,2.6,9.3,8.2,16.2,6.5c-0.1,0.5-0.2,1-0.2,1.4l0,0
			C358.1,204.9,355.8,205.8,353.5,205.9z"/>
		<path class="st152" d="M373.3,193.9c0.7,0,1.4,0,2,0c-1.2,2.5-4,2.7-6,4c-1.5,0.4-2.3,2-4,1.9l0,0c-0.8-2.8,0.3-4.3,3.5-4.5
			c-4.4-0.1-2-5-5.5-5.7c2.4-1,2.8,1,4,1.2l0,0C369,192.7,371.3,193.2,373.3,193.9z"/>
		<path class="st153" d="M386.3,172.9c1.3,0.9,2.7,1.7,5,3.2c-4.4-1.1-6.8,1.7-10,1.9c-2.9-0.1-3.7,3.1-6,4
			c-0.6-0.7-0.5-1.5-0.1-2.3c2.4-2,4.6-4.4,8.3-4.2C385,175.7,386.3,174.7,386.3,172.9z"/>
		<path class="st154" d="M375.3,179.7c0,0.8,0.1,1.5,0.1,2.3c-0.6,1.2-1.8,2.7,0.9,2.9c0.6,1.1,0,1.1-0.9,1.1
			c-3.2-3.1-4.8,0.9-7.3,1.8C368.8,183.3,373,182.4,375.3,179.7z"/>
		<path class="st155" d="M379.7,187c1.1-0.6,0.2-2.9,2.2-2.6c0.4,0.1,0.9,0.6,1,1c0.5,1.6-0.6,2.4-1.7,3.1c-1.5,0.9-3.1,1.7-4.7,2.5
			c-0.4-0.7-0.8-1.5-1.1-2.2C376.5,187.1,378.3,187.8,379.7,187z"/>
		<path class="st156" d="M365.3,199.9c-1.5,1.6-3.5,1.4-4.9,0.3c-1.7-1.4-3.4-2-5.7-2.1c1.8-2.7,3.4-2.2,4.9-0.4
			C361.3,199.6,363.1,200.2,365.3,199.9C365.5,200,365.3,199.9,365.3,199.9z"/>
		<path class="st157" d="M379.7,187c-1.3,1.1-2.5,2.1-4.4,1.7c-0.7-0.9-0.5-1.8,0.1-2.6c0.3-0.4,0.6-0.8,0.9-1.1
			C377.5,185.5,378,187.2,379.7,187z"/>
		<path class="st141" d="M215.4,186.9c0.7-2.3,2-4.6,0.1-7c2.5-0.9,3.5,3.9,6,1c0.8,0.5,1,2,0.8,1.9
			C218.8,182.3,218,186.3,215.4,186.9z"/>
		<path class="st158" d="M252.4,202c2-1.3,3.9-2.7,5.9-4c0,2.3-1.4,4.1-2.5,5.9c-0.8,1.2-2.3,1.5-3.5,0.7
			C251.1,203.8,252.3,202.8,252.4,202z"/>
		<path class="st159" d="M353.5,205.9c2.1-1.4,4.6-1.7,7-2c-1.8,2.2-4.7,2.1-7,3.2C353.5,206.8,353.5,206.3,353.5,205.9z"/>
		<path class="st160" d="M387.5,186.9c1.7-1.9,1.5-4.4,2-6.7c0.6-2.9,2.3-4.5,4.9-1.3c-2.6,0-4.3,0.2-3.4,3.9
			c0.4,1.7,0.3,5.5-3.7,5.3c-0.1,0-0.3-0.3-0.2-0.4C387,187.4,387.3,187.1,387.5,186.9z"/>
		<path class="st115" d="M373.3,193.9c-2.7,0.4-5.1,0.2-6-3C369.6,191.3,371.7,192.3,373.3,193.9z"/>
	</g>
</g>
</svg>
