<?xml version="1.0" encoding="utf-8"?>
<!-- Generator: Adobe Illustrator 25.0.0, SVG Export Plug-In . SVG Version: 6.00 Build 0)  -->
<svg version="1.1" id="Camada_1" xmlns="http://www.w3.org/2000/svg" xmlns:xlink="http://www.w3.org/1999/xlink" x="0px" y="0px"
	 viewBox="0 0 603.1 194.8" style="enable-background:new 0 0 603.1 194.8;" xml:space="preserve">
<style type="text/css">
	.st0{display:none;fill:#FFFFFF;}
	.st1{display:none;}
	.st2{display:inline;stroke:#FFFFFF;stroke-miterlimit:10;}
	.st3{fill:#434C5A;}
	.st4{fill:#3C403F;}
	.st5{fill:#737476;}
	.st6{fill:#92979E;}
	.st7{fill:#ECEDD9;}
	.st8{fill:#C1C4B8;}
	.st9{fill:#5C615F;}
	.st10{fill:#B9C3C6;}
	.st11{fill:#292A2F;}
	.st12{fill:#0A0B0C;}
	.st13{fill:#212326;}
	.st14{fill:#303237;}
	.st15{fill:#2C2E33;}
	.st16{fill:#6A726E;}
	.st17{fill:#191A1D;}
	.st18{fill:#3B3E43;}
	.st19{fill:#131517;}
	.st20{fill:#747A80;}
	.st21{fill:#939A97;}
	.st22{fill:#565B57;}
	.st23{fill:#27292D;}
	.st24{fill:#68706E;}
	.st25{fill:#404955;}
	.st26{fill:#151619;}
	.st27{fill:#6F736C;}
	.st28{fill:#7B7F77;}
	.st29{fill:#4C5765;}
	.st30{fill:#383F4A;}
	.st31{fill:#414647;}
	.st32{fill:#5C6361;}
	.st33{fill:#2D2F34;}
	.st34{fill:#323431;}
	.st35{fill:#7A7E78;}
	.st36{fill:#4C514F;}
	.st37{fill:#5A5E5A;}
	.st38{fill:#A4A99B;}
	.st39{fill:#232428;}
	.st40{fill:#79807C;}
	.st41{fill:#242529;}
	.st42{fill:#1E2023;}
	.st43{fill:#292A2E;}
	.st44{fill:#3B3D43;}
	.st45{fill:#1E1F23;}
	.st46{fill:#575B57;}
	.st47{fill:#525957;}
	.st48{fill:#B0BCC5;}
	.st49{fill:#B2BDC5;}
	.st50{fill:#656D6A;}
	.st51{fill:#686F6D;}
	.st52{fill:#69716E;}
	.st53{fill:#6A726F;}
	.st54{fill:#2A2E2F;}
	.st55{fill:#8C9187;}
	.st56{fill:#1F2124;}
	.st57{fill:#17181B;}
	.st58{fill:#91958A;}
	.st59{fill:#1A1C1D;}
	.st60{fill:#B4BBB0;}
	.st61{fill:#DADED1;}
	.st62{fill:#666E6B;}
	.st63{fill:#4A504E;}
	.st64{fill:#505654;}
	.st65{fill:#515754;}
	.st66{fill:#6D7571;}
	.st67{fill:#101113;}
	.st68{fill:#686D75;}
	.st69{fill:#6B7371;}
	.st70{fill:#BACCD4;}
	.st71{fill:#242626;}
	.st72{fill:#ABB6B6;}
	.st73{fill:#606764;}
	.st74{fill:#8E9288;}
	.st75{fill:#464B49;}
	.st76{fill:#707875;}
</style>
<rect class="st0" width="603.1" height="194.8"/>
<g id="Camada_2_1_" class="st1">
	<rect x="162.2" y="2.7" class="st2" width="256.9" height="188"/>
</g>
<g id="Camada_1_1_">
	<g>
		<path class="st3" d="M162.3,162.5c3.4-2.5,1.6-7.1,4-10c2.1-1.7,4.2-1.1,6.4-0.3c1,0.6,2.1,1.1,1.6,2.5c-2.5,2.9-3.2,6.5-3.4,10.1
			c-0.3,6.2-1.9,12.4-0.9,18.7c0.3,2.1,0,4.3-1.7,6c-0.6,0.2-1.1,0.3-1.7,0.3c-3.1,0.5-3.9-0.9-3.9-3.9c-0.1-7.2,0.7-14.4-0.4-21.6
			C162.3,163.8,162.3,163.2,162.3,162.5z"/>
		<path class="st4" d="M212.2,2.8c2.6,1.9,6.5,1.5,8.2,4.8c0.7,1.9-0.3,3-1.9,3.2c-4.2,0.4-8.4,1.5-12.4-1c0.1-2.3,0.1-4.6,0.2-7
			C208.2,2.8,210.2,2.8,212.2,2.8z"/>
		<path class="st5" d="M167.2,189.6c0.4-0.1,0.8-0.2,1.2-0.3c1.2-1.1,2.7-1.3,4.2-1.3c22.2,0.1,44.5-0.6,66.7,0.4
			c0.6,0.2,1.2,0.6,1.7,1c0.1,0.4,0.1,0.7,0.2,1.1c-24.6,0-49.3,0-73.9,0c-0.3-0.2-0.4-0.4-0.3-0.6
			C167,189.7,167.1,189.6,167.2,189.6z"/>
		<path class="st6" d="M167.2,189.6c0.1,0.3,0.1,0.6,0.1,0.9c-4.2,0.9-5.4-0.7-5.1-5c0.4-7,0.1-14,0.1-21c2.3,2,0.8,4.6,0.9,6.9
			c0.2,4.8,0.3,9.6,0,14.3C163,188.9,164.3,189.8,167.2,189.6z"/>
		<path class="st7" d="M418.9,22.8c0,1,0,2,0,3c-0.3,0.3-0.7,0.6-1.1,0.7c-3,0.3-2.6,2.4-2.3,4.4c0,0.5-0.1,1-0.3,1.5
			c-0.7,1.2-1.5,2.2-3.1,1.6c-0.9-4.2-1.6-8.3,1.8-11.8C415.7,21.4,417.4,21.5,418.9,22.8z"/>
		<path class="st8" d="M418.9,22.8c-1.6,0-3.3,0-4.9,0c0.1-2.7,1.7-1.7,3-1.4c-1-0.9-3.4-0.5-3.4-2.7c0-1.5,1.2-1.8,2.4-2
			c1-0.4,1.8-1.3,2.9-1C418.9,18.1,418.9,20.4,418.9,22.8z"/>
		<path class="st9" d="M418.9,37.7c-1.9-0.6-5.6,1.7-5-3c1-1.1,2.2-1.1,3.5-0.7c0.7,0.3,1,1.1,1.5,1.7
			C418.9,36.4,418.9,37.1,418.9,37.7z"/>
		<path class="st10" d="M418.9,35.7c-0.3-0.3-0.7-0.6-1-1c-0.8-1.2-2.3-1.8-3-3.1c0-0.3,0-0.6,0-0.9c1.1-1.6,1.7-3.5,3.1-5
			c0.3,0,0.7,0,1,0C418.9,29.1,418.9,32.4,418.9,35.7z"/>
		<path class="st11" d="M240,189.2c-23.9,0-47.7,0-71.6,0.1c-0.1-9.9,0-19.9,1.9-29.7c0.4-2.2,0.2-5.3,3.9-5.1
			c2.9-1.5,4.2,1.1,5.6,2.6c5.6,6.1,5.7,6.1,9.3-1.2c0.4-0.7,0.8-1.4,1.5-1.9c2.7-1.9,3.8-4.9,5.3-7.7c2.8-5.3,6.1-10.3,12.3-12.3
			c0.5-0.2,1.1-0.4,1.2-0.8c2.2-6,9.2-7.9,11.6-13.8c1.4-3.4,4.1-5.6,8.3-4.4c1.3,0.4,2.6,0,3.9-0.2c4,0.2,7.9,1,11.6,2.5
			c1.7,0.7,1.6-0.6,1.9-1.1c1.8-3.4,3.4-2.7,5,0.1c0.2,0.4,0.4,0.8,0.6,1.3c0.6,3.7,3.4,7.2,0.9,11.1c-0.8-0.2-1.6-0.8-2.5-0.8
			c-5.2,0.6-10.4,1.7-15.6-0.2c-0.7-0.3-1.7-0.4-2.1,0.7c-0.4,1.1,0.2,1.9,1.2,2.4c1.6,0.8,3.5,0.8,5.1,1.7c1.1,0.5,2.9,1,1,2.7
			c-0.9,0.4-1.9,0.5-2.8,0.4c-2.1-0.4-4.3-0.6-6.3-1.3c-3.9-1.4-6.4,0-8,3.5c-2.8,6-5.9,11.9-6.4,18.7c-0.4,4.9,1.2,6.8,6.1,6.2
			c2.7-0.3,4.9,0.7,7,1.9c0.8-1.9,2.3-3.7,1.6-5.8c-0.7-2,0.8-2,1.8-2c2.1,0,5.4,0.1,5.6,2.1c0.2,2.5,2.2,0.4,2.4,1.7
			c0,0.4,0.7,0.7,1,1c-0.7,3.7-1.4,7.3-2.1,11c-1,2-2.4,1.3-3.8,0.6c-2.6-1.4-5.5-1.9-8.3-2.9c-0.7,0,0,1.1-0.2,0.5
			c0-0.2,0.1-0.3,0.5-0.2c2.6,0.2,4,1.3,3.4,4.2c-0.4,2,0.1,3.9,0.6,5.9c1,3.5,1.4,7.3,6.6,6.8C239.7,187.3,240.3,188.2,240,189.2z"
			/>
		<path class="st12" d="M414.2,57.9c0,0.2,0,0.3-0.1,0.5c-0.3,3.4,0.6,8.7-1.2,9.8c-2.8,1.7-7.3,0.7-11.1,0.7
			c-22.1,0-44.3-0.1-66.4-0.1c-2,3-0.3,6.6-1.3,9.8c-0.4,1.4,0,3.3-2.1,3.3c-1.9-0.1-2-1.9-2.2-3.4c-0.3-2.1-0.2-4.3-0.2-6.4
			c0.1-2-0.6-3.5-2.3-4.5c-3.1-2.7-7-3.2-10.8-3.4c-7.6-0.4-15.3-0.1-23-0.1c-3.6,0-5.1,1.5-5.1,5.1c0,3.7,0.3,7.3,0.1,11
			c-1.2,2.7-3.5,3.6-6.3,3.3c-4.7-2.9-5.3-8-6.7-12.7c-0.5-1.6,0.3-4.2-1.9-4.6c-2-0.4-3.7,1.2-5.2,2.5c-3.5,3.2-3.7,7.6-4.1,11.9
			c-0.4,3.8,0.3,7.6,0.1,11.4c-0.6,1.2-1.6,1.4-2.8,0.8c-0.8-0.9-1-2.1-1-3.3c-0.6-6.9,1.1-13.9-1.5-20.7c-1-2.6,1-4.7,2.9-6.5
			c4.9-4.7,11.3-5.8,17.6-5.9c14.3-0.2,28.6-0.9,42.8,0.9c1.7,0.2,3.3,0.5,4.8,1.3c3.5,1.8,6.7,1.3,9.7-1.2c2.4-1.3,5-2.1,7.6-2.1
			c22.3-0.2,44.6-0.5,66.9,0.1C412.9,55.8,414.2,56.1,414.2,57.9z"/>
		<path class="st13" d="M242.2,161.5c-2-0.5-4-0.9-6.3-1.4c0.9-0.4,1.6-0.7,2.5-1.1c-1.4-0.4-2.7-0.7-3.8-1.2
			c-2.6-1.1-2.6,1.5-2.6,2.3c-0.2,5.8-0.6,6.2-5.1,4.3c-1.4-0.6-2.7-1.1-4.3-0.5c-4.2,1.4-7.6-1-7.4-5.5c0.5-9.4,5.2-17.5,9.2-25.7
			c0.5-1,1.3-0.6,2.1-0.5c3.5,0.8,7.1,1.6,10.6,2.3c2.3,1.3,1,3.5,1.3,5.6c3.8-1.3,5.7-0.3,4.2,3.9c-1.2,3.3,0.5,4.2,3.3,4.4
			C244.9,152.9,243.9,157.3,242.2,161.5z"/>
		<path class="st14" d="M262.3,92.5c0.9,0.1,1.5-0.2,1.9-1c2.8-0.2,4.5,1.8,6.4,3.3c3,2.3,6.2,3.5,10.1,3.4
			c10.6-0.1,21.2-0.1,31.7,0c4.7,0.1,9-2,13.7-1.9c2.6,1.9,2.5,4.5,1.5,7.1c-1.1,2.6-3.4,2.6-5.8,2.7c-2.6,0.1-5.2-0.7-7.7,0.5
			c-15.6-0.1-31.3,1.7-46.8-1.1c-0.8-0.1-1.5-0.6-2.3-0.9c-0.5-1.2-2.2-0.9-2.7-2.1c-1.7-2.3-2.9-4.8-1.9-7.8
			C260.7,93.8,261.2,92.9,262.3,92.5z"/>
		<path class="st15" d="M314,106.7c1.6-1.8,3.7-1,5.6-1c7.2-0.1,8.7-2.2,6.4-9.1c0.4-8.9,0.5-17.9,0.7-26.8c0-1.2,0.4-2.3,1.4-3.1
			c2.4,0.8,3.1,2.5,3,5c-0.1,3.1-0.5,6.2,0.6,10.1c1.7-3.2,2-5.9,2.2-8.7c0.1-1.5-0.7-3.4,1.5-4.2c-1.5,6.7-0.1,13.5-1.3,20.2
			c0,5.9,1.9,11.7,0.9,17.6C328,107.1,321,107.1,314,106.7z"/>
		<path class="st16" d="M416,16.7c-3.9,2.6-0.8,3.1,1.5,3.7c-0.7,2.1-3.2,0.5-3.4,2.4c-2.2,3.5-0.9,7.4-1.2,11.2
			c0.4,0.1,0.5,0.3,0.4,0.5c-0.1,0.2-0.2,0.3-0.4,0.3c-0.1,3-0.4,6,0.3,9c-0.4,0.4-0.9,0.7-1.4,0.8c-3.5-0.4-7.1,0.1-10.4-1.1
			c-1.9-4.4,1-8.1,1.9-12.1c0.7-2.9,0.8-5.1-2.5-6.2c-1.1-3.7,1.8-3.2,3.8-3.4c6-0.7,6-0.6,3.5-6.2c-0.3-0.6-0.4-1.2-0.1-1.9
			c2.9-1.6,4.5,0.1,6,2.2C414.8,15.9,415.7,15.7,416,16.7z"/>
		<path class="st17" d="M245.9,148.6c-2.1,1.5-3.9-0.3-5.5-0.3c1.5-2.1,1.5-4.9,1.1-6.8c-0.4-2.3-2.8,0.6-4.3-0.1
			c-0.8-2.2,1.3-4.5-0.1-6.8c1,0,2,0,3,0c0.9-0.4,2.8,1.7,2.7-1.4c-0.1-2.4,2.8-2.9,4.4-4.2c1.5-1.1,3.5-1,4.8-2.4
			c0.9,0.5,0.9,1.4,1.1,2.2C250.9,135.4,247.5,141.6,245.9,148.6z"/>
		<path class="st18" d="M240,189.2c-0.2-0.3-0.3-0.6-0.6-0.8c-2-1.1-5,1.7-6.2-1.2c-1.5-3.6-3.5-7.4-2.9-11.3
			c0.5-3.3-0.3-4.8-3.3-6.1c3.3,1.2,7-0.5,9.8,2.4c0.9,0.9,2,1,3.2,0.3c-0.9,5.7,1.1,11.2,0.9,16.9
			C240.7,189.3,240.3,189.3,240,189.2z"/>
		<path class="st19" d="M263.2,102.6c1,0.5,2,1,3.1,1.5c-0.4,0.2-0.8,0.4-1.2,0.6c-7.2-0.9-9.3,0.7-10.9,8.1c-0.4,1.7,0,3.7-1.7,4.8
			c-0.4,0-0.7-0.1-1.1-0.1c-0.9-2.2-0.6-4.9-3.2-6.3c-1.6-0.9-1.1-2.7-0.5-3.9c0.7-1.4,1.3-2.7,1.3-4.2c0-1.3,0-2.6,0.2-3.9
			c0.2-1.7,0.4-3.6,2-4.3c2-0.9,2.1,1.5,2.9,2.5c1.1,1.4,2.3,1.8,3.8,0.8c0.4-0.2,0.9-0.2,1.4-0.2
			C261.2,98.9,261.2,101.6,263.2,102.6z"/>
		<path class="st20" d="M411.9,43.7c0.4,0,0.9-0.1,1.3-0.1c2.9,4.6,3.3,11.9,0.9,14.2c-0.3-1-1.1-1.3-2.1-1.3
			C409.5,52.3,409.7,48,411.9,43.7z"/>
		<path class="st14" d="M335,106.7c-1.8-5.8-0.8-11.7-0.9-17.6c1.6,5.1,0.8,10.6,3.9,15.5C339.7,107.1,336.8,106.9,335,106.7z"/>
		<path class="st21" d="M412.9,34.7c-0.1-0.2-0.1-0.5-0.1-0.7c0.7-0.7,1.4-1.5,2-2.2c2.1,0,3.4,0.7,3,3.1c-1.3,0-2.7,0-4,0
			C413.6,34.7,413.2,34.7,412.9,34.7z"/>
		<path class="st22" d="M189.3,15.7c3.4,0,6.9,0.8,10.2-0.9c1.8-1.4,4-1.4,6.1-1.4c11.2-0.2,22.5,0.3,33.7-0.1
			c5.4-0.2,7.3,3.6,10.1,6.8c0.8,0.4,1.5,0.9,2.1,1.6c0.5,0.9,1,1.9,0.7,2.8c-1.7,6.4-1.3,13.4-5.9,18.9c-1.8,0.9-3.7,0.9-5.6,0.2
			c-1.7-1-1.4-2.5-0.9-3.9c0.9-2.9,1-5.8,1.6-8.7c1.1-5.3-0.9-7.1-6.4-5.9c1.6,0.1,4.1-1,3.6,1.7c-1.1,5.7-1.5,11.8-5,16.8
			c-2.3,0.9-4.6,0.9-6.9,0c-2.4-1.8-0.9-4-0.4-5.9c0.9-3.1,1.7-6.1,1.4-9.3c-0.5-4.6-2-5.6-7.3-4.9c1.8,1.2,3.9-1.4,5,0.9
			c0.8,1.7-0.2,3.3-0.6,4.8c-1.2,4.7-2.4,9.3-3.3,14.1c-3,2-6,2.2-8.8-0.3c-1.3-3.9,0.5-7.5,1.4-11.1c1.6-6-1.5-9.6-7.9-8.8
			c1.8,0.6,3.6-1.5,5.1,0.6c1.1,1.5,0.8,3.1,0.4,4.8c-0.9,4-2.6,7.9-2.5,12.1c0,1.9-1.2,2.2-2.6,2.4c-2,0.2-4,0.4-5.7,1.5
			c-1,0.3-2,0.2-2.8-0.4c-0.6-2.7-0.3-5.2,1.1-7.5c0.9-1.5,0.8-3.1,1-4.7c0.4-3.4-0.7-4.9-4.3-4.7c-2.1,0.2-4.3,0.3-6.3-0.6
			c-1.8-1.5-0.3-2.6,0.5-3.7c0.9-1.3,2.4-2.2,3.1-3.8c-0.9-1.7-3.1-0.6-4.1-1.9C189,16.5,189,16.1,189.3,15.7z"/>
		<path class="st23" d="M178.4,45.7c0-0.6,0-1.3,0-1.9c5.4-1.2,11-0.2,16.4-0.6c2.9,0.4,1.6,1.5,0.3,2.2c-2.2,1.2-4.9,0.1-7.4,1
			c5.2,6.1,14,8.3,16.7,16.8c2.4,7.3,7.9,13.8,5.8,22.3c-0.4,2.2-0.3,4.4,0.2,6.5c-0.9,4.9-3.4,6-6.9,2.8c-2.9-2.6-5-5.8-5.5-9.8
			c-0.3-2.3-0.7-4.6-2.4-6.4c-0.9-1-1.3-2.2-0.9-3.5c5.6-3.8,5.3-9.9-0.6-15.1c-5-4.4-10.3-8.4-14.8-13.3
			C179,46.4,178.7,46.1,178.4,45.7z"/>
		<path class="st24" d="M196.1,43.9c-5.9,0-11.8,0-17.8-0.1c3.1-2.3,6.6-0.6,9.8-1.1c2.7-0.4,5.5,0.4,9.6-0.9
			c-7-0.3-12.6,0.1-18.2-1.9c1.2-4.2,6.7-6.9,4.7-12.2c0.3-0.3,0.7-0.4,1.1-0.4c1.5,0.1,2.1-2.2,3.8-1.5c1.7,0,3.3-0.1,5,0
			c2.5,0.2,6.9-1.1,7.2,0.9c0.4,3.2,2.1,7.3-1.2,10.5c-1.8,1.8-0.5,4.6-2.1,6.4C197.5,44.3,196.9,44.4,196.1,43.9z"/>
		<path class="st25" d="M174.2,130.5c3.7-10.1,10.4-18.6,15.1-28.2c0.9-1.9,2.1-3.7,3.1-5.6c5,0.2,4.4-4,5.5-6.9
			c1.3-0.7,1.9,0.2,2.1,1.2c0.7,3.8,1.1,7.6-1.6,10.8c-2.1,2.4-3.5,5.1-4.7,8c-3.5,4.7-4.6,11-9.6,14.8c-1,0.8-0.5,2.2-1,3.2
			c-1,2.2-1.4,4.9-4.4,5.5C176.9,132.6,174.4,133.6,174.2,130.5z"/>
		<path class="st26" d="M187.3,71.6c-2-2.9-5.4-3.9-8-6.1c-1.1-5.2-0.2-10.5-0.5-15.7c0.8-2.9,2.4-1.6,3.5-0.5
			c2.5,2.4,5.3,4.6,7.7,7c2.1,2.1,2.5,4.2,0.9,6.6C189.2,65.7,189.8,69.4,187.3,71.6z"/>
		<path class="st27" d="M249.2,21.7c-0.5-0.4-1.4-0.6-1.6-1.1c-2-6.5-7.1-6-12.4-5.9c-11.9,0.2-23.9,0.1-35.8,0.1
			c0.3-0.3,0.6-0.7,1-1c5.4-4.3,11.6-2.9,17.7-2.9c8.4,0,16.8,1.2,25-1.2c1.5-0.5,2.9-0.2,4,1c1.2,1.9,3,3,5,3.8
			c1,0.4,2.8,0.8,1.7,2.7C251.5,17.9,250.3,19.7,249.2,21.7z"/>
		<path class="st28" d="M243.2,9.7c-1.7,3-5.1,3.3-7.4,2.8c-6.7-1.4-13.4,1.4-20.2-0.6c-5-1.4-10.1,0.8-15.1,1.9
			c1.4-2.1,2.5-4.5,5.6-4.1c3.5,0,7-0.1,10.5-0.1c1.7,0,3.4,0.3,3.8-2.1c1,1.9,2.8,1.9,4.6,1.9C231,9.5,237.1,9.7,243.2,9.7z"/>
		<path class="st25" d="M172.3,153.5c-1.9-1.2-3.9-1-6-1c1.4-6.2,3.7-12.1,6.2-18c1.6-1.3,3.4-1.4,5.4-1c0.8,0.2,1.4,0.7,1.7,1.4
			c-0.2,2.7-1.3,5.1-2.6,7.3C174.8,145.9,173.3,149.6,172.3,153.5z"/>
		<path class="st29" d="M198.2,89.6c0,0.7,0,1.3,0,2c0,6.4,0,6.4-5.8,5.1c1.7-7.4,0.1-14.3-2.9-21c1.3-1.4,2.7-1.9,4.6-1.3
			c-0.1,5.2,3.8,9.1,4.5,14C198.7,88.8,198.5,89.2,198.2,89.6z"/>
		<path class="st30" d="M194.2,74.7c-1.6,0.3-3.1,0.6-4.7,1c-0.7-1.3-1.5-2.7-2.2-4c-0.5-3.2,2-5.8,1.9-9c5.6,1.3,5.9,6,6.6,10.5
			C195.6,74,194.9,74.3,194.2,74.7z"/>
		<path class="st31" d="M185.2,27.8c-0.3,0-0.6-0.1-0.8-0.1c-0.4-1.9-0.8-3.8-1.3-5.7c0.4-5.3,1.5-6.5,6.2-6.4l0,0
			c0,0.3,0,0.7-0.1,1C188.4,20.6,186.6,24.1,185.2,27.8z"/>
		<path class="st32" d="M189.3,15.7c-3.9,0.4-5.1,3.4-6.2,6.4c-1.2-2.1-1.8-4.4,0.1-6.3C185,13.8,187.2,14.3,189.3,15.7z"/>
		<path class="st33" d="M179.3,48.7c0,5.6,0,11.2,0,16.9c-2-6.5-0.7-13.2-0.9-19.9c0.3,0,0.6,0,0.9,0
			C180,46.7,180.1,47.7,179.3,48.7z"/>
		<path class="st3" d="M178.3,134.6c-1.9,0-3.9,0-5.8,0c0.6-1.4,1.2-2.7,1.8-4.1c1.3,1.7,3.6,0.8,5,2.1
			C179.7,133.6,179.1,134.1,178.3,134.6z"/>
		<path class="st34" d="M324.1,9.8c10.6-0.9,21.2-0.3,31.8-0.4c12.1-0.1,24.2,0,36.3-0.1c1.6,0,3.3,0.5,4.6-1
			c5-5.6,6.8-5.5,12.3,0.2c1.1,1.2,2.2,2.3,0.4,3.8c-6.8,1.4-13.6,0.8-20.5,0.4c-1.4-0.5-2.9-0.6-4.4-0.6c-19.4,0-38.9-0.1-58.3,0.1
			c-0.6,0.1-1.2,0.1-1.8-0.1C323.5,11.5,323.4,10.7,324.1,9.8z"/>
		<path class="st35" d="M250.9,9.6c9.9-1.1,19.9-0.6,29.8,0.1c0.6,0.1,0.9,0.5,1.1,1.1c0.3,2.1-0.4,3.7-2.2,4.8
			c-7.1,1.4-14.2,0.5-21.3,0.3C254.5,15.7,253.9,11.1,250.9,9.6z"/>
		<path class="st36" d="M324.1,9.8c0,0.7,0,1.4,0,2.1c0.2,0.6,0.1,1.1-0.5,1.4c-4,1.6-8.2,0.7-12.3,0.8c-7,0.1-13.9,0.1-20.9,0
			c-3.4-0.1-3.3-0.2-4.1-3.5c-0.2-0.7-0.6,0-0.9,0.1c-1.4,0.3-2.6,0.2-3.7-0.8c-0.3-0.2-0.6-0.2-0.9-0.2c10.5-1.4,21,0.1,31.5-0.2
			C316.2,9.4,320.1,9.7,324.1,9.8z"/>
		<path class="st37" d="M250.9,9.6c2.1,0.6,5.7-0.9,4.9,3.8c-0.2,1.2,2,1.3,3.4,1.3c6.9,0,13.8,0,20.8-0.1c0.5,0.4,0.7,0.9,0.7,1.4
			c-0.1,0.6-0.4,1-1,1.3c-0.8,0.4-1.7,0.6-2.5,0.7c-6.8,0.1-13.7,0.4-20.5-0.1c-0.9-0.2-1.8-0.5-2.3-1.3c-1.6-0.7-3.3-1.3-4.9-2
			c-1.8-0.7-3.3-1.6-2.2-4C248.2,9.7,249.4,9.2,250.9,9.6z"/>
		<path class="st38" d="M389.2,11.7c6.9,0,13.8,0.1,20.7,0.1c1.3-1,2.5-1.1,3.8-0.1c0.1,1.3,0.2,2.7,0.3,4c-1.8-1.3-3.7-2.5-6.1-1.9
			c-1.6,1.5-3.5,1.2-5.4,1c-8-1.3-16.1-0.3-24.1-0.6c-2.3-0.1-4.7,0.4-6.6-1.3c-0.1-1.4,0.9-1.6,2-1.5
			C379,11.5,384.1,10.9,389.2,11.7z"/>
		<path class="st16" d="M413.8,11.7c-1.3,0-2.6,0-3.8,0.1c-0.3-1.1-0.6-2.1-0.9-3.2C410.4,10,413.9,8,413.8,11.7z"/>
		<path class="st39" d="M172.3,153.5c-0.6-2.8-0.4-5.3,1.5-7.7c2.4-3,2.6-7.4,5.5-10.2c1.3,0,2.6,0.7,3.8,0c0.5-0.3,1.2,0.2,1.3-0.9
			c0.8-5.5,1.3-4.7,6.1-7.1c3-1.5,5-1.8,8-0.5c-1.5-1.5-3.5-0.8-4.8-1.8c-0.8-0.6-1.7-1.4-1.5-2.4c0.3-1.1,1.5-1.2,2.5-1.1
			c2.1,0.2,3.4,0.6,5.6-1.5c2.6-2.4,4.7,1.1,5.4,4.1c-0.1,0.6,0.3-0.1,0,0.5c-4.4,10-8.3,20.3-14.5,29.5c-2.1,2.8-1.7,7.8-5.9,8.6
			c-4.3,0.8-4.7-4.4-7.4-6.4c-1.2-0.9-2-2.2-3.7-2.2C173.8,153.7,173.1,153.6,172.3,153.5z"/>
		<path class="st40" d="M417.9,25.8c0.3,2.5,0.2,4.7-3.1,5C413.1,25.8,413.6,25,417.9,25.8z"/>
		<path class="st33" d="M191.2,154.5c-0.9-3,2.5-3.7,3.1-6c2.4-8.5,7.1-16,10.8-23.9c1.1-7-2.4-12.3-6.4-17.6
			c-1.9,1.1-2.6,4.6-5.6,2.6c-0.4-3.3,1.7-5.6,3.6-7.7c3.4-3.9,3.1-7.9,1.5-12.2c0-0.3,0-0.6,0-1c0-3.8-3.8-6.9-2-11
			c2.5,1.4,2.9,4,2.9,6.3c0.1,4.2,2.6,6.9,4.9,9.9c0.9,1.2,2.2,2.1,3.9,1.5c1.9-0.7,1.1-2.4,1.3-3.8c1.7-2,1.7-4,0-6
			c-0.7-2.4-1.1-4.6-0.3-7.3c0.7-2.4,1-5.3-2.6-6.4c-2.2-0.7-1.6-3.1-2-4.7c-0.4-1.7-1.6-3.3-2-4.6c-2.6-9.2-13.1-10-17.6-17.3
			c3.6-1.9,7.8,0.7,11.4-1.5c0.7-0.1,1.4-0.1,2-0.2c1,0,2.1,0,3.1,0c3.9-1.3,7.9-1.4,11.9-1c2.7,1.6,5.4,0.7,8.1,0.2
			c1.6-1.5,3.2-1.4,4.9-0.2c2.7,0,5.4,0,8.1,0c2-1.5,4-1.4,5.9,0.1c2,0,4,0,6,0c2.2-1.4,4.7-1.6,7.2-1.5
			c36.7,0.1,73.3-0.2,109.9,0.3c1.8-0.1,3.6-0.2,5.4-0.2c2,0.2,3.9-0.1,5.9,0.1c1.6,0,3.2,0,4.8,0c2.2,0.1,4.5,0.5,6.7,0.2
			c1.2-0.1,2.5-0.2,3.7-0.1c2.2,0.1,4.5,0.5,6.7,0.1c1.6-0.1,3.2-0.1,4.4,1.1c3.6,0.4,7.4-0.7,11,1c0.1,4.3,0.1,8.6,0.2,12.8
			c-21.5,0-43,0.1-64.5,0.1c-3.7,0-7.2,0.6-10.6,2c-2.7,1.5-4.8-0.4-7-1.2c-4.8-1.9-9.5-3.1-14.9-2.5c-12.2,1.2-24.5-0.1-36.7,0
			c-8.1,0-13.4,5-19.4,9c-1.6,1-1.2,2.4-0.3,3.9c1.1,1.8,2.2,3.8,0.4,5.9c-0.5,0.5-1,0-1.5-0.2c0.2,0.7,0.9,0.7,1.4,0.9
			c4,1.1,2,4.3,2.4,6.7c-0.2,0.7-0.8,1-1.4,1.1c-4.1,1-4.3,1.7-1.3,4.8c1.2,1.2,2.5,2.3,1.8,4.2c-0.8,1-2,1.5-2.5,2.8
			c-2,1.6-0.1,3.2,0,4.7c-3,3-4.6,2.2-6.7-3.2c-2,2.5-1,5.4-1.3,8.1c-2.1,1.7-3.9,0.7-5.8-0.6c-3.8-2.7-9.6-2.3-12.2,0.8
			c-3.3,3.8-3,7.4,1,11.8c-1,1.3-2.5,1.3-3.6,0.8c-4.6-2-6.6,1.1-7.8,4.4c-1.2,3-2.9,5.1-5.8,6.4c-0.6,0.3-1.4,0.5-1.7,1
			c-5.3,9.2-17.5,12.6-20.3,23.9C193.8,152.9,193.6,155.5,191.2,154.5z"/>
		<path class="st41" d="M233.2,115.6c-5.2,0.1-4.8-4.4-4.5-7.1c0.3-2.8,1.5-6.8,4.7-7.6c3.8-0.9,8.2-3.4,11.6,1.4
			c1.1,1.6,3.3,1.4,5.1,1.3c-0.6,1.4,0.3,3.3-1.7,4.2c-0.3,0.1-0.1,2.6,0.2,2.7c4.3,1.2,2.3,4.6,2.6,7.1c-1.2-1.8-1.4-1.7-3,0.6
			c-0.7,1-1.8,0.5-2.6,0.3C241.4,117.6,237.3,116.6,233.2,115.6z"/>
		<path class="st13" d="M252.2,126.6c-1.5,2.8-4.5,3.5-6.9,4.9c-2.4,1.4-2,2.5,0.2,3.9c-2.1,0.2-3.9,0.8-5.3-0.8
			c-1.8-1.7-4-1.8-6.3-2.1c-3.1-0.4-2.9-2.9-2.6-5c0.5-2.9,2.7-2,4.3-1.1C241.1,129.3,246.6,126.5,252.2,126.6z"/>
		<path class="st42" d="M258.2,73.7c1.8-2.4,1.1-4.2-1.2-5.8s-1.8-3.3,0.2-4.7c7.9-5.7,15.8-11.1,26.6-9.6c7.8,1.1,15.8,0,23.8,0.7
			c4,0.3,8.7,0.1,13.1-1.4c1.9-0.6,4.7,1.3,7.1,2.2c3.1,1.2,6.1,2.4,9.2,3.6c-2.1,3.2-5.6,3.7-8.2,2.2c-5.5-3.3-11.6-2.6-17.3-3
			c-10.3-0.7-20.6-0.4-30.9-0.1c-6.8,0.2-13.6,0.9-18.6,6.5c-1,1.1-2.5,2.4-1.7,3.9c3.5,7,1.2,14.3,1.9,21.5c-3.5-2.2-2.7-5-1-8
			c0.3-2.9,0.3-5.7-3-7.1c-0.3-0.3-0.3-0.5-0.2-0.6C258,73.8,258.1,73.7,258.2,73.7z"/>
		<path class="st43" d="M288.1,80.7c1.6,2.9,3.3,5.7,4.9,8.6c0.5,0.9,1.6,1.9,0.3,3c-1.4,1.2-2.4,0.3-3.4-0.7
			c-2.8-2.8-5.9-5.3-7.8-8.9C284.3,82.9,286.1,81.6,288.1,80.7z"/>
		<path class="st44" d="M261.1,81.7c0.5,2.6-0.9,5.5,1,8c0,0.9,0.1,1.9,0.1,2.8c-0.2,0.8-0.3,1.7-1.1,2.2c-2.3-0.3-1.8-1.6-1-3
			c0.4-2-0.8-3.1-2.3-3.9c-2.3-1.3-3.1-2.9-1.9-5.7C257.6,78.3,259.4,82.1,261.1,81.7z"/>
		<path class="st45" d="M260.1,91.7c0.1,1.1-0.1,2.3,1,3c-0.8,3,1.2,5.3,2,8c-3,0.3-2.5-2.9-4.2-4c-1.1-1.5-1.7-3.1-0.9-4.9
			c-0.1-0.9-1.4-1.8-0.2-2.5C258.3,90.8,259.3,91.5,260.1,91.7z"/>
		<path class="st46" d="M403,13.7c1.6,0,3.3,0,4.9,0.1c0.9,0.9,2.1,1.7,2.7,2.8c2.5,4.9,1.6,6.1-3.8,6.3c-2,0.1-4.8-1.6-5.8,1.9
			c-0.5,0.3-1.1,0.4-1.7,0.2c-2.8-1.6-5.9-1.9-9.1-1.7c-7.9,0.4-15.8-0.8-23.6,0.7c-14.1,1.1-28.2-0.2-42.3,0.3
			c-3-0.3-6.1,0.6-8.9-0.9c-1.2-1.5,0.1-1.8,1-2.4c0.8-0.3,1.6-0.3,2.4-0.6c-5.3,0-10.6-0.4-15.9,0.1c-3.9,1-7.9,0.7-11.9,0.7
			c-3.3,0.3-6.8-1.2-10,0.9c-0.6,0-1-0.2-1.4-0.6c-0.9-1.6-0.8-3.1,0.4-4.5c0-0.4,0-0.8,0.1-1.2c5-1.5,10.1-0.9,15.2-1.3
			c7.2-0.5,14.6-0.7,21.8,0.4c2,0.3,4,0,5.8-0.9c7.7-1,15.4-1.3,23.1-1.5C365.1,12,384,13.7,403,13.7z"/>
		<path class="st47" d="M400,24.8c0.3,0,0.7,0,1,0c3.7-0.4,5.7,0.3,4,4.8c-1.6,4.3-2.7,8.8-4.1,13.2c-1.7,0-3.3,0-5,0
			c-1.8-2.2-0.4-4.4,0.2-6.5C397,32.3,397.8,28.3,400,24.8z"/>
		<path class="st48" d="M235.2,177.1c1.2,3.2,2.3,6.3,0.8,9.6C234.7,183.6,233.1,180.5,235.2,177.1z"/>
		<path class="st49" d="M258.1,93.6c1.1,1.5,1.3,3.1,0.9,4.9c-0.3,0-0.6,0-0.8,0.2c-1.4-1.1-3.4-1.7-2.9-4.1
			C255.7,93,257.1,93.7,258.1,93.6z"/>
		<path class="st50" d="M364,42.7c-16.4,0-32.8,0.1-49.1,0c-22.9,0-45.8-0.1-68.7-0.1c2.4-6.8,4.4-13.6,4.9-20.8
			c1.8-0.4,3.7,0.6,5.5,0.1c0.7,0.1,1.4,0.3,1.8,1c0.1,0.5-0.1,1-0.3,1.4c-1,1.1-2.4,1.7-3,2.3c4.8-2.6,14.2-1.2,18.1,3.8
			c2.1,2.7,4.1,3.4,7.2,2.4c3.6-1.2,6.9-0.9,10.6,0.7c5.4,2.3,11.4,2.8,17.2,1.7c7.5-1.3,14.9-0.2,22.3,0c2.9,0.1,5,2.5,7.8,3.2
			c5.7,1.4,11.6,1,17.4,1.1c3.9,0.1,4.7-3.7,6.9-5.8c1-1,1.4-4.7,4.2-1.6C367,35.8,365.9,39.4,364,42.7z"/>
		<path class="st51" d="M213.1,42.6c-3.8,1.7-7.9,1-11.9,1c1.3-3.8,4.8-0.6,6.6-2.4c-1-4.1,1.8-7.8,2.3-11.9
			c0.2-1.5,0.9-2.9,0.9-4.3c0-1.1-0.9-2.7-2.2-1.2c-3.6,4.3-3.4-0.4-5.2-2.1c4,0.5,7.5-1.5,10.5,2.2c2.2,2.7,2.7,5.2,1.4,8.2
			C214,35.5,213.5,39,213.1,42.6z"/>
		<path class="st52" d="M226.1,42.6c-1.6,0.1-3.2,0.1-4.9,0.2c-1-5,1.8-9.4,2.5-14.1c0.2-1.4,0.8-2.8,1.6-5.4c-3.9,3.4-6,2.5-7.3-1
			c11-2.4,12.3,3,10.8,11.8C228.3,37,227,39.8,226.1,42.6z"/>
		<path class="st53" d="M240.1,42.7c-2,0-4-0.1-5.9-0.1c0.3-5.8,2.7-11.1,3.6-17.1c-2.2,0.8-4.4,1.7-5.3-2c1.9,0,3.7-0.1,5.6-0.5
			c3.1-0.7,6.5,3.1,5.4,5.8C241.6,33.4,242.3,38.4,240.1,42.7z"/>
		<path class="st54" d="M185.2,27.8c-0.7-4.4,1.2-7.9,4-11.1c2.1,0.1,4.2,0.2,6.8,0.3c-1.3,4-5.2,5.5-6.8,8.7
			c-0.8,0.9-1.6,1.9-2.4,2.8C185.6,29.8,185.4,28.8,185.2,27.8z"/>
		<path class="st55" d="M256.2,22.7c-2,1.6-3.7,0.9-5.1-0.8c-0.6,0-1.3-0.1-1.9-0.1c-0.8-4.1,1.2-5.5,5-5c0.7,0.1,1.3,0.1,2,0.2
			C257.7,18.8,257.7,20.7,256.2,22.7z"/>
		<path class="st56" d="M179.3,48.7c0-1,0-2,0-3c5.6,4.8,11.3,9.5,16.8,14.3c3.6,3.2,4.8,8.9,3.3,13c-0.9,2.3-2,2.8-4,1.6
			c-0.3-0.2-0.4-0.4-0.3-0.6c0.1-0.2,0.2-0.3,0.3-0.3c-1-4.2-2-8.4-6-11c1-1.2,3.1-2.3,1.3-4C186.8,55.3,184.3,50.6,179.3,48.7z"/>
		<path class="st25" d="M195.2,73.7c0,0.3,0,0.6,0.1,1c0,1.1-0.2,2.3,0.9,3c-0.3,3.8,3.2,7,2,11c-2.8-2.9-2.1-7.5-5.4-10.2
			c-1.4-1.2,1.1-2.4,1.4-3.7C194.5,74.3,194.9,74,195.2,73.7z"/>
		<path class="st57" d="M209.2,85.7c1.9,0.1,2.9,1.1,2.9,3s-1.1,2.9-2.9,3C207.9,89.6,207.9,87.6,209.2,85.7z"/>
		<path class="st11" d="M193.2,109.6c3.1,0,3.9-2.3,4.8-4.6c6.1,3.7,9.9,14,7.3,19.6c-1.4-0.8-0.8-3-2.4-3.6c-1-0.4-2.9-1.5-1.6,1.3
			c0.1,0.3-1.1,1.9-2.7,1.5c-1.7-0.5-3.5-0.8-5.7-1.2c1.4,3.6,7.3,0.9,7.1,6.5c-4.3-4.5-7.8,0-11.9,0.5c-2,0.2-3.2,1.2-3.6,3.1
			c-0.5,2.3,2.4,1.2,3,3c-2.9-0.5-5.4,4.2-8.3-0.1c-0.3-0.3-0.6-0.7-1-1c0.3-0.7,0.6-1.3,0.9-2c0.5-0.4,1.2-0.8,1.4-1.3
			c1.9-8.2,8.7-13.8,11.7-21.4C192.3,109.6,192.8,109.6,193.2,109.6z"/>
		<path class="st58" d="M389.2,11.7c-5.7,0.8-11.5-0.9-17.2,1.1c-1,0.9-2.2,0.5-3.3,0.6c-12.6,0.2-25.2-0.4-37.8,0.4
			c-2,0.1-4.8,1.3-5.9-1.9c0.8-1.1,2-1.1,3.1-1.1c19.6,0.1,39.1,0.2,58.7,0.3C387.6,11,388.4,11.4,389.2,11.7z"/>
		<path class="st16" d="M325.1,11.8c1,1.3,2.4,1,3.7,1c14.4,0,28.9,0,43.3-0.1c8.8,0,17.5,0.1,26.3,0.1c1.6,0,3.3-0.5,4.7,0.9
			c-17.2,0-34.5-0.1-51.7,0.1c-9.4,0.1-18.7,0.6-28.1,0.9c-0.8-1,0.2-1.4,0.7-1.9c0-0.3,0.1-0.6,0.1-0.9
			C324.4,11.9,324.7,11.8,325.1,11.8z"/>
		<path class="st59" d="M324,12.8c-0.2,0.6-0.5,1.2-0.7,1.9c-1,3.9-4.1,2.2-6.2,1.9c-8.9-1.1-17.8-1.1-26.7,0
			c-3.5,0.5-6.9-0.1-10.3-0.9c-0.1-0.3-0.1-0.7-0.2-1c0.6-1.6,1.1-3.2,1.7-4.8c2.8,0,5.6,0,8.6,0c-1.1,1.6-3.6,0-4.4,2.9
			C298.7,12.8,311.3,12.8,324,12.8z"/>
		<path class="st60" d="M256.2,22.7c0-1.9,0-3.9,0-5.8c7.3,0,14.6,0.1,22,0.1c1.2,1.6,1.2,3.3,0.2,5c-6.7,1.9-13.4,2.3-20.3,0.9
			C257.5,22.8,256.8,22.7,256.2,22.7z"/>
		<path class="st61" d="M278.2,21.7c0-1.6,0-3.2,0-4.7c0.6,0,1.3,0,1.9-0.1c0.1,1.6,0.1,3.3,0.2,4.9c-0.2,0.1-0.3,0.2-0.5,0.4
			C279.1,22.3,278.6,22.2,278.2,21.7z"/>
		<path class="st62" d="M400,24.8c0,6.3-3.4,11.8-4,18c-2,1-4-0.4-5.9-0.1c0.6-5.6,3.3-10.8,3.9-16.8c-3.3,0.5-3.3,2.9-4,4.8
			c-1.5,4-1.4,8.5-3.9,12.1c-2,1.1-4-0.4-5.9,0c-0.8-4.3,1.6-8,2.4-12c0.3-1.5,1.8-3.6-0.5-4.3c-1.7-0.5-1.9,1.9-2.4,3.2
			c-1.7,4.3-2,9.1-4.5,13.1c-2,0-4,0-6,0c-1.1-4,1-7.5,2.3-10.9c1.5-3.9,1.5-6.5-3.3-7.2c-0.6-0.5-0.9-1.1-1-1.9
			c2-1.8,4.4-0.9,6.6-1c6.6-0.1,13.2-0.1,19.8,0C395.9,21.9,398.8,21.5,400,24.8z"/>
		<path class="st63" d="M368.1,23.9c2,1.3,4,0.7,6.8,0.1c-2.1,6.5-4,12.6-5.9,18.7c-1.7,0-3.4,0-5,0c-0.7-3.9,2-7.2,2-11
			c0.4-2,0.4-4.1,1-6.1C367.1,24.9,367.5,24.3,368.1,23.9z"/>
		<path class="st64" d="M375,42.7c0.4-5.8,2.7-11.1,4.3-16.6c0.5-1.6,1.4-2.4,3.3-1.7c2.1,0.7,2.4,1.6,1.7,3.6
			c-1.6,4.8-2.9,9.7-4.4,14.6C378.3,42.7,376.7,42.7,375,42.7z"/>
		<path class="st65" d="M386,42.7c0.5-5.6,2.4-10.8,3.8-16.2c0.9-3.3,3.6-2.4,5.1-2.2c2.1,0.3,0.6,2.4,0.2,3.6
			c-1.7,4.9-1.7,10.4-5,14.8C388.7,42.7,387.3,42.7,386,42.7z"/>
		<path class="st66" d="M224.1,52.9c-2.3-0.7-5.9,1.7-6.1-3.4c-0.1-4.9,3.2-3.6,5.7-3.6c2.6,0,6.4-1.4,6.4,3.6
			C230.1,54.6,226.3,52.1,224.1,52.9z"/>
		<path class="st67" d="M223.5,53.7c1,0,2-0.1,3,0c1.1,0.1,2.6-0.1,2.4,1.6c-0.1,1.3-1.3,1.3-2.3,1.3c-2.1,0-4.3,0-6.4,0
			c-1.1,0-2.6,0.2-2.7-1.4c-0.1-1.6,1.4-1.5,2.5-1.5C221.2,53.7,222.3,53.7,223.5,53.7z"/>
		<path class="st68" d="M258.2,73.7c-0.1,0.3-0.2,0.5-0.2,0.8c-1.2-0.6-3-0.7-2.8-2.7c0.1-0.7,0.7-1.1,1.4-1
			C258.6,70.9,258.1,72.5,258.2,73.7z"/>
		<path class="st69" d="M368.1,23.9c0,0.6-0.1,1.3-0.1,1.9c-6.3,2-12.6,4.1-19.3,1.4c-3.7-1.5-7.6-0.7-11.4-0.9
			c-4.1-0.2-8.3,0.5-12.4-0.6c-0.6-0.2-1-0.6-1.3-1.2c-0.1-0.6,0-1.2,0.3-1.7c14.3,0,28.7,0,43,0C367.4,23.1,367.7,23.5,368.1,23.9z
			"/>
		<path class="st70" d="M290.1,19.8c4.3-0.5,8.7,0.4,13-1c5.6,1.3,11.3-0.2,17,0.9c-0.3,2.3-2.3,1.2-3,2c-0.7,0.3-1.5,0.6-2.2,0.9
			c-2.7,2.7-6.2,1.6-9.3,1.5c-5.3-0.3-10.7-0.5-16-1.5C288.2,21.3,289,20.5,290.1,19.8z"/>
		<path class="st71" d="M289.1,21.9c8.6,0.2,17.2,0.4,25.8,0.6c3.1,0.1,6.1,0.2,9.2,0.2c0,0.3,0,0.6,0,0.9c-1.1,1.2-2.6,1.4-4.1,1.4
			c-12.9,0-25.8,0.3-38.7-0.2c-1.6-0.6-3.4-1.2-1.1-3.2l0.1,0.1c0.4-0.1,0.7-0.2,1.1-0.2C283.9,20.8,286.5,19.9,289.1,21.9z"/>
		<path class="st72" d="M317.1,21.6c0.7-0.4,1.3-0.9,2.2-1.5c-5.4-1.5-11.1,0.9-16.2-1.4c5.3,0,10.6-0.1,15.9,0
			c1.4,0,3.9-0.8,3.7,1.8c-0.1,2-2.3,1.2-3.7,1.3C318.4,21.9,317.7,21.7,317.1,21.6z"/>
		<path class="st72" d="M289.1,21.9c-2.6-0.2-5.2,1-7.8-0.3c-0.1-1.5-0.7-3.1,2-2.4c2.2,0.5,4.5,0.5,6.8,0.6
			C289.7,20.5,289.4,21.2,289.1,21.9z"/>
		<path class="st73" d="M324,24.8c6.5,0,13,0,19.4,0c2.5,0,4.9-0.1,7.1,1.6c2.3,1.7,5.2,1,7.6,0.3c3.3-0.9,6.5-0.9,9.9-0.8
			c-0.2,2.2-0.6,4.2-2.1,5.9c-2.5,0.6-3.2,3.2-4,4.9c-1.9,3.9-4.8,4.5-8.5,4.1c-4.9-0.5-9.9,0.4-14.7-1c-0.9-0.3-2.1-0.2-2.9-0.7
			c-8.2-4.7-17-3.5-25.7-2.8c-7.6,0.6-15.1,1-22.1-2.8c-3.2-1.7-6.5,0.2-9.5,1.1c-2.2,0.7-3.8,1.2-4.8-1.4
			c-2.5-6.7-9.3-5.2-14.3-7.2c-2-0.8-4.1,1.7-5.7,3.4c-0.6,0.6-1.3,1.3-2.1,0.7c-1-0.8-0.6-1.9,0.2-2.6c1.8-1.7,3.7-3.3,6.2-3.8
			c6.9,0,13.8-1.2,20.7,0.3c0.5,0.2,1.1,0.3,1.6,0.5c13.7,0,27.4,1.1,41.2,0.1C322.5,24.3,323.3,24.1,324,24.8z"/>
		<path class="st74" d="M280.1,24.8c-7.3-0.5-14.7,1-22-1c0-0.3,0-0.6-0.1-0.9c6.7-0.4,13.4-0.7,20.1-1.1c0.6,0,1.3,0.1,1.9,0.1
			c0.3,0.7-0.9,1.3,0,2c0.3,0.2,0.3,0.4,0.3,0.7C280.3,24.6,280.2,24.8,280.1,24.8z"/>
		<path class="st75" d="M280.1,24.8c0-0.3,0-0.7,0-1c14.6,0,29.2-0.1,43.8-0.1c0,0.4,0.1,0.7,0.1,1.1c-0.7,0-1.3,0-2,0
			c-6,1.8-12.1,0.6-18.2,0.4C295.9,25,288,25.9,280.1,24.8L280.1,24.8z"/>
		<path class="st76" d="M280.1,24.7c14,0,27.9,0.1,41.9,0.1c-3,2.6-6.8,2.3-10.1,1.8c-9.1-1.5-18.1-0.5-27.2-0.9
			C283.2,25.7,281.4,26.3,280.1,24.7z"/>
	</g>
</g>
</svg>
