<?xml version="1.0" encoding="utf-8"?>
<!-- Generator: Adobe Illustrator 25.0.0, SVG Export Plug-In . SVG Version: 6.00 Build 0)  -->
<svg version="1.1" id="Camada_1" xmlns="http://www.w3.org/2000/svg" xmlns:xlink="http://www.w3.org/1999/xlink" x="0px" y="0px"
	 viewBox="0 0 615 300" style="enable-background:new 0 0 615 300;" xml:space="preserve">
<style type="text/css">
	.st0{display:none;}
	.st1{display:inline;stroke:#FFFFFF;stroke-miterlimit:10;}
	.st2{fill:#CCD1CA;}
	.st3{fill:#FBFCFC;}
	.st4{fill:#616C6F;}
	.st5{fill:#999D9E;}
	.st6{fill:#B0B6B6;}
	.st7{fill:#3A3E3C;}
	.st8{fill:#303231;}
	.st9{fill:#1E1F1F;}
	.st10{fill:#555D5D;}
	.st11{fill:#525959;}
	.st12{fill:#272A2B;}
	.st13{fill:#212222;}
	.st14{fill:#1B1C1C;}
	.st15{fill:#5C6363;}
	.st16{fill:#707570;}
	.st17{fill:#282A29;}
	.st18{fill:#4D5353;}
	.st19{fill:#787E78;}
	.st20{fill:#E6EAE5;}
	.st21{fill:#343736;}
	.st22{fill:#4E5453;}
	.st23{fill:#585C5B;}
	.st24{fill:#232423;}
	.st25{fill:#586060;}
	.st26{fill:#545B5B;}
	.st27{fill:#ABAE9C;}
	.st28{fill:#485255;}
	.st29{fill:#3D4547;}
	.st30{fill:#111211;}
	.st31{fill:#9DA3A0;}
	.st32{fill:#E1E3E1;}
	.st33{fill:#3D403E;}
	.st34{fill:#010101;}
	.st35{fill:#131413;}
	.st36{fill:#A3BBC4;}
	.st37{fill:#475255;}
	.st38{fill:#81969E;}
	.st39{fill:#2F3231;}
	.st40{fill:#777C76;}
	.st41{fill:#515757;}
	.st42{fill:#494F4E;}
	.st43{fill:#616867;}
	.st44{fill:#7C817A;}
	.st45{fill:#434847;}
	.st46{fill:#2F3130;}
	.st47{fill:#525858;}
	.st48{fill:#373B39;}
	.st49{fill:#727A79;}
	.st50{fill:#A2AAA6;}
	.st51{fill:#7B8381;}
	.st52{fill:#6B7271;}
	.st53{fill:#919894;}
	.st54{fill:#78807E;}
	.st55{fill:#C0C9C7;}
	.st56{fill:#96A2A1;}
	.st57{fill:#A0AAA8;}
	.st58{fill:#414442;}
	.st59{fill:#4E514E;}
	.st60{fill:#171817;}
	.st61{fill:#474A47;}
	.st62{fill:#494C4A;}
	.st63{fill:#5A5E5A;}
	.st64{fill:#535754;}
	.st65{fill:#373A39;}
	.st66{fill:#2E302F;}
	.st67{fill:#F7F7F8;}
	.st68{fill:#6E7572;}
	.st69{fill:#737B79;}
	.st70{fill:#050606;}
	.st71{fill:#030303;}
	.st72{fill:#787D77;}
	.st73{fill:#7E837D;}
	.st74{fill:#828680;}
	.st75{fill:#AEB4AE;}
	.st76{fill:#9FA39D;}
	.st77{fill:#3B3E3C;}
	.st78{fill:#535A5A;}
	.st79{fill:#373F41;}
	.st80{fill:#555956;}
	.st81{fill:#556267;}
	.st82{fill:#647479;}
	.st83{fill:#5D625E;}
	.st84{fill:#B2B7B0;}
	.st85{fill:#999D97;}
	.st86{fill:#1D1E1E;}
	.st87{fill:#9FA59E;}
	.st88{fill:#3B4345;}
	.st89{fill:#BEC3BC;}
	.st90{fill:#606563;}
	.st91{fill:#3D4140;}
	.st92{fill:#505656;}
	.st93{fill:#474E4F;}
	.st94{fill:#2E3130;}
	.st95{fill:#202221;}
	.st96{fill:#424545;}
	.st97{fill:#D6DAD4;}
	.st98{fill:#F5F5F5;}
	.st99{fill:#77807E;}
	.st100{fill:#515451;}
	.st101{fill:#777F7D;}
	.st102{fill:#141514;}
	.st103{fill:#D4D7D7;}
	.st104{fill:#2C302F;}
	.st105{fill:#989C96;}
	.st106{fill:#505350;}
	.st107{fill:#D0D5CD;}
	.st108{fill:#E0E3DC;}
	.st109{fill:#E1E4DE;}
	.st110{fill:#6A7A81;}
	.st111{fill:#CACFC7;}
	.st112{fill:#232626;}
	.st113{fill:#191A19;}
	.st114{fill:#889391;}
	.st115{fill:#F4F5F4;}
	.st116{fill:#070807;}
	.st117{fill:#3E4241;}
	.st118{fill:#899391;}
	.st119{fill:#949E9C;}
	.st120{fill:#CED3CC;}
	.st121{fill:#747C7A;}
	.st122{fill:#707670;}
	.st123{fill:#2C2F2E;}
	.st124{fill:#ECEDEE;}
	.st125{fill:#4C5251;}
	.st126{fill:#8B9491;}
	.st127{fill:#A9B7B9;}
	.st128{fill:#868E8A;}
	.st129{fill:#757E7D;}
	.st130{fill:#5D615D;}
	.st131{fill:#585F5F;}
	.st132{fill:#A2A7A1;}
	.st133{fill:#212322;}
	.st134{fill:#1F2120;}
	.st135{fill:#CACFC8;}
	.st136{fill:#F7F7F7;}
	.st137{fill:#F3F4F3;}
	.st138{fill:#878C86;}
	.st139{fill:#F7F9F6;}
	.st140{fill:#DEE3DC;}
	.st141{fill:#606460;}
	.st142{fill:#EDF0EB;}
	.st143{fill:#717572;}
	.st144{fill:#6E726D;}
	.st145{fill:#6B706B;}
	.st146{fill:#777D7A;}
	.st147{fill:#181919;}
	.st148{fill:#737874;}
	.st149{fill:#FCFDFC;}
</style>
<g id="Camada_2_1_" class="st0">
	<rect x="-302" y="-81" class="st1" width="1006" height="435"/>
</g>
<g id="Camada_1_1_">
	<g>
		<path class="st2" d="M564.8,33.1c1.4,3.5-0.1,7.9,3.1,10.9c0,3.3,0,6.7,0,10c-0.3,0-0.7,0-1,0c-1.7-1.7-1.2-4-1.4-6
			c0.1-2.4-1.7-2.3-3.3-2.7c-3.7-1-7.6-0.1-11.1-1.6c-0.3-0.4-0.4-0.8-0.4-1.3c0.6-1.4,2.2-1.2,3.1-2.2c0.7-2.2-0.6-4-1-5.9
			c-0.2-0.7-0.2-1.5,0-2.2C557.9,27.5,561.9,27.8,564.8,33.1z"/>
		<path class="st3" d="M92.2,285.9c-13.5,0-27.1-0.2-40.6,0.1c-3.9,0.1-5-1.1-4.4-4.7c0.2-1.5,0-3,0-4.4c0.7-0.4,1.2-0.1,1.8,0.3
			c1.9,1.5,4.2,2.1,6.6,2.5c0.5,0,0.9,0.1,1.4,0.2c1.3,0.2,2.5,0.6,3.7,0.9c8.5,1.4,17.1,2.6,25.8,2.7c1.8,0,3.7-0.1,5.3,0.9
			C92.4,284.8,92.5,285.3,92.2,285.9z"/>
		<path class="st4" d="M48.2,277.9c-0.3-0.3-0.7-0.7-1-1c0-0.7,0-1.3,0-2c4-13.1,6.8-26.5,8.9-40.1c1.7-11.1,3.2-22.3,7-33
			c1,0.6,1.4,1.4,1.6,2.5c0,1.8-0.4,3.6-0.8,5.4c-2.9,11.4-4,23.1-6.2,34.6c-1.9,9.9-4.5,19.7-6.6,29.5
			C50.7,275.4,50.8,277.7,48.2,277.9z"/>
		<path class="st5" d="M92.2,285.9c-0.1-0.3-0.1-0.5-0.1-0.8c0.5-0.7,1.2-1.2,2-1.3c8.1-0.8,16.1-0.8,24.2,0c0.8,0.1,1.5,0.6,2,1.3
			c0,0.3,0,0.5-0.1,0.8C110.8,285.9,101.5,285.9,92.2,285.9z"/>
		<path class="st6" d="M532.9,14.1c0,0.3,0,0.6,0.1,0.9c-3.4,2.4-6.8,2.5-10.2-0.1c-0.1-0.3,0-0.5,0.1-0.8
			C526.3,14.1,529.6,14.1,532.9,14.1z"/>
		<path class="st7" d="M354.3,84.2c-0.2,2.9-2.4,1.4-3.6,1.4c-13,0.1-26.1,0.1-39.1,0.1c-1.9,0-4.1-0.4-4.6,2.3
			c-5,1.4-10.1,0.8-15.1,1.1c-1.4,0.1-3-0.3-3.2-2.4c1-2.3,3.1-2,5-2.1c3.9-0.3,7.8,0.4,11.7-0.5c1.1-0.6,1-1.5,0.3-2.4
			c0.2-2.8-2.2-3.5-3.8-4.9c0.1-1.5,1.3-2.1,2.3-1.9c3.6,0.9,3.5-1.4,3.6-3.7c1.1-1.2,2.5-0.8,3.7-0.8c13.4,0,26.8,0,40.3,0
			c0.7,0,0.1-1.1,0.2-0.4c0,0.2-0.1,0.3-0.3,0.3c-13.4,0-26.8-0.1-40.3,0.1c-3.5,0-4.8-1.5-5-4.6c0.3-2.6-0.2-5.3,1.2-7.6
			c3.4,0.5,1.5,3,1.8,4.6c0.5-1.2-0.2-2.7,0.5-4c8.9-0.7,17.9,0,26.8,0.2c2.7,0.1,5.3,0,7.9-0.8s5.1-0.7,7.8-0.3
			c8.7,1.4,17.5,0.4,26.3,0.6c5.7,0.1,5.7,0,7.2,5.2c1.4-3.6,4-3.6,7.1-1.9c0.7,0.8,0.9,1.7,0.8,2.7c-0.4,2.5,1.3,2.1,2.8,1.9
			c1.5-0.1,3.1-0.1,4.6-0.1c3.5-1.1,0.4-4.8,2.5-6.4c2.3-0.8,2.9,1,3.3,2.5c0.6,1.9,1.6,1.8,2.9,1c1.6-0.5,2.4,0.7,3.4,1.6
			c2.1-1.2,1.6-3.8,2.9-5.4c0.9-1.2,1.9-1,2.9-0.2c0.8,1,1.3,2.2,2.7,2.5c1.7,0.6,2.2,2.3,3,3.7c-2.3-5.2-2-6.1,2.8-7.5
			c1.1-0.3,1.8-1.4,3-1.5c1,0.3,1.4,1.2,1.7,2.1c0.1,1-0.2,1.8-0.7,2.6c-0.8,1.7-2.1,3.3,0.4,4.8c6.5,0.3,13.1,0.1,19.6,0.6
			c3,0.3,4.9-3.5,8-1.8c0.6-1.3,0-3,1.1-4.2c0.7-0.5,1.4-0.5,2.1-0.3c1.1,0.7,1.6,1.8,1.9,3.1c1.4,3.2,6.3,4.3,8.3,1.6
			c1.2-1.6,2.8-2.1,4.1-3.3c0.8-0.9,1-2.2,1.9-3c10.3-0.7,20.6-0.6,30.8-0.2c5,0.2,10,0.2,14.8-1.3c4.2-1.4,8.2,1,12.3,0.8
			c7.5-0.5,14.9,0.4,22.4,0.4c1.6,0,3.4,0,4.6,1.4c-2.6,7.9-6.8,15.1-10,22.7c-1,2.2-2.7,3-5.2,3c-18.1-0.1-36.3,0.2-54.4-0.2
			c-7.3-0.2-14.7-0.1-22,0.1c-3.2,0.1-5.9-1.6-9.2-1.3c-27,2.3-54,1-81.1,1.1c-1.4,0-3.7,1.5-4.4-1.3c0.4-0.3,0.8-0.6,1.3-0.6
			c22.2,0,44.4-0.4,55.5-0.2c-22.5-0.3-56.1,0.4-89.6,0C348.1,83.7,351.2,82.8,354.3,84.2z"/>
		<path class="st8" d="M149.1,280.9c-1.6,1.7-3.7,2-5.9,1.9c-0.3-0.4-0.5-0.8-0.6-1.3c0.7-7.9,0.2-15.8-0.4-23.8
			c-3.1,4.5-2.3,9.7-2.6,14.7c-0.2,3.3,0.2,6.6-1.2,9.8c-4,1.2-8.3,0.4-12.4,1.7c-1.4,0.4-3-0.1-3.7-1.7c-0.6-1.3,0.7-1.6,1.3-2.2
			c-3.1-0.7-6.4,1.2-9.4-0.6c-2-3.4-1.3-5.8,2.1-7.1c-1.9,0.3-2.9,1.7-3.3,3.9c-0.4,2.4-2.3,2.9-4.1,2.2c-2.1-0.9-0.9-2.4-0.3-3.8
			c0.3-0.8,1-1.6,0.8-2.3c-2-5.7,1.7-5,6-4.8c-3.1-0.9-4.2-2.5-4.8-5c-0.7-3,2.3-3.8,2.6-6.4c-1.6,0-3.3,1-5,0.2
			c-1.5-0.7-3.2-1-4.5-3.4c6.2,0,5.8-8.5,11.2-8.4c-1.1,0.3-3.5,0.3-4.9,2.6c-0.6,1-2.1,1-3.2,0.3c-1.4-0.9-0.5-2.1,0-3
			c1.4-2.6,3.5-4.4,7.5-4.6c-5.5-3.5-0.7-6-0.4-8.8c-1.8,1.5-3.4,0.1-5-1.1c-1-0.8-2.5-1.5-2-3.1c0.5-1.5,2.1-0.5,3-0.9
			c2.2-0.9,4.7-1.2,5.9-4s3.9-0.8,5.8-1.2c2.3-0.5,2,1.5,2.1,2.6c-0.3-0.8,1.3-2.2,0.3-3c-1.7-1.3-6.7-1-2-4.8
			c2.7-2.2-0.8-5.2,1.2-7.4c0.4-0.5,1-0.5,1.6-0.6c-2,0-4.5,4.6-5.8-0.7c-0.3-1-0.1-2.4,0.9-2.6c3.2-0.7,4.2-3.1,5.2-5.8
			c1-2.8,3.1-2,4.1-0.9c-2.3-1.1-4.8-3-5.9-6.7c-1.3-4.3-1-5,3.7-4.7c1,0,1.6-0.4,2.2-1c4.1,0.4,4.2,0.7,1.7,5.4c0-1.4,3-2.8,1-5.1
			c-0.9-1-2-1.1-3,0c-3.1,0.1-1.8-1.5-1-2.7c1.5-2,3.5-3.5,4.9-5.6c0.7-1.1,1.6-2.3,0.4-3.6c-1-1-2.1-0.4-3.2,0.2
			c-1,0.6-2.1,1.3-3.1,0.2c-1.3-1.3-1.4-2.9-1-4.6c1-3.9,5.8-7.2,10.9-7.7c0.7,0.1,0-0.8,0.2-0.2c0,0.1-0.2,0.2-0.5,0.1
			c-1.2-0.6-3.4,0.8-3.8-1.3c-0.4-2,1.3-2.8,2.8-3.6c3.5-1.9,4-4,1.3-7.3c-1.7-2.1-0.5-3.4,0.7-4.7c1.7-1.9,1.7-3.3-0.8-4.6
			c-1.4-0.7-2.7-2-3-3.8c-0.1-0.8,0-1.2-1.2-1.4c-4.6-0.9-4.9-1.9-2.8-7.1c4.9-3.4,7.1-7.7,4.2-13.5c-0.4-0.7-0.4-1.6,0-2.4
			c2.7-2.2,5.9-1.2,7.6,0.6c4.3,4.5,8.1,3,12.1,0c6.6,0.6,13.1,2.5,19.7,2.9c2.8,4.4,0.4,9.2-5.1,9.7c-5.5,0.4-10.3,3.7-15.9,3.1
			c-1.7-0.2-2.9,1.5-4,2.7c-1.5,1.6-3.1,2.4-5.3,0.9c0.1,4,3.2,4.7,5.5,6.2c2.3,1.9,5.6,2.6,7.1,5.6c1.4,2.7,0.2,4.9-1.2,7.3
			c-3,5-7.2,9.7-5.7,16.2c0.1,1-0.2,1.8-0.6,2.7c-0.6,3.3-1.2,6,1,9.5c4.8,7.6-1.5,18.9-10.8,20.6c-0.5,0.1-1,0-1.5,0
			c3.6,2.4,3.8,6.7,0.6,10.3c2.5,6.8,3.5,13.9,2.6,20.9c-0.9,7.1-7.2,11.8-10.3,18.4c0,0,0.1,0.3,0.5,0.3l12.7,0.1c1-0.2,2,0.1,3,0
			c3.9-0.5,4.2,1.3,3.1,4.3c-0.3,0.9-0.8,1.9-0.1,2.9c0,3,0,6,0,9.1C147.7,270.9,149.8,275.9,149.1,280.9z"/>
		<path class="st9" d="M138.1,198.9c3.9-0.9,6.9-2.5,9-6.3c3.6-6.5,3.5-9.3-2.1-16.2c-0.2-0.2-0.3-0.4-0.5-0.6
			c4.1-1,0.1-5.1,2.6-6.8c3,4.1,3.4,9.1,5,13.6c0.4,1,0.2,2.2,1.1,3c-1.4-6.2-4.8-11.9-4.2-18.6c0-0.1-0.6-0.2-0.9-0.1
			c-1.7-3.6-0.5-6.9,1.2-10c1.6-3,3.2-6.2,5.5-8.7c1.6-1.7-0.8-3,0.4-4.3c0.7-0.6,1.4-0.6,2.2-0.3c2.5,2,5.4,2.3,8.5,2
			c2.1,0,4.3,0,6.4-0.1c5.1-0.2,7.1-2.1,7.4-7.2c0.2-4.1,0.2-8.2,0.1-12.3c-0.1-2.6,0-5.2,0.1-7.8c0.1-1.2,0.4-2.4,1.3-3.3
			c5.2,1.6,2.8,5.9,3.4,9.2c0.2,3.3,0,6.6,0,10c0,3.1,0,6.2,0,9.4c-0.1,6.2-0.4,6.6-6.4,7.5c-8.3,1.4-10.1,3.6-11.1,12.1
			c-1,8.2-1.2,16.1,3.9,23.3c2.5,3.5,1.1,6.4-1.2,9.4c-3.9,5.2-8.9,9.7-9.9,16.9c-0.6,3.9,0.1,7.4,0.5,11c0.3,1.1,0.9,2.7-0.2,3.2
			c-1.5,0.6-1.8-1.1-2-2.1c-0.8-2.9-1.4-5.8-1.6-8.8c-0.1-1.6,1.6-3.9,0.1-4.5c-2.2-1-4.6-2.8-7.5-1.8c-3.3,1.1-5.7-0.4-7.9-2.7
			c-1-1-2.3-2-1.6-3.3C140.9,201.3,137.8,200.7,138.1,198.9z"/>
		<path class="st10" d="M302.9,122.3c-1.1,2.2-3.1,1.5-4.8,1.5c-6.8,0.1-13.5,0.1-20.3,0c-1.7,0-3.3-0.2-4.5,1.4
			c-3.9,0.4-7.7,0-11.6,0.3c-10.5-4.1-21.7-3.5-32.7-4.2c-4.4-0.3-8.9,0.7-13.3-0.8c-2.1-3.5-0.8-7.9-2.8-11.5
			c-0.6-1.2,0.8-2.7,2.4-3.2c14.6-0.7,29.2-1.1,43.7,0.2c2.7,6.4-0.3,12-6.9,12.3c-4.3,0.2-8.6,0-12.9,0.1c4.3-0.1,8.5,0.1,12.8,0
			c5.9-0.2,7.4-1.6,7.9-7.5c0.2-1.6,0-3.3,1.4-4.6c5-1.8,10.2-0.6,15.3-0.9c2.5-0.1,5-0.2,7.5-0.3c4.6,0.7,9.2,0.4,13.9,0.4
			c3.3,0,4.7,1.4,4.5,4.8C302.5,114.4,302.1,118.4,302.9,122.3z"/>
		<path class="st11" d="M478,63.2c-0.9,1.5-3.2,0.2-4.1,3.2c-0.9,2.8-5.7,1.6-8.7,1.4c-2.9-0.2-1.9-2.4-1-4.1c0.3-3,0-6.2,1.7-8.9
			c0.4-0.2,0.9-0.3,1.4-0.2c2.9,1.6,1.4,4.6,2.2,6.6c0,0.9,0.7-0.1,0.1,0.2c-0.2,0.1-0.3,0-0.3-0.4c0.2-2.2-0.2-4.6,1.1-6.7
			c4.1-3.3,9.2-2.4,13.7-2.5c7.8,0,15.7-0.7,23.5,0.9c1.3,0.3,2.3,0.1,3.2-0.7c2.5-2.4,6.7,0.2,8.9-3.2c1.3-0.1,3.5,1.7,3.3-1.7
			c-0.1-1.1,0.2-2.8,2.2-2.3c0.8,0.9,0.9,2,1,3.2c0.2,4,1.7,1.6,3,0.6c1-0.1,1.8,0.5,2.6,1.1c0-3-0.3-5.9,0.4-8.8
			c0.6-1.7,1-3.6,3.3-3.7c2.2-0.1,1.6,1.7,1.8,3c0,0.2,0.8,0.4,1.2,0.7c0.9,1.7,0.9,3.4,0.3,5.1c-0.4,1-1.5,1.1-2.3,1.5
			c-1.1,0.6-1.8,2-0.8,2.7c1.5,1.1,1.3-1.2,2.2-1.6c1.5-0.1,3.4,0.6,3-2.2c-0.2-1.3,0-2.7,1-3.8c1.9-0.5,3.8-0.9,5.6,0.3
			c0.8,1.4,0.8,2.8,0.2,4.3c-0.6,1.4-3.5-0.1-3.1,2.2c0.4,2.2,2.1,1.4,3.5,0.9c3.1-1.8,0.3-6,3.1-7.9c4,0.3,8,0.7,12,0.9
			c2.2,0.1,3.9,0.6,3.8,3.3c-1.8,1.7-4,1.2-6.1,0.9c-1.6-0.2-3.2-0.6-4.9-0.3c-1,0.1-2.1,0.5-2.2,1.6c-0.1,1.3,1,1.5,2,1.6
			c2.4,0.3,4.9,0.6,7.3,1c1.7,0.3,3.9,0.5,2.9,3.3c-0.2,1.8-0.8,3.5-2,4.9c-12-0.7-24.2,0.9-36.2-1.8c-3-0.7-5.3,2-8.5,2
			c-13.4-0.3-26.9-0.1-40.4-0.1C476.6,60.5,478.4,62.2,478,63.2z"/>
		<path class="st12" d="M138.1,198.9c1,1.4,3.6,1.8,2.4,4.7c-0.7,1.7,4.5,5.5,6.7,5.1c2.9-0.5,5.9-2.6,8.3,1.3
			c0.7,1.1,1.8-1.7,3.8-1c-2.9,5.6-1.2,11.2,0.4,17.8c0.3-1.7,0.4-2.5,0.5-3.2c0.8,4.5,3.9,9-0.1,13.4c-5.5-0.5-11-0.9-15.9-3.7
			c-0.8-6.3-3.4-12.2-3.7-18.6c-0.1-1.4-0.5-2.6-1.9-3.1c-0.8-0.9-2.8-0.7-2.5-2.7c1.5-0.2,3.6-1.9,2.4-2.4c-2.8-1.3,2.9-5.1-1.9-5
			c-0.7,0-2.1-0.4-1.8-1.8C135.4,197.6,137,199.1,138.1,198.9z"/>
		<path class="st13" d="M144.1,232.9c5.3,1.7,11,1.4,16,4.1c-4.4,6.2-10.5,11.5-11.2,19.9c-1.9-1.9-0.2-3.7,0.1-5.5
			c-4.6-1.1-8.6-0.4-12.2,2.6c-1.1,1-2.7,1.1-3.3-0.5c-1.2-3.3-3-3.4-5.5-0.6c-0.6-4.1,1.4-6.5,3.3-8.5c8.1-8.6,8.9-18.7,6.8-29.5
			c-0.3-1.5-0.2-3.5-2.6-3.6c-0.9,0-1.3-0.3-0.9-1.1c0.3-0.5,1-0.8,1.5-1.2c1,0.7,2,1.3,3,2c2.3,4.7,2.2,9.9,2.3,14.9
			C141.5,228.6,141.9,231,144.1,232.9z"/>
		<path class="st14" d="M126.1,279.9c-0.2,2.3-2.7-0.1-3.2,2.2c5.1,1.9,10.3-1.8,15.3-0.3c1.7-1.2,3.3-1.4,4.9,0c0,0.3,0,0.6,0,0.9
			c-7.5,1.5-15.2,1.8-22.9,2.3c-9.4,0-18.8,0-28.2,0c-9.8,0-19.4-1.3-29.1-2.2c-1.3-0.1-2.5-0.8-3.7-1.2c-1.7-5.6-1.1-6.5,4.7-5.7
			c4.4,0.6,8.9,0.9,13.3,1.5c1.4,0.1,2.8,0.1,4.1,0.5c3.1,1,6.2,0.3,9.3,0.5c10.9-0.4,21.7,0.9,32.6,0.8
			C124.2,279.3,125.3,279.2,126.1,279.9z"/>
		<path class="st15" d="M178.1,150.8c4.4-0.8,5.7-3.5,5.2-7.8c-0.4-2.9-0.1-6-0.1-9c0.7-1.3,0.7-3.6,3.2-2.1
			c1.3,3.3,0.2,6.6-0.2,9.8c-2.2,17.7,8.6,27.1,24.1,27.8c14.1,0.6,26.9-3.3,38.5-11.4c1.7-1.2,3.2-3,5.7-2.6c1.9,3-1.9,3-2.4,4.7
			c-7.9,5.9-16.4,10.4-26.1,12.2c-8.6,1.6-17.2,1.9-25.7-0.4c-9.4-2.6-15.8-8.4-18-18.1C181.7,151,180.3,150.7,178.1,150.8z"/>
		<path class="st16" d="M306.1,91c-1.1,4.6-2.1,9.1-3.2,13.7c-0.3,0.5-0.7,0.6-1.1,0.2c-1.2-2.5-3.3-2.9-6-3.1
			c-3.9-0.2-7.7,2.2-11.6,0.1c-0.7-3-1-6.1,0.4-9c1.1-1.2,2.6-1.4,4.1-1.4C294.5,91.9,300.3,90.9,306.1,91z"/>
		<path class="st17" d="M354.3,84.2c-4.1,0-8.1,0-12.2,0c0-0.5,0-0.9,0-1.4c35.6,0,71.1,0,106.7,0c0,0.5,0,0.9,0,1.4
			c-23.7,0-47.4,0-71.1,0C369.9,84.2,362.1,84.2,354.3,84.2z"/>
		<path class="st18" d="M306.1,91c-4.8,2.6-10,1.8-15.1,2c-2,0.1-3.9,0-5.9,0c-1.5-1.5-1.3-3.2-0.6-5c1.2-1.6,2.7-2.4,4.6-1
			c3.8,2.6,7.8-0.1,11.8,0.3c2,0.2,4.1,0.4,6.2,0.7C307.2,89.2,306.8,90.2,306.1,91z"/>
		<path class="st19" d="M566,55.1c-2.8-4.1-7.4-1.8-11.1-2.8c-1.9-0.6-3.2-0.1-3.1-2.7c0.1-2.4,0.7-3.8,3.4-3.5
			c3.9,0.4,7.8,0.7,11.7,1c0,2.3,0,4.6-0.1,7C566.6,54.4,566.3,54.8,566,55.1z"/>
		<path class="st20" d="M285.1,88c0,1.7,0,3.3,0,5c-0.3,3.3-0.5,6.7,0.1,10c3.7,0.9,7.4,0.4,11.2,0.6c1.9,0.1,3.9-0.1,5.6,1.2
			c0.3,0.1,0.6,0.1,0.9,0c0,5.9,0,11.7,0,17.6c-1.2-2.3-0.6-4.9-0.6-7.3c0.1-8,0.1-7.9-8.1-8.1c-3.4-0.1-6.9,1-10.1-1
			c-0.6-0.6-1.1-1.3-1.2-2.1c-0.1-8.4-0.9-16.8,0.5-25.2c2.1-0.8,2.2-0.7,3,2.7c0.1,0.9,0.1,1.8,0,2.7
			C286.4,85.4,285.8,86.7,285.1,88z"/>
		<path class="st21" d="M262,125.1c3.8-1.8,7.5-1.8,11.3,0.2c-1.2,2.6-2.3,5.1-3.5,7.7c-1.5,1.2-3,1.9-4.9,1.2
			C263.3,131.3,261.7,128.5,262,125.1z"/>
		<path class="st22" d="M265.1,134c1.4-0.9,3-1.1,4.7-1c-2.7,8-4.9,16.4-11.6,22.3c-2.1-3.2,2.2-4.9,1.9-7.6
			C262.3,143.3,262.3,138.1,265.1,134z"/>
		<path class="st13" d="M149.1,280.9c-1.5-5-1.5-10,0-14.9C148.9,270.9,151.1,275.9,149.1,280.9z"/>
		<path class="st23" d="M261.1,148.1c0.7,3.1-3.3,4.2-2.9,7.2c-1.6,2.2-3.6,3.8-6,4.9c1-1.5,1.9-3,2.9-4.4
			C255.7,152.2,257.2,149.2,261.1,148.1z"/>
		<path class="st24" d="M90.3,279.8c-3-0.3-6.3,1-9.1-0.9c1.7-0.9,3.4-0.4,4.1-0.4c-2-0.3-5-0.6-8,0.3c-5.9-0.7-11.8-1.3-18.3-2.1
			c1,1.8,1.5,3.4,0.2,4.9c-1-0.3-2-0.6-3-0.9c-2-2.5-1.7-5.7-0.3-7.8c2.1-3.2,2.1-6.7,2.6-10.1c-0.3-2.6-1.5-5.4,1.1-7.6
			c0.6-1.2,2.8-1.5,1.5-3.9c-1.4-2.6,2.5-4.4,1.7-7.2c1.7-8.3,2.7-16.8,3.8-25.1c1.3-9.1,5.3-17.6,5-26.9c0-0.8,0.3-1.7,0.7-2.4
			c6.4-12,9.3-25.4,14.9-37.6c1.6-1.4,0.1-3.2,0.7-4.8c2.8-6,6.6-11.4,8.1-18c1.6-3.9,3-7.9,4.8-11.7c0.1-12.5,0.1-25.1,0.3-37.6
			c0-1.7-0.9-3.6,0.9-5.1c1,0.8,1.3,1.9,1.3,3.1c-0.2,11,1,22.1-0.8,33.1c-0.1,0.3,0.1,0.8,0,1c-0.4,0.4-0.4,0.6,0,0.2
			c0.3-0.3,0-0.9,0.1-1.3c0.6-2.3,1.5-1.2,2.1-0.2c2,3.6,1.3,7.4,0.2,11.1c-2.5,8.7-2.6,8.7,6.3,10.3c2.1,0.4,4.3,0.5,6.4,0.8
			c2,0.3,3.6,1.7,5.6,1.7c-1.2-0.4-3.3-0.3-1.5-2.5c1-1.3,2-2.6,2.8-4.1c0.5-0.8,1.3-1.3,2.1-1.6c0.9-0.3,1.8,0,2.6,0.4
			c0.4,0.2,0.7,0.5,0.9,0.9c-0.5,6-0.5,6,6.5,5c-3,3.3-0.9,5.8,1.5,6.4c5.4,1.4,2.5,3.2,0.9,5.3c-1.3,1.6-4.7,3.4,0.4,4.3
			c0.5,0.1,1.2,0.4,0.8,0.8c-2.9,3,1,4.2,1.8,6.3c-3.1,0.9-6.8,0.3-8.7,3.9c2.2,0.4,4.1,0.8,6.5,1.3c-2.9,2.1-6.4,0.8-9,3.6
			c-2.6,2.8-4.9,4.7-3.1,8.6c1.7,0.3,1.7-1.8,2.8-1.8c1.5-0.1,3.2-0.9,4.6,0.7c1.4,1.6,0.2,2.6-0.4,3.9c-1.3,3-4,4.7-6.1,7
			c-1,1.1-1,1.6,0.5,1.7l0.1,0.1c-0.6,4.9-3.5,1.4-5.4,1.3c0.3,5.7,2.3,8.6,8.5,12.3c-0.5,0.1-1.1,0.5-1.4,0.3
			c-4.3-2.1-6.2-0.7-5.9,4c0.1,1.4-0.8,2.1-2.3,1.8c-5.1-1.2-2.5,1.9-2.3,4.1c1.9-0.7,2.8-3,4.9-2.1c0.6,0.3,2-1.5,2,0.6
			c0,1.3-0.2,2.7-2.3,1.3c-1.6-1.1-2.3,0.7-1.5,1.7c2.7,3.9,0.8,5.9-2.7,7.2c1.2,2.2,2.7,0.2,3.7,0.8c0.9,0.6,3.5,1,1.1,3
			c-0.9,0.7-2,1.3,0.1,2.4c1,0.5-0.4,1.6-1.3,2c-0.6,0.3-1.8-0.1-1.6-0.5c1.7-4.7-1.8-2.8-3.7-3.1c-0.6-0.1-1.1-0.6-1.7-1
			c-1.1,4.5-4.6,6.5-9.6,5.8c4.3,3.7,4.3,3.7,9,2.1c-2.2,2.1-1.4,5.4-4.1,6.8c-0.4,0.2-0.5,1.6,0.5,1.4c2.4-0.4,2.4,2.2,2.3,2.6
			c-0.3,1.5-1.6,1.4-3.2,1.3c-3.4-0.2-3.3,3.7-5.7,5c3.9,2.7,2.8-3.7,6.2-2.8c2.2,0.6,5.2-1.1,6.2,2.9c-3.8-1.2-6.9-1.6-7.9,3.3
			c-0.6,3-3.7,2.9-5.8,3.6c2.8,3.7,7.3,0.5,11,2.2c-6.3,4.4-5.8,8.2,1.3,12.1c-2.5,2-5.5-0.1-8.2,1.6c4.8,3-0.1,5.2-0.8,8.3
			c5.3,0.6,4.3-9.4,10.8-6c-3.7,1-5.9,3.2-5.2,7.3c-6.2,1.2-12.4,0.5-18.6,0.4C93.7,279.1,91.9,278.7,90.3,279.8z"/>
		<path class="st25" d="M214.1,107.1c-0.1,1.1-0.6,2.9-0.2,3.2c4.6,2.8,1.5,6.6,1.4,9.9c-0.2,0.2-0.4,0.3-0.6,0.5
			c-3.5,1.2-7.2,0.3-10.7,0.8c-3.7,0.5-7.5,0.9-10.8,3c-1.2,0.9-2.4,2-4.1,1.9c-1.9-1-4.3-0.8-6-2.4c-0.9-2.9,1.5-6.6-2-8.9
			c-12.3,0.5-24-2.2-35.4-6.8c-2.9-1.2-5.9-2.3-8.5-4.2c-5.8-4.4-8.8-10.2-8.5-17.6c0.2-5.7,0.1-11.3,0-17c0-1.7,0.5-3.8-1.8-4.6
			c-2.9,0-4.8,3.7-8.1,2c0.1-2.8,2.2-3.9,4.3-4.9c4-1.9,7.9-4.1,12.1-5.6c3.7-1.3,3.3-2.8,1.2-5.2c-5-5.8-10.5-11-18.1-13.2
			c-0.8-1.3-1.5-2.6,0.9-2.8c6.7,1.5,12.9,4.3,18.5,8.2c3.2,2.2,5.3,1.8,7.5-1.2c1.5-2,3.2-3.6,6-3.9c5.1-0.6,6.9-2.8,5.6-7.8
			c-1.1-3.8,0-7.6-0.6-11.3c-0.2-1.1-0.4-2.5,1.3-2.7c1.1-0.1,2.7-0.6,3.2,0.5c3.2,7.4,10.6,5.4,16.2,7.4c-0.2,2.3-2.1,1.6-3.4,1.8
			c0,0,0.3,0.1,0.7,0.1c16.7-0.3,33.2,2.4,50,2.3c26.4-0.2,52.8,0,79.2,0.2c2.2,0,4.4,0.2,5.9,2.1c1,1.6,1,3.4,0.8,5.3
			c-0.6,4.3,2.1,4.9,5.5,5c18.9,0.8,37.9,0.6,56.8,0.5c23-0.1,46.1,1.8,69.1,1c6.4-0.2,12.9,0.9,19.3-0.4c13.5-0.8,27,0,40.5-0.5
			c4-0.1,7.8,1.6,11.8,0.6c0.8-0.2,1.7-0.4,2.6-0.4c1.7,0.1,3.5-1,4.9,0.8c0.5,1.6,0.5,3.1-1.1,4.1c-6.8,1.7-13.9,1.6-20.7,1.6
			c-31.4,0.4-62.7,0.4-94.1,0.1c-1.6,0-3.2,0-4.8,0c-27.3,0.3-54.6,0.1-81.9,0.1c-4.3,0-7.6,0.8-8.4,5.7c-0.4,0.5-0.9,1.3-1.5,1.2
			c-7.7-1.1-15.5,0.8-23.2-0.4c-0.4-0.7-0.4-1.5,0-2.2c1.6-2.2,4-2,6.3-2c4.6-0.1,9.2,0,13.8-0.4c-6.7-0.9-13.4-1.7-20.2-0.5
			c-2-0.3-2.9-1.8-3.7-3.3c-1.5-3.4-4.6-2.8-7.3-2.9c-21.7,0-43.4,0-65.1-0.2c-2.5,0-6,1.2-6.7-3c0.6-1.2,1.5-0.8,2.5-0.7
			c16.6,0.7,33.2,0.1,49.7,0.3c3.5,0,7,0,10.4,0c4.1,0.8,8.4,0.3,12.6,0.6c-3.4-0.3-6.8,0.1-10.2-0.3c-18.3-0.7-36.5-0.2-54.8-0.2
			c-3.6,0-7.2-1-10.8,0.1c-0.6,0.6-0.8,1.4-1.2,2.2c-1.1,4.7-5.2,11.4-8.8,15c-2.7,2.8-4.4,6.1-4.8,10.1c-0.5,5.1,0.7,10,1.7,14.8
			c1.9,7.2,3.3,14.6,10,19.3c1,1,1.1,2.8,2.6,3.3c2.7,1,5.5,0.4,8.3,0.6C210.9,105.7,212.8,105.5,214.1,107.1z"/>
		<path class="st8" d="M118.8,66.8c2.8-0.5,4.9-2.4,7.4-3.6c0.3,0.3,0.6,0.7,0.9,1.1c0.6,1.3,0.9,2.9-0.3,3.6
			c-5.2,3.1-3.5,7.8-3.2,12.2c0.1,1.3,0.6,2.6,0.2,3.9c-1.9,3.6-2.3,7.8-0.2,11c2.7,4.3,1.9,7.7-0.5,11.5
			c-5.2,2.7-10.2,5.6-9.6,12.8c0.4,4.7,2.5,6.8,7.4,7.4c1.6,0.1,3.2,0,4.3,1.4c0.1,1.6-0.7,3-3.6,5.7c1.8,0.1,3.1,0.2,4.6,0.3
			c-0.4,1.5-1.7,1.9-2.6,1.7c-3.9-0.9-7.8-1.5-11.7-2.2c-3.3-0.6-7.9,0.3-9.7-2.7c-1.8-2.9,1-6.4,1.8-9.6c0.9-3.8,1.7-7.7-0.9-11.3
			c-1.1-10.9-0.3-21.9-0.5-32.8c0-1.2,0.9-2.1,1.2-3.3C108.9,71.5,113.8,69.2,118.8,66.8z"/>
		<path class="st26" d="M522.8,14.8c3.4,0,6.8,0.1,10.2,0.1c4.3,0.2,8.6,0.4,13,0.7c2,0.1,4.3-0.3,5.1,2.7c0.5,1.7,2.6,0.9,4,0.9
			c7.8,0.2,8.2,0.6,7.5,8.7c-3,1.8-6.4,1.6-9.6,1.6c-16.6-0.2-33.2,0.1-49.7-0.1c-1.5,0-3,0.1-4.4-0.5c-1.7-1-1.3-1.9,0.1-2.8
			c6.7-2.1,12.7-6.4,20-7C521,19,521.2,16,522.8,14.8z"/>
		<path class="st27" d="M498.9,26.1c-0.3,0.6-0.6,1.2-0.9,1.8c-0.4,0.5-0.9,0.9-1.6,1.2c-8.1,0.8-16.2,0.5-24.3,0.5
			c-12.4,0-24.8,0-37.3,0c-28.1,0-56.2,0-84.3,0c-11.3-0.1-22.6,0-34,0.1c-2.1,0-4.3-0.2-6.3,0.9c-0.5,0.3-1,0.6-1.6,0.8
			c-1.7-2-4-1.3-6.1-1.3c-18.1-0.1-36.3,0.6-54.3-0.2c-13.6-0.6-27.1,1-40.6-0.4c-13-1.4-26.2-1.6-39.3-2.3c-0.6,0-1.2-0.3-2.6-0.6
			c3.9-2.5,8,0.1,11.1-2.1c8.4,0.1,16.9-1.3,25,2.4c1.1,0.5,2.6,0.2,4,0.2c95.6,0.1,191.1,0.1,286.7,0.2
			C494.8,27.1,496.9,26.6,498.9,26.1z"/>
		<path class="st28" d="M88.2,152c-2.1,5.9-4.8,11.7-6.1,17.8c-1,5-5.5,8.7-4.7,14.3c0.1,0.6-0.7,1.5-1.3,1.9c-4,3.1-4,8.4-3.7,11.9
			s-1,6.4-2,8.8c-2.3,5.7-1.5,11.9-3.9,17.7c-1.7,4.1-0.7,9.7-1.8,14.7c-0.3,1.2-0.6,3.2-0.5,4.9c-2.6,3.9-4.1,1.3-5.7-0.9
			c0.6-11.8,2.9-23.4,5.7-34.8c1.4-5.9,2.8-11.7,4.3-17.6c2.3-6,4.7-11.9,7.2-17.7c-2.6,5.7-4.8,11.5-7.2,17.3
			c-1.6,4.5-1.3,9.7-4.5,13.7c-0.3-0.7-0.6-1.3-0.9-2c1-6.7,3.2-13.1,5.9-19.3c4.9-11.3,8.9-23,15-33.8
			C85.8,149.3,88,149.4,88.2,152z"/>
		<path class="st29" d="M88.2,152c-1.1-1.5-3.7-1-4.2-3.3c4.6-10.9,9.3-21.8,17-31c0,4.5-2,8.4-3.9,12.3c-3.2,5.2-5.7,10.7-7.8,16.4
			c-0.2,0.7-0.6,1.1-1.2,1.5C88.5,149.3,91.1,150.6,88.2,152z"/>
		<path class="st30" d="M103.9,73.9c0.3,0.1,0.6,0.2,1,0.3c-3.6,7.9-1,16.2-1.7,24.3c-0.3,3.8,0,7.6,0,11.5c0,1.9,0,3.9,0,5.8
			c-0.3,0-0.7,0-1,0c0-13.6,0-27.2,0-40.8C102.4,74.1,103.1,74,103.9,73.9z"/>
		<path class="st31" d="M119.2,35c-1.1,0.7-1.1,1.8-0.9,2.8c-2.6-0.3-5.2-0.6-7.8-0.9c-1.2-0.2-2.3-0.6-2.2-2.1
			c0.1-2,1.6-1.9,2.9-1.7C113.8,33.6,116.7,33.6,119.2,35z"/>
		<path class="st32" d="M496.9,28.2c0.4-0.1,0.8-0.2,1.2-0.4c21.5,0,43,0,64.5,0.1c1.9,1.2,2.4,3.1,2.2,5.2c-3.8-4.4-7.8-3-11.9-0.6
			c-0.5,1.7-1.6,0.5-2.5,0.5c-1-0.4-1.9-0.9-2.8-1.3c-7.6-0.7-15.3-0.3-22.9-0.2c-0.5,0.1-1,0.2-1.5,0.3c-1.2,0.3-2.4,0.6-3.6,0.8
			c-0.5,0-1,0-1.4-0.2c-5.4-0.5-10.8-1.2-16.3-1.1c-2,0-3.9,0.1-5.9-0.1c-0.8-0.1-1.4-0.4-2-0.8C493.3,27.4,496.1,29.2,496.9,28.2z"
			/>
		<path class="st33" d="M519.9,31.9c0.8-1.3,2.1-0.6,3.2-0.7c7.4-0.3,14.8,0,22.1-0.2c2.1-0.1,3.7,1.1,5.7,1.2
			c0.7,0.1,1.4,0.2,2,0.3c0.3,0.5,0.7,1,1,1.5c-1.1,2.5,0.8,4.7,1,7c-1,1.3-2.8,0.2-3.9,1.2c-1.4-1.9-2.8-2.3-4.1,0.1
			c-1.7,0.3-3.3,0.1-4.8-0.6c-1.3-1.4-2.6-2-4.3-0.6c-0.6-0.1-1.4,0-1.8-0.4c-0.8-0.6,1.9-2.5-0.8-2.5c-1.7,0-1,2.2-2.1,2.9
			c-2.3-2.1-3.2,0.1-4.4,1.5c-1.1,0.6-2.3,0.6-3.5,0.4c-2.1-0.6-2.4-2.8-3.6-4.2C520,36.7,518.6,34.7,519.9,31.9z"/>
		<path class="st34" d="M546.9,42.1c0.4-1.5-0.9-4,2.1-3.9c2.9,0.1,1.5,2.6,2.1,4.1c0,0.2,0,0.4,0,0.7c-0.1,2.1-0.2,4.3-0.1,6.4
			c0.1,2.3-1,2.9-3,2.7c-1.2-1.1-2.2-2.2-1.2-4c0-1.7,0-3.4,0-5.1c-0.3-0.2-0.3-0.4-0.2-0.6C546.7,42.2,546.8,42.1,546.9,42.1z"/>
		<path class="st35" d="M554.9,41.1c-1-2.2-3.3-4.3-1-7C554.6,36.3,555.6,38.6,554.9,41.1z"/>
		<path class="st36" d="M65.2,207.9c-2.6,11.6-4.5,23.3-5.9,35.1c1,3.4-0.7,6.5-1.2,9.7c-1,2.8,0.3,5.9-1.3,8.6
			c-3.1,6.3-3.4,12.9-1.7,19.6c-2.6-0.4-5.1-1-7-3c3.1-7.7,3.8-15.9,6-23.8c4-14.8,4.4-30.4,8.9-45.2
			C63.7,208.4,64.1,207.4,65.2,207.9z"/>
		<path class="st37" d="M55.2,280.8c-3.6-5.6-3.2-14.4,1-20c1.1,0.5,2.1,1.1,2.9,2c1.6,2.4,0.8,6-0.2,7.1c-2.9,3.4-2.5,7-2.7,10.7
			C55.9,280.8,55.5,280.8,55.2,280.8z"/>
		<path class="st38" d="M65.2,207.9c-0.7,0.3-1.4,0.6-2.1,0.9c0.3-1.7,0.7-3.3,1-5c1.1-4.7,1.8-9.6,4-14c0.4-0.3,0.8-0.3,1.2,0
			C68.5,196,67.2,202.1,65.2,207.9z"/>
		<path class="st39" d="M285,82c-0.6-1.2,0.8-3-1-3.9c-0.4,0.4-0.7,1-0.9,1.5c-0.5,10.8-0.5,10.8-11.6,10.8c-15.5,0-31,0-46.5,0
			c-5.1,0-10.3-0.4-15.3,1.5c-1.8,0.7-3.7,0.2-5.5-0.1c2.2,1,4.5,0.6,6.8,0.6c21.5,0,43,0,64.5,0c2.4,0,5.5-0.9,6.7,2.6
			c-1.9,1.7-4.4,1.4-6.6,1.4c-8.1,0.1-16.3,0.3-24.4,0c-14.3-0.6-28.5,2.5-42.8,0.1c-3.5-0.6-5.5,1.4-7,4.3
			c-2.9,0.1-2.4-2.3-2.5-3.8c-0.2-5.1-0.4-10.2,0.2-15.2c1.3-4.3,4.9-5,8.7-5.2c5.3-0.2,10.6,0.3,15.9,0.2c3.9-0.1,7.5-1.1,11.3-1.3
			c15.6-0.1,31.2,0,46.8-0.1c1.2,0.1,2.3-0.3,3.4-0.6c4.5-0.7,9.1-0.5,13.6,0.2c1.3,0.2,2.6,0.3,3.2,1.8c3.3,0.1,6.5,0.2,4,4.9
			C299,84.4,292,84.2,285,82z"/>
		<path class="st40" d="M308.1,55c2.6-8,2.6-8,11.6-8c26.8,0,53.6,0,80.3,0c1.3,0.9,2.5,2.1,3.9,0.1c27.2,0,54.4,0,81.7-0.2
			c11.4-0.1,22.8-0.6,34.2-0.9c0.9,0.8,1,1.8,0.3,2.8c-0.1,2.4-0.1,4.6-3.7,3.4c-1.4-0.5-3.2-0.7-4.5,0.8c-6.5-0.7-13-0.1-19.5-0.7
			s-12.9,0.5-19.3,0.8c-9.8,0.4-19.6-0.8-29.4-0.4c-3.3,0.2-6.6,0.5-9.8,1.1c-4.4,1.7-8.8-1.2-13.2-0.2c-22.2-0.1-44.5-0.1-66.7,0.1
			c-11.4,0.1-22.8,0.4-34.2-0.4c-4.7-0.3-8.6,0.1-9.7,5.7c-0.1,1.6-0.1,3.2-0.2,5.3c-1.5-2.3,0.1-4.8-1.8-6.4
			c-0.6-0.5-0.8-1.1-0.7-1.8C307.5,55.7,307.7,55.4,308.1,55z"/>
		<path class="st41" d="M310.1,59.1c-0.1-7-0.1-7.1,6.9-7c5.2,0,10.7,1.5,15.4,0.8c5.5-0.8,10.7,0.8,16,0.2
			c10.6-1.3,21.2-0.1,31.8-0.6c4.6-0.2,9.1,0.1,13.7-0.2c8.6-0.6,17.3,1.2,26,0c0.3,0,0.8,0.6,1.1,0.9c-0.1,0.2-0.3,0.3-0.4,0.5
			c-1.4,0.9-0.9,2.1-0.6,3.3c0.1,1.2,0,2.5-1.2,3.2c-0.7-0.3-1.3-1.3-1.9,0.1c-1.7,2.1-2.1,4.8-3.9,6.9c-1.3-0.6-0.7-3.2-2.9-3
			c-1.7,0-2.8-1-3.2-2.6c-0.4-1.7-1.4-2.1-2.9-1.6c0,1.8-0.2,3.7,0.1,5.5c0.6,3.9-1.1,3-3.1,1.8c0.1-0.4,0.2-0.8,0.4-1.2
			c0.6-2.3,0.9-4.5-0.5-6.7c-1.5-1.3-5.2,0-4.4-3.9c-1-1.2-2-0.4-3,0c0.8,1.9,2.4-2.2,3.1,0.5c-0.2,2.8,2.2,5.8-0.6,8.4
			c-1.3,0.5-2.1-0.4-2.9-1.1c-1.5-1.5-3.6-1.5-5-0.5c-2.2,1.5,0.1,3.5,0.4,5.4c-3-0.1-3.8-2.5-3.8-4c0-4.7-2.8-4-5.8-3.9
			c-6.8,0.1-13.6,0.3-20.4,0c-14.2-0.7-28.3,1.1-42.4,0.1C313.9,59.9,311.9,60.2,310.1,59.1z"/>
		<path class="st42" d="M302,77c-5.5-1.5-11.2-0.7-16.8-1c-1-2-2.2-0.5-3.3-0.1c-14.4,0.3-28.7,0-43.1,0.2c-1.5,0-3.3-1-4.5,0.8
			c-7.3,2-14.7,1.6-22.2,1.3c-4.2-0.2-8.7-1.1-11.9,2.9c-2.2-1.8-1.2-4.4-1.6-6.7c-0.1-1.6-2.2-3.2,0-4.7c0.5-0.1,1-0.2,1.5-0.1
			c5.9,4.2,12.2,1.6,18.4,0.8c1.8,0,3.6-0.5,5.4-0.7c1.8-0.2,3.9-0.9,5.4-0.1c8.6,4.7,17.8,1.6,26.7,2.3c6.1,0.4,12.3,0.1,18.4,0.1
			c-12.5,0-24.9,0.1-37.4-0.1c-2.1,0-5.5,0.9-4.6-3.4c1.5-1,3.1-1,4.8-1c13.8,0,27.5,0,41.3,0c1.8,0,3.6,0.2,5.4,0.9
			c5.7,1,11.4,0.6,17.1,0.4c3.4-0.1,6.3,0.2,7.1,4.2c0.8,1.1,2.7,2,1.8,3.7c-1.2,2.1-2-0.6-3.1-0.5C305.1,76.2,303.4,75.5,302,77z"
			/>
		<path class="st43" d="M433,53c6-3.3,12.5-1.5,18.7-1.7c12.3-0.6,24.5,0.9,36.9,0.3c7.5-0.4,15.7-1.5,23.3,1.5
			c-2.8,3.6-6.1,0.4-9,0.3c-10-0.1-20.1-0.7-30.1,0.6c-0.9,0.1-1.6,0.5-2,1.2c-1.3,0.6-2.4-0.7-3.6-0.3c-0.4,0-0.9,0.1-1.3,0.1
			c-1.5,1.7-2,4-2.9,6c-0.6,0-1.3,0-1.9-0.1c-0.7,2.6-1.4,5.4-4.7,1.9c-0.8-1.2-1.3-2.5-1.1-4c0.1-1,0.4-2,0-3
			c-0.5-1.1-1.5-1-2.5-0.9c-1.5,0.1-3,0.5-4.5,0.5c-1.7-0.3-3.4-0.3-5.1,0c-1.9,0-3.8-0.5-5.8,0c-1.2,0.1-2.2-0.3-3.2-0.9
			C433.5,54.3,433.1,53.8,433,53z"/>
		<path class="st44" d="M308,73c-1.7-2.9-4.4-3.2-7.3-2.8c-5.3,0.8-10.6-0.1-15.8-0.2c-1.3-1.7-1.3-3.6-0.5-5.5c0.5-0.7,1.2-1,2-1.1
			c3.2,0.1,6.3,2.4,9.5,0.1c0.9-0.3,1.8-0.4,2.8-0.2c2.4,1.2,5,1.7,7.7,1.4c0.2,0.1,0.4,0.2,0.6,0.3c0.7,4.5,3.4,5.3,7.7,5.2
			c13.1-0.3,26.1-0.1,39.2,0.7c-9.9,0-19.7,0-29.6,0c-4.2,0-8.3,0-12.5,0C310.3,71,308.4,70.6,308,73z"/>
		<path class="st45" d="M457,62.1c2.6,4.2,2.8-0.2,4-1.1c-0.1,2.1,0.1,4.2,1.3,7.9c-4.1-4.6-6.7-0.8-9.7-0.9
			c-3.6-0.1-7.3,0.5-10.7-0.4c-3.8-1.1-7.5,1.9-11-0.4c-0.4-2.1,0-4.2,0-6.3c0.3-0.6,0.7-1.1,1-1.7c1.3-1.1,2.5-0.2,3.8,0.1
			c0.4,0.2,0.8,0.4,1.1,0.7c1.5,2.4,4.2,0.8,6.2,1.7c1,0.7,0.9,2.2,2,2.8c0.8,0.3,1.5,0.3,2.3,0.3c3,0.2,3.9-2.5,5.7-4
			C454.6,60.4,455.8,61.3,457,62.1z"/>
		<path class="st46" d="M286.9,64.1c-0.5,0-0.9,0-1.4,0c-0.4,0.4-0.9,0.4-1.4,0.1c-0.4-0.4-0.5-0.8-0.6-1.4c0.2-1.7,0.2-3.5,1.2-5
			c4-1.6,8.1-0.5,12.2-0.4c3.7,0.2,7.4-0.2,11-1.5c0,0.6,0.1,1.2,0.1,1.9c-0.5,2.3,0.9,4.9-1,7l0,0c-2.7-0.3-5.5,0.3-8.1-0.9
			c-0.9,0-1.8,0-2.7,0C293.1,65.7,290,64.5,286.9,64.1z"/>
		<path class="st47" d="M433,53c0.3,0.2,0.6,0.4,0.9,0.7c-0.2,1.7-0.6,3.3-2.9,3.3c-1.3,0.2-0.6,2.5-2,2.4c-8-0.3-4.2,3.5-2.4,6.6
			c0.2,0.4,0.4,0.8,0.7,1.3c-2,1.2-3,0.3-3.8-1.3c-0.6-1.2-0.6-3-2.6-3.1c-0.9-1-0.9-2.3-0.8-3.6c0.9-2,0-4.3,0.9-6.4l0,0
			C425,50.2,429,54.5,433,53z"/>
		<path class="st48" d="M285.1,88c0-1.3,0-2.6,0-4c7.3-1.4,14.7-2.1,21.9,0.3c-0.8,2.6-2.9,1.5-4.5,1.7c-4.5,0.6-9.1-1.1-13.4,1
			C287.6,86.9,286.3,87.3,285.1,88z"/>
		<path class="st49" d="M307,84.3c-7.3-0.1-14.6-0.2-21.9-0.3c0-0.7,0-1.3-0.1-2c7,0,14-0.1,21-0.1c0.9,0.2,2.1-0.3,2.5,0.9
			C308.8,83.9,307.7,84,307,84.3z"/>
		<path class="st50" d="M431,57c1-1.1,1.9-2.2,2.9-3.3c1,0.4,2.1,0.9,3.1,1.3c1.4,2,1.3,3.8-1,5.1c-1.3-0.3-2.7-0.6-4-0.8
			C431.6,58.5,431.3,57.8,431,57z"/>
		<path class="st51" d="M404,59.9c0.7-2.8,3.1,0,4.5-1.7c-2.2,3.1-0.3,4.5,1.5,5.9c-0.7,0.9-0.8,2.5-2.1,2.5c-1.4,0-1.5-1.6-1.9-2.6
			C405.6,62.6,406,60.6,404,59.9z"/>
		<path class="st52" d="M402.1,66.9c-0.4,0.1-0.8,0.1-1.1,0.2c-1.3,0.8-2.6,1-3.9-0.1c-0.2-0.2-0.3-0.4-0.5-0.6
			c-1.1-4,2.2-5.1,4.6-6.7C403.6,61.8,402.2,64.5,402.1,66.9z"/>
		<path class="st53" d="M462.9,61.1c-0.8-2.9-0.1-5,2.9-6c-0.1,3,0.2,6-1.7,8.6C463.7,62.8,463.3,62,462.9,61.1z"/>
		<path class="st52" d="M393,63c0.9,0,1.7,0.2,2.1,1.1c1,0.8,1,2.1,1.9,3l0,0c-1.4,1.6-3.3,0.8-5.4,0.9C392,66.1,393.4,64.7,393,63z
			"/>
		<path class="st54" d="M413,67c0.1-3,1.6-5.1,3.9-6.9c-0.6,2.1-1.3,4.2-1.9,6.3C414.6,67.8,414,68,413,67z"/>
		<path class="st55" d="M421.1,59.1c-0.1,1.3-0.1,2.6-0.2,3.9c-2.6,0.4-1.8-1.7-2.1-2.9c0.1-1.3,0.2-2.6,0.3-3.9
			c0.3-0.8,1.1-1.6,1.7-1C422,56.2,421.5,57.7,421.1,59.1z"/>
		<path class="st56" d="M431,60.9c1.4,2.1,2.1,4.2,0,6.3C428,65.1,429.1,63,431,60.9z"/>
		<path class="st47" d="M422.3,67.5c-1.5,0.2-3,0.3-4.7,0.5C419.9,63.7,419.9,63.7,422.3,67.5z"/>
		<path class="st57" d="M478,63.2c-1.6-1.1-0.5-3.5-3-4.3c2.3-1,2.8,0.7,3.9,1.2C479,61.2,479.4,62.5,478,63.2z"/>
		<path class="st58" d="M123.2,105.9c-0.5-0.9-0.5-1.7,0.1-2.7c1.4-2.2,1.7-4.2-0.4-6.6c-2.7-3-2.3-9.5,0.3-12.6
			c3.2,0.5,2.1,3.1,2.5,5c0.7,3.7,1,7.6,5.4,9c2.8,1,3.6,4.8,7,5c12.1,6.7,25.2,10,39,10.9c1.4,0.1,3-0.4,4.1,1c0,1-0.1,2-0.1,3.1
			c-0.7,1.5-1.8,2.6-3.3,3.2c-3,2.1-5.6,4.5-7.8,7.4c-0.3,0.3-0.7,0.6-1.1,0.8c-5.6,0.4-10.7,3-16.1,4c-3.2,0.6-1.8,4.6-4.5,5.4
			c-3.1-1.6-6.8-2.7-6.7-7.3c0-0.8-0.3-1.7,0.5-2.2c0.8-0.4,1.6-0.2,2,0.8c1.3,3,2.7,1.1,3.5-0.2c1.9-3.1,4.4-3.8,8-3.5
			c2.4,0.2,5.4,0.5,7.2-2.2c0.8-1.2,1.9-0.7,3.1-0.6c5.5,0.7,8-1.6,8.4-7.6c-3.7-1.1-7.6-1.1-11.4-1.6c-4-0.5-7.6-2.2-11.4-3.2
			c-1.4-0.4-2.9-0.8-4.1-1.6c1.5,1.8,4.9,0.5,5.9,3.3c-2.4,4.3-7.1,5.2-10.1,1.8c-2.4-2.7-5.4-3.5-8.9-2.8
			C130.2,110.6,126.7,108.2,123.2,105.9z"/>
		<path class="st59" d="M143.1,281.9c-1.6,0-3.3,0-4.9,0c0.1-7.7-0.5-15.5,1.4-23.2c0.5-2.1,1.1-3.7,3.2-3.4
			c2.1,0.3,1.3,2.4,1.3,3.7c0.2,6.5,0.1,12.9,0.4,19.4C144.6,279.9,143.6,280.7,143.1,281.9z"/>
		<path class="st60" d="M123.2,105.9c4.5,0.6,7.9,2.9,11,6.1c3.9,8.2,2.7,12.9-4,16c-0.5-0.1-0.9-0.2-1.4-0.3c0-1.4,1-2.3,1.7-3.4
			c3.3-5.2,3.1-7-1-11.7c-4.6-3.8-7-4.1-10.4-1.2c-4.1,3.5-4.6,6.8-1.5,12.1c0.6,1.7,2.8,2.4,2.8,4.5c-6.9-0.9-10.8-8.7-7.2-14.9
			C115.4,109.4,118.3,106.1,123.2,105.9z"/>
		<path class="st61" d="M148.1,138.9c0.5-4.3,2.1-6.1,7.2-7.1c4.5-1,8.9-3,13.8-2.8c0.1,3.4-2.8,3.3-4.8,3.9
			c-8.3,2.6-8.6,2.9-7.2,11.1c-0.7,0-1.3,0-2-0.1C153.5,141.3,150.2,141,148.1,138.9z"/>
		<path class="st62" d="M148.1,166.9c1.8-2.5,2.3-1.2,2.1,0.8c-0.5,6.4,2.7,11.7,4.8,17.3c0.5,1.3,1.7,2.4-0.7,2.8
			c-1.6,0.2-3,0-3.1-2.2c-0.2-5.9-3.1-11-4-16.7C147.9,168.5,148.1,167.8,148.1,166.9z"/>
		<path class="st63" d="M153.1,113c-3.1-1.3-6.2-2.6-9.3-3.8c0.1-0.4,0.2-0.8,0.3-1.2c10.5,4.3,21.3,7.1,33.1,7.1
			c-1.3,1.8-2.3,0.6-3.2,1C166.9,116.5,160,114.5,153.1,113z"/>
		<path class="st58" d="M90.3,279.8c0.7-1.7,2.1-2.1,3.6-1.7c6.7,1.7,13.4,0.5,20.1,0.7c3.9,1.2,8.3-2.2,12.1,1.1
			C114.2,279.9,102.2,279.8,90.3,279.8z"/>
		<path class="st24" d="M129.1,184.9c3-2.3,4,0.2,4.3,2.2c0.2,1.7-1.8,3.2-1.4,5.4c0.1,0.6-1.3,1.4-2.3,0.5s-1-1.7-0.2-2.9
			C130.5,188.5,134.3,186.3,129.1,184.9C129.2,185,129.1,184.9,129.1,184.9z"/>
		<path class="st24" d="M118.9,230.8c2.8,0.7,4.3,2.3,3.4,3.9c-1.1,2.1-1.8,0.5-2.2-1C119.9,232.9,119.4,232.1,118.9,230.8z"/>
		<path class="st64" d="M157.1,144c-4.2-6.2-2.4-10.2,5.1-11.7c2.4-0.5,5.4-0.6,6.9-3.3l0,0c2.1-3.5,6.8-4.7,8-9
			c1.7,0.2,2.5-1.4,3.9-1.9c0,2.6,0,5.2,0,7.9c-0.4,8-4.4,13.9-10.6,18.8c-1.7,1.4-3.6,1.5-5.4,2.1
			C162.1,146.7,158.5,148.3,157.1,144z"/>
		<path class="st65" d="M165.1,146.9c8.4-4.6,13.6-11.7,16-20.9c0,4.3,0.1,8.6,0,12.9c-0.1,5.6-2.5,8.1-8.1,8.1
			C170.3,147,167.7,146.9,165.1,146.9z"/>
		<path class="st66" d="M183.1,123.9c2,0.8,5.1-1.7,6,2.2c0.3,2.7-0.7,4.6-3,5.9c-1.6-0.2-2,1.3-3,2.1
			C183.2,130.7,183.2,127.3,183.1,123.9z"/>
		<path class="st67" d="M200.1,73.1c0.1,2.7,0.1,5.3,0.2,8c0.3,6.6-1.3,13.3,0.9,19.8c2.3-1.8,5-1.4,7.7-1.4c21.7,0,43.5,0,65.2,0
			c2.4,0,5.1,0.5,7-1.6c2.3-3.9,0.6-8.3,1.5-12.4c0.5-2.4-0.6-4.9,0.6-7.3c0.3-0.2,0.6-0.2,0.9,0.1c0,9.3,0,18.5,0,27.8
			c-4,2.1-8.4,0.6-12.5,0.9c-3.5,0.3-7,0.1-10.4,0.2c-0.3,0.5-0.7,0.5-1,0c-15.3,0-30.6,0-46,0c-5-1-10.3,1.2-15.2-1.1
			c-1.9-9.2-1.2-18.4-1.1-27.7C197.8,76.4,196.9,73.7,200.1,73.1z"/>
		<path class="st68" d="M260,107.1c0.3,0,0.7,0,1,0c0,2-0.3,4,0,6c0.8,4.7-2.4,5.7-5.6,5.9c-5.8,0.4-11.6,0.1-17.4-0.9
			c3.4,0,6.7,0.1,10.1,0c9.8-0.4,9.2-1.2,11.1-9.1C259.4,108.3,259.8,107.7,260,107.1z"/>
		<path class="st69" d="M233,108.4c-1.4,4.5,1,4.1,2.9,4c1,0,2.1-0.3,2.1,1.1s-1.1,1.1-2.1,1.1c-1.9,0-4.2,0.8-5.4-0.6
			C229.3,112.5,230.5,110.6,233,108.4z"/>
		<path class="st70" d="M520.1,48.9c-0.1-0.9-0.2-1.9-0.3-2.8c0.1-1.4,0.1-2.7,0.2-4.1c-1.1-2.2-1.9-4.1,1.8-4.1c3,0,1.5,3,2.8,4.2
			c1.1,0.9,0.5,1.9,0.2,2.9c-0.8,0.9-0.5,2.1-0.8,3.2c-0.3,1.2,1.2,3-1.2,3.4C520.7,52,521.2,49.5,520.1,48.9z"/>
		<path class="st71" d="M537.9,41.1c0.1-1.4-0.1-3,2.1-3c2.2,0.1,1.8,1.8,2.1,3.1c0.4,0.6,0.4,1.1,0,1.7c0,2.8,0,5.5,0,8.2
			c-2.5,0.8-2.9-1.4-4.1-2.3c-0.6-0.5-0.7-1.1-0.3-1.8C537.8,45.1,537.8,43.1,537.9,41.1z"/>
		<path class="st71" d="M529,42c0.4-1.4-0.9-3.6,1.8-3.9c2.3-0.2,2.1,1.6,2.4,3c0,3.4,0,6.7,0,10.1c-2.4,0.5-2.7-1.8-4.1-2.4
			C527,46.6,527.3,44.3,529,42z"/>
		<path class="st72" d="M529,42c0,2.3,0.1,4.6,0.1,6.9c-0.5,1.5,0.6,4.2-2.4,4c-2.6-0.2-1.5-2.5-1.7-3.9c-0.2-1.3-0.1-2.7-0.1-4
			c-1.2-0.9-0.5-1.9-0.2-2.9C526.1,41.5,527.5,41.6,529,42z"/>
		<path class="st73" d="M546.8,48.1c0.4,1.3,0.8,2.6,1.2,4c-3.1,1.5-5.5,1.7-5.1-2.9c0.1-1.1-0.3-2.4,1.3-2.8
			C545.6,45.9,545.9,47.5,546.8,48.1z"/>
		<path class="st74" d="M537.8,47.1c0.1,0.6,0.2,1.2,0.3,1.8c-0.5,1.4,0.8,3.9-2.5,3.4c-3.1-0.5-1.5-2.8-1.5-4.1
			C534.2,45,536.1,46.2,537.8,47.1z"/>
		<path class="st75" d="M467.2,55c1.4-2.1,2.5-0.5,3.6,0.3c-0.4,2.5-0.9,4.9-1.3,7.4C468.4,59.9,469.1,57.2,467.2,55z"/>
		<path class="st76" d="M542.1,43c0-0.6,0-1.1,0-1.7c1.7-0.1,3.3-0.2,4.8,0.8c0.1,0.3,0.1,0.6,0,0.9C545.3,44.2,543.7,44.3,542.1,43
			z"/>
		<path class="st77" d="M144.1,232.9c-2.4,0.2-4.2-0.2-4-3.3c0.4-6.2-0.3-12.5-1-18.7c2.6-1.3,2.4,1.3,2.5,2.2
			c0.3,5.4,1.5,10.5,3.3,15.6C145.5,230.2,144.8,231.6,144.1,232.9z"/>
		<path class="st58" d="M77.3,278.8c2.8-1.8,5.9-0.5,9.6-0.9c-2.2,1.6-4,0.7-5.7,1C79.9,278.9,78.6,278.9,77.3,278.8z"/>
		<path class="st78" d="M302,104.7c-4.9,0.1-9.7,0.2-14.6,0.3c-1.5,0-2.6-0.2-2.2-2.1c1.6-1.3,14.2-3.2,15.7-2.3
			C302.5,101.7,301.9,103.3,302,104.7z"/>
		<path class="st79" d="M57.1,252.8c0.7-3.3,1.5-6.6,2.2-9.9c1.4,1.6,2.8,3.1,4.9,0.9c1.6,1.3,0.3,2.4-0.4,3.4
			c-1.2,1.6-3.7,2.6-0.2,4.8c0.8,0.5-1.8,2.9-3.5,3.8C58.4,255.5,56.1,255.8,57.1,252.8z"/>
		<path class="st80" d="M130.5,111.7c5.4,6,5.1,9.2-1.7,16c-0.5-0.2-1.1-0.5-1.6-0.7c-0.6,0.6-1.3,0.5-2,0.2c-0.6-1,0-1.8,0.6-2.5
			c1.2-0.9,2.9-1.2,3.8-2.5c1.1-3.2-0.6-6.4,0-9.6C129.7,112.2,130,111.9,130.5,111.7z"/>
		<path class="st81" d="M88.2,147.9c2.2-6.3,3.7-13.1,9-17.9C95.4,136.6,92.8,142.7,88.2,147.9z"/>
		<path class="st82" d="M57.1,252.8c-0.2,2.1,3.2,0.9,2.9,3c-1.9,2.1-0.1,4.7-0.9,7c-1.5,0.1-2.9,0.1-2.9-2
			C57.4,258.3,55.1,255.3,57.1,252.8z"/>
		<path class="st83" d="M125,126.9c0.7,0,1.4,0,2.1,0.1c-0.3,0.9-1.2,0.9-1.9,1.1c-1.6,0-3.2-0.1-4.8-0.1c-1.4-1.1-3.1-1.8-3.4-3.8
			c0.2-0.2,0.4-0.3,0.5-0.5C120.4,123.9,122.8,125.3,125,126.9z"/>
		<path class="st8" d="M131.6,148.5c1.1-0.2,1.5,0.4,1.5,1.1c0,1.7,2.5,1.8,2.1,3.5c-0.1,0.6-1.2,0.9-1.7,0.4
			C132,152.2,130.8,150.7,131.6,148.5z"/>
		<path class="st84" d="M514.1,43.1c-2.9,1.6-5.8,0.1-8.7,0.1c-13,0.3-26-0.8-39.1,0.4c-1.8,0.2-3.6-0.4-5.4-0.6
			c-14.1,0-28.1,0.1-42.2-0.2c-17.8-0.3-35.6-1.5-53.5-1.7c-8.3-0.1-16.6,0.7-24.9-0.4c-3.3-0.4-6.4-1.6-9.7-2.1
			c-5.8-1.1-11.5-0.4-17.3-0.2c-1.9,0.1-4.1,0.4-4.5-2.5c0-1.6-0.1-3.2-0.1-4.7c0.2-0.1,0.3-0.2,0.4-0.3c5.5-1.9,11.3-1.4,16.9-1.6
			c8.5-0.3,16.9-0.3,25.4-0.2c3.4,0.2,6.8-0.5,10.1,0.5c0.5,0.3,0.7,0.8,0.6,1.4c-1.6,2.4-4.2,2.3-6.6,2.5c-2.7,0.2-5.5-0.2-8.2,0.7
			c7.5,0.7,15,0.5,22.5,0.5c1.8,0,3.7-0.2,5.4,0.1c2.3,0.4,2.8-1.1,3.2-2.7c2.7-3.1,6.6-1.8,10-2.6c0.5-0.1,1.1-0.1,1.6,0
			c3,0.8,6.3-0.2,9.2,1c1.9,3.3-2.3,2.1-2.7,3.7c4.7,1.8,9.8,0.3,14.4,2.4c5.8,2.2,11.8,1.1,17.7,1.2c6.6,0.1,13.3,0.6,19.8,1.3
			c4.8,0.5,9.6,0.5,14.4,0.3c8-0.4,15.9,1.3,23.9,0.1c5.9-0.1,11.7,1.5,17.7,0.3C508.2,38.9,511.2,41.3,514.1,43.1z"/>
		<path class="st85" d="M308.9,35.9c3,3.3,7.4,1.5,9.8,0.8c5.5-1.7,10.4,0.4,15.3,1.2c6,1,11.8,2.1,17.9,2.2c14.7,0,29.4-0.7,44,0.5
			c7,0.6,14,0.1,20.9,1c4.1,0.5,8.7,0.2,13.1-0.1c6.4-0.5,13,0.1,19.4,0.6c3.9,0.3,7.9-1.1,11.7,1c-5.4,2.4-11,0.6-16.5,0.8
			c-12.7,0.5-25.6,0.8-38.3,0.1c-26.7-1.5-53.4-0.3-80.1-0.9c-4.1-0.1-8.1-0.5-12.2-0.6C309,42.3,308.1,41.3,308.9,35.9z"/>
		<path class="st86" d="M199,42c0.1-0.6,0.1-1.3,0.2-1.9c0.9-0.8,1.9-0.7,2.9-0.1c0.5,3.2,3,2,4.7,2c23.4,0.1,46.8,0.2,70.2-0.1
			c4.3,0,5.6,1.3,5.3,5.2c-0.3,0.2-0.5,0.4-0.7,0.6c-2.7,1.1-5.6,0.6-8.4,0.6c-12.8,0-25.6,0.1-38.4,0c-1.2,0-2.5-0.1-3.7-0.5
			c-3.2-1.7-6.8-1.3-10.2-1.4c-6.1-0.2-12.3,0.5-18.4-0.4c-0.5-0.1-1.1-0.4-1.5-0.7C199.9,44.5,198.8,43.6,199,42z"/>
		<path class="st87" d="M282.2,47.2c1,0.6,1.3,2.1,2.8,2c0.7,0.6,0.7,1.4,0.5,2.3c-2,0.8,0.9,5.2-3.2,4.5c-1.9-1.2-4.1-1.4-6.3-1.4
			c-19.2,0-38.3,0-57.5,0c-1.4,0-3-0.1-4.2,1.3c22.7,1,45.4,0.2,68.1,0.9c3.6,1.5,1.9,3.7,0.7,5.8c-8-1.8-16.3-1.3-24.3-1.2
			c-17.1,0.2-34.3-0.1-51.4,0.1c-2.2,0-4.3-0.2-6.1-1.8c-1.3-1.8,0.1-2.3,1.3-2.9c0.5-0.1,0.9-0.2,1.4-0.2c1.5-0.1,3.3,1.1,4.1-1.3
			c-0.4-1.3-2.3-1.3-2.4-2.8c0.8-1.6,2.3-1.8,3.8-2c6.1,0.9,12.1-0.8,18.2-0.1c6.7,1.2,13.2-0.5,19.8-0.6
			c10.5-0.2,20.9,0.1,31.4-0.1c0.5-0.1,0.9-0.3,1.3-0.5c0.3-0.4,0.6-0.7,0.9-1C281.5,47.7,281.8,47.4,282.2,47.2L282.2,47.2z"/>
		<path class="st88" d="M215.3,120.1c-1,4.8-3,9.3-3.2,14.2c-0.1,1.7,0,3.2,1,4.6c-0.6,3.2-2.9,2.3-4.9,2
			c-2.2-8.6-12.1-10.1-16-17.2c3.6-3.5,8.4-3.2,12.8-3.7C208.4,119.7,211.8,120.1,215.3,120.1z"/>
		<path class="st89" d="M514.1,43.1c-6.5-3-13.5-1-20.1-2.3c-2.4-0.5-4.9,1.6-7-0.8c0.6-2.8-2.6-2.7-3.4-4.5
			c-0.5-2.1-3.9-1.8-3.7-4.5c4.5-3.6,9.3-2,14.1-1c0.7,0,1.3,0.1,2,0.1c4.4,2.4,8.1,6.1,13.5,6.1c0.8,0,1.5,0.6,2.3,1
			c1.6,0.8,2.4,3.3,4.9,2.3c0.6,1.2,0.5,2.4,0,3.6C515.7,43.1,514.9,43.1,514.1,43.1z"/>
		<path class="st90" d="M200.1,73.1c-2.2,1-1,2.9-1.1,4.3c-0.1,9.5-0.1,19.1-0.1,28.6c-1.2-1.1-0.7-2.7-0.9-4
			c-1.2-1.3-1.4-3-1.2-4.6c0.3-3.5-0.8-6.4-3.1-9c0-3.6,4.6-5.7,3.1-9.8c0-2.1,0.1-4.3-0.9-6.3c-0.1-0.7-0.8,0.1-0.1-0.2
			c1.7,5.7-3.3,6.4-6.4,8.6c-3.2-2.8-3.6-6.3-2.3-10.2c2.3-1.8,2.3-4.7,3.2-7.1c1.8-4.7,5.6-6.9,9.6-5.5c0.6,4.1,1.5,8.2-0.7,12.1
			C197.1,71.7,200,72,200.1,73.1z"/>
		<path class="st91" d="M198.9,57c-5.3,2.6-8.5,6.6-8.9,12.7c-0.1,1.5-1.6,1.3-2.7,1.5c-1.7-0.9-1.1-2.9-2.1-4.1
			c1.3-6.3,3.7-11.7,10.5-13.7c2-0.6,2.4-1.7,2.5-3.6c0.2-2.6-0.8-5.3,0.8-7.7c0.7,0.7,1.3,1.5,2,2.2c-1,4,1,8.1-0.9,12
			C199.7,56.6,199.3,56.9,198.9,57z"/>
		<path class="st92" d="M308,56.1c-2.1,5.1-6.6,2.2-9.8,2.7c-4.2,0.6-8.7-0.5-13-0.8c-0.8-1-0.9-2,0.1-3c7.6-1.4,15.2-2.6,22.8,0
			C308,55.4,308,55.8,308,56.1z"/>
		<path class="st93" d="M194.3,87.9c6.2,3.4,2.9,9.2,3.7,14c-3,0.5-4.7-0.6-5.3-3.7c-1.1-5.4-5.8-9.4-5.6-15.3
			C190.9,82.6,191.6,86.8,194.3,87.9z"/>
		<path class="st73" d="M285,51.2c0-0.7,0-1.4,0-2.1c2.9-2.7,6.2-1.1,9.4-1.1c3.5,0,6.9,0,10.4,0.1c1.7,0,3.2,0.6,3,2.4
			c-0.2,1.9-1.7,1.8-3.4,1.8c-6.4-0.2-12.9-1.1-19.2,0.6C284.4,52.5,284.5,51.9,285,51.2z"/>
		<path class="st94" d="M194.3,87.9c-3.8,0.4-4.4-3.9-7.2-4.9c-1.4-5.2-2.6-10.5-2-16c1.4,1,1.8,2.5,2.1,4.1c-0.1,3.1,0.8,6,1.8,8.9
			c1.5,1.3,2.5,0.3,3.8-0.7c1.4-1.1,2.9-2.9,5-1.2C198.6,82.2,198,85.6,194.3,87.9z"/>
		<path class="st95" d="M138,103.1c-3.8,1.1-4.2-3.3-6.8-4.1c-4.2-2.1-4.4-6.2-4.5-9.8c-0.2-7.1-0.8-14.3,0.4-21.4
			c0.2-1.5-0.1-2.6-1.1-3.6c0-0.3,0-0.6,0-0.9c3.3-0.5,3.9,1.4,3.9,4.2c-0.1,6.2,0.2,12.3-0.1,18.5C129.6,93.1,132.4,98.7,138,103.1
			z"/>
		<path class="st96" d="M202,40.1c-1,0-1.9,0-2.9,0.1c1.1-1.5,2.7-1.1,4.1-1.1c20.2,0,40.4,0,60.5,0c1.1,0,2.3-0.1,3.3,0.8
			c-0.7,0.9-1.8,0.6-2.7,0.7c-18.2,0-36.4,0-54.6,0c-1.8,0-3.6,0.4-5.4-0.4C203.5,40.1,202.8,40.1,202,40.1z"/>
		<path class="st97" d="M285.4,44.3c3-3.2,5.8-2.3,8.3-2.4c4.1-0.1,8.3,0.1,12.4,0.2c1,0,2,0.3,1.9,1.7c-0.1,1-0.8,1.4-1.7,1.3
			C299.7,44.5,292.9,45.5,285.4,44.3z"/>
		<path class="st98" d="M204.3,40.2c20.2,0,40.5,0,60.7,0c0.3,0.2,0.5,0.4,0.4,0.5c-0.1,0.2-0.2,0.3-0.3,0.3
			c-19.4,0-38.8,0.1-58.2,0.1C205.9,41.2,204.8,41.4,204.3,40.2z"/>
		<path class="st99" d="M157.8,79.9c4.2-0.8,7.8,2.3,11.8,1.2c0.7-0.2,1.8-0.1,1.7,1.1c-0.2,1.6-1.5,2.5-2.7,2.5
			C164.6,84.5,159.8,85.7,157.8,79.9z"/>
		<path class="st100" d="M516.5,43.1c-0.2-1.4-0.5-2.7-0.7-4.1c-1.5-3.5,0.2-5.5,3.1-7c0.3,0,0.6,0,0.9-0.1c0.7,2,1.3,4,2,6
			c-2.7,0.4-1.8,2.5-1.8,4.1C518.9,42.4,517.7,42.8,516.5,43.1z"/>
		<path class="st10" d="M204.4,114.2c1-1.9-0.1-3.8-1-6.1c2,0,3.5,0,4.9,0c1.3,0,3.1,0.2,2.3,2c-0.3,0.6-0.4,3.8-3.1,2.1
			C205.1,110.7,206.7,114.8,204.4,114.2z"/>
		<path class="st101" d="M152.9,84.4c-1.7,0.5-4,1.4-3.6-2.1c0.1-0.7,0.9-2.1,1.4-1.2c1.5,2.5,6.3-2.4,6,2.7
			C156.5,86.2,154.3,84.2,152.9,84.4z"/>
		<path class="st102" d="M285,51.2c0.1,0.6,0.1,1.2,0.2,1.8c0,0.7,0,1.4,0,2c0,1-0.1,2-0.1,3c-0.3,1.6,0.6,3.5-0.9,5
			c-0.5-0.2-0.6-0.6-0.4-1c-1.6-1.4,1.1-3.5-0.8-4.8c-0.2-0.4-0.2-0.7,0-1.1C284.7,54.8,282.8,52.2,285,51.2z"/>
		<path class="st103" d="M265.1,41c0-0.3,0-0.6,0-0.8c0.7-0.1,1.3-0.2,2-0.3c3.8,0,7.5,0,11.3,0C273.9,41.4,269.5,41.5,265.1,41z"/>
		<path class="st104" d="M161.8,33.4c1.3,0.3,1.1,1.2,1.1,1.9c0,0.9-0.4,1.6-1.3,1.6c-0.9,0-1.4-0.6-1.4-1.5
			C160.3,34.3,161,33.7,161.8,33.4z"/>
		<path class="st105" d="M403.9,47.2c0.5,0.8,1.1,1.5,1.6,2.3c-1.9-0.7-4.8,0.7-5.5-2.4C401.3,47.1,402.6,47.1,403.9,47.2z"/>
		<path class="st106" d="M126.1,64.1c2.8,0.1,1.9,2.3,1.9,3.7c0.1,7,0,14,0.1,21c0,3.7,0.6,7.3,3.1,10.2c-4.4-0.8-7.2-4.3-7-9.6
			c0.1-2,0.4-3.8-1.2-5.4c-1.4-3.9-0.9-8.1-1.6-12.2c-0.4-2.1,1.1-2.7,2.4-3.2C126.3,67.8,127.1,66.4,126.1,64.1z"/>
		<path class="st107" d="M362.1,30.1c-3.7,0-7.4,0-11.1-0.1c-0.5-0.5-1.5-0.8-1-1.9c28.3,0,56.7,0,85,0c3.2,1,6.4,0.2,9.7,0.5
			c1.1,0.1,2.9-0.4,1.9,1.9c-5.3,2-10.8,0.6-16.2,1c-2.1,0.2-4.3,0-6.4,0c-7.3-0.1-14.6,0.2-21.9-0.2c-3.9-1.7-8.2,0.1-12.1-1.3
			c-0.3,0-0.7,0-1,0.1c-7.4,0.7-14.7,1.7-22.2,1.3C365.1,31.4,363.4,31.4,362.1,30.1z"/>
		<path class="st108" d="M447,29.9c-3.7-2.2-8.2,0.7-12-1.7c20.6,0,41.2,0.1,61.8,0.1c-1,0.6-2,1.2-2.9,1.8c-2.4,1.2-4.8,0.1-7.2,0
			c-2.5,0-4.9-0.1-6.9,1.8c-0.6,0.7-1.5,0.9-2.4,0.8c-6.6-0.4-13.2-1.8-19.9-1.3C454.1,30.9,450.2,32.7,447,29.9z"/>
		<path class="st109" d="M350,28.1c0.3,0.6,0.7,1.3,1,1.9c-12.6,0.3-25.3-0.5-37.8,1.8c-1.6,0.3-2.3-2.1-4-1c-0.4-3.3,2-2.8,3.9-2.8
			C325.4,28.1,337.7,28.1,350,28.1z"/>
		<path class="st110" d="M69.3,189.9c-0.4,0-0.8,0-1.2,0c1.2-6.6,5.2-12,7.7-18C74.4,178.2,72.6,184.3,69.3,189.9z"/>
		<path class="st111" d="M518.9,32c-1.8,2-2.9,4.3-3.1,7c-1.1-0.4-0.3,4-2.5,0.9c-1.8-2.5-4.6-3.3-7.4-3.3c-4.9,0-7.3-3.4-10-6.6
			c5.2,0.3,10.5-1.2,15.6,1c1.3,0.5,1.7-0.8,2.6-0.9C516,30.1,518.1,29.4,518.9,32z"/>
		<path class="st112" d="M550.9,32.2c-9.3-0.7-18.6,0.8-27.8-1l-0.1-0.3c8.7-0.6,17.3-0.5,26-0.1C549.6,31.3,550.2,31.8,550.9,32.2z
			"/>
		<path class="st111" d="M548.9,30.9c-8.7,0-17.3,0-26,0.1C531.6,29.4,540.2,29.5,548.9,30.9z"/>
		<path class="st113" d="M282.8,99.2c0.3,1.5-0.5,2.1-1.9,2.1c-26.6-0.1-53.2-0.2-79.8-0.4c-0.7-4.4,0.7-6.5,5.5-5.9
			c4.2,0.6,8.6,1.2,12.8,0.9c20.9-1.3,41.8-0.8,62.7-0.9C282.9,96.3,282.2,97.8,282.8,99.2z"/>
		<path class="st114" d="M282.8,99.2c-1.7-1.2,0.1-2.9-0.7-4.2c-1.4-1.8-3.4-0.9-5.1-1c-23.3-0.1-46.6,0-69.8-0.1c-1.3,0-2.7,0-4,0
			c-1.4,0-2.2-0.7-2.2-2.1c0-1-0.2-2,0.8-2.7c1.3-0.9,1.7-0.2,2.6,0.8c1.5,1.6,4.3,1.4,5.5,0.5c2.8-2.2,5.7-1.6,8.5-1.6
			c19.3-0.1,38.6-0.2,57.9,0.1c4.9,0.1,6.7-1.5,6-6.2c-0.2-1.5-0.8-3.3,0.8-4.6C283,85.1,282.9,92.2,282.8,99.2z"/>
		<path class="st115" d="M234.4,76.8c-0.8-0.7-2.4-0.1-2.9-1.6c17.2,0,34.3,0,51.4,0c0.5,0.6,1,1.3-0.2,1.7
			C266.6,76.9,250.5,76.9,234.4,76.8z"/>
		<path class="st116" d="M282.7,76.9c0.1-0.6,0.1-1.2,0.2-1.7c0.1-1.1,0.3-2.3,0.4-3.5c2.4,0.8,1.4,2.8,1.9,4.2
			C284.6,76.9,283.6,76.9,282.7,76.9z"/>
		<path class="st117" d="M397,67c-1.3-0.6-2-1.5-1.9-3c1.7-2.8,0.5-5.9,0.9-8.8c0.2-0.5,0.4-0.7,0.9-0.3c0.1,1.2-0.4,2.9,2,2.2
			c1.1-0.3,2.3-0.3,3,0.9c0.1,1-2.9,0.1-1.2,2C400.6,63.1,395.2,63,397,67z"/>
		<path class="st118" d="M400.8,60.2c-0.7-0.4-2.4,0.2-2.1-1c0.3-1.5,2-1.1,3.3-1.1c1.3,2.9,1.9,5.8,0.1,8.8
			C401.1,64.8,402.9,62.1,400.8,60.2z"/>
		<path class="st119" d="M397,55c-0.3,0-0.6,0.1-0.9,0.3c-1.7,1-0.3,3.2-2,4.5c-1.8-1.4-0.4-4.2-3-5.6C393.7,54,395.5,53.4,397,55z"
			/>
		<path class="st40" d="M421.1,59.1c-1.1-0.6,1.8-4.1-2-2.9c-0.1-0.9-2-1-1.2-2.2c0.7-1.1,2-0.8,3.1-0.9C422,55,422.6,57,421.1,59.1
			z"/>
		<path class="st120" d="M386,58.7c-1.2-2.2-2.9-4.8,1.9-4.6C387.2,55.8,386.6,57.3,386,58.7z"/>
		<path class="st121" d="M411.1,58.4c1.1,1.4,1.6,2.6,1.2,4c0,0.1-0.9,0.2-1.2,0.1C409.9,61.5,409.9,60.3,411.1,58.4z"/>
		<path class="st63" d="M283.9,61.9c0.1,0.3,0.3,0.7,0.4,1c0,0.4-0.1,0.7-0.1,1.1c0.1,1.9-1,2.4-2.6,2.5
			c-17.5-0.1-34.9-0.5-52.4,0.2c-6.3,0.3-12.6-0.8-18.9-1.5c-2.4-0.3-4.9-0.8-7.4,1.7c3.7,0.8,6.8,0.7,9.8,1
			c1.9,0.2,4.1,0.1,4.5,2.8c-5.4,3.6-13.7,3.1-17-1.1c-1.2-4.5,0.3-9.1-0.8-13.6c1.8-3.8-1.6-8.4,1.7-12.1c0.1,0.3,0.1,0.6,0.2,0.8
			c0.9,4.4,5.3,4.3,8.2,6.1c-1.1,0.5-2.2,1.1-3.4,1.6c-0.1,2.4-3.1,0.4-3.5,2.3c-0.3,1-0.5,2-1.3,2.8c1.5,2.4,4,1.9,6.2,1.9
			c22.7,0,45.4,0.1,68.1,0C278.6,59.9,281.3,60.4,283.9,61.9z"/>
		<path class="st122" d="M217.1,71c-4.1-2.6-8.8-1.3-13.2-1.9c-1.2-0.2-2.8,0.8-2.8-1.5c0-1.7-0.2-3.3,2.3-3.6
			c7.6-0.8,15,0.7,22.5,1.3c2.6,0.2,4.9-0.3,7.3-0.3c15.3,0,30.6,0,45.9,0c1.2,0,2.4-0.1,3.1,1.1c-1,2.5-3.1,1.3-4.7,1.4
			c-13.4,0.1-26.7,0-40.1,0.1c-1.9,0-4.1-0.7-5.3,1.6c1.3,2.4,3.7,1.9,5.8,1.9c13,0,26,0,39,0.1c1.6,0,3.3-0.4,4.8,0.6
			c-0.5,2.1-2.2,1.4-3.3,1.4c-14.3,0.1-28.6,0.2-43-0.1c-4.4-0.1-8.9-3.5-13.3-1.4C219.8,72.5,218.7,71.6,217.1,71z"/>
		<path class="st123" d="M232,69.1c-1.2-3.9,1.8-2.9,3.5-2.9c10.6-0.1,21.2-0.1,31.8-0.1c4.9,0,9.8,0,14.8,0
			c0.7-0.7,1.4-1.4,2.1-2.1c0.4,0,0.9,0.1,1.3,0.1c-0.2,1.9-0.4,3.8-0.5,5.8c-3.2-1.1-6.5-0.9-9.8-0.9
			C260.8,69.1,246.4,69.1,232,69.1z"/>
		<path class="st124" d="M199.2,56.3c1.9,4.4,0.5,9.1,0.8,13.6c-0.3,0-0.5,0.1-0.8,0.1c-0.1-4.3-0.2-8.7-0.4-13
			C199.1,56.8,199.2,56.5,199.2,56.3z"/>
		<path class="st45" d="M448,55.1c1.5-1,3.2-1.1,4.9-1c1.1,0.6,1.9,1.7,3.1,2c1.3,1,0.6,1.6-0.4,2.2c-1,1.4-2.8,1.6-3.7,3
			c-1.9,0.8-3.8,2.1-5.7,0C445.9,59,444.3,56.3,448,55.1z"/>
		<path class="st125" d="M436,60.1c0.9-1.6,1.2-3.3,1-5.1c2-1.9,4-0.8,6,0c2.1,0,1.6,1.5,1.7,2.7c-0.3,1-0.8,1.9-1.6,2.6
			C440.7,60.8,438.3,61.7,436,60.1L436,60.1z"/>
		<path class="st126" d="M444,58c0.1-1.1,0.3-2.3-0.9-3c1.7-1.5,3.3-1.5,5,0.1c-1.7,2.1-0.8,4.6-1,7c1.2,1.3,0.9,2.7,0,4
			c-1,0-1.9,0-2.9,0C443.4,63.4,443.2,60.7,444,58z"/>
		<path class="st127" d="M452.1,59.7c1.1-0.8,2.2-1.4,3.5-1.3c0.4,1.3,0.9,2.5,1.3,3.8c-1.5,0-3,0.1-3.8-1.5
			C452.2,61,452.3,60.1,452.1,59.7z"/>
		<path class="st128" d="M456,56.1c-2.6,1.6-2.6-0.6-3.1-2C455.4,52.5,456,53.8,456,56.1z"/>
		<path class="st7" d="M286.9,64.1c3.1,0,6.2,0,9.3,0C293.1,67.9,290,64.7,286.9,64.1z"/>
		<path class="st7" d="M298.9,64.1c2.7,0.3,5.6-1.1,8.1,0.9C304.1,66.5,301.4,66.3,298.9,64.1z"/>
		<path class="st7" d="M452.1,59.7c0.3,0.3,0.7,0.7,1,1c-0.3,3.7-2.4,5.6-6.1,5.4c0-1.3,0-2.7,0-4C448.5,60.7,451,61.7,452.1,59.7z"
			/>
		<path class="st129" d="M435.9,60c2.3,0.7,4.7-1.7,7,0c0.6,0.6,0.7,1.2-0.1,1.7C440.1,62.9,437.2,64.6,435.9,60z"/>
		<path class="st7" d="M442.8,61.8c0-0.6,0.1-1.2,0.1-1.7c0.1-0.8,0.2-1.6,1-2c0.7,2.6,0.5,5.3,0.1,8
			C442.4,65,443.2,63.2,442.8,61.8z"/>
		<path class="st61" d="M177.1,120c0.3,5.6-4.8,6.5-8,9C170.2,124.6,174.5,123,177.1,120z"/>
		<path class="st130" d="M116.9,124.2c-3.9-4.8-3.6-9.4,0.9-13.5c4-3.7,7.8-3.4,12.7,1c-0.2,0.2-0.4,0.4-0.6,0.6
			c-0.7,0.3-1.3,0.3-2,0.1c-1.7-0.6-3.4-1.2-5.2-1.6c0.3,1,1.3,1.8,1.3,3c-0.1,2.8-1.8,3.3-4.1,2.8c-0.5-0.2-0.7-0.7-1-0.9
			c-0.7-0.4-0.1,0.2-0.1,0.3c0.5,2.8-1.1,5.2-1.4,7.8L116.9,124.2z"/>
		<path class="st131" d="M208.2,140.9c1.4-1.2,3.6-0.4,4.9-2c2.9,6.5,7.7,11.4,14,15.2C221.5,155.8,212.8,149.5,208.2,140.9z"/>
		<path class="st132" d="M119.3,116.1c2.1,0,4-0.3,3.8-3.1c0.4-0.2,0.9-0.2,1.3,0c1,1.5,1.7,3.3,1.3,4.9c-1,3.4,1.6-0.5,1.5,0.8
			c0.9,1.5,2.7,2.3,3.1,4.2c-0.9,1.6-2.2,2.5-4.1,2.2C118.7,125.7,117.1,123.6,119.3,116.1z"/>
		<path class="st133" d="M119.3,116.1c-1.2,5.6,1.6,8.2,6.8,9c-0.3,0.6-0.7,1.2-1,1.8c-3,0.1-5.3-1.7-7.8-3
			c-2.7-3.3,2.5-6.8-0.2-10.2c0,0,1.1-1.2,1.4-1.1C120,113.4,118.9,114.9,119.3,116.1z"/>
		<path class="st134" d="M130.2,122.9c-2.9,0-3.3-1.7-2.7-4c-0.7-2.1-0.7-4.3,0.1-6.4c0.2-0.2,0.3-0.3,0.5-0.5
			c0.6,0.1,1.2,0.2,1.8,0.3C131.7,116.7,131.8,120.8,130.2,122.9z"/>
		<path class="st135" d="M483.9,35.1c0.8,1.8,6.6,0.5,3,4.9c-5.9,2.3-12,0.2-18,0.4c-12.4,0.4-24.8-1-37.2-1.8
			c-6.4-0.4-12.9,0.2-19.3-0.3c-1.2-0.1-1.4-0.5-1.4-1.4c0.9-3.1,3.6-2.1,5.7-2.3c4-0.4,8.1,0.7,12-1.2c2.1-2.4,4.8-3.1,8-3
			c7,0.3,13.9,0,20.9,0.1c1.5,0.3,3.2-0.7,4.5,0.8c-1.1,2.7-3.5,1.7-5.5,2c-2.9,0.3-5.9-0.6-9.6,1.3c5.8,1.5,10.9,2,15.9,1.9
			c4.8-0.1,9.5-1.1,14.4-0.5c1.4,0.2,2.5-0.6,3.6-1.5C482.2,33.7,483.2,33.6,483.9,35.1z"/>
		<path class="st136" d="M430.3,34.9c-3.6,2-7.4,0.7-11.2,1.1c-2.7,0.3-5.6-1-8.1,0.9c-4.2-0.3-8.4-0.5-12.5-1.1
			c-1.3-0.2-3.7,0.2-3.6-2.2c0.1-2.1,2.1-1.5,3.5-1.8c0.6-0.1,1.2-0.4,1.8-0.7c0.7-0.9,1.6-0.6,2.5-0.6c7,0,14,0,20.9,0
			C426.5,31,431.1,28.9,430.3,34.9z"/>
		<path class="st137" d="M379.2,31.9c-0.5,1.5,0.3,2.8,1.2,4c-11.2,0-22.2,0-33.2,0c-1.3,0-2.9,0.2-3-1.7c-0.2-2.3,1.7-2,3.1-2.2
			c4.9-0.4,10,0.5,14.8-1.1c5.3-1.1,10.7-0.3,16-0.4C378.7,30.6,379.1,31.2,379.2,31.9z"/>
		<path class="st138" d="M379.2,31.9c-5.7-1.6-11.5-0.4-17.2-0.9c0-0.3,0-0.6,0.1-0.9c8.9,0,17.9,0,26.8,0
			C385.9,32.1,382.3,30.4,379.2,31.9z"/>
		<path class="st138" d="M402,30.9c-0.6,0.1-1.3,0.2-1.9,0.3c-3.3-0.9-7,1.1-10.2-1.2c4,0.1,8.1,0.1,12.1,0.2
			C402,30.5,402,30.7,402,30.9z"/>
		<path class="st100" d="M209.3,51.2c-0.8,0-1.7-0.3-2.4-0.1c-4.9,0.8-6.5-1.5-5.7-6c8.3,0,16.5,0.1,24.8,0.1c2,0,4-0.3,5.3,1.8
			c4.9,2.4,10.1,0.5,15.1,1.1c2,0.2,4.2-0.6,6.4,2c-9,1.1-17.3,1-25.6,1.2C221.1,51.5,215.2,52.9,209.3,51.2z"/>
		<path class="st25" d="M227,51.2c3-2.2,6.4-0.9,9.5-1c4.7-0.2,9.5-0.1,14.3-1.1c-4.9,0-9.8,0.1-14.8-0.1c-1.8-0.1-4.3,1.1-4.9-2
			c1,0.1,2,0.1,3,0.2c14.2,0.8,28.4,0.1,42.5,0.4c1.8,0,3.6-0.5,5.4,0.5c0,0.3-0.1,0.7-0.1,1c-7.4,1-14.8,0.2-22.3,0.5
			c-2,0.1-4-0.1-5,0c8.5,0.3,17.9-0.6,27.3,0.5c-0.6,1.4-1.9,1.1-3,1.1c-16,0.1-32.1-0.3-48.1,0.8C229.5,52,228.1,52.2,227,51.2z"/>
		<path class="st100" d="M282,48c-14.4,0-28.8,0-43.2,0c-1.6,0-3.3,0.5-4.7-0.8c16,0,32,0,48-0.1C282.2,47.5,282.2,47.8,282,48z"/>
		<path class="st139" d="M283,56c0,0.4,0,0.7,0,1.1c-0.4,0.6-0.3,1.7-1.5,1.6c-21.7-1.3-43.4-0.4-65.2-0.8c-0.8,0-1.7-0.1-2.5,0
			c-2.5,0.4-1.9-1.6-2.2-2.8c-0.7-2.5,1.3-1.8,2.3-1.8c21.9-0.1,43.8-0.2,65.7-0.4C282.3,52.9,282.9,53.9,283,56z"/>
		<path class="st100" d="M281.9,50c-9.3,0-18.6,0-27.8,0c0-0.3,0-0.6,0-1c9.3,0,18.5,0,27.8,0C282,49.4,282,49.7,281.9,50z"/>
		<path class="st140" d="M201.1,54c0.9-3.3,3.5,0.2,4.9-1.2c1.7,0.1,3.2,0.4,4.2,2c-1.5,1.9-3.9,1.8-5.9,2.4c0-0.2,0-0.5-0.1-0.7
			C202.7,56.2,202,54.9,201.1,54z"/>
		<path class="st141" d="M204.2,57.3c0.9-3.3,3.8-1.9,5.9-2.4C209.6,59.1,206.9,58.1,204.2,57.3z"/>
		<path class="st142" d="M201.1,54c1.7,0,2.7,0.9,3,2.5c-0.8,0.8-1.7,1.5-2.9,1.4C201.1,56.7,201.1,55.3,201.1,54z"/>
		<path class="st143" d="M483.9,35.1c-0.7-0.1-1.3-0.9-2-0.1c-2.1,0.3-3.8-0.7-5.2-2.1c0.1-0.9,0.4-1.5,1.4-0.9c0.6,0,1.2,0,1.7,0
			C481.1,33.2,484.8,31.3,483.9,35.1z"/>
		<path class="st42" d="M197.9,78.2c-2.4,0-4,1.4-5.5,3c-2.2,2.4-2.5,0.1-3.4-1.2c2.4-2.6,6.7-3.6,6.4-8.5
			C198.8,73.2,198,75.8,197.9,78.2z"/>
		<path class="st144" d="M430.3,34.9c0.3-5.1-4-3-6.3-3.9c-0.3-0.2-0.4-0.4-0.3-0.6s0.2-0.3,0.3-0.3c7.7-0.1,15.3-0.2,23-0.2
			c3.6,0.1,7.3,0.3,10.9,0.4c0,0.2,0,0.4,0,0.6c-7.3,0.1-14.7,0.2-22,0.2C432.9,31,430.8,31.6,430.3,34.9z"/>
		<path class="st145" d="M424,30.1c0,0.3,0,0.6,0,0.9c-7.3,0-14.6-0.1-21.9-0.1c0-0.2,0-0.4,0-0.7C409.4,30.2,416.7,30.2,424,30.1z"
			/>
		<path class="st146" d="M457.9,30.9c0-0.2,0-0.4,0-0.6c6.8-0.1,13.6,0.1,20.2,1.7c-0.4,0.3-0.8,0.6-1.2,1c-5.1,2.3-10,1.2-14.8-1
			C460.9,30.7,459.3,31.3,457.9,30.9z"/>
		<path class="st147" d="M124.1,113c-0.3,0-0.7,0-1,0c-0.7-0.8-1.4-1.6-2.5-2.8c3-0.2,5.6-0.7,7.5,1.9l0,0
			C127,113.1,125.8,114.3,124.1,113z"/>
		<path class="st148" d="M124.1,113c1.3-0.3,2.6-0.6,4-1c-0.5,2.3,0.6,4.7-0.7,6.9c-1.6,0.1-1.9,1.7-3.3,2.9
			C125,118.6,124.5,115.8,124.1,113z"/>
		<path class="st149" d="M462.1,31.9c4.9,0.3,9.9,0.7,14.8,1c1.9,0.1,3.7,0.5,5,2.1c-0.8,2-2.6,3-4.3,2.6c-7.1-1.5-14,0.9-21,0.3
			c-3.2-0.3-6.2-2.6-9.7-0.9c-0.6,0.3-0.9-1.8-0.9-3c0-1.8,1.3-2.1,2.7-2.1C453.2,32,457.7,31.9,462.1,31.9z"/>
	</g>
</g>
</svg>
