<?xml version="1.0" encoding="utf-8"?>
<!-- Generator: Adobe Illustrator 25.0.0, SVG Export Plug-In . SVG Version: 6.00 Build 0)  -->
<svg version="1.1" xmlns="http://www.w3.org/2000/svg" xmlns:xlink="http://www.w3.org/1999/xlink" x="0px" y="0px"
	 viewBox="0 0 625 128.1" style="enable-background:new 0 0 625 128.1;" xml:space="preserve">
<style type="text/css">
	.st0{display:none;}
	.st1{display:inline;stroke:#FFFFFF;stroke-miterlimit:10;}
	.st2{fill:#1A1B1A;}
	.st3{fill:#212220;}
	.st4{fill:#272A29;}
	.st5{fill:#626A68;}
	.st6{fill:#FEFEFE;}
	.st7{fill:#6F7875;}
	.st8{fill:#7D8784;}
	.st9{fill:#616967;}
	.st10{fill:#3C3E3A;}
	.st11{fill:#7B8482;}
	.st12{fill:#838D8B;}
	.st13{fill:#98A2A0;}
	.st14{fill:#818C8A;}
	.st15{fill:#D5D6D5;}
	.st16{fill:#1F2121;}
	.st17{fill:#252524;}
	.st18{fill:#20211F;}
	.st19{fill:#101111;}
	.st20{fill:#121312;}
	.st21{fill:#242829;}
	.st22{fill:#2A2C2B;}
	.st23{fill:#161716;}
	.st24{fill:#242523;}
	.st25{fill:#535B5B;}
	.st26{fill:#121313;}
	.st27{fill:#0E0F0E;}
	.st28{fill:#1A1A19;}
	.st29{fill:#373C3C;}
	.st30{fill:#778282;}
	.st31{fill:#060606;}
	.st32{fill:#758C91;}
	.st33{fill:#2C3132;}
	.st34{fill:#3D3E3C;}
	.st35{fill:#373A38;}
	.st36{fill:#687272;}
	.st37{fill:#2E302E;}
	.st38{fill:#484D4C;}
	.st39{fill:#1F1F1F;}
	.st40{fill:#252625;}
	.st41{fill:#363736;}
	.st42{fill:#2E302D;}
	.st43{fill:#7F897F;}
	.st44{fill:#151515;}
	.st45{fill:#ACB6B3;}
	.st46{fill:#40413D;}
	.st47{fill:#6F7165;}
	.st48{fill:#E8F1E1;}
	.st49{fill:#65685E;}
	.st50{fill:#474944;}
	.st51{fill:#78827F;}
	.st52{fill:#9FA9A6;}
	.st53{fill:#666960;}
	.st54{fill:#464741;}
	.st55{fill:#41423D;}
	.st56{fill:#292B29;}
	.st57{fill:#474741;}
	.st58{fill:#3C3D39;}
	.st59{fill:#3B3B33;}
	.st60{fill:#070707;}
	.st61{fill:#43443F;}
	.st62{fill:#1F1F1E;}
	.st63{fill:#181817;}
	.st64{fill:#343633;}
	.st65{fill:#0E0E0E;}
	.st66{fill:#424A4B;}
	.st67{fill:#111211;}
	.st68{fill:#444541;}
	.st69{fill:#444641;}
	.st70{fill:#151615;}
	.st71{fill:#111111;}
	.st72{fill:#222626;}
	.st73{fill:#515856;}
	.st74{fill:#010101;}
	.st75{fill:#020202;}
	.st76{fill:#F1F4ED;}
	.st77{fill:#52544D;}
	.st78{fill:#535B5A;}
	.st79{fill:#3E4646;}
	.st80{fill:#636C69;}
	.st81{fill:#343939;}
	.st82{fill:#4C5454;}
	.st83{fill:#494B46;}
	.st84{fill:#111212;}
	.st85{fill:#9CA6A4;}
	.st86{fill:#8B9899;}
	.st87{fill:#1F201F;}
	.st88{fill:#414848;}
	.st89{fill:#33393A;}
	.st90{fill:#1B1D1D;}
	.st91{fill:#101110;}
	.st92{fill:#232422;}
	.st93{fill:#717A74;}
	.st94{fill:#2D3233;}
	.st95{fill:#485050;}
	.st96{fill:#333532;}
	.st97{fill:#343A3B;}
</style>
<g id="Camada_2" class="st0">
	<rect x="-302" y="-94" class="st1" width="1050" height="386"/>
</g>
<g id="Camada_1">
	<g>
		<path class="st2" d="M475,1.9c0.9,0.5,2.4-0.3,2.9,1.1c-0.2,2.8-2.4,2.5-4.1,2.3c-14.7-1.6-29.5-0.2-44.3-0.6
			c-8.8-0.2-17.6,0-26.4-0.1c-0.3,0-0.5-0.3-0.5-0.7c0,0.1,0,0.2,0,0.6c8.6,0.4,17.3,0.3,26,0.3c13.3,0,26.6-0.1,39.8-0.1
			c1.6,0,4.7-1.1,3.3,2.8c-2.1,1.5-4.5,1.1-6.8,1.1c-41.3,0-82.5,0-123.8,0c-5.2-0.2-10.5,1.2-15.3-2.1c16.3-2.3,32.6-1.7,48.9-1.9
			c-4.4,0.1-8.9,0.1-13.3,0c-10.1-0.3-20.3,0.5-30.4,0.5c-1.8,0-3.7,0.3-5.4-0.5c-1.8-2.3,0.4-2.6,1.7-3.3
			c7.6-0.4,15.2-0.1,22.8-0.2c20.7,0,41.3,0,61.9,0c5.6-0.5,11.3,1.1,16.8-1c1.3,0,2.7,0,4,0c1.8,1.3,3.8,1,5.7,1
			c8.4,0,16.8,0,25.3,0C467.6,1.3,471.4,0.5,475,1.9z"/>
		<path class="st3" d="M4.1,100.7c-1.2-0.2-2.3-0.7-3-1.7c-1-3.6-0.2-7.4-0.5-11C0.4,75.8,1.6,63.6,1,51.3c-0.2-5.4,0-10.8-0.9-16.2
			c0-2,0-4,0-6c4.4-4.3,7.2-4.4,10.9-0.4c1,6.7,0.4,13.5,0.5,20.2C11.5,60,11.8,71,11.3,82c-0.4,2.1-1.8,2.6-3.7,2.3
			C4.5,83.7,3.9,85.6,4,88c0.2,3.3-0.6,6.6,0.6,9.8C5,98.9,4.9,99.9,4.1,100.7z"/>
		<path class="st4" d="M327,2.2c-0.6,0.6-1.2,1.2-1.8,1.8c-0.2,0.2-0.4,0.5-0.7,0.7c-5.2,1.8-10.5,0.9-15.8,0.9
			c-16.4,0.2-32.9,0.1-49.3,0.1c-3,0-6-0.2-8.5,2.1c-7.1,1.1-14.3,2.3-21.3-0.8c-0.7-3.6,0.8-5.8,4.3-6.9c14.3,0,28.7,0,43,0
			c6,1.7,12.1,0.5,18.1,0.6c3.3-0.1,6.7,1,9.9-0.6c1.3,0,2.7,0,4,0c3.6,1.3,7.3,1,11.1,0.8C322.4,0.8,324.9,0.5,327,2.2z"/>
		<path class="st5" d="M412.9,2c-21,0-42,0.1-63,0.1c-0.6-0.7-0.6-1.3,0-2c20.7,0,41.3,0,62,0C412.4,0.6,413.4,0.9,412.9,2z"/>
		<path class="st6" d="M0.1,35c2.3,4.7,1.3,9.9,1.6,14.8c0.8,12.7,0,25.4-0.7,38.1c-0.3,0.5-0.6,0.5-0.9,0C0.1,70.3,0.1,52.7,0.1,35
			z"/>
		<path class="st7" d="M349.9,0.1c0,0.7,0,1.3,0,2c-7.7,0-15.3,0.1-23,0.1c-5.9-1.5-12.4,1.8-18-2.1C322.6,0.1,336.3,0.1,349.9,0.1z
			"/>
		<path class="st8" d="M463.9,1.9c-9.2,0.1-18.4,0.2-27.6,0.3c-1.6,0-2.9-0.4-3.4-2.1c10.3,0,20.7,0,31,0
			C464.5,0.7,464.5,1.3,463.9,1.9z"/>
		<path class="st9" d="M620.8,10.1c1.5-0.5,2.7,0.4,4,0.9c0,3.3,0,6.7,0,10c-0.4-0.1-0.8-0.2-1.1-0.3c-1.5-1.5-1.1-4.3-3.7-5.1
			c-6.6-0.5-13.2,0-19.8-0.1c-2.1-0.1-4.3,0.2-6.2-1.2c0-3.1,2.5-2.5,4.2-2.6c5.6-0.3,11.2,0.1,16.8-0.2c0.7-0.1,1.4-0.4,2.2-0.6
			C618.3,10.4,619.8,11.5,620.8,10.1z"/>
		<path class="st10" d="M10.1,28c-3.6-2.3-6.7-0.2-10,1c0-1,0-2,0-3c2-1.2,0.6-4.9,3.9-5.1c0.4-0.3,0.9-0.3,1.3-0.1
			c1.9,1,4.1,1.6,5.4,3.6C11.2,25.8,11.2,27,10.1,28z"/>
		<path class="st11" d="M412.9,2c-0.3-0.6-0.7-1.2-1-1.9c5.7,0,11.3,0,17,0c-0.8,2.2-2.7,2.1-4.6,2C420.5,2.1,416.7,2,412.9,2z"/>
		<path class="st12" d="M294.9,0.6c-4.2,2.2-8.7,0.9-13,0.7c-1.5-0.1-4.4,2.8-4.9-1.3c6,0,12,0,18,0C294.9,0.3,294.9,0.4,294.9,0.6z
			"/>
		<path class="st13" d="M463.9,1.9c0-0.6,0-1.2,0-1.8c3.3,0,6.7,0,10,0c0.4,0.6,0.7,1.2,1.1,1.8C471.3,1.9,467.6,1.9,463.9,1.9z"/>
		<path class="st14" d="M294.9,0.6c0.1-0.2,0.1-0.3,0.1-0.5c3.3,0,6.7,0,10,0C301.7,3,298.3,2.1,294.9,0.6z"/>
		<path class="st15" d="M0.1,88c0.3,0,0.6,0,0.9,0c0,3.7,0.1,7.3,0.1,11c-0.3,0-0.7,0-1,0C0.1,95.3,0.1,91.6,0.1,88z"/>
		<path class="st16" d="M321.9,108.8c-9.4,6.5-19.6,11.6-29.4,17.5c-3.1,1.9-2.8-1.1-3.4-2.4c-8.3-18.5-13.2-38-16-58.1
			c-0.4-2.6-1.7-5.1-1.1-7.8c0.3-0.4,0.5-0.9,0.5-1.4c0.1-7.9,0.5-8.2,8.5-7.8c7.1,0.4,14.2-0.3,21.3-0.3c4.9,0,9.1,1.4,12.6,4.8
			c-3.2,3.2-2.5,7-1.7,10.8c0.3,8.1,4.2,15.6,3.5,23.9c-0.4,4.4,2.3,8.6,3.7,12.8C321.6,103.4,323.6,105.8,321.9,108.8z"/>
		<path class="st17" d="M265.7,46.1c-7-0.5-7-0.5-8,6.1c-0.3,1.9-0.6,3.9-0.9,5.8c-1.5,0-1.7-1.2-2-2.2c-0.5-8.3-0.5-8.3-8.9-8.3
			c-4.3,0-8.5-0.2-12.7,1c-3.4-1.6-7.1-0.8-10.7-1c-2-0.1-3.8,0.2-5.5,1.3c-2.5,2.2-5,2.8-8.4,2c-4.5-1.1-9.2-0.2-13.8-0.1
			c-3.2,0-4.5-1-2.5-4.1c6.9-0.9,13.8,0.4,19.8-0.3c-4.4,0-9.6-0.2-14.9-0.1c-5.4,0.1-8.9-3.1-12.6-6.1c-1.8-1.5-2.1-3.7-1.2-5.9
			c0.8-2.2,2.8-2,4.6-2c7.4,0,14.8,0,22.2-0.1c-7.1,0.3-14.2,0.1-21.3,0.1c-6.2,0-7.7-2.8-4.5-8.5c9.3-1,18.6-1.1,27.8-0.6
			c4,2.4,8.1,3.3,12.2,0.2c5.6-0.5,11.3-0.7,16.9,0.1c3.8,3.4,7.7,1.4,11.5-0.1c4.6-0.6,9.1-1,13.6,0.2c2,1.6,0.1,3-0.2,4.4
			c-0.9,2.2-0.6,4.6-0.8,6.9c-0.2,3.5-1.7,5.4-5.6,5.5c-4.5,0.1-8.9-0.1-13.4-0.1c-3.2,0.1-5.2-1.2-5.5-4.4
			c-0.4-3.1-2.1-4.2-5.1-4.2c-4.2,0-8.3,0-12.5,0c-3,0-4.1,1.5-3.9,4.4c0.2,2.6,0.1,4.5,3.9,4.8c5.3,0.4,10.4,1.7,15.4-1.2
			c1.8-1.1,3.8,0.5,5.8,0.6c6.9,0.4,13.8-0.2,20.7,0.9c1.9,0.3,3.5-0.8,5.4-0.8c15.5-0.1,30.9,0,46.3,0c-14.5,0-29,0-43.5,0
			c-2.1,0-4.4,0.4-6-1.7c-1.6-3.7-1.2-7.5-0.5-11.3c4.1-4.2,9.5-2.4,14.4-2.8c1.6-0.1,3.2,0.4,4.9,0.2c5.8-0.7,7.7,1.9,5.5,7.6
			c2-3,2.4-7.7,7.4-7.5c3.8,0.2,7.6-0.6,11.4,0c2.6,0.4,5.2,0.4,7.7,0.5c-3-0.3-7,1.2-7.6-3.9c-0.1-0.8-0.1-1.7-0.2-2.5
			c-0.2-9.9,3.7-12.7,13.5-9.8c1.9,4.8,1.3,9.9,1.4,14.8c0.1,4.2-0.2,8.4-0.6,12.7c-0.1,3,3,6.1-0.2,9c-2,0-3.9,0.1-5.5,1.5
			c-8.4,1.3-16.9,0.4-25.3,0.6c-5,0.1-9.9,0.1-14.9,0c-2.8,0-5.2,0.6-7.1,2.7c-0.3-1.4-0.6-2.7-0.9-4.2c-1.8,0.5-0.9,2.3-1.9,3.1
			C267.8,48.4,267.3,46.7,265.7,46.1z"/>
		<path class="st18" d="M324,24.1c0.9-3.3,0.7-6.9-0.4-9.9c-0.9-2.4,0.5-2.9,1.4-4.1c-0.8-0.8-1.6-1.7-1.5-2.9
			c0.1-1.2,0.6-2.2,1.4-3l0.3-0.2c17.2,0,34.4,0,51.6,0c-16.5,1.2-33.1,0.8-49.7,3.2c4.6,0,9.2,0,13.9,0c5.8,2.3,11.8,1.5,17.7,1.3
			c11.8-0.4,23.6,0,35.3-0.2c11.6-0.2,23.2,0.4,34.8,0.3c11.8-0.1,23.5-0.6,35.3-0.2c2.5,0.1,5.6,1.8,7.7-1.4
			c-0.4-2.5-2.3-1.9-3.9-1.9c-13.2,0.2-26.4,0.3-39.6,0.3c-9,0-18.2,0.2-27.3-1.4c1.7,0,3.3,0,5,0c22.1,0,44.2,0,66.3,0
			c1.9,0,4,0.8,5.6-1.1c0.3,0.3,1,0.7,0.9,1c-0.6,4.6,1.4,6.9,6.1,7c0.9,0.9,3.1,0.9,2.3,3.1c-0.9,1.1-2.3,1.1-3.6,1.3
			c-3.8,0.8-3.3,3.8-3.3,6.6c-0.1,3.1,1.7,3.9,4.4,3.7c1.2,0.3,2.3,0.8,2.7,2.2c0,0.5,0,1-0.2,1.4c-1.3,1.8-3.8,1.4-5.5,2.7
			c0.5,1.7,3.4,0.8,3.2,3.1c-3.1,0.2-6.4-0.6-5.9,4.9c0.3,2.7-3.3,1-5.1,1.2c-2.1-1.1-5-1.5-4.6-4.9c0.9-2.8,4-1.5,5.6-2.9
			c-0.7-1.5-2.8-0.9-3.3-2.6c0.3-0.9,0-1.7-0.6-2.4c-0.7-1.9-0.4-3.9-0.5-5.9c-0.1-1.4,0.2-3.1-1.7-3.6c-7.1-0.3-14.3,0-21.4-0.2
			c-2.1,0-4.3,0.3-6.2-1.1c-0.3-2.9,2.1-2.2,3.6-2.5c2.1-0.4,4.5,0.5,6.7-1.3c-6.8-2.5-9.6-1.6-11.1,3.5c-7.4,2.4-14.8,1.9-22.2,0.4
			c-0.7-2.7,1.5-2.2,2.8-2.5c2.4-0.5,4.9,0.5,7.2-1c-4.5-2.9-9.6-2.1-10.9,1.7c-0.5,1.3,0.6,2.3,0.8,3.5c0,2.5,0.9,5.1-1.4,7.1
			c-0.9,0-1-0.7-1.3-1.3c-0.8,5-4.8,3.4-7.6,3.4c-18.4,0.2-36.9,0.1-55.3,0.1c-6.1,0-12.3,0-18.4,0c-3.1,0-5.6-0.7-6.9-3.7
			C326.2,24.2,325,24.6,324,24.1z"/>
		<path class="st19" d="M469.9,36c-0.2,2.9,3.2,2.8,4,4.9c-0.6,0.2-1.7,0.5-1.7,0.6c0.2,6.4-4.3,5.4-8.2,5.4c-44.5,0-88.9,0-133.4,0
			c-1.8,0-4,1-5.6-1c-0.6-0.4-0.6-0.7,0-1c1.5-3.2-2.6-5.8-1-9c13,3,26.1,1.2,39.2,1.4c13.6,0.2,27.3,0.1,40.9,0.2
			c1.3,0,2.7,0.1,3.9,0.7c3.7,1.6,5.7,0.4,6.2-3.5c1.5-2.1,3.2-0.4,4.8-0.3c8,0.2,7.9,1.7,11.3-5c2.9-1.1,5.9-1,8.9-0.2
			c1.9,1.8,1.1,5.6,5.6,5.7c4.6,0,7.5-1,8.7-5.6c2.9-1,5.9-0.9,8.8-0.1C463.5,33,466.1,35.2,469.9,36z"/>
		<path class="st20" d="M484.5,26c-3.1,2.1-4.7,1.3-5.4-2.5c-1.2-7.2,0.6-9.5,7.7-9.5c2.4-2,5.3-1.2,8.1-1.5c2.1-0.2,4.4,0.5,6-1.5
			l0,0c3.1,1.1,6,1.5,9.4-0.1c2.8-1.3,6.5-0.7,9.8-0.1c0.3,0,0.5,0,0.7,0.3c0.9,0.8,1.8,1.4,3.1,1.4c12-0.2,24.1,0.5,36.1-0.4
			c1.3-0.7,2.1-0.1,2.9,0.9c1.2,1.5,2.6,1.5,3.5-0.2c1.2-2,2.5-2.1,4.4-1.1c3,1.6,6.5,0.5,9.6,1.4c0.5,0.2,1,0.4,1.4,0.7
			c5.3,2.6,11.1,1.3,16.6,1.6c7.8,0.5,15.6-0.2,23.3-0.6c2.4,1.4,1.7,3.7,1.8,5.8c-8,1-16,0.2-23.9,0.5c-10.6,0.3-21.5,2.3-31.8,0.5
			c-15.8-2.7-31.4-0.8-47-1.7c-1.5,7.3-1.5,7.3-9.8,7.3c-1.5,0-3-0.1-4.4,0c-3.8,0.4-5.7-1.8-7-4.9c-3.5-2.2-7.4-1-11.1-0.9
			c-2.1,0-2.4,2-3,3.5C485.4,25.6,485,25.9,484.5,26z"/>
		<path class="st21" d="M98.1,21c0.3,0.1,0.6,0.2,0.9,0.2c1.8,1.9,1.4,4.3,1.5,6.6c0,1.6,0.1,3.2,0,4.8c0,3.6,2.8,2.8,4.9,3.1
			c2.5,0.4,4.9-2.2,7.4,0c0.9,2.9,1.2,5.7-0.7,8.4c-0.8,9.2-0.8,9.2-10.3,8.7c-0.9-0.1-2,0.3-2.7-0.7c-0.7-0.6-1.5-1-1.7-2
			c-0.2-1.5-1.5-2-2.5-2.9c-0.2-0.4-0.3-0.8-0.4-1.2c-7-1.4-13.9-0.5-20.9-0.3c-14.5-0.6-29-0.1-43.6-0.3c-2.3,0-4.6,0.3-6.8-0.9
			c-2.1-3.9-2.5-8.1-1.5-12.4c15.3,2.8,30.8,0.4,46.2,2.1c8.4,0.9,17,0.3,25.4,0.3c0.9,0,1.6-0.3,2-1.2c0.2-0.8,0.2-1.6,0.2-2.4
			c0.1-1.1,0-2.1,0-3.2C95.8,25.3,95.6,22.7,98.1,21z"/>
		<path class="st22" d="M321.9,108.8c-1.6-4.7-3.4-9.3-4.9-14c-1.1-3.7-3-7.4-1.2-11.5c0.3-0.7,0.2-1.7-0.1-2.4
			c-2.6-5.3-2.5-11.2-3.7-16.8c2.3-0.9,4.7-1.5,7.1-0.3c2.5,3,2.4,7.2,4.8,10.3c2.4,9,4.9,17.9,8.6,26.5c0.8,1.8,0.3,2.7-1.3,3.6
			C328,105.6,325.4,108,321.9,108.8z"/>
		<path class="st23" d="M484.9,34.9c-0.7-0.3-1.5-0.8-2.2-0.8c-1.7-0.1-3.1-0.5-3.1-2.4c0-1.8,1.8-1.5,3-1.7c1.4-0.2,2.9-0.6,4.3-1
			c3.6-2.7,8-0.4,11.8-1.9c7.3,0.2,14.7-0.9,21.9,0.3c3.1,0.5,5.6-0.6,8.4-0.5l0,0c1.9,1.3,4.1,0.4,6.2,0.6c2.7,0.2,3.1,2,3.2,4
			c0.1,2.3-1.7,1.9-3.1,2c-1.8,0.1-3.6-0.4-5.3,0.4c-4.4,2-9.3,1.9-13.9,1.9C505.6,36,495.2,35.3,484.9,34.9z"/>
		<path class="st24" d="M29.2,84c1.4,1.4,2.7,2.9,1.1,5c-2.3,1.7-4.8,1.7-6.8,0c-3.1-2.6-6.4-4.4-10.5-4.4c-0.8,0-1.4-0.8-1.6-1.7
			C11.2,64.5,11,46,11.5,27.6c3.3-3.2,6.8-2.3,10.2-0.3c0.1,5.4,0.4,10.8,0.5,16.2c0.2,1.7,0.5,3.4-0.3,5c-6.2,1.7-7.5,5.8-7,11.8
			c0.3,3.6,0.7,7.3,0.5,10.9C15.2,75,17,76.7,20.6,77c0.7,0.2,1.3,0.7,1.8,1.2c0.4,0.5,0.7,1.1,1,1.8c0.7,1.6,2.3,1.6,3.7,1.8
			C28.1,82.3,29.5,82.3,29.2,84z"/>
		<path class="st25" d="M112.1,44.1c0-3,0-6,0-9c-0.6-0.9-0.6-1.7,0.4-2.3c13.4-0.2,26.9-0.6,40.3,0.3c0.6,0.2,1.1,0.5,1.6,0.9
			c0.8,1.4,0.8,2.8,0,4.2c-4.4,2.2-9.2,0.8-13.6,0.5c-7.6-0.5-15.1,1.4-20.4,0.2c9.3-0.1,20.9-0.4,32.4,0.1c2.7-1.2,5.4-2.3,8.5-2.1
			c0.8,1.1,0.8,2.3,0.2,3.5c-0.2,0.2-0.4,0.4-0.5,0.5c-3.7,0-7.7-1-10.7,2.5c-0.9,1.1-2.5,0.6-3.8,0.6
			C135,44.1,123.6,44.1,112.1,44.1z"/>
		<path class="st26" d="M184.1,24c-0.1,7.1-0.1,7.1,6.8,7.1c5,0,10,0,15,0c1.5,0,3,0.3,4.3-0.7c0.6-0.4,0.7-2.4,2-0.8
			c0.7,0.8,1.8,1.6,1.1,3c-0.6,1.3-1.5,1.5-2.9,1.2c-7.4-1.5-14.9-0.3-22.3-0.6c-1.5-0.1-3.5-0.6-3.9,1.9c-0.3,1.9,0.1,3.4,1.9,4.7
			c5.1,3.8,10.3,6.7,17.2,5.5c3.8-0.7,7.9,0.3,11.8,0.5c0,0.4,0,0.9-0.1,1.3c-7.6,0-15.3,0-22.9,0c-0.6,0.5-1.2,0.9-2,0.9
			c-1.4,0.1-2.2-0.9-3.1-1.8c-0.3,0-0.6-0.2-0.9-0.4c-3.1-0.7-6.2-0.1-9.3-0.3c-1.9-0.1-4.5,0.7-4.9-2c-0.4-2.8,2.4-2.5,4.2-2.9
			s3.6-0.6,4.6-2.3c1.6-3.8-1.3-3.5-3.5-4c-1.8-0.4-5.2,1.6-5.3-1.6s3.4-2.7,5.8-3c0.5-0.1,1,0,1.9-0.3c-0.6-1.5-1.9-3.1-0.2-4.6
			c1.3-1.1,2.8-1.8,4.4-2.1c0.3,0.2,0.4,0.5,0.4,0.8C184.2,23.8,184.2,24,184.1,24z"/>
		<path class="st27" d="M271.8,50.3c0.1-2.8,0.8-4.4,4.3-4.4c14.5,0.2,29.1,0.2,43.6,0.2c1.5,2.4,1.1,5.2,0.6,7.5
			c-1,3.9-3.3,2.2-5.3,0.4c-7.9-5.7-16.8-3.9-25.6-3.7c-3.7,0.1-7.4-0.1-11.1-0.3c-4.1-0.3-6.1,1.3-4.9,5.5c0.4,1.4,0.5,2.3-1.2,2.5
			C272,55.4,271.9,52.9,271.8,50.3z"/>
		<path class="st28" d="M12.1,84c4.4-1,8.2-0.4,11.2,3.6c1.7,2.3,4.6,1.1,6.9,1.4c-0.3,6-6.3,12-12.2,12c-2,0-3.9-0.1-5.9-0.2
			C9.9,95.2,9.8,89.6,12.1,84z"/>
		<path class="st29" d="M200.3,88.1c0,4.2-1.6,7.2-4.9,10.4c-3.2,3.1-4.6,8.3-6.5,12.7c-1.1,2.6-2.4,3-4.9,1.8
			c-8.1-3.7-15.6-8.2-23-13.2c-1.2-2-0.2-3.1,1.4-4.1c2.6,1.2,3.7,4.1,6.3,5.3c0.4,0.2,0.8,0.5,1.1,0.8c4.4,2.3,8.4,6.1,14,5.2
			c1.2-1,1.9-2.4,2.9-3.6c3.2-3.8,5.3-8.2,7.5-12.6c0.9-1.9,1.5-4,3.7-5C199.6,85.7,199.9,87,200.3,88.1z"/>
		<path class="st30" d="M98.1,50c0.3,0.7,0.6,1.4,1,2c-7.3,0-14.6-0.1-21.9,0C70.7,52.1,65,54,60,58.6c-4.6,4.2-9.8,7.9-14.7,11.8
			c-1.3-2,0.6-3,1.5-4.1c1-1.3,2.4-2.3,2.9-4c1.2-2.5,4-3.2,5.4-5.1c-1.1-0.1-2.8,3.2-4.2-0.1c1.6-3.5,4.5-5.4,8-6.6
			c1.5,0,2.9-0.4,4.4-0.2c1.8,0.6,3.6,0.2,5.4-0.3c8.5-2.1,17.2-1.4,25.8-1.4C95.8,48.7,97.1,49,98.1,50z"/>
		<path class="st31" d="M12.1,84c0,5.6,0,11.3,0,16.9c-0.3,0-0.7,0-1,0C7.5,97.7,9,93.4,8.7,89.5c0.1-1.4,0-2.8,0.5-4.2
			c0.2-0.5,0.5-1,0.9-1.4c0-18.6,0-37.3,0-55.9c0-1.3,0-2.6,0.1-4c-0.8-1-0.9-2.1-0.1-3.2c0.9-0.4,1.7-0.4,2.5,0.3
			c1.2,2,1.1,4-0.3,5.9C12.2,46,12.1,65,12.1,84z"/>
		<path class="st32" d="M163,95.9c-1,1.1-1.7,2.4-1.8,3.9c-2.4-1-1.8-2.6-0.9-4.4c4.5-9.2,9.4-18.2,17.1-25.3
			c4-3.7,7.5-7.9,9.2-13.3c1.2-3.6,1.8-7,0.3-10.6c1,0.3,2.1,0.6,3.1,0.8c1.4,1.9,1.3,4,1,6.2c-2.4,8.8-6.8,16.4-13.6,22.7
			c-4.7,4.3-7.4,10.2-10.7,15.5C165.7,93,164.9,95,163,95.9z"/>
		<path class="st23" d="M10.1,88.9c0.2,4-0.4,8.1,1,11.9c-2.3,0.2-4.7,0.6-7-0.2C2.8,96.9,2.8,93,2.7,89.2c-0.1-6.7,0.8-7.5,7.3-5.3
			c0,0.3,0,0.7,0,1C8.8,86.3,8.8,87.6,10.1,88.9z"/>
		<path class="st33" d="M200.3,88.1c-0.7-0.7-1.5-1.4-2.2-2.1c2.2-7.9,5.5-15.2,12.4-20c1.7-1.2,3.1-2.4,4-4.2
			c0.7-0.7,1.5-1.3,2.6-0.9c1.2,3.4,5.4,2.1,7.2,4.6c0.1,0.5,0,0.9-0.3,1.3c-8.2-1.6-15.7,3.1-16.9,11.4
			C206.5,83,201.6,84.2,200.3,88.1z"/>
		<path class="st34" d="M528.9,27c-2.4,2.9-5.1,3.3-8.5,1.5c-1.6-0.8-3.9-0.4-5.9-0.4c-4.9-0.1-9.8,0.8-14.7-0.1
			c-4.3,0.8-8.6,0.7-12.9,0c-0.8-0.7-1.6-1.4-2.4-2.1c0.1-0.2,0.3-0.2,0.5,0c2.3-1.9,5-1.5,7.6-1.3c3.9,0.3,6.7-0.8,8.2-4.6
			c0.6,7.1,5.8,6.2,10.6,5.9c1,0,2-0.1,3,0c3.4,0.3,6-0.1,5.5-4.5c-0.1-0.4,0.7-0.9,1.1-1.4c-1.5,4.6-0.3,6.9,4.9,6.1
			C526.8,26.1,528.2,25.6,528.9,27z"/>
		<path class="st35" d="M315,54c4.3,2,5.5,0.2,4.9-4c-0.2-1.3-0.1-2.6-0.2-3.9c1.5-1.7,3.5-1,5.3-1.1c0,0.3,0,0.7,0,1
			c-3.5-0.8-4.6,0.6-4.2,4.1c0.4,2.6,0.2,5.2,0.3,7.8c-2.8,1.3-0.8,4.2-2.2,6c-2.3-0.6-4.6,1.7-7,0c0.1-1.7-0.3-3.2-0.8-4.8
			C310.5,56.2,311.1,53.8,315,54z"/>
		<path class="st36" d="M50.1,63c0.3,3.7-4.6,4.1-4.8,7.4c-5.4,4.5-10.7,9.1-16.1,13.6c-0.7-1.3-2-0.9-3.1-1.2c-0.3-1.1,0.2-2,1-2.6
			c6.9-5.9,13.8-11.8,21.2-17.1C48.7,62.8,49.4,62.7,50.1,63z"/>
		<path class="st37" d="M182.1,38.1c0,3.9-2.9,3.6-5.6,3.9c-1.4,0.2-4-1.1-3.9,1.4c0.1,1.9,2.6,1.3,4.2,1.5c3.1,0.3,6.3-0.8,9.2,0.9
			c-3.8,0-7.6,0.1-11.3,0.1c-2,0-4.5,0.9-4.4-2.8c0-1.6-1.7-1.1-2.7-1.3c-2.2-0.4-4.6,0.9-6.6-0.8c0.2,0.1,0.4,0.1,0.5-0.1
			c2-1.9,3.7-4.6,7.2-2.2c0.9,0.6,1.8-1.1,2.8-1.5C175.1,37.2,178.8,34.5,182.1,38.1z"/>
		<path class="st38" d="M318.9,64c-1-2.6-2.4-5.4,2.2-6c0.9,5.3,1.8,10.7,2.7,16C320.8,71.4,319.6,67.8,318.9,64z"/>
		<path class="st39" d="M265.7,46.1c2.5-0.4,3.4,0.9,3.3,3.1c-0.3,4.5-1,9-2.8,13.3C264,57.1,267.5,51.5,265.7,46.1z"/>
		<path class="st34" d="M529.9,33.9c1.2-1.3,2.8-0.7,4.2-0.9c1.4-0.2,3.7,0.8,3.5-2c-0.2-2.2-1.8-2.6-3.8-2.9
			c-1.6-0.3-4,2.1-4.8-1.2c1.8,0.2,3.6,0.6,5.3,0.5c3-0.2,4.5,0.6,4.5,3.9c0,3.8-2.7,2.4-4.5,2.6C532.8,34.2,531.3,34,529.9,33.9z"
			/>
		<path class="st40" d="M224,66.8c0-0.4,0-0.7,0.1-1.1c4.4-2.2,9.1-1,13.7-1.2c3.1-0.1,6.3-0.2,9.5,0.2c1.2,0.3,2.6,0.5,2.7,2.1
			C241.3,67,232.7,67.5,224,66.8z"/>
		<path class="st41" d="M249.9,66.8c-0.7-0.3-1.5-0.6-2.2-1c4.2-2.2,5.7-6.5,8.1-10.1c0.3,0.7,0.7,1.5,1,2.2
			C256.8,62.7,255,66,249.9,66.8z"/>
		<path class="st42" d="M229.7,7c7.1,0,14.1,0.1,21.2,0.1c0.4,0.3,0.7,0.7,0.9,1.1c0.9,5.3,0.9,5.3,8.6,6.1c1.4,1,4.8-0.5,4.2,3.2
			c-2.7,1.6-5.9,0.7-8.7,1.8c-18.6,0.9-37.2,0.3-55.9,0.3c-1.7,0-3.4-0.2-4.5-1.7c2.7-2,6-2.1,9-2.1C214.1,15.8,221.8,11.1,229.7,7z
			"/>
		<path class="st43" d="M12,21.1c-0.6,0.1-1.2,0.1-1.7,0.2c-1.7,1.1-3.4,0.6-5.1,0c-0.4-0.1-0.7-0.2-1.1-0.4
			c7-1.9,14.1-0.7,21.2-0.8c23-0.2,46.1,0,69.1,0c1.3,0,2.7-0.5,3.7,0.7c-0.4,2.3-0.7,4.7-1.1,7c-5.7,1.4-11.4,0.3-17.1,0
			c-18.6-2.5-37.1-6.3-56-5.5c-0.6,0-1.1,0-1.7,0c-0.6,0-1.1,0-1.7,0C17.6,22.4,14.6,23,12,21.1z"/>
		<path class="st44" d="M195.7,17.9c20.4,0,40.9,0.1,61.3,0.1c1-0.4,1.2,0.2,1.3,1c-1.2,2.8-4.6,3-6.3,5.2c-3.6,2.8-8.8,2.7-10-0.2
			c-6.5-1.9-13.1-0.7-19.6-0.8c-9.6-0.2-19.1,0.1-28.7-0.6c-0.2-0.2-0.5-0.4-0.7-0.6C193.4,20.4,193.5,18.5,195.7,17.9z"/>
		<path class="st45" d="M154,33.6c-12.8,0.1-25.7,0.2-38.5,0.2c-1.1,0-2.2-0.6-3.2-1c-0.4-0.2-0.6-0.5-0.8-0.9c-0.3-1-0.3-2-0.1-3.1
			c0.1-0.4,0.3-0.7,0.6-1.1c0.4-0.2,0.8-0.1,1,0.3c1.5,1.6,3.5,0.9,5.2,0.9c10.1,0.1,20.3,0.1,30.4,0.1c1.8,0,3.7-0.2,5.4,0.8
			C155.1,31.2,155.1,32.4,154,33.6z"/>
		<path class="st46" d="M182.1,38.1c-3.7-1.4-7.4,0.6-11.1,0c-1.4-0.9-1.2-3.3-3.7-3.5c-5.3-0.6-5.3-0.8-2.8-5.8
			c1.3-1.6,0.9-4,2.5-5.5c1-0.1,1.9-0.2,2.9-0.3c3,2.1,7.1-0.3,10,2.2c-0.8,1.5-1.2,2.8,1.2,3.1c0.9,0.1,1.6,0.5,1.6,1.5
			c-0.1,1.3-1.2,1.3-2.2,1.5c-2.7,0.4-5.9-1.1-8.9,1.9c2.9,0,5-0.1,7.2,0C182.3,33.2,183.9,34.6,182.1,38.1z"/>
		<path class="st47" d="M99.1,28c-0.1-2.3-0.1-4.5-0.2-6.8c3,0,6,0,8.9-0.1s4.3,1.1,4.3,4c0.5,1,0.5,2,0,3l-0.4-0.1
			C107.6,29.6,103.4,30.5,99.1,28z"/>
		<path class="st48" d="M112.2,28.1c0-1,0-2,0-3c13.4,0,26.8,0,41.5,0c-2.6,2.5-4.3,2-5.8,2c-10,0.1-19.9,0-29.9,0.1
			c-1.7,0-3.7-0.6-5.1,1.1C112.7,28.2,112.4,28.1,112.2,28.1z"/>
		<path class="st49" d="M180,25.1c-2.1,0-4.2-0.3-6.2,0.1c-2.3,0.5-3.2-0.5-3.8-2.3c0.7-1.1-0.5-2.8,1.1-3.7c3.4,2.8,8,0.4,11.5,2.8
			c3.5,0,6.9,0.1,10.4,0.1l0.2-0.2l0.3,0.1c-2.8,3.1-6.3,1.2-9.5,1.2C182.7,24.1,181.8,25.5,180,25.1z"/>
		<path class="st50" d="M182.5,22c-2.8,0-5.7,0-8.5,0.1c-2.1,0.1-3.1-0.8-3-2.9C175.1,19.2,179.7,16.9,182.5,22z"/>
		<path class="st51" d="M154,33.6c0-1.2,0-2.5-0.1-3.7c0-0.3,0.1-0.6,0.2-0.8c0.5-0.6,1.1-0.7,1.8-0.7c1.8,0.4,3.7-0.3,5.4,0.7
			c0.4,0.6,0.6,1.2,0.7,2c0,0.7-0.1,1.4-0.4,2c-2.2,2.4-4.9,1.4-7.5,1.2C154,34.1,154,33.9,154,33.6z"/>
		<path class="st52" d="M160.8,29c-1.6,0.5-3.2,1.4-4.8,0.1c-0.8-3.4,1.2-4.5,4-5c0.3-0.2,0.5-0.2,0.8-0.2
			C162.5,25.6,162.5,27.3,160.8,29z"/>
		<path class="st53" d="M167.1,23.2c-0.7,2,1.7,5-2.1,5.9c-2.1,0.3-2.5-1.1-2.6-2.7c0.1-1.3,0.7-2.3,1.6-3.2
			C165,23.1,166,23.2,167.1,23.2z"/>
		<path class="st45" d="M160,24.1c-2.3,0.9-3,3.1-4,5c-0.6,0-1.3,0-1.9,0.1C152.9,23.7,156.3,23.7,160,24.1z"/>
		<path class="st46" d="M164,23.1c-0.1,1.1,0.2,2.2-1,2.9c-1.3,1.1,0,2,0.2,2.9c0.4,1.7,0.3,3.1-2.1,2.1c-0.1-0.7-0.2-1.4-0.3-2.2
			c0-1.7,0-3.3,0-5C161.6,22.7,162.8,22.9,164,23.1z"/>
		<path class="st54" d="M560.9,12.1c-0.2,2.2-1.9,2-3.3,2c-11.1,0-22.2,0-33.3,0c-2.2,0-3.6-0.5-3.4-2.9c13.3,0,26.7,0,40,0
			c0.3,0.2,0.4,0.4,0.3,0.6C561.1,12,561,12.1,560.9,12.1z"/>
		<path class="st55" d="M620.8,10.1c-0.3,2.5-1.5,1.8-2.9,0.9c-6.6,1.1-13.2,0.2-19.9,0.5c-1.7,0.1-3.5-0.2-5.2,0.4
			c-0.6,0.3,0.5,0.7,0.1,0.1c-0.2-0.2-0.1-0.4,0.3-0.4c7.9,0.1,15.8-0.9,23.7,0.5c-5.6,1.9-11.3,0.3-17,0.8c-2,0.2-4.3-0.8-6.1,1
			c-4.3,2.8-8.7,0.8-13,0l0,0c-1.3-1.6-1.4-3.2-0.1-4.8C594.1,10.7,607.5,9.5,620.8,10.1z"/>
		<path class="st56" d="M580.8,9.2c0,1.6,0,3.2,0.1,4.8c-4.3-0.3-8.8,1.3-12.6-2.2c-0.6,2-0.7,3.9-3.4,4.3c-3.4,0.4-2.6-2.8-4-4
			c0-0.3,0-0.6,0-0.9C567.3,7.9,574.1,9.1,580.8,9.2z"/>
		<path class="st57" d="M500.9,11.1c0.1,2.3-1,3.1-3.3,3.1c-3.6-0.1-7.2-0.1-10.8-0.1c0.2-1.6-1.4-2-1.9-3.1
			C490.2,11,495.6,11.1,500.9,11.1z"/>
		<path class="st58" d="M520.1,10.9c-4,0.8-8.3-0.8-12.1,2.9c-1.7,1.6-5.7,0.9-7.1-2.7C507.3,9.6,513.7,9.6,520.1,10.9z"/>
		<path class="st59" d="M471.9,7c1,0.2,2.1,0.5,1.7,1.9c-0.3,1.2-1.5,1.2-2.5,1.1c-4.7-0.1-9.5-0.4-14.2-0.4
			c-6.2,0-12.4,0.3-18.6,0.2c-9.5-0.2-19,1.2-28.5-0.6c-3.3-0.6-6.6,0.2-9.8,0.4c-7,0.3-14.1-1.7-21.2,0.3C375,11,370.9,9.3,367,9.1
			c-5.8-0.3-11.5,1.7-17.3,0.9c-3-0.4-6.6,0.6-8.7-2.8C384.6,7.1,428.3,7.1,471.9,7z"/>
		<path class="st56" d="M580.9,14c4.3-1.3,8.7,1,13,0c7.6,0,15.2-0.1,22.8,0c1.7,0,3.7-0.6,5.2,0.9c-8.7,3.1-17.8,2.1-26.7,1.9
			c-4-0.1-8.1,0.7-12.1-0.7C581.9,15.7,580.9,15.5,580.9,14z"/>
		<path class="st60" d="M616.9,12.3c-8.1,0-16.1,0-24.2,0c0-0.4,0-0.8,0-1.2c8.4,0,16.8,0,25.2,0C617.6,11.5,617.2,11.9,616.9,12.3z
			"/>
		<path class="st61" d="M5.1,21.3c1.7,0,3.4,0,5.1,0c-0.1,0.9-0.1,1.8-0.2,2.7C8.1,23.8,6.4,23.1,5.1,21.3z"/>
		<path class="st62" d="M414.9,34c0.4,7.9,0.2,8-7.7,5.4c-1.5-0.5-3.3-0.4-4.9-0.4c-23.2,0-46.4,0-69.6,0c-3.2,0-6.7,0.4-8.7-3
			c0-4,0-8,0-11.9c1-0.3,2-0.7,3-1c0.9,4.3,3.7,5.1,7.9,5.1c24.7-0.2,49.4-0.1,74.1-0.1c2.8,0,5.9-0.6,6.9,3.3
			C415.9,32.4,415.7,33.3,414.9,34z"/>
		<path class="st63" d="M268,26.1c0,4,0,8,0,12c0,1.4,2.6,1.2,2,3c-1.5,0.8-2.7,1.7-4.9,1.3c-8.1-1.4-16.7-2.3-24.5-1.4
			c-6,0.7-11.9,1.4-18.1,1.3c-3-0.1-4.5-0.1-4.4-3.2c0.3-10.5-3-8.8,8.4-9c2.7-0.1,5.3,0.1,8,0c4.6-0.3,8.5-0.3,7.7,6.2
			c-0.3,2.3,1.9,2.8,3.9,2.8c4.5,0,9-0.1,13.5,0c3.6,0.1,4.6-1.6,4.6-4.8c0-2.4-1-5,0.9-7.2C266,26.9,266.7,25.4,268,26.1z"/>
		<path class="st64" d="M295.7,9.9c9.5,0.3,18.6-4.3,28.2-2.8c0.3,1,0.7,2,1,2.9c-3.7-1.9-7.4,0.2-11.2,0.1c-1.8,0-1.8,1.6-1.8,3
			c0,3,0,6,0,8.9c-4.3,2.5-8.9,1.5-13.4,0.9c-2-0.2-3-1.9-3.2-3.8c0.1-2.2,1.3-3.6,3.1-4.6c1.4-0.9,3.1-1.1,4.2-2.8
			C300.4,10.5,297.5,12.2,295.7,9.9z"/>
		<path class="st65" d="M295.9,18.1c0.4,3,2,4.2,5.1,4c3.6-0.2,7.3,0,11,0c0.8,3.3,3.5,1.6,5.4,1.9s4.3-0.6,5.6,2.7
			c-7.8-1.4-15.2-0.2-22.5-1.2c-3.5-0.5-5,1.7-6.2,4.3c-0.7,1.3-1,2.8-1.8,4.1c-0.8,1.3-1.9,1.1-2.9,0.1c-1.1-1-1.4-2.1,0.3-2.6
			c2.4-0.8,2.6-2.2,1.8-4.2c-0.9-2.2-2.5-1.8-4.5-1.7c-6.3,0.4-12.7,0.4-19,0.6c-1.1-0.1-1.5,2.2-3,1c0.7-1,1.4-1.9,2.1-2.9
			c1.5-1.7,3.6-1.4,5.5-1.4c6-0.1,12.1,0,18.1-0.1c2.5-0.2,1.8-2.3,2.3-3.8c0.3-1,0.7-1.9,1.9-2.2C295.6,16.8,296.4,17,295.9,18.1z"
			/>
		<path class="st66" d="M216.9,48c0,4.3,0,8.7,0,13c-0.6,0.3-1.2,0.6-1.8,0.9c-0.4-0.3-0.7-0.7-0.9-1.1c-2-6.4-2-6.3-8.7-6.5
			c-5.2-0.1-10.4,0.7-15.6-0.4c0-2.3,0.1-4.6,0.1-6.9c0.7,0,1.3,0,2,0c0.2,1.3-0.5,2.5,2.3,2.4c6-0.2,12.1-1.6,18.1,0.7
			C213.7,50.7,214.4,46.8,216.9,48z"/>
		<path class="st67" d="M270,41c-0.1-1.4-3.1-0.8-2-3c1.9,1.3,4.1,1,6.3,1c14.5,0,28.9,0,43.4,0c1.8,0,4-0.6,5,2
			C305,41,287.5,41,270,41z"/>
		<path class="st68" d="M183.9,23.2c3.1-0.6,6.6,1.1,9.5-1.2c14.6,0,29.2,0,43.7,0.2c1.7,0,4.2-1.2,4.8,1.9c-6.3,0-12.6,0.1-19,0.1
			c-3,1.5-6,1.4-9,0c-10,0-20-0.1-29.9-0.1C184,23.7,184,23.5,183.9,23.2z"/>
		<path class="st69" d="M292.9,23.9c-8.6,0.1-17.2,0.1-25.9,0.2c-5,0-10.1,0-15.1,0.1c-1.5-1.4-0.4-1.7,0.9-2.3
			c1.8-0.8,3.5-1.9,5.2-2.8c4.2,0.4,8.4,0.5,12.6,1.1c5.9,0.9,11.9,0.1,17.9,0.5C290.4,20.8,293.5,20.1,292.9,23.9z"/>
		<path class="st70" d="M233,47.8c-7.1,2.4-8,5.9-4,15.9c-3.5-0.4-5.2-2.3-6.1-5.3c-1.3-4-1-8.1-1.3-12.2c2.8,0,5.6-0.1,8.4-0.1
			C231.4,46,232.7,46.1,233,47.8z"/>
		<path class="st71" d="M214,24.1c3,0,6,0,9,0c0.2,0.7,0.9,2.2,0.5,2.1c-3.2-0.4-6.7,0.8-9.7-1.2C213.7,24.9,213.9,24.4,214,24.1z"
			/>
		<path class="st62" d="M322.7,33.1c-0.3,1.2-1,1.9-2.1,1.6c-0.9-0.2-2.1-0.5-2.2-1.7c0-1.4,1.1-1.9,2.4-1.8
			C321.8,31.3,322.6,32,322.7,33.1z"/>
		<path class="st72" d="M439.9,30.1c-3.3,0-6.7,0-10,0c-4.2,2.3-8.5,1.9-12.9,0.4c-1.3-1.4-1.3-2.9-0.1-4.4c0-2.7,0.1-5.4,0.1-8.1
			c4.4,0.7,1.3,4.3,2.7,6.2c-0.1,0.2-0.2,0-0.1-0.4c0.5-2-1.5-5.6,1.5-5.8c3.8-0.2,2.6,3.7,2.9,5.7c0.6-1.8-1.5-5.6,2.1-5.7
			c3.8-0.2,2.6,3.7,2.9,5.8c0.7-1.8-1.5-5.4,2.1-5.8c3.1-0.4,2.9,2.9,2.9,5c0.6-1.8-1.3-5.4,2.8-5.2c3.9,0.1,1.8,3.5,2.2,5.2
			c0.8-1.7-1.2-5.4,3-5.2c3.5,0.2,1.7,3.3,2,4.9c0.7-1.5-0.8-4.8,2.3-4.8c3.2,0.1,2.6,3.2,2.7,5.2c0.6-1.8-1.3-5.5,2.7-5.4
			c4.6,0.2,1.1,4.3,2.3,5.8c0-0.1-0.1-0.8,0.1-1.5c0.5-1.7-0.5-4.5,2.7-4.3c2.9,0.2,2.3,2.7,2.6,4.6c-0.5,5.8-0.5,5.8,4.5,4.5
			c0.3-1.7-0.2-3.3,0-5c0.2-1.9-0.1-4.3,2.9-4.2c2.6,0.1,2.9,2,3,4.2c0.1,2-1.2,4.3,0.8,6c0.6,0.3,1.1,0.7,1.5,1.2
			c0.8,0.5,0.4,0.9-0.2,1.1c-3,1.8-5.9,1.8-8.8-0.1c-3.3,0-6.7,0-10,0C448.6,32.3,444.2,32.3,439.9,30.1z"/>
		<path class="st73" d="M470.1,28.9c-0.7-0.5-3.1,1.5-2.1-1.7c0.7-2,0.3-4.4,0.6-6.6c0.2-1.5-0.6-2.2-1.8-2.4
			c-1.6-0.2-1.8,1.1-1.7,2.3c0.1,2.4-0.4,4.9,0.8,7.3c-2.2,1.4-2.4-0.5-2.9-1.8c-0.5-1.5,0-3.3-0.9-4.9c-1.7-0.2-1.7,3.7-4.1,1.8
			c0-0.5,0-1,0-1.5c-0.1-1.2,0.4-3.1-1.5-3.1c-2-0.1-1.4,1.8-1.5,3c-0.2,2.3,0.6,4.8-1,8c-1.4-3-0.9-5.3-0.9-7.5
			c0-1.4,1-3.4-1.2-3.6c-2.8-0.2-1.7,2.3-1.9,3.7c-0.3,2.1,0.5,4.3-0.8,6.7c-2.1-2-0.9-4.4-1.2-6.4c-0.2-1.5,0.2-3.6-1.6-3.7
			c-2.3-0.1-1.3,2.2-1.4,3.5c-0.2,2.1,0,4.2-0.6,6.3c-2.3-2.3-1.4-5-1.2-7.6c0.1-1.4-0.1-2.4-1.5-2.5c-1.7-0.2-1.6,1.2-1.8,2.4
			c-0.3,2.6,0.6,5.2-0.7,8.4c-2.1-2.7-1.2-5.4-1.1-7.8c0-1.4,0.5-2.9-1.4-3c-2-0.1-1.6,1.7-1.8,2.9c-0.3,2.4,0.7,4.9-0.8,7.7
			c-1.9-2.2-0.9-4.5-1.1-6.6c-0.2-1.5,0.2-3.6-1.6-3.7c-2.3-0.1-1.1,2.2-1.4,3.5c-0.5,2.2,1.1,4.9-2,7.5c0-3.5,0.1-6.1,0-8.8
			c0-1.2-0.4-2.5-1.9-2.3c-1.4,0.1-1,1.5-1.1,2.4c-0.3,2.5,0.7,5.1-1,8.4c-1.5-3.4-0.7-6-1-8.5c-0.1-1.2-0.4-2.5-1.9-2.4
			c-1.4,0.1-1,1.5-1.1,2.4c-0.1,2,0,4,0,6.6c-2.3-3.3,0.8-7.5-2.9-9.6c0-0.6-1.1-1.3,0-1.9c0.3-0.3,0.6-0.2,0.9,0.1
			c7.7,1.3,15.4,1.4,23.1,0l0,0c6.9,1.9,14,0.5,21,0.9c3.1,0.2,6.2,0.2,9.3,0.3C470.3,21.1,471.8,25.2,470.1,28.9z"/>
		<path class="st67" d="M416.9,26.1c0,1.3,0,2.6,0.1,3.9c0.3,1.6-0.4,2.3-2,2c-0.5-3.8-3.4-3-5.8-3c-25.3,0-50.6-0.1-75.9,0.1
			c-4.6,0-7.1-1-6.3-6.1c0.7-2.3,1.9-2.2,1.8,0.1c-0.1,4.1,2.3,4,5.1,4c24.8,0,49.5-0.1,74.3,0.1c4.5,0,7.9-0.3,6.7-6.7
			C416.6,22.6,415.1,24.8,416.9,26.1z"/>
		<path class="st74" d="M462.9,30.1c2.9,0,5.9,0.1,8.8,0.1c0.1,0.1,0.3,0.2,0.4,0.3c1.6,1.3,5.4-0.5,5.2,2.5
			c-0.2,3.3-3.7,1.5-5.7,2.1c-0.6,0.2-1.1,0.6-1.7,0.9c-0.8,0-1.6,0-2.5,0C461.8,36,461.5,35.6,462.9,30.1z"/>
		<path class="st75" d="M352.7,10.8c2.9,1.1,7.7-1.5,7.7,2.6c0,4.7-4.9,2.3-7.6,2.5c-2.7,0.3-7.4,1.1-7.2-2.7
			C345.8,8.9,350.7,12.4,352.7,10.8z"/>
		<path class="st75" d="M470.1,11.1c0.2,0,0.3,0,0.5,0c2.3,0.6,6.6-1.4,6.6,2c0,4-4.4,2.8-7.1,3c-1.6,0.1-3.3,0-4.9,0
			s-3.1-0.6-3.1-2.5c0-1.8,1.4-2.4,3.1-2.5C466.8,11.1,468.5,11.1,470.1,11.1L470.1,11.1z"/>
		<path class="st75" d="M417.8,16.2c-0.3,0-0.6-0.1-0.9-0.1c-2.4-4-2.1-4.8,2.3-5c2.8-0.1,5.6,0,8.4,0c1.6,0,3.1,0.6,3.1,2.4
			c0,1.9-1.4,2.5-3,2.5C424.4,16.1,421.1,16.1,417.8,16.2z"/>
		<path class="st75" d="M400.4,11.1c1,0,2,0,3,0c1.6,0.1,3.8-0.3,4,1.9c0.2,2.1-1.7,3.1-3.7,3.1c-2.8,0.1-5.7,0.1-8.5-0.1
			c-1.4-0.1-3.2-0.6-3.1-2.6c0.1-1.9,1.7-2.2,3.3-2.3C397.1,11.1,398.8,11.1,400.4,11.1z"/>
		<path class="st75" d="M376.4,11.1c2.2,0.8,7-1.8,7,2.4c0,4.7-4.9,1.9-7.6,2.6c-0.6,0.2-1.3,0-2,0c-2.1-0.1-4.8,0.4-4.8-2.8
			c0-3.2,2.8-1.9,4.5-2.2C374.4,11,375.2,11.1,376.4,11.1z"/>
		<path class="st74" d="M440.8,16.2c-0.7-1.2-2.5-2-1.7-3.8s2.5-1.2,3.9-1.3c2.3-0.1,4.6,0,7,0c1.7,0,3.6,0.2,3.7,2.4
			c0.1,2.6-2,2.6-3.9,2.6C446.8,16.1,443.8,16.1,440.8,16.2L440.8,16.2z"/>
		<path class="st75" d="M329,12.1c0.7-0.3,1.5-0.8,2.2-0.9c1.8-0.2,4-0.5,4.4,1.8c0.6,2.8-1.7,3-3.7,3.1
			C329.1,16.1,327.4,15.3,329,12.1z"/>
		<path class="st76" d="M470.1,28.9c0.2-3.9-1.4-8,1.1-11.7c1.4,3.8,0.5,7.9,0.8,11.8C471.3,29,470.7,29,470.1,28.9z"/>
		<path class="st17" d="M329,12.1c-0.5,2.4,1.2,3.3,3,4c-2.2,1.6-4.4,1.7-5.7-0.9C325.2,13,326.7,11.9,329,12.1z"/>
		<path class="st77" d="M487,28.1c4.3,0,8.6,0,12.9,0c-4.2,2.4-8.7,0.5-13,1C486.9,28.7,486.9,28.4,487,28.1z"/>
		<path class="st75" d="M439.9,30.1c4.3,0,8.6,0,13,0c1.6,5,1.1,5.9-4,6c-1.6,0-3.3,0-4.9,0C438.8,35.9,438.3,35.1,439.9,30.1z"/>
		<path class="st75" d="M414.9,32.1c0.7-0.7,1.3-1.3,2-2c4.3,0,8.6,0,13,0.1c1.4,3.9,0.1,6.1-4.1,5.9c-3.7-0.1-7.6,1.1-10.8-2
			C414.9,33.4,414.9,32.7,414.9,32.1z"/>
		<path class="st78" d="M97.1,31.1c0,0.7,0,1.3,0,2c-2,1.7-4.4,1.3-6.7,1.5c-11,0.8-21.9-1.3-32.9-1.7c-10.1-0.4-20.3-0.1-30.4-1.2
			c-5-0.5-5.2-0.4-4.5-5.7c1.4-1.7,3.3-2.1,5.4-2c21.6,1.8,43.3,3.2,64.9,4.8C94.7,28.9,96.2,29.4,97.1,31.1z"/>
		<path class="st79" d="M23.1,26c-0.6,3.3,0.5,3.9,4,4.2c10.2,1,20.4,0.8,30.5,1.2C70.7,31.9,83.8,34,97,32.9c0,1.8,0.5,3.2-2.7,3.2
			c-20.6,0.1-41.1-1.7-61.7-1.3c-3.5,0.1-7.7,0.3-10.5-2.9c-0.1-3.5-2.5-7-0.2-10.6c0.3-0.1,0.6-0.1,0.9-0.1c1,0.6,1.3,1.6,1.2,2.7
			C24,24.7,23.6,25.4,23.1,26z"/>
		<path class="st80" d="M23.1,26c0-0.7,0-1.3,0-2c2.6-3.2,6.1-1.8,9.2-1.8c6.9,0.2,13.8,1.3,20.7,2.1c9,1,18,1.7,27,2.7
			c5.6,0.2,11.3-0.4,16.9,0.9c0,1,0.1,2.1,0.1,3.1c-4.3-2-9.1-1.2-13.6-1.8c-8.1-1.1-16.4-0.7-24.6-1.3c-10.1-0.7-20.3-1.7-30.4-2.8
			C26.5,25,24.9,26,23.1,26z"/>
		<path class="st81" d="M62.1,51.1c-1,0.2-2.2,2-3.1-0.2c-0.1-2.4,2.4-2.8,3.5-4.5c-10.9,0-21.7,0-32.5,0c-6.1,0-6.4,0.4-6.4,6.6
			c0,6.6,0.1,13.3,0,19.9c0,2.1,0.4,4.4-1.6,6c-0.3-0.4-0.7-0.7-1-1.1c-1.2-1.3-1.3-3-1.4-4.6c-0.1-6.4-0.1-12.8,0-19.2
			c0-1.8,0.2-3.6,1.6-5.1c0-1.7,0-3.3,0-5c0.5-0.6,1.2-0.7,1.8-0.3c15.1,0.1,30.2,0.1,45.3,0.2c2.3,0,4.7-0.3,6.8,1
			c5.1,0,10.2,0,15.3,0c1.6,0,3.3-0.4,4.7,1c0,0.3,0,0.6,0.1,0.9c-1.5,1.7-3.6,1.6-5.6,1.5C80.2,48,71.1,48.8,62.1,51.1z"/>
		<path class="st82" d="M62.1,51.1c5.4-3.2,11.3-4.2,17.6-4.1c5.1,0.1,10.3,0,15.4,0c1.7,0.3,4.9-0.8,3,3c-9.3,0.5-18.6-0.6-27.8,1
			C67.6,51.4,64.8,54.1,62.1,51.1z"/>
		<path class="st83" d="M99.1,28c4.2,0,8.4,0,12.6,0c0.1,1.4,0.1,2.7,0.2,4.1c-4.1,3.5-8.4,3.2-12.9,0.9
			C99.1,31.3,99.1,29.6,99.1,28z"/>
		<path class="st64" d="M99.1,33c4.3,0,8.7,0.6,12.9-0.9c0.1,0.3,0.2,0.5,0.2,0.8c0,0.7-0.1,1.4-0.1,2.2C108.9,38,105,37,101.4,37
			C98.5,37,99.2,34.7,99.1,33z"/>
		<path class="st84" d="M95,46.1c-6.6-0.7-13.4,1.2-20-1c6.9-2.2,14-0.4,21-1c0.6-0.1,1.5,0,1.1,1C96.8,45.9,95.8,45.9,95,46.1z"/>
		<path class="st67" d="M22.9,43.8c-0.6,0.1-1.2,0.2-1.8,0.3c0-5.7,0-11.4,0-17c-1.6-2-1.5-3.8,0.2-5.7c0.2-0.1,0.5-0.1,0.7,0
			c0.1,3.5,0.1,7.1,0.2,10.6C22.1,36,23.9,39.8,22.9,43.8z"/>
		<path class="st74" d="M107,48.8c-0.1,1.3,0.2,2.8-1.7,3c-2.2,0.2-2.3-1.3-2.3-2.9c0-1.4,0-2.8,1.9-2.8
			C106.8,46.1,107,47.4,107,48.8z"/>
		<path class="st28" d="M21.1,49C21,58.6,21,68.3,20.9,77.9c-6.6,0.1-6.2,0-7-6.4c-0.6-5.7,0.4-11.4-0.7-17.1
			C12.5,50.6,15.1,49,21.1,49z"/>
		<path class="st85" d="M22.3,80.8c9.6-7.9,19.3-15.7,28.9-23.6c2.6,1.5,3.6-2.4,6.2-1.7c-1.6,3.4-5.3,4.7-7.4,7.4
			c-8.1,6.5-16.5,12.7-24,19.9C24.5,82.7,22.6,83.2,22.3,80.8z"/>
		<path class="st61" d="M21.3,21.3c-0.1,1.9-0.1,3.8-0.2,5.7c-3,0-5.9,0-8.9,0c0-2-0.1-3.9-0.1-5.9C15.1,21.2,18.2,21.3,21.3,21.3z"
			/>
		<path class="st86" d="M154.1,40c-13.4-0.8-26.8,0.7-40.1-0.8c-0.2,0-0.4-0.8-1-1.9c14,1,27.5-0.6,41,0.7
			C154.6,38.7,154.6,39.4,154.1,40z"/>
		<path class="st87" d="M161.2,31.1c3.4-1.4-0.2-3.9,1-5.6c0.1-0.1,0.1-0.3,0.2-0.3c0.7-0.1,0.5,0.5,0.7,0.9c-0.2,1.6,0.7,2.5,2,3
			c0.4,1.7-4.1,7.1,3.2,3.9c2.6-1.1,2.7,2.8,2.8,5c-0.1,1.3-0.7,3.6-1.6,2.7c-3-2.8-5.3,0.1-7.9,0.2c-0.2-1.3-0.5-2.6-0.7-3.8
			c-1-1.4-0.6-2.8,0.1-4.2C161,32.3,161.1,31.7,161.2,31.1z"/>
		<path class="st88" d="M160.9,33c0,1.4-0.1,2.8-0.1,4.2c-1.4-0.1-2.1,4.8-4.1,0.6c-1,0.6-0.8,2.5-2.6,2.3c0-0.7,0-1.3,0-2
			c0-1.3,0-2.5,0-3.8C156.1,32.5,158.8,34.2,160.9,33z"/>
		<path class="st89" d="M187,103.9c0.1,1.7-1.4,2.6-2,4c-6.4,0.8-10.8-3.6-16-5.9l0,0c-5.9-4.8-5.9-4.8-2.3-11.3
			c3.9-7,8.2-13.6,14.1-19.2c3.8-3.5,6.5-8,8-13c0.9-3.2,2.7-4.7,6.1-4.5c4.5,0.2,9,0,13.5,0.1c2,0,4.9-0.7,5.3,2.3
			c0.4,3,1.8,7-1.5,8.7c-6.6,3.3-8.6,9.8-11.9,15.4C195.7,88.2,192.3,96.6,187,103.9z"/>
		<path class="st90" d="M187,103.9c4.6-8.8,9.1-17.7,14-26.3c2.8-5,4.8-10.5,10.7-13.3c2.7-1.2,1.3-4.9,1.1-7.4
			c-0.2-2.7-2.8-1.5-4.4-1.8c-0.3-0.1-0.7,0-1,0c-9.7-1.1-18.1-0.7-21.8,11.2c-2.2,7-10.3,10.7-13.8,17.5c-1.1,2.2-2.3,4.5-3.9,6.4
			c-3.7,4.4-3.1,8.3,1.1,11.8c-3.2-0.8-5.2-2.9-6.1-6.1c4.1-7.6,7.9-15.5,14.2-21.5c6.1-5.8,10.1-12.6,12.7-20.4
			c7.4-1.7,14.8-0.4,22.2-0.7c2.1-0.1,2.8,1.4,2.9,3.3c0,1.8,0.1,3.6,0.1,5.5c0,1.5,0,3.2-1.7,3.8c-6.9,2.6-9,9.1-12.2,14.7
			c-1,1.9-2.1,3.7-3.1,5.5c-2.9,5.3-5.7,10.6-8.6,15.9C189,102.9,188.4,103.9,187,103.9z"/>
		<path class="st90" d="M169,102c5.5,1.5,10.1,5.5,16,5.9c-1.3,1.8-2.9,0.9-4.5,0.4C176.5,106.6,172.1,105.4,169,102z"/>
		<path class="st3" d="M10.1,88.9c-1.2-0.6-2.4-1.1-3.7-1.7c1-1.7,2.7-1.4,3.7-2.2C10.1,86.3,10.1,87.6,10.1,88.9z"/>
		<path class="st91" d="M295.7,9.9c3.1,0,6.1,0,9.8,0c-1.5,3.3-3.2,5.2-6.6,5.2c-11,2.4-22,1.4-33.1,0.8c-1.9-0.1-4,0.1-5.8-0.8
			c-0.5,0-1,0-1.5,0c-7.6,0.3-7.6,0.3-7.5-7.3C265.6,15.1,280.7,11.6,295.7,9.9z"/>
		<path class="st92" d="M270,21.1c-4-0.7-8.5,1.7-12-2c-0.3-0.3-0.7-0.7-1-1c2.5-1.9,5.4-0.5,8-1c1.1-1,2.4-1,3.7-1
			c7.4,0,14.9,0.1,22.3-0.4c1.2-0.1,3.5-1.4,3.8,1.4c-0.8,0.4-0.9,1.2-1,2c-1.9,1.7-4.3,1.4-6.6,1.4C281.5,20.7,275.7,20.1,270,21.1
			z"/>
		<path class="st46" d="M294.9,17.1c-1.4-1.7-3.5-1.2-5.1-0.9c-8.2,1.6-16.5,0.6-24.8,0.9c-1.2-1.9-3.8,0-5-2c13,0,25.9,0,38.9,0.1
			c-1,1-2,2-3,3C295.6,17.8,295.2,17.5,294.9,17.1z"/>
		<path class="st93" d="M80.1,27.1c-16.2,0-32.2-2-48.2-3.8C29,23,26,23.2,23.2,24.1c-0.1-0.9-0.2-1.9-0.3-2.8
			c13.9-1.6,27.5,1.8,41.2,3C69.5,24.7,74.8,25.7,80.1,27.1z"/>
		<path class="st17" d="M242.2,23.4c3.3-1.7,5.2-1.5,7.8-0.7C247.7,24.8,245.6,24.1,242.2,23.4z"/>
		<path class="st94" d="M232.1,33c1.4,1.3,3.5,0.7,5.2,2c-3.8-1-5.7,5.9-10.3,2C226.7,33.2,228.4,31.8,232.1,33z"/>
		<path class="st95" d="M232.1,33c-2.4,0.5-4.5,1.3-5.1,4c-1.2-1.7-1.3-3.3,0.4-4.8C229.3,30.6,230.7,31.7,232.1,33z"/>
		<path class="st96" d="M270,21.1c1.3-1.7,3.1-2.1,5.2-2.1c6.3,0.1,12.5,0.1,18.8,0.1c-0.2,1.6,0.7,3.5-1,4.8
			c-0.5-2.8-2.8-1.7-4.4-1.8C282.3,21.5,276.1,23.2,270,21.1z"/>
		<path class="st97" d="M457.9,23c1.4-0.1,1.9-1,1.9-2.3s0.1-2.8,2.1-2.4c1.5,0.3,1.6,1.7,2,3c0.7,2.2-2.1,5.4,1.8,6.6
			c-2.3,2.3-5.5,1.3-7.6,0.7C455.4,27.8,458.7,25,457.9,23z"/>
	</g>
</g>
</svg>
