<?xml version="1.0" encoding="utf-8"?>
<!-- Generator: Adobe Illustrator 25.0.0, SVG Export Plug-In . SVG Version: 6.00 Build 0)  -->
<svg version="1.1" xmlns="http://www.w3.org/2000/svg" xmlns:xlink="http://www.w3.org/1999/xlink" x="0px" y="0px"
	 viewBox="0 0 595 163.1" style="enable-background:new 0 0 595 163.1;" xml:space="preserve">
<style type="text/css">
	.st0{display:none;}
	.st1{display:inline;fill:#F40C0C;stroke:#000000;stroke-miterlimit:10;}
	.st2{fill:#343B3F;}
	.st3{fill:#ACADAD;}
	.st4{fill:#797B7B;}
	.st5{fill:#C4C4C3;}
	.st6{fill:#070807;}
	.st7{fill:#0B0B0A;}
	.st8{fill:#141412;}
	.st9{fill:#22211D;}
	.st10{fill:#131312;}
	.st11{fill:#23221F;}
	.st12{fill:#21201C;}
	.st13{fill:#171614;}
	.st14{fill:#3C3A35;}
	.st15{fill:#0C0B0A;}
	.st16{fill:#605E57;}
	.st17{fill:#131617;}
	.st18{fill:#141719;}
	.st19{fill:#32383C;}
	.st20{fill:#3B4348;}
	.st21{fill:#807A6B;}
	.st22{fill:#4B5358;}
	.st23{fill:#615E52;}
	.st24{fill:#2B3135;}
	.st25{fill:#8B8476;}
	.st26{fill:#41494D;}
	.st27{fill:#24211C;}
	.st28{fill:#36312A;}
	.st29{fill:#403A32;}
	.st30{fill:#3C362E;}
	.st31{fill:#3A352D;}
	.st32{fill:#353029;}
	.st33{fill:#5A574D;}
	.st34{fill:#746A5A;}
	.st35{fill:#3F3931;}
	.st36{fill:#8A7D6B;}
	.st37{fill:#A59883;}
	.st38{fill:#7E7262;}
	.st39{fill:#46433A;}
	.st40{fill:#262521;}
	.st41{fill:#111212;}
	.st42{fill:#424139;}
	.st43{fill:#090808;}
	.st44{fill:#1B1C1B;}
	.st45{fill:#615E53;}
	.st46{fill:#262726;}
	.st47{fill:#171817;}
	.st48{fill:#181613;}
	.st49{fill:#1F1E1B;}
	.st50{fill:#181918;}
	.st51{fill:#1A1B1A;}
	.st52{fill:#191A19;}
	.st53{fill:#1A1C1B;}
	.st54{fill:#353C40;}
	.st55{fill:#333A3E;}
	.st56{fill:#32393D;}
	.st57{fill:#272928;}
	.st58{fill:#363D41;}
	.st59{fill:#373F43;}
	.st60{fill:#353C41;}
	.st61{fill:#2E2C27;}
	.st62{fill:#363E42;}
	.st63{fill:#161716;}
	.st64{fill:#424A4D;}
	.st65{fill:#2F3434;}
	.st66{fill:#545247;}
	.st67{fill:#342F28;}
	.st68{fill:#242524;}
	.st69{fill:#1C1A16;}
	.st70{fill:#1C1916;}
	.st71{fill:#191714;}
	.st72{fill:#1B1915;}
	.st73{fill:#3A342C;}
	.st74{fill:#252320;}
	.st75{fill:#2F2C27;}
	.st76{fill:#413B32;}
	.st77{fill:#4B443A;}
	.st78{fill:#403A31;}
	.st79{fill:#39342C;}
	.st80{fill:#262520;}
	.st81{fill:#2E2A23;}
	.st82{fill:#474037;}
	.st83{fill:#312C26;}
	.st84{fill:#3E382F;}
	.st85{fill:#312D26;}
	.st86{fill:#37312A;}
	.st87{fill:#38332B;}
	.st88{fill:#535148;}
	.st89{fill:#36342F;}
	.st90{fill:#3C3932;}
	.st91{fill:#786F5F;}
	.st92{fill:#5D5A4F;}
	.st93{fill:#524F45;}
	.st94{fill:#0A0B0C;}
	.st95{fill:#424038;}
	.st96{fill:#050605;}
	.st97{fill:#2F2D28;}
	.st98{fill:#363837;}
	.st99{fill:#A59782;}
	.st100{fill:#A59681;}
	.st101{fill:#F3F3F3;}
	.st102{fill:#1F2427;}
	.st103{fill:#080807;}
	.st104{fill:#090807;}
	.st105{fill:#020202;}
	.st106{fill:#6E6B5E;}
	.st107{fill:#2A2925;}
	.st108{fill:#4B493F;}
	.st109{fill:#49463D;}
	.st110{fill:#2A3033;}
	.st111{fill:#3D372F;}
	.st112{fill:#423C33;}
	.st113{fill:#74695A;}
	.st114{fill:#453E35;}
	.st115{fill:#453F35;}
	.st116{fill:#716657;}
	.st117{fill:#6F6456;}
	.st118{fill:#756A5B;}
	.st119{fill:#786D5D;}
	.st120{fill:#2B2721;}
	.st121{fill:#2A2621;}
	.st122{fill:#726859;}
	.st123{fill:#706657;}
	.st124{fill:#796E5E;}
	.st125{fill:#706557;}
	.st126{fill:#776C5C;}
	.st127{fill:#6F6455;}
	.st128{fill:#6C6153;}
	.st129{fill:#837766;}
	.st130{fill:#817564;}
	.st131{fill:#A0927D;}
	.st132{fill:#AD9F88;}
	.st133{fill:#60574B;}
	.st134{fill:#5E5548;}
	.st135{fill:#221F1A;}
	.st136{fill:#574F43;}
	.st137{fill:#5D5448;}
	.st138{fill:#898272;}
	.st139{fill:#414645;}
	.st140{fill:#020101;}
	.st141{fill:#010101;}
	.st142{fill:#5C5347;}
	.st143{fill:#4E4B42;}
	.st144{fill:#5A584D;}
	.st145{fill:#504D43;}
	.st146{fill:#5D6360;}
	.st147{fill:#373B3A;}
	.st148{fill:#524A3F;}
	.st149{fill:#62584B;}
	.st150{fill:#3B352D;}
	.st151{fill:#423B33;}
	.st152{fill:#433C34;}
	.st153{fill:#443D34;}
	.st154{fill:#494238;}
	.st155{fill:#433D34;}
	.st156{fill:#3E3930;}
	.st157{fill:#61584B;}
	.st158{fill:#716758;}
	.st159{fill:#4D453B;}
	.st160{fill:#3B362E;}
	.st161{fill:#38322B;}
	.st162{fill:#3E3830;}
	.st163{fill:#332E27;}
	.st164{fill:#302C25;}
	.st165{fill:#352F28;}
	.st166{fill:#3C372F;}
	.st167{fill:#423B32;}
	.st168{fill:#463F36;}
	.st169{fill:#474137;}
	.st170{fill:#322E28;}
	.st171{fill:#3B352E;}
	.st172{fill:#484137;}
	.st173{fill:#908A7A;}
</style>
<g id="Camada_2" class="st0">
	<rect x="-10" y="-67.9" class="st1" width="644" height="279"/>
</g>
<g id="Camada_1">
	<g>
		<g>
			<path class="st2" d="M208.2,14.2c-1.3-6.4,1.5-10.9,6.9-14c1.3,0,2.7,0,4,0c3.5,3.1,8.2,2.3,12.3,3.7c4.3,1.5,4.9,3.8,4.7,7.4
				c-0.1,1.3-0.1,2.6-0.1,3.9c-2.5,2-5.4,1.1-8.1,1.2c-2.8,0.1-5-0.4-6.2-3.6c-0.7-1.8-3,0-4.5-0.4
				C213.8,11.4,210.7,11.2,208.2,14.2z"/>
			<path class="st3" d="M593.9,41.2c0.3,0,0.7,0,1,0c0,5.3,0,10.7,0,16c-0.7-0.1-1.5-0.1-2.2-0.2c-0.3-0.5-0.4-1-0.3-1.5
				c0.3-2.3,0.2-4.7,0.1-7C592.6,45.9,591.9,43.3,593.9,41.2z"/>
			<path class="st4" d="M0.1,38.1c0.4,0,0.7,0.1,1.1,0.1c2.2,3.7,1.7,7.6,0.5,11.4c-0.4,0.6-0.9,0.7-1.6,0.4
				C0.1,46.1,0.1,42.1,0.1,38.1z"/>
			<path class="st5" d="M0.1,50.1c0.3,0,0.6,0.1,1,0c2.5,2.8,3.3,5.7,0.9,9c-1.6-1.3-0.2-3.8-1.9-5C0.1,52.8,0.1,51.5,0.1,50.1z"/>
			<path class="st6" d="M537.9,91.1c-1,1.3-2.5,0.9-3.7,0.7c-4.2-0.6-8.1-0.3-11.5,2.8c-1.6,1.4-3.7,1.3-5.7,1.3
				c-30.9,0-61.8,0-92.7,0c-1.8,0-3.8,0.5-5.2-1c-3.6-3.8-8.2-3.4-12.9-3.4c-12.6,0.1-25.3,0.1-37.9,0c-2.6,0-4.8,0.2-6.9,2
				c-2.4,2.1-5.4,2.3-7.4-0.5c-1.6-2.2-3.2-1.6-5.1-1.1c-3.1-4-2.6-8.9-2.5-13.4c0.4-17.2,1.1-12.9-15.6-14.8
				c-5.9-0.6-11.9,0.7-17.9,0.7c-7.5-0.2-14.9,0-22.4,0c-2.8,0-5.1,0-3.7,3.9c0.5,1.3-0.1,2.6-1.3,3.5c-1.7,1-3.2,0.4-4.5-0.7
				c-1.5-1.4-2.7-0.4-4,0.2c-0.4,0.1-0.9,0.2-1.3,0.1c-1.3-3.4-4.9,0.5-6.5-2c-0.2-0.4-0.4-0.9-0.5-1.4c-0.5-6.2-0.6-6.1-6.7-7.3
				c-2.8-0.5-6.1,0.5-8.3-2.2c1.4-2.6,4-2,6.2-2c10.6-0.1,21.1,1.3,31.7,1c2.1-0.1,4.2,0.2,6.4,0c0.6,0,1.2,0,1.9,0
				c22.9,0,45.8,0,68.8,0c2,0,4,0.2,5.9-0.6c3.1-2.6,6.2-3.7,9.6-0.2c1.3,1.3,3.5,0.8,5.3,0.8c12.8,0,25.6,0,38.4,0
				c3.4,0.8,5.3-1.9,7.8-3.2c1.1-0.4,2.3-0.6,3.4-0.8c3-0.3,2-4.6,4.9-4.9c0.5,0.1,0.9,0.4,1.1,0.8c1.6,5.2,2.7,5.5,7.6,2.4
				c1.8-0.6,3.2,0.6,4.7,1.2c2.2,0.9,4.4,0.9,6.6,0.3c0.3-0.1,0.6-0.4,0.8-0.5c1.9-1.1,1.3-4.9,3.8-4.5c2.1,0.3,0.7,3.7,2.5,5
				c2.1,0.8,4.2,0.6,6.3-0.2c2.1-0.1,2.1-3.7,4.7-3c2.5,4.4,3.2,4.6,8.6,2.2c1.3-0.7,2.6-1.3,4.1-0.7c2.8,2.9,5.9,2.5,9.1,0.9
				c1.5-0.4,2.8,0.1,4.2,0.6c2.3,0.8,4.6,0.8,6.9,0.4c0.7-0.1,1.2-0.5,1.7-0.9c1.1-1,0.8-3.7,2.9-3.4c1.8,0.3,1,3,2.2,4.1
				c0.7,0.5,1.5,0.8,2.3,1c1.3,0.4,2.7,0.6,3.8,1.3c0.4,0.3,0.7,0.6,1,0.9c2.2,2.2,5.6,0.3,7.9,2.2c1.8,3.1,1.7,5.9-1.7,7.8
				c-1.5,0.8-1.7,1.7-1.3,3.1c0.5,3.2,0.2,6.5,0.4,9.8c0.1,1.6-0.4,3.3,1.2,4.5C537.6,86,538.8,88.2,537.9,91.1z"/>
			<path class="st7" d="M284,72.1c2.4-1.4,2.7-3.4,1-5.3c-3.6-4.1-0.3-3.6,2.3-3.6c8.6,0,17.2,0,25.7,0c-0.8,3.3-3.7,2.4-5.7,2.3
				c-5.1-0.3-9.8,1.1-14.4,3c-1.9,0.8-3.2,1.6-2.9,3.9c0.8,5.6,0.1,11.2,0,16.8c0.1,1.2-0.2,2.2-0.9,3.1h0.1c-0.7,0.2-0.8,1-1.2,1.5
				c-2.1,1.9-1.8,4.3-1.4,6.8c0,0.5-0.1,1-0.2,1.4c-0.4,0.9-0.8,2.1-1.9,2.1c-1.1,0-1.4-1.3-1.6-2.2c-0.3-1.1-0.3-2.3-0.3-3.5
				c0-1.9-0.6-3.2-2.9-3.1c-3.5,0.3-6.9-1.1-10.3-0.9c-3.6-0.2-7.3,0-10.9-0.6c-6.1-0.9-11.6,4.9-10.7,11.1c0.1,1,0.6,1.9,0.7,2.9
				c0.1,0.9,0.1,1.7-0.7,2.2c-1,0.6-1.9,0.1-2.6-0.7c-2.2-2.5-3.2-5.4-3.1-8.7c0-1.5,0.9-2.9,0.5-4.7c-2,0.6-2.6,2.4-3.4,3.9
				c-1.4,5-1.8,10.2-4,15c-4.9-0.7-7.3,2.1-9.6,5.9c-5.3,8.8-11.1,17.4-16.6,26.1c-2.7-1-1.8-3.2-1.5-5c0.5-2.5,1.5-4.8,2.8-6.9
				c3.5-6,5.1-12.6,7.1-19.1c1.1-3.7-0.2-5.3-3.6-6.1c-1-0.2-2-0.3-3-0.3c-5.6-0.1-6.7-1.8-4.6-7.1c1.1-2.7,2.2-5.4-1-7.5
				c-3.7-2.9-7.8-3.8-12.5-3.7c-15.3,0.3-30.6-0.4-45.9,0.6c-18.9,1.2-37.4,5.7-56.1,8.7c-14.2,2.3-28.4,4.9-42.7,7.4
				c-2.8,2.5-6.3,1.4-9.6,1.7c-1.4,0.1-2.9-0.4-4.4,0.2c-6.9,1.2-13.8,1.5-20.8,2c-5.3,0.4-6.6-2.2-7-6.6C5.2,92.8,4.1,80.6,3,68.3
				c-0.3-3.1-0.7-6.3-1.1-9.4c0.5-3.1-0.5-6-0.9-9c0-4,0.1-7.9,0.1-11.9c3.6-0.9,7.3-1,10.9,0c2.7,0.3,4.5,1.1,2.5,4.3
				c-2.4,4,0.7,7.6,1.5,11.3c-2.4,2.3,1.2,2.5,1.4,3.8c-0.3,2.7-3,4.9-1.6,7.9c0.1,0.4,0.1,0.9,0,1.3c-0.6,2,1.3,3.6,1,5.5
				c0,0.4-0.1,0.9-0.2,1.3c-0.6,4,2.5,7.3,1.8,11.3c0,0.5,0,0.9,0,1.4c-0.4,4,3.1,7.2,2.1,11.3c0.2,1,0.6,1.9,0.7,2.9
				c0.5,5.3,1.4,5.7,5.6,2.9c2.1,0.6,4.1,3,6.3-0.1c0.8-1.1,2.1,0.1,3.1,0.2c5.3,0.5,10.7,1.7,14.9-3c0.5-0.5,1.1-0.8,1.8-1.1
				c1.9-0.5,3.6,2.3,5.5,0.2c0.4-0.3,0.8-0.5,1.2-0.6c2.8-1.2,6.3,1.3,8.7-1.7c0.7-0.5,1.5-0.9,2.5-0.9c1.3,0.2,2.4,1.7,4,0.8
				c1-0.5,2-0.9,3.1-1c4.5,2.2,6.8-1.2,9.4-3.7c0.7-0.6,1.5-1.1,2.5-1.1c2,0.6,1.6,2.1,1.1,3.6c1.3-0.8,2.4-1.6,3.5-2.6
				c0.7-0.6,1.5-1.1,2.5-1.2c4.2,2,15.3,0.5,17.4-4c0.3-0.7,0.8-1.4,1.3-2.1c0.8-1.1,1.8-2.1,3.3-1.2c1.5,0.9,1.1,2.2,0.4,3.5
				c-0.5,1-1.2,1.9-1.8,2.9c0.8-0.7,1.6-1.1,2.6-1.4c2.4-0.7,5.4,1.4,7.2-1.6c1.1-1,2.1-1.9,3.6-2c2.1,0.9,3.6,1.9,6.2,0
				c2.7-1.9,7-1,10.1-0.6c3.3,0.4,6.7,0,9.8,0.1c3.5,0,7.7,1.4,11.2-0.7c0.5-0.3,1.3,0,1.9,0.2c0.9,0.2,1.7,0.5,2.6,0.6
				c1.9,0,3.6,1.9,5.6,0.4c1-0.6,2-1,3.2-0.5c1.2,0.9,2.4,1.6,3.9,0.6s3-0.7,4.3,0.4c1.3,0.5,2.4-0.5,3.6-0.4
				c1.3-0.1,2.4,0.8,3.6,0.9c2.4-1.2,4.9-2,6.2-4.7c0.2-0.4,0.5-0.8,0.8-1c1.4-0.7,2.7-1.7,3.6-2.9c0.5-0.6-0.5-0.4-0.8-0.6
				c-3.5-2-0.2-3.9,0-5.5c-0.5,0.8-1.9,1.7-2.7,1.2c-4.4-2.5-10,1.5-14.1-2.4c-3.1,3.8-7.2,0-11,1.1c-3.3,0.9-7.7,1.4-11.5,0.2
				c-0.9-0.3-1.5-0.3-2.3,0c-3.5,1.1-7.4-0.5-11.4-1.4c-2.1-0.5-4.3-2.5-6.8-1.5c-0.4,0.2-0.8,0.3-1.3,0.3c-0.9-0.1-1.5-0.7-2.1-1.2
				c-1.2-0.9-2.2,0.1-3.3,0.3c-1.1,0.3-2.1,0.1-3.1-0.6c-0.7-0.5-1.4-0.9-2.2-1.1c-1.2-0.3-2.2-1.3-3.4-1.4
				c-1.1,0.1-2.1,0.4-3.2,0.3c-2,0.2-2.8-2.9-5.1-1.7c-0.4,0.1-0.8,0.2-1.3,0.2c-1.2-0.2-2.1-1.5-3.5-1.2c-0.6,0.2-1.2,0.4-1.9,0.4
				c-1.7-0.2-2.7-1.3-3.2-2.7c-0.7-1.9-0.5-3.6,2-3.4c7.2,0.7,14.2-2.6,21.4-0.4c1.3,0.4,2.5-0.8,3.7-1.3c1.7-0.7,3.6-2.6,4.7,0.6
				c0.1,0.4,0.3,0.8,0.5,0.6c2.9-1.9,5.7-2.6,9.1-0.9c1.5,0.7,4.5-3.8,5.5,1.2c0.1,0.4,0.3,0.4,0.7,0.2c5.9-2.7,12.3,1.5,18.2-1.3
				c3.6,2.9,8,0.8,11.9,1.2c7,0.7,14.3,1.8,21.4,0.1c5.9,0.8,11.9-1.1,17.7,1.1c0.5,0.4,0.6,0.9,0.3,1.5c-2.4,1.9-5.3,1.2-8,1.6
				c-7.5,1.2-7.5,1.1-7.6,8.7c-0.1,3.9,2,5.1,5.6,5.1c11.9-0.1,23.8,0,35.7,0c1.8,0,3.6-0.1,5.4,0.4c4.5,2,0.6,3.5-0.2,5.1
				c3.6-2.2,5.5,1.9,8.3,2.8c1.2,0.4,1.7,0.3,2.4-0.3c3.8-4.1,5-0.3,6.6,2.9c1.7-2.6,2.6-5,4-7.1C283,76.1,281.8,73.9,284,72.1z"/>
			<path class="st8" d="M205.1,95c3.6,0.7,4.2,2.8,2.8,5.8c-0.5,1.2-1.3,2.4-1.6,3.7c-0.6,2.6-0.5,4.8,3.3,3.8
				c1.2-0.3,2.7-0.2,3.9,0.1c6.2,1.5,6.3,2.1,4.7,8.4c-2,7.6-4.8,14.8-8.4,21.7c-1.3,2.5-3,5.3-1.1,8.4c-1.4,3.7-5.9,6.5-2.5,11.5
				c0.5,0.7-1,4.6-4.4,3.4c-1.5-0.5-3.2-0.8-4.8-1.1c-8.7-3-17.7-4.4-26.5-6.7c-5.1-1.3-5.3-1.7-2.4-6c9.2-13.3,20.1-25.2,30.3-37.8
				c1.9-2.3,3.7-4.7,5.6-7C206.2,100.7,206.8,98.1,205.1,95z"/>
			<path class="st9" d="M289,89.1c-2.2-2,0.4-4,0.1-6c-0.3-1.8-0.4-3.7,0-5.4c0.8-3.2-3-7.6,0.1-9.1c4.3-2.1,8.8-4.9,14.2-4.5
				c3.2,0.2,6.6,1.1,9.6-0.9c9.3,0.1,18.6-1.4,28-0.1c6.1,0.9,7,1.2,7,7.3c0,7.2-0.4,14.5,1,21.7c-7.7,0-15.3,0-23,0
				c-0.8-4,2.4-3.3,4.5-3.9c1.6-0.5,3.7,0.7,4.5-1.7c1.8-5.7-1-11.5,0.5-17.2c-1.3,4.2,0.2,8.5-0.2,12.8c-0.2,2.1,0.3,4.4-2,5.8
				c-12.5,2.4-25,3.4-37.7,2.8C293.3,90.5,290.9,90.8,289,89.1z"/>
			<path class="st10" d="M592.9,56.2c-0.1,0.3-0.2,0.5-0.2,0.8c-14.3,0-28.6,0.2-42.9-0.1c-4.2-0.1-6.2,0.9-5.8,5.2
				c-0.7,0.7-1.1,1.6-1.7,2.4c-0.8,1.3-1.2,3.8-3.1,3.3c-1.9-0.4-1.2-2.7-1.3-4.3c0.3-2.8-0.5-5.5-0.5-8.3c0.2-1.9-0.1-3.9,0.8-5.7
				c3.8-1.4,7.6-1.9,11.6-1.6c6.5-1.4,13.1,0.7,19.6-0.6c5.6-0.4,11.2,0.5,16.8,0.5C592.5,47.8,593.8,49.7,592.9,56.2z"/>
			<path class="st11" d="M235,115c-0.6-5.6,1.8-10.6,2.9-15.9c1.8,1.5,1.3,3.6,1.6,5.5c0.6,3.8,2.9,6.2,6.6,6.2
				c7.4,0.1,14.8,1.6,22.3-0.1c2.7-0.6,5.3-1,6.3-4c0.9-3.1,0.5-5.8-1.9-8.2c-1.6-1.5-4.1-2.5-3.9-5.4c4.6-0.9,9,2.1,13.7,0.5
				c1.5-0.5,1.4,1.4,1.4,2.5c0.1,2.3,0,4.5,0,7.3c0.9-1,1.5-1.6,2.1-2.3c0.3-0.1,0.7-0.2,0.9,0c2.8,2.9,1.6,10.1-2.1,12.2
				c-1.5,0.9-2.9,2-5,2C265,115.1,250,115,235,115z"/>
			<path class="st12" d="M538.9,64.1c0,1,0,1.9,0,3.5c1.9-2.2,1.8-5.5,5-5.5c0.1,1.7,0.3,3.3,0.2,5c-0.1,2.5-0.2,4.8,3.5,4.2
				c1.8-0.3,2.2,0.8,2.1,2.5c-0.1,1.5,0,3,0.3,4.5c0.7,4.2-0.8,5.9-5.1,4.8c-0.9-1.4,3.3-2.5,0.3-3.8c-1.4-0.6-3.5-3-4.6-0.9
				c-1.6,3,2.4,3.2,3.6,4.9c-6-0.4-4.9,4.7-6.2,7.9c-0.5-2.3-1.1-4.5-3.1-6c0.1-0.5,0.2-0.9,0.3-1.4c0.8-3,0.3-6,0.4-9
				c-0.7-2,1.2-5.2-2.7-5.6c-1.1-1.1-1.4-3.3-0.2-3.2c6.3,0.5,3.7-4,4.3-6.8c0.2-0.1,0.5-0.1,0.7-0.2
				C539.4,60.3,537.5,62.6,538.9,64.1z"/>
			<path class="st13" d="M289,89.1c3.8,0,7.6-0.3,11.4,0.1c11.4,1.2,22.4-2.2,33.7-2.1c0.7-0.5,1.3-0.6,1.9,0
				c-0.3,2.5-2.3,1.8-3.8,2c-2.4,0.3-5.1-0.1-6.2,2.9c-12.3,0.1-24.6,0.1-36.9,0.2C289.1,91.2,289,90.1,289,89.1z"/>
			<path class="st14" d="M284.9,113.3c3.1-3.9,3.6-8.9,1.2-12.2c0-0.3-0.1-0.7-0.1-1c0.8-2.3,0.4-4.9,1.9-7c0.4-0.3,0.8-0.5,1.3-0.8
				c-0.2,10.4-0.4,20.7-0.4,31.1c0,3.4-1.3,5.2-4.7,6.3C285.6,124,285.1,118.6,284.9,113.3z"/>
			<path class="st15" d="M544.2,83.2c-1.6-0.5-4,0.7-4.9-1.3c-0.8-1.8-1.1-4.2,0.2-5.7c0.9-1.1,3.1-0.3,4.4,0.8
				c0.4,0.3,0.7,0.7,1.2,0.9c1.3,0.6,3.6-0.5,3.8,2.1c0.1,2.8-3,1.4-3.9,3l-0.3,0.2H544.2z"/>
			<path class="st16" d="M34,109.9c4.5-1.7,9.3-1.5,14-1.9c-2.7,3.7-5.3,7.1-10.2,2.4C37.1,109.7,35.3,110,34,109.9z"/>
			<path class="st17" d="M263,27.2c26.4,0,52.7,0.1,79.1,0.1c23,0,46-0.2,69.1-0.2c21.9,0,43.7,0.2,65.6,0.3c5.3,0,10.6,0,15.9-0.1
				c1.5,0,3,0.2,4.1-1.2c6.1-2.1,9.3-0.8,10.2,4.2c-1.8,1.5-4,0.6-5.9,1c4.9-0.8,10.1,0.7,14.8-1.5c0.6-0.9,0.9-2,2-2.6
				c3.7-0.1,7.2,0.1,10.1,2.9c1.1,2.4,0.1,3.8-2.3,4.3c-1.9,0.4-3.9,0.4-5.9,0.3c-8.4-0.1-16.7-0.2-25.1,0.1
				c-26.1-0.2-52.2,0-78.3,0c-41.2,0-82.5-0.1-123.7-0.2c-7.2,0-14.3,0.5-21.4,0.1c-4.3,0-8.4-2-12.7-0.7c-1.4,0.3-2.7,0.4-4-0.3
				c-1.5-1.6-1.2-3.4-0.4-5.2C256.6,25.6,260,27.9,263,27.2z"/>
			<path class="st18" d="M208.2,14.2c1.6-2.9,2.8-6.1,7.4-3.2c2.1,1.3,5.2,0.4,8.3-2.6c-2.4,7.3,1.6,7,5.6,6.8c2.1-0.1,4.3,0,6.5,0
				c0,0.3,0,0.6,0,1c-0.5,4.3-4.6,1.3-6.3,3.2c-0.4,1.2-0.4,2.5-1,3.7c-0.7,1.1-2.8,1.5-1.7,3.5c2.4,0.6,5.9-0.1,5.6,4.1
				c-2.4,1.9-6.2,0.5-8.2,3.4c-3.8,0.9-7.8,0.2-11.6,0.5c-1.1-0.1-2.2-0.1-3.3-0.1c-1.6,0-3.2,0-4.9,0c-1.1,0-2.1,0-3.2-0.2
				c-0.8-0.1-1.6-0.3-2.3-0.8c-1.3-1.8-2.8-3.6,0.2-5.2c0.9-0.3,1.9-1,2.8-1c4.7,0.2,9.4,0.8,6-6.6C207,18.9,210.3,16.6,208.2,14.2z
				"/>
			<path class="st19" d="M228.1,18.3c1.1-1.8,2.9-1.3,4.2-0.8c1.9,0.8,2.6-0.4,3.6-1.3c0.6,6.5,1.3,7,7.9,7.3
				c5.4,0.3,11.2-1.8,16.3,1.7c1,1.8,0,2.4-1.6,2.5c-2.3,0.1-4.6,0.1-6.8-0.4c-4.2-1.2-8.4,0.7-12.6,0.4c-0.5,0.1-1,0.1-1.4,0
				c-3.7-1.7-7.6-1-11.4-0.5c-0.4-1-2.3-1.1-1.6-2.7c0.7-1.5,2.1-1.3,3.4-1.3C229.4,21.6,229.4,19.9,228.1,18.3z"/>
			<path class="st20" d="M517.9,27.2c-0.4,0.9-0.7,1.9-1.1,2.8c-3.2,1.7-6.5,1.7-9.8,0c-2-4.9-6.5-3.4-10.3-4
				c-0.2-0.2-0.2-0.4,0-0.7c0.7-3.9,3.8-3.9,6.6-3.8c1.3,0.1,2.5,0.9,3.5-0.4C512.4,19.8,515.2,23.4,517.9,27.2z"/>
			<path class="st21" d="M530.8,33.1c6.7-1.9,7.2-1.7,7.9,4.8c0.4,3.3,2.7,2.4,4.4,2.4c13.9,0.1,27.8,0.1,41.7,0.1
				c0.3,0.6,0.1,1.1-0.5,1.4c-1,0.6-2.2,0.7-3.3,0.7c-4.3,0.1-8.6,0-13,0.1c-1.2,0.1-2.3,0.1-3.5,0c-4.4,0-8.8,0-13.3,0
				c-1.4,0-2.9,0.1-4.3,0c-2.5,0-4.9,0.1-7.4-0.2c-0.5-0.1-1-0.3-1.4-0.5c-1.5-1.5-3.2-2.6-5.4-2.9c-0.5-0.2-0.8-0.5-1.2-0.8
				C530.6,36.6,530.5,34.9,530.8,33.1z"/>
			<path class="st22" d="M506.9,21.3c-0.6,1.1,1.7,6-2.9,1.9c-2.6-2.3-5.2,0.4-7.3,2.2c0-4.5,1.9-8.7,1.3-13.3c2.6-0.4,4.9,0.5,7,2
				C506.1,16.4,503.9,19.6,506.9,21.3z"/>
			<path class="st23" d="M530.8,33.1c1.7,1.4,0.8,3.4,1.1,5.1c-0.2,0.2-0.4,0.4-0.6,0.6c-0.5,0.3-1,0.5-1.6,0.6
				c-3.9,0.1-7.8,0.9-11.7-0.7c-2-2.7-0.4-4.2,1.9-5.4c1.8,0,3.6-0.2,5.4-0.1c2.3,0.1,2.7-1.2,2.6-3.1
				C529.6,30.4,528.3,33.6,530.8,33.1z"/>
			<path class="st24" d="M505,14.2c-2.6,0.4-4.8-0.8-7-2c0-0.2-0.1-0.3-0.1-0.5c0.4-2-1.5-5.8,1-5.8c2.6,0,6.4,1.9,5.9,6.3
				C504.9,12.9,505,13.5,505,14.2z"/>
			<path class="st25" d="M584.9,41c0-0.2,0-0.5,0-0.7c3,0.2,6.1-1,9,0.8c0,2.7-0.1,5.4-0.1,8.1c-2.2,1.1-2.9-1-4.2-1.9
				c-1.4-1.6-6.2-3-0.4-5.2c-0.1-0.1-0.2,0-0.3,0c-1,0-1.9,0.1-2.9-0.2C585.5,41.7,585.2,41.4,584.9,41z"/>
			<path class="st26" d="M251,26.2c1.6-0.1,3.2,0.3,4.8,0.7c1.6,0.4,3.7,1,4.2-1.7c1.1,0.6,1.4,2.2,3,2.1c-2.7,2.2-6.2-0.1-9,1.8
				c-1.6,0.4-2.7,2.4-4.8,1.5c-1.4-1.8,0.3-2.8,1.1-4.1C250.6,26.4,250.8,26.3,251,26.2z"/>
			<path class="st27" d="M96.1,38.3c0.3,0,0.7,0,1,0c1.4,2.3-1.3,3.2-1.6,4.9c-1.2,1.1-2.2,2.2-3.1,3.7c0.9-0.8,1.3-2,2.3-2.7
				c1.4-0.8,1.6-2.4,2.5-3.5c1.5-1.9,3.8-3,5.4-1.7c1.9,1.6-1.2,2.7-1.5,4.3c-1.7,2.5-3.9,4.7-5.7,7c-2.6,1.3-2.9,4.6-5.3,6.2
				c2.6-1.5,3-5.1,5.7-6.6c1.5-2.1,3.4-3.7,4.9-5.8c1.6-1.6,2.2-5.5,5.9-2.6c0.5,3.4-3.2,4.3-3.8,6.4c1.4-2,3.9-3.7,4.9-6.7
				c0.3-0.4,0.6-0.8,0.9-1.1c1.5-1.6,3.7-2.3,5.1-1.1c1.9,1.6-0.6,2.9-1.4,4.3c-1.4,2.5-4.2,4-4.7,7.1c1.7,4,2.4,7.3-3,9.8
				c-2,1-3.6,4-6.2,5.1c-1.2-0.4-1.9-1.2-2.5-2.3c-0.2-1.3,1.2-1.4,1.7-2.2c-0.8,0.4-1.6,0.9-2.3,1.5c-0.5,0.4-1,0.8-1.7,1
				c-2.5-0.5-3.9,1.3-5.5,2.7c-0.3,0.3-0.6,0.6-0.9,0.9c-1.5,2.4-4.3,3.7-5.2,6.6c-0.4,1.7-0.5,3.8-3.1,3.5c-2.4-1.2-3.6,2.6-6,1.4
				c-1.3-1.5-6.1-1.7-2.2-5.3c4.2-0.6,6.7-3.6,9-6.6c0.2-0.4,0.4-0.7,0.8-1c0.9-0.7,2.2-1,2.4-2.4c-1.3-1.7-2.3,0.8-3.5,0.3
				c-1.1-0.4-1.9-1.3-2.7-2c-0.7-0.7-1.1-1.5-1.2-2.5c0.9-3.6,3.3-6,6.1-8.3c3.2-2.4,6.3-5,8.8-8.2C91.7,40.5,93.4,38.7,96.1,38.3z"
				/>
			<path class="st28" d="M15.1,54.1c-0.8-2.8-2.9-5.1-2.7-8.3c0.1-1.3-0.1-2.8,0.8-3.6c2.8-2.4,0-2.9-1.1-4c15.3,0,30.7-0.1,46,0
				c0.9,0,1.9,0.5,2.8,0.7c0.1,0.2,0.3,0.4,0.4,0.6c-0.7,2.7-2.4,4.4-5.2,5c-0.9-0.2-1.7-0.6-2.3-1.4c-0.1-0.5,0-0.9,0.2-1.6
				c-1.3,1.5-2.6,3.1-4.8,3c-0.9-0.2-1.7-0.6-2.3-1.4c-0.4-0.3,0.2-1.5-0.3-1c-1.5,1.4-2.8,2.8-5,2.5c-0.7-0.2-1.2-0.6-1.6-1.1
				c-1.9-1.7-2.9,1.4-4.6,0.8c-0.7-0.2-1.2-0.6-1.7-1.1c-3.3-1.2-4.6,2.5-7.1,3.1c-3.6-0.2-4.5,3.4-6.8,4.9
				C18.1,52.2,17.8,55.1,15.1,54.1z"/>
			<path class="st29" d="M150.2,34.1c1.6-0.6,3.1-1.2,4.8-0.9c0.4,2.1-1.3,2.6-2.4,3.6c1.8-1.7,4-2.8,6.3-3.7l0,0
				c1.4-0.5,2.8-0.9,4.2,0.3c-0.7,3.6-5.9,4.1-5.5,8.3c-1.7,4-5.6,5.9-8.5,8.6c-1.1,1.1-2.9,1.1-4-0.2s0-2.5,0.8-3.5
				c1.4-1.7,3.3-3,5-4.3c-3.3,1.9-5.9,4.7-8.7,7.3c-1.1,1-2.6,1.9-4,0.6c-1.6-1.4-0.1-2.7,0.7-3.8c1.3-1.7,2.8-3.3,2.9-5.6
				C143.7,37.3,145.8,34.2,150.2,34.1z"/>
			<path class="st30" d="M96.1,38.3c-1.7,1.6-3.4,3.2-5.1,4.8c-0.7-0.4-1.5-0.2-2.1-0.8c-3.7,1.7-6.8,4.5-10.2,6.7
				c-1.5,0.9-2.8,2.3-4.8,1.9c-1-0.4-1.5-1.1-1.6-2.1c-0.4-2.1,2.2-3.3,1.6-5.5c-0.3-1-0.6-2.1-1.8-0.7c-1.4,1.5-2.6,3.4-4.8,4
				c-1-0.1-1.7-0.5-2.4-1.2c-0.5-2.4,3-3.7,1.8-6.4c6.4-1.5,13-0.3,19.5-0.8C89.5,38,92.8,38.2,96.1,38.3z"/>
			<path class="st31" d="M111,42.9c0.8-1,1.6-2,2.7-3.3c-3.2-1.2-4.1,1.5-5.8,2.7c-0.6,0.3-1.1,0.4-1.7,0c-3.8-3.1-3.2,2.5-5.3,2.7
				c-0.6-0.5-0.8-1.3-0.9-2.1c-0.1-1.7,2.1-1.9,2.5-3.4c-5.1-1.2-5,3.7-7.4,5.6c-0.7-0.8-0.7-1.6,0-2.4c0.7-1.5,1.3-3,2-4.5
				c8.3-0.3,16.7-0.7,25-1c1.5,3.5-1.4,4.7-3.2,6.5c-3,1.5-4.7,4-5.5,7.3c-0.9,1.4-2,3.2-3.8,2.4c-2.2-1-0.8-3.1-0.7-4.8
				C109.2,46.6,111.3,45.2,111,42.9z"/>
			<path class="st29" d="M150.2,34.1c-3.2,1.7-5.7,3.9-7.3,7.2c-2,2.9-4.8,5-7.1,7.7c-1.5,1.7-3.7,3.2-5.6,1.3
				c-2-2.1,0.6-3.4,1.8-4.8c0.3-0.4,0.8-0.6,1.2-0.9c2.6-1.8,4.7-4.1,6.6-6.4c-4.9-1.9-9.2,1.3-13.8,1.4c-1.2-0.7-2.5-1.2-3.3-2.5
				C131.9,35.4,141,33.9,150.2,34.1z"/>
			<path class="st32" d="M66.7,38.9c2,0.3,2.5,1.4,1.3,3c-0.9,1.2-2,2.1-3,3.2c0.9,3.2-2.6,4.2-3.3,6.5c-2.1,2-3.4,0.4-4.7-1.1
				c-0.6-2.7,3-3.9,2.3-6.6c-0.1-1.8,2.6-2.6,1.8-4.7l-0.3-0.4C62.9,37.7,64.8,38.1,66.7,38.9z"/>
			<path class="st33" d="M199.1,28.3c-1.2,1.6-0.1,3.2-0.1,4.8c-0.8,1.3-2.1,1.7-3.6,1.7c-0.9-0.1-1.7-0.3-2.6-0.4
				c-1.5-0.2-3,0.2-4.4,0.3c-1.2-0.2-2.7,0.4-3.7-0.8c-0.2-0.7-0.2-1.3,0.4-1.8C188.8,27.5,194.1,28.4,199.1,28.3z"/>
			<path class="st28" d="M122.8,37c1.4,0.2,3.1-0.1,3.3,2.1c0,0.2,0,0.5,0,0.7c-1.2,3.8-6.1,4.8-6.6,9c-3.5,4.5-3.8,4.5-5.9,0.4
				c1-2.4,2.6-4.4,4.5-6.1c1.7-1.7,3.8-3.2,4.1-5.9C122.2,36.9,122.5,36.9,122.8,37z"/>
			<path class="st34" d="M157,41.1c-1.6-0.2-2.3-0.6-0.7-2c2-1.7,3.9-3.5,6.2-5.6c-1.4-0.2-2.4-0.3-3.5-0.4c2.9-0.8,5.8-2.5,8.2,1
				c-0.1,0.2-0.3,0.4-0.4,0.6c-2.9,1.3-4.5,4.3-7.2,5.9C158.8,41,157.9,41.2,157,41.1z"/>
			<path class="st35" d="M185.1,32.1c0,0.7,0,1.3-0.1,2c-0.7,2.6-2.7,4-4.8,5.4c-0.9,0.2-1.8,0-2.7-0.3c-0.7-0.2-1.3-0.6-1.6-1.2
				c0.1-3.6,4-4.2,5.3-6.7C182.5,31.2,184,30.6,185.1,32.1z"/>
			<path class="st36" d="M167.1,34.1c2.4-2.2,5.1-2.8,8-1.1c-0.8,2.3-3.1,2.9-4.6,4.5c-0.9,0.6-1.7,1.4-2.6,2.1
				c-0.4,0.2-0.9,0.3-1.3,0.3c-1-0.1-1.8-0.5-2.1-1.5c-0.2-1.9,0.7-3.2,2.2-4.1L167.1,34.1z"/>
			<path class="st37" d="M181.1,31.3c0.2,3.7-4.3,3.9-5.1,6.9c0.2,1.5-0.8,1.6-1.8,1.6c-1.7-0.4-1.6-1.6-1.1-2.8
				c0.7-1.4,1.8-2.5,2.9-3.7C177.4,31.8,179.4,32,181.1,31.3z"/>
			<path class="st38" d="M159,33c-2.6,2-5.1,3.9-8.2,6.2c-0.2-3.6,3.7-3.7,4.3-6.1C156.4,33.1,157.7,33.1,159,33z"/>
			<path class="st32" d="M176,33.2c0.8,2.2-1.2,2.7-2.2,3.8c-1.4,1.2-2.7,2.3-4.1,0c1.4-1.9,3.3-3.2,5.5-4.1
				C175.4,33.1,175.7,33.2,176,33.2z"/>
			<path class="st39" d="M590.8,46.1c0.1,1.9,1.1,2.9,2.9,3.1c0,2.3,0.9,4.8-0.8,6.9c-0.3-6.6-0.7-7-7.1-7.1
				c-5.6,0-11.3,0.2-16.9-0.9c-1.1,0.4-1.5-0.4-1.9-1.2c-0.5-2-0.7-3.9,0.7-5.7c4.8,0,9.5,0,14.3,0c0.4,0.7,0.4,1.4-0.1,2.1
				c-2.8,1.5-5.8,0.2-8.3,0.8c2.3-0.1,5-0.3,7.7,0.1c1.5,1.4,3.3,2,5.3,1.1C588,45.9,589.5,45.2,590.8,46.1z"/>
			<path class="st40" d="M231,58.3c-6.4-0.7-12.8,0.9-19.1-1.1c0.2-0.2,0.4-0.3,0.6-0.5c2.4-0.1,4.9,0,6.8-0.1
				c-1.5-0.1-3.6,0.1-5.7-0.1c-2.8-1.3-0.9-4.2-2.4-6.3c-2.8,1.8-4.7,4.8-7.6,6.2c-1.4,0.7-3.2,2-4.5,0.4c-1.3-1.7,0.3-3.1,1.4-4.3
				c1.6-1.9,3.5-3.6,5.4-5.2c1.4-1.2,2.8-2.4,2.7-4.5c0.7-2.1,2.3-3.6,3.2-5.6c0.9-0.8,1.8-0.9,2.7-0.1c2.2,3.4-0.4,7.8,2.2,11.1
				c3.3,0.8,6.6,0.4,9.9,0.3c4.1-0.1,7.9,0.2,11,3.5c1.8,1.8,4.3,1.4,6.6,1.5c2.4,0.1,5-0.4,7.2,2.1c-4.2,1.5-8.2,0.4-11,0.7
				c6.3,1.8,12.7-2,19.5-3c1.7-0.3,2.4-1.6,3.1-2.9c1.9-2.5,3.4-2,4.8,0.7c-0.4-4.8,0-9.5-0.3-14.2c0-0.7-0.2-1.5-0.1-2.2
				c0.1-0.6,0.4-0.9,1-1.1c0.8-0.1,1.6,0.1,2.2,0.6c1.5,2.1,3.7,2.4,6.1,2.4c3.1,0.1,6.2-0.5,9.2,0.8c5.2,4.9,13.2,4.6,18.8-0.9
				c2.5-0.2,4.9,0.2,6.9,1.9c5.4,3.6,13,3.1,18.6-1.4c2.2-0.6,4.4-0.7,6.5,0.3c5.6,5.1,12.9,4.8,19.2-0.8c2.5-0.1,4.9-0.2,7.2,1
				c4.3,4.4,12.9,4.4,17.4-0.1c0.6-0.6,1.3-1,2.1-1.1c10.2,0.1,20.3,0,30.5,0.1c2.7,0,5.4-0.2,7.7,1.4c2.6,3,6,2.8,9.5,2.8
				c2.8,0,5.5-0.4,8.3,0c0.5,0.2,0.8,0.6,0.8,1.2c-0.6,2.9-2.9,1.2-4.4,1.7c1.1,0.3,2.7-0.7,3.2,1.3c-0.7,1.4-2.1,2-3.3,2.9
				c-2.7,1-3.7,3-3.6,5.8c0,2.1,0.1,4.4-2.3,5.6c-14.2,0-28.5,0.1-42.7-0.1c-1.7,0-3.7,1-4.9-2.4c-0.9-2.6-3.9-0.4-5.3,1.6
				c-0.2-0.1-0.4-0.2-0.6-0.3c-1.6-2.2-2.8,0.6-4.3,0.4c-0.7-0.4-1-1.1-1.3-1.8c-0.5-2.5-2.1-3.3-4.5-3.7c-4.5-0.7-9,0.1-13.4,0.3
				c-13.5,0.7-27.1-2-40.6,0.1c-4.2,0.7-8.5-0.5-12.8-0.8c-2-1.2-4.4-1-6.6-1.5c-0.1,0-0.3-0.3-0.4-0.2c-0.4,0.2-0.4,0.4,0,0.7
				c0.2,0.6,0.2,1.2,0.1,1.7c-0.9,2,0.6,3.9,0.4,5.9c-11.1-0.3-22.1-0.6-33.2-0.9c-1.6,0-3.3-0.6-4.8,0.8c-0.7,0.8-1.5,0.9-2.5,0.9
				c-4.9-0.7-9.9-0.2-14.9-0.4C234.8,59.4,232.7,59.7,231,58.3z"/>
			<path class="st41" d="M438,45.1c-1-1.5-2.8-0.4-4.1-1.4c1.5-1.3,4,0.4,5.1-1.7c2.1-5.3,2.5-5.5,7.9-4.4c3,2.9,11.1,4.4,14.7,2.8
				c1.8-0.8,1.9-2.6,2.8-3.9c3.2-0.8,6,0.7,8.9,1.6c0.8,0.8,1.3,2.5,2.4,2.3c4.9-0.7,10.2,0.8,14.8-1.9c3.2-2.6,6.1-1.2,9,0.5
				c1.4,1.1,3,1.2,4.7,1c4.1-0.5,8.2-0.3,12.3,0.6c5.2,0.5,10.7-0.1,14.9,4.1c0.6,1,0.7,2.2,0.5,3.3c-0.5,1.7-0.4,3.5-0.7,5.2
				c-0.3,1.9-0.5,4-3.2,3.8c0-0.4,0-0.7,0-1.1c-0.3-0.4-0.4-0.8-0.4-1.2c0.2-1.5,0.3-3.1,0.2-4.7c-0.1-0.7-0.1-1.3-0.2-2
				c-0.4-1.5-1.3-2.2-2.9-1.9c-1.5,0.3-2.2,1.3-2.3,2.8c-0.3,2.1,0.3,4.3-1.2,6.1c-1.9-1.2-0.6-3.3-1.6-5.4
				c-0.6,2.5-1.3,4.6-3.6,5.4c-1.5-1.8-1.2-4-1.1-6.1c0-1.8-0.7-2.7-2.6-2.7c-1.7,0-2.8,0.4-3,2.4c-0.1,1.9,0.4,4-1.4,5.5
				c-1.3-0.3-2.6-0.7-3.9-1c-1-0.8-1.1-2-1.2-3.2c-0.1-1.9-0.1-3.6-2.9-3.7c-2.5-0.1-3.7,0.8-3.8,3.4c0,1-0.3,2-1.3,2.6
				c-1.3,0.3-2.5,0.7-3.8,1c-0.9-0.6-1-1.6-1.2-2.5c-0.4-1.5,0.8-3.8-2-4.3c-2.6-0.4-4.5,0.4-5.2,3.1c-0.1,0.3-0.4,0.5-0.7,0.7
				c-1.4,1.2-1.1,4.1-3.9,4c-1.6-1.4-1.3-3.2-1.3-5c0-1.7-0.4-2.8-2.4-2.8c-1.9,0-3.1,0.5-3.2,2.7c0,2.1,0.4,4.3-1.2,6.1
				c-2.1-1.6-0.4-4.1-1.5-6.2c-0.8,2.4-1.6,4.7-3.6,6.2c-1.5-1.6-1.1-3.7-1.2-5.6c0-1.4,0.5-3.2-1.9-3.1c-1.8,0.1-3.1,0.7-3.4,2.8
				c-0.3,1.7,0.2,3.7-1.5,5c-1.3-0.7-2.6-1.4-3.9-2c-0.4-0.3-0.6-0.7-0.8-1.2c-0.9-1.5,0.8-4.2-2.3-4.7c-2.6-0.4-4.4,0.6-5.7,2.8
				c-1.8,1.7-1,5.3-4.2,6C437.4,52.1,440,48.1,438,45.1z"/>
			<path class="st42" d="M252.1,59.2c0.7-0.1,1.4-0.1,2-0.2c4.4,0.4,8.8,0.8,13.2,1c1.9,0.1,2.7,0.9,2.7,2.7
				c-0.1,2.1-0.1,4.3-0.1,6.4c-1.8,1.6-4,1.4-6.1,1.4c-14.9,0.5-29.7-0.8-44.6,0c-1.8,0.1-3.7-0.1-5.1-1.4c-0.2-7.8-0.2-7.6,7.1-9.3
				c3.3-0.8,6.6-0.5,9.8-0.7C238,59.2,245,59.1,252.1,59.2z"/>
			<path class="st43" d="M291.1,52.9c0-0.5,0-1.1,0-1.6c2.3-1.4,4.6-0.1,6.9-0.1c5.5-0.5,10.9,1.3,16.6,0.5c7-1,14.3-0.8,21.4-0.2
				c7.7,0.6,15.3,0.4,22.9-0.2c3.3-0.3,6.5,0.4,9.8,0.3c3.4-0.1,2,3.4,2.3,5.5c-1.9,1.6-4.1,1-6.2,1c-19.8,0-39.6,0-59.4,0.1
				c-2.1,0-4.4-0.5-6.3,1c-0.4,0-0.8,0-1.1,0C295,57.7,292.6,55.7,291.1,52.9z"/>
			<path class="st44" d="M480.8,84c-4.8-0.1-9.5,0.3-14.3,1c-2.6,0.4-6.2,0.9-6.4-3.4c-0.2-5,3.7-10.4,7.1-10.1
				c8.6,0.7,17.1,0.7,25.7,0.6c3.4,0,4,0.6,3.1,4.3C493.9,85.4,487.4,84.5,480.8,84z"/>
			<path class="st45" d="M214.1,69.1c18.6,0,37.2,0,55.9,0c0.1,0.3,0.2,0.6,0.3,0.9c1.4,2.2,1.7,4.5-0.4,6.3
				c-1.8,1.5-3.9,1.4-5.8-0.2c-14.6,0-29.2-0.1-43.7-0.1C213.7,76,213.7,76,214.1,69.1z"/>
			<path class="st46" d="M404.9,73.1c0.8-1.4,1.3-3.2,3.5-3c7.5,0.7,14.9-0.9,22.5,1.5c5,1.6,4.2,3.2,2.6,6.4c-0.5,1-1,2.1-1.6,3.1
				c-1.6,2.7-4.4,2-6.7,2.1c-6.1,0.3-12.1-0.8-18.2-0.5c-3.2,0.2-3.2-2.4-2-4.1C406.6,76.5,405.8,74.9,404.9,73.1z"/>
			<path class="st47" d="M380.9,72.1c-0.4-0.6-1-0.9-1.7-0.5c-1.3,0.8-1.9,2.1-2.5,3.5c-3.9,10.4-8.2,12.6-18.6,8.8
				c-4.8-1.7-4.8-6.9-5.8-10.8c-0.7-2.8,2.5-2.7,4.6-2.9c0.5,0.5,0.9,1.1,1.1,1.8c0.1,0.4,0.2,0.9,0.3,1.4c1.2,5.6,3.4,7.1,7.8,5.7
				c3-1,2.5-4.1,3.8-6c0.5-1,1.2-2,2-2.8c2,1.2,4,1.2,6.1,0c1.2-0.7,2.6-1.7,3.9,0C382.6,71.3,382.7,72.1,380.9,72.1z"/>
			<path class="st48" d="M264,76.1c4.8,0.8,6.9-1.2,6.2-6.1c2.2,0.2,2.9-2.5,4.9-2.6c1.6,0.9-0.9,2.9,1,3.7c0.8,4.1-3.7,4.6-4.9,7.5
				c1.7-2.8,5.5-3.8,5.8-7.6c3.3-5.8,4.8,0.2,7.1,1.1c-0.7,2.2,0.1,4.1,1,6c-2.1,2.3-4.4,3.8-7.7,2.3c-2.7-1.2-3,1.7-4.3,2.8
				c-1.1,1.9-2.3,5.4-3.4,0c-3.3,1.5-5.5-5.5-9.1-1.1c-0.4,0.5-1,0.8-2.1,0.3C260.3,80.2,262.1,78.2,264,76.1z"/>
			<path class="st49" d="M299,59.1c0.6-3.1,3.1-1.9,4.8-1.9c22.4-0.1,44.7-0.1,67.1-0.1c0.4,0.3,0.7,0.7,1.1,1c1.3-1,2.6-1,3.9-0.1
				l0.1,0.2c-1.7,1.5-3.8,0.9-5.7,0.9C346.5,59.1,322.8,59.1,299,59.1z"/>
			<path class="st50" d="M519.4,71c1.1,0.1,2.3-1.4,3.2,0c0.8,1.1-0.2,2.2-0.7,3.2c-1,2.3-2.1,4.5-3,6.8c-1.7,4-5.5,5.2-9.4,3.1
				c-1.3-0.7-1.6-1.5-1.1-2.8C511,74,511.1,71.4,519.4,71z"/>
			<path class="st47" d="M404.9,73.1c5,2.4,0.2,5.5,0.4,8.5c8.9-1.4,17.8,1.7,26.6-0.5c0.2,3.2-2,3.9-4.5,4
				c-7.6,0.1-15.2,0.1-22.8,0c-2.9,0-4.4-1.2-3-4.4C402.8,78.2,403.8,75.6,404.9,73.1z"/>
			<path class="st51" d="M450.9,85.1c-2.9-0.3-4.8-1.4-3.3-5.6c2.5-7.3,4.6-9,10.2-7.3c0.8,0.2,1.5,0.3,1.9,1.3
				C460.9,76.3,454.7,85.2,450.9,85.1z"/>
			<path class="st52" d="M500.1,85.1c-2.4-0.4-4.5-1.2-3.3-5c2.1-6.9,5.4-9.6,10.1-7.9c0.8,0.3,1.6,0.3,1.9,1.3
				C509.6,76.6,503.8,85,500.1,85.1z"/>
			<path class="st53" d="M435.6,80.8c1-3.9,1.6-8.2,6.4-9.5c1.4-0.4,3-0.5,4.2,0.8s0.8,2.7,0.2,4.2c-0.9,2.1-1.6,4.4-2.8,6.3
				c-1.3,2.1-3.5,3.1-6,2.2C436,84.1,434.7,83,435.6,80.8z"/>
			<path class="st46" d="M391,76.1c1.8-5.6,5.9-7.7,11.3-6c1.8,0.6,1.3,1.4,0.6,2.5c-1.4,2.4-2.6,4.9-3.9,7.4
				c-1.6,2.4-4.3,3.8-6.6,2.8C389.6,81.8,390.8,78.6,391,76.1z"/>
			<path class="st54" d="M494.8,52.2c0-0.5,0.1-1,0.1-1.5c0.1-5.7,2.2-7.4,7.7-6.2c1.3,0.3,1.3,1.2,1.3,2.2c0,2.1,0,4.3,0,6.4
				C500.8,56.4,496.2,55.9,494.8,52.2z"/>
			<path class="st50" d="M525,85c-1.8-1-4.4-1-3.5-4c1-3.3,2.1-6.5,3.1-9.8c0.6-1.8,2.2-1,3.3-1c1.5-0.1,3.2,0.9,2.7,2.2
				c-1.4,3.7-0.8,8.1-3.8,11.3C526.3,84.2,525.6,84.5,525,85z"/>
			<path class="st55" d="M481.9,50.1c0.2-4.6,3.9-7,8.2-5.3c1.1,0.4,0.9,1.2,0.9,2c0.1,2.1,0.1,4.2,0.1,6.4
				c-1.6,3.6-4.8,1.9-7.2,1.7C480.9,54.7,482.3,51.9,481.9,50.1z"/>
			<path class="st56" d="M444.1,49.1c-1-6.8,4.3-3.6,6.9-4c4-0.6,1.2,2.7,1.9,4.1c0.4,0.8,0.1,2,0.1,2.9c-0.3,5.2-4.3,2.9-6.6,2.8
				C441.8,54.8,445,51,444.1,49.1z"/>
			<path class="st57" d="M380.9,72.1c0.9-0.4,1-1.2,1-2c2.6,0.1,6.3-0.9,7.7,0.5c2.3,2.2-2.7,3.8-2.3,6.6c0.1,0.6-0.3,1.3-0.5,1.9
				c-0.6,0.8-1,1.7-1.8,2.3c-1.4,1.1-2.7,2.7-4.7,2c-2-0.8-0.9-2.8-1.2-4.3c-0.1-0.6-0.3-1.2-0.4-1.9
				C379.4,75.3,379.6,73.5,380.9,72.1z"/>
			<path class="st58" d="M456.8,54.2c0-0.3,0.1-0.7,0.1-1c0.1-7.8,0.1-7.8,8.8-8.3c-1.1,3.4-0.5,6.8-0.8,10.2
				C462.2,54.7,459.3,56,456.8,54.2z"/>
			<path class="st59" d="M507.8,54.2c0-1.2,0.1-2.3,0.1-3.5c0-5.8,1.2-6.8,7-6c1.4,0.2,1.4,0.8,1.3,2c-0.3,2.8-0.3,5.6-0.4,8.4
				C513.2,54.7,510.3,56.1,507.8,54.2z"/>
			<path class="st60" d="M470,55.1c0-1.5-0.1-3-0.1-4.5c0-5.7,1.4-6.9,7.1-5.9c1.4,0.2,1.3,0.9,1.2,2c-0.2,2.5-0.1,4.9-0.2,7.4
				C475.5,56,472.7,54.7,470,55.1z"/>
			<path class="st61" d="M535.9,85.1c-0.4,0-0.7,0-1.1,0c-2.4-0.4-1.9-2.2-2-3.8c0-4.1,0-8.1,0-12.2c0.2-1,0.4-2,1.7-1.9
				c1.1,0.1,1.7,0.6,1.8,1.8c0.1,1.7,0.3,3.5,0.5,5.2C535.6,77.8,537.2,81.6,535.9,85.1z"/>
			<path class="st62" d="M438,45.1c1-0.2,3-1.6,2.5,0.8c-0.7,3.1-0.1,6.1-0.6,9.2c-1.3,0-2.6,0.1-3.9,0.1c-2.2,0.9-2.6-0.5-2.6-2.1
				c0-2.1,0.1-4.2,1.6-5.9C435,45.1,436.5,45.1,438,45.1z"/>
			<path class="st41" d="M434.9,47.2c-0.1,1.9,0,3.9-0.4,5.7c-0.4,1.6,0.1,2.1,1.5,2.3c-2,1.9-3.5,4.7-7,3.9c1.5-2.2,1.1-4.8,1-7.2
				C429.7,48.2,431.3,46.7,434.9,47.2z"/>
			<path class="st63" d="M378.9,77.1c2.9,1,1.5,3.5,1.4,5.9c2.5-1.5,4.5-2.7,6.6-3.9c-0.6,2.7-1.4,5.4-4.4,6.6
				c-2.2,0.9-4.3,0-5.9-1.2c-1.5-1.2,0.1-2.7,0.6-3.9C377.7,79.4,378.4,78.2,378.9,77.1z"/>
			<path class="st63" d="M391,76.1c0.5,2.1,0.9,4.1,1.4,6.2c2.2-0.8,4.4-1.5,6.6-2.2c-0.9,4.3-6,6.8-9.8,4.8
				c-1.1-0.6-1.3-1.5-0.8-2.5C389.3,80.3,389.3,77.9,391,76.1z"/>
			<path class="st64" d="M521,55.1c0-2,0-4-0.1-6c-0.2-2.5,0.4-3.8,3.3-4.3c3.1-0.5,4.3,0.4,4.7,3.3c-4.7,0.4-2.7,5.2-4.9,7.3
				C522.9,55.2,522,55.2,521,55.1z"/>
			<path class="st65" d="M523.9,55.3c0-1.6-0.1-3.3,0.1-4.9c0.4-3.1,1.5-4.8,4.7-2.4c0,0.7,0,1.5-0.1,2.2c-1.2,1.5-1,3.2-0.8,4.9
				c-0.1,0.3-0.1,0.5-0.1,0.8C526.5,56.1,525.1,56.6,523.9,55.3z"/>
			<path class="st66" d="M291.1,52.9c3.3,0.9,4.3,4.3,6.8,6.2c-2,0-3.9,0-5.9,0C290,57.3,288.9,55.3,291.1,52.9z"/>
			<path class="st67" d="M277,71c2.1,2.6-0.8,3.7-1.8,4.8c-2,2.1-3.9,4.9-8.2,5.2c2.9-4.1,7.4-5.8,9.1-9.9
				C276.3,71.1,276.6,71.1,277,71z"/>
			<path class="st12" d="M527.9,57.1c4-2,0.5-6.5,2.9-9c2.5,2.3,0.6,5.6,2,8.1c0.4,0.3,0.8,0.5,1.2,0.6c1.2,0.6,3,0.2,3,2.3l0,0
				C534,58.2,530.2,61.1,527.9,57.1z"/>
			<path class="st68" d="M372,70.1c0,1.1,0.2,2.3-1,3c-0.2-0.1-0.5-0.1-0.7-0.2c-4.4-1.3-8.9,0.3-13.3-0.8c0-0.7,0-1.3,0-2
				C362,70.1,367,70.1,372,70.1z"/>
			<path class="st69" d="M209,43.1c2.4,2.6-0.6,3.6-1.7,4.6c-2.9,2.6-5.9,5.1-8.6,8.9c3.8,0.2,5.5-2.1,7.5-3.8
				c2-1.6,3.9-3.4,6.7-5.9c0,3.7,0,6.4,0,9.1c-0.2,0.5-0.4,0.8-0.9,1.1l-0.2,0.1c-5.4,1.9-10.8,2.3-16.2-0.1c-1.2-0.5-1.7,0.8-2.6,1
				c-3.6,0.9-7.5-2.8-10.9,0.9c-1.8-5.3-4.1-1.5-6.3-0.4c-1.2,0.6-1.8-0.3-2.3-1.1c-0.8-1.1-1.7-1.1-3-0.5c-1.5,0.8-3.5,4.2-4.8-0.5
				c-0.2-0.8-2.2-0.3-3,0.6c-1,1.1-2,2.7-3.6,1.7c-2.1-1.3,1.7-2.2,0.3-3.9c-2.7,0.6-5,2.3-7.3,4.1c-2-1.8,1-2.6,0.1-4.4
				c-2.7,1.3-5.5,2.7-8.3,4.1c-1.7-1.7,2.3-2.2,0.2-4c0.1,0-0.3-0.1-0.8,0c-3,0.3-5,6.4-8.9,1.4c-0.2-0.2-0.9,0.1-1.4,0.1
				c-6.1,0.2-12.1,3.2-18.8,0.9c0.4,2.7,0.9,4.6,3.7,4.9c-1.4,4.7-6.1,6.5-9.5,11c4-4.5,8.8-6.9,10.5-12c2.6-1.8,2.3,2.2,4,2.1
				c0.3,4-3.3,5.2-5.5,7.4c-0.6,0.7-1.2,1.4-1,1.2c-0.1,0.2,0.5-0.5,1.2-1.2c1.9-2.4,6.1-3.1,5.3-7.4c2.9-5.3,3.9,1.5,6,1
				c0.7,3.6-2.6,4.5-4.4,6.3c-0.7,0.7-1.2,1.5-2,2.1c0.9-0.5,1.3-1.4,2.1-2c2.7-2.2,5.3-4.6,7.3-7.5c1.4,0.7,2.7,1.3,4.1,2
				c-0.5,3.8-4.6,4.6-6.1,7.2c2.8-1.6,4.3-5.3,8-6.2c0.7,1.2,1.9,1,3,1c0.3,2.6-2.8,3.1-3.1,5.4c-0.4,0.8-0.9,1.5-1.6,2.1
				c-1.9,1.1-3.8,2.2-5.1,4c-1.2,0.7-2.3,1.4-1.6,3.1c-0.9,4.8-6.2,5.2-8.6,8.5c-2.4-0.2-3.5,3.1-6.7,2c2-1.7,3.6-3.5,4.5-5.7
				c0.2-0.6,0.9-1,0.2-1.6c-0.9-0.7-1.6-0.3-1.9,0.6c-1.2,2.8-2.9,5-5.8,6.4c-2,0.9-3.2,2.5-6.1,1c-2.5-1.3-4.5,2.7-6.7,3.1
				c-2.6-1,2.1-3.3-1.4-3.8c-0.3-1.9,1.3-2.8,2.1-4c2.3-2.4,5.3-4,7-6.9c0.2-0.3,0.7-0.4,0.7-0.8c-0.1,0.4-0.5,0.6-0.8,1
				c-2,2.6-4.7,4.5-6.9,6.9c-1.1,1.9-3.5,2.8-4,5.1c-1.2,2.7-4.1,3-6.3,4.8c-0.5-2.5,3.6-3.4,1.2-5.9c-0.3-1.9,1.3-2.8,2.1-4
				c2.3-2.4,5.3-4,7-6.9c0.2-0.3,0.7-0.4,0.7-0.8c-0.1,0.4-0.5,0.6-0.8,1c-2,2.6-4.7,4.5-6.9,6.9c-1.1,1.9-3.5,2.8-4,5.1
				c-0.7,2.5-3,3.4-4.8,4.7c-1.9,1.4-3.6,0.3-5.2-0.8c-0.7-2.2,2.5-2.2,2.2-4.2c0.9-0.8,1.9-1.3,2.8-2.1c-0.9,0.8-2.1,1.3-2.9,2.2
				c-1.4,2-3.5,3.3-5.1,5.2c-2.6,4.1-2.8-0.5-4-1.1c-0.4-0.3,0-1.3-0.5-1.1c-0.9,0.3-1.4,1.2-1.4,2.2c-2.2,4.4-6.1,0.8-9,1.9
				c0.1-3.5,3.8-3.7,5.4-5.8c1.1-1.4,2.3-2.8,3.1-3.3c-2.2,3.1-6.8,5.2-9.5,9.2c-2.1,5.9-4,0-6-0.1c-0.7-1.9,0.9-2.7,2-3.5
				c5-3.7,8.8-8.9,13.9-12.6c0.9-0.6,1.1-1.6,1.5-2.5c0.2-0.4,0.5-0.8,0.8-1.1c3.1-0.5,4.5-4.2,7.8-4.4c2.2,0.1,1.5-1.8,2-2.9
				c1.9-2.5,4.7-4.1,6-7.1l0,0c2-1,3.5-2.9,5.9-3c0.8-0.6,1.7-1.9,2.2-1.7c1.9,0.5,0.6-4.5,2.9-1.9c1.8,2-1.5,2.2-2.1,3.5
				c-0.6,3.2-3.5,4.6-5.2,6.7c2.6-0.9,3.2-5.4,7.2-4.7c1.3-2.4,5.3-2.6,5-6.6c-0.1-1.6,2.1,1.6,3.8-0.9c2.2-3.3-1.1-4.8-0.8-7.1
				c1.1-1.3,1.9-2.9,4-2.6c-0.2,1.5-0.4,3.1-0.6,4.9c1.8-0.4,2.8-1.5,3.5-2.8c0-0.8,0.4-1.1,1.1-0.9c2.5,6.1,3.3-1.4,5.1-0.6
				c0.7-2,1.6-3.7,4.1-3.7c1.1,0.3,1.5,1.2,1.5,2.2c-0.1,1.8-1.4,2.8-3,4.4c2.6-1.8,4.2-3.8,5.9-5.8c1.9-1.7,3.6-3.7,6.6-2.4
				c0.4,0.7,0.4,1.5-0.2,2.1c-1.2,1.3-2.4,2.6-3.7,3.9c2.9,2.4,4.1-0.3,5.2-1.6c2.1-2.5,4.3-4.8,7.4-6.2c0.5,3.8-3.9,5.1-4.7,9.2
				c5.7-2.6,8.4-8.8,15.3-9.9c-2.5,3.8-6.4,5.2-8.7,9.9c5.9-2.1,9-5.8,12.1-9.5c0.4-0.9,1.2-0.9,1.9-1.1c2.8,0,1.5,1.7,1.2,3
				c-0.2,0.4-0.5,0.8-0.8,1.1c-1.1,1.2-2.3,2.2-3.4,3.9c1.4-0.2,2.2-1.3,3.4-1.2c0.8,0.2,1.2,0.6,1.4,1.3c0.2,1-0.1,1.9-0.8,2.8
				c2.3-1.3,3.9-3.3,5.7-5.2c2.7-2.4,5.4-4.6,8.6-6.4c0.6-0.4,1.3-0.8,1.9-1.3c0.6,0,1.3,0,1.9,0c1.7,2,0.4,3.3-1.1,4.5
				s-3.2,2.2-4.4,3.9c-0.4,0.5-1,0.8-1.4,1.4c1.2-0.2,1.8-1.2,2.4-2.1c2.6-2.2,5.1-4.6,7.5-7c0.6-0.4,1.3-0.7,2-0.9
				c2.4-0.3,3.1,0.8,2.6,3c-0.5,1-1.5,1.7-2.4,2.6c1.6-0.9,2.6-2.2,3.9-3.1c1-0.6,1.9-1.3,2.8-1.9c0.4-0.2,0.8-0.4,1.3-0.5
				c3.7-0.1,2.9,1.9,1.5,3.7c-1.1,1.4-2.7,2.2-3.9,3.9c3.2-2.3,5.9-4.7,8.6-7.2c0.9-0.8,1.6-1.9,3.1-1.4c3.8,4.3-1,5.2-2.9,7.3
				c-1.8,1.8-3.5,3.6-5.7,5.3c2.6-1,3.9-3.1,5.5-4.9c2.5-2,4.8-4.2,7.1-6.4c1-1,1.9-2.2,3.6-1.6c2.6,2.3,1.7,4.3-0.6,6.1
				c-1.3,1-2.9,1.6-3.8,3.1c-0.5,0.5,0.8,0.5,0.2,0.2C205.1,44.4,206.8,43.3,209,43.1z"/>
			<path class="st48" d="M136.1,74.1c0.3-0.7,0.7-1.3,1-2c3-1.6,4.4-5.2,7.9-6c0.1,0.9,0.3,1.6,1.1,2.1c0.4,0.5,0.1,1.7,0.2,1.7
				c1-0.2,0.7-1.1,0.7-1.8c2.1-2.3,2.2-2.3,3.7,0.2c0.6,1,1.3,0.7,2,0.4c1.3-0.6,1.9-2.3,3.5-2.2c1.5,1.7-2.4,3.1-0.2,4.3
				c2.2,1.1,3-2.3,5.4-2.3c-0.6,4.1,1.1,3.8,3.7,1.9c1.2-0.9,2.8-4.5,3.7,0.6c0.3,1.6,2.5-0.1,3.6-0.9c1.5-1.2,2.8-2.8,3.9,0.3
				c0.1,0.3,1.1,0.7,1.2,0.6c3.8-5,11,3.5,13.7-4c1.9,1.5-0.6,2.8,0.8,4c1.7,0.6,3.8-5.8,5.7,0.3c0.3,0.9,3-2.5,4.9-2.8
				c2.7,6.4,4.9-0.1,7.6,0c-1.2,2-2.3,3.8-3.3,5.7c-0.6,1.1-0.4,1.9,1,2c0.2,2.9-2.7,3.3-4,5l0,0c-1.7,3-5.3,3.9-7,6.9
				c-1.1-0.5-1.6-2.1-3.1-2c1.6-3.9,4.9-6.3,7.6-8.6c-4.3,2.2-6.9,7.2-11.6,9.7c-1.3-1.6-2.4-2.2-4.3-0.3c-2.3,2.3-3.3,0.7-3.7-1.7
				c-1.5-1.9,1.4-2.6,1.2-4.1c1.5-1.2,2.9-2.5,4.9-3.9c-2.1,1.4-3.5,2.7-5,4c-1,2-3.5,2.8-4,5.1c-2.1,4-4-1.3-6-0.1
				c-0.7-0.8,0.9-2,0-2.4c-0.8-0.4-1.3,1.1-2.2,1.5c-2.1-0.1-4.2,1-6,1.3c-3,0.4-6.3-1-9.3,1c-1.4-4.6-3.5-0.3-5-0.6
				c-3.1-0.6-5.9-1.9-8.6,0.8c-3.2-5.7-4.9,0.7-7.4,1c-0.5,0-1,0.8-1.5,1.2c-1.4-1,1-3.8-2-3.7c-0.2-2.5,2.8-3,3.2-5.1
				c1.3-1.4,3.5-1.5,4.6-3.2c-0.1-0.1,0.4-0.2,0-0.2c-0.2,0-0.4,0.5-0.6,0.7c-1.4,1.1-3.1,1.5-4.2,2.9c-1.5,2.7-5.1,3.6-5.9,6.9
				c-1.5,3.8-4.4,2.2-7,2c1-2.2,2.3-4.1,4.7-5.1c1.6-0.7,3-1.9,3.3-3.8c0.1-1.9,2.2-2.2,2.9-3.5C133.2,76.2,134.6,75.2,136.1,74.1z"
				/>
			<path class="st70" d="M57,50.1c1.7-0.8,2.1,3,4,1.1c0.8-0.9,1.6-1.7,2.9-1.6c0.7,0.1,1.2,0.5,1.6,1c3.2,1.1,4.2-4.1,7.5-2.6
				c0,0.9,0.1,1.7,1,2.2c0.3,0.4,0.3,0.8,0.1,1.3c-3.1,3.4-7.1,5.8-9.3,10c-2.9,3.5-6.8,6-10,9.3c-3.4,3.5-6.9,7-10.7,10.1
				c-0.3,0.3-0.6,0.7-0.9,1c-1.2,1-1.8,2.4-2.5,3.8c-0.5,0.8-1.2,1.2-2,1.6c-1.6,0.4-2.2,1.7-3,2.9c-0.3,0.3-0.6,0.6-1,0.8
				c-2.6,0.9-3.1,4.2-5.8,5.1c-2.3,1.2-4.9,1.3-7.1,2.7c-1,0.3-1.9,0-2.8-0.6c1.5-4.4-2.3-7.9-2-12c2-1.4,4.4-2.5,4.5-5.5
				c2.5-2.2,4.6-4.9,7.9-6.2c1.8-0.9,3-2.5,4.4-3.9c4.6-4.2,9.2-8.3,13.4-12.9c1.4-0.8,2-2.1,2.3-3.6c0.5-1,1.2-1.8,2.1-2.4
				c0.7-0.5,1.5-0.9,2.2-1.2C55,50.1,55.9,49.5,57,50.1z"/>
			<path class="st71" d="M79,63.1c1.1-0.9,2-2,3.6-2.3c2.4-0.4,2,0.8,1.4,2.2c-1.1,1.4-2.9,1.8-4,3.1l0,0c-2.4,3.4-5.9,5.5-9.1,8
				c-1.5,0.2-1.7,0.8-0.5,1.7c0.9,0.6,2,1,2.5,2.2c0.3,1.6-0.8,2.4-2,3.2l0,0c-5,5.4-10.1,10.7-15.6,15.5c-1.5,1.3-3.3,2.2-3.3,4.5
				c-3.8,4.5-12,6.3-16.7,3.4c-0.8-0.5-1.5-1.1-1.9-0.2c-2.5,5.8-4.4,1.8-6.5-0.3c0-2.8,3.3-1.9,4.1-3.8c3.9-2.9,5.8-8.4,11.5-9.1
				c0.6-0.1-0.3-1.4-0.2-2.2c0.1-0.5,0.2-0.9,0.5-1.2c2.2-2,5.6-2.8,6.5-6.2c0.2-0.4,0.4-0.8,0.8-1c1.8-0.8,3.3-2.1,4.1-4
				c0.8-1.2,2.1-1.6,3.3-2.2c1.6-0.9,2.7-2.3,3.9-3.5c1.3-1.2,3.8-1.1,3.9-3.7c3.6-2.6,5.8-7,10.5-8.1c0.3,0.7,0.7,1.4,1,2.1
				c-0.7,3.9-4.5,5.3-6.8,8c-1,1.2-2.4,2.2-3.5,3.4c-2.8,3.3-6.4,5.8-9.7,8.5c-1.4,3-5.1,4-6.3,7.2c1.5-3,5.5-3.9,6.5-7.3
				c3.7-2.2,6.7-5.1,9.6-8.2C71,69.6,73.4,64.3,79,63.1z"/>
			<path class="st69" d="M30.1,75.2c-3.4,1-4.7,4.8-8,5.9c-1.4,1.6-1.5,4.9-5,4c1.5-3.3-1.7-5.9-1.6-9c0-1.1-0.6-2.2,0.6-3
				c3.3,0,4-3.5,6.1-4.3c0.8-0.8-0.4-0.9,0.2-0.6c0.1,0.1,0.1,0.3-0.2,0.4c-2.2,1.2-2.9,4.5-6,4.5c0.9-2.2-2.5-3.7-0.9-6
				c4.5-1.5,7.2-5.1,10.1-8.5c1.7-1,3.1-2.1,3.5-4.2c0.2-0.4,0.5-0.7,0.9-1c2.3-0.6,3.7-3.8,6.8-2.3c0.6,0.9,0.4,1.8,0,2.6
				c-0.6,1.5-1.7,2.8-2.5,4.2c0.7-1.2,1.8-2.2,2.2-3.7c0.8-1.4,2-2.4,3.5-3.1c1.2-0.6,2.4-1.3,3.7-1.6c1.5-0.8,2.2,2.7,3.9,0.6
				c1.2-0.3,2.3-0.7,3.5-0.7c1.4,0.4,2.4,1,1.3,2.6c-0.4,1-1.1,1.6-2,2c-0.6,1.8-1.8,3.1-3.1,4.4c-4.7,3.6-8.4,8.4-13.2,12
				C32.8,72.3,30.2,72.8,30.1,75.2z"/>
			<path class="st72" d="M58.1,75.2c-1,0.7-2,1.3-3,2c-1.1,2-3.6,2.3-5,3.9l0,0c-1.7,3-4.9,4.5-7,7l0,0c-3.5,4.2-7.5,8-11.7,11.4
				c-2.1,1.8,1.4,0.6,0.6,1.5c-0.7,2.7-3.8,1.3-5,3.1c-0.4,0.5-0.8,1-1.2,1.5c-0.7,1-2.4,2.8-2.5,2.2c-0.3-2.5-4.6-2.3-3.5-4.9
				c0.8-2.1,0.4-3.4-0.8-4.9c1,0,2,0,3,0c2.7,0.6,4.9-0.3,6.8-2.3c2.7-1.2,3.8-4.2,6.3-5.7l0,0c2-0.6,2.5-2.3,3.1-4
				c0.6-0.3,1.3-0.6,1.9-0.9c1.3-1.1,2.4-2.5,3-4.1l0,0c4.8-2.6,7.9-6.9,11.8-10.5c3.1-2.2,5.2-5.4,8.7-7.2c1-0.5,1.7-0.9,2.7-0.3
				c0.7,0.8,0.8,1.7,0.5,2.7c-1.4,1.8-3,3.4-4.9,4.8C60.8,72.3,58.2,72.8,58.1,75.2z"/>
			<path class="st27" d="M34.9,44.1c1.2-0.8,2.2-1.8,3.5-2.5c1.7-0.9,2.5-0.4,1.7,1.6c-2,5.4-6.6,8.1-11,10.9l0,0
				c-0.7,1.7-1.8,3.2-3.2,4.4c-3.5,1.5-4.5,5.8-8.1,7.3c-0.9,0.4-1.6,1.1-2.6,0.4c-2.1-3.3-0.8-5.8,1.9-8c2.1-0.8,3.9-2,4.7-4.2
				c0.3-0.3,0.7-0.6,1.1-0.8c3.2-1.5,5.6-4,8.2-6.4C32.2,45.6,32.9,43.9,34.9,44.1z"/>
			<path class="st73" d="M52.1,101.1c-0.6-0.2-2-0.1-0.8-1.3C57.9,93.5,63.4,86.1,71,81c1,1.8,0.1,2.9-1.3,4.1
				C64.1,90,58.6,95,53,100C52.8,100.4,52.4,100.8,52.1,101.1z"/>
			<path class="st74" d="M210.1,82.4c0.1,0.3,0.2,0.5,0.2,0.6c0.3,2.1-4.2,2.7-2.3,4.5c1.9,1.7,3.5-1.5,5.2-2.4c1.4-0.7,2-2.7,4-2.5
				c-3.4,6.4-7.3,8.2-15.4,7.1C203.1,85.5,206.1,83.4,210.1,82.4z"/>
			<path class="st75" d="M273,83.2c0.9-3.1,1.6-6.4,6.1-3.4c2.2,1.5,3.7-1.9,5.9-1.7c-0.5,2.8-3.9,4.3-3.5,7.6
				c0.1,0.8-1.3,1.4-2.4,1.2c-1.1-0.2-2-0.9-1.9-1.9C277.4,80.5,275.2,81.9,273,83.2z"/>
			<path class="st6" d="M252.1,59.2c-7,1.4-14,1.5-21-0.1c0-0.3,0-0.5,0-0.8C238,58.5,245.1,56.9,252.1,59.2z"/>
			<path class="st76" d="M119,61.1c0.8,0.6,1,1.4,0.4,2.1c-3.5,4.3-7,8.5-12.3,10.8c2.6-4.9,7.3-7.9,10.8-11.9
				C118.4,61.8,118.7,61.4,119,61.1z"/>
			<path class="st28" d="M190,87.1c4.2-4.5,8.1-9.3,14.6-11.2c-3.5,3.4-7.1,6.8-10.6,10.2C192.4,85.6,191.7,88.1,190,87.1z"/>
			<path class="st77" d="M22.1,54.1c-0.1,3.3-1.1,5.6-5,4.1c-1.5-1-3.2-1.8-2-4c2.1,0,2-2.8,3.9-3c0.3-0.4,0.7-0.5,1.1-0.3
				C21.2,51.7,21.9,52.8,22.1,54.1z"/>
			<path class="st67" d="M59.1,100.2c1.7-5.5,7.5-7,10.5-11.3c-0.5,6-6.7,7.2-9.5,11.2C59.7,100.1,59.4,100.2,59.1,100.2z"/>
			<path class="st78" d="M15.2,66.2C20,65,21.1,59,26,58c0.3,0.2,0.5,0.5,0.4,0.7c-0.1,0.3-0.2,0.4-0.3,0.4c-2.6,2.7-4.6,6-7.9,8
				c-1.3,0.8-2,0.3-3-0.1C15.1,66.8,15.1,66.5,15.2,66.2z"/>
			<path class="st76" d="M138,66.1c-3.2,2.8-5.3,7-10.4,8.1c2-4.2,5.8-6.1,8.4-9.1C136.9,65.2,137.6,65.2,138,66.1z"/>
			<path class="st35" d="M124,70.1c1.3-2.3,4.3-3.1,5.1-5.9c1-0.3,1.9-0.7,2.9-1c-0.7,4-3.6,6.2-6.8,8.1
				C124.2,71.4,123.8,71.1,124,70.1z"/>
			<path class="st79" d="M145,66.1c-2.8,1.9-3.6,6.2-7.9,6c0-2.7,2.7-3.3,4-5C142.2,66.1,143.2,64.5,145,66.1z"/>
			<path class="st80" d="M226.7,83.3c2.8-1.5,5.7-1.3,9.5-0.7C232.6,85.1,229.6,83.7,226.7,83.3z"/>
			<path class="st81" d="M128.1,88.1c-0.8-4.7,3.6-5,6-7c1,2.9-2.1,3.3-3,5C130,86.8,129.1,87.4,128.1,88.1z"/>
			<path class="st11" d="M287.9,93c-0.7,2.3,1.5,5.5-1.9,7C284,97,284.5,94.6,287.9,93z"/>
			<path class="st28" d="M197.1,88c0.8-3.8,4.1-5.1,7-6.9C204.1,85.8,199.3,85.6,197.1,88z"/>
			<path class="st82" d="M170.8,85.1c-0.1-1.1-1.5-2.6,0.8-3c1.2-0.2,2.9-0.7,3.5,0.5c0.8,1.7-1.3,2.3-2.1,3.4
				C172.1,86.1,171.4,85.9,170.8,85.1z"/>
			<path class="st83" d="M204,81.1c-0.3-2.9,3.3-2.8,4-5c0.7,0.2,2.7-1.8,1.9,0.4C209.2,78.7,207.5,81.5,204,81.1z"/>
			<path class="st28" d="M147,68c1.9,2.1,1.9,2.1-2.5,4.4c-1.2-2.1,1.1-2.8,1.6-4.3C146.4,68.1,146.7,68.1,147,68z"/>
			<path class="st83" d="M183,81.1c1.4,1.7-1.3,2.5-1,3.9c-1,0.4-2,0.7-3,1.1c-0.8-0.2-2-0.4-1-1.4C179.5,83.3,180.8,81.6,183,81.1
				L183,81.1z"/>
			<path class="st84" d="M17.1,85.1c2.7,0,2.2-4,5-4c1,4.3-1.9,4.7-5,5C17.1,85.7,17.1,85.4,17.1,85.1z"/>
			<path class="st85" d="M80.1,93.1c1.3,2.4-2,2.3-2.1,3.9c-1,0.4-2,0.8-3,1.1C75.5,95.3,77.8,94.2,80.1,93.1L80.1,93.1z"/>
			<path class="st86" d="M69.1,98.2c-1.9-3.4,2.3-2.9,2.7-5.6c1.6,2.7-0.6,3.3-0.8,4.5C70.4,97.4,69.8,97.8,69.1,98.2z"/>
			<path class="st87" d="M92.1,88.1c0.2,1.8-1.4,2.6-2,4c-0.6,0.4-1.3,0.7-1.9,1.1C86.9,89.5,90.4,89.5,92.1,88.1L92.1,88.1z"/>
			<path class="st32" d="M99.1,88.1c0.2,1.8-1.4,2.6-2,4c-0.6,0.4-1.3,0.7-1.9,1.1C93.9,89.5,97.3,89.4,99.1,88.1L99.1,88.1z"/>
			<path class="st88" d="M201.6,125.9c3.1,0,5.2,1.1,5.5,4.1c0.3,3.5-2.1,4.8-4.9,4.9c-2.5,0.1-5.1-0.9-5.2-4.1
				C196.8,127.5,199.1,126.3,201.6,125.9z"/>
			<path class="st89" d="M336,87.1c-0.6,0-1.3,0-1.9,0c0-7.4,0-14.8,0-22.4C336.9,66.6,337.9,81.4,336,87.1z"/>
			<path class="st89" d="M536.9,59.1c-1.1-1.4-2.7-0.8-4.1-1c-1.1-6.6-2.3-13.3,0.2-19.9c2.3-0.1,4.9-0.8,4.9,2.9
				c1.8,2.3,1.4,4.8,0.8,7.4c-0.5,2.2-1.4,4.4,0.1,6.5c0,3,0,6,0,9.1C537,62.9,538.8,60.3,536.9,59.1z"/>
			<path class="st39" d="M567.9,47.1c0.4,0.4,0.7,0.7,1.1,1.1c-1.5,1.5-3.4,0.9-5.2,0.9c-4.6,0.1-9.3,0-13.9,0
				c-0.3-0.4-0.6-0.8-0.6-1.3c0.3-2.2,0-4.5,1.5-6.4c4.7-0.1,9.5-0.1,14.2-0.2C566.7,42.8,565.3,45.9,567.9,47.1z"/>
			<path class="st90" d="M549.9,48.1c0,0.3,0,0.7,0,1c-3.6,0-7.3,0.1-10.9,0.1c-1.2-2.7-0.1-5.3,0.1-8c2.6,0,5.3,0.1,7.9,0.1
				C548.3,43.5,547.4,46.5,549.9,48.1z"/>
			<path class="st91" d="M539.1,41.2c4.1,2.7-1.4,5.3-0.1,8c-0.1,1.9-0.1,3.9-0.2,5.8c-1.6-0.5-2-1.7-1.6-3.1
				c1-3.6,0.3-7.2,0.7-10.8C538.3,41.2,538.7,41.2,539.1,41.2z"/>
			<path class="st92" d="M535.9,85.1c0.3-3.6-1.1-7.3,0.9-10.8C536.4,77.9,538.1,81.6,535.9,85.1z"/>
			<path class="st93" d="M447,38.2c-3.7-0.9-5.9,1.3-8,3.8c0-0.3,0-0.5,0-0.8c-1.6-1.1-0.4-4.4-3.1-4.5c-4-0.2-8.1-1-12.1,0.7
				c-1,0.5-1.7,1.5-2.9,1.7c-1.8-1.1-3.8-1-5.8-1c-9.4,0-18.9,0-28.3,0c-1.7,0-3.7,0.6-5.1-1.1c-6.3-0.7-12.7-1.5-18.8,1.1
				c-2.4-0.4-5,0.9-7.1-1c-6.3-0.7-12.7-1.6-18.8,1.1c-2.3,0-4.7-0.1-7-0.1c-6.5-2.7-12.9-2.7-19.1,1c-1.7-1.6-4.5-0.1-6.1-2
				c-6.3-0.7-12.7-1.7-18.8,1.1c-4.1,0-8.2-0.2-12.3,0c-3.2,0.2-4.1-1.2-3.8-4c-0.3-0.2-0.4-0.5-0.3-0.7c0.1-0.2,0.3-0.3,0.4-0.3
				c75,0,149.9,0,224.9,0c1.6,1.3,4.2-0.8,5.5,1.6c0.2,1.7-0.2,3.1-1.6,4.2c-2.6,0.5-5.2-2-7.8,0c-5.8-4.3-12-2.8-18.1-0.9
				c-3,0.6-5.9,1-7.9-2c-3.1,0.9-6.2,0.5-9.4,0.4C452.6,36.5,449.7,36.8,447,38.2z"/>
			<path class="st94" d="M268,35.1c0.3,0.3,0.7,0.7,1,1c-1.5,1.3-3.3,1.5-5.1,1.5c-8.9,0.1-17.9,0.1-26.8,0c-1.8,0-3.7-0.1-5-1.6
				c4.3-3.4,8.9-1.7,13.3-1.4c-4.1-1.1-8.5-0.7-12.8,0c-2.8,0.4-5.3,0.3-7.4-1.6c0.5-5.3,5-1.2,7-3c1.4-2.3,4.3-1.4,6.1-3h-0.1
				c0.4-0.4,0.8-0.5,1.3-0.2c3.1,1.6,7.1,0.2,9.7,3.1c1.7-0.1,2.9-0.8,4.1-2c0.8-0.8,0.8,0.4,0.9,0.8c0.7,1.4,1,2.7-0.1,4.1
				c1.1,2.1,3,0.9,4.5,0.9C261.7,34,265,33.1,268,35.1z"/>
			<path class="st95" d="M500,35.3c-1.1-2-3.8-0.2-5-2c8.3,0,16.7,0,25,0c-1,1.5-2.4,2.8-2,4.9c-0.5,0.3-1,0.3-1.6,0
				c-2.6-1.8-5.5-1.5-8.5-1.6C505.3,36.4,502.4,37.2,500,35.3z"/>
			<path class="st96" d="M507,30.1c3.3,0,6.5,0,9.8,0c1.2,1.9-0.5,2-1.5,2.1c-6.2,0.1-12.5,0.1-18.8-0.7
				C499.9,29.5,503.6,30.5,507,30.1z"/>
			<path class="st97" d="M268,35.1c-5.7,0-11.4,0-17.3,0c0.5-2.4,2.1-1.8,3.3-2c1.3,0,2.7,0,4,0c3.4,0.3,6.8-0.5,10.1,1.1
				C268,34.5,268,34.8,268,35.1z"/>
			<path class="st98" d="M268,34.2c-3.3-0.5-6.9,1.1-10.1-1.1c4.1-2.7,8.1,0.3,12.1,0.1c0,0.3-0.1,0.6-0.1,0.9
				C269.3,34.2,268.7,34.2,268,34.2z"/>
			<path class="st97" d="M225,33.1c7.1,2.5,14.7-2.1,23,2c-6.1,0-11.1,0-16,0c-3.4,2.1-7.3,1.9-11.1,1.9c-2.3,0-4.6,0-6.9,0.1
				c-0.8,0-1.6,0.2-2,1c-1.8,0.6-2.6-0.7-3.3-1.9c-0.2-2.4,2-2.2,3.2-3C216.3,33.2,220.7,33.2,225,33.1z"/>
			<path class="st26" d="M238.1,27.2c-0.6,3.8-4.1,1.8-6.1,3c-1.1-1.6-1.8-4.1-4.4-1.2c-0.6,0.7-1.5-0.7-1.5-1.8
				C230.1,25.8,234.1,23.5,238.1,27.2z"/>
			<path class="st99" d="M200,36.9c-0.7,0.7-1.3,1.5-2,2.2c-1.3,0.8-2.4,0.9-3.3-0.5c0.4-3.8,3.9-4,6.3-5.5c1,0,2,0,3,0
				c0.4,1.9-1.2,2.4-2.2,3.4C201.3,36.9,200.7,37.1,200,36.9z"/>
			<path class="st87" d="M201,33.1c-2,1.7-3.9,3.4-5.9,5c-1.7,0.4-2.2-0.7-2.6-1.9c0.2-1.5,0.8-2.4,2.5-2.1c1.3-0.3,2.7-0.6,4-1
				C199.7,33.1,200.3,33.1,201,33.1z"/>
			<path class="st69" d="M200.9,36.1c1-1,2.1-2,3.1-2.9c1.6,0,3.2,0,4.8,0c-0.4,3.5-3.7,3.9-5.9,5.5
				C201.6,38.3,200.7,37.7,200.9,36.1z"/>
			<path class="st100" d="M203.1,38.2c1.9-1.7,3.9-3.4,5.8-5.1c1,0,2,0.1,3.1,0.1c-0.8,1.1-2.5,1.3-2.8,2.9c0.2,1-0.2,1.3-1.2,1.1
				c-1.6-0.2-1.5,1.8-2.8,2.1C204,39.7,203,40,203.1,38.2z"/>
			<path class="st101" d="M228.1,18.3c2.5,1.7,2.4,3.3-0.1,4.9C228,21.5,228,19.9,228.1,18.3z"/>
			<path class="st26" d="M238.9,27.3c-0.3,0-0.6-0.1-0.8-0.1c4.2-1.4,8.5-2.1,13-1.1l0,0C247.3,30,243,28.4,238.9,27.3z"/>
			<path class="st102" d="M513.9,25.6c0,1.7-0.6,2.5-2,2.5c-1.2,0-1.9-0.7-1.7-1.8c0.2-1.2,0.9-2.2,2.2-2.3
				C513.5,23.8,513.6,25,513.9,25.6z"/>
			<path class="st103" d="M549.9,48.1c-5.5-0.3-2.5-4.2-2.8-6.7c1.2,0,2.5,0,3.7,0C550.8,43.7,551.3,46,549.9,48.1z"/>
			<path class="st104" d="M581.9,43.2c0.1-0.6,0.1-1.2,0.2-1.8c1-0.1,1.9-0.2,2.9-0.3c0.3,0.2,0.5,0.3,0.8,0.4
				c1.3,1.5,0.8,3.2,0.2,4.8c-0.6,1.1-1.4,2.3-2.9,1.8c-1.5-0.4-0.9-1.8-1.1-2.8C581.3,44.5,581.3,43.8,581.9,43.2z"/>
			<path class="st105" d="M567.9,47.1c-1.3,0.7-2.9,1.8-3.1-1c-0.1-1.6,0.1-3.3,0.1-4.9c0.9,0,1.9,0.1,2.8,0.1
				C567.8,43.2,567.8,45.2,567.9,47.1z"/>
			<path class="st106" d="M533,38.2c-0.1,6.6-0.1,13.2-0.2,19.9l-0.5,0.1h-0.5c-0.2-6.6-1.8-13.3-0.2-19.9l0.2-0.1
				C532.3,38.2,532.7,38.2,533,38.2z"/>
			<path class="st107" d="M517,38.1c0.3,0,0.6,0,0.9,0c4.3,0,8.6,0.1,12.8,0.1c1,2.3,0.9,4.6,0,6.9c-4.7-2.8-9.8-3.1-15-3.1
				C515.2,40.5,515.7,39.2,517,38.1z"/>
			<path class="st108" d="M530.8,45.2c0-2.3,0-4.6,0-6.9c0.3-0.1,0.6-0.1,1,0c0.1,6.6,0.1,13.3,0.2,19.9c-2.1-3.2-0.4-6.7-1.1-10
				C530.8,47.1,530.8,46.2,530.8,45.2z"/>
			<path class="st109" d="M585.9,46.1c-0.1-1.6-0.1-3.2-0.2-4.8c2.1,0,4.2,0,6.4,0c-0.8,2.9-3.7,0.9-4.9,2.6
				c0.3,2.2,3.1,0.4,3.6,2.2C589.2,46.1,587.6,46.1,585.9,46.1z"/>
			<path class="st110" d="M238.9,27.3c4.1-0.1,8.2,0.7,12.1-1.1c0.2,1.7-1.4,2.6-2,4C245.8,28.8,241.6,30.8,238.9,27.3z"/>
			<path class="st111" d="M66,66c0-1,0-1.9,0.1-2.9c0.1-0.2,0.2-0.4,0.4-0.6c3.3-2.2,5-5.9,8.3-8.1c1.9-1.2,2.9-3.7,5.5-4.1
				c0.7,0,1.4,0.2,1.9,0.8c-2.1,2.5-4.7,4.7-6,7.9c-3.3,3-6.7,6-10,9C65.4,67.4,65.5,66.7,66,66z"/>
			<path class="st112" d="M79,63.1c-4.4,2.8-7.2,7.6-12,10c-0.4-0.2-0.8-0.5-1-1c3.7-3.6,7.3-7.3,11-10.9
				C78.4,61.2,79.1,61.8,79,63.1z"/>
			<path class="st112" d="M98,65.1c-3.4,1.4-4.9,4.8-7.7,6.8c-0.9,0.6-1.6,1.4-2.4,0.3c-0.7-0.9,0.2-1.5,0.8-2
				c2.5-2.4,5-4.7,7.4-7.1C97.3,63.1,98,63.7,98,65.1z"/>
			<path class="st113" d="M82.1,51.2c-0.7,0-1.3,0-2,0c1.5-4.5,4.8-7.1,9-8.8c0.7-0.1,1.4,0,1.8,0.8C88.5,46.4,85.7,49.1,82.1,51.2z
				"/>
			<path class="st76" d="M71,74.1c1.8-4.1,5.8-5.6,9.1-8C78.8,70.8,75.8,73.5,71,74.1z"/>
			<path class="st114" d="M96.1,50.2c-5.5,6.9-5.5,6.9-8.1,7.5c2.9-2,3.1-6.3,6.7-7.6C95.2,49.6,95.7,49.7,96.1,50.2z"/>
			<path class="st73" d="M71.1,81.1c0.7-1.1,1.3-2.1,2-3.2c2.4,0.8,2.9-5,6.1-1.8C76.5,77.9,74.9,81.3,71.1,81.1z"/>
			<path class="st115" d="M87.1,66.1c0,4-3.5,5.2-6,7.1C81.6,69.6,84.7,68.2,87.1,66.1z"/>
			<path class="st116" d="M106.2,42.3c0.6,0,1.1,0,1.7,0c-1.4,3-3.5,5.5-6.7,7.7C101.5,46.2,104.4,44.6,106.2,42.3z"/>
			<path class="st117" d="M110.1,47.9c-1.3,0.9-2.7,1.7-4,2.6c0.4-3.4,3.4-5,5-7.6C113.2,45,110.3,46.2,110.1,47.9z"/>
			<path class="st118" d="M96.1,50.2c-0.5,0-0.9,0-1.4-0.1c1-2.9,3.5-4.8,5.3-7.2c0.7,0.5,1,1.2,0.9,2.1
				C99.5,46.9,98.1,48.9,96.1,50.2z"/>
			<path class="st119" d="M95.1,42.7c0,0.8,0,1.6,0,2.4c-1.6,1.7-2.6,4.1-6.5,5.5C91.1,47.1,92.3,44.4,95.1,42.7z"/>
			<path class="st115" d="M93,63.1c-2,1-3.1,3.6-5.9,3C88.2,63.5,89.9,61.9,93,63.1z"/>
			<path class="st76" d="M80,66.1c0.1-2.6,1.9-3.1,4-3.1C83.9,65.6,82.3,66.2,80,66.1z"/>
			<path class="st120" d="M22.1,54.1c-1.3-0.5-2-1.4-1.9-2.8c1.7-2.1,2.9-4.6,6-5.1c0.8-2.9,4.7-2.5,5.9-5.4c0.4-1,1.8,1,2,2.2
				c-3,4.4-7.1,7.6-11,11.1C22.7,54.1,22.4,54.1,22.1,54.1z"/>
			<path class="st120" d="M36.1,54.2c0-1.1-0.1-2.2-0.1-3.3c0-3.6,3.1-4.8,5.3-6.7c3.2-0.1,4.3-4.1,8-3.9c-0.8,1.1-1.5,2-2.1,2.9
				c1.2,2.8-2,2.8-2.8,4.3c-1,1.8-3.3,2.6-4.2,4.6C38.7,52.8,37.4,53.5,36.1,54.2L36.1,54.2z"/>
			<path class="st121" d="M52.1,52.1c0-1.2-0.6-1.9-1.8-2c0.6-3.2,2.6-5.1,5.6-6.1c2.4-0.9,3.7-3,5.3-4.7c1.6,0,2,0.7,1.1,2
				c-0.7,1-1.5,2-2.2,3c-0.7,3.4-3.9,4.7-6,6.9C53.6,52,52.9,52.1,52.1,52.1z"/>
			<path class="st121" d="M46.8,51.2c-1.7,1.4-2.1-1.5-3.5-1c0.4-3.4,3.3-4.4,5.6-6.1c3-0.1,3.5-4.6,7.3-3.7c-0.7,1-1.4,1.9-2.1,2.9
				C52.9,47,49.7,49,46.8,51.2z"/>
			<path class="st122" d="M41.3,44.2c-1.1,2.8-3.8,4.2-5.3,6.7c-2.6,0.4-3.8,3.9-6.9,3.3c3.7-3.6,7.3-7.3,11-10.9
				C40.5,43.5,40.9,43.8,41.3,44.2z"/>
			<path class="st123" d="M23,54.1c2.9-4.4,6.6-8.1,11-11.1c0.3,0.3,0.6,0.7,0.9,1C31.5,48.1,28,52,23,54.1z"/>
			<path class="st124" d="M48.8,44.1c-1.9,2-3.7,4.1-5.6,6.1c-1.1,0.7-2.1,1.3-3.2,2c0.4-4.5,4.9-5.8,7-8.9
				C47.9,43.2,48.5,43.3,48.8,44.1z"/>
			<path class="st125" d="M46.8,51.2c1.7-3.3,5-5.2,7.4-8c0.7,0,1.4,0.1,1.8,0.9c-1.9,2-3.7,4.1-5.6,6.1
				C49.3,51.2,48.1,51.4,46.8,51.2z"/>
			<path class="st126" d="M26.1,46.2c-1.8,1.9-3.4,4.1-6,5.1c-0.4-0.1-0.8-0.1-1.2-0.2c1-2.5,3.3-4,5.1-5.9
				C25.1,44.1,25.7,45.2,26.1,46.2z"/>
			<path class="st127" d="M20.8,43.5c-1.9,2.7-3,5.3-6.1,6.1C15.7,45.9,15.7,45.9,20.8,43.5z"/>
			<path class="st27" d="M89.1,42.3c-3,2.9-6,5.9-9,8.8c-2.3,0.5-2.5,3.8-5.1,4c-0.7-0.7-0.6-1.6-0.7-2.4c-0.2-0.6-0.3-1.2-0.3-1.8
				c0-0.3,0-0.5,0-0.8c5.7-3,10.8-6.9,16-11.1C90.7,40.7,89.1,41.2,89.1,42.3z"/>
			<path class="st87" d="M65.2,51.3c-0.4-0.4-0.9-0.9-1.3-1.3c0.6-1.6,0.7-3.7,3.1-3.8c1.3-1.4,2.7-2.7,4-4.1c0.9-1,1-3.2,2.9-2.6
				c1.7,0.5,0,2.7,1.1,3.8C72.1,46.2,69.9,50.3,65.2,51.3z"/>
			<path class="st128" d="M65.2,51.3c3.9-1.9,5.5-6.7,9.8-8.1c1.1,2.3-1.7,3-2,4.8c-2.4,1.5-4.9,2.9-6.8,5.1
				c-0.5,0.6-1.3,1.3-1.9,0.3C63.9,52.5,64.9,51.9,65.2,51.3z"/>
			<path class="st129" d="M67,46.1c-1,1.3-2.1,2.6-3.1,3.9c-0.8,0.6-1.6,1.5-2.8,1.2c0.2-2.8,3.4-3.6,4-6.1C66,45,66.7,45.1,67,46.1
				z"/>
			<path class="st126" d="M114.1,49c-0.4,0.3-0.8,0.6-1.1,0.9c0.2-3.4,1.9-5.7,5.1-6.7C116.7,45.1,115.4,47.1,114.1,49z"/>
			<path class="st28" d="M124.1,47.1c0-0.8-0.2-1.6-1-2c-0.1-2.5,2.9-3.5,3-5.9l0,0c4.3-3.2,9.9-1.6,14.6-3.6
				c0.5-0.2,1.4-0.1,1.8,0.2c0.6,0.5,0.2,1.2-0.3,1.7c-2.6,2.7-4.4,6.2-8.1,7.7c0-0.7,0-1.5,0-2.2c-1-1.2,0.1-2.1,0.8-4
				c-2.6,2.9-4.9,4.8-7.2,6.8C126.6,46.5,125.7,47.8,124.1,47.1z"/>
			<path class="st130" d="M54.1,51.2c1.2-3,3.9-4.7,6-6.9c1.8,3.4-1.8,4-3,5.8C56.1,50.6,55.3,51.5,54.1,51.2z"/>
			<path class="st35" d="M190.1,39.3c-0.7,0.6-1.4,1.2-2.1,1.8c-1-0.8-2.1,0.9-3.1-0.1c0.3-1.5,0.2-2.7-1.9-1.9
				c-0.6-3.7,2.6-4,4.7-5.2c1.8-0.5,3.5-1.1,5.4-0.8C193.4,35.8,190.2,36.8,190.1,39.3z"/>
			<path class="st131" d="M187.7,34c-1.6,1.7-3.9,2.7-4.7,5.2c-0.6,0.1-1.2,0.2-1.9,0.3c-0.5,0.3-0.8,0.2-1.1-0.2
				c1-2.3,3.3-3.4,5-5.1C185.9,34,186.7,32.2,187.7,34z"/>
			<path class="st132" d="M190.1,39.3c-0.6-0.4-2.6,0.3-1.3-1.5c1.3-1.7,2.9-3.1,4.4-4.7c0.8,0,1.6-0.2,1.8,0.9
				c-0.6,0.7-1.3,1.4-1.9,2.1c-0.7,1-1.2,2.1-2.3,2.8C190.5,39,190.3,39.1,190.1,39.3z"/>
			<path class="st133" d="M126,39.2c1,3-1.9,4-3,5.9c-1.3,1.1-2.6,2.2-3.9,3.3c-1.2-2.6,0.9-3.6,2.3-5C123,42,124.5,40.6,126,39.2z"
				/>
			<path class="st32" d="M159,43.1c0.4-1,1.6-2.1-0.1-3.1c2.9-1.5,3.5-6.1,7.8-5.7c-0.6,1.3-1.2,2.5-1.8,3.8
				C163.8,40.8,163.2,44.1,159,43.1z"/>
			<path class="st134" d="M180,39.1c0.4,0.1,0.8,0.2,1.1,0.2c-1.8,2.8-4.5,4.8-7,6.8c-0.7,0.5-1.5,0.5-2.1-0.1
				c0.5-1.8,1.9-2.7,3.4-3.7c1.3-0.9,3.1-2,2.5-4.3C178.6,38.5,179.3,38.8,180,39.1z"/>
			<path class="st135" d="M160.1,48.2c-0.3-0.3-0.7-0.7-1-1c-0.5-1,0-1.8,0.6-2.5c2.5-1.7,4.4-4.5,7.5-5.4c0.3-0.1,0.5-0.2,0.8-0.3
				c0.6-0.5,1.3-1.3,2.1-0.7c1.1,0.8,0.9,2.1,0.2,3.1c-1.2,1.8-3.2,2.8-4.7,4.3C163.9,46.9,163.2,50.2,160.1,48.2z"/>
			<path class="st136" d="M164.9,45.1c1.5-1.5,3.3-2.8,4.6-4.4c1.5-2,0-2.1-1.6-1.7c0.1-1.1,0.7-1.8,1.8-1.9c1.4,1,2.8,0.3,4.1,0
				c-0.1,0.8-1.2,1.8,0.4,2.4c-1.8,3.3-5.1,4.9-8,6.9C165.2,46.4,164.8,46.1,164.9,45.1z"/>
			<path class="st137" d="M167.1,39.2c-2.3,2-4.7,4-7,6c-1.7,0-1.7-0.9-1.1-2.1l0,0c3-0.5,3.7-3.6,5.9-5
				C165.4,39,166.2,39.1,167.1,39.2z"/>
			<path class="st138" d="M581.9,43.2c0,0.7,0,1.3,0,2c-4.1-0.2-8.4,0.7-12.4-0.9C573.5,42.6,577.7,43.4,581.9,43.2z"/>
			<path d="M214,37.1c0.8-1.5,2.1-2.4,3.6-1.9c4.9,1.6,9.6-0.8,14.4-0.1c1.5,1.6,3.4,1,5.2,1c10.6,0.1,21.2,0,31.8,0
				c-0.2,6.3,0.6,12.7-0.6,19.3c-3.1-1.5,1-6.6-4.3-5.4c-14.5-0.4-28.9-0.6-43.4-0.9c-2,0-4-0.5-5.8,1C213,45.9,214.6,41.5,214,37.1
				z"/>
			<path class="st139" d="M215,50.1c0.3-2.5,2.3-2,3.8-2c13.8,0,27.6,0,41.3,0c1.6,0,3.5-0.4,4,1.9c0.4,3.6-0.8,4.7-4.8,5.3
				c-8,1.2-16,2.2-24.1,0.9c4.9,0,9.8,0,14.7,0c0-0.4,0-0.7,0-1.1c-2.2,0-4.4,0-6.6,0c-3.3,0.1-6.6,0.5-8.5-3.4
				c-0.8-1.7-2.8-1.6-4.5-1.5C225.3,50.2,220.1,50.1,215,50.1z"/>
			<path class="st105" d="M363,38.1c0.7-1.3,1.2-2.9,3-2.9c4.8,0,9.7,0,14.5,0.1c0.9,0,1.3,0.9,1.3,1.8c-0.8,4.4-3.4,5.7-7.6,5.1
				c-2.4-0.3-4.9-0.2-7.4,0C363.6,42.4,362.6,41,363,38.1z"/>
			<path class="st140" d="M310.9,39.1c1-3.1,3-4.4,6.4-4c3.1,0.3,6.3,0.1,9.4,0.1c2.2-0.1,3.6,0.5,3.3,3c-1,3.2-3,4.5-6.5,4
				c-2.8-0.3-5.6-0.1-8.4,0C312.9,42.2,311.2,41.6,310.9,39.1z"/>
			<path class="st141" d="M337,38.2c0.6-1.1,0.9-2.8,2.4-2.9c5.2-0.3,10.4-0.6,15.6,0.2c0.4,0.1,0.6,1,0.9,1.6
				c-0.9,4.3-3.5,5.7-7.7,5.1c-2.4-0.4-4.9-0.1-7.4,0C338,42.2,336.8,40.9,337,38.2z"/>
			<path class="st141" d="M286.1,38.2c0.4-0.7,0.6-1.7,1.2-2.2c2.3-2,15.2-1.1,17.6,1c-0.8,4.3-3.5,5.7-7.7,5.1
				c-2.4-0.4-4.9-0.1-7.4,0C287,42.2,285.8,40.9,286.1,38.2z"/>
			<path class="st141" d="M420.9,39.1c0.9-3.2,3-4.4,6.3-4c2,0.2,4,0.3,5.9,0c4.9-0.7,7.4,0.6,5.8,6.1c-5,1.9-10.2,0.7-15.3,0.9
				C421.9,42.1,421.2,40.8,420.9,39.1z"/>
			<path class="st142" d="M208,37.2c0.4-0.4,0.8-0.7,1.2-1.1c1,0.7,1.9,1.4,2.9,2c0.7,2.7-2.3,3.2-3,5c-2.5,1.3-4.1,4-7.6,5.3
				c1.6-2.9,2.3-5.3,5.3-6.3C209,41.3,208.8,39.2,208,37.2z"/>
			<path class="st143" d="M375.9,58c-1.3,0-2.6,0-3.9,0.1c0-1.1-0.4-2.6,1.2-2.8C375.1,55.1,375.9,56.3,375.9,58z"/>
			<path class="st144" d="M298,51.1c-2.3,1-4.6-0.3-6.9,0.1c-0.2,0-0.4-0.1-0.5-0.2c-0.2-0.2-0.3-0.4-0.5-0.6
				C292.8,50,295.5,49.2,298,51.1z"/>
			<path class="st145" d="M212.1,57.1c0.3-0.3,0.6-0.7,0.9-1.1c2.6,0,5.2,0,7.9,0c0,0.4,0,0.7,0,1.1C218,57.1,215,57.1,212.1,57.1z"
				/>
			<path class="st141" d="M447,38.2c0.1-1.4,0.6-2.9,2.1-2.9c5.3,0,10.7-1.2,15.9,0.7c0.7,4.8-1.5,6.6-6.2,6.1c-2.6-0.3-5.3-0.1-8,0
				C448,42.2,446.8,40.9,447,38.2z"/>
			<path class="st141" d="M472.9,38.1c0.1-1.5,0.7-2.8,2.2-2.8c4.6-0.1,9.3-0.2,13.9,0c2.5,0.1,1.9,2.2,2,3.8
				c-0.2,1.3-0.7,3.1-2.2,2.7c-4.2-1.2-8.1-0.1-12.1,0.4C473.5,42.5,472.7,40.8,472.9,38.1z"/>
			<path class="st141" d="M517,38.1c0,1.5-0.3,2.8-1.2,4c-4.4-1.3-8.8-1.5-13.2-0.4c-2.5,0.7-3.8,0-3.8-2.7
				c-0.1-1.4,0.2-2.7,1.1-3.8c4.6,0,9.1,0,13.7-0.1C515.8,35.1,517.1,35.7,517,38.1z"/>
			<path class="st146" d="M528,55.2c-3-2.2-1.4-3.6,0.8-4.9C528.7,52,529.6,53.8,528,55.2z"/>
			<path class="st68" d="M371,73.1c-0.9,5.7-3.6,8.4-9.9,7.3c-2.2-0.4-3.1-0.1-3.2-2.6c0-1.6-0.6-3.2-0.9-4.8
				C361.6,72.9,366.3,71.3,371,73.1L371,73.1z"/>
			<path class="st147" d="M370.9,73.1c-4.7-0.3-9.3,2.6-14,0c0-0.3,0-0.6,0-1C361.7,71.3,366.5,69.1,370.9,73.1z"/>
			<path class="st148" d="M190.8,39c0.1-1.5,1.1-2.2,2.3-2.8c0.3,1,1.1,1.6,2,2c0.7,1.2,1.8,1,2.9,1c-3.1,2.7-6.1,5.5-9.2,8.2
				c-0.7,0.6-1.4,1-2.2,0.4c-1-0.8-0.2-1.5,0.3-2.1c1.5-1.7,3-3.4,4.9-4.8C194.1,39.4,193,38.6,190.8,39z"/>
			<path class="st149" d="M127.1,45.2c1.9-1.9,3.8-3.9,5.8-5.8c0.7-0.7,1.5-2.3,2.7-1.1c1.4,1.3,0,2.1-0.9,3
				c-0.4,0.4-0.5,1.1-0.8,1.7c-2.3,0.5-4,2-5.9,3.2C127.2,46.4,126.8,46.1,127.1,45.2z"/>
			<path class="st150" d="M85.1,81.1c1,1.8,0.2,3-1.4,4.1c-2,1.4-3.8,3-6.8,5.3C78.3,85.1,81.7,83.1,85.1,81.1L85.1,81.1z"/>
			<path class="st151" d="M96,70.1c2-2.1,4-4.3,6.1-6.3c0.6-0.6,1.5-0.9,2.2-0.2c0.6,0.6,0.3,1.3-0.2,1.7c-2.7,1.6-3.8,5.1-7,6
				C96.2,71.4,95.8,71.1,96,70.1z"/>
			<path class="st152" d="M123.1,63.2c1.3,0.2,4-0.1,1.9,2s-3.6,5.1-6.8,6c-1,0.2-1.4-0.1-1.1-1.1C118.9,67.6,121.9,66.2,123.1,63.2
				L123.1,63.2z"/>
			<path class="st153" d="M127.1,45.2c0.3,0.3,0.7,0.7,1,1c-1.9,3.2-4.1,6-8.2,6.9c-0.1-3.4,3.5-3.6,4.2-6
				C125.1,46.5,126.1,45.8,127.1,45.2z"/>
			<path class="st154" d="M197.9,45c-1.3,3.7-4.4,5.2-7.9,6.4c1.5-3.2,3.9-5.5,6.8-7.4C197.5,44.1,197.7,44.6,197.9,45z"/>
			<path class="st32" d="M164.9,45.1c0.4,0.4,0.8,0.8,1.2,1.2c-1.9,3.2-4.3,5.7-8.1,6.5c-0.8-2.3,2.3-2.8,2.1-4.7
				C162.7,48.7,163.2,46,164.9,45.1z"/>
			<path class="st155" d="M112,64.1c-2.1,2.2-4.1,4.4-6.3,6.5c-0.6,0.6-1.6,0.7-2.1-0.1c-0.2-0.3,0.1-1.4,0.5-1.6
				C106.6,67.2,107.9,63.9,112,64.1z"/>
			<path class="st156" d="M96,70.1c0.4,0.4,0.8,0.7,1.1,1.1c-1.7,3-3.9,5.5-7.1,6.9c-0.4,0.5-0.9,0.4-1.2-0.1
				C90,74.3,93.8,72.8,96,70.1z"/>
			<path class="st32" d="M159,43.1c0,0.9,0.3,1.6,1.1,2.1c-0.3,0.6-0.7,1.3-1,1.9c-0.6,0.6-1.2,1.1-1.8,1.7c-1,1.1-2.3,1.9-3.4,0.8
				c-1.2-1.2,0.7-1.9,1.3-2.7C156.2,45.5,157.7,44.4,159,43.1z"/>
			<path class="st157" d="M184.9,41c1-0.5,2.2-2.7,3.1,0.1c-2.7,1.2-3.8,4.9-7.9,5C181.1,43.4,182.6,41.9,184.9,41z"/>
			<path class="st158" d="M197.9,45c-0.4-0.3-0.7-0.7-1.1-1c1.5-2.2,5.8-3.1,3.2-7.1c0.3-0.3,0.6-0.6,0.9-0.9
				c0.2,1.2,1.1,1.7,2.1,2.1c0.7,0.4,1.4,0.7,2.1,1.1C202.7,41.2,200.3,43.1,197.9,45z"/>
			<path class="st32" d="M106.1,81.1c-0.5,4.2-3.4,5.9-7,7l0,0C99.9,84.3,103.2,82.9,106.1,81.1L106.1,81.1z"/>
			<path class="st87" d="M99.1,81.1c-0.5,4.2-3.5,5.9-7,7l0,0C92.9,84.3,96.3,83,99.1,81.1L99.1,81.1z"/>
			<path class="st159" d="M111,81.8c1.3-0.2,1.8,0.4,2,1.6c0.2,1.4-0.5,2.2-1.7,2.4s-2.5-0.4-2.7-1.5
				C108.2,82.5,109.9,82.3,111,81.8z"/>
			<path class="st85" d="M80,93c0.6-2.9,2.8-3.9,6.2-5.3C84.4,91,83.3,93.3,80,93C80.1,93.1,80,93,80,93z"/>
			<path class="st155" d="M172,46.1c0.7,0,1.4,0.1,2.1,0.1c-0.3,0.6-0.4,1.3-0.9,1.7c-1.1,0.8-1.8,2.5-3.6,2.1c-0.4-0.1-1-0.7-1-0.8
				C169.3,47.7,170.2,46.4,172,46.1z"/>
			<path class="st31" d="M92.1,81.1c0.1,0.3,0.4,0.7,0.3,0.9c-0.8,1.7-1.6,3.4-3.7,3.9c-0.4,0.1-1.2-0.4-1.2-0.5
				C88.1,83,90,82,92.1,81.1L92.1,81.1z"/>
			<path class="st160" d="M78.1,81.1c0.3-2.6,2-3.4,4.8-3.7C82.1,80.2,80.6,81.3,78.1,81.1L78.1,81.1z"/>
			<path class="st150" d="M88.9,78c0.4,0,0.8,0.1,1.2,0.1c-1.2,1.8-2.6,3.4-5.1,3l0,0C85.2,78.7,86.8,78,88.9,78z"/>
			<path class="st161" d="M132.1,78.1c-0.7,1.3-1.7,2.3-3,3c-0.7-0.2-1.8-0.2-1.6-1.3c0.4-1.8,2-1.8,3.5-1.8
				C131.3,77.7,131.7,77.7,132.1,78.1z"/>
			<path class="st84" d="M132.1,78.1c-0.4,0-0.8,0-1.1-0.1c0.4-3,2.8-3.4,5.1-4C134.9,75.6,134.4,77.7,132.1,78.1z"/>
			<path class="st160" d="M78.1,81.1c1.2,2-0.2,3-1.7,3.7c-0.6,0.3-1.6-0.2-1.5-0.7C75.3,82.5,76.3,81.4,78.1,81.1L78.1,81.1z"/>
			<path class="st162" d="M117,70.1c0.4,0.4,0.8,0.8,1.1,1.1c-0.5,2.1-2.3,2.5-5,3.3C114.7,72.4,115.4,70.9,117,70.1z"/>
			<path class="st87" d="M99.1,81.1c0.2-0.6,0.3-1.3,0.6-1.8c0.5-0.9,1.4-1.3,2.5-1c0.2,0.1,0.5,0.4,0.6,0.7c0.1,1.2-0.7,1.7-1.7,2
				C100.4,81.1,99.7,81.1,99.1,81.1L99.1,81.1z"/>
			<path class="st162" d="M106.1,81.1c0.2-0.6,0.3-1.3,0.6-1.8c0.6-0.9,1.4-1.3,2.5-1c0.2,0.1,0.5,0.4,0.6,0.7
				c0.1,1.2-0.7,1.7-1.7,2C107.4,81.1,106.7,81.1,106.1,81.1L106.1,81.1z"/>
			<path class="st30" d="M122,81c-0.9-0.1-1.6-0.1-1.6-1c0.1-1.1,0.9-1.6,1.9-1.8c0.6-0.1,1.3,0.1,1.3,1
				C123.6,80.3,122.6,80.6,122,81z"/>
			<path class="st84" d="M124,70.1c0.4,0.4,0.8,0.7,1.1,1.1c-0.5,2.2-2.3,2.5-5.1,3.4C121.7,72.4,122.4,70.9,124,70.1z"/>
			<path class="st31" d="M92,81.1c0.2-0.6,0.3-1.3,0.6-1.8c0.6-0.9,1.4-1.3,2.5-1c0.2,0.1,0.5,0.4,0.6,0.7c0.1,1.2-0.7,1.7-1.7,2
				C93.4,81.1,92.7,81.1,92,81.1C92.1,81.1,92,81.1,92,81.1z"/>
			<path class="st163" d="M169.5,75.2c-0.4,3.4-4,3.4-5.2,5.6c-0.1,0.2-1.2-0.1-1.7-0.4c-0.1-0.1,0-1.1,0.2-1.3
				C165,78,166.2,75.3,169.5,75.2z"/>
			<path class="st164" d="M162.5,75.1c-0.5,3.7-4.4,3.3-5.4,5.7c-0.1,0.1-1,0.1-1.3-0.2c-0.7-0.5-0.4-1.3,0.1-1.6
				C158,77.9,159.3,75.4,162.5,75.1z"/>
			<path class="st150" d="M183,81.1c1-3.7,4.3-4.4,7.3-5.4C188.3,78,186.5,80.6,183,81.1L183,81.1z"/>
			<path class="st111" d="M190.8,80.6c1-3.2,3.7-4.1,6.2-5.4C196.1,78.4,193,79,190.8,80.6z"/>
			<path class="st31" d="M181.1,76.9c-1.2,1.5-1.3,4.3-4,4c-0.3,0-0.8-0.8-0.7-1C177.2,77.8,179.4,77.7,181.1,76.9z"/>
			<path class="st165" d="M146,77.9c-1.2,2-2.1,3.4-4,3c-0.3-0.1-0.6-0.9-0.5-1.1C142.3,78,143.9,77.8,146,77.9z"/>
			<path class="st165" d="M134,81.1c0.2-2.5,1.7-3.2,3.9-3c0.4-0.3,0.8-0.3,1.2,0.1C137.9,80,136.5,81.4,134,81.1z"/>
			<path class="st166" d="M139.1,78.1c-0.4,0-0.8,0-1.2-0.1c0.1-0.3,0.1-0.7,0.2-1c0.4-1.1,1.1-2,2.3-2.4c0.2-0.1,1,0.5,1,0.8
				C141.4,77,140.7,78,139.1,78.1z"/>
			<path class="st150" d="M40.5,77.9c-4.1,6.2-9.5,10.9-15.8,14.7C29.5,87.2,33.5,80.8,40.5,77.9z"/>
			<path class="st167" d="M54.2,58.3c-4.2,7-10.9,11.4-17.1,16.2c5.1-6,9.5-12.8,16.9-16.4L54.2,58.3z"/>
			<path class="st112" d="M43.9,74.3c2.8-4.9,7.3-8.1,11.1-12c0.6-0.6,1.3-1.1,2.1-0.3s0.3,1.8-0.2,2.2C52.2,67,49.4,72.2,43.9,74.3
				z"/>
			<path class="st168" d="M33.1,70.1c4.5-4.1,8.4-9,13.9-12c0.4-0.3,0.8-0.3,1.2,0.1C44,63,39.7,67.7,34.3,71.3
				C33.2,71.4,32.8,71.1,33.1,70.1z"/>
			<path class="st30" d="M55.2,71.2c-3.9,3.4-5.8,9.3-12.1,9.9c2.8-4.5,7.5-7.2,11-11C54.7,70.2,55.1,70.6,55.2,71.2z"/>
			<path class="st155" d="M55.2,71.2c-0.4-0.4-0.8-0.8-1.1-1.1c2.9-3.4,6.5-6.1,10-9c0.3-0.3,0.7-0.4,1.2-0.3
				c0.7,0.6,1.4,1.2,0.8,2.3l0,0C61.5,64.5,59.4,69.2,55.2,71.2z"/>
			<path class="st168" d="M65.2,61.1c-0.4,0-0.7,0-1.1,0c1.8-4.9,5.6-7.8,10-10.1c0.3,0.4,0.7,0.8,1,1.1
				C72.7,56.2,69.9,59.8,65.2,61.1z"/>
			<path class="st76" d="M29.1,96.1c-1.7,3.2-3.6,5.4-7.1,2c1.2-3.6,4.9-1.4,7-3.1c0.3,0.2,0.4,0.5,0.3,0.7
				C29.3,96,29.2,96.1,29.1,96.1z"/>
			<path class="st150" d="M29.1,96.1c0-0.4,0-0.7,0-1.1c2.2-1.4,2-5.7,6-4.9C34.3,93.3,31.5,94.5,29.1,96.1z"/>
			<path class="st162" d="M33.1,70.1c0.4,0.4,0.8,0.8,1.2,1.1c-0.8,1.9-2.1,3.3-4.1,4C29.1,72.3,31.7,71.6,33.1,70.1z"/>
			<path class="st166" d="M29.1,81.1c0.8,1.7,0.6,3.1-1.4,3.8c-0.3,0.1-1.2-0.3-1.2-0.5C26.4,82.6,27.2,81.4,29.1,81.1L29.1,81.1z"
				/>
			<path class="st30" d="M43.1,81.1c1.2,3-0.4,4-3,4.1C40.3,83.3,40.7,81.5,43.1,81.1z"/>
			<path class="st154" d="M53.9,58c0-0.2,0-0.3,0.1-0.5c0.4-1.5,1.2-2.7,2.9-2.7c0.2,0,0.6,0.8,0.6,1.1c-0.4,1.7-1.7,2.3-3.3,2.3
				C54.2,58.3,53.9,58,53.9,58z"/>
			<path class="st169" d="M48.1,58.1c-0.4,0-0.8-0.1-1.2-0.1c0.2-1.9,1.6-3,3.1-3.9C51.2,56.4,50.4,57.6,48.1,58.1z"/>
			<path class="st166" d="M29.1,81.1c0.2-0.6,0.3-1.3,0.6-1.8c0.6-0.9,1.4-1.4,2.5-1c0.2,0.1,0.5,0.4,0.6,0.7c0.1,1.2-0.7,1.7-1.7,2
				C30.4,81.2,29.7,81.1,29.1,81.1L29.1,81.1z"/>
			<path class="st150" d="M38.2,86.1c0.1,2.2-0.1,4.2-3.1,4C35.4,88.2,35.7,86.3,38.2,86.1z"/>
			<path class="st87" d="M45.7,99.5c7.1-7.8,13.8-16,22.7-21.8C62.6,86.7,53.9,92.9,45.7,99.5z"/>
			<path class="st170" d="M32.1,101c-0.7-0.4-4.1,0.8-1.6-1.6c4-4,7.5-8.7,12.7-11.4c0.1,1.1,0.7,1.6,1.7,2.1c2,1.2,0.3,2.8-0.6,2.5
				c-5.2-1.4-6.5,3.3-9.3,5.5C33.8,99.1,33,100.1,32.1,101z"/>
			<path class="st171" d="M57.1,81.1c1.6,3.6-1.6,4.4-3.6,5.3c-1.7,0.8-1.3,5.5-4.2,2.9c-1.2-1.1,1.5-3.5,3-4.8
				C53.8,83.2,55,81.5,57.1,81.1L57.1,81.1z"/>
			<path class="st171" d="M66.1,72.1c0.3,0.3,0.7,0.7,1,1c-2.7,3.4-4.7,7.8-10,8l0,0C58.5,76.5,63.7,75.8,66.1,72.1z"/>
			<path class="st30" d="M43.1,88.1c0.9-3.8,4.2-5.1,7-7C50.6,86.3,46.4,86.8,43.1,88.1z"/>
			<path class="st151" d="M66,66c0,0.7,0,1.4,0,2.1c-0.7,1.8-1.9,2.9-3.9,3.1c-1,0.2-1.4-0.1-1.2-1.1C62.5,68.4,63.9,66.8,66,66z"/>
			<path class="st30" d="M50.1,81.1c0.1-3.3,3.1-2.9,5-3.9C54.5,80,52.9,81.3,50.1,81.1z"/>
			<path class="st35" d="M61.1,70.1c0.4,0.4,0.8,0.7,1.2,1.1c-0.8,1.9-2.1,3.3-4.1,4C57.1,72.4,59.6,71.5,61.1,70.1z"/>
			<path class="st168" d="M26.1,70.1c5.6-5.3,11.3-10.6,16.9-15.9c0.4,0.4,0.8,0.8,1.1,1.2c-5.4,5.4-10.4,11.4-16.9,15.8
				C26.2,71.4,25.9,71.1,26.1,70.1z"/>
			<path class="st112" d="M16.1,73.1c2.7-2.5,4.8-5.7,8.5-7.7C23.6,70.1,19.8,73.4,16.1,73.1L16.1,73.1z"/>
			<path class="st35" d="M26.1,70.1c0.4,0.4,0.7,0.7,1.1,1.1c-0.4,2.1-2.4,2.6-3.7,3.8c-1.1,1-1.8,4.4-3.8,2.3
				c-1.3-1.3,1.6-2.7,2.7-4C23.6,72.2,24.9,71.2,26.1,70.1z"/>
			<path class="st172" d="M36.1,54.1c1.4,3.8-1.5,4.2-4.8,5.4C32.9,56.9,34.1,55.2,36.1,54.1C36.1,54.2,36.1,54.1,36.1,54.1z"/>
			<path class="st78" d="M26.1,59.1c0-0.4-0.1-0.8-0.1-1.1c0.2-2,1.6-3,3.1-3.9C30.6,57.3,28,58,26.1,59.1z"/>
			<path class="st173" d="M563.5,44c-3.7,1.7-7.4,1.1-11.1,0.4C556,42.5,559.8,43.3,563.5,44z"/>
			<path class="st72" d="M65.2,61.1c3.3-3,6.6-6,9.9-9c1.2,1-0.3,2,0,3c-3.2,2.4-4.2,7.4-9,8C65.8,62.5,65.5,61.8,65.2,61.1z"/>
		</g>
	</g>
</g>
</svg>
