<?xml version="1.0" encoding="utf-8"?>
<!-- Generator: Adobe Illustrator 25.0.0, SVG Export Plug-In . SVG Version: 6.00 Build 0)  -->
<svg version="1.1" xmlns="http://www.w3.org/2000/svg" xmlns:xlink="http://www.w3.org/1999/xlink" x="0px" y="0px"
	 viewBox="0 0 645.7 276" style="enable-background:new 0 0 645.7 276;" xml:space="preserve">
<style type="text/css">
	.st0{display:none;}
	.st1{display:inline;fill:#06F206;stroke:#000000;stroke-miterlimit:10;}
	.st2{fill:#2F3131;}
	.st3{fill:#DFEBEA;}
	.st4{fill:#FEFEFE;}
	.st5{fill:#555650;}
	.st6{fill:#ACB0B0;}
	.st7{fill:#C2C9C8;}
	.st8{fill:#181613;}
	.st9{fill:#292B2B;}
	.st10{fill:#2E3030;}
	.st11{fill:#C2CCCB;}
	.st12{fill:#313433;}
	.st13{fill:#B8C1C0;}
	.st14{fill:#ACB5B3;}
	.st15{fill:#2C2822;}
	.st16{fill:#3D372E;}
	.st17{fill:#28251F;}
	.st18{fill:#252726;}
	.st19{fill:#121312;}
	.st20{fill:#D5E1E0;}
	.st21{fill:#EFF7F7;}
	.st22{fill:#333535;}
	.st23{fill:#3D4140;}
	.st24{fill:#303332;}
	.st25{fill:#3C3F3E;}
	.st26{fill:#383B3B;}
	.st27{fill:#414443;}
	.st28{fill:#393C3B;}
	.st29{fill:#464A49;}
	.st30{fill:#5F6463;}
	.st31{fill:#676D6C;}
	.st32{fill:#626766;}
	.st33{fill:#0D0D0D;}
	.st34{fill:#F1F2F2;}
	.st35{fill:#0E0D0D;}
	.st36{fill:#282A2A;}
	.st37{fill:#303231;}
</style>
<g id="Camada_2" class="st0">
	<rect class="st1" width="645.7" height="276"/>
</g>
<g id="Camada_1">
	<g>
		<path class="st2" d="M631.3,0.6c0,13.8,0,27.5,0,41.3c0,1.6,0.6,3.4-0.9,4.7c-7,1.4-14,1.5-20.9-0.2c-1.3-0.4-2.5-1.2-3.8-1.1
			c-4.2,0.4-5.4-2.4-6.3-5.6c-1-3.4,0.2-5.7,3-7.6c3-2,6-4,9.1-5.9c0.6-0.4-0.3-1,0.1-0.4c0.1,0.1-0.1,0.1-0.3,0.3
			c-3.1,2.1-5,0.4-6.4-2.2c-1-1.9-1.3-4.1-0.7-6.3c2-1.6,4.7-1,6.8-2.5c3-2.1,6-3.1,7.6,1.8c0.6,1.7,2,2,3.6,1.4c2.5-1,0.3-2,0-2.9
			c-0.9-3-1.7-6-2.5-9c2.3-4.1,6.8-4.1,10.4-5.8C630.7,0.6,631,0.6,631.3,0.6z"/>
		<path class="st3" d="M615.2,275.8c-6.8,0-13.8,0-20.8,0c1.3-1.6,3.1-0.9,4.6-1c6-0.3,11.5-1.9,15-7.3c0.3-0.4,0.1-1.8,0.7-1.2
			c4,4.2,4-1.2,5.5-2.4c1.2-0.9,2.3-2.4,3.7-0.8c1.5,1.8,2.8,1.7,4.7,0.6c2.3-1.3,4.4-3.3,7.4-2.4c-1-5.3,4.5-0.9,5.3-3.5
			c3,2.8,2.1,6.8,3.3,10.2"/>
		<path class="st4" d="M644.4,267.9c0.3-0.5,0.6-0.6,1-0.1"/>
		<path class="st4" d="M615.4,275.8"/>
		<path class="st5" d="M602.4,0.6c3.6,3.8,6.1,9.5,13,8.1c-0.7,2.7-2.9,2.2-4.8,2.3c-3.9,0.2-7.9,0.1-11.8,0.1
			c-2.1-0.3-4.2,0.1-6.4-0.1c-1.6-0.4-3.9,0.3-4-2.5c7,1.8,9.7-3.4,12.9-7.8C601.7,0.6,602,0.6,602.4,0.6z"/>
		<path class="st6" d="M0.1,97.3c0.3-0.1,0.6-0.1,0.9,0c2.6,6,2.7,12.1-0.1,18.1l-0.4,0.1l-0.4-0.2C0.1,109.3,0.1,103.3,0.1,97.3z"
			/>
		<path class="st7" d="M645.3,267.8c-0.3,0-0.7,0.1-1,0.1c-1.5-3.2-0.9-7-2.9-10.1c0-1,0-1.9,0-2.9c0.2,0,0.4-0.1,0.5-0.1
			c1.1,3.4,2.3,6.7,3.4,10.1C645.3,265.8,645.3,266.8,645.3,267.8z"/>
		<path class="st8" d="M0.9,115.3c0-6,0.1-12.1,0.1-18.1c0.3-0.7,0.6-1.3,0.9-2c1-2.2,1.5-4.9,5-3.8s2.6,3.5,1.9,6.1
			c-1.6,5.8-2.3,11.7,0.3,17.5c1.6,3.6,3.9,5.7,8.1,5c11.7-1.8,23.5-0.6,35.3-2.4c4.3-0.6,8.8-0.3,13.3,0.7
			c7.1,1.6,14.2-0.1,21.2-1.5c4.5-0.9,8.6-0.4,13.1,0.3c8.4,1.3,17.2,1.5,25.7-0.3c2.8-0.6,5.4-1,8.3-0.3c5.9,1.3,11.9,0.8,17.9,1.2
			c9.2,0.6,18.4,0.9,27.6,0.8c6.6,0,13.2-0.7,19.8-1.8c1.6-0.3,3.4-1.1,4.9-0.2c7.3,4.2,15.3,1.2,22.9,2.2c1.3,0.2,3.5,0.9,2.6-2.3
			c-0.6-2.1,1.6-2.1,3.1-2c3,0.4,5.9,1.1,8.4,2.9c1,0.9,2.2,1.4,3.6,1c8.4-2.1,16.7,0.1,25,1c2.1,0.2,3.9,0.2,5.7-0.8
			c0.7-0.3,1.5-0.4,2.2-0.4c10.2-1.4,20.5,0.8,30.8-0.3c3.6-0.4,7.2,2.5,10.7,1.1c7.8-3.1,16.1-1.7,23.9-1.6
			c11.6,0.1,23.4-0.8,35,0.9c4.5,0.6,9.2,2.5,13.1-1.8c0.5-0.5,1.2-0.6,1.8-0.1c4.6,3.6,10.2,1.8,14.9,1.7c8.8-0.3,17.4,1,26.1,0.8
			c1.2-0.1,2.5-0.4,3.7-0.4c9.1,0.7,18.2,0.6,27.2,0.4c7.5-0.2,14.9-0.2,22.3,0.6c3.2,0.4,5.8-1.5,8.8-1.2c4.7,0.6,9.6-1.2,14,2.1
			c1,0.7,2.7,0.5,3.9-0.2c6-3.4,11.5-1.3,16.9,1.2c2,1,4.2,1.6,6.3,0.8c3.8-1.4,7.9-1,11.7-2.1c13.3-3.7,26.5,6,31.6,15.6
			c1.5,2.9,3,3.6,6,3.6c3.1,0,6.5,0.1,7.6,4.5c1.8-4.1,4.1-7.9,5-12.1c0.7-3.1,1.2-6.3,2.6-8.9c5.8-11,3.6-22.3,1.8-33.5
			c-0.9-5.7-1.9-11.6-7.4-15.8c-2.4-1.8-0.8-6.2-1-9.4c5,0.3,6.8-1.1,8-6.1c1.3-5.3,2.1-5.9,7.9-5.6c3.5,0.2,7.1-2,10.6,0.4
			c0.8,4.1-2.6,4.7-5,6c-9.6,1.9-10.9,4.4-10.2,13.9c0.6,8.9,4.5,16.4,7.8,24.3c0.9,1.3,1.8,2.5,2.2,4.1c1.8,9.6-1,18.2-5,26.8
			c-3.2,6.9-5.9,14-9.3,20.8c-4.5,9.1-12.5,11.6-20.8,14.2c-1.9,0.6-2.8-0.5-2-2.5c0.7-3.3,0.3-5.9-3.3-7.6
			c-2.4-1.2-3.2-4.2-4.2-6.6c-2-4.7-5.9-7.5-9.4-10.8c-1.8-1.7-4.3-2.1-6.6-1.9c-6.1,0.7-12.8,0.1-17.7,5.2
			c-2.1,2.2-4.3,1.2-6.3-0.1c-5.3-3.4-10.8-5.5-17.2-3c-1.2,0.5-2.6,0.3-4,0.2c-29.5-3.4-59.2-1.7-88.7-1.9
			c-55.2-0.5-110.5-0.4-165.7-0.5c-62.9-0.2-125.8-0.6-188.7-0.7c-15.5,0-30.9,0.5-46.1,4.2C7.5,140.1,7,135.6,3.1,124.5
			C2.1,121.9,1.6,118.6,0.9,115.3z"/>
		<path class="st9" d="M579.3,160.9c0.4,1.6,1.1,2.7,2.6,1.1c1.5-1.6,3.5-2.2,5.4-2.2c7.1-0.2,10-5.5,13-10.5
			c7.1-11.9,12-24.8,15.5-38.2c0.8-3-0.2-6.5-0.4-9.7c5.8,4.1,6.9,8.3,3.7,14c-1,1.7-2.3,3.2-2.7,5.8c3.2-2.1,3.9-5.3,5.5-8
			c1-1.7,2.3-3.5,3.6-0.1c-1.1,12.4-0.4,24.9-0.6,37.3c0,1.6-0.4,3.3,0.4,4.9c0.9,31.1,6.6,61.6,14.3,91.6c0.8,3.1-0.7,3.3-2.6,3.8
			c-15.4,4.6-31,6.9-47.1,5.4c-3.5-0.3-7-0.1-10.4-0.2c-2.9,2.3-5.9,1.2-8.9,0.2c-3.6-1.1-7.2-1.6-10.9-1.8
			c-1.9-0.1-3.7-0.4-5.4-1.2c-8.8-2.2-17.7-4.2-26.3-7.1c-1.7-0.6-3.5-1.1-5-2.1c-0.6-0.4-1.2-0.9-1.5-1.6c0.1-2-1.8-5.5,3-4.2
			c1.3,0.3,0.8-1.1,0.9-1.7c0.4-2.5-2-3.1-3.2-4.5c-0.6-1.2-0.6-2.4-0.2-3.6c0.5-1.2,1.4-2.1,2.5-2.7c3.1-0.6,6.2-1.1,9.1-2.4
			c1.8-0.8,3.5-0.9,5.3-0.1c1.2,0.6,2.6,1,3.8,0.2c0.9-0.6,3.2-0.4,2.3-2.4c-0.7-1.5-1.9-0.4-3-0.1c-6.2,2.1-9.2,0.1-9.1-6.1
			c-0.1,1.6-1,3.2,0.1,4.7c2.2,3.2-0.2,3.9-2.5,4.8c-2.8,1.1-4.4,0.3-5.1-2.6c-0.6-2.3,0.2-4.2,1.2-6.2c1.3-2.6,1.5-5.1-1.3-7
			c-0.3-0.3-0.6-0.7-0.8-1.1c-0.3-1.3,0.4-2.2,1.3-3c5.4-0.7,10.8-1.4,16.2-2.2c7.4-1.1,14.3-3.6,20.6-7.9c3.6,1.5,5.3,5,7.8,7.6
			c1.6,1.7-1.1,2.2-2.2,2.8c-1.2,0.6-2.7,1.2-1.9,2.9c0.8,1.5,2,0.3,3,0.1c3.7-0.8,6.9,4,5.3,8.6c-1,2.9-0.8,4.4,2.2,4.8
			c-2.6-2-2.3-4.8-0.7-7.3c1.2-1.8,1.7-3.5,1.3-5.6c-0.5-2.7-0.4-5.7,1.9-7.3c2.6-1.9,4.5,1,6.6,2c0.4,0.2,0.8,0.6,1.3,0.6
			c2.1-2.7-1.5-4.9-0.6-7.5c0-0.5,0.1-0.9,0.2-1.3c1.2-3-0.6-5.5-1.5-8.1c-0.1-0.5-0.1-0.9,0.1-1.3c0.5-1.4-0.2-2.5-0.7-3.7
			c-0.6-1.4-1.2-2.8,1-3.4c2.8,0.1,4.4,1.2,5.3,4.2c1.1,3.9,7.8,6.1,11.3,4.1c1.1-0.6,2.2-2,3.4-0.6c1.2,1.4,1,3.1-0.4,4.5
			c2.8-2.2,5-5.1,8.1-6.9c1.8-1,3.6-3.4,5.6-1.8c1.7,1.4-1.3,3.1-1,4.8c3.2-6.2,2.7-5.5-3.7-9.7c-2.3-1.5-5.1-1.8-7.6-3.4
			c-2.3-1.5-2.6,0.8-2.3,2.6c0.2,1.4,1.4,3-0.7,3.8c-1.4,0.6-2.7-0.4-3.4-1.4c-2.7-4-7.6-2.7-11.2-4.6c-6.4-0.1-8.6-1.6-10.8-7.6
			C578.6,164.1,579,162.5,579.3,160.9z"/>
		<path class="st10" d="M525.5,204.1c-0.3,1-0.7,1.9-1,2.9c-1.6,1-2.1,2.5-2.1,4.2c0,0.8,0,2.2-0.7,2.3c-5.3,1.1-2.9,3.5-1.4,6.1
			c0.7,1.2-0.4,2.2-1.4,1.7c-2.9-1.3-6.4,0.3-9.2-1.6c1.1,0.9,2.9,1.4,2.1,3.3c-0.5,1.1-1.3,2.2-2.5,2.3c-3.3,0.1-5-2.3-7-4.9
			c2.3,4.8,1.9,10.1-0.9,13.3c-3.1,0.2-5.7-1.2-8.3-2.7c-7.6-4.5-15.6-8.4-23.2-13.1c-3.5-2.4-7.1-4.7-10.6-7
			c-1.2-0.8-3.2-1.5-1.8-3.7c4.4-4,8.9-8,13.3-12c1.1-1,2-2,3.7-0.8c14.3,9.6,30.5,9.9,46.9,9.7C522.8,204,524.1,204.1,525.5,204.1z
			"/>
		<path class="st11" d="M493.5,229.9c2.5,1.1,5,2.2,7.6,3.2c7.3,1.7,13.9,5.1,20.4,8.8c0.4,0.3,0.7,0.6,1.1,0.9
			c-1.2,5.6-4.5,8.7-10.6,8.6c1.8,0.1,3.9-1.1,4.9,0.9c1.1,2.3-0.1,4.5-1.3,6.5c-2-0.6-4-1.3-6-1.9c-8.5-4.4-17.1-8.5-25-14
			c-2.5-6-0.4-9.7,5.5-11.7C491.2,230.8,492,229.3,493.5,229.9z"/>
		<path class="st12" d="M578.2,165.7c0.9,2.5,5.3,2.1,4.7,6c-0.2,1,1.5,0.5,2.5,0.5c1.3-0.1,2.6-1.9,4-0.1c-0.2,2.8-2,4.5-4,6
			c-1.9,1.9,0.7,2.6,1.1,3.9c0.4,1.4,1.5,2.7-1,3c-1.6-0.2-2.4-1.7-3.7-2.4c-1.6-0.8-3.2-0.6-3.8,1c-2,5.1-6.1,9.6-4.4,15.7
			c3.1-6.2,8.9-3.9,13.9-4.4c0.1,1.6-0.4,3.4,1.3,4.6c2.4,1.7-0.2,2.3-0.7,3.4c-0.8,1.8-1.7,1-3.1,0.4c-1.8-0.8-3.3-3.9-5.4-2.1
			c-1.9,1.6-1.7,4.5-1.1,7c0.3,1.3,1.5,2.8,0,4.1c-4.7,4-3.1,7.1,2.6,10.2c-3.5,0-5.2-2-7.8-1.5c-2,0.4-2.1-1.9-1.1-3.2
			c2.6-3.3,1.7-6-0.5-9c-0.7-1-1-1.3-2.1-0.9c-1.3,0.4-1.4,4-3.6,1.4c-0.8-1-3-1.8-2-3.6c0.9-1.7,2.4-3.2,4.7-3
			c0.3,0,0.6-0.2,1.8-0.5c-3.4-2.6-6.1-5.2-8-8.5C569.8,185.8,575,176.3,578.2,165.7z"/>
		<path class="st13" d="M493.5,229.9c-2.7,1.6-4.5,4.8-8.1,5.1c-1.9,0.1-0.9,1.1-0.7,2.3c0.3,1.8,3.4,3.9-0.2,5.6
			c-10.8-5.9-20.7-13-30-20.9c0-3.4,1.9-4.9,5-3.9c2.3,0.7,4.3,2.2,6.8,2.6c3.3,0.6,1.5-4.3,4.4-3.9
			C478.3,221.2,485.9,225.6,493.5,229.9z"/>
		<path class="st14" d="M470.8,216.8c-0.1,0.1-0.3,0.2-0.4,0.3c-0.9,1.7-0.2,5.2-1.7,5.1c-2.4-0.2-5.6,0.4-7.4-1.7
			c-3.4-3.8-5-1.2-6.7,1.5c-8.1-4.6-8.1-4.6-1.7-10.8c1.5-1.5,3.2-2.8,4.8-4.2C460.9,211.7,466.6,213.2,470.8,216.8z"/>
		<path class="st15" d="M240.8,118.3c-3.3-1.5-6.7-2.4-10.3-2.7c-0.4,2.6,3.7,1,2.7,3.4c-0.8,1.9-2.9,1.2-4.5,1.3
			c-5.7,0.4-11.5-1.2-17.2,0.4c-0.7,0.2-1.7,0-2.4-0.4c-8.2-4.9-16.4-0.3-24.6-0.2c-2.8,0-5.6,0.5-8.4-0.1c-1.3-0.3-2.6-0.7-3.9-0.5
			c-11.6,1.5-23.2,0.1-34.6-1.2c-8.3-0.9-16,2.4-24.1,1.1c-6-1-12.3,1.6-18.2-2.1c-1.5-1-4.6-0.2-6.6,0.5
			c-6.9,2.5-14.3,3.6-21.2,2.4c-15-2.7-29.9,1.8-44.8,0.4c-2-0.2-4.1,0.8-6.1,1.1c-6,0.9-7.3-3.1-9.2-7.1
			c-2.7-5.8-0.7-11.6-0.2-17.4c0.1-1.5,3.3-2.9,0.3-4.4c-2.8-1.4-4,0.9-5.5,2.6c0.1-6.1,2.4-11.6,5.1-16.9c1.8-3.6,5.3-3.9,8.5-3.6
			c3.9,0.3,7.7,1.6,11.6,2.4c0.2,0.5,0.6,0.7,1.1,0.8c2.2,0.3,4.9,0.4,4.2,3.5c-0.6,2.8-3.4,2.3-5.5,1.9c-3-0.5-5.9-0.5-8.9,0.4
			c-2.6,0.7-4.1,2.4-3.9,5c0.2,2.9,2.8,2.5,4.7,2.5c5.5,0.1,10.9,0.9,16.2,2.4c4.3,1.2,8.6-0.3,12.8-1.1c2-0.4,3.8,0,5.8,0.3
			c6,0.8,12,1.1,17.9-0.6c4-1.2,8.2-1.2,12.2-1.4c1.9-0.1,3.8,0.2,5.8-0.3c1.7-0.5,3.5-0.5,4.8,0.7c2.5,2.3,5.4,2.2,8.4,1.8
			c10.7-1.5,21.5-2.3,32.2-1.1c4.4,0.5,8.4,0.5,12.6-0.7c2.1-0.6,4.2,0.2,6.4,0.7c3.4,0.8,7,2.9,10.2-0.7c0.5-0.5,1.3-0.5,1.9-0.2
			c6.2,3.9,12.5,1.9,18.8,0.4c0.7-0.1,1.4-0.4,2-0.2c6.3,2.1,12.6-1.7,19,0.6c3.7,1.3,7.8,0.1,11.8-0.1c11.9-0.8,23.8,0.9,35.7-0.9
			c0.9-0.1,1.7,0.1,2.4,0.6c2.1,1.5,4.5,1.4,6.7,0.8c5.9-1.6,11.7-1.5,17.6,0.2c3.1,0.9,6.2,0.8,9.1-1c2.5-1.6,5.2-0.7,7.7,0
			c2.9,0.8,5.8,0.9,8.6-0.2c1.1-0.5,2.2-0.6,3.4-0.3c13,3,25.9,1.8,38.9-0.2c6.9-1,13.9,0.6,20.8,0.9c6.7,0.3,13.3,1,20.3-0.5
			c9.7-2.1,20.1-2.3,30.1,0.5c5.2,1.4,10.3,1.9,15.6,0.1c5.1-1.7,10.5-0.7,15.8-0.5c2.3,0.1,4.7,0.5,6.9-0.2
			c7.7-2.4,15.1-0.4,22.5,1.5c1.6,0.4,3.2,0.9,4.8-0.1c4.2-2.8,8.2-1.1,12.2,0.4c0,0.5-0.2,0.9-0.6,1.2c-6.7,1.9-10.9,7-15.3,11.9
			c1,4.5-1.3,6-5.4,5.8c-1.3-0.1-2.7,0-3.9,0.8c-4.6,3.1-9.4,2.7-14.2,0.6c-2.1-0.9-3.9-0.4-5.8,0.4c-8.7,3.3-17.1,2.4-25.7-1.2
			c-5.5-2.3-11.6-2.8-16.7,1.7c-2.1,1.8-4.7,1.8-7.1,1.8c-6.7,0-13.5,1.4-20-1.7c-2-1-4.7-0.8-6.8,0.3c-8.1,4.2-16.4,2.1-24.7,1.3
			c-1.5-0.2-3-0.6-3.4-2.4c-1-4.5-4.1-3.6-7-2.5c-7.6,2.8-15.2,2.2-22.8,0.4c-1.9-0.5-3.8-1.2-5.8-1.1c-1.9,0.1-4.1,0.2-4.7-1.9
			c-0.6-2.3,1.3-3.3,3.3-4.1c-1.9,0.4-3.5,1.8-5.7,1.7c1.7,2.7,3.8,5.4,0.2,8c-2.9,2-7.2,0.9-9.3-2.5c-2.3-3.8-6.2-2.3-9.4-3.3
			c-2-0.6-4.3,0-6.4-0.2c2.4,0.3,4.9-0.1,7.3,0.2c1.4,0.2,2.6,0.9,2.9,2.4c0.3,1.5-1,2-2,2.5c-2.6,1.3-5.2,2.2-7.9,0.2
			c-2.2-1.7-4.7-1.7-7-0.2c-2.8,1.8-5.5,2.1-8.5,0.5c-2.6-1.4-4.6,0-6.8,1.4C252.4,117.8,246.8,119.1,240.8,118.3z"/>
		<path class="st16" d="M496.5,93.3c-1.4-1.5-3.1-1.3-4.6-0.5c-1.6,0.9-2.6,1.3-3.6-0.5c-0.6-1-2.1-1.2-2.3-0.1
			c-0.9,4.1-4.6,2.5-5.8,1.9c-4.2-2.3-8.9-1.1-13-2.7c-0.8-0.3-1.8-0.8-2.4-0.6c-8,3.2-16.3,1.3-24.4,1.6c-6.1,0.2-12,3.8-18,1.7
			c-6.2-2.2-12.4-2.9-18.8-2.6c-7,0.4-14.2-1.1-20.8,2.6c-1.7,0.9-4.1,1.5-5.9-0.8c-0.4-0.5-1.7-0.9-2.2-0.7
			c-6.8,3.2-13.4-0.9-20.1-1c-5.6-0.1-10.5,2.3-16,2c-8.5-0.6-17.1,0.3-25.7,0.6c-1.3,0.1-2.2-0.5-3.1-1.3c-1.5-1.5-2.6-1.9-4.5,0
			c-2.8,2.8-6.2-0.1-9.3-0.2c-3-0.1-5.4-0.6-8.4,1c-4,2.2-8.7,0.5-12.6-0.8c-3.5-1.1-6.5-0.1-9.6,0c-3.8,0.2-7.6,3-11.1-0.9
			c-0.2-0.2-0.7-0.4-0.9-0.2c-5.7,3.2-11.8,0.4-17.8,1.2c-5.8,0.8-11.8-0.5-17.6,0.1c-4.5,0.5-9.1,1-13.5,0.1
			c-3.9-0.8-7.4-1.8-11,0.9c-0.9,0.7-2.1-0.8-3-1c-2.6-0.5-5.5-1.9-7.8,0.8c-0.8,0.9-2.1,1.9-3,1.1c-3-2.4-6-0.6-8.9-0.1
			c-2,0.3-4,1.2-4.4-2c-0.1-1-1.4-2-2.1-0.6c-3,6.1-7.3,1.4-10.6,1c-3.3-0.5-6.2-1.3-9.5,0.2c-2.6,1.2-5.6-0.1-7.9-0.1
			c-6.4,0.2-12.8-2.3-19.1-0.5c-6.2,1.7-12.8,0.3-19,2.1c-0.5,0.2-1.5-0.1-1.8-0.5c-2.9-3.7-6.3-3.8-10-1.3c-3.2-4-7,1.9-10.3-0.6
			c-0.1-0.1-0.4-0.2-0.5-0.1c-4.9,3.6-10.9,1-16.1,2.6c-1.3,0.4-2.8,0.7-3.9-0.1c-4.2-2.9-8.5-0.8-12.7-0.3c-3.5,0.5-7,1.1-10.2-0.4
			c-5-2.3-10.3-1.2-15.4-2c-2-0.3-5.2,0.5-4.9-2.6c0.3-2.8,0.2-6.8,4.5-7.3c3.2-0.4,6.3-1.9,9.8-0.5c1.5,0.6,4.2,1.3,4.9-0.6
			c0.9-2.5-2-2.3-3.5-3.1c-0.4-0.2-0.6-0.7-0.9-1.1c36.1,5.2,72.4,2.5,108.6,2.6c57.2,0.2,114.4-0.2,171.7-0.4
			c81.2-0.3,162.3-0.6,243.5-0.9c1.8,0,3.7,0.1,5.5,0.1c-0.6,2.6-2.8,2-4.4,2.1c-3.3,0.2-6.6,0-10,0.1c-1.7,0-3.6-0.1-4.8,1.7
			c3.3-0.5,6.6,0,9.8,0c4,0.1,7,1.9,9.4,4.8c2.8,3.5,1.8,6.6-2.6,7c-6.3,0.6-12.6,0.9-18.9,0.5c-2-0.1-3.9-0.6-5.7,0.7
			c-0.5,1.4,0.7,1.7,1.4,2.4c1.7,1.8,2.6,3.8,0.5,5.6c-2.3,2.1-4.7,1.3-6.3-1.2c-1.1-1.8-3-2.5-4.5-3.8c-4.8-4.2-10.4-3.6-15.9-2.8
			C501.4,96.2,498.7,95.9,496.5,93.3z"/>
		<path class="st17" d="M496.5,93.3c5.6,2.1,11.1,1.3,16.6-0.2c1-0.2,1.7-0.1,2.2,0.5c3,3.8,9.2,3.2,11,8.8c0.7,2.1,2.9,1.4,4.3,0.5
			c1.5-1.1,1.1-2.8-0.2-3.9c-1.2-1.1-2.8-1.7-4.2-2.6c3.3-3.7,4.7-3.2,9.6-2.8c6.3,0.5,12.8-0.2,19.2-0.8c2.6-0.3,2.9-2.2,1.1-4.4
			c-3.6-4.4-11.4-6.7-17.2-4.8c-1.1,0.4-2,2.3-3.4,0.6c-0.6-0.7-1.2-1.7-0.6-2.7c0.8-1.4,2-2.2,3.7-2.2c4.3,0,8.7,0,13-0.1
			c1.6,0,3.4,0.5,4.8-0.8c1,0,2-0.1,3-0.1c0.4,0.5-0.1-0.1,0.3,0.4c4.7,6.2,6.6,7.1,10.2,5.2c3.9-2.1,7.7-10.6,6.5-14.7
			c-0.2-0.7-0.4-1.4-1.2-1.2c-6.1,1.3-1.8-2.5-2-4l-0.1,0.1c3.2-3.3,6.7-5.4,11.6-5.3c4.7,0.1,8.4,1.3,10.7,5.5
			c0.3,2.3,2.9,4.2,1,6.9c-0.6,0.9-0.4,1.8,0.8,2.4c4.7,2.3,5.1,6.9,6.6,11.4c2.7,8.4,2.5,16.8,2.7,25.4c0.1,5-1.6,9.1-3.8,13.5
			c-0.8,1.7-3.4,5.1-1.5,8.3c0.2,0.4,0,1.5-0.4,1.8c-3.3,2.4-3.3,6.3-4.4,9.6c-0.5,1.4-1.1,3-2.9,2.8c-1.9-0.3-1.5-1.8-1.7-3.4
			c-0.4-4-5.1-2.6-6.2-2.3c-4,1-4.4,0.6-5.9-3.7c-2-5.6-7.3-9.8-13-13c-9.7-5.4-19.1-2.4-28.6-0.2c-3.3,0.7-6.4,0.2-9-1.5
			c-1.1-0.7-1.8-1.1-3.2-1.3c-4.1-0.6-7.9-2.6-12,0.9c-1.4,1.2-5.2,1.3-7.2-1.4c-0.8-1.1-2-1.6-3-1.1c-4.1,2.1-8.6,0.5-12.9,1.2
			c-5.4,0.9-11.7,0.3-17.5-0.6c-5.1-0.7-10.1,1.5-15.1,0.3c-6.8-1.7-13.9,2.2-20.6-1.1c-1.9-2.4-1.9,0.8-3,1
			c-4.8-0.6-9.9,1.5-14.3-1c-2.8-1.6-5.2,0.2-7.3,0.5c-5.5,0.8-10.9-2.1-16.2,0.3c-4.2-4.9-7.5,1.8-11.2,1
			c-7.3-1.7-14.8-1.6-22.2-1.9c-4.5-0.2-9.1-1.1-13.4,1.3c-0.4,0.2-1.1,0.6-1.3,0.4c-6.7-4.9-14.4,0.5-21.5-2.2
			c-2.2-0.8-4.8,2.7-8.2,2c-11.1-2.2-22.6,0.2-33.7-2c-2.5-0.5-4.8,2.1-7.5,0.6c-0.5-0.6-1.2-1-2-0.9c-0.4,0-1-0.5-1.2,0.3
			c0.5,0.1,0.9,0.2,1.2,0.6c-1.3,2.5-3.4,2-5.6,1.7c-6.5-0.9-13-1.9-19.6-2.4c-2.1-0.2-4.3,1-6.5,1.5c-1.6,0.4-3,0.4-3.3-1.8
			c6-1.8,12.9-0.5,17.7-6.3c1.2-1.4,4.3-2.4,6.6,0c1.8,1.9,4.1,1.8,6.2,0c3.3-2.7,6.4-2.8,9.8,0.3c2.9,2.7,5.2-1.2,8.6-1.5
			c-4.4-4.5-9.5-1.4-13.7-3.5c6.1,0,12.1-0.1,18.2,0c1.5,0,2.4,1.2,2.4,2.7c0,2.3,1,3.4,3.3,3.2c2-0.2,4.6,0.8,5.5-2.1
			c0.8-2.6-1-3.9-3-5.1c-0.4-0.2-0.7-0.6-1.7-1.6c5.1,0.8,8.8-2.9,14.1-1.6c-2,2-4.9,0.7-6.1,2.8c-0.4,0.7-1.4,1.5-1.2,2
			c0.3,0.9,1.6,1.6,2.5,1.2c3.6-1.6,6.5,0.2,9.4,1.7c1.2,0.6,2.5,0.8,3.9,0.6c3.6-0.4,7.1-1.1,10.7,0c1.4,0.4,3.1,0.3,4.2-1
			c3-3.3,6.4-1.6,9.7-0.9c0.4,0.1,1.2,0.6,1.2,0.6c-2.5,7.4,4.9,5,6.3,4.9c6.5-0.6,13.3,2.9,19.6-2.1c1.8-1.5,6.4-1.3,8.6,0
			c7.7,4.2,15.5,0.7,23.2,1.4c1.3,0.1,1.7-0.7,1.9-1.9c0.1-0.9,0.4-1.8,1.4-1.8c5.7-0.1,11.2-2.6,17.1,0.6
			c8.1,4.5,16.9,4.4,25.3,0.5c2.1-1,3.3-1.1,5.3,0c4.2,2.3,8.6,3.2,12.8-0.5c1.5-1.4,3.5-0.7,5.3-0.8c2.6-0.1,6.2,0.7,3-3.9
			c-0.5-0.7,0-1.6,0.8-2.1c2.7,1.4,4.4,3.8,6,6.4c2.6,4.1,6.3,5.3,10.3,3.9c3.4-1.2,7.5-6.7,7.1-10.1c-0.3-3-2.6-4.8-4.8-6.7
			c-1.4-1.1-3.9-1.8-2.7-4.5C495.8,93.3,496.2,93.3,496.5,93.3z"/>
		<path class="st18" d="M588.5,8.4c0.8,1.6,2.5,1,3.8,1.4c0.6,3.8-0.6,5.6-4.7,5c1.5,0.9,2.6,2.5,4.4,3.2c0.4,0.2,0.7,0.6,0.9,1
			c0.3,3,3.2,4.5,4.4,7c2.3-2.8,2.8-6.8,6.4-8.6c0.2,0.1,0.4,0.1,0.7,0.2c0.3,0.8,0.8,1.5,0.9,2.3c1.4,7,2.2,7.4,8.4,4.1
			c-1.5,5-6.3,6-9.6,8.6c-2.3,1.8-4.9,2.8-3.6,6.5c1,2.9,1.2,6.4,6,5.2c0.9-0.2,2.3,0.1,3,1.3c-1.6,2.4-4.2,2.5-6.6,2.3
			c-7.5-0.6-15.1,1.2-22.6-1.3c-1.9-0.7-3.9,0.3-5.9,0.3c-0.2-0.2-0.5-0.3-0.7-0.3c-0.9-14.2-0.1-28.4-0.1-42.6c0-2,0.6-2.7,2.7-1.6
			C580.2,4.3,584.3,6.3,588.5,8.4z"/>
		<path class="st19" d="M574.3,46.7c1.7-2.8,4.4-2.4,6.7-1.8c9.4,2.7,18.9,1.7,28.3,0.5c6.9,1.6,14-0.1,21,1.1c-1.4,2.2-3,4.3-5,5.9
			c-0.4,0.5-0.7,1.2-1.3,1.6c-1,0.3-1.8,0.2-2.6-0.5c-4.4-1.1-8.6,1.8-13.2,0.2c-2.1-0.7-4.1,1.7-3.7,4.1c0.8,4.4-2.7,6.1-4.8,8.4
			c-1.8,2-2.6-1.7-4.3-1.8c-0.3,0-0.8,0.1-1-0.1c-6.9-6.7-13.9-4.6-20.9-0.2c-0.1,0.1-0.3,0-0.5,0.1c0.8-2,1.6-3.9,3.6-5.1
			c4.2-2.8,4.2-4.2,0.9-8.2C576.4,49.5,574.7,48.6,574.3,46.7z"/>
		<path class="st19" d="M573.1,64.1c-0.1,1.1-0.2,2.2-0.3,3.4c1.8,0.5,2.3-2.7,4.1-1.5c1.7,1.2,0.4,3,0.5,4.6
			c0.4,5.3-1.8,9.7-5.2,13.4c-2,2.2-4.9,3.5-7.6,1.8c-2.5-1.6-5.7-3.3-5.2-7.3C566.1,75.6,569.6,69.8,573.1,64.1z"/>
		<path class="st20" d="M515.5,258.8c-0.2-0.5-0.6-1-0.4-1.4c1.1-3.5,3.4-8-3.6-3.8c-0.7,0.4-1.8,0.4-2.3-0.4
			c-0.7-1.1,0.2-1.9,1-2.4c0.6-0.5,1.5-1,2.2-0.9c4.7,0.4,7.6-1.5,8.5-6.2c0.1-0.4,1.1-0.6,1.7-0.9c10.5,3.7,21.3,6.1,31.9,9
			c-0.1,1.4,1.3,1.8,1.9,2.7c2.2,3,1.6,4.4-2.1,5.5c-5.2,1.5-10.6,2.8-14,7.8h-0.5h-0.5c-0.7-1.6-2.2-2.2-3.5-3.1
			c-1.6-1.3-0.9,1-1.6,1.2C528,263.9,521.3,262.5,515.5,258.8z"/>
		<path class="st21" d="M540.4,267.8c0.8-2.4,2.2-4.3,3.8-6.1c0.5-0.6,1.7-1.5,1.8-1.4c3.7,3.1,5.8-2,9.3-1.8
			c2.8,0.2,0.5-2.3-0.1-3.7c-0.4-0.9-4.5-1-0.8-3c1.4,1.5,3.3,0.5,4.9,1c0.9,3,3.3,3.8,6,4.4c1.8,0.5,4,0,5.4,2.1
			c-0.4-1.4-2-1.7-2.3-3c-0.5-2.2,0.7-2.1,2.2-1.6c2.8,1.4,5.8,1,8.7,1.1c0,1.4,0,2.7,1.8,3.1c1.5,0.4,2.4,1.4,2,2.9
			c-0.3,1.5-1.6,2.1-2.9,2.4c-3.5,0.7-7.5,0.6-8.4,5.4c-0.2,0.9-1.7,0.9-1.9-0.1c-0.8-4.9-5.5-2.6-7.8-4.2c-4.3-3-5.8,0.7-8.1,2.7
			c-0.6,0.5-1.7-0.3-2.2,0.9c1.1,1.6,3.3,1.1,5.2,3.1C550.9,270.8,545.6,269.6,540.4,267.8z"/>
		<path class="st22" d="M624.2,53.2c0.4-0.2,0.8-0.5,1.2-0.7c-0.1,15.4-0.2,30.9-0.3,46.3c0,1.7,0.6,2.7,2.1,3.5
			c4.7,2.7,5.3,10.4,0.8,13.7c-2.4,1.7-3,3.6-2.9,6.3c0.2,11,0.2,21.9,0.3,32.9c-1.5-1.5-0.9-3.4-0.9-5.2
			c-0.1-12.9-0.1-25.8-0.1-38.6c-1.8-1.9-1.5-4.3-1.5-6.6c-0.1-15,0-29.9,0-44.9C622.7,57.5,622.7,55.2,624.2,53.2z"/>
		<path class="st21" d="M534.5,265.9c-0.7-1.5-1.9-3.4,0.2-4.3c2.5-1.1,1.3,2,2.3,2.6c1.5,0.8,2.9,1.6,2.5,3.6
			C538,266.6,535.8,267.4,534.5,265.9z"/>
		<path class="st23" d="M598.3,9.7c5.7-0.8,11.5,1.1,17.1-1c1.6-0.8,3.2-1.6,4.9-2.4c1.6,1.7,2,3.9,2.4,6.1c0.3,2.1,1.1,3.9,3.2,4.9
			c-5.7,4.2-5.8,4.3-8.8-1.5c-0.9-1.7-1.5-1.4-3-0.7c-3,1.3-5.9,4-9.7,2.5l0,0c-3.1,0-6.2,0.5-9.1,1.8c-1.2,0.5-2.2,0.6-2.9-0.8l0,0
			C592.8,14.6,594.2,11.2,598.3,9.7z"/>
		<path class="st2" d="M598.3,9.7c-3,2.3-3.6,6.1-5.9,8.8c-4.6,0.5-5.2-3.9-8.1-6c4.2,2.5,7,2.6,7.9-2.7
			C594.3,9.7,596.3,9.7,598.3,9.7z"/>
		<path class="st24" d="M624.2,53.2c0,19.4,0.1,38.8,0.1,58.2c-1.7,3.1-3.4,6.4-5.3,9.4c-0.8,1.3-1.9,3.6-3.6,2.6
			c-2.2-1.3-0.7-3.6,0.4-4.7c5.6-6,4.1-11.6-0.4-17.3c-0.7-1-1.3-2-2-3c-1.2-6.5-4.4-12.4-6.1-18.9c-3.1-11.9-2-13.1,9.1-21
			c1.7-1.6,4.7-1.9,5-5C622.3,53.4,623.2,53.3,624.2,53.2z"/>
		<path class="st17" d="M616.4,58.4c-2.1,2.3-4,4.9-6.5,6.8c-4.2,3.2-3.6,7.1-2.5,11.3c2,7.3,5.8,14,5.9,21.8
			c-5.3-9.4-8.5-19.4-8.9-30.2C604.2,62.3,608.8,58.9,616.4,58.4z"/>
		<path class="st15" d="M275.8,119.3c-0.6,0.1-1.3,0.2-1.9,0.4c-1.3,0.5-2.5,0.3-2.6-1.2c-0.1-1.4,1.3-1.3,2.2-1.2
			c1.6,0.1,3.9-0.8,4.3,2C277.1,119.2,276.4,119.3,275.8,119.3z"/>
		<path class="st15" d="M434.6,120.2c0-1.5,0-3,1.6-3.7c0.9-0.4,2-0.3,2.6,0.6c0.8,1.2-0.4,1.6-1.2,2.1
			C436.6,119.6,435.6,119.9,434.6,120.2z"/>
		<path class="st25" d="M585.4,178.1c0.3-2.7,2.7-4,4-6c0.4,0.2,0.9,0.4,1.3,0.7c2.2,1.5,4.8,0,7.2,1.3c2.2,1.2,2.8,4.2,5.5,4.7
			c1.1-0.7,0.6-1.4,0.1-2c-1.9-2.1-0.8-4.5,0.6-5.8c1.3-1.2,3.2,0.2,4.6,1.6c2.5,2.5,6.4,2.2,9.3,4.4c2.4,1.8,3.7,2.9,2.4,5.8
			c-0.5,1.2-1,2.4-0.3,3.8c0.5,0.9,0.4,2-0.9,2.3c-1.1,0.3-1.9-0.5-2.6-1.2c-0.7-0.8-1.1-1.5-0.2-2.6c0.9-1,1.6-2.2,3.1-4.3
			c-7.1,3-10.9,8.5-16.5,12c-0.4-3,4.2-4.2,1.4-7.6c-2,4.2-4.7,2.4-8.2,2.1c-5.1-0.5-6.4-2.6-6.9-6.7
			C589,178.4,586.2,179.7,585.4,178.1z"/>
		<path class="st26" d="M521.5,241.9c-7.3-1.8-13.9-5.1-20.4-8.8c3.2-1.9,0.1-4.8,1.3-7.2c1.4-2.7,0.4-4.6-2.8-5.3
			c-0.7-0.1-0.9-1-0.4-1.6c0.7-1,1.6-1.1,2.5-0.3c1.9,1.6,4,3.2,5.7,5c1.6,1.6,2.4,0.3,3.1-0.6c1.2-1.5,0.2-2-1.2-2.2
			c-3.1-0.6-0.7-2.9-1.4-4.4c2.5,5.7,8.5,0.6,11.7,4.1c-1-2.6-4.9-4-2.6-7.5c1.3-2,2.6,0,3.9,0.1c1-2.2-1.9-6.6,3.5-6.3l0,0
			c1.3,1,0.2,3.4,2.7,4c1.3,0.3,0.7,2.1,0,2.9c-3.1,3.6-2.7,7.8-2.7,12c-0.7,0.7-1.3,1.3-2,2c-1.7,0.6-2.9-0.6-3.8-1.6
			c-1.3-1.4-2.3-2.8-4.5-1.4c-1.9,1.2-2.3,2.1-2.2,5.5c2.2-0.3,4-2.5,6.4-1.7s3,2.8,3.6,4.9c0.3-0.1,0-0.3,0-0.4
			c0-0.5,0.1-0.9,0.6-1.3c3.4,1,5.2,4.6,3.6,7.4c-0.6,1.1-0.7,1.1-3.7-0.9C522.2,239.5,521.8,240.7,521.5,241.9z"/>
		<path class="st27" d="M587.4,195c-2.9,0.2-5.5,4-8.6,0.7c-1.4,2.1-6,2.4-3.9,6.9c-3.8-3.2-3.3-6.9-2.2-10.8c0.9-3.1,3-5.6,3.9-8.8
			c0.8-2.8,4.1-3.1,6.6-1.1c1,0.8,1.5,2.1,2.3,3.2l0,0c-2.2,3,1.9,4.4,1.9,6.9c0,0.6,0.7,1.3,0.1,2.1
			C587.4,194.4,587.4,194.7,587.4,195z"/>
		<path class="st10" d="M524.5,226c-3.9-3.7-0.4-7.4,0.4-10.8c0.4-1.9,3.2-3.1-0.3-4.8c-0.5-0.2-0.1-2.2-0.1-3.3
			c5,2.3,5.6,4.1,2.1,10.1c-1.4,2.4-0.4,4.3,0.4,6c0.9,1.8,2.7,0,4-0.2c2.1-0.4,2.5-1.5,0.9-3c-2.4-2.3,0.5-5-0.7-7.5
			c-0.2-0.5,0.7-1.2,1.4-0.9c1.4,0.6,2.1,2.1,1.7,3.2c-2,4.9,1.1,5.2,4.6,5.6c1.1,0.1,2,0,2.6-0.8c3.5-4.5,4.2-0.1,5.4,1.8
			c0.8,1.3,0.7,1.9-1.5,2.4C538.5,225.1,531.2,223.1,524.5,226z"/>
		<path class="st28" d="M617.3,221c1.6,0.1,3.6-2,4.7,0.6c0.7,1.7,2.7,3.6,0,5.4c-0.2,0.1-0.4,0.6-0.4,0.9c0.6,2.3,0.6,4.7-2,5.2
			c-2.2,0.4-1.5-3.2-3.3-4l0,0c0.1-2.3-0.3-3.7-3.4-3.2c-2.2,0.4-5-5.5-3.6-7.2c2.6-3.1,3.7,1.6,5.8,1.3
			C615.7,220.5,616.6,220.6,617.3,221z"/>
		<path class="st29" d="M522.6,231.9c-0.4,1.5,1.4,2.7,0.5,4.2c-1.2,0.3-1.3-0.6-1.6-1.4c-2.5-6.3-2.6-6.3-8.3-2.5
			c-0.8,0.5-2.1,0.7-2.1,0.1c0.3-2-2.4-3.2-1.1-5.4c2.4-4.2,5.5-4.6,9.4-1.3c0.9,0.8,2,1.6,3,2.4
			C522.5,229.3,522.6,230.6,522.6,231.9z"/>
		<path class="st20" d="M570.7,254.7c-0.8,0.3-2.2,0.3-1.1,1.8c1.3,1.7,2.5,3.4,3.5,5.5c-3.2-4.1-8.1-3.2-12.2-4.8
			c-2.8-1.1-2.7-2.4-1.5-4.4C563.3,253,567,253.7,570.7,254.7z"/>
		<path class="st12" d="M587.4,194c-1.8-0.8-2.7-1.5-1.9-4.1c0.7-2.2-2.6-0.6-3.8-1.8c0.8-1.6,2.4-2.2,3.7-3.2
			C586.8,187.9,589.7,190.4,587.4,194z"/>
		<path class="st25" d="M598.7,194.8c-2.2,0.3-2.6-1.5-3.9-1.8c-1.4-0.3-2.1-1.5-2-2.9c0-0.8,0.8-0.9,1.5-0.9c1.5-0.1,2.4,0.6,2.9,2
			C597.7,192.3,598.2,193.4,598.7,194.8z"/>
		<path class="st30" d="M618.4,214c0.6-4.9,3.4-8.7,6.5-12.4C622.4,205.5,622.1,210.6,618.4,214L618.4,214z"/>
		<path class="st31" d="M594.7,223.7c-0.8,3.4-2.2,6.4-5.4,9.5C590.3,228.8,593.2,226.6,594.7,223.7z"/>
		<path class="st32" d="M617.3,221c-1,0-1.3,2-2.6,1c-0.2-0.2,0.3-1.4,0.4-2.1c1.4-1.8,1.3-4.4,3.2-5.9l0,0
			C618,216.3,617.7,218.6,617.3,221z"/>
		<path class="st28" d="M616.4,228.9c-0.2,1.4-0.5,2.8-2.2,2.5c-0.5-0.1-1.3-1.9-1.1-2.4C613.9,227.2,615.2,229.4,616.4,228.9
			L616.4,228.9z"/>
		<path class="st33" d="M495.5,93.3c0.7,3,4,3.2,5.6,5.2c2.4,2.8,4.6,5.6,2.3,9.7c-2.1,3.8-4,7.5-9.1,8.1c-5.5,0.6-8.9-2-10.7-6.7
			c-0.9-2.3-3.9-2.7-4-5.3c1.7,0,2.8-1,3.5-2.3C485.8,97.1,490.2,94.6,495.5,93.3z"/>
		<path class="st34" d="M27.1,106.2c-0.1,2.4-1.6,3.8-3.7,4c-2,0.2-3.1-1.3-3.2-3.1c-0.2-2.3,1.2-3.9,3.4-4.2
			C25.9,102.6,26.9,104.2,27.1,106.2z"/>
		<path class="st35" d="M583.1,116.2c-5,0.2-8.3-1.6-9.9-6.1c-0.7-2-4.3-3.1-3.3-5.1c1.6-3.4,4.1-6.4,7.1-8.7
			c3.3-2.4,10.5,0.4,14.3,3.5c4.3,3.5,2.4,7.5,1.1,10.3C590.9,113.4,587.9,117.2,583.1,116.2z"/>
		<path class="st2" d="M592.4,18.5c2.8,1,4.7-2.1,7.5-1.8c1.5,0.2,3.2-0.8,4.5,0.8c-3.1,3.2-5.8,6.6-5.3,13.1
			c-2.7-4.1-4.5-6.7-6.9-8.9C591,20.6,592,19.6,592.4,18.5z"/>
		<path class="st36" d="M497.5,108.6c-1.9-7.2-3.8-8-9-4.1c1.1-4,3.5-5,6.7-3.8C498.3,101.9,499.1,104.4,497.5,108.6z"/>
		<path class="st37" d="M578.4,103.5c1.6-3.1,3.9-4,6.4-2.8c2.3,1,3.8,2.9,2.6,6.6c-1.3-2.2-1.2-4.4-3.7-5.2
			C581.5,101.4,580.4,103.5,578.4,103.5z"/>
	</g>
</g>
</svg>
