<?xml version="1.0" encoding="utf-8"?>
<!-- Generator: Adobe Illustrator 25.0.0, SVG Export Plug-In . SVG Version: 6.00 Build 0)  -->
<svg version="1.1" id="Camada_1" xmlns="http://www.w3.org/2000/svg" xmlns:xlink="http://www.w3.org/1999/xlink" x="0px" y="0px"
	 viewBox="0 0 890 287.5" style="enable-background:new 0 0 890 287.5;" xml:space="preserve">
<style type="text/css">
	.st0{display:none;}
	.st1{display:inline;stroke:#FFFFFF;stroke-miterlimit:10;}
	.st2{display:none;fill:#FFFFFF;}
	.st3{fill:#0E0F0E;}
	.st4{fill:#1B1D1D;}
	.st5{fill:#676966;}
	.st6{fill:#272C2D;}
	.st7{fill:#9CA09A;}
	.st8{fill:#2A2D2D;}
	.st9{fill:#090A0A;}
	.st10{fill:#B8BCB5;}
	.st11{fill:#191A1A;}
	.st12{fill:#111212;}
	.st13{fill:#151716;}
	.st14{fill:#1A1C1C;}
	.st15{fill:#060706;}
	.st16{fill:#1F201F;}
	.st17{fill:#101110;}
	.st18{fill:#242626;}
	.st19{fill:#1D1F1F;}
	.st20{fill:#272A2A;}
	.st21{fill:#2B2F2F;}
	.st22{fill:#060707;}
	.st23{fill:#383A39;}
	.st24{fill:#1E201F;}
	.st25{fill:#141514;}
	.st26{fill:#070807;}
	.st27{fill:#252625;}
	.st28{fill:#2C2E2D;}
	.st29{fill:#303230;}
	.st30{fill:#3A4244;}
	.st31{fill:#3A3B36;}
	.st32{fill:#1B1C1B;}
	.st33{fill:#363837;}
	.st34{fill:#4B4E4C;}
	.st35{fill:#2F3130;}
	.st36{fill:#202221;}
	.st37{fill:#323432;}
	.st38{fill:#50524C;}
	.st39{fill:#545754;}
	.st40{fill:#171817;}
	.st41{fill:#2D2F2D;}
	.st42{fill:#161817;}
	.st43{fill:#272928;}
	.st44{fill:#3B3E3C;}
	.st45{fill:#4C4E4C;}
	.st46{fill:#525552;}
	.st47{fill:#2A2B2A;}
	.st48{fill:#595C59;}
	.st49{fill:#373938;}
	.st50{fill:#373937;}
	.st51{fill:#7D807C;}
	.st52{fill:#1F2120;}
	.st53{fill:#5B5E5B;}
	.st54{fill:#3B3D3B;}
	.st55{fill:#474841;}
	.st56{fill:#4F595C;}
	.st57{fill:#88969A;}
	.st58{fill:#373A38;}
	.st59{fill:#B1B5AE;}
	.st60{fill:#545753;}
	.st61{fill:#8B8E87;}
	.st62{fill:#585950;}
	.st63{fill:#3C3D3A;}
	.st64{fill:#888C87;}
	.st65{fill:#1C1E1D;}
	.st66{fill:#59666B;}
	.st67{fill:#546165;}
	.st68{fill:#4B565A;}
	.st69{fill:#75776E;}
	.st70{fill:#262827;}
	.st71{fill:#3D403E;}
	.st72{fill:#414341;}
	.st73{fill:#343737;}
	.st74{fill:#4F524F;}
	.st75{fill:#515451;}
	.st76{fill:#565956;}
	.st77{fill:#4E514F;}
	.st78{fill:#434644;}
	.st79{fill:#4A4D4B;}
	.st80{fill:#343634;}
	.st81{fill:#393B39;}
	.st82{fill:#141515;}
	.st83{fill:#CFD1D1;}
	.st84{fill:#878B8C;}
	.st85{fill:#454744;}
	.st86{fill:#181A19;}
	.st87{fill:#181918;}
	.st88{fill:#485356;}
	.st89{fill:#484A48;}
	.st90{fill:#1A1C1B;}
	.st91{fill:#0A0A0A;}
	.st92{fill:#59676B;}
	.st93{fill:#343B3C;}
	.st94{fill:#4B4D48;}
	.st95{fill:#535552;}
	.st96{fill:#343532;}
	.st97{fill:#2D2E2D;}
	.st98{fill:#333534;}
	.st99{fill:#5C5F5C;}
	.st100{fill:#4C4F4C;}
	.st101{fill:#454846;}
	.st102{fill:#404341;}
	.st103{fill:#383B3A;}
	.st104{fill:#2B2D2C;}
	.st105{fill:#2D2F2E;}
	.st106{fill:#484B49;}
	.st107{fill:#4C4F4D;}
	.st108{fill:#626562;}
	.st109{fill:#767975;}
	.st110{fill:#696C69;}
	.st111{fill:#5A5D5A;}
	.st112{fill:#7C807B;}
	.st113{fill:#666966;}
	.st114{fill:#686B67;}
	.st115{fill:#868A85;}
	.st116{fill:#7C7F7B;}
	.st117{fill:#828681;}
	.st118{fill:#989C96;}
	.st119{fill:#70736F;}
	.st120{fill:#7D817C;}
	.st121{fill:#666964;}
	.st122{fill:#787B77;}
	.st123{fill:#585B58;}
	.st124{fill:#484B48;}
	.st125{fill:#393B3A;}
	.st126{fill:#4D504D;}
	.st127{fill:#757974;}
	.st128{fill:#161717;}
	.st129{fill:#3C3D39;}
	.st130{fill:#60635F;}
	.st131{fill:#030303;}
	.st132{fill:#545653;}
	.st133{fill:#606360;}
</style>
<g id="Camada_2_1_" class="st0">
	<rect x="187" y="-15.5" class="st1" width="567" height="305"/>
</g>
<rect class="st2" width="890" height="287.5"/>
<g id="Camada_1_1_">
	<g>
		<path class="st3" d="M728.8,94.5c-1.1,1.6-2.3,2.9-4.6,2.4c-1.4-0.3-3-0.5-3.5,1.5c-4.8-1.4-7.5-5.9-11.6-8.3c-2-3.1-4.4-3-8-2.7
			c-3.8,0.4-7.7,3.7-12,0.2c-1.7-1.4-4.6,1-6.8,2.1c-0.4,0.2-0.9,0.2-1.4,0.2c-4.2-2.3-6.4,2.6-9.9,2.9c-3.9,2.6-6.9,6.4-7.4,10.6
			c-0.6,5.6-3.4,7.9-8.3,8.9c-0.8,0.2-1.6,0.5-2.4,0.8c-0.7,0.2-1.4,0.3-2.1,0.3c-2.7-0.6-6,0.1-7.6-3.1c-1.9-6.4,2.2-11.4,3.7-16.9
			c-3.4,2.8-4.7-1.2-6.9-2.3c-3.9-3.1-8,0-12.1-0.3c-3.3-0.2-6.6,0.3-9.8-1c-1.4-0.6-3.1-0.5-4.4-0.1c-7.3,2.3-14.4,1-21.5-0.4
			c-1-0.2-2.1-0.6-2.9-0.1c-7.4,4.6-15.1,2-22.8,1c-1.4-0.2-2.6,0.5-3.6,1.3c-2.1,1.7-3.7,0.7-5.1-1c-5.2-1.3-10.4-2.4-15.2,1.1
			c-1.9,1.4-2.6-0.2-3.7-1.1c-5-3.6-10.8-2.1-16.2-2.3c-3.8-0.1-7.5,0-11.1-1.1c-3.7-1-7.4-0.3-11.2-0.5c-1.3,0-2.6-0.1-3.8-0.2
			c-2.6-1-5.1,0.3-7.6,0.6c-2.7-0.6-5.4-0.3-8,0.7c-2.3-0.7-4.6-1.3-7,0.1c-1.3,0.8-2.8,0.6-4.2-0.2c-4.4-3.3-9.2-0.3-13.7-0.9
			c-8.4,0.7-16.9,0.8-25.3-0.2c-3.4-1.3-3.8-4-3.1-7.1c1.2-1,2.6-1.1,3.6,0c2.6,2.9,6,2.8,9.3,2.5c12.4-0.9,24.9-0.3,37.3-0.4
			c10.5-0.1,21.1-0.8,31.7,0.2c10.2,0.9,20.8,0,31.2-1.5c3.2-0.5,6.5-1.2,4.8-5.9c-0.6-1.6,0.6-2.4,2-2.8c6.6-1.9,11.3,0.2,13.9,6.4
			c0.7,1.7,1.8,2.8,3.5,3.2c3.1,0.8,6.1,1.6,9.3,1.1c12.5-1.8,25.3-0.7,37.8-2.8c1.2-0.2,2.3-0.2,3.5,0.2c5,1.4,10.1,1.5,15.3,1.1
			c4.5-0.4,8.9,1,13.3,1.9c5.7,1.1,7.6-0.6,6.3-6.2c-1.4-6.1-1.1-12.1-0.4-18.1c-0.1-0.8-0.1-1.6,0-2.3c0.4-1.5,0.5-3,0.7-4.5
			c0.1-0.8,0.4-1.5,1-2.1c0.5-0.2,1-0.3,1.5-0.1c2.4,3.5,0.2,7.6,1.3,11.2c-0.4,3.7-1.3,7.5,0.4,11.1c2.1,0.4,4.2,2.1,6-0.4
			c-0.4-1.7-0.8-3.7,1-4.4c1.7-0.7,2.1,1.6,3,2.7c0.9,1.1,1.7,2.4,3.4,2.7c1.6,0.1,3.1,0.1,4.7,0.4c0.5,0.1,1,0.3,1.5,0.6
			c1.6,1.4,1.5,3.3,1,5.1c-1.2,4.1,1,4.9,4.4,5c5.9,0.3,11.6-0.8,17.4-1c1.8-0.1,3.7,0,5.5,0c2.2,0.1,4.3,0.2,6.3,1.3
			c2.1,1.1,3.7,2,6.2,0c2.3-1.8,3.5,0.5,3.5,2.8c-0.1,6.3,0.1,6.5,6.3,5.9c1.3-0.1,2.6-0.7,3.8,0.4
			C728.8,93.2,728.8,93.9,728.8,94.5z"/>
		<path class="st4" d="M703.9,83.5c-8.4-0.5-16.7,1.5-25.2,1.1c-5.5-0.3-6.2-1-4.7-6.1c0.5-1.7,1.7-3.4-0.2-5
			c-0.5-5.9,0.5-7.2,6.2-7.4c15.7-0.6,31.4,0.1,47.1,0c2.4,1.7,0.9,4.2,1.3,6.3c0.4,2.4-0.5,4.8,0.5,7.2c0,1,0,2,0,3
			c-2.5,1.6-5.4,1.6-8.2,1.2c-8.5-1.3-17-2.4-25.5-3.6c2,0.5,4.1,0.1,6.1,0.5C702.7,80.9,705,80.8,703.9,83.5z"/>
		<path class="st5" d="M728.8,79.5c-2.1-2.6-0.5-5.6-1-8.5c-0.2-1.5,0.6-3.3-1-4.5c-0.9-3.4,0.6-7.5-3.4-9.9
			c-3.5-1.3-7.2-0.8-10.8-0.8c-11.6-0.1-23.2,0.1-34.8,0.1c-1.5,0-3,0-4.4-0.7c-3.1-2.6-1.9-6.2-2.1-9.5c0-3.9-0.2-7.9,0.2-11.8
			c0.1-0.9,0.4-1.7,0.9-2.5c5.4-2.3,10.8-1.5,16.2-0.1c-1,3.5-4.2,5.2-9.5,4.5c-2.3-0.3-4-0.4-3.9,2.6c0,2,0,3.9,0.1,5.9
			c0.4,2.7,2.6,2.9,4.5,2.8c7.9-0.1,15.8-0.1,23.8,0c1.7,0,3.2-0.6,4.7-1.3c1.4-0.7,2.4-0.9,3.9,0.4c2.7,2.1,6,0.2,9.1,0.4
			c6.2,0.4,6.3,0.3,7.5,6C728.8,61.6,728.8,70.6,728.8,79.5z"/>
		<path class="st6" d="M212.1,242.4c-2.4,0.3-3.3-2.1-5-2.9c0-2,0-4,0-6c2.5-5.1,2.7-10.8,3.8-16.2c1.6-8,3.3-15.9,5.5-23.7
			c2.4,0.5,1.7,2.4,1.7,4c-0.4,5.2-2.1,10.2-2.2,15.4c0.2,0.7,0.9-0.2,0.3,0c-1.4,0.6,0.4-7.3,2.4-10.5c1-0.6,1.9-0.7,2.6,0.3
			c-1.1,4.9-2.3,9.7-1.5,14.8c-0.7-4.7,0.7-9.2,1.1-13.8c2.1-2.3-0.4-5.5,1.5-7.8c0.3-0.4,0.6-0.7,1.1-1c2-0.3,3.5,0.5,4.4,2.3
			c0.5,1.4,0.9,3.1,0.3,4.4c-3.1,6.8-2.8,14.6-6.2,21.3c-2.2,4.3-3.7,8.9-4,13.8C217.7,242.6,217.7,242.6,212.1,242.4z"/>
		<path class="st7" d="M728.8,52.6c-1.2-7.2-7-3.7-10.9-4.7c-2.3-0.6-5.9,3.6-7-1.9c-0.4,0.1-1,0.1-1.3,0.4
			c-2.2,2.8-5.3,2.1-8.3,2.1c-7.4,0-14.8,0.1-22.1,0c-2.6,0-5.6,0.1-5.3-4c1.2-1.2,2.7-1.2,4.2-1.2c10.1,0.1,20.2-0.2,30.3-0.1
			c1.3,0,2.7-0.3,4-0.3c4,0,3.1-2.1,2-4.3c0.4-2,1.7-2.9,3.6-3.2c3.3-0.6,6.6-1.2,9.8-2c0.9,2.1,0.7,4.6-0.4,6
			c-2.3,2.8-0.1,3.7,1.3,5.2C728.8,47.2,728.8,49.9,728.8,52.6z"/>
		<path class="st8" d="M703.9,83.5c-0.4-2.4-2.3-1.9-3.9-2c-2.1-0.1-4.3,0.5-6.6-1.9c12.3-0.5,23.8,3.5,35.5,2.9c0,3.3,0,6.7,0,10
			c-3.9,0.4-8.2,3.8-11.6-1.1c-0.8-1.2-3-2,0-3.5c1.2-0.6,1.2-2.9-0.1-3.9c-1.7-1.4-1.5,0.9-2.3,1.5c-1.5,1.2-2.8,2.1-4.6,0.1
			C708.7,83.8,706.3,83.3,703.9,83.5z"/>
		<path class="st9" d="M246.1,282.4c-3.4-3.3-8.5-1.2-12.1-3.8c-0.9-3.5,1.3-4.5,4-4.6c4.6-0.2,8.7,1.9,13,2.9
			c1.9,0.4,1.8,2.1,1.1,3.6c0,1.3-2.1,0.5-2,1.9C248.8,282.4,247.4,282.4,246.1,282.4z"/>
		<path class="st10" d="M728.8,44.6c-1.3-0.5-2.8-0.9-4-1.7c-1.5-1-2.6-1.9,0.5-2.8c2.7-0.8,2.6-4,2.3-6.6c-1.1-1.1-1.1-2.5-1.1-4
			c0.1-1.2,0.3-2.3,1.4-3c0.3,0,0.6,0,0.9,0.1C728.8,32.6,728.8,38.6,728.8,44.6z"/>
		<path class="st11" d="M302.9,204.4c-1.6,10.1-3.2,20.2-4.8,30.3c-2.5,1.8-2.5,4.7-2.9,7.3c-0.4,2.6-1.6,4.5-4.5,4.3
			c-2.8-0.2-3.9-2.2-4.4-4.6c-0.2-1,0-2,0-3c0-2.3-2-2.7-3.5-2.8c-2.1-0.2-1.3,1.8-1.5,2.9c-0.2,1.3,0.1,2.8-0.6,3.9
			c-1,1.6-1.9,3.9-4.1,0.7c-1.6-2.3-11.2-4.2-13.2-2.8c-1.6,1.1-2.9,2.4-4.8,0.9c-2-1.6-1.9-3.7-1.2-5.9c0.2-0.8,0.7-1.5,1.3-2.1
			c2.8-1.4,7.4,0.5,8.2-4.6c7.6,0.8,4.5-5.1,5.3-8.5c0.4-1.6,1.1-2.3,2.8-1.6c3.9,1.5,6.6,0.2,7.3-4c0.3-1.7,3.1-2.3,1.9-4.5
			c-0.3-0.3-0.5-0.7-0.6-1.2c-0.1-1.1-0.4-2.4,0-3.4c1.7-4.1,0.2-6.8-3.3-8.9c-0.8-0.5-1.5-1.2-1.5-2.3c4.8-5,7.1-11,7.9-18
			c0.3-2.3,3.9-4.2,3.5-7.5c-2-0.2-3.2,1.4-4.9,2c-1.1,0.4-2.5,0.6-3.1-0.6c-0.7-1.4,0.8-2.3,1.6-3.2c1.6-1.7,5.3-2.1,3.6-5.8
			c-0.1-0.7,0-1.4,0.4-2c3.3-2.2,5.5,1.3,8.3,1.8c2.6,0.5,4,0.7,6.5-1.2c3-2.4,5.2-7.3,10.9-4.9c-1.2-2.4-3.3-2.6-4.7-3.7
			c-1.5-1.2-2.3-2.9-2.2-4.8c0.1-1.8,1.9-1.6,3.1-1.8c1.5-0.3,2.4-0.7,2.1-2.6c-0.3-1.7,1-3.1,1.2-4.8c0.5-3.7,2.5-4,5.2-2.3
			c3.5,2.2,5.9,1.5,7.6-2.2c0.3-0.6,0.7-1.2,1.3-1.5c2.2-1.2,3.9-2,4.4-5.4c0.3-2.2,2.9-4.8,3.6-7.7c0.3-2.1,1.1-4,1.2-6.1
			c3-2.2,6.1-1,9.2-0.4c5.1,4.5,10.4,3.7,15.8,0.7c4.2-2.3,7.7,1,11.6,1.4c2.1-0.1,4.1,0,4.5-3.1c0.4-2.8,2.5-3.6,5.2-2.2
			c2.7,1.3,4.6,0.3,6-2.2c1.7-3.1,4.1-3.4,6.9-1.4c1.4,4,0.5,7-3.6,8.9c-2.7,1.2-3.4,2.7-1.7,5.8c2.3,4.1,0.4,8.3-2,12
			c-0.9,1.3-2.1,2.5-3.4,3.5c-3.5,1.9-7.1,1.9-10.9,1.3c-1-0.2-1.8-0.7-2.7-1.1c-1.3-0.7-2.5-2.6-3.3,0.7c-0.4,1.9-3,1.7-4.8,1.7
			c-7.1-0.1-8.1,0.7-9.2,7.6c-0.1,0.8-0.3,1.6-1,2.2c-0.2,0-0.3,0.1-0.5,0c-2.7-0.6-0.6-5.1-3.7-4.9c-3.1,0.2-5.8,2-8.6,3.4
			c-0.6,0.3-1.2,0.6-1.7,0.9c-2.2,0.8-3.4,3-5.7,3.6c-7,2.7-9.5,9.6-13.8,14.9c-4.3-0.4-7.7,1.1-10.5,4.5c-1.8,2.2-4.1,3.8-6.5,5.4
			c-3.3,2.1-5.7,5.1-6.7,9c-0.3,1.1-0.5,2.2-0.1,3.4c2.2,6,2.2,6.1-3.9,8.7c3.1,2.5,5,1.2,6.6-1.9c0.8-1.7,1.3-4.7,3.6-3.9
			c2.6,0.9,2.6,4,2,6.5C303.2,199.6,302.5,201.9,302.9,204.4z"/>
		<path class="st12" d="M259.1,233.4c-0.3,1.6-0.7,3.2-0.9,4.9c-0.2,1.2,0.4,2.4,1.6,2.8c1.5,0.6,2-0.4,2.5-1.7
			c0.9-2.7,2.8-1.2,4.5-1c3.8,0.5,7.3,3.7,11.5,1.3c1.3,1.5-1,2.7-0.3,4.3c0.4-0.1,1-0.2,1.2-0.5c1.7-2.2,0.5-4.8,0.9-7.2
			c0.3-2-0.7-3.9,3.6-2.1c4.4,1.9,4.4,3,3.6,6.7c-0.4,1.9,0.9,4.4,3.7,4.4c2.8,0,3-2,3-4.2c0.1-3,1-5.7,3.3-7.6
			c0.8-0.6,0.5,0.8,0.8,1.2c-0.7,6.1-1.5,12.1-2.1,18.2c-0.4,3.7-2.2,4.8-5.7,4.2c-8-1.5-16-3-24-4.3c-1.7-0.3-3.8-1.9-5.3,0.6
			c-8.2-1.3-16.8-0.6-24.5-4.5c-1.8-0.2-3.3-0.8-4.4-2.2c-6.6-1.5-13.4-2-19.8-4.3c5-0.1,4.4-3.5,4.7-7c0.4-4.3,1.4-8.5,3.8-12.4
			c1.5-2.4,3-5,2.7-8.3c-0.6-6.1,5.2-10.9,3.8-17.2c0.6-1.3,0.7-2.8,2.9-2.2c7.4,1.7,8.2,1.1,10.1-6.3c1.1-1.7,2.5-2.8,4.6-3
			c0.7,0.1,1.5,0.3,1.5,1.1c0.1,2.9,1.5,2.1,3,1.2c0.8,0.1,1.3,0.6,1.5,1.3s0.2,1.4,0.1,2.1c-3,3.6-5,7.8-6.2,12.4
			c-0.8,3.1-0.8,4.7,3.1,4.4c1.6-0.1,3.7-1,4.9,1c0.5,1.3,0.7,2.7,0.8,4.1c0.1,0.9-0.2,2.1,1.4,1.9c1.5-0.2,3.7-1.6,4,0.9
			c0.3,1.8-0.6,3.9-3,4.5c-0.5,0.1-1,0.1-1.2,0.6c-0.7,0.1,0.3,1,0,0.4c0-0.1,0-0.1,0.2-0.2c3.3-1.2,6.2-1.6,7.5,2.7
			c0.3,1,1,1.9,0,2.7C260.4,228.7,260.8,231.6,259.1,233.4z"/>
		<path class="st13" d="M643.9,110.5c2,1.9,4.7,1.1,7,2c0.2,0.3,0.3,0.5,0.3,0.8s-0.1,0.4-0.1,0.4c-0.6,0.8-1.5,1.1-2.7,1.1
			c1.7,1.2,3.2,0.5,4.7-0.2c3.7-0.9,7.4-1.2,11.3,0c1.9,0.6,3.9,0.6,6.2,0.1c3.6-0.8,7.8-1.1,9.9,3.4c0.4,0.9,0.3,2,0.7,2.8
			c2.1,4.3,1,6.9-3.8,8.2c-2,0.5-3.9,1.8-4.6,4c-18.3,1.6-36.6,1.7-54.9,1.1c-1.6-4.9-5.3-5.8-9.8-5.2c-3.2,0.4-6.3-0.2-9.4-0.5
			c-2.5-0.2-4.9-0.4-7.4,0.4c-2.1,0.7-4.4,1-6.4,0.3c-6.5-2.3-13.1-0.9-19.7-1.1c-4.4-0.1-7.8,1-8.3,6.1c-3.7,0-7.3,0-11,0
			c-1.2-2,2.9-4.6,0-5.6c-3-1-3.6,2.5-4.6,4.7c-0.1,0.3-0.3,0.6-0.5,0.9c-5.3,0-10.6,0-16,0c-0.2-1.4,0.8-1.6,1.8-1.9
			c0.6-0.2,1.9,0,1.9,0c0.8-6.2,6-3,9.1-4.3c2.5-1,3.4-3.4,4.2-5.8c-0.7-4.1,3-5.6,5-8c1-1.2,2.3-0.4,3.6,0
			c6.8,2.1,13.7,2.2,20.5-0.3c6.6-2.3,13.3-1.6,20.1-1.8c6.2-0.2,12.4-0.8,18.6-0.8c7.9,0,7.9-0.6,7.6,7c0.4-7,0.9-7.6,7.9-7.4
			c5.2,0.1,10.5-0.9,15.9,1c-2.6,2.5-2.6,2.5-9.6,3.5c5.3,2.4,8.2,1.3,10.7-3.9C642.6,111.2,642.7,110.3,643.9,110.5z"/>
		<path class="st14" d="M486,134.5c-1,0-2,0-3,0c-1-3.2-5.7-6.5-10.3-6.4c-2.7,0.1-5.2-0.5-7.8-0.9c-2.6-0.5-5.1-1-7.1,1.9
			c-1.5,2.2-5.1,2.3-6.2,0.6c-1.9-2.9-2.9-1.7-4,0c-1.5,2.3-2.8,2.1-4.7,0.3c-3-2.9-6.3-3.4-9.7-0.2c-1.3,1.2-2.9,1.5-4.8,1.4
			c6.5,1.6,12.9,1.1,19.4,1.1s13-0.5,19.4,0.1c2,0.2,4.8-1.3,5.7,2.1c-16.3,0.1-32.5,0.1-48.8,0.3c-1.8,0-3.7-0.5-5.3,0.8
			c-5.3,1-10.6-0.4-16,0c-1.8,0.1-2.8-1.5-3.1-3.3c-0.3-2.1-0.4-4.2-0.4-6.4c0.9-3.4,3.8-2.5,6.1-2.7c2.8-0.2,5.3-0.5,6.2-3.7
			c0.5-1.4,0.9-2.8,0.9-4.3c0.7-5.8,0.8-5.8,6.5-3.3c4.3-0.9,8.3-0.6,12,2.1c3.1,4.4,8,2.3,12.1,3.3c3.8,0.8,5.3,0.3,5.7-2.1
			c2.4-2.9,5.1-2.2,7.9-0.8c0,4.4,3.4,1.6,5.1,2.5c1.6,0.4,3.1,0.9,3.9,2.5c1.8,2.5,4.4,0.5,6,1.2c-1.6-0.3-3.8,0.6-5.7-0.7
			c-0.8-3.2,1.6-3.4,3.4-2.9c4.1,1.1,8.9-2.6,12.6,1.8c0.4,0.4,1.6-0.8,2.5-1.1c1-0.3,2.4-1.8,3.1-0.8c2.5,3.8,3.1-0.4,4.5-0.9
			c1.9-0.8,3.9-0.7,5.9-0.3c4,2.2,8.4,2.5,12.9,2.7c5.9,0.2,11.8-0.6,17.8,0c0.5,0.6,0.7,1.2,0.7,2c0,0.3-0.1,0.7-0.1,1
			c-0.8,6.9-1,6.1-8.2,8.1c-6.5,1.8-12,1.1-17.7-1.5c-0.9-0.4-2.4-0.4-2.8,0.3C497.5,134.2,488.7,127.4,486,134.5z"/>
		<path class="st13" d="M709.8,89.6c4.2,2.4,7.4,5.8,10.9,9c0.5,1.8-0.5,3.3-1.2,4.7c-9.5,17.1-23.7,27.3-43.4,29.4
			c-0.6,0.3-1.4,0.6-1.8,0.1c-1.1-1.2,0.1-1.6,0.9-2.1c3.2-1.9,6.7-3.3,10-5.1c0.4-0.5,0.2-0.9-0.1-1.3c-3.4-4.3-2.7-6.7,2.6-7.9
			c2.5-0.6,5.1-0.8,4.2-4.5c-0.1-2.1-1.6-4-1-6.2c3.3,0.9,6.3,0.7,8.3-2.7c1.7-2.9,5.7-4.2,5.7-8.4
			C704.8,91.5,708.7,91.8,709.8,89.6z"/>
		<path class="st15" d="M400,125.5c1.5,1.3,1.1,3.1,0.9,4.6c-0.5,4.2,1.9,5.1,5,4.2c4.6-1.4,8.7,0.4,12.9,1.1
			c3.1,2.6,7.7,3.7,8.6,8.7c0.4,2.1,2.7,1.5,3.7,1c6.8-3.6,14.4-2.2,21-1.1c4.5,0.8,0.8,7.6,1.8,11.7c0.5,2-0.3,3.2-2.6,2.8
			c-0.8-0.1-1.6-0.1-2.5-0.2c-1.2-1-1.6-2.4-1.9-3.9c-0.8-4-5.1-6.1-8.8-4.4c-1.3,0.6-1.5,1.7-1.4,2.9c0.2,2.4-1,4.1-2.9,5.5
			c-1.5,0.5-2.1-0.1-2.2-1.6c-0.5-2.9,0.1-6.5-4.4-6.9c-1.2-0.1-2.8-0.3-2.7,1.1c0.1,3.3-1.4,7,2.4,9.4c0.1,0.3,0.2,0.5,0.2,0.8
			c0,0.1-0.3,0.2-0.4,0.2c-5.7,1-6.3,0.5-7.3-5.7c-1,7-2.2,7.9-6.5,4.9c-1.3-5.6-0.7-11.2-0.5-16.9c0.1-2.3,1-4.2,3.9-4.2
			c3.7,1,2.1,4.3,2.8,6.6c1-6.4,1-6.4-3.8-7.2c-4.6,0-9.2,0-13.8,0c-3.3,0-5.7-1.2-6.8-4.5c-2.3-4.2-2.1-8.7-1.2-13.3
			c0.3-1.4,0.6-2.9,2.4-3.2c0.9,0.1,1.3,0.7,1.5,1.5C397,122.1,398.2,124,400,125.5z"/>
		<path class="st16" d="M692.8,111.5c2.4,4.8-1.1,5.4-4.3,5.9c-2,0.3-4.2-0.1-4.6,2.7c-0.3,2.3,1.1,3.3,3.2,3.5
			c0.8,0.1,1.3,0.6,1.2,1.3c-0.2,1.1-1.2,1.8-2.1,1.9c-4.1,0.4-7.2,3.2-10.8,4.8c-1.7,0.8,0.4,0.6,0.6,1c-1,0.8-2.1,0.9-3.3,0.7
			c-2.3-5.2,3.9-5.5,4.9-5.7c4.6-0.6,4.2-2.2,2.3-5.3c-0.6-1-0.2-2.6-0.2-3.9c0.4-2,0.5-3.9,0-5.9c-0.4-1.5-1-2.4-2.4-2.8
			c-1.6-0.5-1.7,0.9-2.3,1.9c-1.3,1.9-3.9,3.4-5.5,2.1c-3.7-3.1-7.2-1.2-10.8-0.6c-2.1,0.3-4.2,1.1-6.1-0.7c1.4-1.3,3.3-1.4,5-2
			c2.9-1,5.4-2.5,3.7-6.3c-1.1-2.5,1.7-3.3,2.6-4.8c1.5-2.9,2.9-6.6,6.8-7.8c2.6,2.5,0.2,4.5-0.8,6.5c-0.5,1-1.8,1.6-1.6,2.9
			c0.1,1.4,0.7,3.1,2.4,2c3.2-2,6.8-2.5,10.1-3.9c2.6-1.1,4.7-3,5.5-6.1c0.4-1.6,1.8-2.6,3.4-2.1c1.9,0.6,2,2.2,1.1,3.6
			c-1.4,2.4,2.6,3.9,1,6.2c-0.3,1.6-0.8,3.2-1.7,4.6c-2.7,0.9-4.1,2.3-2.2,5.2c1,1.5,2.1,3.2-1.7,4.4
			C689.7,114.4,689.8,110.7,692.8,111.5z"/>
		<path class="st17" d="M302.9,204.4c-1.6-1.9-1.2-4.3-0.5-6.2c0.9-2.7,0.4-4.8-0.9-7.1c-2,1-1.7,3.1-2.5,4.6
			c-2.4,4.3-6,5.1-9.4,1.9c-0.4-0.4-0.4-1.2-0.4-1.8c0.1-1,0.9-1.1,1.8-1.3c5.9-1.2,5.5-1.1,3-6c-1.9-3.9,0.6-8.2,3.1-10.6
			c4.5-4.3,9.8-7.7,14.3-12.1c2.1-2.1,5.1-2.1,7.7-0.2C312.3,178,306.2,190.6,302.9,204.4z"/>
		<path class="st18" d="M556.9,134.5c-1-6.1-1-6.4,5.5-6.9c7.5-0.6,15.1-2.2,22.5,0.8c0.3,0.1,0.7,0.2,1,0.1
			c7.5-2.1,15.2,0,22.8-0.8c6.3-0.7,9.2,1.2,9.3,6.8C597.6,134.4,577.2,134.4,556.9,134.5z"/>
		<path class="st19" d="M252.1,280.5c-0.3-0.8,0.3-2.4-0.9-2.5c-4.6-0.2-8.6-2.9-13.2-2.8c-2.4,0-3.5,1.3-4,3.4c-3.9,0-1.3-3.8-3-5
			c-0.5-3.9,0-7.4,2.6-10.5c1.6-0.6,3.2,0.6,5,0.2c1.5-1.3-2-3,0.2-4.2c1.4-0.8,2.9-0.4,4.3-0.2c5.5,1,11.1,1.5,16.4,3.5
			c0.7,4.9-1.4,9.5-1.9,14.3c-0.1,1.5-1.1,1.9-2.5,1.4C252.8,277.3,253.1,279.6,252.1,280.5z"/>
		<path class="st20" d="M486,134.5c-0.6-3.6,1.6-5.6,5.9-4.8c2.9,0.5,5.3,1.2,7.1-2.2c0.8-1.5,3.7-1.8,4.5-1.2
			c3.2,2.5,7,2.1,10.5,2.8c1.8,0.3,3.8,2.4,4.7-1.3c0.4-1.4,1.9-0.2,3,0c3.7,0.8,6.2-1,6.4-4.7c0-1,0.1-2,1.1-2.6
			c0.4-0.3,0.8-0.5,1.3-0.6c4.3-0.4,8.7-1.8,12.3,2c0.1,0.2,0.2,0.4,0.3,0.7c-1.3,6.4-3.1,7.7-9.5,7.1c-0.9-0.1-2.7,0.3-2.7,0.4
			c0.4,4.6-4,2.8-5.7,4.5C512,134.5,499,134.5,486,134.5z"/>
		<path class="st21" d="M473,134.5c-4.9-1.8-10.1-0.9-15.1-1c-8-0.2-16-0.1-23.9,0.1c-2.3,0-4.4-2.5-6.9-0.5
			c-0.6,0.5-1.7-0.7-1.8-1.8c-0.1-1.3,0.9-2,1.9-1.5c2.7,1.4,4.5-0.2,6.3-1.5c4.4-3.2,8.5-2.4,11.9,2.9c0.9-1.7,1-4,3.5-4.2
			c1.1-0.1,1.2-2.8,3-1.8c1.5,0.8,0.6,1.8-0.1,2.9c-0.5,0.7,0.2,1.3,0.9,1.1c1.4-0.4,3.8,1.3,4.2-0.2c1.7-7.5,7.1-2.7,10.3-2.8
			c5-0.1,10.1,1.9,15.1,2.9c2.1,0.4,2.3,1.1,0.8,5.5C479.6,134.9,476.3,134.9,473,134.5z"/>
		<path class="st22" d="M332.9,150.7c1.2-2,2.5-3.9,5-4.2c1.9,1.7,1.5,3.9,1.5,6c0.1,6,0.2,11.9,0,17.9c-0.2,7.5,3.3,12.5,9.7,15.8
			c3,1.6,6.4,0.3,9.4,1.4c1.7,1.3,5.7,0.6,5.3,3.2c-0.4,2.6-3.9,0.5-5.9,1.2c-0.3,0.1-0.6,0.2-0.9,0.4c-15.7,1-24.2-7-24.2-22.8
			C332.8,163.3,332.9,157,332.9,150.7z"/>
		<path class="st23" d="M358.9,188.6c-3.3-0.6-6.8,0.8-9.9-1c2-2.1,4.6-1.6,7.1-1.6c14.6-0.1,29.3,0,44,0
			c13.8-0.1,20.5-11.4,14.1-23.6c-0.1-0.2,0-0.6,0.2-0.9c2.4,0,4.1-0.4,3.9-3.5c-0.1-1.7,0.6-3.4,1-5.9c3.1,3.3,0.1,11.2,7.8,9.5
			c-3,0.5-4.3,2-3.8,5.2c1.8,11.5-3.3,19.3-13.2,24.6c-3-1.1-6.2-1.2-9.3-1.3c-8.8-0.1-17.6,0.3-26.4,0.1
			C369,189.9,364,189.7,358.9,188.6z"/>
		<path class="st19" d="M236.7,247.7c3,1.2,6.7,0.5,9,3.7c0.3,0.4,1.7,0.6,2.3,0.3c4.8-2.8,8.8,0.1,13,1.7c0.9,3.1-2.6,5-2.1,8
			c-4.2-0.9-9,0.3-12.5-3.2c-3.2,2.1-6.2-1.4-9.5-0.2c-1.6,0.6-3.3,0.2-4-1.8c1.1-1.5-0.3-2.5-0.6-3.8
			C234.5,251.6,235.1,249.2,236.7,247.7z"/>
		<path class="st24" d="M358.9,188.6c15.2,0,30.4,0,45.6-0.2c2.5,0,4.1,0.7,5.4,2.8c-1.6,0.4-3.2,1.2-4.8,1.2c-16,0-32.1,0-48.1-0.1
			c1.7-1.9,4.4,0,6.2-1.4C362.7,188.2,359.1,191.9,358.9,188.6z"/>
		<path class="st25" d="M434,158.4c0.5-2.4,2.7-4.3,1.3-7.3c-0.7-1.5,1.2-2.5,2.8-2.5c2.1-0.1,4.3-0.2,6.4,0.1
			c2.3,0.4,4.9,0.7,3.7,4.5c-0.5,1.5,0.5,3.5,0.8,5.2C444,158.4,439,158.4,434,158.4z"/>
		<path class="st26" d="M232.7,256.2c1.5,0.8,2.9,1.6,4.6,0.6c1.6-1,3.3-1.7,4.5,0.6c0.2,0.3,1,0.7,1.2,0.6c5.8-3.2,9.6,3.9,15,2.8
			c0.2,0,0.5,0.4,0.7,0.6c0.2,0.3,0.4,0.6,0.6,0.9c-7,0.6-13.5-2.6-20.5-2.7c-0.2,2.4,4.4,1.7,2.7,3.9c-2.1,2.7-5.1,1.3-7.6-0.1
			c-0.2-0.4-0.3-0.8-0.1-1.3c1-1.1,1.4-2.2-0.4-2.9c-0.9-0.7-1.9-1.3-1.4-2.7C232.3,256.2,232.5,256.1,232.7,256.2z"/>
		<path class="st25" d="M427.1,160.4c-2.6,0.2-5,0-3.7-3.6c0.4-1.2-0.1-2.2-0.2-3.4c-0.2-2.1-0.9-5.1,2-5.2c2.5-0.1,5.6,1,7.4,2.6
			c1.4,1.3,0.3,4.1-0.8,6C429.1,156.6,426.9,156.9,427.1,160.4z"/>
		<path class="st20" d="M540.9,134.5c-1.8-3.7,1.3-5.4,3.3-7.3c1.1-1.1,2.9,0.1,4,0.9c1.2,0.8,0.4,2.1-0.1,3.1
			c-0.6,1.1-1.4,2.2-2.1,3.3C544.3,134.5,542.6,134.5,540.9,134.5z"/>
		<path class="st27" d="M395,104.5c-1.5,1.4-6.8-1.7-4.7,4c0.2,0.4-6.7,2.6-7.1,2.2c-3.9-4.2-4.5-1.7-4.8,2.2
			c-0.3,3.7-4.2,0.5-5.5,2.6c-0.5-0.5-0.6-1.1-0.4-1.8c1-2-1.9-1.9-1.8-3.4c2.2-2-0.1-4.9,1.2-7.1c2.1-1.5,4.1,0.9,7,0.1
			c-2.6-1.1-5.4-2-2.6-5c0.7-0.7-0.1-1.6-1-1.8c-2-0.4-3.2-1.1-1.6-3.3c1.1-1.5,1.3-4.1,4.2-2.8c1.1,0.5,2.2,0.8,3.4,0.6
			c0.8-0.1,1.6,0.6,2.4-0.1c-2.1-0.7,1.1-3-1.4-4c-4.6-1.9-4.5-2.1-1.2-6.7c-5.3,4.7-6.3,4.6-11.8-0.1c-2.3-2-2.6-4.1-1.5-6.6
			c1.3-3,0.1-5.1-2.5-6.6c-2.8-1.7-4.1,1-5.1,2.3c-2,2.5-3.1,4.2-5.7,0.3c-1.4-2.1-3,1-4.6,1.4c-1.6,0.6-3-1.2-4.6-0.4
			c-0.8,0.4-1.5,0.9-2.2,1.4c-1.4,0.6-3.3,3-4.1,1.2c-1.7-3.9,2.6-5,5-7.4c-1.6-1.1-3.4-2-4.2-3.8c-0.5-1.1,0.1-2.7-1.5-3.3
			c-0.6-0.3-1.2-0.6-1.6-1.2c-0.7-1.8,0.6-3.1,1.2-4.6c0.4-0.9,0.9-2-0.1-2.7s-1.9,0-2.6,0.6c-1.6,1.2-3.2,2.3-4.8,4
			c3-0.1,6.3-0.6,5.4,4c-0.5,1.2-1.7,1.7-2.8,2c-0.9,0.2-1.8,0.6-2.7,0.9c-4,1.7-8,3.3-12,4.8c-1.5,0.5-3.4,1.6-4.5-0.4
			c-1-1.9-0.5-3.9,0.9-5.5c0.8-0.9,2-1.1,2.7-2.3c-0.6-1.4-2-0.8-2.9-1.2c-2.5-1.1-4.4,0.7-6.6,1.5c-3.9,1.4-1,3.9-0.7,5.8
			c1.2,6-1.8,11.1-7.8,12.2c-2.8,0.5-4.4-1.5-4.8-3.9c-0.4-2.1-1.3-3.7-2.4-5.6c-4.8,2.7-7.2,7.9-11.8,10.6
			c-0.8,0.5-1.6,1.6-2.6,0.5c-0.8-0.8-0.5-1.8,0.1-2.7c5-5.2,10.1-10.5,15.1-15.7c1.1-1.2,2.6-2,1.1-4c-1.4-1.8,0.7-2.9,1.5-4.2
			c2.2-3.7,5.5-7,4.4-12.1c-0.5-2.4,1.4-3.2,3.5-2c1.7,1,3.4,1.4,5.2,1.1c7.1-1.2,14.5-1.4,21-5.2c0.7-0.4,0.8-0.9,0.9-1.6
			c1.8-2,4.5-1.4,6.6-2.6c2.8-0.5,5.6-1.5,8.5-1.8c2.1,0.1,3.7-1.2,5.4-2c8.7,0.2,17.3-0.2,26-0.1c5,0.1,9.6-2.7,15-0.9
			c5.8,1.9,6,1.2,3.3,7c-11.2,1-21.7,5.4-33,6c1.8,1.4,3.9,1.5,5.8,2.2c2.2,0.8,4.8,1.3,4.2,4.5c-0.4,2-5,3.4-7.3,2.1
			c-1.4-0.8-2.8-1.6-5.2-2c2.7,2.5,5.1,3.2,7.7,2.4c4.3-1.2,8.1-1.2,10.5,3.4c0.7,1.4,2.4,1.4,3.6,1c2.4-0.8-1.1-1.4-0.2-2.3
			c4.7-4.7,6.3-12,12.5-15.4c0.4-0.2,0.9,0.2,1.3,0.6c0.7,1.1,0.8,2.3,0.8,3.5c-0.1,2.5,0.2,5,0.2,7.4c-0.1,3.2-0.5,6.2-3.5,8.3
			c-2.9,2-2.3,6.2-4.6,8.6c-0.9,1,0.4,1.3,0.9,1.8c1.1,1.2,1.7,2.5,0.6,4.9c1.3-2.4,2.4-3.6,4.3-3.3c1.7,0.3,1.7,1.9,1.8,3.2
			c1,7.3,0.9,14.7-0.5,21.7c-0.8,4-1.8,7.2,0.4,10.8C396.5,102,396.2,103.5,395,104.5z"/>
		<path class="st28" d="M278,75.4c0.3,0.7-0.9,2.9,1.6,1.3c4-2.5,6.4-6.7,10-9.4c1.2-0.9,2-3.1,4.1-1.7c-2.3,3,4.3,2.7,2.1,5.7
			c-1.6,2.2,0.7,2.7,1.7,3.8c1.6,1.7,2.2-0.1,3.2-0.7c7.1-4.7,7.2-4.7,3.8-12.8c-1-2.3-0.8-3.5,2.2-4.1c3.3-0.7,6.2-3.6,9.9-1
			c0.8,0.6,2.7-1.7,3.1,0.7c0.3,1.7-1.2,3-2.6,3.2c-2.4,0.4-2.7,2-3,3.8c-0.3,1.9,0.2,2.5,2.1,1.8c4.5-1.8,9.1-3.5,13.6-5.3
			c1.3,2-0.1,3.2-1.4,4.1c-2.2,1.6-3.9,3.5-5.2,5.9c2.8,0.7,3.2,2.3,1.9,5.2c-2.8,6.3-5.7,12.6-7.1,19.6c1.7-1.7,3.1-1,4.1,0.6
			c0.8,1.3,0.4,2.6-1.1,3.2c-1.3,0.5-2.3,1.2-3.1,2.4c-2,2.8-4.4,3.3-7.3,1.4c-1.9-0.6-3.4-1.8-4.2-3.7c-0.4,0.9,0.1,1.7,0.1,2.5
			c0,1.9-0.3,3.8-2.4,4.3c-1.8,0.4-3.6-0.2-4.5-2.1c-0.3-0.6-0.9-1-1.2-1.5c0.3-5.4,2.5-10.3,4.1-15.4c-0.3,0.1-0.6,0.3-0.9,0.3
			c-4.1,0.6-8.4,0.3-7.9,6.9c0.1,1.6-4.5,4.2-7,6.4c-3.5,3.2-5.2,6.4-3,10.9c1.1,2.3,0.4,4.2-1.4,5.8c-3.7,3.4-6.5,7.6-10,11
			c-3.7,3.5-4.9,8.2-6.6,12.6c-1,2.5,0.9,3.9,2.4,5.5c2.6,2.8,6.8,4.7,5.7,9.7c-0.2,1-0.3,2.6-1.2,2.4c-4.6-1.2-3.3,3.4-5.1,4.9
			c2.1-0.3,3.2-3.1,5.7-2.5c2.2,1.2,2,3.1,1.4,5c-0.5,1.8-0.6,3.4,0.2,5.1c0.5,1.2,1.2,2.3,1.8,3.7c0.8-3,2.2-2.5,4.2-1.3
			c3.4,2,4.1,1.4,4.1-2.8c0.5-1.6,2-2.3,3.4-2.7c1.1-0.3,2.4-1.6,3.6-0.1c1,1.3-0.2,1.9-0.8,2.9c-3.2,5.9-4.8,12.4-6.7,18.7
			c-0.9,3.1-4.5,2.6-5.4,5.2c-2.2,1.7-4,4.4-7.4,3.9c-0.8-1.1-0.9-2.3-0.9-3.6c0-0.7,0.2-1.4,0.4-2.1c0.8-2.9,5.5-5.8,0.3-8.9
			c-0.6-0.3-1-0.8-1.3-1.4c-1.6-1.9-2.1,0.1-2.9,0.9c-0.8,0.8-2.7,1.9-2.7,1.5c-0.5-4.4-7.2-2.7-7-7.7c-1.7,3.5-1.6,7.1-1.9,10.7
			c-0.4,1.6-0.9,3.1-1.6,4.6c-0.5,1.1-1.2,2.2-2.4,2.1c-1.8-0.1-1.1-2-1.6-3.1c0-0.7,0-1.3,0-2c0.1-6.9,1.9-13.2,5.5-19.1
			c1.1-0.4,3-0.3,2.7-2.2c-0.6-3.1,1.4-4.9,3.8-6.5c-1.4-0.7-2.4,0.3-3.3-0.3c-2.5-1.7-4.2-1-5.7,1.4c-0.9,1.5-2.3,2.6-4.2,1.4
			c-2.2-1.3-1.5-3.2-0.4-4.8c1.9-2.9,3.6-6,5.7-8.7c1.1-1.5,0.8-1.5-0.5-2.6c-3.5-3.3-3.1-7.8,0.5-10.2c1.3-0.9,2.7-2.4,4.5-1.5
			c1.9,1,0.5,3,0.8,4.5c3.6-5.3,3.7-6.1-0.8-10.9c-2.5-2.7,0.5-3.9,1.2-5.9c-2.2,2.9-5.8,0.5-8,2.5c-2.4-1.7-1.4-3.8-0.6-5.8
			c0.7-1.7,2-3,2.9-4.6c4.3-5.2,7.9-10.7,10.1-17.3c1.1-3.4,4.7-6,7.5-8.5c3.1-2.8,6-5.7,8.7-9.1c-2.5,0.2-4,2-5.8,3.2
			c-1.4,0.9-2.7,2.7-4.8,1.6c-0.1,0-0.1-0.3-0.1-0.4c0-0.2,0.1-0.3,0.2-0.5C272.7,82.1,275.4,78.8,278,75.4z"/>
		<path class="st29" d="M503.2,7.5c7.1,3.2,14.2,6.7,20.5,11.3c1.1,0.8,2.7,0,3.4,1.5c0.4,1.7,3.3,1.3,3.1,3.6
			c-0.7,1.2-1.7,1.7-3,1.8c-2.7-0.4-5.4-0.5-7.4-3.1c-1.7-2.2-4.2,0-6.3,0c-6.7,1-12.6-0.7-18-4.7c-0.5-0.4-0.9-0.9-1.1-1.5
			c-0.2-0.5-0.3-0.9-0.3-1.4c-0.3,1.4,1.1,2.3,1.1,3.6c-0.4,0.4-0.8,0.6-1.3,0.7c-4.8-0.5-9.6-0.6-13.4-4.4c-0.9-0.9-2.5-1-3.8-0.8
			c-8.6,0.8-17.2,1.1-25.8,1.4c3.5,0.8,7,0.5,10.5,0.7c2.3,0.1,4.7-0.3,6.7,1.3c0.3,0.6,0.2,1.1-0.4,1.4c-6.6,0.5-13.2,0.1-17.4,0.2
			c4.3-0.3,11,0.6,17.7-0.4c4.2-2.8,9-0.7,13.4-1.7c2.6,0.2,4.9,1.7,7.5,2c1.7,1.6,4.5,1,6.4,3.1c-2.9,2.7-6.5,3.8-10,5
			c-1.5,0.5-2.5-0.4-3.5-1.4c-3-2.8-6.1-3.3-9.2-0.3c-1.9,1.8-4,1.3-6.4,1.4c-9.8,0.3-19.4-3.2-29.2-1.8c-4.5,0.6-5.5-2.7-7-5.6
			c-1.8,0.6-1.1,2-1.3,3c-0.4,1.7-1.3,2.7-3.1,2.5c-1.6-0.1-3.3-0.7-3.5-2.3c-0.9-5.4-0.8-10.7,2.7-15.4c0.1-0.2,0.6-0.1,1-0.1
			c24.4,0,48.7,0,73.1,0C500.2,7.1,501.8,6.8,503.2,7.5z"/>
		<path class="st30" d="M270,85.4c1.8,1.4,2.9-0.7,3.6-1.3c2.5-2.5,5.6-3.7,9.2-4.8c-0.8,3.9-3.7,6.8-6.2,8.7
			c-3.8,2.9-6.2,7.2-10.1,9.8c-2.5,1.7-3.3,5.4-3.4,7c-0.3,6-5.7,7.7-8,11.8c-1,0.8-1.3,3-3.3,1.6c-0.2-0.2-0.4-1.1-0.8-0.3
			c-2.6,5.8-8.4,9.9-9.1,16.7c0,0.3,0.2,0.6,0.7,1.1c1.9-1.6,1.7-4,2.2-6.1c0.4-1.6,0.8-3.5,2.5-4c2-0.6,3.5,0.5,4.3,2.4
			c-0.3,6.9-2.3,12.8-9.1,15.9c-4.5-1.3-6.1,2.3-7.9,5.1c-1.3,1.9-1.6,4.4-3,6.2c-0.6,0.3,0.3,0.3,0.3,0.2c1.2-2.1,2.6-1.4,4-0.1
			c1.6-4.1,1.6-9,6.5-11.1c2,3.1,1.4,9.5-1.3,12.6c-1.3,1.5-2.4,3.2-3.6,4.7c-0.5,0.5-1.1,0.8-1.8,1.1c-2,0.5-2.1,2.6-3.3,3.8
			c-0.3,0.3-0.7,0.5-1.2,0.5c-2.8-0.5-3.7,1.4-4.5,3.5c-0.9,2.1-1,4.5-3.1,6.3c1.5-0.3,3-1.5,3.8,0.6c0,0.5,0,0.9-0.2,1.4
			c-4.3,5.2-7.6,10.7-7.8,17.7c-0.6,0.9-1.3,1.4-2.5,1.1c-0.1-1.3,0.4-2.8-0.8-4C225.9,153.3,243.4,117.1,270,85.4z"/>
		<path class="st31" d="M541.9,24.7c14.9-0.1,29.8-0.2,44.8-0.2c21.4,0,42.8,0.1,64.2,0.2c-0.5,2.6,3.7,5.2,0,7.9
			c-2.6,0.6-5.2,0.7-7.8-0.2c-1.9-1.5-3.9-2.4-6.5-1.8c-0.8,0.2-1.7,0.3-2.5,0.2c-11.8-2.1-23.3,1.8-35.1,1.6
			c-12.6-0.3-25.3,0.8-37.7-0.9c-5.8-0.8-11.8-0.4-17.5-2.1C542,28.3,540.4,27.1,541.9,24.7z"/>
		<path class="st32" d="M395,31.6c-0.3-2,0.5-3.7,1.7-5.2c-6.6-2.8-12.7-0.8-18.8,0.1c-1.3-1.7-3.2-1.4-5-1.6
			c-5.8-0.5-6.1-0.9-5.5-6.6c0.1-1,0-2,0-3c1.6-2.4-0.3-6.4,3.6-7.7c0.7,0,1.3,0,2,0c0.6,0.8,1.8,0.3,2.3,1.2
			c0.3,2.5-0.7,4.8-1.3,7.2c-0.8,3.5,0.1,5.5,4.1,5.1c2.5-1.2,1.9-3.7,2.2-5.7c0.5-3.1,1.4-5.7,3.7-7.9l0,0c1.7-0.9,3.2,0.1,4.7,0.5
			c0.9,1,0.4,2.1-0.5,2.5c-2.2,0.8-1.8,2.9-2.5,4.5c-1.4,2.2,0.4,3,1.7,4c2.9,4,6.9,1.2,10.4,1.9c3.7,0.7,6.3-0.9,8.3-3.9
			c0.5-0.6,1-1,1.7-1.3c3.8-0.6,3.6-5.5,7-6.6c2.7,0.6,2.2,2.9,2.5,4.8c0.5,3.3-1.1,6.5-0.3,9.8c1.1,2,2.5,4,1.6,6.5
			c-3.3,2-7.3,1.5-9-1.2c-0.6-0.9-1.5-2,0.3-2.8c0.1,0,0.3-0.1,0.2-0.1c-1.7,0-3.3-0.2-5-0.2c-2.7,0-3.9,0.9-3,4
			c1,3.1,0.6,6.3-2.6,8.3c-0.8,0.2-1.5,0.1-2.3-0.3c-1.7-2.4-0.3-5.1-0.8-7c-0.1-1.3-1.2-0.6-0.5-0.6c0,0,0,0,0,0.1
			c0.3,2.5,1.7,5.1-1.1,7.2c0-1.3,0-2.7,0-4C394.4,32.9,394.4,32.2,395,31.6z"/>
		<path class="st26" d="M368,14.6c0.6,1.2,1.4,2.5,0.8,3.8c-2.3,5.3,0.9,5.4,4.7,5.3c2-0.1,4.7-0.7,4.4,2.9c-9,0-17.9,0-26.9,0
			c-2.8,1.7-6.1,0.4-9,1.5c-1.4,0.5-2.8,0.8-4.1,1.5c-1.7,2.9-4.7,1.6-7.2,2.2c-5,0.9-9.1-0.3-11.9-4.8c-0.2-0.5-0.2-1.2,0.2-1.3
			c5.8-1.1,11.7-0.9,17.5-2.1c1.6-0.3,3.2-0.6,4.7-1.5c6.1,0.1,11.9-2.1,18-2.2c4.1-0.1,5.9-1.6,5.1-5.7c-0.1-0.8-0.1-1.6,0.6-2.3
			c0.3-0.1,0.6-0.2,0.9-0.4C367.1,12.2,368.6,12.7,368,14.6z"/>
		<path class="st33" d="M657.9,4.4c3-0.5,5.8-1.5,9.1-0.1c3.7,1.6,5.9,3.8,6.1,8c0.2,4.1,0.6,8.2,0.9,12.3c-6.4,1-12.8-0.2-19.2,0.7
			c-1.2,0.2-2.3-0.3-2.7-1.6c0.1-3.4,0.1-6.8,0.2-10.3C652.3,9.2,654,6.2,657.9,4.4z"/>
		<path class="st34" d="M415.9,24.4c-1.7-3.7,1-7.3,0.1-11c-0.4-1.5,0.6-3.5-2-3.7c-7,0.7-14,0.2-20.9,0.3c-1.5,0-3-0.2-4.1-1.4
			c-1.6-0.4-3.3-0.7-4.9-1.1c0.8-1.3,2-0.9,3.1-0.9c37.4,0,74.8,0,112.2,0c1.3,0,2.7-0.2,3.8,0.8c-23.6,0.1-47.2,0.1-70.8,0.2
			c-2.8,0-5.6,0.1-8.4,0.1c-5,1.2-6,4.6-5.6,9.2C418.5,19.6,419.3,22.8,415.9,24.4z"/>
		<path class="st35" d="M365.1,11.9c0.3,1.4,1,2.9,0.8,4.3c-0.4,2.6-0.3,5.2-4.9,4.8c-5-0.4-10.2,0.8-15.1,1.9
			c-1.7,0.4-3.2-0.3-4.8-0.1c-0.2-0.2-0.3-0.3-0.5-0.5c-1.2-2.1,1.4-3,1.5-4.7C349.7,15.7,357.4,13.8,365.1,11.9z"/>
		<path class="st36" d="M341.1,22.8c-4.1,2.7-8.7,3.8-13.4,2.8c-3.4-0.7-5.1-0.8-4.1,3.3c-2.1,0.3-2.3-3.6-4.8-1.9
			c-3-7.6-0.8-14.3,5.8-17.5c2.9-0.2,1.5,2,1.5,3.1c-0.2,2.6-1.4,5.3,1.8,7c2.8,1.4,5.6,3.2,8.4,0c0.4-0.4,1.2-0.3,1.9-0.3
			c1.9,0.3,1.6,2.5,2.8,3.4L341.1,22.8z"/>
		<path class="st25" d="M652,23.6c5.6,0.1,11.3,0.8,16.8-0.1c2.3-0.4,3.5,0.4,5.1,1l0,0c0.5,0.7,0.8,1.4,0.6,2.3
			c-0.3,1.1-0.9,1.9-1.9,2.5c-1.4,0.6-2.9,0.7-4.3,0.6c-5.7-0.6-11.2-0.2-16.1,3.1c-0.5-0.3-0.6-0.8-0.3-1.3c0.8-2.5-4.1-4.2-1-7
			C651.2,24.3,651.6,24,652,23.6z"/>
		<path class="st37" d="M338,19.6c-2.7,0.4-3.2,4.9-8.3,2.1c-5.2-2.8-5.7-5.2-4.6-9.7c0.2-0.9,0.9-1.9-0.4-2.6
			c1.3-1.3,2.8-1,4.4-0.9c3.4,2.4,4.9,6.7,8.9,8.6C338.8,17.5,338.9,18.8,338,19.6z"/>
		<path class="st38" d="M338,19.6c0-1.3-0.5-2.6-1.6-2.7c-4.9-0.2-4.5-5.6-7.6-7.5c-0.1,0,0.2-0.6,0.3-0.9c4.5-0.9,7,1.7,9.1,5.1
			c1,1.7,1.7,3.6,3.9,4.1c-0.2,0.7,2.7,1.3,0.1,2.1c-1.4,0.4-1,1.8-1.1,2.8C338.7,23,339.5,20.1,338,19.6z"/>
		<path class="st39" d="M375,8.6c-0.8-0.1-1.6-0.2-2-1c3.7-1,7.3,0.9,11,0c-2.2,3.8-2.5,8.1-2.9,12.3c-0.2,2.2-0.9,3-3,2.7
			c-1.2-1.1-1.2-2.6-1.1-4.1L375,8.6z"/>
		<path class="st40" d="M541.9,24.7c-0.4,1.8,0.9,2.8,2,3.9c-3.2,3.6-7,0.6-10.4,1c-1.9-0.7-3.9-0.6-5.8-1.2c-0.4-0.2-0.8-0.5-1-0.9
			c0.6-0.9-0.2-1.9,0.3-2.9c1-0.3,2-0.6,2.9-1c1.1,1.8,2.1-0.9,3.1-0.1C535.9,25.1,539,24.1,541.9,24.7z"/>
		<path class="st35" d="M368,14.6c-0.7-1-1.4-2.1-2-3.1c2.2-0.6,1.7-4.7,5-3.9c-0.9,1.2-2.5,2-1.5,4C370.3,13.1,369.3,14,368,14.6z"
			/>
		<path class="st41" d="M533.1,23.5c-1.4,0.9,1.2,1.9,0.2,2.2c-1.5,0.5-2.7-0.6-3.4-2.1c-0.7-1.4-2.8-1.5-2.9-3.4
			C529.1,21.3,531.1,22.4,533.1,23.5z"/>
		<path class="st42" d="M650.7,57.5c1,0.6,1.4,1.6,1.1,2.6c-2.2,6.9-0.7,13.3,1.5,19.9c0.9,2.5-3.9,5.4-7.9,4.5s-8.1-2.5-12.2-2.1
			c-11.1,1.1-22.2-3.3-33.3,0c-1.5,0.5-3.3,0.3-5,0.2c-7.1-0.3-14.3,0.1-21.3,1.2c-3.8,0.6-7.2-1-10.7-1.4c-2.2-0.2-3.1-2.3-3.1-4.5
			c0.1-4.4-2.9-5.2-6.3-5.1c-1.6,0.1-3.1,0.8-4.8,0.1c-0.6-0.2-1.8,0-2.2,0.5c-0.6,0.7,0.1,1.5,0.7,2.1c3.1,3.1,0.4,4.5-1.9,5.4
			c-3.2,1.2-6.7,1.8-10.2,1.9c-4.1,0.1-8.4,1-12.2,0.9c-4.3-0.2-8.5,0.9-12.6,0.2c-7.2-1.2-14.4-0.9-21.6-0.2
			c-2.9,0.3-6,0.7-8.8-0.9c-2.6-1.4-4.6,1.1-7.1,1.1c-12.4-0.2-24.8-0.1-37.3-0.1c-2.1,0-4-0.2-4.7-2.7c-0.4-1.5-1.8-1.2-2.9-1.3
			c-1.6,4.2-0.8,8.5-0.3,12.6c0.5,4.4,0,8.6-0.3,12.9c-0.1,1.7-0.2,3.9-2.9,3.9c-0.6-0.2-1-0.5-1.3-1c-1.4-2.8-0.7-5.8-0.7-8.8
			c0.2-10-0.5-20.1,0.4-30.1c0.5-1.6,1.7-2.7,3.3-1.9c3.1,1.5,5.9,2.3,8.9-0.4c0.7-0.6,2.2-0.2,3.4-0.2c0.7,0.1,1.4,0.2,2.1,0.6
			c4.1,1.7,8.3,1.2,12.4,0.3c8.3-3.4,17.1-1.8,25.6-2.2c4.9-0.2,10,0.2,14.9,0c13.2,1.3,26.5,2.3,39.8,1.8c4.9-0.2,9.6-2.8,14.7-1.4
			c10.1,0.1,20.3,1,30.4,0.5c5.6-0.4,11.2,0.8,16.7-0.7c12.5,0.4,25,0.2,37.4,1c4.4,0.3,8.4-2.9,12.9-1.1c1.1,0.4,1.9-1.5,2.4-2.8
			c0.6-1.5,0.5-3.3,1.5-4.7C649.8,57.4,650.2,57.3,650.7,57.5z"/>
		<path class="st43" d="M424.8,108.7c2.7-4.7,2-9.9,1.6-14.7c-0.4-4.6,0-9.2-0.6-13.8c-0.3-2.4,1.3-0.7,2.1-0.6
			c1.2,1.9-0.1,5.2,3.1,6.1c0.5,6.6,0.7,13.2-0.6,19.7c-0.7,3.5,0.4,5,4.1,4c1.8-0.1,3.5-0.1,5.3,0c3.1,0.6,6.2-0.4,9.3,0.4
			c7.9,0.9,15.8,0.5,23.7,0.6c3.3-0.6,6.6-0.2,9.9-0.4c0.7-0.1,1.5-0.1,2.2,0c0.5,0.1,1,0.2,1.5,0.4c1.4,0.3,2.8,1,4.3,0.5
			c4.9-1.8,10.1-1.4,15.2-1.4c0.8,0,1.6,0,2.3,0c8.6,0,17.2-0.5,25.7,0c4,0.2,6.9-0.5,6.4-5.5c-0.1-1.4,0.2-3,1.3-4.1
			c2.8,0.1,2.2,2.4,2.5,4c0.3,1.6,0.1,3.4,2,4.2c2.3,1.4,4.8,1.3,7.2,1.4c20.6,0.1,41.2,0.3,61.7-0.2c8.4-0.2,16.9,1.5,25.3-0.5
			c1.8-2.1,0.7-3.6-1-4.9c-1.6-1.2-2.9-2.7-3.5-4.6c-0.6-2-1.7-4.1,1.8-4.8c1.7-0.4,1.6-2.8,3.2-3.5c2.5,1.6,5,6,7.4-0.8
			c-0.1,7.7-5.3,13.6-4.4,20.8c-1.5,8.5-8.5,10.6-16.5,4.5c4.4-0.6,8.5-1.2,12.6-1.8c0-0.2,0-0.5-0.1-0.7c-6,0-11.9,0.1-17.9,0
			c-2.5-0.1-3.2,1.4-3.6,3.3c-0.4,1.9-0.5,3.8-1.1,5.7c-0.3-2.7,0.3-6.1-1.1-8c-1.9-2.6-5.3,0.6-7.9,0c-7.3-1.8-14.1,0.8-21.1,1.4
			c-1.9,0.2-4.2-1.7-6.5-1.2c-3.5,0.8-7.1,0.9-10.1,3.8c-0.9,0.9-3.7,0.6-5.3,0c-2.9-1.1-5.5-0.5-8.3,0.1c-2.4,0.5-4.8,0.3-6.6-1.8
			c-0.9-1-1.8-1.4-3-0.5l-4.4,7.4l0,0c-1.4-1.2-2.1-2.8-3.2-4.2c-5.6-3.7-6.2-3.7-10.7,0.2c-9.1,1.9-18.3,0.9-27.4,0.1
			c-1.8-0.2-1.9-1.3-2.7-2.2c-2.2-2.3-4.7-1.5-7.2-0.7c-0.6,0.2-1,0.4-0.4,0.2c0.3-0.1,0.5,0.3,0.7,0.6c-1,3.8-0.8,3.7-4.2,1.5
			c-1.5-1-2.7,1.6-4.6,1.4c-0.8-0.1-1.9,3.1-2-0.5c0-0.2-0.4-0.5-0.6-0.7c-1.6-1.2-12.7-0.3-14.6,1.2l0,0c-1.3-0.7-2.7-1.3-4-2
			c-1.3-1.6-4.4,1.6-5-1.9c-2.1-1.9-4.6-0.9-6.9-0.8c-0.1,0-0.2,0.2-0.2,0.4c0,0.1,0.1,0.3,0.2,0.4c-1.6,2.8-4.5,2.4-7,3
			c-1.2-1.7-2.6-0.5-4-0.2c-3.5,0.7-6.5,0-8.1-3.6c1.3-1.8,3.5,0.1,4.9-1.1C429.3,114.4,427.3,113.5,424.8,108.7z"/>
		<path class="st44" d="M640.9,90.5c-1.6,1.5,0.9,6.7-4.7,4.8c1,3.1,1,6.3,5,7.6c2.3,0.8,1.3,3.7,1.8,5.6c-2.4,0.5-4.3-0.7-5.9-2.1
			c-3.9-3.3-8.4-3.9-13.1-3.5c-3.7,0.4-5-1.2-4.4-4.6c0.3-2.2,0.7-4.3-1.9-5.8c2.2,3.8,1.9,8,2.3,11.9c0.3,3.1-2.8,4.8-5.6,3.2
			c-2.1-1.2-4-1.3-6.2-0.6c-1.9,0.6-3.6-0.1-5.2-1.2c-1.9-1.3-4.1-2.4-6.1-1.5c-6,2.6-12.8,0.1-18.3,2.2c-6.1,2.2-11,1.2-16.4-0.9
			c-2.7-1-5.5-1.5-8.3-0.8c-0.5,0.1-1.2,0.4-1.5,0.1c-5.1-4.4-5.4,1.3-7.3,3.5c-2.4-0.2-1.9-2.1-2.1-3.6c-0.2-1.8,0.8-3.9-1-5.4
			c-0.8-0.8-0.9-1.8-0.5-2.9c0.8-1.3,2.8-1.4,2.8-3.9c0-3.9,3.3-3.6,6.2-3.7c3.4-0.1,3.6,1.9,3.5,3.7c-0.3-3,1.2-4.6,5-3.1
			c0.8,1.3,1.2,3.6,3.3,1.2c2.1-2.4,4.2-2.9,6.9-0.8c1.2,1,2.8,0.5,4.3,0.3c5.4-0.7,11.3,1.9,16.3-2.5c0.7-0.6,2.9,0.2,4.3,0.7
			c7.8,2.5,15.5,0.5,23.2,0c3.8-0.2,7.4,2.2,11.5,1.1c1.4-0.4,3-0.4,4.5-0.7C635.8,88.4,638.9,87.4,640.9,90.5z"/>
		<path class="st45" d="M651.7,51.6c0,1.4,0.4,2.9-0.7,4c-0.2,0-0.5,0.1-0.7,0.1c-2.4,0.2-4.7,0.2-7.1-0.3
			c-5.1-1.2-10.2,1.4-15.4,0.4c-1.8-0.4-1.4,1.3-1.5,2.4c-2.2,4.5-5,4.8-10.8,1c0-3.7,2.4-3.1,4.8-2.9c-5.4-0.7-10.9-0.7-16.3-0.7
			c-5.8,0-11.6-0.1-17.4-0.3c-5.1-0.1-10.2,1-15.3,0.5c-0.7-0.1-1,0.8-1.1,1.4c-1.4,2.6-3.4,4.5-6.5,4.7c-4.1-5-4-4.7-10.6-2.3
			c-4.9,1.8-10.2,0.7-15.3,1.1c-2.7,0.2-5.3,0.1-7.9,1c-1.7,0.6-8.8-1.4-11.4-2.9c0.3-3.6,2.8-4.4,5.6-3.9c7.7,1.3,15.4,0.7,23,0.8
			c-0.5-0.2-1.3-0.3-2-0.3c-1.8,0.1-3-0.4-3-2.4c0-1.7,1.2-3,2.8-2.8c3.6,0.4,6.7-1.6,10.2-1.7c3-0.2,5.9,0.7,8.8,1.2
			s5.7,1.6,8.2-1.3c0.8-1,2.5-1,3.8-0.6c5.1,1.4,10.6,0.9,16,3.1c-1.1-1.1-2.2-1.9-1.4-3.4c0.7-1.1,1.8-1.8,2.9-1.4
			c7.2,2.9,14.8,0.6,22.1,1.6c2.4,0.9,5,0.5,7.5,0.7c0.5,0,1,0.1,1.4,0.2c1.8,0.6,3.6,1.8,5.6,1.4C637.6,48.9,644.5,52,651.7,51.6z"
			/>
		<path class="st46" d="M724.8,56.5c4.5,2.6,3.3,6.3,2,10c-1.4,1.4-3.1,0.9-4.7,0.9c-9.9-0.1-19.9-0.4-29.7-0.3
			c-4.9,0-10,0.2-14.9,0.4c-4.4,0.2-1.6,4.5-3.6,6c-0.3,0-0.6-0.1-0.9-0.1c-2.2-2.5-1.4-5.6-1.5-8.5c0.1-2.5-0.2-5.1,0.5-7.5
			c0.2-0.5,0.5-0.9,0.9-1.2c6.5-1,13.1,1,19.6-0.8c1.1-0.3,2.2,0.6,3.2,1.2c4.4,2.3,9.1,0.4,13.7,0.8c4.8,0.4,9.9,0.9,14.8-0.8
			C724.4,56.6,724.6,56.6,724.8,56.5z"/>
		<path class="st47" d="M690.8,100.5c0.1-0.8,0.2-1.6,0.3-2.4c-5.5,0-2.3-2.1-1-3.9c0.7-0.9,0.9-1.9-0.4-2.4
			c-1.1-0.5-2.1,0.1-2.4,1.2c-1.1,5.7-4.8,7.8-10.3,8.3c-1.8,0.2-3.5,1.6-5.2,2.7c-1.4,0.9-2.9,2.7-4,0.3c-0.8-1.6-2.9-4-0.1-5.8
			c2.8-1.7,3.4-4.1,3-7c3.5,0.9,4-4.6,7.7-3.5c1.1,0.3,1.8,0.5,2.2,1.4c-0.3,2.9-4.4,1.3-4.7,4.1c3.3-0.6,3.3-0.6,4,2.6
			c4.3-1.3,3-4.1,1.7-6.8c1.8-3,5.2-2.7,7.9-3.6c1.1-0.4,1.9,0.2,2.1,1.4c0.1,0.6,0.4,1.9,0.8,1.4c2.4-2.9,6-0.9,8.6-2.1
			c4.2-2,6.9-1.1,8.6,3c0,0.7,0.1,1.8-0.1,1.9c-3.7,0.9-3,4.8-4.7,6.9c-2.1,2.7-4.7,5-6.9,7.7c-2.7,3.4-4.8,0-7.2-0.5
			c-0.1-0.2-0.2-0.4-0.3-0.6C689.6,103.5,694,102.2,690.8,100.5z"/>
		<path class="st48" d="M480.9,87.5c2.4-2,5-2.6,7.8-0.8c2.5-0.3,4.8-1.1,7.3-1c1.3,0,2.6-0.1,3.8-0.1c1,0.9,2.3,0.2,3.4,0.8
			c1,0.2,1.9,0.6,2.9,0.6c6.2,0,7.2,1.3,5.8,7.2c4.6,0.9,9.6-1.1,14.1,1.3c0.8,3.5-1.9,3.1-3.9,3.4c-2.8,0.4-5.9-0.5-8.4,1.6
			c-5.4,2.6-11.1,2.6-16.9,2.6c-0.3,0-0.6-0.1-0.8,0.1c0.5,0,0.9,0.3,1.2,0.8c-0.5,4.3-3.7,4.8-7,4.4c-3-0.3-5.9-1.1-8.3-3.1
			c-2.4-3-1-4,2.2-4.6c2-0.4,4.6,0.9,6.1-1.6c0.8-5,2.7-1.6,4.3-0.6c-1.8-2-2.3-4.4-1.6-7c2.8-1.6,5.3,0.2,7.8,0.7
			c-0.9-0.6-1.8-1.4-3-1.8c-3.8-2-7.7-0.2-11.6-0.2c-1.7,0-1.9,1.3-2,2.8c-0.3,2.6,1.5,4.5,2.1,6.9c-1.2,1.2-2.7,1-4.1,1.2
			c-0.6-0.5-0.9-1.2-1.1-1.9c-0.1-0.5-0.2-1-0.2-1.5c0.1-2.2-0.8-4.3-0.9-6.4c0-0.7,0-1.5,0.3-2.2C480.3,88.3,480.6,87.9,480.9,87.5
			z"/>
		<path class="st49" d="M673.8,56.6c-0.3,0-0.6,0-0.9,0c-1,1.1-2,2.1-3.7,2.2c-2,0.1-3.4,1-4.5,2.7c-0.6,0.9-1.1,2.3-2.5,2
			c-1.6-0.3-0.8-2.2-1.9-3.6c0.3,4.2-1.7,8.3,1.6,11.7c0.8,0.6,2.5,1.5,0.1,1.9c-2.7,0.4-5.4,0.1-8.1,0.1c-0.8-4.3-0.7-8.6-0.1-13
			c-1.9-3.6,0.1-7.5-1-11.1c-0.6-0.8-0.7-1.6-0.4-2.5c0.2-0.6,0.6-1,1.1-1.4c6.5-2,12.9-2.6,19.4,0.1c0.6,2.9-0.8,6.1,1,8.9
			C674.4,55.2,674.4,55.9,673.8,56.6z"/>
		<path class="st39" d="M448.9,110.6c-3-0.3-6,0.8-8.9-0.1c-2-1.3-4-2.1-6,0.1c-3.8,1.5-5.9,0.3-4.8-3.8c0.8-3-0.7-6,1.4-9.3
			c1.2-1.9-1.2-5.6-0.5-8.7c0.3-1.1,0.4-2.2,1.1-3.2c8.6,0.5,17.2,0.7,25.8-0.1c0.7,0.7,2,0.1,2.4,1.3c-0.1,1.6-1.3,2.6-2.6,2.6
			c-5.5,0-11,2.3-16.6,0.4c-0.9-0.3-1.7-1-2.7-1c2.4,3.1-4.2,3.5-2,6.5c1.3,1.7,2.2,3.1,1.3,5.6c-0.6,1.9,1.4,3.2,3.6,1.3
			c1.8-1.4,3.5-2.5,4.3,0.9c0.3,1.3,1,1.5,2.1,1.4c1.3,0,2.3,0.4,3.1,1.4c0.2,0.2,0.5,0.5,0.7,0.7c1.2,1.1,4.5,0.7,3.7,3.1
			C453.4,112.1,450.8,111,448.9,110.6z"/>
		<path class="st50" d="M525.9,95.6c-5.3,0-10.6,0-16.2,0c0.8-1.5,1.7-2.5,1.9-3.7c0.3-2.7-0.8-5.1-3.8-3.9c-2.5,1-3.5,0.1-4.9-1.4
			c3-0.9,6-0.7,9-0.1c7.7,1.5,15.5,0.7,23.2,1c2.2,0.1,4.5-0.1,4.8,3c0.3,2.8-2.1,2.9-3.7,3.8c-0.4-0.5,0.2,0.4-0.4,0.1
			s-1.1-0.1-0.5,0.1c6.2,1.2,6.6,1.9,4.9,9c-1,0.7-1.8,0.2-2.5-0.4c-1-2.8-2.1-5.3-6.2-4.2C529.3,99.4,527.5,97.3,525.9,95.6z"/>
		<path class="st51" d="M652.7,47.5c0,0.7,0,1.3,0,2c-0.3,0.1-0.5,0.1-0.7,0.2c-2.8,2.3-5.9,0.5-8.6,0c-5.9-1.1-11.9,0.9-17.7-0.6
			c-2.8-0.5-4.8-2.2-6.9-4c-0.7-2.5-2.5-2.8-4.7-2.2c-0.5-2.5-3.8-0.9-4.5-3.1c1.2-3.1,4.6-2.3,6.7-3.8c5.4-3.7,11-2.1,16.6-0.7
			c0.7,0.2,1.4,0.5,1.9,1c0.4,2.6-1.8,2.5-3.2,2.7c-3.4,0.6-6.7,1.6-10.2,1.8c1.6,2,3.7,2.8,5.9,2.9c5.1,0.3,10.3,0.3,15.4-0.6
			C649.4,42.1,649.4,42,652.7,47.5z"/>
		<path class="st52" d="M661.9,71.5c-1.2,0.6-2.6,0.8-2.7-0.8c-0.4-3.8-0.9-7.6,0.4-11.3c0.3-1,0.6-2.7,2.2-2.1
			c1.6,0.5,0.7,1.9,0.4,2.9c-0.2,0.7-0.1,1.6,0.3,2.8c1.1-6.5,6.5-5.3,10.5-6.5c0,2.7,0,5.3,0,8c-1.4,0.8-2.1,2-2.1,3.6
			c0.1,2.4-1.2,4-2.8,5.4c-3.5-0.4-3.7-3.8-5.5-5.8C661.2,68.8,662.2,70.3,661.9,71.5z"/>
		<path class="st49" d="M652.8,112.5c3.9,0.8,7.3-1.6,11.1-1.5c2,0,4.6-2.4,5.9,1.8c0.3,1.2,3.2-0.9,4.6-1.9
			c-1.5-1.9-0.7-2.1,1.3-2.5c2.4-0.6,3.4,1.7,5.4,1.7c-1.2,2.7,3,6.2-1.3,8.5c-3.1-3.3-6.5-4.1-10.5-1.7c-1.6,0.9-3.7-0.2-4.8-0.7
			c-4-1.7-7.8-0.4-11.6-0.6c-1.1-0.2-2.4-0.3-2-2c0-0.3,0-0.7,0-1C651.5,112.5,652.2,112.5,652.8,112.5z"/>
		<path class="st53" d="M625.9,57.6c-1.2-2-3.3-4,1.7-2.9c5,1,10.2-1.6,15.3-0.3c0.3,0.6-1.7,0.5-0.4,1c2.6,0.9,5.4-1.1,8.1,0.1
			l0.4,0.1c-0.1,0.6-0.2,1.3-0.3,1.9c-0.3,0-0.5,0-0.8,0.1c-2.8,5.3-7.8,3-12,3.4c-3.3,0.3-6.3-1.8-9.8-1
			C627.2,60.2,625.5,59.5,625.9,57.6z"/>
		<path class="st53" d="M624.9,48.5C634,48,643,47.9,652,49.6c-0.1,0.6-0.2,1.3-0.3,1.9c-4.1,1.3-8.2,1.9-12.3-0.4
			c-2.4-1.3-5.1,0.1-7.7,0c-2.4,0-4.9,0.2-6.8-1.7c-0.3-0.2-0.3-0.5-0.3-0.7C624.7,48.6,624.8,48.5,624.9,48.5z"/>
		<path class="st43" d="M536,93.5c1-1.4,3.5-0.9,4-3c0.5,0.4,1.4,1.1,1.5,1.1c5.2-5.8,11.5-2.6,17.5-2c-2.8,0.3-2.8,0.3-5.6,6.6
			c-1.1-2.8,1.1-7.2-4.2-6.7c-3,0.3-4.1,1.8-4.1,4.4c-0.1,3.5,0,3.5-3,2.7C540.4,94.6,537.8,94.9,536,93.5z"/>
		<path class="st54" d="M681.8,89.4c4.6,3.4,4.6,3.6,0.4,7.3c-1.2,1-2.2,2.2-3.8,0.9c-2.2-1.7,1.1-2.2,0.8-3.6
			c-1-0.9-1.7,0.3-2.6,0.4s-1.8,0.4-3.2,0.8c1.8-3.4,4-5.4,7.5-5.8C681.2,89.5,681.5,89.5,681.8,89.4z"/>
		<path class="st49" d="M667.9,73.5c0-2.3,2.7-3.8,1.5-6.8c-0.6-1.6,1.1-3.2,3.5-2.2c0,3,0.1,5.9,0.1,8.9
			C671.3,73.4,669.6,73.5,667.9,73.5z"/>
		<path class="st42" d="M459,86.6c-0.7-0.3-1.4-0.7-2.1-1c2.6-0.3,5.1-0.1,7.7-0.6c1.9-0.4,4.7-0.7,5.5,2.4
			c-0.2,0.2-0.3,0.3-0.5,0.5c-1.1,0.3-2.2,0.3-3.3,0.4C463.9,87.6,460.7,90.2,459,86.6z"/>
		<path class="st42" d="M480.9,87.5c0,0.3,0,0.6,0,0.9c-3.5,2-7.1,1.4-10.7,0.5c-0.5-0.4-0.5-0.9-0.2-1.4l0.1-0.2
			c1.5,0.2,2.9,0.3,4.3-0.8C476.8,84.8,478.9,85.7,480.9,87.5z"/>
		<path class="st42" d="M653.8,60.6c0,4.3,0,8.7,0.1,13C652.2,69.2,652.3,64.9,653.8,60.6z"/>
		<path class="st42" d="M511.9,86.5c-3,0-6,0-9,0.1c-1.1-0.1-2.2,0-3-1C503.9,86,508.1,84.5,511.9,86.5z"/>
		<path class="st42" d="M496.1,85.6c-2.4,0.9-4.7,1.9-7.3,1C491.1,85.8,493.4,83.9,496.1,85.6z"/>
		<path class="st55" d="M673.9,26.6c0-0.7,0-1.4,0.1-2.1c16.6,0,33.2-0.1,49.8,0c1.7,0,3.9-0.8,4.3,2c-0.1,1-0.2,2-0.3,3
			c-5.2,3-10.7,1.4-16.1,1c-2.1-1.5-4.3-1.9-6.9-1.7c-9.1,0.6-18.1,0.2-27.1-0.9C676.2,27.8,674.8,27.6,673.9,26.6z"/>
		<path class="st56" d="M233.9,262.4c0.1,0.3,0.1,0.7,0.1,1c-1,3.4-2,6.8-3,10.1c-2.1,0-3.5-0.5-2.9-3.1c0.7-3,0.6-6.2,2.1-9.1
			C231.8,260.3,233.1,260.5,233.9,262.4z"/>
		<path class="st57" d="M236.7,247.7c-1.6,1.6,1.1,7.1-4.6,4.8c0-1.9-0.1-3.9-0.1-5.8C233.5,247,235.1,247.3,236.7,247.7z"/>
		<path class="st19" d="M233.9,262.4c-1.2-0.7-2.4-1.2-3.8-1c0.1-0.6,0.1-1.3,0.2-1.9c1.1-0.9,2.7-0.1,3.8-1.1
			c1.3,0.1,2.7,0.5,2.6,2.1C236.6,262.1,235.2,262.3,233.9,262.4z"/>
		<path class="st56" d="M234.1,258.4c-0.5,3-2.1,2.1-3.8,1.1c-0.3-1.6,0.4-2.6,1.8-3C232.4,257.6,233.1,258.1,234.1,258.4z"/>
		<path class="st58" d="M712.8,69.8c4.1-0.9,7.7,0.4,11.7,1.4C720.6,73.2,718.8,73,712.8,69.8z"/>
		<path class="st59" d="M714.8,38.6c1.2,1.2,3.5,1.2,3.1,3.9c-0.6,3.2-2.6,0.9-3.8,1.2c-7.3,1.5-14.7,0.7-22.1,0.8
			c-6,0-12,0.1-18,0.1c0-2.3,0-4.6,0-6.9c4.8-3.8,10.2-0.8,15.3-1.5c6.6-0.8,13.2,1.9,19.9-0.3C711.4,35.2,713.8,36,714.8,38.6z"/>
		<path class="st60" d="M672.8,45.6c-6.6,0.3-13.3-1-19.8,1c-2.3-2-2.5-4.6-1.9-7.4c0.5-1.2,1.3-2.3,1.2-3.7
			c-0.1-1.3,0.5-2.4,1.9-2.3c6.2,0.3,12.4-1.6,18.6,0.3C672.8,37.6,672.8,41.6,672.8,45.6z"/>
		<path class="st61" d="M714.8,38.6c-4.2-4.1-8.8,0.6-13.1-0.4c-6.7-1.6-13.7,0.5-20.4-1.4c-2.6-0.7-4.8,1.2-7.3,0.8
			c-0.6-2.9,1.9-4.1,3.4-3.4c4.4,2,7.7-0.8,11.5-1.7c5.7-2.5,11.6-2.1,17.5-1.4c2.3,0.1,4.6-0.8,6.9-0.5c1.4,0.2,2.9,0.3,2.8,2.1
			c-0.1,1.6-1.6,1.2-2.7,1.4c-0.9,0.1-1.9-0.4-2.3,0c2.3,1.3,6.3-2.8,7.9,2.5C717,36.2,715.9,37.5,714.8,38.6z"/>
		<path class="st62" d="M705.8,32.4c-5.6-1.5-11.3,0.5-16.9,0.1c-5.2-1.6-10.6-0.8-16-1c-1-1-0.8-2.1-0.1-3.1
			c0.4-0.6,0.7-1.3,1.1-1.9c11.3-0.1,22.5,2.3,33.9,0.4c1.4-0.2,2.9,0.7,3.2,2.5C709.6,31.2,707.7,31.8,705.8,32.4z"/>
		<path class="st63" d="M672.8,28.5c0,1,0.1,2.1,0.1,3.1c0,0.6-0.1,1.3-0.1,1.9c-4.9,0.3-9.8,0.9-14.7,0.9c-2.7,0-5.4-1.2-4.6,3.3
			c0,0.2-1,0.5-1.6,0.8c-0.2-0.1-0.4-0.3-0.5-0.4c-0.5-0.8-0.6-1.7-0.6-2.6c0-0.5,0-0.9,0.1-1.3c0.1-0.7,0.4-1.3,1-1.7
			c4.1-5.3,9.8-4.4,15.5-3.9C669.2,28.7,671,28.5,672.8,28.5z"/>
		<path class="st64" d="M673.8,56.6c0-0.7,0-1.3,0-2c15.6,0,31.1,0,46.7,0.1c1.6,0,3.9-1,4.4,1.9l0,0c-1,1-2.1,1.5-3.6,1.4
			c-8.8-0.4-17.6-0.8-26.4-0.4c-1.2-0.2-1.9-1.1-3.7-0.8C685.4,57.9,679.5,57.7,673.8,56.6z"/>
		<path class="st65" d="M242.2,143.6c5.8-3.8,7.8-9.7,8.9-16.1c0.1-0.6,0.5-0.9,1-1c1.7-0.2,1.6-6.1,4.9-1.5
			c0.4,0.6,1.6-0.7,1.9-1.7c0.3-1,0.5-2.8,2.1-2c1.5,0.7,1.3,2.5,0.2,3.3c-3.1,2.2-2.2,3.6,0,6c3.7,4.1,3,7.4-2.5,13.2
			c-1.4-2.3-0.3-4.4-0.1-6.5c-7,2.3-7.3,2.8-5,9.1c0.1,0.4,0.3,1,0.6,1.2c2.4,1.3,2.1,1.1,0.5,3.9c-1.7,3.1-3.7,5.8-5.6,8.7
			c-0.7,1.1-1.6,2.4,0.4,3.3c1.5,0.7,2.1-0.3,2.6-1.4c1.6-3.2,3.3-5.9,6.9-1.9c0.6,0.7,1.1,0.3,1.7-0.1c0.9-0.5,1.7-2.3,2.8-1
			c1.1,1.4-0.1,3.2-1.3,3.8c-2.6,1.4-3.6,2.9-2.4,5.9c0.4,1-0.4,2.4-1.5,2.9c-1.2,0.6-1.4-1.1-2.3-1.4c-5.5,3.7-12.6,5.9-13.1,14.2
			c-0.1,1.8-2.5,2.7-1.9,4.7c-0.4,1-1,2-0.4,3.3c1,2.3-0.9,4.4-2.2,3.9c-3.1-1.1-6.4,4.5-9.2-0.5c-0.4-0.8-1.3,1.1-2.2,1.4
			c-1-1.3-2.4-1.8-3.9-2c-1-3.6,0.9-6.7,2-9.8c0.7-2.3,1.9-4.5,1.8-7.1c0-0.3,0-0.7,0.1-1c1.2-1.5,2-3.4,3.4-4.9
			c3.4-3,5.5-6.8,6.7-11.2c0.2-2,1.3-3.6,2.6-5.1c3-3.5,3.7-7.6,2.5-12c-0.2-0.2-0.3-0.3-0.2-0.5C242,143.7,242.1,143.6,242.2,143.6
			z"/>
		<path class="st66" d="M227,178.5c0.4,0.9,1.8,1.2,1.2,2.9c-1.8,4.6-3.3,9.3-5,14c-0.1,0.3-0.2,0.6-0.2,0.9
			c-3.1-0.1-0.4-2.7-1.5-3.5c0.1,1.4,0.1,2.8-1.2,3.8c-0.5,0.2-0.9,0.1-1.3-0.2C218.4,189,221.1,183,227,178.5z"/>
		<path class="st67" d="M219.1,196.5c0.3,0,0.7,0,1,0c1.7,2.3,0.4,4.2-1,6c-2.2,3.3-1.7,7.5-4,12.4c0-6.9,0.5-12.1,2-17.4
			C217.8,197.2,218.4,196.8,219.1,196.5z"/>
		<path class="st30" d="M219.2,202.5c0.3-2,0.7-4,1-6c1.6-1.8,0.3-4.6,2.2-6.6c1.5,2.3-2,4.7,0.7,6.5c0.4,1.5-1.2,2.8,0.3,4.6
			c1.3,1.7-0.6,2.4-2.2,2.6l0,0C220.7,202.7,220,202.5,219.2,202.5z"/>
		<path class="st68" d="M221.1,203.5c-0.5,5.9,0.5,12-3.2,17.3C219.9,215.2,217.4,208.7,221.1,203.5L221.1,203.5z"/>
		<path class="st69" d="M705.8,32.4c1.6-1.1,2.7-3.2,5.1-3c5.6,0,11.2,0,16.8,0c0,1.3,0,2.7,0,4c-1.9,4.1-6.2,1.2-8.8,3.1
			c-2.7-3.9-6.7-1-10.5-2c2.3-1.9,5-0.1,7.3-1.8C712.2,29.9,708.9,33.4,705.8,32.4z"/>
		<path class="st70" d="M337,118.5c-2.3,2.4-1.5,6.3-5.2,8.5c-2,1.2,2.2-0.4,2.6,1.5c-0.5,0.4-1.2,0.8-1.8,1.2
			c-2.4,1.4-4.8,2.2-6.3,5.3c-1,2.2-4.8,4.9-8.1,1.1c-0.7-0.8-2-1-4-1.9c2,3.7-3.5,6.4,0.3,9.7c-1.9,1.9-4.3,2.2-6.8,2
			c-0.7,4.4,3.3,4.5,5.4,6.3c0.8,0.7,3.6,1,1.5,3.1c-0.9,0.9-2.2,3.8-3.3-0.1c-0.2-0.9-1.3-0.4-1.5,0.1c-1.7,3.2-6.4,3.1-7.5,7.1
			c-0.6,2.2-2.5,1.3-4.1,0.7c-3.3-1.3-6.7-2.4-10.1-3.6c-8.2-2.9-8.5-3.3-7.4-11.8c-0.4-3.9,1.1-5.6,5.1-4.3c3.5,0,4.7-3,5.4-5.4
			c1.3-4.3,3.7-7.2,7.6-9.1c2.1-1.2,3.8-3,6.6-3c2.5,0,3.3-2.3,4.3-4.3s2.4-3.7,5-3.1c1.9,0.4,4.9,0.1,2.3,3.8
			c-1.3,1.9,1.5,1.4,2.2,2.1c1,0.9,2.5-1.1,2.4-1.5c-1.4-3.8,1.9-7.8-0.4-11.6c-0.7-1.2-0.3-2.6,0.9-2.9c2.1-0.5,3.8-3.2,6.3-1.4
			c1.5,1,3.2,1.9,4,3.6c0.4,1.8-0.8,2.6-2.1,3.3c1.6,0.3,4.1-1.2,4.5,1.2c0.3,1.8-2.1,2.1-3.7,2.7C333.3,117,335.3,116.8,337,118.5z
			"/>
		<path class="st27" d="M271.1,182.5c0.3,0.3,0.7,0.7,1,1c1.4,3-2.1,6,0,9c0,0.7,0,1.4,0,2c-2.1,2.9-5.9,5.3-3.5,10.2
			c1.8-2.6,4.7-1.8,6.9-2.8c0.8,0.3,0.4-1,0.4-0.3c0,1.2-2.8-1.3-3.7-3.2c2.3-1.4,4-3.9,7-4c2,2.4,5.7,2.8,6.5,7.2
			c0.6,3.3-2.2,5.1-1.6,7.8c-1.2,0.6-1.6-0.7-2.5-1c0.7,0.8,1.3,1.6,2.5,1c1.2,0.3,3.3,0.3,3.5,0.9c0.6,1.7-1.4,1.8-2.5,2.3
			c-1.1,0.6-1.5,1.7-1.8,2.8c-1.6,5.1-5,6.5-9.6,3.7c-1.5,2.5,0.3,5.1-0.3,7.6c-0.9,3.4-1.4,6.7-5.4,2c-1.4,6.1-1.4,6.2-8.8,4.6
			c0.1-2.6-0.3-5.1,2.3-7.1c1.5-1.1-1.3-2.4-1.5-4.1c-0.3-2.3-1.2,0.2-1.5,0.4c-1.2,1-3.9-1.2-3.8,2c-0.4-0.3-0.9-0.4-1.1-0.8
			c-0.7-1.6,0.2-3.8,1.2-3.8c3.1-0.1,2.4-2.8,3.7-4.3c-2.3,0.5-4.5,2.6-6.6,0.9c-1.2-1,1.2-2,1.4-3.3c-0.7-0.7-0.4-1.5-0.2-2.3
			c1-4.4,2-4.7,5.6-1.8c-0.2-3.2-4.1-6.5,0.6-9.2c2.2,0.7,3.6,0.5,4.2-2.3c1.2-5,3.8-9.5,5.9-14.2
			C269.6,182.9,270,182.2,271.1,182.5z"/>
		<path class="st71" d="M372.1,103.5c-0.2,2.4,3.9,5.3-1.1,7c-0.6,0.5-1.3,0.6-2,0.2c-1.1-1.3,1.6-3-0.3-3.9
			c-1.3-0.7-2.3,0.9-3.5,1.2c-4.6,1.1-8.8,5-14.2,1.2c-2.6-1.9-3.5-0.9-5.1,3.3c-3.3,0.1-6.7-1-10,0c-0.1-0.2-0.2-0.4-0.4-0.6
			c-0.4-1.2,0.8-2.6-1.5-3.5c-3.1-1.2-3.7-4-1.8-7c0.8-1.3,2.3-2.4-0.1-3.9c-1.3-0.7-0.4-2,0.7-2.8c0.4-0.3,0.9-0.5,1.3-0.7
			c4.6-2.3,10.1-2.6,13-7.1c-2.1,0.5-4.5,2.5-7.5,1.4c-1.2-0.5-2.8-0.9-2.6-2.5c0.2-1.4,1.5-1.7,2.7-1.7c2.9,0,5.4-1,7.9-2.3
			c3.2-1.7,6.7-0.2,7.3,3.4c0.4,2.5,1.1,6.2-3.9,6.7c4.2,2.3,8,4.6,12.4,5.4c0.4-0.2,0.9-0.2,1.3-0.3C368.3,98,370,101,372.1,103.5z
			"/>
		<path class="st12" d="M396.2,133.6c-3.6,1.9-7.5,0.8-11.2,0.8c0.1-3.4,4.8-4.2,4.3-8.5c-0.3-2.6,1.9-4.9-1.7-7.4
			c-2.2-1.5,0.6-4.8,2.6-5.3c5.1-1.3,5.2-4.7,4.8-8.7c0-2.1,0.3-4.3-1.5-6.1c-2.3-2.2-3.2-4.2,0.4-6.7c3-2.2,0-6.1,0.8-9.4
			c1-4.4,0.8-9.2-0.1-13.9c-0.2-0.9,0.8-2.2-0.6-2.5c-1.2-0.2-2.2,0.6-2.7,1.7c-0.6,1.3,0,4.2-2.7,2.9c-2.9-1.4,0.5-2.1,0.9-3.1
			c1.3-4.3-3.1-3.3-4.1-4.4c4.8-8.2,12.3-14.8,9.8-25.5c2-2.4,0.2-5.5,1.4-8.2c1.5,2.7-0.6,5.9,1.5,8.2c0.4,0.3,0.5,0.7,0.5,1.1
			c0,0.7-0.1,1.3-0.2,2c-0.5,2.6,0.5,4.6,2.2,6.5c-0.4,2.7-0.5,5.3,1.2,7.6c0,3.4,2.9,7.3-1.7,9.8c-3.1,3.7-0.8,8-1.1,12
			c0.1,1.2-0.1,2.3-0.3,3.4c-0.1,1.1-0.2,2.3-0.1,3.4c0.8,3.7,0.4,7.5,0.4,11.2c1.1,6.6-0.7,13.2-0.4,19.8c0.1,1.5,0,3-1.4,4.1
			C393.9,121.6,393.6,128.1,396.2,133.6z"/>
		<path class="st17" d="M373,135.5c-2,0.3-3.2,1-4.4,3.1c-2.7,4.6-5.6,8.9-7.5,13.9c-3.2,8.3-2.2,16.2,1.6,24c0.5,1,2.3,2.1,0.7,3.4
			c-1.5,1.2-2.7-0.1-3.8-1.3c-5.7-6.3-7.7-13.7-7.3-22c0.2-3,0.4-6,0.6-8.9c0-1.3,0.4-2.8,0.1-4c-1.8-5.8,4.4-5.6,6.5-8.4
			c0.4-0.6,3.2,2.5,5.6,1.2c0.7-0.4,1.9,0.4,2.3-1.1c0.8-3.7,0.9-3.7,4.2-1.2C372,134.7,372.5,135.1,373,135.5z"/>
		<path class="st35" d="M346,112.5c2.1-1.4-1.7-1.6-0.6-3.6c2.2-4.1,6.5-1.4,6.8-1.1c4.9,5,8.6-0.4,12.7-1.2
			c0.7-0.1,1.6-0.9,2.5-1.4c1.7-0.9,2.9-0.4,3.8,1c1.7,2.6-2.1,2.4-2.2,4.2c1,1.4,3.5,0.9,4,3c0,0.7,0,1.3,0,2
			c-5-2.2-9.8-3.2-15.3-0.3C353.7,117.3,349,117.5,346,112.5z"/>
		<path class="st72" d="M285.1,170.6c-0.3,1.6,3.8,1.4,1.5,3.5c-1.7,1.6-3.8,3.2-6.1,0.5c-0.9-1-1.2-0.9-1.8,0.7
			c-0.5,1.2-1.1,0.5-1.5,0.3c-1.7-0.8-3.1-1.8-3.1-4c0.9-4.3,1.7-8.7,3.8-12.6c1.4-2.7,2.8-3.9,5.6-1.2c1.4,1.3,3.5,1.8,4.6,3.6
			c1.6,2,3.6,4-1,5.1c-1.3,0.3-2.5,1.6-3.4,2.8C282,171.4,284.7,169.9,285.1,170.6z"/>
		<path class="st25" d="M288,161.3c-1.7-2-5-1.3-6.3-4c-0.5-0.9-1.8-0.5-1.9,0.3c-0.4,2.9-3.9,4.5-2.9,8.3c0.4,1.6-1.8,3.8-2.8,5.7
			c-1.4-1.8-1.7-3.5-0.5-5.6c0.8-1.4,1-3.1-0.6-4.4c0-3-0.1-6.4,1.9-8.5c2-2,1.5-3.5,0.7-5.4c2.2-3.5,4.3-0.3,6.5,0
			c-1.6,5.1-1.6,9.4,5.2,10.3c0.3,0,0.5,1.1,0.8,1.6C288.1,160.1,288.1,160.7,288,161.3z"/>
		<path class="st71" d="M337,118.5c-2.8-0.8-5.5-0.1-8.8,1.1c1.7-2.8,4.4-2.8,6.1-4.6c-1.7-1.1-3.9,1.6-5.4-1.1
			c0.6-1.3,3.3-1.2,3.1-3.4c2-0.7,3.1,0.4,4,2l0,0c0,1.2,5.8,1.2,0.7,3.5C335.7,116.5,336.9,117.7,337,118.5z"/>
		<path class="st27" d="M250.1,191.5c0.5,0.8,1.1,1.6,1.7,2.4c2.1-1.6,1.3-4.7,3.3-6.4c0.7-0.7,0.8-1.8,1.4-2.6
			c0.6-0.7,1.3-1,2.2-0.6c0.8,0.4,1.3,1.4,0.9,2c-1.9,3.5-0.3,6.9,0.1,10.4c-2.2,4.4-3.8,9.2-7.6,12.7c-0.3-0.5-0.7-0.4-1.2-0.3
			c-9,1.5-9.1,1.1-6.5-7.6C245.5,197.5,246.5,193.9,250.1,191.5z"/>
		<path class="st27" d="M241.1,189.5c-1.2-3.2,1.2-5.8,1.7-8.7c0.5-3.3,1.4-6.8,6.5-6.7c2.3,0.1,2.7-5.7,6.8-3.6c-2,6.3-4,12.7-6,19
			c-0.3-0.3-0.7-0.7-1-1c-2.5-2.9,0.7-5.2,0.7-7.8c-0.3,3-3.1,3.9-4.7,5.8C243.6,187.3,241.8,187.7,241.1,189.5z"/>
		<path class="st50" d="M252.1,209.5c1.6-4.7,4.7-8.6,6.9-13c1.2,1.3,1.2,2.6,0.1,3.9c-0.9,1.9-2.2,3.5-0.3,5.7
			c1.3,1.5,2.6,4.3-0.1,5.5c-2.8,1.2-1.6-2.7-3.2-3.9c-1.9,1.6-1.9,3.7-2.5,5.7C251.6,212.4,252.2,210.8,252.1,209.5z"/>
		<path class="st65" d="M245.1,186.5c-0.1-4.2,5.8-4.3,5.7-8.6c0,3.7-1.9,7-1.7,10.6c-0.7,1.2-1,3-3,2.4
			C243.5,190,246.5,187.7,245.1,186.5z"/>
		<path class="st43" d="M650.9,113.5c0.7,0.7,1.3,1.3,2,2c-2.9,4.3-4.9-0.9-8-0.2C646.7,112.1,649.3,115.1,650.9,113.5z"/>
		<path class="st73" d="M399,63.6c2-1,3.3-2.4,1.9-4.7c-0.8-1.4,0-2.8,0-4.3c-0.8-2.3-0.7-4.7-0.9-7c-4-1.5-3-4.9-3-7.9
			c2.3-0.5,1.6,2,2.7,2.7c0.2-1.7-0.8-2.7-1.8-3.8c0-0.3,0-0.7,0.1-1c0.6,0,1.3,0,1.9-0.1c1.2-0.7,2.5-1.1,3.9-0.6
			c3.7,2.1,6.1,5.1,7.6,9c3.8,6.8,2.4,14.4,2.4,21.5c-0.1,13.1,0,26.2-0.3,39.4c-0.1,2.9-1.5,6,0.6,8.7c0.1,1.5-0.4,2.8-1.1,4.1
			c-1,1.2-1.8,3.5-3.6,2.9c-2.1-0.8-3-3.2-3-5.3c0.2-6.8-0.6-13.6,0-20.3c0.3-3.3-0.1-6.2-1.3-9.2c-1.7,1.8-0.6,4.8-2.6,6.5
			c-1.6,0.7-3.3,1.5-4.5-0.6c-1-3.3,0.4-6.8-0.9-10c2.1-2,4.9-0.3,7.2-1.5c-2.9,0.7-5.7,1-7.1-2.4c0.3-1,0.5-2,0.8-3.1
			c1.8-0.5,3.1-1.6,3.9-3.3c3.5-2.6,1.3-6.2,1.7-9.4c0.6-0.3-0.8-0.7-0.3-0.2c0.1,0.1,0,0.1-0.3,0.4c-0.5,0.4-1,0.7-1.7,0.9
			C400.2,65,399.5,64.5,399,63.6z"/>
		<path class="st74" d="M414,115.5c-2.3-1.1-2-3.2-2-5.2c0.3-14.2,0.2-28.4,0.3-42.5c0.1-7.4,1.2-15.2-2.3-22.3
			c1.9-2.5,3.9-4.9,4.3-8.1c0.1-0.6,0.1-1.3,0.3-1.9c0.4-1.2,0.3-2.9,2-2.7c1.2,0.2,1.3,1.7,1.5,2.8c0.3,2.1,0.1,4.2,0.1,6.3
			c-0.2,5.1-0.9,10.2,0.2,15.2c-2.1,2.2-0.1,5-1.1,7.5c-0.5,1.2,1.1,2.2,2.7,2.3c1.3,0.1,2.7-0.4,3.8,0.6c0,13.7,0,27.3,0,41
			c0,3.2-2.7,3.9-4.9,4.9c-2,0.4-2.4-2.6-4.8-2C414.2,112.8,414.1,114.2,414,115.5z"/>
		<path class="st75" d="M401.9,93.5c0.7-2.5,1.5-5,2.2-7.5c0.2-0.7,0.6-1.2,1.3-1.3c0.7-0.1,1.2,0.4,1.3,1.2c0.9,5.7,1,11.5,1,17.3
			c0,6.2-1.1,12.5,1.5,18.5c2,0.3,2.3-1.8,3.8-2.1c-0.3,3.6-2.5,4.8-5.9,5c-2.3,0.1-4.9-0.8-7,1c-2.8-0.7-5.6-1.3-3.1-5.2
			c1.6,0.3,2.3,0.4,2.8-2C401.4,110.1,399.7,101.7,401.9,93.5z"/>
		<path class="st76" d="M419,113.5c1.6-1.6,3.3-3.3,4.9-4.9c0.3,0,0.6,0.1,0.9,0.1c3.7,6.3,10.4,3.3,15.7,4.2c0,0.4-0.1,0.9-0.1,1.3
			c-3.2,0.2-6.3,0.3-9.5,0.5C427,113.7,423.3,111.3,419,113.5z"/>
		<path class="st77" d="M529,118.5c0.7-4.2,3.4-5.4,7.7-3.3c1.5,0.7,3.2,0.8,4.2,2.3c-3.6,1.4-7.8,0.6-11.1,2.8
			c-0.3,0-0.5,0.1-0.8,0.1C529,119.8,529,119.2,529,118.5z"/>
		<path class="st43" d="M466,119.5c3.4,0,6.7,0,10.1,0c-3.4,3.2-7.5,1.7-11.2,2.3C463.7,122,465.9,120.5,466,119.5L466,119.5z"/>
		<path class="st74" d="M492,116.6c-0.8,0.1-1.6,0.1-2.8,0.3c2.5-3.2,5.6-3.3,8.9-2.9c2,0.2,1.3,1.4,0.8,2.5
			C496.6,116.5,494.3,116.6,492,116.6z"/>
		<path class="st21" d="M484.1,123.1c-2.8,3.7-5.1,1.1-7.2,1.7c-1.9,0.6-4.1-0.3-6.2,0C474.7,122.3,479,124.3,484.1,123.1z"/>
		<path class="st78" d="M443,118.6c2.3-1,4.7-2,7-3c0.8,0.2,1.6,0.2,2.3,0.6c0.4,0.2,0.3,1.1-0.2,1.1
			C448.9,117.1,446.4,120.7,443,118.6z"/>
		<path class="st79" d="M457,115.6c1.2,1.9,3.8,0,5,1.9c-2.1,0.7-4.1,0.8-6.2-0.2c-0.7-0.3-1.8-0.7-0.7-1.6
			C455.4,115.4,456.3,115.6,457,115.6z"/>
		<path class="st47" d="M692.8,111.5c-2.7,1.6-4.5,4.9-8.3,4.5c0.1-1.1,0.8-1.9,1.8-2c2.8-0.2,2.3-0.9,0.8-2.5
			c-1.4-1.4-2.4-3.6-1.7-5.4c0.8-1.9,2.9-0.8,4.4-0.6c0.3-0.5,0.6-0.5,0.9-0.1l0.1,0.1C691.7,107.5,693.1,109.2,692.8,111.5z"/>
		<path class="st70" d="M401.9,93.5c-0.1,6.8,1.4,13.7-1,20.2c-0.8,2.2,1,4-0.2,5.9c-0.7,1.1,1.4,3.2-1,3.7c-2.2,0.4-1.3-2.5-2.7-3
			c0-0.6,0-1.2,0-1.8c0.7-5.8-0.9-11.7,1.2-17.6c0.6-1.7-1.8-4.7-0.1-7.3C399.3,94.4,400.6,93.7,401.9,93.5z"/>
		<path class="st35" d="M418,140.4c0.4-1.3-0.3-2.1-1.2-2.7c3.9,0,5.3,1.9,4.3,5.7c-0.6,2.2-0.9,4.4-1.5,7.7
			C417,147.1,418.6,143.6,418,140.4z"/>
		<path class="st79" d="M690.8,105.5c-0.3,0-0.6,0-0.9,0.1c0.3-1.7,0.6-3.3,1-5c1.2-0.1,1.9-2.5,3.3-0.9c1.2,1.4-0.6,1.8-1.2,2.6
			C692.1,103.2,691.5,104.4,690.8,105.5z"/>
		<path class="st13" d="M529.8,120.4c2.7-4.9,7.2-2.7,11.1-2.8c0.7,1.6,1.3,3.3,2,4.9C539,119.3,534.2,121.3,529.8,120.4z"/>
		<path class="st80" d="M336,112.5c-1.3-0.7-2.7-1.3-4-2c-0.9-0.5-2.2-0.7-2.6-1.4c-2.4-4-4.8,1.1-7.2-0.1c-0.2,0.4-0.6,1.1-0.6,1.2
			c5.2,3.9-2,9.5,1.7,13.6c0.1,0.1-0.6,1.1-0.7,1c-4.9-2.4-0.3,2.2-2.3,2.4c-1.6-0.1-2.1-4.3-5.4-2.5c-0.9,0.5-1.9-1.1-0.5-2.2
			c0.9-0.7,1.9-1.3,2.9-2.1c-3.5-1-6.9-2.3-7.2,3.4c0,0.3-1.9,5.6-6.2,3.2c-1.6-0.9-2.8,2.7-5.1,2.5c-0.3-0.4-0.4-0.8-0.4-1.2
			c1.1-3-1.7-4-2.9-5.9c-0.1-1,0.4-1.8,1.1-2.4c2.2-0.9,4.2-3.1,7-1.1c0,0,2-0.8,0.3-1.8c-4.7-3.2-4.9-3.8-0.6-7.3
			c3-2.4,3.9-6.5,7.4-8.3c3,2.1,5.3,1.5,6.9-1.9c0.3-0.7,0.3-1.7,1.4-1.8c1,0,2.6,1.1,2.6-0.9c0-1.5-1.5-2.3-2.9-1.6
			c-2,1-2.1-0.2-1.8-1.4c1.6-6.6,4.7-12.8,7.2-19.1c0.4-1,1.9-1.7,0.4-2.8c-4.6-3.6-0.2-5.5,1.7-7.2c1.5-1.3,3.4-1.9,3.6-4.2
			c0.7-0.3,1.3-0.7,2-1c1.3,0.8,1.5,2.5,2.9,3.3c1.6-1.6,1.7-4.3,4.1-5.3c3.3,0.6,1.5,2.4,1,4c1,3.1-2.8,4.8-2.3,7.8
			c0.3,2.1-4,4.5,0.7,6.4c1,0.4-0.3,2.7-0.8,4.2c2.2-3,3.8-6.2,5.4-9.3c0.7-0.3,1.3-0.7,2-1c1.1,1.3,2.2,2.7,4,1
			c4.9-4.7,5.7-4.6,8.2,1c0.8-2.2,2-3.7,3.6-5c2.5-2.1,5-1.6,6.7-0.1s3.5,3.8,1.8,7c-1.7,3.2,2.9,9.4,6.6,9.5c1,0,1.7-0.2,1.9-1.1
			c0.8-3.1,3.2-2.2,5.3-2.1c-1.8,1.5-1.9,4.2-5.9,5.1c3.1,0.6,4.7,1.2,6.2,1.1c3.4-0.2,3.3,0.7,1.2,2.8c-2.8,2.9,1.9,1,1.4,2.7
			c-3,0.3-6.1,2.5-9.1-0.4c-1,1.4-1.5,3.1-3.4,3.7c1.6,1.6,3.6-1.3,4.7,1.1c1.2,2.6-1.4,3.6-2.2,5.3c1.6,1.2,3.4-1.4,4.7,0.3
			c0.8,1-0.1,2.3-0.9,3.1c-1.5,1.6-3,0.9-4.4-0.2c-0.4-0.3-0.8-0.6-1.3-0.7c-0.6-0.2-1.3-0.1-2-0.2c-3.7-0.6-4.2-5.5-8-6
			c0.8-2.5-0.5-6.7,4.5-5.8c-0.5-0.4-1.2-1-1.9-1.5c0.9,2.4-5.5,0.9-2.4,4.6c0.6,0.7-0.8,1.8-0.1,2.7c-1.6,3.2-3.4,0.5-4.8,0
			c-3.5-1.5-6.9-3.5-10.5-5.3c1.3-1.6,3.9-1,5.4-2.5c-0.3-2-1.9,0.4-2.7-1.3c-0.5-1.6,5.4-0.1,2.4-3.7c-2-2.4-4.1-3.9-6.5-1.7
			c-2.9,2.7-6.3,1.8-10.3,2.4c4.7,4,8.8,0.7,13.2,0.1c-1.4,2.4-4.1,1.6-5.4,3.2c0.2,1.3,1.8,0.2,2.3,1.5c-4.7,2.5-10.3,3-14.8,6.1
			c0.9,1.8,2.6,0.6,3.8,1.7c-3.6,4.4-7.6,9,2.5,11.1C336.5,109.4,336.6,111.2,336,112.5z"/>
		<path class="st81" d="M395,31.6c0,0.7,0,1.3,0,2c-2.6,2.4-4.5,5.5-7.6,7.4c-0.3,0.2-0.7,0.9-0.6,1.2c2.4,4.7-1.9,4.8-4.2,6.1
			c-0.3,2.6,3.3-1,2.6,1.7c-0.4,1.5-1.3,2.5-3.3,2.2c-2.3-0.4-5.2,1.8-5.6-3.1c-0.1-1.3-4.7-3.8-8.2-2.1c-3.3,1.6-6.3,0.8-9-1.6
			c-0.9-0.8-1.2-1.6-0.6-2.5c0.6-1,1.4-0.6,2.5-0.5c2.8,0.4,4.1,3.7,7.1,3.3c1.6-0.2,3.6-0.2,3.7-2.4c0.1-1.9-1.8-2.2-3.2-2.6
			c-3.1-0.8-6.4-1.1-10-3.2c4.5-2.7,9-2.2,13.1-2.9c0.9-0.2,2.1,0.1,3.3-0.3c5.4-1.5,10.8-2.9,16.3-4C392.4,30,393.8,31.1,395,31.6z
			"/>
		<path class="st28" d="M343,70.6c0.1,5.2-3,8.5-7,11.8c-0.6-3.1,2.6-4.4,1.7-7c-1.4-0.6-3,2.4-4.2,0.3c-1.1-1.9,1.7-2.7,2-4
			c0.9-3.8,2.5-7,4.6-10.2c4.9,2.4,8,4.8,0.6,8.2c-0.7,0.3-1.5,1.7-1.1,3.3C340.8,72.1,341.9,71.4,343,70.6z"/>
		<path class="st82" d="M335,58.6c-1.2-6.2-4.6-1.1-7.1-1.4c0.9-4.5,5-6,8-8.5c0.9-0.8,2.1-0.8,3.2,0c1.1,0.9,1,2,0.7,3.1
			c-0.5,2.1-2.7,3.4-2.8,5.7C336.7,58.5,336.1,59.1,335,58.6z"/>
		<path class="st28" d="M335,58.6c0.7-0.3,1.3-0.7,2-1c0.7,0,1.3,0,2,0c-0.4,0.9-0.8,1.8-1.3,2.6c-1.1,1.6-0.5,5.1-3.1,4.7
			c-2.1-0.3-1.9-3.4-2.6-5.3C333.1,59.5,334.3,59.7,335,58.6z"/>
		<path class="st28" d="M349,70.6c-0.2,0.9,0.2,2.7-0.9,2.4c-1.5-0.3-3.7-0.8-3.1-3.4C346.8,68.1,347.9,69.5,349,70.6z"/>
		<path class="st83" d="M338,29.6c0.7-1.1,1.6-1.8,2.9-2.1c1.8-0.1,3.9-1.6,5.1,1.1C343.3,28.4,340.8,30.7,338,29.6z"/>
		<path class="st11" d="M373,113.5c-1.2-1.1-3.9-0.4-4-3c0.7,0,1.3,0,2,0c0.7,0.3,1.5,0.6,2.2,0.9c0.7,0.3,2.2-0.5,1.8,1.2
			C375,113.1,373.7,113.2,373,113.5z"/>
		<path class="st84" d="M346,28.5c-1.3-2-3.5-0.4-5.1-1.1c3.3-1.5,6.7-0.7,10.1-0.9C349.7,28.1,348,28.7,346,28.5z"/>
		<path class="st85" d="M276,147.5c1.6,1.8,5.9,3.2,0,5.7c-1.8,0.8-2,5.4-3,8.3c-0.9,0.1-1.6,0.4-1.9,1.3c-0.7,2.3-3.3,2.2-4.3,1.7
			c-2.6-1.2,0.7-1.8,0.9-3c0.9-5,1.2-5,4.9-3.9c1.4-5.9-2.7-8.7-6.9-11.3c-2.2-1.3-2.3-4.2-1.7-4.9c2.6-3.6,2.1-8.5,5.4-11.8
			c3.2-3.1,5.8-6.8,9-9.9c3.4-3.2,6.5-6.1,3.1-11.2c-1.5-2.2,0.1-4.9,1.5-5.8c3.6-2.4,4.5-7.7,9.5-8.5c1.4-0.2,1-1.8,0.6-2.3
			c-1.3-2.4,1.2-3.8,1.3-5.8c0-0.7,2-1.7,2.4-1.2c3.2,5,4.9-0.5,8.2-1.1c-2.9,6.3-4,12.6-6.1,18.6c-0.8,5.5-0.4,11.6-7,14.3
			c-1.7,0.2-2.9-3.1-4.7-0.8c-1.5,1.9-3.2,4-0.7,6.4c0.4,0.4,0.8,1.6,0.5,1.8c-2.8,1.7-3.4,4.9-5.3,7.3c-0.8,1-2.4,1.7-2.4,2.9
			C279.6,139.2,276.1,142.9,276,147.5z"/>
		<path class="st86" d="M259.1,200.5c0-1.3,0-2.6-0.1-3.9c-1.6-3.7-2.7-7.4,0.4-11.4c-2.7-0.4-2.8,2.2-4.3,2.4
			c-0.3-4.7-0.9-9.5,4.4-12.8c0.5,2-2.2,3.9,0,5.1c1.8,1,3.7-0.1,5.3-1c0.7,0.4,0.4,0.8,0.2,1.2c-0.6,1.2-2.5,2.7-0.8,3.8
			c2.1,1.4,2.1-1.3,2.8-2.3c0.9-1.4,2.1-2.2,3.7-1.7c1.9,0.6,0.5,1.8,0.3,2.8c-2.3,6.2-5.8,11.8-7.3,18.4
			C262.7,205.7,260.7,201.3,259.1,200.5z"/>
		<path class="st87" d="M292,116.4c5-3.3,4.6-9.3,7.1-13.9c0.8,0.1,2.5-1.3,2.1-0.2c-1.3,3.4,1.9,2.7,2.6,2.6
			c1.8-0.1,2.4-1.7,1.9-3.3c-1-2.5,0.2-3.7,2.6-5.3c-0.8,2.9-0.2,4.8,2.8,5c-2.5,3.9-4.5,8-8.7,10.8c-2.7,1.9,1.9,2.6,2.6,4.2
			c0.3,0.8-0.2,1.6-0.7,1.3c-3.2-1.3-5.2,0.6-7.2,2.6c-0.3,0.7-0.6,1.3-1,2c-0.4,0.3-0.8,0.3-1.2,0.1c-1.7-1.4-2.9,3.4-4.5,0.4
			C289,120.5,290.2,118.3,292,116.4z"/>
		<path class="st88" d="M252.1,126.5c-0.3,0.3-0.7,0.7-1,1c-3.7-2.7-5.2-0.4-5.2,2.8c-0.1,3.1-1.2,5.3-3.1,7.3
			c-5.2-3.3-0.7-6.5,0.2-9.5c1.5-5.3,7.5-7.7,8.6-13.8c0.4,3.3,1.1,4.4,3.6,2.3C254.6,120,249.7,122.2,252.1,126.5z"/>
		<path class="st86" d="M272.1,198.5c1.2,2.8,4,2.2,6.5,2.7c-2.8,3.3-7.7,1.2-10,4.9c-0.2,0.2-2.7-2-2.4-4.1
			c0.5-3.6,2.1-6.4,5.9-7.4C272.1,195.8,272.1,197.1,272.1,198.5z"/>
		<path class="st86" d="M272.1,192.5c-1.8-0.3-3.7-0.9-2.2-3.1c1.3-1.9,0.9-4.2,2.2-5.9c5.1,0.2,3,3.6,2.4,6
			C274.2,190.6,272.9,191.5,272.1,192.5z"/>
		<path class="st89" d="M281.2,182.8c-2.9,1.1-5,0.8-6.7-1.1c-0.6-0.7,0.4-2.1,0.6-2.1C277.1,180.3,279.4,180.7,281.2,182.8z"/>
		<path class="st90" d="M526.9,26.6c0,0.3,0,0.7,0,1c-2.1,1.9-4.8,2.1-7.4,2.7c-5.2-0.2-10.3-0.6-15.5,0.3c-0.6,0.1-1.1,0-1.7,0
			c-8-0.8-16-0.8-24,0c-1.2,0.2-2.3,0.2-3.4,0c-9.6-0.8-19.2-1.4-28.8-1.2c-5,0.1-9.9,0.4-14.9,0.7c-3.1,0.2-6.3-0.2-9.2,1.4
			c-1.5,0.8-2.9,0.6-4-0.9c0.5-2.4-0.8-4.3-2.1-6.1c1.7-3,1.1-6.4,1.1-9.6c-0.1-7.3-0.1-7.3,7-7.1c0.5,0.6,1.3,1.8,1.3,1.8
			c-4.4,3.3-1.4,8.1-2.5,12.1c-0.6,2.2,1.8,1.9,3.1,2.2c1.6,0.4,2.1-0.7,1.7-2.1c-0.6-1.9-0.7-4,1.5-4.4c2.5-0.5,2.9,1.7,3.2,3.9
			c0.3,2,2,3.1,4.1,2.5c7.1-2.1,14,0.8,21,0.9c4,0.1,8.2-1.4,12,1.3c0.3,0.2,1.6-1,2.3-1.6c4.3-3.8,7.6-3.7,11.4,0.7
			c1.2,1.4,1.9,0.8,2.9,0.4c2.7-1.2,5.4-2.4,8.1-3.6c-1.3-1.4-4.5,0.9-5-2.4c1.6-2.2,4.3,0.7,6-1.2c0-0.3,0-0.6-0.1-0.9l0,0
			c1.3-0.8,2.9-0.7,3.7,0.2c4.3,4.8,10,3.5,15.3,3.9C518,24,522.7,24.8,526.9,26.6z"/>
		<path class="st75" d="M495,18.5c-1.4,3.3-4.1,0.5-6,1.2c-2.6,0.2-4.9-0.9-7.2-2c-4.6,0.7-9.2,0.7-13.8,0c-5.8,0-11.6,0-17.4-0.1
			c-1.5,0-3.7,0.4-3.5-2.2c0.2-2.2,2.1-1.8,3.4-1.8c9.1,0.3,18.2-0.5,27.2-1c2.1-0.1,4.2-0.3,5.3,2.5c0.8,2.1,3.2,2,5.1,2.4
			C490.4,18,492.7,18.2,495,18.5z"/>
		<path class="st41" d="M526.9,26.6c-4.9-0.1-9.9-0.1-13-4.9c1.8-2,4.5-0.4,6.5-1.6c0.2-0.1,0.9,0.2,0.9,0.2c-1.3,5.6,4,2.7,5.7,4.4
			C527,25.3,528,26,526.9,26.6z"/>
		<path class="st15" d="M467.9,18.6c-6.9,2.3-13.9,0.4-20.9,0C454,18.6,461,18.6,467.9,18.6L467.9,18.6z"/>
		<path class="st91" d="M468,17.7c4.6,0,9.2,0,13.8,0c-4.5,1.9-9.3,0.5-13.9,0.9l0,0C468,18.3,468,18,468,17.7z"/>
		<path class="st75" d="M494.9,17.6c-3.4-2.2-1.9-4.3,0.5-7.7C495.2,13.3,495.1,15.4,494.9,17.6L494.9,17.6z"/>
		<path class="st88" d="M242.2,143.6c0,0.3,0,0.5,0,0.8c-1.5,3.3-4.6,6-4.2,10.2c0.1,1.5-0.7,2.8-2,3.2c-2.1,0.6-1-1.4-1.4-2.2
			c-0.6-1.2-1.5-0.6-1.9,0.1c-0.6,1.1-1,2.3-2.1,3.2c0.6-4.9,1.4-9.7,5.3-13.4C237.8,143.7,238.5,138.6,242.2,143.6z"/>
		<path class="st92" d="M231.1,173.5c-1.4,1.3-1.1,4.2-4,4c-2.3-2.5-2.7,1.6-5.3,1c3.2-3.8,3.1-8.7,6.2-12.5
			c1.8-2.1,2.8-0.1,4.2,0.4C234,169.1,232.1,171.2,231.1,173.5z"/>
		<path class="st93" d="M231.1,173.5c0.3-2.3,0.7-4.7,1-7l0,0c1.7-1.3,1.7-3.5,3-5c0.7,0,1.4,0,2.1,0c1.1,0.2,2.4,0.8,1.4,1.8
			C235.7,166.4,235.3,171.4,231.1,173.5z"/>
		<path class="st92" d="M235.1,161.5c-0.1,2.2-0.1,4.5-3,5C232.8,164.7,232.3,162.1,235.1,161.5z"/>
		<path class="st94" d="M504,29.6c5.3-1.6,10.6-1.4,16-0.1c4.4,0.6,8.5-2.8,13-0.9c3.7-0.5,7.3,1.1,11,0c3.1,0.2,6.1-0.7,9.2,0.8
			c3.4,1.7,2.5-3.4,4.3-3.4c2.8-0.1-1.4,4.8,2.8,4.7c6.4-0.1,12.9-0.3,19.2,0.4c5.3,0.6,10.4-0.4,15.6-0.1c9.2,0.4,18.6,0,27.5-1.9
			c2.8-0.6,5.3-0.8,7.8-0.2c2.7,0.6,5.1,0.9,7.8,0c2.2-0.7,4.4-0.3,4.7,2.8c0.3,0.5,0.3,1-0.2,1.4c-0.7,0.5-1.5,0.7-2.3,0.8
			c-5,0.5-9.9-0.3-14.8-0.8c-0.7,0.2-0.5-1.2-1.3-0.7c-3.6,2.2-7.4,2.3-11.5,1.7c-2.1-0.3-4.3-0.2-6.3,0.8c-1.7,0.9-3.5,1-5.3,0.5
			c-5.5-1.5-11.1-1.3-16.6-0.4c-5,1.6-10,1.5-15.1,0.4c-0.8-0.2-1.5-1.1-2.2-1c-10.2,1.9-20.4-1.6-30.7,0.7
			c-6,1.4-12.5-1.3-18.5,1.7c-0.9,0.5-1.9-0.4-2.6-1.1c-2-2.3-4.6-3.1-7.5-2.4C504.4,34.2,503.3,32.9,504,29.6z"/>
		<path class="st95" d="M642.9,32.6c0-0.3,0-0.7,0-1c3,0,6,0,9,0c0,0.3,0.1,0.6,0.1,0.9c0,0.7-0.1,1.4-0.1,2.1
			C648.5,35.4,645.3,35.8,642.9,32.6z"/>
		<path class="st96" d="M418,30.5c5.9-2.9,12.3-1.8,18.5-2.2c7-0.4,14-1.4,21.1-0.2c3.4,0.6,7,0.5,10.4,0.1c2.6-0.3,4.8-0.1,7,1.3
			c-1,3.5-4,3.4-6.7,3.6c-10.2,0.4-20.4,1-30.7,0.9c-4.1,0-6.6,3.4-9.6,5.9c1.3,0.5,3.2,0.4,4.1,2c0.1,0.6-0.2,1-0.7,1.3
			c-3.1,1-6.1,1.2-9.1-0.5c-1.7-3.3-3.6,0-5.3-0.1c0-3,0-5.9,0-9.4c-2,1.8-0.1,4.3-2.1,5.4c-1.8-0.9-3.7-1.2-5.7-0.6
			c-1.7,0.5-3.5,0.9-5.2-0.4c-1.4,0-2.8-0.1-4.2-0.1c1.3-3,2.4-5.9,0.4-9.3c-1.4-2.4,1.1-3.3,3.1-3.6c3.8-0.4,7.4,0.9,11.8,1.4
			c-2.1,1.9-4.1-0.4-5.5,1.1C411.3,31.1,415,30.1,418,30.5z"/>
		<path class="st97" d="M388.9,8.7c7,0,14-0.1,21,0c1.4,0,3.1-0.4,4.1,1.1c-1.4,2.9-1.3,7-6.1,6.8c-1.3-1.1-0.3-2.6-0.3-4.2
			c-1.4,1.8-1.9,3.4-0.7,5.2c-1.8,3-3.6,5.4-8.1,4.7c-2.3-0.4-5-0.7-7.5,0.3s-3.1-1.6-4.4-3c1.7-2.4,4.9-1.3,6.9-2.9
			c1.3-0.3,2.5,0.2,3.7,0.4c2-1.6,2.6-3.1-0.2-4.5c-2,0.2-2.3,2.2-3.5,3.2c-3-0.4-6.1,0.2-8.9-1.2C384.8,12.8,386,10.9,388.9,8.7z"
			/>
		<path class="st98" d="M375,8.6c1.1,0.1,2.3-0.4,3.3,0.5c-0.7,1.5-1.3,3-2,4.5c0,0.1,0.1,0.3,0.2,0.4c1.5,0.9,1.2-1.1,2.3-1.5
			c0.5,3.6-1.6,6.8-0.8,10.1c-5.5-0.3-6.6-1.8-5.1-7C373.6,13.3,374.3,10.9,375,8.6z"/>
		<path class="st99" d="M394.1,17.6c-1.8,2.5-4.8,1.2-7.1,2c-1.3-1.4-7-1.1-1.9-4.9c3,0,6.1-1.2,8.8,1
			C394.5,16.3,394.6,16.9,394.1,17.6z"/>
		<path class="st100" d="M407,17.6c-4.3-0.4-1.8-3.3-1.3-4.7c0.7-1.9,2.6-2.8,5.1-1.7c-0.9,1.9-3.5,2.9-2.8,5.4
			C407.6,16.9,407.3,17.2,407,17.6z"/>
		<path class="st41" d="M532.9,28.6c-2.6,0.1-5.1-0.2-7.5,1.5c-1.7,1.2-3.8,0.5-5.5-0.6c2.1-1.5,4.5-2,7-1.9
			C528.9,27.9,531.2,26.8,532.9,28.6z"/>
		<path class="st101" d="M422,41.6c3.2,1.8,6.7,0.7,10,1.1c4.5,2.7,4.6,6.2,0.2,8.9c-1.4,0.8-3.2,0.8-4.2,2.5
			c-3.3,5.2-2,9.2,3.9,8.5c8.4-0.9,16.6,1.9,25,0.4c3.6-0.6,7.2-0.7,10.8-1.6c1.8-0.4,3.7-0.2,4.3-2.5c0.1-0.5,0.7-0.9,1.1-0.9
			c5.7,0.8,11-2.1,16.6-1.7c7.4,0.6,14.8,0.6,22.1-1.2c4.3-1.1,5.7,0.1,5.9,5c-1.2,2.5-3.6,2.7-5.9,2.7c-6.2,0-11.9,2.4-17.8,3.7
			c-11.3,0.2-22.6,0.5-33.8,0.4c-2.7,0-4.6,2.1-7.1,1.6c-4.2-1.7-8.7,0-13-1.1c-0.7,0-1.3,0-2,0c-4-1.4-8,0.9-12.2-0.3
			c-5.9-1.7-7-2.5-6.9-8.8c0-1.5,0.3-3-0.4-4.4c-0.5-4,1.9-7.8,1.3-11.9C419.7,41.2,421,40.8,422,41.6z"/>
		<path class="st102" d="M625.9,57.6c2.4,3.6,6.1,0.6,9.3,1.6c4.5,1.3,10.3,2.5,14.8-1.6c0.1,2.5-0.2,5-1.4,7.3
			c-1.4,2.9-3.7,3.4-5.9,0.9c-0.7-0.8-0.9-0.4-1.5-0.1c-6.5,3.2-13.4,2.3-20.1,1.4c-4.9-0.7-9.7,0.3-14.6,0.2
			c-3.6-0.1-7.3,0.8-10.6-1.7c-3.4,2.3-4.1,2-4.4-1.8c-0.4-4.3,1-6.5,5.7-5.1c0.7,0.2,1.6-0.3,2.4-0.6c5.5-2.6,11-3.6,16.3,0.5
			c2,2,4.8,0.7,7.2,2.1C625,61.8,624.3,58.2,625.9,57.6z"/>
		<path class="st23" d="M494,66.6c0.6-1,0.9-2.7,2-2.6c5.9,0.7,10.9-3.8,16.9-2.5c1.7,0.4,3.3-0.1,4.1-2c0.6-0.6,1.2-1,2.1-0.9
			c2.4,2,6.7-2.1,8.4,2.5c0.1,0.1,0.7,0.2,0.9,0.1c7.3-3.5,15-1.4,22.6-2c1.1-0.1,2.2-0.8,3.1-1.4c5.4-3.6,7.6-2.9,9.9,3.7
			c0.3,0.4,0.3,0.8,0,1.2c-6.1-2.1-10.9,1.5-16,3.8c-9.2-0.1-18.1,3.4-27.3,1.9c-5.8-0.9-11.8,1-17.6-1.4
			C500.3,65.9,496.9,68.4,494,66.6z"/>
		<path class="st103" d="M563.9,62.6c0-0.3,0-0.7,0-1.1c2-1.6,4-3.3,6-4.9c0.4-0.3,0.9-0.3,1.4-0.1c4.1,3.2,9,1,13.4,1.9
			c3.6,0.7,6.1,2.5,8.2,5.2c-0.9,0.7-1.3,1.6-0.5,2.4c1.2,1.2,2.4-0.1,3.5-0.4c-0.4,2.4-2.2,2-3.8,2c-4.7,0-9.5,0-14.2,0
			c-3.9-0.9-7.9-0.4-11.8-0.5C562.6,66.8,562.1,65.7,563.9,62.6z"/>
		<path class="st104" d="M563.9,62.6c-1.7,3.4,0.8,3.5,3,3.8c3.7,0.5,7.5-0.7,11,1.2c-9.4,0.6-18.9-0.9-28.3-0.1
			c-0.5,0-1.1-0.6-1.7-0.9C551.9,60.9,556.2,59.8,563.9,62.6z"/>
		<path class="st35" d="M419,53.5c1.5,0.2,1.6,0.9,1.4,2.3c-1.1,8.7,0.7,10.5,9.5,10.7c2.7,0.1,5.6-1,8.1,0.9
			c-1.2,1.3-6.7-2.1-3.4,3.9c-3.9-1.4-7.3-2.6-10.7-3.8c-5.9,1.5-5.5,1.1-7-5.1c-0.6-2.4-2.6-3.7,1-4.9
			C419.2,56.5,417.5,54.6,419,53.5z"/>
		<path class="st105" d="M440,67.5c4.4-0.8,9-3,13,1.1C448.5,69.6,444,71.4,440,67.5z"/>
		<path class="st106" d="M545,108.5c-0.1-2.2,0.6-4.4,1.8-6.1c1.1-1.5,2.9-3.6,4.1,0.2c0.2,0.6,0.3,1.7,1,1.5
			c4.4-1.8,8.6,0.8,12.7,0.5c2.3-0.2,2.7,0,3.4,1.7c1,2.5,2,2.7,4.4,0.8c2.5-2,5.7-3.3,9.1-1.5c1.2,0.6,1.8,0.1,2.6-0.6
			c0.6-0.5,1.8-1.4,2-1.2c4.5,4.1,8.2-1.8,12.5-1c0.9,0.2,2-0.1,2.8,0.7c2.9,2.7,6.1,3.6,9.8,1.6c1.2-0.6,2.3-0.5,2.8,1
			c0.6,1.7,1.9,1.7,3.2,1.3c1.5-0.5,2-1.9,1.7-3.2c-0.8-4-0.2-8.3-2.9-11.8c4.5-0.8,6.4,1.3,4.8,5.9c-1.2,3.6-1.1,4.3,3.2,3.7
			c4.3-0.6,9-0.6,12.7,2.9c1.8,1.6,4.1,2.6,6.2,3.9c-1.1,2.4-3.2,2-5.2,2c-29.2,0-58.4,0-87.5,0.1C548,110.6,546.2,110.3,545,108.5z
			"/>
		<path class="st107" d="M448.9,110.6c1.5-0.4,3.3,0.6,4.5-0.9c-0.3-2.8-5.1,1-4.4-3.1c1.5-1.6,3.6-1.4,5.5-1.8c0.5,0,1,0.1,1.4,0.2
			c4.8,1.8,9.5,0.4,14.2-0.6c0.7-0.1,1.4-0.1,2.2,0c3.2,1.4,6.5,0.2,9.7,0.1c2.5,0.8,5,1.4,7.4,2.3c3.5,1.2,6,0.1,7.6-3.1
			c1.2-1.1,2.7-1,4.2-0.9c1.4,0.5,2.6,1.4,4,2c3.3,1.4,3.9,3.4,0.8,5.8c-5.2,0.3-10.5-0.6-15.6,1.7c-1.8,0.8-3.8-0.3-5.4-1.6
			c1.1-1.3,2.7-0.1,3.7-0.9c-1.1,0.4-2.7-0.6-3.7,0.9c-0.7,0-1.3,0.1-2,0.1c-2.7-1.7-5.6-1.4-8.5-1.3c-3.7,0.1,1,1.8-0.5,2.1
			C465.6,111.8,457.2,112.2,448.9,110.6z"/>
		<path class="st107" d="M536,93.5c2.6-0.2,5.1-0.2,6,3c0,1-0.1,2-0.1,3c-0.5,11.1-0.5,11.1-11.7,11c-7.4,0-14.9,0-22.3,0
			c0.2-2.9,2.5-1.7,3.8-2.2c-1.4-0.4-3.8-0.1-3.7-2.4c0.1-1.6,2.3-1.5,3.7-1.9c1.3-0.3,2.6-0.5,3.9-0.4c8.1,1.2,16.1,0.5,24.2-0.2
			c-0.2-7.9-0.2-7.9-9.1-7.8C532.6,94.2,534.3,93.9,536,93.5z"/>
		<path class="st48" d="M539.9,103.5c-5.1,2.3-10.5,2.3-15.9,2c-5.1-0.2-10.2-1.5-15.2,0.4c1.4,2.7,5,0.4,6.5,3.1
			c-2.5,1-5.5-1.1-7.4,1.4c-0.7,0-1.3,0-2,0c3-4.9-3.1-4.3-4-6.8c5.8-2.6,12.1-3,18.3-3.9c3.4,2.2,7.1,0.6,10.6,0.4
			c2.9-0.2,5.1,0.4,7.1,2.4C538.6,102.8,539.3,103.2,539.9,103.5z"/>
		<path class="st108" d="M474,111.4c-0.9-1.9-4.8,0.3-4.3-2.4c0.4-2.2,3.4-0.6,5.1-0.8c2.8-0.3,6.6-2.1,8.2,2.3
			C480.1,112.1,476.9,110.3,474,111.4z"/>
		<path class="st109" d="M434,110.6c-0.4-0.8-1.2-1.8-1.1-2.5c0.2-0.9,1.3-0.3,2.1-0.1c1.8,0.3,3.6,0.2,5.3,0.7
			c2,0.6-0.4,1.2-0.2,1.8C438,110.5,436,110.5,434,110.6z"/>
		<path class="st39" d="M519,58.7c-0.5,0.7-1.2,0.9-2.1,0.9c0-3.7-1.7-4.3-5.1-3.3c-7.4,2.1-15.1,2.5-22.7,1.1
			c-3.6-0.7-6.3,2.6-9.9,1.8c-0.6-0.1-1.3,0.6-1.9,0.4c-2.1-0.4-3.2-0.7-5,1.8c-2,2.9-7,2.2-10.4,2.4c-4.8,0.2-9.5,2.6-14.4,0.6
			c-6.6-2.8-13.8,2.4-20.5-1.4c-2-1.1-2.9-1.3-2-3.6c0.9-2.1,1.5-4.4,2-6.6c0.3-1.1,0.6-1.9,1.9-1.5c3.3,0.8,4.5-1.8,5.6-3.9
			c1.4-2.7-1.8-2.5-2.8-3.7c-0.1-0.1,0.2-0.6,0.3-0.9l0,0c-0.6-3.5,0.8-5.2,4.4-5.2c4,0,7.9-1.1,11.7-2.2c5.3-1.6,10.8,0.1,16.2-1
			c1.8-0.4,3.9,0.9,3.9,3.5c-0.7,1.2-1.8,1.5-3,1.3c-3.3-0.5-5.4,1-6.8,3.8c-0.8,1.6-1.8,2.5-3.9,1c-4.4-3.2-8.4-2.2-12.6,3
			c10.2-1.6,18.6,3.4,27.4,4.9c0.8,0.6,0.6-0.5,0.3,0.1c-0.1,0.3-0.2,0.3-0.5,0.1c-2.6-1.8-1-2.9,0.7-4c0.7-0.3,1.4-0.5,2.1-0.7
			c2.8-0.9,5.6,0.2,8.4-0.2c15.3,0.7,30.5,0.3,45.8,0.1c7.7-0.1,15.5,0.4,23.2-0.6c2.3-0.3,5.2-0.6,5.6,3.1
			c-3.4-0.2-6.2,3.1-9.9,1.4c-0.9-0.4-1.8,0.7-1.9,1.8c-0.1,1.3,0.7,1.6,1.8,1.8c1.7,0.3,3.6-0.5,6.4,1.3c-4.7-0.3-8,0.7-11.6,1
			c-5.9,0.4-11.5-0.8-17.2-1.2C520.8,55.5,519.7,57,519,58.7z"/>
		<path class="st110" d="M554.9,49.5c-3-4.5-7.4-1.2-11-1.5c-7.2-0.6-14.4,0.4-21.7,0.5c-11.5,0.1-23,0-34.5,0.1
			c-2.6,0-5.2-1-7.8-0.1c-4.5-2.2-3.9-6.6-4.4-10.5c1.8-2.2,4.6-1.7,6.9-2.1c5.8-1.1,11.8-0.2,17.7,0.1c1.6,3,0.8,4.7-2.7,5.1
			c-2.1,0.2-4,1.8-5.4,1.1c3.2-0.4,7.4,0.3,11.4,0c8-0.6,16.1-0.8,24,0.5c5.4,0.9,11,0.1,16.2,1.8c5.1,1.7,8.8-3.1,13.7-2.4
			c3.2,0.4,6.8,1.8,9.9-0.6c1.3,2.3,2.7,2.8,5.8,2.6c6.1-0.4,12.2-2.1,18.4-1.1c2.8,0.4,6-1.7,8.3-0.1c3.6,2.6,7.1,1.8,10.8,1.3
			c2,0.8,4.6,0.1,5.9,2.5c0.2,0.7,0.1,1.4-0.5,1.9c-7.4-0.4-15,2.2-22.1-1.5c-1.1-0.6-2,0-2.4,1.1c-0.3,1.1,0.7,1.3,1.5,1.6
			c0.7,0.3,1.4,0.7,1.9,2.1c-5.7-0.8-11.4-1.4-17-2.5c-2.5-0.5-4.5-1.2-6.6,1.4c-1.4,1.8-3.9,0.8-6,0.4
			C561.8,50.5,558.5,49.4,554.9,49.5z"/>
		<path class="st111" d="M570.9,56.6h-0.5h-0.5c-0.5-0.3-1.5-0.5-1.6-0.9c-0.2-1.3,0.6-1.6,1.8-1.5c3,0.2,6,0.6,8.9,0.3
			c13.4-1.3,26.8,0.9,40.1-0.6c3.1-0.3,1.8,3.6,4.7,3.3c-2.8,3-6.1-3.2-8.1,1.3c-3.8,0.1-7.1-2.5-11.2-1.1c-1.7,0.6-3.2,1.3-4.8,2.1
			c-7.9-1.9-16.1-0.7-24.1-1.8C574.1,57.5,572.2,58.3,570.9,56.6z"/>
		<path class="st110" d="M624.9,48.5c0,0.3,0,0.7,0,1c-0.3,0-0.7,0-1,0c-2.2-1.4-5.6,0.7-7.3-2.4c0-1.5,0.9-2.3,2.3-2.6
			C621.6,44.9,622.9,47.2,624.9,48.5z"/>
		<path class="st112" d="M650.6,55.5c-3.3-0.2-6.7,2.7-9.9-0.3c0.5-0.9,1.5-0.6,2.2-0.8C645.4,55.1,648.3,53.6,650.6,55.5z"/>
		<path class="st53" d="M616.9,46.6c1.6,2.7,5,1.1,7,3c-2.7-0.4-5.5,1-8-1c0-0.7,0-1.3,0-2C616.2,46.3,616.6,46.3,616.9,46.6z"/>
		<path class="st5" d="M694.8,57.5c3.9-2.2,8.1-1.2,12.2-1.1c5.9,0.2,11.8,0.1,17.8,0.1c-1.5,4-5.3,2.1-7.6,2.2
			c-6.5,0.3-13.1-0.6-19.6,0.4C696.1,59.4,695.8,58,694.8,57.5z"/>
		<path class="st113" d="M485.9,99.5c-4.6-1.7-3.2-5.9-3-8.9c0.2-2.8,3.7-2,5.8-2c3.1,0.1,6.5-2.5,9.2,1c-0.1,2.2-1.6,1.5-2.8,1.4
			c-2.7-0.1-5.4-0.4-8.1-0.7c-0.7,0.2,0.2,0.8,0,0.2c-0.1-0.2,0-0.4,0.4-0.3c1.8,0.5,3.9,0.3,5.6,1.5c1.6,2.1,0,5.8,3.7,6.8
			c0.7,0.2,0.8,1,0.1,1.5c-1.1,0.8-1.9,0.4-2.9-0.6c-0.7-0.6-2.2-5.5-2.9,0.1C489.3,100.8,487.6,100.9,485.9,99.5z"/>
		<path class="st107" d="M538,102.5c-4.1-1.7-8.2-0.9-12.4-0.5c-1.4,0.2-4,1.6-4.6-1.5c-2.5-1.6-5.6,1.4-8-0.9
			c2.2-2.6,5.3-1.9,8.1-2.2c1.7-0.2,4.2,1.2,4.9-1.9c3.5,1.8,7.1,3,11.5,1.3C537.4,98.9,537.2,100.8,538,102.5z"/>
		<path class="st114" d="M470.1,88.4c3.6,0,7.2,0,10.9,0.1c0,0.7,0,1.4,0,2.1c-2.9,2.8,1.4,4.6,1,7c0,0.3,0,0.7,0,1
			c-3.9,3.1-4.4,2.8-7.3-3.3c-0.4-2-1.7-2.3-3.6-2.1c-1.6,0.2-2.8-1.1-3.2-2.6C467.6,89,468.9,88.6,470.1,88.4z"/>
		<path class="st115" d="M485.9,99.5c1.7,0,3.4,0,5,0c2,0.5,1.7,1.5,0.1,1.8c-2.2,0.4-4.5,0.5-6.7,0.2c-2.9-0.4-2.8,1-2.4,3
			c-3.1,2.8-6.5,2.1-9.9,0.9c-0.2-1.3,0.8-1.5,1.7-1.9c1.3-0.4,3.9,0.6,2.8-2.5c0.2-0.5,0.5-0.8,1-1c1.5,0.1,3.1-0.4,4.5,0.4
			C483.3,100.1,484.6,99.8,485.9,99.5z"/>
		<path class="st116" d="M512.9,99.6c2.9,0,5.7-0.1,8.6-0.1c0.1,0,0.2,0.2,0.3,0.3c-0.3,0.2-0.6,0.5-0.9,0.7c-6.3,1-12.7,2.1-19,3.1
			c-1.6,0-3.3,0-4.9,0c-0.6-0.1-1.3-0.2-3.2-0.5C500.7,100.7,507.2,102,512.9,99.6z"/>
		<path class="st117" d="M493,91.7c-2.1-0.3-4.4,0.4-6.3-1.7c3.8-1.4,7.7,2.1,11.2-0.3c2.8-0.2,3.5,3.4,6.1,3.7
			C500.4,92.7,496.7,92.2,493,91.7z"/>
		<path class="st113" d="M482,100.4c-1.7,0.1-3.3,0.1-5,0.2c-3.7-0.9-3.9-1.6-2-6.1c1.1,0.1,1.9,0.6,1.9,1.8c0.1,4.4,2.5,3.3,5,2.2
			C481.9,99.2,482,99.8,482,100.4z"/>
		<path class="st113" d="M481.9,97.5c-0.5-1.9-2.8-2.6-3.2-4.9c-0.3-2.3,0.8-2,2.2-2.1C481.2,92.9,481.6,95.2,481.9,97.5z"/>
		<path class="st116" d="M507.7,98c-3.1,2.1-5,1.4-7.3,1.3C502.2,95.7,504.4,97.8,507.7,98z"/>
		<path class="st118" d="M652,38.5c-0.8,2.8,0.8,5.4,1,8.1c-0.1,0.3-0.1,0.6-0.2,0.9c-5.6-7.8-13.1-1.1-19.5-2.5
			c-3.5-0.7-7.4,0.5-10.9-1.6c-1.4-0.8-3.6-1-2.8-3c0.6-1.6,2.4-1.5,4.2-1.5c3.8,0,7.7-0.4,11.2-2.2c5.8-1,11.5-0.3,16.9,2L652,38.5
			z"/>
		<path class="st114" d="M663,48.3c-2.1,0-4.1,0-6.5,0C658.5,45.5,661,48.2,663,48.3z"/>
		<path class="st119" d="M455,105.5c-1.9,1.1-4,1-6,1.1c-0.7-1.2-1.9-1-3-1.1c0-0.2-0.2-0.4-0.1-0.5c1.2-1.6,2.2-4.1,0.5-5
			c-1.1-0.5-4.6-0.3-5.3,2.6c-0.2,1.7-1.1,2.7-2.9,2.7c-3,0-1.8-3.8-4.4-4.7c-1-0.4,1.4-0.9,2.2-1.4c1.1-0.8,0.3-1.1-0.3-1.7
			c-3-3-4.4-5.8,1.9-7c-1.3-1.6-3.3-0.5-4.1-2.2c2.9-1.9,5.6,0.6,8.3,0.5c5.8-0.3,11.9,1.5,17.3-2.3c2.5,1.7,5.5-0.8,8,1.1
			c0,3.8-2.8,3.8-5.5,4.3c-5.5,0.9-5.7,1-4.7,6.7C457.3,101.3,454.6,103,455,105.5z"/>
		<path class="st120" d="M441,102.7c0.6-1.1-1.3-4.1,0.4-3.2c3.2,1.8,5-4.3,6.8-0.8c0.6,1.1,3.3,6.2-2.3,6.8
			c-2.3,1.1-2.8-0.8-2.7-2.1C443.4,99.7,441.7,103.1,441,102.7z"/>
		<path class="st115" d="M610.9,44.6c-3.7,0.8-7.6,4.4-11-0.7c-0.3-0.4-1.6-0.5-2.4-0.3c-6,1.3-12.1-0.2-18.2,1.4
			c-2.8,0.7-5.8-0.3-9,1.1c-2.4,1.1-3.7-1.9-3.4-4.6c-0.3-4.3,2.1-5.5,5.8-5.1c2.8,0.3,5.6,0.5,8.4,0c1-0.2,2.5-0.3,2.8,0.4
			c2.9,5.1,6.5,0.9,9.7,0.8c3.5-0.3,7,2.5,10.6,0c2.2-0.2,4.1,0.2,5.6,1.9c0.5,2.1,5.4-1.6,4,3C613.2,43.7,612.2,44.4,610.9,44.6z"
			/>
		<path class="st121" d="M603.9,38.5c-1.1,1-1.2,4-4,1.4c-1.3-1.2-3.9-1-6-1.4c-2.5-2.6-7.1-1.4-9-4.9c5.6-0.4,11.3-1.5,16.8,0.7
			c3.5,1.4,6.1-2.3,9.9-1.6c4.1,0.7,8.8,1.2,12.7-1.4c0.2,0.4,0.4,0.8,0.6,1.2c5.3,0.1,10.7,1.4,16,0c0.7,0,1.3,0,2,0
			c3,0.7,6,1.4,8.9,2c0,0.3,0,0.7,0,1c-4.3,1.9-8.8,0.4-13.1,0.5c-1.9,0.1-3.9-0.3-5.8,0.4c-4.9-0.6-10-4.2-14.7,0.6
			c-0.3,0.3-1.5-0.4-2.2-0.6C612,38.2,607.6,36,603.9,38.5z"/>
		<path class="st122" d="M632.8,36.6c6.2-2.7,12.6-1.3,18.9-0.9c0,1,0.1,2,0.1,3c-5.7-0.2-11.3-0.8-16.9-2
			C634.2,36.6,633.5,36.6,632.8,36.6z"/>
		<path class="st122" d="M603.9,38.5c3.3-5.1,7.9-1.8,12-2c-1,3-4.5,1-6,3C607.9,39.2,605.9,38.9,603.9,38.5z"/>
		<path class="st122" d="M610.9,44.6c0.6-1.3,1.6-2,3-2c2.2-0.6,4.9-2.5,5,2c-0.7,0.7-1.3,1.3-2,2c-0.3,0-0.7,0-1,0
			C614.8,44.4,611.4,48.2,610.9,44.6z"/>
		<path class="st120" d="M455,105.5c-0.7-1.5-3.3-3.1,0.1-4.6c2.5-1.1-0.1-2.1-0.2-3.1c-0.5-3.8-0.6-6.7,4.7-6.9
			c2.5-0.1,6.2,0.6,7.3-3.3c0.9-1.7,2-0.5,3-0.1c0,0.3,0,0.6,0.1,0.9c-0.9,1.1-2.3,2-0.3,3.5c2.5,1.7,2.9-0.9,4.2-2
			c1.5,1.4,0.7,3.2,1,4.7c0.6,2.1-1.7,5.1,2,6.1c0,0.3-0.1,0.6-0.1,0.9c-1.8,1.4-3,0-4.2-1c-0.1,1.5,4.4,1.4,1.4,3.9
			c-0.8,0.1-1.6,0.2-2,1c-0.7,0-1.4,0-2.1,0.1c-1.2-0.9-2.7-0.5-3.8-0.2c-4.6,1.5-4.6-1-4.3-3.2c0,3.1-2.1,4.6-6,3.6
			C455.6,105.6,455.3,105.6,455,105.5z"/>
		<path class="st58" d="M292,116.4c0.3,2.3-2.3,4.3-0.1,7.5c0.6-2.2,0.3-4.5,3-4.6c0.1,1.1,0.1,2.2,0.2,3.3c0.1,0.7-0.1,1.4-0.4,2
			c-0.9,1.6-2.1,2.9-3.3,4.2c-3.4,3.5-6.7,6.8-3.9,12.3c0.6,1.2,0,2.6-1.3,3.4c-2.8-0.9-5.4-1.6-4,3c-2,2.6-4-2.1-6.1-0.1
			c-0.7-0.4-1.4-0.7-1.1-1.8c0.8-3.9,3.9-7.1,2.8-11.6c-0.2-1,1.8-3.3,3.1-3.5c2.2-0.4,3.2-0.2,1-2.2c-0.7-0.6-1.9-1.2-1-2.3
			c0.6-0.8,1.6-1.6,2.5-1.1c1.1,0.6,1.9,1.3,2.8-0.1c1-1.5-0.8-2-1.2-2.9c-0.8-1.6-3.9-2.9,0.2-4.2c0.3-0.1,0.4-0.5,0.6-0.8
			C288.1,112.3,289.1,112.2,292,116.4z"/>
		<path class="st87" d="M286.1,144.5c0-0.3,0.2-0.7,0.1-1c-3.7-9.2,3-14.2,7.9-20c4.3-1,3,3.7,5,5c0,0.3,0,0.7,0,1
			c-6.1,2.8-5.9,10-10,14.1C288.2,144.5,287.7,146.2,286.1,144.5z"/>
		<path class="st123" d="M293.9,155.1c-0.8-0.3-1.6-0.7-1.4-1.7c0.2-1.1,1.2-0.9,2-0.9c0.7,0,1.3,0.4,1.2,1.1
			C295.5,154.5,294.9,155.2,293.9,155.1z"/>
		<path class="st124" d="M284,209.5c-1.5,2.7-2.4,1.2-3.2-0.5c-0.5-1.1-1.5-2.7,0.3-3.2c2.4-0.7,1.1,1.5,1.5,2.4
			C282.9,208.7,283.6,209.1,284,209.5L284,209.5z"/>
		<path class="st125" d="M402,73.6c0.2,3.1-1.6,3.6-4.1,3c-0.2-4.4-3-9,1.1-13c0.7,0.3,1.3,0.7,2,1C402.5,67.4,403.4,70.4,402,73.6z
			"/>
		<path class="st126" d="M397.1,79.6c2.1,1.5,3.9,2.7,6.6,0.9c2.6-1.8,2.4,1.4,3.4,3.1c-3.4,0-6.8,0-10.1,0
			C397,82.3,397.1,80.9,397.1,79.6z"/>
		<path class="st32" d="M397.9,38.6c1,0.1,2.2,0.2,2.5,1.2c0.5,1.5,0.8,3.1,0.8,4.6c0,0.6-0.9,0.6-1.6,0.4c-1.8-0.6-1.4-2.2-1.7-3.6
			c-0.1-0.6-0.6-1.1-0.9-1.6C397.3,39.3,397.6,38.9,397.9,38.6z"/>
		<path class="st32" d="M400.1,47.5c1.1,2.2,2.3,4.5,0.9,7C398.1,52.5,398,50.2,400.1,47.5z"/>
		<path class="st127" d="M404.1,37.6c2.4-0.4,4.9-0.6,7.2-1.3c2.4-0.8,3.4,0.1,3.7,2.3c0,1,0.1,2.7-0.2,2.8
			c-3.7,1.1-2.6,3.3-0.6,5.3c-2.4,1-2.9-0.8-4.1-1.2C408.9,42.2,405.7,40.5,404.1,37.6z"/>
		<path class="st126" d="M402,73.6c-0.3-3-0.7-6-1-9c0.9-1.1,1.8-2.2,3.2-3.9c0.3,3.7,0.8,6.8,0.7,9.9C404.9,72,405.1,74.6,402,73.6
			z"/>
		<path class="st128" d="M419,53.5c-0.2,1.4,0.5,3-1.1,4c-2.6-4.8-0.9-9.9-0.9-14.9c0.9-1.6,1.4-3.5,4-3.1c1.6,0.3,1.1,1.1,0.9,2
			c-0.5,0.2-1.3,0.4-1.3,0.5C421.6,46.1,420.3,49.8,419,53.5z"/>
		<path class="st71" d="M364,97.5c-1.6-0.4,0.9-4.6-2.8-2.9c-0.2-0.5-0.3-0.9-0.5-1.4c2.8-0.7,4.6-2.7,6.5-4.6
			c0.3,2.2,3.8,1.8,3.6,4.9C365.6,90,365.8,95.2,364,97.5L364,97.5z"/>
		<path class="st70" d="M297.1,120.5c0.6-5.4,4.6-4,7.9-3.9c0.8,0.3,3.3-1,1.6,1.6c-0.8,1.3-2.2,1-4.5,0.7
			C300.4,118.7,299.1,121.1,297.1,120.5z"/>
		<path class="st70" d="M299.1,128.5c-1.3-0.1-3,0.4-2.6-2.1c0.2-1.6-0.6-2.7-2.4-2.9c0.3-0.3,0.7-0.7,1-1c0.3,0,0.7,0,1,0
			C298.6,123.7,302.4,124.4,299.1,128.5z"/>
		<path class="st27" d="M375,88.8c-2.3-1-3-2.4-2.7-4.2c0.1-0.8,0.9-0.7,1.6-0.4C376.1,85.1,374.7,86.9,375,88.8z"/>
		<path class="st101" d="M468,37.6c-1.5-2.4-3.5-2.9-6.3-2.1c-5.3,1.5-11-0.6-16.4,1.5c-1.8,0.7-3.5,1.8-6,1.3
			c-3.1-0.6-6.5,0.1-7.3,4.3c-1.9-1.5-4.3-1.4-6.5-2.1c-0.7-0.2-1.3-0.4-1.1-1.3c0.1-0.4,0.8-1.1,0.9-1c3,2,3.1-1.2,4.6-2.2
			c2.9-1.9,5.9-3.6,9.9-3.6c8.2-0.1,16.4,1.1,24.8-1.1c3.1-0.8,7.2,0.8,10.4-1.8c1,0,2,0,3,0c1.6,1.6-1.8,2.6-0.5,4.1
			c-0.4,1.6-1.7,1.8-2.9,1.8c-1.6,0-2.7,0.7-3.2,2.2C470.1,39,469,39.4,468,37.6z"/>
		<path class="st60" d="M471,37.5c-1.3-2.3-0.5-3.5,2-3.3c1.4,0.1,2.9,0.9,4-0.7c1.9-2.9,5.1-3.1,8-3.1c4.1,0,8.4-0.7,12.3,1
			c2.6,1.1,3.5-2.3,5.7-1.9c0.3,0,0.7,0,1,0c0.9,1.3,0.4,4.1,3.9,2.4c2.4-1.2,6-0.2,8,2.6c-4.2,3.6-9.2,2.7-14,2.3
			c-0.6,0-1.3-0.2-1.9-0.3c-0.2-0.1-0.3-0.2-0.5-0.2c-7.7,1.9-16-1.5-23.6,2.1C472.4,39.3,472.1,39.3,471,37.5z"/>
		<path class="st129" d="M503,29.6c-3.9,6.1-9.6,1.6-14.4,2c-4,0.4-7.8,0.5-11.6,1.9c-3-2.2,2-2.3,1-4C486.3,28,494.6,28,503,29.6z"
			/>
		<path class="st112" d="M500,36.6c0.3-0.3,0.6-0.7,0.9-1c0.3,2.7,1.6,2.1,3.8,2c7.4-0.4,14.7-0.6,22.1-1.4c9.5-1.1,19-0.2,28.5-1.4
			c4.6,4.3,9-1.7,13.6-0.1c5.3-0.1,10.7,0.5,16-1c2.9,1.9,7.7,0.2,9,4.9c-3.2,1.1-6.4,2.3-9.4,3.4c-1.9-2,1.5-2.1,0.5-3.4
			c-1-1.2-2.5-1.1-3.7-0.8c-2.9,0.7-6,0.9-8.7-0.1c-4.4-1.7-3.5,3.3-5.7,4.1c-1,2.9-2.7,3.2-5.7,2.5c-3.6-0.8-7.4-2.1-11.3,1.7
			c-1.7,1.6-6.8-0.6-10.4-0.4C531,46,522.9,42,514,43.9c-3.7,0.8-9,0.8-13.1-0.3c-4.5-1.2-9.4,1.9-13.8-2c3.5-2,7.4-0.3,11-1.6
			C501,38.7,499.1,37.4,500,36.6z"/>
		<path class="st130" d="M568.9,34.6c-2.8,1.5-6.2,1-8.8,3.2c-0.3,0.3-0.9,0.5-1.3,0.4c-6.6-2.1-8.9-1.6-14.4-0.9
			c-2.8,0.3-6.1,0.7-8.8,0.1c-6.1-1.4-11.7,1-17.4,1.2c-2.9,0.1-5.8,1-8.8-0.1c-2.9-1.1-6.1-0.8-8.5,2.8c0-2.3,0-3.9,0-5.6
			c5.1,0.9,10.1,0.5,15-1c0.4,0.8,1.1,1.8,1.8,1.4c7-4.6,14.9-0.8,22.2-2.3c4.2-0.9,8.5-0.8,12.8-1.1c1.7-0.1,3.4-0.2,4.8,0.8
			c2.5,1.8,4.7,1.4,7.3,0.1C566.2,32.9,568.3,31.3,568.9,34.6z"/>
		<path class="st95" d="M640.9,32.6c-5.3,2-10.7,1.6-16,0C630.2,30.9,635.6,33.6,640.9,32.6z"/>
		<path class="st131" d="M394.1,17.6c-0.1-0.6-0.1-1.3-0.2-1.9c-0.1-2.7,0.5-4.6,3.8-4c2.6,2.2,2.7,4.5,0.1,6.8
			C396.7,17.9,395.4,17.4,394.1,17.6z"/>
		<path class="st132" d="M397.9,18.5c1.6-2.3,0.1-4.5-0.1-6.8c0.4-0.3,1-0.9,1.1-0.8C401.4,12.7,400.8,17.1,397.9,18.5z"/>
		<path class="st45" d="M570.9,56.6c7.3-1.4,14.5,2.1,22,0.4c2.2-0.5,5.2,0.3,7,2.6c-1.1,0.2-2.3,0.8-3.4,0.6
			c-3.2-0.3-3.1-0.4-2.1,2.4c0.2,0.6-0.8,0.8-1.5,0.9c-5.1-3.9-10.8-4.9-17-4.1C573.8,59.8,571.5,59.4,570.9,56.6z"/>
		<path class="st119" d="M455.9,105.6c4.9-0.3,5.8-3.7,5.6-8.9c1.6,4.5,3.8,6.6,7.7,8.1c0.3,0.1,0.5,0.4,0.7,0.6
			c-3.9,1.8-8.1,1.1-12.1,1.7C456.5,107.3,456.1,106.7,455.9,105.6z"/>
		<path class="st108" d="M485,110.5c-0.8-1.6-0.3-2.3,1.4-1.7c1.8,0.6,4.1-1.3,5.7,1.7C489.6,110.5,487.3,110.5,485,110.5L485,110.5
			z"/>
		<path class="st133" d="M471,37.5c1.6,0.8,3.6-0.4,5,1c2,3.1,0.9,7.4,4,10c-2.7,0.2-5.3-1.3-8,0c-1.2-2.4,1.1-4.3,1.5-7.3
			c-4.3,1.6-2.8,5-3.5,7.3c-1.1,2.1-1.1,2.1,0.9,4.3c-4.5-1-9-1.8-13.4-3.1c-4.5-1.3-8.8-3.2-13.6-1.6c-1.5,0.5-2.7,0.4-3.4-1.1
			c-0.9-1.7,0.5-2.3,1.6-3.1c1-0.7,3.5-0.7,1.6-3c-0.3-0.4-0.2-1.1,0.4-1.1c2.4-0.1,4.6,2.6,7,0.9c4.1-3,3.3,2,5.6,3.3
			c1.1-6.9,6.2-6.8,11.3-6.6C469,38.2,470,38.2,471,37.5z"/>
		<path class="st110" d="M470,48.6c-2-5.5-1-8,3-8.3c2.7-0.2,3,0.5,1.9,2.6c-1,1.9-1.9,3.8-2.8,5.7C471.3,48.6,470.6,48.6,470,48.6z
			"/>
		<path class="st114" d="M474.1,104.5c0.9-2.2-0.9-2.4-2.3-2.7c-0.7-0.1-1.7,0.4-1.8-0.9c-0.1-0.9,0.1-1.8,0.9-2
			c0.7-0.2,1.9-0.2,2.2,0.2c1,1.3,1.7,2.8,3.7,2.5c0.5,1.1,2.2,0.9,2.3,2.5C477.6,105,475.8,104.5,474.1,104.5z"/>
		<path class="st120" d="M452.6,93.8c-4.2,2.2-8.6,3.7-14.5,3.7C442.8,93.4,448.1,94.9,452.6,93.8z"/>
	</g>
</g>
</svg>
