<?xml version="1.0" encoding="utf-8"?>
<!-- Generator: Adobe Illustrator 25.0.0, SVG Export Plug-In . SVG Version: 6.00 Build 0)  -->
<svg version="1.1" xmlns="http://www.w3.org/2000/svg" xmlns:xlink="http://www.w3.org/1999/xlink" x="0px" y="0px"
	 viewBox="0 0 591 161" style="enable-background:new 0 0 591 161;" xml:space="preserve">
<style type="text/css">
	.st0{display:none;}
	.st1{display:inline;stroke:#FFFFFF;stroke-miterlimit:10;}
	.st2{fill:#D8E6E9;}
	.st3{fill:#959A9B;}
	.st4{fill:#C7CBCB;}
	.st5{fill:#BCC0C1;}
	.st6{fill:#BBBFC0;}
	.st7{fill:#E4E6E7;}
	.st8{fill:#0D0F0F;}
	.st9{fill:#181A19;}
	.st10{fill:#333430;}
	.st11{fill:#3B3E3B;}
	.st12{fill:#2E302C;}
	.st13{fill:#30322E;}
	.st14{fill:#3C3E3A;}
	.st15{fill:#262825;}
	.st16{fill:#474946;}
	.st17{fill:#3D3F3A;}
	.st18{fill:#252723;}
	.st19{fill:#3D3F3B;}
	.st20{fill:#515451;}
	.st21{fill:#595B56;}
	.st22{fill:#343631;}
	.st23{fill:#7B7F79;}
	.st24{fill:#131514;}
	.st25{fill:#171A1A;}
	.st26{fill:#212424;}
	.st27{fill:#131615;}
	.st28{fill:#202222;}
	.st29{fill:#2B2E2C;}
	.st30{fill:#3B3E3C;}
	.st31{fill:#6A6D69;}
	.st32{fill:#1F2121;}
	.st33{fill:#1F2221;}
	.st34{fill:#202322;}
	.st35{fill:#1E201F;}
	.st36{fill:#181A1A;}
	.st37{fill:#1E2121;}
	.st38{fill:#1F2222;}
	.st39{fill:#050505;}
	.st40{fill:#3F423F;}
	.st41{fill:#2A2C2B;}
	.st42{fill:#2B2D2B;}
	.st43{fill:#313331;}
	.st44{fill:#292B29;}
	.st45{fill:#2C2E2C;}
	.st46{fill:#2C2F2D;}
	.st47{fill:#232626;}
	.st48{fill:#2B2D2C;}
	.st49{fill:#232726;}
	.st50{fill:#222525;}
	.st51{fill:#232625;}
	.st52{fill:#242726;}
	.st53{fill:#242727;}
	.st54{fill:#212423;}
	.st55{fill:#222423;}
	.st56{fill:#222524;}
	.st57{fill:#212422;}
	.st58{fill:#222523;}
	.st59{fill:#232524;}
	.st60{fill:#232523;}
	.st61{fill:#262927;}
	.st62{fill:#242624;}
	.st63{fill:#262826;}
	.st64{fill:#272A29;}
	.st65{fill:#252726;}
	.st66{fill:#242625;}
	.st67{fill:#242725;}
	.st68{fill:#232624;}
	.st69{fill:#252827;}
	.st70{fill:#222422;}
	.st71{fill:#272927;}
	.st72{fill:#2C2F2C;}
	.st73{fill:#3E403B;}
	.st74{fill:#484B48;}
	.st75{fill:#494C49;}
	.st76{fill:#343531;}
	.st77{fill:#282A27;}
	.st78{fill:#353735;}
	.st79{fill:#3A3C37;}
	.st80{fill:#393B37;}
	.st81{fill:#3A3C38;}
	.st82{fill:#383935;}
	.st83{fill:#171817;}
	.st84{fill:#383A36;}
	.st85{fill:#3B3D38;}
	.st86{fill:#3C3D38;}
	.st87{fill:#3E403A;}
	.st88{fill:#383A34;}
	.st89{fill:#3B3C38;}
	.st90{fill:#3C3E38;}
	.st91{fill:#393B35;}
	.st92{fill:#393B36;}
	.st93{fill:#3A3C36;}
	.st94{fill:#3B3D39;}
	.st95{fill:#3B3D37;}
	.st96{fill:#393A35;}
	.st97{fill:#3A3B35;}
	.st98{fill:#3F403B;}
	.st99{fill:#3C3E39;}
	.st100{fill:#3A3B36;}
	.st101{fill:#474A47;}
	.st102{fill:#565955;}
	.st103{fill:#464946;}
	.st104{fill:#454743;}
	.st105{fill:#424440;}
	.st106{fill:#454744;}
	.st107{fill:#41433E;}
	.st108{fill:#444641;}
	.st109{fill:#434540;}
	.st110{fill:#464845;}
	.st111{fill:#7C807C;}
	.st112{fill:#3F413C;}
	.st113{fill:#42443F;}
	.st114{fill:#40423E;}
	.st115{fill:#444743;}
	.st116{fill:#444643;}
	.st117{fill:#3F413B;}
	.st118{fill:#646763;}
	.st119{fill:#40423D;}
	.st120{fill:#757874;}
	.st121{fill:#363832;}
	.st122{fill:#3F413D;}
	.st123{fill:#4C4E4A;}
	.st124{fill:#747773;}
	.st125{fill:#5F625E;}
	.st126{fill:#5B5B4A;}
	.st127{fill:#444642;}
	.st128{fill:#2F312D;}
	.st129{fill:#6F726D;}
	.st130{fill:#31332F;}
	.st131{fill:#373937;}
	.st132{fill:#1C1E1D;}
	.st133{fill:#4E504D;}
	.st134{fill:#040404;}
	.st135{fill:#141616;}
	.st136{fill:#303331;}
	.st137{fill:#323432;}
	.st138{fill:#1D1F1E;}
	.st139{fill:#262929;}
	.st140{fill:#3B3C37;}
	.st141{fill:#424541;}
	.st142{fill:#414441;}
</style>
<g id="Camada_2" class="st0">
	<rect x="-55" y="-43" class="st1" width="684" height="223"/>
</g>
<g id="Camada_1">
	<g>
		<path class="st2" d="M1.1,113.9c-0.3,0-0.7,0-1,0c0-11.3,0-22.6,0-34C3,80.3,2.3,83,3.2,84.7c1,8.9-0.3,17.7-0.9,26.5
			C2.3,112.3,1.9,113.2,1.1,113.9z"/>
		<path class="st3" d="M590.9,62c0,16,0,32,0,47.9c-0.7,0.3-1.2,0.1-1.6-0.5c-1.6-6-0.7-12.2-0.9-18.3c0.3-2.4,0-4.8,0.1-7.3
			c0.2-6.3-0.3-12.6,0-19c0.1-0.9,0.3-1.8,0.8-2.6C589.7,61.8,590.3,61.7,590.9,62z"/>
		<path class="st4" d="M590.9,62l-0.4-0.1h-0.4c-0.8-0.5-1.1-1.3-1.4-2.2c-0.7-5.6,0.4-11.3-0.6-16.9c-0.1-1.1,0.2-2.2,0.4-3.3
			c0.2-1.3,0.3-2.8,1.6-3.6c0.3-0.1,0.6,0,0.8,0.1C590.9,44.7,590.9,53.4,590.9,62z"/>
		<path class="st5" d="M2,84c-0.6-1.3-1.3-2.7-1.9-4c0-7.3,0-14.6,0-22c0.7-0.3,1.2-0.1,1.6,0.5c1.4,3.5,0.8,7.1,0.9,10.7
			c0.1,3.3-0.2,6.5,0.6,9.8C3.6,80.7,3.6,82.6,2,84z"/>
		<path class="st6" d="M590,110c0.3,0,0.6,0,0.8,0c0,4.7,0,9.3,0,14l-0.4,0.1L590,124c-2.9-4-1.5-8.3-1.2-12.5
			C589.1,110.8,589.5,110.4,590,110z"/>
		<path class="st7" d="M0.9,58H0.5l-0.4,0.1c0-3.3,0-6.7,0-10c0.3,0,0.6,0,1,0C3.1,51.4,3.2,54.7,0.9,58z"/>
		<path class="st8" d="M94.1,116.7c-1.6,1-3.1,2.2-5,2.4c-1.5-1.3-1.7-3.2-2.2-4.9c-1-8.4-1.2-8.6-9.8-8.6c-22,0-43.9,0-65.9,0
			c-2.9,0-6.1,0.6-8.3-2.2c-0.6-4.9-0.1-9.8-0.2-14.6c0.3-4.1,2.8-5.2,6.5-4.9c22.6,1.6,45.2,0.8,67.8,0.4c0.8,0,1.7-0.2,2.5,0.1
			c5.2,1.6,9.5,1.5,12.3-4.3c1.2-2.5,3.8-1.8,6-0.2c4.7,3.3,9,1.3,9.7-4.6c0.4-3,0-6,0.2-9c-0.1-2,0-4,0-6c0-0.9,0-1.7,0.1-2.6
			c0-2.1-0.1-4.2,0.2-6.3c0.3-2,1-3.8,3.4-3.9c1.6,0.3,1.7,1.7,2,2.9c0.2,0.9,0.7,1.6,1.4,2.3c0.9,1,2.1,2,1.5,3.6
			c0.3,2.9-3.7-2.2-3,1.6c0.2,1.1,0.1,2.3,0.1,3.5c0.1,2.3-0.2,4.7,0.5,7c0.6,1.5,1,3.5,3.1,3.1c1.6-0.3,0.5-1.9,0.7-2.9
			c0.5-2.8,1.7-2.8,5.7,0.2c0.7,2.6-1.6,4.1-2.4,6.2c-0.2,0.7-0.4,1.3,0.4,1.6c0.8,0.2,1.4-0.4,1.3-1.1c-0.7-3.4,0.5-4.7,3.9-3.8
			c0.3,0.1,0.9-0.2,0.8-0.4c-0.8-4.8,2.6-4.5,5.6-5.1c1.2-0.3,1.9-2.2,3.2-3c1.4-0.9,2.4-2.3,4.2-2.5c2.2,1.6,1.3,3.2-0.2,4.3
			c-3,2.2-4.8,5.6-7.8,7.7c-0.7,2.3-2.7,3.1-4.5,4.2c-0.5,0.4-0.9,1-1.3,1.5c-0.6,0.8-1.4,1.5-0.7,2.6c0.3,0.4,0.8,0.7,1.3,0.4
			c1.1-0.7,0.5-1.8,0.3-2.7c-0.1-0.7,0-1.3,0.5-1.8c2.1-0.8,6.1,0.4,4.6-4.2c0.4-1.5,1.6-1.4,2.8-1.2c2,0.4,3.5,0.1,2.5-2.5
			c-0.6-1.6,0-2.9,1.7-2.7c5.4,0.6,10.8-0.7,16.2,0.4c0.7,0.1,1.2,0.6,1.5,1.2c0.2,3-2.8,2.6-4.1,4c-1.3,2.1-3.1,3.8-5.2,5.2
			c-0.5,1.4-3.5,2.7-1.8,3.9c2.3,1.7,1.9-0.8,1.8-2.2c-0.1-0.7-0.3-1.3,0.2-1.9c4.8-0.5,4.8-0.5,4.8-4.8c0.6-0.7,1.3-0.8,2.1-0.6
			c4.2,1.2,3.7-1.1,2.6-3.6c3.2-3,6.4-0.9,9.6-0.1c-1.3,3.8,0.7,4.5,3.9,4.2c3.4,4.3-2.1,3.3-3,4.9c-0.2,0.2-0.5,0.5-0.6,0.8
			c-0.4,1.2-2.2,1.8-1.4,3.4c0.2,0.5,0.8,0.6,1.3,0.3c1.6-1,0.4-2.4,0.4-3.6c0-0.3,0.1-0.6,0.3-0.9c0.4-0.3,0.8-0.5,1.3-0.5
			c1.3-0.1,3.1,1.3,3.8-0.6c0.5-1.5-0.7-3-2.1-3.9c-1.4-1.2-3.2-1.9-3.4-4c1.5-3.4,4-0.7,6-1c3.4-0.6,4.1,1,3.2,3.9
			c-0.2,0.5,0.4,0.9,0.9,0.9s0.9-0.3,1.1-0.8c0.5-1.4-1.3-4.1,1.1-4.1c2.4,0,5.2-1.1,7.4,1.1c0.4,1.1-0.5,1.9-0.6,2.9
			c-0.1,0.6,0.3,0.9,0.9,0.9c0.3,0,0.9-0.2,0.8-0.4c-0.9-7,4.5-3.8,7.5-4.6c0.7,0.2,1.2,0.7,1.5,1.4c0.4,1.2-1.3,2.4,0.2,3.5
			c1.6-0.1,1.3-1.2,1.2-2.1c-0.3-2.1,0.3-3.5,2.5-2.7c2.1,0.7,3.4-0.7,5-1.2c2.7,1.8,2.7,3.9-0.5,5.3c-2.8,1.2-3,3.3-3.9,5.6
			c2,0.3,2-0.8,1.8-1.8c-1-5.3,4-1.6,5.1-3.5c1-1.6-1.8-5.6,3.1-4.7c1,0.2,1.9,0,2.9-0.4c1.1-0.5,2.3-2.1,3.4-0.6
			c1,1.3,0.1,3.7-0.7,4c-3.7,1.5-4.7,5.9-8.2,7.4c-0.4,0.5,0-0.2-0.3,0.3c-0.7,1.3-3.5,2.5-1.7,3.9c1.9,1.5,1.7-0.7,1.5-2
			c-0.1-0.5-0.2-1,0-1.5c0.1-0.3,0.3-0.6,0.6-0.8c2.1-0.8,6.3,0.8,4.7-4.1c4.4,0.2,4.2-5.8,7.2-6.1c2.9-0.2,4.5-1.4,6.2-3.1
			c1.2-1.1,2.2-2.5,4-2.8c2.6,1.6,0.7,2.9-0.2,4.3c-0.7,1-2.6,1.3-2.6,2.8c0,1.4-1.9,2.4-1.2,3.5s1.7,0.3,1.8-0.9
			c0.1-0.7-0.4-1.2-0.5-1.9c-0.2-1.5,0.9-2.5,2-2.1c2.5,0.9,5.3-0.6,7.5,1.3c0.8,3.6-2.8,2.9-4.2,4.4c-1.2,2.2-3,3.7-5,5
			c-0.5,0.5-0.9,1-1.3,1.5c-0.6,0.8-1.5,1.4-0.7,2.5c0.3,0.4,0.8,0.6,1.3,0.4c1.2-0.7,0.5-1.7,0.4-2.6c-0.1-0.7,0-1.3,0.4-1.8
			c4.7-0.7,4.7-0.7,5-5c0.6-0.7,1.5-0.8,2.3-0.6c3.7,0.7,3.4-1.1,2.3-3.5c3.2-3,6.4-0.9,9.6-0.1c0,0.2,0.1,0.3,0.1,0.5
			c0.5,1.2-1.7,2-0.4,3.3c0.2,0.2,0.7,0.1,0.9-0.1c1.5-1.3-0.5-2.3-0.2-3.5c0.4-1.7,1.8-1.9,3.1-1.5c1.8,0.6,3.6,0.2,5.4,0.3
			c2.8,0.9-0.5,3.8,1.6,5c2.5-5.9,2.5-5.9,6.7-3c0.9,1.1,1.4,3,3.1,2.8c2.4-0.3,0.8-2.3,1.1-3.5c0.4-1.5,1.5-1.8,2.6-1.4
			c1.7,0.7,3.2-0.2,4.8,0c1.9,1.3,1.5,2.6,0,3.8c-1,0.8-2.4,1-2.6,2.5c0,1.3-2.2,2.1-1,3.9c2.4-1,0.7-2.9,1.2-4.2
			c0.5-1.5,1.6-1.4,2.8-1.2c1,0.2,2,0.3,2.3-1.1c0.2-1.2-0.8-3.4,0.7-3.5c2.8-0.3,5.2-1.5,7.8-2.2c1.7-0.5,1.3,1.6,1,2.9
			c-0.5,3.1-4.4,2.8-5.2,5.6c-0.7,1.9-2.7,2.4-4,3.7c-0.5,0.5-0.9,1-1.3,1.5c-0.6,0.8-1.5,1.5-0.8,2.6c0.3,0.4,0.8,0.7,1.3,0.4
			c1.2-0.7,0.5-1.7,0.4-2.6c-0.1-0.7,0-1.3,0.5-1.8c2.1-0.8,6.3,0.6,4.5-4.3c0.7-1.8,2.1-1.2,3.4-1.1c1.1,0.1,2.3-0.2,2-1.5
			c-0.9-3.6,0.9-4,3.8-3.4c0.8,0.2,1.6-0.3,2.4-0.6c1-0.4,2.3-1.2,3,0.2c0.5,1,0.3,2.9-0.5,3.2c-3.7,1.4-4.7,5.9-8.3,7.4
			c-0.4,0.5,0-0.2-0.4,0.3c-0.7,1.3-3.5,2.5-1.7,3.9c1.9,1.5,1.7-0.7,1.5-2c-0.1-0.5-0.2-1,0-1.5c0.1-0.3,0.3-0.6,0.6-0.8
			c1.9-0.7,5.8,0.8,4.4-3.8c3.6-1,4.9-4.8,7.4-6.3c1.8-1.1,4.6-1.3,6.4-3.3c1.3-1.1,2.2-2.5,4.1-2.8c1.4,0.6,1.5,2,0.7,2.8
			c-3,2.7-4.2,7.2-8.5,8.5c-0.7,2.4-2.4,3.9-4.5,5.1c-0.3,0.4-0.6,0.8-0.9,1.2c-0.7,0.9-2,1.5-1.1,2.9c0.3,0.4,0.9,0.6,1.3,0.3
			c1.4-0.8,0.7-2,0.5-3.1c-0.1-0.5-0.1-1,0.2-1.4c4.4-0.4,4.4-0.4,4.9-5.3c1.1-0.7,2.2-0.1,3.3,0c0.7,0.1,1.7-0.1,1.7-0.6
			c-1.2-8.6,5.4-3,8.1-4.5c3.3,4.1-1.5,3.7-2.9,5.2c-1.4,2.1-2.8,4.2-5.2,5.3c-0.5,1.4-3.5,2.4-1.9,4s1.9-0.5,1.8-1.8
			c-0.1-0.8-0.4-1.6,0.3-2.4c4.4-0.3,4.4-0.3,4.8-4.9c0.9-1,2.1-0.8,3.2-0.5c1.1,0.2,1.8,0,2-1.4c0.5-4.7,0.7-4.8,5.3-1.9
			c1.2,1.3,0.8,2.5-0.2,3.6c-0.7,2.8-3,4.1-5.3,5.4c-0.2,1.6-2.9,2-2,4.1c0.2,0.4,0.8,0.6,1.3,0.3c2-1.2,0-3.1,0.7-4.5
			c0.1-0.1,0.2-0.3,0.4-0.3c5-0.3,5-0.3,4.9-5c1-0.8,2.1-0.5,3.3-0.2c1.3,0.4,2,0.1,2.3-1.5c0.7-4.2,1.5-4.5,4.8-1.9
			c0.6,0.5,1.1,1.2,1.6,1.8c1.6,1.5,3.6,4.2,3.4-0.8c0-2.3,0.8-3,2.9-2.5c1.5,0.4,2.9-0.1,4.4,0c0.7,0.3,1.2,0.7,1.5,1.4
			c0.4,1.2-1.3,2.4,0.1,3.5c1.2,0,1.4-0.9,1.2-1.7c-0.5-2.5,0.2-3.9,3-3.2c1.8,0.5,3.1-0.9,4.7-1c2.7,2.1,1.2,3.8-0.7,5.1
			c-1.2,0.9-2.6,1.4-3,3.1c-0.3,0.9-1.5,1.4-1,2.5c0.2,0.5,0.8,0.5,1.2,0.3c0.9-0.5,0.8-1.3,0.6-2.1c-0.1-0.6-0.3-1.2-0.2-1.9
			c0.4-1.1,1.4-1.4,2.4-1.2c2.2,0.5,3.1-0.2,2.7-2.5c-0.2-1.3,0.3-2.8,1.6-2.4c2.5,0.9,4.8-1.6,7-0.1c1,0.7,0.6,2.5-0.4,3
			c-3.3,1.7-4.4,5.7-7.7,7.2c-0.8,1.4-3.3,2.3-2.2,4.2c0.7,1.2,1.6-0.1,1.7-1.1c0.1-1.1-0.6-2.2,0.5-3.1c2.1-0.6,5.8,0.7,4.4-3.9
			c-0.2-0.8,0.7-1.6,1.6-1.4c2.7,0.6,4.1,0.1,3.5-3.1c-0.3-1.4,0.9-2,2.2-1.8c0.8,0.1,1.6,0.2,2.5,0.2c1.6-0.1,3.7-2.7,4.7-0.2
			c1,2.6-1.5,4-3.7,4.9c-0.3,0.1-0.5,0.4-0.7,0.7c-0.7,2.4-2.4,3.9-4.5,5c-0.5,0.5-0.9,1-1.3,1.5c-0.6,0.8-1.4,1.5-0.7,2.6
			c0.3,0.4,0.8,0.6,1.3,0.3c1.1-0.7,0.4-1.8,0.3-2.7c-0.1-0.7,0-1.3,0.5-1.8c4.3-0.5,4.3-0.5,5-5.3c5.2,0.8,5.7,2.3,2.4,9.8
			c1.9-1.3,1.7-3.8,3.5-3.5c1.8,0.4,2.5,2,3.5,3.3c3.5,4.6,3.7,4.7,8.8,2.1c2-1,3.9-2,5.9,0c6.5,4.3,14.1,3.5,21.2,4
			c9.5,0.6,19,0.1,28.5,0.1c3.9,0,7.8,1.4,11.8,0c1.5-0.5,2.2-0.5,2.3-2.3c0.2-16.6,1.3-33.2,0.8-49.8c0-1-0.1-2-0.3-3
			c-0.1-0.9,0.1-1.7,0.7-2.4c0.7,0,1.3,0,2,0c1.7,1.9,1.5,4.3,1.6,6.6c0.2,6.9-0.3,13.9-0.1,20.8c0.1,2.1-0.1,4.3,0,6.4
			c0,2.8-0.1,5.7,0,8.5c0.1,3.8-0.5,7.6,0.3,11.2c0.7,0.5,1.1,0.3,1.5,0c3.9-2.3,5.2-1.6,5,3c-0.2,4.2-0.2,8.3-0.3,12.4
			c0-1.1,0-2.2,0-3.3c0.1-2.1-0.3-4.2,0.4-6.3c3.2-1.9,6,0.2,8.9,0.7c1.3,1.9,1.1,4.1,1,6.2c-0.1,3,1,5,3.7,6.3
			c1.1,4.3-2.3,8.6-7.6,9.5c-1.7,0.3-3.9-0.5-4.1,2.3c-0.2,2-0.8,3.8-0.8,5.8c0,1.9,0.8,3.5,2.9,3c4.6-1.3,4.3,1.5,4.1,4.4
			c-0.1,1.1,0.3,2.3-0.5,3.3l0,0c-5.5,1-11.1,0.3-16.6,0.4c-2.4-1.6-1.7-4.3-2.5-6.5c-0.4-2.9-0.8-5.8,0.5-8.6
			c4-1.8,3.3,1.5,3.8,3.5c0.3,1.2-0.5,3.1,1.3,3.3c1.7,0.2,2.3-1.6,2.7-3.1c0.3-1.3,0.3-2.6,0.3-4c-0.1-2.7-0.3-5.1-3.9-2.4
			c-2.2,1.7-3.3,0.4-3.8-1.8c-0.3-1.3,0.2-2.6,0.2-4.1c-0.5,2.1-1.9,3-3.7,3.1c-6.3,0.4-12.6,1.6-19.1,0.4
			c-9.8-1.8-19.8-1.8-29.7-3.7c-4.7-0.9-9.2,0.6-13.7,1.7c-3-6-4.9-6.9-11.5-5.6c-4.1,0.8-4.6,1.9-2.8,6.2c2.5,1.4,5.2,0.5,7.8,0.7
			c1.6,0.1,3.3-0.1,4.9,0.4c1.6,0.4,2.5,1.5,2.5,3.2c-0.1,2-1.4,2.3-3,2.3c-4.4,0-8.9,0-13.3,0c-3.1-0.2-2.9-3.3-4.5-4.8
			c-0.2-0.4-0.4-0.9-0.4-1.3c0-0.4,0.4-0.9,0.2-1.2c-0.3-0.5-0.6,0.2-1,0.2c-3,0-5.5-4.7-8.8-0.7c-0.3,0.3-0.7,0.6-1.2,0.7
			c-3.1-0.3-5.9-4.1-9.2-0.5c-0.8,0.5-1.7,0.7-2.3,0.1c-3.2-2.8-6.2-1.8-9.2,0.4c-1.5-0.6-3.2-1.1-3.1-3.2c0.6-0.7,1.4-1.2,2.6-2
			c-1.4,0.3-1.7,1.2-2.3,1.7c-1.5,1.6-4.2,0.6-5.4,2.8c-0.5,0.5-1,0.8-1.7,1c-0.7,0-1.4-0.2-2-0.5c-0.4-0.2-0.8-0.5-1.1-0.8
			c-2-1.9-3.8-1.5-5.4,0.5c-0.5,0.5-1.1,0.8-1.8,0.8c-2.1-0.1-2.7-3.1-5-2.5c0.6,0.2-0.5,0.1-0.4,0.1c5.4,1.1,3.3,3.2,0.8,5.3
			c-2.2,0.5-4,2.1-6.2,2.7c-2.2,0.6-4.3,0.8-2.7-2.6c0.8-1.1,3.5-1.6,1.3-3.6c-2.2-2.1-4.4-2.8-6.4,0.4c-0.4,0.2-0.8,0.3-1.3,0.4
			c-1.5-0.2-2.6-1.1-3.8-1.9c-2.2-1.3-3.6-0.8-4.3,1.6c-0.2,0.4-0.5,0.8-0.9,1c-2.9-0.1-4-4.9-7.8-2.9c4.2-1.7,4.9,4.2,8.4,3.9
			c-1.3,4.5-4.6,5.7-7.8,2.8c-0.9-0.8-1.4-1.8-2.2-2.7c-2.8-0.9-4.3-4.1-7.7-4.5c3,1.2,4.1,5,7.7,4.5c-1.3,4.1-4.2,5.4-7.4,3
			c-1-0.8-1.9-1.7-3-2.5c-1.7-1.3-3-2.9-4.9-4c-1.7-1-3.4-1.2-4.9,0.4c-0.3,0.3-0.7,0.6-1,0.8c-0.9,0.3-1.7-0.1-2.5-0.5
			c-0.7-0.4-1.5-0.8-2.3-1.2c-2-1.2-3.5-0.3-4.8,1.3c-0.5,0.5-1.1,0.8-1.9,0.8c-2-0.2-2.8-3-5-2.6c-0.7-0.3-0.6,0.9-0.5,0.2
			c0-0.1,0.2,0,0.4,0c1.2,0.1,2.5,0.2,2.7,1.6c0.3,1.5-0.6,2.7-1.9,3.2c-2,0.8-3.9,1.9-5.7,3c-1.8,0.3-4.8,2.5-3.7-2.2
			c1.1-1.1,3.7-1.7,1.3-4c-2-1.9-3.8-2.4-5.7,0.1c-0.5,0.5-1.1,0.8-1.9,0.8c-2.2-0.4-3.4-3.3-6.1-2.6c4.7,1,4.8,1.5,1.4,5.4
			c-2.2,0.7-4,2-6.1,2.8c-1.8,0.6-3.6,0.9-3.4-2c0.5-1.5,3.4-1.4,2.6-3.7c-0.8-2.3-2.7-2.5-4.7-2.3c1.4,0.5,3.4-0.4,3.9,1.7
			c0.4,1.7-1.1,2.6-2.3,3.5c-1.5,0.3-2.8-0.1-4.1-0.7c-2.7-1.2-3.5-5.5-8-4.5c1.2,0.4,2.1,0,2.9,0.3c1.4,0.4,1.8,1.3,1.4,2.6
			c-0.3,1.1-0.5,2.3-1.3,3.2c-2.5,1.1-3.6-1.5-5.4-2.2c-3.1-1.4-5.4-6.1-9.7-2.3c-0.4,0.3-0.8,0.5-1.2,0.6c-3,0.1-5.6-4.7-8.9-0.7
			c-0.3,0.3-0.7,0.5-1.2,0.7c-2.3,0.1-3.4-2.6-5.8-2.3c2.7,0.9,3.9,4.6,7.4,4.1c-1.3,4.4-4.3,5.6-7.6,3c-0.9-0.7-1.7-1.5-2.6-2.2
			c-1.3-1-2.6-1.9-3.9-2.8c-0.4-0.2-0.7-0.5-1.1-0.8c-1.9-1.8-3.7-1.7-5.3,0.3c-0.5,0.5-1.1,0.8-1.8,0.9c-1.4-0.1-2.4-0.9-3.4-1.7
			c-2-1.6-3.5-0.8-4.9,0.9c-0.5,0.5-1.1,0.8-1.9,0.8c-2.1-0.1-2.7-3.2-5.1-2.5c2,0.4,3.9,1.1,2.1,3.7c-2.2,2.1-5,3.2-7.8,4.4
			c-2.1,0.9-4.4,0.9-2.8-2.6c3.2-3.4,2.9-4.1-2.3-5.6c4.6,1.2,4.7,1.8,1.3,5.5c-0.9,0.3-1.9,0.4-2.8,0.8c-6.6,3-6.6,3-11.3-2.1
			c-2.7-0.9-3.9-4.8-7.7-3.8c4.1-1.3,4.4,4.3,7.9,4c-1,3.9-3.9,5.4-6.9,3.5c-0.8-0.5-1.4-1.3-2.2-1.9c-2.2-1.8-4.1-4.3-7.5-2.8
			c-2.7-8.4-3.2-6.5-9.4-6.6c-4.7-0.1-5.4,1.1-4.2,6.4c3.9,2.8,8.1,3.1,12.6,1.8c0.5,0.2,1,0.4,1.3,0.9c1.6,3.1,0.2,4.1-2.8,4.1
			C102.9,116.5,98.5,116.1,94.1,116.7z"/>
		<path class="st9" d="M274,73c-0.8-2.9,4.9-2.6,3-6.1c-0.8-0.6-1.8-1-2.4-1.9c-1.6-2-1.9,0.9-3,0.8c-2.3,0-2.1,3.6-4.7,3.3
			c-1.4-1.6-1.7-3.8-2.9-5.7c-2.9,0-3.7,4.1-6.8,3.6c-1.8,1-3.4,2.7-5.5,0.4c-0.7-0.8-1.8-0.5-2.6,0.5c-0.4,0.5-0.8,0.6-1.3,0.2
			c-2.9,1.1-5.8-1.4-8.7-0.1c-0.4,0.5-0.8,0.6-1.3,0.1c-2.6-0.8-5.5,2.2-8-1.5c0.3,2.6,3.1,4,0.2,6.2c-2.9,2.2-3.6-1-5.6-1.2
			c2.5-3.8,6.5-6,7-10.6c-2-0.2-3.1,0.7-3.2,2.8c-3.7,5.2-3.7,5.2-8.7,3.3c0.7,2.2,2.7,4.1,0.1,6c-2,1.5-2.9-0.7-4.9-0.9
			c0.8,1.9,2.2,3.7,0.2,5.6c-2.5,2.3-3.7-1.4-5.7-0.9l0,0c1.9-4.4,7-6.4,8.7-11.2c-2.5,1.9-4.7,4.1-7.8,1.2
			c-1.1,2.2,3.2,2.7,0.7,5.3c-2.3,2.4-4,0.6-6,0c-0.5,2.1,2.7,3.7,0.1,5.6c-1,0.8-1.9,1.3-3,0.4c-1.3-1-3-1.7-0.8-3.6
			c1.7-1.5,2.3-3.9,4.8-4.8c1.4-0.5,3.1-2.2,0.4-3.8c-0.9,0-1.8-0.2-2.4-0.9c-1.5-2.4-1.8,0.8-2.9,0.6c-1.6,0.2-2.4,2-3.9,2.3
			c-0.3-0.4-0.6-0.8-0.9-1.1c-3.7-5-6.1,0.6-9.2,1.2c-2.3-1.1-4.9,2.1-7.5-2c0.1,3.4,2.9,5.5-0.2,7.3c-1.7,1-2.4-0.3-3.5-1
			c-3.1-1.9,2-2.7,0.2-4.6c-2.4,3-5.1-1.9-7.8,0.2c-0.4,0.5-0.8,0.6-1.3,0.2c-2.9,1.1-5.8-1.4-8.7-0.1c-0.4,0.5-0.9,0.6-1.4,0.1
			c-4.6,0.3-9.3-1.9-13.8,0.4c-1.7,0.9-2.1-2.3-4.3-0.9c0,1.4,3,2.7,0.5,5.2s-4.2-2.2-6,0.2c-0.3,0.3-0.7,0.3-1,0
			c1.6-3.5,4.6-5.8,7.2-8.4c1.1-1.1,2.6-1.8,1-3.5c-2.1-0.2-3.1,0.9-3.1,2.9c-0.6,0.5-1.4,1-1.8,1.6c-1.6,3-3.4,4.6-6.4,1.3
			c-1.2,2.4,2.1,3.7,0,5.9c-2.2,2.2-3.5-0.7-5.1-0.3c-0.7,0.8-0.3,1.4,0.1,1.9c1.4,1.5,0.8,2.6-0.5,3.8c-1.7,1.5-2.7-0.1-3.8-0.8
			c-2.2-1.5,0.3-2.1,0.7-3c0.8-1.8,2.6-3,2.8-5.2c0.2-3.3-1.2-4.3-4.2-2.9c-1.3,0.6-2.3,2.2-4,1.2c-1.4-1.9-3.6-3.7-0.2-5.8
			c0.9-0.3,1.9,0.1,2.9-0.5c-0.9-0.6-1.5,0.1-2.2,0.1c-1.1,0.1-2.2,1.1-3.2,0c0-2.7-1.1-6.3,4-5c0.6-0.8,1.4-1.3,2.1-2.1
			c-1.2-1-2.9,0.4-4-0.9c-0.9,0-1.7-0.2-2.1-1.1c0.8-1.6,3.3-1,3.8-3.1c0.3-0.4,0.6-0.7,0.9-1c1.5-1,2.8-2.4,4.5-2.7
			c2.7-0.5,4.9,0.1,4.9,3.5c-0.7,1.4-2.2,0.6-3.3,1.4c1.6,0.2,2.7-0.5,3.5-1.6c1.1-1.5,2.6-2.5,4.3-3.1c3.1-1.1,4.7,0.1,5.1,3.8
			c-1.2,0.9-2.8,0.1-4.2,0.9c1.5,0.8,2.8-0.1,4.1-0.3c3.2-3.2,6.2-6.6,11.3-3.2c1,0.7,2.2-0.2,3.2-0.7c3.3-1.5,5.7-1,6.9,2.8
			c-0.9,1.6-2.5,0.9-4,1.3c1.2,0.5,2.5-0.1,3.5,0.7c1.5,4.3,1.5,4.3,4.5,1c1.8-1.4,4.2-1.6,5.8-3.3c5.8-4.4,6.9-4.5,10.3-0.3
			c0.1,0.5-0.1,0.9-0.4,1.3c-1.1,0.8-2.5,0.2-3.7,0.7c1.3,0.8,2.5-0.2,3.7,0.1c0.4,0.1,0.9,0.3,1.2,0.6c1.2,1-1.7,2.6,0.3,3.1
			c1.2,0.3,1.1-1.3,1.2-2.3c0.1-0.5,0.4-0.8,0.8-1c2.1-0.3,4.5,0.4,6-1.7c0.3-0.3,0.7-0.6,1.1-0.9c6.1-4,7.3-3.9,9.6,0.9
			c-1,1.5-2.7,0.8-4.4,1.3c2.2,0.5,3.6-0.2,4.7-1.6c1.7-1.9,3.6-3.5,6.3-3.4c2.1,0.1,3.4,1.2,3.5,3.4c-0.5,1.6-2.2,0.8-3.3,1.6
			c1.2,0.6,2.7-0.2,3.8,0.7c1.1,0.8-0.4,2.9,1.3,3.3c1.8,0.4,2.2-1.6,3.3-2.5c1.7-0.9,3.3-1.9,5.3-0.8c1.3,0.7-0.2,2.6,1.5,3.3
			c0.4-1.6-0.8-2.3-1.4-3.3c0-3.6,2.8-4.6,5.5-5.3c1.8-0.5,3.3,0.7,3.8,2.5c0.6,2.1-1.8,1.3-2.5,2.2c1.4,0,2.5-0.5,3.5-1.5
			c2.7-2.7,5.5-4.9,9.6-2.1c1.3,0.9,2.5,0,3.7-0.6c3.3-1.5,5.8-0.9,6.9,2.9c-0.9,1.3-2.3,1-4.2,1c2.1,0.5,3.4,0.1,4.4-1.3
			c4.6-4.7,6.5-4.7,9.9-0.2c-1.3,2.6-5.5,0.2-6.3,3.7c-0.7,0.8-1.7,0.8-2.8,1.4c1.9,0.5,2.4-1,3.1-1.9c1.6-1.8,4.6-1,6.1-3.1
			c5.3-4.8,7-4.8,9.9-0.1c-0.9,1.9-2.9,1.1-5.3,1.9c2.7,0.1,4.3-0.3,5.4-1.8c5.3-4.7,6.9-4.7,9.9-0.1c-1.7,2.8-5.3,0.4-7.3,2.6
			c-0.5,1-1.7,1.4-2,2.6c2.3,0.3,1.2-2,2.1-2.7c2.2-1.2,5.3,0.4,7.1-2.2c2.8-2.6,5.6-4.7,9.7-2.3c1.5,0.9,2.9,0.1,4.2-0.6
			c1.4-0.7,2.9-1.1,4.3-0.4c2.1,1.1,4,1.3,6.1,0c1.2-0.7,2.6-0.6,3.8,0c1,0.4,1.5,1.3,1.7,2.3c0.2,1.3-0.7,1.8-1.8,1.9
			c-1.7,0.1-2.7,1-3.4,2.5c-1.5,1-2.7,0.3-3.7-0.8c-1.1-1.2-2.5-1.4-4.2-1.4c1.4,0.6,2.8,0,3.8,0.9c1.4,1-1.3,2.6,0.4,3.2
			c2,0.7,3.2-0.9,4.1-2.4c1.6-1.2,3.2-1.8,5.2-1.1c0.9,4,2.7,4.3,5.4,1.4c2.4-1.9,5-3.6,7.5-5.4c3.5-2.5,5.1-2,7.7,2
			c-1.4,2.3-5.4,0.2-6.2,3.6c-0.6,0.8-1.8,0.7-2.5,1.4c1.8,0.5,2.1-1.1,3-2c1.6-1,3.4-1.6,5.3-0.9c1.2,0.7-0.1,2.6,1.5,3.2
			c1.7-0.4,1.1-2.1,2-3c2.4-0.8,5.3-0.1,7.1-2.7c6.1-4.3,6.9-4.3,10,0.3c-0.9,1.7-2.5,1.1-3.8,1.5c1.5,0.3,2.9-0.1,3.9-1.5
			c5.7-4.6,7.3-4.6,9.9,0c-1,1.8-2.9,1-4.8,1.6c2.3,0.3,3.7-0.2,4.9-1.7c5.3-4.7,6.9-4.7,9.9-0.1c-1.8,2.7-5.4,0.4-7.3,2.7
			c-0.4,1-1.9,1.3-1.9,2.8c2.5,0.2,1.1-2.2,2.1-2.9c2.3-1.2,5.5,0.4,7.2-2.4c5.7-4.5,7.2-4.5,9.9,0c-1.9,2.2-5.3,0.4-7.3,2.6
			c-0.5,0.9-1.6,1.5-2.2,2.7c2.6,0.2,1.4-2.1,2.3-2.8c2.1-1.2,5,0.2,6.9-2c0.9-1.3,0.5-2.8,0.6-4.3c0.1-0.8-0.3-2.2,1.4-1.7
			c0.7,0.6,1.3,1.3,2,1.9c5.8,5.1,6.1,7.6,1.6,13.8c-0.6,0.8-1.2,1.6-1.3,2.6c-0.2,1.9,0.1,3.8,0.7,5.6c0.9,3.2,2.9,5.8,3.7,9.1
			c0.8,3.2,3.5,3.4,5.5,0.8c0.4-0.5,0.7-1.1,1-1.7c0.9-1.9,1.2-4.9,3.9-4.3c2.7,0.5,1.8,3.5,2.1,5.5c0,1.8,0.1,3.6-0.4,5.4
			c-0.2,0.5-0.5,0.9-0.9,1.3c-2.3-0.4-3.9,1-5.3,2.2c-3.5,2.9-6,1.7-8.2-1.5c-1.2-1.7-2.3-3.4-3.4-5.1c-1.2,0.5-0.9,1.2-1,1.8
			c-0.2,1.1,0.5,2.6-1,3c-1.3,0.4-1.9-1-2.8-1.7c-1.6-1.4-0.2-2.3,0.7-3.2c3.5-3.5,2-5.4-2-6.5c-0.3,0.3-0.7,0.3-1,0
			c0.8-2.3,4.5-2.3,4.2-5.9c-2.4,1.5-4.4,4.4-7.2,0.7c-1.1,2.4,2.4,4.5-0.5,6.4c-2.1,1.4-2.9-1-4.7-0.8c-1.2,1.8,2.6,3.4,0.1,5.5
			c-2.6,2.2-3.8-1.4-5.8-0.9l0,0c1.6-4.1,5.8-6.1,7.9-10.1c-2.4,1.7-4.8,2.4-7.5,0c1.7,5.8,1.7,5.8-5.5,6.2c-0.4,0.8-0.9,1.4-2,1
			c0-2,1.7-2.6,2.9-3.6c1.3-1.1,3.2-2.3,1.1-4.4c-3.3-0.5-6.5-0.7-9.1,2c-0.3-0.4-0.6-0.7-0.9-1.1c-4.9-4-5-4-8.6,2
			c-0.8,1.3-1.4,2.7-3.4,2.1c-0.3-2.4-2.5-2.7-3.9-3.8c-1.3,1.2-0.3,1.9,0.3,2.6c0.9,1.3,0.2,2.1-0.6,3c-0.9,0.9-1.9,1.3-3,0.3
			s-2.3-1.2-3.7-1.1l0,0c-0.3-1,1.2-2,0-3c-0.8-1.6,1.1-3.6-0.7-5.2c-2.4,0.3-3.5,3.5-6.2,3.2c-2.5,0.3-4.7,3.5-7-0.6
			c-1.2,2.7,3,3.2,0.5,5.8c-2.8,3-4.4-0.3-6.5-0.2c-0.3,0.3-0.7,0.4-1,0c2.5-2.7,5.1-5.4,7.6-8.1c0.8-0.8,1.9-1.6,0.6-2.9
			c-2-0.2-3.1,0.7-3.2,2.8c-1.9,3.1-3.7,6.4-8.1,3.2c-1.4,2.2,3.3,2.7,0.6,5.2c-2.2,2.1-3.9,1.5-5.8-0.4c-0.8,2.6,2.3,4,0,6.1
			c-2.6,2.3-3.8-1.3-5.8-0.8l0,0c2-4,6.2-6.3,8.5-10.3c-2.7,0.7-4.9,3.7-8,0.5c0.5,2.1,2.3,3.5,0.4,5.5c-2,2.1-3.2,0-4.7-0.4
			c-0.3-0.1-0.8,0.4-1.2,0.7c-0.7,0.6-1.3,0.6-2,0c1-3,6-3.2,5.4-7.8c-2.6,1.4-3.8,7.2-8.4-0.1c2,7.7,2,7.7-5.1,7.9
			C274.6,73.3,274.3,73.3,274,73z"/>
		<path class="st10" d="M248,49c-2.2-2.8-4.6-4.4-7.7-0.9c-1.2,1.3-2.7,0.6-3.5-0.3c-2.6-2.8-4.5-1.4-6.7,0.5
			c-1.5,1.3-2.8,2.8-4.9,3.3c-1.2,0.3-2.2,0.7-3.2-0.2c-0.7-0.6-0.9-1.4-0.3-2.2c0.8-1,1.9-1.2,3.1-0.7c0.4,0.2,0.9,0.2,1.5,0.3
			c-2.9-3.7-4.6-3.2-8.2,2.3l0,0c-2,0.3-4,0.7-6,1c-0.2-0.1-0.4-0.2-0.6-0.3c-2.1-2.8-0.1-3.6,2.5-4.8c-2.7,0.3-3.8,3.3-6.3,2.5
			c-0.2-0.1-0.4-0.3-0.6-0.4c-1.5-3.4-3.5-4.2-6.4-1.5c-1,0.9-2.2,1.5-3.6,1.5l0,0c-1.8-3-3.9-4.2-6.9-1.2c-0.7,0.7-2,0.8-3.1,1.2
			c-2.4-1.3-4.8-1.8-7.3,0.2c-0.8,0.6-1.9,0.6-2.7-0.2c-2-3.4-4.4-4.1-7.4-1.1c-0.6,0.6-1.7,0.8-2.6,1.1c-0.2,0-0.5,0-0.7,0
			c-3.1-2.9-5.8,0.2-8.7,0.4c-0.2-0.1-0.4-0.3-0.6-0.4c-2.2-2.7-4.5-4.5-7.6-1c-0.6,0.6-1.5,1.2-2.2,0.5c-5-5-7.9-0.3-11.3,2.4
			c-0.6-0.5-1.4-0.8-0.9-1.8c0.4-4.3-2.4-3.4-4.4-2.4c-1.5,0.7-2.7,2.2-4.6,2.3l0,0c-1.5-3.3-3.5-4.3-6.4-1.6
			c-1,0.9-2.2,1.5-3.6,1.5c-2.5-1.3-5-2.5-4.1-6c1.3-2,3.3-1.2,5-1.2c86.6,0,173.1,0,259.7,0c1.5,0,3.4-1,4.4,1.2
			c-1.4,1.8,2.1,5.2-2.1,6l0,0c-1.6-3-3.6-3.8-6.5-1.4c-0.9,0.8-2.3,0.9-3.5,1.4l0,0c-1.8-3.1-3.9-4.2-6.9-1.2
			c-0.7,0.7-2,0.8-3.1,1.2l0,0c-1.6-3-3.6-3.8-6.5-1.4c-0.9,0.8-2.3,0.9-3.5,1.4l0,0c-3.3-5.9-6.7-0.4-10,0c-0.2,0-0.5,0-0.7,0
			c-3.1-2.9-5.8,0.3-8.7,0.4c-0.2-0.1-0.4-0.3-0.6-0.4c-2.4-3.3-4.9-3.9-8.1-0.7c-1.9,1.9-4.6,3.1-6.9,4.6c-0.2-0.1-0.5-0.1-0.7-0.2
			c-2.7-3.6-2.5-4.2,1.8-5.7c-2.9-0.5-3.5,2.6-5.4,3.7c-0.2,0.1-0.4,0.2-0.7,0.2c-2,0.3-4,0.7-6,1l0,0c-2.5-5.8,2.4-3,4.5-3.8
			c-0.4-0.6-0.9-1.7-1-1.7c-4.7,1.8-9.7-0.6-14.5,0.8c-1.1,0.3-2.8,1.5-3.1,1.2c-3.9-4.5-7.4-0.4-11,0.4l0,0c-1.8-3-3.9-4.2-6.9-1.2
			c-0.7,0.7-2,0.8-3.1,1.2l0,0c-1.8-3.1-3.9-4.2-6.9-1.2c-0.7,0.7-2,0.8-3.1,1.2l0,0C254.7,43.4,251.3,47.9,248,49L248,49z"/>
		<path class="st11" d="M2.9,43c1.3-1.9,3.3-1.2,5-1.2c25.6,0,51.1,0,76.7,0c1.9,0,4-0.5,5.7,1.2c-0.1,3.9,0,7.8,3.8,10.4
			c0.7,0.5,0.7,1.4,0.5,2.3c-2.1,2.2-3.7,0.4-5.5-0.1c-1.7,4.7,3.7,3.1,5.4,5c0.1,0.6,0,1.1-0.3,1.6c-4,4.9-9.2,3.9-14.7,3.7
			c-14.6-0.6-29.2-0.2-43.8-0.2c-8.3,0-16.6,0.1-24.9-0.1c-7.5-0.2-8.8-1.5-8.6-8.7C2.2,52.2,1.4,47.5,2.9,43z"/>
		<path class="st12" d="M2.9,43C3,47.9,3.4,52.8,3,57.7c-0.4,5.1,2.1,6.4,6.4,6.4c4.2,0,8.3,0,12.5,0c18.8,0,37.6,0,56.3,0
			c2.8,0,5.7-0.7,8.1,1.4c0.4,0.3,1.8,0.3,1.8,0.2c0.5-3.5,5-2.8,6-5.7c0.5-1.1,1.5-1.8,2.4-2.4c3.2-2,3.6-4.4,1.4-7.4
			c-0.9-1.3-2.2-2.6-0.9-4.4c3.6-0.3,7.3,1.8,10.9,0c0.6,0.5,0.7,1.2,0.7,1.9c-0.1,0.3-0.2,0.6-0.3,0.9c-3.6,6-3.6,6,0.7,11.4
			c0,2,0,4,0,6c-2.9,3.4-6.4,3.7-10.4,2.4c-6.3-2.1-6.4-2.1-8.4,4.1c-1,3.2-2.6,3.4-4.3,0.7c-1.9-3.2-4.7-3.7-8.1-3.7
			c-22.1,0-44.2,0-66.4,0c-5.6,0-6.1,0.3-5.9,5.9c0.2,4.5-1.6,8.4-2.4,12.6c0,4.9,0,9.9,0,14.8c1.6,2.9,1.1,6.3,1.9,9.4
			c0.2,2.4,0.9,4.9-1.2,6.9c-2.8-0.8-2.3-3.3-2.9-5.3c0-10,2.6-19.9,0.9-29.9c-0.4-8.7-0.7-17.4-1.1-26c0-3.3,0.1-6.6,0.1-9.9
			C2,46.4,0.7,44.1,2.9,43z"/>
		<path class="st12" d="M526.9,31.1c8.7-0.4,17.3-0.4,26,0c1.2,2.8-1,2.4-2.5,2.9c8.5-1.9,17.1-1.2,25.6-1.1c5.8,0.1,7,1,8.6,6.7
			c0,0.5-0.1,1-0.3,1.4c0.3,1.1-2.6,0.1-1.2,1.9c0.3,0.4,0.5,0.8,0.7,1.2c-0.7,4.8-2.4,6-7.2,5.7c-7.2-0.4-14.3-0.1-21.4,1.6
			c-0.9,0.9-1.8,1.7-3.1,2c-1.6,0.2-2.8-0.8-3.9-1.7c-0.7-0.7-1-1.6-0.9-2.6c-0.2-2.9,0.3-5.6,3.6-7.3c-3.3-2.3-5.9-4.7-9.5-1.6
			c-0.8,0.6-2.1,1-2.8,0.4c-3.7-2.9-7.3-2-11-0.2c-0.4,0.2-0.9-0.3-1.2-0.7c-0.7-1.2-1.1-2.7-0.4-3.7
			C527.1,34.4,527.4,32.9,526.9,31.1z"/>
		<path class="st13" d="M382,61c0.1-0.5,0-1.2,0.3-1.4c6-4.6,4.5-9.6,0.7-14.7c23.6,1.3,44.9-8.9,67.3-13.4c1.1-0.2,2.3-0.4,3.4-0.6
			c4.8-0.4,3.2,2.9,3.1,5.3c-3.1,4-7.6,5.1-12.2,5.9c-12.6,2.2-25.2,4.3-37.6,7.6c-2.1,0.6-4.2,1.1-6.4,1c-3.9-0.3-4.8,0.8-3.4,4.5
			c0.6,1.6,2.4,2.9,1.7,5c-5.1,1.4-10.5-0.6-15.5,1.3C383,61.5,382.5,61.4,382,61z"/>
		<path class="st14" d="M526.9,31.1c3.3,3-1.6,6,0.1,9c0.8,3,4.3,2.3,5.9,4.3c0.3,0.3,0.5,0.7,0.6,1.2c0,1.6-1.1,2.3-2.3,2.7
			c-2.8,0.8-3.2,2.8-2.6,5.2c0,0.5,0,1-0.1,1.4c-0.6,2.4,0.5,5.2-1.5,7.3c-0.6,0.1-1,0-1.4-0.4c-0.6-0.8-0.7-1.8-0.9-2.8
			c-0.8-4.1-2.8-6.1-7.4-6.2c-5.6-0.1-11.2-0.4-16.9,0.3c-5.8,0.7-8.7-2.1-9.4-8.2c0.4-1.5,0.5-2.9,0-4.4c-0.7-4.4,0-8.2,5.1-9.5
			C506.3,31,516.6,31,526.9,31.1z"/>
		<path class="st15" d="M467,72.9c0-3,0.1-6,0.1-9c0.5-3.7,5.2-5.1,5-9.3c-0.1-1.2,1.1-3.1-0.6-3.5c-2.2-0.5-1.9,1.7-2.2,3
			c-0.4,1.5,0.3,3.5-2.1,3.8c0-9.3-0.1-18.6-0.1-27.9c2.3,0,4.7,0,7,0c1.6,1.8,2.1,4.2,2.2,6.4c0.2,9.2,1,18.4-0.2,27.6
			c-2.7,2.5-6,4.6-7.2,8.5C468.5,73.1,467.6,73.2,467,72.9z"/>
		<path class="st16" d="M474.9,65c-0.1-11.6,0.6-23.3-1-34.9c9.6-1,9.6-1,10,9c0.3,0.5,0.2,0.9-0.3,1.1c-2.3-0.8-1.7-3-2.1-4.6
			c-0.3-1.2-1-2.2-2.4-2.2c-1.6,0-1.8,1.2-1.9,2.4c-0.1,3-0.2,6,0.1,8.9c0.2,2.1,1.2,3.4,3.4,3.6c1.5,0.2,3,0.3,3.9,1.8
			c0.8,1.7,0.7,3.5,0.6,5.3c-0.1,3.3-1.6,5.4-5.1,5.6c-2,0.1-3.1,0.9-2.8,3.1c0,4.6,0.1,9.3,0,13.9c-0.2,3.7,1,7.5-1.4,10.8
			c0,2.3-0.1,4.6-0.1,6.8c-1.2,0.2-1.5-0.6-1.4-1.4c0.7-7.8-1.5-15.5-1.1-23.2C473.4,69,473.3,66.8,474.9,65z"/>
		<path class="st17" d="M583.9,41c-0.7-5.4-3.2-7.3-9.1-6.8c-7,0.6-14.2-0.7-21.3,0.8c-1.6,0.3-3.2-0.6-4.8-1.3
			c1.2-1.2,4.1,0.3,4.2-2.6c10-0.4,20-0.4,30,0c4.7,3.1,5.5,5.3,3.8,10.4C585.6,41.9,584.7,41.9,583.9,41z"/>
		<path class="st18" d="M97,46.1c0.2,0.6,0.2,1.4,0.6,1.8c5.8,5.9,4,9.1-3.5,12.1H94c-1.1-1.3-1.1-2.6-0.1-3.9
			c0.1-1.5-0.6-2.7-1.8-3.3c-4.9-2.5-3.5-6.2-1.9-9.9c1.6,0.7,3.2,1.5,4.8,2.2C95.6,45.7,96.6,45.3,97,46.1z"/>
		<path class="st19" d="M455.9,37.1c-0.5-2.1,1.5-5.2-2.2-6.1c3.6-2,7.5-1,11.3-0.8c0,0.6,0.1,1.3,0.1,1.9c0.8,3.4,0.2,6.8,0.4,10.1
			c-0.2,0.7-0.4,1.3-1.3,0.8c-1.1-0.7-1.1-1.9-1.4-3c-0.4-1.6,0.6-4.6-1.6-4.6c-2.6,0-1.4,3.1-1.8,4.8c-1.2,5.2,1.7,6.7,6.1,7.1
			c0.2,2.1,0.1,4.2,0,6.3c-3.7-0.5-7.3-1-10.3-3.5C454.4,45.7,453.4,41.3,455.9,37.1z"/>
		<path class="st20" d="M483.9,40.1c0-0.3,0-0.6,0-1c3.3,0.7,5.3,0.1,5-4c-0.5-5.8,3.8-4.2,7-4.1c-4.1,2.2-4.3,6.1-4,10.1
			c-0.5,1.2-1.5,1.7-2.8,1.4c-0.4-0.2-0.8-0.4-1.2-0.6C486.7,41,484.9,41.4,483.9,40.1z"/>
		<path class="st9" d="M108.1,48c0-0.7,0-1.3,0-2c0.4-0.7,1.6-0.4,1.8-1.3c0.7-0.6,1.3-1.2,2-1.8c0.4,2.6,3.3,3.7,4.1,6l0,0
			c-1.7,1.3-2.8,0.1-3.9-1c-3,0.2-3.1,2.3-3.1,4.6c0,1.8,0,3.6,0,5.4c-3.6-0.8-3.3-3.5-2.8-6C106.6,50.6,107.3,49.3,108.1,48z"/>
		<path class="st21" d="M586.8,41c-0.4-3.7-1-7.3-3.9-9.9c1.7,0,3.3,0,5,0.1c2.7,2.6,0.8,6.1,1.8,9c-0.3,0.6-0.6,1.3-1,1.9
			c-0.3,0.3-0.7,0.5-1.2,0.4C586.9,42.2,586.4,41.8,586.8,41z"/>
		<path class="st22" d="M109.9,44.7c-0.2,1-1,1.2-1.8,1.3c-3.7,4-7.4,0.4-11.1,0c-0.8,0-1.5-0.2-2-1C100,45,105,44.9,109.9,44.7z"/>
		<path class="st23" d="M589.7,40.1c-0.6-3-1.2-6-1.8-9c3.4,0.4,1.4,3.3,2.2,4.9C589.9,37.3,589.8,38.7,589.7,40.1z"/>
		<path class="st24" d="M378.9,110.9c2.9,0.5,2.9,2.8,3,5c0.6,0.4,0.6,0.7,0.1,1.2c-0.8,2.2-2.3,2.7-4.6,2.7
			c-87.1-0.1-174.2,0.2-261.3-0.5c-7-0.1-14.5-2.8-22-2.7c4.2-1.6,8.5-0.6,12.8-0.7c3.5-0.1,3.5-1.6,2.2-4c-0.5-1.1,0.1-1.6,1-2
			c4.4-4.1,6.4,0.9,8.9,2.6c3.4,2.4,5,2.4,7.1-1.6l0,0c0.7,0.3,1.8,0.3,2.2,0.8c2.8,3.6,5.5,3.4,8.3,0.2c1.2-1.3,2.3-0.6,3.5,0
			c1.2-0.7,2-0.7,2,1c-1.1,1.6-0.6,2.2,1.1,1.4c2.7-1.3,5.3-2.9,7.9-4.4c1.8,1.7,3,0.5,4-1c0.3-0.3,0.7-0.7,1-1
			c2.8-0.7,5.8-2.1,7.2,2.2c0.2,0.6,1.2-0.6,1.8-1.2c0.3-0.3,0.7-0.7,1-1c2.3-0.5,4.7-1.5,7,0l0,0c-0.6,3.6,2.7,2,4,3
			c0.9,0.4,2,0.5,2.6,1.2c3.3,4.1,5.5,2.3,7.4-1.2c-0.6-0.5-1.6-0.8-1-2c0-0.3,0-0.7,0-1c2.8,0,6.3-3,7.8,2.2
			c0.2,0.8,1.4-0.7,2.2-1.1c0-0.4,0-0.7,0-1.1c3,0,6.7-2.7,8.3,2.4c0.1,0.3,1.8,0.1,2.7-0.4c2.3-0.1,2.5,3.4,5,3c1.7-0.6,3-2.2,5-2
			c1.5-0.2,2.8,0.3,4,1c0.9-0.2,1.2,0.1,1,1c1.3,3.8,3.1,0.5,4.4,0.1c1.5-0.4,2.5-2.8,4.6-1.1c1.6-1.1,3.9-1,5-3
			c0.3-0.3,0.7-0.7,1-1c6.5-1.6,7.4-0.9,6,5c-1.1,1.5-0.7,2,1.1,1.5c0.6-0.2,1.3-0.3,1.9-0.5c3.6-1.1,7.4-1.8,10-5
			c0.3-0.3,0.7-0.7,1-1c2-0.5,4-0.8,6-1c0.8,0,1.6,0.2,2,1c0.1,0.9-0.4,1.8-0.5,2.7c1.4-0.1,1.8-1,2.5-1.7c0-0.4,0-0.7,0-1.1
			c2.8,0,6.5-3,7.9,2.3c0.2,0.8,2.2-0.4,3.1,0.7c1.3,0,2.1,0.7,3,1.5c3,2.9,4.9,2.5,7-1.5l0,0c1.3,0,2.1,0.7,3,1.5
			c3,2.9,4.9,2.5,7-1.5c-0.3-0.2-0.5-0.4-0.3-0.6c0.1-0.2,0.2-0.3,0.3-0.3c0-0.3,0-0.7,0-1c2.5-1.5,5.1-3.8,6.8,1.1
			c0.4,1.2,1.4-0.6,2.1-1c0.3,0,0.7,0,1,0c0.5-0.6,1.1-0.6,1.8-0.4c1.1,0.6,1.8,1.9,3,2.4c0.7,0.5,1.6,0.9,1.1,2
			c0.5,1.6,0.4,1.4,1.6,1.2c2.3-0.4,3.4-4.2,6.4-2.2c1.7-0.9,4-0.9,5-3c0.3-0.3,0.7-0.7,1-1c2.3-0.5,4.7-1.5,7,0l0,0
			c0.7,0.7-0.5,2,0.8,2.3c0.4,0.1,0.9-0.8,1.3-1.3c0.3-0.3,0.7-0.7,1-1c2.7,0.2,6.3-3.3,7.7,2.3c0.3,1.2,1-0.6,1.3-1.3
			c2.4-4.2,5.4-4.8,9-1.4c0.5,0.5,1.1,1.4,2,0.4c2.6,0.4,6.4-3.2,7.8,2.2c0.2,0.8,1.4-0.7,2.2-1.1c0-0.4,0-0.7,0-1.1
			c2.8,0.1,6.5-3.1,7.8,2.4C376.1,111.4,378,110.1,378.9,110.9z"/>
		<path class="st25" d="M382,117.1c0-0.4,0-0.8-0.1-1.2c4.1,0,8.3,0.1,12.4-0.1c1.6-0.1,4.2,1,4.3-1.8c0.1-2.9-2.5-1.8-4.1-2.1
			c-4.2-0.6-8.6,1.1-12.6-1c2.3-1.9,5-1.4,7.6-1.4c3.2,0.1,6.3-0.4,9.4-0.6c6.8-5.5,14.2-2.4,21.4-1.7c10.5,1.1,20.9,2.6,31.4,3.5
			c3.4,0.3,6.5-2.4,10.4-1.3c1.8,0.5,2.6-2.5,3.8-4.4c0,2.7,0,5.5,0,8.3c2.4-0.2,2.2-2.4,3.7-2.9c2.5-0.8,4.3-0.9,4.3,2.4
			c-0.1,2.8,0,5.6-0.4,8.4c-0.4,2.7-2.5,4-5.1,3.7c-2.9-0.3-1.1-2.8-1.5-4.3c-0.5-1.7,1.1-4.2-2-4.8c-0.8,0-1.5-0.5-2.3-0.8
			c-1.8-0.5-3.9-2.8-5.2,0.5c-1.3,3.3,0.2,6.3,3.5,7c1.7,0.3,3.2,0.6,4.1,2.3c1.8,1.6,0.6,3.8,1.1,5.7c-3.9,1.1-7.7,1.7-11.1-1.1
			c-2.2-1.8-4.7-0.6-7.1-0.6c-12.9-3.3-25.8-6.2-38.6-9.9C400.2,116.5,391.2,116.5,382,117.1z"/>
		<path class="st26" d="M483,130.9c0-2.3,0-4.6,0-7c-7.2,2.3-9.2,0.4-7.7-6.7c0.2-1.1,0.4-2.2,0.6-3.4c3.5-1.4,6,0.4,8.4,2.6
			c0.7,0.8,0.8,2.4,2.3,2.2c1.2-0.2,1-1.5,1.1-2.5c0.1-1.5,0-2.9,0.4-4.4c1.1-2.5,3.1-3.2,5.3-2c7.7,4,16.1,3.7,24.4,3.7
			c7.2,0,9.3,2.4,9.1,9.8c-0.9,2.7-2.9,2.1-4.9,1.7c-7.6-1.2-15.2-0.5-22.9-0.5c-1.4,0-3.5,0.1-3.5,1.9c-0.1,2.1,2,1.8,3.4,1.8
			c8.5-0.1,16.9,0.6,25.4-0.4c2.7-0.3,5.3,0.4,7.9,0.4c17.1,0,34.2,0.2,51.3-0.1c3-1.1,2.8-2.4,0.4-4c-1.5-1-3.2-0.9-4.8-0.9
			c-6.5,0-12.9,0-19.4,0c-3,0-5.6-0.4-7.3-3.3c-0.9-2.1-4-2.5-4.1-5.3c1-2.3,2.6-3.4,5.1-3c9.5,2.9,18.9,2.9,28.3-0.3
			c2.6-0.9,5.1-2.7,7.9-0.5c0.1,4.3,0.2,8.7,0.3,13c-0.5,6.8-0.5,6.9-7.3,6.9c-29.5,0-59-0.1-88.4,0.1c-4.3,0-6.3-0.8-5.6-5.4
			c0.3-1.8,0.4-3.7-2.6-3.6c-3.1,0-2.3,2.1-2.5,3.8C483.5,127.5,484.2,129.3,483,130.9z"/>
		<path class="st27" d="M4,119.2c0-2.4,0.1-4.8,0.1-7.3c25.7,0.9,51.5,0.2,77.2,0.5c2.5,0,5,0.4,6.7,2.5c1.5,1.1,0.8,2.7,1.1,4.2
			c-0.9,1.1-2.1,0.8-3.2,0.8c-26.4,0-52.8,0-79.2,0C5.8,119.9,4.7,120.2,4,119.2z"/>
		<path class="st26" d="M447.8,129c2-2.3,5.2-3.4,7-1.3c3.4,3.9,7.2,3.2,11.3,3c5.6,0.1,11.3,0.2,16.9,0.3
			C471.1,131.8,459.3,133.4,447.8,129z"/>
		<path class="st28" d="M589.7,110.9c-1.6,0.1-3.4-0.4-4.9,0.6c-8.7,5.5-18.4,2.8-27.7,3.4c-2.1,0.1-3.3-1.3-4.2-3
			c0.1-3.6,2.9-3.2,5.1-3.2c6.3-0.2,12.7-0.1,19-0.1c2.2,0,4.4,0,6.4-0.9c2.1-1,3.9-2.6,3.1-5c-1.1-3.3-1.8-6.8-3.3-9.9
			c-1.5-3-4-4.3-7.3-4.3c-4.5-0.1-9-0.1-13.5,0c-3.6,0.1-6.9-0.5-10.2-2c-2.8-1.3-5.9-2.2-5.9-5.9c0-3.8,3.1-4.9,6.2-5.3
			c-0.1-0.9-0.3-1.3-0.7-1.6c-7.7-5.6-7.7-6.5-0.1-12.9c1.2,0,2.1,0.6,2.9,1.4c1.3,2.5,3.7,2.5,6.1,2.5c5.2,0.1,10.3-0.1,15.5,0.1
			c6.3,0.2,8.3,1.6,8.9,7.7c0.7,6.5,2.9,12.5,4.8,18.7c0.1,6.3,0.2,12.7,0.3,19C589.9,110.3,589.8,110.6,589.7,110.9z"/>
		<path class="st20" d="M586.8,41c0.4,0.4,0.7,0.7,1.1,1.1c2.1,3.2,2.4,6.8,0.1,9.6c-2,2.4-2.5,3.9,0.3,5.8c0.8,0.5,0.9,1.7,1.5,2.5
			c0.1,0.6,0.2,1.3,0.3,1.9c-0.1,0.7-0.2,1.4-0.3,2.1c-10.8-6-22.6-3.3-34.1-3.8c-1.6-0.1-2.7-1.2-4.1-1.4c-2-0.4-4-1.2-3.7-3.6
			c0.3-2,2.2-2,3.8-2.1c0.7-0.7,1.5-1.4,2.2-2c7.4-2.1,15-0.9,22.5-1.2c1.3,0,2.6,0.5,3.9,0.2c4.2-1,5-3.2,2.5-7l0,0
			c-0.6-1.1,0.5-1.4,1-2l0,0C584.9,41,585.8,41,586.8,41z"/>
		<path class="st29" d="M589.8,91c-3.9-4.7-5.3-10.4-5.8-16.3c-0.7-8-1.2-8.6-9.2-8.6c-5.6,0-11.3-0.1-16.9,0.1
			c-3.1,0.1-4.3-1-3.9-4c0.5-2.1,2.3-1.5,3.6-1.5c6.5,0,13-0.1,19.5,0c7.1,0.2,10.8,4,11.4,11.2c0.4,4.1-0.2,8.3,1.3,12.2
			C589.7,86.3,589.7,88.6,589.8,91z"/>
		<path class="st30" d="M589.7,84c-1.2-0.2-2.6-0.6-2.2-2.1c1.3-4.2-1-8.1-0.8-12.3c0.2-3.7-4.3-7.6-8.2-7.6c-8.2-0.1-16.4,0-24.7,0
			c-0.8-0.1-1.6-0.2-2-1c-0.2-1-0.2-2,0-3.1c0.2-0.3,0.4-0.6,0.5-0.8c4,3.2,8.7,0.8,13.1,1.7c5,0.9,10.3,0.3,15.4,0.2
			c4-0.1,6.1,3,8.8,5C589.7,70.7,589.7,77.3,589.7,84z"/>
		<path class="st31" d="M589.8,60c-2.3-1.4-3.7-4.1-7.6-4.8c5.9-3.4,8.1-7.5,5.7-13.2c0.3,0,0.5,0,0.8,0
			C591.3,47.9,589.3,54,589.8,60z"/>
		<path class="st32" d="M3.3,88c-0.2-5.8,1.4-11.5,0.9-17.3C4,68.4,5.5,68,7.4,68c25,0,50,0.1,75,0c4.4,0,4,4.2,5.7,6.4
			c1.5-1.1,0.9-2.3,1-3.4c0.2-5,3.3-7.6,7.3-5.2c4.5,2.7,8.5,1.9,12.7,0.1c0,3-0.2,6,0,9c0.3,4.7-2.8,6.9-6.3,8.6
			c-2.7,1.3-4.4-0.3-5.7-2.5c-1.7-2.8-3.3-2.4-4.7,0.2c-2.4,4.2-3.8,7.4-10.8,5.3C74.3,84.3,65.9,86,58,86c-12.6,0-25.3,0-37.9,0
			c-3.5,0-6.9,0.2-10.4-0.8C7.1,84.5,4.2,84.5,3.3,88z"/>
		<path class="st33" d="M525.9,122.9c-0.5-7-1.5-8-8.3-8c-8.6,0-17.3,0.7-25.1-4.1c-2.4-1.5-3.3,0-3.6,2.2c-1,2.2-1.6,4.8-5,3.9
			c-2.5-1.3-5.2-2.5-8-3c-0.1-2.4-0.2-4.1,3.4-3.2c4.3,1,9.1-3.3,9.6-7.8c-2.7-6-1.7-12.2-0.7-18.3c0.3-0.6,0.7-0.8,1.4-0.8
			c1.5,1,0.8,2.5,0.7,4.2c1-5.9,2-11.5,2.4-17.2c0.3-5.1,2.5-6.9,7.6-7.2c7.7-0.4,15.4-0.7,23.2-0.3c2,1,1,3.4,2.3,5.1
			C525,66,524.1,64,526,62c0.3-0.1,0.6-0.1,0.9-0.1c1.6,0.6,2.8,1.8,4.1,3c2.2,2.3,1.8,4.5-0.3,6.5c-2,2-2.5,3.8-0.4,5.9
			c1.1,1.1,1.9,2.7,1.1,4.1c-1.7,3-2.4,5.9-2.4,9.4c0,2.4-2.6,3.8-4.2,1.7c-4.7-6.2-11-4.2-17-4.2c-11.9-0.1-12.8,0.8-14.3,12.6
			c-0.7,5.6,1,7.6,6.8,7.7c5.8,0.1,11.6,0,17.5,0c2.1,0,4.3-0.1,6.6,1.4c0.2-3.8-0.1-7.2,0.2-10.6c0.1-1.6,0-3.8,2.3-3.8
			c2.2,0.1,2,2.3,2.1,3.9c0.1,1.1-1.5,2.6,1.6,2.8c2.8,0.2,3.3,3.4,1.4,5.8c-0.9,1.1-2.3,1.9-2.4,3.6c-0.2,1.6-0.6,3.2-0.7,4.9
			c0.1,1,0.5,1.9,0.9,2.7c0.8,1.5,2.6,3.1,0.6,4.7C528.8,125.5,527.2,124.3,525.9,122.9z"/>
		<path class="st34" d="M88.1,114.9c-2.7-0.9-5.5-1-8.3-1c-22.9,0-45.8,0-68.7,0.1c-2.6,0-4.9-0.3-6.9-2c-1.9-2.9-0.7-6-0.8-9.1
			c1.9,1.5,4.1,1.1,6.2,1.1c22.5,0,44.9,0,67.4,0C88.1,104,88.1,104,88.1,114.9z"/>
		<path class="st35" d="M464.9,43c0-3.7,0.1-7.3,0.1-11c1.5,1.5,0.9,3.5,0.9,5.2c0,14.7,0.2,29.5-1,44.2c-0.1,1.5-0.1,3,0.2,4.5
			c0.2,1.4,1.6,3.1,0.3,4.2c-1.7,1.5-2.3-1-3.6-1.5c-0.3-0.1-0.8-0.3-0.9-0.3c-3,4.5-6.7,0.6-10,0.6C437,88.8,423,90,409.2,87.8
			c-3.6-0.6-9.2,1.6-10.4-4.8c0-0.3,0-0.7,0-1c3.7-1.4,7.2,0.5,10.8,0.5c13.6,0.1,27.2,0,40.9,0c4.1,0,6.2-1.5,5.9-5.9
			c-0.3-3.9,1.1-7.2,4.5-9.4c1.3-0.9,2.1-2.1,2.4-3.6c0.7-3.2-0.9-6.6,1.5-9.5c0-2.3,0-4.7,0.1-7C463.8,45.7,463.8,44.4,464.9,43z"
			/>
		<path class="st36" d="M474.9,65c0,8.7,0,17.4,0.1,26.2c0,1.6-0.6,3.3,0.9,4.6c-0.1,2.8,0.5,5.7-1.5,8.5c0-7.1,0-14.2,0-21.2
			c-0.9-0.1-1.3-0.3-1.5-0.1c-1.8,0.8-2.2,4.1-4.5,3.3c-2.5-1-1.2-3.8-1.3-5.8c-0.2-2.5,0-5,0-7.4c1.1-0.5,2-1.3,1.9-2.6
			C468.4,65.7,471.5,65.2,474.9,65z"/>
		<path class="st37" d="M110.1,109.9c-0.3,0.7-0.7,1.3-1,2c-0.3,0-0.7,0-1,0c-4.5,2.3-8.7-0.7-13-1c-2.6-7.1-1.4-9,5.8-9
			C109.9,101.9,110,102,110.1,109.9z"/>
		<path class="st38" d="M399,108.9c-0.9,2.1-2.8,2-4.6,2c-4.1,0-8.2,0-12.4,0c0.6-2.6-1.7-6.2,1.5-7.7c4.2-2,9.2-2,13.6-0.9
			C400.2,103.2,398.6,106.6,399,108.9z"/>
		<path class="st39" d="M489,83.9c0,6.3,0,12.7-0.1,19c-3.9,0.5-5.3-1.4-5-5.1c0.2-2.6,0-5.2,0-7.8c-2.3-3.2-1.1-6.2,0.5-9.1
			c1.9-3.5,2.6-7,0.7-10.7c-0.4-1.3-0.5-2.7-0.4-4.1c0.3-1.9,0.6-3.9,2.4-5.2c2.5,0.8,2.1,3.2,2.9,5C490,71.9,491.6,78,489,83.9z"/>
		<path class="st36" d="M485.9,70c3.6,3.5,2,7.3,0.1,10.5c-1.9,3.1-2.1,6.2-2.1,9.5c-3,2.4-5.3-0.4-8-1c0-3.7,0-7.3,0-11
			c3.9-0.6,7.4-1.4,7.2-6.6C483.1,70.2,484.2,68.9,485.9,70z"/>
		<path class="st26" d="M464.9,124.9c-1.3-0.3-2.6-1.1-3.8-0.9c-4.7,0.7-5.8-1.7-5.2-5.7c0.3-2-1.1-5.3,1.1-5.8
			c2.8-0.7,6.2,0,7.9,3.4C464.9,118.9,464.9,121.9,464.9,124.9z"/>
		<path class="st40" d="M467,58.1c1.4-1.6,0.8-3.5,0.8-5.2c0.1-2.7,1.3-4.1,4-3.7c2.9,0.4,2.1,2.5,1.8,4.2c-0.8,5.1-1,5.3-6.6,10.6
			C467,62,467,60,467,58.1z"/>
		<path class="st41" d="M257.1,67c0.6-0.5,1.2-1.1,1.9-1.5c1.9-1.3,3.3-5.1,5.4-3.8c1.6,1,2.8,4.4,2.6,7.2c-0.7,0.6-1.4,0.7-2.1,0.1
			c-1.4-0.6-2.9-1.1-4.6-1.8c0.1,0.8-0.1,1.4,0.1,1.6c1.3,1.5,1.6,2.7-0.1,4.2c-1.7,1.5-2.6,0.1-3.8-0.6c-3.1-1.8,0.3-2.3,0.6-3.5
			C257.5,68.3,257.2,67.6,257.1,67z"/>
		<path class="st41" d="M336,71c3.1-1.6,3.2-5.5,5.9-7.6c2.5-1.9,3.8-3.1,4.6,1c0.2,0.9,0.9,1.7,1.4,2.5c-1.9,2.5-4.2,1.5-6.6,0.1
			c-0.1,2.4,2.9,4.3,0,6.1C338.6,74.7,337.7,71.8,336,71z"/>
		<path class="st42" d="M115.1,67c1.9,0.1,2.7-1.6,4.1-2.4c1.7-0.9,3.6-1.1,5,0.3c1.5,1.6,0,2.9-1.1,4.1c-1.7,0.3-2.6-2.1-4.8-1.4
			c1,2.1,2.8,5-0.7,5.8c-2.4,0.5-4.7-1.3-4.4-4.5C112.7,67.2,114.4,67.5,115.1,67z"/>
		<path class="st43" d="M318.1,67c0.9-0.7,1.7-1.6,2.7-2.2c1.7-1,2.6-4.7,4.7-2.9c1.7,1.5,2,4.8-0.5,7c-1.5-0.4-2.3-2.6-4.4-1.5
			c-1,1.7,3.5,2.1,1,4.7c-2.7,2.8-4.4-1.1-6.6-0.2l0,0C314.4,69.3,319.8,70.3,318.1,67z"/>
		<path class="st44" d="M186.9,68.1c0.9-1.4,1.9-2.9,3.6-3c2.5-0.2,1.6-2.4,2.6-4.3c1.1,2.4,2,4.3,2.9,6.2c-2,1.9-4,2.8-6.6-0.3
			c0.2,2.9,2.8,5.1-0.4,6.8c-1.7,0.9-2.5-0.3-3.4-1.1C183.1,70.1,187.1,69.6,186.9,68.1z"/>
		<path class="st45" d="M348.9,68c2.2-4.2,5.1-5.6,9.1-2c-1.5,3.1-3.6,3.3-6.4,0.7c-0.4,2.6,2.9,5.1-0.7,6.7
			c-1.7,0.8-2.5-0.5-3.4-1.3C345.2,70,348.9,69.6,348.9,68z"/>
		<path class="st46" d="M265,69c0.7,0,1.4,0,2.1-0.1c1.3-1.3,2-3.2,3.9-3.9c1.4,1.1,2.8-1.2,4.1,0c1.3,0,1.9,0.7,1.9,1.9
			c-1.9,2.5-4.1,1.5-7.2-0.3c1.2,3,3.3,6-0.3,6.7C267.4,73.8,264.8,72.3,265,69z"/>
		<path class="st47" d="M256,108.9c0.4,0.9,1,2.2-0.2,2.5c-3.3,0.8-6.1,3.7-9.9,2.5c1.4-1,2-3,4.3-2.6c1.3,0.2,2.3-1.1,2.3-2.1
			c-0.2-1.8-1.6-1.1-2.6-0.7c-0.8,0.3-1.6,0.6-2.3-0.1c-0.5-0.6-0.3-1.2,0.2-1.7c0.8-0.8,1.6-2,2.9-1.3
			C252.6,106.5,254.3,107.8,256,108.9z"/>
		<path class="st48" d="M204.1,65c0.8,0,1.6,0.2,2,1c-1.5,3-3.6,3.4-6.4,0.7c-0.5,2.6,2.8,5.1-0.7,6.7c-1.7,0.8-2.5-0.5-3.4-1.2
			c-2.3-2.1,1.4-2.6,1.3-4.1c0.7-1.3,1.7-2.4,3.1-3.1C201.4,66.1,202.7,63.8,204.1,65z"/>
		<path class="st49" d="M217,110.9c-1.4,1.2-2.5,3.4-5,2c-0.2-0.8-0.8-1.8-0.5-2.3c2.3-3.1,0.6-2.9-1.7-2.1c-1,0.3-1.9,0.5-2.7-0.3
			c-0.6-0.6-0.2-1.2,0.4-1.5c1.1-0.6,1.9-2.2,3.4-1.2C213.1,107.1,215.7,108.3,217,110.9z"/>
		<path class="st47" d="M288,110.9c-2.1,0.3-5.6,5-5.4-1.8c0-1.3-1.1-0.8-1.9-0.5c-1.2,0.4-2.4,0.5-3-0.8c-0.2-0.4,0.3-1.2,0.7-1.6
			c0.9-1.1,1.9-1,3.1-0.4C284.1,106.9,286.6,108.3,288,110.9L288,110.9z"/>
		<path class="st50" d="M186,109c0.3,0.7,0.7,1.3,1,2c-2-0.4-6.5,5.5-5.5-2.3c0.1-0.7-1.4-0.1-2.2,0.1c-1,0.2-2,0.2-2.6-0.9
			c-0.4-0.7,0.2-1.2,0.6-1.7c0.7-0.8,1.6-1.3,2.6-0.7C182,106.6,184,107.8,186,109z"/>
		<path class="st51" d="M378.9,110.9c-3.6,1.8-3.6,1.8-4.5-1.9c-0.3-1.2-1.2-1.1-1.9-0.8c-1.7,0.9-3.1,0.6-4.6-0.3
			c4-5.7,6.8-0.4,10,1.1c0.5,0.2,0.8,0.5,1,1C378.9,110.3,379,110.6,378.9,110.9z"/>
		<path class="st52" d="M327,108.9c1,5.4-2.6,3.3-5,3c0.6-1,1.2-1.9,1.7-2.8c-0.9-1.6-1.8-0.4-2.6-0.3c-1,0.1-2,0.4-2.6-0.7
			c-0.2-0.3,0.1-1,0.3-1.3c0.7-0.9,1.5-2.1,2.8-1.4C323.5,106.4,325.2,107.7,327,108.9z"/>
		<path class="st38" d="M347,108.9c0.2,0.8,2.4,1.4,0.2,2.4c-1,0.5-1.6,1.8-3,1c-2.3-1.3,0.4-2.8-0.2-4.4c-2,0.1-4.1,1.6-6-0.1
			c1.2-3,3.5-3,6-2l0,0C345,106.9,346,107.9,347,108.9z"/>
		<path class="st51" d="M125.7,107.6c2.9-2.3,7.9-1.2,9.5,2c0.5,1,0.2,1.6-0.6,2c-1,0.5-1.9,1.5-3.2,0.9c-0.8-0.4-1.3-1.1-0.8-2
			c0.3-0.7,1.4-1.1,0.7-2.1C129.4,108.6,127,108.2,125.7,107.6z"/>
		<path class="st51" d="M196,109c0.9,3-2,3.7-3.3,3.4c-2.9-0.5-0.2-2.5-0.2-4c-2.1-0.9-4.5,1.5-6.5-0.5
			C190.1,101.9,192.8,108,196,109z"/>
		<path class="st52" d="M222,112.9c-0.3-0.3-0.7-0.7-1-1c0.5-1.1,1-2.2,1.5-3.4c-1.9-1.5-3.9,1.6-5.9-0.8c1.1-1.3,2.1-3.4,4.3-2.1
			c2.1,1.1,5.1,2.2,5.3,4.7C226.4,112.2,223.8,112.6,222,112.9z"/>
		<path class="st53" d="M278,110.9c-1.2,0-2.1,0.7-3,1.4c-0.8,0.5-2.2,0.2-2.1-0.3c1.7-6.8-4.8-1.5-5.9-4.1
			C270.9,104.3,273.2,104.9,278,110.9z"/>
		<path class="st52" d="M307,108.9c1.4,3.1-1.3,3.5-2.9,3.6c-2.1,0.2-1.5-1.3-0.8-2.6c1-1.7-0.2-2-1.5-1.8s-2.5,0.5-3.8,0.8
			c-0.1-3.4,1.6-4.3,4.5-2.9C304.1,106.8,305.5,107.9,307,108.9z"/>
		<path class="st52" d="M310,109c-0.7,0-1.3,0-2,0c-1-3,2-3.8,3.1-3.5c2.4,0.7,5.1,2.1,6,4.6c0.8,2.1-2.1,1.9-3.2,2.9
			c-0.4-0.8-1.2-1-2-1C311.2,111,311.7,109.3,310,109z"/>
		<path class="st53" d="M236,108.9c0.8,5-2.7,3.1-5,3c0.5-1.1,1-2.3,1.5-3.4c-1.9-1.5-3.9,1.7-5.6-0.5
			C229.7,104.5,228.2,103.7,236,108.9z"/>
		<path class="st52" d="M155.1,108.9c1,1.7,0.1,3-1.4,3.5c-2,0.7-2.5-0.9-2.6-2.5c1.6-2.5-0.3-1.9-1.5-1.7c-1.1,0.2-2.2,1.3-3-0.2
			c-0.2-0.4,0.3-1.2,0.7-1.7c0.9-1.2,2.1-1.5,3.4-0.6C152.1,106.8,153.6,107.9,155.1,108.9z"/>
		<path class="st53" d="M142.1,112.9c-0.4-0.8-1.2-1-2-1c5.4-8.6-5,0-4-4.1c0.5-1.3,1.7-3.1,3.5-2.4c2.2,0.9,4.8,2.1,5.7,4.5
			C146,112.1,143.2,111.9,142.1,112.9z"/>
		<path class="st52" d="M126.1,110.9c-0.5,0.1-1,0.1-1.4,0.3c-1.1,0.4-1.9,2.1-3.4,1.1c-2-1.4,0.8-2.5,0.3-3.8
			c-1.8-1.5-3.8,1.8-5.5-0.4C118.9,104.3,121.3,105,126.1,110.9C126,110.9,126.1,110.9,126.1,110.9z"/>
		<path class="st53" d="M298,110c0,0.3,0,0.6,0,1c-0.3,0.1-0.7,0.1-1,0.1c-1.4,0.1-2.2,2.5-3.9,1.3c-1.8-1.3,1.4-2.5,0.2-4
			c-1.7-1.2-3.7,1.8-5.4-0.2c2.5-3.4,2.6-3.4,5.7-1.4C295.1,107.8,296.5,108.9,298,110z"/>
		<path class="st53" d="M368,109c0.9,3-2,3.7-3.3,3.4c-2.9-0.6-0.2-2.5-0.2-4c-2.1-0.9-4.5,1.5-6.5-0.5
			C361.9,103.1,364.8,107.2,368,109z"/>
		<path class="st53" d="M165,108.9c1.1,2.1-0.1,3.3-1.8,3.6c-1.6,0.3-2.2-1-1.7-2.6c0.6-1.7-0.5-2.2-1.8-1.7
			c-1.4,0.5-2.5,0.4-3.7-0.3C159.8,101.8,162.1,107.8,165,108.9z"/>
		<path class="st53" d="M207,109.9c-1,0.8-2,1.6-3,2.4c-0.8,0.6-2.2,0.1-2-0.3c2.4-6.9-3.7-2-5-3.7c-0.2-0.2-0.6-0.3-0.9-0.4
			C200.8,102.7,203.6,108.1,207,109.9z"/>
		<path class="st49" d="M243,112.9c0.6-4.8-3-4.6-6-5c1-1.4,1.7-3.4,4.2-2.4c2.2,0.9,4.3,2.4,5,4.5
			C246.8,111.9,244.8,112.7,243,112.9z"/>
		<path class="st18" d="M108.1,48c-0.1,3.4-2.6,7,1,10c0,0.7,0,1.3,0,2C102,56.2,101.8,54.3,108.1,48z"/>
		<path class="st54" d="M300,77c0.5,0.8,1.2,1.6,1.6,2.4c0.9,2-0.4,3.2-1.8,4c-1.8,1-2.6-0.9-3.6-1.8c-1.5-1.4,0-2.2,0.8-3.2
			C297.8,77.6,298.8,77,300,77L300,77z"/>
		<path class="st55" d="M158,77c0.5,0.8,1.2,1.6,1.6,2.4c0.9,2-0.4,3.2-1.8,4c-1.8,1-2.6-0.9-3.6-1.8c-1.6-1.4,0-2.2,0.8-3.1
			C155.9,77.6,156.8,77,158,77C158.1,77,158,77,158,77z"/>
		<path class="st56" d="M148,77c0.5,0.8,1.2,1.6,1.6,2.4c0.9,2-0.4,3.2-1.8,4c-1.8,1-2.6-0.9-3.6-1.8c-1.6-1.4,0-2.2,0.8-3.1
			C145.9,77.6,146.8,77,148,77L148,77z"/>
		<path class="st55" d="M310,77c0.4,0.9,0.8,1.8,1.3,2.7c1,1.8-0.1,2.9-1.4,3.7c-1.8,1.1-2.6-0.7-3.7-1.6c-1.6-1.4-0.1-2.3,0.7-3.2
			C307.8,77.6,308.7,77,310,77L310,77z"/>
		<path class="st57" d="M168,77c0.6,1,1.4,1.8,1.8,2.9c0.5,1.7-0.7,2.8-1.9,3.5c-1.8,1-2.6-0.8-3.6-1.7c-1.6-1.5,0-2.1,1-2.9
			C166.1,78.1,166.7,76.9,168,77L168,77z"/>
		<path class="st58" d="M320,77c0.6,1.1,1.6,2.2,1.8,3.4c0.3,1.6-1,2.9-2.4,3.2c-1.7,0.5-2.5-1.2-3.4-2.3c-1.2-1.4,0.3-2,1.1-2.7
			C317.9,78,319,77.5,320,77L320,77z"/>
		<path class="st56" d="M138.1,77c0.4,0.9,0.6,1.9,1.1,2.6c1.3,1.7,0.2,2.7-1,3.6c-1.8,1.3-2.6-0.4-3.6-1.3
			c-1.5-1.2-0.9-2.1,0.2-3.2C135.7,77.9,136.6,76.9,138.1,77L138.1,77z"/>
		<path class="st56" d="M209,77c0.4,0.9,0.6,1.9,1.1,2.6c1.3,1.7,0.1,2.7-1,3.6c-1.8,1.3-2.6-0.4-3.6-1.3c-1.5-1.2-0.9-2.1,0.2-3.2
			C206.7,77.9,207.6,76.9,209,77L209,77z"/>
		<path class="st59" d="M217.7,77.2c1.7,0.7,2.6,2.1,3,3.6c0.3,1.4-1.1,2.6-2.3,2.7c-1.8,0.2-3.2-1.4-3.6-2.8
			C214.4,79,216.4,78.3,217.7,77.2z"/>
		<path class="st55" d="M229,77c0.4,0.9,0.6,1.9,1.1,2.6c1.3,1.7,0.2,2.7-1,3.6c-1.8,1.3-2.6-0.4-3.6-1.3c-1.4-1.2-0.9-2.1,0.2-3.2
			C226.7,77.9,227.6,76.9,229,77L229,77z"/>
		<path class="st55" d="M240.9,80.7c-0.5,1.5-1.3,3-2.9,2.9c-1.7,0-3.3-1.6-3.3-3.1c0-1.7,2.2-2.5,3.6-2.8
			C240,77.4,240.7,79.1,240.9,80.7z"/>
		<path class="st60" d="M249,77c0.5,1.5,2.6,2.4,1.7,4.4c-0.5,1.1-1.3,2.1-2.5,2.2c-1.7,0.2-2.7-1.3-3.4-2.5
			c-0.9-1.5,0.9-1.8,1.7-2.4C247.4,78.1,248.2,77.6,249,77L249,77z"/>
		<path class="st51" d="M280,77c0.4,0.9,0.6,1.9,1.1,2.6c1.3,1.7,0.2,2.7-1,3.6c-1.8,1.3-2.6-0.4-3.6-1.3c-1.5-1.2-0.9-2.1,0.2-3.1
			C277.7,77.9,278.6,77,280,77L280,77z"/>
		<path class="st55" d="M290,77c0.4,0.9,0.6,1.9,1.1,2.6c1.3,1.7,0.2,2.7-1,3.6c-1.8,1.3-2.6-0.4-3.6-1.3c-1.5-1.2-0.9-2.1,0.2-3.2
			C287.6,77.9,288.5,77,290,77L290,77z"/>
		<path class="st58" d="M371,77c0.4,0.9,0.6,1.9,1.1,2.6c1.3,1.7,0.2,2.7-1,3.6c-1.8,1.3-2.6-0.4-3.6-1.3c-1.5-1.2-0.9-2.1,0.2-3.2
			C368.6,77.9,369.5,77,371,77L371,77z"/>
		<path class="st61" d="M153,72c-0.1,1.9,3.3,2.9,1,5.5c-2.5,2.9-4-1-6-0.6l0,0C148.9,74.5,150.7,73,153,72L153,72z"/>
		<path class="st56" d="M261.5,80.3c-0.6,1.7-1.7,3.1-3.3,3.2c-1.7,0.2-3.5-1.5-3.3-2.9c0.1-1.2,2-2.6,3.4-3
			C259.8,77.3,260.6,79.1,261.5,80.3z"/>
		<path class="st61" d="M158.1,77c-0.2-1.9,1.8-2.2,2.6-3.4s1.6-1.6,2.7-0.3c0.8,1,2.2,1.7,1.3,3.3c-0.7,1.1-1.4,2.4-3,1.9
			C160.3,78.2,159.5,76.8,158.1,77C158,77,158.1,77,158.1,77z"/>
		<path class="st55" d="M249,77c1.2-2.1,2.8-4,5.3-3.9c0.7,0,3,1.5,1.6,3.3c-1,1.2-2,3.4-4.3,1.7C250.9,77.6,249.9,77.3,249,77
			L249,77z"/>
		<path class="st52" d="M320,77c0.9-2.4,3.5-3.1,5-5l0,0c0.1,1.8,3.6,2.1,1.8,4.8C324.4,80.3,322.2,77.2,320,77L320,77z"/>
		<path class="st60" d="M128.1,77c0.4,0.9,0.6,1.9,1.1,2.6c1.3,1.7,0.2,2.7-1,3.6c-1.8,1.3-2.6-0.4-3.6-1.3
			c-1.5-1.2-0.9-2.1,0.2-3.2C125.7,77.9,126.6,76.9,128.1,77L128.1,77z"/>
		<path class="st62" d="M171,72c2.1,0.3,3.4,1.9,4.3,3.6c0.2,0.4-1.4,2.1-2.4,2.8c-2,1.2-3-1.8-4.9-1.4l0,0
			C167.4,74.3,173.1,75.5,171,72L171,72z"/>
		<path class="st61" d="M229,77c0.9-2.5,2.6-4,5-5l0,0c-0.4,2,3.4,3.5,0.6,5.9C232.1,80.1,231,76.4,229,77L229,77z"/>
		<path class="st59" d="M198.4,83.8c-2-0.4-3.4-1.6-3.7-3.1s1.4-2.9,2.7-3c1.7-0.1,3,1.6,3.2,3.2C200.9,82.4,199.3,83,198.4,83.8z"
			/>
		<path class="st61" d="M304,72c0.3,0,0.7,0,1,0c-0.2,2.1,3.6,4,0.2,6.2c-2.3,1.5-3.3-1.8-5.2-1.3l0,0C301.3,75.3,302.7,73.7,304,72
			z"/>
		<path class="st63" d="M310,77c1.6-1.8,2.4-4.3,5-5l0,0c-0.4,2,3.4,3.5,0.6,6C313.1,80.1,312,76.4,310,77L310,77z"/>
		<path class="st64" d="M138.1,77c0.7-0.9,1.3-2,2.2-2.7c0.8-0.6,1.1-3.2,2.8-1.1c0.8,1,2.6,2,1.4,3.8c-0.9,1.2-1.8,2.5-3.7,1.2
			C139.9,77.6,138.9,77.3,138.1,77L138.1,77z"/>
		<path class="st62" d="M375,72c0.3,0,0.7,0,1,0c-0.2,2.1,3.6,3.9,0.2,6.2c-2.3,1.5-3.3-1.8-5.2-1.3l0,0
			C372.3,75.3,373.6,73.7,375,72z"/>
		<path class="st55" d="M361,77c0.4,0.9,0.7,1.8,1.1,2.6c1,2-0.9,2.7-1.9,3.4c-1.6,1.2-2.2-0.7-3.1-1.5c-1.4-1.1-0.3-2,0.5-2.8
			C358.6,77.9,359.5,77,361,77L361,77z"/>
		<path class="st65" d="M283,73c0.7,0,1.3,0,2,0c0.5,1.5,2.8,2.4,1,4.6c-2.4,2.8-3.9-1-5.9-0.6l0,0C279.9,74.8,282.6,74.8,283,73z"
			/>
		<path class="st66" d="M156.7,68.1c0.5,0,0.9-0.1,1.4-0.1c0.3,1.4,4,1.4,1.6,4c-1.5,1.6-2.9,2.5-4.8,0.6c-0.4-0.4-1.2-0.4-1.8-0.5
			l0,0C152.8,69.4,156.4,70.3,156.7,68.1z"/>
		<path class="st62" d="M242.9,72c1.4,1.6,4.9,1.8,2.7,4.8c-0.9,1.2-2,2.9-4,1.2C238.3,75.1,244.5,74.7,242.9,72z"/>
		<path class="st67" d="M180.5,80.6c-0.8,1.2-1.6,2.8-3.2,2.6c-1.3-0.2-2.9-1.5-2.7-2.9c0.1-1.3,1.5-2.8,3-2.7
			C179,77.8,180,79.1,180.5,80.6z"/>
		<path class="st51" d="M271.5,80.6c-0.8,1.2-1.6,2.8-3.1,2.7c-1.3-0.2-2.9-1.5-2.7-2.9c0.1-1.3,1.5-2.8,3-2.7
			C270,77.8,271,79.2,271.5,80.6z"/>
		<path class="st51" d="M347.7,75.8c-0.2,1.5-1.2,2.7-2.5,2.8c-1.7,0.1-3.4-1.1-3.7-2.6c-0.3-1.3,1.6-2.1,2.7-2.3
			C345.8,73.3,347.1,74.3,347.7,75.8z"/>
		<path class="st59" d="M337.7,76.2c-0.7,1.3-1.5,2.8-3.2,2.4c-1.1-0.3-2.9-1.2-2.7-2.3c0.3-1.5,1.7-3,3.5-2.8
			C336.5,73.5,337.5,74.6,337.7,76.2z"/>
		<path class="st62" d="M190.6,80.2c-0.7,1.6-1.7,3.1-3.1,3.1c-1.4,0-2.9-1.5-2.9-2.8c-0.1-1.4,1.4-2.8,2.8-2.9
			C189,77.5,189.6,79.3,190.6,80.2z"/>
		<path class="st51" d="M274,73c0.3,0,0.7,0,1,0c0.8,1.6,3,2.9,0.5,5c-1.7,1.4-2.9,0.4-3.8-0.7C269.5,74.4,273.1,74.4,274,73z"/>
		<path class="st51" d="M266.7,76.1c-0.5,1.3-1.3,2.5-2.7,2.5c-1.5,0-3.3-1.2-3.2-2.4c0.1-1.5,1.6-3,3.4-2.9
			C265.5,73.5,266.5,74.6,266.7,76.1z"/>
		<path class="st55" d="M182.9,73.2c1.5,0.3,2.6,1.2,2.7,2.5c0.2,1.6-1.1,2.9-2.7,2.9c-1.3-0.1-3.1-1.1-3.1-2.5
			C179.9,74.8,181.5,73.8,182.9,73.2z"/>
		<path class="st59" d="M132,73c0.3,0,0.7,0,1,0c0.5,1.5,2.8,2.4,1,4.6c-2.4,2.8-3.9-1-6-0.6l0,0C129,75.2,130.4,74,132,73z"/>
		<path class="st68" d="M352.5,80.5c-0.8,1.3-1.6,3-3.2,2.8c-1-0.1-2.5-1.6-2.7-2.6c-0.3-1.5,1.4-2.9,2.7-3
			C350.9,77.5,351.7,79.2,352.5,80.5z"/>
		<path class="st66" d="M339.3,77.5c1.5,0.5,2.8,1.5,3,2.9c0.2,1.5-1.4,2.8-2.7,2.9c-1.5,0.1-2.8-1.4-3-2.7
			C336.4,79.1,338.1,78.3,339.3,77.5z"/>
		<path class="st66" d="M332.5,80.3c-0.4,1.5-1.5,2.8-2.8,3c-1.5,0.2-2.8-1.4-3-2.6c-0.2-1.5,1.4-2.7,2.7-3
			C330.8,77.4,331.6,79.1,332.5,80.3z"/>
		<path class="st67" d="M116.6,83.5c-1.3-0.8-3-1.7-2.9-3.1c0.1-1.3,1.5-2.8,3.1-2.7c1.3,0.1,2.6,1.4,2.6,2.7
			C119.4,81.9,117.9,82.8,116.6,83.5z"/>
		<path class="st69" d="M166.8,68.1c0.4-0.1,0.9-0.1,1.3-0.2c0.8,1.5,3.2,1.8,2.9,4.1l0,0c-1.7,1.1-3.3,2.6-5.5,0.4
			C163.3,70,167.1,69.7,166.8,68.1z"/>
		<path class="st62" d="M354,74c0.7-0.3,1.3-0.6,2-1c0.9,1.6,3,3,0.5,5c-1.4,1.2-2.3,0.4-3.4-0.4C349.8,75.4,353,75,354,74z"/>
		<path class="st63" d="M237.7,68.1c0.4,0,0.9-0.1,1.3-0.1c0.2,1.4,3.7,1.2,1.8,3.7c-1.3,1.7-2.6,2.3-4.5,0.7
			c-0.5-0.4-1.6-0.3-2.4-0.4l0,0C234,69.5,237.8,70.6,237.7,68.1z"/>
		<path class="st70" d="M195.7,75.9c-0.3,1.4-1.2,2.5-2.5,2.7c-1.6,0.2-3.2-1.1-3.4-2.3s1.4-2.1,2.8-2.2
			C194.1,73.9,195.3,74.3,195.7,75.9z"/>
		<path class="st71" d="M247.7,68.1c0.4-0.1,0.9-0.1,1.3-0.2c0.3,1.4,4,1.5,1.5,4c-1.1,1.1-1.8,1.9-3.6,0.7
			C243.6,70.3,248.1,69.7,247.7,68.1z"/>
		<path class="st72" d="M115.1,67c0.4,1.8-1.4,1.2-2,2c-2-2.4-0.6-5.3-1-7.9c1-0.3,2.1-0.6,3.1-0.9c0.5,0.6,0.5,1.2,0,1.8
			C111.5,63.5,115.7,65.3,115.1,67z"/>
		<path class="st24" d="M95.1,110.9c4.3,0.3,8.7,0.7,13,1C103.4,116.2,99.3,112,95.1,110.9z"/>
		<path class="st73" d="M114.2,53c0.3-0.1,0.7-0.1,1-0.2c1.8-0.7,4.5-2,5.2,0.3c0.6,2-2.5,2.3-4.3,2.8C115.4,55,114.8,54,114.2,53z"
			/>
		<path class="st49" d="M335,107.9c-2.3-0.3-4.7,2-7,0C330.3,103.8,332.7,104.8,335,107.9z"/>
		<path class="st49" d="M267,109c1.1,2.8-1.6,2.6-2.8,3.6c-0.2,0.1-1.4-0.4-1.5-0.8c-0.6-2,1.5-2.6,2.3-3.8
			C265.7,108.3,266.3,108.6,267,109z"/>
		<path class="st47" d="M177,110.9c-0.5,0.1-1,0.1-1.4,0.3c-1.2,0.4-2.2,2.5-3.7,0.8c-1.7-1.8,0.9-2.7,1.1-4.1
			C174.5,108.8,176.3,109.2,177,110.9z"/>
		<path class="st47" d="M173.1,107.9c-2.3-0.3-4.7,2-7,0C168.4,103.8,170.7,104.9,173.1,107.9z"/>
		<path class="st38" d="M344,106c0.1-0.8,0.1-1.7,0.3-2.4c0.5-1.2,1.5-1.8,2.8-1.4c0.5,0.2,1.3,0.7,1.4,1.3c0.3,1.6-1.1,1.8-2.1,2.2
			C345.7,105.9,344.8,105.9,344,106C344,105.9,344,106,344,106z"/>
		<path class="st49" d="M263,106.9c-1.7,1.9-3.7,2.5-6,1C258.6,105.1,260.5,104.1,263,106.9z"/>
		<path class="st49" d="M337,108.9c1,1.7,0.1,2.8-1.4,3.5c-0.9,0.5-1.7,0-2.1-0.7c-1-1.8,1.1-2.5,1.4-3.8
			C335.7,108.3,336.3,108.6,337,108.9z"/>
		<path class="st16" d="M137.1,63.9c-0.3-1.3-3-2-1.2-3.5c1.2-1.1,3.1-0.9,4.4,0.7C139.2,62,138.2,63,137.1,63.9z"/>
		<path class="st74" d="M228,63.8c-0.3-1.2-2.5-1.9-1.4-3.2c1.3-1.4,3.2-1.1,4.6,0.4C230.3,62.1,229.5,63.3,228,63.8z"/>
		<path class="st75" d="M309,63.8c-0.3-1.2-2.5-2-1.4-3.1c1.2-1.3,3.2-1.3,4.6,0.4C311.3,62.2,310.4,63.3,309,63.8z"/>
		<path class="st76" d="M112.1,48c1.3,0.3,2.6,0.7,3.9,1c0.5,3.5-2.6,2.1-4,2.9C112.1,50.7,112.1,49.4,112.1,48z"/>
		<path class="st24" d="M378.9,109.9c-0.3-0.3-0.6-0.6-1-1c0.1-1.2,0.4-2.3,1.7-2.6c0.3-0.1,1,0.3,1.1,0.6
			C381.2,108.5,380.2,109.3,378.9,109.9z"/>
		<path class="st35" d="M455.9,37.1c0,4.7,0.1,9.3,0.1,14c1,0.9,1.2,2.1,1.3,3.3c0.1,3.4,0,6.7,0.1,10.1c0.2,1.3,0.2,2.7,0.1,4
			c-0.3,5.7-1.2,6.4-6.7,7.2c-10.8,1.5-21.5,0.8-32.3,1c-4.5,0.1-9-0.1-13.4,0.6c-2.2,0.4-4.3,0.4-6.1-1.2c0-1,0-2-0.1-3
			c0-0.6-0.1-1.4-0.9-1.5c-1-0.2-1.5,0.6-1.8,1.3c-0.2,0.4-0.1,1-0.3,1.5c-0.8,3.1-2.2,6.1-5.6,6c-3.3-0.1-4.3-3.2-4.3-6.2
			c-0.1-2.8-3.7-4-3-7c2.1-1.8,4.1,0,6.1,0.1c3.3,0.1,7.2,1.2,8.5-3.5c0.1-1.3,0.4-2.5,1.3-3.5c-3.8-4.2-5.4-8.6-0.7-13.8
			c0.8,3,2.2,3.7,5.5,2.9c12-2.9,24.1-5.5,36.3-7.5C445.5,40.8,450.7,39.1,455.9,37.1z"/>
		<path class="st77" d="M399,76c14.6-1.6,29.2-0.8,43.7-1.1c3.4-0.1,6.8-1.3,10.3-1c2.2,0.2,2.9-1,2.9-3c-0.1-2.3,0-4.6,0-7
			c1.8-2.9,4.2-3.8,7.4-2.7c1.2,0.5,0.8,1.8,1.5,2.6c-0.1,1.5,0.8,3.5-1.7,4.1c-4.9,1.1-5.3,4.8-5.3,8.8c0,7,0,7.1-7,7.2
			c-13.8,0.1-27.5,0.1-41.3,0c-3.6,0-7.2-0.6-10.6-1.9C399,80,399,78,399,76z"/>
		<path class="st78" d="M398.9,64c-1,3.6-5.3,5.7-9.7,4.6c-2.1-0.5-4.2-1.1-6.2-1.6c-1.1-1.9-1-3.9-0.9-6c0.3,0,0.6,0,0.9,0
			c1.9,2.8,4.8,2.9,7.8,3C393.4,64,396.2,63,398.9,64z"/>
		<path class="st79" d="M299,51c1.3,0.3,2.7,0.7,4,1l0,0c1.5,2.8-1.1,2.9-2.5,3.6c-1.4,0.8-2.7-0.1-3.4-1.3
			C296,52.5,299.1,52.6,299,51L299,51z"/>
		<path class="st80" d="M212,52c1.5,2.7-1.1,2.8-2.4,3.6c-0.9,0.5-1.9,0.3-2.7-0.5c-1.7-1.9,0.9-2.7,1.1-4.2
			c0.2-0.1,0.3-0.3,0.5-0.4C210.1,50.2,210.9,51.4,212,52L212,52z"/>
		<path class="st81" d="M147,51c1.8,0.3,3.5,0.8,4.7,2.6c-1.6,1.5-3.1,3.1-5.4,1.4C143.9,53.2,147.1,52.4,147,51L147,51z"/>
		<path class="st82" d="M332,51c0.5,1.4,1.9,2.8-0.3,4.1c-1.3,0.8-2.4,0.8-3.5-0.1c-2.2-1.8,0.9-2.6,0.9-4c0.2-0.2,0.3-0.3,0.5-0.5
			c0.7-0.3,1.3-0.3,2,0C331.6,50.7,331.8,50.9,332,51z"/>
		<path class="st83" d="M177,49c1-0.4,2.4-0.5,3.1-1.2c3-2.9,5.1-1.8,6.9,1.2l0,0c-2,1.7-5,0.1-7,2l0,0c-0.6,0.6-1.3,0.6-1.9,0
			c-0.4,0-0.7,0-1.1,0C176.5,50.4,176.4,49.7,177,49L177,49z"/>
		<path class="st84" d="M218,51c1.8,0.2,3.2,0.9,3.6,2.7c0.2,0.9-0.9,1.2-1.6,1.6c-1.1,0.6-2.2,0.7-3.1-0.2
			C215.1,53.2,217.8,52.4,218,51L218,51z"/>
		<path class="st19" d="M167,56c0.9,1.4,1.8,2.7,2.6,4.1c0.8,1.3-0.3,2.1-1.1,2.9c-0.8,0.7-1.5,0.3-2.1-0.3
			c-0.7-0.7-1.6-1.8-0.5-2.4C167.9,59.2,165.3,57,167,56L167,56z"/>
		<path class="st85" d="M141,52c1,4.2-2.2,3.4-4.4,3.6c-0.4,0-1.1-0.8-1.2-1.4c-0.2-0.9,0.4-1.7,1.2-1.8
			C138.1,52.1,139.6,52.1,141,52L141,52z"/>
		<path class="st85" d="M372,51c0,1.3,3.9,2.4,0.3,4c-1.4,0.6-2.8,1.3-4-0.3c-1.6-2.3,1.3-2,1.9-3.1C370.4,51.2,371.3,51.2,372,51
			L372,51z"/>
		<path class="st86" d="M314,53c-1.4,1.8-2.9,3.6-5.5,2c-2.3-1.5,0.1-2.7,0.5-4l0,0C311.6,49.4,312.2,52.6,314,53L314,53z"/>
		<path class="st87" d="M161,52c1.4,2.2-0.5,2.6-1.8,3.4c-1.3,0.7-2.1,0.1-3-0.7c-1.7-1.7,0.7-2.4,0.8-3.7c0.2-0.1,0.4-0.2,0.6-0.3
			c1.1-0.1,2.1,0.2,3,0.8C160.8,51.7,160.9,51.9,161,52z"/>
		<path class="st17" d="M271,51c0.9,1.5,3,3-0.4,4.3c-1.5,0.6-2.5,0.5-3.4-0.7c-1.4-2,1-1.9,1.7-2.7C269.2,51.4,270.3,51.3,271,51
			L271,51z"/>
		<path class="st88" d="M362,51c0,1.4,3.1,2.7-0.1,4.2c-1.8,0.8-3.8,0.6-3.9-1C357.8,52.3,360,51.3,362,51L362,51z"/>
		<path class="st85" d="M323,52c-1.6-2.6,0-3.5,2.2-3.7c1.2-0.1,2.5,0.4,3.7,0.7l0,0c0.6,0.7,0.6,1.3,0,2l0,0
			C327,51.3,325.1,52.4,323,52L323,52z"/>
		<path class="st17" d="M281,51c0.9,1.5,3,3-0.4,4.3c-1.5,0.6-2.5,0.5-3.4-0.7c-1.4-2,1-1.9,1.6-2.7C279.2,51.4,280.3,51.3,281,51
			L281,51z"/>
		<path class="st89" d="M232,52c1.1,3.9-1.8,3.4-3.9,3.4c-0.7,0-1.6-0.6-1.6-1.6s0.8-1.5,1.6-1.6C229.4,52,230.7,52.1,232,52L232,52
			z"/>
		<path class="st90" d="M178.1,51.1c0.6,0,1.3,0,1.9,0c0.1,1.3,3.3,2.2,0.4,3.7c-1.4,0.8-3,1.7-4.2-0.1
			C174.7,52.4,178.1,52.6,178.1,51.1z"/>
		<path class="st17" d="M252,52c1.3,3.9-1.7,3.3-3.7,3.4c-0.5,0-1.4-1-1.5-1.7c-0.3-1.3,0.9-1.6,1.9-1.7C249.7,52,250.9,52,252,52
			L252,52z"/>
		<path class="st17" d="M323,52c1.3,3.9-1.7,3.3-3.7,3.4c-0.5,0-1.4-1-1.5-1.7c-0.3-1.3,0.9-1.6,1.9-1.7C320.7,52,321.9,52,323,52
			L323,52z"/>
		<path class="st91" d="M167,49c-1,3-3.6,2.7-6,3l0,0c-1.2-0.8-2.2-1.7-1-3.1c0.9-1,2-1.8,3.4-1.4C164.7,47.9,165.9,48.5,167,49
			L167,49z"/>
		<path class="st92" d="M177,49c0,0.7,0,1.3,0,2c-2,0.3-4.9,2.1-5.8-0.2c-1-2.4,1.2-2.8,3.4-2.1C175.3,49,176.2,48.9,177,49z"/>
		<path class="st92" d="M349,49c0,1.1-0.6,1.7-1.6,2.3c-1.5,0.8-2.8,0.8-4.1-0.2c-0.6-0.4-1.1-0.9-0.6-1.5c1-1.2,2.3-1.6,3.9-0.9
			C347.3,49,348.2,49,349,49L349,49z"/>
		<path class="st79" d="M339,49c-1.3,4.3-4.3,2.5-7,2l0,0c-0.9-3.2,1.3-3.6,3.5-3.4C336.6,47.7,337.8,48.5,339,49L339,49z"/>
		<path class="st91" d="M378.9,49c-1.2,4.5-4.3,2.4-7,2l0,0C373.5,47.5,376.2,48.1,378.9,49C379,49,378.9,49,378.9,49z"/>
		<path class="st93" d="M299,51c-1.3,0.3-2.5,0.5-3.8,0.8c-1,0.2-1.9,0-2.6-0.9c-0.6-0.8-0.4-1.5,0.3-2.1c0.8-0.8,1.7-0.9,2.7-0.4
			C296.9,49,298.4,49.5,299,51L299,51z"/>
		<path class="st94" d="M208,51c-1,0.2-2,0.2-2.9,0.5c-1.3,0.5-2.5,0.7-3.5-0.6c-0.5-0.6-0.4-1.2,0-1.8c1-1.3,2.2-1.2,3.5-0.6
			c0.6,0.3,1.3,0.3,1.9,0.5l0,0C207.6,49.6,208.7,49.9,208,51L208,51z"/>
		<path class="st17" d="M201.9,53.7c-1.8,1.1-3.2,3.2-5.5,1.1c-0.7-0.6-0.9-1.1,0-1.9C198.5,51,200.2,51.4,201.9,53.7z"/>
		<path class="st95" d="M147.1,51c-2,0.3-4,0.7-6,1l0,0c-0.6-1.2-1.5-2.6,0.2-3.4C143.9,47.5,145.6,49,147.1,51
			C147,51,147.1,51,147.1,51z"/>
		<path class="st17" d="M242.5,53.3c-0.2,1.6-1.7,1.8-2.8,2.3c-1.5,0.6-2.6-0.5-2.9-1.8c-0.3-1.2,0.9-1.6,1.8-1.7
			C240,51.9,241.5,51.8,242.5,53.3z"/>
		<path class="st96" d="M252,52c-1.5-2.6,0-3.5,2.3-3.7c1.2-0.1,2.5,0.4,3.7,0.7l0,0C257,52,254.4,51.7,252,52L252,52z"/>
		<path class="st91" d="M232,52c-0.5-1.2-1.5-2.5,0.2-3.4c2.2-1.3,3.6,0.4,5.4,1.6C235.7,51.5,234,52.1,232,52L232,52z"/>
		<path class="st95" d="M127.4,55.7c-1.3-0.1-2.6-0.9-2.5-1.9c0.1-1.5,1.8-1.7,3.1-1.7c1.1,0,2.7,0.1,2.5,1.6
			C130.3,55.1,128.5,55.1,127.4,55.7z"/>
		<path class="st95" d="M362,51c1.4-3.8,4.4-2.2,7-2l0,0C367.7,53.5,364.6,51.5,362,51L362,51z"/>
		<path class="st93" d="M359,49c-0.1,0.8-0.3,1.5-1.1,2c-1.6,1-3.1,1.1-4.6,0c-0.7-0.5-0.7-1-0.2-1.6c1.2-1.5,2.5-1.3,4-0.6
			C357.6,49.1,358.3,49,359,49L359,49z"/>
		<path class="st92" d="M126,49c-0.1,0.8-0.3,1.6-1.1,2c-1.3,0.7-2.6,1.5-4,0.2c-0.7-0.6-0.8-1.4-0.2-2.1c1-1.2,2.2-1.1,3.5-0.5
			C124.8,48.9,125.4,48.9,126,49C126.1,49,126,49,126,49z"/>
		<path class="st92" d="M135.1,49.1c0.3,0.6,0.6,1.2,0.9,1.8c-0.5,0.1-1,0.1-1.4,0.4c-1.6,1-3.1,0.8-4.5-0.4
			c-0.7-0.6-0.2-1.1,0.2-1.6C131.8,47.5,133.4,48.1,135.1,49.1z"/>
		<path class="st79" d="M157.1,51c-2-0.4-4.9,2.1-5.9-0.2c-1-2.4,1.3-2.8,3.5-2c0.8,0.3,1.6,0.2,2.4,0.3l0,0
			C157.6,49.7,157.7,50.4,157.1,51L157.1,51z"/>
		<path class="st93" d="M180,51c1.4-3.8,4.4-2.2,7-2C185.8,53.4,182.7,51.5,180,51z"/>
		<path class="st97" d="M197,49c0,1.4-1,1.9-2,2.5c-1.4,0.8-2.5,0.3-3.7-0.4c-0.7-0.4-0.7-1-0.2-1.6c1-1.2,2-1.5,3.5-0.8
			C195.3,49,196.2,49,197,49L197,49z"/>
		<path class="st93" d="M281,51c0.5-0.6,0.9-1.4,1.5-1.9c1.2-1.3,2.6-1.3,3.9-0.1c0.4,0.4,1,1.4,0.9,1.5c-1.1,1.1-2.3,1.8-3.9,1.2
			C282.6,51.4,281.8,51.2,281,51L281,51z"/>
		<path class="st87" d="M343.9,53.4c-1.8,1.5-3.1,3.3-5.5,1.4c-0.5-0.4-1.2-1-0.5-1.6C339.8,51.7,341.7,51.4,343.9,53.4z"/>
		<path class="st98" d="M353.8,53.5c-1.7,1.4-3,3.3-5.4,1.3c-0.5-0.4-1.2-1-0.4-1.6C349.8,51.9,351.7,51.2,353.8,53.5z"/>
		<path class="st95" d="M271,51c1.4-3.9,4.4-2.2,7-2l0,0C276.7,53.5,273.6,51.5,271,51L271,51z"/>
		<path class="st17" d="M292.8,53.5c-1.6,1.4-3,3.3-5.4,1.3c-0.5-0.4-1.2-1.1-0.4-1.6C288.8,51.8,290.8,51.2,292.8,53.5z"/>
		<path class="st17" d="M259.5,55.8c-1.6-0.3-2.9-1-2.7-2.1c0.2-1.4,1.9-1.6,3.2-1.7c1.1-0.1,2.4,0.3,2.4,1.3
			C262.5,55.3,260.2,54.8,259.5,55.8z"/>
		<path class="st85" d="M268,49c-0.1,0.9-0.3,1.5-1.1,2c-1.6,1-3.1,1.1-4.6,0c-0.7-0.5-0.6-1-0.2-1.6c1.2-1.5,2.5-1.3,4-0.6
			C266.6,49.1,267.4,49,268,49C268,49.1,268,49,268,49z"/>
		<path class="st99" d="M191.6,53.6c-0.6,1.4-2,1.8-3.2,2.1c-1.3,0.4-2.5-0.7-2.5-1.7c0-1.6,1.7-1.7,2.9-1.9
			C190,51.9,191.1,52.2,191.6,53.6z"/>
		<path class="st100" d="M248,49c-0.3,0.6-0.4,1.5-0.8,1.6c-1.6,0.6-3.2,1.9-5,0.4c-0.6-0.5-1-0.9-0.5-1.6c1.4-1.8,3.2-1,4.9-0.5
			C247,49.1,247.5,49,248,49L248,49z"/>
		<path class="st19" d="M167.1,56c0.1-1.1-2.7-1.8-0.6-3.2c1.8-1.1,3.7-1.6,5.2,0.6C170.5,55.2,168.9,55.7,167.1,56
			C167,56,167.1,56,167.1,56z"/>
		<path class="st101" d="M159.8,61c-0.4,1.2-1.1,2.3-2.2,2.3c-1.1,0-2.2-1-2.1-2.2c0.1-1.3,1.4-1.7,2.5-1.8
			C159,59.1,159.7,59.9,159.8,61z"/>
		<path class="st102" d="M115.2,61.9c0-0.6,0-1.2,0-1.8c1.5,0.2,2.2-3,4.1-1.1c0.7,0.6,0.6,1.4,0,2.1
			C118.1,62.7,116.8,63.2,115.2,61.9z"/>
		<path class="st103" d="M238.5,62.7c-0.8-0.5-2.1-0.5-2-1.7c0.1-1.3,1.4-1.7,2.5-1.7s1.8,0.9,1.6,1.9
			C240.5,62.2,239.7,62.8,238.5,62.7z"/>
		<path class="st104" d="M286.5,57.2c0,1.2-0.9,1.5-1.8,1.7c-1.1,0.2-2.1-0.4-2.2-1.4c-0.2-1.5,1.2-1.9,2.2-2.1
			C285.9,55,286,56.3,286.5,57.2z"/>
		<path class="st105" d="M162.6,58.9c-0.9-0.1-1.9-0.4-1.9-1.2c0-1.5,1.3-2.2,2.6-2.5c1-0.2,1.7,0.4,1.4,1.4
			C164.4,57.6,164,58.8,162.6,58.9z"/>
		<path class="st106" d="M177.9,59.2c1.1,0.1,1.9,0.7,1.9,1.8c-0.1,1.1-0.8,1.8-1.9,1.7c-0.9-0.1-2.1-0.5-2.2-1.5
			C175.4,59.7,177,59.7,177.9,59.2z"/>
		<path class="st75" d="M218.2,64.1c-0.7-1-1.5-1.7-1.7-2.6c-0.4-1.9,1.2-1.5,2.3-1.6c0.8-0.1,1.8,0,1.9,1.1
			C220.7,62.3,219.5,62.7,218.2,64.1z"/>
		<path class="st107" d="M245.8,56.4c-0.6,1.1-0.8,2.6-2.5,2.5c-0.9-0.1-1.7-0.6-1.6-1.5c0.2-1.2,1.3-1.9,2.4-2.2
			C245,54.9,245.6,55.4,245.8,56.4z"/>
		<path class="st108" d="M255.7,56.7c-0.6,0.9-0.8,2.3-2.4,2.2c-0.9-0.1-1.8-0.6-1.6-1.5c0.3-1.5,1.8-1.8,3.1-2.1
			C255.6,55.2,255.7,56,255.7,56.7z"/>
		<path class="st105" d="M174.8,55.1c-0.3,2.2-0.5,3.7-2.5,3.8c-0.5,0-1.5-0.7-1.5-1C170.9,55.7,172.8,55.7,174.8,55.1z"/>
		<path class="st106" d="M205.4,57.1c0,1.3-1.2,1.4-2,1.7c-1.1,0.3-2.1-0.4-2-1.5c0.1-1.4,1.4-1.7,2.5-1.9
			C205,55.2,205,56.3,205.4,57.1z"/>
		<path class="st109" d="M124.4,56.8c0.3,1.4-1,1.5-1.8,1.8c-1.1,0.4-2.1-0.3-2.2-1.3c-0.1-1.4,1.3-1.7,2.3-2
			C123.9,55,124,56.2,124.4,56.8z"/>
		<path class="st110" d="M276.3,56.8c0.3,1.5-1,1.6-1.8,1.9c-1.2,0.5-2-0.3-2.2-1.3c-0.2-1.2,1.1-1.5,1.9-1.9
			C275.6,54.8,275.9,56,276.3,56.8z"/>
		<path class="st111" d="M319.6,62.4c-0.8-0.3-1.7-0.7-1.3-1.7c0.3-1,1.2-1.8,2.2-1.7c0.8,0,1.5,0.7,1.3,1.7
			C321.6,61.8,320.5,62,319.6,62.4z"/>
		<path class="st112" d="M130.4,57.3c0-1,0.8-1.4,1.6-1.6c1.2-0.4,1.8,0.4,1.9,1.5c0.1,1-0.4,1.6-1.3,1.7
			C131.5,58.9,130.7,58.4,130.4,57.3z"/>
		<path class="st113" d="M214.9,57.1c0,0.9-0.2,1.7-1.2,1.8c-1.1,0.1-2-0.4-2.2-1.4c-0.3-1,0.6-1.4,1.4-1.7
			C214.1,55.3,214.6,56.1,214.9,57.1z"/>
		<path class="st114" d="M223.2,55.6c1.2-0.1,1.6,0.7,1.7,1.8c0,1-0.5,1.5-1.5,1.5c-1.1-0.1-2-0.6-1.9-1.7
			C221.4,56.2,222.4,56,223.2,55.6z"/>
		<path class="st115" d="M153.9,57.2c0,1.2-0.6,1.9-1.8,1.6c-0.8-0.1-1.7-0.6-1.4-1.6s1.1-1.7,2.1-1.8
			C153.9,55.4,153.9,56.4,153.9,57.2z"/>
		<path class="st116" d="M208.4,59.9c1,0.1,2.3-0.1,2.1,1.3c-0.1,1-1.3,1.5-2.3,1.6c-0.9,0.1-1.7-0.4-1.8-1.3
			C206.2,59.9,207.5,60.1,208.4,59.9z"/>
		<path class="st117" d="M315.9,57.2c0.1,1-0.3,1.6-1.3,1.7c-1.1,0.1-2-0.5-2.2-1.5c-0.2-1.1,0.8-1.4,1.5-1.6
			C315.1,55.3,315.6,56.1,315.9,57.2z"/>
		<path class="st118" d="M275.1,65c-1.4,0.3-2.8,2.2-4.1,0c1.8-0.5,1.8-2.6,3.3-3.7C275.3,62.4,274.8,63.8,275.1,65z"/>
		<path class="st114" d="M304.3,55.6c1.3,0.1,1.7,1,1.6,2c-0.1,1-0.7,1.4-1.7,1.3c-0.9-0.1-1.6-0.6-1.7-1.5
			C302.2,56.1,303.4,56,304.3,55.6z"/>
		<path class="st119" d="M233.4,55.5c1.1,0.4,1.6,1,1.5,2c0,1-0.6,1.5-1.6,1.5c-0.9-0.1-1.7-0.5-1.7-1.4
			C231.6,56.3,232.8,56,233.4,55.5z"/>
		<path class="st120" d="M251.3,60.4c-1.1,0.7-1.9,1.5-2.9,1.8c-0.6,0.2-1.3-0.6-1.1-1.2c0.4-1.2,1-2.5,2.6-2.1
			C250.4,58.9,250.7,59.7,251.3,60.4z"/>
		<path class="st121" d="M380.9,54.1c-0.1,0.9-0.3,1.9-1.5,1.4c-0.7-0.3-1.6-1-1.6-1.6c-0.2-1.3,1.2-1.5,2-1.5
			C380.9,52.3,380.9,53.3,380.9,54.1z"/>
		<path class="st122" d="M144,57.3c-0.1,1.2-0.7,1.7-1.7,1.6c-0.9-0.1-1.7-0.5-1.7-1.4c0.1-1.1,1-1.9,2-1.8
			C143.5,55.7,144,56.6,144,57.3z"/>
		<path class="st123" d="M380.9,60.9c0,0.9-0.2,1.8-1.3,1.6c-0.8-0.1-1.6-0.8-1.3-1.8c0.1-0.5,0.7-1.2,1.3-1.3
			C380.7,59.1,380.8,60.1,380.9,60.9z"/>
		<path class="st124" d="M129.4,66.3c0.5-2.4,2.1-3.1,3.1-4.4C133.7,64.5,132.4,65.6,129.4,66.3z"/>
		<path class="st125" d="M204.1,65c-1.4,0.4-2.7,2.2-4.1,0c1.2-1.1,2.4-2.2,3.8-3.5C203.9,62.8,204,63.9,204.1,65z"/>
		<path class="st9" d="M208,51c-0.3-0.7-0.7-1.3-1-2c1.8-0.1,3-1.2,4.3-2.2c1.9-1.3,4-1.5,5.1,1.4c-1.8,1-7-2-4.4,3.8
			C210.7,51.7,209.4,51.4,208,51z"/>
		<path class="st9" d="M157,51c0-0.7,0-1.3,0-2c0.7-0.3,1.7-0.3,2.2-0.8c3.1-3.4,5.5-2.2,7.8,0.8c-1.2-0.3-2.5-0.8-3.7-0.7
			c-2.3,0.1-3.8,1.1-2.3,3.7C159.7,51.7,158.4,51.4,157,51z"/>
		<path class="st9" d="M314,53c-1.7-0.7-3.3-1.3-5-2c3.7-5.8,4.7-6.1,8.4-2.6c-1.6,0.6-3.7-1.4-4.9,0.8C311.5,51,313.7,51.7,314,53z
			"/>
		<path class="st9" d="M339,49c-2.4,0.3-5.8-2.7-7,2c-1,0-2,0-3,0c0-0.7,0-1.3,0-2c0.7-0.3,1.7-0.3,2.2-0.8
			C334.2,44.8,336.7,46,339,49z"/>
		<path class="st12" d="M87.1,58.6c-1.6-2.3-4-1.6-6-1.6c-23.3,0-46.5,0-69.8-0.1c-2,0-5.1,1.3-5.8-1.3c-1-3.4-1-7.3,0.1-10.8
			C6.1,43.4,8,43.9,9.2,44c11.1,0.4,22.2,0.6,33.2,0.4c13.1-0.2,26.2,0.1,39.3-0.5c4-0.2,5.8,0.9,5.4,5.2
			C86.8,52.3,87.1,55.5,87.1,58.6z"/>
		<path class="st126" d="M93.9,56.1c0,1.3,0.1,2.6,0.1,3.9c-6.2,1.3-6.2,1.2-5.8-5.9C90.1,54.8,92,55.4,93.9,56.1z"/>
		<path class="st8" d="M528.9,111.9c-2.1-2-0.2-2.9,1.2-3.7c3.8-2.2,2.4-3.9-0.4-5.6c-1.3,1.1,1.4,2.9-1,3.9c-2-3.1,0.2-6.8-2-11.1
			c-1.6,6.6-0.2,12.3-1.4,19.5c-1.7-6.1-5.5-5-8.8-5c-5.8,0-11.7,0-17.5,0c-5.3,0-7.6-2.6-7-7.8c0.3-2.6,0.7-5.2,1.4-7.8
			c1.5-6,3.2-7.2,9.4-7.4c4.6-0.1,9.2,0.2,13.9-0.5c3-0.4,6.3,0.6,7.8,4.2c0.4,1,1.4,2.3,2.7,1.8c1.5-0.5,1.4-1.9,1-3.4
			c-0.3-1.2-1.3-2.6-0.3-3.8c2.8-3.3,4.2-6-0.4-9.3c-1.8-1.3,0.4-3.7,1.9-4.9c2.4-1.9,2.9-3.8,0.6-6.1c-0.5-1.1,0.1-1.7,1-2.3
			c2.2,0.9,4.1,0.5,5.7-1.4c1.1-0.6,2.2-1.1,2.8,0.6c-0.3,1.8-1.1,3.4-1.6,5.2c-0.3,0.9,0.1,1.6,1,2c0.3,0.1,0.7,0.1,1,0
			c0.9-0.5,0.8-1.3,0.5-2.1c-0.4-0.9-1.1-1.8-0.9-2.8c0.6-2.7,2.3-3,4.4-1.8c2.8,1.5,3.1,0.2,2.8-2.2c-0.3-2.4-1.6-4.3-2.8-6.2
			c-0.1-0.5,0-0.9,0.3-1.3c1.5-1.3,3.4-1.1,5.2-1.6c0.8,0.7,1.7,1.3,2.5,2c-0.8,1.2-3.4,0.5-3.2,2.5c0.2,1.4,1.6,2.5,3.3,2.3
			c1.4,1,1.3,2,0,3.1c-2.6,1.7-1.4,6.5-5.8,7c2.7,0.6,3.2,4.2,6.9,4c1.8-0.1,0.6,3.3,1,5.5c-3.7-2.2-6.2-0.3-6.7,2.5
			c-0.5,2.7,2.3,3.4,4.8,4.7c7.9,4.2,16.1,1.5,24,2.2c4.1,0.3,6.9,1.8,8.6,5.6c1.6,3.4,1.9,7.2,3.8,10.6c1,2-1.4,4.8-4.1,5.9
			c-1.9,0.8-3.8,1-5.8,1c-6.8-0.1-13.6,0-20.4,0c-2,0-4.1-0.3-5.2,2c-1.3,1-2.7,2-4,3c-0.5,0.9-1.1,1.5-2.2,0.8
			c-0.9-1.6-0.1-2.8,0.8-4.1c0.4-0.6,0.7-1.2,0.1-1.8c-0.4-0.4-0.9-0.4-1.4-0.2c-0.7,0.3-0.9,0.9-0.8,1.6c0.3,1.5,1.8,3.4-1.5,3.2
			c-1.4-0.2-2.8-1-4.6,0.4c1.8,0.2,3.1-1,4.4-0.3c0.9,0.4,1.5,1.1,1.5,2.2c-0.5,1.7-1.8,2.8-3.3,3.6c-1.5,0.2-2.8-0.2-4.1-0.8
			c-1.4-0.9-2.6-2-3.4-3.5c-0.9-2.3,2-3.6,1.7-5.9c-3.8-0.3-0.6,4-3.2,4.4C531.1,114.5,529.9,113.3,528.9,111.9z"/>
		<path class="st9" d="M530.9,63c-0.3,0.7-0.7,1.3-1,2c-1.3-0.7-3-1.1-3-3.1c0.4-2.6-0.8-5.4,0.9-7.8c2.4,2.5,3.2,0,4.3-1.4
			c0.5-0.9,2.1-1.1,1.7-2.7c-2.3,0.1-1.1,2.4-2.1,3.2c-1.1,0.8-2.2,2.2-3.6,0.5c-2.2-3.1-1.7-5.4,2.2-6.4c1.3-0.3,2.6-0.6,2.6-2.3
			c0.1-0.3,0.4-0.6,0.4-0.9c0.2-1.1,2.1-1.4,1.4-2.8c-0.2-0.4-0.9-0.5-1.3-0.3c-1.5,0.9-0.2,2-0.2,3.1c0,0.3,0,0.6-0.2,0.9
			c-2.1-1.5-6.6-0.2-6-5c3.6-2.4,7.1-5.1,11.2-0.6c0.9,1,2.3,0.6,3.1-0.4c4.3-5,7.3,0.9,10.9,1.4c0.2,0,0.6,1.6,0.5,1.6
			c-3,1.4-4.5,3.7-4.7,6.9c-2.7,0.1-3.9,1.5-4,4.1l0,0c-1.9,1.4-2.9-0.2-3.9-0.9c0.6,2.3,5.4,1.7,4.4,5.3c-0.7,2.6-2.5,4.5-5.5,4.6
			c-0.7-1.1-1.3-0.1-2,0c-0.8-0.1-1.4-0.7-2-1.2c-0.7-0.8-0.7-2.9-2.7-1.7C530.8,60,529.9,61.2,530.9,63z"/>
		<path class="st17" d="M582.9,43.1c2.2,0.4,4.7,1,3.8,3.9c-1,3.2-3.9,5-6.9,4.6c-8.6-1.1-17.2-0.2-25.8-0.5c0.4-2.8,2.7-2.1,4.3-2
			c6.7,0.4,13.3-2,20.2-0.4C581.5,49.4,583.4,46.5,582.9,43.1z"/>
		<path class="st127" d="M543.9,53.1c-0.1-1.2-2.9-2.2-0.6-3.5c1.3-0.7,2.8-3.7,4.6-0.5c0.1,0.9,0.3,1.7,1.2,2.1
			C547.6,52.3,546,53.4,543.9,53.1z"/>
		<path class="st17" d="M583.9,41c-0.3,0.7-0.7,1.4-1,2c-1.5-0.1-3.2,0.4-4.9-1C580.1,40.5,582.1,41.3,583.9,41z"/>
		<path class="st20" d="M398.9,64c-4.6,2-9.4,1.2-14.1,0.9c-2.5-0.1-1.6-2.4-1.9-3.9c5.2-3.1,10.6-1.8,16-0.9
			C398.9,61.4,398.9,62.7,398.9,64z"/>
		<path class="st128" d="M524.5,50.4c-1.8-1.7-3.7-1.5-5.4-1.3c-6.6,0.9-13.1-1.1-19.7-0.4c-5.3,0.6-5-4.9-5.2-8.4
			c-0.2-3.1,1.4-6,5.2-6.1c7.8-0.2,15.6-0.3,23.3,0.9c2.1,0.3,2.1,1.6,2.3,3.1C525.6,42.1,525.5,46,524.5,50.4z"/>
		<path class="st20" d="M526,62.1c0,2.3,0,4.6,0,7.6c-1.7-2.1-2-3.8-2.1-5.6c-0.7-0.8-1.2-1.7-1.5-2.7c-0.6-2.1-2.2-2.6-4.2-2.7
			c-6.3-0.3-12.5-0.1-18.8-0.3c-3.4-0.1-5.4,3.2-8.7,2.8c0.4-4.8-0.7-9.6-1-14.3c-0.1-1.2,0.2-2.7,2.1-2.8c0.7,7.1,3.2,9,10.2,7.5
			c4.3-0.9,8.6-0.5,12.9-0.3c0.6,0,1.3,0.5,1.9,0.5c2.6,0.1,5.6-2.4,7.4,2.2C525.3,56.7,525.9,59.3,526,62.1z"/>
		<path class="st129" d="M491.9,44c-1.5,1.3-1.3,3.3-0.8,4.6c1.7,4.2,1.5,8.3-0.1,12.4c0.2,0.5,0.5,0.9,0.2,1.4
			c-0.5,0.7-1.1,0.7-1.5,0.1c-1.1-1.6-1-3.4-1-5.3c-0.1-4.3,0.3-8.5-0.3-12.8c-0.1-0.9,0.1-1.7,0.8-2.3c0.9-0.3,1.9-0.7,2.8-1
			C492.6,42.1,492.6,43,491.9,44z"/>
		<path class="st130" d="M483.9,40.1c1.6,0.5,3.6-0.9,4.9,1.1c-0.5,0.5-1.1,0.9-1.7,1.2c-3.4,1.6-0.6,5.8-3.2,7.7
			c-8-0.8-8-0.8-8-9.1c0-1.6-0.3-3.4,0.1-4.9c0.3-1.5-1.6-4.5,2-4.3c2.4,0.1,5.6,0.1,5,4.2C482.7,37.3,482.5,38.9,483.9,40.1z"/>
		<path class="st55" d="M485.9,70c-1.4,0.2-1.8,1-2,2.3c-1,7.5-1.1,7.5-8,5.6c0-5,0-10,0-15c5.3-2.4,7.3-1.8,9.9,2.9
			C485.9,67.3,485.9,68.6,485.9,70z"/>
		<path class="st131" d="M485.9,65.9c-2.5-3.7-6.3-2.9-9.9-2.9c-0.1-2.3,0.2-3.9,3.3-3.2c3,0.7,4.8-0.7,4.7-4c1.1-0.8,2.1-2,3.5-0.4
			c0.8,1.9,1,3.8-0.4,5.6C486.7,62.7,486.3,64.3,485.9,65.9z"/>
		<path class="st132" d="M486.9,55.1c-0.9,0.3-1.9,0.6-2.8,0.9c0-2-0.1-3.9-0.1-5.9c1.1-3-2.5-7.5,3.1-9
			C488.7,45.7,489.4,50.4,486.9,55.1z"/>
		<path class="st128" d="M464.9,43c0,1.3,0,2.7,0,4c-0.6,0.3-1.2,0.6-1.8,0.8c-3.7,1.2-5.9,0.8-5.2-4c0.3-2.4,0.1-5,0.1-7.4
			c0-2.2,1.2-3.3,3.4-3.3c2.4,0,2.4,1.5,2.6,3.3C464.2,38.6,463.1,41,464.9,43z"/>
		<path class="st133" d="M464.9,63.9c-0.8-0.3-0.9-1.1-1-1.8c-0.8-0.8-1.6-2.3-2.5-2.1c-5.8,1.5-4.8-2.9-5.4-6c0-1,0-2,0-3
			c3.3-0.1,7-1.2,8.8,3C464.9,57.3,464.9,60.6,464.9,63.9z"/>
		<path class="st134" d="M486.9,55.1c0-4.7,0.1-9.3,0.1-14c0.6,0,1.2,0.1,1.8,0.1c0,0.3,0.1,0.6,0.3,0.9c0,0.7,0.1,1.3,0.1,2
			c0.6,4.1,0.1,8.3,0.3,12.5c-0.1,2.6,0.2,5.2,0,7.8c-0.2,0.2-0.4,0.4-0.6,0.6c-0.6-1.3-1.1-2.6-1.7-3.9
			C487,59.1,487,57.1,486.9,55.1z"/>
		<path class="st8" d="M310,109c1-0.4,2.2-1.6,3.1-0.7c1.5,1.5-1.7,2.1-1.1,3.6C310.7,111.4,310,110.4,310,109z"/>
		<path class="st135" d="M537.9,118.9c1.5-0.2,2.8,0.3,4.1,1c2.2-0.2,5.1,0.5,4.7-3.4c0.1-0.2,0.2-0.4,0.3-0.6c0.7-0.3,1.3-0.7,2-1
			c0.4,2.3,4,1.3,4,4c0.6,1.6-1.8,1.3-1.4,3.1c8.1,0.9,16.4,0.2,24.7,0.4c2,0,4-0.2,5.9,0.6c3.2,1.3,5.1,3.2,2.6,6.8
			c-18,0-35.9,0.1-53.9,0.1c-11.3,0-22.5,0-33.8,0c-1.9,0-4.3,0.6-4.2-2.7c0.1-2.6,1.6-4.3,4-4.2c9.2,0.6,18.5-1.9,27.5,1.5
			c1.1,0.4,1.2-0.8,1.4-1.5c1.5-0.2,2.9,1.7,4.5,0.4c0.6-2.7-3.9-3.3-2.5-6.4c1-2.1,3-2.5,5-3c0.8-0.6,0.3-1.1-0.1-1.7
			c-1.6-2.1,0.2-3,1.5-3.9c1.4-0.9,2.5-0.1,3.5,1c1.4,1.6-0.2,2.3-1,3.2c-0.9,1-1.9,1.9-1.8,3.4c0,1.2-1.2,2-1.5,3.4
			C535,119.8,536.4,118,537.9,118.9z"/>
		<path class="st28" d="M584.8,129.8c0-5-1.8-6.9-7.2-6.8c-8.7,0.1-17.4-0.7-26,0.9c-0.9,0.2-1.9,0-3.9,0c2.4-2,2.2-5,5.3-5
			c1.5,2.2,3.4,3.1,6.3,3.1c7.3-0.2,14.7-0.1,22-0.1c2.5,0,4.6,1,6,3c1.1,1.6-0.2,3.1-1,4.5C586,129.7,585.3,129.7,584.8,129.8z"/>
		<path class="st8" d="M483.9,116.9c2.1-0.7,3.6-2.3,5-3.9c0,1.3,0.1,2.6,0,3.9c-0.1,1.7,0.6,3.8-2.2,4
			C483.5,121.1,484,118.8,483.9,116.9z"/>
		<path class="st136" d="M523.9,61c0,1,0,2,0,3c-8.1,1.3-16.3,0.6-24.5,0.9c-3.4,0.1-5.3,1.7-5.3,4.6c0.1,7.3-1.9,14.2-4.2,21.3
			c0-2.3,0-4.5,0-6.8c0-0.3,0-0.6,0-0.8c0.1-4.7-0.1-9.4,0.1-14.1c2.1-8.4,3.5-9.4,12.3-9.8c5.3-0.3,10.6-0.3,15.9-0.4
			C520.5,58.9,522.6,58.8,523.9,61z"/>
		<path class="st136" d="M489,83.9c-0.1-6.3-0.1-12.6-0.2-19l0.3,0.1c0.7-0.3,1.2-0.1,1.5,0.6c-0.4,6.1,0.4,12.2-0.6,18.3l-0.1,0.1
			C489.6,84,489.3,84,489,83.9z"/>
		<path class="st26" d="M532.9,113.9c-1.3,1.6-3.3,2-5,3c-0.1-1.8,0-3.4,1-5C530.6,111.8,531.5,113.4,532.9,113.9z"/>
		<path class="st19" d="M456,54c1.6,1.4,0.5,3.4,1.2,5c3.4-1.3,6.6-2.4,6.7,3c-3-0.6-5.5,0.5-7.9,1.9C456,60.6,456,57.3,456,54z"/>
		<path class="st137" d="M538.9,62c1-0.8,2.1-1.6,3-2.5c1.5-1.6,3.8-3-0.4-4.4c-1.9-0.6-3.1-3.1-4.9-5c3.7-0.7,4.6,3.2,7.4,3
			c3.1,1.8,3.2,5.3,4.5,8.2c0.9,1.9-0.9,2.6-1.9,3.6c-1.3,1.3-1.9,0.2-2.7-0.8c-0.8-1-1.9-2.3-3.2-0.9c-1.2,1.3-0.3,2.3,0.9,3.2
			c2.2,1.6,0.6,2.7-0.5,4c-1.8,2.1-2.8,0.3-4-0.7c-1-0.9-3-1.3-0.6-3.1C537.7,65.6,538.1,63.5,538.9,62z"/>
		<path class="st131" d="M530.9,63c-0.7-0.9-3.1-0.2-2.6-1.3c1-2.4,3-4.5,5.7-5c2-0.4,0.9,1.5,1.2,2.4c0.4,1.1,1.1,2,1.7,2.9
			C535.3,64.5,533.7,67.1,530.9,63z"/>
		<path class="st55" d="M538.8,76.2c2,0.8,3.6,2,3.9,4c0.3,2.2-1.8,4.2-3.4,4.1c-2,0-3.7-2.4-3.9-4.4
			C535.1,78.2,537.2,77.2,538.8,76.2z"/>
		<path class="st138" d="M544.7,83.2c1.9,0.5,3.5,1.8,3.8,3.5c0.4,2-1.6,3.5-3.1,3.8c-2.1,0.4-3.7-1.6-4-3.4
			C541.1,85.2,543.1,84.2,544.7,83.2z"/>
		<path class="st65" d="M548.8,74.1c-0.3,2.2-1.6,3.9-3.3,4.1c-2.2,0.2-2.6-2.1-3-3.9c-0.4-1.9,1-3.8,2.2-3.8
			C546.9,70.3,548,72.4,548.8,74.1z"/>
		<path class="st69" d="M536.9,74.4c-0.5,2-1.7,3.8-3.4,3.9c-2.1,0.1-2.6-2.3-2.8-4.1c-0.3-1.8,1-3.7,2.4-3.7
			C535,70.5,536.1,72.5,536.9,74.4z"/>
		<path class="st33" d="M530,86.9c0.1-1.9,1.1-3.4,2.9-3.5c1.9,0,3.4,1.7,3.6,3.4c0.2,1.9-1.7,3.5-3.3,3.7
			C530.9,90.8,530.8,88.3,530,86.9z"/>
		<path class="st135" d="M544.9,116.9c-0.3-0.6-0.7-1.3-1-1.9c-0.3-0.2-0.5-0.5-0.3-0.7c0.1-0.2,0.2-0.3,0.4-0.3
			c0.6-0.1,1.7-0.3,1.2-0.9c-1.2-1.4-2.6-2.2-0.6-4.3c2.3-2.4,3.5-0.1,5,0.6c0.4,0.2,0.6,0.7,1,1.2c-1.4,1.7-4.3,2.4-3.6,5.4l0,0
			C546.5,116.7,546,117.4,544.9,116.9z"/>
		<path class="st69" d="M537.9,118.9c-0.3,0.1-0.6,0.4-0.9,0.4c-1.9,0.2-3.5,4-5.2,1.5s1.6-3.5,3.1-4.9
			C536.2,116.6,537.3,117.6,537.9,118.9z"/>
		<path class="st139" d="M544.9,116.9c0.7-0.3,1.3-0.6,2-0.9c1,1.5,2.1,2.6,0.1,4.5c-2.3,2.2-3.5,0.3-5.1-0.6
			C542.6,118.6,543.6,117.6,544.9,116.9z"/>
		<path class="st52" d="M543.9,113.9c0,0.3,0,0.7,0,1c-0.6,0.2-1.4,0.2-1.9,0.6c-1.4,1-2.7,2.2-4.3,0.5c-0.7-0.7-0.6-1.5,0.3-2
			c1.4-0.9,2.6-2.9,4.6-0.8C543,113.5,543.5,113.7,543.9,113.9z"/>
		<path class="st92" d="M541.9,43c1.1,1.6,0.7,3.1-0.3,4.6c-0.6,0.9-1.4,1.5-2.5,1c-1.1-0.6-2.7-0.9-2.8-2.5c-0.1-1.2,1-1.6,1.8-2.1
			C539.3,43.2,540.6,43,541.9,43L541.9,43z"/>
		<path class="st93" d="M541.9,43c2.2-4.9,2.7-5,7.4-1.5C547.4,44.8,544.7,44.3,541.9,43L541.9,43z"/>
		<path class="st140" d="M532.9,45c0-1.8-3.9-2.3-1.7-4.7c2.6-2.9,4.2,0.1,6.6,1.3C536,42.9,534.5,44,532.9,45L532.9,45z"/>
		<path class="st141" d="M531.9,53c0-1.2-2.9-2.2-0.2-3.5c1.1-0.5,1.6-2.4,3.2-1.7c1,0.4,1.1,1.6,1,2.6
			C535.6,52.8,533.9,53.1,531.9,53L531.9,53z"/>
		<path class="st14" d="M531.9,53c0.7,2.9-1.8,3.6-3.5,4.1c-0.9,0.3-0.4-1.9-0.6-3l0.3-0.4C529.4,53.5,530.7,53.3,531.9,53L531.9,53
			z"/>
		<path class="st142" d="M489.9,65c-0.3,0-0.6,0-0.9,0c0-2.7,0-5.4,0-8c0.3-0.4,0.5-0.4,0.7,0.1c0.1,1.6-0.2,3.3,0.3,4.6
			c0.4,0.9,0.6-0.3,0.8-0.7c3.1-3.5,7-4.4,11.6-4.1c5.4,0.3,10.9,0.1,16.4,0.3c2.4,0.1,4.6,0.8,4.9,3.8c-4-2.6-8.3,0-12.6-0.7
			c-4.7-0.8-9.8,0.2-14.7,0.8c-4.5,0.6-3.9,5.2-5.7,7.9C489.8,67.9,491.1,66.1,489.9,65z"/>
		<path class="st20" d="M489.8,57.1c-0.2,0-0.5-0.1-0.7-0.1c0-4.3,0-8.6,0.1-12.9C490.9,48.3,489.4,52.7,489.8,57.1z"/>
		<path class="st75" d="M489.9,65c1.5,1.1,0.8,2.6,1,4c-0.6,5,1.1,10.1-1,14.9C489.9,77.6,489.9,71.3,489.9,65z"/>
	</g>
</g>
</svg>
