<?xml version="1.0" encoding="utf-8"?>
<!-- Generator: Adobe Illustrator 25.0.0, SVG Export Plug-In . SVG Version: 6.00 Build 0)  -->
<svg version="1.1" xmlns="http://www.w3.org/2000/svg" xmlns:xlink="http://www.w3.org/1999/xlink" x="0px" y="0px"
	 viewBox="0 0 709.1 125.1" style="enable-background:new 0 0 709.1 125.1;" xml:space="preserve">
<style type="text/css">
	.st0{fill:#171A1B;}
	.st1{fill:#494C4A;}
	.st2{fill:#101212;}
	.st3{fill:#91948F;}
	.st4{fill:#979A97;}
	.st5{fill:#35393A;}
	.st6{fill:#B0B0AF;}
	.st7{fill:#21201D;}
	.st8{fill:#1A1D1E;}
	.st9{fill:#111110;}
	.st10{fill:#C8CFCC;}
	.st11{fill:#191B1C;}
	.st12{fill:#474C4C;}
	.st13{fill:#393936;}
	.st14{fill:#D6DDD9;}
	.st15{fill:#474D4E;}
	.st16{fill:#444847;}
	.st17{fill:#2C2C29;}
	.st18{fill:#3B3F3E;}
	.st19{fill:#383834;}
	.st20{fill:#969F9D;}
	.st21{fill:#494A47;}
	.st22{fill:#32362D;}
	.st23{fill:#31362C;}
	.st24{fill:#202324;}
	.st25{fill:#1C1C19;}
	.st26{fill:#4D5353;}
	.st27{fill:#484B4A;}
	.st28{fill:#2D3127;}
	.st29{fill:#595F5E;}
	.st30{fill:#31342C;}
	.st31{fill:#2E3233;}
	.st32{fill:#4C514D;}
	.st33{fill:#656B68;}
	.st34{fill:#505554;}
	.st35{fill:#3C403D;}
	.st36{fill:#626764;}
	.st37{fill:#97A09D;}
	.st38{fill:#8B9491;}
	.st39{fill:#727A79;}
	.st40{fill:#8A918A;}
	.st41{fill:#959D98;}
	.st42{fill:#8B946F;}
	.st43{fill:#676C69;}
	.st44{fill:#A2AA88;}
	.st45{fill:#2B2E26;}
	.st46{fill:#969D96;}
	.st47{fill:#B7C08E;}
	.st48{fill:#8E9590;}
	.st49{fill:#7A835F;}
	.st50{fill:#82877C;}
	.st51{fill:#C5CDA1;}
	.st52{fill:#B0B7AE;}
	.st53{fill:#A6AF83;}
	.st54{fill:#A6ADA7;}
	.st55{fill:#949D99;}
	.st56{fill:#70785A;}
	.st57{fill:#7F8377;}
	.st58{fill:#929A73;}
	.st59{fill:#EFF1E7;}
	.st60{fill:#6F726E;}
	.st61{fill:#A4AC89;}
	.st62{fill:#B6BF8D;}
	.st63{fill:#CBD1AC;}
	.st64{fill:#4F524F;}
	.st65{fill:#88906F;}
	.st66{fill:#5B6263;}
	.st67{fill:#B4BC98;}
	.st68{fill:#6C7358;}
	.st69{fill:#897C69;}
	.st70{fill:#888E87;}
	.st71{fill:#565047;}
	.st72{fill:#4B5253;}
	.st73{fill:#808782;}
	.st74{fill:#585F60;}
	.st75{fill:#7F8682;}
	.st76{fill:#70665A;}
	.st77{fill:#767D78;}
	.st78{fill:#F7F8F5;}
	.st79{fill:#7A817A;}
	.st80{fill:#7D847F;}
	.st81{fill:#717773;}
	.st82{fill:#5A5E5B;}
	.st83{fill:#656D6D;}
	.st84{fill:#AA9F8C;}
	.st85{fill:#777D76;}
	.st86{fill:#93978C;}
	.st87{fill:#D1D6C9;}
	.st88{fill:#333839;}
	.st89{fill:#3F4546;}
	.st90{fill:#363A3B;}
	.st91{fill:#6A6F6B;}
	.st92{fill:#3D4140;}
	.st93{fill:#171919;}
	.st94{fill:#151412;}
	.st95{fill:#272A2A;}
	.st96{fill:#46413B;}
	.st97{fill:#686055;}
	.st98{fill:#827869;}
	.st99{fill:#5D564C;}
	.st100{fill:#3F4241;}
	.st101{fill:#504A43;}
	.st102{fill:#7D7668;}
	.st103{fill:#272A2B;}
	.st104{fill:#2D3132;}
	.st105{fill:#2C3030;}
	.st106{fill:#0E0F0F;}
	.st107{fill:#23221F;}
	.st108{fill:#272723;}
	.st109{fill:#40413D;}
	.st110{fill:#2F302C;}
	.st111{fill:#31322E;}
	.st112{fill:#4B4D4A;}
	.st113{fill:#828B89;}
	.st114{fill:#B7BFBC;}
	.st115{fill:#5A6263;}
	.st116{fill:#383D3E;}
	.st117{fill:#494F51;}
	.st118{fill:#353A3B;}
	.st119{fill:#30302D;}
	.st120{fill:#6B7263;}
	.st121{fill:#6D736F;}
	.st122{fill:#484D4C;}
	.st123{fill:#5F664F;}
	.st124{fill:#5C6256;}
	.st125{fill:#7C8378;}
	.st126{fill:#414545;}
	.st127{fill:#727B7A;}
	.st128{fill:#505759;}
	.st129{fill:#82896C;}
	.st130{fill:#494F4E;}
	.st131{fill:#919991;}
	.st132{fill:#5C5F5B;}
	.st133{fill:#5B6364;}
	.st134{fill:#626B6C;}
	.st135{fill:#3D4344;}
	.st136{fill:#A08544;}
	.st137{fill:#ADB6B3;}
	.st138{fill:#4B5152;}
	.st139{fill:#56554A;}
	.st140{fill:#899392;}
	.st141{fill:#BA9A4F;}
	.st142{fill:#373B3C;}
	.st143{fill:#687172;}
	.st144{fill:#484F50;}
	.st145{fill:#939B96;}
	.st146{fill:#383B3A;}
	.st147{fill:#C3CCC9;}
	.st148{fill:#C6CDC9;}
	.st149{fill:#A6AEA7;}
	.st150{fill:#4A503D;}
	.st151{fill:#393F30;}
	.st152{fill:#DEE1CE;}
	.st153{fill:#6D7473;}
	.st154{fill:#D9DFDC;}
	.st155{fill:#70797A;}
	.st156{fill:#959C95;}
	.st157{fill:#97A07A;}
	.st158{fill:#788062;}
	.st159{fill:#181918;}
	.st160{fill:#6D6458;}
	.st161{fill:#5E574D;}
	.st162{fill:#988B79;}
	.st163{fill:#AFA18F;}
	.st164{fill:#5E574C;}
	.st165{fill:#686D6A;}
	.st166{fill:#A3ABA8;}
	.st167{fill:#464643;}
	.st168{fill:#9FA8A5;}
	.st169{fill:#959F9E;}
	.st170{fill:#F6F7F5;}
	.st171{fill:#4E5556;}
	.st172{fill:#847867;}
	.st173{fill:#464C4E;}
	.st174{fill:#595C59;}
	.st175{fill:#5F635F;}
	.st176{fill:#7C6734;}
	.st177{fill:#44494A;}
	.st178{fill:#303436;}
	.st179{fill:#424849;}
	.st180{fill:#575E5F;}
	.st181{fill:#64532A;}
	.st182{fill:#4D504D;}
	.st183{fill:#A5ADA8;}
	.st184{fill:#7D6835;}
	.st185{fill:#594A25;}
	.st186{fill:#514423;}
	.st187{fill:#D6DAD8;}
</style>
<g id="Camada_2">
</g>
<g id="Camada_1">
	<g>
		<path class="st0" d="M93,63.2c-2.2,1.9-4.3,7.2-6.4-0.2c-0.5-1.8-3-0.6-4.5-0.3c-17.6,3-35.3,6.1-52.9,9.2
			c-1.3,0.2-2.6,0.2-3.9,0.3c-2.2-4.6-5.2-8.2-10.5-9.3c-1.2-0.3-2-1-2.9-1.8c-3.3-2.9-5.8-2-7.4,2c-0.8,2,0.3,5.9-4.2,5.1
			c0-2.3,0-4.7,0-7c1.2-4.1,0.1-8.3,0.6-12.4c0.2-0.6,0.5-1,1-1.3c2.2-0.9,4.5-0.8,6.8-0.6c5.4,0.3,6.5,2,4.9,7.8
			c3.4-3.6,7.7-3.9,12.2-3.1c2.1,2.2,4.8,2.5,7.7,2.4c12.6-0.3,25.1-1.8,37.6-2.2c3.8-0.1,7.1-2.5,10.8-3.2c2.7-2.7,2.5-5.8,1-8.9
			c-0.8-2.3-0.5-4,2.1-4.7c2.9,0.7,2.3,3.2,2.4,5.2c0.2,2.8-0.2,5.6,0.3,8.3c0.3,1.6,1,3.2,2.6,0.7c0.3-0.4,0.6-0.8,1-1
			c4.3,0.6,8.5,2.1,13,2.1c3.1,0,6.1-0.4,9.1-0.9c1.1,1,1.6,2.3,1.9,3.7c0.5,3.6,0.4,7.2,0.2,10.8c-0.1,2.3-0.8,4.3-3.8,4
			c-3.4,0.8-6.8-0.6-10.2,0c-1,0.2-2-0.4-2.5-1.3c-0.7-1.1-0.7-1.9-2.5-0.6C94.1,67.6,94.2,64.1,93,63.2z"/>
		<path class="st1" d="M0.2,15.2c2.9-3,10.9-3,14.3-0.1c-0.4,0.6-1,0.9-1.6,1c-1,0.2-2,0.2-3-0.1c-0.3-0.6-0.7,0.8-0.4,0.2
			c0.1-0.2,0.2-0.1,0.4,0.2c1.8,2,2,4.9,2.1,6.9c0.5,5.9,4.4,9.9,6.4,14.9c-2.1,1.9-1.8,4.5-2.2,6.8c-0.3,1.5-0.9,3.2-2.8,1
			c-1.7-1.9-4.2-1.7-6.4-2.3c-3.8-1.1-3.3,3.6-5.7,4.4l0,0c-0.4,0.4-0.8,0.3-1.1-0.1c0-4,0-8,0-12c0.8-4.3,0.8-8.7,0-13
			C0.2,20.5,0.2,17.8,0.2,15.2z"/>
		<path class="st2" d="M0.2,68.1C3,67.5,2.9,65,3.1,63c0.3-2.9,1.5-4.3,4.4-5c2.7-0.7,4.4-0.4,5.4,2.4c0.1,0.4,0.7,1.2,0.8,1.1
			c5-1.9,5.9,3.6,9.1,4.8c3,1.2,3.5,3.1,2.3,5.8c-1.9,0.4-3.9,0.9-5.8,1.3c-1,0.2-2.5,0.3-2.8,0.8C13.2,81.8,6.4,77.9,1.1,79
			c-1.5-3.2,0.4-6.7-1.1-9.9C0.2,68.8,0.2,68.4,0.2,68.1z"/>
		<path class="st3" d="M444,120c0,1.7,0,3.4,0.1,5c-6.3,0-12.7,0-19,0c-0.7-1.3-1.6-2.6-1.9-4c-0.4-1.7,0.4-2.1,1.9-1.1
			c0.9,0.4,1.5,1.1,2.2,1.8c4.5,1.8,9.1,1,13.7,0.5C442,121.6,442.2,119.7,444,120z"/>
		<path class="st4" d="M0.2,23.2c2.2,4.3,1.5,8.7,0,13C0.2,31.8,0.2,27.5,0.2,23.2z"/>
		<path class="st5" d="M0.2,48.1c0.4,0,0.7,0.1,1.1,0.1C0.6,52.5,2.5,57,0.2,61.1C0.2,56.8,0.2,52.5,0.2,48.1z"/>
		<path class="st6" d="M0.2,69.1c2,3.1,0.6,6.6,1.1,9.9c-0.4,0-0.7,0-1.1,0C0.2,75.7,0.2,72.4,0.2,69.1z"/>
		<path class="st7" d="M183.9,65.2c-2.4-0.3-4.9,0.7-7.4-1.2c-0.9-0.7-2.6,3.7-5.4,2c-0.8-1.7-2.4-2.8-3.5-4.3
			c-0.6-1.8-0.8-3.4,1.5-4.1c1.5,0.1,1.1,2.3,2.7,2.3c0.5,0.4,0.7-0.8,0.4-0.2c0,0.1-0.1,0-0.3,0c-1.2-0.3-1.6-1.5-2.3-2.3
			c-0.8-1.4-0.7-2.8,0-4.2c1.4-1.9,4.7-2.3,4.2-5.6c-0.4-4.2,1.1-8.6-2.3-12.5c-1.4-1.6,2.2-2.1,3-3.7c0.7-0.5,1.4-0.8,2.2-0.6
			c2.8,2,1.8,5.1,1.9,7.7c0.3,6.4,0.6,6.9,7.1,7.2c3.5,0.1,7.1-0.7,10.5,1c0.7,0.7,0.7,1.6,0.3,2.4c-2.6,0.8-5.3,0.4-7.9,0.4
			c6.4-0.3,12.8-0.2,19.3,0.1c7.2,0,14.4,0,21.5,0c13.2,0,26.4,0,39.5,0c4.4,0,8.7,0,13.1,0c4.7,0.2,9.4-0.4,14,0.4
			c2.5,1,2.7,4.6,5.7,5.1c1.9,5.7-2.9,8.3-5.4,11.9c-22.4,0.1-44.9,0.3-67.3,0.3c-10,0-19.9-0.2-29.9-0.4c-1.6,0-3.4,0.3-4.8-0.9
			C190.8,64.7,187.2,66.3,183.9,65.2z"/>
		<path class="st8" d="M296.1,67.1c-0.1-1.5,0.2-2.8,1.6-3.9c2.6-2.1,3.6-4.9,3.4-8.2c-1.2-3.3,1.2-4,3.3-3.6
			c4.1,0.8,8.3-0.4,12.2,1.3c1.6,0.7,3.2,0.2,4.8-0.3c1.7-0.5,3.4-1.5,5.2-0.2c1,1.4,2.1,2.5,4,2.4c8.9-0.1,17.8,0.5,26.7-0.7
			c8.9,1.9,17.4,1.6,26.3-0.9c5.7-1.6,12.2-0.1,18.3,0c7,0.1,14.3,0.7,21-2.3c4.4-2,8.9-0.6,13.3-0.9c10.8,2.7,21.8,1.2,32.7,1.7
			c4.3,0.2,8.3-2.6,12.7-1.4c1.6,0.6,2.8,1.7,4.1,2.7c1.3,1,2.7,1.4,4.1,0.3c4.2-3.6,9-2.7,13.8-1.8c4.4,0.9,8.8,1.7,13.3,2.3
			c2.9,0.4,2.9,0.4,4.2,4c0.3,0.9,1.1,0,1.6,0.1c2.7,0.5,6.9-1.2,6.2,4.3c-3.4,0.1-6.8,1-10.1-0.9c-5.5-0.5-10.8-2.3-16.4-1
			c-7.5,1.7-15.1-0.1-22.7,0.2c-13.1-0.2-26.2,0.3-39.3-0.2c-3.5-0.1-6.8,1.3-10.4,1.3c-2.7-0.1-5.3-0.2-7.9-0.9
			c-4.7,0.6-9.5-0.8-14.2,0.4c-4.1,2.4-8.5,3.3-13.3,3.2c-10.9-0.2-21.9-0.1-32.8-0.1c-3.3,0-5.2-0.1-2.4,4.2c2.8,4.2-2,5.7-4.5,7.8
			c-1.4,1-1.8-3.3-3.5-0.6c-2.5-1-2.7-4.7-6.1-5.1c-2.2-0.3-3.8-0.5-5.2,1.5c-1.8,2.5-4.4,3.9-7.3,4.7c-0.2,0-0.5,0.1-0.7,0.1
			c-0.5,0-0.9,0-1.4-0.1c-1.1-0.3-2-1.2-3.1-1.3c-3.4-1.8-6.7-3.3-2.9-7.9c1.3-1.6,0.5-3.6-2.3-3.2c-5.5,0.7-11.1-1-16.8,1.7
			C303.5,66.9,299.3,65.9,296.1,67.1z"/>
		<path class="st9" d="M331.1,76.1c0.3,0,0.6,0,1,0c4.4,2.2,9.1,0.2,11.7,0.8c-2.6-0.4-7.3,1.2-11.7-0.8c3.1-1.8,6.6-2.9,8.3-6.5
			c0.8-1.6,2.8-2.1,3.7-0.8c1.7,2.2,6.6-1,6.2,4c-0.1,1.2,0.7,1.7,1.5,2.3c1.7,1.3,1.8,3.2,1.6,5c-0.4,5.3,1.4,10.9-1.3,16
			c-0.7,0.5-1.5,0.7-2.3,0.5c-0.6-0.1-1.3,0-1.9-0.2c0.5,0.4,1.4-0.1,1.7,0.5c0.9,1.8-0.6,1.9-1.6,2c-3.6,0.3-7.2,0.1-10.8,0.1
			c4.9,0,9.9,0.1,14.8-0.2c0.6,0.6,0.7,1.3,0.4,2.1c-1.2,1.4-2.9,1.5-4.4,1.4c-2.3-0.2-4,0.8-5.5,2.2c-2.3,0-4.6,0.2-6.9-0.1
			c5,0.5,9.9-0.4,14.7-1.5c0.8-0.2,1.6-0.4,2.2,0.4c0.2,4.6-0.3,4.8-7.5,4c1.6,0.2,3.2,0.3,4.9,0.2s3,0.5,3,2.4
			c0.1,1.9-0.8,3.4-2.7,3.6c-1.9,0.3-3.9-0.1-6-0.1c4,0.2,8.7-0.4,8.9,5.6c-0.4,0.5-0.8,1.4-1.3,1.4c-6.9,0.7-13.9,1.7-20.7-0.5
			c-1.6-3.6-0.7-7.5-0.8-11.2c-0.4-9.8-0.7-19.7-0.2-29.5C330.2,78.1,330.2,76.9,331.1,76.1z"/>
		<path class="st10" d="M453,69c-1.3,3.6-2.6,7.1,1.4,11c-3.4-0.4-7.1-2.1-6.3,3.1c-2.5,4.9-5.9,2-9.1,1.2c-1.3-1.7-2.5-3.5-5.2-2.5
			c0.8,2.2,3.1,2.7,4.6,4.1c0.7,1.5,0.8,3.6-1.2,3.2c-5.4-1-11.5,0.6-16.1-3.9c-3.8-1.6-0.7-3.4,0.2-4.6c1.4-2,3.1-3.7,1.8-6.4
			c2.1-2.5,4.8-4.2,7.6-5.7c2.7,0.2,5.4-0.2,8.1-0.1c2.5,0.7,4.8-0.2,7.2-0.5C448.3,67.7,450.8,67.3,453,69z"/>
		<path class="st11" d="M130.1,65.9c-0.7,0-1.3,0.1-2,0.1c-1.2-0.7-2.6-0.5-3.8-0.4c-5.1,0.6-5.4,0.4-5.6-4.5
			c-0.1-2.1-0.1-4.3,0.1-6.4c0.3-2.2,0.8-4.3,1.9-6.3c0.7-0.7,1.4-0.5,2.1,0c3.5,3,7.3,0.5,11,0.7c0.5,0,1,0.1,1.4,0.2
			c3.8,1.8,7.5,1.9,11.3-0.1c0.3,0.4,0.6,0.9,0.7,1.4c0.5,3.8,1.4,7.5,1.2,11.3c-0.2,2.4-0.8,3.9-4,3.4
			C139.7,64.6,134.9,65.2,130.1,65.9z"/>
		<path class="st12" d="M130.1,65.9c4.5-2,9.3-2.4,14-1.5c2.8,0.5,3.2-0.4,3.1-2.6c-0.3-3.9-0.6-7.8-0.9-11.7
			c2.2,0.6,4.4,1.6,6.6,2.1c1.1,1,1.4,2.4,1.5,3.9c0.1,0.6-0.1,1.3,0.1,1.9c0.5,2.2-1.6,5.4,2.4,6.4c3.9,1,7.9,3,10.7-2
			c0.2-0.1,0.4-0.2,0.6-0.3c3.4-0.5,2.8,1.9,3,3.9c-0.7,0.4-1.9-1.8-2.2,0.2c-0.7,4-3.1,3.7-6.3,3.1
			C151.9,67.2,141.1,65.7,130.1,65.9z"/>
		<path class="st13" d="M352.1,101c0-0.7,0-1.3,0-2c-0.6-0.9-2.5-1.4-1-2.9c2.1-6.9,0.6-14,0.8-21c2.2-3.7,2,0.9,3.2,0.9
			c0,12.6-0.1,25.2-0.2,37.8c0,1.9,0.7,4.1-1.8,5.2c-1.8-4.6-5.7-5.4-10-5.9c1.6-0.1,3.2-0.2,4.8-0.2c1.9,0,3.9-0.1,4-2.6
			c0.2-2.9-2.1-2.3-3.8-2.4c-1.3-0.1-2.6,0-4.3,0c2.7-2.5,8.9,2,8.3-5C351.5,102.4,351.5,101.7,352.1,101z"/>
		<path class="st14" d="M439.1,84.1c2.9-1.3,6.3,2.8,8.9-1c0.1,1.1,0.5,1.9,1.8,2c0.6,0.1,1.5-0.2,1.4,0.8c-0.1,0.5-0.8,1.5-1.1,1.4
			c-4.9-0.7-3.7,3.8-5.2,6c-0.6,0.2-1.1,0.3-1.7,0.2c-4.3-0.2-8.5,0-12.8-0.1c-1.8,0-3.6,0.2-5.2-1.1c-0.7-2.8-3.7-4.3-4.2-7.2
			c2.6-3.6,2.7,1.2,4.4,1.6c3.9,0.8,8-0.3,11.8,1.5c1.2,0.6,0.6-1.4,0.9-2.1C438.7,85.5,438.9,84.8,439.1,84.1z"/>
		<path class="st15" d="M120.2,54.1c0,3.3-0.6,6.7,0.2,9.8c1.1,4.2,5.7-0.9,7.8,2.1c-6,1-11.9,2.5-18,1.9c-0.3-0.2-0.4-0.4-0.3-0.6
			c0.1-0.2,0.2-0.3,0.3-0.3c3.1,0.3,4.3-1,4.1-4.2c-0.3-3.5-0.1-7.1-0.1-10.7C116.9,50.3,118.7,51.8,120.2,54.1z"/>
		<path class="st16" d="M408.1,61c4.5-2,9.4-0.6,14-1.9c3.9,4.1,8.7,1.8,13.1,1.7c3,0,5.9-0.8,8.4,1.6c0.7,2.7-0.9,3.8-3.1,3.9
			c-6.3,0.3-12.6,0.1-18.8,1c-1.2-0.3-1.9-1.2-2.6-2.2C417.2,58.9,412.2,61.1,408.1,61z"/>
		<path class="st17" d="M110.1,67.1c0,0.3,0,0.6,0,0.9c-3.6,1.7-7.2,3.3-10.7,5c-2.5,1.2-4.1,0.6-4.7-2.1c-0.6-2.6-1.1-5.1-1.6-7.7
			c1.4,0.2,1.3,2.7,2.8,2.3c2.1-0.6,0.2-2.6,1.3-4.5C99.2,68.7,105.6,65.4,110.1,67.1z"/>
		<path class="st18" d="M331.1,76.1c-0.9,14.6,0.4,29.3,0,43.9c-1.5-0.8-1.8-2.1-1.8-3.7c-0.1-12.3-0.2-24.6-0.3-36.9
			c0-1.6-0.4-2.9-1.3-4.1C329,75.1,330.2,74.8,331.1,76.1z"/>
		<path class="st19" d="M425.2,92.3c6.3,0.1,12.6-1,18.9,0.7c-0.2,0.2-0.4,0.4-0.6,0.6c-3.8,1.7-7.8,0.8-11.7,0.8
			c-3.3,0.1-4.4,1.3-4.3,4.4c0.1,5.6,0.1,11.2,0,16.8c0,2,0.2,4-0.8,5.8c-0.2,0.2-0.4,0.4-0.7,0.6c-0.3-0.7-0.6-1.4-1-2.2
			C424,110.7,425.8,101.5,425.2,92.3z"/>
		<path class="st20" d="M419,65.1c0.6,0.4,1.3,0.7,1.9,1.1c2.4,2.3,5.4,1,8.1,1.4c0.6,0.4,1.1,0.9,1.2,1.6c-1.8,2.6-5,3.1-7.2,4.9
			c-1.3-2.1-3.7-1.7-6.1-2.5C420,70,418.5,67.3,419,65.1z"/>
		<path class="st21" d="M183.9,65.2c3.5-0.1,7-1.2,10.2,0.9C190.7,66.3,187.2,66.4,183.9,65.2z"/>
		<path class="st22" d="M574,60.1c-1.4-0.1-2.8,0-4-1c-2.3-1.4-5.1-1.2-7.5-2.4c-2-1-4.6-1.8-4.1-4.8c0.5-2.9,2.8-3.9,5.5-4.1
			c0.8-0.1,1.7,0,2.5,0.1c6.7,1.7,13.4,3.5,20.4,1.5c1.2,0.4,2,1.2,2.7,2.2c1.5,3,2.4,0.7,3.5-0.4c1.7-1.2,3.2-1,4.5,0.6
			c1.4,4.2,2.3,8.7,7.1,10.8c0.6,0.3,0.9,0.9,0.8,1.7c-0.2,1-0.9,1.4-1.7,1.5c-1.2,0.2-2.3-0.4-3.4-0.3
			C591.6,63.1,582.8,61.5,574,60.1z"/>
		<path class="st23" d="M686,53.2c-2.2,1-4.6,1.6-7,1.7c0.3-1.7,0-2.8-2.2-2.3c-11.7,2.7-23.5,4.2-35.1,7.1
			c-4.1,1.1-8.1,2.1-12.2,0.5c-0.5-0.1-0.9-0.3-1.3-0.5c-1.6-1.1-2.4-2.8-1.7-4.6c0.9-2.3,2.6-1.2,4.4-1.2c1.4,0,2.5-2.7,4.7-3
			c2.1-0.6,4.3-0.2,6.4-0.7c12.5-0.6,24.8-3.2,37.4-2.5c1.5,0,2.9,0.2,4.3,0.4C686.8,48.6,687.7,50.3,686,53.2z"/>
		<path class="st24" d="M529,62.1c-0.2-2.7-2-3-4.2-3.1c-1.9-0.1-4,0.6-5.1-0.2c-2.7-2.3,4.8-2.7,0.3-3.2c-8.2-1-16.1-4-24.5-3.5
			c-1,0.1-2.4,0-2.8,0.6c-4.7,6.8-7.5,1.6-10.6-1.6c2.8-2.5,6.6-0.3,9.5-2.3c0.5-0.2,1-0.2,1.5-0.2c4.8,2.1,9.7,1,14.6,0.4
			c3.6-0.6,7.3,0.1,10.8-1c2-0.3,4-0.3,6-0.5c0.7,0,1.4,0.2,1.9,0.8c3,1.5,5.1,0.7,6.3-2.4c0.1-0.7,0.2-1.4,0.3-2.1
			c0.2-1,0.6-1.8,1.6-2.2c0.5-0.1,1-0.1,1.4,0.1c0.9,0.5,1.4,1.2,1.7,2.2c0.2,2-0.4,3.9-0.2,5.9c-0.1,0.7-0.3,1.3-0.6,1.9
			c-0.5,1-0.9,2-1.8,2.8c-0.4,0.2-0.8,0.1-1.2-0.2c-2.9,1.2-1.4,3.7-1.4,5.6C532.5,62.6,531.1,62.7,529,62.1z"/>
		<path class="st25" d="M629,59.1c7,2.6,13.2-1.6,19.8-2.4c10.8-1.3,21.2-4.8,32.1-5.8c0.6,2.3-1.6,2.6-1.9,4
			c-14.5,3.9-29.1,7.8-44,10.2c-2.2,1.2-4.3,0.1-6-0.7C625.8,63,627.3,60.9,629,59.1z"/>
		<path class="st26" d="M600,65.1c1.5-0.2,3.2,0.4,4.8-0.8c-4.3-2.1-3.3-3.4-4.6-4.4c-2.8-2.3-3.5-4.6-3.3-7.8
			c1.6-1.7,3.8-2.6,5.9-3.6c2.2-0.3,4.5,1.7,6.7-0.1c2,0.2,3.1,1.1,2.9,3.2c-1.8,1.5-3.1,2.7-0.7,5.1c1.9,1.9,1.5,4.5,0.1,6.8
			c-1.4,0.9-2.1,2.3-2.8,3.6c-3-0.4-6-0.8-9-1.2c-0.3-0.2-0.5-0.4-0.3-0.6C599.8,65.2,599.9,65.1,600,65.1z"/>
		<path class="st27" d="M464,65.2c-3.6,0-7.2,0-10.8,0c-5.2,2.3-7.3,1.7-9.4-2.4c3.4-3,7.7-2.4,11.5-2.3c8.2,0.2,16.3-0.2,24.5-0.3
			c6.1-0.1,12.1,1.1,18.1,1.4c1.5,0.1,3.8-0.2,4.3,2.3c-2.4,1.3-4.8,0.8-7.3,0.3c-3.5,1.8-7.1,0.3-10.7,0.6
			c-5.7,0.3-11.5-0.8-17,1.5C465.7,67.2,464.8,66.1,464,65.2z"/>
		<path class="st28" d="M611,63.1c0.7-2.5,2-5-1.6-6.7c-1.5-0.7-0.8-2.7-0.3-4.1c0.7-1.8,1.9-0.4,2.9-0.2c2.7-2.8,6.2,0.3,9.1-1.4
			c0.5,0,0.9,0.1,1.3,0.4c0.7,0.7,1.1,1.5,1.3,2.5c0.4,1.6-0.9,2.7-1.2,4.1c-0.4,1.5-1,2.9,1.2,3.9c2.1,0.9,3,2.9,2.2,5.3
			c-0.9,0.1-1.8,0.2-2.7,0.3c-4.5,1.7-8.3-0.7-12.2-2.1C610.3,64.9,610.4,63.8,611,63.1z"/>
		<path class="st29" d="M686,53.2c0.7-6.5-4.7-2.8-7-4.2c-0.6-0.5-0.6-1.2-0.4-1.9c1-1.2,1.8-2.6,2.4-4c8.3,5.2,17.5,2.3,26.4,2.9
			c-0.1,3.3-3.2,2.5-4.6,4C697.2,51.1,691.6,52.2,686,53.2z"/>
		<path class="st30" d="M534,54.1c0.4,0,0.9-0.1,1.3-0.1c2.9-0.8,5.6-2,8-3.8c1.2-0.7,2.3-1.6,3.8-1.8c0.5,0,0.9,0.1,1.4,0.3
			c1.8,1.1,3.9,1.8,5.6,3c1.6,1,3.6,2.4,0.9,4.5c-5.4-0.3-10.7-0.4-15.8,2.3C534.6,61,534.8,56.7,534,54.1z"/>
		<path class="st31" d="M502,63c-5.9-1.6-12.2,0.6-18-2.1c-1-0.5-2.6,0.1-3.9,0.2c-0.6-0.7-0.6-1.3,0-2c8.8-0.3,17.6,0.8,26.5-0.7
			c3.9-0.7,8.3,1.8,12.4,2.8c-3-0.8-6-0.6-9-0.2C507.5,62.7,504.3,61.2,502,63z"/>
		<path class="st32" d="M555,56.2c1.3-2.4-0.4-3.3-2.1-4c-1.8-0.7-3.8-1.1-4.9-3c0.1-2.4,2.1-2.5,3.5-2.3c3.9,0.6,7.8,0.1,11.7-0.1
			c1.5-0.1,3.4-0.2,3.8,2.2c-3,0.4-7.4-1-7.6,3.4c-0.1,2.9,3.8,4.1,6.7,4.7c1.5,0.3,2.9,0.6,3.8,2C565,58.2,560,57.2,555,56.2z"/>
		<path class="st12" d="M626,67c-1.1-2.2-1.2-5.1-5-4.9c-2.1,0.1-1.8-1.3-0.6-2.6c1.6-1.8,2.6-3.9,2.7-6.3c3.3,0.3,3.5,0.3,3.7,5.4
			c0.1,2.2,0.8,0.6,1.4,0.6c0.3,0,0.6,0,1,0c-2.3,6.3,3.4,4.7,6.1,6C632.2,66.6,629.1,66.7,626,67z"/>
		<path class="st19" d="M444.1,93c0.3,0.1,0.5,0.2,0.8,0.3c-1.3,8.9-0.6,17.8-0.9,26.7c-0.6,1.1-1.2,2.1-1.8,3.2
			c-0.2-0.2-0.5-0.4-0.7-0.6c-0.3-0.5-0.5-1.1-0.7-1.7c-0.3-8.2-0.4-16.4,0.1-24.6c0.3-1.6,1.5-2.4,2.8-3.1L444.1,93z"/>
		<path class="st33" d="M444.1,62.1c1.7,4.9,5.9,2.4,9,3c0,0.3,0,0.6-0.1,0.9c-2.9,2.4-6.3,1.2-9.5,1.5c-4.1-0.1-8.2,0.5-12.3-0.6
			c-1.1-0.3-0.3,2.8-2.1,1.1c-3.1,1.1-6.1,2-8.2-1.8c6.5-1.5,13.2-1.1,19.8-1.2c2.1,0,2.3-1.4,2.3-3
			C443.4,61.9,443.7,61.9,444.1,62.1z"/>
		<path class="st34" d="M600,65.1c0,0.3,0,0.6,0,0.9c-8.7-1.7-17.5-3.2-26-5.9c0.1-1.5,0.8-2.4,2.2-1.2c1.7,1.4,3.8,0.8,5.4,1.4
			C587.6,62.7,594.5,61.3,600,65.1z"/>
		<path class="st35" d="M611,63.1c0.1,0.3,0.1,0.6,0.2,1c4.6-1.1,7.3,5,12.1,3.1c-4.8,1.1-9.5,1.2-14.3,0
			C607.3,64.7,609.2,63.9,611,63.1z"/>
		<path class="st36" d="M502,63c1.8-4.2,5.3-1.6,8-2c-0.5,2.3-1.5,4-4.2,4c-3.6,0-7.3,0.6-10.8-0.9C497.2,63.4,499.9,65.2,502,63z"
			/>
		<path class="st37" d="M443.1,66.2c3.3,0,6.6-0.1,9.9-0.1c0,1,0,2,0,3c-5-1.1-10,2.4-15,0.2C439.2,67.4,442.1,68.3,443.1,66.2z"/>
		<path class="st38" d="M464,65.2c1.1,0.4,2.2,0.7,3.2,1.1c-1.5,2.8-0.6,6-1.7,10.4C464.9,71.8,464.4,68.5,464,65.2z"/>
		<path class="st39" d="M363.1,29.3c0.3-0.1,0.6-0.2,0.9-0.2c0.2,0.2,0.4,0.3,0.6,0.5c0.6,3.5,2.7,4.4,6.3,4.4
			c7.9-0.2,15.8-0.5,23.7,0.2c0.1,0,0.3-0.1,0.3-0.2s-0.1-0.3-0.1-0.5c0.5-2,0.8-4,2.4-5.5c0.6,0.4,1.2,0.9,1.9,1.3
			c1.5,1.2,2,2.9,2.6,4.7c1.5,4.9,6.5,7.2,10.7,4.3c3.6-2.5,6.7-2,10.1-0.3c1.6,1.4,2,3.1,0.6,4.8c-1.2,1.5-3.2,2.4-4.9,1.6
			c-3.5-1.7-6.7-0.9-9.9,0.6c-1.8,0.8-4.4,1.1-5.7-0.2c-3.7-3.8-7.5-1.6-11.5-1c1.2,1.6,5.3,1.8,2,4.9c-2.4,0.6-4.3-0.6-6.3-1.5
			c-5.1-2.5-10.2-4.7-16.2-3.2c-1.5,0.4-2.9-0.1-4.3-0.7c-2.7-1.3-5.2-3.4-7.5,1c-0.9,1.7-3.3,0.5-4.8-0.7c-0.4-0.6-0.6-1.2-0.6-2
			c0.9-2,0.9-4.3,1.1-6.4c0.9-2.3,2.3-3.8,4.9-3.9C360.9,31.1,362.1,30.5,363.1,29.3z"/>
		<path class="st40" d="M363.1,29.3c-0.2,1.5,0.1,3.8-2.5,3c-3-0.9-4,1.4-5.6,2.9c-2.8,2.1-6.1,1-9.1,1.3c-2.1,0.2-4.3-0.2-6.4,0.6
			c-2.4,0.5-4.9,0.5-7.3,0.2c-2.4-0.3-4.9-2.1-6.9,0.9c-0.6,1.1-1.3,2.1-2.5,2.7c-3.4,0.7-6.1,0-6.5-3.9c-0.3-2.3-1.7-2.9-3.5-3.6
			c-2.3-0.9-4.3-2.1-2.8-5.1c0.5-0.4,0.9-0.4,1.4-0.1c0.2-0.2,0.5-0.2,0.7,0c11.3,0.9,22.6,0.7,33.9,0.1
			C351.8,27.7,357.5,28,363.1,29.3z"/>
		<path class="st41" d="M435.1,32.5c19.3-0.1,38.6-0.2,57.9-0.3c0.2,0.9-0.4,1.3-1,1.7c-2.3,0.4-4.6,1.1-6.9,1.6
			c-2.9-0.5-6.3-3.3-7.8,1.9c-0.1,0.9-0.2,1.9-0.6,2.8c-1.1,2.6-3.1,3.2-5.6,2.8c-3.7-0.6-7.4-0.7-11.2,0.2
			c-2.8,0.7-5.1-0.6-6.9-2.7c0.8-4,4.3-1.2,5.6-2.6c-3.3,0.7-7.7-0.3-10.3,3.9c-4.3,2.8-6.3,2.4-8.2-1.8
			C441.4,35.5,436.5,35.2,435.1,32.5z"/>
		<path class="st42" d="M575.1,31.2c6.6-1.4,13.2-2.8,19.8-4.2c4.2-1.3,6.4,2.1,9.2,4c0.4,0.2,0.8,0.5,1.1,0.8
			c1.1,2.1-1.6,4.4,0.2,6.5c-0.5,2.1,0.5,5.7-2.2,5.8c-3.5,0.2-7.9,2.5-10.6-2c-2.9-8.4-10.1-4.5-15.6-5.5
			C572.8,35.4,572.6,34.7,575.1,31.2z"/>
		<path class="st43" d="M397.2,27.9c0.2,2.4-0.5,4.4-2.1,6.2c-9,1.3-18.1,0.4-27.2,0.4c-3.1,0-3.1-2.9-3.6-5.1l-0.3-0.3
			c0.8-0.6,1.5-1.7,2.3-1.6C376.6,27.6,386.9,26.5,397.2,27.9z"/>
		<path class="st44" d="M546.1,36.2c3.3,1.1,7.3-3,10.3,1.2c0.6-0.7,1.1-1.4,1.7-2.1c2.2,2.2,5.2,0.8,7.8,1.6c2,0.6,4,1.2,6,2
			c2.9,2.8-2.2,4.8-0.5,7.4c2.9-0.5,6-0.7,9.1-0.8c0.5,0.2,0.9,0.5,1.1,0.9c0.2,0.5,0.2,1,0.2,1.5c-4.3,4-9.1,1.7-13.2,0.4
			c-2.9-0.9-5.3-1.1-8.1-0.9c-5.4,0.4-10.8,0.3-16-1.6c-0.4-0.3-0.6-0.8-0.6-1.3c1.3-3.2,4.3-1.2,6.3-1.9
			C551.1,38.9,546.6,38.8,546.1,36.2z"/>
		<path class="st45" d="M681,43.2c1.7,2.5,0.8,3.7-2,3.9c-2.6,1.7-5.5,0.9-8.2,0.8c-1.1-0.1-0.4-2.5-2.5-1.7
			c-1.8,0.7-3.9,0.3-5.9,0.3c-4.7-0.7-9.4-1-14.2-1c-4-0.2-8-1.3-12-1c-1.7-0.1-3,0.2-2.3,2.5c0.7,2.4-0.5,3-2.7,2.5
			c-2-1.8-3.1-3.7-1.1-6.2v-0.1c0.2-2.5,0.9-4.2,4.1-3.7c2.2,0.3,4.5,0.5,6.7-0.4c7-1.3,13.9,0.8,20.9,1c3.2,1.1,6.4,0.4,9.6,0.6
			c2.3,0.1,4.6-0.2,6.5,1.4C679,42.4,680,42.8,681,43.2z"/>
		<path class="st46" d="M422.1,38.1c-3.6-0.6-6.7-0.3-10.2,1.8c-4.9,2.8-10-0.2-11.2-5.6c-0.4-1.7-2-3.1-1.6-5
			c8,3.8,16.6,3.2,25.1,3.1c0.3,0.4,0.4,0.8,0.4,1.3C424.1,35.3,424.2,37.3,422.1,38.1z"/>
		<path class="st47" d="M661.9,41.3c-6.9-0.4-13.9-0.8-20.8-1.2c-0.4-0.2-0.6-0.5-0.8-0.9c-1.5-3.2-1.4-7.6-6.4-8
			c2-2,4.3-1.3,6.5-0.8c5,1,10,2.3,14.9,3.5c2.1,0.7,4.5,0.8,6.3,2.3c1.2,1.4,0.8,3,0.6,4.6C662.2,41,662,41.2,661.9,41.3z"/>
		<path class="st48" d="M504.1,33.1c4.7-0.6,9.4,0.4,14.1-0.7c1.1,0.2,2.5-0.3,3.2,1c0.4,2.7-1.9,3.6-3.4,5.1
			c-2.1,0.6-4.3-0.4-6.6,0.3c2.4,2,5.8,0.3,7.8,2.6c0,1.6-1,2.3-2.4,2.7c-6.2,0.3-12.4-0.1-18.6-0.5c-2.1-0.1-4.4-0.1-5.2-2.7
			c0.2-5.8,0.2-5.8,9.7-3.2C504,36.3,502.4,34.2,504.1,33.1z"/>
		<path class="st49" d="M656,35.2c-5.3-1.1-10.5-2.2-15.8-3.5c-2.1-0.5-4.2-0.8-6.3-0.5c-3.7,0.6-4-2.6-5.9-5.6
			c13,2.6,25.3,4.6,37.3,8.3c-0.4,1.9-1.2,2.9-3.3,1.8C660.1,34.7,658.1,34.8,656,35.2z"/>
		<path class="st50" d="M424.1,33.2c0-0.3,0-0.6,0-0.8c3.7-0.4,7.3-0.8,11,0.1c2.3,0.9,4.7,1.5,6.2,3.8c0.7,1.1,0.9,2-0.3,2.8
			c-1.4,1.1-2.6,3.2-4.9,1.4c-0.1-0.1-0.3-0.1-0.5,0.4c-0.7,2-2.2,2.2-3.9,1.5c-1.7-2.5-5-1.5-7.1-3.2
			C423.5,37.3,424.3,35.2,424.1,33.2z"/>
		<path class="st51" d="M546.1,36.2c0.6,1,1.7,1.1,2.6,0.9c4.1-0.8,1.2,3.9,3.5,4.4c-1.3,1.1-1.1,5-4.5,2.1c-1.1-1-2.4,0.7-3.7,0.5
			c-1.4,0.7-3,0.6-4.5,0.9c-1,0-1.9-0.2-2.3-1.2c-0.4-0.5-0.9-1.1-1.3-1.6c-0.5-0.8-0.8-1.7-0.4-2.7c2.1-1.2,3.9-2.6,3.6-5.4
			C541.7,33.7,543.6,35.9,546.1,36.2z"/>
		<path class="st52" d="M581,46.1c-2.5,0.8-5.1,1-7.7,1c-4.6,0.1-3.8-2.1-2.2-4.7c0.8-1.3,1.3-2.3-0.1-3.3c-1.9-1.6-3.4-3.4-3.1-6.1
			c2.2-1.1,4.7-1.6,7.2-1.8c0.4,1.5-3.4,5,2,4c0,2.2-0.2,4.1,2,5.8C580.3,42,582.3,43.7,581,46.1z"/>
		<path class="st53" d="M621,28.2c1.8,3.8,4,7.4,4.1,11.8c1.3,4.5-1.5,5.3-5,5.4c-3.3-0.4-4-1.8-1.7-4.4c1.4-1.6,1.8-3-0.5-4.4
			c-2.8-1.6-3.5-4.5-4.2-7.4C615.9,26.5,618.1,24.8,621,28.2z"/>
		<path class="st54" d="M619,44.1c3.1,0.1,6.3,0.4,6.1-4.2c0.9,2.3,2.4,3.7,5.1,3.4c0.7,1.9-0.4,4.4,1.7,5.9
			c0.4,0.3,0.6,0.7,0.6,1.1c-3.2,3.4-6.8,2.2-10.4,0.7l0,0c-0.9-0.6-1.2-1.6-1.8-2.5c-0.7-1-1.7-2-1.8-3.3
			C618.5,44.8,618.7,44.5,619,44.1z"/>
		<path class="st55" d="M524.1,31.1c0.3-0.1,0.6-0.3,0.9-0.4c7.3-1.1,7.5-0.9,6.8,6.5c0.3,1.2,0.2,2.4-0.4,3.5
			c-2.1,3-4.7,1.7-7.2,0.9c-0.4-0.3-0.6-0.8-0.7-1.3c0.1-1.7,0.3-3.3,0-5C523.2,33.8,522.8,32.3,524.1,31.1z"/>
		<path class="st56" d="M656,35.2c1.9-1.8,4.4-2,6.2-0.6c1.8,1.4,2.1-0.3,3.1-0.6c4.7,0.6,9.3,1.8,13.6,3.6c0.7,0.3,2.2,0.2,1.7,1.7
			c-0.4,1.1-1.4,1.3-2.4,1.2c-3.9,1.3-7.5-0.6-11.2-0.9c-1.9-0.2-4-0.2-5-2.3C660,36.5,658,35.8,656,35.2z"/>
		<path class="st57" d="M504.1,33.1c-0.5,2.1,1.6,4,0.5,6.4c-2.3-0.7-4.8-1-6.8-2.1c-3.7-1.9-3.8,0.2-3.8,2.8
			c-0.6,0.3-1,0.2-1.4-0.3c-1.3-2.2-2.3-4.3-0.4-6.7c0.3-0.3,0.6-0.6,1-1C496.7,32.3,500.5,31,504.1,33.1z"/>
		<path class="st1" d="M311.4,28.1c-0.4,0.1-0.9,0.2-1.3,0.3c-0.2-0.1-0.3-0.3-0.5-0.4c-0.3-2.8-0.9-5.4-3-7.4
			c0.1-1.9-0.7-4.1,1.4-5.4l0,0c1.1-2,0.4-4.1,0.6-6.2c0.1-1,0.2-2,1.5-2c1.4,0,1.4,1.1,1.4,2.1c0.3,3.1-0.6,6.2,0.5,9.2
			C312.3,21.5,313,24.9,311.4,28.1z"/>
		<path class="st58" d="M567.9,33c1,2,2,4.1,3.1,6.1c-3.8,0-7.2-2.7-11.4-0.7c-2.1,1-1-2-1.5-3.1C561.2,33.9,564.6,33.5,567.9,33z"
			/>
		<path class="st59" d="M605,32.2c-0.2-0.1-0.4-0.2-0.7-0.2c-0.4-2.3-0.8-4.6,0.5-6.7c2.6-1.7,5.5-1,8.2-1.1
			c0.8,0.6,1.6,1.1,0.9,2.2c-4.1-0.1-3.5,4-5.1,6c-1.3,1.8,0.6,5.2-3.1,5.7C604.7,36.3,606,34.1,605,32.2z"/>
		<path class="st60" d="M312.1,18.2c-2.4-3.1-0.2-7-1.8-10.7c-2.5,2.4,0.1,5.8-2.3,7.7c0-3.4,0-6.8,0.1-10.2c0-1.2-0.7-2.9,0.8-3.5
			c1.3-0.4,2.4,0.6,3.2,1.8C312.1,8.2,312.1,13.2,312.1,18.2z"/>
		<path class="st61" d="M604.8,25.3c-0.2,2.2,1.4,4.6-0.5,6.7c-1.1,0.1-2.6,0.5-3-0.8c-0.9-3.5-4-3.2-6.4-4.1
			C598.1,26.1,601.3,24.9,604.8,25.3z"/>
		<path class="st62" d="M666.9,38.4c3.9-0.1,7.6,1.2,11.4,2c-0.1,0.6-0.1,1.1-0.2,1.7c-5.4,0.3-10.8,0.1-16.2-0.8l0.3-0.4
			C663.5,39.7,665.7,40,666.9,38.4z"/>
		<path class="st63" d="M613.9,26c-0.3-0.6-0.6-1.2-0.9-1.8c4.6-0.2,9,0.5,12.8,3.9c-1.7,1.9-3.3-1.8-4.8,0.1c-2.5-1-4.8-0.3-7,1
			C611.7,28.2,613.6,27.1,613.9,26z"/>
		<path class="st64" d="M346,28.3c-1.5,1.6-3.4,0.9-5.1,0.9c-7.9,0.1-15.8,0.1-23.7,0.1c-1.7,0-3.7,0.7-5.1-1
			C323.4,28.2,334.7,28.2,346,28.3z"/>
		<path class="st65" d="M539,34.2c2.3,3.6,1.6,4.9-2.8,5.2c-1.2-0.3-1.5-1.3-2-2.2C534.4,33.9,535.5,32.2,539,34.2z"/>
		<path class="st54" d="M640.3,39.3c0.3,0.3,0.5,0.6,0.8,0.9c-1.9,0.1-3.9,0.4-5.8,0.1c-2.7-0.4-4.1,0.8-5.1,3
			c-0.4-3.2-1.2-6.3,4.1-4.3C636.1,39.6,638.3,39.2,640.3,39.3z"/>
		<path class="st66" d="M524.1,31.1c0.2,1.3,0.5,2.6,0.7,3.9c-2.5,2-2.9-0.5-3.9-1.8c-1-0.1-2.1,0.1-2.8-0.9
			C520,31,521.9,30.6,524.1,31.1z"/>
		<path class="st67" d="M530.9,40.3c0.1-1.1-0.3-2.3,0.9-3.1c0.4,0.4,0.8,0.8,1.2,1.2c1.5,0.8,3.1,1.5,2,3.7c-1,0.3-0.8,1.3-1.1,2
			C532.7,43.1,530.8,42.5,530.9,40.3z"/>
		<path class="st68" d="M535.1,42.1c0.2-1.7-1.9-2.2-2-3.7c0.4-0.4,0.8-0.8,1.2-1.2c1.4,0,1.8,1,2,2.2c-0.1,1-0.3,2-0.4,2.9h-0.4
			L535.1,42.1z"/>
		<path class="st69" d="M195,27.1c3-1.2,6.2-1,9.3-1.1c30.1-0.1,60.2-0.1,90.3-0.1c0.8,0,1.6,0.2,2.5,0.3c0.8,0.8,0.9,1.7,0.8,2.7
			c-0.3,1.2-0.7,2.4-1.3,3.4c-0.4,0.6-1,1.1-1.7,1.3c-5.5-0.1-11-0.9-16.5,0.4c1.9,2.9,6.1-1.5,7.3,2.8c-1.6,4.1-3.8,5.8-7.9,4.3
			c-4.3-1.5-9.5,0.9-13.2-3c-0.5-0.5-1.6,0-2.4,0.3c-0.8,0.3-1.5,1-2.3,0.9c-4.4-0.1-8.3,1.2-12,3.5c-5.7-0.8-11.3-0.8-17-0.6
			c-3.1,0.1-6.6,1.2-9.1-1.8c0.1-0.5,0.4-0.8,0.8-1c1.4-0.1,1.5-0.1,0.8-1.2c-0.9-1.4-0.4-3.3-2-4.4c-0.4-0.1-0.8-0.3-1.2-0.3
			c-1.5-0.3-2.9,0.4-4.4,0c-2.7-0.2-5.4,0.2-8.2-0.1c1.9,3.3,5.1,3.4,8,3.5c2.4,0,3.5,0.6,2.8,3.1c-1,1.2-3.3,1.6-2.2,3.9
			c-0.3,0.3-0.8,0.5-1.3,0.5c-2.9-4.3-7.8-1.2-11.3-3.1c-0.3-0.3-0.6-0.7-0.9-1.1c-1.5-2.1-2.5-4.4-1.3-6.9c1.8-3.5,0.2-4.6-3.2-4.9
			C197.3,28.5,195.9,28.3,195,27.1z"/>
		<path class="st70" d="M33.2,23.1C45,24,56.5,26.7,68.1,28.6c4.1,0.7,8.3,0.8,12.1,2.4c-0.3,5.3-1.9,6.9-6.6,5.5
			c-2.7-0.8-5.3,0.5-7.7-0.6c-1-0.8-1.4-2.2-2.8-2.5c-0.8,1.6,1,1.5,1.5,2.2c1.1,1.3,2.9,2,2.8,4.1c-1.5,2-3.6,1.5-5.6,1.5
			c-5,0.4-10.2,1.7-14.4-2.7c-0.8-0.8-1.9,0-2.8,0.2c-1.5,0.3-3.2,0.7-4.3-0.3c-2.5-2.4-4.1-3.6-7.8-0.8c-2.5,1.9-2-2.5-2.4-4.2
			C30.3,29.7,31.6,26.4,33.2,23.1z"/>
		<path class="st71" d="M204.1,40.2c0,0.3,0.1,0.6,0.1,0.9c1.5,1.9,0.2,3.2-1,4.5c4-1.5,8.1-0.2,12-1.6c0.3,0,0.6,0,0.9,0.1
			c0.7-1,1.6-1.9,2.9-1.4c8.8,3.4,17.7,2.3,26.6,0.3c0.6-0.1,1.3-0.1,2,0.1c0.5,0,1.1,0.2,1.6,0.3c2.5,1.9,5.5,1.3,8.3,1.3
			c10.3,0.3,20.5-1.2,30.8,0c2.4,0.3,4.9,0.2,7-1.7c2.4-2.1,4,1.2,6.2,1.2c0.6,1.2,0.5,2.3-0.4,3.3c-0.5,0.4-1.1,0.6-1.8,0.8
			c-19.6,0.5-39.3,0.1-58.9,0.2c-12.5,0.1-25,0-37.5,0c-2.3,0-4.7,0.4-6.7-1.3c-3.7,0-7.4-0.1-11-0.1c-2.7-5.7-6.4-11-7.9-17.3
			c-0.1-0.2-0.1-0.5-0.2-0.7c2.5-1.7,5.3-1,8.1-1.1c4.3,2.6,9.4,4,12.1,9C198.5,39.4,202.5,37.6,204.1,40.2z"/>
		<path class="st72" d="M18.2,38.1c-2-0.8-1.2-5.4-5.1-3.8c-0.1,0-1.1-1.1-1-1.5c1.4-5-2.2-9.2-2.2-13.9c0-1.7-1.3-2.1-1.9-3.8
			c2.3,0,4.3,0,6.4,0c1.7,1.3,0.7,4,2.7,5.2c0.3,0.7,0.1,1.3-0.2,2c-1,6.1,3.5,12.9,9.3,15c4.3,1.6,9,2,12.9,4.6
			c7.2-0.1,13.9,1.3,20.2,5c0,2.5-2,2.2-3.5,2.4c-2.6,0.3-5.3,0-7.9-0.7c-2.9-0.8-5.5-0.3-8,1.3c-4.3,1-8.6,2.1-13.1,2
			c-1.4-0.8-3.3,0.3-4.9-1.2c3.3-2.3,3.2-4.1-0.4-6.3C19.5,43.3,19.3,40.3,18.2,38.1z"/>
		<path class="st73" d="M121.1,31.1c8.7,0,17.3,0.1,26,0.1c0.4,0.4,0.5,0.9,0.3,1.4c-0.2,0.6,0-0.2-0.2,0.4
			c-2.4,8.9-2.4,8.9-11.8,9.2c-2.5,0.1-4.9,0-7.3,0.9c-1.6,0.6-2.9,0.4-4-0.9c0.2-2.2-0.3-4.1-2.3-5.3c0-0.1,0-0.3-0.1-0.5
			c0.3,1.8,1,3.6,0.8,5.5c-0.1,1.9,0.2,3.9-1.4,5.5c-0.7,0.1-1.2-0.1-1.5-0.7c-1.6-4.2-0.9-8.5-0.7-12.8
			C119,32.6,119.3,31.1,121.1,31.1z"/>
		<path class="st74" d="M59.2,47.1c-6.9-1.7-13.7-4.6-21-4c1.1-4.7,5.1-3.4,8.1-3.6c1.6-0.2,3.3,0.5,4.7,1.2
			c3.6,1.9,6.9,1.5,10.2-0.5c2-0.5,4.3,0.8,6.1-1c1.5-0.9,3.3-1.3,4.8-0.7c4,1.5,6.2-0.8,7.7-3.6c1.3-2.5,3.1-3.1,5.5-3.4
			c0.3-0.1,0.7-0.1,1-0.2c1.7-0.4,1.9,0.9,2.3,2.1c-0.3,2.2-2.2,1.3-3.4,1.8c-1.5,1.1-3.1,2.2-1.1,4.2c-0.7,5.5-5.9,6.6-9.5,7.6
			C69.8,48.2,64.4,47.9,59.2,47.1z"/>
		<path class="st75" d="M120.3,47.1c0.2,0,0.4,0,0.6,0c0.3,0.2,0.5,0.4,0.5,0.7s0,0.5-0.1,0.5c-0.4,1.9-0.8,3.9-1.2,5.8
			c-1.9-0.9-3.7-2.2-6-1.9c-0.4-1-0.7-2-1.1-2.9c-0.8-0.7-1-1.6-1.1-2.6c0.1-2.3-0.3-4.4-2.2-5.9c-2.5-2.7-5.2-4.2-8.8-2
			c-2.1,1.7-3.2-0.5-4.5-1.4c-1.5-1-2.3-2.7-3.6-3.9c-0.3-0.3-0.6-0.6-0.8-1c-0.1-0.4-0.1-0.8,0.2-1.2c7.3,0,14.7,0,22-0.1
			c2.1,0.2,1.3,1.9,1.3,3c0,3.3,0,6.5-0.1,9.8c0,2,1,3.1,2.4,4.4C120.3,50.4,119.4,47.1,120.3,47.1z"/>
		<path class="st76" d="M204.1,40.2c-4.4-0.5-8.6-1.1-10.6-6c-0.7-1.8-3-1.8-4.6-2.7c-1.5-0.8-3.7-1.1-3.8-3.5
			c3.2-1.2,6.6-0.8,9.9-0.9c1.3,0.1,2.6,0,3.9,0.2c5.8,0.9,6,1,3.7,6.6C201.4,36.8,203.9,38.1,204.1,40.2z"/>
		<path class="st77" d="M308.1,15.1c-1,2-0.9,4.1-0.8,6.2c1.7,1.9,0.5,5,2.8,6.7v0.4c-0.2,2.4,1,3.5,3.4,3.9s5,0.6,4,4.9
			c-0.7,3.1,3.1,2.8,5.5,2.9c0.5,3.6-1.4,4.2-4.1,3c-4-1.9-7.4-4.7-10.5-7.8c-1.5-1.9-3.4-1.6-5.4-1c-1.5,0.4-2.5-0.2-2.9-1.7
			c-0.3-1.6-0.4-3.2,1-4.5c3.9,0.6,5.2-1.1,5.2-5C306.4,20.5,304.7,17.1,308.1,15.1z"/>
		<path class="st78" d="M120.3,47.1c-0.6,0.9-0.2,3.5-1,2.8c-1.6-1.4-5.5,0.4-5.3-3.7c0.2-5,0.1-10.1,0.1-15.2c2.3-1.4,4.6-1.5,7,0
			C119.6,36.4,120.4,41.8,120.3,47.1z"/>
		<path class="st79" d="M16.2,21.2c0.3-0.3,0.6-0.6,0.9-0.9c5.6-0.3,10.8,1.5,16.1,2.8c1.6,3.8-2.8,6.4-2,10.1
			C29,33.8,28,32,26.6,30.9c-2.4-2.1-5-4-8-4.7C15.3,25.4,15.2,23.7,16.2,21.2z"/>
		<path class="st80" d="M153.3,31.3c4.9,0,9.9,0.1,14.8,0.1c-1.1,2.7-3.3,4.5-5.8,5.4c-2.2,0.9-3.9,2.3-5.6,3.7
			c-0.4,0.1-0.8,0.1-1.1,0.1c-0.7,2.1,0.3,4.4-0.5,6.5c-0.4,1.2-0.7,3.5-2.8,1.2c-1.1-5.2-1-10.4-0.2-15.6
			C152.5,32.2,152.9,31.7,153.3,31.3z"/>
		<path class="st81" d="M85.2,31.4c-1.8,1-3.4,1.7-4.4,4c-1.8,4.3-6.1,5.2-13.5,3.8c-1.4-0.7-2.5-1.7-3.2-3.1
			c0.2-1.5,0.9-1.7,2.1-0.8c3.1-0.5,5.9-0.8,9.1,0.5c3.4,1.4,3.5-2.9,4.9-4.7C81.9,31.2,83.5,31.3,85.2,31.4z"/>
		<path class="st82" d="M175.1,32.1c0,1.1-0.3,1.9-1.6,2.1c-0.4,0-1.7,0.3-1.1,0.7c6.3,3.4,1.2,8.9,2.6,13.1
			c-1.7-1.8-4.1,1.6-5.7-0.7c-1.1-4.2,0-8.5-1-12.7c-0.2-1.2,0.1-2.2,0.8-3.1c0.3-0.1,0.7-0.1,1-0.2
			C171.9,30.8,173.7,30.7,175.1,32.1z"/>
		<path class="st83" d="M169.2,31.3c0,0.9,0,1.9,0,2.8c-0.2,1.3-1.1,2.2-1.9,3.1c-3.1,6.2-5.8,7.4-10.3,4.6
			c-0.6-0.4-0.9-0.9-0.8-1.6c1.3-2.2,2.3-4.2,5.6-4.3c2.6-0.1,3.4-4.1,6.4-4.5C168.5,31.4,168.8,31.3,169.2,31.3z"/>
		<path class="st84" d="M301.1,28.1c0,1.6,0,3.3,0,4.9c-0.4,0.6-0.4,1.3-0.5,1.9c-0.8,3-1.3,6.3-5.9,4.9c-0.5-0.2-0.8-0.6-1.1-1
			c-0.5-2.1,0.1-4,1.4-5.7c0.3-0.3,0.6-0.6,1-0.9c2.2-0.4,1.1-1.9,1.1-3.1c0-1,0-1.9,0-2.9C298.7,26.3,300,26.9,301.1,28.1z"/>
		<path class="st85" d="M92.2,31.1c0,0.4-0.1,0.8-0.1,1.1c-0.6,3-2.1,2.5-3.9,0.9c-0.7-0.7-1.4-1.4-2-2c1-1.4,0.3-4.2,3.4-3.9
			C92.2,27.5,91.9,29.5,92.2,31.1z"/>
		<path class="st86" d="M175.1,32.1c-1.6-0.3-3.6,0.8-4.9-0.9c0.5-4.9,1.6-5.2,6.9-2c0.2-0.1,0.4-0.1,0.5,0c0.1,1.1-0.6,1.6-1.4,2
			C175.8,31.5,175.5,31.8,175.1,32.1z"/>
		<path class="st87" d="M153.3,31.3c0,0.3-0.1,0.6-0.3,0.9c-1,2.2-2.8,2.6-5,2.4c-0.5-0.1-0.9-0.2-1.2-0.5c-0.3-0.6-0.3-1.3,0.1-1.9
			c0-0.4,0.1-0.7,0.1-1.1C149.2,31.2,151.2,31.3,153.3,31.3z"/>
		<path class="st88" d="M26.2,51.2c4.7-0.6,9.2-2.1,14-2.1c5.3-1.4,10.5-0.2,15.6,0.6c7,1.2,13.8-0.5,20.7-1.5
			c2.2-0.3,4.6-1,6.6,0.9c-3.7,1.3-7.4,3.5-11.2,3.8c-14,1.2-28.1,1.9-42.1,2.5c-1.5,0.1-5,0.6-3.7-3.3c-0.4-0.2-0.5-0.4-0.3-0.6
			C26,51.3,26.1,51.2,26.2,51.2z"/>
		<path class="st5" d="M26.2,51.2c0,0.3,0,0.6,0,0.9c-4.5,0.6-9.4-0.4-12.8,3.6C13,48,13,48,4.8,48c-1.2,0-2.3,0.1-3.5,0.1
			c0.3-0.9,0.7-1.8,1-2.8c1-3,2-5.2,5.8-2.6c2,1.4,5.5-0.2,6.7,3.2c2.2-2.2-2.4-7.4,3.5-7.9c2.1,0.2,2.6,1.9,2.9,3.5
			c0.3,1.5,0.7,2.4,2.4,2.6c2,0.2,2.6,2.1,2.9,3.6c0.5,2.4-2.4,1.6-3.3,2.8C24,51.6,25.2,51,26.2,51.2z"/>
		<path class="st89" d="M83.2,49.1c-5.5-0.1-10.9,0.3-16.1,2.2c-3.6,1.3-7.2,0-10.5-0.5c-5.5-0.9-11.1-0.2-16.4-1.7
			c1.5-2.4,3.4-2.9,6.2-2.2c4.2,1.1,8.5,2.3,12.8,0.2c3.6-1,7.2-1.7,11.1-1.1c5.9,0.9,9.8-3.4,13.8-6.8C86.1,42.7,85.7,46,83.2,49.1
			z"/>
		<path class="st90" d="M113.1,46.3c0,1,0,2,0,3c-1.3,1.8-2.5,2.6-5.2,2.2c-5.6-0.9-11.5,0.4-16.6-3.2c-1.7-1.7-1.5-3.6-0.7-5.5
			c1-1.3,2.3-0.7,2.9,0.2c4,5.7,9.8,4,15.2,3.6C110.1,46.1,111.6,45.4,113.1,46.3z"/>
		<path class="st90" d="M88.2,33.2c1.4,0,2.9,0.7,3.9-0.9l0,0c0.4,0.4,0.7,0.8,0.9,1.3c0.5,1.6,0.4,3.1-0.4,4.5
			c-0.4,0.3-0.8,0.5-1.3,0.5c-0.7-0.2-1.5-1.4-2.1-0.6c-1.2,1.4-1.5,4.2-0.6,4.9c2.4,1.8,1.4,4.5,2.6,6.5c-0.6,1.1,1.3,3.3-1.5,3.2
			c-1.7-0.1-3.3-0.8-3.4-2.9c-0.1-3.1,0-6.2-0.1-9.3c-0.1-1.7,0.7-3.6-1-5.1C86.2,34.4,87.2,33.8,88.2,33.2z"/>
		<path class="st91" d="M91.2,49.1c-1.7-3.5-5-6.4-4.1-10.9c0.3-1.3-0.1-2.7,1.8-2.9c2.2-0.3,2.3,1.3,2.4,2.8c1,1.4,1.1,2.8,0,4.2
			c0,2,0,4,0,5.9C91.2,48.5,91.2,48.8,91.2,49.1z"/>
		<path class="st92" d="M86.7,59.6c1.5-0.5,2.8-1.4,4.3-0.4c0.1,0.1-0.1,1.1-0.4,1.2C89.3,61.3,87.9,61.4,86.7,59.6z"/>
		<path class="st19" d="M442.2,123.2c-4.9,1.6-9.8,0.4-14.8,0.7c-0.9,0-1.3-0.9-1.5-1.7l0.2-0.2c1-7.7,0.1-15.5,0.5-23.2
			c0.1-1.4-0.9-3.8,1.7-3.9c2.2-0.1,2.8,2,3,3.9c0.8,6.8-0.7,13.5-0.5,20.2c0.2-3.3,0.6-6.6-0.1-9.9c3.2-2.1,5.5-1.4,6.4,2
			c0.4,1.6,0.3,3.3,0.1,4.9c0,0-1.6,1.5,0.4,0.9c1.9,0.6,1.4,2.6,2.2,3.8c0.7,0.8,1.4,1.6,2.2,2.3L442.2,123.2z"/>
		<path class="st93" d="M167.1,36.1c0.7-0.7,1.4-1.3,2.1-2c1.8,4.5,0.4,9.3,1,13.9c1.5,1.6,1.3,3.3,0.1,4.9c0,1.7,0,3.4,0,5.1l0,0
			c-2.7,0.3-1.8,2.4-2,4l0,0c-0.8,1.2-1.9,2.2-3.3,1.6c-2.8-1-5.4-0.9-8.1,0.4c-1.6,0.7-3.3,0.3-3.1-2.3c0.1-2,0-4,0-6
			c-0.4-6-0.4-5.8,5.7-6.2c3.2-0.2,7.4,0.5,7.4-4.8C167.1,42,165.4,39,167.1,36.1z"/>
		<path class="st94" d="M196.2,47.2c34.6,0,69.2,0,103.9,0c0.3,1.5-0.5,2.3-1.7,2.7c-4.8,0.3-9.6,0.1-14.5,0.1c-5.3,0-10.6,0-15.9,0
			c-13.5,0-27,0-40.6,0c-6.4,0-12.7,0-19.1,0c-4.1,0-8.2,0.2-12.1-1.1C196.2,48.4,196.2,47.8,196.2,47.2z"/>
		<path class="st95" d="M299.1,49.1c0.3-0.6,0.6-1.2,1-1.8c0.3-0.1,0.7-0.1,1-0.2c2.2-1.5,1.5-3.9,1.9-5.9c0.4-1.7,0.3-3.9,3.1-3.3
			c1,0.8,1.1,2,1.2,3.1c0.8,6.3,3.2,8.5,9.5,8.3c3-0.1,6-0.1,8.8-1.5c0.5-0.1,0.9-0.1,1.4,0c0.6,0.5,0.7,1.2,0.7,1.9
			c-0.2,1-0.7,1.8-1.6,2.3c-4,1.7-7.7,3.7-12.5,1.3c-2.9-1.5-6.9,0.9-10.3-1c-1.1-0.6-2,1.3-2.1,2.7c-4,1.3-4.2-1.1-4-3.9
			C297.1,49.8,299,50.3,299.1,49.1z"/>
		<path class="st96" d="M176.2,31.2c0.5-0.7,1-1.3,1.4-2c1.9,6.2,7.3,11,7.6,18c-7.6,0-7.9-0.4-8.1-7.8
			C177,36.6,178,33.7,176.2,31.2z"/>
		<path class="st97" d="M227.1,49.3c13.7,0,27.4,0,41.1,0c0.7,0.4,1.2,0.8,0.9,1.7c-13.4,0-26.7,0-40.1,0
			C228.5,50.3,226.7,51,227.1,49.3z"/>
		<path class="st98" d="M227.1,49.3c0.6,0.6,1.3,1.1,1.9,1.7c-7.3,0-14.5,0.1-21.8,0.1c-0.7-1.1,0.4-1.4,1-1.8
			C214.5,49.2,220.8,49.3,227.1,49.3z"/>
		<path class="st99" d="M299.1,49.1c0.3,0.3,2,0,0.5,1c-0.7,0.5-1.7,0.7-2.5,1.1c-5-0.1-10-0.1-15-0.2c-0.3-1.6,1.3-1,1.9-1.7
			C289,49.2,294.1,49.1,299.1,49.1z"/>
		<path class="st100" d="M170.2,53c0-1.6,0-3.3-0.1-4.9c1.6-0.7,0.3-3.2,2-3.5c2.3-0.3,1.5,2.5,2.8,3.3
			C175.9,52,173.2,52.6,170.2,53z"/>
		<path class="st101" d="M208.2,49.2c-0.3,0.6-0.6,1.2-1,1.8c-6.6,0.3-13.1-1.8-19.8-2c2.9,0,5.9,0,8.8,0
			C200.2,49.1,204.2,49.2,208.2,49.2z"/>
		<path class="st102" d="M284,49.3c-0.6,0.6-1.3,1.1-1.9,1.7c-4.3,0-8.6,0-12.9,0c-0.3-0.6-0.6-1.1-0.9-1.7
			C273.5,49.3,278.7,49.3,284,49.3z"/>
		<path class="st92" d="M170.2,58.1c1.4,1.1,3.3,0.6,5,0.9c-0.8,2.8-2.7,2-4.2,1.8C169.4,60.5,169.6,59.3,170.2,58.1L170.2,58.1z"/>
		<path class="st103" d="M436.1,51.1c-10.4-0.7-20.1,4.1-30.4,3.9c-5.1-0.1-10.2-1.1-15.3-0.9c-5,0.1-9.8,0.3-14.5,2.5
			c-3.3,1.6-6.9,1.8-10.5,0.2c-2.5-1.1-5.3-1.9-8.2-1.7c-1.2-1.3-1.1-2.6-0.2-4c1.6-1.5,3.7-1.6,5.6-1.5c6.1,0.2,12.3,0.4,18.4,0.4
			c9.2,0.7,18.3,1.9,27.5,0c4.7,0.1,9.3-1.5,13.9-2c0.7-0.2,1.5-0.4,2.2-0.5c2.8,0.3,5.6,0.1,8.4,0.8
			C434.2,49,436.2,48.9,436.1,51.1z"/>
		<path class="st104" d="M436.1,51.1c-1-0.6-2-1.3-3-1.9c3.1-2.1,6.7-1.1,10-1.3c5.3-0.4,10.6-0.1,15.8-0.1c1.1-0.1,2.2-0.2,3.3-0.2
			c5.4,1.5,10.7,1.3,15.9-1c1.2-0.5,2.6-0.6,3.9-0.3c2.1,0.1,3.8,2.5,6.3,1.3c1.4,0.4,2.8,0.4,3.8,1.7c-2.7,4.1-6.8,0.9-10,1.9
			c-10.2,2.4-20.6,1.8-30.9,2C445.9,53.2,441,52.4,436.1,51.1z"/>
		<path class="st105" d="M444.1,62.1c-0.3,0-0.7,0-1,0c-5-0.1-10-0.3-15,0.7c-2.2,0.4-5.5,0-6-3.6c4.9,1.3,9.8,1.7,14.6,0
			c3.2-1.1,6.2,0.1,9.3,0c11.4-0.1,22.7,0,34.1,0c0,0.7,0,1.3,0,2c-4.3,0.8-9-0.7-12.8,0.2c-5.6,1.4-11-0.9-16.4,0.7
			C448.8,62.7,446.4,62.1,444.1,62.1z"/>
		<path class="st106" d="M357.1,51.2c0,1.3,0,2.6,0.1,3.9c-2.8,1.8-6,0.8-8.9,0.9c-6.1,0.3-12.2,0-18.2,0.2
			c-3.1,0.1-4.2-1.2-3.8-4.1c0-0.8,0.2-1.5,0.9-1.9c0.2,0.1,0.4,0.3,0.7,0.4c1,2.2,3.1,2.1,5,2.1c6.4,0,12.8,0.2,19.2-0.1
			c0.4-0.1,0.9-0.2,1.2-0.5c1.2-0.6,1.5-3.2,3.6-1.6C356.9,50.7,357,50.9,357.1,51.2z"/>
		<path class="st107" d="M351.1,96.1c-0.6,1.3,1.7,1.6,1,2.9c-6.4,1.9-12.7,1-19.1-0.7c5.3,0,10.6,0,16.1,0
			c-0.5-2.1-2.2-0.7-3.2-2.2C347.9,96.1,349.5,96.1,351.1,96.1z"/>
		<path class="st8" d="M332.1,76.1c6.1,0,12.2,0,18.3,0c0,0.7-0.1,1.3-0.1,2C344.3,77,338,80.4,332.1,76.1L332.1,76.1z"/>
		<path class="st108" d="M333,87.3c5.7,0,11.5,0,17.2,0c-5.7,2.3-11.4,1.7-17.2,1.5C333.1,88.3,333,87.8,333,87.3z"/>
		<path class="st109" d="M350.5,110.6c-5.4,0-10.9,0-16.3,0C339.5,110,344.9,108,350.5,110.6z"/>
		<path class="st107" d="M352.1,101c0,0.7,0,1.4,0,2c-0.4,0.4-0.7,0.7-1.1,1.1c-2.7,0.4-5.3,0.9-7.9-0.3c-0.9-1.7-0.8-2.9,1.5-2.8
			C347.1,101.1,349.6,101,352.1,101z"/>
		<path class="st110" d="M349.8,82.9c-5.5,0-11.1,0-16.6,0c0-0.2,0-0.3,0-0.5c5.6,0,11.2,0,16.8,0C349.9,82.5,349.9,82.7,349.8,82.9
			z"/>
		<ellipse class="st111" cx="341.6" cy="93.5" rx="12" ry="0.3"/>
		<path class="st112" d="M343.1,103.9c2.6,0.1,5.3,0.2,7.9,0.3c-5.5,2.3-11.1-0.1-16.6,0.1C337.2,104.2,340.1,104,343.1,103.9z"/>
		<path class="st113" d="M443.1,66.2c0.6,4.9-3.4,2-5.2,3c-2.6,0.8-5.1,0.9-7.7,0.1c-0.4-0.4-0.8-0.8-1.1-1.3c1.3-1.3,2.5-2.2,4.6-2
			C436.8,66.3,440,66.1,443.1,66.2z"/>
		<path class="st114" d="M439.1,84.1c0.5,1.1,0.6,2-1,2c-3.5,0.4-4.6-2.5-6.3-4.6C437,79.1,438,79.5,439.1,84.1z"/>
		<path class="st115" d="M147,32.2c0,0.7,0,1.3-0.1,2c0.8,2.2,0.5,4.3,0.2,6.5c-0.4,1.4-0.5,2.9-0.8,4.3c-0.7,4.1-3.1,5.7-6.9,4.5
			c-1.6-0.5-2.8,0-4.2,0.6c-0.3,0-0.6,0-0.9-0.1c-1.7-0.7-2.6-2.3-3.9-3.4c-1.1-0.9-2.4-1.2-3.7-0.9c-3.8,0.8-5.2-1.1-5.4-4.5
			c0-2.6,0-5.3,0-8.3c1.5,1.5,0.6,3.1,1,4.4c0.6,1.3,1.8,2.4,1.8,4c0.7,0.4,1.7,1.3,2.1,1.1c4.6-2.8,9.9-1.4,14.7-1.7
			c4-0.2,4.2-1.5,4.3-4.4C145.2,34.7,144.5,32.7,147,32.2z"/>
		<path class="st116" d="M135.2,50.1c0.4-2.5,1.6-3.6,4.1-2.3c1.1,0.5,2.7,2.7,2.9,1.7c0.5-2.2,4.4-2.4,3-5.5
			c-0.4-0.8-0.2-2,0.8-2.7c2.2,2.6,2.1,5.2,0.1,7.9C143.4,53,141.2,53.2,135.2,50.1z"/>
		<path class="st117" d="M121.3,41.2c0.9,3,2.4,4.6,5.9,3.1c1.6-0.7,3.2,0,4,1.9c-2.3,4-4.1,4.6-9,2.9c-0.3-0.3-0.6-0.6-0.9-0.8
			c-0.1-0.4-0.2-0.8-0.3-1.1C121.1,45.2,121.2,43.2,121.3,41.2z"/>
		<path class="st73" d="M146.1,49.2c0-2.6-0.1-5.3-0.1-7.9c0.6-2.3-0.5-4.8,0.9-7l0.4-0.1c1.2,1.2,1.2,2.7,1.1,4.2
			c-0.5,4.9,0.3,9.1,5,11.7c0.3,1.1,0.4,2.1-1.1,2.4c-2.8,1.4-4.6-0.1-6-2.3C146.2,49.8,146.2,49.5,146.1,49.2z"/>
		<path class="st118" d="M122.2,49.1c3.4,0.3,6.4-0.6,9-2.9c1.9,0.6,2.2,2.5,3.1,3.8c-3.1,0.5-6.1,1.5-9.3,1.1
			C123.6,51,122.3,50.9,122.2,49.1z"/>
		<path class="st118" d="M152.3,52.4c0.8-0.6,1.2-1.4,0.8-2.4c-0.3-0.3-0.3-0.5-0.2-0.6s0.2-0.2,0.4-0.2c1.7-3.1,0.5-6.5,1-9.7
			c0.1-0.4-0.4-1.1,0.4-1c0.2,0,0.3,1.1,0.4,1.7c0.5,0.5,0.9,1.1,0.9,1.7c0.1,4.4,2.8,4.2,6,3.9c2-0.2,3.9-2,6-0.7
			c-0.3,5.1-1.8,6.5-8.8,5.9c-4.5-0.4-5.8,0.9-5.2,5.1c-0.2,0.4-0.5,0.5-0.8,0.2C152.9,54.9,152.6,53.7,152.3,52.4z"/>
		<path class="st7" d="M153.3,56.2c0.3-0.1,0.6-0.1,0.8-0.2c0,0.8,0,1.7,0.1,2.5c0.4,2.6-1.6,8.5,4.5,3.1c1.2-1.1,3.3-0.9,4.6,0.3
			c1.7,1.4,3.3,1.2,5,0.3c-0.4,5.5-4,5.5-8.1,4.7c-1.9-0.3-3.4-1.8-5.6-1.2c-1.3,0.4-1.3-1.1-1.3-2.1
			C153.2,61.1,153.2,58.7,153.3,56.2z"/>
		<path class="st119" d="M438,117c-1.4,0.9-0.6,2.7-1.9,3.9c0-2.8,0-5.7,0-8.5c0-3.6-1.7-4.5-4.9-3.2c0.7,3.9,0.7,7.8,0,11.8
			c-0.2,0.5,1,2.1-0.4,1.4c-1.6-0.8-1.7-2.9-1.3-4.9c1.3-6.3,0.8-12.6,0.7-18.9c0-1.3-0.1-3.1-1.8-2.9c-1.8,0.2-1.1,2.1-1.1,3.3
			c-0.1,6.1,0,12.2-0.1,18.3c0,1.6,0.6,3.3-0.9,4.6c0-8.1,0.1-16.2-0.1-24.3c-0.1-3.3,0.7-4.9,4.4-4.6c4.4,0.3,8.9,0.2,13.4,0.2
			c-0.2,1-1,1.5-1.8,1.9c-0.6,8.9-0.8,17.9,0.1,26.8c0,0.3,0,0.7,0,1c-1-0.3-2-0.7-3.1-1c-0.8-3.6-0.2-7.2-0.4-10.8
			C438.4,113.1,439.1,115.1,438,117z"/>
		<path class="st120" d="M544.2,44.9c5.8,1.7,11.7,2.6,17.7,1.4c4.6-1,8.3,2.5,12.7,2.4c2.2,0,4.9,2,6.5-1.4
			c2.6-2.3,4.6-1.6,6.2,1.2c0.2,0.6,0.1,1.1-0.3,1.6c-1.7,0.3-3.6,0.2-4.5,2c-0.3,0.6-0.8,0.9-1,0.7c-4-4.3-10.3,0-14.4-3.9
			c-3-1-16.5-0.9-19.1,0.2c-0.3-0.1-0.6-0.1-1-0.1C545.1,48.4,543,47.8,544.2,44.9z"/>
		<path class="st121" d="M587,50.2c0-0.4,0-0.7,0-1.1c2.3-3.2,5.7-1.1,8.5-1.9c2.4,0.9,5.4-0.2,7.6,1.9c-1.8,1.4-3.5,3.2-6.1,3
			c-1.3-1-2.6-0.9-4,0c-1.3,0.5-2.7,0.8-4,0C588.3,51.5,587.7,50.9,587,50.2z"/>
		<path class="st122" d="M589,52.1c1.3-1,2.7-1,4,0c-0.9,0.8,0.2,3.3-2.3,2.9C588.9,54.8,589.1,53.4,589,52.1z"/>
		<path class="st34" d="M589,56.1c0.3,2.1,1.4,3.4,0,4.8c-0.2,0.2-0.8,0.2-0.9,0C587.2,59.5,587.2,58.1,589,56.1z"/>
		<path class="st123" d="M670,47.1c3,0,6,0,9,0c0,0.6,0,1.3,0,1.9c-3.8,0.1-7.6-0.1-11.4,0.2c-7.4,0.7-14.8,1.6-22.2,2.6
			c-1.6,0.2-2.8-0.9-4.3-0.6c0.9-1.9-3.8-1.1-1.7-3.6c6.7-1.9,13.4-0.8,20.2-1C663.1,47.3,666.6,45.5,670,47.1z"/>
		<path class="st124" d="M622.1,51.1c3.2-2.3,7,2.1,10.2-0.9c1-0.1,2-0.6,3-0.2c0.7,0.5,1.2,1.2,0.8,2.1c-2.6,0.5-4.8,1.3-2.8,4.7
			c-2.3,0.1-3.3-3.7-5.6-2.1c-1.6,1.1-0.4,3,0.3,4.5c-0.5,1-1,2-1.5,3.1c-2-2.8,2-7.8-3.6-9C622.2,52.6,621.9,52,622.1,51.1z"/>
		<path class="st125" d="M636.1,52c-0.3-0.6-0.6-1.2-1-1.8c1-1.4,2.2-2.2,3.9-1.2c0.7,0.7,4.5-1.5,2.2,2.3
			C639.7,53.3,637.7,51.1,636.1,52z"/>
		<path class="st126" d="M492.1,49.2c-1.4-0.2-3,0.4-4.1-1c1.5-2.1,3.7-2.8,6.1-3.2c8.1-0.2,16.2-0.4,24.3,0.7
			c1.5,0.9,1.6,2.1,0.7,3.4c-3.9,2-8,0.6-12,1.1c-4.6-1-9.5,1.3-14-1C492.7,49.1,492.4,49.1,492.1,49.2z"/>
		<path class="st127" d="M530.9,40.3c1,1.3,2,2.5,3,3.8c0,0.6-0.1,1.3-0.1,1.9c-1.8,3.2-5.1,2.3-7.8,3c-0.3-0.3-0.7-0.6-1-0.9
			c-2-2.2-3-4.5-0.9-7.1C526.4,40.6,528.9,42.5,530.9,40.3z"/>
		<path class="st128" d="M524.1,41.1c0.3,2.4,0.6,4.8,0.9,7.1c-1.8,1.7-4,0.7-6,0.9c-0.1-1.1,0.1-2.2-1-2.9
			c-0.2-0.3-0.3-0.5-0.3-0.8s0.1-0.4,0.2-0.4c3.9-1.3,1.4-5.3,3.2-7.5c3.4-1.6,3.8-0.2,3,2.7C524.1,40.5,524.1,40.8,524.1,41.1z"/>
		<path class="st32" d="M544.2,44.9c0.2,1.9,1.6,2.9,2.8,4.2c-1,0.7-2,1.4-2.9,2c-2.7-0.8-5.3,2.2-8,0c0.3-0.4,0.6-0.8,0.8-1.1
			c0.5-1.1,1.4-1.9,2.5-2.4c2.3-0.9,0.6-2.3,0.6-3.5c1.3-0.9,2.7-0.9,4-0.1C544.1,44.4,544.1,44.7,544.2,44.9z"/>
		<path class="st104" d="M493.1,49.1c4.6,0.6,9.5-1.4,14,1C502.3,50.8,497.5,53.1,493.1,49.1z"/>
		<path class="st129" d="M536.1,51.2c2.7,0.2,5.3-2.7,8,0c-2.8,1.4-4.9,4.7-8.8,2.9C535.1,53,535.4,52,536.1,51.2z"/>
		<path class="st30" d="M540,44.2c2.2,1.2,3.7,2.4,0.4,4.1c-1.2,0.6-2.3,1.2-3.5,1.7c-1.6-2.1-0.1-4.1,0.2-6.2
			C538.1,44,539.1,44.1,540,44.2z"/>
		<path class="st130" d="M526.1,49.1c1.8-3.2,5.6-1.1,7.8-3c-0.7,5.2-4.9,3.9-8.1,4.4C525.9,50,526,49.6,526.1,49.1z"/>
		<path class="st131" d="M603.1,49.2c-2.7-0.3-5.5,0.6-8-1.1c2.2-3.4,6.3-4.6,10.4-2.7c1.2,0.6,1.1,0.4,1.1-0.6
			c1.4-3.4,4-2.4,6.5-1.7c0.4,0.2,0.8,0.4,1.1,0.8c0.4,2-1.3,2.6-2.4,3.6c-0.8,0.7-1.9,0.8-2.7,1.6C607.1,52,605.1,49.3,603.1,49.2z
			"/>
		<path class="st124" d="M609.1,49.1c0.3-1,1-1.7,1.9-2.2c3.2,2.1,6.9-0.8,10.1,1.2c1,0.7,1.2,1.8,1.1,2.9c-3.1,3.2-6.8,0-10.1,1
			C611.9,50.2,611,49.2,609.1,49.1z"/>
		<path class="st132" d="M442.1,121.9c-1.9-3.7-0.9-7.8-0.8-11.6c0.1-5-1.1-10.2,0.8-15.2C442,104.1,442,113,442.1,121.9z"/>
		<path class="st133" d="M424.1,48.2c-0.3,0.3-0.7,0.6-1,0.9c-5.6-1.1-11.2,0.8-16.8,0.5c-2.1-0.1-4.4-1.8-6.5,0.1
			c-1.1,0.6-2.3,0.6-3.6,0.3c-1.3-0.4-2.5-0.7-3.2-2c1-3.6-2.2-2.3-3.6-2.9c-0.8-0.3-1.7-0.5-1.6-1.5c0.1-1,1-1.4,1.8-1.2
			c2.9,0.7,5.3-1.3,8.1-1.2c1.5,0.1,2.7-0.5,3.9,1.6c1.6,2.6,4.6,1.8,7.1,0.7c3-1.3,5.8-3,9-0.2c1.3,1.1,3,0.1,4.1-0.6
			c1.9-1.2,0.9-2.9,0.2-4.4c1.3-1.4,0.4-3.7,2-4.9c1.9,1.7,0.6,4,1,6c0.7,0.8,1.1,1.7,1.1,2.8c0,0.8-0.1,1.5-0.3,2.2
			C425.4,45.6,425.3,47.1,424.1,48.2z"/>
		<path class="st134" d="M354.2,43.1c2.2,0.5,1.7-0.1,3.7-1.9c1.8-1.6,5.3-2.1,7.6-0.1c2.2,1.9,4.1,1.9,6.8,1.2
			c5.5-1.2,10.3,1.1,15,3.7c-3.8,3-8.4,3.2-12.9,3.1c-5.6-0.1-11.2-0.7-16.8-0.1c-1.3,0-2.4-0.3-3.4-1.2c-0.4-0.4-0.6-0.8-0.8-1.3
			C353.1,45.3,353,44.1,354.2,43.1z"/>
		<path class="st135" d="M357.1,48.2c5.1-1.8,10.3-0.6,15.3-0.2c5.2,0.4,9.8-1.3,14.7-1.9c2,0.6,3.9,1.3,5.9,1.9
			c1.1,0.2,2.4-0.1,3.2,1.1c-0.9,2.1-2.8,2-4.6,2.1c-3.5,0.1-6.9-0.1-10.4,0c-8,0-16,0-24,0l0,0C356.4,50.1,356.2,49.1,357.1,48.2z"
			/>
		<path class="st136" d="M354.2,43.1c-0.1,1.3-0.1,2.6-0.2,3.8c-1.6,1.6-3,0.4-4.4-0.3c-1.8-0.7-3.4,0.4-5.1,0.7
			c-3.3-1.2-6.8-1.1-10.2-0.6c-6.5,0.9-6.6,0.9-8-5.6c-0.1-0.8,0-1.6,0.4-2.3c0.9-1.2,2-1.7,3.4-1.1c1,0.8,1.2,2.1,2,3.1
			c5.9,1.9,12,0.6,17.9,0.8c1-1,0.1-2.5,0.9-3.5c1-0.6,1.7-0.1,2.4,0.5c0.7,0.7,0.2,1.7,0.8,2.5C354.1,41.8,354.1,42.5,354.2,43.1z"
			/>
		<path class="st137" d="M387.1,40.1c-3.1,0.1-6.3-0.2-9.5,0.4c-1.1,0.2-3.4,0.3-3.4-1.9c0-1.8,1.5-1.4,2.9-1.8
			c4.6-1.2,9.3-0.4,13.9-0.6C392.4,40.2,388.3,38.7,387.1,40.1z"/>
		<path class="st138" d="M364.4,29.4c1.3,3.8,3.8,5.1,7.9,4.9c7.6-0.4,15.2-0.2,22.9-0.2c0.6,0.1,1.2,0.2,1.9,0.3c0,0.2,0,0.5,0,0.7
			c-7.5,0-14.9,0-22.4,0c-1.7,0-3.4-0.2-5,0.1C364.5,36.2,363.5,33.7,364.4,29.4z"/>
		<path class="st139" d="M354.1,41.1c-1-0.4-1-1.2-1.1-2.1c-0.7-1.8-2.3-1.2-3.7-1.5c-3.3-0.5-7,1-10-1.5c5.2-2,10.5-0.4,15.8-0.8
			C354.8,37.2,356.9,39.6,354.1,41.1z"/>
		<path class="st140" d="M387.1,40.1c1-1.6,3.9-1.3,4-3.9c1.4,0,2.9-0.4,4.4,0.5C394,41.2,390.2,39.9,387.1,40.1z"/>
		<path class="st133" d="M327,48.1h-0.5H326c-4.5,1.2-8.9,0.4-13.1-0.9c-4.9-1.5-5.2-5.8-5.2-10.2c0.1-1.2,0.4-2.3,1.4-3
			c3.1,3.5,6.9,6.2,11,8.4c2.1,1.1,2-1.4,2.8-2.4c0.4-1,0.8-2,1.3-3c3.2,1.5,1,5.4,3.2,7.3C327.5,45.7,328.3,47,327,48.1z"/>
		<path class="st141" d="M339.2,36.1c3.6,0.2,7.2,0.5,10.8,0.4c2.1-0.1,3.2,0.3,3,2.6c-0.7-0.3-1.3-0.5-2-0.8
			c-0.6,0.6-1.2,1.3-2.1,1.2c-5.1-0.1-10.1,0.3-15.2,0.2c-1.3,0-2.6-0.5-3.6-1.4c-1,0.3-2.1,0.6-3.1,0.9c-1.7-4.8,1.6-3.4,3.9-3
			C333.8,36.1,336.5,36.1,339.2,36.1z"/>
		<path class="st142" d="M331.1,36.1c-1.9,0.3-4.6-0.5-3.9,3c0,0.7,0.1,1.3,0.1,2c0.5,1,0.7,2-0.2,3c-4.1-1.1-0.5-5.2-2.7-7
			C326.2,34.1,328.6,34.9,331.1,36.1z"/>
		<path class="st143" d="M425,44.2c0-0.7,0.1-1.4,0.1-2.1c2.3-1.7,4.7-1.6,7,0.1c0.5,0,1.3,0.1,1.4-0.1c1.7-3.1,5-2.2,7.6-2.9
			c1.1,5.2,4.1,3.6,7,2c1.5-1.2,3.1-1.8,5-1c4.7,3.8,9.9,0.9,14.9,1c2.7,0,5.8,2.8,8-1.1c2.3,5.2,1.2,7-4.1,8.2
			c-3.4,0.8-6.5-0.6-9.8,0c-0.5,0.8-1.2,0.8-2,0.8c-2-0.9-4.2-1-6.3-0.9c-8.1,0.5-16.1-0.4-24.2-0.7C427.7,47.3,424.4,48.2,425,44.2
			z"/>
		<path class="st144" d="M462.1,48.2c2.2-2.5,5.1-0.9,7.4-0.8c7.2,0.1,6.8-2.2,6.5-7.3c0.1-1,0.1-2,0.2-3c0.6-0.6,1.2-0.5,1.9-0.2
			c0.3,0.3,0.6,0.7,0.8,1.1c1.3,3.4,3.6,0.8,5.5,0.9c1,0.3,1.4,1.2,1.6,2.1c0.2,0.9,0.2,1.8,0.1,2.7c0,2.1-1.9,2.6-3.2,3.5
			c-3.8-1.2-6.8,1.7-10.4,2.2C468.8,50,465.5,49.7,462.1,48.2z"/>
		<path class="st145" d="M485.2,41c-0.4-0.6-0.7-1.2-1.1-1.8c-2,0.2-4.1,0.6-5.9-0.9c-0.1-0.3-0.1-0.6,0-1c1.8-1.8,4.2-1.7,6.5-2.2
			c2.1-2.1,4.7-2,7.3-1.9c-0.6,2.4,1.2,4.6,0.9,7C490.7,42.4,488.1,42.8,485.2,41z"/>
		<path class="st146" d="M484.8,35.1c-1.3,3.1-4.2,1.7-6.5,2.2c-0.7-0.1-1.4-0.1-2.1-0.2c0.1-1.3-0.9-3.8,0.9-3.6
			C479.6,33.6,482.9,31.5,484.8,35.1z"/>
		<path class="st147" d="M453.1,40.1c-1.6,0.8-3.2,1.4-5,1c-0.3-2,0.6-2.8,2.7-3.2c3.4-0.5,6.8-1,10.7-0.7
			C459,40.1,455.3,38.1,453.1,40.1z"/>
		<path class="st148" d="M581,46.1c-1.7-2.4-2.7-4.9-5.9-6.6c-3.4-1.8,2.7-2.1,1.9-4.3c4.3,0.1,8.7,0.3,13,0.2
			c1.1,0,2.4,0.1,1.8,1.3c-1.3,2.4,1.4,3.4,1.3,5.2c1.3,2.8-0.2,4.1-2.8,4.4C587.3,46.6,584.1,46.9,581,46.1L581,46.1z"/>
		<path class="st149" d="M581,46.2c2.9,0.1,5.6-1,8.6-0.7c2.1,0.3,3.8-1,3.5-3.5c0.5-0.2,0.9-0.4,1.4-0.6c1.7,4.3,5.4,0.4,7.9,1.8
			c1.4,0.8,1.7-0.7,1.2-1.6c-0.7-1.7,1-2.3,1.3-3.5c0.3-0.4,0.7-0.4,1.1,0c2.2-1.9-0.1-5,1.9-7c1.3,0.8,4.9-0.3,2.7,3.3
			c-1,1.6,1.2,1.5,1.6,2.4c0.9,1.9,2.8,3.9-0.9,5c-2.9-0.7-3.9,1-4.4,3.4c0,1-0.1,1.9-0.1,3.1c-3.2-3.5-6.3-3.5-11.9-0.2
			c-2.5,1.4-5.4-0.2-8,1c-1.4-2.6-3.7-2-5.9-1.8C581.1,47,581,46.6,581,46.2z"/>
		<path class="st61" d="M606.1,38.1c-0.4,0-0.7,0-1.1,0c-1.1,0.2-2.2,0.4-3.3,0.6c2.7-1.5,1.6-4.7,3.2-6.6
			C606.7,33.9,605.5,36.2,606.1,38.1z"/>
		<path class="st150" d="M639,49c-1.3,0.4-2.6,0.8-3.9,1.2c-1,0.3-1.9,0.7-2.9-0.1c-0.2-0.3-0.3-0.6-0.4-0.9
			c1.7-0.2,1.5-0.9,0.8-2.2c-1.3-2.4-0.8-4,2.4-3.8c2.5,3.3,8.2,3.8,12.9,1c5-0.3,10,0.1,15,1c0.4,2.3-2.4,1.5-2.9,2.9
			C653,48.7,645.9,47,639,49z"/>
		<path class="st123" d="M648,44.2c-0.3,2.8-0.3,3-6.7,2.8c-2.3-0.1-5.7,2.1-7-2c-0.1-0.5,0.5-1.2,0.8-1.8
			C639.4,42.8,643.7,43.7,648,44.2z"/>
		<path class="st151" d="M660,48c-1.4-3.4,2.9-0.9,2.9-2.9c2.3,0,4.6-0.1,6.8,0c2.8,0.2,0.2,1.3,0.2,1.9
			C666.7,47.6,663.5,48.5,660,48z"/>
		<path class="st152" d="M666.9,38.4c0.2,4.2-2.9,2.1-4.7,2.5c-1.4-1.2-0.9-2.5-0.1-3.7C663.5,38.4,665.3,38.1,666.9,38.4z"/>
		<path class="st153" d="M485.2,41c2.6-0.3,5.2-0.6,7.8-0.9c0.3,0,0.6,0,0.9,0.1c0.3,2.1,1.9,2.3,3.3,1.9c5-1,9.9,2,15,0.2
			c1.3-0.5,3.2,0.5,4.8,0.9c0.7,0.5,1.2,1.2,1.1,2.1c0,0.3-0.1,0.6-0.1,0.9c-6,1-12-1-18.1,0c-1.9,0.3-4,0-5.9,0
			c-2.8-1.4-6.5,1-8.9-2.1C485.2,43,485.2,42,485.2,41z"/>
		<path class="st154" d="M519,41c-3,0.2-5.9,0.2-8.8-0.9c-0.7-0.3-1.8-0.2-1.7-1.3c0.1-0.9,0.9-1.5,1.7-1.5c2.6,0.1,5.3-0.9,7.6,1.1
			c0.8-0.1,1.2,0.2,1.6,0.8C519.6,39.9,519.6,40.5,519,41z"/>
		<path class="st155" d="M519,41c0-0.6,0-1.1,0-1.7c0-1.9,1-1.8,2.2-1.1c0.1,2.8,3.4,7-3,7.1c-0.9-0.4-1.1-1.2-1.1-2.1
			C518,42.7,518.8,42.1,519,41z"/>
		<path class="st127" d="M521.2,38.2c-1,0-1.8,0.2-2.2,1.1c-0.4-0.3-0.7-0.6-1.1-0.9c-0.3-2.6,3.1-2.8,3.1-5.2
			c1.2,0.7,2,2.4,3.9,1.8c0,1.8,0.8,3.6-0.7,5.1C524.1,38.1,523.7,36.6,521.2,38.2z"/>
		<path class="st156" d="M432.1,42.1c-2.3,0-4.6-0.1-7-0.1c0-1,0-1.9,0-2.9C427.7,39.6,431.3,37.5,432.1,42.1z"/>
		<path class="st157" d="M611.1,41.2c2-2.2,1.7-4-1.3-4.6c-2.2-0.5-2-1.4-1.3-2.5c1.1-1.8,1.3-1.8-0.4-2.9c0.4-0.2,1.2-0.4,1.2-0.7
			c0.7-3.9,0.6-3.9,4.7-4.4c0.5,1-1.4,2.1,0.1,3.2c2.5,2.5,2.6,7,7.1,8.1c0.9,0.2-0.3,2.8-1.2,4.2c-0.4,0.6-3.4,1-0.9,2.7
			c0,0.4,0,0.7,0,1.1c-2.3,2.8-3.7,1.2-4.9-1.1l-0.2-0.1C613.1,43,610.6,43.5,611.1,41.2z"/>
		<path class="st158" d="M614.1,44.2c1.5,0.8,2.8,2.7,4.9,1.1c0.7,1,1.4,1.9,2.1,2.9C617.7,48,614,51,611,47
			C611.9,45.9,613.5,45.7,614.1,44.2z"/>
		<path class="st159" d="M310.1,28c-5.2-0.4-2.1-4.4-2.8-6.7C312.9,21.6,309.7,25.6,310.1,28z"/>
		<path class="st160" d="M294.1,39.2c0.3,0,0.7,0,1,0.1c1.9,1.4,4.3,1.5,6.5,2.3c0.4,1,0.3,1.9-0.5,2.6c-1.4,0.2-3.1,4.3-4-0.3
			c-0.1-0.4-0.4-1.2-0.8-0.2c-2.5,5.4-7.5,2.7-10.8,2.3c-9.5-1-18.8,1-28.2,0.2c-2.5-1.2-5.6-0.2-8-1.9c-0.3,0-0.6,0-1-0.1
			c-0.6-0.6-0.6-1.3,0-2c3.3-0.2,3.5-2.9,4.3-6c2.5,3.7,5.2,3.5,8.3,1.7c2.5-1.4,5.1-3.1,6.9,1c0.5,1.2,1.9,0.9,2.7,0.6
			c2.6-1,4.9-0.3,7.5,0.5c2.9,0.9,5.8,0.6,7.3-2.8C288,38.1,291.4,37.2,294.1,39.2z"/>
		<path class="st161" d="M248.1,42.2c0,0.7,0,1.3,0,2c-7,2.2-14.2,2.2-21.3,2c-2.6-0.1-5.6,1-7.6-2.1c-0.8-1.2-2.1-0.2-3.1,0.1
			c-0.7-2,0-3.4,2.1-4c1.3-1,2.6-1.2,3.9,0.1c5,2.5,10.2,0,15.3,0.9C240.9,41.8,244.8,39.4,248.1,42.2z"/>
		<path class="st162" d="M294.1,39.2c-2.9-1.3-6.8,2.3-9.1-1.9c-1.6-3-4.1,0.3-6.2-1c-1-0.6-3.1-0.1-3.2-1.6c-0.2-2.1,2-1.8,3.3-1.9
			c5.4-0.7,10.8-1.1,16.1,0.4C295.5,35.2,294.4,37.1,294.1,39.2z"/>
		<path class="st162" d="M222.1,40.2c-1.3,0-2.6-0.1-3.9-0.1c-0.4-0.7,0.9-2-1.5-1.8c-3.3,0.3-6.9-0.1-9.7-2.4
			c-1.3-1.1-3.3-3.2,0.3-3.7c2.9-0.5,6-0.3,8.9,0.9c0.7,0.4-2.1,1.7,0.4,1.6c1.7,0,2.6-2.2,4.5-1.5l0,0c2.3,1.8,2.1,4.4,2.1,6.9
			C222.8,40.1,222.5,40.1,222.1,40.2z"/>
		<path class="st161" d="M215.2,44c-0.2,1.7-1.2,2.1-2.8,2.1c-3.4,0-6.8,0-10.9,0c1.8-1.7,3-3,2.6-5c1.6-0.1,3.3,0,4.9-0.4
			C212.2,39.9,214.2,41.1,215.2,44z"/>
		<path class="st163" d="M223.2,40c-0.7-2.3-1.4-4.6-2.1-6.9c2.3-1.1,2.4,0.8,2.9,2.1c0.4,1.2-0.6,3.3,2,3c0.1,0,0.5,1,0.3,1.3
			C225.5,40.7,224.3,39.9,223.2,40z"/>
		<path class="st163" d="M221.2,33.1c-1.1,0.9-2.3,2.4-3.5,2.5c-1.5,0.1-3.4,2-4.1,0.6c-1.2-2.1,1.6-2.2,2.6-3.2
			C217.8,33.4,219.6,31,221.2,33.1z"/>
		<path class="st164" d="M297.1,29.1c1,0.9,2.6,1.7,1,3.3c-0.7,0.7-1.6,2-2.1-0.2C296.2,31.1,295.8,29.8,297.1,29.1z"/>
		<path class="st165" d="M16.2,21.2c0,2.1-0.3,3.4,3.2,3.8c4.8,0.6,8.1,5,11.8,8.1c0.1,1.4,0.1,2.8,0.2,4.3c2.9-0.4,2.3-3.2,3.9-4.6
			c1.6,1,3.2,1.9,4.1,3.8c0.6,1.1,1.9,2,2.8,1.4c4.1-2.5,7.1-0.1,10,2.2c3.1,2.5,5.9-1.5,8.9,0c-2.4,2.8-4.4,3.9-8.6,2
			c-4.4-1.9-9.9-3.8-14.4,0.9c-3.7-3.1-8.6-3.2-12.9-4.8c-2.5-0.9-4.5-1.5-5.3-4.3c-0.2-0.9-0.9-2-1.7-2.4
			C12.9,29.1,15.2,25,16.2,21.2z"/>
		<path class="st166" d="M66.2,35.3c-0.8-0.1-1.6,0-2.1,0.8c-1.6-0.2-3.4-0.5-3.8-2.4c-0.2-1.3,1-1.5,2-1.6
			C64.8,31.8,65.8,33.1,66.2,35.3z"/>
		<path class="st167" d="M301.1,44.1c0-1,0-2-0.1-3c-1.4-2.2-1.3-4.6-1-7c0.4-0.4,0.8-0.7,1.1-1.1c0.5,1.3,1.4,0.2,2.1,0.2
			c1.3,0.9,2.6,1.7,3.4,3.2c0.2,0.7,0.1,1.4-0.6,1.9c-3.2,0.6-1.4,3.2-1.9,4.8c-0.5,1.7,0.6,4.7-3.1,3.9
			C301.1,46,301.1,45.1,301.1,44.1z"/>
		<path class="st161" d="M249.1,44.2c2.9-0.2,5.6,0.1,8,1.9C254.5,45.3,251,48.1,249.1,44.2z"/>
		<path class="st168" d="M124.1,41.3c-1.5-0.9-2.1-2.2-1.8-4c1.3,0.9,2.4-0.2,3.9-0.9C125.4,38.4,125.6,40.2,124.1,41.3z"/>
		<path class="st115" d="M92.2,38.2c0-1.7,0-3.3,0-5c0.8-0.3,1.3,0.1,1.6,0.7c3,6.9,9,6.6,15,6.1c0.4-0.2,0.9-0.1,1.3,0.1
			c3.2,1,3.3,3.5,2.9,6.2c-1.3,0.3-2.6,0.6-3.9,0.9c-3.9,0.5-7.9,0.3-11.7-0.8C93.7,45.3,91.7,42.3,92.2,38.2z"/>
		<path class="st85" d="M109.2,40.2c-0.2,1-0.4,2.5-1.5,2.2c-5.9-1.9-13.4-1.2-15.5-9.3c-0.1-0.3-0.1-0.6-0.1-0.9
			c3.9,0.3,4.1,5.7,8.1,5.9C103.4,37.8,106.4,38.5,109.2,40.2z"/>
		<path class="st169" d="M109.2,40.2c-3.2,0.1-6.3-0.3-9.1-2.1c3-3.4,6.9-2.7,9.9,1.9C109.8,40.1,109.5,40.2,109.2,40.2z"/>
		<path class="st95" d="M306.1,36c-1.9,0.1-2.8-1-2.9-2.8c2.3-1.9,4.2-0.9,6,0.9c-0.1,1-0.1,1.9-0.2,2.9
			C307.7,37.7,307.1,36.2,306.1,36z"/>
		<path class="st170" d="M153.3,49.2c-0.2,0.3-0.2,0.5-0.2,0.8c-7.9-0.8-6-6.6-6-11.5c0-1.5,0.1-3,0.2-4.4c1.7-1.1,4.2,0,5.7-1.9
			C153.1,37.9,153.2,43.5,153.3,49.2z"/>
		<path class="st171" d="M168.1,45.1c-1.2,0.6-2.3,1.2-3.5,1.7c-7,2.6-9.4,0.9-9.4-6.6c0.3,0,0.7,0,1,0c6.5,3.1,6.4,3.1,9.4-3.2
			c0.2-0.5,1-0.6,1.6-0.9C167.4,39.1,168.8,42,168.1,45.1z"/>
		<path class="st172" d="M300,34.1c0.6,2.3,1.5,4.5,1,7c-3.1,2.8-4.3-0.3-5.9-1.9C299.6,40.2,298.3,35.8,300,34.1z"/>
		<path class="st173" d="M92.2,38.2c0.8,4.3,2.7,7.2,7.7,7.4c3.1,0.1,6.2,1,9.3,1.5c-7,2.1-13.4,2.2-17.9-4.9c0-1.4,0-2.8,0-4.2
			C91.6,38.1,91.9,38.2,92.2,38.2z"/>
		<path class="st174" d="M438,117c0-2.3,0-4.5,0-6.8c0.3,0,0.6,0,0.9,0c0,3.9,0,7.9,0,11.8C437.4,120.5,438.4,118.6,438,117z"/>
		<path class="st175" d="M431.1,120.9c0-3.9,0-7.8,0-11.8C432.6,113.1,432.6,117,431.1,120.9z"/>
		<path class="st176" d="M327,44.1c0.1-1,0.1-2,0.2-3c1.6,1.6,0.4,6.9,3.9,5.2c3.2-1.5,6-0.3,8.9-1.2c1.9-0.6,3.9,0,5,2
			c1.3-1.6,3.7-0.4,5-2c1.2,0.9,2,2.5,3.9,1.8l0.3,0.2c1.1,2,0.4,3.9-0.1,5.9l-0.1-0.1c-4.8-3.7-10.4-2.8-15.8-2
			c-3.1,0.4-6.2-0.3-9.3,0.6c-0.9,0.2-1.4-0.7-1.8-1.5l-0.2,0.1c0-0.7,0-1.4,0-2C327,46.8,327,45.4,327,44.1z"/>
		<path class="st177" d="M306.1,36c1.7-1.9,1.9,0.9,3,1c0.4,8,1.5,9.4,9.4,10c2.6,0.2,5.2,0.3,7.7,1.1c-3.9,3.1-16.3,3.3-18.7-0.2
			c-2-2.8-1.3-6.4-1.4-9.7C306,37.5,306,36.8,306.1,36z"/>
		<path class="st12" d="M425,44.2c0.4,2.4,2.3,1.9,3.9,1.9c2.3,0,5.4-1.1,6.7-0.4c6.8,3.7,13.8,0.3,20.6,1.4
			c1.5,0.3,2.9,0.7,3.9,1.9c-9,0.1-18.1,0.1-27.1,0.2c-3-0.3-6.1,0.6-9-1C424.2,46.8,423.6,45.3,425,44.2z"/>
		<path class="st178" d="M381.1,51.1c2.5-2,5.3-0.7,8-1c2.4-0.2,4.9,0.3,7.1-1.1c1.3,0,2.6,0.1,4,0.1c2.1-0.1,4.2-0.1,6.3,0
			c1.2,0.1,2.7,0,2.7,1.9C399.8,53.4,390.4,52.1,381.1,51.1z"/>
		<path class="st179" d="M409.1,51.1c-2.6-2.4-6.4,0.5-9-1.9c0.2-0.7-1.9-2-0.4-1.8c7.3,1.3,14.4,0.8,21.6,0.2
			c0.5-0.1,1.2,1,1.8,1.5C418.4,49.8,413.9,51.4,409.1,51.1z"/>
		<path class="st180" d="M485.2,44c2.5-0.6,4.9,2.2,7.5-0.1c0.6-0.6,1.2,1.2,1.4,2.1c-2,0.7-4,1.4-6.1,2.1c-1.8,0.5-3.5-0.1-5.1-0.9
			C482.5,45.3,485.6,45.9,485.2,44z"/>
		<path class="st181" d="M327.2,50.1c2.9,1.8,6.4,0,8.8-0.3c3.9-0.5,7.8,0.4,11.5-0.6c3.4-0.9,5.5,0.5,6.5,3.8c-1.3,2-3.3,1-4.9,1.1
			c-6.1,0.1-12.1-0.1-18.2,0.1C327.8,54.3,326.7,53,327.2,50.1z"/>
		<path class="st103" d="M354.1,53.1c0-2,0.1-3.9,0.1-5.9c0.9,0.3,1.9,0.6,2.8,0.9c0,1,0,2,0,3C354.6,49.6,355.4,52.8,354.1,53.1z"
			/>
		<path class="st19" d="M436.1,102c2.5,0.8,0.5,4.6,3.8,4.9c-6-0.3-8.1-2.8-7.6-8.4c0.8,1.1,1.8,2.3,2.8,3.5
			C435.4,101.7,435.7,101.7,436.1,102z"/>
		<path class="st182" d="M436.1,102c-0.3,0-0.7,0-1,0c-1.8-2-0.9-4.1-0.6-6.8C436.8,97.6,435.8,99.9,436.1,102z"/>
		<path class="st183" d="M611.1,41.2c0.7,1.2,2.5,1.3,2.8,2.9c-2.2,0.8-5-2.1-6.8,1.2C607.4,42.9,606,38.8,611.1,41.2z"/>
		<path class="st184" d="M330.2,38.3c6.9,0,13.9,0,20.8,0c0.2,1.3,1.1,2.5,0.2,3.8c-7,1.1-14,0.7-21,0.2
			C330.2,40.9,330.2,39.6,330.2,38.3z"/>
		<path class="st185" d="M330.2,42.2c7-0.1,14-0.1,21-0.2c0.4,1-0.3,1.1-0.9,1.1C343.6,42.6,336.8,44.2,330.2,42.2z"/>
		<path class="st186" d="M350.1,45.2c-0.6,3.5-3.3,1.4-5,2C345.7,44,348.3,45.5,350.1,45.2z"/>
		<path class="st187" d="M478.3,38.3c2-0.1,4.2-1.2,5.9,0.9c-0.8,2.6-2.8,2.2-4.7,2C477.4,41,478,39.5,478.3,38.3z"/>
	</g>
</g>
</svg>
