<?xml version="1.0" encoding="utf-8"?>
<!-- Generator: Adobe Illustrator 25.0.0, SVG Export Plug-In . SVG Version: 6.00 Build 0)  -->
<svg version="1.1" xmlns="http://www.w3.org/2000/svg" xmlns:xlink="http://www.w3.org/1999/xlink" x="0px" y="0px"
	 viewBox="0 0 615 191" style="enable-background:new 0 0 615 191;" xml:space="preserve">
<style type="text/css">
	.st0{display:none;}
	.st1{display:inline;stroke:#FFFFFF;stroke-miterlimit:10;}
	.st2{fill:#636565;}
	.st3{fill:#737474;}
	.st4{fill:#B6B8B8;}
	.st5{fill:#070808;}
	.st6{fill:#2D2F2E;}
	.st7{fill:#292D30;}
	.st8{fill:#101214;}
	.st9{fill:#0F1012;}
	.st10{fill:#121211;}
	.st11{fill:#010102;}
	.st12{fill:#17191B;}
	.st13{fill:#1B1E20;}
	.st14{fill:#363530;}
	.st15{fill:#0C0D0E;}
	.st16{fill:#21211E;}
	.st17{fill:#0B0B0B;}
	.st18{fill:#0B0C0D;}
	.st19{fill:#16181A;}
	.st20{fill:#0A0A0A;}
	.st21{fill:#232628;}
	.st22{fill:#384249;}
	.st23{fill:#191A1A;}
	.st24{fill:#4C4A43;}
	.st25{fill:#2D2D2A;}
	.st26{fill:#080808;}
	.st27{fill:#252522;}
	.st28{fill:#40423F;}
	.st29{fill:#353531;}
	.st30{fill:#494945;}
	.st31{fill:#3E4244;}
	.st32{fill:#4C5052;}
	.st33{fill:#222528;}
	.st34{fill:#424749;}
	.st35{fill:#131415;}
	.st36{fill:#3B3B38;}
	.st37{fill:#111213;}
	.st38{fill:#2E3135;}
	.st39{fill:#484D4E;}
	.st40{fill:#47453D;}
	.st41{fill:#44423A;}
	.st42{fill:#565A5A;}
	.st43{fill:#5B5951;}
	.st44{fill:#242729;}
	.st45{fill:#1E2122;}
	.st46{fill:#1C1E20;}
	.st47{fill:#202325;}
	.st48{fill:#1F2122;}
	.st49{fill:#212324;}
	.st50{fill:#191B1D;}
	.st51{fill:#1A1C1E;}
	.st52{fill:#1F2123;}
	.st53{fill:#202225;}
	.st54{fill:#3B3E3F;}
	.st55{fill:#323638;}
	.st56{fill:#3B4043;}
	.st57{fill:#30302C;}
	.st58{fill:#393934;}
	.st59{fill:#151719;}
	.st60{fill:#0E0E0D;}
	.st61{fill:#1C1C1A;}
	.st62{fill:#464846;}
	.st63{fill:#3F3E38;}
	.st64{fill:#202326;}
	.st65{fill:#43423B;}
	.st66{fill:#474640;}
	.st67{fill:#2A2E31;}
	.st68{fill:#2C2F32;}
	.st69{fill:#171716;}
	.st70{fill:#1F2225;}
	.st71{fill:#353430;}
	.st72{fill:#1E1E1C;}
	.st73{fill:#363A3E;}
	.st74{fill:#191917;}
	.st75{fill:#1E2023;}
	.st76{fill:#595750;}
	.st77{fill:#67665E;}
	.st78{fill:#78756A;}
	.st79{fill:#464B4C;}
	.st80{fill:#373C3F;}
	.st81{fill:#1A1C1F;}
	.st82{fill:#24282B;}
	.st83{fill:#2E2D29;}
	.st84{fill:#3E3D38;}
	.st85{fill:#4A4942;}
	.st86{fill:#0C0C0C;}
	.st87{fill:#53514A;}
	.st88{fill:#6A685E;}
	.st89{fill:#5F5D55;}
	.st90{fill:#5E5B53;}
	.st91{fill:#C5C1B1;}
	.st92{fill:#020202;}
	.st93{fill:#474E52;}
	.st94{fill:#090A0A;}
	.st95{fill:#767469;}
	.st96{fill:#7B796E;}
	.st97{fill:#070707;}
	.st98{fill:#0A0A09;}
	.st99{fill:#757F81;}
	.st100{fill:#898679;}
	.st101{fill:#393A38;}
	.st102{fill:#2D2C28;}
	.st103{fill:#89877A;}
	.st104{fill:#101010;}
	.st105{fill:#68655C;}
	.st106{fill:#54534B;}
	.st107{fill:#68665C;}
	.st108{fill:#2B2A27;}
	.st109{fill:#4A5659;}
	.st110{fill:#8E8B7E;}
	.st111{fill:#0D0E0F;}
	.st112{fill:#615F56;}
	.st113{fill:#677577;}
	.st114{fill:#ABA899;}
	.st115{fill:#737166;}
	.st116{fill:#6B695F;}
	.st117{fill:#AFAC9C;}
	.st118{fill:#6B7275;}
	.st119{fill:#828B8E;}
	.st120{fill:#060707;}
	.st121{fill:#111110;}
	.st122{fill:#9D9A8C;}
	.st123{fill:#707D7F;}
	.st124{fill:#080809;}
	.st125{fill:#7E7B70;}
	.st126{fill:#9B9889;}
	.st127{fill:#2D2C27;}
	.st128{fill:#2C2B25;}
	.st129{fill:#77756A;}
	.st130{fill:#AFAB9C;}
	.st131{fill:#1D2022;}
	.st132{fill:#605D55;}
	.st133{fill:#A7A495;}
	.st134{fill:#D7D3C1;}
	.st135{fill:#BCB8A8;}
</style>
<g id="Camada_2" class="st0">
	<rect x="-335" y="-192" class="st1" width="1143" height="474"/>
</g>
<g id="Camada_1">
	<g>
		<path class="st2" d="M203.2,1.1c0-0.4-0.1-0.7-0.1-1.1c12.3,0,24.7,0,37,0c0.3,0.2,0.4,0.4,0.3,0.8c-1.2,1.7-3.1,1.8-4.9,1.8
			c-9.4,0.1-18.8,0.2-28.2-0.1C205.8,2.5,204.3,2.3,203.2,1.1z"/>
		<path class="st3" d="M613.9,38c0.3,0,0.7,0,1,0c0,5.3,0,10.7,0,16c-0.4-0.1-0.7-0.1-1.1-0.2c-2-2.6-1.1-5.6-1.3-8.4
			c-0.1-1.2,0.1-2.3,0.1-3.5C612.5,40.5,612.9,39.1,613.9,38z"/>
		<path class="st4" d="M0.1,100c0.3-0.1,0.6-0.1,0.9,0c2.2,3.6,2,7.3,0.1,11c-0.4,0-0.7,0-1.1,0C0.1,107.3,0.1,103.7,0.1,100z"/>
		<path class="st5" d="M200,7c0.2-0.3,0.4-0.3,0.7-0.1c3.2,0,2.5,2.6,2.9,4.4c-0.4,1.9,0.4,2.5,2.3,2.6c1.9,0,3.9-0.4,5.4,1.3
			c0.1,0.5,0,0.9-0.4,1.3c-2.4,1.9-5.7-0.2-8.1,1.9c-0.6,1.4-0.4,2.8-0.4,4.3c-0.7,4.6,1.6,9,0.7,13.6c-0.3,1.5-0.7,3-0.7,4.5
			c0,0.7,0,1.4,0.1,2.1c0,1.2,0.5,2.3,0.5,3.4c0.1-1.6-0.2-3.4,1.2-4.6c1.9-1.3,4.1-0.9,6.3-1c3.8-0.2,6.1,1.4,5.9,5.5
			c-0.2,3.5,1.5,4.7,4.8,4.5c4.3-0.2,8.6,0,12.9-0.1c10.1-0.2,20.1,0.6,30.2-0.5c4.5-0.9,9.1,0.4,13.6-0.1c3.3,1.1,6.8,0.3,10.1,0.9
			c3,2.5,2.7,3.2-2.5,5.3c-12.9-0.1-25.9,0.2-38.8-0.5c-13.1-0.7-26.3,0-39.4-0.3c-3.8-0.1-5.2,1.3-4.8,4.9c0,3.9,2.1,5,5.7,5.1
			c11.8,0.1,23.6,0.1,35.4,0c19.9-0.2,39.9,0.3,59.8,0.1c2.8,0,5.7,0.3,8.4-0.6c5.5-1.3,10.9,0.5,16.4,0.5c20.4,0,40.9,0,61.3,0
			c2.2,0,4.8,0.8,6.2-2c0.2-1.6,0.3-3.2,0.8-4.8c0.2-1.6,0.2-3.1,0.6-4.7c1-3.6,0.7-7.1,0.2-10.7c0-1.1,0.2-2.1,1.4-2.6
			c0.5-0.1,1.1,0,1.5,0.3c0.4,0.4,0.6,0.8,0.8,1.3c0.6,3.4,0.2,6.9,0.3,10.4c0.1,1.9,0.3,3.4,2.7,4c10.9,2.7,11.5,4.2,5,14.4
			c8.3-2,17.7,3.8,23-6.6c1-3,3-5,5.9-6.1c6.9-3.6,14.1-2.4,21.4-2.3c10.3,0.2,20.6,0.7,30.9,0.5c17.8-0.3,35.6-0.1,53.5-0.1
			c2.2,0,4.4-0.1,6.1,1.5c0.4,1.8,0.2,3.5-0.9,5c-0.8,0.6-1.8,1-2.8,0.9c-12.3-1-24.5,0.2-36.8,0.5c-16.4,0.4-32.9,0.3-49.3,0
			c-7.6-0.2-14.4,1.9-21.1,5c-4,1.9-8.1,3.8-12.1,5.9c-7,0.6-14-0.5-21,0.6c-2.2,0.4-2.6-1.7-3.7-2.7s-1.6-3.4-3.7-1.7
			c-1.5,1.2-2.2,2.9-0.9,4.7c0.7,0.9,0.6,1.8,0.5,2.8c-0.4,0.3-0.9,0.4-1.5,0.2c-1.2-0.7-1.8-1.9-2.5-3c-1.5-1.6-3.5-1.7-5.5-1.7
			c-9.5-0.1-18.9-0.1-28.4,0c-5.4,0.1-6,0.9-5.2,6.2c1.2,7.9,2.7,15.7,3.5,23.6c0.8,7.6,1,7.6-5.5,9.8l0,0c-3.2,1-4.1,0.1-2.4-2.9
			c1.2-2.1,2.7-4.1,2.2-6.7c-0.2-0.6-0.5-1.3-0.7-1.9c-0.4-2.1-2.1-2.8-3.8-3.5c-6.7-2.9-7.5-4.5-6-11.9c5-3.8,7.4-2.7,9.3,4.2
			c-1.5-5.9-3.5-8.7-6.5-9.5c-2.1-0.6-3.5,0.2-4.2,2.3c-0.7,2.4-0.5,4.9-1.2,7.2c-0.5,1.5-0.5,3.8-2.5,3.7c-2.2-0.1-2.4-2.3-2.2-4.2
			c0.9-2.9,0.5-5.9,1-8.8c1.1-6.6,3.2-8.1,9.7-6.7c-6.1-1.6-6.1-1.5-10.7,2.9c-2.6,2.5-4.6,5.6-7.2,8.2c-1.8,1.8-3.5,3.5-6.2,3.9
			c-9,0.8-18.1-0.4-27.1,0.7c-5.4,0.9-10.7,0.1-16-0.1c-3.7,1.4-2.3,5.2-3.5,7.7c-0.6,0.6-1.3,0.8-2.2,0.5c-3.4-2.4-3.6-5.8-2.6-9.3
			c1-3.4,4-3.9,7.1-4.3c4.6-0.6,9.2-1.2,13.9-0.9c3.4,0.2,6.5-0.9,9.7-1.8c5.9-0.5,11.9,0,17.8-0.5c3.8,2.3,6.4,0.6,8.8-2.5
			c1.7-2.3,3.8-4.4,6.2-6.3c-2.5-0.2-4.3,1.1-5.7,2.7c-2.2,2.5-3.6,2.7-4.3-0.9c-0.1-0.7-0.5-1.2-0.9-1.7c-4.9-4.7-8.7-4.3-12.3,1.2
			c-2.8,4.5-6.1,8.3-12.3,6.7c-1.2-1.1-1.2-2.4-0.6-3.8c0.6-1.2,2-1.8,2.3-3.5c-3.4-1.2-6.9-0.7-10.3-0.4
			c-18.7,1.3-37.4,3.6-56.1,0.2c-3.8-0.7-7.6-0.3-11.5-0.3c-2.9,0-5.6-0.2-8.3-1.4c-8.5-0.5-17.1-1-25.6-1.4
			c-1.2-0.1-2.3-0.4-3.2-1.2c-8.2-7.3-18.1-12.7-24-22.4c4.5-1.3,5.5,3.2,8,4.5c-0.8-1-2.1-2.2-3.4-3.3c-1.5-1.4-1.4-2.9-0.1-4.4
			c1.3-1.4,2.8-1.7,4.5-0.6c2.4,1.6,4.1,3.9,5.8,6.1c4.8,6.3,6.4,6.5,12.9,1.8c2-1.5,2-1.5,4.1,1.8c-0.6-1.6-0.8-3.2-1.5-4.8
			c-0.6-1.5-1.5-2.9-2.7-4.2c-3.5-3.9-6.8-4.2-10.9-1.1c-4.2,3.3-7,2.2-9-3.5c6.3-2.1,11.9-7.1,19.3-4c1.5,0.6,3.3,0.2,4.9,0.1
			c2.9-0.4,0.3-3.8,2.4-4.6c2.5-1.5,3.4-3.7,3.3-6.6c-0.1-3.3,0-6.5-0.1-9.8C198.6,12,198.2,9.3,200,7z"/>
		<path class="st6" d="M417.1,180.3c-7.2,2.9-14.5,5.6-21.6,8.8c-2.8,1.2-3.6,0.3-4.5-2.1c-7.9-19.9-15.5-39.9-20.7-60.7
			c-0.4-1.4-0.8-2.8-1.2-4.3c4.6-2.1,9.4-3.7,14.4-5c2.6-0.7,5.1-2,7.4,0.5c0.6,0.6,0.4,0.7,0.7-0.2c1.1-3.3,3.6-3.5,6.4-2.5
			c3,10.4,6.1,20.8,9.1,31.1c0.2,5.6,1.9,10.7,5.6,15.1c0.2,0.2,0.3,0.5,0.2,0.8c-1.8,4.3-0.7,7.3,3.9,10.2l0,0
			C417,174.7,418.6,177.5,417.1,180.3z"/>
		<path class="st7" d="M209.1,175.6c-4.7-1.6-9.4-3.1-14.1-4.7c6.9-9.5,13.2-19.4,19.9-29c5.8-8.3,11.5-16.7,17.5-24.8
			c2.7-3.7,3.6-8.2,5.4-12.3c0.7-1.6,1.4-3.7,3.4-3.9c2.3-0.3,2.7,2,3.7,3.5c2.6,4.3,3.9,9.6,9.5,11.5c1.1,0.4,1.4,1.8,1.2,3
			c-1.9,5.7-3.5,11.5-7,16.5c-7.1,4-10.1,10.6-10.9,18.3c-0.9,1.9-1.3,4.2-3.2,5.6c-4.1,0.2-5.4,3.3-6.5,6.5c-1,2.9-1.5,5.9-2.5,8.7
			C220.1,176.2,214.5,173.9,209.1,175.6z"/>
		<path class="st8" d="M433,65c-1.1,3.8-3.7,6.6-7.6,6.9c-5.5,0.4-11,0.1-16.5,0.1c-1,0-2.2,0.2-2.4-1.1c-0.2-0.9,0.7-1.4,1.4-1.8
			c0.4-0.2,0.9-0.5,1.2-0.8c2-1.9,3.5-4.7,2.9-7c-0.7-2.7-3.9-3.5-6.6-3.2c-4.5,0.6-6-1.2-5.5-5.6c0.4-3.5,0.1-7,0.1-10.5
			c2.5,0.2,2.1,2.2,2.3,3.7c0.9,5.8,2.1,6.5,8.3,4.9c11.1-2.8,22.5-2.1,33.7-3.5c0.8-0.1,1.6,0.1,2.5,0.3c11,2.3,22.2,1.4,33.3,0.7
			c7.7-0.5,15.2-0.7,22.8,0c10.6,1,21.3,0.8,31.9,0.1c5.2-0.3,10.2,0,15.2,1.4c3.6,1.8,5.6,4.1,3,8.2c-1.6-1.3,0.2-3.6-1.5-5
			c-2.5,1.1-0.5,3.6-1.5,5.1c-19.2,0-38.3-0.4-57.4,0.1c-9.9,0.3-19.7-1.3-29.6-0.3c-4.2,0.4-8.6-0.6-12.8-0.8
			c-3.5-0.2-7-0.6-9.5,2.8c-1.5,2.1-2.5-0.1-3.5-0.9c-2.7-0.5-4.2,3.2-8,1.9C430.8,62.5,431.8,63.8,433,65z"/>
		<path class="st9" d="M213.8,72.1c16.2-1.4,32.2,3.1,48.5,1.9c11.8-0.8,23.7-1.4,35.6-2c1.9-0.1,4.9-1.1,5.4,0.9
			c0.6,2.4-2.4,3.5-4.3,4.6c-0.3,0.2-0.6,0.3-0.9,0.4c-3.5-3.6-7.9-1.8-11.8-1.5c-9.7,0.9-19.5,1.5-29.2,2.9
			c-2.4,0.3-4.7,0.2-4.7,4.2c0,3.4-2.8,2.1-4.8,1.3c-0.5-0.4-0.9-0.9-1.2-1.5c-0.9-2.5-2.3-4.6-5.4-3.5c-3.2,1.2-1.4,3.8-1.2,5.9
			c-0.1,10.9-4.8,20.2-10.2,29.3c-5.7,9.5-13.5,17.3-19.8,26.3c-3.6,5.2-6.9,10.6-10.8,15.5c-2.2,2.8-4.8,5.1-7.9,6.7
			c-1.6,0.9-3.3,1.8-5,0.2c8.7-12.6,17.3-25.1,26-37.7c6.1-8.9,12.8-17.3,15.8-28c2.1-7.4-0.2-15.9-6.4-20.4
			C218.8,76,216.3,74,213.8,72.1z"/>
		<path class="st10" d="M194,36c-3.3,2.5-6.7,0.6-9.8-0.2c-2.3-0.6-4.2-0.7-5.8,1.1c-2.6,2.9-6.6,1.3-9.4,3.2
			c-2.9,0.3-4.4,4.2-7.9,3c-0.1-3.7-2.9-2.9-5-2.9c-35.4,0-70.7,0-106.1,0c-3.3,0-6.7,0.2-10-0.1c-3.6-0.3-5.7,0.6-5.2,4.7
			c0.1,0.7-0.4,1.6-0.6,2.3c-2-2-1.4-4.5-1.4-7c0-0.6,0.1-1.2,0.3-1.8c1.3-3.2,4.1-2,6.4-2.4c2.8-0.5,5.6-0.5,8.4-0.1
			c0.6,0.1,1.2,0.3,1.8,0.6c1.8,1.3,3.8,1.1,5.8,1.1c27.1,0,54.2,0,81.3,0c1.7,0,3.3,0.1,4.9-0.6c2.5-1.5,5.3-1.2,8.1-1.2
			c0.2,0,0.7,0.6,0.6-0.2c0-0.1-0.6-0.3-0.9-0.4c-1.4-0.7-2.9-0.7-4.4-0.7c-29.4,0-58.9,0-88.3,0c-1.2,0-2.3,0.1-3.5,0.4
			c-0.6,0.1-1.2,0.1-1.8,0.1c-4.2-0.9-8.2,0.4-12.3,0.9c-5.2,0.7-6.4-0.7-5.8-6.1c0.5-0.7,1-1.3,2-1.3C51,28.6,66.7,28,82.3,28.7
			c21.9,0,43.7,0,65.6,0c2,0,4.6,0.7,4.3-2.8c2.5-3.6,6-2.3,9.3-1.8c3.9,6.3,11,4.5,16.6,6.5c1.3,0.5,1.5-0.9,1.9-1.8
			c0.4-1.1,0.7-2.3,2.3-2.2c1.2,0.1,1.6,1.1,1.8,2.1c0.5,3.1,2.7,3.8,5.4,3.9C191.5,33,194.1,32.8,194,36z"/>
		<path class="st11" d="M427,75c2.1-4.3,6.8-4.5,10.3-6.3c6.1-3.2,12.4-5.9,19.8-5.8c13.8,0.3,27.6-0.2,41.3,0.2
			c12,0.3,23.8-1.5,35.7-1.1c5,0.2,9.9-0.2,14.8,1.1c-0.4,2.3-0.7,4.6-1.1,7c-2.4,2.1-5.3,1.6-8.1,1.6c-26.9,0-53.8,0-80.7,0.1
			c-3.7,0-7.7-1-10.2,3.3c-0.6,1.1-2.5,0.4-3.8,0.5C439,75.2,433,76.1,427,75z"/>
		<path class="st12" d="M34.1,39.1c0,0.3,0,0.7,0,1c-0.4,0.3-0.8,0.6-1.2,0.8c-4.1,0.9-8.3,0.6-12.4,0.3c-4.4-0.3-5.6,2.6-7.3,5.5
			c-0.5,0.8-0.6,1.7,0.2,2.2c4.9,2.6,5.5,7.5,6.6,12.1c-3.5,16.5-7.2,32.9-12,49.1c-1.4,4.8-3.1,5.1-6,1.9
			c-1.7-7.7,0.4-15.2,1.3-22.6c1.3-10,2.5-20.1,2.6-30.1C6,48,6.7,36.8,7.1,25.5c0.7-2.2,1.7-4.2,4.4-3.7c2.4,0.4,2.5,2.7,2.8,4.7
			c0.9,7.3,6.5,10.5,13.1,7.5c4.6-2,5.1-1.8,5.8,3.3C33.4,38,33.7,38.6,34.1,39.1z"/>
		<path class="st13" d="M185.9,163.9c6.2-0.6,10-4.7,13.2-9.5c8.7-13.3,19.1-25.3,28.2-38.3c6.3-9,10.2-19.1,11.7-30.1
			c1.9-0.8,3.5-0.2,5.1,0.7c2,3.5,5.3,6,4.6,11.3c-0.4,3.3,3.7,6.9,4.3,11.1c0.2,1.2,1.9,0.8,3.1,0.9c5.6,0.5,6.4,2.3,3.5,7.3
			c-1.4,0.9-2.7,2.4-4.7,1.7c-0.1-0.5-0.1-1.3-0.3-1.4c-8-2.4-8.8-10.7-12.9-16.1c-1.4,0.4-1.8,1.3-2.1,2.2
			c-7.7,20.8-23.4,36.5-34.8,55c-2.8,4.5-5.2,9.2-9.9,12.2c-3.4-0.3-6.2-2.2-9.2-3.6C183.2,166.2,184.5,165,185.9,163.9z"/>
		<path class="st14" d="M336,90c0.1,1.4-0.5,3,1.1,4.4c2.6-3.5,1-7.9,2.8-11.4c2.8,0,4,1.1,3,4c-0.2,7.9-0.2,7.9,7.5,11.3
			c1.9,0.9,3.6,1.9,2.6,4.5c-4,1-6.9-1.9-10.3-3.2c-0.1,0-0.3,0.2-0.3,0.3c-0.1,0.1,0,0.3,0,0.5c-0.1,0.7-0.2,1.5-0.7,1.8
			c-4.4,2.7-5.8,6.1-3,10.7c1.3,2.1-0.9,2.8-1.6,4.1c-2.1,2.6-4.1,5.3-6.2,7.9c-15,0-30,0-45,0c-1.8,0-3.7,0.2-5.4-0.4
			c-1.1-4.1-0.5-4.7,3.4-5.2c9.9-1.2,19.9-0.7,29.8-0.8c1.2,0,2.3,0.1,3.4-0.5c4.2-3.5,6.4-7.8,5.6-13.5c-0.6-4.6,0.8-9.2,0.8-13.9
			c1.8-2.7,3.7-5.4,7.4-6C336.1,83.9,336.8,84.6,336,90z"/>
		<path class="st15" d="M445,75c1.1-0.2,3.2,0.3,3.1-0.6c-0.4-6.4,4.3-4.3,7.2-4.3C486.2,70,517,70,547.9,70
			c1.2,4.9-0.3,6.4-5.6,6.3c-32.4-0.4-64.9-0.3-97.3-0.4c-0.3-0.2-0.4-0.4-0.3-0.6S444.8,75,445,75z"/>
		<path class="st16" d="M397,79c0.4,0,0.8,0,1.1,0c1.1,5.9,2.5,11.8,3.3,17.7c0.4,3,1.4,5.4,3.6,7.3c-5.9,2.5-12.1,4-18.5,5.2
			c-8.2,1.6-16.4,3.3-24.1,6.8c-0.3,1,0.9,1.8,0.4,2.8c-1.6,0.2-3.1,1.2-5.1,0.7c1-4,0.2-6.7-4.8-5.5c1.2-0.5,0.1-5.1,3.7-1.9
			c1.2,1,1.3-1.7,1.2-2.7c-0.6-5.6-1.3-11.1-2.2-16.7c-0.7-4.5-1.7-9-2.5-13.6c-0.7-4.3,0.9-6.2,5.2-6.2c10.5,0,20.9,0,31.4-0.1
			c2.7,0,5,0.3,6.1,3.1c-1.5,2-0.3,4.1-0.1,6.1c0.2,2.1,0.9,4.2-0.9,6c-0.5,0.2-1,0.2-1.4-0.1s-0.7-0.7-0.9-1.1
			c-0.3-2.2-0.6-4.5-1.3-6.6c-0.5-1.7-1.3-3-3.3-2.9c-7.1-0.3-14.2,0.6-21.2-1.1c0.8,0.5,1.6,0.2,2.5,0.3c1,0.1,2.1,0.1,2.1,1.5
			c0,1.2-1,1.6-1.9,2c-1.1,0.4-2.3,0.4-3.4,0.6c-2.1,0.4-2.8,1.5-2,3.5c0.4,2.2,0.4,4.6,1,6.8c0.3,1.6,0.4,3.2-0.1,4.8
			c-0.4,1.1-0.9,2-2,2.5c-0.6,0-1.1-0.2-1.4-0.7c-1.6-5.4-1.4-11.2-2.7-16.7c-0.2-0.8-0.5-1.5-2-2.5c1.1,10.3,3,19.6,4.8,29
			c1.2,2.2,2.9,1,4.4,0.6c10.5-2.3,20.7-5.6,31.2-8c2.1-0.7,1.6-2.4,1.6-3.9c-0.9-4.2-1.5-8.4-2.2-12.6C396,81.9,395.6,80.3,397,79z
			"/>
		<path class="st17" d="M575.8,27.1c0.5,1.3-0.3,2.1-1.1,2.9c-0.8,1.4,0.3,3.3-1.1,4.6c-4.2,1.6-8.6,0.5-12.8,0.8
			c-2.3,0.2-4.6,0.1-4.5,3.3c0.1,2.8-1,6.2,3.3,7.2c2.8,0.7,5.5,0.7,8.4,0.1c3-0.7,6-1,7.8,2.5c0.8,2.7,0.9,5.4-0.8,7.9
			c0.1,0.3,0.1,0.5-0.2,0.7c-4.3-2.1-8.9-2.5-13.6-3c-7.2-0.7-9.2-4-9.9-13.9c-1.2-3.4,2.4-6.9-0.2-10.2c-4.5-0.7-9-1.5-9.1-7.5
			c1.2-2.7,2.2-5.7,5.2-1.3c1,1.5,1.8,1,2.6-0.2c0.8-1.2,0.9-3.5,3.4-2.7c1.6,3.4,4.5,3.7,7.8,3.7c4.6,0,9.4-1.2,13.9,0.9
			C575.9,24,574.9,25.7,575.8,27.1z"/>
		<path class="st18" d="M274.9,122.1c-5-3.8-11-2.6-13.7,2.9c-7.6,15-15.1,30.1-22.8,45c-1.3,2.6-2.1,5.1-1.3,7.9
			c0.8,1.9,0.2,2.6-1.7,2c-3.1-1-4.7-4.6-3.6-8.2c3.5-11.3,8.3-22,14.9-31.8c3.6-5.4,6.3-11.3,8.8-17.2c1-2.3,2.2-4.4,4.3-5.9
			c0.4-0.3,0.9-0.6,1.3-0.9c2.8-1.4,5.8-1.4,8.8-1c2.3,0.6,4.3,1.7,5.6,3.7C276.5,119.9,277.5,121.4,274.9,122.1z"/>
		<path class="st19" d="M260,117c-5.1,9.4-9,19.5-15.1,28.4c-5.7,8.3-8.6,17.8-12.1,27.1c-1.5,4,1.3,5.1,3.8,6.7
			c0.2-0.4,0.4-0.9,0.6-1.3c1,1.8,1.8,3.5,0.3,5.4c-1.7,2.1-3.3,0.4-4.8-0.1c-7.8-2.5-15.6-5-23.5-7.6c1.9-3.1,5.3-2.2,7.8-2.1
			c3.1,0.2,6.1,0.2,9.2,0.3c2.9-4.8,4.3-10.5,8-14.9c1.6-1.3,1.1-3.9,3-5c1.9-7.4,6.3-13.2,11-19c2.3-5.3,4.7-10.7,7-16
			c1.4-0.5,2.3-2.1,4-2C259.4,116.6,259.7,116.6,260,117z"/>
		<path class="st20" d="M575,56.4c0-2.7-0.1-5.5-0.1-8.2c-0.2-2.6,1-3.6,3.5-3.5c11.8,0.2,23.5,0,35.3,0.5c0,2.9,0,5.8,0.1,8.7
			C600.7,52.8,588,56.5,575,56.4z"/>
		<path class="st20" d="M551.7,38.9c1.4,0.8,1.2,2.2,1.3,3.5c0.4,7.9,3.1,10.6,11.2,10.5c4.3-0.1,8.2-0.1,10.8,4.1
			c0,1.1-0.8,1.3-1.7,1.2c-6.8-0.2-13.5,0.5-20.3-0.4c0.2-2.9,0.4-5.7-3-6.9c-2.1-2.5-0.6-6-2.5-8.5c-1.7-1.5-3.8-1-5.8-1
			c-11.1,0-22.3,0-33.4,0c-2.1,0-4.4,0.4-6.2-1.2c0.8-3.6,3.8-2.5,5.9-2.5c13.6-0.3,27.1,0,40.7-0.2C549.9,37.4,551,37.5,551.7,38.9
			z"/>
		<path class="st21" d="M161.1,43c1.7,0,2.7-1.1,3.7-2.2c1.3-1.5,2.6-2,4.2-0.7c0.9,0.7,1.9,1.3,2.7,2.2c1.8,2,2.7,2.8,5.1,0
			c4.9-5.7,14.1-2,16,6.3c0.5,2.2,1.3,4,2.8,5.9c-3.7,1.4-4.5-1-5-3.7c-6.2,6.8-10.4,6.6-15.8-0.4c-1.3-1.7-2.6-3.4-4.1-5
			c-1.2-1.2-2.3-3.2-4.4-1.1c-2.1,2-0.5,3.2,0.8,4.5c1.9,1.8,3.8,3.5,5.4,5.6c-4.5-1.4-6.7-6.5-11.6-7.3
			C160.2,45.7,161.7,44.4,161.1,43z"/>
		<path class="st5" d="M33.1,40.1c0.3,0,0.7,0,1,0c0,2.4,0,4.7,0,7.1c-2.2,2.8-5.6,3.6-8.6,5.1c-2.2,1.1-3.6,2.6-4.4,4.8
			c-0.3,0.2-0.7,0.5-0.9,0.4c-2.8-1.6-6.2-11.4-4.8-14c1.2-2.3,3.5-2.7,5.9-2.9C25.3,40.3,29.3,41.2,33.1,40.1z"/>
		<path class="st22" d="M8.2,24.1c0.2,14.9-1,29.8-1.3,44.7c-0.2,10.6-2.5,21.3-4.2,31.9c-0.6,3.8-0.3,7.6-0.6,11.4
			c-0.3-0.4-0.6-0.7-0.9-1.1c0-3.7-0.1-7.3-0.1-11C4.2,78.7,5,57.2,5.7,35.7C5.8,31.1,4.8,26,8,21.9C8.8,22.5,8.7,23.3,8.2,24.1z"/>
		<path class="st23" d="M398.1,114.7c-2.4,1-6.4-0.1-5.7,5.9c-2.4-4-5.1-4.4-7.9-2.6c-4,2.5-9.9,0.1-12.9,5.1c0,0.1-1.6-0.8-2.5-1.2
			c-0.5-1.7-0.2-4.1-3.1-3.9c-0.6-1.6-0.6-1.6,0-1.9c2.5-1.2,5.4-1.3,8-2.2c9.6-2,19.1-4.3,28.6-6.5c1.8-0.4,3.6-0.8,5.2,0.5
			c0.7,0.9,1,1.7-0.6,2.1c-2.3,0.4-4.5,1.1-6.8,1.4C398.3,111.7,397.7,112.8,398.1,114.7z"/>
		<path class="st24" d="M407.8,108c-10,2.2-20,4.3-29.9,6.5c-1.3,0.3-2.6,0.4-3.9,0.5c-3-0.9-5.6,0.5-8.4,1.2
			c-1.5,0.4-3,1.3-4.6,0.8c-1.6-2.5,0.4-2.6,2-3c9.7-2.7,19.3-5.7,29.2-7.1c4.4-0.6,8.3-3.5,12.9-2.9
			C406.4,105.1,407.5,106.3,407.8,108z"/>
		<path class="st20" d="M337.2,117.1c0.4-2.1,0.5-3.9-0.8-6.2c-1.6-3-0.6-6.6,2.9-8.4c1.2-0.6,2.2-1.1,2.6-2.4
			c2.1-0.7,3.7,0.5,5.2,1.6c1.8,4.5,2.8,9,0,13.5C343.9,116.4,340.5,116.8,337.2,117.1z"/>
		<path class="st25" d="M274.9,122.1c1.6-4.6-3-4.3-4.8-6.1c-1.6-3.4,0.3-6.2,4.7-6.8c4.2,7.7,10.9,9.7,19.2,8.5
			c2.3-0.3,4.6,0,6.9-0.2c5.6,0.5,11.4-1.3,16.9,1.3c0.6,1.9-1,1.1-1.6,1.1c-5.8,0.1-11.6,0.3-17.3-0.1c-5.4-0.4-10.7,1.3-16.1,0.5
			c-2.4-0.3-1.6,2.5-2.7,3.5c-0.4,0.8-1.2,1-2,1.1C277,124,275.9,123,274.9,122.1z"/>
		<path class="st26" d="M278,125c0.4-0.8,1.2-1,2-1.1c15.3,0,30.6,0,45.8,0.1c1.7,0,3.7-0.7,5.1,1c-0.5,1.2-1.6,0.9-2.6,0.9
			c-16,0-31.9,0-47.9,0C279.6,125.9,278.6,126.1,278,125z"/>
		<path class="st10" d="M33.1,40.1c-3.2,2-6.8,0.8-10.2,0.9c-6.3,0.3-7.9,2.2-5.6,8c1.1,2.7,0.2,6.5,3.8,8c-0.4,1.3-0.7,2.6-1.1,4
			c-1.9-0.8-1.8-2.6-2.2-4.2c-0.6-2.2-1.5-4.3-3.3-6c-1.2-1.1-5-0.6-3.4-2.9c1.8-2.7,1.7-7.5,6.5-7.7C22.8,40.2,28,40.2,33.1,40.1z"
			/>
		<path class="st27" d="M347.1,115.2c1-4.4,0.1-8.7-0.1-13.1c2.7-0.9,4.6,1.5,7,1.9c1.4,3.3-0.6,5.6-2.4,7.8
			c-2.4,2.9,0.7,1.7,1.5,2.2C351.3,115.5,349.1,115.1,347.1,115.2z"/>
		<path class="st28" d="M417,171.9c-6.6,1.8-4.5-4.8-6.7-7.2c-1.9-2.2,1.7-2,2.8-2.9C415,164.9,416.2,168.3,417,171.9z"/>
		<path class="st8" d="M445,75c0,0.3,0,0.6,0,0.9c-13,0-26,0-39,0c6.9-1.9,14-0.4,21-0.9C433,75,439,75,445,75z"/>
		<path class="st28" d="M412.9,160.9c-6.1-2.7-5.2-9.1-7.1-14c-0.1-0.1,1-0.7,1.5-1.1C409.1,150.9,411,155.9,412.9,160.9z"/>
		<path class="st29" d="M361,117c3.3-1.1,6.6-2.1,9.8-3.5c1.9-0.8,2.6,0,3.2,1.5c-2.4,1.6-5.4,1.2-8,2.2c-0.1,0-0.1,0.3-0.1,0.4
			c0,0.1,0.1,0.3,0.2,0.4c-0.9,0.8-2,1-3.1,0.8C362.3,118.2,361.6,117.6,361,117z"/>
		<path class="st30" d="M417.1,180.3c-0.3-2.8-1.7-5.6-0.1-8.4c0.8,1.7,1.5,3.5,2.4,5.1C420.8,179.7,419,180,417.1,180.3z"/>
		<path class="st31" d="M319,12.2c1.7,0,3.4,0,5.1,0c2,1.2,4,1.3,6-0.1c5.3-0.4,10.7-0.4,16,0.1c0.7,0.7,1.4,1.3,1.6,2.3
			c0.1,2.2-1.2,3.7-2.6,5.1c-1.4,0.8-2.8,1.3-4.4,0.6c-2.2-1.8-4.9-1.7-7.6-1.8c-10.4-0.3-20.8,1.5-31.2,1
			c-3.9-0.2-7.9-1.2-11.8,0.4c-0.8,0.2-1.6,0.2-2.4,0c-7.8-2.4-15.5-1.7-23,1.3c-4-7.1-4-6.6-12.7-6c-11.6,0.8-23.2,0.8-34.8-0.1
			c-0.6-0.2-1-0.6-1.3-1.2c0.1-1.4,0.9-2.3,2.2-2.7c8.5-1.2,17.1-0.5,25.6-0.4c1.4,0,2.6,0.6,3.6,1.4c10.6,0,21.2,0.1,31.8,0.1
			c2,1.5,4,1.1,6,0c1.7,0,3.4,0.1,5,0.1c2,1.4,4,1.1,6-0.1c2,0,4,0,6,0.1c2,1.6,4,1.1,6,0c1.7,0,3.4,0,5.1,0
			C315,13.4,317,13.4,319,12.2z"/>
		<path class="st32" d="M345,18.9c0.7-1.6,1.3-3.2,2-4.8c1.5-1.1,3.6-0.7,5-2c16.4,1.2,32.7-0.6,49.1,0.1c2,1.2,3.9,1.2,5.9,0
			c1.8-0.8,3,0.1,3.9,1.6c0.4,0.4,0.5,0.9,0.3,1.5c-2.9,3.2-7,1.6-10.5,2.4c-0.5,0.1-1,0.1-1.5,0c-0.6-0.1-1.2-0.5-1.8-0.6
			c0.1,5.7-4.5,2.5-6.8,3.6c-0.5,0-1-0.2-1.4-0.3c-2.5-1-5.1-1.3-7.7-1.4c-9.8-0.2-19.6,0.8-29.4,0.4c-1,0-2-0.1-2.9,0.4
			c-0.4,0.3-0.8,0.5-1.2,0.7C346.7,20.5,345.6,20.2,345,18.9z"/>
		<path class="st33" d="M203.2,1.1C215.6,1,228,0.9,240.3,0.8c2.3,1.6,4.8,2.9,6.4,5.3c-2,3.5-5.5,2.1-8.5,2.7
			c-6.7,1.3-13.6,1.2-20.2,0.4c-5.4-0.6-10.3-4.1-15.9-5.1C202.5,3.1,202.8,2.1,203.2,1.1z"/>
		<path class="st34" d="M430,12.1c12,0,24,0,36,0c1.3,1.4,3.4,1.3,4.8,2.6c0.3,0.3,0.4,0.7,0.3,1.2c-0.6-0.3,0.3,0.3-0.3,0.4
			c-0.5,0.1-0.5,0.3-0.3,0.3c6.6-1.6,13.4-0.5,20.1-0.7c1.4,0,3.1,0,3.5,1.9c-0.9,1.5-2.5,1.6-4,1.6c-15.2,0.2-30.5,0.3-45.7-0.2
			c-6.3-1.7-12.8-0.1-19.1-1.1c-0.5-0.1-1-0.4-1.4-0.7c-0.8-2,0.6-2.6,2-3C427.5,14,429.1,13.7,430,12.1z"/>
		<path class="st35" d="M202.2,4.1c3.7-1.2,7.6-0.4,10.3,1.6c3.2,2.4,6.3,2.6,9.8,2.4c5.8-0.5,11.7,1.1,17.6-1.2
			c1.4-0.5,4.5-0.3,6.9-0.7c0.1,2,0.3,4,0.4,5.9c-10.1,0.1-20.2,0.1-30.3,0.2c-1.3,0.7-2.7,1.2-4.3,1.2c-3.2-0.4-6.7,1.1-9.6-1.5
			c-1.3-1.4-0.3-3.9-2.3-5C201.2,6,201.7,5,202.2,4.1z"/>
		<path class="st36" d="M552.9,18.1c-0.5,0.8-1.2,1.6-1.6,2.4c-0.7,1.3-0.1,3.5-2.7,3.5c-2.4,0-2-1.8-2.9-3.1
			c-1.8-2.6-2.1,0.6-3,1.3c-1.3,0.3-2.3-0.5-3.2-1.3c-7.1-1.4-14.2-0.1-21.4-0.6c-2.9-0.2-5.8-0.1-6.7-3.8c-0.2-2.2,0.8-3.8,2.6-5
			c0.6-0.2,1.1-0.2,1.7-0.1c5.1,1.7,10.5,0.9,15.7,1.1c2.3,0.1,4.7-0.2,6.7,1.3c2.6,1.1,5.4,0.9,7.8,3c1.4,1.2,5.5,2.1,6.7-2
			c0.2,0.2,0.4,0.3,0.5,0.5C553.8,16.4,553.7,17.3,552.9,18.1z"/>
		<path class="st37" d="M515,12.2c-0.4,0-0.7,0-1.1,0c-1.5,1.3-3.3,1.3-5.2,1.3c-3.6,0-7.2-0.1-10.7,1.5c-2.1,0.9-4.8,0.9-4.1-2.9
			c2.3,0.2,3.8-0.5,3.9-3c2.3-1.9,5.1-1.3,7.7-1.4c3.8-0.1,7.7-0.1,11.5,0c3,0.1,5.5,0.1,6.3-3.8c0.5-2.4,2.9-2.4,4.9-2.1
			c1.3,0.2,2.3,1.4,3.7,1.3c1.9,1.4,5.2,1.5,4.9,5c-1.5,1.5-1.2,4.7-4.3,4.8c-1.5,0-2.3-0.8-3.1-1.9c-0.3,2.3-2.1,2.2-3.7,2.2
			C522.1,13.1,518.5,13.3,515,12.2z"/>
		<path class="st38" d="M531.9,3c-0.8,1.2-1.5,0.6-2.5,0.1c-4.1-1.8-5.7-1-5.4,3.4c0.2,2.8-1.1,2.5-2.8,2.5c-7.8,0-15.6,0-23.4,0
			c-0.5-4.3,3.1-4.3,5.7-5.4c1-0.4,2.3-0.3,3.4-0.1c6.8,1.1,13.1-1.8,19.7-2.2C528.5,1.2,530.6,1,531.9,3z"/>
		<path class="st39" d="M493.9,12.1c0.2,1.8,1.8,3,3,2.1c5.4-3.9,11.3-1.5,17-2.1c0.2,1.7-1.5,2.5-2,3.9c-0.4,0.4-0.9,0.6-1.5,0.7
			c-10.6,0.7-21.2-0.7-31.9-0.2c-2.6,0.1-5.3,0-7.6-1.4c-0.3,0-0.7,0-1,0c-0.7-1.4,0.2-2.2,1-3c1.3,0,2.7,0,4,0c1.7,1.2,3.3,1.7,5,0
			c1.3,0,2.7,0.1,4,0.1c2,1.2,4,1.3,5.9,0C491.3,12.1,492.6,12.1,493.9,12.1z"/>
		<path class="st40" d="M575.8,27.1c-1.2-1.1-0.7-2.7-1.1-4c-2.9-7.3-1.2-6.9-10.3-6.8c-3.7,0-7.6,1.3-11.2-0.8
			c-0.2-0.2-0.3-0.4-0.4-0.6c0.9-3.6,3.1-5.1,6.9-4.8c3.1,0.3,6.3,0.1,9.5,0.1c4.3,0,6.3,2.6,6.6,6.4
			C576.1,20.1,575.8,23.6,575.8,27.1z"/>
		<path class="st41" d="M613.9,38c-0.1,1.4-0.2,2.7-0.3,4.1c-0.5,0.2-0.9,0.2-1.4,0c-5.8-1-11.7-1.9-17.4,0.6
			c-5,0.5-6.5-1.2-5.3-6.2c0.1-0.2,0.3-0.4,0.4-0.5c4.6,2.7,9.7,1.3,14.6,1.6C607.6,37.8,610.8,37.9,613.9,38z"/>
		<path class="st39" d="M515,12.2c2.8,0,5.6-0.1,8.5-0.1c4.9,0,4.9,0,6.4-5.1c0.4,2.2-0.6,4.8,2.3,4.9c2.7,0.1,2.4-1.7,2.5-3.7
			c0-1.7,1.4-0.1,2.2-0.1c0.5,2,0.9,3.9,1.4,5.9c-6.1,0-12.2,0.1-18.2,0C518.2,13.9,516.4,13.5,515,12.2z"/>
		<path class="st42" d="M430,12.1c1.4,2.6-0.8,3.2-2.4,3.3c-1.2,0.1-2.5-0.1-3.6,0.6c-4.4,0.7-9,3.3-13-1.1c0-0.4-0.1-0.8-0.1-1.3
			c2.5-3.4,6-1.3,9.1-1.7c2,1.4,3.9,1.3,5.9,0.1C427.3,12.2,428.6,12.1,430,12.1z"/>
		<path class="st43" d="M573.7,33.9c0.4-1.3-0.7-3,1-3.9c-0.7,4,0.7,5.6,5,5.4c3.4-0.2,6.9-1,10.2,0.6v0.5c-0.7,0.5-1.4,0.8-2.3,0.8
			c-2.1,0.2-4.2,0.1-6.3,0.1c-2.6-0.2-4.5-0.1-5.7,3.2c-1.1,3.1-3.9,3.2-6.4,0.8c-0.7-1.7-1-3.4-0.7-5.2
			C569.8,34.3,572.5,35.8,573.7,33.9z"/>
		<path class="st44" d="M352,12.1c-1.1,2-2.7,2.9-5,2c-0.9-0.4-1-1.1-1-1.9C348,12.2,350,12.1,352,12.1z"/>
		<path class="st36" d="M470.9,12.1c-0.3,1-0.7,2-1,3c-1.8-0.4-3.7-0.6-4-3C467.6,12.1,469.3,12.1,470.9,12.1z"/>
		<path class="st45" d="M285,12.1c-2,2.4-3.9,3.5-6,0C281,12.2,283,12.1,285,12.1z"/>
		<path class="st46" d="M308,12.2c-2,2.3-4,3.1-6,0C304,12.1,306,12.2,308,12.2z"/>
		<path class="st47" d="M296,12.1c-1.9,2.4-3.9,3.5-6,0.1C292,12.2,294,12.1,296,12.1z"/>
		<path class="st48" d="M319,12.2c-2,2.8-4,2.6-5.9,0C315,12.2,317,12.2,319,12.2z"/>
		<path class="st49" d="M330,12.1c-1.9,2.9-3.9,2.5-6,0.1C326,12.2,328,12.1,330,12.1z"/>
		<path class="st50" d="M489.9,12.2c-2,2.9-3.9,2.6-5.9,0C486,12.2,487.9,12.2,489.9,12.2z"/>
		<path class="st50" d="M425.9,12.2c-2,2.6-4,3-5.9-0.1C421.9,12.1,423.9,12.2,425.9,12.2z"/>
		<path class="st51" d="M479.9,12.1c-1.7,4.1-3.3,2.7-5,0C476.6,12.1,478.3,12.1,479.9,12.1z"/>
		<path class="st52" d="M406.9,12.2c-2,2.7-3.9,2.7-5.9,0C403,12.2,405,12.2,406.9,12.2z"/>
		<path class="st53" d="M194,36c-0.6-1.3-1.7-1.8-3.2-2c-6.8-0.9-6.8-0.9-8.8-6.3c-1.1,0.3-1,1.2-1,2c0.1,3.4,0.1,5.3-4.1,2.3
			c-3.1-2.2-7.5-1.6-11.3-2.5c-3.2-0.8-3.6-2-3.6-4.4c2.1-2,4.7-3.4,7-5.1c3.9-4.3,7.8-8.7,11.8-13c2.8-0.7,5.6-0.2,8.4-0.3
			c2.7,1.1,1.8,3.3,1.2,5c-2,5.1-0.9,10.1,0.2,15.1c0.6,2.7,1.9,4.5,4.5,5.3c0.2,0.9,0.3,1.9,0.7,2.7c0.3,0.6,1.4,1.2,0.5,1.8
			C195.8,36.8,194.8,36.2,194,36z"/>
		<path class="st16" d="M8.2,24.1c-0.1-0.8-0.1-1.5-0.2-2.3c1.1-1.9,2.9-2.6,5-2.8c1.3-0.8,2.4-0.3,2.9,0.9c2.4,5.9,7.6,6.9,13,7.8
			c2.3,0.4,4.2,1,5.2,3.2c-0.3,5.2,2.9,4.5,6.1,3.5c3.7-1.2,7.3-2.1,11-0.4c0.7,2.7-1.9,2.1-3,3c-3.4,0-6.8,0-10.2,0
			c-1.6,0-3.4-0.4-3.8,2c-3.4-0.5-1.1-3.7-2.6-5.3c-0.5,0.1-1.4,0.1-1.7,0.5c-4.6,5.2-9.6,1.5-14.1,0c-2.6-0.9-2.7-4.5-2.7-7.4
			C13.1,21.9,12.3,21.6,8.2,24.1z"/>
		<path class="st54" d="M34,31c-3.3-3-7.8-1.7-11.6-3.4c-3.7-1.6-6.7-3-7.6-7.3c-0.2-1-1.2-1-1.9-1.3c5.8-1.2,11.6-0.3,17.3-0.5
			c3.6-0.1,3.3,3.1,3.5,5c0.3,4.2,2.3,5,6.2,5c14.1,0,28.2,0.3,42.4,0.4c-14.6,0.9-29.2,0.1-43.7,0.4C37,29.3,34.7,28.2,34,31z"/>
		<path class="st55" d="M169,20c-1.7,2.5-3.3,5.2-7,5.1c-3.3,0.3-6.7-0.9-9.8,1c-1.1-4.7,0.2-6.9,5.6-6.2
			C161.5,20.4,165.3,20,169,20z"/>
		<path class="st56" d="M189.9,7.3c-3.1-0.1-6.1-0.2-9.2-0.4c6.4-1.4,12.8-0.5,19.3,0.1c0,2.7,0,5.4,0,8c-1.3,3.2,0.4,6.7-1.5,10.1
			c-1.7-4.5-4.1-8.7-5.2-13.4C192.8,9.6,191.7,8.3,189.9,7.3z"/>
		<path class="st57" d="M569.8,41c2,1.6,4.8,1.3,4.9-0.9c0.1-5.1,3.2-3.8,6-3.8c1.6,2.2-1.3,2.3-1.6,3.5c2.8,1.1,5.5,2.5,7.5-1.2
			c0.2-0.9,0.6-1.8,1.4-2.4c0.6,0.1,1.3,0.1,1.9,0.2c-0.5,3.4,1,5.4,4.1,6.5c6.2-2.7,12.6-1.3,19-0.9c0.2,0,0.5,0,0.7,0
			c0,1,0.1,2,0.1,3c-2.7,2.9-6.5,1.6-9.2,1.2c-8.9-1.2-17.8,0.8-26.5-0.6c-2.4-0.4-1.9,1.7-3.1,2.3c-1.4-0.9-2.6-1.9-4.5-1.1
			c-1.5,0.6-3.2,0.7-4.9,0.9c-7.7,1.2-10.5-1.3-10.8-8.5c-0.1-4.1,1.3-5.7,5.5-5.5c4.5,0.2,9,0,13.5-0.1c-0.7,2.9-3.1,1.9-5,2.2
			c-1.7,1.7-3.8,1.2-5.9,1.1c-2,0-5.1-0.8-4.8,2.1c0.3,2.5,3.2,4.2,5.8,5.4c-0.6-0.5-1.5-0.8-0.9-1.9
			C565.1,41.7,567.3,40.8,569.8,41z"/>
		<path class="st58" d="M202.1,37.1c0.6-5.1-1.8-10-0.8-15.1c3,0.1,2.6,2.9,3.4,4.6c1.3,1.5,3.1,1.1,4.7,1c23.9-0.1,47.7,0,71.6,0
			c1.3,0,2.7,0.2,3.8-0.7c0.9-1.2,2-1.4,3.3-0.9c1.2,0.5,2.1,0.3,2.8-0.8c0.2-0.4,0.4-0.8,0.6-1.1c0.6-1.1,0.4-2.8,2-3.3
			c3.2,0.8,1.8,3.5,2.1,5.4c1.3,2.2,3.5,1.5,5.4,1.4c9.4-0.2,18.8,0.6,28.2-0.6c3.1-0.4,6.1,1.7,9.2,0c0.4-0.5,0.7-1.1,1.1-1.7
			c0.3-0.4,0.7-0.5,1.2-0.6c4.7,2.4,6,2.7,7.2-4.4c0.1-0.2,0.1-0.3,0.2-0.5c3.6-0.3,3.3,2.4,2.9,4.3c-0.8,3.2,0.5,3.6,3.2,3.5
			c10.7-0.1,21.4,0,32.2,0.1c1.6,0.1,3.2,0.6,4.8-0.1c1.8,0,3.6-0.9,5.2,0.6c-0.4,3.2,1.4,6.1,0.8,9.3c-3.1,3.4-6.7,3.2-10.5,1.7
			c-0.5-0.2-1-0.5-1.4-0.8c-1.4-1.2-2.9-2.1-4.9-2.1c-10.1,0-20.3,0-30.4,0.1c-1.2,0-2.4,0-3.1,1.2c-0.5,0.8-1.2,1.4-1.9,2
			c-0.6,0.6-1.2,1.4-2.1,1.8c-0.5,0-1-0.1-1.4-0.4c-0.6-0.5-1.1-1-1.9-1.3C323,39.5,306.3,39,289.7,40c-0.6,0.2-1.2,0.2-1.8,0.3
			c-10.2-1.2-20.5-0.9-30.7,0.1c-5.5,0.5-10.8-1.1-16.4-0.7c-9.9,0.6-19.8-0.2-29.8-0.1C207.8,39.5,204.6,39.5,202.1,37.1z"/>
		<path class="st27" d="M286,55.1c0.5-1.1,4.1-0.2,2-3c-0.3-0.2-0.4-0.4-0.4-0.7c0-0.3,0.1-0.4,0.1-0.4c0.4-0.5,0.9-0.9,1.4-1.4
			c1-0.7,0.7-2.9,2.8-2.5c1.9,1.9,1.3,4.3,1.1,6.6c-0.3,2.6,0.8,3.6,3.1,2.6c3.8-1.6,7.7-1.6,11.7-0.8c1,0.2,2,0.2,2.9-0.2
			c10.4-4.1,21.6-0.8,32.3-3.3c0.6-0.1,1.3,0.3,1.9,0.6c1.7,1.4,3.8,1,5.8,1c8.7,0.1,17.3,0.1,26,0c6.4,0,6.5-0.2,6.9-6.8
			c0.1-1.3,0.1-2.7,0.6-3.9c3-2.7,3.8-0.1,3.9,2c0.5,7.3,4.6,12.8,9,18.1c2.1,4.1-0.9,4-3.5,4c-10.5,0.1-20.9,0-31.4,0
			s-20.9-0.2-31.4,0.1c-6.3,0.1-12.5-1.7-18.8-1c-7.6-0.9-15.2,0-22.8,0.2c-3.2,0.1-6.3-0.4-9.4-0.3c-1.2,0.1-2.4-0.1-3-1.3
			c-0.7-1.4,0.2-2.6,1-3.6c1.4-1.7,3.2-2.9,4.9-4.3C283.5,55.7,285,55.8,286,55.1z"/>
		<path class="st59" d="M273.9,108.9c-0.7,2.7-5.1,3.4-3.9,7.1c-3.1-0.1-6.1,0-9,1c-0.4-0.9-0.1-1.6,0.5-2.3
			c2.7-3.2,2.2-5.6-1.8-7.2c-3.4-1.4-4.2-4.8-6-7.5c-2.3-3.3-3.4-7.5-7.2-9.8c-1.3-0.8-1.5-2.5-1.3-4c0.3-1,0.8-1.8,1.9-2.2
			c1.5-0.2,3,1.8,4.2,0.5c1.4-1.4-0.8-2.1-1.3-3.2c-0.8-1.8,0.5-2,1.6-2.2c4.4-0.7,8.8-1.6,13.2-2c9.7-1,19.4-1.8,29-2.9
			c3.1-0.3,4.3,0.9,4.2,3.8c0,1.1-0.2,2.3,1.1,3c0.6,1,2.5,1.1,2,2.9c-3.4,2.1-7.1,2.4-10.9,2c-5-0.5-9.8,1.1-14.8,1
			c-2.1,0-3.7,1.1-4.1,3c-0.6,3.3-0.7,6.7,2.6,8.9C274.9,102.3,274.9,105.6,273.9,108.9z"/>
		<path class="st60" d="M286,55.1c-0.7,0.7-1.4,1.3-2,2c-5.6,3.9-11.8,4.7-18.5,4.5c-6.6-0.2-13.3,0-19.9-0.1c-2.7,0-5.3,0-6.9,2.9
			c-0.8,1.5-2.4,1.6-3.9,1.6c-3.2,0-6.3-0.3-9.4,0c-6,0.5-11.5-0.1-15.5-5.3c-2-1.9-4-3.4-6.2-0.1c-1,0.3-1.9,0.2-2.7-0.5
			c-0.9-4.8,1-6.3,5.9-6.1c13.4,0.3,26.9-0.5,40.3,0.3C260.2,55,273.1,54.2,286,55.1z"/>
		<path class="st61" d="M201.1,60.1c1,0,2,0,3,0c1.6-0.6,3.2-1.5,5-1c2.2,1.1,5.2,1,5.9,4.4c0.3,1.8,2.3,1.6,3.8,1.6
			c4.4,0,8.9,0,13.3,0c2.8,0,6.1,1,6.4-3.8c0.1-1.8,2.5-1.2,3.8-1.2c6.5-0.1,12.9-0.3,19.4,0c7.7,0.4,15.1-0.6,22.4-3.1
			c-1.8,1.7-3.7,3.3-5.4,5c-1.6,1.6-1.9,2.6,1,3c6.9,1,13.8-0.3,20.7-0.3c3.9,0,8.1-2.3,11.7,1.2c-1.6,1.7-3.8,1-5.7,1
			c-32.8,0-65.6,0-98.3,0C201,67,201,67,201.1,60.1z"/>
		<path class="st62" d="M289.9,51c-0.6,0-1.3,0-1.9,0c-3.3,0.7-6.6,0.7-9.9,0c-4.3,1.1-8.7-0.4-13.1,0.1c-10.3,0.8-20.6,0.1-31,0.3
			c-4.8,0-9.6-0.1-14.5,0c-3.1,0.1-4-1.4-4-4.3c0-2.8-0.1-5.4,3.8-5.6c3.2-0.1,6.3-0.1,9.5-0.1c15,0,29.9,0.1,44.9-0.1
			c4.2,0,8.3,0.7,12.4,1.1C290.1,43.1,291,45.3,289.9,51z"/>
		<path class="st63" d="M394,88c1.7-2,0.8-4.2,0.4-6.4c-0.4-2-1.8-4.5,1.5-5.6c0.4,1,0.7,1.9,1.1,2.9c1,6,1.9,12,2.9,18.1
			c-1.1,1.1-2.5,2-1.9,3.9c-11.7,3.1-23.5,6.1-35.2,9.3c-2.1,0.6-2.7-0.4-2.8-2.2c0.6-0.6,1.5-1.3,1.1-2c-2.4-5.1,0.6-5.3,4.4-4.9
			C375.7,98.3,385,93.4,394,88z"/>
		<path class="st64" d="M445.9,48.1c-8.6-0.2-17,3.6-25.7,2c-3.5-0.7-6.4,1.3-9.6,2.1c-8.3,2-9.3,1.3-9.6-6.9
			c-0.1-1.2,0.1-2.4-1-3.2c0-0.3,0-0.6,0-1c2.7-1.5,5.5-0.3,8.3-0.3c11.8,0,23.5-0.3,35.3,0c0.5,0.1,1.1,0.2,1.6,0.4
			c2.1,1.4,1.5,3.6,1.6,5.6C446.6,47.3,446.3,47.7,445.9,48.1z"/>
		<path class="st65" d="M211,16c0-0.3,0-0.6-0.1-0.8c0.9-1.3,2.4-1.3,3.7-1.6c0.5,0,0.9,0,1.3,0.2l0.3,0.3
			c12.4,0.8,24.9,0.6,37.3,0.1c1.3,0,2.6-0.2,4-0.2c5.8,0,7.8,3.5,5.3,9.2c-14,0.5-28.1,0.1-42.1,0.2c-2.9,0-5.2-1-6.2-3.9
			c-0.3-0.4-0.7-0.8-1-1.1C212.7,17.5,211.6,17.1,211,16z"/>
		<path class="st66" d="M202.1,37.1c9.6,2.2,19.5,1.6,29.1,1.5c14-0.2,28.1,1.1,42.2-0.4c4.9-0.5,9.9-0.3,14.8,0.9
			c0.6,1.1,4.5-0.7,2.3,2.7c-0.6,0.3-1.1,0.5-1.8,0.6c-25.1-1-50.2,0.5-75.3-0.9c-4.1-0.2-8.2,0.9-12.2-0.5
			C201.1,39.6,200.6,38.1,202.1,37.1z"/>
		<path class="st67" d="M301,84c-0.6-1-2.2-1.3-2-2.9c4.9-0.3,8.2-2.7,10.5-7.1c3.5-6.9,9.5-7.2,14.4-0.9c1.4,8.1,1.2,8.6-4,9.9
			C313.8,84.9,307.3,83.6,301,84z"/>
		<path class="st68" d="M189.9,7.3c2.9-0.2,6.2-1,4.3,4c-0.3,0.7,0.3,2,0.8,2.8c2,3,4,6,3.1,10.1c1.8-3-0.3-6.4,1.8-9.1
			c0,3.1-0.2,6.3,0.1,9.4c0.4,4.1-0.4,7-5.1,7.6c-3,1.6-4.1,0.8-5.2-2.5C187.3,22,187.4,14.7,189.9,7.3z"/>
		<path class="st69" d="M201.1,41c29.6,0,59.3,0.1,88.9,0.1c1.6,1.7,2.7,3.6,1.1,5.9c-0.2,1.4,0.5,3-1.1,4c0.2-4.3-0.6-6.8-6.1-7.2
			c-21.4-1.6-42.8-0.2-64.2-0.8c-2.4-0.1-3.7,0.6-3.7,3.3c0,2.6,0.4,4.6,3.7,4.6c4.8,0,9.6,0.1,14.5,0.1c0.3,0.2,0.4,0.4,0.3,0.6
			c-0.1,0.2-0.2,0.3-0.3,0.3c-5.1,0-10.2,0-15.3,0c-2.3,0-3.7-0.5-3.8-3.2c-0.1-2.2,1.3-5.5-1.1-6.3c-3.1-1-6.7-1.6-9.9,0.7
			c-0.9,0.7-1.8,0.7-2.7,0C201.2,42.5,201.1,41.7,201.1,41z"/>
		<path class="st70" d="M294.1,90c-1.3,4.4-2.6,8.7-3.1,13.3c-0.4,3.5,0.2,6.9,1.2,10.3c-4.5-0.9-8.9-6.7-10.1-13
			c-0.5-2.8-1-5.5-1.3-8.3c-0.3-2.5-1.7-3-3.8-2.5c3-2.4,5.7,0.9,8.8,0.2C288.5,89.6,291.3,90,294.1,90z"/>
		<path class="st71" d="M397.1,63c-0.5,0.7-1.2,0.6-1.6,0c-4.1-5.1-8.5-9.9-8.5-17c0-1.5,0.6-3.5-1.9-3.8c-0.3-0.3-0.5-0.6-0.5-1
			c0.1-0.8,0.4-1.5,0.7-2.3c0.2-0.4,0.5-0.6,0.9-0.8c0.4,0.1,0.7,0.1,1.1,0.2c0.8,2.2,2.8,1.9,4.5,1.8c3-0.1,4.9,1.1,5.4,4.2
			c1.1,4.9-1.3,9.9,0.7,14.7C397.4,60.2,396.7,61.5,397.1,63z"/>
		<path class="st72" d="M324.2,91c-0.4-0.6-0.8-1.3-1.3-1.9c5.1-3.3,7.9-8.8,12.3-12.8c4.7-4.3,9.7-4.2,14.6,1
			c-2.3,1-3.7-0.8-5.4-1.3c-3.5-1-5.3-0.2-6.6,3.6c-1.2,3.5,0.4,7.3-1.7,10.5c-0.5-1.4,1-4.1-1.1-4.1c-2.4,0-5.4-0.9-7.6,1.3
			C326.2,88.4,325.2,89.7,324.2,91z"/>
		<path class="st73" d="M445,42c-12.2,0-24.5,0-36.7,0.1c-2.8,0-5.6-0.2-8.3-1c-0.3,0-0.7-0.1-1-0.1c-0.2-0.7,0-1.2,0.6-1.6
			c1.4-0.7,2.8-0.8,4.3-0.8c12.4,0,24.7-0.3,37.1,0.3C442.6,39.5,444.7,39.6,445,42z"/>
		<path class="st19" d="M320,83c4.5-2.1,4-6.1,4-9.9c1.6,0.9,0.6,2.8,1.4,4c2.7-2.8,5-6.2,10.4-4.6c-3.7,4-7.1,7.9-10.8,11.5
			C323.2,85.6,321.1,86.1,320,83z"/>
		<path class="st74" d="M343,87c-0.1-2-1.4-3.1-3-4c2.2-3.9,5.3-4,9.3-0.2c3.6,3.4,4.4,9.9,1.5,12.7C350.8,86.4,349.4,84.9,343,87z"
			/>
		<path class="st75" d="M178.3,61.1c2.9-1,3.3,0.1,4,0.7c2.9,2.4,4.6,0.9,5.4-2c0.3-1.1-0.2-2.5,1.4-2.4c0.7,0,1.4,0.7,2,1.3
			c1.1,1,0.6,2-0.3,3c-0.9,1-2,1.9-2.6,3c-1.3,2.5-2.6,2.5-4.5,0.6C182.3,63.9,180.5,62.8,178.3,61.1z"/>
		<path class="st14" d="M273.9,108.9c0-3.3,0-6.6,0-9.9c0.3-0.3,0.6-0.6,0.9-1c-0.4,6.6-0.3,13,5.3,18c1.7,1.5,3.2,2.4,5.5,2.4
			c4.9,0.1,9.8-0.6,14.7,0.4c-3.8,0.1-7.6-0.3-11.3,0.3C280.7,120.4,276.9,115.3,273.9,108.9z"/>
		<path class="st11" d="M433,65c-2.3-0.1-3.4-1.8-4.5-3.3c-0.5-0.7-0.5-1.6,0-2.3c1.2-1.5,1.2,0.2,1.9,0.7c1.7,1.2,2.3-0.7,3-1.4
			c1.6-1.6,2.6-1.7,3.7,0.4C436.7,61.8,432.7,62,433,65z"/>
		<path class="st76" d="M398.9,40.2c0,0.3,0,0.5,0,0.8c-0.8,0.5-0.9,1.3-0.8,2.1c0.5,3.6,0.6,7.3-0.1,10.9c-0.1,1.6-0.2,3.3-0.3,4.9
			c-2.3-0.2-1.8-2-1.8-3.4c0-3.8,0-7.6,0-11.5c1.3-1.5-1.2-4.1,1.5-5.2C398.3,38.8,398.8,39.4,398.9,40.2z"/>
		<path class="st60" d="M234,52c0-0.3,0-0.6,0-0.9c10.3,0,20.6,0.1,30.9,0.1c-3.8,1.8-7.8,0.7-11.6,0.8C246.9,52.2,240.5,52,234,52z
			"/>
		<path class="st31" d="M215,14.2c-1.1,1.4-2.8,0.7-4.2,1c-2.5,0-4.9,0.2-7.4-0.1c-3.6-0.4-2.1-1.8-0.5-3.2
			c3.4,0.1,6.8,0.2,10.2,0.4c-1.9,2.7-4.9,0.5-7.3,1.4C209,13.9,212.1,12.7,215,14.2z"/>
		<path class="st77" d="M202.9,27c0.3-2,0.4-3.8-1.6-5c0-1.6-0.1-3.2-0.1-4.8c0.9-0.9,1.9-0.6,3-0.3C207.1,21.6,206.6,25.2,202.9,27
			z"/>
		<path class="st78" d="M354,104c-2.7,0.7-4.6-1.7-7-1.9c-1.7-0.7-3.4-1.4-5-2.1c-0.4-0.5-0.8-1-2.3-2.7c5.3,2.1,9.4,3.8,13.5,5.4
			C353.4,103.2,353.7,103.6,354,104z"/>
		<path class="st79" d="M201.2,43.2c0.9,0,1.8,0,2.7,0c0,2.4,0,4.9,0,8.2C200.8,48.7,202.4,45.5,201.2,43.2z"/>
		<path class="st31" d="M204.1,17.2c-1,0-2,0-2.9-0.1c3-2.3,6.5-0.7,9.8-1.1c1.1,0.1,2.5-0.2,3,1.3c-0.5,0.4-1,0.6-1.5,0.8
			C209.6,18.5,206.7,19,204.1,17.2z"/>
		<path class="st8" d="M398.1,54c0-3.6,0-7.3,0.1-10.9C399.5,46.7,399.5,50.4,398.1,54z"/>
		<path class="st60" d="M278,51.1c3.3,0,6.6,0,9.9,0c0,0.3,0,0.6,0.1,0.9C284.7,51.6,281.2,53,278,51.1z"/>
		<path class="st80" d="M234,158.9c-1.1,5.6-4.7,10-6.6,15.2c0,0.1-0.9-0.2-1.4-0.3c-3-5,1.8-8.3,2.8-12.3
			C229.5,159.3,231,157.1,234,158.9z"/>
		<path class="st81" d="M248,135c-3.7,6.3-7.3,12.7-11,19C237,145.5,239.9,138.7,248,135z"/>
		<path class="st82" d="M445.9,48.1c0-0.4,0-0.7,0-1.1c8.7-1.1,17.5-0.1,26.3-0.5c2.3-0.1,4.6,0.3,7.1-1.1c-1.4-2.2-3.5-1.8-5.3-1.8
			c-7-0.1-13.9,0-20.9-0.1c-2.2,0-4.7,0.4-6.4-1.8c0.9-2.2,2.9-2,4.6-2.1c14.8-0.1,29.5-0.1,44.3,0c1.7,0,3.3,0.3,4.7,1.4
			c1.1,5.5,5.1,5.8,9.7,5.6c6.3-0.3,12.6,0,18.8-0.1c1.9,0,3.9,0.3,5.6-1.3c-1-2.4-3.2-1.5-4.7-2.3c-0.9-0.5-3-0.6-1.2-2.5
			c7.1,0.3,14.2-0.6,21.3,0.5c0,3.3,0,6.6,0,10c-5-1-9.9-1.4-15-1.2c-11.2,0.4-22.5,0.9-33.8-0.3c-6.4-0.7-13-0.7-19.4,0
			c-10.4,1.2-20.9,0.4-31.3,0.5C448.9,49.9,447.1,49.4,445.9,48.1z"/>
		<path class="st5" d="M247,84c-0.3,0.7-0.7,1.3-1,2c-0.6,0.5-0.9,1.6-2,1c-1.7,0-3.5,0-5-1.1c-0.8-2-2.9-3.9-0.7-6.2
			c1.4-1.5,3.2-2.1,5.3-1.4C246.5,79.3,247.4,81.3,247,84z"/>
		<path class="st83" d="M48.1,37.1c1-1,2-2,3-3c0.3,0,0.7,0,1,0c28.4-1,56.8-0.3,85.2-0.4c4.6,0,9.3-0.2,13.7,1.4
			c1.5,0.3,3.2-0.7,5.2,2c-4.9,0-9,0-13.2,0c-1.8,1.4-3.8,1-5.8,1c-27.5,0-54.9,0-82.4,0c-2,0-4,0.4-5.8-1
			C48.8,37.1,48.4,37.1,48.1,37.1z"/>
		<path class="st16" d="M49.1,37.1c31.3,0,62.7,0,94,0c-0.4,2.4-2.3,2-3.9,2c-28.7,0-57.5,0-86.2,0C51.4,39,49.5,39.5,49.1,37.1z"/>
		<path class="st16" d="M151.1,35.1c-27.3-1.9-54.7-0.6-82-1c-4-0.1-7.9-0.3-11.8,0.8c-1.6,0.4-3.7,0.8-5.1-0.8c1.8-1.1,3.8-1,5.8-1
			c29.2,0,58.4,0,87.5,0C147.5,33.1,149.9,32.5,151.1,35.1z"/>
		<path class="st81" d="M244,87.1c0.7-0.3,1.3-0.7,2-1c-0.1,1.6,0.1,3.1,1.6,3.9c4.6,2.6,5.9,7.5,8.2,11.6c1.1,2,2.1,4,4.4,5
			c6,2.6,6.2,4,1.9,8.7c-0.4,0.5-0.8,1.1-1.1,1.6c-0.3,0-0.7,0-1,0s-0.7,0-1,0c0.5-1.6,2.4-3.1,0.9-5c-1.3-1.6-3-1-4.6-0.6
			c-3.1,0.7-4.4-0.6-4.3-3.6c0.1-2.8-0.6-5.2-3-6.9c-0.6-0.4-1.5-1.7-1.4-1.9C250.1,94,244.4,91.1,244,87.1z"/>
		<path class="st20" d="M335.2,103.3c-1.6,3.4-3.5,4.1-6.6,3.4C330.7,105.6,332.6,104.6,335.2,103.3z"/>
		<path class="st84" d="M363,84c-1.9-2.8-1.5-4.4,2.2-4.6c1.8-0.1,3.5-0.5,5.8-0.9c-2.9-2.9-5.9-0.2-8.5-0.8c0-0.5,0-1.1,0-1.6
			c8.9,0,17.7,0,26.6,0c4.2,2.6,2.1,7.4,3.7,10.9l0.4,0.1c0.1,1.8-0.9,2.7-2.4,3.4c-7,3.3-13.9,6.8-21.1,9.6
			c-4.5,1.8-6.1,0.5-5.7-4.1c0-1.7,0-3.3-0.1-5c1.7-0.8,1.9,1.5,3.5,1.6c0.8-2.3-0.2-4.7-0.3-7C367,82.1,365.3,82.1,363,84z"/>
		<path class="st85" d="M364.9,102.2c-1.3,1.8-2.4-0.9-3.7-0.4c-1,2.1,4.5,5.4-1.3,6.2c-1.6-9.2-3.2-18.5-4.7-27.7
			c-0.2-1.1-1.5-3.3,1.1-3.4c2-0.1,4.2,0.3,3.5,3.4c0,6,0.9,11.9,2.2,17.7c0.3,0,0.6,0.1,0.9,0.1
			C363.7,99.4,364.8,100.5,364.9,102.2z"/>
		<path class="st86" d="M364.9,102.2c-1.6-0.9-2.1-2.4-2-4.1c0.1-0.8,0.2-1.6,1-2c0.1,2.2,0.7,4.6,3.3,3.6c9-3.5,18.2-6.5,25.9-12.6
			c0.3,0.3,0.6,0.6,0.9,1c-0.1,1.5-0.9,2.5-2.2,3.1c-7.5,3.5-14.9,7.1-22.5,10.5C368.1,102.2,366.4,102,364.9,102.2z"/>
		<path class="st87" d="M363,84c0.2-2.5,2-3.2,4-3.7c1.4,3.5,1.8,7.1,2,10.8c0.1,1.5,0.8,3.8-1.4,4.2c-1.6,0.3-2.2-1.6-2.7-3.1
			c-0.1-0.4-0.6-0.7-1-1.1C362.2,88.9,363.4,86.4,363,84z"/>
		<path class="st88" d="M362.1,97.9c0,0.2,0,0.3-0.1,0.5c-0.2,0.2-0.4,0.4-0.6,0.6c-0.6-6.2-3.2-12.3-1.5-18.8
			C361,86.1,361.8,91.9,362.1,97.9z"/>
		<path class="st89" d="M392.8,87c-2.8-0.6-1.7-2.9-1.7-4.4c0-2.4-0.4-4.6-2-6.4C392.5,77.8,394,82.3,392.8,87z"/>
		<path class="st90" d="M398,100.9c-0.8-0.7-1.6-1.5-2.4-2.2c1.9,0.7,2.2-2.9,4.3-1.7C399.7,98.5,401,100.8,398,100.9z"/>
		<path class="st72" d="M553.2,15.5c5.7-0.8,11.5-0.6,17.2-0.8c4.9-0.2,4.6,4.7,4.3,8.4c-5.6,0-11.2,0-16.7,0c-3.3,0-5.5-1.1-5.1-5
			C553,17.2,553.1,16.4,553.2,15.5z"/>
		<path class="st91" d="M540.1,21.3c1.2-0.5,1.9,0.4,2.6,1c1,4.4,3.3,6.8,8.2,5.8c0.8-0.2,1.7-0.1,1.9,1c-2.2,1.2-5.4,1.5-5,5.2
			c-3.6-2.4-8.9-2.9-10.1-8.2c0-1.5,0.3-2.8,1.2-4C539.3,21.7,539.7,21.4,540.1,21.3z"/>
		<path class="st92" d="M548.7,36.1c0.4,0.7,0.8,1.4,1.2,2.1c-1.6,1.4-3.5,0.8-5.3,0.8c-12.5,0.1-25,0-37.4,0.1
			c-1.8,0-3.7-0.6-5.3,0.8c-0.5,0.5-1,0.9-1.7,0.9c-18.2-0.5-36.5-0.4-54.7-0.1c-1.1,0-2.3-0.1-3.4-0.5c-14.4,0-28.8,0-43.1,0
			c-0.3-0.4-0.7-0.7-1-1.1c-0.6-0.7-0.6-1.5-0.5-2.3c-0.5-2.4-1.1-4.7-0.4-7.2c0.3-1.2,0.7-2.4,1.6-3.4c2.8-0.7,2,2.5,3.5,3.3
			c0.7,0.2,1.3,0.3,2,0.3c3.6-0.1,7.2,0.4,10.7-0.5c0.8-0.2,1.7-0.2,2.5-0.1c0.9,0.2,1.7,0.5,2,1.5c-0.3,3.9,2.1,4.8,5.3,4.9
			c5.5,0.2,10.9-1.3,16.4-1c21.4,1.3,42.8,1.1,64.2,1c9.4,0,18.8-1.1,28.3-0.8C538.6,34.9,543.7,35.2,548.7,36.1z"/>
		<path class="st93" d="M442.1,40.2c20-0.1,39.9-0.2,59.9-0.3c14.5,0.1,28.9,0.1,43.4,0.2c1.6,0,3.4-0.8,4.6,1
			c-7.3,0-14.7,0.1-22,0.1c-1,1-2.3,1.3-3.7,1.3c-7.8-0.1-15.6,0.9-23.4-0.5c-3.9-1.3-7.9-0.8-11.9-0.9c-12.3,0-24.6-0.1-36.9,0
			c-1.8,0-3.7-0.6-5.2,0.9c-0.2,0.4-0.5,0.5-0.9,0.2c-0.3,0-0.7-0.1-1-0.1C444,41.4,443,40.8,442.1,40.2z"/>
		<path class="st94" d="M178,46.9c-0.5-3.7,1.6-5.5,4.8-5.6c3.7-0.1,6,2.2,6.1,5.9c0.1,3.7-2.9,5.4-5.7,5.7
			C179.7,53.1,178.2,50.2,178,46.9z"/>
		<path class="st95" d="M204.1,17.2c3,0,6,0,9,0c0.4,3.7,0.7,7.3-3.8,9c2.3-1.2,5,1.5,7.2-0.9c0.5-0.3,1-0.4,1.5-0.5
			c13.4-0.4,26.8-0.1,40.2-0.1c3.1,0,5.4-0.8,6.8-3.6c1-2,2.4-3.4,4.8-3.5c6.1-0.1,12.4-2.3,18.2,1.5c-1,2.1-1.6,4.4-3.1,6.2
			c-5.4-1.4-10.7,0.7-13.7,0.4c2.9-0.4,8.2,0.3,13.5,0.1c0.5-0.2,0.8,0,1.1,0.4c0.6,1.8,2.8,3.7-2,3.2c-8-0.8-16.2-0.3-24.4-0.3
			c-17.6,0-35.2,0-52.8-0.1c-1.4,0-3.8,1-3.8-2C206.3,24.1,204.2,20.6,204.1,17.2z"/>
		<path class="st96" d="M294.1,26.1c0-1.8,1.7-3.9-1-5.1c-1.5,0.1-2.6-0.4-3-2c1.1-3.3,4.4-1.8,5.8-1.6c13.4,2,26.6-1.1,39.9-0.3
			c2.2,0.1,5-0.7,5.2,2.9c0.3,1.8,0.5,3.5-0.7,5.1c-0.2,0-0.3-0.1-0.5-0.1c-0.3-0.4-1.5-0.1-2,0.4s-1.1,0.6-1.8,0.8
			C322,27.2,308.1,25.5,294.1,26.1z"/>
		<path class="st46" d="M265.1,21.1c0.1,3.8-1.7,5.2-5.6,5.1c-14.5-0.4-28.9,0.6-43.4-0.5c1.4-2.7,4-2,6.2-2
			c11.3-0.1,22.6,0,33.8-0.1c2,0,4,0.2,5.9-0.5c2.1-5.6,0.7-8-4.7-8c-12.1,0-24.3,0-36.4,0c-1.6,0-3.4,0.6-4.7-0.9
			c8.8,0,17.5,0,26.3-0.1c4.1,0,8.2,0,12.3-0.7C262.1,12,263.2,13.1,265.1,21.1z"/>
		<path class="st97" d="M340.3,25.1c-0.4-1.8-0.6-3.5,0.7-5.1c1.4-0.4,2.7-0.8,4.1-1.2c1,0.5,1.9,1,2.9,1.5c1.3,2.7,1.1,4.9-1.5,6.8
			C343.3,29.4,342.2,26.2,340.3,25.1z"/>
		<path class="st98" d="M290.1,19c1,0.7,2,1.3,3,2c-0.3,1.4,0.5,3.1-1.1,4.1c-0.9-0.7-1.3-2.1-2.8-2.4c0.2,2.1,2.2,1.3,2.8,2.4
			c-1.2,5.1-3.9,2.2-6.2,1.2c-0.2-0.1-0.5-0.2-0.7-0.3c-0.2-0.1-0.4-0.3-0.4-0.5s0.1-0.3,0.1-0.3c-0.4-2.8,0.7-4.8,3.2-6
			C288.7,19.1,289.4,19,290.1,19z"/>
		<path class="st99" d="M215,14.2c-3.3,0-6.5,0-10.9,0c3.5-2.1,6.6-0.1,9-1.9c1.2,0,2.5,0,3.7-0.1c-0.3,0.5-0.7,1.1-1,1.6
			C215.6,13.9,215.3,14,215,14.2z"/>
		<path class="st100" d="M388,29c-13.4,0-26.8,0-40.6,0c1.6-3.3,5.1-6.1,0.7-9.1c0-1.4-0.1-2.5,2.1-2.3c10.6,1.2,21.2-0.5,31.8,0
			c2.5,0.1,6.5-1.5,8.1,2.6c0.8,2.1,0.3,4-0.7,5.9c-4.8,1.5-9.7,0.9-14.6,1.1c3.6-0.1,7.3,0,10.9,0.2C386.7,27.3,388,27.2,388,29z"
			/>
		<path class="st20" d="M388.8,26.1c0.2-2-0.3-4.2,1.2-6c0.3-0.1,0.6-0.1,0.9-0.2c5.7-0.5,7.1,0.8,6.8,6.5c-0.3,0.9-1,1.4-1.9,1.5
			c-1.6,0.6-3.3,1.2-5,0.2C389.3,28.4,388.7,27.6,388.8,26.1z"/>
		<path class="st101" d="M402.9,31c-0.6,0-1.3,0-1.9,0c-0.6-4.6-2.3-9.2-1.1-14c3.5-1.9,7.6-0.1,11-2c4.2,2.3,8.7,0,13,1.1
			c0,0.3,0,0.6,0,0.9c-2.2,2.2-4.9,1.3-7.5,1.4s-5.3,0.2-7.9,0c-3.8-0.3-5.6,1.2-5.2,5.1c0.2,2,0,3.9,0.2,5.9
			C403.5,30,403.3,30.5,402.9,31z"/>
		<path class="st101" d="M396.9,26.9c0.7-4.6-0.9-7.2-5.9-7c1.6-1.8,3.7-0.3,5.6-0.7c0.4-1.8-2.1-2.1-1.7-3.9
			c1.9-0.7,3.2-0.1,4.2,1.6c0.1,3.1,2.1,6.2,0,9.2c0,1.1,0.1,2.2-0.9,3C397.1,28.8,397,27.8,396.9,26.9z"/>
		<path class="st102" d="M399,26.2c0.9-3.1-2.5-6.2,0-9.2c0.3,0,0.6,0,0.9,0c2.1,4.5,0.6,9.3,1.1,14C399,30,400.9,27.3,399,26.2z"/>
		<path class="st103" d="M444,18c15.5,0,30.9,0,46.4,0c1.3,0,2.7,0.1,3.7-0.9c5.6,0.3,11.2-2.3,16.7,0.3c1.4,2.5,3.6,3.4,6.4,3.2
			c2.1-0.1,4.2-0.3,6.2,0.7c0.5,0.3,0.8,0.7,0.8,1.3c-0.5,1.9-1,3.7-2.8,4.8c-6.4,0.5-12.8,1.2-19.2,0.9c-1.8-0.1-3.7,0.2-5.2-1
			c-0.3-2.7,1.9-2.7,3.4-3.1c2.2-0.5,4.5-0.7,6.5-2.4c-19.8-0.2-39.5,0.9-59.2,1.5c-11.6-0.1-23.1-0.3-34.7,0c-2,0-4.1,0.1-5.7-1.3
			c-1.4-1.2-3.4-2.6-0.7-4.6c10.8,0,21.5,0,32.3,0C440.7,17.6,442.4,17.2,444,18z"/>
		<path class="st36" d="M510.9,18.1c-5.5-1.4-11.3,1.1-16.8-0.9c-9,0-17.9,0-27.5,0c1.4-1.7,3.6-0.5,4.3-2.1
			c11.3,0.2,22.6,1.9,33.9,0c2.1-0.3,4.3-0.2,6.2,1C511.5,16.9,511.5,17.5,510.9,18.1z"/>
		<path class="st42" d="M444,18c-12.7,0-25.3,0.1-38,0.1c-3.6,6.4-2.1,9.2,5.1,9.6c2.1,0.1,4.8-0.9,5.9,2.1c-0.7,0.1-1.3,0.2-2,0.3
			c-4,0.6-8,0.8-12-0.1c-2.1-3.6-0.7-7.4-0.8-11.1c-0.1-2.1,2-1.8,3.4-1.9c6.1-0.1,12.3-0.1,18.4-0.1c5.1,0,10.3,0,15.4,0.1
			C440.9,17.1,442.6,16.6,444,18z"/>
		<path class="st104" d="M510.9,18.1c0-0.6,0.1-1.3,0.1-1.9c0.3,0,0.6-0.1,0.9-0.1c1.1,2.3,2.7,3.2,5.4,3.1c7.1-0.2,14.3,0,21.4-0.1
			c2.1,0,2.7,0.5,1.4,2.3l0,0c-5.4,1.7-10.8,2.4-16.4,1c-2.5,0-5-0.2-7.4,0C513,22.6,511.2,21.4,510.9,18.1z"/>
		<path class="st105" d="M612.9,42.1c-6.2,2.1-12.7,0.5-19,0.9c-0.1-1.4,0-2.8,1.8-2.8c5.3,0,10.5,0,15.8,0.1
			C612.5,40.3,612.8,41.2,612.9,42.1z"/>
		<path class="st97" d="M569.8,41c-1.9,2.1-4.4,2.2-7,2.3c-2.7,0.7-3.5-1.2-3.9-3.1c-0.4-2.1,0.4-3.8,2.8-4.2c2.3,0,4.6,0.1,6.9,0.1
			C569.7,37.6,570.2,39.2,569.8,41z"/>
		<path class="st41" d="M577.1,39.2c0.4-2,3.8-0.3,3.7-2.9c2.4,0,4.8,0,7.2,0c0,0.9-0.1,1.9-0.1,2.8
			C584.3,41.2,580.7,41.2,577.1,39.2z"/>
		<path class="st106" d="M561.8,35.9c-2.7,2.9-3.4,5.5,1.1,7.3c1,0.4,2,0.9,3,1.3c-3.5,0.5-8.2-1.7-9.6-4.3
			C554.8,37.5,556.8,36,561.8,35.9z"/>
		<path class="st107" d="M577.1,39.2c3.6,0,7.2-0.1,10.8-0.1c0.4,2.9-1.5,3.6-3.6,2.9C581.8,41.3,577.7,44.5,577.1,39.2z"/>
		<path class="st108" d="M291,47.1c-0.4-2-0.7-3.9-1.1-5.9c0.4-0.1,0.7-0.1,1.1-0.2c1.6-1.6,3.7-1.3,5.6-1.3c13.2,0,26.4,0,39.6,0
			c2,0,4-0.1,5.6,1.4c0.3,0,0.6,0.1,1,0.1c1.3,1,1.4,2.6,1.4,4c0.1,2.1-0.1,4.3,1.9,5.9c0.6,0.5,1.2,1.3,0.5,2.1
			c-0.8,0.9-1.8,0.5-2.7,0c-8,0.8-16,2.5-24.1,1.1c-1.2-0.2-2.6,0.3-3.8,0.8c-4,1.8-8,2.7-12.4,1.2c-2.4-0.8-4.8,0.5-7.1,1.5
			c-1.4,0.6-3,1.9-4.6,0.6c-1.5-1.3-0.7-2.9-0.4-4.6C292.1,51.4,292.8,49.1,291,47.1z"/>
		<path class="st109" d="M344,53.1c0.7-0.2,1.7,0.3,2.1-0.7c-5.4-2.5-2.2-7.5-3.2-11.3c0.3-0.7,0.6-1.4,0.9-2.1
			c1.7,1.3,1.5,3.2,1.5,5c0.1,3.5,2.2,5.3,5.3,5.5c5.1,0.2,10.1,0.9,15.2,1.1c0.7-0.2-0.2-0.8,0.1-0.2c0.1,0.1-0.1,0.3-0.4,0.2
			c-1.6-0.4-3.7,1.1-4.7-1.3c0.2-0.3,0.4-0.7,0.7-0.7c4.7-0.3,7.3-3,8.5-7.3c5-2.4,10-2.6,15.1,0c0,0.3,0,0.6,0,0.9
			c-0.2,12.9-0.2,12.9-12.9,12.9c-7.7,0-15.3,0-23,0C347.2,55.1,345.1,55.4,344,53.1z"/>
		<path class="st110" d="M294.1,26.1c6-1.3,11.8-1.9,18.2-0.9c5.6,0.9,11.8,0.4,17.7,0c2-0.1,4-0.1,5.9-0.1c0.3,3,3.3,0.5,4.3,2.2
			c1.1,2.6-0.9,1.8-2,1.8c-14,0-28-0.1-41.9-0.1C294.2,28.9,292.3,29,294.1,26.1z"/>
		<path class="st111" d="M386.1,38c-0.1,0.5-0.2,0.9-0.2,1.4c-1.1,0.5-2.1,0.1-3.1-0.3c-3.6-1.3-7.4-1.1-10.8-0.4
			c-4.1,0.8-8.2,0.8-12.3,0.8c-4.8,0-9.6-0.3-13.7,2.7c-1.1-1.3-1-2.6,0-4c-1.1-1.4-2-3,0.9-3c11.9-0.1,23.7-0.1,35.6,0
			C384.2,35.2,385.1,36.7,386.1,38z"/>
		<path class="st112" d="M341.9,41c-17,0-33.9,0-50.9,0c-1-0.6-2-1.3-3-1.9c0.3,0,0.6,0,1,0c3.7-1,7.6-0.4,11.3-0.5
			c12.3-0.1,24.5-0.1,36.8,0c1.6,0,3.3-0.4,4.9,0.5C342,39.7,342,40.4,341.9,41z"/>
		<path class="st113" d="M345.9,38.2c0.1,1.3,0.1,2.5,0.2,3.8c1.4,4.7,4.6,6.3,9.4,5.7c1.9-0.2,4-0.3,5.5,1.5
			c1.8,1.5,4.2,0.3,7.4,1.7c-6.7,0-11.9,0.2-17.2,0c-4.6-0.2-7.5-2.4-7.2-7.5c0.1-1.5-0.1-3-0.1-4.5C344.3,38.1,345,38,345.9,38.2z"
			/>
		<path class="st66" d="M342,39.1c-17.7,0-35.3,0-53,0c1-1.2,2.4-1,3.7-1c15.2,0,30.5,0,45.7,0C339.6,38.1,341,37.8,342,39.1z"/>
		<path class="st114" d="M388.8,26.1c0.7,0.7,1.4,1.4,2.1,2c-0.1,3.2-1.9,0.5-2.9,0.9c-3.9-1.9-8.1-0.5-12.1-1
			c-2.1-0.2-4.2,0.6-6.3-1.9c4,0,8.1,0,12.1,0c2,0,4,1.2,5.5-1.6C387.8,23.2,387.7,26,388.8,26.1z"/>
		<path class="st115" d="M397.8,37.1c0,0.7,0,1.3,0,2c-1.7,1.3,0,3.8-1.9,5c-0.3-3.4-2.9-2.9-5.2-2.9c-2,0-4.2,0.3-3.6-2.9
			c3.5,1.6,6.6,0.8,9.7-1.2C397.2,36.6,397.5,36.6,397.8,37.1z"/>
		<path class="st116" d="M397.8,37.1c-0.3,0-0.6,0-0.9,0c-1.7-2.9-2.7-5.8-1.1-9.1c0.3-0.3,0.7-0.7,1-1c1,0.4,1.2,1.3,1.3,2.3
			C398,31.8,397.9,34.5,397.8,37.1z"/>
		<path class="st117" d="M340.3,27.2c-1.4,0.2-2.6,1-4.2,0.4c-2.5-0.9-0.6-1.7-0.1-2.6c2.1,0,1.7-1.9,2.4-3.4c0.5,1.2,1,2.3,1.4,3.3
			C339.9,25.7,340.1,26.5,340.3,27.2z"/>
		<path class="st5" d="M209,59c-1.5,0.9-2.9,2.6-5,1c0-1.5-0.1-3.3,1.8-3.6C207.5,56.2,208.3,57.8,209,59z"/>
		<path class="st118" d="M249.1,50c-8.6,0-17.2,0-25.8,0c8.6-0.2,16.8-2.4,25.1-4.2c8.2-1.8,17-0.6,25.6-0.7
			c-2.3,4.5-7.1,3.8-10.5,3.7C258.6,48.7,253.9,49.8,249.1,50z"/>
		<path class="st119" d="M249.1,50c4.9-0.5,9.1-3.7,14.8-2.1c2.3,0.6,7.2-0.3,10.1-2.8c2-0.1,4-0.5,4,2.7c0,3.1-2.1,2.3-3.7,2.3
			C265.9,50.1,257.5,50,249.1,50z"/>
		<path class="st120" d="M446,42.1c0.3-0.1,0.6-0.2,0.9-0.2c10,0,19.9,0.1,29.9,0.1c2.3,0,5.1-0.5,5.1,3s-2.9,2.9-5.2,3
			c-8.5,0-16.9,0-25.4,0c-1.8,0-3.7,0-5.3-1C445.8,45.4,444.5,43.8,446,42.1z"/>
		<path class="st121" d="M262,23.1c-0.7,3-3.1,1.9-4.9,1.9c-11.9,0.1-23.8,0-35.7,0.1c-1.8,0-3.7-0.5-5.3,0.6
			c-0.2,0.2-0.2,0.3,0,0.5c-4.4-1.8-3.4-4.9-1.9-8c0.5-0.1,0.9-0.2,1.4-0.3c0.1,5.5,4.2,4.2,7.4,4.2c11.3,0,22.6,0,33.9,0.1
			C258.6,22.1,260.6,21.5,262,23.1z"/>
		<path class="st122" d="M214.2,18.1c-0.1,2.8-0.6,5.8,1.9,8c0.1,0.5,0.1,1,0.2,1.4c-3.5-0.7-7.1-0.1-11-0.4c5.7-1.2,7.2-5.3,7.9-10
			c0.3,0,0.6,0,0.8,0.1C213.9,17.6,214,17.9,214.2,18.1z"/>
		<path class="st123" d="M384,38.1c0.6,0.5,1.3,0.9,1.9,1.4c-0.3,0.6-0.6,1.2-0.8,1.8c-5,0.1-10.1-1.1-15.1,0.8
			c-1.2-2.3-1.4-4.3,1.9-4.4C375.9,37.6,380,37,384,38.1z"/>
		<path class="st124" d="M500.8,41.9c9-1.8,18-0.4,27-0.8c1.7,1.5,3.8,0.7,5.7,0.8c1.9,0.2,3.2,0.9,3.2,3s-1.2,3-3.1,3
			c-10.3,0-20.5,0.2-30.8-0.1C498.7,47.7,499.9,44.5,500.8,41.9z"/>
		<path class="st102" d="M521.8,27.1c0-1.7,0.3-3.4,2-4.3c0.4,0.2,0.8,0.4,1.2,0.6c1.2,1.2,4.9-0.1,3.6,3.7c-0.4,1.3,0.9,1,1.6,0.9
			c1.5-0.1,2.9,0.4,4.3,0.6c2.3-0.8,0.6-3.5,2.2-4.7c1.2-0.6,1.6,0.4,2.3,1c0.1,2.3,0.2,4.5,3.6,4.5c2.9,0,3.1,3.5,5.2,4.7
			c0.3,0.6,0.6,1.2,0.9,1.9c-6.3,2.4-12.7-0.4-19.2,0.2c-5.3,0.5-10.8,0.4-16.3,0.5c-18.6,0.4-37.3,0.9-55.8-0.1
			c-11.5-0.6-22.9,0.2-34.3,0.2c-5.8,0-7-2.2-4.2-6.7c1.1-1.5,2.9-1.5,4.5-1.5c8-0.2,16.1,0.5,24.1,0.4c2.3,0.7,4.6,0.5,6.9,0.5
			c18.7,0,37.5,0,56.2,0c2.3,0,4.6-0.2,6.9,0.3c2.1,0.3,2.7,2.6,4.4,3.5c3.7-0.7,7.5-0.2,11.2-0.4c-3.9,0.1-7.8,0-11.6,0
			c-0.8-1.1-0.9-2.4-0.8-3.7C520.9,28.4,521.2,27.7,521.8,27.1z"/>
		<path class="st36" d="M524.1,24.3c-0.1-0.5-0.2-1-0.3-1.5c-0.1-0.2-0.1-0.3-0.1-0.5c5.5-0.7,10.9-1.9,16.4-1
			c-0.4,1.3-0.8,2.5-1.1,3.8c-0.8-0.3-1.6-0.6-2.4-0.9c-0.6,0.7-1.4,1-2.3,1.1C530.8,25.9,527.5,24.2,524.1,24.3z"/>
		<path class="st125" d="M447,30.2c-9.4,0-18.8,0-28.1,0c-0.6-0.1-1.3-0.2-1.9-0.3c-3.3-1.7-6.8-0.5-10.2-0.8
			c-1.9-0.2-4.3,0-3.6-2.6c0.7-2.8-3.2-7.4,2.9-8.3c0.4,3.1,2.5,4,5.3,3.9c6.8-0.1,13.5-0.1,20.3-0.1c5.4,0,10.9,0.1,16.3,0.1
			c1,2.4,2.7,3.5,5.4,3.3c3.3-0.3,6.5,0.3,9.8,0.5c1.5,0.1,3.4-0.4,3.9,1.9c-0.4,0.8-1.2,1.2-2,1.4c-14.9-0.9-29.9-0.6-44.8-0.7
			c11.4,0.1,22.7-0.1,34.1,0.1c0.7,0.2,1,0.7,0.8,1.4C452.5,30.9,449.7,30.7,447,30.2z"/>
		<path class="st102" d="M403,30.1c4,0,8,0.1,12,0.1c-3.9,1.9-8,0.5-12.1,0.9C403,30.7,403,30.4,403,30.1z"/>
		<path class="st126" d="M284.9,25.1c0.1,0.3,0.2,0.6,0.2,0.9c-0.2,0.6-0.2,1.4-1.1,1.4c-6,0-11.9,0-18.8,0c5.1-4.9,11.2-2,15.9-4.1
			C284.1,21.9,283.9,24,284.9,25.1z"/>
		<path class="st127" d="M346.9,23.4c-0.2,1.5-0.9,2.6-2.5,2.5c-1.5-0.1-2.5-1.1-2.3-2.6c0.2-1.4,1.1-2.7,2.5-2.6
			C346,20.8,346.8,22,346.9,23.4z"/>
		<path class="st128" d="M292,25.1c-1.1,0.1-2.3,0.4-3.3,0.2c-1-0.2-1.9-1-1.5-2.1c0.3-0.9,0.9-1.8,1.6-2.3c1.1-0.8,1.8,0.2,2.4,0.9
			C292.1,22.8,292,24,292,25.1L292,25.1z"/>
		<path class="st129" d="M467,27.1c-5.5-0.1-11-0.3-16.6-0.3c-3.8,0-3.1-2.3-2.5-4.7c18.4-0.7,36.9-1.5,55.3-2.2
			c1.6-0.1,3.3,0.1,4.9,0.3c2.3,0.2,1.1,1.9,1.4,3c0.4,2.1-0.9,1.1-2,1.3c-3.6,0.7-7.4,0.3-10.6,2.5c-0.4,0.3-0.7,0.8-1.2,0.9
			c-9.2,1-18.4,0.9-27.5,0C467.7,27.9,467.4,27.4,467,27.1z"/>
		<path class="st130" d="M467,27.1c10,0,19.9-0.1,29.9-0.1c7.1,0,14.2,0.4,21.2-0.6c1.4-0.2,2.6-0.1,3.7,0.7c0,0.7,0.1,1.3,0.1,2
			c-0.9,0.8-2,1-3.2,1c-16.7,0-33.5,0-50.2-0.1c-0.7,0-1.3-0.1-1.9-0.4c-0.7-0.4-0.9-0.9-0.6-1.6C466.3,27.7,466.7,27.4,467,27.1z"
			/>
		<path class="st131" d="M384,38.1c-3.4,0-6.9,0.1-10.3-0.1c-3.3-0.2-4.1,1.3-3.6,4.1c-0.4,6.8-0.4,6.8-9.1,7.2
			c-2.8-0.1-5.6-0.1-8.4-0.1c-6.6,0-6.9-0.3-6.5-7.1c1.2-3.2,3.4-4.3,6.9-4c8.7,0.9,17.3-1,25.9-1C380.6,37.1,382.5,36.4,384,38.1z"
			/>
		<path class="st132" d="M465.9,28.9c18.7,0,37.3,0.1,56,0.1c0,1.3,0.1,2.7,0.1,4c0.3,0.2,0.4,0.4,0.3,0.6s-0.1,0.3-0.2,0.3
			c-2,0-3.3-0.8-3.2-3c-1.5-1.2-3.2-0.5-4.7-0.5c-18.2-0.1-36.4,0-54.6-0.1c-1.6,0-3.3,0.6-4.8-0.6c0-0.2,0.1-0.5,0.1-0.7
			C458.6,28.1,462.3,28.5,465.9,28.9z"/>
		<path class="st61" d="M454.9,29.9c20.2,0,40.4,0.1,60.5,0.1c1.3,0,2.6,0,4,0c0.1,0,0.3,0.1,0.4,0.2c0.2,0.7-0.5,0.6-0.8,0.8
			c-22.2,0-44.5,0-66.7-0.1c-1.8,0-3.7,0.7-5.2-0.8C449.6,30.1,452.3,30,454.9,29.9z"/>
		<path class="st133" d="M524.1,24.3c3.6,0,7.3-0.1,10.9-0.1c0.9,2,0.5,4-0.1,5.9c-1.9-0.3-3.8-1-5.8-0.6c-1.1,0.2-2.5,0.7-3-0.7
			c-0.6-1.6,1-2.2,2-3C527.1,24.4,524.5,27,524.1,24.3z"/>
		<path class="st121" d="M522.1,34.1c-0.1-0.3-0.1-0.6-0.1-1c5.1-2.5,10.2-0.5,15.3-1.1c0,0.7,0,1.4,0.1,2.1
			C532.3,34.1,527.2,34.1,522.1,34.1z"/>
		<path class="st134" d="M534.9,30.1c-0.9-2-0.4-4,0.1-5.9c0.5,0,1.1,0,1.6,0c0,1.7,0.1,3.5,0.1,5.2C536.7,31,535.8,30.7,534.9,30.1
			z"/>
		<path class="st135" d="M465.9,28.9c-3.6,0.1-7.3,0.2-10.9,0.3c-11.9,0-23.9,0-35.8,0c0-0.4,0-0.8,0-1.1c15.6,0,31.1,0,46.7,0
			C465.9,28.4,465.9,28.6,465.9,28.9z"/>
		<path class="st129" d="M431.3,25.8c2.3-2.1,3.6-3.5,5.7-0.6C435.2,25.3,433.8,25.5,431.3,25.8z"/>
	</g>
</g>
</svg>
