<?xml version="1.0" encoding="utf-8"?>
<!-- Generator: Adobe Illustrator 25.0.0, SVG Export Plug-In . SVG Version: 6.00 Build 0)  -->
<svg version="1.1" xmlns="http://www.w3.org/2000/svg" xmlns:xlink="http://www.w3.org/1999/xlink" x="0px" y="0px"
	 viewBox="0 0 712 269" style="enable-background:new 0 0 712 269;" xml:space="preserve">
<style type="text/css">
	.st0{display:none;}
	.st1{display:inline;stroke:#FFFFFF;stroke-miterlimit:10;}
	.st2{fill:#333535;}
	.st3{fill:#1F2021;}
	.st4{fill:#D8DDDA;}
	.st5{fill:#8A8B86;}
	.st6{fill:#9DA29E;}
	.st7{fill:#B6BBB8;}
	.st8{fill:#AAAAAA;}
	.st9{fill:#9A9B9C;}
	.st10{fill:#111213;}
	.st11{fill:#958571;}
	.st12{fill:#CAC3B2;}
	.st13{fill:#202325;}
	.st14{fill:#D7D2C1;}
	.st15{fill:#201A18;}
	.st16{fill:#3A2F26;}
	.st17{fill:#69533D;}
	.st18{fill:#444848;}
	.st19{fill:#505555;}
	.st20{fill:#070707;}
	.st21{fill:#C69A6A;}
	.st22{fill:#966F4A;}
	.st23{fill:#BB9166;}
	.st24{fill:#0D0E0E;}
	.st25{fill:#6B533C;}
	.st26{fill:#BC8F60;}
	.st27{fill:#A6805B;}
	.st28{fill:#D3A875;}
	.st29{fill:#453A2F;}
	.st30{fill:#8D6C4E;}
	.st31{fill:#282A2A;}
	.st32{fill:#352C25;}
	.st33{fill:#2E3031;}
	.st34{fill:#917356;}
	.st35{fill:#222323;}
	.st36{fill:#2C2E2E;}
	.st37{fill:#686D6A;}
	.st38{fill:#515554;}
	.st39{fill:#232424;}
	.st40{fill:#151717;}
	.st41{fill:#3A3D3D;}
	.st42{fill:#393C3C;}
	.st43{fill:#4D5252;}
	.st44{fill:#575B58;}
	.st45{fill:#DFE0D9;}
	.st46{fill:#A3A7A2;}
	.st47{fill:#B7BBB6;}
	.st48{fill:#7C6753;}
	.st49{fill:#483F33;}
	.st50{fill:#745D46;}
	.st51{fill:#7E664F;}
	.st52{fill:#725B43;}
	.st53{fill:#92816B;}
	.st54{fill:#67533F;}
	.st55{fill:#AA7D51;}
	.st56{fill:#B18457;}
	.st57{fill:#AE8257;}
	.st58{fill:#8B6C4E;}
	.st59{fill:#7C644B;}
	.st60{fill:#977250;}
	.st61{fill:#8A6C4F;}
	.st62{fill:#AC8259;}
	.st63{fill:#AB7D50;}
	.st64{fill:#695546;}
	.st65{fill:#907051;}
	.st66{fill:#735D4B;}
	.st67{fill:#2A2C2C;}
	.st68{fill:#707673;}
	.st69{fill:#BFC3C0;}
	.st70{fill:#F1F5F3;}
	.st71{fill:#806449;}
	.st72{fill:#87745C;}
	.st73{fill:#6D5743;}
	.st74{fill:#685645;}
	.st75{fill:#8B7860;}
	.st76{fill:#5C4D3D;}
	.st77{fill:#5B4C3B;}
	.st78{fill:#5C4D3E;}
	.st79{fill:#715A43;}
	.st80{fill:#866B50;}
	.st81{fill:#564B3E;}
	.st82{fill:#413B32;}
	.st83{fill:#A88B6A;}
</style>
<g id="Camada_2" class="st0">
	<rect x="-7" y="-7" class="st1" width="745" height="291"/>
</g>
<g id="Camada_1">
	<g>
		<path class="st2" d="M708.8,260.9c-1.7,4.3-5.8,5-9.6,6c-2.4,0.7-5.3-0.1-7.3,2c-2,0-4,0-6,0c-3.3-1.3-6.8,0.1-10.1-0.8
			c-6.1-0.4-12.3,0-18.1-2c1.6-2.1,4-2.8,6.4-3.4c9.2-2.4,11.2-5.1,11.1-14.4c-0.1-4,0.9-7.5,4.5-9.9c0.7-0.4,1.5-0.6,2.3-0.6
			c3.4-0.3,6.5,1.7,9.9,1.7c1.2,0,2.5,0.8,2.2,2.6c-3.3,1.6-6.8,2-10.3,1.8c-1.2,0-2.6-0.7-3.6,0.6c-1,1.4-0.8,2.9-0.9,4.5
			c0.2,4.5-0.6,9.1,0.2,13.5c3.9-3.3,7.1-1.6,10.3,0.9c4.6,1,9.1-1.5,13.9-0.5c-0.7-1.5-2.8-2.5-1.3-4.4
			C705.2,257.3,707.5,257.7,708.8,260.9z"/>
		<path class="st3" d="M608.9,0.1c9.2,5.1,18.5,10.1,27.7,15.2c0.8,0.5,1.6,1.1,2.4,1.7c-3.8,3.5-6.7,0-9.2-1.7
			c-3.4-2.2-4.7-1.9-5,2.1c-4.1-2.9-8.2-6-12.5-8.8c-3.3-2.1-4.6-4.9-4.4-8.6C608.3,0.1,608.6,0.1,608.9,0.1z"/>
		<path class="st4" d="M711.9,143c0,8,0,16,0,24c-0.8,0.4-1.2-0.1-1.6-0.7c-3.4-2.1-3.2-5.4-2.2-8.5c1.3-3.9-0.5-7.3-0.9-10.9
			C707.1,142.7,707.7,142.2,711.9,143z"/>
		<path class="st5" d="M710.8,166.1c0.4,0.3,0.7,0.6,1.1,0.9c0,2.3,0,4.7,0,7c-2.2,0.7-2.9,3.1-4.9,4.1c-1.6,0.1-3.6,1.9-4.3-1.1
			c2.3-3,2.4-6.8,4-10.1C708.6,169.4,709.2,165.2,710.8,166.1z"/>
		<path class="st6" d="M711.9,143c-2.5,0.1-4.8,0.4-3.9,3.9c0.1,1.8-1,1.6-2.2,1.3c-2.4-6-1.5-10.4,3-13.7c1.1-0.4,2.2-0.3,3.1,0.5
			C711.9,137.7,711.9,140.3,711.9,143z"/>
		<path class="st7" d="M711.9,135c-1,0-2.1,0.1-3.1,0.1c-3.3,0.7-1.9-2.1-2.7-3.4c-0.1-3.7,1.6-6.2,4.9-7.8c0.3-0.1,0.6-0.1,0.9,0.1
			C711.9,127.7,711.9,131.3,711.9,135z"/>
		<path class="st8" d="M1.1,165l-0.5-0.1L0.1,165c0-9,0-18,0-27c0.3-0.1,0.6-0.1,0.9-0.1c2.6,3.1,1.4,6.7,1.6,10.1
			c-0.3,3.8,0.1,7.6,0,11.4C2.6,161.4,2.7,163.5,1.1,165z"/>
		<path class="st9" d="M675.8,268.1c3.4,0.3,6.9-1.4,10.1,0.8c-3.3,0-6.7,0-10,0C675.8,268.6,675.7,268.4,675.8,268.1z"/>
		<path class="st10" d="M624.8,17.5c0.2-1.6-3.2-2.9-0.1-5c2.5-1.7,3,0.7,4.5,1.2c3.2,1.3,5.7,4.9,9.8,3.3
			c28.7,15.9,53.3,35.6,65,67.8c-0.3,3.2-2.2,2.9-4,1.6c-2.1-1.6-3.8-3.7-4.4-6.4c-0.6-2.6-1.8-4.9-3.4-7.1c-5.7-5-8-12.4-12.7-18.3
			c-3.8-4.8-8.8-8.4-12.7-13.2c5.8,11.5,10.5,23.4,17.2,34.3c6.2,5.3,7.8,7.6,4,18.5c-0.3,0.8-0.5,1.7-1.2,2.1
			c-8.1,5.2-6.1,12.8-4.5,20.1c1.1,4.9,2.8,9.6,3.8,14.4c1.7,8.2-1.4,15.7-6.4,22.3c-0.7,0.9-1.6,1.7-2.4,2.6
			c-7.6,7.5-7,13,2.4,17.7c3.5,1.8,4.9,4.6,5.7,8.2c1.3,5.5,2.5,6.2,8,5.5c1.5-0.3,2.9-1,4.4-0.2c-0.1,2.7-0.1,5.3-0.2,8
			c-2.2,4.8-3.4,5.4-8.5,4.2c-6.1-1.5-7.5-0.9-8.4,5.5c-0.9,6.8-2.4,13.8,1.2,20.4c0.3,0.5,0.5,1,0.7,1.5c0.4,2.5,0.8,4.9-0.6,7.2
			c-3.1,1-4.2-1.4-5.2-3.3c-1.9-3.6-2.6-7.5-2.5-11.5c0.1-5.8,0-11.6-0.9-17.4c-0.5-3-1.6-3.9-4.2-1.9c-0.9,0.7-1.9,1.5-3.1,1.6
			c-4.4,0.2-7.1,2.3-7.8,6.8c-0.1,0.7-0.8,1-1.5,1c-0.3-3.4,0.4-6.7,0.9-10c0.6-2.1,1.1-4.3,1.9-6.4c1-2.7-0.5-4.6-1.9-6.6
			c-4.7-8.7-12.4-12.3-21.8-13.4c-2.4-0.3-4.8-1.1-7.2-1.7c-3.1-0.7-4.6-2.9-5.5-5.8c-0.5-1.6-0.7-3.3-1.4-4.8
			c-0.8-1.7-2.1-3.3-4.1-3.1c-2.4,0.2-2.3,2.4-2.6,4.2c-0.5,2.8,0.8,7.1-4.7,5.7c-1.2-0.7-2.8-1-2.8-2.9c-2.4-2.5-2.7-5.5-2.3-8.8
			c0.4-3.1,1.2-6.2,2.1-9.2c2.2-7.4,0.9-14.8,0.9-22.2c0-2.7-0.2-5.3,1.1-7.8c0.5-1,1.4-1.8,1.8-3c2.3-6.1,7.2-7.2,12.1-2.6
			c1.3,1.2,2.3,2.8,3.8,3.9c2.6,1.8,5.1,1.6,5.6-1.8c0.9-6,4.2-6.6,9.7-6.9c7.2-0.4,12.9-4.6,15.1-12.2c9-7.2,9-24.9,4.8-34.1
			c-7.2-15.6-19.3-27-32.4-37.6C628.3,20.5,626.6,19,624.8,17.5z"/>
		<path class="st11" d="M3.2,107.1c0.5-3-0.3-6.7,3.8-8c3.6,4.3,8.3,4.8,13.8,4.9c31.1,0.7,62.1,3.4,93.2,3.1
			c17.8-0.1,35.6-0.2,53.4-0.1c37.2,0.2,74.5-0.2,111.7,0.2c7.7,0.1,15.6,0.3,23.3,0.9c11.9,1,23.9,1.5,35.8,1.8
			c21.1,0.5,42.3,0.6,63.4,1.3c14.2,0.5,28.5,1,42.8,2.2c8.8,0.7,17.6-0.3,26.4-0.4c10.6-0.1,21.3,0.4,31.9-0.5
			c16-0.3,32.1-1.5,48.1-1.7c14.5-0.2,29.1-1.6,43.6,0.4c4.2,0.6,8.6,0.3,12.8,1.1c1,0.3,1.3,1.1,1.3,2.1c-1.7,4.4-4.5,3.4-7.6,1.8
			c-3.7-1.6-7.5-0.6-11.3-0.7c-6.3-0.9-12.7,2.1-19-0.4c-8.9-1.2-17.8-1.1-26.7,0c-4.5,0.6-9.1,0.2-13.7,0.3
			c-5,0.2-10.1-0.6-15.1,0.6c-1.8,0.4-3.6,0.4-5.4,0c-2.6-0.8-5.3-1-7.9-0.4c-4.1,0.9-8.3,0.9-12.4,0.7c-9.3-0.5-18.5,1.1-27.8,1.1
			c-0.6,0.1-1.2,0.1-1.8,0c-10.1,1-20.1-1.1-30.2-0.9c-24.9,2-49.7-1.5-74.5-2c-3.8-0.1-7.6,0-11.5-0.1c-16.7-0.4-33.4-2.1-50.1-2
			c-10.3,0-20.7,0.5-30.9-0.3c-12.3-1-24.5,0.1-36.7-0.4c-7.5-0.3-15.2-1.3-22.8,0.2c-0.9,0.2-1.9,0.1-2.8,0
			c-0.8-0.2-1.6-0.4-2.5-0.4c-21.8-0.1-43.6-0.1-65.4,0c-25.3,0.1-50.5,0.1-75.7-1.5c-14.4-0.9-28.9-1.5-43.3-1.5
			C10,108,6.4,109.5,3.2,107.1z"/>
		<path class="st12" d="M503,113c-11.2,1.8-22.6,0.2-33.9,1.2c-19.6,1.7-39-0.7-58.5-1.5c-14.5-0.5-28.9-0.2-43.4-0.7
			c-27.4-0.9-54.7-1.9-82.1-3.1c-33.6-1.5-67.3-0.7-101-0.8c-32.8-0.1-65.5,0.4-98.3-0.2c-17.6-0.3-35.2-1.2-52.8-2.1
			c-5.6-0.3-11.3-0.8-16.9-0.8c-4.3,0-7.5-1.8-9.2-5.9c6.2,5,13.6,3.6,20.6,3.8c28.7,0.8,57.4,3.9,86.2,3.3
			c19.3-0.4,38.5-0.1,57.8-0.1c36.6,0,73.1-0.2,109.7,0.1c9.2,0.1,18.4,1,27.6,1.3c20.4,0.6,40.8,1.7,61.2,1.7
			c12.9,0,25.9,0.2,38.8,1.7c8,1.2,16.1-0.2,24,1l0,0c0.8,0.7,1.9,0.6,2.8,0.6c18.4,0,36.8,0,55.2,0c1,0,2,0.2,2.9-0.5c3,0,6,0,9,0
			c0.3,0.2,0.4,0.5,0.3,0.7C503.2,112.9,503.1,113,503,113z"/>
		<path class="st13" d="M657.8,93.7c0,6-2.8,8.5-8.1,11.1c-3.9,2-7.3,3-11.5,2.3c-2.6-0.4-3,1.7-3.3,3.9c-0.4,2.5-0.6,6.1-3.7,6.4
			c-2.7,0.3-5.4-1.5-7-4.1c-1.1-1.8-2.4-3.3-4.4-3.9c-3.4-0.9-6.9-1.6-6.9,3.8c0,1.3-0.8,2.1-1.9,2.7c-1.7-1.9-0.9-3.8,0-5.8
			c0.3-0.4,0.6-0.8,0.9-1.2c0.6-1.3-0.2-2.9,1-4c2.5-1.4,5.6-1.4,8.1-2.9c7.2-1.2,14.4-2.8,21.8-3.2c3.9-0.1,7.9-0.3,11.1-3
			C655,94.9,656.2,94,657.8,93.7z"/>
		<path class="st14" d="M611.9,109c0,0.3,0,0.7,0,1c-1.3,1.1-2.1,2.8-4.1,2.9c-4.3,2.5-8.7-0.2-12.9-0.4c-19.7-0.8-39.3-0.6-59,0.2
			c-11,0.4-22,0.3-32.9,0.3c0-0.3,0-0.7,0-1c16-1.2,32.1-2,48.1-2.7c13.8-0.6,27.8-1.2,41.7,0.4C599,110.4,605.5,109.3,611.9,109z"
			/>
		<path class="st15" d="M1.3,148c-0.1-3.4-0.2-6.7-0.3-10.1c0.5-7.6-0.3-15.3,1.2-22.9c3.5-2.4,8.6-2,11.3,0.7
			c1.7,1.7,1.3,3.3,0,4.9c-6,6.9-7,14.7-4.5,23.3c1.1,3.7-1.3,7.1-2.5,10.5c-2.9,2.3-4.4,1.3-4.8-2C1.4,150.9,1.9,149.4,1.3,148z"/>
		<path class="st16" d="M6.1,154c0-0.7-0.2-1.4,0.1-2c1.7-4.1,1.6-7.8,0.5-12.3c-1.6-6.6,0-13.2,4.8-18.8c3.2-3.7,2.7-4.4-2.2-6
			c-2.5-0.8-4.8-0.3-7.2,0.1c0-1,0.1-2,0.1-3c1.8-2.7,4.8-3.3,7.6-4.3c1.3-0.5,2.8-0.1,3.5,1.2c1.1,2.1,2.6,3.7,4.3,5.3
			c2.4,2.1,0.1,4.2-0.7,6.3c-3,4.4-3.6,8.9-3.5,14.4c0.1,8-1.8,16-5.1,23.5c-0.6,1.3-1.2,3.3-3.5,2.5C3,158.1,4.6,156,6.1,154z"/>
		<path class="st17" d="M16,120c1.2-2.8,3.3-5.9-2.2-6.4c-1.1-9.5-6.2-2.8-9.8-2.4c-0.6,0.1-1.2,0.5-1.8,0.8c0.3-1.6,0.6-3.3,1-4.9
			c3.3,0,6.6-0.1,9.8-0.1c6.8,3,13.9,3.9,21.2,3.6c3.1-0.1,6.3-0.5,9.3,0.6c3.2,2.2,2.2,5.3,1.8,8.2c-0.4,0.6-1,1.2-1.6,0.9
			c-8.8-4-17.5-0.3-26.3,0C17,120.4,16.5,120.3,16,120z"/>
		<path class="st14" d="M494,112c-1.2,1.3-2.7,0.9-4.2,0.9c-17.5,0-35.1,0-52.6,0c-1.4,0-3,0.4-4.1-1C453.3,112,473.6,112,494,112z"
			/>
		<path class="st14" d="M433,112c-6.6,0-13.2,0-19.9,0c-1.4,0-3,0.4-4.2-1C417,111,425.1,110.3,433,112z"/>
		<path class="st18" d="M653.9,95.9c-2.8,4.5-6.8,4.3-11.1,3C646.5,97.9,650.2,96.9,653.9,95.9z"/>
		<path class="st19" d="M621,102.1c-2,3-5,3-8.1,2.9C614.7,101.5,618,102.4,621,102.1z"/>
		<path class="st20" d="M657.1,208.9c1.1-0.9,0.9-2.1,0.9-3.2c0.1-3.8,2.7-5.6,5.8-5.4c2.8,0.1,4.3-1,6-2.7c1-0.9,2-2,3.5-1.3
			c1.5,0.6,1.5,2,1.7,3.3c1.2,7.1,0.7,14.2,1.1,21.4c0.2,5,1,10,5.9,13c1.8-0.8,3.5-0.2,5.3,0.2c0.5,0.2,0.9,0.6,1.1,1.1
			c0.2,5.3-4.5,2.1-6.4,3.7c-0.6,0-1.3,0-1.9,0c-5.7,1.7-11.2,3.7-17.2,0.5c-3.2-1.7-5.6-0.2-6.6,3.4c-1.1,3.7-1.8,7.4-3.3,10.9
			c-0.8,1.9,0,3.5,0.3,5.3c0.5,3.1-0.3,5.7-4.4,5c-4.7-1-6.6-3.5-5.1-8.4c1.1-3.7,1.5-7.7,2.3-11.5c0.6-3.2,2.1-6,4.9-7.6
			c3.3-1.8,3.9-4.4,4.2-7.8C655.5,222.1,656.4,215.5,657.1,208.9z"/>
		<path class="st21" d="M211,167.9c-29.3,0-58.6,0-87.8,0.1c-17.1,0-34.3-0.3-51.4,0.3c-16.8,0.5-33.5,1-50.3,2.8
			c-3.1,0.3-6.3-0.1-9.4-0.2c-1.4-1.2-3.1-2.4-2.1-4.5c0.8-1.7,2.7-1.7,4.3-1.8c1-0.1,2-0.1,3-0.1c16.7,0.8,33.4-1.4,50.2-0.9
			c2.6,0,5.2-0.2,7.8,0c5,0.4,9.7-0.2,13.9-3.4c1.8-0.5,3.6-0.4,5.4,0c11.5,3,23.2,2.5,34.8,2.3c17.2-0.2,34.5,0.5,51.7-0.1
			c7.3-0.2,14.5-0.4,21.8,0.4C205.8,164.2,209.2,164.7,211,167.9z"/>
		<path class="st22" d="M68,164.9c-17.6,0.1-35.2,1.9-52.8,1c-4.9-0.3-5.4,1.2-3.2,5c-2.6,0.3-5-0.2-7-2c-1.4-2.7,0.4-4.4,1.8-6.3
			c1.5-1,3.4-1.1,5-1.7c1.6-0.3,3.3-0.5,3.4-2.8c0.2-3.5,2.8-4.1,5.5-4.3c2.5-0.2,5.1-0.3,7.4,0.4c3.4,1.1,6.8,0.8,10.2,0.6
			c9.9,5.3,20.4,1.9,30.6,1.7c6.4-1,12.9-1.2,19.2-3.1c4.2-1.3,8.4-0.4,12.2,1.4c7.4,3.6,15.5,3.1,23.3,4.2c1.6,0.2,3.4-0.4,4.5,1.3
			c-0.5,2.4-2.3,2.6-4.2,2.6c-3.5,0-7,0-10.5,0c-9.9-0.9-19.6-3.7-29.6-1.6c-2.6-0.1-5.3,0-7.9-0.4C72.5,160.5,68.9,159.9,68,164.9z
			"/>
		<path class="st23" d="M211,167.9c-2.3-1.3-5.2-1.6-7-3.9c3.5-2.6,7.3-1.5,11-1c5.9,0.7,11.9,1.1,17.8,0c2.4-0.5,4.8-0.5,7.3-0.4
			c11.7-1.6,23.2,0.5,34.8,1c9.6-0.2,19.2-1.3,28.8-1.6c0.7,0,1.3-0.2,2-0.1c15.6,2.3,31.1,0.7,46.6-0.2c4.3-0.3,8.6-0.1,12.9,0
			c7.5,0.2,15.1-1.2,22.5,0.9c0.8,0.8,0.9,1.6,0.3,2.6l0,0c-5.3,1.1-10.7-0.2-16,0.8c-18.6,0.4-37.2,0.6-55.8,1.4
			c-33.1,1.3-66.1,0.8-99.2,0.9C215,168.1,213,167.9,211,167.9z"/>
		<path class="st24" d="M648.7,264c3-1,5.5-2.3,2.4-5.8c-1.2-1.4-0.4-2.8,0.2-4.1c1.7-3.9,2.8-8.1,3.5-12.3c0.5-3,8-6.3,9.1-3.9
			c2.1,4.3,5.3,1.9,7.6,1.8c2.8-0.2,5.6-0.7,8.4-0.6c-3,3.3-4.2,6.9-3.2,11.7c1.1,5.1-4,11.2-9.3,12.6c-3.3,0.8-6.6,1.9-9.8,2.9
			C654.5,265.9,651.4,266,648.7,264z"/>
		<path class="st25" d="M7.1,163c-0.7,2-1.3,3.9-2,5.9c-0.4,0-0.7,0-1.1,0c-1.4-2.8-0.8-5.4,1-7.8c4.4-5,4.4-11.6,5.9-17.6
			c1.2-4.8,1.7-9.4,0.5-14.5c-0.8-3.4,2.8-6.1,4.5-9c0.3,0,0.7,0,1,0c3.1,1.9,3.2,4.4,1.2,7.2c-2.1,3-0.6,4.1,2.4,4.4
			c6.6,0.5,13.1-1,19.1-2.8c6.9-2,13.5-0.9,20.2-0.9c2.8,0,5.6,0.5,8.4-0.3c2-0.6,4.6-0.4,5.3,1.5c1,2.7-0.1,5.6-1.5,8.1
			c-1.1,2-3.6,2.6-5.2,1.4c-4.9-3.5-9.5-1.5-14.3-0.1c-5.2,1.5-10.6,1.1-15.9,1c-5.3-0.1-10.7,0-16,0c-6,0-8,2.4-6.9,8.5
			c0.9,5.1-2,8.9-3.5,13.2C10,162.4,8.1,162.2,7.1,163z"/>
		<path class="st26" d="M557.9,166c-12.9,1.1-25.8-0.3-38.7-0.5c-5.8-0.1-11.6-0.5-17.3-0.7c-9.2,0.1-18.4-1.1-27.7-1.1
			c-8.4,0-16.9-0.9-25.3-0.7c-8.6,0.1-17.1,0.9-25.7,1c-1.6,0-3.3,0.3-4.9-0.6c-0.7-3,1.9-2.7,3.2-2.7c8.9,0.3,16.8-4.5,25.5-4.9
			c2.1-0.6,4.2-0.5,6.4-0.5c5.1,0.1,10.2,0.1,15.3-0.5c6.8-0.9,13.5,0,20.1,1.9c4.9,2.2,10.2,2.9,15.4,3.8c0.7,0.1,1.5,0.4,2,0.1
			c4.7-3.2,9.2-0.1,13.8,0.4c10.4,1,20.9,1.1,31.4,0.3C556,160.9,557.6,162,557.9,166z"/>
		<path class="st27" d="M557.9,166c-1.2-2.9-3-3.9-6.5-3.5c-11.7,1.2-23.5,1.2-35.1-0.8c-3.3-0.6-5.4-1.7-9.1,0.4
			c-2.8,1.6-7.9-0.7-11.9-1.6c-2.2-0.5-4.2-1.7-6.3-2.5c3.8-2.5,8.2-2.8,12.4-2.1c4.1,0.6,8.2,0.9,12.4,0.6
			c5.4-0.3,10.6,0.2,15.8,1.4c2.5,1,5,0.7,7.7,0.3c7.5-1,15.2-0.5,22.4,2.1c5,1.8,10.1,0.5,15.1,0.9c6,0.5,12.2-0.9,18.1,1.4
			c0.7,0.7,0.8,1.5,0.1,2.3C581.3,166.3,569.6,166.1,557.9,166z"/>
		<path class="st28" d="M418,163c13-0.3,26-0.6,38.9-1c7.7-0.3,15.4,0.5,23.1,0.5c7.1,0,14.7,0.9,21.9,2.3
			c-14.1,0.5-28.2-0.7-42.3-0.6c-21.9,0-43.8,0.6-65.7,1c-2,0-4,0-6-0.1c0-0.7,0-1.4,0-2.1c0.7-0.8,1.6-1.3,2.6-1.3
			c8.3-0.5,16.5-0.5,24.8,0C416.4,161.7,417.3,162.2,418,163z"/>
		<path class="st29" d="M607.8,112.9c1-1.6,2.2-2.8,4.1-2.9c-0.3,2-1.3,3.9-1,6c-2.1,4.8-1.5,10-0.7,14.7c1.1,6.9-0.9,13.1-2.2,19.4
			c-1,4.7-1.9,9.3-0.2,14.1c-0.6-0.1-1.3-0.2-1.9-0.3c-3.1-1.6-6.5,0.2-9.6-1.2c-3-2-2-4-0.1-6c1.8-1.8,4.1-3.2,5.9-5.1
			c1.5-1.3,2.7-2.8,3.3-4.7c2.6-7.6,3.3-15.3,0.6-23.1c-0.5-3.2,0.3-6.1,2-8.8C607.9,114.3,607.9,113.6,607.8,112.9z"/>
		<path class="st30" d="M596,161.9c3.3,1,7.3-1.9,10,2c-0.6,0-1.2,0.1-1.8,0.1c-3.8,0.8-7.6,0.5-11.2-1.1c-9.8-0.2-19.5-0.9-29.3,0
			c-1.1,0.1-2.5,0.1-3.4-0.5c-6.9-4.3-14.7-3-22.1-3.1c-2.7,0-5.5,2.3-8.2-0.3c5.7-3.4,12-2.4,18.1-2c2,0.1,3.9,0.4,5.7-0.7
			c3.4-1.3,6.7,0.3,10,0.5c3.2,0.9,6.5,1,9.6,2.5c1.4,0.7,3.5,0.8,4.9,0C584.9,155.7,590.4,159,596,161.9z"/>
		<path class="st31" d="M610.6,167.1c2.9,0,3.5-1.6,3.4-4.2c-0.2-3.1-0.5-7.4,3.5-7.6c3.8-0.2,6.3,2.8,6.7,7.2
			c0.3,3.3,1.6,6.4,4.8,8.3C622.7,169.9,616.6,169,610.6,167.1z"/>
		<path class="st32" d="M5.1,161c0.4,2.7-0.9,5.2-1,7.8c-2.1-0.4-2-2.6-3-3.8c0.1-5.7,0.1-11.3,0.2-17c1.2,1.2,0.7,2.7,0.9,4.1
			c0.3,2.7,1.7,3.2,4,1.9C5.5,156.3,4.8,158.6,5.1,161z"/>
		<path class="st33" d="M657.9,185.9c4.8,4.2,4.8,4.2,0,13C657.5,194.6,659.3,190.3,657.9,185.9z"/>
		<path class="st34" d="M592.9,163c3.7,0.4,7.5,0.7,11.2,1.1c-3.7,0.9-7.4,0.9-11.2,0.8C592.9,164.2,592.9,163.6,592.9,163z"/>
		<path class="st28" d="M372,165.8c5.3-1.7,10.7-0.6,16-0.8C382.8,166.7,377.4,165.7,372,165.8z"/>
		<path class="st35" d="M693.9,188c-6.2,2.2-8.7,1-9.7-6.1c-0.6-4.3-2.5-6.4-6.3-7.9c-9.2-3.5-8.8-12.7-2.9-17.7
			c7.4-6.2,10.6-14.7,10.4-23.7c-0.1-4.4-2.7-9-3.8-13.7c-0.9-3.7-1.7-7.4-1.8-11.2c0-4.7,0.3-8.8,5.2-11.4
			c4.2-2.2,4.9-13.3,1.3-16.8c-1.2-1.1-2.8-1.9-3.5-3.5c3.8-1.9,6.4,0.2,8.6,3.1c2-2.3-0.6-5.1,1.4-7.1c2.4,2.1,3.4,4.9,4,7.9
			c0.9,4.2,4.4,6.6,7.1,4.9c1.8,2.7,1.7,6,3.1,8.8c-0.2,3.5-2.1,3.6-4.4,1.9c-1.7-1.2-2.5-3.4-4.4-4.4c-0.4-0.2-0.8-0.5-1.2-0.8
			c-1.1-0.9-2.4-1.3-3.7-1.3c-2.4,0-3.2,2.1-2,3.3c4,4,3,9.3,4.5,14c0.4,1.6,0.7,3.4,0.1,4.9c-2.4,6.8-0.3,12.8,2.9,18.7
			c2.1,3.7,1.3,7.3-1.4,10.1c-5.2,5.4-7.3,12.6-11.6,18.5c-1.6,2.2-1.3,4.8,0,7.1c1.6,2.9,2.5,6.2,4.5,8.8c2,2.7,2.6,5.7,1.8,9
			C691.9,185.3,692.9,186.7,693.9,188z"/>
		<path class="st36" d="M690.9,184c2.6-6.6-3.3-10.6-5.4-15.6c-2.1-4.8-2.8-8.6,0.6-12.8c4.4-5.3,5.8-12.5,11.3-17.3
			c2-1.8,2.9-5.7-0.2-8.5c-2.2-2.1-2.6-5-2.8-7.8c-0.1-1.7,0.3-3.1-1.5-4.2c-1.1-0.6-1.1-1.8-0.2-2.5c3.1-2.6,2.1-6.1,2.3-9.3
			c-0.9-1.5-0.2-2.6,1.1-3.2c2.1-1,3,1,4.6,1.8c-4.5-2.9-6.1-7.9-8.9-12c-0.7-1-1.5-1.9-1-3.1c0.8-1.8,2.3-0.6,3.5-0.5
			c1.3,0.1,2.6,0.2,3.7,1.1l0,0c1.7,1.1,2.6,2.8,3.8,4.3c1.6,2,3.5,3.3,6.3,2.5c0.9,0.8,0.9,2,1,3c1.9,4.5-2.4,7.2-3.4,10.9
			c-0.9,3.4-1.1,6,0.8,8.8c0.2,0.4,0.3,0.9,0.4,1.4c0.3,2-0.4,3.8-0.9,5.6c-0.1,0.5-0.3,0.9-0.4,1.3c-1.6,3.3-0.8,7-0.7,10.2
			c0.2,5.5-1.7,10-3,15c-0.9,2.3-0.3,4.6,0,6.9c0.2,1.7,0.2,3.3-0.4,4.9c-0.6,1.6-1.2,3.3-3.2,3.4c-2,0.1-3.2-1.3-4.2-2.9
			c-1.4-2.4-0.5-5.1-1-7.8c-5.1,4.1-5.1,5-2.5,10.4c1.8,3.7,3.5,7.4,6,10.7c0.2,1.6-1,2.6-1.8,3.8
			C693.5,183.2,692.7,184.6,690.9,184z"/>
		<path class="st37" d="M706,121c-0.1-0.3-0.1-0.6-0.1-1c-1.2-3.7-1.5-7.4,0.4-10.9c0.8-1.5,1.2-3.6,3.7-3.1
			c1.6,5.9,0.7,12,1.1,17.9c-0.6,0.4-1.3,0.8-1.9,1.2c2.4,2.3,0.6,2.6-1.4,3.4c-1.4,0.5-0.6,2.3-0.8,3.5c-3.2-0.6-2.7-2.8-2-5l0,0
			C706.4,125.2,707.4,123.3,706,121z"/>
		<path class="st38" d="M710,106c-3.6,3.2-5.3,7-3.2,11.7c0.7,1.5-0.8,1.5-0.9,2.3c-2.3-2.6-3.9-4.5-1.7-8.9
			c1.7-3.5,4.9-6.9,4.8-11.3C710.2,101.8,710.2,103.9,710,106z"/>
		<path class="st39" d="M708,96.8c-0.4,3-2.2,1.8-3.5,0.9c-2.8-2-5.3-4.4-6.6-7.7c2.5,0.1,3.3,2.2,4.6,3.9c1.6,2.2,3.2,2.8,4.6-0.3
			C708,94.5,708,95.7,708,96.8z"/>
		<path class="st40" d="M681.9,238.9c1.5-2.1,5.9,0.3,6-3.9c2.4-2,5.7-1.8,8.3-3.6c1.6-1.1,3.4,0,4.6,1.5c9.1,7.4,8.9,17.6,8,27.9
			c-2.1-2-4.5-2.5-7.2-1.8c-1.4,1.2-3,1-4.7,0.5c-1.1-0.4-2-1-2.6-1.9c-0.7-1.3-0.8-2.8-0.7-4.3c0.1-1.8-0.2-3.8,1.7-4.7
			c1.7-0.8,3,0.6,4.3,1.5c0.8,0.3,2.1,1.4,1.8-0.6c-0.4-2.5-1.9-4.5-4.4-5.5c-0.4-0.2-0.8-0.4-1.2-0.6c-0.7-0.4-1.5-0.9-1.8-1.7
			C690.2,239.7,685.9,240,681.9,238.9z"/>
		<path class="st41" d="M700.8,233c-2.2-0.7-4.3-1.5-6.3,0.8c-1.7,2-4.4,1-6.6,1.3c-0.3-0.1-0.6-0.1-1-0.1c-3.5-0.4-5.1-2.1-4.5-5.8
			c0.2-1,0.4-2.2-0.5-3.2l0,0c-2.4-2.3-2-5.3-1.9-8.3c0.4-5.3,1.2-6,5.7-3.4c3.6,2,6.8,0.4,10.3,0.5c1.1,1.7-0.1,2.7-1.1,3.7
			c-0.8,1-2,1.6-2.5,3c1.7,1.6,3.7,0,5.5,0.6c1.7,0.3,2.2,1.8,3,2.8C700.9,227.6,700.8,230.3,700.8,233z"/>
		<path class="st36" d="M696,215c-4.4,3.1-8.4,2.4-12.4-0.8c-1.8-1.4-2.3-0.8-2.6,3.7c-1.8-2.2-2.2-8.6-0.7-12.1
			c2.2-5.4,3.4-6,9-4.9c5.5,1,5.8,0.8,8.8-5.1c1.9,1.7,0.9,3.9,1.1,5.9c0.7,3.3,0.4,6.6,0.2,9.9C699.2,213.3,699.2,215.9,696,215z"
			/>
		<path class="st35" d="M698,195.8c-0.2,7.1-1.8,8.4-8.5,6.9c-5.3-1.2-8.1,0-9.2,5.2c-0.7,3.2-1.3,6.8,0.6,10c0.1,2.7,0,5.4,1,8
			c-1.9-1-3.1-2.4-3-4.7c0.3-6.2-0.5-12.5,0.9-18.7c1.2-5.2,3.6-7.4,8.3-5.2c4.5,2.1,7,0.8,9.7-2.4C697.9,195.2,698,195.5,698,195.8
			z"/>
		<path class="st42" d="M690.9,184c1-0.7,1.9-1.4,2.9-2c1.9-0.3,3.9-0.4,5.3-2.1c0.3-0.3,0.7-0.7,1.1-0.9c1.7-0.8,3.5-1.5,4.7,0.9
			c-3.1,1.7-3.1,6.3-6.9,7.2c-1.3,0.3-2.7,0.7-4,1C690.8,188.2,690.8,186.1,690.9,184z"/>
		<path class="st43" d="M696,215c2.8-0.6,2.8-2.8,2.9-5c0.1-2.8,0.2-5.5,0.2-8.3c1.3,7.7,1.4,15.5,1.9,23.2c-1-0.7-2.1-1.4-3.1-2.1
			c-1.3-1.7-2.4-3.5-3.9-5C694.5,216.9,696.1,216.5,696,215z"/>
		<path class="st38" d="M704.8,179.8c-1.7-1.5-3.3-0.5-4.9,0.2c-1.3-1.4-2.1-3-0.4-4.5c1.2-1.1,2.6-1.1,3.3,0.8
			c0,0.2,0.1,0.5,0.1,0.7c0.8,2.4,3.1-0.6,4.1,1.1C706.4,178.8,706,179.7,704.8,179.8z"/>
		<path class="st44" d="M696,242.9c5.4-0.2,6,4.4,7.2,7.8c0.6,1.7-1.4,2.8-3.3,1.2c-1.1-2.6-2.6-4.2-5.7-3.1c-1.8,0.6-3.6,0-5.4-0.5
			c-1-0.2-2.1-0.6-2.7,0.5c-0.5,1-0.1,2,0.6,2.8c2.3,2.7,5.2,4.6,8.3,6.1c0.7,0.3,1.3,0.7,2,1c-2,2.2-4.6,0.8-7.5,1.3
			c2.5,2.2,1.6,3.7-0.7,4.8c-1.4-2.3-3.3-3.5-6.1-3c-0.6,0.1-1.6,0-1.8,0.4c-0.5,0.9,1.5,3.6-1.5,2.4c-1.1-0.5-2.3-2.9-1.9-4.8
			c0.8-3.6,0.3-7.3,0.4-10.9c1.3-0.9,1.7,1.4,2.9,0.9c0.4-2.4-1.1-4.1-1.9-6c0.2-1.1,0.9-2.2,1.9-1.8c4.5,1.8,8.8-0.6,13.2-0.3
			C694.8,241.9,695.6,242,696,242.9c-0.7,1.1-2.1,0.9-2.9,1.9C695.1,245,695.1,245,696,242.9z"/>
		<path class="st45" d="M688.8,264.9c-0.5-1,3.5-2.4-0.3-3.3c-1.1-0.3-1.6-1.8-1.1-2.9c0.5-1.1,1.7-0.4,2.7-0.3
			c2.3,0.2,4.6,0.3,6.9,0.4c1.5,0.1,3.1,0.2,4.6,0.3c1.6,0.7,1.9,2.8,4,3.1C700.2,264.8,694.5,264.8,688.8,264.9z"/>
		<path class="st46" d="M678.9,243.8c1.8,0.2,2.8,1.6,2.9,3c0.1,1.8,2.2,4.2-0.1,5.4c-3,1.6-2.1-2.6-3.8-3.3
			C677.8,247.1,677.3,245.3,678.9,243.8z"/>
		<path class="st47" d="M706,148c0.9,0,1.6-0.3,2-1.1c0.9,0.3,2-0.9,2.7,0.2c0.5,0.8-0.2,1.5-1.1,1.8c-0.6,0.2-1.6,0.8-1.1,1.2
			c4.2,3.5,1,7.4,0.1,10.7c-0.8,3.1,2.9,3.1,2.2,5.3c-1.4,0.6-0.4,3.2-2.4,3.1c-0.5,0-0.9-1.5-1.4-2.3
			C702.8,163.2,702.2,153.5,706,148z"/>
		<path class="st38" d="M706,148c-1.1,6.4-2.3,12.7,1.1,18.9c-0.4,3.8-0.5,7.7-4.2,10.1l-0.2-0.2c-1.2-3.7-2-7.2-0.9-11.4
			c0.7-2.7-0.5-6.1-1.1-9.1c-0.2-1.1-0.7-2.2,0.1-3.3c2.2-5.9,2.4-12.2,3.2-18.3c0.3-2.5-1.6-5.3,0.8-7.7c0.1,1.9,0.3,3.7,2,5
			c1.7,0.4-0.5,3.1,1.8,3.1C705.6,138.9,705.6,143.4,706,148z"/>
		<path class="st39" d="M692.9,72c-0.1,2.7,1.8,5.3,0.2,8.2c-1,1.7-2.2,2.1-2.6,0.4c-1-4.5-4.6-3.9-7.5-4.6
			c-3-5.2-6.3-10.3-8.7-15.7c-2.7-6-5.3-12.1-9.1-17.5c-0.7-1-1.5-1.9-0.3-3s2.4-0.4,3.1,0.4c3.9,4,7.9,7.9,11.5,12.1
			C684.7,58.4,687.5,66.1,692.9,72z"/>
		<path class="st35" d="M681.9,225.9c0.9,0.7,1.2,1.7,1,2.6c-0.7,3.5,1.3,5.1,4,6.3c-1.8,0.2-3.5,0-5-1
			C681.9,231.2,681.9,228.6,681.9,225.9z"/>
		<path class="st48" d="M293,111c21.1-0.1,42.1,1.8,63.2,2.3c12.9,0.3,25.8,0.3,38.6,0.9c4.9,0.2,9.8,1.5,14.7,1.8
			c6.8,0.4,13.6-0.9,20.4-1c6.8,3.9,14.2,2.7,21.4,2.4c2.8-0.1,5.9-0.4,8.7-1.4c0.3,0,0.6,0,0.9,0c3,0.7,6.1,1.1,9.2,0.5
			c12.4-2.2,25,0.1,37.4-2c0.8-0.1,1.7-0.1,2.4,0.5c1.7,0,3.3,0,5,0c4.9-1.3,10.1,0.4,15-0.9c4.7,0,9.3,0,14,0
			c6.8-1.1,13.7-0.2,20.5-0.4c0.2,3.1-1.2,5.2-4,4.3c-4.3-1.5-8.2-0.1-12.3,0.3c-1.1-0.1-2.1-0.5-3.1-1c-6.5-2-12.9,0.4-19.3,0.9
			c-17.5,1.1-35,2.3-52.6,3c3,2.2,6.5,1.2,9.7,1.5c4.2,0,8.3,0.8,12.5,1.5c1.5,0.7,2.5,1.8,1.9,3.5c-0.6,1.5-2.1,2.1-3.6,2.4
			c-3.3,0.6-6.6-0.7-9.8-0.3c2.2,2,1.8,3.8-0.9,5.5c-2.3,1.4-5.4-0.4-7.7,2c1.7,1.7,3.6,0.5,5.3,0.8c2.8,0.5,5,1.9,5.8,4.8
			c0.8,2.9-1.7,4-3.6,5.3c-2.7,1.9-5.8,2.6-8.9,2.9c-2.8,0.3-5.1,1.3-6.9,3.4c-8.8,0.7-16.9-0.3-22.6-8.2c-0.8-1.1-1.8-1.4-3-1.4
			c-7.6,0.4-14.4-3.8-22-3.3c-1.1,0.1-2.2-0.8-2.6-2c0.3-1.7,2.1-1.3,3.1-2.2c-4.9-3.7-10.5-4.8-16.4-4.6c-3.3,0.1-4.2,1.6-2.7,4.5
			c1.9,3.7,4.8,6.7,7.5,9.9c1.2,1.5,3.7,2.9,1.2,5.3c-2.5,0.3-3.9-1.5-5.4-3c-2.4-2.4-5.1-3.5-8.7-2.9c1.2,1.2,2.9,2.1,1.8,4
			c-0.8,1.5-2.5,1.8-3.9,1.6c-5.6-1-10.9,0.7-16.2,1.8c-6.5,1.3-12.8,1.4-19.2-0.2c-6.7-3.3-13.8-4.7-21.3-3.7
			c-2.2,0.3-3.9-0.5-4.1-2.6c-0.3-2.7,2.2-4.4,4.1-3.9c5.1,1.3,7.9-1.9,11.6-4c5.6-3.2,12.1-3.1,18.4-2.8c4.2,0.9,8.3,0.4,12.3-1.3
			c-7.8-2.8-16-2.1-24-1.8c-1.7-0.7-3.6-1.3-3.2-3.8c3.7-1.6,7.5,0.6,11.3-0.3c6.4-1.6,12.6-1.3,19,1c5.5,2,11.2,0.6,16.1-2.8
			c1.1-0.8,2.4-1.7,3.6-1c3.5,2.1,7.1,1.1,10.7,1c6.1-0.3,11.7,2.1,17.3,3.8c7.5,2.4,14.7,3.7,22.2-0.1c5-2.6,10.3-2.1,15.4,0.6
			c-4.7-3.4-9.1-7.1-15.3-6.6c-2.3,0.1-4.7,0.4-6.9-0.5c-1.8-0.6-3.6-0.5-5.4-0.5c-12,0.2-23.9,0.3-35.8,1.9c-2,0.3-4.2,0.4-5.9-0.2
			c-8-2.7-16.1-0.5-24.1-1.1c-7.6-0.6-15.2,0.6-22.8-0.5c-0.4-0.4-0.7-0.8-0.7-1.4c0.3-2.5,3.3-2,4.2-3.8c0-1.1-0.9-1.6-1.6-1.6
			c-6.1,0.3-11.9-2.5-18.2-0.9c-4,1.1-7.5-1.9-11.6-1.8c-8.7,0.2-17.4-1.1-26-1.7c-1.3-0.1-2.7-0.1-3.8-0.9
			C293,112.1,292.9,111.6,293,111z"/>
		<path class="st49" d="M201.1,110.9c0.6,0,1.3,0,1.9,0c1.3-0.2,2.6,0.2,3.8,0.6c4.5,1.8,9.7,1.1,14,4.3c1.6,1.2,4.5,0,6.7-1
			c3-1.3,5.9-0.7,8.7,0.3c1.4,0.5,3,1,2.7,3c-0.3,1.6-1.6,2.5-3.1,2.9c-1.8,0.5-3.6,0.3-5.4,0.4c-1.6,0.1-3.1,0.4-4.6,0.7
			c-3.1,0.5-6.3-0.1-9.3,0.9c-0.7,0.2-1.5,0.2-2.2,0.3c-3.5,0.1-7-0.1-10.5,0.2c-2.7,0.2-4.9,0.5-4.3,4.3c0.3,1.7-0.5,3.6-0.1,5.4
			c0.3,1.3,0.4,2.7-1.3,3.3c-1.4,0.5-2.6-0.2-3.6-1.1c-1.6-1.5-1.7-3.5-1.7-5.6c-0.1-7.4-0.1-7.5-8-6.8c-2,0.1-3.7-0.5-5.3-1.6
			c-2.9-2.8-3.7-5.7-0.6-8.9c4.7-1.8,9.6-1.7,14.6-1.3c1.8,0.1,3.6-0.2,5.4-0.4C199.6,110.5,200.3,110.5,201.1,110.9z"/>
		<path class="st50" d="M201.1,110.9c-0.7,0.1-1.4,0.1-2,0.2c-1.5,0.8-3.3,0.8-4.9,0.6c-6.2-0.5-12.3-0.2-18.2,1.7
			c-7.4,2.5-14.8-0.1-22.1-0.3c-4.1-0.1-8.2-0.6-12.4-0.7c-9.2,0.8-18.4,1.7-27.5,2.9c-5,0.6-10,0.8-14.6-1.7
			c-1.8-1-3.8-1.5-5.8-1.1c-4.1,0.8-8.3,0.2-12.1,0.7c-6.5,0.9-13,0.4-19.4,0.3c-6-0.1-12.1-0.2-18.1-1.5
			c-7.6-0.4-15.2,0.7-22.8-0.8c-3.3-0.7-5.8-2.1-8.2-4.2c12.3-0.1,24.5,1.3,36.7,1.6c23.7,0.6,47.3,2,71,1.6c25-0.4,50-0.1,75.1-0.1
			C197.6,110,199.5,109.4,201.1,110.9z"/>
		<path class="st51" d="M548,117c1.5-0.1,3,0.2,4.2-0.8c1.8-1.5,3.4-1.4,5.4-0.1c3.1,2,5.6,1.1,7.4-2c2-0.8,4-0.8,6,0
			c6.3,2,12.6-0.8,19,0c3.9,1.4,8.1-0.5,12,1.1c2,2.6,4.1,1.6,6.1,0c-0.3,3-0.7,6-1,8.9c-0.4,0.3-0.9,0.5-1.4,0.5
			c-3.7,0.1-7,1.9-10.7,2.2c-2.8,0.2-3.5,3.3-1.4,6.9c1.8,3.1,2.2,6.2,1.4,9.6c-0.3,1.1-0.6,2.4-2.3,1.9c-5.7-5.8-4.1-13.4-4.7-20.3
			c-0.4-5.1-1.1-6.4-6-5c-4.5,1.3-8.9-0.2-13.4,0.1c-5.9,0.5-11.9-0.7-17.9-0.8C549.5,119.1,547.8,119,548,117z"/>
		<path class="st52" d="M206,112c-1-0.4-2-0.8-3-1.1c0.3-0.2,0.5-0.6,0.8-0.6c10.9,0,21.7-0.6,32.5,0.3c4.7,0.4,9.2-0.6,13.8-0.5
			c14.3,0.4,28.6,0.7,42.9,1c0,0.3,0,0.6,0,0.9c-0.2,0.2-0.4,0.4-0.6,0.6c-6.2,0.3-11.9,4-18.4,2c-1.5-0.5-2.9,0.4-4.3,0.8
			c-4.3,1.3-8.5,1.8-12.1-1.7c-0.6-0.6-1.3-0.9-2.2-0.8c-7.4,0.7-14.9-0.4-22.2-0.1c-8,0.4-15.9,0-23.8,0.1
			C208.2,112.7,207.1,112.7,206,112z"/>
		<path class="st53" d="M460,116c-7.7,3.6-15.9,3.2-24.1,2.9c-2.6-0.1-4.6-1.6-6-3.9C440,114.9,449.9,117.1,460,116z"/>
		<path class="st53" d="M510,115c-13.7,2.3-27.8-0.5-41.5,2.6c-2.4,0.6-5.2-0.2-7.5-1.6c13.8-1.3,27.6-0.3,41.4-1.9
			C504.8,113.8,507.6,113.1,510,115z"/>
		<path class="st53" d="M570.9,114c-2,0-4,0-6,0c-7,0-14,0-21,0c2.8-2,6.1-1,9.1-0.9C559,113.4,565.1,111.8,570.9,114z"/>
		<path class="st53" d="M530,114c-4.9,2.1-10,0.5-15,0.9C519.9,112.9,525,114.5,530,114z"/>
		<path class="st53" d="M601.9,115.1c-4-0.6-8.1,1-12-1.1C593.9,114.5,598.1,112.8,601.9,115.1z"/>
		<path class="st50" d="M7.1,163c3.6-4.7,6.7-9.5,5.2-16c-1.2-5.1,2.3-9,7.5-9c9.1,0,18.2-0.1,27.4,0c2.6,0,4.8-1.3,7.2-1.6
			c4.1-0.6,8.3-3.9,12.5,0.7c1.9,2,4.6,1.1,5.1-2.6c1-6.6,1.1-5.9-5.8-5.1c-5.5,0.7-11.2-0.5-16.8-0.9c-1-0.1-2.2-0.9-2.9-0.5
			c-4.9,2.9-10.7,2-15.8,3.7c-4.2,1.4-8.2,1.1-12.3,1.1c-3.5,0-5-3-2.4-5.2c3-2.7,2.3-4.9,0.9-7.7c0.7-1.6,2-2,3.7-2
			c6.2-0.2,12.6,0.8,18.6-1.8c1.4-0.6,2.4,0.3,2.9,1.8c0.4,1.2,1.2,2.6,2.8,1c5-1.1,9.7,0.9,14.6,1.2c4.3,0.2,8.6,0.3,12.9-0.1
			c12.7-1.1,25.5-1.5,38.2-2c1.3-0.1,2.8-0.1,3.4,1.4c0.7,1.8-0.6,2.8-1.9,3.6c-1.9,1.4-4.3,1.8-6.4,2.7c-2.8,1.2-3.4,3.2-1.4,5.5
			c3.3,3.8,8,6.3,9.2,12c0.4,2.2,8.3,3.5,10.4,2.3c3.1-2,4.8-0.1,6.4,2.2c0.2,0.6,0.4,1.3,0.2,1.9c-1.3,5.3-1.3,5.3,3.9,4.5
			c0.7-0.1,1.3,0,1.9-0.4c-1.7-5.4-1.2-6.7,3.1-7.8c8.5-2.2,10.4-1,12.1,7.4c1.2-0.8,1.9-2.3,3.5-2.4c2.2-0.2,12.7,6.5,13.8,8.9
			c-5.9,2.1-11.8,0.6-17.5-0.6c-3.8-0.8-3.8-5.3-5.5-9.1c-1.4,3.8-4,6.1-6.3,8.5c-0.3,0.3-0.7,0.6-1.2,0.8c-1.5,0.5-2.9,0.2-4.4,0.1
			c-5.3-0.4-10.3-2.4-16-2.1c-4.8,0.3-9.7-2.1-12.1-7.2c-0.3-0.7-0.4-2.1-1.4-1.2c-3.2,2.6-5.7,0.5-8.1-1c-2.6-1.7-4.8-1.7-7.2,0.2
			c-0.8,0.6-1.7,1-2.7,1.3c-5.6,1.5-9.3-1.5-9.1-7.2c-0.5,6.5-6.8,9.7-8.5,15.5c-6.8,0.4-13.7,0.6-20.5,1.4
			c-4.2,0.5-6.8-2.9-10.5-3.4c-3.7-1.1-4.4-3.1-2.8-6.7c2.9-6.6,1.5-8.4-5.6-7.9c-3,0.2-5.9,0.2-8.8-0.4c-3.9-0.8-6.7,2.4-5.1,5.9
			c1.5,3.4,1.2,6-1,8.7c-1.5,1.9-1,4.6-2.7,6.3C10.6,162.9,8.9,163.1,7.1,163z"/>
		<path class="st54" d="M125.1,146c-1.6,2.7-3.4,4.2-6.2,1.3c-1.1-1.2-2.6-1.2-4.1-1.4s-3.7-0.8-3.4-2.3c1.3-5.9-3.8-7.4-6.8-10.2
			c-1.9-1.8-3.3-3.6-3-5.8c0.3-2.3,2.8-3.3,4.9-3.6c2.2-0.3,4.1-1.4,6-2.4c0.7-0.4,1.5-1,1.1-2c-0.4-0.9-1.4-0.7-2.2-0.7
			c-11.9,0.6-23.8,0.6-35.6,2.1c-7.9,1-15.5-0.3-23.2-0.1c-2.9,0.1-4.7-2.6-7.5-2.1c-1.9-2.1,0.7-4.9-1-7c9.8-1.6,19.6,0.3,29.4,0.8
			c2.1,0.1,4.2-0.7,6.3-1.2c2-0.5,3.8-1.1,5.6,0.6c1.3,1.2,2.5,0.2,4-0.2c3.8-1.2,7.5-2,11.6,0.9c3.5,2.4,8.2,1.9,12.4,1.1
			c3.6-0.7,6.9-1.8,10.7-1c5.9,1.2,11.2-3.2,17.1-1.9c0.1,2.2-1.7,2.5-3.1,2.9c-1.5,0.5-3.1,0.7-4.4,1.8c-1.8,1.3-3.7,0.8-5.7,0.2
			c-2.7-0.8-4.7,0.1-5.3,2.8s-1.9,4.9-5,6.6c3.3,1.2,6.2,0,8.3,2.1c1,1,2.1,1.8,1.5,3.4c-0.5,1.2-1.5,1.8-2.7,1.9
			c-2.3,0.2-5.2-1.2-5.6,2.9c-0.5,4.8,1.3,8.2,5.3,9.8C124.6,145.5,124.8,145.7,125.1,146z"/>
		<path class="st55" d="M233,164c-5.5,2.1-11.2,1.2-16.6,0.7c-4.1-0.4-8.2-0.5-12.4-0.6c-25,0-50,0-75-0.1c-4.2-1-8.4-0.2-12.6-0.5
			c-1.2-0.1-3.1,1-3.4-1.4c3.5,0,6.9,0,10.4,0c1.9,0,3.7,0.1,4.6-2c1.7-1.5,3.7-1,5.7-0.7c1.8,0.2,3.6,0.7,5.3-0.3l0,0
			c2.9-3.1,7-2.1,9.7-1.1c6.2,2.5,12.5,2.9,18.8,2.4c6.1-0.4,12.2-0.7,18.3-0.3c2,0.1,4-0.3,5.9-0.9c1.1-0.3,2.2-0.5,3.3-0.6
			c5.2-1.5,10.5-1.3,15.8-1.8c3.5-0.3,6.6,0.5,8.9,3.4c1.6,2.1,3.8,2.5,6.2,2.5C228.3,162.7,231,162,233,164z"/>
		<path class="st56" d="M68,164.9c0.1-0.1,0.2-0.3,0.2-0.4c-1.1-5.2-0.3-6.2,6-5.1c3,0.5,5.9,0.5,8.9,0.6c1.8,1.3,4.2-0.3,6,1
			c-3.8,5.5-9.5,3.8-14.7,3.9C72.3,165,70.2,164.9,68,164.9z"/>
		<path class="st57" d="M89.1,161c-2-0.4-4.3,0.8-6-1c4.3-0.5,8.9,1.2,13-1.2c0.2-0.1,0.7-0.2,0.9-0.1c4.8,3.7,10.9,1.2,16.1,3.3
			c2.8,2,6,0.5,9,1c2.3,0.4,4.9-0.9,7,1c-6.6-0.3-13.4-0.8-19.7-0.4C102.1,163.9,95.9,160.6,89.1,161z"/>
		<path class="st58" d="M139.1,159c-3.5,2.2-7.3,0.5-11,1c-1.9,0.2-3.8,0.4-5.7,0.4c-9.8,0-18.9-2.8-28-5.8
			c-1.3-0.4-2.5-0.7-3.9-0.2c-7,2.3-14.2,2.6-21.4,3.6c-0.4-4.4,1.3-7.7,5.3-9.8c2.1-1.1,1-3.1,0.8-4.9c-0.2-2.2,1.5-3,3.2-3
			c2-0.1,1.8,1.6,1.5,2.9c-0.9,4.1,0.8,6.1,5.1,5.8c0.8-0.1,1.9-0.1,2.3-0.6c4.2-4.8,8.4-2.6,12.4,0.1c2.1,1.4,3.5,1.7,4.7-0.9
			c0.4-0.8,1.1-1.4,2-1.2s1.1,0.9,1.2,1.8c0.6,5.8,8.9,10.6,14.4,8.1c2.1-1,3-0.4,4.7,0.5C130.4,158.7,134.8,158.7,139.1,159z"/>
		<path class="st59" d="M12.1,162c-0.2-3,0-5.8,2.4-8.2c1.8-1.8,2.2-4.1-0.2-6.1c-1.8-1.5-1.1-3.3-0.1-4.9c1.3-1.9,2.9-4.6,5.4-3.5
			c3.9,1.6,7.8,0.8,11.7,0.8c6.9,0,9.2,3.4,5.5,9.2c-2.1,3.2-1.6,5,1.3,6.8c-4.8,2.2-9.3-1.5-13.9-0.7c-2.9,0.5-8.8-3.3-7.1,4.8
			C17.5,161.9,14.1,162,12.1,162z"/>
		<path class="st60" d="M365,162.9c-13.1-0.1-26.2,0.5-39.2,2c-3.7,0.4-7.2-0.6-10.8-1c-13.4-1.5-26.6,1-39.9,1
			c-1.5-1-3.2-1.8-2.3-4.1c7.7-3.2,15.7-5.1,24.1-4c2.5,0.3,4.8,0.4,7.4-0.3c6-1.6,7.9-4.2,7.4-10.6c-0.1-1.4-1.6-3.1,0.1-4.1
			c1.7-1,3,0.7,4.3,1.8c3,2.5,8,2.7,8.7,8.5c2.4-6.2,3.1-6.4,6.8-2.1c1.4,1.6,3.3,2.2,5.2,2.5c1.8,0.3,3.7,0.2,5.2,1.4
			c1.2,1.1,2.5,2,4.3,2.2c12.8,1.2,25.4-0.3,37.9-2.9c11.6-2.4,22.8-0.1,34.1,1.6c1,0.2,1.9,0.7,2.1,1.8c-0.8,2.1-2.7,2.4-4.5,2.4
			c-5-0.1-10,0.7-14.9-0.5c-0.3-0.1-0.7-0.2-1-0.1c-10.2,1.1-20.4,1.6-30.7,1.8C367.2,160.4,366.4,162.2,365,162.9z"/>
		<path class="st61" d="M233,164c-2.7,0-5.3-0.2-8,0c-3,0.3-5.1-0.6-6.6-3.2c-1.3-2.4-3.5-3-5.9-2.8c-5.8,0.7-11.8,0-17.5,2
			c-0.2-2.9,2.3-3.3,4-4.3c2.8-1.7,4.7-3.5,5.4-7.1c0.7-4.1,3.3-7,8-7.2c4.6,2.3,5.5,3.8,3.6,8.1c-1.6,3.7-0.3,5.4,2.9,6.3
			c5.9,1.6,11.9,1,17.8,0.5c2.5-0.2,3.2-2.5,3.9-4.7c2.1-6.1,3.7-6.9,9.3-4.8c3.1,1.2,5.5,0,7.9-1.5c6.9-1.3,13.9-0.6,20.8-0.4
			c2.4,0.1,4.8,1.1,5.5,3.6c0.8,2.4-1.3,3.9-2.9,5.3c-2.9,2.4-5.9,4.5-9.8,1.7c-1.8-1.3-3.4-0.2-5.1,1.1c1,1.7,2.8,0.8,3.9,1.5
			c0.9,0.5,2.5,0.7,1.3,2.4c-6.8,1.4-13.8,2-20.7,1.4c-3.9-0.3-7.6,0-11,2.1C237.7,164,235.4,164,233,164z"/>
		<path class="st62" d="M365,162.9c-0.7-3.1,0.4-4,3.7-4.1c4.6-0.2,9.2-0.8,13.7,0.2c4.7,1,8.6-2.3,13.1-2.1
			c6.2,0.3,12.4,1.4,18.7,1c2-0.1,4,0.1,5.8-1c6.4-3.6,21.8-3.6,27,0c-8.4,0.9-16.1,5.7-24.8,5c-1.4-0.1-3-0.4-4.2,1
			c-10,0-20,0-30,0C380.3,163,372.7,163,365,162.9z"/>
		<path class="st63" d="M240,164c2.2-3.8,5.1-4.1,9.4-3.3c7.5,1.4,15-1.5,22.6-0.7c0.6,0.1,0.9,0.4,1,1c-0.1,1.7,1.4,2.6,2,4
			c-7.4-0.6-14.8-1.1-22.2-1.9C248.5,162.6,244.4,164.7,240,164z"/>
		<path class="st61" d="M447,157c-9-1.9-18-1-27,0c-6-2.1-12.3-2.1-18.4-2.9c-11.6-1.4-22.9,1.6-34.3,3.6c-2.5,0.4-5.1,0.7-7.8,0.6
			c-4.4-0.2-8.7-2.1-13.3-0.5c-2.7,1-4.8-0.7-5.3-3.8c0.6-2.7,2.7-1.7,4.2-1.6c4.2,0.4,8.5,1.3,12.7,0.6c10.1,1.7,19.9-0.1,29.6-2.6
			c2.1-0.5,4.5,0.4,6.8,0.6c1,0.1,2.2-0.1,2.3-1.3c0.1-1.3-1-1.5-2-1.6c-1.2-0.1-3.1,0.1-2.9-1.7c0.2-1.6,2.1-1.2,3.3-1.3
			c4.2-0.5,7.8,0.4,10.5,4.1c1,1.4,2.2,3,4.4,2.9c1.1-0.9,3.3-0.2,3.6-2c0.4-2.1-1.7-2.5-2.9-3.5c-3.5-2.7-4.5-5.5-2.8-7.8
			c1.8-2.4,5.5-2.3,9.1,0.4c1.2,1.3,2.5,1.5,4.3,1.5c3.7,0,7.5,0.2,11.1,1.6c3,1.2,6.1,2.6,9.5,1.1c1.5-0.6,3.2-0.2,3.7,1.5
			c2.6,8.1,10.1,7.2,16.1,8.6c1.5,0.4,3.4,0.6,5.2,0.6c0.5-0.4,1-1,1.7-1c10.5,0,21.1-2.1,31.6,0.9c4.2,1.2,8.1,1.8,12.6,0.2
			c4.4-1.5,9.1,0.8,13.7,0.8c5.1,0,10.1-1.6,15.3-0.4c1.7,0.4,2.8-0.7,2.7-2.6c-0.1-1.6,0.3-3.2,2.2-3.3c2.2-0.1,3.5,1.7,3.5,3.5
			c0,2.7,1.1,4.2,3.6,4.9c-0.6,1.3-1.7,2.3-3.1,1.9c-7-2-13.9-0.4-20.9,0.1c-9.6-2.3-19.5-0.1-29.2-1.8c-3.8-0.7-7.9,0.5-11.8,0.8
			c-7.8-1.5-15.5-2.6-23.6-1.3C459.4,157.7,453.1,156.9,447,157z"/>
		<path class="st64" d="M548,117c1.3,1.5,3.1,0.9,4.7,1c8.3,0.4,16.7,0.7,25,1c2.2,0.1,4.3-0.2,6.2-1.5c0.9-0.6,2.2-2.1,2.9-0.6
			c1.1,2.3,4.9,4.5,3.4,6.4c-1.8,2.4-0.4,3.8-0.4,5.7c0,5.6,0.6,11,3.3,16c1.4,1.7,0.2,3.4-0.1,5.1c-0.2,1.2-1.2,2.6,0.2,3.6
			c1.3,0.8,2.5-0.1,3.6-0.7c2-0.9,3.8-2.9,6.2-1c-1.1,2-3,3.2-4.9,4.5c-1.7,1.2-4,2.6-2.2,5.4c-1.5,0-2.8-0.3-4.3-0.7
			c-3.9-1-7.3-3.5-12.3-0.8c-4.7,2.6-10.2-1.5-15.4-2.5c-1.6-1.4-4.6-0.9-5-3.8c2.2-2.3,4.6-1.2,6.8-0.1c4,2,8.2,2.6,12.6,1.7
			c4.1,0.3,5.9-1.6,5.1-5.7c-0.5-2.8,0.7-4,3.5-3.9c1.1,0,2.6,0.1,2.6-1.5c0-1.5-1.6-1.3-2.7-1.7c-1.9-0.7-3.2-0.4-4.9,1.1
			c-4.7,4.4-9,4.5-13.3,0.1c-3.3-3.4-5.1-0.9-7.3,1c-2.5-0.5-2.5-2.3-2.2-4.2c0.2-1.2,0-2.4-1.4-2.8c-1.3-0.4-1.5,0.8-2.2,1.4
			c-4.1,3.5-8.5,6.5-14.2,6.7c-5,0.2-10,0-14.9,0.9c-2.1,0.4-4.3,0-6.4-0.5c-7.5-1.8-14.3-5.2-21.6-7.6c-2.1-0.7-4.2-2-3-4.8
			c1-2.4,3.2-1.9,5.2-1.2c1.6,0.5,3.2,1.1,4.7,1.7c3.6,1.4,6.8,1.4,10.2-1.2c2.9-2.3,6.6-3.5,9.6-6c2.8-2.3,6.3-1.9,9.3,0.3
			c3.3,2.4,7.1,3.5,10.9,4.7c3.5,1.1,6.6,1.6,9.7-1.3c2.1-2,4.7-0.9,7.1-0.2c4.9,2.5,10,2.1,15,0.2c2-0.7,3.6-2.1,2.8-4.5
			c-0.7-2.2-2.7-2.4-4.5-1.9c-7.5,2.2-15.1-0.8-22.6,0.1c-2.6-1.3-5.3-1.1-7.8-0.1c-4.2,1.7-8.4,1.3-12.7,1.4
			c-11.3,0.2-22.5-0.9-33.8-0.3c-1,0.1-2-0.2-2.8-0.8c-4.4,0.6-8.6-1.4-13-1c-1.2-0.8-3-1.6-2.3-3.3c0.8-2,2.9-1,4.4-1.1
			c14.3-0.5,28.5-1.2,42.7-2.5c6.1,0.4,12-2.1,18.1-1C546.4,116.8,547.1,117,548,117z"/>
		<path class="st65" d="M603,152c-2.5-0.2-4.4,1.1-6.2,2.5c-1.6,1.1-3.2,1.5-5,0.4c-2.3-1.4-0.6-2.8-0.2-4.2
			c0.5-1.9,0.9-3.8,1.4-5.7c1.3-3.6,2.1-6.8-0.5-10.4c-3.8-5.2-1.4-9.8,4.9-9.4c3.1,0.2,5.4-4.2,8.7-1.2c-0.1,0.2-0.2,0.4-0.3,0.6
			c-3.6,4.1-2.7,9.3-3.6,14.1c-0.4,1.9,0.1,4-0.3,5.9c-0.7,3.4,1.2,3.6,3.7,3.1c0.2,0.1,0.4,0.3,0.6,0.4
			C605.8,150,604.5,151.1,603,152z"/>
		<path class="st65" d="M606,124c0.3,0,0.7,0,1,0c3.6,8.2,2.4,16.2-0.9,24.1l-0.2-0.2c-0.6-0.6-1.1-1.5-0.9-2.2
			C606.8,138.5,606.5,131.3,606,124L606,124z"/>
		<path class="st66" d="M562,132c-2.9-0.8-5.6-2-7.7,1.8c-1.2,2.1-3.9,1.5-6,0.8c-5.1-1.7-10.6-2.5-15-6.3c-2.9-2.4-6.9-1.6-8.5,0.9
			c-3.1,4.7-8.8,4.4-12.6,8c-2.1,1.9-7.3-1.5-11.1-2.6c-1.6-0.5-3.5-2.7-4.6,0c-1.2,2.9,1.8,3.1,3.5,3.5c6,1.4,11.2,4.7,17.1,6.3
			c4.6,1.2,8.9,1.9,13.6,0.9c3.8-0.8,8-0.2,12-0.2c1.7,0,3.9,0,4.5-1.5c1.1-2.6,1.8-3.5,4.7-2c1.4,0.7,2.7-1.5,3-3.2
			c0.2-1.6-0.1-4,2.6-2.3c1.6,1,5.3,1.1,3.3,4.6c-1.2,2.1-0.9,3.4,1.1,4.5c0.1,0.2,0.3,0.4,0.4,0.6c0.3,2.4-1.4,3.1-3.3,3.5
			c-1.3,0.3-2.6,0.5-3.8,0.9c-1.1,0.4-2.8,0.3-2.6,2.3c0.2,1.6,1.2,2.2,2.6,2.4c1,0.1,2,0,2.9,0.2c0.2,0,0.5,0.1,0.7,0.1
			c2,0.4,4,1,5,3c-3.4,0.2-6.6-1.6-10-1c-3.1,0.8-5.9,1.5-4.4-3.6c0.5-1.6-0.6-4.1-2.7-3.9c-2.4,0.2-1,2.4-0.7,3.6
			c0.7,2.5-0.8,3.2-2.6,2.9c-9.2-1.4-18.6,2-27.8-1.1c-0.7-0.2-1.9-0.3-2.3,0.1c-3.2,2.9-6.9,2.2-10.3,1c-11.9-4.1-24.1-1.1-36.1-2
			c0.3-2.7,1.6-4,4.5-4.1c3.8-0.1,7.6-0.6,10.7-3c1.4-1.1,4.3-1.1,3.1-4.1c-1.1-2.6-3.2-3.8-5.9-3.7c-2.4,0.1-6.1,2.6-6-1.8
			c0-3.3,3.5-3.5,6.6-2.6c1.6,0.5,3.6-0.4,4.1-2c0.7-2.3-1.6-2.8-4.6-3.1c4.7-1,7.9-1.7,11.5-0.8c1.9,0.4,6.5,1.6,4.9-3.8
			c6.3-1.1,12.6-1.2,19-0.2c5.8,0.9,11.7-1.4,17.6-0.1c5.4,1.2,10.5-0.9,15.6-2c2.1-0.5,3.5-0.3,4.8,1.3c-0.7,1.2-2.4,1-3.4,2.5
			c2.6,1.8,5.7,1.5,8.4,2.3C559.8,129.2,562.1,129.1,562,132z"/>
		<path class="st39" d="M697.9,90c-2.1,0.1-4.2-0.1-7.5-1.2c4.3,5.3,5.6,11,10.5,14.3c1.3,0.9,3,2.6,1.3,4c-1.6,1.3-2.6-0.5-3.5-2.1
			c-1.9-3.2-3.2-2.1-3.8,0.9c-1.6-2.6-1-5.7-1.9-8.5c-0.3-1.1-0.2-2.5-1.4-3c-3.1-1.3-2.5-3.5-1.5-5.7c1.4-3.1,3.8-0.5,5.6-0.7
			C696.8,88.1,697.5,89.1,697.9,90z"/>
		<path class="st42" d="M700.9,153c1.4,3.9-0.3,8.7,3.4,12.1c0.2,0.2,0.3,0.8,0.2,0.9c-2.5,1.4-4.4,2.8-0.4,4.9
			c0.4,0.2-2,1.1-1.9,2.5c0.1,1.1,0.3,2.3,0.5,3.4c-0.8-0.2-1.1-1.7-2.3-1c-2,1.2,0,2.9-0.6,4.2l0,0c-1.7,1.2-2.9,0.3-4-1
			c-5-3.3-5-9.7-8.7-13.9c-1.3-1.6,3-9.2,5.3-9.7c2.9-0.6,2.7,1.7,2.2,3.1c-1,3.2-0.7,5.9,1.7,8.2c0.6,0.6,1.9,1.4,2.7,0.4
			c1.9-2.5,1.7-5.4,1.3-8.5C700.2,156.8,698.7,154.6,700.9,153z"/>
		<path class="st38" d="M695.9,179c1.3,0.3,2.7,0.6,4,1c-1.2,3.1-3.2,4-6.1,2C693.7,180.4,695.3,180,695.9,179z"/>
		<path class="st38" d="M706,121c2.4,2.5,2.7,4.6-1.1,6C705.3,125,705.6,123,706,121z"/>
		<path class="st67" d="M695,257.8c-5.1-0.3-9.8-3.9-10.7-8.1c-0.5-2.6,0.1-4.1,3-3c3,1.1,6.1,1.5,9.3,1.2c3.3-0.2,3.5,1.6,3.2,4
			c-1.6-0.5-2.4-3.1-3.9-2.5c-2,0.8-0.7,3.2-1,4.9C694.8,255.5,695,256.6,695,257.8z"/>
		<path class="st68" d="M693.9,217.9c3.5-0.1,4,2.2,3.9,5c-0.8,0.1-1.7,0-2.4,0.4c-2,1.1-3.6,0.7-4.7-1.1c-1.2-2.1,1.7-1.9,2.1-3.1
			C693.1,218.5,693.6,218.2,693.9,217.9z"/>
		<path class="st69" d="M692.9,232.2c-0.5,1.3-1.4,1.8-2.7,1.4c-1.1-0.4-3-0.1-2.9-1.9c0.1-1.7,1.5-1.9,2.9-1.7
			C691.6,230.1,692.8,230.5,692.9,232.2z"/>
		<path class="st70" d="M696,242.9c0.5,1.1,2.7,1.6,1.5,3.1c-1.2,1.6-3,0.6-4.6,0.5c-1.1-0.1-2.4-0.3-2.7-1.6
			c-0.2-1,0.5-1.6,1.4-1.7C693,243,694.5,243,696,242.9L696,242.9z"/>
		<path class="st52" d="M258,146c-2.3,4-5.6,3.6-9,2c-3.7-1.7-6.3-0.9-6.8,3.1c-0.7,5.9-4,7.4-9.3,6.9c-5.7-0.5-11.6,1.2-17.1-2
			c-2.7-1.6-3.8-3.1-1.6-5.8c2.9-3.7,1.6-6.3-2.2-8.2c0.4-0.8,1.2-1.3,1.9-1.9c0.6-0.4,1.2-0.7,1.8-0.9c0.7-0.1,1.6-0.3,1.9,0.1
			c3.9,4.3,8.7,2.8,13.4,2.5c4.8-0.3,6.5-1.7,7.2-7.2c-0.6-1.9-2-1.8-3.5-1.6c-4.3-1.2-5.5-3-4.7-7c0.8-3.8,2.6-4.9,6.8-4.2
			c0.8,0.1,1.7,0.7,2.4,0.2c4.1-3,8.8-1.9,13.3-2c0.5-0.1,1-0.2,1.5-0.3c9.3-2.9,18.2-1.2,27.1,2.3c3.1,1.2,6.2,1.2,9.4-1.1
			c3.4-2.5,7.7-3.8,13.1-4.5c-2.6-0.9-4.4-0.2-6-0.5c-2.3-0.5-4.7-0.8-4.5-4.1l0,0c5.8,0.2,11.4,0.4,17.2,1.5
			c4.7,0.9,10-0.2,15.1,0.3c2,0.2,3.8,0,5.5,1.3c0.7,0.6,2.1,1.1,2.7,0.8c6-3.4,11.8,1.2,17.7,0.1c0.9-0.2,2-0.1,2.9,0.2
			c1.4,0.5,3.2,0.8,3.4,2.5c0.2,1.9-1.7,2.1-3,2.8c-1.1,0.6-2.7,0-3.6,1.3c-4.8,1.3-9.9,2.4-14.6,1.6c-7-1.3-14.2-1-21.2-2.7
			c-4.8-1.2-7.5,0.6-9.1,5.5c-0.8,2.4-2.4,3.6-4.6,4.1c-4.6,1-7.3,3.8-9.3,8.1c-3.3,7.3-4.2,7.4-12.2,5.5c-2.5-0.6-5.1,0.3-7.8-0.3
			c-4.7-1.2-6.4-2.8-6.3-7.7c0-0.8,0.2-1.6,0.3-2.5c0.5-5.2-0.2-6.2-5.2-7.7c-1.1-0.3-2.1-1-3.2-1.4c-0.6-0.3-1.4-0.4-1.8,0.3
			c-0.6,0.9-0.1,1.6,0.7,2c0.9,0.5,1.9,0.6,2.8,1.1c3.1,1.9,4.2,5.3,2.1,8.1C259.5,139.8,258.9,142.9,258,146z"/>
		<path class="st71" d="M258,146c-1.3-3.1-0.6-5.6,1.5-8.2c3.7-4.4,2.6-7.3-3.1-8.1c-1.5-0.2-2.2-0.9-2.3-2.1
			c-0.2-1.4-0.7-3.1,0.7-4.2c1-0.7,2.3-0.5,3.2,0.3c1.6,1.5,3.3,2.2,5.8,2c3.6-0.2,3.2,3.6,4,5.8c0.3,0.8,0,2-0.2,2.9
			c-1.6,7.8,2.6,11.8,9.9,9.2c1.9-0.7,2.7,0.3,3.9,0.9c3.6,1.9,6.8,0.8,8.2-2.7c1-2.6,2.7-4.8,3.6-7.6c1.1-3.7,5.5-2.9,8.4-4.2
			c1.8-0.8,3.1-1.3,3.4-3.5c0.6-4.9,5.6-7.3,10.7-6.4c9.6,1.7,19.2,4,29,2.5c2.3-0.4,4.2,0.4,6.3,0.2c0,0.3,0,0.7,0,1
			c-1.4,1.8-3.8,0.7-5.6,1.8c1.1,3.2,6,0.5,6.6,4.2c1,1,2,2,3,3c-2.4,2.7-6.3-0.8-9,2.5c3,0.8,5.5-0.8,8.2-0.7
			c3.1,0.1,6.3-0.4,9.3,0.5c1.4,0.4,3.5,0.2,3.5,2.6c-5-0.5-9.8,0.6-14.8,1c-2.9,0.2-4.4,2.7-6.4,4.3c-2.4,1.8-4.5,4.1-7.8,1.4
			c-1.8-1.4-2.9,0.8-4.2,1.6c-0.9,0.6-0.3,1.4,0.2,2.1c1.1,1.5,2.2,0.1,3.4,0.1c7.2-0.1,14.5-0.4,20.6,4.5c-4.3,4.4-9,0.1-13.5,0.6
			c-1.2,0.1-2.5-1-3.5,0.4c-4.6-0.2-9.8,1.1-11.5-5.3c-0.1-0.3-1.2-0.6-1.8-0.5c-1.5,0.1-0.8,1-0.4,1.7c1.2,2.2-0.4,3.4-1.9,3.7
			c-1.9,0.4-3.4-1.3-3.1-3c0.4-2.6-1-3.4-2.9-3.5c-3.4-0.1-4.3-4-8.1-5c3.5,4.1,1,7.9,0.7,11.7c-0.1,1.8-1.8,3.3-3.3,3.3
			c-3.6,0-6.7,2.2-10.8,1.2c-5.4-1.3-11.2-1.1-16.6,1.2c-2.6,1.1-5.4,1-8.1,1.5c-0.3-0.3-0.7-0.7-1-1c-2-1.9-4.4-0.7-6.6-1
			c-1.8-0.2-2.6-0.7-1.3-2.5c1.9-2.7,6.6-3.5,9.1-1.4c2.4,2,4,0,5.7-1.1c2-1.3,4.9-2.7,4.4-5.3c-0.3-1.7-2.9-2.8-5.4-2.8
			C271.3,146,264.7,146,258,146z"/>
		<path class="st72" d="M352,130c-2.1-2-5.2-0.2-7.3-2.1c-0.8-0.8-2.2-1.3-2-2.5c0.3-1.3,1.7-1.3,2.9-1.3c1.8,0,3.6,0,5.4,0
			c10.8-1.9,21.6,0.6,32.4-0.9c5.1-0.7,9.5,0.3,14.2,1.5c1.7,0.5,3.5,0.9,5.4,0.5c13-2.3,26.2-2.2,39.4-2.2c1.3,0,2.7-0.3,3.7,1
			c-3,2.2-6.4,0.8-9.6,1.3c-1.4,0.2-3.4-0.5-3.5,1.7c-0.1,1.8,1.4,2.9,3.1,3.4c0.5,0.2,1,0.3,1.5,0.2c5-0.7,9.8-2.6,14.9-3.1
			c3.2-0.3-1.5-2.2-0.3-3.5c6.7-0.9,11.4,4.1,17.2,5.9c1,0.3,2,1.6,1.1,2.8c-1.4,1.9-3.4,1.6-4.9,0.4c-3.9-3.2-8.6-3-12.1-0.8
			c-4.2,2.6-8.3,2.6-12.7,2.7c-4,0.2-7.6-1.4-11.4-2.4c-6.7-1.8-13.2-5-20.5-3.4c-0.2,0-0.4,0.2-0.5,0.1c-7.7-3.5-13.8,3.5-21.1,3.2
			c-2.2-0.1-4.5-0.1-6.2-0.9c-5.7-2.8-11.3-2.2-17.2-0.9C359.9,131.7,355.9,130.7,352,130z"/>
		<path class="st73" d="M417,139c-0.3-0.1-0.7-0.1-1-0.2c-2.7-0.7-6-2.4-7.5,0.8c-1.6,3.5,1.6,5.1,4.4,6.4c2.1,1,3.8,2.3,2.5,5
			c-1.4,2.9-3.4,1.9-5.4,0.9c-1.1-4.3-5.3-6.2-7.4-9.7c-1.1-1.8-2.4-3.5-3.3-5.4c-1.6-3.4-0.2-5.8,3.6-5.7c7.1,0.3,14,1.2,19.5,6.4
			C421,139.9,418.8,138.6,417,139z"/>
		<path class="st74" d="M367,138c-5.9-3-12-2.3-18-0.9c-1.6,0.3-3.1,1.7-4.5,0.1c-0.4-0.5-0.4-1.7-0.1-2.3c0.8-1.8,2.6-2.8,4.4-2.6
			c2.1,0.3,4.2,0.9,6.3,0.7c8-2,16-0.9,24,0.2c1.2,0.2,2.8,0.7,2.8,2.4c0,1.9-1.5,2.5-3.1,2.4C374.8,137.6,370.9,140,367,138z"/>
		<path class="st75" d="M452,124c0.6,1,1.7,0.9,2.6,1.1c0.9,0.1,1.8,0.6,1.7,1.4c-0.1,0.7-0.9,1.8-1.4,1.8
			c-6.5,0.6-12.6,3.8-19.2,3.5c-3.2-0.1-4.1-3.1-4.9-5.6c-0.7-2.3,1.4-2.2,2.8-2.2c4.1-0.1,8.3,0,12.4,0
			C448,124.8,450,123.9,452,124z"/>
		<path class="st66" d="M528,118c-6.4,0.4-12.7,1.3-19.1,1c-4.9-0.2-9.8-0.3-14.7,1.6c-2.8,1.1-5.8,0.3-8.8-0.5
			c-1.2-0.3-2.9-0.7-3.7,0.5c-1,1.4,1.1,2.2,1.3,3.4c-3.5-0.1-7,0-10.4-0.4c-1.3-0.1-3.2-0.8-3.1-2.6c0.1-2,2-2,3.5-1.9
			c9.1,0.2,18.2-0.3,27.3-1c8.6-0.6,17.2-0.7,25.8-1.1C527.1,116.4,528,116.2,528,118z"/>
		<path class="st51" d="M528,118c-0.4-0.8-1.2-1-2-1c6.6-1.1,13.2-3.4,20-1C540,116.8,534,118.1,528,118z"/>
		<path class="st76" d="M133.1,115c1.6-3.4,6.2-0.9,8-4c8.8-0.2,17.5,0.7,26.2,2.2c3.7,0.6,7-1.1,10.5-1.5
			c7.2-0.9,14.3-0.4,21.4-0.7c-2.1,1.2-4.3,1.9-6.9,1.2c-4.4-1.2-8.7,1-13.1,0.8c-3.2,1.1-2.4,5.8-7,6.4c3.4,0.5,5.9-0.1,8,1.6
			c1.7,0.3,3.3,0.7,5,1c2.9,1.8,4.6,4.7,6.6,7.3c1.2,1.7,2,3.8-0.1,5.3c-1.9,1.4-3.4-0.3-4.9-1.3c-0.4-0.3-0.8-0.6-1-1.1
			c-2.6-6.1-8.1-6.1-13.4-6.4c-2-0.1-3.3,0.2-3.4,2.4c-0.1,1.6-0.9,2.8-1.5,4.2c-0.5,1.2-0.4,2.5,0.9,3c3.5,1.2,6.4,4.5,10.9,1
			c3.8-3,8.1,0.1,11.4,2.2c3,1.9,5.1,2.7,8.6,1.2c2.8-1.1,6.2-0.7,9.3-1.3c1-0.2,1.9,0.4,2.1,1.6c-0.5,2.1-2.5,2.8-4,3.2
			c-7,1.7-14,4.2-21.2,1.6c-3.5-1.3-7-0.8-10.1,0.5c-3.2,1.3-5,0.6-6.6-2c-0.8-1.4-2.1-2.1-3.5-2.5c-3.6-5.7-7.6-10-15.3-6.6
			c-1.7,0.7-3.7-1.1-5.4-2.1c-3.4-2.1-3.4-3.3-0.1-5.7c1.1-0.8,2.1-1.6,2.7-2.8c1.5-2.7,3.3-3.2,5.3-0.5c0.6,0.9,1.4,1.5,2.5,0.9
			c1-0.6,0.9-1.7,0.7-2.7c-0.6-3.5-2.2-5.7-6.1-6.1c-4-0.4-8,0-11.9,0.2C135.9,115.5,134.4,116.2,133.1,115z"/>
		<path class="st77" d="M210,140c-4.3,0.4-8.8-0.5-12.7,2.1c-2.4,1.7-4.1,0.1-5.8-1.1c-1.6-1.1-2.7-2.6-4.9-3.1
			c-3.6-0.8-7-3-9.7,1.7c-0.6,1-2.8,0.6-4.1-0.4c-1.6-1.2-3.3-2.2-5.4-2.3c-0.5,0-1-0.3-1.3-0.6c-1.3-1.2-1.6-3.6-0.6-3.9
			c4.2-1.3-1.6-9.9,6.1-8c2,0.5,3.9,0.6,5.9,0.6c3.5,0,6.1,1.3,7.7,4.4c0.3,0.6,0.5,1.3,0.9,1.8c1.4,1.6,3.1,4,5,2.6
			c2.3-1.6-0.3-3.7-1.4-5c-1.8-2.2-3.8-4.1-4.8-6.8c2.5-1.7,5.1-0.4,7.6-0.1c2.1,0.3,2.5,2,1.9,4.2c-0.8,2.8-1.4,5.9,0.8,8.5
			c0.7,0.8,1.6,1.5,2.6,1c1.4-0.6,0.7-1.7,0.2-2.5c-1.9-3.1,2.1-6.6-0.7-9.7c-0.3-0.3,1.1-1.2,2.3-1.2c4.8,0,9.5-0.2,14.3-0.3
			c0.6,2.2,2.4,1.1,3.7,1.4c1.8,0.4,3.8,0.7,3.8,3.2c0,2.3-1.9,2.4-3.6,2.6c-1.8,0.2-3.6,0.4-5.3,1.3c-1.1,0.6-1.9,1.4-2,2.7
			c0,1.6,1.2,1.7,2.4,2c2.7,0.8,5.3,1.7,1.9,4.9c-0.3,0.3-0.7,0.7-1,1C212.4,141.9,211.1,141.6,210,140z"/>
		<path class="st76" d="M215,140c1.2-2.3,0.9-4.1-2.1-3.7c-1.8,0.2-3.3,0.7-3.8-1.6c-0.4-2.1,0.1-4.1,2.1-5.1c1.9-1,3.9-1.6,6.2-1.6
			c1.3,0,3.5,0.6,3.2-1.7c-0.2-1.7-2.3-1.5-3.6-1.9c-0.5-0.1-1.2,0.4-1.8,0.6c-0.9,0.4-1.9,1-2.6-0.2c-0.9-1.6,1.2-1.7,1.4-2.7
			c0.7,0,1.3,0,2,0c3.3-0.6,6.7,0,10-1c1.2-0.7,2.5-1.2,4-1c4.5,1.6,8.7-0.2,12.9-1.6c4-1.4,7.4-1,10.1,2.6
			c-1.4,1.6-2.9,0.8-4.5,0.3c-2.3-0.6-4.5-0.6-6.5,1c-1.4,1.1-3,2.1-5,1.1c-1.4-0.6-2.9-2.2-4.4-0.3s-1.9,4.2-1.4,6.6
			c0.6,2.7,2.9,2.2,4.8,2.2c-0.1,2.7-2.4,2.3-3.6,1.8c-3.4-1.3-6.2,0.1-9.1,1.3c-1.2,0.5-3,0.5-2.7,2.3c0.4,1.8,2,2.7,3.8,2.6
			c5.6-0.2,10.9-1.2,14.6-6c1.3,4.2-2.1,8.6-6,9.1C226.6,144,220.5,144.1,215,140z"/>
		<path class="st77" d="M253,121c-4.1-2.3-8-2.3-12.5-0.5c-3.2,1.2-7.1,1.5-10.5-0.5c2.9-0.5,6.4,1.3,8.4-2.4
			c-4.9-3.9-9.8-1.6-14.7-0.6c-1.1,0.2-3,1.1-3.3,0.7c-3.7-5-10.3-2.3-14.5-5.7c1,0,2,0,3,0c7,0.5,14,1.1,21.1,0.6
			c5.3-0.4,10.7,0.9,16.1,0.3c1.8-0.2,3.8,0.5,5.9,0.2c2.8-0.4,5.5,0.2,6.4,3.3c1.1,3.8-2.6,3.4-4.5,4.6
			C253.7,121,253.4,121,253,121z"/>
		<path class="st77" d="M180.1,121c-2.8,0-5.6,0-8.5,0c-0.8,0-1.8,0.1-2-1c-0.1-0.4,0.3-1.2,0.5-1.2c3.7,0,4.8-3.1,6.6-5.4
			c0.4-0.5,1.6-0.3,2.4-0.4C177.3,115.9,178,118.6,180.1,121z"/>
		<path class="st77" d="M226,121c-3.2,1.6-6.5,1.9-10,1C219.2,120.2,222.7,121.3,226,121z"/>
		<path class="st78" d="M254,121c0.8-1.8,4.9-1.3,3.6-4.5c-1.2-2.8-3.8-3.1-6.3-2.1c-1.6,0.6-2.9,0.3-4.2-0.5
			c-1.6-0.9-3.1-1.1-4.7-0.1c-2.5,1.6-5,1.3-7.6,0.2c-2.2-0.9-4.4-0.5-6.7-0.4c-6.3,0.3-12.7-0.2-19-1.6c8.1-0.4,16.2-0.3,24.2-0.6
			c7.6-0.3,15.4,1.2,23.1-0.2c0.5-0.1,1.5,0.3,1.7,0.7c3.1,4.9,7.4,3.3,11.4,2c2.6-0.8,5.1-1.4,7.6,0.1c0.9,0.6,1.9,0.5,2.8-0.1
			c4-2.8,8.6-1.9,13-2c2,3.8,5.3,3.3,8.6,2.6c1.8-0.4,3.7-0.3,3.8,1.6c0.1,1.6-1.4,2.7-3.6,2.3c-4.2-0.8-8.7,1.5-10.7,3.7
			c-4,4.5-7.9,2.3-11.1,1.1c-8-3-15.7-5.1-24.1-2.3C255.4,121.1,254.7,121,254,121z"/>
		<path class="st77" d="M133.1,115c6-1.6,12-1.6,18.1-0.9c3.3,0.4,7.3,6.8,6.2,9.8c-0.6,1.5-2.1,1.9-3.6,2.3
			c-1.8,0.5-2.4-0.4-2.7-1.9c-0.2-1-0.3-2.1-1.6-2.1c-1.3,0.1-1.3,1.2-1.5,2.2c-0.3,2-1.9,2.5-3.4,3.2c-0.8,0.4-2.2,0.3-2.1,1.6
			c0.1,1.1,1.4,1.2,2.2,1.7c3.1,2,6.2,3.2,9.6,1.2c4.1-2.4,6.4-1,8,3.1c0.6,1.6,1.2,3.5,2.8,4.6c1.7,1.7,3.5,3.6,2.1,6
			c-1.4,2.7-4.2,2.2-6.7,1.7c-1-0.2-2.2-1.1-2.8-0.7c-5.4,3.9-8.9-1.8-13.4-2.6c-1.5-0.3-2.4-1.7-3.4-2.8c-0.8-1-1.7-1.8-2.7-0.2
			c-0.2,0.4-0.4,0.8-0.6,1.2c-1.3,3.5-3.6,5.6-7.6,5.4c-1.8-0.4-2.4-3.6-5-2c-4.1,0.8-6.8-0.1-6.7-5c0-1.4-0.8-2.9-0.9-4.3
			c-0.5-4.4,1.2-6,5.1-5.2c1.5,0.3,3.3,1.1,3.8-0.8c0.6-2.1-1.8-2.4-3-3.2c-0.5-0.4-1.6-0.4-2.4-0.2c-1.8,0.5-3.7,1.5-4.6-0.9
			c-0.8-2.3,1.5-2.6,2.8-3.3c1.3-0.8,1.6-1.9,1.9-3.3c1.1-5.5,2.8-6.5,8.2-4.5C130.8,115.7,131.9,115.7,133.1,115z"/>
		<path class="st79" d="M137.1,141c0.6-3.3,2.8-3.9,4-1.1c2.1,4.9,8.7,2.9,10.4,7.7c0,0.1,0.4,0.2,0.4,0.1c4-4,8.5-0.4,12.7-0.8
			c1.8-0.2,2.6-1.3,1.8-3.2c-0.5-1.2-0.9-2.5-1.3-3.7c1,0.2,2.6,0.1,2.8,0.6c3.4,7.3,8.3,2.1,12.7,1.9c3.3-0.2,6.5,1.5,9.9,1.9
			s6,0.4,9.4-1.2c3-1.5,7.3-0.4,10.2-3.2c1.2,0.7,2.5,1.1,4,1c-0.4,0.8-1.2,1-2,1c-3.5,2-7.3,3.4-6.5,9c0.3,2.3-2.7,3.8-4.8,5.2
			c-1.9,1.2-4.5,1.5-5.7,3.8c-1,0-2,0-3,0c-7.7,0.7-15.3,0.5-23-0.1c-4-2.3-8.1-4.4-11.9-7.2c-2.2-1.7-3.2-0.8-4.7,3.5
			c-2.4-0.8-2.3-2.8-2.5-4.9c-0.3-4.4-3.2-6.1-7.4-4.4c-0.8,0.3-1.4,1-2.3,0.6c-1.8-0.8-2.9,0.2-3.7,1.5c-1,1.6,0.6,2.3,1.3,3.3
			c0.6,0.7,1.8,1.3,1.3,2.4c-0.6,1.3-1.8,1.1-3,0.8c-2.8-0.7-5.9,2.3-8.3-0.5c-2.8-3.2,3.8-4,2.1-7.1c2.7-1.5,6.1-2.4,7-6
			c0.3-0.1,0.9,0.3,1-0.3C138,141.3,137.4,141.2,137.1,141z"/>
		<path class="st80" d="M169.1,159.9c7.7-0.6,15.3-0.6,23,0.1c-3.3,2-6.9,1.1-10.5,1c-9.3-0.3-18.6,0.7-27.8-1.1
			c-4.9-0.9-9.8-1.2-14.7-1c0.1-1.9,1.3-3,2.8-3.8c1.4-0.8,2.5-1.7,2-3.5c-0.6-2.7,1.3-2.6,2.9-2.6c2,0,1.7,1,1.6,2.6
			c-0.2,4.8,2.3,7.1,7,7.4C159.9,159.2,164.5,159.6,169.1,159.9z"/>
		<path class="st51" d="M562,132c-2.4-3.4-6.3-1.9-9.5-2.8c-2.2-0.7-5.3-0.4-5-3.4c0.3-2.8,3.5-1.5,5.4-1.8
			c5.7-0.3,11.4-1.4,17.1,0.8c1.6,0.6,3-1.2,4.6-1.5c2.8-0.4,6-1,7.1,2.5c1.1,3.4-0.6,5.8-4,6.7C572.5,134,567.1,135.3,562,132z"/>
		<path class="st81" d="M562,145c1.1-5.2,3-6,6.7-2.7c5.9,5.2,8.2,4.9,13.6-0.8c2.8-2.9,5.1,1.5,8,0.9c1-0.2,1.9,1.5,1.4,2.7
			c-0.9,2.2-2.5,3.3-5.1,2.3c-2.4-0.9-2.1,0.5-1.9,2.4c0.8,5.8-0.2,6.8-5.7,7.2c1.5-5.8,0.7-6.8-5.4-6.7c-3.7,0.1-7.2,1-10.9,1.2
			c-2.1,0.1-3.7,1.3-4.5,3.4c-2.7,0.5-4.2-1-4.3-3.4c-0.1-2.1,2.2-2.1,3.6-2.7C559.4,148,563.2,149.3,562,145L562,145z"/>
		<path class="st82" d="M558,154.9c-0.2-2.7,1-4.6,3.8-4.8c4.7-0.5,9.5-0.7,14.2-1.1c2.5-0.2,4.7,0.2,5.7,2.8
			c1.1,2.7-1.3,3.7-2.8,5.2c-5.1,1.3-10,0.7-14.5-2.2c-1.7-1.1-3.7-1.5-5.5,0.1l0,0C558.6,155.3,558.3,155.3,558,154.9z"/>
		<path class="st83" d="M605.9,124.1c2.8,5.7,2.5,11.6,1.1,17.6c-0.5,2-0.8,4.2-1.1,6.2c-1.4,0.6-2.4,2.9-4.3,1.6
			c-1.6-1.2-1.4-2.9-1.1-5c0.7-4.3,0.7-8.7,1.2-13.1C602.1,128.5,601.9,125,605.9,124.1z"/>
		<path class="st64" d="M558,154.9c0.3,0,0.6,0,0.9,0.1c-0.9,1.3-2.4,0.9-3.6,1c-2.4,0.3-3.8-0.9-4.2-3.2c-0.4-2.5,1.2-3.1,3.2-4
			c2.6-1.2,6.9,1,7.6-3.8c2.2,3.6-0.6,3.5-2.9,4.2c-1.5,0.4-3.9,0.3-4.3,2C554.3,153.1,556.5,154,558,154.9z"/>
		<path class="st77" d="M239,134c0.1,2.7-1.1,4.3-3.8,5c-3.3,0.9-6.6,2.2-10.1,2.5c-3.4,0.3-5.7-1.4-6.3-4.3c-0.6-2.9,3-2.2,4.2-3.4
			c4.1-3.7,8.9,0.5,12.9-1.8C238.2,130.9,238.9,132,239,134z"/>
		<path class="st61" d="M264.4,140.6c-0.4,1.1-1.3,2-2.5,2.1c-1.2,0.2-1.9-0.5-1.7-1.7c0.2-1.3,1.1-2,2.5-1.9
			C263.6,139.2,264.3,139.6,264.4,140.6z"/>
		<path class="st77" d="M162.5,114c1.9,0.1,4.5-0.2,4.3,2.6c-0.1,2.2-2,4.1-4.2,4.1c-2.4,0-4.6-2.2-4.7-4.3
			C157.8,114.2,160.4,113.9,162.5,114z"/>
		<path class="st76" d="M275.9,117.4c-0.2,1.8-1.4,2.7-3,2.5c-1.8-0.3-4.6-0.3-5-2.2c-0.4-2.1,1.9-2.6,3.9-2.6
			C273.6,115,275.5,115,275.9,117.4z"/>
		<path class="st50" d="M137.1,141c1.2-0.5,2.4-1.4,3.4,0.2c0.5,0.8,0.3,1.6-0.4,2.1c-1.6,1.1-2.3-0.1-3-1.3
			C137.1,141.7,137.1,141.3,137.1,141z"/>
	</g>
</g>
</svg>
