<?xml version="1.0" encoding="utf-8"?>
<!-- Generator: Adobe Illustrator 25.0.0, SVG Export Plug-In . SVG Version: 6.00 Build 0)  -->
<svg version="1.1" xmlns="http://www.w3.org/2000/svg" xmlns:xlink="http://www.w3.org/1999/xlink" x="0px" y="0px"
	 viewBox="0 0 591 161" style="enable-background:new 0 0 591 161;" xml:space="preserve">
<style type="text/css">
	.st0{display:none;}
	.st1{display:inline;stroke:#FFFFFF;stroke-miterlimit:10;}
	.st2{fill:#2C3032;}
	.st3{fill:#BBBEBF;}
	.st4{fill:#919B9D;}
	.st5{fill:#EDF3EE;}
	.st6{fill:#B5C0BE;}
	.st7{fill:#2E3B46;}
	.st8{fill:#35424B;}
	.st9{fill:#818B8C;}
	.st10{fill:#BCC4BF;}
	.st11{fill:#313D47;}
	.st12{fill:#1F2328;}
	.st13{fill:#181B1E;}
	.st14{fill:#727F82;}
	.st15{fill:#646A63;}
	.st16{fill:#D3DAD7;}
	.st17{fill:#232D38;}
	.st18{fill:#60696C;}
	.st19{fill:#F8F9E6;}
	.st20{fill:#303D48;}
	.st21{fill:#637C8B;}
	.st22{fill:#6F7A7C;}
	.st23{fill:#656F72;}
	.st24{fill:#7D8787;}
	.st25{fill:#6D7778;}
	.st26{fill:#889291;}
	.st27{fill:#6E7777;}
	.st28{fill:#394651;}
	.st29{fill:#B2B5A5;}
	.st30{fill:#666F70;}
	.st31{fill:#5E686B;}
	.st32{fill:#737A76;}
	.st33{fill:#434F57;}
	.st34{fill:#7C8E96;}
	.st35{fill:#49555A;}
	.st36{fill:#A0B3B8;}
	.st37{fill:#48565F;}
	.st38{fill:#E5E7D5;}
	.st39{fill:#4A5D69;}
	.st40{fill:#7A8484;}
	.st41{fill:#717B7C;}
	.st42{fill:#C6C8B7;}
	.st43{fill:#444A49;}
	.st44{fill:#444C4E;}
	.st45{fill:#99A2A0;}
	.st46{fill:#808987;}
	.st47{fill:#52616B;}
	.st48{fill:#4F585B;}
	.st49{fill:#B3BBB6;}
	.st50{fill:#ACAFA1;}
	.st51{fill:#5F6B70;}
	.st52{fill:#969F9D;}
	.st53{fill:#7F8B8D;}
	.st54{fill:#637178;}
	.st55{fill:#A2ABAC;}
	.st56{fill:#D6EFF6;}
	.st57{fill:#B2CCD7;}
	.st58{fill:#B9C1BF;}
	.st59{fill:#606667;}
	.st60{fill:#B2BBBC;}
	.st61{fill:#4F5657;}
	.st62{fill:#4E585A;}
	.st63{fill:#9FAEB2;}
	.st64{fill:#999E93;}
	.st65{fill:#5A6465;}
	.st66{fill:#AAB4B4;}
	.st67{fill:#889AA1;}
	.st68{fill:#4E5555;}
	.st69{fill:#545A56;}
	.st70{fill:#DDE4E1;}
	.st71{fill:#9CA9AA;}
	.st72{fill:#BFC8C6;}
	.st73{fill:#B0B5AB;}
	.st74{fill:#F4F9F3;}
	.st75{fill:#E5E9DD;}
	.st76{fill:#BAC1BB;}
	.st77{fill:#ADB8B7;}
	.st78{fill:#27333C;}
	.st79{fill:#28333D;}
	.st80{fill:#25303C;}
	.st81{fill:#1C232B;}
	.st82{fill:#191F25;}
	.st83{fill:#1B2127;}
	.st84{fill:#3D4D59;}
	.st85{fill:#1A2229;}
	.st86{fill:#737E7F;}
	.st87{fill:#27323B;}
	.st88{fill:#1B2229;}
	.st89{fill:#263039;}
	.st90{fill:#2E353B;}
	.st91{fill:#282E34;}
	.st92{fill:#414748;}
	.st93{fill:#3F4A50;}
	.st94{fill:#2C3945;}
	.st95{fill:#9EA7A3;}
	.st96{fill:#939C9B;}
	.st97{fill:#BDC5C0;}
	.st98{fill:#A4AFAD;}
	.st99{fill:#9AA3A0;}
	.st100{fill:#DFE1D1;}
	.st101{fill:#858E8E;}
	.st102{fill:#CDD2C7;}
	.st103{fill:#9EA9A7;}
	.st104{fill:#889190;}
	.st105{fill:#A9B1AB;}
	.st106{fill:#627178;}
	.st107{fill:#242A30;}
	.st108{fill:#35424C;}
	.st109{fill:#E2E4D4;}
	.st110{fill:#D0D4C8;}
	.st111{fill:#ABB4B1;}
	.st112{fill:#7C8686;}
	.st113{fill:#3E4B53;}
	.st114{fill:#D1D9D5;}
	.st115{fill:#E6E8D7;}
	.st116{fill:#ABB6B3;}
</style>
<g id="Camada_2" class="st0">
	<rect x="-351" y="-173" class="st1" width="1024" height="468"/>
</g>
<g id="Camada_1">
	<g>
		<path class="st2" d="M1,66c0.3-1,0.6-2,0.8-3.1c1.4-1.7,3-3.1,5.3-1.7c2.8,1.7,2.2,4.4,1.9,6.9c-0.7,3.1-0.7,6.3-0.5,9.5
			c0.2,7.6-0.3,15.2,0.4,22.7c0.1,1.6,0.9,4.4-2.7,3.6c-2.7-2.5-3.2-6-4.3-9.3c-0.4-1.3,0.2-3.2-1.8-3.6c0-2.3,0-4.7,0-7
			C1.5,78-0.2,71.9,1,66z"/>
		<path class="st3" d="M1,66c-0.3,6,1,12.1-0.9,18c0-6,0-12,0-18C0.4,66,0.7,66,1,66z"/>
		<path class="st4" d="M292.2,52.8c2.1,0.8,3.6-0.1,4.9-1.7c1.2,0.3,2.2,0.9,3.3,1.3c6.4,3.4,13,2.8,19.6,0.8c3.2-1,5.8-1,7.4,2.5
			c-0.1,0.9-0.4,1.8-1.1,2.1c-6.4,2.7-12.2,7.4-19.9,6.2c-5.5-0.8-10.8-1.3-16.2,2.1c-4.3,2.7-10,2.2-15,0.5
			c-3.8-1.3-6.9-0.7-9.2,2.5c-0.9,1.2-1.9,2.1-3.3,1.6c-4.6-1.7-8.4,0.2-12.7,1.4c-5,1.4-7.6,4.8-11.1,7.7c3.1,0.2,6.3-1.5,8.7,1.5
			c0.5,1.5,0,2.8-0.5,4.2c-0.3,0.7-0.7,1.2-1.1,1.8c-0.5,0.8-1.1,1.5-1.9,2c-0.5,0.1-0.9,0.2-1.4,0.1c-1.6-0.2-2.7,0.7-2.9,2
			c-0.7,5.1-2.4,10.2-1.6,15.4c0.3,2.4-0.7,3.2-3.1,3.1c-4.3-0.2-8.6,0.2-12.9-0.1c-3.1-0.2-4.5,0.9-4.8,4c-0.4,4-1.8,7.7-4.2,11
			c-0.5-0.5-0.9-1.1-0.8-1.7c1.7-6.4,0.7-13.1,2-19.5c0.2-0.4,0.6-0.8,1-1c1.9-0.5,0.4-1.7,0.4-2.5c0-10.1,0-20.3,0-30.4
			c0-1.2,0.1-2.3,0.8-3.4c2.5-1.5,2.4,0.9,2.6,2c0.6,2.6,0.6,5.4,0.2,7.9c-1.2,7.6-0.7,15.2-0.8,21.9c0.2-2.3,0-5.6,0-8.8
			c0-12.2,6.9-22.3,18.3-26.8c4.5-1.8,8.7-4.2,13.7-4.2c1.3,0,2.6-0.6,3.6-1.6c3.4-3.7,7.4-3.1,11.5-1.8c4.9,1.6,9.9,2.7,15.1,2.7
			c4.1,0,6.9-3.2,10.8-3.4c0.7,0,1-0.3,0.4-0.2c-0.1,0-0.2-0.2-0.3-0.4C291.7,53.4,291.8,53.1,292.2,52.8z"/>
		<path class="st5" d="M464,82.1c-1.4,3.1-4.7,3.9-7.2,3.4c-8.6-1.5-17.1,0.6-25.9-0.8c-6.6-1.1-14.5-0.7-21.6,1.1
			c-3.2,0.8-6.5,0-9.7,0c-11-0.2-21.6,2.9-32.5,3.4c-11.9,0.6-23.3,4.3-35,6.2c-6.8,1.1-13.3,4.7-19.7,7.6
			c-7.5,3.5-15.3,4.7-23.5,4.3c-7.5-0.3-15-0.1-22.4-0.2c-2,0-1.4,0.8-1.3,2.1c0.1,1.5-1.5,0.6-2.3,0.8c-1.2-1.4-3.4-0.5-4.5-2
			c-1.1-1.6,0.1-2.3,1.2-3.2c4.1-3.4,8.9-5.8,12.9-9.3c2.8-2.4,6.4-1.7,9.6-1.8c13.1-0.4,25.6-4,38.2-6.7c6.4-1.4,13.1-3.3,19.4-6
			c4.1-0.8,8.2-0.3,12.3-0.5c2.4,0.2,4.8,0.1,7.2,0.1c3.4,0,6.9,0,10.3-0.1c29.3-0.1,58.6,0.1,87.9,0.1
			C459.7,80.6,462.1,80.1,464,82.1z"/>
		<path class="st6" d="M523.1,79.1c-2.9,1.6-6,0.7-9,1c-6.3,0.7-12.4-0.5-18.6-1.1c-10.5-1-20.9-3.3-31.6-3.4
			c-6.1-0.1-11.8,0.9-17.7,1.5c-4.2,0.4-8.4-1.3-12.8-1.5c-8.4-0.3-16.6,0-24.2,4.3c-18.1,1.3-36.3,0.1-54.4,1
			c-5-2.1-10.1-0.1-15.2-0.2c-9.1-0.2-18.1,0.7-27.2,0.1c-0.9-0.1-1.5-0.6-1.9-1.4c1.6-4.3,6-6.2,12.3-4.8c2.6,0.6,4.9,0.4,7.2-0.6
			c11.3-2.1,22.6-3.6,34.1-4.5c5.9-0.4,11.6-2.7,17.6-1c1,0.3,2.2,0.1,2.9,0.7c4.2,4,9.3,2.2,14.1,2.6c14.8,1,29.5-1.1,44.3,0.3
			c2.5,0.2,4.9-0.6,7.4-1c14.2-2.1,28.1,0,42.1,1.8c12.8,1.7,25.2,0.8,37.3-3.8c0.6-0.2,1.3-0.3,2-0.4c2.3-0.1,4.6-0.1,6.9,0.3
			c3.6,1.1,7.3,0.5,10.9,0.7c1.1,0.1,2.2,0.3,3.1,0.9c0.6,2.8-1.9,2.6-3.3,3.1c-7.3,2.5-15.1,3.2-22.7,4.3
			C525.5,78.2,524,77.6,523.1,79.1z"/>
		<path class="st7" d="M24.2,50.9c1.3-0.4,2,0.5,2.8,1.2c3.8,2.9,8.4,2.9,12.6,2.2c2.9-0.5,5.3-0.9,8.3-0.1c4.3,1,8.9,1,13.3,0.4
			c10-1.5,19.9,1.5,29.9,0.4c4.5-0.5,9.1-2.1,13.6,0c3.5,0.7,2.6,2.4,0.9,4.2c-1.3,1-4.4,0.8-2.6,3.9c0.6,3.5,2,6.8,0.6,10.4
			c-2,1.7-3.6,1.3-4.6-1c-0.8-1.8-1.3-3.8-2.5-5.4c-1.1-6.8-3-7.9-9.4-5c-3,1.4-5.8,1-8.7-0.2c-1.2-0.5-2.2-1.5-4-1.7
			c-0.7,4.4,0.2,8.8-0.2,13.1c-0.2,2.1,0.6,4.4-1.6,5.9c-2.3-1-1.9-3.2-2-5.1c-0.1-2.3,0.1-4.6-1.2-6.6c-1.7-7-2.2-7.4-9.2-5.2
			c-3.8,1.2-7.1,1.3-9.9-1.9c-1.3-1.5-2.6-2.1-3.7,0.3c-1.1,10.8,1.3,21.6,0.8,32.4c-0.1,2.5,0.3,5-0.9,7.3
			c-2.6-0.5-2.7-0.4-2.9-3.3c-0.3-4.4,0.1-8.7-0.3-13.1c0.4,5.9-0.3,11.8,0.6,17.7c0.1,0.8-0.4,1.6-0.9,2.2c-3.7,0-7.3-0.1-11-0.1
			c-0.3-0.5-0.3-0.9,0-1.3c1.9-1.4,2.2-3.3,2.3-5.6c0.1-2.7,0.1-5.9,4.3-5.7c1.9-0.7,1-2.3,1-3.4c-0.1-7.1,0.3-14.3,0.4-21.4
			c1.3-3.6,0.3-5.7-3.8-5.7c0,0-0.2,0-0.5-0.1c-8.4-1.9-8.9-1.4-6.5,7.1c0.5,1.7,1.4,3.5-0.9,4.7c-4.5-0.6-6.6-3.2-6.7-7.7
			c-0.1-3.6-0.1-7.2,0.3-10.8C22.2,52.7,22,50.9,24.2,50.9z"/>
		<path class="st8" d="M128,103.9c-7.7,0-15.3-0.1-23-0.1c-0.4-0.5-0.5-1-0.5-1.6c0.5-6.1-1-12.3,1.1-18.3c1.9-2.5,3.6-5.1,7.5-4.7
			c1.6,0.2,2.4-1.6,3.3-2.7c3.2-3.7,4.8-3.6,7.5,0.6c1.4,2.1,2.4,4.4,2.3,7c0,1.7,0.1,3.3,1.2,4.7c2.3,4.2,0.1,9.1,2,13.4
			C129.8,102.9,128.8,103.5,128,103.9z"/>
		<path class="st9" d="M292,54c1,0,1.9,0,2.9,0c-5.1,0.1-8.2,5-13.3,5.1c-6.3,0.2-12-1.7-17.9-3.4c-3.2-0.9-6.1-1.7-8.2,2
			c-0.6,1-2.3,2.1-3.3,1.9c-6-0.8-10.7,2.9-16,4.5c-7.8,2.3-17.1,15.3-17.1,23.4c0,4.8,0,9.5-1,14.3c0-10.1,0-20.1,0-30.2
			c0-1.9,0.7-4-0.9-5.7c-0.6-0.5-0.7-1.2-0.6-2c0.2-1,0.7-1.8,1.2-2.6c3.4-4.6,7.7-6.4,13.5-4.7c4.9,1.5,9.5-0.2,13.7-2.7
			c1.6-0.9,3-2.1,4.8-2.6c2.7-0.5,4.8,1.5,7.4,1.7c2.2,0.6,3.7-0.4,4.9-2.2c1.2,0.3,2.3,0.9,3.5,1.3c7.4,1.5,14.8,3.8,22.5,0.9
			C289.3,52.5,290.8,52.9,292,54z"/>
		<path class="st10" d="M410,79c1.2-3.1,4.2-3.3,6.6-3.6c9.2-1.4,18.5-2.5,27.6,0.7c2.5,0.9,5.2-0.7,7.5-1.4
			c6.8-2.1,13.8-1.2,20.2-0.2c7.4,1.1,15.1,0.8,22.3,2.7c6.6,1.7,13.1,2.6,19.8,2.9c-4.6,1.8-9.4,0.6-14.1,1
			c-6.4,0.8-12.9,0.3-19.3,0.1c-20.4-0.5-40.8-0.1-61.2-0.2C416.2,80.9,412.8,81.4,410,79z"/>
		<path class="st11" d="M138.1,103.9c-1.3,0-2.7,0-4,0c-0.5-0.4-1.2-0.6-1.5-1.2c-0.1-0.4-0.1-0.9,0-1.3c0.3-0.6,0.8-1.1,1.3-1.6
			c1.2-1,2.6-1.5,3.3-1.5c-0.8-4.9-1.1-9.9-1.9-14.9c0.1-0.5,0.3-0.9,0.6-1.4c1.1-1.3,1.3-3,1.9-4.5c0.8-2,2.1-3.5,4.4-3.2
			c2.9,0.4,4.7-0.8,6-3.2c0.7-1.3,1.5-2.9,3.4-2.1c1.7,0.7,1.5,2.4,1.7,3.9c0.5,5.3,0,10.6,0,15.8c0,2.4,0.5,4.5,2.7,5.9
			c0.9,1.3,1.3,2.7,1.3,4.2c0.2,3.1-0.7,4.9-4.4,4.9C147.9,103.5,143,102.7,138.1,103.9z"/>
		<path class="st12" d="M200.2,103c-3,1.2-6.1,0.9-9.1,0.8c-1.1-0.8-2.9,0.1-3.7-1.5c-1-2.5-0.7-5.1-0.7-7.7c0-5.3,0-10.5,0-15.8
			c-0.1-4.4,0.2-8.9-1-13.3c-1.3-4.9,1.1-7.2,6.3-7c0.8,0,1.6-0.3,2.4-0.4c4.8,0.1,9.7-1.9,14.5-0.3c1.7,1.8,1.5,3.8,0.5,5.8
			c-0.9,1-2.2,0.4-3.3,0.7c-4.4,1.2-5.6,2.6-4.7,7.1c1.5,7.2-0.6,14.2-1.4,21.2c-0.1,1-0.3,2.4-2.1,2.1c-2.6-4.5-1-9.3-1.2-14
			c-0.1-3.5-0.3-6.8-2.1-10c-1.9,1.1-1.3,2.8-1.3,4.1c-0.1,5.3-0.1,10.5-0.8,15.8c-0.8,5.5,0.3,6.1,5.2,3.9
			C200.1,97.1,197.5,100.9,200.2,103z"/>
		<path class="st13" d="M200.2,103c-2.6,0.1-3.5-1.3-3-3.7c0.3-1.4,0.6-2.9,0.9-4.3l0,0c1.9-8.2,3.9-16.5,1.8-24.9
			c-0.6-2.2-0.5-4.6,1.3-5.2c2.4-0.8,5-3.8,7.9-0.9c1.6,1.4,1.4,3.3,1.4,5.1c0.1,9.3,0.1,18.6,0,28c0,2.5,0,5.2-3.4,5.7
			C204.7,102.9,202.5,103,200.2,103z"/>
		<path class="st14" d="M538.9,70.1c-2.3,0-4.6-0.1-6.9-0.1c-11.1,1-21.9-1.2-32.8-2.8c-2.3-0.3-4.6-0.5-6.7-1.6
			c-1-2.3-3.4-3.9-3.5-6.7c12.9,1.9,25.8,4.1,38.8,5.5c14.6,1.7,29.3,3.6,44,2.4c1.7-0.3,3.4-0.5,5.6,0.5c-3.1,3-6.9,2.7-10.2,3.8
			c-2.2,0.4-4.4,1.2-6.8,1.2c-2.6-0.2-5.4,0.7-7.6-1.3c-1,0-1.9,0-2.9,0C546.4,69.7,542.6,71.2,538.9,70.1z"/>
		<path class="st15" d="M6.3,103.9c1.9-0.3,1.8-1.7,1.5-3C6.4,93,7.2,85,7.1,77c0.7-1,1.4-2.8,2.8-2.2c6.2,2.4,4.8-2,4.8-5.2
			c0-0.3,0-0.7,0-1c0.8-8.7-2.3-10.9-10.9-8c-0.6,0.2-1.1,0.6-1.8,0.3c0.2-2.7,1.3-5,2.8-7.2c2.8-0.4,4.7,2,7.3,2.5
			c1.1,0.4,2.3,0.4,3.4,0.4c3.3,0.1,5.2,2,4.6,5.1c-2.6,12.6-1.4,25.4-1.9,38.1c-0.2,4.1-2.2,5.8-5.7,4.4c-2.8-1.1-2.4,1.4-3.6,2
			C7.8,105.9,6.8,105.2,6.3,103.9z"/>
		<path class="st16" d="M410,79c30,2.2,60.1,0,90,2.1c-2.1,1.6-4.5,0.8-6.7,0.9c-9.8,0.1-19.5,0.1-29.3,0.1
			c-31.7,0-63.4-0.1-95.1-0.1c-3.3-0.8-6.6-0.8-9.9,0c-2.3,0-4.7,0-7,0c-0.2-1.6,0.4-2.3,2-2c17.2-2,34.4-0.1,51.6-1.6
			C407,78.3,408.5,78.8,410,79z"/>
		<path class="st17" d="M46.1,59c1.6-2.5,3.4-2.7,4.9-0.1c2.3,3.9,5.4,3.7,9,2.2c0.3-0.1,0.6-0.3,0.9-0.4c6.9-2.5,9.2-0.9,9.2,6.3
			c-0.2,0.1-0.4,0.2-0.6,0.3c-0.5-0.2-0.8-0.4-1-0.8c0.5-0.5-0.3,0.2-0.2-0.4c0.1-0.5-0.5-0.5-0.5-0.2c0.4,2.5,0.7,4.9-1.3,6.9
			c-1.1,1-1.8,2.3-2.6,3.6c-1.4,2.5-3.1,3.9-5.8,1.4c-2.9-2.6-3.2,0-3.5,2c-0.8,6.2,0.6,12.6-1,18.8c-0.4,1.4-0.3,3-1.3,4.2
			c-0.4,0.3-0.7,0.7-1.1,1c-1,0-2,0-2.9,0c-0.4-0.4-0.7-0.9-0.9-1.4c2.8-9.7,2.5-19.6,2.6-29.5c0.1-3.9,0.2-7.6-2.7-10.7
			C46.4,61.4,46.3,60.2,46.1,59z"/>
		<path class="st18" d="M489,58.9c0.6,1.9,4.9,1.8,2.9,5.2c-1.7,1.6-3.7,1.4-5.7,1c-9-1.9-18-3-27-5c-5.6-1.8-11.6-2.1-17.2-3.6
			c-1.7-0.5-3.5-0.8-5-1.8c-2.7-3.1-0.1-3.5,2.1-3.8c3-0.4,6.1,0,9-0.9C461.7,52.9,475.3,55.9,489,58.9z"/>
		<path class="st19" d="M555.9,92c-1.5,2.8-5,2.2-7,4.2c-0.8,0.8-2.3,0-3.2-0.6c-1.2-0.9-0.5-2.1,0-3.1c2.1-3.6,1.6-6.4-2.3-8.6
			c-3-1.7-4.3-6.1-8.6-5.9c0-0.5,0.1-1.1,0.6-1.2c8-1.5,15.6-4.5,23.7-5.2c2.6,1.4,1,3,0,4.3c-1.4,1.9-2.4,3.4-0.3,5.5
			c1.6,1.6,1,3.7,0.1,5.5C558,88.7,556.8,90.2,555.9,92z"/>
		<path class="st20" d="M95.1,104c-6.7,0-13.3-0.1-20-0.1c-0.3-0.5-0.2-0.9,0.1-1.3c3-1,4-3.1,3.4-6.2c-1.1-5.6,3-8.5,6.3-11.6
			c1.4-1.3,4.2-1.2,4.8,0.6c1.4,4.2,1.5-0.1,2-0.3c0.7-0.3,1.2-1.3,2.1-1c0.8,0.2,1.2,1.1,1.3,2c0.2,3,1,5.9,2.7,8.4
			C98.6,98.1,99.3,101.8,95.1,104z"/>
		<path class="st21" d="M105,56c-3.2-0.6-6.1-1.2-9.6-0.5C87.7,57,79.8,57.6,72.1,55c-1.9-0.7-3.4,0.8-5.2,0.9
			C60.5,56,53.8,57,47.7,55.5c-3.2-0.8-5.2-0.2-7.8,0.6c-4,1.2-11.2-1.1-12.8-3.9c1.3,0.2,2.7,0.8,3.9,0.6c10.8-1.6,21.6,1,32.5,0.1
			c8.8-0.8,17.8,0.6,26.7,0.4c13.1-0.4,26.2,0.9,39.2-0.8c0.2,0,0.4,0.4,0.6,0.6c0,0.8-0.3,1.5-0.8,2.1c-0.6,0.5-1.4,0.9-2.2,1
			C119.7,57.5,112.4,56,105,56z"/>
		<path class="st22" d="M292,54c-1.5,0.1-3.1-0.2-4.4,0.3c-8.2,3.6-15.9,0.5-23.6-1.4c-0.3-2.3,1-4.1,1.9-6.1
			c0.4-0.2,0.9-0.2,1.4-0.1c1.7,2.1,3.9,2.1,6.3,1.7c2.1-0.4,4.2-1,6.4,0.2c-0.9-0.8-1.6-1.5-2.3-2.1c-3.4-0.9-6.9,0.2-10.3-0.8
			c-1.7-0.8-3.7-1.4-3.3-3.9c4.4-1.3,8.8-0.7,13.2-0.5c1.4,0.1,3.3,0.7,4,1.8c2.8,4.2,7.1,6.6,11,9.6C292.1,53.2,292.1,53.6,292,54z
			"/>
		<path class="st23" d="M257,53c-2.7,2.4-4.6-1.4-7-1c-1.2-0.7-1.8,0.3-2.6,0.9c-6.6,4.5-13.4,4.4-20,0.1c-3.1-2-6.1-2.2-9.4-0.7
			c-1.1,0.2-2.2,0.3-2.8-0.9c-0.5-5-0.3-9.8,1.9-14.4c1.1,2.2,0.7,4.5,0.7,6.7c0,4.5,1.1,5.4,5.6,4.2c1.9-0.5,3.7-1.3,5.5-1.9
			c4.2,1,8.5,2.3,13.2,1.5c-2.8-2.7-7.2,1-9.1-3.2c0.6-0.1,1.2-0.2,1.8-0.3c3.7-1.1,7.3-2.2,11.2-0.9C248.8,47.3,253.2,49.9,257,53z
			"/>
		<path class="st24" d="M384,42c4.4,2,6.1,6.9,10.5,9.2c3.1,1.6,4.9,1.4,7.3-0.2c0.5-0.5,0.9-0.4,1.3,0.1c-0.3,3.2-2.8,3.5-5.2,4.1
			c-1.3,0.1-2.6,0-4-0.1c-2-0.3-3.9,0.5-5.7,1.1c-6.8,2.2-13.2,1.5-19.2-2.7c-1-2.6,0.9-3.7,2.5-5c2.2-0.5,4.5-0.9,6.8-0.6
			c1.2,0.2,1.7,0.2,1.9-1.1c0.2-1.8-1-0.5-1.3-0.5c-2.1-0.2-4.3,0.3-6.1-1.2c-0.1-0.5-0.1-1,0.2-1.4C376.7,42.9,380.2,41.4,384,42z"
			/>
		<path class="st25" d="M327.1,56c-2-1.6-3.4-2.6-6.8-1.5c-7,2.3-14.6,3.3-21.4-1.6c-0.4-1.8,0.4-2.9,1.9-3.6
			c3.6-0.9,7.3-0.2,10.9-0.5c1.2-0.1,3.1,0.2,1.7-2.1c-0.4-0.6-0.7-1.2-0.8-2c0.4-1.4,1.1-2.3,2.7-1.9c3.4,2.2,5,6.4,9.1,8.1
			c5.7,2.4,9,0.3,8.5-5.8c3.5,0.6,1.8,3.6,2.6,5.5c0.1,1.1-0.2,2-0.7,2.9c-0.7,1.1-1.7,1.8-2.9,2.4C330.3,56.5,328.7,57.5,327.1,56z
			"/>
		<path class="st26" d="M448.1,49.9c-1.7,3.9-5.1,1.3-7.6,2.2c-1.2,0.4-4.2-2.1-3.5,1.9c-0.5,4.3-3.4,5.5-7.1,6.3
			c-6,1.3-11.9,0.5-17.8,0.1c-5.8-0.4-7.8-3.5-6.6-9.5c1-1.4,2.3-2,4.1-1.4c1.4,4.9,2.1,5.5,7.6,4.6c2.9-0.5,6.1,0.2,8.6-1.9
			c3.1-2.9,6.6-3.8,10.8-2.7c2.4,0.6,5.2,1,7.5-0.7C445.5,49.1,447,48.7,448.1,49.9z"/>
		<path class="st27" d="M215.2,102.9c-0.2,7.4,0.3,14.9-2.2,22.1c-0.3,1-0.7,1.9-0.7,2.9c0,1.4,1.4,3.4-1.7,3.3
			c-2.6-0.1-2.3-2.2-2.3-3.6c-0.2-8.1-0.3-16.3-0.4-24.4c1.6-0.3,1.6,0.8,1.6,1.8c0,4.3,0.2,8.7,0,13c0.1-5.6,0.1-11.3,0.1-16.9
			C213.6,98.4,215.1,98.9,215.2,102.9z"/>
		<path class="st28" d="M51.1,103.9c0-0.3,0-0.6,0-0.9c1-0.7,2-1,3.2-1.2c6.6-1.1,6.5-1.1,7.2-7.5c0.3-2.7,1.7-4.6,4.8-4.6
			c0.6,0.3,1,0.8,1.5,1.4c0.2-5-0.4-9.9,0.5-14.7c1.1-3.1-0.5-6.6,1.8-9.4l0,0c2.3,1,1.9,3.1,2,5c0.2,2.3-0.9,4.9,0.9,7
			c2.7,4.8,1.4,9.8,1,14.8c-0.2,0.5-0.5,0.9-0.9,1.3c-4-1.5-1.1-4.8-2-6.7c-0.4,3.5,0.2,7.5,0.5,11.4c0.1,1.5,0.6,2.9-0.6,4.2
			C64.4,104,57.7,103.9,51.1,103.9z"/>
		<path class="st29" d="M566.9,70c3-0.8,6-1.6,9-2.5c-1.2-1.1-2.8-0.1-4.1-0.7c5.6-1.2,11.1-2.3,16.7-3.5
			c-3.8,4.9-6.8,10.1-11.7,13.6c-0.5,0.5-1.1,0.6-1.8,0.7C566.9,78.7,566.9,78.7,566.9,70z"/>
		<path class="st30" d="M217.2,36.9c-0.4,5.1-0.7,10.2-1.1,15.3c2,2.5,1.3,5.3,0.8,8c-0.5,2.6-1,5.1-0.9,7.8c-0.2,2.7,0.5,5.4-0.6,8
			c-1.8,1.4-3.6,2.3-5.8,0.7c-0.3-6.1,0-12.3-0.2-18.4c1.7-2.6,5.8-3.9,4.3-8.2c0-0.9,0-1.8-0.1-2.7c0.1-2.9-3.2-1.9-4.1-3.6
			c-0.6-1.7-0.2-3,1.5-3.8c2.2,0,3.6-1.3,4.7-3.1C216.2,36.5,216.7,36.5,217.2,36.9L217.2,36.9z"/>
		<path class="st31" d="M32.1,103c0,0.3,0.1,0.6,0.1,0.9c-2.3,0.5-4.9-0.8-6.9,1.3c-3,0.7-3.9-1.2-4.4-3.5
			c0.1-7.6-0.8-15.2,0.5-22.8c5.1-0.8,7.9,1.2,8.1,5.7c0.1,3.9,0,7.9,0.1,11.8c0,1.8-0.5,3.7,1,5.1C31.1,101.8,31.7,102.3,32.1,103z
			"/>
		<path class="st32" d="M9,106.2c0-2.2,0-4.5,0-6.7c2.4,0.1,2,1.4,2.4,2.2c0.8,1.5,1.7,2.5,3.5,2s2.1-1.9,2.1-3.5
			c0-7.5,0.2-15,0-22.4c-0.1-4.5,0.7-8.9,1.4-13.3c1.1-6.1,1.2-6.1-4.7-6.5c-1-0.1-2-0.1-2.7-1c1.6-2.4,5.7,0.1,6.7-3.5
			c0.6-1.9,1.3-3.7,3.4-4.4c0.3,0.3,0.6,0.6,0.9,0.9c1.3,6.5-0.1,13.1,0.7,19.7c-4.4,3.7-3.2,8.9-3.3,13.7c0.1,1.7,0.1,3.4,0,5.1
			c0,3.8,0,7.6,0,11.3c-0.1,5.9-0.7,6.4-6.5,6.6c-0.7,0-1.3,0.1-1.9,0.4C10.3,106.9,9.5,107.1,9,106.2z"/>
		<path class="st33" d="M95.1,104c2.8-2.9,1.9-6.6,1.9-10c0.2-0.1,0.5-0.1,0.7-0.2c1.3,0.7,1.1,2.1,1.6,3.3
			c-2.1-5.2-1.4-10.6-1.4-16c0-1.3,0.6-2.8-1.2-3.5c-0.4-3.5-1.9-7.1,0.5-10.5c2.4,0.1,2.5,2.3,2.6,3.6c0.1,2.4,1.6,2.9,3.3,3.4
			c2.2,2.4,1.7,5.4,1.2,8.1c-1.4,7,0.1,13.9,0.9,20.8c0,0.3,0,0.6,0,0.9C101.7,103.8,98.4,103.9,95.1,104z"/>
		<path class="st34" d="M158,53.1c16.6-0.4,33.2-1.2,49.8,0.8c1.3,1.5,0.5,2.3-1,2.8c-0.5,0.1-1,0.1-1.5,0
			c-5.9,0.5-11.7,1.3-17.6-0.1c-7.4-1-14.7,1.5-22.1,0.8c-2.4-0.2-5,0.1-7.1-1.4c-0.5-0.4-0.8-0.8-1-1.4
			C157.5,54.1,157.6,53.5,158,53.1z"/>
		<path class="st35" d="M138.1,103.9c3.8-2.4,7.9-0.8,11.9-0.9c6.5-0.2,7.1-0.8,5.5-7.1c-0.2-0.6-0.3-1.3-0.5-1.9
			c-1.9-1.9-1.7-4.3-1.3-6.6c0.9-5.4,0.7-10.9,0.9-16.4c0.5-2,0.1-4.9,3.7-4.1c2.4,4.1,1,8.7,1.3,13c0.2,2.5,0.1,4.9,0,7.4
			c-0.7,16.9-0.4,13.8,13.4,14.1c3.3,0.1,6.6,0.1,9.9-0.8c2.1,0.4,2.1,1.6,1.2,3.1C168.7,103.9,153.4,103.9,138.1,103.9z"/>
		<path class="st36" d="M444.1,48.9c-1.1,2-2.8,2.4-4.9,2.2c-4.6-0.4-9.3-1.9-13.2,2c-2.1,1-3.9,1.8-4.1-1.8
			c-0.1-1.4-1.9-0.7-2.8-1.3c-1.3-0.9-3.3-1.5-3-3.4c0.3-1.7,2.2-1.6,3.7-1.6c0.9,0,1.6-0.2,2.3-0.7
			C429.5,44.7,436.7,47.3,444.1,48.9z"/>
		<path class="st37" d="M22.1,71c0-7,0-14,0-21c0.7,0.3,1.4,0.6,2.1,0.9c-1.7,5.4-1.3,10.9-0.8,16.3c0.2,2.4,3,4.1,5.7,4.8
			c1.8,3.5,2.6,27.4,1.1,30.8c-2.9-0.3-2-2.6-2-4.2c-0.1-5.9,0-11.9,0-18.7c-4.4,3.9-5.1,1-5.9-2.1C20.3,75.7,20.3,73.4,22.1,71z"/>
		<path class="st38" d="M555.9,92c-1-1.7-0.4-2.7,0.8-4.2c1.7-2,4.2-4.9-0.5-6.9c-2.4-1-0.4-2.5,0.1-3.6c0.9-1.9,3.4-2.7,3.5-5.2
			c0.3-0.4,0.7-0.6,1.2-0.6c4.5-0.5,5.2,2.3,4.3,5.5c-1,3.4-1.1,6.6-0.4,9.9C562.5,89.7,559.7,91.8,555.9,92z"/>
		<path class="st39" d="M158,53.1c0,0.4-0.1,0.7-0.1,1.1c-0.4,0.9-1,1.8-1.9,2.3c-8.1,4.1-16.4,5-24.9,1.4c-1.9-0.6-1.7-2.4-2-3.8
			c0.3-0.3,0.6-0.7,1-1c3.6,1.1,7.3,0.6,11,0.3C146.7,53,152.4,53.1,158,53.1z"/>
		<path class="st40" d="M421.9,44.2c-0.5,3.4-3.8,0.9-5.3,2.7c1.6,2,6.2,2.7,6,3.4c-0.7,3.7,1.8,2.5,3.3,2.8
			c-3.7,2.9-14.1,3.4-16.5,1.6c-2.6-2-0.8-3.2,0.5-4.6c0.4-0.5,1-1,1.6-0.9c3.5,0.2,2.3-1.2,1-2.7c-0.2-0.4-0.3-0.9-0.4-1.4
			c-0.1-1.4,0.6-2.3,1.8-2.9C416.6,42.8,419.3,43.5,421.9,44.2z"/>
		<path class="st41" d="M348.1,41.9c1.7,0.3,3.1,1.2,3.9,2.7c2.3,4.1,6.6,5.6,10,8.3c0.2,1.7-1,1.7-2.1,1.8
			c-6.5,0-13.1,1.6-19.6-0.3c-1.6-0.5-3.3-0.5-4.3-2c-0.2-0.5-0.3-0.9-0.2-1.4c3.6-1.8,7.5-1.9,11.4-2.2c1.1-0.1,2.7,0,1.1-1.8
			c-0.9-0.7-2.1-1.1-2.9-2C343.9,41.7,345.3,41.2,348.1,41.9z"/>
		<path class="st42" d="M564.9,87c-2.1-2.7-2.9-5.1-1-8.6c1-1.8,2.6-6.5-3-6.4c-0.3-0.2-0.4-0.4-0.3-0.5c0.1-0.2,0.2-0.2,0.3-0.2
			c2-0.4,4-0.8,6-1.2c1,2.3,3.2,4.4,0.3,8.1c4.1-1.2,6.8-2.6,9.7-1.2C573.8,81.5,569.6,84.5,564.9,87z"/>
		<path class="st43" d="M2.1,61c3.8-4.2,8.5-2.4,12.9-1.8c2.3,0.3,2.4,2.6,1.9,4.4c-0.5,2.1-1,4.2-0.9,6.3c-3.7,3.5-5.8,0.5-8-2
			c0-6.7-0.9-7.5-6.2-5.1C1.9,62.3,2,61.7,2.1,61z"/>
		<path class="st44" d="M206,56c1.5,0.1,2.1-0.7,1.8-2.2c0.1-4.1,0.2-8.1,0.1-12.2c0-2.7,0.9-3.3,3.1-1.6c-0.8,1.3-1.2,2.7-0.8,4.2
			c0.8,0.8,1,1.9,1.1,3s0.1,2.2,0.1,3.3c0,2.2,0.4,4.5-1.2,6.4c0,6.7,0,13.5-0.1,20.2c1.4,1.4,1.2,3.2,1.3,4.9c0,2.3,0,4.6,0,6.9
			c0.1,1.4,0.1,2.9,0,4.3c-0.2,2.3,0.5,4.8-1.3,6.7c0,6.2,0,12.5,0,18.7c-0.4,0-0.7,0-1.1,0c0-3.7,0.1-7.4,0-11.1
			c0-1.5,0.7-3.4-1.1-4.5c-0.3,0-0.6-0.1-0.9-0.2c2.3-1.3,2-3.5,2-5.7c0-11,0-22.1,0-33.1c-0.3-2,0.8-4.2-0.9-6
			C206.4,58.3,205.8,57.6,206,56z"/>
		<path class="st45" d="M360,54c0.9,0,1.7-0.2,2.1-1.1c1.6,1.2,3.2-0.1,4.7,0.1c0.5-0.4,0.9-0.4,1.4,0c0.2,0.5,0.1,1-0.2,1.5
			c-1.8,2.1-4.3,1.6-6.6,2.1c-7.9,6.3-16.4,5.8-25.3,2.6c-2-0.7-4.1-1.5-4.2-4.2c0.7-0.6,1.4-1.3,2.1-1.9c1.8-0.7,3.2,0.6,4.7,1.1
			c6.6,2,13,2.1,19.4-0.4C358.8,53.5,359.4,53.6,360,54z"/>
		<path class="st46" d="M238,107c-2-6.1-0.1-11.7,2-17.3c0.4-1,1.6-2.4,3-0.6c2.3,3,1.5,6.7,1.8,10c0.4,5,2,8.1,7.4,8.3
			c1.6,1.8,0.3,2-1.2,2.1c-3,0.2-6.1-0.4-9.1,0.4c-1.1,0-2.1-0.1-1.7-1.6c1.5-5.7,0.1-11.6,1-17.4C239.1,96,239.3,101.6,238,107z"/>
		<path class="st47" d="M48.1,103c0,0.3,0,0.6,0,0.9c-1.7,0-3.4,0.1-5,0.1c-1.6-8.4-0.9-16.8-0.3-25.3c2.4,4.2,2.2,8.7,2.4,13.2
			c0.1,3.1-0.9,6.3,0.9,9.2C47.1,101.3,47.3,102.4,48.1,103z"/>
		<path class="st48" d="M184,103.8c0-1.1,0.2-2.2-1-2.8c-1.2-1.1-1.5-2.6-1.5-4.1c0.1-6.9-0.1-13.9,0.1-20.8c0.1-1.8,0-4.3,2.3-4.2
			c2.3,0,2.4,2.5,2.4,4.2c0.1,7.3,0,14.6,0.1,21.8c0,1.8-0.1,3.7,1.6,5c1.1,0.1,2.2-0.1,3,1C188.7,103.8,186.4,103.8,184,103.8z"/>
		<path class="st49" d="M560.9,71.2c0,0.3,0,0.5,0,0.8c-0.3,0-0.7,0.1-1,0.1c-8.5,1.2-16.8,3.7-25.1,5.8c-3.9,0.4-7.8,0.8-11.8,1.1
			c-0.6-0.1-1.3-0.1-1.9-0.2c10.5-3.1,21.6-3.5,31.8-7.9C555.6,71.1,558.3,71.1,560.9,71.2z"/>
		<path class="st50" d="M18.1,88c0-1.7,0-3.3,0-5c3.6-1.1,3.3,1.5,3.5,3.6c0.3,5.1-0.5,10.3,0.5,15.4c0.2,2,1.1,3.1,3.2,3.2
			c-1.5,1.4-3.2,1.9-5.2,1.6c-2.1-1-1.3-2.8-1.4-4.4C18.3,97.6,19.3,92.7,18.1,88z"/>
		<path class="st51" d="M133.1,102.8c0.3,0.4,0.7,0.7,1,1.1c-2,0-4,0-6,0c0.3-0.6,0.9-1.5,0.7-1.7c-3.5-4-0.3-8.9-1.8-13.2
			c-1.4-2.5-1.3-5.1-0.3-7.8c2.9-0.8,3.2,1.4,3.5,3.3c0.4,2.1,0,4.2,0.7,6.3C132.3,94.6,129.8,99.2,133.1,102.8z"/>
		<path class="st52" d="M233.1,44.2c2.9,1.8,6.1,0.3,9.1,0.9c0.8,0.1,1.4,0.6,2.1,1c-0.4,0.8-0.6,1.9-1.3,2.5
			c-1.9,1.7-12.5-0.3-14.2-2.6C230.1,44.8,231.5,44.1,233.1,44.2z"/>
		<path class="st53" d="M315.3,42.8c-1,0.5-1.9,1.1-2.3,2.2c-2.8,2.2-6,1.2-9.1,1c-2-0.9-4.4-1.1-4.8-3.9
			C304.5,40.8,310,40.1,315.3,42.8z"/>
		<path class="st54" d="M71.1,104c-1.5-6.6-1.1-13.3-0.9-20.9c3.3,4.1,0.4,8.6,2.7,11.9c2.2,2.3,1.4,5.3,2.1,8
			c0,0.3,0.1,0.6,0.1,0.9C73.8,103.9,72.4,104,71.1,104z"/>
		<path class="st55" d="M348.1,41.9c-2.4-0.1-3,0.9-2,3c-2.4,2.3-5.3,1.5-8.1,1.2c-2.1-0.8-4-1.8-5-4
			C338.1,40.3,343.1,40.6,348.1,41.9z"/>
		<path class="st56" d="M7.1,51c3.6-3.4,8-1.5,12.1-1.9c-0.1,2.2-0.5,4.8-2.9,5.1C12.9,54.6,9.3,54.6,7.1,51z"/>
		<path class="st57" d="M7.1,51c1.4,0.5,2.8,1.1,4.2,1.6c3.8,1.4,6.7,0.9,7.9-3.5c0.7,0,1.3,0,2,0c-0.7,1.6-1.4,3.2-2.1,4.8
			c-4,4-10,3.2-12.8-1.8C6.5,51.8,6.8,51.4,7.1,51z"/>
		<path class="st58" d="M242,109.8c3.2-1.8,6.7-0.1,10-1.1c0.1,0,0.2-0.2,0.2-0.3s-0.1-0.3-0.2-0.5c-0.3-0.5-0.3-0.9,0.1-1.3
			c0.4-0.3,0.9-0.4,1.4-0.5c2.1-0.1,3.8,0.9,5.6,1.7c1.4,0.5,3.7-0.7,3.9,2C255.9,109.9,248.9,109.8,242,109.8z"/>
		<path class="st59" d="M368,53.2c-0.4-0.1-0.8-0.1-1.1-0.2c2.4-3.3,1.7-7.2,2.2-10.9c2.2-1.1,3.5-0.6,4,1.9c0,0.3,0,0.6-0.1,1
			c0.2,1.5,0.3,2.9-0.9,4.1c-1,1.3-2.1,2.6-3.1,3.9C368.7,53.3,368.4,53.4,368,53.2z"/>
		<path class="st60" d="M373,44c-1.1-1.1-2.2-2.3-4-1.9c5-1.7,10-1.6,15-0.1C380.3,42.4,377.1,45.6,373,44z"/>
		<path class="st61" d="M299,42.2c1.3,0.9,2.6,1.7,3.8,2.6c0.1,0.6-0.1,1.3-0.3,1.9c-0.5,1.2-0.6,2.5-1.6,3.4c-0.7,1-1.4,1.9-2,2.9
			c-1.5,0.3-1.9-0.6-1.9-1.8c1.7-1.6,2.4-3.3,1.2-5.6C297.7,44.4,296.5,42.7,299,42.2z"/>
		<path class="st62" d="M264,41.9c0.3,1.6,2.1,1.8,3,3c0.1,0.9-0.3,1.5-0.9,2c0.3,2.4-0.7,4.3-2.1,6c-1.5,0.1-2-0.8-2.1-2.1
			c1.4-1.4,2.4-2.9,1.3-5.1C262.6,44.6,261.3,42.7,264,41.9z"/>
		<path class="st63" d="M414,42.1c-0.4,1-0.8,2-1.1,3c-1.4,1.2-3.1,1.1-4.8,0.9c-0.5-0.1-0.9-0.3-1.3-0.5c-1.2-1-2.4-2.1-2.9-3.7
			C407.2,40.2,410.6,41.3,414,42.1z"/>
		<path class="st64" d="M18.1,88c2,3,0.6,6.4,1,9.5c0.3,3.1-0.7,6.3,0.9,9.2c-3,0.5-5.9,0.4-8.9,0.1c7-2,7-2,7-9.9
			C18.1,94,18.1,91,18.1,88z"/>
		<path class="st65" d="M403.8,41.8c1.8,0.2,2.4,1.6,3,3c0.5,3.2,0,5.7-3.7,6.4c-0.4-0.1-0.8-0.2-1.3-0.2c1.1-2,2.6-3.8,1-6.3
			C402.2,43.6,402.5,42.5,403.8,41.8z"/>
		<path class="st66" d="M246.1,43c-3.7,0.6-7.4,1.7-11.2,0.9C238.3,40.2,241.4,40,246.1,43z"/>
		<path class="st67" d="M6.2,52.2c4.3,4.1,8,4.7,12.8,1.8c-1,5.2-5.3,2.2-8,3.1c-2.5-0.2-4.2-1.9-6.2-3.2
			C5.3,53.3,5.8,52.7,6.2,52.2z"/>
		<path class="st68" d="M333,42.1c1.3,1,3.3,1.1,4,3c0.1,0.9,0.2,1.8,0.1,2.8c-0.1,1.2-0.3,2.3-1.3,3.2l0,0
			c-0.2,0.4-0.5,0.5-0.9,0.2c-2.2-1.5,0.2-4.6-2.1-6.1C331.5,44,332.1,43.1,333,42.1z"/>
		<path class="st23" d="M217.2,37c-0.5,0-1,0-1.5,0c-0.5-4.1-4.1-1.1-5.7-2.7C212.1,35.9,216.5,31.3,217.2,37z"/>
		<path class="st69" d="M8.1,68c2.8,0.2,4.6,4.4,8,2c0,1.3,0,2.6,0,3.9c-0.1,3-0.7,5.3-4.2,2.5C10,74.9,8.6,75.9,7.1,77
			C7.4,74,6.2,70.8,8.1,68z"/>
		<path class="st70" d="M259,107.8c-2.1,0.5-4-0.5-6-0.9c0.8-2.6,3.1-4.3,3.8-7.1c1.3-5.1,0.6-6.6-4.6-7.4c-1.1-0.2-2.3-0.1-3.5-0.1
			c-1.1,0-2.1,0-3.2-0.3c-1.5-0.5-2.6-1.3-1.7-3.1c0.4-0.7,0.7-1.3,1.1-2c5.4,2.2,10.6,0.9,14.4-3.6c0.5-0.7,1.2-1.1,2-1.4
			c16.6-2.1,33.2-1.5,49.8-1.1c6.8,0.2,13.5,0,20.3-0.1c2.7-0.1,5.3-0.2,7.6,1.4c-0.6,0.6-1.2,1.6-1.8,1.6c-8.7,0.4-16.2,5-24.7,6.5
			c-11.2,1.9-22.3,4.6-33.6,5.1c-7.1,0.3-10.7,5.5-15.6,8.8C262.1,104.9,258.3,104.3,259,107.8z"/>
		<path class="st71" d="M332,55c7.4,6.8,20.3,6.8,29,0c1.3,2.5-0.5,3.7-2,5c-2.9,2.4-6.4,3.8-10.2,3.1c-4.6-0.8-9.3-0.7-13.8-2.2
			c-3.3-1.1-6.4-0.3-9.6,1.3c-6.2,3.2-12.2,6.6-19.4,7.5c-6.8,0.8-12.6,5.2-19.6,5.7c-2,0.1-1.6,2.3-2.1,3.6c-0.7,0.8-1.8,1.4-2.6,1
			c-4.5-2.3-8.4,0.5-12.6,1.1c-7.4-0.3-14.6,2-22,0.9c-2.4-1.5-4.8-2.2-7.2-0.3c-0.9,0.7-1.9,1.6-2.8,0c-0.8-1.3-1-2.4,0.5-3.4
			c2.7-1.9,5.5-6.3,7.1-6.2c5.9,0.3,10.2-6.7,16.5-3c1.7,1,2.7,1.3,4.2-1.5c1.4-2.5,5.1-4.5,9.5-2.7c5.7,2.3,11.6,2.4,17.2-1.6
			c4-2.8,9-1.6,13.5-0.9c3.8,0.6,7,0.6,10.4-1.6c3.4-2.2,8.1-1.8,11.2-4.9C328.7,55.7,330.3,55.3,332,55z"/>
		<path class="st72" d="M247,82c7.5-2.3,15.2-2,23-2c3.3-0.4,6.5-1.4,10-0.6c2,0.5,4.2,0.2,6.1-1c0.5-0.2,1.1-0.4,1.7-0.5
			c6.2-0.5,12.5,0.1,18.7-0.2c1.6-0.1,3.3,0,4.6,1.4c3.5,0.3,7,1.2,10.4,0.9c8.3-0.9,16.5,0.1,24.8-0.9c1.6-0.2,3.2,0.3,4.8-0.9
			c2.3-1.7,2.7,0.1,3.1,1.9c-0.7,0.7-1.3,1.3-2,2c-4.3,0-8.6,0.1-12.9,0.1c-26.4,0.2-52.7-0.9-79.1,1c-4.5,1.8-9.1,3.1-14.1,2.7
			C246.3,84.6,246.7,83.3,247,82z"/>
		<path class="st73" d="M243.9,89c0.1,1.3,0.8,2,2.1,2c2.6,1.3,3,3.8,3.3,6.3c0.4,2.8,0.4,5.6,1.4,8.3c0.5,0.4,1,0.9,1.2,1.4
			c0,0.3,0,0.6,0,0.9c-7.2-0.1-7-0.2-8.1-7.1c-0.6-4-0.9-7.9-0.8-11.9C243.4,89,243.6,89,243.9,89z"/>
		<path class="st74" d="M245.9,85.8c4.5-1.8,9.1-3.1,14.1-2.7c0.5,2.8-0.8,4.4-3.5,4.9c-2.9,0.6-5.8,1.2-8.6,1.8
			c-2.4,0.5-2.8-1-2.8-2.9C245.3,86.6,245.6,86.2,245.9,85.8z"/>
		<path class="st75" d="M214.9,76c0.1-2.6,0.2-5.2,0.3-7.8c1.1-1.1-1-3.7,1.8-4.1c0,0.7,0.1,1.3,0.1,2c0,13.3,0,26.6,0,40
			c-1.7-0.8-0.7-2.1-1.1-3.1c-1.6-3.7-1.1-7.8-1.9-11.6c-0.2-0.8-0.4-1.7-0.4-2.5c-0.2-2.3-0.1-4.6-0.1-6.9
			C213.6,79.8,213.5,77.7,214.9,76z"/>
		<path class="st76" d="M215.2,90.9c1.5,3.9,0.4,8.1,0.8,12.1c-0.3,0-0.6,0-0.9-0.1c0.2-4.2-4.1-0.7-5.1-3c0-2.3,0-4.5,0.1-6.8
			C211.5,91.6,213.5,91.4,215.2,90.9z"/>
		<path class="st72" d="M359,82c3.3-1.6,6.6-1.5,9.9,0C365.6,82,362.3,82,359,82z"/>
		<path class="st49" d="M403.1,51.3c3-1.1,2.4-4.4,3.7-6.4l0.3,0.4c1.9,1.4,4.1,0.7,6.1,0.6c1.1,1.1,2.1,2.3,4,4.2
			c-3.1,0-5.1,0-7.2,0c-1.5-0.2-2.8,0.2-4,1c-1,2.1-0.9,4.5-1.4,6.7c-1.2,4.7,0.1,6.7,5,7.6c3.6,0.7,7.3,0.6,10.9,0.3
			c9.5-0.7,19.1,0,28.5-2.9c3.5-1.1,6.3-3.6,10.1-3.7c8,1.3,16,2.5,24,4.1c3,0.6,5.8,1,8.8,1c7.9,2.4,16.1,2.6,24.2,4
			c5.3,0.9,10.8,0.1,16,1.9c-10.2,3.7-20.7,5.8-31.5,4.9c-9.9-0.7-19.6-2.8-29.5-3.2c-5.5-0.2-11.2-0.5-16.9,0.3
			c-4.1,0.6-8.3,2-12.8,1.2c-7.3-1.3-14.7,0.2-22.1,0.3c-7.7,0.1-15.5-0.5-23.3-0.5c-2.8,0-5.7-0.6-8.3,2.9c0-4.7-1.9-5.7-5.2-6
			c-5.4-0.6-10.6,0.1-15.9,0.5c-7.1,0.6-14.1,3.3-21.3,1.7c-0.9-0.2-2.1-0.1-2.9,0.4c-3.8,2.2-8,2.2-12.2,2.5
			c-0.3-2.8,1.6-3.6,3.8-4.1c1.7-0.4,3.5-0.2,5.3-0.4c8.2-0.8,16.1-4.3,24.6-2.9c1,0.2,2.1,0,2.8-0.8c2.6-3.3,5.9-2.5,9.4-2.5
			c7.7,0,14.3-3.1,19.4-9.2c0.8-0.7,1.9-0.5,2.7-1.1C400,53.7,401.8,52.9,403.1,51.3z"/>
		<path class="st77" d="M340,72c-3.5,0.4-7.7-1.6-10,3c-2.2,1.6-4.1,1.7-7.1,1c-3.8-0.9-8.9-1.8-11.9,3c-8,0-16,0-24,0
			c-0.1-3,2.3-3.3,4.2-3.9c7.4-2.2,15-3.8,22.8-3.4c6.7-2.8,13.8-2.6,20.8-2.8C336.9,68.8,339.6,68.7,340,72z"/>
		<path class="st49" d="M538.9,70.1c3.7,0.2,7.5-0.8,11.1,0.9C546.3,70.6,542.5,72,538.9,70.1z"/>
		<path class="st78" d="M127.1,81.1c0,2.6-0.1,5.3-0.1,7.9c-2.2-0.3-1.9-1.9-1.9-3.4c0-1.3,0.3-2.8-0.1-4c-1-2.6-1.8-6-4.4-6.8
			c-2.4-0.8-2.8,2.7-4.1,4.3c-0.7,0.9-1.8,2.2-2.8,1.8c-3.6-1.6-4.6,1.6-6.5,3.1c-3.7-4.2-2.3-8.9-1.1-13.4c1.2-4.8,0.6-6.3-3.9-8.5
			c-0.7-0.4-1.7-0.9-1.3-1.7c0.9-1.9,2.8-1.1,4.3-1.3c3.3,0.5,6.5,0.4,9.6-1.1c1.2-0.6,2.6-0.9,3.8-0.1c4.4,3.1,7.3,1.2,9.6-2.8
			c0.3-0.3,0.7-0.6,1-1c0.7,1,1.3,2.1,2,3.1c1.2,0.5,2.4,0.9,3.6,1.5c4.4,2.1,8.7,4.5,13.8,1c2.1-1.4,5.1-1.2,7.7-0.5
			c1.1,0.4,2,1.1,2.5,2.2c0.7,2.1,1,4.1-0.8,5.8c-2.7,0.3-1.7,2.4-1.9,3.9c-0.3,0.1-0.7,0.2-0.9,0c-2-3-4.6-4.4-8.4-4.3
			c-4.5,0.1-8.4-1.8-12.3-3.7c-2.8-1.2-2.9,0.6-3.1,2.6c-0.2,2.9,0.7,5.9-1.1,8.5c-1.6,0.3-1.9-0.8-2-2.3
			C127.9,75.1,129.4,78.3,127.1,81.1z"/>
		<path class="st79" d="M75.1,103c-4.1-1.8-1.1-5.4-2.1-8h0.3c2.8,1,3.7,0.5,3.6-2.8c-0.3-7.6-0.8-15.2,2.5-22.4
			c1.3-2.9-1-5.8-0.2-8.7c3.2,1.1,6.2,1.5,9.2-1c2.1-1.7,4.6-1.2,7,0.1c3.1,1.7,1.9,4.5,1.9,7c-0.5,3.7,1.1,7.3,0,11
			c0.5,0.6,0.7,1.4,0.6,2.2c-0.6,4.1-0.4,8.2-0.1,12.3c0,0.5-0.2,1-0.5,1.4L97.2,94c-3.9-1.9-2.5-5.6-3-8.8c-3,0.4-2.1,4-4.2,5.2
			c-1.4-1.5,1.6-4.2-1.4-5.1c-2.8-0.9-3.6,1.4-5.1,2.9c-2.7,2.8-4.4,5.4-3.3,9.6C81,101.4,79.1,103.5,75.1,103z"/>
		<path class="st80" d="M30.2,102.9c-1.5-10.2-0.9-20.6-1.1-30.8c0.4-2.8-1.6-4.9-2.3-7.5c-1.3-5.1,0.8-7.5,5.7-6.3
			c2.5,0.6,5,1.2,7.6,1.6c3.5,0.6,2.3,3.7,1.1,6.1c-1.7,5.2-1.1,10.5-1.7,15.8c-0.4,3.4,1,6.8-0.3,10.2c-4.5,0.4-3.6,3.9-3.2,6.4
			c0.5,3.3-0.7,4.6-3.8,4.5C31.4,103,30.8,102.9,30.2,102.9z"/>
		<path class="st81" d="M79.1,61c2.5,4,2.6,7.9,0.5,12.3c-2.7,5.5-1.2,11.5-1.4,17.2c-0.1,2.8,0,5.6,0,8.8c-2.5-0.8-3.3-3-4.9-4.3
			c-0.1-5.3-0.1-10.7-0.2-16c-0.2-6.1,0.7-12.2-0.6-18.2c-0.2-1.1,0-2.1,0.8-2.7c1.1-0.9,1.7,0.4,2.5,0.8C76.9,59.5,78,60.3,79.1,61
			z"/>
		<path class="st82" d="M48.1,103c-1.3,0-2-0.6-2.1-1.9c0.8-12.3-1.2-24.6-0.9-36.9c0-1.7-0.6-3.7,1-5.1c3.3,3.7,7,7,5.2,13
			c-0.9,3.2-0.5,6.9-0.1,10.3C51.9,89.5,50,96.3,48.1,103z"/>
		<path class="st83" d="M102,62c0.6-1.1,1.2-2.2,2.6-0.9c2.6,2.4,4.5,5.2,2.9,8.8c-2.2,4.7-1.6,9.3-0.5,14c-2,3.5-0.4,7.3-1,10.9
			c-0.4,2.7,1,5.5-1,8c-3.8-3.7-2.1-8.7-2.8-13c-0.8-5.2,1.3-10.5,0.7-15.9C103.7,70,101.8,66.1,102,62z"/>
		<path class="st84" d="M128.1,55c-0.6,5.4-4.6,7.7-8.7,4.6c-2.1-1.6-3.4-1-5.3-0.2c-3,1.2-6.2,2.9-9.1-0.4c-0.5-1,3.5-2.1,0-3.1
			c2.4-1.6,5.2-0.7,7.7-0.8C117.9,54.9,123,55.1,128.1,55z"/>
		<path class="st85" d="M39.1,92c-1.4-5.9-1.5-11.7-0.2-17.6c0.4-1.8,0.1-3.6,0-5.4c-0.1-1.1-0.9-3.9,2.3-3c0,8.6,0,17.3,0,25.9
			c0,0.8,0.7,2.2-1,2.1C39.2,94,39.2,92.8,39.1,92z"/>
		<path class="st86" d="M218,51.1c5.7-3.9,9.8,1.2,14.3,2.9c5,1.9,11.5,1.2,15.2-2.7c1.9-2,1.8,0.2,2.5,0.8
			c-6.7,4.9-13.6,8.3-22.3,5.2c-4.3-1.5-6.6,2.8-9.7,4.8C216.3,58.4,216.7,54.7,218,51.1z"/>
		<path class="st4" d="M218,51.1c0,3.6,0.1,7.3,0.1,10.9c-0.1,0.8-0.2,1.6-1,2c-1.7,0.9-0.5,3-1.8,4.1c-0.9-5.4,1.5-10.6,0.9-16
			C216.7,51.8,217.4,51.5,218,51.1z"/>
		<path class="st87" d="M135,62c4.1,1.6,7.9,4,12.6,3.3c0.3,0,0.8,0.4,0.9,0.3c7.5-6.1,6,0.9,6.8,4.6c0.1,0.3,0.4,0.5,0.6,0.7
			c0.6,7.7-1.1,15.3-1,23c-3.7,1.3-2.9-1.6-2.9-3.3c-0.1-5.9,0-11.9-0.1-17.8c0-1.1-0.2-2.2-0.4-3.7c-2.3,1.1-2.6,3-3.4,4.5
			c-1,1.9-2.5,2.8-4.5,2c-3.6-1.4-5.1,0.1-5,3.5c0.1,2.1-1.3,2.8-2.7,3.7c-3.5-2.9-2.2-7-1.6-10.2C135.2,69.1,135.4,65.6,135,62z"/>
		<path class="st88" d="M135,62c1.9,2.3,2.8,4.9,1.5,7.8c-1.9,4.4-1.4,8.8-0.5,13.2l0,0c-1.5,3.5-0.2,7.2-0.5,10.8
			c-0.2,2.5,0,5-1.5,7.2c-0.3,0.3-0.7,0.7-1,1c-2.9,0-2.5-2.1-2.5-3.9c0.1-4.5-0.2-8.9-1-13.4c0.1-3.6-2.6-7.2,0.4-10.7
			c0-3.1,0-6.2,0-9.3c0-1.4-0.7-3.2,0.7-4.1C132.6,59.2,133.6,61.6,135,62z"/>
		<path class="st89" d="M134,101c0-4.2,0-8.5,0-12.7c0-2,0.4-3.9,2-5.3c-0.2,4.2,3.6,8,1.3,12.6c-0.8,1.6,2.2,2.1,3.3,4
			C138,98.9,135.8,99.2,134,101z"/>
		<path class="st8" d="M130.1,84.9c1.9,3.9,0.5,8,0.9,12c0.2,1.9-0.3,4,2,5.1c0,0.3,0,0.6,0,0.9c-2.3,0.2-3.1-0.8-3-3.1
			c0.1-2.9,0-5.8-0.1-8.7C129.4,89,129.2,86.9,130.1,84.9z"/>
		<path class="st90" d="M188.1,102.9c-3.1,0.4-3.1-1.6-3.1-3.7c0-7.3,0.1-14.6,0-21.9c0-1.5,0.7-3.3-1.9-5.6c0,10.5,0,19.9,0,29.3
			c-0.3,2.1-1.9,1.9-3.4,1.9c-5.5,0-11-0.2-16.4,0.1c-3.5,0.2-4.8-1.6-5-4.5c-0.2-3.5-0.1-7-0.1-10.4c2.7,0.1,3.3,1.7,2.8,4
			c-0.3,1.6-0.9,3.2,0.7,4.9c1.8-1.6,1-3.7,1-5.5c0.2-5.5,0.6-11,3.1-16c1.3-2.8,2.9-5.7,6.7-2.5c1.2,1,2,0.3,3.1-0.3
			c4.4-2.3,5.4-1.7,5.5,3.4c0.1,4.3,0,8.6,0,11.3c-0.3-6.9,0.7-15.5-1.1-24c-0.9-1.7-3.9-0.9-4-3.4c4.4-2.2,9.6-1.3,14-3.4
			c0.7-0.3,1.4-0.2,2.2,0c1.1,0.7,3.2,0,3.1,2.3c-1.3,0.2-1.8,2.2-3.9,1.3c-3.2-1.3-5.9,1.3-4.5,4.6c1.9,4.4,1.1,8.8,1.3,13.1
			c-1.6,5.6-1.5,11.2,0,16.9C188,97.6,188,100.2,188.1,102.9z"/>
		<path class="st91" d="M198,95c-0.7,0.9-1.4,1.8-2.2,2.7s-1.8,1.6-3.1,1c-1.2-0.5-1.6-1.6-1.7-2.8c-0.2-3.5,0.4-6.9,0.8-10.3
			c0.5-4.4,0.1-9,0.2-13.4c0-1.7-0.1-3.7,2.2-3.7c1.8,0,2.4,1.5,2.8,3.4C198.8,79.5,197.7,87.3,198,95L198,95z"/>
		<path class="st92" d="M188,94.9c-2.8-3.5-2.8-14.1,0-16.9C188,83.7,188,89.3,188,94.9z"/>
		<path class="st93" d="M195.1,59c-1-0.6-2-1.3-3.1-1.9c4.7-0.2,9.4-0.6,14.1-1l0,0c0.4,1,1.1,1.7,2,2c-2,2.4-4.6-1.4-7,0.7
			C199.5,60.2,197.1,59.7,195.1,59z"/>
		<path class="st94" d="M66.1,90c-2.9,1.6-4.1,3.5-3,7.2c1.4,4.5-3,4.7-5.6,5.6c-1.9,0.7-4.3,0.2-6.4,0.2c2.7-7.1,1.7-14.6,2-22
			c0.1-1.3,0-2.7,0.2-4c0.2-1.2,1.1-2.1,2.2-2.6c1.4-0.6,2.1,0.6,2.6,1.6c2.2,3.8,3.5,2.2,4.8-0.7c0.7-1.4,1-3.3,3.1-3.4
			C68.4,78,68.4,84,66.1,90z"/>
		<path class="st85" d="M66.1,90c0-6,0-12,0-18c0.8-1.5,1.3-3,0.6-4.7c-0.7-1.8-1.3-4.4,0.9-4.5c2.6-0.2,0.9,2.8,1.5,4.3
			c0.8,3.3,0.7,6.6,0,10c0,6,0,12.1,0,18.7C66.4,94,67.4,91.4,66.1,90z"/>
		<path class="st7" d="M69.1,77c0-3.3,0-6.6,0-10c0.3,0,0.7,0,1,0C69.7,70.3,71.1,73.8,69.1,77z"/>
		<path class="st95" d="M459,58.9c-7.3,5.4-15.5,7.1-24.4,7.3c-7.3,0.2-14.5,0.8-21.8,0.8c-2.6,0-5.1-0.2-7.2-1.4
			c-2.8-1.6-4.7-3.9-2.6-7.3c1.4-2.3,1.3-5.2,3.1-7.2c0,7.2,1.4,8.1,8.8,8.2c4.7,0,9.5,1.2,14.1-0.3c2.3-0.7,7.7,1.4,5.5-4.8
			c-0.2-0.6,1.7,0.3,2.6-0.1C444.3,55.9,451.9,56.4,459,58.9z"/>
		<path class="st96" d="M279,46c0.7,0.9,1.3,1.8,2.2,3.1c-3.8-0.6-7.2,1-10.8,1c-2,0-3.6-0.3-3.5-2.8C270.7,44.6,274.9,45.4,279,46z
			"/>
		<path class="st97" d="M279,46c-4.1-0.2-8.2,0-12.1,1.2c-0.3-0.1-0.5-0.2-0.8-0.3c0-0.8,0-1.6,0.9-2C270.9,45.6,275.2,43.8,279,46z
			"/>
		<path class="st98" d="M314,73c-7.6-0.3-14.8,1.4-22.1,3.2c-1.8,0.4-4,0.5-4.9,2.8l0,0c-1,0.7-2,0.7-3,0c-1.5-3.5-2.3-6.1,3.6-5.2
			c5.2,0.8,9.3-3.5,14.4-4.4c6.9-1.1,13.8-3.1,19.9-6.6c3.9-2.2,7.7-5.3,12.2-3.6s9.1,1.4,13.5,2.5c5.8,1.4,10.8-1.3,13.3-6.7
			c2.4-0.1,4.8,0.4,7-1c1.1-0.5,1.9,0.1,2.7,0.7c7.2,4.8,14.4,3.4,21.5-0.4c0.6-0.3,1.1-0.7,1.8-0.3c1.3,0,2.6,0.1,4,0.1
			c-0.5,0.8-1.2,0.9-2,0.9c-6.1,7.1-17,10.2-25.4,6.7c-3.8-1.6-6.6-1.5-9.8,1.5c-3.2,3-7.5,4.2-12,4c-5.1-0.1-10.3-0.1-15.2,1.7
			c-2.2,0.8-4.7,1-6.9,0.4C321.6,68,317.7,69.9,314,73z"/>
		<path class="st99" d="M394,54c-9.3,6.4-16.2,7.6-26,0c0-0.3,0-0.6,0-0.9c0.3-0.1,0.6-0.1,0.9-0.2c7.7,3.5,15.5,4.4,23.4,0.5
			C392.9,53.1,393.5,53.4,394,54z"/>
		<path class="st100" d="M372,49c0.5-1.3-0.5-3,0.9-4.1c3.8,0.3,7.8-0.9,11.6,1.1C380.6,49,376.5,49.8,372,49z"/>
		<path class="st101" d="M335,51.1c0.3-0.1,0.6-0.2,0.9-0.2c5.9,4,12.4,3.3,18.9,2.5c1.8-0.2,3.5-1.1,5.1,0.5
			c-0.9,0.3-1.9,0.5-2.8,0.9c-8.1,4-15.7,2-23.2-1.8C334.4,52.5,334.7,51.8,335,51.1z"/>
		<path class="st4" d="M301,50c0.1-1.4-0.2-2.9,0.9-4.1c1.1,0.5,0.5,1.9,1.3,2.5c0.4-3.1,2.8-3.6,11-2.4c1.1,0.9,2.9,1.6,2.2,3.3
			c-0.6,1.4-2.4,0.7-3.6,0.7C308.8,50.1,304.9,50,301,50z"/>
		<path class="st102" d="M314.1,46c-2.9,0.1-5.8,0.1-8.7,0.2c-0.7,0-1.9,0.3-1.4,1.3c0.2,0.5,1.3,0.6,2.2,1c-2.8,1-4.1,0-4.3-2.7
			c0.3-0.4,0.7-0.7,1-1.1c3.4,0.1,6.7,0.2,10.1,0.2C313.4,45.4,313.8,45.7,314.1,46z"/>
		<path class="st103" d="M210.2,56.9c0-2.2,0-4.4,0-6.6c1.6-1.6,3.1-1.6,4.7,0.1c0,1-0.1,2,0.1,2.9C215.5,57.3,213.6,58,210.2,56.9z
			"/>
		<path class="st104" d="M214.9,76c0,2,0,3.9,0,5.9c-1.6,0.7-3.1,0.7-4.7,0.2c0-1.7,0-3.3,0-5C211.6,76,213.2,76,214.9,76z"/>
		<path class="st105" d="M210.1,46.9c0-0.9,0.1-1.8,0.1-2.7c2,0.1,5-1.4,4.8,2.7C213.4,48.4,211.7,48.4,210.1,46.9z"/>
		<path class="st23" d="M210.1,46.9c1.6,0,3.2,0,4.8,0c0,1.1,0,2.3-0.1,3.4c-1.6,0-3.1,0-4.7-0.1C210.2,49.1,210.2,48,210.1,46.9z"
			/>
		<path class="st64" d="M22.1,102c-2-4.7-0.6-9.6-0.9-14.4c-0.2-2.2-0.1-4.4-3-4.6c0-2.9-0.1-5.9,0.1-8.8c0.2-2.2,0.8-4.4,3.9-3.2
			c0,2.3,0.1,4.6,0.1,6.9C22.2,86,22.1,94,22.1,102z"/>
		<path class="st106" d="M97,80c0-0.7,0.1-1.3,0.1-2c0.6-0.2,1.7-0.6,1.7,0c0.1,8.1,0.1,16.2,0.1,24.4c-2.2-2.4,0.4-6-1.8-8.4
			c0-0.3-0.1-0.7-0.1-1C96.3,88.7,96.3,84.3,97,80z"/>
		<path class="st93" d="M190.1,57.1c-4.2,3.2-9.2,3.1-14.1,2.9c-2.9,0.9-5.8,0.1-8.5-0.7c-2.1-0.6-4.1-0.9-6.1,0.2
			c-0.7,0.2-1.4,0.3-2.2,0.2c-2.3-1.2-1.9-3-1.1-4.9c5.8,2.1,11.7,1.1,17.5,0.8c3.9-0.2,7.8-0.6,11.7-0.8c0.2,0,0.4,0.8,0.6,1.2
			C188.6,56.7,189.7,56.3,190.1,57.1z"/>
		<path class="st44" d="M190.1,57.1c-0.8-0.1-1.6-0.2-2.1-1c6,0,12,0,18,0c-4.6,1.5-9.3,2.3-14.1,1
			C191.4,57.1,190.7,57.1,190.1,57.1z"/>
		<path class="st87" d="M158.2,54.8c0.3,1.4,0.6,2.9,0.9,4.3c0.4,1-0.1,1.5-1,1.9c-0.7-0.3-1.3-0.7-2-1c-1.3-1.7-1.1-3.3,0.1-4.9
			c0.6-0.3,1.2-0.6,1.8-1C158,54.4,158.1,54.6,158.2,54.8z"/>
		<path class="st107" d="M158,61c0.3-0.6,0.7-1.3,1-1.9c0.7,0,1.3-0.1,2-0.1c6.8,0.3,13.4,1.7,20,3c1.6,1.5,1,3.4,1,5.2
			c0.1,8.7,0,17.4,0,26.2c-2.5-0.3-1.9-1.8-2-2.8c-0.1-5.1,0-10.3-0.1-15.4c0-1.1,0.3-2.5-1.2-2.9c-1.3-0.4-2.1,0.6-2.7,1.6
			c-1.7,3.1-3.1,3.4-5.1-0.1c-2-3.4-3.1-0.1-3.8,1.1c-2.2,4.5-3,9.4-3.2,14.3c-0.1,2.3,0.1,4.6-0.1,7c-0.1,1.1,0.9,3-1.5,2.8
			c-1.6-0.1-3.6-0.1-3.4-2.6c0.1-1.6-0.3-3.7,0.5-4.8c1.7-2.3-0.2-2.8-1.4-3.8c-0.1-7-0.1-13.9-0.2-20.9C158,65.1,158,63.1,158,61z"
			/>
		<path class="st108" d="M156.1,55.1c0,1.6,0,3.3-0.1,4.9c-3.3,0.2-6.2,0.2-9.4,2.4c-3.5,2.4-8.2-0.6-12.1-2.5
			c-1.3-0.7-2.3-1.8-3.5-2.7c2.7-1,4.6,1.9,6.9,1.7C144.1,58.4,150.6,58.9,156.1,55.1z"/>
		<path class="st109" d="M413.2,45.9c-2.2,1.5-4.4,2.6-6.1-0.6c1.9,0,3.8-0.1,5.7-0.1C413,45.4,413.1,45.6,413.2,45.9z"/>
		<path class="st110" d="M336.1,46.9c0-0.8,0.2-1.5,0.9-1.9c3-0.1,6-0.1,9.1-0.2c1.1,0.1,2.2,0.1,3,1.1c-2.2,4.6-6.9,3.5-10.6,4.4
			C335.9,51,336.9,48.1,336.1,46.9z"/>
		<path class="st101" d="M336.1,46.9c2.2,5.7,6.5,0.5,9.7,2.3c-0.1-1.9-2.1-0.8-2.3-2.2c1.4-2.4,4,1.1,5.5-1c1.1,0.9,3,1.5,2.3,3.3
			c-0.5,1.3-2.1,0.6-3.2,0.7c-4.1,0.4-8.2,0.7-12.3,1C336,49.7,336.1,48.3,336.1,46.9z"/>
		<path class="st111" d="M210.2,82c1.5-1.2,3.1-1.1,4.7-0.2c0,2.4,0.1,4.8,0.1,7.1c-1.7,1.3-3.3,1.3-4.9-0.1
			C210.1,86.6,210.1,84.3,210.2,82z"/>
		<path class="st112" d="M210.1,88.9c1.6,0,3.3,0.1,4.9,0.1c0.1,0.6,0.2,1.2,0.2,1.9c-0.6,3.1-3.2,1.8-5.1,2.2
			C210.2,91.7,210.1,90.3,210.1,88.9z"/>
		<path class="st113" d="M130.1,84.9c0,2-0.1,4.1-0.1,6.1c-1.6-1.6-0.8-3.7-0.9-5.5c-0.1-1.8,0.1-3.6-2-4.5c0.1-4.5-0.5-9,0.6-14
			c2.5,2.2,0.3,5.3,2.4,6.9C130.1,77.6,130.1,81.3,130.1,84.9z"/>
		<path class="st114" d="M252,107c-0.6,0-1.3-0.1-1.9-0.1c-0.5-1,0.1-1.9,0.5-2.8c2.2-4.7,0.9-9-1.6-13.2c1,0,2-0.1,3,0
			c7.4,1,8.2,2.5,5.8,9.6c-0.9,2.7-1.3,5.6-4.7,6.3C252.7,107,252.3,107,252,107z"/>
		<path class="st58" d="M249,91c5,4,5.4,10.5,1.1,15.9c-2.5-2.4-1.2-5.8-1.9-8.6c-0.6-2.5-0.9-5-2.2-7.3C247,91,248,91,249,91z"/>
		<path class="st77" d="M284,79c1,0,2,0,3,0c-5.6,2.1-11.3,0.5-17,1c2-1.7,5.3-0.6,6.9-3.2c0.5-0.8,1.6-0.5,1.9,0.4
			C279.9,80,282.2,78.7,284,79z"/>
		<path class="st115" d="M214.1,96.3c-0.2,0.8,0.3,2.2-1.3,1.9c-0.8-0.1-1.5-0.6-1.6-1.5c-0.1-1.2,0.8-1.7,1.7-1.9
			C214,94.6,214,95.5,214.1,96.3z"/>
		<path class="st116" d="M314,73c2.8-5,7.3-6.7,12.7-4.6c2,0.8,3.9,0.9,5.8-0.1c4.9-2.5,10.2-2.5,15.5-2.3
			c5.6,0.2,10.4-1.5,14.2-5.7c1.2-1.3,2.4-2.9,4.6-1.5c10.8,6.8,20.1,1.8,29.2-3.9c-0.6,3-2.5,5-5.3,6.1c-6,2.5-11.5,7-18.7,4
			c-0.5-0.2-1.7-0.2-1.9,0.1c-2.9,5.4-7.4,3.8-11.8,2.8c-0.9-0.2-1.9,0.4-2.9,0.7c-3.4,1-6.5,3-10.5,1.4c-1.7-0.7-3.3,1.2-5,1.8
			c-1.4-1.7-3.3-2.2-5.3-2C327.7,70.7,320.6,70.3,314,73z"/>
		<path class="st20" d="M97,80c0,4.3,0,8.6,0,13C95.5,88.6,95.5,84.3,97,80z"/>
		<path class="st87" d="M181,62c-6.6-1.5-13.8,0.7-20-3c0.8-1.5,2.1-2.2,3.7-1.8c3.8,0.9,7.6,1.9,11.4,2.9
			C177.2,61.9,179.9,60.1,181,62z"/>
	</g>
</g>
</svg>
