<?xml version="1.0" encoding="utf-8"?>
<!-- Generator: Adobe Illustrator 25.0.0, SVG Export Plug-In . SVG Version: 6.00 Build 0)  -->
<svg version="1.1" xmlns="http://www.w3.org/2000/svg" xmlns:xlink="http://www.w3.org/1999/xlink" x="0px" y="0px"
	 viewBox="0 0 485 162.1" style="enable-background:new 0 0 485 162.1;" xml:space="preserve">
<style type="text/css">
	.st0{display:none;}
	.st1{display:inline;stroke:#FFFFFF;stroke-miterlimit:10;}
	.st2{fill:#5D5F59;}
	.st3{fill:#41413A;}
	.st4{fill:#9FAEB5;}
	.st5{fill:#808281;}
	.st6{fill:#AFBBC2;}
	.st7{fill:#696B6A;}
	.st8{fill:#989D9F;}
	.st9{fill:#323937;}
	.st10{fill:#171816;}
	.st11{fill:#282E31;}
	.st12{fill:#3A3A34;}
	.st13{fill:#222729;}
	.st14{fill:#171A19;}
	.st15{fill:#242B2E;}
	.st16{fill:#43443E;}
	.st17{fill:#1C2122;}
	.st18{fill:#111313;}
	.st19{fill:#313B40;}
	.st20{fill:#7B8E93;}
	.st21{fill:#5E6D72;}
	.st22{fill:#373F42;}
	.st23{fill:#4B575C;}
	.st24{fill:#303832;}
	.st25{fill:#0F1211;}
	.st26{fill:#060707;}
	.st27{fill:#060706;}
	.st28{fill:#2D2D28;}
	.st29{fill:#0C0C0C;}
	.st30{fill:#3D473E;}
	.st31{fill:#1D2220;}
	.st32{fill:#A0A7A1;}
	.st33{fill:#2F2F2A;}
	.st34{fill:#35342F;}
	.st35{fill:#151616;}
	.st36{fill:#282823;}
	.st37{fill:#4A493F;}
	.st38{fill:#151514;}
	.st39{fill:#5A594E;}
	.st40{fill:#5F5F55;}
	.st41{fill:#4C5449;}
	.st42{fill:#BBB99B;}
	.st43{fill:#858473;}
	.st44{fill:#C1BD9A;}
	.st45{fill:#58584E;}
	.st46{fill:#384349;}
	.st47{fill:#2B3232;}
	.st48{fill:#222725;}
	.st49{fill:#222826;}
	.st50{fill:#3D3F3B;}
	.st51{fill:#2F3430;}
	.st52{fill:#353530;}
	.st53{fill:#5B5B51;}
	.st54{fill:#1E2221;}
	.st55{fill:#222726;}
	.st56{fill:#171B1B;}
	.st57{fill:#161A19;}
	.st58{fill:#232320;}
	.st59{fill:#262622;}
	.st60{fill:#555B5A;}
	.st61{fill:#060606;}
	.st62{fill:#111210;}
	.st63{fill:#090B0B;}
	.st64{fill:#21221F;}
	.st65{fill:#31312C;}
	.st66{fill:#47473F;}
	.st67{fill:#090A09;}
	.st68{fill:#48473F;}
	.st69{fill:#0C0E0E;}
	.st70{fill:#636257;}
	.st71{fill:#484842;}
	.st72{fill:#646458;}
	.st73{fill:#3A443B;}
	.st74{fill:#6B7263;}
	.st75{fill:#485147;}
	.st76{fill:#576157;}
	.st77{fill:#5B655A;}
	.st78{fill:#5D675D;}
	.st79{fill:#5B645A;}
	.st80{fill:#636C62;}
	.st81{fill:#515A50;}
	.st82{fill:#656E64;}
	.st83{fill:#181917;}
	.st84{fill:#747366;}
	.st85{fill:#252522;}
	.st86{fill:#141614;}
	.st87{fill:#020302;}
	.st88{fill:#292924;}
	.st89{fill:#596161;}
	.st90{fill:#252521;}
	.st91{fill:#808780;}
	.st92{fill:#0B0C0B;}
	.st93{fill:#535249;}
	.st94{fill:#66665A;}
	.st95{fill:#B5B491;}
	.st96{fill:#5E6362;}
	.st97{fill:#788080;}
	.st98{fill:#727B7C;}
	.st99{fill:#1D1E1B;}
	.st100{fill:#DCDFDD;}
	.st101{fill:#4E4D46;}
	.st102{fill:#525C51;}
	.st103{fill:#8D9281;}
	.st104{fill:#59594F;}
	.st105{fill:#3E3E37;}
	.st106{fill:#57574D;}
	.st107{fill:#70797B;}
	.st108{fill:#151716;}
</style>
<g id="Camada_2" class="st0">
	<rect x="-84" y="-39.9" class="st1" width="671" height="264"/>
</g>
<g id="Camada_1">
	<g>
		<path class="st2" d="M294.8,160.8c-0.3,0.4-0.6,0.8-0.9,1.2c-1.7,0-3.3,0-5,0c-0.3-0.3-0.5-0.7-0.6-1.2c0-0.5,0.1-0.9,0.3-1.3
			c0.9-1.3,2.1-2.3,2.7-3.9c0.5-2,0.2-4.1,0.1-6.1c-0.4-16.9,0.4-33.8,0-50.7c-0.1-2.5-0.7-6.7,2.3-6.7c4-0.1,2.1,4.3,2.6,6.8
			c0.1,0.6,0-0.2,0,0.5c-0.4,3.9,0.1,6.3,5.2,6.7c4.2,0.4,8.5-0.1,12.3,0.6c1,0,0.2-1.1,0.4-0.5c0,0.1-0.1,0.1-0.3,0.1
			c-3.1,0.5-6.2,0.1-9.4,0.2c-1,0-2-0.2-1.7-1.6c2-1.6,4.4-1.2,6.7-1.3c6.1-0.1,12.3,0.1,18.4-0.1c8.5-0.2,11.3-3.1,11.5-11.4
			c0.1-4.8-0.4-9.6,0.3-14.4c0.4-1.5,1.3-2.2,2.8-2.3c0.7-0.1,1.5,0,2.1,0.3c0.3,0.2,0.4,0.5,0.4,0.8s-0.1,0.5-0.1,0.5
			c-2,2.3-0.8,5-1,7.5c-0.2,3.3-0.1,6.6-0.1,9.9c-0.1,7.8-5.4,13.1-13.3,13.3c-11.6,0.2-23.2,0.3-34.8,0.4c-1,6.6-0.3,13.2-0.4,19.8
			c-0.1,9.4,0,18.8-0.1,28.3C295.4,157.6,296,159.4,294.8,160.8z"/>
		<path class="st3" d="M178,24.1c2-1.1,2.1-2.9,2.3-5c0.3-6.3-0.8-12.6,0.8-18.8c6,0,12,0,18,0c5.1,5.2,8.8,11.5,13.3,17.2
			c1.1,1.3,1.5,3.4,3.7,3.7c0.8,1.2,0.2,2.3-0.1,3.5c-0.4,0.9-1,1.7-1.8,2.2c-5.3,0.7-10.7-0.1-16,0.5c-1.4,0.2-2.7-1-3.6-2.3
			c-0.4-1-0.3-2,0.2-2.9c1.2-1.1,2.7-1.3,4.2-1.4c3.1,0.7,6.1,1.6,9.3,1.3c2.5-0.2,2.7-1.1,1.5-3.1c-2.7-4.4-7.1-7.3-9.6-11.9
			c-0.4-0.8-2.1-2.7-4.3-0.5c-1.2,1.2-3.5-1.1-5.3-2c-5.8-2.8-6.9-2.1-7.2,4.1c-0.2,3.5,0.8,6.9-0.1,10.4c-0.6,2.1,0.9,2.8,2.8,3.1
			c2,0.2,4.7,0.1,3.9,3.5c-3.2,2.5-6.8,1.2-10.3,0.9C178.4,26.3,177.5,25.5,178,24.1z"/>
		<path class="st4" d="M1,108.1l-0.4,0.1L0.2,108c0-12.7,0-25.3,0-38c0.6-0.3,1.1-0.2,1.5,0.4C3,78.6,4.3,86.9,3.1,95.1
			C2.4,99.5,4.1,104.3,1,108.1z"/>
		<path class="st5" d="M289,160.9c0,0.4,0,0.7,0,1.1c-9.7,0-19.3,0-29,0c0-0.3,0-0.7,0-1c1-0.9,2.3-1.3,3.6-1.4
			c7.4-0.1,14.8-0.2,22.2,0C287,159.7,288.1,160.1,289,160.9z"/>
		<path class="st6" d="M0.1,44.1c0.3,0,0.7,0,1,0c1.9,2.6,1.4,5.7,1.6,8.6c-0.5,2.1,0.5,4.6-1.4,6.5c-0.4,0.2-0.9,0.2-1.2-0.2
			C0.1,54.1,0.1,49.1,0.1,44.1z"/>
		<path class="st7" d="M483.9,45.1c0.3,0,0.7,0,1,0c0,4,0,8,0,12c-0.3,0-0.7-0.1-1-0.1c-1.5-1.7-1.3-3.9-1.3-6
			C482.4,49,482.4,46.9,483.9,45.1z"/>
		<path class="st8" d="M0.1,59.1c0.3,0,0.7,0,1,0c0.7,0.6,1,1.5,1.2,2.4c-0.1,2.9,1,6-1.3,8.6c-0.3,0-0.6,0-1,0
			C0.1,66.5,0.1,62.8,0.1,59.1z"/>
		<path class="st9" d="M295.2,100.1c-0.4-2.5,0.4-5.1-0.8-7.5c-0.5,0-0.9,0-1.4,0c0,19.4,0,38.9,0,58.3c-1.2,2.4-3.2,3.6-5.9,3.9
			c-1.2,0.1-2.4,0.1-3.1-1c-1.9-2.5-1.8-2.5-5.4-2.5c-0.8,0-1.6,0-2.5,0c-5.8-0.1-11.6,0.2-17.5,0.1c-2.1,0-4.4,0.3-5.9-2.7
			c10.1-1.9,20-1,28.6-1.3c-8-0.1-17.1,0-26.3,0.5c-1.7,0.1-4.3,0.5-4.2-2.1c0-2.8,2.7-3.4,4.8-3c8.8,1.5,17.6,0.1,24.2,0.6
			c-5.7-0.1-13.5,0-21.3,0c-1.4-2.9,0.8-3.3,2.7-3.3c6.6,0,13.2-0.3,18.2-0.4c-5.9,0.4-13.5,0.1-21,0.6c-1.8,0.1-3.7,0.2-5.5-0.2
			c-1.1-0.3-2.4-0.7-2.2-2.2c0.2-1.4,1.4-1.7,2.6-1.8c5-0.2,10,0,15-0.1c4.3,0,8.6,0.1,12.1,0c-7.9,0.1-16.6,0-25.4,0
			c-0.3,0-0.7,0-1,0c-1.7,0-3.9-0.2-3.9-2.2c0-2.3,2.3-1.8,3.8-1.8c8,0.1,16,0,24,0c1.4,0,2.9,0.1,3.9,0c-8.2,0.1-16.8,0-25.5,0
			c-1.3,0-2.7-0.1-4-0.3c-0.8-0.1-1.6-0.6-1.6-1.6c0-1.3,0.9-1.5,2-1.7c5.4-1.2,10.8,0.1,16.2,0.1c5.1,0,10.3-0.1,15.4,0.1
			c0.7-0.1,0.1-0.8,0.2-0.2c0,0.1-0.1,0.2-0.5,0.2c-8.3-0.2-16.5,0.3-24.8-0.9c-2.7-0.4-5.4,1.5-8.2,0.2c-1-0.4-1.7,0.9-1.8,1.9
			c-0.2,4.1-1.5,8.2-0.1,12.4c0.7,3,1.5,6-3.2,5.9c-1.5-3-0.8-6.6-2.5-9.6c-1.5-2.7,2.2-5.5,0.1-8.4c3.6-1.4-0.4-3.4,0.4-5
			c2.7-3.9,1.8-8.6,2.9-12.8c0.5-1.9,0.6-3.9,1.1-5.8c1.7-6.4,1-13,1.1-19.5c0.6-1.2,1.4-1.3,2.2-0.2c1,1.4,0.7,3.2,0.9,4.4
			c12.4-6.3,24.4-14.3,39.4-7.7c-0.4,0.5,0.3-0.3,0.4,0.4c0,0.5,0.3,0.6,0.3,0.3c-0.1-0.5-0.3-0.9-0.4-1.4c-0.1-1.7-0.2-3.7,2-3.9
			c1.9-0.1,2.2,1.9,2.2,3.3c0.1,2.4,0.8,4.5,1.8,6.7c0.5,5.2,0.6,10.5,0,15.7c-0.7,0.9-1.3,3-2.4,0.4
			C295,103.5,295.8,101.7,295.2,100.1z"/>
		<path class="st10" d="M296.7,88c-3.4-1.9-0.6-5.8-2.8-8.9c-1.6,2.8-0.5,5.5-1.1,7.9c-1.4-0.7-0.5-2-0.8-2.9
			c-2.2-1.9-2.5-5.9-6-6.3c-5.1-0.6-10.3-0.7-15.3,0.7c-1.2,0.4-2.4,1.5-3.7,0.8c-6.3-3.5-13.1-0.7-19.6-1.8c-1.8-0.3-3.6,0-5.5-0.2
			c-0.8-0.1-1.6-0.5-2.2-1.1c-1.4-1.8-5.8,1.6-5.7-3.1c1-1.7-0.3-3.8,1-5.4c0.7-0.5,1.5-0.8,2.3-0.8c8.1,0.1,16.2-1.3,24.3-1
			c5.3,0.2,10.5,0.3,15.8,0c13.4-0.6,26.8,0.2,40.1-2.9c4.2-1,8.1,1,12,2.5c2.2,1.3,4.3,2.6,7,1.6c2.4-0.3,3.1-2,3.5-4.1
			c0.5-1.4,1.5-2.4,2.3-3.6c0.7-0.7,1.1-1.8,2.4-1.5c1.7,1.4,1.4,3.5,1.5,5.4c-0.5,4.4-2,8.6-3.3,12.8c-0.8,1.2-1.3-0.4-2-0.2
			c-1.9,1.7-4.3,1.6-6.6,1.6c-6.3,0-12.6,0.1-18.9,0c-3.6-1.1-5.6,1-7.3,3.7c-1.6-0.8-1.7-2.8-2.7-3.9c-2.5-1.3-5-2.1-7.1,0.7
			C297.8,81.4,299.6,85.1,296.7,88z"/>
		<path class="st11" d="M9.9,37c47.4,0.9,94.8,0.5,142.2,0.2c-0.5,2.5-2.7,2.1-4.4,2.4c-6.7,1.4-13.6,1-20.4,1
			c-33.1,0-66.3,0-99.4,0c-1.6,0-3.2-0.2-5.8,0.7c9.6,0.3,18.3,0.4,26.9,0.3c29.6-0.3,59.3-0.1,88.9-0.2c3.2,0,6.3-0.3,9.4-0.8
			c3.4-0.5,5.6,0.7,4.5,4.7c-44.9,0-89.7,0-134.6,0c-1.2-0.7-1-1.9-1.2-3c-0.1-0.7-0.4-0.9-0.2-0.3c0,0-0.3,0.2-0.4,0.3
			c-3.8,0.6-6-0.5-5.5-4.8C9.9,37.4,9.9,37.2,9.9,37z"/>
		<path class="st12" d="M214,26.1c0.3-0.7,0.7-1.3,1-2c1.5-0.4,1.8,0.9,2.4,1.8c0.1,0.4,0.2,0.9,0.1,1.3c-0.3,1.5,0,3-0.1,4.5
			c0.4,2.8,2.6,2,4.3,2.1c4.6,0.3,9.3-0.3,13.9,0.4c0.7,0.1,1.3,0.4,1.9,0.6c2.5,0.6,3.8,2,3.4,4.6c-0.4,2.3-2,3.3-4.3,3.3
			c-1.1,0-3-0.5-3.2,0.6c-0.8,5.4-5.7,3.4-8.5,4.8c-2.6,1.3-2.9-1.5-3.2-3.1c-0.5-3.4-2-4-5.2-2.9c-2.6,0.9-5.3,2.2-8.2,1.8
			c-2.8,0-4.7-2.7-7.6-2.5c-5.1-4-8.5-3.9-15.1,0.8c-1.3,1-2.4,2.4-4.1,2.8c-2.2,0.5-1.6,1-0.5,2.4c1.3,1.8-0.7,3.3-1.2,5
			c-1.2,2.3,0,5.4-2.2,7.4c-0.2,0.1-0.5,0.2-0.7,0.3c-1.7-1.4-0.9-3.4-0.7-5c0.6-4.4-0.6-7-5.5-6.8c0.6-1,1.6-1.3,2.6-1.8
			c2-1.5,1.1-3.6,1.3-5.5c0.4-3.9-0.9-7.9,1-11.6c3.2-0.6,2.1,2.1,2.7,3.5c0.1,3.7,2.8,3.9,5.6,4.1c3.1,0,4.1-2.4,5.3-4.5
			c1.5-1.7,3-3.4,4.8-4.8c4.8,0.8,10.1-2.8,14.6,1.9C208.7,29.6,213.2,29,214,26.1z"/>
		<path class="st13" d="M151.9,45.5c-0.7-3.3-1.6-4-5.7-3c-5.8,1.4-12.2,0.5-18.3,0.6c-26.4,0.4-52.8-0.3-79.2,0.4
			c-8.9,0.2-17.9-0.1-26.9-0.4c-1.5-0.1-3.3-0.1-3.2-2.2c0.1-1.7,1.7-1.8,3.1-1.8c1.3,0,2.7,0,4,0c37.4,0,74.9,0,112.3,0
			c4.8,0,9.5-0.5,14.1-1.9l0.1-0.1c0.6-0.6,0.2-2.2,1.6-2c1.3,0.2,1.7,1.3,2.2,2.4c0.5,3.4,0.9,6.8,1.3,10.3
			c-1.5,1.4-3.1,0.7-4.7,0.4C152.3,47.3,152.1,46.4,151.9,45.5z"/>
		<path class="st14" d="M246,148c2-1.1,4.1-2.2,2-5c3.3-2.1,6.7-2.8,10,0c9.3,0,18.6,0,27.9,0c0,0.4,0,0.7,0,1.1
			c-9.4,0-18.8-0.1-28.2,0.1c-2.1,0-6-1.1-5.9,1.6c0.1,2.7,3.9,1.2,5.9,1.2c9.4,0.2,18.8,0.1,28.2,0.6c-10.6,0.8-21.2,0-31.7,2.6
			c7.6,0,15.1,0,22.7,0c1.2,2.1-0.5,2.6-1.9,3c-1.8,0.5-3.6,0.3-5.4,0.4c6,0.9,12.1-0.1,18,1.2c1.9,0.4,3.6,0.4,4.4,2.4
			c-0.7,1.3-1.8,2.3-3,3c-9.7,0.7-19.5,0.6-29.2,0c-2.8-0.5-5.5-1.2-7.8-3.2C249.1,154.6,248.2,150.9,246,148L246,148z"/>
		<path class="st15" d="M1.2,61.1c0-0.7-0.1-1.3-0.1-2c1.2-1.9-0.5-4.2,0.9-6c1.8-2.7,5.1-0.3,7.2-2.2c0.4-0.2,0.9-0.2,1.3-0.2
			c0.2,0.1,0.4,0.3,0.5,0.4c-0.1,20.8-0.1,41.6-0.2,62.5c0,1.2,0.6,3.5-1.9,1.4c-0.8-7.8-0.1-15.5-0.4-23.3
			c-0.1-2.1,0.3-4.5-2.8-4.9c-2.2-0.4-2.6-2-2.9-3.9c-1.2-6.2-1.5-12.3-1.1-18.6C1.9,63.2,1.8,62.2,1.2,61.1z"/>
		<path class="st16" d="M235,68.1c-0.3,1.7,0.5,3.5-0.9,5c-0.1-0.3-0.1-0.7-0.2-1c-0.5-3.6,1.9-8.3-0.5-10.5
			c-2.7-2.5-7.6-0.8-11.5-0.8c-13.6-0.1-27.1-0.1-40.7-0.1c-1.4,0-3,0.7-4.2-0.6c0.1-0.1,0.2-0.3,0.3-0.4c2.3-1.2,4.8-1.2,7.3-1.2
			c11.8,0,23.6-0.1,35.4,0c6.3,0.1,12.6-0.1,18.5-2.8c7.8-1.2,15.6-1.8,23.4-0.7c0.9,0.3,1.6,0.7,2.1,1.5c0.6,1.2,0.1,2-0.7,2.9
			c-2.9,1.1-5.9,1-9,1c-5,0.1-10,0.8-15,1.3c-2.4,0.3-2.6,2.7-3.2,4.6C235.9,67,235.5,67.6,235,68.1z"/>
		<path class="st17" d="M5.1,86.1c3.5-1.9,5.1-1.1,5,3.2c-0.2,7.2,0,14.5-0.1,21.7c0,1.4,0.4,3-1,4.1c-1.4-1.2-2.8-2.4-4.1-3.6
			c-1.2-3.6-1.9-7.2-1.2-11c0.6-3-0.1-5.9-0.1-8.9C3.3,89.6,3.1,87.5,5.1,86.1z"/>
		<path class="st18" d="M157,47.1c-3.8-2.7-1.3-6.6-2-9.9c2.3-3.5,5.6-2.1,8.5-1.5c2,0.4,2.4,2.4,1.7,4.4c0.6-1.1-0.2-3.5,2.1-3.2
			c1.5,0.2,1.8,1.8,1.9,3.1c0.2,2.8,0.7,5.7-1.2,8.1l-0.3,0.2l-0.4-0.1C163.8,48.9,160.3,48.7,157,47.1z"/>
		<path class="st11" d="M168,48.2c0-3.5,0-7,0-10.8c-2.8,0.8-1.4,2.6-2.5,3.7c-1.1-7.6-6-5.1-10.4-4c-1-1.2-2-1.6-3,0
			c-0.4-2.7,1.4-2.6,3.3-2.8c4.2-0.5,8.8,1.6,12.8-1.2c0.5-0.3,1.1-0.4,1.6-0.2c4.1,0.8,5.8,3.4,5.2,7.5c-0.4,2.4,0.6,5-0.8,7.3
			c-1.2,0.2-2.3,0.3-3.5,0.5C169.9,48.3,169,48.2,168,48.2z"/>
		<path class="st19" d="M5.1,86.1c-0.2,1.7-1.4,3.3,0,5c-0.9,3-0.7,6,0,9c-1.3,3.8,0.9,7.6-0.2,11.4c-1.3-1.1-2.6-2.2-3.9-3.3
			c1.1-12.7,0.9-25.3,0.1-38c0.1-3,0.1-6,0.2-9c3.1,1.7,1.2,4.5,1,6.5C1.6,74.1,3.4,80.1,5.1,86.1z"/>
		<path class="st20" d="M249,107.1c-0.7,5.1-1.5,10.1-2.2,15.2c-0.2,1.7-0.9,2.9-2.8,2.8c0.3-9.7,3.2-19.1,3.1-29.7
			c0.8,1.7,1.2,2.6,1.7,3.5C250,101.6,249.6,104.4,249,107.1z"/>
		<path class="st21" d="M249,107.1c-0.1-2.7-0.1-5.5-0.2-8.2c0.2-6.9-0.9-13.2-6.8-17.8c0.4-0.3,0.8-0.4,1.3-0.5
			c2.7,1.3,5.3,2.5,6.6,5.5C249.9,93.1,251,100.2,249,107.1z"/>
		<path class="st9" d="M259.8,160.1c9.7,0,19.5,0,29.2,0c-0.1,0.3-0.1,0.6-0.1,0.8c-9.7,0-19.3,0.1-29,0.1
			C259.8,160.7,259.7,160.4,259.8,160.1z"/>
		<path class="st22" d="M246,148c1.9,0,4-0.8,3.1,2.9c-0.4,1.8,3,3.4,3,6C247,156,246.5,152,246,148z"/>
		<path class="st13" d="M16.1,42.2c0.9,0.4,0.9,0.4,1.2,3.4c-1.2,2.8-4.1,3.7-6.1,5.6c-0.1-0.1-0.2-0.3-0.4-0.4
			c-1.3-2.9-1.4-5.3,2.2-6.4C14.3,44,15.1,42.9,16.1,42.2z"/>
		<path class="st11" d="M157,47.1c3.4,0.4,6.9,0.8,10.3,1.1c-4.9,0.8-9.9,0.6-14.8,0C154,47.9,155.8,48.6,157,47.1z"/>
		<path class="st23" d="M243.2,81c-0.4,0-0.7,0.1-1.1,0.1c-1.5-1.3-3.7-2.2-2.3-4.8c0.7,0,1.4,0,2.1-0.1C244.1,77.3,244,79,243.2,81
			z"/>
		<path class="st24" d="M345,63.1c-0.2-1.7,0.6-3.6-1-5c-2.4-4.5-1.8-9-0.4-13.6c5.3-0.5,5.3-0.5,5.4,7.5c0.1-6.7,0.1-6.7,5.4-6.3
			c2,1.3,2.7,3.1,2.2,5c1-1.4-0.6-3.9,1.1-5.6c0.8-0.4,1.3-0.1,1.8,0.5c0.6,1,0.5,3.7,2.7,1.2c2.2,0.6,2.2,2.6,1.8,4
			c-0.7,3.1,1.6,0.9,2.3,1.5c1.1,0.3,1.8,1.2,2.9,1.6c0.4,0.1,0.8,0.3,1.2,0.4c2.8-2.3,0.6-5.4,1.3-8c0.2-1.4,0.1-3,2-3.5
			c2.8,2.9,0.9,6.6,1.8,10.3c0.4-2,0.1-3.7,1.3-5.1c0.4-0.3,0.9-0.3,1.4-0.1c2.2,2.6,0.2,6,1.6,8.8c1,0.8,1.3,1.9,1.4,3.3
			c0.8-3,3-3.7,5.6-4c1.6-0.2,3.9,0.2,3.9-2.6c0.1-1.7,0-3.4,0.8-5c0.3-0.4,0.7-0.6,1.2-0.7c1.6,0.8,1.3,2.4,1.6,3.7
			c0.1,0.4-0.1,1.1,0.6,0.9c0.4-0.1,0.5-0.8,0.8-1.2c0.3-0.3,0.7-0.5,1.2-0.5c1.1,0.4,1.4,1.7,2.4,2.2c2.3,1.8,4.3,0.7,6.7-0.1
			c2.6-0.9,5.9-2.9,7.5,1.6c1,1.6,2.4,3,2.6,5.2c0.2,4,4.6,3.6,6.7,5.8c0.9,0.9,2.5,1,1.5,2.8c-0.4,0.6-0.7,1.2-1.1,1.8
			c-0.7,0.6-1.4,0.8-2.3,0.7c-6.3-0.8-12.6-1.3-18.9-1.9c-1.3-1.4-1.3-4.1-3.9-4.1c-2.6,0.1-2.4,2.8-3.6,4.3
			c-4,0.9-8.1-0.1-12.1,1.1c-2.9,0.2-5.8-0.5-8.8-0.4c-1.4,0.1-2.4-0.5-3.3-1.7c-3-4-3.7-3.9-6.8,0.6c-4.3-2.6-9.5-2.2-14.1-3.7
			c-2.1-0.7-2.2-2.4-1.8-4.3C347.3,62.4,346.8,63.4,345,63.1z"/>
		<path class="st25" d="M363,68.1c-0.3-3.1,1.6-3.8,4.2-4.2c2.5-0.4,3.3,1,3.7,2.9c0.3,1.2,0.3,2.1,2.1,2c3-0.2,6,0.2,9,0.4
			c7.7-0.2,15.3,2,23.2,0.7c3.7-0.6,7.7-0.5,11.2,1.5c1.5,0.9,3.5,1.4,3.6,3.7c-2.2,1.6-4.4,3.3-7.4,2.9c-1.7-0.2-2.3,0.7-2.5,2.2
			c-3,2.5-6.7,1.5-10.1,1.5c-15.4,0-30.8,0.2-46.3,0.1c-2.6,0-5.4,0.4-7.6-1.6c-0.3-1,0-2.3-1-3.1c0.1-0.3,0.1-0.6,0-0.9
			c-1.9-5.2-1.2-6.7,4-7.4c4.6-0.7,9.2-0.8,13.7,0.7c0.1,0,0.3-0.2,0.4-0.3C363.3,68.7,363.2,68.4,363,68.1z"/>
		<path class="st26" d="M346,80.1c21.3,0,42.6,0,63.9,0c0,1,0,2,0,3c-3.5,3-7.7,1.1-11.5,1.2c-7,0.2-14.1,0.6-21.2-0.1
			c-1.1-0.1-2.3,0.2-3.3,0.8c-7.8,0.1-15.5-0.1-23.3,0.3C346.5,85.5,344.9,84.3,346,80.1z"/>
		<path class="st27" d="M448.1,61.4c-0.1,2.8-2.2,2.8-4.2,2.8c-6.3,0-12.6,0-18.9,0c-0.2-0.2-0.4-0.4-0.6-0.5
			c-1.9-4.5,0.4-7.9,2.7-11.4c0.4-0.6,1-1.1,1.7-1.4c2-0.4,3.9,0.3,5.8,0.8c3.9,1.1,7.8,2.4,11.5-0.6
			C448.3,54.2,447.3,58,448.1,61.4z"/>
		<path class="st28" d="M448.1,61.4c-2.5-3-1.8-6.7-2.3-10.1c-1.5-1.6-1.2-3.5-1-5.4c0.1-0.5,0.3-1,0.6-1.5c0.4-0.5,0.9-0.5,1.4-0.2
			l0,0c0.7,0.7,1.2,1.7,1.1,2.6c-0.9,4.8,1.8,1.2,2.9,1.3c4.1-0.1,8.2,0.1,11.4,0c-3.3,0.2-7.4-0.2-11.6-0.2
			c-1.5-0.4-2.6-0.9-1.6-2.7c11.6-0.5,23.2-0.4,34.9-0.1c0,2-0.1,4-0.1,6.1c-2.6,2.8-3.9-0.7-5.8-1.2c-1.1-0.4-2.3-0.7-3.4,0.1
			c-1.1,1.5-2.3,3.1-4.4,2.8c-4.5-0.6-9,0.8-13.4,0.3c-4-0.4-6.2,1.1-7.8,4.3C449,58.9,450,60.5,448.1,61.4z"/>
		<path class="st29" d="M449,57.5c0.3-4.3,1.8-6.4,6.9-5.6c4.7,0.8,9.7-1.4,14.6-0.2c3.2,0.8,1.8-2.9,3.5-3.7c1.1,1.4,2.2,2.6,4,1.1
			c2.5-0.9,3.2,3.4,5.8,2c0,1.9,0.1,3.9,0.1,5.8C472.2,57.2,460.6,57.4,449,57.5z"/>
		<path class="st30" d="M424,68.3c-2.9-0.9-4.1-4.6-7.8-4.4c-1.6,0.1-2.1-2.4-1.8-3.1c1.2-3-1.3-4-2.5-5.7c1.1-0.8-0.3-3.1,1.9-3.3
			c0.7,0.1,1.4,0.3,2.1,0.6c2.7,1.3,6.1,0.6,8.4,2.9c0.7,2.8-0.9,5.7,0.6,8.4L425,64l-0.2,0.2C424.6,65.6,424.3,66.9,424,68.3z"/>
		<path class="st31" d="M419.9,75c-5.6-4.9-12.3-4.2-18.8-3.6c-6.6,0.6-12.8-1.2-19.1-2.2c4-0.8,8-1.5,12,0c2.7-0.3,5.3-1,8-1
			c7.1-0.4,14.1,0.8,21,2C422.5,72.1,422.8,74.5,419.9,75z"/>
		<path class="st32" d="M294.8,160.8c0-15.9,0-31.8,0.1-47.7c0-1.7-0.8-3.7,1-5.1c0,16.1,0,32.2-0.1,48.3
			C295.8,157.8,296.7,159.7,294.8,160.8z"/>
		<path class="st25" d="M373.9,85c0.9-1.1,2.1-1.9,3.4-1.7c9.4,1.4,18.9-0.5,28.3,0.7c1.4,0.2,2.9-0.6,4.3-0.9
			c0.7,2.7-1.4,2.1-2.7,2.1C396.2,85.2,385.1,85.1,373.9,85z"/>
		<path class="st33" d="M394.7,27c3.1-5.1,6.1-10.2,9.3-15.3c1.4-2.3,12.2-3.9,14.1-2.2c0.8,0.8,0.6,1.8,0.6,2.8
			c0.1,3.5,0.1,6.9,0.2,10.4c0.1,3-0.6,6,3.1,8c2.4,1.3,0.6,4.6,1.1,7c0.6,1.1,0.4,2-0.6,2.8c-3.4,0.9-6.8,1.5-10.3,1.6
			c-3-0.9-6.1-0.8-9.2,0c-2.6,0.6-5.4,0.6-8,1.1c-0.8,0.2-1.3-0.1-1.8-0.7c-0.6-0.8-0.9-1.7-0.7-2.6c1-2.2,0.2-4.5,0.2-6.8
			c0.1-1.9,0.3-3.6,1.7-5C394.6,27.8,394.7,27.4,394.7,27z"/>
		<path class="st34" d="M217,26.9c0-0.3,0-0.6,0-0.8c1.4-2.6,4-2.2,6.2-2.2c8,0.3,15.9-0.2,23.6-3c4.9-1.8,10.1-0.8,15.2-1
			c-13.9,0.1-27.7,0.2-41.6,0.1c-1.5,0-3,0.4-4.3-0.8c-0.2-2.3,1.6-1.7,2.7-1.7c15.2-0.1,30.5-0.1,45.7,0c1,0,2.7,0.2,2.8,0.6
			c0.9,5,4.7,3,7.4,3.1c15.4,0.2,30.8,0.2,46.3,0.2c0.6,0.7,0.6,1.4,0.1,2.1c-1.2,1-2.7,1.3-4.2,1.3c-9.6,0-19.1,0.9-28.7,0.2
			c-10.8-0.8-21.8,0.8-32.7-0.2c-1.1-0.1-2.3,0.2-3,1.4c-0.4,1.1-0.9,2.1-1.3,3.1c-0.5,1.1,0.7,0.3,1.1,0.6c0.7,0.2,1.1,0.7,1.2,1.5
			c0,0.5-0.2,0.9-0.5,1.4c-0.4,0.4-0.8,0.6-1.2,0.9c-2.2,1-4.4,1.2-6.7,0.4c-2.5-1.3-2.9-3.3-1.6-5.9c-8.9,3-17.3,2.3-25.7,0.1
			C217.4,27.8,217.2,27.4,217,26.9z"/>
		<path class="st35" d="M216.1,19.2c8.5-0.5,16.9-0.1,25.4-0.1c6.6,0,13.5,0.2,20.1-0.6c1.9-0.2,3.6-0.1,4.9,1.7c-1.4,1.8-3.4,1-5,1
			c-7.7-0.1-15,0.7-22.3,3.5c-4.2,1.6-9.5,0.4-14.3,0.6c-2.6,0.1-5.3-0.6-7.8,0.9c-0.7-0.6-1.3-1.3-2-1.9c0.3-1,0.6-2,0.9-3.1
			C216,20.4,216.1,19.8,216.1,19.2z"/>
		<path class="st36" d="M445.9,44.1c0,0.4-0.1,0.8-0.1,1.2c-0.8,2.1-1.5,4.3-4.4,2.2c-1-0.7-1.8-2.4-3.3-1.6c-2.6,1.3-5.5,1.2-8,2.1
			c-1.1,0.4-0.3,2.2-1.1,3.1c-0.3,0.3-0.7,0.7-1,1c-3.1-0.5-1.9-3.4-2.9-5.1c-0.2-0.8-0.3-1.6-0.4-2.5c0-2.2-0.4-4.6,1.3-6.5
			c6.9-0.3,13.8-0.6,20.8,0.1C449,40.6,446.1,42.2,445.9,44.1z"/>
		<path class="st37" d="M321,23.1c0-0.6,0-1.2-0.1-1.9c3-0.4,6.7,0.5,7-4.2c3.8,3.9,7.7,4.3,12.6,1.1c0.4-0.2,0.9-0.2,1.3,0
			c1.2,5.5,6.2,4.7,9.8,5.1c7.1,0.9,14.2,2.2,21.4,1.8c0.8,0.9,1.8,1.8,1,3.2c-4.8,0-9.6,2.2-14.5,0.1c-1.6-0.7-2.4,0.6-3.5,1.2
			c-0.7,0.3-1.4,0.3-2.1,0.1c-4.2-1.9-8.2-4.3-13-4.2c-1.6-0.1-3.1,0.3-4.6,0.6C331.1,25.4,325.8,25.4,321,23.1z"/>
		<path class="st38" d="M340.9,18.2c-1.9,6.2-6.7,2.5-10.3,2.9c-3.3,0.4-2.4-2.3-2.7-4.1c1.9-3.1,3.6-6.2,6.1-8.9
			c4.9-1.5,4.5,2.8,5.1,5.2C339.4,15.2,339.7,16.8,340.9,18.2z"/>
		<path class="st39" d="M373.9,28.2c-0.3-1-0.6-2-1-3c6.2-0.1,12.3-0.1,18.5-0.4c2-0.1,2.5,1.1,3.3,2.3c0.2,0,0.4,0,0.5,0.2
			c-0.3,1.5-1.5,1.6-2.7,1.7c-3.6-0.4-7.2-0.2-10.7,0.3C379.2,29.7,376.3,30.3,373.9,28.2z"/>
		<path class="st40" d="M340.9,18.2c-2.4-0.4-3.5-1.2-3.1-4.2c0.3-2.2-0.5-5.3-3.8-5.8c6.5-2.3,7.9-1.5,7.9,4.6
			c0,1.8-0.1,3.6-0.1,5.4C341.5,18.2,341.2,18.2,340.9,18.2z"/>
		<path class="st41" d="M425.8,45.1c0,0.7,0.1,1.4,0.1,2.1c0.9,3,0.9,5.9-2,8c-3.2,0.1-6.2-0.3-9-2c1.6-2.3,4.9-1.8,6.6-4
			c0.2-1.6,0.1-3.1,0.1-4.7c0-1.4-0.4-2.8,0.3-4.2c0.9-0.5,1-1.4,1.2-2.3c0.3,0,0.6,0.1,0.8,0.3C425.9,40.1,423.9,43.1,425.8,45.1z"
			/>
		<path class="st42" d="M450.7,48.9c-2.5,0.1-1.2,2.8-2.7,3.9c-1.8-2.7-0.9-5.7-1.1-8.5c0.7,0.3,1.5,0.7,2.2,1
			c0,1.2,0.7,1.8,1.9,1.9C451.5,47.8,451.5,48.4,450.7,48.9z"/>
		<path class="st43" d="M425.8,45.1c-3.7-1.4-1.2-4.6-1.9-6.8c0.7,0,1.4,0,2.1,0C425.9,40.5,425.9,42.8,425.8,45.1z"/>
		<path class="st44" d="M445.9,44.1c0.3-1.9,0.5-3.9,0.8-5.8c5.6,1.8-0.1,3.9,0.1,5.9h-0.5L445.9,44.1z"/>
		<path class="st45" d="M214,26.1c0.6,2.8,0.1,4.4-3.4,3.8c-3-0.6,0.5,2.6-1.8,2.9c-2.6-8.4-9.8-2.7-14.8-4.6
			c-0.8,0.6-1.8,1.2-2.7,1.1c-5.5-0.5-9.6,2.7-14.2,4.8c-0.6-1.5,0.9-3.6-1.3-4.6c-0.4,0.3-0.9,0.6-1.4,0.7c-1.6,0.2-3.1,0.3-4.3-1
			c3.2-0.9,6.9-0.8,7.8-5.1c3.8,2.8,8,1.5,12.1,1.1c1.7-1.5,3.3-1.2,5,0.1C201.3,26.9,207.7,24.8,214,26.1z"/>
		<path class="st46" d="M10.2,51.1c-1.9,4-5.6,0.7-8.1,2.1c-0.7-2.9-1.4-5.9-0.9-8.9c2.9-2.4,5.8-4.8,8.8-7.2
			c0.2,0.1,0.4,0.2,0.5,0.4C10.9,42,11.1,46.5,10.2,51.1z"/>
		<path class="st47" d="M170.1,29.2c1.7,0.1,3.4,0.2,5.1,0.3c0.1,4.9-0.3,5.2-5.8,3.9c-0.4-0.1-0.8-0.1-1.2-0.2
			C168.6,31.7,166.6,29.1,170.1,29.2z"/>
		<path class="st48" d="M363,68.1c-0.4,1.8-0.4,1.8-1.6,1.7c-3.5-0.1-7.1-0.1-10.6-0.3c-4.6-0.2-6.7,1.7-5.8,6.5
			c-0.7,0.1-1.3,0.1-2,0.2c-1.4-4.7,2.1-8.6,1.9-13.2c1.3-0.5,1.9-1.6,2.5-3.3c0.2,2.9,1.2,4.2,4.2,4.6
			C355.6,64.8,359.9,64.9,363,68.1z"/>
		<path class="st49" d="M292.1,157c-5.1-2.8-10.6-1.9-16-1.9c-3.6,0-7.2,0.6-10.8-2.5c2.7-1.1,5.1-0.4,7.3-0.7
			c1.6-0.2,3.9,0.8,4.3-2c3.4,0,6.7,0,10,0c0.4,2.4-2.8,1.4-2.4,3.6c3.3,0.9,5.8-1,8.4-2.6C292.7,153,293.8,155.2,292.1,157z"/>
		<path class="st50" d="M297.8,105.1c1.7,0,3.5,0.1,5.2,0.1c4.1,2,8.7,0,12.9,1.7c-5.9,0-11.9,0.2-17.8,0c-5.3-0.2-2.1-4.4-2.9-6.7
			c1.9,1.2-0.6,4,1.8,5C297.2,104.6,297.5,104.6,297.8,105.1z"/>
		<path class="st51" d="M342.2,91.8c0-3.2,0-6.4,0-9.6c0.2,0,0.3,0,0.5,0c0,3.2,0,6.4,0,9.7C342.5,91.9,342.3,91.8,342.2,91.8z"/>
		<path class="st52" d="M195,25.2c-1.7,0-3.3,0-5-0.1c-0.9-1.8-2.5-2.3-4.2-1.9c-3.9,0.9-4.8-1.9-4.2-4.2c1.3-5,0.1-10,0.6-14.9
			c0.3-2.9,1.2-2.9,3.3-2.5c3.8,0.6,7,2.7,10.3,4.6c1.5-1.7-2.3-2.5-0.6-3.6c1.7-1,2.1,1.3,3.1,1.9c5.9,3.7,8.7,10,13.2,14.8
			c0.8,0.8,1.8,1.7,1.1,3s-2,1-3.1,0.9c-3.5-0.2-7.4,1.1-10.4-2c-1.8-1.9-3.3,1.5-5,0.3c-0.1,0.7,0.8,0.3,0.9,0.7
			C195,23.2,195,24.2,195,25.2z"/>
		<path class="st53" d="M195,22.2c-0.6,0-1.3,0-1.9,0c1.4-1,2.9-1.6,4.3-2.7c2.5-1.9,1.2,0.9,1.7,1.6C198,22.6,196.4,22,195,22.2z"
			/>
		<path class="st54" d="M243.2,81c-1.3-1.4,0.2-3.5-1.3-4.8c6.6,0,13.5-1.3,19.7,0.3c7.5,1.9,14.3-1.2,21.6-0.5
			c6.1,0.7,7.8,1.6,8.9,8.1c-4.2-0.8-8.6-0.4-12.6-2.3c-1.2-0.6-2.2-0.2-3.3,0.2c-6.9,2.8-13.8,5.5-20.7,8.2
			c-2.3,0.9-0.8,4.3-3.5,5.3c-2.3-2.8,0.7-6.8-2-9.5C247.7,84.4,245.4,82.7,243.2,81z"/>
		<path class="st55" d="M258.1,143c-3.4-0.9-6.7,0.1-10,0c-2.6-5.3,0.6-10.7-0.2-16.1c-0.2-1,1.1-1.1,1.4-0.9
			c4.4,2.8,9.2,0.3,14,1.2c7.6,1.4,15.9,2,23.7-0.1c-1.2,1.9-1.2,1.9-3.6,1.9c-9,0-18,0-27,0.1c-1.6,0-3.3-0.6-5.6,1.4
			c12.7,1.1,24.6,0.4,36.5,0.5c-1.8,2.1-1.8,2.1-11.2,2.1c-4.3,0-8.7,0-13,0c-4.1,0-8.1,0-12.2,0c0,0.5,0,1,0,1.5
			c12.1,0,24.2,0,36.2,0c0,0.7,0,1.5,0.1,2.2c-11.8,0.7-23.7-0.1-35.5,0.4c0,0.4,0,0.8,0,1.3c11.4,0,22.8,0,35.1,0
			c-1.8,2.7-3.5,2.7-5.2,2.5c-6.9-1-13.8,0.7-20.7,0.2C259.5,141,258.6,141.8,258.1,143z"/>
		<path class="st2" d="M297.8,105.1h-0.4H297c-0.1-5.7-0.1-11.4-0.2-17.1c0.1-3.9,0.2-7.9,0.3-11.8c0.3-0.4,0.6-0.4,0.9-0.1
			C297.9,85.8,297.8,95.4,297.8,105.1z"/>
		<ellipse class="st56" cx="275.5" cy="124.6" rx="14.8" ry="0.4"/>
		<path class="st57" d="M285.8,120.9c-5.9,0-11.7,0-17.6,0c0-0.2,0-0.3,0-0.5c5.9,0,11.8,0,17.6,0
			C285.8,120.5,285.8,120.7,285.8,120.9z"/>
		<path class="st58" d="M235,68.1c0-0.7,0.1-1.3,0.1-2c5-5,11.4-4.4,17.6-4.1c15,0.5,30.1-0.7,45.1-0.2c5.2,0,10.5,0,15.6-1.6
			c0.5-0.2,1.1-0.3,1.6-0.4c7.3-2.3,14.4,1.1,21.7,0.8c1.7-0.1,3.2,0.9,4.1,2.4c0.2,2.9-0.2,5.3-4,5c-2-2.7-4-5.1-7-1
			c-5.2-2.3-10.4-3.7-16.3-2.1c-11.8,3.2-24,1.9-36.1,2.1c-2.3,0-5.1-0.9-6.1,2.7c-0.3,0.9-1.4,1.6-2.3,0.3
			c-2.9-4.6-7.5-2.8-11.4-2.6c-2.5,0.2-4.8,0.6-7.3,0.1c-1.3-0.3-4.7-2.8-4.3,1.9c0.1,0.7-1.1,0.7-1.6,0.3
			C241.7,67.3,238.3,68.3,235,68.1z"/>
		<path class="st59" d="M340.9,63.1c-8.6-1.2-17.1-3.5-26-2c0.1-3,2.6-3.4,3.9-4.2c-3.1,0.8-6.9,0.6-10.6,0.3
			c-1.2-0.1-2.4-0.5-2.6-1.9c-0.2-1.4,1-2,2.1-2.4c5-1.8,10.2-2.9,15.3-3.9c4.7-0.9,8.6-3.4,13-4.7c2.2-0.7,4.3-1.8,6.7-0.6
			c1.1,4.2,0.8,8.4,0,12.6c-0.3,1.3-0.8,2.5,0.1,3.8C343.2,61.7,341.6,62.1,340.9,63.1z"/>
		<path class="st60" d="M310,89.1c-1.2-2.6-1.8-5.2-1.9-8.1c0.4-3.5,2.2-5.2,5.8-4.9c0,4.3,0.1,8.6,0.1,13c-0.4,0.3-0.9,0.3-1.3,0.1
			c-1.2-2.4-1.4-4.9-0.4-7.2c-1.1,1.1-0.8,2.7-0.7,4.4C311.8,87.5,312.1,89.1,310,89.1z"/>
		<path class="st61" d="M329.9,67.1c-0.1-2.3,0.5-4.2,3.2-3.9c2.8,0.3,3.9,2.2,3.8,4.9C334.3,70,332.1,68.8,329.9,67.1z"/>
		<path class="st62" d="M343,60.1c-2.6,0.9-3.3-1.4-2.3-2.4c3.9-4.1,1.7-9,2.4-13.5c-0.1-1.9,0.3-3,2.3-1.4c0.1,0.5-0.1,0.9-0.4,1.3
			c-2,4.6-0.4,9.3-0.9,14C343.9,58.9,343.8,59.7,343,60.1z"/>
		<path class="st50" d="M298,76.1c-0.3,0-0.6,0-0.9,0.1c3.3-2,6.6-1.8,9.9-0.2C304,76,301,76.1,298,76.1z"/>
		<path class="st63" d="M10.2,51.1c0.1-4.5,0.2-9.1,0.3-13.6c-0.3,4.2,3.3,3.7,5.7,4.7c0.1,1.5-0.1,3.8-1.7,3.6
			c-4.7-0.5-2.9,3.1-3.6,5C10.6,51,10.4,51.1,10.2,51.1z"/>
		<path class="st33" d="M345,43.2c-1.4-1.2-1.5,0.4-2,1c-3.3-0.4-6.4,0.8-8.8,2.6c-5.4,3.9-12.3,2.9-18.1,6.1
			c-2.3,1.3-6.5,0.7-10.7,2.5c5.8,1.5,10.7,0.4,15.6,1c-2.1,1.7-4.1,3.3-6,4.8c-0.3,0-0.7,0-1,0c-5.3,1-10.8,0.3-16,2
			c-2.9,1.5-5.8-0.1-8.7,0c-11.1,0.3-22.2,1.2-33.3,0.6c-5.9-0.3-11.6-0.2-17.2,1c-1.3,0.3-2.4,1-3.6,1.5c0.4-4.7,2.7-6.2,7.6-5.9
			c3.3,0.2,7.5,1.3,10.4-2.1c3,3.2,6.6,0.5,9.8,1c12.6-1.7,25.3-0.8,38-2.2c-7,0.7-14,0.6-21,0.6c-5.7-0.6-11.5,1.3-17-1.4
			c-8,0.1-16-0.4-24,0.9c-1.5-2.2-3.6-2-5.8-1.2c-4.8,1.9-9.1,1.1-12.9-2.2c-2.9-2.5-5.8-3.5-9.5-1.8c-3.3,1.6-6.5,0.9-9-1.8
			c-0.5-2.7,0.2-4.7,3.3-4.2c2.2,0.3,0.2-0.8,0.5-1.2c0.7-1,1.1-2,2.5-1.5c3.2-0.8,6.6-1.1,9.5-2.5c3.5-1.7,4.6-0.6,5,2.7
			c0.2,1.4,0.6,2.8,0.8,4.1c1.8,0.6,1.4-1.8,2.1-1.6c4.1,1.2,6.1-0.6,7.3-4.3c0.2-0.7,1.1-1.5,2-0.8c2.2,1.6,4.1,1.7,5.1-1.1
			c1.3-3.6-2.4-3.1-3.9-4.4c4.7-3.1,9.8-0.5,14.8-0.9c1.3-0.1,1.4,2,1.5,3.3c0.3,2.2-0.4,4.6,0.8,6.7c0.6,0.9,1.4,1.7,2.4,2.1
			c13.1,0.6,26.1,0,39.2,0.2c1.6,0.2,3.2,0,4.8-0.4c3-1.3,1.8-3.9,2-6.1c0.4-5.4,1.2-6.3,6.6-6.3c5.6,0,11.2-0.4,16.8,0.3
			c4.6,1.4,9.3,0.1,13.9,0.9c2.7,1.7,5.5,1.6,8.3,0.3c2-0.5,4-0.6,5.9,0c0.5,0.2,0.9,0.5,1.2,0.9c0.6,2.6,0.9,5.1-1.5,7.1
			C350.1,44.7,347.5,44.7,345,43.2z"/>
		<path class="st64" d="M202.1,50.2c4.3,1.8,8.4,1,12.6-0.8c2.1-0.9,4,1.4,5.6,2.7c3.9,3.4,7.7,4.9,12.9,2.5
			c1.4-0.6,6.4-3.8,5.8,2.5c-11.7,5.6-24.1,2.2-36.1,2.9c-8.5,0.5-17-0.1-25.5-0.1c1.4-2.4-0.4-5.4,1.7-7.6c6.8-3.1,14-2.7,21.1-2.5
			C200.8,49.6,201.5,49.7,202.1,50.2z"/>
		<path class="st65" d="M201,51.2c-7.4-1.3-14.7,0.6-22,1c-0.1-1.7,3.2-4-0.8-5.1c0.6-0.9-2.1-3.9,1.9-2.6c1.7,0.5,2.8-1.3,4-2.4
			c3.2-3,7.5-4,11.4-5.5c3.4-1.3,3.4,3.3,5.4,4.8c-0.8,4.2-3.9,1.9-6,2.3C199.9,43.6,200.2,47.6,201,51.2z"/>
		<path class="st66" d="M177.1,34.1c4.2-6.2,10.5-6.1,16.9-5.9c-0.5,2.3-3,3.1-4,5c-2.2,1.3-4.6,2.5-5.9,4.9
			C181,38,177.5,38.6,177.1,34.1z"/>
		<path class="st67" d="M252.1,46.1c-2.3-2.6-0.7-5.7-1-8.6c-0.2-1.9-0.3-2.9-2.8-2.6c-4.1,0.4-8.3,0.2-12.4,0.2
			c-5.4,0-10.9,0.1-16.3-0.1c-2.1-0.1-5.2-0.1-2.8-3.8c3.3,0.5,6.7,0.6,10,0.4c6,0.5,12.3-1.4,18.1,1.4c2.4,0,4.8,0.5,6.9-0.9
			C254.2,36.8,254.4,41.5,252.1,46.1z"/>
		<path class="st68" d="M201,51.2c-2.6-2.3-1.9-7.7-7.6-7.1c2.6-2.2,5.9-0.1,7.6-2.9c0.3-1.6,1.7-2.9,2.5-1.2c1,2.4,3.5,1.7,4.6,3.2
			c-1.2,3-5.9,3-6,7C201.7,50.5,201.4,50.8,201,51.2z"/>
		<path class="st69" d="M169.4,33.4c2.5-0.5,6.1,0.8,5.8-3.9c0.2-0.1,0.4-0.1,0.6-0.1c0.1,5.2,0.2,10.4,0.2,15.6
			c0,1.2,0.3,2.8-1.7,2.8c-0.1-1.3-0.2-2.6-0.2-3.9C174,39.7,175.2,35,169.4,33.4z"/>
		<path class="st70" d="M184.1,38.1c-0.4-3,0.7-3.9,5.9-4.9C188.7,35.7,187.5,38.3,184.1,38.1z"/>
		<path class="st45" d="M225.7,33c-3-0.5-6.4,1.6-8.8-1.7c-0.4-1.5-1.6-3,0.1-4.4c0.5,0.2,1,0.4,1.6,0.6c0.4,2.3,2.1,3,4.1,3.5
			C223.9,31.2,225.8,30.7,225.7,33z"/>
		<path class="st71" d="M280.9,56.2c7.5,0,14.9,0,22.4,0c0,0.4,0.1,0.8,0.1,1.3c-4.5-0.5-8.3,2.2-12.9,1.8
			c-7.4-0.6-14.9,0.1-22.3,0.8c-1.7,0.2-3.7,0.7-5.2-0.9c0.3-0.6,0.7-1.2,1-1.9c3.4-1.5,6.9-0.2,10.3-0.4
			C276.5,56.7,278.7,56.9,280.9,56.2z"/>
		<path class="st72" d="M280.9,56.2c-3.9,2.9-8.4,1.2-12.6,1.2c-1.4,0-2.9-0.2-4.4-0.1c-0.3-0.4-0.7-0.8-1-1.2
			C268.9,56.1,274.9,56.2,280.9,56.2z"/>
		<path class="st15" d="M5.1,100.1c-1.6-3-1.6-6,0-9C5.1,94.1,5.1,97.1,5.1,100.1z"/>
		<path class="st73" d="M345,43.2c2.7-0.2,5.5,0.5,8-1c4.5-2.4,9.8-2.2,14.5-4c4.1-0.7,8.3-0.5,12.4,0c2.6,0.9,5.4,0.5,8.1,0.7
			c1.7,0.1,3.6-0.1,4.9,1.4c0.3,0.7,0.7,1.4,1,2c-0.4,2,1.1,4.4-1.2,6c-0.2,0-0.5,0-0.7,0c-1.2-0.9-2.5-1.7-2.5-2.7
			c1.4,2.3-0.5,6.1,2.4,8.7c0,1.3,0,2.9-1.8,2.9c-4.2,0-7.8,0.8-8.9,5.9c-2.2-2-0.3-4.5-2.2-5.8c-1.1-2.2,0.1-2.7,2-2.6
			c2.9-0.8,6.6-0.7,5.7-5.4c-0.2-0.8,0.3-2.2-1.2-2.1c-1,0.1-1.8,0.7-2.1,1.8c-0.4,1.7,0.1,3.6-1,5.2c-2,0.9-2-0.8-2.4-1.8
			c-0.5-1.4-0.3-3.3-2.1-4c-0.3,0-0.5,0-0.8,0c-3.8,0-1.7-3.5-3-5c-1.5,1.1-0.8,2.7-1.1,4.1c-0.6,1.1-2.4,1.4-1.8,3.4
			c0.4,1.5,0.3,3.2-1.1,4.5c-0.4,0-0.7,0-1.1-0.1c-1.2-1.3-0.7-3-1.1-4.5c0.2,1.1,0,2-1,2.6c-1.3-0.2-2.5,0.2-3.4,1.3
			c-1-2.6,0.6-5.3-1.4-7.4c-1.4,0.8-2.2-0.2-3-1c-0.3-0.3-0.6-0.6-0.9-0.9c-1.5-0.1-3-0.3-4.1,1c-2.7,0-4.6,0.6-4,4
			c0.2,1.3,0.6,3-1.4,4.2c-1.7-3.4,1.5-8.5-3.6-10.4C344.9,43.8,344.9,43.5,345,43.2z"/>
		<path class="st74" d="M422.9,50c-2.1,2.5-5.3,2-7.9,3.1c-0.3-0.3-0.7-0.7-1-1c-0.6-0.3-1.3-0.6-1.5-1.3c-0.1-1.1,0.6-2.1,0.6-3.2
			c-0.2,0.9-0.6,1.7-0.9,2.6c-0.4,0.2-0.8,0.3-1.3,0.2c-1,0.2-0.4-3.7-2.4-1c-1.3,2.5-3.6,4-6.1,2.8c-2.8-1.3-3.1,1-4.5,1.8
			c-1.3-0.6-0.9-1.8-1.1-2.8c-1.7-5.1-1.3-5.4,3.5-6.6c3.9-1,8.3-0.7,11.7-3.4c3.4,0.2,6.5-1.9,9.9-1c0.8,1.2,1.3,2.5,1,4
			C421.3,46.2,421.7,48.1,422.9,50z"/>
		<path class="st75" d="M411.9,41.2c0.5,3.1-2.1,3.3-3.8,3.2c-3.7-0.3-6.7,1.9-10.3,2c-2.1,0.1-0.4,3.2-1.1,4.8h-0.4h-0.4
			c-0.7-2.6-4.2-4.9-1.1-8c0.2-0.8,0.3-1.6,0.5-2.4C400.9,42.8,406.5,38.7,411.9,41.2z"/>
		<path class="st41" d="M410.9,50.1c0.3,0,0.6,0.1,0.9,0.1c0.7-0.1,0.8,0.6,1.1,0.9c0.3,0.3,0.7,0.7,1,1c-0.7,1-1.3,2-2,3
			c-0.5-4-3.9-0.2-5.3-2c-2.5,4.1-5.7,2.2-8.8,0.9c-0.3-4.4,3.7-3.9,5.2-3.2c2.8,1.4,3.2-1.1,4.7-1.7
			C408.8,49.4,409.9,49.5,410.9,50.1z"/>
		<path class="st25" d="M401.9,68.1c-2.4,2.1-5,2.8-8,1c-0.2-2.9,0.3-5.6,3.7-5.9C400.7,63,402,65.2,401.9,68.1z"/>
		<path class="st76" d="M374,43.1c1.7,1.2,0.7,4.1,3,5c0,1.8-0.1,3.7-0.1,5.5c0,1.3-0.4,2.5-1.8,2.6c-1.9,0.1-1.2-1.7-1.2-2.6
			C373.9,50.1,373.9,46.6,374,43.1z"/>
		<path class="st77" d="M394.9,43.1c-1.7,2.9,2.1,5.2,1.1,8c-0.2,1.6,0.4,4.1-1.8,4c-2.5-0.1-0.8-2.6-1.3-4c-0.3-0.9-0.1-2-0.2-3
			c0.6-2-0.7-4.3,1.2-6C394.3,42.5,394.6,42.8,394.9,43.1z"/>
		<path class="st77" d="M391.9,54.1c-2,0.2-3.1-0.6-3-2.8c0.1-2.6,0-5.2,0.2-8c0.5,1.9,3.2,2.3,2.9,4.8
			C392,50.2,392,52.1,391.9,54.1z"/>
		<path class="st78" d="M369.9,55.1c1-2.6-2.4-6.9,3-7.9c0,2.6,0.3,5.2-0.1,7.8C372.3,58.1,371,56.7,369.9,55.1z"/>
		<path class="st79" d="M381.9,55.2c-1.5-0.1-2.9-0.1-3,1.9c-2.4-2.7-0.4-6-1.2-9c2.3-0.8,3.1,0.4,3.1,2.5c0.1,1.2-0.4,2.6,1,3.4
			c0.3,0.3,0.3,0.5,0.3,0.8C382.1,55.1,382,55.2,381.9,55.2z"/>
		<path class="st80" d="M353.9,46.2c0.1-1.1-0.3-2.4,1.1-2.8c1.6-0.5,2.3,0.7,3,1.8c-0.5,2,0.6,4.3-1.1,6.3
			C354.8,50.3,355.9,47.3,353.9,46.2z"/>
		<path class="st81" d="M358.9,46.1c1,0.3,2,0.7,3,1c-0.3,1.4,0.8,4-1.8,3.6C358,50.3,359.3,47.7,358.9,46.1z"/>
		<path class="st82" d="M366.8,53.2c0.4-1.4-0.3-3,0.8-4.5c2.1,1.9,1.1,4.2,1.2,6.4C367.5,55.1,367,54.3,366.8,53.2z"/>
		<path class="st83" d="M428.9,51.2c-0.6-2.5-3.7-6.3,2.9-4.7c1.5,0.4,3.7-0.5,5.1-1.4c2-1.3,3-1.2,4.2,0.8c1.8,3,3.3,1.3,4.7-0.5
			c0,2,0,4,0,6c-1.2,2.6-2.9,4-6.1,2.8C436.2,52.8,432.5,52.1,428.9,51.2z"/>
		<path class="st83" d="M423.9,55.1c0.1-2.8,2.9-4.9,2-8c1.8,1.2,0.1,3.8,2,5c-1.2,3.8-4.3,7.1-2.9,11.6
			C422.8,61.1,424.5,58,423.9,55.1z"/>
		<path class="st84" d="M450.7,48.9c0.1-0.6,0.1-1.2,0.2-1.8c5.8,0,11.5,0,17.3,0c0,0.4,0,0.9,0.1,1.3
			C462.5,49.9,456.6,48.7,450.7,48.9z"/>
		<path class="st85" d="M477.9,49.2c0,1.5-0.2,3.1-2.3,2.8c-2.5-0.4-1.5-2.4-1.7-3.9C475.3,48.3,476.9,47.7,477.9,49.2z"/>
		<path class="st86" d="M392.9,40.2c-4.3-0.5-8.8,1-13-0.9c-0.4-0.5-0.4-0.9,0-1.4c2.5-2.1,5.3-1.3,8.1-1.1c5.9,0.5,2.7-4.4,3.9-6.7
			c0.2-0.7,0.5-1.4,1.1-1.9c0.8-0.3,1.6-0.7,2.3-1c-0.6,3.6-2.4,7-0.7,10.8C395,38.9,393.8,39.7,392.9,40.2z"/>
		<path class="st87" d="M419.9,34c0.2,1.5-1,2.7-2.8,2.8c-1.8,0.1-3.2-0.8-3.2-2.9c-0.1-2.1,0.7-3.6,3-3.6
			C419,30.2,419.8,31.5,419.9,34z"/>
		<path class="st88" d="M321,23.1c5.5-0.5,10.6,1.3,16,2c0.7,0.7,0.4,1.5,0.2,2.2c0.5-0.4,0.4-1.1,0.9-1.6c0.8-0.8,2.1-0.9,3-1.6
			c4.8,0.3,9.3,1.4,12.9,4.9c0.9,3.2-1.1,4.5-3.7,5.2c-14.8,0.7-29.5-0.5-44.3-0.2c-2.4,0.1-4.1-1-5.7-2.6c-0.7-0.5-1.4-1-2-1.6
			c-1.6-1.7-3.6-1.5-5.6-1.4c-8.9,0.4-17.9-0.2-26.8-0.1c-3.4-0.4-6.7,0.9-10.1,0.2c-0.8-0.9-1.9-0.2-2.8-0.4
			c-0.9-0.5,0.2-2.8-1.9-2.1c0.1-2.7,1.9-3.2,4.1-3.1c7.8,0.6,15.5,1.1,23.3,0.2c6.4-0.8,12.7,0.4,19.1,0.6
			C305.4,24.3,313.1,22.8,321,23.1z"/>
		<path class="st89" d="M252.1,46.1c-0.1-4.7-0.1-9.3-0.2-14c0.3,0,0.6,0,0.9-0.1c2.1-1.3,4.4-1.3,6.7-1.3c10.7-0.2,21.4,0.7,32,0.1
			c2.4-0.2,5.1-0.4,6.5,2.4c-0.4,2.5-2.5,1.5-3.9,1.7c-7.8,0.8-15.6,0.6-23.4,0.4c7,2.8,13.8,1.9,20.9,0c6-1.6,7.3,0.9,5.1,8.3
			c-0.2,0.4-0.5,0.8-0.9,1.1c-0.4,0.3-1,0.7-1.3,0.6c-4.2-2.6-8.9,0-13.3-1.2c-1.9-0.5-4-1.1-5.3,1.9c-0.9,2.1-3.7,1.6-5.4,1.1
			c-3.1-1-6.5-1.4-9.2-3.5c-3.3-2-3.9,0.1-4.1,2.7c-0.9,1-2.1,0.9-3.2,1C253.4,46.8,252.8,46.5,252.1,46.1z"/>
		<path class="st90" d="M225.7,33c-1-1.2-2.5-0.7-3.7-0.8c-3.3-0.1-4.6-1.5-3.4-4.8c5.9,2,12-0.1,18,1.5c1.7,0.4,3.7-0.9,5.2-2.4
			c0.8-0.9,2-1.1,3.1-0.3c1.6,1.1,0.6,2.1-0.3,2.8c-2.1,1.7-0.3,2.8,0.4,4.1C238.6,33.1,232.2,33,225.7,33z"/>
		<path class="st91" d="M298,34.2c-1.6-3.3-4.7-2.1-7.1-1.9c-10.4,0.8-20.8-0.5-31.2-0.1c-2.3,0.1-4.5,0-6.8-0.1
			c0-0.3,0.1-0.6,0.1-1c0.9-1.4,2.2-2,3.8-2.1c7-0.4,14-0.5,20.9,0c3,0.2,6-0.7,8.9,0.1c4.2,1.3,8.7-0.3,12.9,1.3
			c1.2,0.6,1.4,1.7,1.2,2.9c-0.4,1.2-1.1,1.9-2.4,1.9C297.7,35.1,297.6,34.7,298,34.2z"/>
		<path class="st92" d="M286.8,30.3c-8.3,1-16.7-0.4-25,0c-3,0.1-5.9,0-8.8,0.8c-0.3-0.4-0.6-0.7-0.9-1.1c-0.9-1.2-0.8-1.9,0.9-1.9
			c0.7,0,1.4-1.1,2.1,0.1c4.8,0.7,9.6-0.5,14.4,0c7.4-0.3,14.8,0.4,22.1,0c2.4-0.1,5-0.5,7.2,0.9c0.4,0.4,0.7,0.7,1.1,1.1
			c-0.3,0.1-0.5,0.3-0.8,0.4C295.1,30.5,290.9,31,286.8,30.3z"/>
		<path class="st93" d="M253,28.1c-0.8,0.4-1,1.1-0.9,1.9c-1.5,1.8-3.1,0.5-3.5-0.5c-0.6-1.6,1.4-0.6,1.8-1.1
			c0.4-0.5,0.4-1.5,0.6-2.2C253.5,25,253,26.8,253,28.1z"/>
		<path class="st33" d="M388,38.1c-2.7-0.3-5.4-0.6-8.1,0.1c-1.3,0.9-3,0.3-3.7-0.3c-5.4-5.6-12.5-2.5-18.6-3.9
			c-2.6-1-1.7-3.1-1.6-4.9c0.8-1.6,0.8-4.7,3.9-1.6c1.6,1.6,4.3,1.2,6.2,0.6c2.8-0.9,5.2-0.2,7.8,0.2c4.5,0.5,8.9-0.9,13.4-1
			c1.9-0.1,4-0.8,5.7,1c0,0.7-0.1,1.4-0.1,2.2c-0.6,0.8-1.1,1.8-0.8,2.7C392.9,36.6,391.1,37.8,388,38.1z"/>
		<path class="st94" d="M356,29c3.4,0.7-1.4,3.1,0.8,4.1c-1.6,1.5-3.2,1.5-4.8,0c0.6-1.3,1.2-2.6,1.8-3.9
			C354.6,29.1,355.3,29,356,29z"/>
		<path class="st34" d="M341,24.2c-2,1.8-3.2,4.1-4.7,6.9c-1.4-2.7,1-4.1,0.7-6C338,23.7,339.6,24.3,341,24.2z"/>
		<path class="st95" d="M422.9,50c-2.7-1.9-3.3-3.9,0-5.8C422.9,46.2,422.9,48.1,422.9,50z"/>
		<path class="st96" d="M313.1,89.1c0.4,0,0.7,0,1.1,0c1.7,3.7,4.2,7,6.5,10.5c-3.6-1.6-6.6-3.9-8.8-7.3
			C311.4,90.9,311.9,89.8,313.1,89.1z"/>
		<path class="st97" d="M313.1,89.1c-0.4,1.1-0.8,2.1-1.2,3.2c-1.1-0.8-1.6-1.9-1.8-3.2c1.9-2.6-2.2-6.9,3-8.7
			C313.1,83.2,313.1,86.1,313.1,89.1z"/>
		<path class="st59" d="M298,63.1c0.8-1.8,2.4-2.2,4.1-2c4,0.5,7.9-1.8,11.9,0C308.9,63.7,303.4,63,298,63.1z"/>
		<path class="st92" d="M352.1,33c1.6,0,3.2,0,4.8,0c3.4,0.1,7.2,1.2,10.1,0.1c6.4-2.6,7.8,5.6,12.9,5.1c0,0.4,0,0.7,0,1.1
			c-4.3,0-8.6,0-13,0c-2.7-1.8-5.7-2.4-8.8-2.4c-1.4,0-3,0.5-4.2-0.7l0,0c-6.9-0.8-13.8,0.2-20.6-0.5c-2.8-0.3-5.6,0.4-8.4-0.5
			c-5.6,0-11.3,0.3-16.9-0.1c-4.4-0.3-5.6,1.4-5.1,5.4c0.3,2.5,0.3,5-1.3,7.2c-1.2,1.6-1.4,0.2-1.7-0.7c-2.1-4.2,0.1-8.5-0.1-12.7
			c0-1,0-1.9,0-2.9c-0.4-0.5-0.4-0.9,0.2-1.2l0,0c3.2,3.3,7.2,3,11.3,3C324.9,33,338.5,33.1,352.1,33z"/>
		<path class="st98" d="M254,47.2c0.7-1.3,2.1-1,3.2-1.2c1.5-1.2,2.9-2.6,4.5-3.8c3,2.3,6.9,2.6,10.3,3.9c0.9,0.3,2.9,0.7,3.1-0.5
			c1.4-7,5.9-1.5,8.8-2.3c0.3-0.1,1.1,0.9,1.7,0.4c3.1-2.3,5.8-1.9,8.5,0.8c0.3,0.3,1.3-0.1,1.9-0.1c2,1.2,1.1,2.5,0,3.8
			c-13,0.1-26,0.2-39,0.3C255.9,48.3,254.8,48.2,254,47.2z"/>
		<path class="st99" d="M354,36.1c3.4-1,6.8-0.6,10.2-0.1c2.2,0.3,2.9,1.2,2.8,3.2c-4.4,2.3-9.1,2.9-14,2.9
			C354.6,40.3,352.3,37.9,354,36.1z"/>
		<path class="st100" d="M296.1,48c0.1-1.3,0.9-2.5,0-3.8l0,0c1.8-2.7,1.3-6,2-8.9c0.6-0.4,1.2-0.7,1.7-1.1
			c2.4,4.2,0.1,8.5,0.1,12.7C298.9,48.3,297.7,48.7,296.1,48z"/>
		<path class="st99" d="M324.9,35.2c8.1,0,16.2,0,24.3,0c1.6,0,3.4-0.5,4.7,1c-2.4,0-4.7,0-7.1,0c-2.3,0.6-4.6,1.4-6.9,0
			C335,35.6,329.8,37.3,324.9,35.2z"/>
		<path class="st101" d="M340,36.2c2.3,0,4.6,0,6.9,0C344.6,37.1,342.3,40,340,36.2z"/>
		<path class="st102" d="M381.9,55.2c0-0.4,0-0.8,0-1.2c0-1.6,0.3-3.4-0.1-4.9c-1-3.8,2.6-3.9,4.1-4.1c2.3-0.2,2,2.4,2,4.2
			c0,0.5,0.1,1,0,1.5c-0.3,2.1,1.1,6-3.6,3.5C383.4,53.8,383.2,56.1,381.9,55.2z"/>
		<path class="st103" d="M410.9,50.1c-1.3,0.7-2.7,1.6-3.1-0.8c0.3-1.5,0.1-4,2.2-3.5C411.9,46.2,410.6,48.6,410.9,50.1z"/>
		<path class="st103" d="M412.9,51.1c-0.4-0.3-0.7-0.6-1.1-0.9c0.1-2.1-0.1-4.2,2-5.7C416.8,47.2,412.6,48.9,412.9,51.1z"/>
		<path class="st104" d="M388,38.1c1.7-1.1,4.2-1.6,3-4.8c-0.5-1.3,0.4-2.5,1.7-3c0.1,1,0,2,0.2,3C393.5,37.2,392,38.9,388,38.1z"/>
		<path class="st105" d="M298.9,29.1c-10,0-20,0-30-0.1c-1-1.3-3.6,0.9-3.9-1.8c9.8,0,19.6,0,29.3-0.1
			C296.1,27.2,298,26.9,298.9,29.1z"/>
		<path class="st106" d="M264.9,27.2c1.3,0.6,2.6,1.2,3.9,1.8c-4.6-0.3-9.3,1.1-13.8-0.8C258.3,27.5,261.6,27.1,264.9,27.2z"/>
		<path class="st98" d="M298.1,35.3c0.9,3.3,0.3,6.3-2,8.9c1.1-8.7,1.2-8.1-7.7-6.5c-4.6,0.9-9.9,2.4-14.7-0.6
			c-0.6-0.4-1.6-0.3-2.4-0.4c-1.1-0.2-3.1,2.1-3.1-0.9c-0.1-2.3,2-1.7,3.4-1.7c8.8-0.1,17.6,0,26.3,0C298,34.5,298,34.9,298.1,35.3z
			"/>
		<path class="st107" d="M253.6,34.6c4.3,0,8.5,0,12.8,0C262.1,35.9,257.8,36.7,253.6,34.6z"/>
		<path class="st108" d="M261.7,42.2c-0.7,2.1-1.3,4.5-4.5,3.8c-1.1-1.4-1.8-3-0.4-4.3C258.3,40.3,260.2,41,261.7,42.2z"/>
		<path class="st88" d="M300,30.2c-0.1,0.4-0.1,0.8-0.2,1.2c-4.3-1.2-8.8,0.4-13-1.1C291.2,30.3,295.6,30.2,300,30.2z"/>
	</g>
</g>
</svg>
