<?xml version="1.0" encoding="utf-8"?>
<!-- Generator: Adobe Illustrator 25.0.0, SVG Export Plug-In . SVG Version: 6.00 Build 0)  -->
<svg version="1.1" xmlns="http://www.w3.org/2000/svg" xmlns:xlink="http://www.w3.org/1999/xlink" x="0px" y="0px"
	 viewBox="0 0 738.1 227" style="enable-background:new 0 0 738.1 227;" xml:space="preserve">
<style type="text/css">
	.st0{display:none;}
	.st1{display:inline;stroke:#FFFFFF;stroke-miterlimit:10;}
	.st2{fill:#DDE7E9;}
	.st3{fill:#BCC6BE;}
	.st4{fill:#1F2324;}
	.st5{fill:#949B97;}
	.st6{fill:#58615E;}
	.st7{fill:#343C3D;}
	.st8{fill:#4A5452;}
	.st9{fill:#59625F;}
	.st10{fill:#0E1011;}
	.st11{fill:#7A877D;}
	.st12{fill:#4C5553;}
	.st13{fill:#8B978D;}
	.st14{fill:#9BA698;}
	.st15{fill:#4E5652;}
	.st16{fill:#626D68;}
	.st17{fill:#0D0F10;}
	.st18{fill:#69736C;}
	.st19{fill:#939E94;}
	.st20{fill:#B4BEAF;}
	.st21{fill:#788785;}
	.st22{fill:#A3AEA0;}
	.st23{fill:#7A877F;}
	.st24{fill:#374448;}
	.st25{fill:#47565B;}
	.st26{fill:#94A3A1;}
	.st27{fill:#3D4A4F;}
	.st28{fill:#525E5D;}
	.st29{fill:#79898C;}
	.st30{fill:#7F8C81;}
	.st31{fill:#364347;}
	.st32{fill:#C4CDC4;}
	.st33{fill:#845403;}
	.st34{fill:#94A093;}
	.st35{fill:#2B3132;}
	.st36{fill:#95A3A2;}
	.st37{fill:#C9D6D8;}
	.st38{fill:#393F3F;}
	.st39{fill:#BCC7C0;}
	.st40{fill:#96A4A2;}
	.st41{fill:#626F6C;}
	.st42{fill:#141615;}
	.st43{fill:#74827A;}
	.st44{fill:#637173;}
	.st45{fill:#070909;}
	.st46{fill:#141718;}
	.st47{fill:#0A0C0C;}
	.st48{fill:#0F1113;}
	.st49{fill:#101314;}
	.st50{fill:#141819;}
	.st51{fill:#070809;}
	.st52{fill:#1C2122;}
	.st53{fill:#1D2223;}
	.st54{fill:#232829;}
	.st55{fill:#252B2C;}
	.st56{fill:#171B1C;}
	.st57{fill:#353C3C;}
	.st58{fill:#2A3438;}
	.st59{fill:#0C0E0F;}
	.st60{fill:#9BA79A;}
	.st61{fill:#202423;}
	.st62{fill:#6B736E;}
	.st63{fill:#0E1112;}
	.st64{fill:#1C2021;}
	.st65{fill:#464F4E;}
	.st66{fill:#EDF2EC;}
	.st67{fill:#B2BFBD;}
	.st68{fill:#161A1C;}
	.st69{fill:#3A4345;}
	.st70{fill:#3D4648;}
	.st71{fill:#ABB9BB;}
	.st72{fill:#B7C5C6;}
	.st73{fill:#C5D2D4;}
	.st74{fill:#050707;}
	.st75{fill:#0B0D0E;}
	.st76{fill:#FEFEFE;}
	.st77{fill:#080909;}
	.st78{fill:#F9F9F9;}
	.st79{fill:#606B68;}
	.st80{fill:#4F5855;}
	.st81{fill:#C4D0D0;}
	.st82{fill:#AFBCBD;}
	.st83{fill:#546468;}
	.st84{fill:#181C1D;}
	.st85{fill:#929F9E;}
	.st86{fill:#0C0F10;}
	.st87{fill:#414A4C;}
	.st88{fill:#EDF2F2;}
	.st89{fill:#E1E8E2;}
	.st90{fill:#444C4B;}
	.st91{fill:#273033;}
	.st92{fill:#4C5453;}
	.st93{fill:#77807A;}
	.st94{fill:#0A0D0D;}
	.st95{fill:#434C4C;}
	.st96{fill:#66706B;}
	.st97{fill:#4D5757;}
	.st98{fill:#B6C3C2;}
	.st99{fill:#EAF0F0;}
	.st100{fill:#F8FAFA;}
	.st101{fill:#F9FBFB;}
	.st102{fill:#E6EBEA;}
	.st103{fill:#C4CDC1;}
	.st104{fill:#B5BFB9;}
	.st105{fill:#171C1D;}
	.st106{fill:#F4F7F3;}
	.st107{fill:#495454;}
	.st108{fill:#69756F;}
	.st109{fill:#2E3638;}
	.st110{fill:#E9F0F1;}
	.st111{fill:#586563;}
	.st112{fill:#4B5656;}
	.st113{fill:#6A766F;}
	.st114{fill:#95A3A0;}
	.st115{fill:#FBFDFD;}
	.st116{fill:#47504F;}
	.st117{fill:#C6D0CB;}
	.st118{fill:#262E30;}
	.st119{fill:#222728;}
	.st120{fill:#EFF4F3;}
	.st121{fill:#7E8B80;}
	.st122{fill:#91A2A4;}
	.st123{fill:#5F6C6D;}
	.st124{fill:#333B3C;}
	.st125{fill:#2C3435;}
	.st126{fill:#464E4D;}
	.st127{fill:#3B4446;}
	.st128{fill:#F8F8F8;}
	.st129{fill:#24292A;}
	.st130{fill:#212627;}
	.st131{fill:#91A1A3;}
	.st132{fill:#C9C9CA;}
	.st133{fill:#161A1B;}
	.st134{fill:#989899;}
	.st135{fill:#282E2F;}
	.st136{fill:#252A2B;}
	.st137{fill:#323939;}
	.st138{fill:#394244;}
	.st139{fill:#3D4547;}
	.st140{fill:#5E6C6F;}
	.st141{fill:#111415;}
	.st142{fill:#292F31;}
	.st143{fill:#515C5D;}
	.st144{fill:#FDFDFD;}
	.st145{fill:#758587;}
	.st146{fill:#444F51;}
	.st147{fill:#87989A;}
	.st148{fill:#3A4243;}
	.st149{fill:#606C6A;}
	.st150{fill:#586461;}
	.st151{fill:#D0D9D9;}
	.st152{fill:#8E9D9C;}
	.st153{fill:#202628;}
	.st154{fill:#3B4343;}
	.st155{fill:#869594;}
	.st156{fill:#1B1F20;}
	.st157{fill:#131718;}
	.st158{fill:#08090A;}
	.st159{fill:#BFC9C1;}
	.st160{fill:#657375;}
	.st161{fill:#EEEEEE;}
	.st162{fill:#D2DCDD;}
	.st163{fill:#EEF4F4;}
	.st164{fill:#EDF3F3;}
	.st165{fill:#3F484A;}
	.st166{fill:#F0F0F0;}
	.st167{fill:#252C2F;}
	.st168{fill:#171208;}
	.st169{fill:#3E494C;}
	.st170{fill:#2F383A;}
	.st171{fill:#3A4446;}
	.st172{fill:#B9C6C4;}
	.st173{fill:#94A29F;}
	.st174{fill:#7F8D8B;}
	.st175{fill:#4E5755;}
	.st176{fill:#414B4C;}
	.st177{fill:#586463;}
	.st178{fill:#4F5B5A;}
	.st179{fill:#6A7775;}
	.st180{fill:#788683;}
	.st181{fill:#B4C1BD;}
	.st182{fill:#2F3535;}
	.st183{fill:#F0F5F3;}
	.st184{fill:#424C4D;}
	.st185{fill:#3F494B;}
	.st186{fill:#677572;}
	.st187{fill:#343D3F;}
	.st188{fill:#7F8F91;}
	.st189{fill:#30393B;}
	.st190{fill:#252D2F;}
	.st191{fill:#2F3537;}
	.st192{fill:#282F30;}
	.st193{fill:#9DABAD;}
	.st194{fill:#6A7879;}
	.st195{fill:#95A4A6;}
	.st196{fill:#5A686B;}
	.st197{fill:#728286;}
	.st198{fill:#576467;}
	.st199{fill:#9BA9A8;}
	.st200{fill:#303637;}
	.st201{fill:#2B3031;}
	.st202{fill:#5B686B;}
	.st203{fill:#1A1D1C;}
	.st204{fill:#3F494A;}
	.st205{fill:#4E5654;}
	.st206{fill:#111516;}
	.st207{fill:#D0DBDC;}
	.st208{fill:#ADBAB7;}
	.st209{fill:#404948;}
	.st210{fill:#D8E0E0;}
	.st211{fill:#B0BDBA;}
	.st212{fill:#99A8A4;}
	.st213{fill:#E8EEEE;}
	.st214{fill:#535F5E;}
	.st215{fill:#576362;}
	.st216{fill:#768586;}
	.st217{fill:#2E3434;}
	.st218{fill:#020303;}
	.st219{fill:#7E8E90;}
	.st220{fill:#6E7E82;}
	.st221{fill:#D3DCDC;}
	.st222{fill:#849395;}
	.st223{fill:#DEE7E8;}
	.st224{fill:#D8E2E3;}
	.st225{fill:#CBD7D9;}
</style>
<g id="Camada_2" class="st0">
	<rect x="-347" y="-143" class="st1" width="1350" height="422"/>
</g>
<g id="Camada_1">
	<g>
		<path class="st2" d="M106.9,203.9c-1.9-5.6-0.9-11.5-0.8-17.2c0.1-4.5-1.1-5.9-5.8-5.8C66.9,181.1,33.4,181,0,181c0-9,0-18,0-27
			c0.4,0,0.7,0,1.1,0c2,2.2,1.3,5,1.5,7.6c0.4,5.2-1,10.6,1,15.7c1.9,1.9,4.4,1.3,6.6,1.3c29.4,0,58.7,0.1,88.1-0.1
			c2.8,0,5.7-0.4,8.3,1c1.5,1.1,1.6,2.7,1.7,4.3c0.1,2.2-0.1,4.4,0.2,6.6C108,194.8,110,199.7,106.9,203.9z"/>
		<path class="st3" d="M332,0.1c4.7,2.2,6.8,6,6.9,11c-1.7,0.9-0.2,3.7-2.5,4.2c-1.1-0.4-1.3-1.3-1.5-2.3c-0.1,1.7,0.5,3.5-0.7,5.1
			c-0.4,0.3-0.8,0.4-1.3,0.3c-0.8-0.6-1-1.5-1-2.4c0,1.2,0,2.3-0.8,3.2c-3.4-0.5-2.7-3.4-2.1-4.9c1.8-4.4,1.2-8.2-1-12.1
			c0.7-0.7,1.3-1.4,2-2C330.7,0.1,331.3,0.1,332,0.1z"/>
		<path class="st4" d="M205,226.9c-0.2-0.3-0.2-0.6-0.1-1c1.7-1.8,3.9-1.5,6.1-1.6c5.3-0.1,10.6-0.1,16,0c3,0,5.2-0.5,5.8-4
			c0.4-2.5,2.2-3.7,4.6-3.8c9.5-0.4,18.9-0.4,28.4,0c1.2,0,2.3,0.5,3.1,1.4c-1,2.1-2.9,0.9-4.3,0.9c-8.1,0.1-16.2,0.4-24.3-0.1
			c-4.7-0.3-6.2,1.3-5.4,5.7c0.1,0.8,0.2,1.6,0.3,2.4C225,226.9,215,226.9,205,226.9z"/>
		<path class="st5" d="M737.9,141c-0.3,0-0.7,0-1,0c-1.1-1-1.1-2.3-1.2-3.6c-0.1-2.3,0.3-4.6-1.2-6.7c-1.5-2.1,0.1-3.3,1.5-4.5
			c1.6,0.3,0.7,2.4,2.1,2.9C737.9,133,737.9,137,737.9,141z"/>
		<path class="st6" d="M347,94.1c16.1,1.4,32.3,0.7,48.4,1.1c19.5,0.4,39,0.6,58.4,0.9c1.6,0,3.3-0.3,4.9-0.4
			c0.4,0.3,0.6,0.8,0.5,1.3c-0.7,1.3-1.3,2.7-2.4,3.9c-1.7,1.4-3.6,1.4-5.6,1c-8.7-1.1-17.5-0.1-26.3-0.4c-7.3-0.3-14.6-0.2-21.9,0
			c-9.3,0.3-18.5-0.6-27.7-1.3c-1.4,0.3-2.8,1-3.5,0.7c2,0.1,4.9-1,7.6,0c1.1,0.4,2.9,0.2,2.3,2.3c-5.9,2.5-11.8,1.1-17.8,0.3
			c-4,0.1-8-0.2-12,0.5c-2.3,0.4-4.3-0.1-5.5-2.3c-0.8-1.7-0.9-3.4-0.7-5.2C345.9,95.5,346.3,94.7,347,94.1z"/>
		<path class="st7" d="M459,96.9c-0.1-0.4-0.1-0.8-0.2-1.1c0.1-2.9,0.2-5.8,0.3-8.7c0.7-0.6,1.5-0.6,2.2-0.1c3,4.5,2.8,9.6,3,14.6
			c0.1,2.1-0.1,4.3,0.6,6.3c0.5,2.3,0.4,4.8,1.2,7.1c-0.1,4.7,1.7,9.3,0.3,14c-0.5,2.6-1,5.2-0.1,7.8c1.1,1.6,2.6,3,2.7,5
			c0.1,2.1,1.7,2,3.1,2.2c2.3,0.3,4.6,0.4,7,0.4c29,0,58,0,87,0c2.3,0,4.7-0.2,6.8,1.2c1.6,2.4,2.3,4.7-0.7,6.5
			c-2-2.8-4.7-3.7-8.1-3.7c-28.5,0.1-57,0-85.5,0.1c-1.6,0-4.4-1.4-4.3,2.3c-1,1.2-2.4,1.4-3.8,1.4c-1.7,0-3.4-0.4-4.3-2
			c-1.5-2.4-2.6-4.8-6-5.5c-1.4-0.3-1.3-2.5-1.7-3.9c-1.5-5.9-0.2-12-1.2-17.9c0.1-3.3-2.1-3.5-4.6-3.7c-3-0.2-6.3,1.1-8.9-1.7
			c1.3-2.6,3.9-2,6-2.1c7.6-0.3,7.6-0.2,7.8-8C457.7,104,457.1,100.2,459,96.9z"/>
		<path class="st8" d="M347,94.1c0,0.6,0,1.2,0.1,1.9c-1.1,0.3-1.6-0.5-2-1.3c-1.1-4.2,0.2-8.6-1.1-12.8c-0.8-6.2-0.9-6.2-7.1-6.3
			c-5.7,0-11.3,0-17,0c-2.1-0.3-4.3,0.3-6-1.5c0.5-2-0.8-4.2,1-6c1.9-1.6,5.8-0.8,5.7-4.8c2.5-1.5,2.9,2.2,4.8,2
			c1.8-0.2,3.7-0.5,5.5-0.2c1.4,0.3,2.8,0.7,4.3,0.8c0.8,0.1,1.5,0.2,2.3,0.4c4.4,1.1,8.9-0.3,13.3,0.8c0.2,6.3,1,12.6-0.1,18.9
			c-2.8-0.6-4.3,0.3-3.9,3.5C347.1,90.9,346.9,92.5,347,94.1z"/>
		<path class="st9" d="M470,96.9c29.1,3.1,58.4,1.4,87.5,1.8c4.8,0.1,9.6,0.2,14.4-0.7c0.1,0.2,0.3,0.4,0.4,0.6c0,1.9,1.2,4-1.2,5.3
			c-1.4,0.4-2.7,0.3-4.1,0c-3.8-0.7-7.6-0.3-11.4-0.4c-18.9,0-37.8,0-56.7,0c-4.8,0-9.6,0.1-14.4-0.8c-2.2-0.4-4.6-0.6-6.8,0.6
			c-1,0.5-2,0.7-3.1,0.4c-1.2-2.6-5.2-1.5-6.1-4.5C468.5,98,469,97.3,470,96.9z"/>
		<path class="st10" d="M716.8,98c0.6-1.7,0.2-3.8,2.1-5.1c2.3,2.7,1.3,5.9,1.4,9c0,3.1,0,6.3,0,9.4c-0.1,1.8,0.1,3.8-1.8,5
			c-0.9,0.3-1.9,0.1-2.8,0.1c-8.5-0.1-16.9,0-25.4,0c-7.2,0-8.1-1-7.3-8.2c1.2-2.6,3.6-2.1,5.6-1.9c6.9,0.7,13.9-0.1,20.8,0.3
			c6.3,0.3,6.9-0.7,6.7-7.2C716.3,98.8,716.5,98.4,716.8,98z"/>
		<path class="st11" d="M579.8,94c0.2,2-0.5,4.3,3.1,4.3c30.1-0.1,60.2-0.1,90.4-0.2c0.5,0,0.9-0.3,1.4-0.4c0.1,0.3,0.3,0.5,0.4,0.8
			c-0.3,1-1.1,1.4-1.9,1.6c-3,0.6-6,0.2-9,0.3c-25.2,0.1-50.4,0.2-75.6,0c-2.7,0.3-6-1.1-7.8,2.4c-1,2.5-4.3,2.5-5.4,4.9
			c-0.2,1.2-0.2,2.4-0.4,3.6c-0.2,0.8-0.5,1.5-1.3,1.9c-0.6,0-1.1-0.2-1.4-0.7c-2.2-4.6,0.7-9.3-0.3-14c-0.1-0.2-0.1-0.5-0.2-0.7
			c0.1-0.6,0.1-1.3,0.2-1.9c0.9-2.5-0.1-5.2,0.8-8.3C575.4,89.8,579.4,89.7,579.8,94z"/>
		<path class="st12" d="M735.8,126.1c0,1.7-2.3,3.5,0.7,5.2c0.9,0.5,0.2,3.7,0.3,5.7c-3.1,1.1-3.3-1.6-4.3-3c-4,1.1-4.9,4.2-4.5,8
			c-0.3,0.3-0.7,0.6-1,1c-3.5,0.9-6.1-0.2-7.9-3.3c-0.7-2.3-0.8-4.5,0.3-6.7c0.3-0.4,0.7-0.8,0.9-1.2c2.4-7.2,8-6.9,13.9-6
			C734.7,125.9,735.3,126,735.8,126.1z"/>
		<path class="st13" d="M716.8,98c0,0.4,0.1,0.7,0.1,1.1c-4.4,2.6-9.2,0.8-13.7,1.4c-4.4-0.1-8.9,0.2-13.3,0c-1,0-2.1,0-3.1-0.1
			c-2-0.3-2.8,1.2-3.7,2.5c-1.5,1.6-3.2,2.4-5.3,1.3c0.8,4.8,0.6,5.3-2.2,6.6c-1.8-4.1-0.8-8.3-0.5-12.5c-0.1-0.2-0.2-0.4-0.3-0.5
			c0.1-3.2,0.3-6.4,0.4-9.6c4.2,0.8,7.1,3.7,7.3,7.1c0.1,1-0.3,2,0.5,2.8C694.3,98.4,705.5,98.4,716.8,98z"/>
		<path class="st14" d="M719.1,111.7c-0.1-6.3-0.1-12.6-0.2-18.8c0-1-0.1-2-0.1-2.9c5-0.6,6.8,0.5,7.9,5c0.1,2,0.6,3.3,3.1,3.2
			c2,0,4.2-0.9,6,0.9c-2.3,2.3-6.3,0-8.4,3c-1.8,1.5-6.5-1.8-6.1,3.5c-0.1,2.1,0.2,4.2-0.9,6.1C720,112.2,719.5,112.2,719.1,111.7z"
			/>
		<path class="st15" d="M726.7,102c0-2.3,1.2-3,3.3-2.9c1.9,0.1,3.8,0,5.7-0.1c1.3,5,1.7,10,0.2,15.1c-2.2-1.2-0.5-5.5-4.1-5.3
			c-3.5,0.2-2.3,3.8-3.6,5.7c-0.2,0.3-0.4,0.5-0.7,0.6c-1.3-0.2-1.6-1.2-1.9-2.3c-0.4-2.6-0.3-5.1-0.2-7.7
			C725.6,104.1,725.8,102.9,726.7,102z"/>
		<path class="st16" d="M734.2,125.8c-1.8,0.1-3.7-0.1-5.4,0.3c-2.6,0.6-5.8,0.6-6,4.6c-0.1,1.5-1.3,2.2-2.8,2.3
			c-0.2-0.2-0.4-0.4-0.7-0.7c-1.2-4.9-1.6-9.8,0.4-14.6c2.5-1.5,4.9-1.4,7.2,0.3C725.6,124.1,729.5,125.3,734.2,125.8z"/>
		<path class="st17" d="M728,114.9c0.2-2.4-1.7-5.1,1.6-6.8c4.4-2.2,5.8-1,6.4,6.1c-0.3,0.3-0.7,0.7-1,1
			C732.7,115.4,730.3,116,728,114.9z"/>
		<path class="st18" d="M460.9,87.1c-0.6,0-1.2,0-1.9,0c8-3.3,10.6-1.5,10,7c-0.9,0.6-0.4,2.5-2.2,2.3
			C463.2,94.3,463.5,89.8,460.9,87.1z"/>
		<path class="st19" d="M579.8,94c-1.1-0.4-0.3-2.9-2.5-2.2s-3.1-1-3.7-3.4c-1.3,2.9,0.2,5.5-1.5,7.6c0-1.6-0.1-3.3-0.1-4.9
			c0-2.7-0.1-5.2,4-5.1c4,0,4,2.4,3.9,5.1C579.9,92.1,579.8,93,579.8,94z"/>
		<path class="st20" d="M726.7,95c-1.4-3.6-4.9-4-7.9-5c0.3-1.3-2.1-3.6,1.1-3.8c2.4-0.1,5.7-1.5,6.5,2.4
			C726.8,90.7,726.6,92.9,726.7,95z"/>
		<path class="st21" d="M728,114.9c2.3,0.1,4.7,0.2,7,0.3c-1.6,1.2-3.4,0.6-5.1,0.6c-1.6,0-2.9,0.2-3,2.2c-2.3,0-4.6,0-6.9,0
			c-1.4-1.1-0.5-2.5-0.5-3.8c1.9-3.4,4.3-4.1,7.3-1.3C727,113.7,726.9,114.7,728,114.9z"/>
		<path class="st22" d="M683,98c-0.3-5.2-5.2-6.7-7.9-9.9c0.5-3.6,3.3-1.7,5.1-1.9c2-0.3,2.3,1.6,2.5,3C682.8,92.1,682.8,95,683,98z
			"/>
		<path class="st23" d="M467,96c0.7-0.7,1.4-1.3,2.1-2c0.3,1,0.6,1.9,0.9,2.9c-0.4,0.8-0.8,1.6-1.2,2.3c-0.7,2.9-0.4,5.8,0.1,8.7
			c0.5,2.4,0.8,4.9-0.8,7.1c-0.8,0.5-1.5,0.5-2.3,0.1c-1.8-3.1,0.1-7-2.2-10.1C463.6,101.7,464,98.4,467,96z"/>
		<path class="st24" d="M1.2,179c0-8.3,0-16.7-0.1-25c0.3-0.7,0.6-1.3,0.9-2c2.6-1.3,5.3-2.1,8.4-0.2c-3-3.1-3.4-5.6,0.8-7.6
			c1.8-0.9,2.8-2.8,4.3-4.1c2.4-1.9,5.1-3.3,8.2-3c2.8,0.2,5,0,7.1-2.2c1.8-1.9,4.3-1.9,5.6,1.1c0.5,1.2,1.5,2.2,1.9,3.5
			c-4,3.2-8.5,5-13.5,5.5c-3.3-0.5-6.4-0.5-7.8,3.5c-1,2.1-1.3,4.3-1.4,6.6c-0.9,4.1-1.1,8.2-0.9,12.4c0.1,2.6,1.4,3.9,4,4
			c1.7,0,3.3,0.1,5,0.1c21.1,0,42.3,0,63.4,0c4.2,0,8.3-0.1,12.4-0.7c2.2,2.2,1,3.5-1.3,4.3c-1.9,0.7-3.9,0.5-5.9,0.5
			c-1.7,0.1-3.7-0.3-4.8,0.9c-3.1,3.7-7.1,3-11,3c-23.3,0-46.6,0-69.8,0C4.8,179.4,3,179.8,1.2,179z"/>
		<path class="st25" d="M76.2,106.3c6.6-2.5,13.2-5,19.8-7.4c0.5,5.6-1,8.8-5.7,10.5c-3,1.1-3.9,4-5.9,5.8c-2.2,2-3.9,3.6-2.7,7.1
			c1,2.7-1.4,3.7-3.7,4.3c-0.4,0.2-0.9,0.3-1.3,0.4c-3.5,1.4-7.8,0-10.8,3.2c-6.5,2.5-12.8,5.5-19.7,6.9c-1.4,0-2.9,0-3.5-1.3
			c-1.6-3.2-4.2-2.9-7.1-2.8c-3.8,0.2-4.5-1-2.9-4.7c0.4-0.8,0.5-1.5,0.3-2.3c3.4-2.4,7.8-3.2,11-6c0.6-0.5,1-1.5,1.8-1.7
			C56,114.4,65.3,108.3,76.2,106.3z"/>
		<path class="st26" d="M246,84.8c0-3.8,0-7.6,0.1-11.4c0-1.5-0.2-3.1,1.9-3.5c5.4,1.2,10.8,2.3,16.5,1.3c1.9-0.3,3.7,2,4.8,3.9
			c1.3,2.1,3.2,3.8,4.4,6c0.3,1,0.3,2.1,0.1,3.1c-1.1,4.4-4.8,4.6-8.2,5c-4.1,0.5-8.3-0.6-12.4,0.3c-2.5,0.5-3-1.5-3.3-3.4
			c-0.6-3.6-0.4-7.2-0.8-10.8c-0.1-0.7-1,0-0.4-0.2c0.1-0.1,0.2,0.1,0.3,0.4c0.2,3.9,0.9,7.9-0.3,11.8c-0.6,0.9-1.4,2.3-2.6,1.5
			C244.6,87.7,245.1,86.1,246,84.8z"/>
		<path class="st27" d="M33.1,126c3.2,0.2,3.9,1.1,0.9,3.1c-0.7,0.5-1.5,0.9-1.4,1.8c0.1,1,1.1,1.2,1.9,1.1
			c4.4-1.1,8.1-0.9,10.2,3.9c0.1,0.2,0.9,0.1,1.4,0.1c-1.7,3.4-4.6,3.8-7.9,3c-1.1-0.1-2.5,0.2-2.9-1.3c-0.2-1.2,0.8-2.9-1.3-3.1
			c-1.8-0.2-3.2,0.7-3.8,2.5c-0.8,2.3-2.3,1.9-4,1.4c-4.5-1.4-8,0.5-11.1,3.6c-0.5,0.5-0.7,1.1-1.2,1.5c-2.7,2.2-7.9,3.9-1.2,7.8
			c0.9,0.5-0.3,3-1.1,2.2c-2.9-2.8-6.5-0.5-9.5-1.7c0.5-7.4,5-12,10.8-15.7C19.2,132.2,26,128.7,33.1,126z"/>
		<path class="st28" d="M186,93c1.2-0.3,2.4-0.8,3-2c1.9-1.7,4.3-1.4,6.6-1.5c10.9,0,21.8,0,32.7,0c1.9,0,4.1,0.5,5.3-1.7
			c2.8-1.7,5.2-5.9,9.2-1.9c1.6-0.8,2.5-0.2,2.6,1.5c0.1,2,1.2,3.6,2.1,5.3c0.8,2.1,0.9,4.1-0.7,6c-0.4,0.3-0.9,0.7-1.3,0.5
			c-6.5-3.1-10.6,0.3-14.2,5c-1.6,2.1-3.6,3.8-6.4,4.1c-2.1-0.9-1-2.2-0.5-3.5c2.9-2.5,2.7-5.1,0.2-7.7c-0.2-0.4-0.2-0.9-0.2-1.4
			c0.2-0.7,0.7-1.2,1.4-1.4c1-0.7,2.1-0.8,3.3-0.3c-1.8-1.2-3.1,0.3-4.7,0.7c-2.1,0.8-4.3,0.5-6.4,0.5c-10.1,0-20.1,0-30.2-0.2
			c-0.6-0.1-1.1-0.3-1.6-0.7C185.8,94.1,185.7,93.6,186,93z"/>
		<path class="st29" d="M328,2.1c3.4,3.1,5.3,6.3,2.4,11c-0.9,1.5-1.2,4.1,0.6,6c1.7,1,2.1,2.8,2.3,4.5c0.2,3.5,0.1,7.1,0.1,10.6
			c-0.3,3.9,0.5,7.8-0.6,11.6c-1.7,2.3-1.3,5.1-1.6,7.7c-0.2,1.3-0.5,2.9-2.2,2.9s-2-1.5-2.2-2.9c-0.5-3.8-0.2-7.6-0.2-11.4
			c0-2.1-0.3-3.9-2.1-5.2c-1.4-3-0.9-6.2-0.9-9.3c0.1-4.8-0.3-9.6-0.6-14.4C323.8,9,322.9,4.2,328,2.1z"/>
		<path class="st30" d="M102.2,94c3.6-2.4,7.6-0.9,11.5-1.1c3.1-0.2,6.2-0.1,9.4-0.2c0.1,0.2,0.3,0.4,0.4,0.6
			c-1.5,5.2-0.6,10.4-0.4,15.6c-2.8,0-1.2,4-3.8,4.2c-0.4-0.2-0.7-0.5-0.9-0.9c-0.6-1.5-1.8-2.3-3.3-2.7c-2-0.9-3.8-2.2-6-2.7
			c-0.4-0.2-0.8-0.4-1.1-0.7c-0.2-0.2-0.3-0.5-0.2-0.8c-0.5,0.2-0.1,0.6,0,0.8c0.1,0.6,0,1.2-0.3,1.7c-2.7,2.6-0.4,5,0.4,7.5
			c-0.1,1.5-0.8,2.7-2.4,2.6c-1.5-0.1-2.2-1.4-2.4-2.7c-0.5-3.3-0.3-6.6-0.4-9.9C102.9,101.6,102.8,97.8,102.2,94z"/>
		<path class="st31" d="M77.1,126c2.6-1.4,5.8-2.4,2.5-6.2c-0.8-1-0.8-2.7,0.4-3c5.5-1.3,5.3-9.5,12.4-9.5c2.2,0,2.4-5.5,3.6-8.5
			c0.6-0.3,1.2-0.6,1.9-1c1.5-0.4,1.6,0.7,1.8,1.7c-0.7,2-1.5,4-1.7,6.2c-0.4,1.3-0.7,2.7-1.1,4c-2.1,2.7-2.6,5.5-1.3,8.7
			c0,0.5-0.2,0.9-0.4,1.4c-1.9,4.2-5.8,5.2-9.7,6.2C82.7,126.5,79.9,128.2,77.1,126z"/>
		<path class="st32" d="M279.1,72c9.6-0.3,19.2,1,28.7-0.7c0.3-0.1,0.8,0.5,1.2,0.8c-0.1,0.5-0.2,0.9-0.4,1.3c-1,2.6,0.6,5.8-2,8
			c-0.4,0.1-0.9,0.1-1.4,0c-1-0.8-0.4-3.1-3.2-2.5c1.3,1.1,4,1.4,2.4,3.7c-4.8,1.4-9.6,1.7-14.3-0.2c-0.8-3.9,3-2.3,4.9-4.2
			c-5.3,2.1-10.3-0.3-15,2C278.3,77.6,277.1,75,279.1,72z"/>
		<path class="st33" d="M76.2,106.3c-10.7,4.6-21.4,9.1-32.2,13.7c-1.7-7.2,0.3-10.3,7.5-11.1C59.8,108,67.9,106.2,76.2,106.3z"/>
		<path class="st34" d="M123,92.8c5.6,0,11.2,0.1,16.7,0.1c11.4,0.1,22.9,0.1,34.3,0.2c0.8,0.8,0.9,1.7,0.6,2.8
			c-0.3,0.7-0.7,1.3-1.2,1.8c-0.8,0.8-2,2.1-2.9,1.7c-6.6-3.6-13.7,1.1-20.9-2c-5.6-2.4-13-0.9-19.5-1c-2.4,0-4.6-0.2-6.3-2
			c-0.3-0.4-0.5-0.8-0.8-1.1C123,93.1,123,92.9,123,92.8z"/>
		<path class="st35" d="M313.9,74c2,0,4.1,0.1,6.1,0.1c-0.6,2.9-2.6,1.6-4.1,1.8c2.8,1.8,6.3,1.5,9.7,1.6c3.5,0.1,6.9-0.4,10.3-0.9
			c5.5-0.8,8.2,1.3,8.6,5.8c-4.2,1.3-8.4,1.6-12.8,1.5c-2.3-0.7-4.6-0.5-6.9,0.1c-4.5,0.8-9.4-1.4-13.4,2.2c-0.6-0.2-1-0.6-1.2-1.1
			c-0.8-2.8-0.7-5.6-0.4-8.3c0.2-1.7,0.5-3.9,3.3-3C313.4,74,313.6,74.1,313.9,74z"/>
		<path class="st36" d="M305,81c0.4,0,0.7,0,1.1,0c0.6,0.6,0.7,1.4,0.6,2.2c-1.3,4.1-5.5,6.6-10.5,5.7c-3.3-0.6-6.5-0.7-9.9-0.5
			c-5.1,0.3-7.9-2.1-8-7.3c-0.1-2-1.7-0.5-1.8-1.5c-0.8-1.5-0.8-3.2-0.7-4.8c0.3-1.4,0.4-3,2.4-3c0.3,0,0.6,0.1,0.9,0.2
			c0.1,2.8,0.5,5.6,1.8,8.1c3,0.3,6.3-1.5,9.1,1C295,82.5,300,82.7,305,81L305,81z"/>
		<path class="st37" d="M323,13.1c3.1,5.9,1.7,12.3,2,18.6c0.1,1.8,0.1,3.6,0.2,5.5c1.1,1.2,1.2,2.6,1.2,4.1
			c0,6.7,0.1,13.5,0.1,20.2c0,2-0.4,3.9-1.7,5.5c-2.8,0.3-1.3-3.9-4-3.6c-0.4,0.1-0.7,0-0.9-0.4c1.9-1.3,2-3.2,2-5.2
			c0-13.2,0-26.3,0.1-39.5C322.1,16.5,321.4,14.5,323,13.1z"/>
		<path class="st38" d="M233.7,87.8c-0.4,3.1-0.5,3.2-4.5,3.2c-13.4,0-26.7,0-40.1,0c0-3.4,2.5-2.8,4.6-2.8c11.4,0,22.8,0,34.2,0
			C229.8,88.1,231.8,87.9,233.7,87.8z"/>
		<path class="st39" d="M278.2,71.8c-1.4,0.8-1.2,2.2-1.4,3.4c-4.5-0.1-1.8,4.2-3.6,5.8c-2-0.9-3.2-2.6-4.4-4.5
			c-2-3.1-4-5.5-8.7-3.8c-2.9,1-7.1,2.7-9.3-2.1c-0.2-0.5-1.8-0.4-2.8-0.6c2-2.3,4.5-0.6,6.5-0.3C262.3,70.5,270.5,68.4,278.2,71.8z
			"/>
		<path class="st40" d="M313.1,73.9c-3.4,1.5-1.6,4.5-1.9,6.8c-0.3,1.7,0,3.6,0,5.3c0.5,1.1,0.3,2.1-0.9,2.2
			c-1.7,0.2-2.3-1.2-2.3-2.5c0-4.5-0.9-9.1,0-13.6c0.4,0,0.8-0.1,1.1-0.1C310.4,72.6,312.1,72.4,313.1,73.9z"/>
		<path class="st41" d="M98.9,100.1c0.1-1-0.2-1.8-1.1-2.2c1.3-1.4,1.9-3.6,4.3-3.8c3.3,1,1.6,3.7,1.9,5.7c0.3,1.7,0,3.5,0,5.3
			c-0.3,0.1-0.8,0.2-0.9,0c-0.5-2.9-2.4-2.6-4.4-2.1C98.2,101.9,98.5,101,98.9,100.1z"/>
		<path class="st42" d="M320,62.9c0.3,0.1,0.6,0.3,0.9,0.4c1.6,4.7,1.6,4.7-6,4.7C313.8,63.5,317.9,64.2,320,62.9z"/>
		<path class="st43" d="M174,96c0-1,0-1.9,0.1-2.9c4,0,8,0,12,0c0,0.3,0,0.7-0.1,1C182.3,96.8,178.3,97.3,174,96z"/>
		<path class="st44" d="M247,93c-2.1-0.2-2-1.8-2-3.3c0-1.7,0.2-3.4-2.1-3.7c1-0.4,2.1-0.8,3.1-1.1c0.3,1.1-0.6,2.4,0.6,3.3
			c0,0,0.7-0.9,1.1-1.3c0.5,0.2,0.8,0.5,1,1C249.2,89.9,248.9,91.7,247,93z"/>
		<path class="st45" d="M268.9,217.9c-10.1,0-20.2,0.1-30.3,0c-3.2,0-5.2,0.6-4.7,4.3c0.5,3.2-1.3,3.8-4.1,3.8
			c-8.3-0.1-16.5,0-24.8,0c-2.2-3.3-2.4-8.8-8.7-7.3c-0.3,0.1-1.2-0.9-1.1-1.3c0.5-5-3-4-5.8-4c-20.1,0-40.2,0-60.3,0
			c-2.6,0-4.6-0.1-4.3-3.5c0.2-2.4-1.4-2.6-3.2-2.5c-3.7,0.1-7.3-0.2-11,0.1c-2.8,0.2-3.4-1.3-3.6-3.5c0.1-4.7,0.1-9.3,0.2-14
			c1.3-2.2,1.1-4.8,1.9-7.1c1-2.8,2.2-2.4,3.6-0.3c0.2,0.4,0.4,0.9,0.5,1.4c0.2,1.2,0.2,2.4,0.3,3.6c-0.1,2.2,1.1,3.5,3.2,3.7
			c2.2,0.2,4.3-0.5,5.8-2.2c1-1.1,1.3-2.6,1.8-4.1c0.3-0.7,0.7-1.4,1.6-1.3c2.7,2.8,2.4,6.4,2.7,9.8c0.2,3.5,0,7,0.1,10.5
			c0.1,3.9,2.7,4.4,5.8,4.4c3.3,0.1,4.3-1.7,4.3-4.7c0-5-0.1-10,0.1-15c0.1-1.6,0.1-3.6,1.9-4.3c2.1-0.8,2.9,0.7,3.7,2.4
			c0.4,0.8,0.6,0.8,1.6-1.1c1.8-4.1,5.1-1.8,7.8-1.9c2.4,0.6,2.1,3.1,3.1,4.7c1-0.7,0.9-1.8,1.3-2.6c0.7-1.6,2-2.2,3.6-2.1
			c1.7,0.1,3,0.9,3.2,2.6c0.8,4.7,3.9,4.7,7.5,4c7.4-1.4,14.8-2.9,21.6-6.6c1.9,2.3,1.5,5.4,2.6,7.9c1.1,2.4,2.2,5.1,4.9,1
			c1.5-2.2,3.3-2,4.6,0.4c1.1,2,2.9,2.6,5,2.5c0.7,0-0.1-0.2,0.5,0c9.6,3.2,19.3,2.3,29,0.8c2.1-0.3,4.3,0.3,6.4,0.8
			c3.6,0.7,6.9,0.5,9.5-2.6c1.9-2.2,4.2-2.2,5.8,0.3c1.5,2.3,4.5,2.1,6,4.2c0.4,3.9-0.5,7.8,0.5,11.6
			C269,213.2,268.9,215.6,268.9,217.9z"/>
		<path class="st46" d="M457.9,122.9c1.8,1.4,1,3.3,1.1,5.1c0.2,4.1-0.4,8.2,0.7,12.3c0.6,2.1-0.1,4.2,3.5,3.5
			c1.6-0.3,2.3,2,2.7,3.7c0.6,2.1,1.5,3.7,4,3.5c1,1,1.2,2.3,1.5,3.6c0.7,2.6,2.5,3.8,4.9,2.7c4.5-2,9.1-1.4,13.7-1.5
			c8.7-0.2,17.3,0.3,25.9,0.3c12.9,0.1,25.9,0,38.8-0.4c3-0.1,6,0.5,8.9,1.1c1.1,0.2,2.9,0.4,1.8,2.4c-1.9,1.1-3.9,0.6-5.9,0.6
			c-23.1,0.1-46.2,0-69.3,0.1c-2.5,0-4.9,0.8-7.9,0.2c26.4-0.5,52.3-0.2,78.3-0.3c1.5,0,3,0.2,4.4-0.5c1.8-1.5,2.6,0.1,2.6,1.2
			c0,3.6,2.3,4.6,5.2,5c0.8,1.5,0.3,2.5-1.1,3.2c-24.4,0-48.8,0.1-73.2,0c-8.3,0-16.5,0.6-24.8,1.7c-3.5,0.5-4.8,1.4-4.7,5.1
			c0.2,6.2,0,6.2-6.2,5.3c-1.8-1-2.4-2.7-2.3-4.6c0-4.7-1.4-9.2-1-13.9c0.1-1.9-0.3-3.6-1.3-5.2c-0.9-2.4-0.7-5-1.1-7.5
			c-0.2-3.4-2.8-3.2-5.1-3.3c-6.3-0.1-12.6,0-19,0c-2,0-4,0-5.9-0.6c-2.2-1.4-4.7-1.5-7.2-1.5c-14.5,0-28.9,0-43.4,0
			c-5.2,0-10.1-1-14.9-3.4c-4.4-2.2-9.3-3.2-14.3-0.7c-3.7,1.8-13.4-1.6-15.8-5c-0.9-1.3-0.9-2.5-0.3-3.7c1.4-3.1,0.5-5-2.7-6.2
			c-1.9-0.7-3.8-1.7-2.9-4.4c1.9-1.6,4.2-1.2,6.3-1c6.9,1.8,6.9,1.8,7.9,9.3c0.7,5.4,0.8,5.4,6.3,4.7c0.8-0.1,1.6-0.3,2.5-0.3
			c11.6-0.5,23.2,0.4,34.8,0.5c6.1,0.1,12.2-0.6,18.3-0.6c16.1,0,32.2,0.2,48.3,0.1c2.5,0,5.2,0.1,5.3-3.6c0-0.8,0-1.6,0-2.4
			c-0.3-1.6-0.8-3.1,0.2-4.6C456.5,122.4,457.2,122.4,457.9,122.9z"/>
		<path class="st46" d="M457.7,171.1c-34.9,0.6-69.8,1.1-104.7,1.7c-1.3-1.4-2.8-1.5-4.6-1.2c-3.5,0.6-5-1-4.7-4.4
			c0.2-2.1-0.7-3.9-1.5-5.7c-1.3-3.4-0.4-5.4,3.1-5.6c13.9-0.9,27.6-2.9,41.7-1.8c9.5,0.8,19.1,1.1,28.8,0.7
			c13.1-0.5,26.2-0.6,39.2,1.4c2.1,0.3,3.7,1.3,4.7,3.3c0.4,2.7,0.2,5.5,0.2,8.2C459.9,169.2,460.2,171.1,457.7,171.1z"/>
		<path class="st47" d="M458.9,158.9c-6.4-2.2-13.2-2.5-19.8-2.8c-7.2-0.2-14.4-0.1-21.6-0.1c-5.1,0-10,0.8-15.3,0.1
			c-7.3-1-14.9-0.7-22.3-1c-9.9-0.5-19.8,0.2-29.7,2.1c-2.4,0.4-5.3-1.5-7.2,0.5c-2.6,2.7,2.7,3.8,1.9,6.3c0,0.1,0,0.3,0.1,0.5
			c0.8,3.4,2.3,4.8,6,5.4c1.9,0.3,1.9,1.5,2,2.9c-10.5,0.3-20.9,0.7-31.4,0.7c-3.7,0-5.1,1.1-4.6,4.8c0.6,4.4,0,8-5.8,7.8
			c-2.3,0.1-2.3-1.8-2.6-3.3c0.1-9.3-0.9-18.5,0.4-27.8c0.1-0.3,0.3-0.8,0.5-0.8c4.6-0.3,6.5-3.6,8.3-7.1c6.4-1.1,12.9-0.2,19.4-0.5
			c6.5,0,13-0.2,19.4,0c25.6,0.9,51.1,0.7,76.7,0.9c6.6,0.1,13.2,1.1,19.9,1c1.7,0,3.3,0.1,4.6,1.5c2.1,2.1,0.6,4.7,1.1,7.1
			C459.5,157.7,459.6,158.3,458.9,158.9z"/>
		<path class="st48" d="M310,182.9c0,1.2-0.1,2.5,1.3,3.1c-1.2,7.7-1.2,7.8-9.5,7.7c-6.6,0-13.3,0.7-19.7-1.8
			c4.9-8.1,2.2-16.8,2.2-25.3c0-1-0.7-2.2-1.9-1.7c-4.2,1.6-5.5-1.7-7.5-4c-2-2.4-3.5-5.2-6-7.2c-2.5-2.3-5.3-1.3-8.1-0.9
			c-0.8,0.1-1.5,0.1-2.3,0c-3.8-0.5-7.5-0.7-11.3,0.3c-2.1,0.5-4.3,0.2-6.3-0.5c-2.7-0.1-5.3-1-7.9-1.1c-1.8,0-3.7-0.1-5.5-0.4
			c-5.1-1.3-10.2-0.3-15.3-0.7c-1.5-0.1-3.5,0.1-3.9-1.5c-0.5-1.7,1.8-2.1,2.8-3.2c-1.5-1-5.1,0-4-3.7c0.4-0.4,0.9-0.6,1.4-0.8
			c2.7-0.5,5.5-0.4,8.3-0.2c0.5,0.1,1.2,0.1,1.4,0.4c2.8,5.4,6.9,2.9,11,2.1c8.4-1.7,16.9-0.1,25.2,1.1c2.6,0.4,5.1,1,7.8,0.9
			c4.3-0.1,8.7,0.1,12.5,2.6c2.1,1.4,4.3,1.5,6.6,0.5c3.6-1.6,5.6,0.2,6,3.5c0.4,4,2.2,6.8,5.2,9.1c2.6,2,3.2,4.9,2.8,8.1
			c-0.1,1.1-0.4,2.5,0.9,3.1c1.3,0.7,2.1-0.6,3-1.2c4.6-2.9,6.6-2.2,8.7,2.7C309,176.8,308.6,180.1,310,182.9z"/>
		<path class="st49" d="M720,132.9c0,2.3,0,4.7,0,7c1.5,2.5,1.5,5.2,1,8c-1.2,5.4-0.4,10.8-0.3,16.2c0.1,2.5,0.7,5.8-3.8,4.8
			c-11.3,0.1-22.6,0.1-33.9,0.2c-2.9-4.8-1.9-9.9-0.9-14.9c0.5-2.6,3.1-2.6,5.3-2.7c7.3-0.1,14.6,0,21.8-0.1c2,0,4,0.3,5.7-1
			c1.5-3.8-1.5-3.2-3.4-3.2c-7.3-0.1-14.6,0-21.9-0.1c-1.5,0-3,0-4.5-0.2c-1.8-0.4-3.3-1.4-3-3.3c0.5-3.2-0.4-6.7,1.6-9.7
			c4.9-1.5,9.8-0.4,14.7-0.6c5.1-0.2,10.2,0.1,15.3-0.3c0.9-0.6,2.5,1.3,3-0.8c0.3-1,0.2-2.6,1.8-2.3c1.4,0.3,0.3,2.1,1.2,2.9
			C719.8,133,720,132.9,720,132.9z"/>
		<path class="st50" d="M674.9,169.1c-27.5,0-55,0-82.4-0.1c-1.8,0-3.7-0.1-5.5-0.2c0.2-3.3-0.8-5.6-4.7-5.5c-1.1,0-2.2-0.5-2.7-1.7
			c-0.1-0.5,0-1,0.2-1.5c1.8-2.5,3.9-2.9,6.3-0.9c3,1.7,6.2,0.3,9.3,0.5c9.3,0.8,18.6,0.4,27.9,0.5c11.1,0.2,22.2-0.4,34.3,0.1
			c-8.9-0.6-16.9,0.3-24.9,0.1c-14.4-0.4-28.9-0.2-43.3-0.4c-1.2,0-2.3-0.1-3.3-1c0.4-2.9,2.8-2.3,4.6-2.4c20-1.2,40.1-1.4,60.1-0.6
			c6.8,0.3,13.5,0.4,20.3,1.3c3.1,0.4,4.9,1.5,5.8,4.4C677.3,164.5,678,167.3,674.9,169.1z"/>
		<path class="st51" d="M269.1,153c4.4,1.6,5.5,6.2,8.4,9.3c1.7,1.8,2.5,3.5,4.7,0.7c1.4-1.8,2.4-0.6,2.8,1.2
			c1.9,8.2,0.6,16.5,0.9,24.7c0.1,2.7-3.1,1.4-3.9,3c-0.4,0.3-0.9,0.6-1,0.9c-2.2,5.4-6.8,4.2-11,4c-4.2-3.3-1.8-8-2.4-12.1
			c-0.1-4.8-0.2-9.7,0-14.5c0-2.1,0-4.2,0-6.2c0.3-3.5-0.7-7.1,0.8-10.5C268.7,153.4,268.9,153.2,269.1,153z"/>
		<path class="st52" d="M579.9,160.9c0,0.3,0,0.7,0,1c1.8,2.4,1.7,4.8,0.1,7.2c-0.1,2.6-0.2,5.3-0.2,7.9c0,2.6-0.2,4.3-3.7,4.4
			c-3.6,0.1-3.4-1.7-3.6-4.2c-0.1-2.8,0.7-5.6-0.7-8.3c0.3-1,0.7-2,1-3c-1.6-1.8-1.6-4-1.5-6.1c0.2-3.9-1.7-5.3-5.5-5.3
			c-7.7,0.1-15.3,0-23,0c-16.8,0-33.7,0.1-50.5-0.1c-2.3,0-5.5,1-6.4-2.7c1.8-1.5,4-1.4,6.2-1.4c24.4,0,48.7,0,73.1,0
			c2.3,0,4.7-0.2,6.6,1.6c2.1-1.7,0.8-4,1.1-6c0.2,0,0.5-0.1,0.7-0.1c2.1,2.5,5.7,1.9,8.2,3.7c1.7,0.9,3.6,0.9,5.4,0.9
			c27.8,0,55.6,0,83.5,0c0.7,0,1.3-0.1,2-0.2c2.8-0.9,1.7-3.3,1.9-5.2c-0.1-3.6-0.2-7.3,0.1-10.9c0.2-1.7-0.2-3.8,2.4-4.2
			c2.4,3.4,1.2,7.2,1.4,10.9c0.1,2.8,0.1,5.6,0,8.3c-0.6,3,1.7,6.9-2.6,8.8c-2.1-3.3-5.3-3.4-8.7-3.4c-25.9,0-51.8,0-77.8,0
			C582.4,154.5,582.4,154.6,579.9,160.9z"/>
		<path class="st53" d="M716.9,169c2.5-0.4,3-1.6,2.6-4.1c-0.8-5.6-1.4-11.3,0.4-16.9c1.7,3,4.5,2,7,2c0.4,3.2,3,2,4.7,2
			c2.5,0.1,4.5,0,3.4,3.6c-0.9,3,2.4,5.3,1.9,8.7c-0.5,3.5-1.3,5.4-5,4.7c-4.2-0.8-5.7,1-5.3,5c0.1,1.3-0.3,2.6-0.2,4
			c0.2,3.6-2.2,3.2-4.6,3.4c-2.9,0.2-3.6-1-3.7-3.8C717.9,174.8,718.7,171.7,716.9,169z"/>
		<path class="st54" d="M675.9,158c2-2.8,0.5-6,1-9c2.3-1.7,4.5-1.4,6.8,0.1c2.3,1.8,5,1.3,7.7,1.4c8.1,0.3,16.3-0.7,24.4,0.6
			c0.6,0.3,1,0.7,1.2,1.2c-9.1,1.5-18.2,0.4-27.4,0.6c-6.7,0.2-6.7,0-6.7,6.7c0,3.2,0,6.3,0.1,9.5c-0.1,2.8-0.3,5.6-0.2,8.4
			c0,2.9-1.1,3.9-4.1,4c-3.3,0.1-3.3-1.8-3.4-4c-0.1-2.8-0.2-5.6-0.4-8.4c1.4-2.2,1-4.7,1.1-7.2C675.3,160.6,675.1,159.3,675.9,158z
			"/>
		<path class="st55" d="M268.9,184.9c0.6,4-0.8,8.2,1.1,12.1c-1.5,4.6-0.1,9.4-1,14c-1.9-3.9-0.5-8-1-12c-1.3-3.5-2.7-6.7-6.4-8.8
			c-2.5-1.4-3-4.6-3-7.5c-0.1-3.6,0.4-7.3-0.4-10.9c-0.4-1.5-0.6-3-0.8-4.6c-0.1-1.5,0.3-3,0.4-4.5c0.1-0.8,0.2-1.5,0.4-2.2
			c0.9-2.8-0.1-6.3,2.8-8.5c2.9-1.3,5.8-2.5,8.1,1l-0.2-0.1c-7,2.9-7.4,3.6-5.5,9.4c0.2,0.4,0.3,0.9,0.4,1.4c0.1,0.7,0.1,1.5,0,2.2
			c-0.1,0.5-0.2,1-0.3,1.4c0,5.8-0.8,11.6-1.3,17.7C264.8,182.7,266.9,182.7,268.9,184.9z"/>
		<path class="st56" d="M728,142.1c-0.8-3-3.7-6.6,2.4-7.4c1.7-0.2,0.9-2.2,1.6-3.4c1.7,2,2,5,4.8,5.8c0,1.3,0,2.6,0,3.9
			C734.1,142.7,731,142,728,142.1z"/>
		<path class="st57" d="M726.9,150c-4.9,3.1-5.9,2.8-7-2c0-2.7,0.1-5.3,0.1-8c1.9,2.1,4.8,1.9,7.1,3.1
			C727,145.3,726.9,147.6,726.9,150z"/>
		<path class="st58" d="M458.9,158.9c0-0.6,0-1.3,0.1-1.9c2.6,1.2,1.9,3.5,2,5.6c0.1,6.2,0.8,12.3,2,18.4c-2.9,0.8-4.3,0.2-4.2-3.2
			c0-2.2,0.9-4.7-1-6.7C460.4,167.3,458.4,163,458.9,158.9z"/>
		<path class="st59" d="M580,169.1c0-2.4,0-4.8-0.1-7.2c1.1,0.1,2.3,0.5,3.3,0.3c2.5-0.7,3.6,1.1,4.8,2.5c1.7,1.9-0.6,2.8-1.1,4.1
			C584.6,168.9,582.3,169,580,169.1z"/>
		<path class="st60" d="M337.1,67.1c-0.7-0.1-1.4-0.2-2.1-0.3c-0.3-0.5-0.4-1.1-0.2-1.7c1.6-14.4,0.5-28.8,0.8-43.3
			c0.1-2.3-0.5-4.7,1.2-6.7c1.2-1.1-2-4.4,2.1-4.1c0,0.4-0.1,0.7-0.1,1.1c-0.5,3.3-0.6,6.5,0.1,9.8c0,11.8,0.1,23.6,0,35.4
			c0,2-0.1,4,1,5.8C338.9,64.4,339.7,67,337.1,67.1z"/>
		<path class="st61" d="M337.1,67.1c1.9-0.7-0.6-4.4,2.8-4c0.6,1,0.6,2,2.4,0.8c3.2-2.2,7.2-0.5,8.5,3.1
			C346.3,68.6,341.7,68.7,337.1,67.1z"/>
		<path class="st62" d="M338.9,22c-1.5-3.3-1.4-6.5-0.1-9.8C338.9,15.5,338.9,18.7,338.9,22z"/>
		<path class="st63" d="M1.2,179c26,0,51.9-0.1,77.9-0.1c2.6,0,5.5,0.7,6.1-3.3c0.3-1.8,2-1.4,3.3-1.4c2.8-0.1,5.7,0,8.5-0.1
			c2.2,0,3.8-0.5,2.2-3.2c-2.7-3.2-1.3-7.1-1.7-10.7c0.4-3.2-0.3-6.5,0.7-9.7c2.5-3.6,7-3.2,10.3-5.3c0.8-0.5,2.1-0.1,2.7,0.7
			c3.2,3.8,6,2.4,9.4,0.1c2.5-1.7,5.7-3.5,7.6,1.2c0.4,2.5,0.2,5.1,0.3,7.7c0,2.5,0,5.1-0.1,7.6c-0.3,1.4-0.2,3.3-2.2,3.3
			c-1.3,0-1.8-1.3-2.1-2.4c-1.7-6-1.8-6-8.3-6c-0.5,0-1,0-1.5,0c-1.5,0-2.9-0.1-4.4,0.1c-3.3,2-0.9,5.5-2,8.1
			c-0.1,0.5-0.2,1-0.3,1.5c-0.6,2.5,0.1,4.8,0.4,7.2c0.3,2,0.7,4.2-1.1,5.9c-33.6,0-67.3,0-100.9-0.1C4.5,180,2.4,181.2,1.2,179z"/>
		<path class="st64" d="M109.1,156c1.7,0,3.5,0.1,5.2,0.1c0.1,0.8-0.1,1.5-0.4,2.2c-0.6,4.8-0.4,9.7-0.4,14.6
			c-0.4,3.4,1.1,7-1.4,10.1c-0.6,0-1.5-2.7-1.9,0.1c-0.4,2.5-0.5,5.2-3,6.9c0-2,0-4,0-6c1.6-6.1,0.9-12.4,1.5-18.6
			C108.9,162.2,108.1,159,109.1,156z"/>
		<path class="st65" d="M109.1,156c1.9,3.2,0.8,6.8,1,10.1c0.4,5.2-1.7,10.3-1.2,15.6c0.1,1.1-0.8,1.7-1.7,2.2
			c0-1.3-0.1-2.5-0.1-3.8c0.9-4.7-2.5-9.5,0-14.2c0.4,0.5,0.6,1.1,0.9,1.7c-0.2-0.6-0.4-1.2-0.9-1.7
			C107.9,162.6,104.8,158.6,109.1,156z"/>
		<path class="st66" d="M336.9,15.2c-0.1,16.5-0.2,33-0.2,49.5c0,1.2-0.7,1.3-1.6,1.4c-0.9-0.8-1.2-1.9-1.3-3
			c-0.1-0.8-0.1-1.7-0.1-2.5c0-2,0-4.1,0-6.1c0.1-10.1-0.1-20.3,0-30.4c0-2-0.1-4,0.6-5.9c-0.3-3.1-0.5-6.2,0.3-10
			C336.9,10.4,335.2,13.4,336.9,15.2z"/>
		<path class="st67" d="M334.2,18c1.6,2.5,0.8,5.2,0.8,7.8c0,9.8-0.1,19.6-0.1,29.4c-0.9,0.5-1.7,0.4-2.4-0.4
			c-1.3-3.1-0.4-6.1-0.1-9.2c0.4-3.7,0.6-7.5-0.2-11.3c0-3.7-0.1-7.5-0.1-11.2c1.2-1.5-0.9-3.6,1.1-4.9
			C333.5,18.1,333.8,18,334.2,18z"/>
		<path class="st66" d="M333.1,18.1c-0.4,1.6,0.4,3.5-1.1,4.9c-0.3-1.3-0.7-2.6-1-3.9c0.1-2.1-0.4-4.2,0.9-6.3
			C333.9,14.4,332.7,16.4,333.1,18.1z"/>
		<path class="st68" d="M459,96.9c0,3.7,0,7.4,0,11.2c-2.1,3.3-5.1,4.2-8.9,4.5c-26.7,2-53.5,0.5-80.2,0.8
			c-7.6,0.1-15.1-2.1-22.8-2.1c-2.5,0-5.1-0.9-4.2-4.5c6.4-2.2,13-1.9,19.5-1c1.5,0.2,2.9,0.7,4.4,0.8c17.1,0.2,34.1-0.4,51.2,0.9
			c6,0.4,12.1-0.6,18.2-0.5c4.6-0.7,9.2-0.2,13.8-0.4c2.1-0.1,4.3,0,5.6-2.2c0.3-0.6,0.6-1.1,0.8-1.8c0.2-0.8,0.3-1.6,0.4-2.4
			C457,98.8,456.9,97.1,459,96.9z"/>
		<path class="st69" d="M457.1,103.1c0.3,3.9-1.6,5.2-5.4,5c-4.9-0.3-9.8-0.1-14.8-0.1c-17.2-0.8-34.5-0.1-51.8-0.8
			c-5.2-0.2-10.6,0-15.9,0.2c-4.6,0.2-5.6-1.1-5.3-5.4c6,0.7,12,2.2,17.9-0.1c0.3-0.2,0.6-0.3,0.8-0.5c21.2,0.3,42.5,0.1,63.7,0.2
			C450,101.6,453.7,101.3,457.1,103.1z"/>
		<path class="st70" d="M331.9,83.1c2.7-0.3,5.6,0.2,8.1-1.1c1.9-1,2.7,0.5,3.9,1.1c0.3,0.4,0.4,0.8,0.3,1.3
			c-0.6,3.8,1.1,7.1,1.8,10.7c0.3,0.3,0.7,0.6,1,1c0,1.7,0,3.4,0,5.1c-0.2,4.6-1.4,6-6.3,6c-2.9,0-5.9,0-8.8,0.1
			c-5,0.2-6.2-1.8-4.4-6.8c2.1-2.9,3.2-6.2,3.8-9.6C332.1,88.3,331.9,85.7,331.9,83.1z"/>
		<path class="st35" d="M329,100c-0.4,1.6-2.6,3-1.3,4.9c1.4,1.9,3.7,1.1,5.5,0.9c1.9-0.2,3.7-0.7,5.7-0.1c4,1.1,7.1,0,7.9-4.6
			c1.2,1.1,2.3,2.4,4.3,1.7c4.2-1.6,8.5-0.5,12.7-0.7c0.4,3.3,2.2,5.1,5.5,4.9c15.2-0.8,30.5,0.7,45.7-0.1
			c5.8-0.3,11.4,0.1,17.2,0.2c1.6,0,3.4-0.5,4.7,1c-8,0.3-16.1,1.5-24,0.8c-10.3-1-20.6-0.3-30.9-0.8c-7.8-0.3-15.5,0.4-23.3-1.3
			c-5-1.1-10.5,0.1-15.8,0.3c-0.5,0.4-1.1,1-1.7,1c-9.6,0.6-19.2,1.5-28.7-0.5c-1.7-1.9,0-2.2,1.2-2.5c2.4-0.6,5-0.1,7.4-0.4
			c0-3-3.7-5.8-0.5-9C323.9,96.4,326.3,98.4,329,100z"/>
		<path class="st71" d="M374,100c1.8-1.5,3.9-0.8,5.7-0.7c22.9,1.1,45.7,0.6,68.6,0.9c1.3,0,2.7-0.2,3.8,0.8c-2.8,2-6,0.8-9,1
			c-3.4,0.3-6.8-0.3-10.2,0.4c-15,0.2-30,0-44.9,0.1c-1.9,0-3.5-0.8-5.3-1.1C379.8,100.6,376.7,101.5,374,100z"/>
		<path class="st72" d="M374,100c2.7,0.6,5.6-1,8.1,1.1c0.3,0.2,0.4,0.4,0.3,0.6c-0.1,0.2-0.3,0.2-0.4,0.2l0,0c-4.8,0-9.6,0-14.4,0
			C369.4,98.8,371.7,99.5,374,100z"/>
		<path class="st73" d="M433,101.9c6.3-2.1,12.7-0.2,19.1-1c1.6-0.2,3.1-0.4,4.7-0.7c0.4,0.5,0.7,1.1,1.1,1.6
			C449.6,103,441.3,102.8,433,101.9z"/>
		<path class="st74" d="M312.1,105.9c1.2,1.7,3,1,4.6,1c8.8,0.1,17.5,0.1,26.3,0.1c0.2,2,1.3,3.1,3.3,2.9c9.7-1,19,2.3,28.6,2.1
			c18.4-0.3,36.7-0.2,55.1,0c7.5,0.1,14.9-1.8,22.4-1c2.9,0.3,3.9-3.1,6.6-3c0.1,9,0.1,8.9-8.7,9.1c-2.1,0-4.3-0.6-6.3,0.8
			c-1.8,2-4.2,1.6-6.5,1.7c-28.5,1-57.1,1-85.6,0.8c-9.9,0.4-19.8-0.9-29.7,0c-1.8,0.2-4.2,0.2-5-1.4c-1.4-2.7-2.2-4.4-5.9-2.8
			c-1.7,0.8-2.2-1.9-2.5-3.5c-0.5-2.7,0.5-5.6-1-8.2c-6.1-2.1-12.5-0.7-18.7-1.1c-0.8,0.1-1.6,0.1-2.3,0.1c-0.8,0.2-1.6,0.5-2,1.3
			c-0.8,1.7-0.2,4.6-2.8,4.6c-3.2-0.1-6.8-0.3-9.4-2.2c-2.5-1.8-0.5-4.1,0.8-6c0.5-0.6,1.2-1.1,1.9-1.5c3.4-1.8,6.9,0.2,10.3,0
			c4.5-0.2,9,0,13.5-0.1c6.4,0,6.7-0.4,6.7-6.9c0-0.7,0-1.3,0-2c0.3-2.6-0.1-5.5,2-8.6c1.3,3,0.6,5.6,1.7,7.7
			c-0.5,5.2,2.7,9.6,3.2,14.5C312.6,105,312.4,105.5,312.1,105.9z"/>
		<path class="st75" d="M486,152.1c1.7,1.5,3.8,0.8,5.7,0.8c25.3,0,50.6,0.1,75.8-0.1c4.5,0,6,1.2,5.5,5.6c-0.3,2.5-0.1,5-0.1,7.5
			c-4.4,1.8-6.8,0.9-6-4.4c0.1-1-0.1-1.9-1-2.6l0,0c-6.4-2.4-13.2-2.3-19.8-1.7c-5.9,0.5-11.7-0.2-17.5-0.1
			c-4.9,0.1-9.8,1.2-14.8,0.5c-9.7-1.4-19.6,0.3-29.4-0.7c-2.2-0.2-4.2,0.3-6.2,1.3c-5.8,2.8-8.3,1.1-8.3-5.2c0-0.7,0-1.3,0-2
			c1.4-0.1,2.8-0.1,4.2-0.2C478.4,148.7,482.3,149.3,486,152.1z"/>
		<path class="st76" d="M486,152.1c-3.9-0.4-7.8-0.9-11.7-1.3c-0.8-0.2-1.6-0.6-2.4-0.7c-1.3-0.2-2.3-0.5-2.1-2.1
			c0.2-1.4,1.3-1.3,2.3-1.3c0.8,0,1.7,0,2.5,0c30.9,0,61.8,0.1,92.8-0.1c4.2,0,5.8,1.1,4.7,5.3C543.2,152,514.6,152,486,152.1z"/>
		<path class="st77" d="M572.9,145.9c-32.6,0-65.2,0-97.7-0.2c-1.9,0-4.5,1.4-5.4-1.9c-1-1.7-1.1-3.3,0-5c6.1,2.4,12.1,2.1,18.4,0.6
			c3.4-0.8,6.9,0,10.4,0.1c15.7,0.5,31.3,0.4,47,0.9c7.2,0.1,14.3,0.1,21.4,0c2,0,4-0.1,5.8,1C574.1,143,574.2,144.4,572.9,145.9
			L572.9,145.9z"/>
		<path class="st78" d="M351.5,119.1c14.9-0.1,29.8-0.1,44.7-0.3c15.9-0.2,31.8-0.6,47.7-0.9c3.4,0,6.9,0.3,10.3,0
			c4.3-0.3,5.3,1.3,3.7,5.1c-0.6,0-1.3,0.1-1.9,0.1c-1.3,1.1-3,1.5-4.7,1.4c-9-0.1-17.9,0.4-26.9-0.5c-9.8-1-19.6-0.5-29.4-0.3
			c-18.1,0.3-36.2-1.3-54.3-1.3c-1.3,0-2.4-0.7-3.6-1c-0.5-0.5-0.5-1.1,0-1.6C341.9,119,346.8,120.1,351.5,119.1z"/>
		<path class="st79" d="M470.2,139.1c-0.1,1.6-0.2,3.2-0.4,4.8c-0.7,0.3-1.8,0.8-1.7-0.5c0.2-2.8-1.6-4.4-3.2-6.2
			c0.4-2.4,0.9-4.8,0.1-7.2c1.6-5-0.5-10-0.1-14.9c0.2-0.5,0.5-0.6,0.9-0.2c0.7,0,1.5,0.1,2.2,0.1c0.7,0.6,1,1.4,1.2,2.3
			c0.3,3.6,0.1,7.2,0.2,10.8c0.3,3-1,6.2,1,9C470.6,137.8,470.7,138.4,470.2,139.1z"/>
		<path class="st80" d="M467,96c-1,3-1.9,6.1-2.9,9.1c0.7,1,0.8,2-0.3,2.9c-1.3-1.6-0.8-3.5-0.8-5.2c0.1-5.4-0.8-10.6-2.1-15.7
			C464.9,88.7,464.4,93.4,467,96z"/>
		<path class="st81" d="M463.8,108c0.1-1,0.2-1.9,0.3-2.9c3.4,0.3,1.6,2.9,1.8,4.5c0.3,1.7,0,3.5-0.1,5.3c-0.3,0-0.6,0.1-0.9,0.2
			C463.6,112.9,464.3,110.4,463.8,108z"/>
		<path class="st82" d="M465,130c1.6,2.4,1.7,4.8-0.1,7.2C463.7,134.8,465,132.4,465,130z"/>
		<path class="st83" d="M334.8,61.1c0,0.6,0.1,1.2,0.1,1.8c-1.3,0.8-2.3,1.9-3.5,2.8c-2.2,0.4-4.5,0-6.5,1.2
			c0.1-10,0.2-19.9,0.3-29.9c2.4-1.5,2.8-0.1,2.7,1.9c0,4-0.1,7.9,0.1,11.9c0,1.5-0.6,3.3,1,4.7c2.7-2.7-1.3-7.4,2.8-9.5
			c1,4.5-1.1,9.2,1.5,13.5C333.9,60.1,334.4,60.6,334.8,61.1z"/>
		<path class="st84" d="M344,84c0-0.3,0-0.6,0-1c0.5-5.5-4.1-5.6-6.9-5.2c-6.4,1-12.6,0.9-19,0.8c-2.3-0.1-2.8-1.1-3.3-2.8
			c1.4-1.7,4,0.2,5.3-1.7c6.4,0,12.9,0.3,19.2-0.2c4.9-0.3,6.6,1.4,5.8,6c-0.1,0.6,0,1.3,0,2C345.6,83.1,345.9,84.1,344,84z"/>
		<path class="st35" d="M344,84c0.8-0.4,1-1.2,1.1-2.1c2.1,4.2,0.3,8.7,0.9,13c-1.2-2.8-2.4-5.5-3.6-8.3
			C341.8,85.2,342.3,84.2,344,84z"/>
		<path class="st85" d="M331.4,65.8c0.2-2.2,0.8-3.9,3.5-2.8c0,1,0.1,2,0.1,3c0,0.3,0,0.5,0,0.8C333.7,67,332.3,67.2,331.4,65.8z"/>
		<path class="st86" d="M572.1,98.6c2.3,4.6,0,9.6,1.1,14.3c0.8,2.4-0.9,2.9-2.6,3.3c-1.8,0.4-3.6,0.2-5.5,0.2
			c-24.7,0-49.5,0-74.2,0c-2.3,0-4.7-0.2-6.9,0.5c-4.4,0.3-8.7,2.2-13.3,0.9c-0.6-0.3-1-0.6-1.3-1.2c-1-8.6-0.7-9.4,5.2-10.9
			c0.6-0.1,1.2-0.1,1.8-0.1c4.3,0.2,8.6,1.5,13,1c23.3-0.1,46.7-0.1,70,0c4.7,0,8.8-0.8,12.6-3.6C572.4,101.5,570.1,100,572.1,98.6z
			"/>
		<path class="st87" d="M476,107c-0.4,0-0.7-0.1-1.1-0.1c-1-0.7-2.1-0.7-3.3-0.7c-2.8-0.1-2.8-1.7-1.5-3.6c1.3-0.7,2.5-0.7,3.6,0.3
			c1.1,0.1,2.1,0.1,3.2,0.2c1.4-1.3,3.1-1.1,4.7-1c14,1.3,28,0.4,42,0.5c14.7,0.1,29.4,0.7,44.1,0.4c1.4,0,2.8,0,4.1,0.1
			c-1.7,3.8-4.7,5.1-8.8,5.1c-12.9-0.1-25.8,0-38.8,0c-11.8,0-23.7-0.1-35.5-0.1C484.6,106.7,480.4,106.2,476,107z"/>
		<path class="st88" d="M567.8,102.9c-1.9,1-3.9,0.7-5.8,0.7c-20.6,0.3-41.1-0.8-61.7,0.1c-7.7,0.3-15.6,0-23.3-0.7
			c-1-4.1,2.2-2,3.2-1.9c13.1,1.3,26.3,0.6,39.4,0.7c14.1,0.1,28.2-0.2,42.3-0.1C563.8,101.7,566.2,100.7,567.8,102.9z"/>
		<path class="st89" d="M473.7,102.8c-1.2,0.1-2.5,0.1-3.7,0.2c-0.9,4.4-0.3,9-0.6,13.4c-0.3,0.6-0.7,0.8-1.3,0.3
			c0-0.6-0.1-1.2-0.1-1.8c0-3.1-0.3-6.1-0.8-9.2c-0.3-2.2-2-5.2,1.7-6.6c1.3,1.5,3.2,1,4.8,1.7C475.4,101.6,474.3,102.2,473.7,102.8
			z"/>
		<path class="st90" d="M715.1,134.1c-2.2,1.8-4.8,0.9-7.2,0.8c-7.9-0.2-15.9,1-23.8-0.7c-0.3-0.2-0.5-0.3-0.8-0.5
			c-2.4-4.3-2.5-8.6-0.4-13c2.1-1.4,4.4-1.1,6.7-1.1c6.7-0.1,13.5,0,20.2,0c2.5,0,5-0.1,6.1-3c0.3-0.5,0.7-0.9,1-1.4
			c0.4,0.3,0.7,0.6,1.1,0.9c1.8,5.5,0.9,7.2-4.5,7.4c-6.9,0.3-13.9,0-20.8,0.1c-1.8,0-3.6-0.4-5.3,0.7c0.3,1.5,1.4,1.1,2.3,0.9
			c7.1-1.2,14.2-0.5,21.3-0.5c2.7,0,5.5,0.5,5.2,4.3c-7.9,1-15.8-0.3-22.1,0.5c6.1-0.1,13.8-0.3,21.4,0.1
			C717.3,131.3,715.8,132.6,715.1,134.1z"/>
		<path class="st91" d="M715.1,134.1c0.2-1.5,0.4-2.9,0.7-4.4v-0.4c-0.4-1.7-1-3.3-3.1-3.3c-7.1,0-14.3,0-21.4,0
			c-1.8,0-3.4,3.9-5.6,0.2c-0.5-0.8-1.9-1.2-1.6-2.6c0.4-1.8,1.9-1.6,3.2-1.6c8.3,0,16.6-0.3,24.9,0.1c5,0.3,6.6-1.5,5.9-6.1
			c1.5-1.1,0.7-2.8,1.2-4.2c0.2,0.2,0.4,0.3,0.7,0.4c0.8,0.5,0.7,1.1,0.2,1.8c0,1.3,0.1,2.7,0.1,4c-0.1,5-0.2,10-0.2,15.1
			c-0.4-0.7-0.8-1.9-1.2-1.9c-1.3-0.1-0.6,1.1-0.6,1.8C717.8,135.4,716,133.8,715.1,134.1z"/>
		<path class="st92" d="M686.1,99.2c0.9,0,1.7,0,2.6,0c1.5,0.6,1.1,2.8,2.7,3.3c6.3-0.9,12.7,0.5,18.9-0.3c-4.6,0.4-9.1,0.1-14.2-1
			c2.5-2.7,5-1,6.9-2c4.6-0.1,9.2-0.1,13.8-0.2c2,6.8,0.4,9.3-6.5,8.9c-8.8-0.5-17.7,0.9-26.5-0.9C684,104.2,682.2,101,686.1,99.2z"
			/>
		<path class="st93" d="M686.1,99.2c-0.4,0.3-0.8,0.6-1.2,0.9c2.9,2,1.1,3.2-0.7,4.6c-0.4,0.3-0.2,1.5-0.3,2.3
			c-0.1,1.2-0.1,2.3-0.2,3.5c-0.5,3.4,0.7,4.6,4.3,4.5c9.6-0.2,19.2,0,28.8,0.1c0.1,0.3,0.1,0.7,0,1c-2.1,1.8-4.7,1.4-7.2,1.4
			c-8.5,0.2-17-0.3-25.5,0.4c-2.4,0.1-4.8,1.7-7.1,0c-0.8-0.7-1.3-1.6-1.5-2.6c-0.2-1.1,0.3-1.9,1-2.6c0.4-0.3,0.8-0.5,1.2-0.7
			c1.1-1.5,3,1.9,3.8-0.7c0-3-0.6-6.1,1.1-8.9C682.8,100.2,683.4,98.6,686.1,99.2z"/>
		<path class="st94" d="M676.8,113.2c-0.4,0.6-0.7,1.2-1.1,1.9c-0.5,0.5-1,0.8-1.7,1c-6,0.7-11.9,0.3-17.9,0.3
			c-23.4,0.1-46.8,0-70.3,0c-3.6,0-7.4,0.1-7.1-5.2c0.3-2.5,2-4.1,3.6-5.8c1.6-1.8,3.1-2.3,5.1-0.7c1.6,1.3,3.5,1.7,5.6,1.7
			c19.7-0.1,39.5,0.6,59.2-0.3c3.3-0.1,6.6,0.3,10,0.4c8.9,0.2,8.9,0.2,11.9-7.3c0.3-0.4,0.6-0.7,0.9-1.1c2.6,4.1,0.2,8.6,1.1,12.9
			C676.8,111.6,676.9,112.3,676.8,113.2z"/>
		<path class="st95" d="M674.1,99.3c1.4,6.2-0.1,8.6-6.1,8.7c-22,0.2-44,0.2-66,0c-3.1,0-6.2-0.6-9.3,0c-3.2,0.6-5.9-0.3-7.8-3.8
			c0.8,4.3-4.2,3.1-4.8,5.9c-0.2-0.2-0.4-0.3-0.7-0.5c-1.2-2.2-0.9-4.2,0.3-6.3c-0.2-5.9,4.1-3.7,7-4c1.4,0.9,4.6-1.1,4.1,2.7
			c15.3-0.2,30.6,0.7,45.9,0.3c10-0.2,20.1,0,30.1,0.2c-2.7-0.5-5.9,0.9-8.2-2c2.1-1.6,4.4-0.2,6.3-1.1
			C668.1,99.2,671.1,99.3,674.1,99.3z"/>
		<path class="st96" d="M587,102c0.5-1.4,1.9-1,3.1-1.5c-1.2-0.5-2.2-0.9-3.3-1.3c26.1,0,52.2,0,78.2,0c-1.4,1.3-3.4,0.5-5.5,1.2
			c4,1.5,8-1,11.2,1.8c-10.4,1.3-20.8,0.7-31.2,0.4c-4.6-0.1-9.3,0.1-13.9,0.3c-8.1,0.4-16.2-0.9-24.4-0.1
			C596.6,103.2,591.7,103,587,102z"/>
		<path class="st97" d="M482.9,115.8c2.3-1.5,4.8-0.9,7.2-0.9c26.1,0,52.1,0,78.2-0.1c1.7,0,4.2,1.2,4.8-1.9
			c0.2,0.1,0.5,0.1,0.7,0.1c3-0.2,5.4,0.8,6.8,3.6c0.4,1.3,0.3,2.5-0.4,3.6c-0.3,0.4-0.7,0.7-1.1,1c-1.7,0.9-3,3.7-4.9,2.7
			c-2.5-1.4-0.3-4-0.6-5.9c-1.1,0.6,0.8,2.9-1.4,3.3c-0.5-0.2-1-0.6-1.4-1.1c-2-3.1-5.2-2.5-8.1-2.5c-24,0-47.9,0-71.9-0.1
			C488.1,117.5,485.1,118.2,482.9,115.8z"/>
		<path class="st98" d="M580.1,116c-1.3-2.5-4.9-0.4-6.2-3c0-0.7,0.1-1.4,0.1-2.1c1.1-1,1.3-2.7,2.9-3.2c1.7-0.1,2,1.4,2.8,2.3h0.5
			c-1.2,4.3,0.7,5.2,4.8,5.2c29.8-0.1,59.6,0,89.5,0c2.3,1.4,1.7,3.4,1,5.4c-0.4,0.6-0.9,0.8-1.5,0.6c-0.5-0.4-0.9-0.8-1.3-1.3
			c-1.9-2.9-5-2.3-7.7-2.3c-25.6,0-51.2,0-76.8-0.1C585.4,117.5,582.5,118.1,580.1,116z"/>
		<path class="st99" d="M579.7,110c-1.5,0.1-1.7-1.6-2.8-2c-1.1,0.1-2,0-2.8-0.9c0.4-3.5,4.5-1.5,5.6-3.8
			C579.8,105.5,579.7,107.8,579.7,110z"/>
		<path class="st100" d="M574.1,107c1,0,2.1-0.2,2.8,0.9c-0.8,1.1-0.8,3.1-2.9,3C574.1,109.6,574.1,108.3,574.1,107z"/>
		<path class="st101" d="M676.8,113.2c-0.9-0.5-0.9-1.2-0.7-2.1c0.1-0.1,0.4-0.2,0.4-0.3c0-4.4,1-8,6.3-8.4c0,3.5,0,7.1-0.1,10.6
			c-1.6,0.9-3.2-3.2-4.7,0C677.5,113,677.2,113.1,676.8,113.2z"/>
		<path class="st93" d="M703.1,99.2c-1.4,1.4-3.5,0.2-5.2,1.3c5.7,1.2,11.5-1.1,16.9,1.5c-3.8,1.6-7.7,1-11.6,0.6
			c-4.4-0.5-8.7,0.1-13,1c-2.4-0.9-0.7-3.1-1.5-4.6C693.5,99.2,698.3,99.2,703.1,99.2z"/>
		<path class="st102" d="M719.9,113.9c-0.1-0.6-0.1-1.2-0.2-1.8c0.1-2.3,0.2-4.7,0.4-7c2.2-2.8,4.4-2,6.7-0.1c0,2.6,0,5.2,0,7.8
			C724.3,112.1,721.9,111.7,719.9,113.9z"/>
		<path class="st103" d="M726.8,105c-2.2-0.2-4.5-1.3-6.7,0.1c0.3-4.7,1.1-5.1,6.6-3.1C726.8,103,726.8,104,726.8,105z"/>
		<path class="st104" d="M729.6,103.7c-0.9,0.1-1.7-0.2-1.7-1.2c0-0.9,0.6-1.6,1.6-1.3c0.7,0.2,1.8,0.7,1.9,1.2
			C731.5,103.3,730.5,103.6,729.6,103.7z"/>
		<path class="st105" d="M71.1,132.9c-14.8,3-28.8,8.6-43,13.5c-4.6,1.6-9.7,2.4-13.1,6.6c-1.7-2.1,0.8-3.3,1.1-4.9
			c2.2-2.3,4.9-3.6,8-4c5.1-0.6,9.3-3.5,14-5c2.6-1,5.3-2,7.9-3c6.7-2.3,13.4-4.6,20-7c3.4-2,7.6-0.9,11-3l0,0c3-0.4,6-0.7,8.9-1.1
			c3.8-0.8,8.3-0.5,9-6l0,0c0.2-3-1-6.2,1-9c0.2-1.4-0.5-3,1-4c3.1,0.7,2.2,3.2,2.3,5.1c0.4,6.4-0.5,12.8,0.5,19.2
			c0.2,0.6,0.3,1.2,0.3,1.8c-0.2,1.7,0.4,4-2.5,4c-4.1-1.1-6.7-5.9-11.7-5C80.9,130.4,76.1,132.3,71.1,132.9z"/>
		<path class="st27" d="M24.1,144c-2.4,1.9-5.1,3.2-8,4C17.2,144.1,19.9,142.7,24.1,144z"/>
		<path class="st31" d="M77.1,126c-3.3,2.5-7.1,2.9-11,3C69,125,73.5,127.2,77.1,126z"/>
		<path class="st44" d="M247.8,86.8c0.5-4.2-0.4-8.6,1.3-13.4c2.1,3.8,1.4,7.3,1.8,10.7c0.4,3.2,0.1,5,4.7,3.7
			c3.9-1.1,8.4,0.8,12.7-0.3c2.3-0.5,3.8-1.5,4.8-3.6c0.2,0.2,0.4,0.4,0.6,0.6c0.9,2,0.9,3.9-0.5,5.7c-0.6,0.2,0.2,0.2-0.4,0.3
			c-7,0.7-13.9,1.6-20.9,2.5c-3.7-0.5-2-4.3-3.7-6L247.8,86.8z"/>
		<path class="st106" d="M273.1,81c0.4-1.9-1.4-3.5,0-5.7c1.6-2.4,2.4-1.2,3.6-0.1c0.2,1.6,0.3,3.3,0.5,4.9c1.4,1.9-0.1,4,0.4,5.9
			c0,0.5-0.1,0.9-0.3,1.4c-0.4,0.6-1,1.1-1.8,1.2c-3.3-0.2-1-3.4-2.4-4.6l0,0C273.1,83,273.1,82,273.1,81z"/>
		<path class="st107" d="M225,108c2.9-1.9,6.1-3.4,7-7.2c0.3-1.2,0.9-1.4,2.1-1.4c1.2,0,3.1-0.2,3.6-1c3.3-5.1,5.7-1.5,8.3,0.6
			c0.6,0.4,0.9,1,1,1.7c0.2,1.3,0.2,2.6,1.1,3.7c0.3,0.4,0.5,0.8,0.6,1.2c0.7,3.1-0.7,5.1-3.6,6c-1.8,0.6-3.3,1.4-4.7,2.6
			c-1.6,1.4-2.9,1.3-3.7-1.4c0.5,3.1,0.5,5.6-2.2,7.2c-0.2,0.1-0.8,0.3-0.6,0.4c0.4,0.2,0.9,0.2,1.3,0.6c0.9,3.8,1.2,8.2-2.6,9.7
			c-4.5,1.8-7.9,8.6-14.2,4.2c-0.7-1.2-0.8-2.5-0.8-3.9c0.7-3.4,0.7-6.8,1.5-10.2c0.9-2,5.4-0.5,4.5-4.4c0-2.1-0.1-4.1,0.2-6.2
			C224,109.3,224.4,108.6,225,108z"/>
		<path class="st108" d="M224.9,116.7c0.7,4.4-1.1,5.2-4.8,3.2c-2.6-3.3-1-7.2-1.4-10.8c0.2-7.5,0.2-7.5-8.2-7.9
			c-5-2.2-10.3,0.9-15-0.8c3.4,3.2-0.6,4.7-2,6.8c-1,0.5-1.9,0.2-2.8-0.1c-0.4-0.2-0.9-0.4-1.3-0.6c-1-0.7-2-1.3-2.4-2.4
			c-1.4-4.4-5.7-6-10.1-3.6c-2.2-0.1-4-0.6-3.9-3.3c0.3-0.3,0.6-0.7,1-1c4-0.7,8-1.3,12-2l0.3,0.1c1.6,1.3,3.5,0.9,5.2,0.9
			c9.3-0.1,18.5,0,27.8,0c1.9,0,4-0.5,5.7,1c0,0.4,0,0.7,0.1,1.1c1.5,2.6,1.8,5.3,0,7.9c0.3,1-1.2,2-0.1,3c0,0.7,0,1.4,0,2.1
			c-1.5,0.9-4.7,0.2-3.3,3.6c-0.1-0.9-0.5-2.2,0.6-2.5c1.3-0.4,1.6,0.9,1.7,1.8C224.1,114.2,224,115.6,224.9,116.7z"/>
		<path class="st109" d="M246.1,101c0-0.7-0.1-1.3-0.1-2c1.3-1.8,1.1-3.9,1-6c0.4-2,0.8-3.9,1.1-5.9c1-0.5,1.8-0.8,1.9,0.8
			c0.1,1.4-0.4,3,1,4.1c1.1,2.3,3,2.5,4.9,1.4c5.3-3.1,11.1-2.7,16.8-2.1c1,1.1,2.3,1.1,3.7,1c1,5.4,0.1,6.3-5,5.1
			c-4.5-1-8.8-1.6-13,2.1c-4.1,3.6-8.4,1.2-9.5-4.4C248.8,97.2,249.8,100.1,246.1,101z"/>
		<path class="st7" d="M225,96c-11.5,0-23.1,0.1-34.6,0c-1.5,0-3.9,1.2-4.2-1.9c13.3,0,26.5-0.1,39.8-0.1c0.3,0.2,0.4,0.5,0.3,0.7
			c-0.1,0.2-0.2,0.4-0.3,0.4C225.7,95.3,225.4,95.7,225,96z"/>
		<path class="st107" d="M225.1,105c0-2.6,0-5.3,0-7.9C229.6,100.7,229.6,101.8,225.1,105z"/>
		<path class="st107" d="M226,95c0-0.4,0-0.7,0-1.1c2.5-1.8,4.5-0.9,6.7,0.8C230.4,98,228.2,93.2,226,95z"/>
		<path class="st110" d="M332.9,60.9c-0.9,0-1.8,0-1.8-1.1c0.2-4.6-0.9-9.2,0.8-13.7c0.1-4,0.2-7.9,0.2-11.9c2,6.9,0.1,13.9,1,20.9
			C334.3,57.1,334.5,59,332.9,60.9z"/>
		<path class="st111" d="M108.1,106c0.3,0,0.7,0,1,0c1.5,1.5,1.1,3.4,1.3,5.2c0.1,1-0.3,2.5,1.6,2.4c1-0.5,1.1-1.7,1.7-2.4
			c0.3-0.3,0.7-0.4,1.1-0.4c1.3,0.6,2.7,0.9,4,1.3c0.1,0.4,0.3,0.8,0.4,1.2c0.5,0.5,0.8,1.1,0.8,1.7c1.3-1.2-0.6-3.8,2-4.5
			c1.3,0,2.1,0.8,2.6,2c0.4,0.6-0.3,1.6,0.8,1.8c0.1,0,0.3-0.9,0.5-1.4c0.5-0.5,1.1-0.6,1.8-0.5c0.4,0.2,0.8,0.4,1,0.7
			c0.5,0.7,0.9,1.4,1.6,2c1.9,1.1,3.4-0.9,5.1-0.8c0.5,0.1,0.9,0.3,1.2,0.6c3.2,3.8,8,2,11.8,3.4c6.2,2.7,12,1.6,18.3-0.6
			c4.4-1.6,9.7-0.1,14.3,2c0.6,2.6-1.2,3.5-3.2,4c-1.9,0.5-4.3,0-2.9,3.8c0.8,2-2.3,3.1-4.1,4.2c-5.7,2.1-11.3,3.4-17.3,0.4
			c-2.9-1.4-6.2-0.1-9.3,0.1c-3,0.2-5.9,0-8.9-0.2c-6-0.4-9.9-3.3-11.8-8.9c-0.8-1.3-1.5-2.6-3.4-2.1c-0.9,0.4-1.7,1.1-2.5,1.7
			c-4,3.3-8.9,1.9-9.7-3.2C107.2,115.2,105.8,110.5,108.1,106z"/>
		<path class="st112" d="M108.1,106c0.5,4.8-1.1,9.8,1.4,14.6c1.8,3.4,4.6,3.9,6.9,0.9c1.3-1.7,3.2-1.5,4.8-2.4
			c1.6,3.1,0.5,6.3,0.5,9.5c-0.3,0.4-0.8,1-1.1,0.8c-3.3-1.9-2.1,1.1-2.6,2.3c-2.2,3.5-4.9,2-7,0.2c-1.3-1.1-2.4-2.6-3.8-3.7
			c-0.2,0.8,0.3,1.7,0,2.6c-0.3,1.3-0.6,2.8-2.3,2.7c-1.8-0.1-2.6-1.6-2.4-3.2c0.7-4.5-0.6-8.9-0.4-12.9c0.3,3.8-0.5,7.9-0.9,12
			c-0.1,1.2-0.1,2.8-2.1,2.7c0-0.3-0.1-0.6-0.1-0.9c-0.6-9.3-1-18.7,0.1-28c2.2-0.5,1.5-3.2,3.3-4.3c1.6,1.9-0.4,4.7,1.6,6.3
			c0,3,0,5.9,0,8.9c0,1.3-0.2,3.3,1.3,3.4c2.1,0.1,1.5-2,1.5-3.4c-1.1-2-1.1-3.9,0.2-5.8c0.1-1.4,0.1-2.7,0.2-4.2
			C108.4,104.4,107.9,105.3,108.1,106z"/>
		<path class="st113" d="M127.9,113c-0.6,0-1.3,0-1.9,0c-0.6,0.6-1.3,0.6-2,0.1c-0.4-1.1-1.1-1.8-2.2-2.2c-0.4-0.7-0.3-1.3,0.2-1.9
			c2-1.9-0.8-2.8-0.9-4.2c-0.3-4-0.2-7.9,1.9-11.5c0.3-0.1,0.6-0.1,0.9,0c0.5,5.2,1.6,10.1,5.9,13.5c0.1,0.5,0.1,0.9,0,1.4
			C130.1,110.1,127,110.7,127.9,113z"/>
		<path class="st114" d="M113.1,114.9c-2.5,1-4.4,1.2-4.1-2.6c0.2-2.1,0-4.2,0-6.3c2.7-0.2,4.4,1.4,6.1,3.2c0.4,0.6,0.3,1.2-0.3,1.7
			c-0.2,0.1-0.4,0.2-0.6,0.3C111.5,111.6,113.9,113.7,113.1,114.9z"/>
		<path class="st115" d="M122.1,109c-0.1,0.6-0.2,1.3-0.2,1.9c-1,2,0.5,4.5-1.5,6.4c-2-0.9-0.9-2.7-1.2-4.1c1-1.3,0.4-2.8,0.7-4.1
			C120.5,106.5,121.3,108,122.1,109z"/>
		<path class="st116" d="M114.9,110.8c0.1-0.6,0.2-1.1,0.3-1.7c2.2-0.3,4-0.2,3.6,2.8C117.1,113.1,115.5,113.8,114.9,110.8z"/>
		<path class="st117" d="M107,108c-0.1,1.9-0.1,3.9-0.2,5.8c-3.8,0.9-1.5-2.1-1.8-3.2C104.7,109.7,103.9,107,107,108z"/>
		<path class="st118" d="M99.1,103c0,9.3-0.1,18.7-0.1,28c-2-6-0.4-12.3-1-18.4c-0.2-2.2,0.9-4.6-1-6.6c0.3-2.1-0.8-4.6,1.9-5.9
			C99,101.1,99.1,102,99.1,103z"/>
		<path class="st118" d="M95.1,119c1.9,4.2-1.3,5.1-4.1,5.9c-1.5,0.4-3.2,0.1-4.9,0.1C89.7,124,92.8,122.1,95.1,119z"/>
		<path class="st118" d="M96.1,110c-0.5,3,1,6.2-1,9C93.2,115.7,92,112.6,96.1,110z"/>
		<path class="st119" d="M246.1,101c2.6-2.2,1.6-5.4,2.2-8.7c0.8,0.7,1.3,1,1.4,1.4c2.1,7.4,4.2,8,10.2,2.9
			c3.6-3.1,8.3-1.9,11.1-0.6c6,2.7,5.1-0.5,5-4c-0.9-1.9,0.4-3.4,0.9-5c-0.1-0.3-0.1-0.5,0-0.8c0.8-2.3,1.9-0.9,2.4,0
			c1.5,3.1,4.2,3.3,7.1,3.1c3.5-0.2,6.9,0.3,10.3,0.6c6.7,0.6,8.1-0.5,9.2-6.9c0.1-0.6,0.1-1.3,0.2-1.9c2.3-2.6-1.1-6.4,1.8-8.9
			c0.4,4.4,0.7,8.9,1.1,13.3c0.2,2.1,0.7,3.2,2.1,0.5c0.3,0,0.6,0,0.9,0c0.9,0.8,1,1.9,0.8,3c-0.1,0.6-0.3,1.3-0.4,1.9
			c-0.4,1.5,0.1,3.8-1.8,4c-2.6,0.3-1.6-2.6-2.5-3.9c0-2.3,0-4.5,0-6.8c-0.3,0-0.7,0-1,0c0,2.3,0,4.5,0,6.8
			c-1.6,9.7-1.6,9.8-11.8,9.5c-3.6-0.1-7.3,0-10.9,0.1c-2.8,0-4.9-0.7-6-3.7c-0.9,1.7-2.3,2.7-3.3,4.2c-0.3,0.3-0.7,0.7-1,1
			c-3.1,2.2-6.4-0.1-9.6,0.4c-4.6,0.7-9.3,2.5-14.1,0.7c-1.4-0.5-2.3,1-3.2,1.9C245.4,103.9,246.2,102.4,246.1,101z"/>
		<path class="st120" d="M289.9,81.1c-2.9-1-6.3,1.6-9.1-1c0.2-1.2,0.6-2.8,1.8-2.7c4.4,0.5,8.8,0.7,13.2-0.3
			c0.9-0.2,1.9,0.8,1.8,1.9c-0.1,1.4-1.1,2.2-2.4,1.5C293.3,79.7,291.7,80.9,289.9,81.1z"/>
		<path class="st120" d="M305,81c-0.6-0.3-1.2-0.6-1.8-0.7c-1.2-0.3-2.8,1.7-3.8-0.4c-0.1-0.3,0.4-1.2,0.9-1.5
			c1.5-0.8,3.2-2.2,4.9-0.9C306.7,78.6,305.5,79.9,305,81L305,81z"/>
		<path class="st121" d="M129.1,107c-0.8-3.7-3.2-1.8-5.5-1.2c2.7-4.5-2.6-8.6,0.3-12.7c4.5,3.6,9.9,1.4,14.8,2.3
			c5.1,0.9,10.4-1.6,15.5,1.9c1.1,0.8,5.7,2.5,8.4-1c1.2-1.6,5.5-0.2,5.8,0.5c1.8,3.6,3.1,0.7,4.6,0.1c0.8,1.8,2.6,2.2,4,3
			c0.7,0.4,1.1,1.5,1.8,1.6c4.5,0.3,5.3,3.5,5.7,7c-2.1,4.1-3.6,1.6-5.2-0.4c-1.3-3.1-3.8-2.2-6.1-1.9c-2.2,1.3-4.4,1.7-6.5-0.1
			c-0.8-2.8-1.7-4.9-5.3-2.9c-2.7,1.5-5.8,0.1-8.8,0.1c0.4,1.7,2.9,1.8,2.6,3.8c-3.1,3.3-7.3,2-10.8,1.7c-4.2-0.4-5.2,1.1-4.8,4.7
			c-0.8,1.5-1.8,2.6-3.7,1.5l0,0c-0.6-0.8-2.5-0.4-2.2-2.2c0-0.9,2-2.3,0.2-2.4C131.4,110.3,131,107.7,129.1,107z"/>
		<path class="st70" d="M312,89c0-1,0-2,0-3c0-2.9,1.4-3.9,4.3-3.5c2.8,0.4,5.8,0.3,8.7,0.4c0.3,2.2-1,4.1-1.2,6.2
			c-0.8,2.3-0.8,5-2.8,6.8c-0.5,3.5,0.3,6.5,3.5,9.2c-4.2,1.4-8.3,0.4-12.4,0.7c-0.1-0.3-0.2-0.6-0.2-0.9
			C310.7,99.7,310.9,94.4,312,89z"/>
		<path class="st122" d="M323.2,88.9c-0.4-2.3-0.3-4.4,1.8-5.9c2.3-1.5,4.6-1.5,6.9,0.1c2.5,2.6,1.4,5.2,0,7.9
			C328.2,94.4,325.7,93.8,323.2,88.9z"/>
		<path class="st123" d="M306,83c0.3,7.4-1.5,9-8.7,8.1c-4-0.5-8.2-1.1-12.1-0.6c-3.9,0.5-5.9-0.3-6.7-4.2c-0.1-0.8-0.9-0.7-1.6-0.2
			c-1.6-2.1,0.1-4,0.3-6c0.6,0,1.3-2.8,1.9,0.3c1.2,6.4,2.4,7.5,8.8,6.5c4.8-0.8,9.2,2.1,14.4-0.1C304.9,85.7,304.4,83.8,306,83z"/>
		<path class="st68" d="M147,185.9c0,0.8,0,1.7,0,2.5c0,1.2,0,2.7-1.4,2.8c-1.5,0.1-2.1-1.3-2.5-2.6s0.5-3.6-1.8-3.3
			c-2,0.3-1.2,2.4-1.3,3.8c-0.1,5.6-0.2,11.3,0,16.9c0.1,3.1-1,4.3-4,3.9c-1-0.1-2-0.1-3,0c-4.3,0.3-6.2-1.3-6.1-6
			c0.2-6.7,1.1-13.5-1.9-19.9c-0.5-0.4-0.8-0.8-1-1.4c-0.7-2.5-0.3-5.1-0.4-7.7c0-1.5,0-3,0.7-4.3c2.1-2.1,3-0.7,3.8,1.3
			c0.5,3.4,0.3,6.8,0.2,10.3c0.1,1.8-0.4,4,2.6,3.7s6.6,0.3,7.4-4.1c0.5-2.6-0.1-5.3,0.5-8c1-2.4,2.6-2.6,2.9,0
			c0.5,5.2,4.2,5.1,7.8,5.5c1.8,0.2,3.6-0.6,5.4-0.5c4.6,0.2,6.2-2.1,5.7-6.3c0-0.5,0-1.1,0.1-1.6c0.1-1.4,0.6-2.7,0.8-4.1
			c0.2-1.5,0.3-3,2.1-4c2.9,3.2,1.3,7.2,1.7,10.8c0.7,7.3,2.5,9,9.4,9c3.5,0,7,0,10.4,0c1.5,0,3.1,0,4.6-0.5
			c1.6-0.2,3.1-0.5,4.3,1.1c0,0.3-0.1,0.5-0.1,0.8c-2.3,2.9-5.1,4.8-9.1,5.3c-5.1,0.5-9.9,2.6-15,3c-3.8,0.3-5.8-0.6-5.8-4.5
			c0-1.4-0.2-2.7-2.1-2.8c-1.4,0-2.8,0.1-2.8,1.9c-0.1,1.9-0.5,4.4-2.5,4.2c-2.4-0.2-1.1-3-1.6-4.6c-0.2-0.6-0.6-1.1-1-1.7
			c-1.9-1.7-4.4-1.1-6.6-1.2C145.1,183.5,145.6,184.9,147,185.9z"/>
		<path class="st68" d="M259.1,171c1.9,3.6,0.6,7.4,0.8,11.1c0.2,4.4,0.9,7.7,6.2,9.1c3.7,1,1.2,5.1,1.8,7.7
			c-1.9-0.2-4.5,0.8-5.5-1.4c-2.1-4.4-3.9-4-6.3-0.4c-2.4,3.5-6.2,2.5-9.1,1.6c-5.9-1.8-11.6-0.1-17.2,0.6
			c-4.1,0.5-7.8,0.5-11.7-0.7c-2.8-0.8-5.4-2.1-8.7-1.2c-2.2,0.6-4.1-0.8-4.6-3.4c-0.1-0.9-0.4-1.8-1.4-1.5
			c-0.5,0.1-1.2,0.8-1.3,1.3c-0.4,1.7-0.6,3.8-2.7,3.4c-2.1-0.4-3.8-2.3-4.3-4.4c-0.7-2.9-0.8-5.9-1.2-8.8l0.1-0.1
			c1.6-0.6,2.3,1.9,4.2,1.1c-2.5-1.7-3.3-4.5-0.7-5.7c4.1-2,3.6-5.4,4.3-8.6c0.2-0.8,0.5-1.5,1.1-2c0.8-0.3,1.6-0.2,2.3,0.3
			c0.7,0.9,0.9,2.1,1,3.2c0.1,2.8,0.2,5.5-0.3,8.3c-0.6,5.1,2,8.7,7,8.5c13.4-0.6,26.8,0.2,40.2,0.3c2.4,0,3.2-1.4,3.6-3.3
			c0.1-0.5,0.2-1,0.4-1.5c0.9-3.3,0.3-6.6,0.5-9.9c0-0.8,0.1-1.6,0.4-2.3C258.4,171.7,258.7,171.3,259.1,171z"/>
		<path class="st124" d="M125,174.9c0,2.7,0,5.3,0,8c-3.9,5.2-8.8,5.6-13,1c0-0.3,0-0.6-0.1-1c0-3.7,0.1-7.4,0.1-11.1
			c0.2-0.1,0.5-0.2,0.7-0.2c0.4,0.2,0.7,0.6,1,1c1,5.5,3.8,7.6,7.6,5.7C123,177.6,122.5,174.6,125,174.9z"/>
		<path class="st68" d="M125.1,185.9c-0.6,4.5-3.6,6.5-7.7,6.8c-2.9,0.2-5.5-1.1-5.3-4.8C116.5,187.8,120.8,186.9,125.1,185.9z"/>
		<path class="st64" d="M125.1,185.9c-3.9,3.2-8.2,4.1-13,2c0-1.3,0-2.7,0-4c4.6,3.1,8.9,2.1,13-1c0,0.4,0,0.7,0.1,1.1
			C125.1,184.6,125.1,185.3,125.1,185.9z"/>
		<path class="st125" d="M147,185.9c-1.5,0.8-2.5,0.5-2.9-1.2c-0.2-1,0.2-2.7,0.9-2.4c2.9,1.3,6.9-1.2,9,2.6
			C151.8,185.9,149,183.1,147,185.9z"/>
		<path class="st17" d="M247.1,104.9c0.4-2.9,0.6-6.3,4.8-2.7c1.5,1.2,3,0.5,4.7,0.1c5.8-1.3,11.6-1.8,17.5-0.4
			c-2.3,3.1-3.1,5.4,2.3,5.1c0.9-0.1,2,0.1,2.9,0.6c3,1.7,4.3,0.9,3.8-2.5c-0.4-2.9,1.7-2.6,3.3-3c0.8,1,1,2.2,1.1,3.4
			c2.2,2.5,9.5,3.4,13.6,1.8c2.8-1.1,5.1-3.1,7.9-4.3c2.4,2.9,0.6,6.4,1.2,9.5c0.2,1.1-0.4,2.6,1.1,2.9c1,0.2,1.7-0.8,2.3-1.6
			c0.8-0.9,0.4-3.1,2.4-2.6c1.7,0.4,1.3,2.2,1.1,3.4c-0.4,3.8,1.5,4.3,4.7,4.3c9.9-0.1,19.9,0,29.9,0c-4.8,1.2-9.7,0.2-14.5,0.9
			c-3.5,1.9-7.2-0.3-10.8,0.5c-0.1,0-0.3,0.1-0.3,0.2c0,0.1,0,0.3,0.1,0.5c0.2,2.1,1.6,2.5,3.3,3c5.1,1.4,5.9,3.4,3.2,7.8
			c-0.9,1.4-1.1,2,0.4,3.1c3.4,2.6,7.4,3.6,11.4,4.8c0.6,0.2,1.5,0.2,1.9-0.1c6.8-4.8,12.8-2,19.1,1.6c2.7,1.5,6.3,1.7,9.6,1.7
			c15.4-0.1,30.9,0,46.3,0c2.1,0,4.4-0.6,5.8,1.9c-1.6,1.9-3.9,1.7-6,1.7c-6.3,0.1-12.6,0.1-18.8,0c-11-0.1-22-0.6-33,0.3
			c-3.4,0.3-6.8,0.1-10.2,0.1c-13.9,0-27.8-0.2-41.7,0.7c0,0.5-0.2,1-0.1,1.5c0.4,4.3,0.3,7.8-5.6,4.9c-0.4-0.2-1,0-1.5,0
			c-2.4-3.2-1.2-6.8-1.5-10.3c0.1-6,0.1-12,0-17.9c-0.1-4.8-0.7-5.4-5.6-5.3c-5.7,0.1-11.2,1.2-16.3,3.9c-2.7,3.8-6.3,5.2-11,5.2
			c-5,0-10.1,1.3-15.2,0.7c-2.8-0.3-4.7-1.8-6.1-4.2c-0.7-1.5-0.7-3.1-0.4-4.7c1.2-4.2,0.5-8.4,0.4-12.6c-0.1-2.1-1.4-2.3-2.9-2.4
			c-1.3-0.1-2.5-0.4-3.5-1.3C247.7,105.1,247.4,105,247.1,104.9z"/>
		<path class="st126" d="M340,121.1c28.4,0.4,56.8,0.8,85.1,1.3c10.3,0.2,20.6,0.4,30.9,0.6c-0.3,1.5,0.3,2.7,0.9,4
			c-2.1,1.8-4.7,1.4-7.1,1.3c-6.6-0.1-13.2,0-19.8,0c-13.3-0.4-26.7-0.4-40.1-0.7c10.4,0.4,20.8,0.2,31.2,0.6c1.1,0,2.9-0.3,3.1,1.7
			c-1.9,1.8-4.3,1.3-6.6,1.4c-5.5,0.1-10.9,0-16.4,0c-2.3,0-4.6,0-6.4,2c-0.8,0.9-2,1.4-3.1,0.7c-1.8-1.1-3.4-1-5.1,0.1
			c-0.7,0.4-1.8,0.7-2.4,0.2c-3.1-3.2-7.8-2.2-11.3-4.4c-0.2-0.5-0.1-0.9,0.2-1.3c1.8-1.6,3.9-0.5,5.7-0.6c-3.8-1.1-8,0.2-12-0.7
			c-4.7-0.3-9.4-0.2-14.1,0c-1.4,0.1-2.6,0.1-3.4,1.4c-0.8,1-1.9,1.3-3.1,1.3c-2.7-0.2-5-0.6-4.2-4.3
			C342.5,123.9,339.6,123.2,340,121.1z"/>
		<path class="st127" d="M373,129.2c1.6,1.3,3.5,0.6,5.3,0.8c1.1,0.1,2.9-0.1,3.3,0.5c2.5,4,4.9,3.5,7.5,0.2
			c0.2-0.3,1.3-0.3,1.3-0.2c1.7,4.5,3.1,3.2,4.9-0.1c0.3-0.6,2.5-0.4,3.8-0.4c8.4-0.1,16.8-0.1,25.3-0.2c1.1-1.7,2.9-1.8,4.6-1.9
			c8.6-0.2,17.2,0.3,25.8,0.1c0.9,0,1.6,0.3,2.3,0.8c1.3,5.1-0.9,6.3-5.8,6.2c-16.2-0.3-32.5-0.6-48.7,0
			c-18.2,0.7-36.3-0.5-54.5-0.2c-3.1-1.1-5.3-2.5-2.1-5.9c1.1-0.1,2.3,0.1,3.1-1C357,128,365.1,125.5,373,129.2z"/>
		<path class="st128" d="M402.5,145.1c8.2,0.6,16.3,0,24.5-0.2c9,0,18.1,0.1,27.1-0.2c4.4-0.1,5.9,1.1,3.8,5.3
			c-40.2-0.7-80.5-1.4-120.7-2.1c0.6-2.6,2.7-1.2,4.1-1.3c6-0.3,11.9,0.3,17.9-0.4c3.3-0.1,6.6-0.2,9.9-0.3
			c9.2-0.8,18.4-0.1,27.6-0.4C398.6,145.4,400.6,145.8,402.5,145.1z"/>
		<path class="st129" d="M565.9,159c-0.7,3.1-3.1,1.9-4.9,1.9c-14.7,0.1-29.3,0-44,0.1c-12.9,0.1-25.9,0.4-38.8,0.6
			c-0.3,0-0.5-0.3-0.9-0.6c1.5-2.4,3.9-2,6.2-2C511,159,538.4,159,565.9,159L565.9,159z"/>
		<path class="st130" d="M345.9,129.1c-1.2,2.7-0.3,4.5,2.1,5.9c-3.6,0.9-7.1,1.1-10.3-1.3c2.7-4.9,0.5-10.8-4.7-12.4
			c1.3-1.1,2.7-0.7,4.1-0.3c1,0.1,2,0.2,2.9,0.3c1.3,2,6,2.5,2.7,6.6C342.3,128.3,344.6,129,345.9,129.1z"/>
		<path class="st131" d="M456.9,128.9c-9.7,1.4-19.3-0.3-29,0.1c-0.6-1.1,0.4-1.4,1-2c9.3,0,18.6,0.1,27.9,0.1
			C456.9,127.7,456.9,128.3,456.9,128.9z"/>
		<path class="st132" d="M337.1,120.8c-1.4,0.1-2.7,0.2-4.1,0.3c-2.3,0-4.7,0-7,0c-0.8-0.1-1.5-0.3-2.3-0.4c0-0.2,0-0.5,0-0.7
			c4.4,0,8.9,0,13.3,0C337.1,120.3,337.1,120.5,337.1,120.8z"/>
		<path class="st133" d="M310,143c0,3.7,0,7.3,0,11c0,9.6,0,19.3,0,28.9c-2.6-2.4-2.4-6.1-3.7-9c-1.9-4.2-3.9-4.9-7-1.3
			c-1.1,1.3-1.9,3-3.9,1.9s-2.7-2.6-1.8-5c1.4-3.7-0.2-6.7-3.3-8.5c-3.4-1.9-4.3-4.6-4.4-8.1c-0.1-3.6-1.2-5.7-5.1-2.9
			c-1.8,1.2-3.8,1.4-5.6,0.1c-4.8-3.7-10.3-3.3-16-3.3c-4.7,0-9.3-1.7-14.1-2.1c-7.4-0.6-14.7-1.7-21.8,1.9
			c-2.8,1.4-4.3-0.3-4.6-3.2c-0.1-1-1-1.2-1.8-1.3c-0.4-1.6,0.6-2.4,1.9-2.1c6.3,1.5,12.2,1,17.9-2.2c0.9-0.5,2.1-0.7,2.9-0.1
			c4.1,2.7,9.6,0.7,13.4,4.2c0.7,0.7,2.3,1,2.5-0.2c0.6-3.8,3.1-6.5,4.6-9.7c0.4-0.8-0.8-1.8-0.3-2.8c6.6,0.6,13.1-1.3,19.7-1
			c3.4,0.1,4.4-3.1,6.3-5c1.5,1.4,1,3,0.7,4.6c-0.3,2-0.3,3.9,0.1,5.9c1.2,7.3,3.5,8.3,9.6,3.8c1.4-1,2.8-1.5,4.1-0.5
			C303.5,139.1,307.4,140.1,310,143z"/>
		<path class="st134" d="M359.1,146.1c-5.5,1.3-11.1,0.5-16.7,1c-1.8,0.2-3.6-0.4-5.3,0.7c-6.6,0.5-13.3,0.2-19.9-0.2
			c3.1-1.7,6.5-1,9.7-1.2C337.6,145.9,348.3,145.7,359.1,146.1z"/>
		<path class="st133" d="M127.1,147.1c-2-3-4.3-1.3-6,0.1c-4.9,3.9-6.3,4-10.4-0.3c-0.8-0.9-2.3-1.2-2.6-0.5c-2,3.6-6.1,1.8-8.8,3.7
			c-1.4-2.6-0.7-5.4-0.5-8.2c2.8-3.3,6.6-1.5,9.8-1.5c30.1,0.1,60.2,0.1,90.3,0.1c2.8,0,5.7-0.6,8.1,1.6c1.4,4.2,4.9,0.6,7.3,2
			c-0.1,3.4-3.8,2.5-5.5,4.5c6.1,1.5,12.4-0.9,18.2,1.4c-0.2,0.2-0.4,0.4-0.6,0.7c-6.9,1.9-13.9,0.6-20.8,0.9c-1.2,0-2.4,0.1-3.6,0
			c-2.3-0.1-4.6,0.1-6.9,0c-9.8-0.9-19.6,0.1-29.3,0.5c-6.8,0.3-13.6,0.5-19.9-2.9c-2.1-1.1-3-0.4-3.4,1.7c-0.2,1.3-0.4,2.7-1.7,3.4
			c-2.4-0.8-1.7-2.9-1.9-4.6c-0.6-5.2-3.5-6.7-8.2-4.2C129.5,146,128.7,147.3,127.1,147.1z"/>
		<path class="st135" d="M207.1,142c-21.8,0-43.6,0.2-65.4-0.1c-11.2-0.2-22.5,0.5-33.7,0c-2.6-0.1-5.9-2-8.6,0.2
			c-1.2-5.7-0.5-6.5,5.1-6.2c2.3,0.1,4.5,0.5,6.8,0.6c3.7,0.3,7.6,0.9,10.6-2.5c0.8-0.9,2-1,3.2-0.9c4,2.8,8.4,3.4,13.1,3.4
			c15.2-0.1,30.5,0.3,45.7-0.3c9.8,0.5,19.5,0.9,29.2-0.6c0.9,0,1.5,0.5,1.9,1.2c0.9,2.9,0.6,4.9-3.2,4.3c-1.3-0.2-2.6-0.1-3.7,0.8
			C207.7,142,207.4,142,207.1,142z"/>
		<path class="st136" d="M208,142c0.9-1.7,2-2.2,3.9-1.6c2.5,0.9,2.9-0.4,2.1-2.5c0.9-0.8,2.5-0.9,2.4-2.5c0.2-1.2,0.5-2.4,0.8-3.6
			c0.1-0.4,0.4-0.7,0.7-1c0.4-0.2,0.8-0.1,1.1,0.3c0,1.3,0,2.6,0.1,3.9c4.6,3,9.3,3.4,14.1,0.3c1.5-1,3.2-1.7,4.7-2.5
			c3.9-1.5,7-4.3,10.7-6.2c2.1-1,4.1-2.3,6.4-0.5c1.8,0.7,2.6,3.1,5,3c2.3,2.1,3.6,3.9-0.2,6.1c-1.4,0.8-1.9,3.4-2.6,5.2
			c-0.5,1.1,1.8,3-0.9,3.6c-1.9,0.4-3.4-0.8-5-1.5c-4.4-1.7-9-2.8-13.5-4.1c-3.5,5.4-9.8,1.4-14.1,4.2c-1.4,0.9-2.8,0.7-3.9-0.9
			c-1.1-1.8-2.1-1.2-2.8,0.4C214,142,211,142,208,142z"/>
		<path class="st55" d="M241,151c2.3,1.3,4.6,1,7.1,0.5c3.6-0.8,7.3-1.3,10.9,0.5c1.1,2.2,0.3,4.5,0.3,6.8c-0.1,0.1-0.4,0.2-0.4,0.2
			c-4-5.1-9.4-4.2-14.8-3.7c-4.2,0.4-8.3-0.3-12.4-1.2c-2.2-0.5-4.7-0.9-4.7-4.1v-0.1c2,0,4,0.1,6,0.1
			C235.6,151,238.1,152.5,241,151z"/>
		<path class="st133" d="M259,159c0-2.3,0-4.7,0-7c0.7,0,1.3,0,2,0c-1.5,2.8-0.1,6.2-2,9C258.5,160.3,258.4,159.6,259,159z"/>
		<path class="st133" d="M241,151c-3.1,3-5.5,0.6-8-1C235.7,150,238.3,151.4,241,151z"/>
		<path class="st137" d="M683.1,150.2c-1.7-2.1-4.1-0.9-6.1-1.3c0-2.7,0-5.4,0.1-8.1c4.1-0.5,4.2-5,6.9-7l0.1,0.3
			c0,1.3-0.1,2.6-0.1,4c-0.1,7.7-0.1,7.7,8,7.7c6.9,0,13.9,0,20.8,0c5.7,0,6.2,0.8,4.2,6.4l-0.2-0.4c-1.8-2.9-4.5-3.5-7.7-3.5
			c-8.1-0.1-16.2,0.5-24.3-0.3C683.2,147.9,684.8,150.5,683.1,150.2z"/>
		<path class="st59" d="M676,158c0,1.3,0,2.6,0,4c-2.1-4.8-6.9-3.5-10.2-3.8c-19.9-1.6-39.8-1.7-59.7-0.9c-6.6,0.3-13.5-0.6-20,1.7
			l0,0c-2.3-0.1-4.5-0.3-6,2c0-1,0.1-2,0-3c-0.5-3.9,0.9-5.1,4.9-5.1c28.7,0.2,57.5,0.2,86.2,0C675.2,152.8,676.5,154.2,676,158z"/>
		<path class="st119" d="M586,159c25.4,0,50.9,0,77.7,0c-3.6,3.2-7.1,3-9.4,2.7c-9.3-1.4-18.7,1.9-28-0.6c-3.6-0.9-7.2,0.6-10.8,0.9
			c-6.2,0.6-12.2-0.5-18.3-1.3c-2.2-0.3-4.2,0.6-6.3,0.3C589.1,160.7,586.6,162,586,159L586,159z"/>
		<path class="st138" d="M268.9,184.9c-1.1-0.2-2.5-0.9-3.3-0.5c-5.5,2.5-5.3-1.5-4.4-4.3c1.5-4.7-0.3-9.6,1.6-14.2
			c1.5,2.1,3.5,3.5,6.1,4C268.9,174.9,268.9,179.9,268.9,184.9z"/>
		<path class="st139" d="M262.8,163c-3.3-2.2-1.8-5.8-0.8-7.8c0.8-1.6,3.9-3.9,7-2.3c0,3.7,0,7.4,0,11.1c-0.2,0.1-0.4,0.2-0.6,0.2
			c-0.4-0.1-0.8-0.3-1.1-0.6C265.8,162.7,264.3,163.3,262.8,163z"/>
		<path class="st140" d="M268,164c0.3,0,0.6,0,0.9,0c0,1.9,0,3.9,0,5.8c-3.5,0.9-6.2,0.5-6.1-4l0.3,0.1
			C264.8,165.5,267.2,166.8,268,164z"/>
		<path class="st141" d="M674.9,120.9c0.1-1.9,0.4-3.9-0.4-5.7c0.4-0.1,0.8-0.1,1.3-0.2c0.9,0.4,1.1,1.1,1.2,2c2,4.3,2.6,8.7-0.2,13
			c-1.8,5.3-0.4,10.7-0.9,16c-1.6,1.5-3.7,1.4-5.6,1.4c-28.2,0-56.4,0-84.6,0c-6.2,0-6.9-0.8-7.1-7.3c0-1.5,0-3,0.6-4.4
			c2.7-2.9,5.7-4.5,9.9-2.7c3.7,1.6,7.8,0.4,11.7,1.1c8.4,1.3,17,1.1,25.3,0.8c10.1-0.4,20.2,0,30.3,0.1c4.2,0.1,8.3-0.4,12.4-0.5
			c0.7-0.4,1.4-0.6,2.1-0.9c2.6-0.3,3-2,2.7-4.2C673.1,126.4,673.1,123.5,674.9,120.9z"/>
		<path class="st76" d="M674.6,151.8c-30.5,0.1-61,0.1-91.5,0.2c-2.5,0-3.2-1-3.2-3.1c-0.8-1.8,0.2-2.4,1.8-2.5c2.3,0,4.6,0,7,0
			c27.4,0,54.7,0,82.1,0C675.9,146.5,676,146.8,674.6,151.8z"/>
		<path class="st142" d="M674.6,151.8c1.1-4.3-0.8-5.2-4.9-5.2c-28.2,0.2-56.5,0.1-84.7,0.1c-1.9,0-4.6-1.2-5.1,2.2
			c-3.2,0.9-5.7,0.3-7-3c0-1.3,0-2.6,0-4c-1.6-2-1.5-4.1-0.7-6.4c0.2-0.5,0.6-0.8,1.1-0.9c1.7,2.1,3.5,4.2,6.5,4.2
			c0.2,7,0.2,6.9,7.4,7c29.5,0,59.1,0.1,88.6,0.1C675.5,147.9,677.1,150.3,674.6,151.8z"/>
		<path class="st143" d="M676.8,129.9c0.1-4.3,0.1-8.6,0.2-13c2,1.6,4-0.3,5.9,0c1.1,1.1,1.1,2.3,0.2,3.6c-0.2,4.5-0.6,8.9,0.8,13.3
			c-0.3,0.5-1,1.1-0.9,1.6c0.7,4.9-2.4,5.4-6,5.4C676.9,137.2,676.9,133.6,676.8,129.9z"/>
		<path class="st144" d="M683.1,150.2c0.2-2.3,0.8-3.7,3.8-3.6c8.4,0.3,16.8,0.3,25.2,0c4.2-0.2,5.8,1.1,4.8,5.2
			c-10.1,0-20.2,0.1-30.3,0.1C685.1,152,683.4,152.3,683.1,150.2z"/>
		<path class="st127" d="M259,159c0,0.7,0,1.3,0,2c-0.1,0.7-0.1,1.5-0.2,2.2c-1.5-0.1-3-0.1-4.4,0.7c-4.5-0.1-8.7,0.1-13.3,1.5
			c-3.1,1-7.5-0.4-11.3-1.3c-1.2-0.3-2.2-0.6-3.3,0.1c-3.4,1.2-6.7,1.2-10.2-0.1c-3.2-1.2-6.2-0.6-8.3,2.4c1,1.7,3,0.5,4,1.7
			c1.9,2.2,3.5,1.1,5.1-0.5c1-0.1,1.9,0.3,2.8,0.6c3.4,0.8,6.8,0.5,10.2,0c2.1-0.3,4.2-0.4,6.2,0.6c3.1,2.4,5.9,1,8.7-0.7
			c1-0.3,1.9-0.4,2.9-0.4c1.3,0,2.6,0.1,3.8,0.7c0.9,0.6,1.5,1.4,1.6,2.5c-0.7,2.7-2.9,3.4-5,2.9c-4.5-1-8.9,0.2-13.3,0.8
			c-1.9,0.2-3.6-0.1-5.3-0.7c-3.8-1.2-7,0.5-8.1,4.1c-1,3.3-3.9,4.7-7,3.4c-2.2-0.9-4.3-2.1-5.2-4.4c-0.9-2.3-2.7-3.7-4.6-5
			c0-1,0-2,0-2.9c-2.1-6.3-2.5-12.7,0.1-19c7.3,0,14.6,0,22,0c3.3,4.4,8.4,3.2,12.8,3.8c3.4,0.5,6.9,0,10.3-0.5
			C254.3,152.6,258.2,153.8,259,159z"/>
		<path class="st145" d="M252,169c-1.3-0.1-2.6-0.2-3.9-0.2c-2.3-3.5-2-4.4,1.7-4.9c1.7-0.2,3.5,0,5.1-1c1.4-2.5,2.7-1.6,3.9,0.2
			c0.6,1.3-0.2,2.5-0.3,3.8C257.8,172,254.3,168.6,252,169z"/>
		<path class="st146" d="M252,169c1.2-1.5,2.6-1,4.1-0.5s2.2-0.2,2.4-1.5c1.1,1.2,0.4,2.7,0.6,4.1c-0.1,0.3-0.1,0.6-0.1,0.9
			c-2.5,2.8-4.2,0.5-6-1C252.7,170.3,252.4,169.6,252,169z"/>
		<path class="st147" d="M268,164c0,1.4,0,2.8,0,4.8c-2-1.2-3.4-2-4.9-2.8c0-0.6,0-1.3,0.1-1.9C264.8,162.7,266.4,163.4,268,164
			L268,164z"/>
		<path class="st140" d="M268,164c-1.6,1.4-3.2,0.1-4.8,0c-0.1-0.3-0.2-0.7-0.4-1C264.7,162.6,267.2,158.8,268,164z"/>
		<path class="st148" d="M124.1,134c-4.6,5.2-10.3,4.4-16.4,3.4c-2.1-0.4-4.3-0.7-6.3-0.8c-2.5-0.2-2.4,3.3-2.2,5.6
			c0,2.6,0.1,5.3,0.1,7.9c-0.1,3.4-0.3,6.8-0.4,10.2c-1.5-8-0.1-16.1-1.1-24.1c1.7-1,1.1-2.8,1.3-4.2c1.4-4.9,1.6-10,2-15
			c0.1-1.7-0.7-3.7,2.1-5.8c-1,6.8,1.9,12.5,0.5,18.5c-0.3,1.2-0.6,2.6,0.9,2.8c1.9,0.3,1.3-1.5,1.4-2.5c0.3-2.1-0.5-4.3,1.4-7.7
			c-0.8,4.9,3.1,5.5,4,8.5c0.4,1.3,3.5,3.7,5.7,0.4c1.5-0.3,2.9-0.8,3.9-2.1c-1.2-3.3-0.3-6.6,0.1-9.9c1.4,0.6,2.3,1.6,2.9,2.9
			C123.4,126,125.1,130,124.1,134z"/>
		<path class="st149" d="M127,172c-0.3-1-0.2-2.5-1.9-1c-0.8,2.5-1.7,4.6-4.9,2.9c-2.2-1.2-5.4,1.2-7.2-1.9l0,0
			c-0.3-3.3-2.6-7.5,3.6-7.7c0.6,0,1.2-0.8,1-1.5c-0.2-0.9-1.1-1.3-1.9-1.3c-3.5,0.1-3.8-1.8-2.7-4.5c0.4-0.3,0.8-0.6,1.2-0.9
			c1,0,2,0,3,0.1c2.5,0.1,5.2-0.5,7.3,0.5c3.1,1.4,0,4.4,0.7,6.7c0.2,0.8,0.4,1.5,1.4,2.1c0.2-0.9,0.3-1.7,0.5-2.4
			c1.4,1.5,4.1-1.4,5.1,1.4c0.6,1.3,1.9,1.8,2.6,2.9c1.2,4.9-1.9,3.7-4.5,3.2C128.5,169.4,128.8,172.9,127,172z"/>
		<path class="st150" d="M130.1,168.9c1,1.3,2.4,1.3,3.6,0.9c1.7-0.6,0.1-2,0.4-3c-0.1-2.1-1.6-1.7-2.9-1.7c-0.2-3-3.8,0.5-4.1-2.2
			c0.1-2.7,0.1-5.3,0.2-8c0.8-2,2.6-2.9,4.2-4c1-0.7,2.9-0.9,3,0.1c0.5,3.9,5,3.4,6.4,6.2c0.7,2.6,1.1,5.2-0.5,7.6
			c-0.3,0.4-0.9,1.1-0.8,1.1c2.3,1.1,1.9,3,1,4.4c-1.2,1.7-3.2,2.9-5.1,3.8c-3.3,1.5-6.8-1.2-6.5-4.8
			C128.9,168.9,129.6,168.9,130.1,168.9z"/>
		<path class="st12" d="M140,157c-2-1.4-5.6-0.8-5.7-4.9c0-1.2-2-1.2-2.7,0c-1,1.8-3,1.8-4.4,2.8c0-2.6-0.1-5.2-0.1-7.9
			c1.4-1.6,2.1-3.6,4.7-4.1c6.5-1.1,8.2,0.2,8.3,7c0,1.3,0.1,2.6,0.1,4c0.6,0.5,0.7,1.2,0.6,1.9C140.6,156.3,140.4,156.7,140,157z"
			/>
		<path class="st107" d="M113.1,157c-0.3,2.3,0.1,3.8,3.1,3.1c1.7-0.3,3.3,1,3.4,2.8c0.1,1.5-1.3,2.8-2.5,2.7
			c-5.9-0.7-3.7,3.6-4.1,6.3c-0.3,0-0.6,0-0.9-0.1C112.5,166.9,111.3,161.9,113.1,157z"/>
		<path class="st151" d="M107,165.9c3.4,1.5,2.6,3.5,0.8,6C106.3,169.8,107.3,167.8,107,165.9L107,165.9z"/>
		<path class="st152" d="M332.9,60.9c0.1-1.9,0.2-3.9,0.2-5.8c0.6,0,1.2,0,1.8,0c0,2,0,4,0,6C334.2,61.1,333.5,61,332.9,60.9z"/>
		<path class="st6" d="M433,101.9c8.3,0.4,16.6,0.4,24.9-0.1c-0.3,0.4-0.5,0.8-0.8,1.2c-22.4,0-44.9-0.1-67.3-0.1
			c-2.7,0-5.3-0.2-7.8-1.1c0-0.3,0-0.6,0.1-0.9c13.8,1.4,27.7,1,41.6,0.6C426.7,101.6,429.9,101.8,433,101.9z"/>
		<path class="st153" d="M323.2,88.9c2.5,2.6,5,5.1,8.8,2c0.7,3.5-0.9,6.4-2.9,9.1c-3.6,0.5-5.8-1.8-8-4
			C321.5,93.6,321.4,90.9,323.2,88.9z"/>
		<path class="st154" d="M308.8,103.1c-3.7,4.5-8,7.4-14.2,6.1c-1.9-0.4-3.9-0.2-5.9-0.2c-2.2,0-2.9-1.1-2.6-3.1
			c2.9-2.7,6.4-1.7,9.8-1.6c-2.6-1.1-6,1.1-8.1-2C294.9,102.2,301.9,100.8,308.8,103.1z"/>
		<path class="st17" d="M275,101c1.2-2.7,2.3-5.4,2.4-8.4c0.6,0.1,1.1,0.1,1.2,0.3c2,7.3,2,7.3,9.8,7.2c3.3-0.1,6.6,0,9.9,0
			c6.3,0,7.1-0.7,7.9-6.8c0.1-0.8,0.6-1.5,0.9-2.2c0,1.5,0,3,0,4.4c0.2,4-1.7,5.8-5.7,5.6c-7.5-0.5-15.1,1-22.6-0.9
			C277.4,99.8,276.2,100.5,275,101z"/>
		<path class="st155" d="M287.9,102.2c3.3,1.5,6.7,0.4,10.1,0.6c1.1,0.1,2,0.2,2,1.5c0,1.4-0.9,1.3-2,1.3c-4-0.1-7.9-0.7-11.8,0.3
			c-0.3-1.3-0.4-2.5,0.2-3.8C286.8,102.2,287.3,102.2,287.9,102.2z"/>
		<path class="st156" d="M312,89c0,5.3-0.1,10.7-0.1,16c-1.5-4.6-4.1-8.9-3.9-14c1.4,0.6,0.5,2.9,2.4,3.2
			C311.8,92.7,310.1,90.3,312,89z"/>
		<path class="st157" d="M470.2,139.1c-0.1-0.7-0.2-1.5-0.3-2.2c-0.5-0.7-0.4-1.5,0-2.2c1.8-1.3,4-1.1,6.1-1.6
			c3.1-0.5,6.2-0.6,9.3-0.2c4,0.6,7.9,0.5,11.9,0.4c23.9-0.3,47.7,0.6,71.6-0.5c1,0,2,0.1,2.9,0.6c1.9,3,0.7,4.8-2.2,6.2
			c-2.4,1.2-4.9,1.8-7.7,1.8c-5.6,0.1-11.3-0.7-16.8,0.4c-8.6,0-17.3-0.2-25.9-0.3c-9.1-0.1-18.2-0.4-27.3-0.8
			c-4.6-0.2-8.9,1.6-13.4,1.6C475,142.4,472,142.2,470.2,139.1z"/>
		<path class="st158" d="M544.9,142c5.7-2.2,11.6-0.5,17.5-1c4.3-0.3,9.2-3.9,9.5-7.1c-0.9-0.9-1.1-2.1-1.4-3.2
			c-1.3-2.3-3.7-2.9-5.7-4.1c-16.3-0.5-32.6-0.1-48.9-0.3c-2.4,0-5,0.4-6.8-1.6c0.8-1.9,2.4-2.1,3.8-2.1c11.2-0.4,22.3-2.9,33.6-2.1
			c8.1,0.6,16.3-0.1,24.5,0.2c0.3,0.1,0.6,0.1,0.9,0.2c0.4,0,0.8,0,1.1,0c1.1,4.7,2.7,9.4,0.1,14c0,2.3-0.1,4.7-0.1,7
			C563.6,142,554.3,142,544.9,142z"/>
		<path class="st159" d="M470.1,135c-0.1,0.6-0.2,1.2-0.3,1.9c-1.1,0.8-1.8,0.5-1.8-0.9c0-2.3,0-4.5,0.1-6.8
			c0.4-1.2,0.4-2.7,2.3-2.7c2.1,0.5,5.1-0.3,4.9,3.4C473.2,131.2,471,132.5,470.1,135z"/>
		<path class="st23" d="M469.9,127.1c-0.6,0.7-1.2,1.4-1.7,2.1c0-4.1,0-8.2-0.1-12.4c0.3,0.1,0.6,0.1,0.9,0.2
			c0.3-0.5,0.7-0.5,1.1-0.2l-0.2,0.3c0.7,1.4,0.3,3.1,0.9,4.5c0.2,0.9,0.3,1.9,0.3,2.9C471,125.5,470.8,126.5,469.9,127.1z"/>
		<path class="st78" d="M470.1,121.1c-1.8-1.3-0.9-2.7-0.1-4.1c4.3-0.4,8.6-0.9,12.9-1.3c27.9-0.1,55.8-0.1,83.8-0.3
			c4.3,0,6.3,0.8,5.2,5.4l0.1,0.1c-2.9,1.1-5.9,0.5-8.9,0.5c-9.5,0.1-19-0.4-28.5,0.1c-18.9,1.1-37.9,1.1-56.8,1
			C475.1,122.6,472.4,123,470.1,121.1z"/>
		<path class="st79" d="M470.1,116.8c-0.4,0.1-0.8,0.1-1.1,0.2c0.2-4.7-0.4-9.4,1-13.9c0.4,0.8-0.8,2.7,1.4,2.2
			c1.7-0.4,2.8,0.2,3.5,1.7C467.8,107.6,470.4,112.8,470.1,116.8z"/>
		<path class="st160" d="M476,107c4.4-1.1,8.8-2.6,12.9,0.9C484.5,108.5,480.3,107.2,476,107z"/>
		<path class="st161" d="M683.1,120.6c-0.1-1.2-0.1-2.4-0.2-3.6c0.6-0.9,1.5-1.3,2.6-1.3c10.5,0.1,20.9,0.2,31.4,0.3
			c0.6,3.6-0.4,5.2-4.6,5C702.6,120.6,692.8,120.7,683.1,120.6z"/>
		<path class="st162" d="M715.7,129.3v0.4c-8.4,1.1-16.8,0.3-25.2-0.1C698.9,128.5,707.3,127.9,715.7,129.3z"/>
		<path class="st163" d="M690.2,103.7c-0.5-2.8,1.7-1.9,2.9-1.9c7.2,0,14.5,0.2,21.7,0.3c-0.6,2.5-2.5,1.6-4,1.6
			C704,103.4,697.1,103.3,690.2,103.7z"/>
		<path class="st161" d="M677.9,113c1.5-5.8,3.2,0.1,4.7,0c0.2,1.8-0.8,1.4-1.7,0.8C680,113.1,679.1,112.4,677.9,113z"/>
		<path class="st164" d="M587,102c11.1-0.1,22.1-0.3,33.2-0.3c16.9,0.1,33.7,0.3,50.6,0.4c-3,2.7-6.9,1.5-10.2,1.5
			c-19.9,0.2-39.9,0.2-59.8-0.2C596.2,103.5,591.3,105,587,102z"/>
		<path class="st165" d="M573,134.9c0-4.7,0-9.4-0.1-14c0-1.3,0-2.5,0-3.8c0.3,0,0.5,0,0.8,0c0.1,2,0.3,4,0.4,6.2
			c2.6,0,2.8-4.2,5.7-3.2c1.8-0.7,3.6-0.6,5.4-0.6c27,0,53.9,0,80.9,0c2.6,0,5.4-0.4,7.7,1.3c-0.1,0.2-0.1,0.3-0.1,0.5
			c-1.3,3-4.1,2.3-6.4,2.3c-12.6,0.1-25.2,0.1-37.8-0.1c-13.5,0.1-27.1,0-40.6,0c-1.5,0-3.2-0.5-4.4,0.3c-1.2,0.8,0.6,0.9,0.9,1.5
			c1.6,0.9,1.7,3.3,3.9,3.5c26.8-0.2,53.5-0.3,80.3,0c0.6,0.1,1.2,0.3,1.7,0.6c1.7,1.7,0.8,3.3-0.3,4.8c-0.4,0.3-0.8,0.6-1.2,0.9
			c-23.3-0.1-46.7,0.4-70-0.1c-4.6-0.4-9.3,0.8-13.9-1.5c-1.4-0.7-4,1-6,1.6c-2.3-1.8-0.3-6-3.9-7.4c-1.9,2.2,0.1,5.5-2.3,7.4
			C573.6,135,573.3,135,573,134.9z"/>
		<path class="st166" d="M673.9,120.7c-28.1,0.1-56.3,0.2-84.4,0.2c-3.2,0-6.6,1-9.7-0.9c0.1-1.3,0.1-2.7,0.2-4
			c29.7,0,59.5,0.1,89.2,0C673.2,115.9,674.5,117.1,673.9,120.7z"/>
		<path class="st167" d="M628.9,122.1c13.2,0,26.4,0,39.7-0.1c1.8,0,3.7,0.6,5.2-0.7c0.4-0.1,0.7-0.2,1.1-0.4
			c0.2,3.6-0.7,7.1,0,10.7c0.6,3-0.9,4-3.7,2.6c-0.4-1.5,0-2.9,0.8-4.2c-1.1-1-2.4-1-3.7-1c-24.3-1.1-48.6-2.1-72.9-1.5
			c-2.6,0.1-5.3,0.3-7.8-0.8c-1.4-2.6,0.9-2.6,2.2-2.8c2.9-0.5,5.9-0.3,8.9-0.3c9.6,0,19.2-0.1,28.8,0.1
			C628.9,123.7,629.4,123.5,628.9,122.1z"/>
		<path class="st168" d="M71.1,132.9c4.4-3.9,10.1-2.2,15.1-3.6c0,0.6-0.1,1.2-0.1,1.9c-3.3,3.5-8.8,4.7-10.1,10.6
			C72.3,139.5,72.4,135.8,71.1,132.9z"/>
		<path class="st169" d="M273,92c-7.5-0.4-14.7,0.5-21.2,4.6c-1.1-1.7-0.6-3.2-0.8-4.7c7.3-0.9,14.5-3.1,22-2c0.3,0.3,0.5,0.6,0.5,1
			C273.5,91.5,273.3,91.8,273,92z"/>
		<path class="st26" d="M273.2,90.8c-0.1-0.3-0.1-0.5-0.2-0.8c0-2,0-4,0.1-6c1.8,0.8-0.1,4.3,3,4C275.8,89.7,276.4,92.2,273.2,90.8z
			"/>
		<path class="st123" d="M273.2,90.8c1.8,0,2.2-1.6,2.8-2.8c0.3-0.4,0.6-0.8,0.9-1.1c0.5,1.8-0.1,3.5-0.9,5c-1,1-1.9,2.6-3,0.1
			C273,91.6,273.1,91.2,273.2,90.8z"/>
		<path class="st170" d="M255.1,126c-3.7-0.7-6.6,1.5-9,3.4c-2.5,2-5.4,2.9-8,4.6c-1.4-1.4-1.3-3.1-0.8-4.7c0.9-3.2-0.2-5.9-2.2-8.3
			c-1,0-1.9,0-2.9,0c5-2.3,4.3-6.2,3.2-10.4c2.2,0.6,1.8,3,3.8,3.9c0.4-5.5,10.4-1.7,8.9-9.4c1.3,0,2.7,0,4-0.1
			c2.6,1.5,1.3,3.2,0.3,5c-1.6,2.8-4.7,4.7-5.4,8.6c3.3-0.6,7.1-2.8,8.3,2.4C255.1,122.7,255.1,124.3,255.1,126z"/>
		<path class="st171" d="M235,121c4,0.6,4.5,3.5,3.8,6.7c-0.4,2.1-1,4.1-0.8,6.3c-1.9,1-3.7,2-5.6,3.1c-5.2,2.8-11.2,1.9-13.3-2.1
			c4.6,1.4,6.8-3.4,10.7-4C235.9,130,233.6,124.5,235,121z"/>
		<path class="st171" d="M219,131c-0.3,0-0.6,0-1,0c-3-4.2-1.5-8.7-0.9-13.1c0.7-2,0.4-4.2,0.6-6.3c0.2-1.5-0.1-3.4,2.2-3.6
			c0,4,0.1,7.9,0.1,11.9C220.2,123.7,219.9,127.4,219,131z"/>
		<path class="st172" d="M224.9,116.7c-2.4-0.9-1.7-3.2-2.2-6.3c-0.5,2.5-0.7,3.5-0.9,4.6c-0.6-2.7-2.3-6.4,3.2-4.9
			C225,112.3,224.9,114.5,224.9,116.7z"/>
		<path class="st173" d="M139,113c-1.5-6-1.5-5.7,4.5-5.4c3.8,0.2,7.7,0.8,11.5-0.7c2.7,0.6,5.9-0.6,8,2.1c2.8,4.3,4.9,4.5,7.9,0.7
			c-2.7-0.6-5.8,2.8-8-0.9c0.2-2.6,1.7-3.4,4.1-2.8c2.1,0,4.3,1,6-1c1.8,2.4,5,0.2,7,2c1.8,3.1,2.5,3.2,4,0.9c1.2-3.1,3.5-2.8,6-2
			c0.3,0,0.6,0.1,0.9,0.1c0.3,1.4,2.1,2.2,1.5,4c-0.3,0.6-0.7,1.1-1.3,1.5c-1.2,0.6-2.1,1.5-2.7,2.7c-0.9,1.8-1.3,3.7-4.1,3.6
			c-9.8-0.5-19.6-0.1-29.3,0.8c-4.5-0.3-8.3-3.4-13-2.6C140.6,116.2,139.8,114.2,139,113z"/>
		<path class="st43" d="M193,107c1.1-1.8,2.2-3.6,3.3-5.4c-1.1-0.6-2.7,0.7-3.7-1.6c5.9,0.4,11.6-2.4,17.3,0.1
			c2.3,0.7,4.4,1.8,6.6,2.7c2.2,1,2.8,2.5,1.5,4.7c-0.6,0.5-1.2,0.8-2,1c-3.1,1-6.4,1-9.6,1.6c-2.6-0.5-5.1-1.7-7.8-0.5
			C196.8,108.7,194.7,108.5,193,107z"/>
		<path class="st43" d="M190,106c-2,0.8-4.3,0.6-6,2c-0.9-0.5-2-1.1-1.6-2.2c0.7-2.3,0.2-3-2.3-2.5c-2.4,0.4-3.2-1.2-3-3.3
			c0.2-2.3,1.8-3.7,3.7-2.7c2.6,1.3,4.9,2.3,7.9,1.9c1.2-0.2,1.9,1.5,1,2C186.1,103.4,189.3,104.5,190,106z"/>
		<path class="st174" d="M193,107c2.3-0.1,4.6-0.1,6.1,2.1c-0.1,1.6,0.6,2.7,2.5,4.2c0.7,0.5,0.9,1.4,0.6,2.2
			c-3.4,3.9-7.5,3.4-11.8,2.2c-0.4-0.3-0.7-0.7-0.8-1.3c0-1,0.5-1.9,1.2-2.6c3.2-0.4,2-2.2,1.2-3.9c0.3-1.5-3.1-1.9-1.1-3.9
			C191.7,106.4,192.3,106.7,193,107z"/>
		<path class="st175" d="M218,107c0.1-1.3,0.2-3.4-1.2-3.2c-3.5,0.6-4.6-2.5-6.8-3.8c2.9-1.1,6.6,2.6,10-1.5c0,3.2,0,6.4,0,9.5
			c-2.2,3,0.5,7-1.8,10c-0.2-0.2-0.4-0.4-0.6-0.5c-0.5-0.7-0.7-1.5-0.8-2.4C216.9,112.4,216,109.5,218,107z"/>
		<path class="st176" d="M124.1,134c-1.1-4-2.6-8,0-12c3.4,7.6,9.9,10.3,18.7,9.2c4.6-0.6,9.4-2.2,14.2,1c2.7,1.8,6.6,0.3,9.8-0.5
			c1.5-0.4,2.8-0.7,4.3-0.7c3.2,1.8,6.5,3.5,10.3,1.5c0.7-0.4,1.7-0.2,2.4,0.2c4.9,2.1,9.1,0.7,12.9-2.5c4.6-1.1,9.2-2.1,12.9,2.2
			c0.6,3.2-1.5,3.7-3.9,3.6c-7.3-0.2-14.4,1.5-21.7,1.1c-1.6,1-3.5,1-5.3,1c-15.9,0-31.9-0.2-47.8,0.1
			C127.3,138.1,127.2,133.8,124.1,134z"/>
		<path class="st177" d="M209,131.9c-3.9-1.4-7.9-1.8-11.9-0.9c-2.8,0.3-3.8-1.7-4.3-3.8c-0.6-2.5,0.9-5,3.2-4.1
			c3.4,1.3,6.4-0.1,9.1-0.4c-1.5-0.1-3.6,1-5.4-0.2c-2.5-1.7-4.4-0.5-6.2,1.1c-2.3,2.1-4.8,2.7-7.8,1.5c-1.6-0.7-3.2-0.4-4.9-0.3
			c-1.5,0.1-3.5,0.9-3.7-1.8c2-0.1,3.1-1.4,4-3c2.1-3.8,5.8-2.5,9-2.9c4.1,0.2,8.3,0.8,12-1.9c0.7,0,1.3,0.4,1.8,0.8
			c1.7,2.3,3.7,0.6,5.5,0.3c0.9-0.2,1.8-0.2,2.7,0.1c1.7,1.6,4.2,0.4,6,1.6l0.2,0.1c-0.5,4.3-0.7,8.6-0.1,12.9l0,0
			c-1,1.7-2.5,2.2-4.2,1.3C212.2,131.4,210.6,131.6,209,131.9z"/>
		<path class="st178" d="M177.1,123c0.8,1.1,2,1.1,3.1,0.8c1-0.2,2.2-1,2.8-0.7c5.6,3.3,9.6,0.4,13.5-3.2c0.4-0.4,1.7-0.5,1.8-0.3
			c1.9,4.2,5.9,1.7,8.8,3c-3.8-0.2-6.4,6.4-11.2,1.4c-1-1.1-2.9,1-2.3,3c0.6,1.8,1.7,3.2,3.5,4.1c-0.4,0.5-0.7,1.2-1.2,1.5
			c-7,4.4-14.5,1.2-21.8,1.4c-1.2,0-2.9-1-2.9-2.9c-0.5-1.8,6.5-2.3,0.8-4.9C173.7,125.3,173.8,121.4,177.1,123z"/>
		<path class="st179" d="M190,117c-3,1-6.3,0.9-9,2.9c-3.7-0.7-7.5-0.2-11.1-1.5c-1.5-0.5-3.4-1.5-3.6,1.4c0,0.3-0.3,0.7-0.5,0.7
			c-5.9-0.8-12.3,3.6-17.9-1.6c1.8-4,4.8,0,7-1.1c3.7-0.3,7.1-2.5,11-1.1c5,1.9,9.8-1.8,14.9-0.6c1.4,0.3,3.4,0.6,5.2,0.6
			c2.3-0.1-1.9-4,1.8-2.7c1.3,0.1,1.9,0.8,2.1,2C190,116.4,190,116.7,190,117z"/>
		<path class="st180" d="M155,117.9c-2,2.5-5-1.4-7,1.1c-2.7-0.1-5.5,0-8.1-0.4c-1.9-0.3-3.7-1.2-3.9-3.6c1.4-0.1,2.5-0.7,3-2
			c2.9,2.3,6.9,0.6,10.1,2.7C150.7,116.7,153.1,117.1,155,117.9z"/>
		<path class="st173" d="M129.1,107c1.1,0.5,3.3-1.3,3.3,1.5c0,0.8,0.5,1.3,1.2,0.7c0.8-0.7,1-4.1,2.6-0.4c1,2.3,0.8,3.9-2.1,4.2
			c-1.4,1.5-2.5,3.4-5,2.9c-0.3-0.7-0.5-1.4-0.8-2.1c1.4-1.8,1.9-3.7,0.8-5.9C129.1,107.7,129.1,107.4,129.1,107z"/>
		<path class="st181" d="M129.1,108c2.9,2.6,2.8,3.8-0.8,5.9c-0.1-0.3-0.2-0.6-0.4-0.9C125.9,110.8,129,109.8,129.1,108z"/>
		<path class="st180" d="M129.1,116c1.8-0.7,2.6-3.1,5-2.9c0.7,0.7,1.3,1.3,2,2C133.7,115.4,131.8,118.9,129.1,116z"/>
		<path class="st182" d="M124.1,113.1c0.7,0,1.3,0,2-0.1c0.5,1.1,1.7,2.2,0.4,3.4c-0.6,0.6-1.5,0.4-2.2,0
			C122.7,115.4,123.5,114.2,124.1,113.1z"/>
		<path class="st183" d="M113.1,114.9c-0.6-1.1-1.5-2.2-1.7-3.4c-0.1-0.8,0.6-1.9,1.7-2.1c1.2-0.2,0.8,1.1,1.2,1.7
			C113.8,112.3,115.2,114.1,113.1,114.9z"/>
		<path class="st176" d="M121.1,129c-0.2,2.7-0.7,4.8-3.9,2.1c0-0.3-0.2-0.7-0.1-1c0.4-1.5-1.6-3.7,0.3-4.5c2.4-1,0.9,2.7,2.7,3.1
			C120.4,128.8,120.7,128.9,121.1,129z"/>
		<path class="st43" d="M163,109c-2.4-1.6-6,1.4-8-2c-1.9-1.2-3.7-2.5-5.9-3.9c2.3-1.5,4.5-1,6.7-0.6c2,0.3,4.1,0.9,6-0.5
			c1.1-0.8,2.4-2.3,3.9-1.1c1.6,1.3,2.2,3.2,1.4,5.3C165.6,106.9,163.8,107.2,163,109L163,109z"/>
		<path class="st43" d="M180,107c-0.5,0-1-0.1-1.5,0c-2.3,0.6-4.7,1.4-5.5-2c2.5-1.2,4.9,0.1,7.3,0.5
			C180.9,105.6,180.5,106.6,180,107z"/>
		<path class="st184" d="M140,157c0-0.4,0.1-0.7,0.1-1.1c1.8-1.5,4-1.5,6.1-1.5c13.6,0,27.1-0.1,40.7,0c2.1,0,4.3-0.1,6.1,1.5
			c-0.2,3-2.7,2.3-4.3,2.4c-5.4,0.3-10.8,0-16.2,0.2c-1.5,0-3.3-0.9-4.4,1c0.1,1.4,1.2,2.4,1.3,3.7c-0.5,2.1-5.3,2.9-2,6.2
			c0.4,0.1,0.8,0.4,1.1,0.7c0.2,0.4,0.3,0.8,0.4,1.3c0,0.7-0.2,1.4-0.7,2c-1.3,0.9-2.5,1.7-4.1,0.5c0-3.3,0-6.5,0-10.2
			c-1.6,1.5-0.6,3-1.1,4.3c-1.3,0-1.6-0.9-1.9-1.9c-1-2.5,1.1-5.4-1.1-7.7c-4-0.3-8,0.1-12-0.1c-3.6-0.2-4.6,1.6-4.4,4.9
			c0.3,7.2,1.2,8.2,8.7,7.2c3.6-0.5,6.9-0.9,9.9,1.6c0,1.8-0.1,3.6-0.1,5.5c0,1.3-0.5,2.6-1.9,2.3c-4.3-0.8-8.2,1.3-12.7,0.6
			c-4.9-0.7-7.3-1.9-6.3-7c0-0.1-0.1-0.3-0.2-0.3c-0.7-0.1-0.6,0.5-0.7,0.9c-1.4,2.1,0.3,4.8-1.5,7c-2.8,3.4-5.8,4.1-11.5,2
			c0-3.7,0-7.3,0-11c1.2-0.7,0.8-2,1.1-3.1c0.6-2.2,1.3-1,1.9,0c-1.9,2.8,1.1,3.3,2.3,4.4c1.4,1.3,2.6-0.2,3.8-1
			C142.1,168.3,139.1,162.2,140,157z"/>
		<path class="st185" d="M195.1,150c2.3,0,4.7,0,7,0c-0.4,4.6,2.5,8.9,1.6,13.5c-0.2,1.2-4.7,2.1-0.3,3.7c0.3,0.7,0.2,1.3-0.2,1.9
			c-0.1,0.6-0.1,1.2-0.2,1.8c-1.3,2.4-3.4,2-5.5,1.6c-5.3-1.1-5.8-0.6-6.1,4.9c-0.1,2,0.1,3.9-1.2,5.6c-1.1,1.3-2.7,0.8-4.1,0.8
			c-0.6-0.4-0.7-1-0.5-1.7c0.3-0.8,1.1-1.2,1.6-1.9c0.2-0.4,0.4-0.7,0.5-1.1c-0.1-2.3,1.3-4.9-1.3-6.7c-2.4-0.6-5.1,0.2-7.4-1.1
			c-0.8-0.8-1.6-1.6-0.7-2.8c3.1-1.7,6.5-0.8,9.7-1c1.5,0.1,3-0.5,4.5-0.4c0.9,0.1,1.8,0.3,2.7,0.3c1.9-0.5,1.9-1.6,0.7-2.8
			c-0.7-0.7-1.5-1.3-1.8-2.3C194.2,158.2,192.6,153.9,195.1,150z"/>
		<path class="st109" d="M190.2,183c0-2.7-0.1-5.3-0.1-8c0.1-4.3,2.4-6,6.4-4.3c2.3,0.9,4.3,1.7,6.6,0.2c-0.3,2.3-0.7,4.5-1,6.8
			c-0.1,1.3-0.6,2.4-2.1,2c-2-0.5-2.9,0.2-2.9,2.1c0,2.2,1.7,2,3.2,2.1c0.6,0,1.3,0.1,1.9,0.7c-2.8,1.1-5.6,4.2-8.1-0.7
			C193,182.5,191.5,183,190.2,183z"/>
		<path class="st186" d="M162.1,172c-5.1-1.5-10.1,0.1-15.2,0c-3,0-4.4-0.7-4.4-4.2c0-10.9-0.2-10.9,11-10.9c2.8,0,5.7,0.1,8.5,0.1
			c-0.6,3.9-3.8,4.1-6.6,4.2c-2.2,0.1-4.1,0.6-6.1,1.6c-2.6,1.3-0.5,2.2,0.1,3.3c0.1,1.2-1.1,2-1.4,3.5c5-0.2,10-3.8,14.1,1.3
			C162.1,171.3,162.1,171.6,162.1,172z"/>
		<path class="st107" d="M113.1,171.9c3,1.6,6.6-1.3,9.7,1.5c1,0.9,1-2.1,2.4-2.4c0,1.3-0.1,2.6-0.1,4c-2.5,0.8,0.2,5.2-4.3,5.2
			C113,180,113,180.4,113.1,171.9z"/>
		<path class="st187" d="M127.1,182.9c3.7-0.5,7.7,1,10.8-2.9c1.6-2,0-4.6,2.2-6.1c0,1.2,0,2.3,0,3.5c-0.1,9-2.4,11.3-11.1,10.3
			C125.8,187.3,127.6,184.6,127.1,182.9z"/>
		<path class="st188" d="M162,170.9c-4.1-2-8.1-1.6-12.3-0.1c-1.2,0.4-3.6,1-4.3-1c-0.7-2.1,2-1.6,2.8-2.7c0.3-0.4,0.5-0.8,0.8-1.2
			c-0.2-0.8,0.3-1.5,0.9-1.4c4,0.8,8.3-0.6,12.1,1.4c0.3,0.7,0.6,1.4,0.9,2C162.6,169,162.3,170,162,170.9z"/>
		<path class="st109" d="M186.1,182c0,0.6,0,1.3,0,1.9c-4,0-8,0.1-12,0.1c-7.6,0-10-2.4-10-10c1.3-0.4,2.6-0.7,3.9-1.1
			c0.4,0.3,0.8,0.6,0.9,1.1c2,6.5,2,6.4,9.2,6.6C180.7,180.6,183.7,179.7,186.1,182z"/>
		<path class="st189" d="M253,170.9c2.1-0.2,3.7,2.5,6,1c0,0.7,0,1.3,0,2c-1.4,3.6,0.3,7.4-0.9,11l0,0c-1.5,1.3-3.3,1.3-5.2,1.3
			c-8.1,0-16.5-0.2-24.1-2.7c-5.4-1.8-9.5-0.1-14,1.3c-2.1,0.6-4.1,1.7-6.2,1.1c-2.4-0.7-5-1.5-3.6-5c0-3,0-6,0-9
			c2.8-0.2,4.6,0.3,5.2,3.8c0.5,3.1,3.7,4.4,6.3,5c3.7,1,5.3-3.2,3.2-8.6c2.1,0.5,4.2,3.4,5.9-0.1c0.4-0.7,1.4-1.2,2.2-0.7
			c5.5,3.5,11.1,0.9,16.8,0.4C247.4,171.5,250.5,174.5,253,170.9z"/>
		<path class="st190" d="M205,180.9c1.3,4.1,4.6,5.6,8.2,3.1c4-2.7,8.7-1.7,12.7-3.6c2.6-1.2-0.5,2.1,2.1,2.3
			c10,0.9,19.9,2.6,30,2.3c-0.2,6.2-0.5,5.4-6.7,5.4c-12.1,0.1-24.2-1.5-36.3,0C208.5,191.3,203.3,186.6,205,180.9z"/>
		<path class="st191" d="M202.8,164.3c-1.3-3.7,1.4-8.9-4.3-11.1c0.4-1.9,3.8-0.7,3.5-3.2c1,0,2,0.1,3,0.1c0,6.3,0,12.6-0.1,19
			c-0.6,0-1.2,0.1-1.8,0.1c-0.1-0.7-0.1-1.5-0.2-2.2C202.2,166.1,202.2,165.2,202.8,164.3z"/>
		<path class="st55" d="M258.1,184.9c0.4-3.7-1.2-7.5,0.9-11C258.5,177.6,260.1,181.4,258.1,184.9z"/>
		<path class="st192" d="M310,143c-1.9-0.7-3.9-1.1-5.5-2.1c-3.3-2-5.8-5.7-9.9,0c-2.2,3-7.7-0.4-8.7-4.2c-1.2-4.7-0.4-9.1,0.1-13.7
			c2.3-2.3,5.6-2.2,8.3-3.1c3.8-1.2,8.1-0.6,12.2-0.9c2.6-0.2,3.5,1,3.5,3.5C309.9,129.3,310,136.1,310,143z"/>
		<path class="st53" d="M255.1,121c-2.9-4.3-6.2-1.1-9.3-0.2c-1.7-5.5,3.3-7.6,5.2-11.1c0.9-1.6,2.5-2.7,1-4.7
			c2.5-0.1,4.1,0.5,3.8,3.6C255.4,112.7,257.1,117,255.1,121z"/>
		<path class="st192" d="M317.1,133.9c-1.9,1.4,0.4,5.4-2.6,5.3c-2.9-0.1-2.6-3.8-3-6.1c-0.4-2.1,1.4-3.5,3.4-3.3
			C317,130,316.3,132.3,317.1,133.9z"/>
		<path class="st46" d="M402.5,145.1c-11.1,1.1-22.3,0.8-33.5,0.8c2.6-1.8,5.5-0.8,8.2-0.8C385.6,144.9,394.1,145,402.5,145.1z"/>
		<path class="st193" d="M429,127c-0.3,0.7-0.7,1.3-1,2c-1.3,0.3-2.5,0.6-3.8,0.9c-6.3-1.8-12.8-0.3-19.2-0.8
			c-5.5-0.4-10.9-0.2-16.4-0.2c-1.6,0-3.3,0.2-4.8-2.1C399.2,125.7,414.1,127.8,429,127z"/>
		<path class="st194" d="M373,129.2c-7.9-1.5-16,0.9-23.9-1.1c-1.4-2.7,1-2,2-2c5.3-0.1,10.6,0,16,0c1.5,1.2,3.3,1.5,5.1,1.4
			c1.1-0.1,2,0.2,1.8,1.6C373.7,129.1,373.3,129.1,373,129.2z"/>
		<path class="st195" d="M374,129c-1.3-1.5-3-0.9-4.5-0.9s-2.6-0.3-2.4-2.1c4.6,0.1,9.3,0.3,13.9,0.4c0.9,0,1.7-0.2,1.8,0.9
			c0.1,1.4-0.9,1.6-1.9,1.6C378.6,129.1,376.3,128.2,374,129z"/>
		<path class="st17" d="M195.1,168.9c-0.9,0-1.8-0.1-2.2-1.1c-2.8-3.7-1.9-7.3,0.2-10.9c-1.5-1.7-3.4-0.9-5.1-0.9
			c-15.9-0.1-31.9-0.1-47.8-0.1c0-0.7,0.1-1.3,0.1-2c2.2-2.2-0.8-6,2.1-7.6c3.4-1.8,4.4,3,7.1,3.2c4.7,0.5,9.7,1.9,14.2,1.1
			c8.5-1.5,17.2,0.4,25.7-1.6c1.8-0.4,3.9,0.6,5.8,0.9c0,4.7,0,9.3,0,14C196.5,165.6,195.9,167.3,195.1,168.9z"/>
		<path class="st171" d="M209,131.9c1.2-2.1,2.5-3.4,4.7-0.8c1.4,1.6,2.9,0.7,4.4-0.1c-0.1,1.4,0.5,3-1,4c-0.8,1-1.9,1.1-3,1
			c-1.3,0.6-2.2,2-3.9,2c-8.3-0.1-16.6-0.1-24.9-0.2c-0.4,0-0.8-0.5-1.2-0.8c7.3-1.6,14.7-2.8,22.2-2.3
			C209,134.9,209,133.7,209,131.9z"/>
		<path class="st133" d="M214,135.9c0.7-1.2,1.9-1,3-1c0.4,1,1.5,2.1,0.6,3.2c-1.1,1.3-2.4-0.4-3.6-0.2
			C214,137.3,214,136.6,214,135.9z"/>
		<path class="st167" d="M599.9,135c1.1-1.4,2.8-1.2,4.2-0.9c12.5,2.1,25-0.6,37.5-0.2c3.8,0.1,7.5,0.4,11.3,0.9
			c3.2,0.5,6.6,0.1,9.9-0.7c2.4-0.5,5-0.6,7.3,0.9c-3.6,2.3-7.8,1.4-11.6,1.4c-11-0.1-21.9-0.4-32.9-0.2
			C617.1,136.4,608.3,137.4,599.9,135z"/>
		<path class="st97" d="M573.8,135.1c0-1.8,0-3.6,0.2-5.4c0.2-1.5-1-4,1.1-4.1c2.2-0.2,4.3,1.5,4.7,4.2c0.2,1.8,0.1,3.6,0.2,5.4
			c0,1.3-0.1,2.6-0.1,3.8C576,140.5,573.3,140.4,573.8,135.1z"/>
		<path class="st196" d="M255,162.9c-1.2,1.5-3.1,2-4.7,1.9c-3.7-0.1-2.9,1.8-2.1,3.9c-1,0.1-2.1,0.1-3.1,0.2c-2.8-0.7-5.2,2-8,1
			c-4.3-1.9-8.6,0.7-12.9,0c-1.7-0.3-3.6,0.6-5.1-1c0.8-1.8,1.3-3.5,4.2-2.7c2.7,0.8,3.8-1,2.8-3.3c1.2-1.5,2.7-1.3,3.9-0.4
			c1.7,1.3,3.2,1.6,4.8,0.1c0.7-0.6,1.8-0.8,2.2-0.1c2.4,4,5.4,1.8,7.5,0.2C248.2,159.9,251.5,164,255,162.9z"/>
		<path class="st197" d="M226.1,163c1.1,0.1,3.2-0.4,1.9,1.9c-1,1.8-2.9,4.8-4.3,3.4c-2.6-2.5-3.1,0.9-4.6,0.7c-0.7-0.3-1.3-0.6-2-1
			c-2-1.3-2.9,2.7-5,1c-0.6-0.2-1.2-0.6-1.8-0.7c-1.2-0.1-2.5,2.7-3.6,0.3c-0.8-1.7-0.1-4.1,1.4-4.8c2.7-1.3,5.9-3,8.8-1.2
			C220.1,164.5,223,163.6,226.1,163z"/>
		<path class="st146" d="M237,169.9c2.7-0.5,4.9-4.2,8-1C242.6,171.1,240.2,173.2,237,169.9z"/>
		<path class="st198" d="M212,169c0.6-0.2,1.6-0.4,1.6-0.8c0.9-4.2,2.1-2.1,3.4-0.2c-1.4,0.9,0.9,3.3-1.2,3.5
			C214.3,171.7,212.8,170.6,212,169z"/>
		<path class="st199" d="M120.6,170.5c-1.9-0.8-4.8,0.7-5.3-2.1c-0.3-1.7,2-1.4,3.1-1.5C121.4,166.5,120.1,169,120.6,170.5z"/>
		<path class="st200" d="M131.2,165.1c1-1.4,2-2.7,3.8-1.1c2,1.7-0.7,1.9-1,2.8C132.8,166.7,131.2,167.3,131.2,165.1z"/>
		<path class="st201" d="M117.8,163.1c-0.2,0.9-0.7,1.6-1.7,1.4c-1.1-0.1-1-1.1-1-1.9c0-0.7,0.5-1.4,1.2-1.2
			C117.2,161.5,117.8,162.1,117.8,163.1z"/>
		<path class="st138" d="M470.1,135c-1.3-4.3,1-5.3,4.6-5.2c12.3-0.6,24.5-0.1,36.8-0.3c2.6,0,5.3,0.3,7.9-0.5
			c1.5-0.5,3-0.5,4.5-0.5c14.8,0.1,29.6-0.2,44.4,0.4c1.2,0,2.4,0.1,3.4,1c0,1.3,0,2.6,0.1,3.9c-28,2.4-56.1,0.4-84.2,1
			c-1.3,0-2.5-0.6-3.8-1c-2.6-0.6-5.3-1.5-7.9,0C474.2,135.1,472.2,135.1,470.1,135z"/>
		<path class="st202" d="M476,133.9c2.6-3.9,5.3-0.6,7.9,0C481.3,133.9,478.7,133.9,476,133.9z"/>
		<path class="st203" d="M470.1,121.1c34-0.1,67.9-0.1,101.9-0.2c-1.4,1.7-3.4,1-5.1,1c-9.8,0.1-19.7,0.5-29.4-0.1
			c-9.4-0.6-18,3.9-27.4,1.8c0,0.4,0,0.9,0.1,1.3c10.1,0,20.2,0,30.3,0c7.3,0,14.6,0,22,0c1.6,0,3.4-0.5,4.7,0.9
			c-1.7,1.9-4,1.4-6.1,1.5c-9.6,0.1-19.2,0-28.8,0c-12.5,0-25-0.1-37.5,0c-6.5,0.1-12.9-1.4-19.4-1c-2.1,0.1-3.9-0.8-5.2-2.5
			C470.1,123,470.1,122.1,470.1,121.1z"/>
		<path class="st204" d="M531.9,126c11.7,0,23.4-0.1,35-0.1c0.7,2.5,4.7,1,4.9,4c-1.1,0-2.2-0.1-3.3-0.1c-1.9-0.4-3.8,0.1-5.6-0.7
			c-8.4-0.2-16.9-0.1-25.3-0.1c-1.8,0-3.7,0.3-5.4-0.5C531.4,127.7,531.3,126.9,531.9,126z"/>
		<path class="st205" d="M531.9,126c0,0.6,0,1.2,0,1.8c-1.4,1.6-3.4,1.1-5.1,1.1c-6.6,0.1-13.2-0.1-19.8,0.1
			c-6.7-0.2-13.5-0.1-20.2-0.1c-1.6,0.1-3.2-0.2-4.6,0.1c3.4-0.2,7,0,10.7-0.1c0.5,0,1,0,1.6,0c3.3,0,6.7,0,10,0
			c0.8,0,1.6,0.4,2.5,0.2c3.9-0.4,7.8-0.3,11.7,0c0.6,0.2,1,0.6,1.2,1.1c-3.2,1.4-6.5,0.6-9.8,0.7c-9.7,0.1-19.5,0-29.2,0.1
			c-2.2,0-4.3,0.1-6.2-1.2c-0.1-3.7-3.9-0.8-4.9-2.7c0.1-1.1,0.1-2.1,0.2-3.2c6.9,2,14.1,1.5,21.1,1.8
			C504.7,126.4,518.4,126,531.9,126z"/>
		<path class="st97" d="M586.9,125.8c16.6,0,33.2,0.2,49.8,0.1c10.8,0,21.5,3.1,32.4,1.9c1.5-0.2,2.6,0.4,2.8,2.1
			c-0.3,0-0.6,0-0.9,0c-0.8-0.8-1.9-0.6-2.8-0.5c-19.2,0.5-38.4-0.8-57.6-0.2c-6.5,0.2-13.2,0.5-19.7-0.2c-1.1-0.1-1.9,0.4-2.8,0.8
			c-2.8-0.2-1.9-2.3-2.1-3.9C586.2,125.7,586.5,125.6,586.9,125.8z"/>
		<path class="st206" d="M586.9,125.8c-0.3,0.1-0.6,0.1-1,0.2c-0.7,0-1.3-0.1-2-0.1c-1.7,0-3.7,0.1-3.8-2.2
			c-0.1-2.7,2.3-1.8,3.7-1.8c15,0,30,0.1,45,0.1c1.3,1.8,4,0,5.6,2.7c-2.1,0.1-3.8,0.2-5.5,0.2c-12.3,0-24.6,0-36.8,0.1
			C590.4,125,588.5,124.5,586.9,125.8z"/>
		<path class="st207" d="M588.1,130c3.9-2.9,8.5-1.3,12.7-1.5c9.6-0.5,19.2-0.2,28.7-0.1c13.5,0.1,27.1,0.3,40.6,0.6
			c0.3,0,0.6,0.7,0.9,1C643.4,130,615.7,130,588.1,130z"/>
		<path class="st208" d="M163,109c3.4,1.6,6.3-0.6,9.8-1.5c-0.7,2.4,0.7,5.3-3,5.9C166.4,114,162.2,115.3,163,109L163,109z"/>
		<path class="st209" d="M192,110c1.7,0.7,3.7,1.6,2.8,3.9c-0.9,2.2-2.4,0.6-3.7,0.1c-0.9-0.9-0.8-1.9-0.1-2.9
			C191.4,110.7,191.7,110.3,192,110z"/>
		<path class="st210" d="M191,111c0,1,0.1,2,0.1,2.9c-0.2,0.8-0.1,1.7-1.1,2.1c-0.7-0.7-1.4-1.3-2.1-2
			C187.9,112,188.5,110.5,191,111z"/>
		<path class="st211" d="M206.1,109c3.4-0.7,6.7-1.3,10.1-2c1.4,1.9,0.9,4,0.7,6c-0.1,0.1-0.1,0.4-0.2,0.4
			c-3.6,1.1-7.5,1.2-11.1,2.7c-1.9-1.1-3.6-2.3-3.2-4.9C202.6,109,204.8,109.9,206.1,109z"/>
		<path class="st212" d="M206.1,109c-5.3,2.3-2.3,4.6,0,6.9c-0.2,0.2-0.3,0.3-0.5,0.5c-1,0.5-1.8,0.3-2.6-0.4c-0.3-0.3-0.7-0.7-1-1
			c-0.4-0.5-0.6-1.3-1.1-1.6c-1.4-0.8-3.5,2.3-4.5-0.5c-0.9-2.4,3.1-1.8,2.8-4C201.4,105.3,203.7,108.1,206.1,109z"/>
		<path class="st213" d="M216.1,114c0-2.3,0-4.6,0-6.9c0.6,0,1.3-0.1,1.9-0.1c0.4,3,0.7,5.9-0.1,8.9c-1.1,1-1.8,0.5-2.3-0.6
			C215.5,114.8,215.7,114.3,216.1,114z"/>
		<path class="st174" d="M216.1,115c0.4,0.8,1.1,1,1.9,0.9c0,0.7,0,1.4,0,2.1c-2.1,0.3-4.4,2.3-6-0.9
			C212.3,114.3,214.2,114.7,216.1,115z"/>
		<path class="st114" d="M216.1,115c-1.2,1-3.1,0.6-4,2.1c-1,0-2,0-2.9-0.1c-1.3,0.4-2.6,1.2-3.1-1l0.1-0.1c2.8-3.5,6-4.5,10-1.9
			C216.1,114.3,216.1,114.6,216.1,115z"/>
		<path class="st174" d="M206,116c0.8,1.1,2,0.9,3.1,1c-2.2,0.8-4.8,3.9-6.1-0.9C204,116.1,205,116.1,206,116z"/>
		<path class="st214" d="M193,157c0.1,3.6-1.2,7.3-0.2,10.9c-1.3,0.3-2.6,0.7-3.9,1c-4.1-2.9-8-1.4-12,0.5c-0.9,0.5-1.8,0.5-2.7,0.1
			c-2.6-2.8-5.1-3.8-7.2,0.5c-0.4,1.4-1.3,2.6-1.8,0.4c-0.8-3.3-0.6-6.6,3.8-7.4c0.3-1.6-1.1-2.1-1.9-2.9c-1-0.2-2.1-0.5-1.8-1.8
			c0.3-1.5,1.7-1.3,2.9-1.3C176.4,156.9,184.7,156.9,193,157z"/>
		<path class="st215" d="M162,166c-4.3,1.1-8.7-0.8-13-0.1c-1.3-0.1-2.9-0.3-3.2-1.7c-0.2-1.1,1.3-1.6,2.3-2.2
			c2.2-1.3,4.4-2.4,7.2-1.9c2.5,0.4,4.9-0.8,6.6-3C162,160,162,163,162,166z"/>
		<path class="st68" d="M186.1,182c-4.1,0-8.2-0.3-12.3,0c-4.5,0.4-6.4-1.1-5.7-5.7c0.2-1.1,0-2.3-0.1-3.4c0-0.6,0.1-1.3,0.1-1.9
			c0.6-0.3,1.1-0.2,1.5,0.3c2.4,8.1,2.4,8.1,11.4,8.2c2.4,0,5-0.5,7.1,1.4C187.7,181.8,186.9,181.9,186.1,182z"/>
		<path class="st216" d="M167.1,170c-1.6-3.4,1.4-3.9,3.2-4.5c2.3-0.7,3.4,1.1,3.7,3.3c-1.6,1.8-3.8,1.3-5.9,1.3
			C167.8,170.1,167.4,170.1,167.1,170z"/>
		<path class="st109" d="M168.1,170.2c1.7-1.4,3.8-1.3,5.9-1.3c1,0,2,0,3.1,0.1c0.4-0.3,0.7-0.3,1,0.2c0.4,0.6,0.7,1.1,1.1,1.7
			c-3.3,2.3-6.6,2.1-10,0.2c-0.3,0-0.7,0-1-0.1C168.1,170.7,168.1,170.4,168.1,170.2z"/>
		<path class="st217" d="M167.1,160c1.2,0.1,2.8-0.8,3.4,0.8c0.5,1.1-0.6,1.7-1.5,2.1C167.8,162.4,167,161.5,167.1,160z"/>
		<path class="st218" d="M169.1,171c3.3-0.1,6.6-0.1,10-0.2c3,0.1,5.9,0.1,8.9,0.2c1,3.3,0.8,6.6,0.1,9.9l0,0c-4.7,0-9.3-0.2-14,0.1
			c-3.9,0.3-5.6-1-5.1-5C169.2,174.4,169.1,172.7,169.1,171z"/>
		<path class="st219" d="M178,169.1c-0.3-0.1-0.6-0.1-1-0.2c3.4-4.1,9.3-4.2,11.9-0.1C185.3,169,181.7,169.1,178,169.1z"/>
		<path class="st220" d="M195.1,168.9c-1.5-1.7,0.3-3.3,0-5c1.5-0.7,2.9-1.3,3,1.3C198.2,167.4,198,169.2,195.1,168.9z"/>
		<path class="st221" d="M202.8,164.3c0.1,0.9,0.1,1.7,0.2,2.6c-1,0.6-0.7,3.4-2.4,2.1c-1.3-1-1.1-3.5-0.3-5.1
			C201.3,161.8,202,163.9,202.8,164.3z"/>
		<path class="st68" d="M188,180.9c0-3.3,0-6.6-0.1-9.9C189.7,174.3,189.5,177.6,188,180.9z"/>
		<path class="st222" d="M506.8,128.8c6.2-1.7,12.5-0.3,18.7-0.8c2.1-0.2,4.3-0.1,6.5-0.1c9.1,0.1,18.2,0.1,27.3,0.2
			c1.6,0,3.3-0.5,4.8,0.7c-2.3,1.4-4.8,0.6-7.2,0.7c-10.9,0.3-21.9-0.5-32.8,0.4c-1.4,0.1-2.7,0.2-4.1,0.4l-0.1-0.4
			c-3.9-0.8-7.9-0.1-11.8-0.4C507.5,129.5,507.1,129.3,506.8,128.8z"/>
		<path class="st223" d="M524,129.9c4.1-1.6,8.4-0.8,12.7-0.9c9.1-0.2,18.2-0.2,27.4-0.2c1.5,0.3,3.3-0.7,4.5,1.1
			c-4.9,1-9.8,0.4-14.7,0.4C543.9,130.1,534,130,524,129.9z"/>
		<path class="st224" d="M492.9,129.9c-5.3,0.1-10.6,0.7-15.8-0.8c2.8-1.8,5.9-0.8,8.8-0.9C487.9,129.7,491.2,126.6,492.9,129.9z"/>
		<path class="st222" d="M492.9,129.9c-2-1.8-4.9-0.1-7-1.8c7,0.2,14-1.1,20.9,0.6c0.1,0.1,0.2,0.3,0.4,0.4c0,0.2-0.1,0.4-0.1,0.6
			c-0.7,0-1.4,0.1-2.1,0.1c-3.7-0.8-7.3-0.8-11,0C493.6,130,493.2,129.9,492.9,129.9z"/>
		<path class="st225" d="M507.1,129.8c0-0.2,0-0.4,0.1-0.6c4.3-0.1,8.5-1,12.7,0.6C515.6,129.8,511.4,129.8,507.1,129.8z"/>
		<path class="st224" d="M494,130c3.7-1.5,7.3-2,11,0C501.3,130,497.6,130,494,130z"/>
		<path class="st135" d="M185.8,161.9c-0.2,0.8-1,1-1.8,0.8s-1.6-0.7-1.4-1.7c0.2-1.1,1.1-1.1,1.9-1
			C185.4,160.1,186,160.6,185.8,161.9z"/>
	</g>
</g>
</svg>
