<?xml version="1.0" encoding="utf-8"?>
<!-- Generator: Adobe Illustrator 25.0.0, SVG Export Plug-In . SVG Version: 6.00 Build 0)  -->
<svg version="1.1" xmlns="http://www.w3.org/2000/svg" xmlns:xlink="http://www.w3.org/1999/xlink" x="0px" y="0px"
	 viewBox="0 0 591 161" style="enable-background:new 0 0 591 161;" xml:space="preserve">
<style type="text/css">
	.st0{display:none;}
	.st1{display:inline;fill:#00F900;stroke:#000000;stroke-miterlimit:10;}
	.st2{fill:#282B2B;}
	.st3{fill:#9B9F9F;}
	.st4{fill:#ACADAC;}
	.st5{fill:#F0F4F5;}
	.st6{fill:#353939;}
	.st7{fill:#232525;}
	.st8{fill:#738289;}
	.st9{fill:#6F7A7E;}
	.st10{fill:#7E8F96;}
	.st11{fill:#78848A;}
	.st12{fill:#616A6D;}
	.st13{fill:#99A09D;}
	.st14{fill:#636867;}
	.st15{fill:#4E504A;}
	.st16{fill:#68767D;}
	.st17{fill:#7B8B92;}
	.st18{fill:#6E7A80;}
	.st19{fill:#7E8E95;}
	.st20{fill:#4A555B;}
	.st21{fill:#768085;}
	.st22{fill:#757F84;}
	.st23{fill:#728085;}
	.st24{fill:#C4D6DB;}
	.st25{fill:#9DA6A8;}
	.st26{fill:#D9E7E9;}
	.st27{fill:#687377;}
	.st28{fill:#3A3B34;}
	.st29{fill:#2F3130;}
	.st30{fill:#51534E;}
	.st31{fill:#202222;}
	.st32{fill:#323638;}
	.st33{fill:#575A56;}
	.st34{fill:#1F2121;}
	.st35{fill:#1E1F20;}
	.st36{fill:#252727;}
	.st37{fill:#303231;}
	.st38{fill:#2A2C2B;}
	.st39{fill:#393B38;}
	.st40{fill:#343839;}
	.st41{fill:#3A3B38;}
	.st42{fill:#2E302F;}
	.st43{fill:#494C49;}
	.st44{fill:#D1D4CA;}
	.st45{fill:#484A47;}
	.st46{fill:#4E504B;}
	.st47{fill:#4B4E4B;}
	.st48{fill:#6D6E64;}
	.st49{fill:#40423E;}
	.st50{fill:#51534C;}
	.st51{fill:#64655C;}
	.st52{fill:#717265;}
	.st53{fill:#5D5E56;}
	.st54{fill:#7C7C6D;}
	.st55{fill:#6B6B5F;}
	.st56{fill:#383833;}
	.st57{fill:#404950;}
	.st58{fill:#69767C;}
	.st59{fill:#444A4B;}
	.st60{fill:#7F837E;}
	.st61{fill:#676A63;}
	.st62{fill:#141821;}
	.st63{fill:#F4F5F2;}
	.st64{fill:#1C1E1E;}
	.st65{fill:#FAF9E9;}
	.st66{fill:#A9A893;}
	.st67{fill:#282A2A;}
	.st68{fill:#2F3231;}
	.st69{fill:#616A6C;}
	.st70{fill:#555955;}
	.st71{fill:#484F51;}
	.st72{fill:#363A3D;}
	.st73{fill:#444744;}
	.st74{fill:#1E2129;}
	.st75{fill:#7C7868;}
	.st76{fill:#C2974C;}
	.st77{fill:#A7A795;}
	.st78{fill:#222424;}
	.st79{fill:#4B4E4C;}
	.st80{fill:#535652;}
	.st81{fill:#1D1F1F;}
	.st82{fill:#333737;}
	.st83{fill:#3A4044;}
	.st84{fill:#1F232A;}
	.st85{fill:#272B31;}
	.st86{fill:#6B716F;}
	.st87{fill:#3D4246;}
	.st88{fill:#525551;}
	.st89{fill:#585C5A;}
	.st90{fill:#6C6F6A;}
	.st91{fill:#3F4242;}
	.st92{fill:#404444;}
	.st93{fill:#313538;}
	.st94{fill:#181B23;}
	.st95{fill:#797D78;}
	.st96{fill:#93743F;}
	.st97{fill:#4A4C49;}
	.st98{fill:#151922;}
	.st99{fill:#37261D;}
	.st100{fill:#21242B;}
	.st101{fill:#777970;}
	.st102{fill:#7E8078;}
	.st103{fill:#6D7474;}
	.st104{fill:#EFF2EB;}
	.st105{fill:#EBF0EA;}
	.st106{fill:#484B48;}
	.st107{fill:#595D59;}
	.st108{fill:#272A2A;}
	.st109{fill:#484B4A;}
	.st110{fill:#5B5F5B;}
	.st111{fill:#515451;}
	.st112{fill:#292B2B;}
	.st113{fill:#545754;}
	.st114{fill:#686B65;}
	.st115{fill:#403F38;}
	.st116{fill:#5B5F5E;}
	.st117{fill:#676D6C;}
	.st118{fill:#ECEFEA;}
	.st119{fill:#615742;}
	.st120{fill:#0F1118;}
	.st121{fill:#262828;}
	.st122{fill:#2F3131;}
	.st123{fill:#70736C;}
	.st124{fill:#212323;}
	.st125{fill:#565A57;}
	.st126{fill:#7D827D;}
	.st127{fill:#959994;}
	.st128{fill:#424748;}
	.st129{fill:#BDC0B8;}
	.st130{fill:#B4BAB4;}
	.st131{fill:#171B23;}
	.st132{fill:#635236;}
	.st133{fill:#B2B3A6;}
	.st134{fill:#606461;}
	.st135{fill:#3A3E3D;}
	.st136{fill:#3B3F3F;}
</style>
<g id="Camada_2" class="st0">
	<rect x="-6" y="-4.5" class="st1" width="618" height="189"/>
</g>
<g id="Camada_1">
	<g>
		<path class="st2" d="M4.1,102.3c-2.9-2.3-1.4-6.5-4-8.9c0-0.7,0-1.3,0-2c1.4-5.9-0.3-12,0.9-17.9c0.4-1.7-0.5-3.6,0.8-5.1
			c3.6-1.3,5.1,0.3,4.9,3.7c-0.4,8.4,0,16.7-0.3,25.1C6.4,99.1,7.2,101.7,4.1,102.3z"/>
		<path class="st3" d="M1,73.5c-0.3,6,1.5,12.1-0.9,17.9c0-6,0-11.9,0-17.9C0.4,73.5,0.7,73.4,1,73.5z"/>
		<path class="st4" d="M590.9,88.4c-0.3,0-0.6,0.1-0.9,0c-2.4-4-2.3-8,0.1-12c0.3-0.1,0.6-0.1,0.9,0.1
			C590.9,80.5,590.9,84.5,590.9,88.4z"/>
		<path class="st5" d="M388.7,62.8c1.8-0.1,3.6-0.1,5.4-0.2c13-1,26-0.4,39-1.9c4.3-0.2,8.7-0.1,13.1-0.1
			c15.3,0.4,30.5-1.1,45.7-1.4c17.8-0.2,35.5,0.4,53.3-0.3c5-0.2,10-0.5,15-0.1c6.3,1,12.7,0.2,18.9,1.4c1.6,3.6,0.8,5.3-2.9,5.4
			c-3.3,0.1-6.6-0.6-9.9-0.6c-17.4-0.1-34.8,0-52.2,0c-1.8,0-3.6,0.2-5.4,0.7c-1.1,0.3-2.3,0.4-3.5,0.3c-18.1-0.5-36.2,0.3-54.2,1.1
			c-21.2,0.9-42.5,0.7-63.6,2c-19,1.2-38,2.3-57.1,2.8c-5.8,0.2-11.6-0.6-17.3,0.6c-3.1,0.5-6.1,0.3-9.2,0.4c-4.3,0-8.5,0.1-12.8,0
			c-1.9,0-4,0.3-5.2-1.9c0.9-1.8,2.8-0.5,4.1-1.3c3.3-0.3,6.5-0.1,9.8-0.2c3.4-0.1,6.9,0.3,10.3-0.3c0.9-0.1,1.7-0.5,2.6-0.6
			c17.7-1,35.3-2.5,53-3.8c6.1-0.4,12.2-1.3,18.3-1.3C385.5,63.6,387.3,63.9,388.7,62.8z"/>
		<path class="st6" d="M585,61.5c3.1,2.5,4,5.9,4,9.7c-0.2,3.4,2.4,7.4-2.2,9.8c-0.5,0.2-1.1,0.4-1.7,0.4c-0.9,0.1-1.7,0-2.5-0.2
			c-3.3-0.9-4.1-3.4-3.9-6.4c0.3-2.7-1.7-2.7-3.5-3c-4.4-0.6-8.8-1.2-13.3-0.9c-1.4,0.1-3,0.5-4.3-0.4c-0.8-1.2-0.8-2.5-0.3-3.9
			c0.9-1.6,2.5-2.1,4.2-2c3.3,0.1,6.6-0.3,9.9,0.4c4.4,0.9,8.6,0.9,11.7-3.1C583.6,61.4,584.3,61.3,585,61.5z"/>
		<path class="st7" d="M12,66.7c0.4,0.6,0.8,1.2,1.3,1.7c0.3,0.4,0.5,0.8,0.8,1.2c2,4,6.2,5.3,12.2,3.9c2.3-0.5,4.9-2,6.2,1.5
			c-0.7,2.5-1.1,5.1-1.7,7.7c-0.2,0.4-0.6,0.8-1,1c-0.5,0-0.9-0.2-1.2-0.6c-0.7-1.2-1.5-2.5-2.9-0.7c-0.8,1-1.2,2.3-1.8,3.5
			c-2.8,4.9-6.6,5.2-10.6,1c-5.4-5.7-3.4-12.6-3-19.2C10.6,67.1,11,66.5,12,66.7z"/>
		<path class="st8" d="M113.1,70.8c27.8,0,55.6-0.1,83.4-0.1c0.6,0,1.2,0.4,1.8,0.7c-0.7,1.5-2.1,2.2-3.6,2.3
			c-5.7,0-11.3,2.1-17.1,0.6c-5.3-1.3-10.7,1.6-16.2,0.5c-0.6-0.1-1.1-0.3-1.6-0.5c-3.8-2.5-7.6-0.3-11.4,0.2
			c-3.8,0.4-7.5,0.9-11-1.1c-4.8,0.6-9.4,1.8-14.2,2.1c-4,1.1-7.1-0.5-9.9-3.2C112.9,71.8,112.8,71.3,113.1,70.8z"/>
		<path class="st9" d="M492,60.6c-15.3,0.3-30.7,0.6-46,1c-0.3-0.2-0.5-0.6-0.5-1c0.1-0.4,0.3-0.7,0.7-0.8
			c14.3-0.4,28.5-0.8,42.8-1.3c8.7-0.7,17.4-0.1,26.1-0.3c16.6,0,33.2,0,49.8,0c1.8,0,3.7-0.3,5.4,0.4c1.5,0.1,3.1,0.1,4.6,0.2
			c0.1,1.1-0.7,1.4-1.6,1.3c-4.6-0.2-9.3,0.5-13.9-0.4c-4.4-0.1-8.7,1.2-13.1,0c-13.4,0.8-26.7,0.1-40.1,0.4
			C501.5,60.3,496.7,59.6,492,60.6z"/>
		<path class="st10" d="M13.2,69.4c-0.1-0.3-0.1-0.6,0-0.9c7.9,3.3,16.4,1.9,24.6,2.2c11.4,0.3,22.9,0.1,34.3,0.1
			c0.3,0.6,0.1,1.1-0.4,1.5C65.8,76,59.4,75.6,53,74c-1.7-0.4-3.1-0.5-4.7-0.1c-5.7,1.2-11.3,2.4-16.8-0.8C29.7,72,28,73.5,26.3,74
			C20.5,75.7,16,74.1,13.2,69.4z"/>
		<path class="st11" d="M388.7,62.8c0,1-0.5,1.4-1.5,1.5c-25.1,1.7-50.2,3.4-75.3,5.1c-0.4-0.1-0.8-0.4-1-0.8
			c5.6-1.9,11.4-1.2,17.2-1.8c15.7-1.4,31.5-2.1,47.2-3.3C379.8,63.2,384.2,62.3,388.7,62.8z"/>
		<path class="st12" d="M585,61.5c-3.1,5-7.5,5.3-12.8,4.5c-4.7-0.8-9.5-1.1-14.2,0.5c-3.3,0.9-6.5,0.6-9.8,0
			c-11-0.8-21.9-0.2-32.9-0.4c-2.3-0.1-4.7,0.4-6.5-1.6c9.7-1.3,19.5-0.8,29.2-0.7c12.7,0.1,25.5-1,38.2,0.6
			c2.6,0.3,5.1-0.2,2.7-3.8c-0.2-1,0.1-1.6,1.2-1.1C582.1,59.5,583.9,59.6,585,61.5z"/>
		<path class="st13" d="M12,66.7c-0.3,0.3-0.6,0.5-0.9,0.8c-1.2,6.2,0.1,12.5-0.7,18.7c-1.5,0.7-1.7-0.4-1.7-1.4
			c0-2.4-0.3-4.9,0.1-6.8c-1.1,5.8,1.3,12.1,0.7,18.5c-0.3,2.6-0.4,5.1-1.5,7.5c-1,0.1-2.1,0.3-2.9-0.7c0.5-1,1.1-2,1-3.3
			c-0.7-9.5-0.2-19.1,0.8-28.6c0.2-1.5-0.5-2.6-1.2-3.7c-1.1-1.6-1.5-3.3-1.4-5.1C8.9,60.2,10.3,63.7,12,66.7z"/>
		<path class="st14" d="M4.3,62.8c6.3,7.6,2.1,16.3,2.5,24.5c0.2,4-1.2,8,0.1,12.1c0.5,1.7,0,3.3-1.8,4c-0.3-0.4-0.6-0.7-0.9-1.1
			c1.6-1.3,0.9-3,0.9-4.6C5.2,89.3,5,80.9,5.6,72.5c0.3-3.5-1.1-3.9-3.7-4.2C1.9,66.2,2.8,64.4,4.3,62.8z"/>
		<path class="st15" d="M585.8,80.8c4.5-2,2.5-6.2,3.2-9.5c1,1.6,0.8,3.4,1,5.2c0,4,0,8-0.1,12c-1,3.6-0.5,7.7-3.2,10.8
			c-1.3,0.1-1.6-0.9-1.9-1.8c-0.2-1.2-0.1-2.3,0.1-3.4c0.3-1.3-0.4-2.5-0.8-3.7c-0.1-0.4-0.1-0.9,0-1.3
			C585.3,86.5,585.6,83.6,585.8,80.8z"/>
		<path class="st16" d="M433.2,61.8c-12.2,0.6-24.3,1.3-36.5,1.9c-0.9,0-1.8-0.7-2.6-1c3.5-1.5,7.3-0.4,10.9-1.1
			c3.7-0.9,7.5,0.4,11.2-0.7c3.9-0.1,7.9-0.1,11.8-0.2c0.7-0.4,1.4-0.4,2.1-0.2C431.1,60.8,432.5,60.5,433.2,61.8z"/>
		<path class="st17" d="M113.1,70.8c0,0.3,0,0.5,0,0.8c-0.5,2.1-2.1,2.9-4,3.1c-6.1,0.6-12.2,1.9-17.6-2.5c-0.5-0.4-0.6-0.8-0.4-1.4
			C98.4,70.8,105.7,70.8,113.1,70.8z"/>
		<path class="st18" d="M570.3,58.6c-18.6,0-37.2-0.1-55.7-0.1c0.1-0.4,0.3-0.6,0.7-0.7c15.4,0,30.8,0,46.2,0.1
			C564.4,58,567.4,57.4,570.3,58.6z"/>
		<path class="st19" d="M91.1,70.8c0,0.3,0,0.5,0,0.8c-0.5,1.8-1.8,2.8-3.5,3c-4.1,0.5-8.2,0.5-12.3,0.1c-1.8-0.2-3.1-1.1-3.2-3.1
			c0-0.3,0-0.5,0-0.8C78.4,70.8,84.7,70.8,91.1,70.8z"/>
		<path class="st20" d="M160.1,73.5c11-0.3,21.9-0.6,32.9-1.1c1.8-0.1,3.5-0.7,5.3-1.1c0.3,0,0.5,0.1,0.8,0.3
			c0.4,0.4,0.6,0.9,0.7,1.4c0,0.9-0.3,1.6-1.2,2c-7.6-0.3-15.1,1.6-22.7,0.1c-3.9-0.8-7.9,1.2-11.9,0.7
			C162.4,75.5,160.3,76.1,160.1,73.5z"/>
		<path class="st21" d="M289.9,70.4c-1.3,0.1-2.5,0.2-3.8,0.3c-0.4,0.3-0.8,0.8-1.2,0.8c-7.9,0-15.7,2.3-23.7,1
			c-0.6-0.2-1-0.6-1.4-1.1c-0.2-1.9,1.7-1.1,2.4-1.8c8.9-0.1,17.8-0.2,26.6-0.3C289.9,69,290.1,69.5,289.9,70.4z"/>
		<path class="st22" d="M260,70.5c0,0.3,0,0.6,0,0.8c-2.4,2.5-5.5,1.4-8.3,1.6c-2.7,0.2-5.5,0-8.3,0c-6.5-0.7-13,1.2-19.6,0.4
			c-0.5-0.3-0.9-0.7-1.1-1.2c0.9-2.2,3.1-0.4,4.4-1.4c5.6-0.1,11.2-0.2,16.9-0.4C249.4,70,254.7,69.7,260,70.5z"/>
		<path class="st5" d="M515.2,57.8c-0.2,0.3-0.4,0.5-0.7,0.7c-8.5,0-17.1,0-25.6,0C497.7,56.7,506.5,58,515.2,57.8z"/>
		<path class="st18" d="M580.1,59.5c-0.4,0.4-0.8,0.7-1.2,1.1c-6.5-0.3-13,0.5-19.5-0.9c5.1-0.7,10.4,1,15.5-1
			C576.7,58.8,578.5,58.3,580.1,59.5z"/>
		<path class="st23" d="M223,71.7c0,0.2,0,0.3,0,0.5c-0.2,0.3-0.3,0.7-0.6,0.8c-7.8,1.3-15.7,2.1-23.4-0.4c0-0.3,0-0.6,0-0.9
			c3-0.1,6-0.2,9-0.2C213,71.1,218,70.5,223,71.7z"/>
		<path class="st24" d="M223,71.7c-5-0.1-10-0.2-15-0.3c6.3-1.6,12.8-0.8,19.1-0.7C226,71.9,224.4,71.3,223,71.7z"/>
		<path class="st25" d="M289.9,70.4c-0.4-0.3-0.7-0.7-1.1-1c3-1.4,6.2-0.7,9.3-0.7c0.6,0.5,1.6,0.2,2.2,0.9c0.1,0.5-0.1,0.7-0.5,0.8
			C296.5,70.4,293.2,70.4,289.9,70.4z"/>
		<path class="st26" d="M260,70.5c-5.3,0-10.7-0.1-16-0.1c6-1.6,12.1-0.7,18.2-0.7C261.5,70,260.7,70.3,260,70.5z"/>
		<path class="st5" d="M430,60.8c-0.7-0.1-1.3-0.2-2-0.3c6-1.8,12.1-0.6,18.2-0.8c-0.1,0.2-0.2,0.5-0.2,0.8
			C440.6,61.7,435.3,61.2,430,60.8z"/>
		<path class="st27" d="M300.1,69.7c-0.7-0.3-1.3-0.6-2-0.9c4.3-0.1,8.6-0.1,12.8-0.2c0.3,0.3,0.6,0.5,1,0.8
			c-0.6,0.1-1.3,0.3-1.9,0.4C306.7,70.2,303.4,70.4,300.1,69.7z"/>
		<path class="st5" d="M416.2,60.7c-3.7,1.2-7.4,0.8-11.2,0.7C408.6,59.8,412.4,60.9,416.2,60.7z"/>
		<path class="st28" d="M338,97.4c-27-1.6-53.9-3.2-80.9-3.4c-0.5,0-0.9-0.3-1.4-0.5c1.5-1.9,3.6-0.8,5.2-1.2
			c-8.7,0-17.6,0.1-26.6,0c-2.3,0-5.2,0.5-5.1-3.3c4.1-2,8.4-0.9,12.6-1c2.5-0.1,4.9-0.1,7.4,0c4.3-0.1,8.6,0,12.9-0.1
			c8.6,0.2,17.3-1,25.8,1.5c2.4,1.2,5.2,1.5,7.8,1.4c9.8-0.3,19.6,1.2,29.4,1.1c6.1,0,12.2,1.5,18.4,1c14.9,1.2,29.8,1.5,44.7,2.8
			c1.3,0.1,2.7,0.1,4,0.1c19.6,0,39.2,1.6,58.8,1.1c1,0,2,0.1,3,0.3c4.9,1.4,10,0.6,14.9,0.5c18-0.4,35.9,1.6,53.9,1.1
			c13.6-0.1,27.2,0,40.9,0.1c2.1,0,5.8-0.7,5.8,1.9c0,2.4-3.7,1.9-5.9,2c-11.9,0.5-23.8,1.4-35.7,1.9c-1.5,0.1-3.3,0.6-5-1
			c2.8-1.8,5.7-0.4,7.5-0.8c-20.6,0.7-42-0.5-63.4-0.1c-8.3-0.5-16.6-0.7-24.9-1c-24.9-0.7-49.8-1.4-74.7-3.2
			C357.5,97.8,347.8,96.5,338,97.4z"/>
		<path class="st29" d="M164.1,74.6c11.6-0.6,23.3-0.8,34.9,0c3.2-1.9,6.7-0.8,10-0.9c1.5,0.7,1.7,1.5,0.2,2.4
			c-1.8,1-3.8,0.6-5.9,0.9c2.3,0.5,5.3,0.2,5.5,3.7c0.1,0.9,1,1.2,1.7,1.6c5.2,3.1,5.2,3.1,0.6,7.8c-4.3,2.5-7.9,1.1-11.4-1.8
			c-1.1-1.9-1.3-2-1.4-1.6c-1.6,6.4-6.1,7.8-12,7c-0.9-0.1-2.3-0.2-3.2,0.7c-3.7,0-7.3,0-11,0c-1.8-1.5-0.2-3.8-1.5-5.7
			c-2.6,1.8-3.5,5.9-7.5,5.7c-2.3,0-4.7-0.1-7-0.1c-0.6-3.5,1.6-5.4,4.3-6.4c3.5-1.3,6.1-3,7.9-6.3c1.1-1.9,2.8-3.5,5.3-2.6
			c2.3,0.8,2.5,2.8,2.7,4.8c0.2,1.7-0.7,4.1,1.5,4.7c1.9,0.6,3.4-1.1,4.7-2.3c2.4-2.3,7.1-4.6,5.9-7.8c-1.3-3.6-6.2-1.6-9.5-1.5
			c-5,0.2-9.9,0.6-14.7-1.1C163.8,75.5,163.7,75.1,164.1,74.6z"/>
		<path class="st30" d="M466.9,101.4c22-0.2,44-0.1,66,1.9c-2.9,0-5.9,0-8.8,0c4.9,0.3,9.9,2.6,14.4-1.1c1.9-1.5,4.1,0.2,6.3,0.2
			c8,0,15.8-1.9,23.8-2.1c-15.2,0-30.4,0-45.7,0c-0.3-2.1,1.6-2.5,2.8-3.3c2.3-0.9,4.7,0.5,6.9-0.5c2.1-1,3.2-3.6,5.8-3.8
			c2.7-1.1,6.4,0,8.1-3.4c0.4-0.3,0.8-0.4,1.3-0.4c2.1,0.3,3.3,1.7,4.3,3.4c0.8,2.9-0.8,4.4-3.2,5.4c-1.2,0.7-2.6,0.1-3.3,0.2
			c0.4-0.3,1.4,0.4,2.4,0.3c8.9,0,17.7-0.7,26.5,0.1c1.4,0.5,3.3,1,3,2.5c-0.4,2.3-3.3,2.2-4.8,3.4c-17.6,1.6-35.2,0.9-52.8,0.9
			c-22.7,0-45.5-0.6-68.2-1.8c0.3-2.2,2-1.3,3.1-1.3C459,101.5,463,102.4,466.9,101.4z"/>
		<path class="st31" d="M164,75.5c7.5,0.7,15.1-0.1,22.6,0c1.5,0,3.1-0.1,3.9,1.5c0.8,1.6-0.1,3-1,4.1c-2.9,3.6-6.3,6.8-10.3,9.2
			c-2.5,1.5-4.1,0.9-4.3-2.2c-0.1-1.1,0-2.3,0-3.5c-0.1-1.9,0.6-4.4-2.1-4.9c-2.4-0.4-3.3,1.7-4.2,3.5c-1.5,2.9-3.2,5.1-7,5.4
			c-3.1,0.2-4.3,3.2-5.6,5.7c-1.3,0-2.7,0-4,0c-1.4-2.1-0.2-4.2,0.2-6.2c1.2-2.7,2-5.5,2.4-8.5c0.6-5.3,0.9-5.5,6.5-4.6
			C162.1,75.2,163.2,74.8,164,75.5z"/>
		<path class="st32" d="M72.1,71.6c3.4,2.9,14.4,2.9,19,0c1.1,0.2,2.4,0.1,3.3,0.6c6.4,3.8,12.5,1.9,18.7-0.6
			c3.5,0.2,5.8,4.4,9.9,2.9c2.7-0.9,5.5-0.3,8.3-0.4c2.3-0.1,2.8,1.2,2,3.2c-4.5-0.2-9-0.7-13.4,0.9c-1.9,0.7-3.6-1.4-5.4-1.9
			c-2.8,0.4-5.6-0.9-8.4,0.1c-3.7,0.4-7.5,1.9-11.2,0.1c-1.2-0.6-1.8,0.1-2.1,1.2c-0.4,1.4-0.3,3-1.6,4c-1.7,0.2-3.3,1.5-5.2,0.7
			c-0.3-0.4-0.5-0.8-0.6-1.2c0.4-3.6-1.2-4.8-4.6-4.2c-1.5,0.3-3,0.7-4.4,0.4c-3-0.6-4.8,0.5-5.7,3.3c-0.3,0.9-0.8,1.8-2,2
			c-1.4-1.5-3.3,0.4-4.8-0.5c-1.3-1.5,0.6-4.5-2-5c-3.2-0.7-6.5-0.6-9.8-0.2c-0.5,0.1-1,0.5-1,1c0.3,5.6-5.1,10.5-1.8,16.4
			c-1.3,0-2.6,0-4,0c-2-1.8-0.6-5.1-3.2-6.6c-1.4-2.8,1.8-4.7,1.6-7.2c-0.1-3.1-2.2-3.6-4.8-3.8c-2.3-0.1-4.7,0.6-6.7-1.2
			c-1.3-2.9-3.4-1.5-5-0.8c-4,1.7-7.8,0.4-11.6-0.6c-2.5-0.7-2.5-2.7-2.2-4.8c4.5,4.9,9.7,5.4,15.5,2.6c0.9-0.4,2.5-0.5,3.4,0
			c5.2,3.1,10.5,1.8,15.7,0.5c2.1-0.5,3.6-0.4,5.9,0.4c4.4,1.5,9.4,1.5,14.1-0.2C69.2,72.1,70.6,71.8,72.1,71.6z"/>
		<path class="st33" d="M466.9,101.4c-2.9,1.9-6.1,0.5-9.2,0.9c-1.9,0.3-4-0.7-5.7,0.9c-23.6,0-47.2-1.1-70.8-2.5
			c-14.4-0.8-28.8-2.2-43.2-3.3c5.9-2.2,12.2-1.4,18.1-0.7c6.6,0.8,13.2,0.8,19.8,1.4c12.2,1.2,24.5,0.9,36.8,1.3
			C430.8,100,448.8,100.7,466.9,101.4z"/>
		<path class="st34" d="M49.1,94.3c-3.3-1.4-3.9-3.9-2.3-6.7c1.7-3,2.4-6.1,2.4-9.4c0-2.4,0.7-3.7,3.7-2.9c2.2,0.6,4.6,0.5,6.9,0.3
			c3.8-0.3,6.5,0.1,4.4,5c-0.2,0.6-0.1,1.3-0.1,2c0.5,1.9,0.4,3.9,0,5.8c-1,2.6-2.5,4.7-5,6.1C55.7,94.3,52.4,94.3,49.1,94.3z"/>
		<path class="st35" d="M68.1,82.5c1.3-1.2,1.4-2.9,1.9-4.4c0.6-1.9,1.8-3,3.6-2.4c2.4,0.9,4.5,0.1,6.7-0.1c6.3-0.7,6.7-0.3,5.7,5.9
			c-0.4,2.4-1.8,4.1-3.8,5.3c-4.5,2.8-9.1,5.7-14.2,7.5c-1,0-2,0-3,0.1c-0.6-0.6-0.7-1.3-0.5-2.1C66.5,89.3,65.1,85.1,68.1,82.5z"/>
		<path class="st36" d="M114.1,74.5c3.2,1.9,6.2,3.2,10.3,1.3c1.8-0.8,5.9-2.2,7.7,1.7c0.7,1.9-1,3.4-1.1,5.2
			c-0.1,0.4-0.3,0.9-0.6,1.3c-1.4,1.9-3.3,2.4-5.5,2.5c-3.7,0.2-7.5,0.3-9.1,4.8c-0.5,1.5-2.6,1.9-3.7,3c-1,0-2,0-3,0
			c-1.8-2-0.8-4-0.1-6c0.9-2.5,1.7-4.9,2.2-7.5C112,78.7,112.8,76.5,114.1,74.5z"/>
		<path class="st37" d="M114.1,74.5c0.1,2.2,0,4.4-2,6c-0.8,0.7-2,0.3-2.8,0.7c-1.6,1.9-2.3,4.1-2.9,6.5c-0.2,1.6-0.6,3.2-1.5,4.6
			c-0.6,1.1-1.9,1.3-2.8,2c-5,0-10,0-15,0c-0.3-0.4-0.4-0.8-0.1-1.3c5.7-3.9,8.5-11.3,16.1-13c2.1-0.5,3.1-2.3,3-4.5
			C108.4,72.8,111.6,76.6,114.1,74.5z"/>
		<path class="st38" d="M142.1,94.3c-4,0-8,0-12,0c-1-1.1-0.8-2.3-0.2-3.5c1.2-1.4,0.6-4,2.9-4.7c1.4,0.4,1.5,3.4,3.1,2.5
			c3.1-1.7,7-2.1,9.4-5.1c3.3-4.1,3.2-5.3-0.5-8.6c0.9-1.7,2.8-0.6,4.1-1.3c2.7,0,4.7,1.7,3.8,3.9C150.1,83.7,149.7,91.4,142.1,94.3
			z"/>
		<path class="st39" d="M112.1,94.3c0.6-3.1,5.1-4.2,4.4-8c2.6-0.4,5.3-1.3,7.8-1s4-0.7,5.8-1.8c1.5,3-2,4.4-2.2,6.9
			c-0.7,1.9-2.3,2.9-3.8,4C120,94.3,116,94.3,112.1,94.3z"/>
		<path class="st40" d="M142.1,94.3c5.3-3.7,6.2-10.1,9.2-15.3c1.4-2.4,0.8-4.1-2.2-4.5c3.5-2.4,7.2-2.4,11-1l0,0
			c1,1.5,2.6,0.8,4,1.1c0,0.3,0,0.6,0,0.9c-0.8,0-1.7,0.2-2.5,0c-4.1-0.9-6.1,0.1-5.6,4.9c0.3,2.9-0.7,5.8-2.9,8.1
			c-1.4,0-2.8-0.4-3.4,1.6c-0.6,2.2-2.7,3.3-4.6,4.3C144.1,94.3,143.1,94.3,142.1,94.3z"/>
		<path class="st29" d="M229,89.4c1.7,2,4,2,6.3,2c9.1,0,18.2,0,27.3,0c1.6,0,3.2-0.4,5.4,0.9c-4.4,1.9-8.5,0.4-12.3,1.2
			c-5.9-0.1-11.8-0.2-17.7-0.2c-4.3-0.9-8.6-0.2-12.9-0.4c-2.9-1.2-5.8-1.1-8.8,0c-1.1-0.3-3.1,0.7-3.2-1.1
			c-0.1-2.1,1.9-2.7,3.6-3.4C220.9,88.1,225.1,86.9,229,89.4z"/>
		<path class="st41" d="M10,86.5c0.9-6.3-0.9-12.7,1.1-19c0,2-0.4,4,0.1,5.8c0.9,3.4-2.6,7.7,2.4,10.3c0.7,0.4,0.4,2.4,0.6,3.7
			c1.1,2.8,1.7,6,5.8,5.7c0.9,1.2,0,1.7-0.9,2.1c-2.4,0.9-5.4,0.5-7,3.2C7.5,95.2,9.1,90.8,10,86.5z"/>
		<path class="st28" d="M223.9,92.3c4.7,0.7,9.5-0.9,14.1,1c-12.6,0.2-25.3,0-37.9-0.7c-1.3-1.7-3.2-3.4-0.1-5.2
			c3.4,2.3,6.9,3.5,11,2c1.7-1.2,3.3-1.5,5,0c-0.3,1.2-2.7,1-2,2.6c0.2,0.4,2,0.2,3.1,0.2C219.4,91.5,221.7,91,223.9,92.3z"/>
		<path class="st42" d="M68.1,94.3c3.7-3.6,8.7-5.3,13-8.1c2-1.3,3.4-3,4.9-4.7c0,0.3,0,0.7,0,1c1.6,4.3-0.8,9-5.7,11
			c-1.1,0.4-2.3,0.1-3.3,0.8C74.1,94.3,71.1,94.3,68.1,94.3z"/>
		<path class="st7" d="M45,80.5c0.1,2.8-2.9,4.3-2.9,7.1c0.5,0.6,0.6,1.2,0.4,1.9c-1.2,2.3-3.2,3.7-5.5,4.9c-3.3,0.1-6.7,0.1-10,0.2
			c-2.2-2.6-1.4-5.6-1.1-8.5c0.5-1.5,1.2-2.8,3.1-2.5l0,0c0.1,0.1,0.2,0.3,0.3,0.4c1.4,1.7-1.9,5.3,2.4,5.7c4.8,0.4,6.9-1.1,8.2-5.6
			C40.9,81.7,41.7,79.3,45,80.5z"/>
		<path class="st43" d="M200,87.4c-1.7,1.8,0.7,3.5,0.1,5.2c-5.4,3.7-11.3,1.6-17.1,1.8c1.5-1.4,3.7-2.4,5.4-1.8
			c6,2.1,6.9-2.5,8.6-6c0.6-1.3,0.4-2.9,2.1-3.6C200.7,84.2,199.7,86,200,87.4z"/>
		<path class="st44" d="M10,86.5c0.7,4-0.4,8.3,2.2,11.9c-0.4,2.7-3.1,3.6-4.2,5.7c0-8.9,0-17.7,0-26.6C10.1,80.4,8.1,83.7,10,86.5z
			"/>
		<path class="st45" d="M77.1,94.3c4.5-2.8,9.6-5.2,9-11.8c1.3-0.6,2.2-2.3,3.9-1c2.4,4.8-0.4,8.3-2.9,11.9c0,0.3,0,0.6,0,0.9
			c-0.3,0-0.7,0-1,0c-1.3-2-2.7-1-4,0C80.4,94.3,78.7,94.3,77.1,94.3z"/>
		<path class="st46" d="M27.1,85.5c0,3,0,6,0,9c-2.7,0.2-5.3,0.5-8,0.7c0.3-0.6,0.6-1.2,1-1.9c-0.1-3.6,3.1-5.5,4.4-8.5
			C25,83.7,26.4,84.2,27.1,85.5z"/>
		<path class="st47" d="M104.1,92.4c0.3-1.6,0.7-3.3,1-4.9c2.4-2.1,2-5.6,4-7.9c1,0.3,1.9,0.6,2.9,1c0.9,5-3.5,8.9-3,13.8
			c-0.3,0-0.7,0-1,0.1C107.2,92.7,105.8,92.3,104.1,92.4z"/>
		<path class="st48" d="M572.9,104.2c0.8-1.4,1.5-2.5,3.4-3s-0.5-1-0.5-1.7c0.1-0.2,0.3-0.4,0.4-0.6c0.8-0.5,1.7-0.7,2.6-0.9
			c2.4,0,4.7-0.4,7.1-0.8c0.3,0.7,0.6,1.4,0.9,2C583.6,105.1,578,103.8,572.9,104.2z"/>
		<path class="st49" d="M163,94.4c1.7-1.3,4-1.9,4.5-4.6c0.3-1.8,2-3.5,3.9-2.8c2.5,0.8,1.2,2.9,0.8,4.6c-0.2,0.9-0.1,1.9-0.2,2.9
			C169,94.4,166,94.4,163,94.4z"/>
		<path class="st50" d="M145,94.3c1.3-2.4,3.4-4.1,4.4-6.9c1.6-4.3,2.3,0.6,3.6,1c-0.3,2-0.7,3.9-1,5.9
			C149.7,94.3,147.4,94.3,145,94.3z"/>
		<path class="st51" d="M65,92.3c0,0.7,0,1.4,0.1,2c-2,0-4-0.1-6-0.1c1.4-1.9,2.7-3.9,4.1-5.8c0.6-1,1.7-2.1,2.6-1.2
			C67.6,89.1,66.1,90.8,65,92.3z"/>
		<path class="st52" d="M124,94.3c0.3-1.9,2-2.6,3-3.9c0.9-1,1.4-2.8,3.3-1.8c1,0.5,1.8,1.5,0.6,2.7c-1.1,0.8-0.8,2-0.9,3.1
			C128.1,94.4,126,94.4,124,94.3z"/>
		<path class="st53" d="M42.1,89.4c0-0.6,0.1-1.3,0.1-1.9c5.4,0.4,1.9,4.5,2.9,6.8c-1.7,0-3.3,0-5,0C39.5,92.2,41.5,91.1,42.1,89.4z
			"/>
		<path class="st54" d="M104.1,92.4c1-0.9,2-1.8,3.1-2.7c1.5,1.5,0.5,3.2,0.9,4.7c-2,0-4,0-6,0C102.7,93.7,103.4,93.1,104.1,92.4z"
			/>
		<path class="st55" d="M82.1,94.3c0.9-1.2,1-3.6,3-3.4c1.7,0.2,0.8,2.2,1,3.3C84.8,94.3,83.4,94.3,82.1,94.3z"/>
		<path class="st56" d="M42.1,89.4c0.5,2.1-1,3.4-2,4.9c-1,0-2,0-3,0C38.4,92.4,40.1,90.7,42.1,89.4z"/>
		<path class="st57" d="M508.8,64.5c11.6,0.1,23.3,0.1,34.9,0.2c1.8,0,3.7-0.5,5.3,0.7c-1.3,1.6-3.1,1.3-4.8,1.4
			c-1.2,0-2.5-0.5-2.9,1.3c-0.4,2.5-1.1,4.3-4.5,2.9c-3.5-1.4-6,1.6-8.9,2.7c-0.8,0.3-1.4,1.3-2.6,0.7c-0.9-0.7-1.2-1.6-1-2.7
			c0.2-0.8,0.7-1.5,1.3-2.8c-10.9-0.2-21.6,0-32.2-0.1c-8.2,0.3-16.5-0.5-24.7-0.1c-17.8-0.3-35.6,1.7-53.5,1.1
			c-1.8-0.1-3.6,0.1-5.4,0.7c-5.8,0.8-11.7,0.3-17.5,0.4c-3.8-0.1-7.7-0.6-11.4,0.5c-5.2,0.8-10.5,0.1-15.7,1.1
			c-6.6,0.2-13.3,0-19.9,1.2c-14.1-0.1-28.1,1.8-42.2,1.2c-6.8-0.3-13.5,0.6-20.3,0.6c-2-0.7-4.3-0.6-6-2.1
			c-0.2-0.7,0.1-1.2,0.7-1.6c6.5-1.2,13.1,0.7,19.6,0.1c2.4-0.2,4.9,0.4,7.3-0.4c2.9,0,5.7-0.1,8.6-0.1c5.7-1.3,11.5,0.4,17.2-0.9
			c16.2-0.7,32.5-1.1,48.7-2.1c26.5-1.6,53.1-1.8,79.6-2.9C475.2,64.9,492,64,508.8,64.5z"/>
		<path class="st26" d="M304.4,71.7c-9,1.2-18,1-27,1c-2.1,1.3-4.4,1.2-6.7,1.2c-8.2,0.1-16.5-0.3-24.7,0.2
			c-0.9,0.2-1.8,0.2-2.7-0.2c-0.9-0.6-1-1.4-0.3-2.3c5.7-0.1,11.3-0.3,17-0.4c8.7,0.4,17.4-1.3,26.1-0.6
			C292.1,72.7,298.3,70.8,304.4,71.7z"/>
		<path class="st18" d="M492,60.6c1-1.2,2.4-0.9,3.7-0.9c16.9,0,33.8,0.1,50.7,0.1c-9.3,1.2-18.8,0.5-28.1,0.7
			C509.5,60.6,500.7,60.5,492,60.6z"/>
		<path class="st26" d="M330.2,70.6c-5.7,0.9-11.4,1.1-17.2,0.9C318.6,69.5,324.4,70.9,330.2,70.6z"/>
		<path class="st58" d="M430,60.8c5.3-0.1,10.6-0.2,15.9-0.3c0,0.3,0,0.7,0,1c-4.2,0.1-8.5,0.2-12.7,0.3
			C432.1,61.6,430.8,61.9,430,60.8z"/>
		<path class="st26" d="M300.1,69.7c3.3,0,6.6,0.1,9.9,0.1c-3.3,1.6-6.8,0.6-10.2,0.7C299.9,70.2,300,69.9,300.1,69.7z"/>
		<path class="st59" d="M557.9,70.6c7-2.6,14-0.1,20.9,0.2c2.3,0.1,1.9,2.2,1,3.8c-6.5,2.6-13.2,1.1-19.9,0.9
			c-1.6-0.6-2.2-1.8-2.5-3.3C557.4,71.6,557.6,71.1,557.9,70.6z"/>
		<path class="st60" d="M582.9,80.5c0.7,0.1,1.4,0.2,2.1,0.2c-0.2,2.8-3.2,3.2-4.4,5.2c-1.3,2.1,2.1,2.6,1.5,4.5
			c-0.2,0.4-0.4,0.8-0.8,1.2c-2.6,2.1-5,3.2-7.2-0.6c-1-1.7-2.9-1.1-4.5-1.2c-3.7-0.4-7.6,1-11.1-1.2c-0.4-0.8-0.3-1.5,0.1-2.2
			c3.3-2.1,7-0.9,10.5-1.2c2.1-0.2,4.4,0.3,5.3-2.4c0.2-0.5,0.4-0.9,0.7-1.3C577.5,78.4,580.3,80.6,582.9,80.5z"/>
		<path class="st61" d="M582.9,80.5c-2.1,1.9-5-1.2-7,1.1c-4.6-4.5-8.5-5-15-1.9c-1,0.5-1.9,0.5-2.6-0.5c-0.7-1.7-0.8-3.2,0.6-4.6
			c7,0,14,0,21,0.1C579.5,77.2,580.1,79.5,582.9,80.5z"/>
		<path class="st62" d="M557.9,70.6c0,0.3,0,0.7,0,1c0.9,2.4-0.3,4.9-2.4,3.3c-4.2-3.1-8.8-5.6-12.6-9.2c2-0.1,4-0.1,6-0.2
			c3,0.8,6.2-0.6,9,1C558,67.9,558,69.2,557.9,70.6z"/>
		<path class="st63" d="M580,85.5c0.7-2.7,3.7-2.9,5.1-4.8c0.3,0,0.5,0,0.8,0.1c2.9,3.2,0.6,5.9-1,8.6
			C581.9,89.6,580.2,88.4,580,85.5z"/>
		<path class="st64" d="M45,80.5c-2.3,0.3-3.7,1.6-4,4c-0.8,1.6-1.4,3.2-3.1,4.2c-4.4,2.3-7.6,0.2-7.9-5.2c0.5-2.7-1.4-6,2-8
			c2.5,0,5,0.1,7.5,0C43.2,75.3,45.2,76.7,45,80.5z"/>
		<path class="st32" d="M27.1,85.5c-1.2-0.6-2.4-0.8-2.7,0.8c-0.5,2.9-2.7,4.9-4.3,7.1c-5.8,1.5-6,1.3-5.9-6c5.2,2.7,6.8,2,9.2-3.4
			c0.3-0.6,0.5-1.2,0.9-1.8c0.9-1.3,1.9-3.3,3.5-3c2,0.4,1.2,2.7,1.4,4.2C28.4,84.1,27.7,84.8,27.1,85.5z"/>
		<path class="st34" d="M30.1,83.5c2.7,6.4,6,6.7,11,1c-0.8,4.3-8.4,8.8-11.8,6.6c-3-2-0.5-5-0.2-7.6C29.4,83.5,29.8,83.5,30.1,83.5
			z"/>
		<path class="st40" d="M130.1,82.5c-0.5-2.1,1.1-3.4,2-5c1.7-2,0.7-2.8-1.4-2.9c-2.6-0.1-5.1-0.1-7.7-0.1c5-0.9,10-1.8,15-2.7
			c0.9,0.8,0.7,1.7,0.6,2.7c-2,2-1.6,5.3-3.9,7.2C132.7,79.3,131.8,83.4,130.1,82.5z"/>
		<path class="st20" d="M138.1,74.5c0-0.9-0.1-1.9-0.1-2.8c5.3,4,10.7,0.6,16.1,0.3c2.3-0.2,4.6-1.3,6.1,1.5c-3.7,0.5-7.5-1-11,1
			c-1.4,0.1-2.9-0.4-4,1C142.4,77.1,139.9,78.1,138.1,74.5z"/>
		<path class="st65" d="M585.8,97.3c-1.5,3.4-4.1,1.7-6.4,1.4c-1.6-1.4-1.6-1.4,0.5-4.3c0.3-0.4,0.7-0.7,1.1-1
			c1.6-0.9,3.2-1.5,4.7,0.1C585.8,94.7,585.8,96,585.8,97.3z"/>
		<path class="st60" d="M585.7,93.4c-1.7-0.1-3.3-0.1-4.8,0.9c-0.3-0.3-0.5-0.7-0.6-1.1c0.1-1.1,0.7-2,1.5-2.8l0.2-0.2
			c1-0.7,2-0.6,2.9,0.2C585,91.5,588,91.8,585.7,93.4z"/>
		<path class="st66" d="M584.9,90.5c-1-0.1-2-0.1-2.9-0.2c-0.7-0.6-1.4-1.4-2.2-1.8c-2.9-1.2-1.5-2.1,0.2-3c0.7,2.4,2.9,2.9,4.8,3.9
			C584.8,89.7,584.9,90.1,584.9,90.5z"/>
		<path class="st24" d="M243.1,71.7c0,0.6,0,1.1,0,1.7c-1.8,2-4.3,1.3-6.5,1.5c-5.8,0.3-11.6-0.6-17.3,0.7c-3.1,0.3-6.3,1.2-9.1-1
			c-3.7,0-7.4,0-11.1,0c0-0.7,0.1-1.4,0.1-2c8-0.1,16-0.2,24-0.4C229.7,72.6,236.4,70.8,243.1,71.7z"/>
		<path class="st67" d="M210,74.6c2.9-0.4,5.8-0.6,8.7-0.2c0.8-0.4,1.6-0.4,2.4-0.4c16.7,0.3,33.4-0.8,50.1-0.5
			c3.6,0.1,7.2,0.3,10.8,1c19.3-1.7,38.7-0.7,58-1.9c2-0.1,4,0,6,0.1c1.3,1.1,2.2,2.4,1.1,4.1c-0.8,0.7-1.9,1-2.9,1.2
			c-2.8,0.9-5.5-1.5-7.9,0c1.1-0.1,2.6-0.8,4.1-0.1c1.8,0.9,3,2.3,3,4.2c0,2.2-2,2.7-3.6,2.5c-5.6-0.5-11.3,0.7-16.9-0.3
			c-1.8-0.3-4.7,0.2-4.8-2.4c-0.1-2.6,2.5-3.1,4.2-3.5c-0.9,0-2.9-0.1-3.5,1.1c-2.9,5.9-8.7,4.8-13.2,4.6
			c-15.4-0.5-30.8,0.5-46.3-0.1c-4.8-0.2-9.6,1.1-14.4,0.8c-3.9-0.2-1.5,3.3-2.9,4.5c-4.3,0-8.7,0-13,0s-8.7,0-13,0
			c-1.7,0-3.3,0-5,0c0.3-0.7,0.4-1.8,0.9-2.2c3.2-2.5,0.6-2.9-1.2-3.7c-1.7-0.7-5.3,0.5-3.5-3.8c0.6-1.5-1.6-1-2.6-1.2
			c-1.8-0.3-4.1,0.7-5-2.3C203,74.3,207,76.9,210,74.6z"/>
		<path class="st68" d="M242,89.4c-1.9-5.9-1.9-5.8,4.7-6c9.6-0.2,19.2-0.8,28.8-0.9c9.6-0.1,19.2,0.4,28.8,0.5
			c3.4,0,6.9-0.4,10.3-0.7c0.6-0.1,1.6-0.6,1.6-0.9c0.5-6.9,5.7-2.5,8.6-3.8c-1.4,2.6-5,1.7-6.6,4.8c3.1,0.4,6,1,9,1
			c3.9,0,7.8-0.7,11.7,0c1.1,0.2,3.2,0.7,3.4-0.9c0.2-1.8-1.2-3.5-3.1-3.8c-2.3-0.3-4.6-0.1-8.2-0.1c5-2.1,9.1-1.3,13-2.1
			c1.6,1.5,3.4,0.7,5.2,0.7c4.3-0.2,8.6-0.1,12.5,2.3c2.1,1.4,2.3,2.6,0.6,4.3c-5.2,1.5-10.4,3.5-16.4,2.3c0.8,0.3,1.3,0.2,1.7,0.3
			c1.9,0.3,4.7-0.9,5.2,1.6c0.5,2.6-1.7,4-4.2,4.8c-0.5,0.1-1,0.3-1.4,0.4c-0.6,0.1-1.1,0.2-1.7,0.2c-18.7-0.8-37.4-1.9-56.2-2.3
			c-0.5,0-0.9-0.4-1.4-0.6c-8.6-1.4-17.3-0.9-26-1c-4.3-2.9-8.6-2.6-13,0C246.7,89.4,244.3,89.4,242,89.4z"/>
		<path class="st69" d="M453.9,98.4c-11.5,0-23,0.2-34.4-0.2c-21.7-0.8-43.4-1.8-65.1-3c-3.8-0.2-7.6-0.9-11.4-0.8
			c0.3-2.7,3-0.6,4-1.9l0,0c0.8-0.6,1.6-0.5,2.5-0.2c4.7-0.3,9.3,0,14-0.3c17.3,0.3,34.7,1,52,2.1c4.8,0.3,9.6,0.1,14.4-0.1
			c8.2-0.2,16.3,1.7,24.6,1.1c1.2-0.1,2.4,0.1,3.6,0.5c1.2,0.6,2.9,0.8,2.9,3C458.6,99,456.3,99.2,453.9,98.4z"/>
		<path class="st70" d="M453.9,98.4c2,0,3.9,0,6,0c0-1.5-1.7-0.9-2-2c3.7-2.6,8-1.1,12-1.3c2-0.1,3.9,0,5.6-1.1c3,0.4,6,1.4,9.1,1.1
			c2,0,4,0.1,5.9-0.5c1.4-0.3,2.8-0.8,4.3-0.6c3.9,1.9,7.9,2.1,12.1,1.2c1-0.3,2-0.4,3,0.1c3.2,1.2,6.6,0.5,9.9,0.7
			c2.1,0.2,4.4-0.4,6.1,1.4c-1,1-2,1.9-3,2.9c-21.9,0.5-43.8-1.7-65.8-1C456,99.3,454.8,99.4,453.9,98.4z"/>
		<path class="st71" d="M347,92.4c-0.9,1.6-3.1,0.3-4,1.9c-17.8-0.8-35.5-1.5-53.3-2.3c-0.6,0-1.1-1-1.7-1.6
			C307.7,90.3,327.4,91.2,347,92.4z"/>
		<path class="st67" d="M249,89.4c3.4-4.8,8.9-4.8,13,0C257.7,89.4,253.4,89.4,249,89.4z"/>
		<path class="st72" d="M543,65.7c4.4,1.7,8.7,3.3,11.6,7.6c1.9,2.8,3.2,0.9,3.3-1.7c1.1,0.7,0.9,1.9,0.9,3c0,1.6,0.1,3.3,0.1,4.9
			c0.7,0.9,1.1,1.9,1.2,3.1c0.1,1.5-0.3,2.8-1.3,3.9c0,0.7,0,1.3,0,2c1,1.2,1.3,2.6,1.4,4.1c0,1.5,0,3-0.6,4.4
			c-3.8,3.7-8.3,1.7-12.6,1.6c-1-0.1-1.9-0.1-4.2-0.3c2.8-0.8,4.5-1.2,6.1-1.7c7.3-0.5,7.3-0.5,7.2-5.2c-1.7-0.5-2.5,2.1-4.3,1.2
			c-1.4-1-2.8-2-4.2-3c-0.3-1,0.2-1.8,0.7-2.6c2.4-3.9,0.8-7.1-1.6-10.3c-2.6-3.5-5.4-0.9-8.1-0.1c-2.2-3,0.8-4,2.2-5.6
			c1.2-0.7,1.7-1.5,0.2-2.5c-0.1-0.2-0.2-0.3-0.4-0.5C539.9,65.3,541.5,65.6,543,65.7z"/>
		<path class="st73" d="M525.9,97.4c-4.4,0-8.8,0-13.2,0c-1.6,0-3.4,0.4-3.8-2c4.4-0.9,8.8,0.1,13.3-0.3c1.5-0.1,3.4,0.8,4.2-1.5
			c0.1-0.5,0.2-0.9,0.4-1.2c0.9-0.6,2.3-0.8,1.9-2.4c-0.2-0.9-0.9-0.6-1.5-0.7c-1.6-0.4-2.1-1.5-2-3c0.3-1.5,1.9-3,0.1-4.5
			c-0.5-0.8-1-1.6-0.1-2.5c1.6-0.6,2.8,0.1,4,1.1c1.2,1.5,0.6,3.6,1.6,5.2c1.2,1.9,2.6,3.5,4.8,4.4c0.4,0.3,0.6,0.7,0.7,1.1
			c-0.2,2.6-1.6,4.6-3.4,6.4C530.6,99.1,528.3,97.4,525.9,97.4z"/>
		<path class="st48" d="M547,98.4c3.9-1,8.5,2,11.9-2.1c2.2-1.7,4.9-2.1,7.5-1.8c2.9,0.4,5.5-0.2,8.2-1.2c2.1-0.2,4.2-1,6.3,0
			c0,0.3,0.1,0.7,0.1,1v0.1c-1.1,0.4-1.9,1.3-3,1.8c-1.4,0.6-3.8,0.4-2,3l-0.2,0.2c-8-0.1-16.1-0.1-24.1-0.2
			C550.1,99.3,548.4,99.9,547,98.4z"/>
		<path class="st74" d="M551.9,92.4c0.4-0.2,0.8-0.5,1.3-0.7c1.5-0.7,1.8-4,4-2.6c1.8,1.1,0.8,3.6,0.7,5.5c0,2.3-1.7,3-3.7,2.8
			c-1.7-0.2-3.6,0.8-5.1-0.9C551.2,96,551.4,94.1,551.9,92.4z"/>
		<path class="st75" d="M547,89.5c-0.8,5.3-5.3,2.8-8.1,3.8c-1.6-0.4-2.8-1.2-1.8-3.1c0.4-1,0.2-2.2,0.9-3.1
			c0.4-0.2,0.9-0.3,1.3-0.2c1.9,0.7,3.2,3.5,5.8,1.9C545.9,88.8,546.5,88.9,547,89.5z"/>
		<path class="st76" d="M547,89.5c-0.9,0-1.8,0-2.8,0c-1.7-0.4-2.7-1.3-2.6-3.1c0.5-1.3,1.7-1.9,2.9-2.4c1.3-0.6,2.9-1.3,4.2-0.5
			c1.6,1,0.3,2.6,0.3,4c-0.4,0.6-0.9,1.3-1.3,1.9C547.5,89.4,547.2,89.5,547,89.5z"/>
		<path class="st77" d="M537.9,90.4c-0.8,1.3,0.2,2.1,0.9,2.9c-2.7,0.3-3.2,3.8-6,4c1-2.3,2-4.5,3-6.8
			C536.6,89.9,537.2,89.9,537.9,90.4z"/>
		<path class="st78" d="M87.1,93.4c1.1-3.9,3.1-7.6,2.9-11.9c1.9-2,0.4-5.2,2.9-7.2c3.9,3.4,8.6,0.9,13.2,1.2c3.4,2,1.2,3.3-0.5,4.7
			c-2.5,2.1-6.2,1.7-8.6,4.4c-1.1,1.3-3,1.5-2.2,3.9c0.3,0.8-1.1,2.3-1.7,2.1C90,89.8,89.4,93.2,87.1,93.4z"/>
		<path class="st79" d="M65,92.3c-0.1-1.4,1.6-2.7,0.6-4.1c-0.8-1.2-1.7,0.1-2.6,0.2c0.2-2-0.8-4.2,0.9-6c1.4-0.4,0.7-3.1,2.8-2.7
			c1.5,0.3,1.1,1.7,1.3,2.8C66.6,85.6,68.6,89.8,65,92.3z"/>
		<path class="st80" d="M130.1,82.5c0.6-0.8,1.2-1.6,1.8-2.3c0.4-0.4,1.1-0.7,1.6-1c0.2,0.8,0.4,1.5,0.6,2.3c1.5,2,1.3,3.7-1,4.9
			c-1.9,1.1,0,3.8-2.1,4.8c-0.4-4.3-2.4-1.3-3.9-0.8c-0.7-3.1,3.1-4.2,3-6.9C130.1,83.1,130.1,82.8,130.1,82.5z"/>
		<path class="st32" d="M109.1,79.5c-1.2,2.7-0.5,6.4-4,7.9C106.2,84.7,106.3,81.4,109.1,79.5z"/>
		<path class="st81" d="M133,86.4c0.9-1.5,1.1-3.2,1-4.9c2.1-1.9-0.2-6.2,4-7c2.1,2,4.6,0.7,7,1c5.5,0.5,5.1,0.8,3.4,5.8
			c-2.3,6.3-8.5,6.5-12.7,9.3C132.8,92.4,133.5,88.2,133,86.4z"/>
		<path class="st67" d="M223.9,92.3c-2.3,0-4.5,0-6.8,0C219.4,90.5,221.7,89.1,223.9,92.3z"/>
		<path class="st66" d="M576,99.3c-2.7-6.1,3.2-3.3,5-4.8c-0.5,1.4-2.6,2.2-1.6,4.1C578.3,98.8,577.1,99,576,99.3z"/>
		<path class="st82" d="M362,83.5c0.4-4.7-3.8-4.1-6.3-4.8c-2.4-0.7-5.2-0.1-7.9-0.2c-1.6,0-3.5,0.5-3.8-2c1,0,2,0,3,0
			c0.7-0.7,1.7-1.2,2.7-1.2c5.5,0.5,10.6-0.8,15.3-3.7c5.2-1.9,10.7-0.8,16.1-1.1c3.6-1.3,7.4,0.3,11-0.9c6,0,12-0.1,18-0.1
			c1.2-0.8,2.5-0.4,3.8-0.3c1.4,2.7,1.1,5-1.3,7c-8.8,0.8-17.5,0.9-26.3,0.5c-3.7-0.2-7.3,0.9-9.8,0.4c3.1,0.3,7.2-0.6,11.4,1.6
			c3.1,1.6,7.9,1.1,11.6-0.7c1.9-0.9,3.6-1.4,5.5,0c2.5,1.8,5.5,1,8.2,0.9c0.5-0.1,1.1,0,1.6,0.1c1.8,1.1,4.1,1.9,3,4.8
			c-5.1,1.2-10.3,1.7-15.5,2.6c-1.4-1.5-3.2-1.5-5-1.5c-5.5,0-10.9,0.1-16.4,0c-5.6,0.3-11.2-0.5-16.7,0.9
			C362.5,86.2,361.1,85.7,362,83.5z"/>
		<path class="st83" d="M414,69.6c-1.3,0-2.7,0-4,0c0.8-1.1,2-1,3.2-1c18.6,0.7,37.2-1.6,55.8-1c0.6,0.6,0.6,1.3,0.3,2
			c-2.2,1.9-5,0.9-7.5,1.3c-1.1,0.2-2.6,0.1-2.9,1.4c-0.3,1.4,1.7,1.1,2.3,2c0.4,0.6,0.4,1.3,0.2,2c-0.3,0.4-0.6,0.7-1,1
			c-1.1,0.7-2.5,1.5-1.4,3c0.9,1.2,2.3,0.9,3.5,0.1c0.7-0.4,1.1-1.2,1.9-1.5c0.8-0.1,1.6,0.1,2.1,0.8c0.7,1.4,0.6,2.7-0.5,3.9
			c-2.2,1.5-4.7,1.2-7.1,1.2c-4.1,0-8.1-0.1-11.9,1.8c-1.8-1.8-1.5-4-0.9-6.2c1.7-3.1,5.5-1.2,7.9-3.1c-1.9-2.9-5.1-0.5-7.2-1.9
			c-1.2-4.4-4.1-5.5-8.4-4.2c1,2,5.4,0.9,4.3,4.6c-0.4,0.3-0.9,0.6-1.4,0.7c-4.5,0.4-9,0.6-13.4-0.1c-0.5-0.2-1-0.5-1.3-0.9
			c-1-3.5-3.3-5-7-4.6C417.7,71,415.6,71.2,414,69.6z"/>
		<path class="st84" d="M494,67.7c11.6,0,23.2,0,35.1,0c-1.5,1.7-2.9,3.3-4.2,4.8c-2.1,5.9-3,11.9-0.9,18.1
			c-0.3,2.3-1.4,4.2-3.9,4.2s-3.1-1.9-3.1-4c0.1-0.5,0.3-0.9,0.5-1.4c1.9-1.7-0.6-1.4-1-2.2c-0.5-0.8-0.6-1.7-0.6-2.6
			c2.1-2.2,2.2-4.3-0.5-6.2c-0.6-3.4,1.7-5,4.5-6.8c-4.3,2.2-8.2-0.9-12.1,0.4c-3-1.4-6.1-0.1-9.1-0.5c-1.7-0.4-3.5-0.6-5-1.8
			C493.4,69,493.3,68.3,494,67.7z"/>
		<path class="st85" d="M494,67.7c0,0.6,0,1.2,0,1.9c-2.8,2.4-6.2,1.2-9.4,1.5c-3.1-0.1-2,2.8-3,4.2c-1.2,1.4-2.6-1-3.8,0.3
			c-0.9,0.1-1.8,0.2-2.7,0c-0.4-0.1-0.8-0.3-1.2-0.6c-1-1.6-2.1-3.1-4.2-3.7c-0.6-0.4-1-0.8-0.7-1.6c0-0.7,0-1.3,0-2
			c5.9-1.4,11.7,0.8,17.6,0.2C489,67.5,491.5,67.7,494,67.7z"/>
		<path class="st68" d="M364.9,71.7c-4.6,6.8-11.6,4.5-17.9,4.8c-0.3-1.3-0.7-2.6-1-3.8C352.2,70.9,358.6,71.5,364.9,71.7z"/>
		<path class="st86" d="M528.8,80.4c-1.3-0.3-2.5-0.6-3.8-1c-0.4,0.3-0.8,0.2-1.2-0.1c-0.1-0.5,0-0.9,0.3-1.2
			c0.8-0.6,2.6-0.7,1.5-2.5c-0.1-0.4,0-0.8,0.2-1.2c3.6-3,6.8-6.9,12.4-4.1c3,1.5,0.7-2.7,2.6-2.6l0.2-0.1c0.8,0.9,1.1,1.9,0.8,3
			c-1.1,1.8-3.6,3-2.8,5.8c-0.2,0.1-0.4,0.3-0.6,0.4c-3.3-2.7-5.7-1.9-7.7,1.6C530.3,79.2,529.8,80,528.8,80.4z"/>
		<path class="st82" d="M282,74.6c-21.1,0-42.2-0.1-63.3-0.1c8.1-1.3,16.2-0.2,24.3-1c0.7,0,1.3,0,2,0c10.6-0.6,21.2-0.6,31.7,0
			C278.4,74,280.5,72.9,282,74.6z"/>
		<path class="st87" d="M525.8,74.4c0.1,0.3,0.1,0.7,0.2,1c0,1.5-1.2,2.2-2.1,3.2l0.1-0.1c0.5,4-1,8.6,3.5,11.4
			c0.4,1,0.2,1.9-0.6,2.7c0,0.3,0,0.6,0,0.9c-2.3,0.2-2.9-1.8-4-3.2c-2.3-6.3-2.6-12.3,1.9-17.8C525.2,73.1,525.5,73.8,525.8,74.4z"
			/>
		<path class="st24" d="M276.8,73.4c-10.6,0-21.2,0-31.7,0c3.3-1.8,6.8-0.8,10.1-0.8c7.4-0.1,14.8,0.1,22.3,0.1
			C277.2,72.9,277,73.2,276.8,73.4z"/>
		<path class="st83" d="M392,69.7c-3.5,2-7.4,0.4-11,0.9C384.5,68.5,388.3,70.1,392,69.7z"/>
		<path class="st88" d="M559.1,82.6c0-1.1,0-2.1,0-3.2c2.9-3.5,7-2.6,10.8-3c4.1-0.4,5.6,1.5,6.1,5.1c0,0.3-0.1,0.6-0.1,0.9
			C571.6,85.4,562.8,85.5,559.1,82.6z"/>
		<path class="st89" d="M580.8,93.4c-2,0-4.1-0.1-6,1c-3.8-1.3-8.2,0-11.8-2.6c-1.4-1-2.6,1.2-4.1,0.6c0-1.3,0-2.6,0-3.9
			c4.9,0,9.8,0,14.8,0c1.5,0,3.8-0.5,2.3,2.5c-0.9,1.7,0.7,1.2,1.5,1.4c1.9,0.4,2.6-2,4.3-1.9C581.5,91.5,581.2,92.4,580.8,93.4z"/>
		<path class="st90" d="M559.1,82.6c5.6,1.1,11.2,1.2,16.8-0.2c-0.2,3.1-1.9,4.2-5,4.1c-4-0.2-8-0.1-12-0.1
			C558.9,85.2,559,83.9,559.1,82.6z"/>
		<path class="st68" d="M283.9,78c10.5,0,20.3,0,29.9,0c-2.3,3.2-2.2,2.7-6.5,2c-6.2-1-12.5-0.8-18.8,0
			C286.7,80.1,285.5,80,283.9,78z"/>
		<path class="st68" d="M267.8,79.6c3.6-2.6,7.1-2.2,10.7,0C274.9,79.2,271.4,80,267.8,79.6z"/>
		<path class="st91" d="M362,83.5c0.3,0.5,0.9,1.5,1,1.5c5.8-3,12.1-0.8,18-1.4c0.8,1,0.9,2,0.2,3.1c-1.3,0.6-2.6,0.2-3.9,0.6
			c10.1-2.6,20.2,1.1,30.4-0.2c2.1-0.3,4.3-0.1,6.3,1c2.6,5.1,4,5.7,8.6,5c3.2-0.5,2.9-3.9,4.9-5.2c4.9-1.3,9.8-1.1,14.7-0.2
			c2.6,2.3,0.9,3.5-1.2,4.6c-1.4,0.7-3.2,0.5-4.2,2c-2,1.7-4.8-0.7-6.8,1.1c-15.2-0.3-30.4-0.3-45.6-1.2c-7.1-0.4-14.2-0.6-21.4-0.8
			c-4.6-1.4-9.4,0.3-14.1-0.9c-0.6,0-1.3,0-1.9-0.1c1.7-1.4,5.1-1,5-4.6c-2.5-1.1-5.7,0.7-8.2-1.8C350.2,86.7,355.8,83.3,362,83.5z"
			/>
		<path class="st92" d="M476,94.3c-1,1.4-1.7,2.5-4.1,2.2c-4.6-0.5-9.3-0.2-13.9-0.2c-1,0-2,0-3,0c-2.7-1.6-6.1,0.9-8.6-1.6
			c-0.3-0.5-0.5-1.1-0.5-1.6c-0.1-1.8-0.2-3.6,1.2-5c3-1.5,6.2-1.3,9.3-0.4c2.4,1.6,2.2,6,6.7,5.6c3.2-0.3,5.5-0.9,6.2-4.3
			c2.4-1.4,3.2-4.2,5.2-5.9c0.8-0.1,1.5,0.1,2.1,0.8C477.4,87.3,480,91,476,94.3z"/>
		<path class="st70" d="M446.9,94.4c2.2,2.4,5.8-0.4,8,2c-8.4,0.7-16.7-1.4-25-1c1.5-3.3,4.1-0.3,6.1-1
			C439.7,92.3,443.3,92.3,446.9,94.4z"/>
		<path class="st71" d="M348.9,92.5c4.7,0.4,9.5-1.1,14.1,0.9C358.3,93,353.5,94.4,348.9,92.5z"/>
		<path class="st85" d="M498.9,70.6c3,0.6,6.5-2.7,9.1,1.1c1.9,1.6,4.9,2.1,5.4,5.2c-0.4,2.9-1.3,5.4-5,5.1
			c-1.4-0.8-1.1-1.9-0.5-2.9c1.4-2.2-0.1-2.9-1.7-3.6c-1.3-0.4-2,0.2-1.9,1.4c0.3,5.4,0,10.9,0.9,16.3c0.6,0.7,1.3,1.3,1.8,1.9
			c0.2,0.4,0.2,0.8-0.2,1.2c-4.1,0.7-8.3,2.1-11.8-1.7c-1.1-3.1,0.4-5.8,1.3-8.6c0.3-1,1-2.4-0.7-2.9c-1.4-0.4-2.2,0.7-2.6,1.8
			c-1.3,3.4-1.4,7.1-2.4,10.6c-1.8,1.6-3.9,0.5-5.8,0.8c-1.4-1.1-2.4-2.6-3.8-3.7c-3.5-2.8-3.4-3.5,1.2-5.6c1.1,0.1,2,0.8,3.1,0.6
			c2.4-0.1,1.6-1.7,1.4-2.9c-2.1-0.3-4.2-0.6-5.6-2.4c-0.8-0.6-1.5-1.2-1.9-2.1c-0.3-1.3-0.2-2.5,1.4-3c4.3,1.4,8.8,1.1,13.3,1
			c3-0.1,4.2-1.6,3.4-4.5C497.3,72.4,497.9,71.3,498.9,70.6z"/>
		<path class="st93" d="M482.8,87.5c-1.1,0.9-2.9,0.9-3.3,3c2.9,0.9,5.3,2.5,5.5,5.9c-3.1-0.3-6.6,1.4-8.9-2c2.4-3.6-0.8-7.2,0-10.8
			c-0.3-1.7-0.3-3.4,1.6-4.4c0.8-0.1,1.5,0.1,1.8,1.1c0.1,0.3-0.1,1.3,0.6,0.3c0.7,0.3,1.4,0.7,2,1
			C482.8,83.4,484.8,85.2,482.8,87.5z"/>
		<path class="st94" d="M506.9,96.3c0-0.4,0-0.7-0.1-1.1c-0.3-2.1,1.5-3.1,2.5-4.6c0.7-0.7,1.5-1,2.4-1.1c1.3-0.1,2.4,0.8,3.7,0.3
			c0.7-0.3,1.4-0.8,2.3-0.6c0.5,1.7-0.6,4.4,2.1,4.7c2,0.2,2.9-1.7,3.1-3.6c1.3,1.1,2.6,2.1,4,3.2c1.5,1,3.2,2.7-0.1,2.8
			c-6,0.2-12.1,1.2-17.9-0.8C508.2,95.7,507.6,96,506.9,96.3z"/>
		<path class="st95" d="M490.8,95.6c-1.4-4.6,0.6-8.8,1.9-13c0.6-1.8,3.2-1.6,4.9-0.9c2.1,0.8,0.9,2.5,0.5,3.8c-0.9,3.1-2,6.1-3,9.2
			C493.7,95,492.2,95.3,490.8,95.6z"/>
		<path class="st96" d="M549,87.5c-1.5-6-4.4-1.8-6.8-0.9c-0.8,0-1.3-0.4-1.8-0.9c-0.5-0.8-0.9-1.6-0.9-2.6c-0.3-2.9,3.1-2.5,4-4.4
			c-0.9,0.9-1.9,1.4-3.1,0.9c-0.6-0.3-1.1-0.8-1.5-1.3c-0.2-0.4-0.2-0.8,0-1.3c0.1-0.1,0.1-0.3,0.2-0.5c1.7-4.1,4.2-4.3,7.6-1.8
			C551.2,78,552.3,83.5,549,87.5z"/>
		<path class="st97" d="M558.9,92.4c1.8-2.2,3.6-4.6,6.3-0.8c1.1,1.5,3,0.7,4.6,0.8c1.9,0.1,4-0.3,5,2c-5,3.4-10.8,0.6-16,2
			C558.9,95,558.9,93.7,558.9,92.4z"/>
		<path class="st98" d="M541.8,70.6c-1-0.8-1-1.9-0.8-3c1.5,0,3,0,2.9,2.2C543.8,71.5,542.7,70.7,541.8,70.6z"/>
		<path class="st99" d="M538.9,76.9c0,0.2,0,0.4,0.1,0.5c-0.8,1.3-2.2,1.5-3.4,2.1c-3.3,2.3,0.4,3.5,0.8,5.2
			c0.6,0.9,1.4,1.7,1.4,2.9c0.2,0.9,2.2,1.7,0.1,2.7c-0.7,0.1-1.3,0.1-2,0.2v-0.1c-2.6-0.4-2.6-4.7-6-4c-1.9-1.7-0.7-4.1-1.2-6.1
			c0.3-0.8,0.4-1.6,0.8-2.3C532.8,72.3,535.3,72,538.9,76.9z"/>
		<path class="st100" d="M526.9,89.4c-1.1,0.6-2.3,0.9-2.7-0.7c-1-3.4-2.3-6.8-0.2-10.2c0.3,0.3,0.7,0.6,1,0.9
			c0.3,0.7,0.6,1.4,1,2.1c2.2,1.4-0.2,2.7-0.1,4.1c0.1,1.5,0.2,3,2.3,2.9C528.2,89.3,527.9,89.8,526.9,89.4z"/>
		<path class="st101" d="M530,86.5c0.1-0.9-0.3-2.2,0.8-2.6c1.1-0.4,1.3,0.8,1.6,1.4c1.1,1.8,3.2,2.8,3.6,5.1
			C532.7,91,531.8,88,530,86.5z"/>
		<path class="st102" d="M526.9,89.4c0.4-0.3,0.8-0.7,1.2-1c2.4,0,2.4,2.7,2.3,3.4c-0.4,2.2-2.3,0.4-3.5,0.7
			C526.9,91.5,526.9,90.5,526.9,89.4z"/>
		<path class="st103" d="M525.9,85.6c-0.5-0.1-1.3-0.2-1.3-0.4c-0.4-1.5,0.9-2.5,1.4-3.7C529.5,83,527.5,84.3,525.9,85.6z"/>
		<path class="st104" d="M541.1,85.4c0.4,0.4,0.7,0.8,1.1,1.2c0.3,1.3,1.1,2.2,2.1,3c-4.3,4.8-3-2.6-5.3-2.3
			C538.9,85.8,539.4,84.9,541.1,85.4z"/>
		<path class="st105" d="M541.1,85.4c-0.7,0.6-1.4,1.2-2.1,1.9c-0.4,0.1-0.8,0.3-1.1,0.4c-0.7-0.7-1.4-1.4-2.1-2.1
			c-0.3-1.2,0.1-2.2,0.8-3.1c0.4-0.3,0.8-0.5,1.2-0.5c1,0,1.7,0.5,2.2,1.3C540.9,83.7,540.9,84.6,541.1,85.4z"/>
		<path class="st106" d="M413.9,79.5c-3.8,0.7-7.9,3.3-10.9-1.6c-0.4-0.6-1.1-0.3-1.7,0.2c-4.6,4.1-11.7,3.8-14.9,1.7
			c-5-3.3-9.8-1.2-14.9-2.9c14.1-2.2,27.8-1.4,41.4-1.5C414,76.7,413.8,78.1,413.9,79.5z"/>
		<path class="st107" d="M413.9,88.4c-13.3,0-26.5,0-39.8,0c0-0.7,0-1.3,0-2c2.3,0,4.5,0,6.8,0c2.8-2.1,6-1.2,9.1-1.4
			c3.3-0.2,6.6,0.6,9.8-0.7c2.2-0.9,2.4,1,3.1,2.1c4.3-4.6,9.9-2.3,15-3.1c1-0.4,1.8,0.1,2.6,0.7c1.2,1.1,2.5,2.2,2.7,3.9
			c-0.1,0.5-0.4,0.8-0.8,1.1c-1.3,0.6-2.7,0.5-4.1,0.2C416.9,88.8,415.4,88.7,413.9,88.4z"/>
		<path class="st108" d="M413.9,79.5c-2.3-0.9-0.9-2.6-1-4c0.8-1.9-0.3-4.1,1-5.9c2.4,0,4.9,0.2,7.3-0.1c4.6-0.5,6.3,1.4,5.6,5.8
			c-2.2,3.9-5.5,1.2-8.4,1.4c-1.8-0.2-2.4,1.1-3.1,2.3c-0.2,0.1-0.3,0.3-0.5,0.4C414.6,79.5,414.3,79.5,413.9,79.5z"/>
		<path class="st109" d="M403,86.4c-0.6-0.5-1.5-1.6-1.8-1.4c-6.6,3-13.5,0.7-20.2,1.4c0-1,0-2,0-2.9c6.1,0,12.1,0,18.2,0
			C401.3,83.4,403.2,83.6,403,86.4z"/>
		<path class="st78" d="M419.9,84.6c-0.7-0.4-1.3-0.8-2-1.2c-1-1.3-2-2.6-3-3.9l0,0c1-0.8,1.4-2.5,3.1-2.3c1.8,0.7,3.4,1.8,4.7,3.2
			C424.5,83.5,422.8,84.4,419.9,84.6z"/>
		<path class="st7" d="M468.9,69.6c0.3,0.3,0.7,0.7,1,1c1.2,1.2,1.3,2.8,1.3,4.3c0,0.5,0,1,0,1.5c-0.4,3.2-1.6,5.9-4.7,7.5
			c-0.2-0.1-0.4-0.3-0.6-0.4c0-1.3,0-2.7,0-4c-0.6-2.7-2.8-3.8-4.9-4.9c-1.6-0.6-4.6,1.3-4.7-1.8c0-2.5,2.7-3,4.8-3.2
			C463.7,69.4,466.3,69.6,468.9,69.6z"/>
		<path class="st110" d="M457,88.4c-3.3,0-6.6-0.1-9.9-0.1c-0.6-0.6-0.6-1.2-0.1-1.9c1.1-2.1,2.6-3.2,5.3-3.1
			c4.5,0.3,9.1,0.1,13.7,0.1l0,0c1.2,1.3,1.3,2.7,0.8,4.3c-0.2,0.5-0.5,0.9-0.9,1.2c-1.4,0.7-2.8,0.6-4.3,0.4
			C460,88.9,458.3,89.6,457,88.4z"/>
		<path class="st111" d="M421.9,80.5c-1.5-0.8-3.1-1.4-4-3c-0.6-0.7-0.6-1.4,0-2c3-0.5,6,1.6,9-0.2l0.1,0.2c5,1.5,10,0.4,15-0.1
			c0.3,0,0.6,0,1,0c0.2,0.2,0.3,0.5,0.5,0.7c0.3,2.6-1.2,3.9-3.6,4.4C433.9,81.9,427.9,82.7,421.9,80.5z"/>
		<path class="st112" d="M446.9,86.5c0,0.6,0.1,1.3,0.1,1.9c0,1.7-0.1,3.4-0.1,5c-3.9,0.7-2.8-2.2-3-4.2c0.8-3.1,0.2-5-3.7-4.4
			c-2,0.3-4.1,0.3-4.1-2.7c3.5-2.1,6.9-4.5,11-5.7c0.7,1,0.8,2.1,0,3.1C447,81.8,447,84.1,446.9,86.5z"/>
		<path class="st112" d="M442.9,75.6c-0.8-2.2-2.8-1.8-4.6-2.2c-1.5-0.3-3.1-1.2-2.8-2.9c0.2-1.5,1.9-0.8,3-0.9
			c0.8-0.1,1.7,0.1,2.5,0c4.8-0.8,6.8,1.2,5.9,6c-0.2,0.1-0.4,0.2-0.5,0.3C445.2,75.6,444,76.8,442.9,75.6L442.9,75.6z"/>
		<path class="st113" d="M447.1,79.4c-0.1-1-0.1-1.9-0.2-2.9c-0.3-0.2-0.4-0.5-0.3-0.7c0.1-0.2,0.2-0.3,0.3-0.3l0,0
			c2.1-1.2,4.4-1.1,6.7-0.8c1.5,0.2,2.2,1.2,2.3,2.7c0,1.8-1.2,2.3-2.6,2.1C451.2,79.1,449.1,80.5,447.1,79.4z"/>
		<path class="st31" d="M463.9,79.5c0.3,4-2.6,2.9-4.7,2.9c-2.1,0-2.2-1.5-2.2-3.1c-0.1-3,1.9-2.9,4-2.8
			C462,77.4,463,78.4,463.9,79.5z"/>
		<path class="st111" d="M463.9,79.5c-2.2,0.2-3.1-0.8-3-2.9c0-0.7,0.1-1.3,0.1-2c3.7-0.4,6.5,0.1,4.9,4.9
			C465.2,79.5,464.6,79.5,463.9,79.5z"/>
		<path class="st114" d="M441.9,75.5c-4.3,2.1-9.1,1.1-13.6,1.8c-0.9,0.1-1.2-0.9-1.4-1.7C432,75.6,436.9,75.6,441.9,75.5z"/>
		<path class="st115" d="M498.9,70.6c-0.3,1-0.7,2-1,3c-2,0.8-1,3.8-3.3,4.5c-2.8,0.8-5.7-0.3-8.1-0.7c-2.2-0.4-5.6-3.7-3.6-7.7
			c3.7-0.1,7.4-0.1,11.1-0.2C495.7,69.5,497.4,69.6,498.9,70.6z"/>
		<path class="st116" d="M515.9,90.8c-1.6,3.5-2.5-1.8-4-0.4c-1.5-1.5-1.2-4.8-4.5-4.6c-4.7-3.3-4.8-8.2-0.2-10.3
			c1.9,1.7-0.6,4,0.8,5.8c3.5,0.2,4-2.6,4.9-5c1.4,0.2,2.2,1.4,3.4,2c4.5,3,4.5,3,0.5,6.2c-2.1,0.1-2.6,1.1-1.4,2.7
			C516.2,88.5,516.8,89.4,515.9,90.8z"/>
		<path class="st117" d="M516.2,78.4c-1.6,0.2-3.2,0.2-3.4-2c-1.2-2-4.9-1.5-4.9-4.7c1.4-0.7,2.6-2.3,4.4-1.2c3,1.8,5.9,1,8.8-0.6
			C521.3,74.1,515.1,74.1,516.2,78.4z"/>
		<path class="st118" d="M515.9,90.8c0.2-1.6-1-1.9-2.1-2.6c-1.9-1.3-0.9-3.2,0.4-4.6c1.8-2,1.8,0.5,2.5,1.1
			c0.1,0.9,0.1,1.9,0.2,2.8c0.6,0.4,1.5,0.8,0.7,1.8h0.1C517.1,89.8,516.5,90.3,515.9,90.8z"/>
		<path class="st87" d="M517.7,89.2c-0.2-0.6-0.5-1.2-0.7-1.8c1.3-0.4,3.1-2,3.7,0.1C521.3,89.9,519,89.3,517.7,89.2z"/>
		<path class="st119" d="M482.9,69.7c-0.4,3,3,4.2,3.4,6.9c0,0.2,0.5,0.3,0.8,0.5c1.6-3.8,3.1-1,4.7,0.1c-0.5-2.4,4.9,3.1,2.9-2.2
			c-0.8-2,2.1-1,3.3-1.4c5.1,2.4,0.1,4.2-0.8,5.3c-1.4,1.9-14.1,0.4-16.2-1.4c-0.4-0.6-0.2-1.3,0-1.9
			C481.7,73.6,479.2,70.7,482.9,69.7z"/>
		<path class="st83" d="M466,88.5c0-1.7,0-3.3,0-5c2.3-1.8,4.1-3.8,4-7c2.4,1.3,3.9,0.1,5-2c1,0,2,0,3,0c0.8,1.6,1.4,3.3,0,4.9
			c-1.7,0.8-0.4,3.1-2,4c-0.7,0-1.4,0-2.1,0c-1.1,1.1-2.7,1.5-3.4,3C469.4,88,468.5,90.2,466,88.5z"/>
		<path class="st109" d="M474.9,74.5c-1.1,1.4,1,4.1-1.7,4.8c-2.3,0.7-2-2.1-3.3-2.9c0-0.3,0-0.7,0-1c1-1.7,2.3-2.2,4-1.1
			C474.3,74.5,474.6,74.5,474.9,74.5z"/>
		<path class="st109" d="M478,79.5c0.3-1.6-1.1-3.3,0-4.9c1.5-1.3,2.1,0.5,3,1c1.1,0.7,0.1,1.3,0,1.9c-1.2,0.7-1,1.9-1,3
			c-0.1,0.7-0.1,1.5-0.2,2.5C478.5,81.8,479.3,80.1,478,79.5z"/>
		<path class="st83" d="M474,74.5c-1.5-0.1-2.8,0.3-4,1.1c0-1.7,0-3.3,0-5C472.8,70.3,474.1,71.7,474,74.5z"/>
		<path class="st120" d="M523.9,78.6c-0.1-1.6,0.8-2.5,2.1-3.2c1.1,0.3,2.6,0.6,2.2,1.9C527.5,79.3,525.5,78.5,523.9,78.6z"/>
		<path class="st121" d="M413.9,88.4c1.4-1.4,2.7-1.4,4,0c1.7,2.6,3.3,2.1,5,0l0,0c1-1,2.2-1.1,3.5-0.5c0.2,0.2,0.4,0.4,0.5,0.5
			c-0.2,6-0.2,5.6-7.7,6.1C413.9,94.9,413.6,92.3,413.9,88.4z"/>
		<path class="st122" d="M444.9,88.4c0.5,1.7-1.2,4.4,2,5c0,0.3,0,0.7,0,1c-3.7,0-7.3,0-11-0.1c-0.3-2.5,1.2-3,3.3-3
			c2,0.1,3.5-0.6,3.7-3c0.1-0.1,0.3-0.3,0.4-0.4C443.9,87.8,444.5,87.9,444.9,88.4z"/>
		<path class="st123" d="M442.9,88.4c-5.3,0-10.7,0-16,0l0,0c-0.6-0.8-0.5-1.6,0.1-2.3c2.6-1.6,5.5-1.1,8.3-1c1.7,0,3.3,0.2,4.9-0.3
			C444.7,83.3,444.3,85.4,442.9,88.4L442.9,88.4z"/>
		<path class="st124" d="M466,88.5c2.6,0.6,2.8-1.8,3.9-3c0.9,1,0.8,1.9,0.1,2.9c-0.2,6-0.2,5.8-7.3,6c-4.7,0.2-6.5-1.5-5.8-6
			c1.3,0.2,2.7-1.9,4,0C462.6,90.4,464.3,90.4,466,88.5L466,88.5z"/>
		<path class="st125" d="M470,88.4c0-1,0-2-0.1-2.9c0.3-2.6,2.4-1.8,4-2C473.3,85.7,474.7,89.4,470,88.4z"/>
		<path class="st126" d="M506.9,75.5c-2,3.6-3.1,7.1,1.1,10c1.3,1.3,1.1,2.9,0.8,4.5c-0.8,2-1.7,3.9-4.1,4.5
			c-1.6-0.8-2.1-2.5-1.7-3.7c1.5-4.8-0.4-9.6-0.2-14.3c0.2-3.3,1.5-4.1,4.2-2C507.4,74.9,507.3,75.2,506.9,75.5z"/>
		<path class="st127" d="M482.8,87.5c-0.3-2-0.5-4-0.8-5.9c1.4-0.6,2.5,3,4.4,0.2c0.4-0.6,1.5,1.5,1.5,2.8c-0.5,1.6-1.4,3-3,3.8
			C483.2,90.6,483.3,88.3,482.8,87.5z"/>
		<path class="st128" d="M506.9,75.5c0.1-0.3,0.1-0.7,0.2-1c5.4,1.6,2.6,4.4,0.9,6.9C506,79.7,507.4,77.5,506.9,75.5z"/>
		<path class="st129" d="M504.7,94.6c1-1.3,2-2.7,3.1-4c0.9-0.1,1.6,0.2,2.1,1c-1,1.2-2,2.5-3,3.7C506,95.4,505.2,95.3,504.7,94.6z"
			/>
		<path class="st130" d="M484.9,88.3c1-1.3,2-2.5,3-3.8c0.4,1.5,1.8,3.2,0.5,4.6C487.2,90.3,486.2,88,484.9,88.3z"/>
		<path class="st131" d="M509.9,91.5c-0.8-0.1-1.7-0.1-2.1-1c0.1-1.7,0.2-3.3,0.2-5c7-2.9,2.7,3.2,4,4.9
			C511.1,90.5,510.3,90.6,509.9,91.5z"/>
		<path class="st132" d="M540,83.2c-0.9,0.3-1.2-0.6-1.8-1c-0.8-1.9,0-3,1.7-3.8c2.6,2.2,2.6-2.4,4.7-1.8c1,0.9-1,1.4-0.3,2.3
			c1.6,2.4,1.4,3.3-1.7,2.1C540.7,80.4,540.8,82.4,540,83.2z"/>
		<path class="st133" d="M539.9,78.5c-0.6,1.3-1.2,2.5-1.7,3.8c-0.5,0.1-1,0.1-1.5,0.2c-2.3-0.6-2.8-1.9-1.7-3.9
			c1.1-1.2,2.6-1.1,4-1.1C539.3,77.8,539.6,78.1,539.9,78.5z"/>
		<path class="st134" d="M534.9,78.5c0,1.6,0.9,2.8,1.7,3.9c0.4,1.3-0.6,2.1-1,3.1C535,83.2,529.1,81.5,534.9,78.5z"/>
		<path class="st135" d="M427,86.5c0,0.7,0,1.3-0.1,2c-1.3,0-2.6,0-4,0c-1-1.3-2-2.6-3-3.9c0.8-1.3,4.2-1.3,2-4
			c5.5-0.9,11,0.6,16.5-0.8c2.7-0.7,4.2-1.4,4.4-4.1c1.3-0.1,2.7-1,4-0.1c0,0.3,0,0.7,0,1c-3.3,2-6.7,4-10,6c-3.4,3.8-7.4,2-11,1.5
			C426.3,84.5,427.6,85.1,427,86.5z"/>
		<path class="st135" d="M423,88.4c0.3,2.5-1.1,3.8-3.3,3.7c-2.5-0.1-1.4-2.3-1.7-3.7C419.6,88.4,421.3,88.4,423,88.4z"/>
		<path class="st82" d="M418,75.5c0,0.7,0,1.3,0,2c-1,0.6-1.4,2.1-3,1.9C414.9,77.4,414.8,75.2,418,75.5z"/>
		<path class="st136" d="M466,88.5c0.1,1.9-0.6,3-2.8,2.9c-2.1-0.1-2.3-1.4-2.3-2.9C462.6,88.5,464.3,88.5,466,88.5z"/>
		<path class="st111" d="M427,86.5c-0.8-1-1.5-2.1-2.6-3.5c4.4,0.3,8.6,1.4,12.5-0.4c1.2,2.9,3.5,0.8,5,0.8c4.4,0,4.8,1.7,3,5
			c-0.7,0-1.3,0-2,0c-0.2-1.5,1.4-3.8-2.7-2.3C436.3,87.5,431.4,86.5,427,86.5z"/>
	</g>
</g>
</svg>
