<?xml version="1.0" encoding="utf-8"?>
<!-- Generator: Adobe Illustrator 25.0.0, SVG Export Plug-In . SVG Version: 6.00 Build 0)  -->
<svg version="1.1" xmlns="http://www.w3.org/2000/svg" xmlns:xlink="http://www.w3.org/1999/xlink" x="0px" y="0px"
	 viewBox="0 0 538 164.9" style="enable-background:new 0 0 538 164.9;" xml:space="preserve">
<style type="text/css">
	.st0{display:none;}
	.st1{display:inline;fill:#10E510;stroke:#000000;stroke-miterlimit:10;}
	.st2{fill:#383F41;}
	.st3{fill:#343A39;}
	.st4{fill:#818685;}
	.st5{fill:#2F2F2C;}
	.st6{fill:#4C5353;}
	.st7{fill:#827E72;}
	.st8{fill:#464F50;}
	.st9{fill:#A8A292;}
	.st10{fill:#F1E4BD;}
	.st11{fill:#2F3638;}
	.st12{fill:#1B1F20;}
	.st13{fill:#212627;}
	.st14{fill:#101313;}
	.st15{fill:#171B1C;}
	.st16{fill:#141718;}
	.st17{fill:#3C4345;}
	.st18{fill:#24292A;}
	.st19{fill:#454E4F;}
	.st20{fill:#121415;}
	.st21{fill:#839296;}
	.st22{fill:#181B1C;}
	.st23{fill:#41494A;}
	.st24{fill:#58554D;}
	.st25{fill:#605C51;}
	.st26{fill:#31302C;}
	.st27{fill:#C4BDAE;}
	.st28{fill:#16191A;}
	.st29{fill:#282E30;}
	.st30{fill:#0A0B0B;}
	.st31{fill:#393F3F;}
	.st32{fill:#6E6A61;}
	.st33{fill:#4C504E;}
	.st34{fill:#54514A;}
	.st35{fill:#7A766B;}
	.st36{fill:#848074;}
	.st37{fill:#768387;}
	.st38{fill:#667175;}
	.st39{fill:#434C4E;}
	.st40{fill:#2E3435;}
	.st41{fill:#141515;}
	.st42{fill:#050606;}
	.st43{fill:#657174;}
	.st44{fill:#040404;}
	.st45{fill:#030404;}
	.st46{fill:#020202;}
	.st47{fill:#707E81;}
	.st48{fill:#373F41;}
	.st49{fill:#262C2E;}
	.st50{fill:#485153;}
	.st51{fill:#555F61;}
	.st52{fill:#3B4241;}
	.st53{fill:#2A3032;}
	.st54{fill:#2C3335;}
	.st55{fill:#2B3234;}
	.st56{fill:#2B3133;}
	.st57{fill:#010101;}
	.st58{fill:#2C3234;}
	.st59{fill:#829095;}
	.st60{fill:#40484B;}
	.st61{fill:#4E4C45;}
	.st62{fill:#847F74;}
	.st63{fill:#212628;}
	.st64{fill:#333B3D;}
	.st65{fill:#2B3031;}
	.st66{fill:#2D3435;}
	.st67{fill:#0D0F0F;}
	.st68{fill:#535E60;}
	.st69{fill:#5C676A;}
	.st70{fill:#090A0B;}
	.st71{fill:#2B3030;}
	.st72{fill:#2F3535;}
	.st73{fill:#757167;}
	.st74{fill:#A6A091;}
	.st75{fill:#2B2A27;}
	.st76{fill:#736F64;}
	.st77{fill:#282724;}
	.st78{fill:#615D54;}
	.st79{fill:#E9E1CF;}
	.st80{fill:#030303;}
	.st81{fill:#495254;}
	.st82{fill:#131313;}
	.st83{fill:#1E2223;}
	.st84{fill:#676D66;}
	.st85{fill:#1F2323;}
	.st86{fill:#908B7E;}
	.st87{fill:#656158;}
	.st88{fill:#535048;}
	.st89{fill:#1B1A19;}
	.st90{fill:#EEE5D3;}
	.st91{fill:#928D80;}
	.st92{fill:#ACA697;}
	.st93{fill:#C9E0E9;}
	.st94{fill:#566063;}
	.st95{fill:#1F1E1C;}
	.st96{fill:#5E5D58;}
	.st97{fill:#7B898D;}
	.st98{fill:#6A665D;}
	.st99{fill:#808E93;}
	.st100{fill:#53524B;}
	.st101{fill:#717E82;}
	.st102{fill:#758287;}
	.st103{fill:#736F65;}
	.st104{fill:#868175;}
	.st105{fill:#7F8D91;}
	.st106{fill:#94A4AA;}
	.st107{fill:#B5AE9E;}
	.st108{fill:#7C8A8E;}
	.st109{fill:#819094;}
	.st110{fill:#394040;}
	.st111{fill:#373E3D;}
	.st112{fill:#383E3E;}
	.st113{fill:#1D2222;}
	.st114{fill:#1E2222;}
	.st115{fill:#3A4140;}
	.st116{fill:#859498;}
	.st117{fill:#A9A395;}
	.st118{fill:#000101;}
	.st119{fill:#090B0B;}
	.st120{fill:#060808;}
	.st121{fill:#8F8A7D;}
	.st122{fill:#3B3B36;}
	.st123{fill:#79756A;}
	.st124{fill:#C0B8A9;}
	.st125{fill:#A7B7BC;}
	.st126{fill:#777268;}
	.st127{fill:#C8C1B1;}
	.st128{fill:#DED6C5;}
	.st129{fill:#746F65;}
	.st130{fill:#F5EFDE;}
</style>
<g id="Camada_2" class="st0">
	<rect class="st1" width="538" height="164.9"/>
</g>
<g id="Camada_1">
	<g>
		<path class="st2" d="M1.2,81.9c-0.3,0.1-0.7,0.1-1,0.2c0-22.3,0-44.5,0-66.8c3.3-1.6,6.7,2,10.3-0.6c-1.7-1.7-3.8-1.6-5.8-1.3
			c-1.7,0.2-3.3,0.5-4.5-1.1c0-1.3,0-2.7,0-4c2.6-2.1,5.7-1.7,8.5-1.4C15.1,7.6,21.5,7.7,27.9,8c1,0.2,1.9,0.5,2.6,1.1
			c1.2,1.3,1.8,2.8,1.9,4.5c0.2,9.2,0.3,18.4-0.1,27.6c0,1-0.4,1.9-1,2.8c-1.1,1.5-2.5,2.2-4.4,2.4c-2.1,0-3.6-0.9-3.5-3.2
			c0.1-8.3-4.8-14.1-9.8-19.9c-0.8-0.9-1.8-1.5-3.1-1.3c-1.2,0.1-2.3,0.1-3.5,0.1C3.6,22,2.3,23.7,2.4,27c0.1,8.4,0,16.8,0.1,25.3
			c0.2,8.1,0.1,16.2,0.1,24.3C2.7,78.3,2.7,80.3,1.2,81.9z"/>
		<path class="st3" d="M164,0.2c0.2,0.2,0.3,0.4,0.1,0.7c-0.5,3.3-4.8,6.1-8.3,5c-3.8-1.3-7.5-1.2-11.3-1.2
			c-29.1,0-58.2-0.2-87.3,0.2C49.4,5,41.4,4.5,33.7,6.1c-1.9,0.4-2.3-0.7-2.6-2.1c-0.2-1.7,0.5-3,2-3.9C76.7,0.2,120.4,0.2,164,0.2z
			"/>
		<path class="st4" d="M279.9,2.2c0.3-0.7,0.7-1.3,1-2c83.6,0,167.2,0,250.8,0c0.9,0.7,1.9,1.3,0.6,2.5c-6.6,0.8-13.2,0.4-19.8,0.3
			c-18.9-0.1-37.8-0.1-56.7,0c-13.4,0.1-26.9,0.1-40.3,0c-16.3,0-32.5,0-48.8-0.1c-18.4-0.1-36.9,0-55.3,0c-9.1,0-18.3-0.3-27.4,0.2
			C282.6,3.3,281.1,3.5,279.9,2.2z"/>
		<path class="st5" d="M537.8,34.2c-3.3,0.5-5.3,1.1-4.5,5.6c0.7,3.6,1.2,7.7-0.4,11.5c-1.9-2.9-3.4-5.9-4.9-9
			c-0.2-0.7-0.4-1.4-0.6-2.1c-0.5-1.8-2.2-1.6-3.5-2c-1.9-0.5-3-1.7-3.3-3.6c-0.2-2.8-0.1-5.5-0.1-8.3c0-2.3-0.1-4.5,0.2-6.8
			c0.9-1.5,0.1-4.8,3.6-3.8c1.4,2.7,0.7,5.5,0.8,8.3c0.1,2.3,0.8,3.2,2.9,1.5c1.7-0.8,3.5-0.7,5.4-0.6c2.2,0.1,3.4,1.5,4.4,3.2
			C537.8,30.2,537.8,32.2,537.8,34.2z"/>
		<path class="st6" d="M218,164.8c-0.6-1.4-2-0.8-3-1.2c-3-1.4-1.6-3.7-1.3-5.8c0.5-2.1,1.3-4,2.6-5.8c0.3-0.3,0.7-0.6,1-0.9
			c1.8-2.9,2.4-6.4,4.2-9.3c0.8-1.3,1.1-3.4,3.5-2c-0.5,5-3.2,9.2-4.6,13.9c-0.7,2.3-1.8,4.4,2,5.7c4.7,1.6-0.2,3.6-0.4,5.4
			C220.7,164.8,219.3,164.8,218,164.8z"/>
		<path class="st7" d="M529.7,15.3c2.8-0.9,5.3,0.8,8,0.9c0,0.7,0,1.3,0,2c-0.8,0.5-1.7,0.4-2.6,0.4c-1,0.2-2,0-3.1,0.7
			c2.5,1.7,3.3,4,1.8,6.7c-2,0-4,0-6,0C526.8,22.2,524.8,18.1,529.7,15.3z"/>
		<path class="st8" d="M0.1,12.2C3.1,13,6,11,9,12.1c1.4,0.5,2.9,0.2,3.1,2.3c0.2,2.5-1.6,1.5-2.7,2c-3.5,1.7-6.2-0.6-9.3-1.2
			C0.1,14.2,0.1,13.2,0.1,12.2z"/>
		<path class="st9" d="M533.8,26.1c0.2-3.4-0.8-6-5.3-6.2c2.3-2.8,5.1-1.9,7.3-2.6c0.8,1-2.6,2.3,0.5,3.6c1.7,0.7,0.4,3.7,1.5,5.4
			c0,0.7,0,1.3,0,2C536.4,27.6,535.6,25.9,533.8,26.1z"/>
		<path class="st10" d="M537.8,26.2c-1.8-1.7-0.4-5.2-3.7-6.3c-0.6-0.2,1.5-1.5,1.8-2.7c0.7,0.3,1.3,0.6,2,1
			C537.8,20.9,537.8,23.5,537.8,26.2z"/>
		<path class="st11" d="M225,139.9c-4.1,3-4.4,7.9-6.2,12c0,0.1-0.3,0.2-0.4,0.1c-0.1,0-0.3-0.2-0.4-0.3c-1.6-2-0.7-4,0.1-5.9
			c1.2-2.9,1.9-5.9,3-8.7c4.3-9.9,6.9-20.1,6.6-31.1c-0.2-7.2,0.3-14.6,4.9-20.8c0.5-0.6,1-1.4,0.4-2.6c-2-0.2-3.9,0.5-5.9,1.4
			c-0.7,0.6-1.4,1.3-2.2,1.8c-2.7,1.4-5.5,2.6-8.5,2.3c-4.3-0.5-5.8,1.9-5.9,5.5c-0.2,5.5-2.6,9.8-6.1,13.7c-3.8,0.9-4,3.2-2.5,6.2
			c0.4,2.3-0.7,4.2-1.6,6.1c-5.7,12-12.3,23.6-14.3,37c-0.2,1.1-0.2,2.9-2.3,2.4c-0.3,0-0.7,0.1-1,0.1c-8-0.2-7.8-0.2-6.1-7.7
			c3.3-14.7,7.8-28.9,15.7-42c2.4-4,5.5-7.4,8.6-10.8c4.2-4.8,7.3-9.7,3.8-16.2c-1-2.8-3.6-3.8-5.8-5.3l0,0
			c-1.6-3.2,0.4-3.9,2.9-3.7c3,0.2,5.8,1.3,8.4,2.8c0.1,0.1,0.2,0.2,0.4,0.3c1.4,0.9,0.2,3.6,2.3,3.8c2.5,0.2,1.9-2.6,3.3-3.7
			c1.1-0.6,2.3-0.6,3.4,0c0.6,0.4,0.7,1,0.9,1.6c0.3,0.9,0.4,2.1,1.8,1.8c0.9-0.2,1-1.1,1.1-1.9c0.1-0.9-0.1-2,0.9-2.6
			c4.7-1.4,9.6-0.4,14.4-0.7c2.8-0.2,5.9,0.5,7.2-3c1.3-3.7-1.2-5.5-3.9-7.1c-0.4-0.4-0.6-0.8-0.6-1.3c1-2.6,2.8-1.2,4.4-1
			c3.9,2,8.2,3.3,10.3,7.9c1,2.3,2.6,1,3.9-0.3c2.7-2.8,5.2-4.4,8.4-0.1c2.1,2.7,4.2,1.6,5-2c0-1.6-0.1-3.3,0.4-4.9
			c0.5-1.7,1.3-3.2,3.4-1.6c1.4,2.3,0.8,4.8,1,7.3c0.2,1.8-0.6,4.5,2.6,4.3c2.6-0.1,5-0.9,5.5-4c0.4-2.1,0-4.3,0.6-6.4
			c2.2-3.4,2.9-0.5,3.2,1c0.6,3,1.4,5.7,3.6,7.9c0.7,5,0.1,5.6-6.4,6c-8.8,0.3-17.7-0.2-26.5,0.3c-2.4-0.2-4.9-0.4-7.3-0.4
			c-4.6-0.8-7.1,0.8-8,5.6c-0.8,4.3-4.3,7.9-3.8,12.7c0.1,0.5,0.1,1,0.1,1.5c-0.6,2.9-1.2,5.9-3.7,7.9
			C233.7,116.7,229.3,128.3,225,139.9z"/>
		<path class="st12" d="M528.8,42.1c1.7,2.9,4.6,5.3,4,9.1c-3.7,3-8.2,3.8-12.5,2.6c-4-1.2-7.5-2.9-7.9,3.5c0,0.3-1.1,0.5-1.6,0.8
			c-0.9-0.4-1.3-1.2-1.7-2.1c-0.3-2.8-2.5-3.7-4.5-4.9c-0.7-1.2,1.7-2,0.3-3.5c-2.2,1-1,2.6-0.7,4c-0.1,0.5-0.4,0.9-0.9,1.2
			c-4.2,2.1-8.9,1.4-13.2,1.3c-11.6-0.2-23.2,0.1-34.7-0.4c-1.1-0.4-1.7-1.1-1.7-2.3c0.6-1.2,1.9-2.3,0.3-3.9
			c-1.8,1.3,1,2.6-0.2,3.7c-1.3,1.2-3.1,1.1-4.6,1.9c-3.7,2-8,1.2-11.7,1.2c-10,0.1-19.9,1.9-29.9,0.4c-2.5-0.4-4.6,2.1-7.3,0.9
			c-1.6-1.5-2.9-3.4-5.2-4.1c-0.4-0.3-0.5-0.7-0.5-1.2c1.5-2.7,2.6-3.6,6.5-2.3c3.2,1.1,7.8,0.5,11.7,0.3c1.9-0.1,3.1-1.4,5.7-0.1
			c2.8,1.4,6.8-2.2,10.5,0.4c0.4,0.2,1.1-3.4,0.8-5.4c-0.1-0.9-0.2-1.8-0.3-2.8c-0.1-1-0.3-1.9-0.6-2.8c-0.2-1-0.3-2-0.2-3
			c0.4-2.2,1.2-4.2,2.9-5.8c2.5-1.4,5-1.6,7.5,0.1c1.7,3.3,1.3,6.7,0.6,10.1c-0.7,1.9-2.4,2-4.1,2c-0.7,0,0.1,0.9-0.1,0.2
			c0-0.1,0.1-0.2,0.5-0.2c14.4,0.1,28.8,0,43.2,0c8.5,0,17,0.2,25.5-0.2c2-0.1,4,0.3,5.5,1.9c0.8,1.3,0.7,3.5,3.5,1.7
			c2.5-1.5,5.7-1.2,8.7-0.9C524.7,44,526.9,43.6,528.8,42.1z"/>
		<path class="st13" d="M246,63.1c-1.3,0.5-2.7-1.1-4.1,0.1c-2.6,1.2-4.9,0.5-7.2-1c-0.4-0.8-0.4-1.6,0.1-2.4c1.4-1.5,3.1-1.7,5-1.5
			c6.9,0.8,13.9,0.4,20.8,0.4c8.5,0,10.4-2,10.6-10.5c-0.8-2.1-2.6-1.6-4.2-1.6c-2.9-0.1-5.9,0.1-8.8-0.1c-1.7-0.1-3.7,0.3-4.6-1.9
			c1.5-2.1,3.8-1.8,5.9-1.8c5.1,0,10.3-0.1,15.4,0c2.1,0.1,4.3-0.1,6.4,0.3c1.1,0.2,2.4,0.5,2.6,1.9c0.2,1.8-1.3,2.1-2.5,2.4
			c-1.9,0.6-5.4-0.1-3.1,3.8c4.8,1.2,9.6,1.2,14-1.4c13.7,2.7,27.5,0.2,41.2,0.8c8.8,0.4,17.6,0.1,26.4,0.1c2.1,0,4.3-0.2,6.3,1
			c1.3,2.8-1,3.4-2.7,4.2c-2.2,1-4.6,0.8-6.9,0.8c-18.6-0.5-37.2,1-55.7,1c-5.1,0-7.1,1.9-6.8,5.7c0.1,1.1,0,2.5,1.5,2.8
			s2-0.9,2.4-2c1.1-2.7,1.7-6.2,6-3.8c-1.3,5.2-0.1,10.5-0.6,15.8c-0.1,1.4,1,3.6-1.8,3.8c-3.3,0.2-1.9-2.5-2-3.9
			c-0.3-1.9-0.1-3.8-0.1-6c-1.4,0.7-1.4,2.2-2.8,2.2c-1.7,0.8-2.9,0-4.1-1c-5.3-1.2-2.7-6.1-4.2-9c-0.1-0.1-0.3-0.2-0.4-0.2
			c-0.1,0-0.3,0.1-0.4,0.2c-0.2,1.2-2.3-0.5-2.3,1.7c0,2.2-1.2,4.5-3.7,4.6c-2.3,0.1-2.9-2.4-3.8-4.1c-0.4-0.7-0.6-1.5-1.2-2.2
			c-1.1-1-1.8-0.6-1.9,0.6c-0.2,2.1-0.1,4.2-0.1,6.3c-2.1,2.8-3.8,2.1-5.1-0.6c-1.1-2.4-3-3.6-5.1-2.7c-5.2,2.3-9.9,0.8-14.6-1.3
			C248.8,63.9,247.3,63.8,246,63.1z"/>
		<path class="st14" d="M509.8,56.1c0.8,0.4,0.9,1.3,1.1,2.1c0,1-0.1,2-0.1,2.9c-0.2,4.2-3.2,4.4-6.4,4.4c-16.3,0-32.6,0-48.9,0
			c-24.8,0-49.6,0-74.4,0c-2.5,0-5,0.4-7.2-1.3c-0.2-2.4-1.1-4.1-3.9-3.9c-1-4,1.6-3.5,4.2-3.7c7.2-0.6,14.6,1.1,21.8-0.9
			c0.9-0.3,1.9-0.4,2.8-0.1c2.1,2.1,4.2,3,7.4,1.4c2.5-1.2,5.5,0.7,8.4,0.6c3.9-0.1,8.1-0.4,11.9-0.6c4.5-0.3,9,1.6,13.4,0
			c0.8-0.3,1.7-0.4,2.4,0.1c3.1,2.1,4.9,0.1,6.6-2c1.3-0.3,2.4,0.2,3.3,1c0.7,0.6,1.1,1.5,2.4,1.5c8.4,0.2,16.7-0.4,25.1-0.2
			c8.2,0.2,16.4-0.2,24.6,0.2c1.4,0.1,1.8-1.3,2.9-1.7C508,55.2,509,55.3,509.8,56.1z"/>
		<path class="st15" d="M395.8,56.1c-0.3,0.6-0.8,1.6-0.8,1.6c-4.2-2.1-8.7,2.8-12.7-0.6c-1.2-1-2.3-0.2-3.1,0.5
			c-1.6,1.5-3.1,1.3-4.9,0.3c-2.5-1.4-4.1-0.6-4.4,2.3c-21.9,0.6-43.7,0.4-65.6,0.1c-3-0.5-4.5,0.6-4.4,3.7c0,1.5-0.1,3-1.7,3.8
			c-3.5,1.9-5.1,0.9-5.2-3.4c-0.2-8,2.4-8.5,8-8.4c19.9,0.3,39.7-1.4,59.6-0.9c2.6,0.1,5-0.5,6.4-3c1.4-3.4,3.9-4.3,7.2-3.3
			c1.9,0.6,3.5,0.9,5.1-0.5c0.9-0.8,2.2-1.3,3.2-0.5c2.4,1.7,4.3,2,6.4-0.6c0.9-1.1,2.1-0.3,2.9,0.7c0.9,1.3,2.2,2.1,3.2,3.2v0.1
			C395.5,52.7,395.5,54.5,395.8,56.1z"/>
		<path class="st14" d="M509.8,68.8c-1.2,2-3.1,1.6-4.9,1.6c-41.7,0-83.4,0-125.1,0c-2.8,0-6.3,0.4-6-4.3c1.4-1.1,3.1-1,4.8-1
			c42.3,0,84.6,0,126.9,0C507.7,65.1,511,64.4,509.8,68.8z"/>
		<path class="st16" d="M509.8,68.8c0.1-3.2-2.2-2.7-4.2-2.7c-7.7,0-15.3,0-23,0c-36.3,0-72.6,0-108.9,0c0-0.6,0-1.3,0-1.9
			c43.5,0,87,0,130.5,0c2.6,0,5.4,0.5,6.4-3C510.5,63.7,511.9,66.4,509.8,68.8z"/>
		<path class="st17" d="M238,105.1c1-2.8,2-5.5,3-8.3c1.7-0.6,2.9-2,4.6-2.6c0.8-0.1,1.5,0,2.2,0.3c3.5,6.1,9.2,6.5,15.4,6.1
			c4.3-0.3,8.6,0,12.9-0.1c6.1-0.1,8.4-1.9,10.4-7.9c1-3.1,1.1-6.6,3.7-9c1.6-0.6,2.6,0.3,3.6,1.3c-1.1,4.6-2,9.3-4.4,13.5
			c-2.6,4.6-6.5,6.7-11.8,6.6C264.5,105,251.3,105.1,238,105.1z"/>
		<path class="st18" d="M293.9,85c-1-0.3-2-0.7-2.9-1c-2.1-2.2-4.1-4.5-3.1-7.9c3.7,0.3,6.7,0,5.1-5c1.5-0.2,2.8,0.4,4.1,1
			C296.4,76.5,295.7,80.9,293.9,85z"/>
		<path class="st2" d="M211,77c-2.9-0.8-5.9-1.5-8.8-2.5c-2.6-0.9-3.2,0.2-3.2,2.5c-4.3-1.7-8.6-0.2-12.7,0.3
			c-7,0.7-13.9,0.8-20.8-0.1c-15.7-2.2-31.6-1.1-47.3-1.2c-24.8-0.1-49.6,0-74.3,0c-1.9,0-4-0.6-5.5,1.3c-1.6-0.3-2.3-1.6-3.1-2.8
			c-0.7-1.3-1.7-2.4-1.9-3.9c0-2.7,1.3-4.4,4-4.9c2.4,0.9,2,3.3,2.7,5.1c0.4,2.1,1.8,3,3.9,2.7c2.6-0.4,5.2,0.3,7.8,0.2
			c4.4,0,8.8-0.1,13.2,0c3.6,0.1,4.2-1.5,3.5-4.5c0-0.8,0.1-1.5,0.5-2.2c4.6-1,9.2-0.1,13.7,0.7c1.5,0.2,2.9,0.8,4.4,0.8
			s3.1-0.2,3.9,1.4c0.9,1.9-1.8,2-1.8,3.7c3.5,0.3,7,0.6,10.1-1.4c1.4-0.9,2.9-1,4.3-0.3c4.7,2.6,9.7,1.7,14.7,1.8
			c1.6,0,3.3-0.1,4.9,0c3.2,0.3,4.9-1,5-4.3c0.6-1.6,1.8-2.6,3.4-2.5c6.2,0.3,12.1-2.2,18.2-1.4c6.8,1,12.7-1.4,18.6-4
			c6-2.7,11.9-1.9,17.7,0.7c1.2,1.3,1.1,3,1.4,4.7c0.3,2,1.2,3.1,3.4,2c1.2-1.2,0.8-2.8,1.2-4.2c0.4-1.3,0.9-2.6,2.4-2.8
			c1.6-0.1,2.1,1.2,2.6,2.5c0.6,1.4,0.1,3.8,2.5,3.6c2.1-0.1,1.9-2.3,2.4-3.8c1.3-3.6,2.7-3.9,6.7-1.3c0.5,0.9,0.7,2,0.8,3
			c0.3,2.7,2.1,3.6,4.5,3.6c7.1,0.1,14.3,0.1,21.4,0c2.5,0,4.6-0.8,5.4-3.5c0.2-0.8,0.6-1.5,1.3-2c4.5-0.1,6,2.7,5.8,6.5
			c-0.2,3.9-2.6,5.6-6.6,5.5c-5.8-0.2-11.5,0-17.3,0c-1.1,1.1-2.4,1.8-4,0.9c-1.3,0-2.6,0-3.9,0C214.3,77.7,212.7,77.7,211,77z"/>
		<path class="st19" d="M204,107c2.2-4.8,5.8-8.8,5.4-14.9c-0.2-2.8,1.4-6.9,6.6-5.2c3.1,1,6-1.5,9.1-1.9c0.4-0.1,0.8,0.1,0.8,0.3
			c-1.4,4.6-2.5,9.2-5.1,13.4c-2.8,4-4,8.6-5.4,13.1c-0.9,3-3.7,5.5-2.3,9.1c-0.4,3.9-1.4,7.8-1.5,11.7c-0.6,2.6-1,5.3-2.8,7.5
			c-1.9,2.7-1.3,5.7-1.1,8.6c1.4,4.5-0.6,8.8-0.8,13.3c-0.7,0.2-1.4,0.2-2-0.2c-7-1-14.1-2-21.1-3c2.2-1.7,1.2-4.4,1.7-6.5
			c2.7-12.5,9.1-23.5,14.4-34.8c0.8-1.6,1-3.1,1-4.7C202.8,111.3,203.4,109.2,204,107z"/>
		<path class="st20" d="M1.2,81.9c0-10.2,0-20.5,0-30.7c0.4-0.3,0.8-0.7,1.2-0.8c8.1-2.9,8.2-3,8.2-11.5c0-4.3,0-8.6,0-12.9
			c0-2,0-4,1.5-5.6c1,0.3,1.6,1,2,1.9c2.6,5.4,1.1,11.2,1.5,16.9c0.1,1.8-0.1,3.6-0.1,5.4c0,1,0,2,0.3,3c0.5,2.7,2.8,3,4.9,3.6
			c2.2,1.7,5.8-0.3,7.5,2.6c-2.8,1.4-4.9,3.4-6,6.5c-0.5,1.5,1,1.5,1.1,2.4c-0.4,2.8-2.6,4.5-4.9,5c-5.2,1.1-5.7,4.2-4.5,8.5
			c0.3,1.2,0.3,2.5-0.2,3.7c-0.3,0.7-1.1,0.9-1.6,1.5C8.6,83.2,4.9,81.9,1.2,81.9z"/>
		<path class="st21" d="M204.9,161.9c0.6-0.1,1.1-0.2,1.7-0.3c1.6-2.7-0.3-6.5,2.7-8.9c1.1-0.9,1.5-2.9,3.4-2.1
			c1.7,0.7,2.2,2.3,2.1,4.1c-0.1,1.1-1,2.2,0.2,3.2c-0.3,1.9-1.7,3.9,0.1,5.8C211.7,163.1,208.3,162.5,204.9,161.9z"/>
		<path class="st11" d="M12.2,81.2c0.2-0.4,0.5-0.9,0.7-1.3c3.2-2,6.7-1.1,10.1-1.2c4.9-0.2,10.2,1,13.1-4.6
			c0.7,1.1,1.4,2.2,2.2,3.3c-0.3,2.9-2,3.5-4.8,3.6C26.4,80.9,19.3,80.3,12.2,81.2z"/>
		<path class="st2" d="M199,77c3.5,0.1,5.5,1.9,5.8,5.3C202.8,80.7,200.6,79.2,199,77z"/>
		<path class="st22" d="M532.7,2.3c0.8,0.4,1,1.1,0.9,1.9c-0.2,3-1.7,4.5-4.8,4.4c-1.5-0.1-3,0-4.5,0c-78.7,0-157.3,0-236,0
			c-1.3,0-2.7-0.1-4,0c-3.2,0.2-5.1-1.1-5.3-4.4c-0.4-0.9-0.2-1.6,0.8-2c15.9-0.9,31.7-0.4,47.6-0.3c14.7,0.1,29.4,0.2,44.1-0.1
			c13.6-0.2,27.1-0.2,40.7-0.2c13.4,0,26.8,0,40.1,0.3c8.3,0.2,16.8-0.5,25.1-0.3c9.1,0.2,18.3-0.4,27.5,0.4
			c6.2,0.5,12.5-0.4,18.8-0.5C526.8,1.5,529.8,2,532.7,2.3z"/>
		<path class="st23" d="M27.7,9.1C32.6,9.3,30.8,5,32,2.7c0.8,0.4-1,3.2,1.5,1.8c3.3-1.8,6.5-1.9,9.7-0.1c0.8,0.4,1.6,1,2.3,0.5
			c4.1-3,8.7-1.5,13.1-1.6c29.8-0.1,59.6-0.1,89.4,0c2.9,0,6.4-1.5,8.7,1.8c1.7-2.9,6.4-0.2,7.5-4.2c3.1,1.7,1.2,4.8,2.1,7.2
			c1.3,1.8,1.2,3.9,1,5.9c-0.1,0.9-0.5,1.7-1.2,2.3c-2.8-0.5-2-3.2-3.1-4.8c-2.4-1.8-5.2-2-8.1-2c-36.8,0.2-73.6,0.2-110.4,0
			c-3.6,0-7.3-0.2-10.8,1.2c-1.4,0.2-2.4-0.5-3.3-1.4C29.5,9.3,28.6,9.2,27.7,9.1z"/>
		<path class="st24" d="M279.1,4.2c1.1,2.2,2.6,3.1,5.3,3.1c81.3-0.1,162.6-0.1,243.9,0c2.6,0,4.5-0.4,5.3-3.1c-0.1,2,1,4.2-0.8,6
			c-5.1-1.4-10.1,0.6-15.2,0.6c-77.5-0.2-155-0.2-232.5-0.1c-2.2,0-4.3,0.1-6.1-1.5C279,7.5,279,5.9,279.1,4.2z"/>
		<path class="st25" d="M172,11.5c33.5-0.1,67-0.1,100.5-0.2c2.2,0,4.6,0.9,6.5-1.1c1.1-0.7,1.9-0.4,2.1,0.8
			c0.2,0.9-0.5,1.6-1.4,1.6c-2.3-0.1-4.4,1-6.7,0.4c4.1,0.8,8-1.7,12.1-0.5c0.8,0.5,1.2,1.1,1.1,2.1c-0.6,1.3-1.7,1.7-3,1.9
			c-4.8,0.6-9.6,0.3-14.5,0.3c-31,0.1-61.9-0.1-92.9,0c-0.6,0-1.2,0.1-1.8,0.1s-1.1-0.2-1.6-0.5s-0.8-0.7-1.1-1.2
			C171,13.8,170.9,12.5,172,11.5z"/>
		<path class="st26" d="M284.9,13.2c-5.4-0.4-10.8,1.7-17.5,0.4c4.4-2.1,8-0.9,11.4-1.5c1.8-0.4,3-0.8,0.3-1.9
			c-0.1-0.2-0.2-0.4-0.3-0.6c0-0.1,0.1-0.2,0.1-0.3c82.2,0,164.5,0,246.7,0.1c2.4,0,5-1,7.2,1c-1.6,0.9-4.3-1.2-5,2
			c-2.8,1.8-5.5,4-9,1.7c-2.4-2.5-5.5-2-8.4-2.1c-26.6,0-53.3,0-79.9,0c-40.6,0-81.2,0.1-121.8,0c-6.2-0.3-12.4,0-18.7-0.1
			C288.1,11.6,286.4,12.1,284.9,13.2z"/>
		<path class="st27" d="M172,11.5c-0.1,1.2-0.1,2.4-0.2,3.6c-1.6,1.5-3.2,1.5-4.8,0.1c-0.8-1.7,3.9-2.4,0.8-4.6
			c0.1,1.3,0.4,2.5-0.6,3.5c-0.4,0.5-0.7,0.5-1.1,0c0-2,0.1-4,0.1-6C168.4,8.9,172.3,6.4,172,11.5z"/>
		<path class="st28" d="M30.4,9.5c0.7-0.1,1.4-0.1,1.8,0.7c0.4,0.5,0.7,1,0.9,1.6c0.9,5.1,0.4,10.2,0.4,15.3c0.1,2.9,0.1,5.9,0,8.8
			c0.1,1.4,0.1,2.9,0.3,4.3c0.7,1.9,2.4,1.5,3.8,1.5c35.8,0.1,71.6,0.1,107.4,0.2c5.1,0,10.2-0.9,15.4-0.2c2.9,0.4,5.3,1.9,8.2,1.9
			c25.7,0.2,51.5,0,77.2,0.1c2.8,0,5.7-0.6,8.1,1.6c5.6,0,11.2,0,16.8,0.1c1.1,0,3.3-0.8,2.2,2C271,48.1,269,48,267,48
			c-29.8,0-59.5,0-89.3,0c-5.1,0-10.3,0.3-15.4-0.6c1.9,0.3,3.8,0.5,3.8,3.2c-2,1.7-4.4,1.4-6.7,1.4c-25.8,0-51.5,0-77.3,0
			c-3,0-6,0-8.5-2.2c-1.2-1-2.4-1.1-3.5,0C67.8,52,65,52,62.2,52c-8.3,0-16.6,0-24.9,0c-2.7,0-5.4,0.1-7.7-1.6c-2-2.1-0.5-4,0.5-5.9
			c1.7-3.4,1-7.1,0.9-10.7C30.9,25.5,31.9,17.4,30.4,9.5z"/>
		<path class="st12" d="M12.1,20.2c0,6.6,0,13.2,0,19.7c0,9.9-1.2,11.1-10.9,11.2c0-8.6,0.1-17.2-0.1-25.8C1,22,1.5,20.2,5.4,20.5
			C7.6,20.7,9.9,20.3,12.1,20.2z"/>
		<path class="st29" d="M14.1,46.1c0-8,0-16,0-23.9c2.9,3.5,6,6.8,8.6,10.6c2.1,3.1,1,7.1,1.7,10.6c0.2,1.3,0.7,1.6,1.7,1.8
			c-1.1,3.1-3,2.1-5,1.1c-0.4-0.5-0.6-1.1-0.7-1.8c-0.3-1-0.3-2.7-1.9-2.1c-1.5,0.5-0.5,1.9-0.3,2.9c0.1,0.5,0.2,0.9,0.1,1.4
			C16.6,48.7,15.3,47.7,14.1,46.1z"/>
		<path class="st12" d="M21.1,45.1c1.7,1.5,3.3,1.4,5,0c1.4,0.1,2.7-0.3,4-1c0.1,1.7-0.1,3.4-1,4.9c-1.2,1.8-3.1,2.1-5.1,2
			c-2.9-1.1-6.3-1.1-8.9-3c-0.8-0.4-1-1.2-1-2c1.3,0.5,2.6,1.8,3.9,0.1C18.8,45.1,19.8,44.5,21.1,45.1z"/>
		<path class="st30" d="M16.3,10.8c2.1-0.8,3.5-0.9,5.2-0.1C20,12.8,18.5,12.5,16.3,10.8z"/>
		<path class="st31" d="M521.7,26.1c0,3.1,0,6.1,0,9.2c-2.3,4.3-3.8,4.8-9.2,3.1c-2.1-2.3-2.1-2.3-3.1-5.4c0.3,3,0.6,5.8-2,7.8
			c-5.2,0.1-3.2-4-3.9-6.4c-1,2.6,0.8,7.9-5.5,6.3c-2.6-2.4-0.5-6-2.3-9.2c-1.3,3.2,0.4,6.6-1.9,9.1c-1,0.5-2,0.5-3,0
			c-2.5-3.2-0.4-7.5-2.4-10.8c-0.7-2.7,1.1-3.8,3-4.8c0.5-0.1,1-0.1,1.4,0.1c6.1,0.4,12.2,0,18.3-0.6c2.8,0.3,5.6,0.5,8.4,0.6
			C520.4,25.2,521.1,25.6,521.7,26.1z"/>
		<path class="st32" d="M492.7,25.3c-0.3,0-0.6-0.1-0.9-0.1c-2.4,1.2-5,1.3-7.7,1.3c-7.4-0.1-14.8,0.3-22.2,0.3
			c-2.7-0.5-5.5,0.1-8-1c-1.4-1.2-3.5-2.1-1.5-4.4c2.2-1,4.6-0.7,6.9-0.7c19.1-0.1,38.1,0.1,57.2-0.1c0.9-0.1,1.6-0.4,1.7-1.5
			c0-0.4,0.1-0.8,0.2-1.2c0.1-0.6,0.3-1.2,0.5-1.8c0.2-0.4,0.4-0.8,0.7-1.1c0.4-0.2,0.8-0.2,1.2,0c1.6,1.1,0.2,2.9,1.1,4.2
			c0,2.3-0.1,4.6-0.1,6.8c-0.7,0-1.3,0-2,0c-4.8-1.8-9.7-1.3-14.7-0.4C500.9,25.4,496.8,26.3,492.7,25.3z"/>
		<path class="st33" d="M528.8,42.1c0.2,2.4-1.1,3.1-3.4,3c-2.6-0.1-5.2-0.1-7.8-0.1c-2.6,0-5.6-0.6-5.5,3.8
			c-2.7-1.8-2.4-3.8-2.3-5.7c-0.4-1.1-0.9-2.2,0.6-2.8c0.9-0.4,1.8-0.4,2.8-0.5c2.2,0,4.4,0,6.6-0.4c2.9,0.7,6-0.7,8.9,0.6
			C528.8,40.8,528.8,41.5,528.8,42.1z"/>
		<path class="st34" d="M529.7,15.3c-3.8,3-0.4,7.4-2,10.8c-0.1,1.5,0,3.1-2.3,2.9c-1.9-0.2-1.7-1.7-1.7-3c0-3.3,0-6.5-0.1-9.8
			c1.1-1.2,2.5-1.4,4.1-1.2C528.5,15.1,529.1,15.2,529.7,15.3z"/>
		<path class="st35" d="M528.7,40.1c-3,0.9-5.9,1.7-8.9,0.1c-2.6,0-5.3-0.2-7.9,0.4c-1.7-0.3-2.1-1.4-1.6-2.8
			c0.4-1.1,1.3-1.3,2.3-0.6c3.5,2,6.4,0.7,9-1.9c0.2,2.7,2.3,1.9,3.8,1.9C527.6,37.1,529.1,37.5,528.7,40.1z"/>
		<path class="st36" d="M527.8,15c-0.9,1.9-2.6,1.1-4.1,1.2c-2.1,0.1-0.9,2.3-1.9,3.1c-1.7-0.9-0.5-3.4-2.3-4.3
			c-0.1-0.4,0.1-0.7,0.5-0.9c2.8,0.4,4.9-2.4,7.7-1.9C527.8,13.1,527.8,14.1,527.8,15z"/>
		<path class="st37" d="M214.9,157.8c-1-0.3-3.5,0.3-1.9-1.9s0.2-3.2-0.8-5.4c-1.8,3.5-5.4,5.4-3.8,9.7c0.3,0.8-0.9,1.2-1.7,1.3
			c-2.1-2.5,1.3-5.2-0.4-7.7c2.3-1.3,0-3.5,0.9-5c1.4-2.9,0.3-6,1-9c0.9-2.4,1.9-4.7,2.8-7.1c1.2-2.6,3.3-3.7,6.1-3.3
			c0.7,0.3,1.1,0.8,1.3,1.6c-3.7,2.8-0.4,6.4-0.5,9.5c0,1.4,1,3.4,0,4.7c-1.6,2.2,0.3,4.5-0.8,6.6
			C216.3,153.9,215.6,155.8,214.9,157.8z"/>
		<path class="st38" d="M217,151.9c-0.8-2.8-2.5-5.3,0.2-8.3c0.8-0.9-0.7-3.8-1.2-5.8c-0.7-2.7-2.2-5.6,2-6.9
			c2.2-0.5,3.4,0.8,4.3,2.5c-0.5,1.1,0.1,2.4-0.2,3.5c-0.5,5.2-3.9,9.6-4.1,14.9C217.6,151.8,217.3,151.8,217,151.9z"/>
		<path class="st39" d="M222.1,136.9c-0.2-1-3.8-1.9-0.1-3c-1.3-5.3-0.2-10.9-2.3-16.1c1.8-3.6,3.5-7.1,0.4-10.9
			c-1.6-2,1-3.8,0.5-5.7c3-4.9,5.8-9.9,7.9-15.2c0.5-1.2,1.8-2.3-0.9-1.6c-0.6,0.2-1.2-0.4-1.5-1.1c1.1-2.1,3.4-0.8,4.9-1.7
			c1-0.6,2.4-2,3.5-0.6c1,1.4,0.6,3.1-0.5,4.6c-5.1,6.5-5,14.3-5,22C229,117.8,227.1,127.7,222.1,136.9z"/>
		<path class="st40" d="M246,63.1c3-0.2,5.9,0.1,8.5,1.7c2.4,1.5,4.7,1.6,7.4,0.1c4.3-2.3,7.3-1,9.1,3.5c1,2.7,2.5,1.1,3.9,0.6
			c0.3,2.1-1.6,4-2.5,3.1c-1.7-1.7-5.1,2.7-5.7-2.2c-0.5-3.6-3.1-1.7-4.7-0.3c-4.8,4.1-4.8,4.2-8.4-1.5
			C251.7,65.2,247.7,66,246,63.1z"/>
		<path class="st40" d="M254.9,98c-3.4-1.8-4.2-6.1-7.6-8c-1.2,0.9,0,2.1-0.5,3c-2.2-0.3-2.1-2-1.9-3.4c1-5.4,2.4-10.7,7.9-13.6
			c2.4,0.4,5.2-1.1,7.2,1.2c-1,1.9-2.1,3.8-3.1,5.7c-0.7,0.7-1.6,1-2.6,1.1c-1.5,0.2-3.7,0.1-2.9,2.6c0.6,2.1,1.8,4,4.5,2.1
			c1,1.5,0.9,3.3,1,5C257.4,95.8,259.1,98.4,254.9,98z"/>
		<path class="st40" d="M277,62.1c2.5,1.1,3.1,3.7,4.4,5.4c4.2,0.2,1.7-6.7,6.6-5.4c0,1.5,0,3,0,4.4c0,5.7-3.1,8.7-8.7,8.5
			c-2.1-0.1-2.3-1.4-2.3-3C277,68.7,277,65.4,277,62.1z"/>
		<path class="st41" d="M208.1,66c0-1,0-1.9,0-2.9c0.6-1.6,2-2.2,3.5-2.3c7.1-0.4,14.2-0.5,21.2,0.2c0.8,0.1,1.5,0.6,2.2,1.1
			c2.4-0.3,4.7,0.3,6.9,1c0,0.3,0.1,0.6,0.1,1c0,0.6-0.1,1.3-0.1,1.9c-0.4,0.3-0.8,0.7-1.3,0.7c-10.3-1.2-20.5,0.2-30.8,0.1
			C209.2,66.7,208.6,66.4,208.1,66z"/>
		<path class="st42" d="M252.9,76.1c-2.9,3.6-5.2,7.5-6.6,11.9c-0.6,1.8-0.8,3.5,0.6,5c0,0.7,0.1,1.3,0.1,2c-0.7,0-1.4,0-2,0
			c-1.3,0.5-2.7,0.5-4.1,0.9c-1.7-1.7-0.3-3.3,0.1-5c1.2-4.1,3.7-7.6,4.3-11.9C245.9,74.4,250.1,76.5,252.9,76.1z"/>
		<path class="st43" d="M226.1,83.2c2.1,0.7,4.1-0.6,6.6-0.3c-5.6,5.1-5.6,13.5-11.7,18.1c-1.4-0.6-1.9-1.6-1.1-3.1
			c1.7-4.3,3.4-8.6,5.2-12.9C225.4,84.4,225.8,83.8,226.1,83.2z"/>
		<path class="st44" d="M211,77c1.7-1,3.4-1,5.1,0c1.2,1.9,0.6,3.4-1.2,4.5c-1.2,0.7-2.5,0.7-3.7-0.1C209.3,80.1,210.2,78.5,211,77z
			"/>
		<path class="st45" d="M219.9,77c1.3-0.3,2.6-0.6,4-0.9c1.2,1.7,1.9,3.5,0.1,5.2c-0.9,0.9-2.1,1-3.2,0.3
			C219.1,80.5,218.9,78.8,219.9,77z"/>
		<path class="st46" d="M204,107c2,3.5,0.7,5.3-3,5.9C198,108.3,198.4,107.4,204,107z"/>
		<path class="st47" d="M240.8,95.9c0.7-3.4,2.5-1.6,4.1-0.9c-0.8,1.6-1.2,4.1-3.9,1.9C241,96.6,241,96.2,240.8,95.9z"/>
		<path class="st48" d="M431.7,30c-0.7,1.7-1.3,3.5-2,5.2c-2.1,1.8-4.7,1.5-7.1,1.5c-13.6-0.1-27.2,0.2-40.9-0.1c-2,0-4,0.2-5.9,0.7
			c-15.1,1-30.1,0.3-45.2,0.4c-7.4,0-14.9,0.6-22.3-0.5c-2.7-1.1-3.4-2.9-1.9-5.5c1.3-1.5,2.4-0.5,3.4,0.3c1.6,1.2,3,1.3,4.8-0.6
			c-3.2,0.1-5.9-1.3-8.7,0.3c-3.5,1.1-7.1,0.6-10.6,0.4c-0.6,0-1.4-0.1-1.6,0.5c-0.2,0.7,0.5,1,1,1.3c0.8,0.6,1.7,1.1,1.1,2.3
			c-1.1,0.9-2.4,1.2-3.7,1.3c-4-0.4-8.1,0.1-12.1-0.8c-2.1-0.6-4.3-0.4-6.5-0.4c-33.5,0-66.9,0-100.4,0c-2.6,0-5.4,0.8-7.3-1.9
			c1.4-2.7,4-2,6.2-2c23.8,0,47.6-0.3,71.3,0c11.1-1.3,22.3-0.5,33.5-0.5c1.3,0,1.8-0.3,2.1-1.4c0.8-0.6,1.7-0.8,2.6-0.9
			c2-0.1,3.7-1,5.4-1.8c5.1-3.3,10.7-2.5,16.2-2c4.6,2.6,9.8,1,14.6,1.8c4,2.7,8.3,0.4,12.5,0.7c0.9,0.1,2-0.3,3-0.3
			c10.3,0.6,20.5,1.9,30.8,0.2c11.2-0.5,22.4,1,33.6,0.5c4,1.3,8.1,0.4,12.2,0.3c6.9-0.2,13.7,0.8,20.6,0.1
			C430.9,29.5,431.3,29.7,431.7,30z"/>
		<path class="st49" d="M394.9,51.1c-2.9,0.8-4-1.1-4.8-4c-2.2,4.2-4.4,6.6-7.6,1.9c-0.6-0.8-1.6-0.9-2.1-0.1c-2,3.5-4.2,2.6-7,1
			c-2.8-1.7-4.4,1.4-6.5,2.3c-21,0.2-42-0.6-63,0.5c-4.3,0.2-8.1-0.3-11.7-2.5c-1.1-0.7-1.1-1.6-0.8-2.6c1.1-1.7,2.9-1.7,4.4-1.5
			c10,1.3,20,1,30.1,0.3c7.2-0.5,14.7-0.2,22.1,0.2c7.1,0.5,14.2-0.5,21.3-0.5c3.2,0,5.5-2,7.6-4.3c0.8-0.8,1.6-1.7,2.4-2.6
			c0.8-0.7,1.7-0.9,2.7-0.7c2.7,4.9,5.6,1.4,8.5,0.2c0.4,0.2,0.8,0.5,1,0.9c1.4,2.9,3,2.6,4.8,0.4c1.7-1.8,2.8-0.7,4.1,0.6
			c1.7,1.7,3.2,1.5,4.1-0.9c0.2-0.6,0.5-1.2,1-1.7c1.9-0.8,2.7,0.3,3.3,1.8c0.8,1.9,1.9,2.5,3.7,1.4c0.3-0.3,0.6-0.6,0.9-0.9
			c0.9-1,1.9-2,3.5-1.2c0.3,0.3,0.6,0.7,0.8,1.1c1.8,3.3,3.2,1.8,4.4-0.5c0.3-0.4,0.6-0.7,1.1-0.8c2.8,1,4.6,3.6,7.5,4.4
			c1.8,2.2,0.3,4.4-0.1,6.6c-0.2,1.2-1.3,1.3-2.3,1.4c-2.6,0.3-3.3-1.6-4.2-3.6c-1.9,0.7-1.6,3.6-4.2,3.7c-2.7,0.1-3.4-1.3-3.5-3.8
			c-2.6,0.9-2.6,4.4-5.7,3.8c-2.2-0.4-2.9-1.9-3.6-4.1c-2.6,3.4-4.5,7.2-8.3,1.3C397.7,46.4,396.6,50.6,394.9,51.1z"/>
		<path class="st20" d="M509.7,41.2c0.1,0.7,1.2,1.2,0.2,2c-5.6-1-11.3,0.2-16.7-0.4c-4.1-0.4-8.2,1.6-12.2-0.4
			c-2.8-1.4-5.7,0.6-8.8,0.3c-4-0.5-8.9-1.4-12.9,0.6c-2.5,1.2-3.5-2.2-5.4-1.1c-4,2.4-8.2-1.1-12.6,1c-1.8,0.9-5.5-1.9-9.6,0.4
			c2.3-3.5,4.7-3.5,7.1-3.5c0.8-0.7,1.8-1.2,2.9-1.2c1.3-0.1,2.5-0.1,3.8-0.1c2.1,0.1,2.7-1.3,2.9-3.1c0.2-1.6,0-3.2,1.2-4.6
			c2.7,0,2,2.3,2.4,3.8c0.4,1.4-0.5,3.4,1.9,3.8c0.9,0.1,1.9,0.1,2.8,0.1c1.2,0,2.3,0,3.5,0c0.9,0,1.7-0.1,2.4-0.7
			c1.2-1.4,0.8-3.2,0.9-4.8c0.2-2.4,2.4-2.7,3.7-3c1.4-0.4,1.5,1.8,1.7,3c0.2,1.3-0.1,2.7,0.7,4.1c1.8-2.3-0.3-5.8,2.5-7.6
			c3.2-1,4.5,0.5,4.9,3.6c0.3,1.8-1.1,4.5,2.1,5.3c1.2,0.1,2.4,0.1,3.6,0c2.5-0.1,2.4-2,2.8-3.8c0.3-1.6-0.2-3.8,2.4-3.9
			c2.4,2.6-0.1,6.7,2.9,9.1c1,0,2,0,3,0c1.3-1,2.7-1,4,0c3,0.5,4.4-0.7,4-3.8c-0.1-1,0-2,0-3c0-1.3,0.6-2.4,2-2.3
			c1.5,0.1,0.9,1.5,1,2.3c0.1,1.3,0.1,2.6,0,4c-0.1,2.2,1,3,3,2.7C508.9,39.7,509.4,40.3,509.7,41.2z"/>
		<path class="st16" d="M506.8,56.1c-0.1,1.3-0.6,3.6-1.7,2.7c-3.9-3.2-8.4,2.6-12.3-1.3c-1.4-1.4-3.6,2.4-4.8,1.4
			c-3.8-3.4-8.5,2.2-12.1-1.6c-3.6,3.2-8.3-1.1-12,1.7c-1,0.7-2.2,0.8-3.2,0c-1.9-1.5-3.4-1.7-5.7-0.3c-2.1,1.3-3.4-0.2-3.2-2.6
			c0.7-1.3,1.7-2.3,3-3c5-0.5,10-0.7,15-0.6c7.4,0.2,14.9-0.4,22.2,0.1c4,0.2,7.8-0.6,11.7-0.5C505,53.2,505.9,54.7,506.8,56.1z"/>
		<path class="st50" d="M413.7,41c-1.7,3.5-3.7,2.9-5.6,0.3c-0.8-1.1-0.2-3.1-2.3-3.1c-0.5,0.6-1.2,0.8-1.9,1.1
			c0.5,0.6,1.3,0.4,1.8,0.8c-1.7,3.8-3.8,4.3-6.2,1.4c-0.7-0.8-0.9-2.3-2.5-1.1c-0.2,0-0.4-0.1-0.6-0.1c-1.7-1.1-3.7-0.7-5.6-1.1
			c-0.5,0.2-1.2,0.2-1.3,0.5c-0.9,1.6-1,3.5-3.8,3.6c-3.4,0.1-2.3-3.1-3.9-4.2c-1.2-2.5-4.5-0.7-5.9-2.9c1.1-1.4,2.7-1,4.2-1
			c16.6,0,33.1,0,49.7,0c0.1,0.9,0.1,1.8,0.2,2.8c-1.4,1.3,0.4,1.5,0.8,2.1c0,1,0,2,0,3c-3.9,1.2-5.8-1.4-7.9-3.9
			c-2.1,0.3-4.2,0.3-6.3,0C415.2,39,414.9,40.7,413.7,41c-0.2-0.4-0.5-0.8-0.7-1.2C413,40.3,413.6,40.5,413.7,41z"/>
		<path class="st16" d="M448.8,55.1c-0.8,3.8-2.4,6-6.4,3.1c-0.1-0.1-0.3-0.3-0.4-0.3c-3.6,1.6-7.1,0.9-10.7-0.3
			C430,57.2,417,57.1,416,58c-4.1,3.5-8.5-2.1-12.6,1.1c-2.4,1.8-3.6-1.1-4.6-3c-0.2-0.9,0.1-1.2,1-1c4.9-2.4,10.3-0.4,15.4-1.8
			c2.5-0.7,5.8,0.1,8,0.4c4.4,0.7,8.5-1,12.8-0.7c3.8,0.3,8.7,1.2,12.7-1C449.7,53.1,449.7,54.1,448.8,55.1z"/>
		<path class="st51" d="M431.7,30h-0.5h-0.5c-1.4-1.8,2.9-2.7,0.7-4.6c3.8-2.3,7.2,0,10.6,0.9c3,1.3,5.4,0.3,7.5-1.9
			c1.5-0.5,2.9-0.1,4.2,0.8c2.7,0,5.3,0,8,0c0.5,1.2,0.2,2.4-0.3,3.5c-0.3,0.4-0.6,0.8-1,1.1c-1.2,0.6-2.4,0.6-3.7,0.7
			c-1,0-2,0-3.1,0c-0.8,0-1.6,0-2.3-0.1c-1.9-0.4-3.7,0.4-5.5,0.1c-1.4,0-2.7,0-4.1-0.1c-1.2-0.1-2.1-0.5-3-1.2
			C436.4,29.6,433.9,28.5,431.7,30z"/>
		<path class="st52" d="M438.8,29.2c1,0,2.1,0,3.1,0c2.1,3.6,2.1,7.3-0.1,10.9c-1,0-2,0-2.9,0C438.8,36.5,438.8,32.8,438.8,29.2z"/>
		<path class="st53" d="M496.1,46.1c2.2-0.1,3.7,0.1,3.7,2.5s-1.5,2.4-3.3,2.5c-2.3,0.1-2.6-1.4-2.8-3.1
			C493.1,45.1,495.5,46.7,496.1,46.1z"/>
		<path class="st54" d="M479.2,46.1c1.3,0.3,3.4-0.6,3.4,1.7c0,1.7-0.9,3.1-3,3.3c-2.6,0.2-3.1-1.7-3.3-3.4
			C476.1,45.5,478.1,46.4,479.2,46.1z"/>
		<path class="st55" d="M473.8,48.6c0.1,1.9-1,2.5-2.8,2.5c-1.9,0-3.2-0.4-3.1-2.7c0.1-2.2,1.5-2.2,3.1-2.3
			C472.6,46.1,473.9,46.5,473.8,48.6z"/>
		<path class="st54" d="M445.5,46.1c1.1,0.3,3.1-0.6,2.9,1.6c-0.2,1.7-0.6,3.7-3.3,3.4c-2.1-0.2-3-1.6-3-3.3
			C442.1,45.5,444.2,46.4,445.5,46.1z"/>
		<path class="st49" d="M436.8,46.1c1.7-0.1,2.9,0.3,3,2.3c0,2.4-1.4,2.6-3.2,2.6c-1.8,0-2.8-0.7-2.7-2.6
			C433.9,46.4,435.2,46.1,436.8,46.1z"/>
		<path class="st56" d="M490.7,48.3c0.2,2-0.8,2.8-2.6,2.8c-1.8,0-3.3-0.2-3.3-2.5c0-2,1.2-2.5,2.9-2.4
			C489.3,46.2,490.8,46.2,490.7,48.3z"/>
		<path class="st56" d="M462.5,46.1c1.4,0.2,3.4-0.3,3.1,2c-0.2,1.7-1.1,3-3.2,3c-2.4,0.1-2.5-1.5-2.7-3.2
			C459.2,45.1,461.4,46.5,462.5,46.1z"/>
		<path class="st57" d="M506.8,56.1c-2.6-0.2-3.1-1.9-3-4c0-0.3,0-0.6,0.1-1c0.3-0.3,0.6-0.3,1-0.1c3.7-0.3,5.5,1.2,5,5.1
			C508.8,56.1,507.8,56.1,506.8,56.1z"/>
		<path class="st57" d="M448.8,55.1c0-1,0-2,0-3c1.4-1.7,3.3-0.7,5-1l0,0c0.3,0.7,0.7,1.3,1,2c-0.1,1.9-1.1,2.9-3,3
			C450.8,55.8,449.8,55.4,448.8,55.1z"/>
		<path class="st58" d="M504.8,51c-0.3,0-0.6,0.1-1,0.1c-2.9-0.8-2.6-3-1.1-4.5c1.1-1.1,3.5-1.2,4.5,0.2
			C509.2,49.5,506,49.8,504.8,51z"/>
		<path class="st57" d="M399.8,55.1c-0.3,0.3-0.7,0.7-1,1c-1,0-2,0-3,0.1c-2.5-1.2-2.2-3-1-5C397.8,50.9,400.2,51.3,399.8,55.1z"/>
		<path class="st54" d="M453.8,51.1c-0.8-1.3-3.5-1-2.9-3.4c0.2-0.9,0.8-1.5,1.7-1.5c1.4,0,3.3-0.7,3.9,1.2
			C457.2,49.6,456.1,50.9,453.8,51.1L453.8,51.1z"/>
		<path class="st59" d="M430.8,40.1c-1.6,0-3.2,0.7-4.7-0.8c0.9-1.7,2.7-0.8,3.9-1.3C430.8,38.4,430.8,39.2,430.8,40.1z"/>
		<path class="st13" d="M235,62.1c-7.1,0-14.1,0-21.2,0c-2,0-4-0.1-5.7,1c-3.4-1.7-5.4-1.3-5.1,3.1c0.2,2.7-1.2,3.8-3.9,3.9
			c-3,0.1-3.1-1.7-3.1-3.9c0-1.3,0.3-3.3-1.3-3.3c-2.1,0-1.5,2.1-1.7,3.5c-0.2,1.6,0.7,3.4-1.1,4.6c-0.7-0.8-1.1-1.7-1.1-2.7
			c0.3-3.6-1.5-5.1-4.9-5.1c-7.7-3-15.3-2.3-22.2,1.8c-5.2,3.1-10.5,1.9-15.8,2c-5.9,0.1-11.6,1.8-17.6,1.4c-0.9-0.1-1.2,1-1.4,1.8
			c-0.8,1-0.4,2.9-2.2,3c-1.7,0-1-1.7-1.5-2.6c-1.5-2.5-3.9-3.1-6.7-2.8c-1.5-0.5-2.7-1.3-2.9-3c0.4-1.1,1.3-1.4,2.5-1.4
			c-1.1-0.8-2.3-1.2-3.1-2.2c-1-1.2-1.7-2.6-1.3-4.1c0.4-1.9,2.2-1.7,3.6-1.8c4.2-0.2,8.5-1.1,12.6,0.7c1.3,4.2,3.8,4.5,8.1,4.5
			c5.9,0,9.7-3.5,14.5-5.5c5.3-0.3,10.6-0.2,15.9-0.1c2.9,0.1,5.6-0.4,8-2.2c1.8-1,3.7-1.7,5.7-1.6c13.5,0.1,27.1-0.7,40.6,0.7
			c3,0.3,5.7,0.8,6.6,4.1c0.8,2.7,4.7,1.6,5.4,4.4C235,60.7,235,61.4,235,62.1z"/>
		<path class="st41" d="M235,60.1c-2.7-1.4-7.8,0.3-7.3-5.6c0.1-1.6-2-1.3-3.3-1.4c-5.1-0.4-10.2-0.4-15.2-0.6
			c-7.1-0.3-14.2,0.3-21.3-0.4c-3.7-0.4-7.3,0.3-10.9,1c-2.2,0-4.1-1.7-6.7,0.9c-1.6,1.7-4.3-0.9-4.4-3.9c-2.2-3.9-6.2-0.9-9.2-2.5
			c0.9-2.1,2.7-1.4,4.2-1.4c35.9,0,71.9,0,107.8,0c1.4,0,3-0.4,4.2,1c0.1,2.7-0.2,5.2-1,7.8c-1.1,3.4-3.3,5.3-6.9,5.2
			c-8.6-0.3-17.2,0.8-25.7-0.6C237.9,59.2,236.4,59.8,235,60.1z"/>
		<path class="st60" d="M377.8,42.1c-2.6,4.4-6.5,5-11.3,5.3c-7.9,0.5-15.9,0.7-23.7,0.6c-4.7-0.1-9.9,2.5-14.6-0.7
			c-0.6-0.4-1.7-0.3-2.4-0.1c-10,2.5-20,1.3-30.1,0c-1.3-0.2-2.7,0-4,0c-1.7,3.1-4.8,2.3-7.4,2.2c-3.2,0-5.7,0.6-7.3,3.6
			c-2-5-2-5,6.8-8.1c-2.9-1.3-5.5-0.5-7.9-0.8c-1.1-1.4-0.3-2.4,0.5-3.5c0.6-0.6,1.3-1.1,2-1.4c0.5-0.2,1.1-0.3,1.6-0.4
			c17.5-0.5,34.9-0.1,52.4,0.7c9.2,0.5,18.5,0.2,27.7,0.1c5.1-0.1,10.1,1.1,15.2,0.5C376.6,40.1,377.9,40.4,377.8,42.1z"/>
		<path class="st61" d="M277,41.3c-0.3,0.9-0.7,1.9-1,2.8c-5.8,0-11.6,0-17.3,0.1c-1.6,0-3.3-0.5-4.7,0.9c-28.6,0-57.2,0-85.9,0
			c-2.4-0.8-3.6-2.4-4-4.9c0.1-1.1,0.4-2.1,1.7-2.3c0.5,0.2,1,0.5,1.4,0.8c0.5,0.4,1,0.6,1.5,0.8c17.6,0.4,35.2,0.1,52.9,0.2
			c16.3,0.1,32.6,0,48.9,0C272.7,39.8,275.2,39.2,277,41.3z"/>
		<path class="st62" d="M277,53c-0.6-3.7,0.5-5.3,4.6-5.1c3.3,0.2,6.8,0.9,10.1-0.8c0.2,1,0.3,2,0.5,2.9c0,2.2-1,3.1-3.4,3
			C284.9,53,280.9,53.1,277,53z"/>
		<path class="st63" d="M23.1,62.1c-0.8,0.1-2,0.6-2.3,0.2c-1-1,0.2-2.8,0.5-3c2.7-1.3,1.5-3,0.4-4.7c2.3-1.1,4.4-0.3,6.5-0.6
			c0.5-0.4,1.1-0.8,1.8-0.7c22.1,2.7,44.2,0.5,66.3,1.2c2.2,0.1,4.3-0.1,6.5,0.3c2.7,0.5,5.2,1.9,5,4.7c-0.2,3.5,2.1,5,4.2,6.8
			c0.8,3.7-1.5,3.1-3.8,2.8c-12.9-2.3-25.9-2.9-39-2.1c0,0.7,0,1.3,0,2c0.5,3.9-1.3,4.4-4.3,2.9c-1.4-2.8-3.3-4-6.7-3.5
			c-5,0.7-10.2,0.5-14.8,3.1c-1.3,0.7-2.9,0.7-4.1-0.5c-1.9-1.2-0.1-3.8-2-5c-1.3-1.1-2.9-1.3-4.5-1.1c-1.2-0.1-2.2-0.6-2.9-1.6
			c-1-1.1-0.7-5.1-3.8-1.7C25.1,62.7,24.1,62.4,23.1,62.1z"/>
		<path class="st64" d="M69.1,67.1c4.9-4,10.6-1.9,15.8-1.5c4.2,0.3,8.4,0.8,12.7,0.6c3.9-0.2,8-0.8,11.4,2.2c1.4,1.3,2.4,0,3.1-1.3
			c0.8-1.7,2-2.7,4-2c1,0.7,2,1.3,3.1,2c0.9,2.7,1.3,5.4-0.9,7.8c-5.2-0.2-10.6,1.4-15.4-2c-0.8-0.6-2.1-1.1-2.8-0.1
			c-3.1,4-7.4,1.6-11.1,2.2c-1.2,0.2-3.1,0.7-3.4-1.1c-0.2-1.5,1.6-1.9,2.8-2.5c0.7-0.4,1.4-0.6,2.7-1.1
			C83.2,69.2,76.2,68.1,69.1,67.1z"/>
		<path class="st53" d="M208.1,66c11.3-0.9,22.6-2.7,33.9,0c0.2,3.9-2.1,5.1-5.6,5.1c-7.7-0.1-15.5-0.2-23.2,0
			C209.3,71.2,207.5,69.9,208.1,66z"/>
		<path class="st65" d="M30.1,63c1,0.3,2,0.7,3.1,1c-1.1,2.5-2,5,1,7c0.6,1,2.2,1.4,2,3c-0.3,4.9-2.9,6.5-7.7,6.1
			c-5.1-0.5-10.3-0.2-15.4-0.3c0.1-1.3,0.1-2.5,0.2-3.8c0.6-1,0.9,1.2,2.2-0.1c3.1-3.1,7.3-0.4,10.8-1.3c-0.7-0.6-1.9-0.8-2.8-1.4
			c-1-0.7-1.8-1.4-1.5-2.8c0.3-1.4,1.5-2.1,2.4-3.1c1-1,1.1-2.4,1.8-3.5C27.2,62.9,28.5,62.4,30.1,63z"/>
		<path class="st66" d="M39.1,71.1c4.8-0.1,8.6-3.6,13.7-3.6c3,0,6.1,0.1,9.3-0.6c2.5-0.5,2.5,2.4,3.1,4.2c-1.4,2.4-3.7,3-6.3,3
			s-5.3-0.6-7.7,0.9c-2.9,0.2-5.7-0.7-8.7,0C39.3,75.7,38.9,73.5,39.1,71.1z"/>
		<path class="st67" d="M118.3,74.9c0.3-2.6,0.6-5.2,0.9-7.8c4.8-1.6,7.9,0.6,7.5,5.6c0.9-1,1.6-1.8,2.3-2.6
			c0.5,3.7-1.2,5.2-4.8,4.9C122.2,74.8,120.3,74.9,118.3,74.9z"/>
		<path class="st57" d="M185.9,63.1c5.4-1.9,6.1-1.5,6.1,3.9c0,1.3-0.1,2.6-0.1,3.9C186.1,71.2,186.1,71.2,185.9,63.1z"/>
		<path class="st64" d="M51.1,75c0.9-1.7,2.5-2.1,4.2-1.9c3.5,0.5,6.7-0.6,9.8-2c2.7,2.1,3.5,0.3,4-2c1.8,5.2,1.4,5.9-3.6,6
			C60.7,75,55.9,75,51.1,75z"/>
		<path class="st11" d="M34.1,71.1c-5.8-2.5-5.9-3-1-7c2.3-1.3,3.7-0.8,4,2C35.8,67.5,33.8,68.6,34.1,71.1z"/>
		<path class="st68" d="M219.9,98c0.4,1,0.7,2,1.1,3.1c1,2.4-2.9,6.8,2.9,7.2c0.1,0,0.2,0.2,0.3,0.3c-3.9,2,1,8-4.3,9.4
			c-0.5,0.5-1.1,0.8-1.8,1c-1.4,0-3,0.2-3.4-1.8c-1,1.2,1.3,4.8-2.8,3.9c-1.6-6.6,3.6-11.3,4.9-17.1C217.4,102,217.3,99,219.9,98z"
			/>
		<path class="st38" d="M212,121c2.2,0,1.4-1.9,1.7-3c0.2-1-0.6-2.5,1.1-2.7c2.4-0.3,0.7,1.8,1.3,2.4c0.3,0.4,1.3,0.2,1.9,0.2
			c1.9,3.2,1.2,7,2.5,10.5c1.2,3.2-1.9,1.8-3.5,1.5c-2.1,0.9-4.4,1.2-6.1,2.9C209.2,128.7,211.5,124.9,212,121z"/>
		<path class="st69" d="M208,139.9c1.8,2.9,0.8,6,0.7,9c0,0.9-1.1,0.1-1.6,0C205.7,145.7,205.4,142.6,208,139.9z"/>
		<path class="st70" d="M116.1,65.1c-1.3,0.7-2.7,1.3-4,2c-2.3-0.3-4.1-1.4-5.5-3c-0.5-0.6-1.2-1.1-1.1-2.1c0.8-5.1,0.3-5.8-4.6-5.9
			c-10.6-0.1-21.3,0-31.9,0c-9.3,0-18.6-0.2-27.9,0.1c-4.5,0.1-8.8-0.6-13-2.1c-1.3-1.5-3.1-0.9-4.7-1c-1.5-0.1-3.1,0.2-3.3-2
			c1-1.5,2.8-0.3,4-1c1.7-0.3,3.3-0.7,5-1c4,1.5,8.2,1,12.3,1c7.6,0,15.3,0.1,22.9,0c1.8,0,4,1,4.6-2.6c0.4-2.3,4.3-2.1,5.2-0.2
			c1.7,3.6,4.4,2.9,7.1,2.9c28.2,0,56.5,0,84.7,0c0.9,1.6,2.1,2.8,3.7,3.7c1.6-0.9-1.5-2.9,0.4-2.9c2.3,0,5.3-0.8,6.9,2.2
			c-0.8,2.4-2.5,3.1-5,3c-6.7-0.2-13.3-0.1-20,0c-5.1,0.5-10.3,0.3-15.4,1.1c-2.3,0.3-4.6,0.6-6.5-1.1c-5.1,0-10.1,0-15.2,0
			c-0.3,5,3.9,5.6,6.3,7.6C119.6,64.7,117.4,63.3,116.1,65.1z"/>
		<path class="st11" d="M26.1,64.1c1.3,2,0.5,3.5-1.3,4.5c-4.1,2.3-2.3,3.5,0.8,4.5c1.4,0.4,2.9,0.7,4,2.9c-3.1,0-5.8,0.1-8.5,0
			c-2.2-0.1-4.3-1.1-6.2,1.6C14,78.9,14.2,76,13,76.1c-2.2-6.2-1.7-7.2,4.4-9.3c2.4-0.8,4.3-2.4,5.6-4.7c0.6-1.1,1.3-0.2,1.9,0
			C26,62.4,26.6,62.9,26.1,64.1z"/>
		<path class="st28" d="M24.1,50.1c-1.1,1.4-2.6,0.9-4,1c-3.3,1.7-4.3-0.3-5-3C18.3,47.8,21.3,48.8,24.1,50.1z"/>
		<path class="st71" d="M166,38.1c-0.9,0.4-1.1,1.2-1.2,2c-1.6,0.2-2-1.6-3.6-2.3c0,3.8-1.3,4.6-5.5,4.2c-4.5-0.5-9.4,0.7-14.2,0.6
			c-1.2,0-3.2,0.6-2.2-2c0.1-0.8,4.4-0.8,0.7-2c-11.2-3.6-21.4-9.8-34-10.3c-22.2-0.8-44.3,0.6-66.4,0.3c-2.6,0-5.4,0.5-7.6-1.4
			c0-5.3,0-10.6,0-16c3.3-2,6.4,0.1,9.5,0.4c1.9,0.9,3.6-0.2,5.4-0.5c14.1,0,28.2,0.1,42.3,0.3c19.2,0.2,38.5-0.2,57.8,0.4
			c2.2,0.1,4.3,0.4,6.4,1c2.1,0.3,2.3-1.9,3.6-2.7c2.4,1.9,5.4,0.1,8,1.2c0.3,1.7-0.5,3.6,0.9,5c0.9,0.6,1.3,1.6,1,2.5
			c-1.3,4.4,1,6.2,4.8,6.9c1.2,2.5-1.1,2.3-2.3,2.6c-2,0.6-3.3,1.5-2.7,3.9c0,0.7-0.2,1.4-0.7,1.9c1.6,1.9,3.7,1,5.6,1
			c34.6,0.1,69.1,0,103.7,0.1c1.9,0,4-0.8,5.6,1c0,2.2-1.6,2.6-3.3,3c-2,0.4-4,0.3-5.9,0.3c-32.7,0-65.4,0-98.1,0
			C171.1,39.5,168.3,40.1,166,38.1z"/>
		<path class="st72" d="M155.1,14.1c-14.6-1.8-29.2-0.7-43.8-0.9c-12-0.1-24.1-0.6-36.1-0.1c-10,0.4-20-0.1-30-0.9
			c-1.1-0.3-2.1-0.3-3.2,0c-3.5,1.9-6.4-2.3-9.9-1c0-0.3,0-0.7,0.1-1c3.5-1.8,7.2-2,11-2c37.6,0.1,75.1,0,112.7,0.1
			c3.3,0,7-0.8,9.1,3c-2.8,0.3-5.9,4.1-8-1C155.6,11.2,155.5,12.7,155.1,14.1z"/>
		<path class="st73" d="M172,26.2c-6.5-0.2-6.5-0.2-6.1-9.9c0.1-0.7,0.1-1.4,0.2-2.2c0.3,0.1,0.5,0.2,0.8,0.2l0,0
			c1.4,1.6,3.2,0.8,4.9,0.8l0.4,0.2C173.6,18.9,174.3,22.6,172,26.2z"/>
		<path class="st74" d="M174,16.2c1.7-1.6,3.8-0.9,5.7-0.9c34.7-0.1,69.4,0,104.1-0.1c1.7,1.3,2.9,3,2.7,5.3
			c-0.1,0.5-0.4,0.9-0.9,1.2c-8.6,1.1-17.1,0.4-25.7,0.1c-7.2-0.2-14.5,0-21.8-0.4c-6.1-0.7-12.2-0.4-18.3-0.3
			c-8.7,0.1-17.5-0.8-26.3-1.2c-5-0.2-9.9-0.8-14.9,0c-1.9,0.3-3.6-0.1-5-1.6C173.4,17.5,173.4,16.8,174,16.2z"/>
		<path class="st75" d="M172,26.2c0.1-3.6,0.1-7.2,0.2-10.9c0.3,0.3,0.6,0.6,1,0.9c1,2.6,1.1,5.4,2.2,7.9c1.1,2.3,3.1,1.5,4.8,1.5
			c8.3,0.1,16.6-0.4,24.9-0.3c13.9,0.2,27.9,0.4,41.8,0.2c12.4-0.2,24.8,0.4,37.3,0.1c0.5-0.1,1.1-0.2,1.7-0.2
			c3.1,0.4,2.9,1.8,1.2,3.7c-1.5,1-2.9,2.4-5,1.9c-3.8-0.9-7.5,0.6-11.3,0.6c-30.2-0.2-60.4-0.1-90.6-0.1c-2.3,0-4.7-0.2-6.9,0.4
			c-2.4,0.5-4.7,0.8-7.1,0.2c-1.9-2.9-1-4.6,2.3-5C169.7,27,171.1,27.5,172,26.2z"/>
		<path class="st76" d="M174,24.2c-1.7-2.5-0.7-5.3-0.9-7.9c0.3,0,0.5-0.1,0.8-0.1c0,0.7,0.1,1.3,0.1,2c0.9,1.3,2,2.1,3.7,1.9
			c9.4-1,18.7,0.2,28.1,0.3c10.7,0.1,21.4,1,32-0.1c14.7-0.4,29.4,1.6,44.1,0.2c1.2-0.1,2.6,0.4,3.8,0.7c0.8,1.7,1.2,3.4,0,5v0.1
			c-6.4-0.5-12.8-0.5-19.2-0.6c-14.4-0.2-28.9,0.3-43.3,0c-14.3-0.3-28.5,0.1-42.8,0C178.3,25.6,175.9,25.9,174,24.2z"/>
		<path class="st77" d="M286.1,20.1c-1.3-1.4-1.9-3.1-2.3-4.9c0.8-0.1,1.7-0.1,2.2-1c1-2.2,3.1-2.4,5.1-2.4c5,0,9.9-0.4,14.9,0.2
			c2.1,0.6,4.4,0.6,6.1,2.2c0.5,1.3-0.6,1.7-1.4,2.3c-1,0.5-2.1,0.9-2.7,2c-0.3,0.4-0.6,0.8-1,1.1c-0.5,0.3-0.9,0.5-1.5,0.6
			C299,20.7,292.5,21.2,286.1,20.1z"/>
		<path class="st78" d="M306.9,13.2c-7,0.5-14-1.1-20.9,1c-0.3-0.3-0.7-0.7-1-1c-0.1-2.9,2-3,4-2.9c6.4,0,12.8,0.1,19.1,0.1
			C308.4,11.6,308,12.6,306.9,13.2z"/>
		<path class="st79" d="M166.9,14.3c0-0.3,0-0.7,0.1-1c0.3-1.3-1-3.6,1.9-3.6c1.6,0,2,1,2,2.3c0.1,2.6-2,2.1-3.5,2.2
			C167.3,14.3,167.1,14.3,166.9,14.3L166.9,14.3z"/>
		<path class="st72" d="M32.1,27.2c10.9-0.5,21.8-0.1,32.8-0.6c6.5-0.3,13.3-0.4,20,0.1s13.7-0.1,20.6,0.3c7.8,0.5,15.2,1,22.1,5.3
			c3.1,1.9,7,2.7,10.6,3.8c2.7,0.9,5.2,1.9,7.7,4c-2.5,1.6-4.8,0.7-7,1c-5.5,2.1-11.2,0.5-16.8,0.9c-2.4-0.4-4.9-0.9-7.3-0.1
			c-1.1,0.1-2.3,0.1-3.4-0.1c-17.5-1-34.8-3.2-52.4-3.7c-7.6-0.2-15.2-0.5-22.8-0.6c-1.5,0-3-0.4-4.1-1.4
			C32.1,33.2,32.1,30.2,32.1,27.2z"/>
		<path class="st13" d="M121.1,41.1c6,0,12,0,18,0c4.1,2,8.4,1,12.6,0.5c1.8-0.2,3.6-0.9,5.4-0.3c3.5,1,3.4-0.7,2.5-3
			c-0.4-1-1.6-2,0.1-2.8c1.2-0.6,2.3-0.1,3.1,0.9c0.9,1.2,1.5,2.5,2.2,3.8c0.2,2.2,1.6,3.7,3.2,5c-6.2-2.6-12.6-2.1-19.1-2.1
			c-32.9,0.3-65.9,0.2-98.8,0c-4.7,0-9.4-0.9-14.2,0.1c-2.1,0.4-4.1,0.1-3.9-2.9c1.5-1.3,3.3-1.4,5.1-1.5
			c12.8-0.4,25.5,0.3,38.2,1.4c6.1,0.5,12.2,0.6,18.3,0.3c6.1-0.3,12.2-0.2,18.2,0.8c1,0,2,0,3,0C117.1,41.1,119.1,41.1,121.1,41.1z
			"/>
		<path class="st71" d="M112.1,41.1c-26.7,2.3-53.3-1.7-79.9-1c0-1.3,0-2.7,0-4c8.6,0.5,17.3,0.6,25.8,0.6
			c14.9-0.1,29.5,2.8,44.2,3.1C105.6,39.9,108.9,39.4,112.1,41.1z"/>
		<path class="st80" d="M21.1,45.1c-1,0.4-2,0.7-3,1.1c-2.1-1.2-2.6-3-1.3-5c0.7-1.1,2-1.2,3.1-0.6C21.7,41.7,22.5,43.2,21.1,45.1z"
			/>
		<path class="st81" d="M460.8,28.2c0.3-1,0.7-2,1-3c6.5,0,13.1,0,19.6,0c3.5,0,6.9,0.1,10.4,0.1c-0.5,1.7-3.1,1.7-3,3.9
			c-0.2,0.1-0.4,0.3-0.6,0.4c-2.9-0.4-5.7-3.4-8.6-0.2c-0.4,0.2-0.8,0.4-1.2,0.6c-2,0-3.9-0.5-5.9-0.3c-0.6-0.3-0.8-0.8-0.7-1.5
			c-2,3.2-5.4,1.3-8,2.1C462.4,30.1,461.4,29.4,460.8,28.2z"/>
		<path class="st82" d="M519.7,31.3c0.5,2.9-0.7,3.9-3.5,3.9c-2.6,0-3.5-0.9-3.4-3.5s0.6-4.4,3.8-4.5
			C519.8,27.1,519.9,29,519.7,31.3z"/>
		<path class="st83" d="M497.8,40.1c-1.3,0-2.7,0-4,0c0-2.8,0.1-5.6,0-8.4c0-1.5,0.5-1.9,2-1.9s2.1,0.4,2,1.9
			C497.7,34.5,497.8,37.3,497.8,40.1z"/>
		<path class="st84" d="M509.7,41.2c-0.6-0.4-1.2-0.7-1.9-1.1c0-2.4,1.3-4.7,0.2-7.3c-0.5-1.2-0.1-3,1.5-3.1
			c1.7-0.1,1.2,1.7,1.1,2.7c-0.2,2,0.7,3.5,2.1,4.7c-1,0.1-2,0.4-1.8,1.7c0.1,1,1,1.1,1.8,1.3c0.3,0.2,0.4,0.5,0.3,0.8
			C511.9,41,510.8,41.1,509.7,41.2z"/>
		<path class="st85" d="M490.8,40.1c-1.9,0.1-3.1-0.5-3-2.7c0.1-2.1,0-4.2,0-6.3c-0.1-0.9,0.4-1.5,1-2l0,0
			C492.7,32.2,489.9,36.5,490.8,40.1z"/>
		<path class="st81" d="M492.7,25.3c4.4-0.1,8.8-0.1,13.2-0.2c1.7-0.6,3.3-0.8,4.9,0.1c-1.8,1.7-4.1,0.8-6.2,0.9
			c-3.6,0.3-7.1-0.4-10.7,1.3C490.9,28.9,493.4,25.9,492.7,25.3z"/>
		<path class="st86" d="M510.8,25.2c-1.6,0-3.3-0.1-4.9-0.1c4.7-0.9,9.5-2.8,13.8,0.9C516.7,26.2,513.7,26.4,510.8,25.2z"/>
		<path class="st87" d="M441.9,27.2c-3.3-1-6.6-1.8-10-2c-3.9,2.6-8.3,1.5-12.5,1.6c-4.9,0.2-9.8,0-14.8-0.2
			c-5.7-0.1-11.4,0.3-17,0.1c-21.1-0.2-42.1,0-63.2-0.1c-2.4,0-5,0.5-7.3-1c-1.5-3.3,1-3.4,3.1-3.7c3.7-0.5,7.5,0.3,11.1-0.9
			c9.2-0.5,18.3-0.2,27.5-0.2c28.6-0.1,57.3,0,85.9,0c2.4,0,5.1-0.6,7.1,1.5c0.7,1,1.4,1.9,2,2.9c-1.7,0-3.3,0-5,0
			C446.6,26,444.8,28.5,441.9,27.2z"/>
		<path class="st88" d="M307,17.3c0.6-1.4,1.9-1,3-1.2c1.6-0.7,3.3-0.3,4.9-0.4c66.7,0,133.3,0,200,0c1.6,0,3.3-0.4,4.9,0.5
			c0,0.9-0.2,1.6-1,2c-0.3,0.1-0.6,0.1-1,0.2c-1.8,0.3-3.7,0.2-5.5,0.2c-65.7,0-131.4,0-197.1,0C312.5,18.6,309.5,19.3,307,17.3z"/>
		<path class="st89" d="M519.8,16.2c-67.4,0-134.9,0-202.3,0c-2.5,0-5-0.1-7.5-0.1c0.7-0.3,1.4-0.7,2.1-1c69.2,0,138.4,0,207.6,0.1
			C519.8,15.5,519.8,15.9,519.8,16.2z"/>
		<path class="st90" d="M518.9,19.1c0.7,0.4,0.8,1.1,0.8,1.8c-1.2,1.3-2.8,0.7-4.2,0.7c-28.7,0-57.3,0.1-86,0
			c-7-1-14.1-0.2-21.2-0.5c-2.1-0.1-4.3,0.5-6.3-0.7c-0.4-0.6-0.3-1.2,0.3-1.7c1.9-0.9,3.9-0.5,5.9-0.5c34.8,0,69.6,0,104.4,0
			C514.7,18.2,516.9,17.8,518.9,19.1z"/>
		<path class="st91" d="M428.9,21.1c30.3,0,60.5-0.1,90.8-0.1c-1.4,2.2-3.6,1.2-5.5,1.2c-20.8,0.1-41.6,0.1-62.4,0.1
			c-40.3,0-80.6,0-120.9,0c-4.6,0.8-9.3,0.6-13.9,0.1c-0.2-0.7,0-1.2,0.5-1.7c2-1.2,4.2-0.9,6.3-0.9c23.9,0,47.9-0.5,71.8,0.2
			C406.7,20.4,417.8,20.1,428.9,21.1z"/>
		<path class="st92" d="M518.9,19.1c-35,0-70,0.1-105,0.1c-4,0-8,0.1-11.9,0.1c-1.8,1.2-3.8,0.8-5.8,0.8c-14,0-28.1,0-42.1,0
			c-10.1,0-20.2,0-30.4,0c-1.9,0-4,0.5-5.8-0.9c0.5-2.7,2.6-1.5,4-1.5c7.8-0.1,15.6-0.1,23.4-0.1c56,0,112.1,0,168.1,0
			c1.8,0,3.7-0.5,5.4,0.5l0,0C518.8,18.5,518.8,18.8,518.9,19.1z"/>
		<path class="st93" d="M513,41c0-0.3-0.1-0.6-0.3-0.8c2.4-1.8,4.8-2.1,7.1,0C517.7,41.8,515.3,40.7,513,41z"/>
		<path class="st94" d="M217,129.9c1,0,2,0,3,0c-1.8-4-2.8-7.8-2-12c0.7,0,1.3,0,2,0c0.1,1.1,0.4,1.7,1.8,1.7
			c1.8-0.1,2.3,0.6,1.2,2.3c-1.7,2.6-1.9,5.3,0,7.9c1.5,2,0.1,2.9-1,4.1c-1.3-1-2.6-2-4-3C217.7,130.6,217.3,130.2,217,129.9z"/>
		<path class="st95" d="M256,88.9c-0.2,3.2-1.6,4.1-3.9,1.6c-1.5-1.7-3.6-4-2.5-6.1c1.5-2.8,4.8-1,7.4-1.4
			C256.7,85,256.3,87,256,88.9z"/>
		<path class="st96" d="M254.9,98c2.7-0.3,1.7-2.6,2.1-4.1c1,1.5,2,2.9,3.2,4.7C258.2,99.3,256.4,101,254.9,98z"/>
		<path class="st97" d="M166,38.1c36.2,0,72.4-0.1,108.7-0.1c2.2,0,4.8,0.9,6.3-1.8c4-0.1,8.1-0.7,12,0.8c4.3-1.1,8.7-1.7,13.1-0.9
			c0.3,0,0.6,0.1,0.8,0.1c23,0,46,0,68.9,0c2.4-0.1,4.8,1.1,7.6,0.1c-0.7,1.2-1.2,2-1.7,2.8c-0.7,0.3-1.3,0.7-2,1
			c-3.4,0.9-6.8,0.8-10.2,0.7c-12.6-0.1-25.2-0.7-37.7,0.3c-5.1-1.4-10.3-0.3-15.5-0.6c-12.5-0.7-25-0.4-37.6-0.5
			c-1.8-0.7-3.6-0.3-5.4-0.3c-29.7,0-59.5,0-89.2,0c-1.6,0-3.3,0.6-4.7-0.5c-0.1,1,0.6,0.6,1.2,0.6c31.4,0,62.8,0,94.2,0
			c1.1,0,2.4-0.3,3.3,0.6c-0.4,0.3-0.8,0.7-1.1,1c-35.1-0.1-70.2-0.1-105.3-0.2c-1.9,0-4,0.8-5.7-0.9c3-1.1,6-0.3,8.2-0.5
			c-2.1-0.8-5.3,0.7-8.2-0.6C166.1,38.8,166.1,38.5,166,38.1z"/>
		<path class="st98" d="M166,32.2c1.8-1.7,4-0.5,6-1.1c3.2-0.3,6.4-0.4,9.5-0.4c2.7,2.9,5.4-0.4,8.2-0.1c17.7,0,35.4,0,53.1,0
			c3.4-0.5,1.1,2.4,2.1,3.4c-26.3,0-52.6,0-78.9,0C166.1,33.4,166,32.8,166,32.2z"/>
		<path class="st99" d="M387.7,25.3c5.7,0,11.4,0,17.1-0.1c1.2,3.2-1.4,3.4-3.3,4c-1.2,0.4-2.6-0.4-3.6,0.8
			c-6.5,1.4-13,0.3-19.4-0.3c-4.8-0.4-9.7,1.7-14.4-0.6c-2.8,1-5.8,0.1-8.6,0.4c-1,0.1-2.5,0.2-2.8-1.2c-0.3-1.4,0.8-1.9,2-2.2
			c0.8-0.2,1.6-0.5,2.4-0.5C367.3,25.5,377.5,26.1,387.7,25.3z"/>
		<path class="st100" d="M286.1,20.1c6.9-1.9,13.9-0.4,20.8-0.9c1.4,1.3,1.9,3.1,2.6,4.7c0,0.5-0.1,0.9-0.3,1.3
			c-0.5,0.5-1.1,0.8-1.8,0.9c-1.5,0.3-2.9,0.4-4.3,0.9c-5.4,0.4-11.1-0.8-16.2,2.1c-0.3-1,1.9-2.8-1-3c-0.2-1.7-1.2-3.4,0-5
			C285.9,20.8,286,20.4,286.1,20.1z"/>
		<path class="st101" d="M397.9,30.1c0.1-1.6,1.1-2.6,2.5-2.2c2.7,0.9,3.7-0.5,4.5-2.7c9,0,18-0.1,27-0.1c1.9,2.1-0.4,3.3-1.1,4.8
			c-6.7,2.1-13.5,0.5-20.2,0.5C406.3,30.6,402,32.2,397.9,30.1z"/>
		<path class="st71" d="M182,31.2c-3.3-0.2-6.7,0.9-10-0.1c1.4-1.4,3.1-0.9,4.7-0.9c33.5,0,66.9,0,100.4,0c1.6,0,3.4-0.5,4.7,0.9
			c-1,0-2,0.1-3,0.1c-2.2,1.7-4.8,0.9-7.2,1c-7.7,0.2-15.4-0.1-23.1,0c-1.3,0-2.7,0.2-3.7-1c-19,0-38,0-57-0.1
			C186,32.3,184,32.6,182,31.2z"/>
		<path class="st102" d="M355.9,26.3c-0.4,1.2-2.3,0.5-2.6,2.2c3.6,0.3,7.2,0.5,10.8,0.8c-2.1,1.7-4.5,1.4-6.9,1.3
			c-8.1-0.5-16.2,0.5-24.2-1.4c1.2-0.9-1.6-3.6,1.7-3.5C341.7,26.1,348.8,24.9,355.9,26.3z"/>
		<path class="st103" d="M245,31.2c11.3,0,22.6,0,34-0.1c0.3,1.2,2.8,0.3,2.2,2c-0.4,1.3-1.9,0.7-3.1,0.6c-11-0.5-22.1-1.1-33.1,0.3
			C243,33.1,243,32.2,245,31.2z"/>
		<path class="st104" d="M296.1,36.1c-0.7-0.3-1.4-0.6-2.1-0.9c-1-1.3-1.2-2.7,0-4c4.4,0,8.8-0.1,13.1-0.1v0.1
			c0.3,1.7-1.2,3.3-0.2,5l0,0C303.3,36.9,299.7,37,296.1,36.1z"/>
		<path class="st105" d="M332.9,26.3c2.6,1,1.9,1.9,0,2.9c-4.1,2.1-8.8-0.4-12.9,1.7c-0.1,0-0.8-1.1-1.2-1.7
			c-0.3-0.5-0.4-1.1-0.1-1.7c1.4-2.7,4-1.7,6.1-1.7C327.5,25.8,330.3,25.1,332.9,26.3z"/>
		<path class="st106" d="M318.9,28.2c0,0.3,0,0.6,0,0.9c-5.3-0.5-10.9,1.7-15.8-2c0.8-1.6,2.2-2.1,3.9-1.7c3.4,1.3,6.9-1.2,10.4,0.3
			C318.9,26.3,319.9,26.4,318.9,28.2z"/>
		<path class="st12" d="M307.1,31c3.3-1.8,6.6-0.6,10.3-0.6c-5,5.7-5,5.7-10.2,0.8C307.1,31.1,307.1,31,307.1,31z"/>
		<path class="st71" d="M296.1,36.1c3.6,0,7.3,0,10.9,0.1c-4.5,2.3-9.3,0.6-14,0.9C293.8,36,295,36.3,296.1,36.1z"/>
		<path class="st107" d="M293.9,31.1c0,1.3,0,2.7,0,4c-2.7-0.3-1.7-2.3-1.6-3.7C292.4,30.2,293.2,30.5,293.9,31.1z"/>
		<path class="st50" d="M331.8,41.1c1.7-1.5,3.8-0.8,5.7-0.9c14.1-0.1,28.2-0.1,42.3-0.2c-0.3,1.1-1,1.6-2,2
			c-4.5-0.3-8.9-0.8-13.4-0.9C353.6,41,342.7,41.1,331.8,41.1z"/>
		<path class="st50" d="M422.7,40c0.3,2-0.3,3.1-2.6,3.1c-2.2,0-3.6-0.5-3.3-3C418.8,38.8,420.7,38.8,422.7,40z"/>
		<path class="st50" d="M397.1,40.3c-0.1,2.3-1.4,2.9-3.6,2.8s-2.8-1.2-2.5-3.1c2-0.7,3.9-1.5,5.8,0.1L397.1,40.3z"/>
		<path class="st108" d="M396.8,40.1c-1.9-0.2-3.9,1-5.8-0.1c0-0.3-0.1-0.6-0.1-0.9C393.1,37.9,395.4,36.7,396.8,40.1z"/>
		<path class="st99" d="M405.7,40c-1.9,1-3.7,0.2-5.9-0.5c1.9-2.3,4.2-1,6-1.4C405.8,38.8,405.8,39.4,405.7,40z"/>
		<path class="st109" d="M422.7,40c-2,0.1-3.9,0.1-5.9,0.2c0-0.3-0.1-0.7-0.1-1c2.1-1.5,4.2-1.7,6.3,0
			C422.9,39.5,422.8,39.7,422.7,40z"/>
		<path class="st110" d="M488.8,29.2c0,0.8-0.2,1.6-1,2c-1.7,1.4-1,3.4-0.9,5.1c0.2,3.1-1,4.3-4,3.8c-1.6-1.6-1.6-3.6-1.3-5.5
			c0.4-2.6-0.3-4.3-2.7-5.4C482.2,23.5,485.5,27.9,488.8,29.2z"/>
		<path class="st111" d="M463.8,29.2c2.6-0.3,5.3,0.5,7.9-1.6c2.1-1.7,0,1.5,1.1,1.5c0.3,0.2,0.4,0.5,0.3,0.7s-0.2,0.3-0.3,0.3
			c-1.9,2-0.7,4.4-1,6.7c-0.2,1.4,0.2,3.2-2.1,3.2c-2.3-0.1-1.9-1.9-1.9-3.3c-0.1-1.8,0-3.6,0-5.4c-2.9,0.5-3.4,2.2-3.1,4.7
			c0.2,1.4,0.6,3-0.9,4.1C461.6,36.4,461.7,32.8,463.8,29.2z"/>
		<path class="st112" d="M445.8,29.2c2,0,4.1,0,6.1,0.1c0.3,1.7-1.4,1.2-2,1.9c0,1.8-0.2,3.5,0,5.3c0.3,3.1-1.2,4-4,3.6
			C443.7,36.5,443.7,32.9,445.8,29.2z"/>
		<path class="st113" d="M456.9,29.3c1.3,0,2.6-0.1,3.9-0.1c2.2,3.6,2.1,7.3,0,10.9c-1.4,0-2.7,0-4.1,0
			C454.7,36.5,454.6,32.9,456.9,29.3z"/>
		<path class="st83" d="M445.8,29.2c0,3.6,0,7.3,0.1,10.9c-1.4,0-2.7,0-4.1,0c0-3.6,0-7.3,0.1-10.9
			C443.2,29.2,444.5,29.2,445.8,29.2z"/>
		<path class="st114" d="M478.8,29.2c3.5,0.2,4.5,2.1,4,5.4c-0.3,1.8,0,3.6,0,5.5c-1.4,0-2.7,0-4.1,0
			C476.7,36.5,476.6,32.8,478.8,29.2L478.8,29.2z"/>
		<path class="st115" d="M478.8,29.2c0,3.6,0,7.3-0.1,10.9c-4.4,0.2-2.7-3.2-3-5.3c-0.2-2.1,0.6-4.8-3-4.7c0-0.3,0-0.7,0-1
			C474.8,28.3,476.8,29.2,478.8,29.2z"/>
		<path class="st112" d="M460.8,40.1c0-3.6,0-7.3,0-10.9c0-0.3,0-0.7,0-1c1,0.3,2,0.6,3,1c0,3.6,0,7.3,0,10.9
			C462.8,40.1,461.8,40.1,460.8,40.1z"/>
		<path class="st85" d="M449.9,31.2c0.7-0.6,1.3-1.3,2-1.9c0.6,0,1.2,0,1.9,0c2.3,3.6,2.2,7.2,0.1,10.8c-2.5,0.2-3.1-1.1-3.1-3.3
			C450.7,35,451.6,32.9,449.9,31.2z"/>
		<path class="st115" d="M453.8,40.1c0-3.6-0.1-7.2-0.1-10.8c1.1,0,2.1,0,3.2,0c0,3.6-0.1,7.2-0.1,10.8
			C455.8,40.1,454.8,40.1,453.8,40.1z"/>
		<path class="st116" d="M413.7,41c-1.6-0.5-3.1-1-4.7-1.5c0.2-0.4,0.3-0.8,0.5-1.1C411.2,38.7,414,36.3,413.7,41L413.7,41z"/>
		<path class="st32" d="M441.9,27.2c2.6,0.3,4.2-3,7-2C448.6,28.3,446.7,28.8,441.9,27.2z"/>
		<path class="st28" d="M130,56.1c5.8,0.2,11.5-1.7,17.3-1c1.6,0.2,3.4-0.5,4.7,1c-4.5,6.7-12.4,4.5-18.6,6.3
			C130.2,63.4,130.2,58.8,130,56.1z"/>
		<path class="st117" d="M278.1,40.3c-31.6-0.1-63.2-0.1-94.7-0.2c-1.8,0-3.6,0-5.9,0c1.5-1.4,2.7-1,3.8-1c31.1,0,62.2,0,93.2,0
			c1.4,0,3-0.5,4.2,0.8C278.6,40.1,278.4,40.2,278.1,40.3z"/>
		<path class="st117" d="M166.1,39.1c2.9,0,5.9,0,8.8,0c0,0.4,0,0.7,0,1.1c-3,0-5.9,0-8.9,0C166,39.8,166.1,39.5,166.1,39.1z"/>
		<path class="st118" d="M26.1,64.1c-0.4-0.6-0.8-1.3-1.1-1.9c0.2-1.8,0.2-4,2.6-3.8c3.1,0.2,2.5,2.7,2.5,4.8
			C28.9,63.8,27.6,64.3,26.1,64.1z"/>
		<path class="st119" d="M155.1,14.1c-1.3-2.2-1.6-4,1.9-3.8C157.2,12,157,13.4,155.1,14.1z"/>
		<path class="st120" d="M42,12.2c0.2-1,0.5-2,1.8-1.8c1.1,0.1,1.2,1,1.3,1.8C44.1,14.2,43.1,14.2,42,12.2z"/>
		<path class="st121" d="M238,20.2c-4.7,2.5-10.1,1.8-14.8,1.5c-11.9-0.7-23.7-0.7-35.5-0.5c-3.8,0-7.5-0.9-11.3-0.1
			c-2.1,0.4-2.4-1.3-2.2-2.9c5.4,1.6,10.7-0.3,16.2,0.2c15.6,1.4,31.3,1.8,47,1.3C237.5,19.6,237.7,20,238,20.2z"/>
		<path class="st122" d="M174,24.2c34.5,0,69,0.1,103.5-0.1c3.2,0,5.4,2.4,8.4,2.2c-1.3,1.5-3.1,1-4.7,0.9
			c-9.4-0.4-18.9-0.6-28.3-0.5c-12,0.1-24.1,0.9-36.1,0.3c-12.9-0.6-25.6,0.8-38.4,0.2C176.3,27.1,173.8,27.6,174,24.2z"/>
		<path class="st123" d="M518.7,18.2c-65.7,0-131.5,0-197.2,0c-1.3,0-2.7-0.4-3.8,0.7c-0.4,0.3-0.9,0.5-1.4,0.5
			c-3-0.4-6.3,0.8-9.1-1.2c0-0.4-0.1-0.7-0.1-1.1c41.1,0,82.2-0.1,123.2-0.1c27.6,0,55.2,0,82.8,0C515,17.3,517.1,16.4,518.7,18.2z"
			/>
		<path class="st124" d="M307.2,18.3c3.3-0.1,6.7-0.9,9.9,0.6c-0.1,0.2-0.2,0.4-0.3,0.6c-1.5,1.1-3.3,0.5-5.1,1.1
			c1.6,0.4,3-0.3,4.4,0c0.5,0.1,0.8,0.4,1,0.8c0,0.3,0,0.5,0,0.8c-2.2,2.8-5.1,2.6-8.1,1.8c-2.2-1-2.2-2.9-2.1-4.9
			C307,18.9,307.1,18.6,307.2,18.3z"/>
		<path class="st71" d="M121.1,41.1c-2,1.5-4,1.5-6,0C117.1,39.6,119.1,39.6,121.1,41.1z"/>
		<path class="st125" d="M318.9,28.2c-1.9-3.2-4.9-2-7.4-1.6c-1.9,0.3-3.4,0.8-4.5-1.2c0.6-0.1,1.2-0.2,1.9-0.3c2.7-1,5.4-1.4,8.1,0
			c23.6,0.1,47.2,0.2,70.7,0.3c-7.6,1.9-15.3,0.3-23,0.8c-2.9,0.2-5.9,0.1-8.9,0.1c-7.6,0-15.3,0-22.9,0
			C328.3,27,323.1,24.2,318.9,28.2z"/>
		<path class="st126" d="M317,25c-2.7,0-5.4,0-8.1,0c0-0.3,0.1-0.6,0.1-0.9c2.7-0.6,5.4-1.2,8.1-1.8c4.6,0,9.2,0,13.9,0
			c-3,1.9-6.4,0.5-9.6,1C319.7,23.4,317.5,22.3,317,25z"/>
		<path class="st127" d="M317.1,18.9c0.2,0.1,0.4,0.1,0.6,0c12.1,0.1,24.2,0.2,36.3,0.3c14,0.9,28,0.1,42,0.4c1.9,0,4-0.5,5.8,0.4
			c7.4,0,14.9,0,22.3,0.1c1.6,0,3.3-0.5,4.7,0.8c-34.8,0-69.6,0.1-104.3,0.1c-2.5,0-5,0.2-7.5,0.3l-0.2-0.3c-0.5-0.6-0.5-1.1,0-1.7
			L317.1,18.9z"/>
		<path class="st128" d="M401.9,20.2c-14.5,0-29.1,0-43.6,0c-1.4,0-3,0.5-4.2-0.8c16,0,31.9,0,47.9,0
			C401.9,19.6,401.9,19.9,401.9,20.2z"/>
		<path class="st129" d="M182,31.2c2,0,4,0,6,0C186,33.3,184,35.1,182,31.2z"/>
		<path class="st130" d="M316.8,19.4c0,0.6,0,1.2,0,1.7c-2.9,0.7-6,2.4-8.8-1.7C311.4,19.4,314.1,19.4,316.8,19.4z"/>
	</g>
</g>
</svg>
