<?xml version="1.0" encoding="utf-8"?>
<!-- Generator: Adobe Illustrator 25.0.0, SVG Export Plug-In . SVG Version: 6.00 Build 0)  -->
<svg version="1.1" xmlns="http://www.w3.org/2000/svg" xmlns:xlink="http://www.w3.org/1999/xlink" x="0px" y="0px"
	 viewBox="0 0 742 143" style="enable-background:new 0 0 742 143;" xml:space="preserve">
<style type="text/css">
	.st0{display:none;}
	.st1{display:inline;stroke:#FFFFFF;stroke-miterlimit:10;}
	.st2{fill:#151616;}
	.st3{fill:#1D1C18;}
	.st4{fill:#2C2E2D;}
	.st5{fill:#75776F;}
	.st6{fill:#9B9D92;}
	.st7{fill:#D1D4D5;}
	.st8{fill:#D2D4D5;}
	.st9{fill:#2C1B15;}
	.st10{fill:#6C6B69;}
	.st11{fill:#555754;}
	.st12{fill:#0B0C0C;}
	.st13{fill:#272928;}
	.st14{fill:#3B392D;}
	.st15{fill:#393D36;}
	.st16{fill:#1E201F;}
	.st17{fill:#31342E;}
	.st18{fill:#131414;}
	.st19{fill:#592F1E;}
	.st20{fill:#2B2D2C;}
	.st21{fill:#3B3D36;}
	.st22{fill:#0C0D0C;}
	.st23{fill:#212221;}
	.st24{fill:#333531;}
	.st25{fill:#0B0C0B;}
	.st26{fill:#282923;}
	.st27{fill:#0A0703;}
	.st28{fill:#505351;}
	.st29{fill:#677071;}
	.st30{fill:#030303;}
	.st31{fill:#161715;}
	.st32{fill:#666860;}
	.st33{fill:#4A4130;}
	.st34{fill:#2F3130;}
	.st35{fill:#63655E;}
	.st36{fill:#5E615D;}
	.st37{fill:#666861;}
	.st38{fill:#696C64;}
	.st39{fill:#2A2B2A;}
	.st40{fill:#72756E;}
	.st41{fill:#747772;}
	.st42{fill:#656864;}
	.st43{fill:#2D2F2E;}
	.st44{fill:#686A63;}
	.st45{fill:#646763;}
	.st46{fill:#5E605A;}
	.st47{fill:#757769;}
	.st48{fill:#3E4039;}
	.st49{fill:#101111;}
	.st50{fill:#9C9D81;}
	.st51{fill:#A7A789;}
	.st52{fill:#686961;}
	.st53{fill:#B4B495;}
	.st54{fill:#3F423F;}
	.st55{fill:#232524;}
	.st56{fill:#F88850;}
	.st57{fill:#60625A;}
	.st58{fill:#A1A18A;}
	.st59{fill:#393B38;}
	.st60{fill:#50281B;}
	.st61{fill:#74776C;}
	.st62{fill:#727568;}
	.st63{fill:#D9DBCB;}
	.st64{fill:#3F4240;}
	.st65{fill:#444644;}
	.st66{fill:#676961;}
	.st67{fill:#292B2A;}
	.st68{fill:#404241;}
	.st69{fill:#353736;}
	.st70{fill:#676962;}
	.st71{fill:#404341;}
	.st72{fill:#373932;}
	.st73{fill:#5D5F58;}
	.st74{fill:#645334;}
	.st75{fill:#242624;}
	.st76{fill:#3D403E;}
	.st77{fill:#262827;}
	.st78{fill:#262726;}
	.st79{fill:#1E1F1F;}
	.st80{fill:#383A39;}
	.st81{fill:#414341;}
	.st82{fill:#323432;}
	.st83{fill:#212322;}
	.st84{fill:#404240;}
	.st85{fill:#111111;}
	.st86{fill:#32342E;}
	.st87{fill:#111211;}
	.st88{fill:#696B5E;}
	.st89{fill:#4B4E43;}
	.st90{fill:#070807;}
	.st91{fill:#181919;}
	.st92{fill:#4D4F45;}
	.st93{fill:#989B95;}
	.st94{fill:#585A50;}
	.st95{fill:#AD5D38;}
	.st96{fill:#555750;}
	.st97{fill:#575A4E;}
	.st98{fill:#656859;}
	.st99{fill:#494C42;}
	.st100{fill:#30332C;}
	.st101{fill:#535552;}
	.st102{fill:#504735;}
	.st103{fill:#2F281C;}
	.st104{fill:#5B5D5A;}
	.st105{fill:#100D08;}
	.st106{fill:#110E09;}
	.st107{fill:#110E08;}
	.st108{fill:#2B2315;}
	.st109{fill:#313526;}
	.st110{fill:#181A09;}
	.st111{fill:#1C1F0E;}
	.st112{fill:#414442;}
	.st113{fill:#424543;}
	.st114{fill:#C6C8AF;}
	.st115{fill:#AEB198;}
	.st116{fill:#D5D8BE;}
	.st117{fill:#8B8D78;}
	.st118{fill:#424442;}
	.st119{fill:#80837E;}
	.st120{fill:#65675F;}
	.st121{fill:#6E716D;}
	.st122{fill:#515451;}
	.st123{fill:#0B0B0B;}
	.st124{fill:#8F917D;}
	.st125{fill:#F5F6E2;}
	.st126{fill:#868883;}
	.st127{fill:#7A7D78;}
	.st128{fill:#FBAE72;}
	.st129{fill:#BFC1AF;}
	.st130{fill:#3C3E3C;}
	.st131{fill:#636662;}
	.st132{fill:#6A6C68;}
	.st133{fill:#2F3230;}
	.st134{fill:#4D504D;}
	.st135{fill:#6F7264;}
	.st136{fill:#56584D;}
	.st137{fill:#7B7C6B;}
	.st138{fill:#8F9284;}
	.st139{fill:#3C3629;}
	.st140{fill:#373021;}
	.st141{fill:#3F3829;}
	.st142{fill:#393122;}
	.st143{fill:#342C1E;}
	.st144{fill:#372F21;}
	.st145{fill:#5B5A4C;}
	.st146{fill:#30281A;}
	.st147{fill:#100F0D;}
	.st148{fill:#080908;}
	.st149{fill:#595B55;}
	.st150{fill:#0F0F0D;}
	.st151{fill:#090A09;}
	.st152{fill:#45463D;}
	.st153{fill:#81847E;}
	.st154{fill:#070808;}
	.st155{fill:#050606;}
</style>
<g id="Camada_2" class="st0">
	<rect x="-6" y="-147" class="st1" width="808" height="329"/>
</g>
<g id="Camada_1">
	<g>
		<path class="st2" d="M161.9,69.2c-11.1-2.2-22.4-0.9-33.6-0.9c-2.8,0-5.5-0.3-8.3-0.3c-22.1,0.1-44.2,0.1-66.3,0.1
			c-14.7,0-29.5,0-44.2,0c-2.1,0-4.1-0.5-4.5,2.9c-0.4,2.7-3,1.6-4.9,1c0-5.7,0-11.3,0-17c0.6-0.7,1-1.5,1.7-2c2.1-1.5,1.7-4.1,3-6
			c0.6-0.5,1.3-0.6,2.1-0.4c0.4,0.3,0.8,0.6,1,1.1c0.6,1.6,0.4,3.4,0.7,5c0.3,1.9,1.8,1.8,3.1,1.5c5.1-1.3,10.2-0.9,15.2-0.1
			c4.5,0.7,8.9-0.3,13.4-0.3c4.6-0.1,1.9-3.9,2.6-6c0-0.8-0.1-1.6-0.1-2.4c0.2-2.8-0.7-5.9,1.4-8.4c4.2,1.9,1.7,5.7,2.4,8.5
			c0,1.6,0,3.3,0,4.9c0.9,3.7,4.2,3.6,7,4.1c4.8,0.8,9.6,0.2,14.4-0.3c9.1-0.9,18.1,0.2,27.1,0.5c9.8,0.4,19.6-0.1,29.3-0.5
			c9-0.4,18.1,0.5,27.1,0.2c2.7-0.1,3.6-1.2,3.4-3.6c0.1-1,0.3-2,1.1-2.8c1.6-0.4,2.3,0.8,2.4,1.8c0.5,3.4,2.9,4.2,5.6,4.5
			c6.8,0.6,13.6,0.9,20.4-0.6c1-0.2,1.9-0.5,2.1-1.7c0.4-2.3,0.2-4.6,0.2-7c0.1-2.5-0.3-5.1,0.7-7.5c0.3-0.5,0.8-0.8,1.4-0.9
			c4.5,1.8,2,5.8,2.7,8.8c0,2-0.1,4-0.1,6.4c0.7-2.9,0.3-5.4,0.4-7.9c0.9-2.4-2.2-5.8,2-7.3c1.4,0.6,1.8,1.9,1.9,3.3
			c-0.2,2-0.3,4-0.3,6c0.3,2.4-0.9,6.5,2.2,6.5c2.3,0,0.8-4.2,1.1-6.5c0-0.5,0-1,0-1.5c0-2.2-0.2-4.4,0.6-6.6
			c0.7-1.2,1.7-1.5,2.9-0.8c1.7,2.2,1,4.8,1.2,7.2c0,0.7,0,1.3-0.1,2.2c0.5-0.9,0.3-1.7,0.4-2.5c0.3-1.4-0.1-3.6,1.8-3.6
			c1.8,0,1.5,2.2,1.8,3.6c0.1,2.2,0.4,4.4,0.1,6.7c-0.3,2.4,0.6,3.8,3.2,3.8c2.3,0,4.6,0.4,7,0.3c15.6-0.5,31.2,0.1,46.7,0
			c3.3,0,6.5-1.2,9.8-0.7c2.8,7.6,1.1,10.4-6.5,11.6c-8,1.2-15.9,0.8-23.9,0c-6.8-0.7-13.6,0.1-20.4,0.4c-4.3,0.2-8.6-0.6-12.9,0.1
			c-0.6,0.1,0.2,0-0.5,0c-2.2,0-3-2-4.3-3.1c-1.9,2.8-3.3,2.2-4.5-0.5c-0.2-0.4-0.3-0.3-0.5-0.2c-11.4,4.1-23.5,2.8-35.2,4.5
			C163.4,67,162.6,67.7,161.9,69.2z"/>
		<path class="st3" d="M394.2,79.1c-0.5,1.9,0.5,4.3-3.3,4.7c-3.9,0.4-5.4,9-2.4,12.6c1.7,2,2.5,3.2-0.2,5.1
			c-2.1,1.5-1.9,12.1,0.2,14.3c1.8,1.9,2.6,3.4-0.2,5c-1.8,0.9-1.1,2.6-1.1,4c0,5.8,0.1,11.6,0.2,17.4c-6.3,0.7-12.6,0.1-18.8,0.3
			c-1.8,0.1-3.6-0.5-5.3,0.5c-0.3,0-0.7,0-1,0c-0.4-0.6-0.8-1.2-1.1-1.7c0.7-4.9,0.8-9.8,0.8-14.8c0-1.3,0.2-2.7,0.7-3.9
			c0.4-1,0.8-2.5,2.2-2.4s1.3,1.7,1.4,2.8c0.1,2.5,0,4.9,0.1,7.4c-0.1-7.7-0.2-15.4,0.5-21.3c0,1.8,0,5.5-1.2,8.8
			c-1.8,0-2.2-1-2.3-1.9c-0.3-6.6-1.5-13.1,0.2-19.7c1.8-7.2-1.7-11.8-10-13.2c-1.4-1,0.3-2.9-1.2-3.9c-1.1-7.9,0.1-9.5,7.6-9.4
			c9.4,0.1,18.9-0.7,28.3,0.6C395.3,71.2,395.5,71.6,394.2,79.1z"/>
		<path class="st4" d="M512.8,1.4c0,3.2,0.1,6.5,0.1,9.7c-2.1,1.8-4.6,1.5-7.1,1.5c-14.1,0-28.1,0-42.2,0c-7.6,0-7.6,0-8.1,7.5
			c-0.1,1-0.2,2-0.5,2.9c-0.2,0.6-0.6,1.1-1.2,1.4C453.3,16.6,453,8.8,454,1c6.7-1.1,13.5-0.2,20.2-0.5c1.9-0.1,4,0.5,5.8-0.5
			c2,0,4,0,6,0c7.2,1.1,14.4,0.2,21.7,0.5C509.3,0.8,511.2-0.1,512.8,1.4z"/>
		<path class="st5" d="M5.1,47.1c-0.8,2.4,1.1,5.9-3,6.9c-2-0.9-1-2.5-0.9-3.9c0.2-1.9,0.4-3.6-1.1-5c0-1,0-2,0-3
			c1.6-0.6,2.3,0.6,3.2,1.7c-0.6-1.7-1-3.4,0.1-4.9c0.9-1.3,1.8-1.3,2.6,0.2C6.6,41.8,7,44.6,5.1,47.1z"/>
		<path class="st6" d="M4.9,38c-2.4,2.1,0,4.9-1.1,7.2c-1.2-1.1-2.4-2.1-3.6-3.1c0-3.3,0-6.7,0-10c0.3,0,0.7,0.1,1,0.1
			c0.6,2.1,2.6,2.7,4,3.9l0,0c0.3,0.3,0.5,0.7,0.5,1.1C5.5,37.5,5.3,37.8,4.9,38z"/>
		<path class="st7" d="M512.8,1.4c-7.5,0-14.9,0-22.4-0.2c-1.5,0-3.4,0.9-4.5-1.1c9,0,18,0,27,0C512.9,0.5,512.9,1,512.8,1.4z"/>
		<path class="st8" d="M480,0.1c-0.4,1.6-1.8,1.2-2.8,1.2c-7.7,0-15.4-0.1-23.2-0.2c0-0.3,0-0.7,0-1C462.6,0.1,471.3,0.1,480,0.1z"
			/>
		<path class="st9" d="M739.7,48.1c0.7,1,0.4,2.8,2.2,3c0,0.7,0,1.3,0,2c-2.1,0.6-1.2,3.3-2.9,4.2c-1.6-1-3.4-1.9-4.4-3.6
			c0-0.5,0.2-0.8,0.5-1.2C737.2,51.6,737,48.3,739.7,48.1z"/>
		<path class="st10" d="M363,142.9c2.8-2.1,6-0.8,8.9-0.9c5.1-0.2,10.2,0,15.3,0.1c0,0.3,0,0.6-0.2,0.8
			C379,142.9,371,142.9,363,142.9z"/>
		<path class="st11" d="M0.1,45.1c2.4,0.5,3,2,2.4,4.3c-0.4,1.5-1.4,3-0.4,4.6c-0.7,0.4-1.3,0.7-2,1.1C0.1,51.7,0.1,48.4,0.1,45.1z"
			/>
		<path class="st12" d="M394.2,79.1c-2.7,0.7-2.5-0.6-1.4-2.2c2.6-3.9,0.8-4.4-3-5c-10.4-1.6-20.8-0.3-31.2-0.9
			c-4.3-0.3-6.3,0.9-5.6,5.4c0.2,1-0.1,2-1,2.7c-5,0-10-0.1-15-0.1c-1.8-2.2-4.3-2.2-6.8-2.4c-13.5-1.2-26.9-0.8-40.4-0.5
			c-18.6,0.4-37.3,0.9-55.9,0.5c-2.7-0.1-5.3,0.1-8,0c-7.5-0.2-15,0.1-21.7,4c-3.5-4.8-8.3-4.1-13.4-3.9c-4.3,0.2-8.6-0.2-12.9-0.3
			c-2.5-0.1-3.3,1-3.7,3.4c-0.5,2.7,1.1,5.7-1.1,8.2c-4.8-2.3-3-7-3.6-10.7c-0.7-4.2,3.8-3.7,5.9-5.5c-4.2-2.7-8.8-2.8-13.5-2.5l0,0
			c0-1.7-2.8-3.7,2.4-4c7.8-0.6,15.9,0.1,23.8-2c2.3-0.6,5.4-2.5,9.1-0.5c3.5,1.9,2.1-3.2,3.4-4.9c2,0.7,1.3,2.5,1.5,3.8
			c0.1,1,0.2,2.2,1.5,2.1c1.8-0.1,1.4-1.5,1-2.6c-0.3-0.9-0.7-1.8,0.4-2.8c1.4,1.2,1.6,2.9,2.1,4.3c0.5,1.4,1.5,2.7,2.8,2.2
			c4.5-1.5,9.1,0.1,13.7-0.3c7.3-0.5,14.7-1.3,22.1-0.3c8.5,1.2,17,0.6,25.5-0.4c2.1-0.2,2.8-1.6,2.8-3.5c0-2.2,0-4.3,0-6.5
			c-0.6-0.7-0.6-1.4,0-2.1c0.6-0.2,1-0.1,1.4,0.3c0.3,0.4,0.5,0.9,0.7,1.4c0.5,2.1,0.2,4.3,0.4,6.7c1.5-2.2,3.2-4.6,4.6-0.4
			c0.9,2.8,2.3,3.6,5.1,3.2c8.4-1.2,16.9-0.2,25.3,0.4c7.4,0.5,8,0.2,8.2-7.2c0-1.3,0-2.6,0.3-3.9c0.2-0.5,0.4-1,0.8-1.4
			c0.5-0.3,1-0.2,1.5,0.1c0.9,1.1,1,2.4,1,3.7c0.1,2.3-0.2,4.6,0.4,7.6c0.8-2.3,0.1-4.9,2.5-5.2c2.1-0.3,1.6,2.6,3.1,3.3
			c3.2-2.3,3.5-8.2,9.2-7.3c0.7,1,0.9,2.2,0.9,3.4c-0.1,2.4-0.6,4.8,0.5,7.7c0-3.3-1.8-7,3-7.8c6.2,0.6,7.7-0.5,9-6.4
			c0-2.5,0.3-5-0.2-7.5c-0.2-0.4-0.4-0.9-0.5-1.4c-0.3-0.8-0.4-1.5,0.3-2.2c2.2-0.7,3.1,0.6,3.9,2.3c0.2,3.2,2.2,4.2,5.1,4.2
			c5.5,0.1,11,0.3,16.5,0.2c20.6-0.2,41.2,0.2,61.9-0.1c2.6,0,5.3-0.3,7.9,0.8c1.2,0.6,1.4,1.7,1.5,2.9c-0.7,6.4,2.2,8.8,9.6,6.9
			c3.6-0.9,6.5-0.5,10,0.1c5.4,1,11.3,1.8,16.6-0.8c1.7-0.8,2.5,0.4,3.7,0.7c6.6,1.5,13.5,1,20.2,0.6c1.9-0.1,1.6-2.3,2.5-3.4
			c0.6-0.6,1.2-0.7,2-0.5c1.6,3.8,7.3,6.6,11.4,5.9c2.5-0.5,3.4-2.2,4-4.4c0.2-0.5,0.5-0.9,0.8-1.2c0.5-0.2,1-0.1,1.4,0.2
			c0.4,0.4,0.6,0.8,0.8,1.3c3,5.7,7.2,9.7,13.9,10.2c2.7,0.2,5.3,0,8,0.1c4,0.3,7-0.4,6.9-5.4c0-1.3,0.6-2.7,2.4-2.6
			c1.5,0.1,2.4,1.3,2.6,2.7c0.5,3.1,1,6.3-1.9,8.7c-10.4,0-20.9,0.1-31.3,0c-2.8,0-3.9,0.7-3.7,3.6c0.2,3.1-0.1,6.3-0.1,9.4
			c-0.8,2.7-3.2,2.8-5.2,2.6c-2.7-0.4-5.2,0.3-7.7,1.1c-1.2,0.1-1.7,0.7-1.7,1.8c0,0.8,0,1.7-0.3,2.5c-0.3,0.9-0.5,2.1-1.8,2
			c-1.1-0.1-1.6-1-2.1-1.9c-0.6-1.3-0.2-3.1-1.9-3.8c-2.2-1.1-4.5-1-6.8-1c-2.6,0-4.1,1.1-4.1,3.8c0,1.4,0.8,3.4-1,4
			c-2.5,0.7-2.2-2.4-3.5-3.3c0.1,1.5-0.1,3.9-1.8,2.7c-5.5-3.9-11.4-2-17.1-1.7c-3.9,0.2-6.4-0.8-6.9-4.9c-1.5-2.1-3.8-1.7-5.9-1.7
			c-13.3,0-26.6,0-39.9,0c-1.5,0-3.4,0.4-4.4-0.4C409.2,77.8,401.5,79.4,394.2,79.1z"/>
		<path class="st13" d="M203,80c7.5-6.2,16.5-5,25.2-5c14.1-0.1,28.3,0.4,42.4-0.1c14.3-0.5,28.7-0.9,43-0.8
			c6.8,0.1,13.5,0.7,20.3,0.9c3,0.1,3.1,1.8,3,3.9c-19.3,0.1-38.6,0.2-58,0.2c-20.7,0-41.3,0.1-62,0c-3.4,0-6.5,0.7-9.6,2.2
			c-8.8,4.6-17.4,9.8-26.9,13c-3.3,1.1-6.5,0.9-9.8,1.1c-2.7,0.2-2.6-1.8-2.8-3.7c-0.7-6-1.8-12-3.8-17.8c3.9-2.5,7.7-5.6,12.8-3
			c0.3,2.5-1.1,3.1-3.3,3c-2.8-0.1-3.6,1-2.9,4c0.8,3.3,0.3,6.9,2.3,9.9c0.2,0.1,0.4,0.2,0.6,0.3c2.9,2.3,5.9,1.5,8.9,0.5
			c4.4-1.5,8.4-3.9,12.8-5.5c2.4-0.8,4.5-2.2,6.9-3.2C202.6,80,202.8,80,203,80z"/>
		<path class="st14" d="M353.1,83c8-1.9,11.8,4.9,10.9,11.2c-1,7.6,0.6,15.1-0.3,24c2.5-5.5,2.2-10,3-14.4c0,10.8,0,21.6,0,32.4
			c-2.6-5-1.2-10.2-2-15.7c-2.8,4.9-1.4,9.8-1.6,14.4c-0.1,2.4-0.2,4.6-2.2,6.2c-2.1-0.6-1.5-2.3-1.5-3.7
			c0.1-10.7,0.3-21.5,0.4-32.2c0-2.2,0.5-4.2,1.4-6.2C364.9,90.4,362,84.8,353.1,83z"/>
		<path class="st2" d="M177,71c-4.9-1.5-8.3,3.2-12.8,3c-0.8-1.6-1.6-3.2-2.3-4.8c2.3-1.7,4.5-3.1,7.4-0.8c1.7,1.4,4.1,0.4,6.2,0.7
			C176.5,69.2,178.6,68.7,177,71z"/>
		<path class="st15" d="M706.9,69c-3.3,0.1-6.6,0.4-9.9,0.4c-31,0-62.1,0-93.1,0c-1.6,0-3.3-0.2-4.9-0.3c-1.7-2.3-1.8-4.7-0.3-7.2
			c2-1.6,4.4-1.4,6.6-1.4c4.5,0.1,8.9-0.5,13.4-0.5c2.4,0.7,4.9,0.6,7.4,0.6c26,0,52.1-0.1,78.1-0.1c3,0,6,0.3,8.8,1.5
			c1.6,0.7,3.8,1.2,3.2,3.7c-0.4,2-2.2,2.2-4,2.3C710.4,68,708.5,67.8,706.9,69z"/>
		<path class="st16" d="M465.9,85c1.7,3.4,4,4.3,8,3.4c4.3-0.9,8.9-0.2,13.4-0.4c2.4-0.1,2.3,1.8,3.1,3.1c1.3-2.3-0.8-5.1,1.4-7.1
			c0.7,0.7,0.5,1.5,0.6,2.3c0.5,7.5,1.1,8,8.2,7.3c3.4-0.3,5.6-1.8,5.9-5.4c0.1-1.5,0.2-3,1.4-4.1c4,0.5,0.6,4.8,3.8,6.4
			c0.1-2,0.2-3.7,0.3-5.5c3.4,1.4,2,4.1,1.7,6.5c-1.2,1.8-1.3,4-2.6,5.8c-0.5,0.3-1,0.3-1.5-0.1c-5.5,0-10.9,0-16.4,0
			c-1.6,0-3.4-0.3-4.7,1c0.4,12.3-1,24.5-1.3,36.7c-0.1,3.5-1.4,5.4-5.1,5.1c-5.1-0.5-10.3,1.2-15.2-1.1c-2.7-3.6-2.3-8-3-12.1
			c-0.3-2.1-0.6-4.2-1-6.2c-0.1-1.7-0.2-3.3,0.1-5c0.3-0.8,0.8-1.3,1.5-1.8c2.1-0.5,3.9-0.1,5.6,1.1c1,0.7,1.5,1.8,1.2,3
			c-0.3,1.1-1.1,1.7-2.2,1.4c-2.5-0.6-1.9,1-1.7,2.3c0.6,3.6,0,7.9,5.5,8.5c1,0.1,1.8,1.2,2,2.7c0.6-3.5,2.9-4.7,5.7-5.5
			c1-0.3,2-0.6,2.2-1.7c0.3-1.4-1-1.5-1.9-1.8c-2.9-1.1-3.2-3.3-2-5.6c1.5-2.9,0.5-5.1-1.3-7.2c-1.4-1.6-2.6-2.8-4.7-0.2
			c-2.3,2.8-5.7,1.9-8.8,0.7c0.2-4.8,2.8-8.7,4.5-13c0.3-0.8,0.8-1.3,1.8-1.4c4-0.4,8.6,2.3,10.4,6.1c0.8,1.7,1,3.5,1.9,5.1
			c0.9,1.5,1.7,3,2.1,3.8c-1.1-2.5-0.6-6-0.6-9.5s-1.3-5.2-5-5.1c-2.8,0.1-5.6,0.2-8.4-0.5c-3.3-0.7-5.9,0.1-6.7,3.9
			c-0.2,1.1-0.8,2.2-2.1,2.6c-3.2-0.6-1.7-2.9-1.6-4.6c-0.1-1.8-0.2-3.6,1.4-4.9C465.3,91.6,466.1,88.5,465.9,85z"/>
		<path class="st17" d="M706.9,69c1.4-2.8,4-1.7,6.2-2c1.1-0.1,2.1-0.5,2.3-1.5c0.3-1.4-1.1-1.4-2-1.7c-2.2-0.8-4.3-1.7-6.7-1.8
			c-14.2-0.1-28.4-0.6-42.6-0.3c-13.9,0.4-27.7,0-41.5,0.3c-1.3,0-2.7,0.3-3.7-1c3.2-2.5,7-1.2,10.5-1.5c2.1-0.2,4.3,0.1,6.4-0.2
			c3.2-0.8,6.8-0.7,9.1-3.8c0.7,0-0.2-0.9,0.1-0.3c0.1,0.3,0,0.3-0.4,0.3c-1.5,0.2-3.1,0.7-2.5-1.9c1.5-1.1,3.3-0.9,5-0.7
			c3.2-0.5,6.6-0.1,9.8-1.1c1.2-0.4,2.2,0,3.2,0.7c0.6-0.5-0.3,2.3,1,0.5c0.7-0.9,1.6-0.9,2.6-0.7c0.5,0.2,0.9,0.4,1.3,0.7
			c2.1,1.7,4.7,1.5,7.2,1.5c16.1,0.2,32.3,0,48.4,0.4c3.7,0.1,5-3.8,8.4-3.4c1.7,0.9,2.1,2.5,2.3,4.2c0.1,2.7,0.2,5.5-0.2,8.2
			C723.3,67.5,715.4,69.8,706.9,69z"/>
		<path class="st18" d="M562.9,68.1c0.8-2.7,1.3-5.5,1-8.3c-0.1-1.1-0.5-2.2-1.6-2.2c-1.4-0.1-1.5,1.3-1.3,2.2
			c1.1,6.2-2.3,6.8-7.2,6.3c-4.7-0.4-9.6,0.6-14.2-1.3c-2.3-0.9-4.9-1.4-4.8-4.7c-4.9,2.3-2.6-3.3-4.6-4.2c-0.3-0.1-0.1-1.2-0.2-1.9
			c9.2,1,18.3,0.9,27.5,0.2c1.2-0.1,2.3-0.3,3.2-1c1.6-1,2.7-0.6,4.2,0.7c3,2.5,8,1.4,9.6-1.7c0.1-2.3-0.3-4.6,0.9-6.7
			c3.9-2.1,2.7,1.6,3.5,3c0.3,1.6,0.3,3.2,0.4,4.8c-0.6,3.9,0,7.9-0.6,11.1c0.6-5,0.2-10.8,1.5-16.4c1.5-2.4,2.9-2.9,3.8,0.4
			c0.5,1.7,0.4,3.6,1,5.4c0.2,5.2,1.6,10.5-1.1,15.5c-6,0.9-12.1,0.2-18.2,0.5C564.5,69.7,563.6,69.1,562.9,68.1z"/>
		<path class="st19" d="M599,62c0,2.4,0,4.7,0,7.1c-2.7,0.4-5.3,0.5-8,0c-2.7-4.4-1.3-9.1-1.3-13.7c0.1-1,0.4-1.8,1.1-2.6
			c2.7-1.6,5.4-1.5,8.1-0.2c0.8,0.6,1.1,1.5,1.3,2.4C600.4,57.5,600.7,59.9,599,62z"/>
		<path class="st20" d="M514,83.9c3-1.2,5.9-2.5,9.4-1.3c1.5,0.5,3.2-0.4,4.4-1.6c0.4,1.2,0.8,2.4,2.1,2.9c0.3,0.3,0.5,0.6,0.5,1.1
			c-0.1,1-0.3,2,0.4,2.9c1.7,1.8,5.3-0.4,6.1,3.1c-2.7,2.1-5.6,1.6-8.6,0.7c-0.7-2-2-2.5-4.1-2.2c-2.2,0.3-4.5,0.1-6.8,0
			c-0.7,0,0.3,1,0.1,0.4c-0.1-0.2,0-0.4,0.3-0.4c3,0.4,6.2-0.8,9.2,0.7c0.2,0.6,0,1-0.5,1.4c-3.1,1.5-6.6,0.3-9.8,1.4
			c-1.2,0.1-2.4,0-3.1-1.1C513.7,89.1,512.9,86.4,514,83.9z"/>
		<path class="st21" d="M537,90c-2.7-0.6-6,1.4-8-2c1.7-1.7,3.9-1,6-1.3c-1.7-0.8-3.7,0-5-1.6c0-0.4,0-0.7,0-1.1
			c9-4.2,16.1,0.6,14.1,14.1c-0.3,1.9-0.1,3.9-0.1,5.9c-1.1,1-2.4,1.7-4,1.2c-1.4-1.6-0.2-3.5-0.5-5.3c1.2-2.1-1-2-1.8-2.8
			C536,94.9,538,92.3,537,90z"/>
		<path class="st22" d="M538.9,107.8c-5.2,1.5-10.4,3.3-15.7,4.4c-5.1,1.1-9.8,0-12.6-5.2c1.2-1.5,2.9-1.5,4.5-1.5
			c6.6-0.1,13.3-0.1,19.9,0.1C536.6,105.7,538.5,105.6,538.9,107.8z"/>
		<path class="st23" d="M467.3,137.9c5.4,2.1,11.1,0.7,16.6,0.9c2.7,0.1,1.9-2.5,2-4.2c0.9-12.2,1.7-24.3,2.6-36.5
			c0,10.9,0.3,21.7-0.1,32.5c-0.1,2.9,2.6,5.5,0.6,8.4c-3,2.1-6.4,1.2-9.6,1.4c-3.8,0.2-7.6-0.3-11.4,0.3c-1-0.2-1.9-0.6-2.1-1.8
			C466.2,138.2,466.5,137.8,467.3,137.9z"/>
		<path class="st24" d="M590.9,55.1c0,4.7,0,9.3,0.1,14c-2.3,0-4.7,0-7,0c0-5.3-0.1-10.7-0.1-16c0.2-0.2,0.3-0.3,0.5-0.5
			C586.8,52.7,588.7,54.4,590.9,55.1z"/>
		<path class="st25" d="M537.9,97c0.5,0,1-0.1,1.4,0c1,0.1,2.6-0.5,3,0.7c0.6,1.8-2,1-2.4,2.3c-0.1,2.1-0.4,4-3.3,3.1
			c-1-1-1.8-2.4-3.5-2.5c-5.6-0.3-11.2-0.4-16.8,0.1c-1.5,0.1-2.2,1.3-3,2.3c-0.6,0.6-1.4,0.8-2.3,0.7c-0.6-0.1-1-0.4-1.4-0.8
			c0-2-0.1-3.9-0.1-5.9c0.4,0,0.9-0.1,1.3-0.1c3.5-2.5,7.6-1.3,11.4-1.5c2.4-0.2,4.9-0.1,7.3,0C532.5,95.7,535.5,94.8,537.9,97z"/>
		<path class="st26" d="M509.8,102.9c0.4,0,0.8,0,1.2,0.1c5.3,0,10.5-0.7,15.8-0.4c2.1,0.1,4.3-0.3,6.1,1.2c0.4,0.4-0.7,1.8,1.1,1.3
			c2.7-0.7,5.4-0.8,7.2,2c-0.6,0.8-1.4,0.9-2.3,0.8c-4.2-2-8.7-0.6-13-0.8c-5.1-0.2-10.2,0-15.3,0
			C507.8,106.2,508.3,104.7,509.8,102.9z"/>
		<path class="st27" d="M731,64.1c-2.1-2.5-0.6-5.3-0.9-8c1.4-2.6-2.1-5.9,1.3-8.2c1.9,1.3,2.9,3.1,3.5,5.2c1.1,1.7,4.1,1.5,4.2,4.2
			C737.2,60.6,734.5,62.8,731,64.1z"/>
		<path class="st28" d="M460.8,98.8c0.9,1.3-0.5,3.8,2.1,4.3c1.5,3.9,1.5,7.9,1.1,11.9c-0.1,1.7-0.2,3.4-0.2,5.1
			c-0.6,0.4-1.1,0.5-1.6-0.1C461,112.9,459.3,105.9,460.8,98.8z"/>
		<path class="st29" d="M462.1,119.9c0.5,0,1.1,0.1,1.6,0.1c1.9,3.9,1,8.3,2,12.3c0.5,1.8,0.6,3.8,1.5,5.5c-0.4,0.3-0.9,0.7-1.3,1
			C462.7,133,463,126.3,462.1,119.9z"/>
		<path class="st30" d="M468,140.7c3-1.6,6.1-0.5,9.2-0.7c3.9-0.2,7.9,0.3,11.8-1c-0.4,1.5-1.6,2.1-2.9,2.1
			C480.1,141.2,474,142,468,140.7z"/>
		<path class="st31" d="M541.2,107.1c-2.8-1.8-6-0.8-9-1.2c-0.1,0-0.2-0.3-0.2-0.3c0.3-0.2,0.7-0.5,1-0.7c2.3-1.8,4.6-1,6.9,0
			c1.4-0.3,2.7-0.6,4.1-0.9C544.7,106.5,543,106.8,541.2,107.1z"/>
		<path class="st32" d="M75.1,36.3c27.3,0,54.7-0.1,82-0.1c0.6,3.5,0.6,6.9-0.3,10.3c-3.3,3.1-7.3,1-11,1.4
			c-5.7,0.6-11.5-0.8-17.3,0.2c-0.9,0.2-1.8-0.8-2.8-1c-6.6-0.4-13.2,0.3-19.8,0.7c-6.2,1.2-12.5-0.9-18.7,0.1
			c-0.6,0.1,0,0.3-0.5-0.1c-3.3-2.6-6.4-5.4-9.5,0.3c-0.2,0.3-1.4-0.5-1.9-1.3c-1.1-2.9-0.4-6-0.8-9C74.6,37.2,74.7,36.7,75.1,36.3z
			"/>
		<path class="st33" d="M447,47.1c-28.6,0-57.2,0-85.7,0c-7.1,0-7.1,0-7.3-6.9c-0.9-1.6-1.2-3.4-1.2-5.2c0-1.8,0.1-3.8-2.3-4.3
			c-2.7-0.6-3.9,1-4.5,3.3c-0.3,0.7-0.8,1.2-1.7,1.3c-0.5-0.3-0.6-0.8-0.3-1.3c-0.5-4.5,1-6.8,6-5.9c3.7,0.7,4.4-1.1,4.2-4.4
			c-0.3-6.1,0-12.3-0.1-18.4c-0.1-2.6,0.6-3.4,3.3-3.4c29.1,0.1,58.2,0.1,87.3,0c2.6,0,3.4,0.7,3.3,3.3c-0.2,6.1-0.1,12.3,0,18.4
			c0,1.6-0.7,3.4,1.1,4.5c0.3,0.4,0.5,0.8,0.5,1.3c-0.2,2.5-0.4,4.8,2.9,5.8c2.7,0.9,1.9,2.3-0.2,2.9s-2.9,1.9-3,3.9
			c-0.6,1-0.5,3-2.6,1.7c-1-2-1-4.2-1-6.3c0-9.3-0.1-18.6,0.1-27.9c0-3.7-1.4-5-5-5c-26.3,0.1-52.6,0.1-78.9,0
			c-3.8,0-5.4,1.3-5.3,5.2c0.2,8.1,0,16.3-0.4,24.4c0.1-1.8-0.1-3.5,0.3-5.3c0.2-0.6,0.6-1,1.1-1.3c1.4-0.6,2.8-0.6,4.2,0
			c0.5,0.3,0.8,0.7,0.8,1.2c-2.4,2.1-4.1,4.5-2.5,8.1c1.4-2.2,0.4-5,2.1-7.1c-0.4-5.4-0.5-10.8-0.3-16.2c0-1.9-0.3-4,1.8-5.3
			c2.5,3.3,3.1,25.9,0.9,32.3c-0.5,0.6-1.1,1.2-2.8,1.6c3.7-0.2,6.6-0.6,9.4,0.3c0.7,0.2,1.4,0.5,2.1,0.8c6.4,0.9,12.8,1,19.2-0.1
			c0.8-0.3,1.5-0.7,2.3-0.9c4.3-0.6,8.5-0.7,12.8,0c0.8,0.2,1.6,0.6,2.4,0.9c6.5,1.1,13,1,19.4,0c0.7-0.4,1.5-0.7,2.3-0.9
			c4.1-0.7,8.2-0.5,12.3-0.2c2.1-0.3,1.9,3,4,2.5c4.3-0.7,8.7-1.5,12.5,1.6c0.3,0.8,0.2,1.6-0.3,2.3C455.6,49.1,451.1,50.1,447,47.1
			z"/>
		<path class="st34" d="M280.1,36.3c0.4-0.2,1.3-0.4,1.3-0.6c-0.6-6.2,3.7-5.3,7.5-5.3c8.1,0.1,16.2,0.4,24.2-0.1
			c4.9-0.3,6.6,1.2,6,5.8c0.2,2.1-0.4,3.9-2,5.3c-7.9,1.4-15.9-0.1-23.8,0.3c-4.5,0.2-9-0.2-13.3,1.7c-1.9-0.3-2.2-1.9-2.7-3.3
			C276.8,37.7,277.9,36.6,280.1,36.3z"/>
		<path class="st35" d="M5.1,37.1c0-0.4,0-0.7,0.1-1.1c13,0.1,26,0.2,38.9,0.3c0.4,0.2,0.5,0.4,0.4,0.6s-0.2,0.3-0.3,0.3
			c0,2.9-0.1,5.9-0.1,8.8c-0.7,1.6-2.1,2-3.7,2c-7.9-0.3-15.8,0.5-23.6-0.7c-3.3-0.5-6.5,1.6-9.7-0.2l0,0c-1.2-1.7-1.5-3.4-1.2-5.5
			C6.2,40,6.5,38.4,5.1,37.1z"/>
		<path class="st36" d="M449.1,28.8c-0.1-0.2-0.1-0.5-0.1-0.7c2.3-0.3,5.7,0.8,4.9-3.7c0.1-0.4,0.2-0.8,0.3-1.2
			c12.9,1.2,25.8-0.7,38.7,0c4.6,0.2,9.3-0.3,13.9-0.5c2.1-0.1,4.3-0.4,6.1,1.2c0,1.4,0.1,2.7,0.1,4.1c0.4,0.5,0.6,1.1,0.6,1.7
			c-0.9,3-3.5,2.5-5.6,2.6c-2.1,0.2-4.2,0.2-6.3,0c-9.8,0-19.6,0.3-29.3,0c-5.5,0-11,0.4-16.5-0.3C453.5,31.3,450.9,30.8,449.1,28.8
			z"/>
		<path class="st37" d="M75.1,36.3c0,0.3,0,0.6,0,0.9c0.9,3.5,0.5,6.9-1,10.1c-6.7,0.6-13.4,0.2-20.1,0.1c-2,0-3.8-0.8-5.1-2.5
			c-0.4-0.5-0.6-1-0.8-1.6c-0.3-2.4-0.8-4.8,1-6.9C57.7,36.3,66.4,36.3,75.1,36.3z"/>
		<path class="st38" d="M202,45.1c0-2.6,0-5.2-0.1-7.8c-0.3-0.2-0.4-0.5-0.3-0.7c0.1-0.2,0.2-0.3,0.4-0.3c24,0,48,0,72,0
			c0.1,0.2,0.1,0.5,0.2,0.7c-0.2,0.2-0.3,0.4-0.5,0.5c-6.1,1.9-12.5,0.2-19.9,1.2c3,1.3,5.4,0.7,7.3,1.8c1.3,1.1,2,2.5,1.5,4.2
			c-0.8,1.2-2.1,1.6-3.3,1.9c-2.3,0.2-4.6,0.4-6.9,0.1c-4.3-0.7-8.6-0.2-12.9-0.3c-2.7-0.1-5.4,0.2-8.1,0.2c-2-0.6-4-1.6-3.5-4
			c0.6-2.8,3.2-2.4,5.3-2.3c2.9,0.1,6.1,2.1,9-1.5c-5.3-0.9-10.3-0.4-15.2-0.4c-6-0.1-11.9-0.2-17.9,0.1c-2.6,0.1-5.5,0.1-4.6,4.3
			C204.7,44.2,203.9,45.5,202,45.1z"/>
		<path class="st39" d="M156,47c0.6-3.6-1-7.3,1.1-10.8c0.3-0.2,0.6-0.2,0.9-0.1c2.4,3.2-0.8,7,1,10.3c4.4,6.4,10.8,5.7,17.2,4.9
			c4.1-0.6,8.2-1,11.8,1.7c-1.5,4-5.5,2.4-8,2.8c-6.9,1-13.9,0.1-20.8-0.5c-1.3-0.1-1-1-1.1-1.7c-0.2-2-0.6-3.9-1.9-5.5
			c-0.3-0.2-0.4-0.5-0.3-0.7C155.9,47.1,155.9,47,156,47z"/>
		<path class="st40" d="M319.9,36.3c4.1,0,8.1,0,12.2,0c2.3,3.7,1.2,7.7,0.9,11.6c-0.2,0.5-0.5,0.9-0.9,1.3
			c-2.7,0.3-4.8-2.4-7.9-0.9c-1.5,0.8-2.1-1.5-2.3-3c-0.4-2.2,0.4-4.6-0.8-6.7C320.6,37.9,319.8,37.3,319.9,36.3z"/>
		<path class="st41" d="M161,36.2c9,0,18,0,27,0.1c0.3,0.2,0.4,0.4,0.3,0.6c-0.1,0.2-0.2,0.3-0.2,0.3l0,0c-2.8,2-6.1,1.1-9.2,1.2
			c-4.7,0.2-9.5-0.2-14.2,0.6c3.4,1.3,6.9,1.8,10.5,1.6c1-0.1,2-0.3,3-0.2c1.6,0.1,3,0.8,3.1,2.6c0.1,1.7-1.4,2.1-2.6,2.5
			c-2.4,0.8-5-0.2-7.3,1c-0.4,0.2-0.9,0.3-1.3,0.4c-2.7,0.3-5.6-2-8.2,0.4c-1.8-0.1-1.8-1.6-2.1-2.8C159.8,41.6,159,38.7,161,36.2z"
			/>
		<path class="st42" d="M344,34c0,0.4,0,0.7,0.1,1.1c-0.9,2.7-0.3,4.3,2.9,4.5c1.8,0.1,3.5,0.5,5.1,1.5l0,0c0.9,5.8,0.7,6.1-4.7,5.7
			c-2.1-0.2-4.2,1.2-6.2-0.3c-1.2-0.3-2.3-0.8-3.1-1.7c-0.3-0.4-0.6-0.8-0.7-1.3c-0.4-1.2-0.4-2.4-0.4-3.6s0-2.4,0.1-3.6
			c0.1-0.7,0.5-1.4,1-1.9C339.9,34.2,341.9,34.1,344,34z"/>
		<path class="st43" d="M337.9,34.3c0,0.6,0,1.2,0,1.8c-1.7,1.3-1.6,3.1-1.6,4.9c-0.1,2.3,0.1,4.6,0,6.9c-0.1,1.8,0.3,4.4-1.5,4.9
			c-2.2,0.5-2-2.5-3-3.8c0.1-4.2,0.1-8.5,0.2-12.7C333.9,35.3,335.5,33.6,337.9,34.3z"/>
		<path class="st44" d="M188.2,37.2c-0.1-0.3-0.1-0.6-0.1-0.9c4.7,0,9.3,0,14,0c0,0.3,0,0.6-0.1,1c-0.8-0.2-1.5,0-2,0.8
			c-2.3,1-4.3,0.3-6.2-0.8c-1.4,2.2,0,4.6-0.7,6.9c-0.8,1-0.6,3.5-3,2C188.9,43.2,192.1,39.5,188.2,37.2z"/>
		<path class="st45" d="M274.1,37.1c0-0.3,0-0.6,0-0.8c2,0,4,0,6-0.1c-1.4,0.9-2.5,1.9-2,3.8c0.6,1.7,1.1,3.4,1,5.1
			c-0.1,2.8-1.3,4.4-4.3,2.3C273,44.2,273.6,40.6,274.1,37.1z"/>
		<path class="st44" d="M161,36.2c0,3,0,5.9,0,8.9c-2,0.3-1-1.6-1.6-2.4c-0.3,1.5,1.7,3.6-1.3,4.2c-2.8-3.6,0.3-7.2-0.1-10.8
			C159,35.7,160,35.8,161,36.2z"/>
		<path class="st2" d="M319.9,36.3c0.7,0.3,1.4,0.6,2,0.9c0.8,4.6,1,9.2,0,13.9c-0.3,0-0.6,0-0.9,0c-1.6-1.4-1.3-3.3-1.4-5.1
			c0.5-2.3-1.3-3.6-2.5-5.1c0.4-1.7,0.6-3.5,1.9-4.8C319.3,36.1,319.6,36.2,319.9,36.3z"/>
		<path class="st46" d="M44.1,37.2c0-0.3,0-0.6-0.1-0.9c1.3-0.5,2.7-0.6,4-0.2c0.4,2.9-0.2,5.7-0.1,8.6c-0.1,0.5-0.4,1-0.7,1.4
			c-0.8,0.4-1.5,0.5-2.2-0.1C44.3,43.2,46.2,40,44.1,37.2z"/>
		<path class="st47" d="M5.2,36c-4.1,1.1-4.1,1.1-4-3.9C4.8,31.1,5.6,32.9,5.2,36z"/>
		<path class="st48" d="M47.2,45.1c-0.3-3-0.1-6,0.9-8.9c0.3-0.1,0.6-0.1,0.9,0.1c0,2.3,0,4.5,0,6.8C48.3,43.6,48.9,45.5,47.2,45.1z
			"/>
		<path class="st49" d="M512.8,24c-17.8,0.3-35.5,0.6-53.3,0.9c-2,0-4,0.1-5.5-1.6c0.2-12.2,0.2-12.2,12.6-12.2
			c15.4,0,30.8,0,46.3,0C512.9,15.4,512.8,19.7,512.8,24z"/>
		<path class="st50" d="M599,35.2c21.3,0,42.6,0,63.9,0c2.2,1,4.5,0.7,6.8,1c3.8,0.4,4.3,2.1,2,5.6c-2.5,1.1-5.2,0.6-7.9,0.7
			c-1.5,0-3,0-4.5,0c-19.5,0-39.1-0.1-58.6,0.1c-0.6,0-1.2-0.1-1.8-0.5C597.2,39.8,597.2,37.5,599,35.2z"/>
		<path class="st51" d="M671.9,41.1c1.6-2.9,0.2-3.9-2.6-4c-2.3,0-4.6,0-6.4-1.9c13.7,0,27.3,0,41,0.1c4,1.1,8.3-0.6,12.2,1.5
			c1.5,0.8,3.3,1.2,3.1,3.3c-0.3,2.2-2.3,1.9-3.9,2.1c-5.3,0.5-10.6,0-15.9,0.6c-6.1,0-12.2,0.7-18.3-0.3
			C678,42.1,674.7,43.4,671.9,41.1z"/>
		<path class="st52" d="M528.1,35.8c11.6,0.9,23.2,0.2,34.8,0.3c0.1,2.1-0.9,3.8-1.9,5.6c-2,2-4.6,1.6-7,1.7
			c-4.7,0.1-9.5-0.1-14.2,0.1c2.5,0.8,5.8-1,7.3,2.5c-3,2.6-6.6,2.3-10.1,2.1c-2.1-0.1-3-1.7-3.3-3.7c-0.3-1.7,0.3-3.6-1-5.2
			c-1-0.8-2.2-0.9-3.4-1.2C528.5,37.5,527.3,37.3,528.1,35.8z"/>
		<path class="st4" d="M528.1,35.8c-0.1,1.1,0.8,1.3,1.6,1.3c1.3,1,1.3,2.3,0.7,3.7c-0.3,0.4-0.7,0.8-1.3,1
			c-2.8,0.7-5.7,0.7-8.3,2.2c-1.8,1-3.4,0.6-4.3-1.5c0.2-1.9-0.5-3.9,0.5-5.8c1.8,0.2,3.8,1.6,4.9-0.7c-2.5,0-5.2,0.4-7.8-0.5
			c-2.4-1.8-0.1-4.3-0.9-6.4c-0.1-0.3-0.2-0.7-0.3-1c2.9,0,6-0.3,8.8,0.1C525.9,28.9,528.8,31,528.1,35.8z"/>
		<path class="st53" d="M698.9,41.9c5.6-1.6,11.4-0.5,17.1-0.9c0.9-0.1,2.2,0.4,2.5-0.9c0.3-1.2-0.9-1.6-1.7-2.1
			c-2.3-1.4-4.8-2.1-7.5-1.9c-1.7,0.1-3.7,0.6-5.2-0.8c8-0.5,15.7,0.4,23.1,3.6c0.2,2.8,0.8,5.7-0.8,8.3c-6.2,0.8-12.4,1.3-18.4-1.3
			c1.8-3.8,5.3-1.1,7.9-2.2c-0.6-0.3-1.2-0.1-1.9-0.2c-3.9,0-7.8,0.1-11.8-0.1C700.7,43.3,699.6,43,698.9,41.9z"/>
		<path class="st54" d="M581,48.2c-0.5,6.4-1,12.7-1.6,19.1c-0.5,0-0.9-0.1-1.4-0.1c0-4.8,0-9.5,0-14.3c1.2-1.7,1.3-3.3-0.2-4.9
			c-1.9-0.1,0.6-2.9-1.7-2.8c-0.4-0.2-0.8-0.5-1-0.9c-0.4-1.9-0.6-4-3-4.5c-0.4-0.2-0.8-0.5-1.1-0.9c-0.9-1.3-1.4-2.6-0.2-3.9
			c6.1-0.2,6.1-0.2,8.2,3.4c1.6-0.6-0.2-3,1.8-3.3C583.5,39.5,582.3,43.9,581,48.2z"/>
		<path class="st55" d="M560.9,41.1c-0.2-2,0.1-3.8,2-4.9c0.3-0.2,0.6-0.4,1-0.6c2.1,2,1,4.8,1.9,7c0.3,1,0.4,2,0.4,3.1
			c0.1,3.3-0.8,7.3,5,5.1c2-0.8,3.3,1.1,4.6,2.3c0.2,5.1-4.2,2.8-6.3,3.4c-1.8,0.5-5.2,1.5-6.1-2.5c-0.3-1.2-1.7-0.1-2.6,0.1
			c-0.4-0.4-0.8-0.8-1-1.4c-0.6-2.2-0.4-4.5-0.4-6.7C559.5,44.1,559.9,42.5,560.9,41.1z"/>
		<path class="st9" d="M734.8,53.1c-1.8-0.8-3.4-1.8-3.3-4.3c-1.3,2.6,0.2,5.2-1.5,7.3c0-1.5-0.4-2.8-1.2-4.1
			c-0.5-0.6-0.7-1.3-0.6-2.1c0.2-1,0.3-2,0.3-3c0.6-2.3-1.4-5.6,2.3-6.9c2.6,1.7,5.5,3,7.1,5.9c0.4,1.3-0.4,1.3-1.3,1.3
			c0.2,1-2.3-2.5-0.9,0.5C736.9,49.7,736.7,51.5,734.8,53.1L734.8,53.1z"/>
		<path class="st56" d="M599,35.2c0.1,2.3,0.1,4.5,0.2,6.8c-0.2,0.2-0.4,0.4-0.6,0.6c-2.9,0.7-5.7,0.9-8.3-1c-1-2.2-1.1-4.4,0.5-6.4
			C593.6,35.2,596.3,35.2,599,35.2z"/>
		<path class="st57" d="M564.8,43.3c-1.3-2.4-0.5-5.1-0.8-7.7c2.3-1.3,4.7-0.5,7-0.5c-0.1,1.4,0.3,2.8,1,4c-0.1,0.7-0.5,1.3-1,1.7
			C569.1,42.1,566.6,41.8,564.8,43.3z"/>
		<path class="st58" d="M590.9,35.2c0,2.3,0.1,4.5,0.1,6.8c-0.1,0.2-0.3,0.3-0.4,0.5c-1.9,0.7-3.7-0.5-5.6-0.4
			c-1.6-2.5-0.5-4.7,1-6.8C587.5,35.2,589.2,35.2,590.9,35.2z"/>
		<path class="st59" d="M581,48.2c0-4.3-0.1-8.6-0.1-13c0.7-0.1,1.3-0.1,2-0.2c2.4,3,0.1,7,2,10.1c0.3,2.7,1,5.4-1,7.8l-0.1,0.2
			c-1.4-1.5-0.6-3.3-1-5C582.3,45.4,581.7,48.2,581,48.2z"/>
		<path class="st60" d="M734.9,53c1.8-3.6-0.9-6.1-2.7-8.7c2.9-2.1,3.2,3.4,5.8,1.5c0.9,0.5,1.4,1.3,1.7,2.2
			C737.6,49.3,739,53.7,734.9,53z"/>
		<path class="st61" d="M583.8,45.2c-1.9-3.2-0.2-6.8-0.9-10.1c1,0.1,2,0.1,2.9,0.2c0.8,2.3-1.9,4.6-0.2,7c1.1,0.8,1,1.8,0.4,2.9
			C585.4,45.7,584.6,45.7,583.8,45.2z"/>
		<path class="st62" d="M729.8,48c0.3,0.9,0.1,1.7-0.7,2.3c-1.5,0.7-2.6,0.3-3.5-1c-0.3-0.8-0.2-1.6,0.2-2.3
			c0.6-2.7-0.8-5.6,1.2-8.1c0.3,0.1,0.5,0.2,0.8,0.3C730.2,41.7,727.6,45.3,729.8,48z"/>
		<path class="st63" d="M729.8,48c-2.1,0.4-2-1.1-2-2.4c0-2.1,0-4.3,0-6.4c1.1-0.1,2.3-0.2,3.1,0.9C728.5,42.4,730.6,45.4,729.8,48z
			"/>
		<path class="st13" d="M47.2,45.1c0.6-0.7,1.2-1.3,1.9-2c0,0.3,0.1,0.6,0.1,0.9c2.4,6.4,4.4,7.7,11.6,6.7c1.7-0.2,3.3,0,4.9,0.1
			c3.4,0.2,6.7-0.1,8.4-3.8c0.4-3.3,0.7-6.5,1.1-9.8c2,3.1,0.4,6.6,1,9.8c2.6,5,3.6,5.4,8.2,2.1c1.9-1.3,3.3-2.2,4.9,0.2
			c0.8,1.2,2.2,1.4,3.5,1.5c10.4,1,20.8,0.8,31.3-0.3c6.6-0.7,13.4-0.3,20.1-0.2c3.9,0.1,8-1.3,11.8,0.8c0.4,3.6-0.1,4.7-4.7,4.6
			c-16.9-0.3-33.8,0.2-50.7,0.7c-7.8,0.2-15.9-0.5-23.8-1.2c-5-0.4-10.5,0-15.7,0.9c-5.2,0.8-10-1.1-15.1-1.5
			c-1.5-0.1-0.7-2.3-0.8-3.5c1.6-1.3,0.3-3.7,2-4.9C47.1,45.8,47.2,45.4,47.2,45.1z"/>
		<path class="st64" d="M156,51c-3.8,0.3-7.6,1.1-11.5,0.4c-0.5-0.1-1-0.4-1.5-0.2c-7.5,2.1-15.2-0.6-22.7,0.9
			c-10,2-19.9,0.1-29.9,0c-2.7,0-1.9-2.7-3.6-3.7c-2,4-5.9,4.6-9.4,4.1c-2.9-0.4-0.9-3.6-1.4-5.5c1.7,0.9,2-0.1,1.9-1.5
			c0-2.4,2.1-2.7,3.6-3.3c1.8-0.7,2.8,1,3.1,2.4c0.5,2,1.7,2.2,3.3,1.9c6.1-1.1,12,0.7,18.1,0.4c1.2-1,2.5-0.6,3.8-0.3
			c5.5,1.3,10.8-0.2,16.2-0.7c7.4,0.2,14.8,0.9,22.3,0.2c2.5-0.2,5.1,0.5,7.7,0.7c0.1,0.4,0.1,0.8,0.2,1.1
			C156.1,49.1,156.1,50.1,156,51z"/>
		<path class="st65" d="M253,46.1c2,0.1,4-0.7,6,0c4.3-0.7,8.7,0,12.8-1.6c0.7-0.7,1.2-2.5,2.6-0.8c-0.3,2.1,0.8,4.2,0,6.3
			c-4.9,3.8-11,2.7-16.6,3.4c-8.3,1.1-16.6-1.5-25-0.8c-4.6,0.4-9.2,0.7-13.8-0.5c-2-0.5-3.9,0-5.8,0.7c-3.3,1.3-5.8,0.8-7.3-2.7
			c0.7-2-0.2-4-0.1-5.9c8.3,1.6,16.8-0.4,25,2c2.5-1.4,5.3-0.9,7.9-0.9C243.6,46.4,248.4,45.1,253,46.1z"/>
		<path class="st66" d="M231,46c-6.2-0.3-12.4,0.9-18.6,0.1c-2.4-0.3-4.5-0.7-6.4-2.1c-0.1-0.9-0.2-1.9-0.3-2.8
			c-0.8,3.2-0.4,6.6-2.7,9.9c-1.4-2.2-0.7-4.2-1-6c1.3-0.6,2.5-1.7,1.8-3.1c-1.9-4.2,1.5-4.7,3.7-4.8c11.6-0.2,23.3-0.1,34.9-0.1
			c1,0,2.1,0,2.3,1.3c0.2,1-0.6,1.4-1.3,1.9c-2.4,1.8-4.7,3.7-8,1.8c-0.8-0.4-1.9-0.4-2.9-0.3c-1.3,0.2-3.1-1.5-4,0.5
			C227.5,44.7,230.4,44.7,231,46z"/>
		<path class="st67" d="M206.1,50c2.3,2.6,4.9,2.8,7.9,1.1c1.1-0.7,2.4-1.4,3.8-0.9c7.4,2.7,15.1-0.4,22.5,1.1
			c6.3,1.2,12.7,1,18.8,0.9c4.7-0.1,10.2-0.2,15-2.1c0.6,0.7,0.7,1.4,0.1,2.1c0,0.7,0,1.3,0,2c-6.3,3.5-13.2,1.7-19.8,1.9
			c-14.6,0.4-29.2-0.1-43.8,0.1C205.2,56.1,206,53.1,206.1,50z"/>
		<path class="st68" d="M7.1,47c6.3-2.2,12.8-0.3,19.1-0.5c5.9-0.2,11.9,1.1,17.8-0.5c0,0.7,0,1.3,0,2c0,5.3-3.5,3.5-6.8,4
			c-8.6,1.4-17.3-0.4-25.8,1.4c-1.4,0.3-2.9,0.7-4.2-0.5C7.2,51,7.1,49,7.1,47z"/>
		<path class="st64" d="M158.1,47c1.7-1.3,0.5-3.3,1.3-5.1c0.6,1.1,1.1,2.2,1.6,3.2c0.3,0.4-0.4,1.9,1.1,1c2.6-1.8,5.3,1.7,8-0.1
			l0,0c6,0.8,11.9-2.1,17.9-1c0,2.7,0,5.3,0,8c-7-1.9-14.1,0.4-21.1,0.1C162.5,52.9,160.3,50.1,158.1,47z"/>
		<path class="st44" d="M188,45c-5.9,1.5-11.8,3.3-17.9,1c2-3.1,5.3-0.9,7.8-1.8c1-0.4,2.8,0.3,2.6-1.5c-0.2-1.7-1.8-1.9-3.1-1.3
			c-4,1.7-7.8-0.1-11.6-0.5c-0.7-0.1-3.9,0.8-3.6-2c0.3-2.5,2.5-1.7,4-1.7c7.3,0,14.7,0,22,0C188.1,39.8,188,42.4,188,45z"/>
		<path class="st67" d="M7.2,53c7.9-0.6,15.8-3.5,23.8-0.7c1.4,0.5,2.1-0.8,3.1-1.2c1.5-0.7,3.2-1.6,4.7-0.6c3.4,2.4,4.3,0,5.3-2.5
			c0,1.5,0,3,0,4.5c0,2.3-1,2.5-3.3,2.8c-10.1,1.5-20.3-2.3-30.4,0.6C8.1,56.6,6.8,55.4,7.2,53z"/>
		<path class="st69" d="M199.9,46c0,1.8,0.1,3.6,0.1,5.4c0,1.4,0.5,3.2-1.7,3.5c-2,0.3-2.9-1-3.7-2.6c-1-2-0.6-4.2-0.6-6.3
			C196,44.6,198,45.4,199.9,46z"/>
		<path class="st70" d="M193.7,37.2c2.1-0.2,4.3-0.4,6.2,0.8c0.1,2.3,0.6,4.7-0.1,7c-5.6,1-5.7,0.9-4.9-5.1
			C194.5,39,194.1,38.1,193.7,37.2z"/>
		<path class="st71" d="M190,46.1c1.6,0.2,2-1.3,3-2c0,2.5,0,5,0,7.4c0,1.3-0.4,2.5-1.7,2.6c-2,0.1-1.1-1.6-1.2-2.6
			C189.9,49.8,190,47.9,190,46.1z"/>
		<path class="st72" d="M5.1,37.1c2.2,0,2.4,1.7,1.9,3c-0.9,2.4,0.1,4.7,0.1,7c-0.6,0-1.3,0-1.9,0C5.1,44.1,5,41,4.9,38
			C4.9,37.7,5,37.4,5.1,37.1z"/>
		<path class="st73" d="M195,39.9c-0.8,4,1.4,5.2,4.9,5.1c0.1,0.3,0.1,0.6,0,1c-1.9,1.8-3.9-0.2-5.8,0C194.3,44,193.4,41.8,195,39.9
			z"/>
		<path class="st48" d="M47.1,46.1c-0.5,1.7,1.2,4.3-2,4.9c0-1.6-0.1-3.3-0.1-4.9C45.7,46.1,46.4,46.1,47.1,46.1z"/>
		<path class="st74" d="M384.5,135c-0.9-3.7-0.7-7.3-0.1-11C385.4,127.7,385,131.3,384.5,135z"/>
		<path class="st75" d="M449.1,28.8c2.2,0.2,4.6-0.3,5.9,2.3c1.4,1.2,0.8,3.7,3,4.4c4.5,0.3,8.9,0.1,13.3,0.1c1.3,0,2.6,0,3.9,0.4
			c1.8,0.6,3.9,1.3,3.6,3.4c-0.2,2-2.5,1.7-4,1.9c-3,0.2-5.9-0.1-8.9,0.2c-0.4,0.2-0.9,0.4-1.4,0.6c-1.8,0.7-2.1,2.2-2.5,3.9
			c-0.7,3.7,1.8-0.3,2,0.9c0.5,0.5,0.8,1.2,0.9,1.9c0.3,1.3,0.5,2.9,2.1,3c4.9,0.1,9.8,1.2,14.7,0.7c1.2-0.1,1.6-1,1.7-2.1
			c0.1-1.4,0-2.8,0-4.2s0.1-2.8-0.5-4.1c-0.5-1.4-3.8-1.9-1.1-4.2c2.6-2.2,7.6-2.1,10,0.2c2.3,2.1-0.5,2.6-1.1,3.8
			c-0.6,1-0.7,2-0.7,3.1c0.1,1.5-0.1,4.1,0.8,4.1c3.6,0.1,5.8,3.6,9.5,3.3c3.3-0.3,6.7-1.4,10.1,0.1c0.1,0.2,0.3,0.4,0.4,0.6
			c0.7,4.3-0.8,5.4-5.3,5.1c-5.7-0.4-11.5,0.9-17-0.9c-2.7-0.9-4.5,0.5-6.8,0.7c-3.3,0.2-6.7,0.2-10,0c-2.8-0.2-6.1,1.2-8.3-2
			c-0.6-0.8-1.9-0.3-2.3,0.1c-3.4,3.4-7.6,1-11.3,1.5c-3.7,0.5-4.9-2.7-3.2-7.6c1.9-0.4,3.6,0.6,5.3,1.1c3.4,1,6.2,0.6,7.7-3.1
			c0-0.7,0-1.4-0.1-2c-1-2.7-3.1-3.5-5.9-3.5c-2.1,0-4.4,0.3-6-1.5c-0.7-4.2,2.3-3.9,5.3-3.9c-1.5-2-4.7,0.3-5.1-2.6
			C447.9,32.6,447.3,30.5,449.1,28.8z"/>
		<path class="st55" d="M331.7,72c-1.8,1.6-3.5,1-5.1,1c-47.4,0-94.9,0-142.3,0c-0.8,0-1.7,0-2.5,0c-1.1-0.1-2.6,0.2-2.5-1.6
			c0.1-1.3,1.3-1.3,2.3-1.3c1.2,0,2.3,0,3.5,0c46.4,0,92.9,0,139.3,0C326.9,70,329.5,69.5,331.7,72z"/>
		<path class="st2" d="M321,56c0,0.3,0,0.7,0,1c0,8.3-0.5,8.6-8.8,8c-9.3-0.6-18.6-2.1-27.9-0.1c-2.4,0.5-4.2-0.4-4.4-3.3
			c0-1,0.5-2.4-1.2-3c-0.2,0.4-0.5,0.7-0.7,1.1c-0.7,1.5,0.9,4.7-1.3,4.6c-2.9-0.1-1.6-3.4-1.8-5.3c-0.2-2,0-4,0-6
			c0.8-0.5,1.8-0.8,2.4-1.5c2.5-2.7,3.3-1,4,1.4c1.1,2.5,3.4,1.7,5.2,1.6c9.4-0.6,18.7,1.4,28.1,0.4C316.8,54.7,319,55,321,56z"/>
		<path class="st13" d="M173.1,88c0.7-3.4-1.3-6.7,0.1-10.4c0.6-1.6,1.2-2.4,2.2-2.4c8.4-0.2,16.8-0.3,25.1-0.1
			c3.1,0.1,1.4,3.3,2.5,4.9l0,0c-2.5,1.6-5.1,2.9-7.9,3.9c-4.3,1.3-7.9,4.1-12.2,5.3C179.5,90.2,175.8,92,173.1,88L173.1,88z"/>
		<path class="st76" d="M280,52c-0.1-0.3,0-0.7-0.2-0.9c-0.6-0.5-0.7,0.1-0.8,0.5c-0.6,2.5-2.1,2.5-3.9,1.4c0-0.3,0-0.6,0-1
			c-0.7-1.7-0.9-3.4,0.1-5.1c1.4,0.8,2.8,1.4,2.9-1.1c0.1-1.9,0-3.9,0-5.8c0.6,1,1.2,2,1.8,3c5.7,3.4,12,1.2,18,2
			c7.6,1.1,15.4,1,23-0.1c0.1,2,0.1,4.1,0.2,6.1c-0.1,0.3-0.1,0.6-0.1,1c-0.7,1.5-2,2.2-3.6,2.1c-6.6-0.1-13.2,0.9-19.8-0.2
			c-4.4-0.7-8.9,0-13.3-0.2C282.6,53.7,280.9,53.9,280,52z"/>
		<path class="st77" d="M280,52c2.7,1.7,5.4-0.1,8.2,0.1c10.1,0.6,20.3,0.6,30.4,0.8c0.8,0,1.5-0.6,2.3-0.9c0,1.3,0,2.7,0,4
			c-4.3,1.1-8.8,1.1-12.9,0.7c-8.1-0.7-16.1-0.5-24.2-0.6C280.8,56.1,279.6,55,280,52z"/>
		<path class="st2" d="M331.9,49c3.3-1.3,1.2,2.7,3.2,3.1c0-4.3,0.1-8.4,0-12.5c0-2.1,0.3-3.7,2.9-3.4c0,1.3-0.1,2.6-0.1,3.9
			c-1.2,1.4-1.3,2.8,0.1,4.1l0.1-0.1c1.5,2.4,1.6,5,0.9,7.6c-0.2,0.6-0.6,1-1,1.4c-3.2,0.7-3.8,4-6,5.8c-1.2,1-0.2,4.2-3,3.8
			s-1.5-3.3-2.4-4.9c-2.2,0.8-1.4,2.2-0.9,3.6c0.5,1.5,0.2,2.9-1.3,3.2c-1.7,0.3-2.2-1.2-2.3-2.6c-0.1-2.3,0-4.7,0-7
			c2.8-1.4,2-5,4.1-7c3,0.7,1.1,4.2,3,5.4C331.3,52.5,330.5,50,331.9,49L331.9,49z"/>
		<path class="st78" d="M560.9,53c0,0.4,0,0.7,0,1.1c-0.3,0.8-0.8,1.5-1.7,1.5c-9.1-0.1-18.3,1.2-27.4-0.1c-0.7-0.1-1.2-0.9-1.9-1.4
			c0-0.3,0-0.7,0-1c-0.9-1.1-1.1-2.3-0.5-3.6c8.9,2,18,2.8,27.1,1.9C558.1,51.2,559.9,51.2,560.9,53z"/>
		<path class="st79" d="M528.9,54c0.6,4.4-1.9,6.2-5.7,5.9c-3.4-0.2-6.8-1-10-2.2c-2.4-0.9-0.9-3-0.3-4.6c0.1-1.6-0.3-3.5,2.4-3
			c1.9,2.1,4.3,2.7,7,2.6C524.6,52.7,526.9,52.3,528.9,54z"/>
		<path class="st80" d="M528.9,54c-3.3,0-6.5,0-9.8,0.1c-2.8,0.1-4.3-1-4.2-4c-0.6-0.8-0.5-1.6,0.1-2.4c4.7-1.3,9.5-3.4,14.2,0.2
			c0.3,1.7,0.6,3.5-0.2,5.1C528.9,53.4,528.9,53.7,528.9,54z"/>
		<path class="st43" d="M331.9,48.9c0,1,0,2,0.1,2.9c0.4,2.7-1.5,3.6-3.5,3.6c-2.3,0-1.3-2.2-1.5-3.4c-0.2-0.9,0-1.9,0-3.2
			c-2.3,1.8,0.4,7.2-5,6.1c0-1.3,0-2.6,0-4c0-4.6,0-9.2,0-13.9c2,2.3,0.5,5.1,1,7.6c0.2,1.4-0.4,3.8,2.6,1.8
			C328.4,44.6,329.8,48,331.9,48.9z"/>
		<path class="st55" d="M345.1,34c-0.6-3.8,0.9-5,4.8-5c4.4-0.1,4.2,2.4,4.1,5.3c-0.1,2-0.1,3.9-0.1,5.9c-0.9-0.4-1.8-1.7-2.8-0.1
			C346.5,40.5,346.6,36.4,345.1,34z"/>
		<path class="st81" d="M341,45.1c3,0.5,6.1,0.4,9.2,0.7c3,0.3,1.4-3,1.8-4.7c2.1,2.8,0.8,5.9,1,8.9c-2.6,3.9-6.6,2.7-10.2,2.8
			c-0.5-0.2-0.9-0.5-1.3-0.9C340.3,49.7,339.2,47.5,341,45.1z"/>
		<path class="st82" d="M460,48c-0.1,5-2.3,6.3-7.9,4.5c-1.8-0.6-3.4-1.7-5.2-2.5c0-1,0-2,0-3C451.3,47.4,455.6,47.7,460,48z"/>
		<path class="st75" d="M514.9,48.1c0,0.7,0,1.3,0,2c-0.7,1-1.4,2-2,3.1c-0.6,0-1.3,0-1.9,0l-0.1-0.1c-1.4-1.6-1.3-3.5-1.3-5.3
			c0.9-4.8-2.4-5.4-5.9-5.8c-0.6-0.1-1.3-0.4-1.9-0.6c-0.9-0.4-2.1-0.6-1.9-1.9c0.2-1.1,1.4-1.2,2.3-1.5c2.9-0.8,6.3,0.8,8.9-1.8
			c0.9-0.7,1.9-0.4,2.9-0.1c0.7,0.1,1.4,0.3,2,0.7c1.6,2.5-0.7,3.5-1.8,5c-0.7,1-1.2,2.2-0.9,3.5c0,0.2,1-0.4,1.7-0.3
			c0.4,0.3,0.6,0.7,0.7,1.2C515.7,46.9,515.5,47.5,514.9,48.1z"/>
		<path class="st83" d="M343,52.1c3.4-0.5,6.9-0.2,10-2.1c-1.1,7-4.1,9.2-10,7C341.7,55.4,341.6,53.8,343,52.1z"/>
		<path class="st2" d="M343,52.1c0,1.6,0,3.3,0,4.9c-2.8,0.7-3.3,2.5-2.1,4.8c0.7,1.4,1.3,2.8-0.3,3.9c-0.5,0.4-1.3,0.9-1.7,0.7
			c-1.7-0.9-0.8-2.6-0.9-4c-0.1-1.8,0-3.6,0-5.4c1.7-1.3,1.5-3.5,2.7-5.1c0.4-0.3,0.8-0.3,1.2,0C342.3,52,342.6,52,343,52.1z"/>
		<path class="st84" d="M345.1,34c3,1,2.6,5.4,6,6c0.3,0.4,0.6,0.7,0.9,1.1c-2.4-0.1-4.9,0-7.3-0.9c-0.9-0.3-2.5,1-2.7-1
			c-0.1-1.6-0.9-3.8,1.9-4.2C344.4,34.7,344.7,34.3,345.1,34z"/>
		<path class="st2" d="M275.1,47c0,1.7-0.1,3.4-0.1,5.1h-0.5H274c0-0.7-0.1-1.4-0.1-2.1c0-2.3,0-4.6,0-6.9c-0.4-0.4-0.7-0.8-0.9-1.4
			c-0.4-1.7-0.3-3.3,1-4.6l0,0C276.3,40.2,274.4,43.7,275.1,47z"/>
		<path class="st83" d="M341,52.1c-0.1,2.2,0.3,4.7-3,4.9c0-1.3-0.1-2.6-0.1-3.9c0-0.4,0.1-0.7,0.1-1.1
			C339.1,51.2,340.1,51.2,341,52.1z"/>
		<path class="st18" d="M529,53c0-1.7-0.1-3.4-0.1-5c-0.5-0.7-0.9-1.4-1.1-2.2c-0.2-1.7-0.1-3.3,1-4.7c0.4,0,0.7,0,1.1,0
			c1.2,1,1.3,2.5,1.3,3.9s0,2.9-1.3,4c0,1.3,0,2.7-0.1,4h-0.5H529z"/>
		<path class="st21" d="M514,83.9c0,2.7,0,5.3,0,8c-0.2,0.1-0.4,0.2-0.6,0.3c-0.2-0.1-0.4-0.2-0.6-0.3c-0.2-2.3,0.8-4.8-0.8-7
			C512.2,83.6,512.4,82.5,514,83.9z"/>
		<path class="st85" d="M173,88c5.7,4,10.7,0.1,15.5-2c2.2-0.9,4.3-2,6.5-2.9c0.4,0.2,0.7,0.5,1,0.9c-6.4,2.9-12.2,7.2-19.7,7
			C174.2,91,172.8,90.5,173,88z"/>
		<path class="st12" d="M196,84c-0.3-0.3-0.6-0.6-1-0.9c2.7-1,5.3-2.1,8-3.1C201.4,82.5,198.7,83.2,196,84z"/>
		<path class="st86" d="M599,62c0-2.3,0-4.6,0.1-6.9c1.3-1.5,3-1.4,4.6-1c2.7,0.6,5.4,0.9,6.9-2.1c1.4-2.8,4.2,1.2,5.6-1.2
			c0.8-0.5,1.7-0.6,2.6-0.1c1.2,2.9,3.2,2.4,5.4,1.4c4.1-0.7,8.1,0.3,12,1.2c0.4,0.2,1,1,0.9,1c-3.6,1.9,0,3.9-0.1,5.8
			c-5.9,2.3-12,0.4-18,1C612.3,62.6,605.6,61.8,599,62z"/>
		<path class="st23" d="M465,111.9c1.4-0.5,2.5-1.9,4.1-1.3c2.3,0.9,3.9,1.5,3.5-2.1c-0.1-1.1,1.1-1.5,2.2-1.4
			c3.8,0.2,7.8,7.2,6,10.5c-1.7,3.1-2.8,5.6,2.6,4.8c1.5-0.2,1.5,1,1.5,2c0,1.3,0.4,2.8-1.3,3.4c-0.8,0.3-1.6,0.5-2.4,0.6
			c-2.9,0.6-5.7,1.2-4.5,5.3c0.2,0.8,0.1,1.8-1,1.9c-1.4,0.2-1.8-0.7-1.6-1.8c0.6-3.4-1.8-3.7-3.9-3.4c-2.3,0.3-3-1-3-2.3
			c0-3.8-1.9-7.4-1.1-11.2c0.4-0.2,0.8-0.4,1-0.3c1.2,0.3,1.4,2.5,3.1,1.8c0.3-0.1,0.5-0.9,0.4-1.3c-0.3-1.6-1.6-1.9-3-2.1
			c-1-0.2-1.9-0.6-2.8-1C464.4,113.3,464.4,112.6,465,111.9z"/>
		<path class="st87" d="M465,111.9c0,0.7,0,1.3,0,2c-0.3,0.3-0.7,0.7-1,1c-0.7-3.9-2.3-7.8-1.1-11.9c0.4-1.8,0.8-3.5,1.1-5.3
			c0.3-2,1.7-3.1,3.5-2.6c4.7,1.5,9.6,0.7,14.3,0.8c2.9,0.1,4.2,1.2,4.2,4.2c-0.1,4.1,0,8.3,0,12.4c0,0.8,0,1.5,0,2.6
			c-3.4-4.5-5.3-9.2-7.1-14c-0.5-1.4-1.6-2.5-3-1.9c-2.4,1.1-3.7-0.4-5.2-1.9C468.7,102.5,466.8,107.2,465,111.9z"/>
		<path class="st21" d="M530.1,96.8c-6.4,0-12.7,0.1-19.1,0.1c0.3-1.8-1.2-4.3,1.9-5L513,92c5.1,0.8,10.2-0.5,15.3,0
			c1.3,0.1,3-0.2,3.6,1.2C532.6,94.8,531.5,96,530.1,96.8z"/>
		<path class="st88" d="M659.9,53.1c-3.3,0.5-6.8-0.3-9.9,1.3c-0.9,0.4-1.5,0.5-2.1-0.4c-0.2-1.4-0.2-2.9-1-4.2
			c-0.7-1.5-1.9-2.8-1.2-4.6c2.3-2.3,5.3-1.2,8-1.5c2.1-0.2,4.3,0.6,6.4-0.4c0.6-0.4,1.3-0.7,2.1-0.5c5.2,2.9,11,1.3,16.5,1.8
			c1.3,0.1,2.6-0.4,4-0.2c9.9,0.1,19.8,1.5,29.7,2.1c0.8,0.1,1.7,0,2.5,0.3c1.6,0.5,2.7,1.6,2.5,3.3c-0.1,1.6-1.6,2-2.9,2.2
			c-2.8,0.3-5.7-0.1-8.1,1.8c-13.4,1-26.7,0.7-40,0c-0.9,0-1.6-0.5-2.2-0.9c-0.3,0-0.6-0.1-0.9-0.1C661.7,48.3,661,53.7,659.9,53.1z
			"/>
		<path class="st89" d="M663.9,53.1c14.4,0,28.7-0.1,43.1-0.1c3.9-1.9,8.2-0.6,12.2-1.2c2.5-0.4,4.8-1,6.8-2.6c1,0.4,2,0.7,3.1,1.1
			c-0.1,0.6-0.1,1.2-0.2,1.8c-5,6.3-11.9,3.8-18.2,4.1c-5.9,0.3-11.8,0.5-17.8,0.4c-8.9-0.2-17.8-0.7-26.6-0.9
			C664.4,55.5,664,54.5,663.9,53.1z"/>
		<path class="st90" d="M648,49.9c1.5,1.4,1.7,2.8,0,4.1c-2,0-4,0-5.9,0c-1.7,2.4-3.4,2.4-5.1,0c-4.6-0.4-9.2-0.7-13.8-1.1
			c-1.8-2.6-0.1-3.5,2-4.1c1.9-0.5,3.9-0.4,5.8-0.3C636.6,49.1,642.5,47.1,648,49.9z"/>
		<path class="st91" d="M636.9,54c1.7,1.1,3.4,1.1,5.1,0c1,1.6,2.8,0.5,4.3,1.5c-2,3.9-5.4,4.8-9.3,4.5c-1.5-1.4-3.5-2.3-4.4-4.3
			C633.8,54.4,636,55.8,636.9,54z"/>
		<path class="st92" d="M659.9,53.1c0.1-0.3,0.2-0.6,0.4-0.9c1.2-1.4-0.2-5.3,2.8-4.5c2.1,0.6-0.4,3.4-0.2,5.2
			c-2.4,0-0.9,2.9-2.7,3.4C658.4,55.6,660.2,54.2,659.9,53.1z"/>
		<path class="st54" d="M570.9,40.1c0.4-0.3,0.7-0.7,1.1-1l0,0c2.5,1.2,1.7,4.4,3.8,5.8l0.4,0.3c-0.1,2.6-0.2,5.1-0.3,7.7
			c-2.3,0-4.3-0.9-7-0.3c-6.2,1.4-3.3-4-3.8-6.8C567.2,44.1,570,43.1,570.9,40.1z"/>
		<path class="st93" d="M577.9,48c1.9-0.2,2.2,0.8,2.1,2.4c-0.1,1.3,0.2,2.8-2,2.5C578,51.3,578,49.7,577.9,48z"/>
		<path class="st94" d="M616,51.1c0.6,1.2,0.7,2.5-0.5,3.1c-1.3,0.7-1.4-1-1.9-1.7c-0.7-1-1.9-1.4-2.2-0.1c-1.3,5-4.6,3.4-7.9,2.7
			c-1.4-0.3-3-0.1-4.5-0.1c0-0.7-0.1-1.4-0.1-2.1c-0.6-0.6-0.7-1.3-0.5-2.1c1.1-2.7,3.2-3.8,5.9-3c3.8,1.1,8.4-1.6,11.5,2.6
			C615.9,50.6,616,50.9,616,51.1z"/>
		<path class="st95" d="M599.1,50.9c-0.1,0.7-0.1,1.4-0.2,2.1c-2.7,0-5.3,0-8,0c-1.7-1.8-1.4-3.8-1-6c0.2-0.6,0.6-1.1,1.1-1.5
			c2.7-1.2,5.3-1.3,8,0.2C600.4,47.4,599.9,49.2,599.1,50.9z"/>
		<path class="st96" d="M590.8,47.1c0,2,0.1,4,0.1,5.9c0,0.7-0.1,1.4-0.1,2.1c-3,1.4-4.6-1.4-6.9-2.2c-0.1-2.6-0.1-5.2-0.2-7.8
			c0.6,0,1.3,0,1.9,0c0.4,0.1,0.8,0.3,1.1,0.6C588,46.7,590.1,44.9,590.8,47.1z"/>
		<path class="st97" d="M530.1,96.8c1.4-2.4,2-3.9-2.1-4c-5-0.1-10.1,1.4-15-0.8c0.3,0,0.7-0.1,1-0.1c1,0,2,0,3,0
			c3.3-1.2,6.8,0.4,10-0.9l0,0c0.3-0.5,0.6-0.5,0.9,0c3-0.4,6.2,1,9-1c3.7,1.9,0,4.7,1,7C535.3,96.9,532.7,96.9,530.1,96.8z"/>
		<path class="st98" d="M530,85c2.1,0,4.2,0,6.3,0c1,0,2.1,0.6,2.1,1.6c0.1,1.4-1.2,1.3-2.1,1.3c-2.4,0-4.9,0-7.3,0
			C528.9,86.8,528.8,85.7,530,85z"/>
		<path class="st21" d="M527.9,91c-0.3,0-0.6,0-0.9,0c-3.4-2.3-7.4-0.1-11.2-1.5c3.8-1.5,7.5,0.3,11.2-1.2
			C528.7,87.6,527.5,90.1,527.9,91z"/>
		<path class="st21" d="M527,91c-3.2,2-6.7,0.6-10,0.9C520.1,90,523.6,91.4,527,91z"/>
		<path class="st99" d="M539.9,104.8c-2.3,0-4.6,0-6.9,0c-6.3-1.7-12.6-0.9-18.9-0.4c-1.6,0.1-3,0.8-3.2-1.5c0.7,0,1.3,0,2,0
			c8-2.5,16-2.5,24.1,0c2,0.1,2-1.9,3-2.9C542.1,101.6,539.8,103.2,539.9,104.8z"/>
		<path class="st100" d="M537,102.9c-8,0-16,0-24.1,0c-0.3-2.9,0.8-4.1,3.9-4c5.4,0.2,10.8,0.2,16.3,0
			C536.2,98.8,537.2,100.1,537,102.9z"/>
		<path class="st101" d="M126,46c-3.2,2.7-7.3,1.5-11,2.2c-2.8,0.6-6-0.7-9-1.2c0.3-0.4,0.7-1.1,0.9-1.1
			C113.3,47.1,119.7,44.8,126,46z"/>
		<path class="st102" d="M362,29.1c0-0.4,0-0.7,0-1.1c-2.2-3-1.2-6.4-1.4-9.7c-0.1-1.8,0.1-3.6-0.4-6.4c-1.9,5.8,0.9,11.4-2.2,16.1
			h-0.5H357c-1.3-1.4-1-3.1-1-4.7c-0.1-5,0.2-10-0.1-14.9c-0.2-3.1,1.1-4.3,4-4.3c0.7,0-0.2,0,0.5,0c26.9,0,53.9,0,80.8,0
			c3,0,4.7,0.9,4.7,4.2c0,9.3,0,18.6,0,27.9c0,2.7-1.1,4.7-4,4.6c-2.6-0.1-3.8-1.8-3.2-4.5c0.6-2.3,3.5,1.8,3.9-1.3
			c0.4-3,0.1-5.5-3.3-6.5c-1.8-5.1-0.3-10.4-0.8-14.9c-0.3,8.8,0.6,18.2,0.6,27.6c-1.9,1.3-3.9,1.1-5.9,0.3
			c1.4-9.1,0.4-18.2,0.7-27.4c-0.3,7.1,0.2,14.1-0.1,21.2c-0.1,1.3,1.1,4.1-2.3,3.2c-1.2-1.8-1-3.8-1-5.8c0-1.8-0.4-3.3-2.2-4
			c-1.3-1.2-1.6-2.6-0.8-4.2c5.4-3.2,2.2-8.1,2.7-12.2c-2.3,3.7,0.9,8.5-2.8,12c-2.4-4.5-0.1-9.3-1-12.8c-0.8,7.7,1.1,16.5,1,25.3
			c0,2.1,1.6,2.7,2.7,3.9c0.6,0.7,0.9,1.5,0.8,2.4c-0.4,0.3-0.8,0.7-1.1,1c-6.9,0.7-13.8,0.7-20.7,0c-0.4-0.3-0.7-0.7-1.1-1
			c0-0.3,0-0.6,0-0.9c2.3-2.5,2.6-5.5,2.5-8.7c-0.2-7.2-0.1-14.3-0.1-21.5c0.1,8.3,0.1,16.6,0,24.8c0,3.7-2.2,4.9-5.7,3.7
			c-1-0.6-1.6-1.4-0.8-2.6c3.3-0.8,4.1-3.1,3.8-6.1c-0.1-1.4-0.5-2.9-0.3-4.3c0.3-2.1,0.3-4.2,0.3-6.4c0-2.4,0.1-4.8,0-7.2
			c-0.1-2-0.5-3.6-3.2-2.6c-0.4,0.3-0.9,0.7-0.9,1.2c-0.2,9.2-0.8,18.4,0.4,27.6c0.3,0.6,0.2,1.1-0.4,1.5c-2,0.5-4.1,1-5.8-0.7
			c1.7-10,0.3-20,0.5-30c-0.4-0.7-0.8,0.5-0.3,0.1c0.2-0.2,0.4-0.1,0.4,0.3c0.2,8.6,0.1,17.3,0.1,25.9c0,0.9,0.1,2.1-1.5,1.7
			c-1.4-1.5-1.2-3.3-1.3-5.1c-0.1-2.1-0.4-3.9-2.4-5.1c-1.8-2.5-1.3-5.2-0.8-7.9c2.8-2.3,4.1-5,2.7-8.9c-2,2.6,0.6,6.5-2.8,8.4
			c-2-3-0.1-6.4-1.3-10.2c1.5,11.2-0.1,21.9,2.9,32.2c0,0.3,0,0.6,0,0.8c-0.3,0.3-0.7,0.7-1,1c-7,0.8-13.9,0.8-20.9,0
			c-0.3-0.3-0.7-0.6-1-0.9c-0.1-0.8,0.2-1.6,0.7-2.3c1.4-1.3,3-2.3,2.9-4.7c-0.2-7.7,0-15.5,0-23.2c0-1,0-2-1.2-2.4
			c-1.6-0.4-3.4,0.7-4.8-0.7c-0.3-0.6,0.1-1.2-0.2-1.8c-0.1,9.6-0.3,19.2,0,28.9c0,1.6,0.8,3.3-0.8,4.6c-1.7,0.6-3.3,0.8-4.7-0.6
			c1.8-3.1,0.9-6.5,1-9.7c0.1-7.4,0-14.7-0.3-22.1c-1.7,7.2,0.7,14.7-1.6,21.9C361.5,30.4,361.4,29.8,362,29.1z"/>
		<path class="st103" d="M439,41.1c-1.9-3.8-0.8-7.8-0.9-11.7c-0.2-6.4,0-12.8,0.9-19.2c0,4.6,0,9.2,0,13.8c0,1.8-0.4,3.8,2.1,4.4
			c0.4,2.6,0.6,5.2-0.1,7.8c-1.5,0.1-2.2,0.9-1.7,2.3c0.4,1,1.2,1.5,2.3,1.6c1.2,0.1,2.5-0.2,2.9-1.4c0.4-1,0.4-2.3,0.4-3.4
			c0-8.6-0.1-17.3,0.1-25.9c0.1-3.3-1.1-4.2-4.3-4.2c-26.6,0.1-53.2,0.1-79.8,0c-3,0-4.4,0.3-4.1,4.1c0.5,6.3,0.2,12.6,0.2,18.9
			c-0.3,4,0.8,8.2-0.7,12.2c-1.7-0.5-1.3-1.6-1.3-2.4c0-10,0.1-19.9-0.1-29.9c-0.1-3.7,1.3-4.9,5-4.9c27.3,0.1,54.6,0.1,81.8,0
			c3.9,0,5.3,1.2,5.2,5.2c-0.1,12,0,23.9,0.1,35.9c0.3,0.3,0.4,0.5,0.2,0.7c-0.1,0.2-0.3,0.2-0.4,0.2c-1.8,0.4-1-1.6-1.9-2
			C443.4,41.2,440.5,43,439,41.1z"/>
		<path class="st104" d="M446.9,45c0.1-0.3,0.1-0.6,0.2-0.9c1-0.8,0.8-2.1,0.9-3.2c2.4,0.1,4.9,0.4,7.3,0.1c4-0.5,5.4,1.1,4.6,4.9
			C455.6,45.1,451.2,45,446.9,45z"/>
		<path class="st49" d="M362,29.1c0,0.7,0.1,1.3,0.1,2c0,0.5,0,1-0.1,1.5c-0.6,1.8,1.5,5-1.8,5.3c-3,0.3-1.8-2.9-2.1-4.5
			C357.4,30.4,358.4,28.4,362,29.1z"/>
		<path class="st105" d="M363,41c1.7,0,3.3,0.1,5,0.1c1.7-1.2,3-0.9,3.9,1.1c-0.3,0.3-0.6,0.7-0.9,1c-4.5,0-9,0-14.6,0
			C358.9,40.2,361.2,41.4,363,41z"/>
		<path class="st106" d="M439,41.1c2,0.8,4.9-1.6,6,2c-4.7,0-9.3,0.1-14,0.1c-0.3-0.3-0.6-0.7-0.8-1c0.6-1.4,1.4-2.1,2.9-1.1
			C435,41,437,41.1,439,41.1z"/>
		<path class="st107" d="M398,41.1c2,0,4,0,6,0c1.7-0.1,4.4-2.1,4,2l0.1,0.1c-4.7,0-9.3,0-14,0h0.1C393.6,38.8,395.9,40.2,398,41.1z
			"/>
		<path class="st108" d="M409.1,44.1c6.9,0,13.8,0,20.7,0C422.9,45.7,416,45.7,409.1,44.1z"/>
		<path class="st108" d="M372,44.1c7,0,13.9,0,20.9,0C386,45.7,379,45.6,372,44.1z"/>
		<path class="st45" d="M320.9,45c-4.9,3.3-10.5,2.2-15.8,2c-7.1-0.3-14.2-1-21.3-0.8c-2.3,0-3.9-0.4-3.9-3.1c1-3.4,4.4-2.5,6.3-2.5
			c10.3-0.2,20.6,0.2,30.9,0.4C320,40.7,321.6,41.7,320.9,45z"/>
		<path class="st109" d="M512,36.1c-0.2,2.7-2.1,3-4.3,3c-2.2,0-4.3,0-7.6,0c1.9,0.9,2.9,1.3,3.8,1.8c-5,2.9-10,2.4-15,0.2
			c0.6-1.3,2.1-0.6,3-1.4c-3.3-3-6.6-2.8-10.1-0.3c0.6,1.4,2.6,0.3,3.1,1.7c-7,2.6-14,2.6-21,0c4.5-2.3,9.5,0,14.1-1.9
			c-7-3.7-14.8-1.4-22.1-2.1c1.3-3.8,4.6-2.2,7-2.3c3.5-0.2,6.9-0.2,9-3.6c10,0,20,0,30,0.1c0,2.1-2.1,2.3-3.2,3.6
			c3.7,0.1,7.2,0,10.7,0C510.4,34.8,512,34,512,36.1z"/>
		<path class="st110" d="M471.9,31.2c0.6,3.8-1.2,4.9-4.8,5c-3.7,0.1-7.6-1.3-11.2,0.9c-1.8-1.7-0.7-4-1-5.9
			C460.6,31.1,466.3,31.1,471.9,31.2z"/>
		<path class="st111" d="M512,36.1c-5.2-0.7-10.7,1.2-16.3-1.3c2.6-1.4,4.4-2.5,6.3-3.6c2.4,0,4.9-0.1,7.3-0.1
			c1.7,0,3.3,0.2,3.9-1.9c2.1,1.8,0,4.1,0.9,6.1c0.5,0.6,0.4,1.3-0.1,1.8C513.3,36.7,512.6,36.4,512,36.1z"/>
		<path class="st112" d="M74,47c1.3,7.2-5.5,5.4-7.5,5c-3.8-0.8-7.9-0.4-11.2-0.2c-7.5,0.6-6.2-3.6-6.2-7.8c1.9,1.9,4.3,2,6.8,2.1
			C62,46.4,68.1,45,74,47z"/>
		<path class="st66" d="M274.1,37.1c-0.1,1.7-0.1,3.3-0.2,5c-4.4,1.2-8.8,2.6-12.9-1c-3.2-0.8-7.8,2.2-9.4-4
			C259.3,37.1,266.7,37.1,274.1,37.1z"/>
		<path class="st44" d="M261,41.1c4.2,2,8.6-0.1,12.9,1c0,0.3,0.1,0.7,0.1,1c-1.1,0.7-0.9,1.9-1,3c-3.6-0.6-7.3-0.8-11-1
			C261.7,43.7,261.4,42.4,261,41.1z"/>
		<path class="st66" d="M262,45c3.8-1.7,7.5-0.8,11,1c-4.7,0-9.3,1.8-14,0C259.8,44.9,260.9,45.1,262,45z"/>
		<path class="st66" d="M253,46.1c-4.7,0.3-9.5,1.4-14.1-1C243.6,45.5,248.5,44,253,46.1z"/>
		<path class="st44" d="M170,46c-2.6,3.1-5.3,0-8,0.1C164.7,42.7,167.4,46.1,170,46z"/>
		<path class="st113" d="M341,52.1c-1-0.1-2-0.1-3-0.2c0-2.6,0-5.3,0-7.9c1,0.4,2,0.7,3,1.1c0.3,2.3,0.7,4.5,1,6.8
			C341.7,52,341.4,52.1,341,52.1z"/>
		<path class="st43" d="M338,44.1c-2.3,0.9-2-0.7-1.9-2c0-1.2-0.5-3,1.9-2.1C337.9,41.4,337.9,42.7,338,44.1z"/>
		<path class="st114" d="M661.8,43.1c-0.4,0.3-0.7,0.6-1.1,0.9c-3.5,1.1-7.1,0.3-10.7,0.5c-1.8,0.1-3.7-0.5-5.1,1.1
			c-2.9,1.4-5.9,0.8-8.9,0.9c-5.6-0.3-11.2,0.6-16.7-0.7c-1.4-0.5-2.8,0.1-4.2,0.3c-5,0.4-9.9,0.9-14.9-0.4
			c-1.3-0.9-2.5-1.9-1.3-3.7l0.3-0.1c0.2,0,0.5,0,0.7,0c10.4-0.9,20.8-0.1,31.3-0.4c9.6-0.2,19.2,0.5,28.8-0.4c1.3,0,2.6,0,3.9,0
			c0.1,0.2,0.3,0.4,0.4,0.5c-0.1,0.2-0.1,0.4-0.2,0.7C663.5,43.1,662.9,43.7,661.8,43.1z"/>
		<path class="st115" d="M660,41.2c-1,1.1-2.4,0.9-3.7,0.9c-18.8,0-37.5-0.1-56.3-0.1c1-1.2,2.4-0.9,3.7-0.9
			C622.4,41.1,641.2,41.1,660,41.2z"/>
		<path class="st115" d="M663.9,42.1c0-0.3,0-0.7-0.1-1c2.7,0,5.4,0,8-0.1c3.4,0,6.7,0.1,10.1,0.1c-0.1,0.7-0.4,1.4-1,1.5
			C675.3,43.7,669.6,44.5,663.9,42.1z"/>
		<path class="st116" d="M663.9,42.1c6-0.5,12.1,1,18.1-0.9c5.6,1.3,11.3-0.3,16.8,0.7c1,0.1,2,0.1,3.1,0.2
			c4.3,1.6,8.6,1.6,12.9,0.1c1.8,0,3.5,0.1,5,2.9c-4.3,0-8.1,0-11.9,0c-3,1.8-6.1,1-9.1,0.5c-10.6-1.1-21.2-0.1-31.8-0.8
			C665.2,44.6,663,45.3,663.9,42.1L663.9,42.1z"/>
		<path class="st117" d="M686.8,38.6c3.1-2.1,6.1-1.6,9.2,0C692.9,38.6,689.9,38.6,686.8,38.6z"/>
		<path class="st118" d="M530,49c0-1.3,0-2.7,0-4c0.3-0.3,0.7-0.5,1.1-0.5c2.2-0.3,1.4-2.1,1.6-3.4c0.1-1.5,0.1-2.9,1.4-3.9
			c1.6,1.8,0.9,4.1,0.8,6.1c-0.2,3.1,1.1,4.2,4,3.8c2.7-0.3,5.4-0.7,8-1c4.7-2.1,9.3-2.2,14,0c0,2.3,0,4.6,0,6.9
			c-5.8-0.9-11.6,0.2-17.4,0.1c-2.4-0.1-5,0.4-7.1-1.5c-0.5-0.4-0.7-1.2-1.5-0.3C531,55.6,531.5,50.2,530,49z"/>
		<path class="st119" d="M560.9,46c-4.7,0-9.3,0-14,0c-2.5-1.9-5.4-0.5-8.1-0.9c-1.1-0.2-2.6,0.2-2.6-1.5c0-1.8,1.9-1.3,2.7-1.3
			c5.4-0.2,10.9-0.2,16.3-0.3c2,0,4,0.1,5.8-1C560.9,42.7,560.9,44.4,560.9,46z"/>
		<path class="st120" d="M530.8,45.2c-0.3-0.1-0.5-0.1-0.8-0.2c0-1.3-0.1-2.6-0.1-3.9c-0.1-1.3-0.1-2.6-0.2-3.9c1.5,0,2.9,0,4.4,0
			c-0.1,1.7-0.2,3.3-0.3,5C532.7,43,532.2,44.5,530.8,45.2z"/>
		<path class="st121" d="M528.8,41.1c0,1.6,0,3.3,0,4.9c-4.6,0.3-9.2,0.8-13.8,0.1c0-0.3-0.1-0.6-0.1-0.9c-0.9-0.9-1-2-0.7-3.2
			c0.9-1.1,1.9-2.6,2.8,0c0.7,1.7,1.7,2.4,3.3,1C522.9,40.7,525.9,40.9,528.8,41.1z"/>
		<path class="st122" d="M514,37.1c0-0.6,0.1-1.2,0.1-1.8c4-0.1,8.1-0.5,12,1.1c-3.2-0.5-5.8,4-9.3,1c-0.3,0.3-0.5,0.3-0.8,0
			C515.4,37.2,514.7,37.1,514,37.1z"/>
		<path class="st123" d="M516.1,37.3c0.3-0.1,0.5-0.1,0.8,0c1,1.5,1.8,3,0.2,4.7c-0.7-0.6-1.5-0.9-2.1,0.1c-0.9,0.2-1.3-0.1-1-1
			C513.8,39.3,516.9,39.4,516.1,37.3z"/>
		<path class="st124" d="M699,44.9c3,0.1,5.9,0.1,8.9,0.2c4.3,2.1,9.1,0.4,13.6,1.3c1.3,0.3,2.8,0.7,4.3,0.6
			c0.1,0.7,0.1,1.5,0.2,2.2c0.3,3.1-1.1,4-4.1,3.9c-5-0.2-10-0.1-14.9-0.1c1.4-3.7,4.6-1.2,6.9-1.9c0.9-0.3,2.2,0.3,2.5-1
			c0.2-1.3-0.9-2.2-2-2.5c-1.2-0.4-2.6-0.5-3.9-0.4c-8.8,0.7-17.6-1.5-26.4-1c-0.7,0-1.5-0.6-2.2-0.9C687.5,44,693.3,44.5,699,44.9z
			"/>
		<path class="st125" d="M714.9,42.1c0.1,0.3,0.4,0.8,0.3,0.9c-2.1,1.9-10.9,1.3-13.2-1C706.2,42.1,710.5,42.1,714.9,42.1z"/>
		<path class="st126" d="M575.8,45c-5,0.5-2-4.2-3.8-5.8C576.7,38.9,576.2,42,575.8,45z"/>
		<path class="st127" d="M570.9,40.1c1.2,5.1-2.4,5.3-5.8,5.8c-0.1-0.9-0.2-1.8-0.3-2.6C565,38.6,569.1,41.7,570.9,40.1z"/>
		<path class="st128" d="M599,42.1c0.3,0.9,0.6,1.8,0.9,2.7c0.1,0.7-0.3,1-0.9,1.2c-2.7-0.1-5.3-0.1-8-0.2c-0.6-0.4-0.9-1.1-0.9-1.8
			s0.2-1.4,0.6-2h0.3C593.7,40.8,596.3,42.2,599,42.1z"/>
		<path class="st129" d="M590.7,42c0,0.7,0.1,1.4,0.1,2.1c-1.5,0.8-2.8,2.1-4.7,1.8c-0.1-0.3-0.2-0.5-0.3-0.8c0-1,0-2,0-2.9
			C587.2,37.6,589.1,44.1,590.7,42z"/>
		<path class="st130" d="M510.8,46.9c0,2,0.1,4.1,0.1,6.1c-2.2-1.4-4.3,0.2-6,0.7c-5.2,1.5-9.2-2.4-14-2.6c-1.8-0.1-2-3.7-1.9-6
			c5.3-3.3,11-0.4,16.5-1C507.9,43.8,509.6,44.8,510.8,46.9z"/>
		<path class="st131" d="M464,41c7,0,14,0,21,0c0,1.7,0,3.3,0,5c-7.3,1.9-14.5,0.9-21.6-1.3C462.8,43.4,463.2,42.2,464,41L464,41z"
			/>
		<path class="st132" d="M510.8,46.9c-7.1-2.5-14.5-1.7-21.8-1.8c0-1.3,0-2.7,0-4c5-0.1,10-0.1,15-0.2
			C508,40.9,512.1,40.9,510.8,46.9z"/>
		<path class="st133" d="M484.9,51c0.2,2-0.5,3.1-2.7,3c-5.2-0.3-10.3-0.4-15.5-0.7c-2.8-0.2-2.9-2.2-2.7-4.3
			c2.1-2.2,4.6-3.1,7.5-1.7c2.5,1.2,5.2,0.4,7.7,1.1C481.3,49,483.5,49.1,484.9,51z"/>
		<path class="st112" d="M484.9,51c-5.1-2-10.8-0.6-15.8-3.2c-1.2-0.6-3.4,0.8-5.1,1.3c0-0.6,0-1.3,0-1.9c-0.6-0.7-0.5-1.4,0-2
			c7,0.3,14,0.6,21,1C484.9,47.7,484.9,49.3,484.9,51z"/>
		<path class="st133" d="M464,45.1c0,0.7,0,1.4,0,2c-1.6,1-0.4,3.2-1.6,4.4c-2.5-4.4-1.9-8.1,1.7-10.5C464,42.4,464,43.7,464,45.1z"
			/>
		<path class="st134" d="M515,46c4.6-2.1,9.2-0.6,13.8-0.1c0,0.7,0.1,1.4,0.1,2c-4.6-1.7-9.3,0.3-13.9,0C515,47.4,515,46.7,515,46z"
			/>
		<path class="st134" d="M514,41c0.3,0.3,0.7,0.7,1,1c0,1,0,2,0,3.1c-0.6,1.1-1.1,2.3-1.7,3.4C512.5,45.9,509.9,43.1,514,41z"/>
		<path class="st135" d="M618.9,44.3c5.6,1.6,11.4,0.2,17.1,0.9c-0.3,3-3.1,3.4-5,4.8c-1.8,0.1-3.6,0.2-5.5,0.2
			c-2.1,0-2.6,1-2.3,2.8c-1.1,1-2,2.2-3.7,1c-1.2-0.9-1-1.8-0.4-2.9C617.6,48.8,616.8,46.6,618.9,44.3z"/>
		<path class="st94" d="M618.9,44.3c0,2.2,0.1,4.5,0.1,6.7c-1,0-2,0.1-3,0.1l-0.2-0.2c-1.3-2-0.9-3.9,0-5.9
			C616.5,43.5,617.8,44.5,618.9,44.3z"/>
		<path class="st136" d="M630.9,50c1.1-2.2,3.2-3.3,5-4.8c3,0,6,0,9,0c0.5,0.1,0.8,0.5,1,0.9c0.5,1.4,2.1,2.2,2,3.8
			C642.3,49.9,636.6,50,630.9,50z"/>
		<path class="st115" d="M699,44.9c-5.7,0.1-11.5,0.2-17.2,0.3c-5.7,1.9-11.5-0.2-17.3,0.4c-1,0.1-2.6-0.8-2.7-2.4
			c0.7-0.4,1.4-0.7,2.1-1.1c0.5,2.8,2.7,1.9,4.4,2c8.6,0.1,17.3,0,25.9,0.1C695.8,44.2,697.6,43.5,699,44.9z"/>
		<path class="st115" d="M645.9,46.1c-0.3-0.3-0.7-0.6-1-0.9c5.1-2.3,10.6-0.5,15.9-1.2c0.1,2.1-1.4,1.1-2.4,1.2
			C654.3,45.6,650,44.2,645.9,46.1z"/>
		<path class="st137" d="M615.8,45c0.8,2-0.3,3.9,0,5.9c-4-2.5-13.7-2.5-16.7,0c0-1.6-0.1-3.3-0.1-4.9c0.3-0.4,0.6-0.8,0.9-1.2
			C605.2,44.9,610.5,44.9,615.8,45z"/>
		<path class="st138" d="M586,45.9c1.2-1.5,2.7-2.2,4.7-1.8c0.1,0.6,0.2,1.1,0.2,1.7c-0.1,0.4-0.1,0.9-0.2,1.3
			C589.6,45.2,586.5,50.9,586,45.9z"/>
		<path class="st139" d="M371.9,42.1c-1.2-0.9-2.5-1.1-3.9-1.1c-2.1-10.3-0.8-20.7-0.8-31c0-3.7,2.9-4.5,6.4-3.4
			c-0.7,2.5-4.9,0.1-4.4,3.6c2,2.1,0.4,5.2,2.3,7.8c2.3-2.8,0.3-6.4,2.2-8.9c1.5-0.7,2.4-0.5,2.4,1.5c-0.1,9-0.1,18.1,0,27.1
			C376.1,40.9,373.2,40.7,371.9,42.1z"/>
		<path class="st140" d="M386.1,9.2c2.2,0.3,1.8,2,1.9,3.4c0,8-0.1,15.9,0.1,23.9c0.1,3.7-1.8,5.3-5,5.4c-3.1,0-4.1-2.3-4-5.1
			c0-8.5,0-16.9,0-25.4c0-1.6-0.1-3.2,2.3-2.1c1.9,3.1,0.9,6.5,1.1,9.8c-0.7,3.4,2.8,5.7,2.6,9c-1.6,2.1-2,4.4-1.5,7
			c0.1-2.7,0.4-5.4,1.6-7.9C384.5,21,383.4,15,386.1,9.2z"/>
		<path class="st141" d="M421,23.1c0-4.7,0-9.4,0-14.1c2.3,0.9,2,2.2,2,3.3c0,8.1,0,16.2,0,24.3c0,3.1-1,5.3-4.4,5.3s-4.6-2-4.6-5.1
			c0-8.4,0-16.9,0.1-25.3c0-1-1.1-4.1,2.2-2c2.2,3.8,0.9,7.9,1.2,11.8c-0.1,2-0.2,4.1,0.4,6.1c0.8,2.4,1.3,4.9,1.6,7.8
			c0-2.7-1-5.1-0.2-7.4C419.6,26.2,419.7,24.4,421,23.1z"/>
		<path class="st142" d="M433,41c-1,0.4-1.9,0.7-2.9,1.1c-3.4-1.3-4.4-3.6-4.3-7.3c0.3-8.6,0.1-17.2,0.4-25.8
			c1.8,4.9-0.6,10.2,1.7,15l0,0c0.1,1.5-0.4,3.1,1.2,4.1c2.1,2.9-0.7,7.2,2.8,9.7c2.2-0.7,1-2.6,1-3.8c0.1-8,0.1-16.1,0.1-24.8
			c1,0.9,1.6,1.2,1.6,1.5c0.1,8.8,0.2,17.5,0.3,26.3C435,38.8,433.6,39.7,433,41z"/>
		<path class="st143" d="M398,41.1c-1.5,0.3-3.7-0.8-4,2c-2.4-2.1-3.2-4.7-3.1-7.9c0.2-8.6,0.1-17.3,0.1-27.4
			c2.1,4.9-0.4,9,2.1,12.3l0,0c0.3,2.8-1.2,5.8,1.1,8.3c-0.6,3.1,2.3,6.2-0.2,9.3c1-0.1,2.1-0.5,3,0.4c2.2-0.7,1-2.6,1-3.8
			c0.1-8,0.1-16,0.6-24C398.3,20.4,400.3,30.8,398,41.1z"/>
		<path class="st144" d="M405,38.1c-0.8,0.4-0.9,1.2-1,2l0,0c-1.9-0.8-2-2.4-2-4.1c0-7.6,0-15.2,0.1-22.8c0-1.2-0.9-3.6,2.1-2.8
			c2.1,2.9,1,6.2,1.3,9.3c-0.1,2.7-0.1,5.4,0.4,8.1c0.5,2.2,0.3,4.6,1,6.7C407.5,36.4,406.9,37.5,405,38.1z"/>
		<path class="st145" d="M381.2,19.8c2.7,0.6,4.5,0.2,4.1-3.3c-0.3-2.4-0.2-4.9-0.3-7.3c0.4-0.9,0.8-0.6,1.2,0
			c-0.4,6.3,0.9,12.7-1.1,18.8l0,0C383.8,25.3,380.4,23.5,381.2,19.8z"/>
		<path class="st146" d="M408,43c-0.3-2.7-2.5-1.7-4-2c0-0.3,0-0.7,0-1l0,0c5,0.8,6.3-1.5,6.1-6.2c-0.3-7.9-0.1-15.8,0.9-23.7
			c0,9.3,0.1,18.6,0,27.9C410.9,40.2,409.3,41.6,408,43z"/>
		<path class="st147" d="M440.9,36.1c-1.2-2.6-1.6-5.2,0.1-7.8c2.3-0.4,3.1,0.7,2.8,2.8c-0.3,2.5,1.3,5.7-1.2,7.4
			C440.7,39.6,440.2,37.9,440.9,36.1z"/>
		<path class="st148" d="M396.9,38c-4.3,1-2.8-2.9-3.7-4.6c-0.8-1.4-0.4-3.6,0.9-5.1c2.2-0.4,3,0.5,2.9,2.7
			C396.9,33.3,396.9,35.7,396.9,38z"/>
		<path class="st149" d="M404.2,19.8c1.3,1.4,2.9,1.5,4.7,1c-0.2,2.4,1,5.1-0.9,7.3c-0.9,0.8-1.9,0.8-2.9,0.1
			C403.1,25.6,404.4,22.6,404.2,19.8z"/>
		<path class="st150" d="M405.1,28.2c1,0,1.9-0.1,2.9-0.1c1.4,2.4,0.8,5,0.7,7.6c-0.1,3-1.5,3.1-3.7,2.4c2.2-1.5,0.2-3,0.1-4.5
			C404.9,31.8,405.1,30,405.1,28.2z"/>
		<path class="st151" d="M431.9,38c-4,0.3-2.7-3.1-3.2-5c-0.4-1.4,0.2-3.2,0.4-4.8c2.2-0.3,2.9,0.8,2.8,2.8
			C431.9,33.4,431.9,35.7,431.9,38z"/>
		<path class="st152" d="M416.1,21.9c1.1,0.9,2.5,1.1,3.9,1.2c0.3,0,0.7,0,1,0c-0.3,1.7,0.7,3.6-1.1,5c-0.9,0.8-1.8,0.8-2.8,0.1
			C415.1,26.4,416.3,24,416.1,21.9z"/>
		<path class="st153" d="M530.8,45.2c0-2.1,0.5-3.5,3-3C533.6,43.8,535,47.4,530.8,45.2z"/>
		<path class="st154" d="M373.7,35.8c0.2,1.3-0.1,2.1-1.4,2.3c-2.5,0.4-0.6-1.4-1.1-2c-2-2.5-1-5.3-1.1-8.1c0-1.1,0.6-2,1.7-2.1
			c1.5-0.1,1.1,1.3,1.2,2.1C373.3,30.7,372.7,33.4,373.7,35.8z"/>
		<path class="st155" d="M385,28c0,2.2,0,4.3-0.1,6.5c-0.1,1.2,0.6,3.2-1.2,3.3c-2.3,0.1-1.4-2.3-1.6-3.4
			C381.6,31.8,381.5,29,385,28L385,28z"/>
		<path class="st154" d="M417.2,28.2c0.9,0,1.8-0.1,2.8-0.1c0,2.7,0,5.3,0,8c0,1.1-0.4,2.1-1.7,1.8c-1.2-0.2-0.9-1.6-0.6-2
			C419.2,33.2,417.1,30.8,417.2,28.2z"/>
	</g>
</g>
</svg>
