<?xml version="1.0" encoding="utf-8"?>
<!-- Generator: Adobe Illustrator 25.0.0, SVG Export Plug-In . SVG Version: 6.00 Build 0)  -->
<svg version="1.1" xmlns="http://www.w3.org/2000/svg" xmlns:xlink="http://www.w3.org/1999/xlink" x="0px" y="0px"
	 viewBox="0 0 591 161" style="enable-background:new 0 0 591 161;" xml:space="preserve">
<style type="text/css">
	.st0{display:none;}
	.st1{fill:#F2592A;}
	.st2{fill:#0F0502;}
	.st3{fill:#D74F26;}
	.st4{fill:#3F170B;}
	.st5{fill:#9E3A1C;}
	.st6{fill:#A13B1C;}
	.st7{fill:#722A14;}
	.st8{fill:#823017;}
	.st9{fill:#C14722;}
	.st10{fill:#6C2813;}
	.st11{fill:#EF582A;}
	.st12{fill:#7A2D16;}
	.st13{fill:#3B160A;}
	.st14{fill:#110603;}
	.st15{fill:#B64320;}
	.st16{fill:#FB5F2D;}
	.st17{fill:#9D3A1B;}
	.st18{fill:#A63E1E;}
	.st19{fill:#E15327;}
	.st20{fill:#C94A23;}
	.st21{fill:#BE4621;}
	.st22{fill:#813017;}
	.st23{fill:#702914;}
	.st24{fill:#A63D1D;}
	.st25{fill:#80402C;}
	.st26{fill:#59210F;}
	.st27{fill:#C14925;}
	.st28{fill:#733826;}
	.st29{fill:#140703;}
	.st30{fill:#DE5227;}
	.st31{fill:#270E07;}
	.st32{fill:#280F07;}
	.st33{fill:#A53D1D;}
	.st34{fill:#913619;}
	.st35{fill:#6A2713;}
	.st36{fill:#863117;}
	.st37{fill:#853117;}
	.st38{fill:#D14E26;}
	.st39{fill:#0E0502;}
	.st40{fill:#2A0F07;}
	.st41{fill:#4D1C0D;}
	.st42{fill:#6F2914;}
	.st43{fill:#8E3419;}
	.st44{fill:#311208;}
	.st45{fill:#CF4C24;}
	.st46{fill:#D44E25;}
	.st47{fill:#B3421F;}
	.st48{fill:#B84420;}
	.st49{fill:#B94421;}
	.st50{fill:#A33C1C;}
	.st51{fill:#6D2813;}
	.st52{fill:#592110;}
	.st53{fill:#4C1C0D;}
	.st54{fill:#42180B;}
	.st55{fill:#3E170A;}
	.st56{fill:#893318;}
	.st57{fill:#8A3318;}
	.st58{fill:#43190C;}
	.st59{fill:#551F0F;}
	.st60{fill:#E85529;}
	.st61{fill:#41180B;}
</style>
<g id="Camada_2" class="st0">
</g>
<g id="Camada_1">
	<g>
		<path class="st1" d="M86,54.9c0.4-1.7,0.7-3.5,1.9-4.9c2-1.6,4.3-1.6,6.7-1.6c46.1-0.1,92.2-0.7,138.2,0.4
			c30.3,0.7,60.5,0.3,90.8,0.7c10.8,0.2,21.6,0.8,32.4,0.9c14.6,0.1,29.2,0.5,43.8,0.2c4-0.1,7.9,0.9,11.8,1.4
			c2.3,0.6,3.4,2.1,3.4,4.4c-0.4,2.9-2.4,4.3-5,4.9c-5,1.2-10,2.3-15.3,2.3c-75.1,0-150.2,0.3-225.3-0.3
			c-22.2-0.2-44.6-0.9-66.8-2.6c-3.3-0.3-6.7,0-10-0.2c-2.3-0.1-4.7,0-6.5-2C85.2,57.4,85.2,56.2,86,54.9z"/>
		<path class="st2" d="M411.9,110.9c-0.4,0.3-0.8,0.6-1.2,1c-11.8,1.2-23.6,0.5-35.4,0.5c-43.1-0.2-86.2-0.6-129.3-1.3
			c-31.8-0.5-63.6,0.3-95.4-0.9c-19.1-0.8-38.3-0.3-57.4-0.7c-2.7-0.1-5.4,0.3-7.1-2.5H86c-3.1-2.6-6.8-2.3-10.4-2
			c-3,0.2-6,0.7-8.7-1c-1.3-1.5-2.7-2.9-3.2-4.9c0.1-0.3,0.2-0.5,0.4-0.8c0.5-0.7,1.2-1.2,2-1.4c5.4-0.3,10.6,1.1,16,0.7
			c0.6,0,1.2,0.1,1.8,0.2c19.8-0.2,39.5,0.5,59.2,1.6c0.7,0,1.3,0.1,2,0.1c19-0.7,37.9,0.8,56.8,1.2c14.3,0.3,28.6,0,42.8,1
			c10.8,0.8,21.6,0.2,32.4,0.8c24.7,1.2,49.5,1.1,74.2,2.2c18.4,0.8,36.8,1.8,55.3,1.7c2,0,4.1-0.2,5.5,1.6
			C412.7,109.2,412.6,110.1,411.9,110.9z"/>
		<path class="st3" d="M412,53c-16.2-2.2-32.5-0.6-48.7-1.4c-7.6-0.4-15.5-0.5-23.2-0.5c-24.1,0-48.3,0.4-72.4-0.1
			c-59.9-1.3-119.8-0.7-179.7-0.9c0.3-4.5,2.6-5.8,7.2-5.8c102.6,0.2,205.2,0.1,307.7,0.2c1.6,0,3.3-0.6,4.8,0.5
			c-2.1,2.3-5,1.6-7.5,1.6c-38.3,0.1-76.6-0.1-114.9,0c-33.8,0.2-67.6-0.5-100.3-0.9c5.3-0.4,11.6,0.5,18,0.5
			c32.6-0.2,65.2,0.1,97.8,0.8c21.1,0.4,42.2,0.1,63.3,0.9c13.7,0.5,27.5,0.8,41.2,0.9c2,0,4,0.2,5.7,1.4c0.3,0.3,0.7,0.7,1,1
			C412.5,51.7,412.6,52.3,412,53z"/>
		<path class="st4" d="M86.1,107c1.9,1.3,4.1,1,6.3,1c14.8,0,29.6-0.6,44.4,0.1c32.4,1.5,64.8-0.2,97.2,1.1
			c30.1,1.2,60.2-0.3,90.2,1c27.4,1.2,54.8,0.4,82.2,0.8c1.5,0,3,0.1,4.3,0.9c-0.2,0.4-0.5,0.8-0.7,1.1c-2,2.8-5,2.3-7.8,2.3
			c-29.6-0.2-59.2-1.6-88.8-1c-3.3,0.1-6.7-0.3-10,0.4c-0.7,0.1-1.3,0.1-2,0c-9.4-0.6-18.9-1.1-28.4-1.3c-22.5-0.4-45,0.3-67.4-0.2
			c-37.4-1-74.9-0.8-112.3-0.9c-2.2,0-4.4,0-6.2-1.4C86.9,109.6,86.5,108.3,86.1,107z"/>
		<path class="st5" d="M407.7,117c-1.5,1.1-3.2,0.6-4.8,0.6c-102.6,0.1-205.2,0.1-307.8,0.1c-2.7,0-6,0.9-6.2-3.6
			c2.2-2.2,5-1.5,7.6-1.5c30.5-0.1,60.9,1.6,91.4,1c14.7-0.3,29.3-0.5,44,0.1c23.5,0.9,46.9,0.6,70.4,1.2
			c32.6,0.9,65.2,0.6,97.8,0.7C402.6,115.6,405.4,114.9,407.7,117z"/>
		<path class="st6" d="M61.3,91.9c0-3,0-6,0-8.9c1.5-2,3.5-2.3,5.8-1.9c2.1,0.3,4.3,0.3,6.4,0.5c4.8,0.4,9.2-0.2,12.3-4.5
			c5.1-1.2,10.3-0.8,15.4-0.5c14.6,1.1,29.2,1.2,43.8,1.8c15.5,0.7,30.9,0.6,46.4,1.4c12.3,0.6,24.6,0,36.9,0.8
			c17.1,1.2,34.3,0.1,51.3,1.2c13.3,0.9,26.6,0,39.9,0.8c17,1.1,33.9,0.1,50.8,1.2c13,0.8,25.9,0.4,38.9,0.8
			c2.1,0.1,4.4-0.3,6.3,0.9c0.6,0.5,0.7,1,0.4,1.7c-1.7,2.1-4.1,2.2-6.4,2.1c-19.6-1.2-39.2-0.5-58.8-1.2c-8-0.3-15.9-0.7-23.9-0.7
			c-22.3,0-44.5-0.9-66.8-1.4c-14.4-0.3-28.9,0.3-43.3-0.8c-15.5-1.2-31,0.1-46.3-1c-14.5-1.1-28.9,0.1-43.4-1
			c-11.3-0.8-22.6-0.7-33.9-0.8c-1.8,0-3.7-0.2-5.4,0.5c-0.4,0.3-0.8,0.7-1,1.2c-0.2,0.8-0.4,1.6-0.7,2.3c-0.2,0.5-0.5,0.9-0.9,1.3
			c-3.6,2.5-7.6,1.6-11.4,1.1C69,88.3,64.6,87.6,61.3,91.9z"/>
		<path d="M527.1,61.8c1.3,3,0.7,6.1,0.6,9.2c-0.9,1-2.2,1.3-3.5,1.3c-12.9,0.1-25.8,0-38.6,0.2c-2.5,0-5,0.3-7.3-1
			c-2.5-2.2-1.3-5.5-2.3-8.1c-0.3-3.9,2.2-4.9,5.3-4.9c13.1,0,26.3-0.5,39.4,0.3C523,59.4,525.1,60.4,527.1,61.8z"/>
		<path class="st7" d="M522.1,105.2c-1.7,5.3-6.1,8.7-11.6,8.7c-16.1,0.1-32.3-0.1-48.4,0.3c-3.9,0.1-5.3-4.7-9.2-3.3
			c-10.6-1.1-21.3-0.8-31.9-1.5c-2.3-0.1-4.6,0.3-6.7-1c-1.4-1.5-0.6-2.7,0.6-3.9c2.8-1.5,5.9-1.1,8.8-0.7c11.5,1.6,23.1,1,34.5,3.4
			c1.3,0.3,2.2-0.4,3.1-1.2c0.5-0.6,1.1-1.2,1.7-1.7c1-0.7,1.8-2,3.4-1.5c0.4,0.3,0.8,0.7,1.1,1.2c1.9,2.1,4.4,2.9,7.1,2.8
			c12.2-0.8,24.4-0.4,36.7-0.3C514.9,106.7,518.4,105.1,522.1,105.2z"/>
		<path class="st8" d="M407.7,117c-1.7,0-3.3-0.1-5-0.1c-49.1,0.7-98.1-0.4-147.2-1.3c-40.1-0.7-80.2,0.3-120.2-0.9
			c-15.5-0.5-30.9-0.5-46.3-0.7c-0.2-0.4-0.4-0.7-0.6-1.1c1.5-1.4,3.5-1,5.3-1c21.2,0,42.3-0.6,63.5,0.1c39.4,1.3,78.9,0.5,118.3,1
			c8.9,0.1,17.8,0.2,26.7,0.8c0.3,0,0.6,0,0.9,0c3.1-1.1,6.2,0.1,9.3,0.1c18.2-0.1,36.5-0.3,54.7,0c12.6,0.2,25.1,0.9,37.7,1
			c1.3,0,2.7-0.1,3.6,1.2C408.1,116.4,407.9,116.7,407.7,117z"/>
		<path class="st9" d="M410.9,50c-10.6-0.5-21.2-0.1-31.9-0.7c-17.7-0.9-35.5,0.1-53.2-0.4c-26.4-0.9-52.8-0.1-79.1-1.2
			c-16.1-0.6-32.2-0.1-48.3-0.8c-5.4-0.3-10.8-1.1-16.3-1.8c34.3,0,68.6,0,102.9,0c5.4,0.7,10.9,0.8,16.4,0.8
			c33.5-0.1,67.1,0.9,100.6,0.6c2.6,0,5.4-0.4,7.6,1.5C410.1,48.7,410.5,49.4,410.9,50z"/>
		<path class="st10" d="M302,113.9c-9.3,1.1-18.6,0-28,0c-25.1,0-50.2,0.3-75.4-0.1c-36.8-0.6-73.6-1.1-110.4-0.9
			c-0.3-0.7-1.3-1-1.1-2c27.1,0,54.3-0.7,81.4,0.2c36.1,1.2,72.2,0,108.3,1.1C285.3,112.5,293.8,111.6,302,113.9z"/>
		<path class="st11" d="M521.9,60.2c-13.9-0.1-27.8,0-41.8-0.3c-3.4-0.1-3.3,1.7-3.1,3.9c0.1,3.9-1,4.8-4.3,3.4
			c-3.2-1.4-4.8-4.3-6.4-7.2c-1.1-4.2-5.2-7.1-5.4-11.8c3.1,0,6.1,0,9.2,0c5.9,6.6,13.8,5.3,21.3,5.3c8.1,0,16.3-0.2,24.4,0.1
			C520.9,53.8,522.5,55.7,521.9,60.2z"/>
		<path class="st12" d="M521.9,60.2c0-4.2-2.3-5.3-6.1-5.3c-10.8,0.1-21.6-0.4-32.4,0.2c-6.2,0.3-10.5-1.5-13.4-6.8
			c13.4-0.1,26.9-0.5,40.3,0c4.5,0.2,9.8,1.1,11.7,7c0.8,2.5,5.8,2.4,4.9,6.5C525.2,61.8,523.3,61.7,521.9,60.2z"/>
		<path class="st13" d="M529.6,84c-1.2,2.2-1.9,4.5-2,6.9c-0.8,0.9-1.8,1.2-2.9,1.3c-0.8,0.1-1.7,0.1-2.5,0.1c-2,0.1-4.1,0-6.1,0.1
			c-10.1,0.1-20.3,0.2-30.4,0.1c-2.5,0-5,0.3-7.1-1.7c-0.6-0.8-0.8-1.8-0.9-2.8c0-1.3,0.3-2.6,1.3-3.5c1.9-1.3,4.1-1,6.3-1
			c10.5,0,20.9,0,31.4,0c6.8,0,6.8,0,8.7-6.4c1-1.1,2.2-1.2,3.4-0.4c0.6,0.1,0.9,0.5,0.8,1.2C528.1,80,528.8,82,529.6,84z"/>
		<path class="st14" d="M522.1,105.2c-2.4,2.3-5.4,2.8-8.7,2.7c-11.5-0.1-22.9,0-34.4-0.1c-3.5,0-6.7,1.7-10.5-0.5
			c-2.2-1.3-2.7-2.4-2.7-4.4c0.4-0.4,0.9-0.7,1.5-0.9c5.9-0.9,11.9-0.4,17.8-0.5c2.2,0,4.3-0.2,6.4-0.8c10-0.4,20.1-0.8,30.1,0.2
			c1.8,0.9,2.4,2.1,1.2,3.9C522.7,105.1,522.4,105.2,522.1,105.2z"/>
		<path class="st15" d="M409.7,48.1c-13.5,0-27,0.4-40.5-0.1c-22.9-0.9-45.7-0.6-68.6-1.1c-5.1-0.1-10.5,0.1-15.6-1.6
			c35.7,0,71.4-0.1,107.1-0.1c5.1,0,10.3-0.1,15.4-0.1C408.9,45.6,409.5,46.7,409.7,48.1z"/>
		<path class="st16" d="M61.2,69c-1-4.6,2.4-7.1,4.7-10.1c0.7-0.7,1.4-1.7,2.4-1.5c5.7,1.2,11.9,1,16.8,4.9c0.3,0.4,0.6,0.9,0.8,1.5
			c0.2,0.8,0.3,1.6,0.1,2.5c-0.1,0.8-0.5,1.6-1,2.2c-4.5,3.5-9.5,5.3-15.3,4.9C66.3,73.1,63.3,72.1,61.2,69z"/>
		<path class="st17" d="M528.8,76.8c-0.9,0.1-1.8,0.2-2.8,0.2c-0.5,0.5-0.9,1-1,1.6c-1.1,5.9-1.1,5.9-7.1,5.6
			c-7.6-4.9-16-5.3-24.7-5c-2.2,0.1-5.5,1.4-6.2-2.6c3.4-2.2,6.9-1,9.4-0.4c-0.6,0-1.9-0.7-1.8-2.4c0.2-2,2-1.9,3.5-1.9
			c7.9-0.1,15.9,0.2,23.8-0.5c1-0.1,2,0.1,2.9-0.4c0.9,0,1.9-0.1,2.8-0.1C528.1,73,528.4,74.9,528.8,76.8z"/>
		<path class="st10" d="M408.3,116.1c-28.2-1.6-56.4-1.2-84.5-1.2c-7,0-13.9,0.4-20.8-1c1.3-1.5,3.1-0.9,4.7-0.9
			c20.6,0,41.2-0.6,61.8,0.2c11.6,0.5,23.2,0.5,34.8,0.8c2,0,4,0.1,5.8-0.9C409.9,114.3,409.2,115.3,408.3,116.1z"/>
		<path class="st18" d="M522,102c-10.3,0-20.7,0.1-31,0.1c-4.7,0.1-9.5,1.3-14.2-0.6c3.4-3.1,7.6-3.7,11.9-3.8
			c8.3-0.2,16.6-0.1,25-0.1c5.1,0,9-1.9,11.4-6.5c0.9,0,1.8-0.1,2.7-0.1c-0.1,3,1,6.2-0.5,9.1C525.8,101.7,523.8,101.7,522,102z"/>
		<path class="st19" d="M61.2,69c8.2,5.5,16,2.7,23.8-1c0.2,0.2,0.4,0.3,0.5,0.5c0.5,0.9,0.6,1.9,0.7,2.9c0,1.3,0,2.6-0.3,3.9
			c-0.2,0.5-0.5,1-0.8,1.4c-0.6,0.5-1.2,1.3-2,1.4c-7.7,1.4-15.2,1.7-21.9-3.3C61.2,73,61.2,71,61.2,69z"/>
		<path class="st20" d="M61.2,75c4,1.7,8.2,1.7,12.4,2.5c4.1,0.7,7.8,0.8,11.4-1.5c0.6,0.7,0.6,1.3,0.1,2c-0.4,4.1-2.7,5-6.7,5.2
			c-5.7,0.2-11.4-1.8-17.2-0.1C61.2,80.3,61.2,77.7,61.2,75z"/>
		<path class="st21" d="M412,53c0-0.6,0-1.3-0.1-1.9c14.7,0,29.3,0.1,44,0.1c1.7,0.6,2.8,1.6,2.3,3.6c-0.3,0.5-0.8,0.7-1.4,0.8
			c-11.1,0.4-22.2-1.2-33.3-0.3c-2.7,0.2-5.2,1.2-7.7,2c-1.1,0.2-1.5-0.6-1.9-1.3C414,54.6,413.2,53.6,412,53z"/>
		<path class="st22" d="M458,54c-0.7-0.9-1.3-1.9-2-2.8c1.8-0.8,2.2-3.9,5-3c2.2,3.5,4.9,6.7,6.1,10.8c2.4,5.6,2.6,11.6,3.3,17.6
			c-0.1,2.9,1.5,4.4,4,5.2c1.7,0.5,3.4,1,4.5,2.6c0.1,0.2,0.1,0.5,0.2,0.7c-0.1,1-0.1,1.9-0.2,2.9c-1,2.1-2.5,1.9-4.1,0.8
			c-2.8-2-5.9-3.8-7.6-7c-0.7-1.9-0.5-4.1-1.2-6c-0.6-2.7-0.2-5.6-1.1-8.3c-0.4-1.9-0.1-3.9-0.8-5.7c-0.5-1.5-1.4-2.8-2.2-4.2
			C461.5,55.4,459.1,55.4,458,54z"/>
		<path class="st23" d="M61.3,91.9c1.9-5.1,4.1-6.1,11.2-4.6c4.2,0.9,8.4,1.3,12.6-0.3c0.2,0.2,0.3,0.3,0.5,0.5
			c0.3,0.6,0.5,1.3,0.5,2c0,0.5,0,1-0.2,1.5c-0.1,0.5-0.4,1-0.7,1.3c-0.4,0.3-0.9,0.6-1.4,0.7c-3.5,0.9-6.8-0.3-10.2-0.6
			c-4.9-0.5-9.3-0.3-10.6,5.7C61,96.4,60.9,94.2,61.3,91.9z"/>
		<path class="st24" d="M413.8,107.8c12.3,0.7,24.6,1.4,36.9,2.2c0.7,0,1.5,0.6,2.2,0.9c-13.7,0-27.3,0-41,0c0-0.6,0.1-1.3,0.1-1.9
			c0.3-0.5,0.3-1,0.8-1.4C413.2,107.5,413.5,107.6,413.8,107.8z"/>
		<path class="st25" d="M66.9,104c5.3,0.4,10.6-1.4,16-0.2c2.1,0.4,3.4,0.8,3.1,3.2c-4.9-0.1-9.7-0.3-14.6-0.3
			C69.2,106.8,67.5,106.4,66.9,104z"/>
		<path class="st26" d="M63,98.1c0.3-7.1,0.3-6.9,7.3-7.2c5-0.1,9.8,1.7,14.7,1c0.4,0.4,0.5,0.9,0.4,1.5c-0.2,0.5-0.6,0.9-1,1.2
			c-4.2,1.2-8.5,0.7-12.8,0.1c-2.2-0.3-4.6-1.3-6.2,1.4c-0.4,0.9-0.9,1.8-1.2,2.7C64,99,63.9,99.1,63.6,99
			C63.5,98.8,63.2,98.4,63,98.1z"/>
		<path class="st1" d="M85.1,63C79,60.4,72.7,58.6,66,58.9c0.2-1.2,0.9-2.1,1.9-2.8c1.5-0.9,3.1-0.4,4.7-0.5c3.7,1,7.4,2,10.9,3.6
			C85.8,60.2,85.8,60.7,85.1,63z"/>
		<path class="st27" d="M73.1,56.1c-1.7,0-3.5,0-5.2,0c3-2.5,6.6-0.8,9.8-1.1c2.8-0.2,5.6,0,8.4,0c0,1,0,2.1,0,3.1
			c-0.2,0.2-0.4,0.3-0.6,0.5c-2.9,0.8-5.2-1.7-8-1.5C76,56.9,74.5,56.8,73.1,56.1z"/>
		<path class="st28" d="M522,102c1.4-1.4,3.3-1.6,5.2-1.9c-0.2,2.7-1,4.8-4.2,4.8C522.9,103.8,523.1,102.7,522,102z"/>
		<path class="st29" d="M529.6,84c-2.9-3.3-2.8-4.7,0-6C530.1,80,530.1,82,529.6,84z"/>
		<path class="st30" d="M73.1,56.1c1.7,0,3.3,0,5,0c2.7,0.6,4.8,3.4,8,2l0,0c1.3,0.3,2.6,1,3.8,0.9c11.3-0.5,22.6,0.7,33.8,1.2
			c90.3,3.7,180.5,0.9,270.8,1.9c5.6,0.1,10.7-2,16.2-2.3c1.9-0.1,3.1-1.8,3.3-3.8c0.3,0.3,0.7,0.7,1,1c2.9,1.8,1,4.5,1.3,6.8
			c-0.1,1.5-0.3,3-1.4,4.2c-5,3.2-10.7,3.6-16.4,3.6c-42.5,0.2-84.9,0.4-127.4-0.3c-19.4-0.3-38.8-1.2-58.3-2
			c-17.8-0.7-35.5-1.3-53.3-2S124,66,106.2,65.2C99.1,64.9,92,65,85,64c0-0.3,0-0.7,0-1c0.4-2.5-1.6-2.5-3.1-3.2
			C79,58.5,75.5,58.5,73.1,56.1z"/>
		<path class="st31" d="M413,108.1c-0.3,0.3-0.7,0.6-1,1c-1.4-1.7-3.4-1-5.1-1.1c-9.7-0.1-19.4,0.5-29-0.1
			c-18.7-1.2-37.5-1.7-56.2-2.2c-8.3-0.2-16.6-0.4-24.9-0.7c-15.1-0.6-30.3-0.5-45.3-1.3c-11.8-0.6-23.6,0.3-35.4-0.9
			c-12.1-1.2-24.3,0.1-36.4-1c-11.6-1.1-23.3,0.1-34.9-1c-12-1.2-24,0.1-35.9-1c-8.7-0.8-17.4-0.4-26-0.8c1.3-3,4-3.6,6.7-3.3
			c15.7,1.8,31.6-0.2,47.3,1.8c0.7,0.1,1.3,0.1,2,0.1c18.5-0.7,36.9,0.9,55.3,1.2c14.8,0.3,29.6,0.2,44.3,1.1
			c11.1,0.7,22.3,0.2,33.4,0.8c24.4,1.3,48.8,1.3,73.2,2.2c11.6,0.4,23.3-0.1,34.9,0.9c9.3,0.8,18.6,0.6,27.9,0.9
			C410.3,104.7,412.9,104.7,413,108.1z"/>
		<path class="st32" d="M413,108.1c-1-2.4-3.1-2.1-5.1-2.1c-18.3,0.3-36.5-0.9-54.8-1.3c-12.3-0.3-24.6,0.3-36.8-0.9
			c-11.6-1.1-23.2-0.2-34.8-0.8c-24-1.3-48.1-1.3-72.1-2.2c-11.8-0.4-23.6-0.1-35.3-0.8c-23.9-1.3-47.7-1.9-71.6-2
			c-3.6,0-7.2-1.1-10.9-1c-3.1,0.1-5.9,0.4-8.6,2.1h-0.5H82c-5.7-0.2-11.2-2.4-17-1c-0.3,0.3-0.5,0.6-0.8,0.9c-0.1-1-0.1-2-0.2-2.9
			c1.7-2.9,4.4-1.4,6.7-1.4c5,0.1,10.1,1.7,15.1,0.2c11.8-0.1,23.6-1.1,35.4,0.7c0.7,0.1,1.3,0.1,2,0.1c19.8-0.7,39.6,0.8,59.3,1.2
			c25.4,0.5,50.8,1.3,76.2,2.1c10.1,0.3,20.3,0.3,30.4,0.7c26.2,1.2,52.5,1.4,78.7,2.3c13.1,0.5,26.3,0.3,39.4,0.7
			c1.7,0,3.3,0.1,4.9-0.7c0.7-0.5,1.4-1.1,2.4-1.1c1.2,0.6,1.3,1.7,1.2,2.9c-0.2,0.5-0.4,1-0.7,1.5c-0.4,0.9-0.8,1.8-1.3,2.7
			C413.6,107.9,413.3,108,413,108.1z"/>
		<path class="st31" d="M65.1,98c5.8-2.4,11.4-0.3,17,1C76.4,99.6,70.8,98,65.1,98z"/>
		<path class="st33" d="M85.1,78c0-0.7,0-1.4-0.1-2c0-0.3,0-0.6,0.1-1c1.8-1.6,4-1.6,6.1-1.6c15.8,0.1,31.6,0.8,47.3,1.8
			c9.6,0.6,19.3,0.6,28.9,0.9c13.6,0.4,27.3,0.9,40.9,1.5c24.8,1,49.5,1.1,74.3,2.7c3,0.2,6,0.1,9,0.1c24.3-0.2,48.5,0.9,72.8,1.5
			c16.8,0.4,33.6-0.1,50.3,1.1c0.9,0.4,1.7,0.9,1.6,2.1c-0.1,0.3-0.3,0.6-0.4,0.9c-11.8,0-23.7,0.7-35.5-0.2
			c-16.1-1.1-32.3,0.1-48.3-1.1c-12.3-0.9-24.6-0.1-36.9-0.8c-18.3-1.1-36.6-0.1-54.8-1.2c-13.3-0.8-26.6-0.1-39.9-0.8
			c-22.6-1.1-45.2-1.4-67.7-2.1C116.9,79.3,101,78.1,85.1,78z"/>
		<path class="st34" d="M85.1,83c0.3-2.5,2.3-2,3.9-2c24.8-0.5,49.5,1.1,74.3,1.3c9.4,0.1,18.9,0.5,28.3,0.6
			c20.3,0.4,40.5,0.7,60.8,1.3c14.9,0.5,29.9-0.3,44.8,0.8c15.8,1.3,31.6-0.2,47.3,1c15,1.2,29.9,0.1,44.8,0.9
			c6.3,0.3,12.5,1.1,18.9,1c2.7,0,5.3-0.3,7.8-1.1c0.6,0.9,0.5,1.8-0.1,2.7c-1.5,1.7-3.5,1.7-5.5,1.7c-23.3,0.2-46.6-1.4-69.9-1.2
			c-7.7-1.6-15.4-0.4-23.1-0.7c-2.5-0.1-5,0.1-7.5-0.4c-7-1.3-14.1-0.4-21.2-0.6c-5.8-0.2-11.5,0-17.3,0c-2.5-0.1-5,0.1-7.5-0.4
			c-6.4-1.3-12.8-0.4-19.2-0.6c-6.7-0.2-13.5,0-20.2,0c-2.2-0.1-4.4,0.1-6.6-0.4c-6.6-1.3-13.3-0.4-19.9-0.6c-6.5-0.2-13,0-19.5,0
			c-2.2-0.1-4.4,0.1-6.6-0.4c-7.4-1.3-14.8-0.4-22.2-0.6c-4.8-0.1-9.6,0-14.3,0c-3.1-0.1-6.3,0.2-9.4-0.4
			c-9.6-1.4-19.2-0.3-28.9-0.6C93.1,83.9,88.9,85.5,85.1,83z"/>
		<path class="st12" d="M85.1,86c0-0.7,0-1.3,0-2c13.9,0.4,27.8-0.5,41.7,0.8c12.9,1.1,25.9-0.2,38.8,0.8
			c11.9,0.9,23.9,0.4,35.9,0.5c0.6,0,1.3,0,1.9,0c14.6,1.3,29.3,0.6,43.9,1.1c29.9,0.9,59.8,1.2,89.7,2.2
			c12.8,0.4,25.6,0.5,38.4,0.7c11.1,0.2,22.2,1.6,33.4,1c2-0.1,4,0.1,6-0.5c0.7,0,1.2,0.3,1.5,0.9c0.1,1.4-0.5,2.5-1.6,3.2
			c-5.4,1.4-10.9,1.1-16.2,0.4c-6.8-0.8-13.5-0.6-20.3-0.3c-7.3-0.8-14.6-0.2-21.9-0.4c-1.2,0-2.5-0.1-3.7-0.4
			c-6.6-1.2-13.2-0.4-19.8-0.5c-7.4-0.2-14.9,0-22.3-0.1c-1.3,0-2.5-0.1-3.8-0.4c-5.9-1.2-11.9-0.5-17.8-0.6
			c-8.1-0.2-16.3,0-24.4-0.1c-1.3,0-2.5-0.1-3.8-0.4c-5.9-1.2-11.9-0.5-17.8-0.6c-8.1-0.2-16.2,0-24.4-0.1c-1.3,0-2.5-0.1-3.8-0.4
			c-7.9-1.3-15.9-0.3-23.9-0.6c-4.2-0.1-8.3,0-12.5,0c-2.2-0.1-4.4,0.1-6.5-0.4c-9.8-1.4-19.7-0.3-29.5-0.6c-1.9,0-3.7,0-5.6-0.4
			c-9.8-1.3-19.6-0.3-29.4-0.6c-2.1,0-4.3,0.1-6.4-0.4c-3.2-1.1-6.6-0.5-9.8-0.6C89.1,87.3,86.8,87.6,85.1,86z"/>
		<path class="st35" d="M415.9,89c0-0.7,0-1.3,0-2c0-0.3,0-0.7,0-1l0,0c1.7-5.3,1.9-5.2,7.4-4c11.5,2.5,23.2,4.4,34.9,6.2
			c3.9,0.6,7.3-0.7,8.7-5c0.2-0.5,0.6-0.9,1-1.2c2.3,1.8,4.8,3.5,6.9,5.5c1.3,1.2,2.5,1.5,3.9,0.4c0,0.7,0,1.3,0,2
			c-0.3,2.3-0.6,4.3-3.9,3.1c-5.1-2-5.1-1.9-6.1,3.4c-0.3,1.3-0.5,2.6-0.6,3.9c-0.1,1-0.5,1.9-1.3,2.6h-0.5h-0.5l0,0
			c-1-1-1.3-2.3-1.3-3.6c-0.2-1.5,0.4-3.5-2.2-3.6c-13.8-0.4-27.1-4.2-40.5-6.9c-1.9-0.4-3.6-0.1-5.3,0.4
			C416.4,89.1,416.1,89.1,415.9,89z"/>
		<path class="st36" d="M202,87c-11.7,0-23.3,0.6-34.9-0.2c-13.6-0.9-27.3,0.1-40.8-1.1c-11.5-0.9-22.9-0.4-34.3-0.7
			c-2.4-0.1-4.6-0.5-6.8-1c0-0.3,0-0.7,0-1c4,0,8,0,12,0c6.9,1.2,13.8,0.2,20.7,0.5c2.8,0.1,5.6-0.5,8.3,0.5c3,0,6,0,9,0
			c7.5,1.1,15.1,0.2,22.7,0.5c4.8,0.2,9.6-0.6,14.3,0.5c2,0,4,0,6,0c6.7,1.1,13.4,0.1,20.1,0.6C199.4,85.7,201.6,84.3,202,87z"/>
		<path class="st23" d="M85.1,86c5.3,0.5,10.8-1.1,16,1c-5.3,2.3-10.7,2.1-16,0l0,0C85,86.6,85.1,86.3,85.1,86z"/>
		<path class="st37" d="M524.9,71.2c-7.5,2.3-15.3,1.8-23,1.8c-1.3,0-2.7,0-4,0c-0.9,0-2.3-0.3-2.4,1c-0.2,1.5,1.1,1.8,2.3,1.9
			c0.6,0.1,1.2,0.1,1.9,1.1c-4.3,0-8.5,0-12.8,0c-2.5,2-5.2,1.6-7.9,0.4c-1.5-2.1-2.6-4.2-0.8-6.7c13.8,0.1,27.5,0.1,41.3,0.2
			C521.3,71,523.1,71.1,524.9,71.2z"/>
		<path class="st38" d="M478.2,70.8c0.3,2.1,0.5,4.1,0.8,6.2c-2.6,4.1-6,4.4-9.8,1c-0.7-6.3-1.4-12.6-2.1-18.9c2,2.3,2.9,5.5,6,7.1
			c2.7,1.4,4,0.8,4.1-2.3C478.4,66,477.7,68.5,478.2,70.8z"/>
		<path class="st39" d="M415,104c0-1,0-2,0-3c-0.4-0.3-0.6-0.7-0.8-1.2c-0.2-0.7-0.3-1.5-0.3-2.2c0-0.8,0.2-1.6,0.6-2.3
			c0.3-0.4,0.7-0.8,1.2-1.1c1.7-1.4,3.7-1.4,5.6-1c13.2,2.9,26.6,5.3,39.8,8.5c1.6,0.4,3.9,0.4,2.9,3.3c-0.3,0.4-0.6,0.7-1,1.1
			c-1.9,1.2-3.9,1.3-6.2,1c-12.3-1.6-24.6-2.1-36.9-3.1C418.2,103.8,416.6,104,415,104z"/>
		<path class="st40" d="M463.9,104.9c-0.1-1.1-0.7-1.7-1.9-1.9c-13.4-2.7-26.9-5.3-40.3-8.3c-2.5-0.6-4.5-0.2-6.7,0.4
			c-0.3-0.2-0.4-0.4-0.4-0.7s0.1-0.4,0.2-0.4c0.4-0.7,0.7-1.3,1.1-2c1.8-2.9,4.5-2.2,7.1-1.7c11.2,2.2,22.4,4.3,33.5,6.7
			c3.1,0.7,6.7-0.8,9.4,2c0,1.3,0,2.7,0,4C465.3,103.6,464.6,104.3,463.9,104.9z"/>
		<path class="st13" d="M415,104c4.4-2.8,9.1-0.8,13.6-0.8c7.4,0.1,14.7,1.3,22.1,1.7c4.1,0.2,8.1,1.7,12.3,1.1
			c-1.2,2.3-2.9,3.5-5.7,2.7c-7.7-2.2-15.7-1.9-23.5-2.5c-6.2-0.5-12.4-2-18.7-1C415.1,104.8,415,104.4,415,104z"/>
		<path class="st41" d="M467,100c0.3-1.4,0.6-2.9,0.8-4.3c1.3-7.1,1.4-7.4,7.4-3.8c3.2,1.9,2.4-1.4,3.7-2c1.5,1.6,3.4,1,5.2,1
			c11,0.1,22,0,32.9,0c2.3,4.4-1.4,4.1-3.6,4.3c-7.6,0.6-15.1,1.5-22.7,1.1c-4-0.2-8-0.1-11.3,2.5c-0.4,0.3-0.9,0.5-1.4,0.5
			C474.1,97.1,470.5,98.6,467,100z"/>
		<path class="st42" d="M477.9,98.9c1.9-3.3,5.2-4,8.5-3.9c9.1,0.1,18.1-0.2,27.2-1c1.8-0.2,4.5,0.6,3.3-3c2,0,4,0,6,0
			c2.5,2.3,0.3,3.6-1.2,4.6c-2.3,1.5-5,2.4-7.9,2.3c-8.5-0.1-16.9,0.3-25.4-0.2C484.8,97.6,481.6,100.2,477.9,98.9z"/>
		<path class="st43" d="M477.9,98.9c3.5-2.2,7.5-2,11.4-2c8.4,0.1,16.9,0.3,25.3-0.1c3.6-0.2,8.2,0,8.3-5.8c0.7,0,1.3,0,2,0
			c-0.1,4.7-3.7,7.8-9.6,7.8c-8.3,0.1-16.6,0.4-24.8-0.1c-4.8-0.3-8.9,2.6-13.5,2.2c-0.6-0.6-0.6-1.3,0-1.9
			C477.3,99,477.6,99,477.9,98.9z"/>
		<path class="st22" d="M517.9,84c3.5,0.3,6.8,0.5,6.1-4.8c-0.2-1.4,0.6-2.1,2.1-2.1c0,1.2-0.3,2.3-0.1,3.5c0.5,3.6-1.1,4.6-4.5,4.5
			c-14.1-0.1-28.3,0-42.4,0l-0.1-0.2c0.5-2.1,2.4-2.2,3.9-2.3c10.1-0.3,20.3-0.3,30.4,0C514.8,82.6,516.5,83.1,517.9,84z"/>
		<path class="st44" d="M477,99.1c0,0.6,0,1.3,0,1.9c4.5,2.3,9.3,0.3,13.9,1.1c-3.8,1.7-7.8,0.6-11.7,0.8c-4.1,0.2-8.2,0-12.3,0
			c0-1,0-2,0.1-3C471.7,95.6,473.8,95.4,477,99.1z"/>
		<path class="st45" d="M85,68c0-0.7,0-1.3,0.1-2c3.2-3.1,7.4-2.4,10.9-1.8c11.6,1.8,23.3,0.9,34.9,1.5c12.9,0.7,25.9,1,38.9,1.5
			c22.4,0.9,44.9,1.3,67.3,2.7C248,70.6,259,70.6,270,71c42.6,1.3,85.2,2,127.9,1.5c5.6-0.1,11.4,0.3,16.2-3.7
			c0.4-0.5,0.9-0.8,1.5-1c0.6,0.3,1,0.7,1.3,1.3c0.8,2.5,0.7,4.9,0,7.4c-0.3,0.6-0.6,1.1-1.2,1.5c-3.9,2.4-8.4,2.1-12.6,2.3
			c-8.1,0.4-16.3,0.9-24.4-0.6c-1.3-0.2-2.7-0.2-4-0.1c-16.5,0.7-32.9-0.8-49.4-1.2c-17.9-0.5-35.8-1.2-53.8-1.9
			c-17.8-0.7-35.5-1.3-53.3-2c-17.9-0.7-35.9-1.3-53.8-2c-17.3-0.7-34.5-1.4-51.8-2c-7.8-0.3-15.6-0.7-23.4-0.8
			C87.7,69.4,86.3,69.1,85,68L85,68z"/>
		<path class="st46" d="M415,68c-0.5,3.5-2.2,4.9-6,5.1c-30.6,2.1-61.2,0.9-91.8,0.7c-18.4-0.1-36.8-1.3-55.2-1.9
			c-17.9-0.6-35.8-1.3-53.7-2c-17.4-0.6-34.8-1.4-52.2-2c-18.2-0.7-36.5-1.6-54.7-2C96,65.8,90.6,64.2,85.2,66c0-0.7,0-1.3,0-2
			c5.7-1.5,11.5-1.4,17.3-0.4c1,0.2,2,0.4,3,0.4c14.8-0.7,29.6,0.9,44.4,1.2c18.9,0.4,37.8,1.3,56.7,2c16.6,0.6,33.1,1.3,49.7,1.9
			c47.3,1.8,94.5,0.4,141.8,0.9c5.8,0.1,11.5-1,17-3c0.3,0.2,0.3,0.4,0.3,0.7C415.1,67.9,415.1,68,415,68z"/>
		<path class="st47" d="M517.9,84c-11.3,0-22.5,0-33.8,0c-1.8,0-3.7-0.6-5.2,0.8c-3.2-2.3-9-1-9.8-6.9c3.5,1.5,6.8,1.9,9.8-1
			c2.7,0,5.3,0,8,0c5.6,2.1,11.4,0.8,17,0.9C509.7,77.9,513.9,80.5,517.9,84z"/>
		<path class="st48" d="M416,84c-13.1,0-26.3,0.7-39.4-0.2c-16.5-1.1-32.9,0.2-49.3-1.1c-13.6-1-27.2-0.2-40.8-0.8
			c-21.9-1-43.8-1.5-65.6-2.1c-17.4-0.5-34.8-1.4-52.2-2c-18.9-0.6-37.8-1.3-56.7-2.1c-9-0.4-17.9-0.4-26.8-0.7c0-1.3,0-2.7,0-4
			c6.9-3,14-1.2,21.1-1.1c1.3,0,2.6,0.6,3.9,0.5c14.5-0.7,28.9,0.9,43.3,1.2c18.9,0.4,37.8,1.3,56.7,2c16.4,0.6,32.8,1.4,49.3,1.9
			c19.7,0.7,39.5,1.4,59.2,2.1c18.4,0.6,36.8,1.7,55.3,1.9c8.1,0.1,16.3,0.7,24.4,1.3c3.9,1.3,7.9,0.7,11.8,0.8
			c1.8,0.1,3.7-0.2,5.3,0.8C416.1,82.8,416.3,83.4,416,84z"/>
		<path class="st9" d="M399,82c-14.3-1.3-28.6-0.5-42.8-1.1c-19.6-0.9-39.1-1.4-58.7-2c-18.6-0.6-37.1-1.3-55.7-2
			c-16.7-0.6-33.5-1.4-50.2-2c-18.6-0.7-37.1-1.4-55.7-2c-16.9-0.6-33.8-1.9-50.7-1.8c0-1,0-2,0-3c15.3,0.3,30.6,0.3,45.8,1.1
			c17.7,0.9,35.4,1.4,53.2,2c17.9,0.6,35.8,1.3,53.7,2c17.6,0.6,35.1,1.4,52.7,2c18.1,0.7,36.1,1.2,54.2,2.1
			c10.6,0.5,21.3-0.1,31.8,0.9c7.8,0.8,15.6,1,23.3,0.7c5.4-0.2,10.8-1.2,16.2-1.9c2.1,1.1,2.4,2.6,0.9,4.5
			C410.9,83.2,404.9,82.6,399,82z"/>
		<path class="st45" d="M415,63c-0.3-2,1.6-4,0-6c4.4-4.2,10.3-4.1,15.3-3.7c7.6,0.7,15.2,0.4,22.8,0.7c1.7,0.1,3.3,0.2,4.8,1
			c0.3,0.5,0.2,1-0.3,1.4c-2.1,1.3-4.5,1-6.8,0.9c-8.3-0.2-16.5,0.3-24.8,1.1c-1.2,0.1-3-0.2-3.1,1.6c-0.1,1.3,1.4,1.7,2.5,2
			c9.9,2.6,20,4.5,30.2,6.2c3.1,0.5,4.6-1.2,4.8-4.2c0.1-1.8-0.3-3.6,0-5.5c0.4-1.2,1.1-1.8,2.5-1.5c0.6,1.3,2.2,2.2,2,4
			c-0.8,4.4-0.5,8.9-0.7,13.3c-0.2,4.3-2,5.9-6.1,4.9c-12.2-3-24.3-6.6-36.2-10.7C419.2,67.6,417.3,64.8,415,63z"/>
		<path class="st49" d="M462.9,57.1c-0.6,0.3-1.3,0.6-1.9,1c-1.5,0-2.5-0.5-3-2c0-0.3,0-0.7,0-1c0-0.4,0-0.7,0-1.1
			C460.2,54.1,462.7,53.8,462.9,57.1z"/>
		<path class="st50" d="M416,76c0-2.3,0-4.7-0.1-7c1.6-1.4,3.2-0.8,4.5,0.4c3.5,3.2,7.8,4.1,12.1,5.4c7.6,2.2,15.2,4.6,23,6.2
			c4.2,0.8,7.5,0.9,9.5-3.6c0.3-0.7,1.1-1.2,2-1.4c1.7,1.8,0.6,4,1,6c0,0.3,0,0.6,0,1c-3.2,3.8-7.3,5-12,3.9
			c-5.5-1.3-11.1-1.9-16.6-2.8C431,82.7,423.2,80.4,416,76z"/>
		<path class="st49" d="M467,76c-3.8,7.5-3.8,7.4-12.1,6.1c-10.3-1.7-20-5.5-30.1-8.1c-3.4-0.9-4.8-5.3-8.9-4.9c0-0.3,0-0.7,0-1
			c-0.8-3.1,1.4-3.3,2.9-2.2c9.3,6.8,20.8,7.3,31.1,11.1c2.6,1,5.3,1.8,8.1,2.3c4.3,0.8,5.3,0.1,5.4-4.5c0-1.7,0-3.3,0-5
			c0.1-1.6,0.3-3.1,2.5-2.8C467.5,69.9,466.7,73,467,76z"/>
		<path class="st21" d="M465.9,67c-3.3,1.9-1.8,5-1.9,7.6c-0.3,6.2-1.1,7.1-7.1,5.5C446.4,77.2,436,74,425.6,71
			c-2.3-0.7-4.1-2-5.8-3.6c-1.4-1.4-3-2.5-3.9,0.6c-0.3,0-0.7,0-1,0c0-0.3,0-0.7,0-1c0-1.3,0-2.7,0-4c0.8,0.1,1.9-0.1,2.4,0.4
			c7,7,16.9,6.9,25.3,10.3c5,2,10.5,2.9,15.7,4.4c3.3,0.9,4.4-0.3,4.6-3.6c0.2-4.5-1.5-9.3,1.9-13.4C466.7,62.8,465.6,65,465.9,67z"
			/>
		<path class="st51" d="M414.8,94c0.1,0.4,0.1,0.7,0.2,1.1c-0.1,0.3-0.1,0.6-0.1,1c-1.9,1.8-4.4,1.4-6.7,1.4
			c-13.8,0-27.7,0.7-41.4-0.2c-16-1-32,0.1-47.9-1c-14.6-1.1-29.3,0.1-43.9-0.9c-15.8-1.2-31.6,0-47.4-1.1
			c-11.3-0.8-22.6,0.1-33.9-0.9c-12.3-1.1-24.6,0-36.9-1c-11.5-1-23,0-34.4-1c-10.8-0.9-21.6-0.6-32.4-0.9c-1.8,0-3.7,0-5.2-1.4
			c0-0.7,0-1.3,0-2c5.3,0,10.7,0,16,0c2,0,4,0,6,0c7.2,1.1,14.5,0.2,21.7,0.5c2.8,0.1,5.6-0.5,8.3,0.5c1.7,0,3.3,0,5,0
			c7.2,1.1,14.5,0.2,21.7,0.5c2.8,0.1,5.6-0.5,8.3,0.5c2,0,4,0,6,0c7.5,1.2,15.1,0.2,22.7,0.5c4.8,0.2,9.6-0.6,14.3,0.5c1,0,2,0,3,0
			c5.6,1.2,11.2,0.3,16.8,0.5c8.7,0.3,17.5-0.6,26.2,0.5c1,0,2,0,3,0c5.6,1.2,11.2,0.3,16.8,0.5c8.7,0.3,17.5-0.6,26.2,0.5
			c1,0,2,0,3,0c5.6,1.2,11.2,0.3,16.8,0.5c8.7,0.3,17.5-0.6,26.2,0.5c1,0,2,0,3,0c5.4,1.2,10.8,0.2,16.2,0.5
			c1.9,0.1,3.9-0.5,5.8,0.5c5.5-2.1,11.2-1.4,16.6-0.7C401.4,94,408.1,93.7,414.8,94z"/>
		<path class="st52" d="M85.1,89c21.5-0.8,42.9,0.9,64.3,1.3c11.8,0.2,23.6-0.3,35.3,0.8c12,1.1,24-0.1,35.8,1
			c14.5,1.4,29-0.2,43.3,1c16,1.3,32-0.2,47.8,1.1c13.5,1.1,26.9,0,40.4,0.9c20.9,1.4,41.9,0.7,62.8,0.9c0,0.7,0,1.3,0,2
			c-1.8,1.6-4,1.4-6.2,1.4c-14.8,0-29.6,0.7-44.3-0.2c-12.4-0.8-24.9-0.3-37.3-1.1c-2.1-0.7-4.2-0.7-6.4-0.7c-7.1,0-14.3,0-21.4,0
			c-19.2-0.1-38.4-1.6-57.7-1.1c-0.6,0-1.3-0.1-1.9-0.3c-6.9-1.4-13.9-0.4-20.9-0.6c-4.5-0.2-9,0.1-13.5-0.1c-0.6,0-1.2-0.1-1.8-0.3
			c-8.2-1.3-16.5-0.3-24.8-0.6c-2.5-0.1-5,0-7.5-0.1c-0.9,0-1.9-0.1-2.8-0.4c-8.4-1.3-16.9-0.3-25.4-0.6c-2.5-0.1-5,0-7.5-0.1
			c-0.9,0-1.8-0.1-2.6-0.3c-4.9-1.2-9.9-0.8-14.9-0.3c-0.6,0.1-1.1,0.1-1.7,0c-5.4-0.8-10.8-0.1-16.2-0.4c-0.9,0-1.7-0.1-2.6-0.4
			c-4.1-1.6-8.8,0.9-12.7-2C85.1,89.7,85.1,89.3,85.1,89z"/>
		<path class="st53" d="M240,95c0.3,0,0.7,0,1,0c6.9,1.2,13.8,0.3,20.8,0.5c19.2,0.6,38.3,1.4,57.5,1c1.9,0.5,3.8,0.3,5.7,0.6
			c1.2,0.2,2.7,0.4,1.6,2.3c-1.8,1.2-3.8,0.9-5.8,0.9c-18.6,0.4-37.2-0.9-55.8-1.3c-10.8-0.2-21.6-0.2-32.4-0.7
			c-24.9-1.2-49.8-1.4-74.7-2.2c-11-0.4-21.9,0-32.9-0.8c-11.8-1-23.6-0.7-35.4-0.9c-1.7,0-3.4,0-4.6-1.4c0-0.3,0-0.7,0-1s0-0.6,0-1
			c4.3-0.8,8.7-0.8,13,0c0.7,0,1.3,0,2,0c5.6,1.4,11.4-0.3,17,1c0.3,0,0.7,0,1,0c5-0.8,10-0.8,15,0c0.7,0,1.3,0,2,0
			c7.5,1.1,15.1,0.2,22.7,0.5c3.8,0.2,7.6-0.6,11.3,0.5c0.7,0,1.3,0,2,0c7.5,1.1,15.1,0.2,22.7,0.5c3.4,0.2,6.9-0.6,10.3,0.5
			c0.3,0,0.7,0,1,0c7.5,1.1,15.1,0.2,22.7,0.5C231.8,94.7,236,93.9,240,95z"/>
		<path class="st26" d="M98.1,91c-4.3,0-8.7,0-13,0c0-0.3,0-0.7,0-1C89.4,90.6,93.9,88.8,98.1,91z"/>
		<path class="st54" d="M85.1,93c21.8,0.3,43.6,0.1,65.3,1.2c11.6,0.6,23.3-0.2,34.8,0.9c12.1,1.2,24.3-0.2,36.3,1
			c11.8,1.2,23.6-0.1,35.3,1c12,1.2,24-0.1,35.8,1c11.5,1.1,22.9,0.4,34.3,0.8c1.7-1.4,3.8-1,5.8-1c26-0.2,51.9,1.6,77.9,1
			c1.5,0,3-0.1,4.3,1c0,0.3,0,0.7,0,1c-0.3,0.3-0.7,0.7-1,1c-6.5,2.1-13.1,0.6-19.7,0.9c-6.2-1-12.4-0.3-18.6-0.5
			c-25.1-0.3-50.2-1-75.2-1.6c-23.7-0.6-47.5-1.3-71.2-2c-23.4-0.6-46.8-1.3-70.2-2c-23.6-0.7-47.1-1.7-70.7-1.9
			c-0.8,0-1.7-0.1-2.5-0.4c-0.3-0.2-0.5-0.4-0.8-0.6C85.1,93.7,85.1,93.3,85.1,93z"/>
		<path class="st54" d="M85.1,96c-5.8,2.4-11.5-0.9-17.3-0.4c-1.2,0.1-2.5-0.3-3.7,0.4c0.4-3.8,3.5-3.4,5.7-2.9
			c5.1,1.2,10.2,0.7,15.3,0.9l0,0C85.7,94.7,85.7,95.3,85.1,96z"/>
		<path class="st46" d="M86,58c-3.3,2-5.7,0.4-8-2C81.1,55.1,83.1,58.4,86,58z"/>
		<path class="st55" d="M85.1,96c0-0.7,0-1.3,0-2c20.5-0.7,40.9,0.9,61.3,1.3c11.8,0.2,23.6-0.3,35.3,0.8c12,1.1,24-0.1,35.8,1
			s23.6-0.2,35.3,1c12.1,1.2,24.3-0.1,36.3,1c12.3,1.2,24.6-0.1,36.8,1c16.6,1.5,33.2,0.4,49.8,0.9c4.2,1.1,8.5,0.2,12.7,0.5
			c1.8,0.1,3.6-0.5,5.3,0.5c6.7,0,13.3,0,20,0c-0.4,2.5-2.3,1.9-3.9,2c-24.8,0.7-49.5-1-74.3-1.3c-9.6-0.1-19.2,0-28.8-0.8
			c-13.9-1.1-27.9-0.1-41.8-1.2c-11.5-0.9-22.9,0.2-34.3-0.9c-12.5-1.2-25,0.1-37.3-1.1c-11.8-1.1-23.6-0.2-35.3-0.9
			C133.8,96.6,109.5,95.9,85.1,96z"/>
		<path class="st56" d="M416,76c1.2-0.6,2.6-1.7,3.7-0.5c5.3,6,12.9,5.3,19.6,7c6.1,1.5,12.3,2.1,18.4,3.5c4.2,0.9,6.7-2.6,10.2-3
			c-0.4,4.5-4.4,7.9-9.2,6.9c-12.6-2.6-25.5-3.4-37.8-7.4c-3.7-1.2-3.2,2.6-5,3.5c0-0.7,0-1.3,0-2c0-0.3,0-0.7,0-1
			c-0.1-0.8,0.3-1.5,0.9-2c0.2-1.5-0.3-2.8-1-4C415.9,76.7,416,76.3,416,76z"/>
		<path class="st36" d="M415.9,91c-7.7,2.1-15.6,1.5-23.3,0.8c-9.3-0.9-18.6-0.6-27.9-0.7c-20.8-0.2-41.5-0.8-62.3-1.4
			c-14.8-0.4-29.6,0.4-44.3-0.8c-15.9-1.3-31.9-0.4-47.8-0.9c-2.5-0.1-4.9-0.6-7.4-1c-0.1-0.7,0.2-1.4,0.9-1.4
			c4.7,0.1,9.4-0.7,14.1,0.4c2,0,4,0,6,0c6.6,1.1,13.2,0.2,19.7,0.5c6.7,0.3,13.5-0.6,20.2,0.5c2.3,0,4.7,0,7,0
			c6.9,1.2,13.8,0.2,20.7,0.5c6.1,0.3,12.2-0.6,18.3,0.5c2.3,0,4.7,0,7,0c5.7,1.1,11.5,0.2,17.2,0.5c1.9,0.1,3.9-0.5,5.8,0.5
			c10.6,0,21.3,0,31.9,0c12.8,0,25.5,1.7,38.2,1c2-0.1,4,0.1,5.8-1h0.2C416.6,89.7,416.6,90.4,415.9,91z"/>
		<path class="st57" d="M218,86c-5,0.6-10.1-1.2-15,1c-0.3,0-0.7,0-1,0c-5.4-2.1-11-0.4-16.4-1c-2.5-0.3-5.3,1-7.6-1
			c11.6,0,23.2,0,34.8,0C214.6,85,216.6,84.4,218,86z"/>
		<path class="st57" d="M264,87c-11.6,0-23.2,0-34.8,0c-1.7,0-3.7,0.7-5.2-1c11.6,0,23.2,0,34.8,0C260.6,86,262.5,85.4,264,87z"/>
		<path class="st57" d="M310,88c-11.3,0-22.6,0-33.8,0c-1.7,0-3.7,0.7-5.2-1c11.3,0,22.6,0,33.8,0C306.6,87,308.5,86.4,310,88z"/>
		<path class="st57" d="M172,85c-10.6,0-21.2,0-31.8,0c-1.7,0-3.7,0.7-5.2-1c10.6,0,21.2,0,31.8,0C168.6,84,170.6,83.4,172,85z"/>
		<path class="st57" d="M126.1,84c-8.1,0-16.2,0-24.3,0c-1.6,0-3.4,0.5-4.7-1c8.1,0,16.2,0,24.3,0C123,83,124.8,82.5,126.1,84z"/>
		<path class="st57" d="M340,89c-6.1,0-12.2,0-18.3,0c-1.6,0-3.4,0.5-4.6-1c6.1,0,12.2,0,18.3,0C336.9,88,338.7,87.5,340,89z"/>
		<path class="st58" d="M415.9,91c0.1-0.7,0.1-1.3,0.2-2c1.2-1.7,2.2-2.7,4.8-2c12.5,3.6,25.3,5.3,38.1,7.8c0.6,0.1,1.5,0.3,1.9,0
			c5.4-3,5.3,0.5,5.1,4.2c-15.1-0.5-29.5-5.1-44.2-7.7c-2.1-0.4-3.9-0.3-5.8,0.6C415.9,91.6,415.9,91.3,415.9,91z"/>
		<path class="st23" d="M261,91c-12.6,0-25.2,0-37.8,0c-1.7,0-3.7,0.7-5.2-1c12.6,0,25.2,0,37.8,0C257.6,90,259.5,89.4,261,91z"/>
		<path class="st23" d="M353,93c-12.6,0-25.2,0-37.8,0c-1.7,0-3.7,0.7-5.2-1c12.6,0,25.2,0,37.8,0C349.6,92,351.5,91.4,353,93z"/>
		<path class="st23" d="M307,92c-12.6,0-25.2,0-37.8,0c-1.7,0-3.7,0.7-5.2-1c12.6,0,25.2,0,37.8,0C303.6,91,305.5,90.4,307,92z"/>
		<path class="st23" d="M215,90c-10.6,0-21.2,0-31.8,0c-1.7,0-3.7,0.7-5.2-1c10.6,0,21.2,0,31.8,0C211.6,89,213.6,88.4,215,90z"/>
		<path class="st23" d="M172,89c-8.4,0-16.9,0-25.3,0c-1.6,0-3.4,0.5-4.7-1c8.4,0,16.9,0,25.3,0C169,88,170.7,87.5,172,89z"/>
		<path class="st23" d="M137.1,88c-8.4,0-16.9,0-25.3,0c-1.6,0-3.4,0.5-4.7-1c8.4,0,16.9,0,25.3,0C134,87,135.8,86.5,137.1,88z"/>
		<path class="st23" d="M378,94c-5.8,0-11.6,0-17.4,0c-1.6,0-3.4,0.5-4.6-1c5.8,0,11.6,0,17.4,0C374.9,93,376.7,92.5,378,94z"/>
		<path class="st59" d="M414.9,100c-29.3,0.8-58.6-1.6-87.9-1c-1.9-2.3-5.1,0.3-7-2c2.3-0.8,4.7-0.8,7,0c29.3-0.1,58.6,1.7,88,1
			C414.9,98.6,414.9,99.3,414.9,100z"/>
		<path class="st49" d="M416.9,81c0,0.8-0.1,1.6-0.9,2c-5.7-0.6-11.5,1.2-17-1C405,81.7,411,82.9,416.9,81z"/>
		<path class="st60" d="M457.9,56c1,0.7,2,1.3,3,2c1.1,1.8,1,3.8,1,5.8c-0.1,5.2-2.1,7-7.1,6c-9.4-1.9-18.7-3.9-28-5.8
			c-0.8-0.2-1.6-0.5-2.4-0.7c-2.1-0.6-4.6-1.4-4.2-4c0.4-2.3,3-2.1,4.9-2.3C436.1,55.7,447,56.1,457.9,56z"/>
		<path class="st26" d="M327,97c-2.3,0-4.7,0-7,0c-11.7,0-23.3,0.6-35-0.2c-13.6-0.8-27.2-0.8-40.8-0.9c-1.2,0-2.4,0.1-3.2-1
			c10.8,0,21.7-0.6,32.5,0.1c16.8,1.2,33.6,0.6,50.3,0.9C325,96,326.2,95.9,327,97z"/>
		<path class="st26" d="M240,95c-9.9,0-19.9,0-29.8,0c-1.7,0-3.7,0.7-5.2-1c9.9,0,19.9,0,29.8,0C236.6,94,238.6,93.4,240,95z"/>
		<path class="st26" d="M169,93c-9.6,0-19.2,0-28.8,0c-1.7,0-3.7,0.7-5.2-1c9.6,0,19.2,0,28.8,0C165.6,92,167.6,91.4,169,93z"/>
		<path class="st26" d="M204,94c-9.3,0-18.6,0-27.8,0c-1.7,0-3.7,0.7-5.2-1c9.3,0,18.6,0,27.8,0C200.6,93,202.6,92.4,204,94z"/>
		<path class="st26" d="M117.1,92c-5.7-0.5-11.4,1.2-17-1C105.7,91.5,111.5,89.8,117.1,92z"/>
		<path class="st26" d="M133.1,92c-5,0-10,0-15,0C123.1,90.4,128.1,90.4,133.1,92z"/>
		<path class="st61" d="M394,102c-6-0.6-12.1,1.2-18-1C382,101.5,388.1,99.8,394,102z"/>
	</g>
</g>
</svg>
