<?xml version="1.0" encoding="utf-8"?>
<!-- Generator: Adobe Illustrator 25.0.0, SVG Export Plug-In . SVG Version: 6.00 Build 0)  -->
<svg version="1.1" xmlns="http://www.w3.org/2000/svg" xmlns:xlink="http://www.w3.org/1999/xlink" x="0px" y="0px"
	 viewBox="0 0 720 183" style="enable-background:new 0 0 720 183;" xml:space="preserve">
<style type="text/css">
	.st0{display:none;}
	.st1{display:inline;fill:#050505;stroke:#000000;stroke-miterlimit:10;}
	.st2{fill:#1A1D1F;}
	.st3{fill:#7A7975;}
	.st4{fill:#D4D0C0;}
	.st5{fill:#A8C2D1;}
	.st6{fill:#676866;}
	.st7{fill:#545451;}
	.st8{fill:#E2DECE;}
	.st9{fill:#030303;}
	.st10{fill:#0B0C0D;}
	.st11{fill:#0C0C0C;}
	.st12{fill:#0F1112;}
	.st13{fill:#0A0B0C;}
	.st14{fill:#1A1C1D;}
	.st15{fill:#161615;}
	.st16{fill:#383834;}
	.st17{fill:#181816;}
	.st18{fill:#3D3C38;}
	.st19{fill:#060606;}
	.st20{fill:#AEAA9B;}
	.st21{fill:#373633;}
	.st22{fill:#222424;}
	.st23{fill:#202426;}
	.st24{fill:#443F03;}
	.st25{fill:#333330;}
	.st26{fill:#1E1E1C;}
	.st27{fill:#272826;}
	.st28{fill:#ACAA9E;}
	.st29{fill:#232729;}
	.st30{fill:#2A2E2F;}
	.st31{fill:#292E30;}
	.st32{fill:#919086;}
	.st33{fill:#211F05;}
	.st34{fill:#1C1F20;}
	.st35{fill:#282D2F;}
	.st36{fill:#0D0E0F;}
	.st37{fill:#626159;}
	.st38{fill:#303538;}
	.st39{fill:#3C3C38;}
	.st40{fill:#40484B;}
	.st41{fill:#1D2022;}
	.st42{fill:#17191A;}
	.st43{fill:#151718;}
	.st44{fill:#232628;}
	.st45{fill:#222220;}
	.st46{fill:#2F3537;}
	.st47{fill:#9EBACA;}
	.st48{fill:#636159;}
	.st49{fill:#343A3D;}
	.st50{fill:#99B8C9;}
	.st51{fill:#A0BECF;}
	.st52{fill:#9CB9CB;}
	.st53{fill:#A0BDCF;}
	.st54{fill:#A0BCCD;}
	.st55{fill:#A1BFD0;}
	.st56{fill:#A0BFD0;}
	.st57{fill:#080909;}
	.st58{fill:#090A0A;}
	.st59{fill:#53524B;}
	.st60{fill:#141617;}
	.st61{fill:#5C5A53;}
	.st62{fill:#24292B;}
	.st63{fill:#1E1D1B;}
	.st64{fill:#161819;}
	.st65{fill:#7E7B73;}
	.st66{fill:#3D3D38;}
	.st67{fill:#20201E;}
	.st68{fill:#0E0F0E;}
	.st69{fill:#5B6367;}
	.st70{fill:#393B3A;}
	.st71{fill:#6B7679;}
	.st72{fill:#41403C;}
	.st73{fill:#757369;}
	.st74{fill:#353B3E;}
	.st75{fill:#7D888A;}
	.st76{fill:#A6A294;}
	.st77{fill:#232320;}
	.st78{fill:#454D51;}
	.st79{fill:#959285;}
	.st80{fill:#656E71;}
	.st81{fill:#68675F;}
	.st82{fill:#C0BCAE;}
	.st83{fill:#76746C;}
	.st84{fill:#5A5A55;}
	.st85{fill:#66645D;}
	.st86{fill:#56554F;}
	.st87{fill:#ABA798;}
	.st88{fill:#41413B;}
	.st89{fill:#3A4144;}
	.st90{fill:#1A1A18;}
	.st91{fill:#DDD8C7;}
	.st92{fill:#2F2F2C;}
	.st93{fill:#868378;}
	.st94{fill:#484741;}
	.st95{fill:#262624;}
	.st96{fill:#151819;}
	.st97{fill:#121415;}
	.st98{fill:#1A1D1E;}
	.st99{fill:#131517;}
	.st100{fill:#3A4043;}
	.st101{fill:#141718;}
	.st102{fill:#2A2F32;}
	.st103{fill:#3E4548;}
	.st104{fill:#25292C;}
	.st105{fill:#15181A;}
	.st106{fill:#1B1E20;}
	.st107{fill:#272C2E;}
	.st108{fill:#3B4246;}
	.st109{fill:#262A2C;}
	.st110{fill:#2F3437;}
	.st111{fill:#464E52;}
	.st112{fill:#2A2F31;}
	.st113{fill:#2C3134;}
	.st114{fill:#424A4D;}
	.st115{fill:#373E41;}
	.st116{fill:#383E41;}
	.st117{fill:#495154;}
	.st118{fill:#33393C;}
	.st119{fill:#3A4145;}
	.st120{fill:#2C3133;}
	.st121{fill:#181B1C;}
	.st122{fill:#2D3336;}
	.st123{fill:#2F3538;}
	.st124{fill:#50595D;}
	.st125{fill:#303639;}
	.st126{fill:#474F53;}
	.st127{fill:#2E3336;}
	.st128{fill:#555E62;}
	.st129{fill:#32383B;}
	.st130{fill:#515A5D;}
	.st131{fill:#485053;}
	.st132{fill:#525B5E;}
	.st133{fill:#535C5F;}
	.st134{fill:#52534F;}
	.st135{fill:#25292B;}
	.st136{fill:#292B2B;}
	.st137{fill:#F9F9F8;}
	.st138{fill:#686760;}
	.st139{fill:#333739;}
	.st140{fill:#363632;}
	.st141{fill:#4E4D47;}
	.st142{fill:#41403B;}
	.st143{fill:#474641;}
	.st144{fill:#4A5357;}
	.st145{fill:#32383A;}
	.st146{fill:#434B4E;}
	.st147{fill:#070909;}
	.st148{fill:#495155;}
	.st149{fill:#4C555A;}
	.st150{fill:#67645D;}
	.st151{fill:#444B4F;}
	.st152{fill:#495256;}
	.st153{fill:#2D3234;}
	.st154{fill:#4E575B;}
	.st155{fill:#40474B;}
	.st156{fill:#373401;}
	.st157{fill:#121001;}
	.st158{fill:#282501;}
	.st159{fill:#292826;}
	.st160{fill:#2B2B28;}
	.st161{fill:#44433E;}
	.st162{fill:#504F49;}
	.st163{fill:#7A786F;}
	.st164{fill:#A8A495;}
	.st165{fill:#2D2D2A;}
	.st166{fill:#EAE6D5;}
	.st167{fill:#020202;}
	.st168{fill:#54524C;}
	.st169{fill:#4B5458;}
	.st170{fill:#343430;}
	.st171{fill:#363C3F;}
	.st172{fill:#595851;}
	.st173{fill:#2C2C29;}
	.st174{fill:#4C5459;}
	.st175{fill:#AAA697;}
	.st176{fill:#6D787B;}
	.st177{fill:#818D8F;}
	.st178{fill:#2B3032;}
	.st179{fill:#8C999B;}
	.st180{fill:#5E676B;}
	.st181{fill:#5F686A;}
	.st182{fill:#758082;}
	.st183{fill:#596266;}
	.st184{fill:#7C7A6F;}
	.st185{fill:#4D4C47;}
	.st186{fill:#2A2926;}
	.st187{fill:#242321;}
	.st188{fill:#716F66;}
	.st189{fill:#131312;}
	.st190{fill:#3C3B37;}
	.st191{fill:#262523;}
	.st192{fill:#040505;}
	.st193{fill:#918F82;}
	.st194{fill:#1B1B19;}
	.st195{fill:#070808;}
	.st196{fill:#060708;}
	.st197{fill:#050606;}
	.st198{fill:#060707;}
	.st199{fill:#050505;}
	.st200{fill:#97A2A2;}
	.st201{fill:#889496;}
	.st202{fill:#909DA0;}
	.st203{fill:#8B989A;}
	.st204{fill:#3A3A36;}
	.st205{fill:#E3E3DF;}
	.st206{fill:#161514;}
	.st207{fill:#2B2E2F;}
	.st208{fill:#77746A;}
	.st209{fill:#070809;}
	.st210{fill:#42494D;}
	.st211{fill:#4F585C;}
	.st212{fill:#262623;}
	.st213{fill:#252522;}
	.st214{fill:#21211F;}
	.st215{fill:#807E73;}
	.st216{fill:#191917;}
	.st217{fill:#535B5F;}
	.st218{fill:#5D676C;}
	.st219{fill:#262B2D;}
	.st220{fill:#9E9B8F;}
	.st221{fill:#7B7970;}
	.st222{fill:#010101;}
	.st223{fill:#45443F;}
	.st224{fill:#10100F;}
	.st225{fill:#6A6860;}
	.st226{fill:#6D6B62;}
	.st227{fill:#4A4A44;}
	.st228{fill:#616058;}
	.st229{fill:#080808;}
	.st230{fill:#0E0E0E;}
	.st231{fill:#4A4943;}
	.st232{fill:#8E8B7F;}
	.st233{fill:#949183;}
	.st234{fill:#706E66;}
	.st235{fill:#615F57;}
	.st236{fill:#54534C;}
	.st237{fill:#5E5C55;}
	.st238{fill:#90928A;}
	.st239{fill:#918E81;}
	.st240{fill:#656F71;}
	.st241{fill:#868478;}
	.st242{fill:#78756B;}
	.st243{fill:#65635B;}
	.st244{fill:#4B4A44;}
	.st245{fill:#7B796E;}
	.st246{fill:#121211;}
	.st247{fill:#4E575C;}
	.st248{fill:#0F0F0F;}
	.st249{fill:#A6A397;}
	.st250{fill:#B5B1A1;}
	.st251{fill:#69685F;}
	.st252{fill:#6B6960;}
	.st253{fill:#0C0C05;}
	.st254{fill:#EBEBEA;}
	.st255{fill:#515151;}
	.st256{fill:#7C796E;}
	.st257{fill:#0B0B0B;}
	.st258{fill:#56544E;}
	.st259{fill:#323230;}
</style>
<g id="Camada_2" class="st0">
	<rect x="-69" y="-24" class="st1" width="851" height="273"/>
</g>
<g id="Camada_1">
	<g>
		<path class="st2" d="M240,182.9c-1.9-2.2-5.2-1.1-7.3-2.9c1.6-4.4,3.6-8.6,4-13.6c0.2-3.1,3.6-6,7.6-6.6c0.9,1.1,0.8,2.3,0.6,3.5
			c-1.1,3.8-2.5,7.5-3.7,11.3c1.5-3.6,4.5-6.7,4-11c1.7-3.5,3.1-3.9,5-1.4c-2.3,7.1-4.9,14-8.1,20.7
			C241.4,182.9,240.7,182.9,240,182.9z"/>
		<path class="st3" d="M681.9,39.9c12.7-0.9,25.3-1.3,38,0.1c0,0.7,0,1.3,0,2c-1.1,1-2.4,1.1-3.8,0.7c-1.8-1.3-3.8-0.7-5.7-0.5
			c-5.7,0.6-11.3-0.6-17,0.1c-0.7,0.3-1.4,0.3-2.1,0.2c-2.8-0.7-5.7-0.9-8.6-1.2C681.9,41.2,681.4,40.8,681.9,39.9z"/>
		<path class="st4" d="M624.9,2.1c-0.2,2.5,1.9,4.7,0.9,7.3c-3.8-2.5-7.3-1.5-10.7,0.9c0.2-2.3-1.8-5.4,2.3-6.2
			c-0.3-0.3-0.5-0.9-0.8-0.9c-1.8-0.4-1.7-1.7-1.6-3c0.3,0,0.7,0,1,0C618.5,2.4,622.2-0.1,624.9,2.1z"/>
		<path class="st5" d="M0.1,36.1c2-0.7,4-1.3,6-2c0.6,1.5-0.6,2.5-1,3.8c-1.1,2.2-0.7,5-2.9,6.6C1.9,44.8,1.5,45,1,45.1
			c-0.3,0-0.6-0.1-1,0C0.1,42.1,0.1,39.1,0.1,36.1z"/>
		<path class="st6" d="M719.9,55.1c-0.3,0-0.7,0-1,0c-0.3-0.4-0.6-0.8-0.9-1.3c-0.3-0.7-0.4-1.5-0.4-2.2c-0.1-3.2-2.3-3.8-4.9-4.2
			c-1.8-0.2-4,0.4-5-1.9c1.6-2.4,4-1.6,6.2-1.8c2.1,0,4.2-0.2,6,1.4C719.9,48.4,719.9,51.7,719.9,55.1z"/>
		<path class="st7" d="M624.9,2.1c-3-0.5-6.8,2.5-9-1.9c3,0,6,0,9,0C624.9,0.8,624.9,1.4,624.9,2.1z"/>
		<path class="st8" d="M719.9,45.1c-2,0-4,0-6,0c-0.3-0.3-0.5-0.6-0.6-1.1c0-0.4,0.1-0.8,0.3-1.2c0.6-0.7,1.2-1.2,2.2-0.8
			c1.4,0,2.7,0.1,4.1,0.1C719.9,43.1,719.9,44.1,719.9,45.1z"/>
		<path class="st9" d="M566.1,85.3c-0.1,0.6-0.2,1.1-0.3,1.7c-2.2,3.2-5.7,2.3-8.6,2.3c-12.1,0.2-24.2,0.1-36.3,0.1
			c-35.9,0-71.8,0-107.7-0.1c-3.2,0-6.8,0.9-9.2-2.4c-0.1-0.5-0.2-1-0.2-1.6c-0.6-1.2-1.3-2.4-1.3-3.7c0-11.4-0.5-22.9,0.4-34.3
			c1-2.3,2.8-2.7,4.9-1.9c2.1,0.8,1.4,2.8,1.4,4.4c0,1.8-0.3,3.7,0.2,5.5c0.7,2.5,1.8,1,2.8,0.1c2.6-1.5,3,2.1,4.9,2.2
			c1,0.2,2,0.3,2.9-0.4c1.1-2.6,0-5.5,1-8.1c0.2-0.5,0.5-0.8,0.9-1.1c2.7,0.7,2,3,2.3,4.9c0.3,1.7-0.3,3.8,2,4.7
			c1.9,0.5,3.2,0.1,3.4-2.1c0.1-1.4,0.1-2.9,0.9-4.2c0.8-1,1.9-1.5,3.2-1.4c0.7,0.2,1.3,0.7,1.7,1.3c0.7,1.4,0.6,2.9,0.4,4.4
			c-0.1,1.4,0.2,2.3,1.9,1.8c0.4-0.2,0.8-0.4,1.2-0.5c1.5-0.2,3.1-0.3,4.6,0.3c1.7,0.9,3.7,0.9,5.3,1.8c3.5,2.5,1.5,6.3,2.1,9.5
			c0.7,3.6-1.3,6.8-1.5,10.2c0,0.7,0-0.2,0.2,0.4c0.1,0.3,0.6,0.1,0.8-0.3c0.6-4.8,0.6-9.5,0.6-14.3c0-1.8-0.3-3.6,1.1-5.1
			c0.9-1,2.2-1.3,3.3-2c1.8-0.8,2.2-2.2,2.2-4c0.1-1.8-0.2-3.6,1.7-5.2c3.4,2.4,0.8,6.5,2.6,9.2c4.1-0.4,1.8-4.5,3.7-6.1
			c0.9-0.9,2-1.4,3.2-1.3c2.5,1.1,3.2,3.1,2.6,5.7c-0.6,2.7,1,2.2,2.6,1.6c1.9-0.7,1.4-2.4,1.7-3.8c0.3-1.4,0.1-3.1,2.2-3.3
			c1.4,1.2,1.2,3,1.3,4.6c0.2,2.1,0.9,3.6,3.5,2.8c2.7-0.8,1.5-3.2,2-4.9c0.4-1.6-0.6-4.2,2.5-4.3c2,2.5,0.1,5.8,2.2,8.9
			c2.1-2.8,0.6-6,1.9-8.5c2.7-1.2,3.9-0.5,3.4,2.6c-0.4,2.1-1.7,4.6,1.4,6c1.2,0.6,2.5,0.7,3.8,0.5c1.8-0.6,3.6-0.4,5.5,0
			c1.1,0.1,2.2,0.1,3.4,0c2.7-0.7,1.7-3,2-4.8s-0.8-4.4,2.4-4.8c1.6,1.9,1,4.1,1.2,6.2c0.2,2,0.7,3.7,3.2,3.3
			c1.6,0.1,3.1-0.2,4.7-0.1c2.3,0.6,3.3-0.4,3.4-2.6c0.1-1.9-0.1-3.9,0.5-5.8c0.2-0.4,0.5-0.8,0.8-1.1c2.7,0.6,2,3,2.3,4.8
			c0.3,1.7-0.7,3.8,1.8,4.6c2,0.5,3.3,0.2,3-2.3c-0.2-1.7-0.1-3.3,1.3-4.5c1.4-0.6,1.8-2.8,3.8-2.5c1.6,2.1,1.8,4.4,1.4,6.9
			c-0.4,2.7,1.1,3,3.2,2.7c1.5,0.1,3.1-0.2,4.6-0.1c2.1,0.5,3.1-0.3,3.3-2.4c0.2-2-0.1-4,0.5-5.9c0.2-0.4,0.4-0.8,0.8-1.1
			c2.8,0.5,2,2.8,2.3,4.6c0.3,1.7-0.6,3.7,1.6,4.7c1.3,0.4,2.6,0.7,2.8-1.3c0.2-2.1,0-4.2,0.1-6.3c0-0.8,0-1.5,0.1-2.3
			c0.1-0.5,0.2-1,0.4-1.5c0.4-0.8,1-1.4,1.7-1.8c1.4-0.6,2.8-0.9,3.8,0.7c0.9,6.7,1,13.4,1.7,20.1c-0.1,1.7,0,3.5-0.5,5.1
			c-1.8,3-1.9,6.2-0.6,9.4C567,81.3,567.4,83.3,566.1,85.3z"/>
		<path class="st10" d="M369,115.9c2.3,0.8,1.3,2.8,1.3,4.2c0,18.8-0.2,37.5,0,56.3c0,3.5-1.2,4.2-4.3,4.2c-6-0.1-12,0.1-17.9,0.2
			c-2.8-0.5-2.3-2.9-2.4-4.7c-0.3-3.6,0-7.3-0.2-10.9c-0.1-2.4-1.1-3.7-3.6-3.7c-2.6,0-4,1.1-4.2,3.8c-0.2,3.1,0,6.3-0.2,9.5
			c-0.2,3.7-1.6,5.9-5.8,5.6c-5.9-0.4-11.9,0.4-17.9-0.4c-1.3-1.4-0.5-3.2-0.6-4.7c-0.1-16.8-0.2-33.5-0.3-50.3
			c-1.8-1.9-0.9-4.5-1.6-6.6c-0.1-0.8-0.1-1.5,0.3-2.2c0.4-0.6,1-1,1.7-1.3c1.4-0.2,1.9-1.9,3.3-2.2c4.9,3.6,10,2.8,15.1,0.6
			c0.8-0.3,1.3-0.9,2.2-0.5c9.4,3.8,19.2,2.4,28.8,2.3C364.9,115.1,366.9,115.3,369,115.9z"/>
		<path class="st11" d="M216.8,100.1c-6.7-4.8-14.4-2.4-21.7-2.8c-0.5-0.4-0.9-0.9-1.1-1.6c-0.1-4-1.8-8.4,2.4-11.6
			c1.9-0.8,3.9-0.8,5.9-0.8c31,0,61.9,0,92.9,0c2,0,4,0,5.9,0.7c3.8,2.7,1.6,6.9,2.4,10.3c0.3,1,0.6,2,0.9,3c0.2,0.5,0.2,1,0.2,1.5
			c-0.1,0.8-0.5,1.5-1.3,1.8c-1.5,0.5-3,0.5-4.5-0.3c-2-5-5.7-7-11.2-6.9c-3.4,0.1-7-0.1-10.4-0.4c-2.9-0.3-5.8-1-5.7,3.6
			c0,1.8-1.8,2.3-3.3,2.2c-2.3-0.1-3.9-1.2-3.9-3.6c0-1.5-0.5-2.1-2.1-1.9c-2.4,0.3-5.1-0.9-7.3,0.7c-0.8,0.6,0.2,1.5,0.6,2.1
			c1.3,1.8,0.8,3-1.1,3.6c12-0.7,12.1-0.7,12,11.4c0,3.3,0.6,6.6-0.4,9.9c0.1,0.3,0,0.6-0.2,0.8c-3.4-1.9-5.1-4.8-4.4-8.7
			c0.6-3.2-0.3-5.8-2.9-7.6c-0.9-0.2-1.8-0.3-2.7-0.3c-2.6,0.1-5.2-1.4-7.9,0.1c-0.1,2,3.8,4.2,0.5,5.9c-3.7,1.9-5.2-1.4-6.8-4
			c0.9,2,1.9,3.7,4,4.7c4.1,2.4,8.5,4.2,12.6,6.7c0.5,0.6,0.6,1.2,0.6,2c-0.7,2.3-1.5,4.7-1.2,7.2c-0.4,3.5-0.5,7.1-4.9,8.2
			c-5.7,0.8-11.2-0.9-16.7-1.1c-4.5-3.4-4.5-3.8,0.1-6.6c0,0-1-0.6-1.3-1.2c-0.3-1.1,0.2-1.9,1-2.6c1.3-0.8,2.7-1.2,4.1-1.5
			c1.9-0.4,4.1-0.2,4.8-2.7c0.5-1.8-0.1-3.2-1.5-4.4c-1.8-1.5-3-0.9-4.8,0.3c-4.3,3.1-8,1.4-8.6-3.6c-1.3-5.6-4.6-9.1-10.4-10
			c-0.8-0.1-1.5-0.7-1.6-1.7c4.9-2.2,10.1-0.3,14.3-1C227.6,100,222.2,100,216.8,100.1z"/>
		<path class="st12" d="M556.9,96.9c-30.4,0.1-60.8,0.1-91.2,0.2c-17.6,0-35.2-0.1-52.8-0.2c-2.8-0.3-5.1-0.8-4.6-4.6
			c0.3-2.4,1.3-3.2,3.4-3.2c16.3-0.1,32.6,0,48.9,0c4.5,3.4,9-0.3,13.5-0.2c16,0.4,32,0.1,47.9,0.1c11.3,0,22.6,0,33.9,0
			c1.9,0,4.1-0.3,4.3,2.8C560.6,94.5,560.3,96.7,556.9,96.9z"/>
		<path class="st13" d="M244,160c-1.9,1.6-2.7,4.5-5.7,5.1c-1.8,0.4-0.4,1.9-0.5,2.9c-0.4,4.5-1,9.1-5.1,12.1
			c-6-1.3-12-2.9-17.7-5.1c-3.3-1.9-2.3-3.5,0-5.5c1.7-1.6,5.6-3,1.9-6.4c-0.4-0.6-0.5-1.2-0.3-1.9c0.2-0.4,0.5-0.9,1-1
			c1.8-0.3,2.1-1.1,0.9-2.4c-0.1-0.7-0.1-1.3,0.3-1.9c0.5-1,2.6-0.3,2.3-2.1c-0.3-0.8-0.5-1.7,0.4-2.3c2-0.8,4.1-1.2,5.9-2.2
			c4.7-1,9.4-0.4,14.2,0.3c-4.3-1.1-8.6-0.5-12.6-2c-0.8-0.7-1.4-1.5-1-2.6c5-2.3,10.1,0.5,14.8-0.2c-3.7-0.6-7.8,0.1-11.7-1.4
			c-0.6-1.2,0.1-2,0.9-2.7c4.1-1.9,8.7,0.1,12.9-1.5c2.5-1.5,4.7,0.7,7.1,0.6c0.3,0.3,0.6,0.6,0.7,1.1c0,0.2,0,0.4,0,0.6
			c-0.1,0.4-0.3,0.8-0.5,1.2c-0.7,1-0.3,2.2-0.4,3.2c-0.3,3.2,2.8,0.9,3.6,2.2c0.2,0.4,0.1,0.9-0.1,1.3c-0.7,1.9-1.5,3.8-2.2,5.7
			c-4.2,2.5-2.5-2.4-4.1-3.5c-2.2,1.7-2.4,4.1-2.4,6.5C246.5,159.6,246.4,161.1,244,160z"/>
		<path class="st14" d="M369,115.9c-9.6,0.2-19.2,2.1-28.7-0.3c-0.8-0.2-1.6-0.4-2.4-0.3c-3.2,0.6-3.2,0.7-4.8-1.8
			c-1.9,4.3-5.8,1.6-8.6,2.5c-3.7,1.2-6.8,1.3-8.3-3c-4.2-7.8-1.4-11.7,8.1-11.5c3.4,0,6.9,0,10.3,0c2.5,0,5.1-0.1,7.6-0.2
			c1.5,0,2.9,0.3,4.4,0.3c3.1,0.1,6.2,0.2,8.4-2.7c0.5-0.7,1.5-0.4,2.3-0.1c2.1,0.8,7-2.1,5.4,3.8c9.4,0.8,4,8.6,6.1,12.8
			C368.8,115.7,368.9,115.8,369,115.9z"/>
		<path class="st15" d="M718.6,54.2c0.1,0.3,0.2,0.6,0.2,0.9c-12.3,0.5-24.7,0.4-37,0c-4-3.4-9-2.8-13.6-2.9
			c-13-0.3-26.1,0.2-39.2-0.2c-1.3-0.4-2-1.3-2.1-2.7c0-0.9,0.2-1.8,0.9-2.5c1.4-1,3.1-1.1,4.8-1c16.3,0.6,32.6-0.9,48.9,0.5
			c2.1-0.8,1.9-2.3,1.1-4c-0.1-0.4,0-0.8,0.3-1.1c2.4-0.7,7-0.2,8,1c0.9,2.7,3.1,2.4,5.3,2.6c3.9,0.4,8-1.2,11.6,1.3
			c2,0.1,3.9,0.2,5.9,0.2c3.8,0.1,6.1,1.4,4.8,5.7c-1.4,1.6-3.4,1-5.1,1.1c-6.1,0.1-12.1-0.2-18.2,0.5c6.2-0.8,12.5-0.4,18.7-0.4
			C715.6,53.1,717.4,52.7,718.6,54.2z"/>
		<path class="st16" d="M402,85c-10.8,0.1-21.6,0.2-32.4,0.2c-2.7,0-5.2,0.4-7.6,1.6c-2.4-1.4-5-0.4-7.5-0.7
			c-2.6,0.5-5.1,0.3-7.7,0.3c-2-0.4-3.6,1.5-5.6,1.1c-1.2-0.4-2.3-1-3.6-1.1c-3.9-0.4-7.8,0.8-11.5-1c-0.9-0.9-1-2-0.6-3.1
			c2.2-2.8,5.4-3.3,8.5-2.9c5.8,0.8,11.5,0.3,17.3-0.3c1-0.1,2-0.3,2.9,0.1c6.5,2.8,12.3,1.2,17.7-2.6c2.7-0.8,5.1-1,7.9,1
			c2.8,2,14.1-1.7,17.4-5c1-1,1.6-2.6,3.3-2.8c1.9,1.1,1.8,3.1,1.7,4.8C402,78.1,402.6,81.5,402,85z"/>
		<path class="st17" d="M266.1,121.1c0-5.5-0.2-11,0-16.4c0.1-2.8-1-3.7-3.8-3.7c-4.2,0-8.4,0.6-13.2-0.6c2.1-2.2,4.6-0.7,6.5-2
			c-0.2-0.4-0.2-1-0.5-1.1c-1.6-0.6-3.3-1.3-2.6-3.5c0.6-2,2.6-1.7,4.2-1.8c3.2-0.1,6.5,0.8,9.4-1c1.5,1.6,0,2.3-0.4,3.2
			c-0.6,1.2-0.4,2.3,0.6,3.1c1.2,0.9,2.6,0.9,3.8,0.4c1.4-0.6,0.8-1.7,0.4-2.9c-1.4-3.9,2-3.8,3.8-3.5c5.7,1,11.4,0.5,17.2,0.8
			c4.4,0.2,7.3,3.2,7.8,7.7c-2.2,2-4.4,1.9-6.4-0.3c-0.5-1.1,0.1-2.5-0.9-3.5c-1.7,0.8-0.7,2.4-1.3,3.5c-1.4,2.2-3.7,1.8-5.8,1.9
			c-4.3,0.2-8.6-0.2-12.9,0.1c-0.3,0-0.5,0.1-0.8,0.1c-0.5,0.1-1,0.2-1.6,0.1c-0.5-0.1-1-0.4-1.4-0.7c-2.4,1.2-1,3.4-1.1,5.1
			C266.4,111.1,267.9,116.2,266.1,121.1z"/>
		<path class="st18" d="M644,79.1c-8.6,1.5-17.2,0.3-25.8,0.6c-2.8,0.1-5.7,0.3-8.5,0c-2-0.2-2.9,0.9-3.8,2.3
			c-2.3-3.8-1.9-7.6-0.4-11.5c0.9-1,2.1-1,3.2-0.8c9.3,1.6,18.6,0.7,27.8,0c0.8-0.1,1.7,0,2.5-0.1c3.9-0.2,6.1,1.2,5.4,5.5
			C644.2,76.5,644.6,77.8,644,79.1z"/>
		<path class="st19" d="M605.9,70c0,4,0,8,0,12c-2.5,1.5-5.4-0.4-7.8,1.1c-2.9,0.8-5.9,0.3-8.9,0.4c-5.3,0.1-5.5-0.2-5.6-5.7
			c-0.1-3,0-6,0-8.9c0-2.1-0.2-4.3,1.6-5.9c2.4,0,2.1,2.2,2.8,3.5c0.1,0.5,0.2,1,0.3,1.5c0,3.8,2.2,4.3,5.2,3.2
			c2.6-0.9,5.6-1.6,4.2-5.6c0.2-3.2-1.5-4.3-4.5-4.2c-2.3,0.1-4.6,0.1-6.8-0.1c-0.8-0.1-1.6-0.4-2.3-0.9c-0.4-0.5-0.6-1-0.5-1.6
			c1.2-2.5,3.5-2,5.6-2.1c2.8-0.1,5.6-0.1,8.4,0.1c2.6,0.9,5.5,0.5,8,1.6c0.7,0.4,1,1.1,1,1.9c-0.2,2-1.6,3-3.3,3.9
			c-2.3,1.1-3,2.5-0.4,4.2c0.4,0,0.8,0,1.3,0.1c0.6,0.1,1.2,0.4,1.6,0.9C605.8,69.6,605.8,69.8,605.9,70z"/>
		<path class="st20" d="M644,79.1c-0.1-8.7-0.7-8.7-9.4-7.8c-9.5,0.9-19.2,2.1-28.6-1.2l0,0c-2.5-6.1-1.2-8.1,5.4-8.3
			c4.4-0.1,9,0.8,12.9-2.1c1.9-1.4,0.5-4.9,3.5-5.6c0.5,8,0.5,8,8.8,8c7.3,0,7.4,0,7.9,7.1C644.6,72.4,646,75.8,644,79.1z"/>
		<path class="st21" d="M627.8,54c-1.6,1.7,0.1,4.5-2,6c-2.6,0.3-4.9,0.4-7.7,1.9c-3,1.7-8.4,2.2-12.3-0.9c0-0.6,0-1.3,0.1-1.9
			c-0.9-2.3-3-1.4-4.6-1.7c-4.4-0.8-5.1-2.1-3.3-6.8c5.6-1.8,11.3-2,17.1-1.9c2.9,0,6,0.5,8.7-1c1.5-0.5,2.7,0.5,3.8,1.2
			c0.4,0.8,0.8,1.6,1.2,2.3c0.7,1.1-0.5,1.4-0.9,2.1C627.9,53.4,627.8,53.7,627.8,54z"/>
		<path class="st22" d="M313.8,180c5.6-0.1,11.3-0.4,16.9-0.1c4.3,0.2,5.6-1.5,5.3-5.5c-0.3-3.5,0.1-7-0.1-10.5
			c-0.4-4.7,2.7-4,5.5-4c2.7,0,5.9-0.9,5.6,3.8c-0.3,4.1-0.1,8.3-0.1,12.5c0,1.6-0.6,3.4,1,4.7c-3,2.6-7,1.8-9.9,1
			c-7.1-2-14.1-0.7-21.1-1.2C315.9,180.6,314.7,181.1,313.8,180z"/>
		<path class="st23" d="M521.9,90c-15.3,0-30.6,0-45.9,0.1c-3.3,0-6.8-0.9-9.6,2.4c-1.1,1.3-3.7,0.8-5.5,0.2c-0.4-1.8,2-1.1,2-2.6
			c-16.1,0-32.2-0.1-48.3,0.1c-2,0-4.8-1.5-5.5,2.3c-0.7,3.6,2.3,3.3,4,4.5c-3.1,0.7-5.6,0.5-4.9-3.8c0.3-2,0.1-3.5-2.6-3.4
			c-2,0.1-1.8-1.4-1.4-2.7c1.9,1.3,4.1,1,6.3,1c36.9,0,73.8,0,110.6,0C521.5,88.6,522.6,88.9,521.9,90z"/>
		<path class="st24" d="M346,85.1c3,0,6,0,9,0c0.6,0.7,0.6,1.4,0,2.1c-1.2,1.4-4.6-0.3-4.4,2c0.2,2.4,3.1,1.4,5,1.6
			c3.1,0.3,6.3-0.1,8.8,2.6c-4,3.9-9.8,0.8-14.3,3.6c2.3,2.2,5.1,0.6,7.2,1.9c-2.6,4.6-6.9,4.6-11.3,4.1C344.3,97,344,91,346,85.1z"
			/>
		<path class="st25" d="M584.8,68c0,3.6,0.2,7.3,0,10.9c-0.2,2.9,0.7,4.2,3.9,4c3.1-0.2,6.3,0.1,9.4,0.2c-8.8,0.8-17.6,2.4-26.5,2.1
			c-1.8-0.1-3.6,0.1-5.4,0.1c0.8-3.9-3.2-6.7-2.3-10.7c0.4-1.7,0.1-3.6,2-4.7c1.8,1.1,2,3.1,2.8,4.8c0.6,2.7,2.6,4,5.1,4.6
			c3.1-0.2,6.4-4.3,9.3,0.9c-0.4-3.1-0.5-5.8-0.3-8.5C582.9,70.3,582.3,68.2,584.8,68z"/>
		<path class="st2" d="M258,121c0-0.7,0-1.4-0.1-2.2c-3.5-3.7-8.1-5.1-12.9-5.9c-3.2-1.8-4.8-4.7-5.9-8.7c3.1,0.4,3.6,3,4.8,4.6
			c1.2,1.7,2.8,3,4.4,1.4c1.8-1.7-0.7-2.3-1.6-3.2c-2.1-2-1.4-2.5,1.1-3.4c3-1.1,5.5,0.8,8.2,0.3c0.5,1.4-0.6,2.2-1.4,2.9
			c-2.9,2.5-1.3,3.7,1.2,4.8c2.4,1.1,3.1,0.2,2.7-2.1c-0.4-1.9-1.2-3.8,0.5-5.6c3.2,2.5,5,5.6,3.5,9.8c-1.4,3.8,2.9,5.1,3.3,8.1
			c-0.4,1-0.7,2-1.1,3c-0.4,0.3-0.8,0.2-1.2-0.2c-0.9-1.8-0.9-4.7-4.3-3.4C258.8,121.5,258.4,121.3,258,121z"/>
		<path class="st26" d="M402,85c-1.9-2.8-1-5.9-1.1-8.9c-0.1-2,0.8-4.2-0.9-6c-0.4-0.2-0.7-0.6-1-0.9c-1.1-3.2-4.6-2.4-6.7-4
			c-2.3-3.3,0.7-4.1,2.5-5.5c1.6-1.1,3.9-0.3,5.3-2c1.2-3.7,0.4-7.8,2.6-11.3c0.4-0.4,0.9-0.4,1.3,0c-0.1,13-0.1,26.1-0.2,39.1
			C403.2,85.3,402.6,85.1,402,85z"/>
		<path class="st27" d="M627.9,53.2c0.3-0.7,0.6-1.4,0.9-2.1c14.8,0,29.6-0.1,44.4,0c2.8,0,5.6,0.6,8.3,1c4.1,0.6,0.8,1.9,0.3,3
			C664,51.8,645.9,53.7,627.9,53.2z"/>
		<path class="st28" d="M312,118c1.8,2.1,0.8,4.7,0.9,7c-3.9,5.1-9.2,5.5-15.1,5.1c-5.6-0.4-11.3-0.4-16.9,0
			c-5.5,0.4-9.2-1.6-11.8-6.2c0.4-0.8,0.9-1.4,1.9-1.2c4.5,3.7,9.8,4.2,15.4,3.9c3.6-0.2,7.3-0.4,10.9,0
			C304.6,127.5,309.5,124.9,312,118z"/>
		<path class="st29" d="M521.9,90c-0.3-0.7-0.7-1.3-1-2c13,0,26.1,0,39.1,0c2,0,4,0.2,5.7-1c-2.4,3.2-6.5,5.3-6.4,10.1
			c-0.8-0.1-1.6-0.1-2.4-0.2c2.1-1,3.5-2.4,2.8-5c-0.7-3.1-3.2-1.9-4.9-1.9C543.9,90,532.9,90,521.9,90z"/>
		<path class="st30" d="M264.2,124.9c0.2,0,0.4,0,0.6,0c-2.9,8.2-5.8,16.4-9.6,24.3c-0.1-0.3-0.1-0.7-0.2-1c-1-1.3-3.2-0.7-4.1-2.4
			c1.4-1-4.2-3.9,1.1-3.9c0.3,0.3,0.7,0.6,1.1,0.8c-0.2-0.6-0.9-0.3-1.1-0.8c0.1-0.4,0.1-0.8,0.2-1.2c2.3-2.4,5.4-4,6.5-7.6
			c0.8-2.5,0.5-4-1.7-5.2c-0.9-2.5-1.2-4.9,1-7c0.3,0,0.7,0,1,0C260.6,122.5,261.9,124.3,264.2,124.9z"/>
		<path class="st31" d="M244,160c2-0.3,1.2-1.2,1.1-2.6c-0.1-2.5-0.4-5.9,2.8-7.1c1.8-0.7,4.9-1.3,3.1,2.8c-1.1,2.4,0.8,1.8,2,1.9
			c-0.5,2.6-1.4,5-2.8,7.2c-2.2-1.2-3.9-1.3-4.2,1.8c-0.7,0.5-1.3,0.5-1.9-0.1C244,162.6,244,161.3,244,160z"/>
		<path class="st32" d="M270.1,122.9c-0.3,0.4-0.7,0.7-1,1.1c-0.2-7.7-1.6-15.3-1-23c0.3-0.1,0.7-0.1,1,0c2.5,3.1,0.6,7,2.1,10.3
			C271.3,115.2,272.5,119.2,270.1,122.9z"/>
		<path class="st33" d="M355,87.1c0-0.7,0-1.4,0-2.1c2.3,0.6,5.4-1.7,7,1.7C359.7,87.2,357.3,87.8,355,87.1z"/>
		<path class="st34" d="M196.1,85.1c-1.9,3.5-0.6,7.3-1,10.9c-4.2-1.7-1.4-5-1.9-7.4c0.7-0.6-0.5-0.4,0.1-0.2
			c0.3,0.1,0.2,0.2-0.1,0.5c-1.6,1.7-3.6,1.4-5.6,1.2c-1.8-0.2-3.6-0.5-5.4,0.4c-0.7,0.4-1.6,1-2.3,0.2c-4.9-5.6-11.5-2.6-17.3-3.3
			c-10.9-0.1-21.9-0.5-32.7,0.4c-5.4,0.5-10.3,2.6-16,0c-3-1.4-3.4,3.2-4.7,5.3c0,6.2,0,6.2-8.1,5.8c-1.4-1.1-2.7-2.4-4.1-3.7
			c-7-6.5-14.5-6.1-21.8,0.2c-5.6,4.8-10.4,10.8-17.3,14.1c-1.9,0.9-2.8,2.8-3.6,4.6c-2.8,6.7-7.1,12.4-11,18.4
			c-1.5,2.3-3.2,4.7-5.7,6.2c-3.2,2-3.8,4.8-2.7,8.2c-2.9,6.6-9.1,3.7-13.9,4.9c-1.4-1.1-2.1-2.5-2.1-4.2c0-2.3-1.1-4-2.8-5.4
			c-1.7-11.8-5.2-23.4-4-35.5c1.7-2.4,3-2.5,3.9,0.6c0.4,1.3,0.3,2.6,1.1,4.4c0.8-2-0.7-4.8,2.1-5.2c2.7-0.4,4.2,1.7,5.6,3.5
			c2.1,2.8,2.4,6,2.1,9.4c0.5-6.3,2.4-8.6,8.2-9.7c1.8-0.3,3.8-0.6,5.1-1.8c4.7-4.5,11.2-6.2,15.4-11.4c3.8-4.8,10.3-5.9,15.3-9.1
			c3.2-2.1,6.9-3.3,10.3-5.1c2.3-1.3,4.7-1.3,7.3-0.8c3.6,0.8,7.2,1.2,10.9,1.2c4.7-2.2,7.1-6.2,8.8-10.9c0.8-0.2,1.5-0.1,2.2,0.5
			c1.2,1.7,0.9,3.6,0.9,5.5c0,1-0.1,2.1,0.2,3.1c0.9,1.1,2.1,0.9,3.2,0.9c22-0.1,44.1,0.2,66.1-0.1c1.5,0,3-0.2,4.4-0.4
			C189.5,80.9,193.6,80.7,196.1,85.1z"/>
		<path class="st35" d="M100.1,84c-2.4-0.2-5.1,0-7.3-0.8C86.6,81,81.3,83.3,75.9,86c-5,2.5-9.7,5.7-14.9,7.8
			c-2.4,0.9-4.5,2.7-5.9,5.1c-1.3,2.2-2.9,3.9-5.8,4.2c-2.3,0.2-3.4,2.2-5,3.7c-2.1,2.1-4.9,3.4-7.9,4c-7.1,1.3-8.6,3.4-7.4,10.5
			c0.1,0.6-0.1,1.3-0.3,2.3c-3-1.4-2.6-3.7-2.6-5.9c0-3.9-1.3-7.1-4.3-9.6c-0.8-0.6-1.6-1.4-2.6-0.9c-1.3,0.7-0.3,1.7-0.2,2.6
			c0.1,1.6,1,4.1-0.7,4.4c-2.4,0.4-2.3-2.5-3.1-4.2c-0.6-1.4,1.8-4.3-2-4c-0.6,0.3-1.1,0.2-1.5-0.3c-2.1-7.2-2.5-14.6-3.4-22
			c-1-8-2.8-16-3.8-24c-0.7-1.3-1.7-2.4-2.2-3.8c0-0.2,0-0.5,0-0.7c1.2-4,1.7-7.8-1-11.5c3.5-1,0.8-4.9,3-6.6c1.4-1,2.1,0,2.7,1.1
			c1.7,9.9,3.4,19.9,4.4,29.9c0.8,10.8,2.6,21.5,4.8,32.1c1.1-2.2-1.7-5.1,1.4-6.6c2.8-1.3,3.8,2,5.7,3c1,0.5,1.9,1.2,4.1,1.7
			c-4.7-4.7-1.5-9.2-1.3-13.6c0.1-1.4,1.3-2.9,2.6-2.2c4.5,2.3,9.2-0.6,13.7,1c1.6,0,3.4-0.2,4.9,0.2c4.6,1.1,7.9,0.2,10.8-4.2
			c1.9-2.9,5.9-3.3,9.4-1.9c1.6,0.7,3.1,1.9,5.1,1c2.2-1.4,4.4-2,7.1-1.4c2.9,0.7,5.9,0.2,8.9-0.2C94.6,76.4,98.3,78.7,100.1,84z"/>
		<path class="st36" d="M35,146.9c-2.6-2.7-2.6-7.1,0.6-8.4c3.3-1.3,5-4.1,6.6-6.5c4.3-6.5,9.1-12.7,11.8-20.1
			c0.3-1,0.5-2.1,1.5-2.5c8.3-3.7,13.7-11.1,20.7-16.4c10-7.6,20.6-2.9,24.9,5.9c-7.5-1-13.5,2.2-19,6.7c-0.4,0.3-0.8,0.6-1.2,0.9
			c-16.5,9.4-30.3,21.9-42,36.8C37.8,144.7,36.3,145.7,35,146.9z"/>
		<path class="st37" d="M109.2,93.2c0.1-2.4-1.3-5.6,1.7-6.6s6.7-1.6,9,2c1.1,1.7,2.3,1.9,3.4,0.1c1.4-2.4,3.5-2.6,6-2.6
			c11.3,0.1,22.6,0,33.9,0c1.2,0.9,2.6,0.2,3.9,0.6c1.9,1.2,1.9,2.8,1.1,4.6c-4,1.5-8.2,0.9-12.3,0.9c-13.8,0.1-27.5,0-41.3,0
			C112.6,92.2,110.7,91.7,109.2,93.2z"/>
		<path class="st38" d="M12.1,106c0.3,0,0.7,0,1,0c-0.5,9.9,2.1,19.5,3.2,29.2c0.3,2.6,0.5,5.1,0.8,7.7c1.3,2.9,1.4,6,1.2,9.1
			c-2.3,0.7-4.7,1.7-7,0c-0.2-5.8,0.7-11.7-2-17.2c0-0.3,0-0.6,0-0.9c2.1-3.6,0.6-6.8-1-10.1c0-0.3,0-0.5,0-0.8
			c1.8-3.3,0.6-6.7,0-10C8.7,110.3,10.1,108,12.1,106z"/>
		<path class="st39" d="M167.1,87c-1.4-0.2-2.9,0.4-4-1c5,0,10.1-0.5,15,0.9c0.2,0.1,0.7-0.3,0.9-0.2c2,0.8,9.4,2.1,11.1,2.3
			c1.8,0.1,2.7-0.9,3.6-2.1c1.4,2.9-0.8,6.3,1.4,9c0,0.4,0,0.9,0,1.3c-5.5,1.5-10.8,2.3-14.9-3.1c-0.8-1-2.1-1.5-3.1-2.3
			C173.7,90.3,170.3,88.9,167.1,87z"/>
		<path class="st40" d="M12.1,106c0.4,3-3.3,4.2-3.1,7.1c-0.7,0.5-1.3,0.5-1.7-0.3c2.3-4.5,0.8-8.6-1.1-12.6c1.7-3.6,1-7-1-10.2
			c0-0.6,0-1.2,0-1.7C7,85,6,82,4.2,79.1c0-0.3-0.1-0.6-0.1-0.9c1.8-3.9,0.8-7.5-0.9-11.1c0-0.6,0-1.1,0-1.7
			c1.9-2.1-0.3-5.2,1.9-7.2C6.7,67.8,9,77.4,9.8,87.1C10.4,93.4,12.7,99.5,12.1,106z"/>
		<path class="st41" d="M229.9,112.8c3,4.8,5.5,5.4,8.4,2.4c0.9-1,1.2-4.1,3.4-1.8c1.7,1.8,5.5,1.9,4.8,6.1c-0.7,4.3-3,5.1-6.6,4.5
			c-1.3-0.6-1.7-3.1-3.9-1.6c-1.6,1.1-0.4,1.8,0.1,2.7c-0.3,0.6-0.7,1.2-1,1.8c-0.9,1.2-2.1,1.1-3.4,0.9c-1.7-1.3-3.9-1-5.7-1.8
			C228.7,122,228.7,117.2,229.9,112.8z"/>
		<path class="st42" d="M217,161c0,0.6,0,1.2,0,1.8c-0.1,0.2-0.3,0.4-0.4,0.6c-1.9,1.5-5.4-0.3-6.5,3c-1.3,2.4,0,7.2-5.4,5.7
			c-4.9-0.4-5.5-2.4-2.7-6.4c2.9-4.1,5.3-8.5,7.9-12.8c0.7,0.1,1.2,0.5,1.6,1c0.8,1.6,5.4,0.9,2.6,4.5c-0.3,0.4-1.5,0.7-0.2,1.2
			C215,160,216.3,159.9,217,161z"/>
		<path class="st43" d="M211.8,149.9c3.7-6.4,7.4-12.7,11.2-19.1c0.4,0.2,0.7,0.4,1,0.8c0.7,1.5,3.3,1.3,3.4,3.5
			c-0.4,1.1-1.2,1.9-2.2,2.5c-1.3,0.4-2.5,0.3-3.6-0.4c1.1,0.7,2.9,0.7,2.9,2.6c0.1,1.2-2,1.8-0.8,3.2c-2.2,4.4-4.3,8.9-10.6,7.9
			C212.5,150.6,212.1,150.3,211.8,149.9z"/>
		<path class="st44" d="M217.1,162.8c3.3,0.1,4.3,1.3,2,4.1c-1.1,1.2-2,2.9-3.3,3.5c-2.8,1.4-2,2.8-0.7,4.5c-1.4,0-2.8-0.3-4-1.1
			c-1.9-1.1-1.2-2.4-0.1-3.6c1.1-1.2,2.6-2,3.2-3.6c0.6-1.5,1.7-2.6,2.9-3.6L217.1,162.8z"/>
		<path class="st45" d="M216.8,100.1c7.1-1.9,14.2-1.1,21.3-0.8c0,0.6,0,1.1,0,1.7c-6.7,0-13.5,0-20.2,0
			C217.5,100.7,217.2,100.4,216.8,100.1z"/>
		<path class="st46" d="M211.8,149.9c0.5,0.1,1,0.1,1.4,0.2c2.5,1.3,5.9-1.5,7.9,1.9c0.3,0.6,0.6,1.3,0.9,1.9
			c-0.3,1.7-3.6-0.9-2.9,2.1c0,0.6,0,1.2-0.1,1.8c-1.7,1.5-3.4,1.5-5.1,0c0.9-1.7,0-2-1.4-1.9s-2.4-0.2-1.4-1.9c3.4-1,0.1-2,0-3.1
			C211,150.4,211.2,150,211.8,149.9z"/>
		<path class="st11" d="M223,132c0-0.4-0.1-0.8-0.1-1.2c1-1.6,2-3.2,3-4.8c1.8-0.4,4-2.7,5.1,1c0.4,1.1-3.7,1-0.8,3.2
			c0.8,0.6-1.3,2.2-2.7,2.8C225.9,133,224.3,133.2,223,132z"/>
		<path class="st47" d="M9.2,134.9c1.4,0.7,2.7,1.5,2.7,3.2c-0.1,4.7,1.4,9.4-0.7,14C9.7,146.5,9.7,140.7,9.2,134.9z"/>
		<path class="st48" d="M167.1,87c4,0.2,7.6,1.4,10,4.9c-3,0.2-6.1,1-9.1-0.7C167.7,89.9,167.4,88.5,167.1,87z"/>
		<path class="st49" d="M215,166.9c0,1.7-1,2.5-2.3,3.2c-1.4,0.8-2.8,1.7-1.6,3.7c-2.2-0.3-4.3-0.6-6.3-1.8c5-0.2,2.7-4.8,4.3-7.1
			C211,165.7,212.9,166.6,215,166.9z"/>
		<path class="st10" d="M18.3,152.1c-1.7-2.9-2-5.9-1.2-9.1c2.7-1.1,2.6,1.2,2.9,2.6c0.5,2,0.7,4.2,1.1,6.3
			C20.1,151.9,19.2,152,18.3,152.1z"/>
		<path class="st50" d="M1.3,43.7c3.7,2.3,4.2,8.7,1,11.5c-0.4-3.4-0.8-6.7-1.2-10.1C1.1,44.7,1.2,44.2,1.3,43.7z"/>
		<path class="st51" d="M3.3,66.9C7,69.7,7.4,74.8,4.2,78C3.9,74.3,3.6,70.6,3.3,66.9z"/>
		<path class="st52" d="M5.3,89.9c3.6,2.3,4.1,7.7,1,10.2C5.9,96.7,5.6,93.3,5.3,89.9z"/>
		<path class="st53" d="M7.4,112.8c0.6,0.1,1.1,0.2,1.7,0.3c0.5,3.4,3.3,7-0.8,10C7.9,119.7,7.7,116.2,7.4,112.8z"/>
		<path class="st54" d="M8.2,123.9c3.7,3.4,4,7.3,1,10.1C8.9,130.6,8.5,127.3,8.2,123.9z"/>
		<path class="st55" d="M5.2,58c-1.2,2.2,2.2,5.7-1.9,7.2c-0.3-3.1-0.6-6.2-1-9.3C3.2,56.7,4.7,56.7,5.2,58z"/>
		<path class="st56" d="M4.3,78.9c3.7,2.6,4.1,6.5,1,9.2C4.9,85.1,4.6,82,4.3,78.9z"/>
		<path class="st57" d="M211.1,151c1.4,0.5,2.9,1,4.4,1.5c-1.1,2-2.9,1.3-4.4,1.6c-0.4-0.4-0.7-0.8-1.1-1.2
			C210.3,152.2,210.7,151.6,211.1,151z"/>
		<path class="st58" d="M433.9,50.1c-0.9,0.3-1.9,0.7-2.8,1c-1.3-1.1-2-3.2-4.3-2.9c-1.8,0-3.5-1.4-5.4-0.5
			c-1.4,0.6-2.8,0.6-4.2-0.1c-1.7-1.7-0.2-2.8,0.8-3.9c0.1-0.3,0.4-0.7,0-1c-0.2-0.2-0.5,0-0.7,0.2c-0.9,1.2-1.5,2.8-3.4,2.8
			c-3.2-1.6-2.2-4.4-1.9-7c0.2-0.5,0.6-0.9,1-1.3c0.6-0.1,1.2-0.2,1.8-0.3c1.6-5.1,2.1-5.5,6.7-3c2.8,1.5,5.3,1.7,8,0.1
			c2.2-1.3,4.4-1.3,6.6-0.1c2.8,1.6,5.6,1.7,8.4-0.1c1.8-1,3.8-1.4,5.8-0.8c3.1,1.5,6.1,3.7,9.5,0.7c1.6-1,3.6-1.6,5.1-0.7
			c4.5,2.8,8.7,1.4,13-0.5c8.2-0.2,16.5-0.2,24.7,0c4.6,1.4,9.2,4,14,0.5c0.2-0.2,0.7-0.3,1-0.1c5.7,3.3,11.3,0.8,17-0.1
			c4,2.1,7.9,3.1,12,0.1c1.4-1,3.3-0.5,4.7,0.4c3.3,2.2,6.4,1.9,9.6-0.2c1.5-1,3.2-1.8,5-0.3l0,0c3.5,1.6,7.3,1.1,10.9,2.1
			c4,0.7,8,1.4,11.9,2.1c5.1,2.4,1.1,3.4-0.7,4.8c-6.6,0.4-13.2-1-19.8-0.6c-3-0.4-5.5,0.2-6.4,3.6c-0.3,0.3-0.7,0.7-1,1
			c-3.6,2.7-7.7,0.4-11.6,1.2c-2.7,0.6-5.6,0.1-8.4,0.1c-0.5,0-1.1-0.1-1.6-0.2c-1.8-0.1-3.6,0.3-5.4,0.5c-1.1,0.1-2.1-0.2-3.1-0.2
			c-7.2,0.1-14.4-0.7-21.5,0.4c-1.1,0.3-2.1,0.3-3.2,0.1c-4.3-1.2-8.8-0.7-13.2-0.8c-0.8-0.1-1.6,0-2.4,0.2
			c-9.9,0.2-19.9-0.2-29.8-0.1c-1.9-0.2-3.8,0.1-5.7,0.5c-1.1,0.4-1.7,1.1-1.7,2.4c-0.1,2.1,0,4.1,0,6.2c0.1,1-0.2,1.9-0.3,2.8
			c-2,5-0.5,10.2-1,15.2c-0.2,2.2,0.9,4.7-1,6.7c-1.7-1.7-1.6-3.8-1-5.8c0.5-2,1-4,0-6.1c-0.5-3.4,1.3-7.3-2.1-10.2
			c-2-2.5-1.1-5.5-1.4-8.2c0.3-1.9-1.1-2.5-2.4-3.1c-1.8-1-3.5,0.4-5.2,0.3C436.7,47.5,435.2,48.6,433.9,50.1z"/>
		<path class="st59" d="M177,27.3c0.2-0.2,0.5-0.3,0.9-0.2c4.2-1.1,8.7-1.1,12.9-2.2c2.7,2.2,3.4,7.5,1.4,10.8
			c-1.9,3-4.1,1.6-6.3,0.5c-0.1-0.1-0.2-0.3-0.3-0.4c-1.1-1.6-0.4-5-3.6-4.5c-3.1,0.5-2.3,3.6-2.7,5.7c-1.2,1.7-3.2,2.2-5.4,3.6
			c6.4,0.5,12.3-0.1,18.1,0.3c0.8,0.1,1.5,0.4,2.1,0.8c0.7,0.8,0.8,1.8,0.6,2.8c-0.2,0.8-1,1.4-0.9,2.2c0.1,3.9-1.3,4.1-4.2,2.1
			c-3.3-2.3-4.2,1.9-6.4,2.7c-0.7,0.3-1.4,0.3-2.1,0.1c-0.6-0.3-1.1-0.6-1.6-1c-1.6-1.4-3.3-2.6-4.9-0.4c-1.8,2.3-0.4,3.9,1.7,5
			c1.3,0.7,2.9,0.4,4.2,0.9c2.2,0.8,2.3,2,0.6,3.5c-1.5,0.8-3.1,0.8-4.7,0.7c-1.4-0.1-2.6-0.4-3.6-1.4c-2.3-2.8-3.4-6.8-7.8-7.4
			c-12.6,0.1-25.1-0.1-37.6,0c-3.8-0.1-7.5,0.2-11.3-0.2c-4.4-0.5-5.3-2.4-3.2-6.6c5.3-2.2,10.8-1.1,16.2-1
			c12.6,0.1,25.2-0.4,33.5-0.1c-5.9-0.1-16.2,0-26.4,0c-2.1,0-4.3,0.2-6.4-0.7c-0.8-0.4-1.1-1.1-1.1-2c3.6-2.8,7.9-1.4,11.9-2.2
			c4.2-0.9,8.9,0.8,12.4-2.9c2.7-2.3,6.2-0.8,9.2-1.8c1.2-0.1,2.3-0.1,3.4,0.2c3.6,1.3,6-0.3,8-3.1C174.4,29.7,175.3,28.1,177,27.3z
			"/>
		<path class="st60" d="M418.8,28.9c0.3-7.6,0.3-7.2,7.9-7.1c15,0.3,29.9,0.2,44.9,0.2s30-0.2,44.9-0.2c12.8,0,25.7,0,38.5,0
			c1,0,1.9,0.2,2.9,0.4c1.5,0.7,3.8,0.2,3.5,3.1c-0.2,2.1-1.5,2.7-3.2,3.3c-1.4,0.5-2.9,1.1-4.4,0.8c-7.9-1.6-16.1,0.9-23.7-0.2
			c-10.1-1.5-20.1-1.4-30.2-1.5c-14.1-0.1-28.3-0.5-42.4,0.1c-8.9,0.4-17.8,0.1-26.6,1.8c-3.2,1.4-7,0.4-9.9,2.8
			C418.9,32.1,418.4,30.8,418.8,28.9z"/>
		<path class="st61" d="M153,36c0,1.4-0.2,3.5-1.6,3.1c-4-1.2-7.5,1.7-11.6,0.8c-3.3-0.7-7.1,1.6-10.8,0.2
			c-4.6,0.4-9.1-1.1-13.7-0.3c-8,1.4-16.1-0.3-24.9,1.4c4.3-0.4,7.9-1.2,11.4,0.5c0.8,2.7-1.5,3.1-3,4.1c-2.1,0.7-4.3,0.7-6.4,0
			c-4.2-2.2-8.4-4.2-12.6-0.1c-3.7,1.4-8.4-0.5-11.2,3.7c-0.4,0.6-1.9,0.6-2.3,0c-2-3-5.9-2.5-8.1-5c-0.5-4.5-1.8-9.1,0.9-13.5
			c0.3,0,0.6,0.2,0.9,0.4c1.6,2.1,5.3-0.8,6.4,2.6c-0.5,2-1.3,3.9-3.9,4c4,1,3-3.1,4.7-4.4c2.8-1.2,5.6-2.9,8,0.7
			c-0.5,2.5-2.4,3.4-5.6,3.5c4.1,1.5,4.3-1.7,5.8-3c5.8-4.1,12.5-2.6,18.8-2.1c5.3,0.4,10.4,2.1,15.7,0.4c0.8-0.2,1.7-0.4,2.5-0.2
			c12.1,1.7,24.3-0.9,36.4,1C150.4,34,152.6,33.4,153,36z"/>
		<path class="st62" d="M429.9,29.1c2.5-3.6,6.4-1.6,9.5-1.8c26.8-1.9,53.7-0.9,80.5-1.3c3.8-0.1,6.7,2.6,10.5,2.2
			c7.7-0.7,15.4-2,23.2-0.1c1,0.3,2.3-0.1,3.4-0.5c1.3-0.5,3.2,0.1,3.7-1.9c0.7-2.5-2.1-2.2-2.8-3.5c3.3-0.8,4.2,0.7,3.8,3.7
			c-0.4,2.4,0.3,3.8,3.1,3.5c0.1,2.2-1.5,2.1-3,2.2c-3.5-1.1-7.1-2.6-9.6,1.7c-2.2,0.3-3.2-2.4-5.4-2.1c-3.5-0.9-6.9-1.1-10.3,0.3
			c-1.9,0.3-3.7,0.2-5.6,0.1c-3.2-1.3-6.4-2.1-9.4,0.6c-0.4,0.2-0.8,0.3-1.3,0.3c-1.2-0.8-2.5-0.5-3.8,0c-0.5-0.1-0.9-0.2-1.2-0.5
			c-3.1-2.5-6.1-2-9,0.4c-1.8,0.1-3.6-0.6-5.4,0c-3.6,0.2-7.2,0.3-10.8,0c-1.4-0.4-2.8-0.6-4.2-0.2c-2.9,0.6-5.8-0.3-8.7-0.5
			c-3.5-1.5-7-1.8-10.6-0.2c-2,0-3.8,1-5.8,0.8c-3-2.6-6.2-2.1-9.4-0.7c-1.8,0.2-3.6,0.2-5.5,0c-3.2-1.2-6.3-2.2-9.3,0.6
			c-0.4,0.3-0.8,0.4-1.2,0.4c-1.4-0.7-2.9-0.9-4.4-1.1C430.1,30.8,429.5,30.2,429.9,29.1z"/>
		<path class="st63" d="M382.1,23.1c1.1,0,2.1,0.1,2.9,1c2,1.9,2.3,4,1.1,6.4c-0.9,1.6-2.3,2.7-4.1,3.2c-1,0.2-1.9,0-2.9-0.2
			c-4-0.7-6.7,0.6-7.5,4.8c-0.4,0.7-1,1.2-1.8,1.5c-0.8,0.2-1.6,0.3-2.4,0.1c-5.5-0.8-11.1-0.2-16.7-0.3c-2.3,0-4.5,0-3.8-3.3
			c3.9-1.2,8-1.4,12.2-1.3c-0.7-1.2-1.7-2.2-0.7-3.7c0.6-1,2.6-1.7,1.4-3.2c-1-1.2-2.7-1.1-4.2-0.6c-1.8,0.6-1.8,2-1.8,3.6
			c-0.1,3.4-2.4,5.1-5.4,4.3c-0.9-0.2-1.2-1.1-1.5-1.9c-0.9-11.2-0.4-11.7,10.6-11.7c4.2,0,8.3,0,12.5,0
			C373.9,22.5,378.1,21.8,382.1,23.1z"/>
		<path class="st64" d="M295,15.4c0.3,0,0.7-0.1,1-0.1c5.6,2,11.4,0.8,17.1,0.8c18.5,0.2,37,0.2,55.6,0c1.8,0,4.3-0.6,4.7,2.3
			c0.5,3.5-1.8,3.7-4.4,3.6c-9-0.4-18.1,0.7-27.1-0.5c-5.8-0.1-11.5,0-17.3-0.1c-2,0-4,0.1-5.9-0.3c-3-1.1-6.1-0.6-9.2-0.2
			c-0.5,0-1.1-0.1-1.6-0.2c-5.2-0.3-10.3-0.8-15.4,0.4c-10.3,1.6-20.6,0.2-30.8,0.3c-4.9-0.5-9.9,1.1-14.7-1.1
			c-0.7-1.2-0.8-2.4,0-3.6c8.2-1.7,16.5-0.2,24.7-0.7C279.5,15.7,287.3,17,295,15.4z"/>
		<path class="st65" d="M66.1,33.9c-1.2-1.4-2.6-1-4-0.4c-2.2,0.8-1.9-0.9-2.1-2.1c35.3,0,70.7-0.1,106-0.1c0,2.6-2.6,2.6-4,3.8
			c-2.9,1.5-6.1-0.2-9,1c-3.6-2.2-8.3-2-11.4-1.4c-6.9,1.3-14.1-3-20.6,1.4c-0.3,0.2-1,0.3-1.3,0c-5.1-3.9-10.5-1.6-15.7-0.3
			c-3.1,0.8-6-0.5-8.2-1.3c-5.9-1.9-11.5-0.5-17.2-0.3c-1.2,0-1.9,2-3.5,0.9l0,0c-2.4-4.2-5.5-0.4-8.2-0.7
			C66.5,34.4,66.3,34.3,66.1,33.9z"/>
		<path class="st66" d="M247.3,17.2c0,1,0,1.9,0,2.9c0.5,0.8,0.6,1.7,0.4,2.6c-0.2,0.6-0.6,1-1.2,1.3c-2.5,1-5.2,0.7-7.9,0.7
			c-12.4,0-24.9,0-37.3,0c-5.9,0-6.4,0.6-6.4,6.6c0,3.8,0.5,7.7-2.7,10.7c-7.1,0-14.1,0-21.7,0c2-3.7,6.1-3.5,8.5-5.8
			c2.4,0.2,4.7-0.7,7.1-1c5.6,1.3,5.9,1.1,5.9-4.3c0-1.9,0.8-4-1-5.6c-0.8-1-0.7-2,0.1-3c15.7,0,31.4-0.1,47.1,0.1
			c4.7,0.1,9,0.4,8.8-6.1c0.3,0.2,0.4,0.4,0.4,0.7C247.4,17,247.3,17.2,247.3,17.2z"/>
		<path class="st67" d="M369,21.1c1.5-0.3,3.7,0.7,3.8-1.9s-2.2-2.1-3.7-2c-9.1,0.1-18.2-0.7-27.3,0.7c-3.7,0.6-7.5-0.9-11.3-0.8
			c-10,0.2-20,0.1-30,0c-1.6,0-3.9,0.9-4.5-1.8c23.7-0.1,47.3-0.1,71-0.2c4.2,0,8.5-0.2,6.6,6.8c3.4-1,6.1-0.7,8.5,1.2
			c-4,0-8.1,0-12.1,0C369.4,22.5,368.4,22.2,369,21.1z"/>
		<path class="st68" d="M615,10.3c2.7-5.2,7.4-5.6,10.7-0.9c0,2.9,0,5.8,0.1,8.7c-2.2,4.2-6,4.8-11.8,2.1
			C613.6,16.7,615.9,13.7,615,10.3z"/>
		<path class="st69" d="M14.9,29c2.4-5.8,6.2-8.6,12.9-7.8c4.7,0.6,9.6,0.6,14.3,0c6-0.7,9.7,1.7,11.9,7c0.4,0.5,0.4,0.9-0.2,1.2
			c-2.4,0.2-4.7,0.2-6.8-1c-0.8-1.5-1.7-2.8-3.7-2.9c-5.8-0.1-11.6-0.2-17.4,0c-1.6,0.1-2.8,0.8-3.4,2.4C20,28.1,17.4,28.7,14.9,29z
			"/>
		<path class="st70" d="M413,38.1c0.7,2.3-1.8,5.5,1.9,7c-0.5,0.4-1,3.5-0.8,4.6c0.2,1.9,0.4,3.9-1.1,5.5c0,2,0.1,4.2-3,3.9
			c-2.6-0.2-2-2.2-2.1-3.7c-0.1-1.8-0.4-3.7,0-5.5c0.9-3.9-1-4.2-4-3.5v-0.3c0.5-3.4,1.1-6.8-0.1-10.1c-0.1-1.4-0.1-2.7,1.1-3.7
			c1.7,1.3,3.3,2.6,5,3.9c0.2,0.6,0-0.1,0.3,0.4C410.9,37.4,410.4,40.6,413,38.1z"/>
		<path class="st71" d="M54,29.2c0-0.3,0.1-0.7,0.1-1c1,0.8,1.7,1.9,3.1,2c0.5,0.6,0.6,1.3,0.3,2c-2.9,3.8-5.5,4.6-10.9,2.7
			c-1.7-0.6-3.5-0.9-5.2-1.6c-3.4-0.9-6,2-9.3,1.7c-0.4-0.2-0.8-0.4-1.2-0.7c-2-1.4-4.1-0.5-6.2-0.4C20.3,34,15.5,35.2,12,31
			c0.4-0.8,1.1-1,2-0.9c4.2-1.9,8.8-1.2,13.2-1.3C36.1,28.5,45,28.7,54,29.2z"/>
		<path class="st72" d="M396.8,17.2c3.7,3.7,8.6,6.5,8,12.8c-0.7,0.7-1.4,0.5-2.2,0.1c-1.6-2.3-4-2.6-6.6-2.7
			c-2.6,0-5.3,0.5-7.8-0.9c-1.6-2.1,1.5-1.5,1.6-2.7l-0.1,0.1c1.2-0.5,0.8-1.7,0.8-2.5C391,16.1,390.9,16.1,396.8,17.2z"/>
		<path class="st73" d="M591.9,38.1c0.7,0.1,1.3,0.1,2,0.2c6.1,0.6,12.3,0.2,18.4,0.4c2,0.1,4-0.2,5.6,1.5c0,2.4-1.7,1.6-2.7,1.8
			c1.1,0.7,2.6-0.3,4,0.2c1,0.4,2.4,0.7,1.3,2.3c-4.1,1.3-8.4,1.7-12.6,1.5c-1.1-2.3-3.1-1.5-4.9-1.6c-3.5,0.7-6.4-1.5-9.6-2
			c-0.4,0.1-0.9,0.1-1.4,0.1c-0.4-0.2-0.7-0.6-0.9-1C590.9,40.2,591.1,39.1,591.9,38.1z"/>
		<path class="st67" d="M247.3,17.2c-0.1-0.4-0.2-0.7-0.3-1.1c4.7-2.1,9.7-0.7,14.5-0.9c11.2-0.3,22.3,0.1,33.5,0.1
			c-0.9,2.9-3.3,1.7-5,1.7C275.7,17.2,261.5,17.1,247.3,17.2z"/>
		<path class="st74" d="M54,29.2c-1.4,1.4-3.1,0.8-4.7,0.8c-11.8,0.1-23.5,0.1-35.3,0.1c0.3-0.4,0.6-0.7,0.9-1.1
			c0.3-0.1,0.7-0.1,0.9-0.3c2-2.3,4.1-3.3,6.5-0.6c1-1.1,2.3-1.5,3.6-1.4c7,0.4,14.2-1.7,21,1.4C49.2,28.2,51.8,27.5,54,29.2z"/>
		<path class="st75" d="M531.1,31.3c1.5-1.5,3.1-1.4,4.8-0.2c4,3.3,7.8,2.8,11.3-0.9c2.4-0.5,3.6,1,4.8,2.7c3.7,1.4,6.9,0.1,10-1.7
			c0.9-0.6,1.8-1.3,2.8-1.9c2,0.7,0.5,2.6,1.2,3.8c-1.9,0.5-3.8,0.8-5.5,2c-3,2.2-6.2,2.1-9.1-0.1c-1.8-1.3-3.4-1.8-5.3-0.2
			c-3.9,3-7.6,2.2-11.1-0.9c-1.3-0.9-3.4,0.6-4.3-1.4C530.6,32,530.7,31.6,531.1,31.3z"/>
		<path class="st76" d="M403,30.2c0.6-0.1,1.2-0.1,1.8-0.2c0,0.7,0.1,1.4,0.1,2.2c-0.1,1.2-0.1,2.4-0.2,3.6
			c-0.3,0.8-1.1,0.9-1.8,0.9c-0.5,0-1-0.1-1.5-0.2c-3.6-0.3-7.2,0-10.7-0.2c-1.8-0.1-3.6,0.1-5-1.4c-0.2-0.5-0.4-0.9-0.4-1.5
			c0.3-1.5,0.6-3,2.1-3.8c0.5-0.1,1-0.1,1.5-0.1c4.4,0.5,8.9-0.2,13.3,0.4C402.6,30.1,402.8,30.1,403,30.2z"/>
		<path class="st77" d="M606.9,38.1c0.2-4.5-1.5-9.5,3-13c0.6-0.5,1.3-0.6,2.1-0.5c2.9,0.9,3.2,3.3,3.4,5.8
			c-0.1,0.7-0.4,1.3-0.7,1.8c-0.9,1-0.2,2.4-0.6,3.5C612.7,39.6,610.2,39.9,606.9,38.1z"/>
		<path class="st78" d="M12,31c4.5,1.8,9.1,2.5,14,1.4c2.2-0.5,4.7-1,6.1,1.7c-4.4,1.7-9,2.9-13.7,2c-2.5-0.5-4.5,0.2-6.5,1.5
			c-1.8,1.2-3.7,2.2-5.8,0.5c-0.4-0.8-1.1-0.9-1.8-0.9c0.6-1,1.2-2.1,1.8-3.1C8.1,33,10,32,12,31z"/>
		<path class="st79" d="M606.9,38.1c3.3,1.2,5.1-1,6.9-3c3.9-0.9,7.6-1.4,10.5,2.3c0.4,0.3,0.7,0.6,0.8,1.1c0.1,1.3-0.4,2.3-1.4,3
			c-2,0.2-3.9-1-6-0.3c-5.1-1.9-10.6-1.1-15.8-2c-2.7-0.5-5.6,0.7-8.2-0.9C598.3,38.2,602.6,38.2,606.9,38.1z"/>
		<path class="st80" d="M435.1,32c0.2,0.1,0.5,0.2,0.7,0.3c2.5,0.6,5,2,7.7,1.4c0.8,0.2,1.2,0.7,1.4,1.4c-2.9,2.8-6.1,2.1-9,0.2
			c-2.1-1.4-3.8-1.5-5.8,0c-2.8,2.1-6.1,2.3-8.7,0.1c-3.3-2.8-4.9-1.2-6.5,1.7c-0.5-2.1,1.1-3.9,0.6-6.1c-0.6-2.9,2-1.6,3.3-2
			c0.7,1.1,1.4,2.1,2.2,3.2c3.3,2.1,6.5,1.4,9.6-0.4C432.1,32.1,433.6,31.7,435.1,32z"/>
		<path class="st81" d="M162,35.1c0.7-1.9,2.7-2.5,4-3.8c3.5-1.8,7.2-3,11-4c-0.9,1.6-1.7,3.2-2.6,4.8
			C171.4,37.6,166.5,35.6,162,35.1z"/>
		<path class="st82" d="M614,20.1c4-0.2,8.5,2.4,11.8-2.1c-0.1,2.1-0.1,4.2-0.2,6.3c-5,2-9.9,1.7-14.8-0.3
			C611.9,22.7,612.2,20.8,614,20.1z"/>
		<path class="st83" d="M191.1,22.1c0,1-0.1,2-0.1,3c-0.3,2.5-2.3,1.9-3.8,1.9c-3.1,0-6.2,0-9.3-0.1
			C182.3,25.4,186.7,23.8,191.1,22.1z"/>
		<path class="st22" d="M57.1,32.1c0-0.6,0.1-1.3,0.1-1.9c0.9-0.2,1.7-0.4,2,0.8c0,4.7,0,9.4,0.1,14.1c0.5,0.8,0.4,1.5-0.2,2.2
			c-2.6-0.2-2.9-2.2-3.2-4.1c-0.1-2.1-0.1-4.1,0.1-6.2C56.2,35.3,56.7,33.7,57.1,32.1z"/>
		<path class="st84" d="M610.9,24c4.9,0.1,9.8,0.2,14.8,0.3c0,4.6,0.1,9.2,0.1,13.7c-0.2,0.3-0.6,0.4-0.9,0.2c0-0.2,0-0.3,0-0.5
			c-2.4-2.9-0.9-6.5-1.7-9.6c-0.6-2.2-2.5-1.7-4.1-1.7c-2.5,0-4.8-0.4-7.1-1.3c-0.7,0-1.4-0.1-2.1-0.1
			C610.2,24.7,610.5,24.4,610.9,24z"/>
		<path class="st85" d="M413,38.1c-2.1,1.7-0.2,4.4-2,6.6c-2-2.8-0.7-5.8-1.1-8.6c1,0.4,2.1,0.8,3.1,1.2
			C413.2,37.6,413.1,37.9,413,38.1z"/>
		<path class="st86" d="M387.8,30.2c-0.6,0.9-1.3,1.9-1.9,2.8c-1.1-0.6-0.3-2-1.1-2.7c1.5-2.1,0.7-4.2,0.1-6.3
			c1.6-0.1,3.2-0.1,4.8-0.2c-0.6,0.7-1.3,1.4-1.9,2.1C388.2,27.4,389.4,28.8,387.8,30.2z"/>
		<path class="st86" d="M396.8,17.2c-3.3-0.2-6.7-0.7-5.7,4.5c0.2,0.8-0.2,2-1.4,2.3c0-0.8,0.1-1.7,0.1-2.5
			C389.9,15.4,390.8,14.9,396.8,17.2z"/>
		<path class="st75" d="M576.9,35.1c-3.8,0.1-7.6,0.5-10.9-2.1C569.7,33.3,573.4,33.6,576.9,35.1z"/>
		<path class="st79" d="M591.9,38.1c0,1.4-0.1,2.8-0.1,4.2c-0.6,0.4-1.3,0.4-2,0.2c-0.6-0.4-1.1-0.9-1.2-1.6c2-1.1,2.5-2.3,0.2-3.6
			C590,36.8,591.1,37.1,591.9,38.1z"/>
		<path class="st87" d="M624.8,38.3c0.3-0.2,0.6-0.2,0.9-0.2c1.3,1,1.8,2.5,2.2,4c0.5,0.4,1,0.7,1.6,0.9c11.9,0.3,23.7,0,35.6,0.2
			c1.9,0,4-0.4,5.8,0.7c0.7,0.9,0.7,1.7-0.1,2.6c-11.8,0.4-23.6,0.1-35.3,0.2c-2.4,0-5-0.6-7.3,0.5c-0.1,0.6-0.3,1.1-0.4,1.7
			c-1,0.7-1.8,0.9-1.8-0.7c-1.2-2-2.3-4.1-2.2-6.6C624,40.4,624.4,39.4,624.8,38.3z"/>
		<path class="st88" d="M627.9,43.1c0-0.3,0-0.7,0-1c18-0.7,36.1,1.4,54-2.1c0.4,0.4,0.7,0.8,1.1,1.2v0.5c-1.7,3.2-4.7,2.8-7.6,2.9
			c-14-1.9-28.1-0.5-42.1-0.9C631.5,43.5,629.6,44,627.9,43.1z"/>
		<path class="st89" d="M244,163.9c0.6,0,1.3,0,1.9,0.1c1.5,5.3-3.2,8.5-4.5,12.9c-0.1,0.4-1.2,0.7-1.7,0.6
			c-0.7-0.2-0.9-1.1-0.5-1.7C241.4,172,241.3,167.4,244,163.9z"/>
		<path class="st90" d="M715.8,42c-0.6,0.4-1.3,0.8-1.9,1.1c-6.4,1.9-12.9,1.5-19.4,1c-0.9-0.4-1.7-0.8-1.6-2c0-1.1,0.5-1.9,1.8-1.7
			c6.6,1,13.3,1.3,19.9,0C715.7,40.2,715.9,41.1,715.8,42z"/>
		<path class="st91" d="M692.9,42.1c0.3,0.3,0.7,0.7,1,1c6.6,1.4,13.3-0.2,19.9,0.8c0,0.4,0.1,0.8,0.1,1.2c-2,0.4-4.2-0.3-6,1
			c-5.1,0-10.2,0.2-15.3,0c-2.9-0.1-3.2-1.7-1.6-3.9C691.6,42.1,692.2,42.1,692.9,42.1z"/>
		<path class="st92" d="M718.6,54.2c-8,0-15.9-0.1-23.9-0.1c-1.2,0-2.7,0.6-3.6-0.9c-0.2-0.3-0.1-1.1,0.2-1.3c1.3-0.9,2,0.6,3,1
			c2.6,0.9,4.8-0.9,7.3-0.8c5.6,0.2,11.3,0,16.9,0C718.6,52.7,718.6,53.4,718.6,54.2z"/>
		<path class="st93" d="M713.8,43.9c-6.6-0.1-13.3,1.2-19.9-0.8c6.7,0,13.3,0,20,0.1C713.9,43.4,713.8,43.6,713.8,43.9z"/>
		<path class="st94" d="M584.8,68c-2.2,4.6,0,9.7-1.4,14.7c-2.5-4.7-3.9-5-7.8-1.9c-1,0.8-2.2,2-1.7-0.7c0-1.7,2.1-3.2,0.5-5.1
			c-2.2-2.5-4.3,0.6-6.4,0c-1.6-1.3-1.6-3.4-2.1-5.1c0-1.6,0-3.3,0.1-4.9c2.9-0.7,5.8-0.7,8.7-0.8c3.8-0.1,7-1,9.2-4.3
			c0.8,0.2,1.5,0.3,2.3,0.5c0.3,1,0.6,2-0.4,2.8C584.6,64.6,585.4,66.5,584.8,68z"/>
		<path class="st95" d="M583.9,59.9c-0.5,4-2.5,5.7-6.8,5.3c-3.7-0.3-7.4,1.9-11.1-0.1c-0.9-6.9-1.2-13.9-1-20.9
			c0-2.7,2.4-2.1,3.8-2.7c1.1-0.1,2,0.1,2.5,1.3c-0.1,0.8-0.5,1.4-1,1.9c-1.1,0.9-2.4,1.5-2.8,3.1c-0.5,1.6,0,2.4,1.7,2.3
			c1,1,1.3,2.4,1.5,3.7c1.7,4.2,2.8,4.7,5.7,2.7c4.6-3.1,4.6-3.1,5.7,1.9c0.9,0.2,1.4,0.9,1.8,1.6L583.9,59.9z"/>
		<path class="st96" d="M508.9,46.9c3.4-2.5,7.1-0.5,10.6-0.8c4.1-0.3,8.3,0,12.5,0c0.4,4.1,1.4,8.2-1.3,12c-1.9,0.5-3,0.2-2.9-2.3
			c0-2.6,0.9-5.3-0.7-7.7c-2.8,0-4.3,1.1-4,4.2c0.2,1.6,0.1,3.3-0.5,4.9c-0.2,0.4-0.5,0.7-1,0.9c-1.2,0-2.4,1-3.6,0
			c-0.2-0.1-0.4-0.2-0.6-0.4c-1.1-1.7-0.7-3.7-0.9-5.6c-0.1-1.5,0.3-3.4-2-3.7c-0.6-0.1-1.3-0.3-1.9-0.3c-1.5,2.3-0.9,4.8-0.7,7.2
			c0.2,2.8-1.2,3.3-3.3,3.6C506.9,54.9,507.2,50.9,508.9,46.9z"/>
		<path class="st97" d="M459.9,46.1c10.4,0,20.7,0,31.1,0c-0.5,2.7-2.6,2-4.3,2c-1.4,2.4-0.4,5.1-0.7,7.6c-0.2,1.6-0.1,3.6-2.8,2.4
			c-0.2-0.1-0.4-0.2-0.6-0.3c-1.3-2.1-0.7-4.5-0.9-6.7c-0.2-1.7-0.6-3.1-2.7-1.5c-0.3,0.3-0.7,0.5-1.1,0.6c-1.4,1.5-0.8,3.4-0.8,5.1
			c0,2.1-0.9,3-2.9,2.9c-1.8-1.5-1.3-3.6-1.4-5.5c-0.2-2.5-1.1-3.7-3.8-2.6c-1,0.3-1.9,0.7-2.9,1c-2.4-0.1-2.8-3.3-5.3-3.3
			C460.1,47.4,459.6,46.9,459.9,46.1z"/>
		<path class="st98" d="M492.8,46.2c4.4-0.1,8.9-1.1,13.2,0.7c-0.5,1.4,0,3-1,4.2c-3.8,2-1.8,3.5,0.4,5c0.5,1,0.4,1.9-0.3,2.8
			c-1.8-0.9-3.5-0.9-5.3,0c-1.1-2.3,0.2-4.7-0.3-6.5c-0.6,1.1,0.7,3.1-0.8,4.8c-3.1-1.3-1.8-4.3-2.4-6.6c-0.2,2.7,1.6,5.2-0.5,7.5
			c-4.7-1.2-3.3-4.9-2.2-7.3c1.2-2.5-0.9-1.9-1.5-2.6C491.2,47.1,492.2,46.7,492.8,46.2z"/>
		<path class="st99" d="M539.8,46.1c7,0,14.1,0,21.1-0.1c0,0.4-0.1,0.8-0.1,1.1c-2,1.2-2.6,3.1-2.6,5.4c0,1.9,0.4,4-1.4,5.5
			c-1.9,0.5-3,0.4-3-2.2s0.9-5.3-0.7-7.8c-2.7,0-4.3,1.1-4,4.1c0.2,1.6,0.1,3.3-0.4,4.8c-0.2,0.4-0.5,0.8-1,1c-1.2,0.1-2.5,1-3.7,0
			c-1-0.8-1.4-1.9-1.3-3.1C543,51.6,541.9,48.7,539.8,46.1z"/>
		<path class="st100" d="M492.8,46.2c-0.2,0.7-0.5,1.3-0.7,2c0,2.6-0.1,5.3-0.1,7.9c0,1.7-0.9,2.8-2.7,2.9c-2.2,0.1-2.3-1.3-2.3-2.9
			c0-2.6-0.2-5.3-0.3-7.9c0.9-1.8,3.3-0.4,4.3-2C491.6,46.1,492.2,46.2,492.8,46.2z"/>
		<path class="st101" d="M413,55.1c-0.8-2.7,1.5-6.2-2-8.5c0.9-1.3,3.1,0.2,3.9-1.5c0.7-1.3,1.3-2.7,2-4c1.1,0.8,1.9,2.1,3,3
			c-0.6,1.4-3.1,0.8-3,2.9c2.3,3.3,1.3,7,1,10.6c-0.3,0.6-0.6,1.1-1,1.5C414.9,58.5,414,56.7,413,55.1z"/>
		<path class="st102" d="M539.9,61.2c0,5.9,0,11.9,0,17.8c0,1.1,0.1,2.6-1.4,2.7c-1.6,0.2-2.5-1-2.5-2.5c0.1-3.4-1-6.9,1.9-9.9
			C540.1,67.2,538.3,64,539.9,61.2z"/>
		<path class="st103" d="M530.8,58.1c0.8-3.9-1.2-8.2,1.3-12c0.6,0.3,1.3,0.5,1.9,0.8c3.8-0.1,3,1.9,1.9,4.1c-1.3,1.2-1.1,2.7-0.7,4
			C536.8,60.7,533.8,59.3,530.8,58.1z"/>
		<path class="st104" d="M512.9,62.1c0,5.4,0,10.9,0,16.3c0,1.5-0.1,3.3-2.1,3.2c-1.7-0.1-1.9-1.7-1.8-3c0.1-2.6-0.5-5.2,1.3-7.6
			C512.1,68.4,511.8,65,512.9,62.1z"/>
		<path class="st105" d="M444,61c0,6.1,0,12.2,0,18.3c0,1.2,0.2,3-1.7,3c-1.4-0.1-2.7-1.8-2.2-2.8c3.1-5.9,1-12.5,2.4-18.5
			C443,60.9,443.5,61,444,61z"/>
		<path class="st106" d="M459.9,46.1c0.3,0.3,0.7,0.7,1,1c2.1,3.9,2,7.9,0.1,11.9c-2.6-2.9-0.2-6.6-1.5-9.8
			c-2.3,2.5,2.4,7.8-3.5,8.9c-2.8-3.3-0.5-7.6-2.2-11.2C455.7,45.4,457.9,46.3,459.9,46.1z"/>
		<path class="st107" d="M498.9,63.3c0,5.1,0,10.3,0,15.4c0,1.4-0.2,2.9-2,2.9c-1.7,0-2-1.5-2-2.9c0-2.9-0.6-5.9,2-8.4
			C499,68.5,497.3,65.5,498.9,63.3z"/>
		<path class="st89" d="M468.9,50.1c0.2-1.1-0.4-3.1,1.7-2.6c1.3,0.3,3.4,0.4,3.4,2.8c0,2.6,0.1,5.2,0.1,7.8c-1.3,1.3-3,1.4-4.4,0.4
			c-1.5-1.1-0.1-2.3,0.6-3.3C471.7,53,470,51.6,468.9,50.1z"/>
		<path class="st108" d="M447.9,49c0,3.3,0,6.6,0,9.9c-1.8-0.3-4.3,1.3-5.2-1.7c-1.5-1.9-1.2-4-0.6-6
			C443.4,48.6,445.1,47.3,447.9,49z"/>
		<path class="st105" d="M443.1,50.9c-0.1,2.1-0.2,4.2-0.4,6.3c-1.3,0.8-2.5,0.7-3.7-0.1c-2.2-3.3-2-6.6-0.2-10
			c1.7,0.1,3.3-2.4,5.1-0.2C444.1,48.3,443.5,49.6,443.1,50.9z"/>
		<path class="st109" d="M464.9,69c0,4,0,7.1,0,10.2c0,1.2-0.4,2.4-1.9,2.4s-1.9-1.2-1.9-2.4C461,75.7,460.2,71.9,464.9,69z"/>
		<path class="st110" d="M546.8,69.3c0,4,0,7.1,0,10.3c0,1-0.6,1.9-1.8,2c-1,0.1-1.7-0.6-1.8-1.4C542.9,76.4,541.7,72.3,546.8,69.3z
			"/>
		<path class="st49" d="M512.7,48.1c0.4-0.4,0.8-0.7,1.2-1.1c2.9,1,3.9,3,3.6,6.1c-0.2,1.6-0.4,3.3,0.3,4.9l0.4,0.1
			c-3.7,2.3-5.3,1.1-5.2-3.1C513,52.7,512.8,50.4,512.7,48.1z"/>
		<path class="st111" d="M539.8,46.1c3.4,0.7,4.6,2.7,4.1,6.1c-0.3,1.9,0,3.9,0,5.8c-4.6,1.6-5.6,1-4.8-3.2c0.5-2.4-0.6-4.4-0.5-6.6
			c-0.5-0.8-0.4-1.5,0.3-2.1C539.3,46.1,539.6,46.1,539.8,46.1z"/>
		<path class="st112" d="M505.9,76.1c-0.7,1.7,1.3,5.4-2.1,5.3c-3.1-0.1-1.5-3.7-1.9-5.8c-0.1-0.6,0-1.3,0.1-2
			c0.2-1.6,1.2-3.2,2.7-3.1c1.8,0.1,1,2.1,1.2,3.3C506,74.5,505.9,75.2,505.9,76.1z"/>
		<path class="st113" d="M519.9,71.1c0,2.8,0,5.6-0.1,8.4c0,1-0.5,2-1.7,2.1c-1.4,0.2-2.1-0.9-2.2-2.1c-0.1-2.5,0-4.9,0-7.4
			C517.1,71,517.7,68.2,519.9,71.1z"/>
		<path class="st114" d="M426.9,47.1c3.4-0.7,4.4,1,4.2,4c-0.9,3.1,2,8.6-5,7.9c-2.2-3.1-2.1-6.4-0.4-9.6c2.6-0.4,2,1.6,2.3,2.8
			c0-1.1,0-2.4-1.2-3.2C426.4,48.3,426.4,47.7,426.9,47.1z"/>
		<path class="st100" d="M477.8,50.1c0.1-0.4,0.2-0.8,0.3-1.2c2.9-1.5,4.3-0.6,4.3,2.7c0,2.1-0.4,4.3,0.3,6.3l0.4,0.1
			c-3.6,2.1-5.5,1.3-5.3-3.1C477.9,53.4,477.8,51.7,477.8,50.1z"/>
		<path class="st31" d="M457.9,70.2c0,3.5,0,6.3,0,9.1c0,1.1,0,2.5-1.6,2.5c-1.4,0-2.1-0.9-2.2-2.2C453.8,76.3,453.8,73,457.9,70.2z
			"/>
		<path class="st60" d="M426.9,49c-2.2,3.2-0.6,6.6-0.9,10c-2.5-0.6-3.3-2.2-3.2-4.8c0-2,0.8-4.3-0.8-6.2c-0.3-0.2-0.4-0.4-0.3-0.6
			c0.1-0.2,0.1-0.3,0.2-0.3c1.6-2.4,3.3,0.1,5-0.1C426.9,47.7,426.9,48.4,426.9,49L426.9,49z"/>
		<path class="st115" d="M552.8,49c0,2,0.1,3.9,0.1,5.9c0.2,4.4-1.5,5.4-5.3,3.1h0.4c0.9-2,0.3-4.1,0.3-6.2
			C548.5,48.5,549.6,47.2,552.8,49z"/>
		<path class="st116" d="M526.8,49c0.1,2,0.1,3.9,0.2,5.9c0.2,4.3-1.5,5.4-5.3,3.1h0.4c0.9-2,0.3-4.1,0.3-6.2
			C522.5,48.5,523.6,47.2,526.8,49z"/>
		<path class="st97" d="M482,72.1c1.9-3.5,2.1-7.5,2.9-11.5c0.8,6.9,2.1,13.6,0,20.4C482.3,78.6,484.9,74.4,482,72.1z"/>
		<path class="st117" d="M461.1,58.9c0-4-0.1-7.9-0.1-11.9c3.6-1.2,3.8,2.2,5,4C465.3,54.3,467.6,59.4,461.1,58.9z"/>
		<path class="st118" d="M526.1,75.7c-0.9,1.7,1.4,4.8-2,5.1c-2.1,0.2-2.4-2.1-2-3.7c0.6-2.2-0.2-6,2.5-6.3
			C527.1,70.6,525.4,74,526.1,75.7z"/>
		<path class="st119" d="M533,67.2c0,4.6,0,8.1,0,11.6c0,1-0.3,2-1.6,2c-1.1,0-1.2-0.9-1.5-1.7C528,74.8,530.7,71.7,533,67.2z"/>
		<path class="st60" d="M422.5,75.3c0-4.9,0-9.7,0-14.6c1.7,4.8,1.6,9.7,1.2,14.5C423.3,75.3,422.9,75.3,422.5,75.3z"/>
		<path class="st120" d="M478,76.9c-0.5,1.5,1.2,4.7-1.5,4.7c-2.6,0-1.2-3.1-1.6-4.8c-0.1-0.6,0-1.3,0-2c0.1-1.3,0.2-3.1,1.7-3.1
			c1.9-0.1,1.2,1.9,1.4,3.1C478.1,75.3,478,76,478,76.9z"/>
		<path class="st121" d="M429.5,61.3c1,6.8,1.1,12.6,0.4,18.5c-0.1,1-0.3,2.1-1.6,2c-1-0.1-1.5-1-1.1-1.8
			C430.8,74.4,427.9,68,429.5,61.3z"/>
		<path class="st49" d="M438.8,57.9c-1.2,1.8-2.8,1.5-4.2,0.6c-1.2-0.8-0.2-2,0-3.1c0.3-1.4,0.2-2.9,0.3-4.3
			c0.2-1.4,0.7-2.6,2.4-2.3c1.2,0.3,1,1.4,1.1,2.4C438.6,53.4,438,55.7,438.8,57.9z"/>
		<path class="st122" d="M482,72.1c2-0.2,3.1,0.5,3,2.7c-0.1,2.1,0,4.2,0,6.3c-2.1,1.7-3,0.6-3-1.5C481.8,77.1,482,74.6,482,72.1z"
			/>
		<path class="st109" d="M437,61.3c0,5.9,0,11.9,0,17.8c0,1,0.3,2.6-1.6,2.3c-1.1-0.2-1.7-1.5-1.2-2.3
			C437.7,73.4,434.9,67.1,437,61.3z"/>
		<path class="st123" d="M471,70.8c0,3.7,0,6.3,0,8.9c0,0.8-0.1,1.8-1.1,1.8c-0.5,0-1.4-0.6-1.4-1C468.1,77.4,466.6,74.1,471,70.8z"
			/>
		<path class="st124" d="M504.8,51.1c0.7-1.3-1.7-3.5,1.2-4.2c1,0,2,0,2.9,0c-0.1,4-0.1,8-0.2,12c-1.2,0-2.4,0-3.7,0
			c-0.1-1-0.2-1.9-0.3-2.9c-0.2-0.4-0.1-0.8,0.2-1.1c2-1,2.7-2.1,0.4-3.5C505.2,51.3,505,51.2,504.8,51.1z"/>
		<path class="st125" d="M560,79c-0.2,1-0.5,2-1.8,1.8c-1-0.1-1.3-1-1.3-1.8c0-2,0-4,0.1-5.9c0.8-1.1,0.6-3.5,2.6-3
			c1.5,0.4,0.8,2.3,0.8,3.5C560.4,75.5,560.8,77.3,560,79z"/>
		<path class="st96" d="M560,79c0-2.7,0-5.4,0-8.2c-2.1,0-2,1.8-3,2.2c-0.7-3.4,2-5.6,3.1-8.5C560.8,69.4,561.8,74.2,560,79z"/>
		<path class="st126" d="M491.8,70.9c0,2.9,0,5.5,0,8.2c0,0.9-0.3,1.7-1.3,1.8s-1.4-0.7-1.4-1.6C489,76.3,488.1,73.2,491.8,70.9z"/>
		<path class="st127" d="M450,69.1c2,3.8,0.5,8,1,11.9c-3.5,2.1-2.9-0.6-3.1-2.5C447.7,75.2,451,72.6,450,69.1z"/>
		<path class="st128" d="M421.9,47.2c0,0.3,0,0.6,0.1,0.9c-0.1,0.3-0.2,0.6-0.1,0.9c-1,2.8-0.2,5.8-0.5,8.6
			c-3.4,1.2-1.8-1.8-2.4-2.7c-0.5,1,0.7,3.2-2,3.1c0-3.7,0-7.4,0-11.1C418.6,47,420.3,47.1,421.9,47.2z"/>
		<path class="st129" d="M549.8,76.8c0.5-1.7-0.6-4.3,1.5-4.4c2.8-0.1,1.6,2.7,1.7,4.2c0.1,1.4,1,4-1.3,4.1
			C548.7,80.9,550.6,77.9,549.8,76.8z"/>
		<path class="st130" d="M438.8,57.9c-1.5-1.9-0.6-4.1-0.8-6.2c-0.3-4.1-1.8-1.7-3.1-0.7c-0.4-0.3-0.7-0.7-1.1-1
			c-0.2-4.1,2.4-3.6,5-3c0.1,3.3,0.1,6.6,0.2,10C439,57.4,438.9,57.6,438.8,57.9z"/>
		<path class="st113" d="M560.8,49c0,2.7,0,5.4-0.1,8.2c-4.8,1.3-3.1-2.5-3.2-4.4C557.4,50.8,556.5,47.4,560.8,49z"/>
		<path class="st131" d="M560.8,49c-3-0.1-2.9,2-2.9,4.1c0,2-0.3,4.2,2.8,4.1c-0.7,2.9-2.3,2-3.9,0.9c0-2.4,0.2-4.9,0.1-7.3
			c-0.2-3.1,0.9-4.3,3.9-3.5C560.8,47.8,560.8,48.4,560.8,49z"/>
		<path class="st126" d="M495.8,58.1c0-2.6,0-5.3,0-9c1.9,2.8,0.5,5.6,2.9,7.2c0.1-1.5,0.3-2.9,0.4-4.2c0.2,0,0.5,0,0.7,0
			c0,2.3,0,4.5,0,6.8C498.4,58.9,496.9,59.4,495.8,58.1z"/>
		<path class="st96" d="M519.9,71.1c-1.7-1.4-2.6,0.5-3.9,1c2-3.2,1.8-7,3-10.4C520.3,64.7,519.8,68,519.9,71.1z"/>
		<path class="st117" d="M453.9,46.9c2.4,0.3,2.1,2,2.1,3.7c0,2.5,0,5,0,7.5c-0.8,1-2,0.9-3.1,1c-0.7-0.5-1-1.2-1-2
			c2.9-2.7,2.2-5.4,0-8C451.7,47.6,452.6,47,453.9,46.9z"/>
		<path class="st31" d="M417,58c2.4-2.4-0.3-6,2-8.7c2.3,2.8-0.3,6.4,2,8.8c0.2,0.2,0.3,0.4,0.3,0.7c-0.1,0.2-0.2,0.3-0.2,0.3
			c-1.3,0-2.7,0-4,0C417,58.7,417,58.4,417,58z"/>
		<path class="st132" d="M552.8,49c-2.9-0.3-3.9,0.9-4.1,3.9c-0.1,1.6,2.1,3.8-0.7,5.1c0-2.3,0-4.6-0.1-6.9
			c-0.3-4.5,1.5-5.3,5.2-3.1C553,48.4,552.9,48.7,552.8,49z"/>
		<path class="st133" d="M526.8,49c-2.9-0.3-4,0.9-4.1,3.9c-0.1,1.6,2,3.8-0.7,5.1c0-2.3,0-4.6-0.1-6.9c-0.3-4.6,1.5-5.3,5.2-3
			C527,48.4,526.9,48.7,526.8,49z"/>
		<path class="st134" d="M569,42.3c-1,1.5-3.3,0-4.1,1.9c-1,0.3-2,0.6-3,0.9c-1.4-4.9,1.7-5,5.1-4.9C566.7,41.8,568.8,41.1,569,42.3
			z"/>
		<path class="st135" d="M409.1,76.8c0-5.2,0-10.4,0-15.6c0.2,0,0.4,0,0.5,0c0,5.2,0,10.4,0,15.6C409.5,76.8,409.3,76.8,409.1,76.8z
			"/>
		<path class="st99" d="M539,46.1c-0.1,0.7-0.2,1.4-0.3,2.1c-1.1,0.8-0.7,3.1-2.9,2.8c-0.1-1.6,0.8-3.7-1.9-4.1
			C535.5,45.5,537.3,46.2,539,46.1z"/>
		<path class="st60" d="M421,59.1c0-0.3,0-0.7,0-1c0.5-3-0.8-6.2,0.9-9.1C421.6,52.4,423,55.9,421,59.1z"/>
		<path class="st136" d="M334,148.5c0.3-2.7,0.7-5.7,1.4-8.7c1.4-6.1,5.5-3.3,8.5-3.8c3.6-0.5,3.1,2.4,4,4.7c1.3,3.1,1,6.1,1.1,9.2
			c0.1,7.1,0,7.1-6.8,7.1C332.7,156.9,334.1,158,334,148.5z"/>
		<path class="st137" d="M324.6,102.9c-8.9,0.2-8.9,0.2-8.5,10.1c-0.5,1.2,0.6,3.4-2.1,2.9c-1.2-5.9-3-11.7,2-17.1
			c2.3-2.4,2.3-6.1,3.2-9.3c1.6-2.6,3.6-3.3,6.3-1.4C326.8,93.2,327.9,98.2,324.6,102.9z"/>
		<path class="st138" d="M319.8,90c0.2,4.6-0.6,8.8-4.8,11.6c-1.6,1.1-1.1,2.6-1.1,4c0,3.4,0.1,6.9,0.1,10.3c-0.7,0-1.3,0.1-2,0.1
			c-0.1-1.6-0.3-3.3-0.3-4.9c-0.1-7.8-0.1-7.8-7.8-10.3c-0.3-0.2-0.4-0.4-0.3-0.6c0.1-0.2,0.2-0.3,0.3-0.3c0-0.6,0-1.3,0-1.9
			c2-0.7,3,1.1,4.4,1.6c2.8,1.1,4.9,0.1,6.5-2.2c1.2-1.8,0.5-3.6-1.1-4.8c-2.4-1.9-4.7-1-6.7,0.9c-1.3,1.3-1.6,3.3-3,4.5
			c-0.4-0.6-0.7-1.3-1.1-1.9c-0.8-7.2,3.4-11.1,10.2-9C315.4,87.8,317.9,88.3,319.8,90z"/>
		<path class="st139" d="M343.8,125.8c0.2,1.9-0.9,2.3-2,2.5c-1.1,0.3-2-0.5-2.2-1.5c-0.3-1.6,1-2.3,2.3-2.5
			C343,124.1,343.5,125.2,343.8,125.8z"/>
		<path class="st140" d="M196.1,85.1c-3.1-1.7-6.3-3.2-10-3c-0.2-0.4-0.2-0.9,0.1-1.3c2.2-1.1,4.8-1.5,6.8-3.1
			c0.6-0.2,1.3-0.1,1.9,0.1c0.7,0.2,1.4,0.9,2.3,0.5c-1.1,0.1-1.2-0.6-1.1-1.4c2-1.2,4.4-1.9,5.5-4.3c3-1,6.1,0.2,9.1-0.5
			c4,4.4,9.4,4.3,14.7,4.1c1.6-0.1,3.3-0.9,4.9-0.5c9.6,2.5,19.4-0.2,29,1c5.1,0.6,10.3,0.2,15.4,1.1c6,1.1,11.8-0.9,17.8-1.1
			c6.1-0.2,10.7,1,13.9,6.3c-0.5,2.6-2.5,2.2-4.3,2.2C266.6,85.1,231.3,85.1,196.1,85.1z"/>
		<path class="st141" d="M301.9,85.1c0.8-1.8,3.2-0.4,4.1-2.1c-0.3-2.9,1.7-3.9,3.8-5c5.1-0.8,10.3-0.2,15.4-0.5
			c2.2,1.1,2,2.6,0.9,4.4c0,1-0.1,2-0.1,3c1,1.5,0.3,2.5-1.1,3.1c-1.9-0.1-3.9-0.4-5,1.8c-1.8-0.1-3.4,0.1-5.2-0.8
			c-6.5-3.3-11.4-0.3-11.7,6.9C300.9,92.6,302.6,88.8,301.9,85.1z"/>
		<path class="st142" d="M303.9,99.9c0.1,0.3,0.1,0.6,0.1,0.9c-0.6,0.1-1.3,0.2-1.9,0.2c-11.6,0.1-11.6,0.1-15,12
			c-2.3,3.1-4.7,3.7-7,0c-1.4-2-1.9-4.3-2.2-6.5c-0.6-4.7-3.1-6.5-7.7-5.4c4.9-2.5,10.2-0.4,15.2-1.1c1.8-0.2,4.1,0.9,4.8-2
			c1-0.8,1.9-0.9,2.9,0.1c1.3,3.3,4.1,1.3,6.1,1.7C300.7,99.9,302.3,99.9,303.9,99.9z"/>
		<path class="st143" d="M248.1,96.1c-1.6,4.3-4.8,3.7-7.5,1.9c-2.6-1.7-5.3-4.2-2.1-7.7c2.7-3,6.4-3,9.2,0
			c-0.3,1.3-0.6,2.6-2.1,3.2c-0.6,0.2-1.8-0.4-1.8,0.6c0,0.6,1.3,0.4,2.1,0.5C246.8,94.8,247.7,95.2,248.1,96.1z"/>
		<path class="st144" d="M228,131.9c2.6-2,2.1-3-2-3.1c2.3-0.9,3.6-1.4,5-1.9c1.4,0,2.7,0,4.1,0c1.3,0.5,2.6,1,4.6,1.8
			c-3.5,0.5-7.7,0.2-4.7,5.3c-1.3,1.1-2.3,2.4-2.7,4c-0.7,0.8-1.7,1.1-2.7,1.2c-1.8-0.2-4.1,0.5-4.6-2.3c0.7-0.7,1.3-1.3,2-2
			C227.8,134.1,226.9,132.6,228,131.9z"/>
		<path class="st145" d="M259,104c0.2,1.9-0.4,4,1.1,5.7c1.6,1.8-0.7,2.5-1.2,3.7c-0.8,2.1-1.8,0.1-2.6-0.2c-7-3.4-7-3.5-0.4-9.2
			C257,104,258,104,259,104z"/>
		<path class="st146" d="M257,128c3.8-0.5,5.1,0.2,3.2,4.5c-1.7,4-2.8,7.9-8,8.3c-0.1-0.3-0.2-0.5-0.2-0.8c-2.4-1.7-0.2-2.5,0.7-3.6
			c0.4-0.5,0.9-0.9,1.3-1.4C257.1,133.6,254.7,129.8,257,128z"/>
		<path class="st147" d="M253.9,135c0,0.7,0,1.3,0,2c-7.2,0-14.5,3-21.7,0c-2.6-4.1,1.1-2.7,2.7-3
			C241.3,134.3,247.6,134.6,253.9,135z"/>
		<path class="st148" d="M245,113c6.9-0.7,10.9,1.2,12.9,5.9C253,118.4,249.3,115.2,245,113z"/>
		<path class="st149" d="M236.1,125.1c-1.4-0.2-3.8,0-3.4-1.8c0.4-1.9,3.1-2.3,4.8-3.6s1.4,1.5,2,2.3c0.4,0.5,0.3,1.2,0.5,1.9
			C238.8,124.8,237.4,125,236.1,125.1z"/>
		<path class="st150" d="M248.1,96.1c-0.9-0.1-1.8-0.3-2.3-1.2c-0.4-0.6-0.4-1.2,0.1-1.7c0.1-1.3,0.5-2.4,1.8-2.9
			C249.6,92.1,251.2,93.9,248.1,96.1z"/>
		<path class="st151" d="M221.1,152c-2.6-0.6-5.3-1.3-7.9-1.9c6,0.6,7.2-4.6,9.7-8.1c1.2-0.8,2.1-0.1,3.1,0.4
			c0.8,0.7,1.6,1.5,1.9,2.6c0.3,0.6,0.6,1.3,0.9,1.9c0.1,1.5-4.2,0.3-2,3.2C225.6,152.8,223,151.4,221.1,152z"/>
		<path class="st147" d="M226.8,150c-1.1-0.1-3.1-0.2-2.8-1.2c0.6-2.3,3.1-1.7,4.9-1.9c5.5,0.4,11,0.9,16.5,1.3c0,0.5,0,1,0,1.4
			C239.3,151.3,233,149.1,226.8,150z"/>
		<path class="st11" d="M232.2,137c7.2,0.2,14.5-1.1,21.7,0c-0.3,1.3-3.3,0.7-2,3c-2.3,1.5-4-0.5-6-1c-5.1,1.9-10.2,0.9-15.4,0.6
			c-0.7-0.3-0.8-0.8-0.5-1.5C231,138,231.8,137.9,232.2,137z"/>
		<path class="st147" d="M228,145c-1.2-0.1-1.9-0.6-1.8-2c0.3-0.4,0.7-0.7,1.2-0.9c1.3-0.3,2.5-0.3,3.6,0.8c5.4,0.5,11.2-1.3,17,2.4
			C240.7,147.2,234.3,144.3,228,145z"/>
		<path class="st147" d="M230,138.9c5.4,0,10.7,0,16.1,0c-0.3,2.4-2.2,2-3.8,2c-3.4,0-6.9,0-10.3,0c-1.1,0.8-2.1,0.5-2.7-0.6
			C228.8,139.7,228.7,138.9,230,138.9z"/>
		<path class="st152" d="M214,157.9c1.7,0,3.4,0,5.1,0c2,2,2,2-2,3.1c-2.2-0.2-4.5,0.4-6.3-1.6C211.3,157.7,212.8,158.2,214,157.9z"
			/>
		<path class="st153" d="M230,138.9c-0.8,2.1,1,1.7,2,2.1c-0.3,0.6-0.7,1.3-1,1.9c-1.3,0-2.6,0-3.9,0c-0.2-1.9-2.2-1.8-3-3
			c-0.3-1.6-2.3-1.5-3.3-3c1.6,0,2.9,0,4.2,0c1.4,1.8,3.5,0.8,5.2,1.2C230.1,138.4,230,138.7,230,138.9z"/>
		<path class="st154" d="M219.1,156.1c-1-0.4-3,0.6-2.6-1.7c0.2-1.3,1.6-1.5,2.7-1.2c0.9,0.2,1.8,0.5,2.7,0.8
			c0.4,0.4,1.3,1.1,1.3,1.2C222.2,156.8,220.5,155.6,219.1,156.1z"/>
		<path class="st155" d="M250.9,145.9c1.6,0.3,3.9-0.6,4.1,2.4c-1.3,0.2-2.7,0.8-3.9,0.5C248.7,148.2,249.2,146.9,250.9,145.9z"/>
		<path class="st156" d="M324.9,88.1c0.4-1,0.7-2.1,1.1-3.1c4.3,0,8.7,0,13,0.1c-0.5,2.4-3.1,4.2-0.5,7.4c0.7,0.8-1.1,4.7,0.6,7.6
			c0.9,1.5-2.4,1.6-3.3,2.9c-3.8,0-7.5,0-11.3,0C324.7,98,324.8,93.1,324.9,88.1z"/>
		<path class="st157" d="M335.9,103c-0.2-1.9,1.9-1.9,3.2-3.1c-1.2-0.5-2-0.7-2.6-1.1c-3.4-2.2,2.1-4.5,0-6.8
			c-3.4-3.8,0.3-5.1,2.5-6.8c1.3,0,1.9,0.6,2,1.8c3,4.9,1.9,10,1,15.1C340.2,103.9,337.8,101.9,335.9,103z"/>
		<path class="st158" d="M342,102c-1.6-4.9,0-10.1-1-15.1c1.9,0,2.8-2.6,5-1.9c0,6,0,12,0,17.9C344.5,103.2,343.2,102.7,342,102z"/>
		<path class="st159" d="M628.1,47.1c1.7-1.6,3.8-0.7,5.6-0.8c12.4-0.2,24.7-0.3,37.1-0.4c4.5-2,8.9-2.1,13,1c-0.7,1.3-1.9,1.1-3,1
			c-13.8-1.2-27.6-1.2-41.4-0.1C635.7,48.1,631.9,47.1,628.1,47.1z"/>
		<path class="st79" d="M683.8,47c-4.3-0.3-8.7-0.7-13-1c0-0.6,0-1.1,0-1.7c1.4-1.5,3.6,0.1,5.1-1.1c2.5,0.1,4.8-0.5,7-1.5
			C686.3,42.9,684.8,45,683.8,47z"/>
		<path class="st160" d="M326,82c-0.3-1.3,0.5-3-1.2-3.9c-2.8,0.5-5.5,0.1-8.2-0.9c-1.6-3.3-4.6-4-8-5c-12.9-3.8-26-1.9-39-1.8
			c-7.3,0.1-14.6-1.1-21.9-1.1c-12,0-23.9,0.2-35.9,1.3c-1.8-0.4-2.9-1.5-3.3-3.2c0-0.8,0.4-1.5,0.9-2.1c4.1,0,8-1.2,10.6-2.5
			c-4.6,1.6-10.3-0.8-16.1-0.5c-2.7,0.1-5.5,1.1-8.2-0.8c-2.2-1.6-2.6-2.9,0.1-4.4c1.4-0.5,2.8-0.4,4.2-0.5c19.6,0,39.1,0,58.7,0
			c13.7,0,27.4,0,41.2,0c2.1,0,4.3,0.3,6.3-1c0.6-0.3,1.1-0.5,1.8-0.7c0.6-0.1,1.2-0.2,1.9-0.3c14.8-0.2,29.6-0.4,44.4,0.1
			c1-0.2,3,1.4,2.9-0.9c-0.3-5.2,2.8-5.2,6.5-4.6c3.1,1.1,6.7-0.6,9.6,1.8c1,2.3,1.3,4.2-2.3,3.9c2.5,1,5.1,0.6,7.7,0.9
			c0.8,0.1,1.6,0.3,2.3,0.5c4.6,1.7,9.4,0.9,14.1,1.1c2.4,0.1,4.9-0.3,7,1.4c-2.4,2.2-5.9,0.3-8.5,2.8c-1.4,1.4-1,2-0.5,3.2
			c-2.7,2.5-6.3,0.6-9.3,1.8c-1.8,0.4-3.1,1.5-4.4,2.7c-1,1-2.1,2.8-3.9,0.9c-0.8-1.6-0.7-3.3-0.8-4.9c0.2-4.4-2.6-5.1-6.2-5
			c-14.1,0.1-28.3,0-42.4,0c-7.2,0-7.2,0.1-7.5,7.2c0,1.7,0.8,3.1,1.9,4.3c2.1,2.2,4.8,2.6,7.7,2.6c8.9,0,17.7,0,26.6,0
			c1.4,0,2.8,0,4.2,0c2.2-0.1,4.4,0,6.6,0c2.9,0.7,5.5-1.7,8.5-0.9c1,1.5,0.5,2.5-1,3.3c-5.6,4.9-11.6,6.9-19,3.4
			c-2.3-1.1-5.8,0.1-8.7,0.6C338.9,82.3,332.3,79.1,326,82z"/>
		<path class="st161" d="M376.1,71c2.8-0.9,2.9-5.7,6.9-5c4.1-1.3,8.4,0.1,12.6-0.4c2.3-0.3,3.1,2.1,4.4,3.4c0,0.3,0,0.6,0,1
			c-1.1,5.1-5.6,6.4-9.6,7.9c-2.7,1-5.7,1.2-8.6,1.7c-0.8,0.1-2.1,0.3-2.3-0.1c-1.4-3-4.1-2.3-6.5-2.5c0.3-1.1,0.7-2.2,1-3.2
			C373.7,72.2,374.6,71.4,376.1,71z"/>
		<path class="st11" d="M292.9,98.1c-1,0-1.9-0.1-2.9-0.1c-1.4-1.1-1.2-2.2,0-3.3c1-0.9,2.1-0.9,3.1,0.1
			C294.2,95.9,294.3,97.1,292.9,98.1z"/>
		<path class="st162" d="M270.1,101.1c0,3.3-0.1,6.6-0.1,9.9c-2.2-3.1-0.6-6.7-1-10C269.4,101,269.7,101.1,270.1,101.1z"/>
		<path class="st163" d="M587.9,50c-4.1-0.7-3.3,2.5-3.6,4.7c-0.4,2.9,1.8,2.4,3.6,2.6c3.4,0.3,6.8-0.8,10.1,0.7
			c-3.6,0.1-7.3,0.1-10.9,0.2c-1.4,0-3.1-0.5-3.3,1.8c-0.6-0.3-1.2-0.6-1.8-1c-1.7-1.8,0.9-5.3-2.6-6.4c-2.2-2.3-4.5-4.6-8.1-4.7
			c-2.8-1.6-1.2-2.7,0.5-3.7c1.7-0.6,3.6-0.4,5.3-1.3c3-1.1,6-1.8,8.9,0.1c-0.2,3.1-3.4,1.4-4.8,3.3c1,1.3,1.5,3.6,4.2,1.9
			C586.6,48.3,587.9,48.2,587.9,50z"/>
		<path class="st164" d="M585.7,63.2c-0.1-1-0.5-2,0.4-2.8c2.3-0.1,4.6,0,6.9-0.4c4.8-0.8,6.7,1.1,5.7,5.9c-0.3,1-0.9,1.6-2,1.6
			c-3.2-1.5-6.6,2.2-9.7-0.5C586.1,65.9,585.8,64.5,585.7,63.2z"/>
		<path class="st18" d="M605.8,61c3.6,1.9,7.4,0.8,11.1,1c0.4,0,0.9-0.3,1.3-0.5c1.4-0.9-2.2-2.8,0.6-3.3c2.6-0.5,4.8,0.7,7,1.9
			c-3.2,4.6-8.1,2.9-12.4,3c-7.3,0.2-7.3,0.1-7.4,7c-0.7-0.3-1.4-0.7-2.1-1c-0.5-0.4-0.7-1-1.1-1.5c0.3,0.6,0.7,1,1.1,1.5
			c-1.7,1.9-3,0.9-3.6-0.8c-0.6-1.8-0.9-4.2,1.5-4.9C603.4,62.8,604.9,62.4,605.8,61z"/>
		<path class="st165" d="M596.9,67c0.6-0.4,1.2-0.8,1.8-1.2c0.2,2.6,0.5,5.2-0.5,8.5c-1.5-2-1.8-4.2-4.7-1.7c-3.2,2.7-6.5,0-6.6-4.6
			C590.4,69,593.6,67,596.9,67z"/>
		<path class="st162" d="M596.9,67c-3,3.1-6.4,3.5-10,1c0-0.4,0.1-0.7,0.1-1.1c2.2-0.3,4.5-0.6,6.7-1.1
			C595.2,65.5,596.4,65.4,596.9,67z"/>
		<path class="st166" d="M607.2,65.7c0.6-0.4,1.2-1.1,1.7-1c10.1,1.2,20.3-1.3,30.4,0.3c1,0.2,2.9-0.7,2.9,1.5
			c0,2.4-1.7,1.8-3.2,1.6c-9.7-1.4-19.4-1-29.2-1.1C609,67,608.1,67.1,607.2,65.7z"/>
		<path class="st159" d="M597.9,51.1c-1.8-1.4-4.1-0.3-6-1c-2.6-1.5-3.4-3.7-2.8-6.6c0.2-0.5,0.5-0.9,0.9-1.2c0.6,0,1.2,0,1.7,0.1
			v-0.2c2.7,4.5,6.3,6,11.6,4.9c4.3-0.9,8.8-0.1,13.3-0.3c1.8-0.1,4.2,0.4,4.3-2.7c-2.2-1.7-4.8-0.1-7.2-1.3c0.8-1.8,2.5-1.5,4-1.6
			c2-1.2,3.9-1.1,5.7,0.4c1.2,2,3.8,3.6,2.2,6.6c-2.5,1.6-5.2,2.4-8.3,2.1C611,49.4,604.5,51,597.9,51.1z"/>
		<path class="st167" d="M568,75.1c1.5-0.8,2.3-3.1,4.5-2.6c1.9,0.4,3.4,1.5,4,3.3c0.7,2.3-1.3,3.1-2.6,4.3
			C570.5,80.1,567.8,79.4,568,75.1z"/>
		<path class="st89" d="M264.2,124.9c-4.3,2-4.3-1.5-5.2-4C263.4,118.3,263.7,118.5,264.2,124.9z"/>
		<path class="st168" d="M401.9,59c-5.4,0-10.8,0-16.2,0.1c-2.2,0-4.2-0.3-5.9-1.9c1.4-7,0.9-7.6-6.4-7.6c-2.8,0-5.6-0.2-8.4-0.2
			c-4.5-0.9-8.9,0.3-13.4,0.1c-2.3-0.1-4.7,0.3-6.7-1.3c0.2-3,2.6-2.4,4.4-2.5c5.8-0.2,11.6-0.1,17.4-0.1c2.6,0,4.9-0.4,6.9-2.2
			c6.6-1.9,13.4-0.7,20.1-0.9c7.5-0.2,7.5-0.1,9.4-6.7c0.6,0,1.1-0.1,1.7-0.1c1.5,3.5,2.5,7-0.8,10.2C401.8,50.1,402,54.6,401.9,59z
			"/>
		<path class="st16" d="M399.9,69.1c-5-4.5-11.3-2.3-17-3c3.2-2,6.7-0.5,10-1C396.1,65,399.4,64.7,399.9,69.1z"/>
		<path class="st169" d="M252,141.9c0.2,0,0.3,0,0.5,0c1.2,0,2.4-1.6,3.6-0.1c0.5,0.6,0.2,1.3-0.5,1.6
			C254,144.2,252.4,144.5,252,141.9L252,141.9z"/>
		<path class="st170" d="M186,81c0,0.3,0,0.6,0,1c-1,1.3-2.3,1-3.6,1c-23.4,0-46.8,0-70.2,0c-1.1,0-2.6,0.1-3.3-0.5
			c-1-0.9,0.3-1.2,1-1.5c0.9,0,1.6-0.6,2.5-0.6c1.1,0.1,2.1,0.4,3.2,0.4c2.4,0.7,2.9-2.3,4.8-2.5c2.2-0.1,4.3,0.4,6.5,0.4
			c2,0,2.6,1.2,3.3,2.6c2-0.9,4.1-1.3,6.3-1.1c2.1,0.2,4.3,0.3,6.5,0.3c8.8,0,17.6,0,26.4,0c7.1,0,7.1,0,7.8-7.1
			c0.1-0.5,0.2-1.1,0.3-1.6c1.2-4.7,4-6.9,9-6.3c1.3,0.2,2.8,0.1,3.8-0.7c4.8-4,9.3-0.7,13.9,0.4c0.2,1.6-0.9,2.9-2,3
			c-4.9,0.3-8.4,4.7-13.5,4.3c-1.8-0.1-2.8,0.8-3.1,2.5c0,0.5,0.1,1.1,0.6,1.2c1.8,0.4,4.4,0,4.2,2.8C190.2,81.7,187.2,79.7,186,81z
			"/>
		<path class="st171" d="M100.1,84c-3.6-5.4-8.6-6.7-14.7-5.1c-1.7,0.4-3.8,0.4-5.4-0.2c-2.8-1.1-4.8-0.3-6.8,1.3
			c-1.6-3.5-0.9-5.7,2.3-5.3c7.2,0.9,14.6-2.5,21.6,1.3c1.4,0.8,3.3,0,4.9-0.4c2.1-0.4,3-1.5,1.5-3.5c-1.1-1.4-1.5-3-0.6-4.7
			c2.2-4.4,1.7-8.3-1.5-12c-0.5-0.5-0.5-1.2,0-1.8c3.6-1.8,5.7,0.2,7.4,3.1c0.7,1.5,0.7,3.1,0.6,4.7c-1.1,3.5-0.3,7.1-1.2,10.6
			C109.3,78.6,103.9,80.8,100.1,84z"/>
		<path class="st172" d="M112,81c-0.7,0.2-1.5,1-2.1-0.1c0.1-1,0.2-1.9,0.3-2.9c1.2-3.9-0.1-7.5-1.2-11.1c-1.2-3.7,0.4-5.6,4.1-6.1
			c4.1-0.6,7.6,1.7,8.2,5.2c0.3,1.8,0,3.6-0.6,5.3c-0.1,3.6-3.9,1.6-4.8,3.1c-1.1,1.8,0.2,4.7-2.3,6C113,80.8,112.5,80.8,112,81z"/>
		<path class="st173" d="M119.1,72c1.9-7.4,0.3-10.2-5.5-9.9c-3.5,0.2-4.8,1.6-3.5,5c0.7,1.7,0.8,3.4-0.1,5c-0.7,0-1.3,0-2,0
			c-1.5-3.3-0.9-6.7,0-10c0.6-0.6,0.9-1.4,1-2.2c0-3.1,2-4.4,4.7-4.8c3.1-0.5,5.6,0.6,6.9,3.6c0.9,2.2,1.9,4.2,3.3,6.1
			c0.6,1.6,0.7,3.2,0.4,4.8C123.6,72.6,122,73.8,119.1,72z"/>
		<path class="st171" d="M110,72.1c0-1.7,0-3.4,0.1-5c1.6,3.7,1.5,7.3,0.1,11C110.1,76.1,110.1,74.1,110,72.1z"/>
		<path class="st40" d="M101,54.1c4.9,3.9,6,7.8,3.1,13.2c-1.2,2.3-1.2,3.6,1,4.8c2.3,1.3,1.3,3.4,0,3.9c-3.1,1.2-7.2,3.3-9.7,1.2
			c-2.8-2.4-4.9-1.5-7.6-1.3c-3.8,0.3-7.7,0.5-11.4-0.1c-4.1-0.6-4.1,1.3-3.4,4.2c-1.5,1.6-2.9,1-4.4,0c-4.9-3-7.9-2.2-11.1,2.7
			c-1.5,2.3-3.3,4.1-6.6,2.8C48.1,84.4,45,85.2,42,85c-1.2-1.5-3.4-2.6-2.2-5.1c2.8-1.3,5.2,0.2,7.6,1c2.6,0.8,3.8,0.5,5.3-2.4
			C55.2,74,57,69.9,56,64.6c-0.5-2.9-1.3-4.3-4.1-4.3c-3.5,0.1-7-0.4-10.4-1.2c-1.1-0.2-2.4-0.4-3.5,0c-3,1.1-7.5,1.4-8.1,4.9
			c-0.5,2.7,3.7,3.7,5.9,5.3c3.2,2.3,6.1,5.4,11,4.1c1.8-0.5,4.6,1.2,4.3,3.8c-0.3,2.7-2.9,2.9-5.1,2.6c-2.6-0.4-5.3-0.8-7.9-1
			c-2.4-0.2-5.1-0.4-6.5,2.4c-2.9,2.6-6,1.9-9.1,0.6c-1.6-0.7-1.8-2.3-1.3-3.9c0.7-2.3,2.5-3.3,4.9-3.6c1.7-0.2,3.5,1.4,5.5-0.5
			c-2.5-1.4-4.6,0.4-6.7,0.6c-1.4,0.1-2.8,0.9-4.3,0.1c-3-1.5-5.5-7.2-4.8-11.9c0.6-4,3-6.6,7-7.3c0.3-0.1,0.7-0.1,1-0.1
			c5,0.4,8.7-5.7,13.3-3.6c4.8,2.1,9.2,1.9,13.9,1.3c0.8-0.1,1.7,0.1,2.4,0.5c8.7,4.8,17.6,3.4,26.5,0.7c5.1-0.8,10.2-1.6,15.4-1.3
			C97.4,52.7,99.5,52.4,101,54.1z"/>
		<path class="st74" d="M79.1,55c-8.4,3.6-16.7,3.9-24.9-0.4c-1.2-0.6-2.3-1.7-3.7-0.7c-3.5,2.4-7.5-1.1-11,1
			c-0.1,0.1-0.4,0-0.5-0.1c-3.2-5.6-6.2-0.3-9.2,0.2c-1.6,0.3-3.3,1.6-4.7,1.3c-4.2-0.7-6.7,1.7-7.6,4.8c-1.1,4-0.3,8.2,2.8,11.5
			c2.4,2.5,4.6,0.4,6.9-0.3c2.2-0.6,4.2-2.6,6.3-0.2c0.8,0.8,0.6,1.8,0,2.8c-1.8,3-3.9,1.1-6,0.4c-2.5-0.9-4.4,0.3-5.1,2.6
			c-1,3.1,1.7,3,3.5,3.4c2,0.5,4.3,2,5.3-1.4c3-1.3,6-2.3,9,0c0.7,1.7,1.3,3.3,2,5c-2.6-0.7-5.1-1.5-7.6,0.3c-1.9,1.4-3-0.6-4.4-1.2
			c-1.5-0.7-2.9-1.3-3,1.3c-0.1,2.5,0,4.8-1.5,7.1c-1.1,1.7,1.3,2.7,2.3,3.9c0.9,1,1,2,0.3,3.1c-1.1,1.8-2,0.2-2.8-0.3
			c-1.6-1-3.9-0.9-4.9-3.1c-0.5-1.1-1.2-2.8-2.9-1.5c-1.2,1-0.8,2.5,0.2,3.6c1.2,1.5,2.8,2.7-0.2,4c-2.1,0.9-3.2,0.3-3.5-1.8
			c-1.4-10.4-2.7-20.9-4.1-31.3c3.4-2.2,4.3-5.2,3.9-9.2c-0.4-3.5,0.9-6.8,3.1-9.7c1.5-2,3.3-3,6-2.3c8.6,2.1,11.3-0.5,9.7-9.2
			c0.2-0.7,1.1-1.3,1.5-0.9c3.7,3.2,5.7,0.5,7.9-2c2.1-0.4,3.8-0.1,5.6,1.3c2.8,2.2,5.7,3.4,7.9-0.8c0.2-0.4,0.9-0.3,1.4-0.1
			c0,2.3,0,4.7,0,7c-1.2,2.2-3.1,2.1-5.2,1.7c-2.3-0.4-4.5-1.2-6.8-1.5c-2.5-0.3-4.3,0.9-4.6,3.4c-0.3,2.6,1.9,2.8,3.6,3
			c5.5,0.7,10.7,1.8,16.1,4c3.9,1.6,9.7,1.8,14.4-0.7C76.4,53.1,78.5,52.3,79.1,55z"/>
		<path class="st38" d="M33.1,38.1c3.1,3.3,2.3,7.3,0,9.9c-2,2.2-5.7,4.3-9.3,1.5c-2.8-2.2-4.7-0.5-6.1,1.7c-2,3.1-3.4,6.7-2.5,10.4
			c1.2,4.8-0.6,6.9-5.1,7.5C9,61.4,8.2,53.6,6.8,45.9c-0.5-2.6-0.6-5.2-0.7-7.8c2.1,0.2,3.8-0.3,5.4-1.8c2.3-2.1,5.1-3.3,8.1-1.1
			c2.4,1.8,3.7-1.5,5.9-1.1c2.1,0.4,4.3,0.1,6.5,0.1l0,0C32.7,35.3,33.9,36.5,33.1,38.1z"/>
		<path class="st174" d="M215,166.9c-3,2.4-4.8,1.1-6-2c1.9-3.9,5.2-1.5,7.9-1.9C217.3,164.8,215.6,165.6,215,166.9z"/>
		<path class="st154" d="M224,139.9c1.5,0.3,3.4-0.6,4.4,1.2c0.2,0.3-0.9,1.2-1.3,1.8c-0.3,0.1-0.6,0.1-0.8,0.1
			c-1.1-0.3-2.2-0.7-3.2-1C221.9,140.6,223.3,140.4,224,139.9z"/>
		<path class="st153" d="M228,131.9c0,1.1,0.3,2.4-1.1,3c-0.8-1.6-3.9-0.1-3.9-2.9C224.7,131.9,226.3,131.9,228,131.9z"/>
		<path class="st175" d="M590,42.2c-0.1,0.2-0.1,0.5-0.2,0.7c-0.6,0.9-0.3,2.4-1.9,2.6c-1-0.1-1.8-0.6-1.9-1.7
			c-3.1-1.8-6.1-0.5-9.1,0.2c-2.1,0.6-4.1,0.3-5.9-1.1c-0.4-0.8-1.2-0.9-2-0.7c-1-0.4-2.3,0.5-3.1-0.7c-0.1-0.2,0.7-0.9,1-1.4
			c7.2-1.2,14.4,0.6,21.6,0.7C589.1,41.3,589.5,41.8,590,42.2z"/>
		<path class="st176" d="M530.9,32.1c0.9,1.6,3,0.4,4,1.8c-1.8-0.1-3.5,0.1-5.1,1.3c-3,2.3-6.1,2.1-9.1-0.1
			c-1.6-1.2-3.2-1.8-4.9-0.4c-4.2,3.4-7.9,2-11.7-0.8c-0.9-0.8-2.2-0.2-3.2-0.7c-0.5-1.1,0.3-1.6,1-2.1c1.8-1.3,3-0.5,4,1
			c3.5,2.5,6.7,0.8,10-0.4c0,0.2,0,0.4,0,0.5c1.4,0.3,2.7-0.7,4.2-0.4c0.2,0.1,0.5,0.2,0.7,0.3C524.2,34.7,527.6,32.8,530.9,32.1z"
			/>
		<path class="st177" d="M477,31.1c3-1.7,6,0.9,9,0c0.7,0.8,0.6,1.5,0,2.2c-2.9,0.9-6-0.6-8.9,0.8c-3.6,2.7-7.2,3.6-11.1,0.6
			c-1.9-1.5-4-1.1-5.8,0.5c-0.5,0.2-0.9,0.2-1.4,0c-0.4-1.8,0.6-2.7,2.1-3.2c1.5-1.5,3-2.6,5-0.8C469.6,34.8,473.3,33.6,477,31.1z"
			/>
		<path class="st62" d="M477,34.1c2.8-1.7,5.9-1,8.9-1.2c1.9-1.4,4.1-0.7,6.2-0.9c2.9,0.4,6.1-0.9,8.8,1c1,0.2,2.3-0.2,3.1,0.9
			C495,34.1,486,34.1,477,34.1z"/>
		<path class="st178" d="M452,49.1c5.2,0.3,2.5,4.2,2.9,6.6c0.5,2.7-1.8,1.2-2.9,1.5C452,54.4,452,51.7,452,49.1z"/>
		<path class="st179" d="M444.9,35c-0.4-0.4-0.7-0.8-1.1-1.2c0-1.6,0.8-2.5,2.3-2.6c1.6-1.3,3.1-1.3,4.7,0c1,0.4,1.4,1.1,1.5,2.1
			c-0.3,0.7-0.6,1.2-1.5,0.9C448.8,34.1,446.7,33.7,444.9,35z"/>
		<path class="st180" d="M450.8,34.3c0.4-0.3,0.7-0.7,1.1-1c2.5-0.7,4.6,0.6,6.7,1.7c0.5,0.1,1.1,0.2,1.6,0.3
			C456.7,38,453.6,37.1,450.8,34.3z"/>
		<path class="st181" d="M443.1,50.9c0-1.4-0.7-2.9,0.9-4c1.3,0.8,3.9-0.9,3.9,2.1C446,48.9,444.3,49.1,443.1,50.9z"/>
		<path class="st182" d="M493.7,42.7c-0.3,1.1-1.1,1.4-1.9,1.3c-1,0-1.9-0.4-1.9-1.6c0.1-1,0.8-1.2,1.7-1.2
			C492.7,41.3,493.3,42,493.7,42.7z"/>
		<path class="st183" d="M419.9,44c-2.3,0.3-3.3-0.7-3-3C420.2,39.8,420.2,41.7,419.9,44z"/>
		<path class="st67" d="M192.2,41.9c1.8-5.1,1.2-10.4,1.3-15.5c0.1-3.6,1.4-3.3,3.7-3.3c16.6,0,33.2,0,49.9-0.1
			c1.1-0.9,2.3-1.3,3.7-1.3c9.4,0.3,18.9-0.4,28.3,0.3c5.1,0.4,10.5-0.4,15.8-0.4c5.6,0,11.3-0.5,16.9,0.4c0.6,0.2,1.1,0.5,1.5,0.9
			c1.1,2,1.1,4.1,1.1,6.3c0,7.4-0.9,7.9-8.2,8C288,37.4,269.7,36.7,255,37c11.5,0,26.6-0.2,41.7,0.5c4.5,0.2,9-0.6,13.4,0.1
			c1.1,0.2,2.6,0,1.4,1.9c-6.7,2.3-13.5,0.9-20.3,1c-29.6,0.4-59.2,0.2-88.9,0.2c-2.8,0-5.7,0.2-8.3,1.4
			C193.4,42,192.8,42,192.2,41.9z"/>
		<path class="st184" d="M194,42.1c0.1-2.9,2.1-2.9,4.2-2.9c18.6,0.2,37.3,0.1,55.9,0.2c16.6,0,33.2-0.1,49.9-0.3c2.7,0,5.3,0,8,0
			c0.2,0.1,0.4,0.2,0.6,0.3c1,1.2,0.5,2.2-0.4,3.1c-1.7,0.8-2,3.1-3.7,3.9c-0.5,0-1-0.2-1.4-0.5c-2.5-2.2-7-1.2-8.2-5.6
			c-0.7-0.1-1.2,0.8-0.7,0.3c0.1-0.1,0.1,0.1,0.4,0.3c2.2,1.4,1.9,2.6-0.3,3.4c-2.9,1.1-9.5-0.4-12-2.7c-1-0.9-2-0.2-2.5,0.3
			c-3,2.9-6.7,2.5-10.3,2.5c-23.5,0-46.9,0-70.4,0c-2.3,0-4.7-0.4-6.9,0.6c-0.5,0.3-1,0.4-1.5,0.4c-0.2-0.1-0.5-0.2-0.7-0.3
			C194,44.1,194,43.1,194,42.1z"/>
		<path class="st185" d="M59.1,47.1c0-0.7,0.1-1.4,0.1-2c2.7,0.4,6.4-1.4,7.1,3.4c0.1,0.7,1.9,0.8,2.1,0.1c2.4-6.7,8-2,11.9-3.6
			c3.9-2.4,7.8-1.2,11.6,0c2.4,0,4.8,0,7.3,0.1c4.7-1.7,9.3-2.6,13.9,0.1c-1.9,3.5-0.4,4.9,3.2,4.9c3.6,0,7.3,0,10.9,0
			c-0.8,3-3.3,2.3-5.3,2.3c-7.8,0.1-15.6,0.1-23.4,0c-9.5-1.2-19-1-28.6-1c-3.7,0-7.6,1.1-10.9-1.8C58.5,48.8,58.4,47.9,59.1,47.1z"
			/>
		<path class="st186" d="M98.1,51.1c8.1,0,16.2,0,24.3,0c1.6,0,3.4,0.4,4.7-0.9c13.3,0,26.6,0,39.9,0c0.3,0.2,0.4,0.5,0.4,0.8
			s-0.1,0.4-0.1,0.5c-1.2,4.2,2.1,10,6.7,11.5c2.1,0.7,4.3,1,5,3.5c0.2,1,0,2-0.7,2.8c-4.8-2.3-10-4-13.7-8.2c-3-3.4-6.9-4-11.4-3.2
			c-9.3,1.6-18.8,0.2-28.2,0.8c-0.7,0-1.2-0.5-1.3-1.2c0.6-3.7,3.6-4.4,6.4-4c6.6,0.8,13.2-0.6,19.1-0.2
			c-13.4,0.1-27.4,0.6-41.4,0.4c-2.1-0.4-4.2-0.3-6.3-0.4C99.9,52.9,98.2,53.3,98.1,51.1z"/>
		<path class="st187" d="M178,69.1c0-1,0-2,0-3c1.1-1.5,0.1-2.3-0.8-3.3c-1-1-2.4-1.9-1.2-3.7c1.7,0,3.3-0.1,5-0.1
			c4-2.2,8.4-0.9,12.6-1.7c0.6,0.1,1.1,0.4,1.5,0.9c-0.3,3.3,3.4,3.9,4.4,3.5c2.6-0.9,4.8-0.2,7.2-0.2c5.6,0,11.2,1.6,16.8,0
			c0.7-0.2,2,0.4,2.2,2.6c-5.8-3-9.7,5-15.6,1.9c-2,0.2-4,0.8-6-0.1c-1.2-1.4-2.8-1.2-4.1-0.7c-1.9,0.7-3.4,0.9-4.8-1
			c-1.2-1.7-1.9-0.5-2.4,0.6c-0.8,1.8-2.2,2.4-4,2.1c-4.6-0.7-8.6,0.1-10.5,5c-0.2-0.2-0.3-0.3-0.5-0.5
			C177.2,70.6,177.2,69.8,178,69.1z"/>
		<path class="st188" d="M113,45.2c-4.6,0-9.3-0.1-13.9-0.1c0.4-1.6,2.2-1.7,3-2.9c2.2-2.2,5.1-1.3,7.5-1.3
			c6.5-0.1,13.1-1.8,19.4,1.2c14.4,0.6,28.9-1.2,43.1,1.2c0,0.6,0,1.3,0,1.9C152.4,45.2,132.7,45.2,113,45.2z"/>
		<path class="st185" d="M129,42c-9,0-18,0.1-26.9,0.1c-4,0-8,0-12.2,0c2.5-2.6,12-4.8,14.9-3.1c1.6,0.9,2.7,0.5,4.1,0.2
			c6.7-1.2,13.5-2.3,20.1,0.8C129.1,40.7,129,41.4,129,42z"/>
		<path class="st17" d="M183,51.1c3.6-5.6,4.3-5.7,9.3-1.5c1.1-1.3-1.7-4.1,1.6-4.4l0,0c0.6,0.6,1,1.3,1.2,2.1
			c0.3,3.2,1.6,6.5-1.2,9.3c-1.8,0.8-3.8,1.3-5.8,1.3C184.3,58,182.3,55.2,183,51.1z"/>
		<path class="st189" d="M176,59.1c0.1,1.7,1.2,2.3,2.5,3.1c2.3,1.4,2.3,2.9-0.5,3.9c-0.7-0.5-1.3-1.4-2-1.4
			c-7.2,0.2-8.2-6.2-11.2-10.4c-1.6-2.2,0.3-2.8,2.1-3.1c2.2,2.2,4.1,4.5,6,7C173.7,59.3,175,58.9,176,59.1z"/>
		<path class="st68" d="M175,56.3c-2-1.2-3.5-2.7-2.8-5.2c0.5-1.9,1.9-3.3,3.7-3.7c2.8-0.6,3.9,1.8,5.2,3.7
			C181.4,55.6,180.5,56.3,175,56.3z"/>
		<path class="st190" d="M175,56.3c3.3-0.2,5.6-1.6,6-5.2c0.7,0,1.3,0,2,0c0.5,4.3,2.2,6.8,7.1,5.2c1.2-0.4,2.6-0.2,3.9-0.2
			c0.5-0.2,1-0.1,1.1,0.4c0.2,0.8-0.4,1.1-1,1.5c-4.3,1.6-8.7,1.1-13.1,1c0.8-1.5,0.1-1.9-1.4-2C178.1,57,176.4,57.6,175,56.3z"/>
		<path class="st191" d="M186.1,35.1c-2,2.6-4.3,3.6-7.1,1c-1.9-2.2-0.7-3.9,1-5.5c1-1,2-1.5,3.5-0.8
			C186,30.9,186.2,32.8,186.1,35.1z"/>
		<path class="st190" d="M173,58.1c-2.7-1.7-4.6-4.2-6-7c0-0.3,0-0.7,0-1C169.4,52.5,172.1,54.6,173,58.1z"/>
		<path class="st192" d="M430.9,32c-3.3,2.6-6.6,5.1-10,0.1c1.5-5.4,6-2,9-3c0.4,0.7,0.8,1.5,1.2,2.2l0.1,0.4L430.9,32z"/>
		<path class="st193" d="M91.9,45c-3.9,0-7.8,0-11.6,0C82.4,41,88.5,41,91.9,45z"/>
		<path class="st194" d="M66.1,33.9c0.2,0.1,0.5,0.3,0.7,0.3c0,1.3,0.2,2.7-0.1,3.9c-0.4,1.7-1.8,2.2-3.5,1.9
			c-1.5-0.3-2.3-1.3-2.3-2.7c0.1-3.3,1.8,0.4,2.5-0.6C64.3,35.7,65.3,34.9,66.1,33.9z"/>
		<path class="st26" d="M75.1,35c-0.1,1.7,0.6,3.7-1.6,4.8c-1.1,0.5-2.3,0.5-3.3-0.2c-1.1-0.7-1.5-2-1.1-3c0.7-1.9,1.2,0.6,2,0.3
			C72.4,36.2,73.8,35.6,75.1,35L75.1,35z"/>
		<path class="st195" d="M477,31.1c-5,5.4-7.6,5.4-11.1,0.1C469.1,28.3,473.6,28.3,477,31.1z"/>
		<path class="st196" d="M547.2,30.2c-4.2,6.5-7.3,6.7-11.3,0.9C539.4,27.5,543.3,29,547.2,30.2z"/>
		<path class="st197" d="M458.5,35c-2.4,0-4.7-0.2-6.7-1.7c-0.9-0.4-1-1.2-1.1-2c3.8-3.4,8-3.1,10.1,0.7C460.1,33,459.3,34,458.5,35
			z"/>
		<path class="st198" d="M562,31.2c-2.8,3.4-5.8,6-10,1.7c0.1-1.4-0.6-3.5,1.5-3.6C556.4,29.2,559.8,27.7,562,31.2z"/>
		<path class="st192" d="M446.1,31.3c-0.8,0.9-1.6,1.7-2.3,2.6c-3.1,1.9-5.8,1.4-8-1.6C437.2,28.2,442.2,27.7,446.1,31.3z"/>
		<path class="st199" d="M515.9,31.7c-4.9,4.3-6.2,4.4-10,0.4C508,28,513.1,27.8,515.9,31.7z"/>
		<path class="st197" d="M530.9,32.1c-3.3,2.5-6.7,5.1-10.1,0.1c2.1-4,6.3-4.4,10.3-0.9C531.1,31.6,531,31.8,530.9,32.1z"/>
		<path class="st200" d="M501,33.1c-3,0-6,0-9,0c-0.6-1.3-3.2,0.6-3-1.9c4.3-0.8,8.6-0.2,12.9,0C501.6,31.8,501.3,32.5,501,33.1z"/>
		<path class="st201" d="M430.9,32c0.1-0.2,0.2-0.5,0.2-0.7c1.5-0.8,3.1-2.3,3.9,0.7C433.7,33.6,432.3,33.6,430.9,32z"/>
		<path class="st202" d="M520.1,31.9c-1.3,1.6-2.7,1.6-4.2,0.4C517.2,30.8,518.4,28.5,520.1,31.9z"/>
		<path class="st203" d="M489,31.2c1,0.6,2,1.3,3,1.9c-2,0-4-0.1-6-0.1c0-0.6,0-1.3,0-1.9C487,30.4,488,30.6,489,31.2z"/>
		<path class="st186" d="M403.1,36c2,7.1,1.2,8.1-6.1,8.1c-7.7,0-15.3,0-23,0c-3.4-0.8-1.8-4.1-3-6c0.4-6.2,3.4-7.6,11-5
			c-1.9,2.9-4.6,0.8-6.6,1.4c2.4,0.4,5.3,0,8.1,0c4.3,2.1,8.8,0.8,13.2,1.1C398.8,35.8,400.9,35.2,403.1,36L403.1,36z"/>
		<path class="st204" d="M371,38.1c3.8,0.6,0.8,4.6,3,6c-0.9,2.3-2.5,3.1-5,3c-6.4-0.2-12.9-0.1-19.4-0.1c-1.6,0-3.3-0.5-4.7,0.9
			c-0.6,0.8-1.6,1.3-2.6,1.3c-8.2,0.1-16.5,0.9-24.6-0.4c-1.5-0.8-1.8-2.1-1.6-3.6c1.5-2.3,0.6-4.7,0.1-7c0.1-0.4,0.2-0.8,0.5-1.2
			c1.8,0.5,1.6-3.1,3.7-1.9c0.3,0.4,0.5,0.8,0.6,1.2c0.5,1.6,0,3.3,0.9,5.4c1.4-2,0.4-4.4,2-5.9c0.5-0.2,0.9-0.2,1.4,0
			c0.9,0.7,1.6,1.5,2.8,1.9c2.7,0.9,3.1,2.6,0.6,4.7c6.3,0.5,12.1-0.3,17.8,0.6c4.3,1,8.6,0.3,12.9,0.5c2.3,0,4.5,0,6.8,0.1
			c3.5,0.2,4.7-1.4,3.9-4.8C370.3,38.7,370.7,38.4,371,38.1z"/>
		<path class="st186" d="M369,21.1c0.3,0.7,0.7,1.3,1,2c-5.9,0-11.8,0.1-17.7-0.1c-3.2-0.1-4.5,0.9-4.3,4.2c0.2,2.6,0,5.2,0,7.9
			c0.3,0.2,0.4,0.4,0.3,0.7c-0.1,0.2-0.2,0.3-0.3,0.3c-1.4,2.7,0,2.3,2,2.3c6-0.1,12.1-1.2,18,0.7c-1.2,1.4-2,3.3-4.4,3.3
			c-3.7-1.6-7.4-0.5-11.2-0.3c-1.8,0.1-3.6,0.3-5.4-0.2c-2.9-0.8-4-2.6-3-5.6c1.5-11.5,1.3-11.7-9.7-11.7c-5.1,0-10.3-0.1-15.4,0.2
			c-1.5,0.1-2.6-0.5-3.2-1.9c0-1.6,0.9-2.3,2.3-2.7c2,0,4.1,0,6.1,0.1c5.9,1.6,11.8,1.5,17.7,0.1C350.8,21.8,359.9,20.8,369,21.1z"
			/>
		<path class="st67" d="M348,36.1c0-0.3,0-0.6,0-1c2.2-1.3,7.1-0.6,4-5.9c-0.8-1.4,2-3.1,3.4-3.4c2.3-0.5,5.1-0.1,6.8,1.8
			c1.4,1.6-0.7,2.5-1.8,3.3c-5.5,3.9,2.6,2.4,1.3,5.2C357.4,36.1,352.7,36.1,348,36.1z"/>
		<path class="st205" d="M364,41.9c1.5-0.8,1.5-3.6,4-2.9c0.7,0,1.3,0,2,0c2.6,0.2,2.5,2.1,2.3,3.9c-0.2,2.2-1.9,1.8-3.3,1.9
			c-2.9,0.1-5.9,0.1-8.8,0.1c-0.4-0.3-0.6-0.7-0.4-1.1C360.9,42.4,362.1,41.4,364,41.9z"/>
		<path class="st206" d="M384,35.1c-3.2,0-6.5,0-10.3,0c2.9-2.2,6.2,0.4,8.3-2c1-0.9,1.9-1.8,2.9-2.8c1.3,0.5,0.9,1.7,1.1,2.7l0,0
			C385.3,33.8,385.2,34.9,384,35.1z"/>
		<path class="st207" d="M313,23.1c-22,0-44,0-66,0c0.1-0.4,0.1-0.7,0.2-1.1c2.4-1.3,4.9-1.4,7.6-1.1c2.4,0.3,5,0.7,7.2-0.8
			c10.3,0,20.6,0,31,0c5.3-0.8,10.7-0.8,16,0l0,0C310,21.5,313,20.2,313,23.1z"/>
		<path class="st208" d="M341.8,20.2c0,1.2-0.7,1.9-1.8,1.9c-4.8,0-9.5,0-14.3,0c-1.3,0-1.7-0.8-1.6-1.9
			C330,20.2,335.9,20.2,341.8,20.2z"/>
		<path class="st67" d="M262,20.1c-1,2.1-2.9,2.3-4.7,1.9c-3.4-0.9-6.8-0.1-10.2,0c0-0.7,0-1.3,0.1-2
			C252.2,20.1,257.1,20.1,262,20.1z"/>
		<path class="st67" d="M313,23.1c-1-1.4-3.5-0.9-4-3c3-0.6,6-2.2,9,0c-0.4,1-1.1,1.6-2,2C315.3,23.4,314.5,24.2,313,23.1L313,23.1z
			"/>
		<path class="st67" d="M309,20.1c-5.3,0-10.7,0-16,0C298.3,18.5,303.7,18.5,309,20.1z"/>
		<path class="st209" d="M46.8,28.1c-8.2,0-16.4,0-24.6,0c-2-2.3-0.9-3.9,1.6-4c7.1-0.2,14.2-0.2,21.3,0
			C48,24.1,48.5,25.8,46.8,28.1z"/>
		<path class="st210" d="M57,36.1c-0.3,0.2-0.5,0.5-0.8,0.5c-2.7,0.2,1.1,6.9-3.7,4c-1.9-1.2-5.5,0.7-6.1-3.3
			c-0.1-0.6-2.8-0.8-4.3-1.2c-1.4-1.1-2.1-2.3-1-4c3.6,1.2,7.4,1.1,10.9,2.6c2.3,1,3.1-2.2,5.1-2.7C58.9,33.4,57.5,34.7,57,36.1z"/>
		<path class="st211" d="M41.1,32.1c0.3,1.3,0.7,2.6,1,4c-2.5,1.1,0.4,5.7-3.3,5.5c-2.2-0.1-3-3.5-5.7-3.5c-0.7-1.2-1.2-2.5-1-4
			c0.7,0.1,2.1,1.3,1.5-0.9c-0.2-0.7-0.6-2.1,0.7-1.1C36.8,33.9,38.9,30.7,41.1,32.1z"/>
		<path class="st212" d="M387.8,30.2c0.5-1.4-1.5-2.8,0.1-4.2c3.6,0,7.3,0.1,10.9,0.1c2.9-0.1,4.3,1.2,4.2,4.1v0.1
			C398,30.8,392.9,30.8,387.8,30.2L387.8,30.2z"/>
		<path class="st79" d="M621,44c1.3,0.3,2.1,0.9,1.7,2.4c-0.3,1.1-1.3,1.4-2.3,1.5c-7.5,0.1-14.9,0.2-22.3,0.8
			c-3.4,0.3-6.7-2-6.2-6.6c0.4-0.1,0.8-0.1,1.3-0.2c2.8-1.3,3.8,3.3,6.7,2.1c2.4,0.3,4.9-0.7,7.1,0.9C611.5,44.7,616.3,44.3,621,44z
			"/>
		<path class="st213" d="M598.9,45c-3.1,1.2-3.3-3.2-5.9-3c-0.2-2,1.2-2.8,2.2-1.3c2,2.9,5,2,7.6,2.5
			C602.5,45.8,599.9,43.7,598.9,45z"/>
		<path class="st159" d="M598.9,45c1.3-0.6,2.6-1.2,3.9-1.8c1.3,0.6,4-1.9,3.9,1.8C604.2,45,601.5,45,598.9,45z"/>
		<path class="st168" d="M384,35.1c0.7-0.7,1.3-1.3,2-2c0,2.7,2,1.9,3.5,2c4.5,0.5,9.1-0.8,13.6,0.9c-6.1,0.8-12.4-0.6-18.5,0.7
			C383.1,37,383.9,35.7,384,35.1z"/>
		<path class="st86" d="M387.9,30.2c5.1,0,10.1,0,15.2,0C398,31.4,392.9,31.8,387.9,30.2z"/>
		<path class="st214" d="M624.9,27.1c0,3.6,0,7.1,0,10.7c-1.3,0-3.3,1.7-3.2-1.4c0-1.5-1.2-1.2-2.1-0.9c-1.9,0.6-3.8,0.6-5.7-0.4
			c-0.1-1-3.7-1.8-0.2-2.9c1.4-1.2,4,1.1,4.9-1.7C619.4,27,620.7,24.2,624.9,27.1z"/>
		<path class="st9" d="M624.9,27.1c-4.1-2-4.3,2.1-6.1,3.8c-1.3,1.3-2.6,1.4-3.9-0.1c-1.3-1.7-0.7-4.4-3-5.6c3.3,0,6.5-0.1,9.8-0.1
			C623.2,25.1,624.9,24.8,624.9,27.1z"/>
		<path class="st215" d="M615,30.8c1.3,0.6,2.6,0.5,3.9,0.1c1.2,0.3,2,0.9,0.5,1.8c-1.9,1.1-3.9,0.5-5.7-0.6
			C614.1,31.7,614.6,31.2,615,30.8z"/>
		<path class="st38" d="M59.1,47.1c0,0.7,0,1.3,0,2c0.4,3.7,3.4,3.4,6,3.7c3,0.4,6.3-0.9,9,1.4c-5.9,2.3-11.7,2.9-17.3-0.6
			c-4-2.6-8.6-1.4-12.8-2.3c-2-0.4-4.4-0.4-5.1-2.4c-0.5-1.7-0.2-4.1,1.5-5.4c1.8-1.4,3.6-2.4,6.3-1.3c3.2,1.3,6.7,3,10.3,1
			C57,44.8,57.2,46.3,59.1,47.1z"/>
		<path class="st48" d="M675.9,43.1c-1.5,1.4-3.4,0.7-5.1,1.1c-12.6-0.1-25.2-0.1-37.8-0.2c-1.7,0-3.7,0.8-5.1-1
			C643.9,43.1,659.9,43.1,675.9,43.1z"/>
		<path class="st9" d="M572,47.1c4-0.6,6,2.2,8,4.9c-0.5,3.3-3,4.5-5.8,4.9c-2,0.3-3.9-0.4-4.2-2.9c-0.7-1.2-1.2-2.5-1-4
			C568.6,47.6,571,48.1,572,47.1z"/>
		<path class="st61" d="M569.9,54.1c4.5,3.1,5.8,2.9,10-2c4.1,1.3,1.2,4.7,2,6.9c-1.1,0.2-2.2,0.4-3.4,0.7c-0.4-2.2,3.2-2.3,1.8-5
			c-1.7,0.5-2.6,2.2-4,3.4c-1.4,1.2-3.2,1.5-4.5,0.3C570.9,57.3,567.7,56.8,569.9,54.1z"/>
		<path class="st134" d="M572,47.1c-1,1-2,2-3.1,2.9c-0.6,0.9-1.2,1.8-1.9,2.7c-2.2-5.6-1.6-7.2,3-8.8c1.1-0.4,2-0.7,2,1.1
			c-0.5,0.4-1.2,0.8-1.3,1.3C570.5,47.1,571.5,46.9,572,47.1z"/>
		<path class="st216" d="M572,45c-0.7-0.4-1.3-0.7-2-1.1c0.3-0.3,0.7-0.6,1-0.9c2,0.4,3.9,0.7,5.9,1.1C575.5,45.9,573.6,44.8,572,45
			z"/>
		<path class="st217" d="M517.8,58c-0.2-0.4-0.7-0.8-0.7-1.2c0-3.6,0.2-7.2-3.2-9.7c2.7-0.3,4.4,0.4,4,3.6
			C517.7,53.1,517.8,55.5,517.8,58z"/>
		<path class="st218" d="M482.8,58c-1.3-1.5-0.9-3.4-0.7-5.1c0.3-3.2-1.2-4-3.9-3.9c0.2-2.8,2.2-1.9,3.7-1.7
			c1.6,0.2,1.1,1.8,1.1,2.8C482.9,52.7,482.8,55.3,482.8,58z"/>
		<path class="st9" d="M505.1,55.3c-0.1,0.3-0.2,0.5-0.3,0.7c-2.1,0.2-4.2,0.2-3.8-2.9c0.3-2.5,1.7-2.9,3.8-2h0.1
			C506.1,52.4,506.2,53.8,505.1,55.3z"/>
		<path class="st112" d="M541.9,56.5c-1.1-2.3-1.2-4.5-0.1-7.7C543.4,51.9,543.1,54.2,541.9,56.5z"/>
		<path class="st219" d="M426.9,49.1c3.8,1.8,1.5,4.8,1.8,8.5C426.1,54.3,427.5,51.5,426.9,49.1C426.9,49,426.9,49.1,426.9,49.1z"/>
		<path class="st107" d="M463.4,48.9c0.7,3,0.9,5.3-0.6,7.5C462,54.1,461.3,51.8,463.4,48.9z"/>
		<path class="st120" d="M505.1,55.3c-0.1-1.4-0.1-2.8-0.2-4.2c1-0.2,1.7-2.7,2.5-1.2c1,1.9,1.2,4.6-0.2,6.5
			C506.5,57.5,506,55.5,505.1,55.3z"/>
		<path class="st220" d="M288.9,118.9c1.5,2.5,3.9,4.4,4.7,7.6c-4.6,0.7-6.1-3.3-8.7-5.5C285.5,119.2,286.6,117.9,288.9,118.9z"/>
		<path class="st221" d="M288.9,118.9c-1.7,0-2.6,1.6-4,2.2c-3.4-1.6-3.2-5.4-4.8-8.1c2.3,3,4.7,0.4,7,0c1,0.3,0.9,1.2,0.9,2
			c-1.5,1.6,0.9,2,0.9,3.1C288.9,118.3,288.9,118.6,288.9,118.9z"/>
		<path class="st220" d="M288.8,118c-0.9-1.3-3.2,0.7-3.6-1.3c-0.3-1.9,1.4-1.7,2.6-1.8C288.4,115.9,289.1,116.8,288.8,118z"/>
		<path class="st222" d="M304,98c1-6.5,4.9-9.6,9.3-7.2c2.9,1.6,4.9,4.1,2.9,7.2c-1.8,2.9-4.9,4.4-8.4,2.8
			C306.4,100.2,305.2,99,304,98C303.9,98,304,98,304,98z"/>
		<path class="st223" d="M211.1,70c17.3-3,34.6-2.2,51.9-1.2c8,0.5,16.1-0.4,24.1-0.4c5.7,0,11.9-1.8,17.3,1.8
			c1.9,1.3,4.2,0.5,6.3,0.9c3.4,0.5,6.8,1.1,6.2,5.9c-2.2,2.5-5.9-0.5-8.1,2.1c-1,1.3-2,2.6-3,3.9c-3.7,0.9-3.1-3.7-6.1-4.4
			c-5.3-1.2-10.5-0.8-15.6,0c-4.7,0.7-9.1,0.4-13.7,0c-7.5-0.7-15.2,0.1-22.7-0.9c-5.2-0.7-10.4,2.7-15.6-0.4c-2-1.2-5-0.7-7.6,0.5
			c-4.3,1.9-13.6-2-14.7-5.6C210,71.2,210.2,70.4,211.1,70z"/>
		<path class="st224" d="M204,66c2-1.1,4-1.3,6,0.1c-0.4,0.4-0.8,0.8-1.2,1.2c-3.1,0.9-5.3,3.4-8.4,4.5c-5.7-0.2-6,0.2-4.5,5.4
			c0.4,0.4,0.8,0.9,1.2,1.3c-1.5,1.2-2.8,0.1-4.1-0.5c-2.5-2.6-5.7-2.7-9-2.7c0.5-3.2,2.2-4.6,5.5-3.9c0.6,0.1,1.7,0.5,1.8,0.3
			C194.6,67.5,200.3,69,204,66z"/>
		<path class="st225" d="M200,70.9c2.9-1.4,4.7-5.2,8.8-3.7c0.7,0.9,1.5,1.8,2.3,2.8c-0.4,0.7-0.7,1.4-1.1,2.1
			c-2.3,3.3-5.2,1.3-8,0.9C200.4,73.3,199.7,72.6,200,70.9z"/>
		<path class="st226" d="M200,70.9c0.3,1,1,1.7,2,2.1c-0.4,3.8-3.2,4-6.1,4.1c-1.5-1.2-4-2.2-2.5-4.5
			C194.9,70.4,197.2,68.9,200,70.9z"/>
		<path class="st227" d="M184,75.3c3.8-1.8,7.4-2.7,9,2.7c-1.5,3.1-4.2,3.3-7,3c0.4-0.3,0.7-0.7,1.1-0.9c0.9-0.5,2.8,0.3,2.3-1.7
			c-0.3-1.4-1.5-1.5-2.8-0.8C183.5,79.5,184.1,77.1,184,75.3z"/>
		<path class="st228" d="M309,79.1c-0.7-0.2-2-0.3-2.1-0.7c-0.2-0.9,0.7-1.3,1.5-1.3c2.9-0.1,5.8-0.1,8.6-0.1
			c2.6,0.4,5.3,0.7,7.9,1.1C319.7,80.2,314.2,78.4,309,79.1z"/>
		<path class="st229" d="M245.9,93.1c0,0.6,0,1.1-0.1,1.7c-1.4,0.9-2.8,2-4.2,0c-0.7-1-0.1-1.9,0.6-2.6
			C243.9,90.6,244.8,92.4,245.9,93.1z"/>
		<path class="st157" d="M331.3,85.6c2,2.8,2,4.3,0.8,6.4C330.5,90.1,331.2,88.4,331.3,85.6z"/>
		<path class="st230" d="M308.1,56.1c-0.4,0-0.8,0.1-1.2,0.1c-1.9,1.4-4.2,0.9-6.3,0.9c-21.8,0-43.6,0-65.4,0c-11.9,0-23.9,0-35.8,0
			c-4.7-1.5-5.5-4.6-2.2-8.4c33.4,0.3,66.9-0.3,100.3-0.1c2.2,0,4.3-0.1,6.5,0.1C309,49.1,310,51,308.1,56.1z"/>
		<path class="st231" d="M317.1,69.2c-0.3-12.6-1.2-9.9,9.7-10.1c14.1-0.2,28.3,0,42.4,0c7,0,7,0,6.5,7.2c-1.2,1.5-2.7,2.5-4.7,2.5
			c-7.7,1.1-15.4,0.6-23.2,0.4c-2.4-0.1-4.9-0.8-6.7-2.6c-0.9-0.8,0-1.6,0.1-2.4c-0.7,0.7-1.3,1.4-2.2,1.8c-2.4,0.6-4.8,0.7-7.2-0.1
			c-0.2-0.1-0.5-0.3-0.7-0.5s-0.4-0.4-0.6-0.6c0.1,0.3,0.3,0.4,0.4,0.6c-1.9,4.2-6.2,2.8-9.3,4.1C320.3,69.8,318.7,69,317.1,69.2z"
			/>
		<path class="st225" d="M308.1,56.1c0.9-4.7-0.9-6.1-5.8-6.1c-34,0.2-68.1,0.1-102.1,0c-1.1,0-2.3,0.3-3.3-0.7
			c-0.3-0.5-0.3-1,0-1.5c3.8-3.6,8.2-1.2,12.3-1.2c11.6,0,23.1,0,34.6,0c3.5,0,7-0.3,10.3-1.5c1.1-1.1,2.4-1,3.7-1
			c14.8-0.1,29.6-0.1,44.3,0c2.1,0,4,0.4,5.5,1.8c0.4,0.1,0.8,0.1,1.1,0.2c0.5,0.4,0.8,0.8,1,1.4c0.5,2.9,1,5.8-0.9,8.4
			C308.7,56,308.4,56,308.1,56.1z"/>
		<path class="st232" d="M309.1,55.9c0-3,0.1-6,0.1-9c3.8-2.9,4.6-2.8,8.7,2.1c11.7,0.4,23.3,0.9,35,0.3c1.6-0.1,3.9-0.7,4.3,1.2
			c0.4,1.8,2.2,4.5-1.2,5.7C340.3,56.1,324.7,56,309.1,55.9z"/>
		<path class="st233" d="M317.1,69.2c1.6-3.1,3.2,0.3,4.8-0.1c1.3-0.1,2.6-0.1,3.9-0.6c7.4-3.3,14.6-3,21.7,0.7
			c1.7,1.8,4.1,0.7,6,1.6c1.1,1.1,2.7,2,1,3.8c-9.6,0.9-19.2,0.2-28.8,0.4c-2.7,0-4.4-2.3-6.8-2.7C317.8,71.5,317.1,70.5,317.1,69.2
			z"/>
		<path class="st234" d="M355.9,56.2c1.8-1.6,1.6-3.7,0.5-5.4c-1-1.5-2.7-0.2-4.1-0.1c-2.6,0.2-5.3,0.2-7.9,0.3
			c-7.9,0.1-15.8-1-23.6,0c-1.6,0.2-3.4,0.3-3.8-2.1c-0.3-0.5-0.2-0.8,0.3-1c9.2,0,18.5,0,27.7,0c7.4,0.1,14.7,0.1,22.1,0.2
			c-0.4,2.8-2.8,1.5-4.3,2.1c-3,0-6.3-0.6-3.8,4.4C359.9,56.5,359.5,56.7,355.9,56.2z"/>
		<path class="st235" d="M235.1,56.2c23.9,0,47.8,0,71.8,0c-0.4,2.9-2.7,1.9-4.3,1.9c-14.5,0.1-29.1,0-43.6,0
			c-6.6-1-13.2-0.1-19.8-0.5C237.8,57.4,235.8,58.8,235.1,56.2z"/>
		<path class="st236" d="M235.1,56.2c5.8,1.9,11.8,0.3,17.7,0.9c2.1,0.2,4.3-0.8,6.2,0.9c-20,0-40,0-60,0c-0.6-0.6-0.6-1.2,0-1.8
			C211.1,56.2,223.1,56.2,235.1,56.2z"/>
		<path class="st164" d="M318.8,72.3c1.8,0,4-2.6,5,1.3c0.3,1.1,2.4,0.5,3.7,0.5c9.1,0.1,18.3,0.1,27.4,0.1c0.5,0.6,0.6,1.2,0,1.8
			c-9.7,0.1-19.4,0.1-29.2,0.2C322.8,76,320.3,75,318.8,72.3z"/>
		<path class="st237" d="M353,71.2c-1.6-0.7-4,2.7-5.1-1c2.2-2,5-1.1,7.5-1.1c4.4-0.1,8.8-0.2,13.2,0.1c3.9,4-0.6,4.8-2.5,6.7
			c-2.4,0-4.8,0-7.3,0C356.1,75.3,355.7,71.8,353,71.2z"/>
		<path class="st238" d="M362.7,50.3c0.9-1.8,3.3-0.6,4.3-2.1c3,0.1,6.1-0.2,9.1,0.3c1.6,0.3,4.1-1.5,4.9,1.3
			c0.8,2.6,2.1,5.5-1.2,7.5c-0.6-0.1-1.3-0.2-1.9-0.2c-1.9-4.4-1.9-4.4-5-5C370,48.8,365.8,52.8,362.7,50.3z"/>
		<path class="st239" d="M366.1,75.8c1.3-1.9,2.6-3.8,3.9-5.7c0.2-1.2,0.8-1.8,2-2.1c1.3-0.5,2-2.2,3.8-1.8c0.1,1.6,0.2,3.2,0.3,4.7
			c-0.7,0.9-1.4,1.9-2.1,2.8C371.4,74.7,369.2,77,366.1,75.8z"/>
		<path class="st240" d="M373,52c2.2-0.6,4.6-2.5,5.9,1c0.6,1.5-2.8,2.1-1,4c-2.9,0.7-5.4-1.2-8.2-1.1c-0.9,0-2.7,0.6-2.3-1.4
			c0.3-1.2,1.7-1.8,2.8-1.2C372,54.2,373.3,55,373,52z"/>
		<path class="st59" d="M199,56.2c0,0.6,0,1.2,0,1.8c-1.3,0.1-2.7,0.1-4,0.2c-0.3-0.1-0.6-0.1-0.9-0.2c0-0.6,1-1.4-0.2-1.9
			c1.1-3-0.2-6,0-9c0.9-0.8,1.9-0.9,3-0.3c0.4,0.5,0.5,0.9,0.1,1.4c0,0.4-0.1,0.7-0.1,1.1C195.4,52.3,194.8,55,199,56.2z"/>
		<path class="st241" d="M353,71.2c4-0.9,4.1,2.9,5.9,4.7c-1.3,0-2.6,0-4,0c0-0.6,0-1.2,0-1.8C354.3,73.1,353.6,72.1,353,71.2z"/>
		<path class="st162" d="M588,45c0.6-0.7,1.2-1.3,1.9-2c-0.4,2.7,0.9,4.8,2.1,7.1c-1.3,0-2.7-0.1-4-0.1c-0.8-1-2-0.9-3.1-1.1
			C583.8,45.9,586.8,46.2,588,45z"/>
		<path class="st173" d="M588,45c0.3,2.4-3.2,1.7-3.2,3.9c-3.6,2-4.2-1.8-6.5-3c2.6-1.9,5.2-1.9,7.7-2C586.6,44.3,587.3,44.6,588,45
			z"/>
		<path class="st242" d="M603.9,69c-1.9-0.1-3.1-0.9-2.8-3c0.1-0.9,0.8-1.8,1.5-1.5C605.1,65.3,603.5,67.5,603.9,69L603.9,69z"/>
		<path class="st243" d="M119.1,72c2.8,0.5,4.4-0.3,4-3.5c-0.2-1.4,0-2.9,0-4.4c0.2-0.2,0.4-0.4,0.6-0.6c2.3-0.9,4.7-1.1,7.2-1
			c9.4,0.2,18.9,1.4,28.3,0.9c1.6-0.1,3,0.3,4.2,1.2c1.6,1.2,3.5,2.5,2.9,4.8c-0.6,2.2-2.9,2.2-4.6,2.1c-8.2-0.6-16.3,0.7-24.5,1.2
			c2.7,0.1,5.6,0.3,8.3-0.2c9.8-1.7,19.6-0.4,29.4-0.6c1.2,0,2.3,0.5,3.2,1.3c1,1.9-0.3,3.9,0,5.8c0.3,2.4-0.9,3.2-3.2,3.1
			c-12.9-0.3-25.9,0.2-38.8-0.2c-5.9-0.2-11.2-2.5-16.9-2.8c-2.8-1-2.9,1.6-4,3c-1-0.3-2-0.6-3-1c1.4-1.2,2-2.7,2.1-4.6
			c0.1-2.4-0.2-6.4,4.4-3.2C118.7,72.8,118.9,72.4,119.1,72z"/>
		<path class="st244" d="M178,73c-14.3,0-28.5,0-42.8,0c0-0.3,0-0.7,0-1c1.8,0,3.7,0,5.5,0c1.2,0,2.9,0.4,3.4-0.1
			c4.8-5.7,10.8-0.2,16-1.9c1.8-0.6,5.2,1.5,5.1-1.5c-0.1-2.3-2.9-4.3-6-4c-9.2,1-18.3-0.8-27.5-0.6c-0.6,0-1.1-0.6-1.7-0.9
			c0.3-2.6,2.6-2.3,4.2-2.3c8.6-0.2,17.2-0.1,25.8-0.1c3.3,0,5.8,1.5,7.2,4.3c1.8,3.5,4.2,5.9,8.5,5.4c1.1-0.1,1.8,0.8,2.3,1.6l0,0
			C178,72.4,178,72.7,178,73z"/>
		<path class="st245" d="M115.1,82c0.2-1.7-0.4-3.5,0.4-5.1c2-0.5,2.4,1.5,3.6,2.1C120.6,83.8,116.9,81.8,115.1,82z"/>
		<path class="st22" d="M74.1,54.1c-4,0-8,0.2-11.9-0.1c-2.7-0.2-5.6-1.1-3.1-4.9c1.7,1.2,3.7,1.1,5.7,1.1c8.5,0,17,0,25.5,0
			c2.7,0,5.2,0.2,7.8,1c3.2,2.1,6.7,0.5,10,1c1.3,1.7,1.5,3.4-0.1,5c-1.9-2-3.8-3.9-7-3c-7.4-0.6-14.6,0.7-22,1
			C77.7,53.4,75.8,54.3,74.1,54.1z"/>
		<path class="st246" d="M108,57.1c0-1.7,0-3.4,0.1-5c15.8,0,31.5,0,47.2,0c0.1,1.9-0.8,2-1.3,1.9c-8-1-15.9,2.3-23.9,0.4
			c-2.1-0.5-5.5-0.1-6,3.7c1.8,2.4,0.7,4.2-1,6l0,0c-1.7-0.1-2.7-1-3-2.7c-0.5-2.7-1.1-5.2-4.7-5.3c-3.6-0.1-5.6,1.4-5.7,5.1
			c0,0.3-1,0.6-1.6,0.9C108.1,60.4,108,58.8,108,57.1z"/>
		<path class="st247" d="M40.1,80c-3,0-6,0-9,0c0.8-3.9,4.5-2.9,6.5-2.7c2.7,0.3,5.7,0.1,8.3,1.1c1.6,0.6,2.9,0.3,4.2-0.6
			c0.6-0.5,0.7-1.2,0.1-1.7c-1.3-0.9-2.4-2.5-4.3-2.1c-1.1,0.2-2.2,0.7-3.3,1.2c-1,0.4-2.2,0.9-2.6-0.2c-1.9-4.9-7-5.5-10.5-8.3
			c-2.4-2-2.8-3.2,0.2-5.1c4.8-3.1,9.6-5.1,15.3-3.1c2.6,0.9,5.3,0.4,7.9,0.5c3.2,0.2,5.7,0.9,4.4,5.1c-0.3,1.2,0,2.7,0.3,3.9
			c0.9,3.2,0.6,5.8-2,8.1c-0.9,0.8-2.1,1.5-1.8,3.2c0.6,4.6-2.6,4.1-5.1,3.2C45.8,81.6,43,80.8,40.1,80z"/>
		<path class="st248" d="M313,23.1c1-0.3,2-0.7,3-1c0.4,0.9,1,1.7,2,2c2.7,4.6,1.4,8.8-1,13c0,0.3,0,0.6-0.1,0.9
			c-1.2,2.3-3,2.2-5,1.1L312,39c-1.6-1.7-3.8-0.9-5.7-1c-19.7-0.1-39.5,0-59.5,0c0.4-2.2,1.8-2,3-2c12.2-0.5,24.5-0.2,36.7,0
			c7.4,0.1,14.9,0,22.3,0.9c2.3,0.3,3.1-0.4,3.7-3.1C313.2,30.2,312.2,26.7,313,23.1z"/>
		<path class="st249" d="M307.8,45.9c-17.5-1.7-35.1-0.4-52.7-0.7c-0.4,0-0.8,0.5-1.3,0.7c-16.4,1-32.8,0.9-49.2,0.2
			c-1.2-0.2-2.4-0.5-3.6-0.1c-2.1,0.3-4.2,0.6-6.1-0.9c0.7-3.4,3.5-2,5.3-2c25.3-0.1,50.5,0,75.8-0.1c2,0,4.8,1.8,6-2.4
			c0.5-1.6,4.5-0.6,6.9-0.4c0.2,1.6-2.1,1.1-1.9,2.9c4.1,0,8.2,0,12.5,0c-0.8-3.2-4.2,0.6-4.8-2.7c2.7,0,5.4,0,8.1,0
			c-0.3,1-2.6,3.1,1.2,2.8C306,43,307.9,43.2,307.8,45.9z"/>
		<path class="st250" d="M317.2,48c-0.1,0.3-0.2,0.7-0.3,1c-1.9-3.1-4.6-3.6-7.8-2.1c-0.1-0.3-0.1-0.5-0.2-0.8
			c-0.3-2.3,0-4.3,3.1-4.1c2.4-1.2,3.6,0.4,4.8,2.1C316.9,45.4,317.1,46.7,317.2,48z"/>
		<path class="st170" d="M316.8,44.2c-1.9,0-2.7-2.4-4.8-2.1c0.6-1,0.7-2-0.1-2.9c1.7-0.1,3.5,0.1,5-1.1
			C316,40.1,322,42.3,316.8,44.2z"/>
		<path class="st236" d="M195,45.1c2,0.1,4,0.1,6,0.2c-0.7,2.1-2.4,1.8-4,1.7c-1,0-2,0-3.1,0c0-0.6,0-1.3,0-1.9
			C194.3,45.1,194.6,45.1,195,45.1z"/>
		<path class="st170" d="M123.1,64.1c0.3-2,0.7-4,1-6c4.9-2,10-0.4,14.9-1c5.2-0.6,10.4,1,15.6-1.3c1.7-0.7,5,0,6.6,1.3
			c5.2,4.5,11.7,7.2,16.8,11.9c0,1,0,2,0,3c-1.1-0.4-2-0.9-3.3-0.4c-3.9,1.4-6.4-0.6-7.7-4.1c-1.5-4-4-5.8-8.6-5.6
			c-7.9,0.4-15.9,0.1-23.8,0.1c-1.6,0-3.4-0.6-4.6,1C127.9,64.4,125.4,64,123.1,64.1z"/>
		<path class="st251" d="M190,50.5c0,1.2-0.8,1.7-1.9,1.6c-1-0.1-2.6,0.4-2.6-1.2c0-1.4,1.1-1.8,2.4-1.7
			C188.9,49.1,189.9,49.2,190,50.5z"/>
		<path class="st252" d="M182.1,35.8c-1.1-0.1-1.8-0.8-2-1.9c-0.1-1.3,0.6-2.3,1.9-2.4c1.4,0,2,1,2,2.3
			C184,35,183.2,35.6,182.1,35.8z"/>
		<path class="st63" d="M317,37.1c0.3-4.3,1.5-8.6,1-13c3.4-2.1,7.1-0.6,10.6-0.9c2.5-0.2,5-0.2,7.4,0c3.2,0.3,8.1-1.7,9.3,1.1
			c1.6,3.7,1.6,8.6-0.3,12.9c-0.9,0.3-1.7,0.1-2.6-0.2c-6.4-1-12.9,0-19.3-0.9c-1.2-0.2-2.3-0.2-3.2-1
			C318.7,35.3,319.5,38.5,317,37.1z"/>
		<path class="st253" d="M344,36.1c0.3,0.3,0.7,0.7,1,1c-1.2,3.5,1.1,3.8,3.6,3.7c3.8-0.2,7.7-0.5,11.5-0.7c1.5-0.1,3.5-0.6,3.9,1.8
			c-1.3,0.7-2.6,1.5-3.9,2.2c-4.6,0.7-9.2,0.6-13.9,0.1c-5.4-0.1-10.9-0.1-16.3-0.3c-1.6-0.1-4.3,1.1-4.6-1.3
			c-0.4-2.6,3.1-0.8,4.3-2.6c-0.9-1.9-5.7,0.2-4.5-3.9C331.4,35.2,337.7,35.3,344,36.1z"/>
		<path class="st254" d="M324,36.1c0,1.7,0.1,3.3-0.1,5c-0.1,1.3,0.8,3.3-1.7,3.3c-2.7,0-2-2-2.1-3.6c0-1.5,0-3-0.1-4.5
			C321.3,35.2,322.6,35.5,324,36.1z"/>
		<path class="st255" d="M324,36.1c-1.3,0.1-2.6,0.1-3.9,0.2c0-0.4-0.1-0.8-0.2-1.2c7,0,13.9,0,20.9,0c1.1,0,2.4-0.1,3.1,1
			c-6.3,0-12.6,0-18.9,0.1C324.7,36.1,324.3,36.1,324,36.1z"/>
		<path class="st256" d="M346.2,44.2c4.6,0,9.2,0,13.9-0.1c0,0.3,0,0.5,0.1,0.8C355.5,44.8,350.8,46,346.2,44.2z"/>
		<path class="st257" d="M372,68.1c-0.7,0.7-1.3,1.4-2,2.1c-7.4,0-14.7,0.1-22.1,0.1c-7.3-3.3-14.7-3.8-22.2-0.9
			c-1.3,0.5-2.5,0.8-3.7-0.2c-0.1-0.8-1.1-2.1,1-1.7c3.1,0.6,5.8-0.2,8.1-2.4l0,0c3,0,6,0,9,0c0.4-0.5,0.8-0.5,1.2,0.1
			c2.9,2.5,6.3,3.1,10.1,3.1C358.1,68,365,68.1,372,68.1z"/>
		<path class="st189" d="M341.1,65.1c-0.4,0-0.8,0-1.2-0.1c0.3-0.4,0.5-0.9,0.8-1.2c0.8-0.7,0.9-2.3,2.4-2.2c0.3,0,0.7,0.8,0.7,1.1
			C343.6,64.2,342.6,64.9,341.1,65.1z"/>
		<path class="st224" d="M331,65c-0.5,0-1-0.1-1.5-0.1c-1-0.1-1.9-0.5-2.3-1.5c-0.1-0.3,0.3-1,0.6-1.1c1.3-0.4,2.2,0.4,2.8,1.4
			C330.9,64.1,330.9,64.6,331,65C331,65.1,331,65,331,65z"/>
		<path class="st258" d="M204,45.3c15.7-0.1,31.4-0.1,47.1-0.1c0.9,0,1.9,0.5,2.8,0.8c-2.9,2-6.2,2.1-9.5,2.1
			c-12.1,0.1-24.3,0-36.4,0C207,46.7,204.4,47.6,204,45.3z"/>
		<path class="st259" d="M204,45.3c1.2,1.1,3.4,0.7,4,2.7c-3.7-1.1-7.3-1.2-10.9,0.1c0-0.4,0-0.7,0-1.1c1.3-0.6,2.7-1.2,4-1.7
			C202,45.3,203,45.3,204,45.3z"/>
	</g>
</g>
</svg>
