<?xml version="1.0" encoding="utf-8"?>
<!-- Generator: Adobe Illustrator 25.0.0, SVG Export Plug-In . SVG Version: 6.00 Build 0)  -->
<svg version="1.1" xmlns="http://www.w3.org/2000/svg" xmlns:xlink="http://www.w3.org/1999/xlink" x="0px" y="0px"
	 viewBox="0 0 742.1 185" style="enable-background:new 0 0 742.1 185;" xml:space="preserve">
<style type="text/css">
	.st0{display:none;}
	.st1{display:inline;stroke:#FFFFFF;stroke-miterlimit:10;}
	.st2{fill:#110E08;}
	.st3{fill:#545653;}
	.st4{fill:#DCDED7;}
	.st5{fill:#727672;}
	.st6{fill:#DCDDD7;}
	.st7{fill:#868984;}
	.st8{fill:#7B7F79;}
	.st9{fill:#3A321F;}
	.st10{fill:#14110A;}
	.st11{fill:#0C0C0C;}
	.st12{fill:#15130B;}
	.st13{fill:#2F302E;}
	.st14{fill:#212220;}
	.st15{fill:#171818;}
	.st16{fill:#232423;}
	.st17{fill:#6A5C3E;}
	.st18{fill:#3D3E3B;}
	.st19{fill:#41423F;}
	.st20{fill:#211D14;}
	.st21{fill:#101111;}
	.st22{fill:#40413E;}
	.st23{fill:#434441;}
	.st24{fill:#282927;}
	.st25{fill:#201D14;}
	.st26{fill:#30312F;}
	.st27{fill:#776C50;}
	.st28{fill:#312B1C;}
	.st29{fill:#3F413E;}
	.st30{fill:#302C21;}
	.st31{fill:#4D4633;}
	.st32{fill:#A18D5F;}
	.st33{fill:#51534F;}
	.st34{fill:#3B3C39;}
	.st35{fill:#807250;}
	.st36{fill:#978761;}
	.st37{fill:#1C180F;}
	.st38{fill:#434542;}
	.st39{fill:#7C6D4C;}
	.st40{fill:#3A3221;}
	.st41{fill:#B09A67;}
	.st42{fill:#9C8A5F;}
	.st43{fill:#101110;}
	.st44{fill:#483F2C;}
	.st45{fill:#706549;}
	.st46{fill:#A7966E;}
	.st47{fill:#888B81;}
	.st48{fill:#565853;}
	.st49{fill:#626460;}
	.st50{fill:#121212;}
	.st51{fill:#A9ADA4;}
	.st52{fill:#C1C5BB;}
	.st53{fill:#696C68;}
	.st54{fill:#B4B6A3;}
	.st55{fill:#1C1D1C;}
	.st56{fill:#525451;}
	.st57{fill:#919284;}
	.st58{fill:#A3A69A;}
	.st59{fill:#AAADA5;}
	.st60{fill:#E6E9E2;}
	.st61{fill:#989B90;}
	.st62{fill:#1B1B1A;}
	.st63{fill:#1E180D;}
	.st64{fill:#6A6D68;}
	.st65{fill:#3C3E3C;}
	.st66{fill:#60563C;}
	.st67{fill:#4A402A;}
	.st68{fill:#47402E;}
	.st69{fill:#453B26;}
	.st70{fill:#1D1C17;}
	.st71{fill:#5A5038;}
	.st72{fill:#5F563E;}
	.st73{fill:#302715;}
	.st74{fill:#413722;}
	.st75{fill:#272317;}
	.st76{fill:#3B321E;}
	.st77{fill:#2E2F2D;}
	.st78{fill:#474945;}
	.st79{fill:#2C2D2B;}
	.st80{fill:#292519;}
	.st81{fill:#332C1C;}
	.st82{fill:#353634;}
	.st83{fill:#BAA779;}
	.st84{fill:#8F7F58;}
	.st85{fill:#363835;}
	.st86{fill:#373936;}
	.st87{fill:#242523;}
	.st88{fill:#71746F;}
	.st89{fill:#959892;}
	.st90{fill:#020100;}
	.st91{fill:#A69A77;}
	.st92{fill:#4D4F4B;}
	.st93{fill:#797053;}
	.st94{fill:#1F201F;}
	.st95{fill:#666965;}
	.st96{fill:#5C5239;}
	.st97{fill:#B6A67E;}
	.st98{fill:#D8C48F;}
	.st99{fill:#574A30;}
	.st100{fill:#726241;}
	.st101{fill:#81704A;}
	.st102{fill:#1E1F1E;}
	.st103{fill:#746440;}
	.st104{fill:#68593A;}
	.st105{fill:#635940;}
	.st106{fill:#322E21;}
	.st107{fill:#80704D;}
	.st108{fill:#AFA07A;}
	.st109{fill:#4B4330;}
	.st110{fill:#6E5D3B;}
	.st111{fill:#594E34;}
	.st112{fill:#584C32;}
	.st113{fill:#4A3D23;}
	.st114{fill:#272114;}
	.st115{fill:#88754C;}
	.st116{fill:#AAAEA6;}
	.st117{fill:#ADB1AA;}
	.st118{fill:#B0B4AC;}
	.st119{fill:#A8ACA5;}
	.st120{fill:#F1F4EF;}
	.st121{fill:#EEF1EB;}
	.st122{fill:#80837E;}
	.st123{fill:#3A2F1A;}
	.st124{fill:#6A5E42;}
	.st125{fill:#262520;}
	.st126{fill:#6B6E68;}
	.st127{fill:#898C85;}
	.st128{fill:#5C4D2F;}
	.st129{fill:#56482A;}
	.st130{fill:#4B432F;}
	.st131{fill:#453C27;}
	.st132{fill:#202120;}
	.st133{fill:#655B42;}
	.st134{fill:#4C4533;}
	.st135{fill:#4C4430;}
	.st136{fill:#443E2D;}
	.st137{fill:#7F6F4C;}
	.st138{fill:#F7E2A6;}
	.st139{fill:#57482A;}
	.st140{fill:#62512F;}
	.st141{fill:#665533;}
	.st142{fill:#595C57;}
	.st143{fill:#838680;}
	.st144{fill:#796B4B;}
	.st145{fill:#655C43;}
	.st146{fill:#7F7253;}
</style>
<g id="Camada_2" class="st0">
	<rect x="-226" y="-165" class="st1" width="1104" height="450"/>
</g>
<g id="Camada_1">
	<g>
		<path class="st2" d="M114.1,131.9c-10.4,7.3-20.6,14.9-31.2,21.8c-6.4,4.1-13.4,7.3-20.1,10.8c-5.1,2.7-10.6,4.9-15.4,8.1
			c-12.1,8-25.8,10-39.7,11.4c-0.9,0.1-2.1-0.4-2.5,1c-0.7,0-1.3,0-2,0c-0.4-0.4-0.7-0.9-0.9-1.4c-0.5-1.7-0.4-3.3,0.6-4.7
			c2.7-2,6.1-1.4,9.1-1.9c13.1-2.1,24.6-7.6,35.5-14.8c2.5-1.7,5.3-2.7,8-4.1c5.5-0.8,10.9-2.8,16-4.6c7.4-2.5,14.8-6.1,18.4-14
			c2.1-1.6,4.6-2.2,7.1-2.7c2.3,0.1,4-1,5.6-2.6c2-2,4.4-3.5,7.2-4C111.4,129.9,113.5,129.2,114.1,131.9z"/>
		<path class="st3" d="M237.3,0.9c0.7,0.2,1.4,0.4,1.6,1.2c-0.8,1.7-0.3,3,0.8,4.5c2.4,3.4,1.3,6.6-2.7,8.6c-0.5-0.6-0.6-1.2-0.6-2
			c0.5-2.5-0.5-4.5-1.9-6.4c-1.7-1.9-4-1.3-6.1-1.4c-8.9-0.2-17.9,0.4-26.8-0.6c-1.1-0.6-1.7-1.4-1.7-2.7c2.1-3.2,5.8-0.4,8.3-2.1
			c0.7,0,1.3,0,2,0c3.3,0.8,6.7,0.8,10,0c1.7,0,3.3,0,5,0C229.1,1.4,233.2-0.1,237.3,0.9z"/>
		<path class="st4" d="M3.1,183.9c0,0.3,0,0.7,0,1c-1.7,0-3.3,0.6-3.1-2.5c0.4-6.8,0.1-13.7,0.1-20.5c0.4-0.4,0.7-0.7,1.1-1.1
			c2.4,0.6,1.7,2.4,1.5,4c-0.6,5.1,0.1,10.2-0.6,15.3C2,181.5,2.3,182.8,3.1,183.9z"/>
		<path class="st5" d="M208.1,0.1c-2.3,2.2-5.6-0.1-7.9,1.9c-3.8,0.7-7.7,1.3-11.2-1c0.1-0.3,0.1-0.6,0.2-0.9
			C195.4,0.1,201.7,0.1,208.1,0.1z"/>
		<path class="st6" d="M741,20c0.3-0.1,0.6,0,0.8,0c0,5.7,0,11.3,0,17c-0.3,0-0.7,0-1,0c-0.4-0.4-0.7-0.9-0.9-1.4
			c-0.5-1.9-0.4-3.9-0.4-5.8c0.3-3.1-0.6-6.3,0.9-9.2C740.6,20.4,740.8,20.2,741,20z"/>
		<path class="st7" d="M237.3,0.9c-4.1,0-8.3,1.1-12.2-0.8c4,0,8,0,12,0C237.2,0.4,237.3,0.6,237.3,0.9z"/>
		<path class="st8" d="M220.1,0.1c-3.3,1.6-6.7,1.6-10,0C213.4,0.1,216.7,0.1,220.1,0.1z"/>
		<path class="st9" d="M304,144c-2.1,4-2.3,8.4-2.9,12.7c-0.3,1.9-0.1,4-2.1,5.1c-2.5,0-2.9-1.7-3-3.7c0-0.7,0.2-1.5,0.5-2.1
			c2.1-2.5,1.7-5.2,1.1-9c-1.3,2.7,0.8,4.6-0.6,6.3c-5.3,1-9.6-0.6-11.7-4.6c-1.2-2.4-2.3-2.6-3.8-0.5c-1.1,1.5-2.1,2.9-4.1,3.3
			c-1.2,0-2.4-0.4-3.4-1.1c-1.2-1.5-0.5-3.1-0.5-4.7c0-1.9-1-3.2-2.8-3.5c-1.9-0.3-1.7,1.6-2.2,2.7c-0.8,1.6-0.9,3.6-2.7,4.5
			c-1.5-0.5-1.5-1.7-1.7-3c0.9-3.8-2.4-8.1,1.2-11.6c3.1-0.4,6.3-2.1,8.1,2.5c0.7,1.9,3.7,0.8,5.2,2.1c1.8,1.6,4.2,1.3,6.3,1.8
			c5.5,0.1,8.5-1.8,10-6.8c0.6-1.9,2.2-3.3,2.2-6c-3.5,3-7.2,4.8-11.1,6.3c-0.7-0.2-1.2-0.7-1.5-1.3c-0.4-1.2,0.3-3-2.3-2.7
			c-2,0.2-4.3-0.7-6.3-0.4c-3.8,0.6-6.6-0.9-9.5-2.9c-0.9-0.5-1.1-1.4-1-2.4c1.9-4.3,3-9.2,8.3-11c1.5-0.5,0.5-2.1,1.1-3
			c1.3-2.1,2.2-4.5,5.3-4.5c1.4,0.3,2.2,1.4,3.3,2.1c5.7,4.3,5.7,4.3,13.9,6.1c0.5,0.1,0.8,0.5,1,1c-0.7,1.2-1,2.5-1.7,3.7
			c1.3-0.7,0.6-2.3,1.5-3.2c1.2-2,2.9-3.5,4.1-5.6c-1.7,0-2.5,1.2-3.8,1.6c-1.9,0.6-3.2-0.6-4.3-1.8c-1-1.1-0.4-2.2,0.4-3.1
			c2.8-3.3,4.3-7.4,6.5-11.1c0.5-0.7,1-1.5,1.7-2c1.4-0.3,2.8-0.6,4.3-0.1c0.3,0.3,0.5,0.7,0.6,1.1c1.8,2,4.4,2.9,6.6,2.4
			c4.9-1.2,6.5,1.4,7.4,5.3c-6.7,9.3-9.6,19.8-9.8,31.1c-0.1,2.2-1.4,4-3.5,5.1C306.3,140,304.4,141.4,304,144z"/>
		<path class="st10" d="M114.1,131.9c-4.5-2.3-7.6,0.7-10.5,3.2c-2,1.7-3.7,3.3-6.5,2.9c-0.1-3.6,3.3-4.9,4.9-7.5
			c8.7-5.9,17.1-12.2,25.7-18.2c1-0.8,2.2-1.3,3.4-1.5c5.8-0.3,9.8-4.5,14.7-6.7c15.9-7.1,32.1-13.1,49.5-15.5
			c2.2-0.3,4.1-1.3,5.9-2.4c4.5-2.4,9.6-2.4,14.4-3.7c6.3-1.7,11.7-5.3,17.9-7.2c2.1-0.7,4-1.6,6-2.3c2.9-0.8,2.7-4.4,5.1-5.7
			c1.5-0.8,2.4-2.7,4.4-2.9c0.5,0.1,0.9,0.3,1.2,0.7c-4.9,13.8-16.9,19.6-29.4,22.5c-29.8,7-58,17.9-85.6,30.5
			C127.8,121.7,121.1,127.3,114.1,131.9z"/>
		<path class="st11" d="M392.3,49.9c0.5,0.2,0.9,0.6,0.6,1.2c-0.8,1.1-0.2,2.5-0.9,3.7c-1.3,2.3-2.8,4.5-4.3,6.7
			c-2.2,3.1-4.5,2.9-5.7-0.7c-1.4-4.2-3.8-4.4-7.8-4.8c-10.4-0.9-20.5,0.4-30.7,1.1c-4.9,0.4-9.9-1.2-14.5,1.6
			c-2.2-0.8-4.5-0.7-6.8-0.3c-3-2.1-6.6-2.2-10-2.4c-8-0.4-16.1-1.9-24.1,0.5c-3,0.9-5.8-0.4-8.7-1.2c-2.8-0.7-5.8-2.4-8.4,0.6
			c0.2,0.9,0.5,1.8-0.3,2.6c-2.5,1.3-4.9,0.2-7.1-0.5c-4.3-1.3-8.5-2.6-12.3,1.2c-0.7,0.7-1.8,0.5-2.8,0c-0.4-0.3-0.7-0.6-1-1
			c-1.3-1.4,0.8-4.1-1.9-4.9c-1.2-0.3-2.5-0.4-3.1-1.8c-0.1-0.9,0.1-1.7,1-2.2c8.4-1.5,16.8-0.3,25.2-0.7c1,0,1.9,0,2.9,0
			c37.6,0,75.2,0,112.9,0C387.2,48.7,389.9,48.3,392.3,49.9z"/>
		<path class="st12" d="M638.9,54.8c-19.7,1.2-39.5,1.1-59.3,1.5c-34.1,0.7-68.1,1.3-102.2,1.9c-2.7,0-5.3,0-8,0.1
			c-1.6,0-2.7-0.3-2.2-2.2c0.4-1,0.4-2.2,1.2-3.1c2.7-2.1,5.9-2.7,9-2.1c9.2,1.7,18.6,0.9,27.8,1.7c2,0.2,4-0.2,5.9-0.9
			c1.4-0.5,3-1.2,4.4-0.8c7.9,2.5,15.8,0.3,23.7,0.5c12.4,0.3,24.9,0.5,37.4-0.3c8.1-0.5,16.3-0.7,24.4-0.4c4,0.2,8-0.2,11.9-0.9
			c6.6,0.2,13.1-0.8,19.7-0.1c2.5,0.3,5,0.3,6.5,2.8C639.3,53.2,639.6,54,638.9,54.8z"/>
		<path class="st13" d="M399,31c-6.9,0.5-6.9,0.6-6.9,7.7c0,2.1-0.1,4.2-0.2,6.4c-0.3,3.1-1.2,5.5-5.1,4.5c-5-1.3-10.1-0.1-15.1-0.2
			c-8.5-0.2-17.1,0.3-25.6-0.9c0.1-2.7,3.9-3.1,2.5-5.9c-0.7-3.8,2.3-5.3,4.7-6.8c1.6-1,3.6-0.2,5.2,0.8c1.7,1.2,0.8,2.6,0.1,4
			c-0.5,1.2-1.5,2.4-0.1,3.6c1.2,1,2.5,0.4,3.7-0.3c2.2-1.3,4.7-1.6,4.5-5.8c-0.1-2.9,2-7.4,6.6-8.3c2.9-0.5,4.3-3,6.2-4.8
			c3.1-1.4,6.1-0.3,9.1,0.4c2.9,0.7,5.5,2.1,8.4,2.6C398.5,28.3,400.2,28.9,399,31z"/>
		<path class="st14" d="M271.1,58c-0.3-0.7-0.7-1.3-1-2c3.6-1.4,6.3-2.6,9.1,2.3c1.6,2.8,4.6,6.8,9.2,7.1c0.7-0.1,1.4-0.1,2,0
			c5.9-2.5,12.1-3.7,18.3-2.9c5,0.7,9.9,0.6,14.9,0.5c5,0,9.9-0.7,14.9-1.1c3.1-0.3,6.4-0.9,8.7,2.3c0.2,1.4-0.7,2.2-1.7,2.7
			c-4.3,1.7-5.9,5.4-7,9.4c-0.2,0.7-0.4,1.3-0.7,1.9c-1,3-0.6,6,0.1,8.9c0.2,1,0.1,2-0.1,3c-0.5,1.2-0.8,2.9-2.3,2.7
			s-1.5-1.9-1.7-3.1c-0.2-1.1-0.2-2.3-0.6-3.3c-1.3-3.5-1.2-7.4-4.1-10.4c-2-2.2-4.1-3.7-7-4.1c-6.4-1.3-12.8-0.3-19.1-0.5
			c-1.5-0.1-2.4,0.9-3.1,2.1c-0.6,0.7-1.3,1.2-2.1,1.5c-4.3,0-9,2.2-12.7-2c-0.8-3.3-3.7-4.4-6.3-5.9
			C277.2,63.3,273.4,61.3,271.1,58z"/>
		<path class="st15" d="M740.8,36.1c0.1,0.3,0.2,0.6,0.1,1c-1.8,1.9-4,2.5-6.7,2.4c-12.3-0.1-24.6,0.4-36.9-0.2
			c-7.6-0.4-14.8,2.7-22.4,1.9c-1.6-0.2-3.3-0.2-4.9-0.3c-1.2-7.2,2.4-10.7,9.5-8.9c1.1,0.3,2.4,1.2,3.3,0.6c5-3,9.9-1.4,14.9-0.3
			c0.6,0.1,1.3,0.3,2,0.2c10.2-1.9,20.6-1.6,31-1.7c0.5,0,1,0,1.5-0.1C738.6,30.1,738.6,30.1,740.8,36.1z"/>
		<path class="st16" d="M392,54.1c0.1-1.1-0.1-2.2,0.9-3c0,14.3,0,28.6,0,43c-0.3,2.7-1.6,3.8-4.5,3.6c-3.9-0.3-7.9-0.1-11.8-0.1
			c-2.2,0-2.2-0.9-0.8-2.2s3.5-1.7,4.7-3.5c0.5-0.2-0.5-1-0.2-0.4c0.1,0.2,0,0.3,0,0.3c-1.9,1.7-2.4,0.5-2.8-1.2
			c1.3-3.5,0.9-7.3,1.9-10.9c6.9-3.1,7.3-5.9,1.7-11.3c-0.9-0.9-2-1.8-2.3-3.1c0.8-2.8,2.6-1.2,4-0.8c2.8,0.9,4.7-0.1,5.5-2.7
			C389.1,58.9,390.6,56.5,392,54.1z"/>
		<path class="st17" d="M280,107c-1.9,1.7-5.6,2.3-3.8,6.3c0.1,0.2-0.1,0.8-0.1,0.8c-6.3,0.9-7.2,6.8-10,10.9
			c-3.1,6.9-3.1,13.9-1.1,21c0.1,1.1-0.1,2.3,1,3c0.3,0.4,0.2,0.8-0.1,1.1c-2.1,0.3-2.4-1.3-2.8-2.7c-1.4-4.2-2.7-8.5-4.2-12.7
			c-0.3-0.9-0.7-1.7-0.3-2.8c4.1-9.5,6-19.9,13.6-27.7c3.1-3.2,5.7-6.8,8.5-10.3c4.1-3.1,4.1-3.1,5.2,1.3c0.2,1.2,0.2,2.4-0.2,3.5
			C283.9,101.5,281.3,103.8,280,107z"/>
		<path class="st18" d="M349,42c3.2,3.1,2.8,4.2-1.9,5.9c9-0.7,17.9,1.5,27.2,0.2c3.7-0.5,8.5-1.4,12.8,0.8c3.1,1.6,3.8-1.8,4.9-3.8
			c0.1,1.6,0.2,3.2,0.4,4.8c-35.1,0.1-70.2,0.1-105.3,0.2c-5.3,0-10.6-0.1-16-0.1c-0.3-0.5-0.3-0.9,0.1-1.3
			c4.3-1.9,8.3-4.6,13.4-1.4c2.2,1.4,5.6,0.6,8.3,0.1c4.8-0.8,9.6,0,14.4-0.2c7.2-0.3,14.4,0.6,21.6-0.5c2.8-0.4,5.6-0.3,8.3,0.8
			c0.5,0.2,0.9,0.4,1.4,0.4c0-0.7-1-0.5-1.1-1.1C338.8,41,342.2,39.5,349,42z"/>
		<path class="st19" d="M399,31c-0.9-3.8-4.5-1.6-6.7-2.8c-3.6-1.9-7.9-3.4-12.3-2.2c-4.2,2.5-8.8,3.1-13.4,1.6
			c-2.4-0.8-4.1-0.1-6,1s-3.6,1.7-4.9-0.8c-1.9-2.3-0.5-5.9-3-8c0.5-2.5,2.1-2.7,4.1-2c6.3,2.3,13,1.6,19.5,2.3
			c3.4,0.4,6.5-0.5,9.2-2.6c0.9-0.2,1.8-0.1,2.5,0.6c0.5,0.9,0.4,2.1,1.2,2.9c2.3,2.1,4.8,3.4,8.1,2.8c2.6-0.5,4.3,1.4,5.9,3.1
			c0.5,2-0.7,3.2-2.2,4.1C400.3,31.1,399.7,31.1,399,31z"/>
		<path class="st20" d="M297,158c-0.4,1.8,0.8,2.8,1.9,3.9c-1.6,2.6-3.6,3.3-6.7,2.5c-4.2-1.1-9-0.4-12.3-4.2
			c-1.8-1.8-4-3.3-5.8-5.1c-1.6-1.5-2.9-3.3-0.1-5.1c1.1,0.1,2.3-0.2,3,1c3.6-1.3,7.2-2.9,10.4,1.1c0.7,0.9,2.2,0.3,3.3,0.5
			C293.7,153.3,296.8,154,297,158z"/>
		<path class="st21" d="M271.1,58c3.8,2,7.6,4,7.8,9.1c-8.1-1.3-16.2-2.6-24.3-4c-2.1-0.4-3,0.8-4.1,2.1c-0.5,0-0.9-0.1-1.4-0.1
			c-1.6-2.2-2.7-4.4-1-7c1.2,0.6,2.5,1.3,3.5-0.2c2.7-3.8,6.2-3,9.8-1.8C264.5,57,267.7,58.2,271.1,58z"/>
		<path class="st22" d="M457,49.2c-2.7,0.6-5.4,0.4-8,0c-1-1-0.6-2.2-0.4-3.4c0.5-2.2,1.2-4,4-4.1c3.1-0.1,0.5-3.8,2.6-4.7
			c1-0.9,1.6-1.9,1.7-3.3c0-2.6,0-5.1,3.4-5.8c1.1-0.2,1.6-1.5,1.9-2.6c0.6-1.8,1.8-2.7,3.7-2.4c0.8,0.6,1.3,1.4,1.6,2.3
			c0.5,1.3,0.7,2.7,0.9,4.2c0,1.4-0.3,2.8-0.3,4.2c-0.1,1.2-0.1,2.4-0.9,3.4c-0.3,1.1-1.9-1.5-2.2,1c-0.5,3.7-0.4,7.5-1.7,11
			C461.4,50.7,459.1,48.5,457,49.2z"/>
		<path class="st23" d="M433.9,49.1c-1.5-4.1-0.2-8.2-0.3-12.3c-0.1-3.5-1.1-5.4-4.6-5.6c-0.5-1.3,0.4-1.7,1-2.1
			c-3.5-1.1-7.6-0.1-11.4-1.2c-0.3-3.3,1.3-4.8,5.6-4.4c3.7,0.3,7.2,0.7,10-2.4c0.8,0.1,1.3,0.6,1.6,1.2c0.6,2.2,1.8,4.2,1.7,6.6
			c0.3-2.2-1-4.1-0.6-6.3c0.6-2.2,1.2-5.7,3.6-5.2c3.4,0.6,2.8,4.3,2.6,7.1c-0.5,1.5-0.4,3.1-1.3,4.4c-2.4,3.5-1.8,7.6-2.4,11.4
			c-0.3,2.3,0.1,4.6-0.7,6.9C437.7,49.2,436.2,50.2,433.9,49.1z"/>
		<path class="st24" d="M730.9,32.1c-10.3,0.2-20.7-0.2-30.9,1.7c-1.9,0.4-4.1-0.4-6.1-0.9c-3.1-0.8-6.6-2.5-9.3,1.3
			c-1.1,1.5-2.8,0-4.1-0.4c-7-2.4-10.2-0.3-10.5,7.1c-0.3-5-3.6-5.1-7.5-5c-7.5,0.3-14.9,0-22.4,0c-0.2-0.6-0.1-1.1,0.5-1.4
			c7-1.7,14-0.6,21-0.7c3.3-0.1,5.8-0.8,6.8-4.2c0.4-0.5,0.8-0.7,1.4-0.8c8.7,1.5,17.5,0.6,26.2,1c7.9,0.3,15.9-0.5,23.8-0.4
			C723.4,29.3,728,27.8,730.9,32.1z"/>
		<path class="st25" d="M304,144c-2.5-3.3,0.9-4.9,2.5-5.5c3.7-1.3,4.3-4.1,4.3-6.9c0-11.1,3.2-20.9,10.1-29.6
			c0.5-0.6,1.1-1,1.9-1.2c2.4,0.1,4.8-3.2,7.1,0.1c-2.7,2.6-6.2,4.3-9,6.9c-6.8,6.2-6.8,14.5-7.3,22.4c-0.4,5.2-2.3,8.7-6.5,11.2
			C306,142.1,305,143.1,304,144z"/>
		<path class="st26" d="M417.9,27c3.1,0,6.2-0.1,9.3,0.1c2.8,0.2,3.8,1.5,1.7,3.9c-9.3,0.4-18.7,0.4-28,0c0.6-1.4,1.3-2.7,1.9-4.1
			c-0.1-1.6,1.2-1.8,2.3-1.9c2.9-0.3,5.8,0,8.7-0.9C416.1,23.5,416.8,25.7,417.9,27z"/>
		<path class="st27" d="M285,95c-0.3-4.6-2.9-0.6-4.3-1.1c2.5-6.7,2.2-14,4.3-20.8c4.2,1.9,8.6,0.4,12.9,1.2
			c1.1,3.6-1.7,3.4-3.6,3.3c-3.1-0.1-4.2,0.4-4.2,4.1c0,3.6-1.3,7.3-2.1,11C287.7,93.9,287.1,95.5,285,95z"/>
		<path class="st28" d="M274,150c-1.6,2.3-0.1,3.7,1.5,4.9c1.9,1.4,3.4,3.1,4.4,5.2c-4.9-3-10.3-5.4-14.1-10c0-0.4,0.1-0.7,0.1-1.1
			c-0.5-2.7,2.2-4.6,1.7-7.5c-0.2-1.3,1.4-1.7,2.6-1.3c2.3,0.9,4.7,1.9,4.6,5C274.9,146.8,274.4,148.4,274,150z"/>
		<path class="st29" d="M375.2,96.9c4.1,0,8.3-0.1,12.3,0.2c2.7,0.2,4.3-0.7,5.4-3c0.9,3.3-0.8,4-3.7,3.9
			c-18.1-0.1-36.2-0.1-54.2-0.1c0.1-3.6,1.6-5.8,5.4-6.1c6.6,3.4,13.7,3,20.7,2.9c2,0,3.9-0.1,5.9,0.4
			C369.6,96.3,372.8,94.8,375.2,96.9z"/>
		<path class="st30" d="M339,92c-1.3,2-2.7,3.9-4,5.9c-1.7,1-3.4,2-5,3c-2.6-1.3-4.6,1.2-7,1.1c-2-4,0.7-7.1,2.4-10.1
			c1.4-2.6,5.2-2,8.5,0.7c-1.1-1.4-1.1-3.1-0.8-4.7c0.2-0.7,0.5-1.4,1.2-1.8c1.7,1.8,0.4,4,1.2,6.2c0.6-0.8,1.1-1.5,1.6-2.2
			C338.1,90.2,338.7,90.9,339,92z"/>
		<path class="st31" d="M457,49.2c1.9-3,4.3,1.4,6.2-0.4c3.4-2,1.7-5.9,3.4-8.6c2.3-0.7,1.9,0.8,1.8,1.7c1.5-5.9,1.5-5.9,7.6-2.3
			c1.6,1.6,2.9,3.5,3.5,5.7c0.1,0.8-0.1,1.5-0.6,2.1c-0.7,0.5-1.5,0.9-2.3,0.8c-4.9-0.9-7.6,1.3-8.7,5.9c-0.3,0.7-0.6,1.3-0.9,2
			c0.6-4.8-1.2-7.2-6.3-6.3C459.6,50,458.3,49.4,457,49.2z"/>
		<path class="st32" d="M640.2,35c0,0.3-0.1,0.6-0.2,0.8c0,4.8,0,9.6,0,14.4c0,1.6,0.8,3.4-1,4.6c0-0.6,0-1.2,0-1.8
			c-0.9-1.4-1.4-2.9-1.3-4.6c0-2.9,0.3-5.9-1.3-8.6c-1.1-3.5-3.2-2.3-5.3-1.2c-1.4,0.5-2.8,0.8-4.2,0.8c-0.5-0.1-0.9-0.3-1.3-0.6
			c-1.4-2.8-2.6-5.6,2.5-5.4c1.7,0.1,2.5-1.4,3.8-2c2.4-0.4,5.1-2,6.5,1.8c0.2,0.6,1.1-1,1.8-0.3C640.5,33.7,640.6,34.3,640.2,35z"
			/>
		<path class="st33" d="M433.9,49.1c1.8,0.3,2.9-0.8,4-2c3.3,0.6,5.5-1.9,8.1-3.1c0.4-0.2,0.8-0.4,1.3-0.5c2-0.3,1.9,1.6,2.6,2.6
			c-0.3,1-0.7,2.1-1,3.1C444,49.2,438.9,51.3,433.9,49.1z"/>
		<path class="st34" d="M176.1,18c4.1-1.2,6.6-4,7.9-8c4.2-2.2,3.1,2.1,4.3,3.6c1,1.5,2.3,0.8,3.5,0.6c4.1-0.5,8.1-1,12.2,0.3
			c1.4,1.1,2.6,2.5,4.7,2.5c10.7-0.2,21.4,1.9,32.1,1.1c4.8-0.4,9.5-1.2,14.3-1c6,0.6,12-1,18,0.6c-0.1,2.8-0.1,2.8-5.3,5.1
			c4.7-0.5,7.9-5.1,13.1-4.3c4.6,0.7,8.4,1.9,9.3,7.1c0.1,0.8,0.9,1.4,1.4,2c1.7,2.8,1.4,5.1-1.5,6.9c-1.6,0.2-3.4-1.1-5,0.3
			c-0.8,0.4-1.6,0.8-2.5,0.2c-3.2-2-6-1.9-8.2,1.5c-1.2,1.4-2.5,0.8-3.6,0.1c-3.3-2.3-7-1.6-10.1-0.6s-5.9,1-9.1,0.9
			c-4-0.1-6.7-0.8-7.7-5.2c-0.6-2.4-4.1-2.1-4.4-5c-1.1,1.3-1,2.2-1.2,3c-0.5,1.8-1.1,3.7-3.3,3.8c-2,0.1-2.9-1.6-3.3-3.2
			c-1.1-4.1-4.1-4.9-7.2-3.4c-1.1,0.5-1.9,2.6-3.7,2.8c-3.6,0.4-7.3,1.1-10.9,0.1c-3.3-0.9-6.5-1.4-9.6,0.6
			c-0.8,0.5-1.9,0.6-2.9,0.6c-4.1-0.2-5.2-2.1-3-5.7c0.5-0.8,1.4-1.5,1.3-2.8c-1.8-0.8-3,0.4-4.2,1.5c-5.2,4.7-5.2,4.7-9.9,0.4
			c-2.7,3.6-2.1,7.8-2.1,11.9c0,2,0,4,0,6c0,6.2,1.4,7,7.1,4.3c0.8-0.4,1.5-0.8,2.1,0.1c0.6,1.4,0.6,2.6-0.4,3.8
			c-1.1,0.6-2.2,0.6-3.2-0.2c-3.5,0-7-0.1-10.5,0c-2.1,0-3-0.7-3-2.9c0.1-9.1,0.1-18.2,0.1-27.3c0-1-0.1-2.1,1.5-1.8
			c1.6,1.8,1.5,4,1.5,6.1c0.1,6.8-0.1,13.6,0.1,20.4c-0.1-7,0-13.9,0-20.9C174.6,21.7,174.6,19.7,176.1,18z"/>
		<path class="st35" d="M169.1,62.1c1-0.3,2-0.5,3-0.8c2.8,2.4,6,0.5,9,1c1.3,0.4,2.5,0.5,3.9,0.6c4.2,0.1,8.5-1.2,12.6,1.4
			c2.1,1.4,4.5,0.3,6.2-1.7c0.7-0.8,1-2.3,2.6-1.5c1.7,7.5,7.3,9,13.9,8.8c3.5,5.9,2.9,7.6-4,7.7c-10.3,0.1-20.5-0.4-30.8-0.7
			c-2.1-0.1-3.9-0.6-4.7-2.9c-0.6-1.5-2.2-3.1-3.4-2.2c-3.9,3.2-9.4,1.9-13.3,4.9c-3.5,1.9-7.7,1.3-11.4,2.6c-2,0.7-3.3-0.7-4.2-2.5
			c0-3.8,2.3-5.7,5.7-6.2c3.2-0.4,6.3-2.2,9.9-1.4c-1.2-1.2-2.7-2.1-2.2-3.8c0.5-1.5,2.1-1.3,3.4-1.4
			C167.1,64.1,168.3,63.6,169.1,62.1z"/>
		<path class="st36" d="M169.1,62.1c1.6,3.3-0.4,3.7-2.9,3.5c-1.2-0.1-3.1-1.2-3.1,0.5c-0.1,2.4,1.9,1.4,3.3,1.1
			c0.3-0.1,0.6,0.2,1.3,0.4c-1.7,2.4-3.6,2.9-6.5,3.3c-4.3,0.5-9.6-0.1-12,5.2c-0.6,0.6-1.3,0.7-2,0.5c-3.6-2.4-6-6.2-10.6-7.9
			c-2.9-1.1-5-1.1-7.7-0.3c-5,1.4-10,2.4-14.4-1.9c-1.5-1.5-3.8-0.8-5.7-1.4c-1.3-0.4-1.3-0.5-0.1-2.3c0.3-0.4-0.8-0.3-0.9-0.9
			c0-1.9,1-3.9,2.7-3.6c5.7,1.2,10.4-3,15.9-2.4c1.3,0.1,2.7,0,3.9,0.4c0.1,0.1,0.4,0.1,0.4,0.2c1.8,3.3,3,1.5,4.2-0.5
			c0.4-0.2,0.8-0.3,1.3-0.3c1.9,0.4,2.8,2.1,4.2,4.3c0.1-2.6,0.7-4.4,2.8-5.1c6,1.9,10.8,6.5,17.5,6.9
			C163.4,61.8,166.3,62.1,169.1,62.1z"/>
		<path class="st37" d="M185,50.1c1,0,2,0,3,0c0.8-0.6,1.6-1.1,2.6-1.2c13.9,0.1,27.8-1,41.7,0.2c3.2,2.4,7.6,0.8,10.8,3.1
			c1.3,0,2.7,0,4,0c1.3,1.8-0.8,4.2,1,6l0,0c0.3,2.3,0.7,4.7,1,7c-2,3-6.3,4.2-6.8,8.5c0,0.2-1.5,0.3-2.3,0.5
			c-1.4-2.1,0.6-3.5,1-5.2c0.6-1.7,1.9-3.1,2.9-4.5c1.5-2,0.7-3.3-1.5-4c-5.6-2.2-11.2-4.7-17.5-3.5c-1-0.1-2-0.2-2.5,0.9
			c-0.5,0.5-1.1,0.7-1.7,0.6c-5-3.7-9-0.7-13,1.9c-0.8-0.2-1.2-0.7-1.3-1.5c0-0.5,0.2-1,0.2-1.4c-0.1-0.5-0.2,0.1-0.3,0.2
			c-1.7,2.7-4.2,2.9-7,2.5c-2.6-0.4-5.2-0.2-7.8-0.2c-4.8,0.1-9.4,0.9-13.8,2.8c-1.4,0.6-3.3,1.1-3.6-1.6
			C178.7,58.4,183.2,55.5,185,50.1z"/>
		<path class="st38" d="M187,14.1c-1.9-0.7,1-4.9-3-4c1.9-2.9,1.1-7.2,4.9-9.1c3.7,0.5,7.6-0.6,11.2,1c0.3,0.7,0.7,1.3,1,2
			c-1.7,1.4-3.5-0.2-6.3,0.4c12.4,0.4,23.8,0.3,35.2,0.2c2.4,0,4.7-0.1,6,2.5c1,1.9,3.5,3.6,1,6.1c-1.4,1.6-3.2,1.4-5,1.4
			c-12.4-0.3-24.8,0.6-37.2-0.5C192.1,13.8,189.6,15.7,187,14.1z"/>
		<path class="st39" d="M2.3,123c-0.5-4-1.6-8-0.1-12c-0.1-9,0-18,0-27.1c0-2.4,1.3-3.4,3.4-4.1c3.4-1.1,6.8-1,10.3-1.4
			c3.9-0.4,7.8-0.9,11.8-1.1c2.6,1.3,5.4,1.3,8.2,1.5c1.7,0.1,4.3-0.2,4.4,2.1c0.1,2.6-2.3,3.8-4.6,4.5c-1.7,0.5-3.2-0.6-5.3-0.9
			c2.6,2.6,1.6,3.7-1.2,3.5c-4.5-0.2-8.7,1.5-13.1,1.6c4.2-0.1,8.3-1.7,12.6-1.5c1.8,0.1,4,0,3.9,2.6c-0.1,2.5-2.2,2-3.8,1.8
			c-4.5-0.3-8.9,0-13.4,0.5c-3,0.7-6.3-0.1-9.2,1.9c1.6,2.1,3.6-0.2,5.1,1c1.5,3.9-0.6,6.2-3.5,8.1c-0.6,0.6-1.5,1.8-0.9,1.9
			c3,0.7,0.3,4.4,3,5.3c0.8,0.3-0.3,1.3-1,1.7c-1.6,0.7-3.7,0.7-4.2,2.9C4,118.2,6.6,121.7,2.3,123z"/>
		<path class="st40" d="M3.1,183.9c-2.2-1.1-1.7-3.1-1.8-5.1c-0.1-6,0.8-12-0.1-18c0.3-7.6,0.6-15.2,0.9-22.9
			c0.6-0.5,1.3-0.9,2.1-1.1c1.5-0.3,3.1-0.1,4.6,0.2c3.1,1.1,6.3,0.4,9.4,0.9c6,0.9,7.2,3.3,4.5,8.5c-1.1,2.1-1.8,4.1,1.5,5
			c1.4,0.4,2.3,1.5,2,3c-0.3,1.4-1.6,1.6-2.8,1.7c-2.3,0.2-4.6,1.1-6.9,0.1c-4.9-2.2-8,0.9-11.5,3.4c0.9,1.7,2.3,1,3.3,1.4
			c0.8,0.3,1.7,0.4,1.8,1.5c0,0.7-0.6,1.3-1.2,1.4c-4.6,1.1-4.5,4.5-4.3,8.2c0.1,1.6-0.4,3.3-0.4,5c-0.1,0.7-0.4,1.4-0.9,2
			C3.2,180.6,3.2,182.3,3.1,183.9z"/>
		<path class="st41" d="M131.1,57.1c-5.2,0.4-10.9-1.6-15,3.6c-0.5,0.6-1.6,0.1-2.2-0.5c-3.2-3.3-4.4-0.6-5.8,1.8
			c-3.5,1.7-7.4,2-11.1,2.2c-4,0.2-7.9,0.7-11.7,2c-1.6,0.2-3.2,0.1-4.7,0.2c-10,1.3-20.1,1.8-29.4,6.4c-1.7,1-3.5,1.5-5.5,1.6
			c-2.2-0.4-5,0.1-4.7-3.6c31.2-8.3,63.2-12.7,95-17.7c1.8,1,1.6,2,0,3h-0.5H135C133.7,56.3,132.7,57.9,131.1,57.1z"/>
		<path class="st42" d="M41,70.8c0.9,2.6,3.1,2.2,5.1,2.3c0.1,0.5,0,1.3-0.4,1.3c-6.1,0.2-11.3,4.5-17.7,3.7
			c-6.3,1.6-12.8,1.9-19.3,2.1c-5,0.1-5.9,1.7-5.9,6.8c0,8,1.2,16.1-0.8,24.1C0.3,101.6,1,92,1.4,82.5c0.1-2.1,1.9-3.3,4.1-3.8
			C17.4,76,29.2,73.4,41,70.8z"/>
		<path class="st43" d="M176.1,18c0,9.1,0,18.2,0,27.3c0,1.3,0.8,3.5-1.7,3.3c-1.8-0.1-1.3-2-1.3-3.3c-0.1-9.1,0-18.2,0-27.3
			C174.1,18.1,175.1,18.1,176.1,18z"/>
		<path class="st44" d="M174.1,61c0.8,1.2,2.2,1.5,3.1,0.8c4.8-3.9,10.7-2.3,16-3.6c1.1-0.3,2.4-0.4,3.5,0c4.4,1.4,8.2,1.7,10.2-3.6
			c0.1-0.4,1.5-0.3,2.4-0.5c0.1,2.2-2.4,3-2.1,5c-0.3,0.8-0.7,1.3-1.6,1.5c-3.6,2.5-7.5,3.3-11.7,1.8c-4.3-1.6-8.5,0-12.7,0.6
			c-3.1-0.2-6.8,3.5-8.9-1.7C172.8,61.2,173.4,61.1,174.1,61z"/>
		<path class="st45" d="M4.1,138c-0.6,0-1.3,0-1.9,0c0-5,0.1-10,0.1-15c3.1-2.4,0.2-5.4,1-8c2.9,0.3,4.3,2.8,6.1,4.6
			c0.8,0.8,1.8,2.8,0.2,3.4c-6,2.1-2.7,5.9-1.9,9.2c0,0.4-0.1,0.9-0.3,1.3c-0.6,0.9-1,1.8-1.3,2.8C5.6,137.1,4.8,137.5,4.1,138z"/>
		<path class="st46" d="M136.1,56.1c0.6-1,0.6-2,0-3c3-2.1,4.9,0.3,7.1,1.7c-0.6,1.1-1.2,2.3-1.7,3.4c-0.4,0.8,3.2,1.9-0.1,2.5
			c-1.2,0.2-3.4,0.9-3.1-2C138.3,57.8,136.9,56.9,136.1,56.1z"/>
		<path class="st47" d="M466.9,25c-0.9-0.4-0.9-1.2-0.9-1.9c-0.1-6.2-4.6-3.7-7.8-3.9c-1.1-0.4-2.7-0.3-2.2-2.3
			c1.7-0.2,3.3-0.4,5-0.5c2.3-0.1,4.8-1.6,6.5,1.7c0.4,0.8,3,0.6,4.7,0.7c26.6,0.5,53.3,0.8,79.9,1.6c34.8,1,69.6,0.2,104.3,0.6
			c1.8,0,3.6,0.2,5.5,0.2c0.8,0.6,1.8,1.2,0.8,2.4c-3.8,2.4-8.5,0.1-12.4,2.4c-1.2,0.2-2.3,0.1-3.3-0.5c-2-1.2-4.2-0.9-6.3-0.9
			c-24.3-0.3-48.5-0.5-72.8-0.4c-1.7,0-3.5,0-5.2-0.2c16.7,0.2,33.4,0.2,50.2,0.2c2,0,4-0.4,5.8,0.7c0.8,1.9-0.9,1.9-1.9,2.5
			c-12.6,0.6-25.2,0.3-37.9,0.3c-14,0-28,0-42,0c-2.3,0-4.7,0.4-6.7-1.2c-0.3-3.5,3.2-1.7,4-2.7c-17.6-0.8-35.7-0.1-53.1-0.7
			c1,0.5,2.8,0.2,4.6,0.2c12.8-0.1,25.5,0.5,38.3,0.1c2-0.1,4.8-1.1,5.5,2.3c-3.8,3-8.3,2.2-12.4,2c-10.7-0.7-21.5,0.7-32.2-0.2
			C479,26.8,472.7,27.5,466.9,25z"/>
		<path class="st48" d="M273,18.1c-6,0-12,0-18,0c-2.7-0.2-5.4-0.7-8.2-0.3c-1.4,0.2-3.1,0.5-2.7-2c12.1,0.1,24.2,0.3,36.4,0.4
			c21.8,0.1,43.5,0,65.3,0.1c2.2,0,4.3,0,6.2-1.1c3.4-0.2,6.5-4.2,10.2-0.9c1.6,2.1,3.8,2.1,6.2,2.1c20.7-0.1,41.4-0.2,62.1-0.3
			c1.8,0,3.6,0.2,5.4,0.3c-0.1,1.2-1,1.6-1.9,1.9c-15.7,0.2-31.4,1.1-47.1-0.5c-0.5-0.1-1,0.2-1.4,0.4c-2.2,4.8-6.9,3.8-10.3,3.3
			c-6.5-0.9-13.4,0.7-19.6-2.8c-1.3-0.7-2.1,0.5-2.7,1.5c-2.7,2.7-6.1-0.1-8.9,1c-2.9,0.9-5.6,0.5-8.7-0.3c-3.9-1-8.4-1.9-12-1.1
			c-8.3,1.8-16.4-1.3-24.5,0.5c-6.4,1.4-12.7-1.3-19.2-1.5C277.5,18.6,275,20,273,18.1z"/>
		<path class="st49" d="M434.9,17.1c0.3-0.3,0.7-0.5,1-0.8c6.7,0.2,13.4,0.4,20.1,0.6c0.6,1.4,1.8,1.1,3,1.2
			c0.7,1.4,0.3,3.4-0.7,3.5c-3.6,0.7-3,3.7-3.9,5.8c-0.1,2.4-1.6,4.3-2.2,6.6c-0.8,2.9-2.6,5.1-5.6,4.5c-3.3-0.6-2.9-5.1-2.3-6.1
			c2.4-3.9-0.4-5.4-2.3-7.5c-0.2-2.4,0.6-4.9-1.4-7.3c-1.6,1.5-2.2,3.3-2.6,5.3c-1.5,1.1-2.3,0.1-3-1c-0.3-0.3-0.6-0.6-0.8-0.9
			c-0.2-0.1-0.3-0.2-0.5-0.3c-0.3-0.6-0.3-1.2-0.2-1.8C433.7,18.3,434.4,17.7,434.9,17.1z"/>
		<path class="st38" d="M244.2,15.8c1.5,2.4,3.8,1,5.8,1.3c1.7,0.3,3.6-0.6,5.1,1c-10.9,1.1-21.8,2-32.7,1
			c-4.7-0.4-9.3-1.5-14.1-0.7c-2.2,0.4-3.8-0.8-4.2-3.2c2.5-1.9,5.5-0.9,8.1-0.9c8.3,0,16.7-1.2,24.9,0.7c2.3-2.6,4.7-5.1,1-8.6
			c-0.6-0.5-4-3.9,0.9-4.3C241.5,6.3,243.8,10.7,244.2,15.8z"/>
		<path class="st50" d="M640.2,35c-0.1-0.7-0.3-1.3-0.4-2c-0.8-1-0.9-2.1-0.4-3.3c1.4-2.2,3.6-2,5.7-2c4.9-0.1,9.9-0.2,14.8,0
			c3.5,0.1,5.7-1.1,6.6-4.5c0.3-0.8,0.9-1.4,1.5-2c0.3-0.1,0.6-0.1,0.9,0c0.7,0.5,1,1.3,1.2,2.1c0.2,1.9,0.4,3.8-0.9,5.5
			c0.7,5.3-1.8,6.6-6.8,6.3C655,34.7,647.6,35,640.2,35z"/>
		<path class="st51" d="M668.9,19.1c-0.1-1.8-0.6-4.1,2.3-3.9c4.1,0.3,8.8-0.1,12.2,0.7c5.3,1.3,10.4,0.3,15.5,1.3
			c1,1.3,1.1,2.7,0.2,4.1c-1.7,1.4-3.7,1.2-5.6,1.2c-4.9-0.1-9.7-0.3-14.5-1.6c1.3,0.6,2.9,1,3.1,2.8c-1.5,1.8-4,1.1-5.8,2.3
			c-2.4-0.4-6.1,3-7-2.2C670.8,22,671.7,20.3,668.9,19.1z"/>
		<path class="st52" d="M738.8,18.2c0.7,0.6,1.5,1.2,2.2,1.8l-0.3,0.1c-0.9,1.5,0.2,3.3-1,5.1c-2.5-0.8-4.7-4.8-7.8-1.3
			c-0.4,0.3-0.8,0.4-1.2,0.5c-2.8-0.4-5.1,1.2-7.6,1.9c-5,0.2-9.9,0.4-14.9,0.3c-1.9,0-4.1,0-5.5-1.8c1.3-3,4.2-1.8,6.4-2.4
			c1.9-0.5,3.9-0.4,5.9-0.3c-1-0.1-1.9-0.3-2.3-1.3c0.8-2.3,2.9-2.1,4.5-2C724.4,19.3,731.6,18.4,738.8,18.2z"/>
		<path class="st53" d="M668,21.2c-0.1,0.6-0.1,1.2-0.2,1.8c-2.1,4.1-5.2,5.5-10.1,5.2c-11.7-0.6-23.4,0.2-35.1,0.1
			c-2.1,0-4.8,1-5.8-2.2c0.7-0.3,1.5-0.6,2.2-0.9c0.8-1.1,2-1.1,3.1-1.1c7.5-0.1,15,0,22.5,0c1.2,0,2.3,0.2,3.3,1c1,0,2,0,3,0
			c0.2,0,0.4,0,0.7,0c2.8-0.6,5.7,0.6,8.5-0.5c0.9-0.4,2-0.4,2.7-1.3c-0.3-0.7-0.6-1.4-0.8-2.1C663.9,21.1,666,21.2,668,21.2z"/>
		<path class="st54" d="M738.8,18.2c-4.8,2-9.7,2.3-14.8,2.1c-3.7-0.1-7.5-1.1-11.1,0.7c-0.5,0.3-1,0.3-1.4-0.2
			c-0.7-1.3-0.6-2.5,0.3-3.7c7.8,0,15.6-0.1,23.3-0.1C736.5,17,737.7,17.2,738.8,18.2z"/>
		<path class="st55" d="M362.2,14.2c-3.6-1.6-6.6,2.8-10.2,0.9c-0.1-1-0.1-1.9-0.2-2.9c0-3,1.3-4.6,4.3-3.4c2.3,0.9,5,0.3,7,2.3
			C363,12.2,363.4,13.4,362.2,14.2z"/>
		<path class="st56" d="M363.1,11.1c-2.2-0.2-4.6,0.5-6.6-0.8c-2.7-1.7-3.7-0.2-4.6,1.9c-2-3.8,1.2-5.7,3.1-8.1c3,1.6,5,4.9,8.9,5
			C364.1,10,364.1,10.7,363.1,11.1z"/>
		<path class="st57" d="M363.9,9.2c-5.1,2.1-6.6-2-8.9-5C359.1,3.8,361.9,5.8,363.9,9.2z"/>
		<path class="st58" d="M700.7,17.2c1.7-0.1,3.4-0.2,5.1-0.3c0.7,0.8,1.1,1.7,0.9,2.7c-1.5,4.1-4,2.3-6.4,1.1
			C699.8,19.5,699.9,18.3,700.7,17.2z"/>
		<path class="st59" d="M680.9,9.1c-0.1,1-0.4,2.1-1.7,1.8c-1.4-0.2-2.7-1-2.8-2.4c-0.2-1.7,1.4-1.4,2.5-1.4
			C680.2,7,681.1,7.5,680.9,9.1z"/>
		<path class="st60" d="M668.9,19.1c1.8,0.6,3.8,0.7,5.7,2.4c-1.8,0.7-3.3,1.2-4.8,1.8c-0.4,0.3-0.6,0.2-0.8-0.3
			c0-0.6-0.1-1.2-0.1-1.8C668.9,20.5,668.9,19.8,668.9,19.1z"/>
		<path class="st61" d="M706,20.6c0-1.2-0.1-2.4-0.1-3.6c1.4,0.1,2.8,0.2,4.1,0.2c0.7,1,0.8,2.1,0,3.1
			C708.7,21.2,707.4,21.3,706,20.6z"/>
		<path class="st55" d="M709.7,20.2c0.1-1,0.2-2,0.3-3c0.6,0,1.2,0,1.8,0c0.1,1.3,0.2,2.6,0.3,4c-0.1,0.9-0.6,1.5-1.5,1.2
			C709.4,22.1,709.3,21.2,709.7,20.2z"/>
		<path class="st62" d="M700.7,17.2c0.1,1.3,0.2,2.6,0.3,3.9c-0.7,1.9-1.5,1.9-2.2,0c0.1-1.3,0.1-2.7,0.2-4
			C699.6,17.2,700.1,17.2,700.7,17.2z"/>
		<path class="st63" d="M3.2,179c0-0.7,0-1.3,0-2c3.9-2.3,6.3-5.7,7.3-10.1c0.3-1.4,1-2.5,2.4-2.9c1.7-0.5,2.5,0.9,3,2
			c1.7,3.6,5,4,8.3,4.5c1.7,0.2,3.4,0.2,4.6-1.2c1.4-1.7-1.2-2.9-1-3.7c0.9-3.6-2-2.2-3.3-2.8c-1-0.4-1.9-0.9-1.8-2.1
			c0-1.5,0.9-2.7,2.1-3.1c6.1-2.1,12.2-4.5,18.8-4.2c3.4,0.2,6.6-0.2,10.2-1.6c-1.9-1.6-3.9-1.1-5.7-1.2c-2.6-0.1-4.2-1.5-3.8-4.1
			c0.4-2.9,2.3-2.1,4.1-1.3c0.6,0.3,1.4,0.4,1.7-0.3c0.5-0.9-0.1-1.6-0.8-2.1c-2.2-1.6-4.6-1.3-7.2-1.1c-2.7,0.2-6.1,0.5-5.2-4.2
			c0.6-0.5,1.3-0.7,2.1-0.9c9.6-2.3,19.3-0.8,28.9-0.2c4.5-0.3,8.9,0,13.4,0.1c5.8,0.1,11.2-0.5,15.7-4.8c1.3-1.3,3.1-2,5-0.9
			c-0.3,3.3-3.9,4.3-5,7c-2.3,0.7-4.7,1.3-7,2c-5.2,3.7-9.4,8.7-15.2,11.9c-4.4,2.4-9.4,2.5-13.8,4.6c-1.6,0.8-3.4,1.3-5,2.4
			c-10.4,5.1-19.5,13.1-30.6,16.3C18.4,177.3,10.9,179.7,3.2,179z"/>
		<path class="st10" d="M56.1,159c0.6-3.6,3.4-2.6,5.8-3.5c8.3-3.1,17.5-5.3,23.2-13.2c1.3-1.8,2.8-2.6,5-2.3
			c-0.7,3.8-2.9,6.3-6.1,8.5C75.6,154.4,65.9,156.7,56.1,159z"/>
		<path class="st64" d="M237,15c-11,0.1-22,0.1-33,0.2c-4.6,0.4-9.4-1.3-14,1.1c-2.1,1.1-2.1-1.3-3-2.2c6.1-2.1,12.4-0.5,18.5-0.6
			c10.5-0.3,21-0.2,31.5-0.3C237,13.8,237,14.4,237,15z"/>
		<path class="st34" d="M236,7.1c-1.9-1.5-4-2.1-6.4-2c-12.4,0.1-24.9,0.1-37.5,0.1c2.9-2.8,6.1-1.1,9.1-1.1
			c10.1,0,20.1,0.1,30.2,0.1C233.6,4.1,235.8,4,236,7.1z"/>
		<path class="st65" d="M730.9,32.1c-5.6-2.3-11.6-2-17.3-1.5c-9,0.9-17.9-0.2-26.7,0.4c-4.9,0.4-9.8-1.1-14.6,0
			c-1.3,0.3-2.2-0.4-2.4-1.8c1.7-2.2,4.2-1.9,6.4-1.8c5.9,0.4,11.9-0.7,17.8,0c13.5,0.6,27.1,0.9,40.6-0.5c1.6-0.2,2.9,0,4.2,1.1
			c0.8,0.6,1.3,1.6,1.9,2.4c0,1.9,0,3.9,0,5.8C738.8,31.4,735.3,30.8,730.9,32.1z"/>
		<path class="st54" d="M740.7,30.3c-0.8-0.2-1.5-0.3-1.9-1.2c-1-2.2-2.5-3.8-5.3-3.4c-1.2,0.2-2.3-0.3-2.7-1.6
			c2.9-4.3,5-4.3,8.5,0.1c1.1-1.1-0.1-3,1.3-4.1C740.7,23.5,740.7,26.9,740.7,30.3z"/>
		<path class="st66" d="M285,95c0.6-0.6,1.7-1.2,1.7-1.7c-0.7-5,3.6-9.3,1.9-14.6c-0.9-2.7,1.7-2.4,3.5-2.6c2-0.2,5.1,2.2,5.9-1.9
			c0.4-0.4,0.8-0.9,1.2-1.3c2.5-3.4,5.6-1.5,8.5-0.9c2.2,0.6,4.1,1.9,6.6,1c2.9-1,6.5-0.4,7.1,2.6c0.7,3.6-2.5,4.9-5.9,4.8
			c-1.3-0.6-2.7-1.2-3.4,0.8c-0.6,0.4-1.2,0.5-1.8,0.6c-3.2,0.8-1.5,3.6-2.1,5.4c-0.6,3.1-2,5.5-5,6.8c-0.4,0.6-0.7,1.3-1.1,1.9
			c-4.2-0.1-8,0.8-11.3,3.7c-1.9,1.7-4.2,2-5.7-0.8C285,97.7,285,96.4,285,95z"/>
		<path class="st67" d="M285,99c2.4,1.1,4.4,1.9,6.1-1.3c1.3-2.5,8.3-3.2,10.9-1.6c-2.1,4.6-4.1,9.3-7.6,12.9
			c3.7,5,6.7-2.2,10.5-0.1c-2.4,2.5-3.2,6.1-6.9,7.1l0,0c-3.5-0.7-7-1.7-10.1,1.7c2.2-5-2.6-5.5-4.5-7.4c-1-1.1-2.2-2.3-3.5-3.2
			C279.2,102.8,282.3,101,285,99z"/>
		<path class="st68" d="M334,88c0,1.6,0,3.3,0,5c-6.4-3.3-9.8-1.1-10.7,6.6c-0.1,0.8-0.2,1.6-0.4,2.3c-0.7,0-1.3,0-2,0.1
			c-2.7-6.4-9-2.7-13.4-4.6c-2.5-1-1.3-1.4-0.7-2.5c2.7-1.6,5.4-3.3,6.4-6.5c0.7-1,1.4-2,2.9-1.5c1.1,1,0.4,2.4,0.7,3.9
			c4-4.6,8.9-6.8,14.9-6.3C333.2,85.3,333,87,334,88z"/>
		<path class="st28" d="M267,127c5.4,2.5,11,2.6,16.8,1.8c2-0.3,2.1,0,1.2,4.2c-0.9,0.4-1.7,0.9-2.3,1.6c-0.9,0.5-1.5,1.1-0.6,2.2
			c0.1,3-1.5,3.8-4.1,3.3c-1.4-0.3-2.8-0.6-4.3-0.7c-0.8-0.1-2.2,0.3-2.1-0.5c1-5.8-3.8-2.5-5.6-3.8
			C265.6,132.2,262.4,129.1,267,127z"/>
		<path class="st28" d="M286,134c2.8-3.5,7.9-3.5,10.7-7.2c1.1-1.5,2.8,0.3,2.1,1.6c-2.5,4.6-2.9,10.6-8.4,13.3
			c-1.7,0.9-3.6,1.6-5.5,0.3C286,139.4,284.8,136.6,286,134z"/>
		<path class="st28" d="M297,158c-1.9-3.1-4.1-5.5-8.2-4.2c-0.3,0.1-0.8,0.1-0.9-0.1c-3-3.4-6.9-3.1-10.8-2.8
			c3.2-0.8,3.1-5.9,7.2-5.6c0.9,0.1,2.4-0.6,2.3,0.8c-0.3,8.2,6.5,5.2,10.4,6.9c0.9,1,0.9,1.9,0.1,2.9C297,156.6,297,157.3,297,158z
			"/>
		<path class="st69" d="M267,127c-2.9,2.3,0.6,5.5-1,8c-3,3.4,0.4,7.5-1,11c-2.6-4-3-8.9-2.7-13.2c0.2-2.1-0.2-6.6,3.8-7.8
			C266.1,125.9,266.3,126.6,267,127z"/>
		<path class="st70" d="M286,134c0.4,2.8,2.7,5.8-1,8c-2.4-0.4-5.4,1.1-7-2c1.5-0.7,3.3-1.1,4-2.9c-0.1-1.1,0.3-2,0.9-2.9
			c0-0.6-0.1-1.2-0.1-1.8c0.7,0.2,1.5,0.4,2.2,0.6C285.4,133.3,285.7,133.7,286,134z"/>
		<path class="st71" d="M297,155.9c0-1-0.1-2-0.1-2.9c-0.2-2.6-4.8-5.7,1.7-7.6C299.4,149.1,300.6,152.7,297,155.9z"/>
		<path class="st68" d="M303.1,94.1c1.2-2.4,3.9-4,3.9-7.1c2-0.5,3.2,0.7,4.2,2.1c-0.8,2.2-1.3,4.6-4.3,4.9
			C305.7,94.1,304.4,95,303.1,94.1z"/>
		<path class="st72" d="M307,94c1.6-1.4,2-3.8,4.1-4.9c0.9-1,1.9-0.9,2.9-0.1c-0.8,3.8-2.9,6.1-7.1,6C307,94.7,307,94.4,307,94z"/>
		<path class="st67" d="M298,116c0.1,0.8,0.1,1.7,0.3,2.4c0.4,1.1,0.9,2.4-0.6,2.9c-1.5,0.4-2.4-0.8-3-2c-1.2-2.4,0.8-1.7,1.9-2
			C297.1,117.1,297.5,116.4,298,116L298,116z"/>
		<path class="st73" d="M102.1,131c-1.1,0.3-2.6,0.2-3.2,0.9c-6.1,7.4-14.5,6-22.4,6.1c-2.8,0-5.6,0-8.3,0c-0.4-2.4,1.4-2.9,2.9-2.9
			c2.8,0,0.3-1.7,0.9-2.3c2.8-3.1,7.8-2.9,9.9-6.8c-2.6-0.4-3.3-2.9-3-5.2s2.8-1.9,4.5-1.9c3.8,0.2,7.7,1.9,11.6-0.4
			c-6.4-1.6-6.7-2.1-5.5-7.9c1.3-2.5,4-1.9,6-2.8c0.3-1.9-2.6-2.4-1.8-4.3c0.9-1.9,3-1.8,4.7-2.4c3.2-1.1,6.6-0.3,9.8-0.8
			c2.6,0.8,5.8-0.6,8,1.9c0.2,1.5-0.8,2.3-1.8,3.1c-1.1,0.7-2.4,1-3.7,1.1c0.3,1,1.3,1.1,1.9,1.4c1.6,0.8-0.1,3.1,1,3.2
			c3.2,0.4,6.3,2.3,9.7,0.8c1.8-0.8,3.5-0.9,4.8,1c-2.5,4.2-7.3,5.5-10.8,8.5c-3.6,3.1-8.2,5.3-11.9,8.6
			C104.4,131,103.3,131,102.1,131z"/>
		<path class="st74" d="M116.1,103c-2.3-2.4-5.8,0.4-8-2c4.9-7,12.6-7.2,20-8.4c1.4-0.1,2.5-0.7,3.4-1.7c1.5-1.7,3.6-2.8,5.7-2.6
			c6.8,0.5,12.8-2.6,19.3-3.6c3.5,0.1,6.8-1,10.2-0.9c5,2.1,10.1-0.1,15.1-0.3c4.7-0.2,9.4-1.1,14.1-2.3c4.8-1.4,9.6-1.9,14.7-1.8
			c4.8,0.1,9.9-1,13.6-4.9c3.2-0.7,6.3,0.1,9.3,0.9c0.2,0.2,0.4,0.4,0.6,0.6c-8.9,4.7-18,9-28.3,9.6c-1.2,0.1-2.5,0.9-3.7,1.4
			c-5.5,2.1-11.6,0.8-17,3.1c-11.2-3.2-19.4,3.8-28.1,8.7c-2.4,1.3-4.8,2.8-7.4,2.4c-6.7-0.9-13.2,1.3-19.8,1.6
			C125.2,102.9,120.7,103.8,116.1,103z"/>
		<path class="st75" d="M116.1,103c10.8-1.4,21.6-3.5,32.6-3c2.2,0.1,4.2-0.3,6.2-1.5c4.2-2.6,8.5-4.9,12.7-7.5
			c4.1-2.6,9.3-1.7,13.4-4.4c0.5-0.3,1.7-0.4,1.5,0.4c-0.8,4.4,2.9,2,3.4,1.7c5.2-2.7,10.7-1.4,16.1-1.7c-5,4.4-11.6,3.2-17.4,4.8
			c-3.6,1-7.4,1.3-10.8,3.1c-6.5,3.5-14.1,3.7-20.6,7.1c-4.9,2.6-10.3,4.2-14.7,7.8c-2.1,1.7-4.9,1.9-7.5,2.2
			c-1.6-3.6,2.6-3.3,3.7-5.5c-3.1-0.4-6-0.1-8.9-0.2c-3.7-1.2-7.6,0.9-11.3-0.7c-0.2-0.2-0.4-0.4-0.5-0.6
			C114.5,104.1,115.2,103.4,116.1,103z"/>
		<path class="st76" d="M126.1,105c3,0,5.9,0,8.9,0c0.9,0,2.2-0.3,2.5,0.9c0.3,1.4-0.8,2.1-1.8,2.6c-1.8,0.8-4.5,0.3-4.6,3.5
			c-1,0.3-2,0.7-3,1c-5.7,0.8-11.4,0.8-16.9-1c-0.6-0.2-1.3-0.1-1.6-0.9c0.4-2,2.4,0,3.2-1.2c-0.2-1.2-1.1-1.5-2.1-1.8
			s-3.1,0.8-2.7-1.5c0.3-1.8,1.8-1.4,3.2-1.2c0.9,0.2,1.9-0.2,2.9-0.4l0,0C118.1,106.1,122.1,105.2,126.1,105z"/>
		<path class="st74" d="M242,69c-0.7,1.7-1.3,3.3-2,5c-1.9,0.9-3.7,2.2-6,2l-0.1-0.1c-0.8-0.5-1.6-1.6-2.4-1.6
			c-5.1-0.2-6.2-4.3-8.1-7.7c0.1-0.5,0.3-0.9,0.6-1.2c2.9-1.2,5.8-2.2,8.8-3.1c1.6-0.5,4-2,4.9,0c1,2.1-1.7,2.7-3,3.8
			C236.6,68.4,240,67.1,242,69z"/>
		<path class="st77" d="M233.1,50.1c-14.3,0-28.6-0.1-43-0.1c-0.1-2,1.5-2,2.7-2.1c5.9-0.7,11.9,0.2,17.4-3.2
			c0.8-0.5,2.4-0.5,2.8-0.2c-7.8,1.6-16.5,0.4-25.1,1.6c-1.6,4-5,3.2-8,2.8c-3.3-0.5-1.9-3.5-1.8-5.3c0.1-7.2-1.3-14.7,2.8-22.2
			c-0.8,3.8,5.5,0.7,3.8,5.2c1.9,0.1,3.7-0.3,4.5-2.1c1-2.2,3-3,4.9-3.9c1.2-0.6,2.3-0.4,3.1,0.6c1,1.3,0.7,2.6-0.6,3.5
			c-1.4,1-2.4,2.3-3,3.9c2.1,1.4,4.4,2.3,6.4,0.6c3.1-2.6,6.2-1.6,9.3-0.7c4.6,1.3,9.1,0.5,13.7-0.4c-0.4-1.5-2.3-0.4-2.5-2.1
			c0.3-0.2,0.6-0.6,1-0.6c1.4,0,2.7,0.7,4.3,0c3.9-1.7,5.8,0.2,6.8,3.9c0.4,1.4,0.4,3.9,2.8,3.4c1.9-0.4,2-2.6,2-4.2
			c0-1.5-0.6-3.1,1.4-3.6s2,1.1,2.2,2.4s0.9,1.4,2.1,1.4c1.9,0.2,3,1.3,2.4,3.4c-0.5,1.4,0.3,2.1,1.3,2.8c1.7,1.1,9.8,0.9,11.7,0.3
			c3.9-1.2,8-2.6,12.1-0.1c1,0.6,1.9,2,3.4,0.9c2.7-3.4,5.9-1.9,9-1c0.7-0.3,1.3-0.7,2-1c1.2-0.9,2.1-0.3,2.8,0.8
			c3.2,4.3,0.5,8.8-6.1,10.2c-16.9,1.2-33.9-0.8-50.8,0.6c3.1,2.8,6.7,0.5,9.7-0.1c4.2-0.9,8.3-0.5,12.3-0.2
			c4.6,0.3,9.2,1.1,13.8,0.2c2.6-0.5,4.7,0.2,4.2,3.6c0,0.3,0,0.6,0,0.9c-0.7,0-1.4,0-2.1,0c-7.8-1.1-15.7,0-23.5-0.7
			c-1.2-0.1-2.6,0.2-3.6,1.3C238.9,51.2,235.9,51.5,233.1,50.1z"/>
		<path class="st21" d="M392,54.1c-1,3.1-1.5,6.3-3,9.1c-1.4,2.5-3.8,4.6-7.1,2.2c-0.9-0.7-1.7-1.8-2.8-0.3
			c-0.7,0.6-1.6,0.7-2.3,0.3c-8.2-5.3-16.6-1.7-25-0.5c-1.6,0.2-3,1.5-4.7,0.3c-2.3-2.7-5.5-2.1-8.4-1.9c-10,0.8-19.8,2-30,0.7
			c-5.1-0.6-11.7-1.9-16.4,3.3c-1.2,1.3-2,0.4-2.2-1.1c-0.3-1,0.8-2.7-0.8-2.8c-1.3-0.1-0.9,1.8-1.2,2.8c-0.1,1.5-0.6,1.3-1.8,0.7
			c-3.4-1.6-4.1-7-9.1-6.4c-0.1,0-0.3-0.2-0.3-0.3c1.4-7.6-4.6-2.5-6.8-4c-1.7-1.1-3-2.4,0.2-2.9c2.4-0.4,5.4-0.9,7.4,0.2
			c7.2,3.9,14.2,0.2,21.2,0.4c6.9,0.2,13.9,0.8,20.8,1.6c1.2,0.1,2.2,1.8,3.3,2.8c1.7,1.5,3.4,1.6,5.1,0c4.1-3.1,8.4-3,13.5-2.4
			c5.2,0.7,10.7-0.8,16-1.3c4.6-0.4,9.2-0.8,13.8,0.3c1.3,0.3,2.8,0.5,3.9,0.1c4.8-1.8,6.8,0.6,7.7,4.8c0.3,1.3,0.2,2.9,1.9,3
			c1.4,0.1,1.5-1.6,2.1-2.4C388.6,58,389.4,55.3,392,54.1z"/>
		<path class="st78" d="M242.1,50c2.1-1.4,4.2-1.6,6.9-1.3c5,0.6,10.2,0.3,15.3,0.4c1.6,0,3.3-0.6,4.7,0.9c-8.6,0-17.3,0.1-25.9,0.1
			C242.7,50.4,242.4,50.4,242.1,50z"/>
		<path class="st79" d="M328,58.1c0,1.6-0.2,2.9-2.3,3c-2.3,0.1-2.8-1.1-2.8-3C324.6,55.5,326.3,55.4,328,58.1z"/>
		<path class="st21" d="M242.1,50c0.3,0,0.6,0.1,0.9,0.1c0,0.6,0,1.3,0,1.9c-3.3-0.7-7.2,1.8-9.9-1.9C236.1,50.1,239.1,50,242.1,50z
			"/>
		<path class="st21" d="M248,58.1c-2.4-1.7-1.5-3.9-1-6C250.8,53.5,246.7,56.2,248,58.1z"/>
		<path class="st80" d="M468,54.1c0-7,0.3-7.3,7-7c1.3,0.1,2.6,0,3.9,0c1.1-0.1,2.2,0,3.2,0.5c6.4,0.4,12.9,1.4,19.2,0.8
			c12.2-1.2,24.4,1.6,36.5-0.7c1.7,0,3.4-0.1,5.2,0c8.9-0.3,17.9,1,26.8,0.5s17.8,0.2,26.7-0.3c2.3-0.1,4.6-0.4,6.9,0.1
			c2.9,1.2,6.3,0.1,9.1,1.6c0.5,0.4,0.6,0.9,0.3,1.5c-4.7,1.2-9.5,1-14.3,1c-19,0.2-38,1.5-57,1c-6.1-0.2-12.2-0.7-18.2,0.9
			c-1.5,0.4-2.9-0.1-4.2-1.1c-1.9-1.4-4.4-1.4-6.2-0.5c-7,3.4-14.2,0.4-21.2,1.1C483.8,54.3,475.8,50.1,468,54.1z"/>
		<path class="st81" d="M612.9,51.1c0-0.3,0-0.6,0-1c0.4-1.3,1.5-1.9,2.7-1.6c4.9,1.1,8.1-1.6,11.2-4.7c1.1-0.8,2.4-0.8,3.7-1
			c4.3-0.6,7.2,0.9,8.3,5.3c0,1.6,0.1,3.3,0.1,4.9c-4.4-3.7-9.8-1.9-14.7-2.3C620.6,50.5,616.7,50.9,612.9,51.1z"/>
		<path class="st82" d="M282,44c1-2.1,5,0.8,5.4-3.8c0.3-3.2,0-4.7-2.4-6.2c1.3-2.6,2.7-1.4,4,0c1.4,2.2,3.3,3,6,2.4
			c3.3-0.8,7-0.6,9.9-2.7c1-0.7,3-0.8,1.9-3.1c-0.7-1.5,0.8-2,2-1.9c1.8,0.2,3.9-0.3,5.2,1.1c3.6,3.7,6.1,2.6,8.2-1.5
			c1.2-0.5,2.3-0.4,3.5,0c0.8,0.3,1.4,0.9,2.2,1.1c1.4,0.3,2.9,0.6,4.3,0.6c-1.4-0.3-3.1,0-3.8-1.8c-0.1-0.5,0-0.9,0.2-1.3
			c1.5-1.6,3.3-2.6,5.6-2.1c0.5,0,0.9,0.1,1.3,0.2c2.7,1.2,5.1,1.4,6.6-1.8c0.2-0.4,0.5-0.8,0.9-1.1c4.1-1.9,7.9-1.1,10.6,2.4
			c0.7,0.9,1.3,1.8,2.3,2.5c0.8,1.5,1.8,2.4,3.5,1c2.7-2.3,5-2.4,8.8-0.9c3.2,1.3,7.8-0.6,11.8-1.1c-1.9,2.5-3.6,4.8-7.3,5.2
			c-3.5,0.4-5.6,7.7-3.1,10.1c-2.3,2.5-6.1,2.4-8.5,4.9c-1.5,1.6-2.6-1.8-4.4-0.9c-0.3-1.7-1.1-3.4,0.4-5c0.7-0.8,2.3-1.8,1.2-2.7
			c-1.1-0.9-4-1.5-4.4-1c-1.5,1.9-4.7,2.2-4.8,5.3c-4.2,0.5-9.3-1-11,5c-2.7,0.8-5.3,1.1-7.9-0.6c-1.9-1.2-4.2-0.7-6.3-0.7
			c-11.6-0.1-23.1,0-34.7-0.1C286.7,45.6,284.1,46,282,44z"/>
		<path class="st11" d="M347,65c5.9-3.5,12.7-2.5,19-4c5.2-1.2,9,1.6,13,4c3.2,2.9,8.1,4.6,7,10.5c-0.7,3.5-2.1,5.5-5.9,3.5
			c-2.2-1.3-2.9-3.9-5-5.4c-6.1-4.5-12.8-4.4-19.1,0.5c-1.3,1-2.2,2.5-3.7,3.2c-3.3-0.8-6.4-0.1-9.5,0.9c-1.8,0-3.7,0.1-4.5-2
			C337.5,69.6,342,67.2,347,65z"/>
		<path class="st83" d="M308,73.1c-3-0.2-5.9-1.7-8.9-0.1c0-1.2-0.7-3.2,1.3-3.1c7.5,0.5,15.2-1.7,22.5,1.3c0.2,1.3-0.8,1.5-1.7,1.8
			C316.8,71.5,312.4,74.3,308,73.1z"/>
		<path class="st84" d="M321,72.1c0.6-0.3,1.3-0.6,1.9-0.9c5.9-0.1,7.7,4.7,10,8.6c1,1.7,0.9,4.1,1.3,6.2c0,0.7-0.1,1.3-0.1,2
			c-1.4-0.5-2-1.5-2-2.9c-2.1-5-5.2-9.1-10.3-11.4C321,73.4,320.7,72.8,321,72.1z"/>
		<path class="st85" d="M288,66.1c-1.5-1.5-1.6-3.3,0-4.6c1-0.9,2.6-0.5,3.4,0.7c1.2,1.8,0.3,3-1.4,3.9
			C289.4,66.1,288.7,66.1,288,66.1z"/>
		<path class="st29" d="M337,77c-0.1,3.3-0.2,6.7-0.3,10C335.6,83.7,335.1,80.3,337,77z"/>
		<path class="st86" d="M370.3,95.2c3.3,0.1,5.2-2.5,7.7-4.1c1.2,2,2.4-1,3.7-0.1c-0.8,3.6-4.2,4.2-6.5,5.9c-2.7-0.2-5.6,1-8.2-0.8
			C368.1,95.8,369.2,95.5,370.3,95.2z"/>
		<path class="st87" d="M282,44c14.1,0,28.2,0,42.4,0.1c2.6,0,5.4-0.8,7.4,2.4c1.1,1.6,4.1,0.4,6.2,0.5c1.8,0.3,3.9-0.6,6.1,1.3
			c-2.8,1-4.9,0.7-7.1,0.3c-3.3-0.6-6.7-1.7-10.1,0.2c-0.4,0.2-1,0.3-1.5,0.1c-8.4-2.6-17,1.6-25.4-1c-1.9-0.6-4.3,0.6-6.5,0.7
			c-2.8,0.2-6.5,1.4-8.3,0.1c-5.2-3.7-9.6,0.5-14.3,0.2c-0.9-1.9-1.6-3.5-4.4-2.4c-4.5,1.7-9,0.3-13.6-0.1c-3.2-0.3-6.9-1.1-11,0.4
			c-4,1.5-11.1,4.5-15.2-2.9C245.3,44,263.7,44,282,44z"/>
		<path class="st88" d="M417.9,27c-5-2.1-10-1.1-15-0.1c-3.4-3.2-8.2-0.5-11.8-2.9c-1.3-0.8-2.4-1.6-3.1-3c1.4-1.6,3.3-1.6,5.1-1.3
			c11.6,1.7,23.1,0.3,34.7,0c2.1-0.1,4.4-0.3,6.1,1.3l0.3,0.1c-1,3.2-2.6,4.6-6.4,3.7C424.4,24,420.6,23.6,417.9,27z"/>
		<path class="st89" d="M433.9,21c-15.3,0.3-30.6,1.7-45.9,0.1c-1-0.8-1.3-1.6,0.1-2.3c1-0.7,2.2-0.7,3.3-0.7c12.9,0,25.9,0,38.8,0
			c1.3,0,2.7-0.1,3.8,0.9C434,19.7,433.9,20.4,433.9,21z"/>
		<path class="st90" d="M434,19c-15.3-0.1-30.6-0.1-45.9-0.2c-0.9-0.3-1.7-0.5-2.6-0.8c1-1.2,2.3-1.1,3.7-1.1
			c15.2,0,30.5,0.1,45.7,0.1C434.8,17.9,434.8,18.6,434,19z"/>
		<path class="st19" d="M356,27.1c-2.8,0-3.5-3-5.8-4c-2.6-1.2-4.8-1.4-7.2,0c-1.1-1.5-0.1-2.3,1-3c3-1.9,6,0.9,9,0
			c1.4,0.8,5.4-0.1,2.4,3.6C354.2,25.1,356.7,25.8,356,27.1z"/>
		<path class="st86" d="M616.8,26.2c5.8,1.9,11.9,0.9,17.7,0.7c7.3-0.3,14.6,0.3,21.9,0.5c4.8,0.1,8.1-1.2,11.3-4.3
			c-0.4,4.4-2.9,6.3-7.3,6.2c-5.3-0.2-10.6-0.1-16,0c-1.6,0-3.4-0.6-4.6,1c-1.6,0.8-3.3,0.4-4.9,0.4c-25.4-0.1-50.8,0-76.2,0
			c-0.6,0.1-1.3,0.1-1.9,0c-5-0.1-10.1-0.2-15.1,0.1c-12.2,0.1-24.5,0-36.7,0c-10.6,0.2-21.2,0.1-31.8,0c-1.8,0-3.7,0-5.1-1.4
			c-1.6-1-1-2.7-1.2-4.1c9.3,0.4,18.6,1.4,27.8,0.9c11.7-0.7,23.5,1.5,35.2-0.8l0,0c3.1,1.8,6.5,0.8,9.7,0.9
			C565.4,26.1,591.1,26.1,616.8,26.2z"/>
		<path class="st91" d="M468.1,29.2c12.3,0,24.6,0.1,36.9,0.1c5,3.4,10.5,2.2,16.1,2.4c6.6,0.3,13.2,0.8,19.8,0.8
			c14.8,0.1,29.6,0,44.4,0.1c2.6,0,5.4-0.7,7.6,1.6c0.2,0.7,0,1.2-0.6,1.5c-6.9,1.5-13.9,0.4-20.8,0.7c-2.5,0.1-5,0-7.5,0.1
			c-5.7,0.1-11.3,0.1-17,0c-20-0.3-40.1-0.1-60.1-0.1c-1.9,0-3.7,0.2-4.8,1.9c-0.6,0.6-1.2,1.1-2.1,1.1c-1.2-0.2-1.7-1.1-1.6-2.1
			c0.1-1.7,0.4-3.4-2-3.6c-2-0.2-3.9-1.8-5.9,1c-2.8,3.8-2.7-0.3-3.4-1.8C467,31.6,467,30.2,468.1,29.2z"/>
		<path class="st33" d="M442,25.1c2.3,0.3,3.8,1.7,5.1,3.5c0.7,0.9,2.7,2.2-0.8,2.1c-2.1-0.1-1.9,3.1-0.8,3.6
			c2.8,1.3-0.6,2.5,0.6,3.8c6.2-1.1,5.2-7,7-11c2.7-1.3,3.7-0.2,3.2,2.4c-0.4,2,0.2,3.4,1.7,4.6c0,1.4,0.1,2.9-1.9,3
			c-2.3,1.1-4.1,3.2-6.8,3.3c-2.4,0.1-1.8,2.2-2.2,3.7l-0.2,0.1c-4.5,1.9-5.3,1.3-6.2-4.4c0.2-3.4-0.4-6.8,0.4-10.2
			c0.3-0.5,0.6-1,0.9-1.4C441.4,27.1,441.3,26.1,442,25.1z"/>
		<path class="st92" d="M458,34.1c-2.8,0.2-4.1-0.8-2.9-3.7c0.8-2,0.9-3.5-2-3.3c-0.1-4.4,4.6-5.5,5.9-8.9c2.9-0.2,6.2-2.6,8.2,2
			c0.9,1.9-0.1,2.3-1.2,3c-1.1,0.8-3,0.7-2.6,2.9c0.3,1.6-1,2.8-2.1,2.9C457.5,29.1,458.2,31.8,458,34.1z"/>
		<path class="st93" d="M467.1,33c1.3,0,0.1,4.1,2.7,1.7c2.8-2.7,7.2-3.7,9.8-1.2c1.5,1.5-0.9,3.6-0.6,5.5c-0.1,0.2-0.3,0.3-0.4,0.5
			c-0.8,0.5-1.7,0.6-2.6,0.5c-2.3,0.5-3.6-1.3-5.5-2.4c-1,1.8-0.1,4.1-1.9,5.6c-0.5-1-1-2.1-1.5-3.2c-0.9-0.9-1-1.9-0.2-2.9
			C466.9,35.7,467,34.4,467.1,33z"/>
		<path class="st94" d="M466.8,37.1c0.1,1,0.1,1.9,0.2,2.9c0,2-0.2,4,0,5.9c0.2,2.9-1.4,3.4-3.7,2.9c-1.4-5.6,1.6-10.8,1.2-16.5
			C466.9,33.5,465.2,36.1,466.8,37.1z"/>
		<path class="st49" d="M447,44c-2-1.7-3-3.6,0.4-4.5c2.8-0.7,5.8-0.7,7.3-3.8c0.4,0.4,0.9,0.9,1.3,1.3c-0.5,1-1.3,2-0.8,3.2
			c1.2,2.9,0.3,3.1-2.4,2.4c-2.7-0.7-2.8,1.4-2.8,3.3C448.9,45.4,448.5,43.9,447,44z"/>
		<path class="st13" d="M441.9,40.1c-0.4,3.8,1.3,5.1,4.9,4.1c-0.9,3-4.6,2.3-6.2,4.6c-0.6,0.9-2.5,0.1-2.7-1.7
			c-0.4-5.4,0.7-10.8,1-16.2c0.1-2.1,1-3,3-2.8c0,0.3,0,0.6-0.1,0.9C441.2,32.7,441.2,36.4,441.9,40.1z"/>
		<path class="st48" d="M435,22.1c1,0.3,2,0.7,3,1c0,2.3,0,4.6,0,6.9C437.6,27.1,434.3,25.3,435,22.1z"/>
		<path class="st95" d="M693.9,28c-6.9,0.2-13.8,0.5-20.7,0.7c-1.1,0-2.3,0.2-3.4,0.4c-0.2-0.1-0.5-0.2-0.7-0.3
			c0-1.9-0.1-3.9-0.2-5.8c0.3,0.1,0.5,0.1,0.8,0.3c0.4,0.8-0.5,2.5,1.7,2.1c1.7-0.3,3.6-0.2,5.4-0.3c2.6-1.1,5.9,1.4,8.2-1.4
			c0.7-0.2,1.4-0.2,2,0.1c1.1,1.4,2.4,1.8,4.3,1.6C692.9,25.2,695,25.3,693.9,28z"/>
		<path class="st93" d="M479,39c0.6,0,1.2,0,1.8,0.1c0.2,0.2,0.4,0.3,0.6,0.5c1.2,2.4,0.7,5,1,7.5c-0.2,0.8-0.5,1.5-1.5,1.1
			c-0.8-0.1-1.6-0.2-2-1c0-0.7,0-1.4,0-2c-0.7-1.9-1.8-3.8-0.2-5.8L479,39z"/>
		<path class="st96" d="M478.8,39.2c0.1,1.9,0.1,3.9,0.2,5.8c-1.3-1.5-2.8-2.9-3-5C476.7,38.9,477.7,39.1,478.8,39.2z"/>
		<path class="st97" d="M592.9,34.9c-1.6-1.3-3.5-0.8-5.3-0.8c-19.4,0-38.8,0-58.2-0.1c-2.6,0-5.3,0.6-7.6-1.4
			c-0.7-0.6-1.5-0.6-2.3-0.1c-5.8,3.4-10.6,1.8-14.5-3.3c12.3,0,24.7,0,37,0c4.9,1.3,9.9,1.3,14.8,0c0.4,0,0.8,0,1.2,0
			c5.3,1.7,10.9,0.7,16.3,0.8c7.4,0.2,14.9-0.5,22.1,2c2.3,0.8,3.6-1.4,5.5-1.6c0.5,0,1,0.2,1.5,0.5c6.5,1.5,12.9,2.6,19.5,0.8
			c3-0.8,6-2.1,9,0.2c-1.1,3.3-3.4,3.4-6.1,2.2c-1.2,1.8,0.6,3.2,0,4.8c-0.5,0.6-1.1,0.6-1.8,0.5c-0.4-0.2-0.7-0.5-1-0.9
			c-0.6-1-1.3-1.9-2.7-2c-7.2-0.2-14.5,0-21.7-0.1C596.7,36.4,594.5,36.9,592.9,34.9z"/>
		<path class="st98" d="M602.9,31.1c-3.9,5.6-8.7,1.5-12.8,0.8c-8.9-1.4-17.9-0.3-26.8-0.9c-1.9-0.1-4.1,0.5-5.3-1.8
			c26-0.1,52.1-0.1,78.1-0.2c1.4,0,2.7,0,3.7,1.1c0,1-0.1,1.9-0.1,2.9c-0.9-0.7-0.2,4.1-1.9,0.6c-1.4-2.8-3.9-1.2-5.9-1.6
			c-4.6-0.9-8.7,1.3-13.1,2c-4.7,0.8-9.3-2-14.1-0.3C603,34.4,603,32.4,602.9,31.1c6.9-1.2,13.8-0.2,20.7-0.6
			C616.7,31,609.7,29.8,602.9,31.1z"/>
		<path class="st99" d="M638.8,48.1c-2.4-3.9-6-4.8-10.2-3.9c-0.6,0.1-1.1,0.6-1.7,0.9c-0.4,0.4-0.8,0.4-1.2,0.1
			c-1.7-2.4,1.5-4,1.1-6.2c1.1-1.5,2.7-0.8,4.1-0.9c2.2-0.7,4.2-0.5,6,1C639.8,41.6,638.7,45,638.8,48.1z"/>
		<path class="st100" d="M626.9,39c0.7,1,2.5,1.9,0.1,3.1c-1.2,0.6-1.1,1.8-1.1,2.9c-1.1,1.7-2.2,1.3-2.8-0.3
			c-0.7-1.9-0.7-3.9,0.8-5.6c0.7,0,1.3-0.1,2-0.1C626.2,39,626.5,39,626.9,39z"/>
		<path class="st101" d="M636.9,39.1c-2.1,0-4.1,0.2-6-1C634.5,35,635.8,35.2,636.9,39.1z"/>
		<path class="st19" d="M322,29.1c-1.8,6.1-1.7,6-6.8,2.6c-2.2-1.5-4.8-2.3-7.6-1.9c-0.4,1.8,2.5,1.6,2,3.3c-5,2.4-10.1,4.4-15.6,5
			c-2.7,0.3-5.5,0-4.9-4c2.9-1.2,3.2-3.4,2-6c3.1-5.9,9.5-6.3,14.7-8.6c3.6-1.6,7.2,1.6,11,1.8c2.1,0.1,4.2,0.9,6.4,0.8
			c1.9-0.1,3.9,0.3,4.1,2.6c0.1,2.2-1.4,3.2-3.5,3.3C322.9,28.2,322.4,28.5,322,29.1z"/>
		<path class="st38" d="M322,29.1c-1.4-3.4,1.7-1.6,2.6-2.1c1.2-0.6,1.9-1.4,1.6-2.6c-0.3-1.1-1.5-1.5-2.4-1.2
			c-4.8,1.3-8.9-1.6-13.3-2.3c-2.9-0.5-6.2-2.1-7.8,2.2c-0.1,0.3-0.6,0.7-0.6,0.7c-5.6-3.2-6.9,4.2-11.2,4.4
			c-1.4-0.1-2.5-0.5-2.7-2.3c-0.8-5.4-8.3-8.6-12.3-5c-2.2,2-6.3,0.5-7.1,4.6c-0.1,0.7-1.5,0.3-2.1-0.3c-0.9-0.8-1.8-1.6-1.4-2.9
			c0.3-1,1.2-1,2-1.1c2.3-0.2,5.3,0.8,5.7-3c6.8,0,13.7-1.2,20.3,1.5c1.9,0.8,3.5-0.6,5.1-1c7.5-1.8,14.9,2.2,22.4-0.3
			c2.4-0.8,6.3,1.2,7.9,0.7c5.5-1.7,10,3.7,15.2,1.1c-0.3,1-0.7,2-1,3l0,0c-2.1,2.6-5.1,2.6-8,3h-0.5h-0.5c-2.7-4.9-3.5-0.3-5,1l0,0
			c-0.8,1-1.4,2.2-3,2C324.7,29.1,323.4,29.1,322,29.1z"/>
		<path class="st102" d="M188,46.1c0.8-1.8,2.4-2.1,4.1-2.1c7.6,0,15.2,0,22.9,0.3c-3.2,0.5-5.6,2.3-8.2,3.8
			c-2.8,1.6-6.9,0.6-10.5,0.9c-2.1,0.2-4.3-0.8-6.1,0.9c-0.7,0-1.4,0-2.1,0C188,48.7,188,47.4,188,46.1z"/>
		<path class="st19" d="M283,35.1c-2.9,1-6.2-1.1-9,1c0.3-1-1.3-2.5,0.6-2.9c2.2-0.4,4.4-0.4,6.6-1.3
			C283.2,31.2,282.8,33.7,283,35.1z"/>
		<path class="st103" d="M147.1,76c0.7,0,1.3,0,2,0c1.2,1.9,1.9,3.1,4.9,1.6c2.8-1.5,6.7-1.1,10.1-1.6c1.2-0.4,2.3,0,3.4,0.1
			c1.8,0.2,4,0.4,3.9,2.8c0,2.3-2.1,2.8-3.9,3.2c-5.9,1.4-12,1.8-18.1,2.1c-1.8,0.1-3.6,0.4-5.2,1.4c-3.6,1-7.2,0.6-10.8,0.1
			c-5-0.6-10-1.2-14.5,2.3c-2.4,1.9-5.5,2.2-8.5,1c0.9,0.4,1.8,0.8,2.8,0.7c1.7-0.2,3.7-0.6,3.8,1.7c0.1,2.1-2,2.3-3.6,2.6
			c-6.4,1.8-12.7-1.1-19.1-0.7c-2.4,0.2-4.6-1.2-3.1-4.5c0.6-1.4,1.8-3.2,0-4.5c-1.5-1.1-3.2-0.3-4.7,0.4c-1.4,0.6-2.8,1.2-4.3,1
			c-0.5-0.1-0.9-0.2-1.4-0.4c-1.6-1.1-2.8-2.5-2.2-4.5c0.6-2.2,2.8-1.8,4.5-2.3c2.7-0.7,6.3,0.4,7.4-3.8c0.3-1,2.4-0.7,3.6-1.2
			c3-0.5,6.3-0.1,8.4-3.1c0.8-0.7,2.4-0.7,2.5-1.4c0.8-5.6,4.1-3.2,6.8-2.2c2.3,0.9,4.6,2,7.1,2.1c1,0,2.1,0.4,2.2,1.6
			c0,0.8-0.7,1.5-1.4,1.9s-1.5,0.6-2.3,0.9c-1.3,0.5-4.1-0.7-2.8,2.8c0.4,1-1.4,1.6-2.6,1.8c-1.3,0.2-2.6,0.2-4,0.5
			c-4.4,1-4.4,1-5.3,5.5c1.4,0.4,2.9-0.4,4.4,0.1c2.5,0.8,3.9,0.3,4.8-2.5c1-3.3,4.2-3,6.7-2.7c4,0.4,7.5,0.2,10.4-3.2
			c1.3-1.5,3-1.4,4.5-0.3c4.1,3.2,8.2,5.3,12.4,0.2C146,75.3,146.7,75.7,147.1,76z"/>
		<path class="st104" d="M144.1,85c3.2-3.8,7.7-2.2,11.5-2.4c4.5-0.2,8.7-1.8,13.2-2c0.8,0,2.1-0.6,1.8-1.9
			c-0.3-1.1-1.3-1.7-2.3-1.1c-2.1,1.1-3-0.4-4.2-1.5c1.1-2.1,2.7-3.6,5.2-2.7c2.3,0.8,3.6-0.1,5.1-1.7c2.4-2.4,6.8-2,7.3,0.8
			s1.6,2.9,4.1,3.1c5.9,0.5,11.9-0.2,17.7,0.1c5.1,0.3,10.1,0.8,15.1,0.4c1.4-0.1,2.6-0.4,3.9-1.5c-1.5-1.1-3.8-1.9-2.4-4.4
			c-0.4-1.8,1-2.1,2.3-2.4c2.7,1.9,1.6,4.8,1.8,7.4c-2.3,5.6-8,5.3-12.2,5.6c-5.3,0.3-10.6,0.7-15.9,1.4c-4.2,0.7-8.4,0.6-12.5,1.9
			c-1.6,0.5-2.9,0.9-4.4-1.4c-1.3-2-4.6-1.2-6.8-0.1c-1.8,0.9-3.6,1.5-5.3,2.5c-3.7,0-7.2,1.7-11,1c-2.1-0.9-4.3-0.2-6.1,0.5
			C147.4,87.5,145.7,87.1,144.1,85z"/>
		<path class="st105" d="M181,63c2.9-2.9,7.1-3.6,10.3-2.4c5.3,2,9.9,0.9,14.7-0.5c0.3,0.4,0.2,0.7-0.1,1.1c-2.8,5.1-5.1,5.6-11,3.1
			c-3.2-1.4-6.9-0.7-9.9,0.2C182.6,65.2,182.2,63.8,181,63z"/>
		<path class="st106" d="M206,61.1c0-0.4,0.1-0.7,0.1-1.1c0.3-0.3,0.6-0.7,1-1c0.3,0.3,0.6,0.7,0.9,1c0.2,0.1,0.4,0.3,0.6,0.4
			c1.2,2.1,0.7,5.1,3.3,6.4c2.2,1.1,4.5,1.4,6.6,0.1c3-1.8,2.3-4.9,2.1-7.7c0-0.5,0.2-0.9,0.5-1.3c0.4-0.3,0.7-0.7,1.1-1
			c4.6,2.2,3.5,5.6,1.9,9l0,0c-0.5,0.8-1,1.6-2,2.1c-0.7,0.7-1.4,1.3-2,2C211.7,72.4,206.7,69.2,206,61.1z"/>
		<path class="st107" d="M147.1,76c-2.3,0-1.7,2.6-3.1,3.4c-3.3,1.8-6.3,1-8.8-1.4s-5.1-2.9-7.1,0.1c-2.9,4.3-6.9,1.4-10.3,1.9
			c-2.4,0.3-5.8-1-4.8,3.7c0.2,1.3-1.1,2.4-2.2,2.3c-3.3-0.2-6.4-1.8-9.8,0.3c-0.6,0.4-1.2-2.2-0.4-2.7c3.4-2.1,0.7-3.7-0.9-6.4
			c5,2.5,8.6-1.3,12.8-0.4c0.9,0.2,1.5-0.7,1.4-1.6c-0.3-1.9-2.6,0.2-3.2-1.9c3-1.3,6.9,0,10.6-3.2c-5.9,0.5-10-1.8-14.8-4.2
			c2,5.2-1.3,5.1-4.4,5.1c-0.2-0.1-0.4-0.2-0.6-0.3c-0.8-2.6-0.7-6.6-5.1-2.7c-0.9,0.8-2.9,0-4.2-0.6c-1.9-0.9-3.8-0.7-5.8-0.6
			c-0.5-0.1-0.9-0.3-1.3-0.6c-0.3-0.5-0.3-0.9,0.1-1.3c7.5-2.4,15.2-2.8,23-3c1.5,0.4,3-1.9,4.5-0.1c-1,2-3.1,0.4-4.8,1.9
			c4,0,6.9,1.5,10.1,3.5c4.2,2.6,9.6,0.3,14.4-1.4c1.2-0.4,3.4-3.4,3.2,1c0,0.7,0.7,1.1,1.4,1.1C142.4,68,144.5,72.3,147.1,76z"/>
		<path class="st108" d="M160.4,64.6c-1.1,0.5-2.3,0.9-3.4,1.4c-3.6,1.6-7.2,3.4-6.2-3.4c3.1,0.4,6.3,0.8,9.5,1.1
			C160.3,64,160.4,64.3,160.4,64.6z"/>
		<path class="st46" d="M131.1,57.1c1.4-0.1,2.1-3.1,4-1c-0.1,0.5,0,1.1-0.3,1.4c-0.9,1.1-0.2,3.7-2.7,3.3
			C129.2,60.4,132.5,58,131.1,57.1z"/>
		<path class="st109" d="M224,66c-0.3-3.1,0.9-6.5-1.9-9c-0.2-1.9,0.9-1.4,1.9-0.9c2.2,3.7,5.4,5,9.5,3.7c3.1-1,6.4,0.2,9.5-0.7
			c4.1,1.3,4.3,3.5,1.7,6.5c-1,1.1-1.8,2.3-2.7,3.5c-3.7,1.3-6.7-2.4-11-1.2c1.6-3.1,4.9-3,6.7-5.3C232.6,62.8,228.7,66.1,224,66z"
			/>
		<path class="st86" d="M221.1,58c0,0.3,0,0.6,0,0.9c-0.1,1.5,0.2,3.1-0.3,4.5c-1,2.7-2.9,4.5-5.9,4.5c-3.1,0-5-1.6-5.7-4.5
			c-0.3-1.1-0.1-2.3-1-3.3l-0.3-0.1C213,54,215.9,53.6,221.1,58z"/>
		<path class="st106" d="M243.1,59.1c-4.7,2.2-9.9,1.9-14.9,2.7c-3.7,0.6-3-3.5-4.1-5.7c6.2-2.4,11.6,0.3,17.1,2.7
			C241.7,59.1,242.4,59,243.1,59.1z"/>
		<path class="st110" d="M28.1,78c6-1.8,11.7-4.3,18-4.9c1.7-0.3,3.3-0.7,5-1c0.8-0.7,1.7-0.9,2.7-0.4c0.7,0.8,0.5,1.4-0.4,1.8
			c4-1,5,1.9,6.4,4.7c0.5,1,2.1,0.5,3.3,0.5c1.8-0.1,4.1-0.3,4.8,1.5c0.8,2-1.5,3-2.6,4.3c-2.7,1.1-5.5-0.2-8.3,0.5
			c-3,0.7-6.6,0.2-6.8,4.8c0,0.7-0.8,1.2-1.4,1.3c-3.3,0.8-5.1,2.5-4.6,6.2c0.2,1.6-1.4,2.5-3.2,2.3c-3-1.2-6.1-1.2-9.2-1.5
			c-2.3-0.2-4.2-1.1-1.9-4c-3.7,1.2-7.4,0.4-11.2,0.7c-1.8,0.1-3.8,0-3.6-2.7c4.5-1.3,9.1-1.1,13.7-1c1.1,0,2.9,1.8,3-0.7
			c0-1.8-2-1.3-3.2-1.3c-4.3,0.1-8.5,1.4-12.8,1c-0.8-0.1-1.6,0-2.5-0.3c5.9-1.2,11.5-3.6,17.8-2.6c-0.3-0.6-0.3-0.9-0.5-1
			c-1.3-0.7-4.2,0.9-3.8-1.6c0.4-2.4,3.8-2.1,5.1-1.2c4,2.6,5.6-0.3,8.2-2.6C35.9,79.1,31.3,81.5,28.1,78z"/>
		<path class="st111" d="M7.1,133c-0.9-1.8-1.9-3.5-2.5-5.3c-0.8-2.3-1.2-4.7,2.6-4.7c3.5,0,1.8-3.3,1.1-3.3
			c-3.1-0.4-3.1-3.6-5.1-4.7c0.6-3.4,3.8-2.4,6-3.4c-1.8-1.2-3.9,0.2-5.6-1.3c0.9-2.3,3.3-0.5,4.7-1.9c-3.6-1.1-6-2.6-1.2-5.4
			c2.9,3.1,6.4,1.5,9.7,1.1c3.7-0.4,7.3-1,10.2,2.2c-0.5,3.2-1.9,5.6-5.7,4.7c-1.5-0.4-2.6-0.7-3.3,0.9c-0.5,1-2.6,0.1-2.2,1.3
			c0.7,2,0.5,5.3,4.4,4.4c1.5-0.3,4.1-1.5,4.6,1.1c0.4,2-1.4,3.6-3.7,3.9c-2.8,0.3-4.5,4.6-8.3,1.7c1.7,2.2,3.3,1.2,4.9,0.9
			c2.2-0.4,4.1,0.3,4.7,2.6c0.7,2.8-1.6,3.7-3.5,3.8C15,131.7,11,132.1,7.1,133z"/>
		<path class="st110" d="M27.1,107.1c-3.4-2.1-6.9-2.1-10.8-1.5c-2.9,0.4-7.6,3.3-9.2-2.5c2.3-1.7,4-3.8,4-6.9
			c2.8,0,5.6-0.1,8.4,0.1c2.1,0.2,5,0,4.5,3.6c-0.2,1.6,0.9,1.5,1.9,1.4c2.1-0.2,3.5-1.9,5.3-2.6c2.6-1.1,1.3,2.9,3.5,2.4
			c2.6-0.7,5.2-1.2,7.9-0.9c5.1,1.3,5.5,2.1,3.6,6.4c-4.6,1.8-10,0.5-14.4,3.8C29.8,111.7,28.2,108.9,27.1,107.1z"/>
		<path class="st112" d="M42.1,101c-2.5,0.3-4.9,0.8-7.4,0.9c-0.7,0-3.2,1.6-2.3-1.8c0.4-1.5-2.2-0.3-2.4,0.1
			c-0.6,2.3-2.6,1.6-4,2.2c-1.4,0.7-3,0.9-4.2-0.4c-1.6-1.9,1.6-2.1,1.4-3.6c-2.5-1.8-5.4-1.6-8-0.9c-2.2,0.6-3-0.5-4.3-1.5
			c-0.7,0.4-1.4,0.8-2.1,1.1c-2.1,0.9-4,0.3-4.7-1.8c-0.8-2.4,1.6-2.6,3-2.9c2.5-0.4,5.2-0.3,7.8-0.5c3.8,3.4,8.2,0.6,12.3,1.2
			c1.8,0.3,3.9-0.5,5.8,0.1c-0.1,2.4-3,0.9-3.8,2.9c3.6,2,8.5-1,11.6,2.7C41.7,99.6,42.7,99.9,42.1,101z"/>
		<path class="st113" d="M27.1,107.1c2.4,2,4.4,2.4,7.4,0.2c3.2-2.4,7.6-1,11.5-1.3c6.1-5.3,13-8.1,21.3-7.3
			c4.7,0.4,9.5,0.2,14.3,0.4c3,1.1,1.7,3,0.3,5.1c3.2,0.2,5.5,0.5,4.4-3.8c-0.8-3.2,0.9-5.1,3.9-3.9c2.7,1.1,4.7,0.1,7-0.7
			c3.1-1,6.1-2.6,9.6-0.7c2.5,1.4,4.1-1.8,6.5-1.6c3.5-0.2,6.6-1.9,9.7-3.2c4.2-1.8,4.9-1.5,5,3.7c-2.2,0.1-4.7-0.6-6.1,2
			c-6.5-3.6-8.8,4.8-13.9,5c-4.2,2-9.2-0.3-13.5,3.1c-0.3,1,1.2,0.7,1.9,1.1c1.3,0.8,1.8,1.9,1.4,3.4c-0.5,1.6-1.7,1.1-2.8,0.9
			c-1.9-0.4-3.5,0.2-5,1.5c-3.7,2.9-8,1.3-12.1,1.8c-1,0.2-1.9,0.2-2.8-0.3c-6.9-1.9-13.6-3.2-19.8,2c-1.2,1-3,1.7-4.5,1.9
			c-4.8,0.8-9.7,0.6-14.5,2.1c-2,0.7-2.6-2.2-4.3-2.6c1.9,2.7,4.4,3.4,7.6,2.1c3.3-1.4,6.9-0.5,10.3-0.9c1.5-0.2,3.2-0.1,3.6,1.8
			c0.5,2.1-1.1,3.2-2.7,3.4c-4.2,0.7-8.5,0.9-12.9,0.6c1.5,0.6,3,0.6,4.3,1.3c0.8,0.5,1.6,1.6,1.2,1.9c-2.3,1.6-0.9,4.8-3,6.3
			c-0.5,0.1-1,0.1-1.4,0c-4.3-2.6-8.6-4.5-13.1-0.4c-0.9,0.8-7.3,1.6-7,1.1c1.1,2.7,0,4.4-2.6,5.3c-2.4-0.2-4.8,0.5-7.2-0.5
			c-1.7,0-3.4,0-5.1,0c0.4-0.6,0.7-1.3,1.1-1.9c1.4-1.5,3.4-0.8,5-1.6c-1.5,0-3.6,1.5-4-1.5c0.3,0,0.6,0,1,0
			c2.9-2.1,5.8-3.6,9.6-2.2c1.6,0.6,3.6-0.3,4.9-1.7c0.2-0.2-0.1-1.3-0.4-1.8c-1.1-2-2.8-1.3-4.4-0.7c-1.4,0.6-2.6-0.2-3.8-0.6
			c-1.1-0.3-2.6-0.6-2.3-2c0.4-1.7,2.4-1.4,3.4-1.3c3.1,0.4,8.6-1.8,10.2-4.5c-2,0.3-4,0.8-5.9,0.6c-1.5-0.1-4.6,0.5-2.8-3.2
			c1.2-2.2-1.8-2.1-2.7-3.3c1.5-1.8,4.8,0,5.7-2.9c0.1-0.4,1.1-0.9,1.1-0.8C23.3,112.8,24.7,107.5,27.1,107.1z"/>
		<path class="st114" d="M9.2,138c2.7,0,5.3,0,8,0c6.7-2.6,13.3-2.3,20,0c0.4,3.4,3,3.5,5.2,2.7c2.8-1,5.1-0.8,7.5,1
			c1,0.7,2.9,0.3,2.6,2.3c-0.2,1.3-0.3,2.7-1.6,3.5c-1.7,1-2.8-0.1-3.8-1.4c-0.3-0.3-0.8-0.4-1.4-0.8c-0.7,3-0.2,5.1,3.1,4.2
			c3.1-0.8,5.4,0.7,8.3,2.1c-3.1,2.7-6.7,3.5-9.7,3.2c-7.3-0.8-13.7,1.9-20.5,3.2c-1.6,0.3-3.2,1.2-3.1,2.7c0.1,1.9,2.1,1.1,3.3,1.2
			c1.8,0.2,3.6-0.4,5.4,0.5c-0.7,2.4-2.9,1-4.3,1.9c1.2,1.4,4.6,1.6,3.5,4.4c-0.9,2.2-2.9,3.7-5.6,3.3c-4.2-0.7-9.3,0.3-11-5.5
			c-0.2-0.7-0.5-2.3-1.9-1.6c-1,0.5-2,1.5-1.3,2.8c1.1,2,1.2,3.3-1.6,3.6c-0.6,0-1.6,1.2-1.5,1.7c1.3,5.4-2.6,3.8-5.2,4
			c0-3.6-0.1-7.1,0-10.7c0.2-3.8,4.6-1.6,6.1-4.3c-1.3,0-2.5,0.1-3.6,0c-3.3-0.2-1.4-2.9-2-4.4c4.1,0,6.9-5.5,11.2-3.3
			c2.7,1.4,5,0.9,7.5,0.7c1-0.1,2.8,0.8,2.9-0.9c0.1-1.9-1.3-1.9-2.8-1.3c-0.8,0.3-2.1,0.1-2-0.8c0.4-2.1-1.3-4.4,0.6-6.1
			c1.3-1.2,3.6-2.1,2.3-4.1c-1.1-1.9-3.4-2.4-5.6-2.7C14.9,138.6,11.9,140,9.2,138z"/>
		<path class="st115" d="M54.1,72.1c-1,0-2-0.1-3-0.1c0.3-0.6,0.5-1.5,0.9-1.6c5.7-1.4,11.3-3.6,17.1-3.8c3.8-0.2,7.3-2.1,11.1-1.4
			c0.1,1-0.5,1.5-1.2,1.9c-6.2,2.4-12.8,3.3-19.1,5.6C58,73.4,55.9,73.5,54.1,72.1z"/>
		<path class="st103" d="M79,66.1c0.4-0.3,0.7-0.6,1.1-0.9c1.7-0.1,3.3-0.1,5-0.2c0,0.3,0,0.7,0,1C81.3,69.8,80.1,69.8,79,66.1z"/>
		<path class="st111" d="M6.2,133c1.3,1.8,3.5,0.3,5.1,1.4c-1.9,1.3-3.9,1.7-6.1,1.6C5.2,134.9,4.9,133.7,6.2,133z"/>
		<path class="st116" d="M647.9,25.1c-9.6,0.1-19.3,0.1-28.9,0.2c-19.8-0.8-39.7,0.5-60.2-0.7c1.9-2.1,3.8-1.4,5.4-1.4
			c26.3,0,52.6,0,78.8,0C644.9,23.1,647.3,21.9,647.9,25.1z"/>
		<path class="st117" d="M529.9,25.1c-4.5-2.7-9.3-0.6-13.9-0.8c-13.1-0.5-26.2,0.1-39.3-1.5c20.9-1.1,41.8-0.3,63.2-0.5
			c-1.2,2.5-2.7,2.4-4.6,2.1C533.6,24.2,531.7,24.8,529.9,25.1L529.9,25.1z"/>
		<path class="st118" d="M662.7,23.2c0.2,1.4-0.6,1.9-1.8,2c-3.4,0.5-6.7,0.7-10-0.1l0,0C654.3,21.3,658.9,24.4,662.7,23.2z"/>
		<path class="st119" d="M550.2,23.5c2.7-0.8,4.6-2.2,6.7-0.7c0.6,0.5,0.6,1.2-0.1,1.6C554.7,25.7,552.8,24.5,550.2,23.5z"/>
		<path class="st117" d="M540.6,23.2c2.8-1.5,4.5-1.2,6.7,0.5C545,24.2,543.2,24.4,540.6,23.2z"/>
		<path class="st120" d="M698.8,21.1c0.8,1.1,1.5,1.1,2.2,0c1.4-2,3.6,1.7,5-0.6c1.2-0.7,2.4-0.4,3.7-0.4c0.3,1.6,0.8,2.6,2.4,1
			c0.3,0,0.5,0,0.8-0.1c0.5,0,1,0,1.5,0.1c1.4,0.2,3.8-0.4,3.8,1.3c-0.1,2.4-2.2,0.7-3.5,0.7c-3.9,0.3-7.9,0.7-11.8,1.1
			c-3.7,2-7.4,1.9-11-0.2c-0.7-1.4,0-2.2,1.1-2.9C694.8,21.1,696.8,21.1,698.8,21.1z"/>
		<path class="st121" d="M692.9,21.1c-0.3,0.7-0.7,1.4-1,2.1c-1.3,2.2-3,2.2-5,1.1c-0.6,0-1.3-0.1-1.9-0.1c-1,0-2.2,0.9-2.8-0.7
			c-1.5-0.9-3-1.9-5.5-3.5C682.8,20.5,687.8,20.8,692.9,21.1z"/>
		<path class="st122" d="M682.1,23.5c1.1-0.4,1.9,0.4,2.8,0.7c0.2,2-0.7,2.4-2.5,1.9s-3.7-0.8-5.6-1.1
			C678.2,22.9,680.4,24.3,682.1,23.5z"/>
		<path class="st122" d="M686.8,24.3c1.7-0.4,3.5,0,5-1.1c3.5,1.8,7.3,0.3,10.9,1c6.9,2.5,14.1,0.3,21.1,0.8c2.3-0.8,4.7-0.5,7-0.9
			l0,0c1.6,1.2,3.2-0.1,4.7,0.2c2.5,0.5,3.6,2.2,3.2,4.8c-3.5-2.7-7.1-0.1-10.7-0.2c-11.4-0.3-22.9,1.2-34.3-0.8
			c-0.5-2.7-2.1-1.7-3.6-1.2C688.1,27.4,686.8,26.8,686.8,24.3z"/>
		<path class="st54" d="M730.9,24.1c-2.1,1.9-4.7,0.5-7,0.9C726.2,24.5,728.1,21.4,730.9,24.1z"/>
		<path class="st47" d="M650.9,25.1c3.3,0,6.7,0.1,10,0.1C657.6,26.4,654.2,26.6,650.9,25.1z"/>
		<path class="st114" d="M39.1,132c0.3,0,0.7,0,1,0c6.5-1.4,13.2,0.5,19.6-1.6c3.7,0.7,6.9,3.6,11.1,2.3c0.5,0,0.9,0.1,1.3,0.4
			c0.5,1.9,3.5-0.7,3.3,1.6c-0.2,1.9-2.3,1.3-3.7,1.4c-1.6,0-2.9,0.4-3.6,2c-3.6,0-7.8-1.8-10.5-1.2c-4.9,1.1-9.9-1.9-14.5,1
			c-1,0.6-2.6,0.2-3.9,0.2c-0.5-0.4-1.1-0.7-1.8-0.8c-2.2-0.4-5.4-0.5-4.4-3.7C33.9,130.6,36.6,130.5,39.1,132z"/>
		<path class="st123" d="M39.1,132c-1,0-2-0.1-2.9,0.2c-1,0.3-2.5,0.5-2.6,1.9c-0.1,1.5,1.2,1.8,2.4,1.9c1.4,0.1,2.5,0.7,3.1,2
			c-0.7,0-1.3,0-2,0c-6.7,0-13.3,0-20,0c0.4-1.1,1.3-2.3,1.1-3.2c-0.8-3.3,1.4-2.8,3.2-2.7c1.9,0.1,3.5-0.3,5-1.7
			C30.3,127,35.4,127.7,39.1,132z"/>
		<path class="st124" d="M321,72.1c5.4,2.9,11.1,5.5,11,13c-4.8,1.6-10.9,0.7-13.5,6.8c-0.5,1.2-1.8,0.7-2.7,0.5
			c-1.2-0.3-0.5-1.3-0.4-2c0.2-1.1,0.4-2.2,0.6-3.3c-1.5-2.2-2.2-4.4-0.9-7c0.6-0.3,1.2-0.8,1.8-0.8c2.8-0.1,3.5-1.9,3.8-4.2
			c-2.1,0.4-3.7-2.6-5.9-1.1c-2.6,1.9-4.6,0.4-6.7-0.9C312.4,72.7,316.6,70.6,321,72.1z"/>
		<path class="st125" d="M315,80c0.6,2.3,1.3,4.6,0.9,7c-0.6,0.7-1.3,1.3-1.9,2c-1,0-2,0.1-2.9,0.1c-1.7,0-2.7-1.5-4.1-2.1
			c0.8-2.1-2.4-6.1,2.9-6.1c0.7,1.8,1.5,1.7,2.2,0c-1.1-1.3-0.6-2.8,0.5-3.2C314.4,77.1,314.2,79.2,315,80z"/>
		<path class="st126" d="M312.1,80.9c0.8,0.5,2,1,0.9,2.1c-1.2,1.2-2.8,1.2-4,0c-1.1-1.1,0.2-1.5,0.9-2.1
			C310.7,80.9,311.4,80.9,312.1,80.9z"/>
		<path class="st127" d="M282.9,134.2c1.1,1.4,0.4,2.2-0.9,2.9c-1.1-0.4-3.1,0.3-2.9-1.6C279.4,133,281.5,134.3,282.9,134.2z"/>
		<path class="st123" d="M60.1,131c-6.5,3.2-13.3,1.7-20,1c1.5-1.8-2.3-5.6,2.5-6.5c-2.3-0.7-4.6-1.3-7.2-2.1
			c3.6-2.9,7.7-1.4,11.4-2c1-0.2,2.2,0.7,3.3,0c1-0.6,3.1-0.3,2.7-2.2c-0.4-1.8-2-1-3.3-0.9c-4.4,0.4-8.7,0.3-13,1.5
			c-3.1,0.9-3.9-4.6-7.8-3.1c1.8-2.3,3.1-4.6,5.3-0.7c1.9,3.3,4.9,1.2,7,0.2c1.8-0.8,3.1-1,5.1-0.6c4,1,6.7-0.6,8.9-4.6
			c0.2-0.4,0.8-0.8,1.1-0.8c6,0.4,12-1.3,18-0.4c1.6,0.3,1.3,1,1,2c-1.6,1.4-4.2,0.6-6.1,2.7c-0.1,0,1.1,0.2,0.6-0.2
			c-0.2-0.2-0.1-0.3,0.1-0.4c2.6-1.7,5.7-1,8.4-2.1c0.4-0.5,1.2-1.4,1.2-1.3c3.5,2.6,7.2-0.2,10.8,0.3c0.2,3.1-1,7.4,4.9,5.4
			c1.2-0.4,2.2,0.9,2.5,2c0.5,1.9-1.3,1.4-2.2,1.7c-3.2,1.1-6.4,1.2-9.7,0.3c-2-0.5-5.2-1.5-5.7,0.6c-0.6,2.4,1.4,4.7,5,4.1
			c-3.7,4.2-7.9,6.5-12.8,7.9c-0.3,0-0.7,0-1,0C67.2,133.5,63.8,131.8,60.1,131z"/>
		<path class="st128" d="M128.1,94c-0.6-1.3-1.1-2.7-1.9-4.4c-3.6,4.1-8.5,3.7-13.2,4.4c-0.3-0.2-0.5-0.4-0.3-0.7
			c0.1-0.2,0.2-0.3,0.3-0.3c1.3-0.1,3.3,0.2,3.3-1.4c0-2.1-1.8-0.9-3-0.9c-2.4-0.2-4.9-0.6-7.6-1c1.2-2.2,3.2-1.9,4.7-1.3
			c4.1,1.6,6.6-0.7,9.8-2.8c3.4-2.3,8-2.1,12-1.3s7.9,0.7,11.9,0.8c3.8,2.8,8.2-1.9,12,1c-5.9,1-11.3,4.2-17.8,3.4
			c-1.9-0.2-5.4-0.1-6.4,3.3C131.4,94.6,129.5,93.8,128.1,94z"/>
		<path class="st129" d="M167.1,85c3.2-4.8,8.3-4.5,13.1-4.9c0.4,0,1,0.3,1.2,0.6c1.7,2.5,1.7,2.4,4.5,1.9c3.3-0.6,6.7-1.6,10.1-0.6
			c-4.4,2.4-9.4,1.8-14.1,2.8c-3.3,0.8-6.8-0.3-10.1,1.6C170,87.6,169,84.7,167.1,85z"/>
		<path class="st109" d="M222.1,68.1c0.3-1,1-1.7,2-2.1c3,1.7,2,7.9,7.8,6.5c1.5-0.4,1.2,2.4,2.1,3.4c-3.4,0.5-6.6-0.5-9.9-0.9
			C222,73.2,224,70.1,222.1,68.1z"/>
		<path class="st73" d="M126.1,105c-4,1.3-8,2.1-12,0C118.1,105.4,122.1,103.9,126.1,105z"/>
		<path class="st96" d="M592.9,34.9c8.3,0,16.6,0.1,25,0.2c1.8,0,3.7-0.6,5.2,0.9c0.1,2.7-2.1,2.1-3.5,2.3
			c-3.8,0.4-7.6-0.2-11.3-1.2c-3.5-0.9-6.8-1-9.7,1.7c0.7,1.5,2.1,0.7,3.1,0.9c0.4,0.1,1.1,0.3,1.4,0c3.2-3.5,3.2-3.5,8.1-0.8
			c0.3,0.2,0.6,0.3,0.9,0.4c1.7,1,5.3,0,5.1,2.9c-0.3,3.3-3.8,2.1-5.8,1.8c-3.9-0.5-7.9,1.1-10.8-0.2c4.7,0.6,10.3,0.2,16,0.2
			c1,0,2-0.3,3,0c1.1,0.3,2.5,0.5,2.4,2c0,1.5-0.8,2.7-2.4,2.7c-5.2-0.1-10.4,2-15.6,0.5c-20.3,0.6-40.6,0.4-61,0
			c-2.6-3.1-0.7-4.5,2.2-5.1c2.6-0.6,5.3-0.3,7.9-0.3c11.1-0.2,22.2,0.8,33.1-2c2.1-1,4.7-1.4,5.4-4.3c0.2-0.9,0.8-1.5,1.5-2
			L592.9,34.9z"/>
		<path class="st96" d="M480.9,48.1c0.3-0.3,0.7-0.7,1-1c0.2-2.6,2.1-3.7,4.1-3.3c3.6,0.7,6.6,0.8,8.5-2.9c3.6-2.1,7.5-2.6,11.6-2
			c8.1-0.3,16.2,0.2,24.3,1c1.5,0.2,3-0.1,4.4,0.7c1.5,4.1-1.8,2.9-3,3.9c1,0,2.5-0.7,4.1-0.7c1.7,0,3.5-0.1,4.3,1.8
			c0.7,1.9-1.3,2.4-2.2,3.4c-11.8,2.5-23.7-0.9-35.5,0.9c-4.8,0.8-9.6-1.8-14.2-0.7C485.2,50,483.2,49.8,480.9,48.1z"/>
		<path class="st130" d="M537.9,49.1c2.1-3.2,1.3-4.5-2.5-4c-1.8,0.2-3.6,0-6,0c2-1.7,5.2-0.9,5.5-4c-0.6-1.5,0.7-2.1,1.4-3
			c0.6-0.2-0.2-0.4,0.4-0.3c5,1.2,10.2,0,15.2,1.2c0.7,0.2,1.6,1.1,2.2,0.5c3.3-3.2,7.7-0.9,11.3-2.4c3.4-1.4,6.2,1.8,9.5,1.3
			c3.2,1.1,6.8-0.7,10,1.3c1.1,0.7,2.5,0.7,3,2.2c-5,1.3-9.9,3.1-15.3,3c-8.8-0.2-17.6,0-26.3-0.1c-3,0-4.5,0.8-3.4,4
			C541.3,49.1,539.6,49.1,537.9,49.1z"/>
		<path class="st131" d="M603.9,49.1c4.8,0.5,9.5-1,14.3-1c1.4,0,2.9-0.3,2.8-2s-1.8-1-2.8-1c-7.1-0.1-14.2,0.3-21.2-1
			c-1-0.2-2-0.2-2.5-2.3c7.4,2.8,14.5-0.5,22.8,1.8c-2.1-3.6-5-1.6-6.3-3.4c4.2-2.1,8.4-2.9,12.9-1.1l0,0c0,1.6,0.1,3.3,0.1,4.9
			s0.9,1.4,1.9,1c0.4,0,0.7,0,1.1,0c-3.1,3.7-6.6,6-11.7,4.4c-0.6-0.2-1.5,0.4-2.3,0.7C609.9,49.6,606.7,51,603.9,49.1z"/>
		<path class="st19" d="M326,29.1c1-0.7,2-1.3,3-2c1.3,4.1,5,0.7,7.8,3.1C332.7,31.2,329.3,32.1,326,29.1z"/>
		<path class="st19" d="M335,26.1c2.6-1,5-2.8,8-3C341.7,27.5,340.2,28.1,335,26.1z"/>
		<path class="st19" d="M329,27.1c0.1-1.9-0.5-4.4,2.3-4.8c2.6-0.3,2.7,1.8,2.7,3.7C332,24.6,330.8,27.4,329,27.1z"/>
		<path class="st132" d="M351.9,77c-3.1,5.9-1.5,11.5,1.1,17c-5.3-2.2-7-6.8-6.9-11.9c0.1-2.9-1.2-4.1-3.5-4.9
			C345.7,76.7,348.7,73.3,351.9,77z"/>
		<path class="st98" d="M556.9,29.3c-3.5,2.6-11.3,2.6-14.8,0C547,29.3,551.9,29.3,556.9,29.3z"/>
		<path class="st133" d="M574.9,39.1c-1.7-0.5-4.2,4-5.3-0.8c0-0.2-1.3-0.4-1.9-0.1c-4.2,1.9-9.5-0.6-13.4,3.1
			c-0.7,0.6-2.3,1.2-2.7,0.3c-1.9-4.5-4.2-2.3-6.7-0.9c-1.6,0.9-3.5,0.3-4.4-1.2c-1.3-2.3-2.4-1.7-3.8-0.4c-0.8,0.5-1.7,0.6-1.9-0.4
			c-0.4-1.7,0.9-2.5,2.3-3.1c3.2-0.4,6.5,0.5,9.6-0.5c5.7,0,11.4,0,17.1,0.1c2.9,1.7,6,0.3,9,0.5c2.3,0.1,4.8-0.9,7,0.7
			C579.7,39.7,575.8,36.6,574.9,39.1z"/>
		<path class="st134" d="M546.9,35.1c-3.2,1.9-6.7,0.4-10,1c-5.5,2.1-11.2,2.7-17.1,2.1c-12.2-1.8-24.2,0.7-36.3,1.2
			c-0.8,0.3-1.6,0.3-2.3-0.4h-0.4c-0.1-3.9,2.5-4,5.3-4C506.4,35.1,526.6,35.1,546.9,35.1z"/>
		<path class="st135" d="M580,37c-3.1-1.7-6.2-1-9.4-0.4c-2.3,0.5-4.9,1.3-6.5-1.5c9.6,0,19.3,0,28.9,0c-0.1,0.8-0.3,1.5-1.1,1.9
			C587.9,39.5,583.9,38.1,580,37z"/>
		<path class="st23" d="M441.9,40.1c-1.6-3.7-1.5-7.4,0-11C441.9,32.7,441.9,36.4,441.9,40.1z"/>
		<path class="st136" d="M481.2,39c0.6,0,1.2,0,1.8,0c2.3,0.7,4.3,2.1,6.9,1.2c1.6-0.5,3.3-0.2,4,1.8c-0.2,0.3-0.6,0.5-0.6,0.8
			c0.3,2.3-2.1,3.9-5.1,2.5c-3-1.3-4.6-0.1-6.3,1.7C480,44.6,481.1,41.8,481.2,39z"/>
		<path class="st137" d="M623.9,39.1c-4.3,0.4-8.6,0.7-12.9,1.1c-2.7-0.8-4.6-4.6-8.3-2.6c0.4,2.1,2.7,0.7,3.6,2.4
			c-1.9,1.4-4.1,0.8-6,1c-1.6,0.2-4.5,0.9-4.5-1.4c0-1.7,2.3-3.5,4.7-3.5c3.8,0.1,7.6-0.2,11.4,0.4c3.7,0.7,7.5,1.4,11.1-0.5
			C624.1,36.8,623.8,38,623.9,39.1z"/>
		<path class="st138" d="M602.9,31.1c7.2-2.4,14.6-0.3,21.9,0C617.5,31.1,610.2,31.1,602.9,31.1L602.9,31.1z"/>
		<path class="st139" d="M82.1,100c-6.1,0-12.1-0.1-18.2,0c-4.5,0.1-8.9,0.1-12.4,4.1c-1.1,1.3-3.6,1.3-5.5,1.9c1.2-3.6-0.5-5-3.9-5
			c-0.3-0.7-0.7-1.3-1-2c2-0.4,3.1-1.5,2-3.4c-0.9-1.4-0.7-3.4,0.2-3.4c5.4-0.1,4.7-6.9,8.8-7.8c4.2-0.9,8.7-1.9,13.1-0.4
			c5.5-1.5,10.8-1.5,16,1c0.3,0,0.7,0,1,0c0.9,1.5,3.3,0.5,4,2.5c-0.9,2.3-2.9,0.8-4.6,1.1c5.7,1.8,5.9,2.3,1.7,6
			C81.3,96.3,83.7,98.5,82.1,100z"/>
		<path class="st140" d="M81.1,85c-5.3-0.3-10.7-0.7-16-1c-0.2-1.7,1.5-2.4,2.2-3.6c-1.4-0.7-2.8-0.6-4.3-0.6
			c-2.3,0-6.3,2.3-5.4-3.8c0.5-3.2-4.1-0.4-5.5-2.5c0.6-0.5,1.3-1,2.1-1.5c8.6-0.7,16.4-4.7,24.9-6c2.1,4.6,4-1,6.1-0.1
			c0.3,0,0.6,0,1,0.1c4.2,0.8,5.2,5,7.9,7.3c0,0.2,0.1,0.4,0.1,0.7c0.1,3-2.6,0.6-3.7,1.9c0.7,0.8,1.4,1.6,2.1,2.4
			c-0.4,0.3-0.7,0.6-0.9,0.6c-2.8-0.3-5.5,1.1-8.2,1C77.9,79.8,78.8,82,81.1,85z"/>
		<path class="st141" d="M82.1,100c-2.4-5.9-2.3-6.1,3.4-7.6c-3-3.1-3-3.1-7.2-3.5c2.3-1.7,4.7-0.4,6.8-1.2c-0.1-1.9-4.4,0.7-3-2.8
			c1.6-0.5,3.2-0.9,4.6-1.6c2.2-1.1,4.6-1.3,6.5,0.1c2,1.6,0.3,4.2-0.5,5.4c-2,2.9,0,4,1.7,3.6c6.3-1.4,12.4,2.8,18.6,0.5
			c0,0.3,0,0.7,0,1c-2.5,1.7-4.2,4.1-8.1,1.6c-2.6-1.6-7.1,0.5-9.4,2.6c-2,1.8-2.5,1.2-3.8,0c-1.4-1.2-3-1.8-4.5-0.6
			c-1.7,1.4,0.3,2.4,0.9,3.3c1.2,2,0.1,3.1-1.2,4.2c-2.1,1.7-4.3-0.5-6.5-0.2c-0.3,0,0-1.4,0.5-2.1C81.5,102,83.9,101.9,82.1,100z"
			/>
		<path class="st140" d="M102.1,71.1c0.4,0.5,0.7,1,1.1,1.5c-3.1,0-5.5,4.1-9.1,1.5l0,0C95.3,69.2,99,70.9,102.1,71.1L102.1,71.1z"
			/>
		<path class="st142" d="M208.2,60.1c1.6,0.1,1.7,1.1,1.8,2.4c0.1,3,1.7,4.6,4.7,4.5c2.8-0.1,4.5-1.8,5.2-4.4
			c0.3-1.2-0.2-2.7,1.1-3.6c1.8,3,1.6,5.9-1,8.4c-2.5,2.4-5.4,2.2-8.2,1C208.3,66.9,207.8,63.6,208.2,60.1z"/>
		<path class="st103" d="M102.1,71.1c-2.3,2-6.3-0.5-8,3c-3.9-1.5-5.1-5.5-8-8c3.1-2.3,5.8,1,8.8,0.6c0.7-0.1,1.2,1.3,2.1,0.3
			c1.7-1.8,5.1-1.5,6.4,0.4S100,69,102.1,71.1z"/>
		<path class="st143" d="M212.1,59.4c2.7-1.8,4.6-1.5,6.1,0.5c0.4,0.5,0.8,1.4,0.1,1.7C215.8,62.7,214.1,61.3,212.1,59.4z"/>
		<path class="st73" d="M78.1,112c-2.8,1.9-6.1,1.5-9.9,3.3c2.2-3.3,4.6-3.3,7-3.3C76.1,112,77.1,112,78.1,112z"/>
		<path class="st73" d="M60.1,131c3.8-0.3,7.5,0.5,11,2C66.7,136.4,63.7,132.4,60.1,131z"/>
		<path class="st144" d="M580,37c4-1.7,7.9,1,11.9,0.1c0.1,1,3.4,1.6,0.3,2.9c-1.4,0.6-2.8,1.4-4.2,2c-3.5-0.7-6.7-3.5-10.7-1.2
			c-1.1,0.6-2.1-0.4-2.3-1.8c0.2-0.7-2.6-1.6,0.1-2C576.7,36.9,578.3,37,580,37z"/>
		<path class="st145" d="M493.9,42.1c-1.8-1.1-3.5-1.1-5.5-0.4c-2.6,1-4.7,0.4-5.4-2.7c0.1-1.8,1.4-2.1,2.8-2
			c11.1,1.4,22.1-2.9,33.2,0c2,1.6,1.4,2.4-0.9,2.5c-4,0.2-8.1-0.4-12.1,0.5C501.7,39.4,497.9,41,493.9,42.1z"/>
		<path class="st146" d="M506,40c0.3-1.8,0.7-3.5,3-1.9c3,1.9,6.3,0.7,9.5,0.8c1.3,0.1,0.6-1.2,0.5-1.9c6-0.3,11.9-0.6,17.9-0.9
			c0.5,1-3.2,2,0,3c-0.6,0.7-1.3,1.3-1.9,2c-4.9,0.6-9.7,0.1-14.5-0.7c-3.1-0.5-6.2-0.8-9.3,0.1C509.3,41.1,507.6,40.9,506,40z"/>
	</g>
</g>
</svg>
