<?xml version="1.0" encoding="utf-8"?>
<!-- Generator: Adobe Illustrator 25.0.0, SVG Export Plug-In . SVG Version: 6.00 Build 0)  -->
<svg version="1.1" xmlns="http://www.w3.org/2000/svg" xmlns:xlink="http://www.w3.org/1999/xlink" x="0px" y="0px"
	 viewBox="0 0 698 106" style="enable-background:new 0 0 698 106;" xml:space="preserve">
<style type="text/css">
	.st0{display:none;}
	.st1{fill:#141413;}
	.st2{fill:#252A2D;}
	.st3{fill:#4E5F69;}
	.st4{fill:#B1AEA6;}
	.st5{fill:#292F32;}
	.st6{fill:#2A2A26;}
	.st7{fill:#2D2C29;}
	.st8{fill:#111110;}
	.st9{fill:#2C2C28;}
	.st10{fill:#181816;}
	.st11{fill:#16191A;}
	.st12{fill:#3E3E3A;}
	.st13{fill:#121416;}
	.st14{fill:#5B5850;}
	.st15{fill:#484741;}
	.st16{fill:#23282A;}
	.st17{fill:#131517;}
	.st18{fill:#0E1012;}
	.st19{fill:#262B2E;}
	.st20{fill:#535047;}
	.st21{fill:#535C5C;}
	.st22{fill:#2A2926;}
	.st23{fill:#050506;}
	.st24{fill:#0C0C0B;}
	.st25{fill:#565248;}
	.st26{fill:#41413D;}
	.st27{fill:#68645A;}
	.st28{fill:#49463E;}
	.st29{fill:#505858;}
	.st30{fill:#47443E;}
	.st31{fill:#383732;}
	.st32{fill:#1C1B1A;}
	.st33{fill:#0E1011;}
	.st34{fill:#111415;}
	.st35{fill:#111314;}
	.st36{fill:#33373A;}
	.st37{fill:#32312D;}
	.st38{fill:#0E0F10;}
	.st39{fill:#1E2223;}
	.st40{fill:#44535C;}
	.st41{fill:#2C3236;}
	.st42{fill:#2B2A26;}
	.st43{fill:#202527;}
	.st44{fill:#444D50;}
	.st45{fill:#3C4447;}
	.st46{fill:#41494C;}
	.st47{fill:#0C0D0E;}
	.st48{fill:#40484A;}
	.st49{fill:#424B4E;}
	.st50{fill:#465052;}
	.st51{fill:#151514;}
	.st52{fill:#34332F;}
	.st53{fill:#7C796F;}
	.st54{fill:#3D3B36;}
	.st55{fill:#615E55;}
	.st56{fill:#59564E;}
	.st57{fill:#131312;}
	.st58{fill:#8E8C81;}
	.st59{fill:#625F56;}
	.st60{fill:#858277;}
	.st61{fill:#171817;}
	.st62{fill:#33383B;}
	.st63{fill:#E0E0E0;}
	.st64{fill:#545E60;}
	.st65{fill:#0F1112;}
	.st66{fill:#424A4D;}
	.st67{fill:#0B0C0D;}
	.st68{fill:#303639;}
	.st69{fill:#1C1F21;}
	.st70{fill:#0D0F10;}
	.st71{fill:#0D0F11;}
	.st72{fill:#3D4447;}
	.st73{fill:#292F31;}
	.st74{fill:#262522;}
	.st75{fill:#2C2B28;}
	.st76{fill:#272724;}
	.st77{fill:#45433D;}
	.st78{fill:#242421;}
	.st79{fill:#849B9A;}
	.st80{fill:#060707;}
	.st81{fill:#2D2C28;}
	.st82{fill:#515C5E;}
	.st83{fill:#232626;}
	.st84{fill:#0D0F0F;}
	.st85{fill:#6C7F7F;}
	.st86{fill:#101212;}
	.st87{fill:#394043;}
	.st88{fill:#363531;}
	.st89{fill:#48453F;}
	.st90{fill:#9A9E94;}
	.st91{fill:#44423C;}
	.st92{fill:#647676;}
	.st93{fill:#6D695D;}
	.st94{fill:#141312;}
	.st95{fill:#7E796C;}
	.st96{fill:#0E0E0E;}
	.st97{fill:#1A1E1F;}
	.st98{fill:#4A5150;}
	.st99{fill:#C0DEDC;}
	.st100{fill:#DFF9F8;}
</style>
<g id="Camada_2" class="st0">
</g>
<g id="Camada_1">
	<g>
		<path class="st1" d="M697.9,25.1c-11.6,0-23.3,0.1-34.9-0.1c-2.2,0-5.4,1.7-6.4-2.5c-0.3-1.1-2.7-0.5-4.2-0.5
			c-37.2,0.2-74.4,0.3-111.6,0.5c-2.5,0-5-0.1-7.5-0.2c-7.1,0.7-14.2,0.3-21.4,0.3c-18.6,0.1-37.2-0.1-55.8,0.1
			c-0.8,0-1.7-0.1-2.4-0.4c-2.5-1.1-5.2-0.8-7.9-0.8c-35.8,0-71.6,0-107.4,0c-1.8,0-3.7,0.1-5.5-0.1c-2-0.2-4.5-0.1-4.4-2.9
			c0.1-2.7,2.6-2.6,4.5-2.9c0.7-0.1,1.3-0.1,2-0.1c23.6-0.1,47.2-0.2,70.9-0.1c26,0,51.9-0.1,77.9,0.2c37.1-0.1,74.2,0,111.4,0
			c17.3,0,34.6-0.1,52,0.1c3.1,0,5.9-0.3,8.6-1.9c3.9,2.8-0.7,4-1,5.9c11.2,5.5,23.4,2,35.2,2.9c2.5,0.2,2.5-1,2-3
			c-0.6-2.5-1.1-5.3,0.9-7.6c2.9,0,1.7,3.6,3.8,4.3c0.5,0.5,0.7,1.2,1.2,1.7C697.9,20.4,697.9,22.7,697.9,25.1z"/>
		<path class="st2" d="M175.1,105.9c-8.9-3.9-17.2-9.3-27.5-9c-2.9,0.1-5.9,0.9-8.6-0.9c2.5-2.3,5.6-1.2,8.5-1.4
			c4.7-0.4,5.4-1.1,4.7-5.7c-0.5-3.1-0.1-6.2-0.6-9.3c0-0.5,0.1-1,0.2-1.5c4.3-2.3,8-5.7,12.4-7.8c3.6-0.1,3.6-3.2,4.7-5.5
			c1.7-3.8-0.1-8.3,2.2-11.9c4,0.2,7.5-2.4,11.6-2.1c2.4,0.1,5-0.4,7.3,0.8c2,2.2,0.9,4.2-0.3,6.2c-2.2,3.8-5.3,7-6.7,11.3
			c-3.9,6.9-5.1,14.8-7.9,22.2c-1,2.7,0.4,4.8,2,6.7c-0.2,2.7,0.2,5.4,1.1,8C177.1,105.9,176.1,105.9,175.1,105.9z"/>
		<path class="st3" d="M0.2,87.9c2.2-0.9,1.8-3,2-4.7c1.9-19.9,2.2-39.8-1.1-59.6c-0.3-2-0.6-4,1-5.6c0.2,0.2,0.4,0.4,0.6,0.6
			c1.3,2.8,1.2,6,2.3,8.9c3.3,19.4,3.5,38.7,0.4,58.1c-1,2.7,0,6-2.2,8.4c-1-0.7-2-1.3-3-2C0.2,90.6,0.2,89.3,0.2,87.9z"/>
		<path class="st4" d="M697.9,18.1c-0.4-0.3-0.8-0.6-1.2-0.9c-1.5-3-3.7-6.1,0.1-9c0.3,0,0.7,0,1,0
			C697.9,11.4,697.9,14.7,697.9,18.1z"/>
		<path class="st5" d="M372,47.9c-25.7,0-51.3,0-77,0.1c-1.2-0.5-2.2-1.1-2.5-2.5c-0.1-0.5-0.1-1,0-1.5c-0.4-6.3,1.2-12.5,1.7-18.8
			c-0.2-1.7,0-3.2,1.4-4.3c0.5-0.3,1-0.4,1.5-0.4c4.8,1.5,10,0.8,14.6,3c0.5,0.4,0.7,0.8,0.9,1.4c0.6,3.8,3.4,4.7,6.6,4.6
			c20.8-0.2,41.6,0.3,62.4-0.3c17.3-0.5,34.6,0.7,51.9,0.4c1.3,0,2.7,0.3,3.7,1.2c1.7,3,1.2,6.1,0.9,9.3c-2.7,4.1-4,4.3-6,0.3
			c-1.9-3.7-5.2-3.7-8.5-4.1c-5-0.6-9.9,0.9-14.8,1c-0.2,0.4-0.5,0.7-0.7,1c-1.3,1.1-2.8,1.2-4.3,0.5c-1.2-0.6-2.4-0.6-3.6,0.1
			c-1.5,0.9-2.9,0.9-4.4,0c-1.2-0.7-2.4-0.7-3.6,0c-1.5,0.9-3,0.8-4.4,0c-1.6-1-2.8,0.1-4.1,0.7c-2.3,0.2-3.4,1.5-3.5,3.9
			c-0.1,1.5,0.2,3.6-2.4,3.4c-2-0.1-2.7-1.7-2.9-3.4c-0.2-2.1-0.9-3.8-2.7-4.9c-1.9-0.5-3.8-1.3-5.4,0.6c-0.6,0.9-0.9,2-0.8,2.8
			c0.1-1,0.3-2.2,1.2-3.2c2.1-1.1,4-0.9,5.6,0.9C373.6,42.6,374,45.3,372,47.9z"/>
		<path class="st6" d="M272.1,99.9c-12,0.1-23.9,0.2-35.9,0.2c-1.3,0-3.7,0.6-2-2.2c0.7-4.9,0.9-9.9,0.6-14.9
			c-0.1-1.5-0.8-3,1.1-3.9c3.4-0.7,4.8,1.3,4.6,4.1c-0.2,3.1,0.2,6.2,0.1,9.3c-0.1-7.8-0.9-15.6,0.7-23.2c0.5-1,1.3-1.7,2.5-1.7
			c0.8,0.4,1.2,1.1,1.3,2c0.2,3.4,0.5,6.4,5.3,4c1.4-0.7,2.4,0.5,2.3,2.2c-2,6.2-1.1,12.6-0.6,18.9c0.8,0.5,1.5,0.3,2.1-0.3
			c1.2-6.1,0.2-12.3,0.5-18.5c0-1.3,0.1-2.7,0.8-3.9c4-2.5,7.7-6,13.1-4.8c0.5,0.3,0.8,0.6,1,1.2c0.1,0.5,0,1-0.2,1.4
			c-3.1,1.3-5.8,3.1-7.8,5.9c-1.6,2.1-1.5,4.4-0.4,6.6c1.1,2.3,3.1,1.2,4.8,0.9c1.3-0.2,2.7-0.4,3.6,0.9c0.6,1.1,0.7,2.4,0.7,3.6
			c0,1.9,0,3.8-0.2,5.7c0,0.3-1.2,1,0.2,1.2C272.7,95.8,272.7,97.8,272.1,99.9z"/>
		<path class="st7" d="M281,99.9c-2,0.5-4,0.4-6,0c-4.2-1.5-4.4-5.2-4.3-8.5c0.3-8.3-1.6-16.8,1.6-25c0.3-0.7,0.2-1.6,0.2-2.5
			c0.2-3.4-0.7-5.2-4.5-3.5c-0.9,0.4-1.9,0.6-2.9,0.5c-0.5,0-1-0.1-1.5-0.2c-4.1-0.9-7.6-0.6-9.2,4c-1.9,1.5-3.9,2.7-6.5,1.7
			c-2.3-2.1-4.7-2.5-7.8-1.8c-3.5,0.7-7.1,1.6-10.6,0.1c-0.7-4.1-1.1-8.3,0-12.4c2.2-1.2,2.6,0.5,3,1.9c0.6,2.3,2.2,3.3,4.3,3.3
			c4.2,0,8.6,0.1,12.1-1.9c5.4-3.1,11-3,16.8-2.8c2.5,0,4.9,0.4,7.4-0.2c1.7-0.4,3.3-0.2,4.3,1.6c0.7,3.9-1.7,8.4,2.4,11.6
			c1.2,6.2,0.4,12.5,0.5,18.8c0,3.4-0.1,6.8,0,10.2C280,96.5,282.2,98,281,99.9z"/>
		<path class="st8" d="M293.1,46c0.7,0.7,1.3,1.3,2,2c-2.7,1.6-5.6,2.6-8.8,3.1c-5.4,1.9-11.1,1-16.6,1.2
			c-10.7,0.4-21.5,0.2-32.2,0.3c-3,0-5.8-1.3-8.8-0.8c-0.7,0.2-1.2-0.7-2-0.3c0.7,0.9,1.3,1.8,1.6,2.9c1.4,3.8,0.5,7.8,0.8,11.7
			c0.1,1.4,0,3.1-2.2,3.1c-4-0.1-7.9-0.1-11.9-0.2c-0.6-0.6-0.6-1.3-0.3-2c1.8-1.8,5.7-0.5,6.3-4.2c2.3-6.1,1.9-7.7-2.9-12.1
			c-1.1-1-2.5-1.7-2.4-3.5c0.4-1.2,1.3-1.9,2.5-2.2c2.1-0.6,4.3-0.5,6.4-0.5c20.2,0,40.5,0,60.7,0C288.1,44.4,290.8,44.1,293.1,46z"
			/>
		<path class="st5" d="M454.1,21c1.9,1.4,4.1,1.1,6.2,1.1c22.2,0,44.4-0.1,66.6-0.1c2.1,0,4.3,0.2,6.4,0.3
			c-16.8,1-33.6,0.5-50.4,0.7c-7.7,0.1-15.3,0-23,0.2c-1.3,0-3-0.9-4,0.9c-0.2,0.2-0.5,0.4-0.7,0.6c-10.3,1.5-20.6,1.1-30.8,0.2
			c-4.1-0.4-7.9,0.6-11.9,0.5c-22.3-0.2-44.6,0.1-66.9-0.2c-9.1-0.1-18.3,0.1-27.5,0.2c-2.1,0-4.4,0.4-6.1-1.4v-0.1
			c0.9-3,3.5-3.1,6-3.3c4.1-0.2,8.3-0.3,12.4,0.3c40.9,0,81.8,0.1,122.7,0C453.4,21,453.7,21,454.1,21z"/>
		<path class="st9" d="M227.3,51c12.2,0,24.5,0,36.7,0c7.4,0,14.8-0.7,22.3,0.1c-4.9,1.2-4.3,5.2-4.4,8.8c-1.1,0.3-1.7-0.2-2.2-1.1
			c0.1-2.1-0.7-3.7-2.5-4.8c-5.9,0.1-11.8,0.7-17.6,0c-5.9-0.7-9.9,3.7-15.5,4.2c-6.5,0.6-12.1,2-14-6.3c-0.9,0.8-1.9,1-3,0.3
			C226.7,51.8,226.7,51.3,227.3,51z"/>
		<path class="st10" d="M264.1,60c0.7-0.1,1.3-0.1,2-0.2c2.5-0.5,5.1-4.1,7.1-2.1c2.2,2.1,1.7,6.5,0.5,9c-2.7,6-1.2,12-1.7,18
			c-0.1,1.8,0.1,3.7-0.1,5.5c-0.4,3.7,0.1,7,3,9.6c-1,0-2,0-3,0c-0.6-1.7-1.3-3.4-1.9-5c-1.1-2.1,0.7-4.4-0.4-6.6
			c0.1-0.5,0.2-0.9,0.3-1.4c-0.1-5.8-0.5-11.7,0-17.5c0.1-0.7-0.3-1.2-1-1.5c-5.1-0.9-8.3,4-13,4.1c-3.3-1.4-2-4.2-1.9-6.6
			C256.2,61.3,259.7,59.9,264.1,60z"/>
		<path class="st5" d="M456,24.1c1.7,7.3,3.5,14.6,1,22.2c-0.7,2.2-2.2,1.6-3.5,1.6c-8.1,0-16.3,0-24.4,0c-0.1-0.8,0.3-1.4,0.9-1.9
			c1.8-1.6,3.5-2.9,6.1-1.5c1.2,0.7,2.9,0.7,3.7-0.3c3.6-4.3,8.7-3.2,13.3-3.7c0.7-0.2,1.1-0.7,1.4-1.4c1-4.9-1-10.1,1.3-14.8
			L456,24.1z"/>
		<path class="st11" d="M215.1,67c0,0.6,0,1.2,0,1.9c-1.7,0-3.3,0-5,0c-9.1-0.1-18.3-2.1-27.3,0.5c-0.2-0.1-0.4-0.3-0.6-0.4
			c-0.1-5,4.3-7.6,6.3-11.5c1-1.8,1.9-3.4,1.7-5.4c2.9-1.2,3.6,0.9,4.5,2.9c-0.1,8.9-0.4,7,7.6,9.7c2,1.6,4.3,0.9,6.5,1.1
			C210.9,65.8,213.3,65.1,215.1,67z"/>
		<path class="st11" d="M176.9,97.9c-2.7-0.5-4.5-2.4-3.7-4.8c2.7-8.1,3.7-16.9,8.9-24.1l0,0c1.9,2.4,0.9,4.9,0.5,7.4
			c-0.3,1.5-1.8,2.8-0.6,4.5C180.3,86.6,178.6,92.3,176.9,97.9z"/>
		<path class="st12" d="M280,58.9c0.6,0.3,1.3,0.7,1.9,1c0,12.7,0.1,25.3,0.1,38c0,0.8,0.1,1.7-1,1.9c0.2-1.7-2.2-2.2-2-4
			c1.6-3.6,1.5-7.2,0.1-10.8c-0.1-6.7-0.1-13.4-0.2-20.2C277.7,62.6,276.8,60.4,280,58.9z"/>
		<path class="st13" d="M372,38c3,0.1,4.5,1.6,4,4.7c-0.2,1.5-0.1,3.5,1.9,3.4c1.9-0.1,1.1-2.1,1-3.2c-0.5-4.2,1.5-4.8,5-3.9
			c0.5,0.3,0.8,0.8,1,1.3c0.6,2.8,0.6,5.5-1.9,7.5c-3.7,0-7.3,0-11,0c0-3-0.1-6-0.1-9C371.7,38.6,371.7,38.3,372,38z"/>
		<path class="st5" d="M428,47.9c-6.3,0-12.7,0-19,0c-3.1-1.9-2.3-4.7-1.7-7.5c2.3-3,3.3-1.1,4.4,1c0.6,1.1,0.3,2.7,2.1,3.2
			c2.5-3.3-0.4-4.9-2-6.9c0-0.5,0.3-0.9,0.7-1.1c1.2,0,2.5-0.3,3.7,0c3.4,1.7,2.7,5.3,3.9,8c1.6,1.1,2.3,0.3,2.7-1.2
			c0.3-1.2,0.2-2.6,1-3.7c1.6-1.4,2.6-1.1,3.3,0.9c0.5,1.4,0.2,3,0.8,4.4C428,45.9,428.4,46.9,428,47.9z"/>
		<path class="st14" d="M235,80c1.8,3.2,1.8,6.4,0.6,9.8c-0.7,2.1-0.5,4.2,0.4,6.2c1,2.2-0.4,2.1-1.9,2c-0.3-6-0.8-11.9-0.7-17.9
			c0.1-4.3,0.6-8.3-5.5-8c0.6-1.1,1.8-1.5,2.7-2.3c3.4-2.2,7.5-2.1,11.1-3.5c1.3-0.5,3-0.5,3.7,1.4c-0.3,0.5-0.6,0.6-1.2,0.4
			c-0.7,0.3-1.4,0.7-2.1,1c-0.4,0.3-0.6,0.9-1.1,1C236.1,71.7,234.8,75.4,235,80z"/>
		<path class="st8" d="M182,81c-1,0.3-2.2,0.7-1.4-1c1.6-3.5,1.6-7.2,1.5-11c1.4-0.6,3-0.8,4-1.8c2-1.9,3.5-2.6,5.7-0.2
			c1.6,1.7,4.1,0.7,6.2,1c4,0.5,8.2-1,12.1,0.9c-6.4,0.2-12.9,0.4-19.3,0.6c-3.9,0.1-6.1,1.9-6.7,5.9C183.8,77.4,182.7,79.1,182,81z
			"/>
		<path class="st15" d="M230.9,70.7c-0.6,1.5-1.9,1.2-3.1,1.3c-0.3-1-0.6-2-0.9-3c2-3.8,1.2-7.9,0.6-11.8c-0.2-1.4-0.6-2.8-0.5-4.3
			c-0.3-0.3-0.4-0.5-0.2-0.7c0.1-0.2,0.3-0.3,0.4-0.3c1,0,1.9,0,2.9,0c0,4.3,0,8.7,0,13C231.9,66.7,230.9,68.8,230.9,70.7z"/>
		<path class="st16" d="M404,47.9c-4.3,0-8.7,0-13,0c-0.8-3-0.7-5.9,0.6-8.8c1.8-1.2,2.7-0.1,3.3,1.4c0.6,1.3,0.1,3,1.4,4.1
			c1.5,0.7,2.1-0.1,2.3-1.4c0.3-1.6,0-3.3,1.4-4.5c4.2,0.1,3.2,3,2.7,5.3c-0.4,1.5,0.1,1,0.9,0.9C404.9,45.7,404.9,46.8,404,47.9z"
			/>
		<path class="st17" d="M404,47.9c-0.1-1.1,0.1-2.2-1-2.9c-0.4-2.4-1.8-5,0.9-7c1.3,0.9,2.6,0.2,3.9,0.1c0.8,0.5,0.7,1.2,0.2,1.8
			c0.1,2.7-0.7,5.4,0.9,7.9C407.3,47.9,405.7,47.9,404,47.9z"/>
		<path class="st18" d="M392,39c-0.3,3,0.7,6.1-1,8.9c-0.7,0-1.3,0-2,0c-3.5-2.2-2.2-5.5-2-8.5c0.2-0.6,0.5-1,1-1.4
			c1.3,0.8,2.6,1,3.9,0.1c0.3,0.2,0.4,0.4,0.4,0.6C392.2,38.9,392.1,39,392,39z"/>
		<path class="st13" d="M428,47.9c-0.3-0.6-0.7-1.3-1-1.9c-0.4-2.9-1.5-5.8,0.7-8.4c5.1,1.3,5.9,4.7,2.2,9.4c-0.3,0.3-0.6,0.6-1,0.9
			C428.7,47.9,428.3,47.9,428,47.9z"/>
		<path class="st16" d="M387.9,39c0.4,3-0.7,6.1,1.1,8.9c-2,0-4,0-6,0c0.9-2.6,1.1-5.2,1.1-8c0.8-1.1,1.8-1.7,2.3,0.1
			c0.4,1.4,0,3.1,0.4,4.5c0.3,0.6,0.8-0.4,0.3,0c-0.3,0.2-0.5,0.1-0.4-0.2C387,42.6,385.1,40.2,387.9,39z"/>
		<path class="st19" d="M125.1,22.1c-0.6,5,1.4,7.2,6.5,6.5c1.4-0.2,3,0.2,4.4,0.3c0.1,0.2,0.3,0.5,0.4,0.7c-0.2,3.5,0.5,7-0.9,10.4
			c-4,2.3-8.6,2-13,2.6c-6.5,0.9-7.8,2.4-7.8,8.9c0,2.4,1.4,3.5,3.5,4.3c3.4,1.2,6.3,3,8.4,6c0.7,1.6,1.5,3.3,0.8,5.1
			c-1.9,1.6-3.7,0.6-4.9-0.6c-3.9-4.2-8.9-6.2-14.3-7.4c-0.6-0.1-1.2-0.6-1.3-0.7c1.3,1,2.8,2.6,3.9,4.6c2.4,4.3,4.8,8.6,9.7,11
			c1.6,0.8,5.3,2.4,2.7,5.9c-5.9-1.3-10.2-5.4-14.8-8.8c-0.3-0.2-0.6-0.5-0.6-0.8c0.7-5.8-3.6-4.9-7-5.2C91,64,81.2,64.4,71.4,64.4
			c-7.3,0-14.6-1-21.9-0.2c-3.6,0.4-5.6-1.8-5.7-5.4c-0.2-4.3,0-8.6-0.1-13c-0.4-5.2,0.8-10.4-0.7-15.6c0.7-3.6,3.6-3.4,6.2-3.5
			c6-0.2,12-0.1,17.9-0.1c14.8,0.1,29.6-0.2,44.3-0.1c2.4,0,4.9-0.2,7.5,0.7c-1.2-2.1-1.5-4-0.8-5.9c0.3-0.5,0.6-1.4,1.3-1.1
			c2.1,0.8,1,2.4,0.9,3.3C121.3,21.9,122,19.1,125.1,22.1z"/>
		<path class="st20" d="M462.3,9.9c36.8,0.1,73.5,0.2,110.3,0.4c25.1,0.1,50.2,0.3,75.4,0.5c2,0,4,0.2,6,0.3c2,2.2,1.2,3.7-1.4,4.2
			c-3.4,0.7-6.9,0.9-10.4,0.7c-20.8-1-41.6-0.2-62.4-0.4c-30.3-0.3-60.5,0.4-90.8-0.4c-27.4,0.3-54.8,0.6-82.2-0.1
			c-5.4-0.1-10.9,1.3-16.3-0.4c-1.6-1.3-3.8-2-4.4-4.4c0.9-1.2,2.2-0.8,3.2-0.8c23.5,0,47,0,70.6,0C460.7,9.6,461.5,9.6,462.3,9.9z"
			/>
		<path class="st21" d="M125.1,22.1c-3.2-1.6-3.7,1-4.5,3.2c-0.8-1.8,0.4-3.9-1.5-5.1c-0.3-0.1-0.5-0.1-0.8-0.2
			c-3.4-4.3-7.6-4.2-12.8-3.8c-19.1,1.8-38.3,2.7-57.6,2c-4.8-0.2-9.6-0.4-14.3-1.2c-2.2-0.4-3.8,0.7-5.6,1.5
			c-2.7,0.3-3.1-1.6-3.3-3.6c0.1-0.3,0.2-0.5,0.3-0.8c2.1-5.4,6.7-4.1,10.8-4.1c25.1,0,50.2-0.1,75.4-0.1
			C119.4,9.9,123.6,13.6,125.1,22.1z"/>
		<path class="st22" d="M489,14.1c27.3,0,54.6,0,81.9,0c21.2,0,42.5,0.3,63.7-0.3c5.7-0.1,11.3,1.8,17.2,0.4
			c2.4-0.6,2.5-1.3,2.1-3.1c1-0.1,1.9-0.1,2.9-0.2c1,1,1,2.1,0.1,3.1c-2.5,2.5-5.5,3.1-9,3.1C596.7,17,545.5,17,494.4,17
			c-3.5,0-6.9,0-10.4,0C484.3,13.8,487.6,15.6,489,14.1z"/>
		<path class="st23" d="M203.8,4c-0.3-3.2,2-2.8,3.9-2.8c16.4,0,32.8-0.1,49.2-0.1c22.4,0,44.7,0.1,67.1,0.1c1,0.5,2.2,0.6,3.1,1.2
			c1.8,1.1,1.1,1.9-0.4,2.6c-1.6,0.5-3.3,0.4-5,0.4c-37.1,0-74.3,0-111.4,0c-1.7,0-3.3,0.1-5-0.4C204.7,4.9,204.2,4.5,203.8,4z"/>
		<path class="st24" d="M656.9,14.1c0-1-0.1-2.1-0.1-3.1l0,0c2.2-0.4,1.7,2,3,2.9c1.3-1.7,0.4-4.2,2.1-5.7c0.7,0,1.3,0,2,0
			c0.9,1,1.2,2.2,1.3,3.5c0.2,2.2-0.5,4.8,2.9,5.1c3.6,0.3,3.4-2.7,4-4.9c1.6-2.5,3.2-3.3,5.1-0.4c0.6,1.2-0.9,3.4,1.1,3.7
			c2.1,0.2,1.8-2.2,2.5-3.5c0.5-1.2,1.2-2.1,2.6-2c1.8,0.6,2.2,2.1,2.5,3.7c0.2,0.9,0,2.2,1.4,2c1.1-0.2,1.2-1.4,1.5-2.3
			c0.5-1.4,1.3-2.8,2.9-3.1c1.7-0.4,3.1-0.1,2,2.2c-2,4-1.5,7.8,2.3,11.9c-12.7,0-24.3,0.2-35.8-0.1c-2.9-0.1-4.8-4.3-9.2-2.5
			C653,18.1,656.8,17.5,656.9,14.1z"/>
		<path class="st25" d="M327.9,4c-0.8-1.7-3.4-0.6-3.9-2.7c2.9-0.5,5.5-0.6,4.9,3.6c-0.5,3.3,2.1,2.3,3.6,2.4
			C346.3,7.9,360.2,8.5,374,9c2.4,2,1.7,3.4-1,4.1c-2.3,0.6-4.6,0.2-6.9-0.4c-2-0.5-3.9-0.5-4.7,2c-9.7,1.7-19.5,0.2-29.2,0.2
			c-0.8,0-1.8-0.2-2.3-0.9c-3.4-5.2-8.7-4.7-13.8-4.6c-1.5,0-3-0.1-4.2-1.1c-0.9-1.7-0.2-2.8,1.3-3.6C318.1,4.1,323.1,5.5,327.9,4z"
			/>
		<path class="st26" d="M183.2,22.1c0-4.5,0.1-9,0.1-13.4c0-3.2,1.4-4.5,4.5-4.5c5.3,0,10.6-0.1,15.9-0.2l0.2-0.2l0.3,0.2
			c2.5,1.8,6-0.8,8.4,1.7c0.4,0.7,0.6,1.5,0.6,2.4c0,1.1-0.2,2.1-0.9,3c-1.1,0.5-1.8-0.3-2.7-0.7c-5-2.1-6.8-1.3-8.1,3.7
			c-0.8,3-2.1,4.9-5.6,3.3c-1.1-1.2-1-2.8-1.3-4.2c-0.3-2.4-2-2.7-4-2.7c-2.4,0.1-2.5,1.5-2.5,3.4c0,3.3,0.1,6.8-3.6,8.6
			C184.1,22.5,183.6,22.4,183.2,22.1z"/>
		<path class="st27" d="M362,14.1c-0.9-0.6-1.8-1.3-2.9-2.1c4.5-2.3,8.6,0.4,12.7,0.1c2.3-0.2,3.6-0.6,2.2-3.1
			c25.5,0.2,50.9,0.3,76.4,0.5c4,0,8-0.5,11.9,0.4c-22.6,0.1-45.2,0.1-67.7,0.2c-2.5,0-4.9,0-7.4,0c-0.6,2.5,4.4,0.7,2.8,3.9
			c-0.8,0.9-1.9,1.4-3.1,1.4c-7.3,0.3-14.5,0.2-21.8,0C363.9,15.4,362.8,15,362,14.1z"/>
		<path class="st28" d="M663.9,12.1c0-1.3,0-2.7,0-4c11-0.5,22-0.6,32.9,0.1c-2.3,3,0.6,6-0.1,9c-3.9,0-2.5-3-2.9-5.1
			c-0.1-0.8-0.2-1.8-1.3-1.6c-1.8,0.4-2.6,1.7-2.8,3.5c-4,1.9-3.8-2.8-6-3.8c-1.2,0-2,0.6-2.1,1.8c-2.5,2.7-3,2.7-4.9,0.1
			c-1.3-2.5-2.6-2.3-4,0C670.6,15.6,667.8,15.6,663.9,12.1z"/>
		<path class="st29" d="M2,18c0-0.3-0.1-0.6-0.1-0.9c1.5-3,3.9-4.2,7.3-3.8c5.3,0.7,10.7-1.2,15.9,0.8l-0.2,0.4
			c0,0.8,0.2,1.6,0.2,2.4c0,1.7,0.6,4-1.9,4.3c-2.2,0.3-1.9-2.1-2.5-3.6c-0.7,1-0.2,2.2-0.6,3.2c-0.1,0.5-0.4,0.9-0.7,1.2
			C13.6,21.5,7,24,2.5,18.1C2.4,18.1,2.2,18.1,2,18z"/>
		<path class="st30" d="M183.2,22.1c0.4,0,0.7,0.1,1.1,0.1c0.6,2.4,0.3,4.7-1,6.8c-2,1.9-4.6,1.5-7.1,1.6
			c-6.4,0.3-12.9-0.6-19.3,0.6c-2.3,1.5-1.4,3.8-1.5,5.8c-0.1,2.3,0.2,4.6-0.2,6.8c-0.2,1.4,0.1,3.6-2.6,3.1
			c-2.1-1.5-2.6-3.7-2.3-6.1c0.3-2.5,0.2-4.9,0.3-7.4c0.1-2.1-0.8-2.9-2.9-2.9c-3.4,0-6.9,0.3-10.3-0.3c-0.5-0.1-1-0.4-1.4-0.8
			c-0.1-0.2-0.1-0.4-0.1-0.6c4.7-1.5,9.5-0.5,14.3-0.6c7.8-0.2,15.6-0.2,23.4,0C178.3,28.2,183.1,29,183.2,22.1z"/>
		<path class="st31" d="M661.9,8.1c0,0.8,0.1,1.7,0,2.5c-0.1,2.3,0.1,5.5-2.3,5.8c-2.6,0.3-1.1-3.3-2.2-4.8
			c-0.2-0.3-0.5-0.5-0.7-0.7C656.7,6.7,659.5,7.7,661.9,8.1z"/>
		<path class="st32" d="M88.1,76.9c-20,0-40,0-60-0.1c-1.3-4-5.1-8.2,0.8-11.8c2.7-0.8,5.5-0.5,8.3-0.4c2.7,0.1,5.2-0.3,7.4-2
			c3.1,1.3,6.3,1.7,9.7,1.8c15.1,0.1,30.1-0.1,45.2,0.1c7.1,0.1,7.1,0.2,9,6.9c-2.6,6.9-8.4,5.9-13.9,5.9
			C92.3,77.4,90.3,76.5,88.1,76.9z"/>
		<path class="st33" d="M88.1,76.9c3.7-2,7.7-0.5,11.6-1c2.4-0.3,5.5,1,5.5-3.4c0-1.8,1.9-0.3,2.8-0.6c4.5,4.5,8.4,9.7,15,11.7
			c4.9,1.5,10.1,2.1,14.8,4.4c1.4,0.7,0.8-1.3,1.3-2c0.1-0.5,0.4-0.9,0.7-1.2c2.2-0.6,3,1.5,4.5,2.4c3.4,1.9,4.3,1.5,5.8-2.5
			c0.1-0.5,0.2-0.9,0.3-1.3c0.6-1.5,0.3-3.3,1.7-4.4c2.3,4.1-0.2,9,2.3,13.2c0.3,0.5-1.6,4-4.7,3.8c-3.6-0.3-7.2,0-10.8,0
			c-13.6-0.4-26.7-2.2-37.6-11.4C97.4,81.3,92.7,79.1,88.1,76.9z"/>
		<path class="st34" d="M19.1,22c0-0.3,0-0.6,0.1-0.9c1.2-1.5-0.4-3.7,1.8-5.4c1,4.5,1.9,8.6,1.8,13c-0.2,12.2,0,24.5-0.1,36.8
			c0,4,0.1,7.9,0.8,11.9c-0.7,4.6,0.8,7.7,5.8,8.8c1.9,0.4,3.5,1.7,5.4,2.3c0.9,0.1,1.8,0.4,2.7,0.1c4.2,4,0.3,5.1-2.4,5.9
			c-6.1,1.6-12.4,1.5-18.7,1.4c-4.4-0.1-8.9,0.1-13.1-1.8c0-2.7-0.6-5.5,0.9-8c0.3-3.9,2.1-5.6,6-4c0.6,0.2,1.3,0.1,2,0.2
			c6.2,0.3,6.1,0.4,5.8-5.6c-0.4-7.4-0.1-14.9-0.2-22.3c0.1-8.4-0.3-16.7-0.2-25.1C17.6,26.6,17.4,24.1,19.1,22z"/>
		<path class="st35" d="M28.1,66.1c-1.1,2.4-2.4,4.8,0.2,7.2c1.1,1,0.6,2.4-0.1,3.5c-0.3,2.1,1.2,3.5,1.9,5.2
			c-0.2,1.8-1.3,1.3-2.4,1c-1-0.7-1.6-1.7-1.9-2.8c-2.4-5.1-3.2-10.4-3.1-16c0.2-9.3,0-18.6,0.1-27.9c0-3.3-0.1-6.7,2.5-9.4
			c2.9,0.4,5.7,0.8,8.6,0.8c2.4,0,4.5,0.7,5.6,3.1c-0.1,2.1,0,4.2,0.8,6.2c0.5,1.2,1.2,2.9-0.1,3.6c-1.7,1-2.4-1-3.4-2
			c-0.6-0.6-1.1-1.2-1.7-1.7c-1.3-1.3-3.2-1.1-4.7-1.9c-2.5-1.3-2.8,0.3-2.9,2.2c-0.1,3.8-0.1,7.6,0.1,11.5c0.1,4.8,0,9.6,0.1,14.3
			C27.7,64.2,27.9,65.2,28.1,66.1z"/>
		<path class="st36" d="M28.1,82.9c0.8,0,1.5-0.1,1.9-0.8c2.4,2.1,4.8,4.2,7.2,6.4c-0.3,1.1-1.1,1.3-2.1,1.4c-2.4-1.4-4.8-2.7-7-4.4
			C27.6,84.9,25.5,83.8,28.1,82.9z"/>
		<path class="st37" d="M362,14.1c9.3,0,18.6,0,27.9,0c33,0,66,0.1,99,0.1c-1.1,1.9-3.7,1.4-5,3c-24.2,0-48.3,0.1-72.5,0
			c-11.4-0.1-22.8,0.8-34.1,0.5c-14.3-0.4-28.6,0-42.9-0.5c-1,0-2,0-3,0s-2.2,0.1-2.2,1.4c-0.1,1.3,1.1,1.5,2.1,1.5c1.3,0,2.7,0,4,0
			c37.6,0,75.3,0,112.9,0c1.9,0,4-0.7,5.7,0.9l-0.2,0.1c-1.8,0.8-3.6,0.4-5.4,0.4c-39.4,0-78.8,0-118.3,0c-10.6-0.6-21.1,1.7-31.7,0
			c-0.5-0.1-0.9-0.3-1.4-0.5c-0.4,0-0.7,0-1.1,0c-2.6,1.2-5.1,2.3-8,0.9c-2-1-3.5,0.3-4.5,2c-1.5,2.6-4.1,3.3-6.6,3.9
			c-1.8,0.5-3.9,0.8-4.9-1.1c-1-1.8,0.6-3,1.8-4.2c0.5-0.4,1.1-0.7,1.6-1.6c-1.7-0.9-3.4-0.5-5.1-0.5c-8.8-0.1-17.6,0.1-26.4-0.1
			c-4.9-0.1-6.1-1.5-5.6-5.6c11.5,0.3,22.9-1.3,34.4-1.2c3.1,0,6.6,0,7-4.5c0.1-0.8,0.3-1.6,0.6-2.3c0.2-0.5,0.6-0.8,1.1-0.9
			c1.6,0.4,3,1.1,4.7,1.2c5,0.3,5.4,1.1,3.1,5.6c-0.2,0.4-0.4,0.9,0.8,1.9c2.3-3.1,3.5-8.5,9-7.6c4.3,0.7,8.9-1.4,13,1.2
			c3.2,0,6.3,0,9.5,0c3.4,0,6.3,0.1,8.2,4.2c1.5,3.4,5.8,1.3,8.6,1.5C346.2,14.4,354.1,14.1,362,14.1z"/>
		<path class="st38" d="M165.9,49.2c-8.5,0.1-16.9,0.5-25.4,0.1c-7.6-0.4-12.1,2.8-14.6,9.7c-2.3-1.2-6.6-8.8-5.9-10.9
			c0.8-2.8,3.4-3.3,5.8-4.1c3.2-1.1,7.1-0.6,9.3-4c0.5-3.5-0.9-7.2,1-10.6c0.3-0.1,0.5-0.1,0.8-0.1c2.6,2.8,1.4,6.3,1.6,9.5
			c0.3,5.1,0.7,5.6,5.9,5.8c3,0.1,6-0.3,8.7,1.5c2.3-2,0.6-4.6,1-6.9c0.6-3.3-0.8-6.7,0.8-9.9c2.6,2.8,1.5,6.3,1.7,9.5
			c0.3,5.1,0.6,5.6,5.8,5.7c13,0.1,25.9,0,38.9,0c2.8,0.5,6.2-0.7,7.9,2.7c0.1,1.4-1,1.9-1.9,2.5c-2.1,1.1-4.3,1.7-6.7,1
			c-1.5-0.8-2.6-0.9-3.6,0.8c-0.7,1.4-1.3,3.1-3.2,3.3c-1.1-1.2-1.6-3.2-3.8-3c-5.3,0.2-10.9-1-15.8,2.3c-1.7,1.2-2.1-0.8-3.1-1.4
			C168.6,52.8,168.2,49.6,165.9,49.2z"/>
		<path class="st39" d="M142.3,77.8c3.3-0.6,6.5-0.4,9.7,0.3c0,0.3,0,0.6,0,0.9c-0.3,1.7,0.6,3.6-1,5c-1.2-1.4-2.1-3.5-5.2-2.6
			c2,0.9,4.1,0.9,5.2,2.6c-0.2,2,0.8,4.5-1.7,5.6c-2.4,1.2-4.4-0.1-6.2-1.6c-1.1-0.9-2-2-3.1-3c-1.5-1.4-1.3-3.1-0.9-4.8
			C139.9,78.9,140.4,77.4,142.3,77.8z"/>
		<path class="st40" d="M165.9,49.2c2.8-0.3,3.8,2.1,5.3,3.8c0,5.5,0.1,11.1-2.6,16.2c-1.1,2-2.1,3.3-4.5,1.8c2-4.2,4.1-8.3,4.4-13
			C168.6,54.7,168.3,51.6,165.9,49.2z"/>
		<path class="st2" d="M19.1,55c0.5,8.5-0.9,17.1,0.9,25.6c0.4,1.8,0,3.4-2.4,3.3c-2.7-0.1-5.9,0.6-8.1-0.6c-3.7-2-4.2,0.4-5.4,2.6
			c1.1-11.3,2.6-22.6,1.9-34C5.5,43.6,5.2,35.2,3.3,27c0.5-1.5,1-3,3-1.6c0.7,0.5,1.5,1,1.6,1.8c0.9,6.4,4.8,11,8.8,15.8
			C19.4,46.3,17.2,51.2,19.1,55z"/>
		<path class="st41" d="M19.1,55c-3.7-2.2-1.4-6.1-2.6-9.1c-1-2.4-1.6-4.7-4-5.9c-3.4-1.7-4.7-4.5-4.4-8.2c0.2-2.1-0.8-3.8-2.2-5.4
			C4.5,24.8,4,26.6,3.2,27c-0.3-2.9-1.8-5.8-0.8-8.8c0.1-0.1,0.4-0.3,0.4-0.3C7.3,22.7,13.9,19.6,19,22C19.1,33,19.1,44,19.1,55z"/>
		<path class="st42" d="M293.1,46c-25.3,0-50.7,0-76,0.1c-2,1.2-4.2,1.9-5.9,0c-1.6-1.9,0-3.8,1-5.4c1.3-2.4,2.2-4.8,2.7-7.5
			c0.6-2.8,1.3-5.5,4.7-6.3c2.2-0.5,2-2.8,2.8-4.4c0.3-0.5,0.7-0.9,1.2-1.1c3.5-1.1,5.7,0.3,7.1,3.5c1.5,3.1,4.1,3.9,7.4,3.9
			c15.2,0,30.3-0.1,45.5-0.1c1.8,0,3.7,0,5.5,0.1c3,0.2,5.1,1.1,4.6,4.9c-0.5,3.8,0.5,7.6-0.5,11.4C293,45.3,293.1,45.7,293.1,46z"
			/>
		<path class="st43" d="M429.9,46.9c1.4-3.4,2.4-6.8-2-8.9c-1.6-0.7-3,0.4-4.6,0.4c-1.2,0.2-2.3,0.5-3.5,0.3
			c-1.4-0.4-2.8-0.6-3.9-1.7c-1.3,0-2.7,0-4,0c-1.3,1.1-2.7,1.1-4,0c5.2-2.3,18.3-2.7,22.5-0.6c1.6,0.8,2.8,2.1,2.9,3.8
			c0.4,4.3,2.1,2,3.6,0.8c6-1.1,7.7-3.1,7.9-9.5c-1.1-1.8-2.4-0.8-3.6-0.2c-1.5,0.7-2.9-0.3-4.3-0.3c-15.1-0.3-30.2-0.8-45.1-0.5
			c-24.4,0.4-48.9,0.1-73.3,0.5c-5.6,0.1-7.4-2-6.4-6.9c32.8,0,65.7,0.2,98.5-0.1c15.1-0.2,30.1,0.4,45.1,0.4
			c0,5.6,1.3,11.2-0.7,16.7c-1.1-3.4-0.6-6.9-0.4-10.4c0.1-3.9-1.2-5.3-5.2-5.2c-16.3,0.2-32.7,0.1-49,0.1c-26.5,0-53,0-79.5,0
			c-1.6,0-3.3,0.5-4.8-0.3c1.5,0.7,3.1,0.3,4.7,0.3c42.5,0,85,0,127.4,0c6.2,0,6.3,0.1,6.2,6c-0.1,3.5,0.5,7-0.4,10.4
			c-4.7,0.4-9.9-1.4-13.6,3.6c-0.6,0.9-3.2,1.9-4,0.9C433.7,43.1,432,46.6,429.9,46.9z"/>
		<path class="st42" d="M238.2,14.9c0.3,3.9,3,4.2,6,4.2c10.1,0,20.3,0,30.4,0c1.4,0,3.4-0.8,4,1c0.7,2.3-1.8,1.8-2.9,2.5
			c-1.3,0.9-3.7,1.6-3.1,3.3c0.9,2.1,3.1,1,4.7,0.3c2.2-0.9,4.8-0.9,5.3-4.2c0.3-1.5,2.9-3.2,3.8-2.4c3,2.7,6.3,0.7,9.4,1.3
			c-0.7,1.2-1.2,2.5-1,4c0.5,2,1.6,4.5-2.2,4.3c-18.5-0.8-36.9-0.2-55.4-0.3c-3.6,0-6.1-1.1-7.4-4.5c-1.2-3.8-4-3.4-6.9-2.6
			l-0.1,0.1c-0.8,0.8-2.3,2-2.8,1.4c-2.1-3-1.9,1.3-3.1,0.8c-1-1.7-2.2,0.2-3.2-0.1c-0.7-0.5-0.2-1.4-0.6-2c0,1-0.4,1.9-0.5,2.8
			c0.3,1.5-3.1,1.3-1.6,3.5c-0.7,1.6-1.1,3.5-3.3,3.8c-1.2-0.7-0.9-2.5-2.4-3.1c-1.3,0.7-0.5,2.5-1.7,3.3c-0.7,0.4-1.4,0.4-2.2,0.2
			c-0.7-0.3-1.3-0.8-1.7-1.4c-0.7-1.3-1.4-2.8-1.1-4.2c1-4-0.2-7.2-2.9-10c3.5,0.7,3.6-1.5,4.4-4.1c0.5-1.5-1.6-5,2.2-4.8
			c3.2,0.2,7.4-1.9,9.2,2.9c0.4,0.2,0.7,0.5,1,0.9c0.7,1.5,1.4,3,3.4,2.4c1.8-0.6,1.4-2.3,1.5-3.6c0-1,0.1-2,0.5-2.9
			c0.4-0.7,1-1.2,1.8-1.3c5.8,0.2,11.6,0.2,17.3,0.8c0.5,0.2,0.9,0.6,1.2,1.1C239.5,10.7,239.8,12.9,238.2,14.9z"/>
		<path class="st37" d="M230.1,23c1.4,4,4.1,5.1,8.3,5.1c18.2,0.1,36.4-0.7,54.6,0.4c3.1,0.2,1.5-2.2,2-3.5c0.3,0.4,0.9,0.9,0.8,1.1
			c-2.5,6-0.9,12.7-2.8,18.8c0-3.2-0.4-6.4,0.1-9.5c0.7-4.8-1.8-5.5-5.6-5.5c-16.5,0-32.9-0.2-49.4,0.1c-4.5,0.1-7.3-1.2-9.1-5.1
			C229.8,24.6,229.3,23.4,230.1,23z"/>
		<path class="st33" d="M445.9,31c1,7.4-3,11.9-8.9,10c0-3.3,0-6.6,0-9.9c1.3-3.1,3,0.9,4.4-0.2C442.9,29.8,444.4,29.9,445.9,31z"/>
		<path class="st44" d="M297.1,21.1c11,0,22,0,33,0c0.3,0.2,0.4,0.4,0.3,0.6c-0.1,0.2-0.2,0.3-0.3,0.3c-6,0.8-12.4-1.6-18.1,2
			C307,23.1,301.8,23.6,297.1,21.1z"/>
		<path class="st33" d="M400.1,39c0,1.6,0,3.2-0.1,4.9c0,3.4-1.4,4.1-4.1,2c-1.1-2.6-1.5-5.2,0.3-7.8c1.3,0.8,2.5,0.8,3.8,0
			c0.3,0.2,0.4,0.4,0.3,0.6C400.2,38.9,400.1,39,400.1,39z"/>
		<path class="st45" d="M396.1,38.1c-0.1,2.6-0.2,5.2-0.3,7.8c-2.3-0.1-1.8-1.8-1.8-3.2c-0.1-1.5,0.4-3.4-2-3.7
			c0-0.3-0.1-0.6-0.1-0.9C393.3,36.6,394.7,36.6,396.1,38.1z"/>
		<path class="st46" d="M387.9,39c-1.8,1.7-0.3,4.1-1.3,6c-2.3-1,1.7-5.1-2.6-5.1c0-0.3-0.1-0.6-0.1-0.9c0.7-2.8,2.3-2.5,4.1-1
			C388,38.4,388,38.7,387.9,39z"/>
		<path class="st47" d="M367,39c-0.2,2.5,0.5,5.1-1.2,7.4C365.2,43.8,363.7,41.1,367,39L367,39z"/>
		<path class="st48" d="M400.1,39c0-0.3-0.1-0.6-0.1-0.9c1.3-1.4,2.7-1.5,4-0.1c-1.7,2.1-0.8,4.6-0.9,7c0,0.2,0,0.4-0.1,0.5
			c-0.2,0.2-0.4,0.3-0.6,0.5C400.9,43.8,404,40.3,400.1,39z"/>
		<path class="st49" d="M408,37c1.3,0,2.7,0,4,0c0,0.3,0,0.7,0,1c1.1,1.7,0.4,2.9-1,3.9c-1.3-0.3-0.5-3.4-2.9-2
			c-0.1-0.6-0.1-1.2-0.2-1.8C407.9,37.8,407.9,37.4,408,37z"/>
		<path class="st50" d="M372,38c0,0.3-0.1,0.6-0.1,0.9c-1.6,1.3-3.2-0.3-4.9,0.1l0,0C368.2,36,370,36.7,372,38z"/>
		<path class="st51" d="M244.1,68.1c0.2-0.1,0.5-0.2,0.7-0.2c0.8-1.1,1.7-2.1,3.2-1.9c2.2,0.2,3.9-1,5.8-2c0.5,0.4,0.8,0.9,0.7,1.5
			c-0.1,3,0.1,6,0.5,8.9c0,5.4,0.1,10.9,0,16.3c0,1.7,0.5,3.7-1.1,5.1c-0.6,0.3-1.2,0.7-1.8,1c-1.5-7-1.3-13.9-0.1-20.9
			c-0.1-2.1-1-1.9-2.6-1c-5.3,2.8-5.4,2.7-5.4-3.5C244.1,70.4,244.1,69.2,244.1,68.1z"/>
		<path class="st52" d="M269,83.9c-1,0.2-1.9,0.4-2.9,0.5c-1.9,0.2-4.2,2.8-5.6-0.1c-1.4-2.9-3-6.4,0-9.2c2.4-2.2,3.7-6.7,8.5-5.2
			C270.7,74.6,270.7,79.3,269,83.9z"/>
		<path class="st8" d="M235,80c-2-7.5-1.4-8.4,7-10.9c0.2,4.3-0.2,8.5-0.8,12.7c-0.5,3.9-0.1,8-0.5,12c-0.2-3-1.7-5.7-0.9-9
			C240.7,81.4,238.7,79.5,235,80z"/>
		<path class="st53" d="M253.9,95.9c0.1-7.3,0.2-14.5,0.3-21.8c1.9-0.6,1,1.5,1.8,1.9c0,6,0,12,0,18.1
			C256,95.3,256.4,97.3,253.9,95.9z"/>
		<path class="st54" d="M252,76c0,7,0,13.9,0.1,20.9C249.2,93.5,249.2,79.5,252,76z"/>
		<path class="st52" d="M269,67.9c0.3-1.3,1.5-1.9,1.6-0.4c0.4,6.8,1.6,13.6-0.6,20.3c-1.3-6.2,0.4-12.6-0.9-18.8
			C269.1,68.7,269,68.3,269,67.9z"/>
		<path class="st55" d="M269.1,69.1c2.2,6.2,0.4,12.5,0.9,18.8l0,0c-0.3,0.5-0.6,0.5-0.9-0.1c0-1.3-0.1-2.6-0.1-3.9
			c0-4.7,0-9.3,0-14C269.1,69.7,269.1,69.4,269.1,69.1z"/>
		<path class="st53" d="M243.2,96.3c0-5.8,0-11.6,0-17.4c0.2,0,0.4,0,0.6,0c0,5.8,0,11.6,0,17.4C243.6,96.2,243.4,96.2,243.2,96.3z"
			/>
		<path class="st56" d="M256,76c-0.6-0.6-1.2-1.3-1.8-1.9c0-3,0.1-6.1,0.1-9.1h0.5c0.7,2.3-0.7,5,1.2,7.1C256,73.3,256,74.7,256,76z
			"/>
		<path class="st52" d="M269.1,87.8c0.3,0,0.6,0.1,0.9,0.1c1.8,2.3,0.5,4.6,0.1,7c0,0.2,0,0.4-0.1,0.5c-0.2,0.2-0.4,0.4-0.6,0.6
			C268.6,93.2,269.2,90.5,269.1,87.8z"/>
		<path class="st9" d="M248.1,66c-0.8,1.1-2,1.5-3.2,1.9c-0.6-0.3-1.2-0.9-1.6-0.8c-4.1,1.1-8.2,2.4-12.3,3.6
			c-1.6-1.7-0.6-3.8-0.8-5.8c4.3-1.9,9.1-0.7,13.5-2.3C245.2,62.1,248,63,248.1,66z"/>
		<path class="st57" d="M280,58.9c-1.7,1.7-0.6,4-1.1,5.9c-3.1,0.4-2.8-1.7-2.9-3.7c-0.2-2.5,0.3-4.8,1.1-7.1
			C281.7,53.6,281.7,55.8,280,58.9z"/>
		<path class="st58" d="M275.8,67c0.1,1.5,0.2,2.9,0.2,4.4c0,8.2,0,16.4-0.8,24.7c0-9.6,0-19.3,0-28.9
			C275.4,67.1,275.6,67.1,275.8,67z"/>
		<path class="st59" d="M254.8,64.9h-0.5c-0.2-0.3-0.3-0.6-0.5-0.9c2.2-4.4,5.3-6.7,10.3-4C261.2,62,257.1,61.8,254.8,64.9z"/>
		<path class="st60" d="M279.1,85.1c0.6-0.2,1.6-0.6,1.7,0c0.2,3.6,0.3,7.1,0.1,10.7c-0.1,1.3-1.2,0.4-1.9,0.2
			C279.1,92.3,279.1,88.7,279.1,85.1z"/>
		<path class="st61" d="M216.1,48c-2.3,0-4.7-0.1-7-0.1c-1.7-2.9-4.6-1.5-7-1.8c0.2-3.7,3.4-5.8,4.7-8.9c0.2-0.4,1.6-0.6,0.4-1.3
			c-0.3-0.2-0.9,0.2-1.4,0.2c-2.1-0.4-3.9-1.2-3.6-3.9c0.7,0,1.4,0,2,0c1.3-1,2.5-1.1,3.8-0.1c1-1.3,2.1-2.6,3.1-3.9
			c1.4-2.4,3.7-3.4,6.3-4c1.4-1.5,0.2-3.5,1.1-5.5c1.9,0.7,0.5,6.1,4.6,3.4c0,3.2,0.8,6.7-4.6,6.3c-1.8-0.1-2,2.8-2.2,4.5
			c-0.3,2.7-1.1,5.2-2.3,7.5c-3.1,5.7-3.1,5.6,3.2,5.7C216.7,46.7,216.4,47.3,216.1,48z"/>
		<path class="st62" d="M216.3,64.1c2,0.4,3.9-0.3,5.8-1c-0.4,4.9-4.2,3.5-7,3.9c-3.8,0-7.6-0.1-11.4,0c-1.5,0-2.3-0.3-1.6-2
			c2.9-1.8,6,0,9-0.5C212.8,64.2,214.6,64.9,216.3,64.1z"/>
		<path class="st63" d="M227.2,52c-0.2,0.3-0.2,0.6-0.2,1c-1.2-1.6-2.4-3.1-3.6-4.7c3-1.3,3.9,0.1,3.8,2.7
			C227.3,51.3,227.3,51.6,227.2,52z"/>
		<path class="st64" d="M330.1,22c0-0.3,0-0.6,0-0.9c41.3,0,82.6,0,123.8,0c-0.8,1.2-2.1,0.9-3.2,0.9C410.5,22,370.3,22,330.1,22z"
			/>
		<path class="st38" d="M454,42c0-4-0.1-8,0-12c0-2.7-1.1-4-3.9-3.9c-1.2,0-2.3,0-3.5,0c-42.5,0-85,0-127.4,0c-1.6,0-3.3,0-4.9,0
			c0-0.3,0-0.7-0.1-1c1.5,0,2.9,0,4.4,0c43.5,0,87,0.1,130.4-0.1c4.9,0,6.5,1.4,6,6.1c-0.4,3.3-0.1,6.6,0,10
			C454.7,41.4,454.4,41.7,454,42z"/>
		<path class="st34" d="M420.1,38.1c1-0.3,1.9-0.7,2.9-1c0.9,0.8,1.6,1.6,1.1,2.9c-1,2.5,2.5,7.6-4,6.9c-0.4,0-0.7-0.6-1.1-0.9
			C418.7,43.2,417.2,40.4,420.1,38.1z"/>
		<path class="st65" d="M411,42c0.3-1.3,0.7-2.6,1-3.9c0.9,0.3,2.3,0.2,2.8,0.8c1.4,1.8,1.6,3.9,0.7,6.1c-0.4,0.9-0.8,2.1-2,1.8
			C411,46.2,411.2,43.9,411,42z"/>
		<path class="st46" d="M424.1,40c-0.4-1-0.7-1.9-1.1-2.9c1.7,0.3,3.6-0.7,5,1c-1.9,2.4-0.5,5.3-1,7.9c-1.6-1.2-0.9-3-0.9-4.5
			C426,39.9,425.6,39.3,424.1,40z"/>
		<path class="st66" d="M420.1,38.1c-1.8,2.4-0.8,5.3-1.1,7.9c-1.7-2.7-0.3-6.5-3-8.9C417.4,37.2,419,36.5,420.1,38.1z"/>
		<path class="st67" d="M39.1,32c-1.5-3.2-4.4-2.9-7.2-3.1c-2-0.1-4.9,1.6-5.8-1.9c0.8-1,2-1.2,3.2-1.3c1.5-0.2,2.9,0,4.4-0.1
			c18.8-0.4,37.6,0.4,56.8-0.4c-1.1-2.7-2.6-2.5-3.8-2.5c-17-0.1-33.9-0.2-50.9,0.1c-1.3,0-2.6,0.3-3.9,0.6
			c-1.1,0.1-1.9-0.2-2.2-1.3c-0.1-1.4,0.7-2.4,1.8-3.3C36.7,16,42.3,18,47.7,18c21.1,0.1,42.2,0.6,63.3,0.4c2.8,0,5.7-0.1,8.2,1.6
			l-0.1,0.1c0.5,2.8-1.6,6.5,3,8c-24.1,0-48.2,0-72.4,0.1c-2,0-4.6-1.1-5.6,2c0.2,3.2,2,6.6-1.2,9.4C40.1,37.8,40.7,34.4,39.1,32z"
			/>
		<path class="st39" d="M140.1,85.9c0,1.8,0.4,3.6-1.1,5.8c-1.7-4.2-5.5-3.8-8.6-4.6c-7.2-1.9-14.2-3.9-19.4-10
			c-1.4-1.6-1.7-3.5-2.8-5.1c-1.2-5.1-3.6-6.6-9.5-6.3C83.8,66.5,68.8,66,53.8,66c-3.5,0-6.4-1.4-9.4-2.9c-2.5-2.5-1.2-5.6-1.5-8.5
			c-0.2-1.8,0-3.6-0.2-5.4c-0.1-0.6-0.1-1.1,0-1.7c0.5-1.1,1.2-1.8,2.5-1.5c0,4,0.2,8,0,11.9c-0.2,4,1.5,5.1,5.3,5.1
			c15.9-0.1,31.8-0.1,47.8,0c2.7,0,5.3,1.4,8.3,0.3c1.9-0.7,2.7,1.3,2.6,3.2c0,1.2-1.4,2.4,0.3,3.5c4.9,3.1,9.3,6.8,14.8,8.9
			c1.1-1.1,2.5-1,3.6-0.2c3.1,2.5,6.8,3.7,10.7,4.2C139.1,83.8,139.1,85.1,140.1,85.9z"/>
		<path class="st68" d="M138.1,83.9c-5.7,1.1-9.1-4.1-14-5c-2.1-2.8-4.2-5.5-7.8-6.5c-2.2-0.6-2.6-2.8-3.7-4.4
			c-2.3-3.7-3.9-8-7.6-10.9c5.9,1.8,12.6,1.2,16.8,7c1.3,1.8,3.3,2.8,5.6,2.8c0.6,1.2,1.2,2.5,1.8,3.7c-1.6,5.4,1.2,7.8,6,9
			c1.2,0.3,2.4,1.1,3.5,1.8C139.5,82.6,140.4,83.7,138.1,83.9z"/>
		<path class="st69" d="M135.1,40c0.2,2.4-0.2,3.7-3.3,4.1c-11.9,1.5-13,3.9-6.7,14.2c0.2,0.3,0.5,0.4,0.8,0.6c0,1,0,2,0,3
			c-2.9-2.1-5.4-4.7-9.3-5.4c-2.6-0.5-3.9-2.7-3.4-5.3c0.5-2.4,1.5-4.6,1-7.2c-0.3-1.4,0.9-1.9,2.2-2C122.7,41.4,128.8,40,135.1,40z
			"/>
		<path class="st70" d="M99.1,30c3.4-0.1,6.2,0.8,5.9,4.9c-0.3,3.7-3.2,5.7-6.4,5.8c-2.8,0-6.3-0.7-6.4-4.8
			C92.1,32.2,94.9,29.9,99.1,30z"/>
		<path class="st71" d="M64.2,30c4.5-1,5.3,2.9,5.6,6c0.3,3.2-2.3,4.9-5.5,5c-3.9,0-6.6-2.4-6.9-5.8C57.1,31.6,60.1,29.9,64.2,30z"
			/>
		<path class="st35" d="M45.1,46c-0.8,0.4-1.5,0.8-2.3,1.2c-0.6,0.1-1.1-0.2-1.4-0.8c-0.9-2.6-1.1-5.1,0.7-7.4c3.9-2.3,1.1-6,2-8.9
			C46.2,35.3,44.6,40.7,45.1,46z"/>
		<path class="st72" d="M119.1,20c-10.6,0-21.3,0-31.9-0.1c-16.6-0.2-33.2-1.2-49.8-0.8c-2.2,0-4.3-0.2-6.3,0.9c-2.1,1-3.6,0.6-4-2
			c3.1-5.9,8-2,11.9-1.7c12.2,1,24.4,1.1,36.6,0.2c5-0.4,9.9-0.4,14.9-0.5c6.5,0,13-0.4,19.2-2.1C115.4,12.5,116.8,16.8,119.1,20z"
			/>
		<path class="st73" d="M27.1,18.1c1,1.3,2.4,1.8,4,2c-0.3,0.7-0.7,1.3-1,2c-0.5,1.6,0.8,3.6-1,5c-1,0-2,0-2.9,0
			c-1.6,2.6-2,5.5-2,8.5c0,11,0.1,21.9-0.1,32.9c-0.1,4.5,2.3,8.3,3,12.5c-2.2,0.6-3.5-0.8-5-2c-2.1-12-0.7-24.1-1-36.1
			c-0.2-8.4,0-16.9,0-25.7c-1.7,1.1-0.4,3.3-2,4c0.5-2.2-1.4-6.1,1.4-6.4c3.1-0.3,0.3,4.3,2.4,6.1c2.3-1.7,0.1-4.6,1.8-6.2
			C25.6,15.7,26.4,16.9,27.1,18.1z"/>
		<path class="st42" d="M212.1,6.2c-2.1-2.6-5.8,0.6-7.9-2.2c41.2,0,82.4,0,123.6,0c-4.8,2.7-9.9,0.4-14.8,1.2
			c-1.3,0.7-2.6,1.4-4.2,1.4c-9.2-0.1-18.5,0.6-27.7-0.4H281c-1.2,1.1-2.6,1.4-4.1,1.4c-12.7-0.1-25.4,0.4-38.1-0.3
			c-6.2-1.2-12.5-0.4-18.8-0.6C217.3,7.3,214.6,8.2,212.1,6.2z"/>
		<path class="st74" d="M663.9,12.1c3,1.3,6,2.6,8.9,0c0.3,3.4,0.2,6.2-4.7,6.1C663.4,18,663.8,15.2,663.9,12.1z"/>
		<path class="st75" d="M683.9,10.2c2.4,0.6,3.2,3.7,6,3.8c0.9,4.3-3.3,1.7-4.3,3.9C684.4,15,685.6,12.2,683.9,10.2z"/>
		<path class="st76" d="M676.8,12.1c1.7,1.9,3.3,0.9,4.9-0.1c-0.1,0.6-0.1,1.3-0.3,1.9c-0.5,2.1-1.5,4-4,3
			C675,15.9,675.7,13.9,676.8,12.1z"/>
		<path class="st77" d="M281.2,6.1c1.3-1.6,3.1-0.9,4.6-0.9c9.1,0,18.2,0,27.3,0c-0.3,1-0.7,1.9-1,2.9c-4.3,0-8.6,0.2-12.9,0
			c-4.3-0.3-6,2.1-6.7,5.6c-0.2,1.1,0.5,2.6-1.3,2.2c-1.5-0.3-3.6,0.3-4.5-1.4c-0.8-1.4,0.7-2,1.5-2.8s2.3-1.2,1.6-2.7
			c-0.8-1.5-2.4-1.1-3.6-0.8C283.7,8.8,282,8.7,281.2,6.1z"/>
		<path class="st78" d="M196.1,17c5,1,6,3.8,4.1,8.3c-0.8,1.9,0.6,3.8,0.8,5.7c-1.4,0.7-2.6-0.1-3.9-0.6c-2.6-1.3-5.4-0.9-8.1-1
			c-2.1-0.1-4.2,0.3-5.9-1.4c0-2-0.4-4.1,1.1-5.9c2.8-2.7,3.3-6,2.4-9.5c-0.5-2.1-0.7-4,2.1-3.5c2.5,0.4,6.3-2.5,7.2,2.4
			C196.3,13.4,196.1,15.2,196.1,17z"/>
		<path class="st79" d="M219,8.3c0,0.9,0,1.8,0,2.7c-1.9,2.9-4.2,2.8-6.8,0.9c-0.1-0.3-0.2-0.6-0.3-0.9c0.1-0.9,0.1-1.8,0.2-2.8
			C214.4,6.5,216.7,6.5,219,8.3z"/>
		<path class="st80" d="M219,8.3c-2.3,0-4.6,0-6.9,0c0-0.7,0-1.5,0-2.2c2.6,0,5.2,0,7.8,0c0.2,0.2,0.3,0.4,0.3,0.6
			C220.1,6.9,220.1,7,220,7C219.7,7.5,219.3,7.9,219,8.3z"/>
		<path class="st42" d="M183.2,28c3.7,0,7.4,0,11.2,0c1.6,0,3.4-0.4,3.7,2c2.1,2.6,3.5,6.2,8,5c0.9,0.2,2-1,2.7,0.1
			c0.5,0.7-0.1,1.5-0.5,2.2c-2.1,2.9-4.1,5.8-6.2,8.7c-13.6,0-27.3-0.3-40.9,0.2c-5.3,0.2-6.7-1.6-6.2-6.5c0.4-3.4,0-7,0-10.4
			c7.7,0,15.4-0.1,23.1-0.2C179.8,29.1,181.8,29.6,183.2,28z"/>
		<path class="st81" d="M153.1,46c-2.7,0-5.3,0-8,0c-8,0-8,0-8-7.8c0-3-0.1-6-0.2-9c4.3-0.1,8.5,0,12.8-0.2c2.2-0.1,2.8,0.6,2.5,2.8
			c-0.5,3.4,0.5,6.9-0.6,10.2C150.9,43.9,152.7,44.7,153.1,46z"/>
		<path class="st19" d="M43.3,48c1.9,4.9,0.3,10,1,15c0,2.3-1.2,3.1-3.4,3c-4.3-0.1-8.5,0-12.8,0.1c-0.8-0.2-1.7-0.3-1.8-1.5
			c3.2-2,6.7-1.1,10.1-1.1c3.8,0,5.3-1.3,5.3-5.2C41.7,54.9,40.5,51.1,43.3,48z"/>
		<path class="st82" d="M138.1,83.9c1-0.7,1-1.3,0-2c-2.3-1.8-1-3.2,0.8-3.9s1.7,0.8,1.4,2c0,1.6-0.1,3.3-0.1,4.9
			c-0.1,0.3-0.1,0.6-0.1,0.9C138.7,86,138.1,85.2,138.1,83.9z"/>
		<path class="st32" d="M22.2,78.9c2.1-0.4,3.4,1.1,5,2c0.3,0.7,0.7,1.3,1,2c0.9,3.8,5.4,4,7.1,7c-4.2-0.6-7.5-3.5-11.8-4.4
			C20.8,84.9,22.6,81.2,22.2,78.9z"/>
		<path class="st83" d="M42.1,47c-2.7,0-5.3,0-8,0c-1.9-3.9,0.2-7.4,1-11c2.6,1.6,2.6,1.6,4.5,4.9c0.1-2.6-0.8-4.4-1.6-6.1
			c-0.7-1.4-0.8-2.5,1.2-2.7c3.8,1.1,2.9,4.3,3,7C42.1,41.7,42.1,44.4,42.1,47z"/>
		<path class="st83" d="M32.1,47c-1.9,0.8-4.2-0.6-5.9,1.2c0-4.1-0.1-8.1-0.1-12.2c0-1.3-0.2-3,1.4-3.2c1.5-0.2,3.4,0,3.6,2.3
			C33.3,38.9,33,42.9,32.1,47z"/>
		<path class="st84" d="M32.1,47c-1.4-3.9-1-7.9-1-12c1.4,0,3.1-1.4,3.9,0.9c1.1,3.8-0.7,7.3-1,11C33.5,47,32.8,47,32.1,47z"/>
		<path class="st85" d="M238.2,14.9c0-2.3-0.1-4.5-0.1-6.8c1-1.1,2.4-1,3.7-1c11.7,0,23.4,0,35.1,0c1.5,0,3-0.1,4.1,1.2
			c0.3,3.9-1.1,6.6-5.4,6.7c-11.4,0.4-22.8,0.6-34.2,0.9C240.2,16,239.1,15.6,238.2,14.9z"/>
		<path class="st86" d="M281,8.3c-14.3-0.1-28.6-0.1-42.9-0.2l0,0c-0.6-0.7-0.5-1.3,0-1.9c14.3,0,28.6,0,42.9,0
			C281,6.8,281,7.6,281,8.3z"/>
		<path class="st87" d="M140.3,80c-0.3-0.6-0.2-1.8-1.4-1.3c-1.4,0.7-1.7,1.8-0.8,3.2c-3.3-1.2-6.7-2.2-9.9-3.6
			c-1.8-0.8-2.7-2.5-0.7-4.3c1-0.9,1.6-2,1.7-3.4c3.4,4.2,8.6,5,13.1,7.2C141.7,78.5,141,79.3,140.3,80z"/>
		<path class="st61" d="M205,62.7c-5.6-2.7-5.5-7.6-4.8-12.7c2.4,0.3,4.7-0.4,7-1C204.2,53.2,203,57.8,205,62.7z"/>
		<path class="st88" d="M151.1,83.9c-1.6-0.3-3.2-0.6-4.7-1c-0.9-0.2-2.7,0.7-2.4-1.3c0.2-1.5,1-2.7,3-2.3
			C149.6,79.9,151.8,80.6,151.1,83.9L151.1,83.9z"/>
		<path class="st89" d="M230.1,23c-0.1,0.8-0.2,1.6-1.1,2c-0.5-3.9-3.6-2.7-5.9-3C225.7,20.8,228.3,19.7,230.1,23z"/>
		<path class="st90" d="M445.9,31c-1.5-0.1-3.1-0.1-4.6-0.2C443.1,28.3,444.7,28.4,445.9,31z"/>
		<path class="st91" d="M238.1,6.1c0,0.6,0,1.3,0,1.9C232,8.3,225.9,8.8,220,7c0-0.3,0-0.6-0.1-0.9C226,4.4,232.1,4.5,238.1,6.1z"/>
		<path class="st92" d="M212.2,12c2.3,0,4.7,0.5,6.8-0.9c-0.1,2.3,1,5.1-3.2,5C212.7,16,211.5,15,212.2,12z"/>
		<path class="st93" d="M217.4,24.1c-1.5,2.3-4.2,2.6-6.3,4c-3.3-2.2,1.6-1.8,1-3.1c0.6-0.5,0.9-1.5,2-1.1c1.4-0.7,0.7-2.5,1.7-3.5
			C217.9,21,216.7,23,217.4,24.1z"/>
		<path class="st94" d="M206.1,35c-5.2,1.9-7,0.8-8-5c1,0.3,2,0.7,3,1c0.3,0.3,0.7,0.7,1,1C203,33.7,204.1,35,206.1,35z"/>
		<path class="st95" d="M207.9,32c-1.3,0-2.6,0-3.8,0.1c0.7-1.6-2.6-4.3,0.7-4.9C208.1,26.6,208.2,29.5,207.9,32z"/>
		<path class="st96" d="M214,23.9c-0.7,0.4-1.3,0.7-2,1.1c1.1-2-0.2-4.4,0.7-7C214.8,20.1,213.8,22.1,214,23.9z"/>
		<path class="st97" d="M31.1,23.1c1-2.1,2.8-2,4.7-2c17.4,0,34.9,0,52.3,0c2.1,0,4.7-0.4,4.8,2.8c0.1,3.5-2.7,3.1-5,3.1
			c-18.3,0-36.6,0-54.8,0C32.2,25.9,30.4,25.1,31.1,23.1z"/>
		<path class="st35" d="M31.1,23.1c0.6,1.4,2.1,2.3,2,4c-1.4,0-2.7,0-4.1,0c0.3-1.7-0.6-3.6,1-5C30.4,22.4,30.8,22.7,31.1,23.1z"/>
		<path class="st10" d="M148.1,37.5c0,1.6-0.7,2.7-2.4,2.3c-1.8-0.4-2.9-1.9-2.8-3.6c0-1.3,1.5-2.3,3-2.1
			C147.7,34.4,148.1,35.9,148.1,37.5z"/>
		<ellipse class="st98" cx="27.6" cy="39.5" rx="0.4" ry="6.4"/>
		<path class="st99" d="M242.1,9.2c12-1.1,23.9,1.7,36,0.7c-1.6,1.8-3.9,1.4-5.7,1.5c-9.9,0.7-19.7,1.1-29.6,1.6
			c-1.6,0.1-3-0.2-3.6-1.9c2.2-1.7,4.6,0.1,6.9-0.4C244.9,9.8,242.6,11.9,242.1,9.2z"/>
		<path class="st100" d="M242.1,9.2c1.3,1.6,3.5,0.2,5.7,1.8c-3.4,0-6,0-8.6,0C238.7,8.3,240.7,9.2,242.1,9.2z"/>
	</g>
</g>
</svg>
