<?xml version="1.0" encoding="utf-8"?>
<!-- Generator: Adobe Illustrator 25.0.0, SVG Export Plug-In . SVG Version: 6.00 Build 0)  -->
<svg version="1.1" xmlns="http://www.w3.org/2000/svg" xmlns:xlink="http://www.w3.org/1999/xlink" x="0px" y="0px"
	 viewBox="0 0 729 171" style="enable-background:new 0 0 729 171;" xml:space="preserve">
<style type="text/css">
	.st0{display:none;}
	.st1{display:inline;stroke:#FFFFFF;stroke-miterlimit:10;}
	.st2{fill:#402221;}
	.st3{fill:#391E1D;}
	.st4{fill:#381D1D;}
	.st5{fill:#262A29;}
	.st6{fill:#4D5552;}
	.st7{fill:#4A2624;}
	.st8{fill:#39403D;}
	.st9{fill:#371C1A;}
	.st10{fill:#4B524F;}
	.st11{fill:#64312E;}
	.st12{fill:#3D4341;}
	.st13{fill:#8D9C99;}
	.st14{fill:#585E5A;}
	.st15{fill:#CCD4CA;}
	.st16{fill:#432827;}
	.st17{fill:#403C3A;}
	.st18{fill:#303433;}
	.st19{fill:#6E7367;}
	.st20{fill:#F4F5CC;}
	.st21{fill:#B6C0B6;}
	.st22{fill:#6D756F;}
	.st23{fill:#C7CDB8;}
	.st24{fill:#DFE5DD;}
	.st25{fill:#CED1AF;}
	.st26{fill:#311C1B;}
	.st27{fill:#555952;}
	.st28{fill:#434441;}
	.st29{fill:#292C2B;}
	.st30{fill:#868E82;}
	.st31{fill:#AEB7AB;}
	.st32{fill:#CAD2C7;}
	.st33{fill:#889082;}
	.st34{fill:#676F6C;}
	.st35{fill:#522927;}
	.st36{fill:#5D2E2C;}
	.st37{fill:#4E5350;}
	.st38{fill:#4C3B39;}
	.st39{fill:#5A615C;}
	.st40{fill:#A8B1A3;}
	.st41{fill:#ECF0EB;}
	.st42{fill:#452321;}
	.st43{fill:#442220;}
	.st44{fill:#636B67;}
	.st45{fill:#3A1E1C;}
	.st46{fill:#6B7977;}
	.st47{fill:#78837E;}
	.st48{fill:#68706B;}
	.st49{fill:#99A18D;}
	.st50{fill:#3D4441;}
	.st51{fill:#A6AFA1;}
	.st52{fill:#FCFDF7;}
	.st53{fill:#808C88;}
	.st54{fill:#5D4340;}
	.st55{fill:#453E3A;}
	.st56{fill:#555E5A;}
</style>
<g id="Camada_2" class="st0">
	<rect x="-12" y="-11" class="st1" width="759" height="203"/>
</g>
<g id="Camada_1">
	<g>
		<g>
			<path class="st2" d="M394,11c25.9-0.1,51.7-0.2,77.6-0.2c10.1,0,20.2,0.2,30.3,0.2c1.5,1.2,5,0.1,4.7,2.5
				c-0.3,2.7-3.6,2.4-5.8,2.3c-6-0.4-11.9-0.3-17.9-0.3c-2.8,0-5.5,0.3-8.7,2.2c3.8,1.3,6.8,1.4,10,1.4c6.1-0.1,12.2-0.7,18.3,0.6
				c1.4,0.3,4-0.1,3,2.9c-2,1.1-4.2,1-6.3,1c-21,0-41.9,0.4-62.9-0.3c-12.6-0.4-25.2-0.6-37.7,0.7c-1.5,0.2-3-0.2-4.4-0.6
				c-4.7-1.5-9.6-0.9-14.3-0.8c-10.3,0.3-20.7-1-30.9,0c-9.6,1-19.2,1.1-28.7,0.4c-15.3-1-30.6,0.3-45.8-0.8
				c-4.8-0.3-9.7,0.9-14.3-1.1c-0.6-4.1,2.7-2.5,4.6-3.2c-6.9-0.7-13.8-0.9-20.6-0.9c-5-0.1-8-2.3-8.1-6c22.5-0.1,45.1-0.2,67.6-0.3
				c6.8,0,13.6,0.1,20.4,0.2c1.7,2.5,4.2,2.9,6.9,2.7c5.7,0.1,11.3-0.3,17,0.2c1.1,0.2,2.2,0.6,3.3,0.9c6.2,1.6,7.1,1.3,10.8-3.7
				c1.7,0,3.3,0,5,0c3.3,1.6,6.7,1.7,10,0c1,0,2,0,2.9,0C384.6,12,389.3,12,394,11z"/>
			<path class="st3" d="M236,11.1c1.5,3.9,4.8,4.7,8.6,4.7c8,0.2,16,0,24.3,1.7c-2.3,4.4-6.6-0.1-8.9,2.6c-0.4,0.4-0.9,0.6-1.5,0.7
				c-6.8-0.2-13.7-0.5-20.5,1.1c-5.1,1-10.2,1.1-15.4,0.3c-2.8-0.4-5.6-0.5-8.5-0.5c-37.7,0-75.5,0-113.2,0c-4.3,0-8.6,0.9-12.9-0.1
				c-12.4-2.9-25.2-4.5-36.8-10.1c-1.8-0.9-4.3-1.4-4.2-4.3c9.6,0.6,19.3,1.6,28.8,3.3c3.3,0.6,6.6,0.4,9.9,0.4
				c49.1,0,98.2,0,147.2,0C234.1,10.8,235,11,236,11.1z"/>
			<path class="st4" d="M506,22.1c-3.7-1.1-7.4-1.6-11.4-1.6c-6.6,0-13.4,0.7-20-0.5c-1.3-0.2-2.3-0.8-2.3-2.2c0-2,1.7-2.3,3.1-2.6
				c8-2.1,16.2-1.1,24.3-0.9c2.3,0.1,4.4,0,6.9-0.7c-1.8-1-3.1-1.8-4.5-2.5c19.7-0.4,39.3-0.4,59,0c-0.3,1.6-1.5,3.2,1.6,3.6
				c2.3,0.3,4.2-0.6,6.3-0.7c7.5-0.4,14.9-0.6,22.4,0.1c2,0.2,3.9,0.5,5.4,0c-2.3-0.1-5.9,1.9-6.6-3c14.3-0.4,28.7-0.4,43,0
				c0.3,0.2,0.5,0.4,0.8,0.6c7.1,4.7,7,8.5-0.5,13.4c-12.8,1.1-25.7,1.7-38.3-0.3c-10-1.6-19.7-0.1-29.5-0.5
				c-18.4-0.8-36.9-0.6-55.3-0.7C508.6,23.5,507.1,23.3,506,22.1z"/>
			<path class="st5" d="M713.1,71c-2.9,7.4-5.6,15-11.1,21c-0.5,2.1-1.7,3.8-3.2,5.3c-0.5,0.7-1,1.4-1.5,2.1c-1.8,2.1-3.6,4.1-6,5.4
				c-0.7,0.3-1.3,0.5-2.1,0.4c-4.2-2.5-8.4-2.8-12.7-0.3c-1.3,0.8-3.1,2.4-4.4,0.6c-1-1.4,1.2-2.4,1.8-3.7
				c5.6-6.6,11.1-13.1,16.7-19.7c8.8-10.3,11.7-27.1-0.8-38.3c-1-0.9-2.3-1.9-0.8-3.2c1.4-1.3,3.2-1,4.5,0.1c2.4,2,4.8,4.1,6.7,6.5
				c2.4,2.8,4.3,4.4,7.4,1c0.8-0.8,2-1.1,3.2-0.9c3,2.3,4,5.6,4.5,9.1c-0.3,2.9-0.8,5.8-0.5,8.7C715.2,67.6,714.8,69.6,713.1,71z"/>
			<path class="st6" d="M675.9,39.9c-49.3-2.1-98.6-0.7-147.9-0.8C413.5,38.8,299.1,39,184.6,39c-33.3,0-66.6,0-100,0
				c-1.9,0-4,0.7-5.8-0.8c2.3-2.3,5.3-1.7,8-1.7c28,0.1,56.1-0.1,84.1,0.2c92,0,183.9-0.5,275.9,0c44.2-0.3,88.4-0.2,132.7-0.2
				c5.5,0,11-0.1,16.4,0.2c10.9-0.1,21.8,0,32.7-0.1c2.5,0,5.1,0.3,6.3-2.7c1.1-2.6-0.3-5.3,0.1-7.9c0.2-1,0.4-1.9,1.6-2.1
				c2.5,0.5,3.9,2.1,4.7,4.4c0.4,1.1,0.2,2.7,1.9,3c7.4-1.4,14.7,1,22.1,0.2c1.9-0.2,2.8,1.5,3.8,2.8c0.7,1.1,1.3,2.2,2.7,2.5
				C673.5,37.5,675.7,37.4,675.9,39.9z"/>
			<path class="st7" d="M47.1,7.2c4.7,4.1,10.6,6.9,16.4,7.5c8.2,0.8,15.4,5.1,23.6,5.4c1.3,0.3-2.7,2.9,1.1,2.2
				c2.2-0.4,4.6,0.4,6.9,0.6c1.2,0.1,3,0.1,3,1.9c0,1.5-1.5,2-2.7,2.5c-2.9,1-5.8,1.1-9.3,0.6c3,2.1,7.8,0.5,8.4,5.3
				c-0.7,1.3-2,2.1-3.3,1.7c-4-1.2-8.3-0.6-12.1-2.3c-9.6-4.3-20.2-5.2-30-8.6c-1-0.4-1.9,0.1-2.9,0.3c-5-2.1-10.2-3.6-14.9-6.4
				c-1.7-2.8-0.7-4.9,2.6-5.6c1.6-0.3,3.3,0.8,4.8-0.5c0.3-3.4-7.1-1.7-4.4-6.6C38.3,6.5,42.7,7,47.1,7.2z"/>
			<path class="st8" d="M636.9,24c-0.8,0.5-1,1.2-1,2.1c-1.6,0.2-2.3-0.4-2-2c4.4-6.1,4.4-6.1-1-13c8.7-0.4,17.3-0.4,26,0
				c3,2,6.4,0.8,9.6,1c3.8,0.2,7.6,0.1,11.4,0.1c7.1,0.6,14.1,1.5,20,6.1c-1,3.2-3.6,2.2-5.2,1.3c-5.2-3-11.2-2.4-15.3-3.8
				c6.8,0.7,14.6,3.2,22.2,6.6c3.8,1.7,6.6,4.4,9.2,7.5c2.5,3,2.3,5.7-1.3,7.8c-2.8,0.2-4-2.1-5.5-3.7c-2-2.1-4-4-6.8-4.7
				c-10.2-4-20.3-6.7-31.6-6.7c-9.4,0-18.6,0.7-27.8,1.5C637.4,23.9,637.1,24,636.9,24z"/>
			<path class="st9" d="M46,24.3c0.8-1.9,2-2.1,4-1.4c10,3.7,20.7,4.9,30.7,8.7c3.6,1.4,8.7,3.7,13.4,1.5c0.6-0.6,1.4-0.8,2.3-0.7
				c8.1,1,16.3,1.3,24.4,0.6c2.8-0.8,5.5-1,8.3,0.1c1.7,0.7,3.6,0.1,5.4,0.1c11.6,0.1,23.3-0.5,34.8,1.8c0.7,0.1,1.2,0.4,1.8,0.8
				c0.6,0.7,0.6,1.5,0,2.2c-29,0-58.1,0.1-87.1,0.1c-1.7,0-3.3,0.1-5,0.1C67.9,33.5,57,28.9,46,24.3z"/>
			<path class="st10" d="M708.9,37.1c3.1-2.3,3-4.4,0.3-7.3c-7.9-8.2-18-11.2-28.8-12.7c-2.4-0.3-4.6-1.1-7.8-1.7
				c2.3-1.9,4.4-1.8,5.7-1.2c5.1,2.1,11.2,0.5,15.9,4.3c1.4,1.1,3.8,1.2,5.5-0.4c3.3,0.1,6.1,1.5,8.3,3.6
				c7.4,7.2,14.4,14.6,16.7,25.2c0.6,3.6,0.5,6.8-4.2,7.5c-2.5-0.6-4.6-2-5.8-4.3C712.7,46,710.7,41.6,708.9,37.1z"/>
			<path class="st11" d="M34.1,5.1c0,1.6,0.3,3,2.4,2.9c2.9,0,4.6,1.9,4.1,4.3c-0.5,2.5-3,1.5-5,1.1c-3.2-0.6-5.5,0.4-4.5,4.4
				C22.5,14.2,13.8,10.6,5.2,7c-1.9-0.8-4.7-1.6-4-4.2C2,0.1,4.8,1.3,6.8,1.3c0.8,0,1.5,0.4,2.3,0.6C9.7,4,7.6,3.5,6.6,4.5
				c3.5,0.5,7.3,4.2,9.6-1.6C21.9,5.4,28.3,2.9,34.1,5.1z"/>
			<path class="st12" d="M675.9,39.9c-1.4-1.4-3.1-1.9-5-1.8c-1.2-2.7,0.9-2.7,2.5-2.8c5.5-0.5,10.9-0.2,16.1,1.4
				c5,1.6,10,2.2,15,0.5c5.1,2.3,7.1,5.8,6.3,10.9c-4.8,4.8-8.8,5.4-12.9-1.2c-1-1.7-3-3.3-4.6-4.9c-1-1-2.4-1.4-3.6-0.6
				c-1.1,0.8,0,1.8,0.2,2.6C685.4,42.3,680.8,40.4,675.9,39.9z"/>
			<path class="st13" d="M609.9,167.8c7.7-7.8,15.4-15.5,23.1-23.3c8.3-8.5,16.6-17.1,24.9-25.7c1.6,2.1-0.2,3.4-1.2,4.7
				c-5.1,7.1-11,13.5-17.8,19.1c-1.6,1.7-2.8,3.7-4.9,5.2c2.5-0.2,4.2-1.9,6.2-2.8c2.2-0.9,4.3-2.9,6.9-1.2
				c-2.2,4.7-6.9,6.3-10.8,8.9c-5,3.2-10.5,5.6-14.8,9.9c-1.8,1.8-4.8,1.5-6.4,3.7c-1.3,1-2.5,2.2-4.1,2.6
				C610.3,169.1,609.4,169.2,609.9,167.8z"/>
			<path class="st14" d="M638,141.9c7.6-6.9,15.1-13.8,19.9-23.1c3.5-4.1,6.7-8.4,11.1-11.6c1.2,2.6-1.3,3.6-2.2,5.3
				c-1.1,1.8-0.2,2.4,1.5,2.4c1.6,0,3.2-0.6,4.9-0.5c2,0,4.1,0,4.4,2.8c-0.4,1.9-1.6,3-3.5,3.3c-3.3-0.9-6.5-0.1-9.8,0.6
				c-2.5,0.5-4.6,1.5-4.9,4.2c-0.6,4.9-3.4,8-7.6,10.2c-2.5,1.6-4.5,3.7-6.5,5.9C642.6,144.4,640.2,144.4,638,141.9z"/>
			<path class="st15" d="M698,97c1.3-1.7,2.6-3.3,3.9-5c1.6,1.3,2.7,2.7,0.7,5.4c2.8-6,7.3-6.4,12.3-6.2c2.3,0.1,2.9,1.6,2.1,2.7
				c-1.7,2.6-3.3,5.4-6.2,6.9c-0.8-0.4-1.8-0.1-2.4-1c-2.1-3.9-2.7-0.5-3.7,0.8c-0.4,0.7-0.4,1.4,0.1,2.1c0.5,0.9,0,1.6-0.6,2.3
				c-3.1,2-6.3,3.8-10,4.6c-3.1-0.7-5.5-1.7-3.3-5.5c2.2-1.5,3.4-4.1,5.9-5.1C696.8,98.1,700.1,99.1,698,97z"/>
			<path class="st16" d="M589.9,11c1.4,2.2,3.1,3.2,5.9,2.3c1.5-0.5,3.2-0.7,4.9,1.7c-9.6,0-18.4,0-27.3,0c-2.6,0-5.1,0.1-7.7,1.3
				c-3,1.4-5.8-2.3-9.3-1.5c0.5-3,3.6-2.1,4.6-3.8C570.6,10.5,580.3,10.7,589.9,11z"/>
			<path class="st17" d="M330,15c-2.8-0.1-6.6,1.3-6-4c12.7-0.5,25.3-0.3,38,0c0.5,5-2.7,6.2-6.7,5.9c-2.2-0.2-4.5-0.4-6.3-1.9
				C342.7,13.5,336.4,13.5,330,15z"/>
			<path class="st18" d="M665.9,112c0.7-1.8,3-2.6,3-4.8c1.4-2,2.9-3.9,5-5.2c-0.4,1.1-0.8,2.3-1.5,4.1c5.9-3.7,11.4-6.9,17.3-1.1
				c0.4,2.9-1.9,4-3.5,5.5c-0.8,0.5-1.7,0.9-2.7,0.9c-3.7-3-7.2-3-11.1,0.1C670.8,112.8,668.3,114.8,665.9,112z"/>
			<path class="st19" d="M704,110.1c-3,3-6,6-9.1,8.9c-0.5-2.6-2.4-3.4-3.4-1c-1.5,3.6-4.4,4.9-7.3,6.7c-3.1,2.8-5.7,6.4-10.5,6.4
				c-1.3-2.4,0.6-3.7,2-5.1c4.7-4.8,9.2-9.8,15-13.4c0.9-1.2,2-1.9,3.4-2.2c2.8,2.5,3.9-0.2,5.5-1.8
				C702.5,105.9,703,106.1,704,110.1z"/>
			<path class="st20" d="M636,152c3.6-2.7,7.2-5.4,10.8-8.1c2.6-4,7.2-5.8,10.4-9c0.2-0.1,0.4-0.2,0.7-0.3c0.5,0,0.9,0.1,1.3,0.3
				c0.8,1,1.1,2.1,1.2,3.3c-0.4,2.6-3.7,2.5-4.4,4.8c-7,4.3-14,8.6-21,12.9C633.6,154.1,634.2,152.9,636,152z"/>
			<path class="st21" d="M714,65.1c-0.7-2.8-0.8-5.6,0.8-8.2c2.8-2.3,3.9-0.6,4.7,1.9c0.2,0.8,0.2,1.6,0.1,2.4c0,1.2,0,2.3,1.4,2.7
				c1.1,0.3,1.7-0.5,2.4-1.3c0.6-0.8,0.9-2.2,2.5-1.6c1.5,3.1,1.1,6.1,0,9.1C719.5,72.4,719.5,72.4,714,65.1z"/>
			<path class="st22" d="M726,61.1c-2.3,0.5-1,3.8-3.5,4.3c-3.9,0.8-4.8-0.7-3.6-6.4c0.2-3.7,0.4-4,2-4.9c2.9-1.5,3.3-4.4,4.1-7.1
				c1.5,2.3,2.6,4.7,2.3,7.6c-0.1,0.6,0.6,1.7-0.1,1.7C721.7,56.7,726.3,59.5,726,61.1z"/>
			<path class="st23" d="M636,152c-0.8,1.2-1.1,2.5-1,3.9c-6.6,3.2-12.2,8.2-19.1,10.9c-0.4-0.2-0.7-0.5-0.8-1c0-0.2,0-0.4,0-0.5
				C621.9,160.7,628.1,155.1,636,152z"/>
			<path class="st24" d="M714,65.1c0.7,0.4,1.8,0.6,2.2,1.2c2.3,3.9,5.7,4.6,9.7,4c-0.1,2.2-1,5.1-2.7,5.1c-2.4,0-5.9,0.1-6.6-3.8
				c-0.6-3.2-2.4-0.3-3.5-0.5C713.4,69.1,713.7,67.1,714,65.1z"/>
			<path class="st25" d="M655.9,143c-0.6-3.3,3.5-2.6,4.1-4.9c0.4-1.9,2.3-2.1,3.7-2.9c1.6-0.9,3.4-1.2,2.6-4.2
				c-0.7-2.5,2.5-2.7,4.2-3.7c2.4-0.3,3.2,0.9,2.9,3.1c-0.1,2.4-2.7,2.9-3.5,4.7C665.2,137.7,660.6,140.3,655.9,143z"/>
			<path class="st26" d="M16.2,3c-0.3,0.7-0.9,1.4-0.3,2.3c2.3,3.3-0.6,3-2.1,2.6c-3.3-0.8-6.6-2-9.9-3.1C4.8,1.9,8.1,4.1,9.2,2
				C11.6,1.5,13.7,3.7,16.2,3z"/>
			<path class="st27" d="M683.9,123.9c1.6-2.6,6.8-1.8,6-7c-0.2-1.5,4-0.4,5.3-2.6c1.2,2-0.5,3.3-0.3,4.7c-2.8,2.3-5.3,5.1-9,5.9
				C685.4,124.4,684.3,124.8,683.9,123.9z"/>
			<path class="st28" d="M683.9,123.9c0.8,0.1,1.6,0.2,2,1c-4.3,4.9-10,7.7-16,10.1c0.2-2,1.5-3.2,2.9-4.3c0.4-0.3,0.7-0.3,1,0.1
				C677.7,129.3,680.8,126.6,683.9,123.9z"/>
			<path class="st29" d="M679.9,12.1c-6.6,2-13.4,0.9-20.1,0.6c-0.3,0-0.6-1-0.9-1.6C665.9,10.8,673,9.9,679.9,12.1z"/>
			<path class="st30" d="M704,110.1c-0.9-1-1.1-4.5-3.2-0.8c-1.6,2.8-3.8,3.8-6.8,1.7c-0.5-0.6-0.6-1.2,0.1-1.8c2.8-2.4,6.6-3,9.7-5
				c1.7,1.3,1.4,3.1,1.2,4.8C704.6,109.4,704.3,109.7,704,110.1z"/>
			<path class="st31" d="M704.9,109c-0.9-1.5-1.1-3.2-1.2-4.8c0.6-0.4,1.1-0.7,0.1-1.2c1.7-2.4,4-0.5,6-1
				C710.3,105.8,706.7,106.7,704.9,109z"/>
			<path class="st32" d="M716.3,82.1c2.1,0.7-3,6.4,3.2,3.5c0.3,0.9,0.9,1.8,0.9,2.7c0,1-0.8,1-1.8,1
				C714.1,88.9,713.8,88.1,716.3,82.1z"/>
			<path class="st17" d="M377,11c-2.7,3-7.3,3-10,0C370.3,10.6,373.7,10.6,377,11z"/>
			<path class="st33" d="M709.9,102c-1.7,2.1-4,0.4-6,1c-0.5-0.2-1.5-0.4-1.6-0.7c-0.3-1.1,0.8-1.1,1.5-1.3c1.5-1.2,3.4-0.9,5.1-1
				c0.6,0.4,1.3,0.7,1.9,1.1C710.5,101.3,710.2,101.6,709.9,102z"/>
			<path class="st17" d="M394,11c-4.7,1.7-9.4,1.7-14.1,0C384.6,11,389.3,11,394,11z"/>
			<path class="st34" d="M615,165.8c0.3,0.3,0.5,0.6,0.8,1c-1.5,1.2-2.8,2.9-4.8,3.2c-2.1,0.3-3.3-0.2-1.1-2.2
				C612.1,168.4,613.2,166.2,615,165.8z"/>
			<path class="st35" d="M171,36.1c-4.5,0.2-8.8-1.9-13.4-1.1c-8.6,1.6-17.1-2.7-25.8-0.1c-3.4,1-7-2.8-10.8-0.8
				c-8.3-0.1-16.6-3.1-25-1c-0.7,0-1.3,0-2,0c-2-2.8-5-2.8-7.9-3c-1.3-0.1-3,0.2-2.8-1.8c0.2-1.9,1.7-2.5,3.3-1.8
				c3.9,1.6,7.2-0.2,10.6-1.5c-4.8-1.1-9.5-1.8-14.5-0.7c0.5-2.8,3.4-2.3,4.3-4.1c3.6,1.1,7.2,0,10.8,0c39.8,0.1,79.6,0,119.4,0.1
				c7.2,0,14.5,2,21.7-0.1c6.7,0.6,13.3,0,20,0c0.3,0,0.7,0,1,0c6,2.2,12.3,0.5,18.4,0.8c10.5,0.5,21.2-0.1,31.7,0.3
				c6.8,0.2,13.7,0.5,20.5,1c7.4,0.5,15-0.9,22.5-1c12.5-0.2,25-0.1,37.5,0c1.1,0,2.2,0.6,3.3,0.9c0.1,2.8-2.2,2.5-3.8,2.8
				c-8.7,1.6-17.5,2.4-26.3,0.8c-5.8-1.1-11.6,0.3-17.3,0.4c-11.1,0.2-22.2,0.9-33.4-0.2c-3.6-0.4-6.5,1.9-9.7,3.4
				c3.4,1.5,7,1.7,10.5,1.4c9.9-0.9,19.8-1.8,29.8-1.8c6.7,0,13.2,1.9,19.8,1.9c1.1,0,1.9,0.7,1.7,1.9c-2.1,2.8-5.2,2.8-8.1,2.8
				c-8.1,0.2-16.3,0.2-24.3-1.9c-1.7-0.4-3.3-0.3-4.9,0.1c-9.5,2.5-19.2,1.4-28.8,1.6c-9.3,0.1-18.6,0.1-27.9,0.8
				c-12.4,0.9-24.9,0.5-37.3-1.2c-1.5-0.8-1.4-1.6,0-2.5c1.4-0.8,3.2-0.4,5.4-1.7c-9.1,1.2-18.3-1.3-25.2,6.2
				c-13.1,0.4-26.2-0.1-39.4,0.2C173.5,37.1,172.1,37,171,36.1z"/>
			<path class="st36" d="M365,32.1c-9.1-0.3-18.1-2.6-27.3-2c-6.9,0.5-13.8,1.4-20.7,1.7c-4.7,0.3-9.5,0.1-14.3-0.1
				c-1.2,0-2.2-1.1-2.4-2.3c-0.3-1.7,1.2-2.4,2.5-2.6c5.3-1.1,10.3-2.5,16.1-2.1c8.9,0.7,18,0.5,27.1-0.2c7.3-0.6,14.7-1,22.2,0.3
				c8.2,1.4,16.6-0.5,24.8-1.6c0.3,0,0.6-0.7,0.9-1.1c2.7,0.3,5.3,0.1,8-0.2c8.9-0.8,18-1.3,27-0.7c25.7,1.6,51.3,0.4,77,0.9
				c8.3,0,16.6-0.1,25,0c14.1,0.2,28.2,0.5,42.3,0.6c5.4,0,11.6,2,16.8-1.9c0.3-0.2,1.2-0.2,1.3,0c2.7,5.9,8.2,2.7,12.1,3
				c10.1,0.8,20.3,0.3,30.4,0.3c0.7,0.7,1.3,1.4,2,2c0.3,2.3,0.6,4.6,1,6.9c-3.8-0.8-7.5-0.3-11.1,0.5c-6.4,1.4-12.8,0.2-19.1,0.6
				c-5.5-1.9-11.2,0.1-16.8-0.3c-7.5-0.5-15.3,0.3-22.8-0.2c-8.6-0.6-17.2,0.2-25.6-0.8c-10.9-1.3-22-1.7-32.6-0.8
				c-10.7,0.8-21.6-0.1-32.2,2c-3.3,0.6-6.7,0-9.9-0.5c-4.5-0.8-8.9-0.1-13.3,0.5c-1.1,0.3-2.2,0.3-3.3,0.2
				c-2.1-0.5-4.3-0.7-6.4-1.4c-5.3-1.7-10.8-1.5-16.1-0.3c-6.6,1.5-12.9,2.3-19.7,1.3c-11.9-1.7-23.8-0.1-35.8-0.3
				C369.7,33.4,367.1,34,365,32.1z"/>
			<path class="st37" d="M330,15c-0.2-0.7-0.8-1.8,0.5-1.9c5.7-0.1,11.4,0,17.1,0.1c0.9,0,1.2,1,1.3,1.8C342.7,15.1,336.4,15,330,15
				z"/>
			<path class="st38" d="M288.7,16c2.9-3.5,6.3-3,9.7-2.9c0.8,0,1.8,0.3,1.9,1.3c0.1,1.3-1,1.6-2,1.6C295.1,16.1,291.9,16,288.7,16z
				"/>
			<path class="st2" d="M259,20.1c-6.7,1.6-13.3,1.6-20,0c5.1-0.3,10.2-0.6,15.3-0.9C256,19,257.6,19.3,259,20.1z"/>
			<path class="st39" d="M720.9,54c0,1.9-0.8,3.5-2,4.9c-1.1-1.3-2-2.8-4.1-2.1c-1.3-2.9-2.6-5.8-4-8.8c-1.1-3.9-2-7.8-5.9-10.1
				c-0.9-0.7-2.1-0.9-3-1.8c-3-3.2-6-5.1-8.9,0.2c-0.7,1.3-2.3,1.5-3.6,1c-6-2.6-12.3-1.9-18.6-2.1c0.9-3,3.6-5.5,1.5-9.1
				c-0.5-0.8,0.7-2.1,1.9-2.5c6.4,0.1,12.5,1.6,18.5,3.7c1.7,0.6,3.3,1.6,5.2,0.8c5.3,1,6.9,6.5,11,9c2.7,2.3,4.2,5.2,5,8.6
				C714.9,49.5,717.8,51.9,720.9,54z"/>
			<path class="st40" d="M694,109.2c0,0.6-0.1,1.2-0.1,1.8c-1,0.7-2,1.3-3.1,2c-3.5,2.1-4.8,1.3-5-3.1c1-1.9,3.4-2.6,3.9-4.9
				c0.4-0.3,0.8-0.6,1.2-0.9c0.2,0.2,0.6,0.6,0.6,0.7C690.3,107.5,692.5,108.1,694,109.2z"/>
			<path class="st41" d="M698,97c1.5,0.1,3.6,0.3,2.7,2.3c-1,2.3-2.4-1.3-3.9-0.3C696.7,98,697,97.3,698,97z"/>
			<path class="st42" d="M365,32.1c8.4-0.3,16.8-0.3,25.2-0.5c6.1-0.1,12.4-0.8,18.5,0.7c6.9,1.7,13.2-0.4,19.8-1.6
				c4.8-0.9,10.5-2.2,15.4,1.3c-0.6,1.2-1.7,1.6-3,1.7c-2.5,0-4.8,0.6-7.2,1.2c4.4,1.2,9.2-1.5,13.5,1.1c0.4,0.7,0.4,1.4-0.2,2
				c-55.2,0-110.5,0.1-165.7,0.1c-36.8,0-73.5-0.1-110.3-0.1c0-0.6,0-1.2,0-1.9c14.7,0,29.3,0,44,0c5.7-3.4,11.7-3.9,18-2
				c8.1-0.7,16.2,1.5,24.3,1c12.7-0.9,25.4-0.8,38.1-1.6c5.4-0.4,11.1,0.4,16.6,0.7c4.9,0.3,9.5-0.7,14.2-1.6
				c3.3-0.6,6.4,0.1,9.6,0.3C345.6,33.6,355.4,36.3,365,32.1z"/>
			<path class="st43" d="M447,37.9c0-0.6,0-1.2,0-1.8c1.9-2,4.3-1.4,6.5-0.9c2.6,0.5,5.1,0.4,7.8-0.4c-2.8-1.3-6.3,2.3-8.3-1.8
				c6.2-2.7,12.6-1.2,18.8-0.6c3.3,0.3,6.3-0.1,9.3-0.5c6.9-0.9,14.2,1.5,20.4-0.5c10.1-3.3,20.1,1.4,30-1.2
				c2.2-0.6,4.6-0.1,6.8,0.8c3.9,1.7,8,1.5,11.7,0.3c2.6-0.8,4.7-0.8,7.2-0.3c9,2,18.2,1.1,27.3,1.2c7.5,0.1,15.1-0.7,22.5,0.8
				c-1.7,3.8-5.6,2.2-8.4,3.4c-0.7,0.3-2.5-0.6-1.7,1.5C546.9,37.9,497,37.9,447,37.9z"/>
			<path class="st44" d="M673.9,24.1c-0.3,0.9-1.1,2.4-0.8,2.7c4.3,4.2,0.3,6-2.2,8.2c-0.6,0.6-1.3,0.6-2,0
				c-1.9-3.2-5.5-2.9-8.1-2.5c-6.1,1-11.9-1.7-17.9-0.5c0-3.7,2.4-5.5,5.5-6.3c2.1-0.5,3.8-1.6,5.6-2.7
				C660.7,22.7,667.4,21.9,673.9,24.1z"/>
			<path class="st45" d="M596.9,37.9c-0.7-0.4-1.8-0.8-1.9-1.2c-0.2-1.1,1.1-0.7,1.8-1c3.3-1.3,7-0.8,10.1-2.6
				c8.2-1.1,16.7,1.2,24.7-2.5c1.9-0.9,3.4,1.6,5.2,2.5c-0.1,3.9-2.2,5.2-6,5.1C619.5,37.9,608.2,37.9,596.9,37.9z"/>
			<path class="st10" d="M668.9,35.1c0.7,0,1.3,0,2,0c2.6-1.1,5.6,0.2,8.3-2c1-0.8,4.4,1.4,6.7,2.4c3.1,1.3,5.9,3.1,7.7-2
				c0.8-2.3,3.6-2.8,5.9-1c2.1,1.6,4.1,3.4,5.5,5.6c-8,4.7-15.3-1.4-23-1.4c-3.7,0-7.7-1.5-11,1.5C669.6,37.5,668.9,36.5,668.9,35.1
				z"/>
			<path class="st46" d="M652.9,24.1c-0.1,1,0.4,2.8-1.4,2.6c-4.6-0.7-6.7,2.2-8.6,5.4c-0.8,0-2.4,1.4-2.2,0c0.6-3.8-1.9-5.6-3.8-8
				l0,0C642.2,23,647.6,21.4,652.9,24.1z"/>
			<path class="st10" d="M652.9,24.1c-5.3,0-10.7-0.1-16-0.1c0.2-1.1,0.7-1.8,1.9-1.9c6.8-0.7,13.6-2.2,20.3-1.8
				c13.2,0.8,26.7,1.1,38.8,7.8c-0.6,1.1-1.4,2.2-2.7,1.6c-6.7-3.5-14.3-3.5-21.4-5.6C666.9,24.1,659.9,24.1,652.9,24.1z"/>
			<path class="st7" d="M96.1,33.1c3.3-2.4,6.6-4.3,10.7-1.3c1.3,1,3.2,0.9,5.2,0.7c3-0.4,6.6-1.9,9.1,1.6c-0.3,0.1-0.6,0.4-0.9,0.4
				C112.1,34.5,104,35.6,96.1,33.1z"/>
			<path class="st47" d="M658.1,135.2c-3.1,3.8-7.4,6-11.3,8.7c-5.2,0.3-8.5,5.3-13.8,5.6c-0.4,0-0.9,0-1.8,0
				c2.4-2.7,4.6-5.1,6.8-7.5c2.7,1.6,5.1,1.1,6.7-1.6c1.5-2.5,3.6-4.3,6.3-5.4C653.3,133.9,655.8,132.7,658.1,135.2z"/>
			<path class="st48" d="M658.1,135.2c-2.4-0.1-4.8-0.1-7.2-0.2c4.4-2.7,6.9-6.5,7.5-11.7c0.1-0.7,0.8-1.5,1.3-2
				c2.4-2.1,11.8-2.9,14.2-1.2c0.3,0.4,0.3,0.8,0.2,1.3c-1.6,2.5-3.9,4.3-5.9,6.3c-2,1-3.3,2.8-5.2,4
				C660.7,131.7,659.3,133.4,658.1,135.2L658.1,135.2z"/>
			<path class="st49" d="M673.9,120.9c0-0.3,0-0.6,0.1-0.9c1-1,2-1.9,3-2.9c1.1-3.4,4.1-4.6,6.7-6.3c0.5-0.9,1.3-0.9,2.1-1
				c1,2.2,1.8,4.6,5,3.1c-0.2,0.7,2.3,1.2,0.4,1.9c-8.2,2.8-12.5,9.8-17.5,16c-0.3,0-0.7-0.1-1-0.1c0.3-2.3-0.9-3-3-2.7
				c-0.1-0.2-0.2-0.4-0.4-0.6C669.8,124.5,673.3,123.7,673.9,120.9z"/>
			<path class="st50" d="M683.7,110.9c-1.5,2.9-4.4,4.3-6.7,6.3c-2.5-3.2-5.7-1.3-8.5-0.8c-1.8,0.4-2.9,0-3.8-1.3
				c-1.1-1.6,0.1-2.4,1.3-3.1c2.9,1.1,5.2-0.6,7-2.2C677.1,106.2,680.5,106.7,683.7,110.9z"/>
			<path class="st51" d="M708.9,99.9c-1.1,3.2-3.4,0.5-5.1,1c0.2-0.8,0.1-2.1,0.5-2.2c1.6-0.4,1-3.2,2.6-2.8
				C708.6,96.3,709.1,98.1,708.9,99.9z"/>
			<path class="st52" d="M662.9,130.9c1.2-2,3.1-3.1,5-4.3c0.8,0.2,1.5,0.7,2,1.3l0,0c0.2,1.5-4.6,1.5-1.2,4.2
				c0.8,0.6-0.5,2.1-1.6,2.6c-2.3,1.1-4.7,2.2-7.1,3.2c-1.2-0.6-1-1.8-1.1-2.8C659.3,132.9,661,131.8,662.9,130.9z"/>
			<path class="st53" d="M662.9,130.9c-1.3,1.4-2.6,2.8-3.9,4.3c-0.3,0-0.6,0-0.8,0C658.4,132.3,659,129.8,662.9,130.9z"/>
			<path class="st54" d="M233,34c-6,0.7-12,1.3-18,2c-0.4-3,1.6-4.4,4-4.8c6.8-0.9,13.5-1.5,20.3-2.2c1-0.1,2.1-0.1,2.4,1.2
				c0.3,1.3-0.8,1.6-1.7,2.2C237.9,33.9,235.1,32,233,34z"/>
			<path class="st55" d="M453,33.1c2.7,2.4,5.3-0.9,8,0c1.3,0.4,3.4-0.6,3.7,1.5c0.2,1.9-1.9,1.2-3,1.7c-4.9,2.2-9.8-0.9-14.7,0
				c-3.7,0.1-7.5-0.5-11.2,0.7c-2,0.6-3.8-0.5-6.1-2.8c4.2-0.4,7.5-2.5,11.3-1c2.5,1.1,5.1,0.4,7.6,0.9c0.7,0.1,2,1,1.4-0.9
				C451,33.1,452,33.1,453,33.1z"/>
			<path class="st56" d="M450,33.1c0.3,0.5,1,1.5,1,1.5c-1.6,1.4-8.2,0.3-10-1.5c1-0.4,2-0.8,3-1.2C446,32.1,448.1,31.8,450,33.1z"
				/>
			<path class="st25" d="M669.9,128c-1,0-1.7-0.4-2-1.3c2-1.9,4-3.8,6-5.7C675.2,124.8,670.3,125.2,669.9,128z"/>
		</g>
	</g>
</g>
</svg>
