<?xml version="1.0" encoding="utf-8"?>
<!-- Generator: Adobe Illustrator 25.0.0, SVG Export Plug-In . SVG Version: 6.00 Build 0)  -->
<svg version="1.1" xmlns="http://www.w3.org/2000/svg" xmlns:xlink="http://www.w3.org/1999/xlink" x="0px" y="0px"
	 viewBox="0 0 591 161" style="enable-background:new 0 0 591 161;" xml:space="preserve">
<style type="text/css">
	.st0{display:none;}
	.st1{display:inline;stroke:#FFFFFF;stroke-miterlimit:10;}
	.st2{fill:#888D8A;}
	.st3{fill:#828385;}
	.st4{fill:#ACB3AF;}
	.st5{fill:#28292A;}
	.st6{fill:#828A8B;}
	.st7{fill:#ACB1AD;}
	.st8{fill:#868B88;}
	.st9{fill:#BDC3BC;}
	.st10{fill:#34383D;}
	.st11{fill:#828683;}
	.st12{fill:#5E625E;}
	.st13{fill:#303336;}
	.st14{fill:#9AA09E;}
	.st15{fill:#202224;}
	.st16{fill:#6B6F6B;}
	.st17{fill:#969D9B;}
	.st18{fill:#202222;}
	.st19{fill:#969E9D;}
	.st20{fill:#646864;}
	.st21{fill:#1F2121;}
	.st22{fill:#14161A;}
	.st23{fill:#17191C;}
	.st24{fill:#686C68;}
	.st25{fill:#0E0E0F;}
	.st26{fill:#1E1F1F;}
	.st27{fill:#292B2A;}
	.st28{fill:#444745;}
	.st29{fill:#808581;}
	.st30{fill:#7A7F7B;}
	.st31{fill:#676B65;}
</style>
<g id="Camada_2" class="st0">
	<rect x="-129" y="-70" class="st1" width="784" height="298"/>
</g>
<g id="Camada_1">
	<g>
		<path class="st2" d="M0.9,57.2l-0.5,0.1L0.1,57c0-3,0-6,0-9c5.8-8.2,14.7-7.4,23.1-7.8c5.1-0.2,7.6,2.3,7.8,7.5
			c0.2,5.1,0,10.2-0.1,15.3c-1.3,0-1.6-1-2-1.9c-0.9-3.3-3.2-6.3-2.6-10c0.3-1.4,1.4-1.5,2.6-1.6c-0.1-0.1-0.1-0.2-0.3-0.6
			c-5,1.4-9.7,3.7-14.7,5C9.6,55.4,5.5,57.5,0.9,57.2z"/>
		<path class="st3" d="M590.9,102c-0.6,0.7-1.3,1.4-1.9,2.1c-0.9-0.7-1-1.8-0.9-2.8c0.3-1.7,0.6-3.4,0.5-5.2c0.1-1.6-0.6-3-0.7-4.5
			c-0.1-1.4,0-2.7,1.2-3.7c0.6,1,1.2,2.1,1.9,3.1C590.9,94.6,590.9,98.3,590.9,102z"/>
		<path class="st4" d="M76.2,94.9c25.4,0.1,50.9,0.4,76.3-0.3c7.4-0.2,14.9,0.3,22.4,0.3c42.1-0.3,84.2-0.1,126.2-1.2
			c46.6-1.2,93.1-0.2,139.7-0.9c0.8,0.8,0.8,1.6,0.1,2.5c-5.1,2.1-10.5,0.9-15.6,0.8c-6.8-0.1-13.6,0.4-20.4,0.4
			c-25.4,0-50.8-0.1-76.3,0c-16.2,0.1-32.4,1.2-48.7,1.2c-12.3,0-24.6-0.2-36.8-0.2c-2.5,0-5,0-7.4,0.5c-0.6,0-1.2,0-1.7-0.1
			c-5-0.8-10-0.8-14.9,0c-1.4,0.2-2.9,0.1-4.3,0.1c-1.5,0-3.1,0-4.6,0c-39.4,0.2-78.8-0.2-118.1,0.2c-4.8,0-9.6,0.1-14.4-0.3
			C76.1,97.3,75.2,96.6,76.2,94.9z"/>
		<path class="st5" d="M589,87.9c0,1.4,0,2.7,0,4.1c-1.2,1.1-2.1,0.3-2.9-0.5c-2.7-2.9-5.6-2.7-8.7-0.6c-1.3,1.4,0.4,5-3.4,4.5
			c-2.5-3.3-6.7-3.5-10-5.3c-2.2-1.2-1.8,2.2-3.4,2.5c-1.3,1-2.3,2.4-4,2.7c-1.1-0.1-2.1-0.7-2.1-1.7c0-5-2.7-4.1-5.7-2.7
			c-1.4,0.5-3.2-0.2-3.5,2.4c-0.5,3.7-2.6,2.5-4.5,0.8c-5.7-4.1-7.1-4.2-13.2-0.4c-0.9,0.6-1.8,1.4-2.9,1.8
			c-3.1,1.5-3.1-2.9-5.5-2.8c-0.5,0.3-1.1,0.6-1.7,0.8c-2.1,0.3-2.9-2.5-5-2.1c-2,0.3-3.6,1.3-5.2,2.3c-0.8,0.4-1.6,0.8-2.6,0.4
			c-0.3-0.3-0.6-0.7-0.8-1.1c-2.6-2.4-6.8-2.6-8.4-0.4c-0.2,0.4-0.6,0.7-1,0.9c-1.5,0.3-2.4-0.8-3.5-1.4c-4.3-2.4-8.5-1.7-12.6,0.5
			c-0.4,0.2-0.9,0.3-1.4,0.3c-2.6,0.4-5.3-2.1-7.8,0.4c-0.4,0.1-0.9,0.2-1.4,0.2c-2.6-1.2-5-1.6-7,1c-0.7,0.2-1.4,0.1-2-0.2
			c-1.6-2.4-3.4-2.7-5.4-0.4c-1.2,1.5-2.6,2.4-4.6,1.5c-2-1.8-5.7-0.5-6.9-3.8c-0.1-0.2-0.1-0.4-0.2-0.7c9.7-2.7,19.7-2.2,29.6-2.4
			c37.5-0.6,75-1.1,112.6-1.6C585.6,87,587.6,86.1,589,87.9z"/>
		<path class="st6" d="M440.8,94.9c0-0.7,0-1.4,0-2.1c0.1-0.7,0-1.5,1-1.8l0.4-0.2l0.3,0.3c0.3,3.1,1.8,6.2,0.1,9.3
			c-0.2,0.2-0.4,0.4-0.7,0.6c-1.3-1.3-2.9-1.4-4.6-1.3c-22,0.3-44,0.7-65.9,0.1c-25.8-0.6-51.5,0.1-77.3-0.8c-1.1-3,1.2-2.5,2.7-2.4
			c23.2,0.5,46.4-0.2,69.7-0.1c18.2,0.1,36.4-0.1,54.6,0.1c5.6,0.1,11.1-2,16.7-0.4C438.8,96.5,439.9,95.8,440.8,94.9z"/>
		<path class="st7" d="M64.1,101c-0.7-0.4-1.4-0.7-2-1.1c-1.4-1.4-3.1-1.2-5-1.2c-7.4,0.2-14.8,0.8-22.2,0.1
			c-0.5-0.4-1.4-1.1-0.8-1.4c2.1-0.9,2.4-3.3,4.1-4.5c8.6,0,17.3,0.1,25.9,0.1C65.7,95.7,65.3,98.3,64.1,101z"/>
		<path class="st8" d="M31.3,73.8c1.2,5.3,0.5,10.8,0.8,16.2c-1.8,3.3-4.8,4.9-8.3,5.7c-2.2,0-5,1-5.5-2.3c-0.5-2.9,0.6-5.5,3.2-7.1
			c2.1-1.3,4.6-1.6,6.7-3c3-2.2,0.8-5.8,2.1-8.5C30.5,74.4,30.9,74.1,31.3,73.8z"/>
		<path class="st9" d="M24,94.8c3.1-0.9,5.4-3.3,8.2-4.8c1,3,4.3,1.3,6,2.9c-1.7,1.9,2.1,1.8,1.2,3.6c-1.4,1.4-3.9-0.4-5.3,1.5
			c-4.4,2.2-9.1,2.9-14,3c-0.7-0.4-1.4-0.7-2.1-1.1C18.5,96.4,21.4,95.8,24,94.8z"/>
		<path class="st10" d="M64.1,101c-1.1-2.7-0.3-5.3,0-7.9c3.9-0.5,7.3,0.3,9.8,3.6c0.5,0.5,0.5,1.1,0,1.7
			C71,100.5,67.7,101.3,64.1,101z"/>
		<path class="st11" d="M31,67c0.1,2.3,0.2,4.6,0.3,6.8l-0.4,0.3c-0.7,0.5-1.4,0.5-2.2,0.1c-3-3.4-3.6-7.7-4.6-11.9
			c0.2-1.8,0.8-3.1,3-2c0.6,0.4,1.1,0.9,1.5,1.5C29.6,63.5,29.4,65.6,31,67z"/>
		<path class="st12" d="M31,67c-4,0.1-2.1-3.3-2.9-5c0.3-0.9,0.9-1.3,1.8-1.1c0.3,0.7,0.6,1.4,1,2.1C31,64.4,31,65.7,31,67z"/>
		<path class="st13" d="M73.9,98.3c0-0.6,0-1.1,0-1.7c-0.1-1-0.3-2.1,0.8-2.6c0.7-0.3,1.2,0.2,1.5,0.9c-0.1,0.8-0.1,1.6,0.6,2.2
			c1.2,1.1-0.3,1.3-0.6,1.9C74.9,100.2,74.3,99.7,73.9,98.3z"/>
		<path class="st14" d="M440.8,94.9c0.1,2-1.3,2.8-2.8,2.8c-19.3,0.2-38.6,0.9-57.8,0.1c-11.4-0.5-22.7,0.9-34,0.4
			c-11.5-0.5-23,0.1-34.5-0.2c-4.9-0.1-9.9,0.8-14.8-0.7c-1.4-0.4-2.7,0-2.8,1.8c-20,0-40-0.1-60-0.1c-0.6-0.6-0.5-1.3,0-1.9
			c11.2-1.7,22.5-0.5,33.8-0.7c14.2-0.4,28.4,0.5,42.5-1c7.5-0.8,15.1-0.2,22.7-0.2c25.8,0,51.5,0.4,77.3-0.3
			C420.5,94.5,430.6,95.2,440.8,94.9z"/>
		<path class="st15" d="M589,101c0,1,0,2,0,3c-4.3,1.6-8.8,0.5-13.2,0.4c-38.3-0.3-76.6-0.9-114.8-1.3c-6.5-0.1-12.9-0.4-19.2-2.2
			l0.3,0.2l0.3-0.3c1.5-3.1,7.4-5.1,10.5-3.4c2,1.1,3.8,2.1,5.6-0.4c0.5-0.7,1.4-0.8,2.3-0.4c7.1,2.9,18.7,3.2,26,2.6
			c6.3-0.6,12.7,0.6,19.1-0.5c1.5-0.3,2.9,0.3,4.3,1.1c2.1,1.4,4.2-0.1,6.3,0.2c2.2-0.1,4.1-1.7,6.4-0.9c1.7,0.5,3.4,0.9,5.1,1.1
			c2.8-1.6,5.5-0.3,8.2,0.3c1.5,0.1,3,0.3,3.8-1.5c1-1.9,2.4-2,4.1-0.9c1.2,0.9,2.6,1.4,4.1,1.5c1.4,0.1,2.8,0.8,4.3,0.4
			c0.4-0.2,0.8-0.3,1.2-0.4c2.7-0.4,5.2,0.3,7.7,1c6.2-0.5,12.3-3,18.6-1c2.1-0.7,4.3-0.5,6.5-0.1C587.4,99.9,588.3,100.1,589,101z"
			/>
		<path class="st16" d="M24,94.8c-2,1.7-4,3.3-6,5c-3.9-3-4.6-7.6-5.8-11.9c1.4-0.9,2.5-2.2,3.7-3.4c0.7-0.5,1.5-0.9,2.3-1.3
			c2-1.6,0.4-3.4-0.1-4.9c-2-5.4-3.9-10.8-5.7-16.3c-0.6-1.7-1.4-3.4-0.9-5.3c0.2-0.5,0.5-0.8,0.9-1.1c2,0.4,2.7,2,3.5,3.5
			c1.9,5.7,4,11.4,5.9,17.1c1.2,1.9,0.7,5.1,4.1,5.2c1.2,0.1,2.4-1.7,3.7-0.2c0.4,1,0.2,1.9-0.5,2.7c-1.6,1.9-4,2.2-6.1,2.8
			c-3.3,0.9-3.6,3.7-3.7,6.1C19.1,96.9,22.9,93,24,94.8z"/>
		<path class="st17" d="M76.1,99c0.2-0.6,0.4-1.3,0.6-1.9C117,97,157.2,97,197.5,96.9c4.5,0,9,0,13.5,0c-0.2,2.5-2.1,1.2-3.3,1.4
			c-1.9,0.3-3.8-0.4-5.7,0.4c-2.7,0-5.4,0-8.1,0c-1.1-0.6-2.3-0.4-3.4-0.4c-31,0-62.1,0-93.1,0c-1.2,0-2.3-0.2-3.4,0.3
			c-4.2,0-8.4,0-12.5,0C79.7,98.8,77.9,98.9,76.1,99z"/>
		<path class="st18" d="M16.4,85c-0.8,1.9-1.6,3.7-4.2,3C8.8,78.7,5.4,69.4,2,60.2c-1.1-2.4,0.6-2.9,2.3-3.4
			c2.1-0.6,3.1,0.7,3.9,2.3c2.2,4.6,3.6,9.6,5,14.5C14.3,77.3,16.7,80.8,16.4,85z"/>
		<path class="st19" d="M20.1,100.9c4.5-1.5,9-3.2,14-3c8.1-0.7,16.2,1,24.2-0.8c2.1-0.5,3.6,0.4,3.8,2.8
			c-11.8,0.1-23.5,0.9-35.2,2.2C24.6,102.3,22.2,102.3,20.1,100.9z"/>
		<path class="st20" d="M16.4,85c-3.4-5.7-4.3-12.2-6.8-18.2c-0.9-2.1-1.5-4.3-2.3-6.5c-0.4-1.2-0.5-2.8-2.2-2.9c-1.7,0-2.7,1-3,2.7
			c-1-0.7-1-1.8-1.1-2.9c4.2-2.1,8.8-3,13.2-4.2c0.3,0.3,0.4,0.7,0.3,1.1c-0.4,1.1-1.4,1.4-2.3,1.9l0,0c-2.4,1.9-0.8,4-0.1,5.8
			c2.3,6,4.1,12.2,6.1,18.3c0.4,1.2,1.1,2.5,0,3.7C17.8,84.6,17.2,84.9,16.4,85z"/>
		<path class="st4" d="M94.1,98.8c1.2-1.3,2.8-0.8,4.3-0.8c30.3,0,60.6,0,90.9,0c1.6,0,3.4-0.5,4.7,0.9
			C160.7,98.9,127.4,98.8,94.1,98.8z"/>
		<path class="st17" d="M234,97c0,0.6,0,1.3,0,1.9c-4,0-8,0-12,0c-1.7-0.8-3.5-0.2-5.2-0.4c-0.9-0.1-2,0-1.8-1.5c1.3,0,2.7,0,4,0
			C224,96.2,229,96.2,234,97L234,97z"/>
		<path class="st14" d="M215,97c1.9,2.2,5-0.2,7,1.9c-6.6,0-13.3,0-19.9,0c2.6-2.3,6.3,0.6,8.9-1.9C212.4,97,213.7,97,215,97z"/>
		<path class="st12" d="M14.1,54c0-0.3,0-0.7,0-1c4-1.5,7.9-3,11.9-4.4c1.2-0.4,2.3-1.9,3.5-0.8c0.7,0.7,1.5,2.6-0.6,2.9
			c-0.7,0.1-1.5-0.3-2,0.5c-1.1,0.5-1.8,1.6-2.9,2.2c-0.8,0.2-1.7,0.1-2.5,0c-2-0.2-3.7,1.3-5.7,1.4C15.2,54.8,14.6,54.6,14.1,54z"
			/>
		<path class="st21" d="M24.2,53c0.2-1.7,0.6-3.2,2.8-1.9c1,3.3,2,6.5,3,9.7c-0.6,0.4-1.2,0.7-1.8,1.1c-0.3-0.3-0.7-0.6-1-1
			c-1.1-1.7-1.9-3.7-3-5.4C23.6,54.7,23.2,53.8,24.2,53z"/>
		<path class="st22" d="M522.9,100c-2.2-0.9-3.9,1.4-6,1c-1.1-0.8-2.1-1.5-3.5-0.3c-1.1,1-2.3,1.1-3.5,0.3c-4.3-2.6-8.7,0-13,0.2
			c-1.8,0.1-3.3,0.7-4.9-0.5c-1.6-1.1-4-1.4-5.2-0.4c-2.6,2.1-5.5,1.5-8,0.9c-4-0.9-8.2,0.7-11.9-1.5c-0.9-0.5-1.7-0.1-2.3,0.5
			c-2.2,2.2-3.3,1.5-3.8-1.3c-0.3-1.5-1.9-2.3-2-0.8c-0.3,4-3.9,2-4,1.8c-3-3.7-6.9,0.9-10.1-1.1c-0.2-0.2-1.6,1.4-2.4,2.2
			c-1.1-3.3-0.8-6.6,0-9.8c0.8,1.7,2.2,2.1,3.9,1.9c1.4-0.1,2.5,0.3,2.6,2c3.5,1,6.6-1.4,10-1c0.7,0,1.3,0,2,0c2.2-1.2,4.9,1.3,7-1
			c0.3,0,0.7,0,1,0c1.5-1.2,3.1-0.5,4.6,0s2.5,0.2,3.4-1c0.3,0,0.7,0,1,0c3.5,1,7.4-1.7,10.9,1.3c1.4,1.2,4,0.3,6.1-0.3l0,0
			c3.3-1.4,6.7-2.6,10,0c0,0.3,0,0.7,0,1c4.5,1.9,8.7-0.7,13-1c0.3-0.3,0.7-0.7,1-1c1.8-1.1,2.3,0,2.5,1.6c0.3,2.5,1.8,2.3,3.5,1.4
			c0.7-0.7,1.3-1.3,2-2c5-0.2,10-0.9,15,0c0.2,1,0.4,2,1.7,1.8c0.3-0.1,0.9-0.7,0.8-0.9c-3.2-6.7,2.8-2.8,4.4-3.9
			c0.3,0.2,0.4,0.7,0.5,0.8c2.8,0.9,4.9,2.9,7.5,4.2c0.7-1.3,1.7-2.3,3-3c4.6,1.3,9.9-0.8,14,3c4-0.3-0.2-3.9,2-5
			c0.7-0.6,1.9-0.8,2.3-0.4c3.3,3.1,8.3,3.3,11.6,6.4c0.2,1.8,0.1,3.5-0.8,5c-1,0-2.1,0-3.1-0.1c-2-2-4-3.8-6,0
			c-0.3,0.1-0.7,0.5-0.9,0.4c-3.6-2.5-7.4,0.4-10.9-0.5c-2.8-0.7-4.6,2.7-7.2,1.1c-2.7-3.9-4.3-4.1-8-1l0,0c-1.3,1.1-2.6-2.8-4,0
			c-2,0-4.1,0.5-5.6-1.7c-1-1.6-2.1-1.1-2.4,0.8c-1.1,2-4.1-0.5-5,2c-2.7-0.8-5.3-2.3-8,0C527.3,98.7,524.9,99.9,522.9,100z"/>
		<path class="st23" d="M589.8,96c-4.1-1.3-8.9-1.4-11.5-5.8c-0.2-0.4-1.5-0.1-2.4-0.1c5-3.7,9.2-1.9,13.1,2
			C589.6,93.2,590.1,94.5,589.8,96z"/>
		<path class="st14" d="M234,97c-5,0-10,0-15,0C224,95.4,229,95.4,234,97z"/>
		<path class="st15" d="M494.9,93c-3,0.9-6.1,5.1-8.7-0.5c-0.1-0.2-0.8-0.3-0.9-0.3c-2.6,5.1-5-1-7.5-0.2
			C483.9,87,489.5,89.3,494.9,93z"/>
		<path class="st23" d="M573.9,95c-2.5-0.6-4.7-2.1-7.7-0.2c-2.3,1.5-3.3-3.6-6.3-2.8c2.1-0.4,1.6-4.9,3.2-3.6
			C566.5,91,572.6,89.3,573.9,95z"/>
		<path class="st23" d="M541.9,93c-0.3,0-0.7-0.1-1,0c-4.7,1.7-9.3,1.7-14,0C531.9,87.6,536.9,89.6,541.9,93z"/>
		<path class="st23" d="M556.9,94.9c-0.4,0.6-1.3,1.1-1.6,0.6c-1.8-3.4-4.5-2.9-7.2-1.5c-1.6-2,1.4-2.5,0.8-4
			c5.1-3.2,6.1-2.7,6.3,2.8C555.2,94,556,94.5,556.9,94.9z"/>
		<path class="st15" d="M458.9,94c-3,3.3-6.6,1.6-10,1c2.3,0.5,3-1.4,4.3-2.7C456.2,89.1,457.6,89.6,458.9,94z"/>
		<path class="st15" d="M504.9,93c-3.3,0-6.7,0-10,0c-0.6-3.2-0.2-5.4,3.7-3.2c1,0.6,1.5,0.5,2.5,0.1C503.9,88.8,505,90.4,504.9,93z
			"/>
		<path class="st23" d="M517.9,93c-2.8,1.1-5.2,3.1-8.4,3c-1.8,0-3.6,0-4.5-2c0.7-0.3,1.3-0.7,2-1c1.9-0.5,4.8,0.4,5-3
			C515.1,88.6,515.6,92.7,517.9,93z"/>
		<path class="st15" d="M467.9,93c-1.5,6.2-4.7,0.7-7,1C462.6,88.6,465.3,91.4,467.9,93z"/>
		<path class="st15" d="M476.9,92c-0.4,1.5,1.1,5.2-3,2.3c-1.3-0.9-3.3-0.9-5-1.3C471,87.7,474.3,92.5,476.9,92z"/>
		<path class="st15" d="M511.9,90c-0.2,1.5,1.8,3.1-0.3,4.5c-2.2,1.5-2.9-1.8-4.8-1.5C508.2,91.4,510.3,91,511.9,90z"/>
		<path class="st23" d="M524.9,95c-1.7,1.4-3.2,1.7-3.9-0.8c-0.4-1.2-0.7-2.1-2.1-2.2c1.2-3,2.4-2.7,2.9,0.2
			C522.1,94.3,522.9,95.2,524.9,95z"/>
		<path class="st24" d="M29.1,84.1c0-1,0-2.1-0.1-3.1c-1.9-0.3-2.4-2.9-4.6-2.7c-0.9-0.5-1.1-1.4-1-2.3c0.4-1.3,1.5-1.7,2.7-2
			c0.9-0.2,1.9-0.2,2.8,0.1c0.6,0,1.3,0.1,1.9,0.1C30.1,77.4,33.2,81.4,29.1,84.1z"/>
		<path class="st25" d="M29,74c-0.6,0.3-1.2,0.6-1.8,0.9c-1.6-0.5-2.2-1.8-2.8-3.3c-1.8-4.8-3-9.7-4.7-14.5
			c-0.6-1.6-1.9-4.7,2.3-3.7c1.2,1.3,2,2.9,2.7,4.5c0.7,1.4-0.7,2.9,0.3,4.2C26.4,66.1,27.7,70,29,74z"/>
		<path class="st12" d="M25,62.1c-1.2-1-0.9-2.5-1.1-3.9c0.2-1.1,0.1-2.3,1.1-3c1.4,1.7,2.1,3.7,2.1,5.9
			C25.9,60.4,25.1,60.5,25,62.1z"/>
		<path class="st23" d="M552.9,100.9c0-4.9,4-3.2,6.2-3.3c3.3-0.2,1.1,2.9,1.8,4.4C558.3,100.8,555.7,100.3,552.9,100.9z"/>
		<path class="st23" d="M579.9,101c0.2-1.5-0.6-3.5,1.9-3.9c3.3-0.6,3.1,2.3,4.1,3.9C583.9,100.3,581.9,100.3,579.9,101z"/>
		<path class="st23" d="M522.9,100c1.3-0.6,1.5-3.3,3.2-2.4c1.4,0.7,3,2.2,1.8,4.4C526.5,100.7,524.2,101.6,522.9,100z"/>
		<path class="st23" d="M535.9,101.9c0.5-1.5,1.1-2.9,1.6-4.4c2.1-0.5,0.5,4.1,3.4,2.4C540.3,103.2,537.7,101.5,535.9,101.9z"/>
		<path class="st23" d="M548.9,100.9c0.5-1.2-2-2.9,0.3-3.7c1.8-0.6,1.5,1.7,2.3,2.5c0.4,0.5,1,0.8,1.5,1.2
			C551.5,102.8,550.2,100.6,548.9,100.9z"/>
		<path class="st23" d="M509.9,101c0.9-0.1,2.1,0.2,2.7-0.7c2.1-3.3,3.2-1.2,4.3,0.7C514.6,100.4,512.2,103.4,509.9,101z"/>
		<path class="st26" d="M18.1,83.9c-2.8-8.1-5.4-16.2-8.3-24.2c-0.9-2.6-0.7-3.8,2.3-3.6c1.9,8.8,5.7,17.1,8.3,25.7
			c0.3,1,1.3,2.2-0.2,3C19.4,85.2,18.8,84.3,18.1,83.9z"/>
		<path class="st27" d="M24,76c0.3,0.7,0.7,1.4,1,2.1c1.5,1.4,2.4,2.9,1.1,4.8c-4.6,0.5-3.8-3.6-5-5.9c-1.3-6.2-3.4-12.2-6-18
			c-1-1-1.9-2-2.9-3.1c0.7-0.7,1.3-1.4,2-2.1c0.6,0.1,1.3,0.1,1.9,0.2c3.2,2.8,3.5,6.9,4.9,10.5c1.1,2.9,2.2,5.7,2.9,8.7
			C24.1,74.2,23.5,75.2,24,76z"/>
		<path class="st28" d="M15,59.1c3.8,5.4,5.6,11.4,6,18C18.6,71.2,16.2,65.4,15,59.1z"/>
		<path class="st29" d="M26,83c-0.3-1.6-0.7-3.2-1.1-4.8c0.4-0.9,0.4-2.7,1.9-0.9c0.9,1.1,1.5,2.5,2.2,3.7
			C28.1,81.7,27.7,83.2,26,83z"/>
		<path class="st28" d="M24,76c-0.3-0.7-0.6-1.4-0.9-2c-0.1-3.3-0.8-6.4-3.1-8.9c-1.3-3.6-2.7-7.3-4-10.9c1.9-1,3.7-2.4,6-2.1
			c0.6,0.7,0.7,1.4,0,2c-2.4-1.3-2.1,0.1-1.6,1.6c2.2,6.4,4.5,12.8,6.8,19.2C26.1,75.2,24.8,74.8,24,76z"/>
		<path class="st30" d="M22.1,54.1c0-0.7,0-1.4,0-2c0.7,0.3,1.4,0.7,2.1,1c0.3,0.7,0.6,1.4,0.9,2.2c0,1.2,0.2,2.4-1.1,3
			C23.3,56.8,22.7,55.5,22.1,54.1z"/>
		<path class="st31" d="M20,65.1c0.2-0.4,0.4-0.8,0.7-1.2c1.5,3.2,4.1,6.2,2.4,10.1C22.1,71,21.1,68,20,65.1z"/>
	</g>
</g>
</svg>
