<?xml version="1.0" encoding="utf-8"?>
<!-- Generator: Adobe Illustrator 25.0.0, SVG Export Plug-In . SVG Version: 6.00 Build 0)  -->
<svg version="1.1" xmlns="http://www.w3.org/2000/svg" xmlns:xlink="http://www.w3.org/1999/xlink" x="0px" y="0px"
	 viewBox="0 0 726 129" style="enable-background:new 0 0 726 129;" xml:space="preserve">
<style type="text/css">
	.st0{display:none;}
	.st1{display:inline;stroke:#FFFFFF;stroke-miterlimit:10;}
	.st2{fill:#353532;}
	.st3{fill:#181A1A;}
	.st4{fill:#757777;}
	.st5{fill:#4B4F4F;}
	.st6{fill:#727473;}
	.st7{fill:#8F9291;}
	.st8{fill:#131313;}
	.st9{fill:#323433;}
	.st10{fill:#0F100F;}
	.st11{fill:#212322;}
	.st12{fill:#4A4D4D;}
	.st13{fill:#090909;}
	.st14{fill:#535756;}
	.st15{fill:#20201E;}
	.st16{fill:#363938;}
	.st17{fill:#0E0E0E;}
	.st18{fill:#2B2D2D;}
	.st19{fill:#17191A;}
	.st20{fill:#060606;}
	.st21{fill:#3B4444;}
	.st22{fill:#292B2C;}
	.st23{fill:#6B7E82;}
	.st24{fill:#222425;}
	.st25{fill:#1E2121;}
	.st26{fill:#818582;}
	.st27{fill:#303434;}
	.st28{fill:#242524;}
	.st29{fill:#7C796E;}
	.st30{fill:#0E0F0F;}
	.st31{fill:#262727;}
	.st32{fill:#6A675D;}
	.st33{fill:#656A68;}
	.st34{fill:#5B686A;}
	.st35{fill:#232320;}
	.st36{fill:#4D5251;}
	.st37{fill:#747167;}
	.st38{fill:#1A1C1C;}
	.st39{fill:#728283;}
	.st40{fill:#707F81;}
	.st41{fill:#171818;}
	.st42{fill:#8E9D9E;}
	.st43{fill:#6B7A7B;}
	.st44{fill:#141414;}
	.st45{fill:#69665C;}
	.st46{fill:#748283;}
	.st47{fill:#1C1C1B;}
	.st48{fill:#1C1C1A;}
	.st49{fill:#AEBCBC;}
	.st50{fill:#0C0C0B;}
	.st51{fill:#A19C8F;}
	.st52{fill:#9F9C91;}
	.st53{fill:#5F5C54;}
	.st54{fill:#282826;}
	.st55{fill:#B7B3A5;}
	.st56{fill:#6F6C62;}
	.st57{fill:#666359;}
	.st58{fill:#646156;}
	.st59{fill:#595E5D;}
	.st60{fill:#797E79;}
	.st61{fill:#47453E;}
	.st62{fill:#8D897D;}
	.st63{fill:#504E47;}
	.st64{fill:#686D6B;}
	.st65{fill:#615E55;}
	.st66{fill:#272B2C;}
	.st67{fill:#343837;}
	.st68{fill:#1C1C1C;}
	.st69{fill:#393833;}
	.st70{fill:#2D2D29;}
	.st71{fill:#010101;}
	.st72{fill:#020201;}
	.st73{fill:#353430;}
	.st74{fill:#485353;}
	.st75{fill:#191A1A;}
	.st76{fill:#3C3F3E;}
	.st77{fill:#434646;}
	.st78{fill:#8E8A7E;}
	.st79{fill:#151616;}
	.st80{fill:#22211F;}
	.st81{fill:#3F494A;}
	.st82{fill:#5F6D6F;}
	.st83{fill:#8D9C9C;}
	.st84{fill:#869596;}
	.st85{fill:#272725;}
	.st86{fill:#B6C2C0;}
	.st87{fill:#151515;}
	.st88{fill:#87918F;}
	.st89{fill:#8D9D9E;}
	.st90{fill:#91A1A2;}
	.st91{fill:#525F60;}
	.st92{fill:#97A8A9;}
	.st93{fill:#94A4A5;}
	.st94{fill:#373A39;}
	.st95{fill:#959084;}
	.st96{fill:#949084;}
	.st97{fill:#B3AEA0;}
	.st98{fill:#3B3A34;}
	.st99{fill:#181715;}
	.st100{fill:#191816;}
	.st101{fill:#161513;}
	.st102{fill:#131311;}
	.st103{fill:#141412;}
	.st104{fill:#B7B2A4;}
	.st105{fill:#CFCBBF;}
	.st106{fill:#47443C;}
	.st107{fill:#58554E;}
	.st108{fill:#4E4C45;}
	.st109{fill:#1D1D1B;}
	.st110{fill:#1D1C1B;}
	.st111{fill:#151514;}
	.st112{fill:#ADA99B;}
	.st113{fill:#181716;}
	.st114{fill:#171715;}
	.st115{fill:#A8A396;}
	.st116{fill:#A7A295;}
	.st117{fill:#1A1A18;}
</style>
<g id="Camada_2" class="st0">
	<rect x="-136" y="-139" class="st1" width="1137" height="371"/>
</g>
<g id="Camada_1">
	<g>
		<path class="st2" d="M222,128.9c0-14.9,0.1-29.8,0-44.8c0-0.3,2.1-4.7-1.8-1.9c-1.1-0.1-1.9,1.2-3.1,0.7c-2.5-1.7-3.9,1.1-6,1.4
			c-1,0.1-1.4-0.5-1.4-1.4c2.5-2.9,4.2-5.9,4-10.1c-0.2-3.9-1.2-5.9-5.4-5.5c-1.3,0.1-2.6,0-3.9-0.6c-0.7-0.3-1-0.9-1.2-1.7
			c-0.1-1.7-1.2-2.1-2.7-2.2c-1.3-0.1-2.8,0-2.9-1.9c0.4-0.9,1.1-1.5,2-1.8c3.2-0.8,6.7,1.9,9.7-0.9c0.7-0.1,1.4,0,2,0.3
			c1.5,1.1,2.7,2.5,1.9,4.5c-0.7,1.8-2.5,1.1-3.7,1.2c1.5,0.2,3,0,4.6-0.5c1.9,0.2,3.3-1,2.8-2.5c-1.5-4.4,0.4-9.7-3.5-13.5
			c-0.3-0.5,0.3-2.3-0.5-1.6c-4.4,3.5-8.9,2-13.3,0.6c-2.6-0.8-5-1.5-7.7-0.7c-4,1.2-8.2-0.2-12.3,0.6c-2.8-0.5-5.5-0.9-8.3,0.1
			c-1.6,0.3-3.3,0.5-5,0.4c-11.3,0-22.5-0.1-33.8,0.1c-2.7,0.1-5.3,0.4-7.8,1.2c-1.2-0.6-2.4-1.1-3.7-1.1
			c-16.9-0.1-33.9-0.2-50.8-0.2c-1.5,0-2.9,0.5-4.4,0.7c-2.8,1.2-5.8,1.6-8.7,1c-4-0.7-7.8-0.4-11.7,0.2c-3.4,0.2-6.8,0.2-10.2,0.1
			c-2.3,0-4.5,0-5.7,2.6c-0.8,1.7-2.3,2.2-4.1,1.1c-1.6-2.2-0.7-5-1.8-7.3c-1.2-5.6-1.5-11.2,1.5-16.4c2.3-1.2,4.9-0.9,7.4-0.9
			c11.7-0.1,23.3,0.2,35,0.1c6.3-0.2,12.6,0.3,18.9,0.1c19.4-1.2,38.8,0.2,58.2,0c5.4-0.1,9.8-0.4,11.2-6.6c2.2-0.1,1.9,1.7,2.1,2.9
			c0.2,1.1,0.1,2.3,1.7,2.5c11,0.2,21.9,0.2,32.9,0.2c2.4,0.1,4.8-0.1,7.2,0.4c5.1,1.5,10.4,0.1,15.6,1c3.8,0.8,7.5,1.9,11.4,1.7
			c1.9,0,3.8,0,5.7,0.4c3.4,1.7,6.8-1,10.2-0.1c5.7,1.5,11.6,1.2,17.3,0.4c6.7-0.9,13.2-0.6,19.8-0.5c1.1,0.5,2.6,0.7,2,2.5
			c-1.6,2.3-4.2,2-6.4,2c-18.3,0.2-36.5,0.1-48,0.1c12-0.2,30.9,0.4,49.7-0.2c3.9-0.1,4.9,0.8,4.3,4.5c-0.4,2.8-1.2,5.5-3.3,7.6
			c-2.1,1.3-4.5,1-6.8,1c-12.6,0.2-25.2-0.3-37.7,0.2c-1,0.3-2,0.8-3.1,0.8c-0.2,2.7-1.6-3.7-1.8,0.2c-0.1,3.9-2.5,7.1-3.1,10.9
			c-0.1,2.3-1.4,4.3-1.9,6.5c-1.7,2.3-2.3,4.7,0.1,6.9c10.8-1.9,21.4-4.4,32-7.1c0.5-0.1,0.9-0.4,1.4-0.5c8.7-2.7,11-1.2,11,7.8
			c0,13.8,0.1,27.6,0,41.4c0,6.7-0.9,7.6-7.6,8.5c-2.7,0.4-5.4,0.5-8,0.2c-8.8-1.1-17.1,1.9-25.8,2.1c-1.8,0-3,1.2-4.1,2.5
			C222.7,128.9,222.4,128.9,222,128.9z"/>
		<path class="st3" d="M223,128.9c-0.4-3.3,0.3-5.4,4.4-4.1c1.4,0.4,3.1,0.4,4.4,0c9.2-2.8,18.6-1.7,27.9-1.9
			c6.9-0.2,7.2-0.5,7.2-7.4c0-14.6-0.1-29.2,0-43.8c0-3.7-0.3-6.1-5.2-4.8c-11.9,3.2-24,5.8-35.9,8.9c-2.3,0.6-3.4,0.5-3.9-1.8
			c1.4-1.3,3.2-1.8,5-2.2c12.7-2.5,25.2-6.3,37.9-8.8c1.1-0.2,2.5-0.9,3.4-0.4c6.3,3.4,12.3,0.3,18.5-0.5c2.8-0.4,5.8-1.9,8.5,0.3
			c0.1,3.3-2.4,3.6-4.7,3.9c-4.6,0.6-9.2,1.4-13.6,3c-2.3,0.8-3.6,2.3-3.6,4.8c-0.1,14.5-0.1,29,0,43.4c0,0.7,0.4,1.2,0.9,1.7
			c2.2,1.1,4.2,0.3,6.2-0.4c4.8-1.7,9.6-1.7,14.5-0.4c1.1,0.1,2.1,0.6,2.8,1.4c0.7,3.6-2.2,2.7-3.8,2.8c-20.7,1.8-41.4,3.4-62.1,5.1
			c-1,0.1-2.4-0.5-3,1C227,128.9,225,128.9,223,128.9z"/>
		<path class="st4" d="M442,0.1c0.6,0.7,1.3,1.4,1.9,2c-6,0.9-12.1,0.8-18.2,0.9c-24.4,0.1-48.8-0.3-73.1,0
			c-14.2,0.2-28.5-0.3-42.8-0.1C304,3,298.2,2.3,292.4,2.6c-1.8,0.1-3.7,0-5.3-1.1c-0.5-0.4-0.5-0.9-0.2-1.4
			C338.7,0.1,390.3,0.1,442,0.1z"/>
		<path class="st5" d="M1.1,85c4.5-19.6,3-39.4,1.8-59.2c-0.2-2.7-0.4-5.6-2.8-7.7c0-0.7,0-1.3,0-2c5.1-8,13.2-3.8,20-4.8
			c0.1,0.2,0.2,0.4,0.3,0.6c-0.1,0.2-0.2,0.4-0.3,0.6c-2.4,1.7-1.9,5-3.9,6.9c-2.2,0.9-3.8-0.5-5.6-1.2s-3.7-2.5-5.5-1.1
			c-2,1.6,0.2,3.6,0.3,5.5c2.5,15.9,2.8,31.9,1.2,47.9c0,5.3,0,10.7-4.5,14.7C1.7,85,1.4,85,1.1,85z"/>
		<path class="st6" d="M287,0.1c0,0.5,0,0.9,0,1.4c-2.1,1.5-4.5,1-6.8,1.1c-16.8,0.7-33.6-0.3-50.4,0.2c-5.6,0.2-11.2,1.8-16.7-0.6
			c0-0.7,0-1.3,0-2C237.7,0.1,262.4,0.1,287,0.1z"/>
		<path class="st7" d="M724.8,20.3c0.4-0.1,0.7-0.1,1.1-0.2c0,7.3,0,14.6,0,22c-0.3,0-0.7,0-1,0c-0.3-0.4-0.6-0.9-0.9-1.4
			c-0.4-1.3-0.4-2.7-0.5-4c0-0.6,0-1.1,0-1.7C724.1,30,722.2,25,724.8,20.3z"/>
		<path class="st8" d="M675.9,39c-29.3-0.1-58.6-0.2-87.9-0.2c-24,0-47.9,0.1-71.9-0.1c-4.4,0-7.2,0.6-7.1,5.6
			c-0.3-0.2-0.6-0.4-0.7-0.7c-1-3.2-3.5-4.5-6.3-3.9c-2.8,0.5-1.3,3.6-2,5.4c-0.2,3.3-1.7,4.1-5,4C431.5,49,368,49,304.6,49
			c-2.2,0-4.3,0.1-6.5,0.2c-0.3-2.7,1.9-2.2,3.3-2.4c2.4-0.4,4.9,0.1,7.6-0.4c-0.7-3.1-2.9-5.9-0.7-9c2.1-2.3,4.8-2.8,7.7-2.8
			c50.3,0.1,100.5-0.4,150.8,0c9,0.1,18,0.1,27,0c1.3,0,2.7,0.1,3.8-0.8c4.5-2.6,8.8-1.5,13.2,0.3c2.5,3,6,2.4,9.3,2.4
			c49.3,0,98.6,0,147.8,0.1c3.1,0,6.4-0.8,9,1.7C677,39,676.7,39.3,675.9,39z"/>
		<path class="st9" d="M295.1,119.8c-7.7-2.9-14.7,1.3-22.1,2.1c-1.1-3.6-0.4-7.2-0.5-10.8c-0.1-11.1,0-22.2,0-33.3
			c0-6,0.3-6.5,6.3-8.2c3-0.9,6.1-1.6,9.2-1.9c2.7-0.2,5.2-0.9,7.6-1.9c1.6,1,1.3,2.5,1.2,4c-0.9,8.6,0.2,17.1-0.3,25.7
			c-0.1,1.7,0,3.3,1.4,4.5c0,0.3,0,0.7,0,1c-0.9,4.4-1.1,8.8-1.5,13.2C296.3,116.1,296.6,118.2,295.1,119.8z"/>
		<path class="st10" d="M308,39c1.4,1.4-0.1,3.5,1.4,5c0.9,0.9,3,1.8,1.8,3.5c-0.9,1.2-2.8,0.3-4.2,0.6c-3,0.5-6.2-1.2-8.9,1.2
			c-0.1,3.3-0.1,6.5-0.2,9.8c-0.8,1.1-0.2,3.6-2.9,3c-6.6,1.3-13.2,2.7-19.9,4c-0.8,0.2-1.9,0.3-2.5-0.1c-6.5-4.4-12.6,0-18.7,1.1
			c-10.7,2-21.1,5.5-31.9,7c-1.4-2.6-2.1-5,1-7c3-0.7,6.2-0.7,9.1-2c8.8-5.3,19-5,28.5-7.3c0.3-0.1,0.9,0,0.8-0.2
			c-1.2-2.6-0.7-3.9,1.6-3.2c5.1,1.5,9.1-0.7,13.3-2.5c2.7-1,5.6-0.3,8.7-1.2c-15.8-0.3-31.2-0.1-46.6-0.2c-2.4,0-5.1,0.5-6.6-2.3
			c1.5-1.7,3.4-1,5.1-1c13.6-0.1,27.2,0,40.8,0c1.4-1.2,3.1-1.3,4.8-1.4c2.1-0.1,4.3-0.1,6.4,0c5,0.3,9.4-0.2,12.8-4.6
			C303.2,39.5,305.3,37.6,308,39z"/>
		<path class="st11" d="M295,62c1.5-0.5,1.7-2.2,2.9-3c0,1.7,0,3.3,0,5c-0.7,0.7-1,1.6-1.9,2c-1.2,1.5-1.8,3.3-4.5,3.1
			c-4.8-0.4-9.4,1.5-14,2.4c-3.9,0.8-4.6,2.7-4.6,6.1c0.1,14.7,0.1,29.5,0.1,44.2c-1.6-1.3-1-3.1-1-4.6c0-13.8,0.1-27.6-0.1-41.4
			c0-4.5,1-7.5,6.1-8.5c4.4-0.8,8.6-2.4,13.1-2.3C293.3,65,294.8,64.4,295,62z"/>
		<path class="st12" d="M296,66c0-1.2,0.6-1.9,1.9-2c0,12,0,24,0,36c-3,0.2-3.1-1.8-2.9-3.9C295.8,86,294,76,296,66z"/>
		<path class="st13" d="M500,45.1c-1.7-2.1-1.6-4.4,0-6.3c2.2-2.8,4.5,0.5,6.8,0.5c3.5,0,1.5,3.3,2.3,5.1
			C506.1,46.1,503,44.7,500,45.1z"/>
		<path class="st14" d="M295.1,119.8c-0.4-6.5,0.3-12.8,2.8-18.9c0,6.3,0,12.7,0,19C297,119.9,296,119.9,295.1,119.8z"/>
		<path class="st15" d="M724.9,41c0.1,0.3,0.1,0.6-0.1,1c-11.1,0-22.2,0.1-33.3,0.1c-1.3,0-2.7,0.2-3.6-1.1c0.2-0.2,0.5-0.4,0.7-0.6
			c9.7-1.5,19.4-0.4,29.1-0.8C720.2,39.5,722.8,39.2,724.9,41z"/>
		<path class="st15" d="M675.9,39c0.3,0,0.7,0,1,0c3.5-0.6,7.1-0.7,10.6,0.4c0.5,0.3,0.7,0.8,0.6,1.4l-0.1,0.1c-3.1,0-6.3,0-9.4,0
			C677.2,41,675.8,41,675.9,39z"/>
		<path class="st16" d="M198,61c0.8,1.2,1.9,0.6,3.1,0.6c1.4,0,3.3-0.1,2.9,2.4c-1.7,1.6-3.9,1.1-6,1.3c-1.4,0.1-3.5-0.7-3.7,1.9
			c0.4,4-0.8,7.8-0.9,11.8c-0.2,1.7,0,3.5-1.6,4.6l-0.4,0.2l-0.4-0.1c-0.9-0.8-0.9-2.4-3.2-1.9c-2.8,0.7-5.4,2.2-8.3,2.4
			c-0.2-0.1-0.4-0.2-0.6-0.3c-0.2-0.4-0.4-0.9-0.4-1.3c0.5-2,2.2-2.8,3.8-3.7c7.3-3.9,7.3-3.8,6-11.5c-4.3-2.3-8.5-1.8-12.8,0
			c-2.2,2-3,0.2-3.7-1.4c-0.2-0.4-0.4-0.8-0.6-1.1c-3-3-6-6.1-9.1-9.1c-0.1-4.3,0.5-5,4.7-3.9c5.4,1.5,10.2,1.2,14.1-3.3
			c4.4-0.9,8.7-1.5,11.4,3.3c0.6,1.1,1.6,1.1,2.5,1c1.5-0.2,2.9-0.4,4.2,0.7c1.1,1.2,1.3,2.6,0.7,4.1c-2.5,2.7-5.8,0.7-8.5,1.6
			c1.2,0.3,2.6-0.1,4,0C196.3,59.5,197.4,59.9,198,61z"/>
		<path class="st17" d="M26.1,53c1.1-0.2,2.8,0.2,2.8-1.3c0-5,3.5-3.5,6.2-3.7c3.5,5.2,5.7,5.2,10.8,0.1c6.8-1.7,13.5,0.1,20.3,0.1
			c0.4,12.6,0.5,11-10.8,11c-5.6,0-11.3,0.1-16.9,0c-2.6-0.1-3.5,0.8-3.4,3.4c0.2,3.8,0,7.6-0.1,11.4c-0.6,0.6-1.4,0.7-2.1,0.4
			c-2.4-1.6-4.6-3.5-5.7-6.3c-0.6-3.2-0.6-6.5-1.8-9.6C24.6,56.7,24.5,54.7,26.1,53z"/>
		<path class="st18" d="M181.1,49.1c-2.3,4.7-7.7,6.6-14.5,4.1c-3.5-1.3-4,0.2-4.5,2.8c-8.3,0.1-16.6,0.1-24.9,0.1
			c-1.1,0-2.4,0.2-3.1-1.1c-0.8-3.9-3.8-4.6-7.1-4.9c-0.6-0.4-1.2-0.9-1.9-1.3c0.9-1.7,1.8-2.4,4.1-2.5c12.6-0.6,25.2,0,37.8-0.2
			c-0.4,2.9-2.6,3.2-4.8,3c-7.4-0.4-14.8,0.6-20.1-0.5c9.8,0.2,21.6,1.6,33.3-0.6C177.4,47.6,179.5,47.4,181.1,49.1z"/>
		<path class="st19" d="M2,85.1C3.7,80.5,5.6,76,5.3,71c2.9-4.7,6.9-1.9,10.6-1.6c0.5,0.4,1.1,1,0.9,1.6c-0.7,2,0.8,0.6,1.2,0.9
			c2,4.2,2.7,8.7,3.4,13.2c-5.2,0.8-10.4,1.5-15.6,2.4C3.6,87.9,2.8,86.6,2,85.1z"/>
		<path class="st20" d="M21.3,85.1c-3.3-3.8-2.4-8.9-4.2-13.1c-1.9-3.1-0.8-6.8-2.1-10.1c-0.3-0.8-0.5-1.6-0.3-2.4
			c0.1-8,0-16,0-23.9c0-3.8,0-7.6,0-11.4c0-1.8,0.1-3.6,1.4-5.1c1.2-2.3-1-6.5,3.7-6.9c1.9,1.4,1.8,3.5,1.5,5.4
			c-1.2,9-0.8,18.1-0.7,27.1c-0.4,10.1-0.4,20.2,1.1,30.2c0.6,1.8,1,3.7,1.6,5.5c0.4,1.5,0.9,3.1-0.3,4.5C22.5,85,21.9,85,21.3,85.1
			z"/>
		<path class="st21" d="M179,83c0,0.3,0,0.7,0,1c0.3,4.4-2.2,7.7-4.9,10.4c-5.5,5.4-5.6,10.7-1.3,16.6c0,0.8,0,1.6,0,2.4
			c-0.2,5.4-0.5,5.6-6.1,3.8c-4.6-3.7-7.6-4.6-11.6-3.3c-2.2-0.1-4.2-0.7-5.9-2c-0.3-0.9,0.3-1.4,1-1.8c2.9-1.1,5.6-2.9,9-1.4
			c2.2,1,2.6-0.8,2.3-2.5c-0.9-5,1.4-8.3,5.4-10.8c2.5-1.6,3.3-4.4,4.8-6.8C173.2,85.8,174.3,81.9,179,83z"/>
		<path class="st22" d="M23.1,84.9c-0.3-1.4-0.6-2.7-0.8-4.1c0.1-3.4,1.2-5.7,5.2-5.6c1.9,0,3.7-1.4,5.8-1.3c0.6,0,1.2,0,1.9,0
			c1.1,0.7,2.2,1.4,3.3,2.1c1.6,1,4.2,1.4,3.7,3.9c-0.4,2.3-2.9,2.7-4.7,3C32.6,83.9,27.8,84.3,23.1,84.9z"/>
		<path class="st23" d="M150,110.9c-0.3,0.3-0.6,0.6-0.8,0.9c-2.4-1.8-0.5-3.6,0.1-5.2c3.3-8,7.8-15.4,13.3-22.1
			c4.8-5.8,8-12,8.5-19.5c0.3-0.1,0.6,0,0.9,0c2.7,6.9,0.7,12.7-3.8,18.3c-5.7,7-10,14.9-14,22.9C153.2,108.2,152.1,110,150,110.9z"
			/>
		<path class="st16" d="M172.8,110.9c-5.7-4.5-6.4-9.5-1.7-14.5c3.4-3.7,5.8-8,7.9-12.4h0.1c2.9,0.9,3.8,3.5,4.9,5.9
			c-0.1,1.7,0.8,3.6-0.9,5c-8.7,0.7-9.9,2.3-9.9,13C173,108.9,172.9,109.9,172.8,110.9z"/>
		<path class="st24" d="M173.1,108c-2.5-4.5-1.1-8.9,1.5-12.5c2-2.9,5.5-2,8.5-0.5C178.5,98.4,175.1,102.6,173.1,108z"/>
		<path class="st25" d="M184,89.9c-1.6-2-3.2-4-4.9-5.9c2.9-1.4,5.7-2.9,9.2-3.2c3-0.3,2.8,1.1,2.7,3
			C186.3,83.1,184.4,85.7,184,89.9z"/>
		<path class="st26" d="M191.9,83.6c0.1-1.6,0.2-3.2,0.3-4.8c4.3,3.9,9.4,4.3,14.7,3.5c1.1-0.2,2.3-0.3,3.2,0.8
			c0.3,0.4,0.7,0.8,1,1.2c-5.3,3.1-10.6,3.1-16,0.4C194.1,84.2,193,84,191.9,83.6z"/>
		<path class="st27" d="M155.1,113.8c0.2-1.2-0.3-2.7,2-2.4c4.2,0.6,7.6,2.6,11,4.9c0.4,0.3-0.8,0.5-1.3,0.8
			C162.8,116,159,114.9,155.1,113.8z"/>
		<path class="st2" d="M127,50.1c3.7-2.7,5.8,0.7,8.2,2.3c1.7,1.1-0.9,1.6-1.1,2.6C131.5,53.7,129.1,52,127,50.1z"/>
		<path class="st28" d="M217.1,83c1-0.3,1.4-3.3,3.1-0.7c-1.6,3-3.2,5.9-4.9,8.9C214.1,87.8,216,85.5,217.1,83z"/>
		<path class="st29" d="M161,12.1c1.3,0,2.7,0,4,0c2.6,2.4,5.3,0,7.9,0.1c0.7,0,1.4,0,2.1,0c2,1.5,4,1.1,5.9,0
			c14-0.1,27.9-0.2,41.9-0.3c8.7,2.2,17.5,0.5,26.2,0.6c5.7,0.1,11.5,0.3,17.2-0.9c0.5-0.1,1-0.2,1.5-0.2c3.6,0.9,7.7,0.1,11,2.4
			c2.1,1.5,5.8,3,1.1,5.9c-1.3,0.8-0.5,3.4-2.8,3.4c-2.1,0.5-4.3,0.4-6.5,0.4c-35.1,0-70.2,0-105.3,0c-2.8,0-5.7,0.5-8.2-1.5
			c-0.3,0.4-0.9,0.8-0.9,1.1c1.1,6.7-2.7,7-7.9,6.7c-13.6-0.6-27.2,0.3-40.8-0.6c-6.8-0.5-13.8,0.9-20.7,0.3
			c-3.9-0.4-7.8,0.2-12.5-0.4c2.1-3,4.6-3.6,7.2-3.1c4.8,0.9,8.4-0.8,11.7-4c2.1-1.6,4.8-2,6.7-3.9c1.9-1.3,1-3.7,2.2-5.2
			c2.9-1.1,5.9-1.5,9-0.8c7.4,1.5,14.8,0.7,22.2,0.7c7.5,0,14.9,0.6,22.4,0.2C157.6,13,159.5,13.5,161,12.1z"/>
		<path class="st30" d="M157.1,22.2c38.1,0,76.3-0.1,114.4-0.1c2.5,0,5-0.1,7.5-0.2c1.6-1.5,3.6-1.5,5.6-1.4c6.7,0.3,13.4-1,20,0.9
			c1.7,1.6,1.7,3.2,0.2,4.9c-1.3,0.9-2.7,1-4.2,1c-1.1,0-2.2,0-3.3-0.2c-0.6-0.1-1.1-0.2-1.7-0.3c-0.8-0.2-1.7-0.4-2.6-0.3
			c-6.6,1.5-13.3,1-19.9,1c-22.4-0.2-44.9,0-67.3-0.1c-1.8,0-3.7-0.1-5.4,0.4c-2.5,0.2-4.9,0.2-7.4,0c-11.7-0.8-23.3-0.7-35,0.1
			C156,26.4,157.5,24.1,157.1,22.2z"/>
		<path class="st31" d="M181.1,49.1c-5.2-1.1-9.9,2-15.3,1.3c-9.1-1.1-18.4,0.1-27.5-2.3c7.5,0,15,0,22.5,0c2.3,0,4.7,0,6.4-2
			c1.7,0,3.3,0,5,0c2.7-1,5.3,1.7,8,0c7.2,0.4,14.4-3.5,21.9,0.4c2.5,1.3,6.9,2.5,10-1c1-1.1,2.3,0,3,0.7c0.8,0.8-0.9,1.1-0.9,1.8
			c0,0.5-1.3,0.6-0.8,0.8c2.9,1.2,3.9,3.2,3.3,6.2c-0.3,1.8,0.4,3.5,0.6,5.3c0.1,1.8,0.1,3.6-2,4.6c-2.7,0-5.4,0-8,0
			c6.7-1.5,6.7-1.5,3.9-5.9c-0.1-3.6-1.8-5.4-5.6-5.2c-2.4,0.1-4.9-1.1-7.3,0.1c-2.3-0.7-4.8,1.8-7.1-0.5
			C186.5,49.1,186.4,49.1,181.1,49.1z"/>
		<path class="st32" d="M68,29.7c-12.4,0.1-24.9,0.2-37.3,0.3c-1.8,0-3.6,0.2-5.5,0.3c-2.1-3.3,0.4-6.4,0.3-9.7
			c0.2-0.5,0.6-0.9,1.1-1.2c1.7-0.7,3.5-0.6,5.2-0.2c2.8,1.1,5.7,1.4,8.7,1.4c9.4,0,18.8,0,28.2,0c1.8,0,3.6,0,5.4,0.6
			c2.6,2.1,0.2,3.1-1.1,3.9c-3.4,2.2-7.2,3.2-11.2,2.9C63.7,28.8,66.6,26.6,68,29.7z"/>
		<path class="st33" d="M26,20.9c1.5,3.3-1.2,6.1-0.8,9.3c0.1,5.3-1,10.5,0,15.7c0.6,2.5,0.3,5-1.2,7c-2.4,3-0.3,7.3-3.7,10.9
			c-1.3-6.7,0-12.9-1-18.8c-0.7-11,0.3-21.9,0.6-32.9h0.5c3.1-1,6.3-0.3,9.5-0.4c1.8,1.5,1.6,3.3,0.6,5.1c-1.8,1.4-3.6-1.4-5.8,0.2
			C24.8,18.2,25.5,19.6,26,20.9z"/>
		<path class="st34" d="M199.9,26.9c1.4-1.3,3.2-0.8,4.8-0.8c27.2-0.1,54.4-0.1,81.6-0.2c2.9,0,5.9-0.5,8.8-0.7
			c-0.7,2-1.8,3.9-2.1,6c-2.8,0-4.7,0.9-4.9,4c-2,1.4-3.2-0.8-4.9-0.9c-0.6-0.3-1-0.7-1.1-1.4c-0.5-0.8-1.3-0.8-2.1-1
			c-2.9-0.8-5.8-0.9-8.8-1c-1.1,0-2.3,0.1-3.1-1.2c-0.5-0.7,0.8-1.2,0.3-1.1c-5.8,1.6-11.6,0.3-17.4,0.6c-1.8,0.1-3.6,0.6-5.4,0.8
			c-0.8,0.1-1.7,0.1-2.5-0.1c-3.1-1-6.4-0.7-9.6-0.7c-2.4,0.3-4.9,0.1-7.3-0.2c-6.6-1.2-13.3-0.6-20-0.8c-1.1,0-2.1,0.2-3.2,0.3
			C201.6,28.8,200.4,28.5,199.9,26.9z"/>
		<path class="st35" d="M232.1,66.1c-2.9,1.2-5.8,2.8-9,0.9c-0.5-2.7,1.9-4.5,2-7c2.2-3.4,2.3-7.8,5.2-10.9c0.6-0.4,1.2-0.7,1.8-1.1
			c2,1.2,4.2,1,6.3,1c14.5,0,29,0,43.5,0c2.5,0,5,0.1,7.3,1.4c-3.9,3.1-8.7,1.9-13.1,2.6c-13.2-1.3-26.4-0.4-39.6-0.5
			c-2.2,0-3.7,1.3-4.6,3.2c-1.4,2.6-2.7,5.3-4.2,8.3C229.3,64.3,231.2,64.3,232.1,66.1z"/>
		<path class="st36" d="M19.3,45c1.9,5.5,0,11.4,1.2,17.3c1.2-4.4-0.6-9.4,4-12.5c0.7-0.5,0.5-2.5,0.7-3.8c1.9,2.1,0.5,4.7,0.9,7
			c-0.6,5.5,3.8,10.4,2,16c-1.9,2.8-4.4,5-7,7C18.1,65.8,19.2,55.4,19.3,45z"/>
		<path class="st37" d="M68,29.7c-2.4-1.5-5.2-0.1-8.8-1.2c5.9-2.3,11.9-2.2,15.9-6.4c6.3-2.6,12.6-2.5,19-0.1
			c-2.1,4.1-6.7,6.7-10.7,5.5c-2.6-0.7-4.8-0.4-7.4,1c3.8,1.3,7.6-0.4,11,1.1C80.6,30.2,74.3,30,68,29.7z"/>
		<path class="st38" d="M282.1,33c0.3,0.3,0.6,0.7,0.9,1c1.7,1,2.2,2.5,1.6,4.3c-1,2.8-0.9,5.9-1.6,8.8c-1.7,0-3.4,0-5.1,0
			c0.7-2.2,1.2-4.5,2.2-6.6c1.7-3.9-0.2-4.4-3.6-4.4c-17.5,0.1-34.9,0-52.4,0c-1.6,0-3.3,0-5.2,0c1.1-1.7,2.5-1,3.6-1
			c16.5-0.1,32.9-0.1,49.4,0C275.5,35.1,278.9,34.4,282.1,33z"/>
		<path class="st39" d="M245.1,29.1c7.5-2.2,15.4-1.9,22.6-0.5c3.9,0.7,8.8,0.4,12.3,3.4c-11.3,0.3-22.5,0.7-33.8,1
			c-1.6,0-3.9,1.1-4.2-2c0.8-0.9,1.8-0.9,2.8-0.6c0.7,0.1,1.5,0.1,2.2,0.3c3.3,1,6.6-0.5,9.9,0.4c0.3,0.1,0.6,0.2,0.9,0.3
			c-0.1-0.3-0.4-0.2-0.6-0.4c-3.9-1.5-8.1,0.9-12-0.7C244.8,30,244.7,29.6,245.1,29.1z"/>
		<path class="st40" d="M158.1,28c0-1.6,1-1.8,2.3-1.8c10.5,0,21,0,31.5,0c0.4,0,0.8,0.5,1.2,0.7c0.5,0.8,0.6,1.6-0.1,2.3
			c-10.1,0-20.2,0-30.2,0C161.1,29.1,159.5,29.2,158.1,28z"/>
		<path class="st41" d="M198.1,54c0.3-0.5,0.5-1.4,0.9-1.6c3.4-1.1,6.8,0.3,10.1,0.6c2.6,0.3,4.4,3,1.9,6.1c-0.7,0-1.3,0-2,0
			c-2.8,2.3-6.2-0.7-9,0.9c-0.7,0.3-1.3,0.7-2,1c-1-0.4-2-0.7-3-1.1c0.3-2.7,3-0.6,4-1.9C198.9,56.6,199.5,55.1,198.1,54z"/>
		<path class="st42" d="M205.1,27.1c7.3,0.4,14.6-0.9,21.8,1c0.7,0.5,0.7,1.1,0.5,1.8c-2.9,0.2,0.6,1.5-0.3,2
			c-3.8,0.4-7.5-0.2-11.1-1.8c-2.3-1.1-4.7-1-7.1-1.2C207.4,28.9,205.3,29.7,205.1,27.1z"/>
		<path class="st43" d="M227.1,30c0-0.6-0.1-1.2-0.1-1.9c2.1,0,4.3,0.1,6.4,0.1c3.1,1.4,6.4,0.4,9.6,0.9c0.7,0,1.4,0,2.1,0
			c0,0.3,0,0.6,0,0.9c0.4,0.2,0.5,0.5,0.3,0.7c-0.1,0.2-0.2,0.3-0.4,0.3c-1,0-2,0-3,0c-2.9,1.8-5.8,2.8-9.1,1.2
			C231.4,30.4,228.2,32.9,227.1,30z"/>
		<path class="st44" d="M215.2,64.9c1.6-3.8,1-7.8,0.7-11.7c-0.2-3.1-3-4-5.7-4.9c1.3-0.1,2.6-0.2,4-0.2c3,1.8,4.5,3.8,3.2,7.7
			c-0.8,2.5,2.1,4.9,0.9,8C217.4,65.9,216.8,66,215.2,64.9z"/>
		<path class="st40" d="M205.1,27.1c3.3,2.2,8-0.5,10.9,3.1c-5.4-0.9-10.9,0.7-16.2-1c0.8-1.3,2.4-0.1,3.2-1.1
			C203.5,27.3,204.3,27.1,205.1,27.1z"/>
		<path class="st31" d="M204,65.8c-0.2,0.3-0.4,0.5-0.8,0.5c-2.5,0.1-1.6,3-3.3,3.8c-0.6-3.9-2.7-5.5-6.6-4c-2-2-0.1-2.1,1.2-2.1
			c3.2-0.1,6.3,0,9.5,0C204,64.6,204,65.2,204,65.8z"/>
		<path class="st45" d="M230.2,49.1c-1.4,3.8-2.4,7.8-5.2,10.9c0.6-4.7,3.5-8.8,4-13.7C229.5,47.2,229.9,48.1,230.2,49.1z"/>
		<path class="st46" d="M203,28.1c-0.8,1.2-2.1,0.9-3.2,1.1c-2.3,0-4.5,0-6.8,0c0-0.8,0.1-1.5,0.1-2.3c2.2,0,4.5,0,6.7,0.1
			C200.9,27.3,202,27.7,203,28.1z"/>
		<path class="st47" d="M36,37.7c-0.2,1-0.7,1.9-1.8,1.9c-1.7,0-2-1.4-2-2.8c0-1.2,0.7-1.8,1.9-1.6C35.3,35.5,36,36.4,36,37.7z"/>
		<path class="st18" d="M180,46c-2.7,4.5-5.3,0.1-8,0C174.7,44.2,177.4,44.9,180,46z"/>
		<path class="st48" d="M75.7,39.5c-1.3-0.4-2.1-1.1-2.3-2.4c-0.1-1,0.6-1.6,1.4-1.7c1.1-0.2,1.8,0.6,2.1,1.7
			C77.2,38.2,76.6,39,75.7,39.5z"/>
		<path class="st31" d="M200,60c2.8-1.9,6-0.6,9-0.9C206.5,63.9,203,59,200,60z"/>
		<path class="st49" d="M227.1,30c1.8,1.7,4.2,0.5,6.2,1.5c0.1,0,0,0.3,0,0.4c-0.1,0.1-0.2,0.2-0.3,0.4c-2-0.1-3.9-0.2-5.9-0.3
			c-0.4-0.5-0.9-1.1-1.3-1.6C226.2,30.2,226.6,30.1,227.1,30z"/>
		<path class="st50" d="M213,2.1c16.2-0.7,32.5-1.2,48.8-0.4c8.3,0.4,16.8-0.4,25.2-0.3c20-0.1,40-0.3,60-0.1
			c19.6,0.2,39.2,0,58.7,0c10.8,0,21.5,0.5,32.3-0.1c1.9-0.1,3.9,0.6,5.9,0.9c0.7,0.6,1.4,1.2,2.1,1.8c0.2,2.1-1.5,2-2.8,2.3
			c-4,0.2-8,0.2-12,0.1c-3.4-0.1-5.5,1.1-5.6,4.7c-0.1,0.5-0.4,1-0.8,1.4c-1.3,0.7-2.5,0.7-3.8,0c-1.8-1.5,0.4-5.2-2.8-5.8
			c-3.7-0.7-7.6-0.7-11.4,0c-2.5,0.5-1.8,3.2-2.6,4.9c-1.2,1.5-2.6,1.5-4.1,0.7c-1.8-1.5,0.2-5.1-2.9-5.6c-3.5-0.7-7.2-0.6-10.7,0
			c-2.4,0.4-2.1,3.2-3.4,4.5c-2,0.8-2.9-0.5-3.8-1.8C377.2,6.6,367,5,364.6,7c-1.7,1.4-0.2,3.9-1.8,5.4c-1.6,0.8-3.1,0.7-4.2-0.8
			c-0.3-3.3-1.4-5.4-5.4-5.4c-8.9,0-8.9-0.3-10.6,5.3c-1.8,1.8-3.3,1.4-4.5-0.7c-0.7-4.9-1.9-4.5-11.3-4.5c-3.9,0-4,2.6-4.4,5.2
			c-1.1,1.6-2.5,1.6-4.1,1c-1.1-0.8-0.9-2-1-3.1c-0.1-0.8-0.1-1.9-0.9-2.2c-3.9-1.7-8.1-0.9-12.1-0.6c-3.1,0.2-2.1,3.2-2.9,5.1
			c-1.2,1.5-2.7,1.6-4.3,0.8c-1.9-6-1.9-6-8.5-6c-1.7,0-3.3,0-5,0c-3,0.1-6,0-9,0.1c-2.4,0-4.5,0.2-5.3,3.3c-0.7,2.8-2.1,1.7-3.3,0
			c-3.4-4.5-5.3-4.5-8.1,0.1c-1,1.7-2.5,2.4-4.1,2.3c-9.8-0.4-19.6,1.1-29.3-0.6c-1.8-1.1-0.2-3.3-1.5-4.5c-1.8-0.1-3.7-0.4-5.4-0.1
			C213.3,7.7,212.3,5.8,213,2.1z"/>
		<path class="st51" d="M424.9,11.8c-0.1-0.3-0.1-0.5,0.1-0.7c2.5-0.8,4.9-0.3,7.4,0.3c2.6,4,6.7,2.1,10,2.2c-0.2-0.4-2.2,0-1.5-1.7
			c0.6-0.5,1.2-0.7,2-0.8c1-0.1,1.9,0.1,2.8,0.5c1.8,1.6,3.9,1.7,6.1,1.5c4.8-0.6,9.5,1,14.3-0.3c2.6-0.7,5.4,0.9,7.9-0.7
			c1.4,0,2.7,0.1,4.1,0.1c4.6,0.9,9.2,0.1,13.8,0.4c1.8,0.1,3.6-0.6,5.3,0.6c0.3,1.4,3.7-1.3,2.6,2c-0.9,1.5-0.5,3.2-0.4,4.8
			c0.2,2.2-0.5,3.9-2.7,4.7c-0.8,0.1-1.4-0.2-1.9-0.7c-1.4-3.8-4.5-3.9-7.8-3.4c-0.8,0.1-1.7,0.5-1.7,1.5s1,1.2,1.8,1.5
			c2.7,1,6-1.3,8.5,1.4c0.7,2.3-0.1,4-2.2,5.1c-1.1,0.4-2.3,0.5-3.4,0.5c-22.9,0-45.8,0.2-68.7-0.1c-1.5-0.5-3.9-1.3-1.6-2.9
			c3.5-2.5-1.4-1.2-0.7-2.1c-0.7-2-0.2-4.1-0.7-6.2c0-0.5,0.1-1,0.2-1.4C418.7,13.7,422.5,13.6,424.9,11.8z"/>
		<path class="st52" d="M496.9,24.1c0.7-1.3,1.8-2.4,1.2-4.3c-0.6-1.7-0.3-3.5,1.6-4.6c0.1,0.7,0.2,1.3,0.3,2
			c2.2,4.9,4.3,5.1,8.9,1.1c0.6,4.9,3.9,5,7.9,5c50.1-0.1,100.2-0.1,150.3,0.1c7.1,0,13.6-3.8,20.8-2.2c0.3,0.5,0.2,1-0.2,1.4
			c-0.6,0.5-1.4,0.7-2.1,0.8c-3.5-0.2-6.9,0.5-9.9,2.3c-0.9,0-1.7,0-2.6,0.1c-50.9,0.1-101.9,0-152.8,0c-2,0-4,0.1-6-0.1
			c-1.1-0.1-2.3,0.1-3.4,0.1c-3,0.8-6.2,0.2-9.2,1.5c-0.7,0.6-1,1.5-1.7,2.1c-0.8,0.2-1.3-0.2-1.7-0.8
			C497.9,27,496.5,25.8,496.9,24.1z"/>
		<path class="st53" d="M687.8,21.9c0-0.3,0.1-0.6,0.1-0.9c1.7-1.5,3.8-0.9,5.7-0.9c10.4,0,20.8,0,31.2,0.1c0,5.3,0,10.5,0.1,15.8
			c-3-0.8-2.3-3.3-2.3-5.3c-0.1-3.1-1.3-4.1-4.4-3.6c-2.6,0.4-5.3,0.4-8-0.1c-0.5-0.1-1-0.3-1.4-0.6c-4.1-3.6-8.9-2-13.5-1.7
			c-1.2,0.3-2.5,0.7-3.7,1C688.7,26,687.6,24.6,687.8,21.9z"/>
		<path class="st54" d="M446,12.2c-1,0-2-0.1-3-0.1c-1.8-2.3-1.8-4.7,0-7c1.1-0.1,2.4,0.2,3-1.1c3.3,2.4,6.6,4.7,9.9,7.1
			C453,14.9,449.4,13,446,12.2z"/>
		<path class="st55" d="M446,12.2c3.3-0.7,6.8,0.6,10-1.1c0.7,0.3,1.4,0.7,2,1c2.5,1.4,5.4-0.5,7.9,1.1c0.2,0.6,0.5,1.7,0,1.6
			c-6.3-1.7-12.7-0.1-19-0.7C445.4,14,445.5,13.3,446,12.2z"/>
		<path class="st56" d="M508.9,18.3c0.5,6.1-4.3,3.6-6.8,3.8c-4.2,0.3-1.3-3.3-2.1-4.9C502.7,18.9,505.9,17.6,508.9,18.3z"/>
		<path class="st57" d="M497.1,13.2c-4.6,0-9.3,0-13.9-0.1c-1.7,0-3.7,0.6-5.2-0.9c6.2,0,12.5-0.1,18.7-0.1c0.1,0,0.4,0.2,0.4,0.3
			C497.2,12.6,497.1,12.9,497.1,13.2z"/>
		<path class="st58" d="M465.9,13.2c-2.6-0.6-5.5,0.6-7.9-1.1c5.3,0,10.6,0,16,0C471.7,15.1,468.5,12.2,465.9,13.2z"/>
		<path class="st59" d="M102.1,13c0.2,2.1,1.1,4.4-1.1,6c-20,1.2-40.1,0.4-60.2,0.6c-3.5,0-7.1,0.3-9.3-3.4
			c-0.5-1.2-0.4-2.3-0.3-3.6c0.2-0.6,0.4-1.1,0.8-1.6c-0.1-1.5-0.3-3.1,1.9-3.2c0.9,0.3,1.5,0.8,1.8,1.6c0.7,2.4,1.8,4.2,4.8,3.9
			c18.6-1.4,37.2-0.2,55.8-0.9c1.9,0.3,3.7-0.8,5.5-0.3C102.1,12.4,102.2,12.7,102.1,13z"/>
		<path class="st60" d="M35.1,9.1c-0.4-0.4-0.7-0.9-1.1-1.3c0.3-2.7,2.5-1.7,3.8-1.7C57.2,6,76.6,6.1,95.9,6c4.3,0,6.8,1.4,5.9,6.1
			c-1.3,0.2-2,3-3.9,0.9c-2.4-2.2-5.3-2.4-8.4-2.4c-15.7,0-31.3,0-47,0C40.1,10.6,37.3,11,35.1,9.1z"/>
		<path class="st61" d="M161,12.1c-0.2,2.6-2.3,2-3.8,2c-8.8-0.2-17.6-1-26.4-0.6c-4.9,0.2-9.7,0.4-14.6,0.3c-1.7,0-3.4-1-5.1-1.5
			C127.8,12.2,144.4,12.2,161,12.1z"/>
		<path class="st62" d="M223,7.2c1.9,0.8,0.6,2.7,1.2,3.9c11.4,0.8,22.8,1.1,34.2-0.2c3-0.3,6-0.9,8.5,1.3c-1.2,1.3-2.7,1.9-4.4,1.8
			c-9.3-0.8-18.6-0.2-27.9,0.3c-4.3,0.2-8-0.5-11.7-2.4C222.9,10.3,223,8.7,223,7.2z"/>
		<path class="st63" d="M173,12.2c-3,1-6,2-9,3c-0.4-1.7,0.8-2.2,1.1-3.1C167.7,12.1,170.3,12.2,173,12.2z"/>
		<path class="st64" d="M32.1,11c0,0.4-0.1,0.9-0.1,1.3c-0.6,0.4-1.2,0.3-1.8-0.2c-3.3,0-6.6,0-9.9-0.1c-0.1-0.3-0.2-0.5-0.2-0.8
			C24.1,11.2,28.1,11.1,32.1,11z"/>
		<path class="st65" d="M181,12.2c-2,2.2-3.9,3.6-5.9,0C177.1,12.2,179,12.2,181,12.2z"/>
		<path class="st66" d="M15.1,60.3c0.3,0.3,0.7,0.5,1,0.8c1,3,0.2,6-0.2,9c-3.5,0.7-7.3-1.7-10.7,0.9C4.6,65.8,5.9,60.8,6,55.7
			c0.2-11.6-1.1-23.1-2-34.6c5.6-3.2,11-0.6,11,5.5c0,3.4,0.6,6.8,0.6,10.3C15.3,44.6,16.2,52.5,15.1,60.3z"/>
		<path class="st67" d="M15.1,36c-0.3-2.3-0.9-4.5-1-6.8C13.8,21.8,11.7,20.1,4,21c-0.8-1.7-2.7-3.4-0.8-5.2
			c1.6-1.5,3.7-0.7,5.6,0.1c2.4,1.1,4.5,2.8,7.3,3.1c0,5.7,0,11.3,0,17C15.7,36.5,15.4,36.5,15.1,36z"/>
		<path class="st15" d="M709.9,26.1c2.6,0,5.4,0.5,7.8-0.3c5.8-1.9,6.7,0.8,6.3,5.6c-0.1,1.5-0.6,3.3,0.9,4.6c0,0.3,0,0.7-0.1,1
			c-4,4-8.9,2.4-13.6,1.9c-1.4-0.2-2.3-1.4-2.4-2.8C708.5,32.8,707.6,29.3,709.9,26.1z"/>
		<path class="st68" d="M709.9,26.1c0,13.3,1.7,14.5,14.9,10.9c0.5,1.3,0.4,2.6,0.1,4c-12.3-0.1-24.5-0.1-36.8-0.2
			c-0.1-0.3-0.2-0.5-0.2-0.8c-0.5-1.9-0.3-3.7,0.7-5.3c1.5-1.2,2-2.8,2-4.7c-0.1-1.8,0-3.6,1.3-5c0.7-1.2,2-0.6,3.1-1
			c2.7,0.4,2.2,2.6,2.3,4.2c0.1,3.4,0.7,7-1.3,10.2c-0.1,0.4,0.1,0.4,0.6,0.3c3.2-0.6,7.1,1.1,9.7-1.1c2.6-2.2,0.8-6,1.4-9
			c0.2-1,0.4-1.9,1.2-2.6C709.2,26.1,709.5,26.1,709.9,26.1z"/>
		<path class="st69" d="M283,47c-1.5-2.3-1.1-4.6-0.2-7c0.8-1.9,1.7-4,0.2-6c2.4-2.4,2.9,2.8,5.1,1.3c5.7,0.3,10.5-1.8,14.4-5.9
			c0.3-1.1,0.5-2.2,1.3-3.1c1.7-1,1.1-2.7,1.1-4.1c3.4,0.5,1.5,4.4,3.8,5.7c1.5,1.1,3.2,0.8,4.8,0.8c32.3,0,64.6,0.1,96.9,0
			c0.6-0.1,1.3-0.1,1.9,0c17.8,1.9,35.7,0.6,53.6,1c2.7,2.8,6.1,3.4,9.9,3.1c5.6-0.4,11.3,0.6,16.9-1c2.9-0.8,4.4,1.7,6.2,3.4
			c-0.1,0.8-0.2,1.6-1.4,1.6c-60.8-1.4-121.7-0.2-182.5-0.7c-2.9,0-5.1,1.1-7,3c-2.1,0.1-4.2,1.5-5,2.8c-3.6,6.5-9.5,5.1-15.1,5.2
			C286.3,47,284.7,47,283,47z"/>
		<path class="st13" d="M688.9,35c-0.3,1.7,0.7,3.6-1,5c-3.6-0.6-7.5,1.1-11-1c-1.8-1.8-4.1-1-6.2-1c-51.8-0.1-103.6,0-155.4,0
			c-2.9,0-6,0.5-5.4-4c-0.8-1.3-0.9-2.4,0.5-3.4c51.7,2.3,103.4,0.4,155.1,1c3,0,6,0.3,8.9-0.9c3.8,1.3,7.3,0.7,10.7-1.3
			c1.7-1,3.8-2.2,5.2,0.1C691.5,31.5,691.2,33.7,688.9,35z"/>
		<path class="st70" d="M510,31.1c0,1-0.1,1.9-0.1,2.9c-2.9,0-5.8,0.5-8.7-0.4c-1.5-0.5-2.1,0.1-2.3,1.5c-4.5-3.1-9.3-0.9-14-1
			c-5-0.1-10-0.2-14.9,0c-3.4,0.2-4.1-1-2.9-3.9c3.8-1.4,7.8-0.5,11.7-0.6c7.1-0.2,14.2,0.1,21.2-0.6c0.1-0.9,0.2-1.8,0.3-2.8
			c0.2,0,0.4-0.2,0.5-0.1c5.5,3.7,5.5,3.7,9.3-1.9c1,0,1.9,0,2.9,0c2.3,1.1,1.2,2.5,0.4,3.9c-0.5,0.5-1,0.8-1.6,1.2
			C511.1,29.8,510.5,30.5,510,31.1z"/>
		<path class="st71" d="M469.4,44.3c-2-0.8-5.4,1-5.4-1.9c0-2.2,3.3-1.3,5.1-1.2c1.9,0.1,5.4-1.3,5.4,1.4
			C474.5,45.4,470.9,43.2,469.4,44.3z"/>
		<path class="st71" d="M431.8,40.8c2.1,0.7,5.3-0.8,5.4,1.3c0.1,3-3.2,1.8-5.1,1.8c-2,0-5.4,1-5.4-1.6
			C426.8,39.6,430.3,41.9,431.8,40.8z"/>
		<path class="st71" d="M450.4,41c0.9,0,1.6,0,2.3,0c1.4,0.1,3.6-0.4,3.5,1.6c-0.1,1.8-2.3,1.3-3.7,1.4c-0.5,0-1,0.1-1.5,0
			c-1.9-0.3-5.3,1-5.3-1.8C445.7,40,449,41.5,450.4,41z"/>
		<path class="st71" d="M488.7,41c0.8,0,1.6,0,2.5,0c1.2,0.1,3-0.2,3,1.6c-0.1,1.4-1.6,1.3-2.8,1.3c-1.6,0-3.3,0-4.9,0
			c-1.3,0-3-0.1-2.9-1.8c0-1.6,1.7-1,2.8-1.2C487.1,41,487.9,41,488.7,41z"/>
		<path class="st71" d="M394.8,41c0.8,0,1.6,0,2.5,0c1.2,0.1,3-0.2,3,1.6c0,1.4-1.6,1.3-2.8,1.3c-1.6,0-3.3,0-4.9,0
			c-1.3,0-3-0.1-2.9-1.8c0-1.6,1.7-1,2.8-1.2C393.1,41,393.9,41,394.8,41z"/>
		<path class="st72" d="M356.7,44c-1.1,0-1.9,0.1-2.7,0c-0.9-0.1-2.2,0.3-2.4-1c-0.2-1.5,1.2-1.8,2.3-1.9c0.8-0.1,1.7-0.2,2.4,0
			c2,0.5,5.6-1.4,5.6,1.7C362,45.1,358.3,43.6,356.7,44z"/>
		<path class="st71" d="M375.7,44c-1.2,0-2,0.1-2.8,0c-0.9-0.1-2.2,0.2-2.3-1.1c-0.1-1.5,1.2-1.7,2.4-1.8c0.8-0.1,1.7-0.2,2.4,0
			c2,0.3,5.6-1,5.6,1.3C380.9,45.5,377.2,43.3,375.7,44z"/>
		<path class="st71" d="M413.3,41c1.1,0,1.9-0.1,2.7,0c0.9,0.1,2.2-0.3,2.4,1c0.2,1.5-1.2,1.8-2.3,1.9c-0.8,0.1-1.7,0.2-2.4,0
			c-2-0.5-5.6,1.4-5.6-1.7C408,40,411.6,41.5,413.3,41z"/>
		<path class="st73" d="M232.1,66.1c-2.2-0.6-4.3-1.9-7-0.1c2.2-4.4,4.4-8.7,6.5-13.1c0.8-1.6,2.1-1.9,3.7-1.9c12.4,0,24.9,0,37.3,0
			c1.5,0,3.1-0.1,3.4,2c-4,2.2-7.8,5-12.6,2.2c-0.8-0.4-2.3-0.2-2.5,0.9c-0.2,1.4,1.7,0.4,2.4,1.6c-7.8,2.4-15.6,4.7-23.6,5.1
			C236.3,62.9,235.6,67.4,232.1,66.1z"/>
		<path class="st74" d="M150,110.9c5-8.2,8.8-17,14.5-24.8c0.5-0.7,0.7-1.6,1.3-2.1c5.9-5.1,7.1-11.7,6.3-19
			c1.6-0.2,0.1,4.2,3.1,2.1c4.6-2,9.3-2.9,14-0.1c2.4,9,2.4,8.9-6.2,13.1c-1.5,0.7-3.1,1.2-3.9,2.9c-3.5,0.9-5.6,3.5-6.7,6.7
			c-1.2,3.5-3,6-6.2,7.9c-3.1,1.8-4.6,4.5-3.3,8.3c0.5,1.5,0.9,3.5-0.5,4.6c-1.3,1.1-2.8,0.2-4-0.7
			C155.1,107.2,152.9,111.7,150,110.9z"/>
		<path class="st75" d="M189.1,67c-4.7-2.1-9.3-0.7-14,0.1c0-0.4-0.2-1.2-0.1-1.2c5-1.7,10.1-1,15.1-0.4
			C191.4,65.6,190,66.7,189.1,67z"/>
		<path class="st31" d="M199,58c-0.8,1.6-3.1,0.4-4,1.9c-2.6,0.5-5.2,1.1-6.4-3.5C192.3,59.6,195.8,57.4,199,58z"/>
		<path class="st76" d="M21,76.1c1-3.7,3.7-5.7,7-7c2,1.3,3.7,2.9,5.1,4.9c-1.3,1.8-3.4,2.5-5.2,2.4c-3.4,0-4.7,1.8-5.7,4.5
			C21.8,79.2,21.4,77.6,21,76.1z"/>
		<path class="st77" d="M16,70.1c-1.4-3,1-6,0.2-9c1.7,3.5,0.8,7.3,1,10.9c-0.2,0.4-0.4,0.7-0.6,1.1C16.3,72.1,16.1,71.1,16,70.1z"
			/>
		<path class="st77" d="M15.1,36c0.3,0,0.7,0,1,0c0.4,7.5-0.5,15.1,0.6,22.7c0.2,1.1-0.7,1.3-1.5,1.6C15.1,52.2,15.1,44.1,15.1,36z"
			/>
		<path class="st78" d="M306.1,29c-0.6-2.3,1.1-4.9-1.1-6.9c-8.7-0.1-17.3-0.1-26-0.2c-0.8-0.5-1.6-1-2.6-1.6c1-2.1,4-0.6,4.9-3.1
			c-2.8-2.4-5.7-4.7-10.1-3.7c-1.2,0.3-2.2-0.3-3-1.3c3.2-2.5,6.9-1.4,10.5-1.6c1.8-0.1,3.6-0.2,5.4-0.3c4.3,0.7,9-0.8,13.1,1.8
			c1.3-0.4,3,0.6,4-1c5.7-0.6,11.4-1.5,16.9,1c1.3-0.5,3,0.4,4-1c5.6-1,11.3,0.1,16.9-1.1c0.5,2.5,1.6,2.6,3.3,0.9
			c1.1-0.1,1.8,0.4,2.1,1.5c0.1,0.9-0.8,2.4,0.7,2.4c3.2,0,6.5-1.5,9.4,1c3.7-4.2,4.8,1.4,7.2,2c0.6,0.2,0.7,1,0.1,1.6
			c-2.2,1.5-4.9,0.5-7.3,1.2c-1,0.3-2.1,0.5-1.9,1.8c0.1,1,1.1,1.1,1.9,1.2c4.5,1,6.2,0,7.5-4.5c0.6-0.7,1.9-1.1,2.1-0.6
			c1.5,3.4,4,2.3,6.4,1.8c1.2,2.4,3.1,3.5,5.8,3.4c1.7,0,3.6-0.2,4.9,1.4c-0.7,2.9-3.1,3-5.4,3.1c-4.4,0.2-8.7,0.9-13.1,0.9
			c-0.5,0.2-1,0.2-1.6,0.2c-7.4-0.4-14.9-0.9-22.3,0.1c-1.4,0.1-2.7,0.2-4-0.2c-5.4-0.3-10.8-0.6-16.2,0.2
			C314.4,29.3,310.2,30.1,306.1,29z"/>
		<path class="st79" d="M32,15.2c1.3,2.2,3.2,3,5.8,3C56.7,18.1,75.6,18,94.5,18c1.7,0,3.2-0.3,4.7-1.1c2.2-1,1.7,1,1.8,2.1
			c-2,1.6-4.1,3.2-6.9,3c-6.3,0-12.7,0-19,0.1c-12.6,0-25.1,0-37.7,0.1c-2.4,0-4.6-0.3-6.3-2.2C30.1,18.2,29.5,16.4,32,15.2z"/>
		<path class="st80" d="M284.2,11c-5.2,2.3-10.8,0.3-16.2,1.3c-0.4,0-0.7,0-1.1,0c-12.8,0-25.5-0.1-38.3-0.2c-1.5,0-3.3,0.9-4.5-1
			c9.6,0,19.2,0,28.8,0c1.5,0,4.1,0.6,3.8-1.8c-0.7-6.6,4.1-3.8,6.7-4c3-0.3,3.1,0.1,4.3,5.6c-1.1-7.1,3.7-5.7,7.4-5.7
			c3,0,6,0,8.9,0C285.5,7.1,285.6,9,284.2,11z"/>
		<path class="st81" d="M303.9,30c-4.6,3.6-8.8,8.7-15.8,5.3c-0.9-5.5-0.9-5.5,5.1-4.4c1-1.6,0.8-3.9,3-4.8c0.3,0.1,0.7,0.1,1,0.2
			c1.4,0.2,1.1,2.9,3.2,2.3C301.7,28.5,302.9,29,303.9,30z"/>
		<path class="st82" d="M303.9,30c-1.5,0.3-2.7-0.3-4-1c-0.8-0.9-0.8-1.8,0-2.7c1.3,0,2.6,0,3.9,0C303.9,27.5,303.9,28.7,303.9,30z"
			/>
		<path class="st83" d="M296.1,26c-1.6,1.3,0.2,4.6-3,4.8c-2.4-2.9-0.2-4.2,1.9-5.5C295.4,25.5,295.8,25.8,296.1,26z"/>
		<path class="st84" d="M299.9,26.3c0,0.9,0,1.8,0,2.7c-0.7,0.6-1.4,1.1-2.3,1.9c-0.3-1.8,0.9-3.5-0.5-4.7
			C298.1,26.2,299,26.2,299.9,26.3z"/>
		<path class="st85" d="M32,15.2c-1.5,1.4-0.6,3.2-0.8,4.8c-1.6,0-3.3,0-4.9,0c-1.3-3-0.3-4,2.8-3.1c2.4-1.1,0.4-3.3,1.3-4.8
			c0.6,0.1,1.2,0.2,1.8,0.2C32,13.3,32,14.3,32,15.2z"/>
		<path class="st86" d="M29,17c-2.2-0.1-3.2,0.8-2.8,3.1C26,20.4,26,20.7,26,21c-2.6-0.6-2.2-3-2.9-4.8C25.2,15.3,27.5,13.3,29,17z"
			/>
		<path class="st87" d="M200,70.1c1.1-1.3-2.1-6.2,3.3-3.8c-0.7,4.4,1.6,7.8,3.5,11.5C203.3,76.3,200.4,74.4,200,70.1z"/>
		<path class="st88" d="M21.1,33.7c0.2-1.2-0.1-3.1,1.7-2.9c1.7,0.2,1.3,2,1.3,3.3c0,1.1,0.2,2.7-1.4,2.6
			C20.7,36.8,21.3,35,21.1,33.7z"/>
		<path class="st89" d="M291.7,28.2c-4.9,1.2-8.4,1-12.2,0.4C282.2,26.6,285.1,26.4,291.7,28.2z"/>
		<path class="st90" d="M242.9,29.1c-3.3,0.5-6.7,2.2-9.6-0.9C236.5,28.3,239.9,27.2,242.9,29.1z"/>
		<path class="st91" d="M245,31.1c0-0.3,0-0.7,0-1c2.6,0,5.2,0.2,7.8-0.7c1.9-0.6,4-0.7,5.1,1.7c-3.6,0.9-7.2,0.7-10.9,0.1
			C246.4,31.1,245.7,31.1,245,31.1z"/>
		<path class="st92" d="M247.1,31.1c3.6,0,7.2-0.1,10.9-0.1c0.6,0.1,1.2,0.2,1.8,0.3C255.6,31.6,251.3,33.1,247.1,31.1z"/>
		<path class="st93" d="M181.3,27.3c2.6,0,5.1,0,7.7,0c0,0.2,0,0.3,0,0.5c-2.6,0-5.2,0-7.8,0C181.2,27.6,181.2,27.4,181.3,27.3z"/>
		<path class="st94" d="M207.4,56.2c-2.1,0.7-3.9,2.9-6.1,0.8c-0.5-0.5-0.5-1.7,0.2-2.2C204,53,205.5,55.2,207.4,56.2z"/>
		<path class="st95" d="M412,29.9c-0.3,0-0.7,0-1,0c-1.4-0.6-2.9,0-4.3-0.5c-4.4-0.4-8.9-0.2-13.3-0.7c-2.3-0.2-4.5-0.6-3.5-3.8
			c2.2-1.6,4.8-0.7,7.1-1.3c0.8-0.2,1.7-0.4,1.7-1.4s-0.9-1.3-1.7-1.5c-2.2-0.5-4.6,0.2-6.8-1c-0.8-0.8-0.5-1.7,0.3-1.9
			c3.5-0.9,5.8-3.7,8.8-5.4c0.2,0,0.5-0.1,0.7-0.1c1.3-0.5,3,0.5,4-1.1c2.9,0.4,5.8-0.6,8.6,0.5c2.3,2,4.1,4.5,6.3,6.5
			c0,0.4,0,0.7,0,1.1c-2.1,1.8-4.8,0.9-7.1,1.3c-1,0.2-2.3,0.2-2.4,1.3c-0.1,1.6,1.4,1.6,2.5,1.8c2.2,0.4,4.7-0.4,6.7,1.3
			c1.8,0.5,3.9-0.4,5.7,1.1c-0.9,2.5-4.5,0.3-5.3,3C416.8,30.3,414.2,29,412,29.9z"/>
		<path class="st96" d="M362,19.1c-1-2-6.2,0.5-4.3-4.4c-2.1-0.1-2.7,6.2-5.7,0.9c-0.6-1-4-0.3-6,0.6c-1.6,0.7-3.2,0.4-4-0.9
			c-1.4-2.1,1.7-1.9,2-3.2c4.8-2.5,9.9-1.7,15-1c1,1.5,2.7,0.5,4,1c3.2-2.4,6.7-0.9,10.1-0.7c2.3,0.9,5.3-0.4,7.1,2.2
			c0,1.2-1.7,1.2-1.7,1.2c1.3,2.5-0.8,2.1-2.2,2.7c1.8-0.2,3.5-0.7,5,0.2c1,0.6,1.3,1.4,0.1,2.2c-3.7,0.9-7.5,1.1-11.3,0.3
			c-0.7,1.1-1.2,2.3-2.1,3.2c-0.7,0.8-1.8,0.9-2.8,0.5c-1.1-0.3-0.9-1.2-0.6-2C365.4,19.3,363.9,19,362,19.1L362,19.1z"/>
		<path class="st97" d="M412.9,12.3c2.7-0.1,5.5-0.1,8.2-0.2c1.3-0.1,2.5-0.2,3.8-0.3c-0.7,3.3-5.7,2.5-5.9,6.3
			C414.9,18.3,414.3,14.8,412.9,12.3z"/>
		<path class="st98" d="M383.1,11.1c3.5,1.6,7.2,0.9,10.9,1c-3,3.5-9.3,4.3-13.6,1.7c-2.1-1.7-5,0-7.2-1.5c2.4-0.9,6.4,1.8,7-3.2
			C381.1,9.8,381.4,11.4,383.1,11.1z"/>
		<path class="st29" d="M412,29.9c2.2-1.5,4.7-0.5,7-0.8c25,0,50,0,75,0c1.6-0.9,3.1-2.1,5-0.7c0.3,0.2,0.6,0.5,1,0.7
			c-0.4,1.2-1.1,1.8-2.6,1.6c-10.1-1.2-20.2-0.4-30.4-0.5C448.6,30.1,430.3,30,412,29.9z"/>
		<path class="st99" d="M450.5,25.1c-0.8,0-2,0.1-3.1-0.2c-1.5-0.3-3-0.8-3-2.8c0-2.2,1.5-2.8,3.3-3c2-0.1,4-0.1,6-0.1
			c1.9,0,3.9,0.2,3.9,2.7c0,2.2-1.7,3.1-3.7,3.3C452.9,25.1,451.9,25.1,450.5,25.1z"/>
		<path class="st100" d="M470,19.1c0.8,0,1.7,0,2.5,0c2,0.1,3.7,0.6,3.7,3c0,2.1-1.6,2.8-3.4,2.9c-2.1,0.1-4.3,0.2-6.5-0.1
			c-1.6-0.2-3.4-0.5-3.2-2.9c0.1-2.1,1.6-2.8,3.4-2.9C467.6,19.1,468.8,19.1,470,19.1L470,19.1z"/>
		<path class="st101" d="M418.6,24.9c-2.3,0-4.7,0.1-7,0.1c-2.1,0-4.3-0.3-4.4-2.9c-0.1-2.7,2.2-2.9,4.3-2.9c2.5,0,5,0,7.5,0
			C420.6,21.2,420.4,23.1,418.6,24.9z"/>
		<path class="st102" d="M432.9,19.1c0.8,0,1.7,0,2.5,0c1.8,0,3.5,0.5,3.4,2.7c0,1.9-1.4,3-3.3,3.1c-2,0.2-4,0.1-6,0
			c-1.9-0.1-3.8-0.8-3.7-3.1c0.1-2.4,2.1-2.7,4-2.7C430.9,19.1,431.9,19.1,432.9,19.1L432.9,19.1z"/>
		<path class="st103" d="M494.9,24.1c-2.8,1.6-5.9,0.9-8.8,0.8c-1.7-0.1-3.4-0.7-3.4-2.9c0-2.2,1.6-2.7,3.4-2.8c1.5-0.1,3,0,4.5-0.1
			C494.4,18.8,495.9,20.3,494.9,24.1L494.9,24.1z"/>
		<path class="st104" d="M433,12.1c2.7,1.4,5.4-0.4,8.1,0.2c0.6,0.4,1.7,0.8,1.8,1.3c0.2,0.9-0.9,0.7-1.4,0.8
			C438.4,14.8,434.5,17.6,433,12.1z"/>
		<path class="st105" d="M498.9,28.3c-1.6,1-3.3,0.9-5,0.7c1.1-1.5,1.1-3.2,1-5l0,0c0.7,0,1.3,0,2,0
			C498.3,25.2,499.5,26.4,498.9,28.3z"/>
		<path class="st106" d="M513,28c-0.1-1.2,1-2.5-0.1-3.8c22.6,0,45.2-0.1,67.8-0.1c31.4,0,62.8,0,94.2,0.1c0.8,1.4,1.2,2.8,0,4.3
			c-0.5,0.4-1.1,0.7-1.7,0.8c-9.6,0.6-19.3,0.3-28.9,0.3c-41.2,0-82.5,0-123.7,0C518,29.5,515.2,30.2,513,28z"/>
		<path class="st15" d="M674.9,28c0-1.3,0-2.6,0.1-3.8c0.4,0.2,0.8,0.4,1.2,0.6c4.3,3,7.2,0.5,9.9-2.6c0.6-0.1,1.2-0.2,1.8-0.3
			c1.3,1.1,1.2,4,4.1,3.1c0,2.4-0.1,4.9,0,7.3c0.1,2.2-1.1,2.9-3,2.8c0.8-1.8,2-4,0.2-5.5c-1.7-1.3-2.7,1.2-4.2,1.8
			c-2.3,0.9-4.7,1.6-7.1,2.2c-2.3,0.6-1.8-1.2-2-2.4C674.9,30.3,674.7,29.2,674.9,28z"/>
		<path class="st107" d="M686,22.3c-1.2,4-4.5,6-8.6,5.2c-1.5-0.3-1.5-1.5-1.3-2.6C678.3,20,682.5,22.6,686,22.3z"/>
		<path class="st108" d="M510,24.2c-0.6,2.3,0,5.2-3.4,5.8c-3.2,0.6-5.5-0.4-6.4-3.8C503.1,23.9,507.1,26.4,510,24.2z"/>
		<path class="st64" d="M35.1,9.1c19.4,0,38.8,0,58.1-0.1c2.9,0,5.5,0,4.9,4c-2,1.2-4.1,1-6.3,1c-15.8,0.1-31.7-0.4-47.5,0.5
			c-1,0.1-1.9,0.1-2.9,0.3C35.9,15.7,34.6,14.6,35.1,9.1z"/>
		<path class="st29" d="M406.9,29c1.4,0.1,2.9-0.3,4,0.8c-34.1,0.1-68.2,0.1-102.3,0.2c-1,0-2,0.1-2.6-1c4.3,0,8.7,0,13,0
			c5.3-0.8,10.5-0.7,15.8,0c1.4,0,2.8,0,4.2,0.1c7.3-1,14.6-0.7,21.9,0c0.4,0,0.7,0,1.1,0C377,27.1,392,27.7,406.9,29z"/>
		<path class="st109" d="M351.8,32.5c8,0,15.9,0,23.9,0c0,0.2,0,0.3,0,0.5c-8,0-15.9,0-23.9,0C351.8,32.8,351.8,32.6,351.8,32.5z"/>
		<path class="st110" d="M315.2,32.2c7.9,0,15.7,0,23.6,0c0,0.2,0,0.3,0,0.5c-7.9,0-15.8,0-23.7,0C315.2,32.6,315.2,32.4,315.2,32.2
			z"/>
		<path class="st111" d="M674.9,28c1.2,0.8,1,2,1,3.1c-1.9,1.5-4,2-6.5,2c-49.6-0.1-99.1-0.1-148.7,0c-3.7,0-7.1-1.4-10.7-2
			c0-1.1-0.2-2.3,0.9-3c3.1,1.4,6.4,1.5,9.7,1.5c35.2,0,70.5,0,105.7,0c14.1,0,28.3,0.1,42.4,0C670.9,29.5,673.2,29.9,674.9,28
			L674.9,28z"/>
		<path class="st15" d="M674.9,28c-0.4,3.8-3.4,3-5.7,3c-22.4,0-44.8,0-67.2,0c-27.3,0-54.6,0-81.9,0c-3.5,0-6.6-0.5-9.1-3
			c0.7,0,1.4,0,2,0C566.9,28,620.9,28,674.9,28z"/>
		<path class="st112" d="M406.9,29c-15,0-29.9,0-44.9,0c4.1-1.5,8.5-1.5,12.8-1.9c2.2-0.2,4.6,0.2,6.1-2.2c-0.2-2,0.7-3.7,0.9-5.6
			c-2.2-2.6-5.3-0.5-8.8-1.9c3.7,0,4.2-3.8,7.3-3.6c4.7,1,9.2-0.4,13.6-1.7c1.9-0.1,3.8-0.2,5.7-0.3c-1.3,5-5.8,5.7-9.6,7.3
			c0.2,1.9-1.6,3.9,0,5.8c-0.2,2.4,1.2,2.2,3.1,2.5C397.7,28.1,402.5,27.1,406.9,29z"/>
		<path class="st113" d="M381.9,19.3c1.8,2.2,0.9,4-0.9,5.6c-2.3,0-4.6,0.1-6.9,0.1c-3.3,0-5-1.4-4-4.9
			C373.9,18.3,377.9,19.3,381.9,19.3z"/>
		<path class="st114" d="M362,19.1c1.9,4.6,1.3,5.9-3.3,5.9c-2.9,0-7.7,1.4-7.9-2.5c-0.3-4.9,4.8-2.8,7.8-3.3
			C359.6,19,360.8,19.1,362,19.1L362,19.1z"/>
		<path class="st115" d="M361,29.1c-7.3,0-14.6,0-21.9,0C346.4,26.7,353.7,27.5,361,29.1z"/>
		<path class="st116" d="M334.9,29c-5.3,0-10.5,0-15.8,0C324.3,27.5,329.6,27.5,334.9,29z"/>
		<path class="st117" d="M390,25c-4.1-1.9-2.6-3.9,0-5.8c2.6,0,5.2,0,7.9,0.1c1.9,0,3.3,0.7,3.3,2.8c0,2-1.5,2.9-3.2,3
			C395.3,25.1,392.7,25,390,25z"/>
	</g>
</g>
</svg>
