<?xml version="1.0" encoding="utf-8"?>
<!-- Generator: Adobe Illustrator 24.3.0, SVG Export Plug-In . SVG Version: 6.00 Build 0)  -->
<svg version="1.1" id="Camada_1" xmlns="http://www.w3.org/2000/svg" xmlns:xlink="http://www.w3.org/1999/xlink" x="0px" y="0px"
	 viewBox="0 0 471 165" style="enable-background:new 0 0 471 165;" xml:space="preserve">
<style type="text/css">
	.st0{fill:#FEFEFE;}
	.st1{fill:#26292E;}
	.st2{fill:#141414;}
	.st3{fill:#807E76;}
	.st4{fill:#3E4246;}
	.st5{fill:#2F3338;}
	.st6{fill:#282726;}
	.st7{fill:#131417;}
	.st8{fill:#222529;}
	.st9{fill:#323539;}
	.st10{fill:#5D646F;}
	.st11{fill:#35393E;}
	.st12{fill:#101113;}
	.st13{fill:#3E3E3C;}
	.st14{fill:#4A4F56;}
	.st15{fill:#6C6A65;}
	.st16{fill:#4D5259;}
	.st17{fill:#5F666E;}
	.st18{fill:#4B4B4A;}
	.st19{fill:#8C8982;}
	.st20{fill:#3B3B3A;}
	.st21{fill:#1D1F23;}
	.st22{fill:#3A3E3E;}
	.st23{fill:#787670;}
	.st24{fill:#6E6D69;}
	.st25{fill:#585E66;}
	.st26{fill:#363634;}
	.st27{fill:#848D9B;}
	.st28{fill:#484947;}
	.st29{fill:#575754;}
	.st30{fill:#282C31;}
	.st31{fill:#2D2D2C;}
	.st32{fill:#202120;}
	.st33{fill:#2C2F33;}
	.st34{fill:#3B4046;}
	.st35{fill:#1F1F1F;}
	.st36{fill:#3B4047;}
	.st37{fill:#272726;}
	.st38{fill:#171717;}
	.st39{fill:#303439;}
	.st40{fill:#42474E;}
	.st41{fill:#767E8C;}
	.st42{fill:#34383D;}
	.st43{fill:#363A40;}
	.st44{fill:#34393F;}
	.st45{fill:#586575;}
	.st46{fill:#86837C;}
	.st47{fill:#42474D;}
	.st48{fill:#292D31;}
	.st49{fill:#1A1A1A;}
	.st50{fill:#2F3339;}
	.st51{fill:#53585F;}
	.st52{fill:#3A3A38;}
	.st53{fill:#202225;}
	.st54{fill:#2F2F2E;}
	.st55{fill:#5C626B;}
	.st56{fill:#3F444A;}
	.st57{fill:#747C87;}
	.st58{fill:#131314;}
	.st59{fill:#0E0E0F;}
	.st60{fill:#2C2C2B;}
	.st61{fill:#30302D;}
	.st62{fill:#61605A;}
	.st63{fill:#5D6470;}
	.st64{fill:#9F9C94;}
	.st65{fill:#0D0D0D;}
	.st66{fill:#686F7B;}
	.st67{fill:#8A94A2;}
	.st68{fill:#97948C;}
	.st69{fill:#494947;}
	.st70{fill:#4F4F4D;}
	.st71{fill:#444442;}
	.st72{fill:#7A7872;}
	.st73{fill:#8C8981;}
	.st74{fill:#B5B1A7;}
	.st75{fill:#1C1C1B;}
	.st76{fill:#8D8A82;}
	.st77{fill:#444443;}
	.st78{fill:#383836;}
	.st79{fill:#51565F;}
	.st80{fill:#6C747F;}
	.st81{fill:#3F444B;}
	.st82{fill:#2B2B2A;}
	.st83{fill:#4B4B49;}
	.st84{fill:#101111;}
	.st85{fill:#111213;}
	.st86{fill:#424953;}
	.st87{fill:#42474C;}
	.st88{fill:#6A6F77;}
	.st89{fill:#6A6964;}
	.st90{fill:#83888D;}
	.st91{fill:#969BA2;}
	.st92{fill:#AAB0BA;}
	.st93{fill:#7C7A74;}
	.st94{fill:#232424;}
	.st95{fill:#565550;}
	.st96{fill:#252525;}
	.st97{fill:#8B9097;}
	.st98{fill:#626976;}
	.st99{fill:#616875;}
	.st100{fill:#5E6571;}
	.st101{fill:#454B53;}
	.st102{fill:#3D424A;}
	.st103{fill:#666D7A;}
	.st104{fill:#393E45;}
	.st105{fill:#434951;}
	.st106{fill:#5A616C;}
	.st107{fill:#4B515B;}
	.st108{fill:#535961;}
	.st109{fill:#88857E;}
	.st110{fill:#1E1E1D;}
	.st111{fill:#4A4A49;}
	.st112{fill:#AEB7C4;}
	.st113{fill:#33373D;}
	.st114{fill:#808997;}
	.st115{fill:#31353A;}
	.st116{fill:#434341;}
	.st117{fill:#ACB3BD;}
	.st118{fill:#73787F;}
</style>
<g>
	<path class="st0" d="M470.9,72.6c0,29.4-0.1,58.8,0.1,88.2c0,3.9-1.2,4.2-4.5,4.2c-76.5-0.1-153-0.1-229.5-0.1
		c-0.8-1.7-0.2-3.3,0.4-4.8c4.5-11.5,8.5-23.3,12.9-34.8c0.8-2,1.5-4.1,3.8-5c0.8-0.3,1.7-0.4,2.5-0.4c12.9,1.5,25.9,0.6,38.8,0.9
		c3.3,0.1,6.3-0.5,8.4-3.3c3.5-3,4.5-7.1,5.1-11.5c0.8-6.2,1.8-7,8-7c27.8-0.1,55.6,0,83.4,0c2.7,0,5.4,0.1,7.7,1.7
		c4,2.8,7.9,1.5,11.8-0.1c2.3-0.9,2.9-2.5,2.3-4.7c-0.7-2.4-1.6-4.7-2.3-7.1c-0.9-3.4-2-6.7-3.4-9.9c-1.7-5.8-1.7-5.8,5.6-8.9
		c1.1-0.4,2.3-0.7,3.4-0.4c12.4,3.1,25.1,0.9,37.6,1.6C465.9,71.2,468.6,70.7,470.9,72.6z"/>
	<path class="st0" d="M0.1,27.9C0.1,19.5,0.2,11,0,2.6c0-2.1,0.4-2.9,2.6-2.5c0.6,0.1,1.3,0,2,0c153.9,0,307.8,0,461.8-0.1
		c3.7,0,4.7,0.8,4.6,4.6c-0.2,17-0.1,34.1-0.1,51.1c-1.9,1.7-4.3,1.4-6.6,1.4c-10.1,0-20.2,0-30.2,0c-2.1,0-4.3-0.1-6.4,0.6
		c-1.8,0.3-3.6,0.3-5.4,0c-2.2-0.8-4.6-0.8-6.9-0.7c-3.8,0.1-6.4-1.4-7.5-5.2c-0.3-2.3-1.4-4.3-2.2-6.4c-0.7-2.3-1.5-4.5-2.5-6.6
		c-1.1-3.3-2.8-6.3-4-9.5c-5-6.2-9.7-12.5-14.7-18.7c-1.2-1.4-2.1-3-3.3-4.5c-1-1.4-2-2.9-3.7-3.5c-31.3-0.3-62.6-0.6-93.9,0.1
		c-21.2,0.5-42.5,0.5-63.7,0.7c-2.1,0-4.3-0.4-6.4,0.6c-0.7,0.8-0.9,1.7-1,2.7c-0.1,1.1,0.5,1.8,1.3,2.3c5.9,1,11.9,0.3,17.8,0.4
		c8.3,0.2,8.7,0.4,9,8.5c-0.7,7.2,1.3,14.5-1.1,21.7c-0.7,0.8-1.6,1.1-2.6,1.3c-15.6,0.8-31.3,0.3-46.9,0.3
		c-11.8,0-23.6,0.4-35.4-0.4c-1.2-0.3-2.2-0.9-3-1.9c-0.7-0.9-1.1-1.9-1.6-2.9c-1.7-2.9-2.4-6.2-5.2-8.5c-2.1-0.6-4.3-0.3-6.5-0.3
		c-33.9,0-67.7,0-101.6,0c-2.2,0-4.3,0.2-6.4-0.3c-5-2-10-3.5-14.3,1.4c-0.5,0.3-1.1,0.5-1.6,0.6C9.6,29.2,4.7,30.6,0.1,27.9z"/>
	<path class="st0" d="M233,164.9c-76.2,0-152.4,0-228.6,0.1C1,165,0,164.5,0,160.8c0.2-42,0.1-83.9,0.1-125.9
		c3.8,1.4,1.6,5.2,3.1,7.5c2.4,24.8,7.2,49.4,6.3,74.5c0.1,4.5,0,9.1,0,13.6c0,1.8,0.1,3.6,1.3,5.1c5.3,2.5,10.6,4.7,16.6,2.4
		c0.6-0.8,1-1.7,1.8-2.3c1.4-0.8,3-0.8,4.6-0.8c4.6-0.3,9.7,1.4,13.3-3.2c3.9-4.4,7-9.9,13.8-10.4c15.5-2.2,31-4.6,46.5-6.9
		c3.4-0.5,6.6-0.6,8.9,2.6c0.5,0.6,1.1,1.2,1.6,1.8c1.1,1.4,2.7,1.3,4.1,1.2c5.2-0.4,8.4,2.1,10.9,6.3c3.6,6.2,7.6,11.9,13.4,16.4
		c9.5,7.4,20.1,11.4,32.2,11.1c7.1-0.1,14.3-0.2,21.4,0.1c9.9,2.4,19.6,5.7,29.4,8.4C230.9,162.6,233,162.6,233,164.9z"/>
	<path class="st1" d="M233,164.9c-11-3.4-22-6.7-33-10.1c-1.5-0.6-3.5-0.9-1.8-3.3c2.7-1.5,5.5-0.8,8.1,0.1c1.7,0.6,3.5,0.9,5.3,1
		c1.9,0.1,3.7,0.6,5.4,1.3c2.5,1.3,5.2,1.6,7.9,2.2c6.1,2.3,6.2,2.2,8.6-3.8c1.6-4.1,1.5-9.3,6.8-11.3c1.1-0.4,0.6-2,0.7-3.2
		c0.2-3.8,0.5-7.5,1.7-11.1c0.2-0.5,0.3-0.9,0.5-1.4c3.1-9.2,6.8-18.2,10.8-27.1c0.3-0.6,0.7-1.1,1-1.7c0.8-1.9,3-4.3,1.1-5.7
		c-2.2-1.6-4.6,0.7-6.4,2.3c-1.5,1.3-2.2,3.3-3.5,4.8c-2.7,3.2-5.5,3.8-8.5,0.9c-3.2-3.1-6-3.5-9.5-0.9c-1.1,0.8-2.3,1.4-3.6,0.3
		c-1-1.7-1.4-3.6-1.3-5.6c2.5-3.3,6.1-4.7,9.9-5.7c1.7-0.4,3.5-0.8,2.4-3.2c-1.9-4,0.7-4.5,3.7-4.6c1.5-0.1,3-0.1,4.4-0.1
		c1.6,0,3.2,0.1,4.7,0.6c5.2,1.7,10.4,2.4,16,1.2c8.3-1.8,16.8-0.7,25.3-0.6c1,0,1.9,0.5,2.5,1.5c-0.9,2.5-3.2,1.9-5,2
		c-5.5,0.2-11-0.1-16.5,0.1c-5.5,0.2-7,2-7.9,7.4c-1,5.6-3.8,10.5-5.6,15.9c-1.3,4-3.6,7.8-3.6,12.2c0.4,0.6,0.8,1.1,0.5,1.8
		c-3.4,4.5-4.4,10.1-6.4,15.2c-3.7,9.4-7.1,19-10.6,28.5C235.7,164.9,234.3,164.9,233,164.9z"/>
	<path class="st2" d="M470.9,72.6c-11.6,0-23.2,0-34.9-0.2c-3.3,0-6.7,0.8-9.8-1.7c-0.8-0.6-3.2-0.9-4.5,0.8c-7.5,1.2-7.8,1-8.6-5.7
		c0.1-0.5,0.3-1,0.6-1.5c2.7-1.7,5.8,0.6,8.6-0.9c0.9-0.1,1.7-0.2,2.6-0.2c11.3-0.5,22.6-1.5,33.9-1c4.1,0.2,8.3,0.2,12,2.3
		C470.9,67.3,470.9,69.9,470.9,72.6z"/>
	<path class="st3" d="M422,56.6c1.6,0.1,3.3,0.2,4.9,0.3c0,0.2,0,0.3-0.1,0.5c0,0.1-0.2,0.3-0.3,0.4c6-2,12.1-0.8,18.2-1
		c6.9-0.2,13.9-0.1,20.9,0c2,0,4.1-0.3,5.2,2c0,1,0,2,0,3c-1.2,1-2.6,1.5-4.1,1.4c-11.6-0.7-23.2-0.6-34.8,0
		c-1.3,0.1-2.6-0.2-3.9-0.7c-4.3-1.5-8.6-3.9-13.3-1.3c-0.8,0.3-1.5,0.3-2.3-0.1c-0.8-0.5-1.1-1.2-1.1-2.1c0.4-2.2,2.1-2.3,3.8-2.3
		C417.4,56.7,419.7,56.8,422,56.6z"/>
	<path class="st4" d="M2,42c-1.6-2.1,0.3-5.1-1.9-7.1c0-2.3,0-4.6,0-6.9c5,0,10,0,15,0.1c1.8,2.2,1.4,4.6,0.9,7.1
		c-1.5,3.3-4.7,3.7-7.6,3.5C5.4,38.4,3.4,39.4,2,42z"/>
	<path class="st5" d="M427,60.9c3.4,1.4,6.9,0.7,10.4,0.7c11.2,0.1,22.3,0.1,33.5,0.1c0,1,0,2,0,3c-15.7-2-31.3-0.6-47,0
		c-0.6-0.5-0.6-1.2-0.4-1.9C424.3,61.5,425.5,60.9,427,60.9z"/>
	<path class="st6" d="M470.9,58.7c-1.7-1.4-3.7-1.1-5.7-1.1c-10.6,0-21.2,0.1-31.8-0.1c-3.2-0.1-6.1,1.3-9.4,1.2
		c0.6-1.5,2.6-0.4,3-1.8c1.3-1.4,2.9-1.2,4.6-1.2c13.1,0,26.2,0.1,39.3,0.1C470.9,56.7,470.9,57.7,470.9,58.7z"/>
	<path class="st7" d="M253,120.2c-2.5,0.9-2-0.5-1.5-1.9c3-8,6.1-16,9.1-24c0.4-1.1,1-2.2,1-3.2c0-5.9,2.4-8.4,8.4-8.5
		c7.3-0.1,14.6,0,22,0c2.5-2,5.2-1.3,8-0.9c3.1,1.3,5.8,3.2,8.1,5.6c1.1,1,2.2,2.3,3.9,1.3c6.9-4.2,14.6-2.7,21.9-2.2
		c19.8,1.3,39.5,1.1,59.2,0.2c7.3-0.3,14.7,0.1,22-0.5c2-0.2,4-0.1,5.6,1.4c0.4,0.7,0.8,1.4,1.1,2.2c3.9,10.5,3.8,10.4-7,14.2
		c-2.3,0.8-4.2,0.9-5.9-0.9c-2.5-2.7-5.6-2.9-9.1-2.9c-27.6,0.1-55.2,0.2-82.8-0.1c-4.9-0.1-6.9,1.3-6.8,6.1c0,0.7-0.2,1.3-0.2,2
		c-0.2,4.2-1,8.1-5.2,10.2c-2.4,0-2.7-1.6-2.8-3.4c2.4-6.3,1.4-13,1.6-19.5c0.1-3.7-2.7-5.1-5.9-5.3c-4.8-0.4-9.6-0.1-14.4-0.1
		c-0.7,0,0.2,0-0.5,0c-18.8-0.3-15.5-0.9-21.8,14c-0.6,1.4-1.3,2.7-1.9,4C256.9,112,256.6,116.9,253,120.2z"/>
	<path class="st8" d="M420.7,87.5c-7.1-0.6-14.2,0.8-21.3-0.9c-1.8-0.4-4.5,2-7.3,1.9c-16.8-0.2-33.6,0.2-50.4-0.2
		c-7.6-0.2-15.2-1.1-22.8-0.9c-1.9,0.1-3.7,0-5,1.7c-2.3,3.3-4.3,3.1-6.4-0.3c-1.8-2.9-5.3-3.9-7.6-6.3c1.7-1.8,4-1.4,6.1-1.4
		c13.6,0,27.1-0.1,40.7,0c7.4,1.5,14.8,0.3,22.3,0.1c7.6-0.2,15.4-0.7,22.9,0.7c2.4,0.4,2.6-1.1,3.7-2.1c5.9-1.3,11.8,1.4,16.8,0.2
		c-2.2,0.1-5.3,0.1-8.4,0c-1,0-2.6,0.3-1.9-1.8c5.3-1.9,10.5-2,15.7,0.3C418.8,81.5,419.8,84.5,420.7,87.5z"/>
	<path class="st5" d="M417.8,78.6c-5.3,0-10.6,0-15.9,0c-5.1,1.7-6.6,1.1-8-3.7c-0.5-1.7-1-3.4-1.5-5.2c-0.2-0.5-0.4-1-0.5-1.5
		c-0.6-3.5-2-6.8-2.7-10.2c-0.3-1.5-1.3-3-0.1-4.6c3.8-0.6,7.6,0.2,11.4,0.2c1.9,0,3.7,0.9,4.7,2.5c2.3,3.6,5.6,6,8.8,8.6
		c0.5,4.7,1.9,8.3,7.8,6.9c-1.3,2.1-3.6,0.2-5.4,1.5C416.8,74.8,417.3,76.7,417.8,78.6z"/>
	<path class="st9" d="M302.7,114.9c0.2,1.4,0.7,2.6,2.1,3.3c-0.9,2.3-2.3,3.8-5,3.8c-14.6-0.3-29.2,0.8-43.8-0.8
		c-0.2-1,0.5-1.5,1.3-1.8c3.6-0.3,7-1.2,10.3-2.4c4.7-0.5,9.4,0,14.1-0.1C288.7,116.7,295.9,117.5,302.7,114.9z"/>
	<path class="st10" d="M257,120.2c-0.3,0.3-0.6,0.7-1,1c-0.7,0-1.3,0-2,0c-0.3-0.3-0.7-0.6-1-1c1.7-4.3,3.4-8.5,5.1-12.8
		c4.4,1.9,5.1,6.3,6.5,10c0.5,1.2-0.6,2.3-2.4,2.2C260.5,119.5,258.6,119.4,257,120.2z"/>
	<path class="st11" d="M151.9,37.9c0.4,0.6,0.8,1.3,1.1,1.9c1.1,1,2.1,2.1,2.9,3.4c0.7,1.1,1.5,2.1,2.1,3.2c0.8,1.6,1.8,3,2.8,4.5
		c1,2.2,3,4,2.5,6.7c-1.2,3.3-3.1,4.8-6.8,3.5c-10.4-3.5-20.7-3.2-30.8,1.4c-0.6,0.3-1.2,0.5-1.9,0.7c-1.1,0.2-2.1,0-3.2-0.1
		c-5,0.1-10.2,0.5-12.4-5.7c-0.3-0.8-1.3-1.1-2.1-1.1c-5.7-0.1-11.1-1.8-16.8-2.1c-2.7-0.1-4.9,0.1-5.1,3.7
		c-0.1,1.9-1.5,3.3-3.4,3.8c-2.6,0.7-4.7,0.2-3.7-3.1c1.4-4.5-1.3-5.6-4.7-6.2c-2.6-0.5-5.3-0.5-8-0.2c-4.8,0.5-9.5,1.2-14.2-0.7
		c-1.4-0.5-3-0.2-4.4,0.5c-7.4,3.9-12.6,0.4-17.6-4.7c-0.3-0.6-0.4-1.2-0.5-1.9c-0.6-7.2,0.1-8.1,7.2-9.4c4.7-1.9,9.3-0.4,14,0
		c2.1,0.2,4.2,1.1,5.6-1.4c0.4-1.5,0.3-3.1,1.7-4.2c1.2-0.4,2.7-0.4,3,0.8c1.3,5.6,6.4,4.9,9.8,4.9c14.4,0.2,28.9,0.9,43.3-0.4
		c4.9-0.4,9.9,0.8,14.9,0.6c5.8-0.2,11.6,0.5,17.4-0.7C147.3,35.1,149.8,36.1,151.9,37.9z"/>
	<path class="st12" d="M210.9,7.1c0-1,0-2,0-3.1c1.8-1.3,3.8-0.9,5.8-0.9c19.5,0,38.9,0.3,58.4-0.1c32.6-0.7,65.2-0.2,97.8-0.3
		c2.3,0,4.4-1.5,6.7-0.5c0.9,1.2,2.1,2.1,2.4,3.7c-0.5,3.1-3.1,2.5-5.1,2.7c-5.3,0.3-10.6,0-16,0c-30.9,0-61.8,0.1-92.8,0
		c-9.4,0.1-18.8,0.3-28.2,0c-7.6,0-15.3,0-22.9,0C214.9,8.6,212.7,8.6,210.9,7.1z"/>
	<path class="st13" d="M400,28.9c1.8,3.1,3.2,6.4,4,9.9c-0.3,2.6-2.5,2.2-4.1,2.4c-2.8,0.3-5.6,0.1-8.4,0.1c-4.9,0-4.9,0-3.3,4.4
		c0.3,0.8,0.6,1.6,0.7,2.4c0.1,0.7,0.1,1.4,0,2.1c0,0.5-0.1,0.9-0.2,1.4c-0.4,6.2,2.7,11.5,4.2,17.2l0,0c0.9,2.4,1,5.1,2,7.5
		c0.6,1.4,0.6,2.6-1.2,3c-2.5-0.4-3.1-2.2-3.3-4.3c-0.3-3-1.2-5.8-2.5-8.5c-1.3-2.6-1.9-5.4-6.2-3.1c-2.4,1.3-3.6-0.7-2.1-3.2
		c1.7-6-3.5-3.2-5.6-4.3c-0.9-0.1-1.8-0.4-2.7-0.6c-2.3-0.1-4.5-0.9-6.8-0.5c-1.6,0.2-3.2,0.5-4.8,0.9c-1,0.2-1.9,0.1-2.8-0.4
		c-0.6-0.5-0.7-1.2-0.7-1.9c1.3-2.5-1-4.5-1.2-6.8c1.4-3.2-1.9-6-0.7-9.2c2.5-0.8,4.2,0,5.4,2.3c0.2,0.5,0.3,1,0.4,1.5
		c0.5,7.9,0.8,8.3,8.9,8.2c4.8-0.1,9.6,0.6,14.4-0.5c1.6-5.3-2.7-6.8-5.9-8.9c-1.2-2.5-0.5-4,2.3-4.4c-2-1.3-2.2-3-1.2-5
		c0.7-1.3,1.9-2.5,3.3-2.8C388.1,26.4,394.2,25.1,400,28.9z"/>
	<path class="st14" d="M36.1,36.9c-8.1-0.1-7.4,5.5-7.1,10.9c-0.6,0.3-1.1,0.2-1.5-0.3c-1.7-4.4-0.6-8.9,0.1-13.3
		c0.1-1.2,0.3-2.4,0.9-3.5c0.4-0.5,0.8-1,1.3-1.4c2.6-1.7,5.6-1.9,8.6-1.9c34.2,0,68.3,0,102.5,0c1.8,0,3.7-0.2,5.3,0.9
		c1.3,2.8-1.1,2.7-2.5,2.8c-3.6,0.3-7.3,0.8-10.9,0.8c-19.7-0.1-39.5,0.7-59.2,0.8c-1.1,0-2.4-0.2-3.3,0.9c1.8,1.2,3.8,0.7,5.7,0.7
		c15.3,0,30.5-0.1,45.8-0.4c8.1-0.2,16.3,0.5,24.4,0.5c1.7,0,3.3,0.2,4.6,1.4c0.3,0.7,0.6,1.3,0.9,2c-6.2-2-12.4,0.2-18.7,0.1
		c-20.2-0.3-40.3-0.1-60.5-0.1c-3.1,0-6.3,0.8-9.1-1.5c-0.7-0.6-1.6-0.4-2.4,0c-1.1,0.6-2.3,2.3-3.4,1c-1.5-1.7,1.7-1.8,1.5-2
		c-1.3-1.3-0.9-3.8-3.1-4.4c-0.7,0-1.4,0.2-2.1,0.3C47,34,39.4,32,32.1,33.6C32.9,36.1,35.4,35.5,36.1,36.9z"/>
	<path class="st15" d="M29,33.8c-0.9,4.6-1.2,9.3-0.9,14c0.5,0.8,0.4,1.5-0.2,2.1c-1.1,0.4-2.3,0.3-3.4,0.3c-2.7-0.2-3.9,1.1-4,3.7
		c-0.2,6.9,0.9,13.8,0.2,20.7c-0.4,3.7,2.9,4.3,5.4,5.5c1.3,1.8,0.6,3.5-0.4,5.1c-5-0.5-5.4,0-5.7,5.3c-0.8,14.3,0.2,28.7-0.5,43
		c-0.1,2.8,0.8,4.4,3.9,4.3c1.5-0.1,3-0.1,4.5,0.4c0.4,0.2,0.8,0.5,1.2,0.8c-4.2,1.4-8.6,1.7-12.6-0.3c-2.1-1.1-4.7,0.7-6.3-1.6
		c3.8-1.8,4.6-5,4.5-8.9c-0.3-18.6,0.2-37.2,0.1-55.8c0-2.3-0.2-4.6,0.4-6.9c3.1-4.7,0.5-10.5,3.1-15.5c-1.5,0.4,0.5,4.6-2.8,2.1
		c-1.8-8.1,0.1-16.2,0.7-24.2c0.3-2.8,1.7-4.2,4.6-3.6c2.8,0.6,6.1-1.6,8.5,1.5c1.3,1.7,1.1,3.4,0.1,5.1h-0.3
		c-2.3-0.5-4.3-2.1-6.9-1.7c-3.4,0.5-4.3,1.9-2.6,4.9c0.3,0,0.9,1.6,0.9-0.1c0-1.2,0.4-2.2,1.6-2.7C25.2,29.9,26.2,34.1,29,33.8z"/>
	<path class="st16" d="M379.6,2.2c-2.9,1.8-6.2,1.9-9.5,1.9C317,4,264,4.1,210.9,4.1c-0.2-3.3,2.4-2.1,3.8-2.1
		c18.4-0.2,36.9-0.3,55.3-0.4c27.7-0.1,55.5-0.2,83.2-0.3c8.1,0,16.3,0,24.4,0C378.5,1.2,379.3,1.3,379.6,2.2z"/>
	<path class="st17" d="M151,35.9c-13.7-0.2-27.3-1.1-41-0.5c-12,0.5-23.9,0.1-35.9,0.5c-0.8,0-1.7,0-2.5,0c-2.1,0.1-4.8-0.1-4.8-2.4
		s3-2.2,4.8-2.2c6.4-0.2,12.8-0.3,19.2-0.4c11.1-0.2,22.1,0.1,33.2-0.8c6-0.5,12.1,0.4,18.2-0.2c1.6-0.2,3.4,0.7,4.5-1.1
		c-0.2-0.4-0.1-0.7,0.2-0.9C148.4,30.6,149.7,33.2,151,35.9z"/>
	<path class="st18" d="M400,28.9c-4.8-1.6-9.8-0.9-14.8-0.9c-2.3,0-4.3,1-5.5,2.9c-0.8,1.3-2.4,3.6,1.5,3.2c1-0.1,2.3,0.3,2,1.5
		c-0.3,1.3-1.4,2.7-2.9,1.9c-3.9-2-1.9,1.3-2.4,2.4c-2.2,2-4.7,1.5-7.2,0.9c-2.5-1.6-1.2-3.6-0.1-5.1c5.9-7.8,3.9-14.9-1.6-21.8
		c-0.8-1-2.4-2.2-0.2-3.6c5.4-1.1,10.8-0.6,16.2-0.4C390,16.2,395,22.5,400,28.9z"/>
	<path class="st19" d="M155.1,43.8c-0.7-1.3-2.5-2-2-3.9c27.2,0,54.3,0.1,81.5,0.1c0.8,0,1.6,0,2.5,0c0.3,0.5,0.2,1,0,1.6
		c-0.2,0.5-0.5,1-0.7,1.5c-1.4,3.3-4.4,3.1-7.2,3.1c-17.1,0-34.2,0-51.3,0c-2.5,0-4.9,0.2-7.3,1c-4.2,1.4-7.9-0.2-10.9-3.1
		C157.9,42.5,156.7,42.8,155.1,43.8z"/>
	<path class="st20" d="M385,9.9c-3.6,2.4-7.6,0.7-11.4,1.2c-1.9,0.2-3.9,0.1-5.9,0.1c-0.8,0.6-1.8,0.7-2.8,0.5
		c-8.1-0.6-16.2-0.2-24.4-0.2c-22-0.1-44.1,0-66.1-0.1c-2.5,0-5.5,0.8-7-2.3c-0.1-0.7,0-1.3,0.4-1.9C304,7.1,340.2,7.1,376.4,7
		c1.9,0,4,0.7,5.6-1.1C383,7.2,384,8.6,385,9.9z"/>
	<path class="st21" d="M16.3,64.6c0,22.2-0.2,44.3,0,66.5c0.1,4.9-1,7.2-6.2,6.1c-1.6-0.9-2.1-2.3-2-4.1c0.1-5.2,0.1-10.5,0.2-15.7
		c1.3-1.3,1.7-2.9,1.7-4.5c0.2-8.6,2.8-16.8,2.7-25.4c-0.2-13-0.1-26,0-39c0-4.3,0.3-8.6,2.5-12.5c0-2.6,0.1-5.2,0.1-7.8
		c0.3-0.1,0.6-0.2,1-0.2c0.1,8.3,0.1,16.6,0.2,25C17.6,56.7,17.5,60.6,16.3,64.6z"/>
	<path class="st22" d="M147.1,27.9c-0.1,0.3-0.2,0.6-0.2,0.9c-36,0-71.9,0.1-107.9,0.1c-3.4,0-6.6,0.4-9.7,1.9
		c0-1.7-0.1-3.4-0.1-5.1c18.3,0.1,36.5,0.1,54.8,0.2c19.4,0,38.9-0.1,58.3,0C144,25.9,146.4,25,147.1,27.9z"/>
	<path class="st23" d="M267.8,7.2c0,0.3,0,0.6-0.1,0.9c-3,6.4-7.8,9.2-15.1,8.3c-3.1-0.4-6.3-0.3-9.4,0.2c-1.4,0.5-2.5,1.7-4.2,1.3
		c-0.1-0.8-0.3-1.7-0.1-2.4c0.6-3.9-1-4.9-4.9-4.9c-7.7-0.1-15.4,1.1-23-0.6c1.8-1.6,4-1.4,6.1-1.4c5.9,0,11.9,0,17.9,0
		c1.8,0,3.7,0.1,5.1-1.3C249.4,7.3,258.6,7.2,267.8,7.2z"/>
	<path class="st24" d="M239.2,18c0.9-0.7,1.9-1.3,2.8-2c7.4,0.1,14.7-0.3,22.1,0.2c2.7,3.1-0.8,2.7-1.9,2.9
		c-3.7,0.5-7.6,0.2-11.3,0.2c-4,0.1-7.6,3.8-6.9,7.7c0.5,3,0.2,5.9-0.1,8.8c-0.9,2.9-1.8,5.7-0.2,8.6c-1.3,2.1,0.5,5-1.7,6.8
		c-2.6,1.5-2.9-0.6-3.1-2.1c-0.3-3.1-0.4-6.2,0.1-9.3C239,32.5,239.1,25.3,239.2,18z"/>
	<path class="st25" d="M387.9,48.8c-0.5-1.3-1-2.7-1.5-4c-1.9-4.8-1.8-4.9,3.6-4.7c-0.5,3.7,2.4,3.2,4.5,3.5c4,0.6,8.3-1.2,12.1,1.4
		c0.7,2,1.4,3.9,2,5.9c-5.6,0.8-11.1,0.2-16.7,0.3C390.2,51.1,388.8,50.4,387.9,48.8z"/>
	<path class="st26" d="M240.2,7.3c-0.2,2.8-2.3,2.6-4.3,2.6c-8.3,0-16.5,0.1-24.8,0.1c-0.6-0.9-0.6-1.9-0.2-2.9
		C220.7,7.2,230.4,7.2,240.2,7.3z"/>
	<path class="st27" d="M406.7,44.9c-4.2,0-8.5-0.1-12.7-0.1c-1.6,0-3.2,0.1-4.6-1.1c-2.4-1.9-1.7-2.9,0.7-3.7
		c4.6-0.7,9.5,1.3,14-1.2C405.7,40.5,406.1,42.7,406.7,44.9z"/>
	<path class="st28" d="M387.9,48.8c3.6,1.9,7.4,0.7,11.1,1c3.2,0.3,6.6-0.8,9.6,1c0.6,4.4,3.5,5.1,7.4,4.9c1.9-0.1,4.2-1.1,5.9,0.9
		c-1.7,1.9-3.9,0.8-5.9,1.1c-1.6,0.2-3.8-0.7-4.2,2c-2.4,0.2-3.5-1.6-4.4-3.3c-1.7-3.4-4.5-4.2-8.1-4.3c-3.8-0.1-7.9,1.2-11.4-1.4
		C388,50,388,49.4,387.9,48.8z"/>
	<path class="st29" d="M238.9,39.8c2.1,2.9,0.9,6.2,1,9.3c0.1,3,1.2,1.2,2.1,0.7c1.5,0.5,2.4-0.8,3.6-1c1.2-0.2,2.8-1.2,3.3,0.6
		c0.4,1.3-0.9,2.4-2.1,2.9c-1.8,0.9-3.8,1-5.7,1.3c-3.2-0.1-3.4-2.4-3.5-4.8c-0.1-2.7,0.1-5.5-0.8-8.1c0-0.2,0.1-0.5,0.2-0.7
		C237.7,39.9,238.3,39.9,238.9,39.8z"/>
	<path class="st30" d="M15,35.8c-1.8,19.8,0,39.6-1.3,59.4c-0.4,5.5-1.2,11.3-1.9,16.9c-0.3,2-0.4,4.9-3.6,5.2C8.8,92,3.7,67.1,2,42
		c-0.4-4.3,1.4-5.5,5.6-4.5C10.1,38.1,12.7,36.9,15,35.8z"/>
	<path class="st31" d="M29,139c-0.2-0.1-0.5-0.2-0.7-0.2c-1.7-1.5-1.7-3.5-1.7-5.5c-0.1-10.4-0.1-20.7,0-31.1c0-2.1,0.2-4.3,1.4-6.2
		c5.2-4.2,11.6-2.6,17.6-3.5c0.8-0.1,1.6,0.6,1.8,1.4c0.2,0.9-0.3,1.6-1,2.1c-1,0.6-2.1,0.8-3.5,1.4c4.2,3.5,1.1,9.1,4.5,12.7
		c-1.7,1.9-4.5,2.1-5.9,0.8c-3.3-3.2-10.5,0-11.2-6c0.4,7,2.7,9.2,10.5,7.6c5.9-1.2,11.8-1.7,17.8-1.6c6.4-0.4,12.8,1.9,19.3,0.2
		c0.1,0,0.3,0,0.5,0c2.5,0.6,6.4,0.3,6.4,3.4c0,2.8-3.7,1.9-5.8,2.2c-8.9,1.4-17.8,1.9-26.8,2.8c-3.2,0.3-5.4,1.2-6.5,4.3
		c-1.6,1.9-3.9,1.6-6,1.5c-2.7-0.1-5-0.7-3.8-4.3c-4.8,0-6.1,2.3-5.7,6.5c0.3,2.8,0.9,6-1.1,8.6C29.1,137.2,29,138.1,29,139z"/>
	<path class="st32" d="M45.1,124.2c-0.7-4.6,1.7-5.8,6-6.1c11.1-0.8,22.1-2.1,34-3.3c-2.8-2-5.6-3-7.5-2.4
		c-6.7,2.3-13.1-1.1-19.6-0.2c-0.6-0.9-0.6-1.8,0.3-2.5c2.3-1.3,4.8-1,7.3-1c11.3-0.1,22.6,0,33.8-0.1c2.7-0.2,5,0.3,7.4,1.7
		c4.6,2.7,9.9,1.4,14.9,1.2c0.5-0.2,0.9-0.4,1.4-0.6c1.1-0.2,2.1-1.8,3.3-0.4c0.9,3.5-1.6,4.7-4.1,5.4c-2.2,0.6-4.3,1.3-6.4,2.3
		c-1.8-3.4-4.6-3.4-7.9-2.9c-14.3,2.2-28.6,4.3-42.9,6.4c-1.6,0.2-3.3,0.3-5,0.4c-5.4-0.7-9.8,2.8-14.9,3.2
		C44.8,125.1,44.7,124.7,45.1,124.2z"/>
	<path class="st33" d="M198,152c-0.2,1.5,1.3,1.9,2,2.9c-10.9-0.1-22,1.6-32.8-0.8c-13.6-3.1-24.9-9.9-32.2-22.1
		c-3.6-6.1-6.6-12.8-15.8-10.6c-1.3,0.3-2.1-0.8-2.4-2c3.1-3.7,7.7-2.6,11.6-3.9c1.7,0.1,2.9,1,4,2.1c1.2,1.5,2.5,2.9,3.5,4.5
		c1,3.3,4,5.3,5.4,8.3c7.2,11.2,16.8,18.5,30.8,18.3c6.8-0.1,13.5,1.5,20.3,0.7C194.3,149.2,197.3,148.8,198,152z"/>
	<path class="st34" d="M129.1,116.3c-4.1,1-8.2,2.1-12.3,3.1c-0.3-0.3-0.5-0.7-0.8-1c0.7-2.3,2.3-3.1,4.7-3.2
		c2.9-0.1,5.5-1.1,5.3-4.8c-2.2-2.9-0.8-6.2-1.3-9.3c-0.2-1.4,1.5-3.1-0.7-4.2c-2.1,2.9,0.5,6.7-1.7,9.6c-3.2,1.1-3-1.2-3-3.1
		c0-3.1-1.1-5.3-4.5-5.5c-2.3-0.1-4.6-0.3-6.8,0.3c-2.6,0.5-1.8,2.3-1.6,3.9c0.1,1.2,0,2.3-0.4,3.4c-0.5,1.1-1.2,2.1-2.5,2
		s-2-1.1-2.3-2.3c-0.6-3.1-0.7-6.1,0.1-9.2c0.8-1.6,2.2-2.6,3.9-2.4c3.6,0.5,6.6-1.5,9.9-2.2c7.4-0.6,14.9-0.6,22.3,0
		c1.3,0.3,2.6,0.6,3.9,0.7c3.9,0.3,5.5,2,3.9,5.8c-1.2,2.5-3.7,3.7-5.8,5.2c-6.7,0.7-9.7,4.4-9.1,11
		C130.2,115,129.7,115.7,129.1,116.3z"/>
	<path class="st35" d="M45.1,124.2c0,0.3,0,0.7,0,1c-0.9,1.4-0.5,2.8,0,4.2c-2.2,1.5-4.7,0.9-7,0.5c-2.2-0.3-3.9-0.1-4.4,2.4
		c-1.3,1.4,1.4,2.3,0.4,3.6c-1.6,0.1-3.3,0.2-4.9,0.3c0-5.4,0-10.7,0-16.1c1.8-0.4,3.4,2.5,5.2-0.6c0.9-1.6,3,1.7,5,0.6
		c-0.2,2.3-2.4,1.6-2.9,3.5C39.3,124.7,42.3,124,45.1,124.2z"/>
	<path class="st31" d="M45.1,129.2c-0.7-1.3-2.4-0.7-3.3-1.4c0.4-2,2.7-1.1,3.3-2.5c4.8-2.5,9.6-4.7,15.2-2.9
		c-6.2,0.6-8.3,6.4-12.2,9.8c-1.4,0.6-1.6-0.7-2.3-1.3C45.4,130.3,45.1,129.8,45.1,129.2z"/>
	<path class="st13" d="M46.1,130.2c0.6,0.6,1.3,1.3,1.9,1.9c-3.3,6-9,3.8-14,3.9c0-1.1-2.2-1.4-1-2.9
		C37.1,130.7,42.1,132.5,46.1,130.2z"/>
	<path class="st36" d="M198,152c-1.9-1.5-4.4-1.7-6.5-1.5c-10.4,0.7-20.6-0.5-30.9-2.1c-4.8-0.8-8.3-3.9-11.5-6.9
		c-3.5-3.3-7.9-6.1-9.1-11.3c4.4-1.3,8.4,0.8,12.4,1.9c5,1.4,9.4,4.1,13.8,6.8c1.7,1,3.4,2.4,5.2,0.2c0.4-0.3,0.8-0.5,1.2-0.7
		c6.4-1.2,13.1-1.1,19.5-2.6c1.5-0.4,4,0.1,3.7-2.8c0.3-1.1,1.2-1.6,2.2-1.7c8-0.8,12.9-6.8,18.8-11.2c2.5-1.8,2-5.6,4.7-7.4
		c0.9-0.5,1.8-0.9,2.8-0.3c1,1.1,1.2,2.6,2,3.9c0.9,1.5,2.1,2.2,4.1,1.9c5.7-0.9,5.7-0.8,6,5.4c-0.8,6.2-3.9,11.5-7.2,16.6
		c-1.3,2.1-2.7,4.1-3.5,6.5c-2.2,6.6-4.1,7.8-11.2,7c-0.8-0.1-1.7-0.2-2.3,0.4C207.2,154.6,203,150.8,198,152z"/>
	<path class="st37" d="M248,80.6c-1.7,0-3.4,0-5,0c-7.3-1.6-13.6-5.2-19.6-9.5c-1.9-1.4-4.2-2-6.6-2c-13.3-0.2-26.6,0.1-39.9,0.1
		c-6.5,0-8.7,2.2-10.7,8.3c-0.6,1.8,0,4.7-3.2,4.8c-5.5-0.4-11.1-0.6-16.6,0.3c-3,0.2-5.9,1.1-9,0.4c-1.3-1.7,0.2-2.9,1.2-2.8
		c2.5,0.2,1.6-1.9,2.3-2.8c4.4-2.4,9-0.2,13.5-0.3c3.6,0,5.1-1,5.4-4.5c0.4-3.4,1.4-6.7,3.9-9.4c1.9-2.2,4.1-4,6.7-5.4
		c1.7-0.5,3.3-0.4,5-0.1c9,1.1,18.1,2.3,27.2,0.9c6.3-1.9,12.4-2.4,18.7,0.2c2.2,0.9,4.9,0.2,7.4,0.3c4.1-0.7,7.4,0.9,10.5,3.4
		c4.5,3.5,9.1,6.7,15.1,6.8c1.5,0,3,0.6,4.2,1.5c5.7,4.1,12,5.2,18.9,4.3c4.2-0.6,8.2,0.9,12.4,1c9,0.1,17.9-0.3,26.7-2.3
		c6.3-1.4,12.9-1.4,19.3-0.6c4.3,0.5,8.6,0.4,12.9,0.4c4.2,0.1,8.3-1,10.3-5.6c2.2-1.8,2.7,0.4,3.5,1.6c2.8,4.2,4.5,4.3,7.5,0.3
		c0.8-1.1,0.9-3,3-2.4c0.9,1.1,0.9,2.5,1.5,3.6c2.5,4,0.7,6.4-2.9,8.3c-16.2,0.8-32.4-0.1-48.6,0.5c-5.5,0.2-11.2-1-16.6,1.3
		c-11.8,0.6-23.6-0.7-35.4-0.4c-6,0.1-11.9,1.5-17.9,0.6C251.6,81.3,249.7,81.4,248,80.6z"/>
	<path class="st38" d="M162.9,81.5c2.8-1.2,2-4.3,2.4-6.1c1.3-6.2,5.9-7.5,10.7-7.6c14.1-0.3,28.2-0.1,42.3-0.1
		c4.4,0,7.3,3,10.4,5.4c4.4,3.3,10.1,3.9,14.3,7.5c-1.3,0-2.6-0.1-3.9,0c-1.1,0.1-2.5-0.6-3.1,0.6c-0.6,1.1,0.4,2.2,1.2,3
		c1.5,1.5,1.9,3-0.7,3.3c-4.6,0.5-8.3,3.2-12.5,4.9c-0.8,0.5-1.3-0.1-1.8-0.6c-2-3.6-5.6-4.1-9.2-4.4c-5-1.8-10.1-1.4-15.2-1.4
		c-6.1,0-12.2,0-18.4,0c-10.8,0-16.5,3.9-20.6,13.7c-0.4,0.9-0.7,1.9-1.3,2.7c-2.5,1.5-3.7-0.2-4.6-2.1c-1.5-3.2-1.6-6.4,0.3-9.5
		c1.5-2.5,2.9-5.2,4.7-7.6C159.3,81.7,160.8,80.8,162.9,81.5z"/>
	<path class="st39" d="M222,113.3c-2.1,6.6-7.6,10.2-12.6,14.3c-4.1,3.3-8.7,4.3-13.4,5.4c-6.3,1.3-12.5,1.3-18.7-0.4
		c-1.1-3.9,1.7-4.4,4.4-4.6c4.3-0.4,8.7,0.2,13-0.4c5.3-1.3,9.3-4.8,13.3-8.3c1.5-1.3,2.8-2.8,4.5-3.8c3.6-0.7,5.3-3.1,6.8-6.4
		c1.6-3.6,2-8.1,5.8-10.6c1.6-0.8,3.3-1.4,4.7-2.5c2.9-2.3,4.9-1.4,7.3,0.9c4.6,4.5,6.4,4.1,9.6-1.7c1.8-3.3,4.5-5,8-6.1
		c3.6-1.2,4.1,0.2,3.4,3.3c-0.5,2.3-1.3,4.4-3,6.1c-6.2,2.3-12.7,4.2-14.9,11.6c-1.8,1.3-3.2,1.1-4.1-1.1c-0.4-1.6-0.4-3.3,0.1-4.9
		c0.9-3.1-0.9-5.2-3.3-5.7c-2.8-0.6-4.8,1.7-5.2,4.3C226.9,106.8,224.8,110.2,222,113.3z"/>
	<path class="st40" d="M237,108.3c0.3,2.6,1.7,1.5,3,1c3.2-1.9,5.4-0.5,5.7,3.6c0.4,4.6-0.4,9-1.7,13.3l0,0
		c-2.6,7.8-7.1,14.8-9.1,22.9c-0.4,1.5-1.1,2.7-1.7,4.1c-2.3,5.3-2.4,5.3-8.2,3.9c-2.8,0-5.6-0.1-8-1.9c1.3-1.6,3-1,4.6-0.9
		c3.7,0.1,5.9-1.3,6.8-5c1.5-6.5,4.9-12.2,7.7-18.2c1.4-3.1,2.6-6.2,3.2-9.7c-2.3-0.2-2.3,2.4-4.1,2.1c-0.1-1.8-0.2-3.5-0.3-5.3
		c-8.5,2.5-10.2,1.6-10.8-5.7c1.1-4.5,3.1-8.6,5-12.8c0.6-1.3,1.8-1.9,3.3-1.5c2.1,0.6,3.5,2,3.7,4.1
		C236.3,104.2,236,106.4,237,108.3z"/>
	<path class="st41" d="M235.1,123.4c0.3-0.4,0.7-0.7,0.8-1.2c0.6-1.6,0.9-4,3.4-2.9c2,0.9,1.7,2.8,0.8,4.7
		c-2.8,6.2-5.5,12.5-8.2,18.7c-0.5,1.2-1.1,2.4-1.5,3.6c-3.6,9.1-3.6,9.1-13.4,8.8c-1.6-0.4-3.3-0.7-4.9-1.1c1.1-1.4,2.7-0.8,4.1-1
		c3.6-0.5,6.6-0.8,7.6-5.7c1.3-6.3,7-10.7,9.1-16.9C233.7,128,235.2,125.9,235.1,123.4z"/>
	<path class="st42" d="M248,80.6c19.7,0,39.3,0,59,0c3.4-2.2,7.2-0.5,10.7-0.7c9.9-0.5,19.9-0.8,29.8,0.2c1,0.7,1.1,1.5,0.4,2.5
		c-16,0-32,0-48,0c-2.7,0-5.3,0-8,0c-3.1-1.9-6.5-1-9.7-0.9c-7.5,0.4-14.9-1.1-22.5,2C257.5,84.5,251.4,83.9,248,80.6z"/>
	<path class="st43" d="M244,126.2c0.2-4.5,0.7-8.9,0.5-13.4c-0.1-2.2-0.9-5.1-4.5-3.5c0.8-5.1,3.3-8.6,8.8-9.5
		c1.4-0.2,2.7-1.7,4-2.6c1.5-1,2-0.2,2.2,1.2C251.3,107.7,247.6,116.9,244,126.2z"/>
	<path class="st44" d="M225,157c5.5-0.1,7.6-3,9.2-9.5c1.8-7.7,5.1-14.9,9.9-21.3c-0.6,4.6-2.5,9.1-1.2,13.9c0.2,0.8,0,2-0.8,2.1
		c-7,1-5.8,7.5-7.7,11.7C231.8,159.5,230.4,160.4,225,157z"/>
	<path class="st45" d="M225,98.4c-1.7,3.9-3.5,7.8-5,11.8c-1.3,3.4-2.9,6.1-7,6c-1.2-1.5-0.2-2.8,0.3-4.1c1.8-4.2,3.5-8.6,5.5-12.7
		c1.3-2.5,1.7-4.8,0.7-7.4c0.9-1.5,2.2-1,3.5-0.6c0.3,0.3,0.6,0.6,1,0.9C224.3,94.4,224.7,96.4,225,98.4z"/>
	<path class="st13" d="M388,50.7c4.1,0,8.3,0.3,12.4,0c4-0.2,6.6,0.9,8.1,4.8c0.6,1.6,2.2,2.8,3.4,4.1c0.4,0.4,0.7,0.8,1.1,1.1
		c2.9,0.5,5.9-0.3,8.8,0.2c0.9,0.3,1.8,0.8,2.2,1.8c0,0.6,0,1.2,0,1.8c-0.7,0-1.3,0-2,0c-2.7,0.3-5.3-1.3-8,0l0,0
		c-3.5-0.2-6-2-7.5-4.9c-2.1-3.9-5.1-5.8-9.7-5.1c-2.7,0.4-5.3-0.2-7.8-1C388.3,52.8,387.4,52,388,50.7L388,50.7z"/>
	<path class="st5" d="M413.9,64.7c2.7-1.6,5.3-1.6,8,0C419.2,66.6,416.6,64.1,413.9,64.7z"/>
	<path class="st46" d="M423.9,62.8c-0.8-0.2-1.8-0.2-2.3-1.1c-2.1-1-4.6,0.2-6.7-1.1c-0.3-0.9-0.7-2,1-2c3.9,0,7.7,0.1,11.2,2.2
		C426.3,62.1,425.3,62.7,423.9,62.8z"/>
	<path class="st28" d="M414.9,60.7c2.2,0.6,4.7-0.9,6.7,1.1c-3,0.9-5.9,0.5-8.7-0.9C413.6,60.8,414.2,60.7,414.9,60.7z"/>
	<path class="st0" d="M302.7,114.9c-3.3,3.9-7.9,3.2-12.2,3.1c-2.8,0-5.6,0.1-8.4,0.1c-0.6-0.3-1.3-0.5-1.9-0.9
		c-3-3.8-5.1-7.9-6.1-12.6c-0.2-0.4-0.4-0.9-0.5-1.4c-0.5-5.5,0.1-10.6,5.3-14.1c1.5-0.4,3,0.1,4.5-0.6c4.6,0,9.3,0,13.9,0
		c6.6,0.1,8.3,1.9,8,8.2c-0.1,3.5-0.3,6.9-0.3,10.4C305,110.1,304.7,112.7,302.7,114.9z"/>
	<path class="st47" d="M279.2,89.6c-3,4.1-5.7,8.3-4.3,13.8c-7.1,2.6-8.2,4.5-7.3,12.6c0.1,0.8,0.1,1.6-0.6,2.3c-3,2.5-6.5,2.1-10,2
		c1.7-2.4,6.3,0.5,6.6-2.8c0.2-2.3-2.3-4.8-3.6-7.2c-0.5-1-1.2-1.9-1.9-2.8c0.6-1,1.3-2.1,1.9-3.1c3.4-0.1,5.4-2.1,6.8-5
		c0.7-1.5,1.3-3,1.9-4.6C271.3,88.4,271.8,88.2,279.2,89.6z"/>
	<path class="st48" d="M279.2,89.6c-5.2-1-8.3,0.8-9.6,6.2c-0.7,3-2.2,6-4.7,8.4c-1.9,1.8-3.2,1.6-4.9,0.2c0.6-4.6,3-8.6,4.7-12.7
		c0.9-2.1,3.4-3.1,5.8-3.1c4.3,0,8.5,0.1,12.8,0.1C281.9,88.9,280.6,89.3,279.2,89.6z"/>
	<path class="st49" d="M347.9,80.6c-13.6,0-27.3-0.1-40.9-0.1c0.8-1.9,2.4-2,4.2-2c20.6,0,41.2,0,61.8,0c6.7-2.5,13.3-2.4,20,0
		c2.2-0.1,1.7-1.4,1.2-2.7c-0.8-2.3-1.5-4.7-1.3-7.2c1.4,1.2,1.7,2.9,1.9,4.4c0.4,4.5,2.7,6.3,7.2,5.5c3.7,2.4,8,0,11.9,2
		c-6.3,0-12.6,0-18.9,0c-1.5,1.6-3.4,1-5.2,1c-11.9-0.1-23.8-0.2-35.7,0.4C351.9,82.1,349.8,81.9,347.9,80.6z"/>
	<path class="st50" d="M347.9,80.6c15.7,0,31.3,0,47,0c1.1,1.1,2.8,2,1.8,3.9c-10.7-3.1-21.5-1.7-32.3-1.6c-5.5,0.1-11,1.6-16.4-0.3
		C347.9,81.9,347.9,81.2,347.9,80.6z"/>
	<path class="st49" d="M387.9,50.8c0.3,1,0.7,2,1,3c1.7,4.9,3.6,9.7,4,14.9C390.1,63,387.5,57.3,387.9,50.8z"/>
	<path class="st51" d="M267,118.2c-0.4-1.6-0.8-3.2-1.2-4.8c-1.5-6.3,2.5-10.7,9.1-10.1c0.2,0.2,0.3,0.5,0.2,0.8
		c0.1,5.2,1.2,9.9,5.8,13.2c0.4,0.3,0.8,0.6,1.2,0.9C277.1,118.2,272.1,118.2,267,118.2z"/>
	<path class="st30" d="M28,49.7c0.1-0.6,0.1-1.2,0.2-1.8c0.3,0,0.6-0.1,0.9-0.1c1.3,0,2.2,0.7,3.1,1.5c4.2,3.5,8.6,4.8,13.6,1.4
		c1-0.7,2.8-1.1,3.8-0.7c6.9,3.3,14.1,0.1,21,0.9c0.3,0,0.7,0,1,0c7.6,0.6,9.3,3.2,6.2,9.8c5.2,0.1,5.5-0.2,4.8-5.1
		C82.2,53,84,53,85.7,52.9c4.7-0.5,9.3,0.5,13.8,1.3c2,0.3,3.9,0.7,5.9,0.6c2.7-0.1,4.9,0,5,3.7c0.1,2.2,2,3.3,4.3,3.3
		c2.2,0,4.3,0,6.5,0c0.6,2.1-1.1,3.3-2.1,4.7c-2.2,3-2.7,6.5-3.7,9.9c-1.7,0.9-3.6,0.7-5.4,0.7c-18.9,0-37.8,0.1-56.7-0.1
		c-5.4-0.1-10.8-0.9-16.3-0.7c-1.9,0.1-4-0.6-5.7,0.9c-0.9,1.1-0.8,2.5-0.9,3.8c-0.1,2.2,0.3,4.6-1.2,6.6c-0.6,0.3-1.1,0.3-1.6-0.2
		c-1.9-2.7,0-5.8-1-8.7c-0.2-2.1-0.2-4.1-0.1-6.2c0.3-5.2-0.2-10.5,0.3-15.7C28,54.5,27.1,52,28,49.7z"/>
	<path class="st52" d="M175,58.7c-1.7,0-3.3,0-5,0c-2.1,1.3-3.1-0.2-3.9-1.6c-1.5-2.7-3.8-4.5-6.1-6.3c-1.8-0.8-2.2-2.5-3-4.1
		c0.6-1.2,1.6-1.9,2.8-1.3c3.6,1.8,7.3,2.4,11.2,2.5c0.4,0,0.6,0.7,0.9,1.1c0.3,0.8,0.5,1.6,0.5,2.4c-0.2,3.4,2.2,3.6,4.6,3.7
		c6,0.2,11.9,0.1,17.9,0.2c11.1,0.1,22.2,0,33.3,0c1.8,0,3.7,0.3,4.9-1.7c0.6-1.7,0.4-3.7,1.4-5.3c2.2,0.4,1.5-2.2,2.8-2.8
		c2,0.8,1.2,2.6,1.1,3.8c-0.4,4,1.4,5.1,5.2,5.1c6.2-0.1,12.5,0.7,18.7,0.6c1.8-0.1,3.7,0.3,4.4-2.1c0.2-0.5,0.4-0.9,0.7-1.3
		c1.4-1.6,3.2-2.4,5.4-2.1c0.3,0.2,0.6,0.4,0.6,0.7c0.5,6,2.3,6.9,8,3.9c0.6-0.3,1.1-0.7,1.8-0.9c0.5-0.1,1,0,1.5,0.2
		c0.7,0.5,0.9,1.3,1,2.2c1.1,3.9,4.4,3.5,7.3,3.5c19.4,0.1,38.8,0,58.2,0.1c2.5,0,5-0.3,7.3,0.9c2.1,3.5-0.8,3.6-2.8,3.6
		c-4.5,0.2-9,0.4-13.5,0.4c-18.1,0-36.3,0-54.6,0.4c3.9,1.6,7.8,3,11.2,5.5c1.5,1.1,3.1,2.3,2.3,4.4c-0.7,1.8-2.4,2-4.2,2.1
		c-8.8,0.3-17.6-1.1-26.4-0.3c-0.6,0.1,0,0.3-0.5-0.1c-9.6-7.5-23.9-4.8-32.5-14.6c-2.3-2.6-5.5-3-8.6-0.9
		c-4.3-0.1-8.5,0.5-12.5-1.8c-4.5-2.5-8.9,1.3-13.4,0.8C193.7,59.4,184.3,59.8,175,58.7z"/>
	<path class="st53" d="M29.1,76.6c1.8-2.3,4.3-2.2,6.8-2c5.5,0.4,11.1,0.7,16.6,0.8c19.6,0.4,39.2,0.2,58.8,0.1
		c1.6,0,3.4,0.5,4.7-0.9c1.8-4.3,4.1-8.2,7-11.9c4.6-3.6,9.9-5.4,15.7-5c6.5,0.4,13.1-1.5,19.3,2.6c2.8,1.9,3.2-2.5,4.9-3.6
		c2.9,0.9,2,2.8,1.2,4.5c-0.9,1.8-2.5,2.9-4.4,3.5c-7.7,0.8-15.5,0.2-23.2,0.4c-3.6,0.1-7.2,0.2-10.7,1.5c-3.1,3.6-6.2,7.3-6.4,12.4
		c-4.1,1.3-8.2-0.4-12.3-0.5c-8.8-0.2-17.6-0.4-26.3-0.4c-14.9,0-29.8,1.5-44.7,0.9C33.7,78.9,30.8,79.4,29.1,76.6z"/>
	<path class="st54" d="M160,63.7c2.1-1.9,5.7-3.1,3-6.9c-1.1-1.9-2.9-3.5-3-6c3.6-0.2,5.3,2.4,6.7,4.9c0.8,1.5,1.2,3,3.3,3.1
		c-0.8,2.5-4,2.7-5,5c-3.9,1.9-4.6,5.4-4.5,9.1c0.1,3.8-1.9,5.2-5.3,4.6c-2.6-0.4-5.2-0.1-7.9-0.3c-4.2-0.3-7-2.1-9.3-5.4
		c-2.2-3.2-1.8-5.1,2.1-6c3.1-0.8,6.3-0.6,9.4,0C153.4,66.3,156.8,65.8,160,63.7z"/>
	<path class="st15" d="M171.2,48.9c-4.1-0.5-8.4,0.5-11.9-2.8c-0.3-0.3-1.5,0.3-2.3,0.5c-0.7-1-1.3-2-2-3c1.3-2.9,2.3-4.5,5.4-0.9
		c2.6,3.1,6.4,5.1,10.9,2.5c1.3-0.7,3.2-0.5,4.9-0.5c17.6,0,35.2-0.1,52.8,0c3.4,0,6.1-0.3,7.1-4c1.1,1.5,2.2,2.9,1,4.9
		c-0.2,1.3,0.2,3.1-2.2,2c-0.3-0.1-0.6-0.1-0.9-0.2c-6.3-0.9-12.6-0.4-18.9-0.4c-13.5,0-27-0.2-40.4,0.1c-0.5,0.2-1,0.4-1.4,0.7
		C172.7,48.6,172.1,49,171.2,48.9z"/>
	<path class="st55" d="M36.1,36.9c-1.2,0-2.3,0-3.5-0.1c-1.5-0.2-2.4-1.1-2.4-2.6c-0.1-1.8,1.1-2.4,2.6-2.2
		c4.4,0.6,8.8-1.5,13.3-0.1c3.3,1,5.7-2.7,9-1.9c0.7,2.2-2.3,1.9-2.3,4.2c0.4,1.1,2.5,0.5,3.3,1.7c-1.7,3.2-4.5,1.7-6.9,1.5
		C44.8,37.1,40.5,35.5,36.1,36.9z"/>
	<path class="st30" d="M118.8,59.7c-2.3-0.6-6.6,0.6-6.4-3.5c0.2-4,4.8-2.8,7.3-2.8c2.4,0,6.9-0.4,6.7,3.2
		C126.2,60.2,122.1,59.6,118.8,59.7z"/>
	<path class="st56" d="M123.1,62.7c-1.1,4.7-3.7,8.5-7,11.9c-3-0.9-2.7-0.7-1.4-2.6c2.3-3.4,3.4-7.4,6.4-10.4
		C121.9,61.7,122.7,61.9,123.1,62.7z"/>
	<path class="st57" d="M56,35.8c-1.8-0.3-4.6,1-5.2-1.4c-0.7-2.8,2.7-3.1,4.2-4.6c0.4,0.4,0.9,0.7,1.3,1.1
		C56.2,32.6,56.1,34.2,56,35.8z"/>
	<path class="st21" d="M41,42.7c0,1.1-0.4,2-1.6,1.9c-1.6-0.1-2.2-1.2-2.3-2.6c0-1.1,0.4-2,1.6-1.9C40.3,40.1,40.9,41.2,41,42.7z"/>
	<path class="st0" d="M366,10.8c0.6,0.1,1.1,0.3,1.7,0.4c6.2,3.6,9.5,14.8,6.3,21c-1.3,2.6-3.6,4.6-4,7.7c-3.7,2.2-7.3,2-10.9-0.1
		c-1-2.5-3-2.2-5.1-1.8c-1.9,1.7-4.3,1.2-6.5,1.3c-2.1,0-4.3,0.1-6.4,0.3c-2.1,0-4.2-0.4-6.3-0.3c-1.6,0-3.2,0-4.8,0
		c-1.1,0-2.2,0-3.2,0c-1.6,0.1-3.3,0-4.9,0c-1.7,0.1-3.3,0-5,0c-2.3,0.1-4.5,0-6.8,0c-1.7,0.1-3.4,0.1-5.1,0c-2.3,0.1-4.6,0.1-6.9,0
		c-2,0.1-4,0.1-6,0c-2.3,0.1-4.5,0-6.8,0c-1.6,0-3.3,0.1-4.9,0c-2.5-0.2-4.8,0.4-7,1.5c-1.9,0.4-3.6,0.4-5-1.2
		c-1.5-6-0.6-12.1-0.9-18.2c-0.1-1,0.1-2,0.1-3c-0.3-7.7-0.3-7.7,7.7-7.7c28.4,0,56.9,0,85.3,0C362.4,10.6,364.2,10.4,366,10.8z"/>
	<path class="st31" d="M229,60.7c2.6-3.1,5.9-3.6,8.6-0.7c5.5,5.7,11.6,9.4,20.1,8.8c3.9-0.3,6.8,3.1,10,5.1
		c1.5,0.9,2.7,1.7,4.5,1.7c8.2-0.1,16.3,0,24.5,0c1.5,0,3.3,0.2,3.8-1.6c0.6-2-1.5-2.2-2.7-3c-3.2-2.1-6.5-3.9-10.4-4.5
		c-1.6-0.2-3.9-0.8-3.8-2.6c0.2-2.3,2.7-1.2,4.1-1.2c19.1-0.1,38.3-0.1,57.4,0c3.8,0,7.5-1.2,11.3-0.1c1.2,0.3,2.3-0.3,2.4-1.8
		c-0.4-2.2-0.6-4.3,1-6.1c1.4-1.6,3.3-0.7,4.9-1c0.5,0.4,0.8,0.8,1,1.3c0.5,2.5,0.7,4.9-0.3,7.3c-2.1,1.5-4.5,2.7-5.6,5.2
		c-0.4,4.9-6.3,8.5-12.5,7.9c-12.6-1.2-25.1-2.2-37.6,1.1c-7.2,1.9-14.7,1.5-21.8,0.7c-6.8-0.8-13.5,0.1-20.2-0.7
		c-0.3,0-0.7,0.1-1-0.1c-8.8-5.9-20.5-5.3-28.5-12.9C235.8,61.3,232.8,59.4,229,60.7z"/>
	<path class="st58" d="M283.9,53.7c-0.3,0-0.6,0-1,0c-2,0.7-3.9,0-5.9-0.3c-2.5-0.3-4-1.7-3.7-4.2c0.2-2.4,2.2-2.5,4.1-2.7
		c1.8-0.2,3.6-0.1,5.4-0.7c0.8-0.2,1.6-0.3,2.5-0.4c2.2-0.1,4.5-0.2,6.7-0.1c2-0.1,4-0.1,5.9,0c2.3-0.1,4.6-0.1,6.8,0
		c1.7,0,3.4-0.1,5.1,0c2.2,0,4.5-0.1,6.7,0c1.6,0,3.3-0.1,4.9,0c1.3,0,2.6,0,3.8,0c1.3-0.1,3.7,1.5,3.2-1.8c1.1-1.3,2.2-1.3,3.2,0.1
		c0.9,1.4,2.3,1.7,3.8,1.7c1.9,0,3.7,0,5.6,0c2-0.1,4,0,6,0c3,0,6.1-0.7,8.7,1.5c-0.4,2.1,5.4,3.1,1,5.9C355,54.1,353,54,351,54
		c-20.6,0-41.3,0-61.9,0C287.5,54.2,285.8,53.5,283.9,53.7z"/>
	<path class="st59" d="M359.9,54.7c-0.3,2,0.8,4.3-1,6.1c-22.9,0-45.7-0.1-68.6-0.1c-5.7,0-6.8-1.3-5.4-6c1.4-1.1,3.2-0.9,4.8-0.9
		c20.8,0,41.6,0,62.4,0c1.7,0,3.4-0.2,4.8,0.9C358,54.7,358.9,54.7,359.9,54.7z"/>
	<path class="st60" d="M392.9,78.5c-6.7,0-13.3,0-20,0c3.9-3.6-1.1-7.3,0-10.9c-1.3-1.3-1.2-2.9-0.9-4.5c0.2-0.8,0.6-1.5,1.1-2.2
		c0.4-0.4,0.8-0.8,1.3-1c2.2-0.6,4.4-1,6.4,0.7c0.3,0.7-2.7,1.6,0.1,2c2.5,0.3,2.7-2.3,4.2-4.3c2.7,6.1,6.7,10.8,6.3,17.3
		C391.4,76.9,392.5,77.5,392.9,78.5z"/>
	<path class="st61" d="M357,54.7c-24,0-48,0-72,0c-0.3-0.3-0.7-0.6-1-0.9c1.2-1.3,2.8-0.9,4.2-0.9c22.9,0,45.9,0,68.8,0
		C357,53.4,357,54,357,54.7z"/>
	<path class="st62" d="M385.8,49.6c-1.3,2-3.3,1.1-5,1.1c-4.8,0.1-9.6,0-14.4,0c-6.7,0-7.2-0.4-7.5-7.1c0-1,0.1-2,0.1-2.9
		c0.9-0.1,1.4,0.4,1.9,1c2.2,2.5,5.3,2.6,8.2,2.2c4.2-0.6,8.3-0.3,12.3,0.8C383.9,45.4,384.3,48,385.8,49.6z"/>
	<path class="st63" d="M355.9,46.9c-3,0-6,0-9-0.1c-2-3-2-5.9,0-8.9c2.3,0,4.7,0,7,0C357.1,40.4,357,43.5,355.9,46.9z"/>
	<path class="st64" d="M385.8,49.6c-1.9-0.7-2.5-2.7-3.9-3.9c-4.6-2.3-9.3-3-14.4-2.1c-2.6,0.4-5.3,0-7.6-1.8
		c-0.3-0.4-0.6-0.7-0.9-1.1c-0.1-0.3-0.1-0.6,0-1c3.6,0,7.3,0.1,10.9,0.1c2.7,0,5.3,0,8,0C384.7,39.8,384.8,45,385.8,49.6z"/>
	<path class="st65" d="M380.9,60.6c-2.3,0-4.5,0-6.8,0c-1.9-1.9-1.7-3.9-0.2-5.9c1.2,0,2.3,0,3.5,0.1
		C382.1,55,382.6,55.8,380.9,60.6z"/>
	<path class="st66" d="M365.1,54.7c0-0.3-0.1-0.6-0.2-0.9c2.4-1.4,4.7,0.6,7.1,0c0.7,1.1,1.1,2.3,0.6,3.6c-1.9,1.4-3.3,4.6-5.5,4.1
		C363.7,60.7,366.7,56.8,365.1,54.7z"/>
	<path class="st67" d="M371.8,57.8c0-1.3,0.1-2.7,0.1-4c0.6,0.3,1.3,0.6,1.9,0.9c0.1,2,0.1,3.9,0.2,5.9c-0.1,0.3-0.2,0.5-0.3,0.8
		C370.8,61.4,370.9,59.8,371.8,57.8z"/>
	<path class="st68" d="M29,33.8c-1.1,0.6-2.4,4.8-3.3-0.2c-0.3-1.8-2.1-1.8-3.6-1.8c-2.9-0.8-1.3,2.8-3.1,3.1
		c-2.7-0.7-2-2.7-1.6-4.4c0.4-1.8,1.7-2.8,3.7-2.6c2.9,0.3,6.5-1.4,7.9,2.9C29,31.9,29,32.8,29,33.8z"/>
	<path class="st69" d="M28.2,87.4c0.3,0,0.6,0.1,0.9,0.1c1.4,1.3,1.3,3.1,1.3,4.8c0,1.2-0.5,2.2-1.3,3.1c-1.6,4.3-1,8.8-1,13.2
		c0,10.1,0.1,20.1,0.1,30.2c-10.2,0.6-9.5,0.6-9.6-9.3c-0.2-12.8-0.3-25.5,0.1-38.3c0-1.6,0.2-3.2,0.4-4.8s0.6-3.3,2.6-3.8
		c2.5-0.6,2.2,2,3.3,2.9c1.5,1.1,1.1,3,2,4.4C27.4,89.1,27.2,88,28.2,87.4z"/>
	<path class="st70" d="M28,49.7c1,2,2,4,0.1,6c-1.7,5.6-1.8,11.2,0,16.9c0,2,0,4-0.1,6c-1,0.2-0.1,2.4-1.9,1.9
		c-6.4-0.1-7.4-0.6-6.8-7.1c0.5-5.9-0.3-11.7-0.2-17.5C19.2,48,20.2,47.3,28,49.7z"/>
	<path class="st71" d="M22.8,47.8c-2.3,0.2-3.8-0.2-3.8-3c0-3,1.8-2.9,3.9-3c2.5,0,4.2,0.6,4.1,3.5C27,48.4,24.7,47.6,22.8,47.8z"/>
	<path class="st72" d="M26.1,80.5c0.9-0.4,0.1-2.5,1.9-1.9c0.1,2.9,0.1,5.9,0.2,8.8c-0.1,1.4-0.3,2.8-0.4,4.4
		c-3.3-1.2-2.6-3.9-2.7-6.2C25.4,83.9,25.8,82.2,26.1,80.5z"/>
	<path class="st73" d="M16.3,64.6c0-3.9,0-7.9-0.1-11.8c1.4-0.9,0.3-2.8,1.8-4.4c0,4.9,0,9.4,0,13.8C18.1,63.4,17.8,64.4,16.3,64.6z
		"/>
	<path class="st74" d="M19,35c0.3-1.5-0.4-3.4,1.6-4.3c1.1-0.5,1.5,0.2,1.5,1.1c-2.1,1.7-0.3,3,0.4,4.5C20.7,37.3,19.9,36,19,35z"/>
	<path class="st75" d="M237.1,45.8c-0.3-1.6-0.7-3.2-1-4.9c0.3-0.1,0.5-0.2,0.8-0.2c4.2,1.6,1.5,5.1,2.1,7.7c0.4,2-0.6,4.6,3,4.3
		c7.8-1.6,15.6-1.9,23.5-1.2c1,0.2,1.8,0.6,2.5,1.3c0.1,2.3-0.6,4-3.2,3.9c-8.1-0.3-16.2-0.6-24.2-0.9c-2.4-0.1-2.4-1.6-2.5-3.3
		C237.9,50.2,238.8,47.8,237.1,45.8z"/>
	<path class="st76" d="M366,10.8c-30.6,0-61.2,0.1-91.8,0c-4.6,0-6.3,0.6-5.7,5.9c0.8,7.7,0.3,15.5,0.4,23.2
		c-3.5-3.5-4.3-7.9-4.6-12.5c-0.1-2.8,0.8-5.4,2.1-7.8c1.1-2-0.6-1.9-1.5-2.5c-6.1,0-12.2,0-18.4-0.1c-1.6,0-3.4,0.5-4.7-0.9
		c4-2.2,8.4-1,12.5-0.9c4.8,0.2,8.3-0.9,10.5-5.2c0.6-1.1,1.4-1.8,2.7-1.8c0.8,2.9,3.2,1.7,5,1.7c29.2,0.1,58.4,0.1,87.6,0.1
		C362.2,10,364.3,9.2,366,10.8z"/>
	<path class="st77" d="M265,17c3.8-1.2,3.3,1.6,2.4,3.2c-1.2,2.2-1.6,4.4-2.1,6.8c-0.4,4.6,0.5,9.2-0.2,14c-0.3,2.1,1.7,5.6,1.6,8.7
		c0,1,0,1.9-0.6,2.8c-8.1,0.1-16.1,0.1-24.2,0.2c1.7-1.8,5.2,0.1,6.4-3.4c-2.2-0.1-4.2,3.2-6.3,0.5c-0.4-1.8-1.3-3.7,1-5
		c0.1-3,0.1-5.9,0-8.9c0-1.9,0-3.8,0-5.7c0-2.1,0.6-4.5-2.9-4.6c1-2.3,4.5-0.1,4.1-3.6c-0.4-3.6,2-4,5.2-4.1
		C254.6,17.7,259.9,19.1,265,17z"/>
	<path class="st29" d="M243,35.9c1.5,3,1.6,6,0,8.9C240.5,41.8,240.6,38.8,243,35.9z"/>
	<path class="st78" d="M29.1,95.4c0-1,0-2,0-3c1.9-1.7,4.3-1.6,6.6-1.6c23.9,0,47.8,0,71.7,0c2.3,0,4.7-0.2,6.6,1.6
		c-3.3,3.7-8.2,1.1-12,3c-1,3.5-0.6,7.1-0.3,10.7c0.1,1.5,0.2,2.9-0.7,4.2c-14.3,0-28.7,0-43,0c-0.7,0.5-1.4,0.5-2.2,0.1
		c-2.5-4.1,0-8.9-1.7-13.1c-1.6,4.2-1,8.3,0.3,12.4c-0.1,0.6-0.4,0.9-0.9,1.2c-2.2,0.3-4.4,1-6.4-0.7c-2.5-1-4.1-2.2-3.1-5.4
		c1.2-3.8-1.3-6-4.5-8c2.6-0.7,4.8-1.3,7-1.9C40.6,93.5,34.9,95,29.1,95.4z"/>
	<path class="st38" d="M56.1,110.3c0.7,0,1.3,0,2,0c0,0.7,0,1.3,0,2c-5.6,0-11.2-0.3-16.7,1.7c-3.6,1.3-7.1-0.8-10.8-0.9
		c-0.9,0-1.5-0.8-1.5-1.7c0.1-3.5-0.7-7.1,0.9-10.7c0.2,2.9,1.4,5.1,3.7,6.8c2.7,1.9,4.9,0.3,7.3-0.9c-1,6.4,3.9,2.7,6,3.6
		c2.3,0,4.6,0,6.9,0C54.7,109.7,55.4,109.7,56.1,110.3z"/>
	<path class="st33" d="M101.1,110.3c0.6-4.9-1.2-10,1-14.9c0,2.7,0,5.5,0,8.2c0,1.2-0.2,3,1.6,2.9c1.4-0.1,1.3-1.6,1.3-2.7
		c0-1.1,0-2.3,0-3.4c2.2-0.2,1.9,1.8,2.7,2.9c1.3,1.8,2.5,3.7,5.1,2.9c1.5-0.4,2.7-1.6,2.3-3.3c-0.6-2.5-2.7-3-5-3.2
		c-2.6-0.2-2.6-0.3-3.2-2.3c2.5-1.9,5.3-0.6,8-1c3.7,1.8,4.8,5,3.9,8.6c-1.1,4.1,0.2,6.3,4.1,7.3c-6.3,0.9-12.8,3.3-18.4-2
		C103.4,109.2,102.3,109.7,101.1,110.3z"/>
	<path class="st78" d="M123.1,112.3c-1.3,0-2.6-0.1-4,0c-2.9,0.1-3.5-1.2-2.2-3.6c2.4-4.5,1.2-8.5-1.9-12.2c4.4,0.5,6.1,3,5.3,7.2
		c-0.3,1.6-0.1,2.5,1.6,2.7c1.5,1.2,1.2,3.3,2.2,4.7c0.2,0.4,0.1,0.9-0.2,1.2C123.7,112.3,123.4,112.3,123.1,112.3z"/>
	<path class="st33" d="M124.1,112.3c0-0.3,0-0.6,0-0.9c-1.7-5.3-1.6-10.6,0-15.9c2-1.6,3.3-1,2.7,1.4c-1.2,4.5-0.3,9-0.6,13.5
		C125.4,111,124.7,111.7,124.1,112.3z"/>
	<path class="st79" d="M177.1,132.1c6.3,0.3,12.6-0.7,18.9,0.9c0.9,0.3,2.3,0.2,2.3,1.5c0,1.1-1.4,1.3-2.2,1.5
		c-7.8,2.2-15.8,3-23.9,3.1c-0.1-0.1-0.2-0.2-0.4-0.3c0.1,0.1,0.3,0.2,0.4,0.3c-0.5,2.8-1.9,3.8-4.4,2c-8.3-5.8-17.6-9.2-27.6-11
		c-1.6-2.7-4.9-4.4-5-8c1.4-0.5,2.3,0.5,2.9,1.4c1.9,2.7,4.1,3.1,6.7,1c1.1-0.9,2.5-1.4,3.7-0.5c3.6,2.8,9.2,2,12,6.3
		c0.2,0.4,0.9,0.3,1.4,0.4c4,0.5,7.7,1.9,11.3,3c0.6,0.7,0.3-0.8-0.1-0.3c-0.1,0.2-0.2,0-0.4-0.2c-1.1-0.6-0.8-1.2,0-1.8
		C174.2,130.9,175.7,130.8,177.1,132.1z"/>
	<path class="st80" d="M161.5,131.6c-0.5,0.1-1.3,0.4-1.4,0.2c-2.5-4.9-8.9-3-12-6.8c-0.8-0.9-1.9-0.6-2.6,0.2c-4,4.4-6.7,2.4-9-1.8
		c-0.3-0.5-1-0.8-1.5-1.2c-1-1.3-2-2.6-3-4c-3-5.7-2.7-7.7,1.8-12.1c1.6-1.5,3.5-2.5,5.1-3.8c1.2-1.9,3.5-2.5,5-4
		c0.6-0.5,1.3-0.5,2-0.2c-0.4,4.8-5.1,6.5-7.6,9.7c-3.5,4.4-3.7,8.5,0.5,12.2c1.9,1.6,3.2,1.6,4-1c0.9-3.1,2.2-6,0.1-9.4
		c-1.7-2.7-0.5-5.1,3.1-5.5c1.5,2.3,2.5,4.9,4.6,6.9c2.1,3.8,3.9,7.8,6,11.7c1,2.8,4.5,3.3,5.7,6
		C162.1,129.7,161.7,130.6,161.5,131.6z"/>
	<path class="st81" d="M139,102.4c-0.8,1-1.5,2.2-2.5,3c-4.5,3.3-6.8,7.3-4.5,12.9c-1-0.7-2-1.3-3-2c0-0.3,0-0.7,0-1
		c-0.3-3.5,0.1-7,1.3-10.2C132,100.8,136.5,104.4,139,102.4z"/>
	<path class="st82" d="M114.1,92.5c-28.3,0-56.6,0-84.9-0.1c0-1.6,0-3.3-0.1-4.9c0-2.3,0-4.7,0-7c1.8-1.6,4-1.4,6.1-1.4
		c25.2,0,50.4-0.1,75.6-0.1c7.9,0,15.7,1.5,23.5,2.3c1,0.1,1.9,0.5,2.6,1.3c2.9-1,5.9-1.1,9-1c-1.1,4.7-4.4,7.9-8,10.9
		C130,92.4,122.1,92.5,114.1,92.5z"/>
	<path class="st81" d="M138,92.4c2-4.1,5.4-7.2,8-10.9c5.6-1.6,11.3-1.5,16.9,0c-1.5,0.2-2.9,0.8-3.9,2c-4.2,2.7-7.1,6.3-7.6,11.4
		c-0.1,1.3-0.3,2.6-1.4,3.6c-1.4,0.7-2.7,0.1-4-0.2c-0.6,0-1.3,0.1-1.9,0.1C146.9,91.5,139.9,94.5,138,92.4z"/>
	<path class="st78" d="M107,97.4c0.3,2.4,2,1,3,1c3.5-0.3,6,1.2,6.8,4.4c0.7,2.8-1.6,4.1-3.8,5c-3.7,1.4-4.8-2-6.6-3.8
		c-0.9-0.9,0-2.7-1.4-3.5C103.7,98.1,104.6,97.3,107,97.4z"/>
	<path class="st83" d="M124,95.4c0,5.3,0,10.6,0,15.9c-3.2-0.7-1.6-3.3-2-5c-0.1-2.9,0.1-5.8-0.5-8.6
		C121.1,95.2,122.6,95.5,124,95.4z"/>
	<path class="st84" d="M46.1,130.2c-3.4,5.2-8.6,2.2-13,2.9c-1.1-3.8,0.4-5.6,4.2-4.6c2.6,0.7,5.2,0.6,7.8,0.7
		C45.4,129.5,45.8,129.9,46.1,130.2z"/>
	<path class="st43" d="M237,108.3c-1.6-1.8-1.9-4.1-2.1-6.4c-0.2-2-1.8-2.8-3.4-3.1c-1.8-0.4-2,1.4-2.5,2.5c-1.8,3.6-3.4,7.3-5.1,11
		c-0.7,0.3-1.3,0.7-2,1c1.5-4.3,4-8.1,5.1-12.6c0.6-2.7,3.5-5.1,6.5-3.6c2.4,1.1,5.4,3,3.8,6.9C236.8,105.3,237.1,106.9,237,108.3z"
		/>
	<path class="st85" d="M137,82.5c-35.9-3.9-71.9-1.1-107.9-2c0-1.3,0-2.6,0-3.9c2,1.1,4.2,0.9,6.3,0.9c18.2,0.7,36.4-1.6,54.7-0.9
		c8.9,0.4,18-1,26.8,1.7c1.2,0.3,2.3,0.3,3.2-0.8c1.3-2.2,1.7-5,4.6-6c3.1-0.5,6.2-0.4,9.3-0.3c4.2,0.1,6.8,2,7,6.4
		C142.9,81.8,137.1,79.9,137,82.5z"/>
	<path class="st82" d="M141,77.6c-2-5.2-6.3-5.4-11-5c-2,0.2-4,0-6,0c-0.3-0.7,0-1.3,0.5-1.7c3.1-1.8,1.3-3.1-0.5-4.3
		c2.4-2.9,5.8-2.9,9-2.9c9-0.1,18,0,27,0c-2,4.3-5.8,4.4-9.7,3.5c-3.5-0.8-6.9-0.8-10.3-0.3c-2.1,0.3-3.2,0.9-1.2,3.8
		c4.1,6.1,9.9,5.6,15.9,5.9c4.1,0.2,5.9-1.4,5.4-5.4c-0.5-3.9,0.7-6.8,5-7.5c-2.7,2.9-3.8,6.4-4,10.2c-0.2,3.9-2.4,4.9-6,4.6
		C150.4,78,145.7,77.9,141,77.6z"/>
	<path class="st49" d="M372.9,62.6c0,1.7,0,3.3,0,5c-1.1,0.7-1.1,2-1.5,3c-1.1,2.5-3.1,3.7-5.7,3.9c-3,0.2-3.2-2.1-4-4.1
		c-0.4-1-1.2-1.9-1.8-2.8c-0.8-4.1,1.3-5.5,5.1-5C367.7,62.1,370.3,60.4,372.9,62.6z"/>
	<path class="st54" d="M175,58.7c7.7,0.4,15.5-1.3,23.2-0.1c1.6,0.3,3.3,0.2,4.8,1c-5.9,2.1-12.1,1.3-18,0.6
		C181.8,59.9,178.1,60.9,175,58.7z"/>
	<path class="st0" d="M219.8,91.5c2.4,2.4,2.3,4.6,0.6,7.7c-2.9,5.5-5,11.3-7.5,17c-5.1,4.8-10.1,9.8-16.9,12.1
		c-7.2,0.8-14.5-0.3-21.8,1c-2.8,0.5-5.6-0.7-7.9-2.4c-1.7-1.6-3.2-3.5-4.9-5.2c-1.7-1.9-2.4-4.4-3.4-6.7c-1.3-2.9-2.3-5.8-2.3-9
		c0-1.4,0.3-2.7,1.2-3.8c1.4-10.1,10-17.8,19.7-17.9c8-0.1,15.9,0,23.9-0.2c4.7-0.1,9.2,0.3,13.6,2.2
		C216.4,87.7,219.7,87.8,219.8,91.5z"/>
	<path class="st8" d="M156.9,102.4c0,1.3,0,2.7-0.1,4c-1.3,4.8-2.7,5.1-7.7,1.6c-1.9-2.5-1.5-5.3-1.1-8.2c0.2-0.6,0.5-1,1-1.4
		c1.8-1.6,1.4-4,1.7-5.9c0.7-5.2,3.7-7.7,8.3-9c-1.6,2.6-3.3,5.1-4.8,7.8C151.8,95.2,153.1,100.2,156.9,102.4z"/>
	<path class="st86" d="M219.8,91.5c-1.4-2.2-3.6-3.6-5.7-5.1c4-0.1,7.3,0.9,8.9,5C222,92.1,220.9,91.9,219.8,91.5z"/>
	<path class="st87" d="M165.9,125.3c4.8,3.4,10.2,3.1,15.7,3c4.8-0.1,9.6,0,14.4,0c-4.6,1.8-9.3,0.6-14,0.8
		c-2.4,0.1-4.2,0.4-4.9,2.9c-1.7,0-3.5,0.1-5.2,0.1c-4,1.2-7.1-0.3-9.9-3.1c-1.7-2.3-5.6-2.4-6.1-5.9c1.7-0.7,3.2,0.8,4.9,0.4
		C162.7,123.9,164.5,124,165.9,125.3z"/>
	<path class="st88" d="M280.9,117.3c-5.1-1.3-7.1-5.8-5.8-13.2C275.7,109.1,279.4,112.7,280.9,117.3z"/>
	<path class="st89" d="M28.1,72.6c-2.8-3.4-3.3-14.1-0.7-17.9c0,0,0.4,0,0.4,0.1c0.1,0.3,0.2,0.6,0.3,0.9
		C28.1,61.3,28.1,67,28.1,72.6z"/>
	<path class="st11" d="M64.4,53.8c1,2.2,0.2,4.2,1.9,5.5C62.9,58.1,62.9,58.1,64.4,53.8z"/>
	<path class="st90" d="M234.9,53.7c-0.5,3-2.9,2.8-4.9,2.8c-18.1,0.1-36.1,0.1-54.2,0.3c-4.7,0-5.2-2.5-4.6-6.1
		c15.1-3.5,30.3-3.9,45.7-2.7c3,3.4,2.9,4.1-1,5.1c-3.2,0.8-6.6,0.8-9.9,0.5c-2.7-3.5-4.3-3.6-7-0.5c-0.1,0.1-0.2,0.3-0.3,0.3
		c-0.4,0.2-0.4,0.8-0.3,0.8c5.4-0.7,10.9-0.1,16.4-0.8c5.9-0.7,11.9-0.6,17.9-0.8C233.5,52.7,234.2,53.1,234.9,53.7z"/>
	<path class="st91" d="M205,52.7c3.8,0.1,7.5-0.2,11.3-0.8c4-0.7,0.8-2,0.7-3.1c2.7-2.3,5.9-1.4,8.9-1c2.6,0.4,5.1,0.9,7.7-0.3
		c0.6-0.2,1.1-0.1,1.5,0.3H235c0,2,0,3.9-0.1,5.9c-13.4,0.6-26.8,1.3-41.4,2c2.2-2.3,3.9-2.6,5.6-3C201,51.1,203,51.1,205,52.7z"/>
	<path class="st92" d="M234,47.7c-1.3,3.8-4.6,2.2-6.7,1.8c-3.5-0.7-6.9-0.7-10.4-0.6c-12.3-0.7-24.5,0.9-36.7,0.9
		c-1.5,0-3,0.1-4.1,1.4c-1.9,2.4-3.4,0.8-5-0.4c0-0.6,0-1.2,0-1.8c0.3-0.3,0.7-0.7,1-1c1.8-1.7,4.1-1.1,6.2-1.1
		c14.8-0.2,29.6,0.3,44.4-0.3C226.5,46.9,230.6,44.7,234,47.7z"/>
	<path class="st93" d="M266.2,52.5c-1.9-8.4-2-16.9-0.8-25.5c0.5,4.5,1.9,8.7,3.6,12.8c1.7,0,3.4,0.1,5.1,0.1
		c0.3,0.4,0.5,0.8,0.5,1.3c-0.1,1.2-0.6,2.2-1.4,3.1c-4.1,0.9-3.8,4.7-5,7.5c-0.1,0.3-0.1,0.6-0.2,0.9
		C267.4,52.7,266.8,52.6,266.2,52.5z"/>
	<path class="st94" d="M272.9,43.8c0.4-0.9,0.8-1.8,1.2-2.7c1.2-0.5,1.6,0.4,1.6,1.1c0,3.4,2.4,3.5,4.8,3.4c1,0.2,2,0.4,2.5,1.4
		c-1.6,1.3-3.4,0.6-5.2,0.8c-1.5,0.2-3.6-0.6-3.7,1.9c-0.1,2.1,1.4,2.3,3.3,2.5c1.9,0.1,3.7,1,5.5,1.6c-2,4.5-6.3,2.6-9.7,3.2
		c-1.2,0.2-2.1-1.3-1.5-3c0.5-1.4,0.8-2.8,1.2-4.3C271.1,47.8,271.9,45.8,272.9,43.8z"/>
	<path class="st95" d="M272.9,43.8c0,2,0,4,0.1,6c-1.6,0.7-3.2,1.4-4.8,2.1C267.9,48.1,266.7,43.8,272.9,43.8z"/>
	<path class="st54" d="M124.1,66.6c1.7,0.1,4.2-0.6,4.5,1.7c0.4,2.9-3.4,2.3-4.5,4.3c-1.7,1.4-0.4,5.1-4,5c-1.5-0.2-4.3-0.1-1.8-2.5
		C120.8,72.6,121.6,69.1,124.1,66.6z"/>
	<path class="st96" d="M234,47.7c-3.6-2-7.4-0.4-11-0.7c-14.5,0.7-29,0.1-43.5,0.3c-2.5,0-5,0-7.4,0c0.8-2.2,2.8-1.4,4.3-1.4
		c18.1-0.1,36.2-0.1,54.4,0c1.6,0,3.9-0.8,4.3,2h-0.5L234,47.7z"/>
	<path class="st97" d="M172.1,47.3c9.5-1.1,19.1-0.3,28.7-0.5c7.4-0.1,14.9,0.1,22.3,0.1c-1.6,1.3-3.5,0.8-5.2,0.8
		c-15.2,0.1-30.4,0.1-45.5,0.2C172.2,47.7,172.1,47.5,172.1,47.3z"/>
	<path class="st98" d="M305,46.8c-2.4,0-4.7,0-7.1,0c-1.8-3-2.1-5.9,0-8.9c2.4,0,4.7,0,7.1,0C307.1,40.9,306.8,43.9,305,46.8z"/>
	<path class="st99" d="M317,46.8c-2.3,0-4.6-0.1-6.9-0.1c-1.2-2.9-1-5.8-0.1-8.8c2.3,0,4.7,0,7,0.1C319.1,40.9,318.8,43.9,317,46.8z
		"/>
	<path class="st10" d="M292,46.8c-2.3,0-4.6,0-6.9,0c0.4-3-1.4-5.9-0.1-8.9c2.3,0,4.7,0,7,0C294,40.9,294,43.8,292,46.8z"/>
	<path class="st36" d="M292,46.8c0-3,0-5.9,0-8.9c2,0,4,0,5.9,0c0,3,0,5.9,0,8.9C295.9,46.8,293.9,46.8,292,46.8z"/>
	<path class="st100" d="M341,46.9c-2-0.1-4-0.1-6-0.2c-2-2.9-2.4-5.8-0.1-8.8c2-0.3,4-0.4,5.9,0.7C343.1,41.3,342.8,44.1,341,46.9z"
		/>
	<path class="st101" d="M341,46.9c-0.1-2.8-0.1-5.5-0.2-8.3c1.8-1.8,4.1-0.6,6.1-0.7c0,3,0,5.9,0,8.9C345,46.8,343,46.9,341,46.9z"
		/>
	<path class="st102" d="M285,37.9c0.4,2.9,2.7,5.9,0.1,8.9c-0.7,0.1-1.3,0.1-2,0.2c-1-0.1-2-0.1-3.1-0.2c-2-3-2.1-5.9,0-8.8
		C281.7,37.9,283.3,37.9,285,37.9z"/>
	<path class="st103" d="M280,38c0,2.9,0,5.9,0,8.8c-5.6,1.8-5.1-2.7-5.9-5.7c0-0.4,0-0.7-0.1-1.1C274.9,36.1,277.8,38.1,280,38z"/>
	<path class="st104" d="M309.9,37.9c1.3,2.9,1.2,5.8,0.1,8.8c-1.7,0.1-3.4,0.1-5.1,0.2c0-3,0-5.9,0-8.9
		C306.6,37.9,308.3,37.9,309.9,37.9z"/>
	<path class="st105" d="M317,46.8c0-2.9,0-5.9,0-8.8c1.7,0,3.3,0,5-0.1c2.4,2.9,3.1,5.8,0.1,8.8C320.3,46.7,318.6,46.7,317,46.8z"/>
	<path class="st106" d="M322,46.7c1.5-2.9,0.4-5.8-0.1-8.8c1.7,0,3.3,0,5,0c2.9,3.9,2.7,5.4-0.9,8.8C324.7,46.7,323.3,46.7,322,46.7
		z"/>
	<path class="st107" d="M334.9,37.9c0,2.9,0,5.8,0.1,8.8c-2.1,0.1-4.3,0.7-4.3-2.7c0-0.7-1-0.3-1.5,0c-1.4-2.2-0.4-4.2,0.8-6.1
		C331.6,37.9,333.3,37.9,334.9,37.9z"/>
	<path class="st41" d="M330,37.9c0.4,2.1-1.6,3.9-0.8,6.1c1,3.2-0.9,3.2-3.1,2.7c2.7-2.7,2-5.7,0.9-8.8
		C327.9,37.9,329,37.9,330,37.9z"/>
	<path class="st108" d="M372.9,62.6c-2.6,0-5.3,0-7.9,0c0-2.6,0-5.3,0-7.9c2.9,1.4-0.6,4.5,2.1,6.3c1.2-1.4,1.9-4,4.7-3.2
		c0.2,1.5,0,3.1,2,3.7C373.5,61.9,373.2,62.2,372.9,62.6z"/>
	<path class="st109" d="M359.9,41.8c4.1,0.2,8.1,0.7,12.2,0c4-0.7,7,1.4,9.8,3.9c-6.2-1.7-12.5,0.3-18.8-0.8
		C361.1,44.5,359.7,44.2,359.9,41.8z"/>
	<path class="st110" d="M79.4,104.4c-2.5,0-5,0-7.5,0c-1.8,0-2.8-0.6-2.8-2.6c0.1-1.6,0.8-2.4,2.5-2.4c5.2,0,10.3,0,15.5,0
		c1.7,0,2.8,0.9,2.9,2.7c0.1,2.2-1.5,2.2-3.1,2.2C84.4,104.4,81.9,104.4,79.4,104.4z"/>
	<path class="st32" d="M56.1,110.3c-0.7,0-1.4,0-2.1,0c0-0.3,0-0.7,0-1c-1.5-5-1.5-9.9,0.1-14.9c2.4,0.4,1.9,2.2,1.9,3.8
		C56.1,102.2,56.1,106.3,56.1,110.3z"/>
	<path class="st111" d="M54.2,94.4c0,5-0.1,9.9-0.1,14.9C51.2,106.5,51.2,97.7,54.2,94.4z"/>
	<path class="st112" d="M162,129.2c3.2,1.4,6.4,2.6,9.9,3.1c0.7,0.5,1.5,1,2.4,1.7c-4.9,1.3-8.7-1.1-12.8-2.3
		C161.1,130.6,159.7,129.5,162,129.2z"/>
	<path class="st113" d="M172,139.1c-1.2,0.5-2.4,1.6-3.3-0.2c-0.4-0.9,0.4-1.6,1.1-1.9C171.9,136.2,171.8,137.9,172,139.1L172,139.1
		z"/>
	<path class="st114" d="M149,98.4c-0.1,0.3-0.1,0.6,0,0.9c-1.3,1.5,1,5-2.8,5.1c-3.3,1.6-3.9,3.6-1.2,6.5c1.3,1.4-0.6,10.7-2.1,11.8
		c-0.3,0.2-0.6,0.4-0.9,0.4c-3.7,0-5.4-3-6.4-5.4s-4.1-5.1-0.6-8.3c3.9-3.5,7.4-7.3,11-11C147,97.1,148,97,149,98.4z"/>
	<path class="st115" d="M160.1,124.1c-1.9,2.2-2.7-0.9-4.1-0.9c-2.5-3.7-4.6-7.6-6-11.9c-0.8-1.3-1.2-2.7,0-4c2.6,1.9,5.2,3.6,6.8-1
		c-0.1,3.1,1.6,5.8,2.2,8.8c0.6,2.6,0.5,5.3,1.4,7.8C160.5,123.4,160.4,123.8,160.1,124.1z"/>
	<path class="st34" d="M150,107.4c0,1.3,0,2.7,0,4c-2.5-1.6-4.6-3.5-3.9-6.9c2.4-0.9,1.4-3.7,2.8-5.1
		C149.6,101.9,148,104.9,150,107.4z"/>
	<path class="st116" d="M132.4,74.6c0.4,0,1.8-0.1,3.1,0.2c2.3,0.6,1.6,2.6,1.5,4.1c-0.1,1.8-1.5,1.5-2.5,0.9
		c-1.4-0.9-2.9-0.3-4.3-0.5c-1.7-0.2-3.8,0.5-3.9-2.3c-0.1-3,2.2-2.2,3.9-2.3C130.5,74.5,131,74.6,132.4,74.6z"/>
	<path class="st87" d="M159.9,123.2c-2.2-2.5-1-5.4-0.7-8.1c1,2.1,1.9,4.1,2.9,6.2C162.4,123.1,161,123,159.9,123.2z"/>
	<path class="st117" d="M159.9,123.2c0.7-0.7,1.4-1.3,2.1-2c1.7,1,3.1,2.3,4,4c-2-0.2-4.1,0.3-5.9-1.2
		C160,123.8,160,123.5,159.9,123.2z"/>
	<path class="st118" d="M205,52.7c-2,0-4,0-6,0c-0.1-1-3.6-2.1-0.1-2.8c2.8-0.5,5.7-0.1,8.7-0.1C207.3,52.1,205.5,51.6,205,52.7z"/>
</g>
</svg>
