<?xml version="1.0" encoding="utf-8"?>
<!-- Generator: Adobe Illustrator 25.0.0, SVG Export Plug-In . SVG Version: 6.00 Build 0)  -->
<svg version="1.1" xmlns="http://www.w3.org/2000/svg" xmlns:xlink="http://www.w3.org/1999/xlink" x="0px" y="0px"
	 viewBox="0 0 732 186" style="enable-background:new 0 0 732 186;" xml:space="preserve">
<style type="text/css">
	.st0{display:none;}
	.st1{display:inline;stroke:#FFFFFF;stroke-miterlimit:10;}
	.st2{fill:#BB9E7B;}
	.st3{fill:#76624B;}
	.st4{fill:#7D7C70;}
	.st5{fill:#A18666;}
	.st6{fill:#9E8769;}
	.st7{fill:#B6A485;}
	.st8{fill:#2C2D2C;}
	.st9{fill:#B3AD98;}
	.st10{fill:#FAF9D7;}
	.st11{fill:#A68C6C;}
	.st12{fill:#FCFCE5;}
	.st13{fill:#030309;}
	.st14{fill:#030308;}
	.st15{fill:#EDEED6;}
	.st16{fill:#FDE4B1;}
	.st17{fill:#F9F8E1;}
	.st18{fill:#FBFAD8;}
	.st19{fill:#A58E70;}
	.st20{fill:#F2F2D7;}
	.st21{fill:#05061B;}
	.st22{fill:#F9F9E2;}
	.st23{fill:#BE9970;}
	.st24{fill:#FCF7C6;}
	.st25{fill:#F1D0A3;}
	.st26{fill:#F2D1A4;}
	.st27{fill:#830604;}
	.st28{fill:#CEAC83;}
	.st29{fill:#F597A3;}
	.st30{fill:#EAEBD5;}
	.st31{fill:#FCFBDB;}
	.st32{fill:#EFD3D2;}
	.st33{fill:#64696B;}
	.st34{fill:#C5C1A8;}
	.st35{fill:#C59F74;}
	.st36{fill:#34417D;}
	.st37{fill:#E5E6CF;}
	.st38{fill:#8CA9F1;}
	.st39{fill:#C2C1A9;}
	.st40{fill:#E3E4CC;}
	.st41{fill:#A3A39C;}
	.st42{fill:#554D3F;}
	.st43{fill:#BD100D;}
	.st44{fill:#B6936C;}
	.st45{fill:#F6C4CC;}
	.st46{fill:#F3E91A;}
	.st47{fill:#66645B;}
	.st48{fill:#DADAC1;}
	.st49{fill:#E1E2CB;}
	.st50{fill:#6585F7;}
	.st51{fill:#040843;}
	.st52{fill:#EAE8C7;}
	.st53{fill:#D2A19A;}
	.st54{fill:#A39E87;}
	.st55{fill:#D4CCA8;}
	.st56{fill:#F93E54;}
	.st57{fill:#530D0B;}
	.st58{fill:#987D5D;}
	.st59{fill:#442A1B;}
	.st60{fill:#3C57D7;}
	.st61{fill:#E5E6D8;}
	.st62{fill:#908D79;}
	.st63{fill:#DADDCB;}
	.st64{fill:#D5B892;}
	.st65{fill:#F0CC97;}
	.st66{fill:#E6E6CD;}
	.st67{fill:#9C947C;}
	.st68{fill:#DDDA14;}
	.st69{fill:#AD8E69;}
	.st70{fill:#E2E3CD;}
	.st71{fill:#5C3730;}
	.st72{fill:#B45654;}
	.st73{fill:#61655D;}
	.st74{fill:#B31B18;}
	.st75{fill:#DFE0CA;}
	.st76{fill:#31281A;}
	.st77{fill:#999E94;}
	.st78{fill:#C5CECB;}
	.st79{fill:#868878;}
	.st80{fill:#E01923;}
	.st81{fill:#0E0F16;}
	.st82{fill:#C8CAB5;}
	.st83{fill:#838474;}
	.st84{fill:#080E59;}
	.st85{fill:#B4B59F;}
	.st86{fill:#5E4E3B;}
	.st87{fill:#7F8379;}
	.st88{fill:#C3AE8D;}
	.st89{fill:#09081F;}
	.st90{fill:#61523E;}
	.st91{fill:#455693;}
	.st92{fill:#5062A0;}
	.st93{fill:#8E958D;}
	.st94{fill:#9F8A6E;}
	.st95{fill:#9A660B;}
	.st96{fill:#8C270F;}
	.st97{fill:#430708;}
	.st98{fill:#821411;}
	.st99{fill:#5A5A4F;}
	.st100{fill:#450305;}
	.st101{fill:#A36767;}
	.st102{fill:#AE9472;}
	.st103{fill:#443624;}
	.st104{fill:#CBCF77;}
	.st105{fill:#BDC208;}
	.st106{fill:#EF262F;}
	.st107{fill:#A0790C;}
	.st108{fill:#500304;}
	.st109{fill:#8D1A13;}
	.st110{fill:#565951;}
	.st111{fill:#F1AEB3;}
	.st112{fill:#E1E708;}
	.st113{fill:#695A47;}
	.st114{fill:#625B17;}
	.st115{fill:#47362D;}
	.st116{fill:#584C3D;}
	.st117{fill:#4A3D2E;}
	.st118{fill:#544533;}
	.st119{fill:#62523D;}
	.st120{fill:#382F23;}
	.st121{fill:#5F5444;}
	.st122{fill:#342C20;}
	.st123{fill:#382E23;}
	.st124{fill:#7A725F;}
	.st125{fill:#5E5B54;}
	.st126{fill:#3F3B3B;}
	.st127{fill:#B0906C;}
	.st128{fill:#6A5B48;}
	.st129{fill:#92795C;}
	.st130{fill:#988B72;}
	.st131{fill:#8D765B;}
	.st132{fill:#5A5041;}
	.st133{fill:#D4DBD1;}
	.st134{fill:#484540;}
	.st135{fill:#84A4F8;}
	.st136{fill:#0F1347;}
	.st137{fill:#A7AFAA;}
	.st138{fill:#CACFC3;}
	.st139{fill:#F5F7F3;}
	.st140{fill:#D7D9D7;}
	.st141{fill:#EFF3F2;}
	.st142{fill:#CFD2C2;}
	.st143{fill:#4E524F;}
	.st144{fill:#D1D2BB;}
	.st145{fill:#BCBEA8;}
	.st146{fill:#7F7E6E;}
	.st147{fill:#959685;}
	.st148{fill:#505045;}
	.st149{fill:#646153;}
	.st150{fill:#ACAA93;}
	.st151{fill:#EFCEA1;}
	.st152{fill:#E3C298;}
	.st153{fill:#CBA980;}
	.st154{fill:#E3C39A;}
	.st155{fill:#D7D8C2;}
	.st156{fill:#868574;}
	.st157{fill:#9A947D;}
	.st158{fill:#E2E1C3;}
	.st159{fill:#B7B69D;}
	.st160{fill:#8E8E7E;}
	.st161{fill:#9C937B;}
	.st162{fill:#3F3427;}
	.st163{fill:#73614B;}
	.st164{fill:#BA9F7E;}
	.st165{fill:#A68763;}
	.st166{fill:#92917F;}
	.st167{fill:#CDCDB5;}
	.st168{fill:#EEEED9;}
	.st169{fill:#52534A;}
	.st170{fill:#7B7D6F;}
	.st171{fill:#DDE3DF;}
	.st172{fill:#1F32B3;}
	.st173{fill:#939DA6;}
	.st174{fill:#060A4E;}
	.st175{fill:#B6C3C2;}
	.st176{fill:#29398A;}
	.st177{fill:#C5C7B2;}
	.st178{fill:#F9DBAB;}
	.st179{fill:#C3A784;}
	.st180{fill:#9A7D5C;}
	.st181{fill:#CDCDB3;}
	.st182{fill:#BEA382;}
	.st183{fill:#DDBD96;}
	.st184{fill:#E5C49A;}
	.st185{fill:#94795A;}
	.st186{fill:#D3B590;}
	.st187{fill:#BAA080;}
	.st188{fill:#680604;}
	.st189{fill:#D25316;}
	.st190{fill:#F2741D;}
	.st191{fill:#534839;}
	.st192{fill:#960E12;}
	.st193{fill:#6F6E60;}
	.st194{fill:#B0B3A0;}
	.st195{fill:#6D6756;}
	.st196{fill:#B5B299;}
	.st197{fill:#AFB115;}
	.st198{fill:#727467;}
	.st199{fill:#A1A18C;}
	.st200{fill:#FBE1AF;}
	.st201{fill:#D9DFE1;}
	.st202{fill:#872708;}
	.st203{fill:#090F58;}
	.st204{fill:#F50E0F;}
	.st205{fill:#FA1D0F;}
	.st206{fill:#C2C4AE;}
	.st207{fill:#8B8D7C;}
	.st208{fill:#ADAD97;}
	.st209{fill:#D3D5BF;}
	.st210{fill:#907468;}
	.st211{fill:#E3F0F4;}
	.st212{fill:#F72125;}
	.st213{fill:#755F47;}
	.st214{fill:#DD9612;}
	.st215{fill:#705C46;}
	.st216{fill:#B9A283;}
	.st217{fill:#C9CAB3;}
	.st218{fill:#747668;}
	.st219{fill:#8D9082;}
	.st220{fill:#33342F;}
	.st221{fill:#707164;}
	.st222{fill:#84806D;}
	.st223{fill:#F4EC09;}
	.st224{fill:#552206;}
	.st225{fill:#515247;}
	.st226{fill:#271909;}
	.st227{fill:#0D0E48;}
	.st228{fill:#9D1909;}
	.st229{fill:#6A3A08;}
	.st230{fill:#A60F07;}
	.st231{fill:#EA1214;}
	.st232{fill:#777F7E;}
	.st233{fill:#F7130F;}
	.st234{fill:#5A4C3B;}
	.st235{fill:#6E86D9;}
	.st236{fill:#B2C0CB;}
	.st237{fill:#B4AA09;}
	.st238{fill:#2E140C;}
	.st239{fill:#B11F12;}
	.st240{fill:#0D0B0B;}
	.st241{fill:#B1B708;}
	.st242{fill:#800503;}
	.st243{fill:#554742;}
	.st244{fill:#100D0A;}
	.st245{fill:#CAC910;}
	.st246{fill:#4E4E05;}
	.st247{fill:#312F06;}
	.st248{fill:#77644E;}
	.st249{fill:#927C61;}
	.st250{fill:#534432;}
	.st251{fill:#544839;}
	.st252{fill:#382E22;}
	.st253{fill:#786650;}
	.st254{fill:#67695D;}
	.st255{fill:#53574E;}
	.st256{fill:#505349;}
	.st257{fill:#393228;}
	.st258{fill:#423627;}
	.st259{fill:#5C4B37;}
	.st260{fill:#78624A;}
	.st261{fill:#7F725D;}
	.st262{fill:#372E22;}
	.st263{fill:#ADA78E;}
	.st264{fill:#4F412F;}
	.st265{fill:#8E795F;}
	.st266{fill:#9D876B;}
	.st267{fill:#9B9D8C;}
	.st268{fill:#C4C6B1;}
	.st269{fill:#C6E2FC;}
	.st270{fill:#808274;}
	.st271{fill:#AAAD99;}
	.st272{fill:#CDAF8A;}
	.st273{fill:#3D3B32;}
	.st274{fill:#C5C5AD;}
	.st275{fill:#6A6B5F;}
	.st276{fill:#C4C5AF;}
	.st277{fill:#79644C;}
	.st278{fill:#A7A995;}
	.st279{fill:#CEB08C;}
	.st280{fill:#A58E71;}
	.st281{fill:#ABAB96;}
	.st282{fill:#907B61;}
	.st283{fill:#C2A685;}
	.st284{fill:#77624B;}
	.st285{fill:#B39A7B;}
	.st286{fill:#705F4B;}
	.st287{fill:#927C60;}
	.st288{fill:#A78F72;}
	.st289{fill:#B84B17;}
	.st290{fill:#41260D;}
	.st291{fill:#875B0C;}
	.st292{fill:#CA600F;}
	.st293{fill:#F7160E;}
	.st294{fill:#34342F;}
	.st295{fill:#A8A892;}
	.st296{fill:#544534;}
	.st297{fill:#FAF60A;}
	.st298{fill:#8B610B;}
	.st299{fill:#D97E11;}
	.st300{fill:#AE340F;}
	.st301{fill:#A06B0C;}
	.st302{fill:#DCB10E;}
	.st303{fill:#EDE60A;}
	.st304{fill:#1D1905;}
	.st305{fill:#F6D50D;}
	.st306{fill:#B4510F;}
	.st307{fill:#A9A908;}
	.st308{fill:#D12E1F;}
	.st309{fill:#602308;}
	.st310{fill:#C23B1A;}
	.st311{fill:#DBA610;}
	.st312{fill:#EE3513;}
	.st313{fill:#EB1810;}
	.st314{fill:#5E3807;}
	.st315{fill:#DE7610;}
	.st316{fill:#1C1607;}
	.st317{fill:#5D4C38;}
	.st318{fill:#A99275;}
</style>
<g id="Camada_2" class="st0">
	<rect x="-88" y="-81" class="st1" width="859" height="382"/>
</g>
<g id="Camada_1">
	<g>
		<g>
			<path class="st2" d="M407,183.9c-2.3-7.8-3.4-15.8-4.1-23.9c0.3-2,2.5-2.8,3.1-4.2c1.3-3,3.3-6.3,0.1-9.6c-1.3-1.4-2-3.1-0.4-4.9
				c0.7-0.9,1.4-2.1,2.8-1.2c1.7,1.1,4,2.7,3.4,4.5c-1,2.9,0.6,4.4,1.7,6.3c0.3,0.6,1,1.6,0.8,1.7c-2.5,2,0.2,3.4,0.4,5.1
				c-1.2-11-1-11.3,5.7-10.4c2,1.3,1.6,3.4,2,5.3c0.4,2.1,0.3,4.2,1.4,6.2c3.1,5.7,3,5.7-2.1,9.3c-1.5,4.6-0.8,6.9,2.8,8.8
				c3.4,1.9,4,5.3,1.5,8.8c-0.7,0-1.3,0-2,0c-2.7-1.7-5.3-1.7-8,0c-0.7,0-1.3,0-2,0C411.6,185.3,409.2,185,407,183.9z"/>
			<path class="st3" d="M322.9,154.9c0,3,0,5.9,0,8.9c-2,0.8-3.1-2.3-5.2-1.3c-1.9,0.6-3.7,1.5-4.7,3.3c-1.1,2-2.9,1.9-4.7,1.8
				c-5.2-0.2-5.2-0.2-4.8,4.9c0.1,1.2,0.1,2.3,0,3.5c-0.4,4.2-0.4,8,5.4,8.1c0.8,0,1.5,0.7,1.2,1.8c-3.7,0-7.3,0-11,0
				c0-8.3,0-16.6-0.1-25c1.4-2.4,4.2-3.1,6-5c0.4-0.5-0.2,0,0.4-0.3c2.5-1.5,3,2.5,4.9,1.9c1.4-0.5,1.5-4.6,4.1-1.3
				c0.8,1,1.2,0,1.5-0.2C318,154.1,320.4,154.3,322.9,154.9z"/>
			<path class="st4" d="M8.1,128.1c-2.2,0.9-3.8,4-6.8,1.8c0.8-1,0.8-2.1,0.7-3.3c-0.8-6.6-1.1-13.2-0.9-19.9c0-1.3,0.2-2.7-1-3.7
				c0-5.3,0-10.7,0-16c0.8-1.3,1.7-2,3.2-1.1c1.5,2,0.9,4.3,1.1,6.5c0.1,1.6-0.3,3.4,2.3,3.3c5.8,0.1,11.5-0.5,17.3,0.4
				c6.9,3,8.1,6.3,5.7,15.4c-2.5,1.3-2.8-0.8-2.9-2.2c-0.3-2.6-0.7-5.2-0.7-8.1c-5,0.4-10.1,0.3-15.1,0.2c-3.2,0-4.6,1.3-4.5,4.5
				c0.1,5.2,0,10.3-0.9,15.4c-0.4,2.4,0.3,4.3,2.5,5.5C8.5,127.2,8.5,127.6,8.1,128.1z"/>
			<path class="st5" d="M310,185.9c-2-3.1-7.6,2-8.2-3.5c-0.4-3.4,0.2-6.9,0.3-10.4c1.6-1.3,2.9-0.4,3.8,0.8c1.4,1.7,0,3.1-0.9,4.4
				c-0.5,0.4,0.9,0.5,0.3,0.2c-0.2-0.1-0.1-0.2,0.1-0.5c2.3-2,5.3-3.4,5.9-7c0.1-1,1.2-1.8,2.2-1.2c1.6,0.9,0.9,2.6,0.8,4
				c0.9-2-1.5-6.8,4-4.9c1.7,0.8,2.6,2.3,3.2,4c-2.3,4.5-2.3,9.9-5.5,14.1C314,185.9,312,185.9,310,185.9z"/>
			<path class="st6" d="M426,185.9c-0.1-3.2,2.6-7.5-3.9-7.9c-2.6-0.1-3.3-8-1.1-10.1c0.9,3.9,5.2,4.7,7,7.8c1,1.7,2.1,3.4,2.9,5.2
				c0,1.7,0.1,3.3,0.1,5C429.3,185.9,427.7,185.9,426,185.9z"/>
			<path class="st7" d="M316,185.9c0.2-1.8-1.9-4.3,1.7-5.1c0.6-0.1,0.8-2,1.1-3.1l2-5.8c1-0.5,1.5,0.2,1.9,1
				c0.1,4.4,0.1,8.7,0.2,13.1C320.7,185.9,318.3,185.9,316,185.9z"/>
			<path class="st8" d="M0.1,103c1.1-0.3,1.7-0.2,1.8,1.3c0.3,7.4,0.8,14.8,1.2,22.2c0.1,1.4,0.6,3.2-1.7,3.3
				c-0.7-1.2,0.4-3-1.2-3.9C0.1,118.3,0.1,110.6,0.1,103z"/>
			<path class="st9" d="M2.8,85.9c-0.9,0.4-1.8,0.8-2.7,1.2c0-5.3,0-10.7,0-16c1.3-0.9,0.7-2.4,1-3.6c0.2-1.1,0.3-2.4,2-1.4
				c0.9,0.6,1.6,1.2,1.7,2.4c0,0.5,0,1-0.1,1.5C4,75.3,4.8,80.7,2.8,85.9z"/>
			<path class="st10" d="M731.9,100c-1.1,0.7-2.1,1.4-3.2,2c-4.4,0.4-5.8-2.2-5.9-6c2.8,1.5,6.5-0.8,9.1,2
				C731.9,98.7,731.9,99.3,731.9,100z"/>
			<path class="st11" d="M416,185.9c2.7-4.2,5.3-4.1,8,0C421.3,185.9,418.7,185.9,416,185.9z"/>
			<path class="st11" d="M407,183.9c3.1-2.1,4.6,1.7,7,2c-2.3,0-4.7,0-7,0C407,185.2,407,184.6,407,183.9z"/>
			<path class="st12" d="M305,84.1c0-1.3-0.4-3.3,0.1-3.6c1.6-0.9,2.7,0.8,3.6,1.8c2.1,2.4,4.2,3,7.4,2c4.2-1.3,8.5,1.1,12.9,1.1
				c5.5,0,11,0.3,16.5-0.7c4.2-0.7,8.4-0.9,12.5,0.4c1.3,0.4,2.4,1.1,3.5-0.3c3.5-4.2,8.9-5.4,13.5-6.4c5.1-1.1,10.7-1.2,16.1-0.5
				c4.4,0.5,8.9-0.4,13.3-0.6c8.8-0.4,17.7-0.1,26.4,0.8c2.8,7.4,1.6,9.7-5.7,11.9c-3.6,1-7.4,1.1-10.7-0.2c-5.3-2-10-1.6-15.2,0.3
				c-4.4,1.6-9.2,2.2-14.1,1.1c-4.9-1.1-10.1-0.8-15-2.5c-2.8-1-5.7,0.9-8,3.1c-11.7,1.7-23.4-0.2-35,0.5c-0.7,0-1.3,0.3-2,0.4
				c-4.1-0.9-8.2-0.1-12.3-0.6C307.6,91.2,306.5,90.2,305,84.1z"/>
			<path class="st13" d="M689.8,123c-4.3,1.1-8.6,1-12.9,0.7c-4.9-1.5-5.6-4.6-4.5-9.3c1.2-5.1,0.3-10.5,2.8-15.4
				c1.5-1.3,3.4-0.7,5.3-0.8c-0.4-3.2-3.2-1.8-4.6-2.8c-0.3-0.4-0.5-0.8-0.7-1.2c-0.3-2.6,1.3-4.3,3.1-5.8c2.4-2,3.1-4.3,1.7-7.2
				c1.5-1.4-0.4-2.3-0.9-2.4c-2.3-0.9-1-2.2-0.5-3.4c0.7-1.6,2.3-1.4,3.3-0.8c3.2,2,5.2,2.7,9.8,1.2c5.7-1.9,13.6-0.7,18.5,5.6
				c0.3,0.4,1.2,0.5,1.8,0.8c1.7,2.4,0.9,4.8-0.1,7.2c-0.2,0.4-0.6,0.8-0.9,1.1c-2,0.6-3-0.5-3.5-2.2c-0.5-1.6-1-3-2.5-3.9
				c-1.9-1.2-3.8-2.3-6.2-2.5c-2.1-0.2-0.4,1.3-0.9,1.8c-0.2,2-1,3.6-2.6,4.9c-2.6,2-4.8-1.5-7.3-0.6c-1.1,0.4-2.6,0.3-2.5,2.1
				c1.3,1.9,2.8,1.2,4.2,0.2c1.6-1.2,3.3-1.2,5.1-0.5c0.4,0.3,0.7,0.7,0.9,1.1c0,4.6,0.9,9.4-1.8,13.7c-1.1,0.8-2.1,1.5-3.5,1
				c0.4,2.3,2.7,2.8,4.1,4.2C695.6,114.9,694.1,119.4,689.8,123z"/>
			<path class="st14" d="M718.8,113.7c-4.3,3.9-9.9,5.2-15.1,7.3c-3-0.8-3.1-1.6-0.8-6c1.2-0.8,2.7,0.7,4-0.7
				c-0.9,0.7-1.7,0.5-2.4,0.3c-2.4-1-2-3-1.8-4.9c0.2-2.4,0.6-4.8,1-7.2c0.1-0.3,0.1-0.7,0.2-0.9c1.3-1.9,4.3-3.4,1.4-6.2
				c1.3-1.7,1-5.2,4.7-4.1c1.1,0.3,1.6,1.6,3,1.6c-0.8-0.5-1.7-0.9-2.2-1.6c-0.2-0.5-0.1-0.9,0.2-1.2l0,0c2-1.5,0.4-5.4,3.9-5.9
				c1,0.2,2-1.7,3.1-0.1c0.9,5.3,0,10.7,1.4,16c0.6,2.2-0.3,4.2-2.8,5c-0.5,0.4-2.7,0.8-0.6,1.4
				C720.5,107.8,720.2,110.4,718.8,113.7z"/>
			<path class="st15" d="M362,91c2.7-3.8,7.5-4.8,12.1-3c5.7,2.2,11.8,1.6,17.7,2c6.3,0.5,11.1-4.3,17.2-3.7
				c0.8,0.1,1.6,0.3,2.3,0.7c4.8,2.5,9.4,3.2,14.7,0.9c4.9-2.1,5.1-1.8,4.4-7c-0.1-0.9,0.4-1.9,0.6-2.9c9.9-2.1,19.9-0.6,29.9-1
				c0.4,1-0.3,1.4-1,1.8c-1.5,0.6-3.1,0.5-4.7,0.5c-0.8,0-1.6,0-2.3,0c-1.8,0-3.6,0-5.4,0c-0.8,0-1.5,0-2.3,0c-1,0-2,0-3,0
				c-0.7,0-1.4,0-2.1,0c-3.1-0.3-5.2,0-2.8,3.8c2.7,4.3,0.7,8.2-2.6,10.2c-2.8,1.8-6.9,1.6-10.1-0.7c-3,0.1-5.9,0.5-8.9,0
				c-0.5-0.1-0.9-0.2-1.4-0.3c-4.8-2.9-9.3,0.3-13.8,0.8c-8.1,0.9-16.1,1.4-24-0.9c-3.4-0.9-6.6-1.7-10.1-0.1
				C365,92.6,362.7,93.9,362,91z"/>
			<path class="st16" d="M183,75.1c1.5,0,2.9,0.1,4.4,0.1c3.9,6.4,1.7,12.4-5.7,16.2c-2,0-3.7-0.8-5.4-1.7c-2.3-1.2-3.3-4.2-6.3-4.3
				c-2.6-0.4-4.9,1.2-7.6,0.4c-2.2-0.7-4-1.3-4.4-3.8c0.9-1.8,2.7-2.6,4.2-3.7c5.3-1.2,10.6-3.2,16.2-2.7
				C179.8,75.7,181.4,75.8,183,75.1z"/>
			<path class="st17" d="M481,78c7,0,14,0,21,0c2,4.1,1.7,8-1.1,11.6c-3.4,1.9-5.1,0.6-5.6-2.6c-0.7,6.3-2.4,6.9-9.5,2.6
				c-1.1-1.9-1.8-0.7-2.5,0.3c-1,0.9-2,1.8-3.1,0.1c-1.1-2.9-0.5-6-0.6-9C479.9,80,480.2,78.9,481,78z"/>
			<path class="st18" d="M248,81c0-1.5-2.2-3.5,2.1-3.2c8.5,0.6,17.1,0.2,25.7,0.1c0.2,0.2,0.5,0.3,0.7,0.5c0.6,4.7,0.1,9.4-0.8,14
				c-1.7,1.5-2.1-0.1-2.6-1.2c-0.6-1.3-0.2-2.9-1.3-4c-0.4-0.2-0.6-1.3-1.4-0.4c-3.5,3.6-7.9,3.5-11.6,1.2c-1.9-1.2-2.4,0.1-3.5,0.3
				c-1.3-0.1-2.2-0.8-2.8-1.9c-0.3-2.5-2.1-3.7-4-4.9C248.2,81.4,248.1,81.2,248,81z"/>
			<path class="st19" d="M532.8,104c0.3-3.3,0.7-6.7,1-10c1.1-0.9,2.3-1.4,3.6-1.4c10.4,0.2,20.7-1.1,31.1-2
				c0.9,0.5,1.1,1.3,1.1,2.3c-1.2,6.7-2,6.9-8.6,7.6c-8.3,0.8-16.5-0.7-24.7,0.1c-1.2,0.6-1.2,1.9-1.8,2.9c-0.3,0.4-0.6,0.6-1.1,0.7
				C533.3,104.2,533,104.1,532.8,104z"/>
			<path class="st16" d="M141,75.1c8.7,0,17.4,0,26.1,0c-0.6,3.2-4.3,2.2-5.8,4.2c-3.3,1.6-5.6,4.7-8.6,6.7c-5,3.9-5,3.9-11.7-0.6
				c-0.3-0.3-0.6-0.7-0.7-1.2C140.3,81.2,139.8,78.1,141,75.1z"/>
			<path class="st20" d="M218.1,78c5.7,0,11.4,0,17.1,0c2.1,0,4.2,0.4,5.8,2c-0.9,2.6-1.3,9.2-0.8,11.2c0.4,1.6,0,3.2-0.7,4.7
				c-1.1,1.2-1.5,3-3.5,3.3c-2-0.9-2.5-2.8-3.3-4.6c-0.6-1.8-1.6-3.4-1.8-5.3c0.5-4.7-3.6-2.1-5.2-3.3c-0.4-0.2-0.8-0.5-1.2-0.7
				C222.6,82.7,218.8,81.7,218.1,78z"/>
			<path class="st21" d="M665.9,86.4c-1.1,1-3.7,1.5-1,3.6c2.2,2.7,1.2,6.2,2.2,9.2c0.1,2,0.3,3.9,1.2,5.7c0.1,2-2.6,2-2.8,3.8
				c-1,2.9,1.8,7.1-2.9,8.7c-0.9-0.2-1.3-0.9-1.6-1.7c-0.4-1.3-0.7-2.5-0.9-3.8c-0.1-0.8,0-1.6,0.1-2.3c0.7-3.6,0.8-7.1-0.2-10.6
				c-0.2-0.5-0.2-1-0.3-1.6c0.1-5.8-0.8-11.5-1.7-17.2c-0.3-1.7-1.7-3.9,0.1-5.1c1.7-1.2,4.1-1.1,5.9,0.6c1.2,0.5,2.3,0.9,3.5,1.4
				C669.9,80.7,667.6,83.5,665.9,86.4z"/>
			<path class="st22" d="M278.1,78c8.5-0.8,16.9,1,26.2-1c-1.9,2.8-3.1,4.8-3.3,7.1c-4.4,3.5-4.4,3.5-6.9-0.6
				c-2.8,2.3-2.2,7.7-7.1,8.1c-2.1,0.2-3.5-0.8-4.5-2.5c-1-1.4,0.6-4.7-3.1-4C276.8,83.1,276.3,80.7,278.1,78z"/>
			<path class="st23" d="M181.1,91c7.1-3.3,7.2-9.3,6.3-15.7c3.5,0,7,0,10.5-0.1c2.2,3.1,0.1,6.6,1,9.8c-0.3,1.4-0.5,2.8-1.3,4
				c-3.3,1.4-7.4,0.5-10.3,3.3c-3,0.2-5.2,2-7.3,3.9c-0.7,0.7-1.8,1.4-2.7,0.7c-1.2-0.8-0.6-2.1-0.1-3.2
				C178,92.3,179.3,91.3,181.1,91z"/>
			<path class="st24" d="M197.9,85c-1.5-3.3,0.1-6.6-0.2-9.8c2.6-0.1,5.2-0.2,7.8-0.1c2.3,0.1,4.8,0.7,5.3,3.4c0.6,3,2.5,3.4,5,3.5
				c2,2.1,1.1,4.1-0.3,6.1c-1.5,1.2-3,0.8-4.6,0.3C206.6,87.1,202.1,86.9,197.9,85z"/>
			<path class="st25" d="M89.9,75.3c4.1-0.1,8.1-0.1,12.2-0.2c0.2,2.4-2,2.2-2.5,2.3c0.6-0.4,2,0.6,3.4,0.7
				c5.1,0.5,9.9,3.7,15.3,1.4c0.7-0.3,1.5,0.5,2,1.2c0.5,1.5-0.7,2.2-1.5,3c-2.1,1.5-3.4,4.2-6.5,4c-2.4-0.5-4.8-1.1-7.3-1.1
				c-0.7,0,0.2,0-0.5,0c-3.6,0.1-4.6-3.5-7.1-4.8c-3-1.6-4.2,4.7-7.5,1.8c-0.9-0.9-1.4-1.9-1.2-3.1C89.3,78.8,88.9,76.8,89.9,75.3z"
				/>
			<path class="st26" d="M43,75.2c12.4,0,24.9,0,37.3,0.1c0.7,0.9,0.7,1.8,0.2,2.8c-1.6,1.5-3.8,2-5.3,3.6c-0.7,0.7-1.8,1.4-2.7,0.8
				c-3.2-2.3-6.4-1.9-9.7-0.4c-0.3,0.1-0.8,0.3-1,0.1c-5.1-5.2-11.3-2-17.1-2.4c-0.7,0,0.2-0.1-0.5-0.2c-1.1-0.7-1.4-1.9-1.6-3.1
				C42.6,76,42.7,75.6,43,75.2z"/>
			<path class="st16" d="M120.1,81c-0.8-0.2-1.8-0.9-2.3-0.7c-7.3,3.7-13.3-1.7-20.5-2.4c1.9-1.4,3.8-1.4,4.7-2.9
				c9.4,0,18.8,0.1,28.2,0.1c0.2,0.5,0.1,0.9-0.2,1.3C127,78.7,124.2,81.3,120.1,81z"/>
			<path class="st27" d="M603.9,100.9c-0.6-3,0-5.9,0.2-8.9c0.2-0.7,0.5-1.3,0.8-1.9c3-5.1,6.6-9.9,9.1-15.4c2.3-0.4,4.1,1,6,2
				c0.3,0.4,0.6,0.8,0.7,1.3c0.2,1,0.1,1.9-0.3,2.9c-2.5,2.5-5,5.1-5.8,8.8c-0.5,2.4-3.1,2.8-4.2,4.5c-0.3,0.6-0.6,1.1-0.9,1.7
				c-0.7,2.5-2.1,4.4-4.5,5.5C604.6,101.4,604.2,101.3,603.9,100.9z"/>
			<path class="st28" d="M568.8,91c-7.9,2.8-16.2,2.9-24.4,3.1c-3.5,0.1-7,0-10.5,0c-0.1-1.3-1.1-3,1.5-3.2
				c5.9-0.5,11.7-1.2,17.6-1.8c3.5,0.6,7.1,0.2,10.5-0.5c2-0.4,3.9-0.8,5.4,1C569.2,90,569.2,90.5,568.8,91z"/>
			<path class="st29" d="M571,86.9c0-3,0-5.9,0-9.3c1.6,1.8,0.6,3.6,1.3,5.5c0.3-1.6,0.6-2.8,0.8-4c2.3-0.1,1.4,2.3,2.5,3.1
				c1.3-0.2,2-2.4,3.7-1.1c0.8,3.5-2.3,5.9-2.5,9.1c1.2-0.9,1.5-3,3.6-2.7c1.2,0.5,1.1,1.5,0.9,2.5c-1.6,4.1-0.8,8.8-2.9,12.8
				c-1.5,1.7-3.2,2-5,0.4c-2.6-2.8-1.1-6.6-2.1-9.8c-0.4-2-0.6-3.9-0.3-5.9C570.9,87.3,570.9,87.1,571,86.9z"/>
			<path class="st30" d="M516.8,88.2c2.5,3.2,5.7,5.6,9.1,7.7c1.3,0.9,1.3,2.2,1.3,3.6c0,0.8-0.2,1.5-0.6,2.1
				c-2.9,0.3-5.8-1.7-8.7,0.2c-0.7,0-1.4-0.2-1.9-0.6c-0.1-2.3-0.4-4.4-3.6-4.2c-1.3,0.1-2.5-0.4-3.1-1.8c-0.9-3.5,0.4-5.1,4.1-4.7
				C515.1,90.7,516.5,90.3,516.8,88.2z"/>
			<path class="st31" d="M481,78c0,1.1-0.1,2.2-0.1,3.4c-1.9,3.5-0.1,7.4-1.1,11c-0.1,0.3-0.5,0.7-0.6,0.7c-2.5-1.6-5-1.2-7.5-0.3
				c-0.2-0.5-0.3-0.9-0.2-1.5c0.1-3.1,0.8-6.2-0.3-9.3c-1.7-3.4,0.3-3.8,3-4C476.3,77.8,478.6,79.6,481,78z"/>
			<path class="st32" d="M463,17.1c0.7,8.6,3.2,17,0.9,25.8c-0.7,2.7,0.1,5.9,0.4,8.8c0.2,1.5,1.1,3-0.8,5.5
				c-0.6-5.3-1.3-9.8-1.6-14.2c-0.4-6,0.3-12-1.6-17.8c-0.8-2.3,0.6-4.2,0.7-6.3C461.8,18.2,462.1,17.4,463,17.1z"/>
			<path class="st33" d="M603.9,100.9c0.3,0.1,0.6,0.2,0.9,0.3c5.5,5.2,4.9,11.7,3.7,18.3c-2.6,0.5-5.2-0.3-7.8,0.4
				c-1.2,0.3-3.1,0.1-2.8-2.2c2.7-1.6,2.7-4.1,2.7-6.7c0-2.4-0.2-4.8,0.1-7.3c0.2-0.8,0.5-1.6,1.2-2.1
				C602.8,101.9,603.5,101.7,603.9,100.9z"/>
			<path class="st34" d="M499.9,89c3.4-3.1,1.5-7.3,2.1-10.9c1.5-0.3,1.5-2.5,4.2-2.7c0,5.3,0,10.4,0,15.6c-0.1,0.2-0.1,0.4-0.2,0.6
				c-0.8,3.2-3.5,5-5.2,7.7c-0.2,0.4-0.6,0.7-1,1c-1.5,0.1-2.1-0.8-2.7-2c-1-2.5-2.7-5.1,2.2-5.7C501.4,92.3,498.3,90,499.9,89z"/>
			<path class="st35" d="M130.1,76c0-0.3,0.1-0.6,0.1-0.9c3.6,0,7.2-0.1,10.8-0.1c1,3,0.5,5.9,0.1,8.9c-4.3,0.4-8.8,1.2-11.5-3.6
				c-0.2-0.7-0.3-1.3-0.1-2C130.8,77.9,129.5,76.7,130.1,76z"/>
			<path class="st36" d="M663.9,75.7c-5.9-1.6-6.1-1.5-4.7,4.2c-0.3,0.4-0.7,0.6-1.2,0.7c-1.4-0.1-1.8-1.2-2.3-2.2
				c-1.6-1.4-1.6-1.4-2.9,2.2c-0.7,1-1.5,1.8-2.8,2c-1.2,0-2.4-0.2-3.6-0.2c-1.7,0-3.4,0.1-5.1-0.2c-0.5-0.1-0.9-0.3-1.3-0.5
				c-2-1.9-3-4.6-5-6.5c3.5-1.5,4.2-1.6,8.6,2.5c1.9,1.8,3.9,1.2,5.9,1.5c1.3,0.2,1.9-0.8,1.5-1.8c-1.4-3.6,1-3.6,3.1-3.1
				C657.4,74.9,661.2,71.9,663.9,75.7z"/>
			<path class="st37" d="M283.1,89c4.1,2.6,6.1,2.1,7.5-2.4c0.8-2.5,2.5-4.1,4-5.9c1.1,0.3,1.5,1.1,1.3,1.9
				c-0.4,1.5-0.1,2.9,1.2,3.3c1.7,0.5,0.4-1.9,1.5-2.1c0.8-0.1,1.6,0.2,2.4,0.3c-0.2,1-1.5,2,0,3c0.2,0.3,0.3,0.6,0.3,0.8
				c-0.1,0.3-0.1,0.4-0.2,0.4c-0.4,0.3-0.8,0.5-1.2,0.7c-4.9,0-8.4,3.5-12.7,5.1c-1.1,0.4-2.1,0.8-3.3,0.2c-1.2-1.1-1.7-2.4-1.5-4
				C282.4,89.7,282.7,89.3,283.1,89z"/>
			<path class="st38" d="M675.9,94.1c0.1,0.3,0.2,0.6,0.3,0.8c0.4,0.7,0.5,1.5,0.2,2.3c-0.8,1.2-1.8,2.3-2,3.9
				c-0.3,1.8-0.9,3.9-3,3.9s-2.8-2-3.4-3.7c-0.3-3.4-1.2-6.8,0.9-10c1.2-0.9,2-1,2.2,0.9c0.1,1.5-0.4,3.4,2.1,4.6
				c-0.6-4.6-0.5-8.9,1.3-13c0.5-1.2,0.9-2.9,2.4-0.7c0,2.1-0.1,4.1-0.9,6C675.2,90.6,674.6,92.4,675.9,94.1z"/>
			<path class="st39" d="M239,95.9c-0.2-4-0.7-8.1,0-12.1c0.3-1.5-0.6-3.5,2-3.7c0,1.3,0,2.6,0.1,3.9c0.2,0.3,0.6,0.5,0.6,0.8
				c0,3.4,1.7,5.5,5,6.4c0.3,0.3,0.6,0.7,0.7,1.1c-0.7,1.9,0.2,3.3,1.2,4.8c0.2,1.8-0.7,2.3-2.3,1.9c-1.1-0.3-2.1-0.8-3.2,0.1
				c-0.9,0.7-1.5,2.7-3,1.6C238.3,99.5,238.1,97.7,239,95.9z"/>
			<path class="st40" d="M305,84.1c3,7.3,9,7.9,15.5,6.5c2.4-0.5,3.5,1.7,5.5,1.4c0.1,0.2,0.1,0.5,0.2,0.7
				c-3.7,3.7-8.1,3.2-12.7,2.3c-1.5-0.6-3-1.2-4.7-0.4c-2.4,1.2-3.2-0.3-3.6-2.3c0.9-2.6-2.4-4.6-1.2-7.3
				C304.3,84.7,304.7,84.4,305,84.1z"/>
			<path class="st41" d="M582.3,102.7c0.2,0,0.4,0,0.5,0.2c2.4,4,0,8.2,0.7,11.7c0.8-3.2-0.2-7.3,0.8-11.1c2-1.7,3.1,0.4,4.6,1
				c0.8,0.8,0.9,1.7,0.8,2.7c-0.1,0.5-0.4,0.9-0.7,1.2c-2.6,2.2-1.4,5.4-2.3,8.1c-0.2,0.7-0.4,1.3-0.5,2c-0.2,0.9-0.4,1.9-0.9,2.7
				c-0.5,0.6-1.1,1-1.9,1.1c-2.6-0.3-3.5-2.1-3.7-4.4c0.4-4.8-0.5-9.8,1.3-14.5C581.3,103.1,581.8,102.8,582.3,102.7z"/>
			<path class="st42" d="M460,78.1c0.3-0.4,0.6-0.7,0.9-1.1c0.1-1.5,0.3-2.9,0.4-4.4s0.5-2.5,2.2-2.6c2-0.2,2.2,0.9,2.2,2.4
				c0,2.6,1.1,5.1,0.4,7.7c-1.2,1.5-1.9,3.7-4.4,3.5c-1.9-0.6-3.8-1.3-4-3.6C457.4,78.4,459.2,78.8,460,78.1z"/>
			<path class="st43" d="M614,75c0.2,0.9,1.2,1.9,0.4,2.8c-3.9,3.9-5,9.7-9.3,13.2c-1-3.3-1-6.5,0.6-9.6c1.7-1.9,3.3-3.8,4.5-6.1
				c0.5-0.5,1.1-0.8,1.7-1c0.6,0,1.2,0,1.9,0c0.4,0.1,0.6,0.2,0.5,0.4C614.2,74.9,614.1,75,614,75z"/>
			<path class="st44" d="M80.1,78c0.1-0.9,0.1-1.9,0.2-2.8c3.2,0,6.4,0,9.6,0c-0.4,1.6,2,3.5-0.7,4.8c-0.2,0-0.4,0.1-0.7,0.1
				c-2.1,0.9-4.1,2-6.1,3.3c-1.1,0.8-2.4,1.4-3.2-0.5C78.7,81.2,78.8,79.5,80.1,78z"/>
			<path class="st45" d="M580,87.6c-1.9,1.6-1.8,4.5-4.6,6.4c-1.2-5.3,2.8-8.7,3.5-12.9c-0.6-3.3,2.2-4.7,3.8-6.9
				c0.7,0,1.5-0.1,2.2-0.1c0.8,2.5-0.6,4.5-1.2,6.8c-0.2,0.4-0.5,0.8-0.9,1.1c-1.5,1.1-0.7,2.7-1,4.1
				C581.3,86.6,580.8,87.2,580,87.6z"/>
			<path class="st46" d="M602,101.5c-0.1,0.8-0.1,1.7-0.2,2.5c-1.3,0.2-2-0.4-2.3-1.6c-0.6-3-0.9-6-0.4-8.1c-0.8,1.3,0,3.6,0,5.8
				c0,1.4,1,2.9-0.4,4.1c-0.9,0.2-1.7,0.1-2.2-0.8c0.2-5.2-0.5-10.3,0.5-15.5c3.9-0.8,5.3,0.7,4.9,4.7
				C601.5,95.6,601.9,98.6,602,101.5z"/>
			<path class="st47" d="M4.1,68.1c-0.3-0.7-0.7-1.4-1-2.1C13,68.7,22.4,72.5,32,76c0.3,1.8-0.8,2.2-2.2,2.4
				C21.2,75.3,12.2,72.8,4.1,68.1z"/>
			<path class="st48" d="M465.9,82.9c-1.1,4.3,1,7.4,4,10c0.9,0.5,1.3,1.3,1.5,2.2c0.1,0.5,0.1,0.9,0,1.4c-0.6,1.5-0.3,4-3,3.5
				c-2.1-0.3-4.3-1.2-4.6-3.7c-0.2-1.8-1-3.4-1.1-5.2C462.9,88.2,462,84.6,465.9,82.9z"/>
			<path class="st49" d="M528.1,95.8c1.5-1,0.3-2.8,1.4-4.2c2.3,1.6,2.3,3.9,2.4,6.2c0.1,2-0.6,4.2,0.9,6.1h0.5
				c0.5,0.7,0.8,1.5,0.8,2.3c-0.1,1.9-0.3,4.4-2.3,4.4c-2.4,0.1-1.8-2.5-1.9-4.2c0-1.1,0.3-2.3-0.1-3.5c0-0.6-1.1,0-0.4-0.2
				c0.2,0,0.3,0.1,0.3,0.4c0.3,1.5,0.4,3.7-1.3,3.5c-1.9-0.1-1.7-2.5-1.6-4.1C527.4,100.4,526.1,97.8,528.1,95.8z"/>
			<path class="st50" d="M665.9,86.4c0.5-3.1,1-6.3,1.5-9.4c1.2-0.7-0.1-3.7,2.7-3c2.4,0.5,1.1,2.7,1.1,3.6c0,2.9-0.6,5.9-1.4,8.7
				C668.8,90.1,667.2,84.5,665.9,86.4z"/>
			<path class="st51" d="M675.9,94.1c-3.9-4-0.2-7.4,0.9-11.1c0.4,0.3,1.8-0.6,3.1-1.9c3.9,2.4,2.3,4.9,0,7.2
				C678.3,90.1,675.9,91.2,675.9,94.1z"/>
			<path class="st52" d="M246.9,91.9c-1.8,0.2-3.7-3.4-5.8,0.2c0-2.7,0-5.5,0-8.2c0.3,0,0.6,0.1,0.9,0c1.4-0.6,2.8,0.3,4.3-0.2
				c3.4-1.1,3.9,1,3.6,3.7C249.3,89.2,248.1,90.6,246.9,91.9z"/>
			<path class="st53" d="M588.9,105c-1.9,0.5-2.9-1.1-4.1-2c-1-0.8-0.8-2-0.9-3.1c3.5-1.7,2-5.1,2.4-7.8c0.2-1-0.5-2.2,0-3.3
				c0.3-0.8,1.2-1.3,2-1.1c0.3,0.1,0.7,1.1,0.5,1.6c-0.9,3.6,0.5,7,0.2,10.6C589.7,101.6,589.6,103.3,588.9,105z"/>
			<path class="st54" d="M715,104.1c2.6-0.2,3.5-1.3,3.3-4.2c-0.4-5.3-0.3-10.6-0.4-15.9c2.2,3.4,0.6,7.2,1.2,10.7
				c2,3,6,5.1,4.4,9.7c-1.1,1.7-3.2,1.3-4.8,2.2C716.4,107.9,715.2,106.6,715,104.1z"/>
			<path class="st55" d="M723,104.9c-0.3-2.8-0.1-5.8-3.3-7.5c-0.5-0.2-0.3-1.8-0.4-2.7c1.2,0.4,2.4,0.9,3.7,1.3
				c1.5,2.4,2.5,5.4,5.9,6c-0.3,2.9-2.8,4.2-4.6,6.1C722.8,107.4,722.8,106.1,723,104.9z"/>
			<path class="st56" d="M606.9,81.1c-2.2,3-2.1,6.4-1.9,9.9c-0.3,0.4-0.6,0.7-0.9,1.1c0-3.8-0.4-7.6-1-11.4
				c-0.9-6.4-0.6-6.6,5.7-6.6c1,0,2,0.1,3,0.2c-0.3,0.3-0.6,0.6-0.9,0.9c-1.5,1.1-3.1,1.6-5.3,1C608,77.6,608.2,79.2,606.9,81.1z"/>
			<path class="st57" d="M574.7,85c-2.2-1.5-0.2-4.1-1.6-5.8c-1.1-8.1,4.6-3.7,7.7-4.1C580.6,79.4,576.3,81.4,574.7,85z"/>
			<path class="st58" d="M43,75.2c0.1,0.3,0.1,0.5,0.2,0.8c0.4,2,1.1,4,0.7,6.1C42,84.3,40,84.2,38.5,82c-1.3-1.8-1.1,0.9-1.7,0.4
				c-0.6,0-1-0.3-1.3-0.7c-0.8-2.5-1.2-4.9,1.7-6.4C39.1,75.2,41,75.2,43,75.2z"/>
			<path class="st59" d="M614,75c-0.1-0.3-0.2-0.5-0.2-0.8c4,0,8,0.1,12-0.1c2-0.1,3,1,4.1,2.1c0.8,0.8,0.8,1.7,0.4,2.6
				c-2.4,2.1-3.9-2-6.2-0.9c-1.5,0.2-2.9,0.2-4.1-0.7C617.7,77.5,616.2,75.2,614,75z"/>
			<path class="st60" d="M668.8,91.3c0.1,3.6,0.2,7.2,0.3,10.7c-1.8,0.7-2-1-2.8-1.8c-1.8-3.2-0.9-6.8-1.4-10.1
				C666.6,89.2,667.6,90.4,668.8,91.3z"/>
			<path class="st61" d="M596.9,88.1c0,5.3,0,10.7,0.1,16c0.6,0.7,0.6,1.4,0.2,2.1c-1.4,1.5-2.6,1.2-3.8-0.3c-1-2.3-0.7-4.9-1.6-7.3
				c-0.3-0.9-1.1-3.8,2.1-2.6c1.1,1.4,0.9,3.3,1.5,5.7C596.7,96.6,594.7,92.2,596.9,88.1z"/>
			<path class="st62" d="M214.8,87.9c0.5-2,1.6-3.8,1.1-6c0.5-1.4-3.2-5.2,2.2-3.9c2.5,2.4,5.6,4.1,7.7,7c-2.9,2-4.2-1.3-6.7-2.1
				c-0.4,1.6,1.3,2.5,1.3,3.7c-0.7,1.4-2.1,2.3-3.1,3.5c-0.4,0.2-0.9,0.2-1.4,0.1C215.1,89.7,214.4,89,214.8,87.9z"/>
			<path class="st63" d="M506.2,90.9c0.5,0,1,0,1.5,0c1.5,0.9,1.1,2.4,1.3,3.7c0.7,3,3.1,1.5,4.8,1.8c1.1,0.2,2.5-0.1,2.5,1.6
				c0,1.4-1.2,1.9-2.3,2c-2.1,0.3-4.2,0.3-6.1,1.4c-1.4,0.2-2.3-0.4-2.8-1.6c-0.9-3-0.4-5.9,0.7-8.8C505.9,91.1,506.1,91,506.2,90.9
				z"/>
			<path class="st64" d="M37.2,75.2c-1.4,2.1-1,4.6-1.1,6.9c1.4,1.8,1.8,4-0.5,4.8c-1.8,0.6-3-1.6-3.3-3.5c-0.2-1.3,0-2.7-1.4-3.5
				c-0.4-0.2-0.7-0.5-1-0.8c-0.1-0.5,0-0.8,0.4-1.1c0.8-0.4,1.6-0.8,1.8-1.8C33.6,75.1,35.4,74.9,37.2,75.2z"/>
			<path class="st12" d="M304,85c0.5,2.4,3.6,4,2,7c-1.5,1.6-2.5,5.2-4.9,3.6c-2.5-1.6-1.8-5-0.1-7.5c0-0.3,0-0.7,0-1
				C302.5,87.2,303,85.7,304,85z"/>
			<path class="st18" d="M249,88.1c-0.1-1.9,0.8-5.1-3.1-3c-1.8,1-2.7-0.6-3.9-1.1c1.3-2.5,4.7-0.5,6-3l0.1,0.1
				c1.5,1.6,4.7,1.7,4.4,5c0.5,1.7,1.8,3.8-0.5,4.8C249.9,91.7,249.3,89.8,249,88.1z"/>
			<path class="st65" d="M161,79c2-1.3,4-2.6,6-3.9c5.3,0,10.6,0,15.9,0c-0.7,1.1-2.2,1.4-3.1,1.2c-6.3-1.4-11.6,2.9-17.7,2.7
				C161.8,79.4,161.4,79.4,161,79z"/>
			<path class="st66" d="M278.1,78c-0.3,2.6,0,5,2,6.9c0.1,0.6,0.2,1.3,0.3,1.9c-0.6,3,3.1,5.1,1.7,8.3c-0.5,0.2-1,0.3-1.5,0.2
				c-2.2-1.1-4.3-2.2-4.6-5c-0.7-4.1,1-8.2,0-12.2l-0.3-0.1C276.6,77,277.3,76.9,278.1,78z"/>
			<path class="st67" d="M465.9,82.9c-2.1,2.7-1.6,6-2,9c-1,2.4,0.8,5.8-2.8,7.2c-0.4-0.3-0.8-0.6-0.9-1.1
				c-0.2-4.3,1.7-8.6-0.1-12.8c0.2-1.1,0.9-1.8,1.9-2.2c1.3-1,2.7-2,4-3C466,81,466,82,465.9,82.9z"/>
			<path class="st68" d="M629.5,78.8c0.1-0.8,0.3-1.7,0.4-2.5c1.6,0,3.2,0,4.8,0c1.2,0.6,1.5,1.8,1.9,2.9c0.3,1.2,0.4,2.3-0.2,3.5
				c-0.3,0.4-0.6,0.7-1.1,0.8c-1.3,0-2.6,0-4,0.2C628.3,83,629.9,80.5,629.5,78.8z"/>
			<path class="st69" d="M568.8,90c-2.5-2.1-5.1,0.2-7.7-0.1c-2.7-0.3-5.7,1.1-8.2-1c5.3-0.7,10.5-2.2,16-1.9
				C569.7,88.1,569.8,89.1,568.8,90z"/>
			<path class="st70" d="M508,83.1c-0.6-2.9,1.6-2.8,3.3-3c1.7-0.2,3.8-0.7,5,1.1c0.9,1.3-0.2,2.3-1.3,2.5c-1.6,0.3-3.3,0.2-4.9,0.3
				C509.5,83.5,508.5,83.7,508,83.1z"/>
			<path class="st71" d="M463,17.1c-0.4,0.8-0.5,2-1.9,1.7c-0.4-4.8-0.8-9.5-1.2-14.3C463.4,8.2,462.7,12.8,463,17.1z"/>
			<path class="st72" d="M594,96.1c-1.3,0-1.9,0.7-1.2,1.8c1.7,2.5,1.1,5.3,1.1,8c0.6,1.1,0,1.8-1,2.2c-1.3,0.5-2-0.4-2.6-1.4
				c-0.4-2.5,0.8-5.1-0.1-7.7C591.3,94.4,591.3,94.4,594,96.1z"/>
			<path class="st73" d="M583.9,99.9c1.3,0.7,0.5,2.1,0.9,3.1c0,4.7,0.1,9.5-2,14.1c0-4.7,0-9.4,0-14.2
				C583.1,101.8,582.6,100.5,583.9,99.9z"/>
			<path class="st74" d="M583.1,81.1c-0.1-2.5,1-4.7,1.8-7c3.6,0.2,2.5,3.2,2.9,5.1c0.4,2.5-1.9,1.6-3.1,2
				C584.2,81.5,583.6,81.6,583.1,81.1z"/>
			<path class="st75" d="M526,91.1c0-4.3,0-8.7,0-13c2.1,4.5,2.1,9.2,1.8,14C526.8,92.5,526.5,91.6,526,91.1z"/>
			<path class="st76" d="M568.8,90c0.1-1,0.1-2,0.2-3c0.7-0.1,1.4-0.1,2-0.2l-0.1,0.3c0.7,4.7,1.5,9.5,0.6,14.3
				c-2.3,0.5-2.4,0.4-3.1-3.4c0.1-1.7-0.3-3.4,0.3-5.1c0-0.7,0-1.3,0-2C568.9,90.7,568.9,90.4,568.8,90z"/>
			<path class="st77" d="M583.1,81.1c0.5,0,1.1,0.1,1.6,0.1c0,4.5,0,9,0,13.5c-0.4,0-0.9,0-1.3,0c-1.1-4.2-0.2-8.5-0.5-12.8
				C583,81.7,583.1,81.4,583.1,81.1z"/>
			<path class="st78" d="M590.2,98.9c3.3,2,0.6,4.6,0.6,7c-0.6,0.7,0.1,2.6-1.9,2c0-1,0-2-0.1-3c-1.2-1.8-0.8-3.5,0.2-5.1
				C589.5,99.5,589.8,99.2,590.2,98.9z"/>
			<path class="st79" d="M508.1,95.1c-0.1-1.4-0.3-2.8-0.4-4.2c1.3-1.9,3.3-0.9,5-0.9s3.2-0.1,4.1-1.9c0.3,2.2-0.7,3-2.8,2.8
				c-3.6-0.3-4.9,1.4-3.7,4.8C509.1,96.9,508.7,95.8,508.1,95.1z"/>
			<path class="st80" d="M574.7,85c0.8-4.1,4.6-6.3,6.1-10c0.3-1.1,1.2-0.9,2-0.8c-1.3,2.3-2.5,4.6-3.8,6.9
				C576.9,81.7,577.3,84.9,574.7,85z"/>
			<path class="st41" d="M580,87.6c0.1-1.2,0.8-1.7,1.9-1.5c0.1,5.5,0.2,11.1,0.3,16.6c-0.2,0.2-0.4,0.3-0.6,0.5
				c-3.6-2.1-1.1-5.5-1.7-8.2c0-1.8-0.1-3.6,1-5.2C580.7,89.1,580.4,88.3,580,87.6z"/>
			<path class="st81" d="M635.9,79.4c-1.4-0.7-0.1-2.3-1.1-3.2c0.1-0.4,0.2-0.8,0.3-1.2c3.8,0.1,3.9,3.4,4.8,5.8
				C637.8,82.5,637.1,80.3,635.9,79.4z"/>
			<path class="st82" d="M526,91.1c0.6,0.3,1.2,0.6,1.8,1c-0.8,1.3-0.9,2.6,0.3,3.8c-0.1,2.4-0.2,4.8-0.3,7.3
				c-2.3,0.1-0.8-2.2-1.8-2.9c-0.1-1.4-0.2-2.8-0.2-4.3C525.9,94.3,526,92.7,526,91.1z"/>
			<path class="st83" d="M508,83.1c0.9-0.1,1.8-0.3,2.1,1c-2.2,4,1.9,2.7,3.4,3.6C508.2,89.8,508.1,89.7,508,83.1z"/>
			<path class="st84" d="M714.8,84.1c-2.5,1.2-0.6,5.3-3.9,5.9c0.3-2.6,0.7-5.3,1-7.9C713.4,82.1,714.1,83.1,714.8,84.1z"/>
			<path class="st85" d="M470.9,95c-0.8-0.5-0.9-1.3-1-2.1c1.2-3.6,1-7.3,1-11c1.8,3.3,0.9,6.7,0.9,10.2
				C471.2,93,472.1,94.3,470.9,95z"/>
			<path class="st86" d="M521,121c-1,1.9-1.9,3.7-4.7,3.6c-15.8-0.1-31.6-0.1-47.4-0.1c-0.2,0-0.5-0.4-0.7-0.6
				c1.6-4.1,5-2.7,7.4-2.4c-0.5-3.7-6.4-0.2-6.8-4.9c1.7-3.3,0.4-7,1.2-10.4c0.2-0.5,0.4-0.9,0.7-1.3c0.9-0.4,1.9,0.1,1.9,0.8
				c-0.2,4.8,3.3,6.4,6.8,8c3.8,2,8.1,2.6,12,1.6c4.9-1.3,9-0.1,13.3,1.6c0.7,0.3,1.3,0.7,1.9,1.1c3.4,1.3,6.9,0.3,10.3,0.1
				C518.6,118.6,520.8,118.4,521,121z"/>
			<path class="st87" d="M521,121c-0.9-1.5-2.9-1-4-2.1c-1.1-0.4-1.7-1.2-1.5-2.2c0.5-2.4-0.7-3.2-2.9-3.5c-1.7-0.2-3.4-0.8-3.2-3
				c0.2-2.1,2.1-2.3,3.7-2.5c1.7-0.1,3.2-0.6,4.3-2c1.5-1,3.1-0.8,4.7-0.4c1.1,0.3,2.3,0.6,2.6-1.1c0.2-0.9,0.4-1.8,1.1-2.4
				c0.1-0.6,0.2-1.1,0.2-1.7c0.6,1,1.2,2,1.8,2.9c0.2,1,0.3,1.9,0.5,3c0.9-1.3,0.4-3.3,2.3-4.1c0.2,2.7,0.3,5.3,0.5,8
				c2.6-1.5,1.3-4.1,2.1-6c0.2,0,0.3,0,0.5,0c3.4,5.1,9.1,2.9,13.7,4.2c1.5,0.8,3.7,0.3,4.7,3.3c-5.8,0.2-11.4,0-15.8,0.1
				c9.9,0.7,20.9-1.3,31.9-1c0.5-0.2,1-0.4,1.4-0.8c1.3-3.8,1.5-7.7,1.8-11.6c0.1-1.8-0.6-3.6,0.6-5.3c1.8,3.2,0.1,7.1,1.8,10.3
				c0.5,4.3,3.5,8.2,2.1,12.9c-1.9,1.1-2,3.3-3.1,4.9c-0.2-0.1-0.7-0.2-0.7-0.3c-0.9-7.7-0.9-7.7-9-7.7c-8.3,0-16.6,0.1-24.9-0.1
				c-3.3-0.1-5.8,0.3-6.7,4.1c-0.4,1.7-2.3,2.3-3.5,3.3c-3.1-2.5,0.1-6.2-1.6-8.9c0.5,3.2,0.7,6.5-0.5,9.7
				C524.3,120.9,522.6,121,521,121z"/>
			<path class="st88" d="M430.8,180.9c-3.8-1.9-3.9-7.5-8.9-8.4c-1.3-0.2-1-2.9-1-4.6c0.2-1-0.3-2.9,1.3-2.6c4,0.7,3.1-2.2,2-3.3
				c-3.6-3.6-3-8.1-3.4-12.4c-0.1-0.6-0.6-1.1-0.9-1.7c-1.1-2.5-0.1-5.2-0.4-7.8c0-1.3,0.1-2.5,0.7-3.7c3.4-2.5,7-0.3,10.6-0.5
				c0,8,0,16-0.1,24.1c-3,0.9-3,3.9-2.2,5.5c1.4,2.7,0.8,5.8,2.2,8.3C430.9,176.2,430.8,178.6,430.8,180.9z"/>
			<path class="st89" d="M662.1,117c3.9-2.7,0.8-6.8,1.9-10.1c1.4-0.2,2.6,0.6,2.4,1.7c-0.3,2,1.6,0.7,1.9,1.6
				c1.1,2.6,1.4,5.1-1.4,6.9c-0.3,0.2-0.6,0.1-0.9,0.1c0.5,4.5,0.5,4.5-3.1,6.6c-4.1,0.1-8.2,0.2-12.3-0.7c-2.1-1.5-1.8-3.7-1.9-5.9
				c0-0.7,0.1-1.4,0.2-2.1c0.7-1.8,0.4-3.4-1.1-4.8c-0.5-0.9-0.1-1.7,0.4-2.5c0.5-1,1.8-1.8,1-3.3c-0.3-0.9-0.4-1.7-0.4-2.6
				c0-0.5,0-1,0.1-1.4c0.2-0.7,0.5-1.4,1.1-1.9c0.9-0.5,1.9-0.6,3-0.4c2.4,1.1,4.3,2.9,6,4.9c2.2,3.5,0.6,7.2,0.8,10.8
				c-0.2,1.2-1.6,1.6-2,2.6c-0.6,1.3-1,2.5,1.2,2.6c0.5-0.1,1.6,1.4,1.5-0.6C660.4,117.7,661.2,117.1,662.1,117z"/>
			<path class="st90" d="M461.1,124.1c-2.7,1.1-5.6,0.5-8.3,0.5c-3.9,0-5.8,1.6-5.6,5.7c0.1,1.1-0.2,2.3-0.2,3.4
				c-0.1,1.1-0.7,1.3-1.6,1.3c-1,0-1.5-0.6-1.4-1.6c0.1-1.1,0.2-2.3,0.3-3.4c0.1-0.8,0.6-1.8,0.3-2.3c-0.9-1.5-1.7-3.7-3.9-3.1
				c-3.2,0.9-7.5-2.7-9.7,2.3c-3.7,0.3-7.7,5.1-11-0.7c-0.3-2.5-4.7-3.7-2.5-6.9c1.9-2.7,5.2-1.6,7.9-1.8c3.2-0.3,6.3,0.7,9.3,1.5
				c3.5,0.9,6.9-0.5,10.2-0.7c2.4-0.1,4,3.9,7.3,4c2.8,0.2,5.7-0.5,8.3,1C460.7,123.7,460.9,123.9,461.1,124.1z"/>
			<path class="st91" d="M703.7,115.2c-0.2,1.9-3.4,3.8-0.1,5.8c-4.4,1.8-9.4-0.1-13.8,2c2.1-4.4,4.9-8.6,3.9-13.8
				c0.1-0.2,0.3-0.3,0.4-0.5c3.8-2.4-1.1-2.7-1.1-4.2c-0.1-0.2-0.2-0.4-0.3-0.6c3.1-2.7,0.3-6.4,1.7-9.4c0.6-1.2,0.2-2.9,0.3-4.3
				c3.8,0.5,1.9,3.5,2.3,5.5c-0.2,1.1-0.3,2.3-0.2,3.4c0.5,4.8,1.6,5.3,5.7,2.5c1.1-0.3,1.7,0.5,2.3,1.2c0.1,3.8-3.1,7.5-0.1,11.3
				C705.1,115.1,704.8,115.5,703.7,115.2z"/>
			<path class="st92" d="M662.9,123.8c3.4-3.9,5.4-8.3,4.9-13.7c3.7-1.6,0.7-3.2,0.1-4.8c-2.8-1-1.8-3.2-1.5-5.1
				c1.5-0.3,1.6,1.6,2.8,1.8c1.8,3.6,3.2,1.8,4.5-0.4c0.8-1.4-0.2-3.8,2.2-4.4c0.6,0.5,0.7,1.1,0.2,1.8c-1.7,4.2-1.7,8.7-2,13.1
				c-0.4,5.9-0.2,6,2.9,11.6C672.2,123.3,667.5,122.9,662.9,123.8z"/>
			<path class="st93" d="M589,107.9c0.6-0.7,1.2-1.4,1.9-2c1,1.3,2.1,2.1,3.1-0.1c0.9,0.2,1.7,1.1,2.7,0.3c1.7,0.9,1.1,2.4,1,3.8
				c-0.4,2.8-0.3,5.5,0.4,8.2c2,1.8,4,0.9,5.9,0c2.4-1.1,3.1,0.3,3.8,2c0.3,0.2,0.4,0.4,0.4,0.6c-0.1,0.3-0.1,0.4-0.2,0.4
				c-3.4,3.8-7.9,2.5-12.1,2.6c-1-0.9-2-1.8-2.5-3.1c-0.3-0.9-0.4-1.8-0.4-2.7c0.8-3.7-2.1-5-4.2-6.8c-0.8-1-1.3-2.1,0.3-2.9
				L589,107.9z"/>
			<path class="st94" d="M421,127c1.3,1.5,3.1,1.5,4.5,0.6c1.8-1.3,3.6-0.5,5.4-0.6c0,3,0,6-0.1,9c-3.2,2.4-6.5,0.5-9.8,0.1
				c-1.9-1.7-1.3-4-1.3-6.2c0.1-0.8,0.3-1.6,0.7-2.3C420.6,127.4,420.8,127.2,421,127z"/>
			<path class="st95" d="M635.1,123.7c-3.4,0-6.8,0-10.2,0c-1.8-0.7-2.7-1.8-1.7-3.8c0.5-0.9,1.3-1.7,1.4-2.6c0.3-5.1,3.1-4.6,6.5-3
				c1.4,0.3,2.5,1.1,3.4,2.1c0.7,0.9,1.2,1.8,1.2,3C635.3,120.9,636.2,122.4,635.1,123.7z"/>
			<path class="st96" d="M631,115c-2.3,2.4-2.7-1.4-4.7-1.1c2.1,3.5-4.6,5.8-1.4,9.8c-1.7,0-3.3-0.1-5-0.1c-1.8-1.3-1.8-3-1.2-4.9
				c0.3-1.1,0.8-2.1,1.2-3.1c0.2-2.3,0.9-4.3,2.3-6.1c0.9-0.5,1.8-0.5,2.7-0.3c1.6,0.5,3.3,0.5,4.8,1.2c0.4,0.3,0.7,0.6,1,1.1
				C631.1,112.6,631.6,113.7,631,115z"/>
			<path class="st97" d="M607.8,121.1c0-0.3-0.1-0.7-0.1-1c0.7-6.6,0.4-12.9-2.8-18.9c1.1-2.3,3.4-3.7,4-6.3c3.6,2,2.1,5.5,2.3,8.5
				c0,0.5-0.1,1.1-0.3,1.6c-1,4-0.8,8.1-0.3,12.2c0.3,1.2,0.6,2.4,0.9,3.6c0.1,0.8,0,1.4-0.7,1.9C609.4,122.9,608.6,122,607.8,121.1
				z"/>
			<path class="st98" d="M649.9,116.9c0.2,2,0.5,4.1,0.7,6.1c-3.7,0.2-7.3,0.4-10.8-0.9c-1.5-2.3-0.9-4.2,1.2-5.8
				C644,115.4,647,115,649.9,116.9z"/>
			<path class="st99" d="M723,104.9c1.2,0.8,0.8,2.1,1.2,3.2c-1.8,1.9-2.8,4.5-5.4,5.6c-0.5-2.8,0.6-6.6-4.5-6.3
				c-0.5,0-1.7-1.7-1.7-2.6c0.1-1.1,1.5-0.8,2.5-0.7c1.3,0.9,2.3,3.6,4.3,0.4C720.2,103.2,721.7,104.6,723,104.9z"/>
			<path class="st100" d="M581,95.1c0.5,2.7-0.4,5.5,0.7,8.1c-0.3,4.9-0.6,9.8-0.9,14.7c-0.6,1.1-0.9,2.5-2.7,2.2
				c-0.7-0.9-1.5-1.7-1.4-3c-0.2-0.8,0.2-1.5,0.5-2.2c1-3.9-0.4-8,1-11.9C579.4,100.4,578.1,97,581,95.1z"/>
			<path class="st101" d="M577.7,115.9c-0.3,0.4-0.6,0.8-0.9,1.2c-0.3-0.4-0.5-0.8-0.8-1.1c-0.3-4.4-3.9-8.2-2.1-12.9
				c1.2,0.9,2.4,0.1,3.6-0.1c0.6,0.1,0.9,0.5,0.9,1.2C578,108.1,579.4,112.1,577.7,115.9z"/>
			<path class="st102" d="M430.9,173.8c-3.6-3.8-3.6-8.8-4.1-13.4c-0.2-2.1,2.7,0.1,4-0.5C430.8,164.6,430.8,169.2,430.9,173.8z"/>
			<path class="st103" d="M469.1,116.9c0.1,0.3,0.4,0.9,0.4,0.9c4.3-1.4,5.6,4.5,9.6,3.7c-3.7,1.2-7.8-0.7-10.9,2.5
				c-0.7-1.3-1.4-2.6-2.2-3.9c-0.8-0.6-0.9-1.5-0.7-2.4c0.2-0.4,0.4-0.8,0.7-1.1c0.5-0.4,1.1-0.7,1.7-0.9c0.4-0.1,0.8,0,1.2,0.2
				C469.3,116.1,469.3,116.5,469.1,116.9z"/>
			<path class="st90" d="M466,117.1c0,1,0,1.9,0,2.9c-1.5,1.3-0.1,3-0.6,4.7c-1.6-0.2-3-0.4-4.3-0.6l-0.3-0.3
				c-1.5-2-1.3-4.1-0.6-6.3c0.7-1.3,2-1.7,3.4-2C464.8,115.5,465.6,115.9,466,117.1z"/>
			<path class="st104" d="M610.8,122.7c-0.1-0.7-0.2-1.3-0.3-2c-0.8-5.6-0.5-11.3-0.4-17c-0.1-3,0.1-6-1.2-8.8
				c0.4-0.4,0.7-0.7,1.1-1.1c1.1-0.1,1.6,0.6,2,1.4c0.6,3.4,1,6.9,1.5,10.4c0,4.1,0.1,8.2,0,12.3c0,1.8,0.1,3.7-1.4,5
				C611.5,122.8,611.2,122.7,610.8,122.7z"/>
			<path class="st105" d="M611.9,122.9c0.1-5.9,0.1-11.9,0.2-17.8c0.4-0.3,0.9-0.3,1.3,0.1c1.4,2.2,1.2,4.7,1,7.1
				c0,0.8,0.1,1.7-0.1,2.5c-0.7,3.1,0.8,4.6,3.7,5c0.3,0.4,0.4,0.8,0.3,1.2c-1.1,1.5-3.2,1.6-4.4,2.9
				C612.9,124,612.1,124,611.9,122.9z"/>
			<path class="st106" d="M465.4,125.6c2.3,5.4,2.2,9.2-1.2,13.6C464.6,134.5,464.9,130.7,465.4,125.6z"/>
			<path class="st107" d="M641,117c-1.2,1.5-1.2,3.3-1.3,5.1c-0.3,0.1-0.6,0.2-0.9,0.2c-2.8,0.8-3.7-0.5-3.5-3.1
				C635.9,114.9,638.2,115.4,641,117z"/>
			<path class="st108" d="M593.8,120.8c1.6,0.3,1.9,1.5,1.9,2.9c-2.2,0.1-4.4,0.1-6.5,0.2c-1.1-0.9-1.1-2-0.4-3.2
				C590.5,119.6,592.2,119.6,593.8,120.8z"/>
			<path class="st109" d="M578.1,120.1c0.9-0.7,1.8-1.5,2.7-2.2c-0.3,2.4,0.9,3.6,3.2,3.6c0.8,2.2-1.4,1.7-2.2,2.5
				C578.6,124.5,578.3,122.4,578.1,120.1z"/>
			<path class="st110" d="M526,120.9c0-3.6,0-7.2,0-10.9c3.9,2.8,0.1,7,2.1,10.1C527.6,121.1,526.8,121.1,526,120.9z"/>
			<path class="st111" d="M581.8,123.9c0.8-0.8,2-1.1,2.2-2.5c0.3-0.2,0.7-0.4,1-0.6c1.5-1,2.9-1.1,4.2,0.3
				c-0.3,0.9-0.7,1.8-0.1,2.8C586.7,123.9,584.3,123.9,581.8,123.9z"/>
			<path class="st112" d="M617.8,121.1c0-0.5-0.1-0.9-0.1-1.4c-1.2-2.4-2.3-4.7,0.2-7c0.5-0.1,1,0,1.4,0.4c1.6,1.8-0.7,4,0.7,5.8
				c-1.4,1.6-0.3,3.2-0.1,4.7c-0.7,0-1.5,0-2.2,0C617,122.8,617.2,121.9,617.8,121.1z"/>
			<path class="st113" d="M464.6,143.2c1.2,3,1.1,4.9-0.1,6.7c-0.1,0.1-0.8,0.1-0.9,0C462.6,147.8,463.2,145.9,464.6,143.2z"/>
			<path class="st114" d="M617.8,121.1c0,0.9-0.1,1.7-0.1,2.6c-1.3,0-2.6,0-3.9,0.1C613.8,120.8,615.3,120.2,617.8,121.1z"/>
			<path class="st115" d="M635.8,120c0.1,2.1,2,1.7,3.1,2.4c-1.1,1-2.1,2.1-3.8,1.4c0.1-1.2-1.1-2.4-0.2-3.7
				C635.2,119.5,635.5,119.5,635.8,120z"/>
			<path class="st116" d="M187.1,120.9c-15.3,0-30.7,0-46,0.1c-0.4-5.5-2.6-11-0.5-16.6c7.4,0.1,14.7-0.9,22.1-0.3
				c2.9,0.2,4.9-1.9,7.1-3.3c0.5-0.1,0.9-0.2,1.4-0.1c2.5,1.2-0.3,2.8,0.3,4.3c5.4,1,11.1-1.4,16.3,1.5c0.4,0.7,0.6,1.5,0.7,2.3
				C188.2,112.8,189.6,117,187.1,120.9z"/>
			<path class="st116" d="M131.1,120.9c-17,0-34-0.1-51-0.1c-0.3-0.5-0.2-0.9,0.1-1.3c0.4-0.3,0.8-0.5,1.3-0.6
				c6.4-0.7,7.9-3,6.9-10.5c-0.3-1.8-0.8-3.5,0.4-5.2c6.2-1.1,12.2-1.2,18.4,0.6c3.8,1.1,8-1.3,12.1-1c3.6,0.2,7.1,0.2,10,2.8
				C131.5,110.5,130.7,115.8,131.1,120.9z"/>
			<path class="st117" d="M282.8,124c-10.3,1-20.5,0.5-30.8,0.5c-11.4,0-22.9,0.6-34.3-0.4c3.7-2.9,7.9-1,11.9-1.5
				c2.5-0.3,5.9,1.1,5.7-3.6c0-0.9,1.4-1.8,2.2-2.5c1.8-3.1,4.8-0.3,7-1.6c8.1,0.1,16.2,1.3,24.3,0.5c3.6-0.4,5.5-1.5,5.8-5.1
				c1-0.9,1.8-0.3,2.6,0.3c2.4,3.6,7,5.5,11.6,3.9c2.4-0.8,4.3-1.2,6.5,0.3s4.5-0.8,6.8,0.1c4.5,1.3,9.2,0.5,13.7,0.7
				c1.8,0.1,3.6-0.1,5.4,0.6c2.1,1.3,1.6,2.9,0,4c-5.2,3.4-11.4,4.2-17,6.9c-0.3,0.1-0.7,0.2-1,0C297,122.2,289.6,125.1,282.8,124z"
				/>
			<path class="st118" d="M282.8,124c4.4-2.3,9.4,1,13.9-1.4c0.5-0.3,2.8,1.1,4.5,1.4c4,0.9,11.8-0.6,15-3.6
				c0.9-0.8,1.5-0.9,2.6-0.7c2.1,0.4,3-0.8,3.2-2.8c0.8-0.9,1.9-1.4,3.1-1.4c10.1-0.1,20.2-0.8,30.2,0.4c2.1,1.4,4.6,1.4,6.9,2.1
				c3.9,1.1,4.3,3.5,1.2,6.4c-11.9,0.1-23.7,0-35.6,0.1c-1.6,0-3.3-0.5-4.8,0.5c-0.1,1.3-0.1,2.7-0.2,4c-0.9,2.2,0.3,4.6-0.8,6.8
				c-2.7,0.4-2.5-2.8-5-3.6c-1.9,5,0.8,10.7-1.7,15.6c-2.5-1.2-2.4-1.2-2.7-4.5c-0.3-4.2,0.6-8.6-0.9-12.9c-4,2.9-7.7,5.6-12.8,3.6
				c-0.1-1-0.4-2-0.4-2.9c0.1-6.4,0.2-6.3-6.5-6.5C289,124.5,285.9,125.1,282.8,124z"/>
			<path class="st119" d="M299,134c1.1,0.1,1.7-2.6,3.1-0.4c0.2,0.4,0.6,0.6,1,0.9c-0.1-4.6,6.1-1,6.6-5c0.1-0.8,1.7-1.3,2.7-2
				c2.3,5,1.4,10,1.7,14.8c0.1,1.9-0.7,4,1,5.6c1.5,4,5.2,2.2,7.9,3c0,1.3,0,2.7,0,4c-2.6,2.1-6.6,0.6-8.9,3.4c0,0,0.5-2.4-1.2-2.7
				c-1.5,4.8-1.5,4.8-5.5,0.8c-0.6-0.6-1.5-0.5-1.7-0.1c-0.9,3.6-4.6,2.9-6.7,4.5C298.9,151.9,298.4,143,299,134z"/>
			<path class="st120" d="M131.1,120.9c-2.7-2.4-1.1-5.8-1.7-8.6c-0.3-1.8-0.5-4.1-0.3-6.2c0-0.7,0.3-1.4,0.8-1.9
				c2.3-1.7,3.3-5.4,7.3-4.3c0.8,1.4-1,2.3-0.7,3.5c1.8,1.4,2.9-1.6,4.6-0.6c0.3,0.4,0.3,0.8,0,1.2c0.8,4.8-1.9,10.1,2.4,14.5
				c1.1,1.2-2,1.1-2.4,2.4C137.7,120.9,134.4,120.9,131.1,120.9z"/>
			<path class="st121" d="M212.1,118.9c-4.4,2.6-9.2,2.5-14,2c-3.1-2-2.5-5.8-1.5-7.5c1.9-3.3,0-5.5-0.5-8.2c0-0.7,0.2-1.4,0.6-2
				c0.4-0.3,0.8-0.4,1.3-0.2c3.3,2.6,7.4,2.6,11.2,3.6c0.9,0.2,2,0,2.5,1.1c1,3,0.4,6.1,1,9.1C212.8,117.5,212.6,118.3,212.1,118.9z
				"/>
			<path class="st122" d="M212.1,118.9c0-0.6,0-1.2,0.1-1.9c2.6-1.7,2.4-5,4.4-7.6c2.6,7.3,8.2,5.8,13.5,5.2c3.3-0.4,6.2,0.8,9,2.3
				c-1.4,1.9-6.9,3.3-0.9,7.2c-6.8,0-13.6,0-20.5,0C214.8,123.5,214.3,120.3,212.1,118.9z"/>
			<path class="st123" d="M197,105.1c3.4,3.9,0.1,8.1,0.3,12.1c0.1,1.3,0.1,2.5,0.7,3.7c-3.6,0-7.3,0-10.9,0c0-4.3,0-8.5,0-12.8
				C189.4,103.6,192.1,102.8,197,105.1z"/>
			<path class="st124" d="M80.1,120c0,0.3,0,0.6,0,0.9c-13.9,0.1-27.9,0.3-41.8,0.3c-2.1,0-4.4,0.4-6.2-1.2
				c-0.3-0.3-0.5-0.7-0.6-1.2c-0.1-1.8-0.9-3.7,0.7-5.3c0.9-0.5,1.8-0.5,2.8-0.2c1.3,0.6,2.2,1.5,2.6,2.8c1.1,3.5,3,2.8,5.2,1.2
				c3.3-1.9,7.1-1.8,10.6-1.8c8.6-0.1,17.2,0.4,25.5,2.8C79.7,118.5,80.4,118.9,80.1,120z"/>
			<path class="st125" d="M8.1,128.1c0-0.3,0-0.7,0-1c3.3-3.9,8.1-4.4,12.6-5.6c1.1,0.2,2,0.6,2.5,1.6
				C18.4,125.3,13.3,126.9,8.1,128.1z"/>
			<path class="st126" d="M23.2,123.1c-0.8-0.2-1.7-0.1-2.1-0.9c1.6-2.5,4.7-2.5,7-3.9c0.6-0.3,1.3-0.5,1.9-0.6c1,0,1.7,0.5,1.9,1.5
				c0,0.3,0,0.6,0.1,0.9C29.1,121,26.2,122,23.2,123.1z"/>
			<path class="st127" d="M420.9,139.9c0,2.7,0.6,5.5-0.9,8c-6,0.1-6,0.2-4.9,5.8c0.2,1.1,0.8,2.3,0.8,3.4c0,1.2,1,3.5-1.5,3.3
				c-1.9-0.2-2.3-1.3-0.9-3.1c0.7-1-0.4-1.7-1.3-2.2c-0.4-0.2-0.7-0.5-1.1-0.8c5.8-3.4-1.6-4.5-1.3-7.1c0.2-1.6,2.2-3.6-0.6-5
				c-0.7-0.4-0.8-2.3-2-1.2c-0.7,0.7-2.4,1.7-1.2,3.3c0.5,0.7,1.1,1.2,1.6,1.9c2.7,3.8,1.7,8.6-2.3,11.4c-0.9,0.7-1.7,1.6-2.5,2.4
				c-2.1-7.3-4-14.4,3-20.7c2.6-2.4,0.4-6.9,1.3-10.3c0.5-0.2,0.9-0.2,1.3,0.2c0.6,0.8,0.7,1.7,0.9,2.7c0.3,1.8,1.9,2.6,3,4.5
				c0.2-4.2,3.6-4.2,6.1-5.2c1.2-0.5,1.6,0.9,1.8,2.2C420.5,135.4,419.8,137.8,420.9,139.9z"/>
			<path class="st128" d="M322.9,150.9c-5.9,2.5-7.3,2-7.9-3c0-4.4-0.1-8.9,0.1-13.3c0.1-1.7-1-4.2,2.2-4.6c2.8-0.3,2.5,1.9,3.1,3.5
				c0.2,0.6,0.7,1.1,1.1,1.7c1.3-2.1-0.3-4.5,1.4-6.3C322.9,136.3,322.9,143.6,322.9,150.9z"/>
			<path class="st129" d="M407.9,129c-0.3,0-0.5,0-0.8-0.1c-0.1-2.3,0.3-4.2-3.5-4.2c-26.9,0.3-53.7,0.2-80.6,0.2c1.2-1.8,3-1,4.5-1
				c12.2-0.1,24.4-0.1,36.6-0.2c5-2.3,10.2-1,15.3-1.2c0.9,0,1.8,0,2.7,0c3-0.1,5.9,0,8.9,0c2.7-0.1,5.4-0.1,8.1-0.1
				c1.9,0.1,3.9-0.1,5.8,0.1c2.3,0.3,4.1,1.2,4.1,3.9C409,127.5,408.7,128.4,407.9,129z"/>
			<path class="st130" d="M322.8,172.8c-0.6-0.3-1.3-0.6-1.9-1c-1.2-0.8-1.4-2.6-3-3c-1.4-2.3-1.8-4.7,0-7c0.3-1.4,0.7-2.4,2-0.7
				c0.8,1.1,1.6,2.1,2.8,2.7C323.5,166.8,321.4,169.8,322.8,172.8z"/>
			<path class="st131" d="M318,161.9c0,2.3,0,4.7,0,7c-5.7-1.6-1.4,3.7-3.5,4.7c-1.3-1,0.3-2.9-2.1-4.8c1.2,6.9-5.1,7-8,10.3
				c-1.9-2,4.6-6.7-2.3-7.1c-0.1-1.1-0.1-2.3-0.4-3.4c-0.8-2.5-0.4-3.2,2.4-2.9c3,0.3,7.6,3.8,8.2-3
				C314.4,163.5,315.9,160.9,318,161.9z"/>
			<path class="st132" d="M29.2,119c0.4-2.3-1.3-4.5-0.2-6.8c0.1-1.8,0-3.6,0.3-5.3c0.6-4.5-0.1-8.2-5.1-9.8
				c1.2-1.6,3.2-1.3,4.7-2.3c1.2-0.4,2.2,0.1,3.2,0.7c0.3,0.3,0.6,0.6,0.8,1c0.3,2.6,2.6,3.8,4,5.7c0.2,2.7-0.2,5.5,0.2,8.2
				c0.2,1.4,0.6,3.4-1.9,3.6c-0.9,0-1.9-0.1-2.8-0.1c-2.6,0.5-0.2,3.6-2.2,4.4C29.8,118.5,29.5,118.8,29.2,119z"/>
			<path class="st133" d="M29.4,95.2c-1,2.6-3.6,1-5.2,1.9C17.9,97,11.6,97,5.3,96.9C5,96.4,5,96,5.5,95.6c4.3-1.7,8.9-0.8,13.3-0.8
				c3.5,0,5.7-0.6,5.6-4.8c-0.1-3,1.6-5.7,2.2-8.6c0.3-1.5,1.1-3.4,3.4-2.3h0.5c1.8,2.8,1.1,5.7,0.8,8.7
				C30.2,90.1,31.1,93,29.4,95.2z"/>
			<path class="st134" d="M4.9,96.1c0.1,0.3,0.2,0.5,0.3,0.8c-2.1,1.7-2-0.2-2.1-1.4c-0.2-3.2-0.2-6.4-0.3-9.6
				C2.5,80.3,2,74.7,3.9,69.2c1.1,0.7,1.3,1.9,1.5,3.1c0.3,5.6-0.3,11.3,0.4,16.9C6.2,91.5,5.6,93.8,4.9,96.1z"/>
			<path class="st40" d="M362,91c1,1.4,2.2,0.6,3.1,0.1c5.1-2.7,9.9,0.7,14.6,0.6c4.2-0.1,8.1,2.2,12.8,0.6
				c3.1-1.1,7.4-0.6,11.2-1.4c0.6-0.1,1.7,1,2.9,0.1c3.1-2.4,5.9-1.7,8.4,1.1c-1.1,3.3-4.5,2.4-6.7,3.7c-2.1,2.2-5.2,2.1-7.7,3.4
				c-3.2,1-6.2,0.2-9.2-1.1c-5-0.3-10-2.7-15.2-0.2c-0.7,0.3-1.6,0.1-2.4-0.1c-4.7-1-9.3-1.6-14.1,0.1c-2.3,0.8-4.9,0.1-7.4-0.2
				c-6.9-3.1-14.2-1.7-21.3-2c-2.7-0.1-4.4-0.8-5-3.5v-0.1c0.3-0.5,0.7-1.6,0.9-1.5c9.3,1.5,18.8-0.7,28.1,1.1
				C357.1,91.9,359.5,89.7,362,91z"/>
			<path class="st135" d="M695.9,97c-0.5-2.3,1.1-4.8-1.1-6.8l-0.1-0.3c-0.4-0.6-0.3-1.2,0.1-1.8c1.1-1.6,2.2-3.3,2.1-5.4
				c2.4-1.1,4.3-0.6,5.8,1.6c1.4,3.1,2.4,6.2,2.8,9.6c-1.1,4.9-5,3.7-8.3,3.8C696.6,97.5,696.2,97.3,695.9,97z"/>
			<path class="st136" d="M705.1,94.1c-2-3-2.5-6.6-3.4-10c1.2-0.9,2.7-0.2,3.9-0.9c1.7,1,3.1,2.4,2.8,4.6c-0.2,2,1.2,2,2.4,2.3
				c0,0.2,0,0.5,0,0.7c0.2,0.7-0.4,0.9-0.8,1.2c-3.2-1.4-1.9,3.1-4,3.1C705.5,94.9,705.2,94.5,705.1,94.1z"/>
			<path class="st137" d="M694.7,88c0,0.6,0,1.2-0.1,1.8c-3.5-0.5-6,3.2-9.7,2c-2-0.7-1.2-1.3-0.3-2.2c1.7-0.1,2.8-1.1,3.3-2.7
				c1.1-0.5,2.3-3.5,3.3,0.2C691.7,88.6,693.6,87.7,694.7,88z"/>
			<path class="st138" d="M676,99c-0.1-0.6-0.1-1.2-0.2-1.8c0.1-0.8,0.2-1.5,0.4-2.3c1.3,1.2,3.6-2,4.4,0.9c0.3,0.9,2.6,0.3,1.4,2.1
				c-0.8,1.2-1.4,2.2-3.1,1C678.3,98.5,677,98.9,676,99z"/>
			<path class="st139" d="M705.6,83.2c-1.4-0.3-2.1,2.8-3.9,0.9c-1.3-1.8-3.3-0.9-4.9-1.5c-0.1-0.8-0.1-1.5-0.2-2.3
				c2,1.1,4.5-0.8,6.3,1.2C703.7,82.4,704.1,83.6,705.6,83.2z"/>
			<path class="st140" d="M687.9,87c1.7,1.5,0.2,2.7-0.6,3.5c-0.9,0.9-2.1,0.4-2.7-0.8c-0.5-0.6-1.3-1.3-1.3-1.8
				c0.1-1.1,1.2-0.5,1.8-0.5C686.1,87.3,687,87.1,687.9,87z"/>
			<path class="st91" d="M693.7,109.2c-1.1-1-3.2,0.6-3.8-1.3c-0.7-2.4,1.3-3.1,2.8-4l0.2,0.2c1,1.4,1.5,2.9,1.1,4.6
				C694,108.9,693.9,109,693.7,109.2z"/>
			<path class="st141" d="M705.1,94.1c0.3,0.3,0.6,0.6,0.9,1c-1.1,2.4,1,2.5,2.8,3.2c-1.9,1.2-4.5,1.7-3.9,4.5
				c-0.7-0.3-1.4-0.6-2.1-0.9c-3.8,0.5-6.2-0.7-6-4.9C699.4,95.6,703.3,97.8,705.1,94.1z"/>
			<path class="st142" d="M710,91.9c-0.1-0.7,0.2-1.1,0.8-1.2c0.3,0.2,0.7,0.3,0.8,0.6c0.8,1.5,3.7-1.2,3.7,1.8c0,0.3-0.4,1-0.7,1
				C712.8,94.2,710.8,94.3,710,91.9z"/>
			<path class="st143" d="M703.7,115.2c0.4-0.4,0.7-0.8,1.1-1.2c1.7,0,3.7-1.4,5.5,1.5C707.7,115,705.8,117.3,703.7,115.2z"/>
			<path class="st144" d="M408,95c1.6-2.8,5.2-0.7,7-3l0,0c3.7,2.9,6.4,2.6,10-0.9c2,1.6,2,1.7,5.7,0.5c1.1-0.3,1,0.4,1.3,0.9
				c1.1,2,1.8,1.4,2.4-0.3L434.3,81c-0.1-4.8,3.5-2.4,5.7-2.9c1.3,2.7,1.4,5.8,3.1,8.3c0.7,1.1,1,2.7,0.1,3.8
				c-3.3,4.1-6.2,8.7-12.2,9.2c-6.2,0.5-12.5,0.7-18.7,0.1C409.9,99.3,407.1,98.6,408,95z"/>
			<path class="st145" d="M408,95c1.2,2.7,2.8,3.4,6.1,3.4c5,0,10.1-0.2,15.2,0.1c6.6,0.3,9.5-4.8,13-8.9c1-1.2-0.1-2.9-0.9-4.1
				c-1.7-2.3-1.9-4.7-1.3-7.4c0.7,0,1.4,0,2,0.1c1.8,3,2.6,6.4,4,9.5c-2,10.1-2,10.1-13.2,14.6c-2,0.1-3.7,1.3-5.6,1.5
				c-4.1-0.3-8.2-0.6-12.3-1c-3.9-1-8.2,1.2-12-1.3c-1.3-0.9-3.2-1-2.9-3.3C402.6,97,405.3,96,408,95z"/>
			<path class="st146" d="M447,78.1c2,0,4,0,6,0c0.8,0.9,1.3,2,1.3,3.2c-0.1,7.8,0.9,15.5-0.6,23.3c-2.9,2.9-6,2-9.2,0.5
				c-0.4-0.3-0.7-0.8-0.9-1.3c0.1-0.5,0.2-1,0.6-1.3c7.7-6.8,6.4-7.5,3.6-17.9C447.3,82.4,445.1,80.5,447,78.1z"/>
			<path class="st147" d="M447,78.1c-0.2,4.5,3.2,7.8,3.7,12.4c0.7,6.4-0.4,10.4-6.7,12.5c-3,1.6-6,2.4-9.2,0.7
				c-0.6-2.6,1.6-3.2,3.2-3.4c5.5-0.8,8.4-3.5,8.1-9.2c1.4-2.2,0.9-4.2-0.6-5.9c-2.1-2.4-2.2-4.7-0.4-7.1
				C445.6,78,446.3,78,447,78.1z"/>
			<path class="st148" d="M452.9,104.9c0-9,0.1-17.9,0.1-26.9c0.7,0,1.3,0.1,2,0.1c0.9,3.8,0.3,7.7,1.4,11.5
				c0.1,8.1,0.4,16.3-0.2,24.1c2.9-0.6,5.9-1.4,7.8,2.2c-0.7,1.2-1.9,1-3,1.1c-4.4,1.1-8.8,1.8-13.2-0.1
				C450.8,113.5,451.6,109.1,452.9,104.9z"/>
			<path class="st149" d="M455,89c-1-3.6-1.9-7.3-0.1-10.9c1.7,0,3.4,0,5-0.1c-3.7,3.5,1,3.5,2.1,5c-0.4,0.6-0.8,1.3-1.2,1.9
				C459.8,87.6,459.8,91.8,455,89z"/>
			<path class="st40" d="M425,91c-1.7,0.8,0.9,5.4-3,3.8c-2.3-1-7.2,3.8-7-2.9C418.3,91.1,421.8,92.3,425,91z"/>
			<path class="st150" d="M445,78c-0.4,2.9-0.5,5.4,2.1,7.7c1.1,1,2.9,3.6-0.1,5.3c-2.2-0.6-0.9-2.9-2-4c-2.1-2.6-3.2-5.5-3-8.9
				C443,78.1,444,78.1,445,78z"/>
			<path class="st151" d="M158,82c2.6,2.9,5.7,4.1,9.3,1.9c1.4-0.8,2.1-0.1,2.7,1c0.7,1.8,1,3.5-1.8,3.7c-3.4,0.9-6.4,4-10.2,1.6
				c-1-0.6-1.1,0.2-1.4,0.5c-2.8,2.4-5.3,1.8-7.8-0.5c-0.4-2.4,1.9-3,2.9-4.4C154.4,85.4,155.1,81.9,158,82z"/>
			<path class="st152" d="M168.1,88c2.6,0.3,0.9-2.4,2-3.1c3.6-1,4.1,2.5,6,4c1,1.1,2.1,2.2,1.4,3.9c-2.8,3.4-6,0.6-9,0.5
				c-1-0.5-1.4-1.4-1.5-2.5C167,89.8,167.1,88.7,168.1,88z"/>
			<path class="st153" d="M158,82c-2.3,1-3.2,3.7-5.8,4.2c-0.6-0.3-0.6-0.7-0.2-1.2c2.6-2.6,5.7-4.4,9-6c0.4,0,0.8,0,1.1,0
				C161.4,80.8,159.5,81.1,158,82z"/>
			<path class="st154" d="M177,93c-0.3-1.4-0.6-2.7-1-4.1c1.7,0.5,3.6,0.7,5,2c-0.5,1.5-2.2,1.8-3.1,2.9
				C177.1,94.2,176.9,93.9,177,93z"/>
			<path class="st155" d="M499.9,89c0.1,0.3,0.2,0.6,0.2,0.9c0.3,1.4,3.3,0.9,2.4,3c-0.9,2-2.9,0.8-4.4,1c-0.3,0.1-0.6,0-1.2,0
				c-0.3,1.5,2.7,2.2,1,3.8c-3.4,1.4-5.4-2.7-8.6-2.1c-0.5-0.1-0.9-0.3-1.3-0.5c-2-1.7-3.6-3.5-2-6.3c0.4,0.3,0.8,0.6,1.3,0.7
				c6,2.1,6.1,2.1,7.4-4.3C497,85.9,495.7,91.5,499.9,89z"/>
			<path class="st156" d="M478.8,92.8c1.1-3.7-2-8.2,2-11.4c-0.1,3.2-0.5,6.4,0.3,9.6c0,0.2,0.1,0.4,0.1,0.6
				c0.3,0.8,0.4,1.7,0.4,2.6c-0.3,1.5,0.9,3.4-1.3,4.3c-0.9,0-1.5-0.2-2-1C477.7,95.8,477.5,94.2,478.8,92.8z"/>
			<path class="st157" d="M486.1,89c0.2,2.4,1,4.5,2.9,6.1c-4.5,0.8-6.3-1.1-5.9-5.9c1.1-0.8-1.5-2.8,1-3
				C486.2,86,485.7,87.8,486.1,89z"/>
			<path class="st155" d="M483.1,89.1c1,2.9,2,5.9,5.9,5.9l-0.1-0.1c0.8,0.9,0.9,1.8,0.4,2.8c-5.2,0.8-6.8-3.1-8.7-6.7l0.4-0.1
				C481.8,90.4,482.4,89.7,483.1,89.1z"/>
			<path class="st39" d="M249,88.1c1.3,0.2,1.1,3,2.7,2c1.6-0.9,0.2-2.7,0.3-4.1c0.3-0.5,0.7-0.4,1,0c0.7,0.6,1.4,1.2,2.2,1.8
				c2.6,1.5,7.3,0,7.3,5.2c-1,3.1-2,5.7-6.2,3.2c-1.3-0.8-3.5,0.2-5.3-0.3c-2-0.6-3.5-1.7-3.9-3.9l-0.1-0.2
				C246.1,89.8,248.3,89.3,249,88.1z"/>
			<path class="st158" d="M262,93c-1.3-2.1-2.1-4.7-5.8-2.9c-1.7,0.8-0.9-1.4-1.1-2.3c1.1-0.9,0.9-2.8,2.7-3.3
				c0.6-0.1,1.2-0.5,1.7,0.2c3.4,5.1,6,5.3,10.5,0.5c1.3-1.3,1.3,0.8,2.1,0.7c1.4,5-2.4,6.6-5.7,8.6C264.9,94.1,261.8,98.1,262,93z"
				/>
			<path class="st159" d="M266,94c3.1-1.8,5.1-4.5,6.1-8c1.5,0,1.9,0.8,1.9,2.2c0,1.6-0.4,3.3,0.9,4.6c1.8,1.5,1.4,3.6,1.4,5.5
				c-0.1,0.8-0.3,1.6-0.8,2.3c-1,1-1.8,0.4-2.7-0.2c-1.6-1.7-1.5-5.4-5.3-4.8C266.7,95.5,265.8,95.3,266,94z"/>
			<path class="st160" d="M275,99c0-2-0.1-4.1-0.1-6.1c-0.2-5,0.5-9.9,1.1-14.8c2,4.2,0.5,8.7,0.9,13c-0.8,1.1,0.7,1.9,0.6,2.9
				c0,1.1,0.1,2.2-0.1,3.3C276.9,98.2,276.6,99.4,275,99z"/>
			<path class="st158" d="M253,86c-0.3,0-0.7,0-1,0c-0.1-2.6-3.5-2.6-3.9-4.9C250.9,81.6,253.8,82,253,86z"/>
			<path class="st161" d="M263.8,83.2c1.4-0.1,2.1,0.3,2.1,1.3c0,1.2-1,1.5-2,1.5c-0.9,0-1.7-0.3-1.7-1.3
				C262.3,83.5,263.4,83.3,263.8,83.2z"/>
			<path class="st162" d="M546.8,109.1c-2.8-0.1-5.7,0-8.4-0.2c-2.8-0.3-5.2-1.2-4.5-4.9c0.1-1.2,0.2-2.5,0.4-3.7
				c0.8-0.3,1.4,0.1,2,0.6c3.6,3.3,7.8,4.8,12.7,4.9c3,0,5.9,0.3,8.9,0.5c6.9,0.4,8.1-0.5,10.3-7.1c0.3-0.4,0.6-0.8,1-1.1
				c1.4,1,0.2,3.1,1.8,4c0.8,3.3,0.9,6.5-0.1,9.8l-0.5,0.1l-0.5-0.1C562.2,111.3,554.4,111,546.8,109.1z"/>
			<path class="st163" d="M569.1,98c-0.1,0.3-0.1,0.7-0.2,1c-1.2,3.5-3.8,4.6-7.3,4.5c-6.2-0.1-12.5,0.1-18.7-0.1
				c-2.8-0.1-5.5-1-7.9-2.4c-0.3-0.3-0.5-0.5-0.8-0.8c4.4-2.6,9.1-0.8,13.7-0.8c5.9,0,11.8-0.2,17.6-0.6c3.6-0.3,1.5-4.2,3.2-5.9
				C568.9,94.6,569,96.3,569.1,98z"/>
			<path class="st164" d="M152.1,85c0.1,0.4,0.1,0.8,0.2,1.2c-1,1.3-2.1,2.5-3.1,3.8c0.3,0.9-2.3,3.2,1.5,2.5c4-0.7,8.3-2,12.3,0.6
				c1.6,1,3.8,1.3,4.4,3.6c-2.1,3.5-5.5,4-8.4,2.2c-2.4-1.5-4.1-0.9-6.3-0.5c-4,0.8-8.3,2.8-11.7-1.6c-1.6-3.5-0.8-7.1-0.6-10.7
				c0.2-0.5,0.5-0.9,0.9-1.2c0.6,0.1,1.5,0,1.9,0.3C146.2,88.5,149.1,88.2,152.1,85z"/>
			<path class="st165" d="M141.2,84.8c-0.1,0.4-0.1,0.8-0.2,1.2c-3.2,3.6-6.6,6.9-11.2,8.7c-0.7-0.8-0.8-1.8-1-2.8
				c0-2.1-0.7-4-0.9-6.1c0-2.2,0.1-4.4,2.2-5.8c1.3,2.8,5,3.6,6.3,3c2.4-1.1,3.2,1.2,4.7,1C141.1,84.3,141.2,84.6,141.2,84.8z"/>
			<path class="st166" d="M239,95.9c0.4,1.4,0.7,2.8,1.4,5.1c1.4-4.2,3.6-5,6.7-2.6c0.6,0.4,0.8-0.7,0.8-1.3
				c3.6,0.1,5.5,2.1,6.1,5.5c-0.2,1.6-0.6,3.3-2.5,2.8c-3.9-0.9-7.8,0.7-11.6-0.6c-2.1-0.9-3.2-2.7-4.2-4.5c-0.1-0.5,0-0.9,0.4-1.3
				C237.6,98.4,236.7,95.6,239,95.9z"/>
			<path class="st167" d="M225.7,85c0.6,0.2,1.5,0.8,1.8,0.6c5.1-3.4,4.4,0.6,4.4,3.5c-1.1,2.5,1.5,4.1,1.6,6.3
				c0.5,1.5,1.9,2.9,0.7,4.6c-0.5,0.2-1,0.3-1.4,0c-2-1.5-2.7-3.6-2.8-6c-1.9,2-3.6,1.4-5.1-0.5c1.2-0.8,0.7-1.4-0.1-2.3
				C222.5,88.9,221.9,86.6,225.7,85z"/>
			<path class="st168" d="M225.7,85c-1.6,1.7-2.4,3.5-0.4,5.5c0.5,0.6,2.6,1.9-0.2,2.4c-1.5,0.5-1.9-0.9-2.7-1.6
				c-0.8-1.5-3.1-2.3-2.5-4.5c-0.9-0.9-2-1.7-2.5-2.8s-0.7-2.8,0.5-3.6c1.3-0.9,1.9,0.7,2.7,1.4C222.1,83.1,223.3,85.1,225.7,85
				L225.7,85z"/>
			<path class="st169" d="M234.4,100c-0.5-1.6-1-3.3-1.5-4.9c-0.5-1,0-1.1,0.9-1c0.8,1.6,1.5,3.2,2.3,4.8c-0.1,0.3-0.1,0.6,0,0.9
				c0.4,1.3,1,2.8-1.5,1.7C234.4,101,234.3,100.5,234.4,100z"/>
			<path class="st170" d="M233.8,94.1c-0.3,0.3-0.6,0.7-0.9,1c-0.8-1.9-2-3.7-2.4-5.6c-0.4-1.7,0.8-0.4,1.4-0.3
				C232.6,90.8,233.2,92.4,233.8,94.1z"/>
			<path class="st171" d="M657.9,102.9c-2.3-0.6-3.5-2.4-4.9-4c-2.3-1.6-2.8-3.3,0.4-4.3c1.6-0.5,2.9-1.3,4.4-1.9
				c3.4,0.3,0.7,4.3,3.1,5.2c0.1,0.3,0.2,0.7,0.2,1c0.3,0.4,0.3,0.8,0.1,1.2c-0.3,0.3-0.6,0.6-0.9,0.8
				C659.3,101.5,658.8,102.4,657.9,102.9z"/>
			<path class="st172" d="M660.8,97.9c-4.9,0.4-0.6-4-2.6-5.1c-0.9-3.4-1.5-6.8-1.1-10.3c0.2-1,1-1.7,1.6-2.5
				c0.2-0.1,0.4-0.1,0.6-0.2C660.3,85.9,661.4,91.8,660.8,97.9z"/>
			<path class="st173" d="M667.8,105.3c2.8-0.5,2.2,3.4,4.6,3.4c-0.7,3.2-3.1,1-4.7,1.4c-3,1-1.5-3.3-3.8-3.2
				C664.5,104.7,667.1,107.1,667.8,105.3z"/>
			<path class="st174" d="M657.9,102.9c-0.2-1.5-0.4-3,1.9-2.8c2.6,3.7,0.2,7.8,1,11.7c0.3,1.1,0.7,2.2,1,3.3
				c-0.6,0.5-1.2,0.7-1.9,0.6c-0.5-0.1-0.8-0.4-1-0.9C658.7,110.8,659.8,106.7,657.9,102.9z"/>
			<path class="st175" d="M659.9,115.1c0.6,0,1.3,0,1.9,0c0.1,0.6,0.2,1.3,0.3,1.9c-1.4,0.6,0.3,4.5-3.1,2.8
				C656.4,117.6,658.1,116.3,659.9,115.1z"/>
			<path class="st176" d="M660.8,111.8c-1.7-3.8-0.5-7.8-1-11.7c0.3-0.1,0.6-0.3,0.9-0.4c1.3,3.4,0.8,6.9,0.2,10.4
				C660.9,110.6,660.8,111.2,660.8,111.8z"/>
			<path class="st174" d="M660.9,110c-0.1-3.5-0.1-6.9-0.2-10.4c0-0.3,0.1-0.5,0.3-0.7C662.4,102.6,662.5,106.3,660.9,110z"/>
			<path class="st177" d="M279,86c0.3-0.4,0.7-0.8,1-1.2c1.6-0.5,0.2-2.9,2.6-3.5c0.1,2.6,0.3,5.1,0.4,7.6c-0.1,0.4-0.1,0.8-0.2,1.2
				C280.7,89.6,280.8,87,279,86z"/>
			<path class="st178" d="M197.9,85c4.6-0.9,8.7,1.5,13.1,2.1c1.8,2.8,1.5,5.3-0.9,7.6c-4.4,0.7-8.6-0.6-12.8-1.2
				c-1.4-1.3-1.4-2.8-0.3-4.3C197.3,87.7,196.5,86.1,197.9,85z"/>
			<path class="st179" d="M177,93c0.3,0.3,0.6,0.5,0.9,0.8c-0.2,0.7-0.4,1.5-0.9,2.9c3.6-1.9,5.3-6.7,10-4.8c1.1,1,1,2.3,0.8,3.6
				c-0.3,1.2-0.7,2.4-1.4,3.4c-2.3,1.4-4.7,0.9-7.1,0.6c-2.6-0.4-5.1-0.5-7.7-0.1c-2.5-1.5-3.3-3.7-2.7-6.4c1.1,0,1.6-3.4,3-0.6
				C173.5,95.2,175.5,92.1,177,93z"/>
			<path class="st180" d="M187,96c0-1.3,0.1-2.7,0.1-4c0-1.4-0.1-2.8,2-2.2c0.3-1.4,4.5,2,2.6-2.1c2-0.7,3.1,2.2,5.2,1.4
				c0.4,1.3-0.3,3,0.9,4.1c1.2,0.9,1.2,2.1,0.7,3.4C194.7,96.9,190.9,95.4,187,96z"/>
			<path class="st181" d="M210.1,94.1c1.2-2.2,0.7-4.7,1-7c1.2,0.5,2.4,1.1,3.8,0.8c0.4,0.7,0.9,1.4,1.3,2.1c1,2.9,0.3,5.7-0.4,8.6
				c-1.2,1.6-2.7,1-4.2,0.6c-0.5-0.2-0.9-0.4-1.3-0.7C208.8,97.1,209.5,95.6,210.1,94.1z"/>
			<path class="st182" d="M130,91.8c0,1,0,2.1,0.1,3.1c0,0.2,0.1,0.5,0.1,0.7c0.1,2.9-0.8,4-4.1,3.7c-5.7-0.4-11.4-0.7-17,0
				c-1.7,0.2-3.3,0-4.7-0.9c-1.3-2,0.5-3,1.5-4.1c1.2-1.5,3-2.6,3.7-4.5c0.5-1.3,1.1-2.4,2.7-2.6c2.7-0.4,3.8-3,6-4.2
				c0.3-0.1,0.9-0.1,0.9,0c0,6,4.2,6.2,8.5,6.2C129.2,89.2,129.4,90.7,130,91.8z"/>
			<path class="st183" d="M112.1,87.1c-0.7,0.9-1.4,1.9-2,2.8c-0.3,0.4-0.7,0.6-1.2,0.6c-4.4,0-8.7,0.5-13-1.8
				c-2.1-1.1-5.5,1.2-7.3-2c-0.5-1.7-0.2-3,1.5-3.8c1.1,0.6,2.3,0.7,3-0.5c2.8-4.7,5.3-2.2,7.4,0.5c1.6,2.1,3.4,2.5,5.8,2.5
				C108.3,85.4,110.4,85.6,112.1,87.1z"/>
			<path class="st184" d="M130,91.8c-1.8-3.3-5.3-1.8-7.6-1.8c-4.3-0.1-4.1-2.2-3.7-5c0.1-0.9,0.4-1.6-0.5-2.1
				c0.7-0.6,1.3-1.3,2-1.9c3.3-1.7,6.7-3.3,10-5c0.1,0.7,1.1,1.3,0,2c-1.9,2-4.4,3.2-6.8,4.6c1.7,1.5,4.2,1.5,5.7,3.3
				C129.4,87.9,130.5,89.7,130,91.8z"/>
			<path class="st185" d="M90,83c-0.7,1.2-1.1,2.5-0.9,3.9c0.6,0.8,0.8,1.7,0.4,2.7c-3.3-1-6.5,1.3-9.9,0.3
				c-0.7-1.1-0.7-2.3-0.4-3.5c2.5-3.1,5.4-5.5,9.4-6.4h0.5C88.8,81.2,89.5,82.1,90,83z"/>
			<path class="st186" d="M80.1,78c0,2,0.1,4.1,0.1,6.1c0.4,1-0.5,1.5-0.9,2.3c-0.6,1-1.4,1.7-2.3,2.3c-1,0.6-2.1,1-3.3,0.7
				c-1.1-2.1-2.8-1.8-4.5-1c-4.5,2.2-9.1,0.5-13.6,0.3c-4.3-0.2-5.2-3.4-4.9-7.1c-0.9-1.8-1.5-0.1-2.1,0.2c-1.4,0.7-2.5,2.2-4.4,1.3
				c-0.8-1.4-0.9-2.8,0-4.2c2.9,0.5,5.7-0.4,8.3-1.2c3.7-1.1,6.2,0.1,8.3,2.6c1.8,2.1,2.7-0.9,4.3-0.6c0.9,0.2,2.7-1.5,2.9-1.4
				C72.3,84.4,76.1,78.1,80.1,78z"/>
			<path class="st187" d="M51.1,81c0.4,0.5,1.3,1.2,1.2,1.4c-2.4,5.6,3.6,5.8,5.1,5.6c4.9-0.5,10,1,14.7-1.4
				c0.7-0.4,1.3-0.9,1.9-1.4c2.1,1.3-1.7,2.6,0.2,3.8c-0.9,4.1-3.5,6.1-7.6,6.3C61.4,94,56,94.5,50.7,94.2c-3.4-0.2-6.2-1-8-4.1
				c-1.6-2.4-0.7-4.8,0.2-7.2c0.1-2.4,0.1-4.7,0.2-7.1c1.2,0.7,0.9,1.9,1,3c0,1.4-0.5,2.9,0.9,4C47.5,83.9,48.4,79.6,51.1,81z"/>
			<path class="st188" d="M611.1,95.2c-0.4-0.5-0.8-0.9-1.3-1.4c3.6-2.9,4-7.8,7.1-10.9c0.8-0.8,1.5-1.9,2.8-1.9
				c0.4,0.3,0.6,0.7,0.7,1.1c0.1,0.9-0.2,1.8-0.3,2.7c-0.1,3.3-1.4,6.4-1.7,9.6C615.5,98.8,614.3,98.9,611.1,95.2z"/>
			<path class="st189" d="M620.1,81.9c-0.1-0.3-0.2-0.6-0.3-0.9c0.1-1,0.3-2.1,0.4-3.1c0.4-0.2,0.8-0.2,1.3,0c1,0.1,2,0.3,3-0.1
				c0.2-0.3,0.3-0.7,0.3-1.1c2.6-1.7,3,1.8,4.8,2.1c3,0-0.6,4,2.4,4c1,0,1.5,0.6,1.3,1.5c-0.3,1.1-1.2,1.4-2.2,1.5
				C627.2,84.9,622.9,85.6,620.1,81.9z"/>
			<path class="st190" d="M624.8,76.7c0.4,0.4,0.8,0.9,1.2,1.3c-1.7,0.7-3.4,0.7-5.2,0c-0.2-0.1-0.4-0.1-0.6-0.1
				c-0.1-0.2-0.2-0.4-0.2-0.6C621.6,77.1,623.2,76.9,624.8,76.7z"/>
			<path class="st191" d="M570.9,111.8c0-3.3,0-6.5,0.1-9.8c0-4.9,0-9.9,0-14.8c2.1,1.5,0.7,3.7,1.1,5.6c0,4.8,0,9.6-0.2,14.4
				C571.9,108.7,572.6,110.6,570.9,111.8z"/>
			<path class="st192" d="M581,95.1c-1.5,2.4-0.8,5.4-2,7.9c-0.3,0.4-0.5,0.4-0.8,0h-0.3l-0.3,0.1c1.5-4.3,0.3-9.3,3.5-13.2
				C581,91.5,581,93.3,581,95.1z"/>
			<path class="st193" d="M518,106c-0.3,3.1-2.5,3-4.7,3c-1.2,0-3-0.5-3,1.6c0,1.6,1.6,1.3,2.7,1.4c3.7,0.1,5.2,1.4,3.3,5.1
				c-0.2,0.4,0.5,1.2,0.7,1.8c-3.7,1.5-7.4,1.8-11.1,0.2c0.1-0.2,0.2-0.5,0.2-0.7c0.7-3.5,3-4.6,5.4-3.9c-1.9,0.3-4.7,0.5-4.6-3.6
				c0-4,2.6-4.7,5.1-4.3c-5.1,0.1-5.7-0.6-4.1-5.6c-0.2-1.9,1-2,2.5-2c1.8,0,3.8,0.7,5.9-0.9c-1.8-1.6-3.6-1-5.2-1
				c-1.4,0-3.1,0.5-2.9-1.9c0.7,0.2,1.4,0.5,2.1,0.7c1,0.1,1.9,0.2,2.9,0.2c4.3-0.2,5.1,1.5,2.8,5c-0.7,1.2-2.3,0.6-3.3,1.4
				C514.5,103.6,517.2,103.4,518,106z"/>
			<path class="st194" d="M518,106c-1.5-1-3.2-1.8-5-1.9c-1.6-0.1-3.2-0.4-2.9-2.4c0.4-2.9,2.2-0.5,3.4-0.7c0.8-0.2,1.6,0,2.5,0.1
				c0.7,0,1.3,0.1,2,0.1c2.7,1.2,6.3,0.5,7.9,3.8c0.2,1.7,0,2.9-2.3,2.1C521.8,106.4,519.9,105.8,518,106z"/>
			<path class="st82" d="M525.9,104.9c-2.1-2.4-6.3-0.5-7.9-3.8c2.8-1.9,5.6-3.2,7.9,0.8C525.8,102.9,525.9,103.9,525.9,104.9z"/>
			<path class="st195" d="M479.2,98.1c0.7-0.1,1.4-0.3,2.1-0.4c3.6-1.4,4.1,1.3,4.9,3.7c0,0.5-0.2,0.8-0.5,1.1
				c-1.5,1.2-1.9,3.5-5.2,2.7c-2-0.5-2,2.5-1.2,4.5c0.7,1.9,2.1,4.2-1.2,5.2c0-0.2,0-0.4-0.1-0.5c-1.7-1.1-6.1-7.2-6.8-9.4
				c-0.5-0.4-0.8-0.8-1-1.4c-0.5-2.7,0.5-5.1,0.9-7.7c0.1-0.3,0-0.7,0-1c0.3-1,0.6-1.9,0.9-2.9c0,0.3,0.1,0.5,0.2,0.8
				c2.4,1,4.6,2.2,5.4,5C477.6,98.6,478.6,98.3,479.2,98.1z"/>
			<path class="st196" d="M479.2,98.1c-0.3,0.8-0.5,2.1-0.8,2.2c-1.5,0.1-2.2-0.9-2.6-2.3c-0.5-1.5-0.7-1.1-2.6-1.4
				c-2.3-0.3-0.9-2.3-1.1-3.6c2.4-4.5,3-4.5,6.8-0.2C478.9,94.5,479.1,96.3,479.2,98.1z"/>
			<path class="st197" d="M597.9,118.1c-3.3-1.1-1.6-3.8-1.8-5.8c-0.2-2,0.2-4.1,0.4-6.2c0.1-0.7,0.3-1.3,0.4-2
				c0.6,0,1.3-0.1,1.9-0.1c0.4-0.3,0.5-0.9,1.1-1c0.6,0.3,1.2,0.7,1.8,1c0,3.4-0.1,6.9,0,10.3C601.9,117.2,600.5,118.2,597.9,118.1z
				"/>
			<path class="st193" d="M505.9,119c-0.3-0.4-0.6-0.7-1-1.1c-2.8-1.7-3.1-4.4-3.3-7.4c-0.2-2.8,0.9-5.6-0.2-8.3
				c-0.9-0.9-0.9-2.1-1.3-3.2c1.9-2.6,3.7-5.3,5.6-7.9c0.1,3,0.1,5.9,0.2,8.9C507.5,106.3,507.7,112.6,505.9,119
				C506.1,118.9,505.9,119,505.9,119z"/>
			<path class="st198" d="M500.1,99c0.7,0.7,1.4,1.4,2,2.1c1.1,2.5,0.3,3.8-2.3,4.8c-6.5,2.5-12.1,1-14.1-3.9l0.3-0.3
				c1.1-2.4,3.4-1,5-1.7c0.4-0.1,0.8-0.2,1.3-0.2c2.5-0.9,5,0.4,7.4-0.1C499.9,99.6,500,99.3,500.1,99z"/>
			<path class="st199" d="M499.8,99.9c0,0.8-0.1,2.2-0.9,1.7c-2.3-1.5-4.7-0.3-7-0.6c-1.2-0.9-2.6-1.6-3-3.1c0-1,0-1.9,0-2.9
				c3.9-1.8,5.9,2.2,9,2.8C498.3,98.7,498.7,99.6,499.8,99.9z"/>
			<path class="st200" d="M129,86c-3.2,0.5-5.2-2.7-8.4-2.7c3.3-1.8,5.8-4.7,9.5-5.3c0,0.7,0,1.3-0.1,2C129.7,82,129.3,84,129,86z"
				/>
			<path class="st201" d="M658.7,80c0.5,1,0,1.6-0.8,2c-2.1,3.1-4.6,4.3-8,2c-0.5-0.8-0.5-1.6,0.2-2.3c0.6-0.5,1.3-0.9,1.9-1.4
				c1.3-1.3,2.5-3,4.7-2.3C656.8,79.2,657.1,80.2,658.7,80z"/>
			<path class="st202" d="M635.9,79.4c1.6-0.1,2.3,1.9,4,1.5c0.3,0.1,0.7,0.2,1,0.2c1,0.4,1.6,1,1.4,2.2c-1.7,2.1-3.9,1.4-6.1,1
				c-0.6-0.5-1.2-1-0.4-1.8C635.9,81.5,635.9,80.5,635.9,79.4z"/>
			<path class="st203" d="M656.8,78c-1.6,0.8-3.2,1.5-4.7,2.3c0.2-0.6,0.3-1.3,0.6-1.8c0.5-1.1-1.6-3.1,1.1-3.4
				C655.8,74.9,656.7,76,656.8,78z"/>
			<path class="st204" d="M642,82.8c-0.4-0.6-0.7-1.1-1.1-1.7c2,0,4,0,6,0c0.6,0.5,0.7,1.1,0.6,1.9c-0.2,0.7-0.7,1.2-1.4,1.4
				C644.6,84.4,642.8,85,642,82.8z"/>
			<path class="st205" d="M646.9,83c0-0.6,0-1.2,0-1.8c1.1-0.1,2.3-0.6,3.2,0.5c0,0.8,0.1,1.5,0.1,2.3c-0.2,0.1-0.4,0.3-0.5,0.4
				C648.3,84.8,647.5,84.2,646.9,83z"/>
			<path class="st206" d="M301,88c0,2.3,0,4.5,0,6.8c2.4-0.2,2.9-2.9,5-2.9c0.2,0.6,0.3,1.3,0.6,1.9c0.4,0.7,1,0.7,1.5,0
				c1.7-2.5,3.3-0.7,5,0.2c2.6,2.9,5.8,3.7,9.6,2.7c4.6-1.2,9.1,0.1,13.6,0.6c2.7,0.7,5.4,0.3,8-0.4c2.4-0.2,4.8-0.5,7.2,0.4
				c1.4,0.7,3.1,1,3.7,2.7c-0.3,2.2-2,1.7-3.5,1.8c-10.4,0.4-20.8,0.5-31.3,0.5c-2,0-4.3,0.5-5.9-0.5c-4.7-3.3-8.9-1.3-13.2,0.7
				c-0.7,0.3-1.4,0.3-2.1,0.2c-2-1.2-3.6-2.9-4.7-4.9c-1.9-2-4.8-4.1,0.8-5c2.6-0.4,2.3-3.9,4.6-4.6C300.3,88,300.7,88,301,88z"/>
			<path class="st177" d="M300,88.1c-1.1,3.2-1.1,7.8-6.6,5.8c-1.5,1.9,3.2,1.3,1.1,3.3c-1.2,0.7-2.4-0.1-3.6,0.2
				c-1.7,0.2-2.6,2.3-4.5,2.2c-2.3-1-5.5-0.8-5.4-4.6c0.4,0,0.8,0,1.2,0c0.5-0.6,1-1,1.8-1c4.6-0.5,7.5-4.8,12-5.4
				C297.4,88.3,298.7,88.2,300,88.1z"/>
			<path class="st207" d="M284.2,93.9c-0.6,0.3-1.2,0.7-1.8,1c-1.5-2.8-3-5.6-3.3-8.9c3.1-0.3,2.9,2.4,3.8,4.1
				C283.3,91.4,283.7,92.7,284.2,93.9z"/>
			<path class="st208" d="M253,102.9c0.2-3.6-3.2-4.1-5.1-6c-2.9-1.2-4.1-2.6-0.9-4.9c2.4,2.6,5.3,2.7,8.7,3.2
				c3.1,0.5,4.9,0.7,6.3-2.2c0.3,1.3,0.7,2.5,2.1,0.7c0.7-0.9,1.4-0.5,2,0.3c0.4,0.8,1.2,1,2,1c2.9-1,2.5,0.6,1.6,2.1
				c-1.7,2.9-4.8,3.6-7.8,3.7c-2.8,0.2-5.1,1.2-7.4,2.5C253.9,103.5,253.4,103.3,253,102.9z"/>
			<path class="st209" d="M336,98c-6.7-1.3-13.3,0.5-20-0.2c-2-0.2-3.3-1.5-3-3.8c4.5,0.5,9,1.2,13-1.9c3.5,4.1,8.2,2.3,12.3,2.1
				c5.2-0.1,10.1,0.1,14.7,2.8c0.2,0.8,0.1,1.4-1,1c-2.7,0-5.3,0-8,0C341.3,97.6,338.7,98.7,336,98z"/>
			<path class="st78" d="M589,110c2.7,2,6.7,3.3,4.9,8c-2.9,3.5-5.9,1.6-8.8,0c0.3-0.4,0.6-0.8,1-1.2
				C588.5,115.2,586.8,111.8,589,110z"/>
			<path class="st210" d="M589,110c-0.9,2.3,2.1,6.4-3,6.9c0.1-2.4,0.3-4.8,0.2-7.2c-0.1-2.2,1.3-1.7,2.5-1.5
				C588.7,108.8,587.9,109.5,589,110z"/>
			<path class="st211" d="M585,118c2.9-0.5,5.9,2.1,8.8,0c0,0.9,0,1.9-0.1,2.8c-1.5,0.1-3.1,0.2-4.6,0.3c-1.4-0.1-2.8-0.2-4.2-0.3
				C585,119.9,585,119,585,118z"/>
			<path class="st212" d="M606.9,81.1c-0.2-1.7,0.4-3.8-2.5-4.4c2.2-1.6,4.3-1.9,6.6-1.6C610.3,77.6,609.4,79.8,606.9,81.1z"/>
			<path class="st213" d="M79,86c0.4-0.6,0.8-1.3,1.2-1.9c2.7-1.7,4.5-5.2,8.5-4.1c-2.9,2-5.8,4.1-8.7,6.1
				C79.6,86.4,79.3,86.3,79,86z"/>
			<path class="st214" d="M600,103c-0.4,0.3-0.8,0.7-1.1,1c-0.5-4.1-1.8-8.1,0.2-12.2C600.5,95.5,599.9,99.3,600,103z"/>
			<path class="st85" d="M471,96c0,2.6-0.1,5.2-0.1,7.8c-2.4,1.5-5.1,1-7.5,0.6c-3-0.4-3.9-2.6-2.3-5.4c2-1.9,1.1-5,2.9-7.1
				c-0.4,1.6,2.5,2.3,1,4.7c-0.7,1.1,2.2,2,3.6,2.5C471.2,99.9,469.2,96.3,471,96z"/>
			<path class="st215" d="M43,83.1c1.3,1.9-0.9,4,0.2,5.9c0.7,2.3,1.7,4.5,0.8,7c-2.1,3.1-5.1,1.2-7.7,1.4c-0.8-2.3-2.7-1.2-4.2-1.4
				l0,0c-1-1.3-0.3-2.4,0.3-3.5c2.5-3,4.6-6.2,4.4-10.4c0.4-1.5-0.4-3.4,2-4.6C38.4,80.9,40,82.6,43,83.1z"/>
			<path class="st216" d="M36.9,82.2c0.3,4.2,0.4,8.4-3.8,11c-1.8-1.4-2.6-3.3-3.2-5.4c0.1-2.9,0.3-5.9,0.4-8.8
				c2-0.4,4.4-1.3,3.1,2.4c-0.8,2.1,0.3,3.4,2.2,4.6c0.9-1.3,0.3-2.7,0.5-4.1C36.3,82.1,36.6,82.1,36.9,82.2z"/>
			<path class="st217" d="M219.8,86.8c0.3,1.9,3.6,1.6,3.2,4.2c-1.3,3.3-2.9,5.4-6.4,2.1c-0.3-1.1-0.2-2.1,0.3-3.1
				C216.7,87.9,217.7,86.9,219.8,86.8z"/>
			<path class="st218" d="M217,90c0.1,1,0.2,1.9,0.2,2.9c0.6,1.3,1,2.6,0.7,4c-1,1.7,0.3,4.8-3,5.1c-0.8-1.1-0.7-2.1,0.1-3
				c0.2-3-0.1-6.1,1.1-9C216.4,90,216.7,90,217,90z"/>
			<path class="st219" d="M506.1,118.9c0-6.3-0.1-12.6-0.1-18.9c0.5,0.7,1.1,1.1,2,0.9c-1.2,6.4,3.6,5,8.1,5.2
				c-3.5,1.9-8.9-0.6-8.1,5.4c0.6,4.9,5.1,1.1,7.4,3.5C511,114.1,508.1,115.5,506.1,118.9z"/>
			<path class="st220" d="M281.1,95c1.4,2.2,3.9,2.6,5.8,4.1c0.7,0.3,1.3,0.6,1.4,1.4c-0.1,0.5-0.4,0.8-0.9,1
				c-4.4-1.2-8.5-2.8-10.6-7.4c0.2-1-1.8-2.1,0.1-3.1C278.4,92.4,279.7,93.7,281.1,95z"/>
			<path class="st221" d="M455,89c3.5,0.8,3.5-3.2,5.9-4c2.8,4.3,0.8,8.7,0,13c-0.6,1.5-0.7,3.2-0.9,4.8c-0.7,7.1,0.7,8.8,7.7,10.1
				c1,0.2,1.9,0.4,2.6,1.3c0.1,1,0.4,2.3-1.4,1.9c-0.2,0-0.5,0-0.7,0c-0.5,0.2-0.9,0.5-1.2,0.8c-0.3,0-0.6,0-0.9,0.1
				c-0.7-0.4-1.4-0.8-2-1.1c-0.2-0.2-0.5-0.6-0.7-0.6c-2.7-0.5-6.7-0.1-7.7-1.7c-1.4-2.1-0.6-5.7-0.6-8.7
				C454.9,99.6,455,94.3,455,89z"/>
			<path class="st222" d="M470,114c-11.6,2.1-13.2-5.8-9.9-14.8c0.2-0.4,0.6-0.8,0.8-1.2c0,0.4,0.1,0.7,0.1,1.1
				c0.2,3.3,0.9,5.7,5.2,4.2c1.3-0.5,3.1,0.4,4.6,0.6c0.1,0.4,0.2,0.8,0.2,1.2c0,0.3-0.1,0.6-0.1,0.9
				C469.6,108.5,471.3,111.4,470,114z"/>
			<path class="st223" d="M629.9,85c1.6,0.1,3.3,0.3,2.1-2.2c1.1-1,2.1-1,3,0.3c1.8,2.1,0,3.8-0.8,5.6c-0.5,1.3-1.3,2-2.8,1.7
				C629.5,89,629.2,87.2,629.9,85z"/>
			<path class="st224" d="M633.9,88.2c-0.7-1.9,2.5-3,1.1-5.1c0.3-0.2,0.6-0.3,0.9-0.5c0.4,0.5,0.9,1,1.3,1.4c1.2,1.7,4.3,0,5,2.7
				c-0.7,1.5-2.8,1.1-3.6,2.5c-1.4,1.8-2.6,0.5-3.8-0.2C634.5,88.8,634.2,88.5,633.9,88.2z"/>
			<path class="st225" d="M485.8,102.1c3.3,3.6,11.4,4.9,15.2,2.6c1.6-0.9,0.5-2.4,1.2-3.5c1.9,0.8,1.2,2.2,1,3.7
				c-0.4,4.4-1,9,1.7,13c-4.3-0.6-8.2-2.6-13-1.3c-4.4,1.2-9.5,0.6-13.9-1.8c1.5-1.3,1.5-3.6,0.5-4.4c-3.3-2.4-0.6-4.4,0.1-6.5
				c0.1-0.4,0.5-0.8,0.8-1.2C481.8,105.5,483.6,101.8,485.8,102.1z"/>
			<path class="st195" d="M470,114c0.5-2.6-1-5.5,1-8c0,2.7,0,5.3,0,8c0,1.4,0,2.8-1.9,2.9c-0.1-0.3-0.2-0.6-0.2-0.8
				C469.7,115.6,470,114.8,470,114z"/>
			<path class="st191" d="M546.8,109.1c7.8,0.2,15.5,1.2,23.1,2.7c-12,0-24,0-36,0c0-0.2,0-0.4,0-0.6c5.6,0,11.2,0,17.4,0
				C549.8,109.4,547.7,110.5,546.8,109.1z"/>
			<path class="st129" d="M420.9,139.9c-2.3-2.2-0.8-5.3-1.8-8c-2.6,1.4-6.6,1.1-6.7,6c-0.2-3.2-5.2-2.3-4.4-6
				c0.6-0.9,0.6-2.2,2.1-2.4c2.7-0.4,5.4-0.8,7.9-2.4c1.5-1,2.1,0.9,2.9,1.9c0,2.4,0.1,4.8,0.1,7.2C421,137.3,421,138.6,420.9,139.9
				z"/>
			<path class="st226" d="M635.8,120h-0.4H635c-0.3-0.9-0.6-1.9-0.9-2.8c0.4-2.7-1.5-3.9-3.3-5.2c0.2-2.2,5-3.7,1.1-6.6
				c-0.2-0.4-0.3-0.9-0.3-1.3c0.1-2.3,2.7-3.7,2.3-6.2c-0.4-0.7-1-1.4-1.1-2.2c0.4-1.5,1.2-2.9,2.3-4c0.9-0.5,1.8-0.5,2.8-0.3
				c1.2,0.5,2,1.3,2.6,2.4c0.3,0.7,0.3,1.3,0,2c-1.1,0.8-1.9,1.7-1.5,3.2c-0.2,1.5,0.1,2.9,0.8,4.3c0.2,0.7,0.2,1.3,0.1,2
				c-0.4,1.5-0.4,3.1-0.5,4.7c-0.1,1.1-0.4,2.1-0.6,3.2c0.2,2.3,2.1,1.4,3.3,1.6c2.7,0.3,5.5-0.7,8.1,0.3c0,0.7,0,1.3,0,2
				c-3,0-5.9,0-8.9,0C638.5,116.7,636,116.3,635.8,120z"/>
			<path class="st227" d="M650.2,84c2.9,0.5,5.3-0.6,7.7-2c-0.4,3.6,2.1,7.2,0.3,10.8c-1.4,2.6-3.1,4.3-6.1,2.2
				c-1,1.9,0.7,2.6,0.9,3.8c-0.9,0-1.8,0.1-2.7,0.1c-0.8-0.3-1-0.9-1.2-1.7c-0.2-2,0.8-4,0.2-6.1c-0.1-0.7-0.1-1.3-0.1-2
				c0.4-1.7-0.7-3.6,0.8-5L650.2,84z"/>
			<path class="st228" d="M649.9,115c-2.8,1.7-5.9,0.8-8.9,0.9c-0.6-0.6-0.6-1.2-0.4-1.9c0.3-0.8,3.7-0.6,0.8-2.5
				c-0.1-0.9,0.1-1.6,0.9-2.1c2-0.9,4-1,5.9,0.4C651.3,110.7,651.1,112.6,649.9,115z"/>
			<path class="st229" d="M638.8,103c-2.3-1.1-0.8-2.8-0.7-4.2c0.6-0.4,1.2-0.5,1.9-0.4c1.8,0.9,3.7,1.1,5.6,0.6
				c1.8-0.1,3.2,0.6,4.4,1.9c0,0.4,0.1,0.8,0.1,1.2c-2.1,1.8-4.9,1-7.2,1.9C641.4,104.2,640,104,638.8,103z"/>
			<path class="st229" d="M648.2,109.8c-2.1,0.1-4.2,0.1-6.2,0.2c-1.2,1-2.5,1.2-3.8,0.1c-0.1-1.8-0.7-3.6,0.7-5.1
				c0.4,0.2,0.7,0.5,1,0.8c1.2,1.4,2.8,1,4.3,1c0.5,0,1,0,1.4,0c1.2,0.1,2.5,0.2,3.3,1.4C648.7,108.7,648.4,109.2,648.2,109.8z"/>
			<path class="st230" d="M649,108.1c-1.4,0-2.9-0.1-4.3-0.1c0.3-1.7-3.9-2.6-0.8-4.8c2.4-0.6,4.5-0.1,6.2,1.7
				C650.9,106.4,650,107.3,649,108.1z"/>
			<path class="st231" d="M649.9,100.9c-1.7-0.3-3.3-0.6-5-0.9c-1.3-1.5-0.4-2.7,0.5-4c0.4-0.3,0.9-0.5,1.3-0.5
				c1.3,0.1,2.4,0.6,3.1,1.7c0.1,0.6,0.2,1.2,0.3,1.8C650.1,99.6,650,100.2,649.9,100.9z"/>
			<path class="st232" d="M659.9,115.1c-1,1.5-2.2,2.8-1,4.7c-0.9-0.6-3.4,1-2.6-1.1c0.4-1.1-2.4-5.5,2.5-4
				C659.2,114.9,659.6,115,659.9,115.1z"/>
			<path class="st233" d="M650.1,104.9c-2.3-0.3-4.5-1.4-6.9-1c-0.6-0.3-0.7-0.7-0.3-1.2c2.3-1.4,4.8-0.6,7.2-0.7
				C650,103,650.1,104,650.1,104.9z"/>
			<path class="st234" d="M447.9,116.9c4.4,0,8.7,0,13.1,0.1c-0.1,2.3-0.1,4.6-0.2,6.8c-3.8,0-8.5,1.7-11.1-0.6
				c-3.4-3.1-6-3.2-10.1-2.4c-5.7,1.1-11.1-3-17-1.8c-1.5,0.3-3.4-0.6-4.5,1.1c-1.5,2.3,1.6,1.8,2,3.1s0.9,2.5,0.9,3.8l0,0
				c-3.5-0.2-7.1,1.2-10.6-0.3c-0.7-0.3-1.6-0.3-1.9-1.2c0.2-4.5,3.4-6.8,6.4-9.5c5.3-1.1,10.7-0.4,16-0.6c3.9,0.2,7.9,0.1,11.8,0.1
				C444.6,115.5,446.5,115.5,447.9,116.9z"/>
			<path class="st235" d="M696.8,96.9c1.4,2.4,3,4.5,6,4.9c-0.3,2.2-1.3,3.5-3.9,3.2c-2.4-0.3-3.1-1.7-3-3.8c0.1-1.4-1-2.9-0.1-4.3
				C696.2,97,696.5,97,696.8,96.9z"/>
			<path class="st236" d="M694.1,108.7c-1.4-1.3-1.5-2.9-1.1-4.6c2.6,0.9,5.1,1.9,3.1,5.3C695.5,110.4,694.9,108.9,694.1,108.7z"/>
			<path class="st90" d="M409,126c4.1-0.6,8,0,12,1c0,0.6,0,1.3-0.1,1.9c-1.1,0.1-1.7-2.5-3.3-0.5c-2.5,3.1-7,0.7-9.7,3.5
				c0-1-0.1-1.9-0.1-2.9c0.1-0.7,0.1-1.4,0.2-2.1C408.3,126.5,408.6,126.2,409,126z"/>
			<path class="st237" d="M631,112c4.1,0,5.1,1.7,3,5.2c-1-0.7-2-1.5-3-2.2c-0.5-0.9-1.3-1.8-0.8-3C630.5,111.5,630.7,111.4,631,112
				z"/>
			<path class="st238" d="M617.9,94.1c-1.2-3.5,1.9-6.7,1-10.2c2.3-1.2,3.6-0.4,3.3,2c-0.5,3.5,1.3,5.3,3.9,6.9
				c0.5,2.2-4.5,2.4-1.9,5.3c-0.3,1.9-3,2.2-2.9,4.3c0.7,4.5-1.6,9-0.4,13.5c-0.4,0.9-1.4,1.7-1,2.9c-1.7-1.7-0.4-4-1.1-5.9
				C616.3,106.8,617.7,100.4,617.9,94.1z"/>
			<path class="st239" d="M632,104c0,0.3,0,0.6,0.1,0.9c0.3,0.4,0.3,0.8,0.1,1.3c-1.4,2.6-4.7,1-6.5,2.9c-0.2,0.4-0.5,0.6-0.8,0.9
				c-1,0-1.9,0-2.9,0c-2.9-2.8-1.9-5.1,2.9-7.1c0.8-0.1,1.5-0.1,2.3,0C628.8,103.1,630.5,103.1,632,104z"/>
			<path class="st240" d="M625.8,104c-3.9,0.4-6.3,1.6-3.7,6c-0.4,2-0.7,4.1-1.1,6.1c-2.3-4.9-0.4-10-0.9-15c1.9-0.2,3.4,1,5.1,1.3
				C625.7,102.7,626.3,103.1,625.8,104z"/>
			<path class="st241" d="M631.7,106c0.1-0.4,0.3-0.7,0.4-1.1c2-0.1,3,1.1,3.1,2.9c0.2,2.9-2.9,2.5-4.1,4c-0.3,0-0.5,0-0.8,0
				c-0.1-0.3-0.2-0.7-0.4-1c-0.3-0.4-0.4-0.8-0.3-1.2C629.5,108,632.3,108.1,631.7,106z"/>
			<path class="st242" d="M630.1,109.9c-0.1,0.4-0.2,0.7-0.2,1.1c-1.7-0.2-3.6,0.7-4.9-1c0-0.3,0.1-0.7,0.1-1
				C626.8,108.6,629.1,105.7,630.1,109.9z"/>
			<path class="st243" d="M610.1,103.7c1.6,5.6,1.1,11.3,0.4,17c-0.9-0.8-0.4-1.9-0.6-2.8c-0.7-4.3-0.5-8.5-0.1-12.8
				C609.8,104.6,609.9,104.2,610.1,103.7z"/>
			<path class="st244" d="M609.7,105.1c0,4.3,0.1,8.5,0.1,12.8C608.3,113.6,608.5,109.4,609.7,105.1z"/>
			<path class="st109" d="M578.2,103c0.3,0,0.5,0,0.8,0c-0.7,4.3,1.4,8.8-1.3,12.9C577.9,111.6,578,107.3,578.2,103z"/>
			<path class="st195" d="M467,116.9c0.4-0.3,0.8-0.5,1.2-0.8C467.8,116.4,467.4,116.6,467,116.9z"/>
			<path class="st245" d="M617.9,94.1c2.6,2.5,1.1,5.8,1.3,8.6c0.2,3.4-0.2,6.8-0.4,10.2c-0.3,0-0.6,0-0.9,0c-1.7,0.5-2.8,0-3.3-1.7
				c1.7-2.5-0.1-4.2-1.4-6c-0.4-0.1-0.8-0.1-1.3-0.2c-0.5-3.3-1.6-6.5-0.9-9.9C613.9,98,616.1,97.2,617.9,94.1z"/>
			<path class="st246" d="M615.3,111.2c0.9,0.6,1.8,1.2,2.7,1.8c-0.1,2.2-0.2,4.5-0.2,6.7c-7.8,1.2-3.6-4.9-4.8-7.7
				C613.6,111.3,614,110.1,615.3,111.2z"/>
			<path class="st247" d="M615.3,111.2c-0.8,0.3-1.5,0.5-2.3,0.8c1.3-2.2-0.6-4.5,0.3-6.8c1.1,1.1,3.6-0.4,3.7,2.2
				C617.1,109,617.9,110.9,615.3,111.2z"/>
			<path class="st248" d="M172.1,99c4.7-2.6,9.3,0.4,14,0c1.6-0.2,1.8,1.1,2.1,2.1c0.2,1.7,0.2,3.4-1.2,4.8c-6,0.4-12.1,0.7-18-0.1
				c-0.4-2.3,3.3-2.5,2-4.9C170.6,99.9,171.3,99.4,172.1,99z"/>
			<path class="st249" d="M172.1,99c-0.3,0.6-0.7,1.3-1,1.9c-0.3,0.1-0.6,0.1-0.9,0.2c-2.3,0.3-4.6,0.4-6.7,1.4
				c-0.9,0.4-1.9,1-2.8,0.3c-4-3.1-8.1-1.4-11.6,0.3c-3.3,1.6-5.6,1-8.1-0.9c-2.3-2-1.3-4-0.2-6.1c0.4-0.4,0.8-0.5,1.3-0.2
				c2.7,3,10,2.7,13.9-0.6c0.4-0.3,0.7-0.6,1.1-0.9c2.8,5.1,5.4,5.5,10,1.5c-1-1.9-2.3-3.8,1-4.9c0,0.8,0.2,1.6,1,2
				C170.1,95,170.3,97.4,172.1,99z"/>
			<path class="st248" d="M141.1,102c4.2,1.6,8.2,0.7,11.3-2c2-1.7,4.6-0.1,4.7,0c3.7,3,7.3,0.7,10.8,0.1c0.9-0.2,1.6,0.2,2.1,1
				c-4,6.4-10.4,4-15.9,3.9c-2.5-0.1-5-0.8-7,0.7c-3,2.3-4.7,1.1-6.1-1.7c0-0.3-0.1-0.6-0.1-0.9C140.6,102.7,140.7,102.3,141.1,102z
				"/>
			<path class="st250" d="M187,105.9c0-1.6,0.1-3.2,0.1-4.8c2.3-1.3,4.8-0.4,7.2-0.6c1.3-0.1,3,0.4,2.7,2.5c0,0.7,0,1.4-0.1,2.1
				c-3.7-0.2-7.3-0.2-9.9,3C187.1,107.3,187,106.6,187,105.9z"/>
			<path class="st251" d="M80.1,120c-9.1-2.6-18.5-3.7-27.9-3.3c-2.8,0.1-6.4-0.7-9.2,1.2c-3.5-4.4-0.8-9-0.6-13.6
				c3.2-3,6.8-3.9,10.7-1.8c2.6,1.4,4.6,1.1,6.5-1.1c1-0.7,2-1.3,3.3-0.8c0.4,0.3,0.6,0.7,0.6,1.1c0.2,2.3,2.3,1.2,3.3,1.5
				c3.7,0.9,7.5,1,11.2-0.3c1-0.2,2-0.3,2.7,0.7c0.3,5.4,1.2,10.8,0.5,16.3C80.8,119.9,80.5,120,80.1,120z"/>
			<path class="st252" d="M81.2,119.9c-2.2-5.5-1.3-11.2-1.1-16.9c0.1-0.2,0.2-0.4,0.3-0.7c2.8-2,5.5-0.4,8.2,0.1
				c0.2,0.2,0.3,0.4,0.5,0.5c-1.1,3.1,1.1,5.8,0.4,9.3C87.9,119.8,88.4,119.9,81.2,119.9z"/>
			<path class="st253" d="M109.1,90.3c0.3-0.1,0.6-0.2,0.9-0.4c-0.3,4-4.7,4.9-6,8.1c0.4,0.9-1.8,2.6,0.3,2.6
				c3.8,0,7.7,2.5,11.5-0.2c0.7-0.5,1.5-0.9,2.3-0.4c3.4,2.1,7.3,1,11,1.6c1,0.9,1.4,2,0.9,3.4c-0.3,0.4-0.6,0.7-1,1.1
				c-4.7-2.3-11.2-2.1-18.2-0.4c-2.7,0.6-6.2-0.3-8.9-1.5c-2.8-1.2-5.1-1.8-7.9,0c-1.8,1.1-3.7,0.7-5.1-1.1l0,0
				c-1.5-1.8-1.3-3.8-0.9-5.9c0.2-0.5,0.4-0.9,0.8-1.3c0.5-0.2,0.9-0.1,1.4,0.1c4.2,3.2,7.6,3.1,11.9-0.4
				C104.7,93.9,105.9,90.8,109.1,90.3z"/>
			<path class="st254" d="M430.9,116.9c-5.6,0-11.3,0-16.9,0c-2.6,2.1-5.6,1.3-8.6,1.5c-4-0.3-8-0.8-12-0.1
				c-3.9,0.2-7.9-0.1-11.8,0.1c-8.6,0-17.2,1-25.6-1.4c-11.3,0-22.7,0-34,0c-5.7,0-11.5,0-17.2-0.1c-1.5,0-3.5,0.5-3.8-1.9
				c-0.2-0.2-0.4-0.5-0.6-0.8c-1.5-2.2,0.6-5.8-2.5-7.1c-2.2-0.9-4.9,0-7.4-0.3c-3.4-0.4-7.3,0.4-8.2-4.5c0.4-1.4,1.1-2.2,2.6-1.5
				c1.1,3,3.9,1,5.7,1.9c-0.1-0.7-1.2-1.1-0.7-2c1.1-1,2.4-1.3,3.8-1.5c2.3-0.1,3.4,2.3,5.5,2.5c0.6-0.1,1.2-0.1,1.8-0.2
				c3.2,1.2,6.4,1.4,9.8,1.2c12.9-0.5,25.8,1.1,38.7,0.1c11.2-0.8,22.4,0,33.6-0.2c2,0,4-0.6,5.8-1.4c3.9-1.6,7.5-1.1,10.8,1.4
				c2.7,1.8,5.6,2,8.5,0.4c0.7-0.2,1.4-0.2,2.1-0.1c11.2,1.1,22.4,1.8,33.6,0.7c2.9,0.9,5.9,1.2,8.9,0.9c0,0.5,0,1,0.1,1.5
				c0.6,4.6,0,8.6-5,10.5c-1.6,0-3.3,0-4.9,0C439,115.8,435,115.9,430.9,116.9z"/>
			<path class="st255" d="M215.2,102.1c1.7-1.3,0.2-3.6,1.7-5c0.6,0.3,0.9,0.9,1.1,1.6c1.3,4.1,3.4,5,7,2.6c1.3-0.9,2-1.7,3.2-0.5
				c2.3,2.4,4.5,1.6,6.7,0.1c0.9,0.4,0.9,0.4,1.2-1.1c1.3,1.4,2.6,2.8,3.9,4.3c0.3,0.2,0.5,0.4,0.6,0.7c1.1,3.5,3.6,6.5,6.5,7.9
				c0.7,2.7-1.9,2.4-3.1,3.3c-1.3,2.3-3.7-1.1-5,1c-6.3-0.7-12.5-0.9-18.8-0.6c-3.7,0.2-3.2-2.9-3.4-6.7c-1.3,3.7,0.5,8.2-4.7,7.4
				c-2.2-3.1-0.6-6.7-1.1-10c-0.4-2.7,3.9-1.1,3.5-3.9C214.6,102.7,214.8,102.3,215.2,102.1z"/>
			<path class="st256" d="M283,101.9c-0.1,3.1,2.8,3.8,4.4,3.5c3.3-0.7,6.3,1.3,9.6-0.1c2.4-1,4,0.6,4,3.3c0,2.1,0,4.3,0,6.4
				c-2.4,1.9-4.8,3.1-7.4,0.1c-0.7-0.8-1.7-1.4-2.6-0.5c-3.6,3.4-7.5,0.5-11.2,0.6c-2.6,0.1-3-2.1-2.8-4.3c-1.8-1.9-0.4-4.7-2-6.6
				c-0.3-0.3-0.5-0.7-0.7-1.1c-0.2-0.9-0.1-1.7,0.6-2.4c0-0.6,0.1-1.2,0.1-1.9c0.6-0.6,1.2-1.2,1.8-1.8
				C280.8,96.2,281.4,99.7,283,101.9z"/>
			<path class="st256" d="M244,116c1-1,2-2,3-3c2.4-3.2,5.4,0.5,7.8-0.6c2.6-1.3,0.7-6.6,4.1-6.5c5.3,0.2,9.6-2.6,14.6-3.1
				c0.7-0.1,1.1,0.6,1.5,1.1l0.1,0.1c2.1,2-1.9,4,0,6c0.9,6.1,0.9,6-5.5,6.7C261.1,117.5,252.6,116.6,244,116z"/>
			<path class="st257" d="M275.1,110c-0.4-1.1-4.4-1.2-0.8-3.3c1-0.5,0.7-1.7,0.8-2.7c1-0.4,2-0.6,2,1c0,2,0,4,0,6
				C276.4,110.7,275.7,110.3,275.1,110z"/>
			<path class="st258" d="M356,117c8.7,0,17.3,0,26,0.1c1.4,2.9-1.9,4.3-2,6.7c-5.3,0-10.6,0-15.8,0c2-3.9-0.8-4.3-3.5-4.8
				C359,118.7,356.5,120,356,117z"/>
			<path class="st259" d="M130.1,105c-0.3-1-0.7-2-1-3c-1.3-2,0.8-3.5,0.9-5.2c2.8-0.5,5.5-0.4,8,0.9c0.5,1.1,0.9,2.2-1,2.3
				C133.8,100.3,132.7,103.8,130.1,105z"/>
			<path class="st116" d="M137.1,100c0.8-0.5,0.9-1.2,0.9-2c0-2.2,0.9-2.9,3-1.9c0.2,2-1.6,4,0,6c-0.1,0.4-0.1,0.8-0.2,1.2
				c-2,2.3-4.5,1.8-7.4,1.3C134.8,102.9,135.9,101.4,137.1,100z"/>
			<path class="st260" d="M197,103c-2.8-3.5-6.9,0.4-9.9-1.8c-0.1-0.9-0.2-1.7-1.1-2.2c-0.2-1.2,0-2.2,1-3c2.7-2,9.1-1.4,10.9,1.1
				c0.9,0.5,1,1.4,1.1,2.4c0.1,0.9,0,1.8-0.3,2.7c-0.2,0.4-0.5,0.7-0.9,1C197.6,103,197.3,103,197,103z"/>
			<path class="st261" d="M215.2,103c1.2,1.9,1.3,3.4-1.6,3.3c-1-0.1-1.9-0.2-2.6,0.8c-2.3,1-4.7,1.9-6.6-0.5
				c-0.8-1-1.5-0.9-2.5-0.5c-2.9,1.2-3.8-0.5-4.1-3l0.2-0.1c4.2-0.9,8.5-1.1,12.7-0.5C212.3,102,213.7,102.6,215.2,103z"/>
			<path class="st262" d="M43.2,103.9c0.3,4.7-1.3,9.3-0.1,14c-0.5,3.1-2.9,1.9-4.6,2.1c-2.3,0.2-1.3-1.5-1.6-2.6
				c-0.3-1.2-1.1-2.3-1.7-3.4c1.9-4.2-1-8.8,0.9-13c0-0.2,0.1-0.5,0.1-0.7c3.7-3.2,4.9,1.1,7.2,2.4
				C43.5,103.1,43.4,103.5,43.2,103.9z"/>
			<path class="st263" d="M30.1,118.3c0.1-1.7,0.1-3.5,0.3-5.2c0.1-0.6,0.4-1.8,1.5-1c0.4,0.3,0.4,1.2,0.5,1.8
				c-0.7,1.7,0.8,3.5-0.3,5.2C31.4,118.8,30.7,118.6,30.1,118.3z"/>
			<path class="st264" d="M405,117c3,0,6,0,9,0c0,3.9-5.2,5-5,9c-0.3,0.3-0.6,0.6-0.9,0.9c0-1.9-0.5-3.1-2.8-3
				c-2.1,0.1-4.2-0.1-6.3-0.1C398.7,119.5,400.8,117.3,405,117z"/>
			<path class="st118" d="M405,117c-3.1,1.3-4.5,4.1-5.9,6.8c-2.7,0-5.4,0-8.1-0.1c-1.3-1.4-4-1.3-4.4-3.9c0.4-1.7,1.8-1.5,3.1-1.4
				c1.7,0.2,3.2-0.1,4.4-1.4C397.7,115.6,401.3,117,405,117z"/>
			<path class="st264" d="M394,117c-0.5,5.3-5,1.2-7,3c-2.7-0.2-3.3,2.5-4.9,3.7c-0.7,0-1.4,0-2.1,0c-1.7-2.9,2.1-4.3,2-6.7
				C386,117,390,117,394,117z"/>
			<path class="st258" d="M382,123.7c1.8-1.1-1.1-8.2,4.9-3.7c1.1,1.5,4.2,0.9,3.9,3.8C388,123.7,385,123.7,382,123.7z"/>
			<path class="st265" d="M32.1,96c1-0.8,2.1-1.5,3.3-2.4c1.3,0.9,0.5,2.3,0.8,3.5c0.9,1.3,0.7,2.6-0.1,3.9l0,0
				C30.8,102.4,33,97.9,32.1,96z"/>
			<path class="st266" d="M29.9,87.8c2.1,1.2,2.9,3.1,3.2,5.4c-0.3,0.9-0.7,1.9-1,2.8c-0.9-0.3-1.8-0.5-2.7-0.8
				C29,92.7,28.6,90.2,29.9,87.8z"/>
			<path class="st4" d="M4.3,71.8C5.5,77.8,5.2,83.9,5,90C3.6,84,4.2,77.9,4.3,71.8z"/>
			<path class="st267" d="M400,104c-4.2-2.8-8.5-2.4-13.1-0.6c-4.7,1.8-9.8,0.2-14.5,0.4c-6.4,0.4-12.8-0.5-19.3,0.2
				c-11.7,1.3-23.5,0.5-35.2-0.1c-4.6-0.2-9.2,1-13.8,0.1c-1.6-0.3-3-0.3-3-2.4c0.1-1.2,0.9-1.9,2-1.7c3.1,0.6,4-0.9,3.1-5
				c6.5,6.7,13.5,5.3,20.6,5.7c9.1,0.5,18.2-1.4,27.2,0.1c0.3,0.1,0.8-0.5,1.2-0.8c5.4-2.3,11.3-2.5,16.8-1.3
				c7.1,1.6,13.6,0.6,20.1-1.8c2.6,0.9,5.1,2.1,8,1.1c2.7,2.9,6.3,3.5,10,3.3c1.8-0.1,3.5-1,5.1,0.6c-0.9,2.5-2.7,3-5,2.1
				c-0.7,0-1.3,0-2,0c-1.3,0.5-2.5,0.3-3.8,0.1C402.8,103.9,401.4,101.8,400,104z"/>
			<path class="st268" d="M392,97c-1,2.7-2.8,3.9-5.8,3.2c-3.4-0.8-6.6,2.2-9.7,1c-7.1-2.8-14.3-0.6-21.4-1.1c-1-0.7-2.1-1.4-3.1-2
				c0.3-0.3,0.7-0.7,1-1c7.2-0.2,14.4-3.3,21.8-0.3c0.6,0.3,1.7,0,2.3-0.3C382.2,94,387,96.4,392,97z"/>
			<path class="st269" d="M700.9,90.8c-0.5,1.3,0.9,4-1.6,3.7c-2.2-0.2-2.3-2.8-2.3-4.8c-0.1-1.6-0.1-4.3,1.6-4.1
				C701.2,85.8,700.7,88.7,700.9,90.8z"/>
			<path class="st270" d="M410,104c2.1,0.3,3.5-1.1,5-2.1c4.1-0.5,8.1-0.2,12,1c2.2,0.9,4-1.3,6.1-0.9c0.8,0,1.4,0.3,1.9,0.9
				c3,0,6,0,9,0c0,0.3,0,0.7,0,1c-2.3,3.4-5.9,1.1-8.7,1.5C426.9,106.4,418.3,105.8,410,104z"/>
			<path class="st271" d="M435,103c-0.7,0-1.3,0-2,0c-0.6-0.5-1.6-0.8-1-2c3.4-0.4,6.3-2.5,9.2-3.8c3.6-1.6,3.1-6.5,3.8-10.2
				c0.7,1.3,1.3,2.7,2,4c-0.1,0.8-0.5,1.7-0.3,2.3c1.4,4.5-1,6.3-4.9,7.2C439.5,101.2,436.9,101.2,435,103z"/>
			<path class="st147" d="M432,101c0.3,0.7,0.7,1.3,1,2c-2,0-4,2.3-6,0C428.7,102.3,430.3,101.7,432,101z"/>
			<path class="st272" d="M168,91.1c-1.6,1.4-0.6,3.3-1,4.9c-3.5-1.4-8.2-4.9-10.3-3.7c-3.8,2.1-7.4,0.2-10.6,2.3
				c-0.2-0.4-0.3-0.8-0.5-1.2c1.2-1.2,2.4-2.3,3.5-3.5c3.6,1.6,7,2.2,8.9-3.1c0.4,2.8,1.7,5.1,3.7,2.8c1.8-2.1,4.7-0.5,5.8-3
				c0.2,0.4,0.4,0.9,0.6,1.3C168.1,89,168,90.1,168,91.1z"/>
			<path class="st273" d="M488.9,97.9c2,0.1,2.1,2,3,3.1h-0.5h-0.5c-4.1-1.2-8.3-2.3-10.1-6.9c0-1-1.6-1.9-0.2-3
				C483.1,93.7,485.4,96.5,488.9,97.9z"/>
			<path class="st274" d="M480.9,94.1c2.6,3.5,6.6,4.8,10.1,6.9c-1.2,2.8-3.6-1.2-4.9,0.8c-2-0.9-1.9-4.3-4.9-4.1
				C481,96.5,479,95.5,480.9,94.1z"/>
			<path class="st275" d="M275,103.9c-2.3,0.6-5.9-1.8-6.5,3.2c-0.2,1.8-2.6,0.2-3.9-0.2c-5.9-1.7-6.5-1.3-6.8,4.9
				c-0.1,2.8-2.2,1.9-3.6,2c-2.4,0.1-4.5-2.3-7.2-0.9c-0.4-0.2-1-0.7-1.3-0.6c-7.1,3.6-5.5-1.9-5.7-5.5c0-1,0-2-0.1-2.9
				c3.9,0.2,7.8-1,11.7,0.4c1.1,0.4,1.2-0.7,1.3-1.5c0.3,0,0.7,0,1,0c3.5,1.5,5.6-4.3,9-1.9c4,2.9,6.7-2,10.2-1.3
				c0.6,0.4,1.2,0.7,1.8,1.1C275,101.9,275,102.9,275,103.9z"/>
			<path class="st166" d="M273.2,99.8c-2.3,1.9-4.9,3.3-8,3.7c-1,0.1-2.3,1.4-2.5-0.9c-0.1-1.8-1.4-1.7-2.5-1.4
				c-1.9,0.5-0.1,2-0.7,3.2c-1.8-0.2-3.4-1.8-5.4-1.5c1.8-2.1,3.6-3.4,6.8-3.2c2.9,0.2,6.2-0.4,8.2-3.4c0.8-1.2-0.2-1.3-1-1.4
				C272.9,93.2,272.1,97.5,273.2,99.8z"/>
			<path class="st276" d="M283,101.9c-2.9-0.6-3-4.7-6.2-4.8c0.2-1-1.4-2,0-3c3.2,3.1,7.1,5.2,11.1,7c0.4,0.6,0.7,1.3,0,1.7
				c-1.2,0.8-2-0.2-2.8-0.9C284.4,101,283.7,101,283,101.9z"/>
			<path class="st191" d="M535,101c8.7,1.4,17.5,0.8,26.2,1.1c3.2,0.1,5.8-0.4,7.8-3.1c-1.2,8-1.2,8.5-9.8,8.6
				c-4.7,0-9.6,0.1-14.2-0.9C541.2,105.9,537.2,104.8,535,101z"/>
			<path class="st277" d="M141.1,96c-1.4,0-2.4,0.7-3,1.9c-2.7,0-5.5,0.6-8-0.9c-0.6-0.7-0.6-1.3,0-2l0,0c1.6-1,0.1-5.9,4.7-3.6
				c0.8,0.4,1.3-1.7,2-2.5c1.2-1.3,1.6-3.9,4.3-2.8c1.7,3.2-1.1,6.8,0.9,9.9C141.7,96,141.4,96,141.1,96z"/>
			<path class="st278" d="M235,100.9c-2.2,3.8-4.8,3.8-7.6,0.6c-0.6-0.7-0.6-1.3-1.5-0.1c-1.8,2.4-4.7,3.2-7.2,2.3
				c-2.9-1.1-1.1-4.4-1.8-6.6c0.1-1.4,0.2-2.8,0.4-4.1c3.2,3.1,3.6-2,5.8-1.9c0.7,0.7,1.3,1.3,2,2c4.9,0,6.7,4,9.4,7
				C234.6,100.3,234.8,100.6,235,100.9z"/>
			<path class="st279" d="M198.1,99.9c-0.1-1-0.1-1.9-0.2-2.9c0-1.3,0-2.6-0.1-3.9c4.2-1.1,8.1,0.7,12.2,0.9
				c0.9,1.2,0.1,2.5,0.1,3.7c-0.4,2-1.8,2.8-3.6,2.6C203.8,100.1,200.9,100.4,198.1,99.9z"/>
			<path class="st280" d="M198.1,99.9c2-0.9,3.7-2.7,6.4-0.7c1.2,0.9,4.1,0.5,5.6-1.4c0.3,0.1,0.5,0.2,0.8,0.3
				c0,1.6,0.8,3.3,0.1,4.9c-0.3,0.4-0.8,1.2-0.8,1.1c-3.9-2.3-8.3,1-12.2-1.1C198.1,102,198.1,100.9,198.1,99.9z"/>
			<path class="st281" d="M211,103c-1.1-1.6-2-3.2-0.1-4.9c1.4,0.3,2.7,0.6,4.1,0.9c0,1,0.1,2,0.1,3.1c-0.1,0.3-0.1,0.6,0,0.9
				C213.8,104.8,212.4,102.7,211,103z"/>
			<path class="st282" d="M130.1,95c0,0.7,0,1.3,0,2c-0.3,1.7-0.7,3.3-1,5c-3.6,0.8-7.3,1.2-10.7-0.9c-0.4-0.2-1.2-0.4-1.3-0.3
				c-2.1,3.1-5.1,2.6-8,1.7c-2.7-0.8-5.5-0.1-8.3-0.7c0.4-2.1,1.8-2.9,3.2-3.8c7.8,0.1,15.7-0.8,23.5,0.5
				C130,98.9,128.3,95.5,130.1,95z"/>
			<path class="st283" d="M109.1,90.3c-1.8,2.2-3.7,4.1-6.1,5.7c-4.4,0.5-8.7,1-13.1,0.1c-0.3,0-0.5-0.1-0.8-0.2
				c-1.8-1.9-1.7-3.8-0.3-5.9c0.1-1,0.2-2,0.3-3.1c1.7,0,3.1,2.3,5.3,0.1c2.3-2.5,2.3,2.1,4.8,2.2C102.4,89.4,106.1,88.2,109.1,90.3
				z"/>
			<path class="st284" d="M88.9,90c0.1,2,0.2,3.9,0.3,5.9l-0.3,0.2c-0.7,0.7-1.4,1.7-2.4,1.6c-4-0.4-5.3,2.3-6.4,5.3l0,0
				c-0.7,0.3-1.3,0.7-2,1c-0.7-0.6-1.4-1.2-1.6-2.1c-1-2.1,2.2-2.9,1.5-4.9c0.3-2.5,0.3-5,2.2-7c1.7,0.1,2.6-1.3,4-1.9
				C86.4,87.1,88.1,87.4,88.9,90z"/>
			<path class="st285" d="M80.1,90c-0.4,2.6-0.7,5.3-1.1,7.9c-2.4,1.5-3.6,0.1-4.4-2c-1.6,0.7-2.7,3.1-5,1.8
				c-0.6-0.3-0.9-0.9-1.1-1.6c2.3-3.2,5.3-5.7,8.4-8c0.4-1,1-1.8,2-2.2c0.3,0,0.7,0.1,1,0.1C80,87.4,80.1,88.7,80.1,90z"/>
			<path class="st286" d="M77,88.2c-2.6,2.6-5.3,5.2-7.9,7.8c-0.9,2-2,3.8-4.7,3.4c-0.4-0.3-0.6-0.6-0.7-1.1c0.5-1.7,1.6-2.8,3.4-3
				c2.8-1.5,5-3.7,7.1-6.1C75.1,88.6,75.8,87.8,77,88.2z"/>
			<path class="st287" d="M51.1,81c-2.3-0.1-3.2,3.9-6.1,1.9c2.1-1.3,3.8-3.3,6.3-3.8c0.7-0.2,1.4,0,0.9,0.9
				C52,80.5,51.5,80.7,51.1,81z"/>
			<path class="st288" d="M67.1,95.2c-1,0.9-2,1.9-3,2.8c-0.8,0.7-1.8,0.8-2.8,0.7c-6-0.9-12.1-0.1-18.1-0.4
				c-0.4-0.4-0.5-0.8-0.3-1.3c0.1-2.7,0.2-5.4,0.3-8c1.8,3.2,4.4,4.6,8.2,4c3.7-0.6,7.4,1,11.2,0.1C64.3,92.7,66.1,93.5,67.1,95.2z"
				/>
			<path class="st289" d="M625.6,93c-4.1,0-5.3-2.3-4.8-6c0.2-1.5,1-3.5-1.9-3.1c0.4-0.7,0.8-1.3,1.2-2c3.3,1,6.5,2,9.8,3.1
				c1.8,1.2,0.1,3.8,2,5c0.9,1.2,0.2,2.1-0.7,2.9C629.4,94.1,627.5,94.5,625.6,93z"/>
			<path class="st290" d="M620.8,78c1.7,0,3.4,0,5.2,0C624.2,80.8,622.5,79.3,620.8,78z"/>
			<path class="st291" d="M598.8,115.4c-0.8-3-1.4-5.9,0.2-10C600.3,109.5,600.2,112.5,598.8,115.4z"/>
			<path class="st292" d="M641.8,87c-0.7-2.3-4.9,0.8-4.6-2.9c1.4-1.2,3.7,1,4.8-1.2c1,1.5,3.1-0.7,4,1.1c0.3,1.8-1.1,2.9-1.9,4.2
				c-0.4,0.2-0.9,0.4-1.3,0.3C642.1,88.3,641.6,87.9,641.8,87z"/>
			<path class="st293" d="M643.9,88.2c-0.5-2,1-3.1,2.2-4.2c0.3-0.3,0.6-0.6,0.8-1c1,0.4,2,0.7,3,1.1c-0.3,1.6,1.5,3.3,0.1,4.9
				C646.3,92,645,91.9,643.9,88.2z"/>
			<path class="st294" d="M299.2,101.8c-2.2,1-3.4-0.5-4.7-1.9c-2-0.6-3.9-1.3-3.6-4c1.6-0.5,2.3,1.1,3.6,1.3
				C295.9,99,298.8,99.2,299.2,101.8z"/>
			<path class="st268" d="M336,98c2.7-0.6,5.3-1.9,8,0C341.3,99.1,338.7,99.8,336,98z"/>
			<path class="st295" d="M290.9,96c1.2,1.3,2.4,2.7,3.6,4c-1.5,0.4-3,0.8-4.4,1.2c-1,0.3-1.4-0.6-2.1-1c-0.3-0.4-0.7-0.7-1-1.1
				C288.5,98.3,288.6,95.7,290.9,96z"/>
			<path class="st296" d="M42.9,97c0.1,0.3,0.2,0.6,0.3,0.9c0.4,0.8-0.8,1.9,0.5,2.5c0.2,0.9,0.2,1.8-0.6,2.5c-2.6,0.1-3.6-5-7-2
				c0-1.3,0.1-2.6,0.1-3.9C38.4,96.6,40.7,96.2,42.9,97z"/>
			<path class="st256" d="M288,100.2c0.7,0.3,1.4,0.7,2.1,1c0.8,0.5,1.7,0.9,2.5,1.4c-5.5,1.7-5.5,1.7-7.4-0.7
				c0.9-0.4,2.6,2.2,2.8-0.8C288,100.8,288,100.5,288,100.2z"/>
			<path class="st297" d="M630.9,92.1c1-0.4,1-1.2,1-2.1c0.7-0.6,1.3-1.2,2-1.8c0.3-0.1,0.6-0.2,0.9,0c1.1,1.2,1.2,2.5,0.2,3.9
				c0.3,1.7-0.8,2.9-1.9,3.9c-0.4,0.3-0.9,0.4-1.4,0.2C630.6,94.9,629.8,93.7,630.9,92.1z"/>
			<path class="st298" d="M635,92c-0.1-1.3-0.2-2.6-0.2-3.9c1.3-0.3,1.6,2.5,3.2,0.9c1.6-1,3.6,0.1,5.2-1c0.2,0,0.5,0.1,0.7,0.1
				c1.6,3.5,4,1.5,6.2,0.9c0,0.6,0.1,1.3,0.1,1.9c-1.3,1.4-3.1,1.4-4.8,1.4c-2.5,0-5-0.1-7.5-0.3C636.9,92.1,636,92,635,92z"/>
			<path class="st299" d="M643.2,88.1c-1.2,3.2-3.2,1.9-5.2,1c-0.5-3.9,2.7-1,3.8-2.1C642.3,87.3,642.7,87.7,643.2,88.1z"/>
			<path class="st300" d="M632,104c-1.5,0.9-2.9-0.1-4.3-0.3c-1.3-1.8-2.1-3.6-1.1-5.8c0.5-0.6,1.2-0.9,1.9-1
				c2.3-0.6,4.5,1.3,6.8,0.2C636.2,100.4,633.1,101.7,632,104z"/>
			<path class="st301" d="M642.9,102.7c0.1,0.4,0.2,0.8,0.3,1.2c0.3,1.4,3.6,1.8,1.5,4.1c-0.3,0-0.6-0.1-0.9-0.1
				c-1.3-1.4-3.5-0.3-4.7-1.8c-0.1-0.4-0.1-0.8-0.2-1.2c0-0.6-0.1-1.3-0.1-1.9C640.2,102.9,641.5,102.8,642.9,102.7z"/>
			<path class="st302" d="M640,99.3c-0.6-0.2-1.3-0.4-1.9-0.5c-0.9-2-0.9-3.3,1.9-2.9c1.3-1,2.6-1.1,4-0.2
				C645.3,99.8,641.8,98.6,640,99.3z"/>
			<path class="st303" d="M635.3,97.1c-1.7,3.9-4.3-0.1-6.4,0.8c-0.6-3,1-2.7,2.9-2c0.4,0,0.8,0,1.3,0
				C633.8,96.3,634.6,96.7,635.3,97.1z"/>
			<path class="st304" d="M644,96.2c-1.3-0.1-2.7-0.2-4-0.2c0-0.6,0-1.2-0.1-1.8c0.2-0.2,0.4-0.3,0.5-0.5c1.8-0.5,3.6-0.3,5.3-0.1
				c1.3,0.1,3.6,0.6,1.3,2.8c-0.4,0-0.7,0-1.1,0C645.3,96.6,644.6,96.6,644,96.2z"/>
			<path class="st305" d="M637.8,92.1c2.1-2.4,4.9-0.6,7.3-1.1c-0.5,3.4-3.9,1.2-5.3,2.9l0.1,0.2C638.7,94,638.2,93.1,637.8,92.1z"
				/>
			<path class="st306" d="M638.2,110.1c1.3,0,2.5-0.1,3.8-0.1c0,0.7,0,1.3,0,2c-0.7,1-1.8,1.2-2.9,1.6c-0.7,0.1-1.3,0-1.8-0.6
				C637.5,112,637.8,111,638.2,110.1z"/>
			<path class="st307" d="M637.2,113c0.5,0,1-0.1,1.5-0.1c0.8,0.1,1.5,0.3,2,1.1c0.1,0.6,0.2,1.3,0.2,1.9
				C638.9,116,636.2,116.8,637.2,113z"/>
			<path class="st308" d="M639.8,93.9c0.3-3.6,4.4-0.3,5.3-2.9c1.7,0,3.4,0,5.1,0c2.5,2.2-0.5,4.1-0.2,6.2c-1-0.3-1.9-0.6-2.9-0.9
				c0.7-1.4-0.5-2.7-1.2-2.1C643.5,96.4,641.8,93.9,639.8,93.9z"/>
			<path class="st309" d="M640.7,114c-0.9,0-1.6-0.3-2-1.1c0.8-1.2,2.1-0.7,3.2-1c1.8,0.3,3.6-0.5,5.6,0.8
				C645.5,114.9,642.9,113.5,640.7,114z"/>
			<path class="st310" d="M644,96.2c0.7,0,1.3,0.1,2,0.1c-0.3,1.3-0.7,2.5-1,3.8c-1.9,1.4-3.4,0.4-4.9-0.7
				C640.5,97.3,644,98.9,644,96.2z"/>
			<path class="st311" d="M639.1,106.1c1.6,0.4,4.2-1.7,4.7,1.8C642.3,107.2,639.5,109.7,639.1,106.1z"/>
			<path class="st90" d="M430.9,116.9c4-2.3,8.1-2.1,12.1,0C439,116.9,435,116.9,430.9,116.9z"/>
			<path class="st312" d="M631.8,95.9c-1.3,0.2-3.1-0.4-2.9,2c-0.7,0-1.3,0.1-2,0.1c-0.5,0.5-1.1,0.7-1.8,0.7
				c-0.4-0.1-0.8-0.4-1.1-0.7c-1.3-0.5-3.2-0.4-2.9-2.5c0.4-2.8,3.6-0.5,4.5-2.4c1.8,0,3.6-0.1,5.3-0.9
				C631.2,93.4,631.5,94.6,631.8,95.9z"/>
			<path class="st313" d="M624,98c0.4,0,0.7,0,1.1,0.1c1.1,1.6,1.9,3.2,0,4.7c-2.2,0.8-3.6-0.3-5-1.8C619.4,97.4,623.6,100.2,624,98
				z"/>
			<path class="st314" d="M630.1,109.9c-1.2-2.9-3.5,0.1-5.1-0.9c-0.8-1.3-0.6-2,1.1-2c1.9,0,3.9,0.4,5.5-0.9
				C633.2,108.2,630.6,108.6,630.1,109.9z"/>
			<path class="st315" d="M625,102.8c0-1.6,0-3.2,0-4.7c0.6,0,1.2,0,1.9,0c0.2,1.9,0.5,3.8,0.7,5.8c-0.6,0.1-1.3,0.1-1.9,0.2
				C625.5,103.6,625.3,103.2,625,102.8z"/>
			<path class="st316" d="M615.2,103.6c-2.2,0.4-0.5-1.6-1.5-2.2c-0.9-0.6-0.2-1.3,0.9-1.3c1.5,0,2,0.9,2,2.2
				C616.7,103.3,616.1,103.7,615.2,103.6z"/>
			<path class="st265" d="M64.1,98.9c2.4,0.2,3.1-2.3,5-2.9c0.3,0.4,0.6,0.8,0.8,1.2c3.3-2.7,6.2-0.6,9.1,0.8c0.3,1.8-2.9,1.9-2,4
				c-4.6,3.7-9.3,1.5-13.9,0c0-0.3,0-0.7,0-1C62.6,99.9,63.2,99.3,64.1,98.9z"/>
			<path class="st282" d="M64.1,98.9c-0.3,0.7-0.7,1.3-1,2c-1,0.4-2,0.7-3,1.1c-6,1.8-11.3-1.8-17.1-1.9c-1-0.8-0.1-1.5,0.2-2.2
				c7-1.8,14-1,21,0.1C64.1,98.4,64.1,98.7,64.1,98.9z"/>
			<path class="st128" d="M43,100.1c3.6-0.6,7.5-1.1,10.6,1.1c2.2,1.5,4.6-1.2,6.5,0.8c-1.6,2.8-3.6,4.3-6.6,1.9
				c-3.5-2.7-6.9-0.5-10.3,0c0-0.3-0.1-0.6-0.1-0.9C43.1,102,43,101.1,43,100.1z"/>
			<path class="st128" d="M63.1,102c4.6-0.1,9.3,1.5,13.9,0c0.8,0.4,1,1.2,1,2c-3.8,1.8-7.8,1.2-11.7,0.5c-1.9-0.4-3.8-1-6.1,0.8
				C61.2,103.2,62.1,102.5,63.1,102z"/>
			<path class="st317" d="M80.1,103c-0.3-4-0.4-7.6,5.5-6.1c1,0.3,2.2-0.5,3.3-0.7c0,2.3,0.1,4.6,0.1,6.9
				C86.1,103.7,83.1,101.5,80.1,103z"/>
			<path class="st318" d="M90,96.1c4.4-1.1,8.7-1.7,13.1-0.1c-1.1,1-2.2,1.9-3.2,3c-1.3,1.3-2.5,5.5-4,0c-0.4-1.3-1.6-0.6-2.5-0.1
				C89.8,100.9,90.1,98.2,90,96.1z"/>
			<path class="st270" d="M400,104c1.2,0-0.1-4.5,2.9-1.4c1.1,1.1,3.6,0.2,5.1,1.4C405.3,107.1,402.7,105.9,400,104z"/>
		</g>
	</g>
</g>
</svg>
