<?xml version="1.0" encoding="utf-8"?>
<!-- Generator: Adobe Illustrator 25.0.0, SVG Export Plug-In . SVG Version: 6.00 Build 0)  -->
<svg version="1.1" xmlns="http://www.w3.org/2000/svg" xmlns:xlink="http://www.w3.org/1999/xlink" x="0px" y="0px"
	 viewBox="0 0 491 188" style="enable-background:new 0 0 491 188;" xml:space="preserve">
<style type="text/css">
	.st0{display:none;}
	.st1{display:inline;fill:#00EF00;stroke:#000000;stroke-miterlimit:10;}
	.st2{fill:#191A1A;}
	.st3{fill:#2A2925;}
	.st4{fill:#686967;}
	.st5{fill:#202221;}
	.st6{fill:#3C4346;}
	.st7{fill:#0F1011;}
	.st8{fill:#191C1D;}
	.st9{fill:#353B3E;}
	.st10{fill:#0A0A09;}
	.st11{fill:#1B1B19;}
	.st12{fill:#171A1B;}
	.st13{fill:#141514;}
	.st14{fill:#646D73;}
	.st15{fill:#5A6C79;}
	.st16{fill:#6E8697;}
	.st17{fill:#60727D;}
	.st18{fill:#2E302F;}
	.st19{fill:#546773;}
	.st20{fill:#505F6A;}
	.st21{fill:#536470;}
	.st22{fill:#586974;}
	.st23{fill:#6F8593;}
	.st24{fill:#3D4447;}
	.st25{fill:#10100F;}
	.st26{fill:#121211;}
	.st27{fill:#25292C;}
	.st28{fill:#181B1D;}
	.st29{fill:#0B0B0B;}
	.st30{fill:#3A4145;}
	.st31{fill:#3C3B36;}
	.st32{fill:#52606A;}
	.st33{fill:#4D4C47;}
	.st34{fill:#292926;}
	.st35{fill:#646D6E;}
	.st36{fill:#1F1F1C;}
	.st37{fill:#010101;}
	.st38{fill:#20201D;}
	.st39{fill:#383B38;}
	.st40{fill:#0F0F0E;}
	.st41{fill:#373633;}
	.st42{fill:#161614;}
	.st43{fill:#0C0C0B;}
	.st44{fill:#2E2E29;}
	.st45{fill:#202426;}
	.st46{fill:#292F32;}
	.st47{fill:#252A2C;}
	.st48{fill:#3C4347;}
	.st49{fill:#2B2A26;}
	.st50{fill:#292D2F;}
	.st51{fill:#969D9C;}
	.st52{fill:#2D3336;}
	.st53{fill:#252727;}
	.st54{fill:#353430;}
	.st55{fill:#363D40;}
	.st56{fill:#2B2B27;}
	.st57{fill:#59605E;}
	.st58{fill:#1F2223;}
	.st59{fill:#6D7572;}
	.st60{fill:#171A1C;}
	.st61{fill:#0A0B0B;}
	.st62{fill:#32312C;}
	.st63{fill:#31312C;}
	.st64{fill:#3A3E3D;}
	.st65{fill:#383E3E;}
	.st66{fill:#434A4B;}
	.st67{fill:#3F4648;}
	.st68{fill:#404647;}
	.st69{fill:#3C4344;}
	.st70{fill:#41494A;}
	.st71{fill:#404748;}
	.st72{fill:#3F4547;}
	.st73{fill:#414748;}
	.st74{fill:#3C4345;}
	.st75{fill:#41484A;}
	.st76{fill:#505451;}
	.st77{fill:#242420;}
	.st78{fill:#1D1C1A;}
	.st79{fill:#343A3D;}
	.st80{fill:#A09C8E;}
	.st81{fill:#51514A;}
	.st82{fill:#767367;}
	.st83{fill:#6D6B60;}
	.st84{fill:#050505;}
	.st85{fill:#0B0C0B;}
	.st86{fill:#1C1C19;}
	.st87{fill:#131311;}
	.st88{fill:#030303;}
	.st89{fill:#020303;}
	.st90{fill:#040505;}
	.st91{fill:#040404;}
</style>
<g id="Camada_2" class="st0">
	<rect x="-20" y="-19" class="st1" width="542" height="233"/>
</g>
<g id="Camada_1">
	<g>
		<path class="st2" d="M152,187.9c-5.9-4.8-11.9-9.6-17.7-14.6c-5.9-5-11.6-10.3-16.3-16.5c-2.6-4.8-6.7-8.6-9.5-13.3
			c-1.8-3-1.3-4.7,1.5-6.5c7.8-5.1,15.7-10,23.4-15.1c4.1-2.7,5.5-2.4,8.8,1.7c6,7.5,12.1,15,19.2,21.5c3.4,3.5,8.7,5.2,10.6,10.2
			c1.3-0.9,1.8-2.3,2.4-3.7c1-2,2.8-3.1,4.7-4c3.2,1.6,0.4,3.1-0.3,4.2c-8.5,12.1-17.2,24.1-25.8,36.1
			C152.7,187.9,152.4,187.9,152,187.9z"/>
		<path class="st3" d="M427.9,0.1c4.8,4.1,6.6,9.2,6.3,15.7c-0.5,9.4,0,18.9-0.2,28.4c-0.1,3.1,0.9,4,3.9,3.9
			c4.3-0.2,8.6,0.1,12.9,0.1c1.6,1.7,1.3,3.5,0.7,5.4c-3.4,3.4-8.2,3.1-12.1,3c-7.2-0.3-14.2,0.8-21.4,0.7c-2.8,0-5.5-0.9-8.3-0.7
			c-3.9,0.8-8.1-0.3-11.7,2.8c-1.9,1.6-5.2-1.3-5.3-4.8c-0.1-4.2,1.9-8.3,0.2-12.5c-0.3-0.7,0.2-1.9,1-2.1c4.5-1.2,3.5-4.9,3.8-8
			c8.3-11.9,17.5-23,29.1-31.9C427.2,0.1,427.6,0.1,427.9,0.1z"/>
		<path class="st4" d="M489.8,45.1c0.3,0,0.7,0,1-0.1c0,6,0,12,0,18c-0.4-0.1-0.8-0.2-1.1-0.3c-0.4-0.4-0.7-0.9-0.9-1.4
			c-0.4-1.7-0.3-3.4-0.4-5.1C488.7,52.5,487.4,48.6,489.8,45.1z"/>
		<path class="st5" d="M161,146c-7.8-6.3-13.8-14.2-19.9-22.1c-2.3-2.9-3.8-3.2-6.9-1.1c-7.8,5.3-15.8,10.4-23.8,15.4
			c-2.1,1.3-2.8,2.2-1.2,4.6c2.2,3.3,4.2,6.7,6.9,9.7c1.2,1.3,2.1,2.5,2,4.4c-5-4.5-8.4-10.2-12.2-15.7c-0.4-4.1-3.9-6.4-5.3-10
			c-0.9-2.4-3-4.3-3-7.2c0-1.7-1.8-1.1-2.5-2c-5.2-9.8-7.8-20.7-12.3-30.8c2.5-1.1,3.1,1.1,4,2.5c2.3,7.3,5.4,14.3,8.3,21.4
			c1.2,2.8,2.5,3.7,5.7,2.3c7.6-3.4,14.9-7.4,22.6-10.7c2.7-1.1,3.5-2.9,2.4-5.6c-0.9-2.2-1.7-4.4-2-6.7c-0.2-1.9-1.2-4.2,1.4-5.2
			c2.1-0.8,4.5-1,6.1,0.8c1.7,1.8,3.4,3.6,5.3,5.2c1.5,1.2,1.1,2.6,0.1,4c-0.9,1.2-2.1,2.1-2.8,3.5c-0.7,1.1-2,2.3-0.4,3.3
			c1.6,0.9,2.2-0.7,2.8-1.9c1-2.1,1.9-4,4.7-2.2c9.9,17.6,22.3,33,38.1,45.6c0,2.6-3.2,2.4-4,4.4c-1.9,1.6-3.3,0.9-5.1-0.5
			C167.3,149.2,165.1,145.9,161,146z"/>
		<path class="st2" d="M133.1,102.9c0.7-2.4-0.7-9-2-11.3c-1.4-2.5-3.5-1.6-5.2-1.5c-2.7,0.3-0.9,2.2-0.9,3.4c0,2.7,0.9,5.2,2.2,7.6
			c1.7,3.3,0.6,5.1-2.6,6.6c-8.6,3.9-17.1,7.9-25.6,12c-1.8,0.9-2.6,1-3.4-0.8c-3.5-8.2-7.8-16-9.5-24.9c-1.9-3.9-3.7-7.8-0.1-11.8
			c1.8-1.9-2.1-2.9-0.8-4.8c4.4-1.9,8.9-2.7,13.3,0.1c1.4,2.4,3.4,3,6.2,3c4.8-0.1,9.5,0,14.3-0.8c3.8-0.6,7,1.4,10.2,3.2
			c1.7,0.9,3.1,2.4,5.2,2.8c2,4.8,3.9,9.5,5.9,14.3C138,101.4,136.3,104.1,133.1,102.9z"/>
		<path class="st6" d="M227.1,129.1c-0.4,3.4,0.5,6.6,2.3,9.4c0.8,1.3,0.9,2.4,0.2,3.7c-0.9,1.5-2.1,0.4-3.1,0.2
			c-7.8-1.4-15.7-2.9-23.5-4.3c-0.6-0.8-0.5-1.7,0.1-2.4c6-2.6,11.9,0,17.8,0.2c0.5,0.1,1,0.3,1.5,0.2c0.9-0.3,0.3-0.7-0.1-0.8
			c-3.2-1.3-2.8-3.9-2.8-6.7c0.1-6.9,2.3-13.4,3.5-20.1c0.4-2.1,0.8-4.2,0.7-6.3c0.1-0.1,0.2-0.3,0.3-0.3c0.5,0.2,0.5-0.3,0.4-0.2
			c-2.4,0.9-4.8,0.8-7.3,0.6c-1.2-0.1-3.1,0-3.1-1.7c0-1.8,1.5-3.1,3.2-3.2c2.8-0.3,5.6-0.5,8.4-0.7c0.7,0,1.3,0,2-0.1
			s-0.3-1-0.1-0.4c0.1,0.2,0,0.2-0.2,0.3c-1.4,0.4-2.9,0-4.4,0.4c-3.5,1-6.1,0.1-7.5-3.5c-0.9-2.3,0-4.8-0.8-7.1
			c0-2-1.9-3.7-0.7-5.8c0.7-0.8,1.6-1.3,2.6-1.4c7.2-0.2,14.4-1,21.5,0.9c1.9,9.9,9.9,10.7,17.7,11.6c3.9,0.5,7.9,0.1,11.9,0.1
			c7.3-0.1,8.5-1.1,10-8.1c0.2-0.8,0.4-1.6,0.9-2.3c2.1-1.2,2.4,1.9,4.1,1.8c-1.2,10-4.5,13-14.2,13c-9.3,0-18.5,0.5-27.5-2.7
			c-3.3-1.2-5.8,0-6.6,3.9c-0.4,1.9-1.1,3.8-1.7,5.7c-2.1,5.4-4,10.8-4.5,16.6C228.1,122.7,228.2,126,227.1,129.1z"/>
		<path class="st7" d="M295.8,78.1c-1.9-1.4-0.8-3.3-0.8-5.1c6-1.3,11.7-3.8,17.8-4.4c3.8,3.8,8,3.4,12.7,1.4
			c1.9-0.8,4.1-1.1,6.2-1.7c0.7-0.1,1.4-0.1,2.1,0.3c2.6,3.9,3,3.9,5.8,0.5c1-1,2.2-1.2,3.5-0.9c6.1,1,11.8,5.5,18.4,1.4
			c1.4-0.9,3.3-0.1,4.8,0.5c4.5,1.8,9,2,13.5,0.3c1.6-0.6,3.2-0.8,4.9-0.4c4.4,1,7.2,3.2,5.1,7.9l0,0c-1,0.8-2.2,0.5-3.4,0.5
			c-29.1,0-58.2,0-87.3,0C298.1,78.5,296.9,78.7,295.8,78.1z"/>
		<path class="st8" d="M237.8,80c-5.8,0.8-11.5-0.1-17.3,0c-2.3,0.1-4.6-0.2-6.6,1.2c-2.3-0.2-4.6-0.9-7-1c-6.3-4-13.2-2.5-19.9-1.9
			c-16.6,1.4-33.1,1.7-49.7,1.6c-1.5,0-3.4-1-4.4,1.1c-2.5-1.9-0.6-2.5,0.9-3c2.2-0.7,4.6-0.1,6.8-0.8c0.8-0.1,1.6-0.2,2.4,0
			c3.6,0.7,7.1,0.8,10.7,0c1-0.2,2-0.3,2.9-0.4c6.3-0.3,6.3-0.3,6.3-6.3c0-1.9,5.1-8.3,7.4-9c3.8-1.2,6.4,0.5,8.3,3.7
			c0.2,0.5,0.3,1,0.4,1.5c0.2,4.8-2.9,6.4-7,7.2c2.7-0.2,5.6-2.7,7.5,1.2c0.4,0.8,1.8,0.6,2.8,0.5c10.6-1.2,21.2-1.7,31.8-2.3
			c13.6-0.8,27.1-2.5,40.8-2.6c2.4,0.2,5.1-0.6,7.1,1.6c-3.2,4-4.5,8.3-1.9,13.2c0.6,1.1,0.9,2.8-0.5,3.6c-1.7,1-2.8-0.3-3.7-1.5
			c-1.6-2.2-2.9-4.5-3.7-7c-1.9-6-7.9-7.2-12.4-2.5C239.3,78.7,238.8,79.6,237.8,80z"/>
		<path class="st9" d="M224,102c1,1.6,1.5,2.8,0.8,5.2c-2.3,7.9-3.8,16-4.4,24.2c-0.1,2.1,1.4,2.3,2.9,2.6c1.7,0.4,2.8,1.7,2.1,3.2
			c-0.7,1.3-2.3,0.9-3.4-0.2c-4.9-3.1-10.7-3-15.9-4.7c-1.4-0.4-3-0.1-4.2-1.1c-2-2.8-0.1-6.4-1.8-9.2l0,0c2.5-2.5,3.3-5.6,2.9-9
			c0.1-0.3,0.1-0.6,0.2-0.9c2.3-1.2,2.8-2.9,1.6-5.2l0,0c2.6-0.9,2.9-2.7,1.9-5h0.1c1.3-0.8,2.7-1,4.1-0.8
			C215.2,102.9,219.7,101.3,224,102z"/>
		<path class="st10" d="M397.8,32c0.9,3.2,3.8,6.9-2.2,8.2c-2.1,0.5-2.1,2.7-1.3,3.6c2.4,2.8,1.6,5.1,0,8c-0.9,1.5-0.7,3.9,0.7,5.6
			c0.7,0.9,2.4,2.2,2.8,1.4c2.9-5.5,8.4-1.8,12.3-3.7c1.1,0.8,2.8,1.3,2.4,3.2c-0.5,2.4-3.3,0.3-4.3,2c-1.1,1.6-2.9,2.4-3,5.2
			c-0.1,3.8-3.8,1-5.7,1.7c-1.3,2.9-3.9,2.7-6.2,2.2c-2.9-0.5-2.2-3.2-2.5-5.3c-0.3-8.8,0.6-17.6-0.5-26.4c-0.2-0.5-0.4-1.1-0.5-1.6
			c0.2-1.9-0.4-4.3,2.7-4.2c0.3-0.2,0.5-0.1,0.7,0.1c1.1,0.7,0.8,2.8,2.4,2.8c1.4-0.1,0.9-1.9,1.6-2.7
			C397.2,31.8,397.5,31.8,397.8,32z"/>
		<path class="st11" d="M408,60.2c1.1-1.5,5.7-1.8,1.9-5.2c6.9,1.5,13.9,0.7,20.9,0.2c6.7-0.5,13.5,0.2,20.1-1.2
			c1.3,5,3,6.4,8.6,6.5c7.8,0.1,15.6,0,23.4,0.1c2.3,0,4.7-0.4,6.6,1.4c0,0.3,0.1,0.5,0.2,0.8c-11.5,0.1-22.9,0.1-34.4,0.2
			c-0.7,0-1.5,0.2-2-0.1c-6.6-5.5-13.5-3-20.6-1.5c-2.5,0.5-5.2,0.3-8.1-0.7C419.4,58.7,413.6,59.7,408,60.2z"/>
		<path class="st12" d="M391.9,64c0.4,1.6-0.8,3.8,1.3,4.8c2.3,1.1,4.3-0.2,6.1-1.6c-0.3,1.6-0.4,3.3-2.8,2.9
			c-5.1-0.9-6.1,2.1-5.9,6.2c0,0.5-0.4,1.1-0.6,1.7c-0.2-5.6-4.9-8.5-10.1-6.2c-4.3,1.9-8.4,1.9-12.8,0c-2.4-1.1-5.1-2.6-7.3,0.6
			c-0.2,0.3-0.9,0.5-1.3,0.5c-5.6,0.6-10.4-2.2-15.4-3.9c-1.6-3.7,2.8-1.6,3.2-3.4c-0.2-1.8-3.8-2.1-2.4-4.8c1.6-1,3.2-2.1,5.2-2
			c1,1,1.2,2.4,1.1,3.6c-0.3,3.7,2.1,5.1,4.8,4.3c5.1-1.5,10,0.9,14.9,0.3c2.7,0.6,5.3,1.2,6.2-2.6c0.4-1.5,1.3-2.5,2.6-0.4
			c0.1,0.2,0.3,0.2,0.3-0.2c0.3-2.3,1.8-3,3.8-2.9c2.2,0.1,3.1,1.7,3.5,3.6c0.7,3.8,2.1,2.1,3.6,0.5c0.2-0.4,0.5-0.8,0.8-1.1
			C391,63.7,391.4,63.7,391.9,64z"/>
		<path class="st12" d="M313,69c-5.8,2.3-11.5,4.7-17.9,4c-4.3-3.6-8.9-2-10.8,3.7c-0.7,2-1,4.2-1.4,6.3c-0.9,0.3-1.2,2.2-2.1,1.3
			c-0.7-0.7-0.6-2.3-0.9-3.6c-1.5-2.9-1.5-6.4-3.4-9.1c-0.1-0.8,0.1-1.6,0.8-2.1c2.5-1.3,5.2-0.7,7.8-1c5.1-0.6,6.3-1.7,6.5-6.8
			c0.1-2.5,0-4.9,0-7.4c0.1-1.6,0-3.3,0.8-4.8c0.3-0.5,0.7-0.7,1.2-0.7c2.5,1.8,2.5,4.5,2.3,7.1c-0.2,2.2,0,4.3,0.2,6.4
			c0.2,2.8,1.7,4.3,4.3,4.7c2.7,0.4,4.5-0.9,5.3-3.5c0.4-1.3,0.7-2.6,2.1-3.2c0.9-0.4,1.8-0.4,2.8-0.2c1.7,0.6,2.9,2.2,1.7,3.3
			c-2.5,2.5,0.8,3.3,0.9,4.9C313.1,68.6,313,68.8,313,69z"/>
		<path class="st13" d="M141,78c-1.9,1.8-4.3,0.6-6.4,1c-1.1,0.2-3-0.2-1.7,2c0.4,1.6,0.9,3.1,1.3,4.7c-1.4,2.3-2.6,0.4-3.6-0.4
			c-5.2-3.6-10.5-5.6-17.1-3.5c-3.8,1.2-8.1-0.5-12.2,0.1c-2.6,0.4-3.3-1.6-3.2-3.9c0.2-0.8,0.7-1.4,1.5-1.8c4.4,0,8.8-0.5,13.3-0.6
			c6.7,1.7,13.5,0.8,20.3,0.7C135.9,76.3,138.7,76,141,78z"/>
		<path class="st12" d="M295.8,78.1c31.3,0,62.7-0.1,94-0.1c-0.8,1.2-2.1,0.7-3.2,0.7c-28.8,0-57.7,0-86.5,0
			C298.7,78.7,297.2,78.9,295.8,78.1z"/>
		<path class="st14" d="M227.1,129.1c-0.4-5.9-0.5-11.7,2.2-17.3c1.3-2.7,1.1-6,1.8-9c0.6-2.3,1.2,0.3,1.8,0.1
			c-1.6,7.9-3.7,15.8-3.8,23.9C229,128.2,228.5,129,227.1,129.1z"/>
		<path class="st15" d="M216,86c1.2,2.3,0.2,4.6-0.1,6.9c-0.4,3.6-1.9,5.8-6,4.9c-0.5-0.2-0.9-0.5-1.1-1c0.8-1.9,1.5-3.8,2.3-5.8
			C212.4,89,209.7,83.1,216,86z"/>
		<path class="st16" d="M216,86c-4.5-1.1-3.4,3.2-4.9,5c1.2-4.6-1.2-7.8-4.2-10.8c2.7-2.2,4.9-1.2,7,1C214.7,82.7,216.5,83.8,216,86
			z"/>
		<path class="st17" d="M200,122c4.4,2.2,0.9,6.1,2,9c0.2,1.8-0.3,3.3-1.9,4.3c-0.5,0.1-0.9,0-1.3-0.2
			C197.5,130.5,197.7,126.2,200,122z"/>
		<path class="st18" d="M133.1,102.9c2.4-1,4.7-2,7.1-2.9c0.8,0.5,1.1,1.1,0.8,2c-1.9,0-3.6,0-3.3,2.9c0.2,2.1-2.4,2.7-3.8,3.4
			c-2.5,1.3-1.1-1.8-2.3-2.6C128.7,103.7,132.6,104,133.1,102.9z"/>
		<path class="st19" d="M203,113c1.1,0.2,2.5-0.4,2.8,1.2c0.4,1.6-4,7.4-5.7,7.8C200.4,118.8,201.4,115.8,203,113z"/>
		<path class="st20" d="M211,102c-1.4-0.1-2.8-0.1-4.2-0.2c0.3-1.8,0.9-3.6,2-5c0.1,0.2,0.3,0.3,0.5,0.5c1.2,0.9,3.7-0.8,3.9,1.8
			C213.3,100.2,213.3,102.2,211,102z"/>
		<path class="st21" d="M206.7,101.8c0.4,1.4,3.4,0.6,2.4,3.3c-0.9,2.5-2.6,1.8-4.3,1.7C204.9,105,205.5,103.3,206.7,101.8z"/>
		<path class="st22" d="M204.8,106.8c0.4,1.3,3.3,0.7,2.3,3.4c-0.8,2.3-2.4,1.6-3.9,1.8C203.3,110.2,203.5,108.3,204.8,106.8z"/>
		<path class="st23" d="M198.8,135.1c0.4-0.1,0.9-0.1,1.3-0.2c1.4-0.9,2.3-0.3,2.9,1c0,0.7-0.1,1.4-0.1,2.1
			C200.9,138,198.9,137.8,198.8,135.1z"/>
		<path class="st24" d="M20.1,31.1c5.3-0.1,10.6-0.3,15.9-0.3c36.1,0,72.2,0,108.3,0c8,0,8,0,10.8-7.7c0.5-1.4,1.2-2.7,1.8-4
			c2.2-1.7,4.7-1.6,7.2-0.9c0.6,0.3,1.1,0.7,1.4,1.2c1.2,9.6,1.4,19.2,0.2,28.9c-0.6,1.4-1.9,1.9-3.2,1.9
			c-5.6-0.1-11.3,0.8-16.8-0.9c-2.9-1-5.7-1.3-8.7-0.1c-3.3,1.4-5.8,0-7.2-3.2c-1-9.4-1-9.4-10.6-9.4c-11.6,0.1-23.2-0.1-34.7,0.1
			c-3,2.6-0.5,6.1-1.4,9c0,1.1-0.2,2.1-0.6,3c-0.3,0.5-0.7,0.8-1.2,1C79.8,50,78.7,49.5,78,48c-0.8-2.4-0.4-4.8-0.1-7
			c-3.3,7.2-10.3,8.2-17,9.3c-5.1,0.9-10.2-0.7-15.3-1.1c-7.4-0.7-14.8,0.9-22.2-0.9c-3.2-0.8-4.7-1.9-4.8-5.1c0-3.3-0.2-6.6,0.1-10
			C19.1,32.4,19.5,31.7,20.1,31.1z"/>
		<path class="st3" d="M392.2,31.9c-1.6,0.9-1.3,2.8-2.2,4.1c-1.5,1.7-3.7,1.3-5.6,1.7c-0.5,0-1,0-1.4-0.2c-0.9-0.6-1.1-1.5-1.1-1.4
			c0.1,0.4,0.3,1.9-0.8,3.1c-1.5,0.3-2-0.8-2.6-1.7c-0.5-1.1-0.8-2.4-2.4-2.4c-0.6,0-1.2-0.1-1.8-0.1c-0.8,0-1.5,0.3-2.1,0.9
			c-1.3,0.9-0.9,3.5-3.2,3.4c-1.3-0.8-0.4-3-2.2-3.5c-0.6,0-1.1,0-1.7,0c-1.7,0.5-0.5,3.4-2.8,3.4c-1.5-1.5-0.5-3.2-0.8-4.5
			c-0.7,1.1,0.7,3.1-0.7,4.4c-2.7,0-1.2-3.3-3.1-4c-0.6-0.1-1.1-0.1-1.6,0c-1.4,0.9-0.7,2.9-1.9,3.9c-3,0-1.6-3.3-3.3-4.2
			c-0.8-0.4-1.5-0.3-2.3,0.1c-0.1,0.1-0.3,0.1-0.4,0.2c-1.6,1.1-0.7,4.4-3.5,4.1c-2.3-0.2-1.3-3.2-2.7-4.3c-0.8-0.2-1.4,0.2-2,0.7
			c-0.3,0.4-0.6,0.8-0.7,1.2c-0.7,1.6-1.1,3.7-3.4,3.3c-2-0.3-1.8-2.4-2.1-3.9c-0.1-0.5-0.2-0.9-0.7-1.2c-1.5,0.9-0.4,3.4-2.4,4
			c-1.9-1.2-1-2.6-0.9-3.8c-1.1,0.7,0.7,3-1.2,3.8c-2.4-0.6-1.1-3.6-2.8-4.6c-0.6-0.2-1.2-0.1-1.8,0c-1.3,1-2.5,2.3-4.5,1.9
			c-12.3-0.1-24.6,0-36.9-0.1c-2.1,0-4.3,0.3-6.3-0.9c-1.3-1.2-1.3-2.6-0.7-4.2c3.2-2.9,7.2-1.6,10.9-1.6c4.1,0,7.2-0.4,8.4-5.3
			c0.7-3,2.9-5.6,6.6-5.9c2.8,2.3,3.6,6.2,6.8,8.2c2,2.2,4.6,3.1,7.6,3c3.8-0.1,7.6,0.2,11.4-0.1c3.2-0.2,4.2-2,2-4.1
			c-5.2-5.2-9.8-11.2-18.7-10.2c-5.5,0.6-11.2,0.6-16.8-0.3c-4.6-0.7-9.2-0.7-13.8-0.7c-14.2,0.1-28.5,0.5-42.7-0.4
			c-2-0.1-3.9,0.6-5.9,0.5c-2.4-0.1-4.7-0.5-6-2.8c-1.4-2.4-0.7-4,1.2-4c-2.4,0.5-5.8,1.4-9.4,0.7c-1.3-0.3-3.6-0.1-2.4-2.8
			c2.3-1.3,4.8-1,7.3-1c31.1,0,62.1,0,93.2,0c1.7,0,3.3,0,4.9,0.6c7.7,7.8,15.4,15.5,23,23.4c1.8,1.9,3.7,2.5,6.2,2.4
			c12.6-0.1,25.3-0.1,37.9,0C388.8,30.9,390.8,30.2,392.2,31.9z"/>
		<path class="st25" d="M85,78.1c2.6,1.1,4.8,2.3,1.5,5.2c-3.6,3.3-0.1,7.1-0.5,10.7c-1.3-0.8-1.4-2.9-3.4-2.8
			c-0.7,2.2,0.2,5-2.6,6.4c-1,0.5-2.1,1.4-2.9,0.2c-1.8-2.6-4-1-6.1-0.8c-2.8-2.9-6.3-2.3-9.7-2.1s-3.5,0.1-3.9-2.7
			c1.4-1.3,3.2-1.7,5-1.9C50.2,90,38,91.2,25.8,89.8c-2.4-3.5,0.9-4.3,2.8-5.2c4.5-2.1,9.3-3.2,14.4-3.3c-2.6-0.5-5.2,0.1-7.9-0.1
			c-2.4-0.2-4.7-0.8-4.7-3.9c0.2-0.7,0.6-1.3,1.4-1.4c1,0.1,1.9,0.6,2.9,0.7c2.4,0.2,3.1-0.7,1.9-2.9c-0.7-1.1-1.2-2.3-1.1-3.7
			c0.3-3.9,2-5.3,5.8-4.3c2.4,0.6,4.5,1.9,7,2.2c1.1,0.4,2.4,0.9,2.1,2.2c-0.7,2.7-3.5,1.5-5.3,2.5c1.6,0.1,3-0.2,4.5-0.3
			c0.7,0.1,1.3,0.3,1.7,1c0.2,0.7-0.1,1.3-0.3,1.9c1,3,3.3,2,5.4,1.8c8.4-1.5,16.7-0.4,25.1-0.4C82.8,76.7,84.1,76.9,85,78.1z"/>
		<path class="st26" d="M320,5c-1.6,1.8-3.7,1.1-5.6,1.1C280.9,6.2,247.5,6.2,214,6.2c-2.9,2.3-6.4,1.2-9.6,1.5
			c-3.6-0.2-7.2-0.2-10.9,0.4c-6.6,1.1-13.2,0-19.8-0.5c-3.7-0.3-5.5,1.2-5.4,5.1c0.1,2.3,0.2,4.7-1.8,6.4c-0.5,0.3-1.1,0.4-1.6,0
			c-0.3,0-0.6-0.1-0.9-0.1c-1-1.1-2.2-1.9-3.7-2.3c-1.6-0.3-2.2-1.3-1.4-2.9c-0.1-1.4,0.1-2.8,1.3-3.8c4.6,1.3,3-3.5,4.8-4.9
			c0.9-2.5,2.7-3.1,5.3-3.1c48.5,0.1,97,0.1,145.5,0C317.8,2.2,320,2,320,5z"/>
		<path class="st27" d="M2.9,70.8c0.2-10.9,0.8-21.7,2.3-32.4c0.4-3.3,2.4-5.7,5.9-6.3c1.6,1.6,1.6,3.6,1.6,5.6
			c0.1,24.1,0.1,48.1,0,72.2c0,2-0.1,4-1.5,5.7c-4.1,1.8-5.4-1.4-6.4-4c-1.9-5.4-3.7-11-2.4-16.9c0.7-3.2-0.6-6.3-0.2-9.4
			c0.7-2.2,4.1-4,1-6.8C2.8,75.9,2.2,73.4,2.9,70.8z"/>
		<path class="st28" d="M10.1,115.9c1.1-1.8,1-3.8,1-5.8c0-26,0-52.1,0-78.1c1.2-1,2.6-1.1,4-1c1.9,2.1,1.5,4.7,1.5,7.1
			c0.2,23.7-0.9,47.3-0.5,67.4c0-7.1,0-17.7,0-28.3c0-1.8-0.4-3.7,0.9-5.3c2.8,0.2,2.4,2.5,2.4,4.1c0.2,12.8,0.1,25.6,0,38.3
			c0,2.1-0.8,3.9-2.3,5.3c-2.1-0.1-4.3,1.1-6.1-0.7C10.3,118.2,9.8,117.1,10.1,115.9z"/>
		<path class="st29" d="M17.1,119.8c2-15.5,0.6-31,0.8-46.6c0-0.4-0.5-0.8-0.7-1.2c-1.3-1.1-1-2.5-0.9-3.9c1.2-3-0.6-6.6,2.1-9.2
			c1.3-0.3,2,0.7,2.7,1.5c0.3,0.4,0.5,0.9,0.5,1.5c-0.1,1.5-0.7,2.9-0.9,4.4c-0.9,7.8-0.4,8.5,7.4,9.5c1.2,0.2,2.3,0.4,3.1,1.3
			c0.3,3.1,2.5,3.1,4.8,3c1.8-0.1,3.7-0.7,5.4-0.2c1.8,0.5,3.6-0.9,5.5,0.5c-1.7,2.7-4.4,2.4-6.9,2.7c-5.4,0.6-10.9,1.2-14.7,5.8
			c-1.1,1.3-2.6,1.3-4.1,0.9c-1.2-0.5-1.5-1.6-1.4-2.6c1.7,10.4,0.6,21.1,0.4,31.7C19.1,119.2,18.4,120.5,17.1,119.8z"/>
		<path class="st30" d="M17.2,68c0,1.3,0,2.7,0,4c0,14.4,0,28.8,0,43.1c-0.7,0-1.4,0-2.1,0c0-28,0-56,0-84.1c1,0,2,0,3,0
			c2.1,5.8,0.4,11.8,1.1,17.7C18,55.2,17.9,61.6,17.2,68z"/>
		<path class="st31" d="M20.1,118.8c-2-11.9-0.4-23.8-1-36.2c2,2.3-0.1,5.2,2.3,6.6c2.2,3.9,0.8,8.1,1.2,12.2c0,1.6,0.1,3.3-0.3,4.9
			c0.1,0.4,0,1,0.6,0.9c0.7-0.2,0.6-0.9,0.6-1.5c-0.2-1.2-0.3-2.3,0.3-3.4c4-2.6,8.6-3.6,13.3-4c3.6,0.9,6.7-1.2,10-1.8
			c2.4-0.4,4.8-1.3,7.1,0.4c0.3,1.9-1.2,2.1-2.4,2.5c-4.6,1.5-9.1,3.2-13.9,3.9c-3.2,0.2-6.6-0.6-9.4,1.5c0.1,2.6,3.9,1.5,3.7,4.1
			c-0.3,0.1-0.6,0.3-0.9,0.4C25.9,110.6,20.3,111.6,20.1,118.8z"/>
		<path class="st32" d="M10.1,115.9c1.2,0.8,0.9,2.1,0.9,3.2c-7.1-2.4-8.8-8.7-9.2-14.7C1,94.2,1.1,83.8,2,73.5c0.1-1,0.7-1.9,1-2.8
			c0.4,2.7,0.8,5.5,1.2,8.2c0.8,1.8-0.1,3.3-0.8,4.9c0.7,6-0.8,12.2,0,18.1C4.1,107,4.5,112.9,10.1,115.9z"/>
		<path class="st33" d="M32.1,108.9c-1.9-1.5-6.3-0.9-5.5-4.3c0.7-2.9,4.6-2.2,7.2-2.5c1.1-0.1,2.3,0,3.5,0
			c-0.4,2.6-2.7,2.4-4.4,2.9c-0.4,0.1-0.8,0-1.1,0.1c6.2,0,11.6-2.8,17.3-4.5c0.4-0.2,0.9-0.3,1.3-0.4c3.3-1.4,7.9-0.2,9.6-4.8
			c1.6-1.2,3.4-1.6,4.9-0.4c2,1.5-0.6,2.8-0.5,4.2C53.5,102.4,42.8,105.6,32.1,108.9z"/>
		<path class="st34" d="M64.2,99.1c-0.4-0.2-1.2-0.5-1.2-0.6c0.3-1.1,2.6-1.6,1.3-2.9c-1.2-1.2-3-0.9-4.4,0.3
			c-0.7,1.2-1.9,1.5-3,1.9c-1,0.2-2,0.1-2.7-0.7c-4.2-0.5-8.1,0.9-12.1,2.1c-1.7,0.5-3.4,1.7-5,0c6-4.1,12.6-6.6,20-6
			c3.1,2.1,6.4,0.4,9.4,0c3.8-0.5,4.5,1,4.6,3.9C69,98.4,66.6,98.5,64.2,99.1z"/>
		<path class="st35" d="M95,122c1.2-0.2,2.5-0.4,2.9,1.1c1.5,5.5,4.7,10,8.1,14.5c1.1,1.4,0.5,2.4-0.1,3.6
			c-3.6-5.3-7.9-10.3-9.1-16.9C96.6,123,94.4,123.7,95,122z"/>
		<path class="st36" d="M165,5.2c0,1,0,1.9,0,2.9c0,1.7-0.1,3.6-1.6,4.3c-1.7,0.8-1.8-2-3.2-2.3C160.8,7.5,161.5,4.9,165,5.2z"/>
		<path class="st37" d="M18,49c0-6,0.1-11.9,0.1-17.9c0.7,0,1.3,0,2,0c0,0.6,0,1.2,0,1.8c-0.7,5.1-0.9,10.2,0.2,15.3
			c0.5,2.6,0.8,5.3-0.9,7.7C15.7,54.2,18.2,51.3,18,49z"/>
		<path class="st36" d="M158.9,13.9c0.3,0.9,0.3,2.2,1.8,1.8c3.2-0.9,3.2,1.3,3.3,3.3c-2.4,0-4.7,0-7.1,0.1
			C157.2,17.2,157.8,15.4,158.9,13.9z"/>
		<path class="st3" d="M396.9,32c0.7,1.5,1.7,2.9-0.1,4.3c-0.8,0.7-1.9,0.9-2.7,0.4c-2.1-1.1-0.9-3.2-1.2-4.8
			C394.3,31.6,395.6,31.6,396.9,32z"/>
		<path class="st10" d="M489.5,62c-10.7,0-21.5,0-32.2,0c-1.5,0-2.8-0.2-4.4-1.2c-3.2-1.9-2.5-4.2-2-6.7c0-2,0-3.9,0-5.9
			c1.4-2.7,3.5-3.7,6.5-3.3c2.8,0.4,5.6,0.2,8.4,0.2c1.2,1.3,1.6,3,1.4,4.6c-0.5,4.7,1.7,5.4,5.9,5.1c5.6-0.4,11.3-0.1,16.5,2.3
			C489.7,58.7,489.6,60.3,489.5,62z"/>
		<path class="st38" d="M489.7,57.1c-7.2,0.6-14.3-2.6-21.5-0.2c-1.9,0.6-2.3-1.2-2.3-2.9c0-3,0-5.9,0-8.9c8-0.4,16-0.4,24,0
			C489.8,49.1,489.8,53.1,489.7,57.1z"/>
		<path class="st39" d="M161,146c1.1-2.4,2.6-1.4,3.9-0.4c2,1.5,4.3,2.8,5.6,4.7c1.3,2,2.9,1.5,4.6,1.7c0.3,3.2-2.2,4-4.4,5.3
			C171,150.5,163.6,150.3,161,146z"/>
		<path class="st40" d="M422.6,14.2c-3.3-0.5-5.5,1-7.6,3.5c-3.6,4.6-7.4,8.9-11.2,13.3c-0.9,0.3-1.1,2.1-2.3,1.4
			c-1-0.6-0.6-1.8,0.1-2.6c5.1-6.1,9.7-12.7,15.6-17.9c2.9-2.6,8.4-1.6,12.4-0.2c3.3,1.2,2.1,4.8,2.2,7.5c0.1,5.6,0.1,11.3,0,16.9
			c0,1.4,0.7,3-0.7,4.2c-0.2,0.2-1,0-1.3-0.2c-1.6-1.4,0.3-2.8,0.1-4.1c-1.1-3.6-0.1-7.2-0.5-10.8C428.8,20.6,426.2,17.1,422.6,14.2
			z"/>
		<path class="st41" d="M422.6,14.2c8.7,1.6,7.1,8.5,7.4,14.4c0.1,2.5-0.1,5-0.1,7.4c-0.4,0-0.9-0.1-1.3-0.1
			c0.9-3.2,0.3-6.5,0.5-9.7c0-0.9,0.1-2.4-1.2-2.2c-6.2,0.8-4.7-3.5-4.8-6.9C423,16.2,422.8,15.2,422.6,14.2z"/>
		<path class="st42" d="M404.2,35.9c0.3-0.1,0.5-0.1,0.7,0.2c-0.3,2.5,2.5,2.6,4,4.4c-2.8,0.6-5.2,1.3-7.3-0.6
			c-0.8-0.7-0.7-1.8-0.5-2.8C401.5,35.1,403,35.7,404.2,35.9z"/>
		<path class="st43" d="M408,47.7c5.6,0.6,11.2,0.4,16.8,0.1c-0.1,0.5-0.2,1.3-0.4,1.3c-5.2-0.1-10.4-0.2-15.5-0.4
			C408.6,48.7,408.3,48,408,47.7z"/>
		<path class="st18" d="M144.7,114.3c-0.9,2.3-3.3,3.2-5.5,4.3c-0.7,0.4-5.3-6.4-5-7.4c0.9-2.9,3.6-3.7,6.1-4.5
			C141.2,106.3,144.8,112.5,144.7,114.3z"/>
		<path class="st44" d="M85,78.1c-8.2,0.4-16.4-0.9-24.6-0.1c-1.8,0.2-3.6,0-5.3,1c-1.2-0.8-2.5-1.4-4-1.6c-1.4-0.1-1.9-1.1-1-2.4
			c0.3-0.3,0.6-0.7,1-1c3.9-1.2,7.7,0.3,11.7-0.2c3.2-0.4,6.2-0.5,8.9-2.4c2.2-1.6,4.2-1.6,6.6,0.5c3.1,2.7,7.1,1.9,10.8,1.2
			c2.3-0.3,4.5-1.1,6.9-0.7c1.7,1.1,4.3,1.6,3.1,4.6c-0.3,0.3-0.7,0.7-1,1C93.7,76,89.4,77.7,85,78.1z"/>
		<path class="st45" d="M203,136c-1-0.3-1.9-0.7-2.9-1c0.9-1.2,0.4-3,1.9-3.9c6.2-0.7,11.7,2.1,17.5,3.4c0.9,0.2,3.4,0.2,2.4,2.6
			C215.6,137.2,209.4,135.4,203,136z"/>
		<path class="st46" d="M211,102c2.5-2.7,0.9-3.9-1.7-4.7c3.9,1.1,4.6-2.7,6.6-4.4c3.8,4.6,8.4,3.7,13.2,2.1
			c-3.6,4.4-10.7,0.7-14.6,5.8c4.8,0.1,9.1,0.8,13.4-1.1c-0.3,3.1-2.5,2-3.9,2.3C219.7,102.4,215.3,104.4,211,102z"/>
		<path class="st47" d="M343.9,61c0.1,1.4,1,1.8,2.2,2.1c2.6,0.6,2,2.9,1.5,4.4c-0.7,2.4-2,0.4-3,0c-1.5-0.6-1.6,0.5-1.8,1.5
			c-1.1,0-2.3-0.2-3,1c-2.2,0.8-4.2,0.5-6-1c-0.7,0-1.3,0-2,0c-2.9-0.5-2-2.7-2-4.5c0.7-2.1,0.6-4.2,0.8-6.4
			c0.1-1.1,0.2-2.7,1.5-2.9c1.6-0.3,1.5,1.4,1.8,2.4c0.2,0.5,0.2,1,0.3,1.5c0.3,1.4,1,2.5,2.6,2.6c2,0.1,1.9-1.5,2.1-2.7
			c0.2-1.8,0.3-3.7,2.7-4.1c1.4,1.8,0.3,3.9,0.8,5.6c-0.2-2,0.2-4.2-0.4-6.3c-0.3-1.1-0.1-2.7,1.1-3c1.7-0.3,2.1,1.4,2.3,2.7
			C345.9,56.4,345.6,58.9,343.9,61z"/>
		<path class="st12" d="M331,64c0.2,1.7-0.7,3.6,1,5c-3.2,2.4-7.4,2.3-11,3.8c-3.3,1.3-6.5-0.1-8-3.8l0,0c0.4-1.2,0.8-2.5,2.6-2
			c4.8,1.1,8.2-0.1,8.9-5.6c0.1-0.6,0.9-0.9,1.5-1.2c1.3-0.4,2.5-0.4,3.8-0.1c0.5,0.2,1,0.5,1.3,0.9C331.5,62,331.7,63,331,64z"/>
		<path class="st12" d="M333.9,69c2.1,0,4.1-0.2,6,1c0.3,3.5-2.1,3.2-4.3,2.9C333,72.6,332.8,71.1,333.9,69z"/>
		<path class="st48" d="M292.9,54c-0.1,15.5,2.4,16-15.8,16c-5.7,1.9-11.5,2.3-17.4,1.4c-0.9-0.1-1.5-0.2-1.8-1.2
			c-0.4-1.3-2-0.3-2.8-1.1c-0.2,0.9,0.7,1.9-0.1,2.8c-19,0.9-38,2.3-56.9,3.9c-6.1,0.5-12.2,0.7-18.3,1.1c-0.8,0-1.6-0.1-2.5-0.1
			c0.7-7.5-4.2-0.6-5.8-2.2c-0.4-0.4-1-0.6-2.9-1.5c6.6,0.4,9.7-1.7,9.6-7.2c1.9,0.2,1.5,1.4,1.4,2.1c0.2-1,0.5-2.5-1.6-2.9
			c-2.1-1.8-4.2-4.2-7.4-2.7c-3.1,1.5-4.1,4.2-3.5,7.5c-1.7,0.2-1.3-1.8-2.5-1.9c-0.1,0.2-0.4,0.4-0.4,0.7c-0.6,3.1,3.1,7.2,0.7,8.6
			c-2.7,1.6-7,0.5-10.7,0.6c-3.8-8-1.8-15.1,5.8-19.3c2.9-1.6,5.4-3.3,5.7-7c0.8-3.9,3.9-4.1,6.9-4.2c8-0.1,15.9,0.1,23.9,0.1
			c19.1,0.1,38.2,0,57.3,0c6.6,0,13.2,0,19.8,0c1.2,0,2.5,0,3.7,0c2.7,0,5.3,0,8,0C292,47.7,292,47.7,292.9,54z"/>
		<path class="st49" d="M141,78c-7.9,0-15.9,0-23.8,0c-2,0-4.1,0.3-5.2-2c-0.7-0.8-0.6-1.6,0.1-2.4c1.2-0.9,2.7-1,4.1-1
			c8.6,0.8,17.1,1.1,25.7,1c1.3,0,2.6,0,4-0.1c2.1-0.2,3.4-1.1,3.4-3.4c0-2.5-1.7-2.9-3.7-2.8c-7.1,0.3-14.2,0.2-21.3,0.2
			c-13.9,0.2-27.8,0.2-41.8,0c-6.4,0.1-12.9,0-19.3,0c-3.1,0-6-0.5-7.5-3.7c-1.1-3.2-5.7-3.8-5.9-7.7c0.4-0.5,0.9-0.8,1.4-1.1
			c6.7-1.6,13.4-1.5,20.3-0.6c6.4,0.9,12.9,0.2,19.4,0.2c19.5,0,38.9,0,58.4,0c1.7,0,3.3,0,5,0.1c1.8,0.1,3.8,0.2,4.6,2.3
			c0.8,2-1,3-2.3,3.9c-2.5,1.9-3.6,4.2-3.2,7.3c0.1,0.3,0,0.7,0,1c0,9.4-1.1,10.3-10.5,8.8C142.4,78,141.7,78,141,78z"/>
		<path class="st13" d="M143,78c9.8,0,10.2-0.2,9.9-10.1c-0.1-3.8,1.2-6.3,4-8.3c0.8-0.5,1.8-1.3,1.3-2.4c-0.4-1-1.6-1.1-2.6-1.1
			c-1.2,0-2.3,0-3.5,0c-25,0-49.9,0.1-74.9-0.1c-9.1-0.1-18.1-1.8-27.2,0c-3,0.7-6,0.3-8.9,0.3c-2.5,0-5,0.4-7.2,1.6
			c-4,2.3-8.4,2.8-12.9,3h-0.5H20c-1.6-4.6,1.8-4.6,4.7-5.5c16.7-5.5,33.9-2.6,50.9-2.9c27.1-0.4,54.3-0.1,81.4-0.1
			c2.5,0,5-0.2,7.3-1.4c1.9-0.4,2.3,0.3,1.6,2c0.5,1.9,0.7,3.6-1.7,4.4c-10.6,3.3-11.4,11.4-10.2,20.5C150.4,79.7,146.7,79.5,143,78
			z"/>
		<path class="st50" d="M254.9,72c-0.6-1.4-1.2-2.7-1.6-4.1c-0.1-0.4,0.6-1.1,1.1-1.4c0.5-0.3,0.9,0.1,0.9,0.7
			c-0.2,2.9,5.3-0.3,4,3.8c2.8,0,5.7,0.4,8.4-0.2c3.1-0.7,6.2-0.7,9.3-0.7c0,0.6,0,1.3,0,1.9c-5,0.4-10,1.3-15,1
			C259.8,71.1,257.3,72.4,254.9,72z"/>
		<path class="st51" d="M177.9,65.1c0.3-0.7,0.5-2,1.4-0.8c1.6,2.1,1.3,4.5,0.1,7.1c-0.8-2,0.1-4-1.2-5.5
			C178.2,65.6,178.1,65.3,177.9,65.1z"/>
		<path class="st9" d="M331,64c0-1,0-2,0-3c-0.9-1.1-0.9-2.4-0.9-3.6c-0.3,1.1,0.4,2.3-0.1,3.5c-1.3,0-2.6,0-3.9,0
			c-1.6-1.4-0.5-3-0.4-4.5c0.4-0.7-0.9-0.3-0.3-0.2c0.3,0.1,0.2,0.2,0.1,0.5c-0.6,1.6-2.5,2.1-2.8,4.1c-0.5,2.6-3.1,3.3-5.6,3
			c-2.9-0.3-3.2-2.5-3.3-4.7c0-0.8,0.3-1.6-0.3-2.4c-1.7,0.9-1,3.2-2.5,4.1c-1,0-2,0-3,0c-1.8-2.1-1.4-4.2-0.3-6.5
			c-1,1.4-2.2,2.7-2.5,4.5c-0.2,1.2-0.2,2.9-2,2.9c-1.6,0-3.2-1.3-3.2-2.7c0-5.9-4.2-9.4-7.1-13.7c-0.2-0.7-0.2-1.3-0.2-2
			c-0.3-7.8,0-8.1,7.6-8.1c5.3,0,10.6-0.1,15.8,0c1.5,0,3.4-0.7,4.4,1.2c0.2,0.8,0.1,1.6-0.5,2.3c-2.4,1.4-5.1-0.6-7.8,0.7
			c2.6,2.1,5.7-0.6,8.1,1.2c1.7,2.6,4.1,3.6,7.2,3.5c15.8-0.1,31.6,0,47.4-0.1c6.4,0,7.7-1.3,9.1-7.4c1.8-1.9,4.1-0.6,6.1-1.1
			c0.3,0,0.6,0,0.9,0.1c0.8,9.3,0.8,18.7,0,28c0,0.3,0,0.6-0.1,1c-3.6-0.8-3-4.7-5-6.7c-3.4,5-4.7,4.6-8.5-3.1
			c0.8,3.2,1.7,5.8-1.8,6.5c-3,0.6-5.7,0.3-6.6-3.3c-0.2-0.8-0.4-1.6-1-2.2c-0.5-0.5-0.9-0.6-0.5-0.1c-0.3,0.2-0.4,0.5-0.4,0.9
			c-0.3,3.1-0.2,6.7-4.9,3.2c-0.5-0.3-0.5,2.1-2.1,1.8c-1.4-1.1-0.2-2.8-0.7-3.8c-0.1,0.6,0,1.5,0,2.4c-0.1,1.8,1.4,4.1-1.6,5
			c-2.3,0.6-6.5-2-7-4.4c-0.4-1.7-0.3-3.5-0.4-5.1c-0.5,1,1,3.1-1.6,3.2c-1.2,1.7-2.9,2.2-5,1.9c0.1-2.4,0.3-4.9,0.3-7.3
			c0-0.6-0.4-1.1-1.2-1.6c0,3.9,0,7.7,0,11.6c-0.3,0-0.7,0-1,0c0-2.6,0-5.3,0-8.8c-3.3,2.7,1.1,8.5-5,8.5c-5.8,0-3.4-4.8-4.5-7.7
			C331,58.5,333.2,61.7,331,64z"/>
		<path class="st3" d="M390.9,64c0-9.3,0-18.7,0-28c2,3,0.8,6.4,0.9,9.6c0.2,6.1,0,12.2,0,18.3C391.5,64,391.2,64,390.9,64z"/>
		<path class="st52" d="M365.9,56.1c1.6-1.8,3.6-2.6,3.9,0.6c0.3,3.6,1.5,4.4,5,4c4.5-0.5,1.8-3.3,2.2-5.1c0.1-0.5,0.2-0.9,0.5-1.5
			c0.2,2.8,3.8,3.2,3.9,6c0,0.6,0.9,0.9,1.6,0.6c1-0.4,0.9-1.3,1-2.1c0.3-1.1-0.7-3.1,1.4-3c1.3,0,2.3,1.4,2.5,2.8
			c0.3,2.5,1.9,4.5,3.1,6.6c-0.3,1.1,0.6,3.5-1,3.1c-1.3-0.4-3.4,1.5-4.4-1.3c-0.6-1.7,0.3-4.8-3.1-4.8c-3.9,0-1.7,3.7-3.2,5.2
			c-0.2,0.2-0.4,0.5-0.9,1.2c-0.3-1.6-0.5-2.9-0.8-4.1c-0.4,5.6-3.5,5.9-7.7,3.8c0.1-2.7-3.2-2.1-3.8-4.1c-0.2-0.7-0.3-1.4-0.1-2.2
			C366.5,59.9,366.9,57.9,365.9,56.1z"/>
		<path class="st47" d="M365.9,56.1c1.8,1.8,0.7,4,0.9,6.1c-1.4,0.6-1.2,1.2,0,1.8c2.2,0.4,4.3,1,3,4.1c-5.2,1.8-10.5-1.8-15.9,0.4
			c-1.6,0.6-6.2-0.7-5.1-5.4c0.3-1.2,0-2.6,0-4c1.9-1.4,0.2-3.9,1.7-5.5c1.7,3.4-0.6,8.4,4.8,10.3c3.4,1.2,3.5,0.1,3.6-2.7
			c0.1-2.1-1.1-4.2,0.6-7.3c0.2,3.1,0.4,5,0.5,7.3c1.7-1.6-0.2-4.1,2-5.3c2,1-0.6,5,2.4,4.8C367,60.4,365.5,57.6,365.9,56.1z"/>
		<path class="st52" d="M382.5,64.5c1.1,0,1.4,0.7,1.3,1.6c0,0.9,0.3,2.2-0.9,2.4s-1.7-0.7-1.9-1.8
			C380.9,65.6,381.5,64.9,382.5,64.5z"/>
		<path class="st36" d="M320,38.1c-0.3-2.5-2.2-2-3.8-2c-5.8,0-11.6,0.3-17.4-0.1c-4.1-0.3-5.3,1.3-4.9,5.1c0.2,2,0.1,4,0.1,6
			c0.6,0.7,0.5,1.4,0,2h-0.5H293c-4.6-1.2-9.2-0.1-13.8-0.7c-0.5-0.5-0.5-1-0.2-1.5c3.5-2.3,7.6-0.3,11.2-1.7
			c2.6-4.5,1.4-7.3-3.5-7.6c-3.1-0.2-6.2-0.1-9.3,0c-11.9,0-23.8,0-35.7,0c-6.3,0-12.5,1.2-18.8,0.1c-1.1-0.2-2.5-0.3-3.4,0.3
			c-3.9,2.3-7.6,1-11.3-0.3c-9.5,0-19-0.1-28.4-0.1c-1.3,0-2.6,0.2-3.9,0.6c-1.8,0.6-3.2,3.3-5.7,1.1c-2.6-2.2-5.5-4-4.7-8.3
			c0.7-3.9-0.5-7.9,0.6-11.8c1.6-2.8,1.1-5.8,0.9-8.7c-0.1-3.2,0.9-4.3,4.2-4.4c6.7-0.2,13.4,1.9,20.1,0.8c4.2-0.7,8.5-0.9,12.7-0.7
			c0.2,1.6-1.2,1.8-2.2,2c-1.5,0.4-2.6,0.8-1.5,2.6c1.8,3.1-0.6,3.2-2.5,3.5c-2.9,0.5-5.9-0.5-8.6,1c-2.5,1.3-4,3.3-4.5,6.1
			c-1,5.6,0.9,7.9,6.6,8.3c3.8,0.3,7.9-1.4,11.3,1.7c1.5,2.9,4.3,2,6.6,2c19.7,0.1,39.4,0,59.2,0.1c2.6,0,5.4-0.4,7.6,1.5
			c13.3,0,26.6,0,39.9,0.1c1.7,0,3.7-0.7,5.2,1c1.3,0.6,1.9,1.5,1.3,2.9C321.1,39.7,320.5,39,320,38.1z"/>
		<path class="st53" d="M294,49c0-0.7,0-1.3,0-2c4.4,1.8,6.7,5.4,6.7,9.8c0,2.5,0.9,3.5,3.1,4.8c0-3.5,0.1-6.7,4.2-7.5
			c0,2.3,0,4.6,0,6.9c-2.2,1.6,0.5,5.5-3.8,6.7c-4.9,1.5-8.4-0.1-9.3-5.2C294,58.1,295.7,53.4,294,49z"/>
		<path class="st47" d="M310.9,61c0-1,0.1-2,0-3c-0.3-2.3,1-2.8,2.9-2.8c2.5,0,1,1.9,1.1,2.7c0.3,4.8,1.9,6.2,5.2,4.4
			c0.9-0.5,1.3-1.4,1.9-2.1c0.9-1.1-2.6-6,2.8-3.4c0.3,0.1-0.5-2.2,1.2-2.9c0,2.4,0,4.7,0,7c-0.3,0.4-0.8,0.8-0.9,1.2
			c-1,5.6-3.9,7.4-9.7,5.7c-1.4-0.4-1.6,0.9-2.4,1.1c-0.4-0.5-0.7-1.2-1.2-1.4c-2.4-1-6.8-1.4-0.6-3.8C312.4,63.2,312,61.9,310.9,61
			z"/>
		<path class="st54" d="M279,48c4.7,0.5,9.5-1.1,14,1c0,1.7-0.1,3.3-0.1,5c-0.5-4.6-3.3-5.6-7.5-5.1c-2.8,0.3-5.6,0-8.4,0
			C277,47.4,277.8,47.4,279,48z"/>
		<path class="st2" d="M112.1,74c0,0.7,0,1.3,0,2c-4.2,2.3-8.6,1.1-13,1c0.1-2.2-2.6-2.2-3-4C101.4,72.8,106.8,71.8,112.1,74z"/>
		<path class="st55" d="M165.1,51.1c0.1,4-2.8,2.9-4.9,2.9c-30,0-59.9,0-89.9,0c-11.2,0-22.3,0-33.5,0c-2,0-3.8-0.1-5.3,1.9
			c-1.8,2.2-4.7,1.1-7.1,1.1c-3,0-4.4,1.1-4.3,4.1c-0.9-0.4-1-1.1-1.1-1.9c-0.8-1.1-0.8-2.1,0-3.2c0.7-7.6-0.8-15.4,1-23
			c0,1.8,0.1,3.7,0.1,5.5c0,7.6,0.3,6.8,7.1,8.8c6.4,2,12.5-0.9,18.8,0.4c2.6,0.5,5.4,1.2,8.2,1.5c6.5,0.8,12.6-0.9,18.2-3.5
			c3.2-1.4,5.5-5.2,6.6-9c0,3.8,0,7.6,0,11.4c-0.4,0.6-0.5,1.2,0.1,1.6c1.1,0.6,2.1,0.3,2.9-0.6l0.2-0.4c0.9-3.1,3.2-2.8,5.6-2.5
			c4.8,0.6,9.5,0.6,14.3-0.4c6.5-0.1,12.9,1.2,19.4,0.8c2.7-0.2,5.3-0.2,7.9-1c0.6-0.1,1.2,0,1.7,0.3c1.7,2.5,3.6,3.6,6.5,1.5
			c1.2-0.8,2.9-1.6,4.7-0.9c7.3,3.3,15.1,2,22.8,2.4C165.6,49.7,165.7,50.4,165.1,51.1z"/>
		<path class="st56" d="M165.1,51.1c0-0.7-0.1-1.4-0.1-2.1c0-10,0-19.9,0-29.9c0.3,0,0.7,0,1,0c0,3.6,0,7.3,0,10.9
			c0,3-1,6.5,4.3,6.2c2.9-0.2-0.7,2.5,1.2,3.3c5.1-6.3,12.3-2.8,18.7-3.4c5.9-0.5,11.9-0.1,17.8-0.1c0,3-1.8,5.3-3.2,7.7
			c-1.3,2.2-3.1,3.8-5.2,0.4c-1.5-2.4-2.3-0.2-3.7,1c3.5,1,6.6,0.6,9.7,0.5c19-0.2,38-0.2,57-0.1c1.5,0,3,0.1,4.3,1.1
			c0.4,0.5,0.4,1,0,1.5c-4.3,0.8-8.7-0.5-12.9,0.7c-27.1,0-54.3,0.1-81.4-0.1c-3.4,0-5.6,0.8-6.5,4.1
			C166,52.3,165.9,51.5,165.1,51.1z"/>
		<path class="st57" d="M130.3,45.9c-1.1,2.2-3.1,2.1-5.1,2.1c-7.7,0-15.4,0.2-23.1-1c0.5-3.2,3.9-1.7,5.5-3.6
			c-4.6,1.6-9-0.1-13.5-0.1c-4.2,0-8.4-0.3-12,2.7c0.1-3.3,0.2-6.7,0.3-10c0-0.1,0.3-0.1,0.4-0.1c0.1,0,0.3,0.1,0.4,0.2
			c9.8,0.9,19.6,0.4,29.4,0.4c3.2,0,6.3,0,9.5,0C130.4,36.6,131,37.3,130.3,45.9z"/>
		<path class="st58" d="M130.3,45.9c-0.5-8-0.5-8-8.5-8c-11.6,0-23.2,0-34.8-0.1c-1.4,0-3.6,1-3.8-1.8c1.7-1.3,3.8-1.1,5.7-1
			c10.4,0,20.8,0,31.2,0c11.1,0,11.1,0,10.9,10.9C130.8,46,130.5,46,130.3,45.9z"/>
		<path class="st59" d="M82.1,46.1c1-3.3,3.1-4.1,6.5-4.1c7.6,0.1,15.2,1.2,23.6,0.1c-3.3,3.7-7.1,3.5-10.2,5
			c-4.9,1.6-10,1.2-15,0.5c-2-0.3-3.5-0.2-4.8,1.2C82.2,47.8,82.1,46.9,82.1,46.1z"/>
		<path class="st60" d="M82.1,49.1c-0.8,3.1-3,2.5-4.5,1.2c-1.1-1,0-2,1.5-2.2C79.8,49.2,81,48.9,82.1,49.1z"/>
		<path class="st61" d="M320,38.1c0.6,0.3,1.3,0.7,1.9,1c1.8-1.6,0-4.5,2.2-6c0.5,0,1.1,0,1.6,0c2.4,1.4-0.1,4.6,2.3,6
			c1.5-1,0.5-2.7,1.3-4.1c1.3,1.1-0.1,3.2,1.7,4c1.8-1.6,0-4.4,2.1-5.9c2.4,0.5,1.6,2.4,1.8,3.9c0.1,1.1-0.3,2.6,1.3,2.6
			c1.3,0,1.6-1.3,1.7-2.6c0.1-1.1-0.5-3,1.9-1.9c1.8,2.1,1.1-1.4,2.2-1c4.1-0.5,0,4.1,2.9,4.3c2.6-0.1-1-6,3.8-4.3
			c0.8,1.5,1.5,1.4,2.3,0c1-0.5,1.8-0.6,1.8,0.9c0,1.4-0.5,2.9,1,4c2-1.1,0.2-3.8,2.1-5c0.6,0,1.2,0,1.8,0c2,1.1,0.1,3.9,2.1,5
			c1.7-1.3,0.5-3.4,1.3-5.2c1.4,1.6-0.2,4,1.6,5.2c1.7-0.8,0.5-3.1,2.1-4c0.6,0,1.3,0,1.9-0.1c1.5,0.9,0.6,3,2,4
			c1.8-0.7,0.1-4,2.9-3.9c2.3,3.1,0.9-2,2.2-1c0.6,0,1.2,0,1.8-0.1c1.6,0.5,0.3,3.8,3.1,3c0.7,0.6,1.3,1.3,2,1.9
			c0.7-0.6,1-1.7,2.1-1.9c0.3,0,0.6,0,0.8,0c2,5.8-0.2,8.9-6.9,8.9c-15.2,0.1-30.5,0.1-45.7,0.1c-1.5,0-3-0.2-4.5,0
			c-4.3,0.8-6.8-1-7.8-5.1c-0.6-0.6-0.6-1.3,0-1.9C319.3,38.8,319.6,38.4,320,38.1z"/>
		<path class="st62" d="M202,31c24.7-0.4,49.3-0.4,74,0c0,1.3,0,2.6,0,4c-23.8,0-47.6,0-71.4,0C201.3,35.1,198.8,34.9,202,31z"/>
		<path class="st63" d="M293.9,13.9c-35,0-70,0-104.9,0.1c3.5-2,7.4-0.1,11.1-1.2c-1.1-1.5-3.1-2.8-2.5-4.5c0.7-2.2,3.2-0.6,4.8-1.2
			c0.6-0.2,1.1-0.6,1.7-0.9c3.3,0,6.7,0,10,0c4.8,2.2,9.8,0.2,14.8,1.2c-0.7,1.6-4.2-0.1-3.5,2.5c0.6,2.2,2.4,3.4,5,3.3
			c17.3-1,34.6,0.9,52-0.4C286,12.4,290.2,12.2,293.9,13.9z"/>
		<path class="st64" d="M301.9,18.9c5.5-1.4,5.7-1.2,5.2,4.2c-0.1,1.3-0.1,2.6-0.1,3.9C304.1,25.1,301.4,23,301.9,18.9z"/>
		<path class="st65" d="M379,37.1c-0.6,0.8-1.1,2.1-1.7,2.1c-1.2,0.1-1.3-1.2-1.3-2.2c-0.1-1,0-2,0-3C379.9,32,378.6,35.4,379,37.1z
			"/>
		<path class="st66" d="M374.1,34.1c0,0.5,0,1-0.1,1.4c-0.4,1.3,1,4-1.4,3.8c-3-0.3-0.4-2.8-0.8-4.3
			C372.1,33.8,372.4,32.4,374.1,34.1z"/>
		<path class="st67" d="M365,35.1c-1.1,1.1,2.1,4.5-2.1,4c0-1.4,0-2.9,0.1-4.3c0-0.7,0.4-1.4,1.1-1.1
			C364.5,33.8,364.7,34.6,365,35.1z"/>
		<path class="st68" d="M360,39.1c-4.1-0.2-1.1-3.4-2.1-5c0.9-1,1.8-1,2,0.5C360,36.1,359.9,37.6,360,39.1z"/>
		<path class="st69" d="M351.1,34.2c-0.4,1.7,0.4,3.8-1.2,5.7c-1.6-1.9-0.8-4-1.1-5.7C349.6,33,350.4,33,351.1,34.2z"/>
		<path class="st70" d="M342.1,34.1c0,0.5,0,1-0.1,1.5c-0.2,1.3,0.6,3.7-1.8,3.2c-2.5-0.5,0.3-2.4-0.3-3.7
			C340.2,33.9,340.3,32.3,342.1,34.1z"/>
		<path class="st71" d="M328,39.1c-1,0.8-1.8,0.6-2-0.7c-0.2-1.8-0.2-3.6-0.3-5.3C329.8,33.8,327.1,37.1,328,39.1z"/>
		<path class="st72" d="M324.1,33.1c-1,1.9,1.6,5.1-2.2,6c-0.3-1-0.6-2-1-3C322.2,35.3,321.8,32.7,324.1,33.1z"/>
		<path class="st73" d="M356,34.1c-0.9,1.6,1.8,4.7-2.1,5c0-1.6-0.1-3.2,0.2-4.7C354.3,33.1,355.2,33.1,356,34.1z"/>
		<path class="st74" d="M368.9,39c-2.9-0.2-1.8-2.5-2-4c0.3-0.5,0.5-1.3,0.9-1.4c0.7-0.2,1,0.5,1,1.2
			C368.9,36.2,368.9,37.6,368.9,39z"/>
		<path class="st75" d="M333.1,33.1c-1,1.9,1.6,5-2.1,5.9C331.7,37,329.2,33.9,333.1,33.1z"/>
		<path class="st76" d="M383.1,37.1c-0.2,1.2-0.7,2.1-2.1,1.9c0-1.7,0-3.4,0-5.3C382.7,34.6,382.8,35.9,383.1,37.1z"/>
		<path class="st77" d="M21.1,61c9.5-2.8,18.4-8.7,29-5c0,0.3,0,0.7,0,1c-1.6,1.6-3.6,1.2-5.6,1.4c-6.7,0.4-10.8,4.6-11.1,11.3
			c-0.1,2,0.2,4-0.8,5.8c-0.2,0.2-0.4,0.4-0.6,0.6c-0.3,0.3-0.7,0.7-1,1c-0.7,0-1.3,0.1-2,0c-3.2-0.6-8.3,1.9-9.4-1.4
			C18.3,71.1,17.7,65.6,21.1,61z"/>
		<path class="st78" d="M56.1,62c1.3,3.4,3.7,4.3,7.3,4.1c6.2-0.3,12.5-0.1,18.7-0.1c2.3,2.7,3.7,6.2,7,8c-4.5,1.1-9.1,2.8-12.5-2.3
			c-0.7-1.1-2.1-0.8-3.1-0.1c-7,5.4-14.7,3.9-22.4,2.4c-0.3-0.3-0.7-0.7-1-1c0.2-2.3,1.1-4.4,1.1-6.7C51.8,63.7,53.8,62.7,56.1,62z"
			/>
		<path class="st77" d="M48.1,69c-2.3,0.3-4.1-1.4-6.1-1.8c-1.5-0.3-3.5-2.2-4.4-0.2c-0.8,1.6-2.2,3.8-0.1,6c1.1,1.2,3.4,3,1.3,4.4
			c-1.8,1.2-5.1,2.4-6.6-1.3l0,0c0.8-1.5,0.6-3.1,0.6-4.7c-0.2-6.4,3.2-9.1,9.6-7.7C44.1,65.5,47.9,65.3,48.1,69z"/>
		<path class="st79" d="M48.1,69c-1.2-2.6-5.2-1.9-6-5c3.4-4.3,6.7-3.6,10,2.1c0.4,2.6-0.8,4.7-2,6.9c-0.9,0.3-1.8,1-2.8,1
			c-2,0-5.3,1-5.5-1.5c-0.2-2.7,3.1-0.8,4.7-1.4c1-0.4,2.8,0.7,2.8-1.5C49.3,69.4,48.5,69.2,48.1,69z"/>
		<path class="st78" d="M50.1,75c0.2,3.2,4.5,1.2,5,4c-1.8-0.4-3.6-0.6-5.3-1.3C47.7,76.8,48.7,75.8,50.1,75z"/>
		<path class="st28" d="M3.3,83.9c-0.4-1.7-0.4-3.4,0.8-4.9c1,0.7,2.7,0.8,2.7,2.3C6.9,83.6,4.4,82.9,3.3,83.9z"/>
		<path class="st13" d="M19,55.9c0,1.1,0,2.1,0,3.2c-2.3,2.6,0.5,6.3-1.8,8.9c0.3-6.4-1-12.8,0.8-19.1C18.6,51.2,17.2,53.8,19,55.9z
			"/>
		<path class="st80" d="M54.2,97.1c0.9-0.1,1.9-0.1,2.8-0.2c0.6-0.3,1.3-0.6,1.8,0c0.8,1-0.1,1.3-0.8,1.6c-2.6,1-5.2,1.7-7.9,2.5
			l0,0c-6.3,1.8-12.4,4.3-19,5c-0.7,0-1.3,0-2.6,0c2.6-3,6.4-1.8,8.7-3.9C42.9,100.7,48.7,99.3,54.2,97.1z"/>
		<path class="st81" d="M21.1,102.9c1,0,2,0,3,0c0.3,1,0.6,2.1,1,3.1c-1.2,1-2.3,2.3-4,0.8C21.3,105.5,21.8,104.3,21.1,102.9z"/>
		<path class="st82" d="M21,106.8c1.3-0.3,2.7-0.5,4-0.8c-0.1,2.2-1.5,3.1-3.5,2.8C20.1,108.7,20.3,107.7,21,106.8z"/>
		<path class="st83" d="M31.1,106c6.3-1.9,12.5-4.1,19-5C44,103.6,38,106.5,31.1,106z"/>
		<path class="st83" d="M50.1,101c2.2-1.7,5.1-1.7,7.5-3c1.7-1-0.3-0.7-0.5-1.1c0.8-1,1.9-0.9,3-1c3.4,1.1,0.5,2.4-0.2,2.6
			C56.6,99.6,53.6,101.3,50.1,101z"/>
		<path class="st84" d="M478.1,46.1c2.2,0,4.3,0,6.5,0c1,0,2.2,0.1,2.5,1.2c0.3,1.4-0.9,2.2-2,2.4c-4.4,0.8-8.9,0-13.3,1
			c-1.2,0.3-2.7-1.4-2.7-3.1c0.1-2,1.8-1.5,3-1.6C474.2,46,476.2,46,478.1,46.1C478.1,46,478.1,46.1,478.1,46.1z"/>
		<path class="st85" d="M89.1,74c-5.4,0-6.1-4.1-7-8c14.3,0,28.6,0,42.9,0c0.6,6.1-0.4,7.3-6.2,7.5c-1,0-2-0.2-2.8,0.5
			c-1.3,0-2.7,0-4,0c-3.4-1.7-6.7,2.1-10.3,0.1c-1.6-0.9-3.8-0.8-5.7-1.1C93.7,73.6,91.5,74.3,89.1,74z"/>
		<path class="st47" d="M329.6,65.9c-0.3,1.2,0.8,3.3-1.8,3c-1.6-0.1-1.9-1.2-1.7-2.5c0.3-1.4,0.6-3.2,2.5-3.2
			C330.3,63.3,329.8,64.8,329.6,65.9z"/>
		<path class="st47" d="M329.9,61c-1.2-2.1-1.5-4.2,1-6.6c0,2.6,0,4.6,0,6.6C330.6,61,330.3,61,329.9,61z"/>
		<path class="st54" d="M254,49c4.2-2.1,8.7-0.4,13-1c2.6-1.4,5.1-2.7,7,1C267.3,49,260.7,49,254,49z"/>
		<path class="st53" d="M274,49c-2.1-1.9-4.7-0.6-7-1c0-0.3,0-0.7,0-1c4-2.2,8-2.3,12,0c0,0.3,0,0.6,0,1c-0.8,0-1.6,0.2-2,1
			C276,49,275,49,274,49z"/>
		<path class="st86" d="M116,74c0.2-0.2,0.5-0.6,0.7-0.6c5.5,0.6,7.5-2.6,8.2-7.3c7.6-0.5,15.2,0.8,22.8-0.7
			c2.5-0.5,3.3,1.2,3.2,3.3c-0.1,2.6,1.2,6.4-3.3,6.3c-8.9,0-17.8,0.7-26.7-0.7C119.4,73.9,117.7,74.1,116,74z"/>
		<path class="st87" d="M52.1,66.1c-3-2.2-5.7-6.1-10-2.1c-1.5,2-3.7-1.5-5.6,0.9c-1.7,2.2-4.3,3.5-3.1,7.1c0.5,1.3-0.1,2.9-1.3,4
			c0.5-4.5-0.9-9,1.8-13.4C38,56.2,44,56.9,50.1,57c2,1.6,4.7,2.5,6,5C55.7,64.3,52.3,63.7,52.1,66.1z"/>
		<path class="st88" d="M302.1,42.1c-1.9-0.2-4.5,0.6-4.6-1.9c-0.1-2.9,2.7-2.2,4.5-2.2s4.7-0.7,4.6,2.1
			C306.6,43.3,303.6,41.5,302.1,42.1z"/>
		<path class="st89" d="M318.9,39.1c0,0.6,0,1.3,0,1.9c-2.4,1.7-5.1,1-7.6,0.9c-1.1,0-1.9-0.7-1.9-1.9c0-1.2,0.9-1.8,1.9-1.9
			C313.9,38.1,316.5,37.5,318.9,39.1z"/>
		<path class="st90" d="M366.9,64c-1.5-0.2-3.2,0.8-4.6-1c1.4-1.5,3.1-0.8,4.6-0.8C366.9,62.7,366.9,63.3,366.9,64z"/>
		<path class="st54" d="M279,47.1c-4,0-8,0-12,0c-24.7,0-49.4,0-74.6,0c1.5-3.1,4.6-3.7,5.2-6.6c0.4-1.8,2-1.3,2.5,0.6
			c0.4,1.4,0.9,2.8,1.4,4.4c4.1-1.8,2.8-7.4,6.5-9.4c1.8,0.3,4.1-1,5.1,1.7c0.4,1.1,1.1,0.8,1.9,0.2c4.3-3.3,9.2-2.3,13.7-1.2
			c2.7,0.7,4.5-0.9,7-0.9c14.1,0.4,28.1,0.2,42.2,0.2c2.5,1.1,2.7,2.8,1,4.8c1.4,3.6,3.5,3.9,8.4,1.1c0.9-1.4,1.8-3,3.7-2.3
			c2.1,0.7,1.2,2.7,1.3,4.2c0.1,1.1,0.3,2.3-0.5,3.2C287.6,47,283.3,47.1,279,47.1z"/>
		<path class="st53" d="M292,47c0-0.6,0.1-1.3,0-1.9c-0.3-1.6,1-4.1-1.2-4.7c-2.6-0.7-1,3-2.9,3.6c-1.4-1.9-3.3-2.5-5.5-2.6
			c-1.6-0.1-3.3,0.1-4.5-1.5c2.3-1.3,0.9-2.5,0-3.8c2.3,0,4.6,0,6.9,0C292.5,36.1,294.8,39.5,292,47z"/>
		<path class="st91" d="M247.5,44.2c-1.9-0.7-5.3,1.2-5.2-2.1c0.1-3.6,3.8-2.7,6.2-3c2.2-0.3,5.1,0.2,5,2.7
			C253.2,45.6,249.6,43.5,247.5,44.2z"/>
		<path d="M277.9,39.9c2.1,0,4.2,0.2,6.3,0.1c3.1-0.2,4.1,1.2,3.7,4c-2.4,0.7-4.7,1.3-7.2,1C277.1,44.7,275.9,43.2,277.9,39.9z"/>
		<path class="st37" d="M268,44.1c-0.8,0-1.6,0-2.5,0c-1.5-0.1-3.2-0.3-3.1-2.3c0.1-1.6,1.6-1.8,3-1.9c1.6,0,3.3-0.1,4.9,0
			c1.6,0.1,3.6-0.3,3.4,2.2c-0.1,2.1-1.9,1.8-3.4,1.9C269.7,44.2,268.8,44.1,268,44.1z"/>
		<path class="st37" d="M233.6,39.9c1.3,0.1,2.6,0.1,3.9,0.3c1,0.1,1.3,0.9,1.4,1.8c0,0.9-0.2,1.9-1.1,1.9c-2.8,0.2-5.6,0.2-8.3,0.1
			c-0.9,0-1.3-0.8-1.4-1.7c-0.1-1.1,0.5-1.9,1.6-2c1.3-0.1,2.6,0,3.9,0C233.6,40,233.6,40,233.6,39.9z"/>
	</g>
</g>
</svg>
