<?xml version="1.0" encoding="utf-8"?>
<!-- Generator: Adobe Illustrator 25.0.0, SVG Export Plug-In . SVG Version: 6.00 Build 0)  -->
<svg version="1.1" id="Camada_1" xmlns="http://www.w3.org/2000/svg" xmlns:xlink="http://www.w3.org/1999/xlink" x="0px" y="0px"
	 viewBox="0 0 522.9 168.9" style="enable-background:new 0 0 522.9 168.9;" xml:space="preserve">
<style type="text/css">
	.st0{display:none;}
	.st1{display:inline;fill:#FF0025;stroke:#000000;stroke-miterlimit:10;}
	.st2{display:none;fill:#FFFFFF;}
	.st3{fill:#1D2E1D;}
	.st4{fill:#192B1A;}
	.st5{fill:#949B9A;}
	.st6{fill:#092309;}
	.st7{fill:#ADB2B1;}
	.st8{fill:#78867A;}
	.st9{fill:#2C3A2E;}
	.st10{fill:#B0BAB5;}
	.st11{fill:#D9DDDB;}
	.st12{fill:#3F5043;}
	.st13{fill:#4C6750;}
	.st14{fill:#374F37;}
	.st15{fill:#6B776B;}
	.st16{fill:#809181;}
	.st17{fill:#4D654F;}
	.st18{fill:#5F7460;}
	.st19{fill:#5B655E;}
	.st20{fill:#1E2920;}
	.st21{fill:#415242;}
	.st22{fill:#3E4F43;}
	.st23{fill:#435448;}
	.st24{fill:#6F906F;}
	.st25{fill:#649F6B;}
	.st26{fill:#323F32;}
	.st27{fill:#557157;}
	.st28{fill:#0A240A;}
	.st29{fill:#1C2C1C;}
	.st30{fill:#19231B;}
	.st31{fill:#344132;}
	.st32{fill:#27342B;}
	.st33{fill:#293A2C;}
	.st34{fill:#3F4C3F;}
	.st35{fill:#F4F4EB;}
	.st36{fill:#344233;}
	.st37{fill:#3A483F;}
	.st38{fill:#182C19;}
	.st39{fill:#2B3B2B;}
	.st40{fill:#203121;}
	.st41{fill:#1E2F20;}
	.st42{fill:#455245;}
	.st43{fill:#2B3A2A;}
	.st44{fill:#364435;}
	.st45{fill:#092409;}
	.st46{fill:#616E62;}
	.st47{fill:#233B25;}
	.st48{fill:#182118;}
	.st49{fill:#38443C;}
	.st50{fill:#334034;}
	.st51{fill:#4F5B4F;}
	.st52{fill:#404C40;}
	.st53{fill:#4C584B;}
	.st54{fill:#576358;}
	.st55{fill:#505D51;}
</style>
<g id="Camada_2_1_" class="st0">
	<rect x="46.9" y="16.8" class="st1" width="470.4" height="164.4"/>
</g>
<rect class="st2" width="522.9" height="168.9"/>
<g id="Camada_1_1_">
	<g>
		<path class="st3" d="M65.4,107c-3.5-1.8-7.1-3.3-11-3.8c0-0.3,0-0.7,0-1c1.5-1.4,3.3-1.3,5.2-1.2c1.2,0.1,2.6,1,3.1-1.1
			c0.3-1.7,2.3-4.1,0.6-4.9c-4.3-2-4-7.5-8.1-9.4c-0.3-0.7-0.3-1.3-0.1-2c4-1.5,1.6-2.9,0-4.3c-0.1-0.9-0.2-1.8,0.1-2.7
			c1-1.2,2.6-1.6,3.6-0.9c3.6,2.8,4.2-0.7,5.7-2.4C65.9,71,68,72,70,71.8c1.1-0.1-1.3-3.9,2.2-3.9c11.5,0.1,23,0.8,34.4-0.6
			c3.6-0.4,7.3,0,11,0c11.5,0.2,22.9-1.3,34.4-1.2c7.5,0,14.9,0.1,22.2,2.3c4.7,1.4,9.6,0.3,14.4,0.9c5.5,1.2,10.8-1,16.2-1.1
			c6.3-0.1,12,0.6,17.1,4.8c5.4,4.5,11.3,3.8,17,0c0.5,0,1.1,0.1,1.5,0.3c-1,6.8-7.8,10.3-14.4,7.2c-2.8-1.3-5.2-3.4-8-4.9
			c-1.8-1-3.7-1.8-5.2,0.5c-2.2,3.3-5.7,3.6-9.2,3.7c-9.6-0.9-19.2,0-28.8,0.6c-7.8,0.5-15.6-0.8-23.4-0.2
			c-3.8,0.3-7.6-0.2-11.4,0.4c-2.1,0.4-4.4,0.5-6.5,0.2c-11.6-1.6-23.2,0.1-34.9,0.1c-8.3,0-16.6,0-24.9,0.4
			c6.4,0.7,13,1.3,19.3,0.4c11-1.6,21.9,0.5,32.9-0.4c3.4-0.3,7-0.1,10.5-0.3c13.2-0.8,26.2,1.3,39.2,3.1c3.5,0.5,7,0.2,10.4-0.5
			c1.2-0.2,2.4-0.3,3.6,0.2c0.6,0.3,0.9,0.7,0.9,1.4c-3.3,3.6-7.5,4.6-12.1,4.7c-7.3,0.2-14.6-0.7-21.9-1.2
			c-25.9-1.6-51.9-0.3-77.8-0.7c-1.9,0-4.1-0.2-5.2,2.1c-1.4,3.1,0.3,5.5,4.3,5.7c7.6,0.2,15.3,0.7,22.9,0.8
			c13.3,0.2,26.6,1,39.9,1.3c16.6,0.4,33.2,1.1,49.7,2.6c2.5,0.2,5,0.3,7.5,0.2c3.8-0.1,7.5-0.4,7.9-5.4c0.1-0.8,0.9-1.3,1.8-1.5
			c4.7,1.9,7.3,7.7,6.1,13.7c-5.4,1.6-10.8,0.2-16-0.7c-4.3-0.7-8.5-1.5-12.8-0.5c-0.6,0-1.1-0.1-1.6-0.2c-4.2-1-8.4-1.3-12.7-0.4
			c-20.7-1-41.4-1.2-62-2.8c-6.6-0.5-13.3,0-19.9-0.3c-6.1-0.3-12.2-0.3-18.1-2.1c-0.4,0.1-0.9,0.1-1.3,0.2
			c-2.8,0.4-1.8,3.1-2.8,4.7C66.1,106,65.9,106.6,65.4,107z"/>
		<path class="st4" d="M65.5,73.2c-0.6,1-1.4,1.8-1.8,2.9c-0.9,2.3-0.4,8.7-4.1,1.1c-0.6-1.3-2.7-0.5-4.1-0.6
			c-1.5-1.4,0.2-3.5-1.1-4.9c0-0.3,0-0.7,0-1c3.2-0.1,5.4-1.2,5.4-4.8c1.1-1.1,1.4-2.5,1.6-4c3-2.2,6-2,8.9,0.1
			c0.4,0.5,0.5,1.7,0,1.5c-3.3-0.9-1.6,1.4-1.8,2.5C68.5,68.7,66.1,70.6,65.5,73.2z"/>
		<path class="st4" d="M55.5,85.4c2.7,0.6,5,1.5,4.9,5c-0.1,1.4,0.6,2.8,2.2,2.6c3.5-0.3,3.3,2.6,2.5,3.8c-1.4,1.9-0.1,6.5-4.8,5.4
			c-1.6-1.8-4.4-0.2-5.9-2c0-1,0-2,0-3C55.9,93.4,53.8,89.2,55.5,85.4z"/>
		<path class="st5" d="M406.2,141.8c-23.3,0-46.6,0-70,0c-0.3-0.7-0.1-1.2,0.5-1.6c1.4-0.8,2.9-0.8,4.4-0.8
			c20.1,0,40.1-0.4,60.2-0.1c1.1,0.1,2.3,0.2,3.4,0.4c0.5,0.1,1,0.4,1.4,0.7C406.6,140.8,406.6,141.3,406.2,141.8z"/>
		<path class="st6" d="M60.4,65.6c0,0.2,0,0.3,0,0.5c0,6.8,0,6.8-6,4.5c0-2,0-4,0-5.9C56.6,63.5,58.8,62.8,60.4,65.6z"/>
		<path class="st7" d="M336.2,141c0,0.3,0,0.5,0.1,0.8c-9.7,0-19.3,0-29,0c-0.3-0.7-0.1-1.2,0.5-1.6c8.8-1.5,17.6-0.7,26.4-0.5
			C335.1,139.8,335.7,140.3,336.2,141z"/>
		<path class="st8" d="M55.5,85.4c-1,3.9,1.2,8.1-1.1,11.9c0-8.6,0-17.2,0-25.7c2,1.3,0.5,3.4,1.1,4.9c0,1,0,2,0,2.9
			c0.9,1.4,1.2,2.7,0,4.1C55.5,84.1,55.5,84.7,55.5,85.4z"/>
		<path class="st9" d="M60.4,65.6c-1.8-1.2-3.9-1-6-1c0-0.3,0-0.7,0-1c2.3-0.6,4.7-1.2,7-1.8C63.9,63.8,63.6,65.1,60.4,65.6z"/>
		<path class="st10" d="M406.2,141.8c0-0.3,0-0.5,0-0.8c1-1.6,2.8-1.6,4.4-1.5c3,0.1,4.9-1.3,6.5-3.5c2.2,1.6,0.7,3.9,1.1,5.8
			C414.2,141.8,410.2,141.8,406.2,141.8z"/>
		<path class="st11" d="M307.2,140.9c0,0.3,0.1,0.6,0,0.9c-5,0-10,0-15,0c0-0.3,0-0.6,0-0.9C297.3,138.6,302.2,138.6,307.2,140.9z"
			/>
		<path class="st12" d="M54.4,100.2c2,0.7,5-1.8,5.9,2c-2,0-4,0-5.9,0C54.4,101.5,54.4,100.9,54.4,100.2z"/>
		<path class="st13" d="M459.3,80.5c-27.4,15.7-58.4,21.1-87.9,30.8c-6.6,2.2-13.2,4.6-18.2,9.7c-0.2-0.2-0.3-0.4-0.5-0.5
			c-0.9-4.7,3-7.9,3.6-12.2c0.7-2.2,1.8-4.3,3-6.3c1.5-2.6,2.8-5.1,3.8-7.9c0.6-1.5,1.4-2.9,2.2-4.2c1.9-2.8,3.3-5.9,5.1-8.8
			c3.1-3.9,5.7-8.2,9-12c1.9-2,3.3-4.3,4.6-6.7c0.5-0.9,1-1.6,1.8-2.3c0.6-0.5,1.3-0.9,2.1-1c0.6-0.1,1.1,0,1.6,0.1
			c7.7-0.1,15.4,0.9,23-1.1c1.4-0.3,2.6,0,3.8,0.5C430.8,65.8,445,73.2,459.3,80.5z"/>
		<path class="st9" d="M67.4,65.6c-1-2.8,1.5-2.9,3-3.8c6,1.1,11.9,0.1,17.8-0.2c30.2-1.5,60.5-2.2,90.6-4.7
			c18-1.5,34.9-6.3,50.4-15.7c5.8-3.5,11.6-7.1,18.1-9.3c11.9-3.5,24.2-4,36.4-4.3c34.9-1,69.9-0.6,104.9-0.6c3,0,6.2-0.2,6.8,4
			c-2.1,1.8-4.7,1.5-7.1,1.5c-12.3,0.1-24.6,0.2-36.9,0c-23.8-0.5-47.6,1.2-71.3,1.2c-9.9,0-20.1,0.3-29,5.7
			c-10.9,3.5-20.8,9.5-31.5,13.6c-3.4,1.3-6.7,2.8-10.3,3.9c-16.2,3.3-32.6,4.3-49,5.2c-21.5,1.2-43.1,1.5-64.6,2.9
			c-5.1,0.3-10.3,0.1-15.4,0.1c-3,0-6,0.3-8.7,1.6C69.8,67.4,68.6,66.7,67.4,65.6z"/>
		<path class="st14" d="M395.2,30.9c-1.6-2.6-4.2-3-6.9-3c-26.7,0-53.5-0.6-80.2,0.2c-18.2,0.5-36.4,0.4-54.5,2.8
			c-2.1,0.3-4.1,1.4-6.3,1c6.6-3.6,13.9-4.2,21.2-4.6c38.2-2.1,76.5-1.5,114.7-1.3c14.5,0.1,28.9,0.7,43.3,2.8
			c6.8,1,12.3,6.1,20.8,4.9c-5.4,5.7-11.5,7.4-17.1,10.1c-3.9-0.7-6.5,1.5-9,3.9c-1.8,1.3-3.6,2.8-6,3.1c-1.5-2,0.8-3.2,1.2-5.1
			c-4.6,0.9-9-0.3-13.4-0.1c-2.6,0.1-5.8,0.3-7.5-2.7C395.6,38.9,396.2,34.9,395.2,30.9z"/>
		<path class="st15" d="M413.1,55.7c0.1,0.3,0.2,0.6,0.2,0.9c-0.3,2.9-3.1,2.7-4.5,2.6c-6.4-0.3-12.9,0.7-19.3-0.7
			c-4.4-3.2-9.6-2-14.4-2.2c-5-0.2-9.9-1.1-14.8-1.3c-1.5-0.1-3.3-0.3-3.2-2.3c0-1.8,1.6-2.5,3.1-2.6c10.1-0.2,20.2-0.6,30.2-1.5
			c0.8-0.1,1.6,0.2,2.4,0.6c0.4,0.3,0.9,0.7,0.7,1.1c-1.4,4.6,1.5,4.8,4.8,4.5c4.1-0.4,8.2-0.5,12.3-0.2
			C411.5,54.6,412.4,55,413.1,55.7z"/>
		<path class="st16" d="M413.1,55.7c-5.3,0.3-10.6-0.5-15.9,0.6c-2,0.4-5.1,0.2-6.3-1.5c-1.1-1.7,1.5-3.3,2.3-5
			c-0.1-0.3-0.1-0.6-0.2-0.9c0.4-0.5,0.8-0.8,1.4-1.1c5-0.9,10.2-0.6,15.3-1.1c3.4-0.4,6,1,4.6,5.3
			C413.5,53.1,412.9,54.3,413.1,55.7z"/>
		<path class="st17" d="M414.2,51.9c0.4-3.8-2-4.7-4.9-4c-5.3,1.2-10.7,0.5-16.1,0.8c-0.3-0.3-0.4-0.7-0.4-1.1
			c0.2-0.8,0.5-1.5,0.8-2.2s0.6-1.5,1-2.2c0.4-0.5,0.8-0.9,1.6-0.6c5.6,2.8,11.7,1.1,17.6,1.9c1.5,0.2,3.5-1.2,4.4,0.5
			c0.8,1.5-1.6,2.1-2.2,3.4c-0.3,0.7-0.5,1.5-0.8,2.3C414.9,51.2,414.6,51.5,414.2,51.9z"/>
		<path class="st18" d="M389.2,57.7c6.4,0.4,12.8-0.7,19.2,0.7c1.6,0.4,3.6-0.4,4.9-1.8c1.4,0.1,2.4,0.8,3.2,2
			c-7.7,2.5-15.7,2.2-23.6,2.1c-1.6,0-3.4,0.5-4.7-1c-0.6-0.6-0.5-1.2-0.2-1.8C388.4,57.5,388.8,57.5,389.2,57.7z"/>
		<path class="st19" d="M421.2,47.7c2.5-5.1,5.1-6.2,9-3.9C427.4,45.5,424.4,46.8,421.2,47.7z"/>
		<path class="st20" d="M213.3,107.1c-0.6-4.7-1.8-9.1-5-12.9c-0.2-0.5-0.2-0.9,0-1.4c0.4-1.1,2.2-2,0.7-3.3c-1.1-1-2.5-0.7-3.7-0.3
			c-1.6,0.5-3.1,1.2-4.8,0.8c-2.2-0.6-3.9-1.7-3.6-4.4c2.1-2,3.8,2.1,5.9,0.3c4.3-2.8,8.6-4.6,13.1-0.3c1.3,1.2,2.9,0.4,4.2-0.3
			c7.7-4.1,15.2-4.7,22.2,1.4c0.9,0.8,2.1,1.4,3.1,0.2c3.6-4.4,5.5-1.6,7.3,1.6c0.5,0.9,1.3,1.5,1.9,2.3c0.6,2.3-0.5,3.1-2.5,2.5
			c-2-0.6-3.8,0-5.7,0.4c-2.3-0.1-4-1.6-5.8-2.6c-6.9-3.9-13.9-3.3-22-0.4c4.2,2.1,6.9,4.6,8.9,7.8c2,3.1,4.7,2.5,7.2,0.4
			c3.4-2.9,7.1-4.9,11.8-3.8c3.7,1.2,6.8,3.8,5.3,7.5c-2.6,6.5-1.1,12.1,1.8,17.7c-1.3,2-3.1,1.3-4.8,0.8c-1.4-0.4-2.6-1.3-4-1.9
			c-1.8-0.8-4.2-3-5.7-1c-1.5,2.1,1.7,3.3,2.9,4.9c1.7,1.9,3.8,3.4,6,4.7c7.3,4.1,15.4,4.8,23.6,5.3c25.6,1.6,51.2,0.8,76.8,0.9
			c3.2,0,6.3,0.6,9.3,1.7c1.6,1,3.8,1.3,4.6,3.4c-0.8,1.4-2.1,0.9-3.1,0.9c-25,0-50.1,0-75.1,0c-0.7,0-1.3-0.1-1.9-0.4
			c-15.8,0.2-31.4-1.1-44.9-10.2c-23.3-15.6-49.6-20.5-77.1-21.5c-22.6-0.8-45.1-2.1-67.7-3.2c-4-1-8.2,0.3-12.2-0.7
			c-2.6-0.1-5.2-0.1-7.8-0.2c-1.3-0.8-1.8-1.7-0.1-2.6c12.1,0.6,24.2,0.7,36.3,1.3c13.8,0.7,27.5,1.3,41.3,1.9
			c22.2,0.9,44.4,1.9,66,8.1c2.3,0.2,5.8,2.4,6.5-0.5c0.6-2.4-3.4-2.7-5.8-3.1C215.1,109.1,213.3,109.4,213.3,107.1z"/>
		<path class="st21" d="M282.1,139.9c18.1,0,36.2,0,54.4-0.1c8.2,0,16.5,0,25.5,0c-2.1-1.3-3.5-2.1-4.8-2.9c0.1-0.2,0.3-0.4,0.4-0.5
			c2.7-1.3,5.6-0.7,8.3-1c2.4-0.2,3.9-1.2,4.9-3.2c5.3-0.6,10.2,1.6,15.3,1.8c6.2-0.9,12.1,0.8,18,1.8c1.5,2,0.5,3.5-1,4.8
			c-22.3,0.1-44.7,0.2-67,0.3c-9.7,0-19.3-0.1-29-0.1c-5,0-10,0-15-0.1C288.9,140.3,285.4,141.1,282.1,139.9z"/>
		<path class="st4" d="M71.4,102.3c0.3,0.6,0.7,1.2,1,1.8c-2.5,0.5-3.8,3.9-7,2.9c0-0.6,0-1.2,0-1.7c1.4-1.5,1.7-3.5,3-5
			c0.3,0,0.6,0,0.9,0C70.3,100.6,71.2,101.1,71.4,102.3z"/>
		<path class="st22" d="M80.2,104.3c4.1-0.2,8.2-0.9,12.2,0.7C88.3,105.2,84.2,105.3,80.2,104.3z"/>
		<path class="st23" d="M357.2,136.9c-3.7-1-7.5-1.1-11.3-1.1c-19.2,0-38.5,0.5-57.7-0.2c-12-0.4-24.2,0.1-35.9-3.7
			c-2.4-0.8-4.7-1.7-6-4c-2.1-2.2-0.8-3.1,1.4-3.3c1.8-0.1,3.5,0.8,5.2,1.5c7.1,2.9,14.5,3.9,22.2,3.3c21.8-0.5,43.5,1.6,65.3,0.9
			c1.5,0,3,0,4.5,0c6.6-0.1,6.6-0.1,6.3-6.7c0.1-1.2,0.4-2.4,1.7-2.9l0.4,0.2c-0.8,2.1,1.3,2.7,2,4c0.5,3.9,0,8,2.1,11.6
			L357.2,136.9z"/>
		<path class="st24" d="M357.4,136.7c-5.6-3-2.1-7.6-2.1-11.6c1.1,3.3,2.4,6.4,6.5,6.9c1.2,0.1,3.4,2.6,3.2-1.7
			c-0.1-2.2,2.4-1.5,3.3,0.6c0.7,0.6,1.8,0.8,1.9,2c1.2,1.5,2.5,2.8-1,3.2C365.2,136.6,361.3,137.1,357.4,136.7z"/>
		<path class="st25" d="M417.1,136c0.8,3.7-1.1,4.9-4.5,4.9c-2.1,0-4.2,0.1-6.3,0.2v-0.4c-1.3-1.9-0.2-3.3,1-4.7
			C410.5,136,413.8,136,417.1,136z"/>
		<path class="st26" d="M370.1,132.9c-0.6-0.7-1.3-1.3-1.9-2c6.2-0.2,12.3,0.4,18,3.1c-3.7,1.5-7.2-0.4-10.8-0.7
			C373.7,133.2,371.9,132.9,370.1,132.9z"/>
		<path class="st27" d="M407.2,136c-0.3,1.6-0.6,3.1-1,4.7c-1,0-2,0-3,0c0.3-1.6,0.7-3.2,1-4.8C405.2,135.9,406.2,135.9,407.2,136z"
			/>
		<path class="st4" d="M197.3,85.4c0.9,3.7,3.1,4.7,6.6,3.1c0.4-0.2,0.9-0.4,1.3-0.6c2.2-1,4.4-0.6,5.8,1.3c2.5,3.3-2.6,3-2.7,5.1
			c-1.4,0.1-2.3,0.9-1.7,2.3c1.8,3.9-1.1,4.6-3.7,5.2c-1.6,0.4-3.3,0.5-4.9,0.4c-15.9-0.9-31.7-2-47.6-2.9
			c-7.6-0.4-15.3-0.3-22.9-0.5c-17.4-0.5-34.8-1.1-52.2-1.6c-4.5-0.1-3.7-3.1-3.9-5.9c-0.2-3.5,0.9-5.1,4.8-5.1
			c17.3,0.1,34.7,0.3,52,0c12.8-0.2,25.6,1,38.4,1.1c2.8,0,5.5,0.9,8.4,1.1c5.7,0.3,10.8-1.1,15.5-4.1
			C193.1,81.7,195.4,82.3,197.3,85.4z"/>
		<path class="st28" d="M70.3,66.7c0.9-3.2,3.8-2.9,6.1-3c13.4-0.5,26.9-0.6,40.3-1.2c20.5-0.9,41.1-1.7,61.6-3.1
			c10.7-0.7,21.3-2.5,32-3.8c2.3-0.3,5.1-2.2,6.6,0.9c1.4,3.1-0.9,5.2-3,7.1c-5.6,5-12.8,5.1-19.5,6.3c-1.6,0.3-3.3,0.3-4.9,0.5
			c-8,0.3-15.7-0.9-23.6-2.4c-9.1-1.7-18.5-1.1-27.8-0.2c-8.6,0.9-17.1,0.1-25.6,0.8c-11.9,0.9-23.8,0.6-35.7,1
			c-2.3,0.1-4.1-0.7-6.1-1.2C69.9,68,69.8,67.4,70.3,66.7z"/>
		<path class="st29" d="M395.1,43.8c0.1,0.9-0.1,1.6-0.9,2.1c-1.2,1-2.7,1.4-4.2,1.3c-11.9-1-23.7,0.9-35.6,0.7
			c-11.6-0.2-23.5-0.7-35.2,1c-4.8,0.7-9.9-0.2-14.8,0.3c-7,0-13.9-0.3-20.8,1c-2,0.1-4-0.2-5.9,0.6s-3.6,1.7-3.6,4.2
			c0,2.4,1.4,3.6,3.5,4.2c4.8,1.5,9.8,1.8,14.7,2.1c11.6,0.6,23.2,1.2,34.8,2.1c1.5,0.1,2.9,0.3,4.2,1.7c-1,1.8-2.6,2-4.2,2
			c-7.7,0-15.2,1.3-22.9,1.2c-12.3-0.3-24.6,0.9-36.7,3.3c-5.1,1-10.3,0.1-15.4,0.7c-2.4,0.3-3.4-1.8-4.7-3.2
			c-2.1-0.2-2.6,1.5-3.5,2.7c-0.7,0.9-1.4,1.7-2.4,2.2c-0.5,0.1-0.9,0-1.2-0.3c-0.3,0-0.7,0-1,0c2.7-9,8.9-14.6,17.5-18
			c3.7-0.2,6.6-1.3,8.6-4.8c1.9-3.3,5.5-4.6,9.2-5.4c5.2-1.2,10.6-1.7,15.8-1.8c10.8-0.1,21.6-1.6,32.4-1.3
			c21.6,0.7,43.2-1.6,64.8-0.9C390.3,41.4,393.4,40.7,395.1,43.8z"/>
		<path class="st30" d="M255.3,56.7c-7,4.1-11.8,10.1-16,16.8c-6.8,5.2-11.8,6-18.3,0.5c-7.3-6.1-15-4.5-23-3.9
			c-2.9,0.2-5.7,1.8-8.7,0.4c5.3-1.9,11-1.6,16.2-3.8c2.4-1.1,4.9-1.9,7-3.7c1.9-1.6,4.5-3,3.5-5.9c-0.9-2.7-3.8-0.9-5.8-1.4
			c12-5.4,24.1-10.9,36.1-16.3c0.9-0.4,1.9-0.3,2.9-0.5c0.6,1.5-0.5,2.4-1.2,3.5c-3.1,5.3-2.4,8,2.9,11.2
			C252.5,54.5,254.6,54.7,255.3,56.7z"/>
		<path class="st31" d="M197.3,85.4c-2.2-1.4-4.4-2.2-7-1c-0.3,0-0.7,0-1-0.1c-1.9-5.2-5.7-3.1-9.5-2.4c2,2.1,5,0.4,6.5,2.5
			c-4.9,2.4-10.1,1.6-15,0.7c-14.1-2.6-28.2-2.8-42.5-2.4c-7.1,0.2-14.3,0.8-21.6-0.1c-8.9-1.1-17.8,1.5-26.8,0.8
			c-2.5-0.2-5-0.4-7.4-0.4c-1.2,0-3,1.8-2.7-1.3c0.2-2.1,1.3-2.7,3.3-2.6c8.3,0.2,16.6,0.3,24.9,0.3c5.3,0,10.6,0.3,15.9-0.8
			c5.2-1,10.5,0.8,15.8,0.8c10-0.1,20.1-1.2,30.1-0.7c9.6,0.5,19.1-0.3,28.7-0.3c5.1,0,10.1-1.2,15.2,0.1c1.8,1.5,5.7-1.1,6.2,2.3
			c0.6,3.5-3.7,2.4-5.2,4.1c-0.9,1-1.9,1.8-3,2.5C199.6,89.5,199.2,85.5,197.3,85.4z"/>
		<path class="st32" d="M202.3,87.4c1.1-1.9,2.7-3.2,4.6-4.3c1-0.6,3.2-0.2,2.8-2.1c-0.3-1.5-2-1.5-3.3-1.5c-0.9,0-1.6-0.3-2.2-1
			c3.2-0.1,6.4,0,7.6-4c0.5-1.7,1.7-2,3.5-1.5c2.6,0.8,4.8,2.3,6.9,3.9c8,6.1,13.9,4.1,18-3.4c0.3,0,0.7,0,1,0
			c1.5,1.2-0.5,3.7,1.6,4.7c0.7,0.3,1.2-0.4,1.5-1c1-2.2,0.6-4.1-1.2-5.7c0.1-2,1.4-3.1,3-4c2.8,1.3,1.7,6.2,5.7,6.4
			c1.1,1,1.1,2.4,0.2,3c-3.5,2.2-2.2,4.4-0.4,6.8c1.1,1.9,2.2,0.8,3.4,0.1c0.9-0.4,1.8-0.4,2.7-0.1c0.4,0.2,0.7,0.6,0.8,1.1
			c-0.1,0.5-0.3,0.9-0.6,1.2c-2.1,1.2-2.4,3.6-3.8,5.2c-2.1,0-2.5-1.5-3.3-3.1c-1.2-2.5-2.9-4-4.6-0.2c-1.1,2.6-2.9,2-4.3,0.6
			c-6.9-7-14.4-5.9-22.1-1.6c-2.4,1.3-4.3,2-6.2-1.1c-1.7-2.7-4.6-1.7-7.2-0.7C205.2,85.8,204.2,87.4,202.3,87.4z"/>
		<path class="st22" d="M71.4,102.3c-0.7-0.7-1.4-1.4-2.1-2c0.2-0.7,0.2-2.4,0.7-2c5.5,4.1,12,2.6,17.8,2.7
			c13.6,0.2,27.2,1,40.8,1.5c14.2,0.5,28.4,1.1,42.7,1.8c4,0.9,8.1-0.2,12,1l0,0c10.2,0.3,20.2,1.6,30.2,3.9c2.6,0.6,5.6,1.1,3.8,5
			c-7.4,0.1-14-3.6-21.3-4.3c-8.2-0.8-16.3-2.3-24.6-2.7c-22.8-1.3-45.6-2.1-68.4-3.2C92.5,103.4,81.9,104.2,71.4,102.3z"/>
		<path class="st33" d="M217.3,114.1c0.2-3.2-2.1-3.5-4.5-4c-9.2-2-18.4-3.6-27.8-4c-0.6,0-1.1-0.6-1.7-0.9
			c8.4-2.8,16.4,1.6,24.7,1.5c1.7,0,3.5,0.5,5.3,0.5c1.4,1.6,3.4,1,5.1,0.9c2.9-0.1,4.3,1.9,6,3.7c0.7,0.8,0.3,1.5-0.4,2.1
			C221.8,115.6,219.6,115.7,217.3,114.1z"/>
		<path class="st34" d="M186.4,84.4c-2.1,0-4.3,0-6.4-0.1c-1.1,0-2-0.6-2.3-1.6c-0.2-0.5,0.2-1.7,0.3-1.7c3.5-0.3,6.8-2.7,10.4-0.8
			c1.7,0.9,2,2.4,0.9,4.1C188.3,84.4,187.4,84.4,186.4,84.4z"/>
		<path class="st35" d="M70.3,66.7c0.1,0.6,0.2,1.2,0.3,1.8c0,0.3-0.1,0.8,0,0.9c1.6,1.2,2.7,2.8,1.4,4.4c-0.4,0.5-3.1,0-4-0.8
			c-1.2-1.1-1.6-0.2-2.4,0.1c-0.8-2.9,1.9-4.9,1.9-7.6C68.7,65.1,69.3,66.3,70.3,66.7z"/>
		<path class="st36" d="M55.5,83.5c0-1.4,0-2.7,0-4.1c2.3-0.1,4.5,0.2,3.8,3.3C58.7,85.5,56.9,83.9,55.5,83.5z"/>
		<path class="st33" d="M183.3,105.2c-4-0.5-8.1,1-12-1C175.4,103.4,179.5,103.3,183.3,105.2z"/>
		<path class="st37" d="M68.4,100.2c-0.2,2.2-0.3,4.4-3,5c-1-2.7,1.5-4.2,2.4-6.2c0.1,0.1,0.3,0.1,0.4,0.2
			C68.3,99.6,68.4,99.9,68.4,100.2z"/>
		<path class="st38" d="M352.8,120.8c-0.2,0.7-0.5,1.4-0.7,2.2c-0.6,3.2-3,4.3-5.8,4.3c-7-0.2-13.9,0.8-20.9,0.5
			c-9.4-0.5-18.9,0.3-28.3,0c-11.8-0.3-23.6,0.3-35.2-2.2c-2.6-0.5-5.2-1.1-7.4-2.9c-1-4.6,0.5-8.4,4.4-10.9
			c3.4-2.1,7.4-3.1,11.3-3.2c10.4-0.2,20.8,0.6,31.2,0.3c15.2-0.4,30.5,0,45.7-1.7c3.3-0.4,6.9-0.4,10.2,0.9
			C357,112.8,353.8,116.4,352.8,120.8z"/>
		<path class="st4" d="M357.4,108.2c-5.3,1.6-10.7,0.4-16.1,0.8c-10.9,0.9-21.9,0.8-32.9,0.9c-8.2,0-16.3,0.8-24.4-0.6
			c-2.6-0.5-4.9,1.7-7.7,1.4c-0.9-0.1-1.8,0.3-2.9,0.1c-10.3-2.2-15.9,1.1-19.2,11.2c-0.9,0.2-1.3-0.1-1-1
			c-3.8-5.2-6.5-10.4-2.9-16.9c2.2-4.1-0.6-6.2-4.1-7.8c-0.2-1-0.2-2,0-3c2-1.5,3.8-2.8,6.3-0.6c1.1,0.9,1.5-0.4,1.7-1.4
			c-0.1-2.9,0.4-5.4,3.9-5.9c0.8,0.1,1.3,0.6,1.7,1.3c0.2,0.5,0.2,1,0.2,1.5c-0.2,0.8-0.6,1.4-1.3,1.8c-2.6,1.5-2.2,3.9-1.5,6.1
			c0.6,2.3,2.8,2.6,4.8,2.7c13.6,0.2,27.1,2.4,40.7,0.3c3-0.5,5.9,0.7,8.9,0.7c9.6-0.1,19.3,0.2,28.9-0.8c5.2-0.5,10.3,0.4,15.4,0.3
			c1.8,0,3.6,0.9,4.3,2.9C359.3,104.2,358.3,106.2,357.4,108.2z"/>
		<path class="st39" d="M259.3,87.4c0-0.3,0-0.7,0-1c7.4-2.1,13.7-7,21.8-7.4c8.4-0.4,16.6-3,25.1-3.6c-11-0.1-22.1-1.7-33.1,0.5
			c-5.3,1.1-10.6,0.6-15.8,0.5c-2,0-4.5-0.4-4.2-3.6c0.5-0.7,1.3-1.1,2.2-1.1c19.7-0.3,39.2-3.8,59-3.7c19.8,0.2,39.6,0,59.4,0
			c2.3,0,4.7-0.3,6.6,1.5c-3,4-6,8-8.9,11.9c-11.9,0.9-23.9-0.2-35.8,0.5c-17.7,1-35.5,0.3-53.1,2.4c-5.1,0.6-10,1.9-14.5,4.8
			C263.8,91.8,262.4,91.3,259.3,87.4z"/>
		<path class="st40" d="M380.3,69.6c-24.2,0-48.5-0.7-72.7,0.2c-13.4,0.5-27.1-0.4-40.4,3.5c-3.3,1-6.9,0.1-10.3-0.4
			c-1.3-0.2-2.6-0.6-3.6,0.7c-0.3,0.4-0.4,0.9-1,1c-6.4,1.5-4.3-4.4-6-6.9c1.7-2.6,2.6-1.5,2.9,0.7c0.4,2.6,1.5,2.7,4,2.6
			c20-0.7,39.6-5.5,59.8-4.5c5.6,0.3,11.4-0.9,17.2-1.3c-5.5,0.1-10.8-1.3-16.2-1.4c-11.9-0.3-23.8-0.9-35.5-2.8
			c-3.8-0.6-6.8-1.7-6.3-6.4s4.3-4.8,7.5-5.6c1.1-0.3,2.3,0,3.5,0c0.2,1.2-0.8,1.7-1.6,2.2c-1.1,0.7-2.7,1.1-2.4,2.8
			c0.3,1.8,1.8,2.8,3.5,3.2c2.3,0.5,4.5,1.3,6.8,1.3c11.8,0.3,23.5,1.1,35.3,1.1c18.2,0.1,36.5,1.2,54.7,0.9c2.1,0,4.4-0.1,5.6,2.3
			C383.9,65.2,382.6,67.8,380.3,69.6z"/>
		<path class="st41" d="M259.3,87.4c2.8,2.5,5.5,3.1,8.7,0.2c4.7-4.3,11-4.7,16.8-5c10-0.6,20.1-1.1,30.2-1.4
			c16.9-0.5,33.8-0.7,50.8-0.7c1.9,0,4-0.7,5.6,1c-1.5,3-2.7,6.3-5.1,8.8c-4.4,0.9-8.9,0.4-13.4,0.5c-9.3,0.1-18.6,0.2-27.9,0
			c-14.5-0.4-28.9,1.5-43.4,1.2c-4.1-0.1-8.4,0.6-12.1,2.4c-3.8,1.8-6.7,1-9.4-1.8c-0.9-0.9-1.6-1.9-0.7-3.2
			C259.3,88.7,259.3,88,259.3,87.4z"/>
		<path class="st38" d="M259.3,89.3c0,0.8,0.2,1.6,1,2c3.6,5.6,5.3,6.7,10.8,4.7c7.7-2.8,15.7-3.1,23.6-3.1
			c21.9-0.1,43.9-0.7,65.8,0.3c1.3,0.1,2.7-0.1,3.7,1c-0.7,3-2,5.6-3.9,7.9c-7.1-2.8-14.4-1.9-21.7-1.6c-10.5,0.5-21,0.8-31.5,0.1
			c-7.6-0.5-15.3,0.5-23,0.4c-8.3-0.1-16.5-0.3-24.8-1.1c-5.5-0.5-3.8-5.3-3.9-8.6C255.3,88.8,256.9,88,259.3,89.3z"/>
		<path class="st4" d="M364.2,94.3c-23,0-46.1-0.3-69.1,0.1c-8,0.1-16.1-0.2-23.8,3.4c-5.9,2.8-9.8-0.1-11-6.6
			c3,3.1,6.2,3.1,9.9,1.1c2.9-1.7,6.5-1.8,9.6-1.9c27.9-1.2,55.8-1.3,83.8-1.1c1,0,2,0.1,2.7,1C365.6,91.7,364.9,93,364.2,94.3z"/>
		<path class="st42" d="M388.2,57.7c0,0.7,0,1.3,0,2c-0.3,0-0.7,0-1,0c-3.7,0.7-7.6-0.1-11.3,0.9c-1.7,0.1-3.4,0.2-5.2-0.1
			c-15-0.2-30-1.3-45-0.8c-0.9,0-1.8,0-2.7-0.1c-8.3-0.2-16.5-1.9-24.7-2.3c-0.8,0-1.7-0.1-2.5-0.3c-2.1-0.6-4.6-1.1-4.5-3.8
			c0.1-2.3,2.3-3,4.3-3.5c5.5-1.4,11.2-0.8,16.8-1.2c13.4-0.9,26.8-1.4,40.2-1.2c12.5,0.1,24.9-0.8,37.3-0.3c1.2,0.1,2.3,0,3.2,0.9
			c0,0.3,0,0.7,0,1V49c-10.7,1-21.4,1.6-32.1,1.7c-4.4,0-8.9,1.1-13.4,0.8c-10.7-0.3-21.4-0.3-33.1,1.4c3.9,1.6,7,1.5,10.1,1.6
			c3.3,0,6.6-0.2,9.9,0.5c12,1.8,24,1.6,36.1,1.6c5.6,0,11.2,0,16.7,0.8C387.8,57.3,388,57.5,388.2,57.7z"/>
		<path class="st43" d="M371.2,59.6c1.7,0,3.3,0,5,0c3.4-0.1,6.9-1.2,10,1c-0.4,0.7-0.7,1.3-1.1,2c-1.8-1.2-3.8-0.9-5.8-1
			C368.2,61.2,357.1,62,346,61c-10.1-0.9-20.4-0.3-30.6-0.4c-10.7,0-21.4-0.8-32.1-1.9c-1.8-0.2-3.3-0.5-4.4-1.9
			c-1-1.2-2.9-2.1-2.5-4c0.4-2.1,2.4-2.5,4.2-3c0.9-0.3,2-0.1,2.6-1.1c7-1.2,14-1,21-1c-0.2,2.6-2.2,1.3-3.4,1.4
			c-5.4,0.5-10.7,1.4-15.7,4.2c12.2,5.4,25.3,4.5,38.1,5.3c0.7,0,1.3,0,2,0C340.6,58.8,355.9,59.7,371.2,59.6z"/>
		<path class="st44" d="M386.3,60.6c-3.3-0.3-6.7-0.7-10-1c3.7-1.6,7.3-1.6,11,0C386.9,60,386.6,60.3,386.3,60.6z"/>
		<path class="st45" d="M255.3,56.7c-0.3-0.1-0.6-0.3-0.9-0.4c-10.8-4.2-12.8-8.9-5.1-17.4c5.1-4.1,11.3-5.3,17.6-5.9
			c14.4-1.5,28.9-0.3,43.2-1.2c28.4-1.6,56.7-0.3,85.1-0.8c4,3.6,1.6,7.8,1,11.8c-0.4,0.3-0.7,0.7-1.1,1c-2-1.2-4.2-0.9-6.3-0.9
			C362.9,42.5,337,44,311,44.2c-12,0.1-24.2,0-36.1,2.7c-4.5,1-8.7,2.3-9.8,7.6c-0.4,1.8-1.7,2.3-3.4,2.3
			C259.6,56.7,257.5,56.7,255.3,56.7z"/>
		<path class="st46" d="M347.3,49.8c15.4,0.6,30.7-1.2,46-0.9c0,0.3,0,0.6-0.1,0.9c-11.8,0.7-23.6,1.4-35.5,2.1c0,0.5,0,0.9-0.1,1.4
			c4.4,0.5,8.8,1.5,13.2,1.3c4.8-0.1,9.4,1.2,14.2,0.5c1.3-0.2,3.8,0.1,4.1,2.6c-0.3,0-0.7,0-1,0l0,0c-8.2-0.9-16.5-0.7-24.8-1
			c-6.5-0.2-13,0.5-19.4-0.5c-1.7-0.6-3.7-0.2-5.4-0.9c-1.2-0.4-1.9-1.4-1.8-2.7c0.1-1.1,1.1-1.5,2.1-1.8
			C341.7,50,344.6,50.7,347.3,49.8z"/>
		<path class="st44" d="M323.3,58.7c-1,1.3-2.4,1.1-3.7,1c-10.6-1.5-21.6,0.4-32-3c-0.9-0.3-1.9-0.7-2.8-0.9c-1.2-0.3-2.2-1-2.3-2.3
			c-0.1-1.6,1-2.3,2.4-2.7c4.3-1.1,8.7-1.9,13.2-2c2.1-0.1,4.4,0.8,6.2-0.9c14.5-0.7,29-1,43.5-1.1c15.5-0.1,31-0.6,46.5-0.9
			c-0.1,0.8-0.2,1.5-1,1.9c-13.2,0-26.3-0.2-39.5,0.1c-17.6,0.4-35.2,1.2-52.9,2c-1.5,0.1-2.9,0.6-4.4,0.9c-1.8,0.4-4.6,0.7-4.4,2.4
			c0.2,2.3,3.1,2.4,5.2,2.6C306,56.6,314.6,57.7,323.3,58.7z"/>
		<path class="st47" d="M253.3,121c0.3,0.3,0.7,0.7,1,1c9.5,3.2,19.3,3.7,29.3,4.1c8.8,0.4,17.7-0.7,26.6,0.6
			c4.4,0.7,9.2-1.5,13.8-0.7c7.1,1.2,14.1-0.7,21.2-0.1c2.9,0.3,5.2-0.5,6.9-3c1.9,8.9,1.9,8.9-7.5,8.9c-11.9,0-23.9,0.5-35.8-0.1
			c-11.5-0.6-23-0.8-34.4-0.8c-9.8-0.4-19.1-2.5-27.8-6.9c-1.7-0.9-3.5-0.9-5.2,0c-2-1.7-5.7-3.3-3.7-6.4c2.3-3.4,5.3-0.4,7.8,0.9
			C247.9,119.8,250.3,121.4,253.3,121z"/>
		<path class="st48" d="M246.3,93.3c0.6,1,0.6,2,0,3c-4.5-0.8-7.9,1.5-11.2,4c-4.3,3.3-6.9,2.8-9.6-1.9c-1.5-2.6-3-4.6-6.1-5.2
			c-1-0.2-2.5-0.5-2.6-1.9c0-1.7,1.7-1.7,2.9-2.1c8.3-2.8,16.2-2.8,23.6,2.6C244.2,92.3,245.3,92.8,246.3,93.3z"/>
		<path class="st49" d="M241.3,124c0.1-4.4,2.6-2.8,4.6-1.7c6.2,3.6,12.8,5.8,19.8,7.3c2.9,0.6,6-0.9,8.6,1.3
			c-8.3,0.4-16.3-0.8-23.9-4.2c-0.9-0.4-4.5-4-4.1,1.3C243.8,127.6,242.5,125.8,241.3,124z"/>
		<path class="st50" d="M243.3,71.5c1-0.2,2.5-1.5,2.8,0.3c0.4,2.5,1.1,5.2-1.1,7.4c-1,1-2.2,1.6-3.5,0.6c-1.4-1-1.3-2.5-0.8-4
			c0.2-0.8,0.4-1.6,0.6-2.3C242,72.8,242.6,72.2,243.3,71.5z"/>
		<path class="st51" d="M199.6,79.5c1.8,0.6,4,0.8,4.2,2.9c0.2,1.6-1.2,2.8-2.7,2.8c-1.9,0-4.2-0.5-4.4-2.9
			C196.6,80.7,198.3,80,199.6,79.5z"/>
		<path class="st50" d="M252.3,74.5c0.3-0.3,0.7-0.7,1-1c5.7,3,11.7,2.1,17.7,1.2c13.2-2.2,26.3-1.2,40.5-0.5
			c-2.3,2.7-4.5,3.2-6.5,3.2c-10.5,0.2-20.6,3.1-30.9,4.2c-2.7,0.3-5.6,1.7-7.6,3.5c-2.4,2.1-4.5,2.3-7.2,1.3c-0.3-0.3-0.7-0.7-1-1
			h0.1c0.8-0.9,2-1.1,3-1.5c1.3-0.5,2.4-1.3,2-2.9c-0.2-1-1-1.7-2.1-1.6c-1.6,0.1-2.1,1.3-2.3,2.7c-0.1,0.8-0.1,1.6-0.6,2.3
			c-1,0-2,0-3,0c-1.4-1-0.9-2.8-1.8-4.1c-1.5,1-0.7,3.2-2.2,4.1c-0.6-0.8-1.1-1.6-1.8-2.3c-2.5-2.3-2.7-4,1.1-5
			C251.8,76.9,252.3,75.7,252.3,74.5z"/>
		<path class="st52" d="M258.3,84.4c-1.4-2.1-0.8-4,0.6-5.8c1-1.2,2.2-1.2,3.6-0.5s2.7,1.3,2.8,3.1c0.1,1.9-0.9,3.3-2.5,3.8
			c-1.3,0.5-2.9,0.3-4.4,0.4C258.3,85.1,258.3,84.7,258.3,84.4z"/>
		<path class="st53" d="M251.3,84.4c0.5-2.3-1.3-6.5,2.2-6.4c3.6,0.1,1.1,4.2,1.8,6.4C254,85.9,252.6,89.4,251.3,84.4z"/>
		<path class="st54" d="M347.3,49.8c-2,1.9-4.9,0.4-7,1.8c-0.8,0.5-2.7-0.2-2.4,1.6c0.1,1.1,1.3,1.4,2.3,1.5c1.1,0.1,2.4-0.1,3.2,1
			c-3,0.8-6,0.8-9,0c-6.4-0.3-12.9,0.8-19.2-1c-1.4-0.4-3.4-0.4-3.2-2.4c0.3-1.8,2.3-1.5,3.7-1.6C326.1,49.9,336.7,49.5,347.3,49.8z
			"/>
		<path class="st55" d="M334.3,55.7c3,0,6,0,9,0c13.9-0.4,27.9,0.5,41.8,1c1.2,0,2.4-0.1,3.2,1c-12.6,0-25.3,0.3-37.9-0.2
			C345,57.3,339.5,57.4,334.3,55.7z"/>
		<path class="st44" d="M371.2,59.6c-3.8,1.9-7.9,1.3-11.7,0.9c-9.7-1.2-19.4-0.7-29.1-0.9c-1.7,0-3.7,0.6-5.1-1
			c5.2-1.9,10.4-0.3,15.6-0.1c8.4,0.4,16.8,0.1,25.3,0.1C367.8,58.7,369.8,58,371.2,59.6z"/>
	</g>
</g>
</svg>
