<?xml version="1.0" encoding="utf-8"?>
<!-- Generator: Adobe Illustrator 25.0.0, SVG Export Plug-In . SVG Version: 6.00 Build 0)  -->
<svg version="1.1" xmlns="http://www.w3.org/2000/svg" xmlns:xlink="http://www.w3.org/1999/xlink" x="0px" y="0px"
	 viewBox="0 0 522.1 102.1" style="enable-background:new 0 0 522.1 102.1;" xml:space="preserve">
<style type="text/css">
	.st0{display:none;}
	.st1{display:inline;stroke:#FFFFFF;stroke-miterlimit:10;}
	.st2{fill:#595852;}
	.st3{fill:#65625A;}
	.st4{fill:#333636;}
	.st5{fill:#DAD6CC;}
	.st6{fill:#333737;}
	.st7{fill:#939491;}
	.st8{fill:#44433E;}
	.st9{fill:#111213;}
	.st10{fill:#181817;}
	.st11{fill:#1E2121;}
	.st12{fill:#111212;}
	.st13{fill:#525757;}
	.st14{fill:#161716;}
	.st15{fill:#161616;}
	.st16{fill:#5E5C54;}
	.st17{fill:#27292A;}
	.st18{fill:#131415;}
	.st19{fill:#393F41;}
	.st20{fill:#3A3E3E;}
	.st21{fill:#373A3A;}
	.st22{fill:#131313;}
	.st23{fill:#535858;}
	.st24{fill:#8E938C;}
	.st25{fill:#6A6C6A;}
	.st26{fill:#4F5250;}
	.st27{fill:#383938;}
	.st28{fill:#0F1011;}
	.st29{fill:#1D1F1F;}
	.st30{fill:#43494B;}
	.st31{fill:#343A3C;}
	.st32{fill:#1E2021;}
	.st33{fill:#4D4D47;}
	.st34{fill:#717772;}
	.st35{fill:#5D5B51;}
	.st36{fill:#DEEDE8;}
	.st37{fill:#6B706D;}
	.st38{fill:#3A3D3E;}
	.st39{fill:#4E4D47;}
	.st40{fill:#313535;}
	.st41{fill:#BBC8C7;}
	.st42{fill:#6E7574;}
	.st43{fill:#6F6C5E;}
	.st44{fill:#515553;}
	.st45{fill:#9EA6A4;}
	.st46{fill:#2F322F;}
	.st47{fill:#171819;}
	.st48{fill:#CBD6D5;}
	.st49{fill:#5E6463;}
	.st50{fill:#959D9B;}
	.st51{fill:#515655;}
	.st52{fill:#414646;}
	.st53{fill:#D9E5E4;}
	.st54{fill:#595F5E;}
	.st55{fill:#5B6161;}
	.st56{fill:#52514A;}
	.st57{fill:#9F9B8F;}
	.st58{fill:#CBD8D7;}
	.st59{fill:#121212;}
	.st60{fill:#323637;}
	.st61{fill:#888479;}
	.st62{fill:#4F5454;}
	.st63{fill:#797569;}
	.st64{fill:#0F0F0F;}
	.st65{fill:#040404;}
	.st66{fill:#3D4242;}
	.st67{fill:#565B59;}
	.st68{fill:#404545;}
	.st69{fill:#464B4B;}
	.st70{fill:#636968;}
	.st71{fill:#969E9D;}
	.st72{fill:#ADAEAE;}
	.st73{fill:#737A78;}
	.st74{fill:#454949;}
	.st75{fill:#5A5F5E;}
	.st76{fill:#9DA6A4;}
	.st77{fill:#C2C4C3;}
	.st78{fill:#646A69;}
	.st79{fill:#565B5A;}
	.st80{fill:#717773;}
	.st81{fill:#0E1010;}
	.st82{fill:#C5C0B2;}
	.st83{fill:#4A4F4F;}
	.st84{fill:#8C9492;}
	.st85{fill:#8F9795;}
	.st86{fill:#C1BDAD;}
	.st87{fill:#868E8C;}
	.st88{fill:#636867;}
	.st89{fill:#494E4E;}
	.st90{fill:#585E5E;}
	.st91{fill:#2B2F30;}
	.st92{fill:#4E5151;}
	.st93{fill:#2D3132;}
	.st94{fill:#181A1B;}
	.st95{fill:#6B7170;}
	.st96{fill:#6B7270;}
	.st97{fill:#C6C1B4;}
	.st98{fill:#79807F;}
	.st99{fill:#3D4141;}
	.st100{fill:#323737;}
	.st101{fill:#2E3233;}
	.st102{fill:#212324;}
	.st103{fill:#292D2D;}
	.st104{fill:#26292A;}
	.st105{fill:#6D7B7F;}
	.st106{fill:#292C2B;}
	.st107{fill:#939C9A;}
	.st108{fill:#303330;}
	.st109{fill:#5D6362;}
	.st110{fill:#ACBFC2;}
	.st111{fill:#819397;}
	.st112{fill:#222524;}
	.st113{fill:#1F2121;}
	.st114{fill:#5B605F;}
	.st115{fill:#D5E1E0;}
	.st116{fill:#262928;}
	.st117{fill:#9FA8A7;}
	.st118{fill:#A5AEAD;}
	.st119{fill:#1F201F;}
	.st120{fill:#232523;}
	.st121{fill:#323432;}
	.st122{fill:#30312E;}
	.st123{fill:#4B4E4B;}
	.st124{fill:#202120;}
	.st125{fill:#AFBAB9;}
	.st126{fill:#131515;}
	.st127{fill:#111313;}
	.st128{fill:#DAE6E5;}
	.st129{fill:#E4EFEE;}
	.st130{fill:#F7F9F9;}
	.st131{fill:#868E8D;}
	.st132{fill:#1C1E1F;}
	.st133{fill:#1B1E1E;}
	.st134{fill:#1A1D1D;}
	.st135{fill:#1E2020;}
	.st136{fill:#C8D5D4;}
	.st137{fill:#79807E;}
	.st138{fill:#7F8785;}
	.st139{fill:#7A8280;}
	.st140{fill:#7A817F;}
	.st141{fill:#818987;}
	.st142{fill:#8E9694;}
	.st143{fill:#8D9593;}
	.st144{fill:#707775;}
	.st145{fill:#717876;}
	.st146{fill:#99A2A1;}
	.st147{fill:#777E7D;}
	.st148{fill:#949C9A;}
	.st149{fill:#8B8E83;}
	.st150{fill:#2D3131;}
	.st151{fill:#272A2A;}
	.st152{fill:#292C2C;}
	.st153{fill:#212323;}
	.st154{fill:#626968;}
	.st155{fill:#393D3D;}
	.st156{fill:#383C3D;}
	.st157{fill:#6B685F;}
	.st158{fill:#080909;}
	.st159{fill:#FCFCFC;}
	.st160{fill:#222424;}
	.st161{fill:#161818;}
	.st162{fill:#171A1A;}
	.st163{fill:#1A1B1B;}
	.st164{fill:#0C0D0D;}
	.st165{fill:#030303;}
</style>
<g id="Camada_2" class="st0">
	<rect x="-278.9" y="-111.9" class="st1" width="978" height="327"/>
</g>
<g id="Camada_1">
	<g>
		<path class="st2" d="M470,6.2c13.5,1,26.8-2.3,40.2-2.7c5.1-0.2,8.7-0.4,11.8,3.6c0,0.7,0,1.3,0,2c-1.8,1.6-4,1.4-6.1,1.4
			c-7.3,0-14.6,0-21.9,0c-1.2,0-2.5,0.1-3.7-0.2c-0.6-0.1-1.2-0.2-1.8-0.3c-4-1-8.1-0.3-12.1-0.5c-2.1-0.1-4.3,0.3-6.2-0.9
			C469.5,7.9,469.4,7.1,470,6.2z"/>
		<path class="st3" d="M489.6,9.4c1.2,0,2.3-0.1,3.5-0.1c5,2.1,10.1,0.4,15.2,0.9c3,0.3,6,0.1,9,0.1c1.9,0,3.7,0,4.7,2
			c0,2.7,0,5.3,0,8c-0.3,0-0.7,0-1,0c-1.3-4.3-4.5-5.1-8.5-4.6c-6.1,0.7-12.3,0.6-18.4,0c-1.7-0.2-3.3-0.1-4.7-1.4
			c-0.8-0.8-0.9-1.8-0.6-2.8C488.9,10.6,489.2,10,489.6,9.4z"/>
		<path class="st4" d="M166.1,102c-6.7-3.5-14.2-4.7-21.4-6.9c-1-0.3-1.9-0.5-2.6-1.3c-1-1.7-1-3.4,0.1-5.1
			c4.1-7,7.9-14.2,12.3-21.1c0.8-1.2,1.5-3.2,3.2-2.5c1.8,0.7,0.8,2.6,0.5,4c-2.3,4.2-4.1,8.7-7,12.6c-3,3.2-3.2,8.4-7.2,11
			c1.3-0.8,2.6-0.2,3.9,0.1c3.5,1,7,2,10.5,3c2.6,0.8,5.1,2,7.8,2.4c1.2,0.6,2.3,1.3,1.9,2.9c0,0.3,0,0.6,0,0.9
			C167.5,102,166.8,102,166.1,102z"/>
		<path class="st5" d="M522,12.2c-6.1-2-12.4-0.3-18.5-0.9c-2.8-0.3-5.6-0.1-8.4,0c-1.4,0-2.3-0.3-1.9-2c9.6,0,19.2,0,28.8-0.1
			C522,10.2,522,11.2,522,12.2z"/>
		<path class="st6" d="M2.1,35.4c-1.3-1.1,0.2-3.5-1.9-4.2c0-2,0-4,0-6c1.7,0.4,2-1.4,3.1-1.9c0.7-0.7,1.4-0.6,2.1-0.1
			c0.2,0.5,0.3,1,0.3,1.5C5.5,28.5,4.7,32.2,2.1,35.4z"/>
		<path class="st7" d="M229.1,0.2c0,0.7,0,1.3-0.1,2c-4,0.6-8,1.2-11.8-1c0-0.4-0.1-0.7-0.1-1.1C221.1,0.2,225.1,0.2,229.1,0.2z"/>
		<path class="st8" d="M282,41.3c-13.7-0.1-27.4-0.2-41.1-0.3c-0.9,0-1.8,0.6-2.7,0.9c-2-1.3-4.2-0.9-6.3-0.8
			c-17.5,0.8-35.1,0-52.6,0.6c-6.6,0.2-11-1.3-12.5-8.1c-0.5-1-0.9-2-0.8-3.2c3.4-1.2,8.8,1.2,11.9,5.4c0.6-2.8,1-5.2,3.9-6.6
			c2-1,1.5-3.1,0.2-4.7c-0.9-1.1-2.1-1.6-3.4-1.9c-2-0.4-5,0-5.2-2.8s2.8-3.5,4.8-4.3c5.8-2.2,11.8-3.6,17.9-4.7
			c5.4-1.6,11-0.4,16.4-1.7c2.6-0.5,5.2-0.4,7.8-0.4c1.5,0,2.9-0.1,4.4,0c5.3,0.3,10.7-0.4,16,0.3c1.3,0.4,2.7,0.8,3.7,1.8
			c-2.6,3.2,3,5.5,1.2,8.7c-0.1,0.1,1.4,0.3,2.2,0.3c7.9,0,15.8,0,23.7,0c2.9-0.3,6.1,0.9,8.7-1.5c0.2-0.7,0.1,0.2,0.2-0.4
			C283,8,283.1,8,293.7,9.1c2.3,0.9,3.9,2.5,4.9,4.7c-5.7,5.4,2.3,3.3,2.9,5.3c-0.1,2.2-2,1.8-3.6,2.5c2.7,0.4,5,0,7.4,0.1
			c4.9-0.2,9.8-0.2,14.7-0.1c2.1,0,4.4-0.2,5.6,2.1c0.1,0.6,0,1.1-0.3,1.6c-5.9,2.1-12,1.2-18.1,0.6c-3.3-0.3-6.5-1.1-9.6,0.2
			c-0.2,0.6-0.1,1.2,0.1,1.7c0.4,1.5,3.5,1.3,2.2,3.7c-3.5,0.3-4.4,3.1-5.6,5.6c-0.1,1-0.1,1.9-0.2,2.9
			C290.1,42.1,285.9,40.5,282,41.3z"/>
		<path class="st9" d="M463,39.2c-1.9,4.6-6.3,5.9-10.3,6c-35.9,0.2-71.7,0-107.6-0.1c-1.6-3.1-1.1-6.3-0.6-9.5
			c0.6-1,1.6-1.1,2.6-1.1c22.9-0.3,45.9-0.7,68.8,0c4.9,0.2,10-0.4,14.9-0.6c9.7-0.5,19.3,0.6,28.8,2.2
			C461.3,36.2,463.4,36.5,463,39.2z"/>
		<path class="st10" d="M301.1,19.2c-1,0-2,0-2.9,0c-1.6-0.2-3.8,0.7-4-2.2c-0.2-3.1,2-2.7,4-2.8c1.7-1.7,3.9-1.6,6.1-1.5
			c22.1,0.1,44.2-0.1,66.2,0.1c1.7,0,3.3,0.1,4.9-0.4c3.3-0.4,6.6,0.6,9.9,0.4c11.6,0,23.2,0.2,34.8-0.5c4.6-0.3,9.2,1.3,13.8,0
			c10.1,0.5,20.3,0.2,30.5,0.6c2.5,0.1,4.9,0.1,7.3-0.8c5.8,0.1,11.7-1.5,17.4,1c6.4,2.5,13.2,1.5,19.7,1.6c2.1,0,4.3-0.1,6.4-0.4
			c4.7-0.7,6.9,1,5.8,5.9c-6.2,0.1-12.5,0.1-18.7,0.2c-1.9,6-6.7,3.9-10.7,3.9c-0.5-0.1-1-0.3-1.4-0.6c-0.6-0.4-1-1-1.2-1.7
			c-1.7-2.5-2,1-3.1,0.7c-0.9,0.3-1.8,0.3-2.7-0.1c-1.4-0.7-1.6-2.5-2.9-3.3c-0.8,0.9-0.7,2.4-1.9,3.1c-0.4,0.2-0.9,0.4-1.3,0.5
			c-0.7,0-1.4-0.1-2-0.5c-1-0.9-1.3-2.1-1-3.4c-1.1,0.6-1.7,1.9-3.1,2.1c-3,0.5-6,0.4-9,0.1c-7.1-3.2-14.7-2.8-22.2-2.7
			c-4.6,0-9.2,0-13.8,0.1c-18.2-0.1-36.4,0.1-54.6,0c-1,0-2,0.1-2.9,0.4c-0.8,0.4-1.6,0.8-2.5,1.1c-3.9,0.8-7.8,0.3-11.8,0.5
			c-2.5,0.1-4.9,0.2-7.4,0c-13.1,0.2-26.1,0.1-39.2,0.1C305.3,20.3,302.9,21.1,301.1,19.2z"/>
		<path class="st11" d="M463,39.2c-3-4-7.7-2.1-11.5-2.8c-11.1-2.2-22.3-1-33.6-0.4c-9.2,0.5-18.4-0.1-27.6-0.4
			c-12.4-0.4-24.9-0.3-37.3,0.6c-2.7,0.2-5.3-0.2-7.9-1c-1.8-3.1,0.3-3.8,2.7-4c3.1-0.3,6.3-0.2,9.4-0.7c0.9-0.2,1.9-0.3,2.9-0.3
			c1.5,0.1,2.9,0.8,4.4,0.5c0.4-0.1,0.8-0.1,1.2-0.2c0.8,0,1.5,0,2.3-0.2c0.3-0.2,0.7-0.3,1.1-0.4c0.8-0.1,1.5,0.1,2.3,0.2
			c0.4,0,0.8,0.1,1.2,0.1c0.6,0,1.2,0.1,1.8,0.2c1,0.2,2,0.5,3,0.3c0.4-0.1,0.8-0.1,1.3,0c1,0.1,2.1,0.2,3.1,0
			c0.4-0.1,0.9-0.1,1.3,0c2.6,0.4,5.1,0.5,7.7,0c0.4-0.1,0.9-0.1,1.3,0c2,0.3,4,0.1,6,0.1c0.4-0.1,0.8-0.1,1.3-0.1
			c1,0.1,2,0.3,3,0.1c0.4-0.1,0.8-0.2,1.2-0.2c0.4,0,0.8,0,1.3,0.1c0.4,0.1,0.8,0.2,1.2,0.4c3,0.7,6-0.5,9.1-0.2
			c0.4-0.1,0.8-0.1,1.3-0.1c1,0.1,2,0.3,3.1,0.1c0.4-0.1,0.8-0.1,1.3-0.1c0.8,0,1.7,0,1.9-1c0.3-1.5,0-3.1,0.4-4.6
			c0.5-1.4,0.9-2.8,2.7-3c1.5,0.9,1.5,2.9,2.5,4.1c7.7,1.6,15.4,0.6,23.1,0.5c0.5,0,1,0,1.4,0.2c3.2,4.1,5.3,4.4,10.3,1.1
			c0.5-0.1,1,0,1.5,0.3c1.1,0.9,1.5,2.2,1.8,3.5c0.7,3,3.1,2.9,5.5,3c4.6,0.1,9.2-0.2,13.8,0.1c1.7,0.1,4.2-0.5,4.3,2.5
			c-7.3-0.1-14.7,0.2-21.9-0.3C465.5,36.8,465,39.2,463,39.2z"/>
		<path class="st12" d="M167.1,32.1c0.2,0.2,0.6,0.4,0.7,0.7c1.5,7.8,7.2,7.5,13.4,7.4c17.5-0.3,35-0.1,52.4,0c1.6,0,3.9-1,4.4,1.8
			c-4.5,0.8-9.9-1.1-13.1,4.1c-1.5,0.7-3,0.2-4.5-0.2c-6.3-3.8-12.8-3.2-19.4-0.7c-1.5,0.6-3,0.4-4.5-0.1c-2.9,1.1-2,5.1-4.8,6.2
			c-0.7-0.1-1.4-0.6-1.3-1.2c0.5-3.5-1.7-4.4-4.4-4.8c-5.5-1.7-11.2-0.4-16.8-0.9c-2.1,0-4.1-0.3-5.3-2.3
			c-8.9,4.9-18.1,3.2-27.1,0.7c-2.6-0.7-5.2-0.2-7.8-0.8c-0.5-2.1,1.1-2.9,2.5-2.9c2.8-0.1,3.5-1.9,4.1-3.9c1.2-1.3,2.9-1.4,4.6-1.7
			c0.5,0,0.9,0,1.4,0.1c2.9,0.2,5.7,1.7,8.7,0.6c1.2-0.3,2.3-0.2,3.5,0C158.7,35.8,162.9,34.1,167.1,32.1z"/>
		<path class="st13" d="M169.1,43.1c4.8,0,9.5-0.1,14.3-0.1c1.6,0,3.5-0.4,3.8,2c1.7,2.3,1.4,4.9,1.3,7.5c-1.5,5.1,2.7,6,5.8,7.7
			c-3.5,0.7-7.1,0.9-10.2,2.8c-1.8,0-2.1,2.5-4,2.3c-1.2-0.4-2-1.3-2.4-2.4c0-3.7-2.3-5.1-5.5-6s-4.5,1.3-5.8,3.4
			c-3.4,5.5-7,10.8-10.3,16.3c-1.2,1.9-2.1,4.2-4.6,4.9c-0.5,0-0.9-0.2-1.2-0.5c2.3-4,4.6-8,7-11.9c2.7-5.2,5.4-10.5,8.9-15.4
			c1.1-1.5,1.3-3.3,1.2-5.2C167.2,46.5,167.6,44.6,169.1,43.1z"/>
		<path class="st14" d="M489.9,37.3c-1.7-2.2-4-1.1-6-1.1c-4.6-0.2-9.3-0.3-13.9,0c-4,0.3-5.6-1.1-5-5c1.9-1.7,4.3-1.5,6.6-1.5
			c9.4,0,18.8,0.1,28.2-0.3c3.4,0.2,6.7,0.5,10.1,0.6c0.5,0,0.9,0.1,1.4,0.2c1.6,0.9,3.2-1,4.9-0.1c1.7,4.8-0.8,8.1-6.8,8
			c-4.9-0.1-9,1-13.3,3.6C492.5,43.8,491.2,40,489.9,37.3z"/>
		<path class="st15" d="M294.1,37.3c-1-4.9,1-7,6-6.2c1.8-1.7,4-1.4,6.1-1.4c9.4,0,18.8,0,28.2-0.1c2,0,4.5,0.6,5.4-2.2
			c1.5-1.3,0.8-6.3,5.1-3c0.7,4.5-0.7,8.6-1.9,12.8C326.7,37.2,310.4,37.2,294.1,37.3z"/>
		<path class="st16" d="M501,31.1c-12,0-24,0.1-36,0.1c0.2-1.1-0.5-1.9-1.1-2.8c1.5-2.1,3.8-1.6,5.9-1.7c6-0.2,11.9,0.2,17.8-0.3
			c2.6-0.8,5.2-0.2,7.9-0.4c-2-0.1-4,0.2-5.7-1.2c-0.3-0.7-0.3-1.4,0.4-1.9c1.8,0.1,3.6-0.1,5.3,0.2c3,0.5,5-0.7,6.7-2.9
			c-0.4,1.1-1,2.2,0.7,2.8c0.4,0.3,0.7,0.7,0.8,1.2c0.3,1,0.2,1.9-0.2,2.8C503,28.5,501.8,29.7,501,31.1z"/>
		<path class="st17" d="M180.2,65.1c1.5-0.3,1-4.4,3.9-2.1c-3.7,7.3-7.4,14.6-11.1,22c-1.8,2.1-2.4,0.8-2.8-1
			c0.2-3.6,2.5-6.4,3.9-9.5C176.7,71.7,175.8,66.7,180.2,65.1z"/>
		<path class="st18" d="M194.3,60.2c-0.3-0.1-0.7-0.3-0.9-0.2c-5.8,1-7.1-1.9-6.2-6.8c1.9-1.7,4-0.5,6-0.4c2.1,1.4,3,3.6,3.5,6
			c0,0.5-0.3,0.9-0.6,1.2C195.5,60,194.9,60.1,194.3,60.2z"/>
		<path class="st19" d="M343.1,37.2c-0.5-4.4,0.9-8.7,1.1-13.1c0.5-0.3,1-0.2,1.4,0.3c0.3,0.4,0.5,0.9,0.7,1.4c0.2,3.1,2.1,4,4.9,4
			c2.4,0,4.9-0.6,6.9,1.3c-3.1,1.8-6.5,1.1-9.8,1.1c-2.3,0-3.4,0.5-3.1,2.9c0,3.3,0,6.6-0.1,9.9C341.1,43.3,344.1,39.7,343.1,37.2z"
			/>
		<path class="st20" d="M171,83.9c0.1,1.4,0.7,1.9,2,1.1c-0.7,2.9-2.2,5.5-3.8,8c-0.5,0.4-0.8,1-1.2,1.5c-0.6,0.8,0,2.7-1.8,2.3
			c-1.3-0.3-1.2-1.7-1.3-2.8C166.9,90.6,166.2,85.6,171,83.9z"/>
		<path class="st21" d="M503,24.3c0-0.4,0-0.8,0-1.2c5.2-1.6,9.7-0.2,13.9,3c-0.8,0.9-1.8,1.2-3,1.2C510.3,26.1,506.5,25.9,503,24.3
			z"/>
		<path class="st22" d="M282,41.3c3.8-2.6,8-0.6,12-1.2c0.1,0.8,0.4,1.9-0.7,1.9C289.5,42,285.6,43.2,282,41.3z"/>
		<path class="st23" d="M166.1,93.9c0.1,0.7,0.2,1.5,0.3,2.6c1-1.5,1.2-3.2,2.9-3.5c-0.1,1.2-1.5,2.6-0.2,3.7
			c2.5,2.1,0.9,3.2-0.9,4.3c-0.3-1.2-1.2-1.7-2.2-2.2c-0.9-0.5-1.6-1.2-1.7-2.3C164.3,95.3,164.2,94,166.1,93.9z"/>
		<path class="st24" d="M514.1,26.4c0.9-0.1,1.9-0.2,2.8-0.4c-0.2,1.4,1.1,3-0.8,4.1c-1.5,0-2.3,2.8-4.2,1.2
			C510.8,28.8,511.7,27.3,514.1,26.4z"/>
		<path class="st25" d="M222.9,52c-1.5,4.2-4,7.4-8.8,8c-0.6-0.3-1.3-0.6-1.2-1.5c3.2-2.1,6.3-4.3,8.5-7.6
			C222.3,50.7,222.6,51.3,222.9,52z"/>
		<path class="st26" d="M212.9,58.9c0.4,0.3,0.8,0.7,1.2,1c-6,0.2-12,0.7-18,0c-0.1-0.3,0-0.7,0.1-1
			C201.8,56.8,207.3,56.8,212.9,58.9z"/>
		<path class="st27" d="M222.9,52c-0.3-0.3-0.5-0.6-0.8-0.9c-1.4-1.8-2.2-3.6-1.1-5.9c1.5-0.3,2.8,0.2,4,0.9
			C225,48.3,223.6,50,222.9,52z"/>
		<path class="st28" d="M109.2,51.1c0.4,2.9-1,2.9-3,1.8c-2.5-3.8-7.4,0.2-10-3.2c-0.6,1.6-0.8,3.5-3.3,2.9c-4.7-5.1-8.5,0-12.7,1.2
			c-0.9,0.3-1.9,0.3-2.8,0c-3.4-2.8-7.5-1.7-11.3-2.2c-2.1-1.6-4.3-1-6.6-0.5c-5.6,1.3-11.2,2.8-17,3.5c-1.9,0.2-3.9,0.4-4.6-1.8
			c-0.7-2.3,1.1-3.1,2.6-3.7c-2.8-0.1-5.2,2.1-8,2.9c-4.8,0.5-7.9,4.1-11.9,6.2c-5.5,1.4-6.9,0.6-8.3-4.6c-0.7-2.7-1.3-5.5-1.7-8.3
			c-0.3-1.7-0.9-3.7,1.1-5c1.9-0.8,3.9-0.6,5.9-0.6c26.9-0.1,53.8,0.2,80.8-0.2c1.8,0,3.7,0.1,5.4,0.8c1.6,0.8,2.7,2.1,2.6,3.9
			C106.5,46.9,107.7,49,109.2,51.1z"/>
		<path class="st29" d="M80.2,53.1c1.7-1.9,4.3-2.3,6.3-3.6c3.2-2.1,5.1-1.2,5.8,2.5c-1.5,1.5-3.6-0.1-5.1,1.1
			c-17.4,13.3-35.8,25.3-54,37.5c-4,2.7-5.9,7.1-10,9.3c-1.8,0.2-3.6,0.1-5.4,0.5c-3.9,0.9-6.8-0.3-7.8-4.3c-1-3.9-1.1-7.9-0.9-11.9
			c0.4-1.1,1.1-1.6,2.3-1.3c1.9,2.1,1.8,4.8,2.3,7.3c1.1,5.1,4.1,6.9,9.1,5.7c0.3-0.3,0.7-0.6,1-0.9c1.5-1.8,2.4-4.2,4.9-5.1
			c1.8-0.9,3.2-2.3,4.6-3.6c10.2-6.5,20-13.6,29.9-20.6c3.1-2.2,6.4-4.1,9.6-6.2C75.3,57.6,78.8,56.6,80.2,53.1z"/>
		<path class="st30" d="M169.1,43.1c0.4,10.7-6.1,18.1-12,25.9c0.2-1.1,0.4-2.1,0.9-4.6c-6.3,9.1-10.8,17.7-15.5,26
			c-0.5,0.9-0.3,2.2-0.4,3.4c-2.3-1.2-2.6-2.6-1.2-5c6.7-11.2,12.5-23,20.1-33.6c3.3-4.6,3.6-8.3,3-13.1
			C165.7,42.7,167.3,43.4,169.1,43.1z"/>
		<path class="st31" d="M136.3,35.2c0.2,2.9-0.6,5-4.1,4.9c-1.4-0.1-2.5,0.7-3.1,2c-6.9,0-12.6,5.4-19.8,4.1
			c-0.1-0.2-0.3-0.4-0.4-0.6c0.3-1.3,1.3-1.8,2.3-2.5c0.7-0.5,1.5-0.8,2.1-1.4c-1.2-2.5-3.5-1.4-5.4-1.8c-1.6-2.5-1.6-5-0.1-7.6
			c6.7,3.5,13.9,2.2,21,2.2c2.3,0,4.7-0.5,7,0.1C136,34.9,136.2,35.1,136.3,35.2z"/>
		<path class="st32" d="M87.2,53.1c1.4-1.7,3.4-0.7,5.1-1.1c2.9-2.8,6.6-1.8,10-1.8c2,0,3.6,0.4,3.9,2.8
			C99.8,51.5,93.5,53.4,87.2,53.1z"/>
		<path class="st32" d="M109.2,51.1c-4.7-1.4-3.6-5.5-4.1-8.8c0.4-1.3,1.4-2,2.6-1.5c2.3,1.1,1.1,3.4,1.4,5.2l0.3,0.2
			C109.3,47.8,109.2,49.5,109.2,51.1z"/>
		<path class="st33" d="M195.2,12.1c-5.9,1.4-11.9,2.6-17.6,4.9c-1.4,0.6-3.9,0.9-3.7,2.8c0.3,2,2.7,1.3,4.2,1.4
			c3.6,0.1,5.3,2.3,6.3,5.3c0.2,0.5,0,1.7-0.3,1.8c-4.3,2.3-4,7.9-8.3,11.3c0.8-8.1-6.1-6.8-9.7-9.4c-2,1.3-3.3-0.3-4.7-1.2
			c-1.6-1.9-2.7-4.1-2.6-6.7c0.9-1.2,2.2-1.1,3.4-1.3c-0.1,0-0.1-0.4-0.1-0.4l-0.4-0.1c-4.9,0-9.8,0.3-14.7-0.2
			c-0.5-0.1-1-0.3-1.4-0.6c-0.2-0.2-0.4-0.4-0.5-0.6c-0.1-1.5,0.6-2.2,2.1-2c5.6-0.5,11.4,0.9,17-0.8c4,0.2,6.9-2.8,10.6-3.3
			c2.2-1.1,4.9-1.4,6.4-3.7c0.6-0.1,1.3-0.1,1.9-0.2c3.1,0.9,6.1,0.1,9.2-0.4C194.8,8.3,196.8,8.8,195.2,12.1z"/>
		<path class="st34" d="M130.3,35.3c-6.1,1.9-12.3,0.8-18.5,0.6c-2.2-0.1-2.3-2.6-3.6-3.7c-0.3,0-0.5,0-0.8,0
			c-3.1-1.4-6.4-2.5-9.8-2.7c-2.3-0.1-3.9-1.4-5.4-2.9c-1.6-0.7-3.2-0.8-4.9-0.8c-20.1,0-40.2,0-60.4,0c-0.8,0-1.7,0.1-2.5,0.3
			c-2.6,0.7-1.4,3.9-3.7,5.3c-2-2.8-4.6-5-8.3-5.4c-1.2-0.1-2-1.2-1.2-2.6c5-2.1,10,0,15,0.1c21.1,0.2,42.1,0.3,63.2-0.1
			c5.2-0.1,10.4-1.2,15.7-1.1c2.4,0,4.3,0.5,5.2,2.9c0.5,0.6,0.9,1.3,1,2.1c0.2,1.3,0.2,2.5,0.4,3.8c0.7,2.8,2.9,2.7,5.1,2.8
			c4.1,0.2,8.3-0.5,12.3,0.5C129.6,34.5,130,34.8,130.3,35.3z"/>
		<path class="st35" d="M195.2,12.1c0-3.7-3-3.9-4.6-2.4c-3.2,2.9-5.2,1-7.6-0.7c11-1.4,21.9-3.8,33-4.2c0.3,0.4,0.4,0.8,0.3,1.3
			c-0.9,2.1-2.6,2.8-4.7,2.9c-0.2,0-0.9-0.2-0.7,0.3c0.1,0.3,0.8,0.4,1.2,0.8C206.6,12.2,200.7,10.4,195.2,12.1z"/>
		<path class="st36" d="M110.1,27.2c0-0.7,0.1-1.4,0.1-2c6.7,0,13.4,0.1,20,0.1c1.5,1.4,2.2,3.1,1.2,5.1c-0.5,0.7-1.2,1.2-2.1,1.3
			c-4-0.2-8-0.3-11.9-0.1C114,31.7,111.4,30.7,110.1,27.2z"/>
		<path class="st37" d="M11.2,23.3c0.3,2.1,2,1.8,3.4,1.8c3.2,0.2,5.9,1,6,5.3c1.5-2.2-0.6-4.8,2-6.1c1.1,1.4,1,3,1,4.6
			c0,1.1-0.1,2.1-0.5,3.1c-2.9,2.9-5.5,1-8.2-0.4c-0.6-0.3-1.2-0.7-1.8-1.1c-2.2-1.5-5.7,0.6-7.4-2.6c-1-1.5,0.5-3.2-0.5-4.7
			c-0.6,0-1.2-0.1-1.8-0.1C6,21.2,8.6,20.4,11.2,23.3z"/>
		<path class="st38" d="M136.3,25.2c2.1-1.2,4.9-0.6,6.7-2.5c1.3,0.6,1.8,1.8,2.5,2.9c0.2,0.4,0.2,0.8,0.2,1.3
			c-0.1,0.7-0.2,1.3-0.2,2c0,0.5,0,0.9,0,1.4c-0.1,1.5,0,3-1.3,4.1c-1,0.2-2,0.4-3-0.3l0,0c-0.8-2.8-3.9-2.9-5.6-4.7
			C134.9,27.9,134.9,26.4,136.3,25.2z"/>
		<path class="st39" d="M216.1,6.2c0-0.4-0.1-0.9-0.1-1.3c1.1-1,0.8-2.4,1.2-3.7c3.9,0.4,8-0.9,11.8,1c0.1,0.3,0.2,0.5,0.2,0.8
			c0.9,2.8-0.8,3.7-3,4.3c-3.2,0.1-6.4,0.7-9.5-0.5C216.5,6.6,216.3,6.4,216.1,6.2z"/>
		<path class="st33" d="M145.1,26.1c-1.5-0.6-2.1-1.8-2.2-3.4c-0.3-0.2-0.3-0.4-0.1-0.7c4.1-2.2,8.5-1.2,12.8-1
			c2.5,0.9,2,2.6,1.1,4.3c-1,1.8-2.8,1.9-4.2,1C150,24.8,147.7,25.1,145.1,26.1z"/>
		<path class="st40" d="M164.1,16.3c-0.3,0.5-0.7,1.5-1,1.5c-5.3,0.1-10.7,1.2-15.9-0.7C152.7,14.6,158.4,15.9,164.1,16.3z"/>
		<path class="st41" d="M136.3,25.2c0,1.6-0.1,3.3-0.1,4.9c-0.1,0.2-0.3,0.4-0.4,0.5c-0.8,0.7-2,1-2.8,1.7c-0.6,0.5-1.2,1.3-2,0.4
			c-0.7-0.8-0.5-1.7,0.1-2.6c-0.3-1.7-0.6-3.3-0.9-5C132.3,25.2,134.3,25.2,136.3,25.2z"/>
		<path class="st42" d="M157.2,22.2c-4.8-0.1-9.6-0.1-14.3-0.2c-0.9-2.2,1.5-1.9,2.2-2.9h0.1c2.7,1.9,5.8,0.7,8.7,1
			c3.7,0.4,7.6-0.9,11.2,0.9c-1.6,2.1-4,0.6-5.9,1.2C158.5,22.8,157.8,22.8,157.2,22.2z"/>
		<path class="st8" d="M181.1,9.3c-0.5,4-3.7,3.5-6.4,3.7C176.1,10.5,178.8,10.2,181.1,9.3z"/>
		<path class="st43" d="M226.1,6.2c2.1-0.1,2.9-1.3,3.1-3.2c1.3,2.4,3.6,1.9,5.7,1.9c18.4,0,36.8,0,55.2,0c1,0,2,0.2,3,0.3
			c0.6,0.7,1.4,1.3,1.7,2.4c0.2,1,0.1,2-0.7,2.7c-0.5,0-1,0-1.5,0.1c-3.1,0.1-6.8-0.8-9.3,0.5c-2.9,1.5-0.4,5.5-1.4,8.3
			c-0.1,0.4-0.6,0.8-0.9,1.2c-1.2-1.1-1.2-2.6-1.3-4.1c0-1.1-0.2-2.3-0.3-3.4c0.1-1.3,0.1-2.6-1-3.6c-11.5-1-22.9-0.5-34.4-0.2
			c-0.5,0.1-1,0.2-1.5,0.2c-6.1-0.3-12.3-0.3-18.3,1.1c-1.4,0-2.8,0-4.1,0.1c-0.6-1.4-0.1-2.4,1.1-3.2
			C222.8,6.3,224.6,7.2,226.1,6.2z"/>
		<path class="st44" d="M294.1,7.2c-0.8-0.4-1-1.2-1-2.1c25.6,0.1,51.2,0.1,76.9,0.2c0.3,0.6,0.2,1.1-0.4,1.4
			c-2.2,1.1-4.5,0.6-6.8,0.8c-2.3,0-4.6,0-6.9,0c-4.1,0.2-8.3-0.5-12.4,0.8c-15.9,0.3-31.8,0.6-47.8-0.1
			C295.1,7.9,294.6,7.6,294.1,7.2z"/>
		<path class="st45" d="M370.2,6c-0.1-0.2-0.2-0.5-0.3-0.7c19.5,0,38.9-0.1,58.4-0.1c9.6,0,19.3,0.1,28.9,0.2c1.6,0,3.3-0.4,4.9,0.6
			c-0.8,1.1-1.9,1.3-3.2,1.5c-2.4,0.1-4.8,0.1-7.2,0.1c-3.7,0-7.4,0-11,0c-12.4,0-24.8,0-37.2,0c-2.8,0-5.6,0-8.4,0
			c-3.9,0-7.9,0-11.8,0c-2.7,0-5.4,0-8.1,0C373.4,7.4,371.5,7.7,370.2,6z"/>
		<path class="st46" d="M459.1,6.4c1-0.1,2-0.3,3-0.4c2.6,0.1,5.3,0.1,7.9,0.2c0,0.6,0,1.2-0.1,1.8c-3.3,2.6-6.9,1.7-10.5,0.8
			C458.5,8.1,458.4,7.3,459.1,6.4z"/>
		<path class="st47" d="M11.1,83c-0.7,0.4-1.4,0.8-2,1.2l0,0C8,80.9,9.5,77.4,8.2,74.1C6.1,61.2,4.1,48.3,2,35.4c1-3.7,2-7.4,3-11.1
			c1.2,3.9,1.5,8,2.4,12c1.7,10.4,4.1,20.8,4.7,31.4C12.6,72.7,14.1,78.1,11.1,83z"/>
		<path class="st29" d="M8.2,74c2,3.2,0.7,6.7,0.9,10.1C7.9,80.9,8.4,77.4,8.2,74z"/>
		<path class="st45" d="M459.1,8c3.6,0,7.2,0,10.9,0c4.8,0.1,9.6,0.1,14.4,0.2c1.6,0,3.4-0.7,4.7,0.9c-2.5,2.3-5.6,1.2-8.4,1.4
			c-3.1,0.2-6.2-0.1-9.3,0.2c-0.5,0.2-1,0.3-1.6,0.4c-3.1,0.4-6.2,0.4-9.4,0.1c-0.5-0.1-1-0.2-1.4-0.3c-2.2-0.8-4.4-0.8-6.7-0.1
			c-0.5,0.2-0.9,0.3-1.4,0.3c-2.9,0.3-5.8,0.3-8.7,0c-0.5-0.1-0.9-0.2-1.4-0.3c-2.1-0.8-4.1-0.6-6.1,0.1c-0.5,0.1-1,0.2-1.5,0.3
			c-2.9,0-5.9,0.6-8.7-0.6c-0.5-0.3-0.7-0.8-0.6-1.4c3.1-2.8,7.2-0.8,10.6-2.1c3.8-0.2,7.6,0,11.4-0.1c2.1,0,4.1,0,6.2,0
			C454.4,7.4,456.9,6.7,459.1,8z"/>
		<path class="st48" d="M470,10c6.3-1.9,12.7-0.4,19-0.9c0.2,0.1,0.4,0.2,0.6,0.2c0.1,0.5,0.2,1,0.3,1.4c-2.7,2.2-6,0.9-9,1.3
			c-2.4,0.3-4.9-0.5-7.4,0C472,12.3,470.5,11.8,470,10z"/>
		<path class="st49" d="M470,10c3.4,2.7,7.2-0.6,10.9,0.9c2.6,1,6,0,9-0.1c-0.3,0.7-0.6,1.5-0.8,2.2c-6,0.1-12,0.2-17.9,0.3
			c-0.8,0.4-1.3,0-1.6-0.7c-0.2-0.7-0.1-1.4,0.4-2C469.9,10.4,470,10.2,470,10z"/>
		<path class="st30" d="M150.2,81c0.3,0,0.7,0,1,0.1c1,3.9-2.5,6.8-2.2,10.5c-0.3,1-1.1,1.7-1.8,2.4c-1-0.4-2.1-0.8-3.5-1.3
			C145.9,88.7,148.1,84.8,150.2,81z"/>
		<path class="st50" d="M165.1,97c0.3,0.6,0.5,1.2,0.8,1.9c-2.8,0.5-5.1-1.2-7.5-2.1c-0.5-0.8,0.1-1.2,0.6-1.7c3-1.2,3.4-4.8,6-6.4
			c2.5,0.6,1.4,1.9,0.8,3.3C165.2,93.6,163.5,95.1,165.1,97z"/>
		<path class="st51" d="M159.2,96c-0.2,0.3-0.5,0.6-0.7,0.8c-3.7-1-7.5-1.9-11.2-2.9c0-0.8,0.2-1.5,1-1.9
			C152.4,91.9,156.4,92.2,159.2,96z"/>
		<path class="st52" d="M6.2,36.1c-1.6-3.8-0.9-7.9-1.1-11.9c0.1-0.3,0.1-0.6,0.1-1C7,24.5,5.9,26.4,6.3,28c0.9,3.3,3.9,4,6.5,5.3
			c0.7,1.8,0.2,3.4-0.7,5C8.5,41.6,8.1,37.1,6.2,36.1z"/>
		<path class="st53" d="M280,9.3c0.7,1,2.1,1.9,0.3,3.1c-1.9,2-5.3-0.1-6.9,2.5c-3.4,1-0.4,4.5-2.3,6.1c-8.5,0.1-16.9,0.1-25.4,0.2
			c-1.3,0-3.2,0.3-3.5-1.1c-0.6-2,2.1-1.3,3-2.4c-1.5-1-4.1,0.4-4.2-2.9c0-2.7,1.7-2.8,3.3-3.5c0.6-1,1.6-1.2,2.6-1.6
			c0.8-0.3,1.5-0.5,2.3-0.7c9.8-0.3,19.5,0,29.3-0.4C279.1,8.6,279.6,8.8,280,9.3z"/>
		<path class="st54" d="M294.1,7.2c0.4,0,0.8,0.1,1.3,0.1c3,1.9,6.4,0.1,9.5,1.2c3.7,3.1,6.9,3.3,10.7,0.5c0.4-0.3,0.8-0.6,1.3-0.7
			c2.6-0.1,5.2-0.6,7.6,0.9c4,2.5,8,2.1,12,0.1c2.4-0.7,4.8-0.7,7.2,0c4.2,2.2,8.4,1.9,12.7-0.1c2.5-0.6,5-0.7,7.4,0.1
			c3.3,2.5,7.4,0.6,11,2c0.8,0.4,1.3,1,1.5,1.9c-7.9,1.9-15.9,0.6-23.8,0.7c-18.1,0.3-36.3,0.1-54.4,0.2c-1.7-1-3.1-2.2-4-4
			C294.1,9.2,294.1,8.2,294.1,7.2z"/>
		<path class="st55" d="M345,24.2c-0.3,0-0.6,0-0.9-0.1c-3-0.8-1.2,2.7-2.9,3.1c-0.5,0.4-1,1.4-1.5,1.2c-4.6-2.4-10.1-0.9-14.6-3.3
			c-0.4-2.4-2.2-2-3.8-2c-5.7,0-11.5-0.1-17.2-0.1c-0.7-2.5,1.6-2.8,2.9-3.9c13.4,0,26.7,0.1,40.1,0.1
			C347.3,21.3,346.4,22.9,345,24.2z"/>
		<path class="st56" d="M325.1,25.1c4.6,0.6,9.8-1.6,13.8,2.5c0.3,0.3,1.5-0.3,2.3-0.5c0.1,3.4-2,4-4.9,4C324.2,31,312.1,31,300,31
			c-0.8-1.6-4.3,0-3.8-3.2c1.7-1.4,3.8-1,5.7-1c9.7,0,19.5-0.4,29.1,1c-2.3-0.3-4.6,0.1-6.9-0.5c-0.8-0.9-0.2-1.5,0.5-2L325.1,25.1z
			"/>
		<path class="st57" d="M324.1,26.1c3.8,2.5,8.1,0,12.8,1.7c-14,0-27.3,0-40.5,0c0-0.5,0-1,0-1.4c0.9-1.3,2.3-1.3,3.6-1.2
			C307.9,25.9,316,25.1,324.1,26.1z"/>
		<path class="st58" d="M271.1,21c-0.1-2.4-1.3-4.9,1.1-6.9c3.2-1.3,6.3-1.9,9,1.1c0,1.7,0,3.3,0,5C277.9,22,274.4,20.8,271.1,21z"
			/>
		<path class="st59" d="M324.1,26.1c-9.2,0.4-18.5-0.8-27.8,0.2c-0.6-0.3-1.4-0.5-1.6-0.9c-0.4-1.2,0.6-1.3,1.4-1.3
			c2.7-0.1,5.4-0.6,7.9,0c6.9,1.6,13.8,0.6,20.7,1.1C324.6,25.6,324.3,25.9,324.1,26.1z"/>
		<path class="st60" d="M162.1,28.2c1.4,0.5,2.3,2.1,4,2c0.3,0.7,0.7,1.3,1,2c-3.5,4.8-8.1,4.7-13,3.1c2.1-1.7,6.2-1.6,5.6-5.8
			C160.2,28.3,161.3,28.6,162.1,28.2z"/>
		<path class="st61" d="M224.2,10c4.2-3.7,9.5-1.3,14.1-2.5c0.9-0.2,2.6-0.8,3.7,0.5c0.8,1.3-0.1,1.7-1.1,2.1
			C235.4,10.1,229.8,10,224.2,10z"/>
		<path class="st62" d="M307.1,19.2c-1,1.3-2,2.6-2.9,3.9c-2.2,0-4.3,0.1-6.5,0c-1.2,0-3.1,0.5-3.2-1.3c-0.2-2,1.7-1.5,3-1.6
			s2.7,0.3,3.7-1C303.1,19.2,305.1,19.2,307.1,19.2z"/>
		<path class="st63" d="M221.1,7.2c-0.3,1-0.7,1.9-1,2.9c-2.7,0-5.3,0.1-8,0.1c-0.7-0.1-1.6,0.1-1.9-0.3c-1-1.1,0.3-1.5,0.9-1.5
			c2,0,3.4-1.2,4.9-2.2l0,0C217.6,7.4,219.6,6,221.1,7.2z"/>
		<path class="st64" d="M194.1,19.2c-0.1,1.3-0.6,2.6-2.2,2.5c-1.2,0-2.1-1-2.3-2.2c-0.3-1.7,0.9-2.3,2.3-2.4
			C193.2,17.1,194.1,17.7,194.1,19.2z"/>
		<path class="st65" d="M241,10.1c0.4-0.7,0.7-1.4,1.1-2.1c0.3,0,0.6,0,0.9-0.1c1.4-0.3,2.8-0.4,4.2,0c0.8,1.1,0.8,2.1-0.2,3
			c-0.9,0.1-1.8,0.2-2.7,0.3C243.2,10.7,241.7,11.5,241,10.1z"/>
		<path class="st66" d="M423.9,31c-1.2,2.1-2.5,0.6-3.8,0.2c-2.2-3-0.6-6.3-0.9-9.4c0.1,3.2-1.2,6.5,0.9,9.5
			c-1.4,1.8-2.7,0.4-4.1-0.1c-1.5-2.1-1.7-4.4-1.1-6.9c-0.7,2.5-0.5,4.8,1.1,6.9c-3.7,0.5-7.3,2.6-11,0c2-2.2,0.4-5,1.3-7.3
			c-0.9,2.4,0.6,5.1-1.3,7.3c-0.6,0-1.2,0.1-1.9,0.1c-1.4-1.1-1-2.7-1.1-3.8c0,1.2-0.3,2.7,1.1,3.9c-1.4,1.6-2.7,0.5-4-0.1
			c-1.7-1.7-0.9-3.9-1.1-5.9c0-0.4,0-0.8,0-1.3c0,0.5,0,0.9,0,1.4c0.2,2-0.7,4.2,1.1,5.8c-2.4,1.2-4.8,1.2-7.2,0
			c0.1-0.4,0.3-0.8,0.5-1.2c0.6-2.4,1.4-4.7,0.4-7.2c-0.7-0.2-1.5-0.2-2.2-0.5c-1.9,2.6-0.1,5.1,0.1,7.6c0.2,0.4,0.3,0.8,0.4,1.3
			c-3,1.5-6,1.2-9,0c-2.1-2.5-0.8-5.2-0.8-7.9c0,2.7-1.2,5.4,0.8,7.9c-1.3,1.7-2.6,0.5-3.9,0c-1.4-1.1-1-2.7-1.1-4.1
			c0.1,1.5-0.3,3,1.1,4.1c-1.6,1.7-2.9,0.3-4.3-0.3c-3.1-2.7-0.6-6.1-1.1-9.1c-0.1-0.7,0,0.2-0.2-0.5c-0.6,0.2,0.1,0.6-0.1,0.9
			c-0.5,2.9,0.3,6.1-1.4,8.8c-0.6-0.3-1.2-0.6-1.8-0.9c-2.7-2.7-1.1-5.8-0.7-8.8c0.3-1.5-0.8-2.3-1.5-3.3c0.8-1.1,2-1,3.2-1
			c18.6,0,37.2,0.1,55.9,0.1c0.1,2-2.7,2-2.7,3.9c-0.1,1.3-0.2,2.6-0.4,3.9C423.3,27.1,422.4,29.2,423.9,31z"/>
		<path class="st67" d="M440,17.3c7.6-0.4,15.3-0.8,22.3,3.1c1.8,0.6,3.5,1.3,1,3.2c-1,0.2-1.8-0.1-2.7-0.4c-2.3-1-4.5-2.5-7.2-2.5
			c-2.5,1.2-0.3,4.5-2.6,5.8c-0.7,0.2-1.4,0.2-2-0.2c-1.2-1.2-0.5-2.7-0.9-4c0.1,1.4,0.3,2.8-0.8,4.1c-1.9,0.9-2.5-0.8-3.4-1.8
			c-0.3,2.1-1.5,2.6-3.4,2.1c-2.5-1.9-0.4-5.3-2.4-7.3C437.4,17.5,439.2,17.9,440,17.3z"/>
		<path class="st68" d="M434.1,13.4c-4.7,2-9.4,0.2-14.1,0.3c-11.7,0.2-23.4,0.3-35,0.4c-0.6-0.9-0.5-1.6,0.3-2.3
			c2.7-1.4,5.6-1,8.5-0.6c3.5,0.9,7,0.9,10.5,0c3.6-0.8,7.3,0.1,10.8-1c3.1-0.5,6.1-0.7,9.2-0.5c0,0.2-0.1,0.4-0.2,0.6
			c3.1,2.2,6.9-0.2,10.1,1.7C434.5,12.4,434.5,12.9,434.1,13.4z"/>
		<path class="st69" d="M434.1,13.4c0-0.4-0.1-0.9-0.1-1.3c-0.6-0.6-0.6-1.2,0-1.9c0.4,0,0.7-0.1,1.1-0.1c2,0.2,4-0.2,5.9,0
			c0,0.2,0,0.3,0.1,0.5c3.7,0.9,7.3,1,10.9-0.1c0-0.2,0.1-0.4,0.1-0.6c2.3,0.4,4.6,0.3,6.9,0.1v0.5c3.4,1.8,7.4-0.5,10.8,1.6
			c0.4,0.4,0.8,0.9,1.2,1.3c-1.5,1.4-3.4,0.9-5.2,0.9C455.3,13.9,444.7,13.7,434.1,13.4z"/>
		<path class="st70" d="M440,17.3c-0.6,0.6-1.2,1.3-1.9,1.9c1.4,2.1,1.1,4.3,0.5,6.6c-0.5,0.7-1.2,1-2,0.9c-2.4-1.2-1.3-3.7-2.1-5.9
			c-0.6,1.4,0,2.7-0.5,3.9c-0.4,1.2-1,2.2-2.5,2c-2.7-1.3-0.7-4.1-1.9-6.1c-0.8,1.7,0,3.7-1,5.2c-0.2,0.2-0.3,0.3-0.5,0.5
			c-2.7-0.1-1.8-2.2-2-3.7c-1.1-1-2.8-0.8-3.8-2.1c0.2-2.4,2.9-1.6,3.8-3C430.7,17.3,435.3,17.3,440,17.3z"/>
		<path class="st71" d="M345,24.2c-0.4-2.1,1-3.4,2.1-4.8c2.3-0.6,4.6-0.3,6.9-0.1c1.2,1.2,2.8,1,4.3,0.8c2.7-0.3,3.7,0.9,3.4,3.5
			c-0.2,0.5-0.5,0.9-1,1.2c-5.2,1.3-10.3,0.6-15.5,0.2C345.2,24.7,345.1,24.4,345,24.2z"/>
		<path class="st72" d="M463.1,23.2c2.2-1.6-0.5-1.9-0.8-2.8c3.2-0.4,6.5-0.4,9.7,0.1c0.2,0.5,0.1,0.9-0.3,1.2
			c-0.7,0.4-1.5,0.5-2.8,0.5c1.8,0,3.1,0,4.3-0.7c0.7-0.1,1.4,0.1,2,0.4c0.6,0.1,1.3,0.3,1.9,0.4c4.3,0.1,8.7-0.4,12.9,0.8l0.3-0.1
			c-0.1,0.7-0.2,1.4-0.3,2.2c-0.2,0.2-0.4,0.3-0.7,0.5c-0.8,0.3-1.6,0.2-2.4,0c-5.3-0.4-10.6-0.1-15.8-0.2c-2-0.2-3.8,0.4-5.7,1.1
			c-0.5,0.1-1,0-1.4-0.1C463,25.5,462.4,24.5,463.1,23.2z"/>
		<path class="st73" d="M361.2,23.2c-0.2-2.1-1.1-2.8-3.3-2.2c-1.5,0.4-3.4,0.7-3.8-1.7c4-0.1,8-0.1,12-0.2
			c2.3,4.2,0.6,8.2-0.9,12.2h-0.1c-3.3-0.8-4.1-2.4-2.8-7.3C363.1,21.2,361,24.2,361.2,23.2z"/>
		<path class="st74" d="M365.2,31.2c-0.8-4.1,1.1-8.1,0.9-12.2c0.3-0.3,0.6-0.6,1-0.9c1.5,0,3.1,0,2.9,2.2
			c-2.7,3.4-1.3,7.1-0.9,10.7C367.8,33.2,366.5,30.7,365.2,31.2z"/>
		<path class="st75" d="M385,12.3c0,0.6,0,1.2,0,1.7c-3,0.3-5.9,0.3-8.7-0.8c-0.4-0.3-0.8-0.7-1.2-1c-0.7-0.8-0.6-1.6,0-2.4
			c2.7-1.6,5.6-1.2,8.5-0.5C384.7,10,385.1,11,385,12.3z"/>
		<path class="st76" d="M478.1,22.2c0.3-0.4,0.7-0.7,0.9-1.1c0.4-0.9-0.8-2.3,1.7-2.5c3.5-0.3,0.9,3,2.6,3.5
			C481.5,23,479.8,22.8,478.1,22.2z"/>
		<path class="st77" d="M478.1,22.2c1.7,0,3.4-0.1,5.2-0.1c0.9,0,1.8,0,2.8,0.1c1.3-0.6,2.4-1.6,4-0.9c0,0.6,0,1.3,0,1.9
			c-4.3-0.5-8.7,0.9-12.9-0.8C477.4,22.2,477.7,22.1,478.1,22.2z"/>
		<path class="st78" d="M471.7,21.4c0.1-0.3,0.2-0.6,0.3-0.9c0.1-0.9-0.1-2.3,1.3-2.1c2.2,0.2,1,2.6,1.9,3.6
			c-0.8,0.1-1.6,0.3-2.4,0.4C472.1,22.4,471.8,22.1,471.7,21.4z"/>
		<path class="st70" d="M490,21.2c-1.3,0.6-2.5,1.1-4,0.9c0.6-1.2,1-3.2,1.9-3.4C489.1,18.3,489.6,20,490,21.2z"/>
		<path class="st79" d="M345.2,24.9c5.2-1.8,10.6-0.4,15.9-0.8c1.4,2.3,1.4,4.7,0,7c-1,0-2,0-3,0c-2.3,0-4.7-0.3-6.9,0
			C345.9,32,344.1,29.9,345.2,24.9z"/>
		<path class="st80" d="M463.1,23.2c0.3,1,0.5,1.9,0.8,2.9c1.1,1.2-0.4,1.5-0.8,2.2c-0.3,6-4.9,2.3-7.4,3c-3.6,1-2-2.6-2.6-4.3
			c-0.8-0.9-0.8-1.9-0.2-3c2.4-2,5.6-0.6,8.2-1.8C461.7,22.5,462.4,22.8,463.1,23.2z"/>
		<path class="st81" d="M436.1,26.1c0.6,0,1.2,0,1.9,0c0.7-0.5,1.5-0.5,2.3-0.1c3.6,0.8,2.7-2.2,3.3-4c2.5,0.3,0.2,4.6,3.5,4.1
			c0.7-0.5,1.4-0.5,2.2,0c0.6,0,1.3,0.1,1.9,0.1c0.9-0.2,1.4,0,1,1c-4.2,2.2-8.7,0.6-13,0.9c-3.6,0.3-7.2,0.2-10.8,0
			c-2.8-0.2-0.1-1.3-0.2-2l-0.1-0.1c1.1-1.3,2.1-1.3,3.2,0c1.5,0.4,2.1-0.3,2.1-1.7C435.7,22.6,435.1,25.6,436.1,26.1z"/>
		<path class="st82" d="M463,28.3c0.3-0.7,0.5-1.5,0.8-2.2c0.4,0,0.9,0,1.3,0c6.8-1.2,13.6-1,20.5-0.7c1.3,0.4,2.6,0.7,3.5,1.8
			c-3.9,1.8-8,0.5-12,0.8c-4.4,0.3-8.8-0.5-13.2,0.5C463.6,28.3,463.3,28.3,463,28.3z"/>
		<path class="st83" d="M391.2,31.2c-0.3,0-0.7,0-1-0.1c-0.7-3.1-1.6-6.3,1-9c0.7-0.3,1.3-0.6,2-0.9c1.3,3.3,0.4,6.6-0.1,9.9
			c-0.4,0-0.8,0.1-1.1,0.1h-0.4H391.2z"/>
		<path class="st74" d="M361.1,31.2c0-2.3,0-4.7,0-7c0-0.3,0-0.6,0.1-1c0.5-0.8,1-1.6,1.5-2.4c2.7,3.1-2.4,7.9,2.5,10.4
			C363.7,32.9,362.4,31.6,361.1,31.2z"/>
		<path class="st84" d="M371.8,21.2c2.1-2.5,2.3-0.5,2.3,1.1c0,2.9-1.3,5.8-0.2,8.7c-0.6,0-1.1,0.1-1.7,0.1
			C371,27.8,371.7,24.5,371.8,21.2z"/>
		<path class="st85" d="M369.1,31.1c-2-3.1-0.8-6.8-1.5-10.1c-0.3-1.5,1.3-1.4,2.4-0.6c-0.2,3.3-1.7,6.5-0.7,9.8
			C369.2,30.5,369.1,30.8,369.1,31.1z"/>
		<path class="st86" d="M452,27.1c-0.3-0.3-0.6-0.7-1-1c0.1-2.2-0.2-4.4,0.3-6.4c0.4-1.8,1.5-1.6,1.9,0.2c1.1,1.4,0.9,2.9-0.1,4.3
			c0,0.9-0.1,1.8-0.1,2.7C452.7,27,452.4,27.1,452,27.1z"/>
		<path class="st87" d="M422.3,20.3c1.9-0.4,3.2,0.1,3.8,2.1c-1.4,0.4-1.3,1.9-2,2.7c-0.6,0.6-1.3,0.6-1.8-0.1
			C422.2,23.4,422.2,21.9,422.3,20.3z"/>
		<path class="st88" d="M422.2,25c0.6,0,1.2,0.1,1.8,0.1c0,2-0.1,3.9-0.1,5.9C420.1,29.9,422.8,27,422.2,25z"/>
		<path class="st89" d="M371.8,21.2c0.1,3.3,0.2,6.6,0.4,9.8c-0.4,0-0.7,0-1.1,0.1C371.4,27.8,370.3,24.4,371.8,21.2z"/>
		<path class="st90" d="M160.3,29.1c1,5.5,0.8,5.7-6.2,6.1c-1.3,0-2.6-0.1-4-0.1c-2,0-4.1,0.1-5.9-1c0-1.7,0-3.4,0-5.1
			c4.6-0.9,9.2,0.1,13.3,0.1c-4.2-0.4-8.8-0.2-13.4-0.7c0.3-0.5,0.7-1,1-1.4c4.4-2.6,8.8,0.5,13.3-0.2
			C159.6,26.4,160.3,27.8,160.3,29.1z"/>
		<path class="st91" d="M192.2,51.1c0.3,0.7,0.5,1.3,0.8,2c-1.9,1.6-3.8-0.5-5.8,0c0-2.7,0-5.4,0-8.1c3.3-0.7,6.4-1.1,4.1,4
			C191,49.9,191.5,50.6,192.2,51.1z"/>
		<path class="st92" d="M200,45c-1.2,3.5-1.4,7,0.2,10.5c-3.7-3.2-5.1-7-3.2-11.6C197.7,45.2,199.2,44.1,200,45z"/>
		<path class="st93" d="M136.2,30.1c3.6-1,5.6-0.2,4.9,4c-1.5,0.9-3.1,1-4.8,1l-0.4-0.2c-1.3-1.7-1-3.3,0.1-5L136.2,30.1z"/>
		<path class="st93" d="M144.2,34c2,0.3,4.2-0.5,5.9,1c-3.2,2-6.1-0.1-9-0.9C142.2,34.1,143.2,34.1,144.2,34z"/>
		<path class="st94" d="M159.2,96c-3.7-1.3-7.3-2.7-11-4c-1.2-4.2,1.6-7.4,3-10.9c6-7.1,10.2-15.3,15.2-23c2.4-3.8,4.9-3,7.9-1.8
			c3.2,1.3,5.8,2.8,4,6.9c-0.3,4.7-3.5,8.2-5.1,12.4c-2.7,4.5-3.9,9.8-8,13.4C163.2,91.3,163.4,95.6,159.2,96z"/>
		<path class="st95" d="M172.4,75.1c2-4,4-7.9,6-11.9c0.6,0.6,1.2,1.3,1.9,1.9c-2.7,2.8-2.3,7.2-5.1,10
			C174.2,75.7,173.3,76,172.4,75.1z"/>
		<path class="st96" d="M514.1,26.4c-0.7,1.6-1.5,3.2-2.2,4.9c-0.2-0.1-0.5-0.2-0.7-0.3c-1.9-1.5-4.1-0.3-6.1-0.9
			c-0.9-0.3-1.8-0.3-2.1-1.6c-0.1-0.5,2.6-0.9,0.1-1.4c0-0.9,0-1.9,0-2.8C507,23.5,510.6,24.7,514.1,26.4z"/>
		<path class="st21" d="M503,27.1c1,0.1,1.9,0.2,3.5,0.4c-1.3,0.5-2,0.8-3.1,1.3c2.2,0.5,4.1,0.9,6.1,0.2c2.1-0.7,1.3,1.2,1.7,2
			c-3.4,0-6.8,0.1-10.2,0.1C501,29.4,501.2,27.8,503,27.1z"/>
		<path class="st97" d="M489.1,27.2c-1.1-0.1-2.3,0.1-3.1-0.8c1-1.7,3,0.1,4-1.2l-0.1,0.1c2.9-1,5.8,0,8.8-0.2
			c0.8-0.1,1.8,0,1.9,1.1c0,1.4-1.3,1.3-2.2,1.3C495.4,27.3,492.2,27.2,489.1,27.2z"/>
		<path class="st98" d="M172.4,75.1c0.9,0,1.8,0,2.7,0c-1.3,2.9-2.7,5.9-4,8.8c-2.7,2.9-3.1,6.8-5,10.1c-1.1,0.8-0.9,2-0.9,3.1
			c-2.3-1-1.1-2.4-0.6-3.9c0.4-1.3,2.5-2.4,0.6-4.1C167.6,84.4,170,79.7,172.4,75.1z"/>
		<path class="st99" d="M24.6,58.3c-1.7,4.5,0,9.2-0.6,13.8c-1.9,1.8-3.2,1.4-3.8-1.1c-0.5-1.9-0.1-4-0.5-5.9
			c-0.2-0.8-0.5-1.7-1.5-1.6c-0.8,0-1.2,0.7-1.2,1.3c0.2,6.7,0.1,13.4,2.4,20.4c2.5-2.3,1.2-4.7,1.7-6.6c0.4-1.7-0.2-4.5,3.2-3.5
			c1.4,6.2,2.4,6.7,7.6,3.1c11.6-8.1,23.7-15.6,34.4-24.9c3.2,1,2.8,5.8,6.5,6.4c0.1,0.2,0.3,0.4,0.4,0.5c-9,6.3-18,12.8-27.1,18.9
			c-4.2,2.8-7.7,6.8-12.9,8.1c-0.1-3.4,2.9-4.2,4.9-5.6c7.7-5.2,14.9-11,22.7-16c1.9-1.3,4.6-2,5-5c-1.8-1.8-3.1,0.1-4.2,0.9
			c-7.4,5.2-15,10.2-22.2,15.7c-0.3,0.3-0.7,0.6-1.1,0.8c-4.8,2.6-9.1,5.8-13.1,9.5c-0.6,0.7-1.4,1.2-2,1.7c-0.6,0.4-1.4,0.1-2,0.8
			c0.9,0,1.6-0.4,2.2-0.9c2.1,0.4,4.8-1,6,2c-3.1,0.3-2.6,4.1-5,5c-0.8-0.9-1.7-1.5-3-1.5c0.9,0.7,2.3,0.5,3,1.5
			c-4.5,3.8-10.2,1.6-11.7-4.7c-0.6-2.7-0.9-5.5-1.4-8.3C12.1,69,9.8,55.3,7,41.6c-0.4-1.8-0.6-3.6-0.6-5.4c1.3,0,2.5-0.1,3,1.6
			c0.4,1.3,1.1,1.4,2,0.3c0.9-0.2,1.2,0.2,1.4,1c0.1,1.1-0.8,1.5-1.5,2.1c0.7,3.7,1.4,7.4,2.2,11.1c1.3,6.3,1.7,6.5,7.8,4.8
			C22.8,56.1,23.9,56.7,24.6,58.3z"/>
		<path class="st100" d="M11.2,41.1c0.3-0.7,0.7-1.4,1-2c1.7-1.5,3.8-0.7,5.7-0.8c0.5,0,1,0.1,1.6,0.3c8.5-0.1,17.1,1.2,25.5-0.8
			c0.6-0.1,1.1-0.1,1.7,0c6.2,1.8,12.6,0.4,18.9,0.9c8.4,0,16.8,0,25.2,0c0.5,0,1.1,0,1.6,0c3.7,0.1,2.1-3.9,4-5.2
			c3.8-2.2,7.7-2.9,11.9-1.4l-0.1,0.2c0.5,2.6-0.9,5.5,1,7.9c1.3,1,1.6,2.5,2.1,4c-0.7,0.6-1.4,1.3-2.1,1.9c-2.2-0.3,1.2-6.5-4-3.8
			c-1.4-1-3-1.2-4.7-1.2C70.7,41.1,40.9,41.1,11.2,41.1z"/>
		<path class="st101" d="M80.2,53.1c1.3,0.3,2.6,0.7,0.8,2c-2.4,1.8-4.5,4.3-7.7,5l0,0c-0.4-0.9-1.3-1.4-2.1-2
			c-2-1.5-2.6-3.5-1.3-5.5c1.3-2.2,3-1,4.6-0.1c0.8,0.5,1.9,0.1,2.8,0.6C78.2,53.1,79.2,53.1,80.2,53.1z"/>
		<path class="st102" d="M77.2,53c-1.2,0.6-2.3,1.2-3.5,0.1c-1-0.9-2.5-1.6-3.2,0.1c-0.6,1.4-0.9,3.4,1.5,3.8
			c2.4,0.4,1.9,1.6,1.2,3.1c-5.6,1-4.9-4.4-7-6.9c0.2-0.6,0.4-1.3,0.6-1.9C70.7,49.4,74.2,49.8,77.2,53z"/>
		<path class="st103" d="M24.6,58.3c-1.1-0.4-2.3-0.9-3.4-1.3c3.4-2.7,6.2-6.4,11.3-5.8C29.8,53.6,30.2,59.2,24.6,58.3z"/>
		<path class="st104" d="M29.2,91c-1.9-0.8-4.4-0.1-6-2l0,0c0-0.8,0.2-1.6,0.9-2.1c4.7-3.2,9.3-6.7,14.1-10l0,0
			C45.4,72,52.5,67,59.5,62c2.4-1.8,4.9-2.5,7.8-2.1c1.6,2-0.3,2.4-1.4,3.2c-10.2,7.3-20.4,14.5-30.6,21.8c-0.8,0.6-1.4,1.4-2,2.1
			C32.8,89.4,30.6,89.8,29.2,91z"/>
		<path class="st32" d="M111.2,44.1c-2.7-0.3-1.8-2.5-2.1-4c0.9-2.5,1.3-2.8,2.1-1.6c1.4,2,3.7,1.1,5.8,2.4
			C115,42.3,113.4,43.6,111.2,44.1z"/>
		<path class="st105" d="M136,30c0,1.7,0,3.3-0.1,5c-1.9,0.6-3.8,1-5.7,0.3L130,35c-0.5-0.6-0.8-1.2-0.9-2c0-0.8,0.2-1.5,0.8-2
			c0.4-0.3,0.8-0.5,1.2-0.8c0.6,0.1-1,2.1,1,1.1C133.3,30.7,134.7,30.4,136,30z"/>
		<path class="st106" d="M160.3,29.1c-2-2.9-5-1.7-7.7-2c-2.4-0.2-4.9-0.2-7.4-0.3c-0.1-0.2-0.1-0.5-0.1-0.7
			c1.8-2.4,3.5-4.4,6.7-1.3c3.3,3.1,4.2-0.2,5.3-2.5c0.6,0,1.3,0,1.9,0c1,2,2,4,3,5.9C161.7,28.9,161,29.1,160.3,29.1z"/>
		<path class="st107" d="M165,21c-5.4,0-10.8,0.1-16.2,0.1c-1.5,0-3.5,0.6-3.6-2c0.3,0,0.7,0,1,0c4.5,1.1,9.1,0.2,13.6,0.5
			c1.8,0.1,3.6-0.6,5.2,0.6C165.1,20.5,165.1,20.8,165,21z"/>
		<path class="st42" d="M165,20.3c-6.3-0.8-12.7,1.1-18.9-1.1C152.4,19.7,158.9,17.8,165,20.3z"/>
		<path class="st108" d="M22.2,29.1c0.1-1.6,0.2-3.2,0.3-4.8c22.4,0,44.7,0,67.1,0c1.5,0,3.8-1.2,4.4,1.6c-0.7,2.8-1,6-5.2,5.6
			c-19.5-1.9-39.1-0.4-58.6-0.9C27.5,30.6,24.6,31.2,22.2,29.1z"/>
		<path class="st109" d="M90.1,31c2.5-0.7,2.3-3.6,4-5c0.3,2.3,2.1,2,3.8,2.1c3.8,0.2,7.5,1.1,10.3,3.9c-4.1,0.1-8.1,1.2-12,2.1
			c-2.7,0.6-5.3,1-7.3-1.6C88.8,31.7,89,31,90.1,31z"/>
		<path class="st110" d="M130,31c0,0.7,0.1,1.4,0.1,2.1c-5.4,2.2-11.1,0.8-16.6,0.8c-1.5,0-2.5-1.4-3.2-2.8c0-1.3-0.1-2.6-0.1-3.9
			c2.1,2.7,4.9,3.1,8.2,3.1C122.2,30.2,126.2,29.4,130,31z"/>
		<path class="st111" d="M110.3,31c2.3,2.7,5.4,2.1,8.3,2.1c3.8,0,7.7-0.1,11.5-0.1c0,0.7,0,1.3,0,2c-4.9,0-9.9,0.1-14.8,0.1
			C112.5,35.1,110.4,34.2,110.3,31z"/>
		<path class="st52" d="M89.1,32.1c1.9,2.1,5,0.3,7.1,2c-0.6,2.2,1.8,5.9-3,6c-0.7-0.7-1.3-1.4-1.5-2.4c-0.1-0.5-0.4-1-1-1.2
			c-4.5-0.1-8.9-0.4-13.3,0.3c-0.5,0.5-0.8,1.1-1.2,1.6c-0.8,0.7-1.8,0.7-2.8,0.8c-2.7,0-5.5,0.1-8.2-0.1
			c-6.3-1.1-12.6,0.4-18.9-0.9c-0.3,0-0.7,0-1,0c-2.9,1.7-6,0.8-9,0.8c-0.5-0.2-0.9-0.5-1.2-1c-5.2-0.9-10.4-0.7-15.6-0.1
			c-0.7,1-1.8,0.8-2.8,0.6c-3-2.3-3.4-5-1.5-8.2c2,2,4.5,2.3,7.1,1.9c1.1-0.6,2.2-0.6,3.4-0.6c20.6,0.1,41.1,0.1,61.7,0
			C87.9,31.5,88.6,31.7,89.1,32.1z"/>
		<path class="st112" d="M89.1,32.1c-2.4,0.8-4.8,1.1-7.3,1.1c-17.9-0.1-35.9,0-53.8,0c-2,0-4,0.1-5.8-1c0-1,0-2,0-3
			c19.3,0,38.6,0,57.8,0c3.5,0,6.9,0.5,10.1,1.9C89.8,31.4,89.4,31.7,89.1,32.1z"/>
		<path class="st113" d="M15.1,30.3c0.4,2.7-0.5,5.8,2.1,7.9c0.3,0.2,0.4,0.4,0.3,0.6c-0.1,0.2-0.2,0.3-0.3,0.3
			c-1.7,1.1-3.3-0.3-5,0c-0.3-0.3-0.6-0.7-1-1c0.1-1.7,1.4-3.2,0.8-5c-0.7-1.4-1-2.7,1.1-3C13.8,30.1,14.5,30.2,15.1,30.3z"/>
		<path class="st114" d="M13.2,30.1c-1.2,0.7-1.1,1.9-1.1,3c-4.5,1.3-6.5-0.2-5.8-4.9c1.4-0.9,2.7,3.1,4.6-0.2
			C11.7,26.5,12.9,28.6,13.2,30.1z"/>
		<path class="st115" d="M144.2,28.3c4.8-0.3,9.6-0.5,14.4,0.1c0,0.5-0.1,1.1-0.1,1.6c-4.8-0.4-9.5-0.7-14.3-1.1
			C144.3,28.7,144.3,28.5,144.2,28.3z"/>
		<path class="st35" d="M221.1,7.2c-1.7-0.3-3.6,0.6-5-1c3.3,0,6.7,0,10,0C224.7,7.8,222.8,6.9,221.1,7.2z"/>
		<path class="st116" d="M247.3,8.2c-1.5-0.1-3-0.2-4.4-0.3c1.7-1.5,3.8-0.7,5.7-0.8c9.2-0.1,18.5-0.1,27.7,0c1.4,0,4-1.3,3.7,2.1
			l-0.5-0.1L279,9.2c-1.5,0.6-2.9,0.4-4.4,0.1c-7.4-0.5-14.8,0.1-22.1-0.2C250.8,9.1,248.9,9.5,247.3,8.2z"/>
		<path class="st117" d="M281.1,15.1c-2.8-1.7-6-0.6-9-1.1c2-3.9,5.4-1.2,8.2-1.7C280.6,13.3,280.9,14.2,281.1,15.1z"/>
		<path class="st118" d="M305.2,9.4c-2.6,0-5.3-0.1-7.9-0.1c-1.5,0-2.2-0.5-2-2c14.8,0,29.5,0,44.3,0.1c1.5,0,3-0.2,4.5-0.2
			c3.9-1.3,8,0.5,11.8-1c2.4,0,4.8,0,7.2,0c0.3,0.5,0.4,1,0.3,1.6c-0.2,0.5-0.6,0.9-1.1,1.2c-3.7,0.5-7.6,0.1-11.3,1.1
			c-0.8,0.1-1.7,0.1-2.5,0c-5.5-1-11-1.4-16.5,0.2c-1.9,0.4-3.9,0.4-5.8,0c-3.2-1.7-6.7-1.8-10.2-1.2c-0.1,0.2-0.1,0.4-0.1,0.6
			C312.4,11.1,308.8,11.3,305.2,9.4z"/>
		<path class="st119" d="M363.2,7.1c-0.2-0.3-0.2-0.6,0-0.9c2.3,0,4.7-0.1,7-0.1c1.6,0.1,3.2,0.2,4.8,0.2
			C372.3,9.2,368.1,9.5,363.2,7.1z"/>
		<path class="st120" d="M356,6.2c-3.7,2.8-7.9,0.7-11.8,1C347.9,5.2,352,6.7,356,6.2z"/>
		<path class="st121" d="M446,8c-4,0.1-8,0.1-12,0.2c-10.2,0.7-20.3,2.7-30.5,0.6c-1-0.7-1.1-1.5-0.4-2.5c12.7,0,25.3,0.1,38,0.1
			C442.6,7.5,445.1,5.3,446,8z"/>
		<path class="st44" d="M403.1,6.3c0,0.5,0,1,0,1.5c-1,1.7-2.8,1.7-4.4,1.7c-10.3,0.3-20.5-0.7-30.8,0c-1.6,0.1-3.4,0-4.5-1.6
			c-0.2-0.2-0.3-0.5-0.2-0.8c3.9-0.4,7.9,0.9,11.8-0.8c2.7,0,5.5,0,8.2,0c4,0.6,7.9,0.8,11.9-0.1C397.7,6.2,400.4,6.3,403.1,6.3z"/>
		<path class="st122" d="M446,8c-1.3-1.6-3.6-0.1-4.9-1.6c3.6,0,7.2-0.1,10.9-0.1c0.6,0.5,0.6,1.1,0,1.6C450,8,448,8,446,8z"/>
		<path class="st123" d="M452,7.9c0-0.5,0-1.1,0-1.6c2.4,0,4.8,0,7.1,0c0,0.5,0,1.1,0,1.6C456.7,8,454.3,8,452,7.9z"/>
		<path class="st124" d="M395,6.2c-3.9,1.6-7.9,1.4-11.9,0.1C387.1,6.2,391.1,6.2,395,6.2z"/>
		<path class="st125" d="M363.4,7.9c13.2,0,26.4-0.1,39.7-0.1c10.3,0.1,20.6,0.3,30.9,0.4c-3,2.3-6.7-0.2-9.7,1.5
			c-2.8,2.2-5.9,1.4-9,1.2c-4.2-0.2-8.4-1.2-12.4,0.8c-2.6,0.1-5.2-0.1-7.8-0.6c-3.6-1.1-7.4,0-11-1c-2.9,0.2-5.9,0.5-8.8-0.1
			c-3.7,0.8-7.5,0.8-11.2,0.2c-2.7,0-5.4,0-8,0.1c-1.8,0.1-3.6,0.5-4.9-1.2C355.1,7.2,359.4,8.9,363.4,7.9z"/>
		<path class="st126" d="M469.9,12c-3.6-0.6-7.7,2.2-10.8-1.6c3.6-0.4,7.3-0.5,10.9,0.1C469.9,11,469.9,11.5,469.9,12z"/>
		<path class="st12" d="M452,10.5c-3.6,2.9-7.3,2.7-10.9,0.1C444.7,9.7,448.4,10.1,452,10.5z"/>
		<path class="st127" d="M434,10.2c0,0.6,0,1.2,0,1.9c-3.3-0.9-7.3,2.3-10-1.8C427.4,10.2,430.7,10.2,434,10.2z"/>
		<path class="st128" d="M459,10c-2.3,1.8-4.6,1.6-6.9-0.1C454.4,8.8,456.7,8.6,459,10z"/>
		<path class="st129" d="M441,10.1c-2,1.3-4,1.1-5.9,0C437.1,8.6,439,8.4,441,10.1z"/>
		<path class="st130" d="M275.2,9c1.3,0.1,2.6,0.2,3.9,0.3c-6.2,2-12.6,0.5-19,1.1c-3.9,0.4-7.9-0.2-11.8-0.3
			c-0.3-1.6,1-1.4,1.8-1.4C258.5,8.8,266.8,8.3,275.2,9z"/>
		<path class="st131" d="M275.2,9c-7.5,0-15,0-22.4,0.2c-1.5,0-3.4-0.9-4.5,1c-0.4,0.3-0.9,0.6-1.3,0.9c0.1-0.9,0.3-1.9,0.4-2.8
			C256.6,8.5,266,7.4,275.2,9z"/>
		<path class="st132" d="M351.1,9c1.6,0.5,3.6-0.5,4.9,1.2c-3.3,2.9-9.1,2.9-11.9,0c1.1-2.7,3.2-1.3,4.9-1.1
			C349.7,9.1,350.4,9,351.1,9z"/>
		<path class="st133" d="M326,9c2,0,4.1,0,6.1,0c1.5-0.2,3.2-1.4,4.1,1c-2.8,3.1-8.9,3-12.3-0.1C324.1,8.5,325,8.6,326,9z"/>
		<path class="st134" d="M305.2,9.4c3.6-0.3,7.2-0.4,10.8,0.1c-0.8,5.1-4.6,1.9-7,2.5C307.3,12.4,304.8,12.7,305.2,9.4z"/>
		<path class="st135" d="M364.1,10.2c3.7-1.6,7.4-1,11.2-0.2c-0.1,0.8-0.1,1.5-0.2,2.3c-2.6,0-5.2,0-7.9,0
			C365.7,12.2,364.2,12.3,364.1,10.2z"/>
		<path class="st125" d="M336.2,10c-1.1-1.3-2.7-0.6-4.1-1c5.6-1.4,11.3-1.4,16.9,0c-1.6,0.5-3.6-0.4-4.9,1.1
			C341.5,10.1,338.8,10.1,336.2,10z"/>
		<path class="st136" d="M326,9c-0.7,0.3-1.4,0.6-2.1,1c-2.6-0.3-5.2-0.7-7.8-1C319.4,7.9,322.7,7.6,326,9z"/>
		<path class="st137" d="M382.1,31.2c-1.7-1.4-3-9.4-1.8-11c0.2-0.3,0.8-0.7,1.1-0.6c1.3,0.4,1.7,1.7,1.4,2.8
			C382,25.3,382,28.2,382.1,31.2C382.2,31.2,382.1,31.2,382.1,31.2z"/>
		<path class="st138" d="M385.3,30.7c-1.4-3.7-1.3-7.4-0.8-12.3C388.7,23.2,384.8,27.1,385.3,30.7z"/>
		<path class="st139" d="M420.1,31.2c-3.6-0.5-1.9-3.3-2-5.1c-0.2-2.4-0.9-4.9,1.2-7.8C421.8,22.9,419,27.2,420.1,31.2
			C420.2,31.2,420.1,31.2,420.1,31.2z"/>
		<path class="st140" d="M405.1,31.1c0-3,0-5.9,0.1-8.9c0-1.1,0-2.6,1.6-2.4c1.1,0.1,1.6,1.7,1.2,2.4
			C406.1,24.9,409.3,29.2,405.1,31.1L405.1,31.1z"/>
		<path class="st141" d="M416,31.1c-2.6,0-2.1-1.9-2-3.5c0.2-2.6-0.7-5.4,0.8-8.9C417.3,23.3,414.2,27.5,416,31.1L416,31.1z"/>
		<path class="st142" d="M391.2,22.1c-1.4,2.9-1.2,6-1,9c-2.2-3.1-1.1-6.6-1.5-10c0-0.4,0.7-1.3,1.1-1.3
			C391,20,390.9,21.2,391.2,22.1z"/>
		<path class="st143" d="M410.6,30.3c0-3.5-1.9-7.1-0.1-11.5C413.5,23.3,409.9,26.8,410.6,30.3z"/>
		<path class="st144" d="M378.1,31.3c-2.7-2-2.9-4.4,0-8.4C378.2,25.6,378.2,28.4,378.1,31.3C378.2,31.2,378.1,31.3,378.1,31.3z"/>
		<path class="st145" d="M403.1,31.3c-4.1-2.4-1.6-5.5-1.5-8.3c0.5,0,1-0.1,1.5-0.1C403.2,25.7,403.2,28.4,403.1,31.3
			C403.2,31.2,403.1,31.3,403.1,31.3z"/>
		<path class="st146" d="M393.1,31.1c0-3.3,0.1-6.6,0.1-9.9c0.3,0.1,0.9,0,0.9,0.2C394.9,24.7,395,28,393.1,31.1z"/>
		<path class="st147" d="M399.1,31.2c-4.2-1-1.2-4.1-1.9-6.2c0.4-0.6,0.7-1.4,1.7-0.9C399,26.5,399.1,28.8,399.1,31.2L399.1,31.2z"
			/>
		<path class="st148" d="M398.9,24.1c-0.6,0.3-1.1,0.6-1.7,0.9c-0.3-1.8-0.5-3.5,0.4-5.5C399.8,20.7,399.2,22.5,398.9,24.1z"/>
		<path class="st149" d="M453.2,24.2c0-1.4,0.1-2.9,0.1-4.3c3.3-1.6,5.2,1.5,7.7,2.3C459.2,26,455.7,23.3,453.2,24.2z"/>
		<path class="st150" d="M449.2,26c-0.7,0-1.5,0-2.2,0c0.7-2.2-1.2-5.2,2.2-7.1C449.2,21.6,449.2,23.8,449.2,26z"/>
		<path class="st151" d="M440.2,26c-0.8,0-1.5,0-2.3,0.1c0-2.3,0.1-4.6,0.1-6.8c1,0.1,2.4-0.5,2.2,1.5
			C440.1,22.5,440.2,24.2,440.2,26z"/>
		<path class="st152" d="M402.9,11c4.1-2.2,8.2-2.4,12.4-0.1c-3.5,2.6-7.6,0.7-11.3,1.3C403,12.3,402.7,11.9,402.9,11z"/>
		<path class="st153" d="M384,10.1c3.7-1.3,7.4-1.1,11.1,0c0.6,1.1,0.6,1.9-0.8,2.2c-3.1,0-6.2,0-9.3,0C384.1,11.8,384,11,384,10.1z
			"/>
		<path class="st154" d="M394.3,12.3c0.8-0.6,0.9-1.4,0.8-2.2c2.6,0.3,5.2,0.6,7.7,0.9c0.4,0.4,0.7,0.8,1.1,1.3
			C400.7,13.7,397.5,13.6,394.3,12.3z"/>
		<path class="st155" d="M431.1,26c-1.1-0.5-2.1-0.5-3.2,0c0-1.5,0.2-3,0.1-4.5c0-1.5-0.3-3.2,2.1-2.9c2,0.2,1.6,1.5,1.2,2.9
			C431.1,23,431.2,24.6,431.1,26z"/>
		<path class="st156" d="M436.1,26.1c-1.1-0.3-1.3-2.1-2.8-1.8c-0.1-1-0.3-1.9-0.2-2.9c0.1-1.1-0.7-2.8,1.6-2.7
			c2,0.1,1.3,1.5,1.3,2.5C436.1,22.8,436.1,24.5,436.1,26.1z"/>
		<path class="st157" d="M490.1,25.1c-0.9,1.7-2.8,0.5-4,1.2c-7-0.4-13.9,0.9-20.9-0.3c1.3-1.6,3-2,5-1.8c5.9,1.2,11.9-0.4,17.8,0.9
			C488.7,25.1,489.4,25.1,490.1,25.1z"/>
		<path class="st158" d="M488,25.1c-5.9-0.4-11.9,1-17.8-0.9C476.1,24.6,482.1,23,488,25.1z"/>
		<path class="st159" d="M471.7,21.4c0.4,0.3,0.7,0.6,1.1,0.9c-2.4,1.6-4.9,0.5-8.3,0.8C467.2,20.1,469.6,21.4,471.7,21.4z"/>
		<path class="st160" d="M24.2,75c-3.8,1.4-1.7,4.5-1.8,6.8C22.3,84,23,86.4,20,86.7c-2.9,0.3-2.8-2.4-3-4.2
			c-0.7-5.9-1.2-11.8-1.7-17.7c-0.2-2,0.5-3.7,2.9-3.7s3.1,1.6,3.1,3.6c0,1.8,0.1,3.7,0,5.5c-0.2,2.6,1.4,2,2.8,1.8
			C24.1,73.1,24.1,74,24.2,75z"/>
		<path class="st161" d="M67.3,60c-9.4,2.1-15.8,9.2-23.6,14c-1.8,1.1-3.2,2.9-5.5,3c7.6-7.2,16.8-12.1,25-18.3
			C64.9,57.5,66.3,58.4,67.3,60z"/>
		<path class="st161" d="M38.2,77c-4.1,4.2-8.6,7.8-14.1,10C28.2,82.8,32.7,79.2,38.2,77z"/>
		<path class="st162" d="M24.2,96c-0.7,0-1.3,0.1-2,0c-1.6-0.2-3.5,0.6-4.3-1.4c-0.1-0.2,0.7-1.2,1.1-1.3c1.8-0.4,3.7-0.7,4.8,1.3
			C24.1,95,24.1,95.5,24.2,96L24.2,96z"/>
		<path class="st163" d="M23.2,89c-0.3,2.1-1.2,3.5-3.6,2.5c-0.8-0.3-1.4-1.1-1-2C19.8,87.2,21.5,88.3,23.2,89L23.2,89z"/>
		<path class="st99" d="M46.2,38.1c6.3-1.6,12.7-1.7,19,0.1c0.6,0.7,0.6,1.3,0,1.9c-5.1,0-10.1,0-15.2,0
			C48.4,40.1,46.5,40.5,46.2,38.1z"/>
		<path class="st164" d="M35.2,38c3.3,0,6.6,0.1,9.9,0.1c-0.1,1.4-0.9,2-2.3,2c-7.7,0-15.4,0-23.2-0.1c-0.6,0-1.1-0.6-1.7-0.9
			C23.7,36.6,29.5,37.9,35.2,38z"/>
		<path class="st164" d="M65.2,40.1c0-0.6,0-1.3,0-1.9c3,0,6,0,9,0c4.4-0.4,8.8-0.7,13.2-0.4c1.8,0.1,4.1-0.5,4.7,2.3
			C83.1,40.1,74.2,40.1,65.2,40.1z"/>
		<path class="st28" d="M92.1,40.1c-3.2-1.9-6.6-0.5-9.9-1c-2.7-0.4-5.5,0.9-8-0.9c0.8-0.1,1.6-0.2,1.9-1.1c5.4-1.6,10.7-1.6,16,0
			c0.3,1,0.7,2,1,3C92.8,40.1,92.5,40.1,92.1,40.1z"/>
		<path class="st29" d="M35.2,38c-5.6,2.3-11.4,0.4-17.1,1.1h-0.4h-0.4c0-0.3,0-0.6,0-0.9c0.6-0.3,1.3-0.6,1.9-1
			c5.4-1,10.8-0.8,16.1-0.1C35.2,37.5,35.2,37.7,35.2,38z"/>
		<path class="st165" d="M92.2,37.1c-5.3,0-10.7,0-16,0c-0.3-0.3-0.6-0.6-0.9-0.9c6-1,11.9-0.9,17.9,0
			C92.8,36.5,92.5,36.8,92.2,37.1z"/>
		<path class="st100" d="M93.1,36.2c-6,0-11.9,0-17.9,0C81.2,34.4,87.2,34.4,93.1,36.2z"/>
		<path class="st165" d="M35.2,37.2c-5.4,0-10.8,0-16.1,0.1c-0.4-1.9,1.1-1.2,1.8-1.2C25.6,36.7,30.6,34.6,35.2,37.2z"/>
	</g>
</g>
</svg>
