<?xml version="1.0" encoding="utf-8"?>
<!-- Generator: Adobe Illustrator 25.0.0, SVG Export Plug-In . SVG Version: 6.00 Build 0)  -->
<svg version="1.1" xmlns="http://www.w3.org/2000/svg" xmlns:xlink="http://www.w3.org/1999/xlink" x="0px" y="0px"
	 viewBox="0 0 622.1 264" style="enable-background:new 0 0 622.1 264;" xml:space="preserve">
<style type="text/css">
	.st0{display:none;}
	.st1{display:inline;stroke:#FFFFFF;stroke-miterlimit:10;}
	.st2{fill:#AEBAB4;}
	.st3{fill:#D5BA64;}
	.st4{fill:#BBB38C;}
	.st5{fill:#AFA782;}
	.st6{fill:#FAF7E0;}
	.st7{fill:#F3EEBF;}
	.st8{fill:#514520;}
	.st9{fill:#504422;}
	.st10{fill:#1A1509;}
	.st11{fill:#4C3F1D;}
	.st12{fill:#685628;}
	.st13{fill:#493E1E;}
	.st14{fill:#746231;}
	.st15{fill:#5A4E2B;}
	.st16{fill:#42381E;}
	.st17{fill:#534622;}
	.st18{fill:#F2F7F2;}
	.st19{fill:#4D4222;}
	.st20{fill:#8F7E47;}
	.st21{fill:#625328;}
	.st22{fill:#716337;}
	.st23{fill:#65572C;}
	.st24{fill:#665527;}
	.st25{fill:#998248;}
	.st26{fill:#AA9553;}
	.st27{fill:#5F563B;}
	.st28{fill:#726846;}
	.st29{fill:#A19A7D;}
	.st30{fill:#DCD493;}
	.st31{fill:#CED0CF;}
	.st32{fill:#F5FDFD;}
	.st33{fill:#9A7C38;}
	.st34{fill:#BE9A4A;}
	.st35{fill:#7A6B3B;}
	.st36{fill:#CCA953;}
	.st37{fill:#5F5530;}
	.st38{fill:#D4B962;}
	.st39{fill:#725F2C;}
	.st40{fill:#BBA055;}
	.st41{fill:#756230;}
	.st42{fill:#C8AB5B;}
	.st43{fill:#81682F;}
	.st44{fill:#7F7345;}
	.st45{fill:#9E8544;}
	.st46{fill:#ECE5A5;}
	.st47{fill:#8B7E4D;}
	.st48{fill:#B09049;}
	.st49{fill:#E9DD98;}
	.st50{fill:#B5AE88;}
	.st51{fill:#C6B379;}
	.st52{fill:#F5F1AF;}
	.st53{fill:#A18748;}
	.st54{fill:#F0DE80;}
	.st55{fill:#68582A;}
	.st56{fill:#585031;}
	.st57{fill:#8D8156;}
	.st58{fill:#6E5D2E;}
	.st59{fill:#CEAE60;}
	.st60{fill:#806830;}
	.st61{fill:#937634;}
	.st62{fill:#CEC7A4;}
	.st63{fill:#A79D6E;}
	.st64{fill:#8C753A;}
	.st65{fill:#C3D1C9;}
	.st66{fill:#CCDDD7;}
	.st67{fill:#D4ECEA;}
	.st68{fill:#77622E;}
	.st69{fill:#F1D26A;}
	.st70{fill:#FEFDED;}
	.st71{fill:#FBF2A7;}
	.st72{fill:#786836;}
	.st73{fill:#988549;}
	.st74{fill:#423719;}
	.st75{fill:#5D4F26;}
	.st76{fill:#6A592A;}
	.st77{fill:#251E0D;}
	.st78{fill:#5A4C24;}
	.st79{fill:#544721;}
	.st80{fill:#312914;}
	.st81{fill:#3B3218;}
	.st82{fill:#6B5D30;}
	.st83{fill:#806E39;}
	.st84{fill:#322A13;}
	.st85{fill:#3C3217;}
	.st86{fill:#746432;}
	.st87{fill:#705F2E;}
	.st88{fill:#665629;}
	.st89{fill:#83713A;}
	.st90{fill:#67572A;}
	.st91{fill:#E2E2E2;}
	.st92{fill:#332A13;}
	.st93{fill:#EFEFED;}
	.st94{fill:#957F41;}
	.st95{fill:#E6D8A0;}
	.st96{fill:#A18D4F;}
	.st97{fill:#BFAE6C;}
	.st98{fill:#E2DBA4;}
	.st99{fill:#3D3318;}
	.st100{fill:#74612D;}
	.st101{fill:#312812;}
	.st102{fill:#C0A75E;}
	.st103{fill:#605329;}
	.st104{fill:#796A3A;}
	.st105{fill:#D7E6DE;}
	.st106{fill:#B7C7C1;}
	.st107{fill:#879490;}
	.st108{fill:#9DACA8;}
	.st109{fill:#CBBA72;}
	.st110{fill:#F4EDAC;}
	.st111{fill:#C6A956;}
	.st112{fill:#EDFBFA;}
	.st113{fill:#5F563C;}
	.st114{fill:#C9D5D0;}
	.st115{fill:#D2DFDA;}
	.st116{fill:#D7EBE9;}
	.st117{fill:#DBEFEC;}
	.st118{fill:#9D7D38;}
	.st119{fill:#8E7132;}
	.st120{fill:#9E7E38;}
	.st121{fill:#745E2A;}
	.st122{fill:#836B32;}
	.st123{fill:#EED16B;}
	.st124{fill:#91783B;}
	.st125{fill:#FBE87C;}
	.st126{fill:#E2C365;}
	.st127{fill:#675628;}
	.st128{fill:#E2D488;}
	.st129{fill:#9E8849;}
	.st130{fill:#4F4729;}
	.st131{fill:#9E8F55;}
	.st132{fill:#A9914D;}
	.st133{fill:#6B5A2B;}
	.st134{fill:#8F773A;}
	.st135{fill:#73612F;}
	.st136{fill:#90783B;}
	.st137{fill:#9B7F3D;}
	.st138{fill:#F2DA74;}
	.st139{fill:#E8CD6D;}
	.st140{fill:#CDB460;}
	.st141{fill:#93844D;}
	.st142{fill:#6F5A29;}
	.st143{fill:#836D35;}
	.st144{fill:#F6E279;}
	.st145{fill:#F1DD78;}
	.st146{fill:#F7EC81;}
	.st147{fill:#F4DF78;}
	.st148{fill:#F7DE75;}
	.st149{fill:#F7DF75;}
	.st150{fill:#584A22;}
	.st151{fill:#CBB05E;}
	.st152{fill:#8C7033;}
	.st153{fill:#C7A34E;}
	.st154{fill:#FBE376;}
	.st155{fill:#A78B44;}
	.st156{fill:#79642E;}
	.st157{fill:#554721;}
	.st158{fill:#F8EA83;}
	.st159{fill:#574923;}
	.st160{fill:#42381B;}
	.st161{fill:#493F1F;}
	.st162{fill:#6D5D2F;}
	.st163{fill:#827954;}
	.st164{fill:#6D5E34;}
	.st165{fill:#CABF8A;}
	.st166{fill:#7F7B65;}
	.st167{fill:#2D2512;}
	.st168{fill:#7F6F3D;}
	.st169{fill:#7E7042;}
	.st170{fill:#554822;}
	.st171{fill:#483D1D;}
	.st172{fill:#050301;}
	.st173{fill:#524725;}
	.st174{fill:#57471F;}
	.st175{fill:#5A4B22;}
	.st176{fill:#0C0903;}
	.st177{fill:#493E1D;}
	.st178{fill:#221C0C;}
	.st179{fill:#110F0A;}
	.st180{fill:#715E2C;}
	.st181{fill:#3A3016;}
	.st182{fill:#B0934B;}
	.st183{fill:#131008;}
	.st184{fill:#C6A450;}
	.st185{fill:#615125;}
	.st186{fill:#D7D8D6;}
	.st187{fill:#FCF9CB;}
	.st188{fill:#FEFEFD;}
	.st189{fill:#7D662F;}
	.st190{fill:#DAE4E0;}
	.st191{fill:#9CA9A6;}
	.st192{fill:#BCCBC5;}
	.st193{fill:#A4B4AF;}
	.st194{fill:#3C3218;}
	.st195{fill:#413A22;}
	.st196{fill:#E5F0EB;}
	.st197{fill:#F6FAF9;}
	.st198{fill:#98A5A2;}
	.st199{fill:#F6F6F6;}
	.st200{fill:#90793C;}
	.st201{fill:#D6BA61;}
	.st202{fill:#EBE7B6;}
	.st203{fill:#C3A757;}
	.st204{fill:#7A6835;}
	.st205{fill:#796835;}
	.st206{fill:#2F2713;}
	.st207{fill:#D0DDD8;}
	.st208{fill:#67582B;}
	.st209{fill:#685729;}
	.st210{fill:#957A3A;}
	.st211{fill:#ADACA4;}
	.st212{fill:#625428;}
	.st213{fill:#655528;}
	.st214{fill:#D5B45B;}
	.st215{fill:#B0A166;}
	.st216{fill:#F6EA95;}
	.st217{fill:#43381A;}
	.st218{fill:#5F5229;}
	.st219{fill:#524420;}
	.st220{fill:#EAD57C;}
	.st221{fill:#BEA454;}
	.st222{fill:#BC9846;}
	.st223{fill:#8C7032;}
	.st224{fill:#8A7034;}
	.st225{fill:#B49245;}
	.st226{fill:#9F8645;}
	.st227{fill:#987936;}
	.st228{fill:#F2D874;}
	.st229{fill:#302712;}
	.st230{fill:#CCDAD3;}
	.st231{fill:#F4FAF8;}
	.st232{fill:#B1A87E;}
	.st233{fill:#D0DBD5;}
	.st234{fill:#9DABA7;}
	.st235{fill:#99A6A3;}
	.st236{fill:#CCD8D4;}
	.st237{fill:#4C401E;}
	.st238{fill:#F4E085;}
	.st239{fill:#7C642D;}
	.st240{fill:#A48A46;}
	.st241{fill:#FCF199;}
	.st242{fill:#74602D;}
	.st243{fill:#CCD7D2;}
</style>
<g id="Camada_2" class="st0">
	<rect x="-277" y="-38" class="st1" width="1010" height="349"/>
</g>
<g id="Camada_1">
	<g>
		<path class="st2" d="M102.2,261.8c0,0.6,0,1.3,0,1.9c-30.3,0-60.6,0-90.9,0c-2.2-1-4.6-0.3-6.8-0.5c-1-0.1-2.6,0.3-2.1-1.7
			c2.9-2,6.1-1,9.2-1.2c1.8-0.1,3.5,0.2,5.3-0.1c2.3-3,4-6.4,5.4-9.8c1.5-3.8,4.6-3.6,7.3-3.8c2.2-0.2,2.5,2.2,1.9,4.2
			c-0.4,1.4-1.6,2.6-0.2,4.1c0.7,0.7,1,1.9,2.2,1.7c1-0.2,1.1-1.1,1.2-1.9c0.5-2.8,2.5-2.9,4.5-2.4c2.4,0.7,1,2.4,0.5,3.6
			c-1,2.3,0.3,3.4,2.2,4.1c2.5,0.9,5.2,0.9,7.8,0.7c5.3-0.3,10.6,0,15.9-0.3c9-0.2,17.9,0.2,26.9-0.1
			C95.7,260.7,99.3,259.2,102.2,261.8z"/>
		<path class="st3" d="M621.9,29.1c0,0.7,0,1.3,0,2c-0.8,1.8-2.2,3.3-3.6,4.7c-1.7,0.6-3.4,0.6-5.1-0.1c-3.2-2.2-6.6-1-10-0.9
			c-3.5,0-7.1,1.8-10.4-0.7c1.5-3.6,4.5-2.7,7.3-2.5c-7.3-0.4-14.8,0.8-21.9-2c-0.2-3.6,2.7-2.6,4.4-2.6c6.9,0,13.8,0.2,19.7,0.4
			c-6-1.2-13.1-0.8-20.1-0.8c-2.8-0.3-5.9,0.8-8.4-1.4c0.6-2.7,2.9-2.4,4.8-2.4c9.8,0,19.6-0.8,29.3,0.6c3.4,0.5,6.5-0.9,9.8-0.9
			C621.3,23.1,620.5,26.8,621.9,29.1z"/>
		<path class="st4" d="M2.3,261.8c2.6,2.3,6.4-0.5,9,1.9c-1.7,0-3.4-0.3-5,0c-5.2,1-7.1-0.9-6-6c2.9-6.8,2.8-14.4,5.8-21.1
			c1,0.5,1.5,1.4,1.7,2.5C6.2,246.7,5.1,254.4,2.3,261.8z"/>
		<path class="st5" d="M612.6,35c2,0,4,0.1,6,0.1c1.3-0.2,2.4,0,3.3,1c0,4.7,0,9.3,0,14l-0.4,0.1h-0.4c-0.9-0.1-1.7-0.2-2.5-0.7
			c-0.5-0.4-0.9-1-1.1-1.7c0-0.5,0.1-0.9,0.3-1.3c0.6-1.8,4.3-3.3,0.7-5.6c-1.1-3-3.8-3.5-6.4-4.3C611.5,35.8,611.7,35.3,612.6,35z"
			/>
		<path class="st6" d="M621.9,29.1c-1.9-1.5-2.3-3.8-2.8-6c0.2-1.3,0.2-2.7,0.7-3.9c0.7,0,1.4-0.1,2.2-0.1
			C621.9,22.4,621.9,25.7,621.9,29.1z"/>
		<path class="st7" d="M621.9,36c-1.2,0.1-2.4,0.1-3.3-1c-0.3-2.5,2.2-2.7,3.3-4C621.9,32.7,621.9,34.4,621.9,36z"/>
		<path class="st8" d="M155.2,138.8c-2-0.7-4-1.4-5.9-2.1c0.2-2,1.8-1.8,3-1.6c3.1,0.4,5.9-0.3,8-2.5c-0.9,0.3-2,0.4-3.1-0.3
			c-0.3-0.4-0.4-0.8-0.3-1.3c1.3-1.5,2.8-0.8,4.7-0.2c-2.6-1.2-5.5-0.7-6.8-3.4c1.8-2.7,3.8-5,7.5-4.4c2.8,0.4,3.4-2.9,5.7-3.3
			c2.5,0.2,4.1,2.7,7.6,2.9c-2.7-1-3.9-2.6-2.6-4.2c2-2.4,2.3-5.6,4.2-7.9c4.5-5.4,5.2-9.7,1.9-15.7c-0.2-0.4-0.3-0.9-0.3-1.4
			c0.2-0.7,0.6-1.2,1.3-1.6c1.7-0.3,3.1,1,4.8,1.1c0.4-1.3-1.4-3.2,0.8-4.1c1.1,0.1,1.7,0.8,2.2,1.6c0.4,0.6,0.7,1.2,1,1.9
			c0.6,2.3,2.3,4.2,1.8,6.8c-1.1,1.6-2.1,3.1-2,5.3c0.1,3.8-1.2,7.4-2.3,11.2c0.7-3.9,4.2-3.5,6.7-4.9c8.8-4.9,18.4-4.5,27.9-4.9
			c2.1-0.1,4.4,0,5.3,2.6c0.3,0.9-0.2,1.6-0.7,2.2c-1.7,0.9-1.5,4.1-4.3,3.8c-5,0-10-2.4-15-0.2c-1.1,0.5-2.3,0.1-3.4,0
			c-4.3-0.3-6.4,1.3-7.3,5.6c-0.3,1.6-0.8,3.2-2.1,4.4c-5.5,2.6-9.3,6.9-12,12.2c-0.6,1.1-1.4,1.9-2.7,1.7c-2.9-1.3-6.1-1.3-9-2.7
			c-0.6-0.3-1.5-0.7-1.8-0.1c-2.3,4.7-6.9,1.7-10.2,3.1C157,138.8,156.1,138.3,155.2,138.8z"/>
		<path class="st9" d="M619,49c0.9-0.1,1.8,0,2.1,1.1c-1.1,1.6-2.7,1-4.1,1c-66.5,0-132.9,0-199.4,0c-0.5,0-1-0.1-1.5-0.2
			c0.9-2.6,2.8-0.7,3.9-1.3c-2.5-0.3-5.2,0.1-7.9,1.3c-1,0-2,0-3,0c-4.7-2-9.6-0.2-14.4-1.1c-1.7-1.1-3.9-1.7-4-4.2
			c1-1.5,2.9-1.6,4.2-2.5c4.1-0.7,8.2-0.2,12.4,0.2c7.1,0.8,14.2-0.9,21.3-0.6c2.4,0.1,5.1-0.9,6.8,1.8c-0.8,1.9-1.3,3.2,1.9,3.2
			c9.8-0.1,19.5-0.3,29.3,0.1c0.1,0,0.2-0.1,0.3-0.2c-0.3-0.2-0.5-0.4-0.8-0.6c2.2-4.7,5.9-5.2,10.3-1.2c0.3,1.4-0.7,2-1.7,2.6
			c2.7-1,6.7,0,7.3-4.5c1-1,2.3-1.2,3.7-1.2c10.7,0.1,21.5-0.1,32.2-0.2c1.2,0,2.3,0.1,3.4,0.6c0.1,0.1,0.4,0.2,0.4,0.2
			c-0.4,5.8,3.7,4.2,6.8,4.1c7.6-0.1,15.3,0,22.9,0c7.5-0.6,15.1,0.2,22.7-0.2c12.8-0.2,25.5,0.2,38.3,0.2
			C614.6,47.6,616.9,47.8,619,49z"/>
		<path class="st10" d="M382,62.2c-2.3-1-4.7,3.1-7-0.1c-2.1-1.3-4.5-1-6.8-1.1c-13.3-0.2-26.5,0.4-39.8,0.4c-1.8,0-4.3,0.9-5.2-1.7
			c-0.8-2.5-0.9-4.9,1.8-6.6c3.4-1.1,6.9-0.6,10.4-0.6c10-0.1,19.9-0.2,29.9,0c6,0.1,11.8-1.5,17.7-1.8c3.7,0.2,7.6-1.4,10.9,1.5
			c0.1,0.5,0.2,1,0.3,1.6C396.2,62.6,390.4,63.3,382,62.2z"/>
		<path class="st11" d="M322.1,72c-0.7,1.6-1.5,3.3-2.2,4.9c-1.4,0.2-2,1.2-2.3,2.3c-1.3,5.4-5.8,7.3-10.2,9.1
			c-4.8,2-8.1,0.9-10.5-3.6c-1.3,0.4-1.1,1.5-1.2,2.5c-0.1,2.1-2.3,2.8-3.1,2c-2.4-2.4-6.2-1.8-8.2-4.6c-0.6-1.7-0.6-3.4,0-5.1
			c2.3-5.5,5.5-9.5,12.3-7.2c4.8-3.3,9.5-0.2,14.2,0.4c3.3,0.5,5.6-1.9,8.6-2.2C320.3,71.2,322.2,69.7,322.1,72z"/>
		<path class="st12" d="M285.2,85c1.1,0.4,2.1,1.4,3.2,0.7c1.8-1.1,2.9-1.6,2.8,1.3c-0.1,2.1,1.6,1.1,2.5,1.2c2,0.1,0.8-1.2,0.6-1.9
			c-0.9-5,3.6-1.4,4.5-3.4c1.3,1.5-1.9,2.8,0.6,4c2.5,1.3,4.9,1.7,7.5,0.5c4.7-2,9-4.5,10.2-10c0.5-2.3,1.5-2.2,2.8-0.6
			c-1.3,4.8-4.3,8.7-6.7,12.8c0.5,1-0.1,1.7-0.6,2.5c-2.1,0.7-2.2,2.6-2.6,4.3c-2.2,1.9-4.9,2.5-7.4,1.4c-4.2-1.9-7.7-0.8-11.1,1.9
			c-2.6,0.6-5,0.6-6.8-1.7C284,93.7,282.6,89.2,285.2,85z"/>
		<path class="st13" d="M306,123.9c-0.1,5.7-4.6,4.9-7.9,4.6c-8.7-0.8-17.2,1-25.7,1.8c-4.3,0.4-9.3,9.3-9.3,15.2
			c0,5.8,1,11.6-1,17.3c-0.5,0.3-1,0.2-1.4-0.3c-0.9-1.5-0.7-3.1-0.5-4.7c1.4-4.3-0.9-8.4-0.7-12.7c0.3-1.9,0.3-4,0.9-5.9
			c2.3-4.7,7.5-7.6,8.6-12.7c0.7-3.7,3.3-4.6,5.6-6.2c0.5-0.4,1.4-1,1.8-0.7c3.4,2.5,6.9-0.1,10.3,0.1c4.4,1.7,9,2.2,13.5,0.6
			c2.9-1.1,4.5-0.7,4.6,2.7C304.8,123.5,305.6,123.7,306,123.9z"/>
		<path class="st14" d="M306,123.9c-1.3,0.7-2.7,1.4-4.2,0.5c-0.7-1.9,2.3-1.8,1.8-3.7c-5.7,2.3-11.6,3.1-17.4,0.2
			c0.8-3.2,3.1-1.4,4.7-1.3c6.7,0.5,8,0,11.4-4.9c-0.1,0.2-0.5,0.8-1.2,0.7c-6.3-0.7-11.7,2.8-17.6,3.7c-2,0.3-2.8,0-3-2
			c-0.1-1-0.3-2.2,0.1-2.9c1.7-3.2,1-6.4,0.1-9.6c0.6-1.4,1.7-1.5,3-1.4c3.6,0.3,6.1,2.9,6.6,5.7c0.9,5.5,2.8,2.6,4.4,0.9
			c2.6-2.6,5.9-4.2,9-6.1c1-0.6,2.2-0.7,3.3,0c0.1,3-0.7,6.1,2,8.5C309.3,116.4,307.5,120.1,306,123.9z"/>
		<path class="st15" d="M322.1,72c-0.7-0.4-1.4-0.7-2.1-1.1c-2-3.6,1.6-7,0.3-10.5c0-0.5,0.1-0.9,0.2-1.4c1.8-3.3,1.8-3.6-0.1-4.6
			c-3.5-0.2-6.8-0.1-10.3,0.9c-3.4,1-5.7-0.4-7-3.7c3.7-0.9,7.5-1.2,11.2-1.1c3.3,0.1,6,0,6.2-4.3c0.1-1.5,1-2.8,2.9-2.7
			c2.5,1.6,1.6,4.1,1.9,6.4c-0.1,1.3,0.3,2.6-0.2,3.8c-2.4,5.9-1.7,7.1,4.3,7c12.9-0.2,25.8-0.6,38.7-0.8c2.5,0,5.1-0.4,6.8,2
			c-15.8,0-31.5,0-47.3-0.1c-2.8,0-3.8,0.9-3.7,3.6C324.2,67.9,323.8,70.2,322.1,72z"/>
		<path class="st16" d="M394,49c3.7,0,7.5,0,11.2,0.1c1.5,0,3.4-0.5,3.9,1.8c-5,0.1-10,0.2-14.9,0.3c-3.8,0.7-7.5,0.1-11.3,0.4
			c-17.2,1.6-34.5,0.9-51.7,0.9c-0.8,0-1.6-0.3-2.4-0.7c-1.6-1.3-0.4-2.2,0.4-3.2c3.7-1.6,7.6-0.9,11.4-1c15.8-0.3,31.5,0,47.3,0
			C390,47.5,392.1,47.8,394,49z"/>
		<path class="st17" d="M261.2,162.8c0.3,0,0.6,0,0.9,0c-2.5,13.7-11.7,21.5-24,26.1c-10.6,3.9-21.6,4.9-32.9,3.8
			c-1.1-1.1-3,0.3-4-1.3c0.4-1.8,2-2,3.3-2.6c3-0.8,6-0.2,9,0.4c5.1,0.6,10-0.3,14.9-1.3c6.2-1.2,12.1-3.3,17.6-6.6
			c4.8-2.9,8.7-6.6,11-11.8c0.8-1.5,1.6-2.9,2-4.5C259.4,164.1,259.3,162.5,261.2,162.8z"/>
		<path class="st18" d="M102.2,261.8c-3.3,0-6.6-0.1-9.9-0.1c2.5-3-1.6-5.6-0.5-8.5c1-5.6,2.8-11.1,4.2-16.6
			c0.3-1.3,0.2-3.5,2.8-2.5c1.2,5.6,1.3,11.3,2,17c0.2,1.9,0.2,3.9,1.5,5.6C102.2,258.4,102.2,260.1,102.2,261.8z"/>
		<path class="st19" d="M137.2,135.7c-12.9,1.1-20.6,9.4-26.4,19.9c-3.4,6-5.8,12.5-7.8,19.1c-0.9,0.1-1.3-0.5-1.6-1.2
			c-0.3-1-0.2-2,0.1-2.9c1.7-5,3.4-10.1,5.9-14.8c4.4-7.6,10.2-14.2,16.1-20.7c2.9-1.7,5.8-3.5,9.3-1.6c1.4,0.2,2.9,0.2,4.2,1
			c0.3,0.2,0.4,0.5,0.4,0.8C137.3,135.6,137.3,135.7,137.2,135.7z"/>
		<path class="st20" d="M172.9,175c-4.5-5.5-5.2-12.4-6.7-19c-1.3-5.8-3.5-11-8-15.1c2.5-1.7,3.9,0.2,5.6,1.5
			c3.9,3,4.9,7.7,6.9,11.8c0.7,1.4,0.7,2.8,0.5,4.2c-1.2,3.1,0.2,5.7,1.5,8.3c0.2,2.1,1.8,3.5,2.5,5.4
			C176,174.1,176,175.8,172.9,175z"/>
		<path class="st21" d="M170,153.8c-2.7,1.2-1.6-1.1-1.8-2.1c-0.8-4.8-5.3-9.8-9.9-10.9c-1-0.7-2-1.4-3.1-2.1
			c0.5-0.8,1.3-0.9,2.1-0.9c2.1,0.1,4.2,0.4,6.2,1.3c3.1,1.5,5.9,1.6,8.7-0.7c1.4-1.2,3.6-2.3,4.8-0.5s-0.5,3.2-2.1,4.2
			c-3.1,0-1.4,2.9-2.6,4.1C171,148.6,172.4,151.8,170,153.8z"/>
		<path class="st22" d="M204.2,189.8c-0.7,0.5-1.4,1-2.2,1.6c1,0.6,2.5,0,3.1,1.3c-11.2-0.3-20.4-4.9-28-12.9c2.3-1.6,4,0.8,6.1,0.7
			C189.4,185.6,197.6,185.9,204.2,189.8z"/>
		<path class="st23" d="M137.2,135.7c0-0.3,0-0.6,0-0.8c2.5-3.5,5.5-2.3,7.9-1.3c-1.9-1.7-0.5-2.6,1.8-2.9c3.5-0.3,6.9,1,10.4,1.1
			c1.6,0,3.3,0,4.8,0c-2.6,6.5-8.5,3.6-12.9,4.8C145.3,135.4,141.2,136.2,137.2,135.7z"/>
		<path class="st24" d="M312.1,91.9c0.4-0.7,0.7-1.4,1.1-2.1c0.3,0.2,0.8,0.4,0.8,0.5c-1.1,5.4-2,10.8-4.8,15.6
			c-1.8-1.4,0.2-3.7-1.4-5.2c-3.4-0.9-6.8-0.2-10.2-0.4c-1.9-0.1-4,0.3-5.4-1.5c1.7-3.2,4.6-4.2,7.7-2.8c3.6,1.6,6.9,1.4,10.3-0.1
			C310.6,94.4,310.9,92.9,312.1,91.9z"/>
		<path class="st25" d="M102.2,256.7c-2.4-0.1-1.7-2-1.9-3.3c-0.8-6.5-1.5-13.1-2.2-19.6c-2.1-5.3-2.2-10.8-2.2-16.3
			c0.1-0.9,0.3-1.7,0.8-2.5c0.7-0.7,1.5-0.8,2.3-0.2C99.4,228.9,100.5,242.8,102.2,256.7z"/>
		<path class="st26" d="M183.1,181.8c-2.4,0.6-3.8-2-6-1.9c-2-1.1-3.4-2.8-4.2-4.9c2.1-0.3,2.1-1.1,1.2-2.9c-0.8-1.6-3.6-2.6-2-5.2
			c0.3-0.4,0.7-0.5,1.2-0.5c1.3,0.2,1.9,1.2,2.7,2.1c2.5,4,5.5,7.6,8.5,11.2C184.7,180.8,183.9,181.3,183.1,181.8z"/>
		<path class="st27" d="M382,62.2c0.5-4.3,2.4-0.2,3.4-0.3c5.3-0.4,8.9-2,8.8-8c3.2,6.4,1.1,10-5.9,9.8
			C386.2,63.6,383.5,64.9,382,62.2z"/>
		<path class="st28" d="M102,173.6c0.4,0.4,0.7,0.8,1.1,1.2c-2.2,7.8-3.3,15.8-4,23.9c-2.1-0.1-1.8-1.8-2.1-3.1
			c-0.2-5.9,0.7-11.6,2.2-17.3C100,176.6,99.7,174.3,102,173.6z"/>
		<path class="st29" d="M98.1,195.7c0.3,1,0.7,2,1,3c0,5.4,0,10.8,0,16.2c-0.5,0-1.1,0-1.6,0c-2.8-3-1.2-6.6-1.5-9.9
			c-0.2-2.1-0.1-4.3,0.1-6.4C96.2,197.2,96.5,196,98.1,195.7z"/>
		<path class="st30" d="M310.1,100c-0.3,2-0.6,3.9-1,5.9c2.1,2.1-0.5,4.2-0.1,6.2c-3.8-1.4-4.6-4.7-2-8.2c-0.4-1,0.1-1.7,0.6-2.5
			C308.3,100.8,308.5,99.2,310.1,100z"/>
		<path class="st16" d="M412.1,50.9c2.9-2.2,2.9-2.2,9-1.4c-1.5,1.3-3.7-0.2-5,1.4C414.7,50.9,413.4,50.9,412.1,50.9z"/>
		<path class="st31" d="M383,51.1c3.7,0,7.4,0,11.1,0c-0.1,0.4-0.1,0.7-0.2,1.1c-3.6-0.1-7.2-0.2-10.8-0.3c-0.3-0.2-0.4-0.4-0.3-0.5
			C382.8,51.2,382.9,51.1,383,51.1z"/>
		<path class="st32" d="M2.3,261.8c0.2-8,2.9-15.5,4.7-23.2c0.2-6.6,3.4-12.5,4.9-18.8c3.1-12,6.9-23.8,11.4-35.3
			c1.6-3.8,3.3-7.6,4.9-11.4c1.3-2.8,2.2-5.8,4.3-8.2c6.8-15.5,16.5-29.4,25.6-43.6c3.3-5.1,6.7-10.5,11.2-14.9
			c1.8-1.8,3.1-4.2,4.7-6.3c1.6,0,3-1.3,4.7-0.9c3.5,1.4,1.1,2.9,0,4.3c-6.7,3.1-9.8,9.5-13.8,15c-0.9,1.3-1.5,2.9-2.6,4.1
			c-3.6,4.7-7,9.4-8.5,15.3c-0.3,0.7-0.7,1.2-1.3,1.7c-3.3,3.7-6.6,7.4-7.7,12.4c-1.1,4.6-3.3,8.8-4.9,13.2
			c-2.3,5.8-4.3,11.7-6.8,17.4c-0.7,1.7-1.2,3.4-1,5.3c-0.2,1.8-1,3.3-2.3,4.5c-3.5,2.2-4.2,6.5-3.8,9.2c1.5,8.3-2.5,14.9-5.1,21.9
			c-1.7,4.6-2.6,9-2.9,13.9c-0.4,6.5-0.3,13.5-4.8,19.1c-1.3,1.7,0.2,3.6-0.8,5.2C8.9,261.7,5.6,261.7,2.3,261.8z"/>
		<path class="st33" d="M619.7,19.1c1.6,1.6,2.2,3.1-0.7,3.9c-13.3,3.7-26.7-0.6-40.1,1c-1.8,0.2-3.7-0.4-5.3,0.7
			c-0.8,1.2-2.1,1.6-3.5,1.6c-9.8,0.1-19.5,0.3-29.3-0.2c-0.8,0-1.6-0.4-2.3-0.8c-1.9-2.7-4.1-4-7.5-2.6c-2.5,1-5.4,0.6-7.9-0.2
			c-4.6-1.6-9.1-1.4-13.7-0.2c-2,0.5-4,0.6-5.6-1c-0.3-0.5-0.4-0.9-0.2-1.4c1.6-0.9,3.5,0.1,5.2-0.7c19.3,0,38.7,0,58,0
			c3.8,2.1,7.4-0.7,11.1-0.8c6.8-0.1,13.6,0.2,20.4,0.2c3,0,6-0.3,8.6-1.9C610.8,20.3,615.4,18.9,619.7,19.1z"/>
		<path class="st34" d="M509,19.2c-1.5,1.4-3.3,0.6-5,0.9c-1.8,1.6-4,1.3-6.2,1.3c-10.1,0.2-20.3-0.1-30.4,0.2
			c-1.9,0.1-5.1-1-5.1,2.8c-1.4,3.2-5.4,0.6-7.1,3.2c-0.9,0.9-1.9,1.4-3.2,1.5c-1,0.1-1.9,0-2.9-0.1c-4-0.4-7.9,0.5-11.9,0.1
			c-1.8-0.5-3.8-0.2-5.3-1.6c-2.1-2.4-0.5-3.2,1.6-3.5c5.4-0.8,10.8-1.4,16.3-0.9c0.9,0.1,1.9,0.7,3.6-0.9
			c-11.9-1.4-23-0.9-34.1,0.1c2.4,1.5,6.4,0.4,6.6,4.2c0.2,2.8-2.6,2.2-4.6,2.2c-0.5,0-0.9,0-1.4-0.1c-3-0.5-6-1.5-9,0
			c-0.7,0.1-1.3,0.1-1.9-0.2c-1.7-2.3-3.1-0.9-4.4,0.4c-0.6,0.4-1.3,1-1.8,0.7c-3.1-1.6-5.2,0.6-7.6,1.7c-4.2,1.9-6,1.3-9.2-3.1
			c3-1.5,3-1.5,7.1-1.1c-1.1-0.5-2.1-0.7-2.9-1.5c-1.6-2-2-4.2-1.2-6.6c1.7-0.2,3.5-0.7,5,0.6c0.7,0.8,0.5,2.3,1.9,2.6
			c-0.5-0.9-0.8-1.7,0-2.6c-0.1-0.3,0-0.5,0.2-0.6c3.1-1.1,5.1-0.4,5.6,3.2c1.1-0.7,0-2.4,1.2-3c5-1.2,10.1-0.4,15.1-0.4
			c28.6,0,57.2,0.1,85.8,0.2C505.7,19.1,507.3,19.2,509,19.2z"/>
		<path class="st35" d="M154.4,24.3c0.9-0.1,1.9-0.2,2.8-0.3c1.8,0.3,3.6-1.2,5.4-0.1c2.1,0.3,4.2,0.4,6.2,1
			c3.3,1.1,1.8-3.6,4.3-3.2c1.5,0.4,1.3,2.6,2.9,2.9c1.7,0.4,2.2,1.6,1.6,3c-0.9,2.2-1.3,4.3-0.1,6.7c0.8,1.5-0.6,2.3-1.7,3.1
			c-3.4,2.4-7.3,3.7-10.9,5.5c-2.9,2.9-5.5,6-8.5,8.7c-1.5,1.4-3,3.3-5.3,1.1c-0.1-0.5-0.2-0.9-0.1-1.4c0.4-0.9,1.1-1.5,1.6-2.2
			c3.4-4,3.2-8.2,1-12.6c0.8-2.6-2.1-4.5-1.3-7.1c-0.7-1.9-3.4-0.5-4.2-2.5C149.1,23.6,152.3,25.2,154.4,24.3z"/>
		<path class="st36" d="M326.1,19.2c3.9-0.6,7.9-0.6,11.9-0.2c1.5,1.4,0.6,2.5-0.7,4c2.3-0.9,2.3-3.2,3.9-4c3-0.3,5.9-0.8,8.9,0
			c6.8,5.3,12.3,5.3,20.1,0.1c3.3-1.2,6.6-0.7,10-0.1c-0.3,3.1-4.5,3.2-4.9,6.2c-0.4,1.5,0.8,1.5,1.7,1.6c1.6,0.2,3.3-0.1,4.3,1.6
			c-1,2.5-3.2,1.8-5,1.9c-3.4,0.3-6.8-0.7-10.2,0.2c-1.8,0.5-2-1.1-2.4-2.4c-2.7-1.1-5.4-1.6-8.1,0c-1.9,2.9-5,1.6-7.5,2.1
			c-0.9,0.1-1.9,0.1-2.8,0.2c-3.5,0.3-6.9-1-10.3-0.4c-0.9,0.1-1.8,0.1-2.7-0.3c-1.8-1.4-4-0.2-5.9-1.1c-0.4-0.3-0.5-0.7-0.6-1.2
			c-0.1-2.1,2.6-4.2,0.1-6.3C325.5,20.3,325.5,19.7,326.1,19.2z"/>
		<path class="st37" d="M151.2,51.1c0,0.3,0,0.6,0,0.8c-0.8,1.5-2.1,2.7-3.3,3.8c-0.8,0.8-1.5,1.6-2.4,2.2c-3,2.3-6.1,4.4-9.5,6.1
			c-5.6,2.4-11.4,4.7-17.4,5.9c-2,0.4-4.3,1.4-5.9-1c7.9-12.3,19.4-18.7,33.4-21.3c0.4,1.2,1.2,1.2,2.2,0.8
			C149.9,48.7,150.9,49.5,151.2,51.1z"/>
		<path class="st38" d="M222.2,10.1c22.6,0,45.2,0.1,67.9,0.1c0.3,0.5,0.3,0.9-0.1,1.3c-3.9-0.1-5,3.5-7.3,5.7
			c-11,0.8-21.9,0.2-32.9,0.3c-5.5,0.1-11,0.2-16.4-0.1c-2.9-0.8-4.2-2.7-4.1-5.5c-1.5,1.1,0.6,2.4,0.2,3.7
			c-0.1,0.5-0.4,0.8-0.8,1.1c-1,0.3-1.9,0.3-2.7-0.4c-0.3-2.9-3.8-0.4-4.5-2.7C221,12.3,221.2,11.1,222.2,10.1z"/>
		<path class="st39" d="M607.1,16.7c-0.4,2-1.3,3.3-3.6,3.3c-4.6,0-9.3,0.3-13.9-0.1c-6.2-0.5-12.4,0-18.5,0.7
			c-1.9,0.2-3.2,0.4-4.2-1.4c1.6-0.1,3.2-0.2,4.8-0.3c1.2-0.8,0.9-2.6,2.2-3.4c2.3-1.1,5.1-2,7.2-1.1c6.1,2.5,10.7-1.8,16.1-2.6
			c0.4-0.1,0.8,0,0.7-0.2c-0.2-1.4-0.9-3.4,1.7-2.8c1.9,0.4,3.1,1.8,3.3,3.9c0.2,2.2,3,1.7,3.7,3.4
			C607.1,16.2,607.2,16.4,607.1,16.7z"/>
		<path class="st40" d="M112.7,69c6,0.9,11.3-1.7,16.7-3.6c2.3-0.8,4.5-2.1,7-2.3c1.6-0.1,1,0.8,0.5,1.4c-1.2,1.3-2.9,2.1-4.1,3.4
			c-0.8,0.7-1.7,0.9-2.7,1c-7.3,2-14.9,2.5-22,5.2c-4.1,2.1-8.6,1.6-12.9,2.2c-4.2,0.6-8,1.7-10.8,5.1c-1.9,1.6-1.3,4.7-3.8,5.8
			c-0.7-0.3-1-0.8-0.5-1.5c-2.2,0.2-2.2,0.2-1.9-2.7c2.7-9.8,10.6-11.1,18.9-11.8C102.3,70.6,107.6,70.6,112.7,69z"/>
		<path class="st41" d="M80.3,87c1.7-1.6,0.7-4.6,3-5.9c1.4-0.8,2.7-2.1,4.4-0.7c1.7,1.3,1.4,3.1,0.7,4.5c-2.3,4.2,1.3,8.3,0.1,12.5
			c-2.9,2.8-6.8,1.8-10.3,2.7c-1.4-0.2-2.8,2-4.2,0c0.4-0.7,0.9-1.3,1.3-2c2.7-1.3,4-3.3,3.8-6.4C79,90,78.8,88.3,80.3,87z"/>
		<path class="st42" d="M222.2,10.1c0,1.3,0,2.7,0,4c-0.1,1.6-1.3,1.7-1.9,0.8c-1.6-2.7-4-2.5-6.5-2.5c-6.8-0.1-13.6,0.5-18.8-0.8
			c3.7-0.1,4.4,0.9,2.2,5c-2.5,1.3-5.3,0.4-7.8,1.3c-1,0.2-2,0.2-3-0.3c-1-0.6-0.2-3.8-3.1-1.8c-1.3,0.9-3.6,1.8-5.4,0.1
			c3.3-3.9,7.6-5.7,12.6-5.8C201.1,10,211.7,10.1,222.2,10.1z"/>
		<path class="st43" d="M370.1,19.2c-2.6,5.3-7.5,5.1-12.3,4.9c-3.6-0.1-6.8-0.9-7.8-5c1.7,0,3.5-0.1,5.2-0.1
			c4.6,0.7,9.2,1.5,13.8,0.1C369.4,19.1,369.7,19.1,370.1,19.2z"/>
		<path class="st44" d="M129.4,25.1c-0.7-0.8-1.4-1.5-2.1-2.3c-1.6-0.8-1.6-2,0.1-2.1c2-0.1,3.4-1.1,5-1.9c2.1-1.5,2.9,1.5,4.6,1.4
			c0.8,1.7,2.8,2.9,2.7,5.1c-2.9,5.2-3.5,5.3-7.7,1.3C131.1,26,130.3,25.4,129.4,25.1z"/>
		<path class="st45" d="M178,15.9c3.5-0.9,7-1.7,10.7-2.6c-0.1,2.2-3.1,1.8-2.5,4c0,1.3-0.9,1.3-1.9,1.2c-2.6-0.8-3.5,1.2-4.5,2.8
			c-0.3,0.6-0.7,1.2-1.2,1.6c-1,0.9-2.2,1.5-3.4,2.1c-3.7,0.7-0.4-2.9-2.2-3.4C173.9,19.1,176.2,17.7,178,15.9z"/>
		<path class="st46" d="M139.1,25c0-1.9-3.3-2.3-2.2-4.7c5.3,3.7,11.4,3.7,17.5,4c-1.9,1.3-4.7,0.5-6.1,2.8c0.9,2.6,1.6,5.2,1.3,8
			c-0.6,0.9-1.2,1.4-2.3,1c-0.8-1.3-1.3-2.7-1-4.2c1-4.2-1.1-6-4.9-6.6C140.5,25.6,139.8,25.8,139.1,25z"/>
		<path class="st47" d="M124.3,21.9c-1.1-0.1-2.3-0.1-3.4-0.4c-1.6-0.4-4.4,0.6-4.5-1.9c-0.1-2.2,1.8-3.8,4.1-4.4
			c2-0.5,4.2-1.4,6,0.7C126.9,18.3,127.1,20.6,124.3,21.9z"/>
		<path class="st48" d="M374.1,25c0.3-3.7,3.8-4.2,6-6c2.7-1.1,5.3-0.4,8,0.2c0.3,0.2,0.4,0.4,0.4,0.7c0,0.3-0.1,0.4-0.2,0.4
			c-0.8,0.8-1.8,1.1-2.8,1.5c-1.8,0.9-1.8,3.4-3.8,4.1C378.9,27,376.3,27.4,374.1,25z"/>
		<path class="st49" d="M80.3,87c0,2.3-0.1,4.5,0.1,6.8c0.2,3.7-1.6,4.9-5.1,4.2c1-5,1.9-10,2.9-15C77.6,85,80,85.4,80.3,87z"/>
		<path class="st50" d="M23.3,184.5c-3.2,10.4-6.3,20.8-9.5,31.3c-0.4,1.4-0.9,2.8-1.4,4.2c-0.9-0.4-0.4-1.5-1-2
			C14.9,206.6,17.7,195,23.3,184.5z"/>
		<path class="st51" d="M290.1,11.1c0-0.3,0-0.6,0-0.9c10.6,0.1,21,1.1,31,5.1c-0.2,2-1.7,1.6-2.9,1.6c-1.1-0.2-2.2-1.1-3.3-1
			c-1.5,0.1-3.5-3.1-4.7,0.7c-0.3,0.9-2.7,0.9-3.6-0.1c-3.7-3.9-8.7-3.4-13.3-4.1C292.1,12.2,290.9,12.1,290.1,11.1z"/>
		<path class="st52" d="M139.1,25c0.8,0.1,1.5,0.2,2.3,0.2c-1.1,3.2-2.2,6.3-3.5,10c-3.1-3.7-5.8-7-8.5-10.2c1-0.9,1.9-0.5,2.5,0.4
			C134.6,29.8,136.9,28.3,139.1,25z"/>
		<path class="st53" d="M574,16.1c-0.1,1.4-0.7,2.4-2.2,2.8c0.5-6.8,3.5-12.2,9.1-16c0.1,0.2,0,0.4-0.1,0.5c1.1,1.2,3.7-1.1,4,1.4
			c0.2,1.8-1.5,2.9-2.9,3.6C578.4,10.1,576.6,13.6,574,16.1z"/>
		<path class="st54" d="M318.1,16c1.1,0,2.2,0.2,2.9-0.8c1.8,0.7,4,1,3.9,3.7c0.1,2.8,0.9,5.5-0.1,8.3c-1.5,2.2-3.3,1.6-5,0.3
			c-0.3-0.4-0.5-0.8-0.6-1.2c-0.3-1.4,0.9-2.3,1.2-3.5c0-0.4,0-0.8,0.1-1.2c-0.3-1.8-2.6-2.4-2.8-4.3
			C317.7,16.8,317.8,16.4,318.1,16z"/>
		<path class="st55" d="M147.2,36.1c0.6-0.4,1.1-0.7,1.7-1.1c0.5-0.3,1-0.4,1.5-0.1c1.5,1.9,1,3.8,0.2,5.8c-2.6,2.3,0.4,6.1-2.4,8.4
			c-0.7,0.8-1.5,1.6-2.2,2.5c-1.3-1.5,0.2-2.6,0.2-3.8c-0.3-0.6-0.6-1.2-1-1.8C144.6,42.3,145.3,39.1,147.2,36.1L147.2,36.1z"/>
		<path class="st56" d="M124.3,21.9c0.7-2,1.5-4,2.2-5.9c1.8,1.3,4.4,1,5.8,2.9c-1,2.2-1.7,4.8-5.1,2.5c-0.6-0.4-0.2,0.9,0,1.4
			C126,23.3,125.3,22.1,124.3,21.9z"/>
		<path class="st57" d="M11.4,217.9c0.9,0.4,0.8,1.3,1,2c-1.8,6.2-3.6,12.4-5.4,18.6c-0.3-0.7-0.6-1.3-0.9-2
			C7.9,230.3,9.7,224.1,11.4,217.9z"/>
		<path class="st58" d="M324,27.9c0.6-3-1-6.1,1-9c0.4,0.1,0.8,0.2,1.1,0.3c0,0.6,0.1,1.1,0.1,1.7c1.5,2.1,0.5,4.1,0,6.2
			c0,0.3,0,0.5,0,0.8c0.3,0.4,0.3,0.8,0.2,1.3c-0.1,0.2-0.2,0.4-0.3,0.6c-0.8,1.2-1.6,2.4-2.9,3c-1.3,0.5-2.4,0.6-2.9-1.1
			C320.1,29.1,322.4,28.8,324,27.9z"/>
		<path class="st46" d="M147.2,36c0.1,3.5-1.1,6.6-2.1,9.9C141.5,41.3,141.5,41.1,147.2,36z"/>
		<path class="st36" d="M369,19.1c-4.7,4.3-9.2,0.2-13.8-0.1C359.8,18.8,364.4,18.5,369,19.1z"/>
		<path class="st59" d="M403.1,19.2c1.5,3.1,0.3,4.9-3.3,5.6c2.1-4.1,0.9-6.1-3.6-5.8C398.6,17.1,400.8,18.8,403.1,19.2z"/>
		<path class="st60" d="M341.1,19.1c-1.7,6.1-2.4,6.4-6.7,2.4c1.6-0.4,4.4,0.9,3.5-2.4C339,18.8,340.1,18.5,341.1,19.1z"/>
		<path class="st61" d="M396,19.7c0.1,0.5,0.2,1,0.2,1.4c0,1.4,2.9-1.1,1.9,1.3c-0.6,1.6-2,1.2-3.3,0.5c-1.7-0.8-1.3-2-0.7-3.3
			C394.7,19.7,395.4,19.7,396,19.7z"/>
		<path class="st62" d="M32.5,164.8c-1.1,2.9-2.2,5.8-4.3,8.2C28.6,169.7,29.5,166.7,32.5,164.8z"/>
		<path class="st59" d="M387.8,20.2c0.1-0.3,0.1-0.7,0.2-1c0.4,0,0.7-0.1,1.1-0.1c1.6,1.7,0.2,4.5,2.1,6.1c-0.7,2.3-2,1.7-3.4,0.6
			C387.2,24,387.5,22.1,387.8,20.2z"/>
		<path class="st63" d="M162.5,23.9c-1.8,0.3-3.6,1.7-5.4,0.1C158.9,23.7,160.7,20,162.5,23.9z"/>
		<path class="st64" d="M574,16.1c1-6,6.6-7.6,10.3-10.8c-0.2-3-4.7,4-3.4-1.9c7.7-4.4,18.8-2.3,24.1,4.5c1.9,2.5,2.8,5.1,1.9,8.1
			c-2,0-3.5-3.1-6.3-0.1c2.7-3.4,1.6-5.3-1.6-6.8c1.7,5.9-3.7,3.5-5.8,5.1C587.2,19.2,580.2,13.6,574,16.1z"/>
		<path class="st65" d="M29.3,191.8c0.7-1.3,1.4-2.7,2.1-4c2.4-4.1,2.8-9.1,5.3-13.2c2.9-4.7,7.7-6.1,11.9-3.1
			c1.7,1.2,2.9,2.8,1.5,4.6c-2.2,3-4,6.6-8.2,7.8c1.5,1.7,3,1.2,4.6,0.2c1.9-1.2,3.9-0.7,5.6,0.5c1.8,1.3,1.6,3.1,0.7,4.9
			c-0.3,0.6-0.8,1.5-0.5,1.9c3.3,4.3,2.2,8-2.3,11.4c3.6-1.2,6.3-2.7,8.6,0.7c0.5,0,0.9,0.1,1.2,0.4c2.1,1.7-0.5,4.3,1.3,6
			c4.2-2.8,5.9-2.6,7.1,0.9c-0.5,1.6-1.3,3-2.4,4.3c-0.3,0.4-0.7,0.7-1,1c-8.7,5-12.1,4.7-18.1-2.3c-1.2-1.4-2-1.1-2.8-0.3
			c-1.4,1.3,0.6,1.3,1,1.8c1.6,1.6,2.6,3.8,4.8,4.9c1.1,0.6,2,1.8,1.1,3.4c-0.2,0.3-0.4,0.5-0.7,0.7c2,0.5,6-1.3,3.4,3.9
			c-1.1,2.2,2.8,2.8,3.9,4.9c3,5.6,1.9,8.6-4.3,9.8c-0.8,0.2-1.7,0-2.4,1.1c0.8,2.2,2.7,3,4.9,3.3c1.9,0.3,4.5-0.4,3.8,2.9
			c-0.5,2.3-1.5,4.5-4.6,4.3c-1-0.1-2.5-1.5-3,0.1c-0.6,1.9,1.6,1.6,2.6,2.2c1.8,1,3.6,1.5,5.7,1.8c1.9,0.3,4.1,0.5,4,3.3
			c-6.9,0-13.9,0.4-20.8-0.1c-6.4-0.5-7.4-3.1-3.4-8.9c-2.1,0.9-5.3-1.2-4.1,3.3c0.3,1.2-1,2.1-2.6,2.3c-1.7,0.2-2.7-0.3-2.9-1.9
			c-0.2-2-3-3.8-0.1-6c1-0.8,0.6-2.3-0.4-3.1c-1.1-0.9-1.1,0.6-1.7,0.9c-5.5,3.7-6,4.4-9,12.2c-0.2,0.4-0.7,0.7-1,1
			c-5.2-0.9-5.7-1.8-3.3-6.7c2.8-6,3.7-12.6,4.6-19.1c0.8-6.1,1.7-12,4.4-17.6c3.3-6.9,2.9-14.5,4.1-21.7
			C28.1,194.8,28,193.1,29.3,191.8z"/>
		<path class="st66" d="M64.3,261.7c-1.1-2.1-3.1-2.6-5.1-2.3c-3.4,0.7-5.4-2.3-8.5-2.9c-2.6-0.5,1.9-3.2-0.2-5.1
			c6.3,2.8,6.3,2.8,8.5-3.3c-3.5,0.7-6.6,0.1-8.8-2.7c-0.6-0.7-1.7-1.4-1.3-2.5c0.4-1.2,1.9-2,2.8-1.6c3.9,1.7,4.8-2.3,7.1-3.6
			c-1.9-2.3-2.1-5.9-5.2-7.4c-1.2-0.6-2.7-0.4-3.7-2c1.1-1.2,3.8-0.2,4.1-2.7c-2-1.4-3.9-0.4-5.9,1.2c2.3-4.3,0.7-8.4-4.1-11
			c-1-0.6-2.1-0.9-2.8-1.9c-0.3-0.4-0.4-0.9-0.8-1.8c2.7,0.4,5.1,0.2,6.5-3.1c1.1,6.8,6,10.2,11.6,8.6c2.4-0.7,4.6-1.9,6.8-2.9
			c0.4,3,1,5.7,5,5.2c1.7-0.2,3.3-0.4,4.2-2c0.4-0.7,0.6-2.1,0-2.2c-1.8-0.4-3.3-2.4-5.3-1.3c-1.3,0.7-2.5,1.7-3.9,0.4
			c0.7-1.3,1.3-2.7,2-4c0.4-0.3,0.9-0.5,1.1-1c0.8-1.6-3-2.3-0.9-4.1c1.5-1.2,3.2,0.1,4.8-0.2c1.1-0.2,2.2-0.7,3.4-0.2
			c-0.3-1.2-1.8-2.4-0.2-3.5c1.4-1.1,2.4,0.3,3.4,1.1c0.5,0.4,1.4,0.9,1.4,1.3c0.3,5.4,4.6,7.7,8.8,10.6c1-0.3,1.9-2.7,4.1-2.5
			c2.7,3.2,2.1,7-1.3,9.4c-2,1.4-4.4,2.3-6.5,3.5c-2.7,1.6-3.6,4.2-0.5,5.6c3.8,1.7,3.4,6.7,7.3,8c0.5,0.2,0.8,1.4,0.4,1.8
			c-3.8,4.3-0.1,8.7-0.4,13.1c0.4,1.1,0.4,2.6,1.2,3.1c4.3,2.8,0.8,3.6-1.1,4.9C83,261.7,73.6,261.7,64.3,261.7z"/>
		<path class="st67" d="M29.3,191.8c-0.7,11.3-1.1,22.6-6.9,32.9c-2.1,3.8-1,8.5-1.9,12.7c-1.4,6.2-1.9,12.6-5.1,18.3
			c-1.8,3.3-0.5,5,2.7,6c-2,0-3.9,0-5.9,0c-1.3-2.9-2.9-5.8,1.7-7.4c1-0.3,0.8-1.5,0.9-2.5c0.3-7.3,1.9-14.5,2.7-21.8
			c0.5-5.1,3.5-10,5.5-14.9c1.6-4.1,2.9-8.2,1.4-12.7C23.6,200.1,27.1,192.8,29.3,191.8z"/>
		<path class="st68" d="M577.7,28.9c7.5,0.6,15,1.2,22.5,1.8c0,0.3,0,0.5,0,0.8c-2.5,0.8-4.9,1.5-7.4,2.3c-1.4,1.8-3.5,1.5-5.4,1.5
			c-2,0-3.9,0.3-5.5,1.4c-2.5,0.8-5,0.8-7.6,0.4c-9.7-2.5-19.4-0.3-29.1-0.6c-1.6,0-2.5,1.5-3.9,2c-0.5,0.1-1.1,0.4-1.4,0.2
			c-7.7-4.6-16.1-1.9-24.2-2.5c-1.7-0.1-3.3-0.3-4.6-1.5c-1.1-2-3.5-3.4-2.7-6.2c0.7-0.6,1.5-0.8,2.3-1.1c9.2-0.1,18.5,0.2,27.7,0.1
			c3.1,0,6.3,0.3,9.4-0.4c8.6-0.7,17.2-1,25.8,0.5C574.9,27.8,576.7,27,577.7,28.9z"/>
		<path class="st69" d="M575.2,28.9c-9-1.1-18.1-0.8-27.2-0.7c-2.4-1.3-5.1-0.6-7.6-1c-2.1-0.3-4.2-0.4-5.6-2.4
			c0.7-1.8,1.9-1.6,3.2-0.8c7.7,2.2,15.5,0.6,23.3,1.1c4.1,0.3,8.3-0.2,12.5-0.3c3.1,0.1,6.3,0.2,9.4,0.3c-1.4,3.4-4.6,2.1-6.6,1.7
			C573.3,26.3,576.5,28.9,575.2,28.9z"/>
		<path class="st70" d="M575.2,28.9c-0.4-0.7-0.7-1.5-1.2-2.4c2.9-1.3,6.4,0.5,9.2-1.4c7.2-0.3,14.4,0.1,21.5,1.3
			c0.9,0.2,2.3-0.3,2.1,1.2c-0.2,1.5-1.4,0.8-2.3,0.7c-7.9-0.2-15.7-0.3-23.6-0.5c-1.2,0-2.3-0.1-3.1,1
			C576.8,28.2,576,28.3,575.2,28.9z"/>
		<path class="st71" d="M582.2,35.9c3-3.3,7-1.3,10.6-2c6.1-0.3,12.2-0.6,18.3-0.8c1.1,0,3.2-0.5,1.6,1.9c-0.2,0.3-0.5,0.6-0.7,0.8
			c-2.9,2.8-6.5,1.3-9.8,1.6c-6.1-0.1-12.3,0.6-18.4-0.5C583,36.8,582.6,36.4,582.2,35.9z"/>
		<path class="st72" d="M619,49c-15.3,0-30.7,0-46,0c-3.5-2.2-3.4-2.7,0.5-5.8c10-0.7,20-1,30-1.2c1.4,0.4,2.5,1.1,2.7,2.7
			c-0.5,2-2,2.4-3.6,2.4c5,0.1,10.3-1.6,15.4,0.9C618.3,48.3,618.6,48.6,619,49z"/>
		<path class="st72" d="M601.9,36.2c3.3-0.1,6.6-0.2,10-0.3c3.7-0.1,7.3-0.1,7.2,5.1c-0.2,0.1-0.5,0.2-0.7,0.4
			c-4-0.6-8.1-0.9-12.1-1.1C603.8,40.1,600.9,40,601.9,36.2z"/>
		<path class="st73" d="M617.9,48c-6.4,0-12.8,0-19.2,0c2.3-2,5-1.4,7.2-2.9c0.2,0,0.5-0.1,0.7-0.1c2.3-0.3,4.7-0.2,7,0
			c0.5,0.1,0.9,0.2,1.4,0.3c1.1,0.4,2.3,0.7,3,1.8C618,47.4,618,47.7,617.9,48z"/>
		<path class="st72" d="M618,47.1c-1.1-0.1-2.4,0.1-3.1-1.1c0.9-1.9,2.7-3.1,3.8-4.9l0.3-0.2c0.6,0.1,1.5-2.2,1.8-0.1
			C621.2,43.3,621.3,46.1,618,47.1z"/>
		<path class="st74" d="M225,110c1.9-3.1-0.8-2.9-2.3-3c-6.2-0.1-12.4,0.8-18.6,1.1c-5.3,0.3-8.8,4.4-14,4.5c-2.8,0.1-2.1,3.6-2.8,7
			c-1.6-3-3.3-4.3-1.3-7.5c1.5-2.4,2.5-6.4,1.5-8.7c-1.7-3.9,0.9-3.6,2.7-4.6c2.4-3.2-1-4.7-2.1-7c-0.3-0.3-0.6-0.7-1-1
			c2.3-3.7,4.2-3.9,7.9-0.9c0.9,2.9,0.6,6,0.5,8.9c-0.2,3.6,1.4,4.6,4.7,4.6c11.5-0.1,22.9,0,34.4,0c8.3,0,16.6,0,24.9,0
			c4.9,0.2,9.9-0.2,14.8,0.3c0.5,0.1,1,0.3,1.4,0.6c1.2,1.6,0,2.6-1.1,3.1c-3.4,1.4-5.2,5-8.7,6.2c-1.1,0.4-2.1,1.3-2.3,2.4
			c-0.5,2.8-2.7,2.8-4.7,3.2c-2.6-0.1-4.9-1.2-7.1-2.7c-2.1-4.1-5.3-1.3-8-1.2c-0.6,0.4-1.1-1.6-1.3-0.4c-0.4,4.2-1.4,5.6-5.2,4.6
			c-2.6-0.6-4.8-0.1-7.2,0.4c-1.9,0.2-3.7,0.8-5.6,1.1c-3.1,0.2-6.1,0.9-9.1,1.6c-1,0-2.2-0.1-2.4-1.2c-0.3-1.3,0.7-2.2,1.8-2.6
			c3.6-1.5,7.3-1.9,11.1-1.7C224.2,115.3,222.4,112.9,225,110z"/>
		<path class="st75" d="M168.2,119.9c-2.1,2.4-3.3,5.9-7.9,3.9c-1.3-0.6-2.7,3.1-5.1,3.1c-5.8,1.5-11.7,0-17.5,0
			c-2.7-1.1-2-3.5-1.2-4.9c0.9-1.7,2.6-0.5,3.8,0.5c1.5,1.2,3.3,1.5,5.6,1.2c-2.7-0.2-3.3-1.2-2.1-3.4c0.4-0.8,2.4,0,1.4-1.4
			c-0.8-1.1-2.1-1.5-3.4-0.3c-1.3,1.2-2.7,2.5-4.8,2c-0.4-0.2-0.8-0.5-1-0.9c-0.4-2.6,0.7-4,3.3-4.5c-1.9-0.8-3.7-1.6-5.2-2.9
			c-1.6-1.3-1.7-3.1-1.3-5c0.4-2,2-1.8,3.5-1.8c5.7,0,10.9-1.7,16-4c5.7,1.7,8.5,5.5,8.4,11.6c-0.4,0.3-0.9,0.4-1.4,0.4
			c0.1,0.4,0.4,0.3,0.7,0.4c1,0.3,2,0.9,1.8,2c-0.4,1.8,0.1,1.7,1.5,1.2C165.6,116.3,167.9,116.4,168.2,119.9z"/>
		<path class="st76" d="M168.2,119.9c-0.4-0.5-0.9-1.5-1.2-1.5c-4.5,0.8-7.3-1.8-9.6-5.3c0.6-0.7,1.8,0,2.8-0.3
			c0.7-3.5,3-6.4,3.3-10c0.1-1.4,0.7-3.1,2.4-2.1c5.4,3.2,3.6-1.9,4.3-3.7c0.5-1.2-1.1-2.7-0.3-4.3c0.8-0.9,1.9-1.4,3.1-1.2
			c1.1,2.6,2.6,3.2,4.8,1.2c0.4-0.2,0.9-0.1,1.3,0.1c1.1,1.5,2.3,2.8,3.2,4.4c1,1.7,0.6,3.3,0.2,5.4c-1.2,6.3-6,10.1-8.5,15.4
			c-1.9,4,3.5,2.1,3.3,4.9C173.3,125.2,171,121.9,168.2,119.9z"/>
		<path class="st77" d="M194,88.9c-2.2,1-5.2-0.9-6.8,2c-0.3-0.7-0.7-1.3-1-2c-3.5-4.3-3.7-9.7-5.1-14.7c-1.7-8.3-1.3-16.5,0.5-24.7
			c0.5-2.5,1-5.3,4.3-5.1c3.3,0.3,3.5,3.1,3.6,5.6c0.2,3.8-0.1,7.7,0.2,11.5c0.1,0.6,0.1-0.2,0.1,0.5c-0.1,3.7,1.3,6.1,5.2,6.8
			c0.8,2.5,0.7,4.9,0.1,7.4c-0.7,2.2-3.7,2.1-4.2,4.6c1,1.9,3.6-1.6,4.3,1.2C195.6,84.4,196.1,86.9,194,88.9z"/>
		<path class="st78" d="M193.2,123.9c0.5-1.4,1.2-2.7,1.5-4.2c1.1-5.2,4.1-7.5,9-6.4c1.6,0.4,2.4-0.6,3.6-0.7
			c2.2-0.3,4.7-4.4,6.7,0.7c0.4,1,3-2.1,5.2-0.7c0.6,0.4,1.9-0.2,1.9,1.3c-1.4,2.5-4.5,2.7-6.4,4.7c-2.3,2.3-5.9,3.5-6.8,7.2
			C202.9,126.7,197.9,126.6,193.2,123.9z"/>
		<path class="st79" d="M179.1,93c-0.3,0-0.6,0-0.9,0c-1.7,0.1-2.6-4.2-5-1c-1,0.3-2,0.7-3,1c-2-3.4-5.1-4.4-8.9-4.3
			c-1.2,0-2.1-0.7-2.7-1.9c-0.6-2.4,0.4-3.5,2.8-3.4c1.4,0,3,0.6,4.2-0.8c-1.8-3.7-3.6-7.4-1.7-11.6c0.5-0.5,2.9-0.8,0.1-1.6
			c-0.6-0.2-0.9-0.8-1.1-1.5c1.2-2.8,3.2-1.4,4.9-0.8c1.6,0.5,2.9,2.4,5,1.3c1.7-0.2,2.8,0.2,2.9,2.2c-0.1,0.7-0.5,1.2-1,1.6
			c-4.4,3.4-4.2,5.8,0.7,8.4c1.2,0.6,2.3,1.3,3.2,2.2c2,2.8,4.7,5.6,1.5,9.3C179.8,92.3,179.5,92.6,179.1,93z"/>
		<path class="st80" d="M193.2,123.9c5.3,0,10.6,1.7,15.9,1.1c0.1,0.2,0.1,0.4,0.2,0.7c-0.5,1.1-1.8,1.9-0.7,3.4
			c0.2,0.7,0.1,1.3-0.4,1.8c-1.6,0.1-3.2,0.3-4.9,0.4c-6.5-0.2-12.7,1.8-19.1,2.7c-1,0.7-1.9,1.4-2.9,2.1
			C183.3,130,186.8,125.5,193.2,123.9z"/>
		<path class="st81" d="M179.2,137.8c-3.4,3.7-5.2,8.2-6.1,13c-0.9,0.2-1.3-0.4-1.6-1.1c-0.2-1-0.1-1.9,0.3-2.8
			c0.8-1.7,0.7-3.8,2.7-4.9c0.7-1.2,1.5-2.4,2.2-3.6c-6.7,5.4-13,3.2-19.3-0.5c1.8-1.8,4.1-0.9,6.1-0.9c3,0.1,4.6-0.5,2.3-4.5
			C170.2,135.7,175.5,134.5,179.2,137.8z"/>
		<path class="st82" d="M209.1,125c-3.4-3-3.5-3.2,1.1-4.5c2.6-0.7,4.1-2.7,5.7-4.3c1.6-1.6,3.3-2.1,5.3-2.3c2.9,0.2,1.1-4.1,3.9-4
			c-1.7,3.2,0.5,5.2,2.8,7.1c-4.3,2.1-8.6,1.2-12.4,2.8c-0.7,0.3-2.2,0.5-1.2,1.9c0.2,0.3,1.3,0.1,1.9,0.1c0.3,2.8-2,2.9-3.7,3.7
			c-0.7,0.2-1.4,0.3-2.2,0.2C209.9,125.5,209.5,125.3,209.1,125L209.1,125z"/>
		<path class="st74" d="M180.2,92c1.4-3.5-1-6.1-2-9c-0.3-0.4-0.4-0.8-0.3-1.3c1.9-1.9,1.6-5.3,4.3-6.7c1.3,4.7,2.7,9.3,4,14
			c-2,1.9,1,3.2,0.5,5.1C184.2,94.6,182.2,93.4,180.2,92z"/>
		<path class="st83" d="M157.3,131.8c-1.1,1.4-2.8,1.4-4.1,0.9c-5.8-2.1-10.6,1.9-16,2.1c-1.6,0-3.3,0-4.9-0.1
			c-2.2-5.3-2.2-5.3,3.3-7.6c0.8-0.1,1.5,0,2.2,0.4c4.2,2.4,9,0.7,13.4,1.9c1.5,0.4,3.3,0,4.9,0.5c0.5,0.2,0.9,0.5,1.2,0.9
			C157.2,131.2,157.3,131.5,157.3,131.8z"/>
		<path class="st84" d="M137.3,127.7c-0.7,0.1-1.3,0.2-2,0.2c-1.3,0.6-2.6,1-3.9-0.1c0.6-3.1,2.5-3.2,4.9-2c6.3,0,12.7-0.3,18.9,1
			c2.3,1.1,4.7,2.3,8.2,4c-2.8,0-4.5,0-6.2,0c-0.3-0.1-0.6-0.1-0.9-0.1C150,129.1,143.7,128.3,137.3,127.7z"/>
		<path class="st77" d="M188.2,92c3.9,1,4.3,3.9,4,7.3c-0.1,0.5-0.2,0.9-0.8,0.6c-0.4-0.2-0.7-0.6-1.1-0.9
			C190,96.5,187.9,94.6,188.2,92z"/>
		<path class="st85" d="M603.9,43c-10.3,0.6-20.6,1.2-31,1c-2.2,1.5-4.7,1.4-7.2,1.5c-4.5,0-8.9-0.1-13.4,1.1c-3,0.8-6-1.8-9.2-1.1
			c-2.3,0.1-4.6,0-6.9,0c-3.1-0.2-6.2-0.2-9.3,0c-1.8,0.1-3.6,0-4.9-1.5c-12.3,0-24.6,0-36.9,0c-1.2,0-2.4-0.1-3.1,1.1
			c-1.8,1.2-3.7,2.3-6,0.9c-3.5-1.3-7.1-3.3-10.1,0.9c-5.6-1.7-10.8-2.1-16.7,0.2c-3.9,1.5-9-0.5-13.6,0.1c-0.9,0.1-1.4-1.2-0.6-2.3
			c-3.8-2.5-8.2-1.1-12-0.7c-9.7,1-19.3-0.4-29-0.3c-2,1.2-3-0.3-3.8-1.6c-0.9-1.5,0.5-2.3,1.5-3.1c3.3-1.8,6.9-1.8,10.5-1.7
			c2,0,4,0.2,5.4-1.6c1-0.6,1.9-0.1,2.7,0.4c1.4,1.5,2.6,2,5.1,1.2c3.2-1.1,6.9-1.4,10.5-0.7c8.2,1.7,16.7-1.1,24.9,1.3
			c4.4,1,8.6,1.4,13-1c2.7-1.5,6.2-1.1,9.4-1c20.1,0.7,40.3-0.5,60.2,1.7c7.9,0.8,15.2-1,22.9-0.5c7.8,0.6,15.6,0.4,23.4,0.2
			c6.8-0.4,13.5,1,20.3,1.4C602.2,39.2,605,39.4,603.9,43z"/>
		<path class="st13" d="M392.1,40c-2.7,3,0.4,3.2,2,4c-0.6,1.6-1.7,1.7-3,1c-3.5,2.8-7.9,2.1-11.8,2.9c-1.1,0.2-3,0-2.9-1.1
			c0.2-2.1-1-1.6-2-1.6c-4.2,0.1-8.7-1-12.4,2c-0.7,0.6-1.6,0.7-2.4,0.4c-3.9-1.9-8.2-0.9-12.3-1.7c-5.1-1.2-10.2-0.3-15.3,0.1
			c-2.5,0.2-3.5,2.2-5.3,3.3c-2.6-3.9-2.2-5.7,2-6.7c-3-1-4.3-2.7-3.5-5.6c1-2.1,3-2,4.7-1.6c2,0.5,3.7,1.7,4.9-1.1
			c0.3-0.7,1.9-0.5,2.1,0.1c1.3,3.1,2.7-0.1,4,0.2c0.7,0.2,1.3,0.6,1.8,1c2.7,2.2,5.2,3.8,8.9,1.6c2.3-1.4,5.2-0.2,7.8-0.3
			c1.6,0,3.5,1.4,4.8-1c0.4-0.7,1.7-0.7,2.2-0.1c2.7,2.7,7,1.9,9.6,4.7c4.5,2.3,9.6,1.3,12.9-2.7c0.3-0.6,0.7-1.2,1.3-1.7
			c0.4-0.3,0.9-0.4,1.4-0.4C394.1,36.9,394.3,38.4,392.1,40z"/>
		<path class="st86" d="M347.1,45c4.2,0.5,8.7-1.3,12.6,1.6c0.3,0.2,1.2,0.3,1.4,0c5.5-5.9,12.1-1.5,18-2.7c0.4,2.2-1.8,1.5-2.1,3.4
			c3.9-1.8,8.2-0.4,11.8-3c0.4-0.3,1.5,0.4,2.3,0.6c-0.3,2.3,3.4,1.6,3,3.9c-18,0-35.9,0-53.9,0C340.4,44.1,343.5,44,347.1,45z"/>
		<path class="st87" d="M435,45c0.2,1,0.6,2.3,1.8,1.5c2.3-1.5,4.8-1.5,7-0.8c5.9,1.8,10.8-3.2,16.7-1.8c2.4,0.6,4.2,0.9,5.4,3.1
			c1.6,0.2,3.6-1.4,4.7,1.7c-13,0-25.8,0-38.8,0C432.4,47,432.8,45.3,435,45z"/>
		<path class="st88" d="M542.9,44.1c10,1,20-0.5,30,0c-1.1,1.6-2.8,3.3,0,4.9c-7,0-14,0-21.1,0c-1.1-1.4-2.6-0.7-4.1-0.8
			C545.2,48.1,543.1,47.1,542.9,44.1z"/>
		<path class="st89" d="M542.9,44.1c1.9,2.4,4.1,4.1,7.5,3c1.4-0.4,2.3,0.2,1.4,1.9c-8.3,0-16.6,0-24.9,0c-2.6-2.9-0.3-3.6,1.9-3.8
			c2.4-0.1,4.8-0.3,7-1.2C538.3,44,540.6,44,542.9,44.1z"/>
		<path class="st90" d="M536,44c-2.1,1.4-3.8,3.1-6.8,2.1c-1.8-0.6-3.3,0.4-2.1,2.8c-2.8,0-5.7,0-9.8,0c2.5-2.2,4.3-3,4.8-4.9
			C526.6,44,531.3,44,536,44z"/>
		<path class="st90" d="M493.6,48.6c4.2-3,16.1-2.7,18.9,0C506.4,48.6,500.7,48.6,493.6,48.6z"/>
		<path class="st87" d="M476,46c2-0.3,3.9-1.4,6-0.9c1,2.8,0.5,4.4-3,4c-1.9-0.2-3.9,0-6.3,0C473.7,47.6,475.7,47.6,476,46z"/>
		<path class="st91" d="M383,51.1c0,0.3,0,0.5,0,0.8c-4.2,1.5-8.6,1.6-12.9,1.7c-15,0.4-30,0.2-44.9,0.2c-1-0.6-1.1-1.4-1-2.4
			c1.1-1.7,2.5-1.4,3.9-0.6C346.4,50.9,364.7,51,383,51.1z"/>
		<path class="st92" d="M321.1,59.9c2.6,4-1.2,7.3-1,11.1c-5,2.9-9.9,4.8-15.6,1.3c-1.4-0.9-4.5-1.9-5.8,1.4c-0.3,0.7-1.1,1.3-2,0.8
			c-5-3.2-8.1-1.7-9.9,3.7c-0.1,0.4-1.1,0.6-1.6,0.9c-2.6-3.7-1.1-7.9-1.4-11.9c0.1-1.3,0.1-2.6,0.5-3.9c0.9-2.4,3.5-1.5,5.2-2.6
			c0.4-0.1,0.9,0,1.3,0.1c1.9,0.8,3.7-0.3,5.6-0.4c0.4,0,0.9,0,1.3,0.1c2.4,0.5,4.8,0.7,7.1-0.3C310.1,59.2,315.6,57.3,321.1,59.9z"
			/>
		<path class="st93" d="M285,66.5c0,4.2,0.1,8.3,0.1,12.5c-0.4,2-0.4,4,0,6c-1.1,4.3,0.8,8.7-0.1,13c0.7,0.8,1,1.8,1.1,2.9
			c-0.1,1.4-0.6,2.6-2,3.2c-1.1,0.2-2.2,0.5-3.3,0.7c-1.5,1.6-3.1,1.5-4.6,0l0,0c-5.5-0.7-11-0.6-16.4,0c-19.7,0-39.4,0-59.1,0
			c-6.7,0-6.7,0-6.8-6.9c0-3,0-6,0-8.9c0-2.6,0-5.3,0-7.9c0-1,0.5-1.4,1.5-1.5c3,0.8,2.3,3.6,2.8,5.6c0.5,2.3,0.2,4.8,0.4,7.2
			c0,0.6,0,1.2,0,1.7c0.1,7.1,0.2,7.3,7.2,7.3c22.8,0,45.5,0.1,68.3,0.1c6.6,0,6.6,0,6.6-6.5c0-0.8,0-1.7,0-2.5
			c-0.2-1.7,0-3.5,0-5.2c-0.2-3.8,0.5-7.7-0.4-11.5c-0.3-1-0.3-2.1-0.3-3.1c0.5-1.9,0.1-3.9,0.7-5.8c0.6-0.9,1.4-1.4,2.5-1.5
			C284.1,65.3,284.9,65.5,285,66.5z"/>
		<path class="st94" d="M285.2,100.9c0-1,0-2-0.1-3c2.3,1.1,4.6,1,7,0.8c4.5,0.1,8.9,0,13.4,0.2c1.5,0.1,3.4-0.7,4.5,1.1
			c-0.6,0.7-1.3,1.3-1.9,2C300.5,102,292.7,103.4,285.2,100.9z"/>
		<path class="st95" d="M312.1,91.9c0,1.6-0.1,3.2-1.9,4C306.9,92.6,310,92.5,312.1,91.9z"/>
		<path class="st78" d="M276.3,104.8c1.5,0,3.1,0,4.6,0c2-0.1-0.1,4.8,3.5,2.9c0.5-0.2,0.4,1.1-0.1,1.4c-3.4,2.4-2.3,6-2.7,9
			c6.7-0.6,12.6-5,20.1-3.9c0.3-0.3,0-0.8-0.4-1.4c-0.4-0.7-1.3-1.5-0.1-2c1.3-0.6,1.6,0.7,1.8,1.6c1,3.9-2.5,8-6.8,8.6
			c-3.4,0.5-6.7-1.3-10-0.1s-6.5,3.2-9.8-0.3c-0.4-0.5-4.4,4.1-5.2,5.5c-2.8,4.8-5.9,9.3-10.2,12.9c-0.1-0.2-0.3-0.4-0.4-0.6
			c0.3-5.1,1.6-7.8,5.3-11.2c-4.3,3.8-9.4,2-14.2,2.2c-2.5,0.1-4.8-0.5-6.9-2.2c-2.8-2.3-6.2-3.6-10-3.8c-2.6-0.1-5.6-0.3-4.6-4.4
			c2.5-0.2,4.7-2.8,7.7-0.3c1.2,1,4.6,0.7,3.7-2.9c-0.3-1.3,0.4-2.1,0.9-3.2c0.7,0.9,1.2,1.7,1.8,2.5c0.5,0.5,0.7,1.1,0.9,1.7
			c0.4,1.2,1.8,2.6,2.4,2c4-3.5,7.9,4,11.8,0c0.2-0.6,0.2-1.3,0.5-1.9c0.2-0.4,0.7-0.7,1.2-0.1c0.3,0.3,0.6,1.7,0.9,0.8
			c2.4-6.4,8.5-8.2,13.5-11.6C275.8,105.7,276,105.2,276.3,104.8z"/>
		<path class="st96" d="M254.2,169.8c3.2-5.6,2.8-11.8,3-17.9c1.1-2.5,0.2-4.7-0.7-7c-0.4-1.1-0.5-2.3,0.8-2.9c0.9-0.4,1.4,0.5,2,1
			c0.4,0.6,0.7,1.2,0.8,1.9c0.7,4.4,3,8.6,1.1,13.1c-0.9-1.1-0.8-2.2-0.5-2.8c0.3,3.2-1.4,6.7-0.8,10.5c-0.6,1.4-1.2,2.7-1.9,4.1
			c-0.8,0.5-1.5,1.4-2.3,1.8C254,172.2,253.2,171.7,254.2,169.8z"/>
		<path class="st97" d="M260,165.7c-2.5-3.7,1-7.2,0.1-11.2c1.4,1.2,0.7,2.5,1.2,3.5c0,1.6-0.1,3.2-0.1,4.8
			C260.2,163.6,260.2,164.7,260,165.7z"/>
		<path class="st98" d="M260.2,144.9c-0.4-0.4-0.7-0.7-1.1-1.1c-0.6-1.6-1.3-3.2-0.2-4.9c0.8-0.6,1.5-0.7,2.3,0.1l0,0
			C261.1,141,261.7,143.1,260.2,144.9z"/>
		<path class="st78" d="M285.2,100.9c7.7,0.4,15.5-1.2,23,1.1c-0.4,0.6-0.8,1.2-1.2,1.9c-4.6,1.3-8.9,3.5-11.7,7.4
			c-1.5,2-3.5,1.4-5.1,2.3c-0.2-1.4-2.3-2.4-0.6-4.2c0.6-0.6-0.1-1.4-0.9-1.1c-2.4,0.7-2.6,0.4-1.6-2c0.8-1.9-3.1,0.1-2.9-2.2
			C284.5,103,284.8,102,285.2,100.9z"/>
		<path class="st99" d="M323.1,44c-1,0.7-1.9,2-1.7,2.9c1.7,5.7-2.4,5-5.6,5.1c-4.2,0.1-8.5,0.1-12.7,0.1
			c-5.6,2.8-11.4,1.3-17.1,0.9c-2.7-1.3-1.7-4.4-3.2-6.2c-1.4-3.7-1.1-7.5-1.2-11.3c0-1.9-0.1-3.6-1.6-5c-0.2-0.4-0.3-0.9-0.2-1.4
			c0.8-1.5,1.2-3.2,2.2-4.6c1.1-1,2.2-1.4,3.5-0.4c1,1.3,0.9,2.9,1,4.5c0.3,1.9-0.8,4.1,0.9,5.8c1.8,0.7,3.6,1.3,5.3,2.5
			c2.7,1.9,5.4,3.8,9.2,1.2c3.4-2.4,6.6,2.3,10,1.4c-0.8-0.8-2.8,0-3.9-1.9c1.1-2,3.1-1.6,5-1.5c2,1.8,5,0.6,6.9,2.4
			c0.1-1.3,0.5-2.1,2-1.7c1.3,0.4,2.2,1.3,2.8,2.5C325.3,41.2,324.8,42.8,323.1,44z"/>
		<path class="st100" d="M285,52.1c6,0,12,0,18.1,0c3.4,3.5,7.5,2,11.3,1.3c2.3-0.4,4.5-0.5,6.7,0.7c2.6,1.6,1.3,3.2,0.1,4.9
			c0,0.3,0,0.7,0,1c-0.9-0.8-2.4,4.3-2.9-0.3c0-0.2-1.1-0.5-1.2-0.4c-3.6,3.4-8.3-0.7-11.9,1.9c-2.6-2.5-5.3-0.6-8,0
			c-0.3-0.1-0.6-0.1-0.9-0.1c-2-1.3-4.1,0.1-6.1,0.1l0,0c-1.8-1.3-3.6,1.7-5.3,0c-0.3-0.6-0.4-1.3-0.2-1.9c0.3-0.8,0.8-1.4,1.4-1.9
			c2.5-1.9,1.5-3-0.8-3.8C284.9,52.9,284.8,52.5,285,52.1z"/>
		<path class="st101" d="M323.1,44c0.3-1.7,0.7-3.3,1-5c-1.3-2.2-2-4.5-0.7-6.9c1-0.8,1-2.6,2.6-3c2,2.2,1.9,4.5,0.2,6.8
			c-0.9,3.5,0.9,5.4,5.5,6.6c-5.9,0.6-6.9,2.8-4.6,6.4c0.7-0.6,1.3-0.5,1.9,0.1c-0.3,0.6-0.6,1.2-1,1.8c-1.3,0.2-2.6,0.4-3.9,0.6
			C323.6,49,325.2,46.2,323.1,44z"/>
		<path class="st102" d="M321.1,58.9c0-1.6,1.6-3.3-0.1-4.9c0.4-0.4,1.2-1.3,1.3-1.3C324.1,54,323.3,57.7,321.1,58.9z"/>
		<path class="st103" d="M329.1,49.1c-0.6,0-1.3-0.1-1.9-0.1c-0.2-3.4,1.3-4.3,4.7-4.3c5.1,0,10.2-1.6,15.3,0.3c-3.6-1-5.2,1.7-7,4
			C336.4,49,332.8,49,329.1,49.1z"/>
		<path class="st104" d="M254.2,169.8c1.3,3.6,2.6-1.3,3.9,0c-5.8,12.1-16.6,16.7-28.9,19c-1.7,0.9-3.4,0.3-5.1,0.4
			c-0.8,0.1-1.7,0.1-1.8-1c-0.2-1.3,1.8-0.3,1.7-1.6c6-1.8,12.2-2.9,17.9-5.9C246.9,178.1,250.6,174,254.2,169.8z"/>
		<path class="st104" d="M184.3,180.2c11,7,23.3,7.7,35.8,6.9c0.7,1.8,0.8,3.1-1.8,3.2c-1.7,0.1-3.5-0.5-5.2,0.5
			c-2.9-0.9-5.9-1-8.9-0.9c-7.4-1.8-14.9-3.1-21.1-8.1C183.5,181.2,183.9,180.7,184.3,180.2z"/>
		<path class="st22" d="M213.2,190.8c0.9-1.3,2.3-1.2,3.5-0.9c2.5,0.5,3-1,3.4-2.8c1.3-0.1,2.5-0.3,3.8-0.4c3.3,2-2.1,0.5-0.2,2.2
			c1.6,0,3.5,0,5.5,0C224,191,218.6,190.9,213.2,190.8z"/>
		<path class="st105" d="M92.3,253.7c-1.5-2.3-2.5-4.9-3.4-7.3c-0.8-2.2,3.1-4,2.9-7.4c-2.4,0.5-5.4,1.5-3.7-2.9
			c0.5-1.2-0.6-1.9-1.8-2.5c-2.4-1.2-5.5-3.2-5.2-5.4c0.3-2.8,3.6-4.3,6.5-5.5c5.6-2.3,7.2-5.2,5.6-10c-1.5-2.4-0.7-4.1,1.6-5.4
			c2.7,0.1,1.7,2.2,1.9,3.6c0.3,1.9-1,3.9,0.4,5.7c-0.3,5.7,1.6,11.3,1,17.1c-0.7,5.9-4.4,11.1-4,17.3
			C94.3,252.4,93.4,253.2,92.3,253.7z"/>
		<path class="st106" d="M102,173.6c-0.6,1.4-1.1,2.9-1.7,4.3c-1.3,0.9-1.6,3.7-3.4,2.8c-1.4-0.7-3.5-1.8-3.4-4.2
			c0-0.3,0.5-0.7,0.5-0.7c-6.3-8.3-6.8-12.5-2.6-23.2c0.8-0.6,1.7-0.7,2.7-0.5c6.1,2.1,8.2,5.4,8,11.5c-0.1,2.4-0.2,4.8,0.2,7.2
			C102.2,171.8,102.1,172.7,102,173.6z"/>
		<path class="st107" d="M94.2,152.9c-1,0-2,0-3,0c-0.2,0-0.4,0-0.6,0c-0.9-0.1-1.6-0.6-2.3-1.1c-0.7-1.2-4.2-1.9-0.6-3.8
			c0.5-0.1,1-0.3,1.5-0.2c12.2,2.9,21-2.3,28-11.9c0.5-0.5,1-1,1.7-1.3c1.6,0.3,2.9-1.2,4.5-1.1c0.8,0.5,1.4,1.2,1,2.2
			c-5.6,6.4-11.3,12.8-15.8,20c-2.1,2.9-4.2,3.5-6.4,0.1C100.2,153.1,96.8,154,94.2,152.9z"/>
		<path class="st108" d="M94.2,152.9c3.7,0.5,8.2-1.9,10.1,4.1c0.6,2,2.6-0.9,4.2-1.1c-2.1,5-4.1,10-6.2,15c-4.1-1.8-0.3-5-1.2-7.5
			c-0.7-2,1.8-5.2-2.6-5.6C99.8,153.8,95.2,154.9,94.2,152.9z"/>
		<path class="st23" d="M124.2,135.9c-0.4-0.6-0.7-1.3-1.1-1.9c-1.1-1.3-1.1-2.6-0.1-3.9c0.4-0.3,0.8-0.4,1.3-0.3
			c2.6,1.5,4.3-0.6,6.3-1.7c0.2-0.1,0.4-0.1,0.6-0.2c1.3,0,2.7,0,4,0c-2.4,1.7-2.4,1.8-3,6.9C129.2,132,126.9,135,124.2,135.9z"/>
		<path class="st109" d="M173.4,166.8c-0.4,0-0.9,0-1.3,0c-1.9-2.4-3.8-4.8-1.8-8.1c0.4-0.3,0.9-0.4,1.4-0.3
			c0.5,0.2,0.8,0.6,0.9,1.1C172.1,162,174,164.3,173.4,166.8z"/>
		<path class="st110" d="M171.1,158.8c-0.3,0-0.5,0-0.8-0.1c-0.1-1.7-0.2-3.3-0.4-5c0.2-2.9-0.1-5.9,1.3-8.7c1.9-0.2,1.3,1,1.1,2
			c-0.1,0.9-0.3,1.8-0.4,2.7C171.7,152.8,173.2,156,171.1,158.8z"/>
		<path class="st111" d="M172.5,147.1c-0.4-0.7-0.8-1.3-1.1-2c0.5-1.4,0.7-2.9,1.5-4c1.3-1.7,1.2,0.2,1.6,0.9
			C173.8,143.7,173.1,145.4,172.5,147.1z"/>
		<path class="st112" d="M97.1,216.7c-1.6-0.8-1.7-1.9-1.2-3.5c0.5-1.8,1-3.8-0.6-5.4c-0.8-3.6-1.9-7.3,2-10
			c0.1,5.7,0.1,11.3,0.2,17C97.3,215.5,97.2,216.1,97.1,216.7z"/>
		<path class="st113" d="M173.4,166.8c-0.7-2.6-1.8-5.1-1.4-7.9c0.3-0.3,0.6-0.3,0.9,0c0.8,3.4,1.5,6.7,2.3,10.1
			C174.7,168.3,174.1,167.5,173.4,166.8z"/>
		<path class="st114" d="M97.2,197.8c-2.1,3-0.2,6.9-2,10c-1.6,1.3-2.1,3-2,5c-1,0.8-2.1,1.6-3,2.5c-1.3,1.3-2,1.7-3.1-0.5
			c-0.8-1.6-1.9-3.9-5-1.9c-1.6,1-2.3-1.5-2.3-2.8c-0.1-4.6,0-4.6-4-8c-0.4,2.6,2.2,3.2,2.9,5.7c-3.6-3.2-7.4,0.7-10.8-1.9
			c-0.6,1.9,4.7,4.3-0.7,4.9c0-0.6,1.1-1.9-0.4-1.7c-1.4,0.2-3.4-1-4.3,1.2c-0.3,0.8,0.8,2.2-0.9,2.2c-1.3,0-1-1.5-1.6-2.1
			c-2-2.1,0.7-4.6-0.7-6.7c2.1-1.5,4.9,0.9,6.8-1.2c0.3-0.3,0.6-0.6,0.9-1c1.4-2,0.9-3.7-0.7-5.2c-1.2-1.1-2.6-1.4-4.1-0.7
			c-1.9,1-2.8,2.6-2.5,4.9c0.2,1.1,0.5,2.3-0.4,3.3c-1.6,0.3-1.7,2.5-3.4,2.6c-1.6-1.6,0.6-2.6,0.5-4.1c-2.9-0.2-4.8,1.6-7.3,3
			c1.8-2.1-2.3-6.5,3.6-7.1c1.7-0.2,1-2.9-0.5-3.8c-2.5-1.4-1.9-3.1-0.8-5c0.6-1.1,1.8-2,0.7-3.5c-1-1.5-3.8-1.6-3.9-1.4
			c-2.8,3.7-6.1,0.4-9.6,1c1.7-4.1,7.4-3.2,8.5-7.4c0.5-1.7,3.9-2.6,1.7-4.8c-2-1.9-4.7-3.2-7.7-1.7c-4.1,2-5.8,6.4-6.2,10
			c-0.3,3.3-1.7,4.6-3.7,6.2c-0.3-0.9-1.2-2.1-0.8-2.7c3.6-6.5,4.5-14.1,8.8-20.3c5.1-8.3,7.4-18,13-26c0.3-0.3,0.7-0.7,1-1
			c5.6-3.8,5.3-10.7,8.1-15.9c2.7-4.1,5.3-8.3,8.2-12.3c2.2-3,4.6-6.2,8.8-6.7c1.1,1.2,1,2.6,0.2,3.7c-4.5,6.2-4.1,14-6.5,20.8
			c-1.4,3,0.2,9.9,2.6,12.3c3.6,3.7,7,7.8,11,11c0.5,1.3-0.7,5.7,2.9,1.6c0.4-0.5,1.9-0.1,2.8,0.5l0,0c-0.1,2.9,0.4,6-0.6,8.5
			c-1,2.7-2.4,4.7,0.7,6.7c0.8,0.5,0.5,1.4,0.1,2.2c-2.6,5.2,1.2,4.4,4.9,4.3c-5.3,2.8,3.2,3-0.1,5.3c2.4,0.6,2-2.7,4-2.1
			c-1.2,5.9-1.9,11.8-2.2,17.8C97.8,196.4,97.5,197.1,97.2,197.8z"/>
		<path class="st115" d="M71.2,128c-0.3-4.7,2.6-9,2.6-13.4c0.1-4.8,4.5-7.3,4.5-11.7c-0.4-1,3.2-2.1-0.1-3c3-2.2,6.8-1.7,10.1-3.1
			c0.4-0.2,0.9-0.4,1.3-0.4c4.9,0.9,4.9,0.9,3.6,3.8c2.7,2.3,2.6,2.2-1.2,4.3c-2.7,1.4-5.5,3-5.5,6.7c-1.4,1.1-3.3-0.4-4.6,0.7
			c-0.7,0.2,0,0.3,0.2,0.1c0.5-0.6,1.5-0.6,2.3-0.3c0,5-2.3,9.7-2.5,14.7c0.2,0.4,0.4,0.8,0.6,1.1c0.5,0.7,1.3,1.3,0.9,2.3
			c-1.2,1.2-2.5,1.1-3.9,0.6c-2.4-2.2-5.5,0.4-8-1.2c-0.3-0.2-0.4-0.5-0.4-0.8C71,128.2,71.1,128,71.2,128z"/>
		<path class="st116" d="M52.2,138.8c2,3.3-1.7,5-2.5,7.3c-2.3,6.1-5.8,11.7-8.9,17.5c-0.3,0.5-1,0.8-1.5,1.2
			c-0.3-0.9-1.3-2-0.4-2.7c3.9-3.2,3.1-8.3,5-12.3C45.9,145.7,47.9,141.4,52.2,138.8z"/>
		<path class="st117" d="M61.3,121.9c0.9,4.2-2.6,7.6-2.2,11.9c0.2,2.3-4.2,2.1-5.9,4c-1.4-2,0.1-3.2,1-4.8
			C56.2,129.1,58.3,125.2,61.3,121.9z"/>
		<path class="st118" d="M510.1,28.9c-0.7,0.1-1.4,0.2-2.1,0.3c-0.6,0.6-1.4,1-2.2,1.1c-12,0.3-24.1,0.9-36.1-0.4
			c-0.5-0.2-0.8-0.6-1-1.1c0.5-2.2,2.5-1.5,3.9-2.1c-3.5-1-7.4,0.8-10.7-1.5c-0.1-1.3-3-0.4-2.1-2.6c0.6-1.6,1.6-2,3.4-2.1
			c13.6-0.8,27.2-0.1,40.8-0.3c0,0.3,0,0.6,0,1c-1.3,1.5-3.3,1-5,1.7c1.6,0.6,4.2-0.4,3.8,2.7c-4,1.6-8.1,1.2-12.2,0.8
			c-0.7-0.1-0.1,0.9-0.2,0.3c0-0.1,0.1-0.2,0.4-0.1c4.8,0.6,9.6,0.1,14.4,0.4C507.1,26.9,509.3,26.3,510.1,28.9z"/>
		<path class="st119" d="M503,25.1c-2-2.4-5.2,0-7.6-2c2.6-2.6,5.7-2,8.7-2.1c1.9,0.5,3.7,0.6,5.8,0.1c4.4-1.1,8.7-1.8,13.4,0.3
			c2.6,1.1,6.2,1.4,9.6-0.3c1.9-1,5.5-1.8,5.2,2.9c-1,0.3-2.1,0.7-3.1,1c-1,1.1-2.3,1.1-3.7,1.2c-8.3,0.6-16.6,0.3-25,0.3
			C505,26.5,503.4,27.1,503,25.1z"/>
		<path class="st120" d="M421,28.1c1.1-1.4,4.3,1.4,4-1.7c-0.2-1.8-2.3-2.2-4.4-1.5c-1.5,0.5-4,0-4.1-1.8c-0.1-2.4,2.6-2.9,4.4-2.9
			c9.3-0.1,18.6,0,27.9,0.1c1.1,0,2.1,0.5,3.4,0.3c2-0.4,3.5,0.9,3.2,2.6c-0.2,1-2.1,2.5-3.9,1.8c-6.3-2.3-12.6,0.2-18.9,0.2
			c-1.8,0,0.6,1.2,0.3,1.9C428.7,31.1,424,31.4,421,28.1z"/>
		<path class="st121" d="M421,28.1c4.2,2.2,8,0.2,11.9-0.9c1.2,0.8,2.9-0.4,4,0.9c1.3,0.9,2.9,0.4,4.3,0.5c2.6,0.1,3.3,1.6,3.4,3.8
			c-2.1,4.5-6.2,2.4-9.3,2.5c-8.5,0.2-17,0.7-25.3,2.3c-0.6-0.4-1.3-0.7-1.9-1.1c-1.8,1.2-3.3,0.3-4.9-0.5c-0.6-4,0.7-5.6,4-4.4
			c2.3,0.8,3.4,0.1,4.6-1.4c2.3-2.7,5.4-1.4,8.2-1.7C420.4,28,420.7,28.1,421,28.1z"/>
		<path class="st122" d="M412,30c0.1,3.2-3.2,4.5-4.2,3.3c-3.9-4.5-3.7-0.2-4.8,1.7c-3,1.8-5.7,5.3-9.2,0.6
			c-0.5-0.7-1.8,0.1-2.7,0.5l0,0c-1.6-1.7-2.8,0.4-4.2,0.4c-2.5-1.2-2.1-4-3.2-6c-0.1-0.5-0.1-1,0-1.4c0.4-0.7,0.9-1.1,1.7-1.2
			c0.2,0.1,0.5,0.1,0.7,0.2c3.5,3.6,7.5,3.5,11.4,1c2.5-1.6,5.2,1.1,7.5-0.9c1.3-1.1,2.6-1.2,4-0.2c0.7,0,1.4,0,2.1,0.1
			C411.9,28.4,412.6,28.9,412,30z"/>
		<path class="st121" d="M449,28.1c1,0,2,0.1,3,0.1c0.6,0.3,1.6,0.2,1.8,0.6c1.2,3.7,4.6,4.4,7.6,5.5c0.3,4.4-0.7,5.8-4.5,4.9
			c-1.4-0.3-3.9,1.2-4.5-1.5c-0.4-2.4-2.1-1.9-3.7-1.6c-2.6,0.5-4-0.4-4.1-3.2C443.5,29,445.9,28.3,449,28.1z"/>
		<path class="st123" d="M462,25.1c4.4,0.1,8.8-0.3,13.5,0.6c-1.2,3.6-4.4,1.9-6.5,2.6c-3.4,1.1-7,0.9-10.4,1.7
			c-1.8,0.4-3.6-0.3-3.6-2.8c-0.5-1.5,0-2.2,1.6-2.1C458.3,25.1,460.1,25.1,462,25.1z"/>
		<path class="st124" d="M454.9,27.2c1.2,1.8,2.9,2.2,4.8,1.4c3.1-1.2,6.2-1,9.3-0.4c0,0.3,0,0.5,0,0.8c-0.3,1.1-1.2,1.8-2.2,1.6
			c-3-0.8-4,1.2-5.2,3.2c-0.2,0.1-0.4,0.2-0.6,0.2c-3.9,1.3-6.9,1-7.3-4.1c0-0.6-1.1-1.1-1.7-1.7C453,27.9,453.9,27.5,454.9,27.2z"
			/>
		<path class="st125" d="M388,25c1,1.5,2,1.2,3.1,0.2c1.9,1.6,4.5,0.3,7.6,2c-4.9,1.4-8.8,0.8-12.7,0.9V28c-1.3-0.7-3.2-1.2-1.7-3.4
			C385.7,24,386.9,23.9,388,25z"/>
		<path class="st120" d="M449,28.1c-1,1.9-5.5,1.1-4,5c-0.4,0.2-0.7,0.2-0.9-0.2c-0.1-5-4.8-3.1-7.1-4.8C441,28.4,445,27,449,28.1z"
			/>
		<path class="st120" d="M412,30c-0.3-0.7-0.7-1.4-1-2c3-3.1,6-0.8,9,0C417.7,30.2,414.5,28.4,412,30z"/>
		<path class="st126" d="M409,27.9c-1.3,0.1-2.6,0.1-4,0.2c0.1-1.4,0.5-2.8,2.2-2.7C408.6,25.5,409,26.7,409,27.9z"/>
		<path class="st127" d="M175.2,25.1c0.7-1.3,1.6-2.3,3-2.8c3.1,5.5,3.6,5.7,10.2,3.6c0.9-0.3,1.6-0.3,2.3,0.4
			c1.8,3.3,4.1,6.3,4.5,10.2c0.4,2.4,0.6,4.9-0.2,7.3c-1.4,2.3-3,4-5.8,1.9c-0.2-0.2-0.4-0.5-0.5-0.8c-1.1-2.1,0.5-4.9-1.6-6.5
			c-1.9-1.5-3.8,1.9-6,0.7c-3.8-0.4-1.7,4.1-4.3,5.1c-2.1,0.7-4.9,0.6-5.9,3.2c-0.5,1.3-1.5,2.9-0.8,4.2c0.9,1.7,0.8,2.9-0.9,3.7
			c-1.9,0.9-3.1-0.4-4.1-1.8c-0.6-0.7-0.2-2.1-1.7-2.3c-2.7,1.8-4.2,7.9-9.2,3.2c2.6-4.6,7.2-7.7,10.1-12.1c1-0.9,0.5-3,3.4-2.2
			c3.5,0.9,5.4-3.9,8.9-4.4c0.1,0,0.3-0.7,0.2-0.8c-3.3-2.7-1-5.3,0.2-7.9C177.6,25,175.3,26,175.2,25.1z"/>
		<path class="st128" d="M149.2,41c0.9-1.8,1.4-3.8,1.3-5.9c0.1-1,0.7-1.4,1.7-1.4c1,0.5,1.4,1.5,1.9,2.4c0,0.2,0,0.4,0.1,0.5
			c4.6,4.8,2.2,9.1-1,13.2C147.6,48.8,149.3,44.5,149.2,41z"/>
		<path class="st129" d="M164.1,42.2c-2.1,4.9-6,8.3-9.8,11.9c-0.7,2-2.1,3.2-4.3,3.5c-1.5-0.3-3-0.6-3.1-2.6c1.4-1,2.2-2.8,4.2-3.1
			c2.1,1.8,3-0.3,4.2-1.4C158.5,47.9,160.5,44.3,164.1,42.2z"/>
		<path class="st130" d="M152.2,34c-0.6,0.4-1.2,0.8-1.7,1.2c-0.5-0.1-1.1-0.2-1.6-0.2c-1.3-2.5-0.9-5.2-0.6-7.9
			c1.7,0,3.6-0.4,5.2,0.2c2.6,0.8,1.1,1.5-0.3,1.9C150.1,30.3,152.9,32.4,152.2,34z"/>
		<path class="st129" d="M149.2,41c1.6,2.8-0.3,7.2,4,8.8c-0.3,1-1.1,1.1-2,1.2c-1-0.7-2-1.4-3-2.1C148.9,46.4,146.8,43.4,149.2,41z
			"/>
		<path class="st131" d="M152.2,34c-1.5-2-4-4.1,0.9-4.8c-1.3,2.6,3.1,4.3,1,7C152.7,36.1,152,35.4,152.2,34z"/>
		<path class="st132" d="M166.2,36.8c1.3-2,2.6-4.1,3.9-6.1c0.3,3-1.8,4.7-2.8,6.9C166.9,37.4,166.6,37.1,166.2,36.8z"/>
		<path class="st133" d="M376.1,41c-2.6-0.3-4.8-3.2-7.9-1.4c-0.7,0.4-1.3-0.8-1.5-1.6c-0.7-2.7-1.4-2.8-2.3-0.1
			c-0.6,2-1.7,0.6-2.7,0.5c-4-0.2-7.8-1.3-11.8,1c-3.3,1.9-5.6-1.2-7.9-3.3c1.4-2.2-0.7-5.8,3.1-6.9c1,0,2,0,2.9,0
			c6.6,3.4,13.3,4.8,20.2,0.8c1.3-0.7,2.2-0.5,3.2,1c1.8,2.5,3.3,6,7.6,3.1c1.1-0.7,1.9,0.9,2.2,2C380.8,39,379.4,41.1,376.1,41z"/>
		<path class="st134" d="M381.1,36c-0.9-0.3-1.4-2.5-2.7-0.8c-2.7,3.6-4.5,1.5-5.6-1c-0.7-1.5-4.2-0.9-2.5-3.9
			c-9.1,5.1-15.9,4.7-22.2-1.1c2.1-1.6,5.5,1.5,7.2-1.9c3.3-0.7,6.6,0,9.9-0.2c1.3,1-1,1.7-0.1,2.8c5-3.2,10.9,1.2,16.1-1.7
			c0.2-0.2,0.3-0.3,0.5-0.5c1.3-0.3,2.1,0.2,2.5,1.5c0,0.3,0,0.6,0,0.9c-0.2,2.2-0.7,4.2-2.3,5.7C381.5,35.9,381.3,36,381.1,36z"/>
		<path class="st135" d="M326.2,36c-0.1-2.3-0.2-4.5-0.2-6.8l0.3-0.2c1.5-0.3,2.6,0.6,3.5,1.5c2.7,2.4,1.4-1.2,2.3-1.5c1,0,2,0,3,0
			c3.1,0.9,6.3,1.6,6,6c-0.8,1.5-0.8,1.5,0.6,3.8c-3.1-0.5-3.9-3.7-6.2-4.3c-2.2,1.3,1.4,2.8-0.5,3.9s-2.7-0.8-3.6-1.7
			C329.7,35.3,327.7,37.4,326.2,36z"/>
		<path class="st136" d="M341.1,35c-1.3-2.7-3.7-4.2-6-6c3.4-1.6,6.7,0.6,10,0.1c-2.5,1.6,0.4,5.7-3.1,6.9
			C341.7,35.7,341.4,35.4,341.1,35z"/>
		<path class="st137" d="M332.1,29c0.4,1.2,0.8,2.4,1.3,3.7c-3.7,1.4-4.7-2.6-7.1-3.7c0-0.4,0-0.7,0-1.1C328,29.1,330.8,25,332.1,29
			z"/>
		<path class="st138" d="M374.1,25c2.7,0.6,5.3,0.8,8,0.1c1.1,1.4,0,2.2-0.9,3l0,0c-2.1-0.1-4.2,0-6.4-0.2
			C371.6,27.8,372.8,26.4,374.1,25z"/>
		<path class="st139" d="M365.1,27.1c-3.3,1.7-6.6,1.1-9.9,0.2c-0.5-0.4-0.8-1.6-0.6-1.6C358.1,26.6,361.8,25.1,365.1,27.1z"/>
		<path class="st137" d="M326.2,27.1c0-2.1,0-4.1,0-6.2c0.7,0.3,2.2-2,2.1,0.6C328.2,23.5,327.9,25.6,326.2,27.1z"/>
		<path class="st55" d="M147,55.1c1.1,0.7,2.2,1.4,3.4,2.2c1.8,0.1,3.4,0.8,3.8,2.6c0.5,2.1-1.8,1.5-2.7,2.6
			c1.8,0.6,3.6,0.1,5.2,0.6c1.2,0.3,2.4,0.8,2.5,2.1c0.1,1.9-1.6,1.1-2.6,1.3c-0.6,0.1-1.3,0.2-1.5,0.2c2.4,0.2,5.6-1,8.1,1.4
			c1.7,1.3,4.5,0.7,5.6,3.2c-1.7,1.6-3.1-0.5-4.6-0.2c-0.7,0.1-1.3,0.2-2,0.2c-3.1-0.1-6,1.7-9.3,0.8c-2.6-0.7-4.1-2.6-5.8-4.3
			c-1.7,2.8-4.1,1.7-6.4,1.1c-0.9-0.2-1.7-1-2.8-0.4c0.6,0,1.2-0.2,1.8,0.1c1.8,1,5,0.8,4.8,3.4c-0.2,2.8-3.4,0.9-4.9,1.9
			c-4.4,3-9.6-0.5-14.2,2.3c-2,1.2-3-1.7-1.4-5.8c1.9-1.4,3.9-2.3,6.3-2.4c0.8-0.1,1.5-0.1,2-0.9c4-2.6,8.2-4.8,12.2-7.3
			c2.1-1.3,2.2-1.2,0.5-2.7C145.6,56.5,146.3,55.8,147,55.1z"/>
		<path class="st140" d="M145,57.2c0.9,0.4,1.7,0.8,2.9,1.4c-4.7,4-10,6.7-15.7,8.6c0.4-2.4,3.6-1.8,4.1-4.1
			C139.2,61.1,142.1,59.1,145,57.2z"/>
		<path class="st141" d="M135.8,58.9c-1,2.5-3.1,2.4-5.1,2.5c-0.1,0-0.4-1-0.2-1.3C131.7,58,134,59.6,135.8,58.9z"/>
		<path class="st142" d="M231.1,15.9c17.7,0,35.4,0,53,0c0.8-0.9,1.9-1,3.1-1.1c1.1-0.1,2.2-0.1,3.3-0.1c6.5-0.7,12.7,1.1,19,2.4
			c3,0.5,5.7,1.7,8.7,2.3c0.9,0.8,2.9,1.3,1.4,3.2c-0.4,0.2-0.9,0.6-1.4,0.5c-9.7-0.2-19.3,1.5-29,0.8c-1.5-0.1-3-0.2-4.3-1
			c-2.2-2.4-4.9-2.7-8-2.7s-6.6,1.4-9.2-1.7c0.6-1.6,2.2-0.7,2.9-1c-12.2,1.7-24.7,0.6-37.2,0.8c-1.6,0-3.8,0.5-4.3-2.1l-0.2-0.3
			C229.8,15.4,230.4,15.4,231.1,15.9z"/>
		<path class="st143" d="M229.3,16.3c1.6,1.4,3.5,0.8,5.2,0.8c13.5,0.1,27,0,41.2,0c-2.8,2-5.6-0.1-7.6,1.9c-2,2.2-4.6,1.5-7,1.5
			c-19,0.1-38.1,0-57.1,0c-2.1,0-4.3-0.2-6.4,0.6c-2.6,1.4-1.8,3.9-2.1,6.1c-0.3,3,1,6.3-1.5,8.9c-0.3-3.7-4.3-6-3.8-10
			c-0.5-1.4-0.8-3,0.3-4.1c2.5-2.6,0.6-3.7-1.4-4.9c2.6-1.7,5.5-0.3,8.2-1c6.9-2.7,14.1-1.4,21.2-1c2.5,0.1,5.3-0.7,7.7,0.9
			C227.2,16,228.2,16.1,229.3,16.3z"/>
		<path class="st144" d="M310,18.2c-6.6-1.1-13.2-2.3-19.9-2.1c-1-0.6-0.3-2.3-0.5-2.2c-1,0.4-1.7,1.4-2.5,2.1c-1,0-2-0.1-2.9-0.1
			c-1.5-4.7-1.5-4.7,6-4.9c7.1-0.1,14.1,0.3,19.8,6c0.8-3.2-1.8-2.3-2-4.1c3.4,1.3,7.3,0.1,10.2,3.1c0,0.4,0,0.7,0,1.1
			c0.4,1.1-0.2,1.7-1,2.2C314.6,19.8,312.6,17.3,310,18.2z"/>
		<path class="st145" d="M226.1,15.9c-9.6,0-19.2,0.1-28.9,0.1c2.1-6.7-3.7-2.6-6.5-4.9c4.9,0,8.9,0,12.9,0c3.3,0,6.7,0,10,0
			c3.1,0,6.7-1,7.4,3.7c0.4-0.2,0.8-0.5,1.2-0.7C222.9,15.9,227.2,10,226.1,15.9z"/>
		<path class="st146" d="M231.1,15.9c-0.7,0-1.3,0-2,0c-0.3-0.9-0.6-1.9-0.9-2.8c-0.6-1.5,0-2.3,1.5-2c4.1,0.6-0.2,0.9-0.2,1.5
			C229.5,14,232.9,13.8,231.1,15.9z"/>
		<path class="st147" d="M248,11.2c0.8,0,2.7-0.8,3,1.9c0.2,1.5-0.8,2.1-2.1,2c-0.4,0-1.1-0.3-1.2-0.6c-0.2-0.7,0.9-0.7,0.9-0.7
			C248.4,12.9,248.2,12.1,248,11.2z"/>
		<path class="st147" d="M252.1,11.2c2.7,0,4.6-0.7,4.9,1.9c0.1,1.5-0.9,2.1-2.2,1.9c-0.6-0.1-1.9,0-0.7-1.3
			C254.7,12.9,254.3,12,252.1,11.2z"/>
		<path class="st148" d="M271.1,11.1c0.8,0,1.6-0.1,2.3,0c1.5,0.2,1.8,1.3,1.6,2.5c-0.3,1.5-2,1.9-2.6,1.2c-1.8-2.1,1.2-0.4,1.4-1.5
			C274,11,271.3,12.9,271.1,11.1z"/>
		<path class="st149" d="M265.1,11.1c0.8,0,1.6-0.1,2.3,0c1.5,0.2,1.8,1.3,1.5,2.5c-0.3,1.5-2,1.9-2.6,1.1c-1.8-2.1,1.2-0.4,1.4-1.5
			C268,10.9,265.3,12.9,265.1,11.1z"/>
		<path class="st75" d="M89.3,97.1c-0.4-0.1-0.7-0.2-1.1-0.3c-1.4-4.3-2.7-8.5-0.9-13.2c2-5.3-2.6-1.7-4.1-2.5
			c2.5-4.3,6.6-5.5,11.2-6c4.7-0.5,9.3-1.2,14-1.8c2.5-1.5,5.3-1.2,8-1.9c4.2,0.3,5.5,2.7,4,6.4c-0.6,1.4-0.1,2.1,0.6,3
			c0.4,1.2,1.3,2.9-0.3,3.5s-3.6,0.4-5.2-0.4c-1.3-0.7-1.9-2.3-3-2.9c0.9,2.6,2.1,4.5,6,3.9c2.8-0.5,4.4,3.8,2.6,6.8
			c-1.3,2.2-1.8,4.2-0.6,6.5c-0.7,1.8-1.8,3.5-1.6,5.6c0.1,1.3,0,2.7-2,2.7C108.9,99.8,99.4,97.5,89.3,97.1z"/>
		<path class="st140" d="M117.3,72.2c-2.9,0.4-5.9,0.7-8.8,1.1c1.8-2.7,4.7-2.3,7.2-2.4c5-0.4,9.4-3.5,14.5-2.8
			c-2.1,0.9-4.1,1.9-6.2,2.8C122.1,73,119.7,72.6,117.3,72.2z"/>
		<path class="st150" d="M189.1,17c1.4,0.1,2.9,0.2,4.4,0.4c0.2,3.5-3.1,5.5-3.2,8.7c-2.1,2.9-5.5,2.2-8.2,2.2c-3.4,0-4.2-3-3.8-6.1
			c0.3-0.4,0.6-0.8,1-1.1c1.2-1.8,2.4-3.5,5-3c0.8,0,1.5-0.1,1.9-0.8C187.1,17.2,188.1,17.1,189.1,17z"/>
		<path class="st151" d="M184.2,18.1c-1.7,1-3.4,2-5,3C180.8,17.1,181.8,16.5,184.2,18.1z"/>
		<path class="st59" d="M381.1,28.1c0.3-1,0.6-2,0.9-3c0.4-1.2,0.8-2.4,1.1-3.6c0.4-1.4,1-1.4,1.9-0.4c0.8,1.6,0,2.8-1,3.9
			c0.7,1,1.3,2,2,3c-0.7,0.4-1.3,0.8-2,1.2C383.1,28.8,382.1,28.5,381.1,28.1z"/>
		<path class="st152" d="M384.1,25c0-1.4,0.2-2.7,1-3.9c0.9-0.3,1.8-0.6,2.8-0.8c1.3,1.5,1.2,3.1,0.2,4.8
			C386.7,25,385.4,25,384.1,25z"/>
		<path class="st153" d="M285.3,21.9c3.5,0.4,7.1,1.3,10.6,1c8.1-0.9,16.2-0.3,24.2-0.8c0.3-0.3,0.7-0.3,1,0c0,0.3,0.1,0.7,0.1,1
			c-5.7,2.7-11.3,1.3-16,0.5c2,0.8,5.2,1,8.4,1c2.3,0,4.6-0.2,6.6,1.4c0,0.3,0,0.7,0.1,1c-2.7,2.4-6.1,1-9.2,1.6
			c-8.6-0.1-17.2,0.3-25.9,0.4c-0.1-1.5-0.2-3.1-0.3-4.6C284.5,23.5,284.5,22.6,285.3,21.9z"/>
		<path class="st154" d="M320.1,26c-5.7,0.2-11.5,0.5-17.5-2.9c6.6,0,12.6,0,18.6,0C320.8,24.1,320.5,25.1,320.1,26z"/>
		<path class="st155" d="M310,27.1c3.4,0,6.8-0.1,10.1-0.1c1.3,0.3,2.5,0.6,3.8,0.9c-0.6,1.7-3.3,1.8-2.9,4.1
			c-3.4,0.4-6.3-1.9-9.6-2.1C310.5,29.9,309.7,28.5,310,27.1z"/>
		<path class="st51" d="M321.1,22.1c-0.3,0-0.7,0-1,0c-0.1-1.2-1.5-0.9-2-1.7c-0.3-0.5-0.9-0.7-1-1.3c0.4-0.6,0.7-1.3,1.1-1.9
			c1.1,0.9,2.2,1.9,3.4,2.7C323.5,21,321.9,21.4,321.1,22.1z"/>
		<path class="st156" d="M310,27.1c1.2,4,5.8,0.5,7.7,3.4c0.6,0.9,2.2,1,3.3,1.5c0.7,1.1,1.5,0,2.3,0.1c1.2,2.2,0.7,4.6,0.7,6.9
			c-0.9,0.8-2.9-4.6-3.1,0.6c0,0.4-0.4,1.1-0.8,0.4c-1.6-2.8-5.5-0.2-7-3c-0.8-0.6-1.9-1.2-2.8-0.8c-3.6,1.8-7,1-10.3-0.5
			c-0.8-0.3-1.6-0.6-2.3,0c-2.4,2.3-4.3,1.2-6.5-0.5c-1.9-1.4-3.7-1-5.2,0.8c-1.8-2.1-0.8-4.7-0.9-7c6.5-2.7,13.4-1.9,20.2-1.5
			C307,27.5,308.5,27.9,310,27.1z"/>
		<path class="st114" d="M65.3,214.8c1.1,0,2.3,0.1,3-1.2c1.2-1.9,2.3-3.3,3.6,0c0.9,2.3,3-2.4,3.6,0.4c0.3,1.3,2.6,2.3,1,3.8
			c-1.4,1.4-2.2,3.7-5,3.5c-2.6-0.2-5-0.7-7.2-1.9C64.6,217.9,64.9,216.3,65.3,214.8L65.3,214.8z"/>
		<path class="st114" d="M75.6,208.1c0.8,0.4,2.1,0.5,2.1,1.7c0,1.1-1.2,0.9-1.9,0.9c-0.9,0-1.8-0.4-1.8-1.3
			C73.8,208.5,74.6,208,75.6,208.1z"/>
		<path class="st65" d="M60.5,246.5c-3.5-0.9-3.6-2.4-1-4.7C59.9,243.5,60.2,244.9,60.5,246.5z"/>
		<path class="st157" d="M453,37c5.1,3,7.4,2.1,8-3l0,0c5.5-2.3,11.4-0.4,17.1-1.6c2-0.4,4.3-0.3,6.4-0.5c4.4-0.5,8.7-1.3,13.1,0.9
			c2.4,1.2,5.5,0.7,8.3,0.4c1.8-0.2,3.6-0.6,5.2,0.8c5.1,1.8,10.5,1.3,15.6,0.8c4.8-0.5,8.7-0.3,12.4,3c0.4,0.4,1.3,0.2,1.9,0.3
			c3.8-2.5,8.1-2,12.3-2.1c6.9-0.1,13.8,0.9,20.7,0.1c2.8-0.1,5.5-0.1,8.3-0.2c0.3-0.1,0.5-0.1,0.7,0.1c0.4,2.4-2.4,1.6-3,3
			c-10.1,0-20.2,0-30.3,0c-2.5,0-5-0.1-7.3,1.2c-0.8,0.5-2,0.8-2.8,0.6c-15.5-2.9-31-3-46.7-2.3c-8.4,0.4-16.9-0.6-25.4-0.5
			c-1.2,0-2.7-0.4-3.4,0.2c-4.9,4.3-10,1.8-15.1,0.8C449.2,36.1,450.7,35.8,453,37z"/>
		<path class="st121" d="M511,34c-3.7-0.1-7.4,1.3-11.1,0.6c-0.8-0.1-1.8,0.4-2.4,0c-7.7-4.6-15.6-0.1-23.3-0.5
			c-4.4-0.2-8.8-0.1-13.2-0.1c-0.6-6.9,5-3.8,8-5c13,0.1,26,0.1,39,0.2C509.5,30.5,510.9,31.9,511,34z"/>
		<path class="st158" d="M503,25.1c10.6,0,21.2-0.1,31.8-0.1c3.7,0.9,7.5,1.3,11.3,1.1c1.6-0.1,2.7,0.2,1.9,2.1
			c-11,1.5-22,0.4-33,0.5c-1.6,0-3.2,0-4.8,0.3c-6.6-1.6-13.3-0.6-19.9-1.5c-0.8-0.1-1.6-0.1-2.5-1.1
			C492.9,25.2,497.9,24.6,503,25.1z"/>
		<path class="st159" d="M573.9,36.1c-3.5,4.3-8.1,1.4-11.8,1.2c-7.2-0.4-14.2,0.1-21.2,0.7c1.2-2.4,3.2-3,5.8-3
			c7.5-0.1,15.1-0.4,22.6-0.6C571.1,34.3,572.4,35.5,573.9,36.1z"/>
		<path class="st159" d="M579.9,39c-0.2-2.2,2.3-1.7,3-3c6.3,0,12.6,0.1,18.9,0.1c0.5,3.4,3,2.7,5.3,2.9c3.9,0.2,8.1-0.9,11.6,2.1
			c0.6,3.1-1.8,3.9-3.8,4.9c-0.3,0-0.6-0.1-1-0.1c-2.6-1.4-5.3-0.7-8-0.9l0,0c-0.3-1-1-1.6-2-2c-0.2-1.6-0.7-2.6-2.8-2.7
			C594.1,40,587,39.5,579.9,39z"/>
		<path class="st72" d="M605.9,45.1c2.9-1.6,5.6-1.4,8,0.9C611.3,45.7,608.4,46.9,605.9,45.1z"/>
		<path class="st160" d="M261.1,139c-0.6,0-1.2,0.1-1.9,0.1c-2.6,1.2-5.4,0.7-6.4-1.7c-1.1-2.6-2.1,0.6-2.8-0.4
			c-10.6-10.9-23.3-10.8-36.6-6.5c-1.8,0.6-3.5,0.6-5.3,0.3c0-0.6,0-1.2,0-1.7c0.4-1.5,1.2-2.8,2.1-4c0.7,0,1.3-0.1,2-0.1
			c0.8,1.4,1.9,1.8,3.2,0.9c2.8-1.9,6.1-2.3,9.3-2.1c0.8-1.6-1.4-2.4-0.5-3.8c2-0.3,4.1-0.7,6.1-1c1.2,2.4,2.1,3.7,5.8,2.8
			c2.8-0.7,7.3,1.7,9.5,4.1c2.1,2.3,4.3,2.3,6.5,2.3c2.3,0.1,4.5-0.4,6.8,0.4c1.3,0.5,2.6,0.5,3.3-1.1c0.9-2,2.8-2.1,4-1
			c0.8,0.7,0,2.4-1,3.4C262.7,132.4,261.8,135.6,261.1,139z"/>
		<path class="st161" d="M184.2,133.8c6.1-2.6,12.2-5.6,19.1-2.7c0,3.5,2.8,2.1,4.3,2c1.7-0.1,3.6,0.2,5.5-0.6
			c-3.7,3.5-7.3,7-11,10.4c-2.4-0.2-3,1.8-4,3.2c-1.7,2.2-3.2,2.4-4.4-0.2c-0.8-1.8-4.2-2.2-2.7-5.2
			C189.7,137.6,187.3,135.4,184.2,133.8z"/>
		<path class="st162" d="M191.1,140.8c0.1,3.1,5.2,2.6,4.9,6.5c1.2-1.7,2.3-3.4,3.5-5s2.4-1.9,2.7,0.7c-4.3,4.4-6.4,9.6-6,15.8
			c-2.4-0.5-1.4-2.1-1.4-3.3c-0.1,4.4,2.4,7.9,4.2,11.7c2.1,3,4.8,5.5,7.6,7.9c0.9,0.7,2.2,1.4,1.3,2.7c-0.9,1.2-2.2,0.3-3.1-0.2
			c-7.4-3.8-12.8-9.3-14.7-17.7c-1.5-5.4-4-10.7-1.6-16.6C189.2,141.9,190,141.4,191.1,140.8z"/>
		<path class="st163" d="M190.1,159.9c3.5,7.2,7.5,14,15.5,17.1c0.5,0.2,0.9,0.4,1.4,0.5c0.1,0,0.3-0.2,0.7-0.5
			c-3.6-2.7-7.1-5.4-9.5-9.1c0.1-0.9,0.1-1.9,1-2.5c3.1,3.2,5.5,6.9,9.1,9.6c5.3,3.9,10.8,5.5,17.2,3.8c1-0.3,2.1-1.2,3.4,0
			c-0.9,2.1-3.1,2.3-4.8,2.7c-12.8,3-29.3-6-34-18.4C189.6,161.9,189.6,161,190.1,159.9z"/>
		<path class="st164" d="M250,136.9c1-0.4,1.8-2.5,3-0.5c1.5,2.3,4,2.1,6.2,2.7c-0.1,1.6-0.1,3.1-0.2,4.7c-0.5-0.4-1.1-1.2-1.4-1.1
			c-1.2,0.5-0.7,1.9-0.3,2.4c1.9,2.4,1.5,4.6-0.1,6.8C256.9,145.9,254.1,141.1,250,136.9z"/>
		<path class="st165" d="M199.2,165.5c-0.2,0.9,0.1,2-1,2.5c-2.2-4.2-4.6-8.4-3.9-14c1.8,1.5,0.3,3.8,2,4.8
			C198.4,160.5,197.8,163.4,199.2,165.5z"/>
		<path class="st166" d="M173,158.9h-0.4h-0.4c-0.3,0-0.6,0-0.9-0.1c0.3-3-0.7-6.2,0.9-9c0.3,0.3,0.7,0.7,1,1
			C173,153.5,173,156.2,173,158.9z"/>
		<path class="st78" d="M224.1,119.9c0.1,0.1,0.2,0.3,0.2,0.4c0.6,1.7,4.1,1.5,3.1,3.7c-0.8,1.7-3.3,0.9-5,0.7
			c-3.3-0.4-5.4,2-8.1,2.9c-0.9,0.3-2.3,0.7-2.7,0.3c-1-1,0.3-2,0.6-3.1c1.1-1.4,3.6-0.9,4-3C218.6,120.1,221.5,120.7,224.1,119.9z"
			/>
		<path class="st167" d="M259.3,118.7c0.7,0.5,1.7,1.5,1.1,1.8c-1.8,0.8-4.1,2.7-5.8,0.6c-1.8-2.2-2.7-2.4-5.3-1
			c-2.3,1.2-4.8,0.1-5-3.3c2.6-1.3,5.4-0.5,8-0.9C254.6,116.9,256.9,117.8,259.3,118.7z"/>
		<path class="st168" d="M252.2,115.9c-2.4,2.7-5.3,0.9-8,0.9c0-0.6,0-1.2,0-1.8C247.2,112.4,250.2,110.4,252.2,115.9z"/>
		<path class="st169" d="M231.3,114c-0.9-3.7-2.5-0.9-4-0.4c-0.2,0.1-0.9-0.4-1-0.7c-0.3-1.2,0.6-1.5,1.6-2c1.5-0.8,2.7-2.4,4.7-0.9
			c0.8,0.6,1.6,1.3,1.2,2.4C233.4,113.4,232.6,113.9,231.3,114z"/>
		<path class="st78" d="M259.8,104.8c5.5-0.7,11-0.8,16.4,0C270.8,104.8,265.3,104.8,259.8,104.8z"/>
		<path class="st55" d="M120.2,97.9c-3.2-2.1-2.4-4.6-0.4-6.7c1.2-1.3,1.8-2.5,0.6-3.8c-0.8-0.9-1.4-2.8-3.5-1.3s-4-0.6-4.2-1.9
			c-0.5-2.6-1.6-3.9-4.5-4.1c3.3-1.2,5.4,0.1,7,2.1c1.4,1.9,3.3,0.7,5,1.2c0.6,0.2-0.2-1.6,0-2.5c2.8-2.7,6.5-3.4,9.8-5.2
			c1.2-0.6,3.2-0.8,4,0.9c1,2-1.1,2.4-2.2,3.2c-0.9,0.7-2.2,1-2,2.9c3,0.4,4.7-1.6,6.5-3.4c1.7-1.8,3.2-2.9,6-1.6
			c2.1,1,4.7,0.5,6.3-1.5c2.1-2.7,4.7-2.8,7.6-1.8c4.2,2.2,7.5,5.5,11,8.5c-1.3,2.5-3.5,2.3-5.6,1.6c-2.6-0.8-2.3,0.9-2.4,2.4
			c5.1,6.4,2,13-7,15c-5.3,4.3-11.7,4.4-18.2,4.9c-0.8,4.5,1,6.5,7.6,7.6c-0.9,2.8-6.3,1.2-5.4,5.4c-0.3,0.5-0.9-0.1-1.2,0.3
			c0.4,0,0.9,0.1,1.2-0.3c0.7,0,1.6,0.2,1.9-0.2c3.4-3.3,6.7-5.3,10.1,0.1c-0.4,2-4.5-0.6-4.2,2.2c0.2,1.9,2.9,0.2,4.2,1.2
			c-3.5,2.5-7,2.1-11.3-1.6c0.1,1.7,0.9,3.4-0.8,4.2c-1.9,0-3.7,0.4-5,2h0.1c-2.1,1.2-4.3,2.5-6.9,2.1l-0.3-0.2
			c-0.6-0.5-0.8-1.2-0.8-2c0.1-2.3,1.2-4.6,0.1-7c-0.3-2.6-1.9-4.9-1.9-7.5c0.1-0.8,0.8-1.4,1.2-2.1c2.8-5.4,2.5-6.9-1.5-11.2
			C120.6,99.4,119.8,98.9,120.2,97.9z"/>
		<path class="st170" d="M152.2,101.9c1.9-0.9,3.1-2.7,5.4-3.2c2.5-0.5,3.2-7.7,1.6-11.8c2,2.1,4.6,0.4,6.9,0.9
			c3.5,0.7,5.1,1.4,4.2,5.1c0.1,2.4,2.8,3.9,0.7,7.2c-2.9,4.6-2.4,5-6.2,0.8c0,3.1,0.2,5.9-2,7.9c-1.3,1.2-0.1,1.9,0.1,2.9
			c0.6,3.1-1.3,1.6-2.6,1.1C157.6,109.2,157.8,103.5,152.2,101.9z"/>
		<path class="st170" d="M173.2,91.9c0-1.5-0.1-3.2,1.7-3.6c2.4-0.5,1.3,2.1,2.2,3c0.4,0.5,0.7,1.1,1.1,1.6
			c-0.2,2.1-1.2,3.2-3.5,2.7S172.9,93.5,173.2,91.9z"/>
		<path class="st171" d="M181.2,38c7.8-1.7,7.8-1.7,8.1,7.1c1.4,2.1,1.3,4.5,1.3,6.8c-0.2,3.5,0.6,7.1-0.9,10.5
			c-0.2,0.2-0.4,0.4-0.6,0.6c-2-4.3-0.5-8.8-0.9-13.1c-0.2-1.9,0.4-4.5-2.3-4.7c-2.9-0.2-2.2,2.4-2.7,4.3
			c-2.3,8.4-1.4,16.9-0.9,25.4c-1.4,2.3-0.7,5.8-4,7c-1.7-1.6-0.4-3.4-0.3-5.1c0.1-2.3,0.6-5-2.7-5.9c-0.1-2-1.6-2-3-2
			c-5.3-1.5-5.6-2-2.5-6c1.5-1.9,2.4-4.3,4.2-6c0.3-0.4,0.6-0.7,0.9-1.1c2.4-5,2.3-10.7,4.6-15.8C179.8,39.3,179.2,37.6,181.2,38z"
			/>
		<path class="st172" d="M194.1,77.1c0.1-3,0.1-5.9,0.2-8.9c-1.6-3.1-1.5-6.5-1.2-9.8c0.1-2.6-0.4-5.2-0.3-7.8c0-2-0.1-4,1.2-5.7
			c0.8-0.5,1.7-0.5,2.5,0.1c1.8,3,0.8,6.4,1.1,9.6c0,0.6,0,1.2,0,1.8c0.1,3.3,0,6.5,0,9.8c-0.5,4.4,1.6,9.1-1.8,13.1
			C194.1,79.4,193.5,78.7,194.1,77.1z"/>
		<path class="st171" d="M194.4,58.2c-1.1,3.3,1,6.7-0.1,10c-1.3,0.9-2.7,2.2-4.2,1.1c-2.1-1.6-0.4-4.2-1-6.2l0.1-0.1
			C191.7,62.2,191.1,58.1,194.4,58.2z"/>
		<path class="st173" d="M194.1,77.1c0.1,0.8,0.3,1.6,1.1,2c0,0.2,0,0.5,0,0.7c-0.4,0.4-0.8,0.8-1.2,1.3c-1.1,1.1-1.5,3.3-3.7,2.6
			c-1.2-0.3-1-1.5-1.1-2.5c-0.4-2.4,1-3.3,3-3.7C192.8,77.3,193.4,77.2,194.1,77.1z"/>
		<path class="st170" d="M175.2,57c-2.6,2.3-3.4,5.8-5.9,8.3c-2.2,2.3,1.9,2.4,2.9,3.7c-0.3,2.3-1.2,0.8-2.2,0.5
			c-2.2-0.7-3.9-3.8-6.8-1.5c-3.7-0.4-7.4-0.7-11.5-1.1c2.1-2.6,4.7,0.3,6.5-1.3c-1.9-1.5-1.9-1.4-5.8-1.6c-1.3-0.1-3.6,0.9-3.6-1.2
			c0-2,1.9-3,4-2c0.1,0.1,0.4-0.3,0.7-0.4c-0.4-1.6-2.2-1.9-3.1-3c1.3-1,2.6-2.1,4-3.1c2.8,1.4,5,1.6,6.1-2.2
			c0.5-1.8,2.3-2.6,3.9-2.6c2.5-0.1,0.4,2,1,3c0.9,1.2,1.6,3,3.3,2.3c1.9-0.8,0.6-1.5-0.1-2.7c-1.5-2.8,1.7-7.2,5.3-8
			c2.2-0.5,4.1-0.5,3.6-3.9c-0.4-2.3,1.2-3.8,3.7-1.9c-0.8,3.8-2.8,7.4-3.5,11C177.2,51.9,178.3,55,175.2,57c-3-1.3-5.3,1.1-7.9,1.5
			C169.9,58.2,172.2,55.9,175.2,57z"/>
		<path class="st170" d="M175.2,71c1.2,0.4,2.5-0.9,3.7,0.1c-1.9,2.2,2.4,4.1,0.4,6.2c-1.2,1.4-1.1,3-1.1,4.6c0,0.3,0,0.7,0,1
			c-2.2-0.1-3.8-1.8-5.9-2.4c-1.4-0.4-3.7-2.4-1.3-4.8c0,0-1.1-1.3-1.9-2.2C171,72.8,173.1,71.9,175.2,71z"/>
		<path class="st170" d="M167.2,83c-5-0.8-7.2-5.6-11-8c2.2-1.9,4.6-3.5,7-5c0.3,0.3,0.7,0.7,1,1C163.2,75.5,165.9,79,167.2,83z"/>
		<path class="st78" d="M210.2,125c-0.2,1.6,0.6,3.7-2.1,4c-2.8-1.3-2.8-1.3,1-4C209.5,125,209.8,125,210.2,125z"/>
		<path class="st17" d="M137.3,127.7c4.1-1.2,8.3-1.8,12.2,0.7c2.1,1.4,5.6-1.3,6.9,2.3c-5.4,1.3-10.7-1.9-16.2-0.1
			C138.3,131.2,137.9,129,137.3,127.7z"/>
		<path class="st174" d="M453,37c-1.7-0.1-3.3,0.2-4,2c-8.2-2.4-16.7,1.3-25.2-1c-1.7-0.5-6.3-1.7-9.3,1.6c-2.2,2.4-3.4-0.9-4.5-2.5
			c3.8-3.7,8.7-2.4,13.2-2.9c0.4-0.1,1.1,0.6,1.4,0.4c5.6-2.9,11.5-0.7,17.2-0.8c0.8,0,1.5-0.6,2.3-0.9c0.3,0.1,0.6,0.1,0.9,0.2
			c0.7,2.6,2.5,2.3,4.5,1.7C451.5,34.2,453.7,33.3,453,37z"/>
		<path class="st175" d="M391.1,36.1c0.7-1.1,1.6-3.7,2.8-1.9c3,4.3,6.1,0.8,9.1,0.8c1.7,0.4,3.4,0.7,5.1,1.1
			c0.2,3.4-2.3,3.1-4.4,2.9c-4-0.5-7.8,0-11.7,1C393,38.4,393.2,36.9,391.1,36.1z"/>
		<path class="st85" d="M376.1,41c2-1.3,3.8-2.9,5-5l0,0c2-0.8,3.9-1.4,2.6,2c-0.1,0.3-0.8,0.5-0.3,0.7c0.3,0.1,0.9-0.3,1.4-0.4
			c1.8,0.4,3.5-0.9,5.3-0.3c-2,3.8-10.9,6.6-14.2,4.3C375.7,42.3,376,41.5,376.1,41z"/>
		<path class="st175" d="M390.1,38.1c-1.6,0.8-2.9,2.7-5,1c-0.6-1.8,1.1-2.1,2-2.9c1.3-1.3,2.7-2,4,0
			C390.7,36.7,390.4,37.4,390.1,38.1z"/>
		<path class="st99" d="M297.1,61.1c1.6-3.2,4.9-2.6,7.4-2.8c2.2-0.2-1.2,2.1,0.5,2.8C302.4,62.5,299.8,62.5,297.1,61.1z"/>
		<path class="st176" d="M285.2,59c0,0.6,0,1.3,0,1.9c0.3,0.3,0.4,0.5,0.2,0.8c-0.1,0.2-0.2,0.3-0.3,0.3c0,1.5-0.1,3-0.1,4.5
			c-0.6-0.2-1.3-0.4-1.9-0.6c-1.9-2.2-1.5-4.7-0.8-7.3c0.3-0.5,0.7-0.9,1.3-1C284.6,57.6,285.3,57.9,285.2,59z"/>
		<path class="st99" d="M290.1,61c2-2.6,4-3.6,6.1-0.1C294.2,61.3,292.2,64.2,290.1,61z"/>
		<path class="st99" d="M285.2,62c0-0.4,0.1-0.8,0.1-1.1c1.6,0.3,3.3-3.6,4.9,0.1C288.6,61.9,287.2,63.7,285.2,62z"/>
		<path class="st177" d="M281.3,74.7c1.9,4,1.1,8.2,0.8,12.3c-3.5,3.8-7.6,2.7-11.8,1.3c1-2.4,1-2.4,5.2-2.1c0.6,0.2-0.1-0.7,0,0
			c0,0.4-0.1,0.5-0.3,0.3c-2.9-2.7-5.8-3.7-10.1-2c-3.2,1.2-7-1-10.6-2.1c-0.5,2,0.4,4.7-2.3,5.1c-2.3,0.4-4.4-0.5-6.6-1.5
			c-4.1-1.8-7.9-5.3-13-3.9c-3.2,0.9-6.2-0.5-9.4-0.5c-3.5-0.1-7.2-0.1-10.1,1.8c-3.6,2.3-5.8,1.6-7.6-2c-1.7-5.1,0.3-8.3,5.2-8.5
			c3.2-0.1,3.2-3.2,4.8-4.8c0.4-0.5,0.8-1,1-1.7c0.6-1.3,0.3-3.3,2.2-3.4c1.6,0,3.3,0.9,4.3,2.2c1.4,1.8-0.8,2.4-1.6,3.5
			c-0.4,0.6,0.2,0.8,0.8,1.5c0-2.8,1.8-3.2,3.8-3.3c2.1-0.1,4.3-0.2,6.2-1.4c2.2-0.4,4.3,0.4,6.5,0.4c0.5,0,1,0.1,1.5,0.2
			c4.5-0.4,8.9-0.7,13.4,0.1c3.7,1.3,8-0.9,11.4,1.8c-1.5,1.5-1.5,1.5-5.7,1.7c4.8-0.7,8.5,1,11.9,3.7c0.9,0.7,2.3,1.7,2,2.6
			c-0.9,2.7,0.7,3.2,2.6,3.5c2.1,0.3,3.4-0.9,4.1-2.8C280.2,75.9,280.5,75.1,281.3,74.7z"/>
		<path class="st178" d="M270,87.1c4.1,1.5,8.1,1.4,12.1-0.1c0,1.7,0,3.3,0,5c-0.1,0.1-0.3,0.3-0.3,0.4c-1.1,9.1-1.1,9.1-10.6,9
			c-9,0-18,0.4-27-0.1c-11.1-0.6-22.2-0.6-33.2-1.8c-1.2-0.1-2.3-0.3-3.5-0.2c-8,0.5-8,0.5-10.4-6.3c0-0.3,0-0.7-0.1-1
			c1.5-1.4,0.9-3.3,1.1-5c0.2-1.7-0.6-3.6,1-5c2.6-0.1,1.6,2.2,2.2,3.4c0.4,0.9-0.1,3,2.1,1.7c0.9-0.9,0.9-2.9,3-2
			c0.8,1,0.9,2.2,1.1,3.4c1.8,4,6,5.1,9.2,4.8c4.3-0.4,9.1-0.9,12.9-3.7c4.9-3,10.3-3.3,15.8-2.9c3.4,0.3,6.8,1.2,10.2-0.1
			c4.2,0,8.5,0.1,12.7-0.1C269.1,86.5,269.6,86.7,270,87.1z"/>
		<path class="st179" d="M197.2,93c0.6,0.6,1.6,1.1,1.7,1.7c0.7,4.8,3.3,5.4,7,3.1c1.2-0.7,2.2-0.3,3.3,0c5.3,1.6,11.4,2,16.3,1.5
			c8.8-0.9,17.2,1.6,25.8,0.9c8.6-0.7,17.3-0.8,25.9,0.3c2.7,0.4,3.5-1.2,4-3.3c0.4-1.7-0.6-3.7,1.1-5.1c0.9,10.6,0.9,10.7-9.5,10.7
			c-22.9,0-45.8,0.1-68.7,0c-7.9,0-6.8,1.2-7-6.8C197,94.9,197.1,93.9,197.2,93z"/>
		<path class="st180" d="M283.2,58.2c0,2.6,0,5.1,0,7.7c-0.7,0.4-1.4,0.7-2,1.1c-7.4-0.8-14.8-0.6-22.2-0.7
			c-6.2,0.3-12.3-0.9-18.4-0.9c-2.9,0.2-5.4-2.5-8.4-1c-0.8,0-1.3-0.5-1.8-1.2c-0.7-1.8-1.8-3.6,0.2-5.4c3.2,0.4,6.3,0.2,9.1-1.6
			c6.8-1.5,13.4,1.1,20.2,1.2c7.3,0.1,14.7,1.8,22-0.7C282.6,56.9,283,57.4,283.2,58.2z"/>
		<path class="st181" d="M200.2,82c-1.7,1.9-0.7,4.1-0.9,6.2c-0.2,1.6,0.3,3.5-2.1,3.8c-0.1-3.2-0.4-6.4-0.3-9.6
			c0-1.3-0.3-2.2-1.6-2.5c0-0.2,0-0.5,0-0.7c2.4-4.2,0.4-8.9,1.2-13.2c0.9-1,1.4-2.4,3.1-2.3c1.6,0.1,3.2,0.3,4.8,0.1
			c6-3,11.6-0.4,11.9,5.4c-1,2.2-2.9,3.8-3.2,6.2c-2,0.2-3.1-3.5-4.6-1.3c-1.3,1.9-4.3,3.9-2.1,7.1c0.7,1.4,1.1,2.8-0.1,4.1
			c-0.6,1-1.2,2-1.8,3c-0.4-0.3-0.8-0.7-0.9-1.1c-0.4-2.7-1.3-5.4-1.5-8.1C200.5,79.4,202.7,81.9,200.2,82z"/>
		<path class="st81" d="M281.3,74.7c-0.1,2.6-0.1,5-3.5,6.3c-3.1,1.1-4.1-1.5-6.1-2.2c-0.8-0.3-0.7-0.5,0.5-1.4
			c0.8-0.6,0.8-1.1-0.6-2.1c-4-3-8-5.9-13.4-6c2.4-0.1,4.7-0.2,7.1-0.3c4.2-3.7,9-2.2,13.6-1.2c2.3,0.5,1.6,2.9,2.2,4.5
			C281.2,73,281.3,73.9,281.3,74.7z"/>
		<path class="st182" d="M281.1,72.2c-1.3-4.6-5.1-4.1-8.5-4.1c-2.4,0.1-4.9,0.5-7.3,0.7c-3.9-2.1-8.5,0.6-12.4-1.7
			c1.2-3,4.4-0.7,6.2-2.2c6.4,0,12.9,0,19.3,0c1.4,0,1.6,1.5,2.6,2C281.7,68.7,282.5,70.5,281.1,72.2z"/>
		<path class="st183" d="M282.3,24.8c-0.6,1.6,0.4,4.1-2.4,4.5c-1.4,1.2-3.1,1.1-4.7,1.1c-13.9-0.1-27.8,0.2-41.7,0.1
			c-1.9-0.2-3.1-1.5-4.4-2.6c-2-2-4.4-2.4-7.1-2.6c-6.9-0.4-13.7,1-20.6,0.8c-1.6,0-3.3,0.2-4.6-1.1c-0.8-1.4-0.9-2.8-0.2-4.3
			c0.3-0.6,0.7-1,1.4-1.1c26.5-0.1,52.9,0,79.4,0C282.6,19.6,283,20.1,282.3,24.8z"/>
		<path class="st184" d="M232.2,29.9c1.6-1.2,3.5-0.9,5.3-0.9c14.1,0.1,28.2,0.2,42.3,0.3c0.1,0.2,0.2,0.5,0.2,0.8
			c0.3,0.6,0.3,1.1-0.3,1.5c-1.3,0.8-2.7,0.9-4.2,0.9c-4.7,0-9.4,0-14.1,0c-3.1-0.1-6.3-0.2-9.4-0.2c-0.9,0-3-1.5-2.1,1.5
			c0.2,0.7-1.2,1.1-2,0.9c-4.8-1.3-8.1,2.1-11.9,3.9c-0.9,0.4-1.9,0.5-2.8,0.3c-1.8-0.7-1.9-2-1.4-3.5c0.3-1,0.5-2-0.1-3.1
			c-0.2-0.6-0.3-1.3,0-1.9C231.9,30.2,232.1,30.1,232.2,29.9z"/>
		<path class="st185" d="M286.1,36c0.9-6.3,4.2-1.9,6.7-1.6c1.1,0.2,1.3,3.1,2.9,1.4c3.2-3.4,5.9-1.9,8.7,0.4
			c1.5,1.2,2.9-0.1,4.1-0.6c2-0.7,3.5-0.8,4.6,1.3c-1.3,0.1-2.6,0.1-4.7,0.3c2.9,1.3,5.7,1.5,6.8,4.5c-3-3-7.5,0-10.6-3.4
			c-0.9-0.9-3.7,1-5.1,2.3c-1.8,1.8-2.6,0.9-4.4-0.4C292.6,38.3,290.2,35,286.1,36z"/>
		<path class="st186" d="M282.3,24.8c0.7-3.8-1.3-4.4-4.6-4.3c-24.7,0.1-49.4,0.1-74.1,0c-2,0-4-0.2-5.9-0.3
			c-0.6,0.4-1.1,0.4-1.6-0.1c1.5-1.6,3.5-0.9,5.2-0.9c22.3-0.1,44.6-0.2,66.9-0.2c3.7,0,7.5,0.4,11.2,0c2.8-0.3,4.6,0.5,5.9,2.9
			c-0.1,0.8-0.2,1.7-0.4,2.5C284,24.5,283.2,24.7,282.3,24.8z"/>
		<path class="st187" d="M279.9,31.1c0.1-0.3,0.1-0.7,0.2-1c3.1-0.1,2.7,2,2.7,4.1c0,3.9,0.2,7.9,0.3,11.8c0.8,1.1,0.5,2-0.7,2.5
			c-0.9,0-1.5-0.4-1.8-1.2c-0.3-3.1-0.7-6.1-1.5-9.1C278.5,35.7,278.1,33.2,279.9,31.1z"/>
		<path class="st188" d="M282.6,48c0.2-0.7,0.4-1.4,0.5-2.1c3.5,1.2,0.7,4.3,1.9,6.2c0,0.3,0,0.6,0,1c1.6,1.9,1.4,3.6-0.8,4.9
			c-0.4,0.1-0.7,0.1-1.1,0.2c-0.4-0.4-0.8-0.8-1.2-1.2c-1-1.4-0.2-3.1-0.8-4.5c-0.1-0.5-0.2-0.9-0.2-1.4
			C281.1,49.8,281.1,48.5,282.6,48z"/>
		<path class="st189" d="M284.2,58c0.3-1.6,0.5-3.3,0.8-4.9c1.7,0.3,4.4-1,4.7,1.2c0.3,2.4-2.9,3.2-4.5,4.7
			C284.9,58.6,284.6,58.3,284.2,58z"/>
		<path class="st190" d="M118.3,136c-7.2,11.9-17.4,16.2-30.9,12.7c-5.8-0.8-9.4-4.7-12.5-9.2c-0.4-0.6,0-1.2,0.4-1.8
			c1.3-0.3,2.2,0.4,3.1,1.1c11.5,8.7,18.3,9.3,30.5,2.6c0.7,0.1,0-0.4,0-0.4c-2,0.9-3.2,0.2-3.6-1.9c0.4-3.7,2.4-6.5,5-8.9
			c2.1-1,4.2-2.3,6.7-2.5c1.7,0.7,2.2,2.1,1.4,3.6C117.6,132.9,118.4,134.4,118.3,136z"/>
		<path class="st191" d="M75.1,138c2.3,5.6,8,7.3,12.3,10.7c-0.8,1.9,2.7,1.2,1.9,3.1c-1.7,1-3.1,0.9-4.1-0.9c-4-2.2-6.7-6-9.9-8.6
			c-5-4.1-4.1-9.2-5.7-13.8c-0.5-1.4,0.9-0.6,1.5-0.4c0,0.3,0,0.6,0.1,0.9c1,0.9,1.1,2.2,1.7,3.3c0.7,1.3,1.2,2.6,1.8,4
			C75,136.7,75.2,137.3,75.1,138z"/>
		<path class="st192" d="M118.3,136c-2.2-0.6-2.1-2.5-1.4-3.8c0.7-1.5,1.5-2.7,0.4-4.3c0-0.2,0.1-0.4,0.1-0.7
			c0.9-2.7,0.6-5.5,0.4-8.2c-0.1-1.4-0.9-3.5,0.8-3.8c2-0.4,2.4,1.8,2.7,3.3c0.4,1.7,0.7,3.3,3.1,2.4c1.4,2.4,0.4,4.7-0.1,7.1
			c-3.5,1.1-2.4,5.3-4.9,7.1C119,135.3,118.6,135.6,118.3,136z"/>
		<path class="st193" d="M119.3,135c0.4-1.6,1.3-3.2,1.2-4.7c-0.4-3.8,1.7-2.8,3.7-2.3c0,0.6-0.1,1.3-0.1,1.9
			c-1.1,1.2-0.7,2.7-0.9,4.1C121.9,134.4,121,136.1,119.3,135z"/>
		<path class="st106" d="M85.2,150.9c1.3,0.6,2.6,1.2,4.1,0.9c0.7,0.4,1.3,0.7,2,1.1c-0.5,0.6-3.9-1.3-1.6,1.9c0.5,0.7-1,1.3-1.7,1
			c-1.3-0.5-3.7,0.6-3.7-2.1C84.3,152.7,84.9,151.8,85.2,150.9z"/>
		<path class="st194" d="M124.4,130c2.1-1.5,4.3-2.4,6.9-2.1c-0.7,3.5-4.3,2.9-6.5,4.2C124.4,132.3,124.3,130.8,124.4,130z"/>
		<path class="st195" d="M67.3,202.8c-2.3,3.9-5.3,1.1-8,0.9l0,0c-0.3-1.1-0.8-2.2-1-3.3c-0.6-3,0.7-5.3,3.4-6.4
			c2.6-1.1,5-0.2,6.5,2.1C69.8,198.5,70.4,201,67.3,202.8c-1.5-1.6,0.3-4.9-3.3-5.9c1.4,3,2.4,5.9-2.6,3.6
			C63,202.5,65.8,201,67.3,202.8z"/>
		<path class="st192" d="M117.2,127.9c-2,1-4,2-6,3c-2.2-1.4-0.9-2.6,0.4-3.3c2.4-1.3,2-3.1,1.2-5c-1.8-2.9-2.7-0.1-4,0.6
			c-2.5,2.2-4.9,3.9-6.5-0.8c-0.1-0.3,0-0.7,0.1-0.9c0.4,3.5-3.1,1-4.1,2.7c-1.8,3.3-1.5,6.4-0.3,9.6c-1.6,1.4-3.5,1.8-4.9,0.2
			c-1.7-1.9-0.9-4,0.3-6c2.5-2.4,0.7-4.4-0.7-6.6c-0.7,2.4,3.2,3.3,1.5,5.7c-3,3.9-7.1,2.3-11,2.1c-0.8-0.1-1.6-0.2-2-1.1
			c2.7-2.5,6.1-4.5,7-8.7c-2.2-0.9-3.3,0.2-3.9,2.1c-0.7,2.3-1.4,4.7-3.2,6.6c-2.1-3.2,0.2-6.2,0.9-9.1c0.3-1.3,1.3-1.9-0.7-2.6
			c-1.3-0.5-0.4-1.7,0.7-2c1.1-0.4,2.3-0.6,2.2-2.1c0-1.5,2.8,1.7,2-1.2c0.1-1.4-0.2-2.5-1.1-3.7c-0.6-0.8,0.1-2,0.7-1.8
			c3.9,1.5,5-4.2,9.9-1.9c-2.6-3-4.4-0.4-5.8-2.1c-0.4-1.9,2-0.2,2.3-1.4c4.5-2.2,8.9-1.7,13.1,0.7c1.3,1.6,2.8,2.8,4.5,3.9
			c7.8,5.1,8.8,13.1,8.8,21.4C118.7,126.9,117.9,127.4,117.2,127.9L117.2,127.9z"/>
		<path class="st196" d="M94.2,126.9c-0.1,0.8,0,1.6-0.3,2.4c-0.4,1.4-1.4,2.8-0.1,4c1.4,1.4,3,0.2,4.4-0.4c1.1,0.7,1.6,1.7,1.7,3
			c-0.5,3.3-2.6,4-5.6,3.9c-2.4-0.1-4.7-1.6-7.1-0.1c-1,0.9-0.9,2.4-1.8,3.4c-2.3,1.1-3.5-0.8-4.4-2c-1.8-2.3-4.2-3.4-6.8-4.2
			c-0.7-1.3-1.3-2.7-2-4c-0.7-2-1.1-3.8,2.1-3.2c1.6,0.3,3.3-0.6,4.9,0.2c1.4-0.1,2.9,0.5,4.1-0.8C86.7,127.4,90.9,129.3,94.2,126.9
			L94.2,126.9z"/>
		<path class="st197" d="M105.3,101.8c-4.1-2.3-8.6-2-13.1-1.8c-0.2-0.7,3.1-2-0.4-2.1c-0.9,0-1.9,0.1-2.5-0.8
			c10.9-2.1,20.1,1.3,28.1,8.8c3,1.5,4.8,3.7,4.3,7.2c-1.7,2.6-3.4,1.7-4.5-0.3C114.2,108,110.1,104.7,105.3,101.8z"/>
		<path class="st192" d="M79.2,129.9c-1.6,0.5-2.7,2.1-4.9,0.9c-2.6-1.5-1.9,1-2.1,2.2c-1.4-1.1-0.9-2.6-0.9-4
			c1.6,0.1,3.2-0.2,4.7-0.7C77.5,127.6,79,127.7,79.2,129.9z"/>
		<path class="st198" d="M86.2,110.8c0.9,0.6,1.9,1.1,3.5,2.1c-2.6,0.7-4-0.6-5.5-0.9c-1.4-0.5-2.5,1.5-4.1,0.4
			C81.8,110.3,84.1,111.1,86.2,110.8z"/>
		<path class="st133" d="M387.1,36.1c0.1,1.5-1.4,1.9-2,2.9c-1.7,0.6-3,2.1-5.4,1.7c0.3-1.8,2.2-1.8,3-2.9c2.1-2.9-0.9-1.3-1.6-1.8
			c1.1-1.9,1-4.5,3-6C386.4,31.4,385.3,34.5,387.1,36.1z"/>
		<path class="st199" d="M196.1,20c0.5,0,1.1,0.1,1.6,0.1c-0.2,0.3-0.4,0.6-0.5,0.9c-0.4,6.1,1.1,12.1,0.4,18.2
			c-0.2,2,0.4,4.5-2.6,5.2c-0.3-0.1-0.6-0.2-0.9-0.4c0-2.7-0.1-5.4-0.1-8c0-3.8,0-7.6,0-11.4C193.9,22.7,194,20.9,196.1,20z"/>
		<path class="st200" d="M194.2,45.1c-0.1,2-0.1,4-0.2,5.9c-1.2,2.2-3,1.6-4.7,0.9c0-2.2,0-4.5,0-6.7c2,1.4,3.3-0.1,4.8-1.1l0.2-0.1
			c0.3,0.3,0.4,0.5,0.2,0.8C194.4,44.9,194.3,45.1,194.2,45.1z"/>
		<path class="st79" d="M163.2,70c-1.8,2.4-3.4,5.2-7,5c-2.4,0.7-6.4-1.9-6.7,3.3c-2.9-0.3-5.7,2.9-8.2,0.9
			c-1.7-1.4-2.7-1.1-3.3,0.2c-1.2,2.7-3.9,3.3-6,4.7c-1,0.7-2.3,2.7-3.5,0.2c-0.8-1.6-1.3-3.5,0.9-4.7c1.4-0.8,3.3-0.5,4.6-2.9
			c-5.6-0.5-8.9,4.6-13.7,4.4c0.3-1.3-4.2-0.2-1.2-3.1c2.3-2.2,1.1-4.4-1.7-5.7c2.2-0.4,4.5-0.9,6.7-1.3c1.3,1-0.1,1.7-0.4,2.4
			c-0.4,1,0,1.7,0.7,2.1c1.2,0.8,1.1-0.5,1.6-1c0.7-0.6,2.1-1.5,2.5-1.2c5.3,3.9,10-2.8,15.3-0.7c-2.2-2.2-4.8-3.3-8-3.8
			c1.8-1,3.1-1.4,4.9-1.2c1.6,0.2,4.5,3.1,4.9-1.4c0,0,2-1.1,2.5,0.2c2.6,6.1,7.2,5.2,12.2,3.8C161.1,69.8,162.2,70,163.2,70z"/>
		<path class="st201" d="M287.1,16c1.3-3.7,1.3-3.7,5.6-3.3c0.1,1.9-3.1,1.2-2.6,3.4C289.1,16.1,288.1,16,287.1,16z"/>
		<path class="st202" d="M317,19c0.3,0.4,0.7,0.9,1,1.3c-2.8-0.3-5.6-0.6-8.1-2.2C312.7,15.8,314.7,18.6,317,19z"/>
		<path class="st203" d="M206.9,13c-1.6,0-2.7,2-4.4,1.1c-0.2-0.1-0.2-1.2,0-1.3C203.9,11.8,205.4,12,206.9,13z"/>
		<path class="st42" d="M212.9,13.4c-1.4,0.4-2.8,0.7-4.2,1.1c0-0.5-0.2-1.1,0-1.4C209.8,11,211.3,12.4,212.9,13.4z"/>
		<path class="st204" d="M121.4,112.7c-0.7-2.6-2.7-4.5-4-6.8c1.5-2.5-1.8-6.6,2.8-8c2.8,0.3,2.8,4.4,5.8,4.3c0.1,0,0.4,0.1,0.4,0.2
			c-0.1,0.8,0.1,1.9-0.4,2.3c-2.5,2.2,0.8,7.1-3.9,8.2C121.7,113.5,121.5,113.4,121.4,112.7z"/>
		<path class="st205" d="M94.2,91c-1.7,0.5-2.6,4.1-4.2,2.7c-2.5-2.3-2.7-5.9-1.3-9.2c0.6-1.4,0.9-0.7,1.7,0.4
			c1.9,2.3-0.3-2.1,1.5-0.7c2.3,1.3-1,4.3,1.4,5.9C93.8,90.1,94.1,90.4,94.2,91z"/>
		<path class="st206" d="M94.2,91c-0.3-0.3-0.6-0.7-0.9-1c1-1.4,3.1-0.7,4.3-2.2c1-1.3,3.1-1.4,4-0.2c1.2,1.6-0.9,2.5-1.8,3.5
			C97.9,92.7,96.1,91.9,94.2,91z"/>
		<path class="st207" d="M121.4,112.7c0.3,0.1,0.5,0.2,0.8,0.3c0.7,2.6,1.4,5.2,2.1,7.8c-0.3,1.3-0.4,2.9-2.2,2.7
			c-1.7-0.2-1.8-1.7-1.8-3c0-1.6,0-3.3-1.6-4.8c0.2,3.2,0.4,6.1,0.5,9c0.1,1.5,0.1,3.1-2,3.3c2.4-8-1.3-17.9-8.7-22.8
			c-1.3-0.9-3.3-1-3.2-3.3c6,0.8,9,5.5,12.2,9.7C118.6,112.9,119.2,115.3,121.4,112.7z"/>
		<path class="st75" d="M135,115c-0.4,1.4-1.4,2-2.5,2.1c-1.8,0-1.6-1.8-1.8-2.9c-0.2-1.4,1.2-1.9,2.3-1.6S134.9,113.8,135,115z"/>
		<path class="st75" d="M136.2,119.9c-1.1,1.4-2.6,1-4.1,0.7C133,117.2,134.5,118.1,136.2,119.9L136.2,119.9z"/>
		<path class="st208" d="M189.3,51.9c1.6-0.3,3.1-0.6,4.7-0.9c0.1,2.4,0.3,4.8,0.4,7.2c-1.9,1.4-0.6,6.2-5.1,4.8
			C189.3,59.3,189.3,55.6,189.3,51.9z"/>
		<path class="st209" d="M199,64c-0.9,0.5-1.2,2.1-2.7,1.8c0-3.3,0-6.6,0-9.9c2.8-0.2,1.6-2.5,1.5-3.7c-0.2-4.4,1.9-8.1,3.4-12
			c0.4-1.1,1-2.5,2.7-2.5c3.1,5.8,2.2,12.1,0.7,17.7c-0.6,2.3-1.1,5-2.2,7.4C201.5,64.1,200.2,63.9,199,64z"/>
		<path class="st210" d="M203.4,38c-1.7,5.7-4.9,10.9-4.3,17.2c0.2,2.6-1.2,2.8-2.7,0.7c-0.1-0.3-0.1-0.7,0-1
			c0.7-3.4,0.2-6.8,0.3-10.2c0.1-3.7,0-7.4,0.1-11.1c0.1-0.6,0.4-1,1-1c3,1.7-0.1,4.5,1.3,6.5c0.1,0.7,0.9-0.1,0.2,0.1
			c-0.2,0.1-0.3,0-0.4-0.3c-0.3-2.2-0.1-4.2,1.7-5.7c1.3-0.7,2.6-1,3.4,0.7C204.4,35.5,204.4,36.8,203.4,38z"/>
		<path class="st211" d="M197.3,33c-0.1,3.9-0.1,7.8-0.2,11.7c-0.1,0.7-0.4,0.8-1,0.4c-0.6,0-1.3-0.1-1.9-0.1c0-0.4,0.1-0.7,0.1-1.1
			c3.1-0.2,1.7-2.6,1.8-4.1c0.5-6.3-0.9-12.6,1-18.8c0.1,1.3,0.1,2.7,0.2,4C199,27.7,199,30.4,197.3,33z"/>
		<path class="st209" d="M196.1,45.1c0.3-0.1,0.7-0.3,1-0.4c-0.3,3.4,0.9,7-0.8,10.3C196.3,51.7,196.2,48.4,196.1,45.1z"/>
		<path class="st171" d="M175.2,57c-3.4,1-6.7,2-10.1,3C168.3,58.3,170.9,54.2,175.2,57L175.2,57z"/>
		<path class="st212" d="M206,85c0-1.4,0.1-2.7,0.1-4.1c1.9,2.2,3,3.9,6.5,1c3.8-3,9.7-2.7,14.2-1.4c3.5,1,6.6,0.1,9.4-0.1
			c3.8-0.3,4.9,1.4,6.2,4.1c1.9-0.4-0.1-3.3,2.7-2.9c-0.3,3.8,2.4,4.5,5.7,4.8c1.1,0.1,1.8,0.1,2.4-0.9c1.1-2-1.7-2.2-1.6-4
			c1.8-0.7,3.6-0.7,5.5,0.1c3.3,1.4,6.3,3.5,10.1-0.1c1-1,6,0.1,7,2.8c0.6,1.8,2.5,1.2,2.9,2.8c-2.5,0-4.8,0-7.1,0
			c-0.3,0-0.6,0-0.8,0c-4.3,1.2-8.8-0.4-13.1,0.9c-5.1,0-10.2,0.2-15.3,0c-4.2-0.1-8,1.4-11.7,3.1c-4.8,1-9.7,2-14.3,0
			c-2.8-1.2-6.4,0.9-8.6-2.1C206.2,87.6,206.1,86.3,206,85z"/>
		<path class="st213" d="M216.1,69c-1.2-2.8-3.7-4.2-6-5.9c-2.7-2-3.4,3.3-6.1,1.7c-0.4-0.6-0.5-1.2-0.3-1.8c0.6-1.1,1.4-2,1.8-3.3
			c0.4-1,0.7-2,1-3.1c1.8-5,1.7-4.9,6.2-2.3c3.9,2.2,6.9-0.4,10-2.3c1.7-0.8,3.3-1.1,4.7,0.5c0.2,0.4,0.4,0.9,0.4,1.4
			c-1.5,5.1,2,8.3,4.5,11.8c-0.2,2-1.6,2.1-3.2,2.2c-2.4,0.2-6.1-1.6-6.1,3.4c0,0.2-2.3-2.5-4.3-0.3c0-3.5,2.8-3.2,4.3-5
			c-1.6-0.3-2.9-1.2-4.1-2.8C217.7,65.4,218.7,68.1,216.1,69z"/>
		<path class="st214" d="M259.1,65c-1.7,1.8-4.5,0.4-6.2,2.2c-4.3-0.1-8.6-0.1-12.8-0.2c1.4-1.6-1.8-1.6-1-3
			C245.8,64.4,252.4,64.7,259.1,65z"/>
		<path class="st215" d="M232.2,65.8c-6.2-5-7-6.9-5-11.9c2.1,2.7,1.1,6.7,4,9.1c0.5,0.3,1.1,0.6,1.6,0.9c3-0.7,5.2,0.1,6.3,3.1
			C236.7,67.5,234.4,66.5,232.2,65.8z"/>
		<path class="st216" d="M239.1,67c-1.9-1.4-3.8-3-6.3-3.1c-0.5-1.8,0.6-1.9,1.8-1.5c1.5,0.5,3,1.1,4.5,1.6c0.8,0.8,2.1,1.5,1,3
			C239.8,67,239.5,67,239.1,67z"/>
		<path class="st217" d="M206.3,88.9c7.7,0.3,15.2,2.3,22.9,2.1c-5.8,1.8-11.2,6.5-17.9,1.9C209.5,91.7,206,92.8,206.3,88.9z"/>
		<path class="st218" d="M200.2,82c0.5-1.9-0.5-4.2,2.1-5.8c1.8,3.8,2,7.8,2,11.8c-0.6,2.3-1.3,3.8-3.1,0.7
			C199.8,86.6,200.4,84.2,200.2,82z"/>
		<path class="st177" d="M256.1,87.9c4.2-1.9,8.7-0.5,13.1-0.9C264.9,89,260.5,87.6,256.1,87.9z"/>
		<path class="st219" d="M231.2,63c-3.6-2-4.2-5.4-4-9.1c0-0.3,0-0.5,0-0.8c0.3-0.3,0.7-0.4,1.1-0.2c3.9,0.7,7.8-0.5,11.7-0.2
			c14.1,0.8,28.2,0.4,42.2,0.1c0.8,1.4,0.3,2.8-0.3,4.2c-1.1,0.9-1.5,2-3.6,2.3c-8.5,1.3-16.9-0.6-25.3-1c-4.6-0.2-9.3-1.3-14.1-1.2
			c-2.5,1.4-5.2,1-7.9,0.9C229,59.7,231.4,61.3,231.2,63z"/>
		<path class="st220" d="M231.2,58c2.4-1.9,5.2-0.8,7.9-0.9C236.7,59.8,234.1,60.3,231.2,58z"/>
		<path class="st221" d="M204,63.1c0,0.6,0,1.2,0,1.7c-1.7-0.2-3.5,0.8-5-0.8c0.7-1.2,1.9-1.2,3.1-1.3
			C202.9,62.4,203.5,62.5,204,63.1z"/>
		<path class="st222" d="M203.2,34c-0.7-1-1.4,0.1-2.1,0.1c-1.5-0.3-2.7-0.9-3.4-2.4c0-0.9,0.2-2.1,1.2-1.7c4,1.5,7.8-0.4,11.7-0.4
			c4,0.1,7.3-2.8,11.5-3.2c2.9-0.3,5.3-0.4,7.8,0.8c0.7,1,2.9,0.7,2.2,2.8l-0.1,0.2c-2.4,0.9-5-0.2-7.4,0.5c-1.9,0.2-2.6,1-1.5,2.8
			c2.9,2.6,6.9-0.5,9.9,1.8c-0.4,1-1.6,2,0,2.9c0.2,1.9-0.9,2.2-2.4,2.1c-3.6-0.2-6.9,0-10.3,1.6c-2.5,1.2-5.4-0.8-8.2-0.2
			c-2.6-0.2-5.7,0.6-6.7-3C204.7,37.1,204.2,35.4,203.2,34z"/>
		<path class="st223" d="M230,27.1c-2.6,0-5-0.1-7.8,0.7c-6.3,1.9-12.8,3.4-19.4,4.3c-1.6,0.2-3.2-3.1-4.5,0.1
			c0.3,0.4,0.2,0.7-0.3,0.8c-0.2,0-0.4,0-0.7,0c0-2.7,0-5.3,0-8c8.6-0.1,17.1-1.2,25.7-0.9C225.9,24.3,228.2,24.9,230,27.1z"/>
		<path class="st224" d="M212.2,41c0.4-0.3,0.9-0.9,1.1-0.8c5.3,1.9,10.1-0.4,15-1.8c1.7-0.5,3.5,3,4.9-0.3c1,0,2,0,2.9,0
			c2.5-0.7,5.3-0.5,7.6-2.1c0.9-0.6,1.9-0.4,2.8,0c4.9,2.3,9.9,2.8,15,0.5c3-1.4,5,0.4,6.7,2.6c0.9,2.5,1.1,5.3-2.4,4.6
			c-6.6-1.3-12.2,0.4-17.7,3.8c-0.4,0.3-0.9,0.4-1.4,0.5c-6.8-0.3-12.7,2.5-18.8,5c-0.3,0.1-0.6,0.2-0.8,0.3c-1.3-1.1-2.6-1.1-4-0.2
			c-1.1-3.7-4.2-5.5-7.2-7.4C214.2,44.5,212.1,43.7,212.2,41z"/>
		<path class="st225" d="M268.1,39c-3.4-1.4-6.3-2.4-9.9,0.6c-1.2,1-6.9,0.5-8.9-0.9c-4.5-3.1-7.9-0.4-11.6,0.5
			c-1.2,0.3-1.4-0.2-1.5-1.2c0.2-0.6,0.3-1.7,0.6-1.8c4.2-0.7,7.4-6.3,12.2-2.2c1-1.1-2.8-3.6,1.5-3.1c3.2,0.4,6.6,0.1,9.8,0.1
			c5.3,2,10.5,1.5,15.8,0c1.3,0,2.6,0,3.9,0c-0.8,4.3,0.6,8.4,1.7,12.4c0.4,1.5,0.3,2.4-0.3,3.6c-0.6,0.6-1.3,0.7-2.1,0.4
			c-1.5-1.4-0.8-3.2-0.7-4.8c-0.2-1.5-0.6-3-2.7-2.5c-2.5,0.6-4.7-0.8-7.1-1C268.5,39,268.3,39,268.1,39z"/>
		<path class="st226" d="M224.1,30.2c2.7-2,5.4-1.4,8.1-0.1c0.1,0.7,0.1,1.4,0.2,2.2c-2,4.6-5.9,1.6-8.9,2.2
			C221.6,32.7,222.9,31.5,224.1,30.2z"/>
		<path class="st227" d="M276,31.1c-3.8,2.4-7.9,2.4-12.2,1.9c-1.6-0.2-2.9-0.3-3.6-2C265.5,31.1,270.7,31.1,276,31.1z"/>
		<path class="st228" d="M223.5,34c3-0.5,6.4,1.2,8.8-1.7c2.9,0.2,1,1.8,0.8,2.9c-3.7-0.3-7.7,2.2-11-1.1
			C222.6,33.6,223,33.5,223.5,34z"/>
		<path class="st229" d="M279.3,46.8c0.7,0.1,1.3,0.2,2,0.3c0.4,0.3,0.8,0.6,1.3,1c-0.1,1.3-0.3,2.7-0.4,4c-7.5,2.6-15.3,1.5-23,1.7
			c-6.7,0.2-13.4-0.8-20.1,0.2c-3.2,0.2-6.5,0.2-9.7,0.8c-2.5,0.5-0.8-1.4-1.4-1.9c3.5-3.9,8.2-5.4,13.3-5.9
			c1.9-0.2,3.9-0.1,5.9-0.2c6.6-2.2,13.6-0.4,20.3-1.7c0.6-0.2,1.1-0.3,1.7-0.4C272.7,44.5,276.3,44.5,279.3,46.8z"/>
		<path class="st99" d="M239.1,54c3.8-2.3,8.1-1.1,12.1-1.2c10.3-0.2,20.7,0.6,31-0.8c0.2,0.3,0.3,0.5,0,0.8
			c-0.2,0.2-0.4,0.6-0.7,0.7c-7.1,1.1-14.6,1.8-21.5,1.6C253.2,55,246.1,54.4,239.1,54z"/>
		<path class="st230" d="M99.2,135.9c-0.3-1-0.7-2-1-3c-3.1-0.5-4.4-1.6-2.6-5c1.3-2.4,1.8-5.3,3.7-7.4c1.6,0.4-0.8,2.6,1.5,2.6
			c1.3-1.4-0.2-3.3,0.2-4.6c3.9-1.1,0.1,10.9,7.2,3.7c1.6-1.1,3.3-1.6,5-0.1c2.6,2.5,3.6,4.7-0.8,6.3c-1.2,0.4-2,1.1-1.1,2.5
			c-2.6,2.1-3.8,5.1-5,8c-0.6,0.6-1.2,0.6-1.9,0.3c-1.5-1.4,0.1-4-1.9-5.3c-0.9,0.5-0.9,1.7-1.9,2.1
			C100.1,136.3,99.6,136.2,99.2,135.9z"/>
		<path class="st231" d="M104.2,139c0.7,0,1.4-0.1,2-0.1c0.7,4,3.9-0.6,5.1,1.5c-7.2,9.1-24.7,8.7-32.4,0.7
			c-1.1-1.2-2.1-2.6-3.8-3.1c-0.3-0.4-0.6-0.7-0.9-1.1c1-1.4,2.2-0.7,2.9,0c1.8,2.2,3,0.5,5-1c-2.2,4.4,0.1,5.8,3.1,6.9
			c0.8-1.1,0.9-3.7,3.3-1.8c-0.2-1.3-2-1.1-2.3-2.3c2.5-3,5.1-0.2,7.6,0c2.7,0.2,4.5-0.2,5.4-2.8c0.3,0,0.7,0,1,0
			C101.9,136.5,102.9,138,104.2,139z"/>
		<path class="st232" d="M67.3,202.8c-3.7,0.3-7.3,0.5-8-4.8c2.1,0.5,3.2,2.6,5.3,2.5c-0.1-0.4,0-0.6-0.1-0.7
			c-0.8-1.5-3.9-1.3-3.1-3.7c0.4-1.2,2.1-1.5,3.5-0.8c2.1,1.1,3.3,2.6,2.8,5.1C67.6,201.3,67.4,202.1,67.3,202.8
			C67.3,202.9,67.3,202.8,67.3,202.8z"/>
		<path class="st233" d="M81.2,127.9c0.8-3,1.5-6,2.6-8.9c1.2-3.2,4.1-1.7,5.7-1c2.6,1-0.3,2-0.6,3.1
			C87.5,124.8,85.2,127.2,81.2,127.9C81.3,127.9,81.2,127.9,81.2,127.9z"/>
		<path class="st233" d="M94.2,126.9c0.3-2.6-5.9-3.4-1.7-7C94.9,121.8,96.9,123.7,94.2,126.9L94.2,126.9z"/>
		<path class="st234" d="M101.4,116.2c-2.4,0.1-4.7-0.7-7,0.2C96.6,114.5,99,114.6,101.4,116.2z"/>
		<path class="st235" d="M113.2,122c-1.7,0-3.3,0.1-5,0.1c1.4-2,3.4-2.7,5.5-1.7C115.4,121.1,114.3,121.8,113.2,122z"/>
		<path class="st236" d="M86.3,138.8c1.2,0.5,2.6,0.8,3.4,1.7c1,1,0.9,2.8-0.4,3.4c-1.9,1-1-1-1.5-1.7c-1.4-2.4-1.6,0.8-2.6,0.7
			C85.4,141.5,84.7,139.8,86.3,138.8z"/>
		<path class="st237" d="M203.2,34c1.8,0.7,2.9,2,3.1,4c1.2,3.9,1.8,7.9,1.4,12c-0.5,3.4-0.5,6.8-1.5,10.1c0,1.5-0.2,3-2.2,3.1
			c-0.6-0.1-1.2-0.3-1.8-0.4c-1.8-2.8,1.3-5.6-0.1-8.4c1.7-0.4,0.6,1.7,2.2,1.5c-0.7-5.9,0.9-11.9-0.9-17.8
			C203.3,36.7,203.2,35.3,203.2,34z"/>
		<path class="st238" d="M198,33c0.2-0.2,0.3-0.5,0.3-0.8c0.9,0.6,1.9,1.2,2.8,1.8c-2.3,1.4-1.4,4.1-2.5,6.3
			C197.6,37.7,198.2,35.3,198,33z"/>
		<path class="st239" d="M206.3,50.1c0-4,0-8.1,0-12.1c0.8,3.3,4.2,1.5,5.9,3c2.4,3.2,6.2,4.5,9.3,6.7c2.1,1.5,2.5,3,1.7,5.2
			c-2.9,2.4-6,4-9.9,3.6c-0.6-0.1-1.1,0.3-1.7-0.3c-2.8-2.8-2.8-2.7-4.3,0.9C205.8,54.9,207.4,52.3,206.3,50.1z"/>
		<path class="st240" d="M206.3,50.1c1.7,2.1,0.5,4.6,1,6.9c-0.3,1,0.1,2.3-1.1,2.9C206.2,56.7,206.2,53.4,206.3,50.1z"/>
		<path class="st241" d="M223.5,34c-0.5,0-0.9,0-1.4,0.1c-2-1.4-0.6-2.9,0.1-4.2c0.6-1.2,1.3,0,1.9,0.3
			C224.1,31.5,222.5,32.5,223.5,34z"/>
		<path class="st242" d="M279.3,46.8c-3.4-0.3-6.8-0.5-10.2-0.8c-4.8-1.2-9.8,0.1-14.6-0.6c4.6,0.6,9.2-0.5,13.7,0.7
			c-7,1.8-14,0.4-21.1,0.7c3.9-3,8.5-4.4,13.3-5.1c1.2-0.2,2.2-0.6,3.3,0.1c3.8,2.6,4.1,0,4.4-2.9l0,0c3.9,1.2,8.3,0.7,12,3
			C279.8,43.6,279.6,45.2,279.3,46.8z"/>
		<path class="st224" d="M280.1,42c-4.1-0.7-8.5-0.2-12-3c0.2-1,0.3-1.8,1.9-1.3c2.1,0.7,4,1.7,6.7,0.6
			C279.4,37.1,279,40.7,280.1,42z"/>
		<path class="st224" d="M268.2,46.1c-5,0-10,0-15,0c5.3-0.5,10.6-2.1,15.9-0.1C268.8,46.1,268.5,46.1,268.2,46.1z"/>
		<path class="st196" d="M104.2,139c-2.2,0.1-3.5-0.9-4-3c1.2-1.3,0.2-3.1,0.6-4.6C104.6,132.9,106.1,135.2,104.2,139z"/>
		<path class="st243" d="M97,145.5c-1-1.2-2.2-2.1-1-3.7c0.4-0.5,1.3-1,1.6-0.4C98.2,142.6,98.1,144,97,145.5z"/>
	</g>
</g>
</svg>
