<?xml version="1.0" encoding="utf-8"?>
<!-- Generator: Adobe Illustrator 25.0.0, SVG Export Plug-In . SVG Version: 6.00 Build 0)  -->
<svg version="1.1" xmlns="http://www.w3.org/2000/svg" xmlns:xlink="http://www.w3.org/1999/xlink" x="0px" y="0px"
	 viewBox="0 0 701 243" style="enable-background:new 0 0 701 243;" xml:space="preserve">
<style type="text/css">
	.st0{display:none;}
	.st1{display:inline;stroke:#FFFFFF;stroke-miterlimit:10;}
	.st2{fill:#755D4B;}
	.st3{fill:#C8CDC9;}
	.st4{fill:#4B4A44;}
	.st5{fill:#9FA29E;}
	.st6{fill:#393936;}
	.st7{fill:#150D09;}
	.st8{fill:#0C0B0A;}
	.st9{fill:#2C2B27;}
	.st10{fill:#3C2C20;}
	.st11{fill:#2E1F16;}
	.st12{fill:#2B1C13;}
	.st13{fill:#1E1F1D;}
	.st14{fill:#1E1E1D;}
	.st15{fill:#0E0D0C;}
	.st16{fill:#100F0D;}
	.st17{fill:#272521;}
	.st18{fill:#201B16;}
	.st19{fill:#221D18;}
	.st20{fill:#161716;}
	.st21{fill:#6A5445;}
	.st22{fill:#65645A;}
	.st23{fill:#504D42;}
	.st24{fill:#5E5B4F;}
	.st25{fill:#3D3A32;}
	.st26{fill:#6C6B61;}
	.st27{fill:#795238;}
	.st28{fill:#4B4A42;}
	.st29{fill:#714E38;}
	.st30{fill:#41413D;}
	.st31{fill:#4E3424;}
	.st32{fill:#2E2C26;}
	.st33{fill:#8E6447;}
	.st34{fill:#33322F;}
	.st35{fill:#A08068;}
	.st36{fill:#513C2C;}
	.st37{fill:#1D1C1A;}
	.st38{fill:#57564E;}
	.st39{fill:#704E38;}
	.st40{fill:#5B5649;}
	.st41{fill:#987054;}
	.st42{fill:#463021;}
	.st43{fill:#664632;}
	.st44{fill:#C9CEC9;}
	.st45{fill:#7B7D76;}
	.st46{fill:#5C5B52;}
	.st47{fill:#4B4C47;}
	.st48{fill:#343431;}
	.st49{fill:#5F6059;}
	.st50{fill:#151513;}
	.st51{fill:#5D5E59;}
	.st52{fill:#28180F;}
	.st53{fill:#3D291C;}
	.st54{fill:#3B2518;}
	.st55{fill:#141412;}
	.st56{fill:#23221E;}
	.st57{fill:#3C281B;}
	.st58{fill:#533C2C;}
	.st59{fill:#755743;}
	.st60{fill:#1F1D19;}
	.st61{fill:#625041;}
	.st62{fill:#8F7561;}
	.st63{fill:#7A614E;}
	.st64{fill:#9D7F69;}
	.st65{fill:#463527;}
	.st66{fill:#515049;}
	.st67{fill:#513A2B;}
	.st68{fill:#5F4939;}
	.st69{fill:#1C110B;}
	.st70{fill:#1D130D;}
	.st71{fill:#674A38;}
	.st72{fill:#503829;}
	.st73{fill:#3F3125;}
	.st74{fill:#503C2D;}
	.st75{fill:#4E3829;}
	.st76{fill:#402C1F;}
	.st77{fill:#553A29;}
	.st78{fill:#282826;}
	.st79{fill:#323230;}
	.st80{fill:#ACB1AB;}
	.st81{fill:#32322F;}
	.st82{fill:#3B3831;}
	.st83{fill:#6A6B63;}
	.st84{fill:#7F817B;}
	.st85{fill:#9B9F99;}
	.st86{fill:#D5D9D5;}
	.st87{fill:#80827A;}
	.st88{fill:#535148;}
	.st89{fill:#2C2A26;}
	.st90{fill:#25231F;}
	.st91{fill:#63625A;}
	.st92{fill:#71726B;}
	.st93{fill:#382418;}
	.st94{fill:#654836;}
	.st95{fill:#494A46;}
	.st96{fill:#262623;}
	.st97{fill:#2E1B11;}
	.st98{fill:#2E2C28;}
	.st99{fill:#533B2B;}
	.st100{fill:#513A2A;}
	.st101{fill:#402D20;}
	.st102{fill:#6B4F3D;}
	.st103{fill:#494A45;}
	.st104{fill:#543D2D;}
</style>
<g id="Camada_2" class="st0">
	<rect x="-17" class="st1" width="744" height="251"/>
</g>
<g id="Camada_1">
	<g>
		<path class="st2" d="M0.2,219.9c2.6-0.5,1.9-2.8,2.2-4.4c1.7-9.3,3.6-18.4,6-27.5c3.2-5.2,3.6-11.3,5.6-16.8
			c3.9-10.7,7.2-21.5,11.1-32.2l0,0c0.5-0.3,1-0.3,1.4,0c2.5,2.7,1.9,5.7,0.5,8.6c-1.4,2.9-2.1,5.8-1.9,8.9
			c-2.8,10.7-4.4,21.7-8.1,32.2c-3,8.6-6.1,17.2-8.4,26c-0.4,1.6-0.8,3.2-2.1,4.4c-0.8,0.9-3.7-1.3-3,2.3c0.3,1.4,0.3,4.7-3.3,3.6
			C0.2,223.3,0.2,221.6,0.2,219.9z"/>
		<path class="st3" d="M684.8,0.9c0-0.3,0-0.5,0.1-0.8c4.3,0,8.7,0.2,13-0.1c2.5-0.1,3.3,0.5,3.1,3.1c-0.2,2.3-0.1,4.7-0.1,7
			c-2,1.8-4.5,1.3-6.8,1.4c-1.8,0-3.5,0-5.3,0c-3.2-0.2-6.5,0.3-9.7-0.5c-1.2-0.7-2.8-1.1-2.1-3.1c5-2.2,10.3-0.6,15.4-1.1
			c2-0.2,4.3,0.9,5.8-1.4c-0.4-4.7-4-2.2-6.2-2.8C689.5,2.2,686.8,3.2,684.8,0.9z"/>
		<path class="st4" d="M0.2,224.9c2.8-0.3,1.8-2.6,2.1-4.1c0.5-2.5,1.7-3.2,3.9-1.9c0.4,0.4,0.8,0.9,1,1.4c0.8,6.7,0.4,7.5-4,8.6
			c-1-0.3-2-0.7-3-1C0.2,226.9,0.2,225.9,0.2,224.9z"/>
		<path class="st5" d="M693.9,10.1c2.3,0,4.7,0,7-0.1c0,8.3,0,16.7,0,25c-0.3-0.4-0.7-0.7-1-1.1c-0.7-0.6-1.1-1.4-1.2-2.3
			c-0.5-5.4-0.2-10.8-0.2-16.2c0.7-3.7-2.9-2.8-4.5-4c-0.2-0.3-0.3-0.5-0.3-0.8C693.7,10.3,693.8,10.1,693.9,10.1z"/>
		<path class="st6" d="M338,82.1c-12.6,2.1-25.4,2.5-38.1,3.8c-7.9,0.8-15.9,1.3-23.8,2c-2.3-5.6-5.7-8.2-12.3-6.2
			c-4.7,1.5-9.2-1.8-13.8-3.1c-2.7-0.8-2.1-5.4,0.8-7.2c1.4-0.9,3.2-1,4.3-3.1c-2.1-0.4-4.3,0.3-6.1-0.9c-1.3-3.3-3.8-6.5-0.6-10
			c1.4-3.8-2.9-1-3.2-2.7c-2.9-3.2-2.3-6.1,0.5-9.1c2.1-2.2,4.3-4,7-5.4c2.1-0.8,4.3-0.7,6.4-0.7c16.5,0,33-0.1,49.5,0
			c7.5,0.5,15.1-0.2,22.6,0.4c0.5,0.1,1,0.3,1.5,0.6c-0.4,4.1,0.6,6.6,5.5,5.5c1.7-0.4,2.6,1.2,3.5,2.4c5.1,6.8,5.8,21.7,1.4,29.1
			C341.9,79.6,340.1,80.9,338,82.1z"/>
		<path class="st7" d="M634.9,39.2c1.7,4.3,0.7,8.7,0.5,13.1c-0.1,2.2-1.7,2.1-3.4,0.5c-2.9-2.9-5.3-2.1-6.6,1.7
			c-3.6,11-7.5,14.3-18.3,14.8c-40.9,1.8-81.8,3.9-122.7,5.9c-29.4,1.4-58.9,2.8-88.3,4.2c-1.2,0.1-2.3,0-3.5-0.1
			c-3.9,0.8-7.9-0.4-11.8,0.7c-1.3,0-2.7,0-4,0.1c-1.2-2.9,0.8-3.7,2.9-3.6c3.9,0.3,7.7-2.3,11.7-0.1c1.9,1.1,1.3-2,2.9-2.5
			c1.4-0.5-0.6-0.6-0.8-0.9c-1.4-1.7-1.4-3.5-0.2-5c1.5-1.9,2.7,0.1,3.7,0.9c3.2,2.5,6.2,2.9,10,0.9c4.9-2.6,10.3-1.7,15.8,0.3
			c0.2,0.1,0.2-1.1-0.1-0.5c0,0.1-0.1,0-0.3-0.1c-2.2-0.4-2.5-1.9-2.1-3.7c0.4-1.8,1.2-2.6,3.5-2.5c5.9,0.3,11.3-3.1,17.4-2.9
			c1.9,0.1,3.2-0.1,3.6,2.1c0.8,4.5,3.7,2.8,6,1.9c3.4-1.2,2.3-3.9,1.7-6.3c-0.4-1.4-2.3-1.9-2.9-3.3c5.2-3.4,8.7-2.7,12,2.1
			c0.8,1.2,1.6,4.2,3.6,0.8c0.6-1,1.3-2.1,2.8-1.3c1.4,1.5,0.4,4.9,3.1,5.2c3.9,0.5,7.8,1.3,11.8,0.6c1.1-0.2,2.1-0.9,3.3-0.9
			c4-0.2,7.9-0.9,11.9-1.1c1.7-0.1,3.1-0.4,3.8-2.5c0.9-2.6,2.7-2.5,3.8-0.2c1.5,3.2,3,3.7,5.5,1.1c1.8-1.8,3.8-1.8,5.8-0.3
			c2,1.6,3.9,1.1,5.8-0.2c3.6-2.4,7-2.8,10.9,0.3c3.2,2.5,7.8,2.5,11.4,1.4c4.6-1.4,9.7-0.3,14-3c0.3-0.2,0.8-0.3,1-0.1
			c4.3,3.8,8.3-0.5,12.4-0.4c1.7,0,4-0.5,4.6-1.5c2.6-4.6,7.3-3,11-4.4c1.2-0.5,2.3-0.4,3.2,0.6c1.1,1.3,0,2.2-0.8,3
			c-1.4,1.4-2.3,3-1,4.9s3,0.6,4.6,0.3c6.9-1.5,13.9-0.6,20.8-0.8c1.6,0,2.6,1.4,4.6,2c-1.8-3.3,2.7-5.8,0.3-9
			c-0.6-0.7-1.2-1.4-1.4-2.3c0.2-2.5-0.9-5.4-2.3-6.3c-4.8-3.3-1.9-4.5,1-6c1.6,0,3,0.6,4,1.7c2.8,3.1,5.6,5.7,10.4,5
			c1.8-0.3,2.6,1.7,2.8,3.4C634.2,44.2,632.7,41.6,634.9,39.2z"/>
		<path class="st8" d="M634.9,39.2c0,2.5,0,5,0,7.5c-1.7,0-1.4-2.6-2.5-2.2c-7.7,2.6-10.1-5.6-15.5-7.4c-6.2,2.2-12.5,2.4-19,2.9
			c-9.8,0.7-19.6-0.4-29.4,0.4c-1.1,0.1-2.2,0.1-3.3,0.1c-2.9-0.1-5.7-0.9-8.6-0.1c-1.7,0.2-3.3,0.1-5,0.1c-1.2,0.1-2.4,0.1-3.6,0
			c-25.2,0.5-50.4-0.1-75.6,0c-2.5,0-5-0.2-7.4,0.6c-7.6,0.7-15.3,0.2-22.9,0.4c-4.1,0.1-8.1-0.1-12.2,0c-11.5,0-23-0.3-34.5,1
			c-0.6,0.1-1.2,0.1-1.9,0c-8.1-0.2-16.2,0-24.2-0.1c-1.2,0.1-2.5,0.1-3.7,0c-10.4,0-20.7,0.3-31.1-0.4c-0.6-0.2-1.1-0.6-1.6-1l0,0
			c-8-0.9-16-0.8-24,0c-17.6,0-35.2,0-52.8,0c-1.4,0-3-0.4-4.2,0.9c-2.2,1.1-4.2,0.8-6.2-0.6c-0.8-0.8-1.3-1.9-1.8-3
			c-2.4-4.4-0.4-8.8,4.6-8.7c8.3,0.1,16.6-1.2,24.8,1.1c0.6,0.2,1.3,0.5,1.9,0.3c10.8-3.2,21.9,0.9,32.8-1c2.2-0.4,3.8,0.8,5.2,2.4
			c2.3,2.7,4.7,2.3,6.9,0.2c2.3-2.2,4.6-2.9,7.7-2.2c3.3,0.8,6.6-0.6,9.8-1.4c2.5,0,4.9,0.4,7.3-0.9c0.7-0.4,1.8-0.7,2.4-0.3
			c5.3,3.1,10,0.6,14.7-1.6c4,1.9,8.4,0,12.5,1.1c1.1,0.3,1.8-0.4,2.3-1.4c2.2-4.6,3.6-2,5.1,0.6c4,3.9,9.2,1.9,13.9,2.7
			c3.5,0.6,7,0.4,8.8,4.4c0.8,1.7,2.7,1.7,4.4,1.8c17.4,0.9,34.9,0.7,52.3-0.7c5-0.4,10,0,14.9-0.1c13.1-0.2,26.3-0.8,39.4-0.3
			c7.5,0.3,15,0.4,22.4-0.6c8.3-1.1,16.6,0.7,24.9-0.2c14.9-1.6,30-0.2,44.9-1.9c1.8-0.2,3.6,0.2,5.5,0.4c0.5,0,1.1,0.1,1.6,0.2
			c3.4,1.7,7.1,2.4,10.8,3.1c1.1,0.6,0.9,1.7,1.2,2.6c0.3,1-1.8,2.3-0.1,2.7c1.6,0.4,4,1.3,5.2-0.7
			C632.8,38.4,633.7,38.9,634.9,39.2z"/>
		<path class="st9" d="M249.1,67c2.8-0.1,5.5,0.4,8.9-1.2c-1.7,3.6-2.6,6.4-6.6,6.5c-1.7,0-1.9,2.6-2,4.1c-0.1,1.6,1.4,1.5,2.6,1.6
			c4.5,0.3,8.3,3.9,13.2,2.5c0.7-0.2,1.6-0.3,2.4-0.2c2,0.3,3.7-3.7,4.9-1.6c1.6,2.7,3.8,5.5,3.7,9.1c-23.1,2-46.1,3.9-69.2,6
			c-1.2,0.1-2.7-0.5-3.5,1.1c-1.8,0.8-2.1-0.8-2.8-1.7c-0.9-2.2-1.4-4.4-0.9-6.8c0.2-1.3,0.7-3.1-0.2-3.9c-5.5-4.7-1.3-9.5-0.3-14.2
			c0.7-3.6,1.4-7.3-0.2-10.7c-1.3-2.8,0.9-4.8,1-7.1c0.3-4.3,0.3-8.6,0.3-12.9c0.2-0.7,0.5-1.3,1.2-1.7c2.1-0.8,4.3-1.8,6.5-0.1
			c0.6,0.3,1.1,0.7,1.6,1.1c0.9,0.7,2.2,1.6,1.6,2.8c-0.7,1.7-2.3,0.7-3.5,0.4c-0.4-0.1-0.9-0.4-1.5,0c3.7,3.5,7.3,7.2,10.1,11.5
			c1,1.5,2.7,1.9,4.2,2.4c1.5,0.6,2.7,1.4,2.3,3.3c-0.5,2.1-2.1,2.4-3.9,1.9c-2.9-0.8-5.7-1.4-6.9,2.6c1.7,0,2.6-2.7,4.6-1.4
			c1.9,1.2,0.9,3,0.9,4.5c0,1.7,0.3,3.4,2.6,3.5c3.6,0.1,4.2,2.7,4.3,5.5c0.2,5.4,0.2,5.4,5.3,2.7c1.3-0.7,2.8-0.9,4.2-1.5
			c0.8-0.3,1.5-0.8,1.5-1.8c0-1.2-0.9-1.7-2-1.6c-1.9,0.1-3.7-0.5-3.6-2.5c0.1-2.6-0.1-5.4,1.7-7.6c0.9-1.1,2.3-0.8,3.2-0.1
			C238.9,64.6,244,65.6,249.1,67z"/>
		<path class="st10" d="M72.1,195c-3,11.3-5.9,22.7-8.9,34c-6.7,3.3-13.1,2.9-18.9-1.7c-2.9-2.3-4.8-2.6-6.1,1.4
			c-0.7,2-2.1,3.4-4.5,3c-0.5-0.1-0.9-0.4-1.3-0.7c-1.1-3.3-3.9-5.6-4.8-9c1-2,1.3-4.1,1.6-6.3c1.9-3.2,1.2-7.5,4.6-10
			c1.3-0.8,2.6,0.8,3.8,0.1c1.8-1.1,4.2-1.4,5.6-3c1.9-2.2-1.6-3.1-1.9-4.9c-0.4-3.1-2.6-5.6-3.2-8.7c0-0.7,0-1.4,0.2-2.1
			c1.2-2.4,1.2-4.7,0.4-7.2c-0.5-1.5-0.3-3,1.4-3.8c2.2-0.9,2.4,1,3.3,2.1c2.2,1.1,4.5,2,7,2.3c4.9,0.5,4.9,0.6,3.3,5.4
			c-0.1,0.4-0.4,0.9,0.2,1.6c2.7-1.8,5.9-1.9,10.2-1.7c-4.9-4.1-1.5-6.2,0.9-8.5c1.9-1.8,2.7-3.9,3-6.5c0.6-5,2.6-9.5,6.3-13.1
			c1.8-1.7,3.7-2.7,4.6,0.8c0.5,2,2.5,2.5,3.8,3.7c-3,8.7-6,17.3-8.9,26C72.9,190.1,71.1,192.1,72.1,195z"/>
		<path class="st11" d="M83,162c-4.7,1.3-4.7-2.3-5.6-5.7c-5,4.4-7.9,9.3-7.9,16c0,3.1-2.7,5.4-5.3,7.2c-2,1.4-1.9,1.7,0.6,2.8
			c1.9,0.9,0.5,1.9,0.3,2.8c-0.3,1.5-0.9,3.3-2.9,2.3c-2.8-1.3-5.1-0.9-7.2,1.1c-0.9,0.8-1.7,1.7-3,0.7c-1.2-1-0.6-2.1,0.1-3.1
			c1.7-2.7,4.1-5.3-2.2-4.4c-2.4,0.3-5.1-1.7-7.7-2.7c2.5-8.9,8.1-16.1,13.4-23.4c4.1-5.2,8.3-10.2,11-16.4c0.7-1.5,1.4-3.5,3.8-3.3
			c1.3,1.4,1.4,3.3,1.9,5.1c1.2,3.6,1,7.8,4.6,9.9c1.4-3.7,4.1-7.1,6.4-10.7c2.7-4.2,2.2-5.2-2.5-5.1c-2.8,0-5.1-1.1-7.4-2.5
			c-1.3-1.4-2.6-1.1-4-0.2c-1.7,1-3.5,2.2-5.5,0.7c-2.4-1.8-0.6-3.9-0.1-5.8c0.2-1,0.3-1.9,0.4-2.9c0-1.5-0.9-2.9-0.9-4.4
			c-0.1-3,1.4-4,3.9-2.3c1.2,0.8,2,1.8,3.2,0.2c0.3-0.4,0.9-0.4,1.4-0.5c1.9-0.3,2.4,1.7,3.9,2.1c0.8-3.3,2.9-0.8,4.4-1.1
			c3.5-1.1,4.3,2.7,6.7,3.7c6,1.9,6,2,4.5,6.4c0.6-4.8,4.7-6.8,9.8-7.5c1-0.1,2-0.5,2.8,0.3c1,1,0.8,2.2,0.2,3.2
			c-1.1,2-2.6,3.8-3.1,6.2c-5,4.5-7.3,11.1-12.5,15.4c-3.4,2.9,0.7,4,1.6,5.8c-2.8,0.6-3.4,3-4.4,5.2C84.8,158.8,83.9,160.4,83,162z
			"/>
		<path class="st12" d="M466,58c0.3,1,1.6,2.6,0.2,3c-1.8,0.5-3.5-0.9-4.7-2.4c-3.6-4.7-3.6-4.8-11.6-4.4c6.8,1.9,5.1,6.8,4.2,10.1
			c-0.6,2.2-4.9,1.7-7.6,2.4c-1.9,0.5-2.8-1.6-2.5-3.4c0.4-3-1.2-1.6-2.6-1.5c-4.2,0.1-8.5-0.9-11.6,3.2c-0.1,0.1-0.2,0.3-0.3,0.4
			c-1.7-3.2-4.4,1.3-6.2-0.8c-1-1.1-1.2-0.6-1.4,0.4c-0.2,0.9-1.1,1.8-0.4,2.8c1.3,1.7,2.7-0.6,4.1,0.1c0.6,2.1-1.4,3-2.5,2.7
			c-6.8-1.6-13.3-1.4-19.9,1.5c-3.9,1.7-6.1-2.3-8.9-4c-0.7,2.5-0.8,2.6,1.9,3.4c1,0.3,1,1.2,1.4,1.9c1.4,2.9-5.2-1.5-3,3.3
			c0.7,1.6-2.8,1.1-4.6,0.2c-2.7-1.3-11.9,0.8-13.1,2.9c-10.3,1.1-20.6,1.8-30.9,1.2c-0.7-1.6,0.5-2.2,1.6-2.8
			c5.8-1,11.3-2.7,17.5-1.7c3.9,0.7,8-2.9,11.4-1.8c0.8,0,0.5,0,0.2,0c-1.4-0.2-3.5,0.4-3.6-1.6c-0.1-1.5,1.9-1.4,3.2-1.7
			c0.8-0.2,1.6-0.3,2.4-0.5c2.1-0.5,4.2-0.5,6.1-0.3c-1.2-4.8-8.3-4.3-9.2-9.8c0.9-2.5,5.4-3,3.8-7.2c-0.2-0.6,2.4-0.6,3.7,0.5
			s1.1,3,2.1,4.3c2-0.8,3.6-2.5,6-2.1c1.7,3,4,4.6,7.6,3.1c0.9-0.4,2.3-0.6,2.9,0.1c4.9,5.8,6.5,0,9.2-2.4c-1.4-0.8-2.8-1.2-3.7-2.5
			c-1.4-2.3-5.2-2.9-6.4-0.6c-2.8,5.2-3.4,1.9-4.3-0.9c-0.3-0.9-0.8-1.8-0.8-2.9c1.1-2.6,3.5-2.2,5.6-2.2c3.5,0.1,7,0.3,10.4-0.6
			c5.7-1.1,11.3,1,17,0.4c1.8-0.2,3.6-0.1,5-1.4c0.4-0.2,0.9-0.3,1.3-0.2c1.5,2.2,4.7,1.3,6.3,3.2c0.1,2.1-1.1,2.9-2.9,3.3
			c-1,0.2-1.3,0.8-1.3,1.7c0,0.9,0.6,1.5,1.4,1.8c1,0.3,2,0.3,2.6-0.8c1.1-2,2-4.2,2.3-6.5c2.3-1.3,4.9,0.7,7-0.6
			c-1.2-0.5-3.8,1.5-4.1-1.1c-0.4-2.7,2.3-2.9,4.2-2.9c7.4,0,14.8-0.4,22.2,0.2c3,1.4,1.7,4,1.4,6c-0.3,1.7-2.1,2-3.9,2
			C466.9,53.1,464.8,54.4,466,58z"/>
		<path class="st13" d="M626.7,38.1c-0.7-0.5-0.8-1.2-0.8-2c-3.5-1.4-7.3-2-11-3c-0.3,0-0.7,0-1,0c-1.4-0.3-3.5-0.1-3.2-2.2
			c0.2-1.9,2.1-1.9,3.6-1.7c9.1,0.9,18.1-2.5,27.2,0.1c1.5,0.4,2.9-0.3,4.3-1c2.5-1.3,5-1.6,7.6-0.4c3,1.5,5.7,0.6,8.4-0.9
			c-7.6-3.3-15.3-1.5-23-1.5c-2.2,0-4.4,0.4-6-1.5c0-3,1.5-4.1,4.5-4.1c4.3,0,9,2.1,12.9-1.5c16.6,4.3,32.2-1.9,48.1-4.7
			c0.5,0,1,0.1,1.4,0.5c0.2,6,0.5,12-0.1,17.9c-1.1,1.4-2.6,1.9-4.3,2c-21.8,1.1-43.7,1-64.1,1.6c3,0.4,7.6-0.9,12,0.6
			c-4,0.2-8.1,0.4-12.1,0.7C629.6,37.1,627.8,36.1,626.7,38.1z"/>
		<path class="st14" d="M89.9,152c-2.7,0.4-4-2-4.8-3.5s1.7-3.3,3.1-3.8c4.3-1.5,3.3-6.6,6.4-8.8c2-1.4,3.7-3.3,5.5-4.9
			c2.6-3.8,7.6-3,10.8-5.6c0.6-0.4,1.5,0.4,1.8,1.3c-0.2,3.6,1.6,6.2,4.1,8.6c7.4,7.1,16.7,9,26.4,10.2c16.4,2,32.7,1,49-1.7
			c4.9-0.8,8.8-3.7,13.4-5.2c1.5-0.2,2.9-0.4,4.2-1.2s2.5-0.9,3.3,0.7c-3.6,5.4-9.5,8.4-15.1,9.7c-22.9,5.2-46,6.1-69,0.4
			c-7.2-1.8-12.9-5.9-17.6-11.4c-2.8-3.2-4.8-3.9-8.1-0.3C98.7,141.5,93.8,146.3,89.9,152z"/>
		<path class="st15" d="M213.2,138c-1.3-0.8-2.3-0.6-3.3,0.6c-0.7,0.8-1.6,1.8-2.8,0.6c0.7-3.2,3.2-5.3,5.2-7.7
			c5-6.3,5.5-13.2,3.5-20.6c-1.9-7.4-7.9-9.6-14.4-11.1c-5.1-0.7-10.2-0.8-15.3,0.2c-7.1,1.4-14.4,2.1-21.5,3.5
			c-1.9,0.4-3.9,0.9-5.8-0.4c-2.6-2-2-3.8,0.3-5.6s4.9-2.5,7.8-2.7c9.7-0.7,19.4-2.1,29.2-2.3c1.7-0.4,3.4-0.5,5,0.5
			c0.9,0.4,0.9,2,2.2,1.9C224.1,101.2,229,122.5,213.2,138z"/>
		<path class="st16" d="M61.1,236.9c-0.4,3.6-3.5,5.9-7.6,4.9c-14.1-3.4-28.5-5.6-42.5-9.7c-1.6-1.4-3.7-2.7-2.5-5.2
			c1.3-2.8,3.7-1.6,5.6-1c6.3,1.8,12.5,3.9,19,5l0,0c6.3,1.4,12.7,1.7,19,2.8C55.2,234.3,58.9,233.7,61.1,236.9z"/>
		<path class="st17" d="M348.1,79c-1,0.4-1.7,1.1-2,2.2c-2.6,1.2-5.3,0.9-8.1,0.8c8.2-10.2,9.2-23.6,2.5-33.1
			c-0.9-1.3-1.3-3.1-3.6-1.3c-0.7,0.6-2.5,0.1-3.7-0.3c-1.5-0.5-2.2-2-2.7-3.4c-0.9-2.4,2.1-1.5,2.5-2.9c0.4,0.1,0.8,0.1,1.2,0.2
			c0.4,0.3,0.8,0.8,1.3,0.7c6.1-1.3,9.6,2.2,12.6,6.7c3.3,4.8,1.4,10.2,1.5,15.5c2-0.8,1-4.4,3.2-3.7c2.1,0.7,1.4,3.4,1.4,5.4
			C354.3,71.1,352.8,75.8,348.1,79z"/>
		<path class="st18" d="M61.1,236.9c-8-2.3-16.3-2.7-24.4-4c-1.6-0.2-2.9-0.5-3.6-2.1c3.6,0.5,3.7-2.4,4.9-4.5
			c0.8-1.4,1.2-4.9,3.9-2.1c6.2,6.2,13.5,6,21.3,4.8C63.1,231.8,62.8,234.6,61.1,236.9z"/>
		<path class="st10" d="M3.2,228.9c4.4-1.8,2.5-5.8,3.1-9c2.4-4.7,5.9-8.8,7.9-13.8c0.6-1.4,1.5-2.9,3.2-2.5
			c1.9,0.4,1.9,2.2,1.6,3.7c-0.4,2.6,0,5,0.9,7.3c0.2,4.2,3.5,5.6,6.6,7.3c0.6,3.1-1.2,3.7-3.7,3.6c-2-0.1-3.8-1.1-5.7-1.7
			c-4.7-1.6-7.4-0.2-9,4.6c-0.4,1.2-0.8,2.1-2,2.6C4.7,230.9,4,229.8,3.2,228.9z"/>
		<path class="st19" d="M6.1,230.9c0.3-0.6,0.6-1.2,0.8-1.8c2.2-7.9,4.8-8.9,12.2-6c2,0.8,5.6,4.2,7-1.2c0.7-0.5,1.3-0.5,1.9,0
			c3,2.3,4.4,5.4,5,8.9c-6.7,1.6-12.4-2.8-18.7-3.4c-1.6-0.2-3.3-2.7-4.8-0.7c-1.6,2,0.9,3.5,1.5,5.3C9.3,232.2,7.6,231.9,6.1,230.9
			z"/>
		<path class="st20" d="M643.2,36.2c-5.1,0-10.2,0-15.3,0c0-0.4,0-0.8,0-1.2c5,0,9.9-0.1,14.9,0c3.9,0.1,7.8,0,11.1-1.8
			c2.1-1.2,3,0.8,4.5,0.8c13.8,0,27.5,0.6,41.2-1.9c0.1,0.6,0.1,1.3,0.2,1.9c-6.7,2.3-13.7,1.1-20.6,1.2c-6.4,1-13-0.3-19.4,0.7
			C654.4,36,648.8,36.1,643.2,36.2z"/>
		<path class="st13" d="M659.9,35.9c6.4-1.8,12.9-0.6,19.4-0.7C672.9,36.3,666.4,35.9,659.9,35.9z"/>
		<path class="st21" d="M72.1,195c-2-2.4-1.6-3.7,2-7C74,190.5,73.2,192.7,72.1,195z"/>
		<path class="st12" d="M381,79.9c3.8-1.8,7.8-0.9,11.8-0.7C388.9,80.3,385,80,381,79.9z"/>
		<path class="st22" d="M699.9,5.1c0.5,2.8-1.4,2.7-3.3,2.8C690.1,8,683.5,8.1,677,8.3c-2.9,1.7-6.1,2.3-9.4,1.8
			c-9.2-1.2-18.5-0.5-27.7-0.7c-6.8-0.1-13.6,0-20.3,0.1c-2.2,0-4.3,0-6.4,0.7c-3.9,0.7-7.8,0.3-11.7,0.3
			c-8.2,0.7-16.5-0.3-24.8,0.2c-2.6,0.2-5.2-0.7-7.5-2.3c-0.9-0.8-0.9-1.9-2.9-2.4c-12.5-3-25-0.6-37.5-1.5c-1.5-0.1-3-0.1-4.1-1.5
			c10.9-1.2,21.9-0.6,32.8-0.7c42.4-0.5,84.9-0.9,127.3-1.4c2.7,0.1,5.4,0.3,8,0.4c-0.2,3.2-2.7,2.8-4.7,2.9
			c-3.2,0.2-6.5-0.1-9.6,1.4c6.1-1.5,12.5,0.7,18.6-1.2C698.1,4.1,699.1,4.3,699.9,5.1z"/>
		<path class="st23" d="M341.1,5c15.3-1,30.6-0.7,46-0.8c1.2,0.6,2.6,0.3,3.8,0.3c9.4,0.2,10.5,1.5,9.6,11.5c-1,1.3-2.1,2.2-3.7,0.6
			c-0.2-2.2-0.6-3.9-3.6-2.9c-2.2,0.8-4.6-0.2-6.9,0.4c-0.7,0.2-1.9,0-1,1.4c3.2,4.7-0.9,3.9-3.3,4.4c-2.5-0.3-5.1,0.1-7.5-1
			c-6.7-3.2-13.5-1.5-20.3-0.3c-3.5,1.4-6.9-0.1-10.3-0.1c-3.1-1.1-5.4-2.7-4-6.5c0.2-0.5,0.7-0.5-0.1-1.3
			C335.8,7.6,336,7.3,341.1,5z"/>
		<path class="st24" d="M524.7,3c11.6,0,23.1,0,34.7,0.2c1.7,0,4.5-1.8,5,2c0,0.1,1.1,0.3,1.1,0.2c0.8-1.6,1.8-3.1,3.7-1.7
			c1.7,1.3,0.2,3-0.1,4.6c-0.2,0.1-0.4,0.2-0.7,0.3c-5-0.6-10.3,0.4-15.2-1.5c-0.6-0.2-1.3-0.2-2,0.1c-7.7,2.5-15.5,2-23.3,1.4
			c-2.3-0.2-3.9,1.8-5.9,2.4c-1,0.3-1.9,0.5-2.9,0.5c-0.8,0.1-1.5,0-2.3,0c-2.1-0.2-4.2-0.6-6.2,0c-14.9,0.6-29.7,1.6-44.6,1.2
			c-4-0.1-8,0.7-11.9-0.9c-2-1.8-2.5-3.9-1.3-6.3c1.2-2.3,3.4-1.7,5.3-1.8c9-0.3,17.9,0.6,26.9-0.4C498.2,3.1,511.5,3,524.7,3z"/>
		<path class="st25" d="M341.1,5c-0.6,1.8-8.3,3.7,0.1,5.3c0.7,0.1,1.4,0.5,0.7,1.7c-1.8,3.6-1.8,3.6,2.1,6c0.4,2.4-1.1,3.1-2.9,3.6
			c-5-4.2-10.5-2.9-16.2-1.8c-5.3,1-11,3.3-15.3-2.5c-1.6-0.3,2.9-2-0.5-2c-1.8,0-3.4-1.1-5.2-1.4c-1-0.2-2.4-0.6-2.2-1.6
			c1-4-1.6-3.6-4.1-3.8c-1-0.1-1.8-0.9-1.6-2.1c0.2-1,1.4-0.7,2-1.1C312.4,5,326.7,4.4,341.1,5z"/>
		<path class="st25" d="M247.1,6.1c2.9-0.6,5.8-0.4,8.7-0.1c11-0.8,21.9-0.5,32.9-0.1c2.9,0.1,6.2,2.3,8.8,4.2
			c2.3,1.8,1,3.6-1.4,4.3c-2.5,0.8-5.4,0.5-7.2,2.9c-1.8,2.6-3.7,2.9-5.9,0.5c-0.2-0.6,0.3-1.4-0.1-1.8c-0.8-0.8-1,0.3-1.3,0.7
			c-0.6,0.7-1,1.6-2.1,1.7c-8.2,0.7-16.3-2.1-24.6-1.2c-1.6,0.2-3.7,0.1-4-2.1c-0.2-1.6,1.2-2,2.6-1.9
			C246.4,12.9,245.1,11.4,247.1,6.1z"/>
		<path class="st26" d="M485,3.2c-5.3,1.9-10.7,0.8-16.1,0.9c-3.3,0.1-6.6,0-9.9,0c-6,0-6.6,0.9-4.9,6.9c-1.8,1.8-3.9,1.5-6.1,1
			c-4.8-4.4-13-4.7-16.5-0.5c-2.9,1.1-5.6,3.4-8.8,0.9c-2.2-3.2-7.5-5.6-10.5-3.9c-1.8,1-3,0-4.4-0.1c2.2,2.5,6.5-0.7,8,3.3
			c0,1.4-0.3,2.8-0.3,4.1c-2.1,3.5-4.9,4.4-9,2.3c-2.1-1.1-4.3-1.4-6.4-2.1c-0.7-3.5-0.3-8.4-2.4-10.3c-2.2-2-7.1,0.2-10.6-1.5
			c12.3-0.1,24.5-0.1,36.8-0.4C444.2,3.4,464.6,2.9,485,3.2z"/>
		<path class="st27" d="M33,122.8c7.3-14.7,17.4-27.4,27.9-39.9c0.6-0.3,1.3-0.5,2-0.3c2.1,3.2,1.4,5.9-0.9,9
			c-6.5,8.6-12.7,17.3-18.9,26.1c-0.2,0.4-0.5,0.8-0.8,1.1c-1.6,1.8-3.5,3.4-4.3,5.9c-0.4,1.4-1.5,2.1-3,2c-0.5-0.1-1-0.3-1.4-0.5
			C32.6,125.2,32.3,124.1,33,122.8z"/>
		<path class="st25" d="M211.1,12c3.2-1,6.8-0.7,9.9-2.2c2.5,1.5,4.7,3.4,8.1,1.9c1.7-0.7,3,0.9,4.1,2.1c-1.4-2-4.3-3.5-2.1-6.7
			c0.3,0,0.7-0.1,1-0.1c1.5,1,1.9,3,3.9,4c0.7-1.6-1.4-3.4,0.1-4.8c2.7,0,5.3-0.1,8-0.1c2,1.7,2,3.7,0.9,5.8
			c-1.3,1.9-1.6,4.1-1.3,6.4c-0.2,1.4-0.3,2.8-0.3,4.2c-0.1,1.5-0.2,3-1.6,4c-3.8,1-5.2-0.3-3.6-4c0.5-1.3,0.2-2.6,0.4-3.3
			c0.2,1.5,0,3.7-1.5,4.8c-1.8,1.3-3.8-0.2-5.5-0.9c-2.3-1-4.2-2.6-6.1-4.1c-0.4-0.9-0.9-1.1-1.6-0.4c-0.7,0.2-1.4,0-1.9-0.4
			c-2.5-4.2-7-4-10.9-5C210.7,12.8,210.7,12.4,211.1,12z"/>
		<path class="st28" d="M288.1,17.1c0.7-3.9,3.9-3.3,6.5-3.6c1.4-0.2,2.9,0.1,3-1.6c0.1-1.3-1.4-1.7-2.4-2.1
			c-1.8-0.9-6.3,2.4-5.1-3.3c-1.1-0.1-2.2-0.3-3.4-0.3c-10.3-0.1-20.6-0.1-30.9-0.2c6.9-1.3,13.9-0.4,20.8-0.6
			c7.1-0.3,14.3-0.1,21.4-0.1c-0.3,0.7-1.6,0.9-1.2,1.8c0.4,0.9,1.3,0.7,2.2,0.6c5.7-0.6,5.7-0.5,3.4,4.8c2.9-0.1,5.3,1.3,7.8,2.2
			c2.4,0.9-0.1,1.6-0.2,2.4c-2,1.9-4.5,0.8-6.6,0.9c-4.1,0.3-8.3,0.9-12.5,0.5C289.7,18.4,288.6,18.4,288.1,17.1z"/>
		<path class="st29" d="M145.2,34.9c2.3-0.6,4.6-1.2,6.9-1.8c2.4-2.9,6.2-2.5,9.2-3.9c6-1.2,11.5-4.2,17.7-4.3
			c1.8,0.5,4.3,0.4,2.5,3.5c-2,1.4-4.2,2.1-6.5,2.8c-9.9,1.7-19.8,3-28.3,9.5c-3,2.3-7.4,3.1-11,5c-1.6,0.9-3.2,1.5-4.7,2.7
			c-3,2.7-7.4,2.6-11.2,0c-0.1-1.2,0.6-1.8,1.6-2.3c4-0.9,6.9-4,10.5-5.8c1.3-0.6,2.6-1.2,3.9-1.6C139.3,38.4,141.8,35.6,145.2,34.9
			z"/>
		<path class="st30" d="M211.1,12c0,0.4,0,0.7,0,1.1c-0.3,4.8-0.5,5-4.2,2.7c-2-1.3-3.5-0.2-5.1,0.5c-2.2,1.1-3.6,3.5-6,4.3
			c-4.8,0.7-9.6,1-14.2,2.9c-2.9,1.1-5.4-0.9-8.3-0.5c-4.3,0.5-8.6,1.1-12.9,1.1c-0.5-0.1-1-0.3-1.5-0.5c-1.4-1.2-3.1-2.3-1.8-4.6
			c5.5,3.4,11,2,16.7,0.6c10.4-2.6,20.9-4.9,31.4-7.3C207.1,11.9,209.1,12.1,211.1,12z"/>
		<path class="st31" d="M122.1,47c-0.8,0-1.6,0.2-2,1c-7.5,6.6-15.6,12-26.2,12.1c-1-2.3,0.5-4,2.2-4.3c3.2-0.5,3.5-3.2,4.9-5.1
			c0.4-0.8,1.1-0.8,1.8-0.9c3.9-1.9,8.1-2.8,11.9-4.9c1.6-0.8,3.3-1.5,4.3-3.1c0.8-0.9,1.9-0.9,2.9-0.9c1.9-0.6,2.9,0.6,3.2,2.1
			C125.6,45.3,123.4,45.9,122.1,47z"/>
		<path class="st32" d="M244.1,12c0.7-2,0.6-3.9,0-5.8c1,0,2,0,3-0.1c-1.5,6.9,4.2,5.9,8.9,6.7c-1.7,1.8-3.7,0.7-4.4,2.2
			c0.7,1.7,2.3,1.3,3.4,1c7.8-2,15.4,2.7,23.2,0.8c0.6-0.1,1.4,0.8,2.1,1.2c0.3,0,0.5,0,0.8,0c0.1,0.2,0.2,0.5,0.2,0.7
			c-2.8,4-6.4,4.8-13.1,3.1c-4.6-1.2-9.3-2-14.1-1.6c-3.6,0.3-6.5-0.9-8.4-4.2C245,14.7,244.2,13.5,244.1,12z"/>
		<path class="st33" d="M63.2,83.1c-0.8-0.1-1.5-0.1-2.3-0.2c3.7-6.5,9-11.3,15.1-15.5c6.7-4.6,12.3-10.6,20-13.8
			c1.1,1.4-0.1,2-0.9,2.8c-3.2,3.1-6.9,5.6-10,8.8c-1.5,1.4-2.9,2.8-4.3,4.2c-1.1,1.1-2.2,2.2-3.4,3.3c-3.2,2.1-5.7,5.1-8.6,7.6
			C67.2,81.7,65.7,83.5,63.2,83.1z"/>
		<path class="st34" d="M157.1,19.1c-0.2,1.8,1.4,2.6,2,4c0.3,3,1.1,6.2-3.3,7c-4,0.7-8.7-2.1-9.6-6c-0.3-1.3-0.1-2.6-0.2-4
			C149.4,15.8,153.1,16.2,157.1,19.1z"/>
		<path class="st35" d="M25,138.9c-2.7,11.9-6.9,23.3-10.8,34.8c-1.7,4.9-1.6,10.5-5.9,14.3C11.6,170.8,17.8,154.7,25,138.9z"/>
		<path class="st36" d="M122.1,47c1.4-2.1,4.3-4.2-0.2-6.1c0.5-1.4,1.4-2.4,3-2c3.1,0.7,4.7-1.7,6.8-3.1c0.7-0.4,1.6-1.5,1.9-1.4
			c3.9,2.2,7.9-1.2,11.7,0.4c-2.4,2.9-5.7,4.2-9.1,5.1c-2-2.1-2.8,0-4,1.1C129,43.4,126.1,46.2,122.1,47z"/>
		<path class="st37" d="M146.1,20.1c1.8,1.8,0.8,4.6,2.9,6.6c2.4,2.4,4.9,2.5,7.6,2c2.8-0.5,0.9-3.1,1.7-4.5
			c0.2-0.4,0.6-0.8,0.9-1.2l0,0c2.4,1.9,5.6,3.5,2,7.1c-2.8,1.8-6,2-9,2.9c-1.9-2-3.9-3.8-5.6-6C144.8,25,143.9,22.5,146.1,20.1z"/>
		<path class="st38" d="M231.1,7.2c-0.6,4.1,3.7,5.8,4.7,9.2c-2.2,0.6-2.5-1.1-3.1-2.1c-1-1.7-2.9-2.4-4.1-1.5
			c-4.5,3.2-5.7-0.5-7.5-3.1C224,7.6,227.7,7.8,231.1,7.2z"/>
		<path class="st39" d="M84.1,65c3-4.8,8.9-6.5,11.9-11.3c1.7-1,3.4-1.9,5-2.9c-0.3,2.9-1.2,5.2-4.3,6.1c-1.5,0.4-2.6,1.4-2.5,3.2
			c1.2,2.1-0.1,2.9-1.8,3.4c-1.2,0.3-2.3,0.9-3.4,1.5C87.3,65.6,85.7,66.5,84.1,65z"/>
		<path class="st39" d="M119,41.9c-1.4,5.3-6.9,4.7-10.5,6.9c-0.9,0.6-3.6,1.8-5.7,1.1C107.7,46.1,113.5,44.2,119,41.9z"/>
		<path class="st40" d="M236.1,6.2c0.2,0.8,0.5,1.5,0.7,2.3c0.3,1.3,2.2,2.8,0.6,3.8c-1.8,1.1-3.4-0.3-4.2-2.1
			c-0.5-1-0.8-2.1-1.1-3.2C233.3,6.1,234.6,6,236.1,6.2z"/>
		<path class="st41" d="M33,122.8c0.4,1.1,0.8,2.2,1.2,3.2c0.1,3.2-2.1,4-4.7,4.3c-0.2-0.1-0.4-0.3-0.6-0.4
			C29.8,127.3,31,124.8,33,122.8z"/>
		<path class="st35" d="M26.1,139c-0.4,0-0.7-0.1-1.1-0.1c0.8-3.2,2.1-6.2,3.8-9c0.2,0.1,0.4,0.1,0.6,0.2
			C30.4,133.8,29.4,136.8,26.1,139z"/>
		<path class="st42" d="M19.1,214.9c-1.6-2.2-2.5-4.6-1.4-7.4c0.4-1,0.9-2.5-0.5-3c-1.5-0.5-1.6,1.1-2.1,2.1
			c-2.1,5-4.4,9.9-8.9,13.2c0-0.3-0.1-0.7-0.1-1c3-13.5,8.5-26.1,12.2-39.4c2.1-7.8,3.9-15.7,5.8-23.6c0.8-7.6,6.2-13.7,6.9-21.4
			c4.6-2,4.7-7.3,7.7-10.5c1.5-1.7,2.3-4,3.4-6.1l0,0c1.1-0.9,1.9-2.6,3.7-2c1.3,0.5,1.4,2,0.9,3c-2.2,4-1.7,7,3.4,7.9
			c0.2-2.1,2.1-4.2,3.3-6.6c2.1-4.1,3.8-0.4,5.5,1c1.4,2.4,4.4,1.4,6.3,2.7c-0.2,1.7,0.4,3.6-0.8,5.2c-0.7,0.9-1.4,1.9-0.3,3
			c1.2,1.1,2.3,0.7,3.5-0.1c1.4-0.9,2.7-1.9,4.3-2.3c2.4-0.7,1.8,0.9,1.3,2.2c-0.3,1.8-1.1,3.3-3,4c-4.1,5.5-6.2,12.3-11.1,17.3
			c-0.9,0.9-1.9,1.8-2.8,2.7c-4,0.4-4.9-2.5-6-6.5c-0.1,3.5-1.6,4.6-3.9,5.2c-3.5,0.9-4.6,3.4-2.8,6.4c1.6,2.7,1.2,4.6-1.1,6.5
			c-2.4,1.9-3.2,4.4-3.4,7.4c-0.3,3.6-1.6,6.8-4.9,8.7c-1.2,0.7-2.3,1.5-2.2,3c0.2,2.4-1,3.5-3.1,4.3c-2.8,1-3,3.7-3.3,6.2
			c-0.5,4.4-0.2,9-1.9,13.2C22.8,212.5,22.3,215.2,19.1,214.9z"/>
		<path class="st43" d="M31.2,135c0.6,8-4.7,14-7,21c-1.1-2.8-0.2-5.3,1.2-7.7c1.7-3,2.2-6.1,0.8-9.3c1.6-2.8,2.5-5.8,3.4-8.9
			c1.7-1.2,3.8-2,4.7-4.1c0.3,0,0.7,0,1,0C36.6,130.2,34.4,132.8,31.2,135z"/>
		<path class="st44" d="M668.1,8.9c3,0.6,5.8-1.7,8.9-0.7c0.7,0.6,1.3,1.2,2,1.8c-2.4,2.4-5.8,0.8-8.5,2.2
			c-12.9,0.5-25.9,0.5-38.8,0c-7.8-0.3-15.5,1.6-23.3,1.3c-2.7-0.1-5.3-0.1-7.7-1.5c-1.4-1.1-0.9-2.1,0.3-2.9c4,0,7.9,0,11.9-0.1
			c9.6-1,19.2-0.4,28.8-0.4C650.5,8.5,659.3,8.1,668.1,8.9z"/>
		<path class="st45" d="M599.9,11.1c8.4,2.3,16.8,0.4,25.2,0.1c10.6-0.4,21.2,0.2,31.7,0c4.7-0.1,9.3-0.2,14-0.2
			c6-1,12.1,0.4,18.1-0.7c1.6,0,3.3,0,4.9-0.1c0,0.3,0.1,0.6,0.1,0.9c-1.2,2-3.2,2.4-5.2,2.3c-11.8-0.2-23.5,1.6-35.3,0.9
			c-9.2-0.4-18.5-1.3-27.7-0.2c-4.8,0.6-9.7-0.3-14.4,0.8c-0.8,0.2-1.6,0.2-2.4,0.1c-2.9-1.1-6.5,0.3-8.9-2.4
			C599.6,12.1,599.6,11.6,599.9,11.1z"/>
		<path class="st46" d="M699.9,5.1c-6.8,2.4-13.9,0.7-20.8,2c-1.3,0.2-3.2,0.3-3.4-1.2c-0.2-1.8,1.4-1.8,3.1-2.1
			c3.1-0.6,6.2-0.6,9.4-0.6c1.8,0,3.7,0.2,4.8-1.8C695.5,2.1,700.7-1.9,699.9,5.1z"/>
		<path class="st5" d="M689,10.2c-6,1.7-12.1,0.6-18.1,0.7c2.5-1.8,5.4-0.2,8.1-0.9C682.3,10.1,685.6,10.2,689,10.2z"/>
		<path class="st47" d="M652.9,13.1c11.9-0.4,23.8-0.7,35.6-1.1c1.8-0.1,3.6-0.6,5.4-0.9c2,0.9,6.1-2.1,5.9,3.1h-0.4H699
			c-14.2,3.3-28.6,2.2-42.9,1.2c-1-0.1-2-0.3-2.8-0.8C652.7,14.1,652.6,13.6,652.9,13.1z"/>
		<path class="st48" d="M249.1,67c-5,0.5-9.4-0.4-13.4-3.8c-1.6-1.4-5.4-3.8-4.2,2.1c0.2,0.8-0.7,1.8-0.9,2.8
			c-0.4,1.9,0.2,3.2,2.3,2c3-1.8,3.5,0.7,4,2.4c0.6,2.1-0.3,3.2-2.7,3.7c-2.1,0.5-4.5,0.4-5.8,3.1c-0.7,1.4-3,0.9-4.6,0.4
			c-1.2-0.4-0.7-1.6-1-2.4c-0.8-2.8,3.9-9.9-5.1-7.2c-0.1,0-2.4-3.6-2-5.9c0.2-1.1,2.1-2.3,0.3-3.3c-1.4-0.8-1.6,1.2-2.5,1.8
			c-1,0.6-1.9,1.4-3.2,1.2c1.4-7.4,1.4-7.4,8.9-5.7c1.1,0.2,2,0.6,2.5-0.7c0.6-1.4-0.1-2.4-1.5-2.4c-5.4,0.2-6.2-5.1-9-7.9
			c-1.9-1.9-3.4-4.6-5.9-5.8c-1.8-0.9-1.7-1.7-1.1-3c0.8-1.9,1.7-0.7,2.7-0.1c1.1,0.6,2.2,1.1,3.8,1.8c-0.8-2.3-3.2-2.2-3.6-4
			c0.2-0.2,0.3-0.3,0.5-0.5c4.5-1,9.1-1.3,13.2-4.1c2.4-1.6,5.1,0.6,4.7,3.5c-0.7,5.9-0.7,6.4,5.2,7c4.1,0.4,8.5,1.4,12.6-0.8
			c0.9-0.3,1.8-0.7,2.8-0.1c2,0.3,4,0.6,6,1c-2.7,1.2-4.3,3.7-6.4,5.6c-3.1,2.6,0,5,0.4,7.4c1.2,0.9,2.2,1.9,3,3.1
			C246.6,61,250.1,64,249.1,67z"/>
		<path class="st49" d="M323,73.1c-1.9-3,0.1-5,1.8-6.9c1.7-2,4.4-1.4,6.5-0.8c3.3,1,2.7,4.1,2.8,6.6c-0.5,2.7-2.1,4.5-4.9,4.4
			C326.8,76.3,323.7,76.7,323,73.1z"/>
		<path class="st50" d="M323,73.1c5.2,4.2,7.3,4,11.1-1c1.5-0.9,0.5-2.8,1.5-4.1c1.7,3.9-0.5,6.2-3.1,8c-2.8,2-5.9,1.3-8.8-0.3
			C322.6,75.2,321.5,74.3,323,73.1z"/>
		<path class="st17" d="M309,41c8-1.5,16-1.6,24,0C325,41.1,317,41,309,41z"/>
		<path class="st51" d="M249,58c-2-0.1-2.9-1.1-3-3.1c1.5-0.1,3-2.4,4.4-0.7C251.7,55.8,249.6,56.8,249,58z"/>
		<path class="st52" d="M567.9,39.1c3.9-1,8-1,11.9-0.5c3.8,0.5,7.6,0.5,11.3,0.3c8.6-0.5,17.2-1.2,25.7-1.9
			c-1.6,2.2-1.6,2.2,1.1,3.5c1.2,0.6,1.1,1.8,0.7,2.6c-1.6,3.2,0.7,3.4,2.8,3.6c-0.3,1.7-2.2,1.1-2.6,2.3c-2.2,1.9-4.5,1.2-6.4-0.1
			c-3-2-5.6-4.6-9.5-5c-3.6-0.4-7.1-1.4-10.5-1.5c0.6,0.2,1.3,0.8,2.1,0.8c4.1-0.1,8.1-0.6,7.8,5.8c-0.1,2.6,2.2,5.2,5.5,5.7
			c3.6,0.5,7.3,1.2,10.2-1.9c0.9-1,1.4-2.3,2.8-2.7c1.4,2.1,3,4.1-0.1,6.2c-1.4,1,0.2,2,0.6,3c0.7,1.7-0.6,2.5-1.7,3.2
			c-1.3,0.8-1.4-0.6-2-1.3c-3.2-3.8-7.7-1.8-11.4-1.7c-4.9,0-10.2-0.8-14.9,1.9c-1.4,0.8-2.3-0.2-2.8-1.2c-0.8-1.6-1.3-3.3-0.8-5.2
			c0.5-1.7,4.2-1.6,2.9-3.6c-1.5-2.3-2.5,2.8-4.3,1.2c-1.5-1.4-2.1,0.9-3.5,0.2c-2.4-1.2-3.2-0.4-3.5,2.6c-0.1,1.2-4.2,2.4-6.7,2.1
			c-2-0.2-3.7-0.5-4.8,1.5c-1.2,2.1-3.8,1.2-4.4,0.8c-5.6-4.1-10.9,0-15.8,1.1c-4.7,1-10.5,1.3-13-0.3c-5-3.2-8.2-5.6-12.2,0.5
			c-1.7-2-5.8,3-6.6-2.3c-0.1-0.8-2.6-0.9-3.9,0.4c-3.8,3.9-5.8,3.4-7.3-1.8c-0.1-0.3-0.5-0.4-0.7-0.6c-0.3,0.1-0.8,0.3-0.8,0.4
			c0.3,3.5-1.4,4.6-4.7,4.6c-3.9-0.1-7.8,0.3-11.6,0.5c-1.1-1.2-2.4-2.2-2.3-4.1c1.1-2,2-4.1,5.2-2.9c2.1,0.8,4-0.8,5.8-2.3
			c-6.9-0.8-7.6-2-4.6-7.3c2-1,4.2-1.5,6.4-1.3c4.8-0.5,9.5-1.1,13.3,2.9c0.9,0.9,2.3,0.2,3.1-0.6c2.5-2.5,5.5-2.8,8.8-2.4
			s6.9-1.4,9.8-0.1c2.1,0.9,3.2,1.1,5.1,0.2c1.2-0.6,2.1,0,1.8-2.3c-0.2-1.9,3-1.7,4.5-0.7c6.9,4.6,14.4,1.6,21.6,2
			C567.2,43.2,566.5,40.1,567.9,39.1z"/>
		<path class="st53" d="M491,46.1c-2.5,8.5,4.9,4,9,6.2c-4.6,1.3-6.4,6.2-11.5,3.5c-1.9-1.1-1.3,3-3.5,2.3c-1.6,3.1-3.4,2.7-5.2,0.3
			c-2.9-3.8-4.2-4.1-8.6-1.5c-1.7,1-2.4,0.3-3.2-0.8c-0.7,0.7-1.3,1.3-2,2c-4.2-0.3,0.4-3.5-1.5-4.6c1.2-1.6,4.4-2.2,4.8-2
			c4.6,1.7,4.2-0.4,3-3.5c-0.3-0.7,1.7-0.9,0.6-1.9c-0.1-1.1,1-1.7,1.4-1.3c1.9,2.8,3.6,0.3,5.4,0.1C483.6,44.3,487.5,43.7,491,46.1
			z"/>
		<path class="st54" d="M620.9,50.1c-1,5.4-5.1,6.6-9.6,6.6c-5.2,0-9.9-2.1-10.3-7.7c-0.4-5-2.6-5-6.2-4.4c-1.9,0.3-3-1.7-4.7-2.2
			c-0.6-0.2-0.9-1-0.5-1.7c0.2-0.3,1-0.7,1.3-0.5c6,2.5,13.2,1,18.6,4.8c3,2.1,5.5,4.7,9.6,4C619.6,49.4,620.3,49.7,620.9,50.1z"/>
		<path class="st12" d="M468,56.1c0.8,0.2,2.2,0.6,2.2,0.5c1.8-4.8,5.8-1.7,8.7-2.4c1.4-0.4,1.2,0.9,1.3,1.9c0.3,3.6,2.1,4.2,4.8,2
			c1.1,1.1,2.4,2.1,2,4c-3.8,2.5-7.9,1-11.9,1C468.1,63.1,468.1,63,468,56.1z"/>
		<path class="st20" d="M632.9,23.1c4.1,2.9,8.9,1.4,12.9,0.7c6.8-1.3,12.8,2.1,19.6,1.4c-3.4,4.7-7.9,6-12.6,3.8
			c-1.4-0.7-3.1-1.6-4.2-0.6c-4.4,3.9-9.5,2.2-14.1,1.5c-4.3-0.7-8.1-0.2-12.1,0.9c-3.6,1-7.1-0.7-10.7-0.5c-0.6,2.3,2,1.5,2.3,2.8
			c-7.1-0.3-14,1.5-21.1,1.1c-10.9-0.7-21.8,0.6-32.8,1.3c-4,0.3-8.1-0.3-12.2-0.3c-10.5-0.2-20.9,1.3-31.4,1.1
			c-13.2-0.4-26.4-0.4-39.6,0c-10.5,0.3-21,0.9-31.4,1.1c-7.3,0.1-14.6,1.7-22.2,0.1c-5.1-1-10.8-0.3-16.2-0.4
			c-2.3-0.1-5.4,0.3-4.6-3.9c0.2-1.1-0.9-1.8-1.9-2c-3.9-0.4-8.1-1.6-11.8-0.7c-4.3,1-6.4-1.2-9-3.4c7.1-4,14.8-2.3,21.9-0.8
			c6.5,1.4,12.7,0.7,19.1,0.4c6.2-2.9,12.9-0.5,19.1-1.4c10.5-1.6,21.2,0.9,31.5-1.8c1.3-0.3,2.7-0.4,3.9,0.2
			c5.6,2.7,11.4,1.5,17.1,1c18.1-1.5,36.3-3.3,54.5-2.1c4.5,0.3,8.9,1.4,13.4,0.1c7,0.2,13.9-1.4,20.9-0.7c2.1,0.2,3.8-1,5.7-1.5
			c2.8-0.8,5.5-1.2,7.9,1.1c2.3,2.2,5.1,1.2,7.6,0.5c4-1.2,7.8-1.1,11.8-0.1c4.9,1.2,9.9-0.2,14.8,0.3
			C630.5,22.4,631.8,22,632.9,23.1z"/>
		<path class="st55" d="M246.1,41c-0.7,0.3-1.3,0.7-2,1c-3.1-0.2-6.2,0.2-9.4,0.1c-5.1-0.3-8.1-2.8-9.2-7.8
			c-0.6-3.1-2.2-5.9-1.8-9.2c0-1.9-0.1-3.7,0.7-5.5c2.6-1.7,3.1,0.6,3.6,2.1c0.6,1.5,0.7,3.2,1.8,4.6c3.2,4.1,6.6,4.1,11.2-0.2
			c1.4-1.1,0.8-2.6,1-4c2.1-1.8,3.8,0.2,5.4,0.9c9,4,18.6,2.7,28,3.4c6.9,0.6,13.9-0.2,20.8,1.5c1.1,0.3,2.6,0.8,3.4,0
			c3.6-4,7.8-1.6,11.6-1c2.3,0.4,3.8-0.1,5.4-1.3c1.4-0.6,2.8-1.5,4,0.2c0.5,1.2,0.8,2.5-0.2,3.7c1.7-0.5,3.2-1.6,5-1.4
			c0.5,0,0.9,0.1,1.4,0.2c2.9,1.3,4.9-1.3,7.3-1.7c0.4,0,0.9,0.1,1.3,0.3c0.9,1.1,3,1.1,2.7,3.2c-3.8,1.8-7.8,2.8-12,1.5
			c-1.7-0.5-2.7,0-3.9,1.2c-4.7,5-6.2,5-10.2,0.1c-1.3-1.5-2.5-1.7-4.3-1.5c-8.5,0.6-16.9,1.7-25.3-0.6c-0.6-0.2-1.7-0.6-1.9-0.4
			c-4.4,5.8-9.3,0.1-13.9,0.7c-5.1,0.6-10.3,0.3-15.4,0.1c-6.4-0.3-7.8,1.6-5.3,7.6C246,39.3,246,40.2,246.1,41z"/>
		<path class="st56" d="M422,28.1c-4.7,1.5-9.6-0.6-14.5,1.2c-2.4,0.9-5.6-1.9-8.8-2.4c-6.3-0.9-12.5-0.3-18.7,0.2
			c-0.2-0.8-0.2-2.1-0.6-2.2c-1.6-0.5-1.4,1-1.3,1.8c0.1,2.8-0.8,3.7-3.5,2.5c-2.2-1-4.3-1.2-6.7-0.2c-2.3,0.9-4.1-0.6-5.9-1.8
			c-4.6-0.9-9.2-0.2-13.7,0.6c-4.3,0.7-6.4-0.7-8-5.2c0.1-0.5,0.3-1,0.7-1.3c1.4-0.6,2.4-1.7,3-3c3.3-0.9,6.7,1.1,10,0
			c4.1,0.9,8.3,2.3,12.5,0.4c2.8-1.3,5.6-1.2,8.5-0.4c2.3,0.4,4.6,0.7,7,1.1c3.2,0.3,6.3,0.8,9.7,0c3.3-0.8,6.4,1.9,9.9,2.1
			c2.8,0.2,5.7,0.5,8,3.1c1.5,1.7,4.3,1.1,6.6,0.9C418.5,25.2,421.1,24.9,422,28.1z"/>
		<path class="st57" d="M567.9,39.1c0.4,1.8-1.8,4.3,2,5.3c-7.5,0.4-14.4-0.3-21.3,0.6c-2.9,0.4-3.8-3.5-6.8-3.5
			c-0.9,0-1.8-0.3-2.1,0.7c-0.3,1,0.8,0.6,1.3,0.9c2.2,1.4-0.3,1-0.6,1.2c-1.9,0.9-4.7,0.6-4.9,3.9c0,0.7-1.1,0.9-1.6,0.6
			c-0.4-0.3-0.9-1.1-0.8-1.6c0.7-3.9-1.3-3-3.4-2c-2.4,1.2-4.8,0.1-7.2,0.1c-3.2,0-6.1-0.7-8.1,3c-0.9,1.6-3.8,1.5-4.9,0.1
			c-2.7-3.3-5.5-4.6-9.5-2.4c-0.7,0.4-1.6-0.1-2.2-0.8c-0.2-0.5-0.5-0.8-1-1c-1.3-0.4-2.8-0.9-2.1-2.7c0.5-1.4,2-0.9,2.3-0.9
			c-5.8,1.2-12.6,0.5-19.4,0.8c-4.3-0.6-8.8,1.4-12.8-1.6c1.6-1.2,3.5-0.7,5.3-0.7c26.2,0,52.5,0,78.7-0.1c0.5,0.6,0.1,1.8,1.1,1.9
			c1.2,0.1,1.2-1.3,1.9-1.9c1.7,0,3.3,0,5,0c2.7,1,5.3,1,8,0C566,39.1,566.9,39.1,567.9,39.1z"/>
		<path class="st58" d="M478.9,40.1c7.4,0,14.9,0,22.8,0c-2,2.8-4.5,0.2-6.2,1.6c0.2,2.3,2.6,0.8,3.4,2c0.8,1.3-0.2,1.3-1,1.4
			c-2.3,0.3-4.6,0.7-6.9,1c-3.7,0.2-7.4-1.1-11.1,0c-0.7,0.2-1.9-0.5-1.9,0.7c0.1,1,1.6,2.4,0,2.8c-2,0.5-1.8-1.8-2.5-3
			c-0.7-1.1-1.5-1.8-2.7-0.5c-8.8,0.6-17.6-0.5-26.4,0.5c0,0.5,0.1,1.1,0.1,1.6c1.8-0.2,3.7-0.3,5.5-0.7c0.9-0.2,1.8-0.1,2.1,0.7
			c0.3,1.3-0.8,1.7-1.8,1.8c-3.2,0.1-6.3,0.1-9.5,0.1c-0.7,0.1-1.3,0.7-2,0c-1.7-1.7-6.2,2.3-6-3c-1.4-1.6-0.7-3.2,0.2-4.7
			c0.5,0.4-0.3-0.3,0.3-0.4c0.4,0,0.4-0.4,0.3-0.4c-2.2,0.5-4.6,1.6-5.9-1.5c4,0,8.1,0,12.1,0.1c0.4,0.6,1,0.8,1.7,0.8
			c10.8-0.3,21.6,0.5,32.4-0.2C477.1,40.8,478.2,41,478.9,40.1z"/>
		<path class="st59" d="M436,42.1c-0.3,1.7-0.7,3.3-1,5c-0.3,0-0.7,0-1,0c-2.7,1-5.5,0.7-8.3,0.5c-5-0.4-10-0.1-15.1,0
			c-15.4-0.4-30.9,2-46.3-0.4c-3.2-3,0.7-4.1,1.7-5.9c1,0,2,0,3.1,0.1c8.3,1.8,16.6,1.5,24.9-0.2c0.3-0.1,0.6-0.1,1,0
			c1.7,1.3,3.7,1,5.7,0.8C412.5,40.8,424.3,40.5,436,42.1z"/>
		<path class="st60" d="M341,22.1c1.4,4.1,3.7,5.1,8.2,4.2c4-0.8,8.8-3.1,12.8,0.8c-4,3.5-8.2,5.1-13.3,2.2c-1-0.5-3.1-0.4-3.8,0.2
			c-2.3,2.4-4.6,1-6.9,0.5c-0.7-1.3-3.2-0.8-3-3c1.4-1.8,2-4.1,4-5.5C339.8,21.4,340.5,21.5,341,22.1z"/>
		<path class="st61" d="M366,41.2c-0.3,2.1-0.6,4.1-3,4.9c-1.6,1.6-3.3,1-5.1,0.5c-1.2-0.3-2.3-0.8-3.5-1.2c-2.3-0.8-4.7-1.2-7.2-1
			c1.1,2.8,1.1,2.8-0.2,4.5c-3.1-3.5-5.7-7.7-11.6-6c-0.9,0.3-1.3-0.8-1.3-1.7C344.8,41.2,355.4,41.2,366,41.2z"/>
		<path class="st62" d="M436,42.1c-10.2,0-20.4,0-30.6,0c-1.8,0-3.6,0.2-5.4,0.7c-2,0.6-4,0.5-5.1-1.8c11.6-0.9,23.3-0.9,34.9-0.9
			c2.1,1.5,4.5,0.5,6.7,0.9c0.1,0,0.2,0.2,0.3,0.3C436.7,41.6,436.3,41.8,436,42.1z"/>
		<path class="st63" d="M478.9,40.1c-2.3,3.3-6.4,2.5-9.1,2.3c-8.4-0.6-16.8-0.1-25.2-0.4c-0.9,0-3.6,1.4-2.5-1.8
			c7.6-0.1,15.2-0.2,22.8-0.3C469.6,40,474.2,40,478.9,40.1z"/>
		<path class="st64" d="M394,41c-0.5,1.1-1.3,1.9-2.6,2c-7,0.2-14,0.8-21,0c-1-0.1-1.3-0.9-1.3-1.8C377.4,41.2,385.7,41.1,394,41z"
			/>
		<path class="st20" d="M614.9,33.1c4.3-1.3,7.7,0.5,11,3C621.9,36.2,618,36.2,614.9,33.1z"/>
		<path class="st52" d="M551.9,39c1.8,5.5-2.9,2.3-4.3,4.1c-0.7-2.3,1-2.8,1.3-4.1C549.9,39.1,550.9,39.1,551.9,39z"/>
		<path class="st52" d="M565,39.1c-2.7,1.9-5.4,2.9-8,0C559.6,37.7,562.3,39.3,565,39.1z"/>
		<path class="st65" d="M201.1,93c-1.3,1-2.7,0.1-4,0c-4.1,1.5-7.4-1-10.8-2.3c-10.3-4-20.4-8.4-30.1-13.7c-0.9-0.4-1.7-0.9-2.6-1.3
			c-3.6-2-6.7-5-11.2-5.2c-1.3-0.1-2.8-0.8-2.7-2.4c0-1.8,1.9-2.1,3.1-2.9c0.3-0.2,0.6-0.3,0.8-0.5c6.6-7.4,15.3-11.6,24-15.9
			c2.9-1.4,5.5-1.8,8.5-1.3c5,1.3,9.9,0.3,14.9-0.3c2-0.2,3-1.2,3.2-3.1c0.2-2.3,1.5-4,2.7-5.8c1-1.5,2.2-2.6,4.1-1.1
			c0.1,4.4,0.8,8.9,0.1,13.2c-1.3,7.9,0.7,15.9-1.3,23.7c-0.4,1.8-2.2,1.9-3.2,3.5C204.2,80.8,199.6,87.7,201.1,93z"/>
		<path class="st36" d="M201.1,37.1c-3.9,0.7-5.4,3.9-5.2,6.9c0.1,2.5-1.1,4-2.5,4.1c-5.7,0.2-11.5,3.3-17.2,0
			c0-0.2,0.1-0.5,0.1-0.7c0.6-1.3,1.3-2.7,2.2-3.9c2.1-2.8,2.1-2.8,0.5-6.3c-1.8-0.2-4.5,4.1-5.3-1.1c1.5-2.9,4.4-4.2,6.8-6.2
			c0.6-0.5,2.1-0.7,0.7-1.9c1.2-2.6-0.9-1.7-2-1.9c0.6-2.9,3.2-2.5,5-2.8c4.5-0.7,8.9-2,13.3-2.8c0.7-0.2,1.5-0.2,2.2,0
			c0.9,1.7,4.9,0.3,4,3.9c-1.9,3.7-0.6,7.8-1.5,11.5C201.7,36.4,201.4,36.7,201.1,37.1z"/>
		<path class="st48" d="M202.1,36c-1.3-4.2-2.1-8.3,1.1-12c2.2-4.1,6.3-3.7,10-3.8c3.8,0,7.5-0.5,10.9-2.1c0.3-0.7,0.7-0.7,1,0
			c0.3,0.2,0.5,0.4,0.4,0.7c-0.1,0.2-0.2,0.4-0.3,0.4c0,2,0,4,0,5.9c-0.4,0.3-1.1,0.5-1.2,0.8c-2.2,8.1-8.8,9-15.6,9.4
			c-0.5,0-0.9,0.4-1.2,0.8l0,0C205.4,34.9,203.7,36.6,202.1,36z"/>
		<path class="st48" d="M213,71.8c0,1.7-0.6,3-2.4,3c-1.8,0-2.4-1.4-2.5-3c0-1.4,0.2-2.7,2-2.7C211.9,69.1,212.8,70.1,213,71.8z"/>
		<path class="st66" d="M212.5,86.7c-0.6,1.2-1.3,2.2-2.6,2c-0.9-0.1-1.6-0.8-1.4-1.7c0.2-1.4,1.2-1.9,2.5-1.8
			C211.8,85.3,212.5,85.8,212.5,86.7z"/>
		<path class="st67" d="M19.1,214.9c5.6-4.5,4.1-11.1,4.9-17c0.6-3.8,0.3-7.9,5.5-8.5c0.3,0,0.7-0.1,1-0.1c-2.4-6.7,6-6.7,7-11.4
			c0.2-0.8,0.6-1.6,0.3-2.4c-1-2.1-0.2-4.4,1-5.6c3.3-3.4,5.4-6.3,2.5-11.3c-1.3-2.1,1.6-5.3,3.4-5.1c4.8,0.4,4.5-2.5,4.4-6.3
			c3.8,2.4,2.4,8.2,7,8.9c-4.7,7.7-9.4,15.3-14,23c-1.6-0.1,1-2.7-1.3-2.2c-1.4,0.3-1.6,1.3-1,2.7c1,2.6,2.3,5.3-0.7,7.5
			c-1.7,1.8-3,3.8-5.3,5.1c-2.3,1.2-2.9,4.1-3.2,6.5c-0.6,4.9-2.8,9.7-1.2,14.7c0.2,0.6-0.1,1.3-0.3,1.9c-0.2,0.4-0.7,0.8-0.5,1.4
			c0.4-0.6,0.9-1,1.6-0.6c-0.2,2.2,0.7,4.7-2,6c-0.6,0-1.3,0-1.9,0C21.4,222,19,219.8,19.1,214.9z"/>
		<path class="st68" d="M30.1,215.9c-1.7,1.1-0.7,4-3.4,4.6c0.8-7.6,1.4-15.2,2.5-22.7c0.8-5.7,5-8.6,9.9-10.8c0,0.7,0,1.3,0,2
			c-0.1,6.1-1.4,11.9-5,17C31.9,208.9,32.7,213.1,30.1,215.9z"/>
		<path class="st67" d="M34.1,205.9c1.7-5.7,3.3-11.3,5-17c2.5,3.5,2.3,8.3,5.8,11.4c1.3,1.1,1.5,3.2-1.3,4
			c-2.1,0.6-4.2,1.1-5.8,3.3C36,210.3,36.3,204.8,34.1,205.9z"/>
		<path class="st69" d="M143.1,66.1c-0.9,0.6-1.8,1.2-3.6,2.4c5.9,1.2,10.8,2.7,14.6,6.5c0.4,2.5-1.4,3-3,2.7
			c-2.5-0.5-5.2-0.6-7.5-2.3c-4.5-3.3-6.1-2.9-9.4,1.4c-0.8,1-1.6,2.1-2.2,3.3c1.3-2,3.1-3.2,5.2-4.2c2.3-1.1,4.3,0.6,6.2,1
			c3.3,0.7,2.3,3.8,0.8,6c-1.4,2.1-2.8,4.1-4.6,5.9c-1.8,1.8-3.4,3.7-4.8,5.8c4.1-4,8.4-7.7,13-10.9c3.2-2.2,4.5-6.3,8.3-7.6
			c4.8,1,8.8,3.9,12.9,6.4c2.1,1.3,4.3,1.8,6.4,2.4c7.4,2.3,13.9,6.9,21.6,8.2c-1.2,1.3-2.9,1.8-4.5,1.6c-7.3-1.3-14.3,0.6-21.4,1.5
			c-4.1,0.5-8.4-0.8-12,2.6c-1.7,1.6-1.2,2.1-0.1,3.2c-6.7,6.5-12,13.7-11.9,23.6c-0.5,1.6-0.9,3.8-3,1.2c-1-1.2-2.1-1.4-3.4-1.6
			c-3-2.6-1.8-6.1-1.8-9.3c-0.1-4.8-0.7-5.3-5.2-3.7c-6.6,2.4-11.5,7.1-16.9,11.3c-1.4,1.1-2.5,2.8-4.6,2.7
			c-4.1,1.6-8.2,3.3-12.3,4.9c-0.6-2.8,1.2-4.6,2.7-6.6c0.5-0.7,1.4-1.7,0.2-2.6c-0.8-0.6-1.5,0.4-2.2,0.4
			c-6.2-0.1-7.9,5.4-11.3,9.4c1.3-4.2,2.4-8-3.4-8.6c-0.5-0.8-0.4-1.8,0.3-2.2c5.3-3.6,4.6-8.8,4-14.1c0.3-2.9,1.6-5.1,4.4-6.2
			c1.8,0.2,2.9,1.1,2.3,2.9c-0.7,2.1,0.5,3.1,1.8,4.1c-0.3-0.6,0.2,0.2,0.1,0c-2.6-3.8-1.7-5.2,2.8-4.4c0.4,0.1,0.8,0.6,1.3-0.3
			c-2.3-1.8-5.9-3.1-3.7-7.2c0.8-2.1,1.5-4.2,4.1-4.5c2.1,0,4.3,1,6.1-0.9c-0.5-7.3,3.8-10.8,10-13.2c3.7-1.4,5.3-5.4,8.1-8
			c1.4-1.4,0.4-2.6-0.4-4c-0.9-1.4-2.6-2.9-0.3-4.6c2.4,0.2,4.9,0.6,6.9,2.1c1.1,0.8,1.9,0.8,3.1,0.2
			C141.8,60.6,141.8,60.6,143.1,66.1z"/>
		<path class="st70" d="M70.1,136c0.8-1.5,1.2-3.3,3-4c3.7,1.2,7.4,2.3,11.4,2c1.6-0.1,3.4,0.6,2.2,2.6c-3.5,5.9-7.2,11.6-10.9,17.6
			C72.6,148,70.7,142.2,70.1,136z"/>
		<path class="st71" d="M65.1,124c-2.8,1-5.4,1-7-2c1.3-1.6,2-3.4,2.6-5.3c0.8-2.3,2.2-4.1,5-4.1c1.7,0,2.7-1,3.8-2.1
			c3.3-3.2,5.2-2.7,7.1,1.7c0.3,0.6,0.8,1.1,1.3,1.5c1.5,1.8,3.8,3.4,2.3,6.3c-1.2-0.4-2.4-0.8-3.6-1.3c-0.5,1.6,1.5,3.1-0.1,4.8
			c-2.6-0.5-1.6-3.7-3.4-4.8c-3.3-2-2.3,1.8-4,3.1c-1.2-1.5-2.3-3.1-3.4-4.5C61.7,119.7,67,121.9,65.1,124z"/>
		<path class="st72" d="M80.1,120c-0.1-2.5-1.9-4-3-6c0.2-0.1,0.4-0.3,0.6-0.4c1.1-0.3,2,0.2,2.7,0.8c1.7,1.4,2.6,0.8,3.2-1.1
			c1-3.2,3.3-5.3,6.2-6.7c0.5-0.1,0.9,0,1.3,0.3c2.2,6.8,1.2,9.9-4.1,14.4c-0.5,0.4-0.6,1.1-0.9,1.7c-1.7-0.1-2.6-0.9-3-2.5
			C82.5,118.3,81.2,119.7,80.1,120z"/>
		<path class="st73" d="M347.1,48.9c1.7-2.8-2.4-3-2.2-5.5c3.3-0.8,6.7-0.3,10.1,0.7c1.1,1.4,1.1,3.2,1.2,4.8c0.4,3.5,0,7.1,4.4,8.8
			c1.7,0.6,1.1,2.8,0.6,4.5c-1.7,5.1-0.4,7.2,4.8,8.4c2.3,0.5,4.6,0.3,7,0c2.2-0.3,4.3-0.3,6,1.6c-1.2,1.8-3.5,0.3-5.2,1.7
			c2.9,0.9,5.9-0.4,9.2,1.3c-2.5,1.5-4.7,1-6.7,1c-2.7,0-5.4,0.1-7.7,1.4c-2.4,1.4-4,0.9-6.6,0.3c-3.6-0.8-7.9,0.9-11.9,1.7
			c-0.9,0.2-1.5,0.5-2.1-0.4c0.8-1.3-2-5,2.6-4c0.3,0.1,1.5-2.5,1.7-3.8c0.5-3.3,1-6.7,0.4-10.4c-0.3,0.5-0.6,0.7-0.7,1
			c-0.5,1.8,0.3,5.2-2.8,4.5s-0.7-3.2-0.7-5.1C348.6,57.1,350.1,52.7,347.1,48.9z"/>
		<path class="st74" d="M379,72.1c-3.6-1.1-7.2-0.1-10.8,0.1c-3.1,0.2-5.6-1.2-7.8-2.7s-3-4.1-0.9-6.8c1.9-2.4,1.8-4.6-1.7-5.5
			c-3-0.7-4.2-1.8-2.5-5.1c1.2-2.4-2.2-5.2-0.3-7.9c1,0.3,2,0.7,3.1,1c0.4,0.5,0.7,1.6,1.1,1.6c4.6-0.3,6.8,3.8,10.2,5.6
			c0.8,1.4,0.3,3.4,2.1,4.3c1.5,1.5,3.4,2.7,4.6,4.5c2.3,2.3,3.5,7.4,9.1,2.7c-4.2,5.8,1.7,6.2,4,9.4
			C385.2,71.7,382.1,72.1,379,72.1z"/>
		<path class="st73" d="M376,61c-2.5-0.3-3.8-2.1-5-4c-1.9-3.6,2.7-0.8,2.6-3c-1.7,0.6-3.5,1.2-4.6-1c-1.2-1.6-5.2,0-4.3-4
			c0.2-0.7-1.2-1.1-1.9-0.6c-4.5,3-4.2-0.7-4.7-3.3c1.6,0.9,3.2,1.1,5,0.9c15.7,1.6,31.3-0.1,47,0.1c0.9,0.8,3.5,0.5,2,2.9
			c-4.1,1.9-8.3,0.7-12.5,0.7c-1.5,0-2.5,0.2-3.4,1.2c-0.7,4.1-4.1,1.1-6,2.7c0.3,0.9,1.9,1.9,0.9,3.4c-2.4,1.3-5.3,1.9-7,5.5
			c-1.1-3.6,0.3-7.2-3.4-8.5c-1.5,1,0.2,1.3,0.2,1.9c0.1,2.3,1.5,5.8-3.4,3.8C377.2,59.7,376.5,60.6,376,61z"/>
		<path class="st75" d="M391,57.1c1.2-2.7-5.7-2-2.4-5.6c1.7,2.4,4.3-1.5,6,0.8c0.5-0.4,1-0.8,1.5-1.3c2.4,1,1.7,3.3,2.2,5.2
			c0.3-0.2,0.8-0.4,0.8-0.4c-1.3-4.6,2.7-3.5,4.8-4.4c1.5-0.6,3.1,1.4,4.7-0.1c0.3-0.3,1.2,0.3,1.3,1.1c0.7,3.9,0.7,3.9,4.3,4.5
			c-3.7,1.8-5.4,5.2-8.1,7.6c-1.8,1.7-2.7,2.1-3-0.5c-0.4-3.4-2-3.8-4.7-2.9C394.5,62.4,391,63,391,57.1z"/>
		<path class="st58" d="M412,49c0.1-1.5-1.4-1.9-2-2.9c6.4,0,12.9-0.1,19.3-0.1c1.6,0,3.4-0.5,4.7,1c0,1,0,2.8-0.7,2.6
			c-4.7-0.9-9.4,1.4-14.2-0.4C417.3,48.6,414.4,49.6,412,49z"/>
		<path class="st76" d="M441,50.1c0.7-0.1,1.3-1.1,2,0c1,0.8,0.9,2.8-0.1,3.8c-0.3,0.3-0.7,0.9-0.6,1.2c1.4,6.3-3.1,2.9-5,2.8
			c-4.3-0.3-0.1-3.8-1.6-5.5c-0.4-0.4,1-1.5,2.1-0.7C440,53.4,440,50.9,441,50.1z"/>
		<path class="st76" d="M428.1,51.7c1.5,0.4,4.8-1.7,5.3,2.8c0.1,1.1,1.1,2.3-0.3,3.1c-1.3,0.7-3.6,1-4.2-0.1
			c-1.1-2.2-2.4-3.7-4.8-4.1c-0.2,0-0.5-1-0.4-1.2C424.7,50.5,426.1,51.9,428.1,51.7z"/>
		<path class="st77" d="M410.9,53.8c1.2-1.1,1.6-1.5,1.7-1.5c1.9,1.2,3.5-2.1,5.3-0.2c0.3,0.3,0.4,1.2,0.2,1.3
			C416,54.7,413.9,54,410.9,53.8z"/>
		<path class="st78" d="M632.9,23.1c-7.6,0.6-15.2,1.6-22.7-0.7c-4.3-1.3-8.1,2.6-12.6,1.8c-1.5-0.2-3.3,1.7-3.5-1.9
			c-0.1-2-3.2-1.6-4.8-1.1c-9.6,3.5-19.6,2-29.4,2.8c-0.5-3.6,0.5-5.5,4.7-5.4c3.5,0.1,6.9-0.4,10.4-1.7c3.9-1.4,8.7-0.8,13-0.8
			c4.6,0,9.1-0.5,13.6-1.2c2.3-1.3,4.8-0.3,7.2-1c0.6,0,1.3-0.1,1.9-0.1c6.7,2.5,13.7,1.1,20.6,1.3c2.1,0,4.2,0.6,6.3,0.9
			c2.4,0.8,4.8,0.5,7.3,0.6c1.9,0.1,4,0.1,4.9,2.3c-1.4,2.5-2.4,3.7-6.2,2.5C640.8,20.6,636.1,19.7,632.9,23.1z"/>
		<path class="st79" d="M649.9,19.1c-4.1-2.4-9,0.4-13-2.1c-0.1-0.5,0.1-1.2,0.5-1.2c5.3,0.6,10.4-1.1,15.6-1.8
			c10.7,0.3,21.4,0.5,32.1,1c4.7,0.2,9.1-2.6,13.9-1c-2.2,1.3-5.8,1.3-6.9,2.3c-5.1,4.4-12.1-1-17.1,4.1c-1.5,1.5-5.6,0.6-8.6,0.6
			C660.8,21,655.1,22.1,649.9,19.1z"/>
		<path class="st69" d="M202.1,98.9c-5.3,0-10.6,0-16,0C191.4,97.5,196.7,97.4,202.1,98.9z"/>
		<path class="st80" d="M599.9,11.1c0,0.3,0,0.7,0,1c-3,3.6-6.9,0.5-10.3,1.3c-5.2,0-10.4,0-15.5,0.1c-0.6,0-1.2,0-1.8,0
			c-15.6-0.5-31.1,0.5-46.7-0.4c-0.7,0-1.2-0.5-1.7-1.4c2.4-3.5,6.4-0.7,9.3-2.3c11.1-0.7,22.3-1.4,33.5-0.8c0.8,0,1.6,0,2.4-0.4
			l0,0C579.7,9.5,590.3,9.1,601,9C600.6,9.7,600.3,10.4,599.9,11.1z"/>
		<path class="st5" d="M668.1,8.9c-18.4,0-36.8,0.1-55.2,0.1c0.8-0.8,1.8-0.8,2.8-0.8c16.7,0,33.5,0,50.2,0
			C666.6,8.1,667.3,8.6,668.1,8.9z"/>
		<path class="st81" d="M601.9,16.1c-8.2,2.1-16.6,1.8-25,1.5c-0.6,0-1.6-0.2-1.9,0.1c-3.5,4-7.9,2-12.1,1.9
			c-2.7-0.1-1.8,3.1-3.1,4.5c-5.6,3.6-11.1-0.6-16.7-0.4c-11.1,0.5-22.4-0.6-33.3,0.8c-9,1.1-18.2,0.7-27.1,2.4
			c-0.6,0.1-1.4,0.2-2-0.1c-8.3-4.2-17,1-25.1-0.9c-6.3-1.5-11.9,2.3-18,1c-2.4-0.5-4.7-0.4-6.5-2.1c-2.5,2.7-6.6,0.8-9.2,3.2
			c-3.3-3.5-7.6,0-11.2-1.7c-0.6-0.3-1.5,0.6-2.3,0c-3.2-2.3-6.3-3.3-10.4-3.7c-1.2-0.1-2.3-1.1-3.4-1.8c-1.2-0.8-2.2-1.8-3.8-0.3
			c-1.5,1.4-6.6,0.3-8.9-1.4c-0.3-1.7,6.5,1.5,2.1-3c4.3-1.6,8.6-2.5,13-0.1c1,1.6,2,0.3,3,0c2.3-1.1,4.1-0.7,6.4,0.7
			c2.8,1.6,6.5,3,8.6-1.6c0.2-0.1,0.3-0.3,0.5-0.4c1.6-0.3,2.4,1.1,3.5,1.7c5.4,3.2,11.4,2.8,17.3,2.5c1.1-0.1,2.4-0.9,3.4-0.5
			c5.8,2.7,9.8-0.9,14-3.8c0.5-0.1,0.9-0.1,1.4,0c6.3-1.2,11.9,3.8,18,2.6c6.3-1.3,12.9,1.8,18.9-1.4c4.9,3.5,10.7-3,15.5,1.6
			c0.5-3.8,3.6-3.5,6.3-4c0.5,0,0.9,0,1.4,0.2c2.1,1.6,4,1.8,6.8,0.9c4.7-1.6,9.9-0.8,14.7-0.2c5.2,0.6,10.1-2.2,15.3-0.4
			c0.4,0.2,0.8,0.4,1.2,0.7c2.7,2.6,5.4,2.4,8.2,0.1c0.4-0.3,0.8-0.4,1.2-0.6c3.1-1.3,6.2,1.7,9.3,0c9.4-1.6,18.9-0.2,28.4-0.4
			C601.6,13.7,603,14.1,601.9,16.1z"/>
		<path class="st82" d="M375,18.1c-4.2-1.4-7.4,2-11.2,2.5c-3.7,0.4-6.9,0-9.7-2.5c1.4-0.8,2.8-1.7,4.1-2.5c2.2,3.8,4.6-0.8,6.9,0.1
			C368.3,16.8,372,16.3,375,18.1z"/>
		<path class="st83" d="M397,16.1c-4.3-1-8.6,0.9-13,0.1c-1-2.7,0.4-4.2,4.4-3.7c2.3,0.3,4.2,0.2,6.5-0.4
			C398,11.2,398.8,13.4,397,16.1z"/>
		<path class="st84" d="M455,15.1h-0.5l-0.5,0.1c-1.3,0.8-2.8,1.3-4.3,1.2c-8.8-0.7-17.6,1.1-26.4-0.3c-2.8-0.4-5.4-1.7-8.3-0.9l0,0
			c-1.7-1-0.5-2,0-3.1c2.6-1.9,5.3-1.9,8,0c2.9,1.5,5.3-0.8,8-0.9c3.5,0.3,6.8-0.9,10.2-1.4c2.1-0.4,4.3-0.8,5.8,1.4
			c2.3,0,4.7,0,7-0.1c4,0,8,0.1,12,0.1c1.3,1.6,3.1,0.8,4.6,1c1.3,0.2,2.8,0.2,2.4,2.2c-2,1.7-4.1,2.1-6.9,1.5
			C462.5,15.1,458.7,15.6,455,15.1z"/>
		<path class="st85" d="M473,14.1c-1.6-1.8-3.7-0.9-5.5-1c-1.6-0.1-2.1-0.5-1.5-2c15.3-0.4,30.6-0.7,45.9-1.1
			c0.2,0.3,0.2,0.6,0.1,0.9c-0.2,0.8-1.2,0.3-1.5,0.9c0-0.2,0.2-0.3,0.6-0.3c0.7,0.1-0.2,0.1,0.5-0.1c1.4-0.3,2.6,0,3.5,1.2
			c0.2,0.5,0.2,0.9-0.1,1.4c-0.3,0-0.7,0-1,0.1c-12.6,1.6-25.2,1.1-37.9,1.2C474.9,15.3,473.8,15.1,473,14.1z"/>
		<path class="st22" d="M569,8.2c-0.2,1.5-1.2,1.8-2.5,1.7c-10.9-0.9-21.7,0.2-32.6,0.3c-4,0.3-8,0.9-12-0.3c3.7-4.9,9-1.9,13.5-2.5
			c5.2-0.7,10.5,0.5,15.8-1.8c3.4-1.4,6.8,2,10.7,1.4C564.1,6.7,566.8,6.6,569,8.2z"/>
		<path class="st85" d="M521.9,10c4,0.1,8,0.2,12,0.3c-2.8,1.9-6.2,0-9,2c16.1,0,32.1,0,48.2,0c-0.6,2.1-2.5,2.1-4,2
			c-5.8-0.5-11.5,0.6-17.2,0.3c-5-1.8-10.1,0-15.1-0.2c-4.4-0.2-8.8-0.7-13.2-0.2c-1.6-1.2-3.9-1.6-4.6-3.9
			C520,10.1,521,10,521.9,10z"/>
		<path class="st86" d="M515,13.1c-1.5-1.2-3.3-1.1-5.1-1.2c0.7-0.7,1.4-1.3,2.1-1.9c1.7-1.2,3.3,0.7,5,0.1c0.8,0.9,0.9,1.9,0.3,3
			C516.5,13.6,515.8,13.7,515,13.1z"/>
		<path class="st80" d="M516.9,13c0-1,0-1.9,0-2.9c0.7,0,1.4,0,2,0c0.2,1.8,4.3-0.5,3,2.9C520.3,14.5,518.6,14.5,516.9,13z"/>
		<path class="st32" d="M341,22.1c-0.7,0-1.3,0-2,0c-7.7,0.5-15.2,2.9-22.9,3.6c-2.4,1.4-4.1,0.3-5.7-1.4c-1.8-1.9-3.6-2.1-5.7-0.4
			c-0.5,0.4-1.2,0.6-1.7,1c-1.9,1.2-4.6,1.3-5.7,0.1c-4.5-4.9-13.1,0.6-16.3-6.9l-0.2-0.3c-0.1-1.2,0.5-1.8,1.6-1.9
			c0.5,0,0.7,0.5,0.5,1.1c1.7,1.7,3.3,2,5,0c3.8-0.1,7.8-0.6,11.2-0.6c3.3,0.1,7.4-1.3,10.8,0.6c5.4,3.7,11,3.2,16.6,0.4
			c2.4-1.2,4.8,0.8,7.7-0.6c2.1-1,5.1,1.7,6.7,4.1C341,21.4,341,21.7,341,22.1z"/>
		<path class="st87" d="M283.1,17c-1.2-1-1.6,0.2-2.1,0.9h-0.3h-0.3c0-1.8,0.4-3.7,2.1-4.3c1-0.4,1.8,1.2,2,2.4
			C284.5,16.9,283.7,17,283.1,17z"/>
		<path class="st88" d="M423,12.1c-2.7,0-5.3,0-8,0c-2.4-1.6-4.9-2.8-7.9-1.7c-1.2,0.4-2-0.5-2.3-1.3c-0.5-1.3,0.7-2.1,1.6-1.8
			c4.4,1.3,8.8-1.4,13.4,0.5C422.2,8.8,423.3,9.5,423,12.1z"/>
		<path class="st24" d="M447,11.1c-3.6-1.1-7-0.1-10.3,1c-2.2,0.7-4.1,1-5.7-0.9c1.2-3.7,3-5.9,7.5-3.9c2,0.9,4.5,0.7,6.8,0.8
			C447.6,8.1,448.2,9,447,11.1z"/>
		<path class="st31" d="M77.1,114c-1.1-0.2-2.7-0.1-2.4-1.8c0.2-1.1,1.3-2-0.8-2.4c-1.4-0.3-2.4-0.6-3.3,0.9c-1.3,2.2-2.7,3.7-6,3
			c-2-0.4-3.4,2.4-3.2,4.3c0.2,2.8-1.2,3.5-3.4,3.9c-0.9-0.9-1.9-1.8-3.6-3.3c0.7,4.1-3.4,5.5-3,8.9c0.1,0.9-0.4,2.1-1.6,2.2
			c-1.8,0.3-0.9-1.2-1.1-1.9c-0.3-1.2-1.1-1.4-2.2-1.4c-4,0-4.4-1.6-2.1-4.6c0.9-1.3,1.1-3,1.7-4.7c-1.8-0.9-2.7,1.4-4.1,0.9
			c1.1-4.1,4-7.3,6.8-10.3c5.3-5.6,7.7-13.2,13.5-18.4c2.3-2.1-0.8-4.4,0.8-6.3c5.4-2.8,8.5-8.5,13.9-11.2c2.8,1.9,3.6,3.9,2.1,7.5
			c-1.6,4-2.7,8.1-5.4,11.6c-1.5,2-1.8,4.5-1.9,7c-0.1,1.9-0.8,3.9-1.9,5c1.2-2.5,3.8-4.8,3-8.8c-0.5-2.6,1.6-4.6,3.3-6.4
			c3-3.3,6.5-6.1,8.4-10.3c0.9-1.9,2.7-3.4,4.3-4.8c1.9-1.7,4.9-1.9,4.6-6.3c-0.2-2.5,3.7-5.9,7.7-5.7c2.1,0.1,3.8-0.6,4.7-2.2
			c3-5.6,9.5-5.4,14.1-8.4c1.6-1.1,5.4,1.4,7.1,4.1c-2.6,3.3-6.8,3.8-10.3,5.4c-3,1.4-5.9,2.9-8.4,5c-3.5,5.4-9.1,8-14.3,11.2
			c-4.2,2.5-6.5,7-9.5,10.8c-0.2,0.3-0.5,0.7-0.4,0.9c3,6.2-2.6,9.3-4.9,13.6c-0.6,1.2-1.2,2.4-1,3.8
			C80.5,108.3,79.2,111.2,77.1,114L77.1,114z"/>
		<path class="st31" d="M31.2,135c1.6-2.9,4-5.4,4-9c2.9-2.2,3.2-6.6,7-8c0,1.7-0.2,3.1-1.1,4.7c-1.8,3.5-5,6.1-5.7,10.3
			C35,134.7,33,135.1,31.2,135z"/>
		<path class="st60" d="M281.1,18.2c3.1,1.9,5.8,5,10,2.2c1.3-0.9,2.4,0.7,3.3,1.6c3,3.2,6.8,3.9,9.8,0.8c3.2-3.3,5.4-1.4,7.2,0.8
			c1.5,1.7,2.7,2.1,4.6,1.5c1-0.3,1.2,0.1,1,1c-3.2,6.1-7.8-0.2-11.5,1.1c-0.9,0.3-2.5-1.7-3-0.3c-1.8,4.7-4.6,2.3-7.6,1.8
			c-6.7-1.1-13.6-0.3-20.2-1c-10.4-1-21.6,1.1-31.1-5.6c-0.3-0.2-1-0.1-1.5-0.1c0.1-1.4-0.5-3.1,1.1-4.1c0.1-2,0.4-3.7,3.2-2.8
			c1.4,2.5,3.5,4.3,6.4,3.9c8.2-1.3,15.8,1.8,23.8,2.4C278.7,21.5,279.3,18.9,281.1,18.2z"/>
		<path class="st89" d="M200.2,21.2c-0.7,0-1.4-0.1-2.1-0.1c-1.2,0.6-2.1,0.8-2-1.1c1.8-2.6,3.9-4.9,7.1-5.9c2.4-0.7,5.7-3,5.1,2.6
			c2.4-0.8,1.9-2.7,2.8-3.7c3.5-1.4,6.5,0.6,9.6,1.5c1.4,0.4,2.5,1.7,1.4,3.5C215,20.4,207.6,21.3,200.2,21.2z"/>
		<path class="st90" d="M225.1,19.1c0-0.3,0-0.7,0-1c3.4,0.5,5.2,3.7,8.3,4.7c2.9,0.9,4.6,0.5,4.7-2.8c0.1-1.7-0.6-3.7,2.2-4.7
			c-0.6,2.8-1.1,5.5-1.9,8c-0.7,2.6,0.8,2.8,2.6,2.8c-0.5,3.5-2.2,5.6-6,4.9c-4-0.8-7-3-7.9-7.2C226.8,22,227.3,20.1,225.1,19.1z"/>
		<path class="st91" d="M200.2,21.2c7.2-1.4,14.4-3.2,21.9-3.2c0.7,0,1.3,0.1,2,0.1c-2.4,3.5-6.3,3.7-9.7,3.4
			c-4.1-0.3-7.8,0.3-11.2,2.4c-0.2-1.3-0.6-1.9-2.2-1.4C198.9,23.3,199.9,21.9,200.2,21.2z"/>
		<path class="st92" d="M246.3,15.1c-1.6,0.3-2.2,1.8-3.2,2.8c-1.8-2.3-0.8-4.2,0.9-6C245.3,12.7,246.3,13.6,246.3,15.1z"/>
		<path class="st93" d="M108.1,64c2.2-4.2,6.9-4.6,10.5-6.5c2.7-1.5,5.7-2.3,8.5-3.4c0.9-1.5,2.2-2.6,3.8-3.1
			c11.9-4.3,21.6-12.9,33.4-17.6c3.6-1.4,7.4-1.6,10.8-3.3c1.9-0.9,3.7-2.2,5.9-2.1c0.6,0.1,1.5-0.1,1.9,0.3
			c1.1,0.9-0.1,1.3-0.7,1.7c-2.7,2.1-5.4,4.1-8.1,6.1c-3.3,5-3.3,5,1.4,8.6c1.4,1,1.5,2,0.6,3.3l0,0c-10.3,2.1-19.5,6.3-27.2,13.6
			c-1.7,1.7-3,4.1-5.8,4.4c-1.3-1.1-2.4-2.5-2.2-5.7c-5.4,8.7-9.4,1.3-13.8,0.7c-1.7-3.6-2.5-3.6-6.8-0.3c1.3-1.1,3.2-2.3,4.4-1
			c1.9,2.1,1.2,5.1,0.8,7.5c-0.4,2.3-2.8,4-4.9,3.3c-4.2-1.3-6.9,0.5-9.9,2.7c-1.1,0.8-2.8,1.6-4.1,0.2c-1.6-1.8,0.4-2.6,1.4-3.5
			C110.3,68.1,111.6,66.1,108.1,64z"/>
		<path class="st36" d="M175.1,30.1c-4.5,3.8-10.4,4.4-15.6,6.8c-7.9,3.7-14.5,9.4-22.6,12.8c-3.3,1.4-6.6,2.9-9.8,4.4
			c-1.3-2.2-5.7,0.6-5.8-3.6c0,0-0.4-0.1-0.4,0c-3,4.8-10.5,2.1-13.2,8c-1,2.2-2.7,4.7-6.6,3.5c-3.7-1.1-4.3,4.1-7.3,4.5
			c0.1,2.4,2.7,0.9,2.8,3c-3.1,2.4-7.8,3.6-9.8,7.5C84,82.6,79,86.1,75.2,90.7c-1.2,1.5-2.9,3.8,0,5.7c0.3,0.2,0.5,1.2,0.4,1.2
			c-3.6,1.9-3.6,7.6-8.2,8.1c3.5-9.6,7.4-19.2,11.8-28.6c0.9-2-2.7-2.9-2.2-5.1c0.7-1.3,1.6-2.2,2.9-2.9c0.4-0.3,1.2-0.6,1.3-0.4
			c1.6,4.5,4.2,0.8,6,0.5c3-0.5,2.2-3.1,1.7-5.2c0.4-2.9,5.4,0,5.1-3.9c6.4-1.3,12.2-4.1,17.8-7.3c2.7-1.6,5.4-3.1,8.1-4.7
			c3.8,0.1,6.9,2,11.3-1.6c2.9-2.4,7.2-7.1,12.9-5.6c1.2,0.3,1.6-0.8,2.3-1.6c2.1-2.4,4.8-4.3,7.9-4.8
			C161.4,33.4,167.7,29.2,175.1,30.1z"/>
		<path class="st34" d="M196.1,20c0.4,0.8,1.2,1,2,1.1c-6,3-12.9,2.5-19,5c-6.3,0-11.7,3.8-17.9,4.1c1.9-3.1-0.9-4.9-2-7.1
			c4.9-0.5,9.9-1.9,14.6-1.1C181.5,23.2,188.5,18.6,196.1,20z"/>
		<path class="st31" d="M132.1,41.1c-0.2-1.9,0.6-3,2.5-3.3c2.1-0.3,1.2,1.3,1.5,2.2C134.8,40.4,133.4,40.7,132.1,41.1z"/>
		<path class="st31" d="M89.1,64c0.9,0.8,3.3,1.2,2.3,2.4c-1.1,1.3-0.2,4.1-3.4,4.1c-1.7,0-4,0.1-5.2,2.2c-0.6,1-1.8,2-2.9,0.9
			c-1.3-1.2,0.4-2,1-2.8c1-1.3,0.4-1.6-0.9-1.8c1-1.7,2.4-3,4.1-4C85.7,64.7,87.4,64.3,89.1,64z"/>
		<path class="st94" d="M52.3,135.5c-1.1,2.5-4.9,1.7-4.4,5.5c0.1,1.1-2.8,3.3-3.3-0.4c-0.3-1.9-1.2-1.6-2.3-1.7
			c-1.1-0.1-2.2-0.5-1.8-1.8c0.4-1.6,1.5-0.7,2.3-0.2c0.3,0.1,0.6,0.2,0.9,0.2C45,128.4,49.7,137.4,52.3,135.5z"/>
		<path class="st95" d="M652.9,14.1c-4.7,4.3-10.6,2.6-16,3c-5.7-0.2-11.3-1.3-17.1,0.6c-3,1-5.7-2.8-8.9-3.7
			c7.5-1.6,15.3-0.8,22.9-1.5c6.4-0.6,12.8,0.2,19.2,0.7C652.9,13.4,652.9,13.8,652.9,14.1z"/>
		<path class="st95" d="M552,14.1c3.9-1.8,8-0.8,12-1c3.1-0.2,6.2,0.7,9.2-0.8c0.2,0.1,0.3,0.1,0.5,0c5.8,0.5,11.6,0.7,17.4-0.1
			c3-0.6,6,1.7,9,0c2.7,1.9,6.2,0.1,9,1.9c-1.6,3.4-5.1,0-7,2c-2.7-2.6-6.5-1.7-9.3-1.4c-7.2,0.8-14.5-0.7-21.6,0.5
			c-3,0.2-6-1.5-9.1,0l0,0c-3,1.4-6,0.4-9.1,0c-0.3,0-0.6,0-0.9,0c-0.3-0.2-0.5-0.4-0.3-0.7C551.7,14.2,551.8,14.1,552,14.1z"/>
		<path class="st96" d="M207.1,36c-0.3-0.9-0.6-2.5,0.9-1.9c2.9,1.2,4.9-0.7,7.4-1.3c3.8-0.9,6.9-2.1,6.8-6.8c0-2.5,1.9-0.7,2.9-1
			c0.4,3.2,0.1,6.7,1.3,9.7c1.4,3.4,3.9,6.2,8.4,6.5c3.1,0.2,6.5-2.1,9.4,0.8c-6.3,3.2-12.8,1.3-19.1,0.2c-2.5-0.4-3.6-2.7-1.8-5.4
			c0.8-1.2,2.6-2.2,0.5-4.1c-2.1-1.9-3.2,0.1-4.2,0.9C215.7,36.3,211.4,36.1,207.1,36z"/>
		<path class="st56" d="M317,26.1c-0.3-0.3-0.7-0.7-1-1c2.3-3,5.9,0,8.6-1.8c2.7-1.8,6.6,0.2,9.3-2.9c2-2.3,2.6,3.2,5.1,1.7
			c-1.2,1.7-0.7,4.9-4,5l0,0c-1.5-1.8-3-1.4-4.5,0.1c-1,0.9-1.6,2.6-3.5,1.9c-0.3,0-0.7,0-1,0c-1.8-1.4-4.6-0.8-6-3
			C319,24.9,318,26.4,317,26.1z"/>
		<path class="st60" d="M327,29.1c1.6-0.5,1.9-2.2,2.9-3.3c2.4-2.5,4.2-2.4,5.1,1.3C332.3,27.4,330.5,31.6,327,29.1z"/>
		<path class="st60" d="M320,26.1c2.1,0.7,4.7,0.6,6,3c-2-0.3-3.6,1.1-5.8,1.4C320.2,28.9,320.1,27.5,320,26.1z"/>
		<path class="st11" d="M156.1,76c-5.7,9.4-16.2,13.6-23.2,21.7c0.1-3.7,2.4-6,4.5-8.4c2-2.4,4.1-4.8,6.1-7.2
			c0.9-1.2,1.7-2.6,0.5-4.1c-1.1-1.4-2.1-0.1-3.1,0.2c-1,0.3-3,2.1-1.6-1.2c0.2-0.5-0.4-0.7-2.2,0.1c-3.1,1.4-4.5,4.7-8.3,7.1
			c1.8-4.3,3.6-7.5,5.9-10.1c2.9-3.3,5.9-2.7,9.4-0.1c2.8,2.1,6.3,4.6,10,1C155,75,155.7,75.2,156.1,76z"/>
		<path class="st65" d="M176.1,48.1c0.7-3.6-3-1.9-4.2-3.5c-1.9-2.7-4.8-4.7,0.2-7c0.7-0.3,1.3-1,2-1.4c1.4,4,2.7,0.5,3.6-0.2
			c2-1.6,1.9-1.6,3.1,1.1C183.7,43.1,178.2,44.6,176.1,48.1z"/>
		<path class="st97" d="M108.1,64c1.5,0,2.8,1,4.9-0.2c-0.9,4.6-3.4,6.9-6.6,9c2.2,1.4,3.8,0,4.7-1c2.6-2.7,4.9-4.4,9-2.2
			c1.5,0.8,5.1-0.4,4.3-4.1c-0.1-0.6-0.3-1.4-0.2-2c1.1-4.1-0.3-4-3.2-2.1c-0.7,0.5-1.8,0.5-4,0.9c3.4-3,5.2-6.2,9.3-5.2
			c2.5,0.6-1.2,2.9,0.8,3.9c-1.1,1.3,0,2.4,0.7,3c3.6,2.7,2.4,4.7-0.3,7.3c-3.7,3.6-6.9,7.5-12.3,9.3c-2,0.6-6.2,3.4-3.5,7.7
			c0.9,1.5,0.2,2.5-1.6,2.7c-3.1,0-2.3-3.1-3.6-4.6c-0.2,2.1-3.9,2.7-2.3,5.6c-2.9-0.2-2.6,2.8-4,4c-0.4-0.3-0.6-0.6-0.8-1.1
			c-0.5-1.5-0.7-3.4-3.1-2.5c-2.5,0.9-1.4,2.8-1.1,4.5c0.2,1.4,0.8,2.7,0,4.1c-2.1,1.4-3.3,3.5-4,5.9c-0.4,0.1-0.7,0.1-1.1,0.2
			c-1.8,1-3.1,0-3.6-1.4c-1.5-3.5-3.3-2.9-5.7-1.1c-1,0.8-2.2,1.6-3.6,0.4c0.5-4.2,1.8-7.9,5.8-10c1.6-0.8,2-1.8,1.1-3.1
			c-3.9-5.6,1.7-8.4,3.8-11.8c3.1-4.9,8.6-7.3,13.6-10c1.8-1,3.8-2.1,3.9-4.7C105.4,63.8,107,64.2,108.1,64z"/>
		<path class="st98" d="M146.2,125.7c1.5,7.1,4.8,13.2,9,19.1c-7.7-4.4-12.2-11.2-14.1-19.8c1.9-2.1,3.4-2.5,4,1
			c0.1,0.3,0.4,0.6,0.5,1C145.8,126.5,146,126.1,146.2,125.7z"/>
		<path class="st99" d="M100.1,95c0,0.3,0,0.7,0,1c0.1,1.7-1.5,3.8,2,4.3c2.2,0.3,2.5,2.7,3.1,4.6c-2.6,0.9-4.6-2.6-6.1-0.9
			c-2.2,2.5,3.7,2.6,2,5.4c-4.4-0.9-5.5-2.6-4.7-7.1c0.1-0.4-0.8-0.9-1.2-1.4c-0.7-1.2-1.2-2.5-1-4C96.2,96.7,98.1,95.6,100.1,95z"
			/>
		<path class="st100" d="M104.1,92c-0.7-1.5-6.1-3.4,0.6-4.2c2.1-0.3-1.9-2.7,0.6-4c3.2,1.2,2.3,5.4,4.8,7.2
			C108.5,94,106.3,93,104.1,92z"/>
		<path class="st101" d="M106.9,99c1.7,0.1,3,0.1,3.1,1.7c0.1,1.3-0.4,2.2-1.9,2.3c-1.5,0-1.8-1.1-2.1-2.2
			C105.6,99.3,106.3,99,106.9,99z"/>
		<path class="st71" d="M77.1,105c0.5-0.1,1.1,0,1.4-0.3c3.7-3.2,7.2-5.7,9.4,1.4c0.2,0.5,1.4,0.7,2.1,1c-2.5,2.5-5.4,4.6-6,8.5
			c-0.4,2.6-1.8,2.2-3.3,0.6c-1-1.1-2-2.2-3.7-2.1C76.6,111,80.1,108,77.1,105z"/>
		<path class="st12" d="M369,53.1c0.9,0.3,1.9,0.5,2.7,0.9c1.5,0.7,0.5-3.2,2.4-1.3c1.2,1.1,0.4,2.5-0.2,3.6
			c-1.3,2.6-1.4-1.6-2.5-0.5c-0.3,0.3-0.4,0.8-0.5,1.3C367.8,57,368.7,54.9,369,53.1z"/>
		<path class="st102" d="M377.4,49c-2.8,1.4-4.8,1.1-6.8,0C372.5,48.4,374.5,47.9,377.4,49z"/>
		<path class="st85" d="M591,12.1c-5.8,1.6-11.6,1.4-17.4,0.1C579.5,12.2,585.2,12.2,591,12.1z"/>
		<path class="st103" d="M473,14.1c13.7,0,27.3,0,41,0.1c-0.9,1.4-2.4,0.7-3.6,1.1c-0.7,0.2-2.2,0.6-1.4,1.3
			c1.2,1.1,2.1,1.7,0.3,2.7c-1.5,0.9-2.8-0.2-3.4-1.2c-1.6-2.4-2.7-1.3-4.8-0.5c-2,0.7-5.1,3.8-7.2-0.4c-0.1-0.2-0.7-0.5-0.7-0.5
			c-4.4,5.2-10.1-0.4-14.7,1.7c-3.4,1.5-6.9-1.1-10,1.2c-0.3,0.2-1.4-0.3-1.7-0.8c-2.9-3.9-6.5-3-10.2-1.6c-2.3,0.8-1.2-1.1-1.5-2
			c4.3-0.9,8.7-0.5,12.9,0C469.9,15.3,471.1,13.5,473,14.1z"/>
		<path class="st103" d="M423,15c10.3,0,20.7,0.1,31,0.1c-1.3,4.3-7.4,3-8.7,7.4c0,0.1-0.4,0.1-0.5,0c-6.1-6-13.8,0-20.5-2.6
			c-2.2-0.9-4.5-1.5-6.4-2.9C419.4,15.6,421,14.8,423,15z"/>
		<path class="st103" d="M552,14.1c0,0.3,0,0.7,0,1c-1.7-0.3-3.4-0.7-5.3-0.1c-7.4,2.3-15-0.6-22.5,0.6c-1.5,0.2-2.3,0.7-3.5,1.2
			c-1.9,0.9-4.6,0.1-5.7-2.7c0-0.3,0-0.6,0-1c0.6,0,1.3-0.1,1.9-0.1c1.7,0,3.3,0,5,0c7.9,0,15.8,0,23.7,0.1
			C547.8,13.1,550,12.9,552,14.1z"/>
		<path class="st103" d="M552.9,15.1c3-2,6,0.2,9.1,0C558.6,18.9,554.3,18.9,552.9,15.1z"/>
		<path class="st26" d="M423,15c-1.6,0.9-2.9,2.4-5,2.1c-1-0.6-1.4-2.1-3-1.9C417.7,13.4,420.3,13.6,423,15z"/>
		<path class="st103" d="M561.9,15.1c3-1.8,6-1.3,9.1,0c-0.5,2.4-1.9,1-2.9,0.5C566.1,14.7,564,15.2,561.9,15.1z"/>
		<path class="st104" d="M100.1,95c-1.3,2.6-3.2,3.6-6,2c-0.5-2.1-3.3-4.1,1.5-5.8C100.7,89.5,100.2,91.9,100.1,95z"/>
	</g>
</g>
</svg>
